<svg width="80" height="81" viewBox="0 0 80 81" fill="none" xmlns="http://www.w3.org/2000/svg">
<g filter="url(#filter0_d)">
<path d="M35.7471 22.3633V25.0657C35.7471 25.618 36.1948 26.0657 36.7471 26.0657H42.0603C42.6126 26.0657 43.0603 25.618 43.0603 25.0657V22.3633C43.0603 21.811 42.6126 21.3633 42.0603 21.3633H36.7471C36.1948 21.3633 35.7471 21.811 35.7471 22.3633Z" fill="#4FC3F7" stroke="#4FC3F7"/>
<path d="M36.459 57.6606V60.363C36.459 60.9153 36.9067 61.363 37.459 61.363H42.7722C43.3245 61.363 43.7722 60.9153 43.7722 60.363V57.6606C43.7722 57.1084 43.3245 56.6606 42.7722 56.6606H37.459C36.9067 56.6606 36.459 57.1084 36.459 57.6606Z" fill="#4FC3F7" stroke="#4FC3F7"/>
<path d="M58.1777 38.0566L55.3845 38.0566C54.8322 38.0566 54.3845 38.5044 54.3845 39.0566L54.3845 44.2313C54.3845 44.7836 54.8322 45.2313 55.3845 45.2313L58.1777 45.2313C58.73 45.2313 59.1777 44.7836 59.1777 44.2313L59.1777 39.0566C59.1777 38.5044 58.73 38.0566 58.1777 38.0566Z" fill="#4FC3F7" stroke="#4FC3F7"/>
<path d="M22.9707 38.0566L20.1775 38.0566C19.6252 38.0566 19.1775 38.5044 19.1775 39.0566L19.1775 44.2313C19.1775 44.7836 19.6252 45.2313 20.1775 45.2313L22.9707 45.2313C23.523 45.2313 23.9707 44.7836 23.9707 44.2313L23.9707 39.0566C23.9707 38.5044 23.523 38.0566 22.9707 38.0566Z" fill="#4FC3F7" stroke="#4FC3F7"/>
<path d="M51.1372 25.5655L49.1756 27.49C48.7813 27.8768 48.7813 28.5039 49.1756 28.8906L52.9192 32.5633C53.3134 32.95 53.9526 32.95 54.3468 32.5633L56.3085 30.6388C56.7027 30.252 56.7027 29.6249 56.3085 29.2382L52.5649 25.5655C52.1707 25.1788 51.5315 25.1788 51.1372 25.5655Z" fill="#4FC3F7" stroke="#4FC3F7"/>
<path d="M29.9883 26.8778L28.5617 25.4783C28.1675 25.0915 27.5283 25.0915 27.134 25.4783L23.3905 29.1509C22.9962 29.5376 22.9962 30.1647 23.3905 30.5515L24.8171 31.9511C25.2113 32.3378 25.8505 32.3378 26.2447 31.9511L29.9883 28.2784C30.3826 27.8917 30.3826 27.2646 29.9883 26.8778Z" fill="#4FC3F7" stroke="#4FC3F7"/>
<path d="M51.1372 57.5053L49.1756 55.5808C48.7813 55.194 48.7813 54.5669 49.1756 54.1802L52.9192 50.5075C53.3134 50.1208 53.9526 50.1208 54.3468 50.5075L56.3085 52.432C56.7027 52.8188 56.7027 53.4459 56.3085 53.8326L52.5649 57.5053C52.1707 57.892 51.5315 57.892 51.1372 57.5053Z" fill="#4FC3F7" stroke="#4FC3F7"/>
<path d="M29.5869 55.8483L27.6253 57.7727C27.2311 58.1595 26.5919 58.1595 26.1976 57.7727L22.454 54.1001C22.0598 53.7133 22.0598 53.0863 22.454 52.6995L24.4157 50.775C24.8099 50.3882 25.4491 50.3882 25.8434 50.775L29.5869 54.4476C29.9812 54.8344 29.9812 55.4615 29.5869 55.8483Z" fill="#4FC3F7" stroke="#4FC3F7"/>
<path d="M52.5108 41.6441C52.5108 48.6253 46.7207 54.4146 39.4163 54.4146C32.1119 54.4146 26.3218 48.6253 26.3218 41.6441C26.3218 34.6629 32.1119 28.8735 39.4163 28.8735C46.7207 28.8735 52.5108 34.6629 52.5108 41.6441Z" stroke="#4FC3F7" stroke-width="8"/>
<circle cx="39.4038" cy="41.644" r="8" stroke="#8BF6FF" stroke-width="3"/>
</g>
<defs>
<filter id="filter0_d" x="10.6772" y="15.5562" width="57.323" height="57.3069" filterUnits="userSpaceOnUse" color-interpolation-filters="sRGB">
<feFlood flood-opacity="0" result="BackgroundImageFix"/>
<feColorMatrix in="SourceAlpha" type="matrix" values="0 0 0 0 0 0 0 0 0 0 0 0 0 0 0 0 0 0 127 0"/>
<feOffset dy="3"/>
<feGaussianBlur stdDeviation="4"/>
<feColorMatrix type="matrix" values="0 0 0 0 0 0 0 0 0 0 0 0 0 0 0 0 0 0 0.25 0"/>
<feBlend mode="normal" in2="BackgroundImageFix" result="effect1_dropShadow"/>
<feBlend mode="normal" in="SourceGraphic" in2="effect1_dropShadow" result="shape"/>
</filter>
</defs>
</svg>
