<svg width="34" height="27" viewBox="0 0 34 27" fill="none" xmlns="http://www.w3.org/2000/svg">
<path d="M18.1035 15.418C18.1035 18.957 17.3711 21.6641 15.9062 23.5391C14.4414 25.4141 12.2969 26.3516 9.47266 26.3516C6.68359 26.3516 4.55078 25.4316 3.07422 23.5918C1.59766 21.752 0.841797 19.1152 0.806641 15.6816V10.9707C0.806641 7.39648 1.54492 4.68359 3.02148 2.83203C4.50977 0.980469 6.64844 0.0546875 9.4375 0.0546875C12.2266 0.0546875 14.3594 0.974609 15.8359 2.81445C17.3125 4.64258 18.0684 7.27344 18.1035 10.707V15.418ZM13.0234 10.25C13.0234 8.12891 12.7305 6.58789 12.1445 5.62695C11.5703 4.6543 10.668 4.16797 9.4375 4.16797C8.24219 4.16797 7.35742 4.63086 6.7832 5.55664C6.2207 6.4707 5.92188 7.90625 5.88672 9.86328V16.0859C5.88672 18.1719 6.16797 19.7246 6.73047 20.7441C7.30469 21.752 8.21875 22.2559 9.47266 22.2559C10.7148 22.2559 11.6113 21.7695 12.1621 20.7969C12.7129 19.8242 13 18.3359 13.0234 16.332V10.25ZM33.8887 26H28.8086V6.41797L22.7441 8.29883V4.16797L33.3438 0.371094H33.8887V26Z" fill="#D3DBD9"/>
</svg>
