<svg width="40" height="27" viewBox="0 0 40 27" fill="none" xmlns="http://www.w3.org/2000/svg">
<path d="M18.1035 15.418C18.1035 18.957 17.3711 21.6641 15.9062 23.5391C14.4414 25.4141 12.2969 26.3516 9.47266 26.3516C6.68359 26.3516 4.55078 25.4316 3.07422 23.5918C1.59766 21.752 0.841797 19.1152 0.806641 15.6816V10.9707C0.806641 7.39648 1.54492 4.68359 3.02148 2.83203C4.50977 0.980469 6.64844 0.0546875 9.4375 0.0546875C12.2266 0.0546875 14.3594 0.974609 15.8359 2.81445C17.3125 4.64258 18.0684 7.27344 18.1035 10.707V15.418ZM13.0234 10.25C13.0234 8.12891 12.7305 6.58789 12.1445 5.62695C11.5703 4.6543 10.668 4.16797 9.4375 4.16797C8.24219 4.16797 7.35742 4.63086 6.7832 5.55664C6.2207 6.4707 5.92188 7.90625 5.88672 9.86328V16.0859C5.88672 18.1719 6.16797 19.7246 6.73047 20.7441C7.30469 21.752 8.21875 22.2559 9.47266 22.2559C10.7148 22.2559 11.6113 21.7695 12.1621 20.7969C12.7129 19.8242 13 18.3359 13.0234 16.332V10.25ZM39.0918 26H21.5488V22.5195L29.8281 13.6953C30.9648 12.4531 31.8027 11.3691 32.3418 10.4434C32.8926 9.51758 33.168 8.63867 33.168 7.80664C33.168 6.66992 32.8809 5.7793 32.3066 5.13477C31.7324 4.47852 30.9121 4.15039 29.8457 4.15039C28.6973 4.15039 27.7891 4.54883 27.1211 5.3457C26.4648 6.13086 26.1367 7.16797 26.1367 8.45703H21.0391C21.0391 6.89844 21.4082 5.47461 22.1465 4.18555C22.8965 2.89648 23.9512 1.88867 25.3105 1.16211C26.6699 0.423828 28.2109 0.0546875 29.9336 0.0546875C32.5703 0.0546875 34.6152 0.6875 36.0684 1.95312C37.5332 3.21875 38.2656 5.00586 38.2656 7.31445C38.2656 8.58008 37.9375 9.86914 37.2812 11.1816C36.625 12.4941 35.5 14.0234 33.9062 15.7695L28.0879 21.9043H39.0918V26Z" fill="#C62452"/>
</svg>
