<svg width="111" height="161" viewBox="0 0 111 161" fill="none" xmlns="http://www.w3.org/2000/svg">
<g clip-path="url(#clip0)">
<path fill-rule="evenodd" clip-rule="evenodd" d="M54.9513 159.366C54.9513 159.366 105.08 96.3536 105.08 62.1554C105.08 27.9571 82.3099 1.86195 54.9513 1.86133C27.5926 1.86071 5.19385 27.6185 5.19385 62.1554C5.19385 96.6922 54.9513 159.366 54.9513 159.366ZM55.1367 80.6133C68.9438 80.6133 80.1367 69.4204 80.1367 55.6133C80.1367 41.8062 68.9438 30.6133 55.1367 30.6133C41.3296 30.6133 30.1367 41.8062 30.1367 55.6133C30.1367 69.4204 41.3296 80.6133 55.1367 80.6133Z" fill="#72FFCC"/>
<path d="M54.9513 159.366L54.5597 159.677L54.9509 160.169L55.3425 159.677L54.9513 159.366ZM54.9513 1.86133L54.9513 1.36133L54.9513 1.86133ZM104.58 62.1554C104.58 70.6002 101.48 80.8742 96.7893 91.5711C92.1031 102.257 85.8507 113.317 79.5917 123.32C73.3336 133.321 67.0747 142.256 62.3799 148.691C60.0327 151.908 58.0769 154.5 56.7083 156.287C56.024 157.181 55.4865 157.873 55.1202 158.342C54.9371 158.576 54.7969 158.755 54.7025 158.874C54.6553 158.934 54.6195 158.979 54.5957 159.01C54.5837 159.025 54.5747 159.036 54.5688 159.043C54.5658 159.047 54.5636 159.05 54.5621 159.052C54.5614 159.053 54.5608 159.053 54.5605 159.054C54.5601 159.054 54.56 159.055 54.9513 159.366C55.3425 159.677 55.3428 159.677 55.3432 159.676C55.3436 159.676 55.3442 159.675 55.345 159.674C55.3466 159.672 55.3489 159.669 55.352 159.665C55.3582 159.657 55.3674 159.646 55.3795 159.63C55.4038 159.6 55.44 159.554 55.4877 159.494C55.583 159.373 55.7242 159.193 55.9082 158.958C56.2763 158.487 56.8158 157.792 57.5022 156.895C58.8749 155.103 60.8354 152.505 63.1878 149.28C67.8921 142.832 74.1653 133.877 80.4394 123.85C86.7125 113.825 92.9922 102.72 97.7051 91.9727C102.413 81.2365 105.58 70.8096 105.58 62.1554H104.58ZM54.9513 2.36133C81.9575 2.36194 104.58 28.1503 104.58 62.1554H105.58C105.58 27.7639 82.6622 1.36196 54.9513 1.36133L54.9513 2.36133ZM5.69385 62.1554C5.69385 27.8086 27.9477 2.36071 54.9513 2.36133L54.9513 1.36133C27.2376 1.3607 4.69385 27.4285 4.69385 62.1554H5.69385ZM54.9513 159.366C55.3429 159.055 55.3427 159.055 55.3424 159.054C55.342 159.054 55.3415 159.053 55.3407 159.052C55.3393 159.05 55.3371 159.048 55.3341 159.044C55.3282 159.036 55.3193 159.025 55.3075 159.01C55.2838 158.98 55.2483 158.935 55.2015 158.876C55.1078 158.757 54.9685 158.579 54.7868 158.346C54.4233 157.88 53.8898 157.191 53.2106 156.302C51.8521 154.523 49.9109 151.943 47.5811 148.739C42.9211 142.331 36.7086 133.427 30.497 123.448C24.2845 113.466 18.0784 102.417 13.427 91.7154C8.77106 81.0033 5.69385 70.6862 5.69385 62.1554H4.69385C4.69385 70.8929 7.83632 81.3614 12.5099 92.114C17.188 102.877 23.4213 113.972 29.6481 123.976C35.8758 133.982 42.1027 142.906 46.7723 149.327C49.1072 152.539 51.0533 155.125 52.4159 156.909C53.0972 157.801 53.6327 158.492 53.9981 158.961C54.1808 159.195 54.321 159.374 54.4156 159.494C54.4629 159.554 54.4988 159.6 54.5229 159.63C54.535 159.646 54.5441 159.657 54.5503 159.665C54.5533 159.669 54.5557 159.672 54.5572 159.674C54.558 159.675 54.5586 159.675 54.559 159.676C54.5594 159.676 54.5597 159.677 54.9513 159.366ZM79.6367 55.6133C79.6367 69.1443 68.6677 80.1133 55.1367 80.1133V81.1133C69.22 81.1133 80.6367 69.6965 80.6367 55.6133H79.6367ZM55.1367 31.1133C68.6677 31.1133 79.6367 42.0823 79.6367 55.6133H80.6367C80.6367 41.53 69.22 30.1133 55.1367 30.1133V31.1133ZM30.6367 55.6133C30.6367 42.0823 41.6057 31.1133 55.1367 31.1133V30.1133C41.0535 30.1133 29.6367 41.53 29.6367 55.6133H30.6367ZM55.1367 80.1133C41.6057 80.1133 30.6367 69.1443 30.6367 55.6133H29.6367C29.6367 69.6965 41.0535 81.1133 55.1367 81.1133V80.1133Z" fill="black"/>
</g>
<defs>
<clipPath id="clip0">
<rect width="110" height="160" fill="white" transform="translate(0.136719 0.365234)"/>
</clipPath>
</defs>
</svg>
