<svg width="111" height="161" viewBox="0 0 111 161" fill="none" xmlns="http://www.w3.org/2000/svg">
<g clip-path="url(#clip0)">
<path d="M105.08 62.1554C105.08 96.3536 54.9513 159.366 54.9513 159.366C54.9513 159.366 5.19385 96.6922 5.19385 62.1554C5.19385 27.6185 27.5926 1.86071 54.9513 1.86133C82.3099 1.86195 105.08 27.9571 105.08 62.1554Z" fill="black" stroke="black"/>
<g clip-path="url(#clip1)">
<g opacity="0.2">
<path opacity="0.2" d="M76.7383 53.8336H70.5664C70.5664 53.8336 68.8383 53.8336 67.4805 50.5008C66.8633 48.7727 66.1227 47.168 64.3945 47.168H52.0508C50.3227 47.168 49.582 48.7727 48.9648 50.5008C47.7305 53.8336 45.8789 53.8336 45.8789 53.8336H42.793C42.793 51.982 41.4352 50.5008 39.707 50.5008H36.6211C34.893 50.5008 33.5352 51.982 33.5352 53.8336C31.807 53.8336 30.4492 55.3148 30.4492 57.1664V83.4586C30.4492 85.3102 31.807 86.7914 33.5352 86.7914H76.7383C78.4664 86.7914 79.8242 85.3102 79.8242 83.4586V57.1664C79.8242 55.3148 78.4664 53.8336 76.7383 53.8336Z" fill="#231F20"/>
</g>
<path d="M76.7383 50.9941H70.5664C70.5664 50.9941 68.8383 51.3645 67.4805 48.1551C66.8633 46.427 66.1227 44.8223 64.3945 44.8223H52.0508C50.3227 44.8223 49.582 46.427 48.9648 48.1551C47.7305 51.4879 45.8789 50.9941 45.8789 50.9941H42.793C42.793 49.1426 41.4352 48.5254 39.707 48.5254H36.6211C34.893 48.5254 33.5352 49.1426 33.5352 50.9941C31.807 50.9941 30.4492 52.8457 30.4492 54.6973V80.9895C30.4492 82.841 31.807 84.3223 33.5352 84.3223H76.7383C78.4664 84.3223 79.8242 82.841 79.8242 80.9895V54.6973C79.8242 52.8457 78.4664 50.9941 76.7383 50.9941Z" fill="#4FC3F7"/>
<path d="M57.6055 78.1504C63.741 78.1504 68.7148 73.1766 68.7148 67.041C68.7148 60.9055 63.741 55.9316 57.6055 55.9316C51.4699 55.9316 46.4961 60.9055 46.4961 67.041C46.4961 73.1766 51.4699 78.1504 57.6055 78.1504Z" fill="#E0F7FA"/>
<g opacity="0.2">
<g opacity="0.2">
<path opacity="0.2" d="M57.6055 83.0879C50.0758 83.0879 44.0273 77.0395 44.0273 69.5098C44.0273 61.9801 50.0758 55.9316 57.6055 55.9316C65.1352 55.9316 71.1836 61.9801 71.1836 69.5098C71.1836 77.0395 65.1352 83.0879 57.6055 83.0879ZM57.6055 60.8691C52.7914 60.8691 48.9648 64.6957 48.9648 69.5098C48.9648 74.3238 52.7914 78.1504 57.6055 78.1504C62.4195 78.1504 66.2461 74.3238 66.2461 69.5098C66.2461 64.6957 62.4195 60.8691 57.6055 60.8691Z" fill="#231F20"/>
</g>
</g>
<path d="M57.6055 80.002C50.4461 80.002 44.6445 74.2004 44.6445 67.041C44.6445 59.8816 50.4461 54.0801 57.6055 54.0801C64.7648 54.0801 70.5664 59.8816 70.5664 67.041C70.5664 74.2004 64.7648 80.002 57.6055 80.002ZM57.6055 57.7832C52.5445 57.7832 48.3477 61.9801 48.3477 67.041C48.3477 72.102 52.5445 76.2988 57.6055 76.2988C62.6664 76.2988 66.8633 72.102 66.8633 67.041C66.8633 61.9801 62.6664 57.7832 57.6055 57.7832Z" fill="#8BF6FF"/>
</g>
</g>
<defs>
<clipPath id="clip0">
<rect width="110" height="160" fill="white" transform="translate(0.136719 0.365234)"/>
</clipPath>
<clipPath id="clip1">
<rect width="50" height="43" fill="white" transform="translate(30.0571 44.7637)"/>
</clipPath>
</defs>
</svg>
