<svg width="111" height="161" viewBox="0 0 111 161" fill="none" xmlns="http://www.w3.org/2000/svg">
<g clip-path="url(#clip0)">
<path d="M105.58 61.6593C105.58 95.8575 55.4513 158.87 55.4513 158.87C55.4513 158.87 5.69385 96.1961 5.69385 61.6593C5.69385 27.1224 28.0926 1.36461 55.4513 1.36523C82.8099 1.36586 105.58 27.461 105.58 61.6593Z" fill="black" stroke="black"/>
<path d="M51.0918 17.2616C51.2323 17.402 51.2387 17.434 51.4493 20.8431C51.5387 22.2285 51.6792 24.4693 51.7685 25.8228C51.8515 27.1762 51.9537 28.9829 51.992 29.8448C52.0303 30.7066 52.0878 31.8111 52.1197 32.3027C52.158 32.7942 52.241 34.1605 52.3112 35.3351C52.3814 36.5098 52.458 37.7356 52.4836 38.0612C52.5027 38.4251 52.49 38.8337 52.4453 39.1401C52.3495 39.7147 51.992 40.8766 51.7302 41.4512C51.443 42.0832 50.1534 43.9346 49.2851 44.9433C48.4552 45.9073 48.0977 46.5329 47.8295 47.4969C47.6955 47.9758 47.6827 48.1226 47.6891 49.9229C47.6955 51.8956 47.7338 53.0895 48.0019 59.148C48.0913 61.0952 48.187 63.368 48.2253 64.1915C48.2636 65.0151 48.3339 66.6239 48.3849 67.7666C48.436 68.9094 48.5062 70.8438 48.5445 72.0759C48.6084 74.304 48.6531 75.3574 48.8318 79.3539C49.0361 83.8292 49.3043 90.3282 49.3426 91.5476C49.3617 92.2499 49.4064 93.2394 49.4447 93.7438C49.5469 95.2249 49.3809 96.1825 48.851 97.2167C48.4871 97.919 48.1232 98.2957 47.5359 98.5829C47.0762 98.8128 47.0187 98.8255 46.4442 98.8192C45.7355 98.8192 45.4099 98.7042 44.8992 98.2765C44.2225 97.7147 43.616 96.4762 43.4117 95.2504C43.3734 95.0014 43.5585 89.3451 43.7564 84.8443C43.9097 81.4287 44.1395 74.9807 44.2033 72.5548C44.2416 71.0992 44.3246 68.3795 44.3948 66.5217C44.4587 64.6576 44.5481 62.1614 44.5864 60.9675C44.6247 59.7737 44.6949 57.7882 44.746 56.5624C44.797 55.3303 44.8864 52.9043 44.9439 51.1678L45.0524 48.0077L44.8928 47.3629C44.6885 46.5521 44.3055 45.786 43.7437 45.0391C42.8499 43.8516 41.3241 41.5916 41.1134 41.1383C40.8133 40.5063 40.5899 39.7019 40.5005 38.9358C40.4303 38.3868 40.4367 38.1314 40.558 36.9631C40.6282 36.2225 40.7176 35.15 40.7559 34.569C40.7942 33.9881 40.8516 33.0688 40.8899 32.5261C40.9602 31.377 41.4134 26.0973 41.5539 24.7374C41.605 24.2267 41.6752 23.2499 41.7135 22.5668C41.8029 20.7793 42.0582 17.5617 42.1285 17.3829C42.1859 17.2424 42.4988 17.1211 42.6711 17.1722C42.7414 17.1978 42.8435 17.2744 42.8882 17.351C42.9839 17.5042 42.9903 17.6766 43.1499 24.9928C43.3223 33.1901 43.3095 32.7815 43.4436 32.9155C43.5777 33.0496 43.8458 33.0688 44.1012 32.973C44.2161 32.9347 44.2672 32.8517 44.2927 32.7049C44.3119 32.5899 44.3565 31.2174 44.3948 29.6532C44.4651 26.774 44.5353 24.0607 44.6502 19.7897L44.7141 17.4276L44.88 17.2808C45.078 17.1084 45.2886 17.102 45.4865 17.2616C45.627 17.3765 45.6398 17.434 45.6844 18.5193C45.7419 20.0323 45.844 23.9841 45.9334 28.121C45.9653 29.9661 46.0164 31.8047 46.042 32.2069L46.0866 32.9347L46.2909 32.9922C46.5399 33.0688 46.7953 33.0113 46.8464 32.8709C46.8911 32.7496 46.9677 31.0897 47.14 26.525C47.2103 24.6481 47.2933 22.3753 47.3316 21.4815C47.3635 20.5877 47.4082 19.3109 47.4337 18.647C47.472 17.4914 47.4784 17.434 47.6252 17.2871C47.8168 17.0956 48.1743 17.0892 48.353 17.268C48.4807 17.3957 48.4807 17.4787 48.4807 25.0503C48.4807 32.3091 48.4871 32.7113 48.5956 32.8453C48.7361 33.0177 49.2213 33.0879 49.4958 32.973C49.7575 32.8645 49.8022 32.6729 49.8469 31.5366C49.8724 31.0067 49.9299 29.5319 49.981 28.2487C50.2108 22.586 50.2683 21.0155 50.2683 20.2366C50.2683 19.777 50.2874 18.947 50.313 18.3916C50.3449 17.5233 50.3704 17.3574 50.4726 17.2552C50.6194 17.1084 50.9386 17.1084 51.0918 17.2616Z" fill="#E0F7FA"/>
<path d="M66.5174 17.3071C67.341 17.6902 68.1965 18.8202 68.9115 20.4673C69.518 21.8654 70.2586 24.5084 70.6224 26.5322C70.7629 27.3238 70.948 28.3453 71.031 28.805C71.4715 31.1926 71.5865 32.6291 71.8291 38.9877C71.8674 39.9581 71.9057 42.333 71.912 44.2546C71.9184 47.5999 71.912 47.8489 71.7461 49.6748C71.4205 53.2307 71.3949 53.384 70.5841 57.3102C69.8755 60.7449 69.7797 61.3386 69.5371 64.0391C69.2945 66.7205 69.2882 69.6061 69.5244 73.8707C69.5946 75.1348 69.6648 76.6287 69.6904 77.1905C69.7797 79.5973 69.8627 81.1103 70.0415 83.5746C70.5267 90.3929 70.7757 94.4149 70.7757 95.513C70.7757 96.3812 70.6416 96.7196 70.1436 97.1984C69.4669 97.8304 68.5604 98.1433 67.2005 98.2071C65.5598 98.2837 64.449 97.9837 63.6829 97.2623C63.2679 96.8664 63.0764 96.4323 63.0317 95.8322C63.0062 95.4045 63.1083 93.9808 63.3062 92.0656C63.3573 91.574 63.4467 90.6674 63.4977 90.0545C63.5552 89.4417 63.6701 88.3053 63.7531 87.5328C63.8425 86.7603 63.9574 85.426 64.0085 84.5642C64.0595 83.7023 64.2064 81.8062 64.3277 80.3506C64.9086 73.4047 65.0235 70.8255 64.9789 65.699C64.9406 61.3195 64.8831 59.8767 64.6469 57.3677C64.5575 56.4356 64.4745 55.4907 64.4554 55.2609C64.3851 54.3863 64.1042 48.0851 64.0404 45.9337C64.0021 44.6887 63.9127 42.5118 63.8425 41.0881C63.6829 37.8896 63.619 35.6999 63.5297 30.4265C63.4211 23.9722 63.4211 20.7801 63.5169 20.18C63.7212 18.967 64.0212 18.0924 64.3724 17.6902C64.8448 17.1539 65.8152 16.9751 66.5174 17.3071Z" fill="#4FC3F7"/>
</g>
<defs>
<clipPath id="clip0">
<rect width="110" height="160" fill="white" transform="translate(0.636719 0.365234)"/>
</clipPath>
</defs>
</svg>
