<?xml version="1.0" encoding="utf-8"?>
<!-- Generator: Adobe Illustrator 16.0.0, SVG Export Plug-In . SVG Version: 6.00 Build 0)  -->
<!DOCTYPE svg PUBLIC "-//W3C//DTD SVG 1.1//EN" "http://www.w3.org/Graphics/SVG/1.1/DTD/svg11.dtd">
<svg version="1.1" id="Capa_1" xmlns="http://www.w3.org/2000/svg" xmlns:xlink="http://www.w3.org/1999/xlink" x="0px" y="0px"
	 width="800px" height="800px" viewBox="0 0 800 800" enable-background="new 0 0 800 800" xml:space="preserve">
<g id="Salvavides">
	<g>
		<path fill="#FFC41D" d="M479.57,348.694c0,0-8.752,0.265-9.348-6.893c-0.595-7.158,0.2-14.713,5.637-18.027
			c5.435-3.314,18.953-9.279,25.582-9.544c6.627-0.265,14.845-3.844,17.895-4.771c3.048-0.928,5.434-0.398,7.024,0
			c1.592,0.397,8.749,9.418,12.327,10.209c3.578,0.792,21.605-1.056,30.486,0c8.881,1.057,9.411,2.913,11.665,2.515
			c2.253-0.397,10.205-9.279,14.447-9.543c4.241-0.265,7.688-1.591,12.856-1.591c5.17,0,18.822-1.458,22.534,1.061
			c3.711,2.518,6.362,9.278,6.098,10.736c-0.266,1.458-1.988,9.941-2.121,10.339C634.521,333.583,479.57,348.694,479.57,348.694z"/>
		<g>
			<path fill="#191919" d="M552.078,403.844c10.967,60.93,25.712,142.318,26.375,143.147c1.061,1.325,26.245,1.854,26.245,1.854
				s2.65-116.909,2.65-118.233c0-0.56,1.645-14.033,3.548-29.452l-49.146,1.881C561.752,403.04,558.084,403.346,552.078,403.844z"/>
			<path fill="#282828" d="M602.047,320.859c-5.037,1.06-10.073,7.422-15.905,10.869c-5.833,3.446-17.763,2.386-26.774,2.375
				c-9.015-0.011-10.029-3.988-10.029-3.988l-9.059,7.975c0,0,5.22,29.193,11.8,65.753c6.006-0.498,9.674-0.804,9.674-0.804
				l49.146-1.881c2.619-21.212,5.73-46.103,5.73-46.103S607.084,319.798,602.047,320.859z"/>
		</g>
		<path fill="#BABABA" d="M557.605,353.233c2.826,0,20.848-1.729,20.848-1.729L575.184,339h-22.444L557.605,353.233z"/>
		<path fill="#FFC41D" d="M594.359,489.993c0-1.061-18.027-110.017,7.953-165.423c0,0,1.854-5.833,4.771-4.772
			s7.953,2.651,9.014,5.302c1.062,2.651,7.158,3.446,11.399,2.651s7.157-1.856,11.135,0.265c3.977,2.121,7.157,2.916,10.604,1.59
			c3.446-1.326,10.339-4.242,11.398-1.855c1.062,2.386-1.325,19.353,0,24.124c1.326,4.772,1.855,55.671,2.386,58.853
			s5.303,22.27,15.643,26.245c10.339,3.978,0,19.883,0,19.883s7.068,5.832,4.595,16.7c-2.474,10.87-3.004,9.015-3.004,9.015
			s1.854,31.548,2.12,32.873s5.037,11.665,7.953,13.784c2.916,2.121,3.712,3.978,2.65,7.953c-1.061,3.977,1.325,7.425-5.037,8.483
			c-6.361,1.061-62.033,15.642-70.781,12.46s-7.953,0.453-7.953,0.453s-0.266,5.645-15.376,6.174
			c-15.11,0.53-90.135,4.508-97.823,3.182c-7.688-1.324-15.109-5.832-15.109-5.832s-11.664-13.256-10.604-18.026
			c1.061-4.771,3.711-17.496,7.157-19.617s7.423-5.567,8.748-8.218c1.325-2.651,2.121-5.304,2.121-5.304l0.796-22.003
			c0,0-9.27-17.497-10.329-24.92c-1.061-7.423-0.786-14.579-0.786-14.579v-20.235c0,0,7.148-23.241,7.412-24.036
			c0.266-0.795-1.33-68.396-0.535-68.131c0.796,0.265,6.096-3.181,10.604-2.121c4.507,1.06,9.808-2.916,12.987-2.651
			c3.183,0.265,14.845,0.265,16.7-0.53c1.856-0.795,3.445-1.326,10.339-0.53c6.894,0.795,10.074-4.507,11.664-3.711
			c1.591,0.795,6.362,9.809,6.362,10.604c0,0.795,24.391,37.91,25.98,77.675c1.59,39.766,8.217,73.964,8.217,73.964l5.304,50.368
			l7.688-1.06L594.359,489.993z"/>
		<path fill="#191919" d="M488,490.579l50.484,2.964l3.649-1.543h6.893l4.771,1.582c0,0,7.776,0.979,8.836,0.979
			c1.062,0,10.958-0.683,12.021-0.505c1.06,0.178,7.774-1.056,7.774-1.056h5.303l3.005,19.97c0,0-5.656,3.622-6.187,3.622
			c-0.529,0-0.884-2.342-4.771-0.927c-3.889,1.413-12.549,4.572-13.079,4.572c-0.529,0-6.539-1.07-6.539-1.07l-3.534-2.658
			c0,0-3.711,0.353-4.242,0.705c-0.529,0.354-7.6,1.06-7.6,1.06l-2.65-2.476l-14.491,0.866c0,0-7.424,0.336-11.312,0.336
			s-15.022,0-15.022,0l-2.65,0.636l-2.475-3.04l0.812-3.109L488,510.142V490.579z"/>
		<path fill="#191919" d="M606.466,488.418L610.708,513h3.004l4.948-6.328l6.363-0.672h8.306l0.884,15.414
			c0,0,3.358,20.963,3.712,21.846c0.354,0.885,3.535,10.306,4.241,13.662c0.707,3.358,5.126,19.822,4.771,22.297
			c-0.354,2.475,11.664-0.693,11.664-0.693s-0.884-14.31-1.943-15.369c-1.061-1.061,17.851,14.672,18.381,14.849
			c0.53,0.178,11.134,2.771,14.492,2.183c3.357-0.59,10.251-3.594,12.018-5.536c1.769-1.944,5.302-5.654,5.302-9.189
			s-6.883-11.186-6-12.953c0.886-1.768,12.776-15.683,12.247-22.575s-1.943-13.784-3.889-16.437c-1.943-2.65-7.537-8.07-9.658-8.098
			c-2.12-0.027-17.551-2.325-17.551-2.325v9.188c0,0,20.202,1.415,23.207,2.828c3.005,1.414,3.092,5.298,3.092,8.125
			c0,2.828-2.521,15.558-2.521,15.558s-8.644,3.483-10.234,7.194c-1.59,3.712-2.646,4.949-1.586,5.832
			c1.06,0.885,4.772,4.596,4.064,6.363c-0.707,1.768,1.938,10.303,0.699,11.01c-1.236,0.706-6.539,5.124-13.607,4.417
			c-7.069-0.706-15.905-11.664-18.203-14.315c-2.298-2.649-12.901-18.025-14.847-19.087c-1.944-1.061-1.413-4.24-1.413-4.24
			s-1.769-9.545-3.182-12.02c-1.414-2.474-1.237-6.538-1.768-9.367c-0.53-2.827-2.651-4.594-2.298-6.36
			c0.354-1.77,1.943-3.535,1.943-3.535s17.145-0.708,22.092-1.414c4.949-0.707,13.078-2.121,13.078-2.121l-0.177-18.203
			c0,0-16.436,3.005-25.096,3.181c-8.661,0.178-27.748-1.412-31.637-0.176s-5.832,1.643-7.068,1.643
			C615.302,487.574,606.466,488.418,606.466,488.418z"/>
		<path fill="#545454" d="M586.672,492.821c0.177,0.53,5.068,20.679,5.068,20.679l8.362-0.708l2.299-2.12l7.245-0.354l2.475-4.242
			l-3.711-14.314l-2.651-2.121l-5.655,0.884l-10.251,0.885L586.672,492.821z"/>
		<path fill="#545454" d="M633,518.271c0,0,13.686-1.414,13.508-0.885c-0.177,0.53-0.934,4.418-0.934,4.418l1.126,2.476
			c0,0,2.681,4.596,2.856,5.126c0.176,0.529,0.017,2.474,0.017,2.474l-12.362,3.005l-2.471-4.242l0.454-5.654L633,520.393V518.271z"
			/>
		<path fill="#191919" d="M504.137,415.412c-0.354-5.656-3.535-37.821-3.535-37.821s-3.562-18.734-5.328-20.855
			C493.506,354.615,488,340.83,488,340.83v-4.595c0,0-6.513-3.182-8.634,4.595c-2.121,7.776-3.182,7.436-3.182,7.436
			s4.57,20.82,4.506,22.565c-0.041,1.063,1.263,33.977,1.263,33.977l-1.854,13.433l-4.239,10.251c0,0,1.061,20.854,3.182,21.208
			c2.121,0.354,7.422-9.544,12.018-10.251c4.597-0.706,8.132-3.182,9.19-4.596C501.309,433.438,504.49,421.067,504.137,415.412z
			 M500.292,428.181c-1.679,2.739-1.502,4.86-3.623,5.392c-2.12,0.529-7.157,1.236-8.129,2.076c-0.973,0.84-3.668,3.622-4.949,4.771
			c-1.281,1.148-3.137,3.8-3.312,3.8c-0.179,0-1.502-0.751-1.414-1.061c0.088-0.311,0-12.727,0.795-14.404
			c0.796-1.679,3.093-8.527,3.226-8.748s1.592-4.286,1.458-4.64c-0.132-0.354,0.354-6.318,0.354-6.318l16.568,4.993
			C501.265,414.042,501.971,425.441,500.292,428.181z"/>
		<path fill="#191919" d="M661.032,327.354c0,0,4.241,3.182,4.374,3.844c0.133,0.662-1.325,7.158-1.457,8.218
			c-0.133,1.061-0.258,19.75-0.727,20.148c-0.468,0.398,0,46.525,0,46.525l1.521,13.521l13.388,14.314l2.651,1.325
			c0,0,0,2.519-0.93,3.049c-0.928,0.53-3.711-1.591-4.24-1.723c-0.53-0.133-9.941-12.593-9.941-12.593l-2.519-12.594l-2.121-55.804
			c0,0-0.928-1.458-1.192-3.579c-0.266-2.121-0.266-8.218,0-11.399C660.104,337.428,661.032,327.354,661.032,327.354z"/>
		<polygon fill="#545454" points="581,418.946 581,407.282 579.594,405.559 580.217,400.257 585.994,399.461 587,406.486 
			587,407.282 585.908,407.547 586.834,418.283 		"/>
		<path fill="#323244" d="M522.163,352.317c-0.529,0.177-10.25,3.358-10.25,3.888c0,0.448,11.239,21.104,14.717,27.482
			c0.636,1.167,1.012,1.856,1.012,1.856l8.661-2.651l-1.592-5.833L522.163,352.317z"/>
		<path fill="#BABABA" d="M615.833,365.131c0,0,16.967,6.495,18.425,7.688c1.457,1.193,3.977-4.639,3.977-4.639
			s2.65-14.448,3.182-15.773c0.53-1.325,3.314-15.641,3.314-15.641s-11.533-7.29-16.173-6.893c-4.64,0.398-4.24,3.314-4.24,3.314
			l-5.437,20.413L615.833,365.131z"/>
		<path fill="#BABABA" d="M513.438,336.632c0.529,0.133,18.523-2.651,19.055-2.651s7.937,8.351,8.466,9.014
			c0.531,0.663,7.481,15.508,7.481,15.508l6.95,11.532l-20.147,9.014L513.438,336.632z"/>
		<path fill="none" stroke="#323244" stroke-width="2" stroke-linecap="round" stroke-miterlimit="10" d="M528.974,384.837
			l0.486,0.221c0,0,1.458-1.502-0.486-0.574c-0.479,0.228,0.134,1.061,0.134,1.061s4.64,4.021,5.17,9.499
			c0.529,5.479,2.298,14.249,3.181,16.724c0.884,2.476,5.656,15.521,5.479,18.524c-0.178,3.004-6.011,17.479-10.429,12.531
			c-4.418-4.949,6.545-15.383,7.246-18.919s0.177-9.901,0-12.729s-0.53-12.595-2.827-15.776
			C534.63,392.218,528.974,384.837,528.974,384.837z"/>
	</g>
	<g>
		<path fill="#FF5E17" d="M101.302,236.823c0,0-14.945,0.453-15.96-11.771c-1.016-12.223,0.343-25.125,9.623-30.783
			c9.28-5.658,32.368-15.844,43.685-16.297c11.317-0.453,25.351-6.564,30.557-8.148s9.28-0.679,11.997,0
			c2.716,0.679,14.939,16.083,21.05,17.435c6.111,1.352,36.895-1.804,52.06,0c15.165,1.805,16.071,4.974,19.918,4.294
			c3.848-0.679,17.429-15.844,24.672-16.297c7.243-0.453,13.128-2.716,21.957-2.716c8.827,0,32.142-2.49,38.479,1.811
			c6.337,4.3,10.864,15.844,10.412,18.334c-0.452,2.49-3.395,16.976-3.622,17.655C365.903,211.02,101.302,236.823,101.302,236.823z"
			/>
		<g>
			<path fill="#191919" d="M225.12,330.997c18.727,104.044,43.906,243.027,45.038,244.442c1.811,2.263,44.816,3.168,44.816,3.168
				s4.527-199.638,4.527-201.901c0-0.953,2.807-23.963,6.058-50.293l-83.921,3.212C241.638,329.625,235.375,330.147,225.12,330.997z
				"/>
			<path fill="#282828" d="M310.448,189.29c-8.602,1.811-17.203,12.675-27.162,18.561c-9.959,5.885-30.331,4.074-45.723,4.056
				c-15.392-0.018-17.126-6.81-17.126-6.81l-15.468,13.619c0,0,8.913,49.851,20.15,112.282c10.255-0.85,16.518-1.372,16.518-1.372
				l83.921-3.212c4.474-36.222,9.786-78.726,9.786-78.726S319.049,187.479,310.448,189.29z"/>
		</g>
		<path fill="#BABABA" d="M234.557,244.44c4.829,0,35.601-3.021,35.601-3.021L264.575,220h-38.329L234.557,244.44z"/>
		<path fill="#FF5E17" d="M297.319,478.109c0-1.812-30.783-187.868,13.582-282.481c0,0,3.169-9.959,8.147-8.149
			c4.979,1.811,13.581,4.527,15.393,9.054c1.811,4.527,12.223,5.885,19.466,4.527s12.223-3.169,19.013,0.453
			c6.79,3.622,12.223,4.979,18.108,2.716c5.885-2.264,17.654-7.243,19.466-3.169c1.811,4.074-2.265,33.047,0,41.195
			c2.264,8.148,3.169,95.066,4.074,100.499c0.904,5.432,9.054,38.026,26.709,44.816c17.654,6.791,0,33.953,0,33.953
			s12.071,9.96,7.847,28.52c-4.225,18.561-5.13,15.392-5.13,15.392s3.168,53.871,3.621,56.136
			c0.453,2.264,8.602,19.919,13.581,23.54c4.979,3.621,6.338,6.789,4.525,13.58c-1.811,6.79,2.265,12.677-8.601,14.486
			c-10.865,1.812-105.931,26.709-120.87,21.276c-14.938-5.434-13.581,0.772-13.581,0.772s-0.453,9.64-26.256,10.544
			c-25.803,0.905-153.917,7.696-167.044,5.434c-13.128-2.265-25.804-9.96-25.804-9.96s-19.918-22.635-18.108-30.783
			c1.811-8.148,6.338-29.877,12.223-33.499c5.885-3.622,12.676-9.507,14.939-14.033c2.264-4.526,3.622-9.055,3.622-9.055
			l1.358-37.573c0,0-15.638-29.878-17.448-42.554C98.34,421.07,99,408.848,99,408.848v-34.556c0,0,12.016-39.687,12.469-41.044
			c0.452-1.358-2.367-116.795-1.009-116.343c1.358,0.453,10.36-5.432,18.056-3.622c7.696,1.811,16.724-4.979,22.156-4.527
			c5.433,0.453,25.338,0.453,28.507-0.905c3.169-1.358,5.878-2.264,17.649-0.905c11.77,1.358,17.199-7.696,19.916-6.338
			c2.716,1.358,10.863,16.75,10.863,18.108c0,1.358,41.647,64.735,44.364,132.64c2.716,67.904,14.033,126.302,14.033,126.302
			l9.054,86.012l13.127-1.811L297.319,478.109z"/>
		<path fill="#191919" d="M116,479.108l86.058,5.294l6.081-2.402h11.77l8.148,2.469c0,0,13.279,1.557,15.09,1.557
			s18.711-1.346,20.522-1.042c1.811,0.302,13.279-1.982,13.279-1.982h9.054l5.131,34.223c0,0-9.658,6.247-10.563,6.247
			c-0.906,0-1.509-3.97-8.148-1.554c-6.639,2.414-21.428,7.823-22.333,7.823c-0.905,0-11.167-1.821-11.167-1.821l-6.036-4.533
			c0,0-6.337,0.602-7.243,1.204c-0.905,0.604-12.977,1.81-12.977,1.81l-4.527-4.226l-24.747,1.866c0,0-12.676,0.961-19.315,0.961
			c-6.639,0-25.653,0-25.653,0l-4.527,0.699l-4.225-5.385l1.539-5.409L116,512.515V479.108z"/>
		<path fill="#191919" d="M317.993,475.223L325.236,517h5.13l8.451-10.328L349.682,506h14.185l1.509,26.043
			c0,0,5.734,35.656,6.338,37.166c0.604,1.509,6.036,17.526,7.243,23.26s8.752,33.813,8.148,38.038
			c-0.604,4.226,19.918-1.203,19.918-1.203s-1.51-24.441-3.319-26.253c-1.812-1.812,30.48,25.05,31.387,25.354
			c0.906,0.303,19.014,4.727,24.747,3.722c5.735-1.006,17.505-6.135,20.522-9.454c3.018-3.32,9.054-9.657,9.054-15.692
			c0-6.036-1.509-10.562,0-13.581c1.51-3.02,13.279-40.441,12.374-52.211c-0.905-11.771-3.32-23.54-6.641-28.067
			c-3.318-4.526-14.566-8.658-18.188-8.705S447,500.442,447,500.442v15.692c0,0,34.486,2.416,39.617,4.829
			c5.131,2.414,6.98,3.923,6.98,8.752s-6.017,31.688-6.017,31.688s-4.516,14.485-7.232,20.823c-2.716,6.339-4.521,8.45-2.711,9.959
			c1.812,1.511,8.151,7.848,6.943,10.865c-1.208,3.019-6.938,9.056-9.052,10.263c-2.114,1.207-11.167,8.75-23.239,7.544
			c-12.071-1.206-27.159-19.919-31.083-24.445c-3.925-4.526-22.031-30.783-25.352-32.594c-3.32-1.812-2.415-7.243-2.415-7.243
			s-3.019-16.298-5.433-20.522c-2.414-4.224-2.112-11.165-3.018-15.995c-0.906-4.828-4.528-7.846-3.924-10.863
			c0.604-3.02,3.319-6.036,3.319-6.036s29.275-1.208,37.726-2.415c8.449-1.207,22.332-3.621,22.332-3.621l-0.303-31.085
			c0,0-28.064,5.131-42.854,5.433s-47.383-2.414-54.022-0.302c-6.639,2.112-9.958,2.706-12.071,2.706
			C333.083,473.875,317.993,475.223,317.993,475.223z"/>
		<path fill="#545454" d="M284.192,482.938c0.301,0.906,8.655,35.312,8.655,35.312l14.282-1.208l3.923-3.621l12.374-0.604
			l4.226-7.243l-6.337-24.445l-4.527-3.621l-9.657,1.508l-17.505,1.511L284.192,482.938z"/>
		<path fill="#545454" d="M364,526.396c0,0,23.021-2.413,22.719-1.509c-0.302,0.905-1.769,7.544-1.769,7.544l1.834,4.227
			c0,0,4.535,7.848,4.837,8.753c0.301,0.905,0.005,4.225,0.005,4.225l-21.123,5.131l-4.225-7.242l1.124-9.658L364,530.02V526.396z"
			/>
		<path fill="#191919" d="M143.253,350.751c-0.604-9.658-6.037-64.584-6.037-64.584s-5.93-31.991-8.948-35.612
			C125.25,246.934,116,223.393,116,223.393v-7.847c0,0-11.272-5.433-14.894,7.847c-3.622,13.279-5.509,12.697-5.509,12.697
			s7.769,35.553,7.656,38.533c-0.069,1.815,2.137,58.021,2.137,58.021l-3.175,22.937l-7.246,17.504c0,0,1.809,35.612,5.431,36.215
			c3.622,0.604,12.674-16.297,20.521-17.504c7.847-1.207,13.882-5.432,15.693-7.847
			C138.424,381.535,143.856,360.409,143.253,350.751z M136.688,372.557c-2.867,4.677-2.565,8.299-6.187,9.205
			c-3.621,0.905-12.222,2.112-13.882,3.546c-1.66,1.434-6.262,6.187-8.45,8.148s-5.357,6.489-5.659,6.489
			c-0.302,0-2.565-1.282-2.414-1.812c0.15-0.527,0-21.73,1.358-24.597c1.358-2.867,5.281-14.562,5.507-14.939
			c0.227-0.377,2.716-7.319,2.49-7.922c-0.226-0.604,0.604-10.789,0.604-10.789l28.293,8.525
			C138.348,348.412,139.555,367.879,136.688,372.557z"/>
		<path fill="#191919" d="M411.172,200.381c0,0,7.243,5.433,7.47,6.564c0.228,1.131-2.264,12.223-2.488,14.033
			c-0.228,1.811-0.439,33.726-1.238,34.405c-0.799,0.679,0,79.448,0,79.448l2.596,23.087l22.861,24.445l4.527,2.264
			c0,0,0,4.301-1.585,5.206c-1.584,0.905-6.339-2.716-7.243-2.942c-0.905-0.227-16.977-21.503-16.977-21.503l-4.301-21.503
			l-3.622-95.292c0,0-1.584-2.49-2.037-6.112c-0.452-3.622-0.452-14.033,0-19.466C409.588,217.583,411.172,200.381,411.172,200.381z
			"/>
		<polygon fill="#545454" points="274,356.787 274,336.869 271.853,333.926 273.042,324.872 282.596,323.514 284,335.511 
			284,336.869 282.511,337.321 284.027,355.655 		"/>
		<path fill="#323244" d="M174.036,243.01c-0.905,0.302-17.504,5.734-17.504,6.64c0,0.765,19.194,36.037,25.131,46.928
			c1.086,1.993,1.729,3.17,1.729,3.17l14.788-4.527l-2.716-9.959L174.036,243.01z"/>
		<path fill="#BABABA" d="M333.988,264.89c0,0,28.973,11.091,31.462,13.128s6.791-7.922,6.791-7.922s4.526-24.672,5.432-26.936
			c0.905-2.263,5.659-26.709,5.659-26.709s-19.692-12.449-27.614-11.77c-7.922,0.679-7.243,5.659-7.243,5.659l-9.279,34.857
			L333.988,264.89z"/>
		<path fill="#BABABA" d="M159.134,216.225c0.905,0.227,31.632-4.527,32.538-4.527c0.905,0,13.552,14.26,14.458,15.392
			c0.906,1.132,12.775,26.483,12.775,26.483l11.869,19.692l-34.405,15.392L159.134,216.225z"/>
		<path fill="none" stroke="#323244" stroke-width="2" stroke-linecap="round" stroke-miterlimit="10" d="M181.882,298.541
			l-0.83,0.377c0,0-2.49-2.565,0.83-0.981c0.817,0.39-0.227,1.811-0.227,1.811s-7.922,6.866-8.828,16.222
			c-0.905,9.355-3.923,24.333-5.432,28.558c-1.509,4.225-9.658,26.501-9.356,31.632c0.302,5.13,10.262,29.85,17.806,21.398
			c7.545-8.451-11.176-26.268-12.374-32.306c-1.198-6.039-0.302-16.908,0-21.736c0.302-4.829,0.906-21.507,4.829-26.939
			C172.225,311.144,181.882,298.541,181.882,298.541z"/>
	</g>
</g>
</svg>
