<svg width="88" height="94" viewBox="0 0 88 94" fill="none" xmlns="http://www.w3.org/2000/svg">
<g filter="url(#filter0_d)">
<circle cx="59.0215" cy="15.4898" r="2.1934" fill="#FD6262"/>
<circle cx="64.9244" cy="15.3536" r="2.1934" fill="#FD6262"/>
<circle cx="53.0801" cy="15.3536" r="2.1934" fill="#FD6262"/>
<circle cx="59.2217" cy="8.77347" r="2.1934" fill="#FD6262"/>
<circle cx="59.2217" cy="21.9341" r="2.1934" fill="#FD6262"/>
<path d="M70.6124 66.6413L59.2175 58.9982C58.7366 58.6556 58.1732 58.4473 57.5851 58.3948C56.9971 58.3423 56.4056 58.4474 55.8717 58.6993L51.4969 60.9182C50.948 61.188 50.3324 61.2918 49.7254 61.2168C49.1184 61.1418 48.5466 60.8913 48.0799 60.496C39.9008 53.7279 34.4263 44.2459 32.6545 33.7785C32.5455 33.1767 32.6145 32.5562 32.8531 31.9931C33.0916 31.4299 33.4893 30.9487 33.9974 30.6082L37.9806 27.7111C38.4744 27.3859 38.8724 26.9348 39.1336 26.4044C39.3949 25.874 39.5098 25.2835 39.4666 24.6939L38.545 11.004L38.3345 7.49746C38.2965 6.99281 38.145 6.50325 37.8913 6.06534C37.4845 5.35463 36.8268 4.82153 36.0473 4.57058C33.8976 3.85508 31.6083 3.66286 29.3694 4.0099C27.1306 4.35694 25.0068 5.23322 23.1747 6.56593L22.2799 7.24693L21.8164 7.60222C21.6007 7.75785 21.3935 7.92503 21.1958 8.10303L20.6249 8.65189C13.0886 16.0172 14.5063 34.534 24.2176 52.9208L27.1722 58.0383C38.2257 75.6173 53.5529 86.1034 63.745 83.4141L64.5058 83.1941C64.7574 83.1125 65.0044 83.0175 65.2457 82.9094L65.7875 82.6898L66.8247 82.2554C68.8939 81.3341 70.7135 79.9324 72.1323 78.1667C73.5511 76.401 74.5283 74.3224 74.9825 72.1033C75.155 71.3028 75.0221 70.4666 74.61 69.759C74.3576 69.3203 74.0094 68.9443 73.5914 68.6591L70.6124 66.6413Z" fill="black" stroke="black" stroke-width="0.5" stroke-miterlimit="10"/>
</g>
<defs>
<filter id="filter0_d" x="11.5674" y="3.5918" width="67.7389" height="88.4908" filterUnits="userSpaceOnUse" color-interpolation-filters="sRGB">
<feFlood flood-opacity="0" result="BackgroundImageFix"/>
<feColorMatrix in="SourceAlpha" type="matrix" values="0 0 0 0 0 0 0 0 0 0 0 0 0 0 0 0 0 0 127 0"/>
<feOffset dy="4"/>
<feGaussianBlur stdDeviation="2"/>
<feColorMatrix type="matrix" values="0 0 0 0 0 0 0 0 0 0 0 0 0 0 0 0 0 0 0.25 0"/>
<feBlend mode="normal" in2="BackgroundImageFix" result="effect1_dropShadow"/>
<feBlend mode="normal" in="SourceGraphic" in2="effect1_dropShadow" result="shape"/>
</filter>
</defs>
</svg>
