<svg width="94" height="88" viewBox="0 0 43 52" fill="none" xmlns="http://www.w3.org/2000/svg">
<g filter="url(#filter0_d)">
<circle cx="29.8471" cy="8.97504" r="0.987733" fill="#F89978"/>
<circle cx="32.5053" cy="8.914" r="0.987733" fill="#F89978"/>
<circle cx="27.1718" cy="8.914" r="0.987733" fill="#F89978"/>
<circle cx="29.9374" cy="5.95111" r="0.987733" fill="#F89978"/>
<circle cx="29.9374" cy="11.8774" r="0.987733" fill="#F89978"/>
<path d="M35.0667 31.0101L29.9353 27.5683C29.7188 27.414 29.465 27.3202 29.2002 27.2965C28.9354 27.2729 28.6691 27.3202 28.4286 27.4337L26.4586 28.4329C26.2114 28.5544 25.9342 28.6011 25.6608 28.5673C25.3875 28.5336 25.13 28.4208 24.9198 28.2428C21.2366 25.1949 18.7713 20.925 17.9734 16.2113C17.9244 15.9403 17.9554 15.6609 18.0629 15.4073C18.1703 15.1537 18.3494 14.9369 18.5782 14.7836L20.3719 13.479C20.5943 13.3326 20.7735 13.1294 20.8911 12.8906C21.0088 12.6517 21.0605 12.3858 21.0411 12.1203L20.626 5.95545L20.5313 4.37636C20.5141 4.14911 20.4459 3.92865 20.3317 3.73145C20.1485 3.4114 19.8523 3.17133 19.5013 3.05833C18.5333 2.73612 17.5023 2.64956 16.4941 2.80584C15.4859 2.96212 14.5295 3.35672 13.7045 3.95687L13.3015 4.26354L13.0928 4.42354C12.9957 4.49362 12.9024 4.56891 12.8133 4.64906L12.5562 4.89623C9.16251 8.21299 9.8009 16.5515 14.1741 24.8315L15.5046 27.136C20.4823 35.0522 27.3844 39.7743 31.9742 38.5633L32.3168 38.4642C32.43 38.4274 32.5413 38.3846 32.65 38.336L32.894 38.2371L33.361 38.0415C34.2928 37.6266 35.1122 36.9953 35.7511 36.2002C36.3901 35.4051 36.8301 34.469 37.0346 33.4698C37.1123 33.1092 37.0525 32.7327 36.8669 32.414C36.7532 32.2165 36.5964 32.0472 36.4082 31.9187L35.0667 31.0101Z" fill="#F8F8F8" stroke="black" stroke-width="0.5" stroke-miterlimit="10"/>
</g>
<defs>
<filter id="filter0_d" x="0.658203" y="0.658691" width="42.1464" height="50.7605" filterUnits="userSpaceOnUse" color-interpolation-filters="sRGB">
<feFlood flood-opacity="0" result="BackgroundImageFix"/>
<feColorMatrix in="SourceAlpha" type="matrix" values="0 0 0 0 0 0 0 0 0 0 0 0 0 0 0 0 0 0 127 0"/>
<feOffset dy="4"/>
<feGaussianBlur stdDeviation="2"/>
<feColorMatrix type="matrix" values="0 0 0 0 0 0 0 0 0 0 0 0 0 0 0 0 0 0 0.25 0"/>
<feBlend mode="normal" in2="BackgroundImageFix" result="effect1_dropShadow"/>
<feBlend mode="normal" in="SourceGraphic" in2="effect1_dropShadow" result="shape"/>
</filter>
</defs>
</svg>
