<svg width="96" height="60" viewBox="0 0 57 37" fill="none" xmlns="http://www.w3.org/2000/svg">
<g filter="url(#filter0_d)">
<circle cx="28.2497" cy="14.9455" r="2.42502" fill="#F89978"/>
<path d="M41.6981 12.6226C39.1517 12.6226 37.0928 14.6915 37.0928 17.2279C37.0928 17.8346 37.5901 18.332 38.1969 18.332C38.8036 18.332 39.3009 17.8346 39.3009 17.2279C39.3009 15.905 40.3851 14.8208 41.7081 14.8208C42.3148 14.8208 42.8121 14.3234 42.8121 13.7167C42.8022 13.1099 42.3049 12.6226 41.6981 12.6226Z" fill="#DAEFF1"/>
<path d="M14.822 24.8681C10.6058 24.8681 7.19157 21.4539 7.19157 17.2377C7.19157 13.0214 10.6058 9.6072 14.822 9.6072C19.0381 9.6072 22.4522 13.0211 22.4525 17.2371L14.822 24.8681ZM14.822 24.8681C19.0377 24.8681 22.4625 21.4445 22.4525 17.2377L14.822 24.8681ZM12.3892 5.44967C13.8645 4.40888 15.6288 3.72278 17.5329 3.55665L17.6645 3.68797L17.6649 3.68762L17.8834 3.46914L18.3552 2.99726L18.3523 2.99747L20.0683 1.27451H20.0814L20.1531 1.20902C20.8047 0.613269 21.6601 0.259947 22.6004 0.259947C24.2097 0.259947 25.5783 1.31125 26.053 2.7633L26.1522 3.06691L26.4231 2.89761C26.9433 2.5725 27.5543 2.3786 28.2103 2.3786C28.3124 2.3786 28.409 2.37882 28.4938 2.38731L28.4938 2.38747L28.5028 2.38804C29.0885 2.42523 29.6243 2.60144 30.0848 2.89618L30.359 3.07166L30.4578 2.76148C30.9228 1.30141 32.2901 0.25 33.9098 0.25C34.8495 0.25 35.7151 0.61287 36.3572 1.19919L36.4288 1.26457H36.4418L38.1579 2.98752L38.1549 2.98731L38.6268 3.4592L38.8453 3.67767L38.8456 3.67802L38.9772 3.54667C40.8812 3.71226 42.6364 4.3896 44.1209 5.43962L48.1907 8.89398L48.1906 8.89406L48.1963 8.8986C48.4899 9.13354 48.7723 9.37706 49.0342 9.62921C51.0265 11.5535 52.2599 14.2444 52.2502 17.2269V17.2277C52.2502 23.0577 47.5081 27.7998 41.6782 27.7998C36.2959 27.7998 31.8448 23.748 31.1937 18.5395L31.1471 18.1663L30.8211 18.3538C30.0624 18.79 29.1901 19.0367 28.2501 19.0367C27.3198 19.0367 26.4376 18.7899 25.6792 18.3538L25.3524 18.1659L25.3064 18.54C24.6651 23.7578 20.2046 27.8097 14.822 27.8097C8.99207 27.8097 4.25 23.0676 4.25 17.2377C4.25 14.2546 5.48369 11.5634 7.47599 9.63916L7.47602 9.63918L7.47909 9.63611C7.73899 9.37621 8.01903 9.13468 8.30984 8.91173L8.31003 8.91198L8.31951 8.90393L12.3892 5.44967ZM25.6129 13.8259C25.6129 15.2869 26.7991 16.4731 28.2601 16.4731C29.721 16.4731 30.9072 15.2869 30.9072 13.8259C30.9072 12.365 29.721 11.1788 28.2601 11.1788C26.7991 11.1788 25.6129 12.365 25.6129 13.8259ZM34.0676 17.2377C34.0676 21.4539 37.4818 24.8681 41.6981 24.8681C45.9145 24.8681 49.3285 21.4437 49.3285 17.2377C49.3285 13.0214 45.9143 9.6072 41.6981 9.6072C37.4818 9.6072 34.0676 13.0214 34.0676 17.2377Z" fill="#F8F8F8" stroke="black" stroke-width="0.5"/>
<path d="M14.8216 12.6226C12.2753 12.6226 10.2163 14.6915 10.2163 17.2279C10.2163 17.8346 10.7136 18.332 11.3204 18.332C11.9271 18.332 12.4245 17.8346 12.4245 17.2279C12.4245 15.905 13.5087 14.8208 14.8316 14.8208C15.4383 14.8208 15.9357 14.3234 15.9357 13.7167C15.9257 13.1099 15.4284 12.6226 14.8216 12.6226Z" fill="#DAEFF1"/>
</g>
<defs>
<filter id="filter0_d" x="0" y="0" width="56.5003" height="36.0597" filterUnits="userSpaceOnUse" color-interpolation-filters="sRGB">
<feFlood flood-opacity="0" result="BackgroundImageFix"/>
<feColorMatrix in="SourceAlpha" type="matrix" values="0 0 0 0 0 0 0 0 0 0 0 0 0 0 0 0 0 0 127 0"/>
<feOffset dy="4"/>
<feGaussianBlur stdDeviation="2"/>
<feColorMatrix type="matrix" values="0 0 0 0 0 0 0 0 0 0 0 0 0 0 0 0 0 0 0.25 0"/>
<feBlend mode="normal" in2="BackgroundImageFix" result="effect1_dropShadow"/>
<feBlend mode="normal" in="SourceGraphic" in2="effect1_dropShadow" result="shape"/>
</filter>
</defs>
</svg>
