<svg width="137" height="64" viewBox="0 0 137 64" fill="none" xmlns="http://www.w3.org/2000/svg">
<path d="M44.1142 42.0204L39.379 45.7564" stroke="black" stroke-width="0.8" stroke-dasharray="0.5 0.5"/>
<path d="M45.1876 47.7332L28.822 60.6863" stroke="black" stroke-width="0.8" stroke-dasharray="0.5 0.5"/>
<path d="M50.0953 49.7472L45.3556 53.4904" stroke="black" stroke-width="0.8" stroke-dasharray="0.5 0.5"/>
<path d="M80.3071 35.115L80.3071 35.115L80.2909 35.1257L80.2756 35.1377L57.1836 53.1388L44.9833 38.0059L44.9819 38.0042L42.1299 34.4346L65.0099 15.1748L65.0188 15.1673L65.0274 15.1594L65.0278 15.159L65.0298 15.1572L65.0386 15.1491L65.0757 15.1154C65.1088 15.0853 65.1589 15.0403 65.2251 14.9815C65.3577 14.8639 65.5552 14.6913 65.8128 14.4733C66.328 14.0372 67.083 13.4198 68.0382 12.6982C69.9496 11.2543 72.6576 9.39722 75.8461 7.74071C82.1732 4.45359 90.2804 2.01306 97.8087 4.98406C99.129 13.269 94.8718 20.741 90.1638 26.2151C87.7914 28.9736 85.324 31.2013 83.4486 32.7397C82.5114 33.5085 81.7234 34.1041 81.1708 34.5067C80.8946 34.708 80.6773 34.861 80.5297 34.9632C80.4559 35.0143 80.3996 35.0527 80.362 35.0781L80.32 35.1064L80.3099 35.1132L80.3076 35.1147L80.3071 35.115Z" fill="#E0F7FA" stroke="#FCF8E8"/>
<path d="M44.6347 38.2233L41.4771 34.2712L64.7299 14.6975C64.7299 14.6975 82.681 -1.90078 98.2978 4.53051C101.294 21.7639 80.625 35.4373 80.625 35.4373L57.145 53.7408L54.0952 49.9236" stroke="black"/>
<path d="M48.0593 40.9106L45.5107 44.5142C45.3812 44.6975 45.3895 44.9446 45.5312 45.1186L47.3026 47.2944C47.4424 47.4661 47.6785 47.5254 47.8829 47.4402L51.9754 45.7327C52.0635 45.6959 52.1393 45.6347 52.1937 45.5562L54.7872 41.8168C54.9142 41.6338 54.9047 41.3889 54.7641 41.2162L52.996 39.0445C52.8536 38.8695 52.6115 38.8116 52.4053 38.9032L48.2646 40.7423C48.1822 40.7789 48.1113 40.837 48.0593 40.9106Z" fill="black" stroke="black" stroke-width="0.5"/>
</svg>
