<svg width="251" height="251" viewBox="0 0 251 251" fill="none" xmlns="http://www.w3.org/2000/svg">
<rect x="0.755859" y="0.54834" width="250" height="250" rx="30" fill="#E0F7FA"/>
<path d="M203.328 102.538C202.73 103.565 202.049 110.104 203.183 111.502C204.317 112.9 207.947 114.497 208.492 114.548C209.036 114.598 206.26 129.556 206.26 129.556C206.26 129.556 206.141 141.071 207.197 142.06C208.25 143.051 215.874 148.504 217.338 148.589C218.803 148.676 221.433 148.746 221.82 148.06C222.2 147.373 220.371 144.216 220.345 143.894C220.281 143.117 220.094 140.954 220.209 140.482C220.322 140.009 221.034 136.383 221.358 135.692C221.682 134.999 228.005 135.568 228.726 135.708C229.448 135.847 229.481 135.001 229.481 135.001C228.609 132.904 222.786 129.537 222.786 129.537C222.786 129.537 224.583 126.641 225.991 125.035C227.397 123.429 230.108 113.47 231.084 109.164C232.057 104.857 229.692 99.274 228.895 99.0781C216.939 96.1354 203.932 101.512 203.328 102.538Z" fill="#36627A"/>
<path d="M222.02 139.097C222.721 138.319 224.254 137.799 225.431 137.988C226.606 138.177 226.486 138.163 226.944 139.276C227.403 140.388 224.288 139.961 223.55 140.244C222.813 140.527 223.743 141.262 223.871 141.22C223.998 141.178 226.527 141.511 226.527 141.511L226.459 144.164C226.459 144.164 223.156 143.594 222.952 144.027C222.746 144.461 224.68 145.794 225.692 146.905C226.707 148.016 225.543 148.254 223.861 147.373C222.178 146.491 221.166 143.742 221.166 143.742C221.166 143.742 220.707 143.722 220.043 143.618C219.379 143.515 219.743 142.464 219.714 141.625C219.685 140.788 219.978 140.365 220.056 140.21C220.134 140.057 221.391 140.357 221.391 140.357C221.391 140.357 221.321 139.874 222.02 139.097Z" fill="#6C808C"/>
<path d="M164.555 120.184L217.074 120.286L210.679 134.773C207.663 134.857 134.899 137.484 111.107 136.628C109.905 136.585 105.245 136.664 104.306 136.63C98.1975 136.411 93.5137 136.612 87.8549 136.36C82.8058 136.609 78.0464 136.561 73.4114 136.394C67.9991 136.2 63.563 135.482 59.4432 134.136C41.5401 128.288 34.7766 121.214 29.341 115.529C28.4818 114.63 27.6707 113.782 26.8533 112.98C26.7933 112.918 26.7353 112.859 26.6709 112.797C50.7747 125.351 83.7826 127.151 107.531 128.673C111.343 128.919 115.068 129.499 118.601 129.626C139.006 130.36 151.912 130.102 152.086 130.091L153.048 129.386L164.555 120.184Z" fill="#B7B7B7" stroke="#B7B7B7" stroke-miterlimit="10"/>
<path d="M106.792 130.925C82.9412 129.396 49.8227 124.723 25.7332 112.035L25.3789 111.692C21.8311 108.137 20.2494 105.875 19.2177 104.311C18.7057 103.539 18.3381 102.981 17.9141 102.565C17.3555 102.014 16.4261 101.342 15.792 100.914C19.5955 101.435 34.3557 102.703 56.7408 102.386C69.0511 102.213 95.811 103.473 127.447 106.543C171.483 110.818 201.129 116.425 216.48 120.724L166.282 121.733L153.977 131.175C152.905 131.247 132.057 132.548 106.792 130.925Z" fill="#FF6B00"/>
<path d="M125.622 87.4255L127.574 86.9449L127.492 86.7861C127.476 86.7613 126.37 84.6271 126.407 83.2523C126.414 83.0564 126.441 82.8749 126.498 82.7181C126.585 82.4803 126.734 82.3209 126.952 82.2312C127.089 82.1745 127.231 82.1477 127.375 82.1461C127.76 82.1408 128.167 82.3102 128.541 82.5382C128.773 82.6812 128.992 82.8475 129.185 83.0113C129.53 83.3046 129.867 83.6397 130.191 84.0057C132.288 86.3846 133.816 90.0504 133.688 91.8901C133.685 91.9613 133.675 92.0281 133.665 92.0942C133.655 92.1585 133.645 92.2211 133.627 92.2807C133.498 92.7925 133.21 93.0911 132.746 93.1941C131.772 93.4104 130.227 91.7207 129.311 90.2977C129.277 90.2435 129.244 90.1884 129.211 90.1351C129.145 90.0268 129.083 89.921 129.025 89.8189C128.937 89.6655 128.862 89.5178 128.795 89.3814L128.646 89.2828C128.593 89.2819 128.506 89.2806 128.225 89.6895C128.169 89.7717 128.105 89.8699 128.032 89.9871C127.886 90.2233 127.702 90.538 127.474 90.9575L125.622 87.4255ZM128.727 87.5326C128.768 87.6041 128.803 87.669 128.837 87.7241C128.871 87.7811 128.897 87.8274 128.921 87.8652C128.939 87.9077 128.966 87.9616 129.005 88.023C129.038 88.0844 129.084 88.1553 129.131 88.2331C129.156 88.2734 129.183 88.3128 129.21 88.3562C129.964 89.5052 131.795 91.8668 132.388 91.8882C132.439 91.8898 132.487 91.8794 132.53 91.8529C132.628 91.7928 132.695 91.6961 132.73 91.5632C132.739 91.5181 132.75 91.4699 132.755 91.417C132.775 91.206 132.738 90.9273 132.645 90.5795C132.479 89.9688 132.14 89.1515 131.708 88.2901C131.449 87.7735 131.157 87.2406 130.849 86.7272L130.233 85.5745L130.198 85.6129L130.163 85.651C129.449 84.6035 128.732 83.7814 128.219 83.5801C128.143 83.5505 128.077 83.5345 128.013 83.5323C127.922 83.5291 127.837 83.5499 127.763 83.5946C127.733 83.6129 127.706 83.6331 127.683 83.6564C127.558 83.7694 127.5 83.9414 127.487 84.1521C127.429 85.0775 128.287 86.7443 128.727 87.5326Z" fill="black"/>
<path d="M115.668 72.227C116.477 71.9571 119.251 72.0336 120.083 72.0635C120.204 72.0679 120.3 72.0717 120.369 72.0742L121.51 79.8059L121.991 79.9917L122.469 80.1772L127.614 91.0705L127.835 94.1174L126.899 96.4188L123.961 96.3902C123.823 94.5851 123.023 88.1098 123.003 88.0739C122.432 87.0046 118.694 85.8746 117.983 85.6912C117.958 85.6846 117.938 85.679 117.922 85.6755C117.849 85.6516 117.772 85.6286 117.694 85.6046C117.499 85.5464 117.289 85.4875 117.069 85.4279C116.982 85.4046 116.893 85.3807 116.802 85.3574C116.511 85.2815 116.205 85.2056 115.887 85.1313C115.812 85.1139 115.738 85.0966 115.662 85.0793C115.518 85.0453 115.372 85.0122 115.225 84.9791C112.91 84.4598 110.239 83.9316 109.478 83.8002C111.525 79.3322 114.993 72.4582 115.668 72.227Z" fill="#3FA9F5"/>
<path d="M130.13 86.0962C130.237 86.254 130.341 86.4153 130.444 86.5803L130.976 87.5787L129.609 87.8137L129.647 87.9608C129.647 87.9642 129.668 88.06 129.663 88.179C129.659 88.2505 129.645 88.3299 129.61 88.4011C129.429 88.1258 129.286 87.8924 129.215 87.7365C129.085 87.5167 128.953 87.2776 128.822 87.0326C128.843 87.0505 128.866 87.0669 128.893 87.0729C128.903 87.0751 128.912 87.0779 128.927 87.0786C129.024 87.0858 129.273 87.0052 130.13 86.0962Z" fill="black"/>
<path d="M128.727 87.5325C128.284 86.7451 127.43 85.0765 127.483 84.1521C127.496 83.9429 127.556 83.771 127.678 83.6569C127.702 83.6339 127.729 83.6135 127.76 83.5952C127.833 83.5508 127.915 83.5294 128.009 83.5325C128.073 83.5347 128.142 83.5517 128.215 83.5804C128.728 83.7829 129.444 84.605 130.158 85.6519L130.193 85.6141L130.228 85.5757L130.844 86.7284C131.149 87.2415 131.445 87.7747 131.701 88.2913C132.137 89.1524 132.476 89.9697 132.641 90.5804C132.732 90.9294 132.771 91.2072 132.751 91.4185C132.747 91.4702 132.738 91.5199 132.726 91.564C132.691 91.6976 132.627 91.7943 132.525 91.8541C132.485 91.8799 132.435 91.8913 132.384 91.8894C131.791 91.868 129.96 89.5064 129.207 88.3571C129.179 88.3143 129.152 88.2736 129.127 88.2343C129.081 88.1565 129.037 88.0865 129.001 88.0239C128.963 87.9618 128.935 87.9092 128.918 87.8661C128.895 87.8286 128.868 87.782 128.835 87.7253C128.802 87.6695 128.767 87.6047 128.727 87.5325ZM131.178 87.8333L129.95 88.0434C129.965 88.2037 129.953 88.4601 129.789 88.6573C130.602 89.8277 131.972 91.4982 132.444 91.6028C132.485 91.5691 132.586 91.393 132.389 90.6532C132.178 89.8569 131.721 88.839 131.178 87.8333ZM130.137 86.0957C129.276 87.0043 129.026 87.085 128.929 87.0784C128.913 87.0777 128.905 87.0746 128.896 87.0727C128.868 87.0654 128.845 87.05 128.824 87.0321C128.955 87.2774 129.088 87.5155 129.217 87.736C129.288 87.8922 129.431 88.1256 129.613 88.4006C129.645 88.3291 129.661 88.2494 129.665 88.1782C129.67 88.0601 129.649 87.9625 129.648 87.9606L129.612 87.8144L130.978 87.5795L130.445 86.581C130.341 86.415 130.237 86.2541 130.137 86.0957ZM128.563 86.5284C128.718 86.5517 128.903 86.6163 128.996 86.7665C129.176 86.6503 129.595 86.2503 129.972 85.8554C129.174 84.691 128.403 83.8295 128.002 83.815C127.966 83.8138 127.933 83.8207 127.911 83.8358C127.521 84.0724 127.965 85.318 128.563 86.5284Z" fill="black"/>
<path d="M39.2509 100.701C33.5233 100.371 18.8266 101.045 15.2988 98.5762C15.5705 98.5315 15.8759 98.2848 16.2562 98.2918C16.2562 98.2918 35.8711 95.0168 49.8246 93.5837C50.716 93.4933 51.53 93.4407 52.2438 93.3803C61.4584 92.5951 102.664 91.6725 103.082 91.6634L103.155 91.6618L103.198 91.5982C103.327 91.4026 106.336 86.7702 106.689 86.1758C106.86 85.8864 106.877 85.4883 106.895 85.0672C106.914 84.5777 106.936 84.0728 107.222 83.8309C107.485 83.6108 108.057 83.5037 108.838 83.5317C109.115 83.5418 109.313 83.5664 109.314 83.5667L109.417 83.5799L109.433 83.5462C110.363 83.7056 115.433 84.5963 117.848 85.3607C119.221 85.7094 122.84 86.8067 123.101 87.6432C123.434 88.7132 124.172 95.7192 124.183 95.7859L124.181 96.2688L126.878 96.3658L127.815 94.071L134.027 94.7938L144.087 96.0609L144.142 95.7425C143.459 95.5913 143.314 95.3475 143.257 94.402C143.241 94.1066 143.457 93.6902 143.855 93.277C144.501 92.6048 145.668 91.8792 146.694 91.8851C147.037 91.8877 147.626 91.8634 148.37 91.836C149.878 91.7806 151.941 91.7037 153.626 91.7642C155.461 91.83 156.106 92.0379 156.321 92.2007C156.614 92.4203 156.757 92.6527 156.756 92.8896C156.752 93.2977 156.315 93.619 156.311 93.6222L156.028 93.8281L159.057 94.2426L159.099 95.7088L173.689 97.037L174.538 98.7208L191.793 99.3891L199.791 101.625L199.643 110.743L204.055 112.537L204.08 112.548L214.883 112.747L217.295 114.326L217.015 118.716C197.788 114.252 158.264 107.443 119.69 104.209C68.1922 99.8924 44.9785 101.03 39.2509 100.701Z" fill="#DDDDDD"/>
<path d="M15.2988 98.5762C19.2254 100.104 33.2876 99.9935 39.0152 100.323C44.7429 100.652 67.8679 99.3881 119.366 103.706C157.939 106.94 197.709 114.236 217.006 118.703L217.006 118.716L217.112 118.762C218.207 119.502 218.778 119.984 218.817 120.239C218.831 120.308 218.805 120.358 218.734 120.444C218.705 120.481 218.681 120.518 218.661 120.556C218.601 120.624 218.142 120.733 216.861 120.705L216.19 120.54C200.868 116.786 173.143 111.392 128.055 107.015C96.4098 103.944 69.8111 102.744 57.4916 102.918C33.6734 103.254 18.3033 101.278 15.7917 100.914C15.2302 100.433 15.0294 100.274 15.0102 100.265C14.3927 100.062 14.0257 99.6836 14.0879 99.3223C14.1379 99.031 14.4934 98.7091 15.2988 98.5762Z" fill="#DDDDDD"/>
<path d="M156.819 93.9589C156.819 93.9589 158.345 92.3186 155.686 91.6685C153.739 91.192 147.954 91.5869 146.393 91.6115C144.833 91.6364 143.015 93.7627 143.134 94.7532C143.236 95.5989 143.374 96.5258 144.823 96.1158C146.274 95.706 146.095 94.6206 146.908 94.5576C147.722 94.4943 156.128 94.0402 156.819 93.9589Z" fill="#F9FE10"/>
</svg>
