<?xml version="1.0" encoding="utf-8"?>
<!-- Generator: Adobe Illustrator 16.0.0, SVG Export Plug-In . SVG Version: 6.00 Build 0)  -->
<!DOCTYPE svg PUBLIC "-//W3C//DTD SVG 1.1//EN" "http://www.w3.org/Graphics/SVG/1.1/DTD/svg11.dtd">
<svg version="1.1" id="Capa_1" xmlns="http://www.w3.org/2000/svg" xmlns:xlink="http://www.w3.org/1999/xlink" x="0px" y="0px"
	 width="800px" height="800px" viewBox="0 0 800 800" enable-background="new 0 0 800 800" xml:space="preserve">
<g id="Capa_2">
	<rect x="-2.5" y="-11.5" fill="#36D4FF" stroke="#000000" stroke-miterlimit="10" width="809" height="817"/>
	
		<image display="none" overflow="visible" enable-background="new    " width="700" height="348" xlink:href="../../../Referències fotogràgiques/Mood Illustrations Numbered/4-1-1 Inflatable.jpg"  transform="matrix(1 0 0 1 66.8867 198.5)">
	</image>
	
		<image display="none" overflow="visible" enable-background="new    " width="760" height="570" xlink:href="../../../Referències fotogràgiques/Compass 165.jpg"  transform="matrix(-0.5835 0 0 0.583 628.3926 120.8511)">
	</image>
</g>
<g id="Inflatable">
	<g>
		<path fill="#B2B2B2" d="M723.693,391.002c-0.873-8.487-3.096-15.888-5.693-20.002c-6-9.5-11.5-7-11.5-7L407,357
			c-144-3.5-260.618-33.229-280.5-42c-16.992-7.497-31.486,8.485-33.497,11.995c22.203,11.714,73.42,27.51,173.872,43.13
			C457.236,399.726,707.442,391.162,723.693,391.002z"/>
		<g>
			<path fill="#C9C9C9" d="M712,496.75c1-0.347,5.875,0,5.875,0s-3.312-2-0.062-6.5s5.22-7.75,3.72,0s-0.517,6.5-0.517,6.5
				l2.982,0.074c0,0,1.756,0.676,1.756,5.426s-2.252,5-3.752,5.5S720.75,512,720.75,512s2.5,2,0.25,4.25s-3.75,0-3.75,0l1.625-9
				L712,507V496.75z"/>
			<path fill="#43516D" d="M660.752,370.312c0,0,0.623-20.124,5.873-24.124s23.312-12.094,30.062-12.094s25.704-0.232,27.367,1.235
				c1.663,1.467,2.93,4.194,6.18,4.194s10.008,1.238,10.508,5.738s0.004,6.708,0.004,6.708s6.002,34.533,5.002,39.283
				s-4.498,7.749-5.998,10.499S730,426.25,727.25,429s-6.5,5.273-6.5,5.273L722.5,457c0,0,1,5,6.25,6.75s9.25,10,9.25,10
				s0.75,8.25,0.5,10.75s-2.75,2-2.75,2s-3-5.5-5.5-6S716.5,480,716.5,480s-3.25,0.5-3.25,3.25s-1,11.75-1,11.75s1.5,2,1.75,3.75
				s0,8-1,9.25s-0.75,3-0.75,3s1.5,4.75,3.25,8.75s1.75,6.25,1.75,6.25H706l-29-23l-0.5-41.25L681,453l0.5-9H676l-7,3.25l-3.75-3.75
				c0,0,8.5-20.5,8.25-22.25S660.752,370.312,660.752,370.312z"/>
			<path fill="#4D5768" d="M665.666,432l-9.999,31.539c0,0-250.006-0.429-264.667,0c-164,4.794-265.667-14.206-300.997-104.706
				c0,0,173.888,57.757,229.997,59.284"/>
		</g>
		<path fill="#B7B7B7" d="M85.723,335.282C83.031,344.161,83.169,357.455,102,368c87.5,49,301.122,61,301.122,61S714,438.5,718,432
			c3.802-6.654,5.576-14.681,5.99-22.598c-91.562-0.188-355.05-1.929-466.324-24.402C137.658,364.7,104.781,345.665,85.723,335.282z
			"/>
		<g id="interior">
			<path fill="#E5E5E5" d="M515,337.167c-1.389-0.057-2.677-0.081-4.417-0.178c-20.794-1.16-28.347,22.244-29.417,31.88L515,369
				V337.167z"/>
			<path fill="#4B77BC" d="M510.167,346.529l0.416-9.54c0,0,3.024-0.616-12.25-0.036c-27.583,1.047-25.001,31.886-25.001,31.886
				l10.006,0.039C484.083,345.167,499.75,347.598,510.167,346.529z"/>
			<path fill="#4AC8FF" d="M411.539,315.36c0,0,8.211-34.86,8.711-37.61S418,275,418,275l-23,38.553l-7.5,7.197l-1.954,6.636
				l24.34-8.136L411.539,315.36z"/>
			<path fill="#E5E5E5" d="M342.667,363c0,0,45.333-40.667,58-45s9-3,17,0c6.607,2.478,13.784,17.884,16.082,23.172
				c0.484,1.115,0.283,2.038-0.564,2.503c-7.891,4.333-48.613,26.689-49.517,26.991C382.667,371,342.667,363,342.667,363z"/>
			<path fill="#49443F" d="M428.375,335.032c0,0-2.25-0.657-0.875-3.407s4.125-1.438,4.125-1.438s1.5-3.562,2.875-2.938
				s2.007,2.958,2.007,2.958l2.493-0.083V329l1.875-0.5c0,0-4.5-12.75-2.875-14.75s4.875,11.875,5.5,13.5s1.25,1.75,1.25,1.75H447
				c0,0,1.275,0.5,1.025,2.875s-3.15,1.5-3.15,1.5l2.25,9.577c0,0,1.455,2.923,0.665,4.423s-4.366-4.775-6.022-13.129
				c-0.101-0.412-3.851,0.463-3.851,0.463s0.325,2.632-1.965,3.132s-3.327-2.558-3.327-2.558L428.375,335.032z"/>
		</g>
		<path fill="#DDDDDD" d="M723.693,398.002c-0.873-8.487-3.096-15.888-5.693-20.002c-6-9.5-11.5-7-11.5-7L407,364
			c-144-3.5-263.618-41.229-283.5-50c-16.992-7.497-31.486,8.485-33.497,11.995c22.203,11.714,76.42,35.51,176.872,51.13
			C457.236,406.726,707.442,398.162,723.693,398.002z"/>
		<path fill="#686868" d="M723.693,398.002c-16.251,0.16-266.457,8.723-456.818-20.877c-100.451-15.62-154.669-39.417-176.872-51.13
			c-0.001,0.001-0.002,0.004-0.003,0.005c-0.687,1.202-2.869,4.638-4.277,9.282C104.781,345.665,137.658,364.7,257.667,385
			c111.274,22.475,374.763,24.216,466.324,24.402C724.193,405.518,724.069,401.66,723.693,398.002z"/>
	</g>
</g>
</svg>
