<?xml version="1.0" encoding="utf-8"?>
<!-- Generator: Adobe Illustrator 16.0.0, SVG Export Plug-In . SVG Version: 6.00 Build 0)  -->
<!DOCTYPE svg PUBLIC "-//W3C//DTD SVG 1.1//EN" "http://www.w3.org/Graphics/SVG/1.1/DTD/svg11.dtd">
<svg version="1.1" id="Capa_1" xmlns="http://www.w3.org/2000/svg" xmlns:xlink="http://www.w3.org/1999/xlink" x="0px" y="0px"
	 width="800px" height="800px" viewBox="0 0 800 800" enable-background="new 0 0 800 800" xml:space="preserve">
<g id="Capa_1_1_">
	<g id="_x35_">
		<g id="Cèl">
			
				<linearGradient id="SVGID_1_" gradientUnits="userSpaceOnUse" x1="391.3379" y1="-283.0088" x2="1190.5" y2="-283.0088" gradientTransform="matrix(-4.371139e-08 -1 1 -4.371139e-08 683.5 1190.4995)">
				<stop  offset="0.3735" style="stop-color:#FFFFFF"/>
				<stop  offset="1" style="stop-color:#00C3FF"/>
			</linearGradient>
			<polygon fill="url(#SVGID_1_)" points="0,0 800,0 800.981,799.162 0.982,799.162 			"/>
		</g>
		<g id="Ancla_copia_2_1_">
			<path fill="#727272" d="M746.015,724.956c0.235-0.4-0.419-1.497-0.548-1.668c-0.092-0.108-0.223-0.137-0.374-0.112
				c-0.275,0.044-0.633,0.262-0.923,0.479c-0.455,0.256-18.736,6.996-29.657,11.017c-4.881,1.797-8.731,3.216-9.343,3.45
				c-0.885,0.336-1.414,0.752-1.576,1.221c-0.129,0.377,0.033,0.647,0.042,0.659c0.463,1.19,0.854,1.115,1.507,0.864
				c0.11-0.039,0.23-0.084,0.366-0.125c0.817-0.247,33.18-11.185,34.558-11.646c0.446-0.185,1.692-0.604,2.187-0.37
				c0.568,0.269,1.425,1.836,1.76,2.612c1.591,3.692,2.362,6.42,1.938,6.796c-0.137,0.119-0.677,0.327-2.772-0.312
				c-1.19-0.363-2.415-0.872-2.708-1.024c-0.053-0.031-6.091-2.979-7.263-2.591c-0.106,0.035-0.187,0.101-0.229,0.19
				c-0.396,0.834,0.629,2.221,1.812,3.824l0.311,0.418c0.969,1.323,2.166,2.726,2.646,3.274c-0.947-0.005-3.662-0.014-4.07,0.017
				c-0.038,0.006-0.102,0.013-0.17,0.021c-0.266,0.042-0.713,0.16-0.965,0.487c-0.162,0.21-0.216,0.468-0.16,0.764
				c0.106,0.559,1.001,1.277,1.948,2.038c0.156,0.13,0.312,0.259,0.466,0.384c-0.043,0.025-0.083,0.061-0.133,0.088
				c-1.084,0.76-2.572,1.8-2.658,2.649c-0.021,0.218,0.041,0.409,0.196,0.569c0.705,0.748,3.127-0.004,7.604-2.355
				c3.353-1.764,7.99-5.053,8.036-5.083c1.002-0.71,2.379-2.59,2.162-4.369c-0.215-1.693-3.658-11.107-4.03-12.124
				C745.982,724.979,745.994,724.966,746.015,724.956z"/>
			<g>
				<path fill="#727272" d="M706.07,739.569c0.055-0.116,0.061-0.245,0.02-0.368c-0.084-0.248-0.355-0.383-0.618-0.292
					c-0.12,0.045-0.218,0.134-0.271,0.248c-0.057,0.116-0.059,0.247-0.019,0.369c0.077,0.217,0.307,0.348,0.531,0.312
					c0.028-0.005,0.062-0.011,0.089-0.021C705.924,739.773,706.021,739.686,706.07,739.569z"/>
				<path fill="#727272" d="M749.727,737.148c-0.194-1.592-3.448-10.524-3.97-11.94c-0.149,0.106-0.329,0.176-0.499,0.184
					c-0.207,0.02-0.384-0.057-0.497-0.197c-0.155-0.2-0.345-0.537-0.477-0.79l-0.021,0.064l-35.671,12.688
					c-1.781,0.658-2.992,1.104-3.311,1.228c-0.987,0.377-1.307,0.771-1.4,1.032c-0.087,0.248,0.005,0.417,0.021,0.447
					c0.396,1.001,0.599,0.925,1.145,0.718c0.117-0.042,0.239-0.089,0.381-0.132c0.189-0.057,2.105-0.695,4.949-1.651
					c0.4-1.054,1.64-1.48,1.692-1.502c1.149-0.432,28.237-10.589,31.026-9.608c0.738,0.258,1.613,2.342,1.709,2.572
					c0.083,0.196,2.146,4.846,2.512,6.659c0.527,2.649-2.576,4.562-3.826,5.063c-1.062,0.425-5.229,0.317-5.398,0.346l-0.003,0.001
					c-0.141,0.021-3.907-0.089-4.38-0.053c-0.322,0.028-0.744,0.072-0.936,0.334c-0.109,0.145-0.147,0.318-0.106,0.531
					c0.086,0.451,1.019,1.202,1.843,1.865c0.551,0.449,1.077,0.872,1.41,1.235c0.432,0.481,0.593,0.811,0.504,1.031
					c-0.055,0.135-0.185,0.188-0.254,0.188l-0.018-0.296c0.001,0,0.062-0.152-0.452-0.725c-0.167-0.196-0.403-0.404-0.671-0.632
					c-0.067,0.047-0.13,0.092-0.2,0.142c-0.921,0.646-2.463,1.723-2.535,2.438c-0.017,0.131,0.028,0.242,0.117,0.341
					c0.399,0.424,1.986,0.35,7.253-2.421c2.062-1.084,4.62-2.748,6.279-3.868c-3.021,0.646-9.435,0.513-11.691,0.466
					c-0.423-0.009-0.756-0.018-0.805-0.014l-0.021-0.144l-0.049-0.141c0.006-0.004,0.01-0.004,0.026-0.007
					c0.049-0.009,0.183-0.003,0.854,0.009c2.493,0.058,10.071,0.218,12.443-0.686c0.59-0.41,0.958-0.672,0.972-0.68
					C748.487,740.67,749.923,738.876,749.727,737.148z M706.34,739.692c-0.087,0.188-0.244,0.329-0.438,0.396
					c-0.408,0.147-0.851-0.07-0.991-0.468c-0.068-0.195-0.054-0.405,0.029-0.592c0.088-0.188,0.242-0.33,0.438-0.398
					c0.041-0.016,0.095-0.028,0.144-0.036c0.364-0.058,0.722,0.153,0.849,0.503C706.438,739.295,706.43,739.506,706.34,739.692z"/>
				<path fill="#727272" d="M710.751,738.659c9.646-3.244,28.956-9.767,29.21-9.854c0.169-0.066,1.71-0.689,2.411-0.356
					c0.731,0.347,1.642,2.148,1.904,2.764c1.021,2.376,2.624,6.46,1.858,7.128c-0.934,0.813-5.459-1.112-5.808-1.301
					c-0.688-0.364-6.104-2.889-7.034-2.571c-0.019,0.005-0.051,0.015-0.059,0.032c-0.321,0.68,0.701,2.068,1.785,3.533l0.31,0.418
					c1.12,1.525,2.543,3.156,2.807,3.451c0.53,0.016,4.293,0.119,5.226-0.261c1.104-0.438,4.145-2.261,3.658-4.695
					c-0.361-1.788-2.467-6.533-2.494-6.591c-0.249-0.601-1.019-2.214-1.533-2.396c-2.697-0.951-30.552,9.504-30.837,9.609
					C712.146,737.572,711.19,737.908,710.751,738.659z"/>
				<path fill="#727272" d="M744.015,724.236l0.097-0.253c-0.955,0.394-5.021,1.911-11.935,4.472L744.015,724.236z"/>
				<path fill="#727272" d="M745.748,724.803c0.104-0.179-0.304-1.055-0.527-1.337c-0.037-0.051-0.348,0.021-0.885,0.414
					l0.045,0.097c0.004,0.013,0.354,0.73,0.595,1.036c0.055,0.068,0.144,0.099,0.246,0.091
					C745.44,725.091,745.671,724.936,745.748,724.803z"/>
				<path fill="#727272" d="M746.003,724.953c0.234-0.399-0.417-1.497-0.547-1.666c-0.091-0.108-0.223-0.137-0.377-0.113
					c-0.272,0.043-0.63,0.264-0.92,0.479c-0.455,0.254-18.738,6.996-29.656,11.014c-4.882,1.8-8.733,3.219-9.345,3.451
					c-0.884,0.338-1.414,0.752-1.574,1.221c-0.129,0.376,0.034,0.649,0.041,0.66c0.464,1.19,0.854,1.112,1.507,0.862
					c0.111-0.036,0.231-0.083,0.365-0.124c0.819-0.246,33.18-11.185,34.559-11.646c0.448-0.185,1.694-0.604,2.188-0.369
					c0.568,0.269,1.425,1.835,1.76,2.61c1.591,3.696,2.364,6.421,1.939,6.801c-0.14,0.119-0.677,0.326-2.773-0.312
					c-1.19-0.364-2.414-0.872-2.707-1.024c-0.054-0.032-6.087-2.979-7.263-2.591c-0.108,0.031-0.188,0.102-0.231,0.188
					c-0.396,0.835,0.63,2.226,1.815,3.828l0.308,0.422c0.973,1.327,2.167,2.731,2.648,3.282c0.179,0.002,0.301,0.02,0.327,0.021
					l0.004,0.321c0,0,0.005,0.064,0.002,0.064l0.004-0.001c0.171-0.026,4.343,0.08,5.398-0.346c1.24-0.495,4.346-2.445,3.818-5.098
					c-0.36-1.812-2.418-6.439-2.506-6.64c-0.096-0.231-0.968-2.311-1.709-2.568c-2.789-0.976-29.877,9.188-31.025,9.619
					c-0.052,0.02-1.291,0.449-1.691,1.502c-2.844,0.958-4.763,1.603-4.949,1.653c-0.138,0.04-0.264,0.093-0.382,0.133
					c-0.55,0.207-0.754,0.285-1.146-0.717c-0.015-0.03-0.108-0.2-0.021-0.445c0.098-0.266,0.417-0.658,1.4-1.034
					c0.318-0.121,1.529-0.567,3.312-1.228l35.669-12.687l0.02-0.065c0.135,0.251,0.322,0.588,0.479,0.789
					c0.114,0.143,0.289,0.213,0.496,0.198c0.169-0.013,0.349-0.081,0.498-0.184c-0.038-0.116-0.068-0.187-0.072-0.193l0.275-0.104
					c0.006,0.016,0.014,0.042,0.033,0.074C745.982,724.979,745.994,724.966,746.003,724.953z M710.74,738.67
					c0.441-0.756,1.396-1.094,1.409-1.098c0.283-0.104,28.139-10.562,30.836-9.613c0.521,0.182,1.286,1.796,1.532,2.4
					c0.026,0.056,2.138,4.805,2.492,6.589c0.483,2.438-2.554,4.254-3.654,4.698c-0.931,0.371-4.694,0.272-5.229,0.26
					c-0.26-0.295-1.682-1.924-2.802-3.451l-0.312-0.418c-1.084-1.47-2.104-2.854-1.786-3.535c0.009-0.013,0.039-0.026,0.061-0.03
					c0.936-0.316,6.352,2.206,7.037,2.57c0.347,0.188,4.871,2.108,5.805,1.302c0.768-0.668-0.835-4.754-1.859-7.129
					c-0.262-0.609-1.173-2.418-1.902-2.763c-0.698-0.335-2.239,0.287-2.412,0.355C739.705,728.893,720.39,735.421,710.74,738.67z
					 M744.114,723.987l-0.098,0.254l-11.842,4.214C739.096,725.895,743.159,724.376,744.114,723.987z M745.753,724.802
					c-0.076,0.133-0.306,0.288-0.53,0.302c-0.107,0.009-0.19-0.021-0.246-0.092c-0.243-0.304-0.59-1.021-0.594-1.036l-0.045-0.096
					c0.533-0.389,0.847-0.465,0.888-0.414C745.442,723.744,745.855,724.624,745.753,724.802z"/>
				<path fill="#727272" d="M735.021,745.809c-0.069-0.067-0.152-0.133-0.232-0.19c-0.045,0.024-0.085,0.061-0.134,0.089
					c-1.085,0.761-2.572,1.8-2.658,2.646c-0.021,0.218,0.04,0.41,0.197,0.571c0.707,0.748,3.124-0.002,7.604-2.354
					c3.352-1.763,7.989-5.053,8.035-5.084c1-0.71,2.379-2.592,2.162-4.368c-0.213-1.69-3.66-11.109-4.035-12.126
					c-0.058,0.09-0.135,0.163-0.229,0.226c0.519,1.416,3.772,10.351,3.972,11.939c0.21,1.721-1.227,3.521-2.041,4.095
					c-0.009,0.008-0.38,0.271-0.974,0.682c0.006-0.001,0.015-0.008,0.021-0.009l0.104,0.271c-0.242,0.095-0.536,0.171-0.875,0.247
					c-1.665,1.122-4.222,2.785-6.28,3.87c-5.268,2.769-6.853,2.843-7.255,2.415c-0.096-0.1-0.129-0.209-0.115-0.341
					c0.071-0.721,1.612-1.799,2.534-2.438C734.896,745.896,734.959,745.854,735.021,745.809z"/>
				<path fill="#727272" d="M745.972,724.991c-0.013-0.031-0.021-0.062-0.026-0.075l-0.274,0.104
					c0.003,0.009,0.032,0.08,0.072,0.193C745.834,725.151,745.914,725.077,745.972,724.991z"/>
				<path fill="#727272" d="M737.952,742.146c-0.002,0-0.083-0.091-0.213-0.239c-0.949-0.005-3.665-0.017-4.075,0.017
					c-0.035,0.004-0.099,0.01-0.168,0.021c-0.264,0.042-0.711,0.158-0.962,0.487c-0.163,0.208-0.218,0.468-0.161,0.765
					c0.101,0.559,1,1.274,1.948,2.039c0.153,0.125,0.312,0.257,0.465,0.382c0.074-0.049,0.146-0.102,0.208-0.146l0.17,0.237
					c-0.043,0.03-0.093,0.071-0.139,0.1c0.267,0.228,0.494,0.438,0.671,0.633c0.513,0.566,0.451,0.723,0.451,0.723l0.019,0.297
					c0.067-0.004,0.198-0.053,0.254-0.188c0.088-0.223-0.073-0.549-0.505-1.032c-0.327-0.363-0.854-0.786-1.411-1.235
					c-0.822-0.663-1.751-1.414-1.841-1.864c-0.039-0.214-0.008-0.388,0.106-0.531c0.193-0.263,0.604-0.37,0.925-0.396
					c0.466-0.036,4.221-0.017,4.369-0.014l-0.064-0.007L737.952,742.146z"/>
				<path fill="#727272" d="M738.062,741.9c-0.023,0-0.143-0.006-0.324-0.002c0.137,0.147,0.211,0.236,0.214,0.24l0.042,0.049
					l0.062,0.006c0.002,0,0.008,0,0.009,0L738.062,741.9z"/>
				<path fill="#727272" d="M734.999,745.472c-0.067,0.044-0.139,0.098-0.207,0.141c0.078,0.065,0.159,0.131,0.231,0.193
					c0.045-0.029,0.097-0.065,0.141-0.098L734.999,745.472z"/>
				<path fill="#727272" d="M745.938,742.444c0.278-0.193,0.536-0.366,0.757-0.517c-2.371,0.896-9.948,0.736-12.442,0.684
					c-0.672-0.018-0.805-0.018-0.854-0.01c-0.013,0.001-0.019,0.007-0.025,0.01l0.049,0.137l0.021,0.146
					c0.049-0.004,0.383,0.01,0.804,0.014C736.506,742.952,742.918,743.087,745.938,742.444z"/>
				<path fill="#727272" d="M746.703,741.924c-0.223,0.154-0.479,0.323-0.76,0.517c0.336-0.068,0.635-0.147,0.876-0.246
					l-0.104-0.274C746.708,741.921,746.702,741.924,746.703,741.924z"/>
				<path fill="#727272" d="M706.341,739.694c0.089-0.188,0.1-0.397,0.028-0.597c-0.128-0.347-0.482-0.561-0.85-0.503
					c-0.048,0.008-0.097,0.021-0.143,0.036c-0.195,0.07-0.352,0.212-0.438,0.398c-0.089,0.188-0.101,0.396-0.029,0.592
					c0.143,0.396,0.583,0.615,0.991,0.468C706.096,740.021,706.253,739.88,706.341,739.694z M706.079,739.567
					c-0.054,0.113-0.152,0.204-0.273,0.245c-0.025,0.014-0.062,0.021-0.088,0.022c-0.229,0.037-0.454-0.095-0.532-0.312
					c-0.044-0.121-0.036-0.251,0.019-0.368c0.06-0.115,0.149-0.203,0.276-0.247c0.255-0.092,0.525,0.045,0.614,0.29
					C706.137,739.32,706.13,739.452,706.079,739.567z"/>
			</g>
		</g>
		<g id="Cadena_copia_2_1_">
			<path fill="#727272" d="M548.786,736.648c-0.288-2.312-3.646-1.396-3.442,0.071C545.606,738.652,548.949,737.949,548.786,736.648
				z"/>
			<path fill="#727272" d="M544.18,736.525c-0.289-2.312-3.645-1.396-3.438,0.071C541,738.531,544.343,737.828,544.18,736.525z"/>
			<path fill="#727272" d="M553.479,736.367c-0.291-2.312-3.646-1.396-3.438,0.078C550.299,738.371,553.641,737.668,553.479,736.367
				z"/>
			<path fill="#727272" d="M555.868,736.525c0.616-0.951-2.824-0.857-3.198-0.25C552.178,737.068,555.521,737.061,555.868,736.525z"
				/>
			<path fill="#727272" d="M550.775,736.73c0.619-0.947-2.82-0.867-3.199-0.271C547.081,737.26,550.426,737.266,550.775,736.73z"/>
			<path fill="#727272" d="M545.681,736.93c0.621-0.944-2.813-0.871-3.19-0.266C541.987,737.457,545.333,737.461,545.681,736.93z"/>
			<path fill="#727272" d="M525.151,736.307c-0.04-2.332-3.479-1.771-3.438-0.295C521.773,737.955,525.174,737.617,525.151,736.307z
				"/>
			<path fill="#727272" d="M520.946,736.045c-0.146-2.326-3.558-1.619-3.441-0.139C517.646,737.846,521.027,737.355,520.946,736.045
				z"/>
			<path fill="#727272" d="M529.845,736.533c-0.039-2.332-3.473-1.777-3.432-0.295C526.468,738.182,529.866,737.842,529.845,736.533
				z"/>
			<path fill="#727272" d="M534.538,736.758c-0.036-2.33-3.472-1.771-3.431-0.293C531.161,738.408,534.561,738.07,534.538,736.758z"
				/>
			<path fill="#727272" d="M539.752,736.721c-0.038-2.33-3.472-1.771-3.431-0.293C536.375,738.369,539.774,738.031,539.752,736.721z
				"/>
			<path fill="#727272" d="M541.752,736.791c0.587-0.971-2.849-0.77-3.206-0.154C538.079,737.447,541.424,737.338,541.752,736.791z"
				/>
			<path fill="#727272" d="M537.059,736.564c0.594-0.978-2.85-0.771-3.207-0.152C533.386,737.221,536.729,737.111,537.059,736.564z"
				/>
			<path fill="#727272" d="M532.237,736.73c0.587-0.976-2.854-0.771-3.205-0.15C528.562,737.387,531.908,737.277,532.237,736.73z"/>
			<path fill="#727272" d="M527.119,736.602c0.719-0.877-2.71-1.168-3.152-0.604C523.39,736.73,526.716,737.096,527.119,736.602z"/>
			<path fill="#727272" d="M522.418,736.541c0.68-0.908-2.76-1.047-3.176-0.467C518.698,736.834,522.038,737.051,522.418,736.541z"
				/>
			<path fill="#727272" d="M501.746,736.262c-0.1-2.328-3.521-1.688-3.438-0.207C498.41,737.996,501.801,737.572,501.746,736.262z"
				/>
			<path fill="#727272" d="M497.164,735.76c-0.098-2.33-3.518-1.688-3.436-0.209C493.83,737.494,497.22,737.07,497.164,735.76z"/>
			<path fill="#727272" d="M506.443,736.369c-0.104-2.328-3.521-1.688-3.438-0.207C503.109,738.105,506.497,737.68,506.443,736.369z
				"/>
			<path fill="#727272" d="M511.142,736.479c-0.098-2.325-3.519-1.688-3.438-0.209C507.807,738.213,511.196,737.789,511.142,736.479
				z"/>
			<path fill="#727272" d="M516.354,736.309c-0.1-2.33-3.519-1.688-3.438-0.207C513.018,738.043,516.407,737.619,516.354,736.309z"
				/>
			<path fill="#727272" d="M518.354,736.328c0.562-0.984-2.861-0.697-3.201-0.072C514.698,737.078,518.038,736.881,518.354,736.328z
				"/>
			<path fill="#727272" d="M513.655,736.221c0.562-0.979-2.867-0.69-3.208-0.063C510,736.971,513.34,736.773,513.655,736.221z"/>
			<path fill="#727272" d="M508.839,736.508c0.562-0.979-2.868-0.699-3.208-0.072C505.185,737.256,508.524,737.062,508.839,736.508z
				"/>
			<path fill="#727272" d="M503.721,736.51c0.696-0.895-2.733-1.102-3.166-0.524C499.995,736.73,503.328,737.014,503.721,736.51z"/>
			<path fill="#727272" d="M498.627,736.283c0.697-0.896-2.74-1.104-3.165-0.527C494.902,736.504,498.235,736.787,498.627,736.283z"
				/>
			<path fill="#727272" d="M610.076,735.422c-0.422-2.293-3.72-1.18-3.438,0.277C607.018,737.605,610.314,736.711,610.076,735.422z"
				/>
			<path fill="#727272" d="M605.471,735.566c-0.422-2.293-3.719-1.185-3.432,0.271C602.412,737.752,605.709,736.855,605.471,735.566
				z"/>
			<path fill="#727272" d="M614.744,735.203c-0.424-2.291-3.721-1.178-3.438,0.275C611.688,737.389,614.981,736.492,614.744,735.203
				z"/>
			<path fill="#727272" d="M617.008,735.246c0.615-0.953-2.824-0.857-3.199-0.252C613.317,735.789,616.663,735.779,617.008,735.246z
				"/>
			<path fill="#727272" d="M612.067,735.389c0.562-0.979-2.867-0.703-3.21-0.08C608.409,736.131,611.749,735.943,612.067,735.389z"
				/>
			<path fill="#727272" d="M606.992,735.881c0.562-0.979-2.866-0.707-3.207-0.08C603.335,736.621,606.676,736.434,606.992,735.881z"
				/>
			<path fill="#727272" d="M586.462,736.447c-0.176-2.326-3.571-1.574-3.443-0.103C583.184,738.287,586.56,737.754,586.462,736.447z
				"/>
			<path fill="#727272" d="M581.867,736.094c-0.175-2.326-3.571-1.572-3.443-0.096C578.59,737.936,581.965,737.4,581.867,736.094z"
				/>
			<path fill="#727272" d="M591.159,736.4c-0.173-2.324-3.569-1.572-3.442-0.101C587.884,738.242,591.257,737.707,591.159,736.4z"/>
			<path fill="#727272" d="M595.858,736.355c-0.178-2.324-3.569-1.574-3.441-0.103C592.582,738.197,595.956,737.664,595.858,736.355
				z"/>
			<path fill="#727272" d="M601.062,736.016c-0.18-2.317-3.569-1.567-3.441-0.094C597.785,737.857,601.159,737.324,601.062,736.016z
				"/>
			<path fill="#727272" d="M603.062,735.971c0.522-1.002-2.896-0.604-3.217,0.033C599.434,736.84,602.766,736.535,603.062,735.971z"
				/>
			<path fill="#727272" d="M598.363,736.016c0.523-1.002-2.896-0.604-3.21,0.033C594.734,736.885,598.065,736.58,598.363,736.016z"
				/>
			<path fill="#727272" d="M593.56,736.461c0.529-1.004-2.889-0.604-3.208,0.033C589.93,737.33,593.263,737.025,593.56,736.461z"/>
			<path fill="#727272" d="M588.442,736.629c0.667-0.918-2.772-1.01-3.188-0.424C584.727,736.971,588.068,737.145,588.442,736.629z"
				/>
			<path fill="#727272" d="M583.345,736.57c0.668-0.918-2.771-1.019-3.182-0.433C579.629,736.912,582.972,737.086,583.345,736.57z"
				/>
			<path fill="#727272" d="M562.671,736.557c-0.13-2.328-3.54-1.645-3.438-0.164C559.357,738.332,562.742,737.865,562.671,736.557z"
				/>
			<path fill="#727272" d="M558.083,736.51c-0.128-2.328-3.539-1.645-3.438-0.164C554.771,738.285,558.155,737.818,558.083,736.51z"
				/>
			<path fill="#727272" d="M567.369,736.604c-0.127-2.321-3.539-1.645-3.439-0.157C564.058,738.381,567.439,737.912,567.369,736.604
				z"/>
			<path fill="#727272" d="M572.068,736.652c-0.128-2.33-3.54-1.646-3.439-0.164C568.756,738.428,572.14,737.961,572.068,736.652z"
				/>
			<path fill="#727272" d="M577.276,736.416c-0.128-2.33-3.538-1.646-3.438-0.164C573.964,738.191,577.348,737.725,577.276,736.416z
				"/>
			<path fill="#727272" d="M579.276,736.408c0.55-0.99-2.876-0.66-3.207-0.029C575.633,737.205,578.97,736.967,579.276,736.408z"/>
			<path fill="#727272" d="M574.578,736.363c0.549-0.994-2.875-0.662-3.208-0.031C570.934,737.158,574.271,736.92,574.578,736.363z"
				/>
			<path fill="#727272" d="M569.767,736.711c0.556-0.992-2.877-0.664-3.209-0.031C566.122,737.506,569.459,737.27,569.767,736.711z"
				/>
			<path fill="#727272" d="M564.648,736.779c0.685-0.906-2.761-1.068-3.18-0.49C560.926,737.045,564.263,737.287,564.648,736.779z"
				/>
			<path fill="#727272" d="M560.553,736.617c0.688-0.902-2.755-1.064-3.172-0.488C556.831,736.885,560.167,737.127,560.553,736.617z
				"/>
			<path fill="#727272" d="M478.084,735.137c0.013-2.33-3.434-1.85-3.424-0.36C474.672,736.713,478.078,736.449,478.084,735.137z"/>
			<path fill="#727272" d="M473.532,734.422c0.013-2.332-3.438-1.854-3.424-0.369C470.121,735.998,473.525,735.732,473.532,734.422z
				"/>
			<path fill="#727272" d="M482.771,735.465c0.014-2.332-3.438-1.852-3.43-0.367C479.361,737.041,482.766,736.775,482.771,735.465z"
				/>
			<path fill="#727272" d="M487.461,735.793c0.012-2.332-3.436-1.854-3.424-0.369C484.049,737.369,487.455,737.105,487.461,735.793z
				"/>
			<path fill="#727272" d="M492.674,735.867c0.012-2.332-3.434-1.854-3.424-0.367C489.262,737.443,492.668,737.178,492.674,735.867z
				"/>
			<path fill="#727272" d="M494.671,735.98c0.608-0.957-2.831-0.83-3.2-0.228C490.986,736.559,494.33,736.518,494.671,735.98z"/>
			<path fill="#727272" d="M489.983,735.654c0.604-0.957-2.832-0.832-3.2-0.229C486.298,736.23,489.643,736.189,489.983,735.654z"/>
			<path fill="#727272" d="M485.159,735.715c0.604-0.957-2.832-0.832-3.2-0.223C481.474,736.291,484.818,736.252,485.159,735.715z"
				/>
			<path fill="#727272" d="M480.046,735.477c0.737-0.854-2.686-1.227-3.136-0.676C476.314,735.523,479.632,735.961,480.046,735.477z
				"/>
			<path fill="#727272" d="M474.969,735.014c0.737-0.854-2.686-1.227-3.138-0.676C471.236,735.059,474.555,735.498,474.969,735.014z
				"/>
			<path fill="#727272" d="M454.562,733.332c0.05-2.33-3.403-1.904-3.418-0.42C451.127,734.855,454.536,734.643,454.562,733.332z"/>
			<path fill="#727272" d="M450.021,733.166c0.05-2.332-3.404-1.906-3.416-0.422C446.586,734.689,449.996,734.477,450.021,733.166z"
				/>
			<path fill="#727272" d="M459.246,733.732c0.048-2.33-3.404-1.904-3.419-0.427C455.809,735.256,459.219,735.045,459.246,733.732z"
				/>
			<path fill="#727272" d="M463.928,734.135c0.049-2.332-3.397-1.906-3.418-0.422C460.492,735.656,463.902,735.445,463.928,734.135z
				"/>
			<path fill="#727272" d="M469.14,734.291c0.048-2.332-3.398-1.906-3.419-0.422C465.702,735.814,469.113,735.602,469.14,734.291z"
				/>
			<path fill="#727272" d="M471.136,734.436c0.621-0.942-2.812-0.875-3.198-0.27C467.441,734.955,470.785,734.967,471.136,734.436z"
				/>
			<path fill="#727272" d="M466.453,734.035c0.623-0.947-2.819-0.875-3.197-0.273C462.758,734.555,466.104,734.566,466.453,734.035z
				"/>
			<path fill="#727272" d="M461.628,734.021c0.624-0.947-2.817-0.875-3.196-0.271C457.934,734.539,461.279,734.553,461.628,734.021z
				"/>
			<path fill="#727272" d="M456.52,733.701c0.752-0.854-2.666-1.271-3.125-0.729C452.787,733.689,456.097,734.18,456.52,733.701z"/>
			<path fill="#727272" d="M452.367,733.477c0.62-0.942-2.82-0.875-3.198-0.271C448.672,733.998,452.018,734.008,452.367,733.477z"
				/>
			<path fill="#727272" d="M430.703,731.654c0.098-2.33-3.365-1.979-3.408-0.492C427.236,733.105,430.649,732.965,430.703,731.654z"
				/>
			<path fill="#727272" d="M435.377,732.152c0.096-2.33-3.365-1.979-3.409-0.494C431.909,733.602,435.322,733.461,435.377,732.152z"
				/>
			<path fill="#727272" d="M440.049,732.65c0.098-2.33-3.365-1.979-3.408-0.494C436.581,734.1,439.994,733.959,440.049,732.65z"/>
			<path fill="#727272" d="M445.256,732.912c0.098-2.33-3.363-1.979-3.408-0.49C441.788,734.363,445.201,734.223,445.256,732.912z"
				/>
			<path fill="#727272" d="M447.248,733.1c0.643-0.936-2.799-0.936-3.191-0.34C443.545,733.541,446.889,733.623,447.248,733.1z"/>
			<path fill="#727272" d="M442.575,732.602c0.642-0.934-2.8-0.934-3.19-0.338C438.871,733.045,442.216,733.127,442.575,732.602z"/>
			<path fill="#727272" d="M437.752,732.488c0.643-0.938-2.799-0.938-3.189-0.34C434.047,732.932,437.393,733.014,437.752,732.488z"
				/>
			<path fill="#727272" d="M432.65,732.064c0.77-0.834-2.645-1.324-3.11-0.791C428.921,731.975,432.219,732.533,432.65,732.064z"/>
			<path fill="#727272" d="M416.384,730.77c0.045,2.332,3.479,1.771,3.438,0.283C419.757,729.109,416.357,729.459,416.384,730.77z"
				/>
			<path fill="#727272" d="M422.092,731.117c0.045,2.332,3.479,1.77,3.438,0.283C425.464,729.459,422.065,729.809,422.092,731.117z"
				/>
			<path fill="#727272" d="M411.688,730.557c0.052,2.332,3.479,1.771,3.438,0.283C415.061,728.898,411.664,729.246,411.688,730.557z
				"/>
			<path fill="#727272" d="M406.993,730.344c0.046,2.332,3.479,1.771,3.433,0.285C410.366,728.684,406.969,729.033,406.993,730.344z
				"/>
			<path fill="#727272" d="M405.214,730.677"/>
			<path fill="#727272" d="M324.341,732.835"/>
			<path fill="#727272" d="M407.681,730.691"/>
			<path fill="#727272" d="M409.295,730.365c-0.583,0.971,2.854,0.762,3.206,0.145C412.967,729.699,409.623,729.818,409.295,730.365
				z"/>
			<path fill="#727272" d="M414.415,730.48c-0.718,0.881,2.712,1.155,3.15,0.602C418.145,730.342,414.816,729.984,414.415,730.48z"
				/>
			<path fill="#727272" d="M419.501,730.818c-0.716,0.879,2.714,1.162,3.153,0.6C423.23,730.68,419.903,730.322,419.501,730.818z"/>
			<path fill="#727272" d="M425.056,731.107c-0.715,0.879,2.714,1.153,3.152,0.598C428.786,730.971,425.458,730.611,425.056,731.107
				z"/>
			<path fill="#727272" d="M405.986,730.662c-0.165-2.325-3.563-1.582-3.441-0.1C402.706,732.494,406.082,731.971,405.986,730.662z"
				/>
			<path fill="#727272" d="M401.395,730.298c-0.163-2.326-3.568-1.585-3.44-0.104C398.113,732.13,401.487,731.604,401.395,730.298z"
				/>
			<path fill="#727272" d="M482.771,735.465"/>
			<path fill="#727272" d="M407.24,730.527"/>
			<path fill="#727272" d="M482.771,735.465"/>
			<path fill="#727272" d="M485.159,735.715"/>
			<path fill="#727272" d="M409.877,730.72"/>
			<path fill="#727272" d="M485.159,735.715"/>
			<path fill="#727272" d="M407.969,730.851c0.669-0.909-2.771-1.018-3.178-0.434C404.253,731.183,407.593,731.365,407.969,730.851z
				"/>
			<path fill="#727272" d="M402.872,730.777c0.669-0.911-2.771-1.02-3.181-0.436C399.154,731.108,402.496,731.292,402.872,730.777z"
				/>
			<path fill="#727272" d="M382.396,730.662c-0.13-2.327-3.539-1.639-3.44-0.157C379.088,732.443,382.471,731.971,382.396,730.662z"
				/>
			<path fill="#727272" d="M377.856,730.844c-0.13-2.328-3.54-1.641-3.438-0.159C374.547,732.626,377.931,732.152,377.856,730.844z"
				/>
			<path fill="#727272" d="M387.097,730.703c-0.13-2.327-3.54-1.639-3.439-0.162C383.787,732.484,387.17,732.014,387.097,730.703z"
				/>
			<path fill="#727272" d="M391.796,730.746c-0.13-2.329-3.536-1.644-3.438-0.159C388.486,732.525,391.871,732.055,391.796,730.746z
				"/>
			<path fill="#727272" d="M397.004,730.504c-0.131-2.33-3.536-1.642-3.441-0.16C393.694,732.285,397.079,731.812,397.004,730.504z"
				/>
			<path fill="#727272" d="M399.006,730.494c0.547-0.989-2.874-0.657-3.21-0.024C395.362,731.296,398.697,731.051,399.006,730.494z"
				/>
			<path fill="#727272" d="M394.306,730.454c0.551-0.993-2.878-0.657-3.208-0.029C390.662,731.254,393.998,731.01,394.306,730.454z"
				/>
			<path fill="#727272" d="M389.494,730.809c0.55-0.99-2.876-0.654-3.208-0.024C385.85,731.607,389.188,731.365,389.494,730.809z"/>
			<path fill="#727272" d="M384.376,730.88c0.684-0.909-2.756-1.062-3.172-0.487C380.653,731.154,383.991,731.39,384.376,730.88z"/>
			<path fill="#727272" d="M380.219,730.974c0.546-0.986-2.879-0.654-3.209-0.023C376.574,731.777,379.911,731.531,380.219,730.974z
				"/>
			<path fill="#727272" d="M358.479,730.814c-0.079-2.331-3.507-1.719-3.436-0.229C355.133,732.527,358.525,732.126,358.479,730.814
				z"/>
			<path fill="#727272" d="M363.177,730.953c-0.083-2.33-3.507-1.715-3.438-0.231C359.831,732.664,363.223,732.263,363.177,730.953z
				"/>
			<path fill="#727272" d="M367.874,731.093c-0.081-2.331-3.507-1.716-3.438-0.229C364.527,732.804,367.919,732.402,367.874,731.093
				z"/>
			<path fill="#727272" d="M373.085,730.955c-0.081-2.331-3.505-1.717-3.436-0.229C369.739,732.667,373.131,732.266,373.085,730.955
				z"/>
			<path fill="#727272" d="M375.085,730.989c0.569-0.981-2.862-0.718-3.208-0.095C371.427,731.714,374.768,731.539,375.085,730.989z
				"/>
			<path fill="#727272" d="M370.389,730.851c0.568-0.979-2.861-0.717-3.207-0.092C366.729,731.577,370.071,731.401,370.389,730.851z
				"/>
			<path fill="#727272" d="M365.571,731.106c0.567-0.984-2.862-0.724-3.206-0.096C361.911,731.833,365.253,731.658,365.571,731.106z
				"/>
			<path fill="#727272" d="M360.452,731.075c0.704-0.893-2.736-1.118-3.162-0.552C356.727,731.271,360.058,731.575,360.452,731.075z
				"/>
			<path fill="#727272" d="M344.134,731.028c0.225,2.319,3.604,1.5,3.449,0.02C347.37,729.115,344.007,729.723,344.134,731.028z"/>
			<path fill="#727272" d="M349.852,730.938c0.225,2.322,3.604,1.498,3.448,0.021C353.087,729.026,349.726,729.636,349.852,730.938z
				"/>
			<path fill="#727272" d="M330.685,732.181c0.225,2.322,3.604,1.498,3.448,0.021C333.92,730.27,330.559,730.879,330.685,732.181z"
				/>
			<path fill="#727272" d="M339.435,731.175c0.229,2.321,3.605,1.5,3.449,0.021C342.671,729.264,339.312,729.87,339.435,731.175z"/>
			<path fill="#727272" d="M334.738,731.322c0.224,2.319,3.604,1.5,3.442,0.021C337.974,729.409,334.613,730.017,334.738,731.322z"
				/>
			<path fill="#727272" d="M326.238,732.374c0.224,2.321,3.604,1.5,3.442,0.021C329.474,730.461,326.113,731.068,326.238,732.374z"
				/>
			<path fill="#727272" d="M322.618,732.507c0.224,2.321,3.604,1.5,3.444,0.021C325.854,730.594,322.493,731.201,322.618,732.507z"
				/>
			<path fill="#727272" d="M335.45,731.616"/>
			<path fill="#727272" d="M337.035,731.168c-0.507,1.012,2.905,0.541,3.208-0.102C340.645,730.223,337.32,730.598,337.035,731.168z
				"/>
			<path fill="#727272" d="M333.14,731.579c-0.507,1.012,2.905,0.541,3.208-0.104C336.75,730.634,333.425,731.009,333.14,731.579z"
				/>
			<path fill="#727272" d="M328.485,732.242c-0.509,1.012,2.903,0.541,3.208-0.104C332.095,731.297,328.771,731.672,328.485,732.242
				z"/>
			<path fill="#727272" d="M324.473,732.458c-0.507,1.012,2.905,0.541,3.208-0.102C328.083,731.513,324.758,731.888,324.473,732.458
				z"/>
			<path fill="#727272" d="M342.148,730.891c-0.648,0.935,2.792,0.946,3.188,0.358C345.857,730.467,342.511,730.365,342.148,730.891
				z"/>
			<path fill="#727272" d="M347.246,730.838c-0.646,0.932,2.795,0.951,3.188,0.356C350.953,730.415,347.608,730.312,347.246,730.838
				z"/>
			<path fill="#727272" d="M352.806,730.702c-0.646,0.931,2.794,0.942,3.188,0.354C356.515,730.28,353.169,730.177,352.806,730.702z
				"/>
		</g>
		<g id="Cadena_copia_3_1_">
			<path fill="#727272" d="M292.223,726.742c1.022-2.104-2.295-3.163-2.924-1.823C288.465,726.681,291.648,727.918,292.223,726.742z
				"/>
			<path fill="#727272" d="M287.815,724.178c1.42-1.852-1.613-3.553-2.503-2.362C284.144,723.367,287.015,725.218,287.815,724.178z"
				/>
			<path fill="#727272" d="M284.03,720.519c1.408-1.854-1.639-3.531-2.523-2.34C280.355,719.738,283.24,721.565,284.03,720.519z"/>
			<path fill="#727272" d="M280.272,717.054c1.905-1.343-0.483-3.873-1.686-3.003C277.008,715.188,279.2,717.809,280.272,717.054z"
				/>
			<path fill="#727272" d="M277.485,713.718c2.138-0.93,0.311-3.89-1.043-3.28C274.667,711.229,276.281,714.24,277.485,713.718z"/>
			<path fill="#727272" d="M275.444,709.788c2.108-0.996,0.19-3.9-1.145-3.25C272.551,707.39,274.261,710.347,275.444,709.788z"/>
			<path fill="#727272" d="M265.581,688.069c2.109-0.993,0.188-3.899-1.145-3.249C262.688,685.672,264.396,688.629,265.581,688.069z
				"/>
			<path fill="#727272" d="M264.265,683.654c2.108-0.995,0.188-3.899-1.145-3.249C261.37,681.257,263.079,684.214,264.265,683.654z"
				/>
			<path fill="#727272" d="M267.309,692.441c2.107-1,0.188-3.899-1.145-3.249C264.414,690.044,266.123,693.001,267.309,692.441z"/>
			<path fill="#727272" d="M269.036,696.812c2.108-0.995,0.188-3.897-1.145-3.247C266.141,694.414,267.85,697.371,269.036,696.812z"
				/>
			<path fill="#727272" d="M271.218,701.546c2.108-0.993,0.19-3.896-1.145-3.245C268.323,699.148,270.031,702.107,271.218,701.546z"
				/>
			<path fill="#727272" d="M272.944,705.918c2.108-0.995,0.19-3.9-1.145-3.249C270.05,703.521,271.759,706.479,272.944,705.918z"/>
			<path fill="#727272" d="M289.533,725.23c1.058-0.416-1.795-2.34-2.457-2.062C286.213,723.528,288.94,725.465,289.533,725.23z"/>
			<path fill="#727272" d="M294.743,727.729c0.962-0.602-2.198-1.97-2.793-1.576C291.168,726.665,294.206,728.068,294.743,727.729z"
				/>
			<path fill="#727272" d="M301.981,730.661c0.545-2.271-2.919-2.592-3.248-1.145C298.299,731.414,301.675,731.935,301.981,730.661z
				"/>
			<path fill="#727272" d="M297.124,729.111c0.987-2.111-2.339-3.119-2.956-1.769C293.364,729.116,296.569,730.301,297.124,729.111z
				"/>
			<path fill="#727272" d="M299.028,729.768c0.939-0.635-2.265-1.898-2.845-1.481C295.418,728.822,298.5,730.124,299.028,729.768z"
				/>
			<path fill="#727272" d="M304.657,731.081c0.809-0.797-2.573-1.454-3.068-0.94C300.936,730.814,304.206,731.527,304.657,731.081z"
				/>
			<path fill="#727272" d="M312.3,732.618c0.113-2.337-3.351-2.002-3.403-0.523C308.823,734.041,312.236,733.926,312.3,732.618z"/>
			<path fill="#727272" d="M307.24,732c0.576-2.264-2.884-2.634-3.233-1.188C303.545,732.703,306.916,733.27,307.24,732z"/>
			<path fill="#727272" d="M309.234,732.288c0.804-0.796-2.578-1.442-3.072-0.933C305.51,732.034,308.78,732.737,309.234,732.288z"
				/>
			<path fill="#727272" d="M315.008,732.53c0.646-0.936-2.796-0.942-3.188-0.351C311.301,732.964,314.647,733.054,315.008,732.53z"
				/>
			<path fill="#727272" d="M285.681,722.496c1.094-0.3-1.536-2.522-2.22-2.321C282.565,720.441,285.066,722.664,285.681,722.496z"/>
			<path fill="#727272" d="M281.816,718.811c1.133-0.062-0.958-2.793-1.668-2.739C279.216,716.135,281.181,718.844,281.816,718.811z
				"/>
			<path fill="#727272" d="M278.952,715.394c1.131-0.062-0.958-2.793-1.668-2.739C276.351,712.718,278.314,715.427,278.952,715.394z
				"/>
			<path fill="#727272" d="M276.615,711.594c1.126,0.135-0.471-2.913-1.181-2.981C274.504,708.519,275.982,711.519,276.615,711.594z
				"/>
			<path fill="#727272" d="M274.115,707.724c1.126,0.138-0.471-2.915-1.183-2.981C272.002,704.646,273.482,707.648,274.115,707.724z
				"/>
			<path fill="#727272" d="M271.976,703.396c1.126,0.136-0.469-2.909-1.179-2.981C269.866,700.321,271.345,703.322,271.976,703.396z
				"/>
			<path fill="#727272" d="M270.249,699.027c1.127,0.14-0.468-2.908-1.181-2.983C268.139,695.952,269.618,698.952,270.249,699.027z"
				/>
			<path fill="#727272" d="M268.113,694.703c1.126,0.133-0.471-2.915-1.182-2.989C266.002,691.627,267.481,694.627,268.113,694.703z
				"/>
			<path fill="#727272" d="M266.122,689.987c1.096,0.293-0.051-2.952-0.743-3.126C264.471,686.641,265.506,689.821,266.122,689.987z
				"/>
			<path fill="#727272" d="M264.349,685.205c1.096,0.296-0.051-2.949-0.744-3.12C262.698,681.858,263.734,685.041,264.349,685.205z"
				/>
			<path fill="#727272" d="M234.023,557.401c2.273-0.521,1.027-3.768-0.414-3.42C231.716,554.433,232.743,557.69,234.023,557.401z"
				/>
			<path fill="#727272" d="M233.692,552.804c2.273-0.521,1.027-3.769-0.416-3.42C231.386,549.837,232.414,553.095,233.692,552.804z"
				/>
			<path fill="#727272" d="M234.763,562.04c2.273-0.514,1.027-3.762-0.416-3.418C232.457,559.073,233.484,562.331,234.763,562.04z"
				/>
			<path fill="#727272" d="M261.255,675.377"/>
			<path fill="#727272" d="M262.702,679.506c2.203-0.76,0.609-3.852-0.789-3.352C260.085,676.811,261.464,679.936,262.702,679.506z"
				/>
			<path fill="#727272" d="M261.321,675.337c2.203-0.76,0.609-3.852-0.789-3.352C258.704,672.642,260.083,675.767,261.321,675.337z"
				/>
			<path fill="#727272" d="M263.256,681.43c1.105,0.255-0.153-2.946-0.851-3.096C261.49,678.143,262.637,681.286,263.256,681.43z"/>
			<path fill="#727272" d="M262.013,676.898c1.104,0.255,0.055-2.136-0.644-2.281C260.457,674.426,261.392,676.755,262.013,676.898z
				"/>
			<path fill="#727272" d="M260.802,673.027c1.104,0.255-0.155-2.948-0.854-3.098C259.036,669.74,260.182,672.884,260.802,673.027z"
				/>
			<path fill="#727272" d="M235.059,564.423c1.07,0.375,0.172-2.938-0.506-3.168C233.664,560.962,234.457,564.212,235.059,564.423z"
				/>
			<path fill="#727272" d="M234.136,559.388c1.006,0.521,0.588-2.896-0.051-3.209C233.248,555.763,233.569,559.093,234.136,559.388z
				"/>
			<path fill="#727272" d="M233.439,554.337c1.006,0.525,0.59-2.893-0.049-3.209C232.552,550.712,232.875,554.044,233.439,554.337z"
				/>
			<path fill="#727272" d="M230.396,533.888c2.283-0.476,1.102-3.744-0.346-3.431C228.15,530.874,229.112,534.153,230.396,533.888z"
				/>
			<path fill="#727272" d="M230.157,529.284c2.283-0.469,1.102-3.742-0.348-3.424C227.909,526.271,228.873,529.55,230.157,529.284z"
				/>
			<path fill="#727272" d="M231.044,538.542c2.283-0.471,1.102-3.742-0.348-3.426C228.796,535.528,229.759,538.806,231.044,538.542z
				"/>
			<path fill="#727272" d="M231.691,543.196c2.285-0.473,1.104-3.744-0.346-3.428C229.444,540.183,230.407,543.46,231.691,543.196z"
				/>
			<path fill="#727272" d="M232.694,548.312c2.285-0.479,1.104-3.743-0.346-3.427C230.448,545.3,231.411,548.577,232.694,548.312z"
				/>
			<path fill="#727272" d="M232.998,550.29c1.061,0.396,0.229-2.938-0.445-3.178C231.671,546.804,232.4,550.067,232.998,550.29z"/>
			<path fill="#727272" d="M232.35,545.636c1.062,0.396,0.229-2.938-0.445-3.181C231.023,542.149,231.751,545.413,232.35,545.636z"
				/>
			<path fill="#727272" d="M231.292,540.929c1.062,0.396,0.23-2.941-0.443-3.183C229.966,537.442,230.694,540.706,231.292,540.929z"
				/>
			<path fill="#727272" d="M230.468,535.876c0.996,0.545,0.648-2.881,0.016-3.209C229.653,532.235,229.909,535.571,230.468,535.876z
				"/>
			<path fill="#727272" d="M229.875,530.812c0.994,0.544,0.646-2.882,0.014-3.209C229.061,527.171,229.314,530.507,229.875,530.812z
				"/>
			<path fill="#727272" d="M227.708,510.353c2.303-0.359,1.275-3.688-0.188-3.438C225.605,507.237,226.414,510.558,227.708,510.353z
				"/>
			<path fill="#727272" d="M227.686,505.745c2.303-0.363,1.275-3.688-0.186-3.438C225.582,502.63,226.391,505.948,227.686,505.745z"
				/>
			<path fill="#727272" d="M228.138,515.032c2.303-0.361,1.275-3.688-0.188-3.438C226.034,511.919,226.843,515.237,228.138,515.032z
				"/>
			<path fill="#727272" d="M228.566,519.712c2.305-0.356,1.277-3.688-0.186-3.438C226.462,516.599,227.271,519.917,228.566,519.712z
				"/>
			<path fill="#727272" d="M229.33,524.87c2.305-0.363,1.277-3.688-0.186-3.438C227.227,521.755,228.034,525.075,229.33,524.87z"/>
			<path fill="#727272" d="M229.539,526.86c1.043,0.443,0.367-2.932-0.295-3.195C228.376,523.315,228.952,526.61,229.539,526.86z"/>
			<path fill="#727272" d="M229.109,522.181c1.043,0.442,0.367-2.935-0.295-3.193C227.946,518.636,228.525,521.931,229.109,522.181z
				"/>
			<path fill="#727272" d="M228.275,517.429c1.041,0.442,0.365-2.935-0.295-3.193C227.112,513.884,227.689,517.179,228.275,517.429z
				"/>
			<path fill="#727272" d="M227.689,512.343c0.969,0.595,0.779-2.848,0.164-3.198C227.044,508.667,227.145,512.013,227.689,512.343z
				"/>
			<path fill="#727272" d="M227.33,507.257c0.969,0.595,0.781-2.846,0.164-3.205C226.688,503.581,226.786,506.927,227.33,507.257z"
				/>
			<path fill="#727272" d="M225.714,486.847c2.309-0.325,1.334-3.666-0.133-3.439C223.659,483.7,224.416,487.03,225.714,486.847z"/>
			<path fill="#727272" d="M225.763,482.239c2.309-0.326,1.334-3.668-0.133-3.441C223.708,479.091,224.464,482.423,225.763,482.239z
				"/>
			<path fill="#727272" d="M226.069,491.532c2.309-0.326,1.334-3.666-0.133-3.441C224.016,488.386,224.771,491.716,226.069,491.532z
				"/>
			<path fill="#727272" d="M226.425,496.22c2.309-0.326,1.334-3.67-0.131-3.439C224.37,493.071,225.128,496.403,226.425,496.22z"/>
			<path fill="#727272" d="M227.109,501.388c2.309-0.325,1.334-3.666-0.133-3.439C225.054,498.239,225.811,501.571,227.109,501.388z
				"/>
			<path fill="#727272" d="M227.284,503.382c1.037,0.461,0.412-2.924-0.244-3.196C226.179,499.817,226.705,503.122,227.284,503.382z
				"/>
			<path fill="#727272" d="M246.849,616.95c2.216-0.729,0.678-3.844-0.725-3.368C244.279,614.205,245.6,617.355,246.849,616.95z"/>
			<path fill="#727272" d="M246.098,612.402c2.216-0.729,0.678-3.849-0.727-3.368C243.53,609.659,244.852,612.809,246.098,612.402z"
				/>
			<path fill="#727272" d="M248.01,621.502c2.216-0.72,0.679-3.84-0.727-3.366C245.441,618.759,246.763,621.908,248.01,621.502z"/>
			<path fill="#727272" d="M248.522,623.848c1.1,0.275-0.098-2.942-0.794-3.106C246.816,620.528,247.903,623.692,248.522,623.848z"
				/>
			<path fill="#727272" d="M247.143,618.918c1.05,0.426,0.321-2.938-0.344-3.191C245.926,615.39,246.551,618.676,247.143,618.918z"
				/>
			<path fill="#727272" d="M245.987,613.952c1.05,0.431,0.323-2.937-0.343-3.191C244.771,610.424,245.397,613.712,245.987,613.952z"
				/>
			<path fill="#727272" d="M241.085,593.867c2.229-0.685,0.755-3.829-0.659-3.385C238.573,591.071,239.831,594.249,241.085,593.867z
				"/>
			<path fill="#727272" d="M240.425,589.305c2.231-0.676,0.755-3.827-0.659-3.378C237.911,586.512,239.17,589.688,240.425,589.305z"
				/>
			<path fill="#727272" d="M242.156,598.442c2.229-0.68,0.755-3.827-0.66-3.38C239.642,595.646,240.9,598.822,242.156,598.442z"/>
			<path fill="#727272" d="M243.227,603.019c2.232-0.679,0.757-3.828-0.658-3.38C240.713,600.223,241.972,603.398,243.227,603.019z"
				/>
			<path fill="#727272" d="M244.693,608.021c2.232-0.687,0.757-3.829-0.658-3.381C242.181,605.227,243.44,608.402,244.693,608.021z"
				/>
			<path fill="#727272" d="M245.176,609.963c1.093,0.298-0.041-2.946-0.734-3.124C243.537,606.612,244.561,609.796,245.176,609.963z
				"/>
			<path fill="#727272" d="M244.105,605.387c1.093,0.297-0.042-2.945-0.734-3.126C242.465,602.037,243.489,605.22,244.105,605.387z"
				/>
			<path fill="#727272" d="M242.622,600.797c1.094,0.295-0.04-2.952-0.732-3.129C240.982,597.446,242.006,600.63,242.622,600.797z"
				/>
			<path fill="#727272" d="M241.338,595.841c1.042,0.451,0.382-2.929-0.277-3.197C240.194,592.29,240.754,595.588,241.338,595.841z"
				/>
			<path fill="#727272" d="M240.284,590.854c1.039,0.45,0.379-2.928-0.28-3.194C239.14,587.301,239.698,590.6,240.284,590.854z"/>
			<path fill="#727272" d="M236.254,570.677c2.26-0.568,0.932-3.79-0.502-3.408C233.875,567.767,234.984,570.999,236.254,570.677z"
				/>
			<path fill="#727272" d="M235.81,566.091c2.26-0.572,0.932-3.789-0.5-3.406C233.43,563.181,234.539,566.411,235.81,566.091z"/>
			<path fill="#727272" d="M237.111,575.298c2.26-0.571,0.933-3.789-0.502-3.406C234.73,572.39,235.84,575.62,237.111,575.298z"/>
			<path fill="#727272" d="M237.965,579.918c2.263-0.564,0.934-3.789-0.5-3.406C235.585,577.011,236.695,580.241,237.965,579.918z"
				/>
			<path fill="#727272" d="M239.197,584.985c2.262-0.573,0.934-3.789-0.5-3.406C236.818,582.075,237.926,585.308,239.197,584.985z"
				/>
			<path fill="#727272" d="M239.587,586.947c1.08,0.349,0.097-2.95-0.586-3.154C238.106,583.524,238.981,586.753,239.587,586.947z"
				/>
			<path fill="#727272" d="M238.732,582.327c1.079,0.345,0.097-2.956-0.586-3.155C237.25,578.903,238.127,582.132,238.732,582.327z"
				/>
			<path fill="#727272" d="M237.467,577.671c1.077,0.346,0.094-2.955-0.586-3.154C235.984,574.248,236.86,577.476,237.467,577.671z"
				/>
			<path fill="#727272" d="M257.765,662.311c2.216-0.728,0.678-3.844-0.725-3.366C255.195,659.565,256.516,662.716,257.765,662.311z
				"/>
			<path fill="#727272" d="M257.014,657.763c2.216-0.727,0.678-3.847-0.727-3.368C254.446,655.02,255.768,658.169,257.014,657.763z"
				/>
			<path fill="#727272" d="M258.926,666.862c2.216-0.722,0.679-3.841-0.727-3.366C256.357,664.119,257.679,667.269,258.926,666.862z
				"/>
			<path fill="#727272" d="M260.145,671.446c2.216-0.722,0.679-3.841-0.727-3.366C257.576,668.703,258.898,671.854,260.145,671.446z
				"/>
			<path fill="#727272" d="M259.438,669.208c1.1,0.275-0.098-2.944-0.794-3.108C257.732,665.889,258.819,669.053,259.438,669.208z"
				/>
			<path fill="#727272" d="M258.059,664.278c1.05,0.426,0.321-2.938-0.344-3.191C256.842,660.75,257.467,664.036,258.059,664.278z"
				/>
			<path fill="#727272" d="M256.903,659.312c1.05,0.431,0.323-2.937-0.343-3.191C255.688,655.784,256.313,659.072,256.903,659.312z"
				/>
			<path fill="#727272" d="M252.001,639.229c2.229-0.684,0.755-3.828-0.659-3.386C249.489,636.432,250.747,639.609,252.001,639.229z
				"/>
			<path fill="#727272" d="M251.341,634.665c2.231-0.676,0.755-3.827-0.659-3.378C248.827,631.872,250.086,635.047,251.341,634.665z
				"/>
			<path fill="#727272" d="M253.072,643.803c2.229-0.678,0.755-3.827-0.66-3.379C250.558,641.008,251.816,644.183,253.072,643.803z"
				/>
			<path fill="#727272" d="M254.143,648.379c2.232-0.679,0.757-3.83-0.658-3.38C251.629,645.583,252.888,648.759,254.143,648.379z"
				/>
			<path fill="#727272" d="M255.609,653.383c2.232-0.686,0.757-3.83-0.658-3.38C253.097,650.587,254.356,653.763,255.609,653.383z"
				/>
			<path fill="#727272" d="M256.092,655.323c1.093,0.298-0.041-2.946-0.734-3.124C254.453,651.973,255.477,655.156,256.092,655.323z
				"/>
			<path fill="#727272" d="M255.021,650.747c1.093,0.297-0.042-2.947-0.734-3.126C253.381,647.396,254.405,650.58,255.021,650.747z"
				/>
			<path fill="#727272" d="M253.538,646.157c1.094,0.295-0.04-2.952-0.732-3.129C251.898,642.807,252.922,645.99,253.538,646.157z"
				/>
			<path fill="#727272" d="M252.254,641.201c1.042,0.451,0.382-2.93-0.277-3.197C251.11,637.65,251.67,640.948,252.254,641.201z"/>
			<path fill="#727272" d="M251.2,636.214c1.039,0.45,0.379-2.928-0.28-3.196C250.056,632.661,250.614,635.96,251.2,636.214z"/>
			<path fill="#727272" d="M236.609,571.892"/>
			<path fill="#727272" d="M236.609,571.892"/>
			<path fill="#727272" d="M248.881,625.278c2.263-0.565,0.934-3.789-0.5-3.406C246.501,622.371,247.611,625.602,248.881,625.278z"
				/>
			<path fill="#727272" d="M250.113,630.346c2.262-0.571,0.934-3.789-0.5-3.404C247.734,627.436,248.842,630.668,250.113,630.346z"
				/>
			<path fill="#727272" d="M250.503,632.308c1.08,0.351,0.097-2.948-0.586-3.152C249.022,628.885,249.897,632.113,250.503,632.308z"
				/>
			<path fill="#727272" d="M249.648,627.688c1.079,0.347,0.097-2.954-0.586-3.153C248.166,624.264,249.043,627.492,249.648,627.688z
				"/>
			<path fill="#727272" d="M248.383,623.031"/>
			<path fill="#727272" d="M236.417,572.66c1.02,0.504,0.515-2.907-0.129-3.2C235.439,569.059,235.845,572.382,236.417,572.66z"/>
			<path fill="#727272" d="M235.594,567.629c1.019,0.503,0.517-2.905-0.13-3.207C234.618,564.027,235.022,567.35,235.594,567.629z"
				/>
			<path fill="#727272" d="M226.977,497.946"/>
			<path fill="#727272" d="M226.977,497.946"/>
			<path fill="#727272" d="M235.194,563.774"/>
			<path fill="#727272" d="M226.929,498.694c1.035,0.463,0.412-2.922-0.244-3.199C225.823,495.132,226.347,498.438,226.929,498.694z
				"/>
			<path fill="#727272" d="M226.169,493.931c1.035,0.463,0.412-2.927-0.244-3.197C225.064,490.368,225.587,493.673,226.169,493.931z
				"/>
			<path fill="#727272" d="M225.664,488.837c0.959,0.605,0.824-2.834,0.215-3.196C225.075,485.151,225.123,488.497,225.664,488.837z
				"/>
			<path fill="#727272" d="M225.384,483.747c0.961,0.604,0.826-2.836,0.215-3.203C224.798,480.062,224.847,483.407,225.384,483.747z
				"/>
			<path fill="#727272" d="M224.153,462.927c2.314-0.273,1.408-3.642-0.062-3.439C222.164,459.737,222.852,463.085,224.153,462.927z
				"/>
			<path fill="#727272" d="M224.296,458.321c2.316-0.279,1.41-3.641-0.061-3.443C222.309,455.132,222.995,458.478,224.296,458.321z"
				/>
			<path fill="#727272" d="M224.411,467.62c2.314-0.279,1.41-3.639-0.061-3.44C222.423,464.431,223.11,467.776,224.411,467.62z"/>
			<path fill="#727272" d="M224.671,472.312c2.314-0.279,1.41-3.646-0.061-3.443C222.684,469.122,223.37,472.468,224.671,472.312z"
				/>
			<path fill="#727272" d="M225.248,477.493c2.314-0.279,1.41-3.637-0.062-3.443C223.257,474.304,223.946,477.649,225.248,477.493z"
				/>
			<path fill="#727272" d="M225.382,479.489c1.027,0.482,0.475-2.912-0.178-3.203C224.352,475.905,224.809,479.218,225.382,479.489z
				"/>
			<path fill="#727272" d="M225.123,474.798c1.027,0.482,0.475-2.914-0.176-3.198C224.091,471.212,224.548,474.526,225.123,474.798z
				"/>
			<path fill="#727272" d="M224.462,470.019c1.025,0.479,0.473-2.91-0.178-3.201C223.429,466.433,223.886,469.747,224.462,470.019z"
				/>
			<path fill="#727272" d="M224.062,464.915c0.945,0.625,0.883-2.812,0.279-3.197C223.552,461.22,223.528,464.562,224.062,464.915z"
				/>
			<path fill="#727272" d="M223.888,459.819c0.947,0.625,0.883-2.816,0.281-3.195C223.378,456.124,223.357,459.47,223.888,459.819z"
				/>
			<path fill="#727272" d="M223.33,439.021c2.314-0.279,1.408-3.644-0.062-3.443C221.339,435.833,222.026,439.179,223.33,439.021z"
				/>
			<path fill="#727272" d="M223.475,434.415c2.312-0.272,1.408-3.639-0.062-3.438C221.484,431.226,222.171,434.571,223.475,434.415z
				"/>
			<path fill="#727272" d="M223.587,443.714c2.316-0.271,1.41-3.639-0.061-3.438C221.6,440.524,222.286,443.87,223.587,443.714z"/>
			<path fill="#727272" d="M223.847,448.405c2.314-0.279,1.41-3.639-0.061-3.443C221.859,445.216,222.546,448.562,223.847,448.405z"
				/>
			<path fill="#727272" d="M224.423,453.587c2.314-0.271,1.41-3.637-0.062-3.438C222.434,450.397,223.12,453.743,224.423,453.587z"
				/>
			<path fill="#727272" d="M224.559,455.583c1.027,0.484,0.473-2.912-0.178-3.203C223.526,451.999,223.982,455.312,224.559,455.583z
				"/>
			<path fill="#727272" d="M224.298,450.892c1.027,0.479,0.473-2.914-0.178-3.201C223.268,447.306,223.725,450.62,224.298,450.892z"
				/>
			<path fill="#727272" d="M223.638,446.112c1.025,0.482,0.473-2.912-0.18-3.203C222.605,442.528,223.062,445.843,223.638,446.112z"
				/>
			<path fill="#727272" d="M223.237,441.009c0.945,0.632,0.883-2.812,0.279-3.188C222.727,437.312,222.705,440.659,223.237,441.009z
				"/>
			<path fill="#727272" d="M223.064,435.913c0.945,0.625,0.883-2.812,0.281-3.195C222.554,432.218,222.532,435.562,223.064,435.913z
				"/>
			<path fill="#727272" d="M222.893,424.495"/>
			<path fill="#727272" d="M223.333,429.69c2.322-0.221,1.504-3.604,0.027-3.443C221.427,426.45,222.028,429.812,223.333,429.69z"/>
			<path fill="#727272" d="M222.866,424.492c2.322-0.219,1.504-3.604,0.027-3.443C220.96,421.252,221.561,424.615,222.866,424.492z"
				/>
			<path fill="#727272" d="M222.6,419.812c0.603-2.254-2.855-2.664-3.219-1.226C218.899,420.471,222.261,421.079,222.6,419.812z"/>
			<path fill="#727272" d="M218.698,418.888c-0.676-2.229-3.831-0.757-3.38,0.658C215.901,421.4,219.079,420.144,218.698,418.888z"
				/>
			<path fill="#727272" d="M223.417,431.69c1.014,0.508,0.549-2.9-0.096-3.209C222.479,428.079,222.85,431.403,223.417,431.69z"/>
			<path fill="#727272" d="M223.278,426.991c1.014,0.512,0.549-2.898-0.096-3.207C222.341,423.382,222.71,426.706,223.278,426.991z"
				/>
			<path fill="#727272" d="M222.75,421.936c1.113,0.229-0.233-2.939-0.936-3.067C220.896,418.699,222.127,421.81,222.75,421.936z"/>
			<path fill="#727272" d="M220.598,418.955c0.407-1.062-2.939-0.257-3.182,0.415C217.1,420.248,220.37,419.548,220.598,418.955z"/>
			<path fill="#727272" d="M313.949,732.31c0.186,2.323,3.58,1.556,3.442,0.075C317.217,730.447,313.846,731.002,313.949,732.31z"/>
			<path fill="#727272" d="M318.249,732.572c0.186,2.322,3.58,1.554,3.444,0.075C321.516,730.71,318.146,731.265,318.249,732.572z"
				/>
			<path fill="#727272" d="M315.965,732.383c-0.662,0.927,2.778,0.998,3.185,0.413C319.678,732.021,316.336,731.864,315.965,732.383
				z"/>
			<path fill="#727272" d="M320.323,732.44c-0.665,0.921,2.772,0.997,3.179,0.405C324.036,732.075,320.694,731.922,320.323,732.44z"
				/>
			<path fill="#727272" d="M616.163,734.904c-0.07,2.33,3.388,1.938,3.415,0.453C619.615,733.412,616.204,733.594,616.163,734.904z"
				/>
			<path fill="#727272" d="M620.697,735.58c-0.07,2.33,3.388,1.936,3.414,0.453C624.146,734.09,620.737,734.27,620.697,735.58z"/>
			<path fill="#727272" d="M619.275,734.951c-0.764,0.842,2.646,1.295,3.119,0.754C623.007,734.996,619.701,734.477,619.275,734.951
				z"/>
			<path fill="#727272" d="M639.938,736.303c-0.064,2.332,3.395,1.939,3.413,0.455C643.388,734.814,639.977,734.994,639.938,736.303
				z"/>
			<path fill="#727272" d="M635.258,735.857c-0.07,2.323,3.389,1.938,3.414,0.448C638.709,734.369,635.298,734.547,635.258,735.857z
				"/>
			<path fill="#727272" d="M630.58,735.414c-0.07,2.328,3.386,1.938,3.413,0.453C634.031,733.924,630.619,734.102,630.58,735.414z"
				/>
			<path fill="#727272" d="M625.371,735.207c-0.07,2.33,3.387,1.938,3.415,0.453C628.821,733.717,625.41,733.896,625.371,735.207z"
				/>
			<path fill="#727272" d="M623.376,735.041c-0.631,0.945,2.81,0.904,3.195,0.305C627.075,734.559,623.73,734.514,623.376,735.041z"
				/>
			<path fill="#727272" d="M628.055,735.486c-0.632,0.938,2.812,0.897,3.195,0.307C631.754,735.006,628.408,734.961,628.055,735.486
				z"/>
			<path fill="#727272" d="M632.879,735.549c-0.632,0.941,2.812,0.904,3.193,0.303C636.579,735.064,633.233,735.021,632.879,735.549
				z"/>
			<path fill="#727272" d="M637.984,735.914c-0.766,0.844,2.646,1.295,3.111,0.758C641.716,735.963,638.411,735.441,637.984,735.914
				z"/>
			<path fill="#727272" d="M643.049,736.506c-0.759,0.844,2.652,1.295,3.118,0.754C646.778,736.555,643.476,736.033,643.049,736.506
				z"/>
			<path fill="#727272" d="M654.997,737.721c-0.069,2.332,3.387,1.939,3.415,0.453C658.448,736.232,655.037,736.41,654.997,737.721z
				"/>
			<path fill="#727272" d="M659.531,738.553c-0.071,2.33,3.387,1.938,3.413,0.453C662.979,737.064,659.568,737.242,659.531,738.553z
				"/>
			<path fill="#727272" d="M650.319,737.275c-0.07,2.33,3.387,1.938,3.414,0.446C653.77,735.785,650.358,735.965,650.319,737.275z"
				/>
			<path fill="#727272" d="M645.642,736.828c-0.063,2.334,3.394,1.938,3.413,0.457C649.092,735.342,645.68,735.521,645.642,736.828z
				"/>
			<path fill="#727272" d="M647.94,736.967c-0.64,0.941,2.809,0.902,3.188,0.303C651.639,736.482,648.293,736.438,647.94,736.967z"
				/>
			<path fill="#727272" d="M653.046,737.332c-0.76,0.844,2.653,1.295,3.118,0.758C656.776,737.381,653.473,736.857,653.046,737.332z
				"/>
			<path fill="#727272" d="M658.11,737.924c-0.767,0.842,2.646,1.295,3.111,0.754C661.841,737.973,658.536,737.449,658.11,737.924z"
				/>
			<path fill="#727272" d="M678.771,740.275c-0.07,2.332,3.386,1.938,3.407,0.446C682.222,738.785,678.81,738.967,678.771,740.275z"
				/>
			<path fill="#727272" d="M684.454,740.906c-0.07,2.332,3.387,1.938,3.414,0.453C687.904,739.416,684.493,739.598,684.454,740.906z
				"/>
			<path fill="#727272" d="M674.092,739.832c-0.07,2.33,3.387,1.938,3.414,0.453C677.542,738.342,674.132,738.521,674.092,739.832z"
				/>
			<path fill="#727272" d="M669.413,739.385c-0.07,2.332,3.388,1.939,3.414,0.455C672.864,737.896,669.453,738.074,669.413,739.385z
				"/>
			<path fill="#727272" d="M664.204,739.182c-0.07,2.328,3.387,1.938,3.415,0.453C667.654,737.689,664.242,737.869,664.204,739.182z
				"/>
			<path fill="#727272" d="M662.21,739.014c-0.632,0.945,2.81,0.906,3.194,0.312C665.909,738.531,662.564,738.488,662.21,739.014z"
				/>
			<path fill="#727272" d="M666.888,739.461c-0.631,0.941,2.812,0.902,3.194,0.305C670.588,738.979,667.242,738.932,666.888,739.461
				z"/>
			<path fill="#727272" d="M671.711,739.521c-0.631,0.938,2.811,0.897,3.194,0.305C675.411,739.037,672.065,738.992,671.711,739.521
				z"/>
			<path fill="#727272" d="M676.818,739.889c-0.767,0.851,2.646,1.295,3.11,0.756C680.55,739.938,677.244,739.414,676.818,739.889z"
				/>
			<path fill="#727272" d="M681.882,740.48c-0.759,0.844,2.652,1.297,3.119,0.756C685.613,740.525,682.308,740.004,681.882,740.48z"
				/>
			<path fill="#727272" d="M687.415,741.043c-0.758,0.842,2.653,1.295,3.119,0.754C691.146,741.092,687.842,740.568,687.415,741.043
				z"/>
			<path fill="#727272" d="M703.004,740.789c-0.712-2.221-3.839-0.695-3.369,0.713C700.249,743.348,703.403,742.037,703.004,740.789
				z"/>
			<path fill="#727272" d="M698.439,741.822c-0.497-2.279-3.76-1.062-3.428,0.389C695.457,744.105,698.723,743.102,698.439,741.822z
				"/>
			<path fill="#727272" d="M693.363,742.422c0.22-2.32-3.255-2.152-3.378-0.674C689.823,743.686,693.24,743.727,693.363,742.422z"/>
			<path fill="#727272" d="M704.802,739.832c0.152-1.123-2.921,0.426-3.002,1.133C701.691,741.895,704.716,740.465,704.802,739.832z
				"/>
			<path fill="#727272" d="M700.404,741.588c0.377-1.07-2.946-0.174-3.17,0.504C696.942,742.98,700.194,742.189,700.404,741.588z"/>
			<path fill="#727272" d="M695.702,742.391c0.692-0.896-2.743-1.09-3.168-0.516C691.979,742.625,695.312,742.896,695.702,742.391z"
				/>
		</g>
		<g id="Barco_Petit_copia">
			<g id="Capa_22_copia_2">
				<path fill="#36627A" d="M-88.301,410.143c-1.159,0.244-4.863,8.27-3.69,14.602c1.174,6.331,4.551,20.999,6.495,23.415
					c1.944,2.416,4.38,6.731,4.38,6.731s-8.574,4.605-9.94,7.619c0,0,0.003,1.236,1.05,1.07c1.047-0.166,10.189-0.664,10.618,0.363
					c0.43,1.022,1.264,6.352,1.403,7.047c0.139,0.69-0.246,3.84-0.377,4.971c-0.054,0.467-2.86,4.979-2.345,5.998
					c0.517,1.021,4.314,1.057,6.43,1.008c2.114-0.049,13.385-7.602,14.959-8.992c1.574-1.389,2.011-18.188,2.011-18.188
					s-3.206-21.965-2.419-22.01c0.788-0.043,6.107-2.188,7.813-4.164c1.708-1.979,1.074-11.558,0.264-13.082
					C-52.462,415-70.919,406.477-88.301,410.143z"/>
				<path fill="#6C808C" d="M-79.68,470.746c0,0,1.826-0.373,1.931-0.146c0.105,0.23,0.505,0.861,0.419,2.082
					c-0.087,1.226,0.381,2.775-0.581,2.896s-1.624,0.119-1.624,0.119s-1.605,3.957-4.077,5.151
					c-2.472,1.197-4.135,0.789-2.617-0.774c1.518-1.566,4.374-3.41,4.101-4.058c-0.273-0.643-5.061,0.019-5.061,0.019l0.043-3.873
					c0,0,3.661-0.354,3.843-0.283c0.182,0.066,1.562-0.955,0.514-1.408c-1.048-0.45-5.559,0.009-4.839-1.59
					c0.72-1.6,0.545-1.584,2.25-1.799c1.706-0.215,3.886,0.625,4.854,1.797C-79.555,470.045-79.68,470.746-79.68,470.746z"/>
			</g>
			<g>
				<path fill="#FF0000" d="M17.623,460.756L0.394,446.338l-72.279-4.104c22.56-4.644,65.304-11.433,128.988-15.354
					c45.75-2.814,84.083-3.113,101.813-2.215c32.242,1.636,53.926-0.238,59.434-0.799c-0.936,0.591-2.311,1.521-3.146,2.297
					c-0.629,0.585-1.191,1.38-1.967,2.479c-1.574,2.229-3.975,5.443-9.271,10.443l-0.531,0.482
					c-35.385,17.237-83.354,22.317-117.804,23.301C49.135,463.906,19.164,460.916,17.623,460.756z"/>
				<path d="M58.451,403.033c-0.312-0.624-0.558-1.092-0.752-1.444c-0.104-0.175-0.188-0.321-0.268-0.444
					c-0.383-0.606-0.509-0.608-0.586-0.61l-0.219,0.136c-0.103,0.196-0.218,0.407-0.354,0.626c-0.089,0.146-0.184,0.297-0.281,0.451
					c-0.055,0.076-0.104,0.149-0.156,0.229c-1.396,2.027-3.712,4.411-5.104,4.046c-0.664-0.177-1.062-0.625-1.222-1.38
					c-0.019-0.088-0.033-0.18-0.044-0.271c-0.011-0.102-0.019-0.195-0.021-0.3c-0.088-2.688,2.308-7.956,5.46-11.315
					c0.482-0.517,0.985-0.988,1.503-1.398c0.282-0.229,0.606-0.46,0.949-0.656c0.553-0.314,1.146-0.539,1.7-0.511
					c0.208,0.01,0.412,0.056,0.606,0.146c0.309,0.142,0.514,0.383,0.627,0.734c0.075,0.232,0.104,0.498,0.103,0.784
					c-0.021,2.007-1.729,5.062-1.751,5.097l-0.128,0.228l2.79,0.807L58.451,403.033z M58.795,393.106
					c-0.007-0.307-0.084-0.561-0.255-0.733c-0.034-0.035-0.072-0.066-0.113-0.094c-0.104-0.069-0.225-0.104-0.357-0.104
					c-0.093,0-0.189,0.02-0.3,0.059c-0.749,0.267-1.826,1.429-2.91,2.919l-0.048-0.057l-0.049-0.058l-0.948,1.646
					c-0.471,0.733-0.921,1.495-1.318,2.235c-0.67,1.234-1.205,2.408-1.476,3.29c-0.148,0.502-0.22,0.907-0.204,1.216
					c0.005,0.077,0.017,0.148,0.029,0.215c0.044,0.195,0.136,0.345,0.275,0.438c0.06,0.039,0.128,0.059,0.205,0.059
					c0.853,0,3.615-3.349,4.762-4.981c0.042-0.062,0.083-0.118,0.121-0.18c0.075-0.106,0.141-0.212,0.193-0.3
					c0.058-0.088,0.102-0.165,0.133-0.226c0.03-0.059,0.072-0.121,0.126-0.202c0.049-0.079,0.104-0.171,0.167-0.274
					C57.502,396.846,58.827,394.458,58.795,393.106z"/>
				<path fill="#3FA9F5" d="M84.659,394.044c-1.104,0.152-4.986,0.782-8.348,1.418c-0.214,0.04-0.426,0.081-0.636,0.123
					c-0.109,0.021-0.218,0.043-0.327,0.064c-0.461,0.092-0.902,0.187-1.33,0.282c-0.133,0.029-0.262,0.059-0.39,0.084
					c-0.319,0.075-0.625,0.15-0.909,0.229c-0.114,0.031-0.226,0.061-0.333,0.092c-0.021,0.004-0.053,0.011-0.087,0.021
					c-1.036,0.229-6.938,1.604-7.823,3.136c-0.025,0.051-0.053,0.092-0.066,0.144c-0.52,1.481-1.779,9.771-1.985,11.616h-3.531
					l-1.234-3.121l0.479-4.433l0.188-0.088l0,0l0,0c-0.015-0.021-0.021-0.041-0.031-0.062c-0.01-0.021-0.021-0.042-0.031-0.062
					l3.061-5.387l0.049,0.018l0,0l0,0l0.057-0.197l0.044-0.078l0.078-0.138l4.574-9.622l0.703-0.246l0.701-0.246l2.055-11.217
					c0.1,0,0.242-0.001,0.415-0.001c1.199,0,5.202,0.034,6.348,0.47C77.314,377.211,81.946,387.419,84.659,394.044z"/>
				<path d="M56.562,397.3c0.021,0,0.035-0.004,0.049-0.007c0.04-0.008,0.074-0.03,0.104-0.055
					c-0.202,0.351-0.405,0.688-0.603,1.006c-0.115,0.224-0.329,0.557-0.609,0.949c-0.046-0.106-0.062-0.228-0.063-0.327
					c-0.002-0.174,0.034-0.313,0.034-0.317l0.062-0.213l-1.957-0.414l0.818-1.429c0.158-0.235,0.316-0.465,0.479-0.69
					C56.065,397.174,56.422,397.304,56.562,397.3z"/>
				<path d="M56.66,398.246c-0.054,0.081-0.095,0.146-0.126,0.202c-0.031,0.062-0.075,0.137-0.134,0.226
					c-0.055,0.089-0.117,0.189-0.192,0.3c-0.038,0.061-0.078,0.114-0.121,0.18c-1.146,1.637-3.91,4.981-4.762,4.981
					c-0.077,0-0.146-0.02-0.205-0.059c-0.143-0.094-0.231-0.237-0.275-0.438c-0.015-0.062-0.021-0.139-0.029-0.215
					c-0.017-0.309,0.055-0.712,0.204-1.216c0.271-0.882,0.806-2.056,1.476-3.29c0.397-0.74,0.852-1.502,1.318-2.235l0.948-1.646
					l0.049,0.058l0.048,0.057c1.083-1.49,2.161-2.652,2.91-2.92c0.107-0.038,0.207-0.059,0.302-0.059
					c0.135,0,0.254,0.036,0.355,0.105c0.042,0.028,0.08,0.06,0.113,0.094c0.171,0.173,0.248,0.427,0.255,0.733
					c0.032,1.351-1.293,3.74-1.969,4.865C56.765,398.074,56.709,398.167,56.66,398.246z M51.383,402.331
					c-0.324,1.069-0.183,1.331-0.13,1.383c0.687-0.128,2.75-2.493,3.986-4.158c-0.229-0.296-0.23-0.67-0.202-0.898l-1.755-0.371
					C52.44,399.72,51.73,401.182,51.383,402.331z M54.4,396.493l-0.818,1.429l1.957,0.414l-0.062,0.212
					c-0.001,0.003-0.037,0.146-0.035,0.317c0.001,0.104,0.021,0.221,0.063,0.327c0.28-0.396,0.495-0.729,0.606-0.949
					c0.197-0.315,0.401-0.655,0.604-1.006c-0.03,0.021-0.064,0.046-0.104,0.055c-0.013,0.002-0.024,0.006-0.049,0.007
					c-0.141,0.004-0.496-0.127-1.688-1.497C54.717,396.028,54.558,396.258,54.4,396.493z M58.197,392.622
					c-0.036-0.023-0.078-0.035-0.132-0.035c-0.575,0-1.736,1.216-2.943,2.873c0.517,0.595,1.099,1.2,1.354,1.38
					c0.145-0.214,0.412-0.299,0.64-0.325C58.041,394.781,58.746,392.988,58.197,392.622z"/>
				<path fill="#FFFFFF" stroke="#FFFFFF" stroke-miterlimit="10" d="M-72.53,439.248l0.097-0.062l-0.069-5.696l3.559-2.179
					l15.577,0.274l0.037-0.015l6.453-2.39l0.275-13.308l11.64-2.842l24.899-0.069l1.312-2.411l21.093-1.172l0.138-2.137l4.39-0.446
					l-0.399-0.312c-0.006-0.011-0.619-0.496-0.603-1.097c0.009-0.347,0.229-0.678,0.664-0.979c0.316-0.229,1.258-0.496,3.904-0.496
					c2.434,0,5.401,0.219,7.57,0.379c1.072,0.079,1.918,0.143,2.413,0.158c1.482,0.045,3.122,1.162,4.016,2.176
					c0.553,0.623,0.845,1.233,0.804,1.664c-0.134,1.377-0.357,1.709-1.348,1.895l0.062,0.438l14.563-1.38l8.99-0.852l1.229,3.16
					h3.888l0.022-0.468c0.019-0.097,1.455-10.041,1.991-11.584c0.42-1.207,5.694-2.617,7.691-3.054
					c3.521-0.988,10.873-2.021,12.221-2.206l0.021,0.05l0.148-0.014c0.002,0,0.288-0.026,0.688-0.026
					c1.128,0,1.948,0.186,2.312,0.521c0.401,0.368,0.404,1.106,0.408,1.82c0.002,0.616,0.005,1.197,0.237,1.628
					c0.476,0.89,4.567,7.803,4.745,8.097l0.055,0.095l0.107,0.007c0.6,0.035,59.928,3.542,73.163,5.171
					c1.026,0.126,2.194,0.245,3.474,0.424c20.031,2.821,48.084,8.233,48.084,8.233c2.172,0.038,3.033,0.72,3.108,1.293
					c0.071,0.529-0.479,1.062-1.38,1.325c-0.023,0.014-0.629,0.317-1.452,0.81c-3.64,0.399-25.599,2.571-59.902,0.832
					c-17.743-0.896-56.132-0.545-101.896,2.274C-8.73,430.8-48.97,437.215-71.245,441.884l-0.974,0.205
					c-1.848-0.021-2.505-0.209-2.59-0.312c-0.031-0.059-0.071-0.11-0.111-0.166c-0.095-0.133-0.143-0.202-0.124-0.309
					C-74.965,440.943-74.145,440.268-72.53,439.248z"/>
				<path fill="#FFFFFF" stroke="#FFFFFF" stroke-miterlimit="10" d="M17.562,460.91l0.062,0.006
					c0.25,0.025,21.625,2.256,51.066,2.256c5.099,0,10.435-0.062,15.941-0.223c34.301-0.979,82.51-5.729,117.908-22.773
					c-0.092,0.088-0.182,0.17-0.273,0.256c-1.219,1.127-2.434,2.324-3.721,3.593c-8.133,8.006-18.254,17.971-44.362,25.562
					c-6.007,1.746-12.438,2.562-20.247,2.562c-6.688,0-13.549-0.184-20.811-0.812c-7.973-0.688-16.213-1.396-25.029-1.396
					c-1.352,0-2.704,0.019-4.016,0.052c-1.323,0.035-2.874,0.053-4.609,0.053c-34.329,0-138.904-7.182-143.244-7.461l-7.756-19.859
					l71.914,3.771L17.562,460.91z"/>
			</g>
			<g id="_x32__1_">
				<path fill="#996234" d="M38.773,410.047c0,0-1.388-1.613-1.084-3.515c0.307-1.901,0.731-2.871,1.898-3.205
					s2.748-0.488,3.073-0.323c0.322,0.165,4.257,1.725,5.154,2.036c0.899,0.311,3.354,1.935,3.404,2.683
					c0.05,0.748,0.195,0.988,0.498,1.724c0.303,0.729,0.765,4.024,0.765,4.024l-5.933,0.654c0,0,0.066-2.316-0.373-2.475
					c-0.438-0.155-6.235-0.748-6.626-0.974C39.158,410.458,38.773,410.047,38.773,410.047z"/>
				<path fill="#EF45B7" d="M16.8,400.792c0,0-0.312-2.938-0.438-2.938c-0.129,0,4.114-0.25,5.125-1
					c1.25-0.931,8.125-0.875,8.125-0.875l4.562,4.188l5.264,3.96c0,0-1.514,4.977-2.264,4.977c-0.354,0-4.109-3.396-7.5-3.5
					c-3.784-0.104-4.062,2.062-3.188,6.75c0.166,0.892-7.812-4.438-7.812-4.438s-1.506-1.125-1.878-3.125S16.8,400.792,16.8,400.792
					z"/>
				<path fill="#996234" d="M25.862,370.667c0.188,0.062,1.562-1.625,1.5-2.188s-0.623-0.938-0.749-0.938s-1.438-1.562-0.751-2.25
					s-1.5-3.5-0.688-4.875s1.812-3.5,3.688-4.25c1.875-0.75,3.062-1.375,4-0.625s3.188,2.875,3.25,3.688s0.438,2.375,0,4.062
					s-0.438,1.938-0.5,3.75s-0.875,2.941-1.438,3.627s-0.312,1.623-1.375,1.873s0.25,1.938-0.25,2.562s-6.375-0.938-6.25-3.375
					C26.358,370.582,25.862,370.667,25.862,370.667z"/>
				<path fill="#301705" d="M26.05,368.23c0,0-1.062,0-0.938-0.875c0.121-0.875,0.354-2.375-0.013-2.75
					c-0.367-0.375-1.487-1.062-1.112-2.125s0.812-1.688,0.562-2.688s0-1.812,0.812-2.312s1.445-0.375,2.382-0.812
					c0.934-0.437,1.684-1.5,2.743-1.688c1.062-0.188,2.312-0.938,3.188,0s1.5,0.938,1.75,1.562s-0.062-0.062,0.312,1.438
					c0.375,1.5,1.125,1.812,0.625,2.625s-0.938-0.688-1.375-0.75s-0.188-0.75-1.375,0s-0.75,0.5-2.5,0.125s-2.688-1.375-3.22,0.438
					c-0.532,1.813-0.22,1.5,0,2.938c0.22,1.438,0,2.062,0,2.062s-0.092-0.688-0.78-0.562s-0.812,0.25-0.75,1
					s0.438,1.625,0.312,1.875S26.05,368.23,26.05,368.23z"/>
				<path fill="#996234" d="M34.675,382.48c0,0,4.125,6.75,5.188,7.375s3.25,1.875,4.062,2.062s5.938,1,8.125,0.875
					s2.562-0.786,3.375,0.013c0.812,0.799,1.188,1.362,1.5,0.737s0.125-0.75,0-1.688s0-1.438,0.875-1.562s2.213,0.875,1.856-0.25
					c-0.357-1.125-0.231-1.625-1.672-1.5c-1.438,0.125-1.688,1.188-2.688,1.312s-1.438,0.125-3.188-0.125s-6.688-3.188-7.75-3.25
					s-1.125-0.875-1.812-1.562c-0.688-0.687-3.438-4.062-3.438-4.062"/>
				<path fill="#8BC7E8" d="M16.362,385.917c0.25-3.5,1.5-9.062,3.625-11.5s2.75-2.375,4.312-3.062s2.375-0.5,2.375-0.5
					s0.082,2.5,1.354,2.938c1.271,0.438,4.271,1.25,4.459,0.75s-0.249-0.818,0.125-1.253c0.371-0.435,1-1.622,1.437-1.372
					c0.438,0.25,2.625,1.124,2.875,2.25s0.5,2.625,1.125,3.5s1,2.25,1,2.25s0.188,0.5,0.375,1.062
					c0.188,0.562-1.625,0.5-2.812,2.812c-1.188,2.312-2.5-1.312-2.5-1.312s1.438-0.938,0.125,1.062c0,0-2,3.062-2.125,3.5
					s-0.625,1.562-0.562,2.688s0.688,2.312,0.562,3.5s0.022,2.25-1.456,2.812c-1.481,0.562-3.106,0.438-4.919,0.625
					s-4.05,0.089-4.875,0.812c-0.828,0.728-1.625,0.125-2.625,0.375s-1.062,0.875-1.875,0s0.478-3.625,0.27-4.25
					s-0.75-2-0.542-4.062S16.362,385.917,16.362,385.917z"/>
				<path fill="#996234" d="M23.587,390.135c0,0,1.328,4.356,2.071,5.185c0.741,0.833,1.93,2.75,2.562,3.499
					c0.631,0.74,6.229,6.479,6.9,6.979s3.919,3.352,3.919,3.352l4.597-0.524c0,0-3.046-3.262-4.543-4.856
					c-1.498-1.594-6.453-7.728-6.736-8.285c-0.28-0.557-1.893-2.235-2.329-3.009s-0.508-2.373-0.867-3.832
					c-0.362-1.459-0.984-3.345-0.984-3.345s-5.779-0.694-5.955,0.671C22.043,387.327,23.587,390.135,23.587,390.135z"/>
				<path fill="#996234" d="M26.612,412.292c0,0-1.271-1.708-0.836-3.583c0.438-1.875,0.935-2.812,2.12-3.062
					c1.188-0.25,2.776-0.286,3.089-0.104c0.312,0.188,4.125,2.021,5,2.396s3.204,2.161,3.204,2.911s0.125,1,0.375,1.75
					s0.562,2.875,0.562,2.875l-6.002,0.642c0,0,0.182-1.517-0.245-1.699c-0.427-0.188-6.167-1.188-6.542-1.438
					S26.612,412.292,26.612,412.292z"/>
				<path fill="#996234" d="M33.128,418.339"/>
			</g>
		</g>
		<polygon id="La_mar_5_m_1_" opacity="0.6" fill="#39BCC4" enable-background="new    " points="0,449.043 800,449.043 
			800.981,799.162 0.982,799.162 		"/>
	</g>
	<g id="La_Mar">
		<g>
			<path fill="#D8BD80" d="M800.557,739.949c-37.881,6.85-61.195,5.146-88.212,5.051c-24.051-0.033-33.146-4.85-75.376-8.055
				c-26.088-0.787-46.714,0.008-74.345,1.416c-20.113,1.021-66.365,3.424-87.148,0.19c-39.55-10.771-139.626-8.536-184.812-1.551
				c-45.187,6.986-25.674-4.301-54.43-3.225c-28.755,1.067-24.134,5.375-38.512,1.604c-14.377-3.762-20.67-15.181-32.92-13.012
				c-1.388,0.829,0.264,7.501-30.5-8.625c-10.783-5.652-23.201-5.499-30.875-5.625c-7.625-0.125-24.619,3.904-34.375-3.625
				c-11.25-6.604-43.828,16.413-55.125,22.856C2.63,733.811-3,730.024-3,730.024l1.75,72.226l802.232,1L800.557,739.949z"/>
		</g>
	</g>
</g>
</svg>
