<?xml version="1.0" encoding="utf-8"?>
<!-- Generator: Adobe Illustrator 16.0.0, SVG Export Plug-In . SVG Version: 6.00 Build 0)  -->
<!DOCTYPE svg PUBLIC "-//W3C//DTD SVG 1.1//EN" "http://www.w3.org/Graphics/SVG/1.1/DTD/svg11.dtd">
<svg version="1.1" id="Capa_1" xmlns="http://www.w3.org/2000/svg" xmlns:xlink="http://www.w3.org/1999/xlink" x="0px" y="0px"
	 width="800px" height="800px" viewBox="0 0 800 800" enable-background="new 0 0 800 800" xml:space="preserve">
<g id="Capa_1_1_">
	<g id="_x31_0_metres">
		<g id="Cèl_3_">
			
				<linearGradient id="SVGID_1_" gradientUnits="userSpaceOnUse" x1="386.3379" y1="989.0098" x2="1185.5" y2="989.0098" gradientTransform="matrix(-4.371139e-08 -1 -1 4.371139e-08 1389.5 1185.5005)">
				<stop  offset="0.773" style="stop-color:#FFFFFF"/>
				<stop  offset="1" style="stop-color:#00C3FF"/>
			</linearGradient>
			<polygon fill="url(#SVGID_1_)" points="0,0 800,0 800.981,799.162 0.982,799.162 			"/>
		</g>
		<g id="Ancla">
			<path fill="#727272" d="M580.656,668.541c1.082-0.019,11.108-0.191,12.767-0.607c1.733-0.436,2.996-2.396,3.298-3.588
				c0.015-0.055,1.407-5.567,1.846-9.332c0.584-5.024,0.412-7.553-0.539-7.938c-0.207-0.086-0.41-0.08-0.604,0.018
				c-0.766,0.391-1.195,2.148-1.518,3.438c-0.016,0.06-0.022,0.104-0.041,0.162c-0.17-0.102-0.347-0.196-0.521-0.307
				c-1.051-0.605-2.044-1.184-2.604-1.082c-0.296,0.059-0.519,0.197-0.653,0.425c-0.22,0.354-0.166,0.813-0.107,1.08
				c0.016,0.067,0.03,0.125,0.042,0.161c0.118,0.396,1.104,2.923,1.45,3.812c-0.688-0.25-2.421-0.863-4.008-1.295l-0.5-0.14
				c-1.93-0.526-3.588-0.979-4.229-0.312c-0.064,0.068-0.101,0.166-0.096,0.283c0.061,1.229,4.982,5.801,5.034,5.844
				c0.252,0.217,1.158,1.176,1.93,2.156c1.354,1.723,1.354,2.303,1.291,2.473c-0.193,0.537-3.021,0.795-7.036,0.64
				c-0.849-0.028-2.617-0.271-3.064-0.7c-0.396-0.377-0.452-1.688-0.44-2.172c-0.062-1.453-1.519-35.58-1.581-36.434
				c-0.01-0.141-0.011-0.271-0.012-0.389c-0.004-0.697-0.068-1.092-1.353-1.096c-0.014-0.005-0.319-0.058-0.631,0.198
				c-0.384,0.32-0.575,0.965-0.566,1.91c0.003,0.649,0.062,4.758,0.146,9.957c0.18,11.637,0.479,31.114,0.403,31.629
				c-0.101,0.354-0.173,0.762-0.112,1.039c0.031,0.151,0.105,0.264,0.239,0.305c0.201,0.062,1.464,0.273,1.752-0.09
				C580.637,668.571,580.646,668.557,580.656,668.541z"/>
			<g>
				<path fill="#727272" d="M579.501,625.403c0-0.032-0.005-0.062-0.011-0.095c-0.055-0.226-0.257-0.386-0.482-0.379
					c-0.129,0.004-0.249,0.061-0.337,0.149c-0.088,0.092-0.136,0.215-0.133,0.342c0.007,0.271,0.229,0.48,0.493,0.472
					c0.13-0.002,0.244-0.056,0.337-0.146C579.457,625.653,579.505,625.533,579.501,625.403z"/>
				<path fill="#727272" d="M595.916,663.946c0.004-0.019,0.109-0.45,0.275-1.151c-0.016-2.541-2.894-9.551-3.842-11.859
					c-0.256-0.618-0.304-0.741-0.312-0.791c-0.002-0.012-0.003-0.02-0.003-0.024l0.146-0.004l0.146-0.033
					c0.013,0.047,0.141,0.354,0.3,0.744c0.854,2.094,3.293,8.024,3.772,11.078c0.447-1.953,1.081-4.938,1.354-7.248
					c0.688-5.908,0.185-7.416-0.358-7.64c-0.127-0.053-0.243-0.051-0.354,0.013c-0.646,0.323-1.099,2.146-1.362,3.239
					c-0.021,0.086-0.04,0.16-0.061,0.238c0.307,0.168,0.588,0.312,0.823,0.4c0.723,0.27,0.845,0.159,0.845,0.156l0.277-0.09
					c0.021,0.063,0.023,0.202-0.082,0.307c-0.176,0.161-0.537,0.131-1.145-0.102c-0.458-0.175-1.043-0.515-1.661-0.871
					c-0.914-0.525-1.951-1.132-2.401-1.048c-0.216,0.039-0.359,0.139-0.46,0.289c-0.169,0.273-0.062,0.688,0.029,0.99
					c0.137,0.453,1.597,3.928,1.626,4.068v0.002c0.037,0.17,1.639,4.021,1.622,5.161c-0.019,1.343-0.685,4.933-3.346,5.394
					c-1.826,0.312-6.902,0.065-7.117,0.058c-0.25-0.007-2.506-0.067-3.017-0.668c-1.923-2.255-2.195-31.181-2.209-32.41
					c0-0.054-0.045-1.361,0.787-2.118c-0.134-2.996-0.227-5.02-0.234-5.212c-0.012-0.146-0.02-0.281-0.02-0.406
					c-0.003-0.582-0.005-0.803-1.078-0.809c-0.029-0.002-0.229-0.028-0.427,0.143c-0.212,0.182-0.464,0.623-0.459,1.678
					c0.001,0.342,0.021,1.631,0.048,3.531l1.01,37.846l-0.056,0.045c0.278,0.031,0.665,0.084,0.904,0.158
					c0.176,0.055,0.308,0.192,0.369,0.391c0.049,0.164,0.049,0.357,0.01,0.531c1.515-0.025,11.021-0.205,12.568-0.596
					C594.513,666.901,595.669,664.916,595.916,663.946z M579.038,626.188c-0.372,0.012-0.698-0.247-0.776-0.609
					c-0.01-0.045-0.016-0.095-0.018-0.146c-0.01-0.207,0.065-0.399,0.214-0.553c0.143-0.147,0.335-0.236,0.542-0.24
					c0.42-0.01,0.783,0.322,0.793,0.759c0.006,0.204-0.07,0.399-0.213,0.555C579.438,626.1,579.244,626.184,579.038,626.188z"/>
				<path fill="#727272" d="M579.692,632.141c0.003,0.308,0.281,30.06,2.14,32.229c0.354,0.424,2.139,0.555,2.795,0.565
					c0.057,0.005,5.245,0.263,7.039-0.051c2.449-0.422,3.053-3.91,3.065-5.1c0.019-1.004-1.435-4.479-1.641-4.973
					c-0.369-0.14-2.401-0.883-4.229-1.381l-0.501-0.138c-1.757-0.479-3.418-0.938-3.937-0.393c-0.015,0.014-0.015,0.049-0.014,0.063
					c0.041,0.982,4.345,5.127,4.933,5.637c0.303,0.263,3.729,3.787,3.307,4.949c-0.349,0.957-4.73,0.935-7.314,0.834
					c-0.664-0.022-2.683-0.225-3.27-0.778c-0.562-0.535-0.536-2.195-0.527-2.386c-0.017-0.264-0.884-20.635-1.325-30.795
					C579.661,631.117,579.691,632.127,579.692,632.141z"/>
				<path fill="#727272" d="M578.4,654.1c0.104,7.377,0.149,11.718,0.127,12.748l0.207-0.182L578.4,654.1z"/>
				<path fill="#727272" d="M579.973,667.477c-0.032-0.104-0.091-0.172-0.175-0.194c-0.37-0.115-1.171-0.183-1.18-0.185
					l-0.105-0.008c-0.175,0.646-0.13,0.959-0.067,0.979c0.343,0.104,1.312,0.173,1.438,0.011
					C579.979,667.957,580.039,667.686,579.973,667.477z"/>
				<path fill="#727272" d="M580.141,668.215c-0.038,0.002-0.063,0.002-0.083,0.002l-0.004-0.293c0.009,0,0.086-0.002,0.208-0.004
					c0.04-0.174,0.041-0.367-0.009-0.529c-0.062-0.196-0.193-0.338-0.368-0.391c-0.241-0.074-0.627-0.129-0.903-0.16l0.05-0.045
					l-1.005-37.846c-0.024-1.898-0.046-3.189-0.05-3.531c-0.004-1.055,0.247-1.494,0.461-1.676c0.197-0.173,0.396-0.146,0.424-0.145
					c1.074,0.009,1.077,0.227,1.081,0.809c0,0.125,0.002,0.262,0.017,0.406c0.016,0.192,0.104,2.216,0.233,5.214
					c-0.833,0.757-0.793,2.064-0.791,2.118c0.015,1.229,0.282,30.155,2.204,32.412c0.509,0.6,2.757,0.664,3.007,0.668
					c0.221,0.013,5.273,0.266,7.104-0.056c2.662-0.457,3.355-4.055,3.378-5.395c0.018-1.144-1.584-4.994-1.62-5.164l-0.001-0.002
					c0.001,0.002-0.062,0.02-0.062,0.021l-0.308,0.113c-0.011-0.023-0.067-0.129-0.137-0.3c-0.688-0.25-2.433-0.862-4.021-1.294
					l-0.504-0.139c-1.925-0.526-3.589-0.98-4.229-0.312c-0.068,0.07-0.104,0.168-0.097,0.284c0.062,1.229,4.98,5.8,5.03,5.843
					c0.252,0.217,1.159,1.176,1.936,2.157c1.351,1.724,1.352,2.304,1.291,2.474c-0.195,0.537-3.021,0.793-7.038,0.639
					c-0.852-0.028-2.617-0.27-3.069-0.699c-0.395-0.377-0.452-1.688-0.438-2.172c-0.062-1.453-1.521-35.58-1.58-36.434
					c-0.016-0.143-0.017-0.271-0.019-0.39c-0.003-0.696-0.064-1.091-1.347-1.097c-0.014-0.002-0.326-0.058-0.632,0.196
					c-0.384,0.322-0.575,0.965-0.57,1.91c0.001,0.651,0.064,4.76,0.146,9.959c0.178,11.637,0.477,31.114,0.397,31.629
					c-0.098,0.354-0.174,0.763-0.111,1.039c0.029,0.149,0.104,0.265,0.237,0.304c0.201,0.062,1.465,0.274,1.751-0.089
					C580.121,668.246,580.13,668.229,580.141,668.215z M581.533,661.229c-0.01,0.188-0.029,1.851,0.526,2.386
					c0.587,0.557,2.604,0.756,3.271,0.778c2.584,0.101,6.972,0.123,7.314-0.834c0.422-1.159-3.005-4.688-3.307-4.948
					c-0.588-0.511-4.896-4.652-4.937-5.638c-0.002-0.018-0.002-0.051,0.018-0.063c0.519-0.545,2.179-0.09,3.937,0.393l0.5,0.141
					c1.828,0.495,3.861,1.239,4.23,1.379c0.206,0.489,1.648,3.968,1.64,4.972c-0.017,1.188-0.615,4.678-3.069,5.1
					c-1.793,0.312-6.979,0.058-7.035,0.054c-0.655-0.019-2.438-0.146-2.799-0.568c-1.854-2.17-2.133-31.924-2.136-32.229
					c-0.001-0.013-0.03-1.021,0.521-1.705C580.653,640.594,581.521,660.965,581.533,661.229z M578.4,654.1l0.334,12.566
					l-0.207,0.182C578.551,665.812,578.504,661.477,578.4,654.1z M578.444,668.067c-0.062-0.021-0.104-0.334,0.067-0.979
					l0.104,0.008c0.01,0.002,0.81,0.066,1.181,0.185c0.084,0.022,0.143,0.09,0.175,0.194c0.066,0.209,0.005,0.48-0.092,0.604
					C579.753,668.24,578.783,668.17,578.444,668.067z"/>
				<path fill="#727272" d="M595.672,650.27c0.271-1.092,0.721-2.918,1.363-3.239c0.109-0.062,0.229-0.062,0.354-0.015
					c0.543,0.226,1.045,1.729,0.359,7.642c-0.271,2.311-0.901,5.295-1.354,7.246c0.061,0.344,0.085,0.649,0.087,0.909l-0.293,0.003
					c0-0.009,0-0.017,0-0.021c-0.168,0.699-0.272,1.135-0.276,1.152c-0.246,0.969-1.403,2.954-3.087,3.377
					c-1.555,0.389-11.061,0.566-12.566,0.596c-0.023,0.109-0.064,0.211-0.122,0.295c1.083-0.018,11.109-0.19,12.764-0.604
					c1.736-0.438,2.995-2.398,3.297-3.591c0.019-0.055,1.407-5.567,1.851-9.33c0.583-5.028,0.413-7.555-0.54-7.942
					c-0.207-0.086-0.41-0.078-0.604,0.021c-0.761,0.391-1.189,2.147-1.514,3.438c-0.014,0.059-0.025,0.104-0.04,0.162
					c0.09,0.051,0.179,0.1,0.265,0.145C595.633,650.43,595.651,650.354,595.672,650.27z"/>
				<path fill="#727272" d="M580.262,667.92c-0.122,0.002-0.198,0.004-0.208,0.004l0.004,0.293c0.021,0,0.046,0,0.083-0.002
					C580.196,668.131,580.238,668.031,580.262,667.92z"/>
				<path fill="#727272" d="M593.312,654.584l0.022,0.055c-0.059-0.133-1.424-3.627-1.562-4.08
					c-0.092-0.307-0.132-0.729,0.035-1.006c0.096-0.151,0.246-0.25,0.461-0.289c0.451-0.082,1.487,0.521,2.402,1.047
					c0.618,0.359,1.203,0.697,1.66,0.871c0.604,0.229,0.97,0.265,1.145,0.101c0.106-0.101,0.104-0.236,0.081-0.306l-0.28,0.093
					c-0.001,0-0.12,0.11-0.84-0.16c-0.237-0.09-0.521-0.232-0.828-0.4c-0.014,0.058-0.023,0.115-0.041,0.166l-0.278-0.071
					c0.019-0.07,0.038-0.156,0.06-0.236c-0.17-0.102-0.347-0.197-0.524-0.307c-1.052-0.605-2.044-1.185-2.604-1.082
					c-0.297,0.059-0.521,0.194-0.658,0.428c-0.216,0.354-0.166,0.811-0.108,1.077c0.021,0.066,0.031,0.127,0.047,0.161
					c0.115,0.396,1.104,2.925,1.447,3.812c0.188,0.064,0.307,0.105,0.312,0.11L593.312,654.584z"/>
				<path fill="#727272" d="M593.338,654.646c0,0-0.002-0.007-0.003-0.009l-0.022-0.056l-0.06-0.021
					c-0.005-0.004-0.118-0.045-0.311-0.107c0.064,0.166,0.107,0.278,0.116,0.301L593.338,654.646z"/>
				<path fill="#727272" d="M595.571,650.674c0.018-0.053,0.027-0.111,0.042-0.166c-0.088-0.047-0.176-0.096-0.267-0.146
					c-0.02,0.082-0.04,0.166-0.06,0.237L595.571,650.674z"/>
				<path fill="#727272" d="M592.627,650.824c-0.161-0.393-0.288-0.697-0.301-0.744l-0.146,0.033l-0.146,0.004
					c0,0.008,0,0.016,0.005,0.023c0.011,0.05,0.06,0.172,0.312,0.791c0.948,2.312,3.826,9.319,3.843,11.858
					c0.062-0.264,0.131-0.562,0.207-0.896C595.92,658.852,593.484,652.916,592.627,650.824z"/>
				<path fill="#727272" d="M596.196,662.812l0.294-0.004c-0.002-0.261-0.027-0.562-0.087-0.907
					c-0.07,0.329-0.146,0.632-0.206,0.896C596.196,662.801,596.196,662.807,596.196,662.812z"/>
				<path fill="#727272" d="M579.794,625.396c-0.011-0.438-0.374-0.77-0.794-0.757c-0.207,0.005-0.399,0.093-0.542,0.239
					c-0.146,0.15-0.223,0.347-0.214,0.554c0.002,0.054,0.008,0.104,0.018,0.146c0.078,0.363,0.405,0.619,0.776,0.609
					c0.207-0.007,0.396-0.091,0.543-0.238C579.723,625.799,579.799,625.604,579.794,625.396z M579.03,625.896
					c-0.261,0.008-0.481-0.196-0.487-0.473c-0.005-0.129,0.044-0.25,0.132-0.344s0.208-0.146,0.337-0.147
					c0.229-0.007,0.435,0.151,0.479,0.38c0.012,0.027,0.016,0.062,0.016,0.095c0.004,0.129-0.044,0.25-0.134,0.344
					C579.279,625.842,579.16,625.895,579.03,625.896z"/>
			</g>
		</g>
		<g id="Cadena">
			<path fill="#727272" d="M576.287,221.949c-2.307,0.344-1.312,3.678,0.156,3.439C578.364,225.082,577.585,221.756,576.287,221.949
				z"/>
			<path fill="#727272" d="M576.271,226.559c-2.312,0.342-1.312,3.674,0.149,3.439C578.348,229.689,577.567,226.363,576.271,226.559
				z"/>
			<path fill="#727272" d="M575.899,217.266c-2.312,0.342-1.312,3.676,0.149,3.439C577.975,220.398,577.195,217.074,575.899,217.266
				z"/>
			<path fill="#727272" d="M575.667,216.021"/>
			<path fill="#727272" d="M575.784,214.869c-1.041-0.455-0.396,2.926,0.267,3.197C576.913,218.424,576.366,215.125,575.784,214.869
				z"/>
			<path fill="#727272" d="M576.325,219.959c-0.965-0.598-0.812,2.842-0.191,3.205C576.938,223.641,576.868,220.295,576.325,219.959
				z"/>
			<path fill="#727272" d="M576.64,225.047c-0.965-0.598-0.806,2.842-0.188,3.205C577.251,228.729,577.18,225.385,576.64,225.047z"
				/>
			<path fill="#727272" d="M577.668,245.596c-2.319,0.234-1.478,3.611-0.003,3.445C579.596,248.824,578.973,245.465,577.668,245.596
				z"/>
			<path fill="#727272" d="M577.436,250.199c-2.314,0.232-1.479,3.609-0.004,3.441C579.363,253.424,578.74,250.066,577.436,250.199z
				"/>
			<path fill="#727272" d="M577.498,240.9c-2.318,0.232-1.479,3.609-0.005,3.441C579.426,244.125,578.803,240.768,577.498,240.9z"/>
			<path fill="#727272" d="M577.329,236.203c-2.32,0.234-1.48,3.611-0.006,3.443C579.257,239.43,578.633,236.07,577.329,236.203z"/>
			<path fill="#727272" d="M576.852,231.012c-2.312,0.234-1.478,3.611-0.003,3.445C578.779,234.238,578.156,230.879,576.852,231.012
				z"/>
			<path fill="#727272" d="M576.756,229.014c-1.017-0.504-0.529,2.904,0.115,3.207C577.717,232.617,577.325,229.295,576.756,229.014
				z"/>
			<path fill="#727272" d="M576.925,233.709c-1.017-0.504-0.528,2.904,0.116,3.207C577.888,237.312,577.494,233.992,576.925,233.709
				z"/>
			<path fill="#727272" d="M577.494,238.5c-1.016-0.504-0.528,2.904,0.118,3.207C578.456,242.104,578.065,238.783,577.494,238.5z"/>
			<path fill="#727272" d="M577.798,243.609c-0.935-0.643-0.938,2.801-0.342,3.191C578.237,247.314,578.322,243.971,577.798,243.609
				z"/>
			<path fill="#727272" d="M577.872,248.709c-0.935-0.645-0.935,2.799-0.341,3.189C578.312,252.414,578.398,249.068,577.872,248.709
				z"/>
			<path fill="#727272" d="M578.356,269.176c-2.323,0.199-1.535,3.586-0.062,3.443C580.233,272.434,579.661,269.064,578.356,269.176
				z"/>
			<path fill="#727272" d="M578.053,273.775c-2.322,0.199-1.535,3.588-0.061,3.443C579.93,277.031,579.359,273.662,578.053,273.775z
				"/>
			<path fill="#727272" d="M578.259,264.479c-2.314,0.197-1.534,3.586-0.056,3.443C580.137,267.734,579.566,264.367,578.259,264.479
				z"/>
			<path fill="#727272" d="M578.164,259.779c-2.323,0.197-1.535,3.588-0.058,3.443C580.041,263.037,579.472,259.668,578.164,259.779
				z"/>
			<path fill="#727272" d="M577.77,254.58c-2.316,0.199-1.529,3.588-0.058,3.445C579.646,257.838,579.075,254.469,577.77,254.58z"/>
			<path fill="#727272" d="M577.703,252.582c-1.01-0.52-0.573,2.895,0.062,3.207C578.609,256.201,578.27,252.873,577.703,252.582z"
				/>
			<path fill="#727272" d="M577.8,257.279c-1.01-0.52-0.573,2.896,0.064,3.207C578.707,260.898,578.365,257.57,577.8,257.279z"/>
			<path fill="#727272" d="M578.294,262.08c-1.007-0.521-0.572,2.893,0.067,3.207C579.201,265.697,578.861,262.369,578.294,262.08z"
				/>
			<path fill="#727272" d="M573.824,170.044c-2.308,0.344-1.312,3.678,0.156,3.439C575.901,173.177,575.122,169.851,573.824,170.044
				z"/>
			<path fill="#727272" d="M573.809,174.654c-2.311,0.342-1.312,3.674,0.15,3.439C575.885,177.784,575.104,174.458,573.809,174.654z
				"/>
			<path fill="#727272" d="M573.438,165.361c-2.312,0.342-1.312,3.676,0.149,3.439C575.512,168.493,574.732,165.169,573.438,165.361
				z"/>
			<path fill="#727272" d="M573.204,164.116"/>
			<path fill="#727272" d="M573.321,162.964c-1.041-0.455-0.396,2.926,0.267,3.197C574.45,166.519,573.903,163.22,573.321,162.964z"
				/>
			<path fill="#727272" d="M573.862,168.054c-0.966-0.598-0.812,2.842-0.191,3.205C574.475,171.736,574.405,168.39,573.862,168.054z
				"/>
			<path fill="#727272" d="M574.177,173.142c-0.965-0.598-0.806,2.842-0.188,3.205C574.788,176.824,574.717,173.479,574.177,173.142
				z"/>
			<path fill="#727272" d="M575.205,193.691c-2.319,0.234-1.479,3.611-0.003,3.445C577.133,196.919,576.51,193.56,575.205,193.691z"
				/>
			<path fill="#727272" d="M574.973,198.294c-2.314,0.232-1.479,3.609-0.004,3.441C576.9,201.519,576.277,198.161,574.973,198.294z"
				/>
			<path fill="#727272" d="M575.035,188.995c-2.318,0.232-1.479,3.609-0.005,3.441C576.963,192.22,576.34,188.863,575.035,188.995z"
				/>
			<path fill="#727272" d="M574.866,184.298c-2.32,0.234-1.48,3.611-0.006,3.443C576.794,187.525,576.17,184.165,574.866,184.298z"
				/>
			<path fill="#727272" d="M574.389,179.106c-2.312,0.234-1.478,3.611-0.003,3.445C576.316,182.333,575.693,178.974,574.389,179.106
				z"/>
			<path fill="#727272" d="M574.293,177.109c-1.017-0.504-0.529,2.904,0.115,3.207C575.254,180.712,574.862,177.39,574.293,177.109z
				"/>
			<path fill="#727272" d="M574.462,181.804c-1.017-0.504-0.528,2.904,0.116,3.207C575.425,185.407,575.031,182.087,574.462,181.804
				z"/>
			<path fill="#727272" d="M575.031,186.595c-1.017-0.504-0.528,2.904,0.118,3.207C575.993,190.199,575.604,186.878,575.031,186.595
				z"/>
			<path fill="#727272" d="M575.335,191.704c-0.935-0.643-0.938,2.801-0.342,3.191C575.774,195.409,575.859,192.066,575.335,191.704
				z"/>
			<path fill="#727272" d="M575.409,196.804c-0.936-0.645-0.936,2.799-0.341,3.189C575.85,200.509,575.936,197.163,575.409,196.804z
				"/>
			<path fill="#727272" d="M575.796,212.574c-2.314,0.197-1.534,3.586-0.056,3.443C577.674,215.829,577.104,212.462,575.796,212.574
				z"/>
			<path fill="#727272" d="M575.701,207.874c-2.323,0.197-1.535,3.588-0.059,3.443C577.578,211.132,577.009,207.763,575.701,207.874
				z"/>
			<path fill="#727272" d="M575.307,202.675c-2.316,0.199-1.529,3.588-0.058,3.445C577.184,205.933,576.612,202.563,575.307,202.675
				z"/>
			<path fill="#727272" d="M575.24,200.677c-1.01-0.52-0.573,2.896,0.062,3.207C576.146,204.296,575.807,200.968,575.24,200.677z"/>
			<path fill="#727272" d="M575.337,205.374c-1.01-0.52-0.573,2.896,0.064,3.207C576.244,208.993,575.902,205.665,575.337,205.374z"
				/>
			<path fill="#727272" d="M575.831,210.175c-1.007-0.521-0.572,2.893,0.067,3.207C576.738,213.792,576.398,210.464,575.831,210.175
				z"/>
			<path fill="#727272" d="M568.556,119.618c-1.442,1.832,1.566,3.578,2.473,2.396C572.216,120.475,569.368,118.588,568.556,119.618
				z"/>
			<path fill="#727272" d="M571.346,123.188c-2.311,0.342-1.312,3.674,0.15,3.439C573.422,126.317,572.642,122.992,571.346,123.188z
				"/>
			<path fill="#727272" d="M564.471,120.297c0.664,2.241,3.825,0.781,3.385-0.634C567.278,117.8,564.099,119.041,564.471,120.297z"
				/>
			<path fill="#727272" d="M559.689,120.297c0.664,2.241,3.824,0.781,3.384-0.634C562.497,117.8,559.317,119.041,559.689,120.297z"
				/>
			<path fill="#727272" d="M570.741,112.649"/>
			<path fill="#727272" d="M562.086,120.035c-0.541,1,2.882,0.64,3.208,0.001C565.723,119.206,562.39,119.476,562.086,120.035z"/>
			<path fill="#727272" d="M566.771,119.697c-0.748,0.854,2.67,1.269,3.13,0.716C570.504,119.699,567.192,119.217,566.771,119.697z"
				/>
			<path fill="#727272" d="M570.669,121.332c-1.101-0.274,0.104,2.953,0.803,3.108C572.378,124.65,571.287,121.488,570.669,121.332z
				"/>
			<path fill="#727272" d="M572.742,142.225c-2.319,0.234-1.479,3.611-0.003,3.445C574.67,145.453,574.047,142.093,572.742,142.225z
				"/>
			<path fill="#727272" d="M572.51,146.828c-2.314,0.232-1.479,3.609-0.004,3.441C574.438,150.052,573.814,146.694,572.51,146.828z"
				/>
			<path fill="#727272" d="M572.572,137.528c-2.318,0.232-1.479,3.609-0.005,3.441C574.5,140.753,573.877,137.396,572.572,137.528z"
				/>
			<path fill="#727272" d="M572.403,132.832c-2.32,0.234-1.48,3.611-0.006,3.443C574.331,136.059,573.707,132.698,572.403,132.832z"
				/>
			<path fill="#727272" d="M571.926,127.64c-2.312,0.234-1.478,3.611-0.003,3.445C573.854,130.867,573.23,127.507,571.926,127.64z"
				/>
			<path fill="#727272" d="M571.83,125.643c-1.018-0.504-0.529,2.904,0.115,3.207C572.791,129.246,572.399,125.923,571.83,125.643z"
				/>
			<path fill="#727272" d="M571.999,130.337c-1.017-0.504-0.528,2.904,0.116,3.207C572.962,133.94,572.568,130.621,571.999,130.337z
				"/>
			<path fill="#727272" d="M572.568,135.128c-1.017-0.504-0.528,2.904,0.117,3.207C573.53,138.732,573.14,135.412,572.568,135.128z"
				/>
			<path fill="#727272" d="M572.872,140.237c-0.935-0.643-0.938,2.801-0.342,3.191C573.312,143.942,573.396,140.6,572.872,140.237z"
				/>
			<path fill="#727272" d="M572.946,145.337c-0.936-0.645-0.936,2.799-0.341,3.189C573.387,149.042,573.473,145.696,572.946,145.337
				z"/>
			<path fill="#727272" d="M573.333,161.107c-2.315,0.197-1.534,3.586-0.056,3.443C575.211,164.362,574.641,160.996,573.333,161.107
				z"/>
			<path fill="#727272" d="M573.238,156.407c-2.323,0.197-1.535,3.588-0.059,3.443C575.115,159.666,574.546,156.296,573.238,156.407
				z"/>
			<path fill="#727272" d="M572.844,151.208c-2.316,0.199-1.529,3.588-0.058,3.445C574.721,154.466,574.149,151.097,572.844,151.208
				z"/>
			<path fill="#727272" d="M572.777,149.21c-1.011-0.52-0.573,2.895,0.062,3.207C573.684,152.83,573.344,149.501,572.777,149.21z"/>
			<path fill="#727272" d="M572.874,153.907c-1.01-0.521-0.573,2.896,0.064,3.207C573.781,157.526,573.439,154.198,572.874,153.907z
				"/>
			<path fill="#727272" d="M573.368,158.708c-1.007-0.521-0.572,2.893,0.066,3.207C574.275,162.326,573.936,158.998,573.368,158.708
				z"/>
			<path fill="#727272" d="M578.518,267.193c-0.926-0.658-0.979,2.783-0.393,3.184C578.898,270.904,579.037,267.562,578.518,267.193
				z"/>
			<path fill="#727272" d="M578.513,272.291c-0.924-0.656-0.979,2.785-0.392,3.186C578.896,276.002,579.032,272.66,578.513,272.291z
				"/>
			<path fill="#727272" d="M578.59,293.146c-2.327,0.15-1.604,3.557-0.13,3.441C580.398,296.441,579.896,293.062,578.59,293.146z"/>
			<path fill="#727272" d="M578.19,297.738c-2.327,0.146-1.61,3.555-0.135,3.438C579.999,301.031,579.5,297.652,578.19,297.738z"/>
			<path fill="#727272" d="M578.591,288.447c-2.327,0.146-1.604,3.555-0.131,3.438C580.398,291.742,579.898,288.363,578.591,288.447
				z"/>
			<path fill="#727272" d="M578.593,283.748c-2.329,0.15-1.604,3.555-0.13,3.441C580.401,287.043,579.9,283.664,578.593,283.748z"/>
			<path fill="#727272" d="M578.304,278.543c-2.328,0.148-1.604,3.553-0.127,3.439C580.113,281.838,579.611,278.459,578.304,278.543
				z"/>
			<path fill="#727272" d="M578.278,276.543c-0.996-0.541-0.634,2.881,0,3.207C579.11,280.178,578.839,276.844,578.278,276.543z"/>
			<path fill="#727272" d="M578.278,281.24c-0.997-0.539-0.634,2.883-0.001,3.209C579.109,284.877,578.838,281.543,578.278,281.24z"
				/>
			<path fill="#727272" d="M578.675,286.049c-1-0.539-0.636,2.881-0.001,3.209C579.505,289.686,579.235,286.352,578.675,286.049z"/>
			<path fill="#727272" d="M578.791,291.168c-0.91-0.678-1.037,2.762-0.457,3.176C579.096,294.885,579.302,291.547,578.791,291.168z
				"/>
			<path fill="#727272" d="M578.683,296.264c-0.911-0.676-1.04,2.766-0.458,3.178C578.986,299.982,579.194,296.643,578.683,296.264z
				"/>
			<path fill="#727272" d="M578.088,317.062c-2.329,0.15-1.604,3.555-0.128,3.441C579.898,320.355,579.396,316.977,578.088,317.062z
				"/>
			<path fill="#727272" d="M578.089,312.361c-2.326,0.146-1.604,3.555-0.129,3.439C579.899,315.656,579.396,312.277,578.089,312.361
				z"/>
			<path fill="#727272" d="M578.089,307.662c-2.326,0.148-1.604,3.555-0.128,3.439C579.899,310.957,579.398,307.576,578.089,307.662
				z"/>
			<path fill="#727272" d="M577.804,302.457c-2.327,0.148-1.605,3.553-0.129,3.441C579.611,305.752,579.11,302.373,577.804,302.457z
				"/>
			<path fill="#727272" d="M577.778,300.455c-0.998-0.539-0.641,2.883,0,3.211C578.61,304.092,578.339,300.76,577.778,300.455z"/>
			<path fill="#727272" d="M577.776,305.156c-0.997-0.541-0.64,2.883,0,3.207C578.607,308.793,578.337,305.457,577.776,305.156z"/>
			<path fill="#727272" d="M578.173,309.963c-0.997-0.541-0.634,2.883,0,3.211C579.003,313.602,578.733,310.266,578.173,309.963z"/>
			<path fill="#727272" d="M578.29,315.082c-0.911-0.68-1.04,2.762-0.458,3.174C578.594,318.801,578.803,315.461,578.29,315.082z"/>
			<path fill="#727272" d="M578.137,319.732c-0.911-0.68-1.04,2.764-0.458,3.176C578.44,323.451,578.649,320.111,578.137,319.732z"
				/>
			<path fill="#727272" d="M577.922,321.31c-2.318,0.234-1.478,3.611-0.003,3.445C579.85,324.538,579.227,321.178,577.922,321.31z"
				/>
			<path fill="#727272" d="M577.689,325.913c-2.315,0.232-1.479,3.609-0.005,3.441C579.617,329.137,578.994,325.779,577.689,325.913
				z"/>
			<path fill="#727272" d="M578.126,324.422c-0.935-0.645-0.935,2.799-0.341,3.189C578.566,328.127,578.652,324.781,578.126,324.422
				z"/>
			<path fill="#727272" d="M578.61,344.889c-2.323,0.199-1.535,3.586-0.062,3.443C580.487,348.147,579.915,344.777,578.61,344.889z"
				/>
			<path fill="#727272" d="M578.307,349.488c-2.321,0.199-1.534,3.588-0.061,3.443C580.184,352.745,579.613,349.375,578.307,349.488
				z"/>
			<path fill="#727272" d="M578.513,340.192c-2.314,0.197-1.534,3.586-0.056,3.443C580.391,343.447,579.82,340.081,578.513,340.192z
				"/>
			<path fill="#727272" d="M578.418,335.492c-2.323,0.197-1.535,3.588-0.058,3.443C580.295,338.75,579.726,335.381,578.418,335.492z
				"/>
			<path fill="#727272" d="M578.023,330.293c-2.317,0.199-1.53,3.588-0.059,3.445C579.9,333.551,579.329,330.182,578.023,330.293z"
				/>
			<path fill="#727272" d="M577.957,328.295c-1.01-0.52-0.573,2.895,0.062,3.207C578.863,331.915,578.523,328.586,577.957,328.295z"
				/>
			<path fill="#727272" d="M578.054,332.992c-1.01-0.52-0.572,2.896,0.064,3.207C578.961,336.611,578.619,333.283,578.054,332.992z"
				/>
			<path fill="#727272" d="M578.548,337.793c-1.007-0.521-0.572,2.893,0.067,3.207C579.455,341.411,579.115,338.083,578.548,337.793
				z"/>
			<path fill="#727272" d="M578.771,342.906c-0.927-0.658-0.979,2.783-0.394,3.184C579.152,346.617,579.291,343.275,578.771,342.906
				z"/>
			<path fill="#727272" d="M578.767,348.004c-0.924-0.656-0.979,2.785-0.392,3.186C579.15,351.715,579.286,348.374,578.767,348.004z
				"/>
			<path fill="#727272" d="M578.844,368.859c-2.327,0.15-1.604,3.557-0.13,3.441C580.652,372.154,580.15,368.775,578.844,368.859z"
				/>
			<path fill="#727272" d="M578.444,373.452c-2.327,0.146-1.61,3.555-0.135,3.438C580.253,376.745,579.754,373.365,578.444,373.452z
				"/>
			<path fill="#727272" d="M578.845,364.161c-2.327,0.146-1.604,3.555-0.131,3.438C580.652,367.456,580.152,364.077,578.845,364.161
				z"/>
			<path fill="#727272" d="M578.847,359.461c-2.329,0.15-1.604,3.555-0.13,3.441C580.655,362.756,580.154,359.377,578.847,359.461z"
				/>
			<path fill="#727272" d="M578.558,354.256c-2.327,0.148-1.604,3.553-0.127,3.439C580.367,357.551,579.865,354.172,578.558,354.256
				z"/>
			<path fill="#727272" d="M578.532,352.256c-0.996-0.541-0.634,2.881,0,3.207C579.364,355.891,579.093,352.557,578.532,352.256z"/>
			<path fill="#727272" d="M578.532,356.954c-0.997-0.539-0.634,2.883-0.001,3.209C579.363,360.59,579.092,357.256,578.532,356.954z
				"/>
			<path fill="#727272" d="M578.929,361.762c-1-0.539-0.636,2.881-0.001,3.209C579.759,365.399,579.489,362.065,578.929,361.762z"/>
			<path fill="#727272" d="M579.045,366.881c-0.91-0.678-1.037,2.762-0.457,3.176C579.35,370.598,579.556,367.26,579.045,366.881z"
				/>
			<path fill="#727272" d="M578.938,371.978c-0.911-0.676-1.04,2.766-0.459,3.178C579.24,375.695,579.448,372.356,578.938,371.978z"
				/>
			<path fill="#727272" d="M578.342,392.775c-2.329,0.15-1.604,3.555-0.128,3.441C580.152,396.068,579.65,392.69,578.342,392.775z"
				/>
			<path fill="#727272" d="M578.343,388.074c-2.326,0.146-1.604,3.555-0.129,3.439C580.153,391.37,579.65,387.99,578.343,388.074z"
				/>
			<path fill="#727272" d="M578.343,383.375c-2.326,0.148-1.604,3.555-0.128,3.439C580.153,386.67,579.652,383.29,578.343,383.375z"
				/>
			<path fill="#727272" d="M578.058,378.17c-2.327,0.148-1.605,3.553-0.129,3.441C579.865,381.465,579.364,378.086,578.058,378.17z"
				/>
			<path fill="#727272" d="M578.032,376.168c-0.998-0.539-0.641,2.883,0,3.211C578.864,379.805,578.593,376.473,578.032,376.168z"/>
			<path fill="#727272" d="M578.03,380.87c-0.997-0.541-0.64,2.883,0,3.207C578.861,384.506,578.591,381.17,578.03,380.87z"/>
			<path fill="#727272" d="M578.427,385.676c-0.997-0.541-0.634,2.883,0,3.211C579.257,389.315,578.987,385.979,578.427,385.676z"/>
			<path fill="#727272" d="M578.544,390.795c-0.911-0.68-1.04,2.762-0.458,3.174C578.848,394.514,579.057,391.174,578.544,390.795z"
				/>
			<path fill="#727272" d="M578.391,395.445c-0.91-0.68-1.04,2.764-0.458,3.176C578.694,399.165,578.903,395.824,578.391,395.445z"
				/>
			<path fill="#727272" d="M578.075,396.727c-2.319,0.234-1.479,3.611-0.003,3.445C580.003,399.955,579.38,396.595,578.075,396.727z
				"/>
			<path fill="#727272" d="M577.843,401.33c-2.314,0.23-1.479,3.607-0.004,3.439C579.771,404.555,579.146,401.196,577.843,401.33z"
				/>
			<path fill="#727272" d="M578.279,399.839c-0.936-0.645-0.936,2.799-0.342,3.189C578.72,403.545,578.806,400.198,578.279,399.839z
				"/>
			<path fill="#727272" d="M578.764,420.307c-2.322,0.199-1.535,3.586-0.062,3.443C580.641,423.564,580.068,420.194,578.764,420.307
				z"/>
			<path fill="#727272" d="M578.46,424.905c-2.322,0.198-1.535,3.588-0.061,3.441C580.337,428.162,579.767,424.793,578.46,424.905z"
				/>
			<path fill="#727272" d="M578.666,415.609c-2.315,0.196-1.534,3.586-0.056,3.442C580.544,418.864,579.974,415.498,578.666,415.609
				z"/>
			<path fill="#727272" d="M578.571,410.909c-2.323,0.197-1.535,3.589-0.059,3.442C580.448,414.168,579.879,410.799,578.571,410.909
				z"/>
			<path fill="#727272" d="M578.177,405.711c-2.316,0.198-1.53,3.588-0.058,3.444C580.054,408.969,579.482,405.6,578.177,405.711z"
				/>
			<path fill="#727272" d="M578.11,403.713c-1.011-0.521-0.573,2.896,0.062,3.207C579.017,407.332,578.677,404.004,578.11,403.713z"
				/>
			<path fill="#727272" d="M578.207,408.409c-1.01-0.521-0.573,2.896,0.064,3.207C579.114,412.028,578.771,408.7,578.207,408.409z"
				/>
			<path fill="#727272" d="M578.701,413.211c-1.007-0.521-0.572,2.893,0.066,3.207C579.608,416.828,579.269,413.5,578.701,413.211z"
				/>
			<path fill="#727272" d="M578.925,418.323c-0.926-0.657-0.979,2.783-0.393,3.185C579.306,422.034,579.444,418.692,578.925,418.323
				z"/>
			<path fill="#727272" d="M578.92,423.422c-0.924-0.656-0.979,2.785-0.392,3.187C579.304,427.133,579.439,423.791,578.92,423.422z"
				/>
			<path fill="#727272" d="M578.997,444.276c-2.327,0.148-1.605,3.558-0.13,3.439C580.806,447.571,580.304,444.192,578.997,444.276z
				"/>
			<path fill="#727272" d="M578.598,448.869c-2.326,0.145-1.609,3.555-0.134,3.438C580.406,452.162,579.907,448.782,578.598,448.869
				z"/>
			<path fill="#727272" d="M578.998,439.578c-2.327,0.145-1.604,3.555-0.131,3.438C580.806,442.873,580.306,439.494,578.998,439.578
				z"/>
			<path fill="#727272" d="M579,434.879c-2.329,0.149-1.604,3.555-0.13,3.44C580.809,438.174,580.308,434.795,579,434.879z"/>
			<path fill="#727272" d="M578.711,429.674c-2.328,0.147-1.604,3.553-0.127,3.438C580.521,432.969,580.019,429.59,578.711,429.674z
				"/>
			<path fill="#727272" d="M578.686,427.674c-0.995-0.541-0.634,2.881,0,3.207C579.518,431.309,579.246,427.975,578.686,427.674z"/>
			<path fill="#727272" d="M578.686,432.371c-0.996-0.539-0.634,2.883-0.001,3.209C579.517,436.008,579.245,432.674,578.686,432.371
				z"/>
			<path fill="#727272" d="M579.082,437.18c-1-0.539-0.636,2.881-0.001,3.209C579.912,440.816,579.643,437.482,579.082,437.18z"/>
			<path fill="#727272" d="M579.198,442.299c-0.91-0.678-1.037,2.762-0.457,3.176C579.503,446.016,579.709,442.678,579.198,442.299z
				"/>
			<path fill="#727272" d="M579.09,447.395c-0.911-0.676-1.04,2.767-0.458,3.179C579.394,451.112,579.602,447.773,579.09,447.395z"
				/>
			<path fill="#727272" d="M578.495,468.192c-2.329,0.148-1.604,3.556-0.128,3.439C580.306,471.485,579.804,468.107,578.495,468.192
				z"/>
			<path fill="#727272" d="M578.496,463.491c-2.326,0.146-1.604,3.556-0.129,3.438C580.307,466.787,579.804,463.407,578.496,463.491
				z"/>
			<path fill="#727272" d="M578.496,458.793c-2.326,0.147-1.604,3.555-0.128,3.438C580.307,462.088,579.806,458.707,578.496,458.793
				z"/>
			<path fill="#727272" d="M578.211,453.588c-2.327,0.147-1.605,3.553-0.129,3.44C580.019,456.883,579.518,453.504,578.211,453.588z
				"/>
			<path fill="#727272" d="M578.186,451.586c-0.998-0.539-0.64,2.883,0,3.211C579.018,455.223,578.746,451.891,578.186,451.586z"/>
			<path fill="#727272" d="M578.184,456.287c-0.996-0.541-0.639,2.883,0,3.207C579.015,459.924,578.744,456.588,578.184,456.287z"/>
			<path fill="#727272" d="M578.58,461.094c-0.997-0.541-0.634,2.883,0,3.211C579.41,464.732,579.141,461.396,578.58,461.094z"/>
			<path fill="#727272" d="M578.697,466.213c-0.911-0.681-1.04,2.762-0.458,3.174C579.001,469.932,579.21,466.592,578.697,466.213z"
				/>
			<path fill="#727272" d="M578.544,470.862c-0.911-0.682-1.04,2.765-0.458,3.177C578.848,474.582,579.057,471.241,578.544,470.862z
				"/>
			<path fill="#727272" d="M578.408,472.439c-2.319,0.233-1.479,3.61-0.003,3.444C580.336,475.668,579.713,472.309,578.408,472.439z
				"/>
			<path fill="#727272" d="M578.176,477.043c-2.314,0.231-1.479,3.608-0.004,3.44C580.104,480.268,579.48,476.909,578.176,477.043z"
				/>
			<path fill="#727272" d="M578.612,475.553c-0.936-0.646-0.936,2.799-0.341,3.188C579.053,479.258,579.139,475.911,578.612,475.553
				z"/>
			<path fill="#727272" d="M579.097,496.02c-2.322,0.199-1.534,3.587-0.062,3.443C580.974,499.277,580.401,495.907,579.097,496.02z"
				/>
			<path fill="#727272" d="M578.793,500.618c-2.322,0.199-1.535,3.588-0.061,3.441C580.67,503.875,580.1,500.506,578.793,500.618z"
				/>
			<path fill="#727272" d="M578.999,491.322c-2.315,0.196-1.534,3.586-0.056,3.442C580.877,494.577,580.307,491.211,578.999,491.322
				z"/>
			<path fill="#727272" d="M578.904,486.622c-2.323,0.197-1.535,3.589-0.059,3.443C580.781,489.881,580.212,486.512,578.904,486.622
				z"/>
			<path fill="#727272" d="M578.51,481.424c-2.316,0.198-1.529,3.588-0.058,3.444C580.387,484.682,579.815,481.312,578.51,481.424z"
				/>
			<path fill="#727272" d="M578.443,479.426c-1.011-0.521-0.573,2.896,0.062,3.207C579.35,483.045,579.01,479.717,578.443,479.426z"
				/>
			<path fill="#727272" d="M578.54,484.122c-1.01-0.521-0.573,2.896,0.063,3.207C579.447,487.741,579.105,484.413,578.54,484.122z"
				/>
			<path fill="#727272" d="M579.034,488.924c-1.007-0.521-0.572,2.894,0.066,3.207C579.941,492.541,579.602,489.213,579.034,488.924
				z"/>
			<path fill="#727272" d="M579.258,494.036c-0.926-0.657-0.979,2.783-0.393,3.185C579.639,497.747,579.777,494.405,579.258,494.036
				z"/>
			<path fill="#727272" d="M579.253,499.135c-0.924-0.656-0.979,2.785-0.392,3.187C579.637,502.846,579.771,499.504,579.253,499.135
				z"/>
			<path fill="#727272" d="M579.33,519.989c-2.327,0.148-1.605,3.558-0.13,3.439C581.139,523.284,580.637,519.905,579.33,519.989z"
				/>
			<path fill="#727272" d="M578.931,524.582c-2.327,0.145-1.609,3.555-0.134,3.438C580.739,527.875,580.24,524.495,578.931,524.582z
				"/>
			<path fill="#727272" d="M579.331,515.291c-2.327,0.145-1.604,3.555-0.131,3.438C581.139,518.586,580.639,515.207,579.331,515.291
				z"/>
			<path fill="#727272" d="M579.333,510.592c-2.329,0.149-1.604,3.556-0.13,3.44C581.142,513.887,580.641,510.508,579.333,510.592z"
				/>
			<path fill="#727272" d="M579.044,505.387c-2.328,0.147-1.604,3.554-0.127,3.438C580.854,508.682,580.352,505.303,579.044,505.387
				z"/>
			<path fill="#727272" d="M579.019,503.387c-0.995-0.541-0.634,2.881,0,3.207C579.851,507.021,579.579,503.688,579.019,503.387z"/>
			<path fill="#727272" d="M579.019,508.084c-0.997-0.539-0.634,2.883-0.001,3.209C579.85,511.721,579.578,508.387,579.019,508.084z
				"/>
			<path fill="#727272" d="M579.415,512.893c-1-0.539-0.636,2.882-0.001,3.209C580.245,516.529,579.976,513.195,579.415,512.893z"/>
			<path fill="#727272" d="M579.531,518.012c-0.91-0.678-1.037,2.763-0.457,3.177C579.836,521.729,580.042,518.391,579.531,518.012z
				"/>
			<path fill="#727272" d="M579.423,523.107c-0.911-0.677-1.04,2.766-0.458,3.178C579.727,526.825,579.935,523.486,579.423,523.107z
				"/>
			<path fill="#727272" d="M578.828,543.905c-2.329,0.148-1.604,3.556-0.128,3.439C580.639,547.198,580.137,543.82,578.828,543.905z
				"/>
			<path fill="#727272" d="M578.829,539.204c-2.326,0.146-1.604,3.556-0.129,3.438C580.64,542.5,580.137,539.12,578.829,539.204z"/>
			<path fill="#727272" d="M578.829,534.506c-2.326,0.147-1.604,3.555-0.128,3.438C580.64,537.801,580.139,534.42,578.829,534.506z"
				/>
			<path fill="#727272" d="M578.544,529.301c-2.327,0.147-1.606,3.553-0.129,3.44C580.352,532.596,579.851,529.217,578.544,529.301z
				"/>
			<path fill="#727272" d="M578.519,527.299c-0.997-0.539-0.64,2.883,0,3.211C579.351,530.936,579.079,527.604,578.519,527.299z"/>
			<path fill="#727272" d="M578.517,532c-0.997-0.541-0.639,2.883,0,3.207C579.348,535.637,579.077,532.301,578.517,532z"/>
			<path fill="#727272" d="M578.913,536.807c-0.997-0.541-0.634,2.884,0,3.211C579.743,540.445,579.474,537.109,578.913,536.807z"/>
			<path fill="#727272" d="M579.03,541.926c-0.911-0.681-1.04,2.763-0.458,3.174C579.334,545.645,579.543,542.305,579.03,541.926z"
				/>
			<path fill="#727272" d="M578.877,546.575c-0.911-0.682-1.04,2.765-0.458,3.177C579.181,550.295,579.39,546.954,578.877,546.575z"
				/>
			<path fill="#727272" d="M578.741,548.152c-2.319,0.233-1.479,3.61-0.003,3.444C580.669,551.381,580.046,548.021,578.741,548.152z
				"/>
			<path fill="#727272" d="M578.509,552.756c-2.314,0.231-1.479,3.608-0.004,3.44C580.438,555.98,579.812,552.622,578.509,552.756z"
				/>
			<path fill="#727272" d="M578.945,551.266c-0.936-0.646-0.936,2.8-0.342,3.188C579.386,554.971,579.472,551.624,578.945,551.266z"
				/>
			<path fill="#727272" d="M579.43,571.732c-2.322,0.198-1.535,3.586-0.062,3.442C581.307,574.99,580.734,571.62,579.43,571.732z"/>
			<path fill="#727272" d="M579.126,576.331c-2.322,0.199-1.535,3.588-0.061,3.442C581.003,579.588,580.433,576.219,579.126,576.331
				z"/>
			<path fill="#727272" d="M579.332,567.035c-2.315,0.197-1.534,3.586-0.056,3.442C581.21,570.29,580.64,566.924,579.332,567.035z"
				/>
			<path fill="#727272" d="M579.237,562.335c-2.323,0.197-1.535,3.589-0.059,3.443C581.114,565.594,580.545,562.225,579.237,562.335
				z"/>
			<path fill="#727272" d="M578.843,557.137c-2.316,0.198-1.53,3.588-0.058,3.444C580.72,560.395,580.148,557.025,578.843,557.137z"
				/>
			<path fill="#727272" d="M578.776,555.139c-1.011-0.521-0.573,2.896,0.062,3.207C579.683,558.758,579.343,555.43,578.776,555.139z
				"/>
			<path fill="#727272" d="M578.873,559.835c-1.01-0.521-0.573,2.896,0.064,3.207C579.78,563.454,579.438,560.126,578.873,559.835z"
				/>
			<path fill="#727272" d="M579.367,564.637c-1.007-0.521-0.572,2.894,0.066,3.207C580.274,568.254,579.935,564.926,579.367,564.637
				z"/>
			<path fill="#727272" d="M579.591,569.749c-0.926-0.657-0.979,2.783-0.393,3.185C579.972,573.46,580.11,570.118,579.591,569.749z"
				/>
			<path fill="#727272" d="M579.586,574.848c-0.924-0.655-0.979,2.785-0.392,3.187C579.97,578.559,580.105,575.217,579.586,574.848z
				"/>
			<path fill="#727272" d="M579.663,595.702c-2.327,0.148-1.605,3.558-0.13,3.439C581.472,598.997,580.97,595.618,579.663,595.702z"
				/>
			<path fill="#727272" d="M579.264,600.295c-2.327,0.146-1.609,3.555-0.134,3.438C581.072,603.588,580.573,600.208,579.264,600.295
				z"/>
			<path fill="#727272" d="M579.664,591.004c-2.327,0.146-1.604,3.555-0.131,3.438C581.472,594.299,580.972,590.92,579.664,591.004z
				"/>
			<path fill="#727272" d="M579.666,586.305c-2.329,0.149-1.604,3.556-0.13,3.44C581.475,589.6,580.974,586.221,579.666,586.305z"/>
			<path fill="#727272" d="M579.377,581.1c-2.328,0.147-1.604,3.554-0.127,3.438C581.188,584.395,580.685,581.016,579.377,581.1z"/>
			<path fill="#727272" d="M579.352,579.1c-0.995-0.541-0.634,2.881,0,3.207C580.184,582.734,579.912,579.4,579.352,579.1z"/>
			<path fill="#727272" d="M579.352,583.797c-0.996-0.539-0.634,2.883-0.001,3.209C580.183,587.434,579.911,584.1,579.352,583.797z"
				/>
			<path fill="#727272" d="M579.748,588.605c-1-0.539-0.636,2.881-0.001,3.209C580.578,592.242,580.309,588.908,579.748,588.605z"/>
			<path fill="#727272" d="M579.864,593.725c-0.91-0.678-1.037,2.763-0.457,3.177C580.169,597.441,580.375,594.104,579.864,593.725z
				"/>
			<path fill="#727272" d="M579.756,598.82c-0.911-0.677-1.04,2.766-0.458,3.178C580.06,602.538,580.268,599.199,579.756,598.82z"/>
			<path fill="#727272" d="M579.161,619.618c-2.329,0.148-1.604,3.556-0.128,3.439C580.972,622.911,580.47,619.533,579.161,619.618z
				"/>
			<path fill="#727272" d="M579.162,614.917c-2.326,0.146-1.604,3.556-0.129,3.438C580.973,618.213,580.47,614.833,579.162,614.917z
				"/>
			<path fill="#727272" d="M579.162,610.219c-2.326,0.147-1.604,3.556-0.128,3.438C580.973,613.514,580.472,610.133,579.162,610.219
				z"/>
			<path fill="#727272" d="M578.877,605.014c-2.327,0.147-1.605,3.554-0.129,3.44C580.685,608.309,580.184,604.93,578.877,605.014z"
				/>
			<path fill="#727272" d="M578.852,603.012c-0.998-0.539-0.64,2.883,0,3.211C579.684,606.648,579.412,603.316,578.852,603.012z"/>
			<path fill="#727272" d="M578.85,607.713c-0.997-0.541-0.639,2.883,0,3.207C579.681,611.35,579.41,608.014,578.85,607.713z"/>
			<path fill="#727272" d="M579.246,612.52c-0.997-0.541-0.634,2.884,0,3.212C580.076,616.158,579.807,612.822,579.246,612.52z"/>
			<path fill="#727272" d="M579.363,617.639c-0.911-0.681-1.04,2.763-0.458,3.174C579.667,621.357,579.876,618.018,579.363,617.639z
				"/>
			<path fill="#727272" d="M579.21,622.288c-0.911-0.681-1.04,2.765-0.458,3.177C579.514,626.008,579.723,622.667,579.21,622.288z"
				/>
		</g>
		<g id="Barco_Petit">
			<g id="Capa_22_copia">
				<path fill="#36627A" d="M261.205,110.559c-1.159,0.243-4.863,8.264-3.69,14.596c1.176,6.332,4.553,20.998,6.495,23.414
					c1.944,2.416,4.38,6.738,4.38,6.738s-8.572,4.605-9.938,7.619c0,0,0.003,1.234,1.05,1.07c1.047-0.166,10.188-0.664,10.618,0.363
					c0.43,1.027,1.264,6.35,1.402,7.045c0.14,0.697-0.245,3.842-0.377,4.971c-0.055,0.469-2.859,4.979-2.346,6
					c0.519,1.02,4.314,1.057,6.43,1.006c2.114-0.047,13.387-7.602,14.959-8.99c1.574-1.389,2.013-18.191,2.013-18.191
					s-3.206-21.963-2.419-22.008c0.788-0.045,6.105-2.185,7.812-4.164c1.708-1.979,1.074-11.553,0.266-13.082
					C297.044,115.416,278.587,106.893,261.205,110.559z"/>
				<path fill="#6C808C" d="M269.825,171.16c0,0,1.826-0.371,1.931-0.143c0.105,0.229,0.505,0.861,0.419,2.082
					c-0.087,1.219,0.381,2.773-0.581,2.889c-0.962,0.116-1.624,0.119-1.624,0.119s-1.604,3.959-4.077,5.156
					c-2.472,1.199-4.135,0.791-2.615-0.777c1.518-1.568,4.374-3.412,4.101-4.055c-0.271-0.641-5.061,0.014-5.061,0.014l0.043-3.871
					c0,0,3.661-0.352,3.843-0.285s1.562-0.955,0.514-1.406c-1.048-0.453-5.559,0.006-4.839-1.592c0.72-1.598,0.545-1.584,2.25-1.797
					c1.706-0.217,3.886,0.625,4.855,1.797C269.95,170.461,269.825,171.16,269.825,171.16z"/>
			</g>
			<g>
				<path fill="#FF0000" d="M366.764,161.756l-17.229-14.418l-72.279-4.105c22.562-4.639,65.307-11.428,128.987-15.354
					c45.75-2.818,84.082-3.113,101.812-2.215c32.237,1.636,53.927-0.238,59.435-0.799c-0.937,0.591-2.312,1.523-3.146,2.297
					c-0.633,0.585-1.189,1.38-1.971,2.479c-1.57,2.227-3.969,5.443-9.271,10.443l-0.528,0.482
					c-35.386,17.242-83.356,22.322-117.806,23.301C398.275,164.906,368.305,161.916,366.764,161.756z"/>
				<path d="M407.061,104.033c-0.308-0.624-0.555-1.092-0.752-1.444c-0.1-0.175-0.188-0.321-0.264-0.444
					c-0.384-0.611-0.51-0.613-0.586-0.615l-0.219,0.136c-0.104,0.196-0.219,0.407-0.354,0.626c-0.089,0.146-0.184,0.297-0.284,0.451
					c-0.052,0.076-0.104,0.154-0.151,0.232c-1.396,2.027-3.713,4.411-5.104,4.045c-0.664-0.176-1.062-0.625-1.222-1.379
					c-0.021-0.088-0.033-0.18-0.045-0.274c-0.01-0.097-0.021-0.195-0.021-0.3c-0.087-2.688,2.311-7.956,5.458-11.315
					c0.485-0.517,0.988-0.988,1.502-1.398c0.286-0.229,0.611-0.46,0.953-0.656c0.551-0.314,1.146-0.539,1.7-0.511
					c0.208,0.01,0.411,0.056,0.606,0.146c0.309,0.142,0.514,0.383,0.627,0.734c0.071,0.232,0.104,0.498,0.104,0.784
					c-0.021,2.007-1.729,5.062-1.752,5.097l-0.127,0.228l2.789,0.803L407.061,104.033z M407.404,94.106
					c-0.008-0.307-0.084-0.561-0.256-0.733c-0.033-0.035-0.071-0.066-0.113-0.094c-0.104-0.069-0.229-0.104-0.357-0.104
					c-0.092,0-0.188,0.02-0.299,0.059c-0.749,0.267-1.826,1.429-2.91,2.919l-0.049-0.057l-0.049-0.058l-0.948,1.649
					c-0.471,0.733-0.921,1.495-1.321,2.235c-0.67,1.234-1.203,2.408-1.473,3.29c-0.152,0.502-0.22,0.907-0.203,1.216
					c0.004,0.077,0.02,0.148,0.029,0.215c0.043,0.195,0.135,0.34,0.271,0.434c0.062,0.039,0.132,0.059,0.204,0.059
					c0.854,0,3.619-3.349,4.769-4.986c0.041-0.061,0.082-0.118,0.12-0.175c0.069-0.111,0.142-0.212,0.19-0.3
					c0.061-0.088,0.104-0.165,0.129-0.226c0.035-0.054,0.076-0.121,0.129-0.202c0.053-0.079,0.104-0.171,0.166-0.274
					C406.111,97.846,407.436,95.458,407.404,94.106z"/>
				<path fill="#3FA9F5" d="M433.268,95.044c-1.104,0.152-4.979,0.782-8.344,1.418c-0.214,0.04-0.426,0.081-0.636,0.123
					c-0.11,0.021-0.218,0.043-0.327,0.064c-0.461,0.092-0.906,0.187-1.33,0.282c-0.133,0.029-0.262,0.059-0.389,0.089
					c-0.32,0.075-0.625,0.15-0.909,0.224c-0.114,0.031-0.226,0.061-0.333,0.092c-0.023,0.004-0.053,0.011-0.088,0.019
					c-1.035,0.231-6.941,1.606-7.822,3.136c-0.029,0.051-0.053,0.092-0.07,0.144c-0.516,1.481-1.773,9.768-1.98,11.616h-3.53
					l-1.235-3.121l0.479-4.433l0.187-0.088l0,0l0,0c-0.011-0.021-0.021-0.041-0.027-0.062c-0.011-0.021-0.021-0.042-0.029-0.064
					l3.062-5.382l0.048,0.013l0,0l0,0l0.059-0.197l0.045-0.078l0.078-0.138l4.573-9.622l0.701-0.246l0.7-0.246L418.2,77.37
					c0.101,0,0.24-0.001,0.414-0.001c1.198,0,5.201,0.034,6.351,0.47C425.924,78.211,430.556,88.419,433.268,95.044z"/>
				<path d="M405.172,98.3c0.021,0,0.035-0.004,0.049-0.007c0.039-0.008,0.073-0.03,0.104-0.055
					c-0.201,0.351-0.405,0.692-0.604,1.006c-0.108,0.224-0.328,0.557-0.604,0.949c-0.046-0.106-0.062-0.223-0.063-0.327
					c-0.002-0.174,0.033-0.313,0.034-0.317l0.062-0.213l-1.957-0.414l0.816-1.429c0.158-0.235,0.316-0.465,0.479-0.69
					C404.676,98.174,405.031,98.304,405.172,98.3z"/>
				<path d="M405.27,99.246c-0.051,0.081-0.092,0.148-0.127,0.202c-0.025,0.062-0.068,0.137-0.129,0.226
					c-0.055,0.089-0.121,0.189-0.19,0.3c-0.038,0.056-0.078,0.114-0.12,0.175c-1.146,1.637-3.91,4.986-4.769,4.986
					c-0.071,0-0.146-0.02-0.199-0.059c-0.146-0.094-0.231-0.237-0.274-0.434c-0.016-0.065-0.025-0.139-0.029-0.215
					c-0.017-0.309,0.057-0.712,0.203-1.216c0.271-0.882,0.805-2.056,1.479-3.29c0.396-0.74,0.852-1.502,1.315-2.235l0.948-1.649
					l0.049,0.058l0.049,0.057c1.083-1.49,2.16-2.652,2.91-2.92c0.106-0.038,0.207-0.059,0.299-0.059
					c0.139,0,0.257,0.036,0.357,0.105c0.042,0.028,0.08,0.06,0.113,0.094c0.172,0.173,0.247,0.427,0.256,0.733
					c0.028,1.351-1.293,3.74-1.972,4.865C405.374,99.074,405.318,99.167,405.27,99.246z M399.992,103.331
					c-0.324,1.069-0.188,1.331-0.13,1.383c0.687-0.128,2.749-2.493,3.979-4.158c-0.225-0.296-0.229-0.67-0.195-0.903l-1.762-0.371
					C401.051,100.72,400.34,102.182,399.992,103.331z M403.01,97.493l-0.818,1.429l1.953,0.414l-0.061,0.212
					c-0.002,0.003-0.037,0.144-0.035,0.317c0.001,0.104,0.021,0.221,0.063,0.327c0.274-0.392,0.495-0.725,0.604-0.949
					c0.198-0.315,0.402-0.655,0.604-1.006c-0.03,0.025-0.064,0.046-0.104,0.055c-0.014,0.002-0.023,0.006-0.049,0.007
					c-0.141,0.004-0.496-0.127-1.688-1.497C403.326,97.028,403.168,97.258,403.01,97.493z M406.807,93.622
					c-0.029-0.023-0.078-0.035-0.129-0.035c-0.578,0-1.733,1.216-2.943,2.873c0.52,0.595,1.102,1.2,1.354,1.38
					c0.146-0.214,0.411-0.299,0.636-0.325C406.65,95.781,407.355,93.988,406.807,93.622z"/>
				<path fill="#FFFFFF" stroke="#FFFFFF" stroke-miterlimit="10" d="M276.08,140.248l0.097-0.062l-0.067-5.701l3.56-2.174
					l15.577,0.274l0.036-0.015l6.453-2.385l0.272-13.308l11.646-2.842l24.897-0.069l1.312-2.411l21.094-1.172l0.138-2.137
					l4.39-0.446l-0.397-0.314c-0.006-0.006-0.618-0.496-0.604-1.092c0.012-0.347,0.229-0.678,0.661-0.982
					c0.32-0.227,1.264-0.496,3.908-0.496c2.433,0,5.4,0.219,7.57,0.379c1.07,0.079,1.918,0.143,2.412,0.158
					c1.479,0.045,3.122,1.162,4.017,2.176c0.55,0.623,0.842,1.234,0.802,1.664c-0.132,1.377-0.354,1.709-1.346,1.895l0.062,0.438
					l14.562-1.38l8.99-0.847l1.229,3.16h3.894l0.021-0.468c0.021-0.097,1.455-10.041,1.992-11.584
					c0.42-1.207,5.693-2.617,7.69-3.054c3.521-0.988,10.872-2.021,12.221-2.205l0.021,0.05l0.146-0.014
					c0.003,0,0.289-0.026,0.688-0.026c1.127,0,1.943,0.186,2.312,0.521c0.4,0.368,0.404,1.106,0.407,1.82
					c0.003,0.616,0.005,1.197,0.235,1.628c0.479,0.886,4.566,7.8,4.741,8.093l0.062,0.094l0.104,0.007
					c0.604,0.035,59.928,3.542,73.164,5.171c1.025,0.126,2.195,0.245,3.477,0.424c20.027,2.821,48.084,8.233,48.084,8.233
					c2.172,0.038,3.027,0.72,3.105,1.293c0.07,0.53-0.479,1.062-1.379,1.325c-0.029,0.014-0.629,0.322-1.455,0.81
					c-3.639,0.399-25.598,2.571-59.9,0.832c-17.741-0.899-56.135-0.545-101.896,2.274c-65.203,4.019-105.442,10.434-127.718,15.105
					l-0.976,0.205c-1.848-0.025-2.505-0.209-2.59-0.312c-0.029-0.055-0.068-0.111-0.109-0.166c-0.097-0.131-0.145-0.203-0.123-0.305
					C273.645,141.943,274.464,141.268,276.08,140.248z"/>
				<path fill="#FFFFFF" stroke="#FFFFFF" stroke-miterlimit="10" d="M366.172,161.91l0.062,0.006
					c0.249,0.025,21.624,2.256,51.063,2.256c5.101,0,10.437-0.066,15.94-0.223c34.302-0.975,82.51-5.727,117.91-22.773
					c-0.1,0.088-0.186,0.17-0.273,0.256c-1.221,1.127-2.434,2.324-3.721,3.588c-8.133,8.006-18.254,17.971-44.363,25.562
					c-6.008,1.746-12.438,2.561-20.247,2.561c-6.688,0-13.548-0.18-20.811-0.809c-7.977-0.688-16.216-1.4-25.028-1.4
					c-1.354,0-2.705,0.018-4.016,0.051c-1.324,0.035-2.875,0.053-4.61,0.053c-34.329,0-138.903-7.182-143.244-7.461l-7.757-19.859
					l71.914,3.771L366.172,161.91z"/>
			</g>
		</g>
		<g id="_x31__1_">
			<path fill="#996234" d="M386.464,112.224c0,0-1.389-1.615-1.084-3.516c0.304-1.9,0.729-2.871,1.897-3.205
				c1.166-0.334,2.748-0.488,3.068-0.322c0.325,0.164,4.262,1.724,5.157,2.035c0.898,0.312,3.354,1.934,3.402,2.682
				c0.054,0.748,0.191,0.99,0.498,1.72c0.304,0.729,0.766,4.028,0.766,4.028l-5.934,0.656c0,0,0.062-2.317-0.373-2.475
				c-0.438-0.156-6.233-0.748-6.627-0.971C386.849,112.634,386.464,112.224,386.464,112.224z"/>
			<path fill="#EF45B7" d="M364.492,102.968c0,0-0.312-2.938-0.438-2.938s4.117-0.25,5.125-1c1.25-0.931,8.125-0.875,8.125-0.875
				l4.562,4.188l5.265,3.96c0,0-1.515,4.979-2.265,4.979c-0.354,0-4.108-3.402-7.5-3.5c-3.783-0.109-4.062,2.062-3.188,6.75
				c0.165,0.886-7.812-4.438-7.812-4.438s-1.506-1.125-1.879-3.125C364.117,104.968,364.492,102.968,364.492,102.968z"/>
			<path fill="#996234" d="M373.554,72.843c0.188,0.062,1.562-1.625,1.5-2.188c-0.062-0.563-0.623-0.938-0.75-0.938
				c-0.125,0-1.438-1.562-0.75-2.25c0.688-0.688-1.5-3.5-0.688-4.875c0.812-1.375,1.812-3.5,3.688-4.25s3.062-1.375,4-0.625
				c0.938,0.75,3.188,2.875,3.25,3.688c0.062,0.813,0.438,2.375,0,4.062c-0.438,1.687-0.438,1.938-0.5,3.75
				c-0.062,1.812-0.875,2.941-1.438,3.627c-0.562,0.686-0.312,1.623-1.375,1.873c-1.063,0.25,0.25,1.938-0.25,2.562
				c-0.5,0.624-6.375-0.938-6.25-3.375C374.05,72.758,373.554,72.843,373.554,72.843z"/>
			<path fill="#301705" d="M373.742,70.405c0,0-1.062,0-0.938-0.875s0.354-2.375-0.011-2.75s-1.489-1.062-1.114-2.125
				c0.375-1.063,0.812-1.688,0.562-2.688s0-1.812,0.812-2.312c0.812-0.5,1.445-0.375,2.379-0.812c0.938-0.437,1.688-1.5,2.746-1.688
				c1.062-0.188,2.312-0.938,3.188,0c0.876,0.938,1.5,0.938,1.75,1.562s-0.062-0.062,0.312,1.438s1.125,1.812,0.625,2.625
				c-0.5,0.812-0.938-0.688-1.375-0.75c-0.438-0.062-0.188-0.75-1.375,0c-1.187,0.75-0.75,0.5-2.5,0.125s-2.688-1.375-3.221,0.438
				c-0.53,1.813-0.222,1.5,0,2.938c0.221,1.438,0,2.062,0,2.062s-0.093-0.688-0.779-0.562c-0.688,0.126-0.812,0.25-0.75,1
				c0.062,0.75,0.438,1.625,0.312,1.875S373.742,70.405,373.742,70.405z"/>
			<path fill="#996234" d="M382.367,84.655c0,0,4.125,6.75,5.188,7.375c1.063,0.625,3.25,1.875,4.062,2.062
				c0.812,0.187,5.938,1,8.125,0.875c2.187-0.125,2.562-0.786,3.375,0.013c0.812,0.799,1.188,1.362,1.5,0.737
				c0.312-0.625,0.125-0.75,0-1.688s0-1.438,0.875-1.562s2.213,0.875,1.854-0.25c-0.354-1.125-0.229-1.625-1.668-1.5
				c-1.438,0.125-1.688,1.188-2.688,1.312c-1,0.124-1.438,0.125-3.188-0.125s-6.688-3.188-7.75-3.25
				c-1.062-0.062-1.125-0.875-1.812-1.562c-0.688-0.687-3.438-4.062-3.438-4.062"/>
			<path fill="#8BC7E8" d="M364.054,88.093c0.25-3.5,1.5-9.062,3.625-11.5c2.125-2.438,2.75-2.375,4.312-3.062
				c1.562-0.688,2.375-0.5,2.375-0.5s0.082,2.5,1.354,2.938c1.271,0.438,4.271,1.25,4.459,0.75c0.188-0.5-0.25-0.818,0.125-1.253
				c0.375-0.435,1-1.622,1.438-1.372c0.438,0.25,2.625,1.124,2.875,2.25c0.25,1.126,0.5,2.625,1.125,3.5s1,2.25,1,2.25
				s0.188,0.5,0.375,1.062c0.188,0.562-1.625,0.5-2.812,2.812c-1.188,2.312-2.5-1.312-2.5-1.312s1.438-0.938,0.125,1.062
				c0,0-2,3.062-2.125,3.5c-0.125,0.438-0.625,1.562-0.562,2.688c0.062,1.126,0.688,2.312,0.562,3.5
				c-0.126,1.188,0.025,2.25-1.457,2.812c-1.479,0.562-3.104,0.438-4.918,0.625c-1.812,0.188-4.048,0.089-4.875,0.812
				c-0.828,0.724-1.625,0.125-2.625,0.375s-1.062,0.875-1.875,0c-0.812-0.875,0.479-3.625,0.271-4.25
				c-0.206-0.625-0.75-2-0.541-4.062C363.993,89.656,364.054,88.093,364.054,88.093z"/>
			<path fill="#996234" d="M371.278,92.31c0,0,1.327,4.356,2.067,5.185c0.743,0.828,1.934,2.749,2.562,3.494
				c0.632,0.745,6.228,6.482,6.896,6.979c0.678,0.5,3.922,3.351,3.922,3.351l4.598-0.528c0,0-3.045-3.261-4.543-4.855
				s-6.453-7.729-6.735-8.285c-0.283-0.557-1.894-2.235-2.328-3.009c-0.436-0.774-0.508-2.373-0.868-3.832
				c-0.359-1.459-0.981-3.345-0.981-3.345s-5.778-0.694-5.955,0.671C369.735,89.501,371.278,92.31,371.278,92.31z"/>
			<path fill="#996234" d="M374.304,114.468c0,0-1.271-1.707-0.834-3.582c0.438-1.875,0.937-2.812,2.12-3.062
				c1.188-0.25,2.775-0.292,3.089-0.104c0.312,0.188,4.125,2.021,5,2.396s3.205,2.167,3.205,2.917s0.125,1,0.375,1.75
				s0.562,2.875,0.562,2.875l-6.002,0.636c0,0,0.183-1.511-0.245-1.698c-0.431-0.188-6.167-1.188-6.542-1.438
				S374.304,114.468,374.304,114.468z"/>
			<path fill="#996234" d="M380.82,120.515"/>
		</g>
		<polygon id="La_mar_10_m" opacity="0.6" fill="#39BCC4" enable-background="new    " points="-4.02,157.193 807.5,157.595 
			808.48,804.258 -3.038,803.855 		"/>
	</g>
	<g id="La_Mar">
		<g>
			<path fill="#D8BD80" d="M800.557,739.949c-37.881,6.85-61.196,5.146-88.212,5.051c-24.051-0.033-33.146-4.85-75.376-8.055
				c-26.088-0.787-46.714,0.008-74.345,1.416c-20.113,1.021-66.365,3.424-87.148,0.191c-39.55-10.771-139.626-8.536-184.812-1.551
				c-45.187,6.986-25.674-4.301-54.43-3.225c-28.755,1.068-24.134,5.375-38.512,1.605c-14.377-3.762-20.67-15.181-32.92-13.012
				c-1.388,0.829,0.264,7.501-30.5-8.625c-10.783-5.652-23.201-5.499-30.875-5.625c-7.625-0.125-24.619,3.904-34.375-3.625
				c-11.25-6.604-43.828,16.413-55.125,22.857C2.63,733.811-3,730.024-3,730.024l1.75,72.226l802.232,1L800.557,739.949z"/>
		</g>
	</g>
</g>
</svg>
