<?xml version="1.0" encoding="utf-8"?>
<!-- Generator: Adobe Illustrator 16.0.0, SVG Export Plug-In . SVG Version: 6.00 Build 0)  -->
<!DOCTYPE svg PUBLIC "-//W3C//DTD SVG 1.1//EN" "http://www.w3.org/Graphics/SVG/1.1/DTD/svg11.dtd">
<svg version="1.1" id="_x33_._Clau_dedins" xmlns="http://www.w3.org/2000/svg" xmlns:xlink="http://www.w3.org/1999/xlink" x="0px"
	 y="0px" width="800px" height="800px" viewBox="0 0 800 800" enable-background="new 0 0 800 800" xml:space="preserve">
<g id="Caixa">
	<path fill="#AAAAAA" d="M-455,358.023V64.524l400.906-1088.535c0,0,828.371-349.382,883.598-337.419
		c58.751,12.732,499.788,284.493,530.372,463.268c35.283-9.409,51.586,28.225,65.697,68.217l298.808,2657.265L527.429,2010.08
		L-455,358.023z"/>
	<path fill="#EAEAEA" d="M842.026-732.036c0,0,225.686-578.104-31.276-634.613c-256.96-56.51-369.007-80.007-369.007-80.007
		s-238.442-101.335-513.596,408.531L842.026-732.036z"/>
	<polygon fill="#C4C4C4" points="527,2010.08 527,581.446 -455,64.524 -455,1438.511 	"/>
	<polygon fill="#C9C9C9" points="526.226,581.446 842.026,-732.036 -71.853,-1038.125 -507.938,150.679 	"/>
</g>
<polygon fill="#0F0F0F" points="229.758,172.014 216.706,168.329 214.343,175.145 175.314,183.07 157.716,236.009 194.567,277.89 
	249.016,266.834 266.611,213.896 "/>
<polygon fill="#303030" points="181.515,274.205 144.664,232.323 162.263,179.385 216.706,168.329 253.559,210.209 235.964,263.149 
	"/>
<g id="Cordó_2_">
	<g>
		<path d="M164.494,205.09c-1.462,3.013-2.494,6.023-2.494,9.715v-0.003l-0.702,0.201c-0.433,1.924-1.074,3.171-1.272,5.14
			L150.264,278h-0.011c-2.053,9,1.545,22.312,9.961,28.438c8.479,6.169,18.769,5.061,24.865-2.434l37.158-37.647
			c1.447-1.247,3.032-3.686,4.307-5.213l0.307-1.145h-0.01c2.162-3,3.426-3.993,4.887-7.005c8.387-17.266,4.528-39.062-7.333-53.728
			l-8.473,17.62c2.593,6.058,2.391,12.878-0.35,18.525c-2.745,5.646-7.714,8.932-13.024,9.257l-9.501,19.245
			c-2.738,5.076-8.65,6.532-13.393,3.078c-4.743-3.452-7.467-10.824-5.181-16.093l9.529-19.318c-2.6-6.046-2.365-12.809,0.42-18.55
			c2.788-5.74,7.703-9.039,13.297-9.155l8.68-17.193C190.308,180.724,172.916,187.75,164.494,205.09z M174.614,277.399
			c4.181,3.042,6.113,8.823,4.915,13.827c-0.198,0.83-0.483,1.638-0.857,2.409c-2.118,4.365-6.476,6.198-10.638,4.895
			c-1.007-0.315-2.002-0.813-2.952-1.504c-4.874-3.545-6.688-10.815-4.057-16.235C163.658,275.373,169.741,273.854,174.614,277.399z
			"/>
	</g>
</g>
<g id="Cordó">
	<path fill="none" stroke="#FF0000" stroke-width="10" stroke-linecap="round" stroke-miterlimit="10" d="M90.938,993.795
		c0,20.646,69.367,28.531,69.316,9.912c-0.042-15.183-69.147-13.689-70.422,12.438c-1.474,30.234,68.21,26.013,70.422,7.579
		c1.944-16.208-69.316-9.329-68.925,14.372"/>
	<path fill="none" stroke="#FF0000" stroke-width="10" stroke-linecap="round" stroke-miterlimit="10" d="M91.31,1071.307
		c0,20.648,69.034,29.618,68.983,10.998c-0.029-9.719-68.258-11.306-69.652,8.077c-1.104,15.354,71.81,22.737,71.81,3.206
		c0-19.821-54.799-6.697-55.537,35.334"/>
	<path fill="none" stroke="#FF0000" stroke-width="10" stroke-linecap="round" stroke-miterlimit="10" d="M90.938,1035.773
		c-5.575,29.539,69.367,35.72,69.316,17.101c-0.043-15.62-66.565-16.603-67.896,10.688c-1.476,30.232,67.989,16.976,67.935,7.744
		c-0.085-14.186-68.518-24.262-68.983,0"/>
	<path fill="none" stroke="#FF0000" stroke-width="10" stroke-linecap="round" stroke-miterlimit="10" d="M87.989,685.424
		c0,20.648,69.367,35.213,69.315,16.593c-0.053-18.567-67.84-9.954-69.315,20.277c-1.475,30.232,67.104,33.921,69.315,15.487
		c2.212-18.436-68.577-26.666-69.315,15.364"/>
	<path fill="none" stroke="#FF0000" stroke-width="10" stroke-linecap="round" stroke-miterlimit="10" d="M87.989,622.109
		c0,20.646,69.367,35.213,69.315,16.593c-0.053-18.567-67.84-15.783-69.315,14.448c-1.475,30.232,67.104,33.92,69.315,15.484
		c2.212-18.434-68.577-23.03-69.315,19.003"/>
	<path fill="none" stroke="#FF0000" stroke-width="10" stroke-linecap="round" stroke-miterlimit="10" d="M87.989,552.966
		c0,20.648,69.367,35.21,69.315,16.591c-0.053-18.566-67.84-13.451-69.315,16.782c-1.475,30.231,67.104,33.918,69.315,15.483
		c2.212-18.434-68.577-19.53-69.315,22.501"/>
	<path fill="none" stroke="#FF0000" stroke-width="10" stroke-linecap="round" stroke-miterlimit="10" d="M87.989,555.18
		c0.738-42.033,71.54-39.633,69.328-21.198c-2.212,18.435-70.803,9.946-69.328-20.286c1.475-30.233,70.428-30.685,70.481-12.116
		c0.052,18.62-63.188-3.372-63.188-24.02c0,0-4.388-13.489,17.462-28.141c14.888-9.985,17.89-35.887,16.74-39.683
		c-3.965-13.082,22.089-136.167,42.214-126.02c26.425,13.325-26.604,61.739-28.611,91.355c0.624,4.326-4.141,55.214-4.141,55.214"/>
	<path fill="none" stroke="#FF0000" stroke-width="10" stroke-linecap="round" stroke-miterlimit="10" d="M87.989,940.393
		c0,20.648,69.419,27.324,69.368,8.702c-0.053-18.567-67.916-16.045-69.392,14.188c-1.475,30.232,68.646,30.485,70.858,12.048
		c2.211-18.434-67.148-23.568-67.886,18.464"/>
	<path fill="none" stroke="#FF0000" stroke-width="10" stroke-linecap="round" stroke-miterlimit="10" d="M87.989,878.451
		c0,20.648,69.367,35.211,69.315,16.592c-0.053-18.568-67.84-18.804-69.315,11.43c-1.475,30.234,67.104,33.92,69.315,15.484
		c1.099-9.152-68.739-12.207-69.315,20.648"/>
	<path fill="none" stroke="#FF0000" stroke-width="10" stroke-linecap="round" stroke-miterlimit="10" d="M87.989,816.51
		c0,20.648,69.367,35.211,69.315,16.593c-0.053-18.567-67.84-18.804-69.315,11.429c-1.475,30.234,67.104,33.92,69.315,15.486
		c2.212-18.435-68.577-21.386-69.315,20.646"/>
	<path fill="none" stroke="#FF0000" stroke-width="10" stroke-linecap="round" stroke-miterlimit="10" d="M87.965,750.563
		c0,20.649,69.39,36.197,69.338,17.577c-0.053-18.566-67.84-15.784-69.315,14.45c-1.475,30.232,67.104,33.919,69.315,15.484
		c2.212-18.435-68.577-21.383-69.315,20.646"/>
</g>
<path fill="#EAEAEA" d="M148.351,403.672c-0.305,1.914-1.678,3.288-3.068,3.067l-22.889-3.628c-1.39-0.222-2.27-1.953-1.967-3.869
	l4.472-28.194c0.303-1.916,1.676-3.29,3.067-3.069l22.887,3.63c1.391,0.217,2.271,1.952,1.968,3.867L148.351,403.672z"/>
<g id="Botó_1_">
	<path fill="#C41A1A" d="M204,205.223v-0.011l0.383-0.103c-0.401-0.166-0.45-0.339-0.869-0.476c-0.238-0.079-0.31-0.122-0.546-0.19
		l-17.152-5.934l-4.069,13.952c-1.558,2.072-2.813,4.443-3.678,7.084c-1.026,3.137-1.354,6.309-1.127,9.344l-3.575,12.141
		l15.567,5.328c0.377,0.151,0.743,0.313,1.135,0.442c0.234,0.079,0.476,0.124,0.714,0.191l0.297,0.099l0.008-0.019
		c10.149,2.673,20.376-3.916,24.061-15.184C218.766,220.825,215,209.273,204,205.223z"/>
	<path fill="#E81C1C" d="M199.138,226.119c3.808-11.643-1.554-23.847-11.979-27.255c-10.426-3.409-21.958,3.27-25.765,14.911
		c-3.807,11.648,1.553,23.849,11.978,27.255C183.798,244.439,195.332,237.764,199.138,226.119z"/>
</g>
<g>
	<path fill="#212121" d="M471.26,242.931l0.009-0.018l-0.349-0.16c-1.531-0.783-3.103-1.51-4.717-2.174l-15.246-7.024l-1.312,2.759
		c-29.774-3.409-59.664,15.06-70.948,46.053c-9.614,26.413-3.027,54.542,14.598,72.514l-1.627,3.419l17.064,8.085
		c1.609,0.851,3.263,1.643,4.972,2.357l0.102,0.047l0.003-0.006c0.871,0.362,1.746,0.717,2.64,1.041
		c33.936,12.356,72.054-6.772,85.139-42.721C513.681,293.887,500.156,257.95,471.26,242.931z"/>
	
		<ellipse transform="matrix(0.9397 0.3421 -0.3421 0.9397 127.5789 -127.5513)" fill="#3D3D3D" cx="425.42" cy="297.933" rx="65.39" ry="69.269"/>
	<g id="Clau">
		<polygon fill="#898989" points="435.586,287.87 379.965,269.109 372.186,290.82 427.807,309.58 		"/>
		<path fill="#E8E8E8" d="M381.561,227.165c0,0-2.187,0.009-8.387-2.211c-13.761-4.93-16.489,4.185-16.489,4.185l-26.861,76.815
			c-4.693,13.421,2.134,18.337,17.035,23.602c3.263,1.153,5.181-49.196,5.181-49.196
			C366.535,238.91,381.561,227.165,381.561,227.165z M401.366,237.631"/>
		<path fill="#C9C9C9" d="M408.413,280.793c0.971-3.208,3.511-2.275,6.78-23.991c3.272-21.716-7.333-22.208-7.333-22.208
			s-27.269-6.124-33.419-8.457c-6.156-2.333-9.013,7.015-9.013,7.015l-26.862,76.817c-4.691,13.42,1.881,16.569,1.881,16.569
			s15.685,8.094,30.711,12.988c15.029,4.893,20.645-14.095,20.645-14.095S407.062,285.22,408.413,280.793z M367.107,287.404
			c-4.832,1.906-8.852-1.546-8.983-7.709c-0.129-6.165,3.681-12.705,8.508-14.61c4.83-1.905,8.855,1.548,8.982,7.71
			C375.746,278.958,371.938,285.499,367.107,287.404z"/>
		<path fill="#E8E8E8" d="M372.702,274.376c-0.82,5.786-5.157,10.889-9.682,11.393c-2.153,0.241-3.947-1.15-4.638-3.738
			c1.014,5.2,4.647,6.287,7.839,5.971c6.508-0.646,9.846-6.23,10.756-12.661c0.914-6.428-3.714-11.607-8.949-10.623
			c-0.207,0.039-0.412,0.069-0.622,0.108C371.121,265.265,373.436,269.216,372.702,274.376z"/>
		<path fill="#707070" d="M416.1,255.497c3.271-21.718-8.264-21.76-8.264-21.76s-27.26-6.124-33.418-8.458
			c-6.15-2.333-9.007,7.016-9.007,7.016L338.55,309.11c-4.691,13.42,0.374,17.599,0.374,17.599s16.807,8.95,31.834,13.843
			c15.026,4.893,22.381-16.186,22.381-16.186S412.829,277.213,416.1,255.497z M392.131,319.894c0,0-6.614,18.967-20.137,14.566
			c-13.52-4.403-28.643-12.458-28.643-12.458s-4.559-3.76-0.338-15.835l24.172-69.12c0,0,2.571-8.413,8.106-6.314
			c5.536,2.102,30.068,7.612,30.068,7.612s10.376,0.037,7.435,19.579S392.131,319.894,392.131,319.894z"/>
	</g>
</g>
<path d="M171.265,298.918c0,0,11.61-0.981,7.501-16.175c-0.177-0.735,0.234-2.368,0.296-2.368s9.687,5.25,9.687,5.25l-6.064,20.82
	c0,0-4.096,4.851-14.329,3.64S171.265,298.918,171.265,298.918z"/>
</svg>
