<?xml version="1.0" encoding="utf-8"?>
<!-- Generator: Adobe Illustrator 16.0.0, SVG Export Plug-In . SVG Version: 6.00 Build 0)  -->
<!DOCTYPE svg PUBLIC "-//W3C//DTD SVG 1.1//EN" "http://www.w3.org/Graphics/SVG/1.1/DTD/svg11.dtd">
<svg version="1.1" id="Capa_2" xmlns="http://www.w3.org/2000/svg" xmlns:xlink="http://www.w3.org/1999/xlink" x="0px" y="0px"
	 width="800px" height="800px" viewBox="0 0 800 800" enable-background="new 0 0 800 800" xml:space="preserve">
<g id="Caixa_2_">
	<path fill="#C4C4C4" d="M114.044,619.027v-95.076l130.328-352.615c0,0,268.569-113.177,286.458-109.302
		c19.032,4.124,162.015,92.156,171.922,150.069c11.427-3.047,16.768,9.143,21.336,22.098l98.977,944.105l-341.428,140.195
		L114.044,619.027z"/>
	<polygon fill="#DDDDDD" points="432.819,691.402 535.117,265.919 239.08,166.767 114.492,523.953 	"/>
	<path fill="#EAEAEA" d="M535.117,265.919c0,0,73.107-187.268-10.132-205.574C441.747,42.039,405.45,34.428,405.45,34.428
		S328.212,1.602,239.077,166.765L535.117,265.919z"/>
	<polygon fill="#CECECE" points="427.522,1399.873 432.483,691.402 114.044,523.953 114.044,1214.721 	"/>
</g>
<path display="none" fill="#D8D8D8" d="M225.78,810.857c0,0-0.105-0.178-0.285-0.494c-1.845-3.262-11.618-21.521,5.237-14.746
	l24.575,15.24c0,0,7.618,6.855,4.381,10.859c-3.239,3.998-5.716,4.381-8.954,3.234c-3.239-1.143,3.237,11.049-3.62,14.479
	c-6.859,3.43-5.715,1.143-4.382,6.67c1.335,5.525,1.907,27.811,1.144,28.193c-0.762,0.383,16.382,7.619,12.381,21.715
	c-3.999,14.1-13.333,3.24-17.906,0.766c-4.571-2.482-4.954-0.301-5.333,6.322c-0.382,6.627,5.333,15.391-1.716,15.963
	c-7.047,0.57-8.57-4.381-12.381-5.527c-3.81-1.143-8.763-4.953-5.714-10.096c3.047-5.145,6.477-4.764,6.285-12.193
	c-0.19-7.426-9.907-14.479-8.191-22.287c1.715-7.811-1.143-9.148,5.145-11.242c6.286-2.094,7.239-4.758,7.239-5.332
	c0-0.568-3.811-4.002-0.954-10.1c2.858-6.092,6.667-1.332,4.382-9.902c-2.286-8.574-4.041-8.812-1.925-14.408
	C227.304,812.381,225.78,810.857,225.78,810.857z"/>
<g id="Indicadors_2_">
	<path fill="#282828" d="M512.771,96.044C490.273,85.14,460.819,99.45,446.98,128c-13.834,28.554-6.815,60.539,15.682,71.441
		c22.495,10.902,51.95-3.408,65.79-31.959C542.29,138.932,535.269,106.946,512.771,96.044z M504.383,109.35
		c16.56,8.022,21.725,31.565,11.538,52.578c-10.183,21.016-31.86,31.547-48.419,23.524c-16.558-8.028-20-31.224-9.816-52.238
		C467.871,112.198,487.822,101.324,504.383,109.35z"/>
	<path fill="#282828" d="M397.565,58.896c-22.499-10.902-51.952,3.407-65.791,31.958c-13.835,28.554-6.816,60.537,15.68,71.44
		c22.497,10.904,51.951-3.406,65.791-31.958C427.083,101.784,420.062,69.798,397.565,58.896z M389.175,72.201
		c16.561,8.023,21.729,31.565,11.542,52.579c-10.183,21.014-31.862,31.546-48.42,23.522c-16.559-8.026-20-31.223-9.815-52.236
		C352.666,75.052,372.619,64.176,389.175,72.201z"/>
</g>
<g id="Palanca_2_">
	<path fill="#D1D1D1" d="M657.659,396.93c-20.246-4.058-34.502,6.355-48.846,25.663c0,0-12.675,22.915-42.143,17.761l-3.326,26.637
		c0,0,139.742,21.301,141.325,16.752c7.374-36.773,12.408-66.6-10.69-79.542C690.175,402.065,662.012,397.8,657.659,396.93z"/>
	<path fill="#686868" d="M629.957,551.217c-20.35-3.484-29.915-18.322-36.37-41.492c0,0-3.601-25.939-32.955-31.71l6.466-26.059
		c0,0,138.069,30.313,137.911,35.128c-6.327,36.971-16.661,67.234-42.864,71.02C657.825,558.725,634.332,551.969,629.957,551.217z"
		/>
	<path fill="#848484" d="M687.885,402.477c-20.239-4.059-41.295,8.381-55.646,27.689c0,0-12.675,22.912-42.14,17.76l-4.773,38.246
		c0,0,21.572,0.963,32.954,31.279c0.529,1.758,3.394,9.729,4.104,10.672c7.324,15.561,19.331,26.654,34.422,29.68
		c30.791,6.174,62.709-23.656,71.294-66.486C736.684,448.486,718.677,408.647,687.885,402.477z"/>
	<path fill="#3A3A3A" d="M426.529,417.317c0,0-13.037,42.865-13.868,43.211c-0.841,0.344,166.504,26.946,170.489,27.7
		c6.672,1.264,7.73-4.25,7.73-4.25s8.772-32.787,7.484-36.616c-0.776-2.312-25.399-7.201-26.256-7.142
		c-0.856,0.057-84.583-15.213-84.583-15.213"/>
	<path fill="#2B2B2B" d="M426.529,417.317c0,0,7.321,6.588,20.846,8.511c0.895,0.127,150.99,21.534,150.99,21.534s1.285,3.829,0,0
		c-0.776-2.312-24.35-10.397-24.35-10.397c-0.851,0.059-86.489-11.957-86.489-11.957"/>
	<path fill="#353535" d="M714.505,487.947c6.222-31.046-6.826-59.846-29.151-64.318c-22.327-4.478-45.467,17.067-51.693,48.118
		c-6.224,31.048,6.826,59.847,29.151,64.321C685.138,540.545,708.28,519.002,714.505,487.947z"/>
	<path fill="#212121" d="M507.902,450.541l-81.373-33.224c-11.967-2.744-24.058,5.464-27.005,18.329
		c-2.947,12.867,4.36,25.52,16.326,28.262l81.378,33.225c11.965,2.746,24.056-5.465,27-18.332
		C527.176,465.938,519.865,453.283,507.902,450.541z"/>
	
		<ellipse transform="matrix(-0.9748 -0.2233 0.2233 -0.9748 886.5864 1048.0582)" fill="#353535" cx="502.549" cy="473.903" rx="18.991" ry="20.42"/>
</g>
<g id="Kill_Coard">
	<polygon fill="#0F0F0F" points="380.728,479.586 374.724,477.582 373.473,480.709 355.104,483.551 345.74,507.848 362.006,528.178 
		387.634,524.215 396.994,499.92 	"/>
	<polygon fill="#303030" points="356.001,526.176 339.736,505.844 349.098,481.549 374.724,477.582 390.99,497.914 381.63,522.211 	
		"/>
	<g id="Cordó">
		<path fill="none" stroke="#FF0000" stroke-width="5" stroke-linecap="round" stroke-miterlimit="10" d="M299.864,960.834
			c0,10.748,34.601,15.055,34.571,5.361c-0.026-9.664-33.803-9.582-34.571,6.156c-0.765,15.734,33.395,16.121,34.547,6.523
			c1.012-8.434-34.188-12.752-34.547,7.678"/>
		<path fill="none" stroke="#FF0000" stroke-width="5" stroke-linecap="round" stroke-miterlimit="10" d="M299.864,1009.963
			c0,10.748,36.106,13.725,36.082,4.031c-0.015-5.059-35.536-5.195-36.082,5.949c-0.765,15.736,33.42,13.051,34.571,3.455
			s-25.872-18.553-26.254,3.326"/>
		<path fill="none" stroke="#FF0000" stroke-width="5" stroke-linecap="round" stroke-miterlimit="10" d="M299.864,985.398
			c0,10.746,36.106,16.793,36.082,7.102c-0.025-8.127-33.852-9.789-34.543,4.416c-0.768,15.734,33.392,16.121,34.543,6.525
			c1.012-8.436-35.722-12.754-36.082,7.676"/>
		<path fill="none" stroke="#FF0000" stroke-width="5" stroke-linecap="round" stroke-miterlimit="10" d="M298.329,790.416
			c0,10.748,36.106,18.328,36.082,8.637c-0.027-9.664-35.312-5.182-36.082,10.555c-0.767,15.736,34.929,17.656,36.082,8.059
			c1.151-9.594-35.697-12.666-36.082,9.211"/>
		<path fill="none" stroke="#FF0000" stroke-width="5" stroke-linecap="round" stroke-miterlimit="10" d="M298.329,748.963
			c0,10.748,36.106,18.33,36.082,8.637c-0.027-9.664-35.312-5.182-36.082,10.555c-0.767,15.738,34.929,17.656,36.082,8.061
			c1.151-9.596-35.697-6.527-36.082,15.352"/>
		<path fill="none" stroke="#FF0000" stroke-width="5" stroke-linecap="round" stroke-miterlimit="10" d="M298.329,707.512
			c0,10.742,36.106,18.326,36.082,8.633c-0.027-9.664-35.312-5.182-36.082,10.555c-0.767,15.736,34.929,17.658,36.082,8.061
			c1.151-9.596-35.697-6.527-36.082,15.352"/>
		<path fill="none" stroke="#FF0000" stroke-width="5" stroke-linecap="round" stroke-miterlimit="10" d="M301.518,662.191
			c0,10.746,32.917,22.195,32.891,12.502c-0.027-9.664-35.312-5.178-36.082,10.557c-0.765,15.734,34.929,17.656,36.082,8.059
			s-35.698-6.523-36.082,15.352"/>
		<path fill="none" stroke="#FF0000" stroke-width="5" stroke-linecap="round" stroke-miterlimit="10" d="M298.329,928.594
			c0,10.746,36.106,18.326,36.082,8.633c-0.027-9.664-35.312-9.787-36.082,5.951c-0.765,15.736,34.929,17.656,36.082,8.059
			c1.152-9.598-34.369-13.012-34.752,8.867"/>
		<path fill="none" stroke="#FF0000" stroke-width="5" stroke-linecap="round" stroke-miterlimit="10" d="M298.329,896.352
			c0,10.746,36.106,18.328,36.082,8.633c-0.027-9.664-35.312-9.787-36.082,5.951c-0.767,15.738,34.929,17.658,36.082,8.059
			c1.151-9.594-35.697-11.129-36.082,10.748"/>
		<path fill="none" stroke="#FF0000" stroke-width="5" stroke-linecap="round" stroke-miterlimit="10" d="M298.329,864.109
			c0,10.748,36.106,18.328,36.082,8.637c-0.027-9.664-35.312-9.789-36.082,5.949c-0.767,15.738,34.929,17.658,36.082,8.061
			c1.151-9.596-35.697-11.131-36.082,10.746"/>
		<path fill="none" stroke="#FF0000" stroke-width="5" stroke-linecap="round" stroke-miterlimit="10" d="M298.317,825.537
			c0,10.746,36.118,20.055,36.092,10.365c-0.027-9.664-35.312-5.182-36.082,10.555c-0.766,15.736,34.929,17.656,36.082,8.059
			c1.151-9.594-35.697-11.131-36.082,10.746"/>
		<g>
			<path d="M346.579,495.984c-0.504,1.482-0.76,2.916-0.76,4.652v-0.002l-0.157,0.123c-0.091,0.92-0.23,1.471-0.21,2.395
				l-1.147,27.297h-0.005c-0.448,5.037,1.976,10.303,6.222,12.662c4.277,2.381,8.978,1.307,11.374-2.51l15.072-19.539
				c0.603-0.656,1.206-1.883,1.71-2.662l0.086-0.549h-0.004c0.844-1.26,1.347-2.037,1.854-3.514
				c2.906-8.477-0.129-18.35-6.456-24.471l-2.927,8.648c1.548,2.656,1.838,5.83,0.89,8.6c-0.951,2.771-3.067,4.578-5.509,5.029
				l-3.308,9.455c-0.98,2.508-3.635,3.518-6.03,2.188c-2.392-1.33-4.072-4.592-3.315-7.16l3.316-9.49
				c-1.547-2.654-1.822-5.801-0.86-8.617c0.966-2.82,3.054-4.631,5.64-5.002l2.966-8.453
				C357.23,483.225,349.494,487.471,346.579,495.984z M355.532,528.898c2.46,1.363,3.715,4.631,2.802,7.289
				c-0.911,2.662-3.643,3.709-6.103,2.344c-2.459-1.367-3.714-4.631-2.802-7.291C350.342,528.58,353.074,527.531,355.532,528.898z"
				/>
		</g>
		<path fill="none" stroke="#FF0000" stroke-width="5" stroke-linecap="round" stroke-miterlimit="10" d="M301.518,662.191
			c5.457-20.111,37.536-11.635,34.233-3.043c-3.301,8.592-38.031-2.453-33.653-16.803c4.379-14.352,37.573-6.197,35.343,2.732
			c-2.234,8.955-29.955-9.291-27.45-19.215c0,0-0.47-7.014,11.809-11.402c8.37-2.99,11.135-15.707,11.036-17.668
			c-0.101-1.965,6.745-65.371,17.696-63.154c14.856,3.01-9.164,28.199-10.709,43.754c-0.229,2.154-2.985,23.316-2.985,23.316"/>
		<path fill="#F4F4F4" d="M343.045,592.101c-0.107,0.951-0.754,1.657-1.453,1.577l-11.45-1.273
			c-0.695-0.076-1.172-0.911-1.065-1.861l1.558-14.001c0.106-0.951,0.753-1.66,1.449-1.579l11.452,1.275
			c0.696,0.076,1.173,0.911,1.068,1.863L343.045,592.101z"/>
		<path d="M350.847,543.285c4.966,2.319,8.232,0.055,8.232,0.055s0.427-10.167-0.863-6.854c-0.987,2.534-4.404,2.826-5.985,2.045
			C351.838,539.125,350.847,543.285,350.847,543.285z"/>
	</g>
	<g id="Botó">
		<path fill="#C41A1A" d="M367.232,494.533v-0.006l0.363-0.049c-0.187-0.078-0.117-0.158-0.313-0.223
			c-0.111-0.035-0.1-0.059-0.209-0.086l-7.982-2.771l-1.888,6.514c-0.727,0.969-1.308,2.074-1.711,3.307
			c-0.479,1.461-0.63,2.943-0.524,4.359l-1.664,5.666l7.266,2.49c0.176,0.07,0.348,0.143,0.53,0.203
			c0.109,0.037,0.223,0.061,0.336,0.09l0.136,0.047l0.004-0.01c4.737,1.248,9.327-1.826,11.048-7.088
			C374.308,501.812,372.271,496.424,367.232,494.533z"/>
		
			<ellipse transform="matrix(-0.9505 -0.3109 0.3109 -0.9505 539.5773 1088.8787)" fill="#E81C1C" cx="356.559" cy="501.441" rx="9.267" ry="10.353"/>
	</g>
</g>
<g id="Fuel">
	<path fill="#F9F9F9" d="M507.602,106.538c-19.113-9.454-43.489,1.412-54.45,24.271c-10.96,22.858-4.352,49.051,14.763,58.505
		c19.115,9.455,43.494-1.414,54.454-24.271C533.327,142.185,526.714,115.992,507.602,106.538z"/>
	<polygon fill="#232323" points="495.394,127.794 492.612,126.782 496.595,115.493 499.376,116.505 	"/>
	<polygon fill="#232323" points="509.327,146.158 508.724,143.76 517.985,139.307 518.588,141.707 	"/>
	<polygon fill="#232323" points="469.993,131.833 471.96,130.372 467.591,120.957 465.625,122.419 	"/>
	<polygon fill="#232323" points="481.348,123.433 482.967,123.155 482.818,114.874 481.194,115.154 	"/>
	<polygon fill="#232323" points="505.717,132.307 504.637,131.045 509.931,124.748 511.009,126.011 	"/>
	
		<text transform="matrix(0.7626 0.2777 -0.3327 0.943 457.624 151.7275)" fill="#232323" font-family="'MyriadPro-Bold'" font-size="8.7215">FUEL</text>
	
		<text transform="matrix(0.7626 0.2777 -0.3327 0.943 468.0088 138.9873)" fill="#232323" font-family="'MyriadPro-Bold'" font-size="9.1029">E</text>
	
		<text transform="matrix(0.7626 0.2777 -0.3327 0.943 502.7168 151.626)" fill="#232323" font-family="'MyriadPro-Bold'" font-size="9.1029">F</text>
	
		<text transform="matrix(1.1209 0.4082 -0.3327 0.943 489.6748 134.4297)" fill="#232323" font-family="'MyriadPro-Bold'" font-size="9.1029">/</text>
	
		<text transform="matrix(0.7626 0.2777 -0.3327 0.943 489.5537 131.3525)" fill="#1E1E1E" font-family="'MyriadPro-Bold'" font-size="5.4435">1</text>
	
		<text transform="matrix(0.7626 0.2777 -0.3327 0.943 492.1855 135.8066)" fill="#232323" font-family="'MyriadPro-Bold'" font-size="5.4435">2</text>
	<path d="M505.856,163c-0.068-0.137-0.548-1.306-0.88-1.251c-0.331,0.055,0.175,1.057,0.24,1.306
		c0.068,0.251,0.242,0.089-0.217,1.061c-0.461,0.972-0.754,2.611-0.739,2.97c0.019,0.358,0.005,2.087-1.072,1.501
		c-1.075-0.584-0.211-1.262,0.313-2.884c0.394-1.227-0.437-1.835-0.415-1.895l0.924-2.619l-4.171-1.52l-2.49,7.056l-1.39-0.506
		l-0.5,1.41l5.563,2.026l0.609-1.732l0,0l1.244-3.534c-0.037,0.113,0.318,0.479,0.345,0.743c0.063,0.634-0.658,1.029-0.917,2.314
		c-0.257,1.284,0.728,1.949,1.609,1.726c0.884-0.224,0.83-2.071,0.872-2.586c0.038-0.517,0.422-1.785,0.572-1.988
		c0.147-0.203,0.597-0.087,0.777-0.262C506.322,164.163,505.926,163.137,505.856,163z M503.019,164.013l-4.172-1.52l0.995-2.823
		l4.172,1.521L503.019,164.013z"/>
	<path fill="#1E1E1E" d="M505.062,95.045c-22.883-8.332-49.523,7.851-59.506,36.144c-9.981,28.294,0.476,57.987,23.357,66.319
		c22.883,8.333,49.526-7.85,59.506-36.144C538.401,133.071,527.944,103.378,505.062,95.045z M472.391,187.658
		c-18.485-6.73-26.93-30.712-18.869-53.567c8.062-22.852,29.58-35.922,48.062-29.192s26.929,30.711,18.865,53.565
		C512.39,181.316,490.871,194.387,472.391,187.658z"/>
	<path fill="#3D3D3D" d="M505.062,95.045c-22.883-8.332-49.523,7.851-59.506,36.144c-9.981,28.294,0.476,57.987,23.357,66.319
		c22.883,8.333,49.526-7.85,59.506-36.144C538.401,133.071,527.944,103.378,505.062,95.045z M470.196,193.873
		c-21.255-7.741-30.972-35.326-21.703-61.611c9.275-26.287,34.026-41.319,55.285-33.579c21.257,7.742,30.972,35.325,21.701,61.61
		C516.204,186.579,491.455,201.613,470.196,193.873z"/>
	<path fill="#EA2424" d="M478.856,150.876c0.006-0.095-8.987-29.155-8.987-29.155l1.498-0.865l10.294,28.38L478.856,150.876z"/>
	<path fill="#1E1E1E" d="M475.326,155.029c-1.833,5.191,0.082,10.637,4.281,12.166c4.197,1.528,9.085-1.441,10.915-6.632
		c1.832-5.188-0.088-10.635-4.284-12.164C482.042,146.87,477.153,149.84,475.326,155.029z"/>
</g>
<g id="Water">
	
		<ellipse transform="matrix(-0.4601 0.8879 -0.8879 -0.4601 643.0328 -164.1626)" fill="#F9F9F9" cx="371.43" cy="113.431" rx="47.153" ry="40.008"/>
	<text transform="matrix(0.7524 0.2626 -0.3295 0.9442 341.2412 114.4185)" font-family="'MyriadPro-Bold'" font-size="8.7233">ºC</text>
	<text transform="matrix(0.7524 0.2626 -0.3295 0.9442 354.4941 97.1455)" font-family="'MyriadPro-Bold'" font-size="8.7233">40</text>
	<text transform="matrix(0.7524 0.2626 -0.3295 0.9442 369.7461 93.4868)" font-family="'MyriadPro-Bold'" font-size="8.7233">80</text>
	<text transform="matrix(0.7524 0.2626 -0.3295 0.9442 379.3599 97.7827)" font-family="'MyriadPro-Bold'" font-size="8.7233">100</text>
	<text transform="matrix(0.7524 0.2626 -0.3295 0.9442 383.9834 108.3613)" font-family="'MyriadPro-Bold'" font-size="8.7233">120</text>
	<polygon points="376.921,85.954 374.633,85.539 376.606,77.315 378.896,77.731 	"/>
	<polygon points="389.85,93.249 388.199,91.487 393.235,84.955 394.882,86.714 	"/>
	<polygon points="396.706,105.146 395.867,102.646 402.391,98.661 403.227,101.163 	"/>
	<polygon points="364.856,86.106 362.493,86.921 361.459,78.959 363.821,78.143 	"/>
	<polygon points="357.491,89.244 355.283,90.686 352.64,83.516 354.852,82.077 	"/>
	<polygon points="384.159,86.716 382.935,86.14 385.581,79.903 386.804,80.477 	"/>
	<polygon points="369.752,83.583 368.362,83.777 368.492,77.178 369.886,76.98 	"/>
	<polygon points="395.261,98.305 394.576,96.987 399.426,92.931 400.113,94.246 	"/>
	<g>
		<path fill="none" stroke="#111111" stroke-width="2" stroke-linecap="round" stroke-miterlimit="10" d="M383.738,129.959
			c0,0-0.048,0.733,0.544,0.896c0.59,0.164,1.072-0.63,1.72-0.383c0.646,0.248,0.475,1.131,1.133,1.381
			c0.664,0.255,1.041-0.493,1.772-0.238c0.729,0.256,0.576,1.081,1.267,1.3c0.691,0.219,1.149-0.563,1.917-0.317
			c0.765,0.247,0.557,1.184,1.17,1.394c0.606,0.21,0.794-0.323,0.794-0.323"/>
		<polyline fill="none" stroke="#111111" stroke-width="4" stroke-linecap="round" stroke-miterlimit="10" points="393.666,123.981 
			393.709,123.859 391.643,129.779 		"/>
		
			<line fill="none" stroke="#111111" stroke-width="2" stroke-linecap="round" stroke-miterlimit="10" x1="393.382" y1="123.724" x2="391.901" y2="123.228"/>
		
			<line fill="none" stroke="#111111" stroke-width="2" stroke-linecap="round" stroke-miterlimit="10" x1="392.821" y1="125.325" x2="391.343" y2="124.832"/>
		
			<line fill="none" stroke="#111111" stroke-width="2" stroke-linecap="round" stroke-miterlimit="10" x1="392.264" y1="126.928" x2="390.784" y2="126.433"/>
		
			<ellipse transform="matrix(0.9443 0.3291 -0.3291 0.9443 64.1681 -121.1339)" fill="#161616" cx="389.869" cy="128.962" rx="0.787" ry="0.987"/>
		<path fill="none" stroke="#1E1E1E" stroke-width="2" stroke-linecap="round" stroke-miterlimit="10" d="M384.55,127.635
			c0,0,0.977-0.834,1.652-0.577c0.675,0.258,0.78,1.427,0.78,1.427"/>
		<path fill="none" stroke="#1E1E1E" stroke-width="2" stroke-linecap="round" stroke-miterlimit="10" d="M392.207,130.307
			c0,0,0.971-0.836,1.651-0.578c0.675,0.259,0.782,1.426,0.782,1.426"/>
	</g>
	<path fill="#1E1E1E" d="M389.874,58.71c-22.685-7.917-49.131,8.743-59.065,37.212c-9.935,28.468,0.403,57.966,23.088,65.883
		c22.688,7.917,49.133-8.743,59.069-37.211C422.899,96.125,412.562,66.627,389.874,58.71z M357.357,151.891
		c-18.324-6.394-26.672-30.22-18.648-53.212c8.021-22.995,29.383-36.45,47.71-30.057c18.321,6.396,26.674,30.221,18.648,53.216
		C397.042,144.83,375.681,158.286,357.357,151.891z"/>
	<path fill="#3D3D3D" d="M389.874,58.71c-22.685-7.917-49.131,8.743-59.065,37.212c-9.935,28.468,0.403,57.966,23.088,65.883
		c22.688,7.917,49.133-8.743,59.069-37.211C422.899,96.125,412.562,66.627,389.874,58.71z M355.175,158.144
		c-21.074-7.355-30.679-34.756-21.45-61.204c9.229-26.447,33.799-41.925,54.874-34.569c21.077,7.355,30.681,34.757,21.449,61.206
		C400.82,150.022,376.252,165.5,355.175,158.144z"/>
	<path fill="#EA2424" d="M363.815,115.001c0.006-0.095-8.877-28.986-8.877-28.986l1.486-0.892l10.182,28.19L363.815,115.001z"/>
	
		<ellipse transform="matrix(0.9441 0.3295 -0.3295 0.9441 60.7006 -114.418)" fill="#1E1E1E" cx="367.878" cy="121.855" rx="7.981" ry="10.014"/>
</g>
<g id="Timó_2_">
	
		<rect x="116.814" y="383.27" transform="matrix(0.8873 -0.4611 0.4611 0.8873 -159.1258 126.6745)" fill="#707070" width="125.717" height="11.427"/>
	
		<rect x="199.143" y="420.925" transform="matrix(0.294 -0.9558 0.9558 0.294 -222.8097 551.6298)" fill="#999999" width="125.728" height="11.431"/>
	
		<rect x="137.382" y="249.453" transform="matrix(0.7826 0.6225 -0.6225 0.7826 202.3754 -69.1834)" fill="#999999" width="125.724" height="11.429"/>
	
		<rect x="221.957" y="217.443" transform="matrix(0.0858 0.9963 -0.9963 0.0858 482.7184 -79.757)" fill="#999999" width="125.725" height="11.429"/>
	<path fill="#3F3F3F" stroke="#000000" stroke-miterlimit="10" d="M361.797,255.169c65.895,13.429,46.863,184.786-32.766,168.782
		C249.401,407.951,281.406,238.787,361.797,255.169z"/>
	<path fill="#191919" stroke="#000000" stroke-miterlimit="10" d="M221.588,372.137c-38.48-6.095-23.622-110.873,18.289-104.394
		c41.91,6.478,37.719,4.572,65.912,9.144c28.193,4.572,26.29,112.396-15.619,107.061
		C248.258,378.612,221.588,372.137,221.588,372.137z"/>
	<path fill="#333333" stroke="#000000" stroke-miterlimit="10" d="M240.542,269.458c41.91,6.477,26.076,106.774-15.835,101.44
		C182.798,365.563,198.633,262.98,240.542,269.458z"/>
	<path fill="#999999" d="M309.429,319.118c0,0-7.919-0.446-7.429,6.22c0.446,6.026,6.656,5.724,6.656,5.724l1.808,0.137l53.11-1.627
		l0.082-11.736L309.429,319.118z"/>
	<path fill="#141414" stroke="#000000" stroke-miterlimit="10" d="M260.45,73.051C37.946,57.429-6.137,522.822,177.392,558.828
		C387.703,596.928,479.615,117.959,260.45,73.051z M331.318,333.655c-4.572,96.392-73.534,157.353-73.534,157.353
		s5.334-15.242-4.191-16.385c-8.001,4.189-11.05-1.139-11.05-1.139c-16.763-1.525-14.859,51.434-46.101,46.857
		c-61.408-8.984-73.532-65.529-72.009-76.198c1.523-10.667,18.098-20.001,22.097-24.002c4-4.001,5.334-7.621,0-7.621
		s-5.333-9.526-5.333-9.526c0.763-8.381-23.622,4.191-23.622,4.191c-3.429-1.143-6.824,5.004-12.192-8.762
		c-19.803-50.786,13.334-161.925,15.242-166.878c1.904-4.953,5.715-16.384,21.334-5.715c15.621,10.668,17.908,4.952,17.908,4.952
		c-1.523-6.857,6.095-10.286,6.095-10.286c1.143-7.241-24.559-21.885-19.051-34.672c35.815-80.771,100.966-68.579,100.966-68.579
		c27.05,11.049,7.621,48.386,34.667,49.53c15.615,0.659,12.956-24.384,12.956-24.384c51.819,52.197,41.91,166.496,38.864,170.307
		C331.318,316.512,327.887,326.417,331.318,333.655z"/>
</g>
<g>
	<path fill="#212121" d="M451.051,505.492l0.005-0.01l-0.147-0.074c-0.651-0.357-1.317-0.691-2.008-0.996l-6.485-3.23l-0.602,1.174
		c-12.798-1.863-25.935,5.713-31.209,18.938c-4.493,11.264-2.021,23.486,5.346,31.471l-0.747,1.451l7.256,3.713
		c0.683,0.389,1.665,0.773,2.394,1.105l0.323,0.047v-0.006c0,0.137,0.463,0.309,0.847,0.461c14.478,5.773,31.031-1.99,37.148-17.326
		C468.823,528.043,463.319,512.348,451.051,505.492z"/>
	
		<ellipse transform="matrix(-0.9288 -0.3705 0.3705 -0.9288 634.4729 1179.092)" fill="#2B2B2B" cx="430.48" cy="528.609" rx="28.219" ry="29.891"/>
	<g id="Clau_2_">
		<polygon fill="#898989" points="435.074,524.408 411.326,515.586 407.684,524.85 431.433,533.672 		"/>
		<path fill="#E8E8E8" d="M412.564,497.514c0,0-0.944-0.027-3.592-1.064c-5.871-2.309-7.166,1.592-7.166,1.592L389.21,530.82
			c-2.2,5.729,0.682,7.939,7.041,10.406c1.39,0.543,2.88-21.154,2.88-21.154C405.929,502.381,412.564,497.514,412.564,497.514z"/>
		<path fill="#C9C9C9" d="M423.444,520.998c0.461-1.369,1.544-0.934,3.24-10.262c1.696-9.322-2.875-9.676-2.875-9.676
			s-11.682-3-14.303-4.086c-2.626-1.086-3.979,2.908-3.979,2.908l-12.595,32.785c-2.201,5.727,0.592,7.172,0.592,7.172
			s6.662,3.697,13.078,6.004c6.422,2.309,9.091-5.807,9.091-5.807S422.802,522.893,423.444,520.998z M405.537,523.311
			c-2.109,0.758-3.8-0.783-3.772-3.445c0.024-2.656,1.757-5.432,3.858-6.191c2.112-0.756,3.804,0.785,3.774,3.445
			C409.377,519.777,407.646,522.551,405.537,523.311z"/>
		<path fill="#E8E8E8" d="M408.124,517.764c-0.433,2.486-2.369,4.631-4.325,4.789c-0.935,0.076-1.504-0.814-2.012-1.51
			c0.469,1.309,1.332,2.605,2.708,2.494c2.178-0.178,4.33-2.557,4.808-5.32c0.479-2.762-0.898-4.857-3.073-4.682
			c-0.088,0.008-0.177,0.025-0.268,0.037C407.561,513.812,408.508,515.547,408.124,517.764z"/>
		<path fill="#707070" d="M427.093,510.188c1.696-9.326-3.281-9.494-3.281-9.494s-11.677-3-14.306-4.088
			c-2.623-1.088-3.976,2.912-3.976,2.912l-12.594,32.781c-2.2,5.729-0.071,7.598-0.071,7.598s7.132,4.08,13.553,6.389
			c6.418,2.307,9.865-6.691,9.865-6.691S425.396,519.514,427.093,510.188z M415.906,537.654c0,0-3.102,8.098-8.877,6.018
			c-5.775-2.074-12.193-5.748-12.193-5.748s-1.917-1.684,0.062-6.836l11.334-29.5c0,0,1.218-3.596,3.581-2.615
			c2.357,0.977,12.87,3.674,12.87,3.674s4.479,0.154,2.953,8.545C424.111,519.584,415.906,537.654,415.906,537.654z"/>
	</g>
</g>
<g id="Botó_1_">
	<g>
		<path fill="#111111" d="M214.991,618.471c2.206,1.223,3.433,3.312,3.416,4.951l-0.441,40.795c-0.018,1.641-1.27,2.211-3.476,0.984
			l-72.913-40.584c-2.207-1.227-3.487-3.34-3.471-4.984l0.444-40.791c0.014-1.641,1.321-2.184,3.527-0.957L214.991,618.471z"/>
		<path fill="#707070" d="M213.973,620.068c1.057,0.588,1.904,1.934,1.89,3.008c-0.014,1.07-0.883,1.457-1.94,0.867
			c-1.058-0.592-1.905-1.939-1.891-3.008C212.044,619.863,212.914,619.475,213.973,620.068z"/>
		<path fill="#707070" d="M214.295,658.861c1.058,0.594,1.905,1.938,1.889,3.008c-0.014,1.072-0.882,1.461-1.941,0.867
			c-1.057-0.592-1.903-1.936-1.89-3.006C212.371,658.662,213.238,658.273,214.295,658.861z"/>
		
			<text transform="matrix(0.9884 0.5517 -0.0131 0.9999 155.8408 595.2197)" fill="#F9F9F9" font-family="'MyriadPro-Regular'" font-size="5.509">OIL</text>
		
			<text transform="matrix(0.9884 0.5517 -0.0131 0.9999 146.9805 596.1904)" fill="#F9F9F9" font-family="'MyriadPro-Regular'" font-size="5.509">PRESSURE</text>
		<path fill="#707070" d="M142.542,580.668c1.057,0.592,1.904,1.938,1.89,3.01c-0.015,1.07-0.883,1.459-1.941,0.867
			c-1.057-0.592-1.904-1.938-1.89-3.006C140.616,580.467,141.484,580.078,142.542,580.668z"/>
		<path fill="#707070" d="M142.925,619.025c1.057,0.588,1.903,1.932,1.89,3.004c-0.014,1.07-0.883,1.459-1.941,0.869
			c-1.058-0.594-1.903-1.938-1.891-3.008C140.997,618.82,141.867,618.432,142.925,619.025z"/>
		<g>
			<polygon fill="#9B9191" points="185.97,618.586 204.699,629.043 204.504,643.811 185.774,633.357 			"/>
			<polygon fill="#304789" points="186.999,620.074 203.719,629.406 203.549,642.328 186.83,632.998 			"/>
			<g>
				<path fill="#9B9191" d="M189.835,622.643c-0.058-0.031-0.114-0.053-0.167-0.07c0.277,0.23,0.48,0.604,0.476,0.906l-0.129,9.871
					c-0.004,0.305-0.214,0.445-0.493,0.367c0.053,0.043,0.108,0.082,0.166,0.115c0.36,0.201,0.657,0.07,0.661-0.295l0.129-9.869
					C190.483,623.303,190.196,622.844,189.835,622.643z"/>
				<path fill="#9B9191" d="M192.554,624.162c-0.058-0.033-0.115-0.057-0.169-0.072c0.279,0.232,0.48,0.602,0.476,0.904l-0.13,9.875
					c-0.005,0.303-0.212,0.445-0.493,0.361c0.053,0.047,0.108,0.086,0.167,0.119c0.36,0.201,0.656,0.068,0.66-0.295l0.13-9.869
					C193.201,624.82,192.913,624.361,192.554,624.162z"/>
				<path fill="#9B9191" d="M195.422,625.764c-0.059-0.033-0.114-0.057-0.168-0.072c0.277,0.23,0.48,0.602,0.476,0.906l-0.131,9.869
					c-0.004,0.307-0.213,0.449-0.493,0.367c0.053,0.045,0.109,0.084,0.167,0.117c0.36,0.201,0.656,0.07,0.66-0.295l0.13-9.869
					C196.068,626.418,195.781,625.961,195.422,625.764z"/>
				<path fill="#9B9191" d="M198.251,627.34c-0.058-0.031-0.114-0.055-0.169-0.07c0.279,0.23,0.48,0.604,0.476,0.908l-0.129,9.869
					c-0.004,0.307-0.213,0.449-0.493,0.367c0.053,0.043,0.108,0.084,0.167,0.117c0.359,0.199,0.655,0.068,0.659-0.295l0.13-9.871
					C198.899,628,198.611,627.541,198.251,627.34z"/>
				<path fill="#9B9191" d="M200.969,628.857c-0.058-0.033-0.113-0.053-0.167-0.07c0.278,0.23,0.48,0.604,0.475,0.908l-0.13,9.871
					c-0.002,0.307-0.213,0.445-0.493,0.365c0.053,0.045,0.11,0.082,0.167,0.115c0.359,0.201,0.655,0.068,0.66-0.295l0.131-9.871
					C201.617,629.52,201.329,629.061,200.969,628.857z"/>
				<path fill="#233563" d="M190.015,633.35l0.129-9.871c0.004-0.303-0.199-0.676-0.476-0.906c-0.28-0.08-0.489,0.061-0.494,0.367
					l-0.128,9.867c-0.004,0.309,0.198,0.68,0.475,0.908C189.8,633.797,190.009,633.656,190.015,633.35z"/>
				<path fill="#233563" d="M192.732,634.869l0.13-9.875c0.004-0.303-0.198-0.672-0.478-0.906c-0.278-0.078-0.487,0.062-0.493,0.369
					l-0.129,9.867c-0.004,0.309,0.197,0.678,0.475,0.906C192.519,635.314,192.728,635.174,192.732,634.869z"/>
				<path fill="#233563" d="M195.599,636.467l0.131-9.869c0.004-0.305-0.199-0.676-0.476-0.906c-0.28-0.08-0.489,0.061-0.494,0.365
					l-0.13,9.869c-0.004,0.305,0.199,0.678,0.476,0.908C195.386,636.916,195.595,636.773,195.599,636.467z"/>
				<path fill="#233563" d="M198.429,638.047l0.129-9.869c0.004-0.305-0.197-0.678-0.476-0.908c-0.279-0.08-0.487,0.062-0.492,0.369
					l-0.13,9.867c-0.004,0.307,0.199,0.68,0.475,0.906C198.216,638.496,198.425,638.354,198.429,638.047z"/>
				<path fill="#233563" d="M201.146,639.564l0.129-9.869c0.005-0.305-0.198-0.678-0.474-0.908c-0.28-0.078-0.487,0.061-0.492,0.367
					l-0.13,9.869c-0.004,0.307,0.198,0.68,0.476,0.906C200.934,640.014,201.144,639.871,201.146,639.564z"/>
			</g>
		</g>
		<g>
			
				<radialGradient id="SVGID_1_" cx="-109.5898" cy="435.1631" r="19.8856" gradientTransform="matrix(-0.3347 -0.9461 -0.9424 0.321 524.4286 374.3485)" gradientUnits="userSpaceOnUse">
				<stop  offset="0.1874" style="stop-color:#FF9C00"/>
				<stop  offset="0.2364" style="stop-color:#FC800A"/>
				<stop  offset="0.3165" style="stop-color:#F75819"/>
				<stop  offset="0.3899" style="stop-color:#F33C24"/>
				<stop  offset="0.4536" style="stop-color:#F12A2B"/>
				<stop  offset="0.5002" style="stop-color:#F0242D"/>
				<stop  offset="0.5774" style="stop-color:#EB212B"/>
				<stop  offset="0.6632" style="stop-color:#DE1724"/>
				<stop  offset="0.753" style="stop-color:#C80719"/>
				<stop  offset="0.7822" style="stop-color:#BF0015"/>
				<stop  offset="0.8876" style="stop-color:#BD0015"/>
				<stop  offset="0.9333" style="stop-color:#B60016"/>
				<stop  offset="0.9673" style="stop-color:#A90017"/>
				<stop  offset="0.9955" style="stop-color:#980018"/>
				<stop  offset="1" style="stop-color:#940018"/>
			</radialGradient>
			<path fill="url(#SVGID_1_)" d="M140.474,621.312c1.947,5.504,7.835,8.549,13.345,6.975c0.074-0.021,0.21-0.047,0.21-0.041
				l-0.001-0.006l7.338-2.576c9.916-7.037-0.682-23.246-9.438-19.803l-5.194,1.768C141.378,609.789,138.501,615.734,140.474,621.312
				z"/>
		</g>
	</g>
</g>
</svg>
