<?xml version="1.0" encoding="utf-8"?>
<!-- Generator: Adobe Illustrator 16.0.0, SVG Export Plug-In . SVG Version: 6.00 Build 0)  -->
<!DOCTYPE svg PUBLIC "-//W3C//DTD SVG 1.1//EN" "http://www.w3.org/Graphics/SVG/1.1/DTD/svg11.dtd">
<svg version="1.1" id="Capa_1" xmlns="http://www.w3.org/2000/svg" xmlns:xlink="http://www.w3.org/1999/xlink" x="0px" y="0px"
	 width="800px" height="800px" viewBox="0 0 800 800" enable-background="new 0 0 800 800" xml:space="preserve">
<g id="FUEL">
	<rect x="396" y="230" fill="#232323" width="13" height="58"/>
	
		<rect x="543.569" y="298.075" transform="matrix(-0.6353 -0.7723 0.7723 -0.6353 647.1697 959.8496)" fill="#232323" width="13.31" height="58.081"/>
	
		<rect x="248.311" y="298.11" transform="matrix(0.6353 -0.7723 0.7723 0.6353 -159.6624 316.2297)" fill="#232323" width="13.31" height="58.084"/>
	
		<rect x="312.693" y="248.804" transform="matrix(0.9079 -0.4192 0.4192 0.9079 -84.0002 158.0115)" fill="#232323" width="9.79" height="42.724"/>
	
		<rect x="482.099" y="248.814" transform="matrix(-0.9079 -0.4192 0.4192 -0.9079 815.8627 719.6245)" fill="#232323" width="9.789" height="42.724"/>
	<text transform="matrix(1 0 0 1 241.9717 465.9473)" fill="#232323" font-family="'MyriadPro-Bold'" font-size="43.7763">FUEL</text>
	<text transform="matrix(1 0 0 1 276.3125 388.0283)" fill="#232323" font-family="'MyriadPro-Bold'" font-size="45.6908">E</text>
	<text transform="matrix(1 0 0 1 504.7109 388.0283)" fill="#232323" font-family="'MyriadPro-Bold'" font-size="45.6908">F</text>
	<text transform="matrix(1.4697 0 0 1 393.2793 329.3398)" fill="#232323" font-family="'MyriadPro-Bold'" font-size="45.6909">/</text>
	<text transform="matrix(1 0 0 1 386.271 315.0254)" fill="#1E1E1E" font-family="'MyriadPro-Bold'" font-size="27.3227">1</text>
	<text transform="matrix(1 0 0 1 410.7744 331.5117)" fill="#232323" font-family="'MyriadPro-Bold'" font-size="27.3227">2</text>
	<path d="M546.451,436.128c-0.682-0.529-5.898-5.219-7.713-4.387c-1.815,0.832,3.178,4.688,4.085,5.748
		c0.907,1.059,1.591,0,0.91,5.37c-0.682,5.368,0.986,13.611,1.818,15.275s4.32,9.832-3.167,8.925
		c-7.486-0.907-4.804-5.597-5.105-14.143c-0.229-6.465-4.279-7.907-7.279-8.228V430h-26v40h-4v2h34v-2h-4v-22.203
		c2,0.605,3.83,1.715,4.52,2.913c1.664,2.888-1.219,5.989-0.084,12.493s8.504,7.94,13.192,5.369s0.697-11.192-0.135-13.688
		s-1.126-9.15-0.673-10.36c0.455-1.21,3.332-1.438,4.014-2.571C551.514,440.816,547.132,436.657,546.451,436.128z M528,445h-22v-13
		h22V445z"/>
</g>
<g id="Capa_2_copia">
	<path fill="#1E1E1E" d="M402,117c-150.589,0-272.667,122.077-272.667,272.667S251.411,662.334,402,662.334
		c150.59,0,272.666-122.078,272.666-272.667S552.59,117,402,117z M402,609.896c-121.63,0-220.23-98.602-220.23-220.23
		s98.6-220.23,220.23-220.23s220.23,98.601,220.23,220.23S523.63,609.896,402,609.896z"/>
	<path fill="#3D3D3D" d="M402,117c-150.589,0-272.667,122.077-272.667,272.667S251.411,662.334,402,662.334
		c150.59,0,272.666-122.078,272.666-272.667S552.59,117,402,117z M402,642.972c-139.896,0-253.305-113.409-253.305-253.305
		c0-139.896,113.409-253.306,253.305-253.306c139.896,0,253.306,113.409,253.306,253.305
		C655.306,529.562,541.896,642.972,402,642.972z"/>
	<path fill="#EA2424" d="M410.774,436.35c0.455-0.143,124.304-109.902,124.304-109.902l6.513,7.091L423.062,449.609L410.774,436.35z
		"/>
	<circle fill="#1E1E1E" cx="402" cy="450.978" r="50.016"/>
</g>
</svg>
