<?xml version="1.0" encoding="utf-8"?>
<!-- Generator: Adobe Illustrator 16.0.0, SVG Export Plug-In . SVG Version: 6.00 Build 0)  -->
<!DOCTYPE svg PUBLIC "-//W3C//DTD SVG 1.1//EN" "http://www.w3.org/Graphics/SVG/1.1/DTD/svg11.dtd">
<svg version="1.1" id="Capa_1" xmlns="http://www.w3.org/2000/svg" xmlns:xlink="http://www.w3.org/1999/xlink" x="0px" y="0px"
	 width="800px" height="800px" viewBox="0 0 800 800" enable-background="new 0 0 800 800" xml:space="preserve">
<g id="Ones">
	<rect x="-20" y="-11" fill="#42C9CC" width="840" height="843"/>
	
		<line fill="none" stroke="#39C94D" stroke-width="3" stroke-miterlimit="10" x1="907.211" y1="697.475" x2="237.789" y2="441.741"/>
	<g>
		
			<linearGradient id="SVGID_1_" gradientUnits="userSpaceOnUse" x1="118.144" y1="91.8682" x2="118.1439" y2="878.8323" gradientTransform="matrix(-4.371139e-08 1 -1 -4.371139e-08 738.1064 99.3433)">
			<stop  offset="0" style="stop-color:#FFFFFF;stop-opacity:0.8"/>
			<stop  offset="0.9306" style="stop-color:#FFFFFF;stop-opacity:0"/>
		</linearGradient>
		<path fill="url(#SVGID_1_)" d="M-40.074,458.654c40.959-12.836,88.031-3.543,126.659-17.258
			c42.327-15.025,79.877-41.723,114.224-53.691c31.703-11.045,64.196,0.84,105.44-13.482c44.17-15.338,70.097-32.504,98.609-45.215
			c28.543-12.725,80.97-8.809,108.679-21.506c25.586-11.726,143.283-118.67,143.283-118.67S543.524,99.596,519.026,90.146
			c-26.26-10.13-76.696-12.714-106.841-20.83c-30.145-8.117-62.991-38.884-105.889-47.001c-42.899-8.116-68.601-6.523-104.3-13.48
			c-35.699-6.957-77.943-35.818-118.522-41.616c-40.58-5.796-100.361-3.897-123.55-7.376c-23.188-3.479-60.02-29.651-100.649-35.449
			v266.034v15.684v304.476C-96.981,493.111-63.644,466.039-40.074,458.654z"/>
		
			<linearGradient id="SVGID_2_" gradientUnits="userSpaceOnUse" x1="106.4722" y1="220.2017" x2="106.4721" y2="878.8326" gradientTransform="matrix(-4.371139e-08 1 -1 -4.371139e-08 738.1064 99.3433)">
			<stop  offset="0" style="stop-color:#FFFFFF;stop-opacity:0.8"/>
			<stop  offset="1" style="stop-color:#FFFFFF;stop-opacity:0"/>
		</linearGradient>
		<path opacity="0.5" fill="url(#SVGID_2_)" enable-background="new    " d="M-40.074,386.77
			c23.189-3.479,77.207,1.287,115.423-13.537c42.294-16.408,71.263-42.671,105.568-54.753
			c36.094-12.713,82.434-8.022,125.332-16.138c42.898-8.115,68.465-37.102,98.609-45.216c30.145-8.116,85.189-10.688,106.957-28.532
			c21.767-17.844,13.343-34.68,13.343-34.68s3.526-14.463-13.333-28.285c-21.768-17.844-76.799-20.417-106.944-28.532
			c-30.145-8.116-55.688-37.101-98.585-45.217c-42.899-8.116-68.602-6.525-104.3-13.482c-35.699-6.956-77.943-35.817-118.523-41.614
			c-40.579-5.797-100.361-3.898-123.55-7.376c-23.187-3.479-60.019-29.651-100.648-35.45v205.746v15.684v202.292
			C-100.096,411.881-63.263,390.246-40.074,386.77z"/>
	</g>
	<g id="Lanxa_gran">
		<path fill="#D1D1D1" d="M393.07,127.973v139.133l165.726,2.566c0,0,137.374,12.836,184.53-72.367
			c-45.288-82.403-181.08-73.067-181.08-73.067L393.07,127.973z"/>
		<path fill="#E8E8E8" d="M708.183,197.539c0.886-46.557-58.633-61.299-114.853-65.039l-93.145,1.54l-67.231,2.336l-8.4,36.182
			l6.94,5.838l-0.175,38.749c0,0-5.833,4.901-5.833,6.068c0,6.577,7.937,35.49,7.937,35.49s45.646,1.033,66.188,1.517
			c0.699,0.017,92.56,2.659,93.718,2.622C649.439,260.857,707.221,248.166,708.183,197.539z M501.59,258.114
			c-1.519,0.236-63.729-5.95-63.729-5.95s-4.478-24.187-4.478-30.395c0-1.101,5.576-5.726,5.576-5.726l0.163-36.585l-6.635-5.51
			l5.368-32.203l63.651-5.369c55.249-0.776,56.025,0.305,91.82,0c54.843,4.256,113.104,21.012,112.051,61.784
			c-1.048,40.516-57.839,56.936-112.051,60.543C591.23,258.674,502.521,257.646,501.59,258.114z"/>
		<path fill="#E5E5E5" d="M609.145,232.709l10.691-10.256l3.812-24.091l-3.812-25.567l-10.691-11.257
			c-4.179-5.789-25.237-7.723-25.237-7.723H544.84l-8.52,4.869l4.983,28.962l15.169,10.031l-15.169,9.586l-4.983,28.439l8.52,3.739
			h39.067C583.907,239.44,604.966,238.493,609.145,232.709z"/>
		<path fill="#C6C6C6" d="M554.836,235.577c1.206-0.08,19.001-11.417,19.001-11.417l0.54-51.496l-18.354-12.914h-2.577h-1.285
			h-1.286h-14.593v75.826C536.283,235.577,553.627,235.66,554.836,235.577z"/>
		<path fill="#2C7D99" d="M589.857,227.646v-25.989v-9.915v-23.418c0,0-10.481-7.507-36.451-8.732
			c-0.152-0.011-0.275,1.339-0.275,1.339c4.797,3.412,17.691,11.038,17.691,11.038l0.119,24.731L570.784,224
			c0,0-12.952,7.622-17.746,11.036c0,0,0.217,1.352,0.368,1.343C579.379,235.15,589.857,227.646,589.857,227.646z"/>
		<path display="none" fill="#394963" d="M372.312,217.669c-2.762-0.013-4.992-2.266-4.973-5.029l0.153-29.122
			c0.016-2.76,2.271-4.989,5.033-4.977l44.734,0.241c2.766,0.014,4.992,2.268,4.977,5.03l-0.161,29.122
			c-0.012,2.762-2.263,4.989-5.027,4.974L372.312,217.669z"/>
	</g>
	<g id="boat">
		
			<linearGradient id="SVGID_3_" gradientUnits="userSpaceOnUse" x1="627.8535" y1="385.4355" x2="627.8535" y2="600.6812" gradientTransform="matrix(0.3541 -0.9352 0.9352 0.3541 -44.2109 1007.4129)">
			<stop  offset="0" style="stop-color:#FFFFFF;stop-opacity:0.8"/>
			<stop  offset="0.9306" style="stop-color:#FFFFFF;stop-opacity:0"/>
		</linearGradient>
		<path fill="url(#SVGID_3_)" d="M734.14,555.432c-7.498-1.623-23.932-13.118-37.019-16.045
			c-13.086-2.927-28.432,0.591-40.159-1.414c-11.728-2.008-19.188-8.077-33.254-10.564c-14.065-2.484-25.238,3.423-35.401,2.415
			c-10.162-1.009-27.297-6.597-36.026-3.66c-8.728,2.938-17.499,33.896-17.499,33.896s-9.737,22.464-6.181,28.646
			c4.596,7.98,21.134,15.144,29.416,21.119c8.283,5.976,12.74,17.803,24.923,25.256c12.186,7.452,21.796,7.847,31.914,14.11
			c10.115,6.264,19.279,19.062,31.023,25.536c11.743,6.476,31.668,8.747,38.359,12.498c6.692,3.75,16.207,13.437,27.596,19.777
			l27.132-71.655l1.817-4.798l27.129-71.655C755.181,556.098,741.637,557.053,734.14,555.432z"/>
		
			<linearGradient id="SVGID_4_" gradientUnits="userSpaceOnUse" x1="627.4766" y1="385.4346" x2="627.4766" y2="600.6774" gradientTransform="matrix(0.3541 -0.9352 0.9352 0.3541 -44.2109 1007.4129)">
			<stop  offset="0" style="stop-color:#FFFFFF;stop-opacity:0.8"/>
			<stop  offset="1" style="stop-color:#FFFFFF;stop-opacity:0"/>
		</linearGradient>
		<path opacity="0.5" fill="url(#SVGID_4_)" enable-background="new    " d="M725.812,577.424
			c-7.497-1.622-23.931-13.117-37.019-16.045c-13.086-2.926-28.429,0.593-40.157-1.415c-11.729-2.007-19.189-8.076-33.254-10.563
			c-14.065-2.485-25.239,3.424-35.401,2.416c-10.163-1.01-27.299-6.598-36.025-3.661c-8.727,2.938-8.099,9.065-8.099,9.065
			s-2.754,4.018,0.804,10.198c4.595,7.981,21.133,15.144,29.416,21.118c8.281,5.978,12.739,17.805,24.923,25.257
			c12.186,7.452,21.795,7.847,31.911,14.112c10.116,6.263,19.28,19.061,31.023,25.535c11.744,6.475,31.671,8.746,38.361,12.497
			c6.692,3.751,16.206,13.437,27.596,19.777l20.148-53.211l1.816-4.797l17.729-46.825
			C746.852,578.09,733.31,579.047,725.812,577.424z"/>
		<g id="Capa_4_1_">
			<path fill="#D1D1D1" d="M577.396,605.085l22.326-58.965l-69.821-27.679c0,0-56.157-27.483-89.813,1.059
				c5.97,42.189,65.016,60.021,65.016,60.021L577.396,605.085z"/>
			<path fill="#F4F4F4" d="M455.216,525.463c0,0,8.682-25.904,59.906-7.525c51.223,18.376,55.298,23.945,55.298,23.945
				l-17.958,47.427l-16.294-3.629l-43.749-16.565C492.417,569.115,447.553,550.369,455.216,525.463z"/>
			<path fill="#E8E8E8" d="M455.017,525.039c-7.845,19.589,15.014,35.388,38.239,45.994l39.72,14.293l28.867,9.799l9.366-13.987
				l-2.006-3.587l6.293-16.393c0,0,3.259-1.142,3.446-1.637c1.054-2.786,2.331-16.313,2.331-16.313s-19.179-7.76-27.807-11.263
				c-0.293-0.118-38.8-15.979-39.296-16.148C490.073,507.633,463.549,503.74,455.017,525.039z M552.29,532.521
				c0.681,0.143,26.053,12.747,26.053,12.747s-1.983,10.969-2.979,13.601c-0.178,0.467-3.283,1.532-3.283,1.532l-5.94,15.479
				l1.929,3.398l-7.443,12.786l-27.836-7.938c-23.539-8.536-23.694-9.119-38.913-14.733c-22.558-10.605-44.561-27.055-37.572-44.164
				c6.945-17.002,33.648-14.848,57.201-7.678C514.392,517.898,551.82,532.567,552.29,532.521z"/>
			<path fill="#FFFFFF" d="M501.999,542.588l-0.235-0.1l-1.807,8.308l2.075,4.455c0.611,2.27,6.961,5.063,6.961,5.063l12.02,4.551
				l3.094-0.251l1.793-9.366l-3.746-5.089l-4.139-1.505L501.999,542.588z"/>
			<path fill="#FFFFFF" d="M501.938,542.749l-0.174-0.261l3.978-6.967l4.481-1.905c1.96-1.294,8.547,0.877,8.547,0.877l12.021,4.552
				l2.195,2.118l-4.837,8.143l-6.134,1.222l-4.062-1.709L501.938,542.749z"/>
			<path fill="#C6C6C6" d="M527.272,539.053c-0.381-0.117-7.176,1.299-7.176,1.299l-6.165,15.78l4.143,6.113l0.792,0.3l0.396,0.149
				l0.395,0.15l4.49,1.698l8.834-23.33C532.98,541.213,527.653,539.168,527.272,539.053z"/>
			<path fill="#394963" d="M600.586,570.403c1.169,0.45,1.753,1.761,1.303,2.929l-4.738,12.316c-0.449,1.167-1.764,1.75-2.933,1.302
				l-18.917-7.28c-1.17-0.45-1.755-1.762-1.303-2.931l4.74-12.314c0.448-1.169,1.758-1.753,2.928-1.303L600.586,570.403z"/>
			<path fill="#29ABE2" d="M515.575,537.411l-3.028,7.997l-1.154,3.051l-2.729,7.204c0,0,2.351,3.531,10.196,6.935
				c0.048,0.02,0.242-0.379,0.242-0.379c-1.079-1.609-4.159-5.459-4.159-5.459l2.844-7.622l3.229-8.382c0,0,4.873-0.838,6.748-1.329
				c0,0,0.091-0.44,0.044-0.458C519.671,536.323,515.575,537.411,515.575,537.411z"/>
			<g id="Timó_2_">
				<path d="M523.403,560.832c3.215,1.217,7.46-9.292,3.982-10.608C524.332,549.066,520.03,559.556,523.403,560.832z
					 M523.717,559.896c-2.299-0.869,1.212-9.547,3.294-8.76C529.381,552.033,525.907,560.726,523.717,559.896z"/>
				<path d="M523.112,556.182c0,0,1.011,0.354,1.45-0.849c0.443-1.205-0.51-1.381-0.585-1.438
					C523.9,553.836,523.112,556.182,523.112,556.182z"/>
				<polygon points="524.467,555.733 526.987,557.041 527.587,555.459 524.789,554.882 				"/>
				<path d="M524.135,554.379c0.009-0.025,3.146-3.236,3.146-3.236l-0.933-0.521l-2.638,3.457L524.135,554.379z"/>
				<path d="M523.524,555.986c-0.009,0.023,0.174,4.619,0.174,4.619l-0.99-0.374l0.257-4.189L523.524,555.986z"/>
			</g>
			<g id="Tapiceria_2_">
				<path fill="#E8CDA0" d="M513.506,517.549c0,0-4.809,12.997-19.646,10.66c-14.838-2.339-34.368-7.812-34.841-7.763
					C458.549,520.495,470.64,502.902,513.506,517.549z"/>
				<path fill="#E8CDA0" d="M493.876,569.39c0,0,5.006-12.923-7.66-20.999c-12.663-8.076-30.923-16.913-31.245-17.261
					C454.652,530.785,452.059,551.973,493.876,569.39z"/>
				<path fill="#E8CDA0" d="M548.168,588.815c0,0-3.549-0.26-1.252-2.963c7.556-8.901,17.523-32.842,16.995-45.48
					c-0.11-2.651,0.452-2.398,1.962-1.748c1.133,0.489,12.47,6.644,12.47,6.644s0.081,21.297-17.717,46.796L548.168,588.815z"/>
				<path fill="#E8CDA0" d="M548.027,546.448c0.659,0.25,0.665,1.051,0.318,1.968l-7.902,20.873
					c-0.347,0.915-0.993,1.804-1.652,1.555l-6.965-2.638c-0.658-0.25-0.963-1.498-0.616-2.412l7.904-20.875
					c0.347-0.916,1.29-1.358,1.95-1.109L548.027,546.448z"/>
			</g>
		</g>
		<g>
			<path fill="#996234" d="M527.214,561.393c0,0-0.974-1.66,1.455-1.341c2.431,0.32,5.053,0.14,5.053,0.14s0.212-2.663-0.321-3.238
				c-0.531-0.577-3.627-1.436-3.591-3.801c0.039-2.364-0.079-3.485,2.729-1.406c2.81,2.078,4.907,3.243,4.907,3.243l-1.352,9.386
				l-8.384-2.797"/>
			<path fill="#EF45B7" d="M535.122,563.138c0,0-5.874,1.382-5.066-0.237c0.809-1.617,1.768-0.254,2.691-2.35
				c0.921-2.096-0.842-2.428,1.05-4.713c1.892-2.282,1.47-3.56,2.73-2.579c1.261,0.981,1.838,1.312,1.838,1.312L535.122,563.138z"/>
			<path fill="#996234" d="M534.638,565.823c0,0-3.783-1.268-4.787-1.534c-1.874-0.492-5.034-3.446-5.718-3.705
				c-0.685-0.26-1.36-0.64-0.004-1.16c1.357-0.521,4.425,1.66,5.981,2.689c1.56,1.03,4.052,0.712,4.616,0.874
				c0.563,0.166-0.656,1.001-0.656,1.001L534.638,565.823z"/>
			<path fill="#996234" d="M539.312,554.196c0,0-3.523-2.672-4.45-3.137c-1.73-0.871-6.054-0.753-6.74-1.012
				c-0.684-0.258-1.438-0.426-0.77,0.866c0.672,1.289,4.411,1.691,6.263,1.949c1.849,0.26,3.049,2.837,3.579,3.086
				c0.533,0.249,0.631-1.872,0.631-1.872L539.312,554.196z"/>
			<path fill="#8BC7E8" d="M534.013,567.475c0,0,4.881,1.05,6.898-1.453c2.019-2.503,2.715-3.369,2.576-6.355
				c-0.14-2.988,0.987-4.116-1.402-4.798c-2.387-0.681-3-2.687-4.204-0.602c-1.298,2.248-4.175,8.519-4.396,8.943
				C532.13,565.817,534.013,567.475,534.013,567.475z"/>
			<path fill="#301705" d="M542.202,562.611c0,0-1.239,2.497-3.231,1.297c-1.991-1.197-3.204-0.356-3.179-2.441
				c0.023-2.085-1.419-3.672,0.675-3.804c2.092-0.133,3.261-0.357,4.295,0.703c1.036,1.059,1.389,1.053,1.902,2.096
				C543.18,561.502,542.202,562.611,542.202,562.611z"/>
		</g>
	</g>
</g>
<line fill="none" stroke="#39C94D" stroke-width="3" stroke-miterlimit="10" x1="-187.174" y1="588.11" x2="713.625" y2="281.177"/>
</svg>
