<?xml version="1.0" encoding="utf-8"?>
<!-- Generator: Adobe Illustrator 16.0.0, SVG Export Plug-In . SVG Version: 6.00 Build 0)  -->
<!DOCTYPE svg PUBLIC "-//W3C//DTD SVG 1.1//EN" "http://www.w3.org/Graphics/SVG/1.1/DTD/svg11.dtd">
<svg version="1.1" id="Capa_1" xmlns="http://www.w3.org/2000/svg" xmlns:xlink="http://www.w3.org/1999/xlink" x="0px" y="0px"
	 width="800px" height="800px" viewBox="0 0 800 800" enable-background="new 0 0 800 800" xml:space="preserve">
<g id="cèl">
	<g id="Cèl_2_">
		
			<linearGradient id="SVGID_1_" gradientUnits="userSpaceOnUse" x1="416.3379" y1="1556.0098" x2="1215.5" y2="1556.0098" gradientTransform="matrix(-4.371139e-08 -1 -1 4.371139e-08 1956.5 1215.5005)">
			<stop  offset="0.1444" style="stop-color:#FFFFFF"/>
			<stop  offset="1" style="stop-color:#00C3FF"/>
		</linearGradient>
		<polygon fill="url(#SVGID_1_)" points="0,0 800,0 800.981,799.162 0.982,799.162 		"/>
	</g>
</g>
<g id="_x33_">
	<g id="Ancla_copia_2_2_">
		<path fill="#727272" d="M746.324,724.928c0.233-0.398-0.419-1.497-0.548-1.668c-0.094-0.106-0.225-0.137-0.374-0.111
			c-0.272,0.045-0.635,0.263-0.925,0.479c-0.453,0.256-18.734,6.996-29.655,11.017c-4.881,1.799-8.729,3.218-9.345,3.45
			c-0.885,0.336-1.413,0.752-1.574,1.223c-0.13,0.377,0.031,0.646,0.042,0.657c0.463,1.19,0.854,1.115,1.507,0.864
			c0.109-0.039,0.229-0.084,0.366-0.125c0.815-0.247,33.183-11.188,34.561-11.646c0.443-0.187,1.689-0.604,2.188-0.37
			c0.566,0.271,1.425,1.836,1.762,2.61c1.592,3.692,2.36,6.42,1.938,6.798c-0.137,0.117-0.677,0.325-2.771-0.312
			c-1.188-0.363-2.413-0.872-2.709-1.022c-0.053-0.031-6.091-2.979-7.263-2.593c-0.104,0.035-0.188,0.103-0.229,0.19
			c-0.396,0.834,0.629,2.221,1.812,3.821l0.312,0.418c0.969,1.321,2.166,2.729,2.646,3.272c-0.947-0.005-3.662-0.014-4.068,0.019
			c-0.038,0.009-0.104,0.016-0.172,0.021c-0.267,0.042-0.713,0.16-0.965,0.487c-0.162,0.21-0.218,0.468-0.16,0.764
			c0.104,0.561,1.001,1.275,1.948,2.038c0.154,0.13,0.312,0.259,0.466,0.384c-0.043,0.025-0.083,0.062-0.133,0.088
			c-1.084,0.762-2.572,1.802-2.658,2.649c-0.021,0.218,0.041,0.407,0.194,0.564c0.705,0.748,3.129-0.004,7.604-2.354
			c3.354-1.766,7.988-5.053,8.034-5.083c1.003-0.71,2.381-2.59,2.162-4.369c-0.216-1.692-3.656-11.105-4.028-12.124
			C746.292,724.95,746.304,724.938,746.324,724.928z"/>
		<g>
			<path fill="#727272" d="M706.38,739.541c0.055-0.116,0.062-0.245,0.021-0.368c-0.084-0.248-0.354-0.383-0.618-0.292
				c-0.12,0.045-0.218,0.134-0.271,0.248c-0.057,0.116-0.062,0.247-0.021,0.369c0.077,0.217,0.31,0.348,0.531,0.312
				c0.026-0.007,0.062-0.013,0.089-0.021C706.233,739.745,706.331,739.657,706.38,739.541z"/>
			<path fill="#727272" d="M750.036,737.12c-0.191-1.595-3.445-10.524-3.97-11.94c-0.146,0.106-0.329,0.178-0.499,0.186
				c-0.207,0.021-0.386-0.059-0.497-0.194c-0.155-0.2-0.347-0.537-0.479-0.79l-0.021,0.062L708.9,737.131
				c-1.781,0.658-2.992,1.104-3.312,1.229c-0.986,0.377-1.31,0.771-1.398,1.03c-0.088,0.248,0.005,0.417,0.021,0.447
				c0.396,1.001,0.599,0.925,1.146,0.718c0.116-0.042,0.238-0.089,0.382-0.132c0.188-0.058,2.104-0.693,4.947-1.649
				c0.4-1.056,1.642-1.479,1.692-1.502c1.146-0.434,28.234-10.591,31.023-9.605c0.736,0.258,1.611,2.342,1.709,2.569
				c0.083,0.194,2.146,4.849,2.515,6.658c0.524,2.648-2.576,4.562-3.826,5.062c-1.062,0.425-5.229,0.314-5.396,0.346l-0.003,0.001
				c-0.143,0.021-3.907-0.089-4.382-0.053c-0.32,0.025-0.742,0.07-0.936,0.334c-0.109,0.146-0.146,0.315-0.106,0.529
				c0.088,0.45,1.021,1.201,1.845,1.862c0.551,0.449,1.077,0.872,1.409,1.235c0.433,0.479,0.594,0.812,0.505,1.031
				c-0.057,0.135-0.187,0.188-0.255,0.188l-0.019-0.296c0.001,0,0.062-0.15-0.452-0.725c-0.167-0.196-0.402-0.404-0.671-0.635
				c-0.067,0.048-0.132,0.095-0.2,0.145c-0.921,0.646-2.463,1.723-2.535,2.438c-0.017,0.134,0.028,0.24,0.117,0.343
				c0.396,0.425,1.983,0.351,7.253-2.423c2.062-1.084,4.62-2.747,6.279-3.865c-3.021,0.646-9.438,0.513-11.691,0.466
				c-0.423-0.009-0.756-0.021-0.805-0.016l-0.021-0.146l-0.051-0.141c0.008-0.006,0.012-0.006,0.026-0.01
				c0.049-0.01,0.183-0.003,0.854,0.012c2.491,0.058,10.069,0.218,12.441-0.688c0.59-0.408,0.958-0.672,0.973-0.68
				C748.797,740.642,750.232,738.848,750.036,737.12z M706.649,739.664c-0.087,0.188-0.244,0.329-0.438,0.396
				c-0.408,0.147-0.854-0.068-0.991-0.468c-0.066-0.195-0.054-0.405,0.029-0.592c0.088-0.188,0.239-0.33,0.438-0.398
				c0.041-0.016,0.097-0.026,0.146-0.034c0.364-0.06,0.725,0.151,0.852,0.503C706.747,739.267,706.739,739.479,706.649,739.664z"/>
			<path fill="#727272" d="M711.061,738.631c9.646-3.244,28.956-9.77,29.211-9.854c0.17-0.063,1.711-0.688,2.41-0.354
				c0.731,0.347,1.644,2.146,1.904,2.764c1.021,2.376,2.624,6.46,1.855,7.128c-0.936,0.813-5.459-1.108-5.81-1.301
				c-0.688-0.362-6.104-2.889-7.034-2.569c-0.019,0.005-0.051,0.018-0.059,0.03c-0.321,0.682,0.698,2.068,1.782,3.533l0.312,0.418
				c1.12,1.522,2.543,3.156,2.808,3.451c0.529,0.016,4.294,0.116,5.229-0.264c1.104-0.438,4.146-2.263,3.656-4.692
				c-0.359-1.788-2.469-6.533-2.492-6.592c-0.249-0.604-1.021-2.216-1.533-2.396c-2.697-0.949-30.553,9.505-30.837,9.609
				C712.456,737.544,711.5,737.88,711.061,738.631z"/>
			<path fill="#727272" d="M744.324,724.208l0.1-0.253c-0.955,0.394-5.021,1.911-11.938,4.472L744.324,724.208z"/>
			<path fill="#727272" d="M746.058,724.774c0.104-0.181-0.304-1.057-0.525-1.337c-0.037-0.053-0.35,0.021-0.886,0.412l0.046,0.099
				c0.004,0.016,0.354,0.729,0.595,1.036c0.058,0.066,0.146,0.102,0.246,0.091C745.75,725.062,745.98,724.907,746.058,724.774z"/>
			<path fill="#727272" d="M746.312,724.925c0.232-0.397-0.419-1.497-0.549-1.666c-0.091-0.106-0.223-0.137-0.377-0.112
				c-0.271,0.044-0.63,0.265-0.92,0.479c-0.455,0.254-18.736,6.996-29.654,11.014c-4.884,1.802-8.733,3.221-9.347,3.451
				c-0.884,0.338-1.414,0.752-1.574,1.221c-0.129,0.376,0.034,0.649,0.041,0.66c0.466,1.19,0.854,1.112,1.509,0.862
				c0.109-0.036,0.229-0.083,0.363-0.124c0.819-0.246,33.182-11.188,34.561-11.646c0.448-0.185,1.692-0.604,2.188-0.367
				c0.568,0.271,1.427,1.835,1.762,2.608c1.591,3.696,2.362,6.421,1.938,6.801c-0.143,0.119-0.678,0.326-2.771-0.312
				c-1.188-0.364-2.414-0.872-2.707-1.024c-0.056-0.03-6.087-2.979-7.265-2.591c-0.106,0.031-0.188,0.104-0.229,0.188
				c-0.396,0.835,0.631,2.229,1.813,3.828l0.31,0.422c0.976,1.327,2.167,2.729,2.646,3.281c0.181,0.003,0.303,0.021,0.327,0.021
				l0.004,0.318c0,0,0.005,0.062,0.002,0.062l0.005-0.001c0.172-0.025,4.344,0.08,5.397-0.347c1.237-0.494,4.346-2.444,3.815-5.102
				c-0.357-1.812-2.418-6.438-2.507-6.64c-0.097-0.23-0.969-2.312-1.709-2.568c-2.788-0.976-29.878,9.188-31.022,9.619
				c-0.054,0.021-1.291,0.449-1.69,1.502c-2.844,0.958-4.763,1.604-4.947,1.653c-0.14,0.04-0.266,0.093-0.384,0.133
				c-0.55,0.207-0.754,0.285-1.146-0.717c-0.015-0.03-0.105-0.2-0.021-0.445c0.1-0.266,0.417-0.656,1.4-1.032
				c0.315-0.121,1.526-0.564,3.312-1.229l35.67-12.688l0.021-0.062c0.135,0.251,0.319,0.588,0.479,0.789
				c0.112,0.143,0.289,0.213,0.495,0.195c0.169-0.015,0.35-0.079,0.497-0.186c-0.038-0.116-0.066-0.188-0.07-0.191l0.273-0.104
				c0.006,0.016,0.016,0.042,0.033,0.074C746.292,724.95,746.304,724.938,746.312,724.925z M711.05,738.642
				c0.438-0.756,1.396-1.094,1.409-1.098c0.28-0.104,28.139-10.562,30.836-9.613c0.521,0.184,1.286,1.796,1.529,2.4
				c0.024,0.056,2.141,4.805,2.492,6.589c0.481,2.438-2.556,4.254-3.651,4.698c-0.935,0.368-4.694,0.271-5.229,0.26
				c-0.26-0.295-1.682-1.924-2.802-3.451l-0.312-0.418c-1.084-1.47-2.104-2.854-1.786-3.535c0.012-0.013,0.039-0.024,0.062-0.028
				c0.938-0.313,6.354,2.206,7.037,2.568c0.349,0.188,4.871,2.108,5.805,1.304c0.771-0.668-0.835-4.755-1.856-7.13
				c-0.263-0.608-1.174-2.419-1.9-2.764c-0.696-0.335-2.237,0.287-2.412,0.354C740.015,728.864,720.699,735.393,711.05,738.642z
				 M744.424,723.959l-0.101,0.254l-11.842,4.214C739.405,725.866,743.469,724.348,744.424,723.959z M746.062,724.773
				c-0.076,0.133-0.308,0.286-0.53,0.302c-0.104,0.012-0.188-0.021-0.246-0.092c-0.24-0.306-0.59-1.021-0.594-1.036l-0.045-0.098
				c0.531-0.389,0.847-0.465,0.888-0.412C745.752,723.716,746.165,724.596,746.062,724.773z"/>
			<path fill="#727272" d="M735.331,745.78c-0.069-0.064-0.152-0.133-0.232-0.188c-0.045,0.021-0.085,0.062-0.134,0.089
				c-1.085,0.763-2.572,1.802-2.658,2.646c-0.021,0.219,0.04,0.408,0.197,0.569c0.707,0.746,3.124-0.004,7.604-2.354
				c3.354-1.766,7.987-5.056,8.033-5.084c1-0.71,2.381-2.594,2.162-4.368c-0.213-1.688-3.659-11.107-4.034-12.126
				c-0.059,0.09-0.136,0.163-0.229,0.228c0.519,1.416,3.771,10.354,3.972,11.938c0.21,1.721-1.229,3.521-2.041,4.095
				c-0.009,0.01-0.38,0.271-0.975,0.687c0.007-0.003,0.016-0.011,0.021-0.012l0.104,0.271c-0.241,0.095-0.535,0.171-0.875,0.247
				c-1.664,1.122-4.224,2.785-6.279,3.87c-5.271,2.769-6.854,2.843-7.255,2.415c-0.099-0.104-0.13-0.209-0.115-0.344
				c0.071-0.723,1.612-1.801,2.534-2.438C735.206,745.868,735.269,745.825,735.331,745.78z"/>
			<path fill="#727272" d="M746.281,724.963c-0.015-0.031-0.021-0.062-0.023-0.075l-0.272,0.104c0.003,0.012,0.03,0.08,0.07,0.191
				C746.144,725.123,746.224,725.049,746.281,724.963z"/>
			<path fill="#727272" d="M738.262,742.118c-0.002,0-0.083-0.094-0.213-0.239c-0.949-0.005-3.665-0.02-4.075,0.018
				c-0.033,0.005-0.099,0.011-0.168,0.021c-0.264,0.042-0.711,0.158-0.962,0.484c-0.163,0.208-0.218,0.471-0.161,0.768
				c0.103,0.561,1,1.271,1.948,2.039c0.15,0.125,0.312,0.257,0.465,0.382c0.074-0.049,0.146-0.104,0.208-0.146l0.17,0.235
				c-0.043,0.03-0.093,0.071-0.139,0.102c0.267,0.229,0.494,0.438,0.671,0.636c0.514,0.563,0.451,0.723,0.451,0.723l0.019,0.299
				c0.067-0.006,0.198-0.055,0.256-0.188c0.088-0.226-0.073-0.552-0.507-1.032c-0.325-0.361-0.854-0.786-1.409-1.233
				c-0.822-0.663-1.751-1.414-1.843-1.862c-0.039-0.216-0.008-0.39,0.106-0.53c0.19-0.265,0.604-0.37,0.925-0.396
				c0.466-0.036,4.221-0.019,4.369-0.016l-0.064-0.007L738.262,742.118z"/>
			<path fill="#727272" d="M738.372,741.872c-0.023,0-0.146-0.006-0.324-0.002c0.138,0.146,0.211,0.231,0.214,0.237l0.042,0.052
				l0.062,0.006c0.002,0,0.011,0,0.012,0L738.372,741.872z"/>
			<path fill="#727272" d="M735.309,745.443c-0.065,0.044-0.139,0.101-0.207,0.144c0.078,0.062,0.159,0.131,0.231,0.19
				c0.045-0.026,0.097-0.062,0.141-0.1L735.309,745.443z"/>
			<path fill="#727272" d="M746.247,742.416c0.278-0.193,0.536-0.366,0.76-0.52c-2.371,0.896-9.948,0.734-12.44,0.687
				c-0.674-0.021-0.807-0.021-0.854-0.013c-0.016,0.001-0.021,0.009-0.024,0.013l0.05,0.137l0.021,0.146
				c0.049-0.004,0.383,0.013,0.805,0.017C736.815,742.924,743.229,743.059,746.247,742.416z"/>
			<path fill="#727272" d="M747.013,741.896c-0.223,0.152-0.479,0.321-0.76,0.52c0.336-0.068,0.635-0.146,0.876-0.246l-0.104-0.272
				C747.018,741.893,747.012,741.896,747.013,741.896z"/>
			<path fill="#727272" d="M706.65,739.666c0.089-0.188,0.103-0.396,0.026-0.6c-0.128-0.349-0.48-0.562-0.85-0.503
				c-0.051,0.008-0.101,0.021-0.146,0.034c-0.193,0.07-0.352,0.212-0.438,0.398c-0.091,0.188-0.104,0.396-0.028,0.592
				c0.145,0.396,0.583,0.615,0.991,0.468C706.405,739.993,706.562,739.852,706.65,739.666z M706.389,739.539
				c-0.054,0.11-0.15,0.204-0.271,0.245c-0.022,0.014-0.062,0.021-0.088,0.021c-0.229,0.037-0.454-0.095-0.532-0.312
				c-0.044-0.12-0.033-0.25,0.021-0.367c0.062-0.115,0.146-0.203,0.275-0.247c0.256-0.092,0.523,0.045,0.612,0.29
				C706.446,739.292,706.439,739.424,706.389,739.539z"/>
		</g>
	</g>
	<g id="Cadena_2_">
		<path fill="none" stroke="#727272" stroke-width="1.5" stroke-linecap="round" stroke-miterlimit="10" d="M323.477,520.764
			c0,0,3.55-3.646,5.98-3.361c2.432,0.281,146.718,190.287,241.793,210.471c13.999,3.898,127.217,17.122,132.694,12.103"/>
		<path fill="none" stroke="#727272" stroke-width="3" stroke-linecap="round" stroke-miterlimit="10" stroke-dasharray="1.5,4" d="
			M323.477,520.764c0,0,3.55-3.646,5.98-3.361c2.432,0.281,146.718,190.287,241.793,210.471
			c13.999,3.898,127.217,17.122,132.694,12.103"/>
	</g>
	<g id="Barco_3">
		<g>
			<g id="Capa_22_copia_2_">
				<path fill="#36627A" d="M22.3,511.435c-1.159,0.242-4.863,8.266-3.69,14.598c1.176,6.332,4.553,20.998,6.495,23.414
					c1.944,2.416,4.38,6.736,4.38,6.736s-8.572,4.604-9.938,7.618c0,0,0.003,1.229,1.05,1.07c1.047-0.166,10.188-0.664,10.618,0.355
					c0.43,1.027,1.264,6.354,1.402,7.048c0.14,0.694-0.245,3.847-0.377,4.976c-0.055,0.469-2.859,4.979-2.346,6
					c0.519,1.021,4.314,1.058,6.43,1.006c2.114-0.047,13.387-7.604,14.959-8.989c1.574-1.39,2.013-18.189,2.013-18.189
					s-3.206-21.963-2.419-22.008c0.788-0.045,6.105-2.188,7.812-4.164c1.708-1.979,1.074-11.555,0.266-13.082
					C58.139,516.291,39.682,507.769,22.3,511.435z"/>
				<path fill="#6C808C" d="M30.919,572.034c0,0,1.826-0.37,1.931-0.146c0.105,0.229,0.505,0.861,0.419,2.082
					c-0.087,1.22,0.381,2.771-0.581,2.892c-0.962,0.117-1.624,0.116-1.624,0.116s-1.604,3.959-4.077,5.156
					c-2.472,1.199-4.135,0.791-2.615-0.775c1.518-1.562,4.374-3.411,4.101-4.057c-0.271-0.641-5.061,0.017-5.061,0.017l0.043-3.87
					c0,0,3.661-0.354,3.843-0.281c0.182,0.062,1.562-0.955,0.514-1.406c-1.048-0.452-5.559,0.007-4.839-1.592
					c0.72-1.604,0.545-1.584,2.25-1.797c1.706-0.224,3.886,0.625,4.855,1.797C31.044,571.336,30.919,572.034,30.919,572.034z"/>
			</g>
			<path fill="#FF0000" d="M128.078,559.148l-17.229-14.418l-72.279-4.104c22.56-4.644,65.304-11.433,128.988-15.354
				c45.75-2.812,84.083-3.109,101.812-2.216c32.238,1.639,53.926-0.235,59.435-0.801c-0.938,0.594-2.312,1.521-3.146,2.297
				c-0.633,0.588-1.188,1.383-1.972,2.479c-1.569,2.229-3.971,5.441-9.271,10.441l-0.529,0.479
				c-35.387,17.237-83.354,22.316-117.805,23.302C159.588,562.299,129.619,559.309,128.078,559.148z"/>
			<path d="M168.412,501.426c-0.308-0.624-0.554-1.092-0.752-1.439c-0.1-0.177-0.187-0.316-0.264-0.439
				c-0.383-0.611-0.509-0.613-0.586-0.615l-0.219,0.141c-0.103,0.191-0.218,0.402-0.354,0.626c-0.089,0.146-0.184,0.297-0.285,0.45
				c-0.051,0.072-0.103,0.15-0.153,0.229c-1.396,2.022-3.712,4.411-5.104,4.045c-0.664-0.181-1.062-0.625-1.222-1.379
				c-0.021-0.089-0.033-0.185-0.044-0.271c-0.011-0.1-0.021-0.19-0.021-0.303c-0.087-2.688,2.308-7.956,5.458-11.312
				c0.485-0.521,0.988-0.983,1.502-1.396c0.286-0.229,0.61-0.459,0.953-0.653c0.549-0.312,1.146-0.537,1.7-0.513
				c0.208,0.013,0.412,0.06,0.606,0.146c0.309,0.146,0.514,0.388,0.627,0.729c0.074,0.229,0.104,0.498,0.103,0.785
				c-0.022,2.006-1.729,5.062-1.751,5.097l-0.128,0.229l2.79,0.803L168.412,501.426z M168.755,491.499
				c-0.007-0.312-0.084-0.562-0.255-0.73c-0.034-0.033-0.072-0.062-0.113-0.098c-0.104-0.063-0.228-0.104-0.357-0.104
				c-0.093,0-0.19,0.021-0.3,0.062c-0.749,0.271-1.826,1.431-2.91,2.92l-0.048-0.062l-0.049-0.062l-0.948,1.646
				c-0.471,0.731-0.921,1.496-1.322,2.233c-0.67,1.23-1.202,2.405-1.472,3.29c-0.152,0.502-0.22,0.904-0.204,1.216
				c0.004,0.077,0.016,0.146,0.029,0.217c0.044,0.193,0.136,0.345,0.272,0.438c0.062,0.039,0.131,0.062,0.205,0.062
				c0.854,0,3.619-3.354,4.765-4.98c0.042-0.062,0.083-0.119,0.121-0.179c0.072-0.108,0.141-0.214,0.193-0.302
				c0.058-0.09,0.102-0.165,0.13-0.229c0.034-0.06,0.076-0.121,0.126-0.2c0.052-0.078,0.105-0.173,0.167-0.271
				C167.462,495.238,168.788,492.851,168.755,491.499z"/>
			<path fill="#3FA9F5" d="M194.62,492.438c-1.104,0.148-4.982,0.778-8.344,1.419c-0.215,0.038-0.426,0.079-0.637,0.121
				c-0.109,0.021-0.218,0.045-0.326,0.062c-0.461,0.092-0.906,0.188-1.33,0.276c-0.133,0.027-0.263,0.062-0.391,0.095
				c-0.318,0.069-0.625,0.146-0.908,0.224c-0.115,0.03-0.227,0.062-0.333,0.097c-0.023,0.004-0.053,0.011-0.087,0.021
				c-1.036,0.229-6.941,1.604-7.823,3.137c-0.028,0.056-0.053,0.097-0.067,0.146c-0.519,1.479-1.779,9.771-1.985,11.616h-3.531
				l-1.238-3.121l0.479-4.438l0.186-0.088l0,0l0,0c-0.011-0.021-0.021-0.041-0.028-0.062c-0.013-0.021-0.021-0.042-0.031-0.062
				l3.059-5.382l0.048,0.012l0,0l0,0l0.059-0.191l0.044-0.078l0.078-0.143l4.573-9.622l0.701-0.241l0.703-0.246l2.056-11.222
				c0.1,0,0.239-0.001,0.415-0.001c1.197,0,5.199,0.033,6.348,0.475C187.275,475.604,191.907,485.812,194.62,492.438z"/>
			<path d="M166.521,495.692c0.021,0,0.035-0.006,0.049-0.009c0.04-0.011,0.074-0.028,0.104-0.059
				c-0.202,0.354-0.405,0.688-0.604,1.007c-0.112,0.229-0.329,0.562-0.606,0.948c-0.046-0.104-0.062-0.229-0.063-0.326
				c-0.002-0.174,0.034-0.312,0.034-0.312l0.062-0.215l-1.957-0.412l0.819-1.434c0.158-0.23,0.316-0.465,0.478-0.688
				C166.025,495.566,166.382,495.696,166.521,495.692z"/>
			<path d="M166.621,496.638c-0.05,0.081-0.091,0.146-0.126,0.202c-0.028,0.062-0.072,0.142-0.13,0.229
				c-0.055,0.089-0.121,0.188-0.193,0.3c-0.038,0.062-0.078,0.114-0.121,0.181c-1.146,1.637-3.91,4.98-4.765,4.98
				c-0.074,0-0.146-0.021-0.205-0.062c-0.139-0.094-0.229-0.232-0.272-0.438c-0.015-0.062-0.024-0.141-0.029-0.215
				c-0.017-0.312,0.051-0.714,0.204-1.218c0.27-0.884,0.802-2.059,1.472-3.29c0.401-0.737,0.854-1.502,1.322-2.232l0.948-1.646
				l0.049,0.062l0.048,0.062c1.083-1.485,2.161-2.647,2.91-2.92c0.107-0.038,0.207-0.062,0.3-0.062c0.135,0,0.253,0.036,0.357,0.104
				c0.042,0.023,0.08,0.062,0.113,0.097c0.171,0.175,0.248,0.429,0.255,0.73c0.029,1.354-1.293,3.735-1.972,4.86
				C166.727,496.467,166.669,496.56,166.621,496.638z M161.344,500.724c-0.324,1.066-0.186,1.328-0.13,1.385
				c0.687-0.13,2.75-2.493,3.983-4.158c-0.225-0.296-0.229-0.67-0.202-0.897l-1.755-0.371
				C162.4,498.112,161.69,499.574,161.344,500.724z M164.359,494.886l-0.822,1.434l1.957,0.414l-0.061,0.212
				c-0.001,0.003-0.037,0.146-0.035,0.312c0.001,0.104,0.02,0.227,0.063,0.328c0.277-0.396,0.495-0.729,0.606-0.949
				c0.198-0.312,0.402-0.65,0.604-1.006c-0.03,0.021-0.064,0.045-0.104,0.059c-0.013,0.003-0.025,0.007-0.049,0.008
				c-0.141,0.004-0.496-0.127-1.688-1.497C164.677,494.421,164.518,494.65,164.359,494.886z M168.157,491.015
				c-0.036-0.021-0.078-0.033-0.128-0.033c-0.579,0-1.737,1.216-2.944,2.872c0.517,0.596,1.099,1.196,1.355,1.381
				c0.144-0.215,0.412-0.301,0.636-0.325C168.001,493.174,168.706,491.381,168.157,491.015z"/>
			<path fill="#FFFFFF" stroke="#FFFFFF" stroke-miterlimit="10" d="M37.431,537.641l0.097-0.062l-0.069-5.701l3.559-2.174
				l15.577,0.271l0.037-0.018l6.453-2.39l0.275-13.31L75,511.415l24.903-0.066l1.312-2.411l21.093-1.172l0.138-2.14l4.386-0.443
				l-0.396-0.312c-0.006-0.009-0.619-0.496-0.604-1.097c0.012-0.349,0.232-0.68,0.664-0.979c0.32-0.229,1.259-0.493,3.908-0.493
				c2.43,0,5.401,0.219,7.57,0.379c1.07,0.079,1.918,0.146,2.413,0.155c1.48,0.047,3.122,1.162,4.016,2.179
				c0.55,0.623,0.842,1.231,0.801,1.664c-0.131,1.377-0.355,1.709-1.345,1.896l0.058,0.438l14.567-1.383l8.99-0.85l1.229,3.156h3.89
				l0.023-0.468c0.018-0.1,1.455-10.041,1.991-11.584c0.42-1.207,5.694-2.617,7.689-3.057c3.523-0.985,10.872-2.021,12.223-2.203
				l0.021,0.051l0.15-0.018c0.002,0,0.289-0.022,0.688-0.022c1.128,0,1.949,0.188,2.316,0.521c0.4,0.366,0.403,1.104,0.407,1.815
				c0.003,0.616,0.005,1.197,0.234,1.629c0.479,0.89,4.57,7.804,4.745,8.099l0.058,0.097l0.105,0.008
				c0.602,0.034,59.926,3.542,73.165,5.171c1.026,0.126,2.194,0.245,3.475,0.425c20.029,2.82,48.084,8.231,48.084,8.231
				c2.172,0.037,3.031,0.721,3.104,1.294c0.07,0.526-0.479,1.062-1.379,1.322c-0.022,0.017-0.631,0.318-1.453,0.812
				c-3.641,0.396-25.598,2.571-59.904,0.832c-17.74-0.896-56.131-0.545-101.896,2.271c-65.2,4.021-105.44,10.438-127.715,15.104
				l-0.974,0.205c-1.848-0.021-2.505-0.211-2.59-0.312c-0.031-0.062-0.071-0.108-0.111-0.166c-0.095-0.132-0.143-0.2-0.124-0.31
				C34.997,539.336,35.814,538.659,37.431,537.641z"/>
			<path fill="#FFFFFF" stroke="#FFFFFF" stroke-miterlimit="10" d="M127.521,559.303l0.062,0.009
				c0.25,0.022,21.625,2.258,51.067,2.258c5.098,0,10.434-0.062,15.941-0.228c34.302-0.979,82.511-5.729,117.909-22.771
				c-0.101,0.088-0.188,0.17-0.273,0.256c-1.22,1.128-2.434,2.323-3.721,3.593c-8.133,8.006-18.254,17.971-44.363,25.562
				c-6.007,1.742-12.438,2.562-20.246,2.562c-6.688,0-13.549-0.185-20.812-0.812c-7.974-0.688-16.214-1.397-25.028-1.397
				c-1.354,0-2.705,0.021-4.017,0.053c-1.324,0.035-2.875,0.057-4.61,0.057c-34.329,0-138.904-7.186-143.244-7.464l-7.756-19.855
				l71.914,3.771L127.521,559.303z"/>
		</g>
		<g id="_x33__2_">
			<path fill="#996234" d="M147.812,508.439c0,0-1.388-1.608-1.084-3.52c0.304-1.896,0.731-2.871,1.898-3.205
				s2.748-0.483,3.07-0.318c0.325,0.163,4.26,1.729,5.157,2.034c0.899,0.312,3.354,1.938,3.404,2.685
				c0.05,0.748,0.194,0.987,0.498,1.724c0.303,0.729,0.765,4.024,0.765,4.024l-5.933,0.652c0,0,0.063-2.312-0.373-2.478
				c-0.439-0.155-6.235-0.748-6.626-0.974C148.197,508.851,147.812,508.439,147.812,508.439z"/>
			<path fill="#EF45B7" d="M125.839,499.185c0,0-0.312-2.938-0.438-2.938s4.117-0.25,5.125-1c1.25-0.938,8.125-0.875,8.125-0.875
				l4.562,4.188l5.264,3.96c0,0-1.514,4.979-2.264,4.979c-0.354,0-4.109-3.401-7.5-3.5c-3.784-0.108-4.062,2.062-3.188,6.75
				c0.166,0.887-7.812-4.438-7.812-4.438s-1.506-1.125-1.878-3.125S125.839,499.185,125.839,499.185z"/>
			<path fill="#996234" d="M134.9,469.06c0.188,0.062,1.562-1.625,1.5-2.188c-0.062-0.563-0.623-0.938-0.749-0.938
				s-1.438-1.562-0.751-2.25c0.688-0.688-1.5-3.5-0.688-4.875s1.812-3.5,3.688-4.25s3.062-1.375,4-0.625s3.188,2.875,3.25,3.688
				c0.062,0.812,0.438,2.375,0,4.062c-0.438,1.688-0.438,1.938-0.5,3.75c-0.062,1.812-0.875,2.938-1.438,3.627
				c-0.563,0.689-0.312,1.623-1.375,1.873s0.25,1.938-0.25,2.562c-0.5,0.625-6.375-0.938-6.25-3.375
				C135.397,468.975,134.9,469.06,134.9,469.06z"/>
			<path fill="#301705" d="M135.089,466.622c0,0-1.062,0-0.938-0.875s0.354-2.375-0.01-2.75c-0.364-0.375-1.49-1.062-1.115-2.125
				c0.375-1.063,0.812-1.688,0.562-2.688s0-1.812,0.812-2.312s1.445-0.375,2.379-0.812c0.937-0.438,1.687-1.5,2.746-1.688
				c1.062-0.188,2.312-0.938,3.188,0c0.876,0.938,1.5,0.938,1.75,1.562s-0.062-0.062,0.312,1.438s1.125,1.812,0.625,2.625
				c-0.5,0.812-0.938-0.688-1.375-0.75c-0.437-0.062-0.188-0.75-1.375,0s-0.75,0.5-2.5,0.125s-2.688-1.375-3.22,0.438
				c-0.53,1.812-0.22,1.5,0,2.938c0.22,1.438,0,2.062,0,2.062s-0.092-0.688-0.78-0.562c-0.688,0.125-0.812,0.25-0.75,1
				s0.438,1.625,0.312,1.875S135.089,466.622,135.089,466.622z"/>
			<path fill="#996234" d="M143.714,480.872c0,0,4.125,6.75,5.188,7.375s3.25,1.875,4.062,2.062c0.812,0.188,5.938,1,8.125,0.875
				s2.562-0.784,3.375,0.016c0.812,0.804,1.188,1.359,1.5,0.734s0.125-0.75,0-1.688c-0.125-0.938,0-1.438,0.875-1.562
				s2.213,0.875,1.854-0.25c-0.354-1.125-0.229-1.625-1.669-1.5c-1.438,0.125-1.688,1.188-2.688,1.312
				c-1,0.123-1.438,0.125-3.188-0.125s-6.688-3.188-7.75-3.25c-1.062-0.062-1.125-0.875-1.812-1.562
				c-0.688-0.688-3.438-4.062-3.438-4.062"/>
			<path fill="#8BC7E8" d="M125.4,484.31c0.25-3.5,1.5-9.062,3.625-11.5c2.125-2.438,2.75-2.375,4.312-3.062
				c1.562-0.688,2.375-0.5,2.375-0.5s0.082,2.5,1.354,2.938c1.272,0.438,4.271,1.25,4.459,0.75s-0.249-0.812,0.125-1.253
				c0.374-0.438,1-1.622,1.438-1.372c0.437,0.25,2.625,1.124,2.875,2.25s0.5,2.625,1.125,3.5s1,2.25,1,2.25s0.188,0.5,0.375,1.062
				c0.187,0.562-1.625,0.5-2.812,2.812c-1.187,2.312-2.5-1.312-2.5-1.312s1.438-0.938,0.125,1.062c0,0-2,3.062-2.125,3.5
				c-0.125,0.438-0.625,1.562-0.562,2.688c0.062,1.127,0.688,2.312,0.562,3.5c-0.126,1.188,0.025,2.25-1.456,2.812
				c-1.479,0.562-3.104,0.438-4.919,0.625c-1.812,0.188-4.047,0.091-4.875,0.812c-0.828,0.723-1.625,0.125-2.625,0.375
				s-1.062,0.875-1.875,0c-0.812-0.875,0.479-3.625,0.271-4.25s-0.75-2-0.542-4.062C125.337,485.872,125.4,484.31,125.4,484.31z"/>
			<path fill="#996234" d="M132.626,488.527c0,0,1.325,4.354,2.068,5.188c0.744,0.828,1.933,2.75,2.562,3.494
				c0.631,0.746,6.226,6.479,6.897,6.979c0.677,0.499,3.919,3.354,3.919,3.354l4.6-0.527c0,0-3.046-3.262-4.543-4.854
				c-1.498-1.596-6.453-7.729-6.736-8.282c-0.283-0.561-1.893-2.234-2.329-3.014c-0.436-0.771-0.508-2.373-0.87-3.832
				c-0.359-1.459-0.981-3.347-0.981-3.347s-5.779-0.688-5.955,0.673C131.083,485.72,132.626,488.527,132.626,488.527z"/>
			<path fill="#996234" d="M135.65,510.685c0,0-1.271-1.708-0.833-3.583s0.935-2.812,2.12-3.062c1.188-0.25,2.776-0.291,3.088-0.104
				c0.312,0.188,4.125,2.021,5,2.396s3.205,2.166,3.205,2.916s0.125,1,0.375,1.75s0.562,2.875,0.562,2.875l-6.002,0.637
				c0,0,0.182-1.512-0.245-1.695c-0.43-0.188-6.167-1.188-6.542-1.438S135.65,510.685,135.65,510.685z"/>
			<path fill="#996234" d="M142.167,516.731"/>
		</g>
	</g>
	<g id="Capa_8">
		<path fill="none" stroke="#000000" stroke-miterlimit="10" d="M247.645,468.24"/>
		<path fill="#F7931E" d="M236.412,503.12c-0.053-0.396-0.879-2.506-0.509-2.941c0.369-0.437,1.688-1.56,2.145-1.978
			s1.098-0.854,1.281-1.256c0.184-0.402,0.08-1.269,0.33-1.256c0.251,0.012,16.114,0.665,16.243,0.717
			c0.13,0.049,1.953,1.354,2.106,1.888c0.151,0.532,0.954,1.181,1.153,1.627c0.199,0.446,0.854,2.096,1.191,3.074
			c0.337,0.978,0.468,1.99,0.497,3.306c0.03,1.314,0.059,2.648-0.14,3.155c-0.197,0.507-0.702,1.032-0.815,1.126
			c-0.114,0.094,0.528,0.165-0.623,0.093s-5.74-1.239-6.773-0.628c-1.034,0.611-2.441,0.727-3.047,0.566s-0.395,0.004-0.939-0.534
			c-0.545-0.539-0.867-1.189-1.085-1.209c-0.219-0.021-0.048-0.362-0.702,0.31s-0.432,0.596-0.654,0.672
			c-0.223,0.077-1.829,0.751-2.265,0.731c-0.438-0.019-0.084,0.025-0.653-0.028c-0.568-0.055-0.452,0.316-0.568-0.055
			c-0.116-0.37-0.148-1.729-0.718-2.191C241.3,507.846,236.412,503.12,236.412,503.12z"/>
		<path fill="#FFCBA1" d="M261.163,482.366c0.034,0.221-0.422,5.584-0.062,6.345c0.36,0.76,1.012,3.854,1.048,4.031
			c0.036,0.176,0.192,2.591,0.064,3.505c-0.128,0.913,0.102,1.668,0.255,3.164c0.152,1.494,1.88,5.993,1.825,6.253
			c-0.056,0.26-0.058,1.311-0.058,1.311l-1.872,0.749c0,0-0.586,0.368-0.607,0.852c-0.021,0.479,0.4,0.85,0.619,0.857
			c0.219,0.011,3.224,0.36,3.714,0.163c0.491-0.195,2.021-0.174,2.465-0.285c0.442-0.109,1.111-0.389,1.111-0.389
			s0.564,0.113,0.021-0.479c-0.543-0.595-1.257-1.281-1.249-1.456c0.008-0.177-0.282-1.545-0.253-2.2
			c0.028-0.655-0.153-7.449-0.824-10.106c-0.671-2.654-1.068-4.557-0.969-4.813c0.098-0.257-0.979-9.586-0.979-9.586
			L261.163,482.366z"/>
		<path fill="#FFCBA1" d="M235.95,480.29l4.08,2.808c0,0-3.301,7.342-3.812,8.02c-0.512,0.679-0.227,0.165-0.512,0.679
			c-0.286,0.513-1.161,3.494-1.183,3.978c-0.021,0.479-1.715,4.132-2.156,5.202c-0.441,1.073-1.188,3.1-1.263,3.841
			c-0.077,0.738-0.406,1.252-0.066,1.484s0.938,0.566,1.151,0.706c0.213,0.144,0.61,1.054,0.515,1.216
			c-0.094,0.161-0.408,0.322-0.976,0.297c-0.568-0.023-0.952-0.042-0.952-0.042l-2.544-0.11l-3.146-0.141
			c0,0,0.144-1.264,0.365-1.341c0.222-0.078,1.159-0.475,1.298-0.644c0.14-0.169,3.495-13.727,3.824-14.234
			c0.329-0.512,1.667-4.043,1.944-4.381s3.071-8.095,3.071-8.095L235.95,480.29z"/>
		<path fill="#FFCBA1" d="M249.609,509.906c0.005-0.118-0.521,0.056-0.081-2.254c0.44-2.312,2.307-3.453,3.4-4.076
			c1.094-0.622,3.056-1.246,4.079-0.254c1.021,0.993,2.335,1.644,2.511,2.599c0.175,0.955-0.035,2.131-0.127,2.877
			c-0.093,0.746-0.808,2.65-0.827,3.083c-0.019,0.437-8.731-0.271-8.731-0.271L249.609,509.906z"/>
		<path fill="#FFCBA1" d="M241.624,511.232c0,0,1.555-1.761,1.797-1.942c0.241-0.185,2.022-0.922,2.107-1.074
			c0.085-0.15,0.451-0.521,0.061-1.356c-0.392-0.833-1.037-2.925-1.556-3.529c-0.518-0.605-4.734-1.958-5.631-1.92
			c-0.896,0.039-0.995-0.352-1.996,0.303c-1.001,0.654-1.619,1.443-1.872,1.898c-0.254,0.456-0.856,1.79-0.913,2.177
			c-0.055,0.386,0.062,2.102-0.118,2.677c-0.181,0.576-0.106,2.241-0.106,2.241L241.624,511.232z"/>
		<path fill="#FFF599" d="M234.129,479.859c0.137-0.125,0.866-4.734,2.003-6.697c1.138-1.965,4.292-3.008,5.271-3.358
			c0.979-0.35,5.747-2.24,6.273-2.263c0.526-0.02,8.495,0.945,8.883,1.093c0.388,0.148,7.183,1.938,7.683,3.492
			s2.013,7.969,2.09,8.191c0.078,0.223-0.063,1.44-0.063,1.44s-0.766,0.491-2.138,0.824s-3.48,0.503-3.657,0.539
			c-0.177,0.036-0.43,2.783-0.43,2.783s-0.412,5.367-0.392,5.894c0.021,0.525,0.057,3.681-0.554,4.616
			c-0.611,0.936-4.882,1.492-5.489,1.377c-0.608-0.113-5.771-1.174-6.696-1.039c-0.926,0.134-5.377-0.193-6.517-0.157
			c-1.14,0.038-1.784-0.253-1.845-0.869c-0.06-0.613-0.103-4.602,0.087-4.941s0.924-4.074,0.932-4.249
			c0.008-0.175-0.182-1.847-0.211-2.154c-0.03-0.308-1.159-1.496-1.456-1.729c-0.296-0.232-2.179-1.234-2.565-1.383
			c-0.388-0.148-1.228-0.975-1.218-1.191C234.13,479.86,234.129,479.859,234.129,479.859z"/>
		<path fill="#FFCBA1" d="M245.083,460.859c0,0-1.421-5.491,3.32-6.771c4.74-1.279,6.278,4.568,6.32,5.577
			c0.044,1.008-0.153,6.473-0.048,7.046c0.105,0.574,0.463,5.362-1.169,5.64c-1.632,0.279-3.684,1.151-5.489-1.599
			c-0.412-0.68-0.356-2.818-0.356-2.818S246.373,467.353,245.083,460.859z"/>
		<path fill="#908DFF" d="M254.47,458.461c0,0,0.454-5.251-5.304-4.483c-4.828,0.646-5.182,3.302-4.769,6.393l0.176-0.023
			c-3.107,6.193,6.761,3.765,9.438-1.231l0,0L254.47,458.461z"/>
	</g>
</g>
<g id="Capa_3">
	<polygon id="La_mar_3_m" opacity="0.6" fill="#39BCC4" enable-background="new    " points="0,548.5 800,548.5 800.981,799.162 
		0.982,799.162 	"/>
	<path fill="#D8BD80" d="M800.557,739.949c-37.881,6.85-61.19,5.146-88.212,5.051c-24.051-0.033-33.278-3.914-75.512-7.119
		c-26.088-0.787-46.578-0.928-74.209,0.48c-20.113,1.021-66.365,3.424-87.148,0.188c-52.643-10.095-139.626-8.536-184.812-1.551
		c-45.187,6.986-25.674-4.301-54.43-3.225c-28.755,1.062-24.134,5.375-38.512,1.604c-14.377-3.762-20.67-15.181-32.92-13.012
		c-1.388,0.829,0.264,7.501-30.5-8.625c-10.783-5.652-23.201-5.499-30.875-5.625c-7.625-0.125-24.619,3.9-34.375-3.625
		c-11.25-6.604-43.828,16.413-55.125,22.854C2.63,733.811-3,730.024-3,730.024l1.75,72.226l802.232,1L800.557,739.949z"/>
</g>
<g id="Bimbolles">
	<circle opacity="0.5" fill="#FFFFFF" enable-background="new    " cx="43.653" cy="576.654" r="2.824"/>
	<circle opacity="0.5" fill="#FFFFFF" enable-background="new    " cx="52.333" cy="566.118" r="1.936"/>
	<circle opacity="0.5" fill="#FFFFFF" enable-background="new    " cx="70.977" cy="570.857" r="2.391"/>
	<circle opacity="0.5" fill="#FFFFFF" enable-background="new    " cx="32.854" cy="575.773" r="2.824"/>
	<circle opacity="0.5" fill="#FFFFFF" enable-background="new    " cx="66.109" cy="582.608" r="2.824"/>
	<circle opacity="0.5" fill="#FFFFFF" enable-background="new    " cx="64.394" cy="567.568" r="2.824"/>
	<circle opacity="0.5" fill="#FFFFFF" enable-background="new    " cx="55.814" cy="576.549" r="2.824"/>
	<circle opacity="0.3" fill="#FFFFFF" enable-background="new    " cx="34.176" cy="579.89" r="2.824"/>
	<circle opacity="0.5" fill="#FFFFFF" enable-background="new    " cx="35.751" cy="570.589" r="1.568"/>
	<circle opacity="0.5" fill="#FFFFFF" enable-background="new    " cx="32.117" cy="574.314" r="1.568"/>
	<circle opacity="0.5" fill="#FFFFFF" enable-background="new    " cx="42.42" cy="569.304" r="1.568"/>
	<circle opacity="0.5" fill="#FFFFFF" enable-background="new    " cx="45.84" cy="566.7" r="1.568"/>
	<circle opacity="0.5" fill="#FFFFFF" enable-background="new    " cx="61.214" cy="585.865" r="1.568"/>
	<circle opacity="0.5" fill="#FFFFFF" enable-background="new    " cx="62.064" cy="574.937" r="1.568"/>
	<circle opacity="0.5" fill="#FFFFFF" enable-background="new    " cx="49.225" cy="572.257" r="1.568"/>
	<circle opacity="0.5" fill="#FFFFFF" enable-background="new    " cx="51.538" cy="583.512" r="1.568"/>
	<circle opacity="0.5" fill="#FFFFFF" enable-background="new    " cx="37.819" cy="578.487" r="0.747"/>
	<circle opacity="0.5" fill="#FFFFFF" enable-background="new    " cx="48.951" cy="578.249" r="0.747"/>
	<circle opacity="0.5" fill="#FFFFFF" enable-background="new    " cx="57.528" cy="568.426" r="0.747"/>
	<circle opacity="0.5" fill="#FFFFFF" enable-background="new    " cx="38.529" cy="574.607" r="0.747"/>
	<circle opacity="0.5" fill="#FFFFFF" enable-background="new    " cx="26.402" cy="576.936" r="0.747"/>
	<circle opacity="0.5" fill="#FFFFFF" enable-background="new    " cx="25.859" cy="572.458" r="0.747"/>
	<circle opacity="0.5" fill="#FFFFFF" enable-background="new    " cx="29.426" cy="572.099" r="0.747"/>
	<circle opacity="0.5" fill="#FFFFFF" enable-background="new    " cx="40.898" cy="582.618" r="0.747"/>
	<circle opacity="0.5" fill="#FFFFFF" enable-background="new    " cx="59.393" cy="563.189" r="0.747"/>
	<circle opacity="0.5" fill="#FFFFFF" enable-background="new    " cx="68.88" cy="564.371" r="0.747"/>
	<circle opacity="0.5" fill="#FFFFFF" enable-background="new    " cx="38.85" cy="567.571" r="0.747"/>
	<circle opacity="0.5" fill="#FFFFFF" enable-background="new    " cx="29.446" cy="577.594" r="0.746"/>
	<circle opacity="0.5" fill="#FFFFFF" enable-background="new    " cx="32.08" cy="569.621" r="0.798"/>
	<circle opacity="0.2" fill="#FFFFFF" enable-background="new    " cx="61.719" cy="574.82" r="5.476"/>
	<circle opacity="0.1" fill="#FFFFFF" enable-background="new    " cx="51.422" cy="573.521" r="8.006"/>
	<circle opacity="0.1" fill="#FFFFFF" enable-background="new    " cx="34.354" cy="575.985" r="8.006"/>
	<circle opacity="0.1" fill="#FFFFFF" enable-background="new    " cx="42.53" cy="572.469" r="8.006"/>
	<circle display="none" opacity="0.1" fill="#FFFFFF" enable-background="new    " cx="64.786" cy="568.625" r="8.006"/>
	<circle opacity="0.1" fill="#FFFFFF" enable-background="new    " cx="68.62" cy="579.305" r="8.006"/>
	<circle display="none" opacity="0.1" fill="#FFFFFF" enable-background="new    " cx="50.488" cy="582.674" r="8.006"/>
	<circle opacity="0.1" fill="#FFFFFF" enable-background="new    " cx="60.008" cy="583.109" r="8.006"/>
	<path display="none" opacity="0.1" fill="#FFFFFF" enable-background="new    " d="M57.331,616.929
		c6.52,0.298,12.046-4.745,12.345-11.266c0.298-6.519-4.745-12.046-11.265-12.345c-6.519-0.298-12.044,4.746-12.343,11.265
		C45.769,611.104,50.812,616.63,57.331,616.929z"/>
	<path display="none" opacity="0.1" fill="#FFFFFF" enable-background="new    " d="M36.227,637.663
		c6.52,0.298,12.046-4.744,12.345-11.266c0.298-6.518-4.745-12.046-11.265-12.344c-6.518-0.298-12.045,4.745-12.343,11.265
		C24.666,631.839,29.709,637.365,36.227,637.663z"/>
	<g>
		<circle opacity="0.5" fill="#FFFFFF" enable-background="new    " cx="82.16" cy="575.877" r="4.168"/>
		<circle opacity="0.5" fill="#FFFFFF" enable-background="new    " cx="94.972" cy="560.326" r="2.857"/>
		<circle opacity="0.5" fill="#FFFFFF" enable-background="new    " cx="122.488" cy="567.322" r="3.529"/>
		<circle opacity="0.5" fill="#FFFFFF" enable-background="new    " cx="121.952" cy="593.027" r="4.168"/>
		<circle opacity="0.5" fill="#FFFFFF" enable-background="new    " cx="115.304" cy="584.666" r="4.168"/>
		<circle opacity="0.5" fill="#FFFFFF" enable-background="new    " cx="112.773" cy="562.467" r="4.168"/>
		<circle opacity="0.5" fill="#FFFFFF" enable-background="new    " cx="100.109" cy="575.723" r="4.168"/>
		<circle opacity="0.3" fill="#FFFFFF" enable-background="new    " cx="68.173" cy="580.654" r="4.168"/>
		<circle opacity="0.5" fill="#FFFFFF" enable-background="new    " cx="70.496" cy="566.926" r="2.314"/>
		<circle opacity="0.5" fill="#FFFFFF" enable-background="new    " cx="65.134" cy="572.424" r="2.314"/>
		<circle opacity="0.5" fill="#FFFFFF" enable-background="new    " cx="80.341" cy="565.028" r="2.314"/>
		<circle opacity="0.5" fill="#FFFFFF" enable-background="new    " cx="85.387" cy="561.187" r="2.314"/>
		<circle opacity="0.5" fill="#FFFFFF" enable-background="new    " cx="108.079" cy="589.472" r="2.314"/>
		<circle opacity="0.5" fill="#FFFFFF" enable-background="new    " cx="109.333" cy="573.343" r="2.314"/>
		<circle opacity="0.5" fill="#FFFFFF" enable-background="new    " cx="90.384" cy="569.387" r="2.314"/>
		<circle opacity="0.5" fill="#FFFFFF" enable-background="new    " cx="93.797" cy="585.998" r="2.314"/>
		<circle opacity="0.5" fill="#FFFFFF" enable-background="new    " cx="73.549" cy="578.583" r="1.102"/>
		<circle opacity="0.5" fill="#FFFFFF" enable-background="new    " cx="89.98" cy="578.231" r="1.102"/>
		<circle opacity="0.5" fill="#FFFFFF" enable-background="new    " cx="102.638" cy="563.733" r="1.102"/>
		<circle opacity="0.5" fill="#FFFFFF" enable-background="new    " cx="74.596" cy="572.856" r="1.102"/>
		<circle opacity="0.5" fill="#FFFFFF" enable-background="new    " cx="56.697" cy="576.292" r="1.102"/>
		<circle opacity="0.5" fill="#FFFFFF" enable-background="new    " cx="55.896" cy="569.685" r="1.102"/>
		<circle opacity="0.5" fill="#FFFFFF" enable-background="new    " cx="61.162" cy="569.153" r="1.102"/>
		<circle opacity="0.5" fill="#FFFFFF" enable-background="new    " cx="78.094" cy="584.681" r="1.102"/>
		<circle opacity="0.5" fill="#FFFFFF" enable-background="new    " cx="105.391" cy="556.004" r="1.102"/>
		<circle opacity="0.5" fill="#FFFFFF" enable-background="new    " cx="119.394" cy="557.748" r="1.102"/>
		<circle opacity="0.5" fill="#FFFFFF" enable-background="new    " cx="75.072" cy="562.472" r="1.102"/>
		<circle opacity="0.5" fill="#FFFFFF" enable-background="new    " cx="61.19" cy="577.265" r="1.102"/>
		<circle opacity="0.5" fill="#FFFFFF" enable-background="new    " cx="65.079" cy="565.498" r="1.178"/>
		<circle opacity="0.2" fill="#FFFFFF" enable-background="new    " cx="108.825" cy="573.171" r="8.082"/>
		<path opacity="0.1" fill="#FFFFFF" enable-background="new    " d="M93.085,583.058c6.52,0.299,12.046-4.744,12.345-11.265
			c0.298-6.52-4.745-12.047-11.265-12.345c-6.519-0.299-12.045,4.746-12.344,11.264C81.524,577.233,86.567,582.759,93.085,583.058z"
			/>
		<path opacity="0.1" fill="#FFFFFF" enable-background="new    " d="M67.895,586.696c6.52,0.299,12.047-4.744,12.345-11.265
			c0.298-6.52-4.745-12.047-11.264-12.345c-6.519-0.299-12.045,4.745-12.344,11.265C56.333,580.872,61.377,586.397,67.895,586.696z"
			/>
		<circle opacity="0.1" fill="#FFFFFF" enable-background="new    " cx="85.387" cy="588.312" r="11.816"/>
		<circle opacity="0.1" fill="#FFFFFF" enable-background="new    " cx="119.01" cy="579.79" r="11.816"/>
		<path opacity="0.1" fill="#FFFFFF" enable-background="new    " d="M105.759,597.211c6.52,0.298,12.046-4.745,12.345-11.267
			c0.298-6.519-4.745-12.046-11.265-12.344c-6.519-0.298-12.045,4.745-12.344,11.265C94.198,591.386,99.24,596.911,105.759,597.211z
			"/>
	</g>
</g>
</svg>
