<?xml version="1.0" encoding="utf-8"?>
<!-- Generator: Adobe Illustrator 16.0.0, SVG Export Plug-In . SVG Version: 6.00 Build 0)  -->
<!DOCTYPE svg PUBLIC "-//W3C//DTD SVG 1.1//EN" "http://www.w3.org/Graphics/SVG/1.1/DTD/svg11.dtd">
<svg version="1.1" id="Capa_1" xmlns="http://www.w3.org/2000/svg" xmlns:xlink="http://www.w3.org/1999/xlink" x="0px" y="0px"
	 width="800px" height="800px" viewBox="0 0 800 800" enable-background="new 0 0 800 800" xml:space="preserve">
<g id="Capa_1_1_">
	<g id="_x33_">
		<g id="Cèl_2_">
			
				<linearGradient id="SVGID_1_" gradientUnits="userSpaceOnUse" x1="401.3379" y1="-472.0088" x2="1200.5" y2="-472.0088" gradientTransform="matrix(-4.371139e-08 -1 1 -4.371139e-08 872.5 1200.4995)">
				<stop  offset="0.1444" style="stop-color:#FFFFFF"/>
				<stop  offset="1" style="stop-color:#00C3FF"/>
			</linearGradient>
			<polygon fill="url(#SVGID_1_)" points="0,0 800,0 800.981,799.162 0.982,799.162 			"/>
		</g>
		<g id="Ancla_copia_2">
			<path fill="#727272" d="M746.015,724.956c0.235-0.4-0.419-1.497-0.548-1.668c-0.092-0.108-0.223-0.137-0.374-0.112
				c-0.273,0.044-0.633,0.262-0.923,0.479c-0.455,0.256-18.736,6.996-29.657,11.017c-4.881,1.797-8.729,3.216-9.343,3.45
				c-0.885,0.336-1.414,0.752-1.576,1.221c-0.129,0.377,0.033,0.647,0.042,0.659c0.463,1.19,0.854,1.115,1.507,0.864
				c0.11-0.039,0.23-0.084,0.366-0.125c0.817-0.247,33.182-11.187,34.56-11.646c0.444-0.185,1.69-0.604,2.187-0.37
				c0.568,0.271,1.425,1.836,1.761,2.612c1.592,3.692,2.361,6.42,1.938,6.796c-0.137,0.119-0.677,0.327-2.771-0.312
				c-1.189-0.363-2.414-0.872-2.709-1.024c-0.053-0.031-6.091-2.979-7.263-2.591c-0.104,0.035-0.187,0.101-0.229,0.19
				c-0.396,0.834,0.629,2.221,1.812,3.822l0.312,0.418c0.969,1.323,2.166,2.728,2.646,3.274c-0.947-0.005-3.662-0.014-4.069,0.017
				c-0.038,0.008-0.103,0.015-0.171,0.021c-0.266,0.042-0.713,0.16-0.965,0.487c-0.162,0.21-0.216,0.468-0.16,0.764
				c0.106,0.559,1.001,1.276,1.948,2.038c0.156,0.13,0.312,0.259,0.466,0.384c-0.043,0.025-0.083,0.061-0.133,0.088
				c-1.084,0.76-2.572,1.8-2.658,2.649c-0.021,0.218,0.041,0.408,0.196,0.567c0.705,0.748,3.127-0.004,7.604-2.354
				c3.354-1.765,7.989-5.053,8.035-5.083c1.003-0.71,2.38-2.59,2.162-4.369c-0.215-1.693-3.657-11.107-4.029-12.124
				C745.982,724.979,745.994,724.966,746.015,724.956z"/>
			<g>
				<path fill="#727272" d="M706.07,739.569c0.055-0.116,0.061-0.245,0.02-0.368c-0.084-0.248-0.354-0.383-0.618-0.292
					c-0.12,0.045-0.218,0.134-0.271,0.248c-0.057,0.116-0.061,0.247-0.021,0.369c0.077,0.217,0.309,0.348,0.531,0.312
					c0.028-0.005,0.062-0.011,0.089-0.021C705.924,739.773,706.021,739.686,706.07,739.569z"/>
				<path fill="#727272" d="M749.727,737.148c-0.192-1.594-3.446-10.524-3.97-11.94c-0.147,0.106-0.329,0.176-0.499,0.184
					c-0.207,0.021-0.384-0.057-0.497-0.195c-0.155-0.2-0.345-0.537-0.477-0.79l-0.021,0.062l-35.671,12.688
					c-1.781,0.658-2.992,1.104-3.311,1.228c-0.987,0.377-1.309,0.771-1.4,1.032c-0.087,0.248,0.005,0.417,0.021,0.447
					c0.396,1.001,0.599,0.925,1.145,0.718c0.117-0.042,0.239-0.089,0.381-0.132c0.189-0.058,2.105-0.695,4.949-1.651
					c0.4-1.054,1.64-1.479,1.692-1.502c1.147-0.432,28.235-10.589,31.024-9.606c0.738,0.258,1.613,2.342,1.709,2.57
					c0.083,0.196,2.146,4.848,2.514,6.659c0.525,2.649-2.576,4.562-3.826,5.063c-1.062,0.425-5.229,0.315-5.398,0.346l-0.003,0.001
					c-0.141,0.021-3.907-0.089-4.38-0.053c-0.322,0.026-0.744,0.071-0.936,0.334c-0.109,0.145-0.147,0.316-0.106,0.53
					c0.086,0.45,1.019,1.201,1.843,1.864c0.551,0.449,1.077,0.872,1.41,1.235c0.432,0.479,0.593,0.811,0.504,1.031
					c-0.055,0.135-0.185,0.188-0.254,0.188l-0.018-0.296c0.001,0,0.062-0.152-0.452-0.725c-0.167-0.196-0.403-0.404-0.671-0.634
					c-0.067,0.048-0.131,0.094-0.2,0.144c-0.921,0.646-2.463,1.723-2.535,2.438c-0.017,0.133,0.028,0.242,0.117,0.342
					c0.397,0.425,1.984,0.351,7.253-2.422c2.062-1.084,4.62-2.747,6.279-3.866c-3.021,0.646-9.437,0.513-11.691,0.466
					c-0.423-0.009-0.756-0.02-0.805-0.015l-0.021-0.145l-0.049-0.141c0.006-0.005,0.01-0.005,0.026-0.009
					c0.049-0.009,0.183-0.003,0.854,0.011c2.493,0.058,10.071,0.218,12.443-0.688c0.59-0.41,0.958-0.672,0.972-0.68
					C748.487,740.67,749.923,738.876,749.727,737.148z M706.34,739.692c-0.087,0.188-0.244,0.329-0.438,0.396
					c-0.408,0.147-0.853-0.07-0.991-0.468c-0.068-0.195-0.054-0.405,0.029-0.592c0.088-0.188,0.24-0.33,0.438-0.398
					c0.041-0.016,0.095-0.028,0.144-0.036c0.364-0.058,0.724,0.153,0.851,0.503C706.438,739.295,706.43,739.506,706.34,739.692z"/>
				<path fill="#727272" d="M710.751,738.659c9.646-3.244,28.956-9.769,29.21-9.854c0.169-0.064,1.71-0.688,2.411-0.354
					c0.731,0.347,1.642,2.146,1.904,2.764c1.021,2.376,2.624,6.46,1.856,7.128c-0.934,0.813-5.459-1.111-5.808-1.301
					c-0.688-0.364-6.104-2.889-7.034-2.571c-0.019,0.005-0.051,0.017-0.059,0.032c-0.321,0.68,0.699,2.068,1.783,3.533l0.312,0.418
					c1.12,1.523,2.543,3.156,2.807,3.451c0.53,0.016,4.293,0.117,5.228-0.263c1.104-0.438,4.145-2.261,3.656-4.693
					c-0.359-1.788-2.467-6.533-2.492-6.592c-0.249-0.602-1.021-2.215-1.533-2.396c-2.697-0.951-30.553,9.504-30.837,9.609
					C712.146,737.572,711.19,737.908,710.751,738.659z"/>
				<path fill="#727272" d="M744.015,724.236l0.099-0.253c-0.955,0.394-5.021,1.911-11.937,4.472L744.015,724.236z"/>
				<path fill="#727272" d="M745.748,724.803c0.104-0.179-0.304-1.055-0.527-1.337c-0.037-0.051-0.348,0.021-0.885,0.414
					l0.045,0.097c0.004,0.015,0.354,0.73,0.595,1.036c0.057,0.068,0.146,0.101,0.246,0.091
					C745.44,725.091,745.671,724.936,745.748,724.803z"/>
				<path fill="#727272" d="M746.003,724.953c0.234-0.399-0.417-1.497-0.547-1.666c-0.091-0.108-0.223-0.137-0.377-0.113
					c-0.272,0.043-0.63,0.264-0.92,0.479c-0.455,0.254-18.738,6.996-29.656,11.014c-4.882,1.8-8.733,3.219-9.345,3.451
					c-0.884,0.338-1.414,0.752-1.574,1.221c-0.129,0.376,0.034,0.649,0.041,0.66c0.464,1.19,0.854,1.112,1.507,0.862
					c0.111-0.036,0.231-0.083,0.365-0.124c0.819-0.246,33.18-11.187,34.559-11.646c0.448-0.185,1.694-0.604,2.188-0.369
					c0.568,0.271,1.425,1.835,1.76,2.61c1.591,3.696,2.364,6.421,1.939,6.801c-0.142,0.119-0.678,0.326-2.773-0.312
					c-1.188-0.364-2.414-0.872-2.707-1.024c-0.054-0.032-6.087-2.979-7.263-2.591c-0.108,0.031-0.188,0.102-0.231,0.188
					c-0.396,0.835,0.631,2.228,1.815,3.828l0.308,0.422c0.975,1.327,2.167,2.731,2.648,3.282c0.179,0.002,0.301,0.021,0.327,0.021
					l0.004,0.319c0,0,0.005,0.064,0.002,0.064l0.004-0.001c0.171-0.026,4.343,0.08,5.398-0.346c1.238-0.495,4.346-2.445,3.816-5.1
					c-0.358-1.812-2.418-6.438-2.506-6.64c-0.096-0.231-0.968-2.312-1.709-2.568c-2.789-0.976-29.877,9.188-31.024,9.619
					c-0.053,0.021-1.291,0.449-1.69,1.502c-2.844,0.958-4.763,1.604-4.949,1.653c-0.138,0.04-0.264,0.093-0.382,0.133
					c-0.55,0.207-0.754,0.285-1.146-0.717c-0.015-0.03-0.106-0.2-0.021-0.445c0.098-0.266,0.417-0.658,1.4-1.034
					c0.316-0.121,1.527-0.565,3.312-1.228l35.669-12.688l0.021-0.063c0.135,0.251,0.32,0.588,0.479,0.789
					c0.114,0.143,0.289,0.213,0.496,0.196c0.169-0.013,0.349-0.079,0.498-0.184c-0.038-0.116-0.068-0.188-0.072-0.193l0.275-0.104
					c0.006,0.016,0.014,0.042,0.033,0.074C745.982,724.979,745.994,724.966,746.003,724.953z M710.74,738.67
					c0.439-0.756,1.396-1.094,1.409-1.098c0.281-0.104,28.139-10.562,30.836-9.613c0.521,0.182,1.286,1.796,1.53,2.4
					c0.026,0.056,2.14,4.805,2.492,6.589c0.483,2.438-2.554,4.254-3.652,4.698c-0.933,0.369-4.694,0.271-5.229,0.26
					c-0.26-0.295-1.682-1.924-2.802-3.451l-0.312-0.418c-1.084-1.47-2.104-2.854-1.786-3.535c0.011-0.013,0.039-0.026,0.062-0.03
					c0.936-0.314,6.352,2.206,7.037,2.57c0.347,0.188,4.871,2.108,5.805,1.302c0.769-0.668-0.835-4.754-1.859-7.129
					c-0.262-0.609-1.173-2.418-1.9-2.763c-0.698-0.335-2.239,0.287-2.412,0.354C739.705,728.893,720.39,735.421,710.74,738.67z
					 M744.114,723.987l-0.1,0.254l-11.842,4.214C739.096,725.895,743.159,724.376,744.114,723.987z M745.753,724.802
					c-0.076,0.133-0.306,0.288-0.53,0.302c-0.105,0.011-0.188-0.021-0.246-0.092c-0.241-0.304-0.59-1.021-0.594-1.036l-0.045-0.096
					c0.533-0.389,0.847-0.465,0.888-0.414C745.442,723.744,745.855,724.624,745.753,724.802z"/>
				<path fill="#727272" d="M735.021,745.809c-0.069-0.065-0.152-0.133-0.232-0.188c-0.045,0.022-0.085,0.061-0.134,0.089
					c-1.085,0.761-2.572,1.8-2.658,2.646c-0.021,0.219,0.04,0.409,0.197,0.57c0.707,0.748,3.124-0.002,7.604-2.354
					c3.354-1.765,7.989-5.055,8.035-5.084c1-0.71,2.379-2.594,2.162-4.368c-0.213-1.69-3.66-11.109-4.035-12.126
					c-0.058,0.09-0.135,0.163-0.229,0.226c0.519,1.416,3.771,10.353,3.972,11.939c0.21,1.721-1.229,3.521-2.041,4.095
					c-0.009,0.008-0.38,0.271-0.975,0.684c0.007-0.003,0.016-0.01,0.021-0.011l0.104,0.271c-0.241,0.095-0.535,0.171-0.875,0.247
					c-1.664,1.122-4.223,2.785-6.279,3.87c-5.27,2.769-6.854,2.843-7.255,2.415c-0.098-0.102-0.13-0.209-0.115-0.343
					c0.071-0.721,1.612-1.799,2.534-2.438C734.896,745.896,734.959,745.854,735.021,745.809z"/>
				<path fill="#727272" d="M745.972,724.991c-0.013-0.031-0.021-0.062-0.024-0.075l-0.274,0.104
					c0.003,0.011,0.032,0.08,0.072,0.193C745.834,725.151,745.914,725.077,745.972,724.991z"/>
				<path fill="#727272" d="M737.952,742.146c-0.002,0-0.083-0.093-0.213-0.239c-0.949-0.005-3.665-0.019-4.075,0.017
					c-0.035,0.004-0.099,0.01-0.168,0.021c-0.264,0.042-0.711,0.158-0.962,0.485c-0.163,0.208-0.218,0.47-0.161,0.767
					c0.101,0.559,1,1.272,1.948,2.039c0.151,0.125,0.312,0.257,0.465,0.382c0.074-0.049,0.146-0.104,0.208-0.146l0.17,0.237
					c-0.043,0.03-0.093,0.071-0.139,0.1c0.267,0.229,0.494,0.438,0.671,0.635c0.513,0.564,0.451,0.723,0.451,0.723l0.019,0.297
					c0.067-0.004,0.198-0.053,0.254-0.188c0.088-0.225-0.073-0.551-0.505-1.032c-0.327-0.363-0.854-0.786-1.411-1.235
					c-0.822-0.663-1.751-1.414-1.841-1.863c-0.039-0.215-0.008-0.389,0.106-0.53c0.191-0.265,0.604-0.37,0.925-0.396
					c0.466-0.036,4.221-0.017,4.369-0.014l-0.064-0.007L737.952,742.146z"/>
				<path fill="#727272" d="M738.062,741.9c-0.023,0-0.145-0.006-0.324-0.002c0.137,0.146,0.211,0.234,0.214,0.238l0.042,0.051
					l0.062,0.006c0.002,0,0.01,0,0.011,0L738.062,741.9z"/>
				<path fill="#727272" d="M734.999,745.472c-0.067,0.044-0.139,0.1-0.207,0.143c0.078,0.063,0.159,0.131,0.231,0.191
					c0.045-0.027,0.097-0.063,0.141-0.098L734.999,745.472z"/>
				<path fill="#727272" d="M745.938,742.444c0.278-0.193,0.536-0.366,0.759-0.519c-2.371,0.896-9.948,0.736-12.442,0.686
					c-0.672-0.02-0.805-0.02-0.854-0.012c-0.015,0.001-0.021,0.009-0.025,0.012l0.049,0.137l0.021,0.146
					c0.049-0.004,0.383,0.012,0.804,0.016C736.506,742.952,742.918,743.087,745.938,742.444z"/>
				<path fill="#727272" d="M746.703,741.924c-0.223,0.154-0.479,0.323-0.76,0.519c0.336-0.068,0.635-0.147,0.876-0.246
					l-0.104-0.274C746.708,741.921,746.702,741.924,746.703,741.924z"/>
				<path fill="#727272" d="M706.341,739.694c0.089-0.188,0.102-0.397,0.028-0.599c-0.128-0.347-0.482-0.561-0.85-0.503
					c-0.05,0.008-0.099,0.021-0.145,0.036c-0.195,0.07-0.352,0.212-0.438,0.398c-0.091,0.188-0.103,0.396-0.029,0.592
					c0.143,0.396,0.583,0.615,0.991,0.468C706.096,740.021,706.253,739.88,706.341,739.694z M706.079,739.567
					c-0.054,0.111-0.152,0.204-0.273,0.245c-0.023,0.014-0.062,0.021-0.088,0.021c-0.229,0.037-0.454-0.095-0.532-0.312
					c-0.044-0.12-0.034-0.25,0.021-0.367c0.06-0.115,0.147-0.203,0.275-0.247c0.256-0.092,0.524,0.045,0.613,0.29
					C706.137,739.32,706.13,739.452,706.079,739.567z"/>
			</g>
		</g>
		<g id="Cadena">
			<path fill="none" stroke="#727272" stroke-width="1.5" stroke-miterlimit="10" d="M323.167,520.792c0,0,3.548-3.646,5.98-3.363
				s3.854,3.942,3.964,14.134s-5.489,201.061,71.363,198.982c21.056-0.569,78.52,8.711,81.274,8.967s4.76,0.153,6.925,0.332
				s69.224-2.623,77.093-3.133c6.359-0.412,56.821,0.642,62.863,0.117s67.517,8.163,72.551,2.698"/>
			
				<path fill="none" stroke="#727272" stroke-width="3" stroke-linecap="round" stroke-miterlimit="10" stroke-dasharray="1.5,4" d="
				M323.167,520.792c0,0,3.548-3.646,5.98-3.363s3.854,3.942,3.964,14.134s-5.489,201.061,71.363,198.982
				c21.056-0.569,78.52,8.711,81.274,8.967s4.76,0.153,6.925,0.332s69.224-2.623,77.093-3.133
				c6.359-0.412,56.821,0.642,62.863,0.117s65.528,8.194,71.006,3.174"/>
		</g>
		<g id="Barco_Petit_copia_2">
			<g>
				<g id="Capa_22_copia_1_">
					<path fill="#36627A" d="M21.99,511.463c-1.159,0.242-4.863,8.264-3.69,14.596c1.176,6.332,4.553,20.998,6.495,23.414
						c1.944,2.416,4.38,6.738,4.38,6.738s-8.572,4.604-9.938,7.618c0,0,0.003,1.23,1.05,1.07c1.047-0.166,10.188-0.664,10.618,0.358
						c0.43,1.027,1.264,6.354,1.402,7.046c0.14,0.696-0.245,3.846-0.377,4.975c-0.055,0.469-2.859,4.979-2.346,6
						c0.519,1.021,4.314,1.058,6.43,1.006c2.114-0.047,13.387-7.604,14.959-8.989c1.574-1.39,2.013-18.191,2.013-18.191
						s-3.206-21.963-2.419-22.008c0.788-0.045,6.105-2.186,7.812-4.164c1.708-1.979,1.074-11.553,0.266-13.082
						C57.829,516.319,39.372,507.797,21.99,511.463z"/>
					<path fill="#6C808C" d="M30.61,572.062c0,0,1.826-0.37,1.931-0.146c0.105,0.229,0.505,0.861,0.419,2.082
						c-0.087,1.219,0.381,2.771-0.581,2.89s-1.624,0.118-1.624,0.118s-1.604,3.959-4.077,5.156
						c-2.472,1.199-4.135,0.791-2.615-0.777c1.518-1.563,4.374-3.411,4.101-4.055c-0.271-0.641-5.061,0.015-5.061,0.015l0.043-3.87
						c0,0,3.661-0.354,3.843-0.282c0.182,0.064,1.562-0.955,0.514-1.406c-1.048-0.452-5.559,0.007-4.839-1.592
						c0.72-1.603,0.545-1.584,2.25-1.797c1.706-0.222,3.886,0.625,4.855,1.797C30.735,571.364,30.61,572.062,30.61,572.062z"/>
				</g>
				<path fill="#FF0000" d="M127.768,559.177l-17.229-14.418l-72.279-4.104c22.56-4.643,65.304-11.432,128.988-15.354
					c45.75-2.814,84.083-3.111,101.812-2.216c32.239,1.637,53.926-0.237,59.435-0.801c-0.938,0.594-2.312,1.521-3.146,2.297
					c-0.633,0.588-1.188,1.383-1.972,2.479c-1.569,2.229-3.969,5.443-9.27,10.443l-0.529,0.479
					c-35.386,17.239-83.355,22.319-117.805,23.302C159.279,562.327,129.309,559.337,127.768,559.177z"/>
				<path d="M168.102,501.454c-0.308-0.624-0.554-1.092-0.752-1.441c-0.1-0.175-0.187-0.317-0.264-0.44
					c-0.383-0.611-0.509-0.613-0.586-0.615l-0.219,0.139c-0.103,0.193-0.218,0.404-0.354,0.626c-0.089,0.146-0.184,0.297-0.285,0.45
					c-0.051,0.074-0.103,0.152-0.153,0.23c-1.396,2.023-3.712,4.411-5.104,4.045c-0.664-0.18-1.062-0.625-1.222-1.379
					c-0.021-0.089-0.033-0.184-0.044-0.273c-0.011-0.098-0.021-0.191-0.021-0.301c-0.087-2.688,2.308-7.956,5.458-11.312
					c0.485-0.521,0.988-0.984,1.502-1.396c0.286-0.229,0.61-0.459,0.953-0.655c0.549-0.312,1.146-0.537,1.7-0.511
					c0.208,0.011,0.412,0.058,0.606,0.146c0.309,0.146,0.514,0.387,0.627,0.73c0.074,0.229,0.104,0.498,0.103,0.785
					c-0.022,2.006-1.729,5.062-1.751,5.096l-0.128,0.229l2.79,0.803L168.102,501.454z M168.446,491.527
					c-0.007-0.312-0.084-0.562-0.255-0.73c-0.034-0.035-0.072-0.062-0.113-0.098c-0.104-0.065-0.228-0.104-0.357-0.104
					c-0.093,0-0.19,0.021-0.3,0.062c-0.749,0.271-1.826,1.431-2.91,2.92l-0.048-0.062l-0.049-0.061l-0.948,1.646
					c-0.471,0.733-0.921,1.496-1.322,2.235c-0.67,1.23-1.202,2.405-1.472,3.29c-0.152,0.502-0.22,0.904-0.204,1.216
					c0.004,0.077,0.016,0.146,0.029,0.215c0.044,0.195,0.136,0.344,0.272,0.438c0.062,0.039,0.131,0.062,0.205,0.062
					c0.854,0,3.619-3.352,4.765-4.981c0.042-0.062,0.083-0.119,0.121-0.179c0.072-0.108,0.141-0.213,0.193-0.301
					c0.058-0.088,0.102-0.165,0.13-0.229c0.034-0.059,0.076-0.121,0.126-0.2c0.052-0.078,0.105-0.173,0.167-0.273
					C167.153,495.267,168.478,492.879,168.446,491.527z"/>
				<path fill="#3FA9F5" d="M194.31,492.465c-1.104,0.149-4.982,0.779-8.344,1.418c-0.215,0.04-0.426,0.081-0.637,0.123
					c-0.109,0.021-0.218,0.043-0.326,0.062c-0.461,0.092-0.906,0.188-1.33,0.277c-0.133,0.029-0.263,0.062-0.391,0.094
					c-0.318,0.07-0.625,0.146-0.908,0.224c-0.115,0.03-0.227,0.062-0.333,0.095c-0.023,0.004-0.053,0.011-0.087,0.021
					c-1.036,0.229-6.941,1.604-7.823,3.137c-0.028,0.054-0.053,0.095-0.067,0.146c-0.519,1.479-1.779,9.771-1.985,11.616h-3.531
					l-1.238-3.121l0.479-4.436l0.186-0.088l0,0l0,0c-0.011-0.021-0.021-0.041-0.028-0.062c-0.013-0.021-0.021-0.042-0.031-0.062
					l3.059-5.382l0.048,0.012l0,0l0,0l0.059-0.193l0.044-0.078l0.078-0.141l4.573-9.622l0.701-0.243l0.703-0.246l2.056-11.22
					c0.1,0,0.239-0.001,0.415-0.001c1.197,0,5.199,0.033,6.348,0.473C186.966,475.632,191.597,485.84,194.31,492.465z"/>
				<path d="M166.212,495.721c0.021,0,0.035-0.004,0.049-0.007c0.04-0.011,0.074-0.03,0.104-0.059
					c-0.202,0.354-0.405,0.689-0.604,1.007c-0.112,0.227-0.329,0.56-0.606,0.948c-0.046-0.104-0.062-0.227-0.063-0.326
					c-0.002-0.174,0.034-0.312,0.034-0.314l0.062-0.213l-1.957-0.414l0.819-1.432c0.158-0.232,0.316-0.465,0.478-0.688
					C165.716,495.595,166.072,495.725,166.212,495.721z"/>
				<path d="M166.311,496.666c-0.05,0.081-0.091,0.146-0.126,0.202c-0.028,0.062-0.072,0.14-0.13,0.229
					c-0.055,0.089-0.121,0.188-0.193,0.3c-0.038,0.061-0.078,0.114-0.121,0.18c-1.146,1.637-3.91,4.981-4.765,4.981
					c-0.074,0-0.146-0.021-0.205-0.062c-0.139-0.094-0.229-0.234-0.272-0.438c-0.015-0.062-0.024-0.139-0.029-0.215
					c-0.017-0.312,0.051-0.712,0.204-1.216c0.27-0.884,0.802-2.059,1.472-3.29c0.401-0.739,0.854-1.502,1.322-2.234l0.948-1.646
					l0.049,0.061l0.048,0.061c1.083-1.487,2.161-2.649,2.91-2.92c0.107-0.038,0.207-0.062,0.3-0.062
					c0.135,0,0.253,0.036,0.357,0.104c0.042,0.024,0.08,0.062,0.113,0.097c0.171,0.173,0.248,0.427,0.255,0.73
					c0.029,1.354-1.293,3.736-1.972,4.861C166.417,496.495,166.36,496.588,166.311,496.666z M161.034,500.752
					c-0.324,1.066-0.186,1.328-0.13,1.383c0.687-0.128,2.75-2.493,3.983-4.158c-0.225-0.296-0.229-0.67-0.202-0.898l-1.755-0.371
					C162.091,498.141,161.381,499.603,161.034,500.752z M164.05,494.914l-0.822,1.432l1.957,0.414l-0.061,0.212
					c-0.001,0.003-0.037,0.146-0.035,0.313c0.001,0.104,0.02,0.225,0.063,0.328c0.277-0.396,0.495-0.729,0.606-0.949
					c0.198-0.312,0.402-0.652,0.604-1.006c-0.03,0.021-0.064,0.045-0.104,0.058c-0.013,0.002-0.025,0.006-0.049,0.007
					c-0.141,0.004-0.496-0.127-1.688-1.497C164.367,494.449,164.208,494.679,164.05,494.914z M167.847,491.043
					c-0.036-0.023-0.078-0.035-0.128-0.035c-0.579,0-1.737,1.216-2.944,2.873c0.517,0.595,1.099,1.197,1.355,1.38
					c0.144-0.214,0.412-0.299,0.636-0.325C167.692,493.202,168.396,491.409,167.847,491.043z"/>
				<path fill="#FFFFFF" stroke="#FFFFFF" stroke-miterlimit="10" d="M37.121,537.669l0.097-0.062l-0.069-5.701l3.559-2.174
					l15.577,0.271l0.037-0.018l6.453-2.389l0.275-13.308l11.64-2.845l24.903-0.066l1.312-2.411l21.093-1.172l0.138-2.14l4.386-0.443
					l-0.396-0.312c-0.006-0.008-0.619-0.496-0.604-1.096c0.012-0.347,0.232-0.678,0.664-0.979c0.32-0.229,1.259-0.493,3.908-0.493
					c2.43,0,5.401,0.219,7.57,0.379c1.07,0.079,1.918,0.146,2.413,0.155c1.48,0.047,3.122,1.162,4.016,2.179
					c0.55,0.623,0.842,1.231,0.801,1.664c-0.131,1.377-0.355,1.709-1.345,1.896l0.058,0.438l14.567-1.383l8.99-0.849l1.229,3.158
					h3.89l0.023-0.468c0.018-0.1,1.455-10.041,1.991-11.584c0.42-1.207,5.694-2.617,7.689-3.057
					c3.523-0.985,10.872-2.021,12.223-2.203l0.021,0.051l0.15-0.017c0.002,0,0.289-0.023,0.688-0.023
					c1.128,0,1.949,0.188,2.316,0.521c0.4,0.367,0.403,1.104,0.407,1.817c0.003,0.616,0.005,1.197,0.234,1.629
					c0.479,0.888,4.57,7.802,4.745,8.097l0.058,0.096l0.105,0.008c0.602,0.034,59.926,3.542,73.164,5.171
					c1.027,0.126,2.195,0.245,3.475,0.424c20.03,2.821,48.084,8.232,48.084,8.232c2.172,0.037,3.031,0.721,3.104,1.294
					c0.072,0.527-0.479,1.062-1.379,1.322c-0.023,0.017-0.629,0.32-1.453,0.812c-3.639,0.396-25.598,2.571-59.904,0.832
					c-17.741-0.896-56.132-0.545-101.896,2.271c-65.2,4.021-105.44,10.438-127.715,15.107l-0.974,0.205
					c-1.848-0.023-2.505-0.211-2.59-0.312c-0.031-0.061-0.071-0.108-0.111-0.166c-0.095-0.131-0.143-0.2-0.124-0.307
					C34.687,539.364,35.505,538.688,37.121,537.669z"/>
				<path fill="#FFFFFF" stroke="#FFFFFF" stroke-miterlimit="10" d="M127.212,559.331l0.062,0.009
					c0.25,0.022,21.625,2.256,51.067,2.256c5.098,0,10.434-0.062,15.941-0.226c34.302-0.979,82.511-5.729,117.909-22.771
					c-0.1,0.088-0.187,0.17-0.273,0.256c-1.22,1.128-2.434,2.324-3.721,3.592c-8.133,8.006-18.254,17.971-44.363,25.562
					c-6.007,1.744-12.438,2.562-20.246,2.562c-6.688,0-13.549-0.184-20.812-0.812c-7.974-0.688-16.214-1.398-25.028-1.398
					c-1.354,0-2.705,0.02-4.017,0.053c-1.324,0.035-2.875,0.055-4.61,0.055c-34.329,0-138.904-7.184-143.244-7.463l-7.756-19.856
					l71.914,3.771L127.212,559.331z"/>
			</g>
			<g id="_x33__1_">
				<path fill="#996234" d="M147.503,508.468c0,0-1.388-1.609-1.084-3.518c0.304-1.898,0.731-2.871,1.898-3.205
					s2.748-0.485,3.07-0.32c0.325,0.165,4.26,1.729,5.157,2.036c0.899,0.312,3.354,1.938,3.404,2.683
					c0.05,0.748,0.194,0.988,0.498,1.723c0.303,0.729,0.765,4.025,0.765,4.025l-5.933,0.654c0,0,0.063-2.312-0.373-2.478
					c-0.439-0.155-6.235-0.748-6.626-0.973C147.887,508.879,147.503,508.468,147.503,508.468z"/>
				<path fill="#EF45B7" d="M125.53,499.213c0,0-0.312-2.938-0.438-2.938s4.117-0.25,5.125-1c1.25-0.936,8.125-0.875,8.125-0.875
					l4.562,4.188l5.264,3.96c0,0-1.514,4.979-2.264,4.979c-0.354,0-4.109-3.401-7.5-3.5c-3.784-0.108-4.062,2.062-3.188,6.75
					c0.166,0.887-7.812-4.438-7.812-4.438s-1.506-1.125-1.878-3.125S125.53,499.213,125.53,499.213z"/>
				<path fill="#996234" d="M134.591,469.088c0.188,0.062,1.562-1.625,1.5-2.188c-0.062-0.563-0.623-0.938-0.749-0.938
					s-1.438-1.562-0.751-2.25c0.688-0.688-1.5-3.5-0.688-4.875s1.812-3.5,3.688-4.25s3.062-1.375,4-0.625s3.188,2.875,3.25,3.688
					c0.062,0.812,0.438,2.375,0,4.062c-0.438,1.688-0.438,1.938-0.5,3.75c-0.062,1.812-0.875,2.938-1.438,3.627
					c-0.563,0.689-0.312,1.623-1.375,1.873s0.25,1.938-0.25,2.562c-0.5,0.625-6.375-0.938-6.25-3.375
					C135.088,469.003,134.591,469.088,134.591,469.088z"/>
				<path fill="#301705" d="M134.78,466.65c0,0-1.062,0-0.938-0.875s0.354-2.375-0.01-2.75c-0.364-0.375-1.49-1.062-1.115-2.125
					c0.375-1.063,0.812-1.688,0.562-2.688s0-1.812,0.812-2.312s1.445-0.375,2.379-0.812c0.937-0.438,1.687-1.5,2.746-1.688
					c1.062-0.188,2.312-0.938,3.188,0c0.876,0.938,1.5,0.938,1.75,1.562s-0.062-0.062,0.312,1.438s1.125,1.812,0.625,2.625
					c-0.5,0.812-0.938-0.688-1.375-0.75c-0.437-0.062-0.188-0.75-1.375,0s-0.75,0.5-2.5,0.125s-2.688-1.375-3.22,0.438
					c-0.53,1.812-0.22,1.5,0,2.938c0.22,1.438,0,2.062,0,2.062s-0.092-0.688-0.78-0.562c-0.688,0.125-0.812,0.25-0.75,1
					s0.438,1.625,0.312,1.875S134.78,466.65,134.78,466.65z"/>
				<path fill="#996234" d="M143.405,480.9c0,0,4.125,6.75,5.188,7.375c1.063,0.625,3.25,1.875,4.062,2.062
					c0.812,0.188,5.938,1,8.125,0.875s2.562-0.786,3.375,0.014c0.812,0.803,1.188,1.361,1.5,0.736s0.125-0.75,0-1.688
					c-0.125-0.938,0-1.438,0.875-1.562s2.213,0.875,1.854-0.25c-0.354-1.125-0.229-1.625-1.669-1.5
					c-1.438,0.125-1.688,1.188-2.688,1.312c-1,0.123-1.438,0.125-3.188-0.125s-6.688-3.188-7.75-3.25
					c-1.062-0.062-1.125-0.875-1.812-1.562c-0.688-0.688-3.438-4.062-3.438-4.062"/>
				<path fill="#8BC7E8" d="M125.091,484.338c0.25-3.5,1.5-9.062,3.625-11.5c2.125-2.438,2.75-2.375,4.312-3.062
					c1.562-0.688,2.375-0.5,2.375-0.5s0.082,2.5,1.354,2.938c1.272,0.438,4.271,1.25,4.459,0.75s-0.249-0.813,0.125-1.253
					c0.374-0.438,1-1.622,1.438-1.372c0.437,0.25,2.625,1.124,2.875,2.25s0.5,2.625,1.125,3.5s1,2.25,1,2.25s0.188,0.5,0.375,1.062
					c0.187,0.562-1.625,0.5-2.812,2.812c-1.187,2.312-2.5-1.312-2.5-1.312s1.438-0.938,0.125,1.062c0,0-2,3.062-2.125,3.5
					c-0.125,0.438-0.625,1.562-0.562,2.688c0.062,1.127,0.688,2.312,0.562,3.5c-0.126,1.188,0.025,2.25-1.456,2.812
					c-1.479,0.562-3.104,0.438-4.919,0.625c-1.812,0.188-4.047,0.089-4.875,0.812c-0.828,0.723-1.625,0.125-2.625,0.375
					s-1.062,0.875-1.875,0c-0.812-0.875,0.479-3.625,0.271-4.25s-0.75-2-0.542-4.062C125.028,485.9,125.091,484.338,125.091,484.338
					z"/>
				<path fill="#996234" d="M132.317,488.556c0,0,1.325,4.354,2.068,5.188c0.744,0.828,1.933,2.75,2.562,3.494
					c0.631,0.746,6.226,6.479,6.897,6.979c0.677,0.499,3.919,3.354,3.919,3.354l4.6-0.527c0,0-3.046-3.262-4.543-4.854
					c-1.498-1.595-6.453-7.729-6.736-8.282c-0.283-0.56-1.893-2.234-2.329-3.013c-0.436-0.771-0.508-2.373-0.87-3.832
					c-0.359-1.459-0.981-3.345-0.981-3.345s-5.779-0.691-5.955,0.671C130.773,485.748,132.317,488.556,132.317,488.556z"/>
				<path fill="#996234" d="M135.341,510.713c0,0-1.271-1.708-0.833-3.583s0.935-2.812,2.12-3.062
					c1.188-0.25,2.776-0.291,3.088-0.104c0.312,0.188,4.125,2.021,5,2.396s3.205,2.166,3.205,2.916s0.125,1,0.375,1.75
					s0.562,2.875,0.562,2.875l-6.002,0.637c0,0,0.182-1.512-0.245-1.696c-0.43-0.188-6.167-1.188-6.542-1.438
					S135.341,510.713,135.341,510.713z"/>
				<path fill="#996234" d="M141.858,516.76"/>
			</g>
		</g>
		<polygon id="La_mar_3_m" opacity="0.6" fill="#39BCC4" enable-background="new    " points="0,548.5 800,548.5 800.981,799.162 
			0.982,799.162 		"/>
	</g>
	<g id="La_Mar">
		<g>
			<path fill="#D8BD80" d="M800.557,739.949c-37.881,6.85-61.193,5.146-88.212,5.051c-24.051-0.033-33.281-3.914-75.512-7.119
				c-26.088-0.787-46.578-0.928-74.209,0.48c-20.113,1.021-66.365,3.424-87.148,0.188c-52.643-10.095-139.626-8.536-184.812-1.551
				c-45.187,6.986-25.674-4.301-54.43-3.225c-28.755,1.065-24.134,5.375-38.512,1.604c-14.377-3.762-20.67-15.181-32.92-13.012
				c-1.388,0.829,0.264,7.501-30.5-8.625c-10.783-5.652-23.201-5.499-30.875-5.625c-7.625-0.125-24.619,3.903-34.375-3.625
				c-11.25-6.604-43.828,16.413-55.125,22.854C2.63,733.811-3,730.024-3,730.024l1.75,72.226l802.232,1L800.557,739.949z"/>
		</g>
	</g>
</g>
</svg>
