<?xml version="1.0" encoding="utf-8"?>
<!-- Generator: Adobe Illustrator 16.0.0, SVG Export Plug-In . SVG Version: 6.00 Build 0)  -->
<!DOCTYPE svg PUBLIC "-//W3C//DTD SVG 1.1//EN" "http://www.w3.org/Graphics/SVG/1.1/DTD/svg11.dtd">
<svg version="1.1" id="Capa_5" xmlns="http://www.w3.org/2000/svg" xmlns:xlink="http://www.w3.org/1999/xlink" x="0px" y="0px"
	 width="800px" height="800px" viewBox="0 0 800 800" enable-background="new 0 0 800 800" xml:space="preserve">
<g>
	<path fill="#111111" d="M650.121,227.178c15.159-0.051,23.699,9.407,23.731,20.515l0.655,276.533
		c0.022,11.106-8.46,19.656-23.607,19.709l-500.675,0.779c-15.149,0.052-24.056-9.406-24.104-20.518l-0.632-276.52
		c-0.046-11.121,8.809-19.669,23.958-19.723L650.121,227.178z"/>
	<circle fill="#FFFFFF" cx="643.322" cy="254.92" r="13.152"/>
	<circle fill="#FFFFFF" cx="649.01" cy="515.109" r="13.152"/>
	<text transform="matrix(1 0 0 1 244.8247 292.8896)" fill="#F9F9F9" font-family="'MyriadPro-Regular'" font-size="37.3895">OIL</text>
	<text transform="matrix(1 0 0 1 184.5352 332.7549)" fill="#F9F9F9" font-family="'MyriadPro-Regular'" font-size="37.3895">PRESSURE</text>
	<circle fill="#FFFFFF" cx="152.868" cy="258.119" r="13.152"/>
	<circle fill="#FFFFFF" cx="158.91" cy="515.109" r="13.152"/>
	
		<radialGradient id="SVGID_1_" cx="-10.6782" cy="389.3887" r="63.9812" gradientTransform="matrix(1 0 0 -1 282 814)" gradientUnits="userSpaceOnUse">
		<stop  offset="0.3305" style="stop-color:#FF8415"/>
		<stop  offset="0.4738" style="stop-color:#F34823"/>
		<stop  offset="0.5722" style="stop-color:#EC232C"/>
		<stop  offset="0.6638" style="stop-color:#D91B28"/>
		<stop  offset="0.849" style="stop-color:#A7081C"/>
		<stop  offset="0.9153" style="stop-color:#940018"/>
	</radialGradient>
	<circle fill="url(#SVGID_1_)" cx="271.322" cy="425.536" r="63.982"/>
	<g>
		<rect x="452.3" y="337.123" fill="#9B9191" width="128.621" height="100.238"/>
		<rect x="459.46" y="343.261" fill="#304789" width="114.812" height="87.708"/>
		<g>
			<path fill="#9B9191" d="M479.021,349.909c-0.398,0-0.783,0.058-1.15,0.155c1.912,0.509,3.323,2.247,3.323,4.32v66.996
				c0,2.073-1.411,3.812-3.323,4.32c0.367,0.098,0.752,0.153,1.15,0.153c2.472,0,4.475-2.004,4.475-4.476v-66.996
				C483.496,351.912,481.493,349.909,479.021,349.909z"/>
			<path fill="#9B9191" d="M497.688,349.909c-0.396,0-0.78,0.058-1.148,0.155c1.913,0.509,3.324,2.247,3.324,4.32v66.996
				c0,2.073-1.411,3.812-3.324,4.32c0.368,0.098,0.752,0.153,1.148,0.153c2.474,0,4.477-2.004,4.477-4.476v-66.996
				C502.162,351.912,500.159,349.909,497.688,349.909z"/>
			<path fill="#9B9191" d="M517.377,349.909c-0.398,0-0.782,0.058-1.148,0.155c1.911,0.509,3.322,2.247,3.322,4.32v66.996
				c0,2.073-1.411,3.812-3.322,4.32c0.366,0.098,0.75,0.153,1.148,0.153c2.473,0,4.477-2.004,4.477-4.476v-66.996
				C521.854,351.912,519.85,349.909,517.377,349.909z"/>
			<path fill="#9B9191" d="M536.812,349.909c-0.399,0-0.783,0.058-1.151,0.155c1.913,0.509,3.324,2.247,3.324,4.32v66.996
				c0,2.073-1.411,3.812-3.324,4.32c0.368,0.098,0.752,0.153,1.151,0.153c2.472,0,4.475-2.004,4.475-4.476v-66.996
				C541.286,351.912,539.283,349.909,536.812,349.909z"/>
			<path fill="#9B9191" d="M555.479,349.909c-0.397,0-0.782,0.058-1.149,0.155c1.912,0.509,3.324,2.247,3.324,4.32v66.996
				c0,2.073-1.412,3.812-3.324,4.32c0.367,0.098,0.752,0.153,1.149,0.153c2.472,0,4.476-2.004,4.476-4.476v-66.996
				C559.952,351.912,557.948,349.909,555.479,349.909z"/>
			<path fill="#233563" d="M481.194,421.379v-66.996c0-2.073-1.411-3.811-3.323-4.32c-1.913,0.509-3.324,2.247-3.324,4.32v66.996
				c0,2.073,1.411,3.812,3.324,4.32C479.783,425.191,481.194,423.452,481.194,421.379z"/>
			<path fill="#233563" d="M499.861,421.379v-66.996c0-2.073-1.411-3.811-3.324-4.32c-1.912,0.509-3.324,2.247-3.324,4.32v66.996
				c0,2.073,1.412,3.812,3.324,4.32C498.45,425.191,499.861,423.452,499.861,421.379z"/>
			<path fill="#233563" d="M519.551,421.379v-66.996c0-2.073-1.411-3.811-3.322-4.32c-1.912,0.509-3.324,2.247-3.324,4.32v66.996
				c0,2.073,1.412,3.812,3.324,4.32C518.14,425.191,519.551,423.452,519.551,421.379z"/>
			<path fill="#233563" d="M538.984,421.379v-66.996c0-2.073-1.411-3.811-3.324-4.32c-1.912,0.509-3.323,2.247-3.323,4.32v66.996
				c0,2.073,1.411,3.812,3.323,4.32C537.573,425.191,538.984,423.452,538.984,421.379z"/>
			<path fill="#233563" d="M557.651,421.379v-66.996c0-2.073-1.412-3.811-3.324-4.32c-1.913,0.509-3.324,2.247-3.324,4.32v66.996
				c0,2.073,1.411,3.812,3.324,4.32C556.239,425.191,557.651,423.452,557.651,421.379z"/>
		</g>
	</g>
</g>
</svg>
