<?xml version="1.0" encoding="utf-8"?>
<!-- Generator: Adobe Illustrator 16.0.0, SVG Export Plug-In . SVG Version: 6.00 Build 0)  -->
<!DOCTYPE svg PUBLIC "-//W3C//DTD SVG 1.1//EN" "http://www.w3.org/Graphics/SVG/1.1/DTD/svg11.dtd">
<svg version="1.1" id="Capa_1" xmlns="http://www.w3.org/2000/svg" xmlns:xlink="http://www.w3.org/1999/xlink" x="0px" y="0px"
	 width="800px" height="800px" viewBox="0 0 800 800" enable-background="new 0 0 800 800" xml:space="preserve">
<g id="_x34_.Desconectar_Kill_cord">
	<g id="Capa_13_2_">
		<g id="Capa_13_3_" opacity="0.2">
			<path fill="#5E5E5E" d="M764,123L545.591,661.803v225.241c0,14.274,52.602,24.858,66.938,24.858h478.197
				c14.337,0,25.963-11.571,25.963-25.85l128.455-795.342c0-14.275-34.774,32.287-49.112,32.287L764,123z"/>
		</g>
	</g>
	<g>
		
			<rect x="586.699" y="493.531" transform="matrix(0.3799 -0.925 0.925 0.3799 -99.4903 856.6479)" fill="#3D3D3D" width="5" height="17.998"/>
		
			<rect x="577.716" y="500.443" transform="matrix(-0.3798 0.9251 -0.9251 -0.3798 1298.9727 143.9914)" fill="#1C1C1C" width="47.002" height="14.001"/>
		<path fill="#E52E2E" d="M589.8,494.695c1.235,0.506,1.825,1.918,1.318,3.152l-3.861,9.403c-0.507,1.235-1.919,1.825-3.154,1.318
			l-9.402-3.861c-1.235-0.508-1.825-1.919-1.318-3.154l3.861-9.402c0.507-1.235,1.919-1.825,3.153-1.317L589.8,494.695z"/>
	</g>
	<g id="Palanca_2_">
		<g id="Palanca_3_">
			<g>
				<circle fill="#A5A5A5" cx="765.882" cy="466.841" r="68.741"/>
				<path fill="#A5A5A5" d="M683.09,401.511c0,0,20.636,17.614,14.436,57.805c-6.199,40.19,36.256-26.54,36.256-26.54
					l-40.716-46.137l-11.183,10.525L683.09,401.511z"/>
				<path fill="#A5A5A5" d="M705.613,380.307c0,0,16.34,21.659,56.828,17.893c40.492-3.769-28.677,34.59-28.677,34.59l-43.6-43.425
					l11.18-10.524L705.613,380.307z"/>
			</g>
			<path fill="#5E5E5E" d="M586.124,309.472c-7.658-8.134-8.669-25.976-0.991-33.203l0.883-0.832
				c12.143-10.302,26.468-7.433,34.778,1.395l84.17,89.406c4.457,4.733,3.731,12.446-0.948,16.854l-17.651,16.618
				c-4.681,4.406-11.611,3.9-16.069-0.835L586.124,309.472L586.124,309.472z"/>
			<circle fill="#727272" cx="765.855" cy="466.932" r="52.37"/>
		</g>
		<g id="Capa_2_copia_1_">
			<circle fill="#2D2D2D" cx="602.365" cy="292.079" r="23.609"/>
			<circle fill="#3F3F3F" cx="602.365" cy="292.079" r="18.339"/>
		</g>
	</g>
	<g>
		
			<line fill="none" stroke="#F28D41" stroke-width="6" stroke-miterlimit="10" x1="513.158" y1="470.275" x2="552.62" y2="487.198"/>
		
			<line fill="none" stroke="#F28D41" stroke-width="6" stroke-miterlimit="10" x1="540.297" y1="432.946" x2="567.424" y2="469.223"/>
		
			<line fill="none" stroke="#F28D41" stroke-width="6" stroke-miterlimit="10" x1="582.805" y1="416.701" x2="588.162" y2="461.675"/>
		
			<line fill="none" stroke="#F28D41" stroke-width="6" stroke-miterlimit="10" x1="521.696" y1="559.398" x2="557.432" y2="531.569"/>
		
			<line fill="none" stroke="#F28D41" stroke-width="6" stroke-miterlimit="10" x1="506.804" y1="516.099" x2="548.547" y2="511.631"/>
	</g>
	<g id="Capa_4_copia_2_">
		<g id="Capa_4_copia_2_2_">
			<g id="Capa_2_copia_3_1_">
				<g>
					<path fill="none" stroke="#FF0000" stroke-width="5" stroke-linecap="round" stroke-miterlimit="10" d="M296.385,468.355
						c19.58,2.472,17.99,27.678,8.806,28.317c-9.187,0.645-3.058-27.326,11.808-29.427c14.866-2.1,21.221,23.046,12.181,24.803
						c-9.065,1.764-3.956-22.691,6.103-24.621c0,0,7.161-3.431,16.336,5.85c6.254,6.321,18.954,3.448,20.688,2.527
						c1.738-0.922,68.602-23.322,71.223-12.457c3.56,14.745-35.914,5.403-50.677,10.583c-2.049,0.709-22.404,7.163-22.404,7.163"/>
					<path fill="#CECECE" d="M387.338,480.028c-0.775,0.247-1.552-0.012-1.73-0.58l-2.979-9.341
						c-0.181-0.567,0.302-1.227,1.077-1.477l11.421-3.638c0.776-0.247,1.552,0.012,1.732,0.58l2.977,9.34
						c0.182,0.568-0.303,1.229-1.078,1.477L387.338,480.028z"/>
				</g>
			</g>
			<g id="Cordó_5_">
				<path fill="none" stroke="#FF0000" stroke-width="5" stroke-linecap="round" stroke-miterlimit="10" d="M162.216,370.468
					c5.732,5.983-9.05,28.809-14.205,23.398c-5.14-5.394,16.893-21.719,25.714-13.369c12.548,11.877-6.03,31.74-15.785,23.729
					c-5.76-4.728,15.604-22.872,27.487-10.898"/>
				<path fill="none" stroke="#FF0000" stroke-width="5" stroke-linecap="round" stroke-miterlimit="10" d="M141.488,345.755
					c7.892,8.237-8.225,32.137-15.546,24.453c-6.283-6.592,14.083-24.537,24.095-15.057c11.471,10.857-6.022,33.805-14.681,26.693
					c-5.759-4.727,14.173-24.225,26.057-12.25"/>
				<path fill="none" stroke="#FF0000" stroke-width="5" stroke-linecap="round" stroke-miterlimit="10" d="M102.387,328.514"/>
				<path fill="none" stroke="#FF0000" stroke-width="5" stroke-linecap="round" stroke-miterlimit="10" d="M142.104,346.397
					c-11.884-11.974-33.16,6.033-27.401,10.759c6.383,5.241,23.054-18.754,13.648-27.658c-8.822-8.351-29.884,8.988-24.744,14.381
					c8.347,8.76,25.682-12.923,16.764-22.229"/>
				<path fill="none" stroke="#FF0000" stroke-width="5" stroke-linecap="round" stroke-miterlimit="10" d="M264.201,452.976
					c11.657,8.092,6.465,37.562-4.518,29.896c-7.9-6.554,13.287-25.304,23.592-18.872c10.305,6.431,6.645,30.722,0.062,27.231
					c-6.584-3.487-2.539-24.595,13.048-22.874"/>
				<path fill="none" stroke="#FF0000" stroke-width="5" stroke-linecap="round" stroke-miterlimit="10" d="M237.909,437.493
					c12.155,8.438-1.907,31.754-13.38,23.743c-6.11-4.268,11.756-24.266,22.061-17.834c13.991,8.731,5.625,35.928-4.833,30.385
					c-6.584-3.49,9.147-29.68,23.173-20.307"/>
				<path fill="none" stroke="#FF0000" stroke-width="5" stroke-linecap="round" stroke-miterlimit="10" d="M209.766,413.974
					c9.816,10.245-3.667,36.762-12.908,27.065c-6.782-8.771,20.59-20.823,29.412-12.473s-8.417,26.917-14.176,22.188
					c-5.76-4.727,13.934-25.236,25.816-13.262"/>
				<path fill="none" stroke="#FF0000" stroke-width="5" stroke-linecap="round" stroke-miterlimit="10" d="M184.718,392.576
					c10.236,10.686-5.822,31.742-15.475,21.609c-5.14-5.395,16.343-21.443,25.165-13.094c11.977,11.338-1.626,36.328-10.774,28.817
					c-5.76-4.729,14.863-27.271,26.746-15.297"/>
			</g>
		</g>
		<path fill="#1C1C1C" d="M498.122,446.812c-0.429-1.456-1.959-2.289-3.415-1.86l-58.993,17.381c-1.456,0.429-2.29,1.958-1.86,3.414
			l0.143,0.479c0.429,1.456,1.958,2.289,3.415,1.86l58.993-17.38c1.456-0.43,2.29-1.958,1.859-3.415L498.122,446.812z"/>
	</g>
	<g id="Capa_3_1_">
		<path fill="#F9DBBD" d="M-20.391,539.843c165.704-253.116,158.573-240.914,158.573-240.914
			c3.577-5.653,8.643-14.282,14.301-16.658c5.657-2.378,51.076-32.86,71.046-69.013c12.483-11.964,14.746-16.064,17.876-21.569
			c3.129-5.504,32.328-40.759,24.892-49.695c-6.991-6.712-9.525-2.538-11.909,0.736c-2.383,3.273-12.842,18.317-14.599,20.232
			c-2.254,2.455-20.107,18.591-20.107,18.591s17.43-22.166,19.963-27.224c2.534-5.058,7.897-9.816,14.157-22.316
			c6.26-12.497,16.089-20.23,16.093-26.928c0.005-6.697-8.772-13.699-13.985-7.004c-5.214,6.694-12.513,15.321-15.046,19.637
			c-2.533,4.314-30.211,35.048-32.495,39.279c-2.332,4.326,19.835-29.615,19.835-29.615s9.367-10.477,12.811-14.429
			c3.556-4.077,6.558-10.115,7.6-12.199c1.044-2.083,15.341-15.022,14.155-20.828c-1.186-5.806-7.582-12.36-14.581-7.303
			c-7,5.055-22.194,22.012-25.025,26.55c-2.83,4.538-14.297,14.055-15.789,16.287c-1.49,2.232-15.076,22.297-17.162,23.486
			c-2.084,1.189,13.739-23.34,13.739-23.34s31.426-32.276,30.39-38.751c-1.037-6.475-5.053-8.859-11.903-7.079
			c-6.847,1.782-57.042,52.203-62.557,63.958c-10.368,6.485-18.917,20.675-21.001,20.375c-2.083-0.298-13.609,6.828-15.398,10.399
			c-1.788,3.569-1.275-6.095-2.911-8.031c-1.637-1.936,19.374-46.953-0.701-61.767c-10.107-7.46-12.208,2.82-13.699,6.539
			c-1.49,3.719-3.438,22.472-5.972,27.531c-2.534,5.06-17.141,33.477-17.293,39.729c-0.153,6.25,2.067,22.625,0.278,27.684
			c-1.79,5.059-5.225,22.322-3.146,28.576c2.079,6.252,2.075,12.206-0.311,18.457c-2.386,6.25-17.439,34.816-18.928,37.048
			c-1.491,2.231-166.276,201.607-166.276,201.607L-20.391,539.843z"/>
	</g>
	<g id="Capa_9_2_">
		<g id="Capa_5_copia_1_">
			<path fill="none" stroke="#FF0000" stroke-width="5" stroke-linecap="round" stroke-miterlimit="10" d="M124.925,320.092
				c-18.029,5.211-19.456-27.964-12.845-23.074c5.747,4.252-14.621,12.865-26.173,6.606c-14.688-7.959-14.643-29.572-7.516-25.528
				c6.719,3.812-7.436,8.172-16,8.242c0,0-7.173-0.618-7.55-7.676"/>
		</g>
	</g>
</g>
</svg>
