<?xml version="1.0" encoding="utf-8"?>
<!-- Generator: Adobe Illustrator 16.0.0, SVG Export Plug-In . SVG Version: 6.00 Build 0)  -->
<!DOCTYPE svg PUBLIC "-//W3C//DTD SVG 1.1//EN" "http://www.w3.org/Graphics/SVG/1.1/DTD/svg11.dtd">
<svg version="1.1" id="Capa_1" xmlns="http://www.w3.org/2000/svg" xmlns:xlink="http://www.w3.org/1999/xlink" x="0px" y="0px"
	 width="800px" height="800px" viewBox="0 0 800 800" enable-background="new 0 0 800 800" xml:space="preserve">
<g id="Capa_10" display="none">
	<rect x="-16" y="-23" display="inline" fill="#36D4FF" width="825" height="844"/>
</g>
<g id="Capa_3">
</g>
<g id="Capa_13" display="none" opacity="0.2">
	<path display="inline" fill="#5E5E5E" d="M572,485c0-6.627-5.373-12-12-12H250c-6.627,0-12,5.373-12,12v194c0,6.627,5.373,12,12,12
		h310c6.627,0,12-5.373,12-12V485z"/>
</g>
<g id="Palanca_copia_3">
	<g>
		<g>
			<path fill="none" stroke="#ED1C24" stroke-width="2" stroke-miterlimit="10" d="M522.365,562.987
				c-0.587,0.998-1.05,2.075-1.365,3.214c-0.67,0.034-1.862,0.062-3.495-0.024"/>
			<path fill="none" stroke="#ED1C24" stroke-width="2" stroke-miterlimit="10" stroke-dasharray="7.0746,5.0533" d="
				M512.483,565.646c-10.796-1.671-29.622-7.842-48.036-29.576c-1.265-1.699-2.604-3.335-3.994-4.928
				c-2.77-3.471-5.05-5.748-6.911-7.016c-14.139-12.681-32.803-20.427-53.291-20.482c-44.287-0.118-80.284,35.684-80.404,79.969
				c-0.12,44.287,35.685,80.285,79.97,80.404c20.33,0.057,38.896-7.474,53.063-19.9c2.079-1.303,4.706-3.884,7.996-8.078
				c0.021-0.024,0.04-0.047,0.058-0.071c0.932-1.083,1.832-2.188,2.702-3.317c20.354-24.114,41.205-29.289,51.435-30.281"/>
			<path fill="none" stroke="#ED1C24" stroke-width="2" stroke-miterlimit="10" d="M517.593,602.189
				c1.697-0.073,2.896-0.023,3.496,0.016c0.366,1.12,0.876,2.176,1.509,3.148"/>
			<path fill="none" stroke="#ED1C24" stroke-width="2" stroke-miterlimit="10" stroke-dasharray="7.087,5.0621" d="M526.07,608.996
				c2.279,1.646,5.097,2.627,8.146,2.635l144.298,0.396c16.371,0.043,28.562-10.953,28.604-26.228l0.003-1.415
				c-0.514-18.553-14.207-27.754-28.457-27.794l-144.298-0.391c-4.209-0.012-7.979,1.827-10.521,4.73"/>
		</g>
	</g>
	
		<line fill="none" stroke="#ED1C24" stroke-width="2" stroke-miterlimit="10" stroke-dasharray="24,38" x1="-30.528" y1="580.855" x2="817.19" y2="586.471"/>
	
		<circle fill="none" stroke="#ED1C24" stroke-width="2" stroke-miterlimit="10" stroke-dasharray="7,5" cx="679.334" cy="583.666" r="19.334"/>
</g>
<g id="Palanca_copia_4">
	<g>
		<g>
			<path fill="none" stroke="#ED1C24" stroke-width="2" stroke-miterlimit="10" d="M462.743,475.544
				c0.415,1.081,0.97,2.114,1.663,3.07c-0.393,0.545-1.111,1.495-2.196,2.719"/>
			<path fill="none" stroke="#ED1C24" stroke-width="2" stroke-miterlimit="10" stroke-dasharray="7.0746,5.0533" d="
				M458.666,484.931c-8.032,7.402-24.588,18.283-53.063,19.145c-2.112-0.071-4.229-0.04-6.343,0.056
				c-4.438,0.002-7.642,0.369-9.791,1.034c-18.729,3.157-36.416,12.93-49.226,28.92c-27.688,34.564-22.111,85.029,12.451,112.715
				c34.562,27.688,85.027,22.113,112.716-12.45c12.709-15.863,18.39-35.08,17.494-53.903c0.277-2.438-0.104-6.103-1.335-11.289
				c-0.007-0.029-0.015-0.059-0.021-0.089c-0.27-1.4-0.57-2.795-0.913-4.183c-6.18-30.941,2.767-50.478,8.361-59.096"/>
			<path fill="none" stroke="#ED1C24" stroke-width="2" stroke-miterlimit="10" d="M490.432,503.703
				c1.001-1.374,1.785-2.28,2.19-2.728c1.104,0.411,2.248,0.672,3.403,0.781"/>
			<path fill="none" stroke="#ED1C24" stroke-width="2" stroke-miterlimit="10" stroke-dasharray="7.087,5.0621" d="
				M501.037,501.312c2.712-0.758,5.229-2.352,7.139-4.73l90.215-112.62c10.234-12.778,9.229-29.165-2.688-38.713l-1.104-0.884
				c-14.832-11.157-30.562-6.181-39.471,4.94l-90.214,112.621c-2.631,3.286-3.542,7.378-2.854,11.176"/>
		</g>
	</g>
	
		<circle fill="none" stroke="#ED1C24" stroke-width="2" stroke-miterlimit="10" stroke-dasharray="7,5" cx="577.334" cy="366.667" r="19.334"/>
</g>
<g id="Palanca_copia_2">
	<g>
		<g>
			<path fill="none" stroke="#ED1C24" stroke-width="2" stroke-miterlimit="10" d="M281.396,560.671
				c0.585,1,1.044,2.079,1.357,3.218c0.669,0.036,1.862,0.067,3.495-0.015"/>
			<path fill="none" stroke="#ED1C24" stroke-width="2" stroke-miterlimit="10" stroke-dasharray="7.0746,5.0533" d="
				M291.271,563.358c10.799-1.643,29.642-7.763,48.115-29.446c1.27-1.696,2.614-3.328,4.008-4.915
				c2.776-3.463,5.065-5.734,6.931-6.996c14.173-12.643,32.856-20.339,53.347-20.339c44.287,0,80.188,35.901,80.188,80.187
				c0,44.287-35.9,80.188-80.188,80.188c-20.329,0-38.876-7.579-53.01-20.046c-2.077-1.309-4.696-3.896-7.977-8.103
				c-0.02-0.022-0.039-0.046-0.058-0.069c-0.926-1.085-1.825-2.193-2.692-3.327c-20.285-24.168-41.125-29.399-51.349-30.42"/>
			<path fill="none" stroke="#ED1C24" stroke-width="2" stroke-miterlimit="10" d="M286.064,599.887
				c-1.698-0.078-2.896-0.03-3.497,0.006c-0.369,1.118-0.882,2.176-1.518,3.146"/>
			<path fill="none" stroke="#ED1C24" stroke-width="2" stroke-miterlimit="10" stroke-dasharray="7.087,5.0621" d="
				M277.567,606.528c-2.286,1.643-5.104,2.472-8.155,2.472H125.113C108.743,609,97,598.254,97,582.981v-1.414
				c0-18.553,14.073-27.718,28.323-27.72l144.195,0.002c4.209,0,7.919,1.777,10.452,4.689"/>
		</g>
	</g>
	
		<circle fill="none" stroke="#ED1C24" stroke-width="2" stroke-miterlimit="10" stroke-dasharray="7,5" cx="125.334" cy="581.666" r="19.334"/>
</g>
<g id="Palanca_copia">
	<g>
		<g>
			<path fill="none" stroke="#ED1C24" stroke-width="2" stroke-miterlimit="10" d="M341.982,476.421
				c-0.396,1.089-0.932,2.133-1.604,3.104c0.4,0.535,1.139,1.475,2.247,2.678"/>
			<path fill="none" stroke="#ED1C24" stroke-width="2" stroke-miterlimit="10" stroke-dasharray="7.0746,5.0533" d="
				M346.236,485.73c8.17,7.25,24.929,17.814,53.415,18.14c2.112-0.113,4.229-0.121,6.343-0.065c4.438-0.082,7.646,0.228,9.809,0.852
				c18.786,2.804,36.654,12.238,49.765,27.984c28.334,34.037,23.711,84.599-10.323,112.932
				c-34.035,28.336-84.598,23.713-112.932-10.322c-13.007-15.623-19.049-34.729-18.51-53.565c-0.325-2.432-0.01-6.103,1.123-11.312
				c0.007-0.031,0.011-0.062,0.021-0.09c0.24-1.405,0.517-2.809,0.834-4.198c5.595-31.054-3.719-50.416-9.477-58.927"/>
			<path fill="none" stroke="#ED1C24" stroke-width="2" stroke-miterlimit="10" d="M314.83,505.099
				c-1.026-1.354-1.829-2.246-2.242-2.684c-1.096,0.432-2.235,0.713-3.388,0.846"/>
			<path fill="none" stroke="#ED1C24" stroke-width="2" stroke-miterlimit="10" stroke-dasharray="7.087,5.0621" d="
				M304.181,502.908c-2.725-0.705-5.274-2.251-7.226-4.598l-92.323-110.897c-10.473-12.583-9.777-28.985,1.96-38.757l1.087-0.905
				c14.619-11.435,30.439-6.756,39.557,4.195l92.322,110.9c2.692,3.234,3.682,7.311,3.062,11.119"/>
		</g>
	</g>
	
		<circle fill="none" stroke="#ED1C24" stroke-width="2" stroke-miterlimit="10" stroke-dasharray="7,5" cx="225.334" cy="369.667" r="19.334"/>
</g>
<g id="Capa_2_copia_2">
</g>
<g id="Capa_2_copia_3">
	
		<linearGradient id="SVGID_1_" gradientUnits="userSpaceOnUse" x1="260.7539" y1="302.4941" x2="-92.2451" y2="125.4947" gradientTransform="matrix(1 0 0 1 188 9)">
		<stop  offset="0" style="stop-color:#F9DBBD"/>
		<stop  offset="0.8545" style="stop-color:#F9DBBD;stop-opacity:0.1455"/>
		<stop  offset="1" style="stop-color:#F9DBBD;stop-opacity:0"/>
	</linearGradient>
	<path fill="url(#SVGID_1_)" d="M242.385,151.105c0,0,32.226,22.192,36.608,23.069c4.382,0.877,12.818,8.631,13.702,8.689
		c0.885,0.058,20.092,9.594,24.75,10.785c4.656,1.191,12.307,6.424,27.433,5.929c15.125-0.496,61.125,6.642,66.43,6.987
		c5.307,0.345,28.823,2.763,32.244,4.762c3.422,1.998,9.616,6.841,10.034,9.531c0.416,2.691,0.713,16.324,2.116,22.038
		s14.867,49.55,15.156,58.744c0.288,9.193-4.849,15.37-8.576,18.086c-3.729,2.717-38.195,26.922-43.282,27.775
		c-5.086,0.852,8.685-33.33,8.685-33.33s2.229-20.572,0.232-26.324c-1.992-5.753-38.875,38.015-38.97,39.488
		c-0.098,1.474,39.832,25.665,26.547,42.273c-9.881,12.354-14.382,11.79-14.382,11.79s-22.031-7.057-22.877-7.704
		c-0.848-0.647-5.474-6.867-8.678-7.667c-3.203-0.801-8.079-3.189-11.955-7.289c-3.877-4.1-11.812-27.7-17.16-31.896
		c-5.352-4.196-20.401-18.492-24.221-23.476c-3.816-4.984-17.646-15.354-19.401-20.204c-1.755-4.85-1.871-7.643-6.559-12.918
		c-4.688-5.275-6.654-6.882-11.017-8.055c-4.363-1.171-25.294-6.973-30.15-9.656c-4.856-2.683-38.142-14.097-39.32-14.174
		c-1.18-0.077-137.802-53.776-137.802-53.776l49.169-100.678L242.385,151.105z"/>
</g>
<g id="Palanca">
	<g>
		<circle fill="#A5A5A5" cx="403.026" cy="583.934" r="83.731"/>
		<path fill="#A5A5A5" d="M384.148,456.864c0,0,3.593,32.854-35.464,63.317c-39.057,30.469,54.313,6.735,54.313,6.735L405.412,452
			h-18.704L384.148,456.864z"/>
		<path fill="#A5A5A5" d="M421.827,456.864c0,0-3.591,32.854,35.463,63.317c39.057,30.469-54.313,6.735-54.313,6.735L400.564,452
			h18.701L421.827,456.864z"/>
	</g>
	<path fill="#5E5E5E" d="M375,294.276C375,280.667,389,264,401.844,264h1.479c19.37,1,29.68,15.505,29.68,30.276v149.569
		c0,7.919-7.085,14.155-14.914,14.155h-29.532c-7.828,0-13.554-6.236-13.554-14.155L375,294.276L375,294.276z"/>
	<circle fill="#727272" cx="402.926" cy="583.991" r="63.79"/>
</g>
<g id="Capa_2_copia">
	<path fill="#F9DBBD" d="M446.5,341.134c0,0-6.376,6.006-20,4.532c-14.166-1.532-41.167-1.532-43.5-6.5
		c-0.317-0.674-4.16-3-4.413-8.667s7.468-12.057,10.413-12.327s23.667,2.431,23.667,2.431L429,303.5l3.255-13.053l36.105,22.124
		L446.5,341.134z"/>
	<circle fill="#2D2D2D" cx="403.926" cy="292.41" r="28.757"/>
	<circle fill="#3F3F3F" cx="403.926" cy="292.41" r="22.339"/>
</g>
<g id="Capa_2">
</g>
<g id="Capa_9">
	
		<linearGradient id="SVGID_2_" gradientUnits="userSpaceOnUse" x1="-120.6973" y1="507.917" x2="13.3533" y2="277.9883" gradientTransform="matrix(1 0 0 1 188 9)">
		<stop  offset="0" style="stop-color:#CA190B"/>
		<stop  offset="1" style="stop-color:#CA190B;stop-opacity:0"/>
	</linearGradient>
	<path fill="url(#SVGID_2_)" d="M195.375,323.213l-6.382-11.654C116.858,367.854,67.231,451.638,55.831,547.164l-8.861-0.734
		l12.539,30.169l16.404-27.623l-7.025-0.729C79.884,457.213,126.951,377.303,195.375,323.213z"/>
	<circle fill="#CA190B" cx="190.031" cy="316.495" r="17.677"/>
	
		<linearGradient id="SVGID_3_" gradientUnits="userSpaceOnUse" x1="581.0439" y1="508.2656" x2="715.095" y2="278.3364" gradientTransform="matrix(-1 0 0 1 1324.416 9)">
		<stop  offset="0" style="stop-color:#CA190B"/>
		<stop  offset="1" style="stop-color:#CA190B;stop-opacity:0"/>
	</linearGradient>
	<path fill="url(#SVGID_3_)" d="M615.898,323.213l6.381-11.654c72.136,56.294,121.762,140.079,133.161,235.605l8.86-0.734
		l-12.539,30.169l-18.006-27.623l8.627-0.729C731.389,457.213,684.321,377.303,615.898,323.213z"/>
	<circle fill="#CA190B" cx="621.241" cy="316.495" r="17.676"/>
	<path fill="#2BA03C" d="M599.7,304.522l-16.312-26.868l-3.714,5.661c-51.386-29.331-110.857-46.117-174.265-46.117
		c-64.313,0-119.58,13.265-171.463,43.38l-3.801-5.793l-21.31,30.868l31.11-4.305l-3.805-5.801
		c49.811-28.768,107.609-45.25,169.268-45.25c60.752,0,117.753,16.008,167.062,43.996l-3.885,5.923L599.7,304.522z"/>
	<circle fill="#2BA03C" cx="405.164" cy="242.961" r="17.677"/>
	<text transform="matrix(1 0 0 1 181.9961 325.8555)" fill="#FFFFFF" font-family="'MyriadPro-Bold'" font-size="28.0745">R</text>
	<text transform="matrix(1 0 0 1 614.6211 325.8555)" fill="#FFFFFF" font-family="'MyriadPro-Bold'" font-size="28.0745">F</text>
	<text transform="matrix(1 0 0 1 395.6211 252.3555)" fill="#FFFFFF" font-family="'MyriadPro-Bold'" font-size="28.0745">N</text>
</g>
</svg>
