<?xml version="1.0" encoding="utf-8"?>
<!-- Generator: Adobe Illustrator 16.0.0, SVG Export Plug-In . SVG Version: 6.00 Build 0)  -->
<!DOCTYPE svg PUBLIC "-//W3C//DTD SVG 1.1//EN" "http://www.w3.org/Graphics/SVG/1.1/DTD/svg11.dtd">
<svg version="1.1" xmlns="http://www.w3.org/2000/svg" xmlns:xlink="http://www.w3.org/1999/xlink" x="0px" y="0px" width="800px"
	 height="800px" viewBox="0 0 800 800" enable-background="new 0 0 800 800" xml:space="preserve">
<g id="Capa_5">
	<rect x="-7" y="-9" fill="#72B4CE" width="819" height="823"/>
</g>
<g id="you">
	<g id="Solid">
		<g id="Capa_22_copia">
			<path fill="#36627A" d="M77.254,704.697c-0.509,0.127-2.018,3.732-1.396,6.514c0.623,2.78,2.353,9.212,3.249,10.249
				c0.898,1.037,2.045,2.908,2.045,2.908s-3.715,2.175-4.271,3.528c0,0,0.021,0.547,0.481,0.456c0.46-0.09,4.494-0.457,4.7-0.01
				c0.208,0.446,0.661,2.788,0.733,3.093c0.074,0.306-0.046,1.702-0.087,2.204c-0.016,0.208-1.184,2.247-0.94,2.69
				c0.247,0.443,1.925,0.397,2.859,0.342c0.934-0.056,5.798-3.576,6.47-4.217c0.674-0.639,0.598-8.075,0.598-8.075
				s-1.771-9.659-1.424-9.692c0.348-0.032,2.663-1.063,3.387-1.967c0.724-0.902,0.29-5.126-0.092-5.789
				C93.18,706.27,84.881,702.797,77.254,704.697z"/>
			<path fill="#6C808C" d="M82.042,731.355c0,0,0.802-0.193,0.852-0.095c0.05,0.1,0.237,0.373,0.219,0.914s0.214,1.22-0.21,1.286
				c-0.424,0.067-0.717,0.08-0.717,0.08s-0.646,1.775-1.72,2.346c-1.073,0.568-1.815,0.415-1.168-0.303
				c0.646-0.717,1.88-1.578,1.748-1.858c-0.13-0.279-2.237,0.089-2.237,0.089l-0.044-1.714c0,0,1.614-0.215,1.695-0.188
				c0.082,0.027,0.675-0.448,0.205-0.631c-0.471-0.183-2.458,0.093-2.166-0.625c0.293-0.719,0.216-0.71,0.966-0.831
				c0.751-0.123,1.729,0.213,2.176,0.716C82.086,731.043,82.042,731.355,82.042,731.355z"/>
		</g>
		<g>
			<path fill="#FFFFFF" stroke="#FFFFFF" stroke-miterlimit="10" d="M125.643,724.271l0.614,0.455
				c0.11,0.007,8.345,0.174,21.362-0.3c2.254-0.082,4.631-0.457,7.062-0.616c15.151-0.982,36.21-2.145,51.588-10.252
				c-0.041,0.039-0.078,0.077-0.116,0.117c-0.521,0.519-1.039,1.066-1.587,1.646c-3.469,3.672-7.783,8.239-19.205,12.017
				c-2.629,0.869-5.459,1.333-8.911,1.458c-2.957,0.108-5.994,0.14-9.215-0.021c-3.61,0.162-6.599,0.032-10.496,0.174
				c-0.599,0.022-3.571-0.028-4.338-0.001c-15.18,0.553-61.602-1.144-63.526-1.198l-4.08-9.355l33.507-0.065L125.643,724.271z"/>
			<path fill="#FF0000" d="M125.05,725.426l-7.85-6.098l-32.025-0.651c9.794-2.776,28.707-6.397,56.801-9.158
				c20.184-1.983,37.256-2.797,45.11-2.685c14.281,0.204,23.697-0.614,26.124-0.951c-0.404,0.276-0.997,0.711-1.354,1.066
				c-0.271,0.27-0.505,0.629-0.832,1.128c-0.658,1.01-1.667,2.471-3.931,4.767l-0.227,0.222
				c-15.368,8.193-36.497,11.212-51.714,12.199C139.036,726.312,125.735,725.473,125.05,725.426z"/>
			<path d="M141.959,699.453c-0.146-0.271-0.263-0.475-0.355-0.627c-0.047-0.075-0.088-0.139-0.124-0.192
				c-0.179-0.264-0.234-0.263-0.269-0.263l-0.095,0.064c-0.043,0.088-0.091,0.184-0.146,0.282c-0.037,0.065-0.076,0.135-0.119,0.204
				c-0.021,0.034-0.042,0.07-0.063,0.105c-0.584,0.918-1.57,2.01-2.191,1.87c-0.297-0.066-0.479-0.26-0.562-0.59
				c-0.012-0.038-0.018-0.079-0.024-0.12c-0.006-0.043-0.013-0.086-0.014-0.132c-0.082-1.188,0.893-3.556,2.23-5.092
				c0.207-0.236,0.422-0.453,0.642-0.643c0.124-0.105,0.263-0.213,0.411-0.306c0.238-0.146,0.498-0.257,0.743-0.253
				c0.093,0.001,0.183,0.019,0.271,0.055c0.14,0.058,0.234,0.161,0.29,0.314c0.036,0.102,0.053,0.219,0.058,0.345
				c0.023,0.889-0.683,2.267-0.692,2.283l-0.053,0.102l1.246,0.311L141.959,699.453z M141.952,695.059
				c-0.009-0.137-0.046-0.248-0.126-0.32c-0.015-0.016-0.032-0.028-0.051-0.04c-0.047-0.029-0.102-0.042-0.159-0.04
				c-0.041,0.001-0.083,0.012-0.132,0.03c-0.327,0.13-0.784,0.661-1.24,1.338l-0.021-0.024l-0.023-0.025l-0.393,0.744
				c-0.196,0.332-0.383,0.676-0.548,1.01c-0.275,0.557-0.492,1.084-0.598,1.479c-0.06,0.225-0.083,0.404-0.07,0.541
				c0.003,0.034,0.01,0.065,0.016,0.094c0.022,0.086,0.065,0.148,0.128,0.188c0.027,0.017,0.059,0.023,0.091,0.022
				c0.378-0.014,1.546-1.538,2.027-2.28c0.018-0.028,0.034-0.054,0.05-0.08c0.031-0.05,0.06-0.096,0.081-0.136
				c0.024-0.039,0.042-0.074,0.054-0.102c0.015-0.024,0.031-0.055,0.054-0.091c0.021-0.036,0.044-0.078,0.069-0.124
				C141.441,696.732,141.988,695.655,141.952,695.059z"/>
			<path fill="#3FA9F5" d="M153.441,694.831c-0.485,0.085-2.19,0.426-3.667,0.761c-0.094,0.021-0.187,0.043-0.279,0.065
				c-0.048,0.011-0.095,0.022-0.144,0.033c-0.202,0.048-0.397,0.097-0.583,0.146c-0.059,0.016-0.115,0.031-0.171,0.046
				c-0.14,0.039-0.273,0.077-0.398,0.114c-0.05,0.016-0.099,0.03-0.146,0.046c-0.01,0.002-0.023,0.006-0.039,0.01
				c-0.453,0.119-2.838,0.849-3.203,1.539c-0.012,0.023-0.522,4.205-0.61,5.371l-1.875,0.019l-0.597-1.486l0.141-1.968l3.283-7.035
				l0.305-0.12l0.307-0.119l0.729-4.994c0.044-0.001,0.104-0.004,0.182-0.007c0.531-0.019,2.301-0.068,2.817,0.105
				C149.922,687.506,152.135,691.945,153.441,694.831z"/>
			<path d="M141.033,696.948c0.009-0.001,0.015-0.003,0.021-0.004c0.017-0.004,0.032-0.015,0.045-0.026
				c-0.083,0.158-0.168,0.312-0.251,0.455c-0.045,0.101-0.136,0.251-0.252,0.429c-0.021-0.046-0.031-0.097-0.033-0.144
				c-0.003-0.076,0.01-0.139,0.01-0.141l0.024-0.095l-0.872-0.151l0.339-0.646c0.066-0.106,0.133-0.211,0.201-0.312
				C140.811,696.9,140.97,696.952,141.033,696.948z"/>
			<path d="M141.091,697.365c-0.021,0.037-0.038,0.067-0.053,0.091c-0.012,0.028-0.029,0.062-0.054,0.103
				c-0.022,0.041-0.051,0.086-0.08,0.136c-0.016,0.025-0.033,0.052-0.051,0.079c-0.48,0.742-1.648,2.268-2.027,2.281
				c-0.032,0.002-0.064-0.006-0.09-0.022c-0.064-0.039-0.106-0.102-0.128-0.188c-0.008-0.028-0.014-0.061-0.017-0.094
				c-0.012-0.137,0.013-0.316,0.07-0.541c0.105-0.395,0.322-0.923,0.6-1.479c0.164-0.334,0.353-0.678,0.547-1.01l0.393-0.744
				l0.022,0.024l0.023,0.024c0.455-0.676,0.912-1.206,1.239-1.338c0.047-0.019,0.09-0.029,0.131-0.03
				c0.061-0.002,0.113,0.012,0.159,0.04c0.02,0.012,0.037,0.025,0.053,0.04c0.078,0.073,0.115,0.185,0.124,0.32
				c0.034,0.597-0.511,1.674-0.793,2.183C141.134,697.288,141.112,697.33,141.091,697.365z M138.824,699.257
				c-0.126,0.478-0.061,0.591-0.035,0.613c0.301-0.067,1.175-1.146,1.693-1.902c-0.104-0.128-0.112-0.293-0.103-0.396l-0.783-0.136
				C139.25,698.085,138.958,698.742,138.824,699.257z M140.064,696.627l-0.34,0.645l0.871,0.151l-0.022,0.095
				c-0.001,0.001-0.015,0.064-0.011,0.141c0.002,0.046,0.013,0.098,0.033,0.144c0.116-0.178,0.206-0.328,0.252-0.429
				c0.082-0.143,0.167-0.297,0.251-0.455c-0.014,0.012-0.028,0.021-0.046,0.026c-0.006,0.001-0.011,0.003-0.021,0.004
				c-0.062,0.004-0.221-0.048-0.771-0.635C140.196,696.416,140.13,696.52,140.064,696.627z M141.68,694.854
				c-0.014-0.01-0.035-0.014-0.058-0.013c-0.256,0.009-0.747,0.565-1.257,1.317c0.24,0.255,0.508,0.514,0.623,0.588
				c0.059-0.097,0.177-0.139,0.275-0.153C141.646,695.811,141.929,695.007,141.68,694.854z"/>
			<path display="none" fill="#FFFFFF" stroke="#FFFFFF" stroke-miterlimit="10" d="M184.039,747.045
				c0.007,0.028-0.007,0.049-0.035,0.086c-0.011,0.016-0.022,0.031-0.03,0.047c-0.023,0.029-0.21,0.081-0.732,0.089l-0.276-0.059
				c-6.301-1.321-17.681-3.136-36.122-4.271c-12.942-0.798-23.801-0.898-28.819-0.644c-9.701,0.492-15.912-0.122-16.94-0.235
				c-0.234-0.138-0.404-0.225-0.412-0.229c-0.255-0.075-0.409-0.226-0.39-0.375c0.021-0.162,0.264-0.355,0.879-0.366
				c0,0,7.934-1.53,13.599-2.328c0.362-0.051,0.693-0.085,0.983-0.12c3.743-0.46,20.522-1.452,20.692-1.463l0.029-0.001l0.017-0.027
				c0.05-0.083,1.207-2.039,1.342-2.289c0.065-0.121,0.065-0.286,0.067-0.46c0-0.202,0.001-0.411,0.114-0.515
				c0.104-0.095,0.336-0.148,0.654-0.148c0.113,0,0.193,0.008,0.194,0.008l0.042,0.004l0.007-0.014
				c0.381,0.052,2.46,0.344,3.456,0.624c0.564,0.123,2.056,0.521,2.175,0.863c0.152,0.437,0.559,3.249,0.563,3.276l0.006,0.132
				h1.101l0.348-0.895l2.542,0.24l4.119,0.39l0.018-0.123c-0.28-0.053-0.343-0.146-0.381-0.536
				c-0.012-0.121,0.071-0.294,0.227-0.471c0.253-0.287,0.718-0.603,1.136-0.615c0.141-0.004,0.38-0.022,0.683-0.045
				c0.613-0.045,1.453-0.106,2.141-0.106c0.749,0,1.016,0.076,1.105,0.14c0.122,0.087,0.185,0.181,0.188,0.278
				c0.004,0.168-0.169,0.307-0.17,0.309l-0.113,0.089l1.241,0.126l0.039,0.604l5.966,0.332l0.371,0.682l7.042,0.021l3.293,0.804
				l0.076,3.764l1.825,0.675l0.011,0.003l4.405-0.077l1.007,0.615l-0.019,1.611l0.027,0.018
				C183.785,746.75,184.016,746.94,184.039,747.045z"/>
			<g>
				<path fill="#FFFFFF" d="M146.925,708.012c-24.609,2.088-49.825,6.485-62.092,9.368l-0.179-2.835l1.539-1.02l6.893-0.129
					l0.016-0.007l2.814-1.159l-0.094-5.889l5.103-1.443l11.008-0.432l0.542-1.088l9.308-0.857l0.027-0.947l1.933-0.268l-0.181-0.133
					c-0.003-0.002-0.281-0.209-0.284-0.473c-0.001-0.153,0.091-0.304,0.277-0.445c0.138-0.105,0.549-0.239,1.719-0.282
					c1.076-0.038,2.392,0.011,3.354,0.047c0.475,0.018,0.85,0.033,1.068,0.032c0.654-0.005,1.399,0.465,1.812,0.898
					c0.254,0.267,0.393,0.535,0.382,0.727c-0.036,0.61-0.129,0.768-0.564,0.865l0.034,0.206l6.419-0.818l3.963-0.467l0.598,1.482
					l1.721-0.063l-0.001-0.312c0.007-0.043,0.478-4.567,0.69-5.259c0.166-0.54,2.475-1.248,3.352-1.474
					c1.54-0.494,4.774-1.069,5.368-1.172l0.01,0.021l0.065-0.009c0.002,0,0.128-0.016,0.305-0.021
					c0.498-0.019,0.863,0.051,1.03,0.192c0.183,0.156,0.196,0.482,0.209,0.799c0.012,0.271,0.022,0.529,0.131,0.716
					c0.226,0.384,2.146,3.375,2.228,3.502l0.028,0.041l0.046,0.001c0.267,0.006,26.556,0.602,32.435,1.108
					c0.455,0.039,0.975,0.073,1.543,0.132c8.902,0.926,21.416,3.04,21.416,3.04c0.242-0.004,0.438,0.155,0.611,0.184
					c-2.252,1.595-11.627,1.159-15.281,1.372S179.78,705.224,146.925,708.012z"/>
				<path fill="#FFFFFF" d="M214.297,704.855c0.04,0.233-0.193,0.478-0.588,0.608c-0.012,0.006-0.141,0.108-0.498,0.419
					c-1.604,0.235-11.408,1.512-26.604,1.295c-7.86-0.113-24.829,0.662-45.019,2.646c-28.766,2.826-46.453,6.31-56.229,8.734
					l-0.428,0.106c-0.817,0.019-1.11-0.053-1.148-0.096c-0.014-0.025-0.028-0.049-0.047-0.073c-0.045-0.056-0.062-0.087-0.053-0.132
					c0.025-0.164,0.389-0.476,1.088-0.954l0.067-0.029v-0.009c12.311-2.885,37.684-7.597,62.293-9.686
					c32.854-2.788,47.608-1.972,51.263-2.185c3.654-0.212,12.625-0.141,15.131-1.128
					C214.04,704.459,214.266,704.667,214.297,704.855z"/>
			</g>
			<path fill="#C99B59" d="M129.56,701.778c0.52,0.041,0.405,0.741,1.331,1.006c0.925,0.265,1.012-0.334,1.077-0.88
				c0.076-0.64-1.084-2.013-2.079-2.029c-0.996-0.016-4.687-0.271-5.929,0.037c-1.696,0.42-0.723,1.479-0.723,1.479
				C123.678,701.444,129.042,701.737,129.56,701.778z"/>
		</g>
	</g>
</g>
<g id="Cargo">
	<rect x="622" y="111" fill="#2A2A47" width="14" height="18"/>
	<rect x="71" y="125" fill="#E5D0B3" stroke="#F9EACA" stroke-width="2" stroke-miterlimit="10" width="14" height="23"/>
	<line fill="#F9EACA" stroke="#F9EACA" stroke-width="2" stroke-miterlimit="10" x1="109" y1="29" x2="109" y2="50"/>
	<line fill="none" stroke="#F9EACA" stroke-width="2" stroke-miterlimit="10" x1="104" y1="29" x2="116" y2="29"/>
	<line fill="#F9EACA" stroke="#F9EACA" stroke-width="2" stroke-miterlimit="10" x1="93" y1="43" x2="93" y2="64"/>
	<line fill="#F9EACA" stroke="#F9EACA" stroke-width="2" stroke-miterlimit="10" x1="90" y1="43" x2="90" y2="64"/>
	<line fill="#F9EACA" stroke="#F9EACA" stroke-width="2" stroke-miterlimit="10" x1="636" y1="92" x2="636" y2="113"/>
	<line fill="#F9EACA" stroke="#F9EACA" stroke-width="2" stroke-miterlimit="10" x1="73" y1="103" x2="73" y2="124"/>
	<path fill="#F9EACA" d="M118,57.697c0,0.72-0.583,1.303-1.303,1.303h-12.394c-0.72,0-1.303-0.583-1.303-1.303V46.303
		c0-0.72,0.583-1.303,1.303-1.303h12.394c0.72,0,1.303,0.583,1.303,1.303V57.697z"/>
	<rect x="86" y="56" fill="#F9EACA" width="21" height="87"/>
	<rect x="101" y="56" fill="#E5D0B3" width="21" height="87"/>
	<rect x="126" y="83" fill="#B52144" width="45" height="11"/>
	<rect x="126" y="127" fill="#B52144" width="45" height="11"/>
	<rect x="267" y="130" fill="#CE456C" width="45" height="11"/>
	<rect x="319" y="119" fill="#CE456C" width="45" height="11"/>
	<rect x="437" y="130" fill="#CE456C" width="45" height="11"/>
	<rect x="491" y="97" fill="#CE456C" width="45" height="11"/>
	<rect x="437" y="119" fill="#DB5131" width="45" height="11"/>
	<rect x="379" y="120" fill="#DB5131" width="45" height="11"/>
	<rect x="267" y="108" fill="#DB5131" width="45" height="11"/>
	<rect x="206" y="119" fill="#63B541" width="45" height="11"/>
	<rect x="267" y="119" fill="#63B541" width="45" height="11"/>
	<rect x="549" y="133" fill="#63B541" width="45" height="11"/>
	<rect x="491" y="108" fill="#63B541" width="45" height="11"/>
	<rect x="491" y="119" fill="#D8C073" width="45" height="11"/>
	<rect x="379" y="109" fill="#D8C073" width="45" height="11"/>
	<rect x="206" y="130" fill="#D8C073" width="45" height="11"/>
	<rect x="549" y="122" fill="#D8C073" width="45" height="11"/>
	<rect x="126" y="94" fill="#D8C073" width="45" height="11"/>
	<rect x="126" y="116" fill="#D8C073" width="45" height="11"/>
	<rect x="267" y="97" fill="#4052BF" width="45" height="11"/>
	<rect x="379" y="98" fill="#4052BF" width="45" height="11"/>
	<rect x="491" y="130" fill="#4052BF" width="45" height="12"/>
	<rect x="126" y="105" fill="#4052BF" width="45" height="11"/>
	<rect x="206" y="108" fill="#304084" width="45" height="11"/>
	<rect x="319" y="130" fill="#304084" width="45" height="11"/>
	<rect x="206" y="97" fill="#4F5466" width="45" height="11"/>
	<rect x="126" y="138" fill="#4F5466" width="45" height="11"/>
	<rect x="379" y="131" fill="#4F5466" width="45" height="11"/>
	<rect x="437" y="108" fill="#4F5466" width="45" height="11"/>
	<rect x="549" y="111" fill="#4F5466" width="45" height="11"/>
	<path fill="#444444" d="M67,133.562l55,0.021c0,0,25.667,14.417,27,14.417s40,0,40,0l3.762-3.255l4.238-0.057l3-3.688h341l9-3.75
		l61.326,0.193l25.986-25.818l1.021,13.073l46,6.984l-25.265,33.891c0,0-6.569,7.51-26.735,8.097
		c-13.678,0.398-547.417,1.665-556.084-2.335C66.333,168.417,67,161,67,161V133.562z"/>
	<path fill="#E5D0B3" d="M98,64.75c0,0.69-0.56,1.25-1.25,1.25h-5.5C90.56,66,90,65.44,90,64.75v-3.5c0-0.69,0.56-1.25,1.25-1.25
		h5.5c0.69,0,1.25,0.56,1.25,1.25V64.75z"/>
	<path fill="#E5D0B3" d="M98,74.75c0,0.69-0.56,1.25-1.25,1.25h-5.5C90.56,76,90,75.44,90,74.75v-3.5c0-0.69,0.56-1.25,1.25-1.25
		h5.5c0.69,0,1.25,0.56,1.25,1.25V74.75z"/>
	<path fill="#E5D0B3" d="M98,84.75c0,0.69-0.56,1.25-1.25,1.25h-5.5C90.56,86,90,85.44,90,84.75v-3.5c0-0.69,0.56-1.25,1.25-1.25
		h5.5c0.69,0,1.25,0.56,1.25,1.25V84.75z"/>
	<path fill="#E5D0B3" d="M98,94.75c0,0.69-0.56,1.25-1.25,1.25h-5.5C90.56,96,90,95.44,90,94.75v-3.5c0-0.69,0.56-1.25,1.25-1.25
		h5.5c0.69,0,1.25,0.56,1.25,1.25V94.75z"/>
	<path fill="#E5D0B3" d="M98,104.75c0,0.69-0.56,1.25-1.25,1.25h-5.5c-0.69,0-1.25-0.56-1.25-1.25v-3.5c0-0.69,0.56-1.25,1.25-1.25
		h5.5c0.69,0,1.25,0.56,1.25,1.25V104.75z"/>
	<path fill="#E5D0B3" d="M98,114.75c0,0.69-0.56,1.25-1.25,1.25h-5.5c-0.69,0-1.25-0.56-1.25-1.25v-3.5c0-0.69,0.56-1.25,1.25-1.25
		h5.5c0.69,0,1.25,0.56,1.25,1.25V114.75z"/>
	<path fill="#E5D0B3" d="M98,124.75c0,0.69-0.56,1.25-1.25,1.25h-5.5c-0.69,0-1.25-0.56-1.25-1.25v-3.5c0-0.69,0.56-1.25,1.25-1.25
		h5.5c0.69,0,1.25,0.56,1.25,1.25V124.75z"/>
	<rect x="81" y="114" fill="#E5D0B3" stroke="#F9EACA" stroke-width="2" stroke-miterlimit="10" width="5" height="11"/>
	<rect x="109" y="49" fill="#E5D0B3" width="9" height="3"/>
	<rect x="113" y="64" fill="#444444" width="3" height="3"/>
	<rect x="113" y="74" fill="#444444" width="3" height="3"/>
	<rect x="113" y="84" fill="#444444" width="3" height="3"/>
	<rect x="113" y="94" fill="#444444" width="3" height="3"/>
	<rect x="113" y="104" fill="#444444" width="3" height="3"/>
	<rect x="113" y="115" fill="#444444" width="3" height="3"/>
	<rect x="113" y="125" fill="#444444" width="3" height="3"/>
	<polyline fill="none" stroke="#E5D0B3" stroke-width="2" stroke-miterlimit="10" stroke-dasharray="1,1" points="188.438,147.5 
		193,144 196.375,144 199.562,140.062 540.5,140.125 550.125,136.188 610.938,136.594 	"/>
	<path fill="#2A2A47" d="M628,113.5c0,0.829-0.672,1.5-1.5,1.5l0,0c-0.828,0-1.5-0.671-1.5-1.5v-6c0-0.829,0.672-1.5,1.5-1.5l0,0
		c0.828,0,1.5,0.671,1.5,1.5V113.5z"/>
	<path fill="#2A2A47" d="M640,112c0-0.552-0.447-1-1-1h-9c-0.553,0-1,0.448-1,1l0,0c0,0.552,0.447,1,1,1h9
		C639.553,113,640,112.552,640,112L640,112z"/>
</g>
<g id="Fisshing">
	<g>
		
			<line fill="none" stroke="#1A2756" stroke-width="2" stroke-linecap="round" stroke-miterlimit="10" x1="229.375" y1="255.344" x2="295.732" y2="275.869"/>
		
			<line fill="none" stroke="#1A2756" stroke-width="2" stroke-linecap="round" stroke-miterlimit="10" x1="266.543" y1="237.289" x2="290.018" y2="315.519"/>
		
			<line fill="none" stroke="#1A2756" stroke-width="2" stroke-linecap="round" stroke-miterlimit="10" x1="256.985" y1="246.852" x2="290.018" y2="311.321"/>
		
			<line fill="none" stroke="#1A2756" stroke-width="2" stroke-linecap="round" stroke-miterlimit="10" x1="122.785" y1="242.982" x2="80.565" y2="329.047"/>
		
			<line fill="none" stroke="#586077" stroke-width="2" stroke-linecap="round" stroke-miterlimit="10" x1="122.785" y1="242.982" x2="84.287" y2="332.284"/>
		
			<line fill="none" stroke="#1A2756" stroke-width="5" stroke-linecap="round" stroke-miterlimit="10" x1="140.507" y1="225.016" x2="146.8" y2="324.16"/>
		
			<line fill="none" stroke="#1A2756" stroke-width="5" stroke-linecap="round" stroke-miterlimit="10" x1="290.717" y1="218.375" x2="299.346" y2="317.852"/>
		
			<line fill="none" stroke="#1A2756" stroke-width="2" stroke-linecap="round" stroke-miterlimit="10" x1="292.116" y1="233.886" x2="318.939" y2="307.123"/>
		
			<line fill="none" stroke="#586077" stroke-width="2" stroke-linecap="round" stroke-miterlimit="10" x1="229.375" y1="255.344" x2="201.97" y2="323.449"/>
		
			<line fill="none" stroke="#1A2756" stroke-width="2" stroke-linecap="round" stroke-miterlimit="10" x1="292.116" y1="233.886" x2="324.77" y2="301.214"/>
		
			<line fill="none" stroke="#586077" stroke-width="2" stroke-linecap="round" stroke-miterlimit="10" x1="229.375" y1="255.344" x2="305.411" y2="306.19"/>
		
			<line fill="none" stroke="#586077" stroke-width="2" stroke-linecap="round" stroke-miterlimit="10" x1="236.551" y1="240.417" x2="288.852" y2="313.863"/>
		
			<line fill="none" stroke="#586077" stroke-width="2" stroke-linecap="round" stroke-miterlimit="10" x1="122.785" y1="252.721" x2="127.917" y2="326.715"/>
		<g>
			
				<line fill="none" stroke="#586077" stroke-width="3" stroke-linecap="round" stroke-miterlimit="10" x1="115.389" y1="260.138" x2="127.917" y2="336.511"/>
			<path fill="#3A251B" d="M86,321.798c0-1.545-1.253-2.798-2.798-2.798h-0.403c-1.545,0-2.798,1.253-2.798,2.798v1.403
				c0,1.545,1.253,2.798,2.798,2.798h0.403c1.545,0,2.798-1.253,2.798-2.798V321.798z"/>
			<path fill="#3A251B" d="M92,321.798c0-1.545-1.253-2.798-2.799-2.798h-0.402c-1.546,0-2.799,1.253-2.799,2.798v1.403
				c0,1.545,1.253,2.798,2.799,2.798h0.402c1.546,0,2.799-1.253,2.799-2.798V321.798z"/>
			<path fill="#3A251B" d="M142,322.798c0-1.545-1.253-2.798-2.799-2.798h-0.402c-1.546,0-2.799,1.253-2.799,2.798v1.403
				c0,1.545,1.253,2.798,2.799,2.798h0.402c1.546,0,2.799-1.253,2.799-2.798V322.798z"/>
			<path fill="#3A251B" d="M249,315.798c0-1.545-1.253-2.798-2.799-2.798h-0.401c-1.546,0-2.799,1.253-2.799,2.798v1.403
				c0,1.545,1.253,2.798,2.799,2.798h0.401c1.546,0,2.799-1.253,2.799-2.798V315.798z"/>
			<path fill="#3A251B" d="M319,299.799c0-1.546-1.253-2.799-2.799-2.799h-0.401c-1.546,0-2.799,1.253-2.799,2.799v1.401
				c0,1.546,1.253,2.799,2.799,2.799h0.401c1.546,0,2.799-1.253,2.799-2.799V299.799z"/>
			<path fill="#3A251B" d="M287,306.799c0-1.546-1.253-2.799-2.798-2.799h-0.403c-1.545,0-2.798,1.253-2.798,2.799v1.401
				c0,1.546,1.253,2.799,2.798,2.799h0.403c1.545,0,2.798-1.253,2.798-2.799V306.799z"/>
			<path fill="#3A251B" d="M262,313.799c0-1.546-1.253-2.799-2.799-2.799h-0.401c-1.546,0-2.799,1.253-2.799,2.799v1.401
				c0,1.546,1.253,2.799,2.799,2.799h0.401c1.546,0,2.799-1.253,2.799-2.799V313.799z"/>
		</g>
		<path fill="#F4D798" d="M162,311.709l15.894-24.178c0.933,0.311,36.106-0.623,36.106-0.623V288h-2.817l-1.462,23.479L162,315.519
			V311.709z"/>
		<path fill="#1A2756" d="M204,311.709c-1,0-57.293,2.876-57.293,2.876l0.896,14.461L204,327.026V311.709z"/>
		<path fill="#751622" d="M77.274,344.026c9.456,16.711,26.556,16.586,32.216,17.506c15.549,2.529,150.516,2.5,150.516,2.5
			c38.979,0.865,52.654-17.969,58.177-30.659C207.53,348.164,114.61,345.923,77.274,344.026z"/>
		<path fill="#202F77" d="M340.863,293.439C213.671,338.533,70.929,319.827,71.24,322.983c0.886,9.008,3.09,15.84,6.035,21.043
			c37.335,1.896,130.255,4.138,240.91-10.653c2.099-4.824,3.024-8.763,3.709-10.391
			C324.381,317.074,340.863,293.439,340.863,293.439z"/>
	</g>
	<path fill="#F2E7D1" d="M70.773,326.481c-0.958-0.083,1.865,4.898,1.865,4.898s52.124,4.727,97.494,2.565
		c48.98-2.333,102.415-14.336,104.024-14.693c4.199-0.933,5.638-7.504-1.399-5.598c-11.195,3.032-62.042,12.361-102.392,14.46
		C141.138,329.635,100.627,329.047,70.773,326.481z"/>
	<g>
		
			<rect x="190.658" y="289.943" transform="matrix(0.9999 -0.0128 0.0128 0.9999 -3.7409 2.5047)" fill="#B56528" stroke="#895521" stroke-width="2" stroke-miterlimit="10" width="5.598" height="6.064"/>
		
			<rect x="196.722" y="289.863" transform="matrix(0.9999 -0.0127 0.0127 0.9999 -3.7102 2.5651)" fill="#B56528" stroke="#895521" stroke-width="2" stroke-miterlimit="10" width="6.064" height="6.064"/>
		
			<rect x="202.785" y="289.786" transform="matrix(0.9999 -0.0126 0.0126 0.9999 -3.6851 2.6251)" fill="#B56528" stroke="#895521" stroke-width="2" stroke-miterlimit="10" width="6.064" height="6.064"/>
	</g>
	<polygon fill="#3A251B" points="164.068,308 134,308 134,311.788 162.096,311.682 	"/>
	<polygon fill="#F4D798" points="166.401,306 134,306 134,310 164.068,310 	"/>
	
		<line fill="none" stroke="#586077" stroke-width="2" stroke-linecap="round" stroke-miterlimit="10" x1="118.587" y1="252.721" x2="292.456" y2="234.586"/>
	
		<line fill="none" stroke="#586077" stroke-width="2" stroke-linecap="round" stroke-miterlimit="10" x1="141.211" y1="235.285" x2="118.587" y2="252.721"/>
	
		<line fill="none" stroke="#586077" stroke-width="2" stroke-linecap="round" stroke-miterlimit="10" x1="141.399" y1="236.918" x2="155.905" y2="314.586"/>
	
		<line fill="none" stroke="#586077" stroke-width="2" stroke-linecap="round" stroke-miterlimit="10" x1="141.211" y1="235.285" x2="158.938" y2="314.586"/>
	
		<line fill="none" stroke="#586077" stroke-width="2" stroke-linecap="round" stroke-miterlimit="10" x1="141.211" y1="235.285" x2="161.736" y2="314.586"/>
	
		<line fill="none" stroke="#586077" stroke-width="2" stroke-linecap="round" stroke-miterlimit="10" x1="229.375" y1="255.344" x2="293.028" y2="235.766"/>
	
		<line fill="none" stroke="#586077" stroke-width="2" stroke-linecap="round" stroke-miterlimit="10" x1="141.211" y1="235.285" x2="292.116" y2="233.886"/>
	<ellipse fill="none" stroke="#586077" stroke-width="3" stroke-miterlimit="10" cx="140.278" cy="233.303" rx="0.933" ry="1.982"/>
	
		<line fill="none" stroke="#586077" stroke-width="3" stroke-linecap="round" stroke-miterlimit="10" x1="122.785" y1="242.982" x2="140.278" y2="231.32"/>
</g>
<g id="Veler">
	<path fill="#FFFFFF" d="M214.362,617.01L168.56,426.76c0,0,15.148,160.519-2.762,187.726
		C164.945,615.853,214.362,617.01,214.362,617.01z"/>
	<path fill="#FFFFFF" d="M161.13,398.275c0,0-42.627,188.948-51.162,194.559s49.798,0.732,49.798,0.732L161.13,398.275z"/>
	<path fill="#474D5E" d="M89,614c0-2.209-1.791-4-4-4l0,0c-2.209,0-4,1.791-4,4v7c0,2.209,1.791,4,4,4l0,0c2.209,0,4-1.791,4-4V614z
		"/>
	<path fill="#474D5E" d="M107,613.88c0-2.143-1.737-3.88-3.88-3.88h-0.24c-2.143,0-3.88,1.737-3.88,3.88v6.24
		c0,2.143,1.737,3.88,3.88,3.88h0.24c2.143,0,3.88-1.737,3.88-3.88V613.88z"/>
	<path fill="#474D5E" d="M86,603.5c0-0.276-0.224-0.5-0.5-0.5l0,0c-0.276,0-0.5,0.224-0.5,0.5v8c0,0.276,0.224,0.5,0.5,0.5l0,0
		c0.276,0,0.5-0.224,0.5-0.5V603.5z"/>
	<path fill="#474D5E" d="M105,603.958c0-0.529-0.429-0.958-0.958-0.958h-0.085c-0.529,0-0.958,0.429-0.958,0.958v8.084
		c0,0.529,0.429,0.958,0.958,0.958h0.085c0.529,0,0.958-0.429,0.958-0.958V603.958z"/>
	<path fill="#474D5E" d="M164,622.707c0,0.714-0.579,1.293-1.293,1.293h-0.414c-0.714,0-1.293-0.579-1.293-1.293V395.293
		c0-0.714,0.579-1.293,1.293-1.293h0.414c0.714,0,1.293,0.579,1.293,1.293V622.707z"/>
	<path fill="#D0DCE2" d="M217.212,620.654c0,0,0,18.434-1.51,20.244c-1.509,1.812-129.489,0.312-131.904,0.01
		c-2.415-0.302-13.282-0.188-10.565-17.296l27.468-4.36l5.131-3.252h51.419l15.892,3.898L217.212,620.654z"/>
	<path fill="#474D5E" d="M106.338,620c0-0.596,0.307-1,0.685-1h37.01c0.378,0,0.686,0.404,0.686,1l0,0c0,0.596-0.308,1-0.686,1
		h-37.01C106.645,621,106.338,620.596,106.338,620L106.338,620z"/>
	<path fill="#474D5E" d="M172.237,628c0-0.75,0.608-2,1.358-2h8.15c0.749,0,1.358,1.25,1.358,2l0,0c0,0.75-0.609,2-1.358,2h-8.15
		C172.845,630,172.237,628.75,172.237,628L172.237,628z"/>
	<path fill="#474D5E" d="M138.975,627.5c0-0.359,0.584-0.5,1.306-0.5h6.789c0.721,0,1.305,0.141,1.305,0.5l0,0
		c0,0.36-0.584,0.5-1.305,0.5h-6.789C139.559,628,138.975,627.86,138.975,627.5L138.975,627.5z"/>
	<path fill="#474D5E" d="M127.486,627.5c0-0.359,0.584-0.5,1.306-0.5h6.788c0.721,0,1.306,0.141,1.306,0.5l0,0
		c0,0.36-0.585,0.5-1.306,0.5h-6.788C128.071,628,127.486,627.86,127.486,627.5L127.486,627.5z"/>
	<path fill="#545454" d="M109.257,598.684c0,0,0.314-5.039,1.144-5.969c0.83-0.931,50.6-1.864,50.6-1.864v8.747
		C160,599.598,109.257,598.684,109.257,598.684z"/>
	<path fill="#474D5E" d="M108,603.5c0,0.828-0.671,1.5-1.5,1.5h-34c-0.829,0-1.5-0.672-1.5-1.5l0,0c0-0.828,0.671-1.5,1.5-1.5h34
		C107.329,602,108,602.672,108,603.5L108,603.5z"/>
</g>
</svg>
