<?xml version="1.0" encoding="utf-8"?>
<!-- Generator: Adobe Illustrator 16.0.0, SVG Export Plug-In . SVG Version: 6.00 Build 0)  -->
<!DOCTYPE svg PUBLIC "-//W3C//DTD SVG 1.1//EN" "http://www.w3.org/Graphics/SVG/1.1/DTD/svg11.dtd">
<svg version="1.1" id="DE_LATERAL" xmlns="http://www.w3.org/2000/svg" xmlns:xlink="http://www.w3.org/1999/xlink" x="0px" y="0px"
	 width="800px" height="800px" viewBox="0 0 800 800" enable-background="new 0 0 800 800" xml:space="preserve">
<rect x="-7" y="-3" fill="#42C9CC" width="840" height="843"/>
<g>
	<path fill="#F80606" d="M403.766,508.219c0-0.033,0.002-0.066,0.002-0.099h0.047L403.766,508.219z"/>
	<path fill="#F80606" d="M388.786,508.12h0.001c0,0.032-0.001,0.065-0.001,0.099V508.12z"/>
	<path fill="#F80606" d="M490.981,388.991C549.589,380.739,587.343,339,587.56,280h-10.645l17.748-25.851L612.414,280H603v1h-0.23
		c-0.861,67-45.509,110.871-111.788,121.917C441.688,411.132,403.811,449,403.768,508h-14.98
		C388.833,440,435.475,396.807,490.981,388.991z"/>
</g>
<g>
	
		<linearGradient id="SVGID_1_" gradientUnits="userSpaceOnUse" x1="474.8984" y1="750.9072" x2="474.8984" y2="957.1217" gradientTransform="matrix(1 -0.0019 0.0019 1 -80.9355 -147.834)">
		<stop  offset="0" style="stop-color:#FFFFFF;stop-opacity:0.8"/>
		<stop  offset="0.9306" style="stop-color:#FFFFFF;stop-opacity:0"/>
	</linearGradient>
	<path fill="url(#SVGID_1_)" d="M463.226,776.819c-1.104-7.265,3.583-25.897,1.742-38.612
		c-1.842-12.716-10.225-25.252-12.427-36.438c-2.2-11.185,0.689-19.935-1.881-33.374c-2.569-13.44-11.67-21.429-14.232-30.873
		c-2.56-9.443-3.4-26.69-9.006-33.502c-5.606-6.812-36.315-4.11-36.315-4.11s-23.432-1.061-27.754,4.233
		c-5.58,6.834-6.352,24.084-8.878,33.537s-11.595,17.477-14.113,30.927c-2.517,13.451,0.406,22.188-1.752,33.383
		c-2.159,11.193-10.493,23.762-12.286,36.483c-1.792,12.723,2.968,31.336,1.892,38.606c-1.077,7.27-6.504,19.091-8.297,31.449
		l73.405-0.142l4.916-0.01l73.404-0.141C469.803,795.886,464.329,784.086,463.226,776.819z"/>
	
		<linearGradient id="SVGID_2_" gradientUnits="userSpaceOnUse" x1="474.5352" y1="750.9072" x2="474.5352" y2="957.1217" gradientTransform="matrix(1 -0.0019 0.0019 1 -80.9355 -147.834)">
		<stop  offset="0" style="stop-color:#FFFFFF;stop-opacity:0.8"/>
		<stop  offset="1" style="stop-color:#FFFFFF;stop-opacity:0"/>
	</linearGradient>
	<path opacity="0.5" fill="url(#SVGID_2_)" d="M440.695,776.864c-1.104-7.267,3.583-25.899,1.741-38.615
		c-1.841-12.714-10.224-25.251-12.425-36.435c-2.202-11.187,0.688-19.936-1.881-33.376c-2.57-13.441-11.671-21.429-14.232-30.872
		c-2.561-9.444-3.401-26.69-9.007-33.504c-5.606-6.811-10.878-4.158-10.878-4.158s-4.536-1.096-8.857,4.197
		c-5.58,6.833-6.352,24.085-8.877,33.537c-2.525,9.453-11.595,17.477-14.113,30.927c-2.518,13.45,0.406,22.188-1.753,33.383
		c-2.159,11.192-10.492,23.762-12.285,36.483c-1.792,12.722,2.968,31.337,1.892,38.605c-1.076,7.271-6.504,19.092-8.297,31.45
		l54.509-0.104l4.914-0.011l47.969-0.091C447.272,795.929,441.799,784.129,440.695,776.864z"/>
	<g id="Capa_4_4_">
		<path fill="#D1D1D1" d="M365.323,653.417l60.403-0.116l0.976-71.951c0,0,5.459-59.65-31.572-80.051
			c-35.737,19.73-31.569,78.676-31.569,78.676L365.323,653.417z"/>
		<path fill="#F4F4F4" d="M394.949,516.876c0,0,26.153-1.058,27.166,51.069c1.012,52.129-2.588,57.675-2.588,57.675l-48.583,0.094
			l-2.306-15.826l-0.086-44.816C368.552,565.069,370.037,518.509,394.949,516.876z"/>
		<path fill="#E8E8E8" d="M395.26,516.555c-20.213-0.344-26.564,25.508-28.14,49.918l0.747,40.436l1.07,29.186l15.715,3.618
			l2.529-3.02l16.823,0.044c0,0,2.132,2.529,2.641,2.527c2.854-0.004,15.401-3.475,15.401-3.475s0.409-19.818,0.602-28.737
			c0.005-0.302,1.077-40.187,1.06-40.688C422.798,542.006,417.24,516.931,395.26,516.555z M421.732,606.196
			c0.102,0.658-2.532,27.672-2.532,27.672s-10.496,1.964-13.19,1.969c-0.479,0.001-2.49-2.416-2.49-2.416l-15.884-0.041
			l-2.387,2.885l-13.984-2.303l-2.385-27.63c-0.382-23.984,0.086-24.322-0.076-39.863c1.801-23.812,9.028-49.12,26.729-48.697
			c17.589,0.421,24.766,25.063,26.377,48.595C421.9,567.279,421.527,605.79,421.732,606.196z"/>
		<path fill="#FFFFFF" d="M395.569,564.602l0.009-0.244l-8.056,1.217l-3.281,3.377c-1.822,1.32-2.159,7.958-2.159,7.958
			l0.025,12.314l1.278,2.683l8.998-1.588l3.278-5.086l-0.062-4.22L395.569,564.602z"/>
		<path fill="#FFFFFF" d="M395.403,564.604l0.175-0.246l7.593,1.187l3.233,3.363c1.827,1.314,2.127,7.951,2.127,7.951l0.025,12.314
			l-1.148,2.688l-8.94-1.554l-3.186-5.074l0.146-4.221L395.403,564.604z"/>
		<path fill="#C6C6C6" d="M407.353,586.023c-0.025-0.379-3.61-5.981-3.61-5.981l-16.231-0.139l-4.06,5.793l0.002,0.812l0.001,0.404
			l0.001,0.405l0.008,4.601l23.899-0.046C407.363,591.872,407.378,586.404,407.353,586.023z"/>
		<path fill="#394963" d="M404.281,662.354c-0.004,1.199-0.98,2.17-2.18,2.165l-12.642-0.043c-1.199-0.006-2.169-0.981-2.165-2.181
			l0.066-19.422c0.005-1.199,0.981-2.17,2.18-2.165l12.643,0.045c1.199,0.004,2.168,0.98,2.164,2.179L404.281,662.354z"/>
		<path fill="#29ABE2" d="M404.832,574.99l-8.193,0.016l-3.123,0.007l-7.383,0.015c0,0-2.36,3.307-2.73,11.493
			c-0.003,0.048,0.423,0.087,0.423,0.087c1.072-1.515,3.468-5.584,3.468-5.584l7.795-0.053l8.606,0.032c0,0,2.409,4.078,3.489,5.588
			c0,0,0.425-0.069,0.423-0.117C407.203,578.289,404.832,574.99,404.832,574.99z"/>
		<g id="Timó_5_">
			<path d="M386.533,589.986c0.007,3.293,10.864,3.511,10.855-0.052C397.383,586.806,386.527,586.532,386.533,589.986z
				 M387.478,589.947c-0.004-2.354,8.962-2.17,8.965-0.036C396.449,592.338,387.483,592.192,387.478,589.947z"/>
			<path d="M390.597,588.14c0,0,0.028,1.027,1.255,1.011c1.229-0.016,1.062-0.927,1.088-1.016
				C392.965,588.047,390.597,588.14,390.597,588.14z"/>
			<polygon points="391.461,589.199 391.148,591.902 392.77,591.899 392.334,589.198 			"/>
			<path d="M392.56,588.44c0.025,0,3.968,1.714,3.968,1.714l0.151-1.012l-3.993-1.184L392.56,588.44z"/>
			<path d="M390.914,588.442c-0.026,0.001-4.076,1.731-4.076,1.731l-0.002-1.012l3.837-1.2L390.914,588.442z"/>
		</g>
		<g id="Tapiceria_5_">
			<path fill="#E8CDA0" d="M421.91,566.366c0,0-13.276,0.127-16.242-13.954c-2.966-14.082-4.725-33.437-4.931-33.842
				C400.534,518.167,420.407,522.993,421.91,566.366z"/>
			<path fill="#E8CDA0" d="M368.803,566.469c0,0,13.276,0.075,16.188-14.018c2.912-14.092,4.598-33.453,4.8-33.858
				C389.993,518.187,370.138,523.09,368.803,566.469z"/>
			<path fill="#E8CDA0" d="M369.923,621.7c0,0-0.979-3.265,2.225-2.133c10.548,3.729,35.379,4.493,46.517-0.291
				c2.336-1.003,2.302-0.414,2.233,1.161c-0.052,1.182-1.698,13.431-1.698,13.431s-19.039,7.333-47.936,0.093L369.923,621.7z"/>
			<path fill="#E8CDA0" d="M407.807,607.127c0.003,0.677-0.714,0.955-1.651,0.956l-21.383,0.042
				c-0.938,0.003-1.954-0.273-1.955-0.948l-0.014-7.133c-0.001-0.675,1.012-1.373,1.95-1.375l21.383-0.04
				c0.939-0.003,1.657,0.69,1.659,1.367L407.807,607.127z"/>
		</g>
	</g>
	<g>
		<path fill="#996234" d="M387.33,593.589c0,0,1.153-1.438,1.696,0.848s1.598,4.569,1.598,4.569s2.458-0.717,2.791-1.39
			s0.047-3.739,2.177-4.513c2.131-0.773,3.092-1.259,2.189,1.965s-1.23,5.499-1.23,5.499l-8.865,1.99l-0.355-8.462"/>
		<path fill="#EF45B7" d="M388.464,601.265c0,0-3.239-4.788-1.517-4.615c1.726,0.173,0.832,1.496,3.022,1.606
			c2.191,0.11,1.888-1.582,4.577-0.666c2.689,0.914,3.689,0.104,3.242,1.566c-0.449,1.463-0.547,2.092-0.547,2.092L388.464,601.265z
			"/>
		<path fill="#996234" d="M385.896,601.746c0,0-0.156-3.819-0.261-4.807c-0.195-1.848,1.37-5.684,1.369-6.385
			c-0.002-0.701,0.108-1.436,1.038-0.398c0.926,1.038,0.023,4.526-0.369,6.272s0.744,3.869,0.79,4.43
			c0.043,0.562-1.12-0.244-1.12-0.244L385.896,601.746z"/>
		<path fill="#996234" d="M397.897,601.966c0,0,1.191-4.065,1.293-5.052c0.188-1.85-1.392-5.68-1.393-6.381
			c-0.001-0.699-0.113-1.435-1.039-0.393c-0.924,1.04-0.008,4.524,0.39,6.271c0.399,1.745-1.5,3.696-1.543,4.259
			c-0.04,0.561,1.891-0.075,1.891-0.075L397.897,601.966z"/>
		<path fill="#8BC7E8" d="M384.203,601.75c0,0,0.726,4.729,3.654,5.681c2.929,0.952,3.942,1.282,6.569,0.14s4.022-0.52,3.817-2.891
			c-0.203-2.371,1.384-3.603-0.895-3.97c-2.455-0.396-9.05-0.834-9.505-0.887C385.045,599.499,384.203,601.75,384.203,601.75z"/>
		<path fill="#301705" d="M391.351,607.423c0,0-2.658-0.256-2.263-2.449c0.392-2.19-0.773-2.989,1.103-3.678
			c1.874-0.69,2.803-2.522,3.635-0.694c0.83,1.828,1.43,2.798,0.834,4.085c-0.595,1.289-0.47,1.602-1.227,2.419
			C392.676,607.922,391.351,607.423,391.351,607.423z"/>
	</g>
</g>
<g opacity="0.7">
	
		<linearGradient id="SVGID_3_" gradientUnits="userSpaceOnUse" x1="334.3267" y1="691.5459" x2="334.3266" y2="1143.7823" gradientTransform="matrix(0 -1 1 0 -393.7832 528.6641)">
		<stop  offset="0" style="stop-color:#FFFFFF;stop-opacity:0.8"/>
		<stop  offset="0.9306" style="stop-color:#FFFFFF;stop-opacity:0"/>
	</linearGradient>
	<path fill="url(#SVGID_3_)" d="M692.056,55.833c-23.524,7.372-50.628,2.034-72.812,9.911
		c-24.309,8.631-45.909,23.963-65.635,30.836c-18.207,6.344-36.886-0.481-60.573,7.743c-25.367,8.808-40.266,18.668-56.641,25.968
		c-16.393,7.308-46.507,5.059-62.421,12.352c-14.694,6.734-82.291,68.154-82.291,68.154s65.066,51.249,79.136,56.676
		c15.081,5.818,44.047,7.302,61.359,11.963c17.312,4.662,36.176,22.333,60.812,26.994c24.639,4.661,39.398,3.747,59.901,7.743
		c20.503,3.995,44.764,20.57,68.069,23.9c23.305,3.329,57.777,2.238,71.096,4.236C705.374,344.305,726,359.336,750,362.666V209.879
		v-9.007V26.008C724,36.043,705.592,51.592,692.056,55.833z"/>
	
		<linearGradient id="SVGID_4_" gradientUnits="userSpaceOnUse" x1="327.623" y1="765.251" x2="327.623" y2="1143.7832" gradientTransform="matrix(0 -1 1 0 -393.7832 528.6641)">
		<stop  offset="0" style="stop-color:#FFFFFF;stop-opacity:0.8"/>
		<stop  offset="1" style="stop-color:#FFFFFF;stop-opacity:0"/>
	</linearGradient>
	<path opacity="0.5" fill="url(#SVGID_4_)" d="M692.056,97.118c-13.317,1.997-44.411-0.74-66.359,7.774
		c-24.29,9.423-40.962,24.506-60.663,31.446c-20.73,7.301-47.361,4.607-71.998,9.268c-24.637,4.661-39.329,21.308-56.641,25.969
		c-17.312,4.661-48.931,6.138-61.432,16.386c-12.5,10.248-7.665,19.917-7.665,19.917s-2.027,8.306,7.657,16.244
		c12.501,10.248,44.106,11.726,61.418,16.387c17.312,4.661,31.98,21.307,56.617,25.968c24.639,4.661,39.398,3.747,59.901,7.742
		s44.764,20.571,68.069,23.9c23.305,3.33,57.777,2.238,71.096,4.236C705.374,304.353,726,319.385,750,322.715V204.552v-9.007V79.366
		C726,82.695,705.373,95.12,692.056,97.118z"/>
</g>
<g id="Lanxa_gran">
	<path fill="#D1D1D1" d="M443.155,245.748v-79.906l-95.178-1.474c0,0-78.895-7.372-105.977,41.561
		c26.009,47.325,103.997,41.964,103.997,41.964L443.155,245.748z"/>
	<path fill="#E8E8E8" d="M262.182,205.795c-0.509,26.738,33.674,35.205,65.961,37.352l53.493-0.884l38.611-1.342l4.826-20.78
		l-3.987-3.353l0.101-22.254c0,0,3.352-2.815,3.352-3.485c0-3.777-4.559-20.382-4.559-20.382s-26.216-0.593-38.013-0.871
		c-0.401-0.009-53.16-1.527-53.824-1.505C295.919,169.43,262.735,176.72,262.182,205.795z M380.832,171.006
		c0.872-0.136,36.6,3.417,36.6,3.417s2.572,13.891,2.572,17.456c0,0.633-3.203,3.289-3.203,3.289l-0.096,21.011l3.811,3.164
		l-3.082,18.495l-36.556,3.083c-31.73,0.446-32.176-0.175-52.733,0c-31.497-2.444-64.958-12.067-64.352-35.483
		c0.602-23.269,33.218-32.699,64.352-34.771C329.35,170.685,380.296,171.274,380.832,171.006z"/>
	<path fill="#E5E5E5" d="M319.061,185.731l-6.14,5.823l-2.189,13.802l2.189,14.666l6.14,6.504c2.4,3.325,14.494,4.474,14.494,4.474
		h22.437l4.893-2.843l-2.862-16.657l-8.712-5.773l8.712-5.511l2.862-16.201L355.992,182h-22.437
		C333.555,182,321.461,182.409,319.061,185.731z"/>
	<path fill="#C6C6C6" d="M350.251,183.949c-0.692,0.046-10.912,6.557-10.912,6.557l-0.311,29.574l10.541,7.417h1.48h0.737h0.739
		h8.381v-43.548C360.906,183.949,350.946,183.902,350.251,183.949z"/>
	<path fill="#2C7D99" d="M330.138,188.504v14.926v5.694v13.449c0,0,6.018,4.312,20.934,5.015c0.086,0.006,0.158-0.769,0.158-0.769
		c-2.755-1.959-10.162-6.339-10.162-6.339L341,206.276l0.09-15.679c0,0,7.438-4.377,10.192-6.338c0,0-0.125-0.777-0.211-0.771
		C336.156,184.194,330.138,188.504,330.138,188.504z"/>
	<path display="none" fill="#394963" d="M455.076,194.233c1.586,0.007,2.867,1.301,2.857,2.888l-0.088,16.725
		c-0.009,1.585-1.305,2.865-2.891,2.858l-25.691-0.138c-1.588-0.008-2.867-1.303-2.857-2.889l0.091-16.725
		c0.007-1.586,1.3-2.866,2.888-2.857L455.076,194.233z"/>
</g>
</svg>
