<?xml version="1.0" encoding="utf-8"?>
<!-- Generator: Adobe Illustrator 16.0.0, SVG Export Plug-In . SVG Version: 6.00 Build 0)  -->
<!DOCTYPE svg PUBLIC "-//W3C//DTD SVG 1.1//EN" "http://www.w3.org/Graphics/SVG/1.1/DTD/svg11.dtd">
<svg version="1.1" id="Capa_1" xmlns="http://www.w3.org/2000/svg" xmlns:xlink="http://www.w3.org/1999/xlink" x="0px" y="0px"
	 width="800px" height="800px" viewBox="0 0 800 800" enable-background="new 0 0 800 800" xml:space="preserve">
<g id="Capa_1_1_">
	<g id="_x35_">
		<g id="Cèl">
			
				<linearGradient id="SVGID_1_" gradientUnits="userSpaceOnUse" x1="532.0576" y1="-473.9214" x2="1212" y2="-473.9214" gradientTransform="matrix(-4.371139e-08 -1 1 -4.371139e-08 872.5 1200.4995)">
				<stop  offset="0.1184" style="stop-color:#FFFFFF"/>
				<stop  offset="0.4458" style="stop-color:#9CE8FF"/>
				<stop  offset="0.8292" style="stop-color:#2DCDFF"/>
				<stop  offset="1" style="stop-color:#00C3FF"/>
			</linearGradient>
			<polygon fill="url(#SVGID_1_)" points="-8.643,-11.5 804.801,-11.5 805.799,668.442 -7.644,668.442 			"/>
		</g>
		<g id="Barco_Petit_copia">
			<g id="Capa_22_copia_2">
				<path fill="#36627A" d="M536.921,414.215c-0.814,0.172-3.423,5.821-2.598,10.278c0.827,4.457,3.205,14.781,4.571,16.48
					c1.368,1.701,3.084,4.738,3.084,4.738s-6.035,3.242-6.997,5.363c0,0,0.002,0.87,0.739,0.753
					c0.736-0.117,7.171-0.467,7.474,0.256c0.303,0.719,0.891,4.471,0.987,4.96c0.099,0.485-0.173,2.703-0.266,3.499
					c-0.038,0.328-2.014,3.506-1.65,4.222c0.364,0.721,3.036,0.744,4.526,0.71c1.487-0.033,9.421-5.351,10.528-6.33
					c1.107-0.978,1.417-12.802,1.417-12.802s-2.259-15.461-1.704-15.492c0.556-0.029,4.3-1.541,5.5-2.932
					c1.202-1.394,0.757-8.136,0.187-9.208C562.148,417.634,549.156,411.635,536.921,414.215z"/>
				<path fill="#6C808C" d="M542.99,456.873c0,0,1.284-0.263,1.357-0.104c0.073,0.162,0.355,0.606,0.295,1.466
					c-0.061,0.863,0.27,1.954-0.408,2.039c-0.678,0.086-1.144,0.084-1.144,0.084s-1.131,2.784-2.869,3.626
					c-1.741,0.843-2.912,0.555-1.843-0.545c1.068-1.104,3.078-2.4,2.887-2.856c-0.191-0.452-3.562,0.014-3.562,0.014l0.028-2.727
					c0,0,2.578-0.25,2.706-0.199c0.128,0.047,1.101-0.673,0.361-0.991c-0.737-0.315-3.913,0.008-3.406-1.119
					c0.508-1.125,0.385-1.114,1.584-1.267c1.2-0.152,2.735,0.44,3.417,1.266C543.078,456.38,542.99,456.873,542.99,456.873z"/>
			</g>
			<g>
				<path fill="#FF0000" d="M611.48,449.841l-12.128-10.147l-50.877-2.89c15.88-3.269,45.968-8.048,90.794-10.808
					c32.203-1.98,59.186-2.191,71.666-1.561c22.694,1.152,37.957-0.167,41.836-0.562c-0.659,0.416-1.628,1.07-2.216,1.617
					c-0.441,0.411-0.838,0.971-1.386,1.744c-1.105,1.568-2.797,3.831-6.523,7.352l-0.375,0.339
					c-24.906,12.133-58.672,15.708-82.922,16.401C633.662,452.059,612.565,449.954,611.48,449.841z"/>
				<path d="M640.219,409.211c-0.22-0.438-0.393-0.77-0.528-1.018c-0.072-0.123-0.133-0.227-0.188-0.312
					c-0.271-0.426-0.359-0.428-0.412-0.429l-0.155,0.096c-0.071,0.138-0.152,0.286-0.25,0.44c-0.062,0.104-0.129,0.209-0.195,0.317
					c-0.039,0.054-0.074,0.104-0.11,0.16c-0.981,1.428-2.613,3.105-3.594,2.85c-0.467-0.125-0.747-0.44-0.859-0.973
					c-0.013-0.062-0.021-0.127-0.031-0.19c-0.007-0.072-0.014-0.138-0.015-0.211c-0.062-1.894,1.625-5.601,3.844-7.966
					c0.339-0.362,0.693-0.694,1.059-0.982c0.198-0.161,0.427-0.323,0.667-0.462c0.391-0.222,0.808-0.379,1.197-0.359
					c0.146,0.007,0.289,0.039,0.428,0.104c0.217,0.1,0.36,0.271,0.44,0.517c0.052,0.164,0.071,0.351,0.071,0.553
					c-0.014,1.412-1.217,3.562-1.232,3.587l-0.089,0.161l1.963,0.567L640.219,409.211z M640.461,402.223
					c-0.004-0.216-0.059-0.395-0.179-0.516c-0.024-0.025-0.052-0.047-0.08-0.066c-0.073-0.049-0.158-0.072-0.251-0.072
					c-0.065,0-0.134,0.015-0.212,0.042c-0.526,0.188-1.285,1.006-2.048,2.055l-0.033-0.04l-0.034-0.042l-0.669,1.159
					c-0.331,0.517-0.647,1.052-0.927,1.573c-0.473,0.868-0.85,1.694-1.038,2.315c-0.104,0.354-0.156,0.639-0.146,0.855
					c0.003,0.055,0.013,0.104,0.021,0.149c0.03,0.14,0.096,0.244,0.192,0.311c0.042,0.026,0.091,0.041,0.145,0.041
					c0.602,0,2.546-2.356,3.353-3.507c0.03-0.044,0.06-0.082,0.085-0.127c0.055-0.073,0.101-0.148,0.138-0.211
					c0.041-0.062,0.07-0.115,0.093-0.158c0.021-0.041,0.052-0.085,0.09-0.144c0.033-0.055,0.072-0.119,0.117-0.192
					C639.551,404.855,640.483,403.175,640.461,402.223z"/>
				<path fill="#3FA9F5" d="M658.667,402.883c-0.777,0.107-3.511,0.551-5.876,0.998c-0.15,0.029-0.301,0.059-0.448,0.087
					c-0.076,0.016-0.152,0.03-0.229,0.045c-0.324,0.065-0.637,0.132-0.937,0.199c-0.094,0.021-0.185,0.041-0.273,0.058
					c-0.226,0.055-0.44,0.106-0.642,0.162c-0.08,0.022-0.157,0.043-0.233,0.064c-0.016,0.003-0.037,0.008-0.062,0.016
					c-0.729,0.16-4.884,1.129-5.506,2.207c-0.019,0.035-0.039,0.064-0.047,0.103c-0.366,1.043-1.253,6.878-1.398,8.176h-2.483
					l-0.869-2.196l0.337-3.12l0.133-0.062l0,0l0,0c-0.011-0.016-0.015-0.029-0.021-0.043c-0.007-0.017-0.016-0.03-0.021-0.044
					l2.155-3.792l0.034,0.013l0,0l0,0l0.039-0.139l0.033-0.057l0.054-0.096l3.22-6.773l0.495-0.174l0.493-0.173l1.445-7.896
					c0.07,0,0.172,0,0.293,0c0.845,0,3.661,0.023,4.468,0.331C653.497,391.035,656.756,398.22,658.667,402.883z"/>
				<path d="M638.89,405.175c0.016,0,0.025-0.003,0.034-0.005c0.028-0.006,0.053-0.021,0.073-0.039
					c-0.142,0.248-0.284,0.484-0.425,0.709c-0.08,0.157-0.231,0.393-0.428,0.668c-0.032-0.075-0.045-0.161-0.046-0.229
					c-0.002-0.123,0.024-0.222,0.024-0.225l0.043-0.148l-1.377-0.291l0.575-1.006c0.11-0.166,0.223-0.328,0.338-0.486
					C638.54,405.086,638.791,405.178,638.89,405.175z"/>
				<path d="M638.959,405.841c-0.039,0.059-0.068,0.104-0.089,0.143c-0.022,0.045-0.053,0.098-0.095,0.159
					c-0.038,0.062-0.082,0.134-0.136,0.211c-0.026,0.044-0.055,0.08-0.086,0.128c-0.806,1.151-2.752,3.506-3.352,3.506
					c-0.054,0-0.104-0.015-0.145-0.041c-0.103-0.066-0.163-0.168-0.192-0.31c-0.012-0.044-0.017-0.098-0.021-0.151
					c-0.013-0.218,0.038-0.5,0.144-0.855c0.189-0.621,0.566-1.447,1.039-2.315c0.278-0.521,0.6-1.058,0.928-1.572l0.667-1.158
					l0.034,0.041l0.035,0.039c0.761-1.049,1.521-1.867,2.048-2.055c0.074-0.027,0.146-0.042,0.212-0.042
					c0.096,0,0.18,0.024,0.25,0.072c0.028,0.021,0.057,0.043,0.08,0.066c0.12,0.122,0.175,0.301,0.179,0.517
					c0.023,0.95-0.909,2.633-1.385,3.425C639.032,405.721,638.993,405.785,638.959,405.841z M635.243,408.717
					c-0.229,0.752-0.128,0.938-0.091,0.974c0.482-0.091,1.937-1.755,2.805-2.927c-0.16-0.209-0.161-0.473-0.143-0.633l-1.233-0.262
					C635.987,406.879,635.488,407.907,635.243,408.717z M637.367,404.607l-0.575,1.006l1.378,0.291l-0.045,0.148
					c0,0.002-0.025,0.104-0.024,0.225c0.001,0.071,0.017,0.153,0.044,0.229c0.198-0.279,0.351-0.514,0.429-0.669
					c0.139-0.222,0.282-0.462,0.425-0.708c-0.021,0.015-0.045,0.032-0.073,0.039c-0.009,0.001-0.017,0.004-0.034,0.004
					c-0.1,0.003-0.35-0.089-1.188-1.054C637.591,404.279,637.479,404.441,637.367,404.607z M640.041,401.882
					c-0.025-0.016-0.056-0.023-0.095-0.023c-0.403,0-1.222,0.855-2.07,2.021c0.363,0.419,0.773,0.845,0.953,0.972
					c0.102-0.15,0.29-0.211,0.45-0.229C639.931,403.402,640.427,402.14,640.041,401.882z"/>
				<path fill="#FFFFFF" stroke="#FFFFFF" stroke-miterlimit="10" d="M548.023,434.702l0.065-0.044l-0.048-4.009l2.505-1.534
					l10.964,0.192l0.026-0.011l4.543-1.683l0.192-9.367l8.193-2l17.526-0.05l0.923-1.696l14.848-0.825l0.098-1.505l3.091-0.312
					l-0.28-0.221c-0.005-0.008-0.436-0.349-0.425-0.771c0.006-0.244,0.16-0.479,0.467-0.689c0.224-0.162,0.886-0.35,2.749-0.35
					c1.712,0,3.801,0.154,5.327,0.268c0.756,0.057,1.351,0.101,1.699,0.111c1.043,0.031,2.196,0.816,2.826,1.531
					c0.39,0.438,0.596,0.867,0.565,1.172c-0.095,0.969-0.251,1.202-0.948,1.333l0.043,0.309l10.253-0.972l6.326-0.6l0.865,2.225
					h2.736l0.016-0.33c0.014-0.067,1.024-7.067,1.401-8.154c0.296-0.849,4.008-1.842,5.413-2.147
					c2.479-0.695,7.653-1.424,8.604-1.554l0.016,0.035l0.104-0.01c0.002,0,0.203-0.02,0.484-0.02c0.795,0,1.371,0.132,1.627,0.366
					c0.283,0.26,0.285,0.779,0.288,1.281c0.002,0.435,0.003,0.843,0.167,1.146c0.334,0.625,3.214,5.491,3.339,5.697l0.039,0.067
					l0.075,0.006c0.423,0.023,42.184,2.492,51.5,3.639c0.722,0.09,1.544,0.174,2.443,0.3c14.101,1.985,33.848,5.795,33.848,5.795
					c1.528,0.026,2.135,0.507,2.188,0.91c0.049,0.372-0.338,0.748-0.973,0.933c-0.017,0.01-0.442,0.224-1.021,0.57
					c-2.562,0.28-18.021,1.811-42.165,0.586c-12.489-0.632-39.513-0.384-71.725,1.601c-45.896,2.831-74.219,7.348-89.897,10.634
					l-0.686,0.146c-1.3-0.015-1.764-0.147-1.823-0.22c-0.021-0.042-0.05-0.078-0.078-0.116c-0.066-0.095-0.1-0.144-0.087-0.219
					C546.308,435.896,546.886,435.42,548.023,434.702z"/>
				<path fill="#FFFFFF" stroke="#FFFFFF" stroke-miterlimit="10" d="M611.438,449.95l0.045,0.004
					c0.176,0.018,15.222,1.588,35.943,1.588c3.59,0,7.347-0.044,11.223-0.157c24.144-0.688,58.076-4.032,82.994-16.028
					c-0.063,0.062-0.129,0.118-0.192,0.18c-0.857,0.793-1.713,1.636-2.618,2.529c-5.726,5.636-12.85,12.649-31.227,17.992
					c-4.229,1.229-8.756,1.805-14.252,1.805c-4.707,0-9.537-0.13-14.649-0.572c-5.611-0.483-11.411-0.982-17.617-0.982
					c-0.951,0-1.901,0.015-2.827,0.037c-0.932,0.024-2.021,0.037-3.244,0.037c-24.164,0-97.772-5.056-100.828-5.252l-5.459-13.979
					l50.619,2.653L611.438,449.95z"/>
			</g>
			<g id="_x32__1_">
				<path fill="#996234" d="M626.367,414.147c0,0-0.978-1.137-0.764-2.475c0.218-1.338,0.516-2.021,1.337-2.256
					c0.82-0.235,1.935-0.344,2.163-0.229c0.228,0.117,2.996,1.216,3.629,1.435c0.632,0.219,2.359,1.361,2.395,1.889
					c0.036,0.526,0.138,0.695,0.353,1.214c0.214,0.514,0.538,2.832,0.538,2.832l-4.177,0.461c0,0,0.046-1.631-0.263-1.742
					c-0.309-0.108-4.389-0.525-4.664-0.687C626.64,414.438,626.367,414.147,626.367,414.147z"/>
				<path fill="#EF45B7" d="M610.901,407.633c0,0-0.221-2.067-0.31-2.067c-0.091,0,2.896-0.177,3.607-0.703
					c0.88-0.656,5.719-0.617,5.719-0.617l3.211,2.949l3.705,2.787c0,0-1.064,3.503-1.593,3.503c-0.249,0-2.894-2.391-5.279-2.465
					c-2.663-0.071-2.859,1.452-2.243,4.753c0.116,0.628-5.5-3.123-5.5-3.123s-1.06-0.793-1.32-2.201
					C610.637,409.04,610.901,407.633,610.901,407.633z"/>
				<path fill="#996234" d="M617.279,386.428c0.133,0.043,1.101-1.144,1.056-1.54c-0.043-0.396-0.438-0.66-0.526-0.66
					s-1.013-1.1-0.528-1.584c0.483-0.484-1.058-2.463-0.484-3.432c0.572-0.968,1.276-2.463,2.596-2.991
					c1.32-0.528,2.156-0.968,2.816-0.44c0.66,0.528,2.243,2.023,2.287,2.596c0.044,0.573,0.309,1.672,0,2.859
					c-0.308,1.188-0.308,1.364-0.353,2.64c-0.043,1.275-0.615,2.07-1.013,2.553c-0.396,0.483-0.22,1.143-0.967,1.318
					c-0.748,0.176,0.175,1.364-0.176,1.804c-0.354,0.439-4.487-0.66-4.399-2.376C617.629,386.368,617.279,386.428,617.279,386.428z"
					/>
				<path fill="#301705" d="M617.412,384.712c0,0-0.748,0-0.661-0.616c0.086-0.616,0.25-1.671-0.008-1.936
					c-0.259-0.264-1.048-0.748-0.784-1.496c0.264-0.749,0.572-1.188,0.396-1.892c-0.177-0.704,0-1.275,0.571-1.627
					s1.019-0.264,1.677-0.572c0.657-0.308,1.186-1.056,1.932-1.188c0.747-0.132,1.627-0.66,2.244,0
					c0.615,0.66,1.056,0.66,1.229,1.099c0.177,0.439-0.044-0.043,0.222,1.013c0.264,1.056,0.792,1.275,0.438,1.847
					c-0.352,0.573-0.66-0.484-0.968-0.528c-0.309-0.043-0.133-0.528-0.968,0c-0.836,0.528-0.527,0.353-1.761,0.088
					c-1.23-0.264-1.893-0.968-2.267,0.308s-0.154,1.056,0,2.068c0.155,1.012,0,1.451,0,1.451s-0.064-0.484-0.549-0.396
					c-0.485,0.088-0.571,0.176-0.528,0.704c0.043,0.528,0.309,1.144,0.22,1.32C617.762,384.537,617.412,384.712,617.412,384.712z"/>
				<path fill="#996234" d="M623.483,394.743c0,0,2.902,4.751,3.65,5.19c0.749,0.44,2.288,1.319,2.859,1.452
					c0.571,0.131,4.18,0.703,5.72,0.615c1.538-0.088,1.803-0.554,2.375,0.01c0.571,0.562,0.837,0.958,1.056,0.519
					c0.221-0.439,0.089-0.527,0-1.188c-0.088-0.661,0-1.012,0.616-1.1s1.559,0.616,1.308-0.176
					c-0.252-0.792-0.163-1.145-1.178-1.057c-1.013,0.088-1.188,0.836-1.893,0.923c-0.703,0.088-1.013,0.089-2.244-0.088
					c-1.231-0.176-4.707-2.244-5.455-2.288c-0.747-0.043-0.792-0.615-1.274-1.1c-0.484-0.483-2.421-2.859-2.421-2.859"/>
				<path fill="#8BC7E8" d="M610.593,397.163c0.177-2.464,1.057-6.379,2.552-8.095c1.495-1.716,1.937-1.672,3.035-2.156
					c1.101-0.483,1.671-0.352,1.671-0.352s0.06,1.76,0.953,2.068c0.896,0.308,3.007,0.88,3.141,0.528
					c0.132-0.352-0.175-0.576,0.087-0.881c0.262-0.307,0.704-1.142,1.013-0.966c0.308,0.176,1.848,0.792,2.023,1.584
					c0.175,0.792,0.352,1.848,0.792,2.463c0.438,0.616,0.703,1.584,0.703,1.584s0.132,0.352,0.265,0.748
					c0.132,0.396-1.146,0.352-1.98,1.979c-0.836,1.628-1.759-0.923-1.759-0.923s1.013-0.66,0.087,0.748c0,0-1.407,2.155-1.495,2.463
					s-0.439,1.1-0.396,1.892c0.045,0.792,0.484,1.627,0.396,2.464c-0.088,0.837,0.017,1.584-1.023,1.979
					c-1.043,0.396-2.188,0.309-3.463,0.44s-2.851,0.062-3.433,0.57c-0.582,0.514-1.144,0.088-1.848,0.265
					c-0.703,0.176-0.747,0.614-1.319,0c-0.571-0.615,0.337-2.552,0.189-2.991c-0.146-0.439-0.527-1.407-0.381-2.859
					C610.548,398.263,610.593,397.163,610.593,397.163z"/>
				<path fill="#996234" d="M615.679,400.131c0,0,0.936,3.066,1.458,3.65c0.521,0.586,1.358,1.936,1.805,2.463
					c0.443,0.521,4.384,4.561,4.854,4.912c0.474,0.352,2.76,2.359,2.76,2.359l3.235-0.368c0,0-2.145-2.297-3.198-3.42
					c-1.054-1.12-4.541-5.438-4.739-5.831c-0.198-0.392-1.334-1.572-1.642-2.117c-0.307-0.545-0.356-1.67-0.608-2.697
					c-0.257-1.027-0.693-2.354-0.693-2.354s-4.067-0.487-4.191,0.474C614.592,398.155,615.679,400.131,615.679,400.131z"/>
				<path fill="#996234" d="M617.808,415.729c0,0-0.895-1.202-0.589-2.522c0.31-1.319,0.658-1.979,1.493-2.154
					c0.836-0.177,1.954-0.201,2.174-0.074c0.22,0.134,2.903,1.425,3.52,1.688s2.257,1.521,2.257,2.049
					c0,0.527,0.088,0.703,0.264,1.231c0.176,0.527,0.396,2.022,0.396,2.022l-4.226,0.452c0,0,0.129-1.067-0.173-1.195
					c-0.3-0.133-4.341-0.836-4.604-1.012C618.055,416.036,617.808,415.729,617.808,415.729z"/>
				<path fill="#996234" d="M622.395,419.984"/>
			</g>
		</g>
		<polygon id="La_mar_5_m_1_" opacity="0.6" fill="#39BCC4" enable-background="new    " points="-8.643,443.372 804.801,443.372 
			805.799,801.113 -7.644,801.113 		"/>
		<path fill="#7F563B" d="M46.313,364.543c0,0,21.636-27.601,23.751-40.915c2.115-13.314,7.495-16.131,6.785-18.882
			s-3.404-6.734-4.44-13.208c-1.036-6.474-6.122-16.343-5.983-20.106c0.139-3.763-1.308-9.569-0.568-11.826
			c0.74-2.257,0.773-12.575,0.773-12.575l-6-14.947c0,0-2.164,2.065-3.723,0.326c-1.559-1.739-9.657-8.531-9.657-8.531l2.123-2.53
			l2.596,3.523l7.87,3.53c0,0,4.653-0.408,4.996-1.845c0.343-1.437-1.037-6.474-0.775-8.841c0.262-2.367,1.715-7.184,1.715-7.184
			l3.146,3.475c0,0,1.505,0.806,0.245,2.792c-1.26,1.986-1.521,4.354-1.742,7.187c-0.22,2.833-0.546-0.89-0.22,2.833
			c0.327,3.723-0.563,4.269-0.4,6.131c0.163,1.861-2.164,2.065,0.105,6.555c2.269,4.49,1.56,1.739,2.269,4.49
			c0.71,2.751,0.833,4.147,1.078,6.939c0.245,2.792-0.811,6.798-0.675,8.346c0.136,1.548,0.764,3.368,0.968,5.695
			c0.204,2.327,0.204,2.327,0.204,2.327c6.449-6.662,11.391-9.123,11.391-9.123s1.04,1.163,2.327-0.204
			c1.287-1.367,2.683-1.489,4.34-3.979c1.658-2.489,2.466-3.967,2.221-6.759c-0.245-2.792-0.489-5.583-0.612-6.979
			s5.159,0.017-0.367-4.188c-5.527-4.205-3.461-2.042-5.527-4.205c-2.065-2.164-3.853-11.854-2.799-10.539
			c1.054,1.315,0.734,8.375,0.734,8.375s4.106-1.297,6.171,0.866c2.065,2.163,3.491,2.976,3.491,2.976s1.452,0.109,2.887-0.716
			c0.587-0.339,1.172-0.834,1.654-1.558c1.657-2.489,2.343-5.363,2.343-5.363l3.542,2.972c0,0-1.192,2.449-2.506,3.502
			c-1.314,1.053-3.519,2.653-4.286,4.596c-0.767,1.943-1.069,3.845-1.331,6.212c-0.262,2.367-0.319,7.061-0.662,8.498
			c-0.343,1.437,0.888,4.773-1.385,5.595c-2.273,0.821,3.365,0.949-2.273,0.821c-5.638-0.127-2.204,1.6-3.559,2.188
			s-3.902,3.625-5.217,4.678c-1.315,1.053-4.903,2.908-4.903,2.908c-1.122,3.247-4.136,4.448-4.136,4.448s-0.56,2.447,0.309,3.517
			c0.868,1.07-2.326,3.694,0.508,5.79c2.834,2.096,5.993,6.039,5.993,6.039L82.5,298l5.25-8c0,0,2.551,0.657,5-3.5
			c2.449-4.158,3.25-7.25,3.25-7.25l2.609-4.407l1.861-0.164c0,0,1.854-0.247,3.146-1.559s6.316-8.183,6.316-8.183
			s-0.763-3.349-0.542-6.182c0.221-2.833-1.967-6.392-0.857-9.771c1.11-3.38,0.939-16.025,0.939-16.025l4.915-2.775
			c0,0,1.216,3.176,0.408,4.653l0.862,5.082c0,0-3.304,4.51-3.1,6.836c0.204,2.327,0.204,2.327,0.204,2.327
			s-1.055,4.007-0.837,6.485c0.217,2.478,0.462,5.27,0.462,5.27l1.733,3.733c0,0,2.276,0.403,3.671-0.322s7.962-0.698,7.962-0.698
			l4.188-0.367c0,0,1.873-0.031,3.722-0.326c1.85-0.296,1.85-0.296,1.85-0.296l3.478-3.119l2.931-4.008l-0.217-2.478l1.445-2.708
			l0.569-1.067c0,0,2.544,2.285,2.174,3.408c-0.371,1.123,0.401,3.869,0.401,3.869s-1.841,1.1-3.499,3.589
			c-1.658,2.49-4.013,2.362-4.013,2.362l-2.518,3.369l-2.751,0.71c0,0-5.364-2.343-2.792,0.245c2.571,2.587,7.673,7.298,7.673,7.298
			c2.572,2.588,6.294,2.262,6.294,2.262l3.36,0.174c0,0,2.142-1.595,2.346,0.732c0.204,2.327,3.542,2.972,0.204,2.327
			c-3.339-0.645-4.357,4.514-7.004,0.336c-2.647-4.177-5.38-2.533-5.38-2.533c-3.502-2.506-6.567-5.382-6.567-5.382
			s-1.159,2.831-1.042-1.192c0.116-4.022-1.704-3.394-3.06-2.806c-1.355,0.588-7.911,0.694-7.911,0.694l-3.722,0.326
			c-3.902,3.625-6.601,4.938-6.601,4.938c-2.134,2.394-4.804,4.035-4.804,4.035l-1.192,2.449c0,0-3.485,3.033-0.669,3.063
			c2.816,0.03,3.535-2.463,5.584-0.49c2.048,1.973,2.048,1.973,2.048,1.973l5.862-2.667l6.783,2.496l3.723-0.327l1.437,0.343
			l1.436,0.343l-8.718,2.171c0,0-1.437-0.343-3.257,0.286s-0.971-0.384-4.694-0.058c-3.723,0.327-0.383,0.972-3.723,0.327
			c-3.338-0.645-0.082-0.931-3.338-0.645c-3.258,0.286-5.543,0.955-5.543,0.955s0.111,1.383-1.616,2.955
			c-1.996,1.817,0.204,2.327,0.204,2.327l0,0c0,0-5.798,1.173-7.333,5.059l-2.75,5.25c0,0,0.047,3.578-0.709,5.642
			c-0.757,2.063-1.018,1.661-2.291,3.179c-1.274,1.519-1.733,2.125-2.5,4.068c-0.767,1.943-1.767,4.627-3,6.611
			c-1.233,1.983-4.839,7.881-4.839,7.881s-0.384,0.971-1.535,3.885c-1.151,2.915,0.808-1.477-1.151,2.915s-3.355,4.515-3.575,7.347
			c-0.221,2.833,1.273-1.519-0.221,2.833c-1.494,4.352-1.878,5.322-3.616,6.882c-1.739,1.559-1.739,1.559-1.739,1.559l-2.89,4.473
			l0.197,2.241c0,0-1.298-2.452-1.691,2.11s-0.441,5.665-0.318,7.061s0.123,1.396,0.123,1.396l-9.772,0.857l-2.574-6.339
			L46.313,364.543z"/>
		<path fill="#499E53" d="M30.5,232c-0.75,0.25-7.5-0.75-4.25-3.75s6.371-6.75,1.686-7.25s-9.686,1.5-9.436,0s1.75-6,2.5-5.75
			s6.25,0.73,7.75-0.01c1.5-0.74,2.25,2.49,4,0c1.75-2.49,0.25,1.325,4.75-4.708c4.5-6.033,5.75-10.032,6.75-9.532
			s3.25-2.584,3.5-0.042s3,4.542,3,4.542s0.75,1.25,2-0.25s3.25-3.5,3.25-3.5s1.75-1.119,2.75-1.81s9.25,0,9.25,0
			s2.25-1.924,2.75-0.307c0.5,1.617,0.75,2.117,1.75,3.867s6.25,1.5,6.25,1.5s-2.75,1.25,0,2s2.75-0.5,2.75,2s0.5,2.13,0,3.69
			s0.75-2.167-0.75,2.822c-1.5,4.989,0.25,6.738-4.75,6.988s-3.75,0-6.5-0.5s1.25-0.25-4-1.5s-6.75,0-6.75,0s0.951-0.142-1.5,2.75
			s-2.399,1.098-4.825,5.049c-2.426,3.951,0.325,4.745-4.425,5.348s-5.5-0.103-7.5,0s-4.5,0-4.5,0S35.5,233,36,230.5
			s0.5-4.5-1.25-2.5s-0.5,0.25-1.75,2S30.5,232,30.5,232z"/>
		<path fill="#499E53" d="M155,300c-3.25-0.5,0.25,1.25-6,0s-9-1.5-9-1.5c-3.5-0.75,2.25,1-3.5-0.75s-4.25,0-6-3.25
			s-1.75-3.25-1.75-3.25s5,1-1.25,0s-8.5-1.75-8.5-1.75s-1.25-0.752,0-2.251s2.75-2.749,1.75-4.749s-0.5-4.5-0.5-4.5
			s2.5-3,4.25-2.25s6,2.25,7,1.75s3.551-2.53,5.222-3c1.671-0.47,5.028-2.685,5.778-3.842c0.75-1.157,1.25-4.158,3.25-3.408
			s6.324,3.408,6.324,3.408s0.176-2.092-1.824,0c-2,2.092-2.5,3.592-2.5,3.592s-1.765,1.932,1.368,1.716
			c3.133-0.216,6.382-1.466,8.382-1.216s3.75,1.75,3.75,1.75s-0.75,0.25,0,1.5s1-0.25,0.75,1.25s-0.25,1.75-1.75,2.5
			s-2.75,1.841-3.5,2.045S153,282.25,156,284s8.75,3.5,9.5,3.75s5.75-1.5,5.75,0.75s0.25,2.473,0,4.111
			C171,294.249,173.5,292,169,295.25s-2.5,3.25-5.75,3.5s-3.5-0.75-5-1.25s4.5-0.75-1.5-0.5L155,300z"/>
		<path fill="#499E53" d="M135.264,210.169c0,0,1.731,1.25-0.965-0.264c-2.004-1.125-5.835-2.892-8.589-3.869
			c-0.953-0.338-1.776-0.583-2.351-0.673c-2.237-0.352-1.843-0.843-5.778-1.618c-3.935-0.774,0.057-8.749-7.696-2.188
			c-7.752,6.562-5.559,6.124-7.752,6.562c-2.192,0.438-4.376,1.79-8.667,0.421c-4.291-1.368-7.861-3.478-10.133-2.753
			c-2.271,0.724-0.367-3.402-5.09,0.611c-4.725,4.013-5.008,0.308-5.624,6.359c-0.616,6.051,0.304,8.375,1.181,9.911
			c0.877,1.535-1.009,1.797,1.972,4.167c2.982,2.369,7.826,5.506,10.129,5.616c2.302,0.11,5.852-0.448,9.23-1.482
			c3.378-1.035,8.115-4.147,9.08-3.884s1.885-0.263,3.201,0.615c1.316,0.878,3.585-0.374,3.623,2.127s-0.226,3.465-0.029,5.592
			c0.197,2.127,0.686,1.663,1.449,4.373c0.763,2.71,4.402,5.518,5.06,5.957c0.658,0.438,0.943,1.293,3.859,1.054
			c2.917-0.241,12.542,0.574,12.827,1.429c0.284,0.855,0.215,1.106,0.063,2.615c-0.153,1.507-1.909,6.989-1.909,6.989
			s-3.06-4.252-0.288,1.476c2.771,5.728-0.788,3.413,8.771,7.319c9.559,3.906,15.829,5.618,18.592,6.891
			c2.762,1.272,2.739,5.153,5.788,1.581c3.049-3.573,2.874-3.88,5.857-7.212c2.982-3.332,3.793-1.555,5.352-6.313
			c1.559-4.758,3.764-6.19,0.229-12.228c-3.535-6.038-2.811-5.84-4.28-8.055c-1.468-2.215,2.61-2.916-4.581-4.102
			c-7.191-1.187-8.552,2.848-9.471-2.327c-0.919-5.175-2.131-2.637-0.977-6.866c1.155-4.229,2.366-4.867,1.586-7.706
			c-0.78-2.839,0.394-2.777-1.037-4.464c-1.43-1.686-0.882-1.795-2.614-3.046c-1.731-1.25-2.911-2.627-8.503-4.922
			c-5.592-2.295-3.505-3.298-9.406-2.568C137.373,205.294,133.862,204.863,135.264,210.169z"/>
		<g>
			<path fill="#D8BD80" d="M617.379,634.7c0,0-1.066,0.089-2.178,0.182C615.798,634.832,616.51,634.771,617.379,634.7z"/>
			<path fill="#D8BD80" d="M379.351,547.264C378.954,547.344,379.053,547.323,379.351,547.264L379.351,547.264z"/>
			<path fill="#D8BD80" d="M615.201,634.882c-0.376,0.031-0.703,0.06-0.982,0.082C614.532,634.938,614.867,634.909,615.201,634.882z
				"/>
			<path fill="#D8BD80" d="M381.012,546.932c0,0-0.473,0.096-0.951,0.19C380.321,547.07,380.62,547.01,381.012,546.932z"/>
			<path fill="#D8BD80" d="M614.219,634.964c-0.132,0.011-0.257,0.021-0.378,0.031C613.955,634.985,614.084,634.975,614.219,634.964
				z"/>
			<path fill="#D8BD80" d="M380.061,547.122c-0.154,0.031-0.294,0.059-0.407,0.081C379.782,547.178,379.921,547.149,380.061,547.122
				z"/>
			<path fill="#D8BD80" d="M379.653,547.203c-0.113,0.021-0.214,0.043-0.303,0.061C379.43,547.248,379.533,547.229,379.653,547.203z
				"/>
			<path fill="#D8BD80" d="M612.913,635.072c-0.034,0.003-0.06,0.005-0.084,0.007C612.851,635.078,612.883,635.075,612.913,635.072z
				"/>
			<path fill="#D8BD80" d="M612.829,635.079c-0.021,0.002-0.032,0.003-0.046,0.004C612.796,635.082,612.812,635.081,612.829,635.079
				z"/>
			<path fill="#D8BD80" d="M613.841,634.995c-0.095,0.008-0.182,0.015-0.263,0.021C613.662,635.01,613.749,635.003,613.841,634.995z
				"/>
			<path fill="#D8BD80" d="M612.783,635.083C612.74,635.087,612.739,635.087,612.783,635.083L612.783,635.083z"/>
			<path fill="#D8BD80" d="M613.578,635.017c-0.079,0.008-0.153,0.014-0.225,0.02C613.424,635.03,613.495,635.023,613.578,635.017z"
				/>
			<path fill="#D8BD80" d="M613.354,635.035c-0.197,0.018-0.345,0.029-0.44,0.037C613.018,635.062,613.171,635.051,613.354,635.035z
				"/>
			<path fill="#D8BD80" d="M805.5,746.5c-5-21,7-42,0-70s-3.812-31.916-3.812-34.438c0-2.522-8.188-2.738-8.188-2.738
				s-31,4.177-34,4.629s-7,1.548-13-0.628s-6,2.176-18,0s-10-0.824-13-0.119s-4-1.941-4-1.941l-8.771-0.479c0,0-2.31-3.285-6.271,0
				c-7.821-7.82-5.095-0.117-11.747-3.475c-6.652-3.359-7.897,5.547-13.068,1.737c-5.17-3.809-5.6,0.868-9.943,3.129
				c-4.345,2.261-10.4,2.211-14.773,0c-4.373-2.212-1.758,2.211-19.117-8.344c-17.359-10.554,0,0-10.429,0.869c0,0,0,0-26.646,5.214
				c-26.648,5.215-22.03-1.53-35.036-1.538s0,0-5.041-4.546c-5.042-4.545-27.996,0.869-33.21,0
				c-5.214-0.868-5.168,6.279-12.116,6.562c-6.947,0.281,0,0-2.578,0.091c-2.578,0.092-18.327-5.784-35.409-12.736
				c-1.122-0.457-2.103-0.85-2.968-1.192c-0.039-0.757-0.104-1.989-0.209-4.021c-0.271-5.214-5.812-0.868-11.895-7.656
				c0,0-4.346-1.901-8.689-4.51c-4.346-2.606,0,0-3.477-1.737s-5.215-14.772-5.215-14.772s0,0-0.868-18.249
				c-0.869-18.249,0,0-4.346-5.214c-4.345-5.215,0,0-2.026-1.738c-2.027-1.737-9.271-6.951-9.271-6.951l-2.606-6.141l4.346-16.454
				c0,0,0,0,5.214-3.477c5.214-3.476,0-4.345,0-9.559s0-7.821,0-7.821s0,0-1.738-9.559c-1.737-9.561-4.345-5.215-4.345-5.215
				s0,0-10.545,0.755c-10.544,0.755-5.098,0.982-9.442,0.114c-4.344-0.869,0,3.477,0,3.477v7.82c0,0,0,0-4.345,2.606
				c-4.345,2.607,0,3.477,0,3.477v3.477v6.083c0,0,0,0-5.214,3.477s1.738,4.345,0,7.82c-1.738,3.477-4.345,3.477-8.69,4.345
				c0,0,0,0-6.083,6.084c-6.083,6.082,0,6.082,0,6.082v5.215c0,0,0,0-0.868,6.083c-0.869,6.083,0,3.477,0,3.477v3.476
				c0,0,0,0-3.477,4.346c-3.476,4.346,0,0-7.821,4.346c-7.82,4.345-5.214,0-5.214,0s0,0-4.345,0s-4.345,1.737-12.166,8.689
				c-7.821,6.951,0,0-2.606-1.738c-2.607-1.737-8.69,6.952-8.69,6.952s0,0-17.38,0.869c-3.093,0.153-5.208,0.363-6.634,0.585
				c-0.052-0.172-0.153-0.366-0.317-0.585c-2.607-3.477-15.642-0.869-21.725-0.869s0,0-11.297-3.477s-7.821-3.477-11.297-3.477
				s-12.166,1.738-26.07,7.821c-13.904,6.083-6.083,3.575-6.083,3.575s-4.345,1.639-7.821,2.122
				c-3.476,0.485-6.083,2.123-6.083,2.123s0,0-4.345-2.821c-4.345-2.821-6.083-0.654-8.69-0.201s-7.061,0-7.061,0
				s-1.424-0.066-4.04-0.191c-1.067-3.075-1.934-6.345-1.934-6.345h-4.345v-5.214c0,0,0,0-10.428-6.083
				c-10.428-6.083-13.904-3.477-20.856-6.083c-6.952-2.606-13.035-3.477-19.987-7.82c-6.952-4.346-13.035-9.56-15.642-13.904
				c-2.607-4.344,0,0-1.738-6.083c-1.738-6.083,0,0-1.738-4.345c-1.738-4.346-3.476-4.346-8.69-8.689c-5.214-4.345,0,0-1.989-5.214
				c-1.989-5.215-8.439-6.084-11.915-15.643c-3.476-9.56-0.869-9.56-1.738-13.035c-0.869-3.477,0.869-13.035,1.738-19.986
				c0.869-6.952,1.738-5.215,1.738-8.689c0-3.477,5.214-4.346,8.69-12.166c3.476-7.821,0,0-1.738-3.477s0.869-6.083,0-9.124
				c-0.869-3.042-1.738-11.731-3.476-15.244c-1.738-3.514-9.559-6.915-13.904-11.261c-4.345-4.346,0,0-2.607-3.479
				c-2.607-3.479,0-11.293,0-11.293s0,0,0-4.362c0-3.22,0-3.805,0-3.891l1.738-2.966l5.214-5.292c0,0,0,0,1.738-5.214
				c1.738-5.214,0,0-1.738-4.345c-1.738-4.345,0,0-6.083-4.008c-6.083-4.008,0.869-4.682,0-7.714
				c-0.869-3.033-5.214-2.182-11.297-7.805c-6.083-5.623-3.476-0.459-9.559-0.044s-4.345-2.153-10.428-3.891
				c-6.083-1.738,0,0-5.214-3.476c-5.214-3.476,0,0-4.345-6.952c-4.345-6.952,0,0,3.476-7.821c3.476-7.821,0-5.214,0-5.214
				s0,0-0.869-8.69s0,0-0.869-3.573c-0.869-3.573-3.476-3.379-5.214-7.724c-1.738-4.345-10.428,0-17.38,0
				c-6.952,0-16.513,11.292-19.12,12.161s-19.118,5.214-19.118,5.214L-33.5,684.588c0,0,1.802,0,5.067,0
				c0.506,50.488,1.016,104.404,1.016,116.525l728.209,7.387c0,0,0.036-1.172,0.098-3.285l106.865,8.285
				C807.755,813.5,810.5,767.5,805.5,746.5z"/>
		</g>
	</g>
</g>
<g>
	<rect x="402.014" y="233.647" fill="#0C0C0C" width="24.199" height="74.021"/>
	<path fill="#070707" d="M469.672,299.394c-14.449-25-28.876-50.006-43.311-75.013c-1.158-2.004-2.286-4.033-3.488-6.013
		c-2.629-4.332-7.047-6.418-11.649-5.441c-3.485,0.74-5.891,2.944-7.636,5.966c-10.497,18.189-20.999,36.375-31.5,54.561
		c-5.093,8.823-10.202,17.637-15.27,26.474c-3.271,5.704-1.763,12.118,3.51,15.148c2.071,1.192,4.328,1.564,6.687,1.562
		c15.415-0.012,30.828-0.003,46.243-0.003c2.803,0,5.604,0,8.407,0c12.854-0.006,25.706,0.017,38.56-0.016
		c6.071-0.016,10.549-3.622,11.352-9.077C472.008,304.599,471.141,301.935,469.672,299.394z M420.023,233.981l-2.021,48.365h-8.977
		l-1.908-48.365H420.023z M413.572,303.892c-3.967,0-7.183-3.216-7.183-7.182s3.216-7.182,7.183-7.182
		c3.965,0,7.182,3.215,7.182,7.182S417.539,303.892,413.572,303.892z"/>
	<path fill="#F9E132" d="M464.387,296.946c-13.091-22.653-26.164-45.31-39.243-67.97c-1.05-1.814-2.07-3.654-3.158-5.447
		c-2.384-3.925-6.387-5.815-10.558-4.931c-3.158,0.67-5.338,2.667-6.919,5.406c-9.511,16.482-19.026,32.96-28.542,49.437
		c-4.615,7.994-9.244,15.981-13.836,23.988c-2.964,5.168-1.596,10.981,3.18,13.727c1.876,1.081,3.922,1.417,6.06,1.416
		c13.967-0.011,27.933-0.003,41.899-0.003c2.539,0,5.079,0,7.617,0c11.646-0.005,23.293,0.017,34.939-0.015
		c5.501-0.014,9.559-3.282,10.284-8.225C466.503,301.662,465.718,299.249,464.387,296.946z M419.402,237.676l-1.83,43.823h-8.135
		l-1.729-43.823H419.402z M413.555,301.021c-3.594,0-6.508-2.914-6.508-6.507c0-3.594,2.914-6.507,6.508-6.507
		c3.595,0,6.508,2.914,6.508,6.507C420.062,298.107,417.149,301.021,413.555,301.021z"/>
</g>
<g>
	<g>
		<polygon fill="#F90606" points="418.059,404.466 426.213,404.466 414.206,421.956 402.196,404.466 408.297,404.466 
			408.297,403.652 418.059,403.652 		"/>
	</g>
	<rect x="408.297" y="335.935" fill="#FC3232" width="10.168" height="68.531"/>
</g>
</svg>
