<?xml version="1.0" encoding="utf-8"?>
<!-- Generator: Adobe Illustrator 16.0.0, SVG Export Plug-In . SVG Version: 6.00 Build 0)  -->
<!DOCTYPE svg PUBLIC "-//W3C//DTD SVG 1.1//EN" "http://www.w3.org/Graphics/SVG/1.1/DTD/svg11.dtd">
<svg version="1.1" id="Capa_1" xmlns="http://www.w3.org/2000/svg" xmlns:xlink="http://www.w3.org/1999/xlink" x="0px" y="0px"
	 width="800px" height="800px" viewBox="0 0 800 800" enable-background="new 0 0 800 800" xml:space="preserve">
<g id="Capa_3">
	<g id="Cèl_1_">
		
			<linearGradient id="SVGID_1_" gradientUnits="userSpaceOnUse" x1="313.6611" y1="1216.1582" x2="1207.6895" y2="1216.1582" gradientTransform="matrix(0 -1 -1 0 1580.5 1197.5)">
			<stop  offset="0.4692" style="stop-color:#FFFFFF"/>
			<stop  offset="0.5669" style="stop-color:#C1F0FF"/>
			<stop  offset="0.6844" style="stop-color:#7DE0FF"/>
			<stop  offset="0.7908" style="stop-color:#47D4FF"/>
			<stop  offset="0.8821" style="stop-color:#20CBFF"/>
			<stop  offset="0.9549" style="stop-color:#09C5FF"/>
			<stop  offset="1" style="stop-color:#00C3FF"/>
		</linearGradient>
		<polygon fill="url(#SVGID_1_)" points="-86.998,-10.19 815.683,-10.19 812.175,883.839 -83.845,883.839 		"/>
	</g>
	<polygon opacity="0.8" fill="#39BCC4" enable-background="new    " points="-36.698,-17.098 874.729,-18.85 872.604,872.685 
		-39.935,872.685 	"/>
</g>
<g id="Capa_2">
	<g>
		<path fill="#CCCCCC" d="M205.264,386.537c-56.752-3.653-248.492-3.092-300.174-4.504c-0.398,100.954,0.56,184.328,4.726,188.495
			c10.819,10.818,286.229,48.196,302.951,46.229c16.722-1.968,204.591-43.278,235.082-59.016
			c27.767-14.332,59.604-142.005,70.275-181.811C444,385.289,262.963,390.25,205.264,386.537z"/>
		<path fill="#EAEAEA" d="M518.124,377.645c1.048-3.909,1.896-6.986,2.512-9.01c6.888-22.623,5.9-53.114,4.917-62.951
			c-0.98-9.835-59.661-19.671-59.661-19.671L420,231.914v-73.771l-124.271-37.377l-177.22-87.541L-107.386-1
			c0,0,13.153,223.542,12.517,384.747c51.683,1.413,242.847,6.527,299.716,6.527C261.569,390.274,444,387.002,518.124,377.645z"/>
	</g>
	<rect x="-60" y="158" fill="#D8D8D8" width="480" height="126"/>
	<rect x="-53" y="68" fill="#D8D8D8" width="206" height="54"/>
	<rect x="-85" y="-52" fill="#D8D8D8" width="135" height="105"/>
	<path fill="#E8CDA0" d="M388.471,144c0,5.704-4.623,10-10.326,10h-420C-47.561,154-53,152.242-53,147.323v-5.41
		c0-5.901,5.439-7.914,11.144-7.914h420C383.848,134,388.471,138.296,388.471,144L388.471,144z"/>
	<path fill="#E8CDA0" d="M145.362,57c0,5.704-4.624,10-10.327,10h-420.001C-290.669,67-296,65.537-296,60.619V55.21
		c0-5.902,5.331-8.209,12.035-8.209h420.001C140.738,47,145.362,51.296,145.362,57L145.362,57z"/>
	<path fill="#D8D8D8" d="M-71.854,305.218c0,0,555.156,5.909,581.188,1.625c26.033-4.285,15.416-2.687,15.416-2.687
		s4.655,17.54-0.456,45.89c-2.242,12.422-16.226,18.495-16.226,18.495l-237.225,1.569l-338.129-0.652L-71.854,305.218z"/>
	<path fill="#FF0000" d="M515.356,364.042c9.142-3.965,9.508-16.888,9.508-16.888s19.794,34.026-6.974,35.941
		C472.244,386.363,344,388.308,344,388.308V370.11C344,370.11,497.574,371.754,515.356,364.042z"/>
	<path fill="#E5CAB1" d="M347.798,304.272c-1.285-0.856-21.729-11.997-23.505-18.852s-0.489-8.569-2.203-18.853
		c-1.714-10.283-6.854-19.709,0.856-25.707c7.713-5.999,5.45-15.853,8.081-15.853s18.848-0.429,25.307,1.713
		c6.459,2.143,16.137,5.589,16.976,12.514c0.843,6.925,8.335,17.05,7.052,23.477c-1.285,6.427-2.999,12.854-4.714,16.709
		s0.797,10.153,0.372,12.491c-0.422,2.338-2.678,10.646-8.167,12.36C362.366,305.986,347.798,304.272,347.798,304.272z"/>
	<path fill="#394963" d="M79.98,295.848c0,0,1.967-153.443,26.558-167.213c24.589-13.77,28.524-24.59,43.278-24.59
		c14.753,0,90.492-6.885,101.311,0c10.82,6.885,66.754,25.574,67.738,39.345c0.981,13.77,17.705,106.229,0,165.246
		c-4.021,13.403-11.289,35.126-20.122,61.01c-30.059,88.088-70.239,224.365-70.239,244.892c0,26.558,10.82,27.541,20.655,38.36
		c9.836,10.817-1.966,15.408-1.966,15.408s-23.607-9.508-26.557-11.476c-2.952-1.968-13.771-10.819-20.657-2.951
		c-6.885,7.869-10.819,60-9.835,62.95c0.983,2.952-5.902,11.966,7.869,20.656c13.77,8.689,22.951,20.983,22.951,20.983
		s15.082,35.409,9.181,35.409c-5.902,0-48.853-21.968-49.837-26.886s1.968-24.591-2.95-28.524
		c-4.918-3.936-20.656-14.755-20.656-14.755l-10.819-90.49l5.901-54.099l-42.295-49.182c0,0,6.885-118.032-11.803-144.59
		C78.996,358.798,79.98,295.848,79.98,295.848z"/>
	<path fill="#626363" d="M193.094,687.324c0,0-41.967-51.806-17.705-47.214c24.262,4.591,22.181,28.194,25.189,39.345
		c3.008,11.146,20.058,4.592,22.024,15.082c1.968,10.491,0,13.115,0,13.115s27.541-5.902,30.82,5.899
		c3.278,11.806,7.212,36.722-11.148,21.64c-18.36-15.081-33.532-21.64-33.532-21.64l-8.165,4.591c0,0,3.663,20.327-15.353,30.163
		c-19.017,9.835-15.801,16.395-11.834,0c3.966-16.393,8.556-24.918,13.147-28.853c4.589-3.936-3.28-9.508-3.28-9.508
		s1.208-14.914,1.311-15.536C184.672,693.788,193.094,687.324,193.094,687.324z"/>
	<path fill="#394963" d="M205.587,708.797c-3.154-20.178,4.158-20.704,9.765-14.695c5.605,6.009,8.018,10.127,2.937,11.434
		C213.209,706.838,205.587,708.797,205.587,708.797z"/>
	<polygon fill="#8C8C8C" points="351,340.111 351,317 476.373,317 477.101,339.02 	"/>
	<path fill="#606060" d="M351,331.158V317h106.339c0,0,1.375,12.527,0.263,12.726C456.488,329.923,351,331.158,351,331.158z"/>
	<path fill="#999999" d="M611.508,491.08c2.312-2.17,2.421-6.044,0.249-8.354L456.164,317H439.98l163.179,173.795
		c2.172,2.307,5.802,2.551,8.108,0.379L611.508,491.08z"/>
	<path fill="#B7B7B7" d="M589,465c0-2.762-2.238-5-5-5h-92c-2.762,0-5,2.238-5,5l0,0c0,2.762,2.238,5,5,5h92
		C586.762,470,589,467.762,589,465L589,465z"/>
	<path fill="#B7B7B7" d="M555,430c0-2.762-2.238-5-5-5h-92c-2.762,0-5,2.238-5,5l0,0c0,2.762,2.238,5,5,5h92
		C552.762,435,555,432.762,555,430L555,430z"/>
	<path fill="#B7B7B7" d="M523,394c0-2.761-2.238-5-5-5h-92c-2.762,0-5,2.239-5,5l0,0c0,2.761,2.238,5,5,5h92
		C520.762,399,523,396.761,523,394L523,394z"/>
	<path fill="#B7B7B7" d="M490,357c0-2.761-2.238-5-5-5h-92c-2.762,0-5,2.239-5,5l0,0c0,2.761,2.238,5,5,5h92
		C487.762,362,490,359.761,490,357L490,357z"/>
	<path fill="#999999" d="M518.065,495.016c2.309-2.172,2.421-5.803,0.249-8.109L359.3,317.526l-8.3-0.038v8.4L509.979,494.99
		c2.175,2.31,5.674,2.42,7.98,0.249L518.065,495.016z"/>
	<path fill="#7A7A7A" d="M517.381,492.673c1.02-1.267,0.815-3.117-0.451-4.134l-0.093-0.074c-1.267-1.016-3.116-0.812-4.133,0.452
		l-1.146,1.429c-1.018,1.269-0.812,3.118,0.451,4.136l0.093,0.072c1.269,1.019,3.117,0.812,4.136-0.452L517.381,492.673z"/>
	<path fill="#7A7A7A" d="M611.643,489.244c1.02-1.268,0.814-3.117-0.449-4.133l-0.096-0.074c-1.266-1.019-3.114-0.812-4.133,0.451
		l-1.146,1.43c-1.019,1.267-0.814,3.117,0.452,4.134l0.093,0.074c1.267,1.016,3.116,0.813,4.133-0.453L611.643,489.244z"/>
	<g opacity="0.7">
		<path opacity="0.6" fill="#39BCC4" enable-background="new    " d="M145.882,633.227l10.819,90.49c0,0,13.947,9.589,19.684,13.995
			c-1.029,3.104-2.03,6.612-2.994,10.596c-3.581,14.803-6.544,10.894,6.907,2.755c0.084,6.422-0.518,13.299,0.009,15.936
			c0.984,4.918,43.935,26.886,49.837,26.886c5.901,0-9.181-35.409-9.181-35.409s-9.181-12.294-22.951-20.983
			c-0.28-0.177-0.539-0.354-0.802-0.53c5.099-9.203,3.368-18.812,3.368-18.812l8.165-4.591c0,0,15.171,6.559,33.532,21.641
			c18.36,15.081,14.426-9.835,11.148-21.641c-3.279-11.804-30.82-5.899-30.82-5.899s1.968-2.624,0-13.115
			c-1.966-10.49-19.016-3.936-22.024-15.082c-1.305-4.837-1.654-12.018-3.61-18.975c0.926-3.047,1.933-5.366,3.011-6.602
			c6.885-7.868,17.705,0.983,20.657,2.951c2.95,1.968,26.557,11.477,26.557,11.477s11.802-4.592,1.966-15.409
			c-9.835-10.819-20.655-11.805-20.655-38.36c0-0.185,0.013-0.399,0.02-0.604c49.661-9.977,193.025-42.593,219.324-56.166
			c5.023-2.593,10.182-8.905,15.321-17.729l-531.845,0.576l-0.236,36.525c44.657,9.81,148.689,24.916,217.267,33.4L145.882,633.227z
			 M192.228,686.238c0.551,0.694,0.866,1.086,0.866,1.086s-0.432,0.331-1.098,0.849
			C192.071,687.529,192.149,686.885,192.228,686.238z"/>
	</g>
	<path fill="#5B422C" d="M440.989,206c2.142,1,13.902,8.54,16.807,12.396c2.901,3.856,4.528,5.485,5.001,11.412
		c0.473,5.926,8.444,7.516,5.703,12.229c-2.742,4.713-6.73,15.699-7.16,17.413c-0.428,1.714-10.979,5.596-18.021,3.881
		c-7.042-1.713-6.558,20.528-11.483,22.671c-4.927,2.142-19.963-13.048-19.98-15.795c-0.007-0.909-2.998-2.998-6.213-2.141
		c-3.213,0.856-16.71,1.831-17.565,0.167c-0.856-1.665-6.733,5.65-10.286,3.179c-3.553-2.471-0.817-10.438-2.656-13.853
		s-2.694-23.094-2.91-25.665c-0.215-2.571,3.214-25.892,3.214-25.892h65.554V206H440.989z"/>
	<path fill="#F9F9F9" d="M368.562,157.739c-10.084,0-37.902-16.281-41.697-14.35c0,0,3.58-27.854,1.01-35.78
		c-2.571-7.927,11.271-34.195,14.551-36.382c3.28-2.187,26.581-8.392,29.794-6.464c3.213,1.928,19.281,10.283,20.354,14.568
		c1.069,4.285,5.999,16.315,13.926,21.654c7.926,5.339,25.54,6.839,28.622,7.053c3.084,0.215,9.938-5.107,11.652-7.053
		c1.714-1.945,4.499-11.585,5.143-13.299c0.642-1.714-1.072-6.641,1.07-6.641c2.142,0,30.85,6.427,33.42,7.284
		c2.57,0.856,5.568-8.57,13.497,3.642c7.926,12.211,11.354,37.49,11.14,39.418c-0.215,1.928-1.715,9.641-1.285,12.211
		c0.43,2.571,0,5.784,0,7.069c0,1.286-3.908,4.225-3.883,3.505c0.026-0.72-9.4-1.148-12.613-0.72
		c-3.214,0.429-15.21,1.285-17.353,1.714c-2.144,0.429,1.782,3.642-2.932,7.927c-4.714,4.285-4.382,26.136-6.709,26.136
		c-2.329,0-5.144,32.134-40.704,31.492c-1.312-0.023-3.482,4.608-12.869,6.123c-16.812,2.713-40.611-5.572-40.476-6.123
		c0.215-0.857-12.854,0.822-12.854,0.822L368.562,157.739z"/>
	<path fill="#E5CAB1" d="M456.889,307.2c-6.881-0.482-12.926-1.524-18.29-6.881c-5.361-5.357-13.396-9.077-14.548-16.319
		c-1.15-7.243,2.655-7.853,0-9.889c-2.654-2.036-0.459-16.064-0.957-17.759s4.295-2.58,3.729-5.987
		c-0.567-3.407,3.021-12.558,7.467-12.738c4.443-0.181,17.739-6.002,20.378-4.394c2.638,1.608,5.463,0.778,8.5,2.768
		c3.062,2.006,2.696,0.607,6.379,4.745c3.682,4.139,10.637,6.43,11.771,13.245c1.133,6.815-0.781,12.468,0.625,15.412
		c1.404,2.945-0.006,10.721,0.729,12.834c0.733,2.115-0.769,4.319,0.61,8.123c1.379,3.803,0.196,6.424-4.371,10.04
		c-4.57,3.616-14.672,8.313-17.634,9.292C458.314,310.671,456.889,307.2,456.889,307.2z"/>
	<path fill="#F9DBBD" d="M344.397,75.027c5.856-5.142,20.781-10.275,22.066-6.419s-3.965,20.35-0.107,28.062
		c3.854,7.712-2.188,43.653,0.172,48.795c2.357,5.141,1.097,43.677,1.097,43.677s8.945,22.81,10.23,26.18
		c1.282,3.37-5.146,35.871-5.146,42.753c0,6.883-3.859,22.304-3.859,30.015c0,7.712,0.188,15.423,2.759,19.278
		c2.568,3.856,20.605,26.254,20.605,26.254L394,352.045l-2.194,0.104l-8.931-9.774c0,0-4.856-1.285-6.371,0.458
		c-3.754,4.321-3.006,6.985-3.006,6.985L384.95,362l-6.103,3.629c0,0-6.43,1.285-10.283,0c-3.855-1.286-13.828-5.509-15.814-11.754
		c-1.75-5.5-10.894-17.99-9.608-21.325c1.285-3.333-0.001-12.948,2.569-17.138c2.571-4.19,2.57-5.204,0-15.622
		c-2.569-10.418-6.616-17.841-7.128-26.34c-0.513-8.499-5.583-27.778-5.583-39.347c0-11.568,0-39.517,0-39.517
		s7.521-33.746,5.668-37.602c-1.853-3.856-3.303-38.559-5.817-42.416C330.337,110.713,344.397,75.027,344.397,75.027z"/>
	<path fill="#F9DBBD" d="M452.985,103.539c0.429,1.714,10.816,40.168,15.96,51.308c5.142,11.14,10.766,37.651,11.622,42.364
		c0.855,4.713,2.169,20.54,0.025,25.681c-2.144,5.142-3.415,56.115-3.415,64.256c0,8.14-5.305,15.846-5.73,17.988
		c-0.432,2.142-7.447,16.275-7.447,21.416c0,5.142,0,22.28,0,22.28l3.496,3.168h18.267c0,0,11.696,8.729,13.615,11.008
		l13.424,14.357c0,0,2.953-1.573,2.953-2.858c0-1.285,0.857-5.982,0-8.124c-0.855-2.143-5.142-10.275-5.142-10.275
		s2.143-0.853,2.143-2.139c0-1.285,0.428-3.425-0.855-6.425c-1.285-2.999-2.144-5.997-4.715-8.996
		c-2.568-3-11.995-11.568-11.995-11.568l-2.144-8.569l2.144-10.711c0,0,7.713-24.851,8.997-29.135
		c1.285-4.285,9.854-32.991,9.854-32.991l2.095-21.423c0,0-0.81-10.283-2.095-13.711c-1.285-3.427-1.714-14.567-1.714-19.28
		s0.854-7.712-2.145-14.996s-4.712-12.426-4.282-22.708c0.428-10.283,1.283-36.419-1.285-42.417
		c-2.571-5.999-5.998-19.709-7.284-20.566c-1.285-0.857-11.14-3.856-16.281-3.856C475.909,86.617,452.985,103.539,452.985,103.539z"
		/>
	<path fill="#F9F9F9" d="M368.562,157.739c-10.084,0-37.902-16.281-41.697-14.35c0,0,3.58-27.854,1.01-35.78
		c-2.571-7.927,11.271-34.195,14.551-36.382c3.28-2.187,26.581-8.392,29.794-6.464c3.213,1.928,23.708-9.784,24.779-5.5
		c1.071,4.285,5.545,30.6,13.471,35.939c7.929,5.339,21.567,12.622,24.649,12.835c3.084,0.215,9.938-5.107,11.652-7.053
		c1.714-1.945,4.498-11.585,5.143-13.299c0.642-1.714-1.072-6.641,1.07-6.641c2.142,0,11.201-10.543,13.771-9.686
		c2.57,0.857,25.218,8.4,33.146,20.612c7.926,12.211,11.354,37.49,11.14,39.418c-0.215,1.928-1.715,9.641-1.285,12.211
		c0.428,2.571,0,5.784,0,7.069c0,1.286-3.908,4.225-3.883,3.505c0.026-0.72-9.4-1.148-12.613-0.72
		c-3.214,0.429-15.21,1.285-17.353,1.714c-2.145,0.429-4.713-1.714-9.427,2.571c-4.713,4.285-20.835,16.71-23.164,16.71
		c-2.328,0-53.744-1.713-57.172-2.999c-3.43-1.286-13.497-1.714-13.282-2.571c0.214-0.857-1.928-10.497-1.928-10.497
		L368.562,157.739z"/>
	<path fill="#9E895A" d="M389.486,39.828c20.924-20.813,16.957-29.213,32.629-23.381c15.672,5.832,30.338,8.64,31.999,15.895
		c1.66,7.255,7.001,20.241,9.062,25.799c2.062,5.559,2.674,14.031,2.346,20.82c-0.327,6.79-4.244,22.523-6.946,25.727
		c-2.705,3.204-3.424,2.876-6.375,5.56c-2.951,2.683-6.947,5.201-15.118,6.937c-8.171,1.735-6.126,3.104-16.302,1.39
		c-10.18-1.713-4.19-4.062-14.045-3.21c-9.855,0.851-1.321,9.175-9.855,0.851c-8.533-8.323-11.201-5.002-8.108-12.055
		c3.093-7.053-1.587-14.018-3.942-20.005c-2.359-5.987-7.792-8.499-6.796-11.271c0.997-2.771-2.969-0.498-1.312-8.28
		s7.406-24.174,7.406-24.174L389.486,39.828z"/>
	
		<image display="none" overflow="visible" enable-background="new    " width="800" height="500" xlink:href="../../../Referències fotogràgiques/compass_15.jpg"  transform="matrix(0.917 0 0 0.917 -732.2798 -101.5044)">
	</image>
</g>
</svg>
