<?xml version="1.0" encoding="utf-8"?>
<!-- Generator: Adobe Illustrator 16.0.0, SVG Export Plug-In . SVG Version: 6.00 Build 0)  -->
<!DOCTYPE svg PUBLIC "-//W3C//DTD SVG 1.1//EN" "http://www.w3.org/Graphics/SVG/1.1/DTD/svg11.dtd">
<svg version="1.1" id="Capa_1" xmlns="http://www.w3.org/2000/svg" xmlns:xlink="http://www.w3.org/1999/xlink" x="0px" y="0px"
	 width="800px" height="800px" viewBox="0 0 800 800" enable-background="new 0 0 800 800" xml:space="preserve">
<g id="Ones">
	<rect x="-23" y="-11" fill="#42C9CC" width="840" height="843"/>
	<g>
		<g>
			
				<line fill="none" stroke="#FFFFFF" stroke-width="3" stroke-miterlimit="10" x1="873.301" y1="708.585" x2="867.744" y2="706.32"/>
			
				<line fill="none" stroke="#FFFFFF" stroke-width="3" stroke-miterlimit="10" stroke-dasharray="12.003,12.003" x1="856.629" y1="701.79" x2="261.96" y2="459.433"/>
			
				<line fill="none" stroke="#FFFFFF" stroke-width="3" stroke-miterlimit="10" x1="256.402" y1="457.168" x2="250.846" y2="454.903"/>
		</g>
	</g>
	<g>
		
			<linearGradient id="SVGID_1_" gradientUnits="userSpaceOnUse" x1="68.2505" y1="781.6484" x2="68.2503" y2="-262.7045" gradientTransform="matrix(-4.371139e-08 1 1 4.371139e-08 32.1064 103.3432)">
			<stop  offset="0" style="stop-color:#FFFFFF;stop-opacity:0.8"/>
			<stop  offset="0.9306" style="stop-color:#FFFFFF;stop-opacity:0"/>
		</linearGradient>
		<path fill="url(#SVGID_1_)" d="M-97.027,491.631c54.355-17.033,116.823-4.701,168.085-22.902
			c56.171-19.939,106.002-55.369,151.583-71.252c42.072-14.657,85.192,1.115,139.925-17.891
			c58.617-20.355,93.023-43.136,130.861-60.004c37.879-16.886,107.452-11.689,144.224-28.54
			c33.954-15.561,190.146-157.483,190.146-157.483S677.446,15.137,644.937,2.596c-34.85-13.443-101.781-16.872-141.786-27.643
			c-40.004-10.771-83.592-51.602-140.521-62.374c-56.93-10.77-91.038-8.656-138.413-17.889
			c-47.375-9.232-103.436-47.533-157.287-55.228c-53.852-7.691-133.186-5.171-163.959-9.789
			c-30.772-4.616-79.65-39.349-133.568-47.042v353.044v20.814v404.06C-172.546,537.357-128.306,501.432-97.027,491.631z"/>
		
			<linearGradient id="SVGID_2_" gradientUnits="userSpaceOnUse" x1="52.7603" y1="611.3408" x2="52.7601" y2="-262.7051" gradientTransform="matrix(-4.371139e-08 1 1 4.371139e-08 32.1064 103.3432)">
			<stop  offset="0" style="stop-color:#FFFFFF;stop-opacity:0.8"/>
			<stop  offset="1" style="stop-color:#FFFFFF;stop-opacity:0"/>
		</linearGradient>
		<path opacity="0.5" fill="url(#SVGID_2_)" enable-background="new    " d="M-97.027,396.236
			c30.774-4.617,102.459,1.708,153.174-17.965c56.127-21.774,94.57-56.627,140.096-72.661
			c47.898-16.871,109.395-10.646,166.323-21.417c56.93-10.769,90.857-49.236,130.861-60.004
			c40.004-10.771,113.051-14.184,141.939-37.864c28.886-23.68,17.706-46.022,17.706-46.022s4.679-19.193-17.693-37.536
			c-28.889-23.68-101.917-27.095-141.923-37.863c-40.003-10.771-73.9-49.236-130.828-60.006
			c-56.93-10.77-91.04-8.659-138.413-17.892c-47.375-9.231-103.435-47.531-157.288-55.224
			c-53.851-7.693-133.186-5.173-163.959-9.788c-30.771-4.617-79.649-39.35-133.566-47.045v273.039v20.813v268.454
			C-176.68,429.56-127.8,400.85-97.027,396.236z"/>
	</g>
	<g id="Lanxa_gran">
		<path fill="#D1D1D1" d="M477.784,52.795v184.639l219.929,3.405c0,0,182.305,17.034,244.884-96.035
			C882.496,35.449,702.292,47.838,702.292,47.838L477.784,52.795z"/>
		<path fill="#E8E8E8" d="M895.959,145.114c1.177-61.784-77.81-81.347-152.417-86.311l-123.61,2.044l-89.219,3.1l-11.148,48.016
			l9.211,7.748l-0.232,51.422c0,0-7.74,6.504-7.74,8.053c0,8.728,10.532,47.098,10.532,47.098s60.576,1.371,87.836,2.013
			c0.928,0.022,122.833,3.529,124.37,3.479C818.003,229.141,894.683,212.299,895.959,145.114z M621.797,225.501
			c-2.016,0.313-84.572-7.896-84.572-7.896s-5.943-32.098-5.943-40.336c0-1.461,7.4-7.599,7.4-7.599l0.217-48.551l-8.805-7.312
			l7.123-42.736l84.469-7.125c73.319-1.03,74.349,0.405,121.852,0c72.779,5.647,150.096,27.884,148.698,81.991
			c-1.391,53.767-76.756,75.558-148.698,80.345C740.756,226.244,623.033,224.88,621.797,225.501z"/>
		<path fill="#E5E5E5" d="M764.529,191.787l14.188-13.61l5.06-31.971l-5.06-33.929l-14.188-14.938
			c-5.546-7.683-33.49-10.249-33.49-10.249h-51.847l-11.306,6.461l6.611,38.435l20.131,13.312l-20.131,12.722l-6.611,37.74
			l11.306,4.962h51.845C731.037,200.719,758.983,199.463,764.529,191.787z"/>
		<path fill="#C6C6C6" d="M692.458,195.593c1.601-0.106,25.215-15.151,25.215-15.151l0.717-68.339l-24.355-17.138h-3.421h-1.705
			h-1.707h-19.365v100.626C667.837,195.593,690.854,195.703,692.458,195.593z"/>
		<path fill="#2C7D99" d="M738.934,185.068v-34.489v-13.158v-31.077c0,0-13.909-9.963-48.373-11.589
			c-0.202-0.014-0.365,1.777-0.365,1.777c6.365,4.528,23.478,14.648,23.478,14.648l0.158,32.82l-0.209,36.229
			c0,0-17.188,10.115-23.55,14.646c0,0,0.287,1.794,0.488,1.782C725.028,195.026,738.934,185.068,738.934,185.068z"/>
		<path display="none" fill="#394963" d="M450.237,171.828c-3.667-0.017-6.625-3.007-6.601-6.673l0.203-38.647
			c0.021-3.663,3.014-6.621,6.68-6.605l59.364,0.32c3.672,0.018,6.625,3.009,6.605,6.675l-0.214,38.647
			c-0.017,3.665-3.002,6.62-6.672,6.601L450.237,171.828z"/>
	</g>
	<g id="boat">
		
			<linearGradient id="SVGID_3_" gradientUnits="userSpaceOnUse" x1="587.1055" y1="534.7041" x2="587.1055" y2="319.4574" gradientTransform="matrix(0.3747 -0.9272 -0.9272 -0.3747 780.6422 1304.3398)">
			<stop  offset="0" style="stop-color:#FFFFFF;stop-opacity:0.8"/>
			<stop  offset="0.9306" style="stop-color:#FFFFFF;stop-opacity:0"/>
		</linearGradient>
		<path fill="url(#SVGID_3_)" d="M700.41,562.688c-7.461-1.787-23.636-13.642-36.655-16.858c-13.019-3.215-28.438-0.036-40.118-2.3
			c-11.681-2.268-19.005-8.499-33.013-11.296c-14.007-2.795-25.308,2.864-35.445,1.633c-10.138-1.233-27.146-7.198-35.937-4.455
			c-8.791,2.744-18.243,33.5-18.243,33.5s-10.231,22.245-6.812,28.504c4.419,8.079,20.795,15.606,28.941,21.764
			c8.149,6.156,12.345,18.079,24.359,25.8c12.02,7.72,21.618,8.326,31.595,14.812c9.975,6.485,18.854,19.481,30.453,26.214
			c11.597,6.734,31.467,9.443,38.073,13.342c6.607,3.896,15.905,13.792,27.151,20.383l28.709-71.04l1.923-4.756l28.704-71.039
			C721.431,563.819,707.869,564.476,700.41,562.688z"/>
		
			<linearGradient id="SVGID_4_" gradientUnits="userSpaceOnUse" x1="586.7305" y1="534.7041" x2="586.7305" y2="319.4613" gradientTransform="matrix(0.3747 -0.9272 -0.9272 -0.3747 780.6422 1304.3398)">
			<stop  offset="0" style="stop-color:#FFFFFF;stop-opacity:0.8"/>
			<stop  offset="1" style="stop-color:#FFFFFF;stop-opacity:0"/>
		</linearGradient>
		<path opacity="0.5" fill="url(#SVGID_4_)" enable-background="new    " d="M691.599,584.492
			c-7.458-1.788-23.636-13.643-36.655-16.858c-13.019-3.215-28.435-0.035-40.117-2.303c-11.681-2.265-19.005-8.497-33.012-11.294
			c-14.006-2.795-25.309,2.866-35.445,1.634c-10.138-1.234-27.147-7.2-35.936-4.455c-8.791,2.743-8.297,8.883-8.297,8.883
			s-2.843,3.956,0.578,10.213c4.418,8.081,20.793,15.608,28.942,21.764c8.147,6.158,12.343,18.081,24.359,25.801
			c12.018,7.72,21.616,8.326,31.592,14.813c9.975,6.484,18.854,19.481,30.45,26.215c11.6,6.731,31.471,9.442,38.076,13.341
			c6.607,3.897,15.905,13.791,27.152,20.381l21.318-52.753l1.922-4.757l18.759-46.421
			C712.618,585.622,699.059,586.28,691.599,584.492z"/>
		<g id="Capa_4_1_">
			<path fill="#D1D1D1" d="M542.608,608.868l23.622-58.457l-69.191-29.214c0,0-55.537-28.717-89.815-0.925
				c5.036,42.311,63.674,61.442,63.674,61.442L542.608,608.868z"/>
			<path fill="#F4F4F4" d="M422.216,526.567c0,0,9.252-25.706,60.059-6.2c50.804,19.503,54.755,25.16,54.755,25.16l-19.001,47.019
				l-16.21-3.987l-43.372-17.527C458.444,571.03,414.005,551.298,422.216,526.567z"/>
			<path fill="#E8E8E8" d="M422.026,526.14c-8.275,19.411,14.229,35.711,37.214,46.827l39.395,15.167l28.644,10.434l9.673-13.777
				l-1.926-3.63l6.652-16.249c0,0,3.284-1.07,3.482-1.562c1.115-2.762,2.691-16.258,2.691-16.258s-19.005-8.182-27.553-11.873
				c-0.29-0.125-38.438-16.833-38.93-17.014C457.459,509.512,431.026,505.034,422.026,526.14z M519.11,535.769
				c0.678,0.157,25.766,13.318,25.766,13.318s-2.225,10.923-3.279,13.532c-0.188,0.462-3.315,1.46-3.315,1.46l-6.28,15.343
				l1.854,3.44l-7.724,12.618l-27.654-8.552c-23.345-9.054-23.487-9.64-38.578-15.589c-22.318-11.1-43.952-28.031-36.588-44.981
				c7.319-16.846,33.969-14.102,57.357-6.414C481.544,520.312,518.641,535.804,519.11,535.769z"/>
			<path fill="#FFFFFF" d="M468.609,544.722l-0.233-0.105l-1.988,8.266l1.976,4.5c0.561,2.284,6.847,5.216,6.847,5.216l11.917,4.815
				l3.1-0.183l1.999-9.324l-3.633-5.17l-4.104-1.597L468.609,544.722z"/>
			<path fill="#FFFFFF" d="M468.545,544.881l-0.169-0.265l4.132-6.876l4.521-1.807c1.988-1.251,8.525,1.065,8.525,1.065
				l11.918,4.816l2.148,2.166l-5.016,8.034l-6.16,1.086l-4.023-1.798L468.545,544.881z"/>
			<path fill="#C6C6C6" d="M493.954,541.745c-0.378-0.126-7.203,1.14-7.203,1.14l-6.512,15.641l4.008,6.204l0.785,0.316l0.392,0.158
				l0.393,0.158l4.45,1.797l9.348-23.13C499.614,544.03,494.334,541.869,493.954,541.745z"/>
			<path fill="#394963" d="M566.559,574.707c1.158,0.476,1.713,1.799,1.238,2.958l-5.009,12.208
				c-0.476,1.156-1.804,1.711-2.962,1.237l-18.751-7.697c-1.16-0.476-1.716-1.8-1.238-2.958l5.011-12.207
				c0.473-1.159,1.797-1.714,2.956-1.237L566.559,574.707z"/>
			<path fill="#29ABE2" d="M482.297,539.846l-3.204,7.928l-1.222,3.025l-2.887,7.143c0,0,2.272,3.581,10.04,7.157
				c0.048,0.021,0.25-0.373,0.25-0.373c-1.043-1.632-4.037-5.55-4.037-5.55l3.013-7.558l3.412-8.309c0,0,4.89-0.729,6.775-1.18
				c0,0,0.102-0.437,0.055-0.457C486.415,538.849,482.297,539.846,482.297,539.846z"/>
			<g id="Timó_2_">
				<path d="M489.605,563.434c3.188,1.287,7.664-9.124,4.215-10.518C490.794,551.691,486.262,562.084,489.605,563.434z
					 M489.939,562.505c-2.278-0.919,1.423-9.519,3.486-8.685C495.776,554.77,492.111,563.383,489.939,562.505z"/>
				<path d="M489.417,558.778c0,0,1.003,0.377,1.47-0.816c0.469-1.194-0.48-1.392-0.555-1.451
					C490.257,556.451,489.417,558.778,489.417,558.778z"/>
				<polygon points="490.781,558.36 493.272,559.724 493.907,558.155 491.123,557.516 				"/>
				<path d="M490.479,556.998c0.01-0.024,3.218-3.165,3.218-3.165l-0.922-0.541l-2.715,3.397L490.479,556.998z"/>
				<path d="M489.834,558.592c-0.01,0.022,0.071,4.622,0.071,4.622l-0.981-0.396l0.35-4.184L489.834,558.592z"/>
			</g>
			<g id="Tapiceria_2_">
				<path fill="#E8CDA0" d="M480.667,519.942c0,0-5.095,12.888-19.876,10.224c-14.784-2.666-34.188-8.569-34.663-8.53
					C425.658,521.675,438.135,504.354,480.667,519.942z"/>
				<path fill="#E8CDA0" d="M459.896,571.338c0,0,5.29-12.81-7.194-21.164c-12.481-8.353-30.542-17.592-30.856-17.946
					C421.535,531.876,418.474,553.002,459.896,571.338z"/>
				<path fill="#E8CDA0" d="M513.747,591.958c0,0-3.543-0.34-1.187-2.992c7.75-8.73,18.244-32.446,17.995-45.092
					c-0.052-2.654,0.505-2.389,2-1.705c1.122,0.515,12.32,6.918,12.32,6.918s-0.39,21.294-18.746,46.394L513.747,591.958z"/>
				<path fill="#E8CDA0" d="M514.541,549.598c0.652,0.264,0.642,1.065,0.274,1.975l-8.36,20.692
					c-0.368,0.907-1.033,1.782-1.687,1.519l-6.905-2.791c-0.652-0.265-0.929-1.52-0.562-2.426l8.363-20.695
					c0.367-0.908,1.32-1.329,1.975-1.065L514.541,549.598z"/>
			</g>
		</g>
		<g>
			<path fill="#996234" d="M493.402,564.079c0,0-0.937-1.681,1.484-1.31c2.424,0.375,5.049,0.253,5.049,0.253
				s0.271-2.658-0.248-3.244c-0.52-0.59-3.595-1.517-3.508-3.88c0.091-2.362-0.001-3.485,2.761-1.346
				c2.763,2.14,4.834,3.352,4.834,3.352l-1.56,9.353l-8.319-2.981"/>
			<path fill="#EF45B7" d="M501.271,565.998c0,0-5.903,1.251-5.06-0.349c0.846-1.599,1.774-0.215,2.742-2.29
				c0.967-2.075-0.788-2.446,1.154-4.688c1.941-2.24,1.548-3.526,2.786-2.519c1.239,1.009,1.809,1.354,1.809,1.354L501.271,565.998z
				"/>
			<path fill="#996234" d="M500.727,568.672c0,0-3.753-1.352-4.751-1.639c-1.863-0.534-4.956-3.557-5.635-3.831
				c-0.679-0.275-1.346-0.669,0.021-1.16c1.369-0.49,4.388,1.758,5.92,2.821c1.537,1.062,4.035,0.801,4.596,0.976
				c0.56,0.179-0.678,0.985-0.678,0.985L500.727,568.672z"/>
			<path fill="#996234" d="M505.658,557.151c0,0-3.464-2.749-4.38-3.235c-1.711-0.91-6.037-0.887-6.717-1.161
				c-0.679-0.271-1.429-0.457-0.789,0.85c0.644,1.304,4.372,1.787,6.219,2.087c1.843,0.301,2.985,2.904,3.51,3.165
				c0.527,0.26,0.673-1.858,0.673-1.858L505.658,557.151z"/>
			<path fill="#8BC7E8" d="M500.065,570.31c0,0,4.856,1.158,6.929-1.301c2.074-2.458,2.789-3.308,2.717-6.296
				c-0.075-2.99,1.077-4.094-1.296-4.828c-2.372-0.733-2.94-2.753-4.19-0.694c-1.347,2.219-4.361,8.425-4.592,8.844
				C498.22,568.61,500.065,570.31,500.065,570.31z"/>
			<path fill="#301705" d="M508.36,565.628c0,0-1.294,2.469-3.259,1.226c-1.963-1.241-3.195-0.427-3.124-2.511
				c0.069-2.085-1.338-3.703,0.759-3.789c2.094-0.086,3.268-0.284,4.278,0.799c1.013,1.081,1.366,1.083,1.855,2.137
				C509.363,564.54,508.36,565.628,508.36,565.628z"/>
		</g>
	</g>
</g>
<g>
	<g>
		
			<line fill="none" stroke="#FFFFFF" stroke-width="3" stroke-miterlimit="10" x1="-135.046" y1="576.92" x2="-129.326" y2="575.111"/>
		
			<line fill="none" stroke="#FFFFFF" stroke-width="3" stroke-miterlimit="10" stroke-dasharray="12.0302,12.0302" x1="-117.855" y1="571.484" x2="839.925" y2="268.642"/>
		
			<line fill="none" stroke="#FFFFFF" stroke-width="3" stroke-miterlimit="10" x1="845.66" y1="266.828" x2="851.381" y2="265.019"/>
	</g>
</g>
</svg>
