<?xml version="1.0" encoding="utf-8"?>
<!-- Generator: Adobe Illustrator 16.0.0, SVG Export Plug-In . SVG Version: 6.00 Build 0)  -->
<!DOCTYPE svg PUBLIC "-//W3C//DTD SVG 1.1//EN" "http://www.w3.org/Graphics/SVG/1.1/DTD/svg11.dtd">
<svg version="1.1" id="Capa_1" xmlns="http://www.w3.org/2000/svg" xmlns:xlink="http://www.w3.org/1999/xlink" x="0px" y="0px"
	 width="800px" height="800px" viewBox="0 0 800 800" enable-background="new 0 0 800 800" xml:space="preserve">
<g id="Anclar_copia" display="none">
	<g id="Costa_1_" display="inline">
		<g id="fons_1_">
			<path fill="#EFDE95" d="M116.121,930.055c14.936-10.494,719.661-94.479,844.747-182.367L769.762-109.891L-80.462,81.339
				L116.121,930.055z"/>
			<g>
				
					<radialGradient id="SVGID_1_" cx="-304.5806" cy="916.3887" r="1003.6508" gradientTransform="matrix(0.8182 -0.5749 0.5749 0.8182 197.739 194.3086)" gradientUnits="userSpaceOnUse">
					<stop  offset="0" style="stop-color:#42C9CC"/>
					<stop  offset="0.646" style="stop-color:#42C9CC"/>
					<stop  offset="0.7523" style="stop-color:#42C9CC"/>
					<stop  offset="0.9693" style="stop-color:#42C9CC;stop-opacity:0.3868"/>
					<stop  offset="1" style="stop-color:#42C9CC;stop-opacity:0.3"/>
				</radialGradient>
				
					<radialGradient id="SVGID_2_" cx="230.4463" cy="450.2568" r="409.5911" gradientTransform="matrix(0.9572 -0.2896 0.2896 0.9572 97.9778 126.3779)" gradientUnits="userSpaceOnUse">
					<stop  offset="0" style="stop-color:#42C9CC"/>
					<stop  offset="0.646" style="stop-color:#42C9CC"/>
					<stop  offset="0.7523" style="stop-color:#42C9CC"/>
					<stop  offset="0.9693" style="stop-color:#42C9CC;stop-opacity:0.3868"/>
					<stop  offset="1" style="stop-color:#42C9CC;stop-opacity:0.3"/>
				</radialGradient>
				<path fill="url(#SVGID_1_)" stroke="url(#SVGID_2_)" stroke-miterlimit="10" d="M787.08,126.314
					c-3.955-4.572-8.896-6.309-11.289-7.6s-11.517-1.576-14.113-4.212c-2.597-2.638-9.901-10.495-11.492-10.321
					c-1.586,0.174-2.342-3.015-8.863-0.66c-6.526,2.355-10.912,2.462-14.154,1.022s0.848,0.147-3.242-1.44
					c-4.091-1.588-9.553-3.012-14.773-3.035c-5.221-0.021-5.647-0.628-10.146,0.381c-4.494,1.01-7.713-0.394-11.438-0.406
					c-3.727-0.01-6.53-1.887-8.746-3.984c-2.218-2.096,0.234-3.896-5.425-1.369s-5.188,9.553-10.953,7.695
					c-5.768-1.857-8.868-0.978-12.651-2.131c-3.785-1.153-11.774-3-11.774-3s-3.822,1.967-7.065,0.527
					c-3.241-1.44-8.232-5.369-8.232-5.369s-1.693-0.296-3.89-0.243c-2.191,0.052-6.982-2.531-10.521-2.274
					c-3.537,0.255-10.669-1.428-13.856-0.674c-3.189,0.754-27.717-1.344-36.085,1.561c-8.37,2.905-16.35,1.075-26.817,0.994
					c-10.467-0.082-1.331,7.628-20.975,5.071c-19.646-2.558-32.698,2.925-32.698,2.925s-36.818,5.762-39.982,7.243
					c-3.166,1.48-16.271,3.996-16.271,3.996s-11.062,3.309-21.273,6.767s-20.787-1.01-28.458,2.891
					c-7.669,3.902-10.145,4.153-19.711,10.875c-9.564,6.722-2.192,4.516-13.354,7.153c-11.161,2.636-15.197,3.241-19.382,4.694
					c-4.187,1.453-5.68,2.502-7.872,2.556c-2.193,0.054-7.723,1.708-10.562,2.96c-2.84,1.25-9.81,6.148-14.397,4.909
					c-4.588-1.237-0.457-4.884-8.274-0.135c-7.817,4.75-9.273,8.002-14.997,8.307c-5.724,0.304-5.855-0.349-12.442,0.562
					c-6.589,0.912-20.338,0.495-20.913,3.334c-0.572,2.837-11.928,7.842-15.763,9.793c-3.835,1.95-14.492,7.951-17.977,10.399
					c-3.485,2.449-17.923,12.593-20.964,12.499c-3.041-0.095-5.382,0.806-8.772,0.214c-3.391-0.591-11.46,2.846-11.46,2.846
					l-5.453,3.088l-31.994,18.018c0,0,2.141-2.248-10.112,3.388c-12.254,5.635-15.233,6.985-15.233,6.985l-12.517,7.307
					c0,0-4.771,2.229-7.672,3.899c-5.957,3.428-4.045-1.197-13.057,7.183c-10.405,9.677-14.866,10.208-20.544,12.71
					c-5.679,2.502-8.369,2.905-9.862,3.955c-1.494,1.049-13.825,6.558-15.434,10.844c-1.608,4.286-15.844,8.53-15.844,8.53
					l-13.985,11.989L116.638,908.76l822.125-172.881L796.699,123.601C792.606,129.465,790.104,129.805,787.08,126.314z"/>
				
					<radialGradient id="SVGID_3_" cx="-302.4917" cy="917.334" r="1003.6503" gradientTransform="matrix(0.8182 -0.5749 0.5749 0.8182 197.739 194.3086)" gradientUnits="userSpaceOnUse">
					<stop  offset="0" style="stop-color:#42C9CC"/>
					<stop  offset="0.646" style="stop-color:#42C9CC"/>
					<stop  offset="0.7523" style="stop-color:#42C9CC"/>
					<stop  offset="0.9693" style="stop-color:#42C9CC;stop-opacity:0.3868"/>
					<stop  offset="1" style="stop-color:#42C9CC;stop-opacity:0.3"/>
				</radialGradient>
				
					<radialGradient id="SVGID_4_" cx="232.7256" cy="450.5" r="409.5902" gradientTransform="matrix(0.9572 -0.2896 0.2896 0.9572 97.9778 126.3779)" gradientUnits="userSpaceOnUse">
					<stop  offset="0" style="stop-color:#42C9CC"/>
					<stop  offset="0.646" style="stop-color:#42C9CC"/>
					<stop  offset="0.7523" style="stop-color:#42C9CC"/>
					<stop  offset="0.9693" style="stop-color:#42C9CC;stop-opacity:0.3868"/>
					<stop  offset="1" style="stop-color:#42C9CC;stop-opacity:0.3"/>
				</radialGradient>
				<path fill="url(#SVGID_3_)" stroke="url(#SVGID_4_)" stroke-miterlimit="10" d="M789.331,125.885
					c-3.957-4.572-8.896-6.309-11.29-7.6c-2.395-1.292-11.516-1.577-14.114-4.213c-2.596-2.638-9.9-10.495-11.492-10.321
					c-1.584,0.175-2.34-3.015-8.862-0.66c-6.525,2.355-10.912,2.462-14.154,1.022c-3.242-1.44,0.847,0.146-3.242-1.44
					c-4.09-1.587-9.554-3.012-14.773-3.034c-5.221-0.022-5.648-0.628-10.146,0.381c-4.494,1.01-7.713-0.394-11.438-0.406
					c-3.728-0.011-6.529-1.887-8.747-3.983c-2.219-2.096,0.235-3.896-5.422-1.369c-5.66,2.528-5.188,9.553-10.955,7.696
					c-5.768-1.858-8.868-0.979-12.651-2.132c-3.785-1.153-11.775-3-11.775-3s-3.822,1.967-7.062,0.527
					c-3.244-1.44-8.234-5.369-8.234-5.369s-1.694-0.296-3.89-0.242c-2.191,0.052-6.982-2.531-10.521-2.275
					c-3.537,0.255-10.67-1.427-13.856-0.673c-3.188,0.754-27.719-1.345-36.085,1.56c-8.37,2.905-16.351,1.075-26.815,0.994
					c-10.469-0.081-1.333,7.629-20.977,5.071c-19.646-2.558-32.696,2.925-32.696,2.925s-36.818,5.763-39.984,7.242
					c-3.166,1.481-16.271,3.996-16.271,3.996s-11.061,3.31-21.271,6.768c-10.213,3.458-20.787-1.01-28.457,2.892
					c-7.67,3.902-10.145,4.152-19.712,10.875c-9.565,6.721-2.192,4.516-13.354,7.153c-11.161,2.636-15.197,3.241-19.382,4.694
					c-4.187,1.453-5.68,2.502-7.872,2.556c-2.193,0.054-7.725,1.708-10.562,2.96c-2.839,1.25-9.81,6.147-14.397,4.909
					c-4.588-1.237-0.457-4.884-8.274-0.134c-7.817,4.75-9.273,8.002-14.997,8.307c-5.724,0.304-5.855-0.349-12.442,0.562
					c-6.588,0.912-20.337,0.496-20.912,3.334c-0.573,2.837-11.928,7.842-15.764,9.793c-3.834,1.95-14.491,7.951-17.976,10.399
					c-3.485,2.448-17.923,12.593-20.964,12.499c-3.041-0.094-5.381,0.807-8.772,0.215c-3.391-0.591-11.459,2.846-11.459,2.846
					l-5.453,3.087l-31.994,18.018c0,0,2.14-2.248-10.112,3.388c-12.253,5.635-15.233,6.985-15.233,6.985l-12.517,7.307
					c0,0-4.771,2.229-7.672,3.899c-5.957,3.429-4.044-1.197-13.056,7.184c-10.405,9.677-14.866,10.208-20.544,12.71
					c-5.679,2.502-8.369,2.905-9.862,3.955c-1.493,1.05-13.825,6.558-15.434,10.843c-1.608,4.286-15.844,8.531-15.844,8.531
					l-13.985,11.989L118.889,908.33l822.124-172.88L798.949,123.171C794.857,129.037,792.354,129.375,789.331,125.885z"/>
				
					<radialGradient id="SVGID_5_" cx="253" cy="136.8359" r="299.2014" gradientTransform="matrix(0.9572 -0.2896 0.2896 0.9572 97.9778 126.3779)" gradientUnits="userSpaceOnUse">
					<stop  offset="0" style="stop-color:#42C9CC"/>
					<stop  offset="0.646" style="stop-color:#42C9CC"/>
					<stop  offset="0.7523" style="stop-color:#42C9CC"/>
					<stop  offset="0.9693" style="stop-color:#42C9CC;stop-opacity:0.3868"/>
					<stop  offset="1" style="stop-color:#42C9CC;stop-opacity:0.3"/>
				</radialGradient>
				<path fill="#FFFFFF" stroke="url(#SVGID_5_)" stroke-miterlimit="10" d="M782.227,111.309c-4.296-0.699-8.326-2.328-13.124-3.86
					c-4.796-1.533-12.364-6.487-17.61-9.192c-5.248-2.705-7.367,1.157-20.324,0.705c-12.959-0.45-20.801-6.317-29.982-5.626
					c-9.181,0.691-18.389-2.887-21.133-4.676c-2.745-1.79-22.02-5.291-34.498-2.533c-12.479,2.76-6.378,1.507-14.209-1.17
					c-5.755-1.97-17.248-1.267-23.479-0.606c-6.229,0.659-15.499,1.222-20.438-0.512c-4.938-1.735-19.238,0.133-30.004,1.747
					c-10.764,1.614-11.812,0.12-22.228,2.233c-10.415,2.111-18.54,1.128-18.54,1.128s-12.071-3.418-24.328-0.755
					c-12.259,2.664-27.798,9.121-30.07,9.974c-2.271,0.852-12.899,5.883-22.14,3.657c-9.237-2.226-17.182,7.701-22.147,8.812
					c-4.967,1.112-20.107,0.799-20.107,0.799s-22.324,5.274-29.656,3.307c-7.334-1.969-19.427,14.075-20.483,14.391
					c-1.056,0.317-11.742-0.988-11.742-0.988s-10.615,0.767-15.648,2.07c-5.033,1.303-17.275,13.212-20.26,14.234
					c-2.985,1.023-10.964,3.827-16.477,1.214c-5.514-2.614-8.326,7.602-13.582,9.542c-5.257,1.939-11.844,0.84-14.762,0.66
					c-2.918-0.18-13.875,3.8-19.139,3.781c-5.266-0.018-13.559,10.271-16.522,11.608c-2.962,1.336-8.098,1.971-11.045,0.952
					c-2.947-1.021-8.463,5.946-8.463,5.946s-14.772,3.803-21.958,11.083c-7.188,7.28-8.167,4.251-14.842,7.453
					c-6.261,3.004-15.392,5.609-17.611,4.938c-2.219-0.672-20.743,10.359-20.743,10.359l-14.306,9.242
					c0,0-13.689,11.444-16.05,11.276c-2.359-0.167-8.093,5.687-8.093,5.687s-6.122-1.828-8.648-2.282
					c-2.528-0.455-8.183,4.262-13.099,3.52c-4.915-0.743-4.551,3.675-4.551,3.675l-2.967,3.572c0,0-3.23,5.987-10.915,7.75
					c-7.685,1.764-3.889,4.135-7.04,4.943c-3.15,0.81-9.324,2.608-9.324,2.608s-6.562,5.484-10.693,9.131
					c-4.131,3.646-2.351,6.45-7.482,5.241c-5.13-1.209-3.272-1.451-6.959-0.348c-3.686,1.104-2.991,4.271-11.757,8.2L-22,294.424
					l6.659,9.476l13.986-11.989c0,0,14.236-4.244,15.843-8.529c1.608-4.285,13.94-9.795,15.434-10.844
					c1.494-1.049,4.185-1.452,9.862-3.955c5.679-2.502,10.139-3.033,20.543-12.709c9.013-8.38,7.099-3.754,13.057-7.184
					c2.902-1.67,7.672-3.899,7.672-3.899l12.518-7.308c0,0,2.979-1.35,15.233-6.986c12.254-5.636,10.112-3.387,10.112-3.387
					l31.995-18.018l5.452-3.088c0,0,8.07-3.438,11.461-2.846c3.391,0.592,5.731-0.31,8.772-0.215
					c3.042,0.095,17.479-10.05,20.964-12.499c3.485-2.448,14.141-8.448,17.977-10.399c3.836-1.951,15.191-6.956,15.765-9.793
					c0.574-2.838,14.321-2.422,20.911-3.333c6.587-0.91,6.718-0.259,12.442-0.562c5.723-0.304,7.179-3.557,14.997-8.306
					c7.818-4.749,3.686-1.103,8.274,0.135c4.588,1.238,11.558-3.659,14.397-4.91c2.839-1.25,8.368-2.905,10.562-2.959
					c2.193-0.054,3.688-1.103,7.872-2.555c4.188-1.453,8.223-2.059,19.382-4.695c11.161-2.636,3.788-0.431,13.355-7.153
					c9.568-6.723,12.042-6.974,19.712-10.875c7.669-3.902,18.245,0.565,28.456-2.892c10.214-3.458,21.272-6.767,21.272-6.767
					s13.104-2.515,16.271-3.996c3.167-1.479,39.983-7.242,39.983-7.242s13.052-5.482,32.694-2.925
					c19.646,2.557,10.509-5.153,20.979-5.071c10.468,0.081,18.444,1.911,26.814-0.994c8.369-2.905,32.896-0.805,36.086-1.559
					c3.188-0.753,10.319,0.929,13.858,0.673c3.539-0.255,8.329,2.328,10.521,2.275c2.193-0.053,3.892,0.242,3.892,0.242
					s4.991,3.93,8.23,5.37c3.243,1.438,7.067-0.529,7.067-0.529s7.99,1.849,11.774,3.001c3.782,1.153,6.887,0.275,12.649,2.132
					c5.771,1.858,5.294-5.167,10.953-7.696c5.661-2.528,3.207-0.727,5.426,1.37c2.216,2.096,5.021,3.973,8.747,3.984
					c3.727,0.011,6.942,1.416,11.438,0.404c4.495-1.01,4.923-0.401,10.144-0.38c5.223,0.021,10.686,1.446,14.774,3.034
					c4.091,1.587,0,0,3.241,1.439s7.629,1.333,14.152-1.022c6.526-2.354,7.28,0.835,8.866,0.661
					c1.588-0.176,8.896,7.684,11.491,10.32c2.598,2.637,11.719,2.921,14.115,4.213c2.396,1.292,7.332,3.027,11.288,7.601
					c3.021,3.49,5.523,3.151,9.618-2.713l-11.647-16.58C784.545,111.422,783.047,111.442,782.227,111.309z"/>
			</g>
			<path id="spuma_1_" opacity="0.8" fill="#FFFFFF" enable-background="new    " d="M-6.96,284.2
				c8.767-3.929,8.072-7.097,11.757-8.2c3.687-1.104,1.829-0.861,6.96,0.347c5.131,1.209,3.35-1.596,7.482-5.241
				c4.13-3.646,10.691-9.131,10.691-9.131s6.175-1.799,9.326-2.608c3.149-0.809-0.646-3.18,7.039-4.943
				c7.685-1.763,10.915-7.75,10.915-7.75l2.967-3.573c0,0-0.365-4.417,4.551-3.674c4.916,0.742,10.571-3.975,13.099-3.52
				c2.527,0.456,8.648,2.283,8.648,2.283s5.734-5.855,8.094-5.688c2.359,0.168,16.049-11.275,16.049-11.275l14.307-9.241
				c0,0,18.523-11.031,20.742-10.359c2.219,0.672,11.351-1.934,17.612-4.938c6.673-3.202,7.653-0.173,14.841-7.452
				c7.188-7.28,21.958-11.083,21.958-11.083s5.516-6.966,8.463-5.946c2.947,1.02,8.083,0.386,11.045-0.952
				c2.961-1.338,11.257-11.626,16.521-11.608c5.265,0.02,16.222-3.96,19.14-3.78c2.918,0.18,9.507,1.279,14.762-0.66
				c5.256-1.938,8.067-12.155,13.581-9.542c5.514,2.613,13.492-0.19,16.477-1.213c2.986-1.022,15.228-12.932,20.261-14.235
				c5.033-1.303,15.647-2.07,15.647-2.07s10.688,1.305,11.743,0.989c1.056-0.315,13.149-16.36,20.483-14.391
				c7.332,1.968,29.651-3.304,29.651-3.304s15.145,0.313,20.111-0.801c4.968-1.114,12.907-11.038,22.146-8.812
				c9.234,2.225,19.869-2.806,22.142-3.659c2.271-0.851,17.812-7.309,30.067-9.973c12.259-2.664,24.328,0.754,24.328,0.754
				s8.125,0.983,18.541-1.128c10.416-2.112,11.464-0.617,22.228-2.232c10.764-1.614,25.066-3.483,30.004-1.748
				c4.939,1.735,14.209,1.171,20.439,0.512c6.229-0.659,17.724-1.362,23.478,0.606c7.831,2.678,1.73,3.931,14.209,1.171
				c12.479-2.759,31.753,0.743,34.499,2.532c2.743,1.789,11.949,5.366,21.131,4.675c9.186-0.691,17.023,5.176,29.981,5.627
				c12.96,0.451,15.08-3.414,20.328-0.709c5.246,2.705,12.814,7.66,17.61,9.192c4.798,1.532,8.828,3.162,13.124,3.86
				c4.299,0.699,27.032-2.803,20.115,9.578c-6.916,12.382-9.98,14.367-13.939,9.795c-3.953-4.572-8.895-6.309-11.287-7.6
				c-2.396-1.291-11.519-1.576-14.114-4.212c-2.597-2.638-9.903-10.496-11.492-10.321c-1.587,0.175-2.342-3.015-8.865-0.66
				c-6.524,2.354-10.909,2.461-14.152,1.021c-3.242-1.439,0.848,0.148-3.242-1.439c-4.091-1.588-9.553-3.013-14.774-3.035
				c-5.22-0.021-5.646-0.628-10.145,0.381c-4.494,1.01-7.713-0.394-11.439-0.405c-3.725-0.011-6.527-1.887-8.746-3.984
				c-2.217-2.096,0.236-3.896-5.424-1.369s-5.187,9.554-10.954,7.696c-5.767-1.857-8.866-0.979-12.648-2.132
				c-3.786-1.153-11.775-3-11.775-3s-3.823,1.967-7.064,0.527c-3.242-1.439-8.232-5.369-8.232-5.369s-1.696-0.296-3.891-0.242
				c-2.192,0.052-6.982-2.531-10.521-2.275c-3.539,0.256-10.669-1.427-13.854-0.673c-3.191,0.754-27.721-1.346-36.089,1.56
				c-8.368,2.906-16.349,1.075-26.814,0.994c-10.468-0.081-1.333,7.628-20.978,5.071c-19.646-2.558-32.695,2.925-32.695,2.925
				s-36.819,5.762-39.984,7.242s-16.271,3.996-16.271,3.996s-11.062,3.309-21.272,6.767s-20.788-1.01-28.458,2.892
				c-7.669,3.901-10.144,4.152-19.711,10.875c-9.566,6.722-2.194,4.517-13.354,7.153c-11.161,2.637-15.197,3.241-19.384,4.695
				c-4.185,1.453-5.679,2.501-7.871,2.555c-2.192,0.054-7.724,1.709-10.562,2.96c-2.839,1.25-9.81,6.148-14.397,4.91
				c-4.588-1.238-0.457-4.885-8.274-0.135c-7.816,4.75-9.273,8.002-14.997,8.307c-5.724,0.304-5.854-0.349-12.441,0.562
				c-6.589,0.912-20.338,0.495-20.913,3.334c-0.573,2.837-11.929,7.842-15.764,9.792c-3.835,1.95-14.492,7.951-17.977,10.4
				c-3.485,2.45-17.923,12.593-20.964,12.499c-3.041-0.094-5.382,0.807-8.773,0.215c-3.391-0.591-11.459,2.846-11.459,2.846
				l-5.453,3.087l-31.994,18.018c0,0,2.141-2.248-10.113,3.387c-12.253,5.636-15.232,6.985-15.232,6.985L81.06,244.79
				c0,0-4.771,2.229-7.671,3.899c-5.958,3.428-4.045-1.197-13.057,7.183c-10.406,9.677-14.866,10.208-20.545,12.71
				c-5.678,2.503-8.369,2.906-9.862,3.955c-1.494,1.049-13.825,6.558-15.434,10.844c-1.607,4.286-15.843,8.529-15.843,8.529
				l-6.042,4.245l-5.772-8.213L-6.96,284.2z"/>
			<g id="Sombrilla_5_">
				<path fill="#E8628F" d="M580.876,11.641l1.941-11.369c-2.97-0.612-6.192-0.126-8.894,1.685l6.853,9.754L580.876,11.641z"/>
				<path fill="#FFFFFF" d="M590.086,5.105c-0.037-0.057-0.066-0.115-0.107-0.171c-1.777-2.533-4.385-4.131-7.193-4.711
					l-1.979,11.321L590.086,5.105z"/>
				<path fill="#F9F9F9" d="M580.776,11.71l-6.853-9.754c-0.073,0.048-0.146,0.087-0.217,0.137
					c-2.638,1.853-4.241,4.651-4.755,7.595l11.725,2.091L580.776,11.71z"/>
				<path fill="#E8628F" d="M580.806,11.543l-0.026,0.167l11.148,1.948c0.503-2.881-0.077-5.95-1.839-8.553L580.806,11.543z"/>
				<path fill="#E8628F" d="M568.919,9.639c-0.515,2.944,0.094,6.084,1.949,8.724c0.012,0.018,0.023,0.033,0.038,0.05l9.701-6.732
					L568.919,9.639z"/>
				<path fill="#FFFFFF" d="M580.776,11.711l6.562,9.337c2.52-1.851,4.089-4.524,4.589-7.391L580.776,11.711L580.776,11.711z"/>
				<path fill="#FFFFFF" d="M580.776,11.71l-0.168-0.029l-9.703,6.732c1.93,2.713,4.808,4.347,7.866,4.786L580.776,11.71
					L580.776,11.71z"/>
				<path fill="#E8628F" d="M578.771,23.198c2.841,0.407,5.834-0.214,8.365-1.994c0.069-0.049,0.131-0.106,0.2-0.156l-6.562-9.337
					L578.771,23.198z"/>
			</g>
			<g id="Sombrilla_4_">
				<path fill="#E8628F" d="M466.811,48.033l1.943-11.37c-2.97-0.612-6.194-0.126-8.896,1.686l6.854,9.753L466.811,48.033z"/>
				<path fill="#FFFFFF" d="M476.021,41.497c-0.038-0.057-0.068-0.115-0.106-0.171c-1.781-2.533-4.387-4.132-7.198-4.711
					l-1.976,11.32L476.021,41.497z"/>
				<path fill="#F9F9F9" d="M466.712,48.103l-6.854-9.753c-0.069,0.048-0.145,0.085-0.217,0.135
					c-2.638,1.854-4.239,4.652-4.754,7.596l11.726,2.091L466.712,48.103z"/>
				<path fill="#E8628F" d="M466.741,47.935l-0.029,0.167l11.15,1.948c0.505-2.882-0.076-5.95-1.838-8.553L466.741,47.935z"/>
				<path fill="#E8628F" d="M454.854,46.031c-0.513,2.944,0.096,6.085,1.949,8.724c0.013,0.018,0.027,0.033,0.037,0.049l9.703-6.731
					L454.854,46.031z"/>
				<path fill="#FFFFFF" d="M466.713,48.102l6.559,9.337c2.521-1.851,4.093-4.524,4.592-7.391L466.713,48.102L466.713,48.102z"/>
				<path fill="#FFFFFF" d="M466.712,48.103l-0.168-0.03l-9.703,6.731c1.929,2.714,4.809,4.349,7.865,4.786L466.712,48.103
					L466.712,48.103z"/>
				<path fill="#E8628F" d="M464.707,59.589c2.839,0.408,5.833-0.213,8.365-1.993c0.069-0.049,0.131-0.106,0.199-0.157l-6.561-9.337
					L464.707,59.589z"/>
			</g>
			<g id="Sombrilla_3_">
				<path fill="#E8628F" d="M644.003,35.242l1.942-11.37c-2.967-0.612-6.193-0.126-8.896,1.686l6.854,9.753L644.003,35.242z"/>
				<path fill="#FFFFFF" d="M653.214,28.707c-0.038-0.057-0.067-0.115-0.104-0.172c-1.781-2.532-4.388-4.13-7.197-4.711
					l-1.979,11.321L653.214,28.707z"/>
				<path fill="#F9F9F9" d="M643.905,35.311l-6.854-9.753c-0.068,0.047-0.146,0.086-0.216,0.135
					c-2.638,1.854-4.24,4.652-4.755,7.595l11.725,2.092L643.905,35.311z"/>
				<path fill="#E8628F" d="M643.934,35.144l-0.026,0.166l11.148,1.948c0.505-2.882-0.077-5.949-1.839-8.553L643.934,35.144z"/>
				<path fill="#E8628F" d="M632.047,33.24c-0.514,2.944,0.094,6.085,1.948,8.724c0.012,0.018,0.026,0.033,0.038,0.049l9.703-6.731
					L632.047,33.24z"/>
				<path fill="#FFFFFF" d="M643.905,35.312l6.56,9.337c2.52-1.851,4.091-4.525,4.59-7.391L643.905,35.312L643.905,35.312z"/>
				<path fill="#FFFFFF" d="M643.905,35.311l-0.169-0.029l-9.703,6.731c1.93,2.714,4.808,4.348,7.866,4.787L643.905,35.311
					L643.905,35.311z"/>
				<path fill="#E8628F" d="M641.899,46.799c2.839,0.407,5.833-0.214,8.364-1.995c0.069-0.049,0.13-0.105,0.199-0.156l-6.56-9.337
					L641.899,46.799z"/>
			</g>
		</g>
	</g>
	<g id="Ruta" display="inline">
		<g>
			<path fill="none" stroke="#1AB737" stroke-width="3" stroke-miterlimit="10" d="M355.609,261.571
				c-0.651-1.576-2.067-3.709-4.251-6.139"/>
			<path fill="none" stroke="#1AB737" stroke-width="3" stroke-miterlimit="10" stroke-dasharray="15.2128,15.2128" d="
				M339.8,245.599c-21.989-14.907-66.372-29.064-133.393-1.38C42.236,312.032,41.9,499.82,93.123,644.108"/>
			<path fill="none" stroke="#1AB737" stroke-width="3" stroke-miterlimit="10" d="M95.717,651.262
				c0.871,2.353,1.755,4.688,2.653,7.016"/>
		</g>
	</g>
	<g id="boat_2_" display="inline">
		<g>
			
				<linearGradient id="SVGID_6_" gradientUnits="userSpaceOnUse" x1="104.2803" y1="589.3516" x2="104.2803" y2="661.481" gradientTransform="matrix(0.9109 -0.4129 0.4129 0.9109 -220.8217 207.6452)">
				<stop  offset="0" style="stop-color:#FFFFFF;stop-opacity:0.8"/>
				<stop  offset="0.9306" style="stop-color:#FFFFFF;stop-opacity:0"/>
			</linearGradient>
			<path fill="url(#SVGID_6_)" d="M180.414,752.023c-3.707-5.864-10.377-9.946-13.847-14.825c-3.469-4.878-3.989-9.725-8.123-15.604
				c-4.131-5.879-10.218-7.754-13.483-11.72c-3.265-3.967-7.396-12.051-11.55-14.1c-4.155-2.053-18.275,5.867-18.275,5.867
				s-11.444,4.553-12.37,8.02c-1.195,4.477,2.158,12.896,2.992,17.969c0.832,5.071-1.777,10.869-0.078,17.854
				c1.7,6.981,5.015,10.6,6.399,16.425c1.383,5.823,0.058,13.531,2.025,20.181L180.414,752.023z"/>
			
				<linearGradient id="SVGID_7_" gradientUnits="userSpaceOnUse" x1="104.0879" y1="582.543" x2="104.0879" y2="659.1896" gradientTransform="matrix(0.9109 -0.4129 0.4129 0.9109 -220.8217 207.6452)">
				<stop  offset="0" style="stop-color:#FFFFFF;stop-opacity:0.8"/>
				<stop  offset="1" style="stop-color:#FFFFFF;stop-opacity:0"/>
			</linearGradient>
			<path opacity="0.8" fill="url(#SVGID_7_)" enable-background="new    " d="M170.104,754.183
				c-3.938-6.229-11.026-10.565-14.712-15.753c-3.687-5.184-4.24-10.333-8.631-16.58c-4.391-6.247-10.863-8.239-14.331-12.456
				c-3.47-4.215-7.858-12.805-12.273-14.982c-4.414-2.177-6.489,0.377-6.489,0.377s-2.56,0.479-3.544,4.165
				c-1.271,4.757,2.297,13.708,3.179,19.096c0.884,5.387-1.887,11.551-0.082,18.97c1.805,7.419,5.33,11.265,6.799,17.452
				c1.469,6.188,0.062,14.378,2.153,21.446L170.104,754.183z"/>
		</g>
		<g id="Capa_4_6_">
			<path fill="#D1D1D1" d="M113.862,730.429l28.832-13.226l-15.223-34.587c0,0-10.4-29.687-32.538-31.356
				c-12.772,17.217,2.073,44.469,2.073,44.469L113.862,730.429z"/>
			<path fill="#F4F4F4" d="M98.242,658.741c0,0,12.263-6.208,24.114,18.474c11.85,24.684,11.34,28.115,11.34,28.115l-23.189,10.638
				l-4.553-7.057l-9.812-21.395C96.14,687.519,86.697,664.952,98.242,658.741z"/>
			<path fill="#E8E8E8" d="M98.321,658.52c-9.732,4.242-7.129,17.979-2.559,29.982l9.173,19.153l6.878,13.711l8.297-1.7l0.547-1.993
				l8.047-3.646c0,0,1.57,0.742,1.813,0.633c1.361-0.626,6.601-5.02,6.601-5.02s-4.125-9.558-5.98-13.857
				c-0.063-0.147-8.249-19.438-8.367-19.67C117.027,664.673,108.903,653.905,98.321,658.52z M130.513,695.571
				c0.193,0.293,4.826,13.771,4.826,13.771s-4.586,3.229-5.873,3.817c-0.228,0.104-1.717-0.611-1.717-0.611l-7.598,3.444
				l-0.509,1.897l-7.185,1.948l-7.164-12.68c-5.415-11.376-5.264-11.641-8.729-19.027c-4.331-11.77-6.397-25.435,2.148-29.092
				c8.495-3.636,17.298,6.572,23.2,17.464C122.107,676.942,130.329,695.422,130.513,695.571z"/>
			<path fill="#FFFFFF" d="M108.945,681.405l-0.049-0.118l-3.582,2.337l-0.831,2.328c-0.584,1.028,0.703,4.271,0.703,4.271
				l2.697,5.877l1.196,1.004l3.951-2.722l0.458-3.145l-0.95-2.001L108.945,681.405z"/>
			<path fill="#FFFFFF" d="M108.866,681.441l0.03-0.154l3.884-1.09l2.281,0.9c1.159,0.229,2.75,3.334,2.75,3.334l2.695,5.877
				l0.038,1.534l-4.609,1.208l-2.627-1.729l-0.852-2.047L108.866,681.441z"/>
			<path fill="#C6C6C6" d="M119.245,689.069c-0.095-0.178-3.029-2.07-3.029-2.07l-7.785,3.473l-0.676,3.651l0.179,0.388l0.088,0.194
				l0.089,0.193l1.007,2.195l11.408-5.232C120.527,691.861,119.34,689.246,119.245,689.069z"/>
			<path fill="#394963" d="M134.422,726.203c0.261,0.575,0.006,1.251-0.569,1.511l-6.049,2.736c-0.574,0.26-1.25,0.003-1.51-0.57
				l-4.202-9.293c-0.26-0.574-0.006-1.251,0.568-1.511l6.05-2.735c0.573-0.261,1.25-0.004,1.509,0.569L134.422,726.203z"/>
			<path fill="#29ABE2" d="M115.636,684.35l-3.909,1.795l-1.494,0.685l-3.521,1.616c0,0-0.406,2.095,1.201,6.085
				c0.011,0.023,0.221-0.049,0.221-0.049c0.181-0.959,0.439-3.427,0.439-3.427l3.713-1.726l4.116-1.862c0,0,2.043,1.423,2.887,1.91
				c0,0,0.187-0.126,0.175-0.15C117.488,685.406,115.636,684.35,115.636,684.35z"/>
			<g id="Timó_6_">
				<path d="M110.164,695.503c0.721,1.572,5.957-0.69,5.173-2.393C114.653,691.616,109.406,693.854,110.164,695.503z
					 M110.606,695.278c-0.515-1.126,3.81-2.991,4.276-1.976C115.415,694.464,111.099,696.349,110.606,695.278z"/>
				<path d="M111.702,693.734c0,0,0.237,0.482,0.82,0.209c0.583-0.276,0.305-0.677,0.298-0.723
					C112.813,693.172,111.702,693.734,111.702,693.734z"/>
				<polygon points="112.346,694.053 112.787,695.412 113.56,695.056 112.762,693.861 				"/>
				<path d="M112.706,693.45c0.011-0.007,2.271-0.046,2.271-0.046l-0.149-0.519l-2.167,0.307L112.706,693.45z"/>
				<path d="M111.92,693.811c-0.012,0.009-1.57,1.718-1.57,1.718l-0.222-0.484l1.572-1.408L111.92,693.811z"/>
			</g>
			<g id="Tapiceria_6_">
				<path fill="#E8CDA0" d="M121.914,676.505c0,0-6.315,2.956-10.803-3.125c-4.488-6.081-9.547-14.939-9.735-15.091
					C101.192,658.14,111.738,656.111,121.914,676.505z"/>
				<path fill="#E8CDA0" d="M96.565,688.132c0,0,6.359-2.856,4.677-10.225c-1.679-7.366-5.097-16.982-5.091-17.225
					C96.161,660.448,87.744,667.119,96.565,688.132z"/>
				<path fill="#E8CDA0" d="M109.145,714.275c0,0-1.179-1.348,0.599-1.503c5.852-0.521,17.88-5.569,22.159-10.282
					c0.896-0.988,1.009-0.7,1.319,0.066c0.233,0.575,2.118,6.786,2.118,6.786s-7.495,7.655-22.879,10.498L109.145,714.275z"/>
				<path fill="#E8CDA0" d="M124.064,699.053c0.147,0.322-0.133,0.611-0.582,0.818l-10.206,4.682
					c-0.445,0.207-0.993,0.295-1.14-0.026l-1.562-3.403c-0.148-0.324,0.185-0.877,0.631-1.083l10.204-4.685
					c0.449-0.204,0.945-0.026,1.093,0.294L124.064,699.053z"/>
			</g>
		</g>
		<g>
			<path fill="#996234" d="M111.331,697.05c0,0,0.234-0.938,0.995,0.033c0.758,0.976,1.76,1.836,1.76,1.836s1.017-0.879,1.029-1.271
				c0.014-0.396-0.792-1.798,0.057-2.633c0.848-0.834,1.202-1.274,1.474,0.462c0.274,1.737,0.611,2.896,0.611,2.896l-3.801,2.883
				l-2.013-3.965"/>
			<path fill="#EF45B7" d="M113.546,700.471c0,0-2.594-1.582-1.731-1.876c0.859-0.294,0.722,0.534,1.793,0.108
				c1.07-0.424,0.557-1.166,2.041-1.316c1.484-0.146,1.785-0.753,1.89,0.042c0.104,0.797,0.195,1.118,0.195,1.118L113.546,700.471z"
				/>
			<path fill="#996234" d="M112.423,701.26c0,0-0.907-1.791-1.173-2.237c-0.497-0.843-0.585-3.017-0.738-3.351
				c-0.153-0.335-0.26-0.711,0.412-0.416c0.669,0.293,0.998,2.156,1.19,3.075c0.193,0.92,1.2,1.687,1.343,1.944
				c0.145,0.259-0.586,0.129-0.586,0.129L112.423,701.26z"/>
			<path fill="#996234" d="M118.205,698.747c0,0-0.317-2.201-0.484-2.696c-0.312-0.924-1.9-2.408-2.057-2.744
				c-0.153-0.333-0.365-0.657-0.58,0.04c-0.214,0.698,0.984,2.163,1.554,2.911c0.569,0.744,0.087,2.092,0.191,2.37
				c0.104,0.276,0.888-0.448,0.888-0.448L118.205,698.747z"/>
			<path fill="#8BC7E8" d="M111.616,701.63c0,0,1.375,2.103,2.983,1.917c1.607-0.184,2.163-0.247,3.169-1.364
				c1.005-1.12,1.81-1.126,1.193-2.215c-0.613-1.086-0.125-2.021-1.294-1.702c-1.259,0.35-4.504,1.576-4.734,1.65
				C111.527,700.371,111.616,701.63,111.616,701.63z"/>
			<path fill="#301705" d="M116.267,702.782c0,0-1.325,0.457-1.615-0.677s-1.021-1.262-0.277-2c0.747-0.736,0.791-1.814,1.586-1.122
				c0.795,0.689,1.295,1.023,1.291,1.77c-0.003,0.745,0.125,0.869-0.062,1.422C117.01,702.73,116.267,702.782,116.267,702.782z"/>
		</g>
	</g>
	<g id="Capa_4_5_" display="inline">
		<g>
			
				<circle fill="none" stroke="#FFFFFF" stroke-width="3" stroke-miterlimit="10" stroke-dasharray="14.7424,14.7424" cx="665.615" cy="335.922" r="107.927"/>
		</g>
		<line fill="none" stroke="#FFFFFF" stroke-width="2" stroke-miterlimit="10" x1="665.614" y1="335.923" x2="624.6" y2="236.092"/>
		<g>
			<path fill="#E5E5E5" d="M635.273,226.345l-24.03,9.48l10.876,28.868c0,0,7.158,24.633,25.089,26.971
				c11.149-13.44,0.261-36.307,0.261-36.307L635.273,226.345z"/>
			<path fill="#E2E2E2" d="M644.703,285.528c0,0-10.133,4.571-18.68-16.027c-8.548-20.597-7.865-23.304-7.865-23.304l19.329-7.627
				l3.003,5.879l7.037,17.83C647.526,262.277,654.366,280.986,644.703,285.528z"/>
			<path fill="#CECECE" d="M644.785,285.643c8.103-3.02,6.592-14.305,3.405-24.27l-6.616-15.982l-4.982-11.455l-6.824,1.014
				l-0.532,1.596l-6.705,2.611c0,0-1.246-0.675-1.445-0.596c-1.135,0.449-5.591,3.791-5.591,3.791s2.935,7.954,4.251,11.537
				c0.045,0.118,5.851,16.168,5.936,16.364C629.845,279.812,635.976,288.927,644.785,285.643z M620.24,254.085
				c-0.145-0.244-3.314-11.411-3.314-11.411s3.872-2.424,4.944-2.847c0.189-0.075,1.372,0.574,1.372,0.574l6.328-2.464l0.5-1.522
				l5.928-1.266l5.266,10.629c3.9,9.49,3.769,9.696,6.26,15.859c3.003,9.762,4.078,20.97-3.033,23.565
				c-7.069,2.579-13.777-6.111-18.098-15.228C626.256,269.609,620.384,254.218,620.24,254.085z"/>
			<path fill="#EFEFEF" d="M632.148,266.421l1.737,0.863l3.072-0.661l-0.004-0.009l0.255-0.099l0.042-0.017l0.411-0.164l0.005,0.011
				l2.619-1.587l0.769-1.852c0.521-0.812-0.395-3.501-0.395-3.501l-1.936-4.898l-0.979-0.849l-3.358,2.047l-0.462,2.37l-1.943-1.419
				l-3.816,0.782l-0.064,1.262l1.936,4.898C630.036,263.595,631.215,266.183,632.148,266.421z"/>
			<path fill="#C6C6C6" d="M629.159,259.979c0.067,0.145,2.352,1.764,2.352,1.764l6.438-2.496l0.668-2.951l-0.128-0.323
				l-0.064-0.163l-0.062-0.161l-0.641-1.617l-9.439,3.725C628.282,257.757,629.091,259.831,629.159,259.979z"/>
			<path fill="#29ABE2" d="M631.794,263.739l3.261-1.285l1.241-0.491l2.938-1.161c0,0,0.445-1.62-0.687-4.937
				c-0.007-0.019-0.169,0.065-0.169,0.065c-0.188,0.771-0.502,2.781-0.502,2.781l-3.09,1.249l-3.43,1.333c0,0-1.6-1.243-2.265-1.679
				c0,0-0.183,0.03-0.176,0.05C630.36,262.863,631.794,263.739,631.794,263.739z"/>
			<g id="Timó_5_">
				<path d="M636.788,255.042c-0.519-1.311-4.872,0.298-4.312,1.717C632.966,258.005,637.332,256.417,636.788,255.042z
					 M636.419,255.205c0.368,0.937-3.229,2.266-3.562,1.417C632.473,255.655,636.066,254.312,636.419,255.205z"/>
				<path d="M635.461,256.412c0,0-0.175-0.403-0.662-0.207c-0.483,0.198-0.273,0.536-0.271,0.575
					C634.53,256.82,635.461,256.412,635.461,256.412z"/>
				<polygon points="635.001,256.257 634.731,255.206 634.088,255.46 634.654,256.395 				"/>
				<path d="M634.631,256.599c-0.012,0.004-1.849-0.063-1.849-0.063l0.1,0.428l1.774-0.153L634.631,256.599z"/>
				<path d="M635.213,256.369c0.012-0.004,1.282-1.299,1.282-1.299l0.159,0.403l-1.307,1.063L635.213,256.369z"/>
			</g>
			<g id="Tapiceria_5_">
				<path fill="#E8CDA0" d="M626.393,269.975c0,0,5.27-2.127,8.647,3.016c3.381,5.144,7.104,12.578,7.25,12.705
					C642.434,285.825,633.767,287.009,626.393,269.975z"/>
				<path fill="#E8CDA0" d="M647.521,261.635c0,0-5.3,2.044-4.257,8.11c1.043,6.067,3.396,14.038,3.38,14.231
					C646.627,284.169,653.767,279.117,647.521,261.635z"/>
				<path fill="#E8CDA0" d="M638.446,239.819c0,0,0.899,1.147-0.554,1.199c-4.782,0.161-14.787,3.735-18.476,7.381
					c-0.773,0.764-0.852,0.525-1.07-0.113c-0.163-0.48-1.422-5.613-1.422-5.613s6.438-5.896,19.072-7.527L638.446,239.819z"/>
				<path fill="#E8CDA0" d="M625.327,251.663c-0.105-0.269,0.28-1.038,0.653-1.187l8.507-3.357c0.373-0.146,0.649,0.36,0.754,0.63
					l1.123,2.835c0.104,0.27,0.174,0.638-0.2,0.786l-8.507,3.356c-0.373,0.146-1.107,0.042-1.211-0.228L625.327,251.663z"/>
			</g>
			<path fill="#394963" d="M617.975,229.475c-0.199-0.485,0.033-1.042,0.521-1.241l5.124-2.105c0.487-0.199,1.043,0.033,1.243,0.521
				l3.229,7.872c0.2,0.485-0.032,1.043-0.52,1.242l-5.123,2.105c-0.486,0.2-1.041-0.034-1.24-0.52L617.975,229.475z"/>
		</g>
	</g>
	<g id="Capa_4_4_" display="inline">
		<g>
			
				<circle fill="none" stroke="#FFFFFF" stroke-width="3" stroke-miterlimit="10" stroke-dasharray="14.7424,14.7424" cx="292.193" cy="621.49" r="107.926"/>
		</g>
		
			<line fill="none" stroke="#FFFFFF" stroke-width="2" stroke-miterlimit="10" x1="292.194" y1="621.49" x2="249.483" y2="522.374"/>
		<g>
			<path fill="#E5E5E5" d="M259.988,512.445l-23.865,9.89l11.367,28.678c0,0,7.577,24.509,25.546,26.54
				c10.917-13.627-0.359-36.307-0.359-36.307L259.988,512.445z"/>
			<path fill="#E2E2E2" d="M270.427,571.461c0,0-10.053,4.742-18.951-15.706c-8.897-20.449-8.261-23.167-8.261-23.167l19.196-7.957
				l3.102,5.826l7.341,17.708C272.854,548.164,280.011,566.754,270.427,571.461z"/>
			<path fill="#CECECE" d="M270.51,571.574c8.05-3.159,6.349-14.416,2.991-24.326l-6.887-15.867l-5.178-11.367l-6.805,1.13
				l-0.507,1.606l-6.66,2.725c0,0-1.257-0.65-1.455-0.569c-1.128,0.468-5.524,3.884-5.524,3.884s3.068,7.904,4.446,11.464
				c0.047,0.118,6.125,16.066,6.212,16.262C255.473,565.998,261.757,575.008,270.51,571.574z M245.43,540.439
				c-0.145-0.243-3.507-11.354-3.507-11.354s3.831-2.488,4.895-2.93c0.19-0.078,1.38,0.55,1.38,0.55l6.287-2.571l0.473-1.53
				l5.906-1.366l5.448,10.537c4.061,9.424,3.93,9.633,6.527,15.752c3.169,9.71,4.436,20.896-2.633,23.611
				c-7.024,2.7-13.878-5.874-18.352-14.917C251.71,555.857,245.578,540.567,245.43,540.439z"/>
			<path fill="#EFEFEF" d="M257.547,552.568l1.754,0.835l3.06-0.714l-0.003-0.011l0.253-0.104l0.042-0.02l0.407-0.169l0.006,0.012
				l2.591-1.633l0.738-1.862c0.505-0.821-0.454-3.495-0.454-3.495l-2.018-4.865l-0.995-0.833l-3.323,2.105l-0.421,2.377
				l-1.969-1.389l-3.804,0.851l-0.04,1.261l2.016,4.867C255.387,549.782,256.61,552.348,257.547,552.568z"/>
			<path fill="#C6C6C6" d="M254.45,546.178c0.072,0.146,2.381,1.727,2.381,1.727l6.396-2.604l0.616-2.964l-0.134-0.321l-0.066-0.159
				l-0.066-0.159l-0.666-1.605l-9.377,3.886C253.534,543.973,254.377,546.032,254.45,546.178z"/>
			<path fill="#29ABE2" d="M257.147,549.895l3.236-1.34l1.235-0.514l2.915-1.21c0,0,0.422-1.627-0.766-4.925
				c-0.007-0.021-0.167,0.066-0.167,0.066c-0.176,0.773-0.455,2.789-0.455,2.789l-3.069,1.301l-3.406,1.394
				c0,0-1.618-1.216-2.291-1.641c0,0-0.181,0.032-0.174,0.053C255.698,549.043,257.147,549.895,257.147,549.895z"/>
			<g id="Timó_2_">
				<path d="M261.993,541.113c-0.54-1.304-4.868,0.382-4.284,1.79C258.221,544.14,262.56,542.479,261.993,541.113z M261.625,541.283
					c0.385,0.93-3.191,2.32-3.539,1.476C257.688,541.799,261.259,540.396,261.625,541.283z"/>
				<path d="M260.688,542.506c0,0-0.18-0.4-0.663-0.196c-0.482,0.208-0.267,0.541-0.263,0.581
					C259.765,542.93,260.688,542.506,260.688,542.506z"/>
				<polygon points="260.227,542.358 259.94,541.311 259.301,541.578 259.881,542.502 				"/>
				<path d="M259.862,542.706c-0.011,0.005-1.849-0.03-1.849-0.03l0.107,0.426l1.771-0.184L259.862,542.706z"/>
				<path d="M260.441,542.466c0.01-0.004,1.259-1.317,1.259-1.317l0.167,0.398l-1.287,1.085L260.441,542.466z"/>
			</g>
			<g id="Tapiceria_2_">
				<path fill="#E8CDA0" d="M251.854,556.221c0,0,5.23-2.216,8.697,2.87c3.469,5.083,7.319,12.452,7.465,12.578
					C268.163,571.797,259.517,573.128,251.854,556.221z"/>
				<path fill="#E8CDA0" d="M272.838,547.521c0,0-5.263,2.136-4.119,8.183c1.148,6.048,3.635,13.979,3.623,14.173
					C272.327,570.069,279.378,564.895,272.838,547.521z"/>
				<path fill="#E8CDA0" d="M263.392,525.864c0,0,0.921,1.131-0.532,1.207c-4.78,0.243-14.721,3.986-18.347,7.695
					c-0.76,0.776-0.844,0.537-1.072-0.096c-0.172-0.476-1.517-5.588-1.517-5.588s6.332-6.004,18.94-7.85L263.392,525.864z"/>
				<path fill="#E8CDA0" d="M250.476,537.932c-0.11-0.268,0.263-1.043,0.632-1.196l8.45-3.502c0.37-0.152,0.658,0.349,0.765,0.615
					l1.17,2.817c0.108,0.267,0.187,0.634-0.186,0.787l-8.448,3.502c-0.371,0.152-1.106,0.062-1.215-0.208L250.476,537.932z"/>
			</g>
			<path fill="#394963" d="M242.746,515.872c-0.209-0.482,0.015-1.044,0.498-1.25l5.086-2.193c0.483-0.208,1.044,0.018,1.252,0.499
				l3.366,7.815c0.208,0.481-0.015,1.044-0.5,1.251l-5.087,2.189c-0.481,0.209-1.043-0.015-1.25-0.496L242.746,515.872z"/>
		</g>
	</g>
	<path display="inline" opacity="0.7" fill="#1AB737" enable-background="new    " d="M461.521,270.276
		c-57.188-32.885-130.205-13.186-163.09,44.001c-32.885,57.186-13.186,130.205,44,163.088c57.188,32.885,130.205,13.188,163.091-44
		C538.405,376.182,518.708,303.162,461.521,270.276z M479.536,403.001c-0.086,0.073-5.352-2.002-7.91-2.965
		c-17.252,38.309-61.783,55.748-100.349,39.739c-1.379,3.046-4.128,8.937-4.259,8.943l-12.903-25.848l26.942-5.195
		c0,0-2.825,5.762-3.947,8.338c12.392,5.065,26.237,5.552,38.1,2.831l-37.018-89.617c-5.787-0.912-11.818-4.566-14.305-10.581
		c-3.718-8.999,0.719-19.369,9.714-23.085c8.999-3.717,19.041,0.673,22.76,9.672c2.51,6.075,1.042,12.878-3.349,17.971
		l37.124,89.874c11.441-6.354,21.233-16.14,26.948-28.411c-3.16-1.245-8.296-3.458-8.296-3.458l23.67-15.28L479.536,403.001z"/>
</g>
<g id="Anclar_copia_2">
	<g id="Costa_2_">
		<g id="fons_2_">
			<path fill="#EFDE95" d="M-51.861,843.545c15.787-5.209,869.72,46.525,1001.921,2.905L892.996-28.754L-27.038-17.069
				L-51.861,843.545z"/>
			<g>
				
					<radialGradient id="SVGID_8_" cx="-353.9766" cy="920.8262" r="1023.7185" gradientTransform="matrix(0.9496 -0.3133 0.3133 0.9496 263.336 102.8105)" gradientUnits="userSpaceOnUse">
					<stop  offset="0" style="stop-color:#42C9CC"/>
					<stop  offset="0.646" style="stop-color:#42C9CC"/>
					<stop  offset="0.7523" style="stop-color:#42C9CC"/>
					<stop  offset="0.9693" style="stop-color:#42C9CC;stop-opacity:0.3868"/>
					<stop  offset="1" style="stop-color:#42C9CC;stop-opacity:0.3"/>
				</radialGradient>
				
					<radialGradient id="SVGID_9_" cx="192.666" cy="438.3271" r="413.917" gradientTransform="matrix(1 0 0 1 188 9)" gradientUnits="userSpaceOnUse">
					<stop  offset="0" style="stop-color:#42C9CC"/>
					<stop  offset="0.646" style="stop-color:#42C9CC"/>
					<stop  offset="0.7523" style="stop-color:#42C9CC"/>
					<stop  offset="0.9693" style="stop-color:#42C9CC;stop-opacity:0.3868"/>
					<stop  offset="1" style="stop-color:#42C9CC;stop-opacity:0.3"/>
				</radialGradient>
				<path fill="url(#SVGID_8_)" stroke="url(#SVGID_9_)" stroke-miterlimit="10" d="M805.518,188.507
					c-2.572-5.771-6.985-9.001-8.988-11.018c-2.006-2.016-11.044-5.062-12.846-8.484c-1.799-3.423-6.729-13.495-8.368-13.8
					c-1.644-0.306-1.433-3.725-8.671-3.344c-7.237,0.381-11.659-0.838-14.468-3.26c-2.807-2.421,0.807,0.405-2.807-2.421
					c-3.612-2.826-8.645-5.904-13.86-7.506c-5.215-1.601-5.458-2.337-10.261-2.688c-4.801-0.35-7.595-2.728-11.319-3.867
					c-3.723-1.139-5.961-3.864-7.544-6.632c-1.582-2.767,1.416-3.825-5.011-3.011c-6.427,0.816-8.078,7.987-13.285,4.384
					s-8.575-3.663-12.01-5.961c-3.436-2.298-10.87-6.563-10.87-6.563s-4.42,0.811-7.226-1.611c-2.811-2.421-6.612-7.862-6.612-7.862
					s-1.604-0.809-3.816-1.419c-2.209-0.611-6.218-4.644-9.836-5.459c-3.614-0.815-10.236-4.656-13.655-4.868
					c-3.418-0.211-27.315-9.732-36.566-9.359c-9.25,0.374-16.677-3.871-27.123-7.12s-3.642,7.228-22.517-1.275
					c-18.875-8.502-33.591-6.968-33.591-6.968s-38.569-5.377-42.185-4.855c-3.615,0.523-17.483-0.927-17.483-0.927
					s-12.062-0.037-23.323,0.331c-11.266,0.368-20.489-7.301-29.343-5.719c-8.853,1.582-11.401,1.084-23.007,4.913
					c-11.603,3.829-3.562,3.854-15.521,3.113c-11.963-0.741-16.184-1.356-20.81-1.169c-4.625,0.188-6.437,0.784-8.646,0.174
					c-2.209-0.609-8.241-0.627-11.459-0.235s-11.672,3.181-15.886,0.554c-4.214-2.626,1.021-5.025-8.236-2.639
					c-9.256,2.386-11.697,5.198-17.514,3.771c-5.817-1.429-5.751-2.12-12.615-3.203c-6.866-1.082-20.493-5.659-21.926-2.993
					c-1.431,2.665-14.304,4.234-18.731,5.025c-4.426,0.79-16.901,3.567-21.127,4.962c-4.227,1.395-21.738,7.172-24.751,6.159
					c-3.013-1.015-5.627-0.822-8.84-2.44c-3.212-1.617-12.323-0.621-12.323-0.621l-6.389,1.438l-37.454,8.34
					c0,0,2.821-1.601-11.14,0.328c-13.961,1.93-17.35,2.378-17.35,2.378L63.476,88.6c0,0-5.446,0.786-8.854,1.579
					c-6.996,1.627-3.683-2.421-15.233,3.234c-13.335,6.53-17.958,5.712-24.395,6.497c-6.437,0.785-9.25,0.374-11.062,0.971
					c-1.811,0.597-15.813,2.376-18.719,6.176c-2.905,3.8-18.429,3.738-18.429,3.738l-17.616,7.758l-3.793,711.776l870.585,7.312
					V188.704C810.091,193.333,807.484,192.914,805.518,188.507z"/>
				
					<radialGradient id="SVGID_10_" cx="192.6421" cy="114.0405" r="312.6646" gradientTransform="matrix(1 0 0 1 188 9)" gradientUnits="userSpaceOnUse">
					<stop  offset="0" style="stop-color:#42C9CC"/>
					<stop  offset="0.646" style="stop-color:#42C9CC"/>
					<stop  offset="0.7523" style="stop-color:#42C9CC"/>
					<stop  offset="0.9693" style="stop-color:#42C9CC;stop-opacity:0.3868"/>
					<stop  offset="1" style="stop-color:#42C9CC;stop-opacity:0.3"/>
				</radialGradient>
				<path fill="#FFFFFF" stroke="url(#SVGID_10_)" stroke-miterlimit="10" d="M805.204,172.031c-4.087-2-7.626-4.849-11.959-7.833
					c-4.333-2.985-10.406-10.23-14.836-14.524c-4.432-4.293-7.719-1.073-20.542-5.445c-12.826-4.371-18.896-12.613-28.287-14.7
					c-9.393-2.088-17.521-8.453-19.722-11.073c-2.206-2.621-20.428-11.955-33.741-12.972c-13.315-1.016-6.836-0.423-13.857-5.472
					c-5.16-3.711-16.871-6.485-23.302-7.711c-6.431-1.225-15.872-3.467-20.288-6.696c-4.413-3.23-19.284-5.69-30.54-7.332
					c-11.254-1.642-11.852-3.454-22.908-4.493c-11.055-1.04-18.886-4.481-18.886-4.481s-11.039-7.071-24.104-8.116
					c-13.066-1.044-30.564,0.712-33.096,0.876c-2.528,0.165-14.688,1.98-23.253-3.042c-8.563-5.022-19.514,2.504-24.817,2.113
					c-5.309-0.391-20.356-5.285-20.356-5.285s-23.925-1.479-30.664-5.667s-23.688,8.2-24.842,8.197s-11.447-4.542-11.447-4.542
					s-10.851-2.446-16.278-2.665c-5.43-0.22-21.277,7.988-24.572,8.107c-3.295,0.12-12.125,0.509-16.849-3.772
					c-4.724-4.283-10.628,5.084-16.472,5.435c-5.845,0.35-12.101-2.744-14.965-3.807c-2.864-1.064-15.028-0.398-20.288-2.01
					c-5.26-1.612-16.67,6.17-20.038,6.612c-3.368,0.441-8.697-0.479-11.336-2.391c-2.64-1.911-10.265,3.387-10.265,3.387
					s-15.926-0.667-25.317,4.441c-9.391,5.106-9.456,1.781-17.101,2.963c-7.172,1.11-17.093,0.953-19.109-0.391
					c-2.017-1.343-23.883,4.085-23.883,4.085l-17.106,4.915c0,0-17.155,7.305-19.465,6.423c-2.31-0.883-9.816,3.239-9.816,3.239
					s-5.57-3.68-7.96-4.9c-2.391-1.221-9.475,1.788-14.167-0.442c-4.692-2.231-5.664,2.298-5.664,2.298l-4.049,2.675
					c0,0-5.042,5.011-13.262,4.45c-8.22-0.562-5.141,2.958-8.537,2.814S7.14,95.086,7.14,95.086s-8.224,3.5-13.459,5.897
					c-5.235,2.397-4.304,5.741-9.07,2.979c-4.767-2.762-2.834-2.442-6.856-2.453c-4.022-0.013-4.284,3.366-14.242,4.643
					l-18.137,5.676l3.793,11.495l17.616-7.759c0,0,15.524,0.062,18.429-3.737c2.906-3.8,16.908-5.579,18.719-6.177
					c1.812-0.598,4.625-0.187,11.062-0.972c6.437-0.784,11.06,0.034,24.394-6.496c11.551-5.655,8.237-1.607,15.233-3.234
					c3.408-0.793,8.854-1.578,8.854-1.578l14.732-3.521c0,0,3.388-0.449,17.351-2.378c13.963-1.928,11.14-0.328,11.14-0.328
					l37.454-8.34l6.389-1.438c0,0,9.112-0.997,12.324,0.622c3.212,1.618,5.826,1.424,8.84,2.439
					c3.014,1.015,20.523-4.764,24.751-6.158c4.227-1.395,16.702-4.172,21.127-4.962c4.427-0.79,17.299-2.36,18.732-5.025
					c1.433-2.665,15.058,1.911,21.924,2.995c6.864,1.083,6.798,1.773,12.615,3.202c5.816,1.429,8.257-1.386,17.514-3.771
					c9.256-2.385,4.021,0.012,8.235,2.639c4.214,2.626,12.667-0.163,15.886-0.555c3.218-0.392,9.25-0.374,11.458,0.236
					c2.21,0.61,4.021,0.013,8.646-0.174c4.626-0.187,8.848,0.428,20.81,1.169c11.96,0.741,3.918,0.715,15.521-3.113
					c11.604-3.829,14.154-3.332,23.006-4.914c8.854-1.582,18.078,6.087,29.342,5.718c11.263-0.368,23.324-0.331,23.324-0.331
					s13.867,1.451,17.484,0.928c3.614-0.523,42.183,4.855,42.183,4.855s14.716-1.533,33.593,6.968
					c18.873,8.502,12.066-1.973,22.516,1.275c10.446,3.25,17.873,7.495,27.123,7.121c9.249-0.374,33.146,9.149,36.565,9.36
					c3.419,0.211,10.041,4.052,13.657,4.867c3.618,0.815,7.626,4.849,9.836,5.459c2.21,0.61,3.815,1.419,3.815,1.419
					s3.805,5.441,6.611,7.862c2.808,2.421,7.228,1.609,7.228,1.609s7.435,4.267,10.87,6.565c3.435,2.298,6.803,2.358,12.01,5.961
					c5.207,3.604,6.857-3.566,13.284-4.384c6.427-0.816,3.429,0.244,5.012,3.012c1.582,2.767,3.82,5.493,7.544,6.632
					c3.725,1.138,6.519,3.517,11.319,3.867c4.801,0.349,5.045,1.087,10.261,2.688c5.217,1.601,10.248,4.679,13.859,7.505
					c3.61,2.827,0,0,2.808,2.421c2.809,2.421,7.229,3.641,14.466,3.26c7.24-0.38,7.028,3.038,8.672,3.343
					c1.641,0.305,6.57,10.378,8.368,13.801c1.8,3.424,10.84,6.467,12.847,8.484c2.003,2.017,6.416,5.248,8.988,11.018
					c1.968,4.405,4.572,4.824,10.443,0.197l-6.636-20.108C807.486,172.846,805.983,172.412,805.204,172.031z"/>
			</g>
			<path id="spuma_2_" opacity="0.8" fill="#FFFFFF" enable-background="new    " d="M-36.487,106.153
				c9.958-1.277,10.221-4.655,14.242-4.644c4.021,0.012,2.089-0.308,6.856,2.454c4.766,2.762,3.834-0.583,9.07-2.979
				c5.235-2.396,13.458-5.898,13.458-5.898s6.719,0.07,10.115,0.213c3.396,0.143,0.317-3.375,8.537-2.815
				c8.22,0.562,13.263-4.449,13.263-4.449l4.049-2.676c0,0,0.97-4.528,5.663-2.297c4.693,2.229,11.776-0.779,14.167,0.442
				c2.39,1.22,7.96,4.9,7.96,4.9s7.507-4.122,9.816-3.238c2.309,0.881,19.465-6.423,19.465-6.423l17.106-4.913
				c0,0,21.866-5.428,23.882-4.085c2.017,1.344,11.938,1.501,19.11,0.391c7.644-1.184,7.708,2.142,17.1-2.963
				c9.392-5.106,25.317-4.441,25.317-4.441s7.625-5.298,10.265-3.387c2.639,1.913,7.968,2.833,11.336,2.391
				c3.367-0.442,14.777-8.223,20.038-6.612c5.26,1.612,17.424,0.947,20.288,2.011c2.864,1.064,9.122,4.157,14.966,3.807
				c5.843-0.349,11.746-9.717,16.471-5.435c4.725,4.281,13.553,3.893,16.849,3.773c3.295-0.119,19.144-8.327,24.57-8.107
				c5.431,0.219,16.279,2.666,16.279,2.666s10.295,4.538,11.447,4.542c1.148,0.004,18.103-12.385,24.843-8.197
				c6.738,4.188,30.66,5.668,30.66,5.668s15.052,4.896,20.356,5.285c5.309,0.389,16.252-7.134,24.818-2.113
				s20.723,3.206,23.254,3.041c2.528-0.165,20.026-1.92,33.094-0.876c13.065,1.045,24.104,8.116,24.104,8.116
				s7.83,3.443,18.887,4.482c11.059,1.039,11.653,2.851,22.908,4.494c11.255,1.642,26.127,4.102,30.54,7.331
				c4.415,3.229,13.857,5.472,20.29,6.697c6.429,1.226,18.139,4.001,23.301,7.711c7.021,5.048,0.541,4.455,13.857,5.471
				c13.314,1.018,31.534,10.351,33.736,12.971c2.205,2.621,10.33,8.984,19.726,11.072c9.394,2.087,15.461,10.328,28.285,14.7
				c12.824,4.374,16.115,1.149,20.547,5.442c4.43,4.294,10.503,11.541,14.836,14.524c4.333,2.983,7.872,5.833,11.959,7.833
				c4.086,1.999,27.886,5.375,17.221,15.666c-10.663,10.291-14.332,11.35-16.907,5.579c-2.572-5.77-6.985-9.001-8.988-11.017
				c-2.007-2.017-11.044-5.061-12.846-8.485c-1.799-3.424-6.729-13.495-8.37-13.8c-1.641-0.305-1.431-3.725-8.67-3.343
				c-7.236,0.381-11.658-0.839-14.467-3.261c-2.807-2.421,0.807,0.405-2.807-2.421c-3.612-2.826-8.646-5.904-13.86-7.506
				c-5.215-1.601-5.458-2.337-10.261-2.689c-4.801-0.35-7.595-2.728-11.319-3.867c-3.723-1.138-5.961-3.863-7.544-6.631
				c-1.582-2.767,1.416-3.827-5.011-3.01c-6.427,0.815-8.078,7.985-13.285,4.383c-5.207-3.603-8.575-3.663-12.01-5.961
				c-3.437-2.298-10.87-6.563-10.87-6.563s-4.42,0.81-7.226-1.61c-2.811-2.422-6.612-7.862-6.612-7.862s-1.605-0.809-3.816-1.42
				c-2.209-0.61-6.218-4.643-9.836-5.458c-3.615-0.815-10.236-4.656-13.656-4.867c-3.418-0.211-27.314-9.733-36.565-9.359
				c-9.25,0.373-16.677-3.872-27.123-7.121s-3.642,7.228-22.517-1.276c-18.875-8.502-33.592-6.967-33.592-6.967
				s-38.568-5.377-42.184-4.855s-17.484-0.928-17.484-0.928s-12.062-0.037-23.322,0.332c-5.641,0.185-14.991-8.283-29.344-5.719
				c-8.852,1.582-11.4,1.083-23.006,4.913c-11.603,3.828-3.562,3.853-15.521,3.113c-11.963-0.74-16.184-1.357-20.81-1.169
				c-4.625,0.187-6.437,0.784-8.646,0.174c-2.209-0.609-8.241-0.627-11.459-0.235s-11.672,3.181-15.886,0.554
				s1.021-5.024-8.236-2.639c-9.256,2.385-11.697,5.199-17.514,3.771c-5.817-1.429-5.751-2.121-12.615-3.203
				c-6.866-1.083-20.493-5.659-21.926-2.994c-1.431,2.665-14.304,4.235-18.731,5.025c-4.426,0.791-16.901,3.568-21.127,4.962
				c-4.227,1.396-21.738,7.173-24.751,6.159c-3.013-1.015-5.627-0.822-8.84-2.44c-3.212-1.618-12.323-0.621-12.323-0.621
				l-6.389,1.438l-37.454,8.341c0,0,2.821-1.601-11.14,0.328c-13.961,1.929-17.35,2.377-17.35,2.377l-14.731,3.521
				c0,0-5.446,0.785-8.854,1.578c-6.996,1.627-3.683-2.42-15.233,3.234c-13.335,6.531-17.958,5.712-24.395,6.497
				c-6.437,0.785-9.25,0.374-11.062,0.972c-1.811,0.598-15.813,2.376-18.719,6.177c-2.905,3.799-18.429,3.737-18.429,3.737
				l-7.328,2.418l-3.287-9.963L-36.487,106.153z"/>
			<g id="Sombrilla_8_">
				<path fill="#E8628F" d="M643.464,36.629l4.895-9.8c-2.529-1.372-5.597-1.818-8.549-0.914l3.548,10.75L643.464,36.629z"/>
				<path fill="#FFFFFF" d="M653.635,33.221c-0.02-0.062-0.028-0.123-0.051-0.185c-0.922-2.792-2.851-4.962-5.245-6.262
					l-4.911,9.747L653.635,33.221z"/>
				<path fill="#F9F9F9" d="M643.355,36.665l-3.548-10.75c-0.077,0.024-0.154,0.038-0.231,0.064
					c-2.907,0.959-5.135,3.062-6.412,5.597l10.083,5.125L643.355,36.665z"/>
				<path fill="#E8628F" d="M643.428,36.521l-0.069,0.144l9.6,4.837c1.25-2.481,1.563-5.429,0.68-8.28L643.428,36.521z"/>
				<path fill="#E8628F" d="M633.146,31.521c-1.276,2.535-1.59,5.557-0.629,8.466c0.008,0.019,0.017,0.037,0.021,0.056l10.671-3.451
					L633.146,31.521z"/>
				<path fill="#FFFFFF" d="M643.355,36.665l3.396,10.292c2.798-0.99,4.963-2.987,6.205-5.456L643.355,36.665L643.355,36.665z"/>
				<path fill="#FFFFFF" d="M643.355,36.665l-0.146-0.073l-10.671,3.451c1.007,2.998,3.174,5.274,5.834,6.514L643.355,36.665
					L643.355,36.665z"/>
				<path fill="#E8628F" d="M638.374,46.555c2.469,1.151,5.36,1.41,8.153,0.489c0.076-0.025,0.146-0.06,0.224-0.087l-3.396-10.292
					L638.374,46.555z"/>
			</g>
			<g id="Sombrilla_7_">
				<path fill="#E8628F" d="M529.771,38.342l4.895-9.801c-2.529-1.372-5.596-1.817-8.548-0.914l3.547,10.75L529.771,38.342z"/>
				<path fill="#FFFFFF" d="M539.943,34.934c-0.021-0.062-0.03-0.124-0.052-0.186c-0.922-2.791-2.851-4.962-5.243-6.262
					l-4.911,9.747L539.943,34.934z"/>
				<path fill="#F9F9F9" d="M529.665,38.377l-3.547-10.75c-0.078,0.024-0.156,0.039-0.232,0.064
					c-2.908,0.959-5.135,3.062-6.412,5.596l10.083,5.125L529.665,38.377z"/>
				<path fill="#E8628F" d="M529.737,38.233l-0.071,0.144l9.6,4.837c1.251-2.481,1.565-5.429,0.682-8.28L529.737,38.233z"/>
				<path fill="#E8628F" d="M519.456,33.234c-1.276,2.535-1.587,5.557-0.628,8.465c0.006,0.02,0.016,0.037,0.021,0.056l10.67-3.451
					L519.456,33.234z"/>
				<path fill="#FFFFFF" d="M529.666,38.378l3.396,10.291c2.796-0.989,4.962-2.987,6.202-5.456L529.666,38.378L529.666,38.378z"/>
				<path fill="#FFFFFF" d="M529.665,38.377l-0.146-0.073l-10.671,3.451c1.008,2.997,3.173,5.274,5.834,6.513L529.665,38.377
					L529.665,38.377z"/>
				<path fill="#E8628F" d="M524.684,48.268c2.471,1.151,5.36,1.41,8.152,0.488c0.077-0.025,0.148-0.061,0.227-0.087l-3.396-10.291
					L524.684,48.268z"/>
			</g>
			<g id="Sombrilla_6_">
				<path fill="#E8628F" d="M694.355,75.441l4.892-9.8c-2.528-1.372-5.595-1.818-8.546-0.914l3.546,10.75L694.355,75.441z"/>
				<path fill="#FFFFFF" d="M704.526,72.034c-0.021-0.062-0.031-0.124-0.053-0.186c-0.921-2.792-2.851-4.962-5.243-6.262
					l-4.911,9.747L704.526,72.034z"/>
				<path fill="#F9F9F9" d="M694.247,75.478l-3.546-10.75c-0.078,0.024-0.156,0.038-0.233,0.064
					c-2.908,0.959-5.135,3.062-6.412,5.596l10.083,5.125L694.247,75.478z"/>
				<path fill="#E8628F" d="M694.319,75.334l-0.071,0.143l9.601,4.837c1.249-2.481,1.564-5.429,0.681-8.281L694.319,75.334z"/>
				<path fill="#E8628F" d="M684.039,70.333c-1.277,2.535-1.589,5.558-0.628,8.466c0.006,0.019,0.015,0.037,0.021,0.055
					l10.672-3.451L684.039,70.333z"/>
				<path fill="#FFFFFF" d="M694.247,75.478l3.396,10.291c2.799-0.99,4.965-2.988,6.205-5.456L694.247,75.478L694.247,75.478z"/>
				<path fill="#FFFFFF" d="M694.247,75.478l-0.146-0.073l-10.671,3.451c1.008,2.997,3.176,5.274,5.833,6.513L694.247,75.478
					L694.247,75.478z"/>
				<path fill="#E8628F" d="M689.265,85.368c2.472,1.151,5.361,1.409,8.154,0.488c0.076-0.025,0.147-0.061,0.224-0.087
					l-3.396-10.291L689.265,85.368z"/>
			</g>
		</g>
		<g id="Capa_4_7_">
			<g>
				
					<circle fill="none" stroke="#FFFFFF" stroke-width="3" stroke-miterlimit="10" stroke-dasharray="10.0644,10.0644" cx="650.438" cy="448.768" r="102.511"/>
			</g>
			
				<line fill="none" stroke="#FFFFFF" stroke-width="2" stroke-miterlimit="10" x1="650.438" y1="448.768" x2="650.966" y2="346.257"/>
			<g>
				<path fill="#E5E5E5" d="M663.886,341.612l-24.532-0.471l-1.016,29.283c0,0-2.729,24.212,12.138,32.816
					c14.688-7.708,13.498-31.735,13.498-31.735L663.886,341.612z"/>
				<path fill="#E2E2E2" d="M650.521,396.946c0,0-10.556,0.303-10.521-20.878c0.035-21.183,1.623-23.306,1.623-23.306l19.733,0.377
					l0.481,6.251l-0.347,18.203C661.496,377.593,660.654,396.496,650.521,396.946z"/>
				<path fill="#CECECE" d="M650.553,397.076c8.207,0.312,11.008-10.134,11.854-20.034l0.042-16.43l-0.185-11.864l-6.354-1.604
					l-1.05,1.205l-6.834-0.162c0,0-0.848-1.046-1.051-1.051c-1.157-0.021-6.284,1.279-6.284,1.279s-0.336,8.046-0.49,11.668
					c-0.005,0.121-0.78,16.312-0.778,16.516C639.584,386.503,641.628,396.735,650.553,397.076z M640.567,360.439
					c-0.035-0.266,1.267-11.217,1.267-11.217s4.278-0.709,5.374-0.688c0.195,0.004,0.991,1.004,0.991,1.004l6.45,0.153l0.993-1.152
					l5.659,1.057l0.732,11.243c-0.05,9.746-0.243,9.878-0.312,16.192c-0.937,9.655-4.09,19.875-11.272,19.55
					c-7.142-0.322-9.844-10.393-10.298-19.964C640.168,376.246,640.646,360.607,640.567,360.439z"/>
				<path fill="#EFEFEF" d="M646.5,375.604l1.209,1.395l2.935,0.542v-0.009l0.261,0.006h0.043l0.42,0.007l0.001,0.011l2.876-0.434
					l1.351-1.342c0.752-0.522,0.937-3.215,0.937-3.215l0.096-5.001l-0.55-1.103l-3.693,0.568l-1.27,1.909l-1.188-1.956l-3.633-0.708
					l-0.516,1.081l-0.098,5.001C645.68,372.356,645.768,375.055,646.5,375.604z"/>
				<path fill="#C6C6C6" d="M646.232,368.865c0.009,0.151,1.419,2.406,1.419,2.406l6.556,0.166l1.664-2.344l0.006-0.33l0.003-0.165
					l0.004-0.166l0.03-1.649l-9.638-0.186C646.276,366.597,646.227,368.71,646.232,368.865z"/>
				<path fill="#29ABE2" d="M647.168,373.125l3.328,0.064l1.269,0.023l2.999,0.055c0,0,0.984-1.256,1.205-4.578
					c0.001-0.02-0.172-0.005-0.172-0.005c-0.448,0.608-1.457,2.254-1.457,2.254l-3.166-0.035l-3.494-0.083
					c0,0-0.943-1.674-1.369-2.299c0,0-0.171-0.04-0.172-0.02C646.23,371.832,647.168,373.125,647.168,373.125z"/>
				<g id="Timó_7_">
					<path d="M654.725,367.324c0.026-1.337-4.381-1.518-4.407-0.071C650.292,368.525,654.699,368.728,654.725,367.324z
						 M654.342,367.332c-0.02,0.957-3.66,0.807-3.643-0.06C650.719,366.285,654.359,366.421,654.342,367.332z"/>
					<path d="M653.061,368.04c0,0-0.004-0.417-0.503-0.422c-0.499-0.003-0.438,0.369-0.448,0.405
						C652.096,368.058,653.061,368.04,653.061,368.04z"/>
					<polygon points="652.716,367.737 652.863,366.716 652.205,366.705 652.36,367.73 					"/>
					<path d="M652.266,367.901c-0.013-0.001-1.598-0.731-1.598-0.731l-0.069,0.412l1.61,0.515L652.266,367.901z"/>
					<path d="M652.861,367.913c0.01,0,1.598-0.67,1.598-0.67l-0.008,0.411l-1.533,0.456L652.861,367.913z"/>
				</g>
				<g id="Tapiceria_7_">
					<path fill="#E8CDA0" d="M640.154,376.616c0,0,5.396,0.061,6.478,5.806c1.085,5.745,1.634,13.623,1.714,13.788
						C648.425,396.376,640.393,394.246,640.154,376.616z"/>
					<path fill="#E8CDA0" d="M661.727,377.028c0,0-5.392-0.144-6.694,5.555c-1.304,5.7-2.152,13.548-2.238,13.711
						C652.706,396.457,660.812,394.636,661.727,377.028z"/>
					<path fill="#E8CDA0" d="M661.743,354.586c0,0,0.371,1.334-0.922,0.848c-4.254-1.606-14.33-2.128-18.896-0.28
						c-0.957,0.388-0.938,0.148-0.896-0.491c0.03-0.479,0.806-5.439,0.806-5.439s7.795-2.817,19.471,0.372L661.743,354.586z"/>
					<path fill="#E8CDA0" d="M645.912,360.174c0.006-0.274,0.626-0.808,1.007-0.802l8.685,0.167
						c0.384,0.008,0.439,0.552,0.434,0.827l-0.054,2.896c-0.007,0.274-0.079,0.623-0.462,0.616l-8.687-0.166
						c-0.381-0.009-0.985-0.368-0.979-0.644L645.912,360.174z"/>
				</g>
				<path fill="#394963" d="M647.576,338.034c0.003-0.499,0.409-0.901,0.908-0.898l5.262,0.027c0.5,0.003,0.902,0.411,0.898,0.911
					l-0.044,8.083c-0.003,0.5-0.408,0.903-0.908,0.899l-5.264-0.028c-0.498-0.002-0.899-0.41-0.896-0.909L647.576,338.034z"/>
			</g>
		</g>
		<g id="Capa_4_2_">
			<g>
				
					<circle fill="none" stroke="#FFFFFF" stroke-width="3" stroke-miterlimit="10" stroke-dasharray="10.0644,10.0644" cx="219.065" cy="564.052" r="102.512"/>
			</g>
			
				<line fill="none" stroke="#FFFFFF" stroke-width="2" stroke-miterlimit="10" x1="219.065" y1="564.052" x2="216.832" y2="461.564"/>
			<g>
				<path fill="#E5E5E5" d="M229.622,456.573l-24.537,0.188l-0.225,29.301c0,0-2.076,24.276,13.018,32.479
					c14.473-8.104,12.638-32.088,12.638-32.088L229.622,456.573z"/>
				<path fill="#E2E2E2" d="M217.754,512.246c0,0-10.54,0.588-11.078-20.588c-0.537-21.175,0.994-23.34,0.994-23.34l19.736-0.154
					l0.652,6.234l0.144,18.207C228.203,492.604,227.87,511.522,217.754,512.246z"/>
				<path fill="#CECECE" d="M217.788,512.375c8.213,0.093,10.731-10.425,11.311-20.346l-0.4-16.424l-0.503-11.854l-6.393-1.434
					l-1.02,1.231l-6.835,0.021c0,0-0.873-1.021-1.077-1.021c-1.159,0.011-6.248,1.448-6.248,1.448s-0.12,8.053-0.177,11.677
					c0,0.122-0.339,16.328-0.332,16.532C206.54,502.102,208.857,512.275,217.788,512.375z M206.819,476.021
					c-0.042-0.268,0.963-11.246,0.963-11.246s4.26-0.823,5.354-0.832c0.195-0.001,1.019,0.977,1.019,0.977l6.451-0.021l0.963-1.18
					l5.687,0.902l1.036,11.22c0.212,9.743,0.022,9.881,0.125,16.194c-0.676,9.677-3.552,19.978-10.742,19.847
					c-7.146-0.13-10.121-10.123-10.832-19.679C206.845,491.833,206.903,476.188,206.819,476.021z"/>
				<path fill="#EFEFEF" d="M213.157,491.02l1.247,1.361l2.947,0.464v-0.009l0.26-0.001h0.043l0.419-0.004l0.002,0.011l2.862-0.512
					l1.314-1.378c0.737-0.542,0.847-3.238,0.847-3.238l-0.04-5.002l-0.578-1.088l-3.676,0.667l-1.219,1.941l-1.239-1.924
					l-3.65-0.608l-0.485,1.096l0.038,5.003C212.25,487.796,212.411,490.491,213.157,491.02z"/>
				<path fill="#C6C6C6" d="M212.711,484.29c0.011,0.153,1.48,2.368,1.48,2.368l6.56-0.011l1.599-2.392l-0.002-0.329l-0.001-0.165
					l-0.001-0.165l-0.013-1.648l-9.639,0.075C212.692,482.023,212.7,484.137,212.711,484.29z"/>
				<path fill="#29ABE2" d="M213.76,488.524l3.327-0.025l1.271-0.011l2.998-0.025c0,0,0.952-1.282,1.082-4.606
					c0.001-0.021-0.172,0-0.172,0c-0.431,0.617-1.396,2.292-1.396,2.292l-3.165,0.051l-3.496,0.01c0,0-0.99-1.648-1.431-2.261
					c0,0-0.17-0.035-0.172-0.018C212.788,487.257,213.76,488.524,213.76,488.524z"/>
				<g id="Timó_3_">
					<path d="M221.158,482.522c-0.01-1.34-4.42-1.4-4.409,0.048C216.757,483.842,221.17,483.927,221.158,482.522z M220.773,482.541
						c0.008,0.957-3.636,0.904-3.641,0.037C217.124,481.591,220.767,481.629,220.773,482.541z"/>
					<path d="M219.512,483.283c0,0-0.015-0.418-0.513-0.408c-0.499,0.01-0.429,0.38-0.44,0.416
						C218.549,483.327,219.512,483.283,219.512,483.283z"/>
					<polygon points="219.16,482.989 219.28,481.965 218.622,481.972 218.804,482.992 					"/>
					<path d="M218.713,483.165c-0.011-0.001-1.616-0.688-1.616-0.688l-0.058,0.412l1.625,0.475L218.713,483.165z"/>
					<path d="M219.309,483.16c0.011,0.001,1.579-0.713,1.579-0.713l0.003,0.412l-1.52,0.496L219.309,483.16z"/>
				</g>
				<g id="Tapiceria_3_">
					<path fill="#E8CDA0" d="M206.843,492.204c0,0,5.395-0.084,6.632,5.629c1.239,5.713,2,13.573,2.083,13.735
						C215.642,511.733,207.555,509.82,206.843,492.204z"/>
					<path fill="#E8CDA0" d="M228.418,492.033c0,0-5.396,0.002-6.545,5.731c-1.146,5.734-1.786,13.604-1.867,13.771
						C219.924,511.699,227.977,509.659,228.418,492.033z"/>
					<path fill="#E8CDA0" d="M227.83,469.599c0,0,0.408,1.324-0.898,0.873c-4.295-1.489-14.383-1.739-18.897,0.229
						c-0.946,0.411-0.933,0.173-0.909-0.467c0.019-0.479,0.658-5.46,0.658-5.46s7.716-3.025,19.474-0.152L227.83,469.599z"/>
					<path fill="#E8CDA0" d="M212.154,475.612c-0.001-0.274,0.604-0.824,0.984-0.828l8.688-0.067
						c0.38-0.002,0.454,0.541,0.453,0.815l0.025,2.896c0,0.273-0.063,0.624-0.446,0.626l-8.686,0.068
						c-0.38,0.002-0.996-0.34-0.996-0.616L212.154,475.612z"/>
				</g>
				<path fill="#394963" d="M213.222,453.438c-0.012-0.498,0.385-0.912,0.884-0.924l5.26-0.113c0.5-0.012,0.914,0.387,0.924,0.886
					l0.175,8.081c0.011,0.5-0.386,0.914-0.886,0.924l-5.261,0.113c-0.498,0.012-0.912-0.387-0.921-0.886L213.222,453.438z"/>
			</g>
		</g>
	</g>
	<g>
		<path opacity="0.7" fill="#1AB737" enable-background="new    " d="M506.368,331.791
			c-39.461-51.139-112.907-60.607-164.047-21.147c-51.139,39.461-60.606,112.906-21.146,164.046
			c39.461,51.139,112.905,60.605,164.047,21.146C536.358,456.376,545.829,382.93,506.368,331.791z M439.502,427.284
			c-0.047,0.016-1.777-1.654-2.627-2.447c-12.992,12.248-33.312,11.872-45.862-0.672c-1.035,0.972-3.069,2.84-3.123,2.822
			l-0.875-12.246l11.429,2.331c0,0-2.066,1.804-2.928,2.635c4.048,4,9.485,6.437,14.485,7.293v-41.205
			c-2-1.298-3.881-3.712-3.881-6.478c0-4.138,3.435-7.491,7.572-7.491c4.137,0,7.451,3.354,7.451,7.491
			c0,2.793-2.145,5.228-4.145,6.516v41.324c5-0.642,10.879-2.896,15.115-6.787c-1.039-1.002-2.738-2.704-2.738-2.704l11.758-2.161
			L439.502,427.284z"/>
	</g>
	<g id="boat_1_">
		<g>
			<path fill="none" stroke="#FFFFFF" stroke-width="6" stroke-miterlimit="10" stroke-dasharray="10,10" d="M413.771,283.977
				C410.834,149.167-8.89,228.6,77.694,675.5c3.708,19.137,3.736,11.149,3.736,11.149"/>
			
				<linearGradient id="SVGID_11_" gradientUnits="userSpaceOnUse" x1="78.0488" y1="592.042" x2="78.0488" y2="652.004" gradientTransform="matrix(0.9109 -0.4129 0.4129 0.9109 -220.8217 207.6452)">
				<stop  offset="0" style="stop-color:#FFFFFF;stop-opacity:0.8"/>
				<stop  offset="0.9306" style="stop-color:#FFFFFF;stop-opacity:0"/>
			</linearGradient>
			<path display="none" fill="url(#SVGID_11_)" d="M147.013,756.754c-3.082-4.875-8.627-8.269-11.511-12.325
				c-2.884-4.055-3.316-8.082-6.753-12.97c-3.434-4.887-8.494-6.445-11.209-9.743c-2.714-3.298-6.148-10.019-9.602-11.721
				c-3.454-1.706-15.193,4.878-15.193,4.878s-9.514,3.784-10.283,6.666c-0.994,3.722,1.793,10.724,2.487,14.938
				c0.692,4.219-1.478,9.036-0.065,14.843c1.413,5.806,4.169,8.812,5.32,13.652c1.15,4.844,0.048,11.249,1.684,16.777
				L147.013,756.754z"/>
			
				<linearGradient id="SVGID_12_" gradientUnits="userSpaceOnUse" x1="74.2466" y1="584.7148" x2="74.2466" y2="648.4337" gradientTransform="matrix(0.9109 -0.4129 0.4129 0.9109 -220.8217 207.6452)">
				<stop  offset="0" style="stop-color:#FFFFFF;stop-opacity:0.8"/>
				<stop  offset="1" style="stop-color:#FFFFFF;stop-opacity:0"/>
			</linearGradient>
			<path opacity="0.8" fill="url(#SVGID_12_)" enable-background="new    " d="M134.442,758.549
				c-3.273-5.18-9.167-8.785-12.231-13.096c-3.065-4.312-3.525-8.59-7.175-13.784c-3.65-5.193-9.031-6.851-11.914-10.354
				c-2.885-3.506-6.533-10.646-10.203-12.457c-3.669-1.812-5.395,0.312-5.395,0.312s-2.128,0.399-2.946,3.463
				c-1.057,3.954,1.909,11.396,2.643,15.874c0.735,4.479-1.569,9.604-0.069,15.771c1.501,6.168,4.432,9.361,5.653,14.51
				c1.221,5.144,0.052,11.953,1.79,17.828L134.442,758.549z"/>
		</g>
		<g id="Capa_4_8_">
			<path fill="#D1D1D1" d="M87.1,738.682l24.826-8.891l-10.131-29.735c0,0-6.489-25.331-24.705-28.301
				c-11.811,13.345-1.466,36.979-1.466,36.979L87.1,738.682z"/>
			<path fill="#F4F4F4" d="M79.295,678.188c0,0,10.601-4.263,18.649,17.027c8.048,21.292,7.38,24.098,7.38,24.098l-19.968,7.151
				l-3.266-6.171l-6.596-18.421C75.494,701.872,69.289,682.505,79.295,678.188z"/>
			<path fill="#E8E8E8" d="M79.377,678.011c-8.364,2.816-7.192,14.378-4.266,24.649l6.227,16.52l4.714,11.851l6.994-0.813
				l0.595-1.611l6.926-2.443c0,0,1.248,0.729,1.457,0.654c1.172-0.423,5.826-3.686,5.826-3.686s-2.732-8.212-3.96-11.907
				c-0.042-0.126-5.44-16.688-5.521-16.891C94.429,684.446,88.471,674.945,79.377,678.011z M103.386,711.003
				c0.139,0.256,3.011,11.751,3.011,11.751s-4.029,2.346-5.138,2.74c-0.196,0.07-1.378-0.628-1.378-0.628l-6.539,2.31l-0.558,1.535
				l-6.09,1.099l-5.026-11.014c-3.67-9.81-3.526-10.017-5.867-16.384c-2.745-10.062-3.478-21.524,3.862-23.942
				c7.296-2.4,13.856,6.684,17.964,16.127C97.759,694.973,103.245,710.866,103.386,711.003z"/>
			<path fill="#FFFFFF" d="M86.538,697.727l-0.033-0.103l-3.134,1.68l-0.855,1.869c-0.557,0.812,0.277,3.588,0.277,3.588
				l1.813,5.062l0.919,0.917l3.467-1.974l0.604-2.569l-0.644-1.728L86.538,697.727z"/>
			<path fill="#FFFFFF" d="M86.47,697.751l0.036-0.127L89.8,697l1.825,0.911c0.944,0.271,2.039,2.958,2.039,2.958l1.812,5.061
				l-0.078,1.273l-3.905,0.671l-2.052-1.622l-0.56-1.756L86.47,697.751z"/>
			<path fill="#C6C6C6" d="M94.52,704.811c-0.066-0.15-2.361-1.931-2.361-1.931l-6.697,2.318l-0.822,2.977l0.121,0.333l0.06,0.168
				l0.06,0.168l0.677,1.893l9.823-3.521C95.381,707.215,94.586,704.965,94.52,704.811z"/>
			<path fill="#394963" d="M104.431,736.653c0.175,0.496-0.085,1.036-0.58,1.21l-5.206,1.834c-0.494,0.174-1.036-0.088-1.21-0.58
				l-2.814-7.999c-0.174-0.493,0.085-1.035,0.579-1.21l5.206-1.832c0.494-0.175,1.036,0.086,1.21,0.58L104.431,736.653z"/>
			<path fill="#29ABE2" d="M91.869,700.644l-3.366,1.207l-1.286,0.458l-3.033,1.086c0,0-0.486,1.707,0.559,5.127
				c0.007,0.021,0.187-0.022,0.187-0.022c0.218-0.781,0.608-2.805,0.608-2.805l3.199-1.165l3.542-1.247c0,0,1.59,1.323,2.254,1.788
				c0,0,0.164-0.092,0.156-0.111C93.326,701.651,91.869,700.644,91.869,700.644z"/>
			<g id="Timó_8_">
				<path d="M86.538,709.489c0.485,1.354,4.983-0.146,4.456-1.611C90.534,706.592,86.028,708.069,86.538,709.489z M86.92,709.334
					c-0.346-0.969,3.369-2.204,3.683-1.327C90.96,709.004,87.251,710.257,86.92,709.334z"/>
				<path d="M87.938,708.135c0,0,0.162,0.418,0.665,0.231c0.502-0.188,0.3-0.536,0.298-0.575
					C88.899,707.748,87.938,708.135,87.938,708.135z"/>
				<polygon points="88.449,708.444 88.717,709.604 89.383,709.362 88.807,708.316 				"/>
				<path d="M88.79,707.972c0.01-0.005,1.884,0.124,1.884,0.124l-0.086-0.438l-1.817,0.097L88.79,707.972z"/>
				<path d="M88.113,708.213c-0.01,0.005-1.423,1.312-1.423,1.312l-0.149-0.417l1.402-1.056L88.113,708.213z"/>
			</g>
			<g id="Tapiceria_8_">
				<path fill="#E8CDA0" d="M97.629,694.597c0,0-5.442,1.995-8.723-3.36c-3.281-5.357-6.838-13.061-6.983-13.195
					C81.782,677.901,90.661,676.977,97.629,694.597z"/>
				<path fill="#E8CDA0" d="M75.803,702.41c0,0,5.472-1.911,4.605-8.133c-0.863-6.224-3.005-14.433-2.983-14.629
					C77.45,679.452,70.001,684.376,75.803,702.41z"/>
				<path fill="#E8CDA0" d="M84.349,724.965c0,0-0.88-1.199,0.604-1.201c4.884-0.012,15.208-3.334,19.09-6.931
					c0.812-0.754,0.885-0.508,1.086,0.15c0.152,0.492,1.269,5.771,1.269,5.771s-6.755,5.804-19.701,7.059L84.349,724.965z"/>
				<path fill="#E8CDA0" d="M97.796,713.425c0.099,0.277-0.154,0.497-0.541,0.638l-8.788,3.146c-0.384,0.14-0.843,0.173-0.942-0.104
					l-1.05-2.933c-0.099-0.278,0.216-0.713,0.601-0.853l8.788-3.148c0.386-0.137,0.784,0.046,0.883,0.322L97.796,713.425z"/>
			</g>
		</g>
		<g>
			<path fill="#996234" d="M89.581,711.052c0,0,0.195-0.78,0.827,0.028c0.63,0.812,1.463,1.526,1.463,1.526s0.845-0.73,0.856-1.06
				c0.011-0.328-0.659-1.492,0.047-2.187c0.705-0.693,0.999-1.062,1.225,0.383c0.228,1.444,0.508,2.407,0.508,2.407l-3.16,2.396
				l-1.674-3.296"/>
			<path fill="#EF45B7" d="M91.423,713.896c0,0-2.156-1.314-1.438-1.562c0.714-0.245,0.6,0.444,1.49,0.091
				c0.89-0.353,0.463-0.97,1.697-1.096c1.233-0.122,1.484-0.625,1.57,0.035c0.087,0.663,0.163,0.93,0.163,0.93L91.423,713.896z"/>
			<path fill="#996234" d="M90.489,714.552c0,0-0.754-1.486-0.975-1.859c-0.413-0.698-0.487-2.508-0.614-2.783
				c-0.127-0.278-0.216-0.591,0.342-0.347c0.557,0.242,0.829,1.794,0.989,2.558c0.161,0.765,0.997,1.399,1.116,1.616
				c0.121,0.215-0.487,0.105-0.487,0.105L90.489,714.552z"/>
			<path fill="#996234" d="M95.296,712.463c0,0-0.264-1.829-0.403-2.241c-0.259-0.769-1.58-2.001-1.709-2.278
				c-0.127-0.277-0.303-0.55-0.482,0.031c-0.178,0.58,0.818,1.8,1.292,2.42c0.473,0.618,0.072,1.738,0.159,1.973
				c0.086,0.229,0.738-0.373,0.738-0.373L95.296,712.463z"/>
			<path fill="#8BC7E8" d="M89.819,714.859c0,0,1.143,1.746,2.479,1.594s1.798-0.205,2.635-1.134
				c0.835-0.934,1.504-0.938,0.991-1.844c-0.51-0.899-0.104-1.681-1.076-1.413c-1.046,0.288-3.744,1.312-3.936,1.372
				C89.745,713.812,89.819,714.859,89.819,714.859z"/>
			<path fill="#301705" d="M93.685,715.818c0,0-1.102,0.38-1.342-0.562c-0.241-0.939-0.849-1.047-0.23-1.662
				c0.621-0.61,0.658-1.509,1.318-0.934c0.661,0.574,1.077,0.852,1.073,1.471c-0.003,0.62,0.104,0.725-0.051,1.185
				C94.303,715.775,93.685,715.818,93.685,715.818z"/>
		</g>
	</g>
</g>
<g id="Anclar" display="none">
	<g id="Costa" display="inline">
		<g id="fons">
			<path fill="#EFDE95" d="M-21,831c16.303-5.379,739.469,48.049,876,3L796.066-69.859L-28-22L-21,831z"/>
			<g>
				
					<radialGradient id="SVGID_13_" cx="-316.9297" cy="904.2637" r="980.0132" gradientTransform="matrix(0.9496 -0.3133 0.3133 0.9496 263.336 102.8105)" gradientUnits="userSpaceOnUse">
					<stop  offset="0" style="stop-color:#42C9CC"/>
					<stop  offset="0.646" style="stop-color:#42C9CC"/>
					<stop  offset="0.7523" style="stop-color:#42C9CC"/>
					<stop  offset="0.9693" style="stop-color:#42C9CC;stop-opacity:0.3868"/>
					<stop  offset="1" style="stop-color:#42C9CC;stop-opacity:0.3"/>
				</radialGradient>
				
					<radialGradient id="SVGID_14_" cx="215.6123" cy="438.3486" r="396.2683" gradientTransform="matrix(1 0 0 1 188 9)" gradientUnits="userSpaceOnUse">
					<stop  offset="0" style="stop-color:#42C9CC"/>
					<stop  offset="0.646" style="stop-color:#42C9CC"/>
					<stop  offset="0.7523" style="stop-color:#42C9CC"/>
					<stop  offset="0.9693" style="stop-color:#42C9CC;stop-opacity:0.3868"/>
					<stop  offset="1" style="stop-color:#42C9CC;stop-opacity:0.3"/>
				</radialGradient>
				<path fill="url(#SVGID_13_)" stroke="url(#SVGID_14_)" stroke-miterlimit="10" d="M810.326,199.579
					c-2.465-5.524-6.689-8.617-8.607-10.547c-1.92-1.93-10.572-4.845-12.295-8.122c-1.723-3.277-6.44-12.918-8.014-13.211
					c-1.57-0.292-1.369-3.565-8.299-3.201c-6.932,0.364-11.162-0.803-13.852-3.121c-2.687-2.317,0.771,0.388-2.687-2.317
					c-3.458-2.706-8.274-5.652-13.271-7.186c-4.991-1.533-5.226-2.238-9.82-2.574c-4.599-0.335-7.271-2.612-10.838-3.702
					c-3.562-1.09-5.705-3.699-7.223-6.349c-1.515-2.649,1.355-3.662-4.797-2.882c-6.152,0.781-7.732,7.646-12.718,4.196
					c-4.986-3.45-8.209-3.506-11.497-5.707c-3.289-2.2-10.406-6.283-10.406-6.283s-4.229,0.776-6.917-1.542
					c-2.688-2.318-6.33-7.526-6.33-7.526s-1.537-0.774-3.651-1.359c-2.115-0.584-5.953-4.446-9.416-5.226
					c-3.463-0.781-9.804-4.458-13.074-4.66c-3.272-0.202-26.149-9.317-35.006-8.96c-8.854,0.358-15.965-3.706-25.967-6.816
					c-10-3.111-3.483,6.919-21.555-1.221c-18.068-8.14-32.156-6.67-32.156-6.67s-36.924-5.148-40.383-4.647
					c-3.461,0.5-16.736-0.888-16.736-0.888s-11.55-0.035-22.328,0.317c-10.782,0.353-19.614-6.989-28.09-5.475
					c-8.475,1.515-10.916,1.038-22.023,4.703c-11.108,3.665-3.409,3.689-14.86,2.98c-11.45-0.709-15.489-1.299-19.919-1.119
					c-4.428,0.179-6.162,0.75-8.276,0.167c-2.115-0.583-7.891-0.601-10.972-0.226s-11.174,3.045-15.208,0.531
					c-4.035-2.515,0.979-4.81-7.884-2.526c-8.861,2.284-11.197,4.976-16.766,3.61c-5.569-1.368-5.505-2.03-12.077-3.066
					c-6.573-1.036-19.618-5.417-20.99-2.866c-1.37,2.551-13.693,4.054-17.931,4.811c-4.237,0.756-16.179,3.415-20.226,4.75
					c-4.047,1.335-20.81,6.866-23.694,5.896c-2.884-0.972-5.387-0.787-8.462-2.336c-3.075-1.548-11.796-0.594-11.796-0.594
					l-6.116,1.376l-35.855,7.984c0,0,2.701-1.532-10.665,0.314c-13.365,1.847-16.609,2.276-16.609,2.276l-14.103,3.371
					c0,0-5.214,0.752-8.476,1.511c-6.697,1.558-3.525-2.318-14.583,3.096c-12.767,6.251-17.191,5.468-23.354,6.219
					c-6.162,0.751-8.855,0.358-10.589,0.93c-1.734,0.572-15.138,2.275-17.92,5.913c-2.781,3.638-17.642,3.578-17.642,3.578
					l-16.864,7.428L-13.095,814l833.418,7V199.767C814.703,204.198,812.208,203.797,810.326,199.579z"/>
				
					<radialGradient id="SVGID_15_" cx="215.5918" cy="127.9082" r="299.3391" gradientTransform="matrix(1 0 0 1 188 9)" gradientUnits="userSpaceOnUse">
					<stop  offset="0" style="stop-color:#42C9CC"/>
					<stop  offset="0.646" style="stop-color:#42C9CC"/>
					<stop  offset="0.7523" style="stop-color:#42C9CC"/>
					<stop  offset="0.9693" style="stop-color:#42C9CC;stop-opacity:0.3868"/>
					<stop  offset="1" style="stop-color:#42C9CC;stop-opacity:0.3"/>
				</radialGradient>
				<path fill="#FFFFFF" stroke="url(#SVGID_15_)" stroke-miterlimit="10" d="M810.025,183.806
					c-3.913-1.914-7.303-4.642-11.448-7.499c-4.148-2.857-9.962-9.793-14.203-13.904c-4.24-4.109-7.389-1.027-19.665-5.212
					c-12.278-4.184-18.087-12.075-27.079-14.072c-8.991-1.999-16.771-8.091-18.88-10.6c-2.111-2.509-19.554-11.445-32.301-12.418
					s-6.544-0.405-13.268-5.238c-4.938-3.553-16.148-6.208-22.307-7.382s-15.195-3.319-19.422-6.411
					c-4.227-3.092-18.461-5.447-29.236-7.019c-10.771-1.572-11.346-3.307-21.931-4.301c-10.583-0.995-18.079-4.29-18.079-4.29
					s-10.567-6.77-23.076-7.77s-29.26,0.682-31.682,0.839c-2.422,0.157-14.062,1.896-22.26-2.912
					c-8.2-4.808-18.683,2.397-23.762,2.023c-5.08-0.374-19.485-5.06-19.485-5.06s-22.903-1.417-29.355-5.425
					c-6.451-4.009-22.679,7.85-23.781,7.847c-1.104-0.003-10.958-4.348-10.958-4.348s-10.388-2.341-15.584-2.551
					c-5.195-0.21-20.368,7.647-23.521,7.761c-3.155,0.115-11.607,0.488-16.129-3.611c-4.522-4.1-10.175,4.868-15.771,5.203
					c-5.595,0.334-11.584-2.627-14.326-3.645c-2.742-1.019-14.386-0.38-19.422-1.924c-5.036-1.543-15.958,5.907-19.182,6.33
					c-3.224,0.422-8.326-0.458-10.853-2.288c-2.527-1.83-9.826,3.242-9.826,3.242s-15.246-0.638-24.237,4.251
					c-8.99,4.888-9.052,1.705-16.37,2.837c-6.866,1.062-16.364,0.912-18.294-0.374c-1.93-1.286-22.863,3.911-22.863,3.911
					L135.096,94.5c0,0-16.423,6.993-18.634,6.149c-2.211-0.845-9.397,3.101-9.397,3.101s-5.333-3.523-7.62-4.691
					c-2.289-1.168-9.07,1.711-13.562-0.423c-4.492-2.135-5.422,2.2-5.422,2.2l-3.876,2.561c0,0-4.827,4.797-12.696,4.26
					c-7.869-0.538-4.922,2.832-8.173,2.694s-9.684-0.204-9.684-0.204s-7.873,3.351-12.884,5.646
					c-5.012,2.295-4.12,5.496-8.683,2.852s-2.713-2.337-6.563-2.349c-3.85-0.012-4.102,3.223-13.634,4.445l-17.362,5.434
					l3.631,11.004l16.863-7.43c0,0,14.861,0.06,17.642-3.578c2.781-3.638,16.186-5.341,17.92-5.913
					c1.734-0.572,4.427-0.179,10.589-0.93c6.162-0.751,10.587,0.033,23.353-6.219c11.058-5.414,7.885-1.539,14.583-3.096
					c3.263-0.759,8.476-1.511,8.476-1.511l14.104-3.371c0,0,3.244-0.43,16.61-2.277c13.367-1.846,10.665-0.314,10.665-0.314
					l35.855-7.984l6.116-1.377c0,0,8.723-0.955,11.798,0.595c3.075,1.55,5.578,1.364,8.462,2.335
					c2.885,0.972,19.646-4.56,23.694-5.895c4.046-1.335,15.988-3.994,20.226-4.751c4.238-0.756,16.561-2.259,17.932-4.811
					c1.372-2.551,14.415,1.83,20.988,2.867c6.571,1.037,6.508,1.698,12.077,3.065c5.568,1.368,7.903-1.327,16.766-3.609
					c8.861-2.282,3.852,0.011,7.884,2.526c4.034,2.514,12.127-0.155,15.208-0.531c3.081-0.375,8.855-0.358,10.972,0.226
					c2.115,0.584,3.85,0.012,8.276-0.167c4.431-0.179,8.47,0.41,19.919,1.119c11.45,0.709,3.751,0.685,14.86-2.98
					c11.109-3.666,13.55-3.189,22.024-4.704c8.475-1.514,17.307,5.828,28.087,5.475s22.331-0.316,22.331-0.316
					s13.273,1.389,16.735,0.888c3.46-0.5,40.382,4.648,40.382,4.648s14.089-1.468,32.157,6.67
					c18.068,8.139,11.553-1.889,21.555,1.221c10.002,3.111,17.109,7.175,25.966,6.817c8.854-0.358,31.731,8.758,35.006,8.96
					c3.271,0.202,9.612,3.879,13.075,4.659c3.463,0.781,7.3,4.642,9.416,5.226c2.113,0.584,3.65,1.359,3.65,1.359
					s3.645,5.208,6.33,7.527c2.688,2.317,6.918,1.54,6.918,1.54s7.117,4.084,10.406,6.285c3.288,2.2,6.513,2.257,11.497,5.707
					c4.984,3.45,6.563-3.414,12.717-4.196c6.152-0.782,3.282,0.233,4.798,2.883c1.517,2.649,3.657,5.258,7.224,6.349
					c3.562,1.089,6.237,3.366,10.837,3.702c4.596,0.334,4.828,1.041,9.82,2.574c4.994,1.532,9.812,4.479,13.27,7.185
					s0,0,2.688,2.317c2.688,2.318,6.919,3.486,13.851,3.121c6.931-0.364,6.729,2.909,8.3,3.201c1.57,0.292,6.291,9.935,8.013,13.212
					c1.725,3.278,10.376,6.191,12.296,8.122c1.918,1.931,6.145,5.023,8.606,10.548c1.882,4.217,4.377,4.618,9.998,0.189
					l-6.354-19.25C812.211,184.585,810.771,184.17,810.025,183.806z"/>
			</g>
			<path id="spuma" opacity="0.8" fill="#FFFFFF" enable-background="new    " d="M4.268,120.74
				c9.532-1.222,9.785-4.456,13.634-4.445c3.85,0.011,2-0.295,6.563,2.349s3.67-0.558,8.683-2.852
				c5.012-2.294,12.884-5.646,12.884-5.646s6.433,0.067,9.684,0.205c3.251,0.137,0.304-3.232,8.173-2.695
				c7.869,0.537,12.696-4.259,12.696-4.259l3.876-2.562c0,0,0.929-4.335,5.421-2.2c4.493,2.134,11.274-0.745,13.562,0.423
				c2.288,1.168,7.621,4.69,7.621,4.69s7.187-3.945,9.397-3.1c2.21,0.844,18.634-6.149,18.634-6.149l16.375-4.703
				c0,0,20.933-5.197,22.863-3.911c1.93,1.287,11.429,1.438,18.294,0.375c7.318-1.133,7.378,2.05,16.37-2.837
				c8.991-4.888,24.237-4.251,24.237-4.251s7.299-5.072,9.826-3.242c2.527,1.831,7.628,2.711,10.853,2.288
				c3.223-0.423,14.146-7.872,19.182-6.33c5.036,1.543,16.68,0.907,19.422,1.925c2.742,1.018,8.732,3.979,14.327,3.645
				c5.596-0.334,11.245-9.302,15.77-5.203c4.521,4.099,12.974,3.727,16.129,3.612c3.155-0.114,18.327-7.972,23.521-7.761
				c5.197,0.21,15.584,2.551,15.584,2.551s9.855,4.344,10.958,4.348c1.104,0.004,17.33-11.856,23.782-7.847
				c6.451,4.009,29.354,5.426,29.354,5.426s14.407,4.687,19.487,5.06c5.08,0.372,15.561-6.83,23.761-2.023
				c8.199,4.807,19.838,3.069,22.261,2.912c2.421-0.158,19.172-1.839,31.682-0.839c12.508,1,23.074,7.77,23.074,7.77
				s7.496,3.295,18.081,4.291c10.584,0.995,11.155,2.729,21.93,4.302c10.774,1.572,25.013,3.926,29.236,7.018
				c4.227,3.091,13.267,5.238,19.423,6.411c6.155,1.173,17.365,3.83,22.307,7.382c6.723,4.833,0.52,4.265,13.268,5.237
				c12.748,0.974,30.188,9.91,32.299,12.418c2.111,2.508,9.889,8.601,18.881,10.599c8.993,1.998,14.801,9.887,27.078,14.073
				c12.278,4.187,15.429,1.1,19.669,5.209c4.241,4.111,10.055,11.048,14.203,13.904c4.146,2.856,7.535,5.584,11.448,7.499
				c3.91,1.914,26.693,5.146,16.483,14.998c-10.208,9.852-13.721,10.866-16.185,5.34c-2.465-5.523-6.689-8.617-8.607-10.547
				c-1.92-1.93-10.57-4.845-12.295-8.123c-1.723-3.277-6.44-12.918-8.014-13.211c-1.57-0.292-1.369-3.565-8.299-3.201
				c-6.932,0.364-11.162-0.803-13.852-3.122c-2.687-2.317,0.771,0.388-2.687-2.317s-8.274-5.652-13.271-7.186
				c-4.99-1.533-5.226-2.237-9.82-2.574c-4.599-0.335-7.271-2.611-10.837-3.702c-3.563-1.089-5.706-3.699-7.224-6.349
				c-1.515-2.649,1.355-3.663-4.797-2.882c-6.151,0.781-7.732,7.645-12.718,4.196c-4.986-3.449-8.209-3.506-11.497-5.707
				c-3.289-2.2-10.406-6.283-10.406-6.283s-4.229,0.776-6.917-1.542c-2.688-2.318-6.33-7.526-6.33-7.526s-1.537-0.774-3.651-1.359
				c-2.115-0.584-5.953-4.445-9.416-5.226c-3.464-0.78-9.804-4.458-13.074-4.66c-3.272-0.202-26.149-9.317-35.006-8.959
				c-8.854,0.357-15.964-3.707-25.965-6.817c-10-3.11-3.485,6.919-21.557-1.221c-18.068-8.14-32.156-6.67-32.156-6.67
				s-36.924-5.148-40.383-4.648c-3.461,0.5-16.736-0.888-16.736-0.888s-11.55-0.035-22.328,0.317
				c-10.782,0.353-19.614-6.989-28.09-5.474c-8.475,1.514-10.916,1.037-22.023,4.703c-11.108,3.665-3.409,3.688-14.86,2.98
				c-11.452-0.708-15.489-1.299-19.919-1.119c-4.428,0.179-6.162,0.75-8.276,0.167c-2.115-0.583-7.891-0.601-10.972-0.225
				c-3.081,0.375-11.174,3.045-15.208,0.53s0.979-4.81-7.884-2.526c-8.861,2.283-11.197,4.977-16.766,3.609
				c-5.569-1.368-5.505-2.03-12.077-3.066c-6.573-1.036-19.618-5.417-20.99-2.866c-1.37,2.551-13.693,4.054-17.931,4.811
				c-4.237,0.757-16.179,3.416-20.226,4.75c-4.046,1.335-20.81,6.867-23.694,5.896c-2.884-0.971-5.387-0.787-8.462-2.336
				c-3.075-1.548-11.796-0.594-11.796-0.594l-6.116,1.376l-35.855,7.985c0,0,2.701-1.532-10.665,0.314
				c-13.365,1.846-16.609,2.276-16.609,2.276L99.964,108.5c0,0-5.214,0.752-8.476,1.511c-6.697,1.558-3.525-2.317-14.583,3.096
				c-12.767,6.252-17.191,5.468-23.354,6.219c-6.162,0.751-8.855,0.358-10.589,0.93c-1.734,0.572-15.138,2.274-17.92,5.913
				c-2.781,3.638-17.642,3.578-17.642,3.578l-7.015,2.314l-3.147-9.538L4.268,120.74z"/>
			<g id="Sombrilla">
				<path fill="#E8628F" d="M627.248,37.831l5.806-11.629c-3.002-1.628-6.64-2.157-10.143-1.084l4.208,12.755L627.248,37.831z"/>
				<path fill="#FFFFFF" d="M639.316,33.787c-0.022-0.074-0.036-0.146-0.062-0.22c-1.093-3.312-3.382-5.888-6.224-7.431
					l-5.827,11.566L639.316,33.787z"/>
				<path fill="#F9F9F9" d="M627.119,37.873l-4.208-12.755c-0.093,0.028-0.187,0.045-0.276,0.076
					c-3.45,1.139-6.093,3.633-7.606,6.641l11.964,6.082L627.119,37.873z"/>
				<path fill="#E8628F" d="M627.205,37.703l-0.085,0.17l11.392,5.74c1.483-2.944,1.857-6.442,0.809-9.826L627.205,37.703z"/>
				<path fill="#E8628F" d="M615.005,31.77c-1.515,3.008-1.884,6.594-0.744,10.045c0.007,0.022,0.02,0.043,0.024,0.066l12.662-4.095
					L615.005,31.77z"/>
				<path fill="#FFFFFF" d="M627.119,37.874l4.029,12.212c3.317-1.174,5.889-3.545,7.361-6.474L627.119,37.874L627.119,37.874z"/>
				<path fill="#FFFFFF" d="M627.119,37.873l-0.172-0.086l-12.662,4.095c1.195,3.557,3.767,6.258,6.923,7.729L627.119,37.873
					L627.119,37.873z"/>
				<path fill="#E8628F" d="M621.208,49.609c2.93,1.366,6.361,1.673,9.675,0.58c0.091-0.03,0.176-0.071,0.268-0.104l-4.029-12.212
					L621.208,49.609z"/>
			</g>
			<g id="Sombrilla_2_">
				<path fill="#E8628F" d="M492.34,39.863l5.807-11.629c-3.002-1.628-6.64-2.157-10.144-1.084l4.209,12.756L492.34,39.863z"/>
				<path fill="#FFFFFF" d="M504.409,35.819c-0.022-0.074-0.036-0.147-0.062-0.22c-1.094-3.312-3.383-5.888-6.225-7.43
					l-5.827,11.565L504.409,35.819z"/>
				<path fill="#F9F9F9" d="M492.212,39.905l-4.209-12.756c-0.092,0.028-0.185,0.045-0.274,0.076
					c-3.45,1.139-6.094,3.633-7.607,6.641l11.964,6.082L492.212,39.905z"/>
				<path fill="#E8628F" d="M492.298,39.734l-0.085,0.17l11.394,5.74c1.482-2.944,1.855-6.443,0.807-9.826L492.298,39.734z"/>
				<path fill="#E8628F" d="M480.098,33.802c-1.515,3.008-1.883,6.594-0.744,10.045c0.009,0.023,0.02,0.044,0.024,0.066
					l12.662-4.095L480.098,33.802z"/>
				<path fill="#FFFFFF" d="M492.213,39.906l4.029,12.212c3.316-1.174,5.888-3.545,7.361-6.474L492.213,39.906L492.213,39.906z"/>
				<path fill="#FFFFFF" d="M492.212,39.905l-0.171-0.086l-12.662,4.095c1.194,3.556,3.766,6.258,6.922,7.729L492.212,39.905
					L492.212,39.905z"/>
				<path fill="#E8628F" d="M486.301,51.642c2.93,1.366,6.361,1.673,9.674,0.58c0.094-0.03,0.178-0.072,0.27-0.104l-4.029-12.212
					L486.301,51.642z"/>
			</g>
			<g id="Sombrilla_1_">
				<path fill="#E8628F" d="M687.637,83.886l5.807-11.629c-3-1.628-6.641-2.157-10.144-1.084l4.208,12.756L687.637,83.886z"/>
				<path fill="#FFFFFF" d="M699.705,79.843c-0.021-0.073-0.036-0.146-0.061-0.22c-1.094-3.312-3.384-5.888-6.226-7.43
					l-5.827,11.566L699.705,79.843z"/>
				<path fill="#F9F9F9" d="M687.508,83.929L683.3,71.173c-0.093,0.029-0.185,0.045-0.274,0.076
					c-3.451,1.139-6.095,3.634-7.608,6.641l11.964,6.082L687.508,83.929z"/>
				<path fill="#E8628F" d="M687.594,83.758l-0.085,0.17l11.395,5.74c1.48-2.944,1.854-6.442,0.806-9.826L687.594,83.758z"/>
				<path fill="#E8628F" d="M675.395,77.825c-1.516,3.008-1.885,6.594-0.743,10.045c0.007,0.022,0.018,0.044,0.022,0.065
					l12.662-4.095L675.395,77.825z"/>
				<path fill="#FFFFFF" d="M687.508,83.93l4.029,12.211c3.318-1.174,5.889-3.545,7.363-6.474L687.508,83.93L687.508,83.93z"/>
				<path fill="#FFFFFF" d="M687.508,83.929l-0.172-0.087l-12.662,4.095c1.195,3.557,3.769,6.259,6.922,7.729L687.508,83.929
					L687.508,83.929z"/>
				<path fill="#E8628F" d="M681.596,95.666c2.933,1.366,6.362,1.672,9.678,0.579c0.091-0.03,0.176-0.072,0.266-0.104L687.51,83.93
					L681.596,95.666z"/>
			</g>
		</g>
		<g id="Capa_4_3_">
			<g>
				
					<circle fill="none" stroke="#FFFFFF" stroke-width="3" stroke-miterlimit="10" stroke-dasharray="15.2865,15.2865" cx="658.068" cy="500.776" r="121.641"/>
			</g>
			
				<line fill="none" stroke="#FFFFFF" stroke-width="2" stroke-miterlimit="10" x1="658.067" y1="500.775" x2="718.989" y2="395.488"/>
			<g>
				<path fill="#E5E5E5" d="M735.034,398.312l-24.994-14.936l-18.293,29.567c0,0-17.071,23.335-6.824,40.953
					c19.668,0.709,32.596-24.741,32.596-24.741L735.034,398.312z"/>
				<path fill="#E2E2E2" d="M688.678,447.442c0,0-11.051-5.903,1.461-27.702c12.514-21.8,15.398-23.054,15.398-23.054l20.104,12.013
					l-3.183,6.724l-11.079,18.548C711.381,433.971,699.38,452.946,688.678,447.442z"/>
				<path fill="#CECECE" d="M688.632,447.595c8.271,5.156,17.31-3.955,24.013-13.652l9.721-16.9l6.799-12.329l-5.599-5.395
					l-1.792,0.622l-6.944-4.191c0,0-0.255-1.575-0.462-1.7c-1.184-0.704-7.229-2.384-7.229-2.384s-5.085,8.09-7.378,11.729
					c-0.074,0.122-10.411,16.347-10.527,16.558C683.562,430.243,679.64,441.987,688.632,447.595z M699.925,403.973
					c0.12-0.295,7.911-10.809,7.911-10.809s4.825,1.79,5.94,2.457c0.196,0.119,0.431,1.618,0.431,1.618l6.554,3.956l1.703-0.604
					l5.208,4.422l-5.867,12.016c-5.791,10.009-6.066,10.03-9.854,16.497c-6.651,9.395-15.918,18.062-23.129,13.499
					c-7.165-4.537-4.021-16.504,1.149-26.633C690.203,420.021,699.907,404.192,699.925,403.973z"/>
				<path fill="#EFEFEF" d="M697.104,423.089l0.427,2.148l2.703,2.287l0.006-0.011l0.264,0.159l0.043,0.025l0.429,0.255
					l-0.006,0.012l3.221,1.247l2.181-0.587c1.082-0.095,2.854-2.762,2.854-2.762l3.045-5.098l0.084-1.46l-4.141-1.59l-2.433,1.218
					l-0.07-2.713l-3.325-2.869l-1.169,0.812l-3.044,5.096C698.172,419.26,696.673,422.093,697.104,423.089z"/>
				<path fill="#C6C6C6" d="M700.799,415.989c-0.082,0.161,0.043,3.312,0.043,3.312l6.656,4.032l3.095-1.435l0.2-0.338l0.102-0.169
					l0.102-0.168l1.004-1.682l-9.819-5.867C702.179,413.679,700.883,415.826,700.799,415.989z"/>
				<path fill="#29ABE2" d="M699.252,420.929l3.391,2.026l1.293,0.771l3.059,1.823c0,0,1.754-0.714,3.938-4.006
					c0.015-0.02-0.174-0.106-0.174-0.106c-0.817,0.362-2.828,1.466-2.828,1.466l-3.238-1.9l-3.553-2.145
					c0,0,0.014-2.281-0.057-3.177c0,0-0.152-0.142-0.165-0.122C699.049,419.045,699.252,420.929,699.252,420.929z"/>
				<g id="Timó_4_">
					<path d="M710.453,419.404c0.812-1.362-3.618-4.146-4.5-2.67C705.18,418.03,709.601,420.835,710.453,419.404z M710.054,419.188
						c-0.583,0.975-4.245-1.323-3.716-2.206C706.938,415.974,710.608,418.259,710.054,419.188z"/>
					<path d="M708.317,419.161c0,0,0.239-0.434-0.271-0.73c-0.512-0.298-0.67,0.121-0.702,0.151
						C707.312,418.611,708.317,419.161,708.317,419.161z"/>
					<polygon points="708.141,418.646 708.894,417.682 708.223,417.282 707.778,418.43 					"/>
					<path d="M707.58,418.55c-0.012-0.008-1.215-1.691-1.215-1.691l-0.314,0.383l1.356,1.479L707.58,418.55z"/>
					<path d="M708.188,418.912c0.012,0.007,2.041,0.251,2.041,0.251l-0.25,0.419l-1.849-0.434L708.188,418.912z"/>
				</g>
				<g id="Tapiceria_4_">
					<path fill="#E8CDA0" d="M689.972,420.395c0,0,5.521,3.24,3.253,9.798c-2.266,6.557-6.341,14.993-6.354,15.212
						C686.852,445.621,679.833,438.695,689.972,420.395z"/>
					<path fill="#E8CDA0" d="M711.951,433.524c0,0-5.471-3.324-10.17,1.776c-4.699,5.105-10.198,12.688-10.382,12.809
						C691.215,448.225,700.637,451.123,711.951,433.524z"/>
					<path fill="#E8CDA0" d="M725.186,410.415c0,0-0.401,1.594-1.447,0.331c-3.438-4.16-13.51-10.633-19.301-11.418
						c-1.215-0.165-1.055-0.4-0.636-1.034c0.315-0.475,4.034-5.129,4.034-5.129s9.688,1.689,19.838,11.851L725.186,410.415z"/>
					<path fill="#E8CDA0" d="M705.586,406.849c0.168-0.277,1.121-0.464,1.509-0.231l8.852,5.287c0.388,0.23,0.127,0.828-0.043,1.104
						l-1.764,2.952c-0.167,0.279-0.447,0.595-0.838,0.362l-8.849-5.286c-0.389-0.233-0.799-0.959-0.629-1.239L705.586,406.849z"/>
				</g>
				<path fill="#394963" d="M720.34,385.021c0.297-0.513,0.953-0.688,1.465-0.391l5.405,3.127c0.512,0.298,0.688,0.954,0.39,1.468
					l-4.805,8.301c-0.297,0.513-0.954,0.688-1.467,0.391l-5.404-3.128c-0.512-0.296-0.687-0.953-0.389-1.465L720.34,385.021z"/>
			</g>
		</g>
		<g id="Capa_4_1_">
			<g>
				
					<circle fill="none" stroke="#FFFFFF" stroke-width="3" stroke-miterlimit="10" stroke-dasharray="15.2865,15.2865" cx="146.195" cy="637.573" r="121.642"/>
			</g>
			
				<line fill="none" stroke="#FFFFFF" stroke-width="2" stroke-miterlimit="10" x1="146.195" y1="637.573" x2="242.735" y2="563.567"/>
			<g>
				<path fill="#E5E5E5" d="M256.482,572.311l-17.388-23.354l-28.205,20.331c0,0-24.694,15.037-21.96,35.235
					c17.903,8.173,39.578-10.404,39.578-10.404L256.482,572.311z"/>
				<path fill="#E2E2E2" d="M194.866,599.99c0,0-7.954-9.678,11.939-25.041c19.894-15.362,23.04-15.416,23.04-15.416l13.988,18.785
					l-5.512,4.993l-17.327,12.905C220.995,596.219,202.653,609.167,194.866,599.99z"/>
				<path fill="#CECECE" d="M194.767,600.113c5.671,7.927,17.504,2.962,27.408-3.439l15.441-11.9l10.995-8.795l-3.111-7.125
					l-1.895-0.108l-4.814-6.527c0,0,0.366-1.553,0.223-1.748c-0.823-1.103-5.768-4.966-5.768-4.966s-7.792,5.532-11.302,8.021
					c-0.117,0.084-15.868,11.124-16.058,11.272C196.713,582.142,188.6,591.495,194.767,600.113z M221.875,564.12
					c0.225-0.228,11.441-6.964,11.441-6.964s3.775,3.5,4.551,4.541c0.138,0.187-0.22,1.66-0.22,1.66l4.544,6.159l1.803,0.098
					l3.124,6.075l-10.014,8.858c-9.178,7.035-9.442,6.951-15.414,11.478c-9.736,6.139-21.614,10.607-26.531,3.635
					c-4.887-6.935,2.593-16.787,11.242-24.169C206.757,575.233,221.775,564.317,221.875,564.12z"/>
				<path fill="#EFEFEF" d="M211.961,580.705l-0.429,2.148l1.624,3.146l0.009-0.006l0.183,0.248l0.03,0.041l0.298,0.397l-0.01,0.011
					l2.497,2.382l2.241,0.292c1.037,0.325,3.694-1.461,3.694-1.461l4.76-3.545l0.636-1.317l-3.217-3.051l-2.713,0.193l0.971-2.533
					l-1.975-3.922l-1.389,0.303l-4.763,3.545C214.411,577.576,211.944,579.621,211.961,580.705z"/>
				<path fill="#C6C6C6" d="M218.09,575.559c-0.138,0.118-1.228,3.078-1.228,3.078l4.61,6.271l3.408-0.146l0.314-0.231l0.156-0.117
					l0.158-0.117l1.571-1.17l-6.832-9.175C220.248,573.951,218.229,575.44,218.09,575.559z"/>
				<path fill="#29ABE2" d="M214.773,579.532l2.357,3.167l0.901,1.209l2.126,2.852c0,0,1.895,0.012,5.17-2.195
					c0.019-0.014-0.121-0.163-0.121-0.163c-0.895,0.021-3.173,0.271-3.173,0.271l-2.268-2.995l-2.461-3.339
					c0,0,0.883-2.104,1.161-2.955c0,0-0.086-0.188-0.106-0.176C215.305,577.713,214.773,579.532,214.773,579.532z"/>
				<g id="Timó_1_">
					<path d="M225.706,582.405c1.273-0.948-1.76-5.214-3.138-4.188C221.358,579.118,224.371,583.401,225.706,582.405z
						 M225.419,582.051c-0.91,0.678-3.416-2.847-2.589-3.459C223.769,577.891,226.287,581.405,225.419,582.051z"/>
					<path d="M223.824,581.363c0,0,0.389-0.309,0.031-0.777c-0.359-0.471-0.665-0.144-0.708-0.13
						C223.106,580.472,223.824,581.363,223.824,581.363z"/>
					<polygon points="223.858,580.819 224.923,580.217 224.455,579.592 223.606,580.481 					"/>
					<path d="M223.377,580.516c-0.007-0.011-0.476-2.026-0.476-2.026l-0.436,0.232l0.688,1.888L223.377,580.516z"/>
					<path d="M223.799,581.083c0.007,0.011,1.79,1.012,1.79,1.012l-0.391,0.292l-1.541-1.104L223.799,581.083z"/>
				</g>
				<g id="Tapiceria_1_">
					<path fill="#E8CDA0" d="M206.4,575.491c0,0,3.864,5.104-0.738,10.295c-4.599,5.192-11.59,11.433-11.688,11.627
						C193.876,597.608,190.037,588.526,206.4,575.491z"/>
					<path fill="#E8CDA0" d="M221.692,596.024c0,0-3.785-5.163-10.077-2.244c-6.292,2.923-14.274,7.828-14.489,7.866
						C196.911,601.684,204.511,607.963,221.692,596.024z"/>
					<path fill="#E8CDA0" d="M242.756,579.729c0,0-0.982,1.318-1.465-0.246c-1.585-5.157-8.419-14.989-13.471-17.931
						c-1.058-0.616-0.82-0.771-0.191-1.195c0.472-0.319,5.688-3.198,5.688-3.198s8.307,5.265,13.802,18.534L242.756,579.729z"/>
					<path fill="#E8CDA0" d="M226.007,568.941c0.262-0.194,1.213,0,1.484,0.359l6.157,8.271c0.269,0.361-0.2,0.812-0.463,1.006
						l-2.755,2.056c-0.262,0.192-0.642,0.378-0.913,0.014l-6.156-8.268c-0.269-0.362-0.373-1.191-0.108-1.385L226.007,568.941z"/>
				</g>
				<path fill="#394963" d="M247.983,554.412c0.47-0.361,1.144-0.271,1.503,0.199l3.799,4.953c0.36,0.472,0.271,1.146-0.2,1.507
					l-7.613,5.835c-0.471,0.358-1.145,0.271-1.505-0.201l-3.797-4.955c-0.36-0.469-0.271-1.145,0.2-1.503L247.983,554.412z"/>
			</g>
		</g>
	</g>
	<g display="inline">
		<path opacity="0.7" fill="#1AB737" enable-background="new    " d="M488.055,360.332
			c-47.227-61.202-135.124-72.532-196.327-25.308c-61.201,47.225-72.531,135.123-25.307,196.324
			c47.227,61.202,135.122,72.533,196.325,25.311C523.945,509.432,535.279,421.533,488.055,360.332z M448.188,512.142
			c-0.127,0.042-4.897-4.562-7.24-6.747c-35.824,33.771-91.856,32.736-126.465-1.854c-2.854,2.682-8.47,7.832-8.611,7.784
			l-2.415-33.77l31.509,6.428c0,0-5.116,4.975-7.484,7.265c11.155,11.03,25.521,17.75,40.521,20.111V397.734
			c-6-3.581-11.28-10.235-11.28-17.861c0-11.409,9.18-20.658,20.587-20.658c11.409,0,20.84,9.249,20.84,20.658
			c0,7.702-5.146,14.415-11.146,17.966V511.79c14-1.764,29.569-7.982,41.25-18.716c-2.865-2.765-7.765-7.457-7.765-7.457
			l32.312-5.959L448.188,512.142z"/>
		<circle opacity="0.7" fill="#1AB737" enable-background="new    " cx="377.237" cy="379.406" r="8.413"/>
	</g>
</g>
<g>
	<polygon fill="#FFFFFF" points="404.301,282.657 414.023,296.276 423.241,282.31 	"/>
</g>
</svg>
