<?xml version="1.0" encoding="utf-8"?>
<!-- Generator: Adobe Illustrator 16.0.0, SVG Export Plug-In . SVG Version: 6.00 Build 0)  -->
<!DOCTYPE svg PUBLIC "-//W3C//DTD SVG 1.1//EN" "http://www.w3.org/Graphics/SVG/1.1/DTD/svg11.dtd">
<svg version="1.1" id="Port" xmlns="http://www.w3.org/2000/svg" xmlns:xlink="http://www.w3.org/1999/xlink" x="0px" y="0px"
	 width="800px" height="800px" viewBox="0 0 800 800" enable-background="new 0 0 800 800" xml:space="preserve">
<g id="Barco_amarrat">
	<g id="Cèl_3_">
		
			<linearGradient id="SVGID_1_" gradientUnits="userSpaceOnUse" x1="389.0723" y1="1182.5781" x2="1208.3887" y2="1182.5781" gradientTransform="matrix(0 -1 -1 0 1580.5 1197.5)">
			<stop  offset="0" style="stop-color:#FFFFFF"/>
			<stop  offset="0.2007" style="stop-color:#D0F4FF"/>
			<stop  offset="0.4088" style="stop-color:#92E5FF"/>
			<stop  offset="0.5555" style="stop-color:#5ED9FF"/>
			<stop  offset="0.6919" style="stop-color:#35CFFF"/>
			<stop  offset="0.8155" style="stop-color:#18C9FF"/>
			<stop  offset="0.9223" style="stop-color:#06C4FF"/>
			<stop  offset="1" style="stop-color:#00C3FF"/>
		</linearGradient>
		<polygon fill="url(#SVGID_1_)" points="-10.511,-10.889 806.356,-10.889 803.182,808.428 -7.659,808.428 		"/>
	</g>
	<path fill="#3F3F3F" d="M714.859,517.836c0-5.064-4.105-9.17-9.17-9.17h-4.092c-5.062,0-9.169,4.105-9.169,9.17v39.745
		c0,5.062,4.105,9.169,9.169,9.169h4.092c5.062,0,9.17-4.105,9.17-9.169V517.836z"/>
	<path fill="none" stroke="#753C15" stroke-width="5" stroke-linecap="round" stroke-linejoin="round" stroke-miterlimit="10" d="
		M521.73,531.633c0,0,37.182-15.861,38.476-50.664c1.294-34.802,4.294-49.388,14.294-57.095s10.667-38.708,55-34.374
		s70.678,5.493,91.667,38.131c0,0,70.979,92.384,36.333,115.049c-32.572,21.31-45.667-14.512-45.667-14.512"/>
	<rect x="672.182" y="545.646" fill="#968E89" width="139.069" height="262.78"/>
	
		<polyline fill="none" stroke="#753C15" stroke-width="6" stroke-linecap="round" stroke-linejoin="round" stroke-miterlimit="10" points="
		692.431,519.283 714.859,519.283 692.431,524.59 714.859,524.59 	"/>
	<path fill="none" stroke="#753C15" stroke-width="6" stroke-linecap="round" stroke-linejoin="round" stroke-miterlimit="10" d="
		M540.117,544.68"/>
	<g>
		<g id="Señor_copia_3">
			<g>
				<path fill="#FFCBA1" d="M506.814,552.815c0,0,3.14,2.511,1.525,5.059c-1.618,2.548-6.109,6.83-6.747,11.61
					c-0.642,4.774-1.13,9.916-1.768,14.056c-0.642,4.143-3.525,11.956-3.525,11.956h10.065l5.592-14.745
					c0,0,3.519-2.477,4.794-8.055c1.279-5.574,4.63-9.873,5.589-11.783c0.962-1.909,2.4-3.824,0.802-7.167
					c-1.599-3.344-4.232-7.802-4.232-7.802L506.814,552.815z"/>
				<path fill="#FFCBA1" d="M542.355,474.478l-8.189,6.979l-2.44,2.785c-1.476,0,16.31-3.271,21.451-3.271
					c3.036,0,6.229,0.953,7.029,0c0.795-0.955-0.479-2.07,1.276-3.026c1.758-0.954,6.069-1.912,5.911-4.302
					c-0.161-2.388-1.312-6.262-3.673-4.299c-1.921,1.592-4.794,2.39-7.188,3.186c-2.397,0.798-8.769,0.934-13.878,2.05
					L542.355,474.478z"/>
				<path fill="#FFCBA1" d="M511.471,482.843c0.24-1.489,2.479-4.825,4.895-6.131c2.408-1.302,7.135-0.768,7.945-0.506
					c0.812,0.264,1.304-0.124,1.304-0.124s4.08-1.327,6.102-2.28c2.024-0.957,7.084-3.979,6.76-5.575
					c-0.317-1.591,1.282-3.022,2.88-6.209c1.595-3.188,4.312-2.39,5.11-2.709c3.023-1.208,0.64,2.387,2.558,3.981
					c1.916,1.593,1.438,3.023,1.438,4.617c0,1.595-0.958,2.07-5.113,4.777c-5.002,3.262-6.337,4.987-12.46,10.511
					c-6.71,6.051-7.667,6.054-10.543,7.165c-2.873,1.113-2.234,0.639-5.271,0c-3.036-0.636-5.362-7.076-5.362-7.076"/>
				<path fill="#FFCBA1" d="M509.086,432.734h2.008l18.211,1.238l1.684,1.926c0,0,0.089,0.277-0.342,3.342
					c-0.269,1.953-1.595,4.301-2.712,5.894c-1.114,1.591-2.553,5.892-2.877,6.676c-0.313,0.781-2.556,1.917-3.675,1.28
					c-1.114-0.634-1.229,3.798-1.452,4.276l-0.404,0.521l-5.712-4.499l-5.51-7.737c0.049-1.329,0.461-4.404,0.144-7.435
					C508.128,435.193,509.086,432.734,509.086,432.734L509.086,432.734z"/>
				<path fill="#F7931E" stroke="#F7931E" stroke-miterlimit="10" d="M512.916,531.292c1.917,5.254,7.284,15.928,7.284,15.928
					s-3.929,1.272-5.287,1.59c-1.357,0.316-10.783,7.646-14.298,7.646c-3.518,0-13.577,1.271-13.419,0
					c0.157-1.273-1.759-3.346-3.035-7.325c-1.277-3.981-2.716-4.938-3.908-11.146c-1.188-6.214-2.518-10.514-2.518-10.514
					s-2.521-5.255-2.521-12.604c0-7.351,5.985-12.006,5.985-12.006l30.25,11.284c-0.158,0.479,0.507,6.797-0.452,8.864
					C510.042,525.078,511,526.037,512.916,531.292z"/>
				<path fill="#FFF599" d="M524.742,473.324c1.273,3.344,1.273,3.344-0.802,3.024c-1.818-0.28-7.688,0.056-10.403,3.037
					c0,0-1.418,1.765-1.418,4.051c1.845,6.735,7.986,7.562,7.986,7.562s0,0-0.956,3.346c-0.959,3.348-0.959,3.188-2.719,6.212
					c-1.756,3.023-1.276,5.098-3.034,9.872c-1.757,4.778-2.396,4.778-7.509,4.143c-5.109-0.638-10.223-4.616-12.461-6.688
					c-2.233-2.071-11.66-3.188-12.777-5.733c-1.119-2.551,0.48-2.866,0.8-4.459c0.314-1.595,1.435-1.752,0.798-4.621
					c-0.64-2.865,0.957-5.098,0.957-5.098c8.146-38.382,24.123-42.84,24.123-42.84s5.589,0.772,8.628,6.679
					c3.036,5.903,5.428,5.903,5.59,8.293c0.157,2.39-0.32,3.024,0.801,4.938c1.115,1.906,0.956,2.708,1.275,4.776
					C523.942,471.89,523.463,469.976,524.742,473.324z M511.681,482.074c-0.017,0.002-0.025,0.008-0.041,0.008c0-0.002,0,0,0,0
					C511.684,482.184,511.697,482.172,511.681,482.074z"/>
				<g>
					<path fill="#662F09" d="M511.471,428.111c0,0-2.385,5.351-2.919,7.254c-0.527,1.9-0.056,3.781-0.056,3.781l-0.191,3.256
						c0,0-0.408,1.83,0.781,2.73c1.18,0.904,2.278,0.857,2.825,0.923c0.543,0.069,2.922,1.021,3.871,1.087
						c0.953,0.064,1.837-0.679,4.146-3.725c2.312-3.051,3.466-2.035,6.322-5.693c2.852-3.658-0.546-3.86-0.635-4.473
						c-0.088-0.61-3.921-4.605-3.921-4.605s-9.376-1.017-9.784-1.017"/>
					<path fill="#908DFF" d="M529.532,436.719c-9.266,0.025-20.446-2.244-20.446-3.528c0-9.717,8.146-12.267,15.494-10.192
						c7.349,2.07,6.943,10.462,6.672,12.572C531.164,436.251,529.532,436.719,529.532,436.719z M515.046,428.743
						c-3.297-0.335-3.501,3.425-3.501,3.425c0.213,0.068,1.065,0.5,2.396,0.812c1.676,0.385,3.872,0.656,3.872,0.656
						S518.764,429.117,515.046,428.743z"/>
				</g>
			</g>
		</g>
		<g id="Capa_22_copia_3_">
			<path fill="#36627A" d="M90.501,553.396c1.599,2.779,3.418,20.469,0.387,24.253c-3.03,3.781-12.733,8.104-14.188,8.238
				c-1.456,0.139,5.965,40.608,5.965,40.608s0.316,31.154-2.505,33.834c-2.814,2.682-23.194,17.432-27.106,17.664
				c-3.915,0.233-10.948,0.425-11.979-1.432c-1.02-1.86,3.872-10.399,3.941-11.271c0.172-2.104,0.672-7.956,0.363-9.231
				c-0.3-1.278-2.205-11.09-3.071-12.958c-0.866-1.875-17.766-0.339-19.695,0.043c-1.928,0.376-2.017-1.914-2.017-1.914
				c2.331-5.676,17.895-14.783,17.895-14.783s-4.803-7.838-8.567-12.184c-3.757-4.345-11.004-31.292-13.611-42.941
				c-2.601-11.652,3.72-26.758,5.85-27.287C54.117,536.074,88.885,550.621,90.501,553.396z"/>
			<path fill="#6C808C" d="M40.538,652.315c-1.875-2.104-5.97-3.515-9.117-2.999c-3.143,0.51-2.819,0.471-4.046,3.48
				c-1.228,3.012,7.1,1.857,9.072,2.619c1.97,0.768-0.516,2.76-0.858,2.642c-0.342-0.112-7.101,0.786-7.101,0.786l0.184,7.181
				c0,0,8.829-1.542,9.374-0.369c0.551,1.173-4.619,4.78-7.324,7.785c-2.711,3.008,0.396,3.651,4.894,1.267
				c4.5-2.387,7.205-9.824,7.205-9.824s1.226-0.057,3-0.335c1.776-0.278,0.804-3.123,0.883-5.392
				c0.077-2.269-0.706-3.411-0.918-3.83c-0.209-0.412-3.566,0.396-3.566,0.396S42.405,654.419,40.538,652.315z"/>
		</g>
		<path fill="#FFFFFF" stroke="#FFFFFF" stroke-miterlimit="10" d="M194.137,601.144l-140.381,0.273l17.094,39.2
			c8.062,0.228,202.555,7.33,266.151,5.017c3.212-0.117,15.667,0.098,18.176,0.006c16.329-0.596,28.85-0.05,43.976-0.73
			c13.495,0.673,26.216,0.546,38.604,0.092c14.468-0.526,26.325-2.468,37.337-6.108c47.854-15.825,65.934-34.967,80.46-50.347
			c2.297-2.435,4.465-4.727,6.647-6.897c0.161-0.168,0.314-0.327,0.49-0.494c-64.43,33.968-152.656,38.837-216.139,42.955
			c-10.188,0.666-20.146,2.233-29.589,2.578c-54.54,1.982-89.039,1.285-89.502,1.258l-2.57-1.908L194.137,601.144z"/>
		<path fill="#FF0000" d="M348.535,630.205c63.752-4.132,152.273-16.782,216.664-51.107l0.943-0.928
			c9.486-9.617,13.715-15.737,16.474-19.971c1.369-2.089,2.353-3.602,3.484-4.727c1.494-1.488,3.978-3.31,5.673-4.468
			c-10.166,1.41-49.619,4.84-109.454,3.984c-32.904-0.468-104.435,2.938-188.995,11.247
			C175.622,575.805,96.38,590.976,55.347,602.609l134.177,2.729l32.89,25.546C225.277,631.077,281.003,634.597,348.535,630.205z"/>
		<path d="M293.258,522.064c-0.612-1.137-1.101-1.984-1.492-2.625c-0.196-0.316-0.369-0.583-0.518-0.811
			c-0.752-1.104-0.984-1.102-1.126-1.099l-0.396,0.267c-0.182,0.37-0.381,0.771-0.615,1.186c-0.157,0.275-0.32,0.562-0.498,0.854
			c-0.09,0.146-0.179,0.293-0.268,0.44c-2.449,3.852-6.579,8.423-9.183,7.839c-1.241-0.283-2.008-1.087-2.356-2.474
			c-0.046-0.16-0.073-0.334-0.102-0.505c-0.025-0.18-0.053-0.358-0.06-0.551c-0.342-4.978,3.74-14.896,9.347-21.334
			c0.866-0.99,1.765-1.896,2.688-2.691c0.516-0.441,1.101-0.896,1.721-1.28c0.999-0.617,2.089-1.075,3.117-1.062
			c0.387,0.005,0.764,0.077,1.132,0.231c0.581,0.241,0.978,0.672,1.211,1.314c0.154,0.427,0.224,0.918,0.242,1.445
			c0.098,3.72-2.859,9.494-2.899,9.563l-0.219,0.428l5.219,1.301L293.258,522.064z M293.224,503.651
			c-0.037-0.569-0.192-1.036-0.526-1.339c-0.061-0.064-0.133-0.12-0.213-0.171c-0.2-0.119-0.425-0.178-0.67-0.169
			c-0.17,0.008-0.347,0.051-0.551,0.134c-1.368,0.546-3.286,2.767-5.193,5.601l-0.094-0.102l-0.095-0.105l-1.646,3.122
			c-0.823,1.392-1.603,2.832-2.296,4.229c-1.156,2.335-2.063,4.547-2.507,6.194c-0.248,0.941-0.344,1.695-0.293,2.268
			c0.011,0.145,0.042,0.275,0.068,0.396c0.092,0.36,0.273,0.621,0.535,0.784c0.116,0.069,0.243,0.099,0.379,0.096
			c1.582-0.062,6.478-6.449,8.494-9.558c0.073-0.12,0.144-0.229,0.211-0.336c0.125-0.21,0.247-0.4,0.336-0.568
			c0.104-0.167,0.177-0.311,0.224-0.429c0.062-0.103,0.132-0.228,0.225-0.382c0.09-0.148,0.183-0.325,0.291-0.52
			C291.082,510.666,293.374,506.154,293.224,503.651z"/>
		<path fill="#3FA9F5" d="M324.811,471.385c-2.159-0.729-9.575-0.521-11.798-0.44c-0.321,0.013-0.578,0.021-0.764,0.025
			l-3.052,20.919l-1.284,0.503l-1.278,0.503l-13.751,29.474l-0.59,8.245l2.498,6.228l7.856-0.078
			c0.368-4.885,2.506-22.402,2.558-22.503c1.529-2.892,11.519-5.947,13.42-6.443c0.065-0.021,0.118-0.032,0.161-0.041
			c0.196-0.066,0.402-0.131,0.612-0.191c0.521-0.158,1.078-0.317,1.668-0.478c0.231-0.063,0.47-0.133,0.713-0.191
			c0.778-0.206,1.598-0.409,2.443-0.609c0.201-0.047,0.397-0.093,0.603-0.141c0.387-0.092,0.776-0.185,1.17-0.271
			c6.188-1.405,13.328-2.835,15.362-3.189C335.885,490.609,326.615,472.012,324.811,471.385z"/>
		<path d="M286.155,508.911c-0.287,0.427-0.564,0.865-0.841,1.309l-1.421,2.704l3.654,0.636l-0.102,0.396
			c-0.001,0.01-0.057,0.269-0.043,0.594c0.009,0.19,0.048,0.403,0.14,0.604c0.486-0.745,0.866-1.376,1.056-1.802
			c0.348-0.598,0.702-1.238,1.052-1.906c-0.057,0.051-0.117,0.094-0.189,0.112c-0.024,0.007-0.051,0.014-0.091,0.017
			C289.111,511.59,288.444,511.37,286.155,508.911z"/>
		<path d="M289.617,513.318c-0.087,0.151-0.16,0.278-0.221,0.382c-0.047,0.119-0.122,0.259-0.223,0.429
			c-0.095,0.171-0.213,0.356-0.337,0.568c-0.067,0.104-0.138,0.219-0.211,0.334c-2.013,3.108-6.907,9.5-8.494,9.558
			c-0.135,0.005-0.271-0.026-0.377-0.095c-0.272-0.162-0.445-0.425-0.539-0.785c-0.032-0.12-0.056-0.254-0.068-0.395
			c-0.051-0.57,0.054-1.322,0.294-2.269c0.442-1.651,1.349-3.862,2.513-6.192c0.685-1.396,1.477-2.842,2.291-4.229l1.644-3.119
			l0.095,0.103l0.096,0.102c1.905-2.828,3.821-5.056,5.193-5.603c0.196-0.079,0.379-0.125,0.551-0.133
			c0.253-0.009,0.473,0.051,0.668,0.174c0.079,0.051,0.153,0.104,0.216,0.168c0.33,0.307,0.487,0.771,0.523,1.339
			c0.143,2.501-2.143,7.018-3.326,9.146C289.797,512.993,289.703,513.168,289.617,513.318z M280.117,521.241
			c-0.528,2.002-0.256,2.479-0.149,2.571c1.263-0.287,4.926-4.81,7.097-7.974c-0.436-0.533-0.47-1.228-0.429-1.657l-3.283-0.568
			C281.901,516.334,280.682,519.087,280.117,521.241z M285.311,510.223l-1.425,2.705l3.652,0.638l-0.097,0.393
			c-0.003,0.006-0.06,0.271-0.045,0.593c0.009,0.19,0.055,0.404,0.139,0.604c0.487-0.745,0.868-1.376,1.057-1.8
			c0.346-0.601,0.701-1.24,1.052-1.908c-0.055,0.051-0.116,0.091-0.19,0.113c-0.025,0.006-0.048,0.013-0.089,0.016
			c-0.26,0.018-0.925-0.201-3.228-2.659C285.868,509.338,285.59,509.774,285.311,510.223z M292.085,502.795
			c-0.059-0.04-0.147-0.06-0.242-0.056c-1.072,0.039-3.132,2.369-5.266,5.521c1.006,1.067,2.126,2.15,2.609,2.464
			c0.248-0.404,0.741-0.58,1.157-0.642C291.941,506.805,293.127,503.436,292.085,502.795z"/>
		<g>
			<path fill="#FFFFFF" d="M529.068,548.427c15.31-0.892,54.592,0.936,64.021-5.747c-0.726-0.121-1.542-0.788-2.559-0.771
				c0,0-52.43-8.858-89.728-12.737c-2.384-0.244-4.561-0.389-6.467-0.553c-24.629-2.124-134.768-4.62-135.887-4.646l-0.196-0.005
				l-0.115-0.173c-0.347-0.531-8.388-13.062-9.333-14.675c-0.457-0.781-0.501-1.858-0.548-2.999c-0.054-1.322-0.11-2.69-0.876-3.342
				c-0.703-0.6-2.23-0.887-4.32-0.812c-0.738,0.028-1.268,0.096-1.271,0.096l-0.274,0.035l-0.043-0.091
				c-2.484,0.433-16.036,2.842-22.491,4.909c-3.67,0.944-13.345,3.914-14.041,6.176c-0.892,2.896-2.864,21.854-2.892,22.03
				l0.006,1.307l-7.209,0.265l-2.505-6.209l-16.606,1.957l-26.89,3.427l-0.147-0.859c1.826-0.41,2.214-1.067,2.366-3.629
				c0.044-0.798-0.536-1.925-1.599-3.044c-1.725-1.818-4.845-3.781-7.588-3.765c-0.917,0.005-2.49-0.062-4.479-0.131
				c-4.032-0.15-9.544-0.358-14.052-0.193c-4.902,0.182-6.627,0.741-7.203,1.182c-0.781,0.598-1.166,1.228-1.164,1.865
				c0.013,1.104,1.181,1.973,1.191,1.983l0.758,0.555l-8.096,1.123l-0.111,3.968l-38.998,3.596l-2.27,4.556l-46.12,1.811
				l-21.379,6.05l0.396,24.673l-11.793,4.855l-0.066,0.025l-28.876,0.543l-6.448,4.271l0.749,11.879
				c51.391-12.077,157.039-30.501,260.144-39.25C451.711,546.239,513.759,549.318,529.068,548.427z"/>
			<path fill="#FFFFFF" d="M593.091,542.68c-10.495,4.137-48.084,3.834-63.393,4.728c-15.312,0.89-77.122-2.529-214.772,9.15
				c-103.103,8.75-209.409,28.493-260.988,40.578l0.002,0.036l-0.285,0.125c-2.926,2.002-4.453,3.307-4.559,3.997
				c-0.037,0.188,0.034,0.321,0.221,0.555c0.079,0.103,0.142,0.199,0.197,0.307c0.162,0.183,1.387,0.479,4.811,0.398l1.794-0.443
				c40.955-10.16,115.06-24.756,235.582-36.601c84.584-8.31,155.68-11.556,188.611-11.086c63.663,0.912,104.746-4.437,111.462-5.424
				c1.499-1.3,2.035-1.729,2.088-1.756c1.648-0.551,2.632-1.571,2.465-2.549C596.193,543.91,595.244,543.037,593.091,542.68z"/>
		</g>
		<path fill="#C99B59" d="M214.815,530.188c0,0-4.08-4.438,3.027-6.196c5.206-1.288,20.668-0.225,24.84-0.155
			c4.172,0.069,9.03,5.821,8.711,8.501c-0.273,2.288-0.64,4.796-4.514,3.688c-3.876-1.109-3.4-4.047-5.573-4.217
			C239.133,531.635,216.662,530.405,214.815,530.188z"/>
		<g id="Petita_7_">
			<path fill="#283C8E" d="M414.254,544.713V540.5c0-2.71-2.191-4.646-4.904-4.646h-0.281c-2.711,0-4.904,1.937-4.904,4.646v4.096
				c-3.783,1.394-6.744,5.13-6.744,8.912h23.574C420.998,549.729,418.037,546.185,414.254,544.713z M409.209,541.627
				c-1.007,0-1.824-0.816-1.824-1.825c0-1.007,0.817-1.823,1.824-1.823c1.008,0,1.824,0.816,1.824,1.823
				C411.033,540.811,410.217,541.627,409.209,541.627z"/>
			<path fill="#283C8E" d="M404.165,602.363v3.253c0,2.712,2.191,4.646,4.904,4.646h0.281c2.712,0,4.903-1.935,4.903-4.646v-3.527
				c3.784-1.456,6.334-4.438,6.7-8.222h-23.497C397.791,597.653,400.381,601.064,404.165,602.363z M409.209,603.653
				c1.008,0,1.824,0.815,1.824,1.822c0,1.008-0.816,1.822-1.824,1.822c-1.007,0-1.824-0.814-1.824-1.822
				C407.385,604.471,408.202,603.653,409.209,603.653z"/>
			<path fill="#CCCCCE" d="M420.561,553.512h-22.7v39.333c0,0.287-0.426,1.025-0.401,1.025h23.498c0.026,0-0.396-0.739-0.396-1.025
				V553.512L420.561,553.512z"/>
		</g>
		<g id="Petita_6_">
			<path fill="#283C8E" d="M209.941,544.713V540.5c0-2.71-2.191-4.646-4.904-4.646h-0.281c-2.713,0-4.905,1.937-4.905,4.646v4.096
				c-3.783,1.394-6.744,5.13-6.744,8.912h23.576C216.685,549.729,213.725,546.185,209.941,544.713z M204.896,541.627
				c-1.008,0-1.824-0.816-1.824-1.825c0-1.007,0.816-1.823,1.824-1.823s1.824,0.816,1.824,1.823
				C206.72,540.811,205.904,541.627,204.896,541.627z"/>
			<path fill="#283C8E" d="M199.852,602.363v3.253c0,2.712,2.191,4.646,4.905,4.646h0.28c2.714,0,4.905-1.935,4.905-4.646v-3.527
				c3.783-1.456,6.333-4.438,6.7-8.222h-23.496C193.478,597.653,196.068,601.064,199.852,602.363z M204.896,603.653
				c1.008,0,1.824,0.815,1.824,1.822c0,1.008-0.816,1.822-1.824,1.822s-1.824-0.814-1.824-1.822
				C203.073,604.471,203.889,603.653,204.896,603.653z"/>
			<path fill="#CCCCCE" d="M216.247,553.512h-22.701v39.333c0,0.287-0.424,1.025-0.401,1.025h23.496
				c0.027,0-0.394-0.739-0.394-1.025V553.512z"/>
		</g>
	</g>
	<g id="_x31__1_">
		<path fill="#996234" d="M258.509,536.608c0,0-2.745-3.186-2.14-6.937c0.6-3.753,1.438-5.667,3.742-6.325
			c2.301-0.661,5.423-0.965,6.063-0.638c0.642,0.325,8.405,3.401,10.179,4.019c1.771,0.615,6.614,3.817,6.712,5.296
			c0.11,1.476,0.386,1.949,0.983,3.392c0.604,1.44,1.515,7.954,1.515,7.954l-11.716,1.291c0,0,0.131-4.571-0.736-4.883
			c-0.863-0.311-12.299-1.479-13.08-1.914C259.268,537.425,258.509,536.608,258.509,536.608z"/>
		<path fill="#EF45B7" d="M215.141,518.344c0,0-0.615-5.798-0.864-5.798c-0.248,0,8.127-0.492,10.115-1.977
			c2.468-1.835,16.038-1.726,16.038-1.726l9.003,8.268l10.396,7.812c0,0-2.994,9.823-4.475,9.823c-0.697,0-8.104-6.713-14.803-6.907
			c-7.464-0.215-8.016,4.069-6.291,13.324c0.326,1.749-15.42-8.76-15.42-8.76s-2.972-2.224-3.709-6.169
			C214.4,522.294,215.141,518.344,215.141,518.344z"/>
		<path fill="#996234" d="M233.027,458.886c0.37,0.121,3.083-3.206,2.961-4.315c-0.125-1.115-1.23-1.854-1.48-1.854
			c-0.247,0-2.839-3.082-1.481-4.439c1.357-1.357-2.959-6.907-1.358-9.621c1.604-2.713,3.578-6.909,7.28-8.389
			c3.702-1.479,6.043-2.713,7.895-1.234c1.85,1.48,6.292,5.674,6.415,7.278c0.121,1.604,0.863,4.688,0,8.019
			c-0.865,3.33-0.865,3.826-0.987,7.404c-0.124,3.574-1.728,5.803-2.839,7.156c-1.108,1.354-0.615,3.202-2.714,3.697
			c-2.095,0.491,0.494,3.824-0.494,5.057c-0.986,1.229-12.582-1.854-12.335-6.663C234.006,458.717,233.027,458.886,233.027,458.886z
			"/>
		<path fill="#301705" d="M233.397,454.074c0,0-2.095,0-1.85-1.729c0.244-1.726,0.698-4.688-0.022-5.428
			c-0.72-0.74-2.939-2.094-2.199-4.193c0.741-2.098,1.603-3.332,1.109-5.306c-0.494-1.972,0-3.577,1.604-4.562
			c1.602-0.986,2.853-0.742,4.695-1.604c1.844-0.863,3.325-2.961,5.42-3.332c2.093-0.369,4.562-1.851,6.292,0
			c1.728,1.852,2.96,1.852,3.454,3.081c0.494,1.233-0.121-0.121,0.616,2.839c0.738,2.961,2.221,3.577,1.234,5.185
			c-0.986,1.604-1.852-1.358-2.713-1.482c-0.866-0.122-0.372-1.479-2.714,0c-2.346,1.482-1.48,0.989-4.935,0.247
			c-3.455-0.739-5.312-2.713-6.357,0.865c-1.046,3.581-0.442,2.962,0,5.8c0.437,2.838,0,4.069,0,4.069s-0.187-1.359-1.538-1.109
			c-1.358,0.25-1.604,0.494-1.48,1.974c0.122,1.479,0.865,3.208,0.615,3.702C234.378,453.582,233.397,454.074,233.397,454.074z"/>
		<path fill="#996234" d="M250.421,482.198c0,0,8.141,13.323,10.24,14.558c2.095,1.233,3.735,3.542,5.338,3.911
			s11.5,3.027,15.817,2.781c4.319-0.247,5.058-1.551,6.662,0.023c1.605,1.577,2.345,2.689,2.96,1.455
			c0.617-1.232,0.246-1.479,0-3.332c-0.247-1.853,0-2.838,1.728-3.082c1.727-0.246,4.373,1.729,3.663-0.495
			c-0.703-2.219-0.457-3.205-3.293-2.962c-2.839,0.247-3.333,2.349-5.306,2.594c-1.974,0.243-2.837,0.243-6.291-0.248
			c-3.455-0.492-13.344-5.646-15.297-6.413c-1.073-0.422-1.92-2.891-2.642-4.665c-0.941-2.319-4.823-7.33-4.823-7.33"/>
		<path fill="#8BC7E8" d="M214.276,488.982c0.494-6.904,2.961-17.886,7.155-22.694c4.195-4.813,5.428-4.688,8.51-6.046
			c3.084-1.354,4.688-0.986,4.688-0.986s0.161,4.938,2.673,5.801c2.508,0.861,8.429,2.467,8.801,1.48
			c0.371-0.989-0.493-1.615,0.247-2.475c0.74-0.857,1.974-3.202,2.837-2.706c0.865,0.489,5.182,2.218,5.674,4.438
			c0.494,2.221,0.987,5.18,2.221,6.906c1.234,1.729,1.974,4.439,1.974,4.439s0.372,0.986,0.741,2.099
			c0.371,1.107-3.208,0.985-5.55,5.549c-2.346,4.563-4.934-2.59-4.934-2.59s2.837-1.852,0.247,2.097c0,0-3.948,6.045-4.194,6.908
			c-0.247,0.866-1.234,3.084-1.11,5.307c0.125,2.225,1.358,4.563,1.11,6.907c-0.249,2.345,0.05,4.44-2.875,5.551
			c-2.919,1.108-6.128,0.865-9.707,1.232c-3.582,0.367-7.991,0.177-9.623,1.603c-1.635,1.431-3.207,0.249-5.181,0.741
			c-1.974,0.493-2.097,1.729-3.701,0c-1.605-1.726,0.941-7.153,0.532-8.388c-0.407-1.233-1.481-3.949-1.068-8.019
			C214.156,492.069,214.276,488.982,214.276,488.982z"/>
		<path fill="#996234" d="M228.535,497.308c0,0,2.619,8.6,4.087,10.233c1.467,1.636,3.808,5.427,5.053,6.898
			c1.251,1.468,12.296,12.794,13.62,13.773c1.33,0.988,7.735,6.613,7.735,6.613l9.073-1.041c0,0-6.011-6.438-8.967-9.586
			c-2.957-3.146-12.737-15.251-13.29-16.354c-0.56-1.1-3.741-4.41-4.596-5.938c-0.864-1.527-1.001-4.685-1.714-7.564
			c-0.716-2.88-1.943-6.601-1.943-6.601s-11.402-1.371-11.753,1.324C225.489,491.763,228.535,497.308,228.535,497.308z"/>
		<path fill="#996234" d="M234.508,541.045c0,0-2.509-3.376-1.646-7.076c0.862-3.7,1.841-5.548,4.184-6.042
			c2.342-0.492,5.475-0.576,6.097-0.206c0.615,0.372,8.142,3.991,9.869,4.729c1.726,0.742,6.326,4.28,6.326,5.758
			c0,1.481,0.247,1.973,0.741,3.452c0.493,1.479,1.108,5.677,1.108,5.677l-11.847,1.255c0,0,0.365-2.98-0.484-3.354
			c-0.842-0.367-12.172-2.346-12.912-2.836C235.204,541.909,234.508,541.045,234.508,541.045z"/>
		<path fill="#996234" d="M247.367,552.98"/>
	</g>
	<path fill="none" stroke="#753C15" stroke-width="6" stroke-linecap="round" stroke-linejoin="round" stroke-miterlimit="10" d="
		M-36.5,791.5"/>
	<path fill="none" stroke="#753C15" stroke-width="6" stroke-linecap="round" stroke-linejoin="round" stroke-miterlimit="10" d="
		M124.5,544.66"/>
	<path fill="none" stroke="#753C15" stroke-width="6" stroke-linecap="round" stroke-linejoin="round" stroke-miterlimit="10" d="
		M146.207,564.728c0,0,2.5-6.25,3.894-17.745s-8.652-13.151-8.652-13.151c-13.229-3.357-8.742-8.854-9.242-23.821
		s-4.264-6.304-15.894-19.808s-16.106,9.73-16.106,9.73l-106.5,298.045"/>
	<g>
		<path fill="#FFCBA1" d="M141.454,489.391c0.289,0.827,0.499,5.291,0.499,5.291l3.293,5.457c0,0,1.253,2.901,1.512,5.654
			c0.26,2.749,5.348,16.819,5.545,18.938c0.182,1.911,2.662,13.866,3.139,16.155v0.005c0.038,0.2,0.063,0.317,0.076,0.361
			c0.239,1.193,0.976,5.083,0.365,5.725c-0.725,0.761-1.188,1.177-1.257,2.688c-0.069,1.511-0.482,2.653-0.798,3.93
			c-0.316,1.273-3.107,4.886-1.391,5.554c1.707,0.666,4.521,0.984,6.75,1.147c2.234,0.155,4.79,0,4.79,0l4.126-1.151l-0.139-1.72
			c0,0-0.16-2.705,0-3.423c0.157-0.725-0.899-4.899-1.326-5.671c-0.197-0.355-0.31-2.413-0.378-4.51
			c0.121-3.014,0.011-8.044-0.617-15.855c-1.188-14.842-3.96-21.63-4.663-24.552c-0.701-2.929-2.279-12.433-4.251-15.242
			c-1.972-2.802-3.484-12.061-3.484-12.061S141.173,488.573,141.454,489.391z"/>
		<path fill="#FFCBA1" d="M136.215,461.516c0,0-4.054,10.099-4.438,10.884c-0.382,0.782-5.29,10.402-7.062,12.812
			c-1.775,2.409-2.253,6.379-2.328,6.945c-0.072,0.571,1.123,4.566,1.442,5.284c0.314,0.714-2.631,4.541-3.51,5.004
			c-0.885,0.458-3.976-2.426-5.284-3.985c-1.316-1.559-0.812-3.1-0.875-4.216c-0.055-1.119,2.556-4.163,3.309-6.291
			c0.753-2.133,3.775-13.25,4.274-14.419c0.501-1.17,3.31-11.899,3.367-12.465L136.215,461.516z"/>
		<path fill="#FFCBA1" d="M146.677,489.688c0,0,2.761-2.837,2.302-0.728c-0.309,1.41-10.134,17.627-11.525,18.105
			c-0.686,0.232-1.188,0.356-1.188,0.356s-0.598,3.297,0.866,5.994c1.465,2.7,0.292,23.857-0.689,25.117
			c-0.986,1.262,1.72,11.425,1.72,11.425c-0.072,0.215,2.637,9.234,1.908,10.334c-0.727,1.093-2.007,1.592-4.792,1.692
			c-2.784,0.1-4.847,0.248-7.578,0.124c-2.734-0.114-12.807,1.775-15.823,1.497c-3.017-0.275-2.83-0.295-2.741-1.363
			c0.088-1.07,1.583-3.014,2.174-3.131c0.591-0.123,3.783-1.047,6.036-2.772c2.257-1.731,6.736-3.822,6.736-3.822l2.035-2.249
			c0,0,0.101-5.027-0.187-9.848c-0.292-4.823-0.738-10.029-1.068-11.815c-0.332-1.792-0.843-10.624-1.314-13.906
			c-0.472-3.284-0.611-8.199-0.711-10.993c-0.103-2.799,7.32-18.181,7.32-18.181L146.677,489.688z"/>
		<path fill="#FFCBA1" d="M107.077,456.418c0,0,6.197,13.056,6.741,15.995c0.54,2.937,2.078,5.036,3.094,9.657
			c1.011,4.624-4.004,9.302-4.063,10.057c-0.06,0.752-1.325,2.37-2.151,2.637c-0.825,0.264-1.551,4.255-3.685,5.266
			c-2.138,1.007-2.31-0.591-3.088-2.201c-0.776-1.608-0.171-4.468-0.12-5.223c0.051-0.751,1.089-4.959,0.535-7.335
			c-0.557-2.378-1.043-8.686-1.903-10.102c-0.858-1.414-4.315-8.56-4.315-8.56L107.077,456.418z"/>
		<g>
			<path fill="#FFCBA1" d="M99.115,434.365c0.015-0.172,1.334,1.435,1.334,1.435s3.73,7.997,3.324,9.333
				c-0.4,1.337-3.192,5.484-3.192,5.484s-1.634-1.191-2.191-1.366c-0.559-0.177-1.181-0.956-1.432-1.064
				c-0.251-0.105-1.37-0.169-1.37-0.169l-1.952,1.24l0.488,1.82c0,0,0.569,2.454,0.578,2.911c0.006,0.456-0.425,1.645-0.617,1.835
				c-0.202,0.191-3.03,1.21-3.46,1.171c-0.427-0.031-1.784,0.062-2.073-0.075c-0.293-0.132-1.645,0.419-1.645,0.419
				s-0.271,0.396-0.692,1.008c-0.422,0.616-0.59,0.438-0.899,0.415c-0.31-0.021-2.012-1.062-2.656-1.44
				c-0.639-0.377-1.211-0.58-1.725-0.868c-0.509-0.289-0.667,0.315-1.043,0.579c-0.367,0.258-0.743,0.325-1.22-0.005
				c-0.479-0.335-3.757-0.267-4.418-0.332c-0.663-0.069-3.878-1.965-4.463-2.426c-0.583-0.464-3.133-5.386-3.421-6.938
				c-0.292-1.557,2.038-7.369,2.088-7.726c0.047-0.35,3.634-4.338,3.681-4.499c0.042-0.161,6.525-1.045,7.371-1.239
				c0.844-0.199,4.764,1.42,5.893,1.745c1.135,0.328,2.997,0.81,3.288,0.753c0.297-0.059,3.163-0.201,4.068-0.291
				c0.9-0.092,6.131-1.441,6.333-1.539"/>
		</g>
		<path fill="#32417F" d="M132.911,461.834c-1.074,0.666-3.356,7.791-3.423,11.351c-0.067,3.559-1.543,3.138-0.103,8.044
			c-1.003,4.921-1.003,7.572-1.003,7.572s4.052,2.828,6.88,4.055c2.833,1.224,19.404-1.271,19.514-1.846
			c0.111-0.576,0.527-3.638,0.527-3.638s0.493-0.085,2.024,0.146c1.525,0.228,6.25-1.525,6.25-1.525s2.258-10.082,2.444-11.778
			c0.189-1.705,5.735-14.748,5.798-19.985c0.065-5.236-2.658-8.342-5.07-11.479c-2.421-3.137-9.597-7.317-10.604-7.41
			C156.146,435.34,133.979,461.165,132.911,461.834z"/>
		<path fill="#FFFEF8" d="M158.01,436.467c-0.625,1.188-8.556,10.346-9.431,11.731c-0.877,1.392-3.102,7.956-3.102,7.956
			s-7.371,7.049-7.498,7.807c-0.124,0.757-5.363,0.504-6.634-0.121c-1.267-0.63-8.75,1.386-12.76,1.579
			c-4.014,0.192-10.192-6.139-9.391-5.281c0.797,0.856-8.494,9.024-8.494,9.024s-1.823,0.173-3.343-0.62
			c-1.521-0.786-3.815,0.361-3.815,0.361l-1.355-3.982c0,0-2.625-15.073-2.307-16.225c0.316-1.146,1.381-8.54,1.486-12.474
			c0.108-3.932,4.892-6.439,19.998-12.913c15.104-6.469,46.572,10.554,47.197,10.682
			C158.562,433.991,158.632,435.293,158.01,436.467z"/>
		<path fill="#9E5A2D" d="M80.652,433.851c-1.718-0.954-2.9-2.359-5.667-2.047c-2.767,0.312-4.016,0.971-4.797,2.047
			s-3.123,2.95-3.123,3.887c0,0.938-0.565,2.93,0,3.592c0.565,0.663,0.275,1.25-0.721,2.968s0.216,4.528,0,6.247
			c-0.216,1.718-1.033,4.685,0,5.31c1.033,0.624,2.126,0.505,2.907,0.564s2.811,1.31,2.811,1.31s1.869,1.032,2.03,0
			s0.161-1.032,0.161-1.032s1.78-1.623,0.731-2.248c-1.049-0.624-1.049-1.249-1.049-2.498c0-1.25,1.049-3.592,1.049-3.592
			s-0.669-0.781,0-0.781c0.669,0,1.294-0.156,1.762-0.156c0.469,0-0.625,0.156,0.469,0s1.249,0.156,2.03-0.312
			c0.781-0.468,0.625,0.469,0.781-0.468c0.156-0.938-0.156-1.667-0.156-1.667l0.781-2.237c0,0,0.686,0.466,1.5-0.461
			c0.814-0.928,2.092,0.148,2.092,0.148s-0.056,0,0.831,0.469c0.887,0.468,0.887,0.468,0.887,0.468s0.625,0.312,1.093,0.312
			c0.469,0-0.312,0.625,0.469,0c0.781-0.624,2.474-0.624,2.33-1.562c-0.144-0.937-0.67-1.306,0.009-2.101
			c0.678-0.796,2.504-0.607,1.41-1.986s-2.08-1.622-2.134-2.438s0.571-2.846-1.303-2.689s-1.874,0.156-1.874,0.156L80.652,433.851z"
			/>
	</g>
	<polygon opacity="0.6" fill="#39BCC4" enable-background="new    " points="-7.96,621.434 811.064,620.73 812.062,823.083 
		-7.96,823.083 	"/>
</g>
<g id="base_ok">
	<path fill="#332B25" d="M759.35,523.381c-0.438,0.126-3.064-1.251-2.88,1.814c0.188,3.064,0.688,4.065-0.438,5.006
		c-1.124,0.938-1.188,0.626-2.627,2.002c-1.438,1.378-2.565,1.312-2.941,2.314c-0.373,1-1.188,2.504-2.438,2.754
		c-1.254,0.25-6.384-0.438-7.885,0.25c-1.504,0.688-2.253,1.564-2.63,3.19c-0.375,1.626-0.562,2.754-0.312,2.754
		c0.249,0,3.128,2.752,11.012,2.439c0,0,11.003-1.164,13.643-1.813c0.338-0.084,0,1.084,0,1.084l8.261-0.459
		c0,0,0.438-0.188,0-3.064c-0.439-2.88-0.188-4.38-0.876-5.883c-0.688-1.503-1.627-2.63-1.44-3.881c0.189-1.252-0.124-3.189,0-4.189
		c0.127-1.002,0.189-1.753,0-3.067c-0.187-1.312-3.503-2.188-3.503-2.188L759.35,523.381z"/>
	<g>
		<path fill="#F9DBBD" d="M714.828,387.974c0,0-6.307-3.147-6.499-3.261c-0.191-0.114-2.349-1.726-2.754-2.112
			c-0.401-0.386-0.616-0.833-0.683-1.379c-0.067-0.544-0.946-1.722-1.263-2.037c-0.315-0.318-0.737-1.63-0.971-2.095
			c-0.235-0.465-2.355-2.082-2.729-2.374c-0.369-0.288-1.188-1.631-1.434-1.856c-0.247-0.227-0.771-0.925-1.267-0.003
			c-0.98,1.834,2.214,4.473,2.158,4.676c-0.055,0.205,0.331,0.914,0.069,0.709c-0.261-0.204-1.384-0.327-1.532-0.23
			c-0.146,0.098-1.3-0.666-2.312-0.782c-0.837-0.688-6.421-2.685-7.003-2.575c-0.577,0.11-0.797,0.434-0.641,0.96
			c0.152,0.525,3.676,1.83,3.676,1.83s2.07,1.281,1.871,1.262c-0.198-0.012-1.94-1.037-2.137-1.152
			c-0.19-0.112-1.396-0.419-1.771-0.661c-0.372-0.241-2.128-0.972-2.835-1.102c-0.708-0.131-0.953,0.592-0.838,1.071
			c0.121,0.48,1.661,0.942,1.814,1.062c0.153,0.119,0.596,0.465,1.011,0.644c0.4,0.177,1.48,0.629,1.48,0.629
			s2.885,1.763,2.554,1.52c-0.323-0.239-3.508-1.561-3.854-1.792c-0.343-0.235-1.205-0.625-1.836-0.94
			c-0.635-0.316-1.043,0.524-0.803,1.029c0.239,0.503,1.258,0.733,2.176,1.449c0.92,0.719,1.495,0.884,1.865,1.174
			c0.373,0.291,2.479,1.334,2.479,1.334s-1.923-0.575-2.181-0.679c-0.199-0.081-1.524-0.839-1.821-1
			c-0.299-0.162-0.64-0.385-0.924,0.37c-0.238,0.939,3.223,2.549,3.655,2.85c0.434,0.304,0.75,0.532,2.12,0.986
			c2.799,2.005,7.308,2.673,7.819,2.649c0.509-0.022,1.203,0.444,1.676,0.74c0,0,7.861,4.761,8.312,5.036L714.828,387.974z"/>
	</g>
	<path fill="#2A2866" d="M750.48,373.987c1.155-1.284,11.946-0.496,7.132,7.963c-4.938,8.67-6.479,8.471-13.972,13.521
		c-7.489,5.047-9.476,6.682-12.389,6.324c-2.91-0.356-6.739,1.151-7.207-1.256c-0.473-2.405-3.381-0.417-4.967-1.862
		c-1.588-1.443-12.789-3.964-13.893-8.114c-0.029-0.111,0.159-0.26,0.139-0.371c1.956,1.027,4.986-3.598,3.515-5.217
		c0.622-0.525,1.969-0.414,2.79,0.457c3.312,3.519,10.432,1.314,13.243,4.966c2.811,3.653,9.951-2.73,11.143-4.724
		C737.209,383.68,750.452,374.017,750.48,373.987z"/>
	<path fill="#F9DBBD" d="M744.66,338.147c0.845-0.564,3.659-1.69,4.833-1.221c1.174,0.47,8.59-0.375,10.091,2.441
		c1.501,2.816,2.815,5.49,1.22,8.917c-1.596,3.426-3.05,4.787-3.565,7.227c-0.518,2.441,0.187,7.181,0.187,7.181l-9.009,4.505
		c0,0-1.55-0.234-2.112-0.892c-0.562-0.657-1.923-1.407-1.923-2.534s0.093-2.206-0.562-2.722c-0.66-0.517-4.086,0.094-4.93-1.596
		c-0.847-1.689-0.752-2.768-0.376-4.599s0.572-3.098-0.274-3.755c-0.854-0.657-1.647-1.126-1.086-1.971
		c0.562-0.844,3.237-2.252,3.756-3.379c0.514-1.125-0.189-1.407,0.23-2.534C741.561,342.089,744.66,338.147,744.66,338.147z"/>
	<path fill="#5B4838" d="M743.769,338.241c0,0.141,2.02-0.61,3.145,0c1.127,0.609,2.91,0.328,2.348,2.956
		c-0.562,2.628-0.374,5.022-0.28,5.163c0.095,0.141-0.232,1.125-0.142,1.313c0.094,0.189,1.219,1.08,1.454,1.033
		c0.234-0.047,1.642-1.689,1.642-1.689s1.082-0.376,2.158-0.282c1.082,0.093,2.256-0.375,2.304,1.221
		c0.047,1.596,0.279,1.784-0.281,2.441c-0.565,0.656-2.207,1.971-1.783,2.158c0.423,0.187,1.172,0.234,1.407,0.751
		c0.233,0.516,1.031,2.299,0.983,2.769c-0.047,0.468-0.371,1.549,0.002,1.549s2.109,1.032,2.299,0.938
		c0.188-0.094,0.519-2.3,1.031-2.864c0.518-0.562,4.271-4.429,4.505-6.32c0.235-1.893,0.097-2.455-0.376-3.77
		c-0.468-1.313-0.232-2.862-1.358-4.692c-1.125-1.83-4.364-4.74-5.819-5.303c-1.456-0.564-3.563,1.079-4.834,1.032
		c-1.266-0.047-1.125-1.172-2.675-1.643c-1.549-0.469-3.707-0.892-4.316-0.234c-0.609,0.657-2.44,1.22-2.11,2.065
		C743.392,337.677,743.769,338.241,743.769,338.241z"/>
	<path fill="#2A2866" d="M764.041,420.886c0,0,4.695,9.761,3.754,15.955c-0.936,6.195-2.438,7.51-2.438,12.768
		c0,5.256,1.504,26.654,0,30.409c-1.501,3.754-3.191,3.379-0.938,6.194c2.254,2.815,3.897,9.574,3.544,11.638
		c-0.353,2.066-0.832,5.07,0.815,10.326c1.646,5.256,4.648,3.002,1.837,9.573c-2.818,6.57-7.889,8.636-12.768,6.195
		c-4.882-2.44-6.021-5.069-5.45-7.887c0.568-2.813,1.509-7.695,0.76-10.137c-0.752-2.438-0.474-4.881-0.896-9.762
		c-0.423-4.881-3.614-2.441-5.584-7.696c-1.972-5.255-1.404-7.509-0.844-9.012c0.562-1.501-0.939-7.508-2.064-13.517
		c-1.127-6.007-3.004-6.943-3.004-13.702c0-6.76-2.816-3.191-3.381-9.764c-0.562-6.569-1.501-7.134,0-10.701
		c1.504-3.563,2.63-8.444,2.63-8.444s11.062-4.882,12.383-4.506C753.717,419.195,764.041,420.886,764.041,420.886z"/>
	<path fill="#374FAA" d="M741.704,380.149c0.938-3.002-2.255-4.88,0-6.195c2.253-1.313,5.627-1.877,4.974-3.754
		c-0.656-1.877-1.031-3.754,1.782-5.256c2.816-1.502,1.69-3.379,4.695-3.754c3.003-0.377,4.88-3.192,5.631,0
		c0.752,3.19,4.69,6.569,6.383,10.699c1.691,4.13,3.567,18.396,3.379,22.152c-0.188,3.754,0.588,16.518,0.013,20.648
		c-0.574,4.13-3.016,6.944-5.082,7.511c-2.062,0.562-11.64-1.128-14.642,0c-3.003,1.125-6.008,2.438-8.822,1.125
		c-2.814-1.314-4.317-1.877-3.942-5.068c0.378-3.189-0.188-6.569,0.752-8.26c0.938-1.689,4.13-20.273,4.314-20.837
		C741.328,388.597,741.704,380.149,741.704,380.149z"/>
	<g id="Capa_3_2_">
		<g>
			<path fill="#F9DBBD" d="M751.154,410.58c0,0-0.914,21.551-0.946,21.771c-0.031,0.222-0.692,2.831-0.894,3.354
				c-0.202,0.52-0.533,0.89-1.013,1.159c-0.477,0.271-1.228,1.535-1.396,1.945c-0.172,0.415-1.224,1.308-1.562,1.7
				c-0.339,0.396-1.019,2.975-1.146,3.43c-0.123,0.451-1.05,1.726-1.164,2.036c-0.114,0.315-0.56,1.067,0.481,1.171
				c2.07,0.202,3.281-3.761,3.49-3.787c0.21-0.028,0.717-0.655,0.628-0.335c-0.088,0.317,0.229,1.401,0.375,1.503
				c0.146,0.098-0.116,1.455,0.165,2.435c-0.313,1.036-0.017,6.96,0.31,7.455c0.322,0.49,0.705,0.567,1.132,0.223
				c0.426-0.343,0.278-4.097,0.278-4.097s0.39-2.403,0.448-2.213c0.065,0.188-0.213,2.19-0.245,2.415
				c-0.029,0.221,0.148,1.45,0.069,1.89c-0.079,0.438-0.081,2.338,0.07,3.041c0.149,0.705,0.913,0.654,1.311,0.363
				c0.397-0.296,0.233-1.896,0.285-2.083c0.051-0.188,0.201-0.729,0.207-1.181c0.01-0.438,0.013-1.608,0.013-1.608
				s0.521-3.34,0.424-2.941c-0.096,0.392-0.095,3.839-0.177,4.248c-0.085,0.406-0.114,1.353-0.164,2.057
				c-0.049,0.707,0.885,0.762,1.258,0.347c0.373-0.414,0.194-1.443,0.504-2.565c0.312-1.125,0.243-1.72,0.368-2.174
				c0.126-0.455,0.282-2.8,0.282-2.8s0.206,1.996,0.209,2.273c0.002,0.216-0.189,1.729-0.225,2.065
				c-0.035,0.337-0.11,0.737,0.695,0.71c0.959-0.139,1.118-3.952,1.229-4.469c0.114-0.516,0.203-0.896,0.097-2.336
				c0.778-3.354-0.335-7.774-0.553-8.237c-0.216-0.462-0.051-1.282,0.041-1.831c0,0-0.236,1.151,3.618-23.774L751.154,410.58z"/>
		</g>
	</g>
	<path fill="#2A2866" d="M749.562,375.724c-0.375-1.855,7.356-10.841,11.662-1.084c4.41,10.003,3.231,11.229,2.79,21.119
		c-0.439,9.888-0.301,12.702-2.515,15.031c-2.213,2.329-0.186,13.157-2.61,11.999c-2.427-1.155,2.226,4.462-0.084,4.915
		c-2.309,0.455,1.439,6.463-2.933,4.727c-4.373-1.732-11.33-0.425-7.985-3.45c3.346-3.023-0.862-19.987,2.513-23.746
		c3.766-4.194,0.994-6.803,0.016-9.152C749.439,393.731,749.57,375.77,749.562,375.724z"/>
</g>
</svg>
