<?xml version="1.0" encoding="utf-8"?>
<!-- Generator: Adobe Illustrator 16.0.0, SVG Export Plug-In . SVG Version: 6.00 Build 0)  -->
<!DOCTYPE svg PUBLIC "-//W3C//DTD SVG 1.1//EN" "http://www.w3.org/Graphics/SVG/1.1/DTD/svg11.dtd">
<svg version="1.1" id="Capa_1" xmlns="http://www.w3.org/2000/svg" xmlns:xlink="http://www.w3.org/1999/xlink" x="0px" y="0px"
	 width="800px" height="800px" viewBox="0 0 800 800" enable-background="new 0 0 800 800" xml:space="preserve">
<g id="Capa_3">
</g>
<g id="Capa_4">
	<g id="Caixa">
		<polygon fill="#D3D3D3" points="1047.878,904.761 943.315,-1680.848 -864.16,-2003.667 -936.077,1105.427 		"/>
	</g>
	<g>
		<polygon fill="#1E1E1E" points="91.812,263.783 65.99,264.68 65.662,278.413 -0.546,315.465 -1.731,421.738 89.46,476.322 
			181.828,424.639 183.003,318.366 		"/>
		<polygon fill="#303030" points="63.635,477.217 -27.553,422.633 -26.369,316.36 65.99,264.68 157.184,319.26 156.005,425.533 		
			"/>
		<g id="Cord贸_2_">
			<g>
				<path fill="#191919" d="M-7.244,361.657c-0.903,6.312-0.88,12.33,1.264,19.03l-0.001-0.005l-1.304,0.817
					c0.331,3.742-0.124,6.58,0.662,10.266L9.25,502.611l-0.019,0.006c1.523,17.584,15.707,39.408,34.535,45.635
					c18.968,6.268,36.964-1.809,43.672-18.945l45.538-89.932c1.907-3.105,3.393-8.359,4.816-11.871l-0.078-2.164l-0.016,0.006
					c2.173-6.72,3.855-9.348,4.764-15.662c5.183-36.196-14.491-73.56-44.532-93.282l-5.149,36.861
					c8.223,9.485,11.813,21.963,10.12,33.801c-1.702,11.837-8.811,20.679-18.25,24.357l-6.069,40.433
					c-2.014,10.799-11.899,16.875-22.511,13.359c-10.611-3.504-19.833-15.301-18.75-26.188l6.069-40.586
					c-8.23-9.461-11.733-21.865-10.012-33.9c1.725-12.035,8.724-20.871,18.808-24.335l5.836-36.26
					C25.365,302.479-2.033,325.304-7.244,361.657z M52.969,487.021c10.905,3.604,18.424,15.734,16.792,27.102
					c-1.625,11.365-11.786,17.648-22.683,14.043c-10.9-3.602-18.416-15.74-16.791-27.1C31.915,489.707,42.071,483.42,52.969,487.021
					z"/>
			</g>
		</g>
		<g id="Cord贸_Clau">
			<g id="Cord贸">
				<path fill="none" stroke="#FF0000" stroke-width="18" stroke-linecap="round" stroke-miterlimit="10" d="M317.247,1835.441
					c11.992,37.461,142.425,11.479,131.525-22.277c-8.896-27.52-133.411,15.322-120.553,63.471
					c14.886,55.713,138.867,7.58,132.18-27.152c-5.887-30.537-131.185,23.34-116.711,66.109"/>
				<path fill="none" stroke="#FF0000" stroke-width="18" stroke-linecap="round" stroke-miterlimit="10" d="M362.941,1975.859
					c11.994,37.467,142.458,13.645,131.551-20.111c-5.699-17.613-130.412,19.135-121.683,55.111
					c6.914,28.494,143.499-0.455,132.155-35.893c-11.512-35.963-103.316,19.678-80.244,96.367"/>
				<path fill="none" stroke="#FF0000" stroke-width="18" stroke-linecap="round" stroke-miterlimit="10" d="M341.628,1911.607
					c7.042,56.832,146.602,24.523,135.7-9.234c-9.152-28.314-130.421,8.541-116.981,58.826
					c14.882,55.713,133.217-8.688,127.758-25.4c-8.395-25.689-138.408-4.223-125.163,40.066"/>
				<path fill="none" stroke="#FF0000" stroke-width="18" stroke-linecap="round" stroke-miterlimit="10" d="M132.789,1277.648
					c11.993,37.465,146.308,23.607,135.404-10.148c-10.879-33.658-128.869,21.342-113.988,77.051
					c14.886,55.711,141.452,22.572,134.761-12.158c-6.695-34.736-139.919-8.553-116.842,68.135"/>
				<path fill="none" stroke="#FF0000" stroke-width="18" stroke-linecap="round" stroke-miterlimit="10" d="M96.014,1162.771
					c11.992,37.463,146.308,23.607,135.405-10.148c-10.879-33.656-132.255,10.766-117.374,66.475
					c14.886,55.711,141.451,22.568,134.76-12.166c-6.694-34.729-137.807-1.951-114.729,74.74"/>
				<path fill="none" stroke="#FF0000" stroke-width="18" stroke-linecap="round" stroke-miterlimit="10" d="M55.854,1037.32
					c11.993,37.463,146.304,23.594,135.403-10.154c-10.879-33.654-130.901,14.994-116.019,70.711
					c14.885,55.707,141.451,22.566,134.759-12.168c-6.693-34.73-135.774,4.396-112.696,81.086"/>
				<path fill="none" stroke="#FF0000" stroke-width="18" stroke-linecap="round" stroke-miterlimit="10" d="M57.14,1041.336
					c-23.075-76.693,106.781-113.461,113.478-78.729c6.692,34.725-122.688,59.166-137.574,3.455
					c-14.883-55.705,109.96-96.58,120.841-62.922c10.909,33.756-116.604,30.588-128.598-6.879c0,0-15.798-21.928,15.337-61.199
					c21.214-26.764,11.61-75.504,7.324-81.725c-14.791-21.432-39.011-259.891,3.4-253.168c55.685,8.832-12.41,127.471,1.149,182.371
					c3.648,7.49,24.556,102.586,24.556,102.586"/>
				<path fill="none" stroke="#FF0000" stroke-width="18" stroke-linecap="round" stroke-miterlimit="10" d="M280.879,1740.26
					c11.993,37.467,141.824,9.26,130.91-24.498c-10.873-33.658-132.544,10.334-117.661,66.045
					c14.885,55.711,142.254,15.443,135.563-19.295c-6.693-34.73-135.523-3.76-112.447,72.93"/>
				<path fill="none" stroke="#FF0000" stroke-width="18" stroke-linecap="round" stroke-miterlimit="10" d="M244.902,1627.875
					c11.993,37.465,146.306,23.598,135.403-10.156c-10.88-33.658-134.007,5.291-119.127,60.998
					c14.886,55.713,141.451,22.568,134.76-12.164c-3.326-17.244-131.808,17.781-113.773,77.723"/>
				<path fill="none" stroke="#FF0000" stroke-width="18" stroke-linecap="round" stroke-miterlimit="10" d="M208.927,1515.492
					c11.992,37.463,146.304,23.596,135.402-10.158c-10.879-33.654-134.009,5.287-119.127,60.998
					c14.886,55.713,141.451,22.568,134.76-12.16c-6.694-34.734-136.851,1.029-113.775,77.715"/>
				<path fill="none" stroke="#FF0000" stroke-width="18" stroke-linecap="round" stroke-miterlimit="10" d="M170.579,1395.852
					c11.994,37.467,146.924,25.375,136.016-8.381c-10.879-33.656-132.255,10.764-117.373,66.479
					c14.886,55.709,141.452,22.568,134.761-12.166c-6.694-34.73-136.851,1.035-113.774,77.723"/>
			</g>
			<path fill="#EAEAEA" d="M78.66,731.381c0.557,3.654-1.134,6.941-3.783,7.35l-43.638,6.711c-2.649,0.404-5.25-2.225-5.814-5.879
				l-8.262-53.75c-0.563-3.654,1.132-6.943,3.783-7.352l43.634-6.709c2.649-0.412,5.254,2.223,5.817,5.873L78.66,731.381z"/>
			<g display="none">
				<path display="inline" d="M-337.95,314.612c-12.862,4.118-23.559,9.322-36.303,16.558l-0.04-0.122l-0.797,0.727
					c-6.513,4.019-13.446,8.705-19.264,13.499l-185.874,132.864l0.007,0.021c-32.662,20.293-50.356,62.859-37.565,102.814
					c12.886,40.252,52.239,64.791,92.639,61.361l225.863,0.395c8.203,0.627,16.224,0.742,24.562,0.139l0.279,0.088l-0.015-0.045
					c14.578-1.512,26.27-3.602,39.133-7.719c73.695-23.592,120.362-92.812,117.229-167.115l-73.939,23.67
					c-7.088,23.354-24.994,40.945-49.098,48.662c-24.107,7.719-49.45,2.535-68.447-11.312l-82.571,25.719
					c-22.591,6.174-46.638-6.316-53.849-28.84c-7.209-22.523,4.748-46.537,26.298-54.496l-0.069-0.213l2.587-0.828
					c0.012-0.004,0.02-0.006,0.028-0.01c0.011-0.002,0.019-0.006,0.026-0.008l80.001-25.609
					c7.031-23.336,24.968-41.881,49.474-49.725c24.504-7.846,49.878-3.165,69.152,11.75l73.547-23.545
					C-185.241,320.886-263.924,290.915-337.95,314.612z M-490.225,540.137c7.407,23.137-5.346,47.898-28.481,55.305
					c-23.138,7.408-47.899-5.342-55.307-28.482c-7.406-23.137,5.347-47.898,28.485-55.305
					C-522.395,504.25-497.631,517-490.225,540.137z"/>
			</g>
		</g>
		<g>
			<path fill="#191919" d="M43.766,548.252c18.968,6.268,36.964-1.809,43.672-18.945l45.538-89.932
				c1.907-3.105,3.393-8.359,4.816-11.871l-0.078-2.164l-0.016,0.006c2.173-6.72,3.855-9.348,4.764-15.662
				c5.183-36.196-14.491-73.56-44.532-93.282l-5.149,36.861c8.223,9.485,11.813,21.963,10.12,33.801
				c-1.702,11.837-8.811,20.679-18.25,24.357l-20.759,83.222c8.014,17.049,0.862,33.262-9.487,34.496
				C39.397,530.93,38.461,546.035,43.766,548.252z"/>
		</g>
		<g id="Bot贸_1_">
			<path fill="#C41A1A" d="M64.955,338.809l-0.006-0.018l0.34-0.315c-0.829-0.064-1.165-0.303-2.005-0.311
				c-0.471-0.002-0.7-0.018-1.174,0l-34.606-0.793l0.703,27.684c-1.624,4.667-2.534,9.7-2.564,14.99
				c-0.046,6.289,1.201,12.235,3.378,17.612l0.563,24.105l31.335,0.624c0.771,0.056,1.53,0.14,2.315,0.142
				c0.468,0.009,0.932-0.051,1.406-0.068l0.597,0.009l0.003-0.038c19.967-1.049,34.991-19.036,35.131-41.619
				C100.514,358.633,86.434,340.037,64.955,338.809z"/>
			<path fill="#E81C1C" d="M67.682,379.736c0.146-23.335-16.666-42.365-37.569-42.496c-20.897-0.129-37.941,18.687-38.083,42.018
				c-0.143,23.347,16.669,42.37,37.565,42.494C50.491,421.885,67.541,403.075,67.682,379.736z"/>
		</g>
	</g>
	<g>
		<path fill="#282828" d="M592.131,210.317l0.016-0.051l-0.965-0.151c-4.29-0.861-8.641-1.549-13.054-2.056l-42.193-6.657
			l-1.302,7.67c-75.271,12.253-135.688,78.162-141.872,161.867c-5.266,71.336,30.327,135.66,85.925,167.477l-1.619,9.497
			l47.382,7.989c4.525,0.966,9.128,1.768,13.806,2.329l0.284,0.052v-0.021c2.383,0.286,4.771,0.547,7.186,0.725
			c91.65,6.77,171.757-66.45,178.926-163.529C731.269,305.741,673.283,227.096,592.131,210.317z"/>
		<path fill="#3D3D3D" d="M352.073,364.483c7.174-97.093,87.288-170.311,178.944-163.538
			c91.658,6.768,160.145,90.966,152.975,188.057c-7.175,97.091-87.294,170.311-178.949,163.539
			C413.388,545.768,344.899,461.576,352.073,364.483z"/>
		<g id="Clau">
			<polygon fill="#898989" points="528.271,342.948 378.918,340.668 376.921,399.318 526.274,401.598 529.445,395.539 
				531.088,348.981 			"/>
			<path fill="#F2F2F2" d="M350.22,237.783c0,0-5.292,1.719-22.041,1.152c-37.175-1.259-36.711,22.943-36.711,22.943l-5.457,207.007
				c-0.952,36.168,19.405,42.775,59.605,43.971c8.801,0.257-25.648-123.246-25.648-123.246
				C322.925,277.912,350.22,237.783,350.22,237.783z"/>
			<path fill="#B7B7B7" d="M456.929,346.896c-0.139-8.521,6.738-8.237-2.193-63.401c-8.929-55.166-35.014-48.125-35.014-48.125
				s-70.837,6.33-87.551,5.454c-16.731-0.875-16.389,23.989-16.389,23.989l-5.462,207.013
				c-0.949,36.164,17.417,38.696,17.417,38.696s44.294,7.438,84.512,7.631c40.216,0.193,39.086-50.187,39.086-50.187
				S457.089,358.677,456.929,346.896z M361.96,394.988c-10.227,8.367-22.65,3.122-27.753-11.712
				c-5.101-14.842-0.945-33.652,9.277-42.011c10.225-8.367,22.663-3.122,27.752,11.712
				C376.339,367.811,372.188,386.617,361.96,394.988z"/>
			<path fill="#F2F2F2" d="M365.405,359.069c2.502,14.656-4.052,30.392-14.625,35.13c-5.03,2.256-10.458,0.278-14.143-5.458
				c6.497,11.813,16.144,11.631,23.63,8.384c15.272-6.618,19.025-22.744,16.247-39.037c-2.786-16.284-18.017-25.24-29.937-18.792
				c-0.471,0.257-0.936,0.486-1.423,0.747C354.501,338.22,363.178,345.998,365.405,359.069z"/>
			<path fill="#707070" d="M455.914,279.626c-8.929-55.169-36.907-46.315-36.907-46.315s-70.822,6.326-87.552,5.445
				c-16.718-0.876-16.383,23.992-16.383,23.992l-5.458,207.005c-0.941,36.164,14.57,42.362,14.57,42.362s47.678,8.641,87.9,8.829
				c40.212,0.188,41.661-56.6,41.661-56.6S464.85,334.794,455.914,279.626z M447.827,454.295c0,0-1.302,51.102-37.492,50.934
				c-36.181-0.178-79.082-7.956-79.082-7.956s-13.967-5.572-13.122-38.108l4.926-186.274c0,0-0.304-22.383,14.74-21.595
				c15.048,0.796,78.777-4.896,78.777-4.896s25.174-7.965,33.221,41.674C457.842,337.715,447.827,454.295,447.827,454.295z"/>
		</g>
	</g>
	<path fill="#C9C9C9" d="M404.296,316.522"/>
	<path fill="#212121" d="M593.002,206.598"/>
</g>
<text transform="matrix(0.9999 0.015 -0.015 0.9999 488.499 243.0596)" fill="#FCFCFC" font-family="'MyriadPro-Bold'" font-size="39.8869">OFF</text>
<text transform="matrix(1 0.0024 -0.0024 1 574.8672 383.792)" fill="#FCFCFC" font-family="'MyriadPro-Bold'" font-size="34.9603">START</text>
<text transform="matrix(1 -0.0069 0.0069 1 580.8779 303.8013)" fill="#FCFCFC" font-family="'MyriadPro-Bold'" font-size="40.8366">ON</text>
</svg>
