<?xml version="1.0" encoding="utf-8"?>
<!-- Generator: Adobe Illustrator 16.0.0, SVG Export Plug-In . SVG Version: 6.00 Build 0)  -->
<!DOCTYPE svg PUBLIC "-//W3C//DTD SVG 1.1//EN" "http://www.w3.org/Graphics/SVG/1.1/DTD/svg11.dtd">
<svg version="1.1" id="Capa_1" xmlns="http://www.w3.org/2000/svg" xmlns:xlink="http://www.w3.org/1999/xlink" x="0px" y="0px"
	 width="800px" height="800px" viewBox="0 0 800 800" enable-background="new 0 0 800 800" xml:space="preserve">
<g id="Costa">
	<path fill="#EFDE95" d="M-52.887,866.567c20,0,413.979,10.499,879.32,0L819.625-43.5L-31-52L-52.887,866.567z"/>
	<g>
		
			<radialGradient id="SVGID_1_" cx="29.792" cy="-68.8682" r="836.7181" gradientTransform="matrix(1 0 0 -1 94 805)" gradientUnits="userSpaceOnUse">
			<stop  offset="0" style="stop-color:#42C9CC"/>
			<stop  offset="0.646" style="stop-color:#42C9CC"/>
			<stop  offset="0.7523" style="stop-color:#42C9CC"/>
			<stop  offset="0.9693" style="stop-color:#42C9CC;stop-opacity:0.3868"/>
			<stop  offset="1" style="stop-color:#42C9CC;stop-opacity:0.3"/>
		</radialGradient>
		<path fill="url(#SVGID_1_)" d="M809.667,380.924c-0.667-6.591-3.999-11.258-5.333-13.924s-9.333-8.667-10-12.667
			s-2.268-15.648-3.801-16.491c-1.533-0.843-0.2-4.178-7.533-6.177s-11.333-4.666-13.333-7.999s0.667,0.667-2-3.333
			s-6.666-8.718-11.333-12.026s-4.668-4.122-9.334-6.048c-4.666-1.926-6.667-5.212-10-7.569s-4.666-5.806-5.333-9.082
			s2.667-3.345-4-4.644c-6.667-1.299-10.667,5.298-14.667,0c-4-5.298-7.334-6.464-10-9.881s-8.666-10.107-8.666-10.107
			s-4.667-0.644-6.667-3.977s-4-10-4-10s-1.333-1.333-3.333-2.667s-4.666-6.667-8-8.667s-8.666-8-12-9.333S636.333,207.667,627,205
			s-15.332-9.333-24.666-16s-6,6-22-8.667s-31.155-17.973-31.155-17.973s-36.638-18.026-40.407-18.693
			C505.001,143,491.667,137,491.667,137s-11.999-4-23.333-7.333s-18.001-14-27.334-15.333s-11.71-2.667-24.521-2.667
			c-12.811,0-4.812,2.667-16.479-2s-15.666-6.667-20.333-8S373,100.333,371,99s-8-3.333-11.333-4s-12.667-0.667-16-4.667
			s2.667-4.667-7.333-5.333s-13.354,1.333-18.677-2s-5.029-4-11.509-7.333c-6.48-3.333-18.544-12.367-20.847-10.184
			C283,67.666,269.667,65,265,64.333s-18-2-22.667-2s-24,0-26.667-2s-5.333-2.667-8-5.333S195.6,50.333,195.6,50.333l-6.833-0.667
			l-40.032-4c0,0,3.335-0.667-11.2-3.333C123,39.667,119.479,39,119.479,39l-15.824-1.333c0,0-5.682-1.007-9.334-1.337
			c-7.5-0.678-2.872-3.62-16.23-1.784C62.667,36.667,58.334,34.333,51.667,33s-9.333-2.667-11.333-2.667s-16.525-2.829-20.667,0
			C15.526,33.162,0.09,28,0.09,28L-20,29.938V832h840V384.551C812.635,387.23,810.177,385.957,809.667,380.924z"/>
		<polygon fill="#FFFFFF" points="-36,17 -31,31 -20,29.938 -20,17.247 		"/>
		<path fill="#FFFFFF" d="M820,362.351v22.201c2.28-0.83,5.024-2.033,8.334-3.627C839.661,375.469,827.04,367.11,820,362.351z"/>
		<path fill="#FFFFFF" d="M816.334,359.667c-3.412-3.333-6-7.333-9.334-11.728s-7-13.605-10-19.335s-7.333-3.604-18.666-12.17
			s-14.667-18.766-23.334-23.93S740.334,278.333,739,275s-16.408-18.613-29.333-24s-6.667-2.667-12-10
			C693.748,235.61,683,229,677,225.667s-14.666-8.667-18-13.333s-17.333-12-28-17.333s-10.666-7.333-21.333-12
			s-17.333-10.667-17.333-10.667s-8.667-10.667-21.334-16s-30.666-9.333-33.239-10s-15.274-2.853-22.153-10.667
			s-20.252-3.918-25.406-6.05c-5.155-2.132-18.533-11.95-18.533-11.95S448.334,108.333,443,101.95
			c-5.334-6.383-26.282,0.382-27.428,0c-1.146-0.382-9.905-8.283-9.905-8.283s-10-6-15.333-8.002s-23.81,0.964-27.13,0
			s-12.239-3.476-15.536-9.292s-12.253,1.572-18.186,0c-5.934-1.572-11.148-6.707-13.65-8.707S301,62.333,296.292,59
			s-18.625,0.667-22.123,0s-8.502-3.333-10.502-6.104s-11.333,0-11.333,0S236.696,47.001,225.667,49s-10-1.333-18-2.667
			c-7.506-1.251-17.333-4.667-18.899-6.667s-25.121-3.779-25.121-3.779L145,35.161c0,0-19.481,1.637-21.491,0
			c-2.01-1.637-10.838,0-10.838,0s-4.337-5.494-6.316-7.494s-10.021-1.333-13.96-5.095C88.456,18.81,86,23,86,23l-4.91,1.333
			c0,0-6.667,3.332-14.667,0.073c-8-3.259-6.091,1.257-9.425-0.002c-3.334-1.259-10.002-3.536-10.002-3.536
			s-9.338,0.784-15.338,1.451s-6.171,4.302-10.009-0.014s-2.02-3.362-6.02-4.695s-5.372,1.944-15.706-0.056L-20,17.247v12.691
			L0.09,28c0,0,15.436,5.162,19.577,2.333s18.667,0,20.667,0S45,31.667,51.667,33s11,3.667,26.423,1.546
			c13.358-1.836,8.729,1.106,16.23,1.784c3.653,0.33,9.334,1.337,9.334,1.337L119.479,39c0,0,3.521,0.667,18.057,3.333
			c14.536,2.666,11.2,3.333,11.2,3.333l40.032,4l6.833,0.667c0,0,9.4,2,12.067,4.667s5.333,3.333,8,5.333s22,2,26.667,2
			s18,1.333,22.667,2s18,3.333,20.302,1.15c2.302-2.183,14.365,6.85,20.845,10.184c6.479,3.334,6.187,4,11.509,7.333
			s8.677,1.333,18.677,2s4,1.333,7.333,5.333s12.667,4,16,4.667S369,97.667,371,99s4,1.333,8.667,2.667s8.667,3.333,20.333,8
			s3.667,2,16.479,2c12.812,0,15.188,1.333,24.521,2.666s16,12,27.334,15.333S491.667,137,491.667,137s13.333,6,17.104,6.667
			c3.771,0.667,40.407,18.693,40.407,18.693s15.155,3.307,31.155,17.973s12.666,2,22,8.667s15.333,13.333,24.666,16
			s30,20,33.334,21.333s8.666,7.333,12,9.333s6,7.333,8,8.667s3.333,2.667,3.333,2.667s2,6.667,4,10s6.667,3.977,6.667,3.977
			s6,6.69,8.666,10.107s6,4.583,10,9.881c4,5.298,8-1.298,14.667,0c6.667,1.298,3.333,1.368,4,4.644s2,6.725,5.333,9.082
			s5.334,5.643,10,7.569c4.666,1.926,4.667,2.74,9.334,6.048s8.666,8.026,11.333,12.026s0,0,2,3.333s6,6,13.333,7.999
			s6,5.334,7.533,6.177c1.533,0.843,3.134,12.491,3.801,16.491s8.666,10,10,12.667s4.666,7.333,5.333,13.924
			c0.51,5.033,2.968,6.306,10.333,3.627v-22.201C818.339,361.228,816.985,360.303,816.334,359.667z"/>
	</g>
	<g id="boat_1_">
		<g>
			
				<linearGradient id="SVGID_2_" gradientUnits="userSpaceOnUse" x1="477.7969" y1="87.5205" x2="477.7969" y2="8.4894" gradientTransform="matrix(0.7493 0.6623 0.6623 -0.7493 -257.7489 435.4361)">
				<stop  offset="0" style="stop-color:#FFFFFF;stop-opacity:0.8"/>
				<stop  offset="0.9306" style="stop-color:#FFFFFF;stop-opacity:0"/>
			</linearGradient>
			<path fill="url(#SVGID_2_)" d="M135.804,771.9c4.202-6.333,5.295-14.831,8.618-20.485c3.324-5.655,7.935-8.347,11.961-15.112
				c4.027-6.766,3.174-13.692,5.677-18.734c2.503-5.043,8.735-12.794,8.923-17.866s-14.056-15.642-14.056-15.642
				s-9.679-9.405-13.56-8.777c-5.011,0.811-11.93,7.938-16.627,11.043c-4.697,3.104-11.664,3.093-17.884,7.92
				c-6.22,4.828-8.35,9.764-13.554,13.757c-5.203,3.993-13.503,6.121-19.271,11.068L135.804,771.9z"/>
			
				<linearGradient id="SVGID_3_" gradientUnits="userSpaceOnUse" x1="477.5879" y1="94.9819" x2="477.5879" y2="10.9995" gradientTransform="matrix(0.7493 0.6623 0.6623 -0.7493 -257.7489 435.4361)">
				<stop  offset="0" style="stop-color:#FFFFFF;stop-opacity:0.8"/>
				<stop  offset="1" style="stop-color:#FFFFFF;stop-opacity:0"/>
			</linearGradient>
			<path opacity="0.8" fill="url(#SVGID_3_)" enable-background="new    " d="M129.026,762.561
				c4.465-6.729,5.626-15.76,9.159-21.769c3.531-6.009,8.431-8.868,12.71-16.059c4.279-7.189,3.373-14.553,6.033-19.91
				c2.66-5.358,9.282-13.595,9.483-18.985c0.2-5.39-3.284-6.32-3.284-6.32s-1.627-2.344-5.752-1.676
				c-5.325,0.86-12.678,8.437-17.669,11.733c-4.991,3.299-12.395,3.288-19.004,8.417c-6.609,5.13-8.873,10.376-14.403,14.618
				c-5.529,4.242-14.349,6.505-20.479,11.763L129.026,762.561z"/>
		</g>
		<g id="Capa_4_2_">
			<path fill="#D1D1D1" d="M127.576,695.683l26.143,22.901l27.76-30.718c0,0,25.022-23.699,16.775-46.583
				c-22.938-5.056-43.534,21.998-43.534,21.998L127.576,695.683z"/>
			<path fill="#F4F4F4" d="M192.256,647.945c0,0,11.702,9.479-7.667,32.387s-23.031,23.938-23.031,23.938l-21.026-18.421
				l5.016-7.714l16.992-19.396C162.54,658.737,180.873,639.184,192.256,647.945z"/>
			<path fill="#E8E8E8" d="M192.513,647.924c-8.602-7.829-21.169,0.928-31.125,10.876l-15.041,17.755l-10.627,13.019l5.416,7.533
				l2.24-0.345l7.251,6.411c0,0-0.039,1.903,0.18,2.097c1.236,1.081,7.975,4.35,7.975,4.35s7.707-8.406,11.179-12.188
				c0.118-0.129,15.735-16.955,15.917-17.179C194.741,669.384,201.867,656.438,192.513,647.924z M169.89,696.713
				c-0.206,0.324-11.607,10.995-11.607,10.995s-5.282-3.14-6.448-4.161c-0.207-0.182-0.158-1.99-0.158-1.99l-6.848-6.054
				l-2.127,0.341l-5.167-6.31l9.468-12.844c8.948-10.51,9.278-10.478,15.113-17.253c9.827-9.604,22.565-17.793,30.052-10.886
				c7.441,6.865,1.178,20.239-7.067,31.021C184.75,679.962,169.957,696.461,169.89,696.713z"/>
			<path fill="#FFFFFF" d="M174.391,668.801l0.096-0.102l-3.942-2.535l-2.7,0.212c-1.29-0.122-3.957,2.619-3.957,2.619l-4.668,5.329
				l-0.467,1.646l4.49,2.732l3.35-0.952l1.576-1.847L174.391,668.801z"/>
			<path fill="#FFFFFF" d="M174.319,668.738l0.168-0.039l2.83,3.396l0.12,2.684c0.29,1.261-2.101,4.242-2.101,4.242l-4.669,5.33
				l-1.517,0.726l-3.273-4.068l0.552-3.403l1.666-1.768L174.319,668.738z"/>
			<path fill="#C6C6C6" d="M171.342,682.534c0.134-0.174,0.713-3.957,0.713-3.957l-6.96-6.228l-3.955,0.961l-0.307,0.352
				l-0.154,0.176l-0.154,0.176l-1.744,1.99l10.344,9.062C169.125,685.064,171.208,682.709,171.342,682.534z"/>
			<path fill="#394963" d="M141.013,714.347c-0.458,0.518-1.248,0.565-1.764,0.107l-5.447-4.822
				c-0.516-0.457-0.563-1.248-0.106-1.765l7.409-8.366c0.458-0.517,1.248-0.565,1.765-0.106l5.445,4.822
				c0.517,0.457,0.565,1.247,0.107,1.764L141.013,714.347z"/>
			<path fill="#29ABE2" d="M174.445,676.811l-3.545-3.105l-1.353-1.187l-3.194-2.798c0,0-2.276,0.532-5.547,3.929
				c-0.02,0.021,0.149,0.197,0.149,0.197c1.039-0.247,3.621-1.095,3.621-1.095l3.388,2.938l3.706,3.283c0,0-0.507,2.679-0.615,3.74
				c0,0,0.209,0.132,0.227,0.11C174.217,679.135,174.445,676.811,174.445,676.811z"/>
			<g id="Tim贸_3_">
				<path d="M160.841,676.336c-1.249,1.425,3.36,5.646,4.71,4.102C166.738,679.084,162.15,674.84,160.841,676.336z M161.264,676.678
					c0.893-1.02,4.697,2.469,3.888,3.392C164.232,681.12,160.414,677.649,161.264,676.678z"/>
				<path d="M163.298,677.082c0,0-0.378,0.454,0.159,0.913c0.537,0.461,0.811,0.003,0.855-0.024
					C164.358,677.941,163.298,677.082,163.298,677.082z"/>
				<polygon points="163.269,677.868 162.107,678.918 162.809,679.532 163.646,678.199 				"/>
				<path d="M164.032,677.958c0.012,0.009,1.063,2.249,1.063,2.249l0.45-0.381l-1.276-2.029L164.032,677.958z"/>
				<path d="M163.32,677.333c-0.012-0.009-2.419-0.801-2.419-0.801l0.384-0.438l2.113,0.939L163.32,677.333z"/>
			</g>
			<g id="Tapiceria_3_">
				<path fill="#E8CDA0" d="M185.101,679.572c0,0-5.784-4.99-1.716-12.201c4.07-7.211,10.663-16.241,10.728-16.495
					C194.179,650.625,200.932,660.261,185.101,679.572z"/>
				<path fill="#E8CDA0" d="M162.117,659.438c0,0,5.708,5.077,12.32,0.095c6.613-4.981,14.697-12.706,14.939-12.806
					C189.616,646.628,179.176,641.202,162.117,659.438z"/>
				<path fill="#E8CDA0" d="M141.614,683.729c0,0,0.818-1.783,1.771-0.076c3.141,5.619,13.58,15.383,20.209,17.549
					c1.39,0.453,1.151,0.695,0.523,1.35c-0.471,0.491-5.836,5.158-5.836,5.158s-11.013-4.064-20.748-18.174L141.614,683.729z"/>
				<path fill="#E8CDA0" d="M163.52,691.825c-0.257,0.293-0.671,0.141-1.078-0.215l-9.255-8.106c-0.406-0.354-0.74-0.86-0.483-1.152
					l2.704-3.088c0.256-0.292,0.959-0.208,1.365,0.146l9.255,8.106c0.406,0.355,0.452,0.93,0.196,1.223L163.52,691.825z"/>
			</g>
		</g>
		<g>
			<path fill="#996234" d="M159.817,678.195c0,0,1.045-0.185,0.411,1.01c-0.634,1.194-1.046,2.582-1.046,2.582
				s1.334,0.623,1.733,0.459c0.401-0.163,1.441-1.596,2.655-1.121c1.214,0.475,1.815,0.63,0.2,1.68
				c-1.615,1.051-2.621,1.908-2.621,1.908l-4.586-2.508l3.062-3.79"/>
			<path fill="#EF45B7" d="M157.39,681.943c0,0,0.419-3.302,1.099-2.571c0.679,0.729-0.21,0.962,0.694,1.843
				c0.904,0.88,1.416,0.033,2.231,1.45c0.814,1.418,1.554,1.447,0.806,1.908c-0.75,0.462-1.031,0.696-1.031,0.696L157.39,681.943z"
				/>
			<path fill="#996234" d="M156.097,681.175c0,0,1.384-1.71,1.714-2.177c0.617-0.873,2.751-1.936,3.017-2.237
				c0.266-0.305,0.593-0.58,0.6,0.223c0.007,0.801-1.709,1.964-2.542,2.569s-1.148,1.954-1.342,2.214s-0.391-0.53-0.391-0.53
				L156.097,681.175z"/>
			<path fill="#996234" d="M161.2,685.83c0,0,2.059-1.305,2.478-1.692c0.784-0.728,1.557-2.981,1.822-3.286
				c0.265-0.303,0.497-0.661-0.299-0.563c-0.795,0.099-1.723,1.953-2.214,2.857c-0.49,0.904-2.053,1.026-2.284,1.253
				c-0.231,0.229,0.845,0.688,0.845,0.688L161.2,685.83z"/>
			<path fill="#8BC7E8" d="M155.365,680.533c0,0-1.484,2.316-0.58,3.842c0.903,1.525,1.217,2.052,2.785,2.557
				c1.57,0.504,1.936,1.305,2.748,0.201c0.812-1.101,1.966-1.03,1.122-2.056c-0.911-1.104-3.594-3.798-3.771-3.994
				C156.583,679.881,155.365,680.533,155.365,680.533z"/>
			<path fill="#301705" d="M156.296,685.7c0,0-1.05-1.121-0.046-1.918c1.002-0.798,0.802-1.586,1.874-1.172
				c1.072,0.415,2.17-0.023,1.834,1.082c-0.335,1.104-0.445,1.753-1.191,2.083s-0.812,0.514-1.449,0.577
				C156.681,686.419,156.296,685.7,156.296,685.7z"/>
		</g>
	</g>
	<g id="Capa_4_3_">
		<g>
			<path fill="#E5E5E5" d="M531.698,676.471l28.839-17.864l-20.795-34.76c0,0-15.002-30.161-38.719-28.995
				c-11.267,19.969,8.143,46.976,8.143,46.976L531.698,676.471z"/>
			<path fill="#E2E2E2" d="M505.694,602.195c0,0,12.025-8.271,27.88,16.349c15.854,24.62,15.604,28.276,15.604,28.276l-23.195,14.37
				l-5.252-6.894l-13.257-21.397C507.475,632.899,494.268,610.321,505.694,602.195z"/>
			<path fill="#CECECE" d="M505.561,602.066c-9.764,5.795-5.178,20.025,1.268,32.157l12.279,19.108l9.115,13.637l8.58-2.903
				l0.317-2.188l8.056-4.939c0,0,1.766,0.58,2.007,0.432c1.362-0.845,6.337-6.202,6.337-6.202s-5.646-9.595-8.186-13.915
				c-0.085-0.146-11.334-19.527-11.49-19.763C526.229,606.113,516.178,595.766,505.561,602.066z M544.646,637.112
				c0.241,0.284,6.947,13.974,6.947,13.974s-4.438,4.034-5.725,4.831c-0.229,0.142-1.904-0.421-1.904-0.421l-7.604,4.663
				l-0.29,2.083l-7.364,3.021l-9.287-12.505c-7.254-11.352-7.131-11.651-11.789-19.032c-6.16-11.914-10.168-26.144-1.582-31.159
				c8.533-4.985,19.229,4.679,26.938,15.452C533.25,618.459,544.429,636.979,544.646,637.112z"/>
			<path fill="#EFEFEF" d="M526.379,623.955l-2.45-0.709l-3.815,1.57l0.007,0.011l-0.308,0.189l-0.049,0.03l-0.493,0.307
				l-0.009-0.012l-3.014,2.661l-0.561,2.573c-0.48,1.169,1.328,4.433,1.328,4.433l3.643,5.879l1.465,0.868l3.861-3.431l0.043-3.17
				l2.846,1.381l4.749-1.903l-0.212-1.644l-3.643-5.88C529.768,627.11,527.64,624.044,526.379,623.955z"/>
			<path fill="#C6C6C6" d="M531.746,631.582c-0.125-0.173-3.451-1.731-3.451-1.731l-7.738,4.728l-0.172,3.971l0.24,0.388
				l0.119,0.193l0.12,0.193l1.203,1.941l11.329-7.018C533.396,634.247,531.869,631.756,531.746,631.582z"/>
			<path fill="#29ABE2" d="M527.463,627.336l-3.911,2.423l-1.492,0.924l-3.523,2.185c0,0-0.201,2.197,2.035,6.221
				c0.013,0.023,0.202-0.124,0.202-0.124c0.066-1.04,0.001-3.71,0.001-3.71l3.702-2.334l4.121-2.525c0,0,2.354,1.234,3.314,1.64
				c0,0,0.229-0.081,0.215-0.104C529.521,628.135,527.463,627.336,527.463,627.336z"/>
			<g id="Tim贸_4_">
				<path d="M523.04,639.741c0.975,1.573,6.228-1.523,5.174-3.226C527.288,635.021,522.018,638.092,523.04,639.741z M523.48,639.444
					c-0.697-1.124,3.645-3.681,4.274-2.662C528.474,637.942,524.144,640.517,523.48,639.444z"/>
				<path d="M524.438,637.661c0,0,0.316,0.481,0.898,0.113c0.583-0.37,0.234-0.758,0.221-0.808
					C525.544,636.917,524.438,637.661,524.438,637.661z"/>
				<polygon points="525.064,637.754 525.658,639.05 526.432,638.57 525.482,637.495 				"/>
				<path d="M525.465,637.226c0.014-0.008,2.403-0.35,2.403-0.35l-0.229-0.529l-2.258,0.611L525.465,637.226z"/>
				<path d="M524.764,637.66c-0.012,0.007-1.353,1.977-1.353,1.977l-0.3-0.483l1.438-1.679L524.764,637.66z"/>
			</g>
			<g id="Tapiceria_4_">
				<path fill="#E8CDA0" d="M532.986,618.02c0,0-6.31,3.977-11.879-1.881c-5.569-5.855-12.117-14.59-12.334-14.723
					C508.557,601.282,519.48,597.729,532.986,618.02z"/>
				<path fill="#E8CDA0" d="M507.631,633.729c0,0,6.368-3.88,3.605-11.475c-2.765-7.596-7.666-17.348-7.689-17.601
					C503.524,604.4,495.479,612.598,507.631,633.729z"/>
				<path fill="#E8CDA0" d="M524.451,659.799c0,0-1.432-1.271,0.435-1.676c6.143-1.327,18.236-8.283,22.15-13.854
					c0.82-1.167,0.978-0.875,1.409-0.104c0.323,0.58,3.147,6.921,3.147,6.921s-6.938,9.119-22.887,14.179L524.451,659.799z"/>
				<path fill="#E8CDA0" d="M538.639,641.431c0.2,0.322-0.121,1.407-0.567,1.686l-10.21,6.324c-0.448,0.276-0.924-0.313-1.123-0.638
					l-2.109-3.403c-0.2-0.323-0.375-0.782,0.073-1.061l10.209-6.324c0.448-0.276,1.42-0.312,1.619,0.012L538.639,641.431z"/>
			</g>
		</g>
		<g>
			<path fill="#E5E5E5" d="M69.409,436.955l27.973,19.191l23.43-33.039c0,0,21.558-25.886,10.931-47.121
				c-22.814-2.263-39.709,26.384-39.709,26.384L69.409,436.955z"/>
			<path fill="#E2E2E2" d="M126.905,383.222c0,0,12.417,7.673-3.726,32.104c-16.143,24.431-19.589,25.677-19.589,25.677
				l-22.5-15.438l4.191-7.584l14.241-20.757C99.522,397.226,114.863,376.039,126.905,383.222z"/>
			<path fill="#CECECE" d="M126.969,383.047c-9.238-6.6-20.415,3.333-28.92,14.12L85.51,416.105l-8.806,13.84l6.116,6.682
				l2.131-0.592l7.767,5.382c0,0,0.181,1.849,0.415,2.011c1.322,0.906,8.23,3.299,8.23,3.299s6.505-9.034,9.436-13.099
				c0.1-0.137,13.303-18.243,13.456-18.48C131.595,403.594,137.014,390.225,126.969,383.047z M110.647,432.941
				c-0.162,0.336-9.988,11.99-9.988,11.99s-5.48-2.436-6.729-3.292c-0.222-0.151-0.382-1.911-0.382-1.911l-7.332-5.08l-2.023,0.573
				l-5.734-5.521l7.701-13.539c7.465-11.214,7.79-11.223,12.667-18.46c8.421-10.439,19.829-19.842,27.88-14.006
				c8.002,5.8,3.468,19.482-3.285,30.88C123.126,414.995,110.683,432.689,110.647,432.941z"/>
			<path fill="#EFEFEF" d="M115.327,410.922l-0.339-2.528l-2.975-2.859l-0.007,0.012l-0.298-0.205l-0.047-0.031l-0.479-0.329
				l0.007-0.013l-3.65-1.686l-2.581,0.523c-1.263,0.032-3.521,3.003-3.521,3.003l-3.913,5.702l-0.204,1.69l4.696,2.15l2.918-1.237
				l-0.117,3.161l3.656,3.578l1.419-0.855l3.913-5.703C113.805,415.295,115.754,412.111,115.327,410.922z"/>
			<path fill="#C6C6C6" d="M110.51,418.908c0.108-0.186,0.194-3.857,0.194-3.857l-7.444-5.177l-3.703,1.443l-0.258,0.376
				l-0.129,0.188l-0.128,0.188l-1.292,1.884l10.988,7.54C108.736,421.492,110.4,419.09,110.51,418.908z"/>
			<path fill="#29ABE2" d="M112.67,413.276l-3.794-2.604l-1.447-0.994l-3.419-2.346c0,0-2.092,0.702-4.873,4.37
				c-0.017,0.021,0.195,0.136,0.195,0.136c0.979-0.356,3.396-1.495,3.396-1.495l3.628,2.448l3.972,2.754
				c0,0-0.181,2.652-0.164,3.693c0,0,0.167,0.179,0.181,0.155C112.769,415.482,112.67,413.276,112.67,413.276z"/>
			<g id="Tim贸_5_">
				<path d="M99.534,414.229c-1.047,1.525,3.904,5.086,5.036,3.437C105.564,416.215,100.631,412.628,99.534,414.229z
					 M99.983,414.512c0.748-1.092,4.836,1.854,4.159,2.84C103.37,418.477,99.269,415.551,99.983,414.512z"/>
				<path d="M102.001,414.669c0,0-0.314,0.483,0.258,0.868c0.574,0.384,0.787-0.091,0.827-0.123
					C103.126,415.381,102.001,414.669,102.001,414.669z"/>
				<polygon points="102.169,415.28 101.222,416.346 101.973,416.86 102.574,415.559 				"/>
				<path d="M102.813,415.434c0.012,0.009,1.289,2.06,1.289,2.06l0.393-0.422l-1.469-1.82L102.813,415.434z"/>
				<path d="M102.133,414.967c-0.011-0.008-2.354-0.44-2.354-0.44l0.322-0.47l2.115,0.641L102.133,414.967z"/>
			</g>
			<g id="Tapiceria_5_">
				<path fill="#E8CDA0" d="M123.422,414.576c0,0-6.181-4.171-3.066-11.629c3.115-7.458,8.469-16.97,8.503-17.222
					C128.894,385.473,136.548,394.039,123.422,414.576z"/>
				<path fill="#E8CDA0" d="M98.827,397.702c0,0,6.117,4.265,11.954-1.324c5.837-5.591,12.787-14.008,13.009-14.131
					C124.012,382.125,113.268,378.064,98.827,397.702z"/>
				<path fill="#E8CDA0" d="M81.746,423.604c0,0,0.588-1.821,1.709-0.276c3.69,5.086,14.931,13.352,21.606,14.688
					c1.399,0.281,1.195,0.542,0.663,1.248c-0.4,0.531-5.065,5.671-5.065,5.671s-11.142-2.675-22.2-15.23L81.746,423.604z"/>
				<path fill="#E8CDA0" d="M104.274,429.185c-0.214,0.313-1.336,0.456-1.771,0.159l-9.903-6.795
					c-0.435-0.299-0.085-0.971,0.13-1.285l2.266-3.303c0.215-0.312,0.565-0.658,0.999-0.359l9.902,6.795
					c0.435,0.299,0.857,1.175,0.643,1.485L104.274,429.185z"/>
			</g>
		</g>
		<g>
			<path fill="#E5E5E5" d="M289.568,347.939l32.714-8.979l-10.114-39.221c0,0-5.858-33.173-28.937-38.762
				c-16.453,15.966-5.477,47.359-5.477,47.359L289.568,347.939z"/>
			<path fill="#E2E2E2" d="M285.635,269.341c0,0,13.875-4.532,22.117,23.567c8.242,28.099,6.969,31.535,6.969,31.535l-26.312,7.223
				l-3.088-8.097l-6.662-24.274C278.658,299.295,272.376,273.904,285.635,269.341z"/>
			<path fill="#CECECE" d="M285.543,269.18c-11.004,2.796-10.63,17.744-7.881,31.203l6.373,21.801l4.887,15.658l9.051-0.358
				l0.924-2.009l9.124-2.459c0,0,1.529,1.055,1.804,0.98c1.545-0.425,7.833-4.157,7.833-4.157s-2.703-10.8-3.916-15.662
				c-0.04-0.165-5.349-21.936-5.432-22.206C304.223,278.907,297.509,266.14,285.543,269.18z M313.12,313.85
				c0.152,0.34,2.712,15.368,2.712,15.368s-5.397,2.614-6.857,3.015c-0.259,0.071-1.707-0.943-1.707-0.943l-8.611,2.322
				l-0.868,1.916l-7.918,0.816l-5.371-14.621c-3.747-12.94-3.544-13.194-5.925-21.59c-2.539-13.17-2.357-27.952,7.297-30.335
				c9.595-2.369,17.12,9.926,21.467,22.44C307.465,292.735,312.949,313.66,313.12,313.85z"/>
			<path fill="#EFEFEF" d="M299.32,296.063l-2.149-1.373l-4.105,0.426l0.003,0.013l-0.349,0.095l-0.055,0.016l-0.561,0.154
				l-0.004-0.013l-3.643,1.7l-1.266,2.31c-0.791,0.985,0.021,4.628,0.021,4.628l1.83,6.668l1.16,1.247l4.674-2.198l0.938-3.028
				l2.339,2.129l5.093-0.482l0.261-1.636l-1.831-6.67C301.678,300.048,300.504,296.505,299.32,296.063z"/>
			<path fill="none" d="M302.311,304.897c-0.071-0.201-2.82-2.637-2.82-2.637l-8.759,2.345l-1.288,3.76l0.12,0.44l0.06,0.219
				l0.061,0.219l0.604,2.203l12.852-3.526C303.141,307.92,302.38,305.099,302.311,304.897z"/>
			<path fill="#29ABE2" d="M299.404,299.612l-4.437,1.218l-1.692,0.464l-3.998,1.098c0,0-0.814,2.05,0.192,6.542
				c0.006,0.026,0.229-0.062,0.229-0.062c0.359-0.979,1.05-3.559,1.05-3.559l4.212-1.191l4.667-1.256c0,0,1.908,1.85,2.715,2.509
				c0,0,0.244-0.013,0.236-0.038C301.153,300.961,299.404,299.612,299.404,299.612z"/>
			<g id="Tim贸_6_">
				<path d="M291.653,310.26c0.49,1.785,6.404,0.3,5.875-1.629C297.062,306.936,291.139,308.389,291.653,310.26z M292.159,310.1
					c-0.351-1.275,4.537-2.499,4.854-1.344C297.373,310.072,292.492,311.316,292.159,310.1z"/>
				<path d="M293.582,308.661c0,0,0.167,0.552,0.83,0.363c0.664-0.19,0.439-0.66,0.44-0.711
					C294.852,308.26,293.582,308.661,293.582,308.661z"/>
				<polygon points="294.157,308.927 294.36,310.337 295.237,310.097 294.631,308.796 				"/>
				<path d="M294.69,308.533c0.014-0.004,2.404,0.345,2.404,0.345l-0.069-0.572l-2.338-0.052L294.69,308.533z"/>
				<path d="M293.895,308.751c-0.013,0.004-1.856,1.514-1.856,1.514l-0.151-0.549l1.854-1.203L293.895,308.751z"/>
			</g>
			<g id="Tapiceria_6_">
				<path fill="#E8CDA0" d="M307.337,292.239c0,0-7.176,2.028-10.862-5.164c-3.686-7.193-7.496-17.421-7.667-17.61
					C288.639,269.275,300.121,268.958,307.337,292.239z"/>
				<path fill="#E8CDA0" d="M278.573,300.134c0,0,7.206-1.919,6.704-9.985c-0.502-8.067-2.446-18.808-2.397-19.057
					C282.93,270.843,272.894,276.429,278.573,300.134z"/>
				<path fill="#E8CDA0" d="M287.333,329.898c0,0-1.013-1.625,0.891-1.485c6.267,0.464,19.834-2.787,25.165-7.023
					c1.117-0.887,1.186-0.563,1.381,0.299c0.147,0.648,1.062,7.529,1.062,7.529s-9.234,6.784-25.962,7.126L287.333,329.898z"/>
				<path fill="#E8CDA0" d="M306.136,316.293c0.102,0.366-0.514,1.315-1.021,1.455l-11.582,3.178
					c-0.508,0.14-0.796-0.562-0.897-0.928l-1.061-3.862c-0.101-0.367-0.138-0.856,0.37-0.996l11.581-3.178
					c0.508-0.139,1.45,0.103,1.55,0.468L306.136,316.293z"/>
			</g>
		</g>
		<path id="spuma" opacity="0.8" fill="#FFFFFF" enable-background="new    " d="M-0.077,17.555c10.334,2,11.706-1.277,15.706,0.056
			s2.181,0.379,6.02,4.695s4.009,0.68,10.009,0.014s15.338-1.451,15.338-1.451s6.668,2.277,10.002,3.536
			c3.334,1.259,1.425-3.257,9.425,0.002c8,3.259,14.667-0.073,14.667-0.073L86,23c0,0,2.454-4.19,6.394-0.428
			c3.94,3.762,11.981,3.095,13.96,5.095s6.316,7.494,6.316,7.494s8.829-1.637,10.838,0c2.009,1.637,21.491,0,21.491,0l18.646,0.728
			c0,0,23.555,1.779,25.121,3.779s11.394,5.416,18.899,6.667c8,1.333,6.971,4.665,18,2.667c11.029-1.998,26.667,3.896,26.667,3.896
			s9.333-2.771,11.333,0s7.004,5.438,10.502,6.104s17.415-3.333,22.123,0s17.038,6.667,19.54,8.667s7.717,7.135,13.65,8.707
			c5.933,1.572,14.888-5.816,18.186,0s12.216,8.328,15.536,9.292s21.797-2.002,27.13,0s15.333,8.002,15.333,8.002
			s8.76,7.901,9.905,8.283c1.145,0.382,22.094-6.384,27.428,0c5.334,6.384,28.667,15.717,28.667,15.717s13.378,9.819,18.533,11.95
			s18.526-1.764,25.405,6.05c6.88,7.814,19.581,10,22.154,10.667s20.572,4.667,33.239,10s21.334,16,21.334,16s6.666,6,17.333,10.667
			s10.666,6.667,21.333,12s24.666,12.667,28,17.333s12,10,18,13.333s16.748,9.943,20.667,15.333c5.333,7.333-0.925,4.613,12,10
			c12.925,5.387,27.999,20.667,29.333,24s7.333,12.339,16,17.503s12.001,15.363,23.334,23.93S794,322.874,797,328.604
			s6.666,14.941,10,19.335s5.922,8.395,9.334,11.728s26,14.515,12,21.257c-14,6.742-18,6.591-18.667,0
			c-0.667-6.591-3.999-11.258-5.333-13.924s-9.333-8.667-10-12.667s-2.268-15.648-3.801-16.491c-1.533-0.843-0.2-4.178-7.533-6.177
			s-11.333-4.666-13.333-7.999s0.667,0.667-2-3.333s-6.666-8.718-11.333-12.026s-4.668-4.122-9.334-6.048
			c-4.666-1.926-6.667-5.212-10-7.569s-4.666-5.806-5.333-9.082s2.667-3.345-4-4.644s-10.667,5.298-14.667,0s-7.334-6.464-10-9.881
			s-8.666-10.107-8.666-10.107s-4.667-0.644-6.667-3.977s-4-10-4-10s-1.333-1.333-3.333-2.667s-4.666-6.667-8-8.667
			s-8.666-8-12-9.333S636.333,207.667,627,205s-15.332-9.333-24.666-16s-6,6-22-8.667s-31.155-17.973-31.155-17.973
			s-36.638-18.026-40.407-18.693C505.001,143,491.667,137,491.667,137s-11.999-4-23.333-7.333s-18.001-14-27.334-15.333
			s-11.71-2.667-24.521-2.667c-12.811,0-4.812,2.667-16.479-2s-15.666-6.667-20.333-8S373,100.333,371,99s-8-3.333-11.333-4
			s-12.667-0.667-16-4.667s2.667-4.667-7.333-5.333s-13.354,1.333-18.677-2s-5.029-4-11.509-7.333
			c-6.48-3.333-18.544-12.367-20.847-10.184C283,67.666,269.667,65,265,64.333s-18-2-22.667-2s-24,0-26.667-2s-5.333-2.667-8-5.333
			S195.6,50.333,195.6,50.333l-6.833-0.667l-40.032-4c0,0,3.335-0.667-11.2-3.333C123,39.667,119.479,39,119.479,39l-15.824-1.333
			c0,0-5.682-1.007-9.334-1.337c-7.5-0.678-2.872-3.62-16.23-1.784C62.667,36.667,58.334,34.333,51.667,33
			s-9.333-2.667-11.333-2.667s-16.525-2.829-20.667,0C15.526,33.162,0.09,28,0.09,28H-8V17L-0.077,17.555z"/>
		<path fill="#F2EEDD" d="M918.334,83.667"/>
		<g id="Sombrilla">
			<path fill="#E8628F" d="M711.157,91l10.669-10.747c-2.726-2.897-6.558-4.81-10.826-4.902V91H711.157z"/>
			<path fill="#FFFFFF" d="M725.986,90.932c0.002-0.089,0.014-0.175,0.014-0.265c0-4.064-1.593-7.749-4.174-10.493l-10.669,10.669
				L725.986,90.932z"/>
			<path fill="#F9F9F9" d="M711,91V75.351c-0.112-0.002-0.221-0.017-0.333-0.017c-4.233,0-8.067,1.796-10.842,4.57L710.842,91H711z"
				/>
			<path fill="#E8628F" d="M711.157,90.843L711.001,91l10.509,10.509c2.716-2.716,4.406-6.45,4.478-10.577L711.157,90.843z"/>
			<path fill="#E8628F" d="M699.825,79.825c-2.774,2.775-4.491,6.608-4.491,10.842c0,0.028,0.004,0.055,0.004,0.082l15.504,0.092
				L699.825,79.825z"/>
			<path fill="#FFFFFF" d="M711,91.001v14.982c4.101-0.088,7.809-1.773,10.51-4.475L711,91.001L711,91.001z"/>
			<path fill="#FFFFFF" d="M711,91l-0.158-0.158l-15.504-0.092c0.023,4.371,1.882,8.299,4.837,11.078L711,91L711,91z"/>
			<path fill="#E8628F" d="M700.175,101.827c2.743,2.581,6.428,4.173,10.492,4.173c0.112,0,0.221-0.015,0.333-0.017V91.001
				L700.175,101.827z"/>
		</g>
		<g id="Sombrilla_2_">
			<path fill="#E8628F" d="M561.157,44l10.669-10.747c-2.726-2.897-6.558-4.81-10.826-4.902V44H561.157z"/>
			<path fill="#FFFFFF" d="M575.986,43.932c0.002-0.089,0.014-0.175,0.014-0.265c0-4.064-1.593-7.749-4.174-10.493l-10.669,10.669
				L575.986,43.932z"/>
			<path fill="#F9F9F9" d="M561,44V28.351c-0.112-0.002-0.221-0.017-0.333-0.017c-4.233,0-8.067,1.796-10.842,4.57L560.842,44H561z"
				/>
			<path fill="#E8628F" d="M561.157,43.843L561.001,44l10.509,10.509c2.716-2.716,4.406-6.45,4.478-10.577L561.157,43.843z"/>
			<path fill="#E8628F" d="M549.825,32.825c-2.774,2.775-4.491,6.608-4.491,10.842c0,0.028,0.004,0.055,0.004,0.082l15.504,0.092
				L549.825,32.825z"/>
			<path fill="#FFFFFF" d="M561,44.001v14.982c4.101-0.088,7.809-1.773,10.51-4.475L561,44.001L561,44.001z"/>
			<path fill="#FFFFFF" d="M561,44l-0.158-0.158l-15.504-0.092c0.023,4.371,1.882,8.299,4.837,11.078L561,44L561,44z"/>
			<path fill="#E8628F" d="M550.175,54.827c2.743,2.581,6.428,4.173,10.492,4.173c0.112,0,0.221-0.015,0.333-0.017V44.001
				L550.175,54.827z"/>
		</g>
		<g id="Sombrilla_1_">
			<path fill="#E8628F" d="M761.157,164l10.669-10.747c-2.726-2.897-6.558-4.81-10.826-4.902V164H761.157z"/>
			<path fill="#FFFFFF" d="M775.986,163.932c0.002-0.089,0.014-0.175,0.014-0.265c0-4.064-1.593-7.749-4.174-10.493l-10.669,10.669
				L775.986,163.932z"/>
			<path fill="#F9F9F9" d="M761,164v-15.649c-0.112-0.002-0.221-0.017-0.333-0.017c-4.233,0-8.067,1.796-10.842,4.57L760.842,164
				H761z"/>
			<path fill="#E8628F" d="M761.157,163.843L761.001,164l10.509,10.509c2.716-2.716,4.406-6.45,4.478-10.577L761.157,163.843z"/>
			<path fill="#E8628F" d="M749.825,152.825c-2.774,2.775-4.491,6.608-4.491,10.842c0,0.028,0.004,0.055,0.004,0.082l15.504,0.092
				L749.825,152.825z"/>
			<path fill="#FFFFFF" d="M761,164.001v14.982c4.101-0.088,7.809-1.773,10.51-4.475L761,164.001L761,164.001z"/>
			<path fill="#FFFFFF" d="M761,164l-0.158-0.158l-15.504-0.092c0.023,4.371,1.882,8.299,4.837,11.078L761,164L761,164z"/>
			<path fill="#E8628F" d="M750.175,174.827c2.743,2.581,6.428,4.173,10.492,4.173c0.112,0,0.221-0.015,0.333-0.017v-14.982
				L750.175,174.827z"/>
		</g>
	</g>
</g>
</svg>
