<?xml version="1.0" encoding="utf-8"?>
<!-- Generator: Adobe Illustrator 16.0.0, SVG Export Plug-In . SVG Version: 6.00 Build 0)  -->
<!DOCTYPE svg PUBLIC "-//W3C//DTD SVG 1.1//EN" "http://www.w3.org/Graphics/SVG/1.1/DTD/svg11.dtd">
<svg version="1.1" id="Mòvil_mà" xmlns="http://www.w3.org/2000/svg" xmlns:xlink="http://www.w3.org/1999/xlink" x="0px" y="0px"
	 width="800px" height="800px" viewBox="0 0 800 800" enable-background="new 0 0 800 800" xml:space="preserve">
<g id="Capa_2">
	<path fill="#F9DBBD" d="M699.831,622.317c-6.902-4.632-27.729-25.162-32.097-33.899c-6.467-7.396-40.174-99.107-49.027-114.483
		c-8.854-15.377-22.609-69.371-30.443-77.613c-13.807-10.717-39.854-91.04-40.233-98.059c-0.381-7.019-22.876-30.432-25.177-34.888
		s-5.322-13.802-8.175-14.85c-2.854-1.049-11.432-59.32-12.45-60.63c-1.019-1.312-2.377-0.077-2.377-0.077
		c-9.09-12.639-38.509,16.946-35.042,28.101l-225.693-6.048c-0.022-0.003-15.651-2.102-20.147-0.836
		c-4.5,1.268-12.014-1.09-20.182,11.623c-8.168,12.713,4.764,31.147,7.91,33.506c3.146,2.359,42.904,31.626,42.904,31.626h0
		l8.655,76.568l-26.946,27.984l39.16,22.903l-36.845,54.414l28.252,19.003l17.99,13.751l-3.602-1.87c0,0-3.729,0.115-6.757-0.7
		c-3.028-0.813-22.658,7.401-25.163,10.255c-2.505,2.854-8.558,9.962-9.259,24c1.691,22.017,30.088,37.306,31.544,37.305
		c1.457-0.001,17.826,14.096,20.33,15.61c2.505,1.515,8.388,7.745,16.428,17.415c8.039,9.669,23.593,18.055,25.34,20.094
		c1.748,2.038,30.029,25.249,36.699,29.705c6.67,4.454,76.718,47.699,82.339,50.641c5.621,2.939,57.551,25.683,59.736,26.41
		s11.126,9.438,14.3,9.813c3.176,0.378,18.7,12.931,29.71,18.639s30.612,33.693,44.478,47.73
		c13.863,14.039,123.616,163.321,125.16,165.388c1.544,2.067,143.844-35.748,143.844-35.748l55.302-74.474
		C920.295,860.626,706.734,626.947,699.831,622.317z"/>
</g>
<g id="Capa_3">
	<path fill="#282726" d="M511.148,492.931c2.582,18.058-9.966,34.79-28.023,37.371l-166.251,23.764
		c-18.058,2.581-34.79-9.966-37.371-28.023l-60.129-420.666c-2.581-18.058,9.966-34.79,28.023-37.371l166.251-23.763
		c18.058-2.581,34.79,9.965,37.371,28.023L511.148,492.931z"/>
</g>
<g id="Capa_6">
	<circle fill="#353535" cx="395.852" cy="507.038" r="21.419"/>
	<circle fill="#353535" cx="334.54" cy="78.097" r="3.708"/>
	<path fill="#353535" d="M358.149,93.92c-0.338-2.365-2.528-4.008-4.893-3.67l-34.006,4.861c-2.365,0.338-4.007,2.528-3.669,4.893
		l0.05,0.347c0.338,2.365,2.528,4.008,4.893,3.67l34.006-4.861c2.365-0.338,4.006-2.528,3.668-4.893L358.149,93.92z"/>
</g>
<g id="Capa_4">
	
		<rect x="265.398" y="124.573" transform="matrix(0.9899 -0.1415 0.1415 0.9899 -38.7798 54.7956)" fill="#EAEAEA" width="201" height="351"/>
</g>
<g id="Capa_5">
	<path fill="#F9DBBD" d="M229.031,389.679c0.402,0.278,26.912,8.167,39.099-4.809c12.188-12.976,12.317-28.441,6.812-36.392
		c-5.505-7.95-8.52-12.668-16.537-15.267c-1.682-1.944-3.561-8.54-7.646-9.829c0,0-22.172-12.121-40.43,18.417
		C198.82,366.069,210.157,376.619,229.031,389.679z"/>
	<path fill="#F9DBBD" d="M263.136,474.363c0.423,0.241,7.842,4.652,13.041,5.001c5.198,0.35,16.928-0.548,20.03-2.862
		c3.101-2.316,14.153-12.321,14.546-20.49c0.393-8.171,1.266-14.067-0.613-16.296c-1.878-2.228-5.286-8.605-10.704-10.483
		c-5.417-1.879-14.243-6.858-16.493-8.408c-2.25-1.551-10.834-7.032-12.473-7.579c-1.638-0.546-7.383-5.81-8.913-6.684
		c-1.529-0.874-4.74-2.599-8.519-2.839c-3.779-0.24-24.399-2.598-33.964,21.081c-6.377,18.698-3.625,22.674-0.829,29.14
		c2.797,6.465,12.256,12.602,15.379,13.716C236.748,468.773,253.961,469.121,263.136,474.363z"/>
	<path fill="#F9DBBD" d="M272.573,497.822c0,0,12.124,4.04,17.367,6.88c5.243,2.839,18.567,5.459,21.167,6.18
		s18.917,6.813,18.917,16.643c0,9.83-5.066,23.505-15.922,26.147c-10.855,2.645-6.421,3.103-19.112,2.732
		c-12.691-0.369-21.691,1.072-21.691,1.072s-11.445,0.7-15.072-3.931c-3.626-4.631-8.87-29.313-7.538-33.092
		C252.021,516.675,251.189,499.942,272.573,497.822z"/>
</g>
</svg>
