<?xml version="1.0" encoding="utf-8"?>
<!-- Generator: Adobe Illustrator 16.0.0, SVG Export Plug-In . SVG Version: 6.00 Build 0)  -->
<!DOCTYPE svg PUBLIC "-//W3C//DTD SVG 1.1//EN" "http://www.w3.org/Graphics/SVG/1.1/DTD/svg11.dtd">
<svg version="1.1" id="Capa_1" xmlns="http://www.w3.org/2000/svg" xmlns:xlink="http://www.w3.org/1999/xlink" x="0px" y="0px"
	 width="800px" height="800px" viewBox="0 0 800 800" enable-background="new 0 0 800 800" xml:space="preserve">
<g id="cèl">
	<g id="Cèl_2_">
		
			<linearGradient id="SVGID_1_" gradientUnits="userSpaceOnUse" x1="411.3379" y1="-661.0088" x2="1210.5" y2="-661.0088" gradientTransform="matrix(-4.371139e-08 -1 1 -4.371139e-08 1061.5 1210.4995)">
			<stop  offset="0.1444" style="stop-color:#FFFFFF"/>
			<stop  offset="1" style="stop-color:#00C3FF"/>
		</linearGradient>
		<polygon fill="url(#SVGID_1_)" points="0,0 800,0 800.981,799.162 0.982,799.162 		"/>
	</g>
</g>
<g id="_x31_">
	<g id="Ancla">
		<path fill="#727272" d="M773.829,674.145c0.351,0.305,1.552-0.14,1.738-0.237c0.124-0.065,0.176-0.188,0.179-0.344
			c0.007-0.284-0.144-0.671-0.305-1c-0.172-0.49-3.506-19.685-5.5-31.149c-0.89-5.124-1.596-9.171-1.714-9.81
			c-0.169-0.932-0.479-1.527-0.913-1.771c-0.354-0.193-0.646-0.084-0.656-0.078c-1.258,0.244-1.25,0.645-1.124,1.331
			c0.021,0.115,0.045,0.243,0.062,0.384c0.099,0.85,5.027,34.649,5.238,36.088c0.102,0.475,0.29,1.772-0.028,2.218
			c-0.358,0.508-2.054,1.073-2.881,1.259c-3.917,0.901-6.741,1.176-7.032,0.685c-0.094-0.154-0.201-0.725,0.808-2.67
			c0.573-1.105,1.287-2.218,1.494-2.479c0.042-0.052,4.027-5.461,3.855-6.681c-0.017-0.114-0.067-0.206-0.146-0.261
			c-0.756-0.538-2.302,0.219-4.099,1.095l-0.465,0.231c-1.479,0.72-3.064,1.646-3.696,2.02c0.176-0.938,0.673-3.604,0.715-4.016
			c0.005-0.039,0.01-0.098,0.012-0.167c0.008-0.271-0.027-0.733-0.309-1.042c-0.177-0.196-0.42-0.292-0.722-0.294
			c-0.569,0.005-1.438,0.758-2.356,1.549c-0.153,0.14-0.309,0.268-0.455,0.398c-0.027-0.056-0.045-0.099-0.07-0.152
			c-0.555-1.205-1.307-2.853-2.131-3.094c-0.207-0.062-0.407-0.028-0.596,0.095c-0.864,0.557-0.562,3.072,0.949,7.899
			c1.133,3.618,3.528,8.772,3.553,8.823c0.519,1.115,2.123,2.807,3.908,2.91c1.703,0.102,11.59-1.598,12.654-1.783
			C773.81,674.115,773.821,674.129,773.829,674.145z"/>
		<g>
			<path fill="#727272" d="M767.084,631.819c0.107,0.071,0.23,0.103,0.358,0.08c0.262-0.039,0.44-0.285,0.396-0.556
				c-0.021-0.125-0.091-0.237-0.193-0.311c-0.104-0.073-0.231-0.105-0.358-0.085c-0.226,0.036-0.396,0.23-0.403,0.462
				c0,0.033,0.001,0.062,0.007,0.096C766.91,631.634,766.979,631.744,767.084,631.819z"/>
			<path fill="#727272" d="M761.608,675.178c1.595,0.097,10.968-1.5,12.459-1.757c-0.07-0.164-0.106-0.354-0.09-0.524
				c0.024-0.203,0.128-0.365,0.289-0.451c0.223-0.118,0.593-0.241,0.859-0.324l-0.062-0.034l-6.063-37.37
				c-0.329-1.872-0.549-3.143-0.611-3.479c-0.191-1.037-0.521-1.424-0.764-1.562c-0.227-0.13-0.416-0.067-0.446-0.061
				c-1.053,0.208-1.014,0.423-0.908,0.995c0.023,0.123,0.043,0.259,0.06,0.403c0.025,0.19,0.312,2.195,0.739,5.164
				c0.958,0.588,1.158,1.881,1.169,1.935c0.217,1.211,5.34,29.681,3.872,32.253c-0.39,0.687-2.595,1.166-2.839,1.219
				c-0.209,0.051-5.15,1.237-7.003,1.271c-2.7,0.043-4.023-3.359-4.293-4.678c-0.229-1.117,0.628-5.197,0.632-5.372v-0.002
				c0.004-0.145,0.79-3.829,0.839-4.3c0.034-0.314,0.062-0.741-0.154-0.979c-0.126-0.13-0.288-0.2-0.506-0.198
				c-0.459,0.002-1.365,0.79-2.165,1.477c-0.541,0.466-1.053,0.909-1.47,1.165c-0.553,0.341-0.903,0.439-1.104,0.313
				c-0.124-0.082-0.146-0.219-0.138-0.286l0.29,0.038c0.001,0.002,0.141,0.087,0.8-0.312c0.216-0.131,0.466-0.325,0.735-0.547
				c-0.035-0.073-0.068-0.143-0.104-0.224c-0.464-1.022-1.248-2.73-1.941-2.928c-0.122-0.041-0.237-0.021-0.354,0.054
				c-0.49,0.32-0.703,1.896,1.072,7.573c0.698,2.221,1.876,5.033,2.682,6.868c-0.098-3.091,1.191-9.37,1.643-11.588
				c0.084-0.414,0.151-0.737,0.155-0.787l0.149,0.007l0.144-0.023c0.001,0.005,0.002,0.013,0.002,0.023
				c0.003,0.052-0.021,0.182-0.157,0.835c-0.502,2.445-2.022,9.867-1.563,12.367c0.294,0.657,0.479,1.062,0.486,1.08
				C758.371,673.34,759.877,675.075,761.608,675.178z M766.914,632.06c-0.169-0.126-0.28-0.305-0.312-0.508
				c-0.071-0.43,0.224-0.823,0.639-0.892c0.204-0.035,0.409,0.016,0.577,0.135c0.173,0.123,0.282,0.298,0.312,0.503
				c0.008,0.053,0.011,0.104,0.01,0.147c-0.009,0.369-0.28,0.686-0.648,0.744C767.287,632.224,767.082,632.178,766.914,632.06z"/>
			<path fill="#727272" d="M767.129,636.574c1.459,10.063,4.404,30.24,4.438,30.502c0.043,0.186,0.377,1.812-0.074,2.442
				c-0.474,0.653-2.418,1.229-3.066,1.373c-2.52,0.581-6.822,1.42-7.343,0.544c-0.632-1.062,2.078-5.164,2.325-5.479
				c0.482-0.61,3.938-5.483,3.796-6.457c-0.002-0.015-0.009-0.05-0.025-0.06c-0.609-0.438-2.155,0.32-3.793,1.119l-0.467,0.229
				c-1.703,0.83-3.562,1.94-3.897,2.146c-0.111,0.521-0.889,4.206-0.686,5.188c0.236,1.166,1.479,4.48,3.963,4.439
				c1.821-0.027,6.871-1.246,6.927-1.263c0.643-0.134,2.368-0.595,2.641-1.076c1.418-2.479-3.854-31.761-3.907-32.062
				C767.956,638.146,767.798,637.148,767.129,636.574z"/>
			<path fill="#727272" d="M775.335,671.901l0.236,0.141c-0.214-1.007-0.979-5.281-2.251-12.549L775.335,671.901z"/>
			<path fill="#727272" d="M774.471,673.505c0.153,0.136,1.097-0.112,1.411-0.276c0.058-0.033,0.041-0.349-0.25-0.95l-0.103,0.025
				c-0.008,0.004-0.782,0.221-1.124,0.402c-0.078,0.037-0.122,0.115-0.137,0.223C774.243,673.146,774.354,673.402,774.471,673.505z"
				/>
			<path fill="#727272" d="M774.283,673.722c0.349,0.305,1.55-0.142,1.736-0.239c0.123-0.063,0.176-0.188,0.178-0.343
				c0.009-0.283-0.144-0.669-0.306-1c-0.17-0.489-3.508-19.683-5.503-31.147c-0.889-5.124-1.592-9.171-1.713-9.812
				c-0.172-0.929-0.479-1.523-0.917-1.77c-0.348-0.192-0.645-0.081-0.657-0.076c-1.256,0.245-1.244,0.643-1.116,1.329
				c0.021,0.117,0.043,0.244,0.055,0.385c0.101,0.853,5.03,34.651,5.24,36.091c0.105,0.472,0.292,1.771-0.025,2.217
				c-0.364,0.506-2.056,1.071-2.885,1.258c-3.917,0.899-6.742,1.176-7.034,0.685c-0.091-0.156-0.198-0.726,0.808-2.67
				c0.576-1.109,1.291-2.222,1.498-2.481c0.04-0.051,4.023-5.457,3.855-6.678c-0.017-0.116-0.068-0.204-0.149-0.262
				c-0.753-0.539-2.305,0.219-4.097,1.095l-0.47,0.232c-1.479,0.718-3.079,1.646-3.709,2.02c-0.032,0.18-0.072,0.293-0.077,0.319
				l-0.321-0.055c-0.001-0.001-0.066-0.007-0.065-0.01l-0.002,0.002c-0.005,0.175-0.859,4.256-0.63,5.375
				c0.271,1.312,1.624,4.719,4.324,4.672c1.856-0.027,6.776-1.219,6.989-1.271c0.245-0.051,2.44-0.534,2.831-1.218
				c1.466-2.575-3.661-31.045-3.878-32.254c-0.007-0.055-0.212-1.348-1.172-1.935c-0.43-2.971-0.721-4.975-0.741-5.166
				c-0.016-0.146-0.038-0.28-0.062-0.402c-0.104-0.573-0.142-0.786,0.912-0.995c0.029-0.008,0.217-0.07,0.443,0.062
				c0.243,0.14,0.572,0.524,0.765,1.562c0.062,0.337,0.282,1.607,0.609,3.479l6.067,37.369l0.059,0.035
				c-0.268,0.082-0.636,0.208-0.858,0.325c-0.162,0.085-0.264,0.248-0.289,0.454c-0.019,0.166,0.02,0.356,0.091,0.521
				c0.12-0.021,0.196-0.033,0.205-0.035l0.051,0.289c-0.02,0.003-0.044,0.008-0.082,0.013
				C774.256,673.699,774.268,673.713,774.283,673.722z M767.134,636.588c0.668,0.569,0.827,1.564,0.829,1.577
				c0.054,0.301,5.326,29.585,3.909,32.062c-0.273,0.481-2.001,0.939-2.643,1.08c-0.056,0.016-5.104,1.231-6.924,1.259
				c-2.489,0.043-3.729-3.273-3.966-4.438c-0.199-0.984,0.572-4.67,0.684-5.188c0.338-0.207,2.195-1.317,3.899-2.146l0.466-0.229
				c1.638-0.802,3.185-1.559,3.794-1.119c0.021,0.009,0.025,0.042,0.026,0.059c0.144,0.977-3.314,5.849-3.797,6.459
				c-0.248,0.313-2.956,4.417-2.325,5.479c0.518,0.876,4.823,0.036,7.343-0.545c0.648-0.146,2.594-0.719,3.066-1.373
				c0.449-0.63,0.118-2.26,0.074-2.443C771.534,666.82,768.589,646.645,767.134,636.588z M775.571,672.042l-0.236-0.141
				l-2.015-12.408C774.594,666.761,775.356,671.031,775.571,672.042z M774.472,673.504c-0.118-0.104-0.229-0.359-0.202-0.577
				c0.014-0.106,0.058-0.186,0.137-0.223c0.342-0.186,1.115-0.398,1.125-0.402l0.102-0.025c0.289,0.603,0.307,0.918,0.249,0.949
				C775.567,673.389,774.628,673.639,774.472,673.504z"/>
			<path fill="#727272" d="M755.741,659.175c0.076-0.06,0.153-0.124,0.23-0.189c-0.022-0.057-0.045-0.099-0.068-0.152
				c-0.557-1.205-1.309-2.853-2.127-3.095c-0.209-0.062-0.41-0.029-0.599,0.093c-0.863,0.559-0.56,3.072,0.95,7.905
				c1.136,3.612,3.529,8.77,3.558,8.818c0.519,1.115,2.119,2.808,3.907,2.914c1.701,0.101,11.585-1.601,12.651-1.786
				c-0.071-0.07-0.13-0.163-0.175-0.267c-1.487,0.253-10.859,1.85-12.458,1.758c-1.731-0.102-3.239-1.837-3.661-2.743
				c-0.008-0.018-0.193-0.424-0.487-1.08c0.001,0.005,0.002,0.013,0.003,0.021l-0.287,0.051c-0.048-0.256-0.079-0.56-0.085-0.909
				c-0.808-1.832-1.981-4.647-2.681-6.865c-1.775-5.682-1.563-7.252-1.072-7.575c0.115-0.071,0.231-0.093,0.354-0.052
				c0.691,0.194,1.476,1.904,1.942,2.928C755.674,659.029,755.706,659.101,755.741,659.175z"/>
			<path fill="#727272" d="M774.242,673.686c0.038-0.005,0.062-0.01,0.082-0.014l-0.051-0.288c-0.01,0.001-0.086,0.015-0.205,0.034
				C774.113,673.523,774.172,673.613,774.242,673.686z"/>
			<path fill="#727272" d="M758.812,662.721c0.005-0.006,0.11-0.067,0.284-0.167c0.175-0.936,0.671-3.604,0.712-4.016
				c0.01-0.035,0.01-0.097,0.016-0.166c0.007-0.273-0.031-0.732-0.309-1.038c-0.179-0.202-0.424-0.296-0.727-0.298
				c-0.568,0.005-1.436,0.757-2.355,1.548c-0.155,0.141-0.311,0.268-0.459,0.399c0.035,0.074,0.071,0.154,0.104,0.221l-0.262,0.124
				c-0.024-0.047-0.047-0.102-0.071-0.156c-0.271,0.223-0.522,0.417-0.737,0.548c-0.658,0.4-0.796,0.314-0.797,0.314l-0.293-0.04
				c-0.01,0.072,0.014,0.206,0.138,0.286c0.202,0.129,0.556,0.024,1.105-0.313c0.416-0.256,0.928-0.695,1.468-1.165
				c0.802-0.687,1.707-1.473,2.167-1.477c0.217-0.001,0.383,0.067,0.505,0.198c0.216,0.239,0.256,0.663,0.225,0.98
				c-0.054,0.473-0.745,4.159-0.774,4.3l0.013-0.058L758.812,662.721z"/>
			<path fill="#727272" d="M759.038,662.87c0.005-0.021,0.026-0.143,0.06-0.317c-0.176,0.098-0.279,0.158-0.283,0.163l-0.055,0.032
				l-0.013,0.059c-0.001,0.002-0.001,0.009-0.001,0.009L759.038,662.87z"/>
			<path fill="#727272" d="M756.076,659.203c-0.032-0.065-0.068-0.146-0.104-0.222c-0.08,0.065-0.155,0.131-0.233,0.192
				c0.023,0.052,0.047,0.106,0.072,0.155L756.076,659.203z"/>
			<path fill="#727272" d="M757.092,670.509c0.136,0.314,0.26,0.595,0.37,0.842c-0.458-2.497,1.062-9.92,1.563-12.366
				c0.133-0.653,0.156-0.783,0.158-0.836c0.001-0.01-0.001-0.018-0.002-0.023l-0.144,0.023l-0.15-0.006
				c-0.004,0.049-0.07,0.372-0.155,0.787C758.28,661.143,756.994,667.428,757.092,670.509z"/>
			<path fill="#727272" d="M757.458,671.355c-0.109-0.247-0.237-0.528-0.369-0.841c0.007,0.35,0.037,0.65,0.083,0.906l0.29-0.049
				C757.46,671.365,757.459,671.359,757.458,671.355z"/>
			<path fill="#727272" d="M766.913,632.059c0.171,0.116,0.373,0.164,0.578,0.134c0.366-0.061,0.64-0.372,0.648-0.743
				c0.001-0.045-0.002-0.095-0.011-0.147c-0.03-0.205-0.142-0.382-0.312-0.503c-0.168-0.117-0.374-0.17-0.578-0.136
				c-0.414,0.067-0.709,0.461-0.64,0.891C766.635,631.76,766.745,631.936,766.913,632.059z M767.084,631.822
				c-0.105-0.075-0.176-0.187-0.195-0.312c-0.007-0.033-0.009-0.064-0.005-0.096c0.004-0.232,0.176-0.426,0.4-0.463
				c0.127-0.022,0.255,0.009,0.358,0.083c0.104,0.075,0.175,0.186,0.193,0.312c0.045,0.271-0.135,0.515-0.393,0.556
				C767.316,631.925,767.19,631.895,767.084,631.822z"/>
		</g>
	</g>
	<path fill="#FFCBA1" d="M717.188,474.099c0,0-0.752,4.603-1.733,5.996c-0.98,1.396-1.765,6.122-2.113,7.577
		c-0.35,1.453-1.729,4.828-2.319,12.206c-0.312,3.884-0.367,6.385-0.307,7.883c-0.033,1.043-0.09,2.065-0.188,2.243
		c-0.212,0.383-0.738,2.459-0.659,2.818c0.079,0.358,0,1.702,0,1.702l-0.069,0.856l2.051,0.571c0,0,1.271,0.078,2.381,0
		c1.109-0.08,2.507-0.238,3.356-0.57c0.853-0.332-0.534-2.127-0.692-2.761c-0.157-0.635-0.362-1.202-0.396-1.953
		s-0.265-0.958-0.625-1.337c-0.304-0.318,0.062-2.252,0.182-2.846c0.005-0.021,0.018-0.08,0.037-0.179v-0.002
		c0.237-1.139,1.47-7.082,1.56-8.032c0.099-1.053,2.628-8.048,2.757-9.416s0.752-2.81,0.752-2.81l1.637-2.713
		c0,0,0.104-2.22,0.248-2.631C723.188,480.294,717.188,474.099,717.188,474.099z"/>
	<path fill="#FFCBA1" d="M731.173,466.621c0.028,0.281,1.425,5.615,1.674,6.196s1.751,6.109,2.125,7.168
		c0.374,1.058,1.673,2.572,1.645,3.128c-0.031,0.555,0.219,1.321-0.435,2.096c-0.65,0.775-2.188,2.209-2.627,1.981
		c-0.438-0.229-1.903-2.131-1.745-2.487c0.159-0.356,0.753-2.344,0.717-2.627c-0.037-0.281-0.275-2.255-1.158-3.453
		c-0.881-1.197-3.32-5.98-3.511-6.369c-0.19-0.391-2.206-5.411-2.206-5.411L731.173,466.621z"/>
	<path fill="none" stroke="#727272" stroke-miterlimit="10" d="M714.541,512.061c0,0,16.154-25.077,18.845-27.596
		c2.691-2.518,5.741-4.436,11.204-2.197c5.463,2.236,9.891,9.346,10.01,16.957c0.12,7.613,0.453,32.301,9.953,39.54
		c9.5,7.24,13.833,16.074,7.833,26.74c0,0-8.388,10.832-10.859,33.666c-2.473,22.834,5.026,27.5,5.526,32.5"/>
	<path fill="none" stroke="#727272" stroke-width="2" stroke-linecap="round" stroke-miterlimit="10" stroke-dasharray="1,3" d="
		M714.541,512.061c0,0,16.154-25.077,18.845-27.596c2.691-2.518,5.741-4.436,11.204-2.197c5.463,2.236,9.891,9.346,10.01,16.957
		c0.12,7.613,0.453,32.301,9.953,39.54c9.5,7.24,13.833,16.074,7.833,26.74c0,0-8.388,10.832-10.859,33.666
		c-2.473,22.834,5.026,27.5,5.526,32.5"/>
	<path fill="#FFCBA1" d="M728.882,481.641c0,0,3.472,4.786,3.421,6.177c-0.05,1.389-0.119,3.832-0.354,5.465
		c-0.234,1.632-0.488,6.023-0.653,6.913c-0.164,0.888-0.387,3.476-0.531,5.874c-0.144,2.397-0.094,4.896-0.094,4.896l1.012,1.118
		c0,0,2.226,1.039,3.348,1.899c1.12,0.858,2.707,1.318,3.001,1.378c0.294,0.059,1.037,1.026,1.081,1.557
		c0.044,0.531,0.137,0.541-1.363,0.678c-1.499,0.138-6.507-0.801-7.866-0.744c-1.358,0.06-2.383-0.012-3.768-0.062
		s-2.021-0.298-2.383-0.842c-0.362-0.546,0.985-5.03,0.95-5.137c0,0,1.345-5.053,0.855-5.68c-0.489-0.626-1.071-11.145-0.343-12.486
		s0.431-2.98,0.431-2.98s-0.25-0.061-0.591-0.178c-0.691-0.237-5.55-6.372-5.703-7.073c-0.229-1.049,1.118-1.566,1.118-1.566
		L728.882,481.641z"/>
	<path fill="#FFCBA1" d="M744.59,469.375c0,0-1.719,3.553-2.146,4.256s-0.67,3.839-0.946,5.021s0.24,3.274,0.266,3.647
		c0.025,0.375,0.326,1.797-0.06,2.596c-0.387,0.801-0.473,1.595-1.535,1.094c-1.061-0.502-1.422-2.487-1.832-2.618
		c-0.41-0.132-1.039-0.936-1.069-1.31c-0.029-0.375-2.523-2.702-2.019-5c0.505-2.297,1.269-3.34,1.537-4.8
		c0.271-1.461,3.352-7.952,3.352-7.952L744.59,469.375z"/>
	<g>
		<path fill="#FFCBA1" d="M744.108,453.43c0.101,0.049,2.702,0.719,3.15,0.765c0.449,0.045,1.874,0.116,2.021,0.146
			c0.146,0.027,1.071-0.211,1.635-0.374c0.562-0.162,2.51-0.967,2.93-0.869c0.42,0.097,3.643,0.537,3.664,0.617
			c0.023,0.08,1.806,2.062,1.83,2.236c0.025,0.177,1.183,3.067,1.038,3.841c-0.144,0.771-1.411,3.218-1.701,3.448
			s-1.89,1.171-2.219,1.206c-0.329,0.033-1.958-0.001-2.196,0.165c-0.238,0.164-0.424,0.131-0.607,0.002
			c-0.186-0.131-0.265-0.431-0.518-0.287c-0.256,0.144-0.54,0.243-0.858,0.432c-0.32,0.188-1.166,0.705-1.32,0.716
			c-0.154,0.01-0.237,0.1-0.447-0.206c-0.209-0.305-0.344-0.501-0.344-0.501s-0.672-0.275-0.817-0.208
			c-0.145,0.068-0.82,0.021-1.032,0.037c-0.214,0.019-1.62-0.488-1.719-0.582c-0.096-0.095-0.31-0.686-0.307-0.912
			c0.004-0.228,0.287-1.448,0.287-1.448l0.242-0.905l-0.97-0.616c0,0-0.557,0.031-0.681,0.084c-0.125,0.053-0.435,0.441-0.712,0.529
			c-0.277,0.086-1.089,0.678-1.089,0.678s-1.389-2.062-1.587-2.726c-0.202-0.665,1.652-4.639,1.652-4.639s0.657-0.799,0.665-0.713"
			/>
		<path fill="#662F09" d="M747.734,454.205l0.027,0.734l0.637,0.76c0,0,0.312,0.618,0.51,0.606c0.197-0.01,0.428,0.158,0.676,0.106
			c0.247-0.053,1.328,0.064,1.367-0.013c0.038-0.078,0.896,0.083,0.896,0.083s0.071,0.146,0.279,0.334
			c0.209,0.188,0.611,0.729,0.611,0.729l0.548,0.627c0,0-0.345,0.031,0.14-0.115c0.482-0.146,1.072-0.069,1.072-0.069l1.178,1.028
			c0,0,0.575-1.104,0.377-1.401c-0.196-0.298-2.757-2.924-3.004-2.972c-0.246-0.047-1.248-0.812-1.248-0.812
			s-1.914-0.207-2.057-0.089c-0.142,0.119-0.537,0.141-0.685,0.211c-0.147,0.072-1.215,0.156-1.215,0.156"/>
		<path fill="#908DFF" d="M751.363,453.885l6.562,10.39c0,0,6.059-2.822,2.458-8.488
			C757.361,451.033,754.406,451.951,751.363,453.885z"/>
		<path fill="#908DFF" d="M762.012,469.654c-0.096,0.069-0.208,0.082-0.278-0.019l-4.07-5.669c-0.07-0.097-0.043-0.225,0.055-0.294
			l0.116-0.077c0.097-0.07,0.234-0.044,0.304,0.053l4.06,5.651c0.067,0.099,0.022,0.199-0.072,0.271L762.012,469.654z"/>
	</g>
	<path fill="#F7931E" d="M715.744,453.83c-0.5,0.046-4.067,2.124-5.271,3.684c-1.2,1.559-2.553,3.103-2.521,5.707
		c0.031,2.604,2.789,9.088,2.883,9.935c0.092,0.844,1.219,6.34,1.219,6.34s2.349,0.871,3.107,0.758
		c0.761-0.115,1.002-0.557,1.002-0.557s0.617,3.401,0.672,3.687s8.293,1.526,9.701,0.917c1.406-0.61,3.986-1.574,3.986-1.574
		l-0.975-2.321c0,0-1.219-1.322-0.499-3.764c0.717-2.439-0.018-2.23-0.051-3.999s-1.168-5.312-1.702-5.643
		C726.764,466.669,715.744,453.83,715.744,453.83z"/>
	<path fill="#FFF599" d="M714.543,453.159c0.311-0.063,15.954-8.526,23.464-5.31c7.51,3.218,9.888,4.465,9.941,6.42
		c0.053,1.956,0.581,5.63,0.739,6.201c0.159,0.573-1.146,8.066-1.146,8.066l-0.674,1.98c0,0-1.14-0.571-1.896-0.18
		c-0.756,0.394-1.662,0.309-1.662,0.309s-4.619-4.061-4.223-4.487c0.398-0.426-2.673,2.721-4.668,2.625
		c-1.994-0.096-5.714-1.097-6.344-0.785c-0.632,0.312-3.236,0.438-3.298,0.061c-0.062-0.377-3.727-3.881-3.727-3.881
		s-1.106-3.264-1.542-3.955c-0.435-0.69-4.378-5.243-4.689-5.832C714.508,453.807,714.543,453.159,714.543,453.159z"/>
	<g id="Barco_Petit">
		<g id="Capa_22_copia">
			<path fill="#36627A" d="M430.339,506.229c-1.159,0.243-4.863,8.265-3.689,14.597c1.178,6.332,4.555,21,6.494,23.416
				c1.944,2.416,4.381,6.734,4.381,6.734s-8.57,4.605-9.938,7.619c0,0,0.003,1.235,1.05,1.07c1.047-0.166,10.188-0.664,10.618,0.363
				c0.43,1.025,1.264,6.351,1.4,7.047c0.142,0.693-0.243,3.84-0.377,4.97c-0.056,0.468-2.857,4.979-2.347,5.999
				c0.521,1.021,4.314,1.057,6.431,1.007c2.113-0.048,13.389-7.601,14.959-8.991c1.573-1.389,2.015-18.188,2.015-18.188
				s-3.206-21.964-2.419-22.009c0.788-0.045,6.104-2.186,7.812-4.164c1.708-1.979,1.074-11.554,0.269-13.082
				C466.178,511.086,447.721,502.562,430.339,506.229z"/>
			<path fill="#6C808C" d="M438.959,566.83c0,0,1.826-0.372,1.931-0.146c0.105,0.229,0.505,0.861,0.419,2.082
				c-0.087,1.223,0.382,2.774-0.58,2.891c-0.963,0.116-1.625,0.121-1.625,0.121s-1.604,3.957-4.076,5.154s-4.136,0.789-2.613-0.777
				c1.518-1.567,4.374-3.411,4.101-4.055c-0.271-0.643-5.061,0.016-5.061,0.016l0.043-3.873c0,0,3.661-0.354,3.843-0.284
				s1.562-0.955,0.514-1.407c-1.048-0.451-5.559,0.008-4.839-1.591c0.721-1.599,0.546-1.584,2.25-1.798
				c1.706-0.215,3.887,0.625,4.855,1.797C439.084,566.129,438.959,566.83,438.959,566.83z"/>
		</g>
		<g>
			<path fill="#FF0000" d="M535.365,557.424l-17.229-14.417l-72.278-4.104c22.562-4.641,65.308-11.43,128.986-15.354
				c45.75-2.818,84.082-3.111,101.812-2.215c32.238,1.636,53.927-0.238,59.435-0.8c-0.937,0.592-2.312,1.522-3.146,2.298
				c-0.635,0.585-1.192,1.38-1.973,2.479c-1.568,2.228-3.969,5.443-9.27,10.442l-0.529,0.482
				c-35.385,17.241-83.354,22.321-117.805,23.3C566.878,560.576,536.906,557.585,535.365,557.424z"/>
			<path d="M576.194,499.703c-0.309-0.624-0.556-1.092-0.752-1.444c-0.101-0.175-0.188-0.321-0.265-0.443
				c-0.384-0.611-0.51-0.613-0.586-0.615l-0.219,0.136c-0.104,0.196-0.22,0.407-0.354,0.626c-0.089,0.146-0.184,0.297-0.283,0.451
				c-0.053,0.076-0.104,0.154-0.153,0.231c-1.396,2.027-3.713,4.411-5.104,4.046c-0.663-0.177-1.062-0.625-1.222-1.38
				c-0.021-0.088-0.033-0.18-0.045-0.273c-0.01-0.097-0.021-0.195-0.021-0.3c-0.087-2.688,2.309-7.955,5.458-11.315
				c0.484-0.517,0.987-0.988,1.502-1.396c0.285-0.229,0.61-0.461,0.953-0.656c0.55-0.314,1.146-0.539,1.699-0.512
				c0.208,0.01,0.411,0.057,0.606,0.146c0.309,0.144,0.514,0.383,0.627,0.734c0.075,0.23,0.104,0.498,0.104,0.782
				c-0.021,2.009-1.729,5.062-1.752,5.099l-0.127,0.228l2.789,0.805L576.194,499.703z M576.538,489.775
				c-0.009-0.309-0.084-0.562-0.257-0.733c-0.032-0.035-0.07-0.065-0.112-0.095c-0.104-0.068-0.226-0.104-0.356-0.104
				c-0.093,0-0.188,0.021-0.3,0.06c-0.749,0.268-1.825,1.43-2.909,2.92l-0.05-0.059l-0.049-0.058l-0.948,1.647
				c-0.471,0.733-0.921,1.496-1.32,2.235c-0.67,1.233-1.201,2.408-1.474,3.29c-0.151,0.502-0.22,0.907-0.203,1.216
				c0.005,0.077,0.019,0.148,0.029,0.214c0.043,0.196,0.135,0.343,0.272,0.435c0.062,0.041,0.13,0.06,0.203,0.06
				c0.854,0,3.618-3.349,4.767-4.984c0.041-0.062,0.082-0.119,0.12-0.177c0.07-0.11,0.142-0.212,0.191-0.3
				c0.06-0.088,0.103-0.165,0.13-0.226c0.034-0.056,0.075-0.121,0.13-0.202c0.05-0.079,0.104-0.171,0.166-0.274
				C575.245,493.515,576.569,491.128,576.538,489.775z"/>
			<path fill="#3FA9F5" d="M602.401,490.713c-1.104,0.152-4.98,0.782-8.345,1.418c-0.214,0.04-0.426,0.081-0.636,0.123
				c-0.11,0.021-0.218,0.043-0.327,0.064c-0.461,0.092-0.906,0.187-1.33,0.28c-0.133,0.029-0.262,0.06-0.389,0.091
				c-0.32,0.073-0.625,0.148-0.909,0.224c-0.114,0.03-0.227,0.061-0.333,0.092c-0.022,0.004-0.053,0.011-0.088,0.02
				c-1.035,0.23-6.941,1.605-7.822,3.137c-0.028,0.051-0.053,0.092-0.069,0.144c-0.517,1.481-1.775,9.77-1.982,11.616h-3.53
				l-1.236-3.121l0.479-4.434l0.187-0.086l0,0l0,0c-0.011-0.022-0.021-0.043-0.028-0.063c-0.012-0.021-0.021-0.042-0.029-0.062
				l3.061-5.383l0.047,0.012l0,0l0,0l0.061-0.196l0.045-0.078l0.078-0.138l4.573-9.622l0.699-0.246l0.702-0.246l2.056-11.217
				c0.101,0,0.239-0.001,0.413-0.001c1.199,0,5.201,0.033,6.352,0.47C595.058,473.88,599.689,484.088,602.401,490.713z"/>
			<path d="M574.306,493.969c0.021,0,0.035-0.004,0.05-0.007c0.039-0.008,0.072-0.03,0.104-0.056
				c-0.201,0.352-0.405,0.692-0.604,1.007c-0.11,0.224-0.328,0.557-0.604,0.948c-0.046-0.105-0.062-0.224-0.062-0.326
				c-0.003-0.174,0.032-0.312,0.033-0.317l0.062-0.213l-1.957-0.414l0.818-1.429c0.157-0.235,0.315-0.465,0.479-0.689
				C573.81,493.843,574.165,493.974,574.306,493.969z"/>
			<path d="M574.403,494.916c-0.052,0.081-0.093,0.148-0.127,0.201c-0.027,0.062-0.07,0.138-0.13,0.227
				c-0.055,0.09-0.12,0.189-0.191,0.301c-0.038,0.056-0.078,0.113-0.12,0.175c-1.146,1.638-3.91,4.985-4.767,4.985
				c-0.073,0-0.146-0.02-0.201-0.059c-0.145-0.094-0.231-0.237-0.274-0.435c-0.016-0.064-0.024-0.139-0.028-0.215
				c-0.018-0.309,0.055-0.712,0.202-1.216c0.271-0.882,0.804-2.056,1.478-3.29c0.396-0.74,0.852-1.502,1.316-2.233l0.948-1.649
				l0.049,0.058l0.05,0.058c1.083-1.489,2.159-2.651,2.909-2.92c0.106-0.037,0.207-0.06,0.3-0.06c0.137,0,0.254,0.036,0.356,0.105
				c0.042,0.026,0.08,0.06,0.113,0.094c0.172,0.173,0.247,0.427,0.256,0.732c0.027,1.352-1.293,3.739-1.973,4.864
				C574.508,494.744,574.452,494.837,574.403,494.916z M569.126,499.001c-0.324,1.069-0.187,1.331-0.13,1.383
				c0.687-0.128,2.749-2.493,3.98-4.157c-0.225-0.297-0.229-0.671-0.197-0.903l-1.76-0.371
				C570.185,496.39,569.474,497.852,569.126,499.001z M572.144,493.163l-0.821,1.429l1.957,0.414l-0.062,0.212
				c-0.002,0.003-0.037,0.145-0.035,0.317c0.001,0.104,0.021,0.221,0.063,0.326c0.275-0.393,0.494-0.726,0.604-0.948
				c0.198-0.315,0.402-0.655,0.604-1.007c-0.03,0.024-0.064,0.047-0.104,0.056c-0.014,0.002-0.025,0.006-0.049,0.007
				c-0.141,0.004-0.496-0.127-1.688-1.497C572.46,492.697,572.302,492.927,572.144,493.163z M575.94,489.292
				c-0.031-0.022-0.078-0.035-0.13-0.035c-0.577,0-1.734,1.216-2.946,2.873c0.521,0.595,1.104,1.2,1.357,1.38
				c0.143-0.214,0.411-0.299,0.636-0.324C575.784,491.451,576.49,489.658,575.94,489.292z"/>
			<path fill="#FFFFFF" stroke="#FFFFFF" stroke-miterlimit="10" d="M445.214,535.917l0.097-0.062l-0.064-5.698l3.56-2.177
				l15.577,0.275l0.036-0.014l6.453-2.386l0.271-13.309l11.645-2.842l24.898-0.069l1.312-2.411l21.094-1.172l0.139-2.137
				l4.388-0.446l-0.397-0.314c-0.006-0.004-0.617-0.496-0.604-1.092c0.012-0.347,0.23-0.678,0.664-0.981
				c0.318-0.228,1.261-0.496,3.906-0.496c2.433,0,5.4,0.219,7.57,0.379c1.07,0.079,1.918,0.145,2.412,0.158
				c1.479,0.045,3.122,1.161,4.018,2.176c0.551,0.623,0.842,1.233,0.803,1.664c-0.133,1.377-0.355,1.709-1.348,1.895l0.062,0.438
				l14.562-1.38l8.99-0.848l1.229,3.159h3.891l0.021-0.467c0.02-0.097,1.454-10.041,1.991-11.584c0.42-1.207,5.693-2.617,7.69-3.054
				c3.521-0.988,10.872-2.021,12.221-2.205l0.021,0.05l0.147-0.014c0.003,0,0.289-0.026,0.688-0.026
				c1.127,0,1.944,0.188,2.312,0.521c0.4,0.369,0.404,1.105,0.407,1.819c0.003,0.616,0.005,1.197,0.236,1.63
				c0.478,0.885,4.566,7.799,4.743,8.092l0.059,0.095l0.105,0.007c0.602,0.035,59.928,3.542,73.163,5.171
				c1.025,0.126,2.195,0.245,3.476,0.425c20.03,2.82,48.084,8.232,48.084,8.232c2.172,0.038,3.03,0.72,3.106,1.293
				c0.07,0.529-0.479,1.062-1.379,1.326c-0.027,0.013-0.629,0.32-1.455,0.809c-3.639,0.4-25.598,2.571-59.899,0.832
				c-17.743-0.899-56.135-0.545-101.896,2.275c-65.203,4.018-105.44,10.432-127.718,15.104l-0.978,0.205
				c-1.849-0.025-2.506-0.21-2.591-0.312c-0.026-0.058-0.065-0.112-0.106-0.168c-0.099-0.13-0.146-0.203-0.123-0.304
				C442.778,537.612,443.598,536.938,445.214,535.917z"/>
			<path fill="#FFFFFF" stroke="#FFFFFF" stroke-miterlimit="10" d="M535.306,557.579l0.062,0.007
				c0.249,0.026,21.624,2.256,51.064,2.256c5.099,0,10.436-0.063,15.94-0.223c34.302-0.976,82.51-5.728,117.909-22.773
				c-0.097,0.087-0.184,0.169-0.272,0.257c-1.221,1.128-2.435,2.322-3.721,3.589c-8.134,8.007-18.255,17.97-44.363,25.562
				c-6.008,1.747-12.438,2.562-20.247,2.562c-6.688,0-13.548-0.181-20.811-0.809c-7.975-0.688-16.214-1.398-25.028-1.398
				c-1.354,0-2.705,0.018-4.017,0.052c-1.323,0.032-2.875,0.052-4.609,0.052c-34.329,0-138.903-7.181-143.244-7.462l-7.757-19.859
				l71.914,3.771L535.306,557.579z"/>
		</g>
	</g>
	<g id="_x31__1_">
		<path fill="#996234" d="M554.043,507.982c0,0-1.391-1.613-1.084-3.516c0.304-1.9,0.729-2.871,1.896-3.205
			c1.166-0.334,2.748-0.486,3.071-0.322c0.325,0.166,4.259,1.725,5.157,2.036c0.896,0.312,3.352,1.935,3.4,2.683
			c0.056,0.748,0.194,0.988,0.498,1.719c0.306,0.73,0.768,4.029,0.768,4.029l-5.936,0.653c0,0,0.065-2.315-0.373-2.474
			c-0.438-0.156-6.231-0.748-6.627-0.97C554.428,508.395,554.043,507.982,554.043,507.982z"/>
		<path fill="#EF45B7" d="M532.07,498.729c0,0-0.312-2.938-0.438-2.938s4.117-0.25,5.125-1c1.25-0.931,8.125-0.875,8.125-0.875
			l4.562,4.188l5.267,3.96c0,0-1.517,4.978-2.267,4.978c-0.354,0-4.106-3.402-7.5-3.5c-3.781-0.109-4.062,2.062-3.188,6.75
			c0.165,0.886-7.812-4.438-7.812-4.438s-1.506-1.125-1.879-3.125C531.695,500.729,532.07,498.729,532.07,498.729z"/>
		<path fill="#996234" d="M541.133,468.604c0.188,0.062,1.562-1.625,1.5-2.188c-0.062-0.562-0.623-0.938-0.75-0.938
			c-0.125,0-1.438-1.562-0.75-2.25c0.688-0.688-1.5-3.5-0.688-4.875c0.812-1.375,1.812-3.5,3.688-4.25s3.062-1.375,4-0.625
			c0.938,0.75,3.188,2.875,3.25,3.688c0.062,0.812,0.438,2.375,0,4.062c-0.438,1.688-0.438,1.938-0.5,3.75
			c-0.062,1.812-0.875,2.94-1.438,3.627s-0.312,1.623-1.375,1.873s0.25,1.938-0.25,2.562s-6.375-0.938-6.25-3.375
			C541.629,468.518,541.133,468.604,541.133,468.604z"/>
		<path fill="#301705" d="M541.32,466.165c0,0-1.062,0-0.938-0.875s0.354-2.375-0.011-2.75s-1.489-1.062-1.114-2.125
			c0.375-1.063,0.812-1.688,0.562-2.688s0-1.812,0.812-2.312c0.812-0.5,1.445-0.375,2.379-0.812c0.936-0.438,1.686-1.5,2.746-1.688
			c1.062-0.188,2.312-0.938,3.188,0c0.876,0.938,1.5,0.938,1.75,1.562c0.25,0.625-0.062-0.062,0.312,1.438s1.125,1.812,0.625,2.625
			c-0.5,0.812-0.938-0.688-1.375-0.75c-0.438-0.062-0.188-0.75-1.375,0s-0.75,0.5-2.5,0.125s-2.69-1.375-3.221,0.438
			s-0.225,1.5,0,2.938c0.221,1.438,0,2.062,0,2.062s-0.095-0.688-0.779-0.562c-0.688,0.126-0.812,0.25-0.75,1
			c0.062,0.75,0.438,1.625,0.312,1.875S541.32,466.165,541.32,466.165z"/>
		<path fill="#996234" d="M549.945,480.415c0,0,4.125,6.75,5.188,7.375s3.25,1.875,4.062,2.062c0.812,0.188,5.938,1,8.125,0.875
			s2.562-0.784,3.375,0.015c0.812,0.799,1.188,1.36,1.5,0.735c0.312-0.625,0.125-0.75,0-1.688c-0.125-0.938,0-1.438,0.875-1.562
			c0.875-0.122,2.216,0.875,1.854-0.25c-0.354-1.125-0.229-1.625-1.668-1.5c-1.438,0.125-1.688,1.188-2.688,1.312
			s-1.438,0.125-3.188-0.125s-6.688-3.188-7.75-3.25c-1.062-0.062-1.125-0.875-1.812-1.562c-0.688-0.687-3.438-4.062-3.438-4.062"/>
		<path fill="#8BC7E8" d="M531.633,483.854c0.25-3.5,1.5-9.062,3.625-11.5c2.125-2.438,2.75-2.375,4.312-3.062
			c1.562-0.688,2.375-0.5,2.375-0.5s0.082,2.5,1.354,2.938c1.271,0.438,4.271,1.25,4.459,0.75c0.188-0.5-0.25-0.817,0.125-1.253
			s1-1.622,1.438-1.372c0.438,0.25,2.625,1.125,2.875,2.25c0.25,1.127,0.5,2.625,1.125,3.5s1,2.25,1,2.25s0.188,0.5,0.375,1.062
			s-1.625,0.5-2.812,2.812c-1.188,2.312-2.5-1.312-2.5-1.312s1.438-0.938,0.125,1.062c0,0-2,3.062-2.125,3.5
			c-0.125,0.438-0.625,1.562-0.562,2.688c0.062,1.126,0.688,2.312,0.562,3.5s0.025,2.25-1.457,2.812
			c-1.479,0.562-3.104,0.438-4.918,0.625c-1.813,0.188-4.048,0.089-4.875,0.812c-0.828,0.724-1.625,0.125-2.625,0.375
			s-1.062,0.875-1.875,0c-0.812-0.875,0.478-3.625,0.271-4.25c-0.206-0.625-0.75-2-0.541-4.062
			C531.571,485.416,531.633,483.854,531.633,483.854z"/>
		<path fill="#996234" d="M538.856,488.07c0,0,1.326,4.354,2.07,5.185c0.743,0.828,1.931,2.749,2.562,3.494
			c0.634,0.745,6.229,6.481,6.899,6.981c0.675,0.497,3.919,3.35,3.919,3.35l4.598-0.528c0,0-3.045-3.261-4.543-4.855
			s-6.453-7.729-6.733-8.285c-0.283-0.558-1.896-2.234-2.328-3.008c-0.438-0.774-0.508-2.373-0.869-3.832s-0.983-3.347-0.983-3.347
			s-5.776-0.692-5.955,0.672C537.312,485.261,538.856,488.07,538.856,488.07z"/>
		<path fill="#996234" d="M541.883,510.229c0,0-1.271-1.709-0.834-3.584c0.438-1.875,0.934-2.812,2.12-3.062
			c1.188-0.25,2.773-0.292,3.089-0.104c0.312,0.188,4.125,2.021,5,2.396s3.205,2.167,3.205,2.917s0.125,1,0.375,1.75
			s0.562,2.875,0.562,2.875l-6.002,0.636c0,0,0.185-1.511-0.245-1.699c-0.428-0.188-6.167-1.188-6.542-1.438
			S541.883,510.229,541.883,510.229z"/>
		<path fill="#996234" d="M548.398,516.275"/>
	</g>
</g>
<g id="Capa_3">
	<polygon id="La_mar_3_m" opacity="0.6" fill="#39BCC4" enable-background="new    " points="0,548.5 800,548.5 800.981,799.162 
		0.982,799.162 	"/>
	<path fill="#D8BD80" d="M800.557,739.949c-37.881,6.85-61.191,5.146-88.212,5.051c-24.051-0.033-33.279-3.914-75.512-7.119
		c-26.088-0.787-46.578-0.928-74.209,0.48c-20.113,1.021-66.365,3.424-87.148,0.188c-52.643-10.095-139.626-8.536-184.812-1.551
		c-45.187,6.986-25.674-4.301-54.43-3.225c-28.755,1.063-24.134,5.375-38.512,1.604c-14.377-3.762-20.67-15.181-32.92-13.012
		c-1.388,0.829,0.264,7.501-30.5-8.625c-10.783-5.652-23.201-5.499-30.875-5.625c-7.625-0.125-24.619,3.901-34.375-3.625
		c-11.25-6.604-43.828,16.413-55.125,22.854C2.63,733.811-3,730.024-3,730.024l1.75,72.226l802.232,1L800.557,739.949z"/>
</g>
</svg>
