<?xml version="1.0" encoding="utf-8"?>
<!-- Generator: Adobe Illustrator 16.0.0, SVG Export Plug-In . SVG Version: 6.00 Build 0)  -->
<!DOCTYPE svg PUBLIC "-//W3C//DTD SVG 1.1//EN" "http://www.w3.org/Graphics/SVG/1.1/DTD/svg11.dtd">
<svg version="1.1" id="Capa_1" xmlns="http://www.w3.org/2000/svg" xmlns:xlink="http://www.w3.org/1999/xlink" x="0px" y="0px"
	 width="800px" height="800px" viewBox="0 0 800 800" enable-background="new 0 0 800 800" xml:space="preserve">
<g id="_x33_.Fora_cordó">
	<g id="Cordó_mà">
		<g id="Capa_1_1_">
			
				<image overflow="visible" enable-background="new    " width="696" height="400" xlink:href="../../../Referències fotogràgiques/680.jpg"  transform="matrix(0.5555 0.8315 -0.8315 0.5555 247.0029 34.96)">
			</image>
		</g>
		<g id="Capa_6_1_">
			<rect x="-121" y="-28" fill="#F4F4F4" width="1026" height="921"/>
		</g>
		<g id="Timó_1_">
			<rect x="-6.32" y="-205.476" fill="#969696" width="22.29" height="440.791"/>
			<polygon fill="#969696" points="204.285,118.344 193.549,137.676 -214.446,-84.888 -203.709,-104.221 			"/>
			<polygon fill="#969696" points="182.476,-101.413 193.935,-82.493 -205.3,155.042 -216.759,136.121 			"/>
			<ellipse cx="5.554" cy="17.441" rx="49.698" ry="49.257"/>
			<path stroke="#000000" stroke-miterlimit="10" d="M0-354.667c-210.186,0-380.576,168.877-380.576,377.197
				c0,208.32,170.389,377.198,380.576,377.198c210.185,0,380.576-168.876,380.576-377.198
				C380.576-185.791,210.187-354.667,0-354.667z M0,346.924c-180.764,0-327.3-145.237-327.3-324.395
				c0-179.157,146.536-324.395,327.3-324.395c180.763,0,327.299,145.238,327.299,324.395C327.3,201.688,180.764,346.924,0,346.924z"
				/>
			<path stroke="#000000" stroke-miterlimit="10" d="M-65.887-295.288c1.575-0.217,46.359-5.304,47.107,30.703
				c0.749,36.007,0.869,61.377,0.869,61.377s-1.69,26.651,15.605,26.635c1.66-0.001,14.221,0.017,15.638,0.017
				c14.379,0,14.8-13.291,14.676-27.165c-0.135-15.057,0.797-60.281,0.797-60.281s3.272-30.841,37.472-30.843
				c35.092-0.001-7.335-12.182-7.335-12.182l-110.368,0.688L-65.887-295.288z"/>
			<path stroke="#000000" stroke-miterlimit="10" d="M-312.573-73.068c0.6-1.461,17.562-42.082,49.396-24.722
				c31.837,17.361,54.064,29.942,54.064,29.942s22.445,14.776,31.077-0.077c0.829-1.425,7.125-12.197,7.833-13.413
				c7.189-12.342-4.212-19.35-16.398-26.181c-13.222-7.412-52.274-30.825-52.274-30.825s-29.985-18.417-10.924-46.562
				c19.481-28.766-11.6-0.818-11.6-0.818l-54.584,95.077L-312.573-73.068z"/>
			<path stroke="#000000" stroke-miterlimit="10" d="M-241.066,241.672c-0.978-1.246-27.991-36.116,3.096-54.759
				c31.089-18.646,53.196-31.433,53.196-31.433s24.134-11.879,15.472-26.715c-0.832-1.424-7.098-12.215-7.804-13.429
				c-7.189-12.346-19.015-6.062-31.076,0.983c-13.086,7.643-53.072,29.459-53.072,29.459s-30.885,11.156-47.985-18.199
				c-17.547-30.117-4.675,13.841-4.675,13.841l55.786,94.391L-241.066,241.672z"/>
			<path stroke="#000000" stroke-miterlimit="10" d="M79.321,337.098c-1.577,0.219-45.553,5.969-46.299-30.037
				c-0.749-36.008-0.868-61.377-0.868-61.377s1.688-26.653-15.606-26.635c-1.662,0.001-14.223-0.016-15.638-0.016
				c-14.379-0.003-14.801,13.289-14.678,27.164c0.137,15.053-0.795,60.282-0.795,60.282s-6.625,34.479-41.612,34.282
				c-35.089-0.196,11.475,8.74,11.475,8.74l110.369-0.689L79.321,337.098z"/>
			<path stroke="#000000" stroke-miterlimit="10" d="M314.092,115.542c-0.598,1.463-17.561,42.083-49.395,24.721
				c-31.838-17.361-54.065-29.941-54.065-29.941s-22.445-14.776-31.076,0.077c-0.831,1.427-7.125,12.2-7.833,13.414
				c-7.19,12.34,4.212,19.351,16.397,26.181c13.221,7.408,52.275,30.822,52.275,30.822s25.473,22.422,8.374,51.778
				c-17.544,30.12,14.15-4.399,14.15-4.399l54.582-95.077L314.092,115.542z"/>
			<path stroke="#000000" stroke-miterlimit="10" d="M236.224-202.35c0.979,1.244,27.992,36.114-3.096,54.758
				c-31.089,18.647-53.195,31.435-53.195,31.435s-24.135,11.877-15.471,26.713c0.832,1.425,7.098,12.216,7.805,13.432
				c7.187,12.342,19.015,6.06,31.077-0.984c13.081-7.645,53.068-29.459,53.068-29.459s33.9-9.88,51,19.474
				c17.546,30.118,1.66-15.118,1.66-15.118l-55.786-94.388L236.224-202.35z"/>
			<path fill="#969696" d="M5.027-63.651c-47.822,0-86.59,38.423-86.59,85.821c0,47.397,38.768,85.82,86.59,85.82
				c47.821,0,86.59-38.421,86.59-85.82C91.619-25.228,52.85-63.651,5.027-63.651z M5.027,65.296
				c-24.031,0-43.513-19.308-43.513-43.126s19.481-43.126,43.513-43.126c24.031,0,43.512,19.308,43.512,43.126
				C48.54,45.988,29.058,65.296,5.027,65.296z"/>
		</g>
		<g id="Capa_4_1_">
			<polygon fill="#494949" points="604.396,278 573.671,224.5 604.396,171 665.854,171 696.579,224.5 665.854,278 			"/>
			<g>
				<path d="M589.666,232.207c0,3.649,0.689,6.793,1.502,10.793h-0.035l0.122,0.176c0.497,2.007,1.132,4.172,1.886,6.064
					L612.016,308h0.006c2.53,10,12.024,18.093,23.357,18.093c11.418,0,20.974-8.124,23.417-18.801l18.703-58.088
					c0.838-2.059,1.527-4.028,2.06-6.223l0.045,0.02h-0.013c0.812-4,0.993-7.144,0.993-10.793c0-20.903-13.584-38.7-33.584-44.013
					v20.973c6,3.747,8.721,9.803,8.721,16.64s-3.3,12.931-8.427,16.678l-0.124,23.363c-0.271,6.321-5.435,11.443-11.823,11.443
					c-6.388,0-12.075-4.292-12.347-11.292l0,0v-0.663c0-0.003,0-0.005,0-0.008s0-0.005,0-0.007V242.63
					c-5-3.731-8.718-9.873-8.718-16.824c-0.001-6.95,3.718-13.093,8.718-16.824V188.12C604,193.346,589.664,211.21,589.666,232.207z
					 M635.379,289.87c6.562,0,11.884,5.32,11.884,11.883s-5.318,11.883-11.884,11.883c-6.562,0-11.883-5.32-11.883-11.883
					S628.816,289.87,635.379,289.87z"/>
			</g>
			<circle fill="#F22F2F" cx="635.125" cy="224.523" r="25.143"/>
			<g id="Cordó">
				<circle fill="#494949" cx="811" cy="224.5" r="71.515"/>
				<g id="Cordó_1_">
					<path fill="none" stroke="#FF0000" stroke-width="8" stroke-linecap="round" stroke-miterlimit="10" d="M610.509,815.799
						c0,14.17,50.362,19.581,50.328,6.802c-0.03-10.419-50.205-9.395-51.132,8.536c-1.069,20.751,49.523,17.854,51.132,5.202
						c1.412-11.124-50.328-6.399-50.044,9.863"/>
					<path fill="none" stroke="#FF0000" stroke-width="8" stroke-linecap="round" stroke-miterlimit="10" d="M610.778,868.995
						c0,14.172,50.123,20.327,50.087,7.548c-0.021-6.67-49.56-7.759-50.571,5.544c-0.801,10.535,52.14,15.604,52.14,2.2
						c0-13.604-39.787-4.596-40.323,24.25"/>
					<path fill="none" stroke="#FF0000" stroke-width="8" stroke-linecap="round" stroke-miterlimit="10" d="M610.509,844.608
						c-4.048,20.271,50.362,24.517,50.328,11.735c-0.031-10.72-48.332-11.394-49.296,7.336c-1.071,20.749,49.363,11.65,49.324,5.316
						c-0.062-9.735-49.748-16.65-50.087,0"/>
					<path fill="none" stroke="#FF0000" stroke-width="8" stroke-linecap="round" stroke-miterlimit="10" d="M608.368,604.162
						c0,14.171,50.362,24.169,50.327,11.39c-0.038-12.743-49.256-6.832-50.327,13.916c-1.07,20.749,48.721,23.28,50.327,10.63
						c1.605-12.652-49.794-18.302-50.327,10.545"/>
					<path fill="none" stroke="#FF0000" stroke-width="8" stroke-linecap="round" stroke-miterlimit="10" d="M608.368,560.709
						c0,14.17,50.362,24.169,50.327,11.39c-0.038-12.741-49.256-10.832-50.327,9.916c-1.07,20.749,48.721,23.279,50.327,10.627
						c1.605-12.649-49.794-15.806-50.327,13.042"/>
					<path fill="none" stroke="#FF0000" stroke-width="8" stroke-linecap="round" stroke-miterlimit="10" d="M608.368,513.256
						c0,14.171,50.362,24.164,50.327,11.389c-0.038-12.742-49.256-9.233-50.327,11.519c-1.07,20.748,48.721,23.276,50.327,10.626
						c1.605-12.651-49.794-13.404-50.327,15.441"/>
					<path fill="none" stroke="#FF0000" stroke-width="8" stroke-linecap="round" stroke-miterlimit="10" d="M608.368,779.148
						c0,14.172,50.401,18.754,50.362,5.973c-0.035-12.743-49.311-11.012-50.383,9.737c-1.069,20.749,49.842,20.922,51.448,8.269
						c1.606-12.651-48.754-16.176-49.289,12.672"/>
					<path fill="none" stroke="#FF0000" stroke-width="8" stroke-linecap="round" stroke-miterlimit="10" d="M608.368,736.638
						c0,14.171,50.362,24.165,50.327,11.389c-0.038-12.744-49.256-12.903-50.327,7.844c-1.07,20.75,48.721,23.279,50.327,10.627
						c0.797-6.281-49.909-8.376-50.327,14.171"/>
					<path fill="none" stroke="#FF0000" stroke-width="8" stroke-linecap="round" stroke-miterlimit="10" d="M608.368,694.127
						c0,14.171,50.362,24.166,50.327,11.388c-0.038-12.742-49.256-12.904-50.327,7.845c-1.07,20.75,48.721,23.278,50.327,10.629
						c1.605-12.652-49.794-14.678-50.327,14.168"/>
					<path fill="none" stroke="#FF0000" stroke-width="8" stroke-linecap="round" stroke-miterlimit="10" d="M608.352,648.868
						c0,14.172,50.381,24.842,50.344,12.062c-0.038-12.743-49.256-10.834-50.327,9.917c-1.071,20.749,48.72,23.278,50.327,10.627
						c1.605-12.651-49.793-14.676-50.327,14.17"/>
				</g>
				<path fill="none" stroke="#FF0000" stroke-width="8" stroke-linecap="round" stroke-miterlimit="10" d="M607.746,513.314
					c0.531-30.273,51.527-28.548,49.934-15.271c-1.593,13.277-50.996,7.164-49.934-14.611c1.062-21.772,50.727-22.1,50.764-8.727
					c0.037,13.411-45.511-2.429-45.511-17.3c0,0-3.161-9.716,12.577-20.271c10.723-7.188,10.093-26.088,9.253-28.815
					c-0.84-2.729-14.536-104.206,1.68-104.98c22.001-1.05-2.1,52.7,1.26,75.167c0.45,3.116,4.098,33.909,4.098,33.909"/>
				<path fill="#CECECE" d="M644.957,388.04c0.141,1.175-0.441,2.209-1.3,2.312l-14.136,1.695c-0.857,0.102-1.67-0.767-1.811-1.94
					l-2.071-17.282c-0.141-1.174,0.441-2.209,1.303-2.312l14.134-1.694c0.856-0.103,1.669,0.766,1.81,1.94L644.957,388.04z"/>
			</g>
			<path d="M635.125,313.631c0,0,11.812,0.65,12.094-12.865c0.282-13.515,11.715,6.1,11.715,6.1s-3.933,19.57-24.85,19.228
				C632.501,325.583,635.125,313.631,635.125,313.631z"/>
			<path fill="#EAEAEA" d="M818,266.412c0,1.43-0.815,2.588-1.821,2.588h-9.021c-1.006,0-2.155-1.159-2.155-2.588v-84.823
				c0-1.43,1.149-2.588,2.155-2.588h9.021c1.006,0,1.821,1.159,1.821,2.588V266.412z"/>
		</g>
		<g id="Capa_3">
			<path fill="#F9DBBD" d="M560.63,952.689c-45.469-507.059-50.547-537.817-36.072-400.247c-1.18-11.194-3.499-27.872,1.488-36.916
				c4.984-9.043,33.121-96.686,21.745-165.25c3.989-28.819,2.698-36.595,1.084-47.128c-1.616-10.533,0.128-87.542-19.015-91.576
				c-16.233-1.563-15.222,6.592-14.95,13.4c0.271,6.809,2.167,37.583,1.847,41.945c-0.413,5.591-7.137,45.525-7.137,45.525
				s-0.128-47.449-2.063-56.771c-1.935-9.322,0.178-21.2-4.604-44.231c-4.781-23.031,0.121-43.498-6.864-52.343
				c-6.983-8.846-25.877-8.927-25.771,5.351c0.104,14.278-0.524,33.285,0.636,41.625c1.159,8.338-3.295,77.796-1.896,85.763
				c1.438,8.144-4.729-59.793-4.729-59.793s1.428-23.606,1.85-32.416c0.438-9.094-1.902-20.197-2.702-24.035
				c-0.796-3.838,4.571-35.841-3.055-42.266c-7.626-6.425-22.909-8.4-26.87,5.579c-3.962,13.979-6.32,52.22-5.32,61.165
				c1.002,8.944-4.199,33.476-3.84,37.978c0.363,4.5,3.372,45.167,1.861,48.913c-1.51,3.746-6.227-45.148-6.227-45.148
				s7.791-75.405-0.334-82.87c-8.127-7.464-15.918-6.419-23.1,3.08c-7.18,9.498-20.807,128.443-15.816,149.715
				c-6.915,19.383-3.392,47.036-6.452,48.816c-3.062,1.78-10.838,23.217-9.474,29.797c1.366,6.578-8.044-6.713-12.224-7.562
				c-4.181-0.846-23.437-82.197-65.396-80.799c-21.126,0.703-13.17,16.463-11.257,22.929c1.915,6.465,18.917,33.252,20.853,42.574
				c1.935,9.322,12.314,62.078,18.64,70.49c6.322,8.409,26.343,27.706,29.263,36.252c2.918,8.546,16.401,34.918,25.675,41.002
				c9.271,6.082,15.479,13.944,18.854,24.687c3.374,10.738,13.32,64.156,13.686,68.657c0.359,4.502-0.762,336.252-0.762,336.252
				L560.63,952.689z"/>
		</g>
	</g>
</g>
</svg>
