<?xml version="1.0" encoding="utf-8"?>
<!-- Generator: Adobe Illustrator 16.0.0, SVG Export Plug-In . SVG Version: 6.00 Build 0)  -->
<!DOCTYPE svg PUBLIC "-//W3C//DTD SVG 1.1//EN" "http://www.w3.org/Graphics/SVG/1.1/DTD/svg11.dtd">
<svg version="1.1" id="Capa_1" xmlns="http://www.w3.org/2000/svg" xmlns:xlink="http://www.w3.org/1999/xlink" x="0px" y="0px"
	 width="800px" height="800px" viewBox="0 0 800 800" enable-background="new 0 0 800 800" xml:space="preserve">
<g id="Capa_1_1_">
	<polygon opacity="0.6" fill="#39BCC4" enable-background="new    " points="-9.027,-17.033 808.455,-19.921 809.451,811.682 
		-9.027,811.682 	"/>
	<rect x="-23" y="-22" fill="#42C9CC" width="840" height="843"/>
</g>
<g id="Capa_6">
	<g>
		<path display="none" fill="#F90606" d="M682.234,366.585c-7.036,10.89-13.361,22.279-18.937,34.096l290.33,160.806
			c3.298-5.17,6.476-10.458,9.484-15.896c3.34-6.029,6.427-12.131,9.301-18.283L682.234,366.585z"/>
		<g>
			<path display="none" fill="#F90606" d="M725.667,720.979c0-173.588-135.611-315.479-306.667-325.567v32.062
				c153.37,10.04,274.667,137.602,274.667,293.51c0,155.569-120.771,282.918-273.667,293.442v32.062
				C590.583,1035.903,725.667,894.229,725.667,720.979z"/>
			<g>
				<path display="none" fill="#F90606" d="M73.333,720.979c0,173.93,136.139,316.041,307.667,325.637v-32.062
					C227.158,1005,105.333,877.227,105.333,720.979c0-44.815,10.04-87.28,27.967-125.298l-28.051-15.536
					C84.804,622.778,73.333,670.535,73.333,720.979z"/>
			</g>
		</g>
	</g>
	<path opacity="0.8" fill="#F90606" enable-background="new    " d="M673.346,622.64l17.756-10.087l-5.969,67.521l-60.91-29.78
		l21.234-11.891C596.369,562.545,513,510.723,418,504.471v-32.062C525,478.746,618.694,537.101,673.346,622.64z"/>
	<path opacity="0.8" fill="#F90606" enable-background="new    " d="M124.453,622.64l-17.856-10.087l5.918,67.521l60.884-29.78
		L152.355,638.4C201.442,562.545,284.499,510.723,380,504.471v-32.062C272.551,478.746,179.104,537.101,124.453,622.64z"/>
	<g id="Capa_3">
		<rect x="393" y="653" fill="#969696" width="14" height="280"/>
		
			<rect x="387.038" y="647.869" transform="matrix(-0.4822 0.8761 -0.8761 -0.4822 1279.8942 832.0852)" fill="#969696" width="14.001" height="292.849"/>
		
			<rect x="383.022" y="654.264" transform="matrix(0.5147 0.8574 -0.8574 0.5147 875.7231 54.1565)" fill="#969696" width="13.999" height="292.809"/>
		<circle cx="400.691" cy="794.75" r="31.25"/>
		<path stroke="#000000" stroke-miterlimit="10" d="M397.199,558.672c-132.166,0-239.307,107.141-239.307,239.307
			c0,132.165,107.141,239.31,239.307,239.31c132.165,0,239.307-107.144,239.307-239.31S529.364,558.672,397.199,558.672z
			 M397.199,1003.785c-113.664,0-205.807-92.146-205.807-205.81c0-113.661,92.143-205.807,205.807-205.807
			s205.807,92.146,205.807,205.807C603.006,911.642,510.863,1003.785,397.199,1003.785z"/>
		<path stroke="#000000" stroke-miterlimit="10" d="M355.769,596.344c0.991-0.138,29.151-3.365,29.622,19.479
			c0.474,22.844,0.55,38.938,0.55,38.938s-1.062,16.909,9.812,16.898c1.044-0.001,8.942,0.011,9.833,0.011
			c9.042,0,9.307-8.432,9.229-17.232c-0.088-9.554,0.501-38.243,0.501-38.243s2.058-19.566,23.562-19.567
			c22.065-0.001-4.612-7.729-4.612-7.729l-69.397,0.438L355.769,596.344z"/>
		<path stroke="#000000" stroke-miterlimit="10" d="M200.652,737.328c0.377-0.928,11.043-26.699,31.061-15.688
			c20.02,11.018,33.996,18.997,33.996,18.997s14.113,9.374,19.541-0.049c0.521-0.905,4.48-7.74,4.926-8.511
			c4.521-7.831-2.648-12.276-10.311-16.609c-8.314-4.702-32.871-19.556-32.871-19.556s-18.854-11.687-6.869-29.541
			c12.25-18.25-7.294-0.52-7.294-0.52l-34.322,60.318L200.652,737.328z"/>
		<path stroke="#000000" stroke-miterlimit="10" d="M245.617,937.01c-0.615-0.79-17.601-22.913,1.947-34.741
			c19.549-11.827,33.449-19.939,33.449-19.939s15.176-7.536,9.729-16.948c-0.523-0.904-4.463-7.75-4.907-8.521
			c-4.521-7.832-11.956-3.849-19.54,0.624c-8.229,4.849-33.371,18.688-33.371,18.688s-19.42,7.078-30.173-11.546
			c-11.034-19.107-2.94,8.781-2.94,8.781l35.078,59.885L245.617,937.01z"/>
		<path stroke="#000000" stroke-miterlimit="10" d="M447.076,997.551c-0.992,0.142-28.646,3.787-29.113-19.057
			c-0.471-22.845-0.546-38.939-0.546-38.939s1.062-16.91-9.813-16.896c-1.045,0.001-8.94-0.011-9.83-0.011
			c-9.045-0.004-9.311,8.432-9.229,17.231c0.086,9.55-0.5,38.245-0.5,38.245s-4.166,21.875-26.166,21.75
			c-22.062-0.125,7.216,5.545,7.216,5.545l69.4-0.438L447.076,997.551z"/>
		<path stroke="#000000" stroke-miterlimit="10" d="M594.7,856.988c-0.376,0.928-11.042,26.696-31.062,15.684
			c-20.02-11.015-33.994-18.996-33.994-18.996s-14.112-9.375-19.541,0.049c-0.521,0.905-4.479,7.74-4.928,8.514
			c-4.521,7.829,2.648,12.273,10.312,16.607c8.312,4.699,32.87,19.558,32.87,19.558s16.019,14.226,5.267,32.85
			c-11.031,19.109,8.896-2.791,8.896-2.791l34.32-60.32L594.7,856.988z"/>
		<path stroke="#000000" stroke-miterlimit="10" d="M545.737,655.307c0.612,0.789,17.602,22.912-1.947,34.74
			c-19.549,11.83-33.449,19.943-33.449,19.943s-15.176,7.535-9.728,16.947c0.521,0.901,4.463,7.75,4.904,8.521
			c4.521,7.83,11.956,3.844,19.541-0.624c8.229-4.851,33.369-18.69,33.369-18.69s21.316-6.268,32.069,12.355
			c11.033,19.106,1.044-9.592,1.044-9.592l-35.078-59.883L545.737,655.307z"/>
		<path fill="#969696" d="M400.36,743.303c-30.071,0-54.448,24.377-54.448,54.447s24.377,54.447,54.448,54.447
			c30.067,0,54.445-24.377,54.445-54.447S430.431,743.303,400.36,743.303z M400.36,825.11c-15.11,0-27.36-12.25-27.36-27.36
			c0-15.111,12.25-27.36,27.36-27.36c15.107,0,27.357,12.249,27.357,27.36C427.721,812.86,415.471,825.11,400.36,825.11z"/>
		<path display="none" fill="#F90606" d="M68.287,771H68v3H44.036l44.635,65.008L133.301,774h-26.767
			C107.08,626,228,505.297,377,505.297V467C208,467.002,70.452,603,68.287,771z"/>
		<path display="none" fill="#F90606" d="M721.748,771H722v3h23.999l-44.636,65.008L656.734,774h26.767
			C682.955,626,562,505.297,413,505.297V467C582,467.002,719.584,603,721.748,771z"/>
	</g>
	<g>
		<g>
			
				<line fill="none" stroke="#FFFFFF" stroke-width="3" stroke-miterlimit="10" stroke-dasharray="25,24" x1="399.5" y1="18" x2="399.5" y2="782"/>
		</g>
	</g>
</g>
<g id="Bote_Ones">
	<linearGradient id="SVGID_1_" gradientUnits="userSpaceOnUse" x1="200.1733" y1="303.5527" x2="200.1733" y2="507.5004">
		<stop  offset="0" style="stop-color:#FFFFFF;stop-opacity:0.8"/>
		<stop  offset="0.9306" style="stop-color:#FFFFFF;stop-opacity:0"/>
	</linearGradient>
	<path fill="url(#SVGID_1_)" d="M302.847,507.5c-2.691-19.376-15.07-37.9-18.299-54.473c-3.229-16.572,1.076-29.759-2.691-49.674
		c-3.768-19.914-17.223-31.89-20.991-45.883s-4.961-39.6-13.245-49.705s-53.775-6.221-53.775-6.221s-34.702-1.65-41.119,6.177
		c-8.283,10.104-9.478,35.645-13.245,49.639s-17.223,25.848-20.991,45.763c-3.768,19.914,0.538,33.334-2.691,49.906
		c-3.229,16.572-15.609,35.095-18.3,54.471H302.847z"/>
	<linearGradient id="SVGID_2_" gradientUnits="userSpaceOnUse" x1="199.6353" y1="303.5522" x2="199.6352" y2="507.5004">
		<stop  offset="0" style="stop-color:#FFFFFF;stop-opacity:0.8"/>
		<stop  offset="1" style="stop-color:#FFFFFF;stop-opacity:0"/>
	</linearGradient>
	<path opacity="0.5" fill="url(#SVGID_2_)" d="M269.477,507.5c-2.691-19.376-15.07-37.9-18.3-54.473
		c-3.229-16.572,1.077-29.759-2.691-49.674c-3.768-19.914-17.223-31.89-20.991-45.883s-4.962-39.6-13.246-49.706
		c-8.283-10.104-16.099-6.221-16.099-6.221s-6.714-1.65-13.131,6.177c-8.284,10.105-9.478,35.646-13.245,49.639
		s-17.223,25.848-20.991,45.763c-3.768,19.914,0.538,33.334-2.691,49.906c-3.229,16.572-15.608,35.095-18.299,54.471H269.477z"/>
	<linearGradient id="SVGID_3_" gradientUnits="userSpaceOnUse" x1="599.1738" y1="301.5527" x2="599.1738" y2="505.5004">
		<stop  offset="0" style="stop-color:#FFFFFF;stop-opacity:0.8"/>
		<stop  offset="0.9306" style="stop-color:#FFFFFF;stop-opacity:0"/>
	</linearGradient>
	<path fill="url(#SVGID_3_)" d="M701.847,505.5c-2.69-19.376-15.07-37.9-18.3-54.473c-3.229-16.572,1.076-29.759-2.691-49.674
		c-3.768-19.914-17.223-31.89-20.99-45.883s-4.961-39.6-13.245-49.705s-53.774-6.221-53.774-6.221s-34.702-1.65-41.119,6.177
		c-8.283,10.104-9.478,35.645-13.245,49.639s-17.224,25.848-20.991,45.763c-3.768,19.914,0.539,33.334-2.69,49.906
		s-15.608,35.095-18.3,54.471H701.847z"/>
	<linearGradient id="SVGID_4_" gradientUnits="userSpaceOnUse" x1="598.6348" y1="301.5522" x2="598.6348" y2="505.5004">
		<stop  offset="0" style="stop-color:#FFFFFF;stop-opacity:0.8"/>
		<stop  offset="1" style="stop-color:#FFFFFF;stop-opacity:0"/>
	</linearGradient>
	<path opacity="0.5" fill="url(#SVGID_4_)" d="M668.477,505.5c-2.691-19.376-15.07-37.9-18.299-54.473
		c-3.229-16.572,1.076-29.759-2.691-49.674c-3.768-19.914-17.223-31.89-20.99-45.883s-4.963-39.6-13.246-49.706
		c-8.283-10.104-16.1-6.221-16.1-6.221s-6.714-1.65-13.131,6.177c-8.283,10.105-9.477,35.646-13.244,49.639
		s-17.224,25.848-20.991,45.763c-3.768,19.914,0.538,33.334-2.691,49.906s-15.608,35.095-18.3,54.471H668.477z"/>
	<path opacity="0.8" fill="#F90606" enable-background="new    " d="M206.143,161.936l-12.329,0.029
		c-2.49-36.528-22.495-68.542-51.71-87.352l-4.553,8.176l-11.508-23.396l25.96-2.357l-3.863,6.839
		C181.084,84.814,203.61,120.793,206.143,161.936z"/>
	<path opacity="0.8" fill="#F90606" enable-background="new    " d="M650.858,63.883l-3.862-6.84l25.96,2.357l-11.508,23.397
		l-4.554-8.177c-29.215,18.811-49.221,50.824-51.711,87.352l-12.327-0.029C595.39,120.801,617.915,84.822,650.858,63.883z"/>
	<g id="Capa_4_2_">
		<path fill="#D1D1D1" d="M155.504,380.69h89.464l1.65-106.564c0,0,8.254-88.332-46.533-118.654
			c-52.986,29.12-46.983,116.437-46.983,116.437L155.504,380.69z"/>
		<path fill="#F4F4F4" d="M199.774,178.543c0,0,38.739-1.492,40.089,75.717c1.351,77.21-3.996,85.415-3.996,85.415H163.91
			l-3.37-23.447v-66.379C160.54,249.847,162.871,180.889,199.774,178.543z"/>
		<path fill="#E8E8E8" d="M200.235,178.068c-29.937-0.569-39.417,37.703-41.82,73.853l0.99,59.892l1.502,43.23l23.266,5.403
			l3.754-4.464l24.917,0.112c0,0,3.15,3.752,3.902,3.752c4.228,0,22.82-5.104,22.82-5.104s0.665-29.351,0.975-42.56
			c0.011-0.449,1.71-59.518,1.686-60.262C240.95,215.842,232.789,178.688,200.235,178.068z M239.187,310.912
			c0.15,0.977-3.827,40.978-3.827,40.978s-15.552,2.879-19.543,2.879c-0.709,0-3.682-3.586-3.682-3.586l-23.525-0.106l-3.542,4.267
			l-20.707-3.452l-3.452-40.93c-0.499-35.525,0.197-36.025,0-59.041c2.736-35.265,13.511-72.728,39.728-72.051
			c26.052,0.674,36.611,37.192,38.931,72.051C239.547,253.271,238.887,310.312,239.187,310.912z"/>
		<path fill="#FFFFFF" d="M200.555,249.231l0.016-0.361l-11.935,1.779l-4.869,4.991c-2.703,1.951-3.22,11.782-3.22,11.782v18.238
			l1.888,3.978l13.329-2.327l4.872-7.524l-0.081-6.249V249.231z"/>
		<path fill="#FFFFFF" d="M200.311,249.233l0.26-0.362l11.243,1.779l4.78,4.991c2.701,1.951,3.129,11.782,3.129,11.782v18.238
			l-1.708,3.978l-13.237-2.327l-4.706-7.524l0.229-6.25L200.311,249.233z"/>
		<path fill="#C6C6C6" d="M217.947,280.994c-0.037-0.562-5.33-8.871-5.33-8.871l-24.04-0.251l-6.029,8.568v1.202v0.6v0.6v6.813
			h35.398C217.947,289.655,217.985,281.558,217.947,280.994z"/>
		<path fill="#394963" d="M200.78,398.695c-1.161,1.344-3.194,1.491-4.537,0.329l-14.162-12.252
			c-1.342-1.162-1.488-3.196-0.327-4.54l18.822-21.753c1.163-1.343,3.195-1.49,4.538-0.327l14.16,12.253
			c1.344,1.162,1.49,3.193,0.328,4.536L200.78,398.695z"/>
		<path fill="#29ABE2" d="M214.246,264.646h-12.134h-4.628h-10.933c0,0-3.505,4.892-4.077,17.017
			c-0.005,0.07,0.625,0.128,0.625,0.128c1.592-2.241,5.153-8.26,5.153-8.26l11.546-0.056l12.745,0.073c0,0,3.56,6.046,5.153,8.285
			c0,0,0.629-0.102,0.626-0.172C217.749,269.537,214.246,264.646,214.246,264.646z"/>
		<g id="Timó_3_">
			<path d="M187.101,286.803c0,4.879,16.079,5.231,16.079-0.045C203.18,282.124,187.101,281.687,187.101,286.803z M188.5,286.749
				c0-3.487,13.28-3.188,13.28-0.03C201.781,290.315,188.5,290.074,188.5,286.749z"/>
			<path d="M193.124,284.08c0,0,0.038,1.521,1.856,1.5c1.821-0.018,1.576-1.369,1.615-1.5
				C196.633,283.949,193.124,284.08,193.124,284.08z"/>
			<polygon points="194.4,285.654 193.931,289.655 196.332,289.655 195.694,285.654 			"/>
			<path d="M196.032,284.53c0.038,0,5.873,2.552,5.873,2.552l0.226-1.5l-5.911-1.765L196.032,284.53z"/>
			<path d="M193.592,284.53c-0.037,0-6.042,2.552-6.042,2.552v-1.5l5.686-1.765L193.592,284.53z"/>
		</g>
		<g id="Tapiceria_3_">
			<path fill="#E8CDA0" d="M239.565,251.921c0,0-19.664,0.15-24.018-20.715c-4.352-20.865-6.903-49.535-7.205-50.135
				C208.043,180.47,237.463,187.675,239.565,251.921z"/>
			<path fill="#E8CDA0" d="M160.907,251.921c0,0,19.664,0.15,24.017-20.715c4.353-20.865,6.906-49.535,7.205-50.135
				C192.429,180.47,163.009,187.675,160.907,251.921z"/>
			<path fill="#E8CDA0" d="M162.408,333.728c0,0-1.439-4.839,3.302-3.153c15.611,5.555,52.388,6.755,68.897-0.298
				c3.461-1.479,3.408-0.606,3.303,1.726c-0.078,1.75-2.551,19.888-2.551,19.888s-28.221,10.808-71,0L162.408,333.728z"/>
			<path fill="#E8CDA0" d="M218.562,312.253c0,1-1.062,1.411-2.452,1.411h-31.671c-1.389,0-2.892-0.411-2.892-1.411v-10.564
				c0-1,1.503-2.03,2.892-2.03h31.671c1.391,0,2.452,1.03,2.452,2.03V312.253z"/>
		</g>
	</g>
	<g id="Capa_4_3_">
		<path fill="#D1D1D1" d="M554.504,380.69h89.464l1.65-106.564c0,0,8.255-88.332-46.533-118.654
			c-52.986,29.12-46.983,116.437-46.983,116.437L554.504,380.69z"/>
		<path fill="#F4F4F4" d="M598.773,178.543c0,0,38.74-1.492,40.09,75.717c1.351,77.21-3.996,85.415-3.996,85.415H562.91
			l-3.371-23.447v-66.379C559.539,249.847,561.871,180.889,598.773,178.543z"/>
		<path fill="#E8E8E8" d="M599.235,178.068c-29.937-0.569-39.417,37.703-41.82,73.853l0.99,59.892l1.502,43.23l23.266,5.403
			l3.754-4.464l24.917,0.112c0,0,3.15,3.752,3.902,3.752c4.228,0,22.819-5.104,22.819-5.104s0.665-29.351,0.975-42.56
			c0.011-0.449,1.71-59.518,1.687-60.262C639.95,215.842,631.789,178.688,599.235,178.068z M638.188,310.912
			c0.15,0.977-3.828,40.978-3.828,40.978s-15.551,2.879-19.543,2.879c-0.709,0-3.682-3.586-3.682-3.586l-23.525-0.106l-3.543,4.267
			l-20.707-3.452l-3.452-40.93c-0.499-35.525,0.196-36.025,0-59.041c2.736-35.265,13.511-72.728,39.728-72.051
			c26.053,0.674,36.611,37.192,38.931,72.051C638.547,253.271,637.887,310.312,638.188,310.912z"/>
		<path fill="#FFFFFF" d="M599.555,249.231l0.016-0.361l-11.934,1.779l-4.869,4.991c-2.703,1.951-3.221,11.782-3.221,11.782v18.238
			l1.889,3.978l13.328-2.327l4.872-7.524l-0.081-6.249V249.231z"/>
		<path fill="#FFFFFF" d="M599.311,249.233l0.26-0.362l11.243,1.779l4.78,4.991c2.7,1.951,3.129,11.782,3.129,11.782v18.238
			l-1.708,3.978l-13.237-2.327l-4.705-7.524l0.229-6.25L599.311,249.233z"/>
		<path fill="#C6C6C6" d="M616.947,280.994c-0.037-0.562-5.33-8.871-5.33-8.871l-24.039-0.251l-6.029,8.568v1.202v0.6v0.6v6.813
			h35.398C616.947,289.655,616.985,281.558,616.947,280.994z"/>
		<path fill="#394963" d="M618.554,382.556c1.141,1.362,0.959,3.393-0.403,4.53l-14.367,12.012
			c-1.361,1.137-3.393,0.955-4.532-0.407l-18.449-22.07c-1.139-1.363-0.958-3.393,0.405-4.531l14.368-12.009
			c1.362-1.14,3.391-0.958,4.53,0.405L618.554,382.556z"/>
		<path fill="#29ABE2" d="M613.246,264.646h-12.135h-4.628h-10.933c0,0-3.505,4.892-4.076,17.017
			c-0.006,0.07,0.625,0.128,0.625,0.128c1.592-2.241,5.152-8.26,5.152-8.26l11.547-0.056l12.744,0.073c0,0,3.56,6.046,5.153,8.285
			c0,0,0.63-0.102,0.626-0.172C616.748,269.537,613.246,264.646,613.246,264.646z"/>
		<g id="Timó_4_">
			<path d="M586.101,286.803c0,4.879,16.079,5.231,16.079-0.045C602.18,282.124,586.101,281.687,586.101,286.803z M587.5,286.749
				c0-3.487,13.279-3.188,13.279-0.03C600.781,290.315,587.5,290.074,587.5,286.749z"/>
			<path d="M592.124,284.08c0,0,0.038,1.521,1.856,1.5c1.82-0.018,1.576-1.369,1.615-1.5
				C595.633,283.949,592.124,284.08,592.124,284.08z"/>
			<polygon points="593.4,285.654 592.932,289.655 595.332,289.655 594.694,285.654 			"/>
			<path d="M595.031,284.53c0.038,0,5.873,2.552,5.873,2.552l0.227-1.5l-5.911-1.765L595.031,284.53z"/>
			<path d="M592.592,284.53c-0.037,0-6.043,2.552-6.043,2.552v-1.5l5.687-1.765L592.592,284.53z"/>
		</g>
		<g id="Tapiceria_4_">
			<path fill="#E8CDA0" d="M638.565,251.921c0,0-19.664,0.15-24.019-20.715c-4.352-20.865-6.902-49.535-7.205-50.135
				C607.043,180.47,636.463,187.675,638.565,251.921z"/>
			<path fill="#E8CDA0" d="M559.907,251.921c0,0,19.664,0.15,24.017-20.715c4.354-20.865,6.906-49.535,7.205-50.135
				C591.43,180.47,562.009,187.675,559.907,251.921z"/>
			<path fill="#E8CDA0" d="M561.408,333.728c0,0-1.439-4.839,3.303-3.153c15.611,5.555,52.388,6.755,68.896-0.298
				c3.461-1.479,3.408-0.606,3.304,1.726c-0.078,1.75-2.552,19.888-2.552,19.888s-28.221,10.808-71,0L561.408,333.728z"/>
			<path fill="#E8CDA0" d="M617.562,312.253c0,1-1.062,1.411-2.452,1.411h-31.67c-1.389,0-2.893-0.411-2.893-1.411v-10.564
				c0-1,1.504-2.03,2.893-2.03h31.67c1.391,0,2.452,1.03,2.452,2.03V312.253z"/>
		</g>
	</g>
</g>
</svg>
