<?xml version="1.0" encoding="utf-8"?>
<!-- Generator: Adobe Illustrator 16.0.0, SVG Export Plug-In . SVG Version: 6.00 Build 0)  -->
<!DOCTYPE svg PUBLIC "-//W3C//DTD SVG 1.1//EN" "http://www.w3.org/Graphics/SVG/1.1/DTD/svg11.dtd">
<svg version="1.1" id="Capa_1" xmlns="http://www.w3.org/2000/svg" xmlns:xlink="http://www.w3.org/1999/xlink" x="0px" y="0px"
	 width="800px" height="800px" viewBox="0 0 800 800" enable-background="new 0 0 800 800" xml:space="preserve">
<g id="Adelantar">
	<rect x="-7" y="-3" fill="#42C9CC" width="840" height="843"/>
	<g>
		<path fill="#F80606" d="M393.234,509.421c0-0.033-0.002-0.065-0.002-0.099h-0.048L393.234,509.421z"/>
		<path fill="#F80606" d="M408.214,509.322L408.214,509.322c-0.001,0.031,0,0.064,0,0.099V509.322z"/>
		<path fill="#F80606" d="M306.019,389.991C247.412,381.739,209.657,340,209.44,281h10.645l-17.748-25.851L184.586,281H194v1h0.23
			c0.861,67,45.51,110.871,111.788,121.917C355.312,412.133,393.19,450,393.232,509h14.98
			C408.167,442,361.525,397.807,306.019,389.991z"/>
	</g>
	<g>
		<path fill="#F80606" d="M408.766,508.219c0-0.033,0.002-0.065,0.002-0.099h0.048L408.766,508.219z"/>
		<path fill="#F80606" d="M393.786,508.12L393.786,508.12c0.001,0.032,0,0.064,0,0.099V508.12z"/>
		<path fill="#F80606" d="M495.98,388.991C554.589,380.739,592.343,339,592.56,280h-10.645l17.748-25.851L617.414,280H608v1h-0.23
			c-0.86,67-45.509,110.871-111.787,121.917C446.688,411.132,408.811,449,408.768,508h-14.979
			C393.833,440,440.475,396.807,495.98,388.991z"/>
	</g>
	<g>
		
			<linearGradient id="SVGID_1_" gradientUnits="userSpaceOnUse" x1="385.9077" y1="54.2637" x2="385.9077" y2="-151.9527" gradientTransform="matrix(1 -0.0019 -0.0019 -1 14.5854 657.167)">
			<stop  offset="0" style="stop-color:#FFFFFF;stop-opacity:0.8"/>
			<stop  offset="0.9306" style="stop-color:#FFFFFF;stop-opacity:0"/>
		</linearGradient>
		<path fill="url(#SVGID_1_)" d="M468.226,776.819c-1.104-7.266,3.583-25.897,1.742-38.612
			c-1.842-12.716-10.225-25.252-12.427-36.438c-2.2-11.185,0.689-19.935-1.881-33.374c-2.569-13.439-11.67-21.429-14.232-30.873
			c-2.56-9.442-3.399-26.689-9.006-33.502c-5.605-6.812-36.314-4.109-36.314-4.109s-23.433-1.062-27.755,4.232
			c-5.579,6.834-6.352,24.084-8.878,33.537c-2.525,9.453-11.595,17.478-14.112,30.928s0.405,22.188-1.752,33.383
			c-2.159,11.192-10.493,23.762-12.286,36.482c-1.792,12.724,2.968,31.336,1.892,38.606c-1.077,7.27-6.504,19.091-8.297,31.449
			l73.405-0.143l4.916-0.01l73.403-0.142C474.803,795.886,469.329,784.086,468.226,776.819z"/>
		
			<linearGradient id="SVGID_2_" gradientUnits="userSpaceOnUse" x1="385.5454" y1="54.2637" x2="385.5454" y2="-151.9518" gradientTransform="matrix(1 -0.0019 -0.0019 -1 14.5854 657.167)">
			<stop  offset="0" style="stop-color:#FFFFFF;stop-opacity:0.8"/>
			<stop  offset="1" style="stop-color:#FFFFFF;stop-opacity:0"/>
		</linearGradient>
		<path opacity="0.5" fill="url(#SVGID_2_)" enable-background="new    " d="M445.695,776.864
			c-1.104-7.268,3.583-25.899,1.74-38.615c-1.841-12.714-10.224-25.251-12.425-36.435c-2.202-11.188,0.688-19.937-1.881-33.376
			c-2.57-13.441-11.671-21.43-14.231-30.872c-2.562-9.444-3.401-26.69-9.008-33.504c-5.605-6.812-10.878-4.158-10.878-4.158
			s-4.536-1.097-8.856,4.196c-5.58,6.833-6.353,24.085-8.877,33.537c-2.525,9.453-11.596,17.478-14.113,30.928
			c-2.518,13.449,0.406,22.188-1.753,33.383c-2.159,11.191-10.492,23.762-12.285,36.482c-1.792,12.723,2.968,31.337,1.892,38.605
			c-1.075,7.271-6.504,19.092-8.297,31.45l54.51-0.104l4.914-0.011l47.969-0.091C452.271,795.929,446.799,784.129,445.695,776.864z"
			/>
		<g id="Capa_4">
			<path fill="#D1D1D1" d="M370.323,653.417l60.402-0.116l0.977-71.951c0,0,5.459-59.649-31.572-80.051
				c-35.737,19.73-31.569,78.676-31.569,78.676L370.323,653.417z"/>
			<path fill="#F4F4F4" d="M399.949,516.876c0,0,26.152-1.058,27.166,51.069c1.012,52.129-2.588,57.675-2.588,57.675l-48.583,0.094
				l-2.307-15.826l-0.086-44.815C373.552,565.069,375.037,518.509,399.949,516.876z"/>
			<path fill="#E8E8E8" d="M400.26,516.555c-20.213-0.344-26.563,25.508-28.14,49.918l0.747,40.437l1.07,29.186l15.715,3.618
				l2.528-3.02l16.823,0.044c0,0,2.132,2.528,2.641,2.526c2.854-0.004,15.401-3.475,15.401-3.475s0.409-19.818,0.603-28.737
				c0.005-0.302,1.076-40.187,1.06-40.688C427.798,542.006,422.24,516.931,400.26,516.555z M426.732,606.196
				c0.102,0.657-2.532,27.672-2.532,27.672s-10.496,1.964-13.19,1.969c-0.479,0.001-2.49-2.416-2.49-2.416l-15.884-0.041
				l-2.387,2.885l-13.984-2.303l-2.385-27.63c-0.382-23.984,0.086-24.322-0.076-39.863c1.802-23.812,9.028-49.12,26.729-48.697
				c17.589,0.422,24.766,25.063,26.377,48.596C426.9,567.279,426.527,605.79,426.732,606.196z"/>
			<path fill="#FFFFFF" d="M400.569,564.602l0.009-0.243l-8.056,1.217l-3.281,3.377c-1.822,1.319-2.159,7.958-2.159,7.958
				l0.025,12.313l1.277,2.684l8.998-1.588l3.278-5.086l-0.062-4.221L400.569,564.602z"/>
			<path fill="#FFFFFF" d="M400.403,564.604l0.175-0.245l7.593,1.187l3.233,3.363c1.827,1.313,2.127,7.951,2.127,7.951l0.024,12.313
				l-1.147,2.688l-8.94-1.555l-3.186-5.073l0.146-4.222L400.403,564.604z"/>
			<path fill="#C6C6C6" d="M412.353,586.023c-0.024-0.38-3.609-5.981-3.609-5.981l-16.231-0.139l-4.06,5.793l0.002,0.812
				l0.001,0.404l0.001,0.405l0.008,4.601l23.899-0.046C412.363,591.872,412.378,586.404,412.353,586.023z"/>
			<path fill="#394963" d="M409.281,662.354c-0.004,1.199-0.98,2.171-2.181,2.165l-12.642-0.043
				c-1.199-0.006-2.169-0.98-2.165-2.181l0.066-19.422c0.005-1.199,0.98-2.17,2.18-2.165l12.643,0.045
				c1.199,0.004,2.168,0.979,2.164,2.179L409.281,662.354z"/>
			<path fill="#29ABE2" d="M409.832,574.99l-8.193,0.016l-3.123,0.007l-7.383,0.016c0,0-2.359,3.307-2.729,11.493
				c-0.003,0.048,0.423,0.087,0.423,0.087c1.072-1.516,3.468-5.584,3.468-5.584l7.795-0.054l8.606,0.032
				c0,0,2.408,4.078,3.488,5.588c0,0,0.426-0.068,0.424-0.117C412.203,578.289,409.832,574.99,409.832,574.99z"/>
			<g id="Timó_1_">
				<path d="M391.533,589.986c0.007,3.293,10.864,3.511,10.854-0.053C402.383,586.806,391.527,586.532,391.533,589.986z
					 M392.478,589.947c-0.004-2.354,8.963-2.17,8.966-0.036C401.449,592.338,392.483,592.192,392.478,589.947z"/>
				<path d="M395.597,588.14c0,0,0.028,1.027,1.255,1.012c1.229-0.017,1.062-0.928,1.089-1.017
					C397.965,588.047,395.597,588.14,395.597,588.14z"/>
				<polygon points="396.461,589.199 396.148,591.902 397.77,591.899 397.334,589.198 				"/>
				<path d="M397.56,588.44c0.025,0,3.969,1.714,3.969,1.714l0.15-1.013l-3.993-1.184L397.56,588.44z"/>
				<path d="M395.914,588.442c-0.026,0.001-4.076,1.73-4.076,1.73l-0.002-1.012l3.837-1.2L395.914,588.442z"/>
			</g>
			<g id="Tapiceria_1_">
				<path fill="#E8CDA0" d="M426.91,566.366c0,0-13.276,0.127-16.242-13.954c-2.966-14.082-4.725-33.438-4.931-33.842
					C405.534,518.167,425.407,522.993,426.91,566.366z"/>
				<path fill="#E8CDA0" d="M373.803,566.469c0,0,13.276,0.075,16.188-14.018c2.912-14.092,4.598-33.453,4.8-33.858
					S375.138,523.09,373.803,566.469z"/>
				<path fill="#E8CDA0" d="M374.923,621.7c0,0-0.979-3.266,2.226-2.133c10.548,3.729,35.379,4.492,46.517-0.291
					c2.336-1.003,2.302-0.414,2.233,1.161c-0.053,1.182-1.698,13.431-1.698,13.431s-19.039,7.333-47.937,0.093L374.923,621.7z"/>
				<path fill="#E8CDA0" d="M412.807,607.127c0.003,0.677-0.714,0.955-1.65,0.956l-21.383,0.042
					c-0.938,0.003-1.954-0.273-1.955-0.948l-0.015-7.133c-0.001-0.675,1.013-1.373,1.95-1.375l21.383-0.04
					c0.939-0.003,1.657,0.69,1.659,1.367L412.807,607.127z"/>
			</g>
		</g>
		<g>
			<path fill="#996234" d="M392.33,593.589c0,0,1.153-1.438,1.696,0.849c0.543,2.285,1.598,4.568,1.598,4.568
				s2.458-0.717,2.791-1.39s0.047-3.739,2.177-4.514c2.131-0.772,3.092-1.259,2.189,1.966c-0.903,3.224-1.23,5.499-1.23,5.499
				l-8.865,1.989l-0.354-8.462"/>
			<path fill="#EF45B7" d="M393.464,601.265c0,0-3.239-4.788-1.517-4.614c1.726,0.173,0.832,1.496,3.021,1.605
				c2.191,0.11,1.889-1.582,4.577-0.666c2.689,0.914,3.689,0.104,3.242,1.566c-0.449,1.463-0.547,2.092-0.547,2.092L393.464,601.265
				z"/>
			<path fill="#996234" d="M390.896,601.746c0,0-0.156-3.819-0.262-4.807c-0.194-1.849,1.37-5.685,1.369-6.386
				c-0.002-0.701,0.108-1.436,1.038-0.397c0.926,1.038,0.023,4.525-0.369,6.271c-0.392,1.746,0.744,3.869,0.79,4.43
				c0.043,0.562-1.12-0.243-1.12-0.243L390.896,601.746z"/>
			<path fill="#996234" d="M402.897,601.966c0,0,1.19-4.064,1.293-5.052c0.188-1.85-1.393-5.68-1.394-6.381
				c-0.001-0.699-0.113-1.436-1.039-0.394c-0.924,1.04-0.008,4.524,0.391,6.271c0.398,1.745-1.5,3.696-1.543,4.259
				c-0.04,0.561,1.891-0.075,1.891-0.075L402.897,601.966z"/>
			<path fill="#8BC7E8" d="M389.203,601.75c0,0,0.726,4.729,3.654,5.681s3.941,1.282,6.568,0.141
				c2.627-1.143,4.022-0.521,3.817-2.892c-0.203-2.371,1.384-3.603-0.896-3.97c-2.455-0.396-9.05-0.834-9.505-0.887
				C390.045,599.499,389.203,601.75,389.203,601.75z"/>
			<path fill="#301705" d="M396.351,607.423c0,0-2.657-0.256-2.263-2.449c0.393-2.189-0.772-2.988,1.104-3.678
				c1.874-0.689,2.803-2.521,3.635-0.694c0.83,1.828,1.43,2.799,0.834,4.086c-0.595,1.289-0.47,1.602-1.228,2.419
				C397.676,607.922,396.351,607.423,396.351,607.423z"/>
		</g>
	</g>
	<g>
		
			<linearGradient id="SVGID_3_" gradientUnits="userSpaceOnUse" x1="306.8813" y1="607.6895" x2="306.8813" y2="465.0007" gradientTransform="matrix(1 0 0 -1 94 805)">
			<stop  offset="0" style="stop-color:#FFFFFF;stop-opacity:0.8"/>
			<stop  offset="0.9306" style="stop-color:#FFFFFF;stop-opacity:0"/>
		</linearGradient>
		<path fill="url(#SVGID_3_)" d="M472.895,340c-1.887-13.59-10.568-26.394-12.835-38.018c-2.265-11.624,0.757-20.778-1.887-34.745
			c-2.643-13.968-12.08-22.32-14.723-32.135c-2.644-9.815-3.48-27.751-9.29-34.839c-5.812-7.087-37.717-4.352-37.717-4.352
			s-24.34-1.151-28.841,4.338c-5.81,7.087-6.646,25.004-9.29,34.819c-2.642,9.815-12.079,18.131-14.722,32.099
			c-2.643,13.967,0.377,23.191-1.888,34.815c-2.266,11.624-10.947,24.427-12.835,38.017L472.895,340L472.895,340z"/>
		
			<linearGradient id="SVGID_4_" gradientUnits="userSpaceOnUse" x1="306.5044" y1="621.1855" x2="306.5044" y2="470.0007" gradientTransform="matrix(1 0 0 -1 94 805)">
			<stop  offset="0" style="stop-color:#FFFFFF;stop-opacity:0.8"/>
			<stop  offset="1" style="stop-color:#FFFFFF;stop-opacity:0"/>
		</linearGradient>
		<path opacity="0.8" fill="url(#SVGID_4_)" enable-background="new    " d="M452.56,335c-2.007-14-11.232-27.812-13.64-40.165
			c-2.407-12.352,0.803-21.961-2.006-36.804c-2.809-14.843-12.837-23.659-15.646-34.089c-2.808-10.43-3.696-29.461-9.871-36.993
			c-6.175-7.531-12-4.609-12-4.609s-5.004-1.217-9.785,4.618c-6.175,7.531-7.064,26.574-9.872,37.004
			c-2.81,10.43-12.837,19.268-15.646,34.111c-2.808,14.842,0.402,24.411-2.005,36.763C359.682,307.187,350.456,321,348.449,335
			H452.56z"/>
		<g id="Capa_4_1_">
			<path fill="#D1D1D1" d="M369.552,251.436H432.3l1.157-74.742c0,0,5.79-61.954-32.637-83.222
				c-37.164,20.424-32.954,81.667-32.954,81.667L369.552,251.436z"/>
			<path fill="#F4F4F4" d="M400.602,109.654c0,0,27.172-1.046,28.118,53.107c0.947,54.153-2.803,59.908-2.803,59.908h-50.47
				l-2.364-16.445v-46.557C373.083,159.665,374.719,111.299,400.602,109.654z"/>
			<path fill="#E8E8E8" d="M400.926,109.32c-20.998-0.399-27.646,26.444-29.333,51.799l0.694,42.007l1.054,30.321l16.318,3.789
				l2.633-3.131l17.476,0.079c0,0,2.21,2.632,2.737,2.632c2.965,0,16.005-3.58,16.005-3.58s0.466-20.586,0.685-29.851
				c0.007-0.313,1.198-41.745,1.183-42.267C429.48,135.814,423.758,109.755,400.926,109.32z M428.245,202.495
				c0.104,0.685-2.686,28.741-2.686,28.741s-10.906,2.02-13.707,2.02c-0.497,0-2.583-2.516-2.583-2.516l-16.5-0.074l-2.484,2.993
				l-14.523-2.421l-2.421-28.708c-0.35-24.917,0.138-25.267,0-41.41c1.919-24.734,9.478-51.01,27.864-50.535
				c18.273,0.473,25.679,26.086,27.306,50.535C428.497,162.067,428.034,202.074,428.245,202.495z"/>
			<path fill="#FFFFFF" d="M401.149,159.233l0.011-0.253l-8.37,1.248l-3.415,3.5c-1.896,1.369-2.259,8.264-2.259,8.264v12.792
				l1.324,2.79l9.349-1.632l3.417-5.278l-0.057-4.383V159.233L401.149,159.233z"/>
			<path fill="#FFFFFF" d="M400.979,159.234l0.183-0.254l7.886,1.248l3.354,3.5c1.895,1.369,2.194,8.264,2.194,8.264v12.792
				l-1.197,2.79l-9.284-1.632l-3.301-5.278l0.159-4.384L400.979,159.234z"/>
			<path fill="#C6C6C6" d="M413.349,181.511c-0.025-0.395-3.737-6.222-3.737-6.222l-16.862-0.176l-4.229,6.01v0.843v0.421v0.421
				v4.778h24.829C413.349,187.585,413.375,181.906,413.349,181.511z"/>
			<path fill="#394963" d="M410.005,260.797c-0.006,1.246-1.021,2.252-2.269,2.245l-13.134-0.069
				c-1.244-0.007-2.25-1.024-2.244-2.271l0.107-20.175c0.007-1.246,1.023-2.251,2.27-2.245l13.133,0.071
				c1.246,0.006,2.25,1.022,2.244,2.268L410.005,260.797z"/>
			<path fill="#29ABE2" d="M410.752,170.044h-8.511h-3.246h-7.668c0,0-2.458,3.432-2.859,11.935c-0.003,0.049,0.439,0.09,0.439,0.09
				c1.117-1.571,3.614-5.793,3.614-5.793l8.098-0.039l8.938,0.051c0,0,2.497,4.24,3.614,5.811c0,0,0.441-0.071,0.439-0.121
				C413.209,173.475,410.752,170.044,410.752,170.044z"/>
			<g id="Timó_2_">
				<path d="M391.713,185.585c0,3.421,11.277,3.668,11.277-0.032C402.99,182.303,391.713,181.997,391.713,185.585z M392.694,185.547
					c0-2.446,9.312-2.237,9.312-0.021C402.01,188.048,392.694,187.879,392.694,185.547z"/>
				<path d="M395.938,183.675c0,0,0.026,1.066,1.304,1.052c1.275-0.013,1.104-0.96,1.132-1.052
					C398.398,183.583,395.938,183.675,395.938,183.675z"/>
				<polygon points="396.832,184.779 396.504,187.585 398.188,187.585 397.74,184.779 				"/>
				<path d="M397.977,183.991c0.027,0,4.119,1.79,4.119,1.79l0.159-1.052l-4.146-1.238L397.977,183.991z"/>
				<path d="M396.266,183.991c-0.024,0-4.237,1.79-4.237,1.79v-1.052l3.987-1.238L396.266,183.991z"/>
			</g>
			<g id="Tapiceria_2_">
				<path fill="#E8CDA0" d="M428.511,161.119c0,0-13.792,0.105-16.846-14.529c-3.053-14.634-4.842-34.743-5.054-35.164
					C406.401,111.005,427.036,116.059,428.511,161.119z"/>
				<path fill="#E8CDA0" d="M373.341,161.119c0,0,13.792,0.105,16.845-14.529c3.054-14.634,4.844-34.743,5.055-35.164
					C395.45,111.005,374.815,116.059,373.341,161.119z"/>
				<path fill="#E8CDA0" d="M374.394,218.497c0,0-1.009-3.394,2.316-2.211c10.95,3.896,36.744,4.738,48.323-0.209
					c2.428-1.037,2.391-0.425,2.316,1.21c-0.055,1.227-1.79,13.949-1.79,13.949s-19.793,7.581-49.798,0L374.394,218.497z"/>
				<path fill="#E8CDA0" d="M413.778,203.435c0,0.702-0.744,0.99-1.72,0.99h-22.214c-0.974,0-2.027-0.288-2.027-0.99v-7.41
					c0-0.702,1.055-1.424,2.027-1.424h22.214c0.977,0,1.72,0.722,1.72,1.424V203.435z"/>
			</g>
		</g>
		<g>
			<path fill="#996234" d="M392.533,189.329c0,0,1.201-1.492,1.76,0.883s1.651,4.751,1.651,4.751s2.554-0.74,2.9-1.439
				c0.35-0.699,0.058-3.883,2.271-4.683c2.215-0.799,3.216-1.302,2.271,2.045c-0.944,3.348-1.29,5.71-1.29,5.71l-9.212,2.05
				l-0.351-8.791"/>
			<path fill="#EF45B7" d="M393.696,197c0,0-3.356-4.828-1.565-4.646c1.791,0.184,0.86,1.634,3.136,1.752
				c2.274,0.119,1.965-1.601,4.756-0.645c2.792,0.956,3.833-0.02,3.364,1.5c-0.47,1.519-0.572,2.039-0.572,2.039H393.696z"/>
			<path fill="#996234" d="M391.026,197.801c0,0-0.154-3.969-0.262-4.995c-0.199-1.919,1.435-5.901,1.435-6.629
				s0.116-1.491,1.079-0.412c0.962,1.08,0.017,4.702-0.395,6.516c-0.411,1.812,0.767,4.02,0.812,4.603
				c0.043,0.583-1.163-0.256-1.163-0.256L391.026,197.801z"/>
			<path fill="#996234" d="M403.494,198.053c0,0,1.246-4.221,1.354-5.247c0.198-1.919-1.435-5.901-1.435-6.629
				s-0.114-1.491-1.078-0.412c-0.963,1.08-0.018,4.702,0.393,6.516c0.411,1.812-1.566,3.837-1.61,4.42s1.964-0.074,1.964-0.074
				L403.494,198.053z"/>
			<path fill="#8BC7E8" d="M389.269,197.801c0,0,0.743,4.912,3.784,5.908c3.042,0.996,4.092,1.34,6.823,0.159
				c2.732-1.182,4.18-0.531,3.973-2.995c-0.207-2.463,1.443-3.74-0.922-4.126c-2.549-0.416-9.4-0.884-9.874-0.94
				C390.148,195.465,389.269,197.801,389.269,197.801z"/>
			<path fill="#301705" d="M396.682,203.709c0,0-2.76-0.272-2.346-2.549c0.412-2.276-0.798-3.107,1.152-3.82
				s2.918-2.614,3.777-0.713c0.859,1.9,1.48,2.909,0.859,4.245c-0.619,1.337-0.49,1.663-1.279,2.51
				C398.059,204.23,396.682,203.709,396.682,203.709z"/>
		</g>
	</g>
</g>
</svg>
