<?xml version="1.0" encoding="utf-8"?>
<!-- Generator: Adobe Illustrator 16.0.0, SVG Export Plug-In . SVG Version: 6.00 Build 0)  -->
<!DOCTYPE svg PUBLIC "-//W3C//DTD SVG 1.1//EN" "http://www.w3.org/Graphics/SVG/1.1/DTD/svg11.dtd">
<svg version="1.1" id="Capa_1" xmlns="http://www.w3.org/2000/svg" xmlns:xlink="http://www.w3.org/1999/xlink" x="0px" y="0px"
	 width="800px" height="800px" viewBox="0 0 800 800" enable-background="new 0 0 800 800" xml:space="preserve">
<rect x="-45.5" y="-44" fill="#42C9CC" width="888" height="892"/>
<g id="Capa_2">
	<g>
		
			<circle fill="none" stroke="#FFFFFF" stroke-width="3" stroke-miterlimit="10" stroke-dasharray="11.9854,11.9854" cx="400.325" cy="399.502" r="350.971"/>
	</g>
</g>
<line fill="#FCFCFC" stroke="#FFFFFF" stroke-width="3" stroke-miterlimit="10" x1="398.5" y1="400" x2="398.5" y2="750"/>
<path display="none" fill="#FFFFFF" d="M389.551,744.501l1.354,14.446c-99.691-6.81-195.833-52.253-264.574-131.704l-7.567,6.084
	l-7.107-34.963l33.185,13.978l-7.357,5.938C203.108,693.911,294.565,737.416,389.551,744.501z"/>
<path display="none" fill="#FFFFFF" d="M655.751,628.939l-7.155-6.18l33.632-12.86l-8.271,34.706l-7.359-6.334
	c-71.354,77.11-168.963,119.317-268.826,122.791l1.837-14.393C494.776,742.764,587.635,702.338,655.751,628.939z"/>
<g id="Capa_4">
	<path fill="#D1D1D1" d="M368.003,766.074h62.862l1.158-74.877c0,0,5.802-62.068-32.696-83.374
		c-37.231,20.461-33.013,81.814-33.013,81.814L368.003,766.074z"/>
	<path fill="#F4F4F4" d="M399.108,624.033c0,0,27.221-1.049,28.169,53.203c0.948,54.254-2.809,60.019-2.809,60.019h-50.562
		l-2.368-16.475v-46.644C371.541,674.136,373.179,625.683,399.108,624.033z"/>
	<path fill="#E8E8E8" d="M399.433,623.7c-21.034-0.399-27.695,26.492-29.384,51.894l0.695,42.084l1.055,30.376l16.348,3.796
		l2.638-3.136l17.508,0.078c0,0,2.214,2.638,2.743,2.637c2.97,0.001,16.035-3.586,16.035-3.586s0.465-20.624,0.684-29.905
		c0.007-0.313,1.202-41.819,1.186-42.344C428.041,650.242,422.307,624.135,399.433,623.7z M426.804,717.045
		c0.105,0.686-2.689,28.793-2.689,28.793s-10.928,2.024-13.733,2.023c-0.497,0-2.587-2.521-2.587-2.521l-16.53-0.074l-2.488,2.998
		l-14.55-2.427l-2.426-28.758c-0.35-24.964,0.138-25.314,0.001-41.486c1.921-24.777,9.493-51.103,27.914-50.627
		c18.309,0.476,25.727,26.133,27.356,50.627C427.056,676.542,426.592,716.622,426.804,717.045z"/>
	<path fill="#FFFFFF" d="M399.658,673.703l0.011-0.254l-8.388,1.25l-3.42,3.508c-1.9,1.371-2.265,8.28-2.265,8.28V699.3l1.327,2.795
		l9.366-1.635l3.422-5.287l-0.057-4.392L399.658,673.703z"/>
	<path fill="#FFFFFF" d="M399.486,673.705l0.183-0.256l7.899,1.25l3.358,3.508c1.897,1.371,2.197,8.28,2.197,8.28V699.3
		l-1.199,2.795l-9.3-1.635l-3.307-5.287l0.159-4.393L399.486,673.705z"/>
	<path fill="#C6C6C6" d="M411.878,696.021c-0.025-0.396-3.745-6.232-3.745-6.232l-16.893-0.177l-4.234,6.021v0.844v0.423v0.422
		v4.787h24.872C411.878,702.107,411.905,696.418,411.878,696.021z"/>
	<path fill="#394963" d="M408.528,775.453c-0.007,1.248-1.024,2.256-2.271,2.248l-13.157-0.068
		c-1.248-0.008-2.255-1.024-2.248-2.273l0.107-20.213c0.007-1.247,1.025-2.257,2.273-2.248l13.156,0.07
		c1.248,0.007,2.254,1.024,2.248,2.272L408.528,775.453z"/>
	<path fill="#29ABE2" d="M409.278,684.534h-8.526H397.5h-7.682c0,0-2.462,3.438-2.865,11.956c-0.003,0.051,0.438,0.09,0.438,0.09
		c1.119-1.572,3.622-5.803,3.622-5.803l8.112-0.039l8.956,0.052c0,0,2.5,4.249,3.62,5.821c0,0,0.441-0.071,0.438-0.121
		C411.738,687.972,409.278,684.534,409.278,684.534z"/>
	<g id="Timó_1_">
		<path d="M390.204,700.104c0,3.428,11.298,3.676,11.298-0.031C401.502,696.814,390.204,696.509,390.204,700.104z M391.188,700.066
			c0-2.451,9.331-2.242,9.331-0.021C400.52,702.57,391.188,702.401,391.188,700.066z"/>
		<path d="M394.438,698.19c0,0,0.026,1.067,1.304,1.054c1.28-0.014,1.106-0.962,1.136-1.054
			C396.901,698.099,394.438,698.19,394.438,698.19z"/>
		<polygon points="395.333,699.296 395.003,702.107 396.69,702.107 396.242,699.296 		"/>
		<path d="M396.479,698.507c0.026,0,4.127,1.792,4.127,1.792l0.158-1.054l-4.152-1.238L396.479,698.507z"/>
		<path d="M394.765,698.506c-0.024,0-4.246,1.795-4.246,1.795v-1.056l3.996-1.238L394.765,698.506z"/>
	</g>
	<g id="Tapiceria_1_">
		<path fill="#E8CDA0" d="M427.069,675.594c0,0-13.817,0.105-16.878-14.557c-3.059-14.661-4.852-34.807-5.062-35.228
			C404.92,625.388,425.593,630.451,427.069,675.594z"/>
		<path fill="#E8CDA0" d="M371.799,675.594c0,0,13.817,0.104,16.876-14.558c3.059-14.659,4.852-34.805,5.062-35.227
			S373.276,630.451,371.799,675.594z"/>
		<path fill="#E8CDA0" d="M372.854,733.075c0,0-1.012-3.4,2.32-2.215c10.969,3.902,36.812,4.747,48.411-0.21
			c2.432-1.037,2.396-0.427,2.321,1.212c-0.057,1.23-1.793,13.976-1.793,13.976s-19.83,7.593-49.89,0L372.854,733.075z"/>
		<path fill="#E8CDA0" d="M412.31,717.985c0,0.702-0.745,0.991-1.721,0.99h-22.256c-0.975,0.001-2.032-0.288-2.032-0.99v-7.423
			c0-0.702,1.058-1.427,2.032-1.427h22.255c0.979,0,1.722,0.724,1.722,1.427V717.985L412.31,717.985z"/>
	</g>
</g>
<circle fill="#FCFCFC" cx="398.5" cy="400" r="36.661"/>
<g>
	<path opacity="0.7" fill="#1AB737" d="M425.774,378.988c-11.368-14.732-32.526-17.459-47.258-6.092
		c-14.732,11.368-17.459,32.526-6.092,47.257c11.367,14.732,32.525,17.46,47.257,6.092
		C434.413,414.878,437.142,393.72,425.774,378.988z M416.178,415.53c-0.03,0.01-1.179-1.098-1.743-1.624
		c-8.623,8.129-22.111,7.88-30.441-0.446c-0.688,0.646-2.039,1.885-2.073,1.873l-0.582-8.128l7.584,1.547
		c0,0-1.546,1.197-2.117,1.748c2.686,2.655,6.693,4.273,9.693,4.842v-27.351c-1-0.861-2.654-2.463-2.654-4.299
		c0-2.747,2.367-4.973,5.113-4.973c2.746,0,5.248,2.226,5.248,4.973c0,1.854-1.706,3.469-2.706,4.324v27.43
		c3-0.425,7.221-1.922,10.031-4.506c-0.689-0.665-1.945-1.794-1.945-1.794l7.74-1.435L416.178,415.53z"/>
	<circle opacity="0.7" fill="#1AB737" cx="399.099" cy="383.58" r="2.025"/>
</g>
</svg>
