<?xml version="1.0" encoding="utf-8"?>
<!-- Generator: Adobe Illustrator 16.0.0, SVG Export Plug-In . SVG Version: 6.00 Build 0)  -->
<!DOCTYPE svg PUBLIC "-//W3C//DTD SVG 1.1//EN" "http://www.w3.org/Graphics/SVG/1.1/DTD/svg11.dtd">
<svg version="1.1" id="Capa_1" xmlns="http://www.w3.org/2000/svg" xmlns:xlink="http://www.w3.org/1999/xlink" x="0px" y="0px"
	 width="800px" height="800px" viewBox="0 0 800 800" enable-background="new 0 0 800 800" xml:space="preserve">
<g id="Capa_1_1_">
	<g id="_x33_">
		<g id="Cèl_2_">
			
				<linearGradient id="SVGID_1_" gradientUnits="userSpaceOnUse" x1="391.3379" y1="-283.0088" x2="1190.5" y2="-283.0088" gradientTransform="matrix(-4.371139e-08 -1 1 -4.371139e-08 683.5 1190.4995)">
				<stop  offset="0.1444" style="stop-color:#FFFFFF"/>
				<stop  offset="1" style="stop-color:#00C3FF"/>
			</linearGradient>
			<polygon fill="url(#SVGID_1_)" points="0,0 800,0 800.981,799.162 0.982,799.162 			"/>
		</g>
		<g id="Ancla_copia_2">
			<path fill="#727272" d="M746.015,724.956c0.235-0.4-0.419-1.497-0.548-1.668c-0.092-0.108-0.223-0.137-0.374-0.112
				c-0.275,0.044-0.633,0.262-0.923,0.479c-0.455,0.256-18.736,6.996-29.657,11.017c-4.881,1.797-8.731,3.216-9.343,3.45
				c-0.885,0.336-1.414,0.752-1.576,1.221c-0.129,0.377,0.033,0.647,0.042,0.659c0.463,1.19,0.854,1.115,1.507,0.864
				c0.11-0.039,0.23-0.084,0.366-0.125c0.817-0.247,33.18-11.185,34.558-11.646c0.446-0.185,1.692-0.604,2.187-0.37
				c0.568,0.269,1.425,1.836,1.76,2.612c1.591,3.692,2.362,6.42,1.938,6.796c-0.137,0.119-0.677,0.327-2.772-0.312
				c-1.19-0.363-2.415-0.872-2.708-1.024c-0.053-0.031-6.091-2.979-7.263-2.591c-0.106,0.035-0.187,0.101-0.229,0.19
				c-0.396,0.834,0.629,2.221,1.812,3.824l0.311,0.418c0.969,1.323,2.166,2.726,2.646,3.274c-0.947-0.005-3.662-0.014-4.07,0.017
				c-0.038,0.006-0.102,0.013-0.17,0.021c-0.266,0.042-0.713,0.16-0.965,0.487c-0.162,0.21-0.216,0.468-0.16,0.764
				c0.106,0.559,1.001,1.277,1.948,2.038c0.156,0.13,0.312,0.259,0.466,0.384c-0.043,0.025-0.083,0.061-0.133,0.088
				c-1.084,0.76-2.572,1.8-2.658,2.649c-0.021,0.218,0.041,0.409,0.196,0.569c0.705,0.748,3.127-0.004,7.604-2.355
				c3.353-1.764,7.99-5.053,8.036-5.083c1.002-0.71,2.379-2.59,2.162-4.369c-0.215-1.693-3.658-11.107-4.03-12.124
				C745.982,724.979,745.994,724.966,746.015,724.956z"/>
			<g>
				<path fill="#727272" d="M706.07,739.569c0.055-0.116,0.061-0.245,0.02-0.368c-0.084-0.248-0.355-0.383-0.618-0.292
					c-0.12,0.045-0.218,0.134-0.271,0.248c-0.057,0.116-0.059,0.247-0.019,0.369c0.077,0.217,0.307,0.348,0.531,0.312
					c0.028-0.005,0.062-0.011,0.089-0.021C705.924,739.773,706.021,739.686,706.07,739.569z"/>
				<path fill="#727272" d="M749.727,737.148c-0.194-1.592-3.448-10.524-3.97-11.94c-0.149,0.106-0.329,0.176-0.499,0.184
					c-0.207,0.02-0.384-0.057-0.497-0.197c-0.155-0.2-0.345-0.537-0.477-0.79l-0.021,0.064l-35.671,12.688
					c-1.781,0.658-2.992,1.104-3.311,1.228c-0.987,0.377-1.307,0.771-1.4,1.032c-0.087,0.248,0.005,0.417,0.021,0.447
					c0.396,1.001,0.599,0.925,1.145,0.718c0.117-0.042,0.239-0.089,0.381-0.132c0.189-0.057,2.105-0.695,4.949-1.651
					c0.4-1.054,1.64-1.48,1.692-1.502c1.149-0.432,28.237-10.589,31.026-9.608c0.738,0.258,1.613,2.342,1.709,2.572
					c0.083,0.196,2.146,4.846,2.512,6.659c0.527,2.649-2.576,4.562-3.826,5.063c-1.062,0.425-5.229,0.317-5.398,0.346l-0.003,0.001
					c-0.141,0.021-3.907-0.089-4.38-0.053c-0.322,0.028-0.744,0.072-0.936,0.334c-0.109,0.145-0.147,0.318-0.106,0.531
					c0.086,0.451,1.019,1.202,1.843,1.865c0.551,0.449,1.077,0.872,1.41,1.235c0.432,0.481,0.593,0.811,0.504,1.031
					c-0.055,0.135-0.185,0.188-0.254,0.188l-0.018-0.296c0.001,0,0.062-0.152-0.452-0.725c-0.167-0.196-0.403-0.404-0.671-0.632
					c-0.067,0.047-0.13,0.092-0.2,0.142c-0.921,0.646-2.463,1.723-2.535,2.438c-0.017,0.131,0.028,0.242,0.117,0.341
					c0.399,0.424,1.986,0.35,7.253-2.421c2.062-1.084,4.62-2.748,6.279-3.868c-3.021,0.646-9.435,0.513-11.691,0.466
					c-0.423-0.009-0.756-0.018-0.805-0.014l-0.021-0.144l-0.049-0.141c0.006-0.004,0.01-0.004,0.026-0.007
					c0.049-0.009,0.183-0.003,0.854,0.009c2.493,0.058,10.071,0.218,12.443-0.686c0.59-0.41,0.958-0.672,0.972-0.68
					C748.487,740.67,749.923,738.876,749.727,737.148z M706.34,739.692c-0.087,0.188-0.244,0.329-0.438,0.396
					c-0.408,0.147-0.851-0.07-0.991-0.468c-0.068-0.195-0.054-0.405,0.029-0.592c0.088-0.188,0.242-0.33,0.438-0.398
					c0.041-0.016,0.095-0.028,0.144-0.036c0.364-0.058,0.722,0.153,0.849,0.503C706.438,739.295,706.43,739.506,706.34,739.692z"/>
				<path fill="#727272" d="M710.751,738.659c9.646-3.244,28.956-9.767,29.21-9.854c0.169-0.066,1.71-0.689,2.411-0.356
					c0.731,0.347,1.642,2.148,1.904,2.764c1.021,2.376,2.624,6.46,1.858,7.128c-0.934,0.813-5.459-1.112-5.808-1.301
					c-0.688-0.364-6.104-2.889-7.034-2.571c-0.019,0.005-0.051,0.015-0.059,0.032c-0.321,0.68,0.701,2.068,1.785,3.533l0.31,0.418
					c1.12,1.525,2.543,3.156,2.807,3.451c0.53,0.016,4.293,0.119,5.226-0.261c1.104-0.438,4.145-2.261,3.658-4.695
					c-0.361-1.788-2.467-6.533-2.494-6.591c-0.249-0.601-1.019-2.214-1.533-2.396c-2.697-0.951-30.552,9.504-30.837,9.609
					C712.146,737.572,711.19,737.908,710.751,738.659z"/>
				<path fill="#727272" d="M744.015,724.236l0.097-0.253c-0.955,0.394-5.021,1.911-11.935,4.472L744.015,724.236z"/>
				<path fill="#727272" d="M745.748,724.803c0.104-0.179-0.304-1.055-0.527-1.337c-0.037-0.051-0.348,0.021-0.885,0.414
					l0.045,0.097c0.004,0.013,0.354,0.73,0.595,1.036c0.055,0.068,0.144,0.099,0.246,0.091
					C745.44,725.091,745.671,724.936,745.748,724.803z"/>
				<path fill="#727272" d="M746.003,724.953c0.234-0.399-0.417-1.497-0.547-1.666c-0.091-0.108-0.223-0.137-0.377-0.113
					c-0.272,0.043-0.63,0.264-0.92,0.479c-0.455,0.254-18.738,6.996-29.656,11.014c-4.882,1.8-8.733,3.219-9.345,3.451
					c-0.884,0.338-1.414,0.752-1.574,1.221c-0.129,0.376,0.034,0.649,0.041,0.66c0.464,1.19,0.854,1.112,1.507,0.862
					c0.111-0.036,0.231-0.083,0.365-0.124c0.819-0.246,33.18-11.185,34.559-11.646c0.448-0.185,1.694-0.604,2.188-0.369
					c0.568,0.269,1.425,1.835,1.76,2.61c1.591,3.696,2.364,6.421,1.939,6.801c-0.14,0.119-0.677,0.326-2.773-0.312
					c-1.19-0.364-2.414-0.872-2.707-1.024c-0.054-0.032-6.087-2.979-7.263-2.591c-0.108,0.031-0.188,0.102-0.231,0.188
					c-0.396,0.835,0.63,2.226,1.815,3.828l0.308,0.422c0.973,1.327,2.167,2.731,2.648,3.282c0.179,0.002,0.301,0.02,0.327,0.021
					l0.004,0.321c0,0,0.005,0.064,0.002,0.064l0.004-0.001c0.171-0.026,4.343,0.08,5.398-0.346c1.24-0.495,4.346-2.445,3.818-5.098
					c-0.36-1.812-2.418-6.439-2.506-6.64c-0.096-0.231-0.968-2.311-1.709-2.568c-2.789-0.976-29.877,9.188-31.025,9.619
					c-0.052,0.02-1.291,0.449-1.691,1.502c-2.844,0.958-4.763,1.603-4.949,1.653c-0.138,0.04-0.264,0.093-0.382,0.133
					c-0.55,0.207-0.754,0.285-1.146-0.717c-0.015-0.03-0.108-0.2-0.021-0.445c0.098-0.266,0.417-0.658,1.4-1.034
					c0.318-0.121,1.529-0.567,3.312-1.228l35.669-12.687l0.02-0.065c0.135,0.251,0.322,0.588,0.479,0.789
					c0.114,0.143,0.289,0.213,0.496,0.198c0.169-0.013,0.349-0.081,0.498-0.184c-0.038-0.116-0.068-0.187-0.072-0.193l0.275-0.104
					c0.006,0.016,0.014,0.042,0.033,0.074C745.982,724.979,745.994,724.966,746.003,724.953z M710.74,738.67
					c0.441-0.756,1.396-1.094,1.409-1.098c0.283-0.104,28.139-10.562,30.836-9.613c0.521,0.182,1.286,1.796,1.532,2.4
					c0.026,0.056,2.138,4.805,2.492,6.589c0.483,2.438-2.554,4.254-3.654,4.698c-0.931,0.371-4.694,0.272-5.229,0.26
					c-0.26-0.295-1.682-1.924-2.802-3.451l-0.312-0.418c-1.084-1.47-2.104-2.854-1.786-3.535c0.009-0.013,0.039-0.026,0.061-0.03
					c0.936-0.316,6.352,2.206,7.037,2.57c0.347,0.188,4.871,2.108,5.805,1.302c0.768-0.668-0.835-4.754-1.859-7.129
					c-0.262-0.609-1.173-2.418-1.902-2.763c-0.698-0.335-2.239,0.287-2.412,0.355C739.705,728.893,720.39,735.421,710.74,738.67z
					 M744.114,723.987l-0.098,0.254l-11.842,4.214C739.096,725.895,743.159,724.376,744.114,723.987z M745.753,724.802
					c-0.076,0.133-0.306,0.288-0.53,0.302c-0.107,0.009-0.19-0.021-0.246-0.092c-0.243-0.304-0.59-1.021-0.594-1.036l-0.045-0.096
					c0.533-0.389,0.847-0.465,0.888-0.414C745.442,723.744,745.855,724.624,745.753,724.802z"/>
				<path fill="#727272" d="M735.021,745.809c-0.069-0.067-0.152-0.133-0.232-0.19c-0.045,0.024-0.085,0.061-0.134,0.089
					c-1.085,0.761-2.572,1.8-2.658,2.646c-0.021,0.218,0.04,0.41,0.197,0.571c0.707,0.748,3.124-0.002,7.604-2.354
					c3.352-1.763,7.989-5.053,8.035-5.084c1-0.71,2.379-2.592,2.162-4.368c-0.213-1.69-3.66-11.109-4.035-12.126
					c-0.058,0.09-0.135,0.163-0.229,0.226c0.519,1.416,3.772,10.351,3.972,11.939c0.21,1.721-1.227,3.521-2.041,4.095
					c-0.009,0.008-0.38,0.271-0.974,0.682c0.006-0.001,0.015-0.008,0.021-0.009l0.104,0.271c-0.242,0.095-0.536,0.171-0.875,0.247
					c-1.665,1.122-4.222,2.785-6.28,3.87c-5.268,2.769-6.853,2.843-7.255,2.415c-0.096-0.1-0.129-0.209-0.115-0.341
					c0.071-0.721,1.612-1.799,2.534-2.438C734.896,745.896,734.959,745.854,735.021,745.809z"/>
				<path fill="#727272" d="M745.972,724.991c-0.013-0.031-0.021-0.062-0.026-0.075l-0.274,0.104
					c0.003,0.009,0.032,0.08,0.072,0.193C745.834,725.151,745.914,725.077,745.972,724.991z"/>
				<path fill="#727272" d="M737.952,742.146c-0.002,0-0.083-0.091-0.213-0.239c-0.949-0.005-3.665-0.017-4.075,0.017
					c-0.035,0.004-0.099,0.01-0.168,0.021c-0.264,0.042-0.711,0.158-0.962,0.487c-0.163,0.208-0.218,0.468-0.161,0.765
					c0.101,0.559,1,1.274,1.948,2.039c0.153,0.125,0.312,0.257,0.465,0.382c0.074-0.049,0.146-0.102,0.208-0.146l0.17,0.237
					c-0.043,0.03-0.093,0.071-0.139,0.1c0.267,0.228,0.494,0.438,0.671,0.633c0.513,0.566,0.451,0.723,0.451,0.723l0.019,0.297
					c0.067-0.004,0.198-0.053,0.254-0.188c0.088-0.223-0.073-0.549-0.505-1.032c-0.327-0.363-0.854-0.786-1.411-1.235
					c-0.822-0.663-1.751-1.414-1.841-1.864c-0.039-0.214-0.008-0.388,0.106-0.531c0.193-0.263,0.604-0.37,0.925-0.396
					c0.466-0.036,4.221-0.017,4.369-0.014l-0.064-0.007L737.952,742.146z"/>
				<path fill="#727272" d="M738.062,741.9c-0.023,0-0.143-0.006-0.324-0.002c0.137,0.147,0.211,0.236,0.214,0.24l0.042,0.049
					l0.062,0.006c0.002,0,0.008,0,0.009,0L738.062,741.9z"/>
				<path fill="#727272" d="M734.999,745.472c-0.067,0.044-0.139,0.098-0.207,0.141c0.078,0.065,0.159,0.131,0.231,0.193
					c0.045-0.029,0.097-0.065,0.141-0.098L734.999,745.472z"/>
				<path fill="#727272" d="M745.938,742.444c0.278-0.193,0.536-0.366,0.757-0.517c-2.371,0.896-9.948,0.736-12.442,0.684
					c-0.672-0.018-0.805-0.018-0.854-0.01c-0.013,0.001-0.019,0.007-0.025,0.01l0.049,0.137l0.021,0.146
					c0.049-0.004,0.383,0.01,0.804,0.014C736.506,742.952,742.918,743.087,745.938,742.444z"/>
				<path fill="#727272" d="M746.703,741.924c-0.223,0.154-0.479,0.323-0.76,0.517c0.336-0.068,0.635-0.147,0.876-0.246
					l-0.104-0.274C746.708,741.921,746.702,741.924,746.703,741.924z"/>
				<path fill="#727272" d="M706.341,739.694c0.089-0.188,0.1-0.397,0.028-0.597c-0.128-0.347-0.482-0.561-0.85-0.503
					c-0.048,0.008-0.097,0.021-0.143,0.036c-0.195,0.07-0.352,0.212-0.438,0.398c-0.089,0.188-0.101,0.396-0.029,0.592
					c0.143,0.396,0.583,0.615,0.991,0.468C706.096,740.021,706.253,739.88,706.341,739.694z M706.079,739.567
					c-0.054,0.113-0.152,0.204-0.273,0.245c-0.025,0.014-0.062,0.021-0.088,0.022c-0.229,0.037-0.454-0.095-0.532-0.312
					c-0.044-0.121-0.036-0.251,0.019-0.368c0.06-0.115,0.149-0.203,0.276-0.247c0.255-0.092,0.525,0.045,0.614,0.29
					C706.137,739.32,706.13,739.452,706.079,739.567z"/>
			</g>
		</g>
		<g id="Cadena_copia_2">
			<path fill="#727272" d="M548.786,736.648c-0.288-2.312-3.646-1.396-3.442,0.071C545.606,738.652,548.949,737.949,548.786,736.648
				z"/>
			<path fill="#727272" d="M544.18,736.525c-0.289-2.312-3.645-1.396-3.438,0.071C541,738.531,544.343,737.828,544.18,736.525z"/>
			<path fill="#727272" d="M553.479,736.367c-0.291-2.312-3.646-1.396-3.438,0.078C550.299,738.371,553.641,737.668,553.479,736.367
				z"/>
			<path fill="#727272" d="M555.868,736.525c0.616-0.951-2.824-0.857-3.198-0.25C552.178,737.068,555.521,737.061,555.868,736.525z"
				/>
			<path fill="#727272" d="M550.775,736.73c0.619-0.947-2.82-0.867-3.199-0.271C547.081,737.26,550.426,737.266,550.775,736.73z"/>
			<path fill="#727272" d="M545.681,736.93c0.621-0.944-2.813-0.871-3.19-0.266C541.987,737.457,545.333,737.461,545.681,736.93z"/>
			<path fill="#727272" d="M525.151,736.307c-0.04-2.332-3.479-1.771-3.438-0.295C521.773,737.955,525.174,737.617,525.151,736.307z
				"/>
			<path fill="#727272" d="M520.946,736.045c-0.146-2.326-3.558-1.619-3.441-0.139C517.646,737.846,521.027,737.355,520.946,736.045
				z"/>
			<path fill="#727272" d="M529.845,736.533c-0.039-2.332-3.473-1.777-3.432-0.295C526.468,738.182,529.866,737.842,529.845,736.533
				z"/>
			<path fill="#727272" d="M534.538,736.758c-0.036-2.33-3.472-1.771-3.431-0.293C531.161,738.408,534.561,738.07,534.538,736.758z"
				/>
			<path fill="#727272" d="M539.752,736.721c-0.038-2.33-3.472-1.771-3.431-0.293C536.375,738.369,539.774,738.031,539.752,736.721z
				"/>
			<path fill="#727272" d="M541.752,736.791c0.587-0.971-2.849-0.77-3.206-0.154C538.079,737.447,541.424,737.338,541.752,736.791z"
				/>
			<path fill="#727272" d="M537.059,736.564c0.594-0.978-2.85-0.771-3.207-0.152C533.386,737.221,536.729,737.111,537.059,736.564z"
				/>
			<path fill="#727272" d="M532.237,736.73c0.587-0.976-2.854-0.771-3.205-0.15C528.562,737.387,531.908,737.277,532.237,736.73z"/>
			<path fill="#727272" d="M527.119,736.602c0.719-0.877-2.71-1.168-3.152-0.604C523.39,736.73,526.716,737.096,527.119,736.602z"/>
			<path fill="#727272" d="M522.418,736.541c0.68-0.908-2.76-1.047-3.176-0.467C518.698,736.834,522.038,737.051,522.418,736.541z"
				/>
			<path fill="#727272" d="M501.746,736.262c-0.1-2.328-3.521-1.688-3.438-0.207C498.41,737.996,501.801,737.572,501.746,736.262z"
				/>
			<path fill="#727272" d="M497.164,735.76c-0.098-2.33-3.518-1.688-3.436-0.209C493.83,737.494,497.22,737.07,497.164,735.76z"/>
			<path fill="#727272" d="M506.443,736.369c-0.104-2.328-3.521-1.688-3.438-0.207C503.109,738.105,506.497,737.68,506.443,736.369z
				"/>
			<path fill="#727272" d="M511.142,736.479c-0.098-2.325-3.519-1.688-3.438-0.209C507.807,738.213,511.196,737.789,511.142,736.479
				z"/>
			<path fill="#727272" d="M516.354,736.309c-0.1-2.33-3.519-1.688-3.438-0.207C513.018,738.043,516.407,737.619,516.354,736.309z"
				/>
			<path fill="#727272" d="M518.354,736.328c0.562-0.984-2.861-0.697-3.201-0.072C514.698,737.078,518.038,736.881,518.354,736.328z
				"/>
			<path fill="#727272" d="M513.655,736.221c0.562-0.979-2.867-0.69-3.208-0.063C510,736.971,513.34,736.773,513.655,736.221z"/>
			<path fill="#727272" d="M508.839,736.508c0.562-0.979-2.868-0.699-3.208-0.072C505.185,737.256,508.524,737.062,508.839,736.508z
				"/>
			<path fill="#727272" d="M503.721,736.51c0.696-0.895-2.733-1.102-3.166-0.524C499.995,736.73,503.328,737.014,503.721,736.51z"/>
			<path fill="#727272" d="M498.627,736.283c0.697-0.896-2.74-1.104-3.165-0.527C494.902,736.504,498.235,736.787,498.627,736.283z"
				/>
			<path fill="#727272" d="M610.076,735.422c-0.422-2.293-3.72-1.18-3.438,0.277C607.018,737.605,610.314,736.711,610.076,735.422z"
				/>
			<path fill="#727272" d="M605.471,735.566c-0.422-2.293-3.719-1.185-3.432,0.271C602.412,737.752,605.709,736.855,605.471,735.566
				z"/>
			<path fill="#727272" d="M614.744,735.203c-0.424-2.291-3.721-1.178-3.438,0.275C611.688,737.389,614.981,736.492,614.744,735.203
				z"/>
			<path fill="#727272" d="M617.008,735.246c0.615-0.953-2.824-0.857-3.199-0.252C613.317,735.789,616.663,735.779,617.008,735.246z
				"/>
			<path fill="#727272" d="M612.067,735.389c0.562-0.979-2.867-0.703-3.21-0.08C608.409,736.131,611.749,735.943,612.067,735.389z"
				/>
			<path fill="#727272" d="M606.992,735.881c0.562-0.979-2.866-0.707-3.207-0.08C603.335,736.621,606.676,736.434,606.992,735.881z"
				/>
			<path fill="#727272" d="M586.462,736.447c-0.176-2.326-3.571-1.574-3.443-0.103C583.184,738.287,586.56,737.754,586.462,736.447z
				"/>
			<path fill="#727272" d="M581.867,736.094c-0.175-2.326-3.571-1.572-3.443-0.096C578.59,737.936,581.965,737.4,581.867,736.094z"
				/>
			<path fill="#727272" d="M591.159,736.4c-0.173-2.324-3.569-1.572-3.442-0.101C587.884,738.242,591.257,737.707,591.159,736.4z"/>
			<path fill="#727272" d="M595.858,736.355c-0.178-2.324-3.569-1.574-3.441-0.103C592.582,738.197,595.956,737.664,595.858,736.355
				z"/>
			<path fill="#727272" d="M601.062,736.016c-0.18-2.317-3.569-1.567-3.441-0.094C597.785,737.857,601.159,737.324,601.062,736.016z
				"/>
			<path fill="#727272" d="M603.062,735.971c0.522-1.002-2.896-0.604-3.217,0.033C599.434,736.84,602.766,736.535,603.062,735.971z"
				/>
			<path fill="#727272" d="M598.363,736.016c0.523-1.002-2.896-0.604-3.21,0.033C594.734,736.885,598.065,736.58,598.363,736.016z"
				/>
			<path fill="#727272" d="M593.56,736.461c0.529-1.004-2.889-0.604-3.208,0.033C589.93,737.33,593.263,737.025,593.56,736.461z"/>
			<path fill="#727272" d="M588.442,736.629c0.667-0.918-2.772-1.01-3.188-0.424C584.727,736.971,588.068,737.145,588.442,736.629z"
				/>
			<path fill="#727272" d="M583.345,736.57c0.668-0.918-2.771-1.019-3.182-0.433C579.629,736.912,582.972,737.086,583.345,736.57z"
				/>
			<path fill="#727272" d="M562.671,736.557c-0.13-2.328-3.54-1.645-3.438-0.164C559.357,738.332,562.742,737.865,562.671,736.557z"
				/>
			<path fill="#727272" d="M558.083,736.51c-0.128-2.328-3.539-1.645-3.438-0.164C554.771,738.285,558.155,737.818,558.083,736.51z"
				/>
			<path fill="#727272" d="M567.369,736.604c-0.127-2.321-3.539-1.645-3.439-0.157C564.058,738.381,567.439,737.912,567.369,736.604
				z"/>
			<path fill="#727272" d="M572.068,736.652c-0.128-2.33-3.54-1.646-3.439-0.164C568.756,738.428,572.14,737.961,572.068,736.652z"
				/>
			<path fill="#727272" d="M577.276,736.416c-0.128-2.33-3.538-1.646-3.438-0.164C573.964,738.191,577.348,737.725,577.276,736.416z
				"/>
			<path fill="#727272" d="M579.276,736.408c0.55-0.99-2.876-0.66-3.207-0.029C575.633,737.205,578.97,736.967,579.276,736.408z"/>
			<path fill="#727272" d="M574.578,736.363c0.549-0.994-2.875-0.662-3.208-0.031C570.934,737.158,574.271,736.92,574.578,736.363z"
				/>
			<path fill="#727272" d="M569.767,736.711c0.556-0.992-2.877-0.664-3.209-0.031C566.122,737.506,569.459,737.27,569.767,736.711z"
				/>
			<path fill="#727272" d="M564.648,736.779c0.685-0.906-2.761-1.068-3.18-0.49C560.926,737.045,564.263,737.287,564.648,736.779z"
				/>
			<path fill="#727272" d="M560.553,736.617c0.688-0.902-2.755-1.064-3.172-0.488C556.831,736.885,560.167,737.127,560.553,736.617z
				"/>
			<path fill="#727272" d="M478.084,735.137c0.013-2.33-3.434-1.85-3.424-0.36C474.672,736.713,478.078,736.449,478.084,735.137z"/>
			<path fill="#727272" d="M473.532,734.422c0.013-2.332-3.438-1.854-3.424-0.369C470.121,735.998,473.525,735.732,473.532,734.422z
				"/>
			<path fill="#727272" d="M482.771,735.465c0.014-2.332-3.438-1.852-3.43-0.367C479.361,737.041,482.766,736.775,482.771,735.465z"
				/>
			<path fill="#727272" d="M487.461,735.793c0.012-2.332-3.436-1.854-3.424-0.369C484.049,737.369,487.455,737.105,487.461,735.793z
				"/>
			<path fill="#727272" d="M492.674,735.867c0.012-2.332-3.434-1.854-3.424-0.367C489.262,737.443,492.668,737.178,492.674,735.867z
				"/>
			<path fill="#727272" d="M494.671,735.98c0.608-0.957-2.831-0.83-3.2-0.228C490.986,736.559,494.33,736.518,494.671,735.98z"/>
			<path fill="#727272" d="M489.983,735.654c0.604-0.957-2.832-0.832-3.2-0.229C486.298,736.23,489.643,736.189,489.983,735.654z"/>
			<path fill="#727272" d="M485.159,735.715c0.604-0.957-2.832-0.832-3.2-0.223C481.474,736.291,484.818,736.252,485.159,735.715z"
				/>
			<path fill="#727272" d="M480.046,735.477c0.737-0.854-2.686-1.227-3.136-0.676C476.314,735.523,479.632,735.961,480.046,735.477z
				"/>
			<path fill="#727272" d="M474.969,735.014c0.737-0.854-2.686-1.227-3.138-0.676C471.236,735.059,474.555,735.498,474.969,735.014z
				"/>
			<path fill="#727272" d="M454.562,733.332c0.05-2.33-3.403-1.904-3.418-0.42C451.127,734.855,454.536,734.643,454.562,733.332z"/>
			<path fill="#727272" d="M450.021,733.166c0.05-2.332-3.404-1.906-3.416-0.422C446.586,734.689,449.996,734.477,450.021,733.166z"
				/>
			<path fill="#727272" d="M459.246,733.732c0.048-2.33-3.404-1.904-3.419-0.427C455.809,735.256,459.219,735.045,459.246,733.732z"
				/>
			<path fill="#727272" d="M463.928,734.135c0.049-2.332-3.397-1.906-3.418-0.422C460.492,735.656,463.902,735.445,463.928,734.135z
				"/>
			<path fill="#727272" d="M469.14,734.291c0.048-2.332-3.398-1.906-3.419-0.422C465.702,735.814,469.113,735.602,469.14,734.291z"
				/>
			<path fill="#727272" d="M471.136,734.436c0.621-0.942-2.812-0.875-3.198-0.27C467.441,734.955,470.785,734.967,471.136,734.436z"
				/>
			<path fill="#727272" d="M466.453,734.035c0.623-0.947-2.819-0.875-3.197-0.273C462.758,734.555,466.104,734.566,466.453,734.035z
				"/>
			<path fill="#727272" d="M461.628,734.021c0.624-0.947-2.817-0.875-3.196-0.271C457.934,734.539,461.279,734.553,461.628,734.021z
				"/>
			<path fill="#727272" d="M456.52,733.701c0.752-0.854-2.666-1.271-3.125-0.729C452.787,733.689,456.097,734.18,456.52,733.701z"/>
			<path fill="#727272" d="M452.367,733.477c0.62-0.942-2.82-0.875-3.198-0.271C448.672,733.998,452.018,734.008,452.367,733.477z"
				/>
			<path fill="#727272" d="M430.703,731.654c0.098-2.33-3.365-1.979-3.408-0.492C427.236,733.105,430.649,732.965,430.703,731.654z"
				/>
			<path fill="#727272" d="M435.377,732.152c0.096-2.33-3.365-1.979-3.409-0.494C431.909,733.602,435.322,733.461,435.377,732.152z"
				/>
			<path fill="#727272" d="M440.049,732.65c0.098-2.33-3.365-1.979-3.408-0.494C436.581,734.1,439.994,733.959,440.049,732.65z"/>
			<path fill="#727272" d="M445.256,732.912c0.098-2.33-3.363-1.979-3.408-0.49C441.788,734.363,445.201,734.223,445.256,732.912z"
				/>
			<path fill="#727272" d="M447.248,733.1c0.643-0.936-2.799-0.936-3.191-0.34C443.545,733.541,446.889,733.623,447.248,733.1z"/>
			<path fill="#727272" d="M442.575,732.602c0.642-0.934-2.8-0.934-3.19-0.338C438.871,733.045,442.216,733.127,442.575,732.602z"/>
			<path fill="#727272" d="M437.752,732.488c0.643-0.938-2.799-0.938-3.189-0.34C434.047,732.932,437.393,733.014,437.752,732.488z"
				/>
			<path fill="#727272" d="M432.65,732.064c0.77-0.834-2.645-1.324-3.11-0.791C428.921,731.975,432.219,732.533,432.65,732.064z"/>
			<path fill="#727272" d="M416.384,730.77c0.045,2.332,3.479,1.771,3.438,0.283C419.757,729.109,416.357,729.459,416.384,730.77z"
				/>
			<path fill="#727272" d="M422.092,731.117c0.045,2.332,3.479,1.77,3.438,0.283C425.464,729.459,422.065,729.809,422.092,731.117z"
				/>
			<path fill="#727272" d="M411.688,730.557c0.052,2.332,3.479,1.771,3.438,0.283C415.061,728.898,411.664,729.246,411.688,730.557z
				"/>
			<path fill="#727272" d="M406.993,730.344c0.046,2.332,3.479,1.771,3.433,0.285C410.366,728.684,406.969,729.033,406.993,730.344z
				"/>
			<path fill="#727272" d="M401.781,730.398c0.045,2.323,3.479,1.768,3.433,0.276C405.153,728.736,401.754,729.086,401.781,730.398z
				"/>
			<path fill="#727272" d="M404.475,730.545c-0.583,0.971,2.854,0.762,3.206,0.146C408.146,729.879,404.803,729.998,404.475,730.545
				z"/>
			<path fill="#727272" d="M409.295,730.365c-0.583,0.971,2.854,0.762,3.206,0.145C412.967,729.699,409.623,729.818,409.295,730.365
				z"/>
			<path fill="#727272" d="M414.415,730.48c-0.718,0.881,2.712,1.155,3.15,0.602C418.145,730.342,414.816,729.984,414.415,730.48z"
				/>
			<path fill="#727272" d="M419.501,730.818c-0.716,0.879,2.714,1.162,3.153,0.6C423.23,730.68,419.903,730.322,419.501,730.818z"/>
			<path fill="#727272" d="M425.056,731.107c-0.715,0.879,2.714,1.153,3.152,0.598C428.786,730.971,425.458,730.611,425.056,731.107
				z"/>
		</g>
		<g id="Cadena_copia_3">
			<path fill="#727272" d="M370.526,720.814c1.247-1.979-1.936-3.396-2.706-2.136C366.798,720.34,369.826,721.92,370.526,720.814z"
				/>
			<path fill="#727272" d="M366.427,717.781c1.615-1.687-1.213-3.709-2.229-2.625C362.867,716.572,365.518,718.727,366.427,717.781z
				"/>
			<path fill="#727272" d="M363.066,713.729c1.604-1.688-1.24-3.69-2.25-2.604C359.5,712.549,362.167,714.682,363.066,713.729z"/>
			<path fill="#727272" d="M359.712,709.871c2.041-1.125-0.055-3.902-1.346-3.17C356.673,707.658,358.564,710.504,359.712,709.871z"
				/>
			<path fill="#727272" d="M357.308,706.25c2.229-0.689,0.736-3.832-0.676-3.377C354.781,703.467,356.054,706.637,357.308,706.25z"
				/>
			<path fill="#727272" d="M355.712,702.119c2.205-0.758,0.617-3.855-0.781-3.355C353.099,699.418,354.474,702.545,355.712,702.119z
				"/>
			<path fill="#727272" d="M348.294,679.449c2.205-0.756,0.615-3.855-0.781-3.355C345.681,676.748,347.054,679.875,348.294,679.449z
				"/>
			<path fill="#727272" d="M347.47,674.916c2.205-0.758,0.615-3.855-0.779-3.355C344.857,672.215,346.23,675.342,347.47,674.916z"/>
			<path fill="#727272" d="M349.531,683.984c2.205-0.765,0.615-3.855-0.781-3.355C346.917,681.283,348.291,684.41,349.531,683.984z"
				/>
			<path fill="#727272" d="M350.767,688.518c2.205-0.758,0.615-3.854-0.779-3.354C348.154,685.816,349.527,688.943,350.767,688.518z
				"/>
			<path fill="#727272" d="M352.416,693.463c2.205-0.756,0.617-3.852-0.781-3.352C349.802,690.762,351.175,693.891,352.416,693.463z
				"/>
			<path fill="#727272" d="M353.652,697.998c2.205-0.758,0.615-3.855-0.781-3.355C351.039,695.297,352.412,698.424,353.652,697.998z
				"/>
			<path fill="#727272" d="M368.019,719.016c1.1-0.297-1.525-2.521-2.216-2.315C364.906,716.959,367.404,719.184,368.019,719.016z"
				/>
			<path fill="#727272" d="M372.923,722.072c1.022-0.492-1.968-2.199-2.603-1.875C369.486,720.621,372.352,722.35,372.923,722.072z"
				/>
			<path fill="#727272" d="M379.795,725.781c0.791-2.195-2.617-2.896-3.103-1.492C376.053,726.125,379.351,727.014,379.795,725.781z
				"/>
			<path fill="#727272" d="M375.138,723.707c1.213-1.99-1.98-3.357-2.744-2.08C371.4,723.299,374.455,724.828,375.138,723.707z"/>
			<path fill="#727272" d="M376.958,724.568c1.003-0.527-2.042-2.14-2.665-1.787C373.474,723.232,376.394,724.865,376.958,724.568z"
				/>
			<path fill="#727272" d="M382.409,726.492c0.892-0.703-2.397-1.729-2.946-1.271C378.739,725.818,381.911,726.887,382.409,726.492z
				"/>
			<path fill="#727272" d="M389.837,728.859c0.369-2.312-3.11-2.357-3.326-0.896C386.225,729.893,389.63,730.152,389.837,728.859z"
				/>
			<path fill="#727272" d="M384.875,727.689c0.821-2.188-2.577-2.937-3.083-1.535C381.126,727.982,384.413,728.916,384.875,727.689z
				"/>
			<path fill="#727272" d="M386.825,728.195c0.887-0.703-2.403-1.717-2.951-1.267C383.152,727.533,386.325,728.592,386.825,728.195z
				"/>
			<path fill="#727272" d="M392.538,729.07c0.745-0.857-2.676-1.244-3.131-0.697C388.806,729.094,392.122,729.551,392.538,729.07z"
				/>
			<path fill="#727272" d="M364.49,715.875c1.12-0.178-1.249-2.676-1.951-2.551C361.619,713.49,363.861,715.975,364.49,715.875z"/>
			<path fill="#727272" d="M361.054,711.787c1.133,0.062-0.645-2.881-1.355-2.908C358.763,708.842,360.419,711.75,361.054,711.787z"
				/>
			<path fill="#727272" d="M358.582,708.076c1.131,0.062-0.645-2.881-1.357-2.908C356.291,705.131,357.945,708.039,358.582,708.076z
				"/>
			<path fill="#727272" d="M356.677,704.043c1.104,0.258-0.146-2.947-0.846-3.096C354.917,700.754,356.056,703.898,356.677,704.043z
				"/>
			<path fill="#727272" d="M354.617,699.922c1.104,0.258-0.148-2.949-0.85-3.096C352.855,696.631,353.996,699.777,354.617,699.922z"
				/>
			<path fill="#727272" d="M352.966,695.387c1.105,0.258-0.146-2.942-0.844-3.094C351.207,692.098,352.347,695.242,352.966,695.387z
				"/>
			<path fill="#727272" d="M351.73,690.854c1.104,0.265-0.146-2.94-0.848-3.096C349.97,687.564,351.111,690.709,351.73,690.854z"/>
			<path fill="#727272" d="M350.082,686.32c1.105,0.256-0.148-2.949-0.846-3.103C348.322,683.031,349.462,686.176,350.082,686.32z"
				/>
			<path fill="#727272" d="M348.621,681.414c1.057,0.412,0.271-2.939-0.396-3.188C347.347,677.906,348.027,681.182,348.621,681.414z
				"/>
			<path fill="#727272" d="M347.384,676.467c1.059,0.414,0.273-2.938-0.396-3.184C346.111,672.959,346.791,676.236,347.384,676.467z
				"/>
			<path fill="#727272" d="M343.789,656.246c2.273-0.521,1.027-3.766-0.414-3.42C341.482,653.277,342.509,656.535,343.789,656.246z"
				/>
			<path fill="#727272" d="M343.458,651.648c2.273-0.521,1.027-3.771-0.416-3.42C341.152,648.682,342.179,651.939,343.458,651.648z"
				/>
			<path fill="#727272" d="M344.529,660.885c2.271-0.514,1.025-3.762-0.416-3.418C342.222,657.918,343.25,661.176,344.529,660.885z"
				/>
			<path fill="#727272" d="M345.269,665.525c2.273-0.521,1.027-3.769-0.415-3.418C342.962,662.559,343.99,665.816,345.269,665.525z"
				/>
			<path fill="#727272" d="M346.373,670.621c2.273-0.514,1.029-3.762-0.416-3.418C344.068,667.654,345.095,670.912,346.373,670.621z
				"/>
			<path fill="#727272" d="M346.712,672.594c1.07,0.375,0.172-2.947-0.506-3.17C345.318,669.133,346.113,672.383,346.712,672.594z"
				/>
			<path fill="#727272" d="M345.974,667.953c1.07,0.375,0.17-2.947-0.508-3.17C344.58,664.492,345.373,667.742,345.974,667.953z"/>
			<path fill="#727272" d="M344.824,663.268c1.068,0.375,0.172-2.938-0.506-3.168C343.429,659.807,344.222,663.057,344.824,663.268z
				"/>
			<path fill="#727272" d="M343.902,658.232c1.006,0.521,0.588-2.896-0.053-3.209C343.013,654.607,343.335,657.938,343.902,658.232z
				"/>
			<path fill="#727272" d="M343.205,653.182c1.006,0.525,0.59-2.893-0.049-3.209C342.318,649.557,342.64,652.889,343.205,653.182z"
				/>
			<path fill="#727272" d="M340.162,632.732c2.283-0.478,1.102-3.744-0.346-3.433C337.916,629.719,338.878,632.998,340.162,632.732z
				"/>
			<path fill="#727272" d="M339.923,628.129c2.283-0.469,1.104-3.742-0.348-3.424C337.675,625.117,338.638,628.395,339.923,628.129z
				"/>
			<path fill="#727272" d="M340.81,637.387c2.283-0.471,1.104-3.742-0.348-3.426C338.562,634.373,339.525,637.65,340.81,637.387z"/>
			<path fill="#727272" d="M341.457,642.041c2.285-0.471,1.104-3.744-0.346-3.426C339.21,639.027,340.173,642.305,341.457,642.041z"
				/>
			<path fill="#727272" d="M342.46,647.158c2.285-0.479,1.104-3.744-0.346-3.426C340.214,644.145,341.177,647.422,342.46,647.158z"
				/>
			<path fill="#727272" d="M342.763,649.135c1.062,0.396,0.229-2.938-0.443-3.178C341.438,645.648,342.166,648.912,342.763,649.135z
				"/>
			<path fill="#727272" d="M342.115,644.48c1.062,0.396,0.229-2.939-0.445-3.183C340.789,640.994,341.517,644.258,342.115,644.48z"
				/>
			<path fill="#727272" d="M341.058,639.773c1.062,0.395,0.23-2.943-0.441-3.185C339.732,636.287,340.46,639.551,341.058,639.773z"
				/>
			<path fill="#727272" d="M340.234,634.721c0.996,0.545,0.646-2.881,0.016-3.209C339.419,631.08,339.675,634.416,340.234,634.721z"
				/>
			<path fill="#727272" d="M339.64,629.658c0.994,0.543,0.646-2.881,0.016-3.209C338.826,626.016,339.08,629.352,339.64,629.658z"/>
			<path fill="#727272" d="M337.474,609.197c2.305-0.361,1.275-3.688-0.188-3.439C335.371,606.082,336.179,609.402,337.474,609.197z
				"/>
			<path fill="#727272" d="M337.451,604.59c2.303-0.363,1.273-3.688-0.188-3.438C335.347,601.475,336.156,604.793,337.451,604.59z"
				/>
			<path fill="#727272" d="M337.904,613.877c2.303-0.361,1.273-3.688-0.188-3.438C335.8,610.764,336.609,614.082,337.904,613.877z"
				/>
			<path fill="#727272" d="M338.332,618.557c2.305-0.354,1.277-3.688-0.186-3.438C336.228,615.443,337.037,618.762,338.332,618.557z
				"/>
			<path fill="#727272" d="M339.095,623.715c2.307-0.363,1.277-3.688-0.186-3.438C336.992,620.6,337.8,623.92,339.095,623.715z"/>
			<path fill="#727272" d="M339.304,625.705c1.043,0.445,0.367-2.93-0.295-3.195C338.142,622.16,338.718,625.455,339.304,625.705z"
				/>
			<path fill="#727272" d="M338.875,621.025c1.043,0.44,0.367-2.937-0.295-3.195C337.712,617.48,338.291,620.775,338.875,621.025z"
				/>
			<path fill="#727272" d="M338.041,616.273c1.041,0.44,0.365-2.937-0.295-3.195C336.878,612.729,337.455,616.023,338.041,616.273z"
				/>
			<path fill="#727272" d="M337.455,611.188c0.969,0.597,0.779-2.848,0.164-3.196C336.81,607.512,336.91,610.857,337.455,611.188z"
				/>
			<path fill="#727272" d="M337.095,606.102c0.971,0.597,0.781-2.846,0.164-3.205C336.453,602.426,336.552,605.771,337.095,606.102z
				"/>
			<path fill="#727272" d="M335.48,585.691c2.309-0.326,1.334-3.666-0.135-3.441C333.425,582.545,334.181,585.875,335.48,585.691z"
				/>
			<path fill="#727272" d="M335.529,581.084c2.309-0.326,1.334-3.668-0.133-3.441C333.474,577.936,334.23,581.268,335.529,581.084z"
				/>
			<path fill="#727272" d="M335.835,590.377c2.309-0.326,1.334-3.666-0.133-3.441C333.781,587.23,334.537,590.561,335.835,590.377z"
				/>
			<path fill="#727272" d="M336.191,595.064c2.309-0.326,1.334-3.67-0.133-3.441C334.136,591.916,334.894,595.248,336.191,595.064z"
				/>
			<path fill="#727272" d="M336.875,600.232c2.309-0.326,1.334-3.666-0.133-3.441C334.82,597.084,335.576,600.416,336.875,600.232z"
				/>
			<path fill="#727272" d="M337.05,602.227c1.037,0.461,0.412-2.924-0.244-3.194C335.945,598.662,336.47,601.967,337.05,602.227z"/>
			<path fill="#727272" d="M336.695,597.539c1.035,0.463,0.412-2.922-0.244-3.199C335.589,593.977,336.113,597.281,336.695,597.539z
				"/>
			<path fill="#727272" d="M335.935,592.775c1.035,0.463,0.412-2.929-0.242-3.199C334.83,589.213,335.353,592.518,335.935,592.775z"
				/>
			<path fill="#727272" d="M335.429,587.682c0.959,0.605,0.824-2.834,0.215-3.194C334.841,583.996,334.888,587.342,335.429,587.682z
				"/>
			<path fill="#727272" d="M335.15,582.592c0.961,0.604,0.824-2.836,0.215-3.203C334.564,578.906,334.613,582.252,335.15,582.592z"
				/>
			<path fill="#727272" d="M333.919,561.771c2.314-0.275,1.408-3.644-0.062-3.441C331.929,558.582,332.617,561.93,333.919,561.771z"
				/>
			<path fill="#727272" d="M334.062,557.166c2.314-0.279,1.408-3.639-0.062-3.443C332.074,553.977,332.761,557.322,334.062,557.166z
				"/>
			<path fill="#727272" d="M334.177,566.465c2.314-0.279,1.41-3.639-0.061-3.438C332.189,563.275,332.876,566.621,334.177,566.465z"
				/>
			<path fill="#727272" d="M334.438,571.156c2.313-0.279,1.409-3.646-0.062-3.443C332.449,567.967,333.136,571.312,334.438,571.156z
				"/>
			<path fill="#727272" d="M335.013,576.338c2.314-0.279,1.41-3.637-0.062-3.443C333.023,573.148,333.712,576.494,335.013,576.338z"
				/>
			<path fill="#727272" d="M335.148,578.334c1.025,0.484,0.475-2.912-0.18-3.203C334.117,574.75,334.574,578.062,335.148,578.334z"
				/>
			<path fill="#727272" d="M334.888,573.643c1.027,0.482,0.477-2.914-0.176-3.196C333.857,570.057,334.314,573.371,334.888,573.643z
				"/>
			<path fill="#727272" d="M334.228,568.863c1.025,0.479,0.475-2.912-0.178-3.203C333.195,565.277,333.652,568.592,334.228,568.863z
				"/>
			<path fill="#727272" d="M333.828,563.76c0.945,0.625,0.883-2.812,0.279-3.197C333.318,560.064,333.294,563.408,333.828,563.76z"
				/>
			<path fill="#727272" d="M333.654,558.664c0.945,0.625,0.883-2.816,0.279-3.195C333.144,554.969,333.123,558.314,333.654,558.664z
				"/>
			<path fill="#727272" d="M333.095,537.865c2.314-0.279,1.408-3.644-0.062-3.443C331.105,534.678,331.792,538.023,333.095,537.865z
				"/>
			<path fill="#727272" d="M333.24,533.26c2.312-0.271,1.408-3.639-0.062-3.438C331.25,530.07,331.938,533.416,333.24,533.26z"/>
			<path fill="#727272" d="M333.353,542.559c2.316-0.271,1.41-3.639-0.061-3.438C331.365,539.369,332.052,542.715,333.353,542.559z"
				/>
			<path fill="#727272" d="M333.613,547.25c2.312-0.279,1.41-3.637-0.062-3.443C331.625,544.061,332.312,547.408,333.613,547.25z"/>
			<path fill="#727272" d="M334.189,552.432c2.312-0.271,1.408-3.637-0.062-3.438C332.199,549.242,332.886,552.588,334.189,552.432z
				"/>
			<path fill="#727272" d="M334.324,554.428c1.025,0.484,0.473-2.912-0.178-3.203C333.292,550.844,333.748,554.158,334.324,554.428z
				"/>
			<path fill="#727272" d="M334.064,549.736c1.025,0.479,0.473-2.914-0.18-3.203C333.033,546.15,333.49,549.465,334.064,549.736z"/>
			<path fill="#727272" d="M333.404,544.957c1.023,0.484,0.473-2.912-0.182-3.203C332.371,541.373,332.828,544.688,333.404,544.957z
				"/>
			<path fill="#727272" d="M333.003,539.854c0.945,0.634,0.883-2.812,0.279-3.188C332.492,536.158,332.47,539.504,333.003,539.854z"
				/>
			<path fill="#727272" d="M332.83,534.758c0.945,0.625,0.883-2.812,0.281-3.195C332.32,531.062,332.298,534.408,332.83,534.758z"/>
			<path fill="#727272" d="M332.658,523.34"/>
			<path fill="#727272" d="M333.099,528.535c2.322-0.219,1.504-3.604,0.027-3.443C331.193,525.295,331.794,528.658,333.099,528.535z
				"/>
			<path fill="#727272" d="M332.632,523.337c2.322-0.219,1.504-3.604,0.027-3.443C330.726,520.097,331.327,523.46,332.632,523.337z"
				/>
			<path fill="#727272" d="M332.366,518.656c0.603-2.252-2.855-2.664-3.219-1.226C328.665,519.315,332.027,519.924,332.366,518.656z
				"/>
			<path fill="#727272" d="M328.463,517.732c-0.676-2.231-3.831-0.759-3.38,0.656C325.667,520.245,328.844,518.988,328.463,517.732z
				"/>
			<path fill="#727272" d="M333.183,530.535c1.016,0.508,0.551-2.9-0.096-3.209C332.244,526.924,332.615,530.248,333.183,530.535z"
				/>
			<path fill="#727272" d="M333.044,525.836c1.014,0.512,0.549-2.898-0.096-3.207C332.107,522.227,332.476,525.551,333.044,525.836z
				"/>
			<path fill="#727272" d="M332.516,520.78c1.113,0.227-0.231-2.941-0.936-3.069C330.662,517.544,331.893,520.654,332.516,520.78z"
				/>
			<path fill="#727272" d="M330.363,517.8c0.405-1.061-2.939-0.257-3.184,0.415C326.865,519.093,330.136,518.393,330.363,517.8z"/>
			<path fill="#727272" d="M392.007,728.789c-0.07,2.33,3.388,1.938,3.415,0.453C395.459,727.297,392.048,727.479,392.007,728.789z"
				/>
			<path fill="#727272" d="M396.702,729.617c-0.07,2.33,3.388,1.938,3.415,0.453C400.154,728.125,396.743,728.307,396.702,729.617z"
				/>
			<path fill="#727272" d="M394.751,729.229c-0.76,0.851,2.651,1.3,3.118,0.763C398.481,729.277,395.177,728.754,394.751,729.229z"
				/>
			<path fill="#727272" d="M399.814,729.82c-0.764,0.842,2.646,1.295,3.113,0.754C403.545,729.865,400.24,729.346,399.814,729.82z"
				/>
			<path fill="#727272" d="M616.163,734.904c-0.07,2.33,3.388,1.938,3.415,0.453C619.615,733.412,616.204,733.594,616.163,734.904z"
				/>
			<path fill="#727272" d="M620.697,735.58c-0.07,2.33,3.388,1.936,3.414,0.453C624.146,734.09,620.737,734.27,620.697,735.58z"/>
			<path fill="#727272" d="M619.275,734.951c-0.764,0.842,2.646,1.295,3.119,0.754C623.007,734.996,619.701,734.477,619.275,734.951
				z"/>
			<path fill="#727272" d="M639.938,736.303c-0.064,2.332,3.395,1.939,3.413,0.455C643.388,734.814,639.977,734.994,639.938,736.303
				z"/>
			<path fill="#727272" d="M635.258,735.857c-0.07,2.323,3.389,1.938,3.414,0.448C638.709,734.369,635.298,734.547,635.258,735.857z
				"/>
			<path fill="#727272" d="M630.58,735.414c-0.07,2.328,3.386,1.938,3.413,0.453C634.031,733.924,630.619,734.102,630.58,735.414z"
				/>
			<path fill="#727272" d="M625.371,735.207c-0.07,2.33,3.387,1.938,3.415,0.453C628.821,733.717,625.41,733.896,625.371,735.207z"
				/>
			<path fill="#727272" d="M623.376,735.041c-0.631,0.945,2.81,0.904,3.195,0.305C627.075,734.559,623.73,734.514,623.376,735.041z"
				/>
			<path fill="#727272" d="M628.055,735.486c-0.632,0.938,2.812,0.897,3.195,0.307C631.754,735.006,628.408,734.961,628.055,735.486
				z"/>
			<path fill="#727272" d="M632.879,735.549c-0.632,0.941,2.812,0.904,3.193,0.303C636.579,735.064,633.233,735.021,632.879,735.549
				z"/>
			<path fill="#727272" d="M637.984,735.914c-0.766,0.844,2.646,1.295,3.111,0.758C641.716,735.963,638.411,735.441,637.984,735.914
				z"/>
			<path fill="#727272" d="M643.049,736.506c-0.759,0.844,2.652,1.295,3.118,0.754C646.778,736.555,643.476,736.033,643.049,736.506
				z"/>
			<path fill="#727272" d="M654.997,737.721c-0.069,2.332,3.387,1.939,3.415,0.453C658.448,736.232,655.037,736.41,654.997,737.721z
				"/>
			<path fill="#727272" d="M659.531,738.553c-0.071,2.33,3.387,1.938,3.413,0.453C662.979,737.064,659.568,737.242,659.531,738.553z
				"/>
			<path fill="#727272" d="M650.319,737.275c-0.07,2.33,3.387,1.938,3.414,0.446C653.77,735.785,650.358,735.965,650.319,737.275z"
				/>
			<path fill="#727272" d="M645.642,736.828c-0.063,2.334,3.394,1.938,3.413,0.457C649.092,735.342,645.68,735.521,645.642,736.828z
				"/>
			<path fill="#727272" d="M647.94,736.967c-0.64,0.941,2.809,0.902,3.188,0.303C651.639,736.482,648.293,736.438,647.94,736.967z"
				/>
			<path fill="#727272" d="M653.046,737.332c-0.76,0.844,2.653,1.295,3.118,0.758C656.776,737.381,653.473,736.857,653.046,737.332z
				"/>
			<path fill="#727272" d="M658.11,737.924c-0.767,0.842,2.646,1.295,3.111,0.754C661.841,737.973,658.536,737.449,658.11,737.924z"
				/>
			<path fill="#727272" d="M678.771,740.275c-0.07,2.332,3.386,1.938,3.407,0.446C682.222,738.785,678.81,738.967,678.771,740.275z"
				/>
			<path fill="#727272" d="M684.454,740.906c-0.07,2.332,3.387,1.938,3.414,0.453C687.904,739.416,684.493,739.598,684.454,740.906z
				"/>
			<path fill="#727272" d="M674.092,739.832c-0.07,2.33,3.387,1.938,3.414,0.453C677.542,738.342,674.132,738.521,674.092,739.832z"
				/>
			<path fill="#727272" d="M669.413,739.385c-0.07,2.332,3.388,1.939,3.414,0.455C672.864,737.896,669.453,738.074,669.413,739.385z
				"/>
			<path fill="#727272" d="M664.204,739.182c-0.07,2.328,3.387,1.938,3.415,0.453C667.654,737.689,664.242,737.869,664.204,739.182z
				"/>
			<path fill="#727272" d="M662.21,739.014c-0.632,0.945,2.81,0.906,3.194,0.312C665.909,738.531,662.564,738.488,662.21,739.014z"
				/>
			<path fill="#727272" d="M666.888,739.461c-0.631,0.941,2.812,0.902,3.194,0.305C670.588,738.979,667.242,738.932,666.888,739.461
				z"/>
			<path fill="#727272" d="M671.711,739.521c-0.631,0.938,2.811,0.897,3.194,0.305C675.411,739.037,672.065,738.992,671.711,739.521
				z"/>
			<path fill="#727272" d="M676.818,739.889c-0.767,0.851,2.646,1.295,3.11,0.756C680.55,739.938,677.244,739.414,676.818,739.889z"
				/>
			<path fill="#727272" d="M681.882,740.48c-0.759,0.844,2.652,1.297,3.119,0.756C685.613,740.525,682.308,740.004,681.882,740.48z"
				/>
			<path fill="#727272" d="M687.415,741.043c-0.758,0.842,2.653,1.295,3.119,0.754C691.146,741.092,687.842,740.568,687.415,741.043
				z"/>
			<path fill="#727272" d="M703.004,740.789c-0.712-2.221-3.839-0.695-3.369,0.713C700.249,743.348,703.403,742.037,703.004,740.789
				z"/>
			<path fill="#727272" d="M698.439,741.822c-0.497-2.279-3.76-1.062-3.428,0.389C695.457,744.105,698.723,743.102,698.439,741.822z
				"/>
			<path fill="#727272" d="M693.363,742.422c0.22-2.32-3.255-2.152-3.378-0.674C689.823,743.686,693.24,743.727,693.363,742.422z"/>
			<path fill="#727272" d="M704.802,739.832c0.152-1.123-2.921,0.426-3.002,1.133C701.691,741.895,704.716,740.465,704.802,739.832z
				"/>
			<path fill="#727272" d="M700.404,741.588c0.377-1.07-2.946-0.174-3.17,0.504C696.942,742.98,700.194,742.189,700.404,741.588z"/>
			<path fill="#727272" d="M695.702,742.391c0.692-0.896-2.743-1.09-3.168-0.516C691.979,742.625,695.312,742.896,695.702,742.391z"
				/>
		</g>
		<g id="Barco_Petit_copia_2">
			<g>
				<g id="Capa_22_copia_1_">
					<path fill="#36627A" d="M21.99,511.463c-1.159,0.242-4.863,8.264-3.69,14.596c1.176,6.332,4.553,20.998,6.495,23.414
						c1.944,2.416,4.38,6.738,4.38,6.738s-8.572,4.604-9.938,7.618c0,0,0.003,1.232,1.05,1.07c1.047-0.166,10.188-0.664,10.618,0.36
						c0.43,1.027,1.264,6.353,1.402,7.046c0.14,0.696-0.245,3.844-0.377,4.973c-0.055,0.469-2.859,4.979-2.346,6
						c0.519,1.021,4.314,1.058,6.43,1.006c2.114-0.047,13.387-7.604,14.959-8.989c1.574-1.39,2.013-18.191,2.013-18.191
						s-3.206-21.963-2.419-22.008c0.788-0.045,6.105-2.186,7.812-4.164c1.708-1.979,1.074-11.553,0.266-13.082
						C57.829,516.319,39.372,507.797,21.99,511.463z"/>
					<path fill="#6C808C" d="M30.61,572.062c0,0,1.826-0.37,1.931-0.145c0.105,0.229,0.505,0.861,0.419,2.082
						c-0.087,1.219,0.381,2.773-0.581,2.89c-0.962,0.117-1.624,0.118-1.624,0.118s-1.604,3.959-4.077,5.156
						c-2.472,1.199-4.135,0.791-2.615-0.777c1.518-1.565,4.374-3.411,4.101-4.055c-0.271-0.641-5.061,0.015-5.061,0.015l0.043-3.87
						c0,0,3.661-0.354,3.843-0.284c0.182,0.066,1.562-0.955,0.514-1.406c-1.048-0.452-5.559,0.007-4.839-1.592
						c0.72-1.601,0.545-1.584,2.25-1.797c1.706-0.22,3.886,0.625,4.855,1.797C30.735,571.364,30.61,572.062,30.61,572.062z"/>
				</g>
				<path fill="#FF0000" d="M127.768,559.177l-17.229-14.418l-72.279-4.104c22.56-4.641,65.304-11.43,128.988-15.354
					c45.75-2.816,84.083-3.111,101.812-2.216c32.239,1.637,53.926-0.237,59.435-0.801c-0.938,0.594-2.312,1.521-3.146,2.297
					c-0.633,0.588-1.189,1.383-1.972,2.479c-1.569,2.229-3.969,5.443-9.27,10.443l-0.529,0.479
					c-35.386,17.241-83.355,22.321-117.805,23.302C159.279,562.327,129.309,559.337,127.768,559.177z"/>
				<path d="M168.102,501.454c-0.308-0.624-0.554-1.092-0.752-1.441c-0.1-0.175-0.187-0.319-0.264-0.442
					c-0.383-0.611-0.509-0.613-0.586-0.615l-0.219,0.139c-0.103,0.193-0.218,0.404-0.354,0.626c-0.089,0.146-0.184,0.297-0.285,0.45
					c-0.051,0.074-0.103,0.152-0.153,0.23c-1.396,2.025-3.712,4.411-5.104,4.045c-0.664-0.178-1.062-0.625-1.222-1.379
					c-0.021-0.089-0.033-0.182-0.044-0.273c-0.011-0.098-0.021-0.193-0.021-0.301c-0.087-2.688,2.308-7.956,5.458-11.312
					c0.485-0.521,0.988-0.986,1.502-1.396c0.286-0.229,0.61-0.459,0.953-0.655c0.549-0.312,1.146-0.537,1.7-0.511
					c0.208,0.011,0.412,0.058,0.606,0.146c0.309,0.144,0.514,0.385,0.627,0.73c0.074,0.23,0.104,0.498,0.103,0.785
					c-0.022,2.006-1.729,5.062-1.751,5.096l-0.128,0.229l2.79,0.803L168.102,501.454z M168.446,491.527
					c-0.007-0.31-0.084-0.562-0.255-0.73c-0.034-0.035-0.072-0.063-0.113-0.098c-0.104-0.065-0.228-0.104-0.357-0.104
					c-0.093,0-0.19,0.021-0.3,0.061c-0.749,0.271-1.826,1.431-2.91,2.92l-0.048-0.06l-0.049-0.061l-0.948,1.646
					c-0.471,0.733-0.921,1.496-1.322,2.235c-0.67,1.23-1.202,2.405-1.472,3.29c-0.152,0.502-0.22,0.904-0.204,1.216
					c0.004,0.077,0.016,0.146,0.029,0.215c0.044,0.195,0.136,0.342,0.272,0.436c0.062,0.039,0.131,0.062,0.205,0.062
					c0.854,0,3.619-3.352,4.765-4.983c0.042-0.062,0.083-0.119,0.121-0.178c0.072-0.109,0.141-0.212,0.193-0.3
					c0.058-0.088,0.102-0.165,0.13-0.229c0.034-0.057,0.076-0.121,0.126-0.2c0.052-0.078,0.105-0.173,0.167-0.273
					C167.153,495.267,168.478,492.879,168.446,491.527z"/>
				<path fill="#3FA9F5" d="M194.31,492.465c-1.104,0.149-4.982,0.779-8.344,1.418c-0.215,0.04-0.426,0.081-0.637,0.123
					c-0.109,0.021-0.218,0.043-0.326,0.062c-0.461,0.092-0.906,0.188-1.33,0.279c-0.133,0.029-0.263,0.062-0.391,0.092
					c-0.318,0.072-0.625,0.147-0.908,0.224c-0.115,0.03-0.227,0.062-0.333,0.095c-0.023,0.004-0.053,0.011-0.087,0.021
					c-1.036,0.229-6.941,1.604-7.823,3.137c-0.028,0.054-0.053,0.095-0.067,0.146c-0.519,1.479-1.779,9.77-1.985,11.616h-3.531
					l-1.238-3.121l0.479-4.436l0.186-0.088l0,0l0,0c-0.011-0.021-0.021-0.041-0.028-0.062c-0.013-0.021-0.021-0.042-0.031-0.062
					l3.059-5.382l0.048,0.012l0,0l0,0l0.059-0.193l0.044-0.078l0.078-0.141l4.573-9.622l0.701-0.243l0.703-0.246l2.056-11.22
					c0.1,0,0.239-0.001,0.415-0.001c1.197,0,5.199,0.033,6.348,0.473C186.966,475.632,191.597,485.84,194.31,492.465z"/>
				<path d="M166.212,495.721c0.021,0,0.035-0.004,0.049-0.007c0.04-0.011,0.074-0.03,0.104-0.059
					c-0.202,0.354-0.405,0.691-0.604,1.007c-0.112,0.227-0.329,0.56-0.606,0.948c-0.046-0.104-0.062-0.225-0.063-0.326
					c-0.002-0.174,0.034-0.312,0.034-0.314l0.062-0.213l-1.957-0.414l0.819-1.432c0.158-0.232,0.316-0.465,0.478-0.688
					C165.716,495.595,166.072,495.725,166.212,495.721z"/>
				<path d="M166.311,496.666c-0.05,0.081-0.091,0.146-0.126,0.202c-0.028,0.062-0.072,0.14-0.13,0.229
					c-0.055,0.089-0.121,0.188-0.193,0.3c-0.038,0.059-0.078,0.114-0.121,0.178c-1.146,1.637-3.91,4.983-4.765,4.983
					c-0.074,0-0.146-0.021-0.205-0.062c-0.139-0.094-0.229-0.234-0.272-0.436c-0.015-0.063-0.024-0.139-0.029-0.215
					c-0.017-0.312,0.051-0.712,0.204-1.216c0.27-0.884,0.802-2.059,1.472-3.29c0.401-0.739,0.854-1.502,1.322-2.234l0.948-1.646
					l0.049,0.061l0.048,0.059c1.083-1.487,2.161-2.649,2.91-2.92c0.107-0.038,0.207-0.062,0.3-0.062
					c0.135,0,0.253,0.036,0.357,0.104c0.042,0.026,0.08,0.062,0.113,0.097c0.171,0.173,0.248,0.427,0.255,0.73
					c0.029,1.354-1.293,3.738-1.972,4.863C166.417,496.495,166.36,496.588,166.311,496.666z M161.034,500.752
					c-0.324,1.066-0.186,1.328-0.13,1.383c0.687-0.128,2.75-2.493,3.983-4.158c-0.225-0.296-0.229-0.67-0.202-0.9l-1.755-0.371
					C162.091,498.141,161.381,499.603,161.034,500.752z M164.05,494.914l-0.822,1.432l1.957,0.414l-0.061,0.212
					c-0.001,0.003-0.037,0.146-0.035,0.313c0.001,0.104,0.02,0.225,0.063,0.328c0.277-0.395,0.495-0.728,0.606-0.949
					c0.198-0.312,0.402-0.652,0.604-1.006c-0.03,0.022-0.064,0.045-0.104,0.058c-0.013,0.002-0.025,0.006-0.049,0.007
					c-0.141,0.004-0.496-0.127-1.688-1.497C164.367,494.449,164.208,494.679,164.05,494.914z M167.847,491.043
					c-0.036-0.023-0.078-0.035-0.128-0.035c-0.579,0-1.737,1.216-2.944,2.873c0.517,0.595,1.099,1.197,1.355,1.38
					c0.144-0.214,0.412-0.299,0.636-0.325C167.692,493.202,168.396,491.409,167.847,491.043z"/>
				<path fill="#FFFFFF" stroke="#FFFFFF" stroke-miterlimit="10" d="M37.121,537.669l0.097-0.062l-0.069-5.701l3.559-2.174
					l15.577,0.272l0.037-0.018l6.453-2.387l0.275-13.308l11.64-2.845l24.903-0.066l1.312-2.411l21.093-1.172l0.138-2.14l4.386-0.443
					l-0.396-0.312c-0.006-0.006-0.619-0.496-0.604-1.094c0.012-0.347,0.232-0.678,0.664-0.98c0.32-0.229,1.259-0.493,3.908-0.493
					c2.43,0,5.401,0.219,7.57,0.379c1.07,0.079,1.918,0.145,2.413,0.155c1.48,0.047,3.122,1.162,4.016,2.179
					c0.55,0.623,0.842,1.231,0.801,1.664c-0.131,1.377-0.355,1.709-1.345,1.896l0.058,0.438l14.567-1.383l8.99-0.847l1.229,3.158
					h3.89l0.023-0.468c0.018-0.1,1.455-10.041,1.991-11.584c0.42-1.207,5.694-2.617,7.689-3.057
					c3.523-0.985,10.872-2.021,12.223-2.203l0.021,0.051l0.15-0.017c0.002,0,0.289-0.023,0.688-0.023
					c1.128,0,1.949,0.188,2.316,0.521c0.4,0.368,0.403,1.104,0.407,1.818c0.003,0.616,0.005,1.197,0.234,1.629
					c0.479,0.887,4.57,7.802,4.745,8.095l0.058,0.096l0.105,0.008c0.602,0.034,59.926,3.542,73.164,5.171
					c1.027,0.126,2.195,0.245,3.475,0.424c20.03,2.821,48.084,8.232,48.084,8.232c2.172,0.037,3.031,0.721,3.105,1.294
					c0.072,0.527-0.479,1.062-1.379,1.322c-0.025,0.017-0.629,0.322-1.453,0.812c-3.639,0.396-25.598,2.571-59.904,0.832
					c-17.741-0.897-56.132-0.545-101.896,2.271c-65.2,4.021-105.44,10.438-127.715,15.109l-0.974,0.205
					c-1.848-0.025-2.505-0.211-2.59-0.312c-0.031-0.059-0.071-0.108-0.111-0.166c-0.095-0.131-0.143-0.2-0.124-0.305
					C34.687,539.364,35.505,538.688,37.121,537.669z"/>
				<path fill="#FFFFFF" stroke="#FFFFFF" stroke-miterlimit="10" d="M127.212,559.331l0.062,0.009
					c0.25,0.022,21.625,2.256,51.067,2.256c5.098,0,10.434-0.064,15.941-0.226c34.302-0.977,82.511-5.729,117.909-22.771
					c-0.098,0.088-0.185,0.17-0.273,0.256c-1.22,1.128-2.434,2.324-3.721,3.59c-8.133,8.006-18.254,17.971-44.363,25.562
					c-6.007,1.744-12.438,2.562-20.246,2.562c-6.688,0-13.549-0.182-20.812-0.811c-7.974-0.688-16.214-1.4-25.028-1.4
					c-1.354,0-2.705,0.02-4.017,0.053c-1.324,0.035-2.875,0.055-4.61,0.055c-34.329,0-138.904-7.184-143.244-7.463l-7.756-19.856
					l71.914,3.771L127.212,559.331z"/>
			</g>
			<g id="_x33__1_">
				<path fill="#996234" d="M147.503,508.468c0,0-1.388-1.611-1.084-3.518c0.304-1.898,0.731-2.871,1.898-3.205
					s2.748-0.485,3.07-0.32c0.325,0.165,4.26,1.727,5.157,2.036c0.899,0.312,3.354,1.937,3.404,2.683
					c0.05,0.748,0.194,0.988,0.498,1.721c0.303,0.729,0.765,4.027,0.765,4.027l-5.933,0.654c0,0,0.063-2.314-0.373-2.478
					c-0.439-0.155-6.235-0.748-6.626-0.971C147.887,508.879,147.503,508.468,147.503,508.468z"/>
				<path fill="#EF45B7" d="M125.53,499.213c0,0-0.312-2.938-0.438-2.938s4.117-0.25,5.125-1c1.25-0.934,8.125-0.875,8.125-0.875
					l4.562,4.188l5.264,3.96c0,0-1.514,4.979-2.264,4.979c-0.354,0-4.109-3.401-7.5-3.5c-3.784-0.108-4.062,2.062-3.188,6.75
					c0.166,0.887-7.812-4.438-7.812-4.438s-1.506-1.125-1.878-3.125S125.53,499.213,125.53,499.213z"/>
				<path fill="#996234" d="M134.591,469.088c0.188,0.062,1.562-1.625,1.5-2.188c-0.062-0.563-0.623-0.938-0.749-0.938
					s-1.438-1.562-0.751-2.25c0.688-0.688-1.5-3.5-0.688-4.875s1.812-3.5,3.688-4.25s3.062-1.375,4-0.625s3.188,2.875,3.25,3.688
					c0.062,0.812,0.438,2.375,0,4.062c-0.438,1.688-0.438,1.938-0.5,3.75c-0.062,1.812-0.875,2.938-1.438,3.627
					s-0.312,1.623-1.375,1.873s0.25,1.938-0.25,2.562c-0.5,0.625-6.375-0.938-6.25-3.375
					C135.088,469.003,134.591,469.088,134.591,469.088z"/>
				<path fill="#301705" d="M134.78,466.65c0,0-1.062,0-0.938-0.875s0.354-2.375-0.01-2.75c-0.364-0.375-1.49-1.062-1.115-2.125
					c0.375-1.063,0.812-1.688,0.562-2.688s0-1.812,0.812-2.312s1.445-0.375,2.379-0.812c0.937-0.438,1.687-1.5,2.746-1.688
					c1.062-0.188,2.312-0.938,3.188,0c0.876,0.938,1.5,0.938,1.75,1.562s-0.062-0.062,0.312,1.438s1.125,1.812,0.625,2.625
					c-0.5,0.812-0.938-0.688-1.375-0.75c-0.437-0.062-0.188-0.75-1.375,0s-0.75,0.5-2.5,0.125s-2.688-1.375-3.22,0.438
					c-0.53,1.812-0.22,1.5,0,2.938c0.22,1.438,0,2.062,0,2.062s-0.092-0.688-0.78-0.562c-0.688,0.125-0.812,0.25-0.75,1
					s0.438,1.625,0.312,1.875S134.78,466.65,134.78,466.65z"/>
				<path fill="#996234" d="M143.405,480.9c0,0,4.125,6.75,5.188,7.375c1.063,0.625,3.25,1.875,4.062,2.062
					c0.812,0.188,5.938,1,8.125,0.875s2.562-0.786,3.375,0.014c0.812,0.801,1.188,1.361,1.5,0.736s0.125-0.75,0-1.688
					c-0.125-0.938,0-1.438,0.875-1.562s2.213,0.875,1.854-0.25c-0.354-1.125-0.229-1.625-1.669-1.5
					c-1.438,0.125-1.688,1.188-2.688,1.312c-1,0.123-1.438,0.125-3.188-0.125s-6.688-3.188-7.75-3.25
					c-1.062-0.062-1.125-0.875-1.812-1.562c-0.688-0.688-3.438-4.062-3.438-4.062"/>
				<path fill="#8BC7E8" d="M125.091,484.338c0.25-3.5,1.5-9.062,3.625-11.5c2.125-2.438,2.75-2.375,4.312-3.062
					c1.562-0.688,2.375-0.5,2.375-0.5s0.082,2.5,1.354,2.938c1.272,0.438,4.271,1.25,4.459,0.75s-0.249-0.815,0.125-1.253
					s1-1.622,1.438-1.372c0.437,0.25,2.625,1.124,2.875,2.25s0.5,2.625,1.125,3.5s1,2.25,1,2.25s0.188,0.5,0.375,1.062
					c0.187,0.562-1.625,0.5-2.812,2.812c-1.187,2.312-2.5-1.312-2.5-1.312s1.438-0.938,0.125,1.062c0,0-2,3.062-2.125,3.5
					c-0.125,0.438-0.625,1.562-0.562,2.688c0.062,1.127,0.688,2.312,0.562,3.5c-0.126,1.188,0.025,2.25-1.456,2.812
					c-1.479,0.562-3.104,0.438-4.919,0.625c-1.812,0.188-4.047,0.089-4.875,0.812c-0.828,0.723-1.625,0.125-2.625,0.375
					s-1.062,0.875-1.875,0c-0.812-0.875,0.479-3.625,0.271-4.25s-0.75-2-0.542-4.062C125.028,485.9,125.091,484.338,125.091,484.338
					z"/>
				<path fill="#996234" d="M132.317,488.556c0,0,1.325,4.354,2.068,5.187c0.744,0.828,1.933,2.75,2.562,3.494
					c0.631,0.746,6.226,6.48,6.897,6.979c0.677,0.499,3.919,3.352,3.919,3.352l4.6-0.527c0,0-3.046-3.262-4.543-4.854
					c-1.498-1.594-6.453-7.729-6.736-8.283c-0.283-0.558-1.893-2.234-2.329-3.011c-0.436-0.773-0.508-2.373-0.87-3.832
					c-0.359-1.459-0.981-3.345-0.981-3.345s-5.779-0.693-5.955,0.671C130.773,485.748,132.317,488.556,132.317,488.556z"/>
				<path fill="#996234" d="M135.341,510.713c0,0-1.271-1.708-0.833-3.583s0.935-2.812,2.12-3.062
					c1.188-0.25,2.776-0.291,3.088-0.104c0.312,0.188,4.125,2.021,5,2.396s3.205,2.166,3.205,2.916s0.125,1,0.375,1.75
					s0.562,2.875,0.562,2.875l-6.002,0.637c0,0,0.182-1.512-0.245-1.696c-0.43-0.188-6.167-1.188-6.542-1.438
					S135.341,510.713,135.341,510.713z"/>
				<path fill="#996234" d="M141.858,516.76"/>
			</g>
		</g>
		<polygon id="La_mar_3_m" opacity="0.6" fill="#39BCC4" enable-background="new    " points="0,548.5 800,548.5 800.981,799.162 
			0.982,799.162 		"/>
	</g>
	<g id="La_Mar">
		<g>
			<path fill="#D8BD80" d="M800.557,739.949c-37.881,6.85-61.195,5.146-88.212,5.051c-24.051-0.033-33.146-4.85-75.376-8.055
				c-26.088-0.787-46.714,0.008-74.345,1.416c-20.113,1.021-66.365,3.424-87.148,0.19c-39.55-10.771-139.626-8.536-184.812-1.551
				c-45.187,6.986-25.674-4.301-54.43-3.225c-28.755,1.067-24.134,5.375-38.512,1.604c-14.377-3.762-20.67-15.181-32.92-13.012
				c-1.388,0.829,0.264,7.501-30.5-8.625c-10.783-5.652-23.201-5.499-30.875-5.625c-7.625-0.125-24.619,3.904-34.375-3.625
				c-11.25-6.604-43.828,16.413-55.125,22.856C2.63,733.811-3,730.024-3,730.024l1.75,72.226l802.232,1L800.557,739.949z"/>
		</g>
	</g>
</g>
</svg>
