<?xml version="1.0" encoding="utf-8"?>
<!-- Generator: Adobe Illustrator 16.0.0, SVG Export Plug-In . SVG Version: 6.00 Build 0)  -->
<!DOCTYPE svg PUBLIC "-//W3C//DTD SVG 1.1//EN" "http://www.w3.org/Graphics/SVG/1.1/DTD/svg11.dtd">
<svg version="1.1" id="Palanca_2_" xmlns="http://www.w3.org/2000/svg" xmlns:xlink="http://www.w3.org/1999/xlink" x="0px" y="0px"
	 width="800px" height="800px" viewBox="0 0 800 800" enable-background="new 0 0 800 800" xml:space="preserve">
<g id="Capa_13_1_">
	<g id="Capa_13" opacity="0.2">
		<path fill="#5E5E5E" d="M322.147,714.187L322.56,958.5c-2.037,15.263,19.905,30.594,35.171,32.631l509.167,67.95
			c15.265,2.036,29.294-8.686,31.331-23.951c0,0,31.445-1045.593,16.18-1047.63l-171.383-10L322.147,714.187z"/>
	</g>
</g>
<g id="Palanca">
	<g id="Capa_2_copia_3_2_">
		<path fill="#F9DBBD" d="M146.257,282.854c3.521-4,16.556-8.079,17.145-8.958c0.588-0.878,21.891-15.011,25.899-19.109
			c4.009-4.097,13.974-8.869,22.488-24.775c8.514-15.906,43.328-59.125,46.849-64.393c3.522-5.271,20.052-28.101,24.157-30.438
			c4.103-2.34,12.796-5.844,15.825-4.671c3.025,1.177,17.271,9.006,24.006,10.968c6.736,1.959,60.011,14.221,69.673,19.408
			c9.661,5.187,12.972,14.173,13.548,19.644c0.579,5.469,4.996,55.484,2.843,61.243c-2.157,5.758-29.217-28.852-29.217-28.852
			s-19.904-14.574-27.03-15.946c-7.127-1.377,16.039,62.806,17.504,63.782c1.463,0.98,50.255-25.796,59.47-2.174
			c6.854,17.57,3.587,21.878,3.587,21.878s-20.431,18.528-21.601,19.015c-1.176,0.488-10.354,1.55-13.094,4.38
			c-2.737,2.828-8.112,6.437-14.654,7.988c-6.546,1.557-35.636-4.336-43.161-1.318c-7.523,3.019-31.257,10.023-38.681,10.988
			c-7.422,0.968-26.377,9.052-32.429,7.969c-6.054-1.082-9.004-2.63-17.246-0.938c-8.241,1.69-11.073,2.76-14.888,6.565
			c-3.833,3.826-18.903,17.415-26.954,22.262c-5.665,3.41-245.508,190.91-245.508,190.91l-74.57-110.822
			C-109.785,437.459,142.738,286.853,146.257,282.854z"/>
	</g>
	<g id="Palanca_1_">
		<g>
			<path fill="none" stroke="#FF0000" stroke-width="7" stroke-linecap="round" stroke-miterlimit="10" d="M417.024,498.468
				c13.695-27.005,51.802-7.151,44.572,4.097c-7.232,11.252-41.989-11.852-31.525-30.979c10.463-19.126,50.733-3.67,44.929,8.379
				c-5.822,12.083-35.333-16.119-28.842-29.5c0,0,1.396-10.121,20.164-12.742c12.788-1.789,20.472-19.065,20.907-21.887
				c0.435-2.822,32.42-100.097,47.345-93.712c20.253,8.66-24.896,46.495-31.685,68.174c-0.955,3-11.119,32.294-11.119,32.294"/>
			<path fill="#CECECE" d="M505.194,402.008c-0.386,1.12-1.358,1.797-2.178,1.514l-13.456-4.646
				c-0.817-0.283-1.167-1.417-0.782-2.535l5.681-16.453c0.39-1.118,1.362-1.795,2.182-1.512l13.455,4.646
				c0.818,0.282,1.167,1.418,0.782,2.536L505.194,402.008z"/>
		</g>
		<g>
			<circle fill="#A5A5A5" cx="643.18" cy="399.338" r="99.823"/>
			<path fill="#A5A5A5" d="M500.767,343.002c0,0,36.052,15.894,44.191,74.382c8.144,58.49,39.359-52.039,39.359-52.039
				l-75.882-47.192l-11.162,19.306L500.767,343.002z"/>
			<path fill="#A5A5A5" d="M523.251,304.113c0,0,31.764,23.311,86.511,1.182c54.751-22.131-25.457,60.076-25.457,60.076
				l-78.762-42.215l11.161-19.303L523.251,304.113z"/>
		</g>
		<path fill="#5E5E5E" d="M327.501,255.428c-14.045-8.12-22.894-32.514-15.23-45.771l0.88-1.525
			c12.59-19.396,33.713-21.38,48.957-12.567l154.372,89.248c8.174,4.726,10.382,15.758,5.711,23.839l-17.621,30.479
			c-4.673,8.08-14.524,10.267-22.7,5.542L327.501,255.428L327.501,255.428z"/>
		<circle fill="#727272" cx="643.18" cy="399.477" r="76.049"/>
	</g>
	<g id="Capa_2_copia_2_">
		<path fill="#F9DBBD" d="M418.527,209.593c0,0,2.395,10.165-7.257,23.345c-10.035,13.709-26.145,41.576-32.665,41.02
			c-0.884-0.076-5.578,2.503-11.578-0.619c-6.002-3.12-7.99-14.901-6.51-18.103s16.632-22.976,16.632-22.976l-7.907-27.063
			l-11.53-11.147l44.377-24.063L418.527,209.593z"/>
		<circle fill="#2D2D2D" cx="342.835" cy="224.461" r="34.284"/>
		<circle fill="#3F3F3F" cx="342.835" cy="224.461" r="26.632"/>
	</g>
</g>
<g id="Capa_9">
	<g id="Capa_4_copia">
		<g id="Capa_4_copia_2">
			<g id="Cordó_1_">
				<path fill="none" stroke="#FF0000" stroke-width="7" stroke-linecap="round" stroke-miterlimit="10" d="M388.46,540.471
					c6.374-14.042,47.067,1.485,41.284,14.129c-4.714,10.313-35.123-13.547-27.887-31.71c10.086-25.319,47.717-3.196,42.064,14.39
					c-2.393,7.448-33.423-23.306-27.787-35.21"/>
				<path fill="none" stroke="#FF0000" stroke-width="7" stroke-linecap="round" stroke-miterlimit="10" d="M280.595,434.562
					c5.573,14.393-36.922,43.124-41.914,30.129c-4.977-12.957,42.718-25.106,51.867-4.428c9.147,20.68-35.756,41.615-42.211,29.357
					c-6.458-12.259,38.699-36.955,50.539-7.853"/>
				<path fill="none" stroke="#FF0000" stroke-width="7" stroke-linecap="round" stroke-miterlimit="10" d="M262.574,386.379
					c5.572,14.392-36.225,46.159-41.215,33.166c-6.083-15.836,39.909-31.964,50.292-8.491c9.148,20.68-35.756,41.616-42.211,29.356
					c-6.457-12.258,39.914-33.406,51.753-4.303"/>
				<path fill="none" stroke="#FF0000" stroke-width="7" stroke-linecap="round" stroke-miterlimit="10" d="M210.229,341.061"/>
				<path fill="none" stroke="#FF0000" stroke-width="7" stroke-linecap="round" stroke-miterlimit="10" d="M263.172,387.921
					c-11.839-29.101-58.922-9.379-52.465,2.877c6.455,12.258,51.359-8.677,42.212-29.355c-9.147-20.68-55.898-6.094-50.921,6.863
					c4.99,12.993,35.976-14.634,30.402-29.026"/>
				<path fill="none" stroke="#FF0000" stroke-width="7" stroke-linecap="round" stroke-miterlimit="10" d="M355.006,588.064
					c-9.045-15.723,43.886-12.168,38.107,0.48c-5.771,12.614-31.372-7.713-22.999-28.732c8.371-21.018,46.95,4.911,42.699,18.134
					c-4.248,13.218-36.851-8.657-24.352-37.477"/>
				<path fill="none" stroke="#FF0000" stroke-width="7" stroke-linecap="round" stroke-miterlimit="10" d="M345.708,563.913
					c5.572,14.394-30.417,40.518-35.409,27.525c-4.979-12.957,37.557-29.418,46.702-8.738c9.149,20.681-28.629,39.785-23.002,27.3
					c-4.5-13,61-10.5,24.426-21.057"/>
				<path fill="none" stroke="#FF0000" stroke-width="7" stroke-linecap="round" stroke-miterlimit="10" d="M319.695,524.451
					c5.574,14.396-31.345,40.893-36.337,27.9c-4.977-12.957,40.329-31.273,49.478-10.593c9.148,20.68-32.038,40.127-38.495,27.867
					c-6.458-12.257,40.125-33.272,51.963-4.17"/>
				<path fill="none" stroke="#FF0000" stroke-width="7" stroke-linecap="round" stroke-miterlimit="10" d="M298.193,479.965
					c5.572,14.395-34.812,43.071-39.804,30.077c-4.977-12.955,41.145-29.17,50.293-8.489c9.148,20.68-33.899,40.869-40.354,28.611
					c-6.457-12.257,40.125-33.27,51.965-4.168"/>
			</g>
		</g>
		<g id="Capa_5_copia">
			<path fill="none" stroke="#FF0000" stroke-width="7" stroke-linecap="round" stroke-miterlimit="10" d="M239.743,346.236
				c-24.81-2.709-9.789-44.236-4.131-34.877c4.919,8.137-24.49,8.43-35.534-5.111c-14.041-17.216-3.057-43.779,3.665-35.2
				c6.336,8.086-13.279,6.292-23.848,2.045c0,0-8.512-4.385-5.406-13.259"/>
		</g>
	</g>
</g>
<circle fill="#2BA03C" cx="98.664" cy="80.461" r="36.177"/>
<text transform="matrix(1 0 0 1 79.1333 99.6875)" fill="#FFFFFF" font-family="'MyriadPro-Bold'" font-size="57.4561">N</text>
</svg>
