<?xml version="1.0" encoding="utf-8"?>
<!-- Generator: Adobe Illustrator 16.0.0, SVG Export Plug-In . SVG Version: 6.00 Build 0)  -->
<!DOCTYPE svg PUBLIC "-//W3C//DTD SVG 1.1//EN" "http://www.w3.org/Graphics/SVG/1.1/DTD/svg11.dtd">
<svg version="1.1" id="Capa_1" xmlns="http://www.w3.org/2000/svg" xmlns:xlink="http://www.w3.org/1999/xlink" x="0px" y="0px"
	 width="800px" height="800px" viewBox="0 0 800 800" enable-background="new 0 0 800 800" xml:space="preserve">
<g id="cèl">
	<g id="Cèl_2_">
		
			<linearGradient id="SVGID_1_" gradientUnits="userSpaceOnUse" x1="387.8086" y1="-876.8203" x2="1674.4961" y2="-876.8203" gradientTransform="matrix(-4.371139e-08 -1 1 -4.371139e-08 1250.5 1220.4995)">
			<stop  offset="0.1444" style="stop-color:#FFFFFF"/>
			<stop  offset="1" style="stop-color:#00C3FF"/>
		</linearGradient>
		<polygon fill="url(#SVGID_1_)" points="-271.129,-453.996 1016.906,-453.996 1018.487,832.691 -269.548,832.691 		"/>
	</g>
</g>
<g id="_x31_">
	<g id="Barco_Petit">
		<g id="Capa_22_copia">
			<path fill="#36627A" d="M144.808,358.445c-1.866,0.392-7.83,13.308-5.938,23.503c1.896,10.194,7.333,33.811,10.454,37.7
				c3.13,3.89,7.055,10.842,7.055,10.842s-13.799,7.414-16.001,12.267c0,0,0.004,1.989,1.69,1.725
				c1.686-0.269,16.404-1.069,17.096,0.585c0.692,1.648,2.036,10.225,2.255,11.346c0.228,1.114-0.392,6.182-0.607,8.001
				c-0.091,0.753-4.601,8.018-3.78,9.659c0.839,1.645,6.946,1.701,10.355,1.621c3.401-0.077,21.557-12.237,24.085-14.478
				c2.531-2.234,3.244-29.282,3.244-29.282s-5.162-35.362-3.895-35.436c1.269-0.072,9.828-3.521,12.577-6.704
				c2.751-3.188,1.729-18.604,0.434-21.062C202.51,366.266,172.793,352.543,144.808,358.445z"/>
			<path fill="#6C808C" d="M158.687,456.017c0,0,2.94-0.6,3.108-0.235c0.169,0.369,0.813,1.387,0.674,3.353
				c-0.14,1.97,0.616,4.467-0.934,4.655c-1.55,0.188-2.616,0.195-2.616,0.195s-2.582,6.371-6.561,8.297
				c-3.981,1.928-6.659,1.271-4.208-1.25c2.443-2.523,7.042-5.492,6.602-6.53c-0.436-1.034-8.148,0.027-8.148,0.027l0.069-6.236
				c0,0,5.895-0.57,6.187-0.457c0.294,0.113,2.516-1.538,0.829-2.266c-1.688-0.728-8.951,0.013-7.792-2.562
				c1.162-2.574,0.881-2.551,3.623-2.895c2.747-0.347,6.259,1.006,7.817,2.893C158.888,454.888,158.687,456.017,158.687,456.017z"/>
		</g>
		<g>
			<path fill="#FF0000" d="M313.905,440.872l-27.74-23.212l-116.37-6.607c36.325-7.473,105.148-18.403,207.672-24.722
				c73.659-4.536,135.375-5.009,163.922-3.565c51.904,2.634,86.825-0.384,95.692-1.288c-1.508,0.953-3.722,2.45-5.064,3.7
				c-1.022,0.941-1.919,2.222-3.178,3.99c-2.522,3.588-6.39,8.764-14.924,16.812l-0.853,0.775
				c-56.972,27.758-134.202,35.938-189.672,37.516C364.642,445.947,316.386,441.131,313.905,440.872z"/>
			<path d="M379.642,347.938c-0.498-1.005-0.896-1.758-1.21-2.325c-0.164-0.281-0.304-0.518-0.428-0.712
				c-0.618-0.984-0.821-0.987-0.943-0.991l-0.353,0.219c-0.168,0.316-0.354,0.656-0.571,1.008c-0.143,0.236-0.295,0.479-0.454,0.727
				c-0.086,0.123-0.168,0.248-0.247,0.371c-2.248,3.264-5.978,7.103-8.218,6.516c-1.066-0.286-1.709-1.006-1.967-2.224
				c-0.033-0.141-0.053-0.289-0.072-0.438c-0.016-0.155-0.035-0.314-0.035-0.482c-0.14-4.328,3.72-12.808,8.789-18.219
				c0.778-0.831,1.589-1.591,2.418-2.246c0.458-0.37,0.981-0.742,1.533-1.057c0.887-0.507,1.847-0.868,2.736-0.824
				c0.335,0.016,0.662,0.091,0.977,0.234c0.496,0.232,0.826,0.616,1.009,1.183c0.121,0.369,0.168,0.802,0.168,1.259
				c-0.033,3.234-2.783,8.149-2.821,8.209l-0.204,0.366l4.49,1.298L379.642,347.938z M380.195,331.955
				c-0.015-0.499-0.136-0.906-0.413-1.182c-0.054-0.057-0.113-0.104-0.183-0.152c-0.166-0.109-0.361-0.168-0.572-0.168
				c-0.149,0-0.303,0.034-0.482,0.098c-1.206,0.431-2.938,2.302-4.685,4.701l-0.08-0.096l-0.078-0.093l-1.527,2.65
				c-0.758,1.181-1.481,2.409-2.124,3.6c-1.079,1.985-1.934,3.877-2.374,5.297c-0.242,0.808-0.354,1.461-0.327,1.957
				c0.01,0.125,0.031,0.239,0.048,0.345c0.068,0.316,0.217,0.554,0.438,0.701c0.099,0.066,0.209,0.096,0.327,0.096
				c1.374,0,5.824-5.392,7.674-8.023c0.066-0.101,0.132-0.191,0.193-0.286c0.112-0.176,0.228-0.341,0.307-0.482
				c0.098-0.142,0.167-0.266,0.209-0.363c0.055-0.091,0.121-0.195,0.211-0.325c0.08-0.128,0.167-0.275,0.269-0.442
				C378.113,337.975,380.246,334.133,380.195,331.955z"/>
			<path fill="#3FA9F5" d="M421.836,333.464c-1.777,0.245-8.019,1.26-13.437,2.283c-0.346,0.064-0.687,0.131-1.023,0.198
				c-0.176,0.034-0.351,0.069-0.526,0.104c-0.741,0.148-1.458,0.301-2.142,0.45c-0.214,0.047-0.422,0.097-0.626,0.147
				c-0.516,0.116-1.007,0.237-1.464,0.36c-0.186,0.049-0.365,0.097-0.536,0.147c-0.035,0.006-0.085,0.018-0.142,0.033
				c-1.667,0.369-11.176,2.583-12.596,5.05c-0.044,0.082-0.084,0.148-0.108,0.231c-0.834,2.385-2.858,15.73-3.192,18.702h-5.684
				l-1.989-5.024l0.771-7.139l0.303-0.139l0,0l0,0c-0.02-0.036-0.034-0.068-0.045-0.102c-0.021-0.033-0.035-0.067-0.049-0.1
				l4.931-8.666l0.074,0.019l0,0l0,0l0.099-0.315l0.072-0.126l0.126-0.222l7.362-15.492l1.126-0.396l1.13-0.396l3.311-18.059
				c0.162,0,0.386-0.002,0.665-0.002c1.931,0,8.374,0.054,10.227,0.756C410.013,306.362,417.47,322.798,421.836,333.464z"/>
			<path d="M376.601,338.706c0.035,0,0.058-0.006,0.082-0.011c0.062-0.013,0.115-0.049,0.167-0.09
				c-0.323,0.566-0.651,1.113-0.972,1.621c-0.178,0.36-0.528,0.896-0.974,1.526c-0.073-0.169-0.1-0.361-0.1-0.524
				c-0.005-0.28,0.051-0.504,0.053-0.512l0.101-0.343l-3.151-0.666l1.318-2.301c0.251-0.379,0.506-0.748,0.771-1.109
				C375.803,338.503,376.375,338.714,376.601,338.706z"/>
			<path d="M376.758,340.231c-0.084,0.13-0.149,0.239-0.204,0.324c-0.044,0.099-0.112,0.222-0.209,0.364
				c-0.09,0.145-0.192,0.305-0.309,0.484c-0.062,0.091-0.125,0.183-0.193,0.283c-1.844,2.637-6.295,8.024-7.674,8.024
				c-0.118,0-0.236-0.031-0.324-0.094c-0.233-0.151-0.373-0.382-0.441-0.701c-0.025-0.103-0.038-0.224-0.044-0.346
				c-0.03-0.497,0.088-1.146,0.323-1.958c0.438-1.42,1.295-3.31,2.38-5.297c0.638-1.192,1.371-2.418,2.118-3.595l1.527-2.655
				l0.079,0.093l0.081,0.094c1.744-2.397,3.475-4.269,4.683-4.701c0.171-0.06,0.333-0.097,0.484-0.097
				c0.22,0,0.408,0.058,0.572,0.17c0.066,0.04,0.129,0.096,0.183,0.15c0.276,0.278,0.397,0.688,0.411,1.18
				c0.045,2.176-2.081,6.019-3.176,7.83C376.927,339.955,376.837,340.104,376.758,340.231z M368.262,346.809
				c-0.521,1.722-0.301,2.143-0.209,2.227c1.105-0.206,4.426-4.015,6.408-6.693c-0.362-0.479-0.368-1.081-0.316-1.453l-2.835-0.598
				C369.966,342.604,368.821,344.958,368.262,346.809z M373.12,337.409l-1.321,2.3l3.151,0.667l-0.102,0.341
				c-0.003,0.005-0.06,0.234-0.057,0.512c0.002,0.166,0.034,0.355,0.103,0.524c0.443-0.633,0.796-1.169,0.973-1.526
				c0.317-0.508,0.646-1.055,0.973-1.621c-0.049,0.038-0.104,0.075-0.168,0.09c-0.021,0.003-0.039,0.01-0.079,0.011
				c-0.226,0.007-0.798-0.204-2.717-2.41C373.629,336.659,373.375,337.028,373.12,337.409z M379.233,331.177
				c-0.052-0.036-0.126-0.057-0.211-0.057c-0.929,0-2.791,1.957-4.742,4.625c0.838,0.958,1.775,1.933,2.184,2.222
				c0.231-0.344,0.662-0.48,1.025-0.521C378.981,334.652,380.118,331.766,379.233,331.177z"/>
			<path fill="#FFFFFF" stroke="#FFFFFF" stroke-miterlimit="10" d="M168.757,406.245l0.156-0.101l-0.102-9.174l5.731-3.505
				l25.08,0.441l0.058-0.021l10.39-3.842l0.436-21.429l18.75-4.575l40.087-0.112l2.112-3.882l33.962-1.887l0.225-3.44l7.064-0.718
				l-0.64-0.505c-0.009-0.007-0.992-0.799-0.972-1.76c0.019-0.558,0.37-1.091,1.069-1.578c0.511-0.368,2.03-0.799,6.289-0.799
				c3.917,0,8.692,0.352,12.187,0.609c1.724,0.128,3.088,0.234,3.885,0.255c2.382,0.072,5.026,1.87,6.47,3.504
				c0.887,1.003,1.354,1.985,1.292,2.679c-0.214,2.217-0.572,2.752-2.171,3.052l0.101,0.704l23.444-2.222l14.475-1.364l1.979,5.085
				h6.265l0.034-0.752c0.031-0.155,2.34-16.166,3.204-18.65c0.677-1.943,9.167-4.214,12.382-4.917
				c5.669-1.591,17.505-3.255,19.677-3.55l0.034,0.08l0.236-0.022c0.004,0,0.465-0.042,1.107-0.042c1.814,0,3.129,0.304,3.723,0.84
				c0.645,0.594,0.649,1.778,0.654,2.928c0.006,0.991,0.009,1.927,0.382,2.624c0.769,1.426,7.351,12.558,7.637,13.029l0.094,0.152
				l0.169,0.012c0.97,0.056,96.487,5.702,117.795,8.325c1.651,0.202,3.535,0.395,5.599,0.684
				c32.25,4.541,77.418,13.255,77.418,13.255c3.495,0.062,4.879,1.158,5,2.081c0.111,0.853-0.771,1.711-2.222,2.136
				c-0.042,0.021-1.013,0.516-2.343,1.302c-5.858,0.645-41.213,4.14-96.438,1.34c-28.566-1.446-90.38-0.878-164.059,3.663
				c-104.98,6.469-169.762,16.796-205.631,24.317l-1.574,0.33c-2.978-0.039-4.036-0.338-4.173-0.501
				c-0.041-0.096-0.104-0.182-0.17-0.271c-0.16-0.209-0.236-0.327-0.198-0.491C164.836,408.975,166.155,407.888,168.757,406.245z"/>
			<path fill="#FFFFFF" stroke="#FFFFFF" stroke-miterlimit="10" d="M313.809,441.122l0.101,0.011
				c0.401,0.042,34.814,3.632,82.214,3.632c8.211,0,16.804-0.101,25.665-0.357c55.228-1.572,132.845-9.225,189.839-36.666
				c-0.157,0.14-0.297,0.271-0.438,0.413c-1.966,1.815-3.921,3.738-5.99,5.779c-13.097,12.892-29.393,28.933-71.427,41.155
				c-9.674,2.812-20.025,4.125-32.6,4.125c-10.768,0-21.812-0.292-33.506-1.303c-12.84-1.107-26.105-2.25-40.297-2.25
				c-2.18,0-4.355,0.028-6.467,0.083c-2.131,0.052-4.629,0.083-7.422,0.083c-55.271,0-223.64-11.562-230.629-12.015l-12.489-31.975
				l115.785,6.072L313.809,441.122z"/>
		</g>
	</g>
	<g id="_x31__1_">
		<path fill="#996234" d="M343.977,361.269c0,0-2.238-2.598-1.744-5.661c0.488-3.059,1.174-4.623,3.053-5.161
			c1.877-0.537,4.425-0.781,4.942-0.517c0.524,0.267,6.857,2.776,8.305,3.276c1.44,0.503,5.396,3.116,5.475,4.32
			c0.09,1.205,0.312,1.592,0.802,2.768c0.492,1.176,1.236,6.487,1.236,6.487l-9.556,1.051c0,0,0.104-3.727-0.602-3.983
			c-0.706-0.251-10.032-1.204-10.67-1.561C344.597,361.933,343.977,361.269,343.977,361.269z"/>
		<path fill="#EF45B7" d="M308.6,346.369c0,0-0.503-4.729-0.706-4.729s6.628-0.402,8.251-1.609
			c2.013-1.499,13.082-1.409,13.082-1.409l7.347,6.742l8.479,6.377c0,0-2.441,8.015-3.648,8.015c-0.571,0-6.611-5.479-12.075-5.636
			c-6.088-0.176-6.541,3.319-5.134,10.868c0.266,1.426-12.577-7.146-12.577-7.146s-2.425-1.811-3.025-5.031
			C307.997,349.59,308.6,346.369,308.6,346.369z"/>
		<path fill="#996234" d="M323.191,297.867c0.303,0.101,2.516-2.616,2.415-3.522c-0.1-0.905-1.003-1.509-1.208-1.509
			c-0.202,0-2.314-2.516-1.208-3.623c1.107-1.108-2.416-5.635-1.107-7.849c1.307-2.214,2.917-5.636,5.937-6.843
			c3.021-1.208,4.932-2.214,6.44-1.007c1.511,1.208,5.134,4.629,5.233,5.938c0.101,1.308,0.706,3.824,0,6.541
			c-0.705,2.717-0.705,3.119-0.806,6.037c-0.099,2.917-1.408,4.733-2.313,5.84c-0.907,1.105-0.503,2.613-2.214,3.016
			c-1.712,0.402,0.402,3.119-0.402,4.124c-0.805,1.005-10.264-1.511-10.062-5.434C323.99,297.729,323.191,297.867,323.191,297.867z"
			/>
		<path fill="#301705" d="M323.493,293.941c0,0-1.711,0-1.511-1.409c0.199-1.409,0.57-3.824-0.018-4.428
			c-0.588-0.604-2.398-1.711-1.794-3.421c0.604-1.713,1.308-2.719,0.906-4.329c-0.403-1.61,0-2.917,1.307-3.722
			c1.309-0.805,2.327-0.604,3.83-1.308c1.508-0.705,2.715-2.415,4.421-2.718c1.71-0.303,3.724-1.511,5.133,0
			c1.411,1.51,2.415,1.51,2.818,2.515c0.402,1.006-0.101-0.099,0.501,2.315c0.602,2.416,1.812,2.917,1.006,4.227
			c-0.805,1.307-1.51-1.108-2.214-1.207c-0.705-0.101-0.302-1.208-2.214,0c-1.91,1.207-1.208,0.805-4.025,0.201
			c-2.816-0.604-4.33-2.214-5.185,0.704c-0.855,2.92-0.362,2.415,0,4.731c0.354,2.314,0,3.319,0,3.319s-0.153-1.107-1.255-0.904
			c-1.107,0.202-1.308,0.402-1.208,1.61c0.101,1.207,0.706,2.616,0.503,3.019C324.293,293.54,323.493,293.941,323.493,293.941z"/>
		<path fill="#996234" d="M337.38,316.884c0,0,6.643,10.868,8.353,11.874c1.712,1.007,5.231,3.02,6.541,3.319
			c1.307,0.304,9.56,1.61,13.082,1.409c3.52-0.201,4.123-1.261,5.434,0.025c1.307,1.286,1.912,2.188,2.415,1.182
			c0.502-1.006,0.201-1.207,0-2.717c-0.201-1.511,0-2.315,1.409-2.516c1.407-0.195,3.566,1.409,2.983-0.402
			c-0.568-1.812-0.368-2.616-2.686-2.415c-2.315,0.201-2.717,1.913-4.327,2.113c-1.61,0.199-2.316,0.201-5.134-0.201
			c-2.817-0.403-10.768-5.134-12.479-5.233c-1.709-0.101-1.811-1.408-2.917-2.516c-1.107-1.105-5.536-6.539-5.536-6.539"/>
		<path fill="#8BC7E8" d="M307.896,322.42c0.402-5.635,2.415-14.589,5.836-18.516c3.421-3.924,4.427-3.823,6.943-4.929
			c2.515-1.108,3.824-0.805,3.824-0.805s0.132,4.024,2.179,4.73c2.047,0.704,6.877,2.013,7.18,1.208
			c0.303-0.806-0.403-1.316,0.2-2.02c0.604-0.701,1.61-2.609,2.316-2.207c0.705,0.402,4.227,1.812,4.629,3.622
			c0.402,1.814,0.805,4.227,1.812,5.636c1.006,1.408,1.609,3.622,1.609,3.622s0.302,0.806,0.604,1.71
			c0.3,0.903-2.617,0.805-4.528,4.526c-1.912,3.723-4.025-2.112-4.025-2.112s2.316-1.511,0.201,1.71c0,0-3.22,4.931-3.421,5.635
			c-0.202,0.706-1.006,2.516-0.904,4.329c0.1,1.812,1.107,3.721,0.904,5.635c-0.203,1.913,0.041,3.622-2.346,4.526
			c-2.38,0.906-4.997,0.706-7.918,1.007c-2.918,0.303-6.517,0.145-7.849,1.308c-1.333,1.165-2.616,0.201-4.227,0.604
			c-1.61,0.403-1.709,1.409-3.019,0c-1.307-1.408,0.771-5.836,0.437-6.842c-0.332-1.007-1.208-3.221-0.871-6.541
			C307.797,324.936,307.896,322.42,307.896,322.42z"/>
		<path fill="#996234" d="M319.526,329.209c0,0,2.133,7.01,3.332,8.348c1.197,1.334,3.11,4.426,4.125,5.626
			c1.021,1.199,10.027,10.436,11.106,11.24c1.088,0.799,6.311,5.394,6.311,5.394l7.403-0.851c0,0-4.901-5.25-7.313-7.816
			c-2.412-2.567-10.391-12.444-10.841-13.34c-0.456-0.899-3.053-3.597-3.748-4.843c-0.705-1.246-0.818-3.82-1.399-6.169
			c-0.58-2.35-1.582-5.391-1.582-5.391s-9.3-1.112-9.588,1.082C317.041,324.686,319.526,329.209,319.526,329.209z"/>
		<path fill="#996234" d="M324.399,364.885c0,0-2.046-2.751-1.344-5.77c0.706-3.02,1.504-4.527,3.414-4.93
			c1.913-0.402,4.465-0.47,4.974-0.168c0.503,0.303,6.641,3.255,8.05,3.858c1.409,0.604,5.16,3.488,5.16,4.696
			c0,1.207,0.2,1.61,0.604,2.817c0.403,1.208,0.906,4.629,0.906,4.629l-9.664,1.023c0,0,0.297-2.432-0.396-2.735
			c-0.689-0.302-9.929-1.912-10.532-2.314C324.968,365.59,324.399,364.885,324.399,364.885z"/>
		<path fill="#996234" d="M334.889,374.621"/>
	</g>
	<g id="Capa_8">
		<path fill="none" stroke="#000000" stroke-miterlimit="10" d="M254.328,305.696"/>
		<path fill="#32417F" d="M238.198,355.036c0,0,1.086,3.801,0.383,8.479c-0.704,4.678-0.854,8.682,0.864,10.15
			c1.719,1.469,0.017,4.371,1.683,4.751c1.082,0.247,18.16-2.006,19.55-1.629c1.389,0.377,5.914-0.707,6.619-0.299
			c0.705,0.408,6.609-0.509,7.532-0.34s0.383-1.644,1.281-2.023c0.897-0.38,2.538-4.571,2.538-4.571l-0.079-1.75l-2.46-3.852
			l-1.293-3.472l-1.182-0.691c0,0-0.71-0.526-1.217-1.631c-0.507-1.106-0.803-2.583-1.085-3.77
			c-0.282-1.185-0.477-3.103-1.432-2.668C268.943,352.154,238.198,355.036,238.198,355.036z"/>
		<path fill="#FFCBA1" d="M223.874,328.404c0,0-1.158,16.582-0.965,17.028c0.196,0.446-0.354,3.841-1.328,8.588
			c-0.975,4.752-0.752,16.779-0.651,17.935c0.104,1.157-0.299,3.599-0.271,3.911c0.028,0.308-1.18,1.579-2.093,2.673
			c-0.913,1.091,0.075,0.845,0.075,0.845s1.206,0.441,1.996,0.599c0.793,0.162,3.497,0.001,4.381,0.308
			c0.882,0.31,6.168-0.548,6.554-0.585c0.387-0.031,1.102-0.72,1.026-1.565c-0.076-0.853-1.141-1.457-1.141-1.457l-3.37-1.175
			c0,0-0.088-1.858-0.208-2.313c-0.119-0.455,2.578-8.547,2.729-11.201c0.15-2.658,0.497-4.011,0.198-5.615
			c-0.299-1.606-0.217-5.888-0.167-6.203c0.05-0.315,0.956-5.839,1.532-7.21c0.575-1.374-0.659-10.821-0.616-11.213L223.874,328.404
			z"/>
		<path fill="#FFCBA1" d="M276.548,324.7c0,0,5.56,13.491,6.076,14.067c0.517,0.575,3.165,6.712,3.787,7.591
			c0.623,0.872,7.637,24.575,7.898,24.863c0.259,0.288,1.948,0.914,2.346,1.034c0.397,0.119,0.752,2.341,0.752,2.341l-5.55,0.5
			l-4.49,0.398c0,0-0.677,0.064-1.68,0.151c-1.001,0.089-1.569-0.17-1.749-0.448c-0.181-0.279,0.449-1.92,0.813-2.191
			c0.365-0.264,1.396-0.902,1.979-1.34s-0.04-1.32-0.234-2.62c-0.192-1.305-1.674-4.828-2.54-6.69
			c-0.866-1.857-4.152-8.181-4.227-9.025c-0.078-0.854-1.863-6.055-2.41-6.938c-0.545-0.885,0,0-0.959-1.159
			c-0.958-1.158-7.38-13.875-7.38-13.875l6.989-5.29L276.548,324.7z"/>
		<path fill="#FFFEF8" d="M279.187,325.548c0.035,0.382-1.385,1.91-2.058,2.204c-0.671,0.293-3.92,2.215-4.425,2.65
			c-0.507,0.434-2.408,2.625-2.437,3.172c-0.027,0.546-0.229,3.518-0.201,3.826c0.027,0.308,1.623,6.853,1.986,7.438
			c0.363,0.585,0.605,7.641,0.548,8.729c-0.059,1.095,0.32,8.708-1.699,8.732c-2.019,0.027-9.862,0.961-11.51,0.798
			c-1.646-0.165-10.69,2.123-11.757,2.372c-1.063,0.252-8.66-0.391-9.815-1.996c-1.155-1.605-2.836-14.235-2.841-15.166
			c-0.007-0.932-1.164-10.389-1.164-10.389s-0.667-4.837-0.983-4.887c-0.315-0.049-4.056-0.182-6.509-0.661
			c-2.452-0.479-3.846-1.287-3.846-1.287s-0.347-2.142-0.227-2.542c0.119-0.4,2.282-11.863,3.042-14.65
			c0.76-2.787,12.632-6.495,13.306-6.788c0.674-0.292,14.688-2.634,15.619-2.641c0.932-0.003,9.513,2.959,11.272,3.5
			c1.76,0.542,7.419,2.134,9.588,5.517c2.167,3.38,3.823,11.472,4.076,11.683C279.154,325.162,279.152,325.164,279.187,325.548z"/>
		<path fill="#FFCBA1" d="M254.275,305.155c0,0-0.4,1.573-1.075,2.807c-4.545,2.657-5.968,0.765-8.875,0.401
			c-2.909-0.36-2.688-3.787-2.549-4.81c0.14-1.022-0.645-10.668-0.647-12.454c-0.006-1.787,2.246-12.25,10.73-10.366
			c8.484,1.886,6.41,11.708,6.41,11.708C256.506,304.025,254.275,305.155,254.275,305.155z"/>
		<path fill="#9E5A2D" d="M245.709,303.575c0,0-4.319,0.565-5.457-4.371c-1.138-4.937-0.204-4.521-0.441-9.771
			c-0.237-5.249-5.728-6.406,2.04-8.569c7.767-2.165,13.509-4.939,14.605-1.788c1.096,3.153,2.239,4.478,1.817,5.636
			c-0.421,1.159,0.384,2.971,0.301,4.104c-0.083,1.132-1.479,4.412-1.479,4.412s-3.221,1.06-3.25,1.748
			c-0.03,0.688-1.154,2.251-1.065,3.664c0.089,1.411,1.88,1.681,0.124,2.729c-1.757,1.048-3.272,2.038-3.272,2.038L245.709,303.575z
			"/>
	</g>
	<g id="Capa_4">
		<g>
			<path fill="#FFCBA1" d="M614.443,307.358c-0.659-0.1-9.542,5.441-9.542,5.441s0.853,14.19,0.639,15.346
				c-0.214,1.157,0.86,3.973,1.708,7.786c0.755,3.407,1.558,26.847,1.721,31.803c-0.313,0.583-1.399,2.624-1.569,3.229
				c-0.104,0.369-1.312,1.028-1.312,1.028s-3.146,1.726-3.939,1.968c-0.793,0.242-3.825,0.025-4.552,0.686
				c-0.727,0.662-2.546,1.517-2.546,1.517l-0.61,1.336c0,0,0.841,1.022,1.153,0.885c0.312-0.139,0.142,0.183,2.522,0.013
				c2.382-0.169,5.257-0.411,6.785-0.411c1.529,0,6.13,0.685,6.857,0.464c0.726-0.221,3.716,0.308,4.079,0.044
				c0.363-0.265,2.096-1.112,2.096-1.112v-3.027l-0.921-6.766c0.053-2.256,0.152-6.518,0.208-8.274
				c0.079-2.44,1.102-7.402,1.102-7.402s1.537-16.361,1.373-18.941c-0.163-2.579-2.324-6.592-2.324-6.592s-0.935-8.183-0.864-9.162
				c0.069-0.979,0.448-5.555,0.448-5.555l1.783,3.077l-1.249-6.884C615.9,307.594,614.654,307.391,614.443,307.358z"/>
		</g>
		<g>
			<path fill="#FFCBA1" d="M625.973,305.418c-0.659-0.1-9.542,5.441-9.542,5.441s0.853,14.19,0.639,15.346
				c-0.214,1.157,0.86,3.973,1.708,7.785c0.756,3.407,1.558,26.847,1.721,31.803c-0.313,0.583-1.398,2.624-1.569,3.228
				c-0.104,0.369-1.312,1.028-1.312,1.028s-3.145,1.726-3.939,1.968c-0.793,0.242-3.825,0.025-4.552,0.686
				c-0.726,0.662-2.546,1.518-2.546,1.518l-0.61,1.335c0,0,0.841,1.022,1.153,0.885c0.312-0.138,0.142,0.183,2.523,0.013
				c2.381-0.169,5.256-0.412,6.784-0.412c1.53,0,6.13,0.686,6.857,0.464c0.727-0.221,3.716,0.308,4.079,0.043
				s2.096-1.112,2.096-1.112v-3.027l-0.921-6.765c0.053-2.256,0.152-6.518,0.209-8.274c0.078-2.44,1.102-7.402,1.102-7.402
				s1.537-16.361,1.373-18.94c-0.164-2.58-2.325-6.592-2.325-6.592s-0.935-8.183-0.864-9.162c0.069-0.98,0.448-5.555,0.448-5.555
				l1.783,3.077l-1.249-6.884C627.43,305.654,626.185,305.451,625.973,305.418z"/>
		</g>
		<path fill="#F7931E" d="M632.296,284.276c0,0,0.549,7.621-0.374,8.562c-0.923,0.941,0.545,5.931,0.64,6.777
			c0.094,0.847-0.794,6.229-0.053,6.841c0.741,0.614,1.254,6.036,1.254,6.036s-0.373,3.283-1.189,3.701
			c-0.815,0.419-2.118,0.524-3.948,1.057c-1.829,0.532-4.484,0-4.484,0l-0.094-1.625c0,0-1.802,3.915-2.172,3.779
			c-0.371-0.137-15.944-1.209-15.944-1.209l-3.284,0.31c0,0-0.623-5.411-0.648-7.46c-0.025-2.048-0.262-8.179-0.933-9.826
			c-0.674-1.646,1.644-7.847,1.644-7.847s-0.002-12.478,2.078-12.161c2.081,0.316,24.401-3.917,24.401-3.917L632.296,284.276z"/>
		<g id="Capa_3_1_">
			<g>
				<path fill="#FFCBA1" d="M624.035,224.015c0.14,0-1.052,1.164-1.052,1.164s-6.304,7.266-7.397,7.035
					c-1.092-0.23-1.744-5.966-1.744-5.966s-0.102-1.317,0-1.773c0.102-0.457-0.067-1.103,0-1.31
					c0.067-0.206-0.928-1.023-0.928-1.023l-1.12-1.47l-1.419,0.515c0,0-1.92,0.621-2.284,0.658
					c-0.363,0.037-1.339-0.225-1.503-0.366c-0.164-0.142-1.172-2.331-1.172-2.674s-0.172-1.42-0.082-1.663s-0.445-1.281-0.445-1.281
					s-0.334-0.189-0.85-0.484c-0.518-0.293-0.385-0.439-0.393-0.687c-0.005-0.248,0.709-1.677,0.967-2.216
					c0.257-0.539,0.379-1.009,0.572-1.436c0.195-0.427-0.296-0.511-0.529-0.791c-0.233-0.279-0.312-0.57-0.08-0.975
					c0.23-0.407-0.048-3.013-0.038-3.546s1.297-3.227,1.627-3.723c0.331-0.496,4.079-2.867,5.296-3.202
					c1.219-0.334,6.016,1.121,6.301,1.138c0.286,0.015,3.707,2.598,3.839,2.625c0.132,0.026,1.282,5.133,1.495,5.792
					c0.212,0.659-0.811,3.894-0.994,4.818c-0.182,0.924-0.438,2.44-0.374,2.672c0.065,0.232,0.379,2.508,0.512,3.221
					c0.135,0.713,1.566,4.794,1.658,4.949"/>
				<path fill="#662F09" d="M622.291,218.115c0,0-0.012-1.722,0.081-1.968c0.095-0.246,0.075-0.883,0.244-1.127
					c0.172-0.243-0.424-3.285-0.424-3.285s-1.363-1.502-1.472-1.89c-0.109-0.389-4.672-4.133-5.177-4.409
					c-0.506-0.276-2.197,0.797-2.197,0.797l1.812,1.749c0,0,0.204,0.933,0.035,1.728c-0.168,0.796-0.167,0.239-0.167,0.239
					l1.08,0.792c0,0,0.925,0.572,1.255,0.88c0.329,0.308,0.575,0.402,0.575,0.402s0.377,1.356,0.256,1.427
					c-0.121,0.072,0.217,1.79,0.167,2.193c-0.05,0.404,0.253,0.75,0.264,1.07c0.01,0.319,1.044,0.733,1.044,0.733l1.307,0.915
					l1.182-0.056"/>
				<path fill="#908DFF" d="M617.883,198.243c-9.58-4.995-13.272,5.107-13.272,5.107l17.56,9.093
					C624.853,207.299,625.919,202.434,617.883,198.243z"/>
				<path fill="#908DFF" d="M595.538,197.347c0.1-0.165,0.258-0.25,0.424-0.153l9.621,5.731c0.163,0.096,0.225,0.315,0.125,0.479
					l-0.106,0.197c-0.101,0.166-0.301,0.228-0.466,0.128l-9.651-5.749c-0.167-0.099-0.164-0.28-0.063-0.444L595.538,197.347z"/>
			</g>
			<path fill="#FFF599" d="M624.656,224.474c0,0,1.805,3.861,5.693,10.824c3.892,6.963-0.957,33.893-0.582,35.63
				c0.375,1.737,0.676,8.759,0.676,8.759l-2.719,2.005l-17.004-0.826c0,0-5.51,0.592-6.853,0.315
				c-1.345-0.277-1.89-2.026-1.32-7.103c0.57-5.076-0.589-14.214-1.014-17.49c-0.425-3.277,2.72-17.101,3.076-19.462
				c0.354-2.362,5.015-6.125,5.015-6.125l4.217-4.753L624.656,224.474z"/>
			<path fill="#F9DBBD" d="M610.958,241.292l-3.5-0.625c0,0-1.256-0.011-1.554,0.816c-0.299,0.828-1.411,2.219-1.54,2.388
				c-0.129,0.169-2.115,5.129-3.193,4.383c-1.08-0.747-4.539-1.241-6.194-1.448c-0.986-0.123-5.946-2.895-9.789-5.113
				c0,0,0.002-0.004,0.002-0.004c-0.005,0.001-0.022-0.01-0.033-0.014c-0.051-0.03-0.102-0.059-0.152-0.088
				c-0.81-0.53-4.052-3.069-4.596-3.364c-0.614-0.33-1.901-0.939-2.246-1.566c-0.346-0.625-1.374-2.855-1.635-3.177
				c-0.259-0.322-0.45-1.314-0.812-1.765c-0.363-0.452-1.064-1.881-1.056-2.234c0.01-0.352-0.057-0.565-0.22-0.965
				c-0.163-0.401-0.309-0.977-0.309-0.977l-0.019-1.473c0,0,0.041-0.114-0.422-0.044c-0.464,0.067-1.167,0.876-1.264,1.631
				c-0.095,0.755-0.021,1.736,0.138,2.312s0.603,0.978,0.604,1.301c0.002,0.325-0.139,1.281-0.139,1.281s-0.959,0.222-1.551,0.246
				c-0.591,0.026-3.75,0.128-4.26,1.311s0.121,1.619,0.296,1.616c0.179-0.005-0.529,0.551-0.393,1.208
				c0.138,0.654,0.302,1.023,0.496,1.133c0.194,0.112-0.418,0.607-0.337,0.939c0.082,0.333,0.452,1.307,0.656,1.302
				c0.206-0.003,0.494,0.053,0.494,0.053s-0.128,0.373-0.058,0.555c0.069,0.185,0.224,1.196,0.448,1.311
				c0.223,0.117,0.522,0.205,0.736,0.347c0.213,0.145,0.881,0.486,1.129,0.483c0.248-0.001,3.445,0.477,4.89,0.19
				c0.169-0.032,1.128,0.456,1.128,0.456s3.637,3.354,3.884,3.239l0,0c1.184,1.003,2.571,2.212,2.802,2.559
				c0.414,0.62,6.101,3.831,7.298,5.004c0.935,0.916,8.115,3.78,8.115,3.78h5.61l2.872-1.655l8.13-8.458
				c0-0.767,1.285-1.853,0.5-3.083C614.402,242.708,612.587,242.107,610.958,241.292z"/>
		</g>
	</g>
</g>
<g id="Capa_3">
	<polygon id="La_mar_3_m" opacity="0.6" fill="#39BCC4" enable-background="new    " points="-271.129,428.114 1016.906,428.114 
		1018.487,831.691 -269.548,831.691 	"/>
	<path fill="#D8BD80" d="M1017.803,736.355c-60.988,11.027-98.52,8.284-142.024,8.133c-38.724-0.055-53.579-6.304-121.577-11.463
		c-42.002-1.268-74.992-1.493-119.479,0.772c-32.383,1.645-106.851,5.513-140.312,0.303
		c-84.757-16.253-224.804-13.743-297.555-2.497c-72.753,11.248-41.336-6.925-87.635-5.191c-46.296,1.711-38.856,8.654-62.005,2.582
		c-23.147-6.058-33.28-24.441-53.003-20.949c-2.234,1.335,0.425,12.077-49.105-13.887c-17.361-9.102-37.355-8.854-49.71-9.058
		c-12.277-0.2-39.638,6.28-55.346-5.836c-18.113-10.634-70.565,26.427-88.753,36.795c-18.189,10.412-27.254,4.315-27.254,4.315
		l2.818,116.287l1291.63,1.608L1017.803,736.355z"/>
</g>
</svg>
