<?xml version="1.0" encoding="utf-8"?>
<!-- Generator: Adobe Illustrator 16.0.0, SVG Export Plug-In . SVG Version: 6.00 Build 0)  -->
<!DOCTYPE svg PUBLIC "-//W3C//DTD SVG 1.1//EN" "http://www.w3.org/Graphics/SVG/1.1/DTD/svg11.dtd">
<svg version="1.1" id="Capa_1" xmlns="http://www.w3.org/2000/svg" xmlns:xlink="http://www.w3.org/1999/xlink" x="0px" y="0px"
	 width="800px" height="800px" viewBox="0 0 800 800" enable-background="new 0 0 800 800" xml:space="preserve">
<g id="cèl">
	<g id="Cèl_2_">
		
			<linearGradient id="SVGID_1_" gradientUnits="userSpaceOnUse" x1="416.3379" y1="1556.0098" x2="1215.5" y2="1556.0098" gradientTransform="matrix(-4.371139e-08 -1 -1 4.371139e-08 1956.5 1215.5005)">
			<stop  offset="0.1444" style="stop-color:#FFFFFF"/>
			<stop  offset="1" style="stop-color:#00C3FF"/>
		</linearGradient>
		<polygon fill="url(#SVGID_1_)" points="0,0 800,0 800.981,799.162 0.982,799.162 		"/>
	</g>
</g>
<g id="_x32_">
	<g id="Ancla_copia_2">
		<path fill="#727272" d="M746.015,724.956c0.235-0.4-0.419-1.497-0.548-1.668c-0.092-0.108-0.223-0.137-0.374-0.112
			c-0.271,0.044-0.633,0.262-0.923,0.479c-0.455,0.256-18.736,6.996-29.657,11.017c-4.881,1.797-8.729,3.216-9.343,3.45
			c-0.885,0.336-1.414,0.752-1.576,1.221c-0.129,0.377,0.033,0.647,0.042,0.659c0.463,1.19,0.854,1.115,1.507,0.864
			c0.11-0.039,0.23-0.084,0.366-0.125c0.817-0.247,33.185-11.188,34.562-11.646c0.441-0.185,1.688-0.604,2.187-0.37
			c0.568,0.271,1.426,1.836,1.764,2.612c1.592,3.692,2.358,6.42,1.938,6.796c-0.137,0.119-0.677,0.327-2.771-0.312
			c-1.188-0.363-2.413-0.872-2.709-1.024c-0.055-0.031-6.093-2.979-7.265-2.591c-0.104,0.035-0.187,0.101-0.229,0.19
			c-0.396,0.834,0.629,2.221,1.812,3.819l0.312,0.418c0.969,1.323,2.166,2.729,2.646,3.274c-0.945-0.005-3.662-0.014-4.066,0.017
			c-0.038,0.011-0.104,0.018-0.172,0.021c-0.268,0.042-0.715,0.16-0.967,0.485c-0.162,0.212-0.216,0.47-0.158,0.766
			c0.104,0.559,1,1.273,1.946,2.038c0.156,0.13,0.312,0.259,0.466,0.384c-0.043,0.025-0.082,0.061-0.133,0.088
			c-1.084,0.76-2.57,1.8-2.658,2.649c-0.021,0.218,0.041,0.405,0.196,0.564c0.705,0.748,3.127-0.004,7.604-2.354
			c3.354-1.768,7.986-5.055,8.033-5.083c1.003-0.71,2.382-2.59,2.161-4.369c-0.215-1.693-3.654-11.107-4.026-12.124
			C745.982,724.979,745.994,724.966,746.015,724.956z"/>
		<g>
			<path fill="#727272" d="M706.07,739.569c0.055-0.116,0.061-0.245,0.02-0.368c-0.084-0.248-0.354-0.383-0.618-0.292
				c-0.12,0.045-0.218,0.134-0.271,0.248c-0.057,0.116-0.062,0.247-0.021,0.369c0.077,0.217,0.312,0.348,0.531,0.312
				c0.028-0.005,0.062-0.011,0.089-0.021C705.924,739.773,706.021,739.686,706.07,739.569z"/>
			<path fill="#727272" d="M749.727,737.148c-0.189-1.597-3.443-10.524-3.97-11.94c-0.146,0.106-0.329,0.176-0.499,0.184
				c-0.207,0.021-0.384-0.057-0.497-0.192c-0.155-0.2-0.345-0.537-0.477-0.79l-0.021,0.062l-35.671,12.688
				c-1.781,0.658-2.992,1.104-3.311,1.228c-0.987,0.377-1.312,0.771-1.4,1.032c-0.087,0.248,0.005,0.417,0.021,0.447
				c0.396,1.001,0.599,0.925,1.145,0.718c0.117-0.042,0.239-0.089,0.381-0.132c0.189-0.058,2.105-0.695,4.949-1.651
				c0.4-1.054,1.64-1.479,1.692-1.502c1.146-0.432,28.232-10.589,31.021-9.604c0.738,0.258,1.613,2.342,1.709,2.567
				c0.083,0.196,2.146,4.851,2.517,6.659c0.522,2.649-2.576,4.562-3.826,5.063c-1.062,0.425-5.229,0.312-5.398,0.346l-0.003,0.001
				c-0.141,0.021-3.907-0.089-4.38-0.053c-0.322,0.023-0.744,0.068-0.936,0.334c-0.109,0.145-0.147,0.313-0.106,0.527
				c0.086,0.45,1.019,1.201,1.843,1.864c0.551,0.449,1.077,0.872,1.41,1.235c0.432,0.479,0.593,0.811,0.504,1.031
				c-0.055,0.135-0.185,0.188-0.254,0.188l-0.018-0.296c0.001,0,0.062-0.152-0.452-0.725c-0.167-0.196-0.403-0.404-0.671-0.637
				c-0.067,0.048-0.134,0.097-0.2,0.146c-0.921,0.646-2.463,1.723-2.535,2.438c-0.017,0.134,0.028,0.242,0.117,0.345
				c0.396,0.425,1.981,0.351,7.253-2.425c2.062-1.084,4.62-2.747,6.279-3.863c-3.021,0.646-9.438,0.513-11.691,0.466
				c-0.423-0.009-0.756-0.021-0.805-0.018l-0.021-0.145l-0.049-0.141c0.006-0.007,0.01-0.007,0.026-0.012
				c0.049-0.009,0.183-0.003,0.854,0.014c2.493,0.058,10.071,0.218,12.443-0.688c0.59-0.41,0.958-0.672,0.972-0.68
				C748.487,740.67,749.923,738.876,749.727,737.148z M706.34,739.692c-0.087,0.188-0.244,0.329-0.438,0.396
				c-0.408,0.147-0.854-0.07-0.991-0.468c-0.068-0.195-0.054-0.405,0.029-0.592c0.088-0.188,0.237-0.33,0.438-0.398
				c0.041-0.016,0.095-0.028,0.144-0.036c0.364-0.058,0.727,0.153,0.854,0.503C706.438,739.295,706.43,739.506,706.34,739.692z"/>
			<path fill="#727272" d="M710.751,738.659c9.646-3.244,28.956-9.771,29.21-9.854c0.169-0.062,1.71-0.688,2.411-0.354
				c0.731,0.347,1.642,2.146,1.904,2.764c1.021,2.376,2.624,6.46,1.854,7.128c-0.934,0.813-5.459-1.108-5.808-1.301
				c-0.688-0.364-6.104-2.889-7.034-2.571c-0.021,0.005-0.051,0.02-0.06,0.032c-0.32,0.68,0.697,2.068,1.781,3.533l0.312,0.418
				c1.12,1.521,2.543,3.156,2.807,3.451c0.53,0.016,4.293,0.116,5.229-0.266c1.104-0.438,4.145-2.261,3.654-4.69
				c-0.357-1.788-2.468-6.533-2.49-6.592c-0.249-0.604-1.021-2.218-1.533-2.396c-2.697-0.951-30.555,9.504-30.837,9.609
				C712.146,737.572,711.19,737.908,710.751,738.659z"/>
			<path fill="#727272" d="M744.015,724.236l0.102-0.253c-0.955,0.394-5.021,1.911-11.938,4.472L744.015,724.236z"/>
			<path fill="#727272" d="M745.748,724.803c0.104-0.179-0.304-1.055-0.527-1.337c-0.037-0.051-0.348,0.021-0.885,0.414l0.045,0.097
				c0.004,0.018,0.354,0.73,0.595,1.036c0.06,0.068,0.146,0.104,0.246,0.091C745.44,725.091,745.671,724.936,745.748,724.803z"/>
			<path fill="#727272" d="M746.003,724.953c0.234-0.399-0.417-1.497-0.547-1.666c-0.091-0.108-0.223-0.137-0.377-0.113
				c-0.272,0.043-0.63,0.264-0.92,0.479c-0.455,0.254-18.738,6.996-29.656,11.014c-4.882,1.8-8.733,3.219-9.345,3.451
				c-0.884,0.338-1.414,0.752-1.574,1.221c-0.129,0.376,0.034,0.649,0.041,0.66c0.464,1.19,0.854,1.112,1.507,0.862
				c0.111-0.036,0.231-0.083,0.365-0.124c0.819-0.246,33.18-11.188,34.559-11.646c0.448-0.185,1.694-0.604,2.188-0.369
				c0.568,0.271,1.425,1.835,1.76,2.61c1.591,3.696,2.364,6.421,1.939,6.801c-0.145,0.119-0.678,0.326-2.773-0.312
				c-1.188-0.364-2.414-0.872-2.707-1.024c-0.054-0.032-6.087-2.979-7.263-2.591c-0.108,0.031-0.188,0.102-0.231,0.188
				c-0.396,0.835,0.631,2.229,1.815,3.828l0.308,0.422c0.978,1.327,2.167,2.731,2.648,3.282c0.179,0.002,0.301,0.021,0.327,0.021
				l0.004,0.316c0,0,0.005,0.064,0.002,0.064l0.004-0.001c0.171-0.026,4.343,0.08,5.398-0.349c1.235-0.492,4.346-2.442,3.813-5.1
				c-0.355-1.812-2.418-6.438-2.506-6.64c-0.096-0.231-0.968-2.312-1.709-2.568c-2.789-0.976-29.877,9.188-31.021,9.619
				c-0.056,0.021-1.291,0.449-1.69,1.502c-2.844,0.958-4.763,1.604-4.949,1.653c-0.138,0.04-0.264,0.093-0.382,0.133
				c-0.55,0.207-0.754,0.285-1.146-0.717c-0.016-0.03-0.104-0.2-0.021-0.445c0.098-0.266,0.417-0.658,1.4-1.034
				c0.313-0.121,1.524-0.562,3.312-1.228l35.669-12.688l0.021-0.062c0.135,0.251,0.317,0.588,0.479,0.789
				c0.114,0.143,0.289,0.213,0.496,0.193c0.169-0.013,0.349-0.079,0.498-0.184c-0.038-0.116-0.068-0.188-0.072-0.193l0.275-0.104
				c0.006,0.016,0.014,0.042,0.033,0.073C745.982,724.979,745.994,724.966,746.003,724.953z M710.74,738.67
				c0.438-0.756,1.396-1.094,1.409-1.098c0.278-0.104,28.139-10.562,30.836-9.613c0.521,0.182,1.286,1.796,1.527,2.4
				c0.026,0.056,2.143,4.805,2.492,6.589c0.483,2.438-2.554,4.254-3.649,4.698c-0.936,0.366-4.694,0.271-5.229,0.26
				c-0.26-0.295-1.682-1.924-2.802-3.451l-0.312-0.418c-1.084-1.47-2.104-2.854-1.786-3.535c0.014-0.013,0.039-0.026,0.062-0.03
				c0.936-0.312,6.352,2.206,7.037,2.57c0.347,0.188,4.871,2.108,5.805,1.302c0.771-0.668-0.835-4.754-1.858-7.129
				c-0.263-0.609-1.174-2.418-1.898-2.763c-0.698-0.335-2.239,0.287-2.412,0.354C739.705,728.893,720.39,735.421,710.74,738.67z
				 M744.114,723.987l-0.103,0.254l-11.842,4.214C739.096,725.895,743.159,724.376,744.114,723.987z M745.753,724.802
				c-0.076,0.133-0.306,0.288-0.53,0.302c-0.104,0.014-0.188-0.021-0.246-0.092c-0.238-0.304-0.59-1.021-0.594-1.036l-0.045-0.096
				c0.533-0.389,0.847-0.465,0.888-0.414C745.442,723.744,745.855,724.624,745.753,724.802z"/>
			<path fill="#727272" d="M735.021,745.809c-0.069-0.062-0.152-0.133-0.232-0.188c-0.045,0.021-0.085,0.061-0.134,0.089
				c-1.085,0.761-2.572,1.8-2.658,2.646c-0.021,0.219,0.04,0.406,0.197,0.567c0.707,0.748,3.124-0.002,7.604-2.354
				c3.354-1.768,7.989-5.058,8.035-5.084c1-0.71,2.379-2.596,2.162-4.368c-0.213-1.69-3.66-11.109-4.035-12.126
				c-0.058,0.09-0.135,0.163-0.229,0.226c0.519,1.416,3.771,10.354,3.972,11.939c0.21,1.721-1.229,3.521-2.041,4.095
				c-0.009,0.008-0.38,0.271-0.975,0.687c0.007-0.003,0.016-0.013,0.021-0.014l0.104,0.271c-0.241,0.095-0.535,0.171-0.875,0.247
				c-1.664,1.122-4.226,2.783-6.279,3.87c-5.271,2.769-6.854,2.843-7.255,2.413c-0.101-0.103-0.13-0.209-0.115-0.344
				c0.071-0.721,1.612-1.799,2.534-2.438C734.896,745.896,734.959,745.854,735.021,745.809z"/>
			<path fill="#727272" d="M745.972,724.991c-0.013-0.031-0.021-0.062-0.021-0.075l-0.274,0.104c0.003,0.014,0.032,0.08,0.072,0.193
				C745.834,725.151,745.914,725.077,745.972,724.991z"/>
			<path fill="#727272" d="M737.952,742.146c-0.002,0-0.083-0.096-0.213-0.239c-0.949-0.005-3.665-0.021-4.075,0.017
				c-0.035,0.004-0.099,0.01-0.168,0.021c-0.264,0.042-0.711,0.158-0.962,0.482c-0.163,0.208-0.218,0.473-0.161,0.77
				c0.101,0.559,1,1.271,1.948,2.039c0.148,0.125,0.312,0.257,0.465,0.382c0.074-0.049,0.146-0.104,0.208-0.146l0.17,0.237
				c-0.043,0.03-0.093,0.071-0.139,0.1c0.267,0.229,0.494,0.438,0.671,0.638c0.513,0.562,0.451,0.723,0.451,0.723l0.019,0.297
				c0.067-0.004,0.198-0.053,0.254-0.188c0.088-0.228-0.073-0.554-0.505-1.032c-0.327-0.363-0.854-0.786-1.411-1.235
				c-0.822-0.663-1.751-1.414-1.841-1.86c-0.039-0.218-0.008-0.392,0.106-0.53c0.188-0.265,0.604-0.37,0.925-0.396
				c0.466-0.036,4.221-0.017,4.369-0.014l-0.064-0.007L737.952,742.146z"/>
			<path fill="#727272" d="M738.062,741.9c-0.023,0-0.146-0.006-0.324-0.002c0.137,0.146,0.211,0.231,0.214,0.235l0.042,0.054
				l0.062,0.006c0.002,0,0.013,0,0.014,0L738.062,741.9z"/>
			<path fill="#727272" d="M734.999,745.472c-0.067,0.044-0.139,0.103-0.207,0.146c0.078,0.062,0.159,0.131,0.231,0.188
				c0.045-0.024,0.097-0.062,0.141-0.098L734.999,745.472z"/>
			<path fill="#727272" d="M745.938,742.444c0.278-0.193,0.536-0.366,0.762-0.521c-2.371,0.896-9.948,0.736-12.442,0.688
				c-0.672-0.021-0.805-0.021-0.854-0.015c-0.018,0.001-0.021,0.011-0.025,0.015l0.049,0.137l0.021,0.146
				c0.049-0.004,0.383,0.015,0.804,0.019C736.506,742.952,742.918,743.087,745.938,742.444z"/>
			<path fill="#727272" d="M746.703,741.924c-0.223,0.154-0.479,0.323-0.76,0.521c0.336-0.068,0.635-0.147,0.876-0.246l-0.104-0.274
				C746.708,741.921,746.702,741.924,746.703,741.924z"/>
			<path fill="#727272" d="M706.341,739.694c0.089-0.188,0.104-0.397,0.028-0.602c-0.128-0.347-0.482-0.561-0.85-0.503
				c-0.053,0.008-0.102,0.021-0.146,0.036c-0.195,0.07-0.352,0.212-0.438,0.398c-0.093,0.188-0.104,0.396-0.028,0.592
				c0.143,0.396,0.583,0.614,0.991,0.468C706.096,740.021,706.253,739.88,706.341,739.694z M706.079,739.567
				c-0.054,0.108-0.152,0.204-0.273,0.245c-0.021,0.014-0.062,0.021-0.088,0.021c-0.229,0.037-0.454-0.095-0.532-0.312
				c-0.044-0.12-0.031-0.25,0.021-0.367c0.06-0.115,0.146-0.203,0.275-0.247c0.256-0.092,0.521,0.045,0.61,0.29
				C706.137,739.32,706.13,739.452,706.079,739.567z"/>
		</g>
	</g>
	<g id="Cadena">
		<path fill="none" stroke="#727272" stroke-width="1.5" stroke-miterlimit="10" d="M323.167,520.792c0,0,3.548-3.646,5.98-3.363
			c2.432,0.283,3.854,3.942,3.964,14.134"/>
		<path fill="none" stroke="#727272" stroke-width="3" stroke-linecap="round" stroke-miterlimit="10" stroke-dasharray="1.5,4" d="
			M323.167,520.792c0,0,226.548-3.646,228.979-3.363c2.433,0.283,3.854,3.942,3.965,14.134
			c0.107,10.192-5.489,201.062,71.36,198.982c21.059-0.569,70.686,14.477,76.161,9.457"/>
	</g>
	<g id="Barco_Petit_copia_2">
		<g>
			<g id="Capa_22_copia_1_">
				<path fill="#36627A" d="M244.99,511.463c-1.159,0.242-4.863,8.264-3.69,14.596c1.176,6.332,4.553,20.998,6.495,23.414
					c1.944,2.416,4.38,6.738,4.38,6.738s-8.572,4.604-9.938,7.618c0,0,0.003,1.229,1.05,1.07c1.047-0.166,10.188-0.664,10.618,0.355
					c0.43,1.027,1.264,6.354,1.402,7.046c0.14,0.696-0.245,3.849-0.377,4.978c-0.055,0.469-2.859,4.979-2.346,6
					c0.519,1.021,4.314,1.058,6.43,1.006c2.114-0.047,13.387-7.604,14.959-8.989c1.574-1.39,2.013-18.191,2.013-18.191
					s-3.206-21.963-2.419-22.008c0.788-0.045,6.105-2.186,7.812-4.164c1.708-1.979,1.074-11.553,0.266-13.082
					C280.829,516.319,262.372,507.797,244.99,511.463z"/>
				<path fill="#6C808C" d="M253.61,572.062c0,0,1.826-0.37,1.931-0.146c0.105,0.229,0.505,0.861,0.419,2.082
					c-0.087,1.219,0.381,2.771-0.581,2.89s-1.624,0.118-1.624,0.118s-1.604,3.959-4.077,5.156c-2.472,1.199-4.135,0.791-2.615-0.777
					c1.518-1.562,4.374-3.411,4.101-4.055c-0.271-0.641-5.061,0.015-5.061,0.015l0.043-3.87c0,0,3.661-0.354,3.843-0.279
					c0.182,0.062,1.562-0.955,0.514-1.406c-1.048-0.452-5.559,0.007-4.839-1.592c0.72-1.604,0.545-1.584,2.25-1.797
					c1.706-0.225,3.886,0.625,4.855,1.797C253.735,571.364,253.61,572.062,253.61,572.062z"/>
			</g>
			<path fill="#FF0000" d="M350.768,559.177l-17.229-14.418l-72.279-4.104c22.56-4.646,65.306-11.435,128.988-15.354
				c45.75-2.812,84.083-3.111,101.812-2.216c32.238,1.637,53.928-0.237,59.437-0.801c-0.938,0.594-2.312,1.521-3.146,2.297
				c-0.633,0.588-1.188,1.383-1.972,2.479c-1.569,2.229-3.969,5.443-9.27,10.443l-0.529,0.479
				c-35.387,17.236-83.355,22.316-117.805,23.302C382.279,562.327,352.309,559.337,350.768,559.177z"/>
			<path d="M391.102,501.454c-0.308-0.624-0.554-1.092-0.752-1.441c-0.1-0.175-0.187-0.314-0.264-0.438
				c-0.383-0.611-0.509-0.613-0.586-0.615l-0.219,0.139c-0.104,0.193-0.22,0.404-0.354,0.626c-0.089,0.146-0.184,0.299-0.285,0.45
				c-0.051,0.074-0.103,0.152-0.151,0.23c-1.396,2.021-3.712,4.411-5.104,4.045c-0.664-0.183-1.062-0.625-1.222-1.379
				c-0.021-0.089-0.033-0.187-0.044-0.273c-0.011-0.098-0.021-0.188-0.021-0.301c-0.087-2.688,2.31-7.956,5.458-11.312
				c0.485-0.521,0.988-0.982,1.502-1.396c0.286-0.229,0.61-0.459,0.953-0.655c0.549-0.312,1.146-0.537,1.7-0.511
				c0.208,0.011,0.412,0.058,0.606,0.146c0.309,0.146,0.514,0.389,0.627,0.729c0.072,0.229,0.104,0.498,0.103,0.785
				c-0.021,2.006-1.729,5.062-1.751,5.096l-0.128,0.229l2.79,0.803L391.102,501.454z M391.446,491.527
				c-0.007-0.312-0.084-0.562-0.255-0.73c-0.034-0.035-0.072-0.062-0.113-0.098c-0.104-0.065-0.229-0.104-0.357-0.104
				c-0.093,0-0.188,0.021-0.3,0.062c-0.749,0.271-1.826,1.431-2.91,2.92l-0.048-0.062l-0.049-0.061l-0.948,1.646
				c-0.471,0.733-0.921,1.496-1.322,2.235c-0.67,1.23-1.2,2.405-1.472,3.29c-0.152,0.502-0.22,0.904-0.204,1.216
				c0.004,0.077,0.018,0.146,0.029,0.215c0.044,0.195,0.136,0.347,0.271,0.438c0.062,0.039,0.133,0.062,0.205,0.062
				c0.854,0,3.619-3.352,4.767-4.979c0.042-0.062,0.083-0.119,0.121-0.179c0.07-0.108,0.141-0.216,0.191-0.304
				c0.06-0.088,0.104-0.165,0.13-0.229c0.034-0.062,0.076-0.121,0.126-0.2c0.054-0.078,0.105-0.173,0.167-0.273
				C390.153,495.267,391.478,492.879,391.446,491.527z"/>
			<path fill="#3FA9F5" d="M417.311,492.465c-1.104,0.149-4.98,0.779-8.345,1.418c-0.215,0.04-0.426,0.081-0.637,0.123
				c-0.108,0.021-0.218,0.043-0.326,0.062c-0.461,0.092-0.905,0.188-1.33,0.274c-0.133,0.029-0.263,0.062-0.391,0.097
				c-0.318,0.067-0.625,0.146-0.908,0.224c-0.115,0.03-0.228,0.062-0.333,0.095c-0.023,0.004-0.053,0.011-0.087,0.021
				c-1.036,0.229-6.941,1.604-7.823,3.137c-0.026,0.054-0.053,0.095-0.065,0.146c-0.521,1.479-1.779,9.771-1.985,11.616h-3.531
				l-1.236-3.121l0.479-4.436l0.186-0.088l0,0l0,0c-0.011-0.021-0.021-0.041-0.026-0.062c-0.015-0.021-0.021-0.042-0.031-0.062
				l3.06-5.382l0.049,0.012l0,0l0,0l0.059-0.193l0.044-0.078l0.078-0.141l4.573-9.622l0.701-0.243l0.701-0.246l2.057-11.22
				c0.101,0,0.239-0.001,0.416-0.001c1.195,0,5.197,0.033,6.348,0.473C409.966,475.632,414.598,485.84,417.311,492.465z"/>
			<path d="M389.212,495.721c0.021,0,0.035-0.004,0.049-0.007c0.04-0.011,0.074-0.03,0.104-0.059
				c-0.202,0.354-0.405,0.688-0.604,1.007c-0.11,0.227-0.329,0.56-0.604,0.948c-0.046-0.104-0.062-0.229-0.063-0.326
				c-0.002-0.174,0.034-0.312,0.034-0.314l0.062-0.213l-1.957-0.414l0.817-1.432c0.158-0.232,0.316-0.465,0.479-0.688
				C388.716,495.595,389.072,495.725,389.212,495.721z"/>
			<path d="M389.311,496.666c-0.05,0.081-0.091,0.146-0.126,0.202c-0.026,0.062-0.07,0.14-0.13,0.229
				c-0.055,0.089-0.121,0.188-0.191,0.3c-0.038,0.062-0.078,0.114-0.121,0.183c-1.146,1.637-3.91,4.979-4.767,4.979
				c-0.072,0-0.146-0.021-0.203-0.062c-0.141-0.094-0.229-0.234-0.272-0.438c-0.015-0.062-0.024-0.139-0.029-0.215
				c-0.017-0.312,0.053-0.712,0.204-1.216c0.271-0.884,0.802-2.059,1.474-3.29c0.399-0.739,0.854-1.502,1.32-2.234l0.948-1.646
				l0.049,0.061l0.048,0.062c1.083-1.487,2.161-2.649,2.91-2.92c0.107-0.038,0.207-0.062,0.3-0.062c0.137,0,0.253,0.036,0.357,0.104
				c0.042,0.021,0.08,0.062,0.113,0.097c0.171,0.173,0.248,0.427,0.255,0.73c0.027,1.354-1.293,3.733-1.974,4.858
				C389.417,496.495,389.36,496.588,389.311,496.666z M384.034,500.752c-0.324,1.066-0.188,1.328-0.13,1.383
				c0.687-0.128,2.75-2.493,3.981-4.158c-0.225-0.296-0.229-0.67-0.202-0.896l-1.755-0.371
				C385.091,498.141,384.381,499.603,384.034,500.752z M387.05,494.914l-0.822,1.432l1.957,0.414l-0.061,0.212
				c-0.001,0.003-0.037,0.146-0.035,0.313c0.001,0.104,0.021,0.225,0.063,0.328c0.275-0.396,0.493-0.729,0.604-0.949
				c0.198-0.312,0.402-0.652,0.604-1.006c-0.03,0.021-0.064,0.045-0.104,0.058c-0.013,0.002-0.023,0.006-0.049,0.007
				c-0.141,0.004-0.496-0.127-1.688-1.497C387.367,494.449,387.208,494.679,387.05,494.914z M390.847,491.043
				c-0.036-0.023-0.078-0.035-0.128-0.035c-0.579,0-1.735,1.216-2.942,2.873c0.517,0.595,1.099,1.197,1.354,1.38
				c0.146-0.214,0.412-0.299,0.636-0.325C390.692,493.202,391.396,491.409,390.847,491.043z"/>
			<path fill="#FFFFFF" stroke="#FFFFFF" stroke-miterlimit="10" d="M260.121,537.669l0.097-0.062l-0.069-5.701l3.559-2.174
				l15.577,0.271l0.037-0.018l6.453-2.392l0.275-13.308l11.64-2.845l24.903-0.066l1.312-2.411l21.093-1.172l0.138-2.14l4.386-0.443
				l-0.396-0.312c-0.006-0.01-0.619-0.495-0.604-1.098c0.014-0.347,0.232-0.678,0.664-0.979c0.32-0.229,1.261-0.493,3.908-0.493
				c2.43,0,5.401,0.219,7.57,0.379c1.07,0.079,1.918,0.146,2.413,0.155c1.479,0.047,3.122,1.162,4.016,2.179
				c0.55,0.623,0.842,1.229,0.801,1.664c-0.131,1.377-0.354,1.709-1.345,1.896l0.059,0.438l14.566-1.383l8.99-0.852l1.229,3.158
				h3.892l0.021-0.468c0.02-0.102,1.455-10.041,1.991-11.584c0.42-1.207,5.694-2.617,7.689-3.059
				c3.521-0.983,10.87-2.021,12.223-2.201l0.021,0.051l0.149-0.02c0.002,0,0.289-0.021,0.688-0.021c1.129,0,1.949,0.188,2.315,0.521
				c0.4,0.367,0.403,1.104,0.407,1.817c0.003,0.616,0.005,1.197,0.233,1.629c0.479,0.888,4.569,7.802,4.743,8.097l0.061,0.099
				l0.104,0.008c0.604,0.034,59.928,3.542,73.164,5.171c1.026,0.126,2.194,0.245,3.477,0.424
				c20.027,2.821,48.084,8.232,48.084,8.232c2.172,0.037,3.029,0.721,3.104,1.294c0.072,0.524-0.479,1.062-1.379,1.32
				c-0.021,0.019-0.629,0.319-1.453,0.812c-3.639,0.396-25.598,2.571-59.904,0.832c-17.738-0.896-56.131-0.545-101.896,2.271
				c-65.2,4.021-105.44,10.438-127.715,15.106l-0.974,0.205c-1.848-0.022-2.505-0.211-2.59-0.312
				c-0.031-0.062-0.071-0.106-0.111-0.166c-0.095-0.132-0.143-0.198-0.124-0.308C257.687,539.364,258.505,538.688,260.121,537.669z"
				/>
			<path fill="#FFFFFF" stroke="#FFFFFF" stroke-miterlimit="10" d="M350.212,559.331l0.062,0.009
				c0.25,0.022,21.625,2.256,51.065,2.256c5.101,0,10.437-0.062,15.941-0.226c34.302-0.979,82.511-5.729,117.909-22.771
				c-0.103,0.088-0.188,0.17-0.273,0.256c-1.22,1.128-2.434,2.324-3.721,3.595c-8.133,8.006-18.254,17.971-44.363,25.562
				c-6.007,1.744-12.438,2.562-20.246,2.562c-6.688,0-13.549-0.187-20.812-0.812c-7.976-0.688-16.215-1.396-25.027-1.396
				c-1.354,0-2.705,0.02-4.018,0.053c-1.324,0.035-2.875,0.055-4.609,0.055c-34.329,0-138.904-7.184-143.244-7.463l-7.756-19.854
				l71.914,3.771L350.212,559.331z"/>
		</g>
		<g id="_x33__1_">
			<path fill="#996234" d="M370.503,508.468c0,0-1.388-1.606-1.084-3.518c0.304-1.898,0.731-2.871,1.898-3.205
				s2.748-0.485,3.068-0.32c0.325,0.165,4.261,1.729,5.157,2.036c0.899,0.312,3.354,1.938,3.404,2.683
				c0.05,0.748,0.192,0.988,0.498,1.726c0.303,0.729,0.765,4.022,0.765,4.022l-5.933,0.654c0,0,0.062-2.312-0.373-2.478
				c-0.439-0.155-6.235-0.748-6.626-0.976C370.887,508.879,370.503,508.468,370.503,508.468z"/>
			<path fill="#EF45B7" d="M348.53,499.213c0,0-0.312-2.938-0.438-2.938s4.117-0.25,5.125-1c1.25-0.938,8.125-0.875,8.125-0.875
				l4.562,4.188l5.264,3.96c0,0-1.514,4.979-2.264,4.979c-0.354,0-4.109-3.401-7.5-3.5c-3.784-0.108-4.062,2.062-3.188,6.75
				c0.166,0.887-7.812-4.438-7.812-4.438s-1.506-1.125-1.878-3.125S348.53,499.213,348.53,499.213z"/>
			<path fill="#996234" d="M357.591,469.088c0.188,0.062,1.562-1.625,1.5-2.188c-0.062-0.563-0.623-0.938-0.749-0.938
				s-1.438-1.562-0.751-2.25c0.688-0.688-1.5-3.5-0.688-4.875c0.812-1.375,1.812-3.5,3.688-4.25s3.062-1.375,4-0.625
				c0.938,0.75,3.188,2.875,3.25,3.688c0.062,0.812,0.438,2.375,0,4.062c-0.438,1.688-0.438,1.938-0.5,3.75
				c-0.062,1.812-0.875,2.938-1.438,3.627c-0.563,0.689-0.312,1.623-1.375,1.873c-1.063,0.25,0.25,1.938-0.25,2.562
				c-0.5,0.625-6.375-0.938-6.25-3.375C358.088,469.003,357.591,469.088,357.591,469.088z"/>
			<path fill="#301705" d="M357.78,466.65c0,0-1.062,0-0.938-0.875s0.354-2.375-0.01-2.75s-1.49-1.062-1.115-2.125
				c0.375-1.063,0.812-1.688,0.562-2.688s0-1.812,0.812-2.312c0.812-0.5,1.445-0.375,2.379-0.812c0.938-0.438,1.688-1.5,2.746-1.688
				c1.062-0.188,2.312-0.938,3.188,0c0.876,0.938,1.5,0.938,1.75,1.562s-0.062-0.062,0.312,1.438s1.125,1.812,0.625,2.625
				c-0.5,0.812-0.938-0.688-1.375-0.75c-0.437-0.062-0.188-0.75-1.375,0c-1.187,0.75-0.75,0.5-2.5,0.125s-2.688-1.375-3.22,0.438
				c-0.53,1.812-0.22,1.5,0,2.938c0.22,1.438,0,2.062,0,2.062s-0.092-0.688-0.78-0.562c-0.688,0.125-0.812,0.25-0.75,1
				c0.062,0.75,0.438,1.625,0.312,1.875S357.78,466.65,357.78,466.65z"/>
			<path fill="#996234" d="M366.405,480.9c0,0,4.125,6.75,5.188,7.375c1.063,0.625,3.25,1.875,4.062,2.062
				c0.812,0.188,5.938,1,8.125,0.875c2.187-0.125,2.562-0.786,3.375,0.014c0.812,0.806,1.188,1.361,1.5,0.736
				c0.312-0.625,0.125-0.75,0-1.688c-0.125-0.938,0-1.438,0.875-1.562s2.213,0.875,1.854-0.25c-0.354-1.125-0.229-1.625-1.669-1.5
				c-1.438,0.125-1.688,1.188-2.688,1.312c-1,0.123-1.438,0.125-3.188-0.125s-6.688-3.188-7.75-3.25
				c-1.062-0.062-1.125-0.875-1.812-1.562c-0.688-0.688-3.438-4.062-3.438-4.062"/>
			<path fill="#8BC7E8" d="M348.091,484.338c0.25-3.5,1.5-9.062,3.625-11.5c2.125-2.438,2.75-2.375,4.312-3.062
				c1.562-0.688,2.375-0.5,2.375-0.5s0.082,2.5,1.354,2.938c1.272,0.438,4.271,1.25,4.459,0.75c0.188-0.5-0.249-0.812,0.125-1.253
				c0.374-0.438,1-1.622,1.438-1.372c0.437,0.25,2.625,1.124,2.875,2.25s0.5,2.625,1.125,3.5s1,2.25,1,2.25s0.188,0.5,0.375,1.062
				c0.187,0.562-1.625,0.5-2.812,2.812c-1.187,2.312-2.5-1.312-2.5-1.312s1.438-0.938,0.125,1.062c0,0-2,3.062-2.125,3.5
				c-0.125,0.438-0.625,1.562-0.562,2.688c0.062,1.127,0.688,2.312,0.562,3.5c-0.126,1.188,0.025,2.25-1.456,2.812
				c-1.479,0.562-3.104,0.438-4.919,0.625c-1.812,0.188-4.047,0.089-4.875,0.812c-0.828,0.723-1.625,0.125-2.625,0.375
				s-1.062,0.875-1.875,0c-0.812-0.875,0.479-3.625,0.271-4.25s-0.75-2-0.542-4.062C348.028,485.9,348.091,484.338,348.091,484.338z
				"/>
			<path fill="#996234" d="M355.317,488.556c0,0,1.323,4.354,2.066,5.188c0.744,0.828,1.935,2.75,2.562,3.494
				c0.631,0.746,6.226,6.479,6.896,6.979c0.678,0.499,3.919,3.354,3.919,3.354l4.602-0.527c0,0-3.046-3.262-4.543-4.854
				c-1.498-1.598-6.453-7.729-6.736-8.282c-0.283-0.562-1.893-2.234-2.329-3.016c-0.436-0.771-0.508-2.373-0.87-3.832
				c-0.357-1.459-0.979-3.345-0.979-3.345s-5.779-0.688-5.955,0.671C353.773,485.747,355.317,488.556,355.317,488.556z"/>
			<path fill="#996234" d="M358.341,510.713c0,0-1.271-1.708-0.833-3.583c0.438-1.875,0.937-2.812,2.12-3.062
				c1.188-0.25,2.776-0.291,3.088-0.104c0.312,0.188,4.125,2.021,5,2.396s3.205,2.166,3.205,2.916s0.125,1,0.375,1.75
				s0.562,2.875,0.562,2.875l-6.002,0.637c0,0,0.182-1.512-0.245-1.696c-0.432-0.188-6.167-1.188-6.542-1.438
				S358.341,510.713,358.341,510.713z"/>
			<path fill="#996234" d="M364.858,516.76"/>
		</g>
	</g>
	<g id="Capa_8_copia">
		<path fill="none" stroke="#000000" stroke-miterlimit="10" d="M474.895,468.8"/>
		<path fill="#F7931E" d="M463.662,503.68c-0.053-0.396-0.879-2.506-0.509-2.939c0.368-0.438,1.688-1.562,2.145-1.979
			s1.099-0.854,1.281-1.256c0.184-0.402,0.08-1.267,0.33-1.256c0.251,0.012,16.114,0.667,16.243,0.717
			c0.13,0.049,1.953,1.356,2.104,1.888c0.151,0.532,0.954,1.183,1.153,1.629c0.199,0.444,0.854,2.096,1.189,3.072
			c0.338,0.979,0.47,1.99,0.497,3.308c0.03,1.312,0.061,2.646-0.14,3.153c-0.197,0.509-0.702,1.032-0.815,1.126
			c-0.112,0.096,0.528,0.165-0.622,0.095c-1.15-0.072-5.739-1.239-6.772-0.628c-1.034,0.609-2.441,0.725-3.047,0.564
			c-0.606-0.159-0.396,0.004-0.939-0.534c-0.545-0.539-0.867-1.188-1.085-1.209c-0.219-0.02-0.048-0.36-0.702,0.312
			c-0.652,0.672-0.432,0.594-0.652,0.672c-0.225,0.077-1.829,0.751-2.267,0.729c-0.438-0.019-0.084,0.025-0.651-0.026
			c-0.568-0.057-0.452,0.314-0.568-0.057c-0.116-0.368-0.147-1.729-0.718-2.189C468.55,508.405,463.662,503.68,463.662,503.68z"/>
		<path fill="#FFCBA1" d="M488.413,482.926c0.034,0.223-0.422,5.584-0.062,6.347c0.36,0.76,1.014,3.854,1.05,4.029
			c0.034,0.176,0.19,2.591,0.062,3.505c-0.128,0.913,0.102,1.668,0.255,3.164c0.152,1.494,1.88,5.993,1.825,6.253
			c-0.056,0.262-0.058,1.312-0.058,1.312l-1.872,0.749c0,0-0.586,0.368-0.607,0.85c-0.021,0.48,0.4,0.852,0.619,0.859
			s3.224,0.359,3.714,0.163c0.491-0.197,2.021-0.174,2.465-0.285c0.442-0.111,1.111-0.389,1.111-0.389s0.562,0.111,0.021-0.48
			s-1.257-1.281-1.249-1.456c0.01-0.175-0.28-1.545-0.253-2.2c0.028-0.653-0.151-7.448-0.822-10.104
			c-0.672-2.656-1.068-4.559-0.971-4.815c0.1-0.257-0.979-9.586-0.979-9.586L488.413,482.926z"/>
		<path fill="#FFCBA1" d="M463.2,480.85l4.08,2.81c0,0-3.302,7.34-3.812,8.018c-0.512,0.681-0.227,0.165-0.512,0.681
			c-0.286,0.513-1.161,3.492-1.183,3.976c-0.021,0.479-1.717,4.132-2.156,5.204c-0.441,1.073-1.188,3.098-1.265,3.839
			c-0.075,0.74-0.404,1.252-0.064,1.486c0.34,0.23,0.938,0.564,1.151,0.706c0.213,0.142,0.608,1.054,0.515,1.216
			c-0.094,0.161-0.408,0.321-0.978,0.297c-0.566-0.025-0.95-0.042-0.95-0.042l-2.544-0.112l-3.146-0.139
			c0,0,0.145-1.264,0.365-1.341c0.222-0.078,1.159-0.477,1.298-0.646c0.14-0.169,3.495-13.725,3.824-14.232
			c0.329-0.514,1.667-4.043,1.942-4.382c0.277-0.339,3.071-8.096,3.071-8.096L463.2,480.85z"/>
		<path fill="#FFCBA1" d="M476.859,510.466c0.005-0.118-0.521,0.058-0.081-2.254c0.438-2.312,2.307-3.453,3.398-4.076
			c1.095-0.622,3.058-1.246,4.079-0.254c1.021,0.993,2.335,1.646,2.511,2.601c0.177,0.953-0.033,2.131-0.127,2.877
			c-0.093,0.746-0.808,2.648-0.825,3.083c-0.021,0.435-8.731-0.273-8.731-0.273L476.859,510.466z"/>
		<path fill="#FFCBA1" d="M468.874,511.792c0,0,1.555-1.759,1.797-1.942c0.241-0.185,2.022-0.922,2.107-1.072
			c0.085-0.152,0.45-0.523,0.061-1.358c-0.392-0.833-1.037-2.923-1.556-3.529c-0.52-0.604-4.734-1.958-5.631-1.92
			c-0.896,0.039-0.995-0.35-1.996,0.305c-1.001,0.653-1.619,1.441-1.872,1.896c-0.254,0.456-0.856,1.79-0.913,2.177
			c-0.055,0.388,0.062,2.104-0.118,2.679c-0.181,0.574-0.106,2.239-0.106,2.239L468.874,511.792z"/>
		<path fill="#FFF599" d="M461.379,480.419c0.137-0.125,0.866-4.734,2.003-6.697c1.138-1.965,4.292-3.008,5.271-3.356
			c0.979-0.352,5.747-2.242,6.271-2.265c0.526-0.02,8.495,0.945,8.883,1.095c0.39,0.146,7.185,1.937,7.685,3.49
			c0.5,1.555,2.013,7.971,2.09,8.191c0.078,0.223-0.062,1.442-0.062,1.442s-0.767,0.489-2.139,0.822s-3.479,0.505-3.657,0.539
			c-0.177,0.036-0.43,2.783-0.43,2.783s-0.412,5.367-0.392,5.896c0.021,0.523,0.057,3.68-0.556,4.614
			c-0.609,0.938-4.882,1.492-5.487,1.377c-0.608-0.111-5.771-1.174-6.696-1.038c-0.926,0.135-5.377-0.192-6.518-0.156
			c-1.141,0.038-1.783-0.253-1.846-0.869c-0.06-0.615-0.103-4.604,0.087-4.943c0.19-0.341,0.925-4.074,0.934-4.249
			c0.008-0.175-0.184-1.847-0.211-2.152c-0.03-0.31-1.159-1.496-1.456-1.729c-0.296-0.23-2.181-1.232-2.565-1.383
			c-0.388-0.148-1.228-0.973-1.218-1.191S461.379,480.419,461.379,480.419z"/>
		<path fill="#FFCBA1" d="M472.333,461.419c0,0-1.421-5.491,3.32-6.771c4.738-1.279,6.276,4.566,6.318,5.575
			c0.044,1.01-0.151,6.475-0.048,7.048c0.105,0.572,0.463,5.36-1.169,5.64s-3.684,1.151-5.489-1.599
			c-0.41-0.682-0.354-2.818-0.354-2.818S473.623,467.912,472.333,461.419z"/>
		<path fill="#908DFF" d="M481.72,459.021c0,0,0.454-5.253-5.304-4.483c-4.828,0.646-5.182,3.3-4.77,6.391l0.177-0.021
			c-3.107,6.191,6.761,3.763,9.438-1.233l0,0L481.72,459.021z"/>
	</g>
	<path fill="#FFFFFF" stroke="#FFFFFF" stroke-miterlimit="10" d="M355.641,516.58"/>
</g>
<g id="Capa_3">
	<polygon id="La_mar_3_m" opacity="0.6" fill="#39BCC4" enable-background="new    " points="0,548.5 800,548.5 800.981,799.162 
		0.982,799.162 	"/>
	<path fill="#D8BD80" d="M800.557,739.949c-37.881,6.85-61.19,5.146-88.212,5.051c-24.051-0.033-33.278-3.914-75.512-7.119
		c-26.088-0.787-46.578-0.928-74.209,0.48c-20.113,1.021-66.365,3.424-87.148,0.188c-52.643-10.095-139.626-8.536-184.812-1.551
		c-45.187,6.986-25.674-4.301-54.43-3.225c-28.755,1.062-24.134,5.375-38.512,1.604c-14.377-3.762-20.67-15.181-32.92-13.012
		c-1.388,0.829,0.264,7.501-30.5-8.625c-10.783-5.652-23.201-5.499-30.875-5.625c-7.625-0.125-24.619,3.9-34.375-3.625
		c-11.25-6.604-43.828,16.413-55.125,22.854C2.63,733.811-3,730.024-3,730.024l1.75,72.226l802.232,1L800.557,739.949z"/>
</g>
<g id="Bimbolles">
	<circle opacity="0.5" fill="#FFFFFF" enable-background="new    " cx="263.247" cy="577.493" r="2.824"/>
	<circle opacity="0.5" fill="#FFFFFF" enable-background="new    " cx="271.927" cy="566.957" r="1.936"/>
	<circle opacity="0.5" fill="#FFFFFF" enable-background="new    " cx="290.571" cy="571.696" r="2.391"/>
	<circle opacity="0.5" fill="#FFFFFF" enable-background="new    " cx="252.447" cy="576.612" r="2.824"/>
	<circle opacity="0.5" fill="#FFFFFF" enable-background="new    " cx="285.703" cy="583.447" r="2.824"/>
	<circle opacity="0.5" fill="#FFFFFF" enable-background="new    " cx="283.988" cy="568.407" r="2.824"/>
	<circle opacity="0.5" fill="#FFFFFF" enable-background="new    " cx="275.408" cy="577.388" r="2.824"/>
	<circle opacity="0.3" fill="#FFFFFF" enable-background="new    " cx="253.77" cy="580.729" r="2.824"/>
	<circle opacity="0.5" fill="#FFFFFF" enable-background="new    " cx="255.344" cy="571.428" r="1.568"/>
	<circle opacity="0.5" fill="#FFFFFF" enable-background="new    " cx="251.711" cy="575.153" r="1.568"/>
	<circle opacity="0.5" fill="#FFFFFF" enable-background="new    " cx="262.014" cy="570.143" r="1.568"/>
	<circle opacity="0.5" fill="#FFFFFF" enable-background="new    " cx="265.434" cy="567.539" r="1.568"/>
	<circle opacity="0.5" fill="#FFFFFF" enable-background="new    " cx="280.808" cy="586.704" r="1.568"/>
	<circle opacity="0.5" fill="#FFFFFF" enable-background="new    " cx="281.658" cy="575.775" r="1.568"/>
	<circle opacity="0.5" fill="#FFFFFF" enable-background="new    " cx="268.819" cy="573.096" r="1.568"/>
	<circle opacity="0.5" fill="#FFFFFF" enable-background="new    " cx="271.131" cy="584.351" r="1.568"/>
	<circle opacity="0.5" fill="#FFFFFF" enable-background="new    " cx="257.412" cy="579.326" r="0.747"/>
	<circle opacity="0.5" fill="#FFFFFF" enable-background="new    " cx="268.545" cy="579.088" r="0.747"/>
	<circle opacity="0.5" fill="#FFFFFF" enable-background="new    " cx="277.122" cy="569.265" r="0.747"/>
	<circle opacity="0.5" fill="#FFFFFF" enable-background="new    " cx="258.122" cy="575.446" r="0.747"/>
	<circle opacity="0.5" fill="#FFFFFF" enable-background="new    " cx="245.995" cy="577.774" r="0.747"/>
	<circle opacity="0.5" fill="#FFFFFF" enable-background="new    " cx="245.452" cy="573.297" r="0.747"/>
	<circle opacity="0.5" fill="#FFFFFF" enable-background="new    " cx="249.02" cy="572.938" r="0.747"/>
	<circle opacity="0.5" fill="#FFFFFF" enable-background="new    " cx="260.492" cy="583.457" r="0.747"/>
	<circle opacity="0.5" fill="#FFFFFF" enable-background="new    " cx="278.987" cy="564.028" r="0.747"/>
	<circle opacity="0.5" fill="#FFFFFF" enable-background="new    " cx="288.474" cy="565.21" r="0.747"/>
	<circle opacity="0.5" fill="#FFFFFF" enable-background="new    " cx="258.444" cy="568.41" r="0.747"/>
	<circle opacity="0.5" fill="#FFFFFF" enable-background="new    " cx="249.039" cy="578.433" r="0.746"/>
	<circle opacity="0.5" fill="#FFFFFF" enable-background="new    " cx="251.674" cy="570.46" r="0.798"/>
	<circle opacity="0.2" fill="#FFFFFF" enable-background="new    " cx="281.313" cy="575.659" r="5.476"/>
	<circle opacity="0.1" fill="#FFFFFF" enable-background="new    " cx="271.015" cy="574.359" r="8.006"/>
	<circle opacity="0.1" fill="#FFFFFF" enable-background="new    " cx="253.948" cy="576.824" r="8.006"/>
	<circle opacity="0.1" fill="#FFFFFF" enable-background="new    " cx="262.124" cy="573.308" r="8.006"/>
	<circle display="none" opacity="0.1" fill="#FFFFFF" enable-background="new    " cx="284.379" cy="569.464" r="8.006"/>
	<circle opacity="0.1" fill="#FFFFFF" enable-background="new    " cx="288.214" cy="580.144" r="8.006"/>
	<circle display="none" opacity="0.1" fill="#FFFFFF" enable-background="new    " cx="270.081" cy="583.513" r="8.006"/>
	<circle opacity="0.1" fill="#FFFFFF" enable-background="new    " cx="279.602" cy="583.948" r="8.006"/>
	<path display="none" opacity="0.1" fill="#FFFFFF" enable-background="new    " d="M276.924,617.768
		c6.52,0.298,12.046-4.745,12.345-11.266c0.298-6.519-4.745-12.046-11.265-12.345c-6.519-0.298-12.044,4.746-12.343,11.265
		C265.363,611.942,270.406,617.469,276.924,617.768z"/>
	<path display="none" opacity="0.1" fill="#FFFFFF" enable-background="new    " d="M255.821,638.502
		c6.52,0.298,12.046-4.744,12.345-11.266c0.298-6.518-4.745-12.046-11.265-12.344c-6.518-0.298-12.045,4.745-12.343,11.265
		C244.26,632.678,249.303,638.204,255.821,638.502z"/>
	<g>
		<circle opacity="0.5" fill="#FFFFFF" enable-background="new    " cx="301.754" cy="576.716" r="4.168"/>
		<circle opacity="0.5" fill="#FFFFFF" enable-background="new    " cx="314.566" cy="561.165" r="2.857"/>
		<circle opacity="0.5" fill="#FFFFFF" enable-background="new    " cx="342.082" cy="568.161" r="3.529"/>
		<circle opacity="0.5" fill="#FFFFFF" enable-background="new    " cx="341.546" cy="593.866" r="4.168"/>
		<circle opacity="0.5" fill="#FFFFFF" enable-background="new    " cx="334.898" cy="585.505" r="4.168"/>
		<circle opacity="0.5" fill="#FFFFFF" enable-background="new    " cx="332.366" cy="563.306" r="4.168"/>
		<circle opacity="0.5" fill="#FFFFFF" enable-background="new    " cx="319.703" cy="576.562" r="4.168"/>
		<circle opacity="0.3" fill="#FFFFFF" enable-background="new    " cx="287.766" cy="581.493" r="4.168"/>
		<circle opacity="0.5" fill="#FFFFFF" enable-background="new    " cx="290.09" cy="567.765" r="2.314"/>
		<circle opacity="0.5" fill="#FFFFFF" enable-background="new    " cx="284.728" cy="573.263" r="2.314"/>
		<circle opacity="0.5" fill="#FFFFFF" enable-background="new    " cx="299.934" cy="565.867" r="2.314"/>
		<circle opacity="0.5" fill="#FFFFFF" enable-background="new    " cx="304.981" cy="562.025" r="2.314"/>
		<circle opacity="0.5" fill="#FFFFFF" enable-background="new    " cx="327.673" cy="590.311" r="2.314"/>
		<circle opacity="0.5" fill="#FFFFFF" enable-background="new    " cx="328.927" cy="574.182" r="2.314"/>
		<circle opacity="0.5" fill="#FFFFFF" enable-background="new    " cx="309.978" cy="570.226" r="2.314"/>
		<circle opacity="0.5" fill="#FFFFFF" enable-background="new    " cx="313.391" cy="586.837" r="2.314"/>
		<circle opacity="0.5" fill="#FFFFFF" enable-background="new    " cx="293.142" cy="579.422" r="1.102"/>
		<circle opacity="0.5" fill="#FFFFFF" enable-background="new    " cx="309.574" cy="579.07" r="1.102"/>
		<circle opacity="0.5" fill="#FFFFFF" enable-background="new    " cx="322.232" cy="564.572" r="1.102"/>
		<circle opacity="0.5" fill="#FFFFFF" enable-background="new    " cx="294.19" cy="573.695" r="1.102"/>
		<circle opacity="0.5" fill="#FFFFFF" enable-background="new    " cx="276.291" cy="577.131" r="1.102"/>
		<circle opacity="0.5" fill="#FFFFFF" enable-background="new    " cx="275.49" cy="570.523" r="1.102"/>
		<circle opacity="0.5" fill="#FFFFFF" enable-background="new    " cx="280.756" cy="569.992" r="1.102"/>
		<circle opacity="0.5" fill="#FFFFFF" enable-background="new    " cx="297.688" cy="585.52" r="1.102"/>
		<circle opacity="0.5" fill="#FFFFFF" enable-background="new    " cx="324.985" cy="556.843" r="1.102"/>
		<circle opacity="0.5" fill="#FFFFFF" enable-background="new    " cx="338.987" cy="558.587" r="1.102"/>
		<circle opacity="0.5" fill="#FFFFFF" enable-background="new    " cx="294.666" cy="563.311" r="1.102"/>
		<circle opacity="0.5" fill="#FFFFFF" enable-background="new    " cx="280.783" cy="578.104" r="1.102"/>
		<circle opacity="0.5" fill="#FFFFFF" enable-background="new    " cx="284.673" cy="566.337" r="1.178"/>
		<circle opacity="0.2" fill="#FFFFFF" enable-background="new    " cx="328.418" cy="574.01" r="8.082"/>
		<path opacity="0.1" fill="#FFFFFF" enable-background="new    " d="M312.679,583.896c6.52,0.299,12.046-4.744,12.345-11.265
			c0.298-6.52-4.745-12.047-11.265-12.345c-6.519-0.299-12.045,4.746-12.344,11.264
			C301.118,578.072,306.161,583.598,312.679,583.896z"/>
		<path opacity="0.1" fill="#FFFFFF" enable-background="new    " d="M287.488,587.535c6.52,0.299,12.047-4.744,12.345-11.265
			c0.298-6.52-4.745-12.047-11.264-12.345c-6.519-0.299-12.045,4.745-12.344,11.265
			C275.927,581.711,280.971,587.236,287.488,587.535z"/>
		<circle opacity="0.1" fill="#FFFFFF" enable-background="new    " cx="304.981" cy="589.15" r="11.816"/>
		<circle opacity="0.1" fill="#FFFFFF" enable-background="new    " cx="338.604" cy="580.629" r="11.816"/>
		<path opacity="0.1" fill="#FFFFFF" enable-background="new    " d="M325.353,598.05c6.52,0.298,12.046-4.745,12.345-11.267
			c0.298-6.519-4.745-12.046-11.265-12.344c-6.519-0.298-12.045,4.745-12.344,11.265C313.792,592.225,318.834,597.75,325.353,598.05
			z"/>
	</g>
</g>
</svg>
