<?xml version="1.0" encoding="utf-8"?>
<!-- Generator: Adobe Illustrator 16.0.0, SVG Export Plug-In . SVG Version: 6.00 Build 0)  -->
<!DOCTYPE svg PUBLIC "-//W3C//DTD SVG 1.1//EN" "http://www.w3.org/Graphics/SVG/1.1/DTD/svg11.dtd">
<svg version="1.1" id="Capa_1" xmlns="http://www.w3.org/2000/svg" xmlns:xlink="http://www.w3.org/1999/xlink" x="0px" y="0px"
	 width="800px" height="800px" viewBox="0 0 800 800" enable-background="new 0 0 800 800" xml:space="preserve">
<g id="Cara_a_cara">
	<rect x="-22" y="-9" fill="#42C9CC" width="840" height="843"/>
	
		<line fill="none" stroke="#EA3434" stroke-width="3" stroke-miterlimit="10" stroke-dasharray="15,15" x1="667.761" y1="142.739" x2="128.239" y2="682.262"/>
	
		<line fill="none" stroke="#1AB737" stroke-width="3" stroke-miterlimit="10" stroke-dasharray="15,15" x1="952.761" y1="129.739" x2="572.164" y2="510.336"/>
	
		<line fill="none" stroke="#1AB737" stroke-width="3" stroke-miterlimit="10" stroke-dasharray="15,15" x1="224.761" y1="317.739" x2="-155.836" y2="698.336"/>
	<g>
		<path fill="#F80606" d="M540.729,261.144c-0.021,0.022-0.047,0.043-0.067,0.065l-0.032-0.032L540.729,261.144z"/>
		<path fill="#F80606" d="M550.846,271.395L550.846,271.395c0.021-0.023,0.044-0.044,0.066-0.067L550.846,271.395z"/>
		<path fill="#F80606" d="M399.945,283.337c-45.455-34.234-99.5-31.525-139.76,8.439l7.237,7.237l-29.642,5.509l5.507-29.644
			l6.4,6.4l0.68-0.68l0.156,0.157c46.137-44.966,106.318-44.437,158.889-6.886c39.099,27.928,90.595,27.935,130.734-12.149
			l10.187,10.186C504.751,317.425,442.995,315.761,399.945,283.337z"/>
	</g>
	<g>
		
			<linearGradient id="SVGID_1_" gradientUnits="userSpaceOnUse" x1="536.7441" y1="-470.9756" x2="536.7441" y2="-669.25" gradientTransform="matrix(-0.7085 -0.7057 -0.7057 0.7085 655.5776 917.4998)">
			<stop  offset="0" style="stop-color:#FFFFFF;stop-opacity:0.8"/>
			<stop  offset="0.9306" style="stop-color:#FFFFFF;stop-opacity:0"/>
		</linearGradient>
		<path fill="url(#SVGID_1_)" d="M680.267,40.162c-4.188,5.689-20.043,15.171-27.436,25.067
			c-7.394,9.897-10.217,24.119-16.325,33.221c-6.106,9.1-14.021,13.084-21.41,23.969c-7.392,10.884-6.635,22.502-11.312,30.666
			c-4.682,8.161-15.834,20.458-16.654,28.9c-0.82,8.443,21.896,27.484,21.896,27.484s15.21,16.652,21.747,15.991
			c8.438-0.853,20.691-12.055,28.837-16.765c8.143-4.71,19.765-3.998,30.62-11.431c10.855-7.434,14.81-15.361,23.887-21.504
			c9.078-6.143,23.289-9.021,33.157-16.452c9.866-7.432,19.285-23.322,24.961-27.533c5.675-4.21,17.4-8.558,27.021-15.74
			l-50.002-49.81l-3.349-3.335l-50.001-49.81C688.758,22.728,684.456,34.471,680.267,40.162z"/>
		
			<linearGradient id="SVGID_2_" gradientUnits="userSpaceOnUse" x1="536.3975" y1="-470.9751" x2="536.3975" y2="-669.249" gradientTransform="matrix(-0.7085 -0.7057 -0.7057 0.7085 655.5776 917.4998)">
			<stop  offset="0" style="stop-color:#FFFFFF;stop-opacity:0.8"/>
			<stop  offset="1" style="stop-color:#FFFFFF;stop-opacity:0"/>
		</linearGradient>
		<path opacity="0.5" fill="url(#SVGID_2_)" enable-background="new    " d="M695.614,55.449
			c-4.189,5.691-20.043,15.172-27.438,25.069c-7.393,9.895-10.217,24.118-16.323,33.218c-6.107,9.103-14.021,13.085-21.412,23.97
			c-7.392,10.886-6.635,22.503-11.312,30.665c-4.681,8.162-15.834,20.458-16.654,28.902c-0.818,8.441,4.567,10.222,4.567,10.222
			s2.34,3.829,8.876,3.168c8.439-0.852,20.693-12.056,28.837-16.765c8.144-4.71,19.765-3.999,30.621-11.432
			c10.854-7.432,14.809-15.361,23.888-21.503c9.076-6.142,23.288-9.021,33.156-16.452c9.866-7.432,19.286-23.324,24.959-27.533
			c5.675-4.211,17.402-8.558,27.023-15.74L747.273,64.25l-3.35-3.334L711.25,28.365C704.104,38.016,699.803,49.759,695.614,55.449z"
			/>
		<g id="Capa_4_2_">
			<path fill="#D1D1D1" d="M662.931,190.62l-41.146-40.987l-49.58,48.254c0,0-44.266,36.842-32.959,75.888
				c37.71,10.882,74.952-32.026,74.952-32.026L662.931,190.62z"/>
			<path fill="#F4F4F4" d="M549.959,263.307c0,0-18.5-17.062,16.251-53.189c34.753-36.128,40.971-37.452,40.971-37.452
				l33.095,32.966l-9.192,12.327l-30.411,30.527C600.67,248.488,568.006,279.134,549.959,263.307z"/>
			<path fill="#E8E8E8" d="M549.529,263.314c13.508,13.976,35.4,0.718,53.067-14.807l26.983-27.998l19.113-20.57l-8.224-13.144
				l-3.771,0.333l-11.407-11.467c0,0,0.27-3.169-0.077-3.513c-1.944-1.938-12.834-8.108-12.834-8.108s-13.752,13.195-19.945,19.128
				c-0.209,0.202-28.054,26.589-28.384,26.942C548.109,227.289,534.841,248.115,549.529,263.314z M592.476,184.372
				c0.378-0.517,20.534-17.092,20.534-17.092s8.473,5.801,10.308,7.629c0.325,0.325,0.051,3.335,0.051,3.335l10.771,10.827
				l3.585-0.338l7.942,11.073l-17.164,20.406c-16.047,16.566-16.595,16.477-27.05,27.153c-17.414,14.965-39.533,27.257-51.28,14.936
				c-11.672-12.244,0.202-33.877,15.104-50.971C565.902,210.716,592.339,184.788,592.476,184.372z"/>
			<path fill="#FFFFFF" d="M581.984,230.438l-0.172,0.16l6.303,4.649l4.525-0.065c2.139,0.341,6.879-3.942,6.879-3.942l8.355-8.389
				l0.954-2.694l-7.196-5.037l-5.687,1.229l-2.826,2.911L581.984,230.438z"/>
			<path fill="#FFFFFF" d="M582.099,230.55l-0.286,0.048l-4.355-5.969l0.089-4.485c-0.35-2.136,3.959-6.852,3.959-6.852l8.354-8.389
				l2.607-1.046l5.021,7.134l-1.283,5.616l-2.97,2.77L582.099,230.55z"/>
			<path fill="#C6C6C6" d="M588.537,207.863c-0.24,0.275-1.612,6.521-1.612,6.521l10.94,11.129l6.699-1.178l0.55-0.553l0.272-0.277
				l0.276-0.275l3.122-3.134l-16.28-16.217C592.506,203.88,588.779,207.587,588.537,207.863z"/>
			<path fill="#394963" d="M642.52,158.057c0.817-0.812,2.143-0.809,2.953,0.01l8.565,8.624c0.812,0.818,0.808,2.142-0.011,2.955
				l-13.249,13.159c-0.817,0.813-2.143,0.809-2.954-0.01l-8.564-8.625c-0.812-0.818-0.807-2.141,0.01-2.953L642.52,158.057z"/>
			<path fill="#29ABE2" d="M582.749,217.078l5.581,5.56l2.129,2.118l5.028,5.01c0,0,3.853-0.645,9.671-5.958
				c0.034-0.03-0.229-0.347-0.229-0.347c-1.758,0.301-6.152,1.439-6.152,1.439l-5.336-5.264l-5.829-5.873
				c0,0,1.135-4.411,1.427-6.171c0,0-0.336-0.242-0.367-0.208C583.38,213.223,582.749,217.078,582.749,217.078z"/>
			<g id="Timó_3_">
				<path d="M605.385,219.323c2.235-2.243-4.999-9.773-7.414-7.345C595.848,214.109,603.041,221.676,605.385,219.323z
					 M604.717,218.707c-1.598,1.604-7.568-4.617-6.12-6.07C600.242,210.983,606.24,217.179,604.717,218.707z"/>
				<path d="M601.367,217.816c0,0,0.679-0.718-0.166-1.54c-0.846-0.826-1.354-0.093-1.432-0.05
					C599.694,216.27,601.367,217.816,601.367,217.816z"/>
				<polygon points="601.5,216.509 603.551,214.883 602.446,213.783 600.906,215.916 				"/>
				<path d="M600.237,216.277c-0.02-0.018-1.533-3.863-1.533-3.863l-0.79,0.585l1.91,3.52L600.237,216.277z"/>
				<path d="M601.357,217.395c0.019,0.017,3.948,1.594,3.948,1.594l-0.687,0.69l-3.425-1.793L601.357,217.395z"/>
			</g>
			<g id="Tapiceria_3_">
				<path fill="#E8CDA0" d="M565.275,211.33c0,0,9.111,8.94,1.556,20.53c-7.558,11.59-19.521,25.944-19.655,26.36
					C547.039,258.632,536.81,241.84,565.275,211.33z"/>
				<path fill="#E8CDA0" d="M601.451,247.366c0,0-8.977-9.078-20.536-1.476c-11.562,7.601-25.87,19.617-26.282,19.756
					C554.22,265.786,571.051,275.95,601.451,247.366z"/>
				<path fill="#E8CDA0" d="M638.238,209.054c0,0-1.555,2.885-2.962-0.062c-4.637-9.707-20.998-27.107-31.822-31.427
					c-2.271-0.906-1.849-1.283-0.729-2.307c0.84-0.769,10.285-7.977,10.285-7.977s17.93,7.958,32.654,32.528L638.238,209.054z"/>
				<path fill="#E8CDA0" d="M602.576,193.207c0.458-0.462,1.134-0.164,1.771,0.473l14.566,14.509
					c0.64,0.636,1.142,1.514,0.685,1.974l-4.84,4.858c-0.459,0.46-1.622,0.246-2.262-0.391l-14.563-14.51
					c-0.642-0.637-0.656-1.596-0.198-2.058L602.576,193.207z"/>
			</g>
		</g>
		<g>
			<path fill="#996234" d="M607.293,216.333c0,0-1.763,0.194-0.576-1.729c1.186-1.923,2.021-4.193,2.021-4.193
				s-2.159-1.184-2.844-0.953c-0.684,0.23-2.573,2.51-4.548,1.588c-1.975-0.923-2.959-1.247-0.152-2.824
				c2.807-1.577,4.575-2.902,4.575-2.902l7.381,4.673l-5.513,5.995"/>
			<path fill="#EF45B7" d="M611.74,210.342c0,0-1.053,5.458-2.106,4.169c-1.057-1.292,0.451-1.583-0.962-3.146
				c-1.414-1.564-2.359-0.208-3.563-2.659c-1.207-2.449-2.438-2.579-1.141-3.269c1.3-0.689,1.794-1.051,1.794-1.051L611.74,210.342z
				"/>
			<path fill="#996234" d="M613.814,211.762c0,0-2.49,2.703-3.092,3.445c-1.124,1.389-4.796,2.933-5.271,3.41
				c-0.477,0.478-1.049,0.903-0.978-0.435c0.075-1.336,3.062-3.093,4.515-4.014c1.455-0.921,2.125-3.137,2.477-3.548
				c0.352-0.412,0.594,0.927,0.594,0.927L613.814,211.762z"/>
			<path fill="#996234" d="M605.804,203.453c0,0-3.572,1.954-4.312,2.555c-1.385,1.13-2.915,4.808-3.393,5.285
				c-0.475,0.476-0.897,1.053,0.439,0.974c1.335-0.079,3.082-3.071,3.998-4.528c0.916-1.457,3.533-1.493,3.944-1.846
				c0.408-0.354-1.337-1.234-1.337-1.234L605.804,203.453z"/>
			<path fill="#8BC7E8" d="M614.967,212.91c0,0,2.724-3.708,1.379-6.346c-1.344-2.638-1.809-3.552-4.371-4.561
				c-2.562-1.008-3.087-2.381-4.561-0.63c-1.473,1.75-3.39,1.509-2.09,3.307c1.397,1.939,5.586,6.72,5.858,7.065
				C612.864,213.868,614.967,212.91,614.967,212.91z"/>
			<path fill="#301705" d="M613.965,204.194c0,0,1.633,1.981-0.127,3.203c-1.756,1.223-1.507,2.558-3.25,1.751
				c-1.744-0.805-3.62-0.191-2.943-2c0.68-1.807,0.931-2.875,2.211-3.344c1.28-0.471,1.407-0.77,2.479-0.811
				C613.403,202.954,613.965,204.194,613.965,204.194z"/>
		</g>
	</g>
	<g>
		<path fill="#F80606" d="M263.641,559.35c0.022-0.022,0.046-0.044,0.069-0.065l0.032,0.032L263.641,559.35z"/>
		<path fill="#F80606" d="M253.524,549.099L253.524,549.099c-0.021,0.022-0.044,0.044-0.067,0.066L253.524,549.099z"/>
		<path fill="#F80606" d="M403.994,537.585c45.456,34.236,99.501,31.526,139.761-8.438l-7.237-7.236l29.643-5.509l-5.507,29.643
			l-6.4-6.4l-0.68,0.682l-0.156-0.156c-46.137,44.965-106.317,44.438-158.889,6.886c-39.1-27.929-90.595-27.935-130.736,12.147
			l-10.185-10.185C299.869,502.817,360.944,505.162,403.994,537.585z"/>
	</g>
	<g>
		
			<linearGradient id="SVGID_3_" gradientUnits="userSpaceOnUse" x1="421.4736" y1="-120.9639" x2="421.4736" y2="-319.2373" gradientTransform="matrix(0.7085 0.7057 0.7057 -0.7085 -19.189 234.3815)">
			<stop  offset="0" style="stop-color:#FFFFFF;stop-opacity:0.8"/>
			<stop  offset="0.9306" style="stop-color:#FFFFFF;stop-opacity:0"/>
		</linearGradient>
		<path fill="url(#SVGID_3_)" d="M121.454,782.387c4.188-5.688,20.042-15.171,27.436-25.065c7.393-9.897,10.216-24.12,16.324-33.223
			c6.108-9.1,14.022-13.084,21.411-23.969c7.391-10.884,6.635-22.503,11.313-30.666c4.68-8.16,15.834-20.457,16.654-28.898
			c0.82-8.442-21.895-27.483-21.895-27.483s-15.209-16.652-21.747-15.991c-8.44,0.854-20.692,12.057-28.837,16.766
			c-8.144,4.71-19.765,3.999-30.621,11.432c-10.857,7.434-14.809,15.361-23.887,21.505s-23.288,9.021-33.156,16.451
			c-9.868,7.432-19.287,23.322-24.961,27.533c-5.674,4.21-17.401,8.558-27.022,15.74l50.002,49.809l3.349,3.336l50,49.81
			C112.963,799.821,117.264,788.077,121.454,782.387z"/>
		
			<linearGradient id="SVGID_4_" gradientUnits="userSpaceOnUse" x1="421.123" y1="-120.9634" x2="421.123" y2="-319.2363" gradientTransform="matrix(0.7085 0.7057 0.7057 -0.7085 -19.189 234.3815)">
			<stop  offset="0" style="stop-color:#FFFFFF;stop-opacity:0.8"/>
			<stop  offset="1" style="stop-color:#FFFFFF;stop-opacity:0"/>
		</linearGradient>
		<path opacity="0.5" fill="url(#SVGID_4_)" enable-background="new    " d="M106.106,767.1c4.189-5.69,20.044-15.172,27.437-25.068
			s10.217-24.117,16.324-33.219c6.108-9.103,14.021-13.085,21.413-23.971c7.391-10.885,6.633-22.502,11.312-30.664
			c4.68-8.162,15.833-20.459,16.655-28.901c0.818-8.441-4.569-10.224-4.569-10.224s-2.338-3.828-8.875-3.168
			c-8.438,0.854-20.693,12.057-28.836,16.767c-8.144,4.71-19.765,3.997-30.621,11.431c-10.856,7.433-14.81,15.361-23.888,21.505
			c-9.077,6.141-23.288,9.021-33.156,16.451c-9.867,7.431-19.287,23.323-24.96,27.532c-5.674,4.211-17.402,8.559-27.023,15.739
			l37.13,36.988l3.348,3.334l32.674,32.55C97.616,784.532,101.917,772.789,106.106,767.1z"/>
		<g id="Capa_4_3_">
			<path fill="#D1D1D1" d="M138.79,631.93l41.145,40.986l49.581-48.254c0,0,44.266-36.844,32.959-75.891
				c-37.71-10.882-74.952,32.026-74.952,32.026L138.79,631.93z"/>
			<path fill="#F4F4F4" d="M251.761,559.241c0,0,18.5,17.062-16.25,53.189c-34.753,36.128-40.971,37.451-40.971,37.451
				l-33.094-32.967l9.192-12.327l30.411-30.527C201.05,574.06,233.714,543.414,251.761,559.241z"/>
			<path fill="#E8E8E8" d="M252.191,559.234c-13.509-13.977-35.402-0.719-53.068,14.807l-26.983,27.998l-19.115,20.57l8.225,13.144
				l3.771-0.334l11.408,11.468c0,0-0.271,3.169,0.077,3.515c1.943,1.938,12.833,8.107,12.833,8.107s13.752-13.196,19.946-19.129
				c0.208-0.202,28.054-26.589,28.383-26.942C253.61,595.26,266.879,574.434,252.191,559.234z M209.245,638.176
				c-0.378,0.518-20.535,17.092-20.535,17.092s-8.471-5.801-10.306-7.629c-0.327-0.326-0.051-3.336-0.051-3.336l-10.771-10.827
				l-3.584,0.339l-7.942-11.071l17.163-20.406c16.046-16.567,16.595-16.478,27.05-27.153c17.414-14.965,39.533-27.258,51.28-14.936
				c11.672,12.244-0.203,33.878-15.105,50.971C235.817,611.832,209.381,637.761,209.245,638.176z"/>
			<path fill="#FFFFFF" d="M219.736,592.109l0.172-0.159l-6.304-4.649l-4.526,0.065c-2.137-0.342-6.878,3.941-6.878,3.941
				l-8.355,8.39l-0.955,2.692l7.197,5.038l5.687-1.229l2.826-2.911L219.736,592.109z"/>
			<path fill="#FFFFFF" d="M219.622,591.998l0.287-0.048l4.356,5.969l-0.088,4.485c0.349,2.136-3.959,6.852-3.959,6.852
				l-8.355,8.389l-2.608,1.049l-5.022-7.137l1.284-5.614l2.969-2.771L219.622,591.998z"/>
			<path fill="#C6C6C6" d="M213.183,614.685c0.24-0.274,1.612-6.521,1.612-6.521l-10.941-11.13l-6.699,1.179l-0.55,0.553
				l-0.274,0.276l-0.275,0.276l-3.122,3.133l16.28,16.218C209.214,618.669,212.941,614.961,213.183,614.685z"/>
			<path fill="#394963" d="M159.201,664.49c-0.818,0.812-2.143,0.81-2.954-0.009l-8.565-8.624c-0.811-0.819-0.808-2.143,0.011-2.955
				l13.249-13.159c0.819-0.812,2.143-0.809,2.954,0.011l8.565,8.625c0.812,0.818,0.807,2.143-0.01,2.952L159.201,664.49z"/>
			<path fill="#29ABE2" d="M218.971,605.47l-5.581-5.56l-2.128-2.118l-5.029-5.01c0,0-3.853,0.644-9.67,5.958
				c-0.035,0.029,0.229,0.347,0.229,0.347c1.759-0.302,6.154-1.438,6.154-1.438l5.335,5.264l5.829,5.873c0,0-1.134,4.41-1.427,6.171
				c0,0,0.336,0.242,0.367,0.208C218.34,609.325,218.971,605.47,218.971,605.47z"/>
			<g id="Timó_4_">
				<path d="M196.334,603.225c-2.234,2.243,5,9.772,7.416,7.347C205.874,608.438,198.679,600.873,196.334,603.225z M197.003,603.841
					c1.597-1.604,7.568,4.618,6.12,6.07C201.477,611.565,195.48,605.37,197.003,603.841z"/>
				<path d="M200.353,604.731c0,0-0.679,0.718,0.167,1.541s1.353,0.092,1.431,0.05C202.025,606.279,200.353,604.731,200.353,604.731
					z"/>
				<polygon points="200.22,606.04 198.17,607.665 199.274,608.766 200.814,606.633 				"/>
				<path d="M201.483,606.271c0.018,0.019,1.533,3.863,1.533,3.863l0.791-0.585l-1.91-3.521L201.483,606.271z"/>
				<path d="M200.362,605.153c-0.019-0.018-3.948-1.596-3.948-1.596l0.686-0.688l3.425,1.792L200.362,605.153z"/>
			</g>
			<g id="Tapiceria_4_">
				<path fill="#E8CDA0" d="M236.445,611.218c0,0-9.113-8.938-1.556-20.528c7.557-11.592,19.52-25.944,19.656-26.36
					C254.681,563.916,264.911,580.708,236.445,611.218z"/>
				<path fill="#E8CDA0" d="M200.27,575.183c0,0,8.975,9.076,20.535,1.476c11.561-7.602,25.87-19.617,26.283-19.756
					S230.669,546.598,200.27,575.183z"/>
				<path fill="#E8CDA0" d="M163.48,613.493c0,0,1.555-2.885,2.963,0.062c4.636,9.707,20.999,27.108,31.823,31.429
					c2.27,0.905,1.846,1.282,0.729,2.308c-0.838,0.769-10.286,7.977-10.286,7.977s-17.93-7.959-32.653-32.526L163.48,613.493z"/>
				<path fill="#E8CDA0" d="M199.145,629.342c-0.458,0.462-1.135,0.163-1.773-0.474l-14.566-14.51
					c-0.64-0.637-1.143-1.514-0.685-1.975l4.839-4.857c0.458-0.459,1.622-0.245,2.261,0.392l14.564,14.51
					c0.641,0.638,0.657,1.597,0.199,2.059L199.145,629.342z"/>
			</g>
		</g>
		<g>
			<path fill="#996234" d="M194.427,606.215c0,0,1.762-0.192,0.577,1.73c-1.186,1.923-2.021,4.19-2.021,4.19
				s2.158,1.186,2.843,0.953c0.684-0.229,2.574-2.51,4.548-1.587c1.975,0.923,2.958,1.245,0.152,2.823
				c-2.806,1.578-4.575,2.901-4.575,2.901l-7.379-4.674l5.511-5.995"/>
			<path fill="#EF45B7" d="M189.98,612.206c0,0,1.053-5.458,2.106-4.169c1.055,1.29-0.452,1.582,0.962,3.146
				c1.415,1.564,2.359,0.208,3.564,2.659c1.207,2.448,2.438,2.578,1.139,3.27c-1.3,0.688-1.794,1.05-1.794,1.05L189.98,612.206z"/>
			<path fill="#996234" d="M187.906,610.786c0,0,2.491-2.703,3.09-3.445c1.124-1.389,4.796-2.932,5.272-3.41
				c0.475-0.478,1.049-0.901,0.977,0.436c-0.076,1.337-3.062,3.094-4.516,4.015c-1.453,0.921-2.124,3.137-2.475,3.549
				c-0.352,0.411-0.595-0.928-0.595-0.928L187.906,610.786z"/>
			<path fill="#996234" d="M195.917,619.096c0,0,3.574-1.954,4.313-2.556c1.385-1.131,2.916-4.808,3.391-5.285
				c0.475-0.477,0.898-1.052-0.439-0.973c-1.335,0.078-3.082,3.069-3.998,4.526c-0.915,1.458-3.533,1.493-3.945,1.848
				c-0.408,0.354,1.337,1.233,1.337,1.233L195.917,619.096z"/>
			<path fill="#8BC7E8" d="M186.752,609.638c0,0-2.722,3.708-1.378,6.348c1.344,2.639,1.808,3.552,4.371,4.561
				s3.088,2.382,4.561,0.63c1.474-1.751,3.39-1.508,2.09-3.308c-1.399-1.938-5.585-6.72-5.859-7.065
				C188.855,608.68,186.752,609.638,186.752,609.638z"/>
			<path fill="#301705" d="M187.755,618.354c0,0-1.633-1.979,0.127-3.201c1.756-1.224,1.506-2.56,3.25-1.751
				c1.744,0.805,3.621,0.189,2.944,1.999c-0.679,1.808-0.93,2.875-2.21,3.345c-1.281,0.472-1.408,0.77-2.479,0.811
				C188.316,619.597,187.755,618.354,187.755,618.354z"/>
		</g>
	</g>
</g>
</svg>
