<?xml version="1.0" encoding="utf-8"?>
<!-- Generator: Adobe Illustrator 16.0.0, SVG Export Plug-In . SVG Version: 6.00 Build 0)  -->
<!DOCTYPE svg PUBLIC "-//W3C//DTD SVG 1.1//EN" "http://www.w3.org/Graphics/SVG/1.1/DTD/svg11.dtd">
<svg version="1.1" id="Capa_1" xmlns="http://www.w3.org/2000/svg" xmlns:xlink="http://www.w3.org/1999/xlink" x="0px" y="0px"
	 width="800px" height="800px" viewBox="0 0 800 800" enable-background="new 0 0 800 800" xml:space="preserve">
<g id="Capa_1_1_" display="none">
	<g id="Cèl" display="inline">
		
			<linearGradient id="SVGID_1_" gradientUnits="userSpaceOnUse" x1="366.5" y1="-279.4058" x2="1200.0273" y2="-279.4058" gradientTransform="matrix(0 -1 1 0 685.5 1192.5)">
			<stop  offset="0.4692" style="stop-color:#FFFFFF"/>
			<stop  offset="0.5669" style="stop-color:#C1F0FF"/>
			<stop  offset="0.6844" style="stop-color:#7DE0FF"/>
			<stop  offset="0.7908" style="stop-color:#47D4FF"/>
			<stop  offset="0.8821" style="stop-color:#20CBFF"/>
			<stop  offset="0.9549" style="stop-color:#09C5FF"/>
			<stop  offset="1" style="stop-color:#00C3FF"/>
		</linearGradient>
		<polygon fill="url(#SVGID_1_)" points="-14.703,-7.528 826.892,-7.528 823.621,826 -11.764,826 		"/>
	</g>
	<polygon display="inline" opacity="0.6" fill="#39BCC4" enable-background="new    " points="-2.36,421.741 847.39,420.821 
		845.407,888.741 -5.378,888.741 	"/>
	<path display="inline" fill="#29ABE2" d="M301.853,292.441c-0.025,0.261,2.997-4.307,2.997-4.307
		c7.505-8.257,24.285-30.436,24.285-30.436l54.412-0.209l60.065,0.271c0,0,16.773,22.277,24.284,30.526c0,0,2.342,4.401,2.326,4.142
		c0-41.748-11.459-65.629-40.582-65.629h-85.224C313.623,228.125,301.496,251.361,301.853,292.441z"/>
	<g display="inline">
		<path fill="#D3D3D3" d="M471,293.61c0-24.681-18.639-44.61-41.02-44.61h-87.805C319.796,249,302,268.93,302,293.61v198.466
			c0,24.68,17.796,44.924,40.177,44.924h87.805c22.381,0,41.02-20.244,41.02-44.924L471,293.61L471,293.61z"/>
		<g>
			<g id="WATER">
				<circle fill="#F4F4F4" cx="333.495" cy="277.767" r="11.237"/>
				<circle fill="#F4F4F4" cx="365.652" cy="277.767" r="11.237"/>
				<text transform="matrix(1 0 0 1 325.4146 281.1221)" font-family="'MyriadPro-Bold'" font-size="2.0346">ºC</text>
				<text transform="matrix(1 0 0 1 327.4116 276.2988)" font-family="'MyriadPro-Bold'" font-size="2.0346">40</text>
				<text transform="matrix(1 0 0 1 331.2734 274.3232)" font-family="'MyriadPro-Bold'" font-size="2.0346">80</text>
				<text transform="matrix(1 0 0 1 334.3447 274.5293)" font-family="'MyriadPro-Bold'" font-size="2.0346">100</text>
				<text transform="matrix(1 0 0 1 336.6421 276.5039)" font-family="'MyriadPro-Bold'" font-size="2.0346">120</text>
				
					<rect x="331.751" y="270.16" transform="matrix(-0.9921 0.1255 -0.1255 -0.9921 695.5719 498.4944)" width="0.677" height="1.98"/>
				
					<rect x="336.55" y="270.664" transform="matrix(-0.9237 -0.3832 0.3832 -0.9237 543.9707 651.6617)" width="0.677" height="1.979"/>
				
					<rect x="339.993" y="272.902" transform="matrix(-0.697 -0.7171 0.7171 -0.697 381.1179 708.8376)" width="0.678" height="1.978"/>
				
					<rect x="328.069" y="271.405" transform="matrix(-0.847 0.5316 -0.5316 -0.847 751.3691 328.5531)" width="0.678" height="1.978"/>
				
					<rect x="326.213" y="272.907" transform="matrix(-0.6941 0.7199 -0.7199 -0.6941 750.3823 228.9032)" width="0.68" height="1.979"/>
				
					<rect x="334.298" y="270.123" transform="matrix(-0.9967 -0.0814 0.0814 -0.9967 645.8262 568.1613)" width="0.396" height="1.582"/>
				
					<rect x="329.627" y="270.684" transform="matrix(-0.9251 0.3797 -0.3797 -0.9251 738.0266 397.3875)" width="0.395" height="1.581"/>
				
					<rect x="338.918" y="271.858" transform="matrix(-0.8018 -0.5976 0.5976 -0.8018 448.0699 693.9146)" width="0.395" height="1.582"/>
			</g>
			<g id="Capa_2_copia">
				<path fill="#1E1E1E" d="M333.495,265.109c-7.033,0-12.735,5.7-12.735,12.735c0,7.033,5.702,12.734,12.735,12.734
					c7.034,0,12.735-5.701,12.735-12.734C346.23,270.81,340.528,265.109,333.495,265.109z M333.495,288.13
					c-5.681,0-10.286-4.605-10.286-10.285c0-5.68,4.605-10.286,10.286-10.286s10.286,4.606,10.286,10.286
					C343.781,283.525,339.176,288.13,333.495,288.13z"/>
				<path fill="#3D3D3D" d="M333.495,265.109c-7.033,0-12.735,5.7-12.735,12.735c0,7.033,5.702,12.734,12.735,12.734
					c7.034,0,12.735-5.701,12.735-12.734C346.23,270.81,340.528,265.109,333.495,265.109z M333.495,289.675
					c-6.533,0-11.83-5.297-11.83-11.83c0-6.535,5.297-11.831,11.83-11.831c6.534,0,11.831,5.296,11.831,11.831
					C345.325,284.378,340.029,289.675,333.495,289.675z"/>
				<path fill="#EA2424" d="M333.073,278.685l0.222-7.746l0.449-0.001c0,0,0.164,7.727,0.174,7.748L333.073,278.685z"/>
				<circle fill="#1E1E1E" cx="333.495" cy="280.707" r="2.336"/>
			</g>
			<g id="FUEL">
				<rect x="364.899" y="270.266" fill="#232323" width="0.616" height="2.753"/>
				
					<rect x="371.899" y="273.487" transform="matrix(-0.6367 -0.7711 0.7711 -0.6367 397.2417 736.8929)" fill="#232323" width="0.632" height="2.758"/>
				
					<rect x="357.871" y="273.491" transform="matrix(0.6358 -0.7719 0.7719 0.6358 -81.7029 376.5978)" fill="#232323" width="0.631" height="2.758"/>
				
					<rect x="360.913" y="271.162" transform="matrix(0.907 -0.421 0.421 0.907 -81.0267 177.3628)" fill="#232323" width="0.466" height="2.029"/>
				
					<rect x="368.996" y="271.17" transform="matrix(-0.9083 -0.4184 0.4184 -0.9083 590.7061 673.8817)" fill="#232323" width="0.464" height="2.028"/>
				<text transform="matrix(1 0 0 1 357.5884 281.4658)" fill="#232323" font-family="'MyriadPro-Bold'" font-size="2.0781">FUEL</text>
				<text transform="matrix(1 0 0 1 359.2183 277.7666)" fill="#232323" font-family="'MyriadPro-Bold'" font-size="2.169">E</text>
				<text transform="matrix(1 0 0 1 370.0605 277.7666)" fill="#232323" font-family="'MyriadPro-Bold'" font-size="2.169">F</text>
				<text transform="matrix(1.4697 0 0 1 364.7715 274.9805)" fill="#232323" font-family="'MyriadPro-Bold'" font-size="2.169">/</text>
				<text transform="matrix(1 0 0 1 364.438 274.3008)" fill="#1E1E1E" font-family="'MyriadPro-Bold'" font-size="1.297">1</text>
				<text transform="matrix(1 0 0 1 365.6021 275.084)" fill="#232323" font-family="'MyriadPro-Bold'" font-size="1.297">2</text>
				<path d="M372.042,280.05c-0.032-0.025-0.28-0.248-0.366-0.208c-0.086,0.039,0.151,0.223,0.194,0.272
					c0.043,0.051,0.076,0,0.043,0.255c-0.032,0.255,0.047,0.646,0.086,0.725c0.04,0.08,0.206,0.468-0.149,0.424
					c-0.354-0.043-0.229-0.266-0.242-0.67c-0.012-0.308-0.203-0.376-0.346-0.392v-0.697h-1.233v1.899h-0.19v0.095h1.614v-0.095
					h-0.19v-1.054c0.096,0.027,0.183,0.081,0.214,0.137c0.079,0.139-0.058,0.285-0.004,0.595c0.055,0.308,0.404,0.377,0.626,0.255
					c0.223-0.123,0.033-0.532-0.007-0.65c-0.039-0.118-0.053-0.435-0.032-0.493c0.022-0.056,0.158-0.067,0.19-0.121
					C372.282,280.271,372.074,280.075,372.042,280.05z M371.166,280.472h-1.044v-0.617h1.044V280.472z"/>
			</g>
			<g id="Capa_2_copia_1_">
				<path fill="#1E1E1E" d="M365.185,264.9c-7.147,0-12.943,5.795-12.943,12.944c0,7.147,5.795,12.944,12.943,12.944
					c7.149,0,12.943-5.797,12.943-12.944C378.128,270.695,372.333,264.9,365.185,264.9z M365.185,288.299
					c-5.773,0-10.454-4.681-10.454-10.454s4.681-10.454,10.454-10.454c5.774,0,10.455,4.68,10.455,10.454
					C375.639,283.618,370.958,288.299,365.185,288.299z"/>
				<path fill="#3D3D3D" d="M365.185,264.9c-7.147,0-12.943,5.795-12.943,12.944c0,7.147,5.795,12.944,12.943,12.944
					c7.149,0,12.943-5.797,12.943-12.944C378.128,270.695,372.333,264.9,365.185,264.9z M365.185,289.869
					c-6.641,0-12.024-5.383-12.024-12.024c0-6.641,5.384-12.023,12.024-12.023c6.642,0,12.025,5.383,12.025,12.023
					C377.21,284.486,371.826,289.869,365.185,289.869z"/>
				<path fill="#EA2424" d="M365.601,280.062c0.021-0.009,5.901-5.219,5.901-5.219l0.309,0.338l-5.627,5.509L365.601,280.062z"/>
				<circle fill="#1E1E1E" cx="365.185" cy="280.755" r="2.375"/>
			</g>
		</g>
		<g>
			<rect x="386" y="286" fill="#969696" width="4" height="90"/>
			
				<rect x="384.069" y="283.628" transform="matrix(-0.4819 0.8762 -0.8762 -0.4819 862.7562 152.3297)" fill="#969696" width="4.551" height="95.189"/>
			
				<rect x="382.758" y="285.68" transform="matrix(0.5146 0.8575 -0.8575 0.5146 472.6753 -168.3661)" fill="#969696" width="4.551" height="95.181"/>
			<path stroke="#000000" stroke-miterlimit="10" d="M387.367,267.977c-35.589,0-64.44,28.85-64.44,64.441
				c0,35.59,28.853,64.441,64.44,64.441c35.59,0,64.44-28.852,64.44-64.441C451.809,296.827,422.957,267.977,387.367,267.977z
				 M387.367,399.318c-36.948,0-66.901-29.953-66.901-66.9c0-36.948,29.953-66.901,66.901-66.901s66.9,29.953,66.9,66.901
				C454.27,369.365,424.315,399.318,387.367,399.318z"/>
			<path stroke="#000000" stroke-miterlimit="10" d="M373.9,266.873c0.321-0.046,9.476-1.095,9.629,6.331
				c0.152,7.427,0.178,12.658,0.178,12.658s-0.345,5.496,3.19,5.493c0.338-0.001,2.904,0.003,3.194,0.003
				c2.939,0,3.025-2.741,3.001-5.603c-0.027-3.104,0.161-12.431,0.161-12.431s0.669-6.361,7.66-6.361
				c7.173-0.001-1.499-2.513-1.499-2.513l-22.559,0.142L373.9,266.873z"/>
			<path stroke="#000000" stroke-miterlimit="10" d="M323.477,312.703c0.122-0.303,3.591-8.681,10.098-5.1
				c6.508,3.581,11.051,6.176,11.051,6.176s4.588,3.047,6.352-0.017c0.169-0.294,1.457-2.516,1.602-2.767
				c1.47-2.545-0.861-3.99-3.352-5.398c-2.703-1.529-10.686-6.356-10.686-6.356s-6.129-3.8-2.233-9.604
				c3.982-5.933-2.371-0.169-2.371-0.169l-11.156,19.609L323.477,312.703z"/>
			<path d="M338.093,377.611c-0.2-0.256-5.721-7.447,0.633-11.293c6.354-3.844,10.873-6.481,10.873-6.481s4.934-2.45,3.163-5.509
				c-0.17-0.295-1.451-2.521-1.596-2.771c-1.469-2.546-3.886-1.251-6.352,0.202c-2.675,1.576-10.848,6.076-10.848,6.076
				s-6.312,2.3-9.809-3.754c-3.587-6.211-0.956,2.854-0.956,2.854l11.403,19.467L338.093,377.611z"/>
			<path stroke="#000000" stroke-miterlimit="10" d="M403.581,397.292c-0.323,0.045-9.312,1.231-9.464-6.194
				c-0.152-7.425-0.178-12.658-0.178-12.658s0.345-5.496-3.19-5.492c-0.339,0-2.906-0.004-3.195-0.004c-2.938,0-3.025,2.74-3,5.602
				c0.027,3.104-0.164,12.433-0.164,12.433s-1.354,7.11-8.505,7.07c-7.172-0.041,2.347,1.802,2.347,1.802l22.561-0.142
				L403.581,397.292z"/>
			<path stroke="#000000" stroke-miterlimit="10" d="M451.569,351.6c-0.122,0.302-3.589,8.679-10.098,5.1
				c-6.508-3.582-11.051-6.176-11.051-6.176s-4.589-3.047-6.353,0.016c-0.169,0.294-1.457,2.516-1.603,2.766
				c-1.47,2.546,0.861,3.992,3.353,5.4c2.701,1.527,10.686,6.357,10.686,6.357s5.207,4.623,1.712,10.678
				c-3.586,6.212,2.893-0.907,2.893-0.907l11.156-19.608L451.569,351.6z"/>
			<path stroke="#000000" stroke-miterlimit="10" d="M435.652,286.04c0.199,0.256,5.723,7.448-0.633,11.293
				c-6.354,3.845-10.875,6.482-10.875,6.482c-5.812,2.886-2.043,7.441-3.161,5.509c-0.171-0.293,1.45,2.52,1.596,2.771
				c1.47,2.545,3.888,1.25,6.353-0.203c2.676-1.577,10.849-6.076,10.849-6.076s6.928-2.036,10.425,4.018
				c3.586,6.211,0.339-3.119,0.339-3.119l-11.403-19.466L435.652,286.04z"/>
			<path fill="#969696" d="M388.396,314.645c-9.775,0-17.7,7.925-17.7,17.699c0,9.774,7.925,17.699,17.7,17.699
				c9.773,0,17.698-7.925,17.698-17.699C406.095,322.57,398.17,314.645,388.396,314.645z M388.396,341.237
				c-4.912,0-8.895-3.981-8.895-8.894c0-4.913,3.982-8.895,8.895-8.895c4.91,0,8.895,3.982,8.895,8.895
				C397.291,337.256,393.307,341.237,388.396,341.237z"/>
			<circle cx="388.503" cy="331.368" r="10.158"/>
		</g>
	</g>
	<g display="inline">
		<path fill="#EAEAEA" d="M490,481c0-6.627-5.373-12-12-12H298c-6.627,0-12,5.373-12,12v33c0,6.627,5.373,12,12,12h180
			c6.627,0,12-5.373,12-12V481z"/>
		<path fill="#E8CDA0" d="M480,463c0-3.312-2.688-6-6-6H310c-3.312,0-6,2.688-6,6l0,0c0,3.312,2.688,6,6,6h164
			C477.312,469,480,466.312,480,463L480,463z"/>
		<path fill="#E8CDA0" d="M540.552,519c0-3.312-4.71-6-10.519-6H242.519c-5.809,0-10.519,2.688-10.519,6l0,0
			c0,3.312,4.71,6,10.519,6h287.514C535.842,525,540.552,522.312,540.552,519L540.552,519z"/>
		<g>
			<path fill="#EF45B7" d="M431.426,426.421c0,0,23.383,34.228,6.598,33.084c-16.787-1.147,1-3-20.291-3.405
				c-21.285-0.399-17.83,15.935-44.21,7.879c-26.375-8.055-35.838,0.105-31.938-14.229c3.912-14.334,4.672-20.484,4.672-20.484
				L431.426,426.421z"/>
			<path fill="#996234" d="M338.485,382.667c0,0-21.77,14.898-24.052,4.681c-4.271-19.129,3.903-61.094,2.914-68.437
				c-0.989-7.344-1.062-15.158,8.41-5.356c9.468,9.802,11.02,15.036,10.074,33.779c-0.951,18.735,22.466,24.45,23.64,30.278
				c1.155,5.837-18.189,8.785-18.189,8.785L338.485,382.667z"/>
			<path fill="#996234" d="M429.017,387.213c0,0,35.448,4.067,36.346-6.364c1.67-19.527-12.031-60.023-12.031-67.433
				s-0.959-15.164-9.044-4.185c-8.079,10.979-15.728,25.654-12.286,44.102c3.451,18.44-22.568,14.195-22.939,20.126
				c-0.37,5.939,16.479-0.75,16.479-0.75L429.017,387.213z"/>
			<path fill="#8BC7E8" d="M461.333,341.526c0,0,2.26-51.102-28.074-60.912c-26.117-8.447-46.735-19.35-69.254-6.613
				c-22.523,12.745-29.207,8.192-36.285,32.298c-7.253,24.701-11.86,39.588,8.1,42.875c2.872,0.474-4.3,86.382,0.013,86.826
				c11.761,1.211,97.619,12.36,105.169-5.791c2-4.809-2.668-38.409,0.473-73.51C441.792,353.127,461.333,341.526,461.333,341.526z"
				/>
			<path fill="#996234" d="M374.123,200.773c0,0-0.657,28.91-0.136,63.863c0.351,23.5,17.937,25.8,28.067,17.543
				c13.062-10.645,3.588-48.751,5.016-56.296C408.5,218.33,374.123,200.773,374.123,200.773z"/>
			<path fill="#301705" d="M387.011,265.697c0,0-23.16-2.767-19.683-25.925c3.458-23.144-9.45-40.479,7.448-46.348
				c15.947-5.538,26.697-19.091,33.91,0.242c7.214,19.333,12.422,29.592,7.214,43.181c-5.203,13.604-4.114,16.918-10.733,25.527
				C398.555,270.999,387.011,265.697,387.011,265.697z"/>
		</g>
	</g>
	<path display="inline" fill="#5B5B5B" d="M486,416.973c0,2.479-1.39,4.027-2.697,4.027h-10.268c-1.309,0-2.035-1.55-2.035-4.027
		v-47.104c0-2.478,0.729-4.869,2.035-4.869h10.268c1.309,0,2.697,2.392,2.697,4.869V416.973z"/>
	<rect x="184" y="522" display="inline" fill="#F4F4F4" width="412" height="220"/>
</g>
<g id="Capa_3">
	<g id="Cèl_1_">
		
			<linearGradient id="SVGID_2_" gradientUnits="userSpaceOnUse" x1="308.6611" y1="-321.1577" x2="1202.6895" y2="-321.1577" gradientTransform="matrix(0 -1 1 0 685.5 1192.5)">
			<stop  offset="0.4692" style="stop-color:#FFFFFF"/>
			<stop  offset="0.5669" style="stop-color:#C1F0FF"/>
			<stop  offset="0.6844" style="stop-color:#7DE0FF"/>
			<stop  offset="0.7908" style="stop-color:#47D4FF"/>
			<stop  offset="0.8821" style="stop-color:#20CBFF"/>
			<stop  offset="0.9549" style="stop-color:#09C5FF"/>
			<stop  offset="1" style="stop-color:#00C3FF"/>
		</linearGradient>
		<polygon fill="url(#SVGID_2_)" points="-86.998,-10.19 815.683,-10.19 812.175,883.839 -83.845,883.839 		"/>
	</g>
	<polygon opacity="0.8" fill="#39BCC4" enable-background="new    " points="-39.698,-17.098 871.729,-18.85 869.604,872.685 
		-42.935,872.685 	"/>
</g>
<g id="Capa_2">
	<g>
		<path fill="#CCCCCC" d="M66.368,398.044c-89.144-5.738-390.319-4.856-471.499-7.075c-0.625,158.573,0.879,289.533,7.423,296.079
			c16.995,16.995,449.595,75.707,475.86,72.616c26.266-3.091,321.361-67.979,369.255-92.699
			c43.61-22.512,93.622-223.055,110.385-285.58C441.363,396.084,156.999,403.877,66.368,398.044z"/>
		<path fill="#EAEAEA" d="M557.793,384.077c1.646-6.14,2.979-10.974,3.945-14.153c10.815-35.535,9.269-83.429,7.724-98.88
			c-1.543-15.449-93.546-30.899-93.546-30.899L404,155.17V39.295l-195.367-58.71L-69.818-156.921l-354.867-53.759
			c0,0,20.639,351.128,19.64,604.341c81.182,2.219,381.441,10.253,470.769,10.253C154.82,403.914,441.363,398.775,557.793,384.077z"
			/>
	</g>
	<rect x="-350" y="39" fill="#D8D8D8" width="754" height="198"/>
	<rect x="-339" y="-102" fill="#D8D8D8" width="323" height="85"/>
	<rect x="-390" y="-291" fill="#D8D8D8" width="212" height="165"/>
	<path fill="#E8CDA0" d="M354.141,17c0,8.959-7.262,16-16.22,16h-659.717C-330.756,33-339,30.024-339,22.299v-8.497
		C-339,4.532-330.756,1-321.797,1H337.92C346.878,1,354.141,8.041,354.141,17L354.141,17z"/>
	<path fill="#E8CDA0" d="M-27.723-119.5c0,8.959-7.263,15.5-16.221,15.5h-659.717c-8.959,0-17.339-2.167-17.339-9.893v-8.496
		c0-9.271,8.38-12.611,18.91-12.611h659.717C-34.986-135-27.723-128.459-27.723-119.5L-27.723-119.5z"/>
	<path fill="#D8D8D8" d="M-368.916,270.313c0,0,872.011,9.282,912.902,2.552c40.892-6.73,24.215-4.221,24.215-4.221
		s7.312,27.551-0.717,72.082c-3.521,19.512-25.486,29.051-25.486,29.051l-372.618,2.465l-531.116-1.024L-368.916,270.313z"/>
	<path fill="#FF0000" d="M553.303,362.711c14.359-6.229,15.006-26.526,15.006-26.526s30.983,53.446-11.059,56.455
		c-71.702,5.132-273.25,8.186-273.25,8.186v-28.583C284,372.242,525.371,374.825,553.303,362.711z"/>
	<path fill="#E5CAB1" d="M290.254,268.826c-2.019-1.345-34.133-18.843-36.92-29.612c-2.787-10.768-0.768-13.46-3.459-29.612
		c-2.692-16.152-10.769-30.958,1.345-40.379c12.115-9.422,8.56-24.901,12.693-24.901c4.132,0,29.605-0.673,39.751,2.691
		c10.146,3.365,25.348,8.779,26.666,19.657c1.32,10.878,13.092,26.781,11.073,36.876c-2.02,10.095-4.711,20.189-7.403,26.247
		c-2.692,6.057,1.25,15.947,0.586,19.62c-0.663,3.672-4.206,16.723-12.828,19.414C313.137,271.519,290.254,268.826,290.254,268.826z
		"/>
	<path fill="#394963" d="M-130.422,255.595c0,0,3.089-241.021,41.715-262.651c38.624-21.629,44.804-38.625,67.979-38.625
		c23.174,0,142.14-10.814,159.134,0c16.996,10.815,104.854,40.17,106.4,61.801c1.545,21.629,27.81,166.859,0,259.561
		c-6.315,21.052-17.732,55.174-31.606,95.832c-47.215,138.364-110.328,352.421-110.328,384.664
		c0,41.716,16.995,43.261,32.444,60.255c15.45,16.994-3.089,24.205-3.089,24.205s-37.081-14.935-41.715-18.024
		c-4.636-3.091-21.631-16.994-32.446-4.637c-10.815,12.361-16.995,94.245-15.449,98.881c1.544,4.637-9.27,18.795,12.36,32.444
		c21.629,13.652,36.05,32.963,36.05,32.963s23.69,55.619,14.42,55.619c-9.271,0-76.735-34.506-78.281-42.229
		c-1.545-7.727,3.091-38.626-4.634-44.807c-7.726-6.182-32.446-23.176-32.446-23.176l-16.994-142.138l9.269-84.977l-66.435-77.252
		c0,0,10.815-185.398-18.539-227.114C-131.968,354.474-130.422,255.595-130.422,255.595z"/>
	<path fill="#626363" d="M47.252,870.506c0,0-65.92-81.37-27.81-74.161c38.11,7.211,34.841,44.29,39.565,61.802
		c4.725,17.51,31.505,7.213,34.594,23.689c3.091,16.479,0,20.602,0,20.602s43.26-9.271,48.411,9.27
		c5.149,18.541,11.328,57.678-17.511,33.989c-28.839-23.69-52.67-33.989-52.67-33.989l-12.825,7.211c0,0,5.754,31.929-24.116,47.379
		c-29.87,15.448-24.819,25.749-18.589,0c6.229-25.749,13.439-39.14,20.65-45.32c7.208-6.179-5.151-14.935-5.151-14.935
		s1.897-23.426,2.059-24.403C34.023,880.659,47.252,870.506,47.252,870.506z"/>
	<path fill="#394963" d="M66.876,904.234c-4.954-31.694,6.531-32.521,15.338-23.083c8.805,9.436,12.595,15.906,4.614,17.957
		C78.848,901.157,66.876,904.234,66.876,904.234z"/>
	<polygon fill="#8C8C8C" points="295,325.12 295,289 492.213,289 493.214,323.497 	"/>
	<path fill="#606060" d="M295,311.058V289h167.314c0,0,2.019,19.586,0.271,19.899C460.838,309.209,295,311.058,295,311.058z"/>
	<g opacity="0.7">
		<path opacity="0.6" fill="#39BCC4" enable-background="new    " d="M-26.907,785.532L-9.913,927.67
			c0,0,21.907,15.062,30.919,21.982c-1.616,4.872-3.188,10.387-4.702,16.644c-5.625,23.249-10.28,17.108,10.85,4.326
			c0.132,10.085-0.814,20.888,0.014,25.029c1.546,7.725,69.011,42.229,78.281,42.229c9.27,0-14.42-55.619-14.42-55.619
			s-14.42-19.311-36.05-32.963c-0.44-0.277-0.846-0.555-1.259-0.833c8.009-14.455,5.29-29.55,5.29-29.55l12.825-7.211
			c0,0,23.831,10.299,52.67,33.989c28.839,23.688,22.66-15.448,17.511-33.989c-5.151-18.54-48.411-9.271-48.411-9.271
			s3.091-4.12,0-20.601c-3.089-16.479-29.87-6.181-34.594-23.69c-2.05-7.598-2.598-18.876-5.671-29.804
			c1.455-4.785,3.036-8.43,4.73-10.367c10.815-12.357,27.81,1.545,32.446,4.637c4.634,3.091,41.715,18.024,41.715,18.024
			s18.539-7.211,3.089-24.205c-15.449-16.995-32.444-18.539-32.444-60.255c0-0.29,0.02-0.627,0.031-0.946
			c78.004-15.669,303.194-66.9,344.504-88.223c7.891-4.071,15.99-13.99,24.064-27.848l-835.482,14.333l-0.284,43.945
			c70.145,15.406,233.554,39.138,341.271,52.466L-26.907,785.532z M45.892,868.801c0.865,1.094,1.361,1.705,1.361,1.705
			s-0.679,0.521-1.725,1.333C45.646,870.828,45.768,869.816,45.892,868.801z"/>
	</g>
	<g>
		<path fill="#999999" d="M489.518,296.652c-4.978,0.029-9.186,4.303-9.154,9.28l3.536,535.771L502.527,859l-3.644-553.163
			c-0.034-4.976-3.982-9.104-8.96-9.071L489.518,296.652z"/>
		<path fill="#7A7A7A" d="M490.337,298.75c-2.355-0.978-5.059,0.146-6.031,2.502l-0.071,0.172c-0.976,2.356,0.149,5.057,2.502,6.032
			l2.66,1.1c2.357,0.975,5.059-0.146,6.033-2.505l0.071-0.172c0.973-2.357-0.147-5.057-2.506-6.03L490.337,298.75z"/>
		<path fill="#B7B7B7" d="M493.806,366.78c0-4.336-3.517-7.854-7.854-7.854H341.659c-4.338,0-7.854,3.516-7.854,7.854v0.293
			c0,4.338,3.516,7.854,7.854,7.854h144.293c4.338,0,7.854-3.517,7.854-7.854L493.806,366.78L493.806,366.78z"/>
		<path fill="#B7B7B7" d="M493.807,433.279c0-4.336-3.517-7.854-7.854-7.854H341.66c-4.338,0-7.854,3.518-7.854,7.854v0.295
			c0,4.336,3.517,7.854,7.854,7.854h144.291c4.339,0,7.854-3.518,7.854-7.854L493.807,433.279L493.807,433.279z"/>
		<path fill="#B7B7B7" d="M493.806,502.779c0-4.336-3.517-7.854-7.854-7.854H341.659c-4.338,0-7.854,3.516-7.854,7.854v0.293
			c0,4.338,3.516,7.855,7.854,7.855h144.293c4.338,0,7.854-3.518,7.854-7.855L493.806,502.779L493.806,502.779z"/>
		<path fill="#B7B7B7" d="M493.807,569.279c0-4.336-3.517-7.854-7.854-7.854H341.66c-4.338,0-7.854,3.518-7.854,7.854v0.295
			c0,4.336,3.517,7.854,7.854,7.854h144.291c4.339,0,7.854-3.518,7.854-7.854L493.807,569.279L493.807,569.279z"/>
		<path fill="#B7B7B7" d="M493.806,638.279c0-4.336-3.517-7.854-7.854-7.854H341.659c-4.338,0-7.854,3.516-7.854,7.854v0.293
			c0,4.338,3.516,7.855,7.854,7.855h144.293c4.338,0,7.854-3.518,7.854-7.855L493.806,638.279L493.806,638.279z"/>
		<path fill="#B7B7B7" d="M493.807,704.779c0-4.336-3.517-7.854-7.854-7.854H341.66c-4.338,0-7.854,3.518-7.854,7.854v0.295
			c0,4.336,3.517,7.854,7.854,7.854h144.291c4.339,0,7.854-3.518,7.854-7.854L493.807,704.779L493.807,704.779z"/>
		<path fill="#B7B7B7" d="M494.807,767.635c0-4.336-3.517-7.854-7.854-7.854H342.66c-4.338,0-7.854,3.518-7.854,7.854v0.295
			c0,4.336,3.517,7.854,7.854,7.854h144.291c4.339,0,7.854-3.518,7.854-7.854L494.807,767.635L494.807,767.635z"/>
		<path fill="#999999" d="M335.258,295.936c-4.978,0.028-8.991,4.084-8.963,9.062L326.203,829.5l9.611,9.02l8.985-9.662
			l-0.165-524.145c-0.028-4.981-3.985-8.898-8.963-8.872L335.258,295.936z"/>
		<path fill="#7A7A7A" d="M335.735,298.006c-2.403-0.861-5.046,0.388-5.907,2.79l-0.062,0.175c-0.858,2.401,0.391,5.045,2.791,5.904
			l2.708,0.971c2.403,0.861,5.047-0.392,5.907-2.789l0.062-0.177c0.86-2.401-0.392-5.044-2.79-5.904L335.735,298.006z"/>
	</g>
	<g>
		<path opacity="0.8" fill="#39BCC4" enable-background="new    " d="M501.264,667.119c0.04,6.961-17.184,6.896-18.511,0.894
			l0.19,28.913H344.758l-0.009-28.951c-0.954,7.058-15.132,5.691-18.518,1.294L326.203,829.5l9.611,9.02l8.985-9.662l-0.017-53.074
			h138.682l0.435,65.92L502.527,859L501.264,667.119z M344.778,759.781l-0.015-46.854H483.05l0.309,46.854H344.778z"/>
	</g>
	<path fill="#5B422C" d="M436.634,114c3.364,2,21.841,13.646,26.399,19.703c4.557,6.057,7.111,8.731,7.854,18.041
		c0.74,9.309,13.265,11.864,8.958,19.266c-4.308,7.403-10.572,24.688-11.247,27.38c-0.672,2.693-17.248,8.804-28.309,6.11
		c-11.062-2.69-10.298,32.252-18.038,35.618c-7.738,3.365-31.355-20.491-31.386-24.806c-0.01-1.428-4.711-4.707-9.758-3.361
		c-5.048,1.345-26.246,2.877-27.595,0.262c-1.345-2.615-10.575,8.875-16.156,4.994s-1.284-16.394-4.173-21.759
		c-2.888-5.364-4.234-36.508-4.57-40.546c-0.337-4.038,5.047-40.903,5.047-40.903L436.634,114L436.634,114z"/>
	<path fill="#F9F9F9" d="M322.869,38.659c-15.84,0-59.535-25.574-65.496-22.54c0,0,5.624-43.752,1.586-56.202
		c-4.038-12.451,17.705-53.711,22.856-57.147s41.751-13.181,46.799-10.153c5.047,3.029,30.286,16.152,31.967,22.883
		c1.684,6.73,9.424,25.626,21.875,34.013c12.449,8.387,40.117,10.742,44.958,11.078c4.844,0.337,15.612-8.022,18.303-11.078
		c2.692-3.055,7.067-18.197,8.077-20.889c1.008-2.692-1.684-10.432,1.682-10.432c3.366,0,48.457,10.095,52.494,11.441
		c4.039,1.346,8.75-13.461,21.201,5.72c12.449,19.18,17.833,58.888,17.497,61.916c-0.337,3.029-2.693,15.143-2.019,19.181
		c0.672,4.038,0,9.085,0,11.104c0,2.02-6.14,6.636-6.1,5.505c0.041-1.13-14.766-1.803-19.812-1.13
		c-5.048,0.673-23.892,2.019-27.257,2.692s2.8,5.721-4.604,12.451c-7.4,6.729-6.88,41.053-10.538,41.053
		s-8.076,50.475-63.936,49.465c-2.06-0.036-5.472,7.238-20.215,9.617c-26.405,4.261-63.79-8.753-63.574-9.617
		c0.336-1.346-20.19,1.291-20.19,1.291L322.869,38.659z"/>
	<path fill="#E5CAB1" d="M461.607,273.426c-10.809-0.758-20.304-2.394-28.729-10.808c-8.425-8.414-21.045-14.257-22.852-25.633
		c-1.811-11.377,4.171-12.334,0-15.534c-4.17-3.198-0.722-25.232-1.503-27.895c-0.782-2.663,6.745-4.052,5.855-9.405
		c-0.891-5.352,4.748-19.726,11.729-20.008c6.979-0.284,27.863-9.428,32.009-6.902c4.144,2.527,8.581,1.222,13.352,4.347
		c4.81,3.151,4.235,0.954,10.021,7.454c5.782,6.501,16.708,10.1,18.487,20.804c1.779,10.705-1.227,19.583,0.981,24.208
		c2.209,4.625-0.007,16.839,1.147,20.16c1.151,3.323-1.207,6.785,0.959,12.759c2.166,5.973,0.312,10.091-6.866,15.771
		c-7.179,5.68-23.046,13.058-27.697,14.595C463.849,278.875,461.607,273.426,461.607,273.426z"/>
	<path fill="#F9DBBD" d="M284.912-91.261c9.202-8.076,32.645-16.14,34.664-10.083c2.019,6.058-6.229,31.964-0.172,44.078
		c6.058,12.114-3.437,68.568,0.27,76.645c3.706,8.075,1.722,68.606,1.722,68.606s14.052,35.828,16.07,41.123
		c2.018,5.293-8.083,56.344-8.083,67.154c0,10.812-6.062,35.034-6.062,47.146c0,12.113,0.292,24.226,4.331,30.281
		c4.036,6.057,31.439,44.498,31.439,44.498l-7.216,25.313l-7.228,0.875l-0.005-15.865c0,0-6.919-1.852-9.298,0.886
		c-5.896,6.788-9.141,8.979-9.141,8.979l0.082,27.541c0,0,2.644,1.307-3.411-0.712c-6.057-2.02-21.72-8.654-24.841-18.463
		c-2.749-8.639-17.112-28.258-15.092-33.496c2.019-5.236-0.001-20.338,4.036-26.92c4.039-6.582,4.038-8.174,0-24.538
		c-4.036-16.365-10.397-28.024-11.201-41.375c-0.806-13.349-8.774-43.633-8.774-61.804c0-18.17,0-62.071,0-62.071
		s11.817-53.007,8.908-59.063c-2.912-6.057-5.186-60.567-9.135-66.624C262.825-35.207,284.912-91.261,284.912-91.261z"/>
	<path fill="#F9DBBD" d="M456.419-47.844c0.596,2.71,15.135,63.565,22.693,81.293c7.56,17.729,15.168,59.611,16.295,67.05
		c1.131,7.44,2.459,32.349-1.142,40.323c-3.6,7.974-7.946,87.947-8.321,100.729c-0.375,12.78-8.949,24.638-9.72,27.981
		c-0.772,3.344-12.331,25.213-12.568,33.284c-0.236,8.074-1.027,34.982-1.027,34.982l17.734,14.535l0.272-5.167
		c0,0,10.81-6.667,18.519-0.333l0.161,24.501c0,0,12.459-2.987,12.518-5.005c0.06-2.019,7.493-4.575,9.417-7.405
		c-1.248-3.404,4.25-10.426,4.25-10.426s2.107-1.982,2.167-4c0.059-2.018,1.38-3.545-0.5-8.315c-1.88-4.768,2.419-7.72-1.48-12.547
		c-3.897-4.829-12.187-20.711-12.187-20.711l-4.084-11.558l3.856-16.719c0,0,13.255-38.663,15.471-45.33
		c2.217-6.667,16.992-51.344,16.992-51.344l4.276-33.54c0,0-0.797-16.183-2.657-21.624c-1.859-5.44-2.02-22.951-1.802-30.351
		c0.217-7.4,1.701-12.069-2.672-23.644s-6.826-19.727-5.68-35.852c1.146-16.125,3.696-57.122-0.063-66.657
		c-3.761-9.537-8.508-31.221-10.488-32.625c-1.979-1.405-17.313-6.568-25.386-6.805C493.192-73.36,456.419-47.844,456.419-47.844z"
		/>
	<path fill="#F9F9F9" d="M322.869,38.659c-15.84,0-59.535-25.574-65.496-22.54c0,0,5.624-43.752,1.586-56.202
		c-4.038-12.451,17.705-53.711,22.856-57.147s41.751-13.181,46.799-10.153c5.047,3.029,37.239-15.368,38.922-8.639
		c1.684,6.731,8.71,48.065,21.16,56.451c12.45,8.387,33.877,19.826,38.718,20.162c4.844,0.337,15.612-8.022,18.303-11.078
		c2.692-3.055,7.067-18.197,8.077-20.889c1.008-2.692-1.684-10.432,1.682-10.432c3.366,0,17.597-16.561,21.634-15.214
		c4.037,1.346,39.61,13.195,52.062,32.376c12.449,19.18,17.833,58.888,17.497,61.916c-0.337,3.029-2.693,15.143-2.019,19.181
		c0.672,4.038,0,9.085,0,11.104c0,2.02-6.14,6.636-6.1,5.505c0.041-1.13-14.766-1.803-19.812-1.13
		c-5.048,0.673-23.892,2.019-27.258,2.692c-3.364,0.673-7.401-2.692-14.807,4.038c-7.402,6.73-32.727,26.247-36.385,26.247
		c-3.657,0-84.419-2.691-89.803-4.71c-5.385-2.021-21.201-2.692-20.863-4.038c0.336-1.346-3.028-16.488-3.028-16.488L322.869,38.659
		z"/>
	<path fill="#9E895A" d="M355.735-146.55c32.865-32.693,26.636-45.886,51.252-36.727c24.616,9.16,47.652,13.572,50.263,24.966
		c2.607,11.396,10.996,31.793,14.234,40.524c3.237,8.732,4.199,22.04,3.684,32.704c-0.516,10.665-6.668,35.378-10.912,40.411
		c-4.25,5.033-5.379,4.518-10.014,8.733c-4.636,4.214-10.912,8.169-23.747,10.896c-12.835,2.726-9.622,4.875-25.606,2.183
		c-15.985-2.69-6.582-6.38-22.061-5.042c-15.48,1.337-2.076,14.412-15.48,1.337c-13.403-13.074-17.595-7.857-12.735-18.935
		c4.854-11.078-2.493-22.018-6.196-31.422c-3.706-9.405-12.239-13.35-10.675-17.702c1.565-4.353-4.662-0.782-2.061-13.006
		c2.603-12.224,11.634-37.971,11.634-37.971L355.735-146.55z"/>
	
		<image display="none" overflow="visible" enable-background="new    " width="800" height="500" xlink:href="../../../Referències fotogràgiques/compass_15.jpg"  transform="matrix(1.4405 0 0 1.4405 -1406.2783 -368.5459)">
	</image>
</g>
</svg>
