<?xml version="1.0" encoding="utf-8"?>
<!-- Generator: Adobe Illustrator 16.0.0, SVG Export Plug-In . SVG Version: 6.00 Build 0)  -->
<!DOCTYPE svg PUBLIC "-//W3C//DTD SVG 1.1//EN" "http://www.w3.org/Graphics/SVG/1.1/DTD/svg11.dtd">
<svg version="1.1" id="Capa_1" xmlns="http://www.w3.org/2000/svg" xmlns:xlink="http://www.w3.org/1999/xlink" x="0px" y="0px"
	 width="800px" height="800px" viewBox="0 0 800 800" enable-background="new 0 0 800 800" xml:space="preserve">
<g id="Capa_1_1_">
	
		<image display="none" overflow="visible" enable-background="new    " width="640" height="640" xlink:href="../../../Referències fotogràgiques/Czujnik-poziomu-oleju-w-zbiorniku-paliwa-czujnik-poziomu-wody-w-odzi-jednostka-sygnalizuj-ca-paliwa-Marine.jpg_640x640q70.jpg"  transform="matrix(0.8062 0 0 0.8062 125.9707 99.6328)">
	</image>
	
		<image display="none" overflow="visible" enable-background="new    " width="498" height="480" xlink:href="../../../Referències fotogràgiques/en_27_322_08.jpg"  transform="matrix(0.9761 0 0 0.9761 162.4844 151.3906)">
	</image>
	
		<image display="none" overflow="visible" enable-background="new    " width="800" height="800" xlink:href="../../../Referències fotogràgiques/stack-ora-vizhofok-mero-40-120c-elektromos-.jpg"  transform="matrix(0.7838 0 0 0.7838 89.8354 78.002)">
	</image>
</g>
<g id="WATER">
	<text transform="matrix(1 0 0 1 228.9629 459.8516)" font-family="'MyriadPro-Bold'" font-size="43.5622">ºC</text>
	<text transform="matrix(1 0 0 1 271.7183 356.5918)" font-family="'MyriadPro-Bold'" font-size="43.5622">40</text>
	<text transform="matrix(1 0 0 1 354.4053 314.2402)" font-family="'MyriadPro-Bold'" font-size="43.5622">80</text>
	<text transform="matrix(1 0 0 1 420.1523 318.6777)" font-family="'MyriadPro-Bold'" font-size="43.5622">100</text>
	<text transform="matrix(1 0 0 1 469.3613 360.9541)" font-family="'MyriadPro-Bold'" font-size="43.5622">120</text>
	
		<rect x="364.498" y="225.499" transform="matrix(-0.9922 0.1248 -0.1248 -0.9922 771.4005 445.0195)" width="14.521" height="42.353"/>
	
		<rect x="467.331" y="236.402" transform="matrix(-0.923 -0.3848 0.3848 -0.923 813.5354 677.9355)" width="14.521" height="42.352"/>
	
		<rect x="541.179" y="283.591" transform="matrix(-0.6971 -0.717 0.717 -0.6971 712.2322 910.4413)" width="14.521" height="42.352"/>
	
		<rect x="285.834" y="252.113" transform="matrix(-0.8463 0.5327 -0.5327 -0.8463 686.723 348.4393)" width="14.521" height="42.351"/>
	
		<rect x="245.896" y="283.586" transform="matrix(-0.6954 0.7186 -0.7186 -0.6954 648.209 334.7746)" width="14.52" height="42.352"/>
	
		<rect x="418.953" y="224.289" transform="matrix(-0.9967 -0.0814 0.0814 -0.9967 825.3298 516.1142)" width="8.469" height="33.883"/>
	
		<rect x="319.705" y="236.392" transform="matrix(-0.9252 0.3794 -0.3794 -0.9252 719.7734 364.8175)" width="8.468" height="33.881"/>
	
		<rect x="518.147" y="261.787" transform="matrix(-0.8004 -0.5994 0.5994 -0.8004 773.4337 814.9581)" width="8.468" height="33.88"/>
	<g>
		<path fill="none" stroke="#111111" stroke-width="2" stroke-linecap="round" stroke-miterlimit="10" d="M512.822,463.076
			c0,0,1.209,3.529,5.041,3.328s5.041-4.738,9.378-4.64c4.337,0.102,5.143,4.555,9.58,4.646c4.438,0.094,5.143-4.041,9.982-4.041
			c4.841,0,5.646,4.152,10.186,4.043c4.538-0.11,5.646-4.55,10.688-4.649c5.042-0.099,5.746,4.663,9.781,4.651
			c4.034-0.012,4.034-2.835,4.034-2.835"/>
		<polyline fill="none" stroke="#111111" stroke-width="4" stroke-linecap="round" stroke-miterlimit="10" points="547,413 
			547,417.901 547,449 		"/>
		
			<line fill="none" stroke="#111111" stroke-width="2" stroke-linecap="round" stroke-miterlimit="10" x1="556.989" y1="417.8" x2="547.207" y2="417.901"/>
		
			<line fill="none" stroke="#111111" stroke-width="2" stroke-linecap="round" stroke-miterlimit="10" x1="556.989" y1="426.271" x2="547.207" y2="426.372"/>
		
			<line fill="none" stroke="#111111" stroke-width="2" stroke-linecap="round" stroke-miterlimit="10" x1="556.989" y1="434.74" x2="547.207" y2="434.842"/>
		<circle fill="#161616" cx="547.207" cy="448.153" r="4.94"/>
		<path fill="none" stroke="#1E1E1E" stroke-width="2" stroke-linecap="round" stroke-miterlimit="10" d="M512.822,450.775
			c0,0,4.033-5.548,8.569-5.447c4.538,0.103,7.563,5.447,7.563,5.447"/>
		<path fill="none" stroke="#1E1E1E" stroke-width="2" stroke-linecap="round" stroke-miterlimit="10" d="M563.645,450.775
			c0,0,4.033-5.548,8.571-5.447c4.537,0.103,7.562,5.447,7.562,5.447"/>
	</g>
</g>
<g id="FUEL" display="none">
	<rect x="396" y="230" display="inline" fill="#232323" width="13" height="58"/>
	
		<rect x="543.569" y="298.075" transform="matrix(-0.6353 -0.7723 0.7723 -0.6353 647.1697 959.8496)" display="inline" fill="#232323" width="13.31" height="58.081"/>
	
		<rect x="248.311" y="298.11" transform="matrix(0.6353 -0.7723 0.7723 0.6353 -159.6624 316.2297)" display="inline" fill="#232323" width="13.31" height="58.084"/>
	
		<rect x="312.693" y="248.804" transform="matrix(0.9079 -0.4192 0.4192 0.9079 -84.0002 158.0115)" display="inline" fill="#232323" width="9.79" height="42.724"/>
	
		<rect x="482.099" y="248.814" transform="matrix(-0.9079 -0.4192 0.4192 -0.9079 815.8627 719.6245)" display="inline" fill="#232323" width="9.789" height="42.724"/>
	
		<text transform="matrix(1 0 0 1 241.9717 465.9473)" display="inline" fill="#232323" font-family="'MyriadPro-Bold'" font-size="43.7763">FUEL</text>
	
		<text transform="matrix(1 0 0 1 276.3125 388.0283)" display="inline" fill="#232323" font-family="'MyriadPro-Bold'" font-size="45.6908">E</text>
	
		<text transform="matrix(1 0 0 1 504.7109 388.0283)" display="inline" fill="#232323" font-family="'MyriadPro-Bold'" font-size="45.6908">F</text>
	
		<text transform="matrix(1.4697 0 0 1 393.2793 329.3398)" display="inline" fill="#232323" font-family="'MyriadPro-Bold'" font-size="45.6909">/</text>
	
		<text transform="matrix(1 0 0 1 386.271 315.0254)" display="inline" fill="#1E1E1E" font-family="'MyriadPro-Bold'" font-size="27.3227">1</text>
	
		<text transform="matrix(1 0 0 1 410.7744 331.5117)" display="inline" fill="#232323" font-family="'MyriadPro-Bold'" font-size="27.3227">2</text>
	<path display="inline" d="M546.451,436.128c-0.682-0.529-5.898-5.219-7.713-4.387c-1.815,0.832,3.178,4.688,4.085,5.748
		c0.907,1.059,1.591,0,0.91,5.37c-0.682,5.368,0.986,13.611,1.818,15.275s4.32,9.832-3.167,8.925
		c-7.486-0.907-4.804-5.597-5.105-14.143c-0.229-6.465-4.279-7.907-7.279-8.228V430h-26v40h-4v2h34v-2h-4v-22.203
		c2,0.605,3.83,1.715,4.52,2.913c1.664,2.888-1.219,5.989-0.084,12.493s8.504,7.94,13.192,5.369s0.697-11.192-0.135-13.688
		s-1.126-9.15-0.673-10.36c0.455-1.21,3.332-1.438,4.014-2.571C551.514,440.816,547.132,436.657,546.451,436.128z M528,445h-22v-13
		h22V445z"/>
</g>
<g id="Capa_2_copia">
	<path fill="#1E1E1E" d="M402,117c-150.589,0-272.667,122.077-272.667,272.667S251.411,662.334,402,662.334
		c150.59,0,272.666-122.078,272.666-272.667S552.59,117,402,117z M402,609.896c-121.63,0-220.23-98.602-220.23-220.23
		s98.6-220.23,220.23-220.23s220.23,98.601,220.23,220.23S523.63,609.896,402,609.896z"/>
	<path fill="#3D3D3D" d="M402,117c-150.589,0-272.667,122.077-272.667,272.667S251.411,662.334,402,662.334
		c150.59,0,272.666-122.078,272.666-272.667S552.59,117,402,117z M402,642.972c-139.896,0-253.305-113.409-253.305-253.305
		c0-139.896,113.409-253.306,253.305-253.306c139.896,0,253.306,113.409,253.306,253.305
		C655.306,529.562,541.896,642.972,402,642.972z"/>
	<path fill="#EA2424" d="M392.96,407.654l4.74-165.829l9.627-0.031c0,0,3.506,165.449,3.711,165.88L392.96,407.654z"/>
	<circle fill="#1E1E1E" cx="402" cy="450.978" r="50.016"/>
</g>
</svg>
