<?xml version="1.0" encoding="utf-8"?>
<!-- Generator: Adobe Illustrator 16.0.0, SVG Export Plug-In . SVG Version: 6.00 Build 0)  -->
<!DOCTYPE svg PUBLIC "-//W3C//DTD SVG 1.1//EN" "http://www.w3.org/Graphics/SVG/1.1/DTD/svg11.dtd">
<svg version="1.1" id="Equilibri" xmlns="http://www.w3.org/2000/svg" xmlns:xlink="http://www.w3.org/1999/xlink" x="0px" y="0px"
	 width="800px" height="800px" viewBox="0 0 800 800" enable-background="new 0 0 800 800" xml:space="preserve">
<g id="Cèl_2_">
	
		<linearGradient id="SVGID_1_" gradientUnits="userSpaceOnUse" x1="726.4131" y1="-470.2729" x2="1274.4844" y2="-470.2729" gradientTransform="matrix(0 -1 1 0 873.5 1201.5)">
		<stop  offset="0.1444" style="stop-color:#FFFFFF"/>
		<stop  offset="1" style="stop-color:#00C3FF"/>
	</linearGradient>
	<polygon fill="url(#SVGID_1_)" points="-3.491,-72.984 808.949,-72.984 809.945,475.087 -2.494,475.087 	"/>
</g>
<g id="Capa_2">
	<path fill="#D1D1D1" d="M537.133,197.909l-1.762-1.684c0,0,73.365-34.704,121.971,38.408
		C656.633,236.245,537.133,197.909,537.133,197.909z"/>
	<path fill="#D1D1D1" d="M529.58,238.622l2.123,10.628l107.117,24.033l18.521-38.649l-121.971-38.408L529.58,238.622z"/>
	
		<rect x="555.052" y="202.333" transform="matrix(-0.9532 -0.3024 0.3024 -0.9532 1105.9176 592.9134)" fill="#D1D1D1" width="87.624" height="17.001"/>
	<path fill="#29ABE2" d="M590.068,170.831c-0.021,0.05,0.936-0.634,0.936-0.634c2.187-1.091,7.308-4.26,7.308-4.26l12.136,3.806
		l13.365,4.299c0,0,2.349,5.561,3.509,7.712c0,0,0.247,1.03,0.259,0.978c2.603-8.199,1.537-13.698-4.951-15.757l-18.988-6.024
		C596.698,159.032,592.549,162.739,590.068,170.831z"/>
	<path fill="#D1D1D1" d="M575.148,216.947c-2.005,6.317,1.157,12.957,7.061,14.83l17.202,5.458
		c5.903,1.874,12.313-1.729,14.318-8.046l13.608-42.893c2.006-6.317-1.154-12.956-7.059-14.829l-17.203-5.458
		c-5.903-1.873-12.313,1.729-14.318,8.046L575.148,216.947z"/>
	<path fill="#E8CDA0" d="M556.105,195.302c-0.312,0.985,0.232,2.039,1.218,2.351l82.196,26.08c0.984,0.312,2.037-0.233,2.349-1.219
		l0,0c0.314-0.986-0.231-2.04-1.217-2.351l-82.195-26.08C557.471,193.77,556.419,194.316,556.105,195.302L556.105,195.302z"/>
	<g>
		<rect x="608.89" y="175.541" fill="#969696" width="0" height="13.999"/>
		
			<rect x="608.369" y="174.48" transform="matrix(0.7252 -0.6886 0.6886 0.7252 41.7819 469.2678)" fill="#969696" width="0.747" height="15.627"/>
		
			<rect x="608.064" y="174.741" transform="matrix(-0.2316 -0.9728 0.9728 -0.2316 571.7537 816.7286)" fill="#969696" width="0.746" height="15.627"/>
		<path stroke="#000000" stroke-miterlimit="10" d="M612.708,170.358c-6.722-2.133-13.902,1.587-16.035,8.311
			c-2.135,6.724,1.588,13.903,8.311,16.037c6.724,2.134,13.903-1.587,16.036-8.312C623.154,179.671,619.432,172.492,612.708,170.358
			z M605.523,193.002c-5.782-1.835-8.982-8.01-7.148-13.792c1.835-5.782,8.011-8.982,13.793-7.147
			c5.781,1.835,8.981,8.01,7.148,13.792C617.48,191.636,611.306,194.836,605.523,193.002z"/>
		<path stroke="#000000" stroke-miterlimit="10" d="M609.992,171.606c0.053,0.008,1.538,0.299,1.193,1.468
			c-0.345,1.17-0.638,2.104-0.638,2.104s-0.361,0.955,0.192,1.13c0.053,0.017,0.454,0.145,0.499,0.159
			c0.461,0.146,0.646-0.391,0.783-0.841c0.15-0.487,0.661-1.993,0.661-1.993s0.43-0.991,1.523-0.644
			c1.123,0.355-0.104-0.481-0.104-0.481l-3.536-1.105L609.992,171.606z"/>
		<path stroke="#000000" stroke-miterlimit="10" d="M599.826,176.275c0.035-0.042,0.992-1.181,1.834-0.297
			c0.84,0.883,1.422,1.515,1.422,1.515s0.567,0.705,0.994,0.313c0.042-0.038,0.354-0.321,0.389-0.353
			c0.355-0.326,0.062-0.668-0.256-1.012c-0.347-0.373-1.356-1.525-1.356-1.525s-0.771-0.899,0.127-1.614
			c0.918-0.73-0.362-0.143-0.362-0.143l-2.72,2.514L599.826,176.275z"/>
		<path d="M598.89,187.158c-0.019-0.05-0.525-1.45,0.66-1.736c1.187-0.286,2.022-0.474,2.022-0.474s0.895-0.139,0.77-0.706
			c-0.012-0.055-0.103-0.467-0.112-0.513c-0.103-0.471-0.545-0.388-1.003-0.283c-0.498,0.113-2,0.412-2,0.412
			s-1.103,0.046-1.349-1.075c-0.253-1.15-0.291,0.4-0.291,0.4l0.817,3.612L598.89,187.158z"/>
		<path stroke="#000000" stroke-miterlimit="10" d="M608.162,193.49c-0.053-0.009-1.519-0.27-1.174-1.44
			c0.346-1.169,0.626-2.065,0.626-2.065s0.351-0.918-0.203-1.094c-0.053-0.017-0.455-0.144-0.5-0.159
			c-0.459-0.146-0.635,0.354-0.771,0.803c-0.151,0.488-0.655,1.976-0.655,1.976s-0.571,1.064-1.689,0.703
			c-1.119-0.362,0.275,0.408,0.275,0.408l3.536,1.103L608.162,193.49z"/>
		<path stroke="#000000" stroke-miterlimit="10" d="M617.94,188.722c-0.034,0.042-0.992,1.18-1.833,0.297
			c-0.841-0.884-1.423-1.516-1.423-1.516s-0.566-0.704-0.995-0.313c-0.041,0.038-0.353,0.322-0.388,0.354
			c-0.356,0.325-0.064,0.667,0.257,1.011c0.347,0.374,1.356,1.526,1.356,1.526s0.584,0.982-0.263,1.756
			c-0.869,0.794,0.498,0.002,0.498,0.002l2.72-2.514L617.94,188.722z"/>
		<path stroke="#000000" stroke-miterlimit="10" d="M618.704,177.672c0.02,0.05,0.526,1.45-0.658,1.736
			c-1.186,0.286-2.023,0.475-2.023,0.475c-1.053,0.163-0.69,1.063-0.77,0.704c-0.012-0.054,0.102,0.466,0.112,0.514
			c0.104,0.471,0.547,0.389,1.004,0.283c0.496-0.114,2-0.412,2-0.412s1.185,0.026,1.432,1.146c0.253,1.151,0.209-0.472,0.209-0.472
			l-0.82-3.612L618.704,177.672z"/>
		<path fill="#969696" d="M609.891,179.802c-1.531-0.485-3.164,0.361-3.649,1.891c-0.485,1.53,0.36,3.164,1.892,3.649
			c1.527,0.484,3.162-0.362,3.648-1.892C612.266,181.921,611.418,180.288,609.891,179.802z M608.568,183.964
			c-0.768-0.244-1.193-1.065-0.949-1.834c0.243-0.769,1.064-1.194,1.833-0.95c0.77,0.244,1.193,1.064,0.949,1.833
			C610.158,183.782,609.337,184.208,608.568,183.964z"/>
		<circle cx="609.076" cy="182.425" r="1.667"/>
	</g>
	<g>
		<path fill="#EF45B7" d="M608.203,194.915c0,0,2.353,11.442-0.764,10.47c-3.113-0.974-2.049-1.849-6.057-2.901
			c-4.008-1.053-3.02,0.917-7.596-1.693c-4.577-2.614-6.786-1.633-5.316-3.936c1.474-2.299,4.724-6.18,4.724-6.18L608.203,194.915z"
			/>
		<g>
			<path fill="#996234" d="M593.082,190.941c0,0-0.762-8.131-1.073-10.224c-0.581-3.919,1.682-12.264,1.59-13.758
				c-0.092-1.497,0.006-3.073,1.774-0.958c1.768,2.117,0.622,9.65,0.157,13.417c-0.465,3.764,1.805,8.171,1.956,9.364
				c0.147,1.195-2-0.405-2-0.405L593.082,190.941z"/>
			<path fill="#996234" d="M608.185,195.959c0,0,5.632-6.937,6.699-8.765c1.999-3.422,3.007-12.007,3.649-13.361
				s1.14-2.854-1.289-1.549c-2.427,1.306-4.174,8.723-5.146,12.392c-0.969,3.668-5.783,5.989-6.366,7.04
				c-0.583,1.053,3.075,1.292,3.075,1.292L608.185,195.959z"/>
			<path fill="#8BC7E8" d="M618.001,184.507c0,0,4.672-9.689-0.575-13.435c-4.518-3.226-7.824-6.588-12.942-5.51
				c-5.12,1.079-6.828-0.601-8.968,4.006c-2.029,4.368-6.307,7.247-2.281,7.975c2.602,0.47-2.636,13.376-1.947,13.68
				c5.134,2.254,17.091,5.361,17.744,5.65c0.291,0.129,3.2-11.798,3.475-11.703C616.498,186.58,618.001,184.507,618.001,184.507z"/>
			<path fill="#996234" d="M610.912,152.068c0,0-1.896,5.532-3.933,12.301c-1.37,4.55,1.879,6.069,4.335,5.097
				c3.171-1.252,3.675-9.176,4.411-10.543C616.463,157.554,610.912,152.068,610.912,152.068z"/>
			<path fill="#301705" d="M609.425,165.369c0,0-4.294-1.949-2.209-6.199c2.082-4.25,0.655-8.38,4.27-8.478
				c3.413-0.091,6.313-2.046,6.521,2.121c0.209,4.167,0.585,6.463-1.249,8.764c-1.836,2.304-1.829,3.009-3.631,4.263
				C611.324,167.097,609.425,165.369,609.425,165.369z"/>
		</g>
	</g>
	<g>
		<path fill="#EF45B7" d="M612.107,202.448c0,0,2.354,11.443-0.764,10.47c-3.114-0.973-2.049-1.848-6.057-2.902
			c-4.007-1.052-3.02,0.918-7.597-1.692c-4.575-2.614-6.784-1.634-5.314-3.937c1.473-2.299,4.723-6.179,4.723-6.179L612.107,202.448
			z"/>
		<g>
			<path fill="#996234" d="M621.539,189.617c0,0-0.659,8.141-0.715,10.255c-0.092,3.406-2.817,9.663-3.689,12.3
				c-0.144,0.432,3.348,1.894,3.324,2.103c-0.168,1.49-4.652,0.493-5.497-0.491c-1.171-1.362,1.059-9.612,2.17-13.24
				c1.109-3.627-0.363-8.361-0.306-9.561c0.062-1.202,1.9,0.745,1.9,0.745L621.539,189.617z"/>
			<path fill="#996234" d="M599.354,181.223c0,0-4.665,7.621-5.482,9.574c-1.374,3.289-1.403,10.61-1.727,13.09
				c-0.037,0.277-3.141,0.635-3.29,0.623c-2.565-0.201,3.043,3.289,5.278,1.675c2.232-1.616,2.354-9.495,2.831-13.26
				c0.475-3.762,4.942-6.701,5.38-7.819c0.44-1.121-3.219-0.875-3.219-0.875L599.354,181.223z"/>
			<path fill="#8BC7E8" d="M621.904,192.042c0,0,4.673-9.689-0.574-13.436c-4.517-3.225-7.824-6.587-12.943-5.509
				c-5.12,1.078-6.827-0.601-8.968,4.005c-2.029,4.369-6.305,7.247-2.28,7.975c2.602,0.47-2.636,13.376-1.947,13.68
				c5.134,2.254,17.092,5.362,17.744,5.651c0.292,0.13,3.199-11.799,3.475-11.703C620.401,194.113,621.904,192.042,621.904,192.042z
				"/>
			<path fill="#996234" d="M614.815,159.602c0,0-1.894,5.532-3.931,12.3c-1.37,4.551,1.879,6.069,4.335,5.098
				c3.169-1.252,3.673-9.176,4.411-10.543C620.367,165.088,614.815,159.602,614.815,159.602z"/>
			<path fill="#301705" d="M613.328,172.902c0,0-4.294-1.95-2.207-6.199c2.081-4.25,0.654-8.38,4.27-8.478
				c3.412-0.092,6.313-2.046,6.521,2.121c0.208,4.167,0.584,6.463-1.25,8.762c-1.835,2.304-1.828,3.01-3.63,4.264
				C615.229,174.63,613.328,172.902,613.328,172.902z"/>
		</g>
	</g>
	<g>
		<path fill="#EF45B7" d="M641.655,211.824c0,0,2.353,11.442-0.763,10.469c-3.115-0.974-2.049-1.848-6.057-2.901
			c-4.007-1.053-3.02,0.917-7.598-1.692c-4.575-2.614-6.783-1.634-5.313-3.936c1.473-2.3,4.723-6.18,4.723-6.18L641.655,211.824z"/>
		<g>
			<path fill="#996234" d="M651.088,198.993c0,0-0.659,8.14-0.716,10.255c-0.092,3.405-2.817,9.663-3.689,12.3
				c-0.144,0.432,3.349,1.894,3.325,2.103c-0.169,1.49-4.652,0.493-5.498-0.491c-1.17-1.362,1.059-9.612,2.171-13.24
				c1.108-3.627-0.364-8.36-0.306-9.562c0.061-1.202,1.898,0.745,1.898,0.745L651.088,198.993z"/>
			<path fill="#996234" d="M628.9,190.599c0,0-4.664,7.621-5.48,9.574c-1.375,3.288-1.403,10.61-1.728,13.089
				c-0.036,0.276-3.14,0.634-3.289,0.624c-2.565-0.202,3.041,3.288,5.277,1.674c2.232-1.615,2.354-9.495,2.832-13.26
				c0.475-3.763,4.941-6.701,5.38-7.819c0.439-1.122-3.219-0.875-3.219-0.875L628.9,190.599z"/>
			<path fill="#8BC7E8" d="M651.453,201.417c0,0,4.672-9.69-0.574-13.435c-4.519-3.226-7.824-6.588-12.944-5.51
				c-5.12,1.079-6.827-0.601-8.968,4.006c-2.028,4.368-6.305,7.247-2.279,7.975c2.602,0.47-2.636,13.376-1.947,13.68
				c5.133,2.254,17.091,5.362,17.744,5.651c0.292,0.13,3.199-11.798,3.475-11.703C649.949,203.489,651.453,201.417,651.453,201.417z
				"/>
			<path fill="#996234" d="M644.364,168.978c0,0-1.895,5.531-3.931,12.3c-1.371,4.55,1.879,6.069,4.334,5.097
				c3.17-1.251,3.674-9.175,4.411-10.543S644.364,168.978,644.364,168.978z"/>
			<path fill="#301705" d="M642.877,182.278c0,0-4.294-1.95-2.208-6.199c2.081-4.25,0.654-8.38,4.271-8.479
				c3.412-0.091,6.313-2.046,6.521,2.121c0.207,4.167,0.583,6.462-1.251,8.763c-1.835,2.304-1.827,3.01-3.629,4.264
				C644.778,184.005,642.877,182.278,642.877,182.278z"/>
		</g>
	</g>
	<path fill="#394963" d="M608.831,234.584c-0.746,2.312-17.426,26.092-19.737,25.343l-9.815-3.209
		c-2.308-0.748-3.928-30.404-3.183-32.717l7.53-23.38c0.746-2.311,3.229-3.581,5.539-2.833l24.364,7.875
		c2.311,0.747,3.579,3.226,2.831,5.539L608.831,234.584z"/>
	<path fill="#FF0000" d="M566.763,229.6c0.23-0.724-0.171-1.497-1.848-2.029l-32.374-10.271c0.23,0.073-0.542,0.473-0.772,1.197l0,0
		c-0.23,0.724,0.172,1.498,0.895,1.727l32.374,10.271C565.76,230.724,566.533,230.324,566.763,229.6L566.763,229.6z"/>
	<path fill="#FF0000" d="M648.821,255.636c0.23-0.724-0.17-1.497-0.894-1.726l-32.373-10.272c-0.724-0.23-1.497,0.17-1.727,0.894
		l0,0c-0.229,0.724,0.171,1.497,0.894,1.727l32.374,10.272C647.819,256.76,648.593,256.36,648.821,255.636L648.821,255.636z"/>
</g>
<g id="Capa_2_copia">
	<path fill="#D1D1D1" d="M136.75,205.851l-2.188-1.072c0,0,59.435-55.267,127.876-0.279
		C262.25,206.25,136.75,205.851,136.75,205.851z"/>
	<path fill="#D1D1D1" d="M141.865,246.941h114.607l5.965-42.441l-127.876,0.279L141.865,246.941z"/>
	<rect x="155.688" y="191" fill="#D1D1D1" width="87.625" height="17"/>
	<path fill="#29ABE2" d="M179.019,164.031c-0.006,0.054,0.7-0.887,0.7-0.887c1.754-1.701,5.677-6.271,5.677-6.271l12.718-0.043
		l14.04,0.056c0,0,3.921,4.59,5.676,6.289c0,0,0.547,0.907,0.544,0.854c0-8.602-2.678-13.521-9.486-13.521h-19.92
		C181.77,150.78,178.935,155.568,179.019,164.031z"/>
	<path fill="#D1D1D1" d="M178.745,212.5c0,6.627,5.021,12,11.214,12h18.048c6.193,0,11.214-5.373,11.214-12v-45
		c0-6.627-5.021-12-11.214-12h-18.048c-6.193,0-11.214,5.373-11.214,12V212.5z"/>
	<path fill="#E8CDA0" d="M154.046,197.627c0,1.034,0.838,1.873,1.873,1.873h86.233c1.034,0,1.873-0.838,1.873-1.873l0,0
		c0-1.035-0.838-1.873-1.873-1.873h-86.233C154.885,195.754,154.046,196.593,154.046,197.627L154.046,197.627z"/>
	<g>
		<rect x="200.5" y="162.5" fill="#969696" width="0" height="14"/>
		
			<rect x="199.912" y="161.495" transform="matrix(0.4821 -0.8761 0.8761 0.4821 -44.6112 263.1459)" fill="#969696" width="0.747" height="15.628"/>
		
			<rect x="199.699" y="161.837" transform="matrix(-0.5144 -0.8576 0.8576 -0.5144 157.506 428.4908)" fill="#969696" width="0.747" height="15.626"/>
		<path stroke="#000000" stroke-miterlimit="10" d="M200.456,156.733c-7.054,0-12.772,5.718-12.772,12.772
			s5.718,12.772,12.772,12.772s12.772-5.718,12.772-12.772S207.509,156.733,200.456,156.733z M200.456,180.489
			c-6.066,0-10.984-4.917-10.984-10.984c0-6.066,4.918-10.984,10.984-10.984s10.984,4.918,10.984,10.984
			C211.439,175.572,206.522,180.489,200.456,180.489z"/>
		<path stroke="#000000" stroke-miterlimit="10" d="M198.244,158.744c0.053-0.008,1.556-0.18,1.581,1.039
			c0.025,1.22,0.029,2.197,0.029,2.197s-0.057,1.02,0.524,1.02c0.055,0,0.477,0,0.524,0c0.483,0,0.497-0.568,0.493-1.038
			c-0.004-0.51,0.026-2.1,0.026-2.1s0.11-1.074,1.258-1.074c1.178,0-0.246-0.427-0.246-0.427l-3.704,0.016L198.244,158.744z"/>
		<path stroke="#000000" stroke-miterlimit="10" d="M189.966,166.269c0.02-0.05,0.589-1.425,1.658-0.837s1.814,1.014,1.814,1.014
			s0.753,0.5,1.043-0.003c0.027-0.048,0.239-0.413,0.263-0.454c0.241-0.418-0.142-0.655-0.55-0.886
			c-0.444-0.251-1.754-1.043-1.754-1.043s-1.006-0.624-0.367-1.577c0.654-0.974-0.389-0.027-0.389-0.027l-1.832,3.219
			L189.966,166.269z"/>
		<path d="M192.366,176.926c-0.033-0.042-0.939-1.223,0.104-1.854c1.043-0.631,1.785-1.064,1.785-1.064s0.81-0.402,0.52-0.904
			c-0.028-0.049-0.238-0.414-0.262-0.455c-0.241-0.418-0.638-0.206-1.042,0.033c-0.439,0.259-1.781,0.998-1.781,0.998
			s-1.037,0.377-1.61-0.616c-0.589-1.02-0.157,0.468-0.157,0.468l1.872,3.196L192.366,176.926z"/>
		<path stroke="#000000" stroke-miterlimit="10" d="M203.118,180.157c-0.053,0.007-1.529,0.202-1.554-1.017
			c-0.025-1.219-0.029-2.158-0.029-2.158s0.057-0.981-0.524-0.981c-0.056,0-0.477,0-0.524,0c-0.483,0-0.497,0.529-0.493,0.999
			c0.004,0.51-0.027,2.081-0.027,2.081s-0.222,1.188-1.396,1.181c-1.178-0.006,0.385,0.306,0.385,0.306l3.704-0.019L203.118,180.157
			z"/>
		<path stroke="#000000" stroke-miterlimit="10" d="M210.997,172.655c-0.02,0.049-0.589,1.425-1.658,0.837
			c-1.069-0.588-1.814-1.014-1.814-1.014s-0.753-0.5-1.043,0.002c-0.028,0.048-0.239,0.413-0.263,0.454
			c-0.241,0.418,0.142,0.656,0.55,0.887c0.444,0.251,1.754,1.044,1.754,1.044s0.855,0.759,0.281,1.753
			c-0.589,1.02,0.475-0.149,0.475-0.149l1.832-3.219L210.997,172.655z"/>
		<path stroke="#000000" stroke-miterlimit="10" d="M208.383,161.891c0.033,0.042,0.939,1.223-0.104,1.854s-1.786,1.064-1.786,1.064
			c-0.954,0.474-0.335,1.222-0.519,0.904c-0.028-0.048,0.238,0.414,0.262,0.455c0.241,0.417,0.638,0.205,1.043-0.034
			c0.439-0.259,1.781-0.998,1.781-0.998s1.138-0.334,1.712,0.66c0.588,1.02,0.056-0.512,0.056-0.512l-1.873-3.196L208.383,161.891z"
			/>
		<path fill="#969696" d="M200.625,166.587c-1.605,0-2.906,1.301-2.906,2.906c0,1.605,1.301,2.906,2.906,2.906
			c1.604,0,2.906-1.301,2.906-2.906C203.53,167.889,202.229,166.587,200.625,166.587z M200.625,170.954
			c-0.807,0-1.46-0.654-1.46-1.46s0.654-1.46,1.46-1.46c0.806,0,1.46,0.654,1.46,1.46S201.431,170.954,200.625,170.954z"/>
		<circle cx="200.642" cy="169.333" r="1.668"/>
	</g>
	<g>
		<path fill="#EF45B7" d="M203.588,181.502c0,0,5.704,10.195,2.438,10.21c-3.263,0.015-2.512-1.142-6.65-0.934
			c-4.137,0.208-2.601,1.788-7.753,0.684c-5.152-1.107-6.961,0.495-6.255-2.145C186.075,186.682,188,182,188,182L203.588,181.502z"
			/>
		<g>
			<path fill="#996234" d="M187.973,182.288c0,0-3.186-7.52-4.115-9.421c-1.74-3.561-2.106-12.198-2.646-13.595
				c-0.541-1.398-0.922-2.931,1.401-1.45c2.324,1.483,3.512,9.01,4.208,12.741c0.695,3.729,4.192,7.242,4.697,8.333
				c0.501,1.094-2.03,0.219-2.03,0.219L187.973,182.288z"/>
			<path fill="#996234" d="M203.887,182.504c0,0,3.269-8.315,3.734-10.38c0.869-3.866-0.766-12.354-0.563-13.839
				c0.203-1.484,0.224-3.064-1.697-1.086c-1.918,1.979-1.34,9.577-1.156,13.367c0.187,3.789-3.702,7.458-3.939,8.636
				c-0.238,1.18,3.322,0.301,3.322,0.301L203.887,182.504z"/>
			<path fill="#8BC7E8" d="M209.779,168.62c0,0,1.522-10.649-4.611-12.632c-5.281-1.708-9.45-3.913-14.004-1.337
				c-4.554,2.577-6.689,1.493-7.336,6.531c-0.613,4.777-3.818,8.814,0.238,8.291c2.623-0.338,1.533,13.547,2.282,13.628
				c5.574,0.596,17.911-0.058,18.622,0.02c0.317,0.035-0.519-12.214-0.228-12.206C208.972,171.049,209.779,168.62,209.779,168.62z"
				/>
			<path fill="#996234" d="M193.211,139.843c0,0-0.133,5.846-0.028,12.913c0.071,4.752,3.627,5.217,5.675,3.548
				c2.642-2.152,0.726-9.857,1.015-11.383C200.162,143.394,193.211,139.843,193.211,139.843z"/>
			<path fill="#301705" d="M195.816,152.971c0,0-4.683-0.56-3.979-5.241c0.699-4.68-1.911-8.186,1.506-9.372
				c3.225-1.12,5.398-3.86,6.856,0.049c1.458,3.909,2.512,5.983,1.458,8.73c-1.052,2.751-0.832,3.421-2.17,5.162
				C198.151,154.042,195.816,152.971,195.816,152.971z"/>
		</g>
	</g>
	<g>
		<path fill="#EF45B7" d="M175.588,187.502c0,0,5.704,10.195,2.438,10.21c-3.263,0.015-2.512-1.142-6.65-0.934
			c-4.137,0.208-2.601,1.788-7.753,0.684c-5.152-1.107-6.961,0.495-6.255-2.145C158.075,192.682,160,188,160,188L175.588,187.502z"
			/>
		<g>
			<path fill="#996234" d="M180.697,172.42c0,0,1.834,7.958,2.42,9.991c0.942,3.273,0.236,10.062,0.203,12.84
				c-0.005,0.455,3.765,0.792,3.805,0.999c0.29,1.471-4.285,1.876-5.388,1.194c-1.528-0.944-1.898-9.482-1.937-13.277
				c-0.039-3.792-2.874-7.859-3.182-9.021c-0.305-1.164,2.037,0.136,2.037,0.136L180.697,172.42z"/>
			<path fill="#996234" d="M157.011,171.129c0,0-2.141,8.674-2.329,10.783c-0.315,3.55,1.872,10.538,2.312,12.999
				c0.049,0.275-2.801,1.555-2.947,1.589c-2.504,0.583,3.895,2.215,5.537,0c1.64-2.215-0.626-9.762-1.31-13.496
				c-0.686-3.73,2.684-7.882,2.763-9.08c0.08-1.202-3.333,0.14-3.333,0.14L157.011,171.129z"/>
			<path fill="#8BC7E8" d="M181.779,174.62c0,0,1.522-10.649-4.611-12.632c-5.281-1.708-9.45-3.913-14.004-1.337
				c-4.554,2.577-6.689,1.493-7.336,6.531c-0.613,4.777-3.818,8.814,0.238,8.291c2.623-0.338,1.533,13.547,2.282,13.628
				c5.574,0.596,17.911-0.058,18.622,0.02c0.317,0.035-0.519-12.214-0.228-12.206C180.972,177.049,181.779,174.62,181.779,174.62z"
				/>
			<path fill="#996234" d="M165.211,145.843c0,0-0.133,5.846-0.028,12.913c0.071,4.752,3.627,5.217,5.675,3.548
				c2.642-2.152,0.726-9.857,1.015-11.383C172.162,149.394,165.211,145.843,165.211,145.843z"/>
			<path fill="#301705" d="M167.816,158.971c0,0-4.683-0.56-3.979-5.241c0.699-4.68-1.911-8.186,1.506-9.372
				c3.225-1.12,5.398-3.86,6.856,0.049c1.458,3.909,2.512,5.983,1.458,8.73c-1.052,2.751-0.832,3.421-2.17,5.162
				C170.151,160.042,167.816,158.971,167.816,158.971z"/>
		</g>
	</g>
	<g>
		<path fill="#EF45B7" d="M237.588,187.502c0,0,5.704,10.195,2.438,10.21c-3.263,0.015-2.512-1.142-6.65-0.934
			c-4.137,0.208-2.601,1.788-7.753,0.684c-5.152-1.107-6.961,0.495-6.255-2.145C220.075,192.682,222,188,222,188L237.588,187.502z"
			/>
		<g>
			<path fill="#996234" d="M242.697,172.42c0,0,1.834,7.958,2.42,9.991c0.942,3.273,0.236,10.062,0.203,12.84
				c-0.005,0.455,3.765,0.792,3.805,0.999c0.29,1.471-4.285,1.876-5.388,1.194c-1.528-0.944-1.898-9.482-1.937-13.277
				c-0.039-3.792-2.874-7.859-3.182-9.021c-0.305-1.164,2.037,0.136,2.037,0.136L242.697,172.42z"/>
			<path fill="#996234" d="M219.011,171.129c0,0-2.141,8.674-2.329,10.783c-0.315,3.55,1.872,10.538,2.312,12.999
				c0.049,0.275-2.801,1.555-2.947,1.589c-2.504,0.583,3.895,2.215,5.537,0c1.64-2.215-0.626-9.762-1.31-13.496
				c-0.686-3.73,2.684-7.882,2.763-9.08c0.08-1.202-3.333,0.14-3.333,0.14L219.011,171.129z"/>
			<path fill="#8BC7E8" d="M243.779,174.62c0,0,1.522-10.649-4.611-12.632c-5.281-1.708-9.45-3.913-14.004-1.337
				c-4.554,2.577-6.689,1.493-7.336,6.531c-0.613,4.777-3.818,8.814,0.238,8.291c2.623-0.338,1.533,13.547,2.282,13.628
				c5.574,0.596,17.911-0.058,18.622,0.02c0.317,0.035-0.519-12.214-0.228-12.206C242.972,177.049,243.779,174.62,243.779,174.62z"
				/>
			<path fill="#996234" d="M227.211,145.843c0,0-0.133,5.846-0.028,12.913c0.071,4.752,3.627,5.217,5.675,3.548
				c2.642-2.152,0.726-9.857,1.015-11.383C234.162,149.394,227.211,145.843,227.211,145.843z"/>
			<path fill="#301705" d="M229.816,158.971c0,0-4.683-0.56-3.979-5.241c0.699-4.68-1.911-8.186,1.506-9.372
				c3.225-1.12,5.398-3.86,6.856,0.049c1.458,3.909,2.512,5.983,1.458,8.73c-1.052,2.751-0.832,3.421-2.17,5.162
				C232.151,160.042,229.816,158.971,229.816,158.971z"/>
		</g>
	</g>
	<path fill="#394963" d="M216.184,219.124c-0.012,2.43-8.719,30.141-11.148,30.126l-10.327-0.09
		c-2.426-0.015-12.939-27.792-12.927-30.222l0.105-24.562c0.013-2.429,1.994-4.39,4.423-4.375l25.605,0.138
		c2.429,0.013,4.387,1.992,4.374,4.423L216.184,219.124z"/>
	<path fill="#FF0000" d="M174.578,227.096c0-0.759-0.616-1.375-2.375-1.375h-33.963c0.241,0-0.375,0.616-0.375,1.375l0,0
		c0,0.759,0.616,1.375,1.375,1.375h33.963C173.962,228.471,174.578,227.855,174.578,227.096L174.578,227.096z"/>
	<path fill="#FF0000" d="M260.669,227.096c0-0.759-0.616-1.375-1.375-1.375h-33.963c-0.759,0-1.375,0.616-1.375,1.375l0,0
		c0,0.759,0.616,1.375,1.375,1.375h33.963C260.053,228.471,260.669,227.855,260.669,227.096L260.669,227.096z"/>
</g>
<rect x="-23" y="246" fill="#42C9CC" width="840" height="567"/>
<g>
	<g>
		<line fill="none" stroke="#FFFFFF" stroke-width="3" stroke-miterlimit="10" x1="-110" y1="392.5" x2="-97" y2="392.5"/>
		
			<line fill="none" stroke="#FFFFFF" stroke-width="3" stroke-miterlimit="10" stroke-dasharray="26,25" x1="-73" y1="392.5" x2="819" y2="392.5"/>
		<line fill="none" stroke="#FFFFFF" stroke-width="3" stroke-miterlimit="10" x1="831" y1="392.5" x2="844" y2="392.5"/>
	</g>
</g>
<g>
	<g>
		<line fill="none" stroke="#FFFFFF" stroke-width="3" stroke-miterlimit="10" x1="399.5" y1="-49" x2="399.5" y2="-36"/>
		
			<line fill="none" stroke="#FFFFFF" stroke-width="3" stroke-miterlimit="10" stroke-dasharray="25,24" x1="399.5" y1="-12" x2="399.5" y2="909"/>
		<line fill="none" stroke="#FFFFFF" stroke-width="3" stroke-miterlimit="10" x1="399.5" y1="921" x2="399.5" y2="934"/>
	</g>
</g>
<g id="Barcos_1_">
	<g id="Barco_2_">
		<g id="Capa_4_4_">
			<path fill="#D1D1D1" d="M538.885,743.441h122.336l2.256-145.721c0,0,11.287-120.787-63.631-162.249
				c-72.455,39.819-64.245,159.22-64.245,159.22L538.885,743.441z"/>
			<path fill="#F4F4F4" d="M599.421,467.02c0,0,52.974-2.037,54.819,103.539c1.847,105.578-5.465,116.797-5.465,116.797h-98.396
				l-4.607-32.062v-90.768C545.771,564.521,548.959,470.228,599.421,467.02z"/>
			<path fill="#E8E8E8" d="M600.052,466.369c-40.937-0.775-53.898,51.557-57.187,100.989l1.354,81.896l2.056,59.116l31.813,7.387
				l5.133-6.104l34.072,0.153c0,0,4.308,5.132,5.336,5.132c5.781,0,31.204-6.979,31.204-6.979s0.908-40.136,1.333-58.197
				c0.014-0.613,2.338-81.386,2.305-82.403C655.727,518.023,644.565,467.218,600.052,466.369z M653.315,648.024
				c0.206,1.335-5.233,56.034-5.233,56.034s-21.266,3.938-26.725,3.938c-0.971,0-5.035-4.904-5.035-4.904l-32.169-0.146
				l-4.845,5.835l-28.314-4.719l-4.721-55.971c-0.684-48.577,0.27-49.262,0-80.732c3.741-48.223,18.476-99.45,54.323-98.524
				c35.625,0.921,50.062,50.857,53.235,98.524C653.807,569.205,652.904,647.203,653.315,648.024z"/>
			<path fill="#FFFFFF" d="M600.488,563.68l0.021-0.49l-16.317,2.432l-6.658,6.825c-3.696,2.668-4.403,16.11-4.403,16.11v24.938
				l2.581,5.438l18.227-3.182l6.662-10.289l-0.11-8.546L600.488,563.68L600.488,563.68z"/>
			<path fill="#FFFFFF" d="M600.155,563.683l0.354-0.493l15.374,2.432l6.536,6.825c3.693,2.668,4.279,16.11,4.279,16.11v24.938
				l-2.336,5.438l-18.101-3.182l-6.435-10.289l0.312-8.547L600.155,563.683z"/>
			<path fill="#C6C6C6" d="M624.271,607.114c-0.052-0.771-7.288-12.13-7.288-12.13l-32.873-0.346l-8.243,11.718V608v0.82v0.82v9.315
				h48.404C624.271,618.957,624.323,607.885,624.271,607.114z"/>
			<path fill="#394963" d="M617.753,761.692c-0.012,2.43-1.993,4.391-4.422,4.376l-25.605-0.136
				c-2.427-0.015-4.388-1.997-4.376-4.427l0.213-39.333c0.013-2.429,1.992-4.39,4.423-4.375l25.604,0.138
				c2.43,0.013,4.387,1.992,4.374,4.423L617.753,761.692z"/>
			<path fill="#29ABE2" d="M619.211,584.759h-16.594h-6.328h-14.95c0,0-4.792,6.69-5.574,23.27
				c-0.007,0.096,0.854,0.177,0.854,0.177c2.178-3.065,7.047-11.296,7.047-11.296l15.787-0.078l17.429,0.102
				c0,0,4.867,8.269,7.046,11.33c0,0,0.861-0.14,0.857-0.235C624,591.445,619.211,584.759,619.211,584.759z"/>
			<g id="Timó_10_">
				<path d="M582.091,615.058c0,6.671,21.987,7.152,21.987-0.062C604.078,608.658,582.091,608.062,582.091,615.058z
					 M584.004,614.982c0-4.769,18.16-4.359,18.16-0.04C602.165,619.858,584.004,619.529,584.004,614.982z"/>
				<path d="M590.327,611.335c0,0,0.052,2.078,2.539,2.05c2.489-0.024,2.153-1.872,2.208-2.05
					C595.125,611.153,590.327,611.335,590.327,611.335z"/>
				<polygon points="592.072,613.485 591.432,618.957 594.715,618.957 593.842,613.485 				"/>
				<path d="M594.303,611.95c0.053,0,8.031,3.489,8.031,3.489l0.31-2.054l-8.083-2.411L594.303,611.95z"/>
				<path d="M590.967,611.95c-0.05,0-8.262,3.489-8.262,3.489v-2.054l7.775-2.411L590.967,611.95z"/>
			</g>
			<g id="Tapiceria_10_">
				<path fill="#E8CDA0" d="M653.833,567.358c0,0-26.89,0.204-32.843-28.327c-5.951-28.53-9.44-67.734-9.854-68.558
					C610.729,469.655,650.958,479.508,653.833,567.358z"/>
				<path fill="#E8CDA0" d="M546.273,567.358c0,0,26.889,0.204,32.842-28.327c5.953-28.53,9.442-67.734,9.853-68.558
					C589.377,469.655,549.146,479.508,546.273,567.358z"/>
				<path fill="#E8CDA0" d="M548.326,679.223c0,0-1.968-6.615,4.516-4.311c21.349,7.597,71.637,9.237,94.212-0.407
					c4.732-2.021,4.66-0.829,4.518,2.359c-0.106,2.394-3.488,27.194-3.488,27.194s-38.59,14.778-97.088,0L548.326,679.223z"/>
				<path fill="#E8CDA0" d="M625.111,649.858c0,1.367-1.452,1.929-3.354,1.929H578.45c-1.898,0-3.955-0.562-3.955-1.929v-14.446
					c0-1.368,2.057-2.775,3.955-2.775h43.308c1.901,0,3.354,1.407,3.354,2.775V649.858z"/>
			</g>
		</g>
		<g>
			<path fill="#996234" d="M583.69,622.357c0,0,2.342-2.91,3.432,1.722c1.089,4.632,3.218,9.263,3.218,9.263
				s4.979-1.442,5.658-2.806c0.679-1.361,0.109-7.569,4.426-9.129c4.318-1.559,6.271-2.539,4.426,3.984
				c-1.842,6.526-2.514,11.132-2.514,11.132l-17.961,3.998l-0.685-17.14"/>
			<path fill="#EF45B7" d="M585.957,638c0,0-6.543-9.756-3.051-9.4c3.49,0.355,1.678,3.013,6.112,3.245
				c4.436,0.231,3.828-3.209,9.271-1.346c5.442,1.863,7.472,0.265,6.559,3.226c-0.915,2.961-1.116,4.275-1.116,4.275H585.957z"/>
			<path fill="#996234" d="M580.752,638.873c0,0-0.3-7.737-0.508-9.737c-0.391-3.743,2.795-11.505,2.795-12.926
				c0-1.42,0.227-2.906,2.104-0.802c1.876,2.104,0.031,9.167-0.768,12.703c-0.801,3.533,1.493,7.837,1.582,8.974
				c0.086,1.139-2.268-0.5-2.268-0.5L580.752,638.873z"/>
			<path fill="#996234" d="M605.062,639.365c0,0,2.428-8.229,2.636-10.229c0.389-3.743-2.795-11.505-2.795-12.926
				c0-1.42-0.224-2.906-2.103-0.802c-1.878,2.104-0.035,9.167,0.765,12.703c0.803,3.533-3.056,7.479-3.142,8.616
				c-0.086,1.14,3.83-0.144,3.83-0.144L605.062,639.365z"/>
			<path fill="#8BC7E8" d="M577.326,638.873c0,0,1.448,9.576,7.377,11.519c5.928,1.942,7.978,2.612,13.302,0.311
				c5.325-2.306,8.147-1.035,7.743-5.84c-0.402-4.802,2.814-7.292-1.797-8.044c-4.969-0.812-18.327-1.724-19.248-1.831
				C579.041,634.319,577.326,638.873,577.326,638.873z"/>
			<path fill="#301705" d="M591.779,650.392c0,0-5.383-0.529-4.574-4.969c0.804-4.437-1.555-6.058,2.246-7.446
				c3.8-1.392,5.688-5.098,7.365-1.392c1.676,3.706,2.887,5.672,1.676,8.276c-1.209,2.607-0.956,3.242-2.494,4.894
				C594.461,651.408,591.779,650.392,591.779,650.392z"/>
		</g>
		<g>
			<path fill="#996234" d="M591.597,673.68c0,0,3.602-1.929,4.881,2.654c1.279,4.582,3.6,9.122,3.6,9.122s4.914-1.647,5.537-3.038
				c0.622-1.388-0.204-7.568,4.044-9.304c4.251-1.735,5.108-0.395,4.587,3.798c-0.835,6.729-2.051,11.228-2.051,11.228l-17.78,4.737
				l-2.659-15.396C591.754,677.479,590.345,676.066,591.597,673.68z"/>
			<path fill="#EF45B7" d="M591.812,690.367c0,0-2.865-9.601,0.638-9.389c3.503,0.211,2.683,1.492,7.125,1.541
				c4.439,0.049,2.811-1.883,8.326-0.246c5.515,1.638,7.476-0.086,6.687,2.911c-0.793,2.997-0.939,4.277-0.939,4.277
				L591.812,690.367z"/>
			<path fill="#8BC7E8" d="M587.302,691.521c0,0,1.845,9.508,7.849,11.201c6.004,1.695,8.078,2.279,13.304-0.239
				c5.226-2.524,8.097-1.373,7.495-6.154c-0.603-4.781,2.511-7.405-2.128-7.964c-4.998-0.604-18.383-0.964-19.31-1.033
				C588.827,686.899,587.302,691.521,587.302,691.521z"/>
			<path fill="#301705" d="M602.221,702.431c0,0-5.398-0.307-4.776-4.774c0.621-4.465-1.805-5.988,1.936-7.533
				c3.74-1.547,5.474-5.328,7.303-1.694c1.827,3.634,3.118,5.548,2.018,8.201c-1.102,2.654-0.821,3.279-2.29,4.991
				C604.941,703.336,602.221,702.431,602.221,702.431z"/>
		</g>
		<g>
			<path fill="#996234" d="M621.027,673.414c0,0,3.07-2.691,5.354,1.484c2.281,4.174,5.566,8.071,5.566,8.071
				s4.414-2.714,4.707-4.209c0.293-1.491-1.908-7.325,1.839-9.978c3.749-2.65,4.888-1.536,5.327,2.665
				c0.705,6.745,0.537,11.398,0.537,11.398l-16.253,8.631l-6.065-14.398C622.039,677.08,620.346,676.021,621.027,673.414z"/>
			<path fill="#EF45B7" d="M625.006,689.622c0,0-4.96-8.705-1.5-9.29c3.461-0.586,2.951,0.85,7.29-0.106
				c4.337-0.956,2.312-2.47,8.056-2.122c5.742,0.352,7.265-1.771,7.17,1.328c-0.096,3.099,0.052,4.379,0.052,4.379L625.006,689.622z
				"/>
			<path fill="#8BC7E8" d="M620.872,691.766c0,0,3.944,8.847,10.175,9.142c6.23,0.296,8.385,0.396,12.906-3.24
				c4.521-3.639,7.577-3.165,5.911-7.688c-1.665-4.521,0.772-7.778-3.872-7.275c-5.006,0.54-18.125,3.213-19.043,3.354
				C621.312,686.918,620.872,691.766,620.872,691.766z"/>
			<path fill="#301705" d="M637.869,699.024c0,0-5.33,0.92-5.731-3.573c-0.404-4.491-3.109-5.427,0.186-7.777
				c3.293-2.35,4.128-6.425,6.729-3.299c2.603,3.127,4.29,4.699,3.816,7.534c-0.474,2.834-0.06,3.379-1.104,5.379
				C640.725,699.292,637.869,699.024,637.869,699.024z"/>
		</g>
		<g>
			<path fill="#996234" d="M615.027,524.48c0,0-2.57-3.175,1.69-5.291c4.26-2.116,8.284-5.245,8.284-5.245s-2.538-4.52-4.021-4.87
				c-1.479-0.352-7.396,1.62-9.896-2.228c-2.502-3.852-1.344-4.944,2.871-5.218c6.768-0.441,11.412-0.091,11.412-0.091l7.986,16.576
				l-14.626,5.499C618.729,523.614,617.605,525.265,615.027,524.48z"/>
			<path fill="#EF45B7" d="M631.377,521.141c0,0-8.893,4.615-9.342,1.135s0.965-2.915,0.18-7.288
				c-0.785-4.371-2.377-2.408-1.805-8.134c0.575-5.725-1.485-7.326,1.606-7.112c3.093,0.218,4.378,0.123,4.378,0.123
				L631.377,521.141z"/>
			<path fill="#8BC7E8" d="M633.357,525.354c0,0,8.993-3.595,9.53-9.809c0.541-6.216,0.727-8.363-2.73-13.023
				c-3.458-4.658-2.866-7.694-7.45-6.206c-4.582,1.485-7.744-1.078-7.422,3.583c0.344,5.021,2.5,18.236,2.604,19.159
				C628.531,524.724,633.357,525.354,633.357,525.354z"/>
			<path fill="#301705" d="M641.276,508.654c0,0,0.711,5.36-3.796,5.588c-4.503,0.229-5.544,2.895-7.764-0.489
				c-2.22-3.382-6.259-4.376-3.033-6.854c3.227-2.478,4.864-4.104,7.679-3.521c2.813,0.583,3.374,0.192,5.331,1.313
				C641.655,505.812,641.276,508.654,641.276,508.654z"/>
		</g>
		<g>
			<path fill="#996234" d="M630.216,569.138c0,0-3.559-2.004-0.375-5.543c3.181-3.536,5.77-7.927,5.77-7.927
				s-4.023-3.267-5.531-3.047c-1.504,0.219-6.28,4.229-10.022,1.575c-3.744-2.659-3.07-4.104,0.749-5.909
				c6.128-2.903,10.576-4.286,10.576-4.286l13.529,12.469l-11.571,10.498C633.339,566.968,632.902,568.917,630.216,569.138z"/>
			<path fill="#EF45B7" d="M644.188,560.011c0,0-6.567,7.566-8.269,4.495c-1.699-3.07-0.177-3.064-2.517-6.842
				c-2.341-3.775-3.1-1.363-4.675-6.898c-1.571-5.531-4.078-6.264-1.124-7.203c2.954-0.938,4.115-1.497,4.115-1.497L644.188,560.011
				z"/>
			<path fill="#8BC7E8" d="M647.58,563.199c0,0,7.037-6.654,5.249-12.629c-1.787-5.979-2.405-8.043-7.337-11.104
				c-4.932-3.059-5.498-6.098-9.213-3.025c-3.713,3.067-7.597,1.849-5.58,6.062c2.171,4.544,9.041,16.035,9.479,16.854
				C642.86,564.392,647.58,563.199,647.58,563.199z"/>
			<path fill="#301705" d="M648.792,544.758c0,0,2.636,4.724-1.472,6.592c-4.103,1.872-4.087,4.733-7.397,2.404
				c-3.309-2.327-7.429-1.764-5.344-5.256c2.087-3.49,3.011-5.606,5.842-6.1c2.831-0.494,3.208-1.063,5.441-0.742
				C648.098,541.976,648.792,544.758,648.792,544.758z"/>
		</g>
	</g>
	<g id="Barco_4_">
		<g id="Capa_4_6_">
			<path fill="#D1D1D1" d="M138.885,743.441H261.22l2.256-145.721c0,0,11.287-120.787-63.63-162.249
				c-72.455,39.819-64.246,159.22-64.246,159.22L138.885,743.441z"/>
			<path fill="#F4F4F4" d="M199.421,467.02c0,0,52.973-2.037,54.819,103.539c1.847,105.578-5.464,116.797-5.464,116.797h-98.397
				l-4.608-32.062v-90.768C145.771,564.521,148.959,470.228,199.421,467.02z"/>
			<path fill="#E8E8E8" d="M200.052,466.369c-40.936-0.775-53.899,51.557-57.187,100.989l1.354,81.896l2.054,59.116l31.814,7.387
				l5.133-6.104l34.072,0.153c0,0,4.308,5.132,5.336,5.132c5.782,0,31.205-6.979,31.205-6.979s0.908-40.136,1.333-58.197
				c0.014-0.613,2.339-81.386,2.306-82.403C255.726,518.023,244.565,467.218,200.052,466.369z M253.315,648.024
				c0.206,1.335-5.234,56.034-5.234,56.034s-21.266,3.938-26.724,3.938c-0.97,0-5.036-4.904-5.036-4.904l-32.169-0.146l-4.844,5.835
				l-28.315-4.719l-4.721-55.971c-0.683-48.577,0.269-49.262,0-80.732c3.742-48.223,18.476-99.45,54.325-98.524
				c35.625,0.921,50.062,50.857,53.235,98.524C253.807,569.205,252.904,647.203,253.315,648.024z"/>
			<path fill="#FFFFFF" d="M200.489,563.68l0.021-0.49l-16.319,2.432l-6.658,6.825c-3.696,2.668-4.403,16.11-4.403,16.11v24.938
				l2.582,5.438l18.226-3.182l6.663-10.289l-0.111-8.546L200.489,563.68L200.489,563.68z"/>
			<path fill="#FFFFFF" d="M200.155,563.683l0.355-0.493l15.374,2.432l6.536,6.825c3.693,2.668,4.279,16.11,4.279,16.11v24.938
				l-2.335,5.438l-18.101-3.182l-6.434-10.289l0.312-8.547L200.155,563.683z"/>
			<path fill="#C6C6C6" d="M224.271,607.114c-0.05-0.771-7.288-12.13-7.288-12.13l-32.873-0.346l-8.244,11.718V608v0.82v0.82v9.315
				h48.405C224.271,618.957,224.323,607.885,224.271,607.114z"/>
			<path fill="#394963" d="M217.753,761.692c-0.012,2.43-1.993,4.391-4.422,4.376l-25.605-0.136
				c-2.426-0.015-4.387-1.997-4.375-4.427l0.211-39.333c0.013-2.429,1.994-4.39,4.423-4.375l25.605,0.138
				c2.429,0.013,4.387,1.992,4.374,4.423L217.753,761.692z"/>
			<path fill="#29ABE2" d="M219.21,584.759h-16.593h-6.329h-14.95c0,0-4.792,6.69-5.574,23.27c-0.007,0.096,0.855,0.177,0.855,0.177
				c2.178-3.065,7.046-11.296,7.046-11.296l15.788-0.078l17.428,0.102c0,0,4.867,8.269,7.046,11.33c0,0,0.861-0.14,0.856-0.235
				C224,591.445,219.21,584.759,219.21,584.759z"/>
			<g id="Timó_15_">
				<path d="M182.091,615.058c0,6.671,21.987,7.152,21.987-0.062C204.078,608.658,182.091,608.062,182.091,615.058z
					 M184.004,614.982c0-4.769,18.16-4.359,18.16-0.04C202.165,619.858,184.004,619.529,184.004,614.982z"/>
				<path d="M190.327,611.335c0,0,0.052,2.078,2.539,2.05c2.489-0.024,2.154-1.872,2.208-2.05
					C195.125,611.153,190.327,611.335,190.327,611.335z"/>
				<polygon points="192.072,613.485 191.431,618.957 194.714,618.957 193.842,613.485 				"/>
				<path d="M194.303,611.95c0.052,0,8.031,3.489,8.031,3.489l0.309-2.054l-8.083-2.411L194.303,611.95z"/>
				<path d="M190.967,611.95c-0.05,0-8.263,3.489-8.263,3.489v-2.054l7.775-2.411L190.967,611.95z"/>
			</g>
			<g id="Tapiceria_14_">
				<path fill="#E8CDA0" d="M253.833,567.358c0,0-26.889,0.204-32.843-28.327c-5.951-28.53-9.44-67.734-9.852-68.558
					C210.728,469.655,250.958,479.508,253.833,567.358z"/>
				<path fill="#E8CDA0" d="M146.273,567.358c0,0,26.889,0.204,32.842-28.327c5.953-28.53,9.443-67.734,9.853-68.558
					C189.377,469.655,149.147,479.508,146.273,567.358z"/>
				<path fill="#E8CDA0" d="M148.326,679.223c0,0-1.968-6.615,4.515-4.311c21.348,7.597,71.637,9.237,94.212-0.407
					c4.732-2.021,4.66-0.829,4.517,2.359c-0.106,2.394-3.489,27.194-3.489,27.194s-38.59,14.778-97.087,0L148.326,679.223z"/>
				<path fill="#E8CDA0" d="M225.111,649.858c0,1.367-1.452,1.929-3.352,1.929h-43.308c-1.899,0-3.955-0.562-3.955-1.929v-14.446
					c0-1.368,2.056-2.775,3.955-2.775h43.308c1.902,0,3.352,1.407,3.352,2.775V649.858z"/>
			</g>
		</g>
		<g>
			<path fill="#996234" d="M183.69,622.357c0,0,2.342-2.91,3.432,1.722c1.089,4.632,3.218,9.263,3.218,9.263
				s4.978-1.442,5.658-2.806c0.679-1.361,0.109-7.569,4.426-9.129c4.318-1.559,6.27-2.539,4.426,3.984
				c-1.843,6.526-2.514,11.132-2.514,11.132l-17.961,3.998l-0.685-17.14"/>
			<path fill="#EF45B7" d="M185.958,638c0,0-6.543-9.756-3.052-9.4c3.491,0.356,1.678,3.013,6.114,3.245
				c4.435,0.231,3.828-3.209,9.271-1.346c5.442,1.863,7.472,0.265,6.559,3.226c-0.916,2.961-1.117,4.275-1.117,4.275H185.958z"/>
			<path fill="#996234" d="M180.752,638.873c0,0-0.3-7.737-0.509-9.737c-0.39-3.743,2.796-11.505,2.796-12.926
				c0-1.42,0.226-2.906,2.103-0.802c1.876,2.104,0.032,9.167-0.768,12.703c-0.801,3.533,1.493,7.837,1.583,8.974
				c0.085,1.139-2.267-0.5-2.267-0.5L180.752,638.873z"/>
			<path fill="#996234" d="M205.062,639.365c0,0,2.428-8.229,2.636-10.229c0.388-3.743-2.796-11.505-2.796-12.926
				c0-1.42-0.223-2.906-2.102-0.802c-1.877,2.104-0.035,9.167,0.765,12.703c0.802,3.533-3.055,7.479-3.141,8.616
				c-0.086,1.14,3.829-0.144,3.829-0.144L205.062,639.365z"/>
			<path fill="#8BC7E8" d="M177.326,638.873c0,0,1.449,9.576,7.377,11.519c5.928,1.943,7.978,2.612,13.302,0.311
				c5.326-2.306,8.147-1.035,7.744-5.84c-0.402-4.802,2.814-7.292-1.797-8.044c-4.969-0.812-18.328-1.724-19.249-1.831
				C179.041,634.319,177.326,638.873,177.326,638.873z"/>
			<path fill="#301705" d="M191.779,650.392c0,0-5.382-0.529-4.574-4.969c0.804-4.437-1.555-6.058,2.246-7.446
				c3.8-1.392,5.689-5.098,7.365-1.392c1.676,3.706,2.887,5.672,1.676,8.276c-1.209,2.607-0.956,3.242-2.494,4.894
				C194.461,651.408,191.779,650.392,191.779,650.392z"/>
		</g>
		<g>
			<path fill="#996234" d="M165.403,670.106c0,0,3.886-1.258,4.33,3.48c0.443,4.736,1.916,9.617,1.916,9.617s5.129-0.746,5.99-2.003
				c0.859-1.255,1.147-7.483,5.637-8.436c4.491-0.949,5.097,0.522,3.836,4.556c-2.021,6.473-4.018,10.682-4.018,10.682l-18.34,1.494
				l0.127-15.625C164.881,673.873,163.746,672.231,165.403,670.106z"/>
			<path fill="#EF45B7" d="M162.644,686.565c0,0-1.111-9.957,2.299-9.125c3.41,0.831,2.374,1.946,6.736,2.786
				c4.361,0.839,3.101-1.353,8.238,1.24c5.135,2.594,7.371,1.248,6.06,4.058c-1.313,2.808-1.688,4.041-1.688,4.041L162.644,686.565z
				"/>
			<path fill="#8BC7E8" d="M157.998,686.896c0,0,0.121,9.686,5.726,12.422c5.605,2.737,7.544,3.683,13.134,2.134
				c5.592-1.553,8.212,0.092,8.472-4.722c0.26-4.812,3.789-6.839-0.676-8.216c-4.811-1.483-17.917-4.223-18.815-4.456
				C160.322,682.621,157.998,686.896,157.998,686.896z"/>
			<path fill="#301705" d="M170.734,700.29c0,0-5.258-1.264-3.849-5.55c1.405-4.283-0.708-6.214,3.247-7.068
				s6.335-4.268,7.487-0.366c1.151,3.901,2.08,6.016,0.524,8.431c-1.556,2.416-1.392,3.08-3.142,4.503
				C173.251,701.666,170.734,700.29,170.734,700.29z"/>
		</g>
		<g>
			<path fill="#996234" d="M211.027,671.414c0,0,3.072-2.691,5.354,1.484c2.281,4.174,5.566,8.071,5.566,8.071
				s4.415-2.714,4.708-4.209c0.292-1.491-1.908-7.325,1.838-9.978c3.749-2.65,4.888-1.536,5.327,2.665
				c0.706,6.745,0.537,11.398,0.537,11.398l-16.251,8.631l-6.067-14.398C212.039,675.08,210.346,674.021,211.027,671.414z"/>
			<path fill="#EF45B7" d="M215.006,687.622c0,0-4.96-8.705-1.5-9.29c3.461-0.586,2.951,0.85,7.29-0.106
				c4.337-0.956,2.312-2.47,8.056-2.122c5.742,0.352,7.263-1.771,7.17,1.328c-0.096,3.099,0.05,4.379,0.05,4.379L215.006,687.622z"
				/>
			<path fill="#8BC7E8" d="M210.872,689.766c0,0,3.944,8.847,10.175,9.142c6.231,0.296,8.385,0.396,12.906-3.24
				c4.521-3.639,7.578-3.165,5.912-7.688c-1.665-4.521,0.773-7.778-3.872-7.275c-5.006,0.54-18.125,3.213-19.043,3.354
				C211.313,684.918,210.872,689.766,210.872,689.766z"/>
			<path fill="#301705" d="M227.869,697.024c0,0-5.329,0.92-5.731-3.573c-0.405-4.491-3.11-5.427,0.184-7.777
				c3.294-2.35,4.128-6.425,6.731-3.299c2.601,3.127,4.29,4.699,3.817,7.534c-0.473,2.834-0.06,3.379-1.103,5.379
				C230.724,697.292,227.869,697.024,227.869,697.024z"/>
		</g>
		<g>
			<path fill="#996234" d="M216.027,531.48c0,0-2.57-3.175,1.692-5.291c4.26-2.116,8.284-5.245,8.284-5.245s-2.539-4.52-4.021-4.87
				c-1.479-0.352-7.396,1.62-9.897-2.228c-2.502-3.852-1.344-4.944,2.872-5.218c6.768-0.441,11.412-0.091,11.412-0.091l7.987,16.576
				l-14.625,5.499C219.729,530.614,218.606,532.265,216.027,531.48z"/>
			<path fill="#EF45B7" d="M232.377,528.141c0,0-8.893,4.615-9.342,1.135c-0.449-3.48,0.965-2.915,0.18-7.288
				c-0.785-4.371-2.377-2.408-1.805-8.134c0.575-5.725-1.485-7.326,1.608-7.112c3.092,0.218,4.377,0.123,4.377,0.123
				L232.377,528.141z"/>
			<path fill="#8BC7E8" d="M234.357,532.354c0,0,8.994-3.595,9.532-9.809c0.54-6.216,0.725-8.363-2.732-13.023
				c-3.458-4.658-2.866-7.694-7.45-6.206c-4.583,1.485-7.744-1.078-7.422,3.583c0.344,5.021,2.5,18.236,2.605,19.159
				C229.531,531.724,234.357,532.354,234.357,532.354z"/>
			<path fill="#301705" d="M242.276,515.654c0,0,0.711,5.36-3.795,5.588c-4.503,0.229-5.543,2.895-7.763-0.489
				c-2.219-3.382-6.259-4.376-3.033-6.854s4.864-4.104,7.678-3.521s3.375,0.192,5.332,1.313
				C242.655,512.812,242.276,515.654,242.276,515.654z"/>
		</g>
		<g>
			<path fill="#996234" d="M188.404,519.072c0,0,0.828,3.999-3.931,3.925c-4.755-0.073-9.767,0.861-9.767,0.861
				s0.183,5.179,1.338,6.172c1.153,0.989,7.314,1.954,7.773,6.519c0.457,4.57-1.075,5.012-4.946,3.319
				c-6.215-2.712-10.181-5.156-10.181-5.156l0.509-18.392l15.517,1.823C184.717,518.145,186.472,517.192,188.404,519.072z"/>
			<path fill="#EF45B7" d="M172.344,514.539c0,0,10.019-0.021,8.821,3.278c-1.197,3.298-2.194,2.146-3.503,6.393
				c-1.308,4.245,1.007,3.231-2.128,8.056c-3.137,4.821-2.041,7.191-4.692,5.582c-2.647-1.61-3.833-2.117-3.833-2.117
				L172.344,514.539z"/>
			<path fill="#8BC7E8" d="M172.518,509.886c0,0-9.64-0.932-12.97,4.343c-3.331,5.275-4.482,7.099-3.547,12.825
				c0.935,5.728-0.984,8.151,3.772,8.935c4.753,0.781,6.386,4.511,8.239,0.222c1.998-4.622,6.145-17.352,6.475-18.221
				C176.517,512.66,172.518,509.886,172.518,509.886z"/>
			<path fill="#301705" d="M157.82,521.091c0,0,1.828-5.09,5.936-3.223c4.106,1.86,6.254-0.029,6.673,3.996
				c0.42,4.022,3.554,6.759-0.45,7.48c-4.002,0.722-6.204,1.415-8.437-0.395c-2.232-1.812-2.91-1.72-4.135-3.614
				C156.179,523.442,157.82,521.091,157.82,521.091z"/>
		</g>
	</g>
</g>
</svg>
