<?xml version="1.0" encoding="utf-8"?>
<!-- Generator: Adobe Illustrator 16.0.0, SVG Export Plug-In . SVG Version: 6.00 Build 0)  -->
<!DOCTYPE svg PUBLIC "-//W3C//DTD SVG 1.1//EN" "http://www.w3.org/Graphics/SVG/1.1/DTD/svg11.dtd">
<svg version="1.1" id="Capa_1" xmlns="http://www.w3.org/2000/svg" xmlns:xlink="http://www.w3.org/1999/xlink" x="0px" y="0px"
	 width="800px" height="800px" viewBox="0 0 800 800" enable-background="new 0 0 800 800" xml:space="preserve">
<g id="Navegació">
	<rect x="-20" y="-11" fill="#42C9CC" width="840" height="843"/>
	
		<linearGradient id="SVGID_1_" gradientUnits="userSpaceOnUse" x1="384.5381" y1="323.5522" x2="384.5381" y2="-84.2259" gradientTransform="matrix(0.7071 0.7071 0.7071 -0.7071 0.4205 261.4016)">
		<stop  offset="0" style="stop-color:#FFFFFF;stop-opacity:0.8"/>
		<stop  offset="0.9306" style="stop-color:#FFFFFF;stop-opacity:0"/>
	</linearGradient>
	<path fill="url(#SVGID_1_)" d="M351.107,643.307c8.637-11.685,41.283-31.119,56.526-51.444
		c15.244-20.326,21.108-49.563,33.706-68.259c12.598-18.693,28.889-26.855,44.132-49.214c15.243-22.355,13.734-46.255,23.39-63.021
		c9.654-16.768,32.646-42.014,34.365-59.374c1.721-17.36-44.922-56.612-44.922-56.612s-31.217-34.306-44.664-32.974
		c-17.358,1.719-42.604,24.711-59.373,34.365c-16.77,9.655-40.667,8.146-63.022,23.39c-22.358,15.244-30.519,31.535-49.214,44.132
		c-18.694,12.596-47.933,18.461-68.257,33.705c-20.325,15.246-39.761,47.89-51.448,56.529c-11.687,8.638-35.823,17.53-55.639,32.266
		l102.64,102.64l6.874,6.875l102.64,102.642C333.576,679.131,342.468,654.994,351.107,643.307z"/>
	
		<linearGradient id="SVGID_2_" gradientUnits="userSpaceOnUse" x1="383.8208" y1="323.5518" x2="383.8206" y2="-84.2249" gradientTransform="matrix(0.7071 0.7071 0.7071 -0.7071 0.4205 261.4016)">
		<stop  offset="0" style="stop-color:#FFFFFF;stop-opacity:0.8"/>
		<stop  offset="1" style="stop-color:#FFFFFF;stop-opacity:0"/>
	</linearGradient>
	<path opacity="0.5" fill="url(#SVGID_2_)" enable-background="new    " d="M319.603,611.805
		c8.64-11.688,41.285-31.123,56.528-51.446c15.244-20.325,21.108-49.564,33.705-68.258c12.598-18.693,28.89-26.856,44.133-49.213
		c15.244-22.357,13.734-46.256,23.391-63.023c9.654-16.769,32.645-42.014,34.365-59.375c1.719-17.36-9.354-21.044-9.354-21.044
		s-4.794-7.884-18.24-6.551c-17.362,1.72-42.606,24.711-59.375,34.366c-16.768,9.654-40.665,8.146-63.021,23.389
		c-22.358,15.243-30.521,31.535-49.215,44.132c-18.693,12.596-47.932,18.463-68.256,33.707
		c-20.324,15.242-39.76,47.891-51.447,56.527c-11.687,8.638-35.823,17.531-55.64,32.267l76.218,76.219l6.874,6.872l67.072,67.072
		C302.073,647.627,310.964,623.491,319.603,611.805z"/>
	<g id="Capa_4">
		<path fill="#D1D1D1" d="M387.36,333.932l84.46,84.459l102.162-99.045c0,0,91.186-75.599,68.087-155.948
			c-77.516-22.532-154.279,65.569-154.279,65.569L387.36,333.932z"/>
		<path fill="#F4F4F4" d="M619.995,184.884c0,0,37.979,35.165-33.636,109.33c-71.617,74.167-84.409,76.865-84.409,76.865
			l-67.935-67.933l18.954-25.318l62.666-62.667C515.639,215.16,582.941,152.26,619.995,184.884z"/>
		<path fill="#E8E8E8" d="M620.88,184.872c-27.727-28.799-72.807-1.617-109.203,30.241l-55.607,57.477l-39.396,42.23l16.863,27.065
			l7.758-0.67l23.418,23.629c0,0-0.568,6.517,0.143,7.227c3.99,3.992,26.361,16.726,26.361,16.726s28.336-27.084,41.101-39.26
			c0.432-0.413,57.803-54.574,58.481-55.3C623.656,258.97,651.027,216.188,620.88,184.872z M532.239,347.059
			c-0.78,1.063-42.3,35.072-42.3,35.072s-17.401-11.963-21.17-15.732c-0.67-0.669-0.09-6.861-0.09-6.861l-22.109-22.31l-7.372,0.683
			l-16.29-22.807l35.38-41.9c33.067-34.009,34.196-33.824,55.741-55.738c35.874-30.709,81.415-55.905,105.524-30.516
			c23.959,25.231-0.549,69.674-31.268,104.774C586.995,292.981,532.521,346.208,532.239,347.059z"/>
		<path fill="#FFFFFF" d="M553.999,252.356l0.354-0.326l-12.946-9.588l-9.31,0.116c-4.395-0.709-14.163,8.083-14.163,8.083
			l-17.218,17.218l-1.974,5.538l14.78,10.387l11.701-2.504l5.824-5.977L553.999,252.356z"/>
		<path fill="#FFFFFF" d="M553.766,252.127l0.588-0.097l8.936,12.293l-0.199,9.225c0.708,4.391-8.17,14.077-8.17,14.077
			l-17.217,17.218l-5.368,2.143l-10.3-14.693l2.662-11.546l6.116-5.685L553.766,252.127z"/>
		<path fill="#C6C6C6" d="M540.431,298.762c0.497-0.565,3.345-13.406,3.345-13.406l-22.458-22.933l-13.781,2.398l-1.135,1.134
			l-0.565,0.566l-0.566,0.567l-6.433,6.432l33.419,33.418C532.255,306.938,539.935,299.33,540.431,298.762z"/>
		<path fill="#394963" d="M429.21,400.983c-1.686,1.668-4.407,1.653-6.074-0.033l-17.584-17.771
			c-1.665-1.686-1.65-4.407,0.034-6.076l27.303-27.011c1.687-1.667,4.407-1.654,6.074,0.034l17.581,17.774
			c1.669,1.685,1.653,4.404-0.031,6.073L429.21,400.983z"/>
		<path fill="#29ABE2" d="M552.372,279.833l-11.456-11.456l-4.37-4.369l-10.321-10.321c0,0-7.927,1.309-19.911,12.215
			c-0.071,0.062,0.468,0.712,0.468,0.712c3.619-0.611,12.663-2.933,12.663-2.933l10.953,10.847l11.964,12.101
			c0,0-2.35,9.068-2.958,12.687c0,0,0.689,0.499,0.754,0.429C551.06,287.758,552.372,279.833,552.372,279.833z"/>
		<g id="Timó_1_">
			<path d="M505.825,275.125c-4.604,4.605,10.242,20.119,15.223,15.137C525.424,285.886,510.656,270.295,505.825,275.125z
				 M507.197,276.395c3.293-3.293,15.549,9.527,12.564,12.509C516.37,292.299,504.061,279.533,507.197,276.395z"/>
			<path d="M514.084,278.24c0,0-1.4,1.472,0.335,3.169c1.736,1.701,2.78,0.195,2.941,0.108
				C517.519,281.429,514.084,278.24,514.084,278.24z"/>
			<polygon points="513.803,280.93 509.582,284.266 511.85,286.532 515.023,282.153 			"/>
			<path d="M516.403,281.411c0.034,0.035,3.136,7.953,3.136,7.953l1.629-1.203l-3.915-7.246L516.403,281.411z"/>
			<path d="M514.101,279.106c-0.034-0.034-8.114-3.295-8.114-3.295l1.416-1.416l7.035,3.703L514.101,279.106z"/>
		</g>
		<g id="Tapiceria_1_">
			<path fill="#E8CDA0" d="M588.287,291.724c0,0-18.705-18.423-3.118-42.232c15.59-23.806,40.249-53.281,40.53-54.132
				C625.983,194.51,646.955,229.087,588.287,291.724z"/>
			<path fill="#E8CDA0" d="M514.029,217.465c0,0,18.423,18.706,42.229,3.117c23.808-15.587,53.284-40.245,54.133-40.529
				C611.242,179.77,576.665,158.797,514.029,217.465z"/>
			<path fill="#E8CDA0" d="M438.215,296.114c0,0,3.209-5.928,6.094,0.141c9.493,19.983,43.08,55.835,65.326,64.762
				c4.662,1.873,3.789,2.646,1.489,4.748c-1.728,1.579-21.185,16.366-21.185,16.366s-36.848-16.439-67.029-67.029L438.215,296.114z"
				/>
			<path fill="#E8CDA0" d="M511.501,328.852c-0.944,0.945-2.335,0.33-3.646-0.982l-29.9-29.899
				c-1.312-1.311-2.343-3.118-1.398-4.062l9.974-9.973c0.943-0.944,3.336-0.498,4.646,0.813l29.898,29.9
				c1.313,1.313,1.344,3.286,0.398,4.23L511.501,328.852z"/>
		</g>
	</g>
	<g>
		<path fill="#996234" d="M501.891,281.269c0,0,3.626-0.392,1.181,3.557c-2.445,3.951-4.173,8.618-4.173,8.618
			s4.434,2.44,5.844,1.969c1.408-0.472,5.302-5.151,9.357-3.248c4.058,1.906,6.08,2.577,0.304,5.809
			c-5.777,3.233-9.421,5.95-9.421,5.95l-15.16-9.641l11.358-12.305"/>
		<path fill="#EF45B7" d="M492.719,293.57c0,0,2.188-11.221,4.353-8.565c2.165,2.657-0.938,3.253,1.966,6.477
			c2.9,3.222,4.85,0.437,7.321,5.481s5.003,5.313,2.329,6.727c-2.678,1.412-3.695,2.153-3.695,2.153L492.719,293.57z"/>
		<path fill="#996234" d="M488.459,290.643c0,0,5.135-5.55,6.371-7.074c2.316-2.853,9.876-6.013,10.855-6.993
			c0.979-0.98,2.161-1.852,2.006,0.898c-0.159,2.748-6.309,6.351-9.302,8.239c-2.992,1.888-4.381,6.442-5.104,7.289
			c-0.726,0.844-1.221-1.91-1.221-1.91L488.459,290.643z"/>
		<path fill="#996234" d="M504.902,307.766c0,0,7.357-4.006,8.882-5.242c2.853-2.316,6.014-9.874,6.994-10.854
			c0.979-0.98,1.854-2.161-0.897-2.005c-2.749,0.158-6.352,6.306-8.243,9.298c-1.885,2.995-7.271,3.056-8.116,3.782
			c-0.846,0.727,2.741,2.545,2.741,2.545L504.902,307.766z"/>
		<path fill="#8BC7E8" d="M486.093,288.277c0,0-5.612,7.612-2.857,13.045c2.753,5.433,3.704,7.312,8.971,9.398
			c5.267,2.085,6.339,4.91,9.378,1.314c3.036-3.593,6.976-3.091,4.312-6.794c-2.872-3.99-11.465-13.843-12.025-14.554
			C490.421,286.317,486.093,288.277,486.093,288.277z"/>
		<path fill="#301705" d="M488.12,306.208c0,0-3.351-4.082,0.271-6.588c3.618-2.509,3.108-5.256,6.692-3.591
			c3.583,1.664,7.445,0.41,6.045,4.125c-1.4,3.715-1.924,5.908-4.558,6.871c-2.636,0.965-2.898,1.579-5.102,1.657
			C489.271,308.761,488.12,306.208,488.12,306.208z"/>
	</g>
</g>
</svg>
