<?xml version="1.0" encoding="utf-8"?>
<!-- Generator: Adobe Illustrator 16.0.0, SVG Export Plug-In . SVG Version: 6.00 Build 0)  -->
<!DOCTYPE svg PUBLIC "-//W3C//DTD SVG 1.1//EN" "http://www.w3.org/Graphics/SVG/1.1/DTD/svg11.dtd">
<svg version="1.1" id="Capa_1" xmlns="http://www.w3.org/2000/svg" xmlns:xlink="http://www.w3.org/1999/xlink" x="0px" y="0px"
	 width="800px" height="800px" viewBox="0 0 800 800" enable-background="new 0 0 800 800" xml:space="preserve">
<g id="Barco_amarrat">
	<g id="Cèl">
		
			<linearGradient id="SVGID_1_" gradientUnits="userSpaceOnUse" x1="366.5957" y1="-289.7026" x2="1200.124" y2="-289.7026" gradientTransform="matrix(0 -1 1 0 684.5 1191.5)">
			<stop  offset="0.1511" style="stop-color:#FFFFFF"/>
			<stop  offset="0.2557" style="stop-color:#D0F4FF"/>
			<stop  offset="0.4088" style="stop-color:#92E5FF"/>
			<stop  offset="0.5555" style="stop-color:#5ED9FF"/>
			<stop  offset="0.6919" style="stop-color:#35CFFF"/>
			<stop  offset="0.8155" style="stop-color:#18C9FF"/>
			<stop  offset="0.9223" style="stop-color:#06C4FF"/>
			<stop  offset="1" style="stop-color:#00C3FF"/>
		</linearGradient>
		<polygon fill="url(#SVGID_1_)" points="-26,-8.624 815.595,-8.624 812.324,824.904 -23.061,824.904 		"/>
	</g>
	<path fill="#3F3F3F" d="M695.854,444.605c0-6.629-5.373-12-12-12H678.5c-6.627,0-12,5.371-12,12v52.015c0,6.627,5.373,12,12,12
		h5.354c6.627,0,12-5.373,12-12V444.605z"/>
	<rect x="640" y="481" fill="#968E89" width="182" height="325"/>
	
		<polyline fill="none" stroke="#753C15" stroke-width="6" stroke-linecap="round" stroke-linejoin="round" stroke-miterlimit="10" points="
		467.167,479.736 666.5,446.5 695.854,446.5 666.5,453.444 695.854,453.444 	"/>
	<g>
		<g>
			<g>
				<path fill="#996234" d="M423.73,368.465C418.376,367.559,420.362,368.039,423.73,368.465L423.73,368.465z"/>
				<path fill="#996234" d="M484.804,357.353c-0.664,0.452-1.584,1.012-1.931,1.34c-0.296,0.274-2.769,1.676-3.731,2.308
					c0.736-0.592,2.271-1.878,2.271-1.878s1.158-0.653,1.586-0.909c0.444-0.257,0.879-0.738,1.032-0.902
					c0.15-0.167,1.848-0.86,1.874-1.5c0.023-0.637-0.439-1.578-1.239-1.365c-0.798,0.209-2.681,1.266-3.062,1.605
					c-0.382,0.339-1.721,0.809-1.919,0.966c-0.203,0.164-2,1.61-2.231,1.637c-0.229,0.035,1.894-1.767,1.894-1.767
					s3.822-1.91,3.876-2.61c0.056-0.702-0.277-1.117-0.979-1.231c-0.71-0.115-6.784,2.822-7.602,3.772
					c-1.161,0.208-2.33,1.277-2.525,1.155c-0.198-0.117-1.486,0.105-1.742,0.387c-0.257,0.285,0.025-0.67-0.088-0.938
					c-0.113-0.265,3.003-3.915,1.416-6.279c-0.802-1.188-1.248-0.238-1.484,0.073c-0.232,0.31-0.874,2.126-1.238,2.525
					c-0.366,0.404-2.468,2.65-2.633,3.276c-0.163,0.624-0.344,2.377-0.639,2.813c-0.294,0.431-1.045,2.032-0.993,2.752
					c0.054,0.723-0.093,1.326-0.472,1.855c-0.385,0.531-2.527,2.772-2.729,2.933c-0.146,0.12-10.038,5.484-14.96,8.152
					c-0.564-1.192-1.505-4.517-1.892-7.456c-0.403-3.062-3.181-11.604-3.794-18.633c-0.614-7.028-3.075-11.307-3.425-11.713
					c0,0-5.976,27.724-5.532,30.285c0.22,1.275-4.706,0.896-8.183,0.457c0.211,0.036,0.411,0.069,0.645,0.109
					c0.48,0.289,5.136,9.277,6.765,11.167c1.628,1.889,3.902,4.215,3.729,4.833c-0.172,0.62,2.318,2.518,2.282,3.022
					c-0.038,0.503,3.916,1.682,5.393,2.213s3.152,0.065,4.271,0.316c0.048,0.011,0.109-0.002,0.169-0.011l0.002,0.008
					c0.003-0.002,0.01-0.007,0.013-0.009c0.39-0.069,1.007-0.531,1.69-1.253c4.18-3.103,14.269-10.61,14.269-10.61
					c1.633-0.833,6.791-6.724,7.394-6.723c0.605,0.003,5.734-1.121,8.539-3.916c1.499-0.671,1.817-0.989,2.254-1.412
					c0.436-0.421,4.112-2.731,3.606-3.956c-0.513-0.979-0.86-0.666-1.171-0.437c-0.31,0.229-1.682,1.299-1.898,1.417
					c-0.275,0.151-2.395,1.013-2.395,1.013s2.222-1.49,2.589-1.893c0.365-0.403,1.003-0.65,1.909-1.649
					c0.905-0.994,2.046-1.353,2.206-2.029C486.152,357.989,485.472,356.903,484.804,357.353z"/>
			</g>
			<path fill="#996234" d="M442.104,444.888c0,0,3.104,7.351,1.979,12.169c-1.124,4.82-1.079,6.458-1.12,9.482
				c-0.042,3.025-0.957,10.802-2.104,14.865c-1.147,4.063-6.168,22.697-5.691,26.213c0.477,3.515-1.547,8.975-2.094,9.115
				c-0.546,0.142-5.817,0.911-6.09,0.162c-0.273-0.747-0.476-7.93-0.286-10.201c0.188-2.273,0.884-13.385,0.034-16.766
				c-0.853-3.376-1.673-10.157-1.051-12.696c0.623-2.539,2.737-8.017,2.898-11.298c0.159-3.279-1.919-21.283-1.919-21.283
				L442.104,444.888z"/>
			<path fill="#996234" d="M424.645,450.798c0,0,2.797,5.97,2.383,9.132c-0.416,3.162-6.557,17.952-6.323,21.726
				c0.23,3.772-2.357,14.809-3.007,18.606c-0.65,3.798-1.357,14.53-0.171,16.388c1.185,1.857,2.564,3.962,2.564,3.962
				s-8.548,7.421-8.925,7.432c-0.378,0.011-3.075-1.803-3.075-1.803s-1.842-25.278-2.41-27.531
				c-0.564-2.25-1.697-15.703-1.397-18.483c0.298-2.781,4.764-14.373,4.955-16.52c0.19-2.149-1.48-15.334-1.48-15.334
				L424.645,450.798z"/>
			<path fill="#EF45B7" d="M438.94,399.488c0,0,7.17,17.565,6.944,22.992c-0.226,5.423-0.562,25.091-0.562,25.091
				s-5.602,2.299-10.651,1.937c-5.05-0.361-6.591-1.398-7.08-0.831c-0.488,0.566-0.027,4.991-0.027,4.991s1.934,0.018-6.759,0.135
				c-8.691,0.118-11.608,0.688-13.111,0.983c-1.504,0.294-2.948,0-2.948,0s0.461-8.989-0.98-10.966
				c-1.439-1.976-2.66-14.038-4.183-18.909c-1.523-4.873-3.675-9.708-2.407-18.448s2.305-12.17,2.305-12.17L438.94,399.488z"/>
			<path fill="#8BC7E8" d="M430.152,324.493c0,0,0.537,4.114-1.231,3.911c-1.771-0.202-13.931-10.153-16.339-10.715
				c-2.411-0.562-11.161,1.95-13.753,3.913s-9.541,10.223-10.286,15.158c-0.745,4.936-1.646,8.741-1.646,8.741l7.347,10.379
				c0,0,3.334,15.531,3.17,27.633c-0.166,12.102,3.735,14.928,3.735,14.928s30.146,7.951,39.313,2.401
				c0.049-4.266,2.206-3.227,1.229-6.603c-0.978-3.375-1.772-0.325-1.512-4.491c0.262-4.166-0.785-28.078-0.188-29.229
				s2.104-1.319,2.291-8.129c0.188-6.811,0.143-8.447-0.884-13.585c-1.027-5.137,1.878-4.967-2.396-9.006
				C434.732,325.762,430.152,324.493,430.152,324.493z"/>
			<path fill="#996234" d="M402.333,347.714c0.015,0.504-0.36,9.587-1.892,13.41c-1.532,3.824-3.647,4.765-3.318,7.527
				c0.33,2.764,2.682,5.722,3.679,9.853c0.998,4.13,5.406,13.08,6.19,14.066c0.783,0.985,9.629,15.355,10.023,15.975
				c0.396,0.62,2.915,5.084,3.119,7.853c0.203,2.767,0.396,5.153,0.165,5.917c-0.23,0.763-2.497,0.825-3.627,0.983
				c-1.129,0.156-2.619,0.955-2.896,0.081c-0.277-0.874-2.212-2.459-2.606-3.077c-0.395-0.62-2.369-3.589-2.752-3.703
				c-0.38-0.115-2.292-0.943-2.438-1.569c-0.145-0.626-1.256-4.376-1.526-4.998s-0.452-7.171-2.373-8.249
				c-1.92-1.082-12.739-18.42-13.539-20.036c-0.803-1.616-2.9-8.992-3.166-9.489c-0.266-0.496,0.484-23.199,2.02-26.897
				C388.933,341.663,402.333,347.714,402.333,347.714z"/>
			<path fill="#996234" d="M414.195,317.864c0.452,0.136,3.629-3.991,3.443-5.333c1.277-4.857-1.574-14.334,0.271-17.678
				c1.854-3.343-1.945-9.964,2.49-11.881c4.438-1.921,10.323-5.683,12.621-3.954c2.293,1.733,7.817,6.663,8.021,8.605
				c0.204,1.941,1.206,5.654,0.273,9.719c-0.936,4.065,0.42,6.035,0.392,10.375c-2.312,1.969-2.456,8.209-3.757,9.891
				c-1.296,1.676-3.247,0.203-5.776,0.874c-2.522,0.669-0.532,8.021-1.686,9.549c-1.152,1.522-15.312-1.819-15.18-7.658
				C414.145,318.444,414.195,317.864,414.195,317.864z"/>
			<path fill="#301705" d="M421.615,310.208c0,0-6.738,0.189-6.499-1.916c0.236-2.1,0.687-5.706-0.212-6.577
				c-0.898-0.874-3.632-2.439-2.81-5.011c0.828-2.567,1.829-4.094,1.165-6.468c-0.664-2.373-0.122-4.336,1.788-5.586
				c1.911-1.25,4.731-2.613,6.938-3.717c2.204-1.105,4.729-2.146,7.258-2.666c2.521-0.519,5.468-2.398,7.626-0.213
				c2.157,2.185,3.651,2.143,4.293,3.618c0.639,1.479-0.152-0.142,0.842,3.42c0.997,3.564,1.846,4.488,0.701,6.467
				c-1.821,2.058-1.319-1.81-2.369-1.932c-1.054-0.117,3.699-1.899,0.908-0.025c-2.792,1.877-5.961,1.368-10.173,0.584
				c-4.212-0.778-6.532-3.108-7.678,1.265c-1.144,4.376,1.665,3.547,2.298,6.972c2.501,4.396,0.139,4.932,0.139,4.932
				s-0.271-1.641-1.9-1.291c-1.64,0.349-1.928,0.652-1.729,2.441c0.197,1.79,1.155,3.86,0.869,4.469
				C422.789,309.577,421.615,310.208,421.615,310.208z"/>
		</g>
		<g id="Capa_22_copia">
			<path fill="#36627A" d="M-121.246,491.146c2.093,3.638,4.473,26.785,0.506,31.737c-3.965,4.951-16.664,10.609-18.568,10.784
				c-1.905,0.179,7.807,53.144,7.807,53.144s0.415,40.771-3.278,44.278c-3.683,3.51-30.354,22.813-35.475,23.117
				c-5.123,0.309-14.327,0.557-15.677-1.87c-1.334-2.438,5.067-13.613,5.158-14.754c0.225-2.753,0.88-10.412,0.475-12.081
				c-0.393-1.676-2.885-14.514-4.019-16.958c-1.133-2.454-23.25-0.444-25.775,0.056c-2.522,0.492-2.64-2.506-2.64-2.506
				c3.05-7.427,23.419-19.348,23.419-19.348s-6.286-10.259-11.212-15.943c-4.917-5.686-14.401-40.951-17.812-56.199
				c-3.404-15.248,4.868-35.018,7.656-35.711C-168.862,468.475-123.362,487.512-121.246,491.146z"/>
			<path fill="#6C808C" d="M-186.633,620.6c-2.454-2.755-7.812-4.598-11.932-3.926c-4.113,0.668-3.689,0.616-5.294,4.559
				c-1.606,3.941,9.292,2.431,11.872,3.428c2.578,1.005-0.675,3.611-1.123,3.457c-0.448-0.149-9.292,1.028-9.292,1.028l0.24,9.396
				c0,0,11.555-2.02,12.268-0.483c0.722,1.535-6.044,6.256-9.585,10.188c-3.548,3.937,0.519,4.781,6.404,1.658
				c5.89-3.124,9.43-12.857,9.43-12.857s1.604-0.073,3.926-0.438c2.324-0.363,1.052-4.088,1.155-7.057
				c0.101-2.967-0.924-4.464-1.201-5.013c-0.274-0.539-4.667,0.521-4.667,0.521S-184.19,623.352-186.633,620.6z"/>
		</g>
		<path fill="#FFFFFF" stroke="#FFFFFF" stroke-miterlimit="10" d="M14.382,553.63l-183.717,0.358l22.371,51.301
			c10.55,0.298,265.084,9.594,348.312,6.564c4.204-0.152,20.503,0.127,23.788,0.009c21.369-0.779,37.753-0.064,57.549-0.958
			c17.661,0.881,34.309,0.714,50.521,0.12c18.935-0.688,34.452-3.229,48.863-7.994c62.623-20.713,86.284-45.763,105.298-65.89
			c3.006-3.187,5.844-6.187,8.699-9.028c0.211-0.221,0.414-0.43,0.643-0.647c-84.317,44.454-199.782,50.826-282.86,56.216
			c-13.334,0.872-26.366,2.927-38.723,3.374c-71.377,2.598-116.525,1.686-117.132,1.646l-3.364-2.498L14.382,553.63z"/>
		<path fill="#FF0000" d="M216.443,591.663c83.433-5.407,199.283-21.963,283.549-66.884l1.236-1.215
			c12.415-12.586,17.945-20.596,21.558-26.137c1.791-2.732,3.078-4.71,4.562-6.183c1.956-1.95,5.203-4.331,7.424-5.848
			c-13.307,1.846-64.938,6.335-143.243,5.215c-43.062-0.612-136.672,3.847-247.337,14.719
			c-154.038,15.138-257.743,34.991-311.443,50.217L8.345,559.12l43.042,33.432C55.135,592.805,128.064,597.411,216.443,591.663z"/>
		<path d="M144.103,450.14c-0.801-1.484-1.441-2.598-1.953-3.436c-0.257-0.414-0.482-0.763-0.677-1.058
			c-0.984-1.447-1.288-1.442-1.474-1.438l-0.518,0.35c-0.238,0.483-0.499,1.006-0.804,1.55c-0.205,0.361-0.419,0.735-0.652,1.119
			c-0.117,0.188-0.234,0.385-0.35,0.577c-3.205,5.04-8.61,11.022-12.017,10.259c-1.624-0.37-2.627-1.423-3.083-3.235
			c-0.061-0.211-0.096-0.437-0.134-0.659c-0.033-0.235-0.069-0.473-0.079-0.722c-0.447-6.515,4.895-19.496,12.233-27.919
			c1.133-1.296,2.31-2.482,3.518-3.523c0.675-0.58,1.441-1.171,2.252-1.677c1.308-0.81,2.734-1.407,4.08-1.389
			c0.507,0.007,1,0.101,1.482,0.303c0.76,0.315,1.28,0.88,1.585,1.723c0.201,0.558,0.293,1.201,0.317,1.893
			c0.127,4.867-3.742,12.425-3.794,12.516l-0.287,0.561l6.831,1.702L144.103,450.14z M144.058,426.042
			c-0.048-0.745-0.251-1.355-0.688-1.752c-0.08-0.084-0.174-0.157-0.278-0.222c-0.262-0.158-0.556-0.232-0.877-0.222
			c-0.223,0.009-0.454,0.064-0.72,0.173c-1.79,0.716-4.301,3.621-6.797,7.329l-0.123-0.133l-0.125-0.138l-2.153,4.086
			c-1.077,1.82-2.097,3.706-3.004,5.534c-1.513,3.055-2.7,5.946-3.281,8.105c-0.324,1.231-0.451,2.22-0.384,2.966
			c0.015,0.188,0.055,0.361,0.09,0.52c0.121,0.472,0.357,0.812,0.7,1.026c0.152,0.093,0.318,0.13,0.497,0.125
			c2.07-0.081,8.478-8.439,11.115-12.509c0.095-0.156,0.188-0.297,0.277-0.438c0.165-0.275,0.324-0.524,0.44-0.744
			c0.136-0.219,0.232-0.406,0.293-0.561c0.081-0.133,0.173-0.297,0.295-0.5c0.118-0.194,0.239-0.426,0.38-0.678
			C141.253,435.222,144.254,429.318,144.058,426.042z"/>
		<path fill="#3FA9F5" d="M185.395,383.814c-2.828-0.955-12.533-0.685-15.441-0.578c-0.423,0.017-0.755,0.029-1,0.036l-3.995,27.376
			l-1.681,0.657l-1.673,0.656l-17.996,38.571l-0.772,10.79l3.269,8.149l10.281-0.103c0.482-6.394,3.28-29.32,3.348-29.449
			c2.001-3.784,15.074-7.786,17.563-8.436c0.084-0.024,0.154-0.042,0.211-0.055c0.256-0.087,0.525-0.169,0.801-0.25
			c0.683-0.207,1.414-0.415,2.184-0.625c0.306-0.083,0.616-0.171,0.934-0.25c1.021-0.27,2.09-0.536,3.2-0.798
			c0.263-0.062,0.521-0.121,0.786-0.184c0.506-0.121,1.017-0.242,1.531-0.354c8.099-1.84,17.442-3.709,20.105-4.175
			C199.888,408.975,187.756,384.635,185.395,383.814z"/>
		<path d="M134.807,432.926c-0.375,0.56-0.738,1.132-1.101,1.713l-1.86,3.538l4.782,0.832l-0.133,0.521
			c-0.001,0.013-0.074,0.351-0.057,0.775c0.012,0.249,0.063,0.528,0.183,0.788c0.636-0.976,1.134-1.802,1.382-2.355
			c0.456-0.781,0.919-1.622,1.377-2.496c-0.075,0.064-0.154,0.122-0.248,0.147c-0.032,0.008-0.067,0.017-0.119,0.021
			C138.675,436.431,137.802,436.144,134.807,432.926z"/>
		<path d="M139.337,438.693c-0.114,0.2-0.209,0.366-0.29,0.5c-0.062,0.154-0.159,0.338-0.292,0.561
			c-0.125,0.224-0.278,0.467-0.441,0.744c-0.088,0.139-0.18,0.286-0.277,0.438c-2.634,4.07-9.039,12.433-11.115,12.509
			c-0.176,0.006-0.355-0.036-0.493-0.124c-0.356-0.213-0.583-0.557-0.705-1.028c-0.042-0.156-0.073-0.332-0.089-0.516
			c-0.067-0.746,0.07-1.73,0.385-2.967c0.579-2.163,1.766-5.056,3.289-8.106c0.896-1.826,1.933-3.717,2.998-5.534l2.151-4.082
			l0.124,0.132l0.126,0.133c2.493-3.7,5-6.614,6.796-7.332c0.257-0.104,0.496-0.162,0.721-0.171
			c0.331-0.012,0.618,0.064,0.875,0.227c0.104,0.064,0.2,0.136,0.283,0.219c0.431,0.402,0.637,1.011,0.685,1.753
			c0.187,3.273-2.805,9.184-4.353,11.969C139.573,438.268,139.45,438.496,139.337,438.693z M126.904,449.062
			c-0.691,2.619-0.335,3.243-0.195,3.364c1.653-0.375,6.447-6.291,9.288-10.433c-0.571-0.697-0.615-1.606-0.562-2.168l-4.296-0.746
			C129.24,442.641,127.643,446.242,126.904,449.062z M133.702,434.643l-1.864,3.54l4.779,0.832l-0.126,0.515
			c-0.004,0.008-0.079,0.353-0.059,0.774c0.012,0.249,0.072,0.529,0.182,0.789c0.637-0.976,1.135-1.802,1.383-2.355
			c0.453-0.783,0.917-1.622,1.376-2.496c-0.072,0.064-0.151,0.118-0.249,0.147c-0.033,0.008-0.063,0.017-0.117,0.021
			c-0.34,0.021-1.211-0.265-4.224-3.48C134.43,433.484,134.066,434.056,133.702,434.643z M142.567,424.922
			c-0.078-0.053-0.193-0.078-0.317-0.073c-1.403,0.052-4.1,3.102-6.892,7.226c1.317,1.396,2.783,2.813,3.415,3.225
			c0.325-0.531,0.97-0.76,1.514-0.84C142.379,430.169,143.931,425.76,142.567,424.922z"/>
		<g>
			<path fill="#FFFFFF" d="M452.708,484.64c20.035-1.166,71.444,1.223,83.786-7.521c-0.95-0.159-2.02-1.032-3.35-1.009
				c0,0-68.611-11.594-117.425-16.669c-3.119-0.32-5.968-0.511-8.462-0.725c-32.232-2.779-176.372-6.047-177.836-6.078l-0.256-0.007
				l-0.151-0.227c-0.454-0.695-10.977-17.096-12.213-19.204c-0.599-1.023-0.656-2.434-0.718-3.926
				c-0.071-1.729-0.144-3.521-1.147-4.373c-0.919-0.782-2.921-1.159-5.653-1.062c-0.969,0.036-1.659,0.122-1.666,0.122l-0.359,0.049
				l-0.056-0.119c-3.253,0.564-20.986,3.72-29.434,6.426c-4.803,1.234-17.465,5.123-18.375,8.082
				c-1.167,3.788-3.749,28.598-3.785,28.831l0.008,1.711l-9.435,0.344l-3.278-8.126l-21.732,2.561l-35.19,4.485l-0.192-1.125
				c2.389-0.536,2.897-1.399,3.097-4.749c0.058-1.044-0.701-2.521-2.092-3.984c-2.258-2.379-6.341-4.947-9.931-4.927
				c-1.2,0.007-3.258-0.078-5.861-0.171c-5.277-0.196-12.491-0.469-18.391-0.253c-6.415,0.237-8.673,0.97-9.426,1.547
				c-1.022,0.779-1.526,1.604-1.523,2.44c0.017,1.443,1.545,2.582,1.558,2.596l0.992,0.726l-10.596,1.472l-0.146,5.191
				l-51.037,4.706l-2.971,5.959l-60.357,2.369l-27.979,7.917l0.519,32.287l-15.434,6.357l-0.087,0.032l-37.791,0.71l-8.438,5.591
				l0.979,15.545c67.255-15.809,205.517-39.916,340.451-51.366C351.469,481.777,432.672,485.807,452.708,484.64z"/>
			<path fill="#FFFFFF" d="M536.494,477.119c-13.735,5.41-62.928,5.017-82.962,6.184c-20.04,1.165-100.931-3.31-281.073,11.979
				c-134.931,11.451-274.054,37.288-341.555,53.104l0.002,0.047l-0.373,0.163c-3.83,2.62-5.827,4.328-5.966,5.231
				c-0.049,0.245,0.044,0.421,0.29,0.726c0.104,0.133,0.186,0.263,0.257,0.399c0.212,0.238,1.815,0.626,6.296,0.522l2.348-0.583
				c53.597-13.296,150.579-32.396,308.306-47.896c110.696-10.874,203.738-15.123,246.836-14.508
				c83.317,1.192,137.083-5.807,145.869-7.099c1.963-1.701,2.666-2.264,2.731-2.298c2.16-0.722,3.444-2.057,3.228-3.336
				C540.555,478.729,539.312,477.587,536.494,477.119z"/>
		</g>
		<path fill="#C99B59" d="M41.444,460.769c0,0-5.34-5.809,3.962-8.109c6.812-1.687,27.048-0.291,32.508-0.203
			c5.46,0.091,11.817,7.618,11.4,11.125c-0.357,2.995-0.837,6.276-5.907,4.826c-5.074-1.453-4.45-5.295-7.293-5.519
			C73.268,462.664,43.861,461.056,41.444,460.769z"/>
		<g id="Petita">
			<path fill="#283C8E" d="M302.45,479.779v-5.514c0-3.547-2.869-6.083-6.418-6.083h-0.371c-3.547,0-6.418,2.533-6.418,6.083v5.359
				c-4.952,1.821-8.826,6.714-8.826,11.664h30.851C311.275,486.343,307.401,481.705,302.45,479.779z M295.848,475.741
				c-1.318,0-2.387-1.069-2.387-2.39c0-1.317,1.069-2.388,2.387-2.388c1.318,0,2.387,1.069,2.387,2.388
				C298.235,474.672,297.166,475.741,295.848,475.741z"/>
			<path fill="#283C8E" d="M289.247,555.227v4.259c0,3.548,2.868,6.083,6.417,6.083h0.371c3.547,0,6.417-2.532,6.417-6.083v-4.617
				c4.952-1.905,8.289-5.808,8.769-10.76h-30.75C280.904,549.062,284.294,553.526,289.247,555.227z M295.848,556.915
				c1.318,0,2.387,1.069,2.387,2.388c0,1.316-1.069,2.385-2.387,2.385c-1.318,0-2.387-1.067-2.387-2.385
				C293.46,557.984,294.53,556.915,295.848,556.915z"/>
			<path fill="#CCCCCE" d="M310.703,491.294h-29.709v51.476c0,0.377-0.555,1.343-0.525,1.343h30.751
				c0.034,0-0.516-0.968-0.516-1.343L310.703,491.294L310.703,491.294z"/>
		</g>
		<g id="Petita_1_">
			<path fill="#283C8E" d="M35.065,479.779v-5.514c0-3.547-2.868-6.083-6.418-6.083h-0.368c-3.551,0-6.419,2.533-6.419,6.083v5.359
				c-4.951,1.821-8.825,6.714-8.825,11.664h30.854C43.891,486.343,40.017,481.705,35.065,479.779z M28.463,475.741
				c-1.318,0-2.387-1.069-2.387-2.39c0-1.317,1.068-2.388,2.387-2.388c1.319,0,2.387,1.069,2.387,2.388
				C30.85,474.672,29.782,475.741,28.463,475.741z"/>
			<path fill="#283C8E" d="M21.861,555.227v4.259c0,3.548,2.868,6.083,6.419,6.083h0.367c3.551,0,6.419-2.532,6.419-6.083v-4.617
				c4.952-1.905,8.288-5.808,8.768-10.76H13.085C13.519,549.062,16.91,553.526,21.861,555.227z M28.463,556.915
				c1.319,0,2.387,1.069,2.387,2.388c0,1.316-1.068,2.385-2.387,2.385c-1.318,0-2.387-1.067-2.387-2.385
				C26.076,557.984,27.145,556.915,28.463,556.915z"/>
			<path fill="#CCCCCE" d="M43.318,491.294h-29.71v51.476c0,0.377-0.554,1.343-0.524,1.343h30.749c0.035,0-0.515-0.968-0.515-1.343
				V491.294z"/>
		</g>
	</g>
	<polygon opacity="0.6" fill="#39BCC4" enable-background="new    " points="-27.723,580.184 822.027,579.264 823.062,844.083 
		-27.723,844.083 	"/>
</g>
<g>
	<path fill="#332B25" d="M753.479,453.133c-0.578,0.166-4.049-1.651-3.801,2.396s0.909,5.37-0.578,6.608
		c-1.486,1.239-1.568,0.826-3.47,2.645c-1.901,1.816-3.388,1.734-3.884,3.058c-0.496,1.321-1.57,3.305-3.222,3.635
		c-1.652,0.33-8.428-0.577-10.41,0.33c-1.982,0.909-2.975,2.066-3.47,4.214c-0.496,2.148-0.743,3.637-0.413,3.637
		c0.329,0,4.131,3.635,14.54,3.222c0,0,14.528-1.536,18.012-2.396c0.445-0.11-0.003,1.432-0.003,1.432l10.908-0.605
		c0,0,0.579-0.248,0-4.049c-0.578-3.801-0.248-5.783-1.157-7.766c-0.908-1.983-2.147-3.472-1.899-5.123
		c0.248-1.652-0.165-4.213,0-5.535s0.248-2.312,0-4.049c-0.248-1.734-4.627-2.892-4.627-2.892L753.479,453.133z"/>
	<path fill="#F9DBBD" d="M729.775,210.402c0.952-0.944,4.315-3.117,5.954-2.806c1.639,0.312,11.032-2.662,13.692,0.605
		c2.658,3.27,5.04,6.402,3.842,11.245c-1.201,4.844-2.741,6.976-2.793,10.269c-0.052,3.292,2.063,9.255,2.063,9.255L742,247.093
		c0,0-2.066,0.088-2.963-0.62c-0.896-0.709-2.85-1.337-3.135-2.796s-0.438-2.882-1.421-3.385c-0.981-0.503-5.267,1.156-6.788-0.819
		c-1.522-1.975-1.675-3.398-1.652-5.864c0.022-2.467-0.04-4.16-1.31-4.795c-1.266-0.637-2.42-1.042-1.904-2.28
		c0.516-1.236,3.626-3.74,4.008-5.329c0.385-1.59-0.599-1.777-0.336-3.344C726.761,216.295,729.775,210.402,729.775,210.402z"/>
	<path fill="#5B4838" d="M729.365,211.218c0.036,0.183,0.688-1.709,2.302-1.204c1.614,0.506,3.854-0.311,3.791,3.237
		c-0.065,3.548,0.785,6.602,0.942,6.761c0.157,0.158-0.02,1.519,0.149,1.739c0.17,0.22,1.854,1.089,2.148,0.968
		c0.291-0.12,1.699-2.605,1.699-2.605s1.305-0.76,2.727-0.912c1.422-0.152,2.824-1.058,3.288,0.999
		c0.465,2.056,0.817,2.24,0.255,3.233c-0.564,0.995-2.36,3.114-1.766,3.25c0.597,0.136,1.582,0.006,2.016,0.616
		c0.435,0.609,1.92,2.718,1.979,3.338c0.058,0.62-0.088,2.101,0.395,2.006c0.484-0.095,2.996,0.803,3.216,0.634
		c0.219-0.169,0.087-3.111,0.612-3.971c0.525-0.861,4.412-6.821,4.236-9.333c-0.175-2.511-0.5-3.205-1.441-4.789
		c-0.94-1.584-1.03-3.651-2.953-5.736c-1.923-2.086-6.856-5.036-8.885-5.397c-2.027-0.361-4.348,2.303-6.002,2.562
		c-1.654,0.26-1.757-1.234-3.882-1.451c-2.127-0.216-5.031-0.215-5.654,0.79c-0.625,1.005-2.854,2.2-2.213,3.211
		C726.963,210.175,729.365,211.218,729.365,211.218z"/>
	<path fill="#2A2866" d="M759.675,317.804c0,0,6.196,12.888,4.957,21.068c-1.239,8.179-3.223,9.914-3.223,16.854
		s1.982,35.195,0,40.152c-1.982,4.958-4.213,4.461-1.239,8.179c2.975,3.719,5.145,12.642,4.679,15.367
		c-0.465,2.728-1.097,6.692,1.078,13.632c2.175,6.94,6.142,3.966,2.423,12.642c-3.718,8.676-10.41,11.401-16.854,8.18
		c-6.444-3.222-7.95-6.692-7.197-10.41s1.992-10.162,1.001-13.385c-0.991-3.222-0.622-6.443-1.179-12.888s-4.773-3.223-7.374-10.162
		c-2.602-6.94-1.857-9.915-1.113-11.897c0.743-1.983-1.239-9.915-2.727-17.846c-1.487-7.932-3.967-9.171-3.967-18.093
		c0-8.923-3.718-4.214-4.461-12.889c-0.743-8.675-1.982-9.418,0-14.128c1.982-4.709,3.471-11.153,3.471-11.153
		s14.604-6.444,16.349-5.949C746.044,315.572,759.675,317.804,759.675,317.804z"/>
	<path fill="#374FAA" d="M730.18,264.02c1.239-3.966-2.975-6.444,0-8.179c2.976-1.735,7.433-2.479,6.566-4.957
		c-0.866-2.478-1.361-4.957,2.355-6.94c3.718-1.983,2.23-4.461,6.196-4.957c3.966-0.496,6.444-4.214,7.437,0
		c0.991,4.213,6.195,8.675,8.428,14.127c2.229,5.453,4.709,24.29,4.461,29.247s0.778,21.811,0.018,27.264s-3.982,9.17-6.71,9.914
		c-2.726,0.744-15.366-1.487-19.332,0c-3.966,1.487-7.932,3.222-11.648,1.487c-3.719-1.735-5.701-2.479-5.205-6.692
		s-0.248-8.675,0.991-10.905c1.238-2.231,5.452-26.769,5.7-27.512C729.684,275.173,730.18,264.02,730.18,264.02z"/>
	<g id="Capa_3_2_">
		<g>
			<path fill="#F9DBBD" d="M742.273,306.604c0,0-1.246,29.375-1.29,29.675c-0.042,0.302-0.944,3.859-1.218,4.573
				c-0.275,0.708-0.728,1.212-1.38,1.58c-0.65,0.369-1.674,2.092-1.904,2.651c-0.234,0.565-1.667,1.782-2.129,2.317
				c-0.462,0.541-1.389,4.055-1.562,4.675c-0.169,0.615-1.432,2.352-1.588,2.776c-0.155,0.43-0.762,1.455,0.657,1.596
				c2.821,0.275,4.472-5.126,4.757-5.162c0.286-0.039,0.978-0.894,0.855-0.457c-0.119,0.433,0.313,1.911,0.512,2.049
				c0.2,0.133-0.158,1.983,0.225,3.318c-0.427,1.412-0.022,9.487,0.422,10.162c0.44,0.668,0.961,0.773,1.544,0.303
				c0.58-0.467,0.379-5.584,0.379-5.584s0.531-3.276,0.611-3.016c0.089,0.257-0.291,2.985-0.335,3.292
				c-0.04,0.301,0.203,1.977,0.095,2.576c-0.108,0.597-0.11,3.187,0.096,4.145c0.204,0.961,1.245,0.892,1.786,0.495
				c0.542-0.403,0.318-2.585,0.39-2.839c0.068-0.257,0.274-0.995,0.281-1.61c0.014-0.598,0.018-2.192,0.018-2.192
				s0.712-4.553,0.577-4.009c-0.13,0.534-0.129,5.232-0.24,5.79c-0.116,0.554-0.155,1.844-0.224,2.804
				c-0.066,0.963,1.206,1.038,1.715,0.472c0.508-0.564,0.265-1.967,0.687-3.497c0.426-1.534,0.331-2.344,0.502-2.963
				c0.172-0.62,0.385-3.816,0.385-3.816s0.281,2.721,0.285,3.098c0.003,0.295-0.259,2.357-0.307,2.815
				c-0.048,0.46-0.15,1.005,0.948,0.968c1.307-0.188,1.523-5.387,1.676-6.091c0.156-0.703,0.276-1.222,0.131-3.184
				c1.062-4.572-0.456-10.597-0.753-11.228c-0.294-0.629-0.069-1.748,0.056-2.496c0,0-0.322,1.569,4.933-32.407L742.273,306.604z"/>
		</g>
	</g>
	<path fill="#2A2866" d="M740.104,259.093c-0.512-2.529,10.027-14.778,15.896-1.478c6.012,13.635,4.404,15.306,3.803,28.787
		c-0.599,13.478-0.41,17.314-3.428,20.489c-3.016,3.174-0.252,17.934-3.558,16.355c-3.308-1.575,3.034,6.082-0.114,6.7
		c-3.147,0.621,1.962,8.809-3.998,6.442c-5.961-2.361-15.443-0.579-10.884-4.703c4.56-4.121-1.176-27.244,3.424-32.368
		c5.134-5.717,1.356-9.272,0.022-12.475C739.937,283.638,740.114,259.155,740.104,259.093z"/>
</g>
</svg>
