<?xml version="1.0" encoding="utf-8"?>
<!-- Generator: Adobe Illustrator 16.0.0, SVG Export Plug-In . SVG Version: 6.00 Build 0)  -->
<!DOCTYPE svg PUBLIC "-//W3C//DTD SVG 1.1//EN" "http://www.w3.org/Graphics/SVG/1.1/DTD/svg11.dtd">
<svg version="1.1" id="Capa_1" xmlns="http://www.w3.org/2000/svg" xmlns:xlink="http://www.w3.org/1999/xlink" x="0px" y="0px"
	 width="800px" height="800px" viewBox="0 0 800 800" enable-background="new 0 0 800 800" xml:space="preserve">
<g id="Mà_Timó">
	<g id="Capa_6">
		<rect x="-11" y="-13" fill="#F4F4F4" width="818" height="822"/>
	</g>
	<path fill="#F9DBBD" d="M58,398.883c3,0.234,0-71.468,0-71.468l14-5.386c0,0-1.754-15.031,4.2-11.693
		c5.954,3.338,19.8,5.671,19.8,5.671l12,32.41V399L58,398.883z"/>
	<g id="Timó">
		<rect x="316" y="159" fill="#969696" width="14" height="280"/>
		
			<rect x="309.201" y="153.986" transform="matrix(-0.4822 0.876 -0.876 -0.4822 731.6544 167.9626)" fill="#969696" width="13.98" height="292.426"/>
		
			<rect x="305.253" y="160.373" transform="matrix(0.5147 0.8574 -0.8574 0.5147 414.3958 -118.9227)" fill="#969696" width="13.981" height="292.413"/>
		<circle cx="322.889" cy="300.648" r="31.21"/>
		<path stroke="#000000" stroke-miterlimit="10" d="M319.402,64.875c-131.995,0-238.999,107.003-238.999,238.998
			s107.003,238.998,238.999,238.998c131.992,0,238.997-107.003,238.997-238.998S451.396,64.875,319.402,64.875z M319.402,509.413
			c-113.519,0-205.542-92.024-205.542-205.541c0-113.517,92.024-205.54,205.542-205.54c113.517,0,205.54,92.024,205.54,205.541
			C524.942,417.39,432.919,509.413,319.402,509.413z"/>
		<path stroke="#000000" stroke-miterlimit="10" d="M278.025,102.499c0.989-0.138,29.113-3.361,29.583,19.453
			s0.545,38.89,0.545,38.89s-1.062,16.887,9.801,16.876c1.042,0,8.931,0.011,9.82,0.011c9.029,0,9.294-8.42,9.217-17.211
			c-0.086-9.54,0.5-38.195,0.5-38.195s2.055-19.542,23.532-19.542c22.035-0.001-4.607-7.719-4.607-7.719l-69.31,0.437
			L278.025,102.499z"/>
		<path stroke="#000000" stroke-miterlimit="10" d="M123.109,243.3c0.376-0.925,11.029-26.664,31.021-15.664
			c19.993,11,33.952,18.972,33.952,18.972s14.095,9.362,19.516-0.049c0.521-0.903,4.475-7.729,4.919-8.499
			c4.516-7.82-2.645-12.26-10.297-16.588c-8.304-4.696-32.829-19.531-32.829-19.531s-18.83-11.669-6.86-29.502
			c12.234-18.226-7.285-0.518-7.285-0.518l-34.278,60.242L123.109,243.3z"/>
		<path stroke="#000000" stroke-miterlimit="10" d="M168.015,442.725c-0.615-0.789-17.578-22.884,1.944-34.696
			c19.524-11.814,33.406-19.917,33.406-19.917s15.156-7.527,9.716-16.927c-0.522-0.903-4.457-7.741-4.9-8.51
			c-4.515-7.821-11.941-3.84-19.515,0.624c-8.218,4.842-33.328,18.665-33.328,18.665s-19.396,7.069-30.134-11.53
			c-11.02-19.084-2.936,8.77-2.936,8.77L157.3,439.01L168.015,442.725z"/>
		<path stroke="#000000" stroke-miterlimit="10" d="M369.214,503.188c-0.991,0.14-28.607,3.781-29.076-19.032
			c-0.47-22.814-0.546-38.889-0.546-38.889s1.061-16.889-9.8-16.877c-1.043,0-8.932-0.011-9.821-0.011
			c-9.028-0.001-9.295,8.42-9.217,17.212c0.086,9.537-0.5,38.196-0.5,38.196s-4.16,21.846-26.132,21.721
			c-22.035-0.124,7.207,5.539,7.207,5.539l69.311-0.438L369.214,503.188z"/>
		<path stroke="#000000" stroke-miterlimit="10" d="M516.646,362.806c-0.375,0.927-11.026,26.665-31.021,15.663
			c-19.992-11-33.951-18.972-33.951-18.972s-14.095-9.363-19.516,0.05c-0.521,0.903-4.476,7.73-4.919,8.499
			c-4.518,7.819,2.644,12.261,10.297,16.589c8.303,4.693,32.829,19.529,32.829,19.529s15.996,14.209,5.258,32.809
			c-11.017,19.083,8.887-2.789,8.887-2.789l34.277-60.241L516.646,362.806z"/>
		<path stroke="#000000" stroke-miterlimit="10" d="M467.748,161.385c0.615,0.788,17.578,22.882-1.945,34.695
			c-19.522,11.815-33.406,19.917-33.406,19.917s-15.154,7.525-9.715,16.926c0.521,0.903,4.458,7.74,4.901,8.51
			c4.514,7.82,11.94,3.839,19.516-0.624c8.216-4.844,33.326-18.666,33.326-18.666s21.289-6.26,32.028,12.339
			c11.019,19.083,1.042-9.579,1.042-9.579L478.463,165.1L467.748,161.385z"/>
		<path fill="#969696" d="M322.559,249.267c-30.032,0-54.376,24.346-54.376,54.377s24.345,54.376,54.376,54.376
			c30.032,0,54.379-24.345,54.379-54.376C376.938,273.613,352.59,249.267,322.559,249.267z M322.559,330.969
			c-15.09,0-27.325-12.234-27.325-27.325c0-15.091,12.234-27.325,27.325-27.325c15.092,0,27.326,12.233,27.326,27.325
			C349.884,318.735,337.649,330.969,322.559,330.969z"/>
	</g>
	<g id="Capa_4">
		<polygon fill="#494949" points="565.195,475 546.921,443.5 565.195,412 601.745,412 620.02,443.5 601.745,475 		"/>
		<g>
			<path d="M556.305,447.871c0,2.172,0.539,5.129,1.023,6.129h-0.021l0.072,0.395c0.296,1.195,0.674,2.51,1.122,3.634L569.727,493
				h0.004c1.505,6,7.15,10.881,13.892,10.881c6.791,0,12.474-4.771,13.927-11.122l11.124-34.518
				c0.498-1.225,0.908-2.671,1.226-3.979l0.025-0.264h-0.007c0.482-1,0.824-3.957,0.824-6.129c0-12.433-8.74-22.726-19.74-25.885
				v12.474c3,2.228,4.953,5.83,4.953,9.896c0,4.065-2.079,7.688-5.129,9.918l-0.132,13.896c-0.161,3.76-3.393,6.805-7.191,6.805
				s-6.502-2.55-7.502-6.713l0,0v-0.394c0-0.002,0-0.004,0-0.005c0-0.002,0-0.003,0-0.004v-13.496c-2-2.22-5.185-5.873-5.185-10.007
				S574,436.569,576,434.35v-12.406C565,425.051,556.303,435.385,556.305,447.871z M583.621,482.458
				c3.903,0,7.068,3.163,7.068,7.067c0,3.901-3.165,7.066-7.068,7.066c-3.902,0-7.067-3.165-7.067-7.066
				C576.554,485.621,579.719,482.458,583.621,482.458z"/>
		</g>
		<circle fill="#F22F2F" cx="583.471" cy="443.593" r="14.953"/>
		<g id="Cordó_4_">
			<path fill="none" stroke="#FF0000" stroke-width="5" stroke-linecap="round" stroke-miterlimit="10" d="M626.495,756.891
				c2.871-8.364,27.91-1.807,25.301,5.731c-2.127,6.145-21.623-5.747-18.507-16.51c4.345-15.004,29.588-5.11,27.37,5.235
				c-0.938,4.381-18.939-14.91-16.37-22.016"/>
			<path fill="none" stroke="#FF0000" stroke-width="5" stroke-linecap="round" stroke-miterlimit="10" d="M696.008,672.416
				c3.093-8.287-42.448-28.632-45.258-21.166c-1.467,3.896,41.566,19.889,50.32,11.182c4.677-4.649,30.253-0.79,27.327,7.05
				c-2.971,7.954-27.66-0.871-21.66-17.85"/>
			<path fill="none" stroke="#FF0000" stroke-width="5" stroke-linecap="round" stroke-miterlimit="10" d="M643.809,730.219
				c1.848-12.742,29.475-2.048,26.864,5.489c-2.188,6.322-21.169-8.284-17.913-19.527c3.604-12.454,20.799,3.646,19.494,7.38
				c-2.008,5.734-18.09-14.561-7.21-22.886"/>
			<path fill="none" stroke="#FF0000" stroke-width="5" stroke-linecap="round" stroke-miterlimit="10" d="M601.5,671.676
				c0.237,8.844-29.297,15.874-29.489,7.901c-0.19-7.952,28.937-5.04,29.913,7.888c0.979,12.93-28.345,15.295-29.503,7.426
				c-1.159-7.868,29.061-12.203,29.856,5.784"/>
			<path fill="none" stroke="#FF0000" stroke-width="5" stroke-linecap="round" stroke-miterlimit="10" d="M600.775,644.565
				c0.235,8.841-29.3,15.874-29.491,7.898c-0.19-7.95,28.869-7.536,29.847,5.393c0.979,12.93-28.345,15.295-29.503,7.427
				c-1.159-7.87,29.101-10.649,29.897,7.342"/>
			<path fill="none" stroke="#FF0000" stroke-width="5" stroke-linecap="round" stroke-miterlimit="10" d="M599.982,614.958
				c0.234,8.842-29.3,15.872-29.491,7.898c-0.19-7.95,28.896-6.538,29.874,6.392c0.979,12.928-28.347,15.294-29.505,7.426
				c-1.157-7.868,29.143-9.148,29.938,8.839"/>
			<path fill="none" stroke="#FF0000" stroke-width="5" stroke-linecap="round" stroke-miterlimit="10" d="M600.283,615.348
				c-0.315-18.004-30.646-16.977-29.697-9.08s30.33,4.262,29.697-8.688c-0.631-12.951-30.168-13.145-30.19-5.19
				c-0.021,7.978,27.067-1.443,27.067-10.288c0,0,1.879-5.778-7.48-12.055c-6.377-4.277-6.003-15.516-5.504-17.139
				c0.5-1.624,8.646-61.978-0.998-62.438c-13.085-0.624,1.249,31.343-0.75,44.704c-0.268,1.854-2.435,20.167-2.435,20.167"/>
			<path fill="none" stroke="#FF0000" stroke-width="5" stroke-linecap="round" stroke-miterlimit="10" d="M609.765,785.909
				c-6.349-8.455,25.157-9.409,22.548-1.87c-2.602,7.515-19.03-2.633-15.425-15.088c3.605-12.454,28.062,0.157,26.395,7.935
				c-1.667,7.775-22.331-2.862-16.786-19.995"/>
			<path fill="none" stroke="#FF0000" stroke-width="5" stroke-linecap="round" stroke-miterlimit="10" d="M612.038,754.109
				c0.237,8.84-25.138,15.76-25.328,7.787c-0.192-7.95,26.909-8.382,27.888,4.549c0.979,12.929-24.485,12.911-18.837,7.312
				c2.875-2.85,34.337,5.803,17.127,12.067"/>
			<path fill="none" stroke="#FF0000" stroke-width="5" stroke-linecap="round" stroke-miterlimit="10" d="M605.382,727.745
				c0.237,8.841-25.73,15.776-25.924,7.805c-0.189-7.952,28.835-8.831,29.813,4.1c0.978,12.93-25.969,15.229-27.127,7.36
				c-1.177-7.991,29.118-9.998,29.92,8.047"/>
			<path fill="none" stroke="#FF0000" stroke-width="5" stroke-linecap="round" stroke-miterlimit="10" d="M602.258,699.57
				c0.237,8.842-28.107,16.264-28.299,8.29c-0.192-7.951,28.866-7.537,29.846,5.392s-27.155,15.262-28.314,7.395
				c-1.157-7.868,29.121-9.943,29.918,8.047"/>
		</g>
		<circle fill="#494949" cx="684.069" cy="443.579" r="42.532"/>
		<path d="M584,496.589c0,0-7.248,0.325-7.416-7.713s-6.936,3.882-6.936,3.882s2.435,11.409,15.272,11.123
			C585.863,503.578,584,496.589,584,496.589z"/>
		<path fill="#EAEAEA" d="M689,468.506c0,0.852-1.252,1.494-1.851,1.494h-5.366c-0.6,0-1.783-0.644-1.783-1.494v-50.448
			c0-0.85,1.185-1.058,1.783-1.058h5.366c0.599,0,1.851,0.208,1.851,1.058V468.506z"/>
	</g>
	<g id="Capa_3">
	</g>
	<g id="Capa_24">
		<path fill="#F9DBBD" d="M742,707.078c-0.796-5.264-7.909-32.952-7.159-38.583c0.753-5.629,0.043-11.545-1.412-22.451
			c-1.455-10.905,3.479-30.7,7.416-38.065c3.937-7.364,20.382-39.425,24.144-48.797c3.765-9.369,21.004-29.555,21.763-35.889
			c0.758-6.334-18.656-47.85-19.079-48.966c-0.423-1.114,0.152-1.788,0.92-22.757c0.77-20.966-1.824-24.973-5.024-27.734
			c-3.202-2.766-11.209-1.584-11.477-1.884c-0.269-0.302-47.428,6.896-49.917,6.387c-2.489-0.508-18.257,2.37-19.971,2.979
			c-1.711,0.608-2.275,3.179-2.733,2.983c-1.396-1.421-2.819-0.021-5.637-0.046c-2.817-0.022-9.194,10.765-12.694,14.528
			s-5.232,3.533-8.603,5.716c-3.369,2.182-9.036,3.568-10.529,9.945c-1.493,6.375,8.312,60.128,9.376,62.735
			c1.062,2.611-1.549,16.898-2.449,21.011s3.819,22.905,2.814,26.474c-1.004,3.569,1.109,10.198,2.818,13.248
			c1.707,3.05,4.178,18.896,5.528,25.953c1.353,7.057,2.121,31.67,2.214,33.621c-0.142-3.136-0.104-1.842,9.691,188.513l100,33
			L742,707.078z M683.326,498.562l-2.568-13.967l16.091-7.858c0.693-0.711,0.989-0.863,0.605-0.294l-0.605,0.294
			c-2.556,2.626-10.543,12.928-9.958,23.356C686.934,500.939,683.326,498.562,683.326,498.562z"/>
	</g>
	<g id="Capa_5">
		<path fill="none" stroke="#FF0000" stroke-width="5" stroke-linecap="round" stroke-miterlimit="10" d="M654.164,649.766
			c10.504-16.284,34.116,8.579,25.652,9.254c-7.359,0.588,2.659-19.935,15.899-22.896c16.835-3.765,31.462,13.096,23.167,14.781
			c-7.816,1.588,0.247-11.408,6.87-17.271c0,0,6.003-4.386,11.085,0.856"/>
	</g>
	<g id="Capa_22">
		<path fill="#F9DBBD" d="M1.013,821.45c-4.569-4.19,62.047-285.573,60.401-291.56c0,0,7.725-45.646,5.299-47.096
			c0,0-6.503-10.299-14.369-15.745c-7.865-5.442-14.287-14.548-16.417-15.528c-2.13-0.98-16.733-9.53-17.793-14.486
			c-1.06-4.957-1.339-7.584,0.419-15.854c1.759-8.271-1.351-10.24-1.018-13.922c0.762-8.42,5.267-13.692,5.267-13.692
			c-0.586-0.005,1.102-13.217,1.102-13.217c1.703-4.577,6.799-10.88,7.878-16.719c1.078-5.841,4.573-26.08,9.818-29.947
			c3.973-2.359,3.973-2.359,3.973-2.359s-1.262-7.366,1.524-11.049c5.319-7.029,15.986-8.126,17.575-9.317
			c1.589-1.189,9.375-3.361,14.725-1.793c-0.673,1.065-0.434,4.261-0.434,4.261s-1.049,6.431-2.41,11.324
			c-1.361,4.893-0.285,10.774-0.285,10.774l-2.553,9.175c0,0,3.106,9.608,4.796,13.812c1.499,3.723,1.125,6.438,1.125,6.438
			s1.672,1.6,5.782,0.46c4.11-1.14,10.066-3.446,12.67-3.685c2.603-0.24,10.243-3.735,11-6.179
			c0.758-2.444,5.179-9.386,5.236-11.542c0.057-2.155-1.962-19.829,1.341-27.33c5.162-11.723,18.967-27.017,27.089-28.397
			c6.637-1.129,11.894,4.631,11.528,9.704c-0.444,6.151-3.618,13.02-4.503,15.9c-0.905,2.944-1.375,17.062-4.568,21.29
			c-3.192,4.229-2.066,22.77-2.066,22.77s3.399,11.28,2.693,14.651c-0.706,3.371,0.508,9.819,1.358,12.614
			c0.851,2.795,2.122,12.995,1.733,16.063c-0.39,3.071-4.466,31.998-4.466,31.998s-2.056,11.972-1.599,18.877
			c0.491,7.411-6.069,29.093-6.069,29.093l-18.874,339.751C125.183,826.105,1.013,821.45,1.013,821.45z"/>
	</g>
	<path fill="#F4F4F4" d="M689,468.506c0,0.852-1.252,1.494-1.851,1.494h-5.366c-0.6,0-1.783-0.644-1.783-1.494v-50.448
		c0-0.85,1.185-1.058,1.783-1.058h5.366c0.599,0,1.851,0.208,1.851,1.058V468.506z"/>
	<path fill="#C1C1C1" d="M588.086,550.008c-0.11,0.748-0.638,1.289-1.18,1.21l-8.935-1.31c-0.542-0.079-0.894-0.749-0.782-1.497
		l1.611-11.003c0.109-0.749,0.639-1.29,1.18-1.211l8.935,1.31c0.542,0.078,0.893,0.751,0.783,1.497L588.086,550.008z"/>
</g>
</svg>
