<?xml version="1.0" encoding="utf-8"?>
<!-- Generator: Adobe Illustrator 16.0.0, SVG Export Plug-In . SVG Version: 6.00 Build 0)  -->
<!DOCTYPE svg PUBLIC "-//W3C//DTD SVG 1.1//EN" "http://www.w3.org/Graphics/SVG/1.1/DTD/svg11.dtd">
<svg version="1.1" id="Capa_1" xmlns="http://www.w3.org/2000/svg" xmlns:xlink="http://www.w3.org/1999/xlink" x="0px" y="0px"
	 width="800px" height="800px" viewBox="0 0 800 800" enable-background="new 0 0 800 800" xml:space="preserve">
<g id="cèl">
	<g id="Cèl_2_">
		
			<linearGradient id="SVGID_1_" gradientUnits="userSpaceOnUse" x1="387.8086" y1="-876.8203" x2="1674.4961" y2="-876.8203" gradientTransform="matrix(-4.371139e-08 -1 1 -4.371139e-08 1250.5 1220.4995)">
			<stop  offset="0.1444" style="stop-color:#FFFFFF"/>
			<stop  offset="1" style="stop-color:#00C3FF"/>
		</linearGradient>
		<polygon fill="url(#SVGID_1_)" points="-271.129,-453.996 1016.906,-453.996 1018.487,832.691 -269.548,832.691 		"/>
	</g>
</g>
<g id="_x31_">
	<g id="Ancla_copia_2_1_">
		<path fill="#727272" d="M1123.433,713.83c0.385-0.656-0.69-2.469-0.903-2.751c-0.154-0.175-0.37-0.225-0.617-0.184
			c-0.449,0.074-1.047,0.434-1.525,0.791c-0.747,0.423-30.904,11.541-48.921,18.174c-8.051,2.968-14.399,5.308-15.415,5.691
			c-1.459,0.554-2.331,1.24-2.597,2.017c-0.214,0.622,0.052,1.064,0.07,1.085c0.763,1.964,1.407,1.84,2.485,1.426
			c0.18-0.065,0.377-0.139,0.604-0.207c1.345-0.407,54.737-18.455,57.011-19.21c0.731-0.309,2.787-0.997,3.611-0.611
			c0.934,0.447,2.35,3.029,2.905,4.307c2.626,6.091,3.895,10.591,3.196,11.214c-0.226,0.193-1.116,0.537-4.57-0.516
			c-1.96-0.6-3.981-1.439-4.469-1.687c-0.088-0.052-10.048-4.915-11.981-4.277c-0.172,0.058-0.311,0.169-0.378,0.314
			c-0.652,1.376,1.037,3.662,2.99,6.304l0.514,0.689c1.598,2.18,3.572,4.501,4.366,5.397c-1.563-0.008-6.042-0.022-6.712,0.03
			c-0.063,0.015-0.172,0.026-0.283,0.035c-0.44,0.068-1.177,0.264-1.592,0.804c-0.268,0.347-0.359,0.771-0.264,1.259
			c0.172,0.925,1.65,2.104,3.213,3.362c0.254,0.215,0.515,0.428,0.769,0.634c-0.071,0.041-0.138,0.104-0.22,0.145
			c-1.787,1.257-4.243,2.972-4.385,4.371c-0.035,0.358,0.068,0.672,0.32,0.931c1.164,1.234,5.162-0.006,12.546-3.883
			c5.531-2.912,13.178-8.334,13.253-8.385c1.654-1.17,3.927-4.271,3.566-7.207c-0.356-2.792-6.031-18.32-6.645-20
			C1123.38,713.867,1123.398,713.848,1123.433,713.83z"/>
		<g>
			<path fill="#727272" d="M1057.54,737.938c0.09-0.191,0.103-0.404,0.035-0.607c-0.139-0.408-0.584-0.632-1.02-0.481
				c-0.198,0.074-0.359,0.221-0.448,0.409c-0.094,0.191-0.102,0.407-0.033,0.608c0.127,0.358,0.511,0.574,0.876,0.516
				c0.043-0.011,0.102-0.021,0.146-0.035C1057.298,738.274,1057.459,738.129,1057.54,737.938z"/>
			<path fill="#727272" d="M1129.557,733.944c-0.316-2.631-5.684-17.361-6.549-19.697c-0.241,0.176-0.543,0.292-0.823,0.306
				c-0.342,0.034-0.637-0.097-0.82-0.32c-0.257-0.33-0.571-0.886-0.79-1.303l-0.033,0.102l-58.844,20.931
				c-2.938,1.086-4.936,1.822-5.464,2.028c-1.627,0.622-2.16,1.271-2.308,1.7c-0.145,0.408,0.009,0.688,0.035,0.736
				c0.651,1.652,0.986,1.526,1.889,1.184c0.191-0.068,0.393-0.146,0.631-0.217c0.309-0.095,3.469-1.144,8.161-2.721
				c0.659-1.742,2.707-2.44,2.792-2.478c1.89-0.715,46.575-17.471,51.176-15.846c1.215,0.425,2.658,3.863,2.819,4.238
				c0.138,0.321,3.54,7.998,4.148,10.983c0.865,4.37-4.25,7.524-6.312,8.352c-1.752,0.701-8.626,0.519-8.902,0.57l-0.005,0.002
				c-0.235,0.036-6.445-0.146-7.229-0.087c-0.528,0.042-1.224,0.116-1.544,0.55c-0.18,0.242-0.239,0.521-0.176,0.874
				c0.146,0.742,1.684,1.981,3.045,3.072c0.907,0.74,1.776,1.438,2.324,2.038c0.713,0.791,0.979,1.34,0.832,1.701
				c-0.093,0.222-0.308,0.309-0.42,0.309l-0.031-0.487c0.002,0,0.104-0.249-0.746-1.196c-0.275-0.323-0.663-0.666-1.105-1.046
				c-0.111,0.078-0.219,0.156-0.331,0.238c-1.519,1.065-4.063,2.841-4.183,4.022c-0.026,0.221,0.048,0.396,0.193,0.565
				c0.654,0.7,3.272,0.578,11.965-3.997c3.403-1.788,7.621-4.531,10.359-6.376c-4.982,1.064-15.57,0.845-19.287,0.768
				c-0.697-0.014-1.246-0.034-1.327-0.024l-0.034-0.242l-0.083-0.231c0.013-0.011,0.019-0.011,0.043-0.018
				c0.081-0.016,0.302-0.004,1.409,0.02c4.109,0.096,16.611,0.36,20.524-1.136c0.973-0.673,1.58-1.108,1.604-1.12
				C1127.512,739.753,1129.881,736.794,1129.557,733.944z M1057.984,738.14c-0.144,0.31-0.402,0.544-0.724,0.653
				c-0.673,0.243-1.407-0.112-1.635-0.772c-0.109-0.321-0.089-0.668,0.048-0.976c0.146-0.31,0.396-0.544,0.722-0.657
				c0.067-0.025,0.16-0.044,0.241-0.056c0.601-0.1,1.195,0.25,1.404,0.829C1058.146,737.485,1058.133,737.834,1057.984,738.14z"/>
			<path fill="#727272" d="M1065.262,736.437c15.913-5.352,47.766-16.117,48.187-16.255c0.28-0.104,2.822-1.136,3.976-0.585
				c1.206,0.572,2.712,3.541,3.142,4.559c1.685,3.92,4.329,10.657,3.061,11.759c-1.542,1.342-9.005-1.828-9.583-2.146
				c-1.135-0.598-10.068-4.766-11.604-4.238c-0.031,0.008-0.085,0.028-0.097,0.049c-0.53,1.125,1.15,3.413,2.94,5.829l0.513,0.689
				c1.848,2.512,4.194,5.207,4.632,5.693c0.873,0.025,7.083,0.191,8.627-0.435c1.82-0.724,6.838-3.732,6.031-7.741
				c-0.594-2.95-4.072-10.777-4.111-10.874c-0.411-0.997-1.686-3.654-2.529-3.953c-4.449-1.566-50.4,15.68-50.869,15.852
				C1067.563,734.643,1065.986,735.197,1065.262,736.437z"/>
			<path fill="#727272" d="M1120.134,712.644l0.164-0.416c-1.575,0.648-8.282,3.151-19.691,7.375L1120.134,712.644z"/>
			<path fill="#727272" d="M1122.992,713.578c0.174-0.298-0.5-1.742-0.866-2.205c-0.061-0.088-0.576,0.034-1.46,0.68l0.075,0.163
				c0.007,0.024,0.583,1.202,0.981,1.709c0.094,0.109,0.239,0.167,0.406,0.15C1122.485,714.054,1122.865,713.797,1122.992,713.578z"
				/>
			<path fill="#727272" d="M1123.414,713.826c0.383-0.655-0.691-2.47-0.906-2.748c-0.149-0.176-0.367-0.227-0.621-0.186
				c-0.447,0.073-1.04,0.437-1.518,0.791c-0.751,0.419-30.908,11.542-48.919,18.168c-8.057,2.973-14.406,5.313-15.418,5.693
				c-1.458,0.558-2.333,1.24-2.597,2.015c-0.213,0.62,0.056,1.071,0.067,1.088c0.769,1.965,1.409,1.835,2.489,1.424
				c0.18-0.06,0.378-0.138,0.598-0.205c1.354-0.406,54.738-18.457,57.013-19.212c0.739-0.306,2.792-0.996,3.608-0.606
				c0.938,0.446,2.354,3.026,2.906,4.303c2.625,6.098,3.897,10.593,3.196,11.219c-0.235,0.196-1.117,0.539-4.571-0.514
				c-1.961-0.601-3.982-1.439-4.466-1.689c-0.092-0.05-10.041-4.914-11.984-4.274c-0.176,0.051-0.309,0.17-0.378,0.311
				c-0.654,1.378,1.041,3.677,2.992,6.315l0.51,0.696c1.609,2.188,3.574,4.502,4.365,5.412c0.299,0.005,0.5,0.034,0.54,0.034
				l0.007,0.525c0,0,0.008,0.103,0.002,0.103l0.01-0.001c0.283-0.042,7.165,0.131,8.902-0.572c2.041-0.815,7.169-4.032,6.295-8.415
				c-0.59-2.989-3.989-10.62-4.136-10.953c-0.159-0.381-1.598-3.814-2.819-4.236c-4.6-1.61-49.287,15.156-51.175,15.866
				c-0.089,0.036-2.13,0.742-2.79,2.479c-4.69,1.58-7.855,2.647-8.16,2.728c-0.23,0.066-0.438,0.152-0.633,0.219
				c-0.907,0.341-1.243,0.471-1.89-1.183c-0.024-0.049-0.174-0.329-0.036-0.734c0.164-0.438,0.688-1.083,2.311-1.703
				c0.521-0.2,2.519-0.932,5.463-2.028l58.842-20.931l0.034-0.102c0.223,0.414,0.526,0.97,0.791,1.301
				c0.186,0.235,0.477,0.352,0.816,0.323c0.279-0.024,0.576-0.131,0.82-0.306c-0.062-0.192-0.11-0.31-0.116-0.316l0.451-0.172
				c0.01,0.025,0.025,0.068,0.055,0.122C1123.38,713.867,1123.398,713.848,1123.414,713.826z M1065.243,736.453
				c0.724-1.246,2.304-1.804,2.325-1.811c0.462-0.171,46.418-17.422,50.867-15.857c0.861,0.303,2.122,2.963,2.522,3.96
				c0.041,0.092,3.531,7.926,4.112,10.868c0.794,4.022-4.217,7.019-6.023,7.751c-1.542,0.607-7.744,0.446-8.627,0.429
				c-0.43-0.486-2.774-3.174-4.622-5.694l-0.515-0.688c-1.787-2.425-3.471-4.708-2.945-5.832c0.02-0.021,0.064-0.04,0.102-0.046
				c1.546-0.518,10.48,3.639,11.607,4.236c0.575,0.311,8.037,3.479,9.576,2.15c1.272-1.102-1.377-7.844-3.062-11.761
				c-0.434-1.004-1.936-3.991-3.135-4.56c-1.148-0.553-3.69,0.474-3.979,0.585C1113.024,720.325,1081.161,731.094,1065.243,736.453z
				 M1120.298,712.232l-0.165,0.42l-19.535,6.95C1112.02,715.379,1118.723,712.874,1120.298,712.232z M1123.002,713.576
				c-0.126,0.22-0.508,0.473-0.876,0.499c-0.172,0.019-0.311-0.036-0.406-0.152c-0.396-0.504-0.972-1.685-0.979-1.709l-0.074-0.161
				c0.876-0.642,1.396-0.768,1.464-0.68C1122.488,711.832,1123.17,713.283,1123.002,713.576z"/>
			<path fill="#727272" d="M1105.299,748.23c-0.115-0.107-0.252-0.22-0.384-0.311c-0.075,0.034-0.14,0.102-0.221,0.146
				c-1.79,1.259-4.243,2.972-4.386,4.366c-0.033,0.36,0.066,0.673,0.326,0.938c1.166,1.231,5.153-0.006,12.545-3.883
				c5.531-2.913,13.176-8.341,13.252-8.388c1.649-1.17,3.927-4.278,3.565-7.206c-0.351-2.785-6.036-18.322-6.654-20.003
				c-0.097,0.148-0.224,0.27-0.378,0.375c0.855,2.336,6.219,17.08,6.551,19.693c0.347,2.838-2.026,5.809-3.367,6.755
				c-0.014,0.016-0.626,0.447-1.607,1.132c0.012-0.005,0.025-0.019,0.033-0.02l0.173,0.447c-0.397,0.155-0.882,0.281-1.442,0.407
				c-2.746,1.851-6.968,4.594-10.359,6.385c-8.694,4.565-11.305,4.688-11.968,3.983c-0.162-0.173-0.214-0.345-0.19-0.567
				c0.118-1.191,2.66-2.971,4.181-4.022C1105.093,748.375,1105.195,748.305,1105.299,748.23z"/>
			<path fill="#727272" d="M1123.361,713.889c-0.023-0.052-0.034-0.101-0.038-0.123l-0.45,0.172c0.006,0.02,0.051,0.132,0.117,0.316
				C1123.135,714.153,1123.268,714.031,1123.361,713.889z"/>
			<path fill="#727272" d="M1110.133,742.188c-0.003,0-0.137-0.154-0.352-0.395c-1.565-0.008-6.046-0.031-6.723,0.029
				c-0.055,0.008-0.162,0.018-0.276,0.036c-0.436,0.068-1.174,0.261-1.588,0.799c-0.269,0.343-0.358,0.776-0.265,1.266
				c0.17,0.925,1.648,2.098,3.213,3.363c0.249,0.207,0.517,0.424,0.768,0.63c0.123-0.08,0.242-0.171,0.344-0.239l0.279,0.388
				c-0.07,0.05-0.152,0.117-0.229,0.168c0.44,0.377,0.815,0.722,1.106,1.049c0.848,0.93,0.745,1.191,0.745,1.191l0.03,0.493
				c0.111-0.009,0.326-0.09,0.422-0.311c0.146-0.373-0.12-0.91-0.836-1.703c-0.536-0.596-1.407-1.297-2.325-2.034
				c-1.355-1.095-2.888-2.333-3.04-3.073c-0.063-0.355-0.013-0.642,0.177-0.874c0.314-0.437,0.997-0.61,1.524-0.652
				c0.769-0.06,6.963-0.03,7.208-0.026l-0.106-0.011L1110.133,742.188z"/>
			<path fill="#727272" d="M1110.314,741.782c-0.038,0-0.242-0.009-0.534-0.002c0.228,0.239,0.348,0.382,0.353,0.391l0.069,0.085
				l0.104,0.011c0.002,0,0.017,0,0.019,0L1110.314,741.782z"/>
			<path fill="#727272" d="M1105.262,747.674c-0.108,0.072-0.229,0.166-0.342,0.236c0.129,0.104,0.263,0.217,0.382,0.315
				c0.074-0.044,0.16-0.104,0.231-0.164L1105.262,747.674z"/>
			<path fill="#727272" d="M1123.306,742.681c0.459-0.319,0.884-0.604,1.253-0.857c-3.911,1.478-16.41,1.212-20.521,1.133
				c-1.111-0.034-1.331-0.034-1.41-0.021c-0.025,0.001-0.033,0.015-0.04,0.021l0.082,0.226l0.034,0.241
				c0.08-0.007,0.632,0.021,1.327,0.027C1107.747,743.518,1118.326,743.74,1123.306,742.681z"/>
			<path fill="#727272" d="M1124.569,741.823c-0.368,0.251-0.79,0.529-1.254,0.857c0.554-0.112,1.047-0.242,1.445-0.406
				l-0.171-0.449C1124.577,741.816,1124.566,741.823,1124.569,741.823z"/>
			<path fill="#727272" d="M1057.985,738.144c0.147-0.31,0.17-0.654,0.044-0.989c-0.211-0.575-0.792-0.927-1.402-0.829
				c-0.083,0.013-0.165,0.033-0.24,0.057c-0.319,0.115-0.58,0.35-0.723,0.656c-0.149,0.31-0.172,0.653-0.046,0.978
				c0.238,0.653,0.961,1.015,1.635,0.771C1057.582,738.684,1057.841,738.449,1057.985,738.144z M1057.555,737.935
				c-0.089,0.182-0.249,0.336-0.447,0.403c-0.037,0.023-0.104,0.035-0.146,0.035c-0.38,0.061-0.749-0.156-0.879-0.515
				c-0.072-0.197-0.054-0.412,0.034-0.604c0.102-0.19,0.241-0.336,0.454-0.409c0.422-0.15,0.864,0.074,1.011,0.479
				C1057.649,737.527,1057.638,737.744,1057.555,737.935z"/>
		</g>
	</g>
	<g id="Cadena_1_">
		<path fill="none" stroke="#727272" stroke-width="1.5" stroke-linecap="round" stroke-miterlimit="10" d="M612.887,379.403
			c0,0,5.853-6.014,9.866-5.545c4.01,0.468,6.356,0.5,6.538,17.315c0.177,16.814-16.404,384.644,203.396,342.052
			c10.487-0.677,93.734,1.062,103.699,0.194c9.969-0.863,108.096,13.516,117.135,5.235"/>
		<path fill="none" stroke="#727272" stroke-width="3" stroke-linecap="round" stroke-miterlimit="10" stroke-dasharray="1.5,4" d="
			M612.887,378.448c0,0,5.853-6.014,9.866-5.545c4.01,0.468,6.356,1.455,6.538,18.27c0.177,16.814-16.404,384.644,203.396,342.052
			c10.487-0.677,93.734,1.062,103.699,0.194c9.969-0.863,108.096,13.516,117.135,5.235"/>
	</g>
	<g id="Barco_Petit">
		<g id="Capa_22_copia">
			<path fill="#36627A" d="M127.808,358.445c-1.866,0.392-7.83,13.308-5.938,23.503c1.896,10.194,7.333,33.811,10.454,37.7
				c3.13,3.89,7.055,10.842,7.055,10.842s-13.799,7.414-16.001,12.267c0,0,0.004,1.989,1.69,1.725
				c1.686-0.269,16.404-1.069,17.096,0.585c0.692,1.648,2.036,10.225,2.255,11.346c0.228,1.114-0.392,6.182-0.607,8.001
				c-0.091,0.753-4.601,8.018-3.78,9.659c0.839,1.645,6.946,1.701,10.355,1.621c3.401-0.077,21.557-12.237,24.085-14.478
				c2.531-2.234,3.244-29.282,3.244-29.282s-5.162-35.362-3.895-35.436c1.269-0.072,9.828-3.521,12.577-6.704
				c2.751-3.188,1.729-18.604,0.434-21.062C185.51,366.266,155.793,352.543,127.808,358.445z"/>
			<path fill="#6C808C" d="M141.687,456.017c0,0,2.94-0.6,3.108-0.235c0.169,0.369,0.813,1.387,0.674,3.353
				c-0.14,1.97,0.616,4.467-0.934,4.655c-1.55,0.188-2.616,0.195-2.616,0.195s-2.582,6.371-6.561,8.297
				c-3.981,1.928-6.659,1.271-4.208-1.25c2.443-2.523,7.042-5.492,6.602-6.53c-0.436-1.034-8.148,0.027-8.148,0.027l0.069-6.236
				c0,0,5.895-0.57,6.187-0.457c0.294,0.113,2.516-1.538,0.829-2.266c-1.688-0.728-8.951,0.013-7.792-2.562
				c1.162-2.574,0.881-2.551,3.623-2.895c2.747-0.347,6.259,1.006,7.817,2.893C141.888,454.888,141.687,456.017,141.687,456.017z"/>
		</g>
		<g>
			<path fill="#FF0000" d="M296.905,440.872l-27.74-23.212l-116.37-6.607c36.325-7.473,105.148-18.403,207.672-24.722
				c73.659-4.536,135.375-5.009,163.922-3.565c51.904,2.634,86.825-0.384,95.692-1.288c-1.508,0.953-3.722,2.45-5.064,3.7
				c-1.022,0.941-1.919,2.222-3.178,3.99c-2.522,3.588-6.39,8.764-14.924,16.812l-0.853,0.775
				c-56.972,27.758-134.202,35.938-189.672,37.516C347.642,445.947,299.386,441.131,296.905,440.872z"/>
			<path d="M362.642,347.938c-0.498-1.005-0.896-1.758-1.21-2.325c-0.164-0.281-0.304-0.518-0.428-0.712
				c-0.618-0.984-0.821-0.987-0.943-0.991l-0.353,0.219c-0.168,0.316-0.354,0.656-0.571,1.008c-0.143,0.236-0.295,0.479-0.454,0.727
				c-0.086,0.123-0.168,0.248-0.247,0.371c-2.248,3.264-5.978,7.103-8.218,6.516c-1.066-0.286-1.709-1.006-1.967-2.224
				c-0.033-0.141-0.053-0.289-0.072-0.438c-0.016-0.155-0.035-0.314-0.035-0.482c-0.14-4.328,3.72-12.808,8.789-18.219
				c0.778-0.831,1.589-1.591,2.418-2.246c0.458-0.37,0.981-0.742,1.533-1.057c0.887-0.507,1.847-0.868,2.736-0.824
				c0.335,0.016,0.662,0.091,0.977,0.234c0.496,0.232,0.826,0.616,1.009,1.183c0.121,0.369,0.168,0.802,0.168,1.259
				c-0.033,3.234-2.783,8.149-2.821,8.209l-0.204,0.366l4.49,1.298L362.642,347.938z M363.195,331.955
				c-0.015-0.499-0.136-0.906-0.413-1.182c-0.054-0.057-0.113-0.104-0.183-0.152c-0.166-0.109-0.361-0.168-0.572-0.168
				c-0.149,0-0.303,0.034-0.482,0.098c-1.206,0.431-2.938,2.302-4.685,4.701l-0.08-0.096l-0.078-0.093l-1.527,2.65
				c-0.758,1.181-1.481,2.409-2.124,3.6c-1.079,1.985-1.934,3.877-2.374,5.297c-0.242,0.808-0.354,1.461-0.327,1.957
				c0.01,0.125,0.031,0.239,0.048,0.345c0.068,0.316,0.217,0.554,0.438,0.701c0.099,0.066,0.209,0.096,0.327,0.096
				c1.374,0,5.824-5.392,7.674-8.023c0.066-0.101,0.132-0.191,0.193-0.286c0.112-0.176,0.228-0.341,0.307-0.482
				c0.098-0.142,0.167-0.266,0.209-0.363c0.055-0.091,0.121-0.195,0.211-0.325c0.08-0.128,0.167-0.275,0.269-0.442
				C361.113,337.975,363.246,334.133,363.195,331.955z"/>
			<path fill="#3FA9F5" d="M404.836,333.464c-1.777,0.245-8.019,1.26-13.437,2.283c-0.346,0.064-0.687,0.131-1.023,0.198
				c-0.176,0.034-0.351,0.069-0.526,0.104c-0.741,0.148-1.458,0.301-2.142,0.45c-0.214,0.047-0.422,0.097-0.626,0.147
				c-0.516,0.116-1.007,0.237-1.464,0.36c-0.186,0.049-0.365,0.097-0.536,0.147c-0.035,0.006-0.085,0.018-0.142,0.033
				c-1.667,0.369-11.176,2.583-12.596,5.05c-0.044,0.082-0.084,0.148-0.108,0.231c-0.834,2.385-2.858,15.73-3.192,18.702h-5.684
				l-1.989-5.024l0.771-7.139l0.303-0.139l0,0l0,0c-0.02-0.036-0.034-0.068-0.045-0.102c-0.021-0.033-0.035-0.067-0.049-0.1
				l4.931-8.666l0.074,0.019l0,0l0,0l0.099-0.315l0.072-0.126l0.126-0.222l7.362-15.492l1.126-0.396l1.13-0.396l3.311-18.059
				c0.162,0,0.386-0.002,0.665-0.002c1.931,0,8.374,0.054,10.227,0.756C393.013,306.362,400.47,322.798,404.836,333.464z"/>
			<path d="M359.601,338.706c0.035,0,0.058-0.006,0.082-0.011c0.062-0.013,0.115-0.049,0.167-0.09
				c-0.323,0.566-0.651,1.113-0.972,1.621c-0.178,0.36-0.528,0.896-0.974,1.526c-0.073-0.169-0.1-0.361-0.1-0.524
				c-0.005-0.28,0.051-0.504,0.053-0.512l0.101-0.343l-3.151-0.666l1.318-2.301c0.251-0.379,0.506-0.748,0.771-1.109
				C358.803,338.503,359.375,338.714,359.601,338.706z"/>
			<path d="M359.758,340.231c-0.084,0.13-0.149,0.239-0.204,0.324c-0.044,0.099-0.112,0.222-0.209,0.364
				c-0.09,0.145-0.192,0.305-0.309,0.484c-0.062,0.091-0.125,0.183-0.193,0.283c-1.844,2.637-6.295,8.024-7.674,8.024
				c-0.118,0-0.236-0.031-0.324-0.094c-0.233-0.151-0.373-0.382-0.441-0.701c-0.025-0.103-0.038-0.224-0.044-0.346
				c-0.03-0.497,0.088-1.146,0.323-1.958c0.438-1.42,1.295-3.31,2.38-5.297c0.638-1.192,1.371-2.418,2.118-3.595l1.527-2.655
				l0.079,0.093l0.081,0.094c1.744-2.397,3.475-4.269,4.683-4.701c0.171-0.06,0.333-0.097,0.484-0.097
				c0.22,0,0.408,0.058,0.572,0.17c0.066,0.04,0.129,0.096,0.183,0.15c0.276,0.278,0.397,0.688,0.411,1.18
				c0.045,2.176-2.081,6.019-3.176,7.83C359.927,339.955,359.837,340.104,359.758,340.231z M351.262,346.809
				c-0.521,1.722-0.301,2.143-0.209,2.227c1.105-0.206,4.426-4.015,6.408-6.693c-0.362-0.479-0.368-1.081-0.316-1.453l-2.835-0.598
				C352.966,342.604,351.821,344.958,351.262,346.809z M356.12,337.409l-1.321,2.3l3.151,0.667l-0.102,0.341
				c-0.003,0.005-0.06,0.234-0.057,0.512c0.002,0.166,0.034,0.355,0.103,0.524c0.443-0.633,0.796-1.169,0.973-1.526
				c0.317-0.508,0.646-1.055,0.973-1.621c-0.049,0.038-0.104,0.075-0.168,0.09c-0.021,0.003-0.039,0.01-0.079,0.011
				c-0.226,0.007-0.798-0.204-2.717-2.41C356.629,336.659,356.375,337.028,356.12,337.409z M362.233,331.177
				c-0.052-0.036-0.126-0.057-0.211-0.057c-0.929,0-2.791,1.957-4.742,4.625c0.838,0.958,1.775,1.933,2.184,2.222
				c0.231-0.344,0.662-0.48,1.025-0.521C361.981,334.652,363.118,331.766,362.233,331.177z"/>
			<path fill="#FFFFFF" stroke="#FFFFFF" stroke-miterlimit="10" d="M151.757,406.245l0.156-0.101l-0.102-9.174l5.731-3.505
				l25.08,0.441l0.058-0.021l10.39-3.842l0.436-21.429l18.75-4.575l40.087-0.112l2.112-3.882l33.962-1.887l0.225-3.44l7.064-0.718
				l-0.64-0.505c-0.009-0.007-0.992-0.799-0.972-1.76c0.019-0.558,0.37-1.091,1.069-1.578c0.511-0.368,2.03-0.799,6.289-0.799
				c3.917,0,8.692,0.352,12.187,0.609c1.724,0.128,3.088,0.234,3.885,0.255c2.382,0.072,5.026,1.87,6.47,3.504
				c0.887,1.003,1.354,1.985,1.292,2.679c-0.214,2.217-0.572,2.752-2.171,3.052l0.101,0.704l23.444-2.222l14.475-1.364l1.979,5.085
				h6.265l0.034-0.752c0.031-0.155,2.34-16.166,3.204-18.65c0.677-1.943,9.167-4.214,12.382-4.917
				c5.669-1.591,17.505-3.255,19.677-3.55l0.034,0.08l0.236-0.022c0.004,0,0.465-0.042,1.107-0.042c1.814,0,3.129,0.304,3.723,0.84
				c0.645,0.594,0.649,1.778,0.654,2.928c0.006,0.991,0.009,1.927,0.382,2.624c0.769,1.426,7.351,12.558,7.637,13.029l0.094,0.152
				l0.169,0.012c0.97,0.056,96.487,5.702,117.795,8.325c1.651,0.202,3.535,0.395,5.599,0.684
				c32.25,4.541,77.418,13.255,77.418,13.255c3.495,0.062,4.879,1.158,5,2.081c0.111,0.853-0.771,1.711-2.222,2.136
				c-0.042,0.021-1.013,0.516-2.343,1.302c-5.858,0.645-41.213,4.14-96.438,1.34c-28.566-1.446-90.38-0.878-164.059,3.663
				c-104.98,6.469-169.762,16.796-205.631,24.317l-1.574,0.33c-2.978-0.039-4.036-0.338-4.173-0.501
				c-0.041-0.096-0.104-0.182-0.17-0.271c-0.16-0.209-0.236-0.327-0.198-0.491C147.836,408.975,149.155,407.888,151.757,406.245z"/>
			<path fill="#FFFFFF" stroke="#FFFFFF" stroke-miterlimit="10" d="M296.809,441.122l0.101,0.011
				c0.401,0.042,34.814,3.632,82.214,3.632c8.211,0,16.804-0.101,25.665-0.357c55.228-1.572,132.845-9.225,189.839-36.666
				c-0.157,0.14-0.297,0.271-0.438,0.413c-1.966,1.815-3.921,3.738-5.99,5.779c-13.097,12.892-29.393,28.933-71.427,41.155
				c-9.674,2.812-20.025,4.125-32.6,4.125c-10.768,0-21.812-0.292-33.506-1.303c-12.84-1.107-26.105-2.25-40.297-2.25
				c-2.18,0-4.355,0.028-6.467,0.083c-2.131,0.052-4.629,0.083-7.422,0.083c-55.271,0-223.64-11.562-230.629-12.015l-12.489-31.975
				l115.785,6.072L296.809,441.122z"/>
		</g>
	</g>
	<g id="_x31__1_">
		<path fill="#996234" d="M326.977,361.269c0,0-2.238-2.598-1.744-5.661c0.488-3.059,1.174-4.623,3.053-5.161
			c1.877-0.537,4.425-0.781,4.942-0.517c0.524,0.267,6.857,2.776,8.305,3.276c1.44,0.503,5.396,3.116,5.475,4.32
			c0.09,1.205,0.312,1.592,0.802,2.768c0.492,1.176,1.236,6.487,1.236,6.487l-9.556,1.051c0,0,0.104-3.727-0.602-3.983
			c-0.706-0.251-10.032-1.204-10.67-1.561C327.597,361.933,326.977,361.269,326.977,361.269z"/>
		<path fill="#EF45B7" d="M291.6,346.369c0,0-0.503-4.729-0.706-4.729s6.628-0.402,8.251-1.609
			c2.013-1.499,13.082-1.409,13.082-1.409l7.347,6.742l8.479,6.377c0,0-2.441,8.015-3.648,8.015c-0.571,0-6.611-5.479-12.075-5.636
			c-6.088-0.176-6.541,3.319-5.134,10.868c0.266,1.426-12.577-7.146-12.577-7.146s-2.425-1.811-3.025-5.031
			C290.997,349.59,291.6,346.369,291.6,346.369z"/>
		<path fill="#996234" d="M306.191,297.867c0.303,0.101,2.516-2.616,2.415-3.522c-0.1-0.905-1.003-1.509-1.208-1.509
			c-0.202,0-2.314-2.516-1.208-3.623c1.107-1.108-2.416-5.635-1.107-7.849c1.307-2.214,2.917-5.636,5.937-6.843
			c3.021-1.208,4.932-2.214,6.44-1.007c1.511,1.208,5.134,4.629,5.233,5.938c0.101,1.308,0.706,3.824,0,6.541
			c-0.705,2.717-0.705,3.119-0.806,6.037c-0.099,2.917-1.408,4.733-2.313,5.84c-0.907,1.105-0.503,2.613-2.214,3.016
			c-1.712,0.402,0.402,3.119-0.402,4.124c-0.805,1.005-10.264-1.511-10.062-5.434C306.99,297.729,306.191,297.867,306.191,297.867z"
			/>
		<path fill="#301705" d="M306.493,293.941c0,0-1.711,0-1.511-1.409c0.199-1.409,0.57-3.824-0.018-4.428
			c-0.588-0.604-2.398-1.711-1.794-3.421c0.604-1.713,1.308-2.719,0.906-4.329c-0.403-1.61,0-2.917,1.307-3.722
			c1.309-0.805,2.327-0.604,3.83-1.308c1.508-0.705,2.715-2.415,4.421-2.718c1.71-0.303,3.724-1.511,5.133,0
			c1.411,1.51,2.415,1.51,2.818,2.515c0.402,1.006-0.101-0.099,0.501,2.315c0.602,2.416,1.812,2.917,1.006,4.227
			c-0.805,1.307-1.51-1.108-2.214-1.207c-0.705-0.101-0.302-1.208-2.214,0c-1.91,1.207-1.208,0.805-4.025,0.201
			c-2.816-0.604-4.33-2.214-5.185,0.704c-0.855,2.92-0.362,2.415,0,4.731c0.354,2.314,0,3.319,0,3.319s-0.153-1.107-1.255-0.904
			c-1.107,0.202-1.308,0.402-1.208,1.61c0.101,1.207,0.706,2.616,0.503,3.019C307.293,293.54,306.493,293.941,306.493,293.941z"/>
		<path fill="#996234" d="M320.38,316.884c0,0,6.643,10.868,8.353,11.874c1.712,1.007,5.231,3.02,6.541,3.319
			c1.307,0.304,9.56,1.61,13.082,1.409c3.52-0.201,4.123-1.261,5.434,0.025c1.307,1.286,1.912,2.188,2.415,1.182
			c0.502-1.006,0.201-1.207,0-2.717c-0.201-1.511,0-2.315,1.409-2.516c1.407-0.195,3.566,1.409,2.983-0.402
			c-0.568-1.812-0.368-2.616-2.686-2.415c-2.315,0.201-2.717,1.913-4.327,2.113c-1.61,0.199-2.316,0.201-5.134-0.201
			c-2.817-0.403-10.768-5.134-12.479-5.233c-1.709-0.101-1.811-1.408-2.917-2.516c-1.107-1.105-5.536-6.539-5.536-6.539"/>
		<path fill="#8BC7E8" d="M290.896,322.42c0.402-5.635,2.415-14.589,5.836-18.516c3.421-3.924,4.427-3.823,6.943-4.929
			c2.515-1.108,3.824-0.805,3.824-0.805s0.132,4.024,2.179,4.73c2.047,0.704,6.877,2.013,7.18,1.208
			c0.303-0.806-0.403-1.316,0.2-2.02c0.604-0.701,1.61-2.609,2.316-2.207c0.705,0.402,4.227,1.812,4.629,3.622
			c0.402,1.814,0.805,4.227,1.812,5.636c1.006,1.408,1.609,3.622,1.609,3.622s0.302,0.806,0.604,1.71
			c0.3,0.903-2.617,0.805-4.528,4.526c-1.912,3.723-4.025-2.112-4.025-2.112s2.316-1.511,0.201,1.71c0,0-3.22,4.931-3.421,5.635
			c-0.202,0.706-1.006,2.516-0.904,4.329c0.1,1.812,1.107,3.721,0.904,5.635c-0.203,1.913,0.041,3.622-2.346,4.526
			c-2.38,0.906-4.997,0.706-7.918,1.007c-2.918,0.303-6.517,0.145-7.849,1.308c-1.333,1.165-2.616,0.201-4.227,0.604
			c-1.61,0.403-1.709,1.409-3.019,0c-1.307-1.408,0.771-5.836,0.437-6.842c-0.332-1.007-1.208-3.221-0.871-6.541
			C290.797,324.936,290.896,322.42,290.896,322.42z"/>
		<path fill="#996234" d="M302.526,329.209c0,0,2.133,7.01,3.332,8.348c1.197,1.334,3.11,4.426,4.125,5.626
			c1.021,1.199,10.027,10.436,11.106,11.24c1.088,0.799,6.311,5.394,6.311,5.394l7.403-0.851c0,0-4.901-5.25-7.313-7.816
			c-2.412-2.567-10.391-12.444-10.841-13.34c-0.456-0.899-3.053-3.597-3.748-4.843c-0.705-1.246-0.818-3.82-1.399-6.169
			c-0.58-2.35-1.582-5.391-1.582-5.391s-9.3-1.112-9.588,1.082C300.041,324.686,302.526,329.209,302.526,329.209z"/>
		<path fill="#996234" d="M307.399,364.885c0,0-2.046-2.751-1.344-5.77c0.706-3.02,1.504-4.527,3.414-4.93
			c1.913-0.402,4.465-0.47,4.974-0.168c0.503,0.303,6.641,3.255,8.05,3.858c1.409,0.604,5.16,3.488,5.16,4.696
			c0,1.207,0.2,1.61,0.604,2.817c0.403,1.208,0.906,4.629,0.906,4.629l-9.664,1.023c0,0,0.297-2.432-0.396-2.735
			c-0.689-0.302-9.929-1.912-10.532-2.314C307.968,365.59,307.399,364.885,307.399,364.885z"/>
		<path fill="#996234" d="M317.889,374.621"/>
	</g>
	<g id="Capa_8">
		<path fill="none" stroke="#000000" stroke-miterlimit="10" d="M237.328,305.696"/>
		<path fill="#32417F" d="M221.198,355.036c0,0,1.086,3.801,0.383,8.479c-0.704,4.678-0.854,8.682,0.864,10.15
			c1.719,1.469,0.017,4.371,1.683,4.751c1.082,0.247,18.16-2.006,19.55-1.629c1.389,0.377,5.914-0.707,6.619-0.299
			c0.705,0.408,6.609-0.509,7.532-0.34s0.383-1.644,1.281-2.023c0.897-0.38,2.538-4.571,2.538-4.571l-0.079-1.75l-2.46-3.852
			l-1.293-3.472l-1.182-0.691c0,0-0.71-0.526-1.217-1.631c-0.507-1.106-0.803-2.583-1.085-3.77
			c-0.282-1.185-0.477-3.103-1.432-2.668C251.943,352.154,221.198,355.036,221.198,355.036z"/>
		<path fill="#FFCBA1" d="M206.874,328.404c0,0-1.158,16.582-0.965,17.028c0.196,0.446-0.354,3.841-1.328,8.588
			c-0.975,4.752-0.752,16.779-0.651,17.935c0.104,1.157-0.299,3.599-0.271,3.911c0.028,0.308-1.18,1.579-2.093,2.673
			c-0.913,1.091,0.075,0.845,0.075,0.845s1.206,0.441,1.996,0.599c0.793,0.162,3.497,0.001,4.381,0.308
			c0.882,0.31,6.168-0.548,6.554-0.585c0.387-0.031,1.102-0.72,1.026-1.565c-0.076-0.853-1.141-1.457-1.141-1.457l-3.37-1.175
			c0,0-0.088-1.858-0.208-2.313c-0.119-0.455,2.578-8.547,2.729-11.201c0.15-2.658,0.497-4.011,0.198-5.615
			c-0.299-1.606-0.217-5.888-0.167-6.203c0.05-0.315,0.956-5.839,1.532-7.21c0.575-1.374-0.659-10.821-0.616-11.213L206.874,328.404
			z"/>
		<path fill="#FFCBA1" d="M259.548,324.7c0,0,5.56,13.491,6.076,14.067c0.517,0.575,3.165,6.712,3.787,7.591
			c0.623,0.872,7.637,24.575,7.898,24.863c0.259,0.288,1.948,0.914,2.346,1.034c0.397,0.119,0.752,2.341,0.752,2.341l-5.55,0.5
			l-4.49,0.398c0,0-0.677,0.064-1.68,0.151c-1.001,0.089-1.569-0.17-1.749-0.448c-0.181-0.279,0.449-1.92,0.813-2.191
			c0.365-0.264,1.396-0.902,1.979-1.34s-0.04-1.32-0.234-2.62c-0.192-1.305-1.674-4.828-2.54-6.69
			c-0.866-1.857-4.152-8.181-4.227-9.025c-0.078-0.854-1.863-6.055-2.41-6.938c-0.545-0.885,0,0-0.959-1.159
			c-0.958-1.158-7.38-13.875-7.38-13.875l6.989-5.29L259.548,324.7z"/>
		<path fill="#FFFEF8" d="M262.187,325.548c0.035,0.382-1.385,1.91-2.058,2.204c-0.671,0.293-3.92,2.215-4.425,2.65
			c-0.507,0.434-2.408,2.625-2.437,3.172c-0.027,0.546-0.229,3.518-0.201,3.826c0.027,0.308,1.623,6.853,1.986,7.438
			c0.363,0.585,0.605,7.641,0.548,8.729c-0.059,1.095,0.32,8.708-1.699,8.732c-2.019,0.027-9.862,0.961-11.51,0.798
			c-1.646-0.165-10.69,2.123-11.757,2.372c-1.063,0.252-8.66-0.391-9.815-1.996c-1.155-1.605-2.836-14.235-2.841-15.166
			c-0.007-0.932-1.164-10.389-1.164-10.389s-0.667-4.837-0.983-4.887c-0.315-0.049-4.056-0.182-6.509-0.661
			c-2.452-0.479-3.846-1.287-3.846-1.287s-0.347-2.142-0.227-2.542c0.119-0.4,2.282-11.863,3.042-14.65
			c0.76-2.787,12.632-6.495,13.306-6.788c0.674-0.292,14.688-2.634,15.619-2.641c0.932-0.003,9.513,2.959,11.272,3.5
			c1.76,0.542,7.419,2.134,9.588,5.517c2.167,3.38,3.823,11.472,4.076,11.683C262.154,325.162,262.152,325.164,262.187,325.548z"/>
		<path fill="#FFCBA1" d="M237.275,305.155c0,0-0.4,1.573-1.075,2.807c-4.545,2.657-5.968,0.765-8.875,0.401
			c-2.909-0.36-2.688-3.787-2.549-4.81c0.14-1.022-0.645-10.668-0.647-12.454c-0.006-1.787,2.246-12.25,10.73-10.366
			c8.484,1.886,6.41,11.708,6.41,11.708C239.506,304.025,237.275,305.155,237.275,305.155z"/>
		<path fill="#9E5A2D" d="M228.709,303.575c0,0-4.319,0.565-5.457-4.371c-1.138-4.937-0.204-4.521-0.441-9.771
			c-0.237-5.249-5.728-6.406,2.04-8.569c7.767-2.165,13.509-4.939,14.605-1.788c1.096,3.153,2.239,4.478,1.817,5.636
			c-0.421,1.159,0.384,2.971,0.301,4.104c-0.083,1.132-1.479,4.412-1.479,4.412s-3.221,1.06-3.25,1.748
			c-0.03,0.688-1.154,2.251-1.065,3.664c0.089,1.411,1.88,1.681,0.124,2.729c-1.757,1.048-3.272,2.038-3.272,2.038L228.709,303.575z
			"/>
	</g>
</g>
<g id="Capa_3">
	<polygon id="La_mar_3_m" opacity="0.6" fill="#39BCC4" enable-background="new    " points="-271.129,428.114 1016.906,428.114 
		1018.487,831.691 -269.548,831.691 	"/>
	<path fill="#D8BD80" d="M1017.803,736.355c-60.988,11.027-98.52,8.284-142.024,8.133c-38.724-0.055-53.579-6.304-121.577-11.463
		c-42.002-1.268-74.992-1.493-119.479,0.772c-32.383,1.645-106.851,5.513-140.312,0.303
		c-84.757-16.253-224.804-13.743-297.555-2.497c-72.753,11.248-41.336-6.925-87.635-5.191c-46.296,1.711-38.856,8.654-62.005,2.582
		c-23.147-6.058-33.28-24.441-53.003-20.949c-2.234,1.335,0.425,12.077-49.105-13.887c-17.361-9.102-37.355-8.854-49.71-9.058
		c-12.277-0.2-39.638,6.28-55.346-5.836c-18.113-10.634-70.565,26.427-88.753,36.795c-18.189,10.412-27.254,4.315-27.254,4.315
		l2.818,116.287l1291.63,1.608L1017.803,736.355z"/>
</g>
<g id="Capa_8_1_">
	<path fill="none" stroke="#000000" stroke-miterlimit="10" d="M485.372,292.158"/>
	<path fill="#F7931E" d="M466.28,351.441c-0.089-0.673-1.494-4.259-0.866-4.999c0.628-0.742,2.87-2.65,3.646-3.361
		c0.777-0.71,1.868-1.453,2.178-2.135c0.313-0.684,0.137-2.156,0.562-2.134c0.427,0.02,27.389,1.13,27.608,1.218
		c0.22,0.083,3.318,2.302,3.578,3.208c0.257,0.904,1.621,2.006,1.96,2.765c0.337,0.758,1.452,3.562,2.023,5.225
		c0.574,1.662,0.796,3.383,0.847,5.618c0.05,2.234,0.1,4.501-0.239,5.363c-0.336,0.861-1.193,1.754-1.385,1.914
		c-0.195,0.16,0.896,0.28-1.059,0.158c-1.957-0.123-9.757-2.106-11.512-1.067c-1.759,1.039-4.15,1.235-5.179,0.962
		c-1.03-0.271-0.671,0.007-1.597-0.907c-0.927-0.917-1.475-2.022-1.843-2.055c-0.374-0.037-0.084-0.616-1.195,0.526
		c-1.111,1.142-0.734,1.012-1.111,1.142c-0.38,0.131-3.108,1.276-3.849,1.244c-0.744-0.032-0.143,0.043-1.111-0.048
		c-0.965-0.093-0.768,0.538-0.965-0.093c-0.197-0.628-0.251-2.939-1.221-3.724C474.588,359.474,466.28,351.441,466.28,351.441z"/>
	<path fill="#FFCBA1" d="M508.35,316.167c0.057,0.375-0.718,9.491-0.105,10.784c0.611,1.291,1.72,6.551,1.779,6.852
		c0.062,0.298,0.327,4.403,0.109,5.957c-0.217,1.552,0.173,2.835,0.434,5.378c0.259,2.54,3.195,10.187,3.103,10.628
		c-0.097,0.442-0.1,2.228-0.1,2.228l-3.181,1.273c0,0-0.995,0.625-1.032,1.447c-0.036,0.813,0.681,1.444,1.053,1.458
		c0.372,0.018,5.48,0.612,6.312,0.277c0.835-0.332,3.434-0.296,4.188-0.485c0.752-0.186,1.89-0.661,1.89-0.661
		s0.958,0.192,0.034-0.813c-0.923-1.011-2.136-2.178-2.12-2.475c0.013-0.301-0.482-2.626-0.433-3.74
		c0.048-1.114-0.259-12.661-1.401-17.177c-1.138-4.511-1.813-7.745-1.646-8.181c0.166-0.437-1.662-16.293-1.662-16.293
		L508.35,316.167z"/>
	<path fill="#FFCBA1" d="M465.495,312.638l6.933,4.772c0,0-5.609,12.479-6.478,13.631c-0.869,1.153-0.386,0.28-0.869,1.153
		c-0.486,0.872-1.975,5.939-2.011,6.761c-0.036,0.813-2.915,7.022-3.664,8.842c-0.751,1.824-2.019,5.269-2.148,6.528
		c-0.129,1.254-0.688,2.128-0.11,2.522c0.576,0.395,1.595,0.963,1.956,1.2c0.362,0.244,1.036,1.791,0.874,2.067
		c-0.16,0.274-0.693,0.548-1.657,0.504c-0.966-0.04-1.62-0.071-1.62-0.071l-4.322-0.188l-5.348-0.239c0,0,0.245-2.148,0.62-2.279
		c0.377-0.133,1.969-0.807,2.207-1.094c0.236-0.287,5.939-23.33,6.499-24.193c0.56-0.87,2.833-6.872,3.305-7.446
		c0.47-0.575,5.219-13.759,5.219-13.759L465.495,312.638z"/>
	<path fill="#FFCBA1" d="M488.712,362.976c0.008-0.2-0.887,0.095-0.14-3.831c0.748-3.931,3.922-5.869,5.779-6.928
		c1.859-1.057,5.195-2.118,6.933-0.432c1.734,1.688,3.97,2.793,4.269,4.417c0.298,1.623-0.061,3.622-0.217,4.89
		c-0.157,1.269-1.372,4.505-1.403,5.24c-0.033,0.742-14.841-0.461-14.841-0.461L488.712,362.976z"/>
	<path fill="#FFCBA1" d="M475.139,365.23c0,0,2.645-2.993,3.055-3.301c0.41-0.314,3.437-1.567,3.58-1.826
		c0.146-0.256,0.767-0.886,0.104-2.306c-0.665-1.416-1.763-4.971-2.644-5.999c-0.88-1.029-8.047-3.328-9.571-3.263
		c-1.523,0.066-1.69-0.598-3.393,0.514c-1.703,1.112-2.752,2.454-3.182,3.227c-0.434,0.775-1.455,3.042-1.552,3.7
		c-0.093,0.655,0.106,3.572-0.201,4.549c-0.307,0.979-0.181,3.809-0.181,3.809L475.139,365.23z"/>
	<path fill="#FFF599" d="M462.4,311.907c0.232-0.213,1.472-8.047,3.404-11.383c1.933-3.34,7.295-5.112,8.958-5.708
		c1.665-0.594,9.77-3.808,10.663-3.846c0.894-0.033,14.438,1.607,15.097,1.857c0.661,0.252,12.21,3.295,13.06,5.935
		c0.851,2.641,3.422,13.544,3.553,13.923c0.133,0.379-0.106,2.449-0.106,2.449s-1.304,0.834-3.635,1.4
		c-2.333,0.566-5.916,0.855-6.215,0.917c-0.302,0.062-0.731,4.731-0.731,4.731s-0.7,9.122-0.666,10.017
		c0.035,0.893,0.096,6.256-0.943,7.846c-1.039,1.59-8.297,2.536-9.328,2.34c-1.034-0.193-9.81-1.995-11.381-1.766
		c-1.575,0.227-9.139-0.329-11.076-0.268c-1.938,0.065-3.034-0.43-3.137-1.477c-0.102-1.042-0.174-7.821,0.149-8.398
		c0.321-0.578,1.569-6.925,1.584-7.222c0.013-0.297-0.31-3.139-0.359-3.661c-0.052-0.523-1.971-2.543-2.476-2.938
		c-0.502-0.396-3.702-2.098-4.359-2.351c-0.659-0.252-2.088-1.656-2.07-2.025C462.401,311.908,462.4,311.907,462.4,311.907z"/>
	<path fill="#FFCBA1" d="M481.018,279.613c0,0-2.414-9.333,5.643-11.509c8.058-2.174,10.673,7.765,10.742,9.479
		c0.076,1.712-0.259,11.001-0.082,11.975c0.179,0.977,0.789,9.114-1.986,9.586c-2.773,0.475-6.26,1.957-9.327-2.717
		c-0.701-1.155-0.606-4.79-0.606-4.79S483.211,290.649,481.018,279.613z"/>
	<path fill="#908DFF" d="M496.975,275.536c0,0,0.77-8.925-9.017-7.62c-8.207,1.099-8.807,5.612-8.106,10.865l0.3-0.04
		c-5.281,10.526,11.491,6.399,16.042-2.093l0,0L496.975,275.536z"/>
</g>
</svg>
