<?xml version="1.0" encoding="utf-8"?>
<!-- Generator: Adobe Illustrator 16.0.0, SVG Export Plug-In . SVG Version: 6.00 Build 0)  -->
<!DOCTYPE svg PUBLIC "-//W3C//DTD SVG 1.1//EN" "http://www.w3.org/Graphics/SVG/1.1/DTD/svg11.dtd">
<svg version="1.1" id="Capa_1" xmlns="http://www.w3.org/2000/svg" xmlns:xlink="http://www.w3.org/1999/xlink" x="0px" y="0px"
	 width="800px" height="800px" viewBox="0 0 800 800" enable-background="new 0 0 800 800" xml:space="preserve">
<g id="Capa_2">
	<rect x="-2.5" y="-11.5" fill="#36D4FF" stroke="#000000" stroke-miterlimit="10" width="809" height="817"/>
	
		<image display="none" overflow="visible" enable-background="new    " width="700" height="348" xlink:href="../../../Referències fotogràgiques/Mood Illustrations Numbered/4-1-1 Inflatable.jpg"  transform="matrix(1 0 0 1 66.8867 198.5)">
	</image>
	
		<image display="none" overflow="visible" enable-background="new    " width="760" height="570" xlink:href="../../../Referències fotogràgiques/Compass 165.jpg"  transform="matrix(-0.5835 0 0 0.583 628.3926 120.8511)">
	</image>
</g>
<g id="Solid">
	<g id="Capa_22_copia">
		<path fill="#36627A" d="M662.134,357.069c-1.876,3.26-4.011,24.021-0.454,28.46c3.558,4.439,14.941,9.51,16.65,9.67
			c1.709,0.16-7,47.651-7,47.651s-0.372,36.559,2.939,39.701c3.304,3.147,27.217,20.458,31.809,20.729
			c4.594,0.275,12.845,0.498,14.057-1.68c1.194-2.181-4.544-12.205-4.625-13.227c-0.201-2.468-0.789-9.335-0.426-10.834
			c0.354-1.501,2.586-13.012,3.604-15.207c1.015-2.2,20.848-0.394,23.109,0.05c2.264,0.442,2.368-2.243,2.368-2.243
			c-2.734-6.658-21-17.349-21-17.349s5.636-9.196,10.053-14.295c4.41-5.099,12.913-36.719,15.974-50.391
			c3.052-13.672-4.366-31.399-6.865-32.021C704.827,336.74,664.03,353.81,662.134,357.069z"/>
		<path fill="#6C808C" d="M720.763,473.144c2.2-2.471,7.006-4.122,10.698-3.521c3.688,0.6,3.309,0.554,4.748,4.087
			c1.438,3.532-8.332,2.176-10.646,3.074c-2.312,0.898,0.605,3.234,1.006,3.1c0.399-0.134,8.332,0.923,8.332,0.923l-0.214,8.425
			c0,0-10.36-1.811-11-0.435c-0.646,1.376,5.419,5.609,8.594,9.137c3.183,3.527-0.466,4.283-5.742,1.485
			c-5.281-2.801-8.455-11.529-8.455-11.529s-1.438-0.063-3.521-0.393c-2.083-0.326-0.942-3.665-1.034-6.327
			c-0.091-2.659,0.828-4.002,1.075-4.493c0.245-0.485,4.187,0.468,4.187,0.468S718.572,475.609,720.763,473.144z"/>
	</g>
	<g>
		<path fill="#FFFFFF" stroke="#FFFFFF" stroke-miterlimit="10" d="M540.521,413.095l164.73,0.322l-20.06,45.997
			c-9.46,0.268-237.688,8.607-312.314,5.891c-3.769-0.137-18.384,0.113-21.329,0.006c-19.161-0.696-33.852-0.058-51.601-0.857
			c-15.837,0.79-30.765,0.638-45.303,0.107c-16.976-0.617-30.89-2.896-43.812-7.169c-56.154-18.569-77.368-41.027-94.417-59.077
			c-2.695-2.854-5.239-5.548-7.803-8.094c-0.188-0.197-0.37-0.384-0.572-0.579c75.603,39.859,179.134,45.573,253.623,50.405
			c11.957,0.781,23.64,2.622,34.722,3.025c64,2.33,104.482,1.512,105.027,1.476l3.017-2.238L540.521,413.095z"/>
		<path fill="#FF0000" d="M359.345,447.197c-74.81-4.853-178.688-19.692-254.246-59.975l-1.111-1.089
			c-11.128-11.287-16.089-18.47-19.325-23.435c-1.606-2.45-2.759-4.222-4.089-5.544c-1.752-1.749-4.667-3.883-6.656-5.243
			c11.93,1.656,58.226,5.68,128.438,4.676c38.612-0.55,122.546,3.449,221.775,13.198c138.119,13.573,231.105,31.375,279.255,45.025
			l-157.448,3.203l-38.595,29.977C503.98,448.22,438.59,452.351,359.345,447.197z"/>
		<path d="M418.403,309.086l6.125-1.526l-0.257-0.504c-0.05-0.079-3.519-6.855-3.403-11.22c0.021-0.622,0.104-1.198,0.284-1.696
			c0.273-0.755,0.739-1.261,1.423-1.546c0.432-0.18,0.875-0.265,1.329-0.27c1.205-0.017,2.484,0.521,3.656,1.245
			c0.728,0.454,1.414,0.982,2.02,1.502c1.083,0.931,2.14,1.995,3.154,3.157c6.578,7.553,11.371,19.192,10.969,25.033
			c-0.008,0.226-0.041,0.438-0.07,0.648c-0.033,0.204-0.064,0.403-0.119,0.592c-0.407,1.625-1.308,2.573-2.765,2.9
			c-3.055,0.687-7.901-4.678-10.775-9.196c-0.104-0.172-0.21-0.347-0.313-0.516c-0.208-0.344-0.401-0.68-0.584-1.004
			c-0.274-0.487-0.509-0.956-0.721-1.389l-0.467-0.313c-0.165-0.003-0.438-0.007-1.32,1.291c-0.177,0.261-0.377,0.573-0.607,0.945
			c-0.458,0.75-1.032,1.749-1.75,3.081L418.403,309.086z M428.145,309.426c0.127,0.227,0.236,0.433,0.342,0.608
			c0.108,0.181,0.191,0.328,0.265,0.448c0.056,0.135,0.142,0.306,0.263,0.501c0.104,0.195,0.247,0.42,0.396,0.667
			c0.079,0.128,0.162,0.253,0.248,0.391c2.364,3.648,8.109,11.146,9.967,11.214c0.159,0.005,0.31-0.028,0.445-0.112
			c0.308-0.191,0.519-0.498,0.627-0.92c0.03-0.143,0.065-0.296,0.081-0.464c0.06-0.67-0.056-1.555-0.346-2.659
			c-0.521-1.939-1.584-4.534-2.94-7.269c-0.812-1.64-1.729-3.332-2.694-4.962l-1.931-3.66l-0.111,0.122l-0.11,0.121
			c-2.238-3.326-4.488-5.936-6.096-6.575c-0.238-0.094-0.445-0.145-0.646-0.152c-0.287-0.01-0.553,0.056-0.785,0.198
			c-0.093,0.058-0.179,0.122-0.25,0.196c-0.393,0.359-0.574,0.905-0.617,1.574C424.073,301.631,426.763,306.923,428.145,309.426z"/>
		<path fill="#3FA9F5" d="M387.185,260.831c2.536-0.857,11.238-0.614,13.847-0.519c0.379,0.014,0.679,0.026,0.896,0.034
			l3.581,24.548l1.507,0.59l1.5,0.589l16.137,34.586l0.692,9.674l-2.933,7.307l-9.218-0.091c-0.433-5.731-2.941-26.29-3.002-26.404
			c-1.794-3.395-13.518-6.983-15.748-7.565c-0.076-0.021-0.139-0.039-0.189-0.05c-0.229-0.076-0.471-0.149-0.718-0.225
			c-0.611-0.185-1.269-0.372-1.958-0.561c-0.274-0.074-0.552-0.15-0.838-0.224c-0.914-0.241-1.874-0.482-2.869-0.718
			c-0.236-0.055-0.468-0.11-0.706-0.165c-0.453-0.108-0.911-0.213-1.372-0.318c-7.261-1.649-15.639-3.326-18.027-3.743
			C374.188,283.39,385.066,261.565,387.185,260.831z"/>
		<path d="M432.545,304.865c0.336,0.501,0.661,1.013,0.986,1.537l1.667,3.17l-4.288,0.746l0.119,0.467
			c0.002,0.011,0.066,0.315,0.05,0.693c-0.011,0.227-0.056,0.479-0.165,0.705c-0.569-0.874-1.016-1.615-1.238-2.11
			c-0.408-0.698-0.824-1.457-1.233-2.235c0.065,0.057,0.138,0.109,0.223,0.128c0.029,0.007,0.059,0.016,0.106,0.018
			C429.075,308.007,429.858,307.751,432.545,304.865z"/>
		<path d="M428.143,309.426c-1.388-2.5-4.068-7.798-3.901-10.733c0.042-0.664,0.228-1.21,0.612-1.572
			c0.076-0.073,0.161-0.138,0.256-0.196c0.229-0.141,0.486-0.209,0.782-0.199c0.202,0.007,0.417,0.061,0.646,0.152
			c1.608,0.643,3.856,3.253,6.094,6.577l0.112-0.12l0.109-0.122l1.932,3.66c0.955,1.629,1.884,3.322,2.688,4.962
			c1.366,2.734,2.431,5.329,2.949,7.268c0.283,1.108,0.405,1.99,0.345,2.661c-0.014,0.164-0.041,0.322-0.079,0.462
			c-0.109,0.424-0.312,0.731-0.632,0.921c-0.124,0.082-0.282,0.118-0.441,0.112c-1.861-0.068-7.604-7.566-9.966-11.215
			c-0.088-0.136-0.172-0.265-0.249-0.39c-0.146-0.247-0.283-0.469-0.396-0.668c-0.12-0.197-0.207-0.364-0.262-0.501
			c-0.071-0.119-0.157-0.267-0.26-0.447C428.381,309.861,428.27,309.655,428.143,309.426z M435.833,310.381l-3.853,0.667
			c0.048,0.509,0.009,1.323-0.504,1.949c2.549,3.716,6.846,9.02,8.328,9.352c0.126-0.107,0.445-0.666-0.175-3.015
			C438.968,316.806,437.536,313.574,435.833,310.381z M432.566,304.864c-2.7,2.885-3.483,3.141-3.787,3.12
			c-0.051-0.002-0.077-0.012-0.105-0.018c-0.088-0.023-0.159-0.072-0.225-0.129c0.411,0.779,0.829,1.535,1.233,2.235
			c0.223,0.496,0.669,1.237,1.24,2.11c0.101-0.227,0.153-0.48,0.163-0.706c0.018-0.375-0.048-0.685-0.052-0.691l-0.114-0.464
			l4.286-0.746l-1.673-3.17C433.207,305.878,432.882,305.367,432.566,304.864z M427.63,306.238c0.486,0.074,1.065,0.279,1.357,0.756
			c0.565-0.369,1.881-1.639,3.062-2.893c-2.504-3.697-4.922-6.432-6.18-6.478c-0.11-0.004-0.214,0.018-0.284,0.066
			C424.362,298.44,425.755,302.395,427.63,306.238z"/>
		<path display="none" fill="#FFFFFF" stroke="#FFFFFF" stroke-miterlimit="10" d="M220.833,551.408l0.134-0.086l-0.091-7.924
			l4.949-3.025l21.66,0.383l0.05-0.019l8.973-3.317l0.376-18.504l16.19-3.951l34.622-0.097l1.825-3.354l29.329-1.63l0.191-2.971
			l6.101-0.62l-0.553-0.438c-0.008-0.008-0.858-0.69-0.839-1.52c0.016-0.479,0.322-0.941,0.923-1.365
			c0.444-0.314,1.753-0.688,5.434-0.688c3.381,0,7.509,0.305,10.525,0.526c1.488,0.109,2.667,0.198,3.354,0.22
			c2.057,0.062,4.341,1.614,5.585,3.024c0.766,0.867,1.17,1.718,1.116,2.314c-0.186,1.914-0.494,2.377-1.873,2.634l0.085,0.608
			l20.25-1.918l12.5-1.179l1.709,4.395h5.41l0.029-0.649c0.026-0.135,2.022-13.962,2.771-16.106
			c0.584-1.679,7.917-3.64,10.692-4.246c4.896-1.374,15.118-2.812,16.993-3.066l0.029,0.069l0.207-0.021
			c0.004,0,0.401-0.036,0.957-0.036c1.566,0,2.705,0.26,3.216,0.726c0.557,0.512,0.562,1.537,0.565,2.531
			c0.005,0.854,0.008,1.664,0.329,2.264c0.663,1.23,6.351,10.846,6.596,11.252l0.081,0.132l0.146,0.009
			c0.837,0.05,83.328,4.927,101.732,7.19c1.426,0.175,3.053,0.341,4.832,0.589c27.852,3.924,66.858,11.449,66.858,11.449
			c3.021,0.053,4.214,1,4.32,1.797c0.098,0.737-0.665,1.478-1.917,1.844c-0.039,0.02-0.874,0.447-2.023,1.125
			c-5.06,0.558-35.593,3.576-83.289,1.157c-24.672-1.251-78.054-0.758-141.685,3.163c-90.663,5.587-146.613,14.506-177.588,21.003
			l-1.358,0.285c-2.57-0.036-3.484-0.292-3.602-0.434c-0.038-0.08-0.093-0.155-0.149-0.233c-0.136-0.181-0.204-0.282-0.171-0.422
			C217.446,553.766,218.585,552.829,220.833,551.408z"/>
		<g>
			<path fill="#FFFFFF" d="M147.498,351.235c-17.965-1.045-64.062,1.094-75.127-6.745c0.852-0.142,1.81-0.925,3.003-0.903
				c0,0,61.523-10.398,105.289-14.948c2.796-0.287,5.349-0.454,7.588-0.646c28.902-2.493,158.146-5.422,159.456-5.451l0.229-0.005
				l0.135-0.202c0.406-0.621,9.844-15.329,10.951-17.216c0.537-0.919,0.588-2.183,0.644-3.52c0.062-1.554,0.129-3.157,1.028-3.925
				c0.824-0.699,2.618-1.039,5.068-0.95c0.868,0.032,1.488,0.11,1.494,0.111l0.323,0.042l0.05-0.107
				c2.916,0.506,18.817,3.334,26.392,5.761c4.308,1.107,15.659,4.591,16.477,7.247c1.046,3.397,3.361,25.641,3.395,25.853
				l-0.008,1.533l8.459,0.308l2.939-7.286l19.485,2.295l31.555,4.023l0.172-1.011c-2.143-0.48-2.598-1.254-2.777-4.256
				c-0.051-0.938,0.629-2.26,1.877-3.572c2.024-2.134,5.687-4.438,8.904-4.419c1.076,0.008,2.922-0.069,5.256-0.156
				c4.73-0.176,11.2-0.42,16.488-0.228c5.753,0.209,7.776,0.869,8.452,1.386c0.917,0.697,1.368,1.435,1.365,2.187
				c-0.015,1.296-1.385,2.316-1.396,2.326l-0.889,0.654l9.502,1.316l0.13,4.655l45.762,4.217l2.664,5.346l54.12,2.122l25.087,7.099
				l-0.465,28.95l13.839,5.697l0.078,0.032l33.885,0.634l7.565,5.012l-0.876,13.938c-60.307-14.173-184.276-35.791-305.266-46.058
				C238.274,348.669,165.463,352.281,147.498,351.235z"/>
			<path fill="#FFFFFF" d="M72.371,344.49c12.316,4.851,56.423,4.5,74.388,5.545c17.965,1.045,90.498-2.967,252.023,10.741
				c120.987,10.268,245.73,33.435,306.255,47.615l-0.002,0.043l0.333,0.146c3.435,2.35,5.225,3.881,5.35,4.688
				c0.044,0.221-0.039,0.378-0.26,0.651c-0.094,0.119-0.167,0.235-0.231,0.358c-0.189,0.214-1.626,0.562-5.646,0.473l-2.104-0.524
				c-48.058-11.92-135.018-29.047-276.441-42.942c-99.256-9.751-182.684-13.561-221.325-13.009
				c-74.707,1.067-122.916-5.206-130.794-6.364c-1.761-1.527-2.391-2.029-2.451-2.06c-1.937-0.645-3.088-1.845-2.893-2.992
				C68.73,345.934,69.845,344.912,72.371,344.49z"/>
		</g>
		<path fill="#C99B59" d="M516.257,329.83c0,0,4.788-5.208-3.552-7.272c-6.109-1.513-24.254-0.259-29.148-0.181
			c-4.896,0.079-10.596,6.83-10.222,9.975c0.319,2.685,0.75,5.628,5.297,4.326c4.549-1.301,3.989-4.747,6.54-4.947
			C487.723,331.53,514.091,330.088,516.257,329.83z"/>
	</g>
</g>
</svg>
