<?xml version="1.0" encoding="utf-8"?>
<!-- Generator: Adobe Illustrator 16.0.0, SVG Export Plug-In . SVG Version: 6.00 Build 0)  -->
<!DOCTYPE svg PUBLIC "-//W3C//DTD SVG 1.1//EN" "http://www.w3.org/Graphics/SVG/1.1/DTD/svg11.dtd">
<svg version="1.1" id="Capa_1" xmlns="http://www.w3.org/2000/svg" xmlns:xlink="http://www.w3.org/1999/xlink" x="0px" y="0px"
	 width="800px" height="800px" viewBox="0 0 800 800" enable-background="new 0 0 800 800" xml:space="preserve">
<g id="Capa_1_1_">
	<g id="_x31__metre">
		<g id="Cèl_1_">
			
				<linearGradient id="SVGID_1_" gradientUnits="userSpaceOnUse" x1="401.3379" y1="-473.0088" x2="1200.5" y2="-473.0088" gradientTransform="matrix(-4.371139e-08 -1 1 -4.371139e-08 872.5 1200.4995)">
				<stop  offset="0.0131" style="stop-color:#FFFFFF"/>
				<stop  offset="0.056" style="stop-color:#ECFBFF"/>
				<stop  offset="0.2077" style="stop-color:#AEECFF"/>
				<stop  offset="0.3582" style="stop-color:#79E0FF"/>
				<stop  offset="0.5039" style="stop-color:#4ED5FF"/>
				<stop  offset="0.6437" style="stop-color:#2CCDFF"/>
				<stop  offset="0.7762" style="stop-color:#14C8FF"/>
				<stop  offset="0.8982" style="stop-color:#05C4FF"/>
				<stop  offset="1" style="stop-color:#00C3FF"/>
			</linearGradient>
			<polygon fill="url(#SVGID_1_)" points="-1,0 799,0 799.981,799.162 -0.018,799.162 			"/>
		</g>
		<g id="Ancla_copia_1_">
			<path fill="#727272" d="M746.523,726.578c0.259-0.386-0.331-1.521-0.45-1.696c-0.085-0.112-0.213-0.146-0.366-0.134
				c-0.279,0.026-0.647,0.224-0.949,0.424c-0.47,0.229-19.111,5.894-30.25,9.271c-4.977,1.51-8.905,2.697-9.523,2.896
				c-0.904,0.283-1.456,0.668-1.646,1.127c-0.146,0.368-0.003,0.647,0.004,0.659c0.396,1.216,0.788,1.164,1.452,0.951
				c0.114-0.032,0.237-0.07,0.374-0.104c0.83-0.195,33.775-9.228,35.177-9.606c0.459-0.156,1.729-0.505,2.204-0.241
				c0.553,0.3,1.316,1.914,1.604,2.71c1.371,3.778,1.98,6.547,1.538,6.898c-0.146,0.106-0.693,0.282-2.749-0.479
				c-1.168-0.433-2.359-1.012-2.646-1.182c-0.051-0.033-5.906-3.329-7.1-3.012c-0.109,0.026-0.192,0.091-0.243,0.179
				c-0.442,0.81,0.498,2.254,1.589,3.925l0.283,0.436c0.891,1.378,2.005,2.85,2.451,3.428c-0.945-0.062-3.655-0.229-4.064-0.226
				c-0.037,0.001-0.102,0.004-0.17,0.014c-0.269,0.023-0.721,0.115-0.992,0.432c-0.175,0.2-0.243,0.454-0.204,0.753
				c0.073,0.562,0.929,1.334,1.825,2.146c0.148,0.141,0.299,0.275,0.443,0.409c-0.045,0.022-0.086,0.059-0.138,0.081
				c-1.129,0.695-2.678,1.646-2.812,2.489c-0.034,0.215,0.02,0.41,0.163,0.581c0.66,0.788,3.121,0.18,7.729-1.91
				c3.444-1.562,8.271-4.577,8.316-4.604c1.042-0.649,2.526-2.446,2.413-4.234c-0.115-1.703-3.003-11.303-3.312-12.34
				C746.489,726.601,746.503,726.588,746.523,726.578z"/>
			<g>
				<path fill="#727272" d="M705.795,738.835c0.061-0.111,0.074-0.241,0.04-0.365c-0.068-0.252-0.333-0.398-0.599-0.327
					c-0.124,0.037-0.229,0.12-0.287,0.231c-0.062,0.112-0.072,0.243-0.039,0.367c0.062,0.221,0.284,0.364,0.513,0.343
					c0.028-0.004,0.062-0.008,0.091-0.017C705.636,739.031,705.739,738.948,705.795,738.835z"/>
				<path fill="#727272" d="M749.518,738.966c-0.103-1.598-2.83-10.707-3.266-12.146c-0.158,0.097-0.338,0.151-0.51,0.15
					c-0.207,0.005-0.379-0.08-0.484-0.229c-0.145-0.209-0.312-0.56-0.43-0.817l-0.023,0.066l-36.352,10.582
					c-1.815,0.554-3.052,0.93-3.377,1.028c-1.006,0.318-1.351,0.693-1.457,0.949c-0.104,0.241-0.021,0.416-0.006,0.446
					c0.336,1.021,0.544,0.96,1.102,0.785c0.118-0.035,0.243-0.075,0.387-0.111c0.193-0.043,2.146-0.569,5.037-1.358
					c0.461-1.025,1.727-1.385,1.778-1.396c1.174-0.364,28.808-8.924,31.536-7.783c0.722,0.3,1.474,2.431,1.555,2.668
					c0.072,0.202,1.86,4.962,2.117,6.795c0.374,2.676-2.838,4.404-4.114,4.831c-1.084,0.363-5.235,0.014-5.409,0.03l-0.004,0.001
					c-0.143,0.014-3.896-0.317-4.365-0.311c-0.324,0.015-0.748,0.03-0.953,0.278c-0.119,0.138-0.166,0.312-0.143,0.525
					c0.062,0.455,0.947,1.26,1.731,1.97c0.521,0.479,1.022,0.933,1.335,1.315c0.403,0.508,0.545,0.843,0.443,1.059
					c-0.062,0.132-0.195,0.178-0.269,0.174v-0.297c0.001,0,0.07-0.146-0.408-0.749c-0.152-0.206-0.38-0.427-0.635-0.669
					c-0.067,0.042-0.134,0.083-0.208,0.128c-0.956,0.592-2.559,1.575-2.672,2.287c-0.024,0.129,0.014,0.244,0.096,0.348
					c0.376,0.445,1.967,0.463,7.386-1.992c2.118-0.963,4.771-2.476,6.493-3.494c-3.054,0.471-9.444-0.039-11.697-0.222
					c-0.425-0.03-0.755-0.06-0.805-0.059l-0.014-0.146l-0.04-0.144c0.005-0.003,0.009-0.003,0.026-0.005
					c0.049-0.005,0.182,0.009,0.851,0.059c2.486,0.202,10.042,0.808,12.463,0.043c0.613-0.375,0.995-0.611,1.012-0.621
					C748.075,742.41,749.613,740.702,749.518,738.966z M706.057,738.975c-0.099,0.187-0.263,0.313-0.461,0.373
					c-0.417,0.123-0.844-0.122-0.962-0.522c-0.058-0.198-0.03-0.407,0.063-0.589c0.099-0.185,0.262-0.314,0.461-0.371
					c0.043-0.018,0.097-0.022,0.145-0.027c0.368-0.037,0.712,0.194,0.818,0.551C706.178,738.583,706.156,738.794,706.057,738.975z"
					/>
				<path fill="#727272" d="M710.52,738.2c9.817-2.676,29.479-8.062,29.736-8.132c0.172-0.062,1.747-0.594,2.428-0.221
					c0.711,0.393,1.518,2.243,1.739,2.87c0.883,2.436,2.244,6.604,1.442,7.229c-0.981,0.756-5.387-1.434-5.727-1.641
					c-0.66-0.401-5.923-3.237-6.869-2.979c-0.021,0.004-0.055,0.011-0.062,0.029c-0.359,0.656,0.581,2.104,1.576,3.632l0.284,0.436
					c1.025,1.59,2.354,3.299,2.602,3.608c0.527,0.047,4.278,0.37,5.229,0.047c1.128-0.375,4.271-2.019,3.927-4.479
					c-0.257-1.806-2.08-6.666-2.104-6.724c-0.214-0.613-0.887-2.269-1.393-2.479c-2.637-1.106-31.054,7.701-31.345,7.795
					C711.976,737.196,711.003,737.476,710.52,738.2z"/>
				<path fill="#727272" d="M744.568,725.743l0.106-0.247c-0.977,0.338-5.122,1.616-12.174,3.769L744.568,725.743z"/>
				<path fill="#727272" d="M746.266,726.411c0.115-0.173-0.238-1.072-0.443-1.365c-0.034-0.055-0.352-0.002-0.907,0.361
					l0.039,0.099c0.003,0.011,0.31,0.75,0.532,1.068c0.049,0.07,0.136,0.104,0.236,0.104
					C745.941,726.681,746.182,726.538,746.266,726.411z"/>
				<path fill="#727272" d="M746.512,726.575c0.263-0.385-0.328-1.521-0.444-1.695c-0.084-0.113-0.218-0.146-0.37-0.134
					c-0.274,0.026-0.646,0.224-0.946,0.424c-0.469,0.229-19.114,5.891-30.248,9.266c-4.979,1.514-8.907,2.702-9.53,2.898
					c-0.898,0.284-1.455,0.668-1.644,1.128c-0.149,0.366-0.003,0.649,0.003,0.66c0.394,1.215,0.788,1.161,1.454,0.949
					c0.112-0.03,0.233-0.069,0.371-0.104c0.833-0.195,33.773-9.226,35.179-9.605c0.459-0.158,1.729-0.51,2.204-0.24
					c0.553,0.299,1.312,1.914,1.604,2.707c1.372,3.784,1.985,6.55,1.539,6.9c-0.144,0.109-0.688,0.285-2.749-0.478
					c-1.17-0.432-2.355-1.011-2.644-1.18c-0.051-0.035-5.902-3.328-7.103-3.016c-0.105,0.026-0.188,0.097-0.238,0.182
					c-0.444,0.811,0.498,2.256,1.589,3.928l0.282,0.438c0.892,1.384,2.005,2.854,2.449,3.435c0.182,0.012,0.304,0.036,0.325,0.039
					l-0.015,0.318c0,0,0.001,0.064-0.002,0.065l0.003-0.001c0.173-0.018,4.332,0.333,5.41-0.03c1.269-0.422,4.479-2.188,4.107-4.859
					c-0.257-1.832-2.038-6.572-2.11-6.775c-0.082-0.237-0.831-2.36-1.56-2.664c-2.729-1.136-30.361,7.426-31.535,7.792
					c-0.052,0.015-1.312,0.373-1.773,1.401c-2.896,0.789-4.852,1.315-5.038,1.357c-0.139,0.033-0.271,0.077-0.389,0.109
					c-0.562,0.176-0.771,0.24-1.104-0.782c-0.014-0.03-0.097-0.205,0.005-0.446c0.113-0.258,0.454-0.631,1.459-0.945
					c0.325-0.104,1.562-0.479,3.379-1.032L744.784,726l0.021-0.065c0.119,0.262,0.287,0.605,0.436,0.816
					c0.104,0.148,0.271,0.229,0.479,0.227c0.169-0.001,0.354-0.061,0.509-0.148c-0.028-0.118-0.059-0.19-0.062-0.2l0.28-0.085
					c0.006,0.016,0.012,0.042,0.026,0.075C746.489,726.601,746.503,726.588,746.512,726.575z M710.509,738.21
					c0.487-0.728,1.456-1.01,1.472-1.013c0.291-0.085,28.707-8.899,31.347-7.798c0.511,0.212,1.18,1.863,1.393,2.482
					c0.022,0.061,1.854,4.921,2.104,6.728c0.341,2.462-2.798,4.097-3.928,4.476c-0.945,0.319-4.699,0-5.231-0.045
					c-0.242-0.31-1.566-2.021-2.597-3.609l-0.284-0.436c-0.995-1.53-1.938-2.973-1.576-3.632c0.008-0.017,0.04-0.024,0.059-0.028
					c0.953-0.263,6.218,2.573,6.876,2.979c0.336,0.209,4.74,2.39,5.724,1.639c0.805-0.622-0.561-4.795-1.44-7.228
					c-0.227-0.625-1.028-2.479-1.74-2.867c-0.677-0.375-2.25,0.152-2.429,0.217C739.995,730.141,720.331,735.53,710.509,738.21z
					 M744.684,725.502l-0.106,0.247l-12.068,3.516C739.562,727.111,743.707,725.834,744.684,725.502z M746.271,726.41
					c-0.084,0.128-0.322,0.269-0.551,0.27c-0.105,0.001-0.188-0.033-0.236-0.104c-0.229-0.317-0.529-1.061-0.532-1.068l-0.039-0.099
					c0.555-0.358,0.873-0.416,0.911-0.362C746.023,725.335,746.384,726.237,746.271,726.41z"/>
				<path fill="#727272" d="M734.334,746.755c-0.068-0.073-0.146-0.142-0.223-0.207c-0.047,0.023-0.088,0.061-0.143,0.082
					c-1.128,0.695-2.673,1.646-2.809,2.487c-0.033,0.216,0.017,0.413,0.165,0.583c0.661,0.788,3.116,0.18,7.729-1.909
					c3.447-1.562,8.271-4.576,8.318-4.606c1.04-0.646,2.524-2.443,2.413-4.23c-0.113-1.7-3.006-11.305-3.32-12.34
					c-0.062,0.086-0.145,0.15-0.243,0.211c0.438,1.44,3.163,10.551,3.271,12.147c0.106,1.73-1.43,3.441-2.277,3.972
					c-0.008,0.008-0.394,0.249-1.011,0.623c0.007,0,0.016-0.011,0.021-0.011l0.093,0.275c-0.247,0.08-0.549,0.141-0.892,0.195
					c-1.729,1.021-4.375,2.533-6.496,3.498c-5.417,2.455-7.006,2.438-7.383,1.983c-0.089-0.103-0.116-0.216-0.096-0.346
					c0.112-0.715,1.714-1.702,2.673-2.285C734.201,746.835,734.267,746.795,734.334,746.755z"/>
				<path fill="#727272" d="M746.479,726.61c-0.011-0.031-0.019-0.062-0.021-0.075l-0.279,0.086
					c0.002,0.008,0.028,0.082,0.062,0.199C746.332,726.764,746.416,726.693,746.479,726.61z"/>
				<path fill="#727272" d="M737.472,743.27c-0.003,0.005-0.078-0.093-0.195-0.25c-0.947-0.062-3.656-0.229-4.068-0.223
					c-0.035,0.001-0.1,0.004-0.17,0.011c-0.269,0.025-0.718,0.117-0.988,0.437c-0.176,0.197-0.245,0.451-0.205,0.753
					c0.068,0.562,0.925,1.332,1.825,2.146c0.148,0.138,0.299,0.274,0.442,0.408c0.077-0.045,0.147-0.09,0.215-0.132l0.156,0.248
					c-0.044,0.027-0.101,0.063-0.146,0.091c0.253,0.241,0.468,0.464,0.633,0.669c0.479,0.602,0.408,0.748,0.408,0.748l0.001,0.297
					c0.067,0.001,0.201-0.04,0.269-0.172c0.101-0.216-0.04-0.552-0.443-1.06c-0.307-0.385-0.812-0.835-1.336-1.315
					c-0.783-0.71-1.667-1.515-1.73-1.969c-0.021-0.216,0.019-0.389,0.143-0.526c0.209-0.248,0.627-0.334,0.942-0.342
					c0.471-0.009,4.218,0.23,4.361,0.241l-0.062-0.011L737.472,743.27z"/>
				<path fill="#727272" d="M737.597,743.029c-0.021,0-0.141-0.016-0.32-0.021c0.128,0.157,0.193,0.25,0.195,0.254l0.039,0.054
					l0.064,0.01c0.002,0.001,0.006,0,0.007,0L737.597,743.029z"/>
				<path fill="#727272" d="M734.329,746.416c-0.069,0.04-0.146,0.087-0.215,0.127c0.075,0.071,0.147,0.141,0.22,0.209
					c0.048-0.028,0.101-0.062,0.146-0.09L734.329,746.416z"/>
				<path fill="#727272" d="M745.427,744.032c0.289-0.177,0.561-0.333,0.784-0.47c-2.42,0.755-9.975,0.151-12.461-0.049
					c-0.671-0.056-0.803-0.062-0.852-0.059c-0.016,0.002-0.021,0.005-0.026,0.008l0.04,0.139l0.013,0.146
					c0.049-0.001,0.382,0.029,0.802,0.059C735.98,743.989,742.374,744.499,745.427,744.032z"/>
				<path fill="#727272" d="M746.221,743.558c-0.229,0.145-0.497,0.295-0.788,0.474c0.339-0.053,0.646-0.111,0.893-0.194l-0.09-0.28
					C746.226,743.556,746.22,743.558,746.221,743.558z"/>
				<path fill="#727272" d="M706.057,738.977c0.104-0.183,0.121-0.392,0.064-0.592c-0.108-0.354-0.45-0.588-0.818-0.551
					c-0.048,0.005-0.098,0.013-0.145,0.027c-0.198,0.059-0.362,0.188-0.461,0.371c-0.103,0.183-0.122,0.391-0.063,0.589
					c0.118,0.4,0.545,0.646,0.962,0.522C705.794,739.288,705.958,739.157,706.057,738.977z M705.804,738.835
					c-0.062,0.111-0.164,0.193-0.287,0.229c-0.025,0.011-0.062,0.016-0.09,0.019c-0.229,0.022-0.448-0.12-0.514-0.344
					c-0.036-0.124-0.022-0.253,0.039-0.367c0.062-0.112,0.163-0.194,0.292-0.231c0.258-0.071,0.521,0.077,0.596,0.327
					C705.876,738.592,705.86,738.723,705.804,738.835z"/>
			</g>
		</g>
		<g id="Cadena_copia_3_2_">
			<path fill="#727272" d="M616.163,733.904c-0.07,2.33,3.388,1.938,3.415,0.453C619.615,732.412,616.204,732.594,616.163,733.904z"
				/>
			<path fill="#727272" d="M611.58,733.086c-0.07,2.33,3.388,1.939,3.415,0.453C615.032,731.596,611.621,731.775,611.58,733.086z"/>
			<path fill="#727272" d="M620.697,734.58c-0.07,2.33,3.388,1.936,3.414,0.453C624.146,733.09,620.737,733.27,620.697,734.58z"/>
			<path fill="#727272" d="M618.692,734.133c-0.766,0.842,2.646,1.297,3.111,0.754C622.424,734.18,619.118,733.66,618.692,734.133z"
				/>
			<path fill="#727272" d="M614.067,733.289c-0.766,0.842,2.646,1.295,3.111,0.754C617.799,733.334,614.493,732.814,614.067,733.289
				z"/>
			<path fill="#727272" d="M609.517,732.809c-0.762,0.846,2.647,1.295,3.115,0.758C613.248,732.854,609.942,732.334,609.517,732.809
				z"/>
			<path fill="#727272" d="M639.938,735.303c-0.062,2.332,3.396,1.939,3.413,0.455C643.388,733.814,639.977,733.994,639.938,735.303
				z"/>
			<path fill="#727272" d="M635.258,734.857c-0.07,2.321,3.389,1.938,3.414,0.446C638.709,733.369,635.298,733.547,635.258,734.857z
				"/>
			<path fill="#727272" d="M630.58,734.414c-0.07,2.328,3.386,1.938,3.413,0.453C634.031,732.924,630.619,733.102,630.58,734.414z"
				/>
			<path fill="#727272" d="M625.371,734.207c-0.07,2.33,3.387,1.938,3.415,0.453C628.821,732.717,625.41,732.896,625.371,734.207z"
				/>
			<path fill="#727272" d="M623.376,734.041c-0.631,0.945,2.81,0.904,3.195,0.305C627.075,733.559,623.73,733.514,623.376,734.041z"
				/>
			<path fill="#727272" d="M628.055,734.486c-0.632,0.938,2.812,0.896,3.195,0.307C631.754,734.006,628.408,733.961,628.055,734.486
				z"/>
			<path fill="#727272" d="M632.879,734.549c-0.632,0.941,2.812,0.904,3.193,0.303C636.579,734.064,633.233,734.021,632.879,734.549
				z"/>
			<path fill="#727272" d="M637.984,734.914c-0.768,0.844,2.646,1.295,3.109,0.758C641.716,734.963,638.411,734.441,637.984,734.914
				z"/>
			<path fill="#727272" d="M643.049,735.506c-0.759,0.844,2.652,1.295,3.118,0.754C646.778,735.555,643.476,735.033,643.049,735.506
				z"/>
			<path fill="#727272" d="M654.997,736.721c-0.069,2.332,3.387,1.939,3.415,0.453C658.448,735.232,655.037,735.41,654.997,736.721z
				"/>
			<path fill="#727272" d="M659.531,737.553c-0.071,2.33,3.387,1.938,3.413,0.453C662.979,736.064,659.568,736.242,659.531,737.553z
				"/>
			<path fill="#727272" d="M650.319,736.275c-0.07,2.33,3.387,1.938,3.414,0.444C653.77,734.785,650.358,734.965,650.319,736.275z"
				/>
			<path fill="#727272" d="M645.642,735.828c-0.062,2.334,3.396,1.938,3.413,0.457C649.092,734.342,645.68,734.521,645.642,735.828z
				"/>
			<path fill="#727272" d="M647.94,735.967c-0.642,0.941,2.809,0.902,3.188,0.303C651.639,735.482,648.293,735.438,647.94,735.967z"
				/>
			<path fill="#727272" d="M653.046,736.332c-0.76,0.844,2.653,1.295,3.118,0.758C656.776,736.381,653.473,735.857,653.046,736.332z
				"/>
			<path fill="#727272" d="M658.11,736.924c-0.769,0.842,2.646,1.295,3.109,0.754C661.841,736.973,658.536,736.449,658.11,736.924z"
				/>
			<path fill="#727272" d="M678.771,739.275c-0.07,2.332,3.386,1.938,3.405,0.444C682.222,737.785,678.81,737.967,678.771,739.275z"
				/>
			<path fill="#727272" d="M684.454,739.906c-0.07,2.332,3.387,1.938,3.414,0.453C687.904,738.416,684.493,738.598,684.454,739.906z
				"/>
			<path fill="#727272" d="M674.092,738.832c-0.07,2.33,3.387,1.938,3.414,0.453C677.542,737.342,674.132,737.521,674.092,738.832z"
				/>
			<path fill="#727272" d="M669.413,738.385c-0.07,2.332,3.388,1.939,3.414,0.455C672.864,736.896,669.453,737.074,669.413,738.385z
				"/>
			<path fill="#727272" d="M664.204,738.182c-0.07,2.328,3.387,1.938,3.415,0.453C667.654,736.689,664.242,736.869,664.204,738.182z
				"/>
			<path fill="#727272" d="M662.21,738.014c-0.632,0.945,2.81,0.906,3.194,0.312C665.909,737.531,662.564,737.488,662.21,738.014z"
				/>
			<path fill="#727272" d="M666.888,738.461c-0.631,0.941,2.812,0.902,3.194,0.305C670.588,737.979,667.242,737.932,666.888,738.461
				z"/>
			<path fill="#727272" d="M671.711,738.521c-0.631,0.938,2.811,0.896,3.194,0.305C675.411,738.037,672.065,737.992,671.711,738.521
				z"/>
			<path fill="#727272" d="M676.818,738.889c-0.769,0.853,2.646,1.295,3.108,0.756C680.55,738.938,677.244,738.414,676.818,738.889z
				"/>
			<path fill="#727272" d="M681.882,739.48c-0.759,0.844,2.652,1.297,3.119,0.756C685.613,739.525,682.308,739.004,681.882,739.48z"
				/>
			<path fill="#727272" d="M687.415,740.043c-0.758,0.842,2.653,1.295,3.119,0.754C691.146,740.092,687.842,739.568,687.415,740.043
				z"/>
			<path fill="#727272" d="M703.004,739.789c-0.712-2.221-3.839-0.695-3.369,0.713C700.249,742.348,703.403,741.037,703.004,739.789
				z"/>
			<path fill="#727272" d="M698.439,740.822c-0.497-2.279-3.762-1.062-3.43,0.389C695.457,743.105,698.723,742.102,698.439,740.822z
				"/>
			<path fill="#727272" d="M693.363,741.422c0.22-2.32-3.255-2.152-3.378-0.674C689.823,742.686,693.24,742.727,693.363,741.422z"/>
			<path fill="#727272" d="M704.802,738.832c0.152-1.123-2.921,0.426-3.002,1.133C701.691,740.895,704.716,739.465,704.802,738.832z
				"/>
			<path fill="#727272" d="M700.404,740.588c0.377-1.07-2.946-0.174-3.17,0.504C696.942,741.98,700.194,741.189,700.404,740.588z"/>
			<path fill="#727272" d="M695.702,741.391c0.692-0.896-2.743-1.09-3.168-0.516C691.979,741.625,695.312,741.896,695.702,741.391z"
				/>
		</g>
		<g id="Cadena_copia_1_">
			<path fill="#727272" d="M580.864,723.629c1.247-1.973-1.938-3.393-2.706-2.129C577.137,723.154,580.164,724.734,580.864,723.629z
				"/>
			<path fill="#727272" d="M576.766,720.596c1.615-1.68-1.213-3.709-2.229-2.625C573.205,719.387,575.856,721.541,576.766,720.596z"
				/>
			<path fill="#727272" d="M573.404,716.543c1.604-1.693-1.24-3.697-2.248-2.607C569.838,715.363,572.506,717.496,573.404,716.543z"
				/>
			<path fill="#727272" d="M570.051,712.686c2.041-1.125-0.055-3.896-1.346-3.17C567.012,710.473,568.902,713.318,570.051,712.686z"
				/>
			<path fill="#727272" d="M567.646,709.064c2.227-0.689,0.729-3.832-0.685-3.386C565.119,706.281,566.393,709.451,567.646,709.064z
				"/>
			<path fill="#727272" d="M566.051,704.934c2.205-0.758,0.617-3.854-0.781-3.354C563.438,702.232,564.812,705.359,566.051,704.934z
				"/>
			<path fill="#727272" d="M558.633,682.264c2.205-0.756,0.615-3.854-0.781-3.354C556.02,679.562,557.393,682.689,558.633,682.264z"
				/>
			<path fill="#727272" d="M557.809,677.73c2.205-0.765,0.615-3.854-0.772-3.354C555.195,675.029,556.568,678.156,557.809,677.73z"
				/>
			<path fill="#727272" d="M559.869,686.799c2.205-0.758,0.615-3.854-0.781-3.354C557.256,684.098,558.629,687.225,559.869,686.799z
				"/>
			<path fill="#727272" d="M561.105,691.332c2.196-0.758,0.606-3.855-0.781-3.355C558.492,688.631,559.865,691.758,561.105,691.332z
				"/>
			<path fill="#727272" d="M562.754,696.277c2.205-0.765,0.617-3.854-0.781-3.354C560.141,693.576,561.514,696.705,562.754,696.277z
				"/>
			<path fill="#727272" d="M563.99,700.812c2.205-0.765,0.617-3.854-0.781-3.354C561.377,698.111,562.75,701.238,563.99,700.812z"/>
			<path fill="#727272" d="M578.357,721.83c1.093-0.297-1.532-2.523-2.225-2.322C575.244,719.773,577.742,721.998,578.357,721.83z"
				/>
			<path fill="#727272" d="M583.262,724.887c1.022-0.492-1.968-2.19-2.603-1.875C579.824,723.436,582.69,725.164,583.262,724.887z"
				/>
			<path fill="#727272" d="M590.134,728.596c0.791-2.188-2.617-2.895-3.103-1.492C586.392,728.939,589.689,729.828,590.134,728.596z
				"/>
			<path fill="#727272" d="M585.477,726.521c1.222-1.988-1.979-3.357-2.735-2.08C581.738,726.113,584.793,727.643,585.477,726.521z"
				/>
			<path fill="#727272" d="M587.297,727.383c1.003-0.521-2.042-2.133-2.665-1.787C583.812,726.047,586.732,727.68,587.297,727.383z"
				/>
			<path fill="#727272" d="M592.747,729.307c0.892-0.703-2.397-1.723-2.946-1.268C589.077,728.633,592.249,729.701,592.747,729.307z
				"/>
			<path fill="#727272" d="M600.176,731.674c0.369-2.305-3.104-2.354-3.326-0.889C596.562,732.707,599.969,732.967,600.176,731.674z
				"/>
			<path fill="#727272" d="M595.214,730.504c0.821-2.182-2.577-2.93-3.083-1.535C591.465,730.797,594.751,731.73,595.214,730.504z"
				/>
			<path fill="#727272" d="M597.163,731.01c0.887-0.703-2.403-1.715-2.951-1.26C593.49,730.348,596.663,731.406,597.163,731.01z"/>
			<path fill="#727272" d="M602.876,731.885c0.745-0.854-2.676-1.244-3.131-0.688C599.145,731.908,602.46,732.365,602.876,731.885z"
				/>
			<path fill="#727272" d="M574.828,718.689c1.12-0.187-1.249-2.685-1.951-2.56C571.957,716.305,574.199,718.789,574.828,718.689z"
				/>
			<path fill="#727272" d="M571.393,714.602c1.142,0.066-0.645-2.881-1.354-2.899C569.102,711.656,570.758,714.564,571.393,714.602z
				"/>
			<path fill="#727272" d="M568.92,710.891c1.131,0.068-0.645-2.881-1.357-2.899C566.629,707.945,568.283,710.855,568.92,710.891z"
				/>
			<path fill="#727272" d="M567.016,706.857c1.104,0.258-0.146-2.947-0.846-3.104C565.256,703.568,566.395,706.713,567.016,706.857z
				"/>
			<path fill="#727272" d="M564.955,702.736c1.104,0.258-0.148-2.949-0.848-3.104C563.193,699.445,564.334,702.592,564.955,702.736z
				"/>
			<path fill="#727272" d="M563.305,698.201c1.105,0.258-0.146-2.947-0.844-3.094C561.545,694.912,562.686,698.057,563.305,698.201z
				"/>
			<path fill="#727272" d="M562.068,693.668c1.104,0.258-0.146-2.947-0.854-3.096C560.309,690.379,561.449,693.523,562.068,693.668z
				"/>
			<path fill="#727272" d="M560.42,689.135c1.105,0.256-0.148-2.949-0.846-3.096C558.66,685.846,559.801,688.99,560.42,689.135z"/>
			<path fill="#727272" d="M558.959,684.229c1.057,0.412,0.273-2.938-0.395-3.186C557.686,680.721,558.365,683.996,558.959,684.229z
				"/>
			<path fill="#727272" d="M557.723,679.281c1.062,0.414,0.273-2.939-0.396-3.188C556.449,675.773,557.129,679.051,557.723,679.281z
				"/>
			<path fill="#727272" d="M554.127,659.061c2.273-0.518,1.027-3.766-0.414-3.42C551.82,656.092,552.848,659.35,554.127,659.061z"/>
			<path fill="#727272" d="M553.815,655.207c1.545-1.746-1.364-3.654-2.334-2.53C550.21,654.146,552.947,656.19,553.815,655.207z"/>
			<path fill="#727272" d="M554.867,663.699c2.271-0.521,1.021-3.771-0.416-3.418C552.561,660.732,553.588,663.99,554.867,663.699z"
				/>
			<path fill="#727272" d="M555.607,668.34c2.271-0.514,1.021-3.762-0.416-3.418C553.301,665.373,554.328,668.631,555.607,668.34z"
				/>
			<path fill="#727272" d="M556.711,673.436c2.273-0.514,1.029-3.762-0.416-3.418C554.406,670.469,555.434,673.727,556.711,673.436z
				"/>
			<path fill="#727272" d="M557.051,675.408c1.07,0.375,0.172-2.947-0.506-3.17C555.656,671.947,556.451,675.197,557.051,675.408z"
				/>
			<path fill="#727272" d="M556.312,670.768c1.062,0.375,0.17-2.938-0.517-3.17C554.918,667.307,555.711,670.557,556.312,670.768z"
				/>
			<path fill="#727272" d="M555.162,666.082c1.07,0.375,0.172-2.945-0.506-3.168C553.768,662.621,554.561,665.871,555.162,666.082z"
				/>
			<path fill="#727272" d="M554.24,661.047c1.006,0.523,0.588-2.893-0.051-3.209C553.352,657.422,553.674,660.752,554.24,661.047z"
				/>
			<path fill="#727272" d="M553.71,656.858c1.093,0.306-0.021-2.956-0.711-3.134C552.094,653.495,553.097,656.688,553.71,656.858z"
				/>
			<path fill="#727272" d="M550.493,653.854c0.198-2.321-3.271-2.127-3.383-0.646C546.964,655.145,550.379,655.157,550.493,653.854z
				"/>
			<path fill="#727272" d="M548.124,653.232c0.473-1.03-2.917-0.449-3.203,0.198C544.546,654.295,547.856,653.812,548.124,653.232z"
				/>
			<path fill="#727272" d="M552.116,653.789c0.812-0.79-2.562-1.472-3.062-0.968C548.396,653.488,551.657,654.233,552.116,653.789z"
				/>
			<path fill="#727272" d="M602.346,731.604c-0.062,2.33,3.396,1.938,3.415,0.453C605.798,730.111,602.387,730.293,602.346,731.604z
				"/>
			<path fill="#727272" d="M607.04,732.432c-0.07,2.33,3.388,1.938,3.415,0.453C610.492,730.939,607.081,731.121,607.04,732.432z"/>
			<path fill="#727272" d="M605.09,732.043c-0.76,0.844,2.651,1.295,3.118,0.756C608.819,732.092,605.516,731.568,605.09,732.043z"
				/>
		</g>
		<g id="Barco_Petit_copia_1_">
			<g id="Capa_22_copia_2_1_">
				<path fill="#36627A" d="M242.835,644.146c-1.159,0.24-4.863,8.265-3.69,14.597c1.174,6.331,4.551,20.999,6.495,23.415
					c1.944,2.416,4.38,6.732,4.38,6.732s-8.574,4.604-9.94,7.619c0,0,0.003,1.236,1.05,1.07s10.189-0.664,10.618,0.359
					c0.43,1.024,1.264,6.354,1.403,7.048c0.139,0.691-0.246,3.843-0.377,4.974c-0.054,0.467-2.86,4.979-2.345,5.998
					c0.517,1.021,4.314,1.057,6.43,1.008c2.114-0.049,13.385-7.604,14.959-8.992c1.574-1.388,2.011-18.188,2.011-18.188
					s-3.206-21.966-2.419-22.011c0.788-0.044,6.107-2.188,7.813-4.164c1.708-1.979,1.074-11.556,0.264-13.082
					C278.674,649.003,260.217,640.479,242.835,644.146z"/>
				<path fill="#6C808C" d="M251.457,704.748c0,0,1.826-0.372,1.931-0.146c0.105,0.229,0.505,0.861,0.419,2.082
					c-0.087,1.225,0.381,2.775-0.581,2.895s-1.624,0.119-1.624,0.119s-1.605,3.957-4.077,5.152
					c-2.472,1.197-4.135,0.789-2.617-0.775c1.518-1.563,4.374-3.41,4.101-4.057c-0.273-0.643-5.061,0.018-5.061,0.018l0.043-3.873
					c0,0,3.661-0.354,3.843-0.28c0.182,0.063,1.562-0.955,0.514-1.408c-1.048-0.448-5.559,0.011-4.839-1.59
					c0.72-1.603,0.545-1.584,2.25-1.802c1.706-0.215,3.886,0.625,4.854,1.799C251.582,704.048,251.457,704.748,251.457,704.748z"/>
			</g>
			<g>
				<path fill="#FF0000" d="M349.218,694.759l-17.229-14.418l-72.279-4.104c22.56-4.643,65.304-11.432,128.988-15.354
					c45.75-2.814,84.083-3.113,101.812-2.216c32.24,1.637,53.928-0.237,59.438-0.801c-0.938,0.594-2.312,1.521-3.146,2.297
					c-0.632,0.588-1.188,1.383-1.97,2.479c-1.571,2.229-3.973,5.443-9.271,10.443l-0.528,0.479
					c-35.388,17.242-83.354,22.322-117.808,23.305C380.729,697.909,350.759,694.919,349.218,694.759z"/>
				<path d="M389.589,637.036c-0.311-0.624-0.557-1.092-0.753-1.441c-0.102-0.175-0.188-0.317-0.266-0.44
					c-0.383-0.609-0.513-0.611-0.586-0.615l-0.223,0.139c-0.104,0.193-0.218,0.406-0.354,0.626c-0.089,0.146-0.188,0.297-0.282,0.45
					c-0.054,0.074-0.104,0.152-0.154,0.23c-1.396,2.023-3.712,4.407-5.104,4.045c-0.664-0.18-1.062-0.625-1.222-1.383
					c-0.021-0.088-0.033-0.18-0.047-0.271c-0.012-0.098-0.021-0.193-0.021-0.301c-0.088-2.688,2.309-7.956,5.459-11.312
					c0.483-0.521,0.986-0.984,1.502-1.396c0.284-0.229,0.608-0.459,0.951-0.656c0.553-0.312,1.146-0.536,1.7-0.51
					c0.208,0.01,0.412,0.059,0.604,0.146c0.312,0.146,0.518,0.383,0.627,0.73c0.073,0.229,0.104,0.498,0.104,0.784
					c-0.021,2.007-1.729,5.062-1.751,5.097l-0.128,0.229l2.79,0.807L389.589,637.036z M389.932,627.109
					c-0.007-0.312-0.084-0.562-0.255-0.73c-0.034-0.035-0.068-0.062-0.109-0.098c-0.104-0.065-0.229-0.104-0.357-0.104
					c-0.093,0-0.188,0.021-0.3,0.062c-0.749,0.271-1.826,1.433-2.91,2.92l-0.048-0.062l-0.049-0.058l-0.948,1.646
					c-0.471,0.733-0.921,1.496-1.317,2.235c-0.673,1.23-1.205,2.406-1.477,3.29c-0.147,0.502-0.22,0.905-0.204,1.216
					c0.005,0.077,0.018,0.146,0.029,0.215c0.044,0.195,0.136,0.344,0.271,0.438c0.062,0.038,0.131,0.061,0.205,0.061
					c0.854,0,3.617-3.349,4.765-4.981c0.042-0.062,0.083-0.119,0.121-0.179c0.072-0.108,0.145-0.213,0.192-0.301
					c0.059-0.088,0.103-0.165,0.131-0.228c0.032-0.06,0.074-0.119,0.126-0.201c0.052-0.078,0.104-0.172,0.167-0.273
					C388.639,630.849,389.964,628.461,389.932,627.109z"/>
				<path fill="#3FA9F5" d="M415.796,628.047c-1.104,0.149-4.983,0.779-8.346,1.418c-0.214,0.04-0.426,0.081-0.636,0.123
					c-0.109,0.021-0.222,0.043-0.327,0.062c-0.461,0.092-0.904,0.188-1.33,0.277c-0.133,0.029-0.266,0.062-0.394,0.094
					c-0.315,0.07-0.625,0.146-0.905,0.226c-0.114,0.028-0.229,0.062-0.333,0.093c-0.021,0.004-0.057,0.015-0.09,0.021
					c-1.033,0.229-6.938,1.604-7.82,3.137c-0.027,0.054-0.057,0.095-0.065,0.146c-0.521,1.479-1.775,9.768-1.981,11.612h-3.531
					l-1.235-3.121l0.479-4.435l0.188-0.089l0,0l0,0c-0.014-0.021-0.021-0.041-0.025-0.062c-0.015-0.021-0.021-0.042-0.031-0.062
					l3.059-5.382l0.053,0.012l0,0l0,0l0.06-0.193l0.044-0.077l0.078-0.139l4.573-9.622l0.7-0.246l0.698-0.245l2.062-11.218
					c0.1,0,0.237-0.001,0.415-0.001c1.192,0,5.197,0.031,6.348,0.473C408.451,611.214,413.083,621.422,415.796,628.047z"/>
				<path d="M387.698,631.303c0.021,0,0.035-0.004,0.049-0.007c0.04-0.011,0.074-0.03,0.104-0.059
					c-0.198,0.354-0.401,0.689-0.604,1.007c-0.112,0.227-0.329,0.56-0.606,0.948c-0.046-0.104-0.062-0.227-0.062-0.326
					c-0.002-0.174,0.034-0.312,0.034-0.314l0.062-0.213l-1.957-0.414l0.817-1.432c0.158-0.232,0.312-0.465,0.479-0.688
					C387.202,631.177,387.559,631.307,387.698,631.303z"/>
				<path d="M387.798,632.248c-0.055,0.079-0.096,0.146-0.129,0.2c-0.028,0.062-0.072,0.14-0.132,0.229
					c-0.055,0.089-0.119,0.188-0.191,0.3c-0.038,0.061-0.078,0.114-0.121,0.18c-1.146,1.64-3.906,4.981-4.765,4.981
					c-0.074,0-0.146-0.021-0.202-0.062c-0.144-0.094-0.229-0.234-0.271-0.438c-0.019-0.062-0.023-0.139-0.029-0.215
					c-0.017-0.312,0.056-0.712,0.204-1.216c0.271-0.885,0.804-2.06,1.477-3.29c0.396-0.739,0.854-1.502,1.317-2.235l0.948-1.646
					l0.049,0.059l0.048,0.061c1.083-1.487,2.161-2.649,2.91-2.92c0.104-0.038,0.207-0.062,0.3-0.062
					c0.138,0,0.254,0.036,0.357,0.104c0.042,0.024,0.076,0.062,0.109,0.097c0.171,0.173,0.248,0.427,0.255,0.73
					c0.032,1.354-1.293,3.736-1.97,4.861C387.901,632.077,387.846,632.17,387.798,632.248z M382.52,636.334
					c-0.32,1.066-0.186,1.33-0.13,1.383c0.688-0.128,2.75-2.493,3.983-4.158c-0.227-0.296-0.229-0.67-0.199-0.898l-1.758-0.371
					C383.577,633.723,382.867,635.185,382.52,636.334z M385.537,630.496l-0.817,1.432l1.957,0.414l-0.062,0.212
					c-0.001,0.003-0.037,0.146-0.035,0.313c0.001,0.104,0.021,0.225,0.062,0.328c0.277-0.396,0.495-0.729,0.605-0.948
					c0.197-0.313,0.401-0.653,0.604-1.007c-0.026,0.021-0.062,0.045-0.104,0.058c-0.013,0.002-0.023,0.006-0.049,0.007
					c-0.145,0.004-0.496-0.127-1.688-1.497C385.854,630.031,385.694,630.261,385.537,630.496z M389.334,626.625
					c-0.033-0.023-0.075-0.035-0.13-0.035c-0.577,0-1.735,1.216-2.942,2.873c0.521,0.595,1.103,1.197,1.354,1.38
					c0.146-0.214,0.412-0.299,0.638-0.325C389.178,628.784,389.883,626.991,389.334,626.625z"/>
				<path fill="#FFFFFF" stroke="#FFFFFF" stroke-miterlimit="10" d="M258.606,673.251l0.097-0.062l-0.069-5.701l3.559-2.174
					l15.577,0.271l0.037-0.018l6.453-2.389l0.275-13.308l11.64-2.845l24.901-0.066l1.312-2.411l21.093-1.172l0.142-2.14l4.391-0.443
					l-0.396-0.312c-0.008-0.008-0.619-0.496-0.604-1.096c0.011-0.347,0.229-0.678,0.663-0.979c0.318-0.229,1.261-0.493,3.906-0.493
					c2.435,0,5.397,0.219,7.568,0.379c1.07,0.079,1.92,0.146,2.411,0.156c1.479,0.047,3.122,1.161,4.02,2.178
					c0.551,0.623,0.843,1.231,0.802,1.664c-0.132,1.377-0.354,1.709-1.346,1.896l0.062,0.438l14.563-1.381l8.988-0.849l1.229,3.156
					h3.891l0.021-0.468c0.02-0.099,1.455-10.041,1.991-11.584c0.42-1.207,5.69-2.617,7.688-3.056
					c3.521-0.986,10.873-2.021,12.222-2.204l0.021,0.051l0.15-0.016c0.002,0,0.284-0.024,0.688-0.024
					c1.129,0,1.948,0.188,2.312,0.521c0.397,0.369,0.4,1.104,0.404,1.816c0.002,0.616,0.007,1.197,0.236,1.63
					c0.479,0.888,4.567,7.803,4.743,8.096l0.058,0.097l0.106,0.007c0.601,0.035,59.927,3.542,73.163,5.171
					c1.022,0.126,2.19,0.245,3.473,0.428c20.032,2.817,48.085,8.229,48.085,8.229c2.173,0.038,3.033,0.72,3.108,1.293
					c0.067,0.528-0.479,1.062-1.38,1.325c-0.025,0.014-0.633,0.318-1.452,0.811c-3.644,0.398-25.603,2.57-59.902,0.831
					c-17.742-0.896-56.133-0.545-101.896,2.272c-65.201,4.021-105.441,10.436-127.718,15.104l-0.974,0.205
					c-1.848-0.021-2.505-0.209-2.59-0.312c-0.031-0.059-0.071-0.109-0.111-0.166c-0.095-0.132-0.143-0.202-0.124-0.309
					C256.171,674.946,256.991,674.271,258.606,673.251z"/>
				<path fill="#FFFFFF" stroke="#FFFFFF" stroke-miterlimit="10" d="M348.698,694.914l0.062,0.006
					c0.25,0.022,21.625,2.256,51.065,2.256c5.1,0,10.436-0.062,15.938-0.226c34.305-0.979,82.514-5.729,117.908-22.771
					c-0.095,0.088-0.183,0.17-0.271,0.256c-1.223,1.127-2.438,2.324-3.725,3.589c-8.133,8.009-18.254,17.974-44.358,25.562
					c-6.01,1.744-12.438,2.561-20.247,2.561c-6.688,0-13.551-0.18-20.812-0.809c-7.974-0.688-16.216-1.4-25.027-1.4
					c-1.354,0-2.702,0.021-4.018,0.055c-1.323,0.031-2.874,0.053-4.605,0.053c-34.329,0-138.904-7.183-143.247-7.461l-7.756-19.856
					l71.915,3.771L348.698,694.914z"/>
			</g>
			<g id="_x32__3_">
				<path fill="#996234" d="M369.91,644.05c0,0-1.388-1.612-1.084-3.518c0.308-1.898,0.729-2.869,1.896-3.205
					c1.167-0.334,2.748-0.485,3.073-0.32c0.321,0.165,4.257,1.729,5.153,2.036c0.896,0.311,3.354,1.935,3.4,2.683
					c0.054,0.748,0.195,0.988,0.498,1.723c0.307,0.729,0.769,4.025,0.769,4.025l-5.937,0.654c0,0,0.063-2.316-0.373-2.478
					c-0.438-0.155-6.231-0.748-6.626-0.973C370.295,644.461,369.91,644.05,369.91,644.05z"/>
				<path fill="#EF45B7" d="M347.938,634.795c0,0-0.312-2.938-0.438-2.938c-0.127,0,4.116-0.25,5.125-1
					c1.25-0.936,8.125-0.875,8.125-0.875l4.562,4.188l5.265,3.96c0,0-1.515,4.979-2.265,4.979c-0.354,0-4.108-3.401-7.5-3.5
					c-3.783-0.105-4.062,2.062-3.188,6.75c0.166,0.887-7.812-4.438-7.812-4.438s-1.509-1.125-1.881-3.125
					C347.562,636.794,347.938,634.795,347.938,634.795z"/>
				<path fill="#996234" d="M356.999,604.67c0.188,0.062,1.562-1.625,1.5-2.188c-0.062-0.562-0.623-0.938-0.749-0.938
					s-1.438-1.562-0.751-2.25c0.688-0.688-1.5-3.5-0.688-4.875c0.812-1.375,1.812-3.5,3.688-4.25c1.875-0.75,3.062-1.375,4-0.625
					c0.938,0.75,3.188,2.875,3.25,3.688c0.062,0.812,0.438,2.375,0,4.062c-0.438,1.688-0.438,1.938-0.5,3.75
					c-0.062,1.812-0.875,2.938-1.438,3.627c-0.562,0.688-0.312,1.623-1.375,1.873c-1.062,0.25,0.25,1.938-0.25,2.562
					c-0.5,0.625-6.375-0.938-6.25-3.375C357.495,604.585,356.999,604.67,356.999,604.67z"/>
				<path fill="#301705" d="M357.188,602.232c0,0-1.062,0-0.938-0.875c0.123-0.875,0.354-2.375-0.011-2.75
					c-0.365-0.375-1.489-1.062-1.114-2.125c0.375-1.063,0.812-1.688,0.562-2.688s0-1.812,0.812-2.312s1.445-0.375,2.38-0.812
					c0.938-0.438,1.688-1.5,2.745-1.688c1.062-0.188,2.312-0.938,3.188,0c0.877,0.938,1.5,0.938,1.75,1.562
					s-0.062-0.062,0.312,1.438c0.375,1.5,1.125,1.812,0.625,2.625c-0.5,0.812-0.938-0.688-1.375-0.75
					c-0.438-0.062-0.188-0.75-1.375,0s-0.75,0.5-2.5,0.125s-2.688-1.375-3.22,0.438c-0.532,1.813-0.224,1.5,0,2.938
					c0.22,1.438,0,2.062,0,2.062s-0.096-0.688-0.78-0.562c-0.688,0.125-0.812,0.25-0.75,1s0.438,1.625,0.312,1.875
					C357.686,601.983,357.188,602.232,357.188,602.232z"/>
				<path fill="#996234" d="M365.812,616.482c0,0,4.125,6.75,5.188,7.375s3.25,1.875,4.062,2.062c0.812,0.188,5.938,1,8.125,0.875
					c2.187-0.125,2.562-0.786,3.375,0.014c0.812,0.803,1.188,1.361,1.5,0.736c0.312-0.625,0.125-0.75,0-1.688
					c-0.125-0.938,0-1.438,0.875-1.562s2.213,0.875,1.854-0.25c-0.354-1.125-0.229-1.625-1.67-1.5
					c-1.438,0.125-1.688,1.188-2.688,1.312c-1,0.122-1.438,0.125-3.188-0.125s-6.688-3.188-7.75-3.25
					c-1.062-0.062-1.125-0.875-1.812-1.562c-0.687-0.687-3.438-4.062-3.438-4.062"/>
				<path fill="#8BC7E8" d="M347.499,619.92c0.25-3.5,1.5-9.062,3.625-11.5c2.125-2.438,2.75-2.375,4.312-3.062
					c1.562-0.688,2.375-0.5,2.375-0.5s0.082,2.5,1.354,2.938c1.271,0.438,4.271,1.25,4.459,0.75s-0.249-0.817,0.125-1.253
					c0.373-0.438,1-1.622,1.438-1.372c0.438,0.25,2.625,1.124,2.875,2.25s0.5,2.625,1.125,3.5s1,2.25,1,2.25s0.188,0.5,0.375,1.062
					c0.188,0.562-1.625,0.5-2.812,2.812c-1.188,2.312-2.5-1.312-2.5-1.312s1.438-0.938,0.125,1.062c0,0-2,3.062-2.125,3.5
					c-0.125,0.438-0.625,1.562-0.562,2.688c0.062,1.127,0.688,2.312,0.562,3.5c-0.126,1.188,0.024,2.25-1.456,2.812
					c-1.479,0.562-3.104,0.438-4.919,0.625c-1.812,0.188-4.048,0.089-4.875,0.812c-0.826,0.724-1.625,0.125-2.625,0.375
					s-1.062,0.875-1.875,0s0.479-3.625,0.271-4.25c-0.212-0.625-0.75-2-0.546-4.062C347.435,621.483,347.499,619.92,347.499,619.92z
					"/>
				<path fill="#996234" d="M354.724,624.138c0,0,1.328,4.354,2.068,5.188c0.743,0.829,1.933,2.75,2.562,3.494
					c0.635,0.744,6.229,6.479,6.898,6.979c0.675,0.499,3.921,3.354,3.921,3.354l4.597-0.526c0,0-3.046-3.263-4.543-4.854
					c-1.494-1.595-6.449-7.729-6.732-8.282c-0.282-0.561-1.896-2.231-2.329-3.012c-0.438-0.771-0.508-2.372-0.868-3.831
					s-0.979-3.347-0.979-3.347s-5.779-0.69-5.955,0.671C353.18,621.33,354.724,624.138,354.724,624.138z"/>
				<path fill="#996234" d="M357.749,646.295c0,0-1.271-1.708-0.834-3.583c0.437-1.875,0.936-2.812,2.12-3.062
					c1.188-0.25,2.772-0.291,3.089-0.104c0.312,0.188,4.125,2.021,5,2.396s3.204,2.166,3.204,2.916s0.125,1,0.375,1.75
					s0.562,2.875,0.562,2.875l-6.002,0.637c0,0,0.186-1.512-0.245-1.696c-0.427-0.188-6.167-1.188-6.542-1.438
					S357.749,646.295,357.749,646.295z"/>
				<path fill="#996234" d="M364.265,652.342"/>
			</g>
		</g>
		<polygon id="La_mar_1_m" opacity="0.6" fill="#39BCC4" enable-background="new    " points="-3.125,679.896 806.987,679.896 
			807.981,800.662 -2.131,800.662 		"/>
		<rect x="92.775" y="434.5" fill="#0C0C0C" width="29.75" height="91"/>
		<path fill="#070707" enable-background="new    " d="M175.952,515.327c-17.762-30.734-35.499-61.476-53.244-92.219
			c-1.425-2.463-2.811-4.958-4.288-7.391c-3.233-5.326-8.664-7.891-14.322-6.69c-4.286,0.91-7.242,3.619-9.388,7.335
			c-12.904,22.362-25.815,44.719-38.725,67.075c-6.261,10.847-12.542,21.683-18.772,32.547c-4.022,7.012-2.166,14.898,4.315,18.623
			c2.545,1.466,5.32,1.923,8.22,1.921c18.95-0.014,37.899-0.004,56.849-0.004c3.445,0,6.891,0,10.336,0
			c15.801-0.006,31.602,0.022,47.404-0.019c7.464-0.02,12.968-4.453,13.954-11.159C178.824,521.726,177.758,518.451,175.952,515.327
			z M114.917,434.911l-2.483,59.458h-11.037l-2.345-59.458H114.917z M106.985,520.856c-4.876,0-8.829-3.953-8.829-8.829
			s3.953-8.829,8.829-8.829c4.875,0,8.829,3.953,8.829,8.829S111.862,520.856,106.985,520.856z"/>
		<path fill="#F9E132" enable-background="new    " d="M169.455,512.318c-16.094-27.849-32.165-55.703-48.244-83.56
			c-1.291-2.231-2.547-4.492-3.885-6.696c-2.929-4.826-7.85-7.15-12.977-6.062c-3.883,0.824-6.562,3.279-8.506,6.646
			c-11.693,20.262-23.392,40.52-35.089,60.776c-5.673,9.828-11.364,19.646-17.01,29.49c-3.644,6.354-1.962,13.5,3.91,16.875
			c2.306,1.328,4.82,1.742,7.448,1.74c17.17-0.013,34.34-0.004,51.511-0.004c3.121,0,6.244,0,9.365,0
			c14.317-0.005,28.635,0.021,42.953-0.017c6.763-0.018,11.75-4.035,12.643-10.111C172.057,518.115,171.092,515.148,169.455,512.318
			z M114.152,439.453l-2.25,53.875h-10l-2.125-53.875H114.152z M106.964,517.328c-4.418,0-8-3.582-8-8s3.582-8,8-8s8,3.582,8,8
			S111.383,517.328,106.964,517.328z"/>
	</g>
	<g id="La_Mar">
		<g>
			<path fill="#D8BD80" d="M800.557,739.949c-37.881,6.85-61.193,5.146-88.212,5.051c-24.051-0.033-33.146-4.85-75.376-8.055
				c-26.088-0.787-46.714,0.008-74.345,1.416c-20.113,1.021-66.365,3.424-87.148,0.188c-39.55-10.771-139.626-8.536-184.812-1.551
				c-45.187,6.986-25.674-4.301-54.43-3.225c-28.755,1.065-24.134,5.375-38.512,1.604c-14.377-3.762-20.67-15.181-32.92-13.012
				c-1.388,0.829,0.264,7.501-30.5-8.625c-10.783-5.652-23.201-5.499-30.875-5.625c-7.625-0.125-24.619,3.903-34.375-3.625
				c-11.25-6.604-43.828,16.413-55.125,22.854C2.63,733.811-3,730.024-3,730.024l1.75,72.226l802.232,1L800.557,739.949z"/>
		</g>
	</g>
</g>
<g>
	<polygon fill="#F90606" points="112.5,644.5 122.525,644.5 107.764,666.002 93,644.5 100.5,644.5 100.5,643.5 112.5,643.5 	"/>
</g>
<rect x="100.5" y="560.25" fill="#FC3232" width="12.5" height="84.25"/>
</svg>
