<?xml version="1.0" encoding="utf-8"?>
<!-- Generator: Adobe Illustrator 16.0.0, SVG Export Plug-In . SVG Version: 6.00 Build 0)  -->
<!DOCTYPE svg PUBLIC "-//W3C//DTD SVG 1.1//EN" "http://www.w3.org/Graphics/SVG/1.1/DTD/svg11.dtd">
<svg version="1.1" id="Capa_1" xmlns="http://www.w3.org/2000/svg" xmlns:xlink="http://www.w3.org/1999/xlink" x="0px" y="0px"
	 width="800px" height="800px" viewBox="0 0 800 800" enable-background="new 0 0 800 800" xml:space="preserve">
<g id="Capa_1_1_">
	<rect x="-23.5" y="-33" fill="#42C9CC" width="840" height="843"/>
	<rect x="-4" y="722" fill="#A0A0A0" width="814" height="113"/>
</g>
<circle opacity="0.7" fill="#F90606" cx="632.034" cy="315.375" r="86.977"/>
<circle opacity="0.7" fill="#F90606" cx="154.785" cy="460.43" r="86.977"/>
<g id="Sortida_1">
	<g>
		<path fill="#BFBFBF" d="M344.377,554h-55.421l-1.023,66.082c0,0-5.114,54.752,28.827,73.536
			c32.825-18.039,29.105-72.18,29.105-72.18L344.377,554z"/>
		<path fill="#E2E2E2" d="M316.824,679.358c0,0-23.936,1.151-24.772-46.68c-0.836-47.831,2.541-52.683,2.541-52.683h44.578
			l1.83,14.062v41.121C341,635.186,339.686,677.905,316.824,679.358z"/>
		<path fill="#CECECE" d="M316.666,679.653c18.546,0.353,24.418-23.357,25.908-45.751l-0.614-37.104l-0.93-26.782l-14.413-3.347
			l-2.325,2.771l-15.438-0.069c0,0-1.948-2.325-2.417-2.325c-2.62,0-14.137,3.162-14.137,3.162s-0.411,18.182-0.604,26.365
			c-0.007,0.273-1.059,36.871-1.044,37.332C291.444,656.253,296.5,679.27,316.666,679.653z M292.536,597.357
			c-0.093-0.604,2.371-25.39,2.371-25.39s9.634-1.783,12.104-1.783c0.44,0,2.283,2.226,2.283,2.226l14.572,0.062l2.19-2.645
			l12.829,2.14l2.143,25.354c0.31,22.007-0.121,22.314,0,36.576c-1.694,21.847-8.37,45.055-24.611,44.635
			c-16.139-0.416-22.679-23.039-24.117-44.635C292.313,633.065,292.721,597.729,292.536,597.357z"/>
		<path fill="#BABABA" d="M306.788,631.345l2.676,3.093L316,635.54V636h0.619h0.093H317v-0.461l6.807-1.102l3.109-3.097
			c1.673-1.209,2.084-7.299,2.084-7.299v-11.299l-1.238-2.465l-8.291,1.438l-2.771,4.365l-2.757-4.365l-8.026-1.438L305,612.747
			v11.299C305,624.046,305.114,630.136,306.788,631.345z"/>
		<path fill="#C6C6C6" d="M305.693,616.128c0.023,0.349,3.302,5.377,3.302,5.377l15.081,0.096l3.924-5.362v-0.744v-0.372v-0.372V611
			h-22.307C305.693,611,305.67,615.779,305.693,616.128z"/>
		<path fill="#29ABE2" d="M307.988,626h7.516h2.868h6.771c0,0,2.176-3.021,2.526-10.532c0.002-0.044-0.388-0.073-0.388-0.073
			c-0.987,1.391-3.191,5.118-3.191,5.118l-7.152,0.035l-7.896-0.044c0,0-2.205-3.746-3.192-5.133c0,0-0.39,0.055-0.388,0.098
			C305.816,622.98,307.988,626,307.988,626z"/>
		<g id="Timó_9_">
			<path d="M324.803,612.293c0-3.023-9.96-3.242-9.96,0.026C314.843,615.191,324.803,615.462,324.803,612.293z M323.936,612.325
				c0,2.161-8.228,1.977-8.228,0.02C315.708,610.117,323.936,610.266,323.936,612.325z"/>
			<path d="M321.072,613.979c0,0-0.023-0.938-1.151-0.93s-0.977,0.852-1,0.93C318.897,614.061,321.072,613.979,321.072,613.979z"/>
			<polygon points="320.281,614 320.571,611 319.084,611 319.479,614 			"/>
			<path d="M319.27,613.7c-0.021,0-3.638-1.581-3.638-1.581l-0.139,0.931l3.662,1.093L319.27,613.7z"/>
			<path d="M320.519,613.7c0.023,0,3.481-1.581,3.481-1.581v0.931l-3.391,1.093L320.519,613.7z"/>
		</g>
		<g id="Tapiceria_9_">
			<path fill="#B5A081" d="M291.801,633.902c0,0,12.181-0.097,14.878,12.832c2.697,12.926,4.278,30.687,4.464,31.059
				C311.329,678.165,293.103,673.701,291.801,633.902z"/>
			<path fill="#B5A081" d="M340.529,633.902c0,0-12.185-0.097-14.878,12.832c-2.696,12.926-4.277,30.687-4.464,31.059
				C321,678.165,339.228,673.701,340.529,633.902z"/>
			<path fill="#B5A081" d="M339.6,583.223c0,0,0.895,2.998-2.047,1.953c-9.67-3.438-32.452-4.185-42.682,0.188
				c-2.144,0.916-2.11,0.376-2.046-1.069c0.049-1.082,1.581-12.318,1.581-12.318s17.479-6.693,43.98,0L339.6,583.223z"/>
			<path fill="#B5A081" d="M304.5,596.526c0-0.62,0.971-1.526,1.832-1.526h19.62c0.857,0,1.548,0.906,1.548,1.526v6.544
				c0,0.619-0.688,0.93-1.548,0.93h-19.62c-0.861,0-1.832-0.311-1.832-0.93V596.526z"/>
		</g>
		<circle fill="#3B59AD" cx="349.26" cy="645.07" r="4.908"/>
		<circle fill="#3B59AD" cx="284.008" cy="645.07" r="4.908"/>
		<circle fill="#3B59AD" cx="284.008" cy="590.791" r="4.908"/>
		<circle fill="#3B59AD" cx="349.837" cy="590.213" r="4.908"/>
	</g>
	<g>
		<path fill="#BFBFBF" d="M31.377,554h-55.421l-1.023,66.082c0,0-5.114,54.752,28.827,73.536
			c32.825-18.039,29.105-72.18,29.105-72.18L31.377,554z"/>
		<path fill="#E2E2E2" d="M3.824,679.358c0,0-23.936,1.151-24.772-46.68c-0.837-47.83,2.54-52.682,2.54-52.682H26.17L28,594.064
			v41.117C28,635.186,26.686,677.905,3.824,679.358z"/>
		<path fill="#CECECE" d="M3.666,679.653c18.546,0.353,24.418-23.357,25.908-45.751L28.959,596.8l-0.93-26.782l-14.413-3.347
			l-2.325,2.771l-15.437-0.069c0,0-1.952-2.325-2.417-2.325c-2.62,0-14.137,3.162-14.137,3.162s-0.411,18.182-0.604,26.365
			c-0.007,0.273-1.059,36.871-1.044,37.332C-21.556,656.253-16.5,679.27,3.666,679.653z M-20.464,597.357
			c-0.093-0.604,2.371-25.39,2.371-25.39s9.634-1.783,12.106-1.783c0.44,0,2.283,2.226,2.283,2.226l14.572,0.062l2.194-2.645
			l12.829,2.14l2.139,25.354c0.31,22.007-0.121,22.314,0,36.576c-1.694,21.847-8.37,45.055-24.611,44.635
			c-16.139-0.416-22.679-23.039-24.117-44.635C-20.687,633.065-20.279,597.729-20.464,597.357z"/>
		<path fill="#BABABA" d="M-6.212,631.345l2.676,3.093L3,635.539V636h0.619h0.093H4v-0.461l6.807-1.102l3.109-3.097
			c1.673-1.209,2.084-7.299,2.084-7.299v-11.299l-1.238-2.465l-8.291,1.438l-2.775,4.365l-2.757-4.365l-8.026-1.438L-8,612.747
			v11.299C-8,624.046-7.886,630.136-6.212,631.345z"/>
		<path fill="#C6C6C6" d="M-7.307,616.128c0.023,0.349,3.302,5.377,3.302,5.377l15.081,0.096L15,616.234v-0.744v-0.372v-0.372V611
			H-7.307C-7.307,611-7.33,615.779-7.307,616.128z"/>
		<path fill="#29ABE2" d="M-5.012,626h7.516h2.868h6.772c0,0,2.172-3.021,2.526-10.532c0.002-0.044-0.388-0.073-0.388-0.073
			c-0.987,1.391-3.191,5.118-3.191,5.118l-7.153,0.035l-7.896-0.044c0,0-2.205-3.746-3.192-5.133c0,0-0.39,0.055-0.388,0.098
			C-7.184,622.98-5.012,626-5.012,626z"/>
		<g id="Timó_5_">
			<path d="M11.803,612.293c0-3.023-9.96-3.242-9.96,0.026C1.843,615.191,11.803,615.462,11.803,612.293z M10.936,612.325
				c0,2.161-8.228,1.977-8.228,0.02C2.708,610.117,10.936,610.266,10.936,612.325z"/>
			<path d="M8.072,613.979c0,0-0.023-0.938-1.151-0.93s-0.977,0.852-1,0.93C5.897,614.061,8.072,613.979,8.072,613.979z"/>
			<polygon points="7.281,614 7.571,611 6.084,611 6.479,614 			"/>
			<path d="M6.27,613.7c-0.023,0-3.638-1.581-3.638-1.581l-0.139,0.931l3.662,1.093L6.27,613.7z"/>
			<path d="M7.519,613.7c0.023,0,3.481-1.581,3.481-1.581v0.931l-3.391,1.093L7.519,613.7z"/>
		</g>
		<g id="Tapiceria_5_">
			<path fill="#B5A081" d="M-20.699,633.902c0,0,12.181-0.097,14.878,12.832c2.697,12.926,4.278,30.687,4.464,31.059
				S-19.397,673.701-20.699,633.902z"/>
			<path fill="#B5A081" d="M28.029,633.902c0,0-12.181-0.097-14.878,12.832c-2.696,12.926-4.277,30.687-4.463,31.059
				C8.501,678.165,26.728,673.701,28.029,633.902z"/>
			<path fill="#B5A081" d="M26.6,583.223c0,0,0.891,2.998-2.047,1.953c-9.67-3.438-32.452-4.185-42.682,0.188
				c-2.144,0.916-2.11,0.376-2.046-1.069c0.049-1.082,1.581-12.318,1.581-12.318s17.482-6.693,43.984,0L26.6,583.223z"/>
			<path fill="#B5A081" d="M-8,596.526c0-0.62,0.971-1.526,1.832-1.526h19.62c0.861,0,1.548,0.906,1.548,1.526v6.544
				c0,0.619-0.687,0.93-1.548,0.93h-19.62C-7.029,604-8,603.689-8,603.07V596.526z"/>
		</g>
		<circle fill="#3B59AD" cx="36.26" cy="645.07" r="4.908"/>
		<circle fill="#3B59AD" cx="-28.992" cy="645.07" r="4.908"/>
		<circle fill="#3B59AD" cx="-28.992" cy="590.791" r="4.908"/>
		<circle fill="#3B59AD" cx="36.837" cy="590.213" r="4.908"/>
	</g>
	<g>
		<path fill="#BFBFBF" d="M508.021,553H452.6l-1.021,66.121c0,0-5.113,54.771,28.827,73.558
			c32.822-18.039,29.104-72.211,29.104-72.211L508.021,553z"/>
		<path fill="#E2E2E2" d="M480.146,678.439c0,0-23.774,1.111-24.611-46.72c-0.836-47.832,2.701-52.724,2.701-52.724h44.578
			l1.186,14.15v41.117C504,634.267,503.008,676.985,480.146,678.439z"/>
		<path fill="#CECECE" d="M480.31,678.733c18.546,0.354,24.419-23.356,25.908-45.751l-0.614-37.104l-0.93-26.781l-14.414-3.347
			l-2.324,2.766l-15.437-0.065c0,0-1.952-2.325-2.417-2.325c-2.62,0-14.137,3.162-14.137,3.162s-0.411,18.183-0.604,26.366
			c-0.007,0.273-1.06,36.869-1.044,37.331C455.088,655.334,460.145,678.351,480.31,678.733z M456.18,596.438
			c-0.093-0.604,2.371-25.386,2.371-25.386s9.635-1.784,12.105-1.784c0.438,0,2.283,2.226,2.283,2.226l14.568,0.062l2.194-2.644
			l12.829,2.14l2.139,25.354c0.312,22.007-0.121,22.313,0,36.575c-1.691,21.848-8.37,45.056-24.607,44.636
			c-16.144-0.417-22.684-23.04-24.117-44.636C455.957,632.146,456.365,596.811,456.18,596.438z"/>
		<path fill="#BABABA" d="M470.61,630.426l2.765,3.092L480,634.62V635h0.264h0.097H481v-0.381l6.629-1.104l3.197-3.092
			c1.674-1.209,2.174-7.299,2.174-7.299v-11.299l-1.416-2.465l-8.381,1.438l-2.818,4.365l-2.775-4.365l-7.86-1.438L469,611.828
			v11.299C469,623.127,468.936,629.217,470.61,630.426z"/>
		<path fill="#C6C6C6" d="M469.337,615.168c0.023,0.349,3.302,5.398,3.302,5.398l15.264,0.104l4.102-5.354v-0.744V614.2v-0.372V610
			H469.34C469.337,610,469.314,614.82,469.337,615.168z"/>
		<path fill="#29ABE2" d="M471.632,625h7.521h2.863h6.772c0,0,2.172-2.98,2.524-10.492c0.004-0.043-0.391-0.054-0.391-0.054
			c-0.984,1.388-3.188,5.129-3.188,5.129l-7.152,0.04l-7.896-0.042c0,0-2.204-3.743-3.188-5.13c0,0-0.393,0.014-0.391,0.057
			C469.46,622.02,471.632,625,471.632,625z"/>
		<g id="Timó_8_">
			<path d="M488.447,611.373c0-3.022-9.96-3.241-9.96,0.027C478.487,614.271,488.447,614.543,488.447,611.373z M487.58,611.406
				c0,2.16-8.229,1.977-8.229,0.02C479.354,609.198,487.58,609.347,487.58,611.406z"/>
			<path d="M484.717,613.061c0,0-0.021-0.938-1.147-0.93c-1.132,0.01-0.979,0.847-1,0.93
				C482.542,613.142,484.717,613.061,484.717,613.061z"/>
			<polygon points="483.926,613 484.215,610 482.729,610 483.124,613 			"/>
			<path d="M482.913,612.781c-0.022,0-3.638-1.581-3.638-1.581l-0.143,0.931l3.662,1.092L482.913,612.781z"/>
			<path d="M484.341,612.781c0.023,0,3.659-1.581,3.659-1.581v0.931l-3.48,1.092L484.341,612.781z"/>
		</g>
		<g id="Tapiceria_8_">
			<path fill="#B5A081" d="M455.945,632.982c0,0,12.182-0.096,14.879,12.833c2.677,12.834,4.108,30.358,4.463,31.058
				C475.474,677.246,457.247,672.782,455.945,632.982z"/>
			<path fill="#B5A081" d="M504.174,632.982c0,0-12.182-0.096-14.879,12.833c-2.696,12.925-4.277,30.687-4.463,31.058
				C484.646,677.246,502.872,672.782,504.174,632.982z"/>
			<path fill="#B5A081" d="M503.244,582.304c0,0,0.891,2.998-2.047,1.952c-9.67-3.438-32.452-4.185-42.686,0.188
				c-2.144,0.916-2.105,0.376-2.046-1.069c0.05-1.083,1.581-12.319,1.581-12.319s17.482-6.692,43.984,0L503.244,582.304z"/>
			<path fill="#B5A081" d="M469,595.607c0-0.621,0.615-1.607,1.477-1.607h19.619c0.861,0,1.904,0.986,1.904,1.607v6.544
				c0,0.614-1.043,0.849-2.404,0.849h-19.619c-0.357,0-0.977-0.23-0.977-0.849V595.607z"/>
		</g>
		<circle fill="#3B59AD" cx="512.903" cy="644.151" r="4.908"/>
		<circle fill="#3B59AD" cx="447.652" cy="644.151" r="4.908"/>
		<circle fill="#3B59AD" cx="447.652" cy="589.871" r="4.908"/>
		<circle fill="#3B59AD" cx="513.481" cy="589.294" r="4.909"/>
	</g>
	<g>
		<path fill="#BFBFBF" d="M177.975,554h-55.421l-1.023,66.082c0,0-5.114,54.752,28.827,73.536
			c32.825-18.039,29.105-72.18,29.105-72.18L177.975,554z"/>
		<path fill="#E2E2E2" d="M150.123,679.358c0,0-23.786,1.151-24.623-46.68s2.69-52.683,2.69-52.683h44.578L174,594.064v41.117
			C174,635.186,172.984,677.905,150.123,679.358z"/>
		<path fill="#CECECE" d="M150.264,679.653c18.546,0.353,24.418-23.357,25.908-45.751l-0.614-37.104l-0.93-26.782l-14.413-3.347
			l-2.324,2.771l-15.437-0.069c0,0-1.952-2.325-2.417-2.325c-2.62,0-14.137,3.162-14.137,3.162s-0.411,18.182-0.603,26.365
			c-0.007,0.273-1.06,36.871-1.044,37.332C125.042,656.253,130.097,679.27,150.264,679.653z M126.133,597.357
			c-0.092-0.604,2.371-25.39,2.371-25.39s9.634-1.783,12.106-1.783c0.44,0,2.283,2.226,2.283,2.226l14.572,0.062l2.194-2.645
			l12.829,2.14l2.138,25.354c0.31,22.007-0.121,22.314,0,36.576c-1.694,21.847-8.37,45.055-24.611,44.635
			c-16.139-0.416-22.679-23.039-24.117-44.635C125.911,633.065,126.319,597.729,126.133,597.357z"/>
		<path fill="#BABABA" d="M140.587,631.345l2.776,3.093L150,635.54V636h0.217h0.093H151v-0.461l6.606-1.102l2.709-3.097
			c1.673-1.209,1.685-7.299,1.685-7.299v-11.299l-0.939-2.465l-8.142,1.438l-2.7,4.365l-2.719-4.365l-7.807-1.438L139,612.747
			v11.299C139,624.046,138.913,630.136,140.587,631.345z"/>
		<path fill="#C6C6C6" d="M139.291,616.128c0.023,0.349,3.302,5.377,3.302,5.377l15.282,0.096l4.125-5.362v-0.744v-0.372v-0.372V611
			h-22.709C139.291,611,139.268,615.779,139.291,616.128z"/>
		<path fill="#29ABE2" d="M141.585,626h7.516h2.868h6.772c0,0,2.171-3.021,2.525-10.532c0.002-0.044-0.388-0.073-0.388-0.073
			c-0.987,1.391-3.191,5.118-3.191,5.118l-7.153,0.035l-7.895-0.044c0,0-2.205-3.746-3.193-5.133c0,0-0.39,0.055-0.388,0.098
			C139.414,622.98,141.585,626,141.585,626z"/>
		<g id="Timó_7_">
			<path d="M158.401,612.293c0-3.023-9.96-3.242-9.96,0.026C148.441,615.191,158.401,615.462,158.401,612.293z M157.534,612.325
				c0,2.161-8.228,1.977-8.228,0.02C149.307,610.117,157.534,610.266,157.534,612.325z"/>
			<path d="M154.67,613.979c0,0-0.023-0.938-1.151-0.93s-0.977,0.852-1,0.93C152.496,614.061,154.67,613.979,154.67,613.979z"/>
			<polygon points="153.879,614 154.169,611 152.682,611 153.077,614 			"/>
			<path d="M152.867,613.7c-0.023,0-3.638-1.581-3.638-1.581l-0.139,0.931l3.662,1.093L152.867,613.7z"/>
			<path d="M154.318,613.7c0.023,0,3.682-1.581,3.682-1.581v0.931l-3.491,1.093L154.318,613.7z"/>
		</g>
		<g id="Tapiceria_7_">
			<path fill="#B5A081" d="M125.899,633.902c0,0,12.182-0.097,14.878,12.832c2.697,12.926,4.278,30.687,4.464,31.059
				S127.201,673.701,125.899,633.902z"/>
			<path fill="#B5A081" d="M174.127,633.902c0,0-12.181-0.097-14.878,12.832c-2.696,12.926-4.277,30.687-4.463,31.059
				C154.599,678.165,172.825,673.701,174.127,633.902z"/>
			<path fill="#B5A081" d="M173.198,583.223c0,0,0.891,2.998-2.047,1.953c-9.67-3.438-32.452-4.185-42.681,0.188
				c-2.144,0.916-2.11,0.376-2.046-1.069c0.049-1.082,1.581-12.318,1.581-12.318s17.482-6.693,43.984,0L173.198,583.223z"/>
			<path fill="#B5A081" d="M138.5,596.526c0-0.62,0.569-1.526,1.43-1.526h19.62c0.861,0,1.95,0.906,1.95,1.526v6.544
				c0,0.619-1.089,0.93-1.95,0.93h-19.62c-0.861,0-1.43-0.311-1.43-0.93V596.526z"/>
		</g>
		<circle fill="#3B59AD" cx="182.857" cy="645.07" r="4.908"/>
		<circle fill="#3B59AD" cx="117.606" cy="645.07" r="4.908"/>
		<circle fill="#3B59AD" cx="117.606" cy="590.791" r="4.908"/>
		<circle fill="#3B59AD" cx="183.435" cy="590.213" r="4.908"/>
	</g>
	<g>
		<path fill="#BFBFBF" d="M64.227,229h55.422l1.023-66.375c0,0,5.114-54.899-28.827-73.683c-32.825,18.04-29.105,72.4-29.105,72.4
			L64.227,229z"/>
		<path fill="#E2E2E2" d="M91.979,103.055c0,0,23.835-0.862,24.672,46.969c0.837,47.832-2.638,52.976-2.638,52.976H69.435
			L68,188.349v-41.121C68,147.228,69.117,104.509,91.979,103.055z"/>
		<path fill="#CECECE" d="M91.938,102.761c-18.545-0.353-24.418,23.357-25.908,45.751l0.614,37.104l0.93,26.782l14.413,3.347
			l2.325-2.766l15.436,0.069c0,0,1.952,2.325,2.417,2.325c2.619,0,14.136-3.162,14.136-3.162s0.412-18.182,0.604-26.366
			c0.006-0.277,1.059-36.871,1.043-37.332C117.161,126.161,112.104,103.144,91.938,102.761z M116.069,185.056
			c0.093,0.605-2.372,25.386-2.372,25.386s-9.634,1.784-12.106,1.784c-0.44,0-2.283-2.222-2.283-2.222l-14.572-0.066l-2.194,2.644
			l-12.828-2.139l-2.139-25.355c-0.31-22.007,0.121-22.317,0-36.576c1.694-21.847,8.37-45.055,24.611-44.635
			c16.139,0.417,22.68,23.039,24.117,44.635C116.292,149.349,115.883,184.684,116.069,185.056z"/>
		<path fill="#BABABA" d="M102.014,151.069l-2.577-3.092L93,146.875V147h-1.015h-0.093H92v-0.125l-7.005,1.102l-3.01,3.092
			c-1.673,1.209-1.985,7.299-1.985,7.299v11.299l1.041,2.464l8.192-1.442l2.725-4.365l2.733,4.365l8.212,1.442l1.098-2.464v-11.299
			C104,158.368,103.688,152.278,102.014,151.069z"/>
		<path fill="#C6C6C6" d="M102.911,166.579c-0.023-0.348-3.302-5.523-3.302-5.523l-14.884-0.169L81,166.18v0.744v0.372v0.372V172
			h21.911C102.911,172,102.934,166.927,102.911,166.579z"/>
		<path fill="#29ABE2" d="M100.617,157H93.1h-2.867h-6.772c0,0-2.171,2.728-2.526,10.239c-0.002,0.044,0.388-0.073,0.388-0.073
			c0.987-1.388,3.192-5.192,3.192-5.192l7.152-0.071l7.896,0.026c0,0,2.205,3.736,3.192,5.123c0,0,0.39,0.234,0.388,0.191
			C102.789,159.732,100.617,157,100.617,157z"/>
		<g id="Timó_3_">
			<path d="M83.802,170.121c0,3.023,9.96,3.242,9.96-0.027C93.762,167.222,83.802,166.952,83.802,170.121z M84.668,170.089
				c0-2.161,8.228-1.977,8.228-0.02C92.896,172.296,84.668,172.148,84.668,170.089z"/>
			<path d="M87.533,168.434c0,0,0.023,0.942,1.151,0.93c1.127-0.011,0.977-0.848,1-0.93
				C89.707,168.353,87.533,168.434,87.533,168.434z"/>
			<polygon points="88.323,169 88.033,172 89.521,172 89.125,169 			"/>
			<path d="M89.334,168.713c0.023,0,3.638,1.581,3.638,1.581l0.14-0.93l-3.662-1.093L89.334,168.713z"/>
			<path d="M87.784,168.713c-0.023,0-3.784,1.581-3.784,1.581v-0.93l3.542-1.093L87.784,168.713z"/>
		</g>
		<g id="Tapiceria_3_">
			<path fill="#B5A081" d="M115.803,148.512c0,0-12.181,0.093-14.878-12.832c-2.696-12.926-4.277-30.687-4.463-31.059
				C96.275,104.249,114.501,108.712,115.803,148.512z"/>
			<path fill="#B5A081" d="M67.075,148.512c0,0,12.181,0.093,14.878-12.832c2.696-12.926,4.277-30.687,4.463-31.059
				C86.603,104.249,68.377,108.712,67.075,148.512z"/>
			<path fill="#B5A081" d="M68.505,199.191c0,0-0.891-2.998,2.046-1.953c8.944,3.181,31.847,4.444,42.682-0.185
				c2.144-0.916,2.11-0.376,2.046,1.069c-0.049,1.083-1.582,12.32-1.582,12.32s-17.481,6.696-43.983,0L68.505,199.191z"/>
			<path fill="#B5A081" d="M103.5,185.887c0,0.621-1.366,1.113-2.228,1.113h-19.62c-0.861,0-1.153-0.492-1.153-1.113v-6.544
				c0-0.619,0.292-1.343,1.153-1.343h19.62c0.861,0,2.228,0.725,2.228,1.343V185.887z"/>
		</g>
		<circle fill="#3B59AD" cx="59.345" cy="137.343" r="4.908"/>
		<circle fill="#3B59AD" cx="124.596" cy="137.343" r="4.908"/>
		<circle fill="#3B59AD" cx="124.596" cy="191.624" r="4.908"/>
		<circle fill="#3B59AD" cx="58.768" cy="192.201" r="4.908"/>
	</g>
	<g>
		<path fill="#BFBFBF" d="M218.371,229h55.421l1.023-66.294c0,0,5.113-54.859-28.827-73.643
			c-32.826,18.04-29.105,72.34-29.105,72.34L218.371,229z"/>
		<path fill="#E2E2E2" d="M246.05,103.216c0,0,23.872-0.943,24.709,46.888c0.837,47.832-2.604,52.896-2.604,52.896h-44.578
			L222,188.51v-41.121C222,147.389,223.188,104.67,246.05,103.216z"/>
		<path fill="#CECECE" d="M246.082,102.922c-18.546-0.353-24.418,23.357-25.908,45.751l0.614,37.103l0.93,26.781l14.414,3.347
			l2.324-2.766l15.437,0.069c0,0,1.952,2.325,2.417,2.325c2.62,0,14.137-3.162,14.137-3.162s0.411-18.183,0.604-26.366
			c0.007-0.278,1.06-36.871,1.044-37.332C271.304,126.322,266.248,103.305,246.082,102.922z M270.212,185.217
			c0.093,0.605-2.371,25.386-2.371,25.386s-9.634,1.784-12.105,1.784c-0.44,0-2.283-2.222-2.283-2.222l-14.572-0.066l-2.194,2.644
			l-12.829-2.14l-2.139-25.355c-0.31-22.007,0.121-22.317,0-36.575c1.694-21.847,8.37-45.056,24.611-44.635
			c16.139,0.417,22.679,23.04,24.117,44.635C270.435,149.51,270.026,184.846,270.212,185.217z"/>
		<path fill="#BABABA" d="M256.086,151.23l-2.613-3.092L247,147.037V147h-0.871h-0.094H246v0.037l-6.933,1.102l-3.045,3.092
			c-1.674,1.209-2.021,7.299-2.021,7.299v11.299l1.112,2.464l8.228-1.442l2.743-4.365l2.741,4.365l8.145,1.442l1.03-2.464V158.53
			C258,158.529,257.76,152.439,256.086,151.23z"/>
		<path fill="#C6C6C6" d="M257.055,166.66c-0.023-0.348-3.302-5.483-3.302-5.483l-14.956-0.149L235,166.341v0.745v0.372v0.372V172
			h22.055C257.055,172,257.077,167.008,257.055,166.66z"/>
		<path fill="#29ABE2" d="M254.76,157h-7.516h-2.868h-6.772c0,0-2.172,2.808-2.525,10.32c-0.003,0.044,0.388-0.033,0.388-0.033
			c0.988-1.388,3.192-5.172,3.192-5.172l7.153-0.062l7.895,0.032c0,0,2.205,3.738,3.192,5.125c0,0,0.39,0.155,0.388,0.112
			C256.932,159.812,254.76,157,254.76,157z"/>
		<g id="Timó_2_">
			<path d="M237.944,170.282c0,3.023,9.96,3.242,9.96-0.027C247.904,167.383,237.944,167.113,237.944,170.282z M238.812,170.25
				c0-2.161,8.228-1.977,8.228-0.02C247.039,172.458,238.812,172.31,238.812,170.25z"/>
			<path d="M241.676,168.595c0,0,0.023,0.942,1.151,0.93c1.127-0.011,0.977-0.848,1-0.93
				C243.85,168.515,241.676,168.595,241.676,168.595z"/>
			<polygon points="242.467,169 242.177,172 243.663,172 243.269,169 			"/>
			<path d="M243.479,168.875c0.023,0,3.638,1.581,3.638,1.581l0.139-0.93l-3.662-1.093L243.479,168.875z"/>
			<path d="M241.855,168.875c-0.023,0-3.855,1.581-3.855,1.581v-0.93l3.578-1.093L241.855,168.875z"/>
		</g>
		<g id="Tapiceria_2_">
			<path fill="#B5A081" d="M269.946,148.673c0,0-12.181,0.092-14.878-12.833c-2.697-12.926-4.278-30.687-4.464-31.059
				C250.418,104.41,268.645,108.874,269.946,148.673z"/>
			<path fill="#B5A081" d="M221.718,148.673c0,0,12.182,0.092,14.878-12.833c2.696-12.926,4.277-30.687,4.463-31.059
				C239.822,107.224,223.112,106.061,221.718,148.673z"/>
			<path fill="#B5A081" d="M222.147,199.352c0,0-0.891-2.998,2.047-1.953c9.67,3.44,32.452,4.185,42.682-0.185
				c2.144-0.916,2.11-0.376,2.046,1.069c-0.049,1.083-1.581,12.32-1.581,12.32s-17.481,6.696-43.984,0L222.147,199.352z"/>
			<path fill="#B5A081" d="M258,186.049c0,0.62-1.224,0.951-2.084,0.951h-19.62c-0.861,0-1.296-0.331-1.296-0.951v-6.544
				c0-0.619,0.435-1.504,1.296-1.504h19.62c0.86,0,1.584,0.886,1.584,1.504L258,186.049z"/>
		</g>
		<circle fill="#3B59AD" cx="213.488" cy="137.504" r="4.908"/>
		<circle fill="#3B59AD" cx="278.739" cy="137.504" r="4.908"/>
		<circle fill="#3B59AD" cx="278.739" cy="191.785" r="4.908"/>
		<circle fill="#3B59AD" cx="212.911" cy="192.362" r="4.908"/>
	</g>
	<g id="Boat_moviment_Esperant">
		<g id="Capa_4_1_">
			<path fill="#D1D1D1" d="M375.965,236.492h59.587l1.103-70.977c0,0,5.498-58.833-30.993-79.028
				c-35.291,19.396-31.292,77.552-31.292,77.552L375.965,236.492z"/>
			<path fill="#F4F4F4" d="M405.45,101.853c0,0,25.802-0.993,26.701,50.431c0.896,51.425-2.661,56.89-2.661,56.89H381.56
				l-2.24-15.617v-44.211C379.319,149.344,380.872,103.416,405.45,101.853z"/>
			<path fill="#E8E8E8" d="M405.758,101.536c-19.938-0.378-26.253,25.112-27.854,49.189l0.655,39.891l1,28.793l15.496,3.598
				l2.5-2.973l16.6,0.075c0,0,2.098,2.499,2.598,2.499c2.816,0,15.199-3.399,15.199-3.399s0.438-19.549,0.646-28.347
				c0.011-0.299,1.143-39.641,1.123-40.137C432.875,126.695,427.439,101.95,405.758,101.536z M431.701,190.016
				c0.101,0.65-2.549,27.293-2.549,27.293s-10.358,1.918-13.021,1.918c-0.474,0-2.453-2.389-2.453-2.389l-15.668-0.071l-2.355,2.842
				l-13.792-2.299l-2.299-27.261c-0.337-23.661,0.131-23.994,0-39.324c1.818-23.487,9-48.439,26.46-47.988
				c17.353,0.448,24.385,24.771,25.93,47.988C431.941,151.625,431.501,189.616,431.701,190.016z"/>
			<path fill="#FFFFFF" d="M405.971,148.935l0.014-0.24l-7.948,1.185l-3.243,3.324c-1.8,1.3-2.146,7.848-2.146,7.848v12.147
				l1.259,2.649l8.877-1.549l3.245-5.012l-0.058-4.162V148.935L405.971,148.935z"/>
			<path fill="#FFFFFF" d="M405.809,148.935l0.176-0.241l7.484,1.185l3.188,3.324c1.799,1.3,2.085,7.848,2.085,7.848v12.147
				l-1.142,2.649l-8.812-1.549l-3.134-5.012l0.147-4.163L405.809,148.935z"/>
			<path fill="#C6C6C6" d="M417.555,170.09c-0.021-0.375-3.55-5.909-3.55-5.909l-16.012-0.167l-4.019,5.707v0.801v0.399v0.399v4.538
				h23.577C417.555,175.858,417.58,170.465,417.555,170.09z"/>
			<path fill="#394963" d="M414.379,245.381c-0.005,1.183-0.97,2.138-2.153,2.131l-12.472-0.062
				c-1.182-0.007-2.137-0.973-2.131-2.156l0.103-19.159c0.01-1.183,0.975-2.138,2.155-2.131l12.471,0.068
				c1.188,0.006,2.141,0.971,2.135,2.154L414.379,245.381z"/>
			<path fill="#29ABE2" d="M415.09,159.201h-8.082h-3.083h-7.282c0,0-2.334,3.258-2.715,11.333
				c-0.003,0.047,0.417,0.086,0.417,0.086c1.062-1.492,3.437-5.501,3.437-5.501l7.688-0.037l8.488,0.049
				c0,0,2.371,4.026,3.432,5.519c0,0,0.42-0.068,0.418-0.115C417.422,162.458,415.09,159.201,415.09,159.201z"/>
			<g id="Timó_1_">
				<path d="M397.01,173.958c0,3.25,10.709,3.484,10.709-0.03C407.719,170.842,397.01,170.551,397.01,173.958z M397.941,173.923
					c0-2.323,8.845-2.124,8.845-0.02C406.787,176.297,397.941,176.137,397.941,173.923z"/>
				<path d="M401.021,172.145c0,0,0.021,1.013,1.232,0.999c1.213-0.012,1.049-0.912,1.075-0.999S401.021,172.145,401.021,172.145z"
					/>
				<polygon points="401.871,173.193 401.559,175.858 403.158,175.858 402.732,173.193 				"/>
				<path d="M402.958,172.445c0.024,0,3.911,1.7,3.911,1.7l0.147-0.999l-3.937-1.175L402.958,172.445z"/>
				<path d="M401.332,172.445c-0.023,0-4.024,1.7-4.024,1.7v-0.999l3.788-1.175L401.332,172.445z"/>
			</g>
			<g id="Tapiceria_1_">
				<path fill="#E8CDA0" d="M431.953,150.726c0,0-13.098,0.1-15.997-13.797c-2.898-13.897-4.599-32.993-4.798-33.393
					C410.958,103.136,430.553,107.936,431.953,150.726z"/>
				<path fill="#E8CDA0" d="M379.562,150.726c0,0,13.099,0.1,15.994-13.797c2.899-13.897,4.604-32.993,4.803-33.393
					C400.559,103.136,380.963,107.936,379.562,150.726z"/>
				<path fill="#E8CDA0" d="M380.562,205.212c0,0-0.957-3.223,2.196-2.1c10.398,3.7,34.896,4.499,45.894-0.199
					c2.305-0.984,2.269-0.403,2.195,1.149c-0.052,1.166-1.695,13.246-1.695,13.246s-18.797,7.199-47.29,0L380.562,205.212z"/>
				<path fill="#E8CDA0" d="M417.964,190.909c0,0.667-0.708,0.94-1.634,0.94h-21.093c-0.925,0-1.93-0.273-1.93-0.94v-7.036
					c0-0.667,1.003-1.353,1.93-1.353h21.093c0.928,0,1.634,0.686,1.634,1.353V190.909z"/>
			</g>
		</g>
		<g>
			<path fill="#996234" d="M397.599,177.701c0,0,1.186-1.468,1.732,0.869c0.55,2.337,1.624,4.675,1.624,4.675
				s2.513-0.729,2.854-1.416c0.346-0.688,0.059-3.821,2.233-4.607c2.179-0.786,3.163-1.281,2.232,2.012
				c-0.934,3.293-1.271,5.618-1.271,5.618l-9.062,2.017l-0.35-8.648"/>
			<path fill="#EF45B7" d="M398.743,186c0,0-3.302-5.126-1.54-4.946c1.762,0.18,0.847,1.418,3.085,1.536
				c2.237,0.117,1.933-1.669,4.679-0.729s3.771,0.311,3.312,1.805S407.713,186,407.713,186H398.743z"/>
			<path fill="#996234" d="M396.117,186.036c0,0-0.152-3.905-0.256-4.914c-0.197-1.889,1.41-5.807,1.41-6.523
				c0-0.716,0.11-1.467,1.061-0.405s0.017,4.626-0.387,6.41c-0.404,1.784,0.754,3.955,0.798,4.529
				c0.043,0.574-1.146-0.252-1.146-0.252L396.117,186.036z"/>
			<path fill="#996234" d="M408.383,186.283c0,0,1.229-4.153,1.331-5.162c0.196-1.889-1.41-5.807-1.41-6.523
				c0-0.716-0.11-1.467-1.062-0.405s-0.02,4.626,0.387,6.41s-1.541,3.775-1.585,4.349c-0.044,0.574,1.931-0.072,1.931-0.072
				L408.383,186.283z"/>
			<path fill="#8BC7E8" d="M394.387,186.036c0,0,0.731,4.833,3.726,5.812c2.988,0.98,4.023,1.319,6.714,0.156
				c2.687-1.163,4.106-0.522,3.907-2.946c-0.203-2.424,1.42-3.68-0.906-4.06c-2.508-0.409-9.25-0.87-9.715-0.925
				C395.252,183.737,394.387,186.036,394.387,186.036z"/>
			<path fill="#301705" d="M401.682,191.848c0,0-2.716-0.268-2.31-2.507c0.407-2.239-0.784-3.057,1.134-3.758
				s2.871-2.571,3.717-0.701c0.85,1.87,1.457,2.862,0.85,4.177c-0.61,1.315-0.481,1.636-1.262,2.469
				C403.035,192.36,401.682,191.848,401.682,191.848z"/>
		</g>
	</g>
	<g id="Boat_moviment_2_1_">
		
			<linearGradient id="SVGID_1_" gradientUnits="userSpaceOnUse" x1="412.3799" y1="-140.4395" x2="412.3799" y2="13.5057" gradientTransform="matrix(4.375628e-08 -1 -1 -4.375628e-08 32.5059 871.6129)">
			<stop  offset="0" style="stop-color:#FFFFFF;stop-opacity:0.8"/>
			<stop  offset="1" style="stop-color:#FFFFFF;stop-opacity:0"/>
		</linearGradient>
		<path opacity="0.8" fill="url(#SVGID_1_)" enable-background="new    " d="M19,406.342c15,2.039,28.435,11.414,40.985,13.858
			c12.551,2.446,22.403-0.815,37.484,2.038c15.081,2.853,24.083,13.043,34.68,15.896c10.597,2.854,29.957,3.758,37.609,10.031
			c7.652,6.273,4.694,12.191,4.694,12.191s1.242,5.085-4.686,9.939c-7.652,6.273-27,7.178-37.597,10.031
			c-10.597,2.853-19.575,13.043-34.656,15.896c-15.082,2.854-24.979-0.404-37.53,2.038C47.434,500.711,34,510.086,19,512.125
			V406.342z"/>
		<g id="Capa_4_2_">
			<path fill="#D1D1D1" d="M86.095,429.378v59.587l70.977,1.103c0,0,58.833,5.497,79.028-30.993
				c-19.396-35.29-77.552-31.292-77.552-31.292L86.095,429.378z"/>
			<path fill="#F4F4F4" d="M220.733,458.863c0,0,0.993,25.802-50.431,26.701c-51.425,0.896-56.89-2.661-56.89-2.661v-47.932
				l15.617-2.24h44.211C173.242,432.731,219.171,434.284,220.733,458.863z"/>
			<path fill="#E8E8E8" d="M221.051,459.171c0.378-19.938-25.112-26.254-49.189-27.854l-39.891,0.654l-28.794,1.001l-3.598,15.496
				l2.973,2.501l-0.075,16.6c0,0-2.499,2.098-2.499,2.598c0,2.816,3.399,15.199,3.399,15.199s19.549,0.438,28.347,0.646
				c0.299,0.01,39.642,1.143,40.138,1.123C195.892,486.288,220.637,480.853,221.051,459.171z M132.57,485.114
				c-0.65,0.101-27.293-2.549-27.293-2.549s-1.918-10.358-1.918-13.021c0-0.474,2.389-2.453,2.389-2.453l0.071-15.669l-2.842-2.355
				l2.299-13.791l27.261-2.304c23.661-0.333,23.994,0.135,39.324,0c23.487,1.822,48.439,8.999,47.988,26.46
				c-0.448,17.354-24.771,24.389-47.988,25.934C170.962,485.354,132.971,484.914,132.57,485.114z"/>
			<path fill="#FFFFFF" d="M173.652,459.384l0.24,0.01l-1.185-7.944l-3.324-3.243c-1.3-1.801-7.848-2.146-7.848-2.146h-12.147
				l-2.648,1.262l1.549,8.877l5.012,3.245l4.162-0.058L173.652,459.384L173.652,459.384z"/>
			<path fill="#FFFFFF" d="M173.651,459.222l0.241,0.172l-1.185,7.488l-3.324,3.188c-1.3,1.799-7.848,2.085-7.848,2.085h-12.147
				l-2.648-1.142l1.549-8.812l5.012-3.137l4.163,0.15L173.651,459.222z"/>
			<path fill="#C6C6C6" d="M152.497,470.968c0.375-0.021,5.908-3.55,5.908-3.55l0.168-16.012l-5.707-4.019h-0.801h-0.399h-0.399
				h-4.538v23.576C146.729,470.968,152.121,470.993,152.497,470.968z"/>
			<path fill="#394963" d="M77.206,467.792c-1.184-0.005-2.139-0.97-2.132-2.153l0.065-12.472c0.008-1.182,0.973-2.137,2.156-2.131
				l19.158,0.103c1.184,0.006,2.138,0.976,2.132,2.155l-0.068,12.471c-0.006,1.188-0.971,2.141-2.153,2.132L77.206,467.792z"/>
			<path fill="#29ABE2" d="M163.386,468.503v-8.082v-3.083v-7.282c0,0-3.258-2.334-11.333-2.715
				c-0.048-0.003-0.086,0.416-0.086,0.416c1.492,1.062,5.501,3.438,5.501,3.438l0.037,7.688l-0.049,8.488
				c0,0-4.026,2.371-5.519,3.432c0,0,0.068,0.42,0.115,0.418C160.128,470.835,163.386,468.503,163.386,468.503z"/>
			<g id="Timó_4_">
				<path d="M148.628,450.423c-3.249,0-3.484,10.709,0.03,10.709C151.745,461.132,152.035,450.423,148.628,450.423z
					 M148.664,451.354c2.322,0,2.124,8.849,0.02,8.849C146.289,460.2,146.45,451.354,148.664,451.354z"/>
				<path d="M150.441,454.435c0,0-1.013,0.025-0.999,1.236c0.013,1.213,0.912,1.049,0.999,1.075
					C150.529,456.771,150.441,454.435,150.441,454.435z"/>
				<polygon points="149.394,455.284 146.729,454.972 146.729,456.571 149.394,456.146 				"/>
				<path d="M150.142,456.371c0,0.021-1.699,3.911-1.699,3.911l0.999,0.147l1.175-3.937L150.142,456.371z"/>
				<path d="M150.142,454.745c0-0.023-1.699-4.023-1.699-4.023h0.999l1.175,3.787L150.142,454.745z"/>
			</g>
			<g id="Tapiceria_4_">
				<path fill="#B5A081" d="M171.361,485.366c0,0-0.101-13.102,13.797-15.997c13.896-2.898,32.992-4.603,33.393-4.798
					C218.95,464.371,214.151,483.966,171.361,485.366z"/>
				<path fill="#B5A081" d="M171.361,432.977c0,0-0.101,13.102,13.797,15.997c13.896,2.898,32.992,4.604,33.393,4.803
					C218.95,453.972,214.151,434.376,171.361,432.977z"/>
				<path fill="#B5A081" d="M116.874,433.977c0,0,3.224-0.958,2.1,2.198c-3.699,10.398-4.498,34.896,0.199,45.895
					c0.984,2.305,0.403,2.269-1.149,2.195c-1.165-0.052-13.246-1.695-13.246-1.695s-7.198-18.801,0-47.289L116.874,433.977z"/>
				<path fill="#B5A081" d="M131.678,471.377c-0.667,0-0.94-0.708-0.94-1.634v-21.094c0-0.928,0.273-1.93,0.94-1.93h7.036
					c0.666,0,1.353,1.002,1.353,1.93v21.094c0,0.928-1.187,1.634-1.853,1.634H131.678z"/>
			</g>
		</g>
		<g>
			<path fill="#996234" d="M144.886,451.012c0,0,1.469,1.186-0.868,1.731c-2.338,0.551-4.676,1.625-4.676,1.625
				s0.729,2.513,1.416,2.854c0.688,0.346,3.821,0.059,4.607,2.233c0.786,2.178,1.281,3.163-2.012,2.229
				c-3.293-0.93-5.617-1.269-5.617-1.269l-2.017-9.062l8.648-0.348"/>
			<path fill="#EF45B7" d="M136,452.155c0,0,5.419-3.305,5.239-1.539c-0.18,1.762-1.272,0.847-1.389,3.085
				c-0.117,2.233,1.743,1.933,0.803,4.679s-0.567,3.771-2.062,3.312c-1.495-0.465-2.591-0.564-2.591-0.564V452.155L136,452.155z"/>
			<path fill="#996234" d="M136.551,449.53c0,0,3.905-0.152,4.914-0.257c1.889-0.196,5.807,1.406,6.523,1.406
				c0.716,0,1.467,0.114,0.404,1.062c-1.062,0.946-4.626,0.016-6.41-0.387c-1.783-0.404-3.955,0.754-4.529,0.797
				c-0.573,0.044,0.253-1.146,0.253-1.146L136.551,449.53z"/>
			<path fill="#996234" d="M136.304,461.796c0,0,4.152,1.229,5.161,1.331c1.889,0.196,5.807-1.41,6.523-1.41
				c0.716,0,1.467-0.114,0.404-1.062c-1.062-0.947-4.626-0.02-6.41,0.387c-1.783,0.404-3.775-1.541-4.349-1.585
				c-0.574-0.044,0.072,1.931,0.072,1.931L136.304,461.796z"/>
			<path fill="#8BC7E8" d="M136.551,447.8c0,0-4.832,0.731-5.812,3.727c-0.98,2.988-1.319,4.023-0.156,6.714
				c1.162,2.687,0.521,4.106,2.946,3.903c2.424-0.199,3.68,1.424,4.06-0.902c0.409-2.508,0.869-9.25,0.925-9.715
				C138.85,448.665,136.551,447.8,136.551,447.8z"/>
			<path fill="#301705" d="M130.739,455.095c0,0,0.268-2.716,2.507-2.31c2.239,0.407,3.058-0.784,3.759,1.134
				c0.701,1.918,2.571,2.871,0.701,3.717c-1.87,0.85-2.862,1.457-4.177,0.85c-1.315-0.61-1.637-0.481-2.47-1.262
				C130.227,456.448,130.739,455.095,130.739,455.095z"/>
		</g>
	</g>
	<g id="Boat_moviment_1">
		
			<linearGradient id="SVGID_2_" gradientUnits="userSpaceOnUse" x1="555.3809" y1="-244.4199" x2="555.3809" y2="-90.1481" gradientTransform="matrix(-4.371139e-08 -1 1 -4.371139e-08 861.1484 871.6129)">
			<stop  offset="0" style="stop-color:#FFFFFF;stop-opacity:0.8"/>
			<stop  offset="1" style="stop-color:#FFFFFF;stop-opacity:0"/>
		</linearGradient>
		<path opacity="0.8" fill="url(#SVGID_2_)" enable-background="new    " d="M771,263.342c-15,2.039-28.607,11.414-41.158,13.858
			c-12.551,2.446-22.489-0.815-37.57,2.038c-15.077,2.854-24.125,13.043-34.724,15.896c-10.597,2.853-29.979,3.757-37.631,10.03
			s-4.705,12.192-4.705,12.192s-1.247,5.084,4.681,9.943c7.652,6.273,26.997,7.178,37.599,10.03
			c10.597,2.854,19.569,13.043,34.65,15.897c15.082,2.853,25.151-0.408,37.702,2.038C742.395,357.71,756,367.085,771,369.123
			V263.342L771,263.342z"/>
		<g id="Capa_4">
			<path fill="#D1D1D1" d="M696.382,344.159V287.1l-67.966-1.052c0,0-56.338-5.265-75.676,29.679
				c18.572,33.793,74.262,29.964,74.262,29.964L696.382,344.159z"/>
			<path fill="#F4F4F4" d="M567.455,315.924c0,0-0.951-24.708,48.291-25.568c49.242-0.862,54.476,2.548,54.476,2.548v45.895
				l-14.955,2.149h-42.334C612.931,340.948,568.95,339.461,567.455,315.924z"/>
			<path fill="#E8E8E8" d="M567.15,315.63c-0.361,19.093,24.047,25.14,47.104,26.672l38.197-0.63l27.572-0.959l3.441-14.838
				l-2.847-2.396l0.072-15.891c0,0,2.393-2.009,2.393-2.488c0-2.697-3.255-14.554-3.255-14.554s-18.719-0.423-27.144-0.622
				c-0.286-0.007-37.964-1.09-38.438-1.076C591.242,289.664,567.548,294.868,567.15,315.63z M651.878,290.787
				c0.622-0.096,26.135,2.44,26.135,2.44s1.837,9.919,1.837,12.464c0,0.454-2.287,2.349-2.287,2.349l-0.064,15.005l2.721,2.259
				l-2.201,13.206l-26.104,2.202c-22.658,0.319-22.979-0.125-37.656,0c-22.491-1.745-46.385-8.617-45.953-25.337
				c0.433-16.617,23.725-23.351,45.953-24.83C615.114,290.557,651.494,290.979,651.878,290.787z"/>
			<path fill="#FFFFFF" d="M612.538,315.426l-0.229-0.009l1.139,7.611l3.183,3.106c1.244,1.724,7.517,2.053,7.517,2.053h11.634
				l2.536-1.205l-1.482-8.5l-4.8-3.107l-3.985,0.051H612.538z"/>
			<path fill="#FFFFFF" d="M612.54,315.581l-0.231-0.165l1.139-7.17l3.183-3.048c1.244-1.722,7.515-1.997,7.515-1.997h11.636
				l2.532,1.09l-1.479,8.442l-4.8,3l-3.985-0.145L612.54,315.581z"/>
			<path fill="#C6C6C6" d="M632.796,304.333c-0.354,0.024-5.657,3.399-5.657,3.399l-0.157,15.333l5.465,3.844h0.767h0.383h0.387
				h4.346v-22.576C638.32,304.333,633.156,304.309,632.796,304.333z"/>
			<path fill="#394963" d="M704.893,307.375c1.138,0.005,2.052,0.929,2.042,2.062l-0.062,11.942
				c-0.007,1.132-0.931,2.047-2.064,2.041l-18.347-0.098c-1.133-0.005-2.046-0.93-2.04-2.063l0.064-11.941
				c0.006-1.134,0.93-2.046,2.062-2.041L704.893,307.375z"/>
			<path fill="#29ABE2" d="M622.37,306.693v7.74v2.952v6.974c0,0,3.119,2.235,10.852,2.599c0.046,0.003,0.083-0.398,0.083-0.398
				c-1.429-1.016-5.268-3.288-5.268-3.288L628,315.909l0.048-8.128c0,0,3.855-2.271,5.284-3.286c0,0-0.065-0.402-0.11-0.401
				C625.489,304.461,622.37,306.693,622.37,306.693z"/>
			<g id="Timó_6_">
				<path d="M636.502,324.007c3.11,0,3.336-10.255-0.029-10.255C633.517,313.752,633.238,324.007,636.502,324.007z M636.467,323.115
					c-2.224,0-2.034-8.47-0.019-8.47C638.741,314.645,638.586,323.115,636.467,323.115z"/>
				<path d="M634.765,320.166c0,0,0.973-0.024,0.957-1.184c-0.013-1.162-0.874-1.004-0.957-1.029
					C634.681,317.928,634.765,320.166,634.765,320.166z"/>
				<polygon points="635.768,319.352 638.32,319.651 638.32,318.119 635.768,318.527 				"/>
				<path d="M635.051,318.311c0-0.023,1.628-3.745,1.628-3.745l-0.956-0.145l-1.125,3.77L635.051,318.311z"/>
				<path d="M635.051,319.868c0,0.022,1.628,3.853,1.628,3.853h-0.956l-1.125-3.626L635.051,319.868z"/>
			</g>
			<g id="Tapiceria_6_">
				<path fill="#B5A081" d="M614.254,290.546c0,0-0.404,12.542-13.712,15.319c-13.308,2.775-31.093,4.403-31.476,4.594
					C568.683,310.65,573.279,291.887,614.254,290.546z"/>
				<path fill="#B5A081" d="M614.254,340.713c0,0,0.096-12.542-13.212-15.318c-13.787-2.876-32.177-4.697-31.976-4.596
					C568.683,320.608,573.279,339.373,614.254,340.713z"/>
				<path fill="#B5A081" d="M665.93,339.755c0,0-3.088,0.917-2.011-2.104c3.542-9.958,4.308-33.415-0.19-43.944
					c-0.939-2.207-0.387-2.172,1.104-2.106c1.115,0.049,12.684,1.626,12.684,1.626s6.896,18,0,45.283L665.93,339.755z"/>
				<path fill="#B5A081" d="M652.232,303.941c0.639,0,1.396,0.679,1.396,1.565v20.199c0,0.884-0.262,1.844-0.896,1.844h-6.737
					c-0.639,0-1.296-0.96-1.296-1.844v-20.199c0-0.889,0.656-1.565,1.296-1.565H652.232z"/>
			</g>
		</g>
		<g>
			<path fill="#996234" d="M640.084,323.443c0,0-1.406-1.132,0.832-1.659c2.239-0.527,4.477-1.556,4.477-1.556
				s-0.694-2.405-1.354-2.734c-0.658-0.328-3.659-0.053-4.411-2.139c-0.753-2.086-1.229-3.029,1.926-2.138
				c3.153,0.891,5.379,1.215,5.379,1.215l1.936,8.678l-8.282,0.333"/>
			<path fill="#EF45B7" d="M648,322.348c0,0-4.892,3.161-4.722,1.474c0.174-1.687,1.368-0.811,1.479-2.954
				c0.112-2.143-1.595-1.851-0.69-4.48c0.896-2.63,0.278-3.612,1.714-3.169c1.43,0.442,2.222,0.54,2.222,0.54L648,322.348
				L648,322.348z"/>
			<path fill="#996234" d="M648.066,324.861c0,0-3.74,0.146-4.707,0.247c-1.812,0.188-5.562-1.351-6.246-1.351
				c-0.688,0-1.404-0.109-0.392-1.017c1.021-0.905,4.435-0.014,6.144,0.371c1.707,0.387,3.787-0.721,4.337-0.763
				c0.549-0.042-0.242,1.095-0.242,1.095L648.066,324.861z"/>
			<path fill="#996234" d="M648.303,313.116c0,0-3.977-1.174-4.939-1.274c-1.812-0.188-5.562,1.35-6.246,1.35
				c-0.688,0-1.404,0.11-0.392,1.017c1.021,0.907,4.435,0.015,6.144-0.371c1.707-0.387,3.615,1.476,4.164,1.518
				c0.55,0.042-0.069-1.849-0.069-1.849L648.303,313.116z"/>
			<path fill="#8BC7E8" d="M648.066,326.519c0,0,4.626-0.7,5.562-3.565c0.938-2.865,1.264-3.856,0.15-6.429
				c-1.114-2.573-0.5-3.936-2.822-3.741c-2.321,0.194-3.522-1.36-3.888,0.867c-0.395,2.401-0.832,8.858-0.889,9.303
				C645.865,325.69,648.066,326.519,648.066,326.519z"/>
			<path fill="#301705" d="M653.631,319.533c0,0-0.256,2.601-2.4,2.211c-2.144-0.39-2.928,0.751-3.6-1.085
				c-0.671-1.836-2.462-2.75-0.671-3.559c1.79-0.81,2.741-1.395,3.999-0.81c1.261,0.584,1.567,0.461,2.365,1.205
				C654.122,318.237,653.631,319.533,653.631,319.533z"/>
		</g>
	</g>
	<polygon opacity="0.8" fill="#F90606" enable-background="new    " points="79,310 78,310 78,302.016 57.366,316.183 78,330.351 
		78,322 79,322 526,322 526,310 	"/>
	<polygon opacity="0.8" fill="#F90606" enable-background="new    " points="708.366,464 709,464 709,472.351 729.634,458.184 
		709,444.016 709,452 708.366,452 274,452 274,464 	"/>
</g>
<rect x="-0.63" y="-46" fill="#A0A0A0" width="659.261" height="110"/>
<g>
	<path fill="#BFBFBF" d="M525.285,230.154h55.422l1.021-66.375c0,0,5.114-54.899-28.826-73.683
		c-32.824,18.04-29.104,72.4-29.104,72.4L525.285,230.154z"/>
	<path fill="#E2E2E2" d="M553.037,104.209c0,0,23.834-0.862,24.672,46.969c0.836,47.832-2.639,52.976-2.639,52.976h-44.578
		l-1.436-14.65v-41.122C529.058,148.382,530.175,105.663,553.037,104.209z"/>
	<path fill="#CECECE" d="M552.996,103.915c-18.545-0.353-24.418,23.357-25.908,45.751l0.613,37.104l0.931,26.782l14.413,3.347
		l2.324-2.767l15.437,0.069c0,0,1.952,2.325,2.417,2.325c2.619,0,14.137-3.162,14.137-3.162s0.411-18.182,0.604-26.366
		c0.006-0.276,1.059-36.871,1.043-37.332C578.219,127.315,573.162,104.298,552.996,103.915z M577.127,186.21
		c0.093,0.604-2.373,25.385-2.373,25.385s-9.633,1.785-12.104,1.785c-0.439,0-2.283-2.223-2.283-2.223l-14.572-0.066l-2.193,2.645
		l-12.827-2.139l-2.14-25.355c-0.311-22.007,0.121-22.316,0-36.576c1.693-21.847,8.369-45.055,24.611-44.635
		c16.139,0.417,22.68,23.039,24.117,44.635C577.35,150.503,576.94,185.837,577.127,186.21z"/>
	<path fill="#BABABA" d="M563.072,152.223l-2.578-3.092l-6.438-1.102v0.125h-1.015h-0.094h0.107v-0.125l-7.005,1.102l-3.01,3.092
		c-1.674,1.209-1.985,7.299-1.985,7.299v11.299l1.041,2.464l8.192-1.441l2.725-4.365l2.732,4.365l8.213,1.441l1.098-2.464v-11.299
		C565.058,159.522,564.746,153.432,563.072,152.223z"/>
	<path fill="#C6C6C6" d="M563.969,167.733c-0.022-0.349-3.303-5.522-3.303-5.522l-14.883-0.17l-3.727,5.293v0.744v0.372v0.372v4.332
		h21.911C563.969,173.154,563.992,168.081,563.969,167.733z"/>
	<path fill="#29ABE2" d="M561.675,158.154h-7.517h-2.867h-6.772c0,0-2.171,2.729-2.525,10.239c-0.002,0.044,0.389-0.073,0.389-0.073
		c0.986-1.389,3.191-5.191,3.191-5.191l7.151-0.072l7.896,0.027c0,0,2.205,3.735,3.19,5.122c0,0,0.392,0.234,0.39,0.191
		C563.847,160.886,561.675,158.154,561.675,158.154z"/>
	<g id="Timó_10_">
		<path d="M544.859,171.275c0,3.023,9.961,3.242,9.961-0.027C554.82,168.376,544.859,168.106,544.859,171.275z M545.726,171.243
			c0-2.161,8.229-1.978,8.229-0.021C553.953,173.45,545.726,173.302,545.726,171.243z"/>
		<path d="M548.591,169.587c0,0,0.022,0.942,1.151,0.931c1.127-0.011,0.977-0.849,1-0.931
			C550.765,169.507,548.591,169.587,548.591,169.587z"/>
		<polygon points="549.381,170.154 549.091,173.154 550.578,173.154 550.183,170.154 		"/>
		<path d="M550.392,169.867c0.022,0,3.639,1.581,3.639,1.581l0.141-0.93l-3.662-1.093L550.392,169.867z"/>
		<path d="M548.842,169.867c-0.022,0-3.784,1.581-3.784,1.581v-0.93l3.542-1.093L548.842,169.867z"/>
	</g>
	<g id="Tapiceria_10_">
		<path fill="#B5A081" d="M577.361,149.666c0,0-12.183,0.093-14.879-12.832c-2.695-12.926-4.277-30.687-4.464-31.059
			S576.059,109.866,577.361,149.666z"/>
		<path fill="#B5A081" d="M528.633,149.666c0,0,12.182,0.093,14.878-12.832c2.696-12.926,4.276-30.687,4.463-31.059
			C548.161,105.403,529.935,109.866,528.633,149.666z"/>
		<path fill="#B5A081" d="M529.562,200.345c0,0-0.892-2.998,2.046-1.953c9.671,3.439,32.452,4.185,42.683-0.186
			c2.144-0.916,2.109-0.376,2.045,1.069c-0.049,1.083-1.582,12.319-1.582,12.319s-17.479,6.697-43.981,0L529.562,200.345z"/>
		<path fill="#B5A081" d="M565.058,187.041c0,0.621-1.365,1.113-2.228,1.113h-19.621c-0.86,0-1.152-0.492-1.152-1.113v-6.544
			c0-0.618,0.292-1.343,1.152-1.343h19.621c0.859,0,2.228,0.725,2.228,1.343V187.041z"/>
	</g>
	<circle fill="#3B59AD" cx="520.402" cy="138.497" r="4.908"/>
	<circle fill="#3B59AD" cx="585.654" cy="138.497" r="4.908"/>
	<circle fill="#3B59AD" cx="585.654" cy="192.778" r="4.908"/>
	<circle fill="#3B59AD" cx="519.826" cy="193.355" r="4.908"/>
</g>
</svg>
