<?xml version="1.0" encoding="utf-8"?>
<!-- Generator: Adobe Illustrator 16.0.0, SVG Export Plug-In . SVG Version: 6.00 Build 0)  -->
<!DOCTYPE svg PUBLIC "-//W3C//DTD SVG 1.1//EN" "http://www.w3.org/Graphics/SVG/1.1/DTD/svg11.dtd">
<svg version="1.1" id="Capa_1" xmlns="http://www.w3.org/2000/svg" xmlns:xlink="http://www.w3.org/1999/xlink" x="0px" y="0px"
	 width="800px" height="800px" viewBox="0 0 800 800" enable-background="new 0 0 800 800" xml:space="preserve">
<g id="cèl">
	<g id="Cèl_2_">
		
			<linearGradient id="SVGID_1_" gradientUnits="userSpaceOnUse" x1="411.3379" y1="-661.0088" x2="1210.5" y2="-661.0088" gradientTransform="matrix(-4.371139e-08 -1 1 -4.371139e-08 1061.5 1210.4995)">
			<stop  offset="0.1444" style="stop-color:#FFFFFF"/>
			<stop  offset="1" style="stop-color:#00C3FF"/>
		</linearGradient>
		<polygon fill="url(#SVGID_1_)" points="0,0 800,0 800.981,799.162 0.982,799.162 		"/>
	</g>
</g>
<g id="_x34_">
	<g id="Ancla_copia_2_1_">
		<path fill="#727272" d="M746.324,724.928c0.234-0.399-0.419-1.497-0.548-1.668c-0.093-0.107-0.224-0.137-0.374-0.111
			c-0.272,0.044-0.634,0.262-0.924,0.479c-0.454,0.256-18.735,6.996-29.656,11.017c-4.881,1.798-8.729,3.217-9.344,3.45
			c-0.885,0.336-1.413,0.752-1.575,1.222c-0.129,0.377,0.032,0.646,0.042,0.658c0.463,1.19,0.854,1.115,1.507,0.864
			c0.11-0.039,0.229-0.084,0.366-0.125c0.816-0.247,33.183-11.188,34.561-11.646c0.443-0.186,1.689-0.604,2.188-0.37
			c0.567,0.271,1.425,1.836,1.762,2.611c1.592,3.692,2.36,6.42,1.938,6.797c-0.137,0.118-0.677,0.326-2.771-0.312
			c-1.188-0.363-2.413-0.872-2.709-1.023c-0.053-0.031-6.091-2.979-7.263-2.592c-0.104,0.035-0.188,0.102-0.229,0.19
			c-0.396,0.834,0.629,2.221,1.812,3.821l0.312,0.418c0.969,1.322,2.166,2.729,2.646,3.273c-0.947-0.005-3.662-0.014-4.068,0.018
			c-0.038,0.009-0.104,0.016-0.172,0.021c-0.266,0.042-0.713,0.16-0.965,0.487c-0.162,0.21-0.217,0.468-0.16,0.764
			c0.105,0.56,1.001,1.275,1.948,2.038c0.155,0.13,0.312,0.259,0.466,0.384c-0.043,0.025-0.083,0.062-0.133,0.088
			c-1.084,0.761-2.572,1.801-2.658,2.649c-0.021,0.218,0.041,0.407,0.195,0.565c0.705,0.748,3.128-0.004,7.604-2.354
			c3.354-1.766,7.988-5.053,8.034-5.083c1.003-0.71,2.381-2.59,2.162-4.369c-0.215-1.692-3.656-11.106-4.028-12.124
			C746.292,724.95,746.304,724.938,746.324,724.928z"/>
		<g>
			<path fill="#727272" d="M706.38,739.541c0.055-0.116,0.062-0.245,0.021-0.368c-0.084-0.248-0.354-0.383-0.618-0.292
				c-0.12,0.045-0.218,0.134-0.271,0.248c-0.057,0.116-0.062,0.247-0.021,0.369c0.077,0.217,0.31,0.348,0.531,0.312
				c0.027-0.006,0.062-0.012,0.089-0.021C706.233,739.745,706.331,739.657,706.38,739.541z"/>
			<path fill="#727272" d="M750.036,737.12c-0.191-1.595-3.445-10.524-3.97-11.94c-0.146,0.106-0.329,0.177-0.499,0.185
				c-0.207,0.021-0.385-0.058-0.497-0.194c-0.155-0.2-0.346-0.537-0.478-0.79l-0.021,0.062l-35.671,12.688
				c-1.781,0.658-2.992,1.104-3.312,1.229c-0.986,0.377-1.31,0.771-1.399,1.031c-0.087,0.248,0.005,0.417,0.021,0.447
				c0.396,1.001,0.599,0.925,1.146,0.718c0.116-0.042,0.238-0.089,0.381-0.132c0.188-0.058,2.104-0.694,4.948-1.65
				c0.4-1.055,1.641-1.479,1.692-1.502c1.146-0.433,28.234-10.59,31.023-9.605c0.737,0.258,1.612,2.342,1.709,2.569
				c0.083,0.195,2.146,4.849,2.515,6.658c0.524,2.649-2.576,4.562-3.826,5.063c-1.062,0.425-5.229,0.314-5.397,0.346l-0.003,0.001
				c-0.142,0.021-3.907-0.089-4.381-0.053c-0.321,0.025-0.743,0.07-0.936,0.334c-0.109,0.146-0.146,0.315-0.106,0.529
				c0.087,0.45,1.02,1.201,1.844,1.863c0.551,0.449,1.077,0.872,1.409,1.235c0.433,0.479,0.594,0.812,0.505,1.031
				c-0.056,0.135-0.186,0.188-0.255,0.188l-0.018-0.296c0.001,0,0.062-0.151-0.452-0.725c-0.167-0.196-0.403-0.404-0.671-0.635
				c-0.067,0.048-0.132,0.095-0.2,0.145c-0.921,0.646-2.463,1.723-2.535,2.438c-0.017,0.134,0.028,0.241,0.117,0.343
				c0.396,0.425,1.983,0.351,7.253-2.423c2.062-1.084,4.62-2.747,6.279-3.865c-3.021,0.646-9.438,0.513-11.691,0.466
				c-0.423-0.009-0.756-0.021-0.805-0.016l-0.021-0.146l-0.05-0.141c0.007-0.006,0.011-0.006,0.026-0.01
				c0.049-0.009,0.183-0.003,0.854,0.012c2.492,0.058,10.07,0.218,12.442-0.688c0.59-0.409,0.958-0.672,0.972-0.68
				C748.797,740.642,750.232,738.848,750.036,737.12z M706.649,739.664c-0.087,0.188-0.244,0.329-0.438,0.396
				c-0.408,0.147-0.854-0.069-0.991-0.468c-0.067-0.195-0.054-0.405,0.029-0.592c0.088-0.188,0.239-0.33,0.438-0.398
				c0.041-0.016,0.096-0.027,0.145-0.035c0.364-0.059,0.725,0.152,0.852,0.503C706.747,739.267,706.739,739.479,706.649,739.664z"/>
			<path fill="#727272" d="M711.061,738.631c9.646-3.244,28.956-9.77,29.211-9.854c0.169-0.063,1.71-0.688,2.41-0.354
				c0.731,0.347,1.643,2.146,1.904,2.764c1.021,2.376,2.624,6.46,1.855,7.128c-0.935,0.813-5.459-1.109-5.809-1.301
				c-0.688-0.363-6.104-2.889-7.034-2.57c-0.019,0.005-0.051,0.018-0.059,0.031c-0.321,0.681,0.698,2.068,1.782,3.533l0.312,0.418
				c1.12,1.522,2.543,3.156,2.808,3.451c0.529,0.016,4.293,0.116,5.229-0.264c1.104-0.438,4.146-2.262,3.656-4.692
				c-0.359-1.788-2.468-6.533-2.492-6.592c-0.249-0.604-1.021-2.216-1.533-2.396c-2.697-0.95-30.553,9.505-30.837,9.609
				C712.456,737.544,711.5,737.88,711.061,738.631z"/>
			<path fill="#727272" d="M744.324,724.208l0.1-0.253c-0.955,0.394-5.021,1.911-11.938,4.472L744.324,724.208z"/>
			<path fill="#727272" d="M746.058,724.774c0.104-0.18-0.304-1.056-0.526-1.337c-0.037-0.052-0.349,0.021-0.885,0.413l0.045,0.098
				c0.004,0.016,0.354,0.729,0.595,1.036c0.058,0.067,0.146,0.102,0.246,0.091C745.75,725.062,745.98,724.907,746.058,724.774z"/>
			<path fill="#727272" d="M746.312,724.925c0.233-0.398-0.418-1.497-0.548-1.666c-0.091-0.107-0.223-0.137-0.377-0.112
				c-0.271,0.043-0.63,0.264-0.92,0.479c-0.455,0.254-18.737,6.996-29.655,11.014c-4.883,1.801-8.733,3.22-9.346,3.451
				c-0.884,0.338-1.414,0.752-1.574,1.221c-0.129,0.376,0.034,0.649,0.041,0.66c0.465,1.19,0.854,1.112,1.508,0.862
				c0.11-0.036,0.23-0.083,0.364-0.124c0.819-0.246,33.181-11.188,34.56-11.646c0.448-0.185,1.693-0.604,2.188-0.368
				c0.568,0.271,1.426,1.835,1.761,2.609c1.591,3.696,2.363,6.421,1.938,6.801c-0.143,0.119-0.678,0.326-2.772-0.312
				c-1.188-0.364-2.414-0.872-2.707-1.024c-0.055-0.031-6.087-2.979-7.264-2.591c-0.107,0.031-0.188,0.103-0.23,0.188
				c-0.396,0.835,0.631,2.229,1.814,3.828l0.309,0.422c0.976,1.327,2.167,2.73,2.647,3.281c0.18,0.003,0.302,0.021,0.327,0.021
				l0.004,0.318c0,0,0.005,0.063,0.002,0.063l0.005-0.001c0.171-0.026,4.343,0.08,5.397-0.347c1.237-0.494,4.346-2.444,3.815-5.101
				c-0.357-1.812-2.418-6.438-2.506-6.64c-0.097-0.23-0.969-2.312-1.709-2.568c-2.789-0.976-29.878,9.188-31.023,9.619
				c-0.054,0.021-1.291,0.449-1.69,1.502c-2.844,0.958-4.763,1.604-4.948,1.653c-0.139,0.04-0.265,0.093-0.383,0.133
				c-0.55,0.207-0.754,0.285-1.146-0.717c-0.015-0.03-0.105-0.2-0.021-0.445c0.099-0.266,0.417-0.657,1.4-1.033
				c0.315-0.121,1.526-0.564,3.312-1.229l35.669-12.688l0.021-0.062c0.135,0.251,0.319,0.588,0.479,0.789
				c0.113,0.143,0.289,0.213,0.496,0.195c0.169-0.014,0.349-0.079,0.497-0.185c-0.038-0.116-0.067-0.188-0.071-0.192l0.274-0.104
				c0.006,0.016,0.015,0.042,0.033,0.074C746.292,724.95,746.304,724.938,746.312,724.925z M711.05,738.642
				c0.438-0.756,1.396-1.094,1.409-1.098c0.28-0.104,28.139-10.562,30.836-9.613c0.521,0.183,1.286,1.796,1.529,2.4
				c0.025,0.056,2.141,4.805,2.492,6.589c0.482,2.438-2.555,4.254-3.651,4.698c-0.935,0.368-4.694,0.271-5.229,0.26
				c-0.26-0.295-1.682-1.924-2.802-3.451l-0.312-0.418c-1.084-1.47-2.104-2.854-1.786-3.535c0.012-0.013,0.039-0.025,0.062-0.029
				c0.937-0.313,6.353,2.206,7.037,2.569c0.348,0.188,4.871,2.108,5.805,1.303c0.771-0.668-0.835-4.754-1.857-7.129
				c-0.263-0.609-1.174-2.419-1.9-2.764c-0.697-0.335-2.238,0.287-2.412,0.354C740.015,728.864,720.699,735.393,711.05,738.642z
				 M744.424,723.959l-0.101,0.254l-11.842,4.214C739.405,725.866,743.469,724.348,744.424,723.959z M746.062,724.773
				c-0.076,0.133-0.307,0.287-0.53,0.302c-0.104,0.012-0.188-0.021-0.246-0.092c-0.24-0.305-0.59-1.021-0.594-1.036l-0.045-0.097
				c0.532-0.389,0.847-0.465,0.888-0.413C745.752,723.716,746.165,724.596,746.062,724.773z"/>
			<path fill="#727272" d="M735.331,745.78c-0.069-0.064-0.152-0.133-0.232-0.188c-0.045,0.021-0.085,0.062-0.134,0.089
				c-1.085,0.762-2.572,1.801-2.658,2.646c-0.021,0.219,0.04,0.408,0.197,0.569c0.707,0.747,3.124-0.003,7.604-2.354
				c3.354-1.766,7.988-5.056,8.034-5.084c1-0.71,2.38-2.594,2.162-4.368c-0.213-1.689-3.66-11.108-4.035-12.126
				c-0.058,0.09-0.135,0.163-0.229,0.227c0.519,1.416,3.771,10.354,3.972,11.938c0.21,1.721-1.229,3.521-2.041,4.095
				c-0.009,0.009-0.38,0.271-0.975,0.686c0.007-0.003,0.016-0.011,0.021-0.012l0.104,0.271c-0.241,0.095-0.535,0.171-0.875,0.247
				c-1.664,1.122-4.224,2.785-6.279,3.87c-5.271,2.769-6.854,2.843-7.255,2.415c-0.099-0.104-0.13-0.209-0.115-0.344
				c0.071-0.722,1.612-1.8,2.534-2.438C735.206,745.868,735.269,745.825,735.331,745.78z"/>
			<path fill="#727272" d="M746.281,724.963c-0.014-0.031-0.021-0.062-0.023-0.075l-0.273,0.104c0.003,0.012,0.031,0.08,0.071,0.192
				C746.144,725.123,746.224,725.049,746.281,724.963z"/>
			<path fill="#727272" d="M738.262,742.118c-0.002,0-0.083-0.094-0.213-0.239c-0.949-0.005-3.665-0.02-4.075,0.018
				c-0.034,0.004-0.099,0.01-0.168,0.021c-0.264,0.042-0.711,0.158-0.962,0.484c-0.163,0.208-0.218,0.471-0.161,0.768
				c0.102,0.56,1,1.271,1.948,2.039c0.15,0.125,0.312,0.257,0.465,0.382c0.074-0.049,0.146-0.104,0.208-0.146l0.17,0.236
				c-0.043,0.03-0.093,0.071-0.139,0.101c0.267,0.229,0.494,0.438,0.671,0.636c0.514,0.563,0.451,0.723,0.451,0.723l0.019,0.298
				c0.067-0.005,0.198-0.054,0.255-0.188c0.088-0.226-0.073-0.552-0.506-1.032c-0.326-0.362-0.854-0.786-1.41-1.234
				c-0.822-0.663-1.751-1.414-1.842-1.862c-0.039-0.216-0.008-0.39,0.106-0.53c0.19-0.265,0.604-0.37,0.925-0.396
				c0.466-0.036,4.221-0.018,4.369-0.015l-0.064-0.007L738.262,742.118z"/>
			<path fill="#727272" d="M738.372,741.872c-0.023,0-0.146-0.006-0.324-0.002c0.138,0.146,0.211,0.232,0.214,0.237l0.042,0.052
				l0.062,0.006c0.002,0,0.011,0,0.012,0L738.372,741.872z"/>
			<path fill="#727272" d="M735.309,745.443c-0.066,0.044-0.139,0.101-0.207,0.144c0.078,0.062,0.159,0.131,0.231,0.19
				c0.045-0.026,0.097-0.062,0.141-0.099L735.309,745.443z"/>
			<path fill="#727272" d="M746.247,742.416c0.278-0.193,0.536-0.366,0.76-0.52c-2.371,0.896-9.948,0.735-12.441,0.687
				c-0.673-0.021-0.806-0.021-0.854-0.013c-0.016,0.001-0.021,0.009-0.025,0.013l0.05,0.137l0.021,0.146
				c0.049-0.004,0.383,0.013,0.804,0.017C736.815,742.924,743.229,743.059,746.247,742.416z"/>
			<path fill="#727272" d="M747.013,741.896c-0.223,0.153-0.479,0.322-0.76,0.52c0.336-0.068,0.635-0.146,0.876-0.246l-0.104-0.273
				C747.018,741.893,747.012,741.896,747.013,741.896z"/>
			<path fill="#727272" d="M706.65,739.666c0.089-0.188,0.103-0.396,0.027-0.6c-0.128-0.348-0.481-0.562-0.85-0.503
				c-0.051,0.008-0.1,0.021-0.146,0.035c-0.194,0.07-0.352,0.212-0.438,0.398c-0.091,0.188-0.104,0.396-0.028,0.592
				c0.144,0.396,0.583,0.615,0.991,0.468C706.405,739.993,706.562,739.852,706.65,739.666z M706.389,739.539
				c-0.054,0.11-0.151,0.204-0.272,0.245c-0.022,0.014-0.062,0.021-0.088,0.021c-0.229,0.037-0.454-0.095-0.532-0.312
				c-0.044-0.12-0.033-0.25,0.021-0.367c0.061-0.115,0.146-0.203,0.275-0.247c0.256-0.092,0.523,0.045,0.612,0.29
				C706.446,739.292,706.439,739.424,706.389,739.539z"/>
		</g>
	</g>
	<g id="Cadena_1_">
		<path fill="none" stroke="#727272" stroke-width="1.5" stroke-linecap="round" stroke-miterlimit="10" d="M436.832,518.561
			c0,0,3.548-3.646,5.98-3.362c2.432,0.283,3.854,3.941,3.964,14.134c0.108,10.192-9.944,233.17,123.299,207.352
			c6.358-0.412,56.821,0.643,62.862,0.117c6.043-0.524,65.528,8.193,71.007,3.174"/>
		<path fill="none" stroke="#727272" stroke-width="3" stroke-linecap="round" stroke-miterlimit="10" stroke-dasharray="1.5,4" d="
			M436.832,518.561c0,0,3.548-3.646,5.98-3.362c2.432,0.283,3.854,3.941,3.964,14.134c0.108,10.192-9.944,233.17,123.299,207.352
			c6.358-0.412,56.821,0.643,62.862,0.117c6.043-0.524,65.528,8.193,71.007,3.174"/>
	</g>
	<g id="Barco_Petit_copia_2_2_">
		<g>
			<g id="Capa_22_copia_3_">
				<path fill="#36627A" d="M135.3,511.435c-1.159,0.242-4.863,8.265-3.69,14.597c1.176,6.332,4.553,20.998,6.495,23.414
					c1.944,2.416,4.38,6.737,4.38,6.737s-8.572,4.604-9.938,7.618c0,0,0.003,1.229,1.05,1.07c1.047-0.166,10.188-0.664,10.618,0.356
					c0.43,1.027,1.264,6.354,1.402,7.047c0.14,0.695-0.245,3.847-0.377,4.976c-0.055,0.469-2.859,4.979-2.346,6
					c0.519,1.021,4.314,1.058,6.43,1.006c2.114-0.047,13.387-7.604,14.959-8.989c1.574-1.39,2.013-18.19,2.013-18.19
					s-3.206-21.963-2.419-22.008c0.788-0.045,6.105-2.187,7.812-4.164c1.708-1.979,1.074-11.554,0.266-13.082
					C171.139,516.291,152.682,507.769,135.3,511.435z"/>
				<path fill="#6C808C" d="M143.919,572.034c0,0,1.826-0.37,1.931-0.146c0.105,0.229,0.505,0.861,0.419,2.082
					c-0.087,1.22,0.381,2.771-0.581,2.891c-0.962,0.118-1.624,0.117-1.624,0.117s-1.604,3.959-4.077,5.156
					c-2.472,1.199-4.135,0.791-2.615-0.776c1.518-1.562,4.374-3.411,4.101-4.056c-0.271-0.641-5.061,0.016-5.061,0.016l0.043-3.87
					c0,0,3.661-0.354,3.843-0.281c0.182,0.062,1.562-0.955,0.514-1.406c-1.048-0.452-5.559,0.007-4.839-1.592
					c0.72-1.604,0.545-1.584,2.25-1.797c1.706-0.223,3.886,0.625,4.855,1.797C144.044,571.336,143.919,572.034,143.919,572.034z"/>
			</g>
			<path fill="#FF0000" d="M241.078,559.148l-17.229-14.418l-72.279-4.104c22.56-4.644,65.304-11.433,128.988-15.354
				c45.75-2.812,84.083-3.11,101.812-2.216c32.238,1.638,53.926-0.236,59.435-0.801c-0.938,0.594-2.312,1.521-3.146,2.297
				c-0.633,0.588-1.188,1.383-1.972,2.479c-1.569,2.229-3.97,5.442-9.271,10.442l-0.529,0.479
				c-35.387,17.238-83.354,22.317-117.805,23.302C272.588,562.299,242.619,559.309,241.078,559.148z"/>
			<path d="M281.412,501.426c-0.308-0.624-0.554-1.092-0.752-1.44c-0.1-0.176-0.187-0.316-0.264-0.439
				c-0.383-0.611-0.509-0.613-0.586-0.615l-0.219,0.14c-0.103,0.192-0.218,0.403-0.354,0.626c-0.089,0.146-0.184,0.297-0.285,0.45
				c-0.051,0.073-0.103,0.151-0.153,0.229c-1.396,2.022-3.712,4.411-5.104,4.045c-0.664-0.181-1.062-0.625-1.222-1.379
				c-0.021-0.089-0.033-0.185-0.044-0.272c-0.011-0.099-0.021-0.19-0.021-0.302c-0.087-2.688,2.308-7.956,5.458-11.312
				c0.485-0.521,0.988-0.983,1.502-1.396c0.286-0.229,0.61-0.459,0.953-0.654c0.549-0.312,1.146-0.537,1.7-0.512
				c0.208,0.012,0.412,0.059,0.606,0.146c0.309,0.146,0.514,0.388,0.627,0.729c0.074,0.229,0.104,0.498,0.103,0.785
				c-0.022,2.006-1.729,5.062-1.751,5.097l-0.128,0.229l2.79,0.803L281.412,501.426z M281.755,491.499
				c-0.007-0.312-0.084-0.562-0.255-0.73c-0.034-0.034-0.072-0.062-0.113-0.098c-0.104-0.064-0.228-0.104-0.357-0.104
				c-0.093,0-0.19,0.021-0.3,0.062c-0.749,0.271-1.826,1.431-2.91,2.92l-0.048-0.062l-0.049-0.062l-0.948,1.646
				c-0.471,0.732-0.921,1.496-1.322,2.234c-0.67,1.23-1.202,2.405-1.472,3.29c-0.152,0.502-0.22,0.904-0.204,1.216
				c0.004,0.077,0.016,0.146,0.029,0.216c0.044,0.194,0.136,0.345,0.272,0.438c0.062,0.039,0.131,0.062,0.205,0.062
				c0.854,0,3.619-3.353,4.765-4.98c0.042-0.062,0.083-0.119,0.121-0.179c0.072-0.108,0.141-0.214,0.193-0.302
				c0.058-0.089,0.102-0.165,0.13-0.229c0.034-0.06,0.076-0.121,0.126-0.2c0.052-0.078,0.105-0.173,0.167-0.272
				C280.462,495.238,281.788,492.851,281.755,491.499z"/>
			<path fill="#3FA9F5" d="M307.62,492.438c-1.104,0.148-4.982,0.778-8.344,1.418c-0.215,0.039-0.426,0.08-0.637,0.122
				c-0.109,0.021-0.218,0.044-0.326,0.062c-0.461,0.092-0.906,0.188-1.33,0.276c-0.133,0.028-0.263,0.062-0.391,0.095
				c-0.318,0.069-0.625,0.146-0.908,0.224c-0.115,0.03-0.227,0.062-0.333,0.096c-0.023,0.004-0.053,0.011-0.087,0.021
				c-1.036,0.229-6.941,1.604-7.823,3.137c-0.028,0.055-0.053,0.096-0.067,0.146c-0.519,1.479-1.779,9.771-1.985,11.616h-3.531
				l-1.238-3.121l0.479-4.437l0.186-0.088l0,0l0,0c-0.011-0.021-0.021-0.041-0.028-0.062c-0.013-0.021-0.021-0.042-0.031-0.062
				l3.059-5.382l0.048,0.012l0,0l0,0l0.059-0.192l0.044-0.078l0.078-0.142l4.573-9.622l0.701-0.242l0.703-0.246l2.056-11.221
				c0.1,0,0.239-0.001,0.415-0.001c1.197,0,5.199,0.033,6.348,0.474C300.275,475.604,304.907,485.812,307.62,492.438z"/>
			<path d="M279.521,495.692c0.021,0,0.035-0.005,0.049-0.008c0.04-0.011,0.074-0.029,0.104-0.059
				c-0.202,0.354-0.405,0.688-0.604,1.007c-0.112,0.228-0.329,0.561-0.606,0.948c-0.046-0.104-0.062-0.229-0.063-0.326
				c-0.002-0.174,0.034-0.312,0.034-0.313l0.062-0.214l-1.957-0.413l0.819-1.433c0.158-0.231,0.316-0.465,0.478-0.688
				C279.025,495.566,279.382,495.696,279.521,495.692z"/>
			<path d="M279.621,496.638c-0.05,0.081-0.091,0.146-0.126,0.202c-0.028,0.062-0.072,0.141-0.13,0.229
				c-0.055,0.089-0.121,0.188-0.193,0.3c-0.038,0.062-0.078,0.114-0.121,0.181c-1.146,1.637-3.91,4.98-4.765,4.98
				c-0.074,0-0.146-0.021-0.205-0.062c-0.139-0.094-0.229-0.233-0.272-0.438c-0.015-0.062-0.024-0.14-0.029-0.215
				c-0.017-0.312,0.051-0.713,0.204-1.217c0.27-0.884,0.802-2.059,1.472-3.29c0.401-0.738,0.854-1.502,1.322-2.233l0.948-1.646
				l0.049,0.062l0.048,0.062c1.083-1.486,2.161-2.648,2.91-2.92c0.107-0.038,0.207-0.062,0.3-0.062c0.135,0,0.253,0.036,0.357,0.104
				c0.042,0.023,0.08,0.062,0.113,0.097c0.171,0.174,0.248,0.428,0.255,0.73c0.029,1.354-1.293,3.735-1.972,4.86
				C279.727,496.467,279.669,496.56,279.621,496.638z M274.344,500.724c-0.324,1.066-0.186,1.328-0.13,1.384
				c0.687-0.129,2.75-2.493,3.983-4.158c-0.225-0.296-0.229-0.67-0.202-0.897l-1.755-0.371
				C275.4,498.112,274.69,499.574,274.344,500.724z M277.359,494.886l-0.822,1.433l1.957,0.414l-0.061,0.212
				c-0.001,0.003-0.037,0.146-0.035,0.312c0.001,0.104,0.02,0.226,0.063,0.328c0.277-0.396,0.495-0.729,0.606-0.949
				c0.198-0.312,0.402-0.651,0.604-1.006c-0.03,0.021-0.064,0.045-0.104,0.058c-0.013,0.003-0.025,0.007-0.049,0.008
				c-0.141,0.004-0.496-0.127-1.688-1.497C277.677,494.421,277.518,494.65,277.359,494.886z M281.157,491.015
				c-0.036-0.022-0.078-0.034-0.128-0.034c-0.579,0-1.737,1.216-2.944,2.872c0.517,0.596,1.099,1.197,1.355,1.381
				c0.144-0.215,0.412-0.3,0.636-0.325C281.001,493.174,281.706,491.381,281.157,491.015z"/>
			<path fill="#FFFFFF" stroke="#FFFFFF" stroke-miterlimit="10" d="M150.431,537.641l0.097-0.062l-0.069-5.701l3.559-2.174
				l15.577,0.271l0.037-0.018l6.453-2.39l0.275-13.309l11.64-2.845l24.903-0.066l1.312-2.411l21.093-1.172l0.138-2.14l4.386-0.443
				l-0.396-0.312c-0.006-0.009-0.619-0.496-0.604-1.097c0.012-0.348,0.232-0.679,0.664-0.979c0.32-0.229,1.259-0.493,3.908-0.493
				c2.43,0,5.401,0.219,7.57,0.379c1.07,0.079,1.918,0.146,2.413,0.155c1.48,0.047,3.122,1.162,4.016,2.179
				c0.55,0.623,0.842,1.231,0.801,1.664c-0.131,1.377-0.355,1.709-1.345,1.896l0.058,0.438l14.567-1.383l8.99-0.85l1.229,3.157h3.89
				l0.023-0.468c0.018-0.1,1.455-10.041,1.991-11.584c0.42-1.207,5.694-2.617,7.689-3.057c3.523-0.985,10.872-2.021,12.223-2.203
				l0.021,0.051l0.15-0.018c0.002,0,0.288-0.022,0.688-0.022c1.128,0,1.949,0.188,2.316,0.521c0.399,0.366,0.402,1.104,0.406,1.816
				c0.003,0.616,0.006,1.197,0.234,1.629c0.479,0.889,4.57,7.803,4.745,8.098l0.058,0.097l0.105,0.008
				c0.602,0.034,59.926,3.542,73.165,5.171c1.025,0.126,2.193,0.245,3.475,0.424c20.029,2.821,48.084,8.232,48.084,8.232
				c2.172,0.037,3.031,0.721,3.104,1.294c0.071,0.526-0.479,1.062-1.379,1.322c-0.022,0.017-0.629,0.318-1.453,0.812
				c-3.64,0.396-25.599,2.571-59.904,0.832c-17.74-0.896-56.131-0.545-101.896,2.271c-65.2,4.021-105.44,10.438-127.715,15.105
				l-0.974,0.205c-1.848-0.021-2.505-0.211-2.59-0.312c-0.031-0.062-0.071-0.108-0.111-0.166c-0.095-0.132-0.143-0.2-0.124-0.309
				C147.997,539.336,148.814,538.659,150.431,537.641z"/>
			<path fill="#FFFFFF" stroke="#FFFFFF" stroke-miterlimit="10" d="M240.521,559.303l0.062,0.009
				c0.25,0.022,21.625,2.257,51.067,2.257c5.098,0,10.434-0.062,15.941-0.227c34.302-0.979,82.511-5.729,117.909-22.771
				c-0.101,0.088-0.188,0.17-0.273,0.256c-1.22,1.128-2.434,2.323-3.721,3.593c-8.133,8.006-18.254,17.971-44.363,25.562
				c-6.007,1.743-12.438,2.562-20.246,2.562c-6.688,0-13.549-0.185-20.812-0.812c-7.974-0.688-16.214-1.397-25.028-1.397
				c-1.354,0-2.705,0.021-4.017,0.053c-1.324,0.035-2.875,0.056-4.61,0.056c-34.329,0-138.904-7.185-143.244-7.464l-7.756-19.855
				l71.914,3.771L240.521,559.303z"/>
		</g>
		<g id="_x33__3_">
			<path fill="#996234" d="M260.812,508.439c0,0-1.388-1.608-1.084-3.519c0.304-1.897,0.731-2.871,1.898-3.205
				s2.748-0.484,3.07-0.319c0.325,0.164,4.26,1.729,5.157,2.035c0.899,0.312,3.354,1.938,3.404,2.684
				c0.05,0.748,0.194,0.988,0.498,1.724c0.303,0.729,0.765,4.024,0.765,4.024l-5.933,0.653c0,0,0.063-2.312-0.373-2.478
				c-0.439-0.155-6.235-0.748-6.626-0.974C261.197,508.851,260.812,508.439,260.812,508.439z"/>
			<path fill="#EF45B7" d="M238.839,499.185c0,0-0.312-2.938-0.438-2.938s4.117-0.25,5.125-1c1.25-0.938,8.125-0.875,8.125-0.875
				l4.562,4.188l5.264,3.96c0,0-1.514,4.979-2.264,4.979c-0.354,0-4.109-3.401-7.5-3.5c-3.784-0.108-4.062,2.062-3.188,6.75
				c0.166,0.887-7.812-4.438-7.812-4.438s-1.506-1.125-1.878-3.125S238.839,499.185,238.839,499.185z"/>
			<path fill="#996234" d="M247.9,469.06c0.188,0.062,1.562-1.625,1.5-2.188c-0.062-0.563-0.623-0.938-0.749-0.938
				s-1.438-1.562-0.751-2.25c0.688-0.688-1.5-3.5-0.688-4.875s1.812-3.5,3.688-4.25s3.062-1.375,4-0.625s3.188,2.875,3.25,3.688
				c0.062,0.812,0.438,2.375,0,4.062c-0.438,1.688-0.438,1.938-0.5,3.75c-0.062,1.812-0.875,2.938-1.438,3.627
				c-0.563,0.689-0.312,1.623-1.375,1.873s0.25,1.938-0.25,2.562c-0.5,0.625-6.375-0.938-6.25-3.375
				C248.397,468.975,247.9,469.06,247.9,469.06z"/>
			<path fill="#301705" d="M248.089,466.622c0,0-1.062,0-0.938-0.875s0.354-2.375-0.01-2.75c-0.364-0.375-1.49-1.062-1.115-2.125
				c0.375-1.063,0.812-1.688,0.562-2.688s0-1.812,0.812-2.312s1.445-0.375,2.379-0.812c0.937-0.438,1.687-1.5,2.746-1.688
				c1.062-0.188,2.312-0.938,3.188,0c0.876,0.938,1.5,0.938,1.75,1.562s-0.062-0.062,0.312,1.438s1.125,1.812,0.625,2.625
				c-0.5,0.812-0.938-0.688-1.375-0.75c-0.437-0.062-0.188-0.75-1.375,0s-0.75,0.5-2.5,0.125s-2.688-1.375-3.22,0.438
				c-0.53,1.812-0.22,1.5,0,2.938c0.22,1.438,0,2.062,0,2.062s-0.092-0.688-0.78-0.562c-0.688,0.125-0.812,0.25-0.75,1
				s0.438,1.625,0.312,1.875S248.089,466.622,248.089,466.622z"/>
			<path fill="#996234" d="M256.714,480.872c0,0,4.125,6.75,5.188,7.375s3.25,1.875,4.062,2.062c0.812,0.188,5.938,1,8.125,0.875
				s2.562-0.785,3.375,0.015c0.812,0.804,1.188,1.36,1.5,0.735s0.125-0.75,0-1.688c-0.125-0.938,0-1.438,0.875-1.562
				s2.213,0.875,1.854-0.25c-0.354-1.125-0.229-1.625-1.669-1.5c-1.438,0.125-1.688,1.188-2.688,1.312
				c-1,0.123-1.438,0.125-3.188-0.125s-6.688-3.188-7.75-3.25c-1.062-0.062-1.125-0.875-1.812-1.562
				c-0.688-0.688-3.438-4.062-3.438-4.062"/>
			<path fill="#8BC7E8" d="M238.4,484.31c0.25-3.5,1.5-9.062,3.625-11.5c2.125-2.438,2.75-2.375,4.312-3.062
				c1.562-0.688,2.375-0.5,2.375-0.5s0.082,2.5,1.354,2.938c1.272,0.438,4.271,1.25,4.459,0.75s-0.249-0.812,0.125-1.253
				c0.374-0.438,1-1.622,1.438-1.372c0.437,0.25,2.625,1.124,2.875,2.25s0.5,2.625,1.125,3.5s1,2.25,1,2.25s0.188,0.5,0.375,1.062
				c0.187,0.562-1.625,0.5-2.812,2.812c-1.187,2.312-2.5-1.312-2.5-1.312s1.438-0.938,0.125,1.062c0,0-2,3.062-2.125,3.5
				c-0.125,0.438-0.625,1.562-0.562,2.688c0.062,1.127,0.688,2.312,0.562,3.5c-0.126,1.188,0.025,2.25-1.456,2.812
				c-1.479,0.562-3.104,0.438-4.919,0.625c-1.812,0.188-4.047,0.09-4.875,0.812s-1.625,0.125-2.625,0.375s-1.062,0.875-1.875,0
				c-0.812-0.875,0.479-3.625,0.271-4.25s-0.75-2-0.542-4.062C238.337,485.872,238.4,484.31,238.4,484.31z"/>
			<path fill="#996234" d="M245.626,488.527c0,0,1.325,4.354,2.068,5.188c0.744,0.828,1.933,2.75,2.562,3.494
				c0.631,0.746,6.226,6.479,6.897,6.979c0.677,0.499,3.919,3.354,3.919,3.354l4.6-0.527c0,0-3.046-3.262-4.543-4.854
				c-1.498-1.596-6.453-7.729-6.736-8.282c-0.283-0.561-1.893-2.234-2.329-3.014c-0.436-0.771-0.508-2.373-0.87-3.832
				c-0.359-1.459-0.981-3.346-0.981-3.346s-5.779-0.689-5.955,0.672C244.083,485.72,245.626,488.527,245.626,488.527z"/>
			<path fill="#996234" d="M248.65,510.685c0,0-1.271-1.708-0.833-3.583s0.935-2.812,2.12-3.062c1.188-0.25,2.776-0.291,3.088-0.104
				c0.312,0.188,4.125,2.021,5,2.396s3.205,2.166,3.205,2.916s0.125,1,0.375,1.75s0.562,2.875,0.562,2.875l-6.002,0.637
				c0,0,0.182-1.512-0.245-1.695c-0.43-0.188-6.167-1.188-6.542-1.438S248.65,510.685,248.65,510.685z"/>
			<path fill="#996234" d="M255.167,516.731"/>
		</g>
	</g>
	<g id="Capa_8_copia_2">
		<path fill="none" stroke="#000000" stroke-miterlimit="10" d="M363.895,468.8"/>
		<path fill="#F7931E" d="M352.662,503.68c-0.053-0.396-0.879-2.506-0.509-2.94c0.368-0.438,1.688-1.561,2.145-1.979
			s1.098-0.854,1.281-1.256s0.08-1.267,0.33-1.256c0.251,0.012,16.114,0.667,16.243,0.717c0.13,0.049,1.953,1.356,2.105,1.888
			c0.151,0.532,0.954,1.182,1.153,1.628c0.199,0.445,0.854,2.096,1.19,3.073c0.338,0.979,0.469,1.99,0.497,3.307
			c0.03,1.313,0.06,2.647-0.14,3.154c-0.197,0.508-0.702,1.032-0.815,1.126c-0.113,0.095,0.528,0.165-0.622,0.094
			c-1.151-0.072-5.74-1.239-6.773-0.628c-1.034,0.61-2.441,0.725-3.047,0.565c-0.606-0.159-0.396,0.004-0.939-0.534
			c-0.545-0.539-0.867-1.188-1.085-1.209c-0.219-0.02-0.048-0.361-0.702,0.311c-0.653,0.672-0.432,0.594-0.653,0.672
			c-0.224,0.077-1.829,0.751-2.266,0.73c-0.438-0.019-0.084,0.025-0.652-0.027c-0.568-0.056-0.452,0.315-0.568-0.056
			c-0.116-0.369-0.148-1.729-0.718-2.19C357.55,508.405,352.662,503.68,352.662,503.68z"/>
		<path fill="#FFCBA1" d="M377.413,482.926c0.034,0.222-0.422,5.584-0.062,6.346c0.36,0.76,1.013,3.854,1.049,4.03
			c0.035,0.176,0.191,2.591,0.063,3.505c-0.128,0.913,0.103,1.668,0.255,3.164c0.152,1.494,1.88,5.993,1.825,6.253
			c-0.056,0.261-0.058,1.312-0.058,1.312l-1.872,0.749c0,0-0.586,0.368-0.607,0.85c-0.021,0.48,0.4,0.851,0.619,0.859
			s3.224,0.359,3.714,0.163c0.491-0.197,2.021-0.174,2.465-0.285c0.442-0.111,1.111-0.389,1.111-0.389s0.563,0.112,0.021-0.48
			s-1.257-1.281-1.249-1.456c0.009-0.175-0.281-1.545-0.253-2.2c0.028-0.654-0.152-7.449-0.823-10.105s-1.068-4.558-0.97-4.815
			c0.099-0.257-0.979-9.586-0.979-9.586L377.413,482.926z"/>
		<path fill="#FFCBA1" d="M352.2,480.85l4.08,2.809c0,0-3.302,7.34-3.812,8.018c-0.512,0.68-0.227,0.165-0.512,0.68
			c-0.286,0.513-1.161,3.493-1.183,3.976c-0.021,0.479-1.716,4.132-2.156,5.204c-0.441,1.073-1.188,3.098-1.264,3.839
			c-0.076,0.74-0.405,1.252-0.065,1.486c0.34,0.231,0.938,0.565,1.151,0.706c0.213,0.142,0.609,1.054,0.515,1.216
			c-0.094,0.161-0.408,0.321-0.977,0.297c-0.567-0.025-0.951-0.042-0.951-0.042l-2.544-0.112l-3.146-0.139
			c0,0,0.145-1.264,0.365-1.341c0.222-0.078,1.159-0.476,1.298-0.645c0.14-0.169,3.495-13.725,3.824-14.233
			c0.329-0.513,1.667-4.043,1.943-4.382c0.277-0.338,3.071-8.095,3.071-8.095L352.2,480.85z"/>
		<path fill="#FFCBA1" d="M365.859,510.466c0.005-0.118-0.521,0.057-0.081-2.254c0.439-2.312,2.307-3.453,3.399-4.076
			c1.095-0.622,3.057-1.246,4.079-0.254c1.021,0.993,2.335,1.645,2.511,2.6c0.176,0.954-0.034,2.131-0.127,2.877
			s-0.808,2.649-0.826,3.083c-0.02,0.435-8.731-0.273-8.731-0.273L365.859,510.466z"/>
		<path fill="#FFCBA1" d="M357.874,511.792c0,0,1.555-1.759,1.797-1.942c0.241-0.185,2.022-0.922,2.107-1.073
			c0.085-0.152,0.45-0.523,0.061-1.358c-0.392-0.833-1.037-2.923-1.556-3.529c-0.519-0.604-4.734-1.958-5.631-1.92
			c-0.896,0.039-0.995-0.35-1.996,0.304s-1.619,1.442-1.872,1.897c-0.254,0.456-0.856,1.79-0.913,2.177
			c-0.055,0.387,0.062,2.103-0.118,2.678c-0.181,0.575-0.106,2.24-0.106,2.24L357.874,511.792z"/>
		<path fill="#FFF599" d="M350.379,480.419c0.137-0.125,0.866-4.734,2.003-6.697c1.138-1.965,4.292-3.008,5.271-3.357
			c0.979-0.351,5.747-2.242,6.272-2.264c0.526-0.02,8.495,0.945,8.883,1.094c0.389,0.147,7.184,1.937,7.684,3.491
			s2.013,7.97,2.09,8.191c0.078,0.223-0.063,1.442-0.063,1.442s-0.766,0.49-2.138,0.823s-3.479,0.504-3.657,0.539
			c-0.177,0.036-0.43,2.783-0.43,2.783s-0.412,5.367-0.392,5.895c0.021,0.524,0.057,3.68-0.555,4.615
			c-0.61,0.937-4.882,1.492-5.488,1.377c-0.608-0.112-5.771-1.174-6.696-1.038c-0.926,0.134-5.377-0.193-6.517-0.157
			c-1.141,0.038-1.784-0.253-1.846-0.869c-0.06-0.615-0.103-4.603,0.087-4.943c0.19-0.341,0.925-4.074,0.933-4.249
			s-0.183-1.847-0.211-2.153c-0.03-0.309-1.159-1.496-1.456-1.729c-0.296-0.231-2.18-1.233-2.565-1.383
			c-0.388-0.148-1.228-0.973-1.218-1.191C350.38,480.42,350.379,480.419,350.379,480.419z"/>
		<path fill="#FFCBA1" d="M361.333,461.419c0,0-1.421-5.491,3.32-6.771c4.739-1.279,6.277,4.567,6.319,5.576
			c0.044,1.009-0.152,6.474-0.048,7.047c0.105,0.573,0.463,5.361-1.169,5.64c-1.632,0.279-3.684,1.151-5.489-1.599
			c-0.411-0.681-0.355-2.818-0.355-2.818S362.623,467.912,361.333,461.419z"/>
		<path fill="#908DFF" d="M370.72,459.021c0,0,0.454-5.252-5.304-4.483c-4.828,0.646-5.182,3.3-4.769,6.391l0.176-0.022
			c-3.107,6.192,6.761,3.763,9.438-1.233l0,0L370.72,459.021z"/>
	</g>
</g>
<g id="Capa_3">
	<polygon id="La_mar_3_m" opacity="0.6" fill="#39BCC4" enable-background="new    " points="0,548.5 800,548.5 800.981,799.162 
		0.982,799.162 	"/>
	<path fill="#D8BD80" d="M800.557,739.949c-37.881,6.85-61.191,5.146-88.212,5.051c-24.051-0.033-33.279-3.914-75.512-7.119
		c-26.088-0.787-46.578-0.928-74.209,0.48c-20.113,1.021-66.365,3.424-87.148,0.188c-52.643-10.095-139.626-8.536-184.812-1.551
		c-45.187,6.986-25.674-4.301-54.43-3.225c-28.755,1.063-24.134,5.375-38.512,1.604c-14.377-3.762-20.67-15.181-32.92-13.012
		c-1.388,0.829,0.264,7.501-30.5-8.625c-10.783-5.652-23.201-5.499-30.875-5.625c-7.625-0.125-24.619,3.901-34.375-3.625
		c-11.25-6.604-43.828,16.413-55.125,22.854C2.63,733.811-3,730.024-3,730.024l1.75,72.226l802.232,1L800.557,739.949z"/>
</g>
</svg>
