<?xml version="1.0" encoding="utf-8"?>
<!-- Generator: Adobe Illustrator 16.0.0, SVG Export Plug-In . SVG Version: 6.00 Build 0)  -->
<!DOCTYPE svg PUBLIC "-//W3C//DTD SVG 1.1//EN" "http://www.w3.org/Graphics/SVG/1.1/DTD/svg11.dtd">
<svg version="1.1" id="Capa_1" xmlns="http://www.w3.org/2000/svg" xmlns:xlink="http://www.w3.org/1999/xlink" x="0px" y="0px"
	 width="800px" height="800px" viewBox="0 0 800 800" enable-background="new 0 0 800 800" xml:space="preserve">
<g id="Capa_3">
</g>
<g id="Capa_4">
	<g id="Caixa">
		<path fill="#C4C4C4" d="M-82,343.011V148.105L184.312-574.77c0,0,550.144-232.018,586.819-224.074
			c39.016,8.456,331.919,188.926,352.229,307.646c23.431-6.249,34.267,18.744,43.638,45.302l198.438,1764.639l-794.947,121.367
			L-82,343.011z"/>
		<path fill="#EAEAEA" d="M779.485-380.875c0,0,149.874-383.908-20.771-421.435c-170.643-37.527-245.051-53.131-245.051-53.131
			S355.32-922.736,172.596-584.144L779.485-380.875z"/>
		<polygon fill="#CECECE" points="570,1440.111 570,491.383 -82,148.105 -82,1060.543 		"/>
		<polygon fill="#C9C9C9" points="569.769,491.383 779.485,-380.875 172.596,-584.144 -117,205.318 		"/>
	</g>
	<path display="none" fill="#D8D8D8" d="M111.076,574.613c0,0-0.149-0.25-0.404-0.697c-2.626-4.643-16.531-30.623,7.451-20.983
		l34.965,21.682c0,0,10.84,9.76,6.233,15.451c-4.608,5.69-8.132,6.232-12.739,4.606c-4.608-1.625,4.607,15.721-5.151,20.6
		c-9.758,4.879-8.131,1.628-6.234,9.488c1.898,7.863,2.712,39.571,1.628,40.113c-1.085,0.544,23.309,10.842,17.616,30.9
		c-5.691,20.059-18.972,4.609-25.478,1.086c-6.505-3.526-7.048-0.428-7.589,9.002c-0.542,9.428,7.589,21.896-2.44,22.711
		c-10.027,0.812-12.194-6.235-17.617-7.863c-5.421-1.625-12.468-7.048-8.131-14.365c4.335-7.318,9.216-6.776,8.944-17.346
		c-0.271-10.57-14.096-20.599-11.656-31.713s-1.625-13.013,7.319-15.993c8.943-2.979,10.299-6.774,10.299-7.59
		c0-0.812-5.42-5.693-1.356-14.365c4.066-8.67,9.487-1.896,6.235-14.095c-3.253-12.195-5.748-12.539-2.738-20.498
		C113.243,576.783,111.076,574.613,111.076,574.613z"/>
	<g id="Timó">
		
			<rect x="-72.961" y="16.486" transform="matrix(-0.8873 0.4611 -0.4611 -0.8873 42.4544 38.8623)" fill="#999999" width="178.882" height="16.262"/>
		
			<rect x="47.386" y="71.785" transform="matrix(-0.294 0.9558 -0.9558 -0.294 253.4442 -27.3697)" fill="#999999" width="178.889" height="16.265"/>
		
			<rect x="-43.695" y="-172.165" transform="matrix(-0.7826 -0.6225 0.6225 -0.7826 183.6625 -263.9283)" fill="#999999" width="178.886" height="16.264"/>
		
			<rect x="76.646" y="-217.698" transform="matrix(-0.0858 -0.9963 0.9963 -0.0858 389.1355 -62.071)" fill="#999999" width="178.887" height="16.262"/>
		<path fill="#3F3F3F" stroke="#000000" stroke-miterlimit="10" d="M275.604-164.032c93.754,19.106,66.679,262.917-46.62,240.149
			C115.684,53.349,161.222-187.343,275.604-164.032z"/>
		<path fill="#191919" stroke="#000000" stroke-miterlimit="10" d="M76.112,2.393c-54.752-8.674-33.61-157.752,26.021-148.535
			c59.63,9.217,53.668,6.504,93.782,13.01c40.114,6.506,37.406,159.919-22.226,152.33C114.059,11.607,76.112,2.393,76.112,2.393z"/>
		<path fill="#333333" stroke="#000000" stroke-miterlimit="10" d="M103.081-143.703C162.711-134.487,140.182,8.22,80.55,0.63
			C20.919-6.96,43.45-152.919,103.081-143.703z"/>
		<path fill="#999999" d="M201.094-73.044c0,0-11.269-0.636-10.57,8.851c0.632,8.573,9.471,8.145,9.471,8.145l2.573,0.195
			l75.567-2.317l0.115-16.699L201.094-73.044z"/>
		<path fill="#141414" stroke="#000000" stroke-miterlimit="10" d="M131.405-423.153
			C-185.179-445.381-247.899,216.792,13.228,268.02C312.464,322.229,443.239-359.258,131.405-423.153z M232.236-52.359
			C225.731,84.79,127.612,171.526,127.612,171.526s7.588-21.684-5.963-23.31c-11.384,5.961-15.722-1.627-15.722-1.627
			c-23.851-2.168-21.142,73.184-65.593,66.678C-47.037,200.48-64.29,120.027-62.122,104.849
			c2.167-15.178,25.75-28.459,31.441-34.151c5.692-5.692,7.59-10.843,0-10.843c-7.59,0-7.588-13.552-7.588-13.552
			c1.086-11.925-33.61,5.962-33.61,5.962c-4.879-1.625-9.709,7.12-17.348-12.467c-28.176-72.26,18.974-230.391,21.686-237.438
			c2.71-7.047,8.131-23.311,30.355-8.131c22.226,15.179,25.48,7.045,25.48,7.045c-2.167-9.758,8.674-14.635,8.674-14.635
			c1.625-10.302-34.943-31.138-27.105-49.332c50.958-114.922,143.656-97.576,143.656-97.576
			c38.489,15.721,10.843,68.844,49.329,70.472c22.214,0.938,18.434-34.694,18.434-34.694
			c73.727,74.267,59.629,236.895,55.294,242.317C232.237-76.752,227.356-62.659,232.236-52.359z"/>
	</g>
	<polygon fill="#0F0F0F" points="372.89,219.487 364.222,217.04 362.653,221.565 336.735,226.829 325.048,261.984 349.521,289.797 
		385.679,282.455 397.363,247.299 	"/>
	<polygon fill="#303030" points="340.853,287.35 316.38,259.537 328.067,224.382 364.222,217.04 388.696,244.852 377.011,280.008 	
		"/>
	<g id="Cordó_2_">
		<g>
			<path d="M329.603,241.452c-0.971,2-1.603,4-1.603,6.452v-0.002l-0.52,0.133c-0.288,1.278-0.74,2.171-0.871,3.479L320.099,290
				h-0.007c-1.363,6,1.026,14.752,6.615,18.82c5.631,4.097,12.464,3.328,16.512-1.648l24.676-25.017
				c0.962-0.828,2.014-2.414,2.86-3.428l0.204-0.727h-0.006c1.436-2,2.274-2.693,3.246-4.693c5.568-11.466,3.007-25.961-4.87-35.701
				l-5.627,11.69c1.722,4.023,1.588,8.547-0.232,12.297c-1.823,3.749-5.123,5.929-8.648,6.146l-6.311,12.779
				c-1.817,3.371-5.744,4.337-8.894,2.043c-3.15-2.292-4.958-7.188-3.441-10.687l6.328-12.829
				c-1.727-4.015-1.571-8.506,0.279-12.319c1.852-3.812,5.115-6.002,8.83-6.08l5.791-11.417
				C346.718,225.271,335.196,229.937,329.603,241.452z M336.27,289.471c3.237,2.355,4.444,7.182,2.694,10.782
				c-1.747,3.6-5.788,4.606-9.023,2.251c-3.236-2.354-4.441-7.182-2.694-10.781C328.994,288.125,333.034,287.117,336.27,289.471z"/>
		</g>
	</g>
	<g id="Cordó_Clau">
		<g id="Cordó">
			<path fill="none" stroke="#FF0000" stroke-width="8" stroke-linecap="round" stroke-miterlimit="10" d="M280.702,765.216
				c0,13.711,46.064,18.947,46.032,6.582c-0.028-10.082-45.919-9.091-46.767,8.26c-0.979,20.078,45.297,17.274,46.767,5.033
				c1.291-10.764-46.032-6.194-45.772,9.544"/>
			<path fill="none" stroke="#FF0000" stroke-width="8" stroke-linecap="round" stroke-miterlimit="10" d="M280.949,816.689
				c0,13.713,45.844,19.669,45.811,7.304c-0.02-6.454-45.329-7.508-46.254,5.364c-0.733,10.195,47.688,15.1,47.688,2.129
				c0-13.163-36.391-4.447-36.881,23.465"/>
			<path fill="none" stroke="#FF0000" stroke-width="8" stroke-linecap="round" stroke-miterlimit="10" d="M280.702,793.093
				c-3.702,19.616,46.064,23.722,46.032,11.356c-0.029-10.373-44.206-11.025-45.088,7.098c-0.98,20.077,45.15,11.273,45.114,5.144
				c-0.057-9.42-45.501-16.111-45.811,0"/>
			<path fill="none" stroke="#FF0000" stroke-width="8" stroke-linecap="round" stroke-miterlimit="10" d="M278.744,560.433
				c0,13.712,46.064,23.385,46.031,11.02c-0.035-12.33-45.051-6.61-46.031,13.466c-0.979,20.077,44.562,22.526,46.031,10.285
				c1.469-12.243-45.542-17.709-46.031,10.203"/>
			<path fill="none" stroke="#FF0000" stroke-width="8" stroke-linecap="round" stroke-miterlimit="10" d="M278.744,518.387
				c0,13.711,46.064,23.385,46.031,11.02c-0.035-12.33-45.051-10.481-46.031,9.595c-0.979,20.077,44.562,22.525,46.031,10.283
				c1.469-12.241-45.542-15.294-46.031,12.619"/>
			<path fill="none" stroke="#FF0000" stroke-width="8" stroke-linecap="round" stroke-miterlimit="10" d="M278.744,472.47
				c0,13.712,46.064,23.382,46.031,11.019c-0.035-12.33-45.051-8.934-46.031,11.145c-0.979,20.076,44.562,22.524,46.031,10.282
				c1.469-12.241-45.542-12.97-46.031,14.942"/>
			<path fill="none" stroke="#FF0000" stroke-width="8" stroke-linecap="round" stroke-miterlimit="10" d="M278.744,473.939
				c0.49-27.913,47.508-26.319,46.04-14.077c-1.469,12.241-47.019,6.604-46.04-13.473c0.979-20.076,46.77-20.377,46.805-8.046
				c0.034,12.365-41.962-2.238-41.962-15.951c0,0-2.914-8.958,11.596-18.688c9.887-6.631,11.879-23.832,11.117-26.352
				c-2.633-8.688,14.669-90.427,28.034-83.688c17.548,8.849-17.667,41-19,60.667c0.415,2.874-2.75,36.667-2.75,36.667"/>
			<path fill="none" stroke="#FF0000" stroke-width="8" stroke-linecap="round" stroke-miterlimit="10" d="M278.744,729.752
				c0,13.713,46.1,18.146,46.065,5.779c-0.034-12.33-45.102-10.655-46.082,9.422c-0.979,20.077,45.586,20.245,47.056,8.001
				c1.469-12.241-44.592-15.651-45.082,12.262"/>
			<path fill="none" stroke="#FF0000" stroke-width="8" stroke-linecap="round" stroke-miterlimit="10" d="M278.744,688.618
				c0,13.712,46.064,23.383,46.031,11.019c-0.035-12.331-45.051-12.486-46.031,7.59c-0.979,20.078,44.562,22.525,46.031,10.283
				c0.729-6.078-45.648-8.105-46.031,13.712"/>
			<path fill="none" stroke="#FF0000" stroke-width="8" stroke-linecap="round" stroke-miterlimit="10" d="M278.744,647.484
				c0,13.712,46.064,23.383,46.031,11.019c-0.035-12.33-45.051-12.487-46.031,7.59c-0.979,20.078,44.562,22.525,46.031,10.284
				c1.469-12.242-45.542-14.202-46.031,13.71"/>
			<path fill="none" stroke="#FF0000" stroke-width="8" stroke-linecap="round" stroke-miterlimit="10" d="M278.728,603.69
				c0,13.713,46.081,24.038,46.046,11.673c-0.035-12.33-45.051-10.482-46.031,9.596c-0.979,20.077,44.562,22.525,46.031,10.283
				c1.469-12.242-45.542-14.2-46.031,13.711"/>
		</g>
		<path fill="#EAEAEA" d="M318.829,373.326c-0.203,1.271-1.114,2.184-2.037,2.037l-15.2-2.409c-0.923-0.148-1.507-1.297-1.306-2.569
			l2.97-18.724c0.201-1.272,1.113-2.185,2.037-2.038l15.199,2.41c0.923,0.145,1.508,1.296,1.307,2.568L318.829,373.326z"/>
		<g display="none">
			<path display="inline" d="M224.812,190.688c-4.708,0-8.812,0.591-13.812,1.639v-0.045l-0.342,0.157
				c-2.589,0.642-5.389,1.461-7.83,2.434L127,219.229v0.008c-13,3.265-23.398,15.516-23.398,30.14
				c0,14.733,10.457,27.063,24.234,30.217l74.942,24.134c2.656,1.081,5.307,1.971,8.139,2.657l0.083,0.059v-0.017
				c5,1.047,9.104,1.596,13.812,1.596c26.973,0,49.823-18.021,56.679-43.021h-27.062c-4.835,7-12.649,10.938-21.472,10.938
				c-8.823,0-16.686-4.415-21.521-11.031l-30.146-0.236c-8.156-0.352-14.812-7.054-14.812-15.298
				c0-8.243,6.522-14.945,14.522-15.297V234h0.947c0.004,0,0.007,0,0.01,0c0.004,0,0.007,0,0.01,0h29.281
				c4.814-7,12.74-11.25,21.709-11.25c8.969,0,16.895,4.25,21.709,11.25h26.919C274.843,209,251.906,190.688,224.812,190.688z
				 M150.291,249.376c0,8.469-6.865,15.334-15.333,15.334c-8.469,0-15.334-6.865-15.334-15.334c0-8.468,6.865-15.333,15.334-15.333
				C143.425,234.043,150.291,240.908,150.291,249.376z"/>
		</g>
	</g>
	<g id="Botó_1_">
		<path fill="#C41A1A" d="M356,241.54v-0.007l0.146-0.068c-0.268-0.11-0.354-0.225-0.632-0.316c-0.157-0.052-0.231-0.081-0.39-0.126
			l-11.404-3.941l-2.709,9.266c-1.035,1.376-1.872,2.951-2.445,4.704c-0.683,2.083-0.901,4.189-0.75,6.206l-2.375,8.062
			l10.337,3.538c0.25,0.1,0.493,0.208,0.754,0.293c0.155,0.052,0.315,0.082,0.474,0.127l0.197,0.066l0.005-0.013
			c6.74,1.775,13.64-2.601,16.086-10.083C365.698,251.901,363,244.23,356,241.54z"/>
		<path fill="#E81C1C" d="M352.556,255.417c2.528-7.732-1.031-15.836-7.956-18.1c-6.924-2.264-14.582,2.171-17.109,9.902
			c-2.528,7.735,1.031,15.837,7.955,18.1C342.369,267.583,350.028,263.15,352.556,255.417z"/>
	</g>
	<g display="none">
		
			<rect x="599.992" y="327.46" transform="matrix(-0.8757 -0.4829 0.4829 -0.8757 1048.8723 951.9527)" display="inline" fill="#898989" width="93.993" height="26.974"/>
		<path display="inline" fill="#C9C9C9" d="M654.375,333.625c1.54-3.26,5.25-1.027,10.75-24.625S655,280.002,655,280.002
			s-40-19.5-49-25s-13.5,4-13.5,4l-42,76.5c-7.337,13.364,2.25,19.998,2.25,19.998s22.875,16.5,44.875,29s30.875-6.875,30.875-6.875
			S652.25,338.125,654.375,333.625z M593.277,322.439c-7.181,0-13-5.82-13-13s5.819-13,13-13c7.18,0,13,5.82,13,13
			S600.457,322.439,593.277,322.439z"/>
		<path display="inline" fill="#707070" d="M601.932,309.938c-1.393,6.309-7.94,10.228-14.625,8.75
			c-3.186-0.703-5.163-3.666-6.904-6.041c1.638,3.993,4.617,8.35,9.33,9.392c7.429,1.64,14.705-2.713,16.254-9.724
			c1.548-7.011-3.219-14.024-10.646-15.665c-0.308-0.067-0.613-0.11-0.919-0.158C599.889,298.692,603.176,304.311,601.932,309.938z"
			/>
		<path display="inline" fill="#707070" d="M666.5,307.904c5.5-23.598-11.5-28.902-11.5-28.902s-40-19.5-49-25s-13.5,4-13.5,4
			l-42,76.5c-7.337,13.364,0,20.5,0,20.5s24.5,18,46.5,30.5s33.5-8.5,33.5-8.5S661,331.502,666.5,307.904z M629.16,371.38
			c0,0-10.35,18.896-30.146,7.649c-19.797-11.248-41.842-27.445-41.842-27.445s-6.603-6.421,0-18.446l37.793-68.837
			c0,0,4.049-8.549,12.146-3.6c8.1,4.949,44.092,22.496,44.092,22.496s15.297,4.773,10.349,26.007
			C656.604,330.438,629.16,371.38,629.16,371.38z"/>
	</g>
	<g>
		<path fill="#212121" d="M533.267,266.582l0.007-0.012l-0.231-0.106c-1.017-0.52-2.061-1.002-3.133-1.443l-10.124-4.665
			l-0.871,1.833c-19.772-2.264-39.622,10.001-47.115,30.583c-6.385,17.54-2.011,36.22,9.693,48.155l-1.08,2.271l11.332,5.369
			c1.068,0.564,2.167,1.091,3.302,1.565l0.067,0.032l0.002-0.005c0.578,0.241,1.159,0.476,1.753,0.692
			c22.536,8.204,47.85-4.499,56.539-28.371C561.438,300.42,552.456,276.555,533.267,266.582z"/>
		
			<ellipse transform="matrix(0.3421 -0.9397 0.9397 0.3421 45.979 671.9274)" fill="#3D3D3D" cx="502.83" cy="303.129" rx="46.001" ry="43.426"/>
		<g id="Clau">
			<polygon fill="#898989" points="509.576,296.424 472.64,283.966 467.474,298.383 504.41,310.841 			"/>
			<path fill="#E8E8E8" d="M473.699,256.111c0,0-1.452,0.006-5.569-1.468c-9.139-3.273-10.95,2.779-10.95,2.779l-17.838,51.011
				c-3.116,8.913,1.417,12.177,11.312,15.674c2.167,0.765,3.439-32.671,3.439-32.671
				C463.721,263.911,473.699,256.111,473.699,256.111z"/>
			<path fill="#C9C9C9" d="M491.531,291.725c0.645-2.13,2.331-1.511,4.503-15.932c2.173-14.421-4.87-14.748-4.87-14.748
				s-18.108-4.066-22.192-5.616c-4.089-1.549-5.984,4.658-5.984,4.658L445.148,311.1c-3.115,8.912,1.249,11.003,1.249,11.003
				s10.416,5.375,20.395,8.625c9.98,3.25,13.71-9.36,13.71-9.36S490.634,294.665,491.531,291.725z M464.101,296.115
				c-3.208,1.266-5.878-1.027-5.965-5.12c-0.086-4.094,2.444-8.438,5.65-9.702c3.207-1.265,5.881,1.028,5.965,5.12
				C469.838,290.506,467.309,294.85,464.101,296.115z"/>
			<path fill="#E8E8E8" d="M467.816,287.463c-0.545,3.842-3.426,7.231-6.431,7.566c-1.43,0.16-2.621-0.764-3.08-2.482
				c0.673,3.453,3.086,4.175,5.205,3.965c4.322-0.429,6.539-4.138,7.145-8.408c0.605-4.269-2.468-7.708-5.943-7.054
				c-0.138,0.026-0.272,0.046-0.413,0.072C466.767,281.413,468.304,284.037,467.816,287.463z"/>
			<path fill="#707070" d="M496.636,274.926c2.173-14.422-5.486-14.45-5.486-14.45s-18.104-4.066-22.192-5.617
				c-4.085-1.549-5.981,4.659-5.981,4.659l-17.838,51.012c-3.114,8.912,0.248,11.687,0.248,11.687s11.161,5.943,21.142,9.192
				c9.979,3.249,14.861-10.749,14.861-10.749S494.464,289.348,496.636,274.926z M480.719,317.691c0,0-4.393,12.597-13.373,9.673
				c-8.978-2.924-19.021-8.273-19.021-8.273s-3.027-2.497-0.226-10.516l16.054-45.901c0,0,1.707-5.587,5.383-4.193
				c3.677,1.396,19.968,5.055,19.968,5.055s6.891,0.025,4.938,13.002C492.489,289.515,480.719,317.691,480.719,317.691z"/>
		</g>
	</g>
	<path fill="#C9C9C9" d="M492,280.502"/>
	<path fill="#212121" d="M562.667,252.194"/>
</g>
</svg>
