<?xml version="1.0" encoding="utf-8"?>
<!-- Generator: Adobe Illustrator 16.0.0, SVG Export Plug-In . SVG Version: 6.00 Build 0)  -->
<!DOCTYPE svg PUBLIC "-//W3C//DTD SVG 1.1//EN" "http://www.w3.org/Graphics/SVG/1.1/DTD/svg11.dtd">
<svg version="1.1" xmlns="http://www.w3.org/2000/svg" xmlns:xlink="http://www.w3.org/1999/xlink" x="0px" y="0px" width="800px"
	 height="800px" viewBox="0 0 800 800" enable-background="new 0 0 800 800" xml:space="preserve">
<g id="Capa_1">
	<g id="Cèl">
		
			<linearGradient id="SVGID_1_" gradientUnits="userSpaceOnUse" x1="384.6787" y1="980.1172" x2="1218.207" y2="980.1172" gradientTransform="matrix(0 -1 -1 0 1391.5 1187.5)">
			<stop  offset="0.4692" style="stop-color:#FFFFFF"/>
			<stop  offset="0.5669" style="stop-color:#C1F0FF"/>
			<stop  offset="0.6844" style="stop-color:#7DE0FF"/>
			<stop  offset="0.7908" style="stop-color:#47D4FF"/>
			<stop  offset="0.8821" style="stop-color:#20CBFF"/>
			<stop  offset="0.9549" style="stop-color:#09C5FF"/>
			<stop  offset="1" style="stop-color:#00C3FF"/>
		</linearGradient>
		<polygon fill="url(#SVGID_1_)" points="-9.414,-30.707 832.181,-30.707 828.91,802.821 -6.475,802.821 		"/>
	</g>
	<polygon opacity="0.6" fill="#39BCC4" enable-background="new    " points="-2.192,336 847.558,335.08 845.575,803 -5.21,803 	"/>
	<g id="Capa_3_copia">
		<path fill="#F80606" d="M250.099,567.142C155.064,556.653,91.352,506.173,91,431.185l19.751,0.432l-28.78-32.856l-28.785,32.856
			h15.266v1.271h0.373c1.396,85.155,73.798,140.913,181.271,154.953c79.936,10.442,141.357,58.57,141.425,133.558h24.29
			C415.739,636.243,340.107,577.074,250.099,567.142z"/>
	</g>
	<g id="Capa_4">
		<path fill="#EDEDED" d="M146.273,1343.625h506.362l9.342-392.621c0,0,46.718-325.445-263.376-437.16
			C98.698,621.132,132.678,942.838,132.678,942.838L146.273,1343.625z"/>
		<path fill="#F4F4F4" d="M396.839,598.842c0,0,219.265-5.492,226.905,278.972c7.645,284.468-22.616,314.696-22.616,314.696H193.849
			l-19.076-86.388V861.559C174.773,861.552,187.97,607.486,396.839,598.842z"/>
		<path fill="#E8E8E8" d="M399.452,597.092C230.012,595,176.356,736.003,162.749,869.193l5.605,220.662l8.502,159.279
			l131.682,19.904l21.247-16.449l141.031,0.418c0,0,17.831,13.824,22.085,13.824c23.93,0,129.16-18.805,129.16-18.805
			s3.76-108.139,5.515-156.804c0.06-1.653,9.681-219.285,9.544-222.026C629.896,736.267,583.701,599.377,399.452,597.092z
			 M619.918,1086.537c0.851,3.598-21.663,150.979-21.663,150.979s-88.022,10.608-110.613,10.608
			c-4.017,0-20.843-13.216-20.843-13.216l-133.152-0.39l-20.051,15.72l-117.2-12.716l-19.54-150.801
			c-2.826-130.886,1.113-132.73,0-217.525c15.487-129.93,76.473-267.958,224.857-265.464
			c147.455,2.483,207.216,137.028,220.348,265.464C621.953,874.17,618.216,1084.325,619.918,1086.537z"/>
		<path fill="#FFFFFF" d="M401.261,859.281l0.089-1.325l-67.549,6.555l-27.559,18.39c-15.297,7.187-18.225,43.408-18.225,43.408
			v67.193l10.687,14.656l75.438-8.571l27.577-27.724l-0.458-23.025V859.281z"/>
		<path fill="#FFFFFF" d="M399.88,859.288l1.47-1.332l63.635,6.555l27.054,18.39c15.284,7.187,17.712,43.408,17.712,43.408v67.193
			l-9.669,14.656l-74.92-8.571l-26.632-27.724l1.292-23.028L399.88,859.288z"/>
		<path fill="#C6C6C6" d="M499.702,976.31c-0.209-2.077-30.167-32.68-30.167-32.68l-136.067-0.93l-34.122,31.569v4.425v2.212v2.213
			v25.101h200.356C499.702,1008.22,499.915,978.385,499.702,976.31z"/>
		<path fill="#394963" d="M472.719,1392.802c-0.048,6.545-8.247,11.829-18.303,11.789l-105.984-0.362
			c-10.043-0.039-18.159-5.382-18.111-11.925l0.875-105.979c0.053-6.547,8.252-11.829,18.308-11.79l105.984,0.372
			c10.057,0.03,18.159,5.367,18.105,11.913L472.719,1392.802z"/>
		<g id="Timó_1_">
			<path d="M325.108,997.713c0,17.975,91.009,19.271,91.009-0.167C416.117,980.47,325.108,978.863,325.108,997.713z
				 M333.027,997.511c0-12.847,75.165-11.747,75.165-0.108C408.198,1010.646,333.027,1009.76,333.027,997.511z"/>
			<path d="M359.201,987.682c0,0,0.214,5.6,10.507,5.523c10.305-0.066,8.919-5.045,9.139-5.523
				C379.062,987.193,359.201,987.682,359.201,987.682z"/>
			<polygon points="366.424,993.476 363.771,1008.22 377.36,1008.22 373.749,993.476 			"/>
			<path d="M375.658,989.338c0.214,0,33.242,9.404,33.242,9.404l1.279-5.53l-33.457-6.5L375.658,989.338z"/>
			<path d="M361.849,989.338c-0.209,0-34.2,9.404-34.2,9.404v-5.53l32.183-6.5L361.849,989.338z"/>
		</g>
		<g id="Tapiceria_1_">
			<path fill="#E8CDA0" d="M622.061,869.193c0,0-111.299,0.553-135.943-76.323c-24.633-76.871-39.072-182.502-40.78-184.717
				C443.641,605.945,610.16,632.491,622.061,869.193z"/>
			<path fill="#E8CDA0" d="M176.856,869.193c0,0,111.298,0.553,135.936-76.323c24.639-76.871,39.085-182.502,40.78-184.717
				C355.268,605.945,188.75,632.491,176.856,869.193z"/>
			<path fill="#E8CDA0" d="M185.352,1170.598c0,0-8.146-17.827,18.688-11.614c88.361,20.468,296.517,24.886,389.96-1.098
				c19.586-5.45,19.288-2.234,18.694,6.356c-0.44,6.448-14.44,73.274-14.44,73.274s-159.73,39.818-401.859,0L185.352,1170.598z"/>
			<path fill="#E8CDA0" d="M503.176,1091.479c0,3.688-6.009,5.199-13.875,5.199H310.043c-7.86,0-16.368-1.512-16.368-5.199v-38.924
				c0-3.687,8.508-7.479,16.368-7.479h179.257c7.87,0,13.875,3.792,13.875,7.479V1091.479z"/>
		</g>
		<path fill="#29ABE2" d="M317.296,669.469c-0.025,0.261,2.997-4.307,2.997-4.307c7.505-8.257,24.285-30.436,24.285-30.436
			l54.412-0.209l60.065,0.272c0,0,16.774,22.277,24.285,30.526c0,0,2.341,4.401,2.326,4.142c0-41.748-11.459-65.629-40.582-65.629
			H359.86C329.066,605.152,316.939,628.389,317.296,669.469z"/>
	</g>
	<g>
		<path fill="#D3D3D3" d="M486,675.61c0-24.681-18.639-44.61-41.02-44.61h-87.804C334.796,631,317,650.93,317,675.61v198.466
			c0,24.68,17.796,44.924,40.177,44.924h87.804c22.381,0,41.02-20.244,41.02-44.924V675.61z"/>
		<g>
			<g id="WATER">
				<circle fill="#F4F4F4" cx="348.495" cy="659.767" r="11.237"/>
				<circle fill="#F4F4F4" cx="380.652" cy="659.767" r="11.237"/>
				<text transform="matrix(1 0 0 1 340.4146 663.1221)" font-family="'MyriadPro-Bold'" font-size="2.0346">ºC</text>
				<text transform="matrix(1 0 0 1 342.4116 658.2988)" font-family="'MyriadPro-Bold'" font-size="2.0346">40</text>
				<text transform="matrix(1 0 0 1 346.2734 656.3232)" font-family="'MyriadPro-Bold'" font-size="2.0346">80</text>
				<text transform="matrix(1 0 0 1 349.3447 656.5293)" font-family="'MyriadPro-Bold'" font-size="2.0346">100</text>
				<text transform="matrix(1 0 0 1 351.6421 658.5039)" font-family="'MyriadPro-Bold'" font-size="2.0346">120</text>
				<rect x="346.744" y="652.174" transform="matrix(0.9921 -0.1254 0.1254 0.9921 -79.1456 48.665)" width="0.678" height="1.98"/>
				
					<rect x="351.547" y="652.684" transform="matrix(0.9235 0.3835 -0.3835 0.9235 277.6207 -84.9721)" width="0.677" height="1.979"/>
				
					<rect x="354.995" y="654.889" transform="matrix(0.6966 0.7175 -0.7175 0.6966 578.3898 -55.9398)" width="0.678" height="1.978"/>
				
					<rect x="343.07" y="653.419" transform="matrix(0.8468 -0.5319 0.5319 0.8468 -295.4619 282.8918)" width="0.678" height="1.978"/>
				
					<rect x="341.204" y="654.888" transform="matrix(0.6941 -0.7199 0.7199 0.6941 -367.6868 446.5463)" width="0.68" height="1.979"/>
				
					<rect x="349.286" y="652.12" transform="matrix(0.9967 0.0815 -0.0815 0.9967 54.3832 -26.3145)" width="0.395" height="1.582"/>
				
					<rect x="344.652" y="652.686" transform="matrix(0.9255 -0.3786 0.3786 0.9255 -221.7528 179.2247)" width="0.395" height="1.581"/>
				
					<rect x="353.921" y="653.873" transform="matrix(0.8016 0.5978 -0.5978 0.8016 461.6208 -81.833)" width="0.395" height="1.582"/>
			</g>
			<g id="Capa_2_copia">
				<path fill="#1E1E1E" d="M348.495,647.109c-7.033,0-12.735,5.7-12.735,12.735c0,7.033,5.702,12.734,12.735,12.734
					c7.034,0,12.735-5.701,12.735-12.734C361.23,652.81,355.528,647.109,348.495,647.109z M348.495,670.13
					c-5.681,0-10.286-4.605-10.286-10.285s4.605-10.286,10.286-10.286c5.681,0,10.286,4.606,10.286,10.286
					S354.176,670.13,348.495,670.13z"/>
				<path fill="#3D3D3D" d="M348.495,647.109c-7.033,0-12.735,5.7-12.735,12.735c0,7.033,5.702,12.734,12.735,12.734
					c7.034,0,12.735-5.701,12.735-12.734C361.23,652.81,355.528,647.109,348.495,647.109z M348.495,671.675
					c-6.533,0-11.83-5.297-11.83-11.83c0-6.535,5.297-11.831,11.83-11.831c6.534,0,11.831,5.296,11.831,11.831
					C360.325,666.378,355.029,671.675,348.495,671.675z"/>
				<path fill="#EA2424" d="M348.073,660.685l0.222-7.746l0.449-0.001c0,0,0.164,7.727,0.174,7.748L348.073,660.685z"/>
				<circle fill="#1E1E1E" cx="348.495" cy="662.707" r="2.336"/>
			</g>
			<g id="FUEL">
				<rect x="379.899" y="652.266" fill="#232323" width="0.617" height="2.753"/>
				
					<rect x="386.906" y="655.495" transform="matrix(0.6362 0.7715 -0.7715 0.6362 647.6452 -59.7879)" fill="#232323" width="0.632" height="2.758"/>
				
					<rect x="372.889" y="655.498" transform="matrix(-0.6358 0.7719 -0.7719 -0.6358 1117.5081 786.4216)" fill="#232323" width="0.631" height="2.758"/>
				
					<rect x="375.944" y="653.157" transform="matrix(-0.9069 0.4215 -0.4215 -0.9069 993.0148 1088.8679)" fill="#232323" width="0.466" height="2.029"/>
				
					<rect x="383.986" y="653.158" transform="matrix(0.9083 0.4184 -0.4184 0.9083 308.9456 -100.7444)" fill="#232323" width="0.464" height="2.028"/>
				<text transform="matrix(1 0 0 1 372.5884 663.4658)" fill="#232323" font-family="'MyriadPro-Bold'" font-size="2.0781">FUEL</text>
				<text transform="matrix(1 0 0 1 374.2183 659.7666)" fill="#232323" font-family="'MyriadPro-Bold'" font-size="2.169">E</text>
				<text transform="matrix(1 0 0 1 385.0605 659.7666)" fill="#232323" font-family="'MyriadPro-Bold'" font-size="2.169">F</text>
				<text transform="matrix(1.4697 0 0 1 379.7715 656.9805)" fill="#232323" font-family="'MyriadPro-Bold'" font-size="2.169">/</text>
				<text transform="matrix(1 0 0 1 379.438 656.3008)" fill="#1E1E1E" font-family="'MyriadPro-Bold'" font-size="1.297">1</text>
				<text transform="matrix(1 0 0 1 380.6021 657.084)" fill="#232323" font-family="'MyriadPro-Bold'" font-size="1.297">2</text>
				<path d="M387.042,662.05c-0.032-0.025-0.28-0.248-0.366-0.208c-0.086,0.039,0.151,0.223,0.194,0.272
					c0.043,0.051,0.076,0,0.043,0.255c-0.032,0.255,0.047,0.646,0.086,0.725c0.04,0.08,0.206,0.468-0.149,0.424
					c-0.355-0.043-0.229-0.266-0.243-0.67c-0.011-0.308-0.203-0.376-0.345-0.392v-0.697h-1.234v1.899h-0.19v0.095h1.614v-0.095
					h-0.19v-1.054c0.095,0.027,0.182,0.081,0.214,0.137c0.079,0.139-0.058,0.285-0.004,0.595c0.054,0.308,0.404,0.377,0.626,0.255
					c0.222-0.123,0.033-0.532-0.007-0.65c-0.039-0.118-0.053-0.435-0.032-0.493c0.022-0.056,0.158-0.067,0.19-0.121
					C387.282,662.271,387.074,662.075,387.042,662.05z M386.166,662.472h-1.044v-0.617h1.044V662.472z"/>
			</g>
			<g id="Capa_2_copia_1_">
				<path fill="#1E1E1E" d="M380.185,646.9c-7.148,0-12.944,5.795-12.944,12.944c0,7.147,5.795,12.944,12.944,12.944
					s12.943-5.797,12.943-12.944C393.128,652.695,387.333,646.9,380.185,646.9z M380.185,670.299
					c-5.774,0-10.455-4.681-10.455-10.454c0-5.774,4.681-10.454,10.455-10.454s10.455,4.68,10.455,10.454
					C390.639,665.618,385.958,670.299,380.185,670.299z"/>
				<path fill="#3D3D3D" d="M380.185,646.9c-7.148,0-12.944,5.795-12.944,12.944c0,7.147,5.795,12.944,12.944,12.944
					s12.943-5.797,12.943-12.944C393.128,652.695,387.333,646.9,380.185,646.9z M380.185,671.869
					c-6.641,0-12.025-5.383-12.025-12.024s5.384-12.024,12.025-12.024s12.025,5.383,12.025,12.024S386.826,671.869,380.185,671.869z
					"/>
				<path fill="#EA2424" d="M380.601,662.062c0.021-0.009,5.901-5.219,5.901-5.219l0.309,0.338l-5.627,5.509L380.601,662.062z"/>
				<circle fill="#1E1E1E" cx="380.185" cy="662.755" r="2.375"/>
			</g>
		</g>
		<g>
			<rect x="401" y="704" fill="#969696" width="4" height="77"/>
			
				<rect x="399.528" y="701.593" transform="matrix(0.4819 -0.8762 0.8762 0.4819 -442.4969 736.401)" fill="#969696" width="3.901" height="81.597"/>
			
				<rect x="398.417" y="703.382" transform="matrix(-0.5146 -0.8574 0.8574 -0.5146 -31.7071 1470.3992)" fill="#969696" width="3.902" height="81.587"/>
			<path stroke="#000000" stroke-miterlimit="10" d="M402.367,676.733c-36.828,0-66.684,29.854-66.684,66.685
				c0,36.829,29.855,66.685,66.684,66.685c36.829,0,66.685-29.855,66.685-66.685C469.052,706.588,439.196,676.733,402.367,676.733z
				 M402.367,800.767c-31.672,0-57.349-25.677-57.349-57.349c0-31.673,25.677-57.35,57.349-57.35c31.673,0,57.35,25.677,57.35,57.35
				C459.717,775.09,434.04,800.767,402.367,800.767z"/>
			<path stroke="#000000" stroke-miterlimit="10" d="M390.823,687.231c0.276-0.04,8.123-0.938,8.254,5.427
				c0.131,6.366,0.153,10.852,0.153,10.852s-0.296,4.711,2.735,4.708c0.289,0,2.49,0.003,2.739,0.003c2.52,0,2.593-2.35,2.572-4.803
				c-0.024-2.661,0.138-10.656,0.138-10.656s0.573-5.452,6.566-5.452c6.149-0.001-1.285-2.154-1.285-2.154l-19.338,0.121
				L390.823,687.231z"/>
			<path stroke="#000000" stroke-miterlimit="10" d="M347.599,726.518c0.104-0.259,3.077-7.441,8.655-4.371
				c5.579,3.069,9.473,5.294,9.473,5.294s3.933,2.612,5.445-0.015c0.145-0.252,1.249-2.156,1.373-2.371
				c1.26-2.182-0.738-3.421-2.873-4.628c-2.318-1.311-9.161-5.448-9.161-5.448s-5.254-3.258-1.914-8.232
				c3.414-5.086-2.032-0.146-2.032-0.146l-9.564,16.81L347.599,726.518z"/>
			<path d="M360.128,782.159c-0.171-0.22-4.904-6.385,0.542-9.681c5.447-3.295,9.321-5.557,9.321-5.557s4.229-2.1,2.711-4.722
				c-0.146-0.253-1.244-2.161-1.368-2.375c-1.259-2.183-3.331-1.072-5.444,0.173c-2.293,1.352-9.299,5.209-9.299,5.209
				s-5.412,1.972-8.408-3.218c-3.075-5.324-0.819,2.446-0.819,2.446l9.775,16.688L360.128,782.159z"/>
			<path stroke="#000000" stroke-miterlimit="10" d="M416.267,799.029c-0.277,0.039-7.982,1.056-8.113-5.31
				c-0.131-6.366-0.152-10.851-0.152-10.851s0.296-4.712-2.734-4.709c-0.291,0-2.491-0.003-2.739-0.003
				c-2.52,0-2.594,2.349-2.572,4.802c0.023,2.661-0.14,10.657-0.14,10.657s-1.161,6.096-7.291,6.062
				c-6.148-0.035,2.011,1.544,2.011,1.544l19.339-0.121L416.267,799.029z"/>
			<path stroke="#000000" stroke-miterlimit="10" d="M457.403,759.861c-0.105,0.258-3.077,7.439-8.655,4.371
				c-5.579-3.07-9.474-5.294-9.474-5.294s-3.934-2.612-5.445,0.014c-0.145,0.252-1.249,2.156-1.373,2.37
				c-1.26,2.183,0.738,3.423,2.873,4.63c2.316,1.309,9.16,5.449,9.16,5.449s4.464,3.963,1.468,9.153
				c-3.074,5.325,2.479-0.777,2.479-0.777L458,762.969L457.403,759.861z"/>
			<path stroke="#000000" stroke-miterlimit="10" d="M443.759,703.662c0.171,0.219,4.905,6.385-0.543,9.68
				c-5.447,3.296-9.321,5.558-9.321,5.558c-4.981,2.474-1.751,6.379-2.711,4.722c-0.146-0.251,1.244,2.16,1.368,2.375
				c1.26,2.182,3.333,1.072,5.445-0.174c2.293-1.352,9.299-5.209,9.299-5.209s5.938-1.745,8.937,3.444
				c3.074,5.324,0.291-2.674,0.291-2.674l-9.775-16.687L443.759,703.662z"/>
			<path fill="#969696" d="M403.249,728.182c-8.38,0-15.173,6.794-15.173,15.173s6.793,15.172,15.173,15.172
				c8.379,0,15.172-6.793,15.172-15.172S411.628,728.182,403.249,728.182z M403.249,750.979c-4.21,0-7.625-3.413-7.625-7.624
				s3.414-7.625,7.625-7.625c4.21,0,7.624,3.414,7.624,7.625S407.459,750.979,403.249,750.979z"/>
			<circle cx="403.341" cy="742.518" r="8.708"/>
		</g>
	</g>
	<g>
		<path fill="#996234" d="M336.391,863.4c0,0-6.675-39.835-8.958-50.053c-4.271-19.129,3.903-61.094,2.914-68.437
			c-0.99-7.344-1.063-15.158,8.41-5.356c9.468,9.802,6.525,47.376,5.581,66.119c-0.951,18.735,11.833,39.659,13.006,45.487
			c1.155,5.837-10.017-1.283-10.017-1.283L336.391,863.4z"/>
		<path fill="#996234" d="M466.017,910.213c0,0,10.448-42.933,11.345-53.364c1.67-19.527-12.031-60.023-12.031-67.433
			c0-7.41-0.959-15.164-9.044-4.185c-8.079,10.979-0.149,47.822,3.291,66.271c3.451,18.44-13.146,39.026-13.517,44.958
			c-0.371,5.939,16.479-0.75,16.479-0.75L466.017,910.213z"/>
		<path fill="#8BC7E8" d="M466.065,801.089c0,0,7.527-52.664-22.807-62.475c-26.117-8.447-46.736-19.35-69.254-6.613
			c-22.524,12.745-33.086,7.379-36.285,32.298c-3.033,23.627-18.781,37.715,1.179,41.002c21.508,3.546,90.953,6.382,94.934,6.816
			C458.296,814.82,466.065,801.089,466.065,801.089z"/>
		<path fill="#996234" d="M384.123,658.773c0,0-0.657,28.91-0.136,63.863c0.351,23.5,17.937,25.8,28.068,17.543
			c13.062-10.645,3.588-48.751,5.015-56.296C418.5,676.33,384.123,658.773,384.123,658.773z"/>
		<path fill="#301705" d="M397.011,723.697c0,0-23.16-2.767-19.683-25.925c3.458-23.144-9.45-40.479,7.448-46.348
			c15.948-5.538,26.698-19.091,33.911,0.242s12.421,29.592,7.213,43.181c-5.203,13.604-4.114,16.918-10.733,25.527
			C408.555,728.999,397.011,723.697,397.011,723.697z"/>
	</g>
	<path fill="#5B5B5B" d="M501,798.973c0,2.478-1.39,4.027-2.697,4.027h-10.268c-1.308,0-2.035-1.55-2.035-4.027v-47.104
		c0-2.478,0.728-4.869,2.035-4.869h10.268c1.308,0,2.697,2.392,2.697,4.869V798.973z"/>
</g>
<g id="Veler">
	<path opacity="0.6" fill="#FFFFFF" d="M323.052,425.778c-0.392-0.093-0.727-0.212-1.026-0.35c-2.211-1.019-2.472-2.972-9.423-1.795
		c-7.892,1.334-8.089,6.586-13.69,4.603c-5.602-1.983-6.098-4.988-20.412-4.853c-14.313,0.136-5.686,4.887-21.421,4.047
		c-15.736-0.84-25.037-0.629-30.284-3.837c-5.246-3.207,3.467,0.546-16.795-0.178c-20.262-0.724-16.33,6.136-26.707,4.246
		c-10.377-1.888-22.967,1.555-28.711-1.694c-5.744-3.25-29.793-6.052-24.355-8.6c6.794-3.185,28.547-11.116,31.154-6.378
		c2.607,4.739,6.438,9.833,9.888,7.618s5.677-4.785,8.21-5.071c2.533-0.285,5.75,0.24,5.75,0.24s1.908,1.166,4.107,1.855
		c2.199,0.689,3.572-0.699,7.5-2.622s10.133-1.144,13.16,1.623c3.025,2.768,6.82,5.349,17.102,2.462
		c10.283-2.887,10.925-4.533,16.672-1.311c5.747,3.223,0.176,6.762,8.751,6.239c8.576-0.524,14.104-3.565,15.991-2.15
		c1.887,1.416-3.594,0.948,5.458,0.716c9.053-0.231,11.774-3.213,15.386,0.811c3.613,4.023,8.871,6.025,11.347,3.477
		s-0.13-7.311,5.884-4.277c6.014,3.034,12.625-2.934,14.717,0.009C323.398,423.55,323.052,425.778,323.052,425.778z"/>
	<path opacity="0.6" fill="#FFFFFF" d="M417.13,421.162c-0.392-0.094-0.728-0.213-1.026-0.35c-2.211-1.019-2.472-2.972-9.424-1.795
		c-7.892,1.334-8.088,6.585-13.69,4.603c-5.602-1.983-6.098-4.989-20.411-4.853c-14.313,0.136-5.686,4.887-21.421,4.047
		c-15.736-0.841-25.037-0.63-30.284-3.837c-5.246-3.208,3.467,0.546-16.795-0.178c-20.262-0.724-16.33,6.136-26.707,4.246
		c-10.377-1.889-22.967,1.555-28.711-1.695c-5.744-3.25-29.793-6.051-24.355-8.6c6.794-3.185,28.547-11.115,31.154-6.377
		c2.606,4.739,6.438,9.833,9.888,7.618s5.677-4.785,8.21-5.071c2.533-0.285,5.75,0.24,5.75,0.24s1.908,1.165,4.107,1.855
		c2.199,0.689,3.572-0.7,7.5-2.623c3.927-1.923,10.133-1.143,13.16,1.624c3.025,2.768,6.82,5.349,17.102,2.462
		c10.283-2.888,10.925-4.533,16.672-1.311c5.747,3.223,0.176,6.762,8.751,6.238c8.576-0.524,14.104-3.565,15.991-2.149
		c1.886,1.416-3.594,0.948,5.458,0.716c9.053-0.231,11.774-3.214,15.386,0.811c3.613,4.023,8.871,6.024,11.347,3.476
		c2.475-2.549-0.13-7.31,5.884-4.276c6.014,3.034,12.624-2.935,14.717,0.008C417.477,418.934,417.13,421.162,417.13,421.162z"/>
	<path opacity="0.4" fill="#FFFFFF" d="M352.166,424.229c-0.767-0.148-1.427-0.354-2.018-0.596
		c-4.371-1.792-5.034-5.557-18.415-2.712c-15.189,3.23-15.143,13.429-26.164,10.04c-11.021-3.388-12.228-9.175-39.964-7.743
		c-27.735,1.431-10.623,9.936-41.194,9.59c-30.572-0.345-48.585,0.821-59.017-4.967c-10.432-5.79,6.763,0.776-32.573,1.024
		c-39.336,0.249-31.156,13.224-51.426,10.409c-20.27-2.814-44.394,4.886-55.795-0.945c-11.401-5.83-58.249-9.304-47.915-14.686
		c12.912-6.727,54.433-23.874,59.873-14.9c5.439,8.974,13.281,18.535,19.79,13.96c6.508-4.575,10.615-9.739,15.502-10.499
		c4.888-0.761,11.167-0.005,11.167-0.005s3.793,2.104,8.114,3.263c4.319,1.157,6.868-1.646,14.324-5.695
		c7.457-4.048,19.551-3.042,25.642,2.075s13.658,9.812,33.354,3.378c19.697-6.436,20.808-9.68,32.211-3.901
		c11.403,5.778,0.893,13.095,17.474,11.38c16.581-1.713,27.049-8.06,30.822-5.47c3.772,2.59-6.889,2.132,10.64,0.944
		c17.529-1.188,22.561-7.19,29.893,0.315c7.331,7.505,17.687,10.956,22.278,5.814c4.591-5.144-0.847-14.162,11.059-8.771
		c11.905,5.39,24.233-6.718,28.53-1.186C352.655,419.882,352.166,424.229,352.166,424.229z"/>
	<path fill="#FFFFFF" d="M527.705,390.476L456.873,96.26c0,0,23.426,248.236-4.271,290.311
		C451.283,388.685,527.705,390.476,527.705,390.476z"/>
	<path fill="#FFFFFF" d="M445.384,52.208c0,0-65.922,292.203-79.121,300.879c-13.198,8.676,77.011,1.133,77.011,1.133
		L445.384,52.208z"/>
	<path fill="#474D5E" d="M334,386.46c0-3.567-2.892-6.46-6.46-6.46h-0.08c-3.568,0-6.46,2.893-6.46,6.46v10.08
		c0,3.567,2.892,6.46,6.46,6.46h0.08c3.568,0,6.46-2.893,6.46-6.46V386.46z"/>
	<path fill="#474D5E" d="M362,386c0-3.313-2.687-6-6-6l0,0c-3.313,0-6,2.687-6,6v10c0,3.313,2.687,6,6,6l0,0c3.313,0,6-2.687,6-6
		V386z"/>
	<path fill="#474D5E" d="M329,370c0-0.553-0.448-1-1-1l0,0c-0.552,0-1,0.447-1,1v12c0,0.553,0.448,1,1,1l0,0c0.552,0,1-0.447,1-1
		V370z"/>
	<path fill="#474D5E" d="M359,370.48c0-0.817-0.663-1.48-1.481-1.48h-0.038c-0.818,0-1.481,0.663-1.481,1.48v12.039
		c0,0.817,0.663,1.48,1.481,1.48h0.038c0.818,0,1.481-0.663,1.481-1.48V370.48z"/>
	<path fill="#474D5E" d="M449,399c0,1.104-0.896,2-2,2l0,0c-1.104,0-2-0.896-2-2V48c0-1.104,0.896-2,2-2l0,0c1.104,0,2,0.896,2,2
		V399z"/>
	<path fill="#D0DCE2" d="M532.111,396.111c0,0,0,28.506-2.334,31.307c-2.333,2.801-200.251,0.482-203.985,0.016
		c-3.734-0.467-20.54-0.291-16.338-26.748l42.478-6.701l7.935-4.984h79.518l24.576,5.984L532.111,396.111z"/>
	<path fill="#474D5E" d="M360.649,395.5c0-0.92,0.475-1.5,1.06-1.5h57.234c0.585,0,1.061,0.58,1.061,1.5l0,0
		c0,0.92-0.476,1.5-1.061,1.5h-57.234C361.124,397,360.649,396.42,360.649,395.5L360.649,395.5z"/>
	<path fill="#474D5E" d="M462.561,407.5c0-1.16,0.939-2.5,2.101-2.5h12.604c1.159,0,2.101,1.34,2.101,2.5l0,0
		c0,1.16-0.941,2.5-2.101,2.5h-12.604C463.5,410,462.561,408.66,462.561,407.5L462.561,407.5z"/>
	<path fill="#474D5E" d="M411.12,406.5c0-0.557,0.904-0.5,2.02-0.5h10.498c1.115,0,2.019-0.057,2.019,0.5l0,0
		c0,0.557-0.903,0.5-2.019,0.5H413.14C412.024,407,411.12,407.057,411.12,406.5L411.12,406.5z"/>
	<path fill="#474D5E" d="M393.354,406.5c0-0.557,0.904-0.5,2.019-0.5h10.498c1.115,0,2.02-0.057,2.02,0.5l0,0
		c0,0.557-0.904,0.5-2.02,0.5h-10.498C394.258,407,393.354,407.057,393.354,406.5L393.354,406.5z"/>
	<path fill="#545454" d="M365.072,362.134c0,0,0.439-7.793,1.723-9.231c1.283-1.438,78.205-2.883,78.205-2.883v13.527
		C444,363.547,365.072,362.134,365.072,362.134z"/>
	<path fill="#474D5E" d="M363,370.577c0,1.338-1.085,2.423-2.423,2.423h-52.154c-1.338,0-2.423-1.085-2.423-2.423v-0.154
		c0-1.338,1.085-2.423,2.423-2.423h52.154c1.338,0,2.423,1.085,2.423,2.423V370.577z"/>
	<path opacity="0.7" fill="#FFFFFF" d="M364.928,427.58c-0.397-0.064-0.74-0.161-1.048-0.276c-2.277-0.86-2.674-2.79-9.526-1.129
		c-7.778,1.886-7.606,7.139-13.333,5.555c-5.728-1.585-6.434-4.549-20.702-3.406c-14.269,1.142-5.328,5.273-21.084,5.542
		c-15.755,0.268-25.02,1.132-30.478-1.699c-5.459-2.83,3.496,0.302-16.767,1.004c-20.263,0.702-15.859,7.268-26.343,6.113
		c-10.484-1.154-22.801,3.164-28.76,0.326c-5.958-2.838-30.146-3.942-24.9-6.867c6.554-3.653,27.695-13.094,30.629-8.55
		s7.113,9.355,10.399,6.903c3.287-2.451,5.327-5.172,7.834-5.635c2.507-0.463,5.753-0.166,5.753-0.166s1.985,1.029,4.228,1.562
		s3.514-0.948,7.297-3.143s10.028-1.853,13.241,0.694c3.213,2.548,7.18,4.856,17.233,1.254c10.054-3.603,10.579-5.29,16.539-2.479
		c5.959,2.811,0.651,6.733,9.168,5.608s13.818-4.548,15.8-3.269s-3.518,1.199,5.496,0.331c9.014-0.867,11.519-4.033,15.405-0.273
		c3.886,3.76,9.272,5.388,11.562,2.671c2.29-2.717-0.643-7.284,5.569-4.681s12.387-3.814,14.681-1.026
		C365.117,425.333,364.928,427.58,364.928,427.58z"/>
</g>
<g id="Capa_3">
	<path fill="#F80606" d="M205.251,558.611C135.549,539.106,91.293,493.648,91,431.185l19.751,0.432l-28.78-32.856l-28.785,32.856
		h15.266v1.271h0.373c1.146,69.893,50.126,119.981,127.071,143.454C212.699,581.468,219.228,562.521,205.251,558.611z"/>
</g>
</svg>
