<?xml version="1.0" encoding="utf-8"?>
<!-- Generator: Adobe Illustrator 16.0.0, SVG Export Plug-In . SVG Version: 6.00 Build 0)  -->
<!DOCTYPE svg PUBLIC "-//W3C//DTD SVG 1.1//EN" "http://www.w3.org/Graphics/SVG/1.1/DTD/svg11.dtd">
<svg version="1.1" id="Capa_1" xmlns="http://www.w3.org/2000/svg" xmlns:xlink="http://www.w3.org/1999/xlink" x="0px" y="0px"
	 width="800px" height="800px" viewBox="0 0 800 800" enable-background="new 0 0 800 800" xml:space="preserve">
<g id="cèl">
	<g id="Cèl_2_">
		
			<linearGradient id="SVGID_1_" gradientUnits="userSpaceOnUse" x1="383.8086" y1="1582.8203" x2="1670.4951" y2="1582.8203" gradientTransform="matrix(-4.371139e-08 -1 -1 4.371139e-08 1956.5 1215.5005)">
			<stop  offset="0.1444" style="stop-color:#FFFFFF"/>
			<stop  offset="1" style="stop-color:#00C3FF"/>
		</linearGradient>
		<polygon fill="url(#SVGID_1_)" points="-271.129,-454.996 1016.906,-454.996 1018.487,831.691 -269.548,831.691 		"/>
	</g>
</g>
<g id="_x31_">
	<g id="Ancla">
		<path fill="#727272" d="M649.843,629.797c0.564,0.492,2.498-0.225,2.799-0.38c0.199-0.105,0.283-0.304,0.287-0.554
			c0.012-0.457-0.232-1.082-0.49-1.61c-0.278-0.789-5.646-31.694-8.855-50.151c-1.434-8.25-2.57-14.766-2.761-15.794
			c-0.271-1.502-0.771-2.459-1.469-2.853c-0.57-0.312-1.041-0.135-1.057-0.126c-2.024,0.394-2.012,1.04-1.81,2.144
			c0.033,0.186,0.072,0.392,0.1,0.618c0.16,1.369,8.094,55.787,8.434,58.103c0.163,0.766,0.467,2.854-0.046,3.572
			c-0.575,0.818-3.307,1.727-4.638,2.027c-6.307,1.451-10.854,1.893-11.322,1.102c-0.151-0.247-0.322-1.166,1.302-4.299
			c0.921-1.778,2.072-3.57,2.405-3.99c0.067-0.085,6.482-8.792,6.206-10.758c-0.026-0.183-0.108-0.332-0.234-0.42
			c-1.217-0.866-3.707,0.353-6.601,1.763l-0.748,0.373c-2.381,1.158-4.935,2.649-5.951,3.251c0.284-1.509,1.083-5.802,1.152-6.465
			c0.008-0.063,0.016-0.157,0.019-0.27c0.013-0.435-0.044-1.179-0.498-1.677c-0.285-0.316-0.676-0.471-1.162-0.474
			c-0.915,0.008-2.314,1.22-3.792,2.493c-0.247,0.227-0.499,0.433-0.733,0.642c-0.044-0.091-0.072-0.16-0.113-0.245
			c-0.893-1.94-2.104-4.593-3.431-4.98c-0.333-0.101-0.655-0.046-0.959,0.152c-1.392,0.897-0.905,4.946,1.526,12.718
			c1.824,5.824,5.682,14.123,5.722,14.205c0.835,1.795,3.417,4.52,6.291,4.686c2.742,0.165,18.662-2.573,20.374-2.871
			C649.812,629.75,649.83,629.772,649.843,629.797z"/>
		<g>
			<path fill="#727272" d="M638.982,561.651c0.174,0.113,0.371,0.165,0.577,0.129c0.422-0.062,0.708-0.459,0.637-0.896
				c-0.032-0.201-0.146-0.383-0.312-0.5c-0.166-0.118-0.37-0.17-0.575-0.137c-0.364,0.058-0.638,0.369-0.649,0.743
				c0,0.054,0.002,0.1,0.012,0.154C638.703,561.354,638.812,561.53,638.982,561.651z"/>
			<path fill="#727272" d="M630.167,631.461c2.567,0.157,17.658-2.415,20.06-2.829c-0.113-0.264-0.172-0.568-0.146-0.844
				c0.039-0.326,0.206-0.587,0.466-0.725c0.359-0.19,0.956-0.389,1.384-0.522l-0.102-0.055l-9.761-60.168
				c-0.529-3.014-0.884-5.06-0.984-5.601c-0.307-1.67-0.838-2.292-1.229-2.516c-0.364-0.209-0.67-0.106-0.718-0.098
				c-1.695,0.335-1.633,0.681-1.463,1.603c0.038,0.198,0.071,0.416,0.098,0.647c0.039,0.307,0.502,3.535,1.19,8.314
				c1.542,0.946,1.863,3.028,1.882,3.116c0.349,1.95,8.598,47.787,6.234,51.929c-0.629,1.105-4.18,1.878-4.572,1.962
				c-0.337,0.082-8.291,1.992-11.275,2.048c-4.346,0.069-6.477-5.409-6.911-7.533c-0.368-1.799,1.011-8.366,1.019-8.649v-0.003
				c0.006-0.232,1.271-6.165,1.351-6.923c0.054-0.505,0.099-1.193-0.249-1.575c-0.202-0.211-0.464-0.322-0.814-0.319
				c-0.738,0.003-2.197,1.271-3.485,2.377c-0.871,0.75-1.695,1.464-2.366,1.876c-0.892,0.549-1.454,0.708-1.778,0.505
				c-0.2-0.132-0.234-0.354-0.222-0.461l0.467,0.062c0.002,0.003,0.227,0.14,1.288-0.503c0.348-0.211,0.75-0.523,1.184-0.881
				c-0.057-0.118-0.11-0.229-0.168-0.36c-0.747-1.646-2.01-4.396-3.124-4.714c-0.197-0.065-0.383-0.034-0.571,0.087
				c-0.789,0.516-1.132,3.052,1.727,12.193c1.124,3.575,3.021,8.102,4.317,11.057c-0.157-4.977,1.918-15.085,2.646-18.657
				c0.135-0.667,0.242-1.186,0.248-1.268l0.241,0.013l0.23-0.038c0.002,0.008,0.004,0.021,0.004,0.038
				c0.004,0.083-0.033,0.293-0.252,1.345c-0.809,3.936-3.256,15.885-2.518,19.91c0.474,1.058,0.772,1.71,0.783,1.738
				C624.955,628.502,627.379,631.296,630.167,631.461z M638.709,562.039c-0.271-0.203-0.451-0.491-0.503-0.818
				c-0.113-0.691,0.361-1.325,1.03-1.436c0.328-0.057,0.658,0.025,0.929,0.217c0.278,0.198,0.453,0.48,0.502,0.811
				c0.013,0.085,0.017,0.168,0.016,0.237c-0.015,0.594-0.45,1.104-1.043,1.198C639.31,562.303,638.979,562.229,638.709,562.039z"/>
			<path fill="#727272" d="M639.055,569.308c2.35,16.201,7.092,48.688,7.146,49.109c0.069,0.299,0.607,2.917-0.119,3.931
				c-0.763,1.052-3.894,1.979-4.938,2.211c-4.057,0.936-10.982,2.286-11.822,0.876c-1.017-1.71,3.346-8.313,3.744-8.821
				c0.775-0.982,6.339-8.828,6.111-10.396c-0.003-0.024-0.014-0.081-0.041-0.097c-0.979-0.706-3.469,0.515-6.106,1.801l-0.752,0.369
				c-2.742,1.337-5.734,3.123-6.273,3.454c-0.179,0.84-1.433,6.772-1.105,8.354c0.381,1.877,2.382,7.212,6.381,7.147
				c2.933-0.044,11.062-2.007,11.153-2.034c1.035-0.216,3.812-0.958,4.252-1.733c2.283-3.99-6.206-51.136-6.291-51.62
				C640.387,571.839,640.132,570.231,639.055,569.308z"/>
			<path fill="#727272" d="M652.268,626.186l0.38,0.227c-0.344-1.621-1.577-8.503-3.624-20.204L652.268,626.186z"/>
			<path fill="#727272" d="M650.876,628.768c0.247,0.219,1.767-0.181,2.271-0.445c0.095-0.052,0.066-0.562-0.402-1.528l-0.165,0.039
				c-0.013,0.007-1.26,0.357-1.81,0.648c-0.126,0.06-0.196,0.186-0.222,0.358C650.51,628.19,650.688,628.603,650.876,628.768z"/>
			<path fill="#727272" d="M650.574,629.116c0.561,0.492,2.495-0.228,2.795-0.384c0.197-0.102,0.283-0.303,0.286-0.553
				c0.015-0.455-0.232-1.077-0.493-1.61c-0.273-0.786-5.648-31.689-8.86-50.147c-1.431-8.25-2.562-14.766-2.758-15.799
				c-0.276-1.495-0.771-2.451-1.477-2.849c-0.56-0.31-1.037-0.131-1.058-0.122c-2.022,0.395-2.002,1.034-1.796,2.14
				c0.033,0.188,0.069,0.393,0.088,0.619c0.162,1.374,8.1,55.79,8.438,58.108c0.168,0.761,0.47,2.852-0.041,3.57
				c-0.587,0.814-3.31,1.724-4.645,2.025c-6.307,1.446-10.855,1.893-11.325,1.102c-0.146-0.251-0.319-1.168,1.3-4.299
				c0.928-1.786,2.079-3.576,2.412-3.995c0.064-0.081,6.478-8.784,6.207-10.751c-0.028-0.188-0.109-0.329-0.24-0.422
				c-1.212-0.867-3.711,0.353-6.596,1.763l-0.757,0.374c-2.382,1.156-4.957,2.649-5.971,3.252c-0.053,0.291-0.117,0.472-0.125,0.514
				l-0.517-0.088c-0.002-0.001-0.105-0.013-0.104-0.017l-0.003,0.003c-0.009,0.283-1.384,6.854-1.016,8.654
				c0.438,2.112,2.615,7.599,6.962,7.523c2.989-0.045,10.91-1.964,11.253-2.048c0.396-0.081,3.928-0.859,4.559-1.96
				c2.36-4.146-5.895-49.984-6.243-51.931c-0.012-0.09-0.342-2.171-1.888-3.116c-0.693-4.783-1.161-8.01-1.193-8.317
				c-0.026-0.234-0.061-0.451-0.101-0.646c-0.166-0.923-0.228-1.266,1.469-1.603c0.047-0.014,0.35-0.113,0.714,0.1
				c0.392,0.227,0.922,0.844,1.231,2.516c0.101,0.542,0.454,2.586,0.98,5.601l9.768,60.166l0.096,0.057
				c-0.432,0.132-1.023,0.335-1.382,0.523c-0.261,0.137-0.425,0.399-0.466,0.731c-0.029,0.267,0.033,0.572,0.148,0.838
				c0.191-0.033,0.314-0.054,0.328-0.057l0.084,0.465c-0.033,0.005-0.071,0.013-0.133,0.021
				C650.53,629.08,650.549,629.103,650.574,629.116z M639.062,569.329c1.076,0.917,1.332,2.52,1.335,2.54
				c0.087,0.483,8.576,47.633,6.294,51.62c-0.439,0.775-3.222,1.513-4.256,1.739c-0.09,0.026-8.217,1.982-11.147,2.028
				c-4.007,0.068-6.003-5.271-6.386-7.146c-0.32-1.583,0.922-7.519,1.103-8.353c0.544-0.333,3.533-2.121,6.276-3.456l0.75-0.367
				c2.639-1.293,5.129-2.512,6.108-1.802c0.035,0.014,0.041,0.067,0.043,0.094c0.231,1.574-5.337,9.418-6.113,10.399
				c-0.399,0.505-4.76,7.111-3.743,8.822c0.833,1.41,7.766,0.059,11.821-0.877c1.044-0.236,4.178-1.159,4.938-2.211
				c0.724-1.015,0.19-3.64,0.119-3.934C646.147,618.005,641.405,585.521,639.062,569.329z M652.647,626.412l-0.38-0.227
				l-3.244-19.978C651.074,617.909,652.302,624.785,652.647,626.412z M650.877,628.766c-0.189-0.166-0.367-0.578-0.325-0.929
				c0.023-0.17,0.095-0.299,0.222-0.358c0.551-0.301,1.794-0.642,1.812-0.648l0.163-0.039c0.466,0.97,0.496,1.478,0.401,1.526
				C652.642,628.58,651.129,628.982,650.877,628.766z"/>
			<path fill="#727272" d="M620.721,605.695c0.122-0.096,0.246-0.199,0.369-0.304c-0.034-0.093-0.072-0.16-0.108-0.245
				c-0.897-1.94-2.108-4.594-3.425-4.982c-0.336-0.101-0.66-0.047-0.965,0.149c-1.389,0.899-0.901,4.946,1.529,12.728
				c1.829,5.814,5.683,14.119,5.729,14.196c0.836,1.796,3.412,4.522,6.291,4.692c2.738,0.163,18.651-2.577,20.369-2.876
				c-0.115-0.111-0.21-0.263-0.282-0.43c-2.395,0.407-17.483,2.979-20.058,2.83c-2.788-0.163-5.215-2.957-5.895-4.416
				c-0.013-0.028-0.312-0.683-0.784-1.739c0.001,0.01,0.003,0.022,0.004,0.034l-0.462,0.082c-0.077-0.412-0.127-0.9-0.137-1.464
				c-1.301-2.949-3.188-7.48-4.316-11.052c-2.858-9.149-2.517-11.676-1.726-12.196c0.186-0.114,0.372-0.149,0.57-0.083
				c1.111,0.312,2.376,3.064,3.126,4.714C620.612,605.461,620.664,605.576,620.721,605.695z"/>
			<path fill="#727272" d="M650.508,629.059c0.062-0.008,0.099-0.016,0.132-0.022l-0.081-0.464
				c-0.018,0.002-0.141,0.025-0.331,0.056C650.3,628.797,650.395,628.942,650.508,629.059z"/>
			<path fill="#727272" d="M625.665,611.404c0.008-0.01,0.177-0.106,0.456-0.269c0.283-1.507,1.08-5.802,1.146-6.466
				c0.018-0.057,0.018-0.155,0.026-0.267c0.012-0.44-0.05-1.18-0.498-1.672c-0.288-0.325-0.683-0.477-1.17-0.479
				c-0.915,0.008-2.312,1.219-3.792,2.492c-0.249,0.227-0.5,0.431-0.739,0.643c0.057,0.118,0.114,0.247,0.168,0.355l-0.421,0.2
				c-0.04-0.075-0.077-0.165-0.115-0.252c-0.437,0.358-0.841,0.672-1.187,0.882c-1.061,0.646-1.282,0.507-1.283,0.507l-0.472-0.064
				c-0.016,0.116,0.021,0.332,0.222,0.461c0.325,0.207,0.896,0.037,1.779-0.505c0.67-0.412,1.494-1.118,2.363-1.876
				c1.291-1.105,2.749-2.371,3.489-2.377c0.349-0.002,0.616,0.108,0.812,0.318c0.348,0.384,0.412,1.068,0.363,1.577
				c-0.088,0.763-1.199,6.696-1.247,6.923l0.021-0.093L625.665,611.404z"/>
			<path fill="#727272" d="M626.028,611.645c0.008-0.034,0.043-0.23,0.096-0.511c-0.282,0.159-0.447,0.255-0.454,0.263l-0.09,0.052
				l-0.021,0.095c-0.001,0.003-0.001,0.016-0.001,0.016L626.028,611.645z"/>
			<path fill="#727272" d="M621.26,605.741c-0.052-0.105-0.11-0.236-0.168-0.357c-0.129,0.104-0.249,0.211-0.375,0.309
				c0.037,0.083,0.076,0.171,0.115,0.25L621.26,605.741z"/>
			<path fill="#727272" d="M622.895,623.943c0.219,0.507,0.419,0.958,0.597,1.355c-0.737-4.021,1.71-15.972,2.517-19.908
				c0.214-1.052,0.25-1.262,0.254-1.348c0.001-0.016-0.002-0.028-0.004-0.036l-0.23,0.036l-0.242-0.01
				c-0.007,0.08-0.112,0.6-0.249,1.268C624.809,608.863,622.737,618.982,622.895,623.943z"/>
			<path fill="#727272" d="M623.484,625.307c-0.176-0.397-0.382-0.851-0.594-1.355c0.011,0.564,0.06,1.048,0.133,1.459l0.468-0.078
				C623.487,625.322,623.486,625.313,623.484,625.307z"/>
			<path fill="#727272" d="M638.708,562.037c0.274,0.188,0.601,0.264,0.931,0.217c0.59-0.099,1.029-0.599,1.042-1.196
				c0.002-0.072-0.003-0.152-0.017-0.237c-0.049-0.33-0.229-0.615-0.502-0.81c-0.271-0.189-0.603-0.274-0.931-0.219
				c-0.667,0.108-1.142,0.742-1.031,1.434C638.26,561.556,638.438,561.839,638.708,562.037z M638.982,561.656
				c-0.17-0.121-0.282-0.302-0.314-0.503c-0.011-0.054-0.014-0.103-0.008-0.154c0.007-0.374,0.283-0.686,0.645-0.745
				c0.205-0.036,0.411,0.015,0.576,0.134c0.168,0.121,0.283,0.299,0.311,0.502c0.073,0.437-0.217,0.83-0.632,0.896
				C639.357,561.821,639.154,561.772,638.982,561.656z"/>
		</g>
	</g>
	<g id="Barco_Petit">
		<g id="Capa_22_copia">
			<path fill="#36627A" d="M127.808,358.445c-1.866,0.392-7.83,13.308-5.938,23.503c1.896,10.194,7.333,33.811,10.454,37.7
				c3.13,3.89,7.055,10.842,7.055,10.842s-13.799,7.414-16.001,12.267c0,0,0.004,1.989,1.69,1.724
				c1.686-0.268,16.404-1.069,17.096,0.585c0.692,1.649,2.036,10.225,2.255,11.346c0.228,1.114-0.392,6.182-0.607,8.001
				c-0.091,0.753-4.601,8.018-3.78,9.659c0.839,1.645,6.946,1.701,10.355,1.621c3.401-0.077,21.557-12.237,24.085-14.477
				c2.531-2.235,3.244-29.282,3.244-29.282s-5.162-35.363-3.895-35.436c1.269-0.072,9.828-3.521,12.577-6.704
				c2.751-3.188,1.729-18.604,0.434-21.062C185.51,366.266,155.793,352.543,127.808,358.445z"/>
			<path fill="#6C808C" d="M141.687,456.017c0,0,2.94-0.6,3.108-0.236c0.169,0.369,0.813,1.387,0.674,3.353
				c-0.14,1.97,0.616,4.467-0.934,4.655c-1.55,0.188-2.616,0.195-2.616,0.195s-2.582,6.371-6.561,8.297
				c-3.981,1.928-6.659,1.271-4.208-1.25c2.443-2.523,7.042-5.492,6.602-6.53c-0.436-1.034-8.148,0.027-8.148,0.027l0.069-6.236
				c0,0,5.895-0.57,6.187-0.457c0.294,0.113,2.516-1.538,0.829-2.266c-1.688-0.727-8.951,0.013-7.792-2.562
				c1.162-2.574,0.881-2.551,3.623-2.895c2.747-0.346,6.259,1.006,7.817,2.893C141.888,454.888,141.687,456.017,141.687,456.017z"/>
		</g>
		<g>
			<path fill="#FF0000" d="M296.905,440.872l-27.74-23.212l-116.37-6.607c36.325-7.473,105.148-18.403,207.672-24.722
				c73.659-4.536,135.375-5.009,163.922-3.565c51.904,2.634,86.825-0.384,95.692-1.288c-1.508,0.953-3.722,2.45-5.064,3.7
				c-1.023,0.941-1.919,2.222-3.178,3.99c-2.523,3.588-6.39,8.764-14.924,16.812l-0.853,0.776
				c-56.971,27.758-134.202,35.938-189.671,37.515C347.642,445.947,299.386,441.131,296.905,440.872z"/>
			<path d="M362.642,347.938c-0.498-1.005-0.896-1.758-1.21-2.325c-0.164-0.281-0.304-0.518-0.428-0.712
				c-0.618-0.984-0.821-0.987-0.943-0.991l-0.353,0.219c-0.168,0.316-0.354,0.656-0.571,1.008c-0.143,0.236-0.295,0.479-0.454,0.727
				c-0.086,0.123-0.168,0.248-0.247,0.371c-2.248,3.264-5.978,7.103-8.218,6.516c-1.067-0.286-1.709-1.006-1.967-2.224
				c-0.033-0.141-0.053-0.289-0.072-0.438c-0.016-0.155-0.035-0.314-0.035-0.482c-0.14-4.328,3.719-12.808,8.789-18.219
				c0.778-0.831,1.588-1.591,2.418-2.246c0.458-0.37,0.981-0.742,1.533-1.057c0.887-0.507,1.846-0.868,2.736-0.824
				c0.335,0.016,0.662,0.091,0.977,0.234c0.496,0.232,0.826,0.616,1.009,1.183c0.121,0.369,0.167,0.802,0.167,1.259
				c-0.033,3.234-2.783,8.149-2.821,8.209l-0.204,0.366l4.49,1.298L362.642,347.938z M363.195,331.955
				c-0.014-0.499-0.135-0.906-0.413-1.182c-0.053-0.057-0.113-0.104-0.182-0.152c-0.166-0.109-0.362-0.168-0.573-0.168
				c-0.149,0-0.302,0.034-0.482,0.098c-1.206,0.431-2.939,2.302-4.685,4.701l-0.08-0.096l-0.078-0.093l-1.527,2.65
				c-0.758,1.181-1.482,2.409-2.124,3.6c-1.079,1.985-1.934,3.877-2.374,5.297c-0.242,0.808-0.354,1.461-0.327,1.957
				c0.009,0.125,0.031,0.239,0.047,0.345c0.069,0.316,0.217,0.554,0.439,0.701c0.099,0.066,0.209,0.096,0.327,0.096
				c1.374,0,5.824-5.392,7.674-8.023c0.066-0.101,0.132-0.191,0.193-0.286c0.113-0.176,0.228-0.341,0.307-0.482
				c0.098-0.142,0.167-0.266,0.209-0.363c0.055-0.091,0.121-0.195,0.211-0.325c0.08-0.128,0.167-0.275,0.268-0.442
				C361.113,337.975,363.246,334.133,363.195,331.955z"/>
			<path fill="#3FA9F5" d="M404.836,333.464c-1.777,0.245-8.019,1.26-13.437,2.283c-0.345,0.064-0.686,0.131-1.023,0.198
				c-0.176,0.034-0.351,0.069-0.526,0.104c-0.742,0.148-1.458,0.301-2.142,0.45c-0.214,0.047-0.422,0.097-0.626,0.147
				c-0.516,0.116-1.007,0.237-1.464,0.36c-0.185,0.049-0.365,0.097-0.536,0.147c-0.035,0.006-0.085,0.018-0.142,0.033
				c-1.667,0.369-11.175,2.583-12.595,5.05c-0.044,0.082-0.084,0.148-0.109,0.231c-0.834,2.385-2.858,15.73-3.192,18.702h-5.684
				l-1.989-5.024l0.771-7.139l0.302-0.139l0,0l0,0c-0.019-0.036-0.034-0.068-0.045-0.102c-0.02-0.033-0.035-0.067-0.048-0.1
				l4.93-8.666l0.075,0.019l0,0l0,0l0.098-0.315l0.072-0.126l0.126-0.222l7.363-15.492l1.126-0.396l1.13-0.396l3.31-18.059
				c0.162,0,0.386-0.002,0.665-0.002c1.931,0,8.374,0.054,10.227,0.756C393.013,306.362,400.47,322.798,404.836,333.464z"/>
			<path d="M359.601,338.706c0.035,0,0.057-0.006,0.082-0.011c0.062-0.013,0.115-0.049,0.167-0.09
				c-0.324,0.566-0.652,1.113-0.972,1.621c-0.178,0.36-0.528,0.896-0.974,1.526c-0.073-0.169-0.099-0.361-0.099-0.524
				c-0.005-0.28,0.05-0.504,0.052-0.512l0.101-0.343l-3.151-0.666l1.318-2.301c0.251-0.379,0.506-0.748,0.771-1.109
				C358.803,338.503,359.375,338.714,359.601,338.706z"/>
			<path d="M359.758,340.231c-0.084,0.13-0.15,0.239-0.204,0.324c-0.044,0.099-0.113,0.222-0.209,0.364
				c-0.09,0.145-0.193,0.305-0.309,0.484c-0.061,0.091-0.125,0.183-0.193,0.283c-1.844,2.637-6.295,8.024-7.674,8.024
				c-0.118,0-0.236-0.031-0.324-0.094c-0.234-0.151-0.373-0.382-0.442-0.701c-0.025-0.103-0.038-0.224-0.044-0.346
				c-0.03-0.497,0.088-1.146,0.324-1.958c0.437-1.42,1.295-3.31,2.38-5.297c0.637-1.192,1.371-2.418,2.118-3.595l1.527-2.655
				l0.079,0.093l0.081,0.094c1.744-2.397,3.475-4.269,4.683-4.701c0.171-0.06,0.333-0.097,0.484-0.097
				c0.22,0,0.408,0.058,0.572,0.17c0.067,0.04,0.129,0.096,0.183,0.15c0.276,0.278,0.397,0.688,0.411,1.18
				c0.045,2.176-2.081,6.019-3.176,7.83C359.927,339.955,359.837,340.104,359.758,340.231z M351.262,346.809
				c-0.522,1.722-0.301,2.143-0.209,2.227c1.105-0.206,4.426-4.015,6.408-6.693c-0.362-0.479-0.368-1.081-0.316-1.453l-2.835-0.598
				C352.966,342.604,351.821,344.958,351.262,346.809z M356.12,337.409l-1.321,2.3l3.151,0.667l-0.101,0.341
				c-0.003,0.005-0.06,0.234-0.057,0.512c0.002,0.166,0.034,0.355,0.103,0.524c0.443-0.633,0.795-1.169,0.972-1.526
				c0.318-0.508,0.647-1.055,0.973-1.621c-0.049,0.038-0.104,0.075-0.168,0.09c-0.022,0.003-0.039,0.01-0.079,0.011
				c-0.226,0.007-0.798-0.204-2.717-2.41C356.629,336.659,356.375,337.028,356.12,337.409z M362.233,331.177
				c-0.051-0.036-0.126-0.057-0.211-0.057c-0.928,0-2.791,1.957-4.742,4.625c0.838,0.958,1.776,1.933,2.184,2.222
				c0.231-0.344,0.662-0.48,1.025-0.521C361.981,334.652,363.118,331.766,362.233,331.177z"/>
			<path fill="#FFFFFF" stroke="#FFFFFF" stroke-miterlimit="10" d="M151.757,406.245l0.156-0.1l-0.102-9.174l5.731-3.505
				l25.08,0.441l0.058-0.021l10.39-3.842l0.436-21.429l18.75-4.575l40.087-0.112l2.112-3.882l33.962-1.887l0.225-3.44l7.064-0.718
				l-0.64-0.505c-0.009-0.007-0.992-0.799-0.972-1.76c0.019-0.558,0.37-1.091,1.069-1.578c0.511-0.368,2.03-0.799,6.289-0.799
				c3.917,0,8.693,0.352,12.187,0.609c1.723,0.128,3.088,0.234,3.884,0.255c2.382,0.072,5.027,1.87,6.47,3.504
				c0.887,1.003,1.355,1.985,1.292,2.679c-0.214,2.217-0.572,2.752-2.171,3.052l0.101,0.704l23.444-2.222l14.475-1.364l1.979,5.085
				h6.265l0.034-0.752c0.031-0.155,2.34-16.166,3.204-18.65c0.677-1.943,9.167-4.214,12.382-4.917
				c5.669-1.591,17.505-3.255,19.677-3.55l0.034,0.08l0.236-0.022c0.004,0,0.465-0.042,1.108-0.042c1.814,0,3.129,0.304,3.722,0.84
				c0.645,0.594,0.65,1.778,0.655,2.928c0.005,0.991,0.008,1.927,0.381,2.624c0.769,1.426,7.351,12.558,7.637,13.029l0.094,0.152
				l0.169,0.012c0.97,0.056,96.487,5.702,117.795,8.325c1.651,0.202,3.535,0.395,5.598,0.684
				c32.25,4.541,77.418,13.255,77.418,13.255c3.496,0.062,4.879,1.158,5,2.081c0.112,0.853-0.771,1.711-2.221,2.136
				c-0.042,0.021-1.013,0.516-2.343,1.302c-5.858,0.645-41.213,4.14-96.439,1.34c-28.566-1.446-90.379-0.878-164.058,3.663
				c-104.98,6.469-169.762,16.796-205.631,24.317l-1.574,0.33c-2.978-0.039-4.036-0.338-4.173-0.501
				c-0.041-0.095-0.104-0.181-0.17-0.271c-0.16-0.209-0.236-0.327-0.198-0.491C147.836,408.975,149.155,407.888,151.757,406.245z"/>
			<path fill="#FFFFFF" stroke="#FFFFFF" stroke-miterlimit="10" d="M296.809,441.122l0.101,0.011
				c0.401,0.042,34.815,3.632,82.214,3.632c8.211,0,16.804-0.101,25.665-0.358c55.228-1.572,132.845-9.224,189.839-36.666
				c-0.157,0.14-0.297,0.271-0.438,0.413c-1.965,1.816-3.92,3.739-5.99,5.78c-13.096,12.891-29.392,28.932-71.427,41.155
				c-9.673,2.812-20.025,4.125-32.599,4.125c-10.768,0-21.812-0.292-33.506-1.303c-12.84-1.107-26.105-2.25-40.297-2.25
				c-2.18,0-4.355,0.028-6.467,0.083c-2.131,0.052-4.629,0.083-7.422,0.083c-55.271,0-223.639-11.561-230.629-12.014l-12.489-31.975
				l115.785,6.072L296.809,441.122z"/>
		</g>
	</g>
	<g>
		<path fill="#FFCBA1" d="M589.647,306.715c0,0-1.211,7.411-2.79,9.653c-1.578,2.249-2.841,9.857-3.402,12.2
			c-0.562,2.339-2.782,7.773-3.732,19.652c-0.503,6.253-0.591,10.279-0.495,12.691c-0.054,1.679-0.145,3.325-0.302,3.611
			c-0.342,0.616-1.188,3.959-1.062,4.538c0.128,0.575,0,2.74,0,2.74l-0.111,1.377l3.303,0.92c0,0,2.046,0.126,3.834,0
			c1.784-0.129,4.036-0.384,5.402-0.918c1.374-0.534-0.86-3.425-1.113-4.445c-0.253-1.021-0.583-1.936-0.639-3.145
			c-0.055-1.209-0.426-1.542-1.006-2.152c-0.489-0.513,0.101-3.626,0.292-4.582c0.01-0.034,0.03-0.129,0.061-0.289v-0.003
			c0.382-1.833,2.367-11.402,2.512-12.931c0.159-1.696,4.231-12.959,4.439-15.16c0.207-2.203,1.21-4.525,1.21-4.525l2.636-4.368
			c0,0,0.168-3.573,0.399-4.235C599.308,316.689,589.647,306.715,589.647,306.715z"/>
		<path fill="#FFCBA1" d="M612.164,294.675c0.046,0.453,2.294,9.041,2.695,9.977c0.4,0.936,2.819,9.835,3.421,11.541
			c0.603,1.703,2.693,4.14,2.649,5.036c-0.05,0.893,0.353,2.126-0.701,3.374c-1.046,1.248-3.521,3.557-4.229,3.19
			c-0.704-0.37-3.062-3.433-2.81-4.005c0.256-0.574,1.212-3.773,1.155-4.229c-0.06-0.453-0.443-3.631-1.864-5.56
			c-1.418-1.928-5.346-9.629-5.652-10.255c-0.307-0.629-3.552-8.712-3.552-8.712L612.164,294.675z"/>
		<path fill="none" stroke="#727272" stroke-width="1.5" stroke-miterlimit="10" d="M574.25,372.31c0,0,37.146-44.849,41.478-48.905
			c4.333-4.053,5.483-7.178,14.279-3.574c9.427,4.866,8.017,233.386,8.822,241.437"/>
		<path fill="none" stroke="#727272" stroke-width="3" stroke-linecap="round" stroke-miterlimit="10" stroke-dasharray="1.5,4" d="
			M572.75,373.5c0,0,38.646-46.039,42.978-50.096c4.333-4.053,5.186-7.425,13.981-3.821c10.25,6.042,8.314,233.633,9.12,241.684"/>
		<path fill="#FFCBA1" d="M608.476,318.857c0,0,5.59,7.706,5.508,9.946c-0.08,2.236-0.191,6.17-0.569,8.799
			c-0.377,2.627-0.786,9.696-1.052,11.13c-0.264,1.43-0.622,5.597-0.855,9.458c-0.231,3.858-0.15,7.882-0.15,7.882l1.629,1.8
			c0,0,3.585,1.674,5.392,3.059c1.803,1.381,4.357,2.121,4.831,2.219c0.474,0.094,1.67,1.65,1.74,2.506
			c0.071,0.855,0.221,0.871-2.194,1.092c-2.414,0.223-10.477-1.29-12.665-1.198c-2.186,0.098-3.837-0.02-6.066-0.1
			s-3.254-0.479-3.836-1.355c-0.583-0.879,1.585-8.099,1.528-8.271c0,0,2.166-8.135,1.377-9.145
			c-0.787-1.008-1.725-17.943-0.552-20.104c1.172-2.159,0.693-4.797,0.693-4.797s-0.402-0.1-0.951-0.286
			c-1.113-0.383-8.936-10.26-9.183-11.389c-0.367-1.688,1.801-2.521,1.801-2.521L608.476,318.857z"/>
		<path fill="#FFCBA1" d="M633.767,299.109c0,0-2.768,5.72-3.455,6.852c-0.688,1.133-1.078,6.181-1.523,8.085
			c-0.444,1.902,0.387,5.271,0.428,5.871c0.041,0.604,0.525,2.894-0.096,4.18c-0.623,1.29-0.761,2.568-2.472,1.762
			c-1.708-0.808-2.289-4.004-2.949-4.215c-0.661-0.212-1.674-1.508-1.721-2.11c-0.047-0.604-4.062-4.349-3.252-8.05
			c0.813-3.698,2.045-5.378,2.476-7.729c0.436-2.352,5.396-12.803,5.396-12.803L633.767,299.109z"/>
		<g>
			<path fill="#FFCBA1" d="M632.991,273.437c0.162,0.078,4.349,1.159,5.07,1.232c0.724,0.072,3.018,0.186,3.255,0.234
				c0.234,0.044,1.724-0.34,2.632-0.603c0.904-0.261,4.041-1.557,4.717-1.398c0.677,0.156,5.866,0.864,5.899,0.993
				c0.038,0.129,2.909,3.321,2.947,3.601c0.04,0.285,1.905,4.938,1.671,6.184c-0.231,1.242-2.272,5.182-2.739,5.552
				s-3.042,1.886-3.572,1.942c-0.529,0.052-3.152-0.002-3.536,0.266c-0.382,0.264-0.683,0.211-0.977,0.003
				c-0.3-0.211-0.427-0.694-0.835-0.462c-0.411,0.23-0.869,0.392-1.38,0.694c-0.516,0.304-1.878,1.136-2.126,1.153
				c-0.248,0.017-0.382,0.161-0.72-0.332c-0.337-0.49-0.554-0.807-0.554-0.807s-1.082-0.441-1.316-0.335
				c-0.232,0.11-1.318,0.034-1.66,0.06c-0.344,0.031-2.608-0.784-2.769-0.937c-0.154-0.153-0.499-1.104-0.494-1.469
				c0.007-0.366,0.463-2.33,0.463-2.33l0.39-1.458l-1.562-0.992c0,0-0.896,0.051-1.097,0.136c-0.201,0.086-0.699,0.71-1.146,0.852
				c-0.447,0.139-1.754,1.092-1.754,1.092s-2.235-3.319-2.555-4.389c-0.325-1.07,2.66-7.47,2.66-7.47s1.057-1.286,1.069-1.148"/>
			<path fill="#662F09" d="M638.829,274.685l0.042,1.183l1.027,1.224c0,0,0.501,0.995,0.82,0.975
				c0.317-0.016,0.688,0.255,1.088,0.171c0.398-0.085,2.139,0.103,2.201-0.02c0.062-0.126,1.442,0.133,1.442,0.133
				s0.114,0.234,0.449,0.538c0.337,0.302,0.984,1.173,0.984,1.173l0.882,1.01c0,0-0.555,0.05,0.226-0.186
				c0.776-0.234,1.726-0.11,1.726-0.11l1.896,1.654c0,0,0.926-1.777,0.607-2.255c-0.314-0.479-4.439-4.707-4.837-4.786
				c-0.396-0.075-2.009-1.307-2.009-1.307s-3.082-0.333-3.312-0.143c-0.229,0.191-0.865,0.226-1.104,0.339
				c-0.236,0.116-1.956,0.252-1.956,0.252"/>
			<path fill="#908DFF" d="M644.672,274.169l10.564,16.729c0,0,9.756-4.544,3.957-13.666
				C654.329,269.578,649.571,271.056,644.672,274.169z"/>
			<path fill="#908DFF" d="M661.816,299.559c-0.154,0.11-0.335,0.133-0.446-0.031l-6.554-9.127
				c-0.113-0.156-0.069-0.362,0.088-0.474l0.188-0.124c0.155-0.111,0.377-0.071,0.488,0.086l6.538,9.098
				c0.106,0.16,0.034,0.321-0.116,0.438L661.816,299.559z"/>
		</g>
		<path fill="#F7931E" d="M587.323,274.081c-0.805,0.074-6.549,3.42-8.487,5.931c-1.931,2.511-4.11,4.997-4.058,9.188
			c0.05,4.193,4.49,14.632,4.641,15.997c0.148,1.358,1.963,10.207,1.963,10.207s3.782,1.402,5.003,1.221
			c1.225-0.186,1.613-0.896,1.613-0.896s0.993,5.475,1.082,5.936c0.088,0.461,13.352,2.457,15.619,1.477
			c2.264-0.981,6.418-2.535,6.418-2.535l-1.571-3.735c0,0-1.962-2.129-0.803-6.062c1.153-3.926-0.028-3.59-0.082-6.438
			c-0.054-2.848-1.881-8.552-2.74-9.085C605.065,294.752,587.323,274.081,587.323,274.081z"/>
		<path fill="#FFF599" d="M585.39,273.001c0.5-0.103,25.687-13.728,37.777-8.55c12.091,5.182,15.92,7.189,16.007,10.336
			c0.084,3.149,0.936,9.066,1.189,9.984c0.255,0.923-1.846,12.987-1.846,12.987l-1.085,3.187c0,0-1.836-0.918-3.054-0.289
			c-1.217,0.635-2.676,0.497-2.676,0.497s-7.436-6.538-6.799-7.224c0.642-0.686-4.303,4.381-7.516,4.227
			c-3.21-0.154-9.199-1.768-10.213-1.264c-1.018,0.501-5.211,0.704-5.311,0.097c-0.101-0.606-6.001-6.248-6.001-6.248
			s-1.78-5.255-2.482-6.368c-0.7-1.109-7.049-8.439-7.549-9.39C585.333,274.043,585.39,273.001,585.39,273.001z"/>
	</g>
	<g id="_x31__1_">
		<path fill="#996234" d="M326.977,361.269c0,0-2.239-2.598-1.745-5.661c0.489-3.059,1.174-4.623,3.053-5.161
			c1.877-0.537,4.425-0.781,4.943-0.517c0.524,0.267,6.857,2.776,8.304,3.276c1.441,0.503,5.396,3.116,5.475,4.32
			c0.09,1.205,0.312,1.592,0.802,2.768c0.492,1.176,1.236,6.487,1.236,6.487l-9.556,1.051c0,0,0.104-3.727-0.601-3.983
			c-0.706-0.251-10.033-1.204-10.67-1.561C327.597,361.933,326.977,361.269,326.977,361.269z"/>
		<path fill="#EF45B7" d="M291.6,346.369c0,0-0.503-4.729-0.706-4.729c-0.203,0,6.628-0.402,8.251-1.609
			c2.013-1.499,13.082-1.409,13.082-1.409l7.346,6.742l8.479,6.377c0,0-2.442,8.015-3.649,8.015c-0.571,0-6.611-5.479-12.075-5.636
			c-6.088-0.176-6.541,3.319-5.134,10.868c0.266,1.426-12.577-7.146-12.577-7.146s-2.425-1.811-3.025-5.031
			C290.997,349.59,291.6,346.369,291.6,346.369z"/>
		<path fill="#996234" d="M306.191,297.867c0.303,0.101,2.516-2.616,2.415-3.522c-0.099-0.905-1.003-1.509-1.208-1.509
			c-0.202,0-2.314-2.516-1.208-3.623c1.108-1.108-2.415-5.635-1.107-7.849c1.307-2.214,2.917-5.636,5.937-6.843
			c3.021-1.208,4.931-2.214,6.44-1.007c1.511,1.208,5.134,4.629,5.233,5.938c0.101,1.308,0.706,3.824,0,6.541
			c-0.705,2.717-0.705,3.119-0.805,6.037c-0.099,2.917-1.409,4.733-2.314,5.84c-0.907,1.105-0.503,2.613-2.214,3.016
			c-1.712,0.402,0.403,3.119-0.402,4.124s-10.264-1.511-10.063-5.434C306.99,297.729,306.191,297.867,306.191,297.867z"/>
		<path fill="#301705" d="M306.493,293.941c0,0-1.711,0-1.511-1.409c0.199-1.409,0.57-3.824-0.018-4.428s-2.398-1.711-1.794-3.421
			c0.604-1.713,1.308-2.719,0.906-4.329c-0.403-1.61,0-2.917,1.307-3.722c1.308-0.805,2.327-0.604,3.83-1.308
			c1.508-0.705,2.715-2.415,4.421-2.718c1.71-0.303,3.723-1.511,5.133,0c1.411,1.51,2.415,1.51,2.818,2.515
			c0.402,1.006-0.101-0.099,0.501,2.315c0.602,2.416,1.811,2.917,1.006,4.227c-0.805,1.307-1.51-1.108-2.214-1.207
			c-0.705-0.101-0.302-1.208-2.214,0c-1.91,1.207-1.208,0.805-4.025,0.201c-2.817-0.604-4.33-2.214-5.185,0.704
			c-0.855,2.92-0.362,2.415,0,4.731c0.355,2.314,0,3.319,0,3.319s-0.153-1.107-1.255-0.904c-1.107,0.202-1.307,0.402-1.208,1.61
			c0.101,1.207,0.706,2.616,0.503,3.019C307.293,293.54,306.493,293.941,306.493,293.941z"/>
		<path fill="#996234" d="M320.38,316.884c0,0,6.642,10.868,8.352,11.874c1.712,1.007,5.232,3.02,6.541,3.319
			c1.307,0.304,9.56,1.61,13.082,1.409c3.52-0.201,4.124-1.261,5.434,0.025c1.307,1.286,1.912,2.188,2.415,1.182
			c0.502-1.006,0.201-1.207,0-2.717c-0.201-1.511,0-2.315,1.409-2.516c1.408-0.195,3.567,1.409,2.984-0.402
			c-0.569-1.812-0.368-2.616-2.686-2.415c-2.315,0.201-2.717,1.913-4.327,2.113c-1.61,0.199-2.316,0.201-5.134-0.201
			c-2.817-0.403-10.767-5.134-12.478-5.233c-1.709-0.101-1.811-1.408-2.917-2.516c-1.108-1.105-5.536-6.539-5.536-6.539"/>
		<path fill="#8BC7E8" d="M290.896,322.42c0.402-5.635,2.415-14.589,5.836-18.516c3.421-3.924,4.427-3.823,6.943-4.929
			c2.514-1.108,3.824-0.805,3.824-0.805s0.132,4.024,2.179,4.73c2.047,0.704,6.877,2.013,7.179,1.208
			c0.303-0.806-0.403-1.316,0.201-2.02c0.604-0.701,1.61-2.609,2.316-2.207c0.705,0.402,4.227,1.812,4.629,3.622
			c0.402,1.814,0.805,4.227,1.812,5.636c1.006,1.408,1.61,3.622,1.61,3.622s0.302,0.806,0.604,1.71
			c0.3,0.903-2.617,0.805-4.528,4.526c-1.912,3.723-4.025-2.112-4.025-2.112s2.316-1.511,0.201,1.71c0,0-3.22,4.931-3.421,5.635
			c-0.202,0.706-1.006,2.516-0.904,4.329c0.099,1.812,1.107,3.721,0.904,5.635c-0.203,1.913,0.041,3.622-2.346,4.526
			c-2.38,0.906-4.997,0.706-7.918,1.007c-2.918,0.303-6.517,0.145-7.849,1.308c-1.333,1.165-2.616,0.201-4.227,0.604
			c-1.61,0.403-1.709,1.409-3.019,0c-1.307-1.408,0.771-5.836,0.437-6.842c-0.332-1.007-1.208-3.221-0.871-6.541
			C290.797,324.936,290.896,322.42,290.896,322.42z"/>
		<path fill="#996234" d="M302.526,329.209c0,0,2.133,7.01,3.332,8.348c1.197,1.334,3.11,4.426,4.125,5.626
			c1.021,1.199,10.028,10.436,11.107,11.24c1.088,0.799,6.31,5.394,6.31,5.394l7.404-0.851c0,0-4.902-5.25-7.314-7.816
			c-2.412-2.567-10.39-12.444-10.841-13.34c-0.456-0.899-3.052-3.597-3.748-4.843c-0.705-1.246-0.818-3.82-1.399-6.169
			c-0.58-2.35-1.582-5.391-1.582-5.391s-9.3-1.112-9.588,1.082C300.041,324.686,302.526,329.209,302.526,329.209z"/>
		<path fill="#996234" d="M307.399,364.885c0,0-2.046-2.751-1.343-5.77c0.706-3.02,1.504-4.527,3.414-4.93
			c1.913-0.402,4.465-0.47,4.973-0.168c0.503,0.303,6.641,3.255,8.05,3.858c1.409,0.604,5.16,3.488,5.16,4.696
			c0,1.207,0.201,1.61,0.604,2.817c0.403,1.208,0.906,4.629,0.906,4.629l-9.664,1.023c0,0,0.297-2.432-0.395-2.735
			c-0.69-0.302-9.929-1.912-10.533-2.314C307.968,365.59,307.399,364.885,307.399,364.885z"/>
		<path fill="#996234" d="M317.889,374.621"/>
	</g>
	<g id="Capa_8">
		<path fill="none" stroke="#000000" stroke-miterlimit="10" d="M237.328,305.696"/>
		<path fill="#32417F" d="M221.198,355.036c0,0,1.086,3.801,0.383,8.479c-0.704,4.678-0.854,8.682,0.864,10.15
			c1.719,1.469,0.017,4.371,1.683,4.751c1.082,0.247,18.16-2.006,19.55-1.629c1.389,0.377,5.914-0.707,6.619-0.299
			c0.705,0.408,6.609-0.509,7.532-0.34c0.923,0.169,0.383-1.644,1.281-2.023c0.897-0.38,2.538-4.571,2.538-4.571l-0.079-1.75
			l-2.46-3.852l-1.293-3.472l-1.182-0.691c0,0-0.71-0.526-1.217-1.631c-0.507-1.106-0.803-2.583-1.085-3.77
			c-0.282-1.185-0.477-3.103-1.432-2.668C251.943,352.154,221.198,355.036,221.198,355.036z"/>
		<path fill="#FFCBA1" d="M206.874,328.404c0,0-1.158,16.582-0.965,17.028c0.196,0.446-0.354,3.841-1.328,8.588
			c-0.975,4.752-0.752,16.779-0.651,17.935c0.104,1.157-0.299,3.599-0.271,3.911c0.028,0.308-1.18,1.579-2.093,2.673
			c-0.913,1.091,0.075,0.845,0.075,0.845s1.206,0.441,1.996,0.599c0.793,0.162,3.497,0.001,4.381,0.308
			c0.882,0.31,6.168-0.548,6.554-0.585c0.387-0.031,1.102-0.72,1.026-1.565c-0.076-0.853-1.141-1.457-1.141-1.457l-3.37-1.175
			c0,0-0.088-1.858-0.208-2.313c-0.119-0.455,2.578-8.547,2.729-11.201c0.15-2.658,0.497-4.011,0.198-5.615
			c-0.299-1.606-0.217-5.888-0.167-6.203c0.05-0.315,0.956-5.839,1.532-7.21c0.575-1.374-0.659-10.821-0.616-11.213L206.874,328.404
			z"/>
		<path fill="#FFCBA1" d="M259.548,324.7c0,0,5.56,13.491,6.076,14.067c0.517,0.575,3.165,6.712,3.787,7.591
			c0.623,0.872,7.637,24.575,7.898,24.863c0.259,0.288,1.948,0.914,2.346,1.034c0.397,0.119,0.752,2.341,0.752,2.341l-5.55,0.5
			l-4.49,0.398c0,0-0.677,0.064-1.68,0.151c-1.001,0.089-1.569-0.17-1.749-0.448c-0.181-0.279,0.449-1.92,0.813-2.191
			c0.365-0.264,1.396-0.902,1.979-1.34c0.583-0.438-0.04-1.32-0.234-2.62c-0.192-1.305-1.674-4.828-2.54-6.69
			c-0.866-1.857-4.152-8.181-4.227-9.025c-0.078-0.854-1.863-6.055-2.41-6.938c-0.545-0.885,0,0-0.959-1.159
			c-0.958-1.158-7.38-13.875-7.38-13.875l6.989-5.29L259.548,324.7z"/>
		<path fill="#FFFEF8" d="M262.187,325.548c0.035,0.382-1.385,1.91-2.058,2.204c-0.671,0.293-3.92,2.215-4.425,2.65
			c-0.507,0.434-2.408,2.625-2.437,3.172c-0.027,0.546-0.229,3.518-0.201,3.826c0.027,0.308,1.623,6.853,1.986,7.438
			c0.363,0.585,0.605,7.641,0.548,8.729c-0.059,1.095,0.32,8.708-1.699,8.732c-2.019,0.027-9.862,0.961-11.51,0.798
			c-1.646-0.165-10.69,2.123-11.757,2.372c-1.063,0.252-8.66-0.391-9.815-1.996c-1.155-1.605-2.836-14.235-2.841-15.166
			c-0.007-0.932-1.164-10.389-1.164-10.389s-0.667-4.837-0.983-4.887c-0.315-0.049-4.056-0.182-6.509-0.661
			c-2.452-0.479-3.846-1.287-3.846-1.287s-0.347-2.142-0.227-2.542c0.119-0.4,2.282-11.863,3.042-14.65
			c0.76-2.787,12.632-6.495,13.306-6.788c0.674-0.292,14.688-2.634,15.619-2.641c0.932-0.003,9.513,2.959,11.272,3.5
			c1.76,0.542,7.419,2.134,9.588,5.517c2.167,3.38,3.823,11.472,4.076,11.683C262.154,325.162,262.152,325.164,262.187,325.548z"/>
		<path fill="#FFCBA1" d="M237.275,305.155c0,0-0.4,1.573-1.075,2.807c-4.545,2.657-5.968,0.765-8.875,0.401
			c-2.909-0.36-2.688-3.787-2.549-4.81c0.14-1.022-0.645-10.668-0.647-12.454c-0.006-1.787,2.246-12.25,10.73-10.366
			c8.484,1.886,6.41,11.708,6.41,11.708C239.506,304.025,237.275,305.155,237.275,305.155z"/>
		<path fill="#9E5A2D" d="M228.709,303.575c0,0-4.319,0.565-5.457-4.371c-1.138-4.937-0.204-4.521-0.441-9.771
			c-0.237-5.249-5.728-6.406,2.04-8.569c7.767-2.165,13.509-4.939,14.605-1.788c1.096,3.153,2.239,4.478,1.817,5.636
			c-0.421,1.159,0.384,2.971,0.301,4.104c-0.083,1.132-1.479,4.412-1.479,4.412s-3.221,1.06-3.25,1.748
			c-0.03,0.688-1.154,2.251-1.065,3.664c0.089,1.411,1.88,1.681,0.124,2.729c-1.757,1.048-3.272,2.038-3.272,2.038L228.709,303.575z
			"/>
	</g>
</g>
<g id="Capa_3">
	<polygon id="La_mar_3_m" opacity="0.6" fill="#39BCC4" enable-background="new    " points="-271.129,428.114 1016.906,428.114 
		1018.487,831.691 -269.548,831.691 	"/>
	<path fill="#D8BD80" d="M1017.803,736.355c-60.989,11.028-98.52,8.285-142.025,8.133c-38.723-0.054-53.579-6.303-121.577-11.463
		c-42.002-1.267-74.992-1.493-119.479,0.773c-32.383,1.644-106.851,5.513-140.312,0.303
		c-84.757-16.253-224.804-13.744-297.555-2.497c-72.753,11.248-41.336-6.925-87.635-5.192c-46.296,1.711-38.856,8.654-62.005,2.582
		c-23.147-6.057-33.28-24.441-53.003-20.949c-2.234,1.335,0.425,12.077-49.105-13.887c-17.361-9.101-37.355-8.854-49.71-9.057
		c-12.277-0.201-39.638,6.28-55.346-5.836c-18.113-10.634-70.565,26.426-88.753,36.795c-18.189,10.412-27.254,4.315-27.254,4.315
		l2.818,116.287l1291.63,1.609L1017.803,736.355z"/>
</g>
<circle fill="#2BA03C" cx="137.153" cy="112.808" r="50.506"/>
<text transform="matrix(1 0 0 1 109.8877 139.6494)" fill="#FFFFFF" font-family="'MyriadPro-Bold'" font-size="80.2133">N</text>
</svg>
