<?xml version="1.0" encoding="utf-8"?>
<!-- Generator: Adobe Illustrator 16.0.0, SVG Export Plug-In . SVG Version: 6.00 Build 0)  -->
<!DOCTYPE svg PUBLIC "-//W3C//DTD SVG 1.1//EN" "http://www.w3.org/Graphics/SVG/1.1/DTD/svg11.dtd">
<svg version="1.1" id="Capa_1" xmlns="http://www.w3.org/2000/svg" xmlns:xlink="http://www.w3.org/1999/xlink" x="0px" y="0px"
	 width="800px" height="800px" viewBox="0 0 800 800" enable-background="new 0 0 800 800" xml:space="preserve">
<g id="Curves">
	<polygon opacity="0.6" fill="#39BCC4" enable-background="new    " points="-9.027,-25.033 808.455,-27.921 809.451,803.682 
		-9.027,803.682 	"/>
	<rect x="-23" y="-30" fill="#42C9CC" width="840" height="843"/>
	<g id="Barcos">
	</g>
	<g>
		<g>
			<line fill="none" stroke="#FFFFFF" stroke-width="3" stroke-miterlimit="10" x1="399.5" y1="-20" x2="399.5" y2="-7"/>
			
				<line fill="none" stroke="#FFFFFF" stroke-width="3" stroke-miterlimit="10" stroke-dasharray="25,24" x1="399.5" y1="16" x2="399.5" y2="780"/>
			<line fill="none" stroke="#FFFFFF" stroke-width="3" stroke-miterlimit="10" x1="399.5" y1="792" x2="399.5" y2="804"/>
		</g>
	</g>
	<path opacity="0.8" fill="#F90606" enable-background="new    " d="M281.889,656.174l-13.574-28.483l-4.853,8.389
		c-40.088-16.954-90.463-17.329-130.486,1.562c-0.02-0.028-0.034-0.045-0.034-0.045l-5.786-8.886l-12.046,29.159l31.542,0.768
		l-5.133-7.879c33.855-16.134,77.855-16.634,114.132-1.178l-5.221,9.027L281.889,656.174z"/>
	<g id="Tim贸">
		<rect x="195" y="711" fill="#969696" width="7" height="130"/>
		
			<rect x="192.287" y="708.004" transform="matrix(-0.4822 0.876 -0.876 -0.4822 969.7967 979.1342)" fill="#969696" width="6.518" height="136.311"/>
		
			<rect x="190.438" y="710.991" transform="matrix(0.5147 0.8573 -0.8573 0.5147 761.9706 212.0085)" fill="#969696" width="6.518" height="136.275"/>
		<circle cx="198.698" cy="776.384" r="14.547"/>
		<path stroke="#000000" stroke-miterlimit="10" d="M197.073,666.489c-61.523,0-111.398,49.874-111.398,111.396
			c0,61.523,49.875,111.398,111.398,111.398c61.523,0,111.396-49.875,111.396-111.398
			C308.471,716.363,258.596,666.489,197.073,666.489z M197.073,873.69c-52.911,0-95.804-42.896-95.804-95.807
			s42.893-95.803,95.804-95.803c52.912,0,95.804,42.892,95.804,95.803S249.984,873.69,197.073,873.69z"/>
		<path stroke="#000000" stroke-miterlimit="10" d="M177.787,684.025c0.461-0.064,13.57-1.566,13.789,9.064
			c0.219,10.633,0.254,18.126,0.254,18.126s-0.495,7.872,4.567,7.866c0.486,0,4.163,0.006,4.578,0.006
			c4.209,0,4.333-3.925,4.296-8.021c-0.04-4.447,0.233-17.806,0.233-17.806s0.958-9.106,10.968-9.106
			c10.271,0-2.147-3.601-2.147-3.601l-32.306,0.203L177.787,684.025z"/>
		<path stroke="#000000" stroke-miterlimit="10" d="M105.58,749.654c0.176-0.435,5.141-12.432,14.459-7.304
			c9.319,5.13,15.826,8.846,15.826,8.846s6.569,4.36,9.096-0.022c0.243-0.422,2.086-3.604,2.293-3.963
			c2.105-3.645-1.233-5.714-4.799-7.729c-3.871-2.188-15.301-9.104-15.301-9.104s-8.777-5.438-3.198-13.752
			c5.703-8.495-3.395-0.241-3.395-0.241l-15.977,28.079L105.58,749.654z"/>
		<path stroke="#000000" stroke-miterlimit="10" d="M126.511,842.606c-0.287-0.367-8.193-10.665,0.906-16.175
			c9.1-5.508,15.571-9.28,15.571-9.28s7.064-3.51,4.529-7.893c-0.244-0.421-2.077-3.604-2.284-3.967
			c-2.104-3.646-5.565-1.79-9.096,0.291c-3.83,2.257-15.534,8.7-15.534,8.7s-9.04,3.295-14.046-5.375
			c-5.136-8.896-1.369,4.088-1.369,4.088l16.329,27.876L126.511,842.606z"/>
		<path stroke="#000000" stroke-miterlimit="10" d="M220.291,870.789c-0.461,0.064-13.334,1.762-13.552-8.871
			c-0.219-10.635-0.254-18.126-0.254-18.126s0.494-7.872-4.568-7.866c-0.486,0-4.163-0.005-4.577-0.005
			c-4.209-0.001-4.333,3.924-4.296,8.021c0.04,4.443-0.233,17.804-0.233,17.804s-1.939,10.183-12.181,10.124
			c-10.271-0.058,3.359,2.582,3.359,2.582l32.306-0.203L220.291,870.789z"/>
		<path stroke="#000000" stroke-miterlimit="10" d="M289.01,805.356c-0.175,0.432-5.14,12.429-14.458,7.301
			c-9.319-5.127-15.825-8.843-15.825-8.843s-6.569-4.364-9.096,0.021c-0.243,0.422-2.085,3.604-2.293,3.962
			c-2.104,3.646,1.233,5.715,4.8,7.732c3.87,2.187,15.301,9.103,15.301,9.103s7.457,6.622,2.451,15.292
			c-5.135,8.896,4.142-1.299,4.142-1.299l15.977-28.08L289.01,805.356z"/>
		<path stroke="#000000" stroke-miterlimit="10" d="M266.218,711.474c0.287,0.366,8.194,10.665-0.906,16.171
			c-9.1,5.511-15.57,9.284-15.57,9.284s-7.065,3.509-4.529,7.892c0.243,0.421,2.078,3.604,2.285,3.966
			c2.104,3.646,5.565,1.791,9.096-0.29c3.829-2.257,15.534-8.7,15.534-8.7s9.923-2.917,14.928,5.751
			c5.136,8.896,0.486-4.464,0.486-4.464l-16.33-27.876L266.218,711.474z"/>
		<path fill="#969696" d="M198.544,752.436c-13.998,0-25.346,11.351-25.346,25.348c0,13.998,11.348,25.346,25.346,25.346
			s25.346-11.348,25.346-25.346C223.891,763.783,212.542,752.436,198.544,752.436z M198.544,790.517
			c-7.034,0-12.736-5.699-12.736-12.733c0-7.033,5.703-12.735,12.736-12.735c7.034,0,12.736,5.702,12.736,12.735
			C211.281,784.814,205.579,790.517,198.544,790.517z"/>
	</g>
	<g>
		<g id="Tim贸_12_">
			<rect x="596" y="711" fill="#969696" width="7" height="130"/>
			
				<rect x="593.278" y="708.026" transform="matrix(-0.482 0.8762 -0.8762 -0.482 1564.1289 627.6232)" fill="#969696" width="6.516" height="136.298"/>
			
				<rect x="591.423" y="710.992" transform="matrix(0.5147 0.8574 -0.8574 0.5147 956.6639 -131.724)" fill="#969696" width="6.516" height="136.298"/>
			<circle cx="599.699" cy="776.384" r="14.547"/>
			<path stroke="#000000" stroke-miterlimit="10" d="M598.072,666.489c-61.523,0-111.397,49.874-111.397,111.396
				c0,61.523,49.874,111.398,111.397,111.398c61.521,0,111.396-49.875,111.396-111.398
				C709.47,716.363,659.596,666.489,598.072,666.489z M598.072,873.69c-52.91,0-95.803-42.896-95.803-95.807
				s42.893-95.803,95.803-95.803c52.912,0,95.805,42.892,95.805,95.803S650.984,873.69,598.072,873.69z"/>
			<path stroke="#000000" stroke-miterlimit="10" d="M578.787,684.025c0.461-0.064,13.57-1.566,13.789,9.064
				s0.254,18.126,0.254,18.126s-0.494,7.872,4.568,7.866c0.483,0,4.159,0.006,4.574,0.006c4.211,0,4.333-3.925,4.299-8.021
				c-0.039-4.447,0.23-17.806,0.23-17.806s0.958-9.106,10.968-9.106c10.271,0-2.146-3.601-2.146-3.601l-32.309,0.203
				L578.787,684.025z"/>
			<path stroke="#000000" stroke-miterlimit="10" d="M506.58,749.654c0.176-0.435,5.141-12.432,14.459-7.304
				c9.318,5.13,15.825,8.846,15.825,8.846s6.566,4.36,9.096-0.022c0.243-0.422,2.086-3.604,2.293-3.963
				c2.105-3.645-1.23-5.714-4.8-7.729c-3.87-2.188-15.301-9.104-15.301-9.104s-8.777-5.438-3.198-13.752
				c5.702-8.495-3.396-0.241-3.396-0.241l-15.977,28.079L506.58,749.654z"/>
			<path stroke="#000000" stroke-miterlimit="10" d="M527.512,842.606c-0.287-0.367-8.19-10.665,0.905-16.175
				c9.101-5.508,15.571-9.28,15.571-9.28s7.062-3.51,4.525-7.893c-0.24-0.421-2.074-3.604-2.281-3.967
				c-2.104-3.646-5.565-1.79-9.099,0.291c-3.83,2.257-15.534,8.7-15.534,8.7s-9.037,3.295-14.046-5.375
				c-5.137-8.896-1.366,4.088-1.366,4.088l16.326,27.876L527.512,842.606z"/>
			<path stroke="#000000" stroke-miterlimit="10" d="M621.291,870.789c-0.462,0.064-13.334,1.762-13.553-8.871
				c-0.219-10.635-0.254-18.126-0.254-18.126s0.494-7.872-4.568-7.866c-0.486,0-4.162-0.005-4.577-0.005
				c-4.209-0.001-4.333,3.924-4.296,8.021c0.039,4.443-0.232,17.804-0.232,17.804s-1.938,10.183-12.182,10.124
				c-10.271-0.058,3.359,2.582,3.359,2.582l32.307-0.203L621.291,870.789z"/>
			<path stroke="#000000" stroke-miterlimit="10" d="M690.01,805.356c-0.174,0.432-5.14,12.429-14.458,7.301
				c-9.316-5.127-15.825-8.843-15.825-8.843s-6.566-4.364-9.096,0.021c-0.243,0.422-2.086,3.604-2.293,3.962
				c-2.104,3.646,1.232,5.715,4.799,7.732c3.87,2.187,15.303,9.103,15.303,9.103s7.455,6.622,2.45,15.292
				c-5.136,8.896,4.145-1.299,4.145-1.299l15.977-28.08L690.01,805.356z"/>
			<path stroke="#000000" stroke-miterlimit="10" d="M667.218,711.474c0.286,0.366,8.194,10.665-0.905,16.171
				c-9.101,5.511-15.568,9.284-15.568,9.284s-7.065,3.509-4.528,7.892c0.242,0.421,2.077,3.604,2.284,3.966
				c2.104,3.646,5.562,1.791,9.097-0.29c3.828-2.257,15.533-8.7,15.533-8.7s9.923-2.917,14.928,5.751
				c5.14,8.896,0.486-4.464,0.486-4.464l-16.329-27.876L667.218,711.474z"/>
			<path fill="#969696" d="M599.545,752.436c-13.998,0-25.346,11.351-25.346,25.348c0,13.998,11.348,25.346,25.346,25.346
				c13.997,0,25.346-11.348,25.346-25.346S613.542,752.436,599.545,752.436z M599.545,790.517c-7.034,0-12.736-5.699-12.736-12.733
				c0-7.033,5.702-12.735,12.736-12.735c7.033,0,12.736,5.702,12.736,12.735S606.578,790.517,599.545,790.517z"/>
		</g>
		<path opacity="0.8" fill="#F90606" enable-background="new    " d="M739.067,738.287l7.791-30.572l-9.097,3.342
			c-26.706-54.955-82.909-88.87-142.816-88.227c-59.095,0.149-114.294,33.896-140.707,88.18l-9.097-3.35l7.773,30.579L478.66,720
			l-9.786-3.604c24.314-48.573,74.361-78.502,127.7-78.038c0.001-0.008,0.003-0.016,0.006-0.024
			c52.919-0.014,102.424,29.857,126.542,78.103l-9.787,3.599L739.067,738.287z"/>
	</g>
	<path opacity="0.8" fill="none" stroke="#ED1C24" stroke-width="12" stroke-miterlimit="10" enable-background="new    " d="
		M649.887,245.311c10.646,104.689-102.209,87.782-101.43,173.59C549.066,486,596,479.028,600.164,572"/>
	<polygon opacity="0.8" fill="#F90606" enable-background="new    " points="205.66,49.634 205.66,49 214.011,49 199.844,28.366 
		185.676,49 193.66,49 193.66,49.634 193.66,572 205.66,572 	"/>
	<g id="Barco_1_">
		<g id="Ones_2_" display="none" opacity="0.5">
			
				<linearGradient id="SVGID_1_" gradientUnits="userSpaceOnUse" x1="1005.2344" y1="440.9336" x2="1005.2344" y2="157.198" gradientTransform="matrix(-0.9895 -0.1444 0.1444 -0.9895 1582.6926 889.5419)">
				<stop  offset="0" style="stop-color:#FFFFFF;stop-opacity:0.8"/>
				<stop  offset="0.9306" style="stop-color:#FFFFFF;stop-opacity:0"/>
			</linearGradient>
			<path display="inline" fill="url(#SVGID_1_)" d="M525.043,532.649c2.929-9.682,0.196-35.978,5.197-52.933
				c5.001-16.956,18.874-32.386,24.062-47.187c5.192-14.802,2.975-27.284,9.105-45.084c6.135-17.801,20.094-26.896,25.435-39.254
				c5.342-12.359,9.865-35.683,18.835-43.86c8.973-8.178,50.267,1.521,50.267,1.521s32.118,3.151,36.967,11.208
				c6.259,10.4,3.931,34.045,5.517,47.414c1.587,13.369,12.365,26.074,13.156,44.885c0.792,18.812-4.902,30.14-4.157,45.807
				c0.745,15.668,9.632,34.419,9.578,52.097c-0.053,17.68-10.185,42.098-10.145,52.207c0.04,10.111,5.116,27.273,5.135,44.457
				l-99.941-14.583l-6.69-0.978l-99.94-14.582C512.348,557.324,522.115,542.328,525.043,532.649z"/>
			
				<linearGradient id="SVGID_2_" gradientUnits="userSpaceOnUse" x1="1004.7363" y1="440.9346" x2="1004.7363" y2="157.1971" gradientTransform="matrix(-0.9895 -0.1444 0.1444 -0.9895 1582.6926 889.5419)">
				<stop  offset="0" style="stop-color:#FFFFFF;stop-opacity:0.8"/>
				<stop  offset="1" style="stop-color:#FFFFFF;stop-opacity:0"/>
			</linearGradient>
			<path display="inline" opacity="0.5" fill="url(#SVGID_2_)" enable-background="new    " d="M555.719,537.126
				c2.928-9.68,0.196-35.975,5.197-52.93c5-16.956,18.873-32.39,24.065-47.188c5.188-14.801,2.97-27.284,9.104-45.085
				s20.095-26.896,25.435-39.254c5.344-12.359,9.865-35.683,18.839-43.861c8.97-8.177,15.629-3.532,15.629-3.532
				s6.392-0.603,11.237,7.453c6.262,10.4,3.933,34.045,5.52,47.415c1.586,13.369,12.365,26.074,13.157,44.886
				c0.791,18.811-4.904,30.139-4.158,45.807c0.746,15.667,9.631,34.418,9.578,52.095c-0.056,17.682-10.188,42.1-10.146,52.208
				c0.04,10.112,5.116,27.274,5.135,44.458l-74.214-10.83l-6.69-0.976l-65.311-9.53C543.021,561.801,552.79,546.804,555.719,537.126
				z"/>
		</g>
		<g id="Ones_1_">
			
				<linearGradient id="SVGID_3_" gradientUnits="userSpaceOnUse" x1="375.1079" y1="682.0088" x2="375.1079" y2="398.2734" gradientTransform="matrix(0.9754 -0.2204 -0.2204 -0.9754 410.6202 934.8994)">
				<stop  offset="0" style="stop-color:#FFFFFF;stop-opacity:0.8"/>
				<stop  offset="0.9306" style="stop-color:#FFFFFF;stop-opacity:0"/>
			</linearGradient>
			<path fill="url(#SVGID_3_)" d="M769.783,401.089c-3.667-9.423-2.979-35.851-9.271-52.369
				c-6.295-16.519-21.317-30.831-27.64-45.187c-6.319-14.355-5.069-26.973-12.562-44.246c-7.489-17.273-22.109-25.263-28.392-37.172
				c-6.28-11.909-12.593-34.814-22.168-42.274c-9.574-7.46-49.995,5.4-49.995,5.4s-31.779,5.624-35.99,14.03
				c-5.438,10.853-1.289,34.247-1.838,47.699c-0.548,13.452-10.312,26.952-9.646,45.768c0.663,18.816,7.217,29.67,7.684,45.348
				c0.468,15.678-6.94,35.06-5.521,52.68c1.419,17.621,13.404,41.182,14.146,51.268c0.741,10.084-2.993,27.587-1.685,44.721
				l98.516-22.262l6.598-1.491l98.519-22.261C784.348,424.71,773.449,410.513,769.783,401.089z"/>
			
				<linearGradient id="SVGID_4_" gradientUnits="userSpaceOnUse" x1="374.6021" y1="682.0098" x2="374.6021" y2="398.2733" gradientTransform="matrix(0.9754 -0.2204 -0.2204 -0.9754 410.6202 934.8994)">
				<stop  offset="0" style="stop-color:#FFFFFF;stop-opacity:0.8"/>
				<stop  offset="1" style="stop-color:#FFFFFF;stop-opacity:0"/>
			</linearGradient>
			<path opacity="0.5" fill="url(#SVGID_4_)" enable-background="new    " d="M739.545,407.922
				c-3.667-9.423-2.976-35.851-9.271-52.369c-6.299-16.519-21.319-30.831-27.643-45.187c-6.317-14.356-5.067-26.973-12.562-44.246
				c-7.491-17.274-22.112-25.263-28.394-37.172c-6.276-11.909-12.593-34.814-22.169-42.275c-9.574-7.459-15.854-2.313-15.854-2.313
				s-6.419-0.107-10.631,8.299c-5.438,10.853-1.288,34.248-1.839,47.699c-0.55,13.451-10.312,26.952-9.647,45.768
				s7.218,29.67,7.685,45.348c0.47,15.678-6.94,35.059-5.521,52.68c1.419,17.624,13.407,41.183,14.146,51.267
				c0.741,10.085-2.991,27.589-1.684,44.722l73.154-16.528l6.598-1.49l64.377-14.548
				C754.109,431.543,743.213,417.345,739.545,407.922z"/>
		</g>
		<g id="Capa_4_3_">
			<path fill="#D1D1D1" d="M601.229,264.836l81.064-18.318l-20.324-96.9c0,0-10.604-81.731-66.461-97.989
				c-42.05,37.236-18.729,115.128-18.729,115.128L601.229,264.836z"/>
			<path fill="#F4F4F4" d="M599.949,72.599c0,0,34.798-9.284,51.831,60.402c17.03,69.686,13.868,78.215,13.868,78.215
				l-65.203,14.734l-7.854-20.557l-13.593-60.148C578.998,145.243,566.991,82.28,599.949,72.599z"/>
			<path fill="#E8E8E8" d="M600.271,72.073c-27.244,5.614-27.998,42.235-22.773,75.483l13.16,54.068l10.213,38.866l22.188,0.132
				l2.487-4.814l22.601-5c0,0,3.625,2.755,4.308,2.601c3.831-0.865,19.634-9.297,19.634-9.297s-5.409-26.732-7.832-38.765
				c-0.082-0.408-10.637-54.281-10.812-54.951C644.898,97.965,629.896,65.969,600.271,72.073z M662.768,184.473
				c0.336,0.854,4.925,37.915,4.925,37.915s-13.505,5.794-17.118,6.611c-0.646,0.146-4.071-2.496-4.071-2.496l-21.34,4.721
				l-2.336,4.592l-19.474,1.112l-11.509-36.38c-7.726-32.088-7.194-32.685-12.089-53.5c-4.741-32.515-2.646-68.668,21.246-73.423
				c23.745-4.724,40.789,26.205,50.029,57.317C651.291,132.168,662.372,183.99,662.768,184.473z"/>
			<path fill="#FFFFFF" d="M615.132,136.492l-0.06-0.33l-10.45,4.056l-3.39,5.519c-2.053,2.321-0.509,11.336-0.509,11.336
				l3.734,16.526l2.525,3.218l11.602-4.837l2.873-7.816l-1.354-5.646L615.132,136.492z"/>
			<path fill="#FFFFFF" d="M614.911,136.542l0.161-0.381l10.552-0.69l5.353,3.544c2.851,1.215,5.248,10.035,5.248,10.035
				l3.735,16.527l-0.733,3.954l-12.471,0.602l-5.805-5.854l-1.073-5.71L614.911,136.542z"/>
			<path fill="#C6C6C6" d="M637.396,161.712c-0.148-0.502-6.646-6.947-6.646-6.947l-21.836,4.694l-3.708,8.999l0.245,1.089
				l0.123,0.543l0.124,0.544l1.395,6.173l32.076-7.249C639.169,169.56,637.545,162.215,637.396,161.712z"/>
			<path fill="#394963" d="M649.787,270.505c-0.424,1.596-2.062,2.545-3.656,2.12l-16.81-4.477
				c-1.596-0.425-2.542-2.064-2.118-3.659l6.879-25.822c0.424-1.595,2.062-2.544,3.657-2.119l16.81,4.479
				c1.595,0.424,2.541,2.061,2.117,3.656L649.787,270.505z"/>
			<path fill="#29ABE2" d="M630.693,147.655l-10.995,2.484l-4.194,0.948l-9.906,2.238c0,0-2.173,5.15-0.209,16.254
				c0.012,0.065,0.596-0.011,0.596-0.011c0.981-2.356,2.979-8.54,2.979-8.54l10.449-2.415l11.562-2.543c0,0,4.467,4.749,6.367,6.452
				c0,0,0.549-0.222,0.532-0.284C634.869,151.371,630.693,147.655,630.693,147.655z"/>
			<g id="Tim贸_14_">
				<path d="M610.634,173.292c0.998,4.421,15.644,1.448,14.562-3.333C624.245,165.759,609.585,168.656,610.634,173.292z
					 M611.89,172.956c-0.714-3.16,11.384-5.608,12.027-2.746C624.654,173.468,612.57,175.969,611.89,172.956z"/>
				<path d="M615.534,169.591c0,0,0.345,1.37,1.987,0.979c1.646-0.39,1.146-1.564,1.154-1.69S615.534,169.591,615.534,169.591z"/>
				<polygon points="617.012,170.755 617.407,174.478 619.582,173.986 618.186,170.491 				"/>
				<path d="M618.261,169.403c0.034-0.007,5.845,1.11,5.845,1.11l-0.103-1.405l-5.718-0.389L618.261,169.403z"/>
				<path d="M616.05,169.903c-0.033,0.008-4.953,3.55-4.953,3.55l-0.307-1.359l4.791-2.764L616.05,169.903z"/>
			</g>
			<g id="Tapiceria_13_">
				<path fill="#E8CDA0" d="M651.031,130.941c0,0-17.788,4.162-26.005-13.853c-8.22-18.015-16.398-43.472-16.795-43.954
					C607.837,72.651,635.972,73.156,651.031,130.941z"/>
				<path fill="#E8CDA0" d="M579.756,147.047c0,0,17.85-3.891,17.521-23.689c-0.327-19.797-3.888-46.299-3.736-46.904
					C593.689,75.849,568.506,88.401,579.756,147.047z"/>
				<path fill="#E8CDA0" d="M597.867,220.868c0,0-2.295-4.091,2.346-3.533c15.284,1.836,48.854-4.606,62.37-14.378
					c2.833-2.048,2.965-1.247,3.347,0.888c0.287,1.604,1.763,18.543,1.763,18.543s-23.359,15.572-64.339,14.538L597.867,220.868z"/>
				<path fill="#E8CDA0" d="M644.352,189.911c0.205,0.907-0.673,1.497-1.933,1.781l-28.698,6.485
					c-1.258,0.284-2.704,0.22-2.908-0.687l-2.161-9.573c-0.204-0.906,0.944-2.147,2.205-2.432L639.552,179
					c1.261-0.285,2.436,0.431,2.641,1.338L644.352,189.911z"/>
			</g>
		</g>
		<g>
			<path fill="#996234" d="M612.786,177.889c0,0,1.116-2.278,2.532,0.627c1.415,2.906,3.52,5.657,3.52,5.657
				s3.083-1.702,3.329-2.707c0.245-1.004-1.062-5.033,1.566-6.713c2.628-1.678,3.771-2.621,3.526,1.979
				c-0.243,4.6,0.001,7.753,0.001,7.753l-11.304,5.338l-3.021-11.254"/>
			<path fill="#EF45B7" d="M616.617,187.854c0,0-5.79-5.455-3.423-5.742c2.366-0.287,1.563,1.76,4.54,1.25
				c2.974-0.51,2.059-2.691,5.941-2.271c3.889,0.42,4.985-0.971,4.824,1.128c-0.164,2.099-0.107,2.974-0.107,2.974L616.617,187.854z
				"/>
			<path fill="#996234" d="M613.312,189.274c0,0-1.357-5.083-1.798-6.376c-0.816-2.421,0.132-8.043-0.083-8.984
				c-0.212-0.941-0.283-1.96,1.273-0.847c1.559,1.114,1.394,6.07,1.394,8.533c-0.001,2.462,2.163,4.97,2.396,5.71
				c0.227,0.741-1.577,0.008-1.577,0.008L613.312,189.274z"/>
			<path fill="#996234" d="M629.495,185.959c0,0,0.377-5.816,0.215-7.173c-0.304-2.538-3.575-7.206-3.789-8.146
				c-0.212-0.941-0.582-1.893-1.512-0.217c-0.933,1.676,1.35,6.08,2.408,8.303c1.062,2.223-0.903,5.415-0.791,6.182
				c0.111,0.767,2.517-0.669,2.517-0.669L629.495,185.959z"/>
			<path fill="#8BC7E8" d="M611.042,189.787c0,0,2.394,6.129,6.612,6.528c4.219,0.398,5.679,0.537,8.859-1.787
				c3.187-2.324,5.243-1.906,4.26-5.029c-0.986-3.121,0.771-5.253-2.396-5.061c-3.415,0.207-12.404,1.603-13.03,1.668
				C611.496,186.513,611.042,189.787,611.042,189.787z"/>
			<path fill="#301705" d="M622.344,195.256c0,0-3.646,0.454-3.771-2.607c-0.134-3.062-1.938-3.782,0.373-5.272
				c2.31-1.49,3.007-4.229,4.672-2.024c1.666,2.204,2.763,3.326,2.351,5.233c-0.411,1.909-0.146,2.292-0.92,3.616
				C624.273,195.527,622.344,195.256,622.344,195.256z"/>
		</g>
	</g>
	<g id="Barco">
		<g id="Ones">
			
				<linearGradient id="SVGID_5_" gradientUnits="userSpaceOnUse" x1="-82.1177" y1="611.7344" x2="-82.1177" y2="327.9998" gradientTransform="matrix(1 0 0 -1 282 814)">
				<stop  offset="0" style="stop-color:#FFFFFF;stop-opacity:0.8"/>
				<stop  offset="0.9306" style="stop-color:#FFFFFF;stop-opacity:0"/>
			</linearGradient>
			<path fill="url(#SVGID_5_)" d="M292.764,442.75c-1.5-10,5-35.625,2.5-53.125s-14-34.771-17-50.167s1-27.427-2.5-45.927
				s-16-29.516-19.5-42.516s-4.609-36.733-12.305-46.121c-7.696-9.388-49.956-5.752-49.956-5.752s-32.237-1.52-38.198,5.752
				c-7.695,9.387-8.805,33.121-12.305,46.121s-16,24.016-19.5,42.516s0.5,30.531-2.5,45.927s-14.5,32.667-17,50.167
				s4,43.125,2.5,53.125S98,469,95.5,486h101h6.764h101C301.764,469,294.264,452.75,292.764,442.75z"/>
			
				<linearGradient id="SVGID_6_" gradientUnits="userSpaceOnUse" x1="-82.6177" y1="611.7354" x2="-82.6177" y2="328.0002" gradientTransform="matrix(1 0 0 -1 282 814)">
				<stop  offset="0" style="stop-color:#FFFFFF;stop-opacity:0.8"/>
				<stop  offset="1" style="stop-color:#FFFFFF;stop-opacity:0"/>
			</linearGradient>
			<path opacity="0.5" fill="url(#SVGID_6_)" enable-background="new    " d="M261.764,442.75c-1.5-10,5-35.625,2.5-53.125
				s-14-34.771-17-50.167s1-27.427-2.5-45.927s-16-29.516-19.5-42.516s-4.609-36.733-12.305-46.121
				c-7.695-9.387-14.956-5.752-14.956-5.752s-6.237-1.52-12.198,5.752c-7.695,9.388-8.805,33.121-12.305,46.121
				s-16,24.016-19.5,42.516s0.5,30.531-2.5,45.927s-14.5,32.667-17,50.167s4,43.125,2.5,53.125S128,469,125.5,486h75h6.764h66
				C270.764,469,263.264,452.75,261.764,442.75z"/>
		</g>
		<g id="Capa_4_1_">
			<path fill="#D1D1D1" d="M158.385,272.696h83.11l1.533-98.997c0,0,7.668-82.059-43.229-110.228
				c-49.224,27.052-43.646,108.168-43.646,108.168L158.385,272.696z"/>
			<path fill="#F4F4F4" d="M199.511,84.905c0,0,35.988-1.386,37.242,70.34c1.255,71.727-3.712,79.349-3.712,79.349h-66.848
				l-3.131-21.782v-61.665C163.062,151.145,165.229,87.084,199.511,84.905z"/>
			<path fill="#E8E8E8" d="M199.939,84.463c-27.811-0.528-36.617,35.025-38.851,68.608l0.92,55.639l1.396,40.161l21.613,5.019
				l3.487-4.147l23.147,0.104c0,0,2.927,3.486,3.625,3.486c3.928,0,21.199-4.741,21.199-4.741s0.617-27.267,0.905-39.538
				c0.01-0.417,1.589-55.291,1.566-55.979C237.763,119.555,230.181,85.039,199.939,84.463z M236.125,207.873
				c0.14,0.907-3.556,38.068-3.556,38.068s-14.447,2.675-18.155,2.675c-0.659,0-3.421-3.332-3.421-3.332l-21.854-0.099l-3.291,3.964
				l-19.236-3.207l-3.207-38.023c-0.464-33.002,0.183-33.467,0-54.848c2.542-32.76,12.552-67.563,36.906-66.934
				c24.202,0.626,34.011,34.551,36.166,66.934C236.459,154.326,235.846,207.315,236.125,207.873z"/>
			<path fill="#FFFFFF" d="M200.236,150.573l0.015-0.335l-11.087,1.652l-4.523,4.637c-2.511,1.812-2.991,10.945-2.991,10.945v16.943
				l1.754,3.695l12.382-2.162l4.526-6.99l-0.075-5.805L200.236,150.573L200.236,150.573z"/>
			<path fill="#FFFFFF" d="M200.01,150.574l0.241-0.336l10.444,1.652l4.44,4.637c2.509,1.812,2.907,10.945,2.907,10.945v16.943
				l-1.587,3.695l-12.297-2.162l-4.371-6.99l0.212-5.806L200.01,150.574z"/>
			<path fill="#C6C6C6" d="M216.394,180.08c-0.034-0.523-4.951-8.241-4.951-8.241l-22.333-0.234l-5.601,7.96v1.117v0.557v0.558
				v6.329h32.885C216.394,188.126,216.429,180.604,216.394,180.08z"/>
			<path fill="#394963" d="M211.965,285.096c-0.008,1.65-1.354,2.982-3.004,2.973l-17.396-0.092c-1.648-0.01-2.98-1.356-2.973-3.007
				l0.144-26.722c0.009-1.65,1.354-2.982,3.005-2.973l17.396,0.094c1.65,0.008,2.98,1.354,2.972,3.004L211.965,285.096z"/>
			<path fill="#29ABE2" d="M212.955,164.892h-11.272h-4.3h-10.156c0,0-3.256,4.545-3.787,15.808c-0.005,0.065,0.581,0.12,0.581,0.12
				c1.479-2.082,4.787-7.673,4.787-7.673l10.726-0.052l11.84,0.068c0,0,3.307,5.616,4.787,7.697c0,0,0.585-0.095,0.582-0.16
				C216.209,169.436,212.955,164.892,212.955,164.892z"/>
			<g id="Tim贸_13_">
				<path d="M187.737,185.477c0,4.532,14.938,4.859,14.938-0.042C202.675,181.129,187.737,180.724,187.737,185.477z
					 M189.037,185.426c0-3.24,12.337-2.962,12.337-0.028C201.375,188.739,189.037,188.515,189.037,185.426z"/>
				<path d="M193.333,182.947c0,0,0.035,1.413,1.725,1.394c1.691-0.017,1.464-1.272,1.5-1.394
					C196.593,182.825,193.333,182.947,193.333,182.947z"/>
				<polygon points="194.519,184.409 194.083,188.126 196.313,188.126 195.721,184.409 				"/>
				<path d="M196.034,183.365c0.035,0,5.456,2.371,5.456,2.371l0.21-1.394l-5.491-1.639L196.034,183.365z"/>
				<path d="M193.768,183.365c-0.034,0-5.613,2.371-5.613,2.371v-1.394l5.282-1.639L193.768,183.365z"/>
			</g>
			<g id="Tapiceria_12_">
				<path fill="#E8CDA0" d="M236.477,153.071c0,0-18.268,0.139-22.312-19.244c-4.043-19.383-6.413-46.017-6.693-46.575
					C207.192,86.695,234.523,93.388,236.477,153.071z"/>
				<path fill="#E8CDA0" d="M163.404,153.071c0,0,18.268,0.139,22.312-19.244c4.044-19.383,6.415-46.017,6.693-46.575
					C192.687,86.694,165.356,93.388,163.404,153.071z"/>
				<path fill="#E8CDA0" d="M164.799,229.069c0,0-1.337-4.496,3.067-2.929c14.503,5.161,48.668,6.275,64.005-0.277
					c3.215-1.374,3.166-0.563,3.068,1.603c-0.072,1.625-2.37,18.475-2.37,18.475s-26.217,10.041-65.958,0L164.799,229.069z"/>
				<path fill="#E8CDA0" d="M216.964,209.119c0,0.93-0.986,1.311-2.277,1.311h-29.422c-1.29,0-2.687-0.381-2.687-1.311v-9.814
					c0-0.929,1.396-1.886,2.687-1.886h29.422c1.292,0,2.277,0.957,2.277,1.886V209.119z"/>
			</g>
		</g>
		<g>
			<path fill="#996234" d="M188.824,190.436c0,0,1.591-1.977,2.331,1.17c0.74,3.147,2.187,6.293,2.187,6.293
				s3.382-0.981,3.844-1.906c0.461-0.925,0.074-5.144,3.007-6.203c2.934-1.058,4.26-1.725,3.007,2.708
				c-1.252,4.434-1.708,7.562-1.708,7.562l-12.202,2.715l-0.465-11.643"/>
			<path fill="#EF45B7" d="M190.364,201c0,0-4.445-6.597-2.073-6.355s1.14,2.062,4.153,2.22c3.013,0.158,2.601-2.171,6.299-0.905
				c3.697,1.266,5.076,0.152,4.456,2.164c-0.622,2.012-0.759,2.877-0.759,2.877L190.364,201L190.364,201z"/>
			<path fill="#996234" d="M186.828,201.656c0,0-0.204-5.257-0.346-6.615c-0.265-2.542,1.899-7.817,1.899-8.781
				c0-0.964,0.153-1.975,1.429-0.545c1.274,1.43,0.021,6.228-0.521,8.63c-0.544,2.401,1.015,5.324,1.075,6.097
				c0.058,0.772-1.54-0.34-1.54-0.34L186.828,201.656z"/>
			<path fill="#996234" d="M203.343,201.99c0,0,1.649-5.591,1.791-6.949c0.264-2.542-1.899-7.817-1.899-8.781
				c0-0.964-0.151-1.975-1.428-0.545c-1.275,1.43-0.023,6.228,0.52,8.63c0.545,2.401-2.075,5.082-2.134,5.855
				c-0.059,0.773,2.602-0.098,2.602-0.098L203.343,201.99z"/>
			<path fill="#8BC7E8" d="M184.5,201.656c0,0,0.984,6.506,5.012,7.825c4.028,1.319,5.42,1.775,9.037,0.21
				c3.618-1.566,5.535-0.703,5.261-3.967c-0.273-3.262,1.912-4.954-1.221-5.465c-3.376-0.551-12.451-1.171-13.077-1.245
				C185.665,198.562,184.5,201.656,184.5,201.656z"/>
			<path fill="#301705" d="M194.319,209.481c0,0-3.656-0.36-3.107-3.375c0.546-3.015-1.057-4.116,1.525-5.06
				c2.582-0.944,3.865-3.462,5.004-0.944c1.139,2.517,1.961,3.853,1.139,5.623c-0.821,1.771-0.649,2.203-1.694,3.325
				C196.142,210.171,194.319,209.481,194.319,209.481z"/>
		</g>
	</g>
</g>
</svg>
