<?xml version="1.0" encoding="utf-8"?>
<!-- Generator: Adobe Illustrator 16.0.0, SVG Export Plug-In . SVG Version: 6.00 Build 0)  -->
<!DOCTYPE svg PUBLIC "-//W3C//DTD SVG 1.1//EN" "http://www.w3.org/Graphics/SVG/1.1/DTD/svg11.dtd">
<svg version="1.1" id="Capa_1" xmlns="http://www.w3.org/2000/svg" xmlns:xlink="http://www.w3.org/1999/xlink" x="0px" y="0px"
	 width="800px" height="800px" viewBox="0 0 800 800" enable-background="new 0 0 800 800" xml:space="preserve">
<g id="Capa_1_1_">
	<g id="Cèl">
		
			<linearGradient id="SVGID_1_" gradientUnits="userSpaceOnUse" x1="394.6787" y1="1169.1172" x2="1228.207" y2="1169.1172" gradientTransform="matrix(0 -1 -1 0 1580.5 1197.5)">
			<stop  offset="0.4692" style="stop-color:#FFFFFF"/>
			<stop  offset="0.5669" style="stop-color:#C1F0FF"/>
			<stop  offset="0.6844" style="stop-color:#7DE0FF"/>
			<stop  offset="0.7908" style="stop-color:#47D4FF"/>
			<stop  offset="0.8821" style="stop-color:#20CBFF"/>
			<stop  offset="0.9549" style="stop-color:#09C5FF"/>
			<stop  offset="1" style="stop-color:#00C3FF"/>
		</linearGradient>
		<polygon fill="url(#SVGID_1_)" points="-9.414,-30.707 832.181,-30.707 828.91,802.821 -6.475,802.821 		"/>
	</g>
	<polygon opacity="0.6" fill="#39BCC4" enable-background="new    " points="-2.192,336 847.558,335.08 845.575,803 -5.21,803 	"/>
	<g id="Capa_3_copia">
	</g>
	<g id="Capa_4">
		<path fill="#EDEDED" d="M146.273,1343.625h506.362l9.342-392.621c0,0,46.72-325.445-263.376-437.16
			C98.698,621.132,132.678,942.838,132.678,942.838L146.273,1343.625z"/>
		<path fill="#F4F4F4" d="M396.839,598.842c0,0,219.265-5.492,226.905,278.973c7.645,284.469-22.616,314.695-22.616,314.695H193.849
			l-19.076-86.388V861.559C174.773,861.552,187.97,607.486,396.839,598.842z"/>
		<path fill="#E8E8E8" d="M399.452,597.092C230.012,595,176.356,736.003,162.749,869.193l5.605,220.662l8.502,159.277
			l131.682,19.904l21.247-16.449l141.031,0.418c0,0,17.83,13.824,22.085,13.824c23.93,0,129.158-18.805,129.158-18.805
			s3.762-108.141,5.517-156.806c0.06-1.651,9.681-219.284,9.544-222.024C629.896,736.267,583.701,599.377,399.452,597.092z
			 M619.918,1086.537c0.852,3.598-21.663,150.979-21.663,150.979s-88.021,10.608-110.613,10.608
			c-4.017,0-20.843-13.216-20.843-13.216l-133.15-0.391l-20.053,15.721l-117.2-12.716l-19.54-150.803
			c-2.826-130.886,1.113-132.729,0-217.523c15.487-129.931,76.473-267.958,224.857-265.464
			c147.455,2.481,207.216,137.026,220.348,265.464C621.953,874.17,618.216,1084.325,619.918,1086.537z"/>
		<path fill="#FFFFFF" d="M401.261,859.281l0.089-1.325l-67.549,6.555l-27.559,18.392c-15.297,7.187-18.225,43.406-18.225,43.406
			v67.193l10.687,14.656l75.438-8.571l27.577-27.724l-0.458-23.025V859.281L401.261,859.281z"/>
		<path fill="#FFFFFF" d="M399.88,859.288l1.47-1.332l63.637,6.555l27.054,18.392c15.284,7.187,17.712,43.406,17.712,43.406v67.193
			l-9.669,14.656l-74.92-8.571l-26.632-27.724l1.292-23.028L399.88,859.288z"/>
		<path fill="#C6C6C6" d="M499.702,976.31c-0.209-2.075-30.167-32.68-30.167-32.68l-136.067-0.93l-34.122,31.569v4.425v2.212v2.213
			v25.101h200.356C499.702,1008.22,499.915,978.385,499.702,976.31z"/>
		<path fill="#394963" d="M472.719,1392.802c-0.048,6.545-8.247,11.829-18.303,11.789l-105.984-0.362
			c-10.043-0.039-18.157-5.382-18.109-11.925l0.875-105.979c0.053-6.548,8.252-11.829,18.308-11.79l105.984,0.371
			c10.057,0.029,18.157,5.366,18.104,11.912L472.719,1392.802z"/>
		<g id="Timó_1_">
			<path d="M325.108,997.713c0,17.975,91.009,19.271,91.009-0.167C416.117,980.47,325.108,978.863,325.108,997.713z
				 M333.027,997.511c0-12.847,75.165-11.747,75.165-0.106C408.198,1010.646,333.027,1009.76,333.027,997.511z"/>
			<path d="M359.201,987.682c0,0,0.214,5.602,10.507,5.523c10.305-0.066,8.919-5.045,9.139-5.523
				C379.062,987.193,359.201,987.682,359.201,987.682z"/>
			<polygon points="366.424,993.476 363.771,1008.22 377.36,1008.22 373.749,993.476 			"/>
			<path d="M375.658,989.338c0.214,0,33.242,9.404,33.242,9.404l1.277-5.53l-33.457-6.5L375.658,989.338z"/>
			<path d="M361.849,989.338c-0.209,0-34.198,9.404-34.198,9.404v-5.53l32.183-6.5L361.849,989.338z"/>
		</g>
		<g id="Tapiceria_1_">
			<path fill="#E8CDA0" d="M622.061,869.193c0,0-111.299,0.553-135.941-76.323c-24.633-76.871-39.072-182.502-40.78-184.717
				C443.641,605.945,610.16,632.491,622.061,869.193z"/>
			<path fill="#E8CDA0" d="M176.856,869.193c0,0,111.298,0.553,135.936-76.323c24.639-76.871,39.085-182.502,40.78-184.717
				C355.268,605.945,188.75,632.491,176.856,869.193z"/>
			<path fill="#E8CDA0" d="M185.352,1170.598c0,0-8.146-17.826,18.688-11.612c88.361,20.468,296.517,24.886,389.96-1.1
				c19.586-5.45,19.288-2.232,18.694,6.356c-0.44,6.447-14.44,73.272-14.44,73.272s-159.729,39.818-401.859,0L185.352,1170.598z"/>
			<path fill="#E8CDA0" d="M503.176,1091.479c0,3.688-6.009,5.199-13.875,5.199H310.043c-7.86,0-16.368-1.512-16.368-5.199v-38.924
				c0-3.687,8.508-7.479,16.368-7.479H489.3c7.87,0,13.875,3.792,13.875,7.479L503.176,1091.479L503.176,1091.479z"/>
		</g>
		<path fill="#29ABE2" d="M317.296,669.469c-0.023,0.263,2.997-4.307,2.997-4.307c7.505-8.257,24.285-30.438,24.285-30.438
			l54.412-0.209l60.063,0.272c0,0,16.774,22.276,24.285,30.526c0,0,2.341,4.399,2.326,4.142c0-41.748-11.459-65.629-40.582-65.629
			H359.86C329.066,605.152,316.939,628.389,317.296,669.469z"/>
	</g>
	<g>
		<path fill="#D3D3D3" d="M486,675.61c0-24.683-18.639-44.61-41.02-44.61h-87.806C334.796,631,317,650.93,317,675.61v198.466
			c0,24.68,17.796,44.924,40.177,44.924h87.806c22.381,0,41.02-20.244,41.02-44.924L486,675.61L486,675.61z"/>
		<g>
			<g id="WATER">
				<circle fill="#F4F4F4" cx="348.495" cy="659.767" r="11.237"/>
				<circle fill="#F4F4F4" cx="380.652" cy="659.767" r="11.237"/>
				<text transform="matrix(1 0 0 1 340.4146 663.1221)" font-family="'MyriadPro-Bold'" font-size="2.0346">ºC</text>
				<text transform="matrix(1 0 0 1 342.4116 658.2988)" font-family="'MyriadPro-Bold'" font-size="2.0346">40</text>
				<text transform="matrix(1 0 0 1 346.2734 656.3232)" font-family="'MyriadPro-Bold'" font-size="2.0346">80</text>
				<text transform="matrix(1 0 0 1 349.3447 656.5293)" font-family="'MyriadPro-Bold'" font-size="2.0346">100</text>
				<text transform="matrix(1 0 0 1 351.6421 658.5039)" font-family="'MyriadPro-Bold'" font-size="2.0346">120</text>
				
					<rect x="346.754" y="652.178" transform="matrix(0.9921 -0.1253 0.1253 0.9921 -79.0913 48.6278)" width="0.678" height="1.979"/>
				
					<rect x="351.584" y="652.668" transform="matrix(0.9236 0.3833 -0.3833 0.9236 277.4134 -84.967)" width="0.678" height="1.98"/>
				
					<rect x="354.968" y="654.93" transform="matrix(0.6962 0.7179 -0.7179 0.6962 578.8005 -55.7845)" width="0.676" height="1.978"/>
				
					<rect x="343.06" y="653.387" transform="matrix(0.8464 -0.5326 0.5326 0.8464 -295.7566 283.4161)" width="0.678" height="1.979"/>
				
					<rect x="341.226" y="654.945" transform="matrix(0.6941 -0.7199 0.7199 0.6941 -367.7211 446.58)" width="0.68" height="1.979"/>
				
					<rect x="349.283" y="652.115" transform="matrix(0.9967 0.0814 -0.0814 0.9967 54.3145 -26.2847)" width="0.396" height="1.582"/>
				
					<rect x="344.613" y="652.696" transform="matrix(0.9254 -0.379 0.379 0.9254 -221.9557 179.4456)" width="0.397" height="1.582"/>
				
					<rect x="353.91" y="653.843" transform="matrix(0.8012 0.5984 -0.5984 0.8012 462.1451 -81.7532)" width="0.395" height="1.581"/>
			</g>
			<g id="Capa_2_copia">
				<path fill="#1E1E1E" d="M348.495,647.109c-7.033,0-12.735,5.698-12.735,12.733c0,7.033,5.702,12.734,12.735,12.734
					c7.034,0,12.735-5.701,12.735-12.734S355.528,647.109,348.495,647.109z M348.495,670.13c-5.681,0-10.286-4.604-10.286-10.285
					c0-5.68,4.605-10.286,10.286-10.286s10.286,4.606,10.286,10.286C358.781,665.525,354.176,670.13,348.495,670.13z"/>
				<path fill="#3D3D3D" d="M348.495,647.109c-7.033,0-12.735,5.698-12.735,12.733c0,7.033,5.702,12.734,12.735,12.734
					c7.034,0,12.735-5.701,12.735-12.734S355.528,647.109,348.495,647.109z M348.495,671.675c-6.533,0-11.83-5.297-11.83-11.83
					c0-6.535,5.297-11.831,11.83-11.831c6.534,0,11.831,5.296,11.831,11.831C360.325,666.378,355.029,671.675,348.495,671.675z"/>
				<path fill="#EA2424" d="M348.073,660.685l0.222-7.744l0.449-0.001c0,0,0.164,7.727,0.174,7.746L348.073,660.685z"/>
				<circle fill="#1E1E1E" cx="348.495" cy="662.707" r="2.336"/>
			</g>
			<g id="FUEL">
				<rect x="379.899" y="652.266" fill="#232323" width="0.615" height="2.753"/>
				
					<rect x="386.876" y="655.477" transform="matrix(0.6367 0.7711 -0.7711 0.6367 647.1932 -59.9266)" fill="#232323" width="0.632" height="2.758"/>
				
					<rect x="372.884" y="655.448" transform="matrix(-0.6367 0.7711 -0.7711 -0.6367 1117.3065 787.2315)" fill="#232323" width="0.632" height="2.758"/>
				
					<rect x="375.846" y="653.139" transform="matrix(-0.907 0.421 -0.421 -0.907 992.6279 1089.146)" fill="#232323" width="0.466" height="2.029"/>
				
					<rect x="383.986" y="653.157" transform="matrix(0.9083 0.4184 -0.4184 0.9083 308.9453 -100.7444)" fill="#232323" width="0.464" height="2.028"/>
				<text transform="matrix(1 0 0 1 372.5884 663.4658)" fill="#232323" font-family="'MyriadPro-Bold'" font-size="2.0781">FUEL</text>
				<text transform="matrix(1 0 0 1 374.2183 659.7666)" fill="#232323" font-family="'MyriadPro-Bold'" font-size="2.169">E</text>
				<text transform="matrix(1 0 0 1 385.0605 659.7666)" fill="#232323" font-family="'MyriadPro-Bold'" font-size="2.169">F</text>
				<text transform="matrix(1.4697 0 0 1 379.7715 656.9805)" fill="#232323" font-family="'MyriadPro-Bold'" font-size="2.169">/</text>
				<text transform="matrix(1 0 0 1 379.438 656.3008)" fill="#1E1E1E" font-family="'MyriadPro-Bold'" font-size="1.297">1</text>
				<text transform="matrix(1 0 0 1 380.6021 657.084)" fill="#232323" font-family="'MyriadPro-Bold'" font-size="1.297">2</text>
				<path d="M387.042,662.05c-0.032-0.023-0.28-0.248-0.366-0.208c-0.086,0.039,0.151,0.225,0.194,0.272
					c0.043,0.051,0.076,0,0.043,0.255c-0.032,0.255,0.047,0.646,0.086,0.725c0.04,0.08,0.206,0.468-0.149,0.424
					c-0.354-0.043-0.229-0.266-0.241-0.67c-0.013-0.308-0.203-0.376-0.347-0.392v-0.697h-1.232v1.899h-0.19v0.095h1.614v-0.095
					h-0.19v-1.056c0.097,0.027,0.184,0.081,0.214,0.139c0.079,0.139-0.058,0.284-0.004,0.595c0.056,0.308,0.404,0.377,0.626,0.255
					c0.224-0.123,0.033-0.532-0.007-0.65c-0.039-0.116-0.053-0.435-0.032-0.491c0.022-0.058,0.158-0.067,0.19-0.121
					C387.282,662.271,387.074,662.075,387.042,662.05z M386.166,662.472h-1.044v-0.616h1.044V662.472z"/>
			</g>
			<g id="Capa_2_copia_1_">
				<path fill="#1E1E1E" d="M380.185,646.9c-7.146,0-12.942,5.795-12.942,12.942s5.795,12.944,12.942,12.944
					c7.149,0,12.943-5.797,12.943-12.944S387.333,646.9,380.185,646.9z M380.185,670.299c-5.772,0-10.453-4.681-10.453-10.454
					c0-5.772,4.681-10.454,10.453-10.454c5.774,0,10.455,4.682,10.455,10.454C390.639,665.618,385.958,670.299,380.185,670.299z"/>
				<path fill="#3D3D3D" d="M380.185,646.9c-7.146,0-12.942,5.795-12.942,12.942s5.795,12.944,12.942,12.944
					c7.149,0,12.943-5.797,12.943-12.944S387.333,646.9,380.185,646.9z M380.185,671.869c-6.641,0-12.023-5.383-12.023-12.024
					c0-6.641,5.384-12.022,12.023-12.022c6.643,0,12.025,5.383,12.025,12.022C392.21,666.486,386.826,671.869,380.185,671.869z"/>
				<path fill="#EA2424" d="M380.601,662.062c0.021-0.011,5.901-5.221,5.901-5.221l0.309,0.338l-5.627,5.511L380.601,662.062z"/>
				<circle fill="#1E1E1E" cx="380.185" cy="662.755" r="2.375"/>
			</g>
		</g>
		<g>
			<rect x="401.082" y="706.364" fill="#969696" width="3.76" height="72.382"/>
			
				<rect x="399.658" y="704.128" transform="matrix(0.482 -0.8762 0.8762 0.482 -442.5654 736.3591)" fill="#969696" width="3.667" height="76.701"/>
			
				<rect x="398.61" y="705.805" transform="matrix(-0.5148 -0.8573 0.8573 -0.5148 -31.4009 1470.5315)" fill="#969696" width="3.669" height="76.693"/>
			<path stroke="#000000" stroke-miterlimit="10" d="M402.367,680.733c-34.619,0-62.686,28.062-62.686,62.685
				c0,34.62,28.064,62.685,62.686,62.685s62.685-28.062,62.685-62.685S436.987,680.733,402.367,680.733z M402.367,797.326
				c-29.772,0-53.91-24.136-53.91-53.908c0-29.773,24.138-53.909,53.91-53.909s53.909,24.136,53.909,53.909
				C456.276,773.19,432.141,797.326,402.367,797.326z"/>
			<path stroke="#000000" stroke-miterlimit="10" d="M391.516,690.602c0.26-0.036,7.637-0.882,7.76,5.103
				c0.123,5.983,0.144,10.2,0.144,10.2s-0.279,4.429,2.571,4.426c0.271,0,2.341,0.003,2.574,0.003c2.368,0,2.438-2.209,2.418-4.515
				c-0.022-2.502,0.13-10.019,0.13-10.019s0.539-5.125,6.173-5.125c5.779-0.001-1.208-2.022-1.208-2.022l-18.178,0.112
				L391.516,690.602z"/>
			<path stroke="#000000" stroke-miterlimit="10" d="M350.884,727.531c0.099-0.243,2.894-6.994,8.136-4.107
				c5.245,2.884,8.904,4.977,8.904,4.977s3.698,2.455,5.119-0.016c0.137-0.235,1.174-2.025,1.291-2.229
				c1.184-2.051-0.694-3.216-2.701-4.352c-2.179-1.23-8.611-5.12-8.611-5.12s-4.938-3.062-1.799-7.738
				c3.209-4.78-1.908-0.138-1.908-0.138l-8.991,15.803L350.884,727.531z"/>
			<path d="M362.662,779.835c-0.161-0.206-4.61-6.001,0.509-9.1c5.121-3.1,8.762-5.226,8.762-5.226s3.976-1.974,2.549-4.438
				c-0.139-0.237-1.17-2.031-1.286-2.232c-1.184-2.053-3.131-1.008-5.118,0.163c-2.155,1.271-8.741,4.896-8.741,4.896
				s-5.088,1.854-7.904-3.025c-2.89-5.005-0.769,2.299-0.769,2.299l9.188,15.688L362.662,779.835z"/>
			<path stroke="#000000" stroke-miterlimit="10" d="M415.433,795.693c-0.26,0.037-7.503,0.991-7.625-4.992
				c-0.123-5.984-0.144-10.199-0.144-10.199s0.278-4.43-2.57-4.427c-0.272,0-2.341-0.003-2.574-0.003
				c-2.368,0-2.438,2.208-2.418,4.514c0.022,2.502-0.131,10.02-0.131,10.02s-1.091,5.729-6.854,5.696
				c-5.78-0.032,1.89,1.452,1.89,1.452l18.179-0.114L415.433,795.693z"/>
			<path stroke="#000000" stroke-miterlimit="10" d="M454.102,758.875c-0.099,0.242-2.893,6.992-8.136,4.109
				c-5.244-2.888-8.905-4.979-8.905-4.979s-3.697-2.455-5.118,0.014c-0.138,0.236-1.175,2.026-1.29,2.229
				c-1.186,2.052,0.692,3.218,2.699,4.353c2.178,1.229,8.611,5.122,8.611,5.122s4.196,3.727,1.38,8.604
				c-2.891,5.006,2.329-0.729,2.329-0.729l8.991-15.801L454.102,758.875z"/>
			<path stroke="#000000" stroke-miterlimit="10" d="M441.276,706.047c0.159,0.206,4.609,6.002-0.512,9.1
				c-5.12,3.099-8.763,5.226-8.763,5.226c-4.682,2.325-1.646,5.996-2.548,4.438c-0.137-0.235,1.17,2.03,1.286,2.232
				c1.185,2.051,3.133,1.008,5.118-0.163c2.155-1.271,8.74-4.896,8.74-4.896s5.583-1.642,8.401,3.235
				c2.89,5.005,0.273-2.514,0.273-2.514l-9.188-15.686L441.276,706.047z"/>
			<path fill="#969696" d="M403.196,729.096c-7.877,0-14.264,6.388-14.264,14.265c0,7.876,6.386,14.262,14.264,14.262
				c7.876,0,14.262-6.386,14.262-14.262C417.458,735.482,411.072,729.096,403.196,729.096z M403.196,750.525
				c-3.958,0-7.168-3.208-7.168-7.166c0-3.959,3.209-7.168,7.168-7.168c3.957,0,7.167,3.209,7.167,7.168
				C410.363,747.317,407.153,750.525,403.196,750.525z"/>
			<circle cx="403.282" cy="742.571" r="8.186"/>
		</g>
	</g>
	<g>
		<path fill="#996234" d="M336.391,863.4c0,0-6.675-39.835-8.958-50.055c-4.271-19.129,3.903-61.094,2.914-68.437
			c-0.988-7.344-1.062-15.158,8.41-5.356c9.468,9.803,6.525,47.376,5.581,66.119c-0.951,18.735,11.833,39.659,13.006,45.487
			c1.155,5.837-10.017-1.283-10.017-1.283L336.391,863.4z"/>
		<path fill="#996234" d="M466.017,910.213c0,0,10.448-42.933,11.347-53.364c1.67-19.525-12.031-60.021-12.031-67.433
			s-0.959-15.164-9.044-4.185c-8.079,10.979-0.149,47.82,3.291,66.271c3.451,18.44-13.146,39.026-13.519,44.958
			c-0.371,5.939,16.479-0.75,16.479-0.75L466.017,910.213z"/>
		<path fill="#8BC7E8" d="M466.065,801.089c0,0,7.525-52.664-22.809-62.475c-26.117-8.447-46.735-19.352-69.254-6.613
			c-22.522,12.745-33.086,7.379-36.285,32.298c-3.033,23.627-18.781,37.715,1.181,41.002c21.508,3.546,90.951,6.382,94.934,6.816
			C458.296,814.82,466.065,801.089,466.065,801.089z"/>
		<path fill="#996234" d="M384.123,658.773c0,0-0.657,28.908-0.136,63.861c0.351,23.5,17.937,25.8,28.066,17.543
			c13.062-10.645,3.588-48.751,5.017-56.296C418.5,676.33,384.123,658.773,384.123,658.773z"/>
		<path fill="#301705" d="M397.011,723.697c0,0-23.16-2.769-19.683-25.925c3.458-23.146-9.45-40.479,7.448-46.35
			c15.946-5.538,26.696-19.091,33.911,0.242c7.213,19.333,12.421,29.592,7.213,43.181c-5.203,13.604-4.114,16.918-10.733,25.527
			C408.555,728.999,397.011,723.697,397.011,723.697z"/>
	</g>
	<path fill="#5B5B5B" d="M501,798.973c0,2.479-1.39,4.027-2.697,4.027h-10.268c-1.31,0-2.035-1.55-2.035-4.027v-47.104
		c0-2.479,0.729-4.869,2.035-4.869h10.268c1.31,0,2.697,2.392,2.697,4.869V798.973z"/>
</g>
<g id="extras">
	<g id="nedador">
		<path opacity="0.7" fill="#FFFFFF" enable-background="new    " d="M487.298,462.887c1.793-2.073,6.355,2.917,11.122,1.06
			c4.763-1.857,2.447,1.555,4.135,3.659s5.806,0.973,8.825-1.805c3.022-2.779,4.863-0.328,11.687,0.502
			c6.825,0.829,2.651,0.785,4.179-0.146c1.527-0.933,5.485,1.767,11.929,2.782c6.441,1.018,2.487-2.061,7.062-4.077
			c4.578-2.022,4.947-0.73,12.503,2.197c7.563,2.925,10.614,1.25,13.103-0.621c2.486-1.872,7.232-2.014,10.061-0.276
			c2.829,1.738,3.767,2.888,5.477,2.525c1.713-0.363,3.239-1.106,3.239-1.106s2.471-0.162,4.364,0.236s3.39,2.505,5.837,4.425
			c2.448,1.925,5.212,4.909,7.524,1.518c2.314-3.392,7.485-0.978,12.394,1.919c3.923,2.319-3.263,1.295-7.839,3.335
			c-4.578,2.039-13.842-1.475-21.819-0.798c-7.979,0.677-4.511-4.223-19.875-5.144c-15.363-0.92-8.508-3.125-12.705-1.08
			c-4.196,2.043-11.211,1.21-23.159,0.704c-11.956-0.503-5.091-3.468-15.897-4.608c-10.805-1.141-11.396,1.094-15.775,2.189
			c-4.376,1.092-4.143-2.893-10.012-4.473c-5.169-1.39-5.507,0.065-7.249,0.674c-0.237,0.082-0.498,0.146-0.802,0.19
			C485.603,466.668,485.503,464.959,487.298,462.887z"/>
		<path fill="#EFD2AF" d="M572.678,471.861c0,0,12.169-5.099,13.771-4.813c1.602,0.283,5.286,0.386,6.988,0.502
			c1.703,0.116,3.407,0.211,4.657-0.857c1.248-1.065,6.799-4.348,7.546-4.701c0.746-0.355-0.899-4.98-1.852-6.761
			c-0.95-1.781-6.578-12.367-6.968-15.727c-0.386-3.36-2.102-3.307-2.333-3.86c-0.229-0.558-2.469-1.962-3.356-2.127
			c-0.89-0.165-10.73-7.273-12.397-6.674s-5.146,5.143-5.255,5.396c-0.109,0.25-0.18,1.235-1.628,1.355
			c-1.451,0.122-2.423,1.133-2.423,1.133s-1.43,1.066-1.796,1.131c-0.366,0.063-1.48,1.784-2.023,1.835
			c-0.545,0.052-1.556-0.923-1.125-1.883c0.429-0.96,1.68-2.041,2.348-2.576c0.669-0.536,2.885-1.275,2.934-1.948
			s-1.687-1.597-2.403-1.608c-0.723-0.015-5.678,1.067-6.786,0.941c-1.111-0.127-3.748,0.244-4.029,0.395
			c-0.281,0.148-2.241-0.181-3-0.86c-0.762-0.685-1.414-1.615-1.687-1.599s-0.635-1.18-0.526-1.442
			c0.11-0.262,5.745-3.457,5.745-3.457s1.77-1.744,1.906-1.923c0.139-0.181,0.837-1.119,1.555-1.068
			c0.716,0.054,3.754,0.361,5.017,0.365c1.261,0.001,4.143-1.232,5.954-1.372c1.811-0.137,5.429-1.586,6.021-1.049
			c0.591,0.538,3.228,1.449,4.565,1.637c1.339,0.188,15.889,3.224,16.477,3.807c0.589,0.583,7.505,9.551,8.021,9.903
			c0.514,0.353,5.994,11.738,6.588,12.231c0.596,0.492,10.646,10.413,10.642,14.733c-0.001,0.452,0.942,3.131,0.942,3.131
			s5.332,5.968,6.102,6.52c0.771,0.554,2.267-1.436,2.619-1.309c0.351,0.13,2.843-3.201,4.691-2.616s2.676,0.373,2.676,0.373
			s0.717,0.054,1.261,0.002c0.544-0.051,2.95-0.048,5.228,0.84c2.278,0.885,5.115,2.852,5.695,3.537
			c0.581,0.687,2.502,3.075,2.532,3.917c0.027,0.84,0.333,1.683-0.401,1.898c-0.736,0.217-1.949,0.61-2.437,1.16
			c-0.493,0.549-4.083,1.633-6.302,2.421c-2.22,0.788-3.742,0.68-5.792,0.35c-2.046-0.328-4.04-0.164-5.941-0.051
			c-1.899,0.115-7.229,1.589-10.831,1.569c-3.603-0.021-10.661-2.004-12.005-0.87c-1.344,1.136-2.233,2.198-5.26,1.729
			c-3.028-0.468-12.749-3.064-15.04-3.771c-2.29-0.706-17.107-3.652-19.037-5.597C570.593,472.206,572.678,471.861,572.678,471.861z
			"/>
		<path opacity="0.7" fill="#FFFFFF" enable-background="new    " d="M450.401,460.462c1.793-2.073,6.355,2.915,11.122,1.06
			c4.763-1.857,2.447,1.553,4.135,3.659c1.688,2.104,5.806,0.973,8.825-1.807c3.022-2.777,4.863-0.326,11.687,0.504
			c6.825,0.829,2.65,0.785,4.179-0.146c1.528-0.935,5.485,1.766,11.929,2.783c6.441,1.017,2.487-2.062,7.062-4.08
			c4.578-2.021,4.946-0.73,12.503,2.197c7.562,2.925,10.614,1.25,13.102-0.619c2.487-1.872,7.233-2.014,10.062-0.277
			c2.827,1.739,3.766,2.887,5.476,2.526c1.713-0.365,3.239-1.106,3.239-1.106s2.471-0.162,4.363,0.236
			c1.894,0.398,3.391,2.504,5.838,4.425c2.448,1.926,5.211,4.909,7.524,1.518c2.314-3.392,7.485-0.979,12.394,1.919
			c3.923,2.319-3.263,1.295-7.839,3.335c-4.579,2.039-13.843-1.477-21.819-0.798c-7.979,0.677-4.511-4.223-19.875-5.144
			c-15.364-0.92-8.508-3.125-12.705-1.081c-4.196,2.044-11.211,1.212-23.159,0.706c-11.957-0.505-5.091-3.469-15.897-4.608
			c-10.805-1.143-11.396,1.094-15.775,2.189c-4.376,1.093-4.143-2.893-10.012-4.475c-5.169-1.39-5.507,0.067-7.249,0.676
			c-0.237,0.082-0.499,0.146-0.802,0.19C448.706,464.243,448.606,462.534,450.401,460.462z"/>
		<path fill="#C9A57D" d="M625.816,474.955c-0.576,0.663-0.908,0.894-0.569,1.483c0.338,0.592,1.507,1.165,1.761,1.332
			c0.253,0.166,0.998-0.501,0.905-1.42c-0.091-0.919-0.249-1.586-0.01-2.087c0.241-0.502-0.432-0.982-0.432-0.982l-0.408,1.072
			L625.816,474.955z"/>
		<path opacity="0.8" fill="#FFFFFF" enable-background="new    " d="M499.107,469.288c1.795-2.073,6.356,2.916,11.122,1.06
			c4.765-1.856,2.449,1.555,4.137,3.659c1.686,2.104,5.806,0.973,8.825-1.805c3.022-2.778,4.863-0.327,11.687,0.503
			c6.823,0.828,2.651,0.784,4.177-0.146c1.529-0.936,5.485,1.765,11.931,2.782c6.441,1.017,2.487-2.062,7.062-4.078
			c4.579-2.022,4.947-0.73,12.504,2.197c7.562,2.925,10.614,1.248,13.102-0.621c2.487-1.872,7.233-2.013,10.062-0.276
			c2.829,1.738,3.768,2.886,5.477,2.525c1.714-0.363,3.238-1.106,3.238-1.106s2.473-0.162,4.365,0.236
			c1.892,0.398,3.389,2.506,5.838,4.425c2.448,1.926,5.211,4.909,7.524,1.518c2.314-3.392,7.485-0.979,12.392,1.919
			c3.923,2.319-3.261,1.295-7.839,3.335c-4.577,2.039-13.843-1.476-21.819-0.798c-7.979,0.677-4.509-4.223-19.873-5.144
			c-15.364-0.92-8.508-3.125-12.705-1.08c-4.196,2.043-11.211,1.211-23.159,0.705c-11.957-0.505-5.093-3.469-15.897-4.608
			c-10.806-1.143-11.398,1.094-15.775,2.189c-4.376,1.093-4.143-2.892-10.012-4.473c-5.169-1.392-5.507,0.065-7.251,0.675
			c-0.235,0.081-0.498,0.146-0.8,0.189C497.412,473.07,497.312,471.361,499.107,469.288z"/>
		<path fill="#ED669D" d="M640.749,466.576c0,0,0.354,2.499,0.695,3.495c0.342,0.996,1.872,4.741,1.872,4.741
			s0.348,1.907,0.019,2.41c-0.326,0.5-0.318,4.164-0.131,4.16c0.185,0.001,13.642-3.269,13.635-3.77
			c-0.004-0.499-0.529-3.831-1.374-5.075C654.622,471.297,651.747,466.32,640.749,466.576z"/>
		<path fill="#5A5A72" d="M632.931,468.462c-0.416,0.097-0.612,2.267,0.536,2.424c1.152,0.156,2.058,0.399,2.197,1.4
			c0.139,0.998-1.168,4.341-0.575,5.422c0.593,1.075,3.685,2.221,4.437,2.381c0.751,0.157,2.585,0.205,1.303-3.772
			c-1.28-3.979-2.822-3.29-3.321-5.046c-0.274-0.963,0.056-0.416,0.364-1.669c0.31-1.253,0.377-2.572-0.4-3.056
			C635.44,465.286,632.931,468.462,632.931,468.462z"/>
		<path fill="#27258C" d="M637.303,473.188c0,0,2.257,0.816,2.779,3.728c0.312,1.73-0.316,2.252-0.729,2.506
			c-0.415,0.253-2.42-0.228-3.266-1.805S635.809,473.866,637.303,473.188z"/>
		<path fill="#27258C" d="M636.028,470.28c0,0,1.987-1.766,1.314-2.513c-0.673-0.742-1.596-1.408-2.094-1.152
			c-0.498,0.258-1.74,1.125-1.734,1.824c0.007,0.693-0.321,1.78,0.515,1.857C634.864,470.374,636.028,470.28,636.028,470.28z"/>
		<path fill="#FFFFFF" d="M608.519,483.544c0.108,0.012,0.208,0.032,0.296,0.06c0.651,0.199,0.794,0.729,2.681,0.15
			c2.14-0.661,1.999-2.126,3.628-1.782c1.626,0.345,1.876,1.162,5.84,0.595c3.966-0.566,1.397-1.564,5.795-1.911
			c4.395-0.347,6.968-0.748,8.539-0.052c1.575,0.695-0.979-0.023,4.667-0.568c5.646-0.546,4.304-2.305,7.249-2.162
			c2.949,0.142,6.315-1.279,8.026-0.585c1.715,0.688,4.349,0.214,2.934,1.12c-1.768,1.135-3.64,2.092-4.538,0.875
			c-0.898-1.221-1.876-0.083-2.75,0.66c-0.876,0.739-1.398,1.535-2.093,1.708c-0.693,0.173-1.602,0.147-1.602,0.147
			s-0.574-0.253-1.21-0.367c-0.636-0.108-0.962,0.327-1.983,1.006c-1.019,0.678-2.769,0.69-3.71,0.035
			c-0.938-0.656-2.09-1.234-4.832-0.053c-2.747,1.181-2.864,1.66-4.577,0.979c-1.715-0.681-0.298-1.871-2.658-1.41
			c-2.358,0.461-3.778,1.512-4.354,1.187c-0.576-0.323,0.959-0.395-1.542,0.002c-2.503,0.396-3.147,1.325-4.3,0.342
			c-1.15-0.982-2.681-1.346-3.272-0.549c-0.594,0.801,0.304,2.024-1.476,1.403c-1.779-0.62-3.394,1.279-4.081,0.54
			C608.505,484.176,608.519,483.544,608.519,483.544z"/>
	</g>
</g>
<g id="extras_2_">
	<g id="nedador_2_">
		<path opacity="0.7" fill="#FFFFFF" enable-background="new    " d="M336.447,383.114c0.56-0.708,2.135,0.868,3.678,0.187
			c1.542-0.681,0.829,0.477,1.415,1.145c0.586,0.668,1.926,0.236,2.879-0.723c0.955-0.959,1.597-0.179,3.855-0.005
			c2.26,0.173,0.885,0.22,1.374-0.109s1.832,0.502,3.968,0.742c2.136,0.241,0.789-0.715,2.266-1.446
			c1.479-0.732,1.619-0.312,4.149,0.541c2.533,0.853,3.513,0.257,4.306-0.396c0.792-0.653,2.353-0.769,3.309-0.238
			c0.957,0.531,1.283,0.896,1.84,0.751c0.559-0.145,1.051-0.412,1.051-0.412s0.812-0.089,1.441,0.014
			c0.629,0.104,1.152,0.775,1.986,1.372c0.834,0.598,1.787,1.541,2.499,0.39c0.713-1.15,2.451-0.431,4.108,0.451
			c1.327,0.706-1.055,0.474-2.531,1.212c-1.479,0.738-4.58-0.284-7.196,0.056c-2.618,0.339-1.547-1.325-6.62-1.404
			c-5.072-0.079-2.847-0.904-4.199-0.17c-1.352,0.734-3.674,0.562-7.616,0.57c-3.944,0.009-1.727-1.068-5.302-1.286
			c-3.575-0.217-3.737,0.527-5.163,0.951c-1.425,0.423-1.407-0.892-3.362-1.327c-1.722-0.382-1.812,0.102-2.377,0.328
			c-0.077,0.031-0.162,0.056-0.261,0.075C335.944,384.384,335.886,383.823,336.447,383.114z"/>
		<path fill="#EFD2AF" d="M364.691,384.823c0,0,3.934-1.856,4.465-1.786c0.532,0.07,1.746,0.049,2.309,0.063
			c0.562,0.013,1.125,0.02,1.521-0.35c0.395-0.369,2.175-1.531,2.416-1.658c0.24-0.128-0.369-1.626-0.709-2.199
			c-0.339-0.573-2.347-3.976-2.523-5.077c-0.176-1.101-0.74-1.058-0.824-1.237c-0.084-0.18-0.843-0.61-1.137-0.651
			c-0.296-0.041-3.64-2.238-4.18-2.017s-1.619,1.769-1.651,1.854c-0.032,0.084-0.042,0.41-0.516,0.47
			c-0.477,0.061-0.782,0.409-0.782,0.409s-0.455,0.372-0.574,0.398c-0.12,0.026-0.462,0.609-0.641,0.634s-0.524-0.281-0.397-0.604
			c0.128-0.322,0.523-0.697,0.735-0.883c0.213-0.186,0.932-0.462,0.938-0.684c0.006-0.222-0.579-0.501-0.815-0.495
			c-0.238,0.006-1.854,0.434-2.221,0.409c-0.368-0.025-1.23,0.135-1.321,0.188c-0.09,0.053-0.74-0.027-1-0.239
			c-0.261-0.214-0.49-0.511-0.579-0.502s-0.226-0.379-0.194-0.467c0.032-0.087,1.841-1.222,1.841-1.222s0.557-0.6,0.6-0.661
			c0.043-0.062,0.259-0.381,0.496-0.375s1.241,0.063,1.658,0.047c0.415-0.018,1.346-0.466,1.939-0.539
			c0.596-0.072,1.765-0.602,1.968-0.434s1.084,0.43,1.528,0.473c0.442,0.042,5.278,0.83,5.479,1.013
			c0.203,0.184,2.611,3.035,2.787,3.144c0.174,0.109,2.145,3.778,2.348,3.932c0.202,0.153,3.657,3.273,3.719,4.697
			c0.007,0.148,0.355,1.017,0.355,1.017s1.844,1.887,2.104,2.058c0.263,0.171,0.727-0.506,0.843-0.47
			c0.118,0.038,0.891-1.095,1.508-0.93s0.886,0.083,0.886,0.083s0.237,0.007,0.416-0.017c0.178-0.025,0.97-0.059,1.733,0.2
			c0.763,0.258,1.726,0.864,1.927,1.082c0.201,0.218,0.869,0.976,0.892,1.253c0.021,0.276,0.134,0.549-0.105,0.631
			c-0.238,0.082-0.633,0.229-0.785,0.417c-0.153,0.188-1.32,0.597-2.04,0.889c-0.719,0.292-1.222,0.278-1.901,0.2
			c-0.679-0.078-1.333,0.004-1.957,0.07c-0.624,0.066-2.357,0.628-3.544,0.675c-1.187,0.046-3.54-0.504-3.965-0.111
			c-0.427,0.394-0.704,0.757-1.708,0.646c-1.004-0.11-4.242-0.823-5.007-1.022c-0.765-0.199-5.687-0.953-6.351-1.565
			C364.01,384.967,364.691,384.823,364.691,384.823z"/>
		<path opacity="0.7" fill="#FFFFFF" enable-background="new    " d="M324.262,382.854c0.56-0.709,2.135,0.867,3.677,0.187
			c1.542-0.682,0.829,0.475,1.416,1.144c0.586,0.668,1.925,0.235,2.879-0.724c0.955-0.959,1.597-0.178,3.855-0.005
			c2.26,0.174,0.884,0.22,1.374-0.109c0.49-0.33,1.832,0.501,3.969,0.743c2.136,0.241,0.789-0.715,2.266-1.446
			c1.478-0.732,1.618-0.313,4.149,0.541c2.533,0.853,3.514,0.257,4.305-0.395c0.792-0.652,2.353-0.769,3.309-0.238
			c0.957,0.531,1.282,0.896,1.84,0.751c0.559-0.145,1.05-0.412,1.05-0.412s0.811-0.089,1.44,0.015
			c0.629,0.104,1.153,0.775,1.987,1.372c0.834,0.599,1.786,1.541,2.5,0.39c0.711-1.15,2.45-0.431,4.107,0.452
			c1.326,0.706-1.055,0.474-2.532,1.212c-1.478,0.738-4.58-0.285-7.196,0.055c-2.617,0.339-1.547-1.324-6.619-1.403
			c-5.073-0.079-2.847-0.905-4.199-0.17c-1.352,0.734-3.674,0.563-7.616,0.57c-3.945,0.008-1.727-1.067-5.302-1.286
			c-3.574-0.218-3.737,0.527-5.163,0.951c-1.425,0.424-1.406-0.892-3.362-1.327c-1.722-0.382-1.812,0.102-2.377,0.328
			c-0.077,0.03-0.162,0.056-0.261,0.074C323.759,384.124,323.701,383.562,324.262,382.854z"/>
		<path fill="#C9A57D" d="M382.235,385.066c-0.181,0.226-0.286,0.307-0.166,0.497s0.513,0.362,0.6,0.413
			c0.085,0.051,0.321-0.179,0.276-0.48c-0.043-0.302-0.104-0.519-0.033-0.687c0.072-0.169-0.157-0.317-0.157-0.317l-0.117,0.359
			L382.235,385.066z"/>
		<path opacity="0.8" fill="#FFFFFF" enable-background="new    " d="M340.429,385.049c0.56-0.708,2.136,0.868,3.678,0.187
			c1.542-0.681,0.829,0.476,1.415,1.145c0.586,0.668,1.926,0.235,2.88-0.724c0.955-0.958,1.597-0.179,3.855-0.004
			c2.259,0.173,0.885,0.219,1.373-0.109c0.49-0.331,1.832,0.501,3.969,0.742c2.136,0.241,0.789-0.715,2.266-1.446
			c1.479-0.733,1.618-0.312,4.148,0.541c2.533,0.853,3.514,0.256,4.305-0.396c0.793-0.653,2.354-0.769,3.31-0.238
			c0.958,0.531,1.283,0.895,1.841,0.751c0.56-0.145,1.05-0.412,1.05-0.412s0.812-0.089,1.441,0.015
			c0.629,0.104,1.152,0.776,1.986,1.372c0.834,0.599,1.787,1.541,2.5,0.39c0.712-1.15,2.451-0.432,4.108,0.451
			c1.326,0.706-1.055,0.474-2.532,1.212c-1.478,0.738-4.58-0.284-7.196,0.056c-2.618,0.339-1.547-1.325-6.619-1.404
			c-5.073-0.079-2.848-0.905-4.199-0.17c-1.352,0.734-3.674,0.562-7.616,0.57c-3.945,0.008-1.728-1.068-5.302-1.285
			c-3.575-0.219-3.737,0.527-5.163,0.951c-1.425,0.424-1.406-0.892-3.362-1.327c-1.723-0.383-1.812,0.102-2.378,0.328
			c-0.076,0.03-0.162,0.055-0.26,0.074C339.926,386.319,339.868,385.758,340.429,385.049z"/>
		<path fill="#39BCEA" d="M387.03,382.089c0,0,0.152,0.818,0.279,1.141c0.128,0.323,0.686,1.534,0.686,1.534
			s0.143,0.623,0.042,0.793c-0.101,0.169-0.045,1.375,0.017,1.372c0.062-0.003,4.445-1.276,4.435-1.44
			c-0.008-0.165-0.229-1.254-0.525-1.651C391.667,383.441,390.647,381.844,387.03,382.089z"/>
		<path fill="#5A5A72" d="M384.483,382.824c-0.137,0.038-0.169,0.755,0.212,0.791c0.382,0.034,0.683,0.101,0.744,0.429
			c0.06,0.327-0.322,1.446-0.111,1.794c0.211,0.345,1.246,0.677,1.496,0.719c0.249,0.041,0.854,0.03,0.373-1.261
			c-0.479-1.292-0.977-1.042-1.167-1.613c-0.104-0.313,0.013-0.138,0.096-0.555c0.084-0.417,0.087-0.853-0.177-1
			C385.262,381.742,384.483,382.824,384.483,382.824z"/>
		<path fill="#27258C" d="M385.992,384.316c0,0,0.754,0.237,0.97,1.188c0.127,0.565-0.072,0.746-0.204,0.835
			c-0.133,0.089-0.8-0.039-1.102-0.546S385.508,384.562,385.992,384.316z"/>
		<path fill="#27258C" d="M385.529,383.378c0,0,0.629-0.611,0.396-0.847c-0.232-0.235-0.546-0.441-0.707-0.349
			c-0.16,0.092-0.556,0.396-0.544,0.626c0.012,0.229-0.079,0.591,0.197,0.604S385.529,383.378,385.529,383.378z"/>
		<path fill="#FFFFFF" d="M376.665,388.146c0.035,0.002,0.069,0.008,0.099,0.016c0.217,0.056,0.272,0.229,0.884,0.01
			c0.695-0.249,0.628-0.729,1.168-0.64c0.542,0.09,0.636,0.355,1.933,0.111c1.298-0.245,0.438-0.536,1.881-0.714
			c1.441-0.178,2.282-0.349,2.811-0.142c0.528,0.206-0.323,0.007,1.528-0.255c1.851-0.262,1.383-0.822,2.354-0.818
			c0.975,0.004,2.062-0.513,2.635-0.31c0.575,0.202,1.436,0.007,0.983,0.326c-0.566,0.399-1.169,0.742-1.482,0.354
			c-0.312-0.389-0.618,0-0.896,0.258c-0.277,0.256-0.438,0.526-0.664,0.593c-0.227,0.067-0.525,0.071-0.525,0.071
			s-0.192-0.074-0.404-0.103c-0.21-0.027-0.312,0.121-0.638,0.36c-0.326,0.238-0.901,0.268-1.221,0.065
			c-0.319-0.202-0.707-0.376-1.593,0.054c-0.887,0.429-0.919,0.588-1.492,0.389c-0.575-0.199-0.125-0.612-0.896-0.426
			c-0.77,0.186-1.222,0.553-1.416,0.455c-0.194-0.098,0.31-0.144-0.508,0.023c-0.818,0.167-1.018,0.482-1.41,0.175
			c-0.395-0.307-0.904-0.404-1.087-0.133c-0.184,0.272,0.131,0.662-0.465,0.483c-0.596-0.178-1.099,0.471-1.336,0.238
			C376.669,388.355,376.665,388.146,376.665,388.146z"/>
	</g>
</g>
<g id="extras_1_">
	<g id="nedador_1_">
		<path opacity="0.7" fill="#FFFFFF" enable-background="new    " d="M223.253,431.572c-0.217-0.026-0.404-0.069-0.574-0.124
			c-1.253-0.405-1.519-1.438-5.185-0.362c-4.163,1.223-3.932,4.062-7.072,3.354c-3.143-0.711-3.601-2.296-11.293-1.306
			c-7.693,0.989-2.746,2.993-11.27,3.548c-8.519,0.555-13.511,1.263-16.538-0.127c-3.029-1.391,1.899,0.071-9.05,0.978
			c-10.949,0.908-8.395,4.347-14.1,3.994c-5.704-0.353-12.257,2.306-15.557,0.924c-3.299-1.38-8.411-0.533-5.648-2.252
			c3.456-2.146,7.105-3.954,8.813-1.57c1.706,2.383,3.629,0.208,5.345-1.205c1.715-1.409,2.749-2.938,4.094-3.253
			c1.344-0.315,3.11-0.24,3.11-0.24s1.102,0.506,2.33,0.736c1.226,0.23,1.877-0.604,3.867-1.89c1.99-1.286,5.38-1.262,7.185,0.032
			c1.806,1.296,4.01,2.44,9.359,0.229c5.345-2.211,5.587-3.139,8.887-1.771c3.297,1.364,0.526,3.626,5.106,2.795
			c4.582-0.83,7.362-2.82,8.467-2.18c1.105,0.64-1.873,0.739,2.984,0.037c4.856-0.704,6.129-2.483,8.332-0.549
			c2.2,1.933,5.157,2.673,6.328,1.145c1.169-1.529-0.538-3.927,2.891-2.679c3.432,1.248,6.607-2.388,7.92-0.938
			C223.298,430.351,223.254,431.572,223.253,431.572z"/>
		<path fill="#EFD2AF" d="M161.348,438.328c-1.346,1.418-11.872,3.762-13.494,4.303c-1.625,0.542-8.519,2.554-10.672,2.937
			c-2.152,0.383-2.804-0.36-3.782-1.148c-0.977-0.787-5.982,0.741-8.553,0.816c-2.569,0.072-6.398-0.893-7.755-0.944
			c-1.359-0.05-2.785-0.134-4.239,0.133c-1.458,0.269-2.542,0.371-4.139-0.155c-1.596-0.526-4.176-1.242-4.536-1.625
			c-0.357-0.384-1.229-0.646-1.758-0.788c-0.527-0.143-0.324-0.748-0.318-1.349c0.008-0.601,1.34-2.337,1.744-2.836
			c0.403-0.499,2.395-1.948,4.007-2.616c1.611-0.671,3.328-0.713,3.717-0.686c0.389,0.028,0.9-0.021,0.9-0.021
			s0.593,0.137,1.903-0.311c1.31-0.446,3.142,1.89,3.391,1.792c0.249-0.098,1.349,1.299,1.89,0.891
			c0.541-0.406,4.249-4.753,4.249-4.753s0.629-1.926,0.621-2.249c-0.074-3.083,6.938-10.326,7.354-10.687
			c0.416-0.362,4.142-8.576,4.502-8.836c0.363-0.26,5.152-6.771,5.563-7.197c0.41-0.426,10.744-2.829,11.696-2.985
			c0.952-0.156,2.819-0.849,3.231-1.243c0.414-0.393,3.02,0.583,4.314,0.65c1.294,0.07,3.372,0.904,4.271,0.882
			c0.901-0.022,3.064-0.292,3.574-0.342c0.511-0.048,1.024,0.611,1.126,0.737c0.101,0.126,1.391,1.341,1.391,1.341
			s4.074,2.189,4.156,2.374c0.082,0.186-0.157,1.046-0.353,1.038c-0.194-0.008-0.645,0.667-1.177,1.168
			c-0.53,0.498-1.924,0.764-2.126,0.663c-0.203-0.103-2.091-0.325-2.882-0.216c-0.79,0.107-4.343-0.584-4.858-0.562
			c-0.512,0.021-1.735,0.707-1.689,1.187c0.045,0.479,1.639,0.971,2.125,1.343c0.485,0.371,1.395,1.122,1.717,1.8
			c0.323,0.678-0.383,1.391-0.772,1.363c-0.389-0.029-1.212-1.238-1.475-1.277c-0.262-0.04-1.3-0.777-1.3-0.777
			s-0.71-0.706-1.747-0.77c-1.036-0.062-1.102-0.765-1.184-0.94c-0.083-0.181-2.639-3.365-3.838-3.767
			c-1.199-0.4-8.107,4.832-8.739,4.965c-0.631,0.132-2.207,1.171-2.361,1.572c-0.155,0.399-1.381,0.389-1.602,2.793
			c-0.223,2.403-4.067,10.049-4.717,11.336c-0.65,1.286-1.75,4.612-1.211,4.854c0.54,0.24,4.553,2.493,5.462,3.233
			c0.909,0.741,2.123,0.646,3.337,0.535c1.213-0.109,3.84-0.243,4.979-0.472c1.138-0.229,9.905,3.211,9.905,3.211
			S162.694,436.906,161.348,438.328z"/>
		<path opacity="0.7" fill="#FFFFFF" enable-background="new    " d="M249.544,429.241c-0.216-0.026-0.404-0.067-0.575-0.122
			c-1.253-0.406-1.518-1.44-5.185-0.365c-4.163,1.226-3.931,4.065-7.071,3.356c-3.143-0.711-3.602-2.297-11.293-1.306
			c-7.693,0.989-2.746,2.992-11.27,3.547c-8.519,0.556-13.511,1.265-16.539-0.127c-3.029-1.39,1.9,0.071-9.049,0.979
			c-10.949,0.906-8.395,4.346-14.099,3.993c-5.704-0.354-12.257,2.305-15.558,0.925c-3.299-1.382-8.41-0.534-5.648-2.254
			c3.456-2.147,7.106-3.952,8.813-1.57c1.706,2.383,3.629,0.208,5.345-1.205c1.715-1.411,2.749-2.938,4.094-3.253
			c1.345-0.314,3.109-0.239,3.109-0.239s1.103,0.504,2.33,0.736c1.227,0.23,1.877-0.604,3.867-1.892
			c1.991-1.285,5.38-1.261,7.185,0.033c1.806,1.294,4.011,2.439,9.36,0.23c5.345-2.213,5.586-3.14,8.886-1.772
			c3.297,1.366,0.526,3.628,5.106,2.796c4.582-0.83,7.361-2.821,8.467-2.18c1.105,0.641-1.873,0.739,2.984,0.037
			c4.855-0.704,6.13-2.482,8.332-0.55c2.199,1.935,5.157,2.676,6.327,1.146s-0.538-3.926,2.891-2.679
			c3.432,1.247,6.606-2.387,7.92-0.936C249.589,428.02,249.545,429.241,249.544,429.241z"/>
		<path fill="#C9A57D" d="M122.431,439.357l-0.309-0.759c0,0-0.473,0.354-0.292,0.709c0.179,0.354,0.078,0.831,0.027,1.489
			c-0.051,0.657,0.492,1.12,0.669,0.999c0.178-0.124,1.004-0.553,1.235-0.98c0.232-0.426-0.009-0.585-0.431-1.049L122.431,439.357z"
			/>
		<path opacity="0.8" fill="#FFFFFF" enable-background="new    " d="M214.928,436.332c-0.216-0.026-0.404-0.067-0.574-0.121
			c-1.254-0.406-1.519-1.44-5.185-0.364c-4.163,1.224-3.932,4.063-7.072,3.354c-3.142-0.709-3.601-2.297-11.293-1.306
			c-7.691,0.989-2.746,2.992-11.27,3.547c-8.519,0.556-13.511,1.264-16.538-0.126c-3.029-1.391,1.9,0.072-9.049,0.978
			c-10.949,0.907-8.393,4.348-14.098,3.994c-5.704-0.354-12.258,2.306-15.558,0.925c-3.3-1.382-8.41-0.534-5.648-2.252
			c3.454-2.148,7.104-3.955,8.812-1.572c1.706,2.383,3.629,0.209,5.345-1.205c1.716-1.409,2.75-2.938,4.094-3.253
			c1.344-0.314,3.111-0.239,3.111-0.239s1.1,0.506,2.329,0.737c1.226,0.229,1.876-0.605,3.867-1.893
			c1.991-1.284,5.379-1.261,7.185,0.033c1.806,1.295,4.012,2.441,9.36,0.231c5.345-2.213,5.587-3.141,8.887-1.771
			c3.297,1.365,0.526,3.625,5.106,2.795c4.583-0.831,7.362-2.822,8.469-2.179c1.104,0.639-1.873,0.737,2.983,0.035
			c4.855-0.702,6.129-2.482,8.331-0.549c2.2,1.934,5.159,2.675,6.327,1.145c1.17-1.529-0.538-3.925,2.893-2.678
			c3.431,1.246,6.605-2.388,7.919-0.937C214.975,435.11,214.931,436.332,214.928,436.332z"/>
		<path fill="#604C19" d="M102.133,438.524c-0.583,0.9-0.903,3.287-0.898,3.645c0.003,0.356,9.659,2.471,9.791,2.467
			c0.134,0,0.08-2.614-0.161-2.965c-0.243-0.354-0.026-1.722-0.026-1.722s1.031-2.697,1.259-3.414
			c0.227-0.716,0.439-2.505,0.439-2.505C104.685,434.026,102.714,437.625,102.133,438.524z"/>
		<path fill="#5A5A72" d="M114.876,433.956c-0.546,0.356-0.477,1.298-0.236,2.187c0.241,0.888,0.467,0.494,0.288,1.185
			c-0.328,1.262-1.439,0.795-2.289,3.655c-0.85,2.859,0.458,2.796,0.991,2.671c0.534-0.126,2.722-0.994,3.127-1.771
			c0.405-0.78-0.582-3.146-0.499-3.859c0.083-0.717,0.725-0.905,1.545-1.036c0.817-0.13,0.642-1.675,0.343-1.738
			C118.147,435.248,116.305,433.024,114.876,433.956z"/>
		<path fill="#27258C" d="M116.043,441.833c-0.579,1.139-2.001,1.515-2.301,1.341c-0.298-0.174-0.755-0.537-0.561-1.775
			c0.326-2.087,1.922-2.706,1.922-2.706C116.182,439.152,116.621,440.693,116.043,441.833z"/>
		<path fill="#27258C" d="M117.393,436.576c0.595-0.069,0.343-0.84,0.337-1.334c-0.007-0.499-0.908-1.098-1.267-1.273
			c-0.36-0.176-1.007,0.315-1.476,0.856c-0.468,0.544,0.979,1.771,0.979,1.771S116.799,436.645,117.393,436.576z"/>
		<path fill="#FFFFFF" d="M135.354,446.603c-0.479,0.539-1.661-0.79-2.921-0.319c-1.259,0.473-0.639-0.416-1.076-0.978
			c-0.435-0.558-1.521-0.274-2.326,0.445c-0.807,0.721-1.281,0.067-3.075-0.174c-1.791-0.242-0.694-0.217-1.1,0.023
			c-0.406,0.241-1.437-0.485-3.127-0.775c-1.692-0.29-0.661,0.535-1.874,1.049c-1.211,0.514-1.303,0.174-3.282-0.623
			c-1.977-0.799-2.789-0.368-3.448,0.116c-0.661,0.482-1.91,0.502-2.647,0.035c-0.74-0.468-0.979-0.773-1.432-0.686
			c-0.452,0.092-0.857,0.281-0.857,0.281s-0.647,0.033-1.146-0.079c-0.498-0.112-0.884-0.672-1.521-1.186
			c-0.636-0.515-1.352-1.312-1.973-0.426c-0.622,0.884-1.974,0.23-3.253-0.551c-1.024-0.623,0.863-0.328,2.075-0.847
			c1.21-0.523,3.635,0.436,5.737,0.287c2.1-0.15,1.17,1.127,5.208,1.425c4.039,0.297,2.227,0.852,3.339,0.33
			c1.11-0.523,2.953-0.278,6.094-0.103c3.145,0.176,1.328,0.93,4.167,1.27c2.838,0.34,3.003-0.247,4.158-0.52
			c1.157-0.271,1.08,0.776,2.618,1.213c1.355,0.383,1.449,0.002,1.91-0.151c0.062-0.02,0.133-0.037,0.21-0.047
			C135.814,445.614,135.833,446.065,135.354,446.603z"/>
	</g>
</g>
<g id="Capa_3">
</g>
</svg>
