<?xml version="1.0" encoding="utf-8"?>
<!-- Generator: Adobe Illustrator 16.0.0, SVG Export Plug-In . SVG Version: 6.00 Build 0)  -->
<!DOCTYPE svg PUBLIC "-//W3C//DTD SVG 1.1//EN" "http://www.w3.org/Graphics/SVG/1.1/DTD/svg11.dtd">
<svg version="1.1" xmlns="http://www.w3.org/2000/svg" xmlns:xlink="http://www.w3.org/1999/xlink" x="0px" y="0px" width="800px"
	 height="800px" viewBox="0 0 800 800" enable-background="new 0 0 800 800" xml:space="preserve">
<g id="Capa_1">
	<g id="Capa_1_1_">
		<g id="Cèl">
			
				<linearGradient id="SVGID_1_" gradientUnits="userSpaceOnUse" x1="394.6787" y1="1169.1172" x2="1228.207" y2="1169.1172" gradientTransform="matrix(0 -1 -1 0 1580.5 1197.5)">
				<stop  offset="0.4692" style="stop-color:#FFFFFF"/>
				<stop  offset="0.5669" style="stop-color:#C1F0FF"/>
				<stop  offset="0.6844" style="stop-color:#7DE0FF"/>
				<stop  offset="0.7908" style="stop-color:#47D4FF"/>
				<stop  offset="0.8821" style="stop-color:#20CBFF"/>
				<stop  offset="0.9549" style="stop-color:#09C5FF"/>
				<stop  offset="1" style="stop-color:#00C3FF"/>
			</linearGradient>
			<polygon fill="url(#SVGID_1_)" points="-9.414,-30.707 832.181,-30.707 828.91,802.821 -6.475,802.821 			"/>
		</g>
		<polygon opacity="0.6" fill="#39BCC4" enable-background="new    " points="-2.192,336 847.558,335.08 845.575,803 -5.21,803 		
			"/>
		<g id="Capa_3_copia">
		</g>
		<g id="Capa_4">
			<path fill="#EDEDED" d="M146.273,1343.625h506.362l9.342-392.621c0,0,46.72-325.445-263.376-437.16
				C98.698,621.132,132.678,942.838,132.678,942.838L146.273,1343.625z"/>
			<path fill="#F4F4F4" d="M396.839,598.842c0,0,219.265-5.492,226.905,278.973c7.645,284.469-22.616,314.695-22.616,314.695
				H193.849l-19.076-86.388V861.559C174.773,861.552,187.97,607.486,396.839,598.842z"/>
			<path fill="#E8E8E8" d="M399.452,597.092C230.012,595,176.356,736.003,162.749,869.193l5.605,220.662l8.502,159.277
				l131.682,19.904l21.247-16.449l141.031,0.418c0,0,17.83,13.824,22.085,13.824c23.93,0,129.158-18.805,129.158-18.805
				s3.762-108.141,5.517-156.806c0.06-1.651,9.681-219.284,9.544-222.024C629.896,736.267,583.701,599.377,399.452,597.092z
				 M619.918,1086.537c0.852,3.598-21.663,150.979-21.663,150.979s-88.021,10.608-110.613,10.608
				c-4.017,0-20.843-13.216-20.843-13.216l-133.15-0.391l-20.053,15.721l-117.2-12.716l-19.54-150.803
				c-2.826-130.886,1.113-132.729,0-217.523c15.487-129.931,76.473-267.958,224.857-265.464
				c147.455,2.481,207.216,137.026,220.348,265.464C621.953,874.17,618.216,1084.325,619.918,1086.537z"/>
			<path fill="#FFFFFF" d="M401.261,859.281l0.089-1.325l-67.549,6.555l-27.559,18.392c-15.297,7.187-18.225,43.406-18.225,43.406
				v67.193l10.687,14.656l75.438-8.571l27.577-27.724l-0.458-23.025V859.281L401.261,859.281z"/>
			<path fill="#FFFFFF" d="M399.88,859.288l1.47-1.332l63.637,6.555l27.054,18.392c15.284,7.187,17.712,43.406,17.712,43.406v67.193
				l-9.669,14.656l-74.92-8.571l-26.632-27.724l1.292-23.028L399.88,859.288z"/>
			<path fill="#C6C6C6" d="M499.702,976.31c-0.209-2.075-30.167-32.68-30.167-32.68l-136.067-0.93l-34.122,31.569v4.425v2.212v2.213
				v25.101h200.356C499.702,1008.22,499.915,978.385,499.702,976.31z"/>
			<path fill="#394963" d="M472.719,1392.802c-0.048,6.545-8.247,11.829-18.303,11.789l-105.984-0.362
				c-10.043-0.039-18.157-5.382-18.109-11.925l0.875-105.979c0.053-6.548,8.252-11.829,18.308-11.79l105.984,0.371
				c10.057,0.029,18.157,5.366,18.104,11.912L472.719,1392.802z"/>
			<g id="Timó_1_">
				<path d="M325.108,997.713c0,17.975,91.009,19.271,91.009-0.167C416.117,980.47,325.108,978.863,325.108,997.713z
					 M333.027,997.511c0-12.847,75.165-11.747,75.165-0.106C408.198,1010.646,333.027,1009.76,333.027,997.511z"/>
				<path d="M359.201,987.682c0,0,0.214,5.602,10.507,5.523c10.305-0.066,8.919-5.045,9.139-5.523
					C379.062,987.193,359.201,987.682,359.201,987.682z"/>
				<polygon points="366.424,993.476 363.771,1008.22 377.36,1008.22 373.749,993.476 				"/>
				<path d="M375.658,989.338c0.214,0,33.242,9.404,33.242,9.404l1.277-5.53l-33.457-6.5L375.658,989.338z"/>
				<path d="M361.849,989.338c-0.209,0-34.198,9.404-34.198,9.404v-5.53l32.183-6.5L361.849,989.338z"/>
			</g>
			<g id="Tapiceria_1_">
				<path fill="#E8CDA0" d="M622.061,869.193c0,0-111.299,0.553-135.941-76.323c-24.633-76.871-39.072-182.502-40.78-184.717
					C443.641,605.945,610.16,632.491,622.061,869.193z"/>
				<path fill="#E8CDA0" d="M176.856,869.193c0,0,111.298,0.553,135.936-76.323c24.639-76.871,39.085-182.502,40.78-184.717
					C355.268,605.945,188.75,632.491,176.856,869.193z"/>
				<path fill="#E8CDA0" d="M185.352,1170.598c0,0-8.146-17.826,18.688-11.612c88.361,20.468,296.517,24.886,389.96-1.1
					c19.586-5.45,19.288-2.232,18.694,6.356c-0.44,6.447-14.44,73.272-14.44,73.272s-159.729,39.818-401.859,0L185.352,1170.598z"/>
				<path fill="#E8CDA0" d="M503.176,1091.479c0,3.688-6.009,5.199-13.875,5.199H310.043c-7.86,0-16.368-1.512-16.368-5.199v-38.924
					c0-3.687,8.508-7.479,16.368-7.479H489.3c7.87,0,13.875,3.792,13.875,7.479L503.176,1091.479L503.176,1091.479z"/>
			</g>
			<path fill="#29ABE2" d="M317.296,669.469c-0.023,0.263,2.997-4.307,2.997-4.307c7.505-8.257,24.285-30.438,24.285-30.438
				l54.412-0.209l60.063,0.272c0,0,16.774,22.276,24.285,30.526c0,0,2.341,4.399,2.326,4.142c0-41.748-11.459-65.629-40.582-65.629
				H359.86C329.066,605.152,316.939,628.389,317.296,669.469z"/>
		</g>
		<g>
			<path fill="#D3D3D3" d="M486,675.61c0-24.683-18.639-44.61-41.02-44.61h-87.806C334.796,631,317,650.93,317,675.61v198.466
				c0,24.68,17.796,44.924,40.177,44.924h87.806c22.381,0,41.02-20.244,41.02-44.924L486,675.61L486,675.61z"/>
			<g>
				<g id="WATER">
					<circle fill="#F4F4F4" cx="348.495" cy="659.767" r="11.237"/>
					<circle fill="#F4F4F4" cx="380.652" cy="659.767" r="11.237"/>
					<text transform="matrix(1 0 0 1 340.4146 663.1221)" font-family="'MyriadPro-Bold'" font-size="2.0346">ºC</text>
					<text transform="matrix(1 0 0 1 342.4116 658.2988)" font-family="'MyriadPro-Bold'" font-size="2.0346">40</text>
					<text transform="matrix(1 0 0 1 346.2734 656.3232)" font-family="'MyriadPro-Bold'" font-size="2.0346">80</text>
					<text transform="matrix(1 0 0 1 349.3447 656.5293)" font-family="'MyriadPro-Bold'" font-size="2.0346">100</text>
					<text transform="matrix(1 0 0 1 351.6421 658.5039)" font-family="'MyriadPro-Bold'" font-size="2.0346">120</text>
					
						<rect x="346.754" y="652.178" transform="matrix(0.9921 -0.1253 0.1253 0.9921 -79.0913 48.6278)" width="0.678" height="1.979"/>
					
						<rect x="351.584" y="652.668" transform="matrix(0.9236 0.3833 -0.3833 0.9236 277.4134 -84.967)" width="0.678" height="1.98"/>
					
						<rect x="354.968" y="654.93" transform="matrix(0.6962 0.7179 -0.7179 0.6962 578.8005 -55.7845)" width="0.676" height="1.978"/>
					
						<rect x="343.06" y="653.387" transform="matrix(0.8464 -0.5326 0.5326 0.8464 -295.7566 283.4161)" width="0.678" height="1.979"/>
					
						<rect x="341.226" y="654.945" transform="matrix(0.6941 -0.7199 0.7199 0.6941 -367.7211 446.58)" width="0.68" height="1.979"/>
					
						<rect x="349.283" y="652.115" transform="matrix(0.9967 0.0814 -0.0814 0.9967 54.3145 -26.2847)" width="0.396" height="1.582"/>
					
						<rect x="344.613" y="652.696" transform="matrix(0.9254 -0.379 0.379 0.9254 -221.9557 179.4456)" width="0.397" height="1.582"/>
					
						<rect x="353.91" y="653.843" transform="matrix(0.8012 0.5984 -0.5984 0.8012 462.1451 -81.7532)" width="0.395" height="1.581"/>
				</g>
				<g id="Capa_2_copia">
					<path fill="#1E1E1E" d="M348.495,647.109c-7.033,0-12.735,5.698-12.735,12.733c0,7.033,5.702,12.734,12.735,12.734
						c7.034,0,12.735-5.701,12.735-12.734S355.528,647.109,348.495,647.109z M348.495,670.13c-5.681,0-10.286-4.604-10.286-10.285
						c0-5.68,4.605-10.286,10.286-10.286s10.286,4.606,10.286,10.286C358.781,665.525,354.176,670.13,348.495,670.13z"/>
					<path fill="#3D3D3D" d="M348.495,647.109c-7.033,0-12.735,5.698-12.735,12.733c0,7.033,5.702,12.734,12.735,12.734
						c7.034,0,12.735-5.701,12.735-12.734S355.528,647.109,348.495,647.109z M348.495,671.675c-6.533,0-11.83-5.297-11.83-11.83
						c0-6.535,5.297-11.831,11.83-11.831c6.534,0,11.831,5.296,11.831,11.831C360.325,666.378,355.029,671.675,348.495,671.675z"/>
					<path fill="#EA2424" d="M348.073,660.685l0.222-7.744l0.449-0.001c0,0,0.164,7.727,0.174,7.746L348.073,660.685z"/>
					<circle fill="#1E1E1E" cx="348.495" cy="662.707" r="2.336"/>
				</g>
				<g id="FUEL">
					<rect x="379.899" y="652.266" fill="#232323" width="0.615" height="2.753"/>
					
						<rect x="386.876" y="655.477" transform="matrix(0.6367 0.7711 -0.7711 0.6367 647.1932 -59.9266)" fill="#232323" width="0.632" height="2.758"/>
					
						<rect x="372.884" y="655.448" transform="matrix(-0.6367 0.7711 -0.7711 -0.6367 1117.3065 787.2315)" fill="#232323" width="0.632" height="2.758"/>
					
						<rect x="375.846" y="653.139" transform="matrix(-0.907 0.421 -0.421 -0.907 992.6279 1089.146)" fill="#232323" width="0.466" height="2.029"/>
					
						<rect x="383.986" y="653.157" transform="matrix(0.9083 0.4184 -0.4184 0.9083 308.9453 -100.7444)" fill="#232323" width="0.464" height="2.028"/>
					<text transform="matrix(1 0 0 1 372.5884 663.4658)" fill="#232323" font-family="'MyriadPro-Bold'" font-size="2.0781">FUEL</text>
					<text transform="matrix(1 0 0 1 374.2183 659.7666)" fill="#232323" font-family="'MyriadPro-Bold'" font-size="2.169">E</text>
					<text transform="matrix(1 0 0 1 385.0605 659.7666)" fill="#232323" font-family="'MyriadPro-Bold'" font-size="2.169">F</text>
					<text transform="matrix(1.4697 0 0 1 379.7715 656.9805)" fill="#232323" font-family="'MyriadPro-Bold'" font-size="2.169">/</text>
					<text transform="matrix(1 0 0 1 379.438 656.3008)" fill="#1E1E1E" font-family="'MyriadPro-Bold'" font-size="1.297">1</text>
					<text transform="matrix(1 0 0 1 380.6021 657.084)" fill="#232323" font-family="'MyriadPro-Bold'" font-size="1.297">2</text>
					<path d="M387.042,662.05c-0.032-0.023-0.28-0.248-0.366-0.208c-0.086,0.039,0.151,0.225,0.194,0.272
						c0.043,0.051,0.076,0,0.043,0.255c-0.032,0.255,0.047,0.646,0.086,0.725c0.04,0.08,0.206,0.468-0.149,0.424
						c-0.354-0.043-0.229-0.266-0.241-0.67c-0.013-0.308-0.203-0.376-0.347-0.392v-0.697h-1.232v1.899h-0.19v0.095h1.614v-0.095
						h-0.19v-1.056c0.097,0.027,0.184,0.081,0.214,0.139c0.079,0.139-0.058,0.284-0.004,0.595c0.056,0.308,0.404,0.377,0.626,0.255
						c0.224-0.123,0.033-0.532-0.007-0.65c-0.039-0.116-0.053-0.435-0.032-0.491c0.022-0.058,0.158-0.067,0.19-0.121
						C387.282,662.271,387.074,662.075,387.042,662.05z M386.166,662.472h-1.044v-0.616h1.044V662.472z"/>
				</g>
				<g id="Capa_2_copia_1_">
					<path fill="#1E1E1E" d="M380.185,646.9c-7.146,0-12.942,5.795-12.942,12.942s5.795,12.944,12.942,12.944
						c7.149,0,12.943-5.797,12.943-12.944S387.333,646.9,380.185,646.9z M380.185,670.299c-5.772,0-10.453-4.681-10.453-10.454
						c0-5.772,4.681-10.454,10.453-10.454c5.774,0,10.455,4.682,10.455,10.454C390.639,665.618,385.958,670.299,380.185,670.299z"/>
					<path fill="#3D3D3D" d="M380.185,646.9c-7.146,0-12.942,5.795-12.942,12.942s5.795,12.944,12.942,12.944
						c7.149,0,12.943-5.797,12.943-12.944S387.333,646.9,380.185,646.9z M380.185,671.869c-6.641,0-12.023-5.383-12.023-12.024
						c0-6.641,5.384-12.022,12.023-12.022c6.643,0,12.025,5.383,12.025,12.022C392.21,666.486,386.826,671.869,380.185,671.869z"/>
					<path fill="#EA2424" d="M380.601,662.062c0.021-0.011,5.901-5.221,5.901-5.221l0.309,0.338l-5.627,5.511L380.601,662.062z"/>
					<circle fill="#1E1E1E" cx="380.185" cy="662.755" r="2.375"/>
				</g>
			</g>
			<g>
				<rect x="401.082" y="706.364" fill="#969696" width="3.76" height="72.382"/>
				
					<rect x="399.658" y="704.128" transform="matrix(0.482 -0.8762 0.8762 0.482 -442.5654 736.3591)" fill="#969696" width="3.667" height="76.701"/>
				
					<rect x="398.61" y="705.805" transform="matrix(-0.5148 -0.8573 0.8573 -0.5148 -31.4009 1470.5315)" fill="#969696" width="3.669" height="76.693"/>
				<path stroke="#000000" stroke-miterlimit="10" d="M402.367,680.733c-34.619,0-62.686,28.062-62.686,62.685
					c0,34.62,28.064,62.685,62.686,62.685s62.685-28.062,62.685-62.685S436.987,680.733,402.367,680.733z M402.367,797.326
					c-29.772,0-53.91-24.136-53.91-53.908c0-29.773,24.138-53.909,53.91-53.909s53.909,24.136,53.909,53.909
					C456.276,773.19,432.141,797.326,402.367,797.326z"/>
				<path stroke="#000000" stroke-miterlimit="10" d="M391.516,690.602c0.26-0.036,7.637-0.882,7.76,5.103
					c0.123,5.983,0.144,10.2,0.144,10.2s-0.279,4.429,2.571,4.426c0.271,0,2.341,0.003,2.574,0.003c2.368,0,2.438-2.209,2.418-4.515
					c-0.022-2.502,0.13-10.019,0.13-10.019s0.539-5.125,6.173-5.125c5.779-0.001-1.208-2.022-1.208-2.022l-18.178,0.112
					L391.516,690.602z"/>
				<path stroke="#000000" stroke-miterlimit="10" d="M350.884,727.531c0.099-0.243,2.894-6.994,8.136-4.107
					c5.245,2.884,8.904,4.977,8.904,4.977s3.698,2.455,5.119-0.016c0.137-0.235,1.174-2.025,1.291-2.229
					c1.184-2.051-0.694-3.216-2.701-4.352c-2.179-1.23-8.611-5.12-8.611-5.12s-4.938-3.062-1.799-7.738
					c3.209-4.78-1.908-0.138-1.908-0.138l-8.991,15.803L350.884,727.531z"/>
				<path d="M362.662,779.835c-0.161-0.206-4.61-6.001,0.509-9.1c5.121-3.1,8.762-5.226,8.762-5.226s3.976-1.974,2.549-4.438
					c-0.139-0.237-1.17-2.031-1.286-2.232c-1.184-2.053-3.131-1.008-5.118,0.163c-2.155,1.271-8.741,4.896-8.741,4.896
					s-5.088,1.854-7.904-3.025c-2.89-5.005-0.769,2.299-0.769,2.299l9.188,15.688L362.662,779.835z"/>
				<path stroke="#000000" stroke-miterlimit="10" d="M415.433,795.693c-0.26,0.037-7.503,0.991-7.625-4.992
					c-0.123-5.984-0.144-10.199-0.144-10.199s0.278-4.43-2.57-4.427c-0.272,0-2.341-0.003-2.574-0.003
					c-2.368,0-2.438,2.208-2.418,4.514c0.022,2.502-0.131,10.02-0.131,10.02s-1.091,5.729-6.854,5.696
					c-5.78-0.032,1.89,1.452,1.89,1.452l18.179-0.114L415.433,795.693z"/>
				<path stroke="#000000" stroke-miterlimit="10" d="M454.102,758.875c-0.099,0.242-2.893,6.992-8.136,4.109
					c-5.244-2.888-8.905-4.979-8.905-4.979s-3.697-2.455-5.118,0.014c-0.138,0.236-1.175,2.026-1.29,2.229
					c-1.186,2.052,0.692,3.218,2.699,4.353c2.178,1.229,8.611,5.122,8.611,5.122s4.196,3.727,1.38,8.604
					c-2.891,5.006,2.329-0.729,2.329-0.729l8.991-15.801L454.102,758.875z"/>
				<path stroke="#000000" stroke-miterlimit="10" d="M441.276,706.047c0.159,0.206,4.609,6.002-0.512,9.1
					c-5.12,3.099-8.763,5.226-8.763,5.226c-4.682,2.325-1.646,5.996-2.548,4.438c-0.137-0.235,1.17,2.03,1.286,2.232
					c1.185,2.051,3.133,1.008,5.118-0.163c2.155-1.271,8.74-4.896,8.74-4.896s5.583-1.642,8.401,3.235
					c2.89,5.005,0.273-2.514,0.273-2.514l-9.188-15.686L441.276,706.047z"/>
				<path fill="#969696" d="M403.196,729.096c-7.877,0-14.264,6.388-14.264,14.265c0,7.876,6.386,14.262,14.264,14.262
					c7.876,0,14.262-6.386,14.262-14.262C417.458,735.482,411.072,729.096,403.196,729.096z M403.196,750.525
					c-3.958,0-7.168-3.208-7.168-7.166c0-3.959,3.209-7.168,7.168-7.168c3.957,0,7.167,3.209,7.167,7.168
					C410.363,747.317,407.153,750.525,403.196,750.525z"/>
				<circle cx="403.282" cy="742.571" r="8.186"/>
			</g>
		</g>
		<g>
			<path fill="#996234" d="M336.391,863.4c0,0-6.675-39.835-8.958-50.055c-4.271-19.129,3.903-61.094,2.914-68.437
				c-0.988-7.344-1.062-15.158,8.41-5.356c9.468,9.803,6.525,47.376,5.581,66.119c-0.951,18.735,11.833,39.659,13.006,45.487
				c1.155,5.837-10.017-1.283-10.017-1.283L336.391,863.4z"/>
			<path fill="#996234" d="M466.017,910.213c0,0,10.448-42.933,11.347-53.364c1.67-19.525-12.031-60.021-12.031-67.433
				s-0.959-15.164-9.044-4.185c-8.079,10.979-0.149,47.82,3.291,66.271c3.451,18.44-13.146,39.026-13.519,44.958
				c-0.371,5.939,16.479-0.75,16.479-0.75L466.017,910.213z"/>
			<path fill="#8BC7E8" d="M466.065,801.089c0,0,7.525-52.664-22.809-62.475c-26.117-8.447-46.735-19.352-69.254-6.613
				c-22.522,12.745-33.086,7.379-36.285,32.298c-3.033,23.627-18.781,37.715,1.181,41.002c21.508,3.546,90.951,6.382,94.934,6.816
				C458.296,814.82,466.065,801.089,466.065,801.089z"/>
			<path fill="#996234" d="M384.123,658.773c0,0-0.657,28.908-0.136,63.861c0.351,23.5,17.937,25.8,28.066,17.543
				c13.062-10.645,3.588-48.751,5.017-56.296C418.5,676.33,384.123,658.773,384.123,658.773z"/>
			<path fill="#301705" d="M397.011,723.697c0,0-23.16-2.769-19.683-25.925c3.458-23.146-9.45-40.479,7.448-46.35
				c15.946-5.538,26.696-19.091,33.911,0.242c7.213,19.333,12.421,29.592,7.213,43.181c-5.203,13.604-4.114,16.918-10.733,25.527
				C408.555,728.999,397.011,723.697,397.011,723.697z"/>
		</g>
		<path fill="#5B5B5B" d="M501,798.973c0,2.479-1.39,4.027-2.697,4.027h-10.268c-1.31,0-2.035-1.55-2.035-4.027v-47.104
			c0-2.479,0.729-4.869,2.035-4.869h10.268c1.31,0,2.697,2.392,2.697,4.869V798.973z"/>
	</g>
</g>
<g id="Capa_2">
	
		<image display="none" overflow="visible" width="1530" height="1028" xlink:href="../../../../Captura de pantalla 2021-03-11 a las 9.50.30.png"  transform="matrix(-0.3819 0 0 0.3819 849.4922 271.1836)">
	</image>
</g>
<g id="Capa_3">
	<g>
		<path fill="#FFF988" d="M812.533,613.769c-0.834-16.703-3.8-50.734-32.827-50.468c-35.786,0.328-33.656,48.645-33.656,48.645
			c-0.032,0.008-0.057,0.025-0.088,0.033C750.146,614.892,777.912,632.503,812.533,613.769z"/>
		<path fill="#F7EF89" d="M812.545,613.993c-0.003-0.073-0.009-0.151-0.012-0.225c-34.621,18.734-62.387,1.123-66.571-1.79
			c-4.942,1.47-1.878,9.548-1.878,9.548s3.849,5.487,6.714,8.844c26.124,12.202,52.686,3.104,56.997,1.802
			c4.341-1.311,4.655-7.955,5.241-8.598C818.183,617.922,812.545,613.993,812.545,613.993z"/>
	</g>
	<g>
		<path fill="#FFF988" d="M686.35,525.551c-0.562-11.253-2.561-34.18-22.115-34c-24.109,0.221-22.674,32.771-22.674,32.771
			c-0.022,0.006-0.039,0.017-0.061,0.023C644.32,526.308,663.025,538.172,686.35,525.551z"/>
		<path fill="#F7EF89" d="M686.357,525.701c-0.001-0.048-0.005-0.102-0.008-0.15c-23.324,12.621-42.029,0.757-44.85-1.205
			c-3.329,0.989-1.265,6.432-1.265,6.432s2.593,3.696,4.523,5.958c17.6,8.22,35.494,2.091,38.399,1.214
			c2.924-0.883,3.137-5.359,3.53-5.793C690.156,528.349,686.357,525.701,686.357,525.701z"/>
	</g>
	<g>
		<path fill="#FFF988" d="M601.128,465.915c-0.408-8.181-1.862-24.846-16.076-24.715c-17.526,0.16-16.482,23.821-16.482,23.821
			c-0.017,0.004-0.027,0.013-0.044,0.018C570.576,466.465,584.173,475.09,601.128,465.915z"/>
		<path fill="#F7EF89" d="M601.135,466.024c-0.003-0.035-0.005-0.073-0.007-0.109c-16.955,9.175-30.552,0.55-32.603-0.876
			c-2.42,0.719-0.92,4.676-0.92,4.676s1.886,2.687,3.289,4.33c12.794,5.976,25.802,1.521,27.913,0.883
			c2.126-0.643,2.28-3.896,2.566-4.211C603.895,467.948,601.135,466.024,601.135,466.024z"/>
	</g>
	<g>
		<path fill="#FFF988" d="M544.655,424.41c-0.298-5.979-1.36-18.16-11.749-18.064c-12.811,0.117-12.048,17.411-12.048,17.411
			c-0.012,0.002-0.02,0.009-0.031,0.013C522.326,424.812,532.264,431.115,544.655,424.41z"/>
		<path fill="#F7EF89" d="M544.66,424.49c-0.001-0.026-0.002-0.055-0.005-0.08c-12.392,6.705-22.329,0.401-23.828-0.641
			c-1.77,0.525-0.673,3.417-0.673,3.417s1.378,1.964,2.404,3.166c9.35,4.366,18.858,1.11,20.401,0.645
			c1.554-0.47,1.666-2.847,1.875-3.077C546.678,425.896,544.66,424.49,544.66,424.49z"/>
	</g>
	<g>
		<path fill="#FFF988" d="M502.557,396.088c-0.225-4.511-1.026-13.701-8.864-13.629c-9.665,0.088-9.09,13.136-9.09,13.136
			c-0.009,0.001-0.015,0.007-0.023,0.01C485.71,396.391,493.208,401.146,502.557,396.088z"/>
		<path fill="#F7EF89" d="M502.561,396.148c-0.001-0.02-0.001-0.041-0.004-0.06c-9.349,5.059-16.847,0.303-17.978-0.483
			c-1.335,0.396-0.507,2.578-0.507,2.578s1.039,1.481,1.813,2.389c7.054,3.294,14.228,0.837,15.393,0.486
			c1.172-0.354,1.257-2.148,1.414-2.322C504.083,397.209,502.561,396.148,502.561,396.148z"/>
	</g>
	<g>
		<path fill="#FFF988" d="M475.348,376.519c-0.177-3.558-0.81-10.807-6.991-10.75c-7.623,0.07-7.17,10.361-7.17,10.361
			c-0.007,0.001-0.011,0.005-0.019,0.008C462.061,376.757,467.975,380.508,475.348,376.519z"/>
		<path fill="#F7EF89" d="M475.352,376.565c-0.001-0.015-0.001-0.032-0.004-0.047c-7.373,3.99-13.287,0.238-14.18-0.381
			c-1.053,0.312-0.399,2.033-0.399,2.033s0.819,1.168,1.431,1.884c5.563,2.598,11.222,0.66,12.141,0.383
			c0.924-0.279,0.991-1.694,1.115-1.831C476.552,377.402,475.352,376.565,475.352,376.565z"/>
	</g>
</g>
</svg>
