<?xml version="1.0" encoding="utf-8"?>
<!-- Generator: Adobe Illustrator 16.0.0, SVG Export Plug-In . SVG Version: 6.00 Build 0)  -->
<!DOCTYPE svg PUBLIC "-//W3C//DTD SVG 1.1//EN" "http://www.w3.org/Graphics/SVG/1.1/DTD/svg11.dtd">
<svg version="1.1" id="Extintor" xmlns="http://www.w3.org/2000/svg" xmlns:xlink="http://www.w3.org/1999/xlink" x="0px" y="0px"
	 width="800px" height="800px" viewBox="0 0 800 800" enable-background="new 0 0 800 800" xml:space="preserve">
<path fill="#ED1C24" d="M469,308.552c0-23.351-35.574-42.139-79.435-42.139c-42.703,0-77.538,17.587-79.348,40.587l0.006,367.392
	c-0.056,0.654-0.093,1.237-0.093,1.898c0,23.353,35.632,42.246,79.492,42.246c43.86,0,79.378-18.947,79.378-42.3
	C469,674.306,469,310.482,469,308.552z"/>
<path fill="#262626" d="M504.749,230.554l-42.895-45.131l-11.275-1.716l0.588-5.624c0,0-38.521,0.496-39.5,0.25
	s0.431,6.109,0.431,6.109s-13.972,0.491-15.934,0.245c-1.961-0.245,4.836-8.334,4.836-8.334l67.963-43.385
	c1.715-0.979,4.683-5.851,1.286-11.214c-3.493-5.515-11.825-1.041-11.825-1.041s-102.947,57.356-107.115,59.562
	c-4.168,2.206-3.921,8.911-3.921,8.911L347.632,203H336v27.524c0,0,12.188,0.121,12.924-0.124l8.057-1.878l15.18,28.474
	c0,0-17.411,6.618-20.843,8.824c-3.433,2.206,1.166,6.136,6.124,7.108c12.501,2.452,26.224,2.452,36.029,2.452
	c9.805,0,30.147-2.452,32.6-5.393c2.451-2.941-5.162-8.824-5.162-8.824l-7.831-3.119c0,0-0.489-3.009,3.922-6.194
	c4.412-3.186,22.796-4.412,31.13-5.883s18.873-9.315,24.266-14.458s8.089-7.263,8.089-7.263l15.687,12.897c0,0,5.883,2.45,8.579,0
	C507.446,234.692,504.749,230.554,504.749,230.554z M473.865,219.249c-2.941,3.676-21.08,20.312-21.08,20.312
	s-37.395,8.008-39.708,5.067l-4.901-0.624c0,0-12.012-25.006-8.825-31.377S414.304,194,414.304,194h42.157
	c0,0,14.953,15.557,15.688,16.357C472.885,211.159,476.807,215.572,473.865,219.249z"/>
<g>
	<circle fill="#EDEDED" cx="368.219" cy="243.024" r="20.592"/>
	<rect x="364.941" y="228.67" transform="matrix(0.9921 -0.1256 0.1256 0.9921 -26.0576 47.7398)" width="1.271" height="3.704"/>
	<rect x="373.934" y="229.622" transform="matrix(0.9228 0.3853 -0.3853 0.9228 118.0954 -126.4414)" width="1.27" height="3.704"/>
	<rect x="380.389" y="233.748" transform="matrix(0.697 0.717 -0.717 0.697 284.371 -201.8293)" width="1.269" height="3.703"/>
	<rect x="358.062" y="230.997" transform="matrix(0.8459 -0.5334 0.5334 0.8459 -68.9129 227.2271)" width="1.271" height="3.703"/>
	<rect x="354.572" y="233.75" transform="matrix(0.6964 -0.7176 0.7176 0.6964 -61.2446 326.42)" width="1.268" height="3.703"/>
	<rect x="369.701" y="228.562" transform="matrix(0.9969 0.0788 -0.0788 0.9969 19.2797 -28.4484)" width="0.744" height="2.964"/>
	<rect x="361.027" y="229.622" transform="matrix(0.9246 -0.381 0.381 0.9246 -60.7961 155.1455)" width="0.739" height="2.964"/>
	
		<rect x="378.378" y="231.843" transform="matrix(0.8012 0.5984 -0.5984 0.8012 214.9306 -180.2631)" width="0.744" height="2.964"/>
	<path fill="#AAAAAA" d="M368.222,219.182c-13.168,0-23.844,10.675-23.844,23.842c0,13.167,10.675,23.843,23.844,23.843
		c13.167,0,23.844-10.675,23.844-23.843C392.065,229.857,381.389,219.182,368.222,219.182z M368.222,262.283
		c-10.637,0-19.257-8.622-19.257-19.258c0-10.636,8.62-19.258,19.257-19.258c10.635,0,19.255,8.622,19.255,19.258
		C387.477,253.661,378.856,262.283,368.222,262.283z"/>
	<path fill="#E2E2E2" d="M368.222,219.182c-13.168,0-23.844,10.675-23.844,23.842c0,13.167,10.675,23.843,23.844,23.843
		c13.167,0,23.844-10.675,23.844-23.843C392.065,229.857,381.389,219.182,368.222,219.182z M368.222,265.174
		c-12.235,0-22.15-9.917-22.15-22.149c0-12.232,9.916-22.149,22.15-22.149c12.232,0,22.149,9.917,22.149,22.149
		C390.371,255.257,380.454,265.174,368.222,265.174z"/>
	<path fill="#EA2424" d="M367.659,247.566c0.017-0.039,0.597-14.497,0.597-14.497l0.842,0.019l0.141,14.507L367.659,247.566z"/>
	<circle fill="#3F3F3F" cx="368.219" cy="248.386" r="4.374"/>
</g>
<path fill="#FFCF36" d="M483.791,130.886c-7.029-0.496-14.617,2.083-14.617,2.083L401,176.354V179h20v5.583l3.3-0.105L424.107,179
	h3.309l0.275,5.854l3.217-0.118l-0.115-5.203l2.395-0.362l0.295,5.537l5.5-0.154L438.813,179h4.412l0.276,5.754
	c0,0,2.661-0.358,3.581-0.171l-0.129-5.512l15.792-0.316c0,0,5.832,6.201,17.43,6.229c13.604,0.035,26.84-7.471,27.943-25.119
	C509.416,139.108,493.351,131.56,483.791,130.886z M481.463,179.033c-11.777,0-21.324-9.546-21.324-21.324
	c0-11.777,9.547-21.325,21.324-21.325s21.324,9.548,21.324,21.325C502.787,169.487,493.24,179.033,481.463,179.033z"/>
<path fill="#ED1C24" d="M311.797,507.531"/>
</svg>
