<?xml version="1.0" encoding="utf-8"?>
<!-- Generator: Adobe Illustrator 16.0.0, SVG Export Plug-In . SVG Version: 6.00 Build 0)  -->
<!DOCTYPE svg PUBLIC "-//W3C//DTD SVG 1.1//EN" "http://www.w3.org/Graphics/SVG/1.1/DTD/svg11.dtd">
<svg version="1.1" id="Capa_1" xmlns="http://www.w3.org/2000/svg" xmlns:xlink="http://www.w3.org/1999/xlink" x="0px" y="0px"
	 width="800px" height="800px" viewBox="0 0 800 800" enable-background="new 0 0 800 800" xml:space="preserve">
<g id="Capa_1_1_">
	<rect x="-23" y="-33" fill="#42C9CC" width="840" height="843"/>
	<rect x="-4" y="-46" fill="#A0A0A0" width="496" height="110"/>
	<rect x="-4" y="722" fill="#A0A0A0" width="814" height="113"/>
	<g id="Capa_1_2_">
		<rect x="-22.142" y="-33.299" fill="#42C9CC" width="840" height="843"/>
		<rect x="-2.642" y="721.701" fill="#A0A0A0" width="814" height="113"/>
	</g>
	<rect x="0.729" y="-46.299" fill="#A0A0A0" width="659.261" height="110"/>
	<g>
		<path fill="#E5E5E5" d="M345.735,553.701h-55.421l-1.022,66.082c0,0-5.115,54.752,28.826,73.536
			c32.825-18.039,29.104-72.181,29.104-72.181L345.735,553.701z"/>
		<path fill="#E2E2E2" d="M318.183,679.06c0,0-23.936,1.15-24.771-46.681s2.541-52.683,2.541-52.683h44.578l1.83,14.062v41.121
			C342.358,634.887,341.044,677.606,318.183,679.06z"/>
		<path fill="#CECECE" d="M318.024,679.354c18.546,0.354,24.418-23.356,25.907-45.75l-0.613-37.104l-0.931-26.782l-14.413-3.347
			l-2.324,2.771l-15.438-0.068c0,0-1.947-2.325-2.417-2.325c-2.62,0-14.137,3.162-14.137,3.162s-0.411,18.182-0.604,26.365
			c-0.006,0.271-1.059,36.87-1.043,37.332C292.802,655.954,297.858,678.971,318.024,679.354z M293.895,597.059
			c-0.093-0.604,2.371-25.391,2.371-25.391s9.634-1.783,12.104-1.783c0.439,0,2.283,2.228,2.283,2.228l14.571,0.062l2.189-2.645
			l12.829,2.14l2.144,25.354c0.311,22.007-0.121,22.312,0,36.574c-1.693,21.849-8.37,45.057-24.61,44.637
			c-16.141-0.416-22.679-23.039-24.117-44.637C293.671,632.767,294.079,597.43,293.895,597.059z"/>
		<path fill="#BABABA" d="M308.146,631.046l2.676,3.093l6.536,1.104v0.46h0.618h0.094h0.288v-0.461l6.807-1.103l3.109-3.098
			c1.673-1.209,2.084-7.299,2.084-7.299v-11.299l-1.238-2.465l-8.291,1.438l-2.771,4.365l-2.757-4.365l-8.025-1.438l-0.917,2.47
			v11.299C306.358,623.747,306.473,629.837,308.146,631.046z"/>
		<path fill="#C6C6C6" d="M307.052,615.829c0.022,0.349,3.302,5.377,3.302,5.377l15.081,0.096l3.925-5.36v-0.744v-0.372v-0.372
			v-3.751h-22.308C307.052,610.701,307.028,615.48,307.052,615.829z"/>
		<path fill="#29ABE2" d="M309.347,625.701h7.517h2.868h6.771c0,0,2.177-3.021,2.526-10.532c0.002-0.044-0.389-0.073-0.389-0.073
			c-0.986,1.393-3.19,5.118-3.19,5.118l-7.152,0.035l-7.896-0.044c0,0-2.205-3.746-3.192-5.133c0,0-0.39,0.055-0.388,0.098
			C307.175,622.682,309.347,625.701,309.347,625.701z"/>
		<g id="Timó_22_">
			<path d="M326.161,611.994c0-3.023-9.96-3.242-9.96,0.025C316.201,614.893,326.161,615.163,326.161,611.994z M325.294,612.026
				c0,2.161-8.228,1.977-8.228,0.02C317.066,609.818,325.294,609.967,325.294,612.026z"/>
			<path d="M322.431,613.68c0,0-0.022-0.938-1.15-0.93s-0.978,0.854-1,0.93C320.256,613.762,322.431,613.68,322.431,613.68z"/>
			<polygon points="321.64,613.701 321.93,610.701 320.442,610.701 320.837,613.701 			"/>
			<path d="M320.628,613.401c-0.021,0-3.638-1.581-3.638-1.581l-0.14,0.931l3.662,1.093L320.628,613.401z"/>
			<path d="M321.877,613.401c0.023,0,3.481-1.581,3.481-1.581v0.931l-3.392,1.093L321.877,613.401z"/>
		</g>
		<g id="Tapiceria_21_">
			<path fill="#B5A081" d="M293.56,633.604c0,0,12.182-0.098,14.877,12.832c2.697,12.927,4.278,30.688,4.465,31.06
				C313.088,677.866,294.862,673.402,293.56,633.604z"/>
			<path fill="#B5A081" d="M342.288,633.604c0,0-12.187-0.098-14.878,12.832c-2.696,12.927-4.277,30.688-4.464,31.06
				C322.759,677.866,340.986,673.402,342.288,633.604z"/>
			<path fill="#B5A081" d="M341.532,582.924c0,0,0.896,2.998-2.047,1.953c-9.67-3.438-32.451-4.185-42.682,0.188
				c-2.144,0.916-2.109,0.376-2.045-1.069c0.049-1.082,1.58-12.318,1.58-12.318s17.479-6.691,43.98,0L341.532,582.924z"/>
			<path fill="#B5A081" d="M305.858,596.229c0-0.62,0.971-1.526,1.833-1.526h19.619c0.856,0,1.549,0.906,1.549,1.526v6.544
				c0,0.618-0.688,0.93-1.549,0.93H307.69c-0.861,0-1.833-0.312-1.833-0.93V596.229z"/>
		</g>
		<circle fill="#3B59AD" cx="350.618" cy="644.771" r="4.908"/>
		<circle fill="#3B59AD" cx="285.366" cy="644.771" r="4.908"/>
		<circle fill="#3B59AD" cx="285.366" cy="590.492" r="4.908"/>
		<circle fill="#3B59AD" cx="351.195" cy="589.914" r="4.908"/>
	</g>
	<g>
		<path fill="#E5E5E5" d="M32.735,553.701h-55.421l-1.023,66.082c0,0-5.114,54.752,28.827,73.536
			c32.825-18.039,29.105-72.181,29.105-72.181L32.735,553.701z"/>
		<path fill="#E2E2E2" d="M5.183,679.06c0,0-23.936,1.15-24.772-46.681c-0.837-47.83,2.54-52.682,2.54-52.682h44.578l1.83,14.067
			v41.116C29.358,634.887,28.044,677.606,5.183,679.06z"/>
		<path fill="#CECECE" d="M5.024,679.354c18.546,0.354,24.418-23.356,25.908-45.75L30.317,596.5l-0.93-26.782l-14.413-3.347
			l-2.325,2.771l-15.438-0.068c0,0-1.951-2.325-2.416-2.325c-2.621,0-14.138,3.162-14.138,3.162s-0.411,18.182-0.604,26.365
			c-0.007,0.271-1.059,36.871-1.044,37.332C-20.198,655.954-15.142,678.971,5.024,679.354z M-19.105,597.059
			c-0.093-0.604,2.371-25.391,2.371-25.391s9.634-1.783,12.106-1.783c0.439,0,2.282,2.228,2.282,2.228l14.572,0.062l2.194-2.645
			l12.828,2.14l2.139,25.354c0.311,22.007-0.12,22.312,0,36.574c-1.693,21.849-8.369,45.057-24.61,44.637
			c-16.14-0.416-22.679-23.039-24.117-44.637C-19.329,632.767-18.92,597.43-19.105,597.059z"/>
		<path fill="#BABABA" d="M-4.854,631.046l2.676,3.093l6.536,1.103v0.461h0.619H5.07h0.288v-0.461l6.807-1.103l3.109-3.098
			c1.673-1.209,2.084-7.299,2.084-7.299v-11.299l-1.238-2.466l-8.291,1.438l-2.775,4.365l-2.756-4.365l-8.026-1.438l-0.913,2.471
			v11.299C-6.642,623.747-6.528,629.837-4.854,631.046z"/>
		<path fill="#C6C6C6" d="M-5.948,615.829c0.022,0.349,3.302,5.377,3.302,5.377l15.081,0.096l3.924-5.366v-0.743v-0.372v-0.372
			v-3.746H-5.948C-5.948,610.701-5.972,615.48-5.948,615.829z"/>
		<path fill="#29ABE2" d="M-3.653,625.701h7.516H6.73h6.772c0,0,2.172-3.021,2.525-10.532c0.002-0.044-0.388-0.073-0.388-0.073
			c-0.987,1.393-3.191,5.118-3.191,5.118l-7.153,0.035l-7.896-0.044c0,0-2.205-3.746-3.192-5.133c0,0-0.39,0.055-0.388,0.098
			C-5.825,622.682-3.653,625.701-3.653,625.701z"/>
		<g id="Timó_21_">
			<path d="M13.161,611.994c0-3.023-9.96-3.242-9.96,0.025C3.201,614.893,13.161,615.163,13.161,611.994z M12.294,612.026
				c0,2.161-8.228,1.977-8.228,0.02C4.066,609.818,12.294,609.967,12.294,612.026z"/>
			<path d="M9.431,613.68c0,0-0.023-0.938-1.151-0.93c-1.128,0.008-0.978,0.854-1,0.93C7.255,613.762,9.431,613.68,9.431,613.68z"/>
			<polygon points="8.64,613.701 8.929,610.701 7.442,610.701 7.837,613.701 			"/>
			<path d="M7.628,613.401c-0.022,0-3.638-1.581-3.638-1.581l-0.139,0.931l3.661,1.093L7.628,613.401z"/>
			<path d="M8.878,613.401c0.022,0,3.48-1.581,3.48-1.581v0.931l-3.391,1.093L8.878,613.401z"/>
		</g>
		<g id="Tapiceria_20_">
			<path fill="#B5A081" d="M-19.341,633.604c0,0,12.182-0.098,14.879,12.832c2.696,12.927,4.277,30.688,4.463,31.06
				C0.188,677.866-18.039,673.402-19.341,633.604z"/>
			<path fill="#B5A081" d="M29.388,633.604c0,0-12.182-0.098-14.879,12.832c-2.695,12.927-4.276,30.688-4.463,31.06
				S28.087,673.402,29.388,633.604z"/>
			<path fill="#B5A081" d="M27.958,582.924c0,0,0.892,2.998-2.047,1.953c-9.67-3.438-32.451-4.185-42.682,0.188
				c-2.144,0.916-2.11,0.376-2.046-1.069c0.049-1.082,1.581-12.318,1.581-12.318s17.482-6.691,43.984,0L27.958,582.924z"/>
			<path fill="#B5A081" d="M-6.642,596.229c0-0.62,0.971-1.526,1.832-1.526h19.62c0.86,0,1.548,0.906,1.548,1.526v6.544
				c0,0.618-0.688,0.93-1.548,0.93H-4.81c-0.861,0-1.832-0.312-1.832-0.93V596.229z"/>
		</g>
		<circle fill="#3B59AD" cx="37.618" cy="644.771" r="4.908"/>
		<circle fill="#3B59AD" cx="-27.634" cy="644.771" r="4.908"/>
		<circle fill="#3B59AD" cx="-27.634" cy="590.492" r="4.908"/>
		<circle fill="#3B59AD" cx="38.195" cy="589.914" r="4.908"/>
	</g>
	<g>
		<path fill="#E5E5E5" d="M509.38,552.701h-55.422l-1.021,66.121c0,0-5.113,54.771,28.826,73.558
			c32.822-18.039,29.104-72.211,29.104-72.211L509.38,552.701z"/>
		<path fill="#E2E2E2" d="M481.505,678.141c0,0-23.773,1.11-24.61-46.721c-0.837-47.832,2.7-52.724,2.7-52.724h44.578l1.187,14.148
			v41.117C505.358,633.968,504.366,676.688,481.505,678.141z"/>
		<path fill="#CECECE" d="M481.668,678.435c18.546,0.354,24.419-23.355,25.908-45.751l-0.614-37.104l-0.93-26.781l-14.414-3.347
			l-2.324,2.766l-15.437-0.063c0,0-1.952-2.325-2.418-2.325c-2.619,0-14.137,3.162-14.137,3.162s-0.411,18.183-0.604,26.366
			c-0.007,0.271-1.061,36.868-1.044,37.33C456.446,655.035,461.503,678.052,481.668,678.435z M457.538,596.139
			c-0.093-0.604,2.371-25.386,2.371-25.386s9.635-1.784,12.104-1.784c0.438,0,2.283,2.228,2.283,2.228l14.567,0.062l2.193-2.644
			l12.829,2.14l2.14,25.354c0.312,22.007-0.121,22.312,0,36.574c-1.69,21.849-8.37,45.057-24.606,44.637
			c-16.145-0.417-22.685-23.04-24.117-44.637C457.315,631.848,457.724,596.512,457.538,596.139z"/>
		<path fill="#BABABA" d="M471.969,630.127l2.766,3.092l6.625,1.104v0.38h0.264h0.098h0.64v-0.381l6.629-1.104l3.196-3.092
			c1.675-1.209,2.175-7.299,2.175-7.299v-11.299l-1.416-2.465l-8.382,1.438l-2.817,4.365l-2.774-4.365l-7.859-1.438l-0.75,2.468
			v11.299C470.358,622.828,470.294,628.918,471.969,630.127z"/>
		<path fill="#C6C6C6" d="M470.695,614.869c0.022,0.349,3.302,5.397,3.302,5.397l15.265,0.104l4.103-5.354v-0.743v-0.372v-0.372
			v-3.828h-22.665C470.695,609.701,470.673,614.521,470.695,614.869z"/>
		<path fill="#29ABE2" d="M472.99,624.701h7.521h2.862h6.771c0,0,2.173-2.98,2.524-10.492c0.004-0.043-0.392-0.054-0.392-0.054
			c-0.983,1.388-3.188,5.129-3.188,5.129l-7.151,0.04l-7.896-0.042c0,0-2.204-3.743-3.188-5.13c0,0-0.395,0.014-0.392,0.057
			C470.818,621.721,472.99,624.701,472.99,624.701z"/>
		<g id="Timó_20_">
			<path d="M489.806,611.074c0-3.022-9.96-3.241-9.96,0.026C479.846,613.973,489.806,614.244,489.806,611.074z M488.938,611.107
				c0,2.159-8.229,1.977-8.229,0.02C480.712,608.899,488.938,609.048,488.938,611.107z"/>
			<path d="M486.075,612.762c0,0-0.021-0.938-1.146-0.93c-1.133,0.01-0.979,0.847-1,0.93
				C483.9,612.843,486.075,612.762,486.075,612.762z"/>
			<polygon points="485.284,612.701 485.573,609.701 484.087,609.701 484.482,612.701 			"/>
			<path d="M484.271,612.482c-0.022,0-3.639-1.581-3.639-1.581l-0.144,0.931l3.662,1.092L484.271,612.482z"/>
			<path d="M485.699,612.482c0.022,0,3.659-1.581,3.659-1.581v0.931l-3.48,1.092L485.699,612.482z"/>
		</g>
		<g id="Tapiceria_19_">
			<path fill="#B5A081" d="M457.304,632.684c0,0,12.183-0.097,14.879,12.833c2.678,12.834,4.107,30.357,4.464,31.059
				C476.832,676.947,458.605,672.483,457.304,632.684z"/>
			<path fill="#B5A081" d="M505.532,632.684c0,0-12.183-0.097-14.879,12.833c-2.696,12.926-4.277,30.688-4.463,31.059
				C486.005,676.947,504.23,672.483,505.532,632.684z"/>
			<path fill="#B5A081" d="M504.95,582.005c0,0,0.891,2.998-2.047,1.952c-9.67-3.438-32.452-4.185-42.688,0.188
				c-2.144,0.916-2.104,0.377-2.046-1.068c0.05-1.083,1.581-12.319,1.581-12.319s17.482-6.69,43.984,0L504.95,582.005z"/>
			<path fill="#B5A081" d="M470.358,595.309c0-0.62,0.614-1.606,1.477-1.606h19.619c0.86,0,1.904,0.986,1.904,1.606v6.545
				c0,0.612-1.044,0.849-2.404,0.849h-19.619c-0.356,0-0.977-0.23-0.977-0.849V595.309z"/>
		</g>
		<circle fill="#3B59AD" cx="514.262" cy="643.852" r="4.908"/>
		<circle fill="#3B59AD" cx="449.011" cy="643.852" r="4.908"/>
		<circle fill="#3B59AD" cx="449.011" cy="589.572" r="4.908"/>
		<circle fill="#3B59AD" cx="514.84" cy="588.995" r="4.909"/>
	</g>
	<g>
		<path fill="#E5E5E5" d="M179.333,553.701h-55.42l-1.023,66.082c0,0-5.114,54.752,28.826,73.536
			c32.826-18.039,29.105-72.181,29.105-72.181L179.333,553.701z"/>
		<path fill="#E2E2E2" d="M151.481,679.06c0,0-23.786,1.15-24.623-46.681s2.689-52.683,2.689-52.683h44.578l1.232,14.068v41.116
			C175.358,634.887,174.343,677.606,151.481,679.06z"/>
		<path fill="#CECECE" d="M151.622,679.354c18.547,0.354,24.418-23.356,25.908-45.75l-0.613-37.104l-0.931-26.782l-14.413-3.347
			l-2.324,2.771l-15.437-0.068c0,0-1.952-2.325-2.417-2.325c-2.62,0-14.137,3.162-14.137,3.162s-0.411,18.182-0.604,26.365
			c-0.007,0.271-1.061,36.87-1.044,37.332C126.4,655.954,131.456,678.971,151.622,679.354z M127.491,597.059
			c-0.092-0.604,2.371-25.391,2.371-25.391s9.635-1.783,12.105-1.783c0.44,0,2.283,2.228,2.283,2.228l14.572,0.062l2.194-2.645
			l12.829,2.14l2.138,25.354c0.31,22.007-0.121,22.312,0,36.574c-1.694,21.849-8.37,45.057-24.61,44.637
			c-16.14-0.416-22.68-23.039-24.117-44.637C127.27,632.767,127.677,597.43,127.491,597.059z"/>
		<path fill="#BABABA" d="M141.945,631.046l2.776,3.093l6.637,1.104v0.46h0.217h0.094h0.689v-0.461l6.605-1.103l2.709-3.098
			c1.674-1.209,1.686-7.299,1.686-7.299v-11.299l-0.939-2.465l-8.142,1.438l-2.7,4.365l-2.719-4.365l-7.807-1.438l-0.693,2.47
			v11.299C140.358,623.747,140.271,629.837,141.945,631.046z"/>
		<path fill="#C6C6C6" d="M140.649,615.829c0.023,0.349,3.302,5.377,3.302,5.377l15.282,0.096l4.125-5.36v-0.744v-0.372v-0.372
			v-3.751h-22.709C140.649,610.701,140.626,615.48,140.649,615.829z"/>
		<path fill="#29ABE2" d="M142.943,625.701h7.517h2.867h6.772c0,0,2.171-3.021,2.524-10.532c0.002-0.044-0.388-0.073-0.388-0.073
			c-0.987,1.393-3.19,5.118-3.19,5.118l-7.153,0.035l-7.896-0.044c0,0-2.205-3.746-3.193-5.133c0,0-0.389,0.055-0.387,0.098
			C140.772,622.682,142.943,625.701,142.943,625.701z"/>
		<g id="Timó_19_">
			<path d="M159.759,611.994c0-3.023-9.959-3.242-9.959,0.025C149.8,614.893,159.759,615.163,159.759,611.994z M158.893,612.026
				c0,2.161-8.228,1.977-8.228,0.02C150.665,609.818,158.893,609.967,158.893,612.026z"/>
			<path d="M156.028,613.68c0,0-0.023-0.938-1.15-0.93c-1.129,0.008-0.978,0.854-1,0.93
				C153.854,613.762,156.028,613.68,156.028,613.68z"/>
			<polygon points="155.237,613.701 155.527,610.701 154.04,610.701 154.436,613.701 			"/>
			<path d="M154.226,613.401c-0.023,0-3.639-1.581-3.639-1.581l-0.139,0.931l3.662,1.093L154.226,613.401z"/>
			<path d="M155.677,613.401c0.022,0,3.682-1.581,3.682-1.581v0.931l-3.491,1.093L155.677,613.401z"/>
		</g>
		<g id="Tapiceria_18_">
			<path fill="#B5A081" d="M127.257,633.604c0,0,12.183-0.098,14.879,12.832c2.697,12.927,4.277,30.688,4.464,31.06
				S128.56,673.402,127.257,633.604z"/>
			<path fill="#B5A081" d="M175.485,633.604c0,0-12.182-0.098-14.878,12.832c-2.696,12.927-4.276,30.688-4.463,31.06
				S174.184,673.402,175.485,633.604z"/>
			<path fill="#B5A081" d="M175.172,582.924c0,0,0.891,2.998-2.048,1.953c-9.67-3.438-32.451-4.185-42.68,0.188
				c-2.145,0.916-2.111,0.376-2.047-1.069c0.049-1.082,1.581-12.318,1.581-12.318s17.481-6.691,43.984,0L175.172,582.924z"/>
			<path fill="#B5A081" d="M139.858,596.229c0-0.62,0.568-1.526,1.43-1.526h19.62c0.861,0,1.95,0.906,1.95,1.526v6.544
				c0,0.618-1.089,0.93-1.95,0.93h-19.62c-0.861,0-1.43-0.312-1.43-0.93V596.229z"/>
		</g>
		<circle fill="#3B59AD" cx="184.216" cy="644.771" r="4.908"/>
		<circle fill="#3B59AD" cx="118.964" cy="644.771" r="4.908"/>
		<circle fill="#3B59AD" cx="118.964" cy="590.492" r="4.908"/>
		<circle fill="#3B59AD" cx="184.794" cy="589.914" r="4.908"/>
	</g>
	<g>
		<path fill="#E5E5E5" d="M65.585,228.701h55.422l1.023-66.375c0,0,5.114-54.899-28.826-73.683
			c-32.826,18.04-29.105,72.4-29.105,72.4L65.585,228.701z"/>
		<path fill="#E2E2E2" d="M93.337,102.756c0,0,23.836-0.862,24.672,46.969c0.838,47.832-2.637,52.976-2.637,52.976H70.794
			l-1.436-14.651v-41.121C69.358,146.929,70.476,104.21,93.337,102.756z"/>
		<path fill="#CECECE" d="M93.296,102.462c-18.545-0.353-24.418,23.357-25.908,45.751l0.615,37.104l0.93,26.782l14.412,3.347
			l2.326-2.766l15.436,0.069c0,0,1.952,2.325,2.417,2.325c2.619,0,14.136-3.162,14.136-3.162s0.412-18.182,0.604-26.366
			c0.007-0.277,1.06-36.871,1.044-37.332C118.52,125.862,113.462,102.845,93.296,102.462z M117.427,184.757
			c0.094,0.605-2.371,25.386-2.371,25.386s-9.635,1.784-12.106,1.784c-0.44,0-2.282-2.222-2.282-2.222l-14.572-0.066l-2.194,2.644
			l-12.828-2.139l-2.139-25.355c-0.31-22.007,0.12-22.317,0-36.576c1.694-21.847,8.37-45.055,24.61-44.635
			c16.14,0.417,22.681,23.039,24.117,44.635C117.65,149.05,117.241,184.385,117.427,184.757z"/>
		<path fill="#BABABA" d="M103.372,150.77l-2.576-3.092l-6.438-1.102v0.125h-1.016H93.25h0.107v-0.125l-7.005,1.102l-3.011,3.092
			c-1.672,1.209-1.984,7.299-1.984,7.299v11.299l1.041,2.464l8.191-1.442l2.726-4.365l2.733,4.365l8.211,1.442l1.099-2.464v-11.299
			C105.358,158.069,105.046,151.979,103.372,150.77z"/>
		<path fill="#C6C6C6" d="M104.27,166.28c-0.022-0.348-3.302-5.523-3.302-5.523l-14.885-0.169l-3.725,5.293v0.744v0.372v0.372v4.332
			h21.911C104.27,171.701,104.292,166.628,104.27,166.28z"/>
		<path fill="#29ABE2" d="M101.976,156.701h-7.518h-2.867H84.82c0,0-2.171,2.728-2.525,10.239c-0.002,0.044,0.388-0.073,0.388-0.073
			c0.987-1.388,3.192-5.192,3.192-5.192l7.151-0.071l7.896,0.026c0,0,2.205,3.736,3.192,5.123c0,0,0.39,0.234,0.388,0.191
			C104.147,159.433,101.976,156.701,101.976,156.701z"/>
		<g id="Timó_18_">
			<path d="M85.16,169.822c0,3.022,9.96,3.242,9.96-0.027C95.12,166.923,85.16,166.653,85.16,169.822z M86.026,169.79
				c0-2.161,8.229-1.977,8.229-0.02C94.255,171.997,86.026,171.849,86.026,169.79z"/>
			<path d="M88.892,168.135c0,0,0.023,0.942,1.15,0.93c1.127-0.011,0.978-0.848,1-0.93
				C91.065,168.054,88.892,168.135,88.892,168.135z"/>
			<polygon points="89.682,168.701 89.392,171.701 90.88,171.701 90.483,168.701 			"/>
			<path d="M90.692,168.414c0.023,0,3.639,1.581,3.639,1.581l0.139-0.93l-3.661-1.093L90.692,168.414z"/>
			<path d="M89.143,168.414c-0.023,0-3.784,1.581-3.784,1.581v-0.93l3.542-1.093L89.143,168.414z"/>
		</g>
		<g id="Tapiceria_17_">
			<path fill="#B5A081" d="M117.161,148.213c0,0-12.181,0.093-14.878-12.832c-2.696-12.926-4.276-30.687-4.463-31.059
				C97.633,103.95,115.859,108.413,117.161,148.213z"/>
			<path fill="#B5A081" d="M68.434,148.213c0,0,12.181,0.093,14.878-12.832c2.695-12.926,4.277-30.687,4.463-31.059
				C87.962,103.95,69.735,108.413,68.434,148.213z"/>
			<path fill="#B5A081" d="M69.863,198.892c0,0-0.892-2.998,2.046-1.953c8.944,3.181,31.848,4.444,42.682-0.185
				c2.145-0.916,2.11-0.376,2.047,1.069c-0.049,1.083-1.582,12.32-1.582,12.32s-17.481,6.696-43.983,0L69.863,198.892z"/>
			<path fill="#B5A081" d="M104.858,185.588c0,0.621-1.366,1.113-2.229,1.113H83.011c-0.861,0-1.153-0.492-1.153-1.113v-6.544
				c0-0.619,0.292-1.343,1.153-1.343h19.619c0.861,0,2.229,0.725,2.229,1.343L104.858,185.588L104.858,185.588z"/>
		</g>
		<circle fill="#3B59AD" cx="60.704" cy="137.044" r="4.908"/>
		<circle fill="#3B59AD" cx="125.954" cy="137.044" r="4.908"/>
		<circle fill="#3B59AD" cx="125.954" cy="191.325" r="4.908"/>
		<circle fill="#3B59AD" cx="60.126" cy="191.902" r="4.908"/>
	</g>
	<g>
		<path fill="#E5E5E5" d="M219.729,228.701h55.421l1.022-66.294c0,0,5.113-54.859-28.826-73.643
			c-32.826,18.04-29.105,72.34-29.105,72.34L219.729,228.701z"/>
		<path fill="#E2E2E2" d="M247.408,102.917c0,0,23.872-0.943,24.709,46.888c0.837,47.832-2.604,52.896-2.604,52.896h-44.577
			l-1.577-14.49V147.09C223.358,147.09,224.546,104.371,247.408,102.917z"/>
		<path fill="#CECECE" d="M247.44,102.623c-18.546-0.353-24.418,23.357-25.908,45.751l0.614,37.103l0.93,26.781l14.414,3.347
			l2.324-2.766l15.437,0.069c0,0,1.952,2.325,2.418,2.325c2.619,0,14.137-3.162,14.137-3.162s0.41-18.183,0.604-26.366
			c0.008-0.278,1.061-36.871,1.045-37.332C272.663,126.023,267.606,103.006,247.44,102.623z M271.57,184.918
			c0.093,0.605-2.371,25.386-2.371,25.386s-9.634,1.784-12.104,1.784c-0.44,0-2.283-2.222-2.283-2.222L240.24,209.8l-2.193,2.644
			l-12.83-2.14l-2.139-25.355c-0.31-22.007,0.121-22.317,0-36.575c1.694-21.847,8.37-45.056,24.611-44.635
			c16.139,0.417,22.679,23.04,24.117,44.635C271.794,149.211,271.384,184.547,271.57,184.918z"/>
		<path fill="#BABABA" d="M257.444,150.931l-2.613-3.092l-6.473-1.101v-0.037h-0.871h-0.094h-0.035v0.037l-6.934,1.102l-3.045,3.092
			c-1.674,1.209-2.021,7.299-2.021,7.299v11.299l1.112,2.464l8.229-1.442l2.743-4.365l2.741,4.365l8.146,1.442l1.029-2.464v-11.299
			C259.358,158.23,259.118,152.14,257.444,150.931z"/>
		<path fill="#C6C6C6" d="M258.413,166.361c-0.022-0.348-3.302-5.483-3.302-5.483l-14.956-0.149l-3.797,5.313v0.745v0.372v0.372
			v4.17h22.055C258.413,171.701,258.436,166.709,258.413,166.361z"/>
		<path fill="#29ABE2" d="M256.118,156.701h-7.516h-2.868h-6.772c0,0-2.172,2.808-2.524,10.32c-0.003,0.044,0.388-0.033,0.388-0.033
			c0.988-1.388,3.192-5.172,3.192-5.172l7.153-0.062l7.895,0.032c0,0,2.205,3.738,3.191,5.125c0,0,0.391,0.155,0.389,0.112
			C258.29,159.513,256.118,156.701,256.118,156.701z"/>
		<g id="Timó_17_">
			<path d="M239.302,169.983c0,3.023,9.961,3.242,9.961-0.027C249.263,167.084,239.302,166.814,239.302,169.983z M240.171,169.951
				c0-2.161,8.228-1.977,8.228-0.02C248.397,172.159,240.171,172.011,240.171,169.951z"/>
			<path d="M243.034,168.296c0,0,0.023,0.942,1.151,0.93c1.127-0.011,0.978-0.848,1-0.93
				C245.208,168.216,243.034,168.296,243.034,168.296z"/>
			<polygon points="243.825,168.701 243.535,171.701 245.021,171.701 244.628,168.701 			"/>
			<path d="M244.837,168.576c0.023,0,3.639,1.581,3.639,1.581l0.139-0.93l-3.662-1.093L244.837,168.576z"/>
			<path d="M243.214,168.576c-0.023,0-3.855,1.581-3.855,1.581v-0.93l3.578-1.093L243.214,168.576z"/>
		</g>
		<g id="Tapiceria_16_">
			<path fill="#B5A081" d="M271.304,148.374c0,0-12.18,0.092-14.877-12.833c-2.697-12.926-4.278-30.687-4.465-31.059
				C251.776,104.111,270.003,108.575,271.304,148.374z"/>
			<path fill="#B5A081" d="M224.024,199.053c0,0-0.891-2.998,2.047-1.953c9.671,3.44,32.453,4.185,42.683-0.185
				c2.144-0.916,2.11-0.376,2.046,1.069c-0.049,1.083-1.581,12.32-1.581,12.32s-17.481,6.696-43.983,0L224.024,199.053z"/>
			<path fill="#B5A081" d="M259.358,185.75c0,0.62-1.225,0.951-2.084,0.951h-19.62c-0.86,0-1.296-0.331-1.296-0.951v-6.544
				c0-0.619,0.436-1.504,1.296-1.504h19.62c0.859,0,1.584,0.886,1.584,1.504L259.358,185.75z"/>
		</g>
		<circle fill="#3B59AD" cx="214.847" cy="137.205" r="4.908"/>
		<circle fill="#3B59AD" cx="280.098" cy="137.205" r="4.908"/>
		<circle fill="#3B59AD" cx="280.098" cy="191.486" r="4.908"/>
		<circle fill="#3B59AD" cx="214.27" cy="192.063" r="4.908"/>
	</g>
	<g>
		<path fill="#E5E5E5" d="M526.644,229.855h55.423l1.021-66.375c0,0,5.114-54.899-28.825-73.683
			c-32.824,18.04-29.104,72.4-29.104,72.4L526.644,229.855z"/>
		<path fill="#E2E2E2" d="M554.396,103.91c0,0,23.834-0.862,24.672,46.969c0.836,47.832-2.64,52.976-2.64,52.976h-44.578
			l-1.437-14.65v-41.122C530.416,148.083,531.533,105.364,554.396,103.91z"/>
		<path fill="#CECECE" d="M554.354,103.616c-18.545-0.353-24.418,23.357-25.907,45.751l0.612,37.104l0.932,26.782l14.413,3.347
			l2.323-2.767l15.438,0.069c0,0,1.952,2.325,2.417,2.325c2.619,0,14.138-3.162,14.138-3.162s0.411-18.182,0.604-26.366
			c0.006-0.276,1.06-36.871,1.043-37.332C579.577,127.016,574.521,103.999,554.354,103.616z M578.485,185.911
			c0.093,0.604-2.373,25.385-2.373,25.385s-9.634,1.785-12.104,1.785c-0.438,0-2.283-2.223-2.283-2.223l-14.571-0.066l-2.193,2.645
			l-12.826-2.139l-2.141-25.355c-0.312-22.007,0.121-22.316,0-36.576c1.692-21.847,8.369-45.055,24.61-44.635
			c16.14,0.417,22.681,23.039,24.117,44.635C578.708,150.204,578.299,185.538,578.485,185.911z"/>
		<path fill="#BABABA" d="M564.431,151.924l-2.577-3.092l-6.438-1.102v0.125H554.4h-0.095h0.106v-0.125l-7.005,1.102l-3.01,3.092
			c-1.675,1.209-1.985,7.299-1.985,7.299v11.299l1.041,2.464l8.192-1.441l2.725-4.365l2.731,4.365l8.214,1.441l1.098-2.464v-11.299
			C566.416,159.223,566.104,153.133,564.431,151.924z"/>
		<path fill="#C6C6C6" d="M565.327,167.434c-0.021-0.349-3.303-5.522-3.303-5.522l-14.884-0.17l-3.728,5.293v0.744v0.372v0.372
			v4.332h21.911C565.327,172.855,565.351,167.782,565.327,167.434z"/>
		<path fill="#29ABE2" d="M563.033,157.855h-7.518h-2.866h-6.772c0,0-2.171,2.729-2.523,10.239
			c-0.003,0.044,0.389-0.073,0.389-0.073c0.986-1.389,3.19-5.191,3.19-5.191l7.15-0.072l7.896,0.027c0,0,2.205,3.735,3.189,5.122
			c0,0,0.393,0.234,0.391,0.191C565.205,160.587,563.033,157.855,563.033,157.855z"/>
		<g id="Timó_16_">
			<path d="M546.218,170.976c0,3.023,9.961,3.242,9.961-0.027C556.179,168.077,546.218,167.807,546.218,170.976z M547.084,170.944
				c0-2.161,8.229-1.978,8.229-0.021C555.312,173.151,547.084,173.003,547.084,170.944z"/>
			<path d="M549.949,169.288c0,0,0.021,0.942,1.15,0.931c1.127-0.011,0.978-0.849,1-0.931
				C552.123,169.208,549.949,169.288,549.949,169.288z"/>
			<polygon points="550.739,169.855 550.449,172.855 551.938,172.855 551.541,169.855 			"/>
			<path d="M551.75,169.568c0.021,0,3.64,1.581,3.64,1.581l0.142-0.93l-3.662-1.093L551.75,169.568z"/>
			<path d="M550.2,169.568c-0.021,0-3.784,1.581-3.784,1.581v-0.93l3.542-1.093L550.2,169.568z"/>
		</g>
		<g id="Tapiceria_15_">
			<path fill="#B5A081" d="M578.72,149.367c0,0-12.184,0.093-14.879-12.832c-2.695-12.926-4.276-30.687-4.465-31.059
				C559.189,105.104,577.417,109.567,578.72,149.367z"/>
			<path fill="#B5A081" d="M529.991,149.367c0,0,12.183,0.093,14.878-12.832c2.696-12.926,4.275-30.687,4.463-31.059
				S531.293,109.567,529.991,149.367z"/>
			<path fill="#B5A081" d="M223.378,148.213c0,0,12.184,0.093,14.879-12.832c2.695-12.926,4.275-30.687,4.463-31.059
				C242.908,103.95,224.681,108.413,223.378,148.213z"/>
			<path fill="#B5A081" d="M530.921,200.046c0,0-0.893-2.998,2.046-1.953c9.671,3.439,32.452,4.185,42.684-0.186
				c2.144-0.916,2.108-0.376,2.045,1.069c-0.049,1.083-1.582,12.319-1.582,12.319s-17.479,6.697-43.98,0L530.921,200.046z"/>
			<path fill="#B5A081" d="M566.416,186.742c0,0.621-1.364,1.113-2.229,1.113h-19.62c-0.86,0-1.152-0.492-1.152-1.113v-6.544
				c0-0.618,0.292-1.343,1.152-1.343h19.62c0.859,0,2.229,0.725,2.229,1.343V186.742z"/>
		</g>
		<circle fill="#3B59AD" cx="521.761" cy="138.198" r="4.908"/>
		<circle fill="#3B59AD" cx="587.013" cy="138.198" r="4.908"/>
		<circle fill="#3B59AD" cx="587.013" cy="192.479" r="4.908"/>
		<circle fill="#3B59AD" cx="521.185" cy="193.056" r="4.908"/>
	</g>
	<g id="Sortida_1_2_">
		<g id="Boat_moviment_1_5_" display="none" opacity="0.6">
			
				<linearGradient id="SVGID_1_" gradientUnits="userSpaceOnUse" x1="496" y1="1338.4727" x2="496" y2="1184.2019" gradientTransform="matrix(0.854 -0.5203 -0.5203 -0.854 685.8192 1632.9095)">
				<stop  offset="0" style="stop-color:#FFFFFF;stop-opacity:0.8"/>
				<stop  offset="1" style="stop-color:#FFFFFF;stop-opacity:0"/>
			</linearGradient>
			<path display="inline" opacity="0.8" fill="url(#SVGID_1_)" enable-background="new    " d="M538.43,336.013
				c-9.546-11.75-24.632-18.492-33.249-27.938c-8.618-9.445-11.005-19.63-21.289-31.024c-10.279-11.391-23.689-13.816-31.641-21.382
				c-7.95-7.565-18.807-23.647-28.146-26.918c-9.34-3.271-12.86,2.326-12.86,2.326s-4.99,1.58-6.056,9.169
				c-1.375,9.799,7.917,26.79,10.996,37.328c3.077,10.534-0.955,23.498,4.454,37.862c5.41,14.364,13.435,21.266,17.874,33.258
				c4.443,11.99,3.518,28.486,9.581,42.357L538.43,336.013L538.43,336.013z"/>
			<g id="Capa_4_10_" display="inline">
				<path fill="#D1D1D1" d="M430.59,314.34l48.729-29.688l-34.465-58.589c0,0-24.816-50.852-64.719-49.185
					c-19.194,33.443,13.048,79.009,13.048,79.009L430.59,314.34z"/>
				<path fill="#F4F4F4" d="M387.622,189.547c0,0,20.604-13.668,46.961,27.937s26.166,47.848,26.166,47.848l-39.192,23.879
					l-9.615-11.653l-22.027-36.153C389.913,241.403,368.299,203.069,387.622,189.547z"/>
				<path fill="#E8E8E8" d="M387.715,189.134c-16.493,9.625-8.958,33.616,1.73,54.103l20.412,32.292l15.164,23.047l14.464-4.781
					l0.563-3.678l13.608-8.206c0,0,2.96,0.999,3.37,0.749c2.303-1.403,10.733-10.352,10.733-10.352s-9.378-16.206-13.591-23.504
					c-0.144-0.247-18.821-32.987-19.081-33.385C422.424,196.198,405.651,178.671,387.715,189.134z M453.014,248.564
					c0.405,0.481,11.515,23.587,11.515,23.587s-7.516,6.73-9.688,8.054c-0.387,0.236-3.195-0.731-3.195-0.731l-12.848,7.752
					l-0.515,3.499l-12.423,4.99l-15.461-21.146c-12.062-19.184-11.851-19.689-19.593-32.158
					c-10.212-20.115-16.774-44.095-2.272-52.426c14.416-8.276,32.286,8.111,45.113,26.325
					C434.082,217.049,452.65,248.336,453.014,248.564z"/>
				<path fill="#FFFFFF" d="M411.504,227.788l-0.112-0.201l-5.904,4.933l-0.998,4.333c-0.825,1.959,2.157,7.488,2.157,7.488
					l6.053,9.934l2.35,1.54l6.487-5.688l0.156-5.716l-2.117-3.377L411.504,227.788z"/>
				<path fill="#FFFFFF" d="M411.372,227.87l0.021-0.283l6.718-2.758l4.258,1.131c2.117,0.167,5.615,5.378,5.615,5.378l6.055,9.938
					l0.386,2.729l-7.978,3.13l-5.06-2.538l-1.951-3.479L411.372,227.87z"/>
				<path fill="#C6C6C6" d="M431.518,239.316c-0.205-0.29-5.847-3.062-5.847-3.062l-13.175,7.842l-0.44,6.668l0.399,0.654
					l0.198,0.327l0.2,0.33l2.263,3.711l19.278-11.747C434.392,244.035,431.726,239.612,431.518,239.316z"/>
				<path fill="#394963" d="M465.118,305.277c0.321,1.09-0.3,2.232-1.388,2.549l-11.453,3.38c-1.087,0.319-2.229-0.302-2.552-1.39
					l-5.188-17.597c-0.32-1.087,0.302-2.227,1.389-2.548l11.453-3.377c1.089-0.321,2.229,0.3,2.55,1.387L465.118,305.277z"/>
				<path fill="#29ABE2" d="M424.076,231.641l-6.609,4.027l-2.521,1.536l-5.955,3.628c0,0-0.286,3.826,3.426,10.619
					c0.021,0.041,0.382-0.136,0.382-0.136c0.126-1.749,0.069-6.21,0.069-6.21l6.268-3.862l6.966-4.188c0,0,3.946,2.111,5.558,2.803
					c0,0,0.309-0.265,0.284-0.304C427.605,233.143,424.076,231.641,424.076,231.641z"/>
				<g id="Timó_25_">
					<path d="M416.645,252.718c1.618,2.656,10.493-2.487,8.742-5.36C423.849,244.833,414.946,249.931,416.645,252.718z
						 M417.388,252.224c-1.157-1.899,6.175-6.145,7.225-4.423C425.805,249.759,418.489,254.034,417.388,252.224z"/>
					<path d="M419.021,249.236c0,0,0.524,0.818,1.508,0.201c0.985-0.615,0.402-1.269,0.382-1.353
						C420.888,248,419.021,249.236,419.021,249.236z"/>
					<polygon points="420.237,249.668 421.311,252.004 422.619,251.207 420.941,249.24 					"/>
					<path d="M420.753,248.514c0.021-0.011,4.045-0.557,4.045-0.557l-0.374-0.893l-3.804,1.001L420.753,248.514z"/>
					<path d="M419.423,249.325c-0.019,0.012-2.441,3.395-2.441,3.395l-0.497-0.816l2.51-2.847L419.423,249.325z"/>
				</g>
				<g id="Tapiceria_24_">
					<path fill="#E8CDA0" d="M433.645,216.309c0,0-10.66,6.607-19.956-3.312c-9.295-9.92-20.197-24.689-20.561-24.917
						C392.764,187.851,411.18,182.015,433.645,216.309z"/>
					<path fill="#E8CDA0" d="M390.802,242.41c0,0,10.761-6.443,6.208-19.253c-4.554-12.809-12.677-29.271-12.712-29.697
						C384.261,193.032,370.627,206.721,390.802,242.41z"/>
					<path fill="#E8CDA0" d="M418.768,286.47c0,0-2.391-2.161,0.75-2.813c10.347-2.155,30.776-13.706,37.429-23.026
						c1.396-1.951,1.653-1.46,2.373-0.152c0.538,0.978,5.211,11.677,5.211,11.677s-11.783,15.255-38.67,23.561L418.768,286.47z"/>
					<path fill="#E8CDA0" d="M442.225,256.138c0.332,0.545-0.113,1.119-0.871,1.58l-17.247,10.509
						c-0.756,0.46-1.712,0.736-2.042,0.194l-3.506-5.753c-0.333-0.546,0.146-1.606,0.9-2.066l17.25-10.51
						c0.758-0.462,1.677-0.253,2.011,0.293L442.225,256.138z"/>
				</g>
			</g>
			<g display="inline">
				<path fill="#996234" d="M418.989,255.483c0,0,0.234-1.79,1.849-0.153c1.615,1.638,3.659,3.014,3.659,3.014
					s1.692-1.844,1.63-2.578c-0.062-0.733-1.857-3.152-0.469-4.88c1.39-1.729,1.947-2.626,2.829,0.532
					c0.88,3.156,1.761,5.225,1.761,5.225l-6.403,6.168l-4.595-6.899"/>
				<path fill="#EF45B7" d="M424.044,261.673c0,0-5.245-2.533-3.716-3.265c1.53-0.73,1.404,0.746,3.291-0.274
					c1.889-1.02,0.751-2.325,3.466-2.92c2.713-0.604,3.231-1.643,3.599-0.186c0.366,1.451,0.695,2.178,0.695,2.178L424.044,261.673
					L424.044,261.673z"/>
				<path fill="#996234" d="M421.932,263.038c0,0-2.07-3.119-2.658-3.892c-1.104-1.449-1.741-5.453-2.098-6.037
					c-0.356-0.587-0.639-1.256,0.664-0.863c1.305,0.4,2.319,3.781,2.88,5.44c0.558,1.658,2.586,2.858,2.908,3.306
					c0.321,0.448-1.061,0.364-1.061,0.364L421.932,263.038z"/>
				<path fill="#996234" d="M432.084,257.129c0,0-1.064-4.008-1.48-4.882c-0.782-1.644-4.048-4.048-4.402-4.632
					c-0.357-0.587-0.825-1.141-1.072,0.195c-0.244,1.344,2.294,3.795,3.514,5.053c1.218,1.256,0.619,3.856,0.87,4.346
					c0.25,0.492,1.543-1.021,1.543-1.021L432.084,257.129z"/>
				<path fill="#8BC7E8" d="M420.515,263.9c0,0,3.007,3.586,5.938,2.895c2.936-0.689,3.951-0.927,5.568-3.216
					c1.617-2.291,3.102-2.476,1.727-4.356c-1.373-1.881-0.671-3.716-2.762-2.87c-2.258,0.913-7.998,3.898-8.407,4.082
					C420.079,261.589,420.515,263.9,420.515,263.9z"/>
				<path fill="#301705" d="M429.377,265.018c0,0-2.354,1.135-3.137-0.899c-0.782-2.034-2.165-2.11-0.947-3.639
					c1.219-1.528,1.067-3.534,2.69-2.425c1.623,1.107,2.618,1.616,2.771,2.994c0.157,1.38,0.423,1.578,0.202,2.646
					C430.74,264.763,429.377,265.018,429.377,265.018z"/>
			</g>
		</g>
		<g id="Boat_moviment_1_4_" opacity="0.7">
			
				<linearGradient id="SVGID_2_" gradientUnits="userSpaceOnUse" x1="506.1113" y1="1284.71" x2="506.1113" y2="1130.4358" gradientTransform="matrix(0.4707 -0.8823 -0.8823 -0.4707 1373.9775 1354.7444)">
				<stop  offset="0" style="stop-color:#FFFFFF;stop-opacity:0.8"/>
				<stop  offset="1" style="stop-color:#FFFFFF;stop-opacity:0"/>
			</linearGradient>
			<path opacity="0.8" fill="url(#SVGID_2_)" enable-background="new    " d="M639.715,329.442
				c-14.192-5.262-30.613-3.396-42.837-7.149c-12.224-3.75-19.457-11.306-34.104-15.888c-14.646-4.58-27.426,0.151-38.119-2.321
				c-10.692-2.471-28.219-10.797-37.923-8.866c-9.703,1.932-9.891,8.542-9.891,8.542s-3.494,3.899-0.552,10.976
				c3.799,9.137,20.439,19.042,28.451,26.549c8.006,7.506,11.125,20.719,23.088,30.336c11.963,9.618,22.382,11.48,32.304,19.547
				c9.922,8.067,17.513,22.741,29.787,31.601L639.715,329.442L639.715,329.442z"/>
			<g id="Capa_4_9_">
				<path fill="#D1D1D1" d="M535.838,365.618l26.859-50.342l-59.469-32.922c0,0-47.228-31.166-80.737-9.44
					c0.478,38.558,51.413,61.396,51.413,61.396L535.838,365.618z"/>
				<path fill="#F4F4F4" d="M435.381,280.016c0,0,10.792-22.247,54.644,0.174c43.85,22.421,46.86,27.893,46.86,27.893
					l-21.604,40.492l-14.206-5.144l-37.352-19.929C463.723,323.501,425.619,301.485,435.381,280.016z"/>
				<path fill="#E8E8E8" d="M435.25,279.612c-9.306,16.675,9.381,33.5,29.002,45.706l33.997,17.425l24.777,12.133l10.021-11.471
					l-1.383-3.454l7.545-13.986c0,0,3.056-0.646,3.282-1.069c1.269-2.38,3.979-14.373,3.979-14.373s-16.316-9.185-23.655-13.327
					c-0.248-0.141-32.98-18.833-33.406-19.044C468.729,268.045,445.375,261.482,435.25,279.612z M521.698,297.58
					c0.594,0.208,21.908,14.455,21.908,14.455s-3.049,9.616-4.247,11.861c-0.213,0.4-3.123,0.996-3.123,0.996l-7.12,13.208
					l1.337,3.274l-8.159,10.614l-24.065-10.345c-20.143-10.385-20.216-10.928-33.224-17.727
					c-19.021-12.127-36.868-29.438-28.616-43.986c8.204-14.457,31.924-9.434,52.231-0.274
					C489.371,280.07,521.269,297.568,521.698,297.58z"/>
				<path fill="#FFFFFF" d="M475.391,300.798l-0.197-0.116l-2.578,7.25l1.346,4.239c0.285,2.106,5.665,5.35,5.665,5.35l10.264,5.476
					l2.807,0.131l2.692-8.197l-2.771-5.001l-3.54-1.832L475.391,300.798z"/>
				<path fill="#FFFFFF" d="M475.318,300.937l-0.125-0.255l4.38-5.79l4.242-1.191c1.907-0.932,7.569,1.776,7.569,1.776l10.267,5.478
					l1.721,2.153l-5.277,6.751l-5.646,0.388L489,308.244L475.318,300.937z"/>
				<path fill="#C6C6C6" d="M498.486,300.548c-0.325-0.145-6.593,0.336-6.593,0.336l-7.355,13.453l3.012,5.965l0.676,0.361
					l0.339,0.179l0.341,0.183l3.834,2.046l10.628-19.918C503.359,303.149,498.815,300.696,498.486,300.548z"/>
				<path fill="#394963" d="M560.959,340.257c0.832,0.775,0.877,2.074,0.102,2.9l-8.143,8.734c-0.773,0.828-2.073,0.874-2.902,0.101
					l-13.418-12.513c-0.828-0.773-0.872-2.071-0.1-2.9l8.145-8.731c0.775-0.83,2.071-0.875,2.9-0.102L560.959,340.257z"/>
				<path fill="#29ABE2" d="M488.176,297.723l-3.645,6.829l-1.39,2.604l-3.282,6.153c0,0,1.699,3.439,8.351,7.401
					c0.039,0.024,0.261-0.312,0.261-0.312c-0.781-1.569-3.1-5.381-3.1-5.381l3.434-6.513l3.868-7.148c0,0,4.472-0.189,6.209-0.412
					c0,0,0.132-0.386,0.091-0.406C491.979,297.221,488.176,297.723,488.176,297.723z"/>
				<g id="Timó_24_">
					<path d="M492.494,319.65c2.744,1.464,7.771-7.477,4.802-9.062C494.688,309.198,489.615,318.114,492.494,319.65z
						 M492.883,318.847c-1.962-1.047,2.192-8.431,3.971-7.482C498.877,312.444,494.752,319.845,492.883,318.847z"/>
					<path d="M492.77,315.444c0,0,0.868,0.437,1.401-0.594c0.535-1.031-0.299-1.297-0.36-1.358
						C493.748,313.43,492.77,315.444,492.77,315.444z"/>
					<polygon points="494.037,315.197 496.148,316.663 496.87,315.312 494.426,314.471 					"/>
					<path d="M493.895,313.941c0.013-0.02,3.199-2.537,3.199-2.537l-0.774-0.579l-2.768,2.797L493.895,313.941z"/>
					<path d="M493.162,315.315c-0.011,0.02-0.378,4.165-0.378,4.165l-0.844-0.45l0.715-3.728L493.162,315.315z"/>
				</g>
				<g id="Tapiceria_23_">
					<path fill="#E8CDA0" d="M488.617,279.656c0,0-5.82,11.11-18.869,7.296c-13.046-3.816-29.944-10.988-30.373-11
						C438.946,275.94,451.835,261.55,488.617,279.656z"/>
					<path fill="#E8CDA0" d="M465.001,323.917c0,0,5.989-11.02-4.446-19.734c-10.434-8.713-25.8-18.758-26.047-19.107
						C434.259,284.726,429.48,303.445,465.001,323.917z"/>
					<path fill="#E8CDA0" d="M511.484,347.633c0,0-3.156-0.645-0.783-2.803c7.812-7.118,19.53-27.452,20.52-38.86
						c0.209-2.389,0.682-2.098,1.965-1.337c0.962,0.568,10.426,7.404,10.426,7.404s-2.391,19.127-21.317,39.952L511.484,347.633z"/>
					<path fill="#E8CDA0" d="M516.26,309.588c0.562,0.3,0.472,1.021,0.055,1.802l-9.51,17.821c-0.416,0.78-1.099,1.504-1.658,1.205
						l-5.943-3.172c-0.564-0.3-0.692-1.457-0.276-2.237l9.509-17.821c0.42-0.784,1.315-1.071,1.882-0.771L516.26,309.588z"/>
				</g>
			</g>
			<g>
				<path fill="#996234" d="M495.919,320.839c0,0-0.707-1.662,1.516-1.072c2.225,0.589,4.683,0.734,4.683,0.734
					s0.52-2.449,0.093-3.05c-0.426-0.6-3.203-1.769-2.886-3.963c0.318-2.195,0.343-3.251,2.707-0.98
					c2.363,2.271,4.173,3.604,4.173,3.604l-2.376,8.567l-7.466-3.604"/>
				<path fill="#EF45B7" d="M503.419,323.599c0,0-5.804,0.486-4.859-0.921c0.947-1.408,1.589-0.072,2.695-1.91
					c1.107-1.839-0.536-2.384,1.498-4.277c2.029-1.899,1.947-3.057,3.006-1.99c1.054,1.063,1.705,1.522,1.705,1.522L503.419,323.599
					L503.419,323.599z"/>
				<path fill="#996234" d="M502.295,325.848c0,0-3.369-1.632-4.27-1.999c-1.687-0.687-4.271-3.81-4.874-4.132
					c-0.607-0.323-1.188-0.756,0.132-1.081c1.327-0.318,3.92,2.076,5.246,3.22c1.322,1.145,3.681,1.146,4.186,1.368
					c0.504,0.222-0.729,0.853-0.729,0.853L502.295,325.848z"/>
				<path fill="#996234" d="M508.031,315.597c0,0-2.955-2.909-3.758-3.45c-1.51-1.018-5.542-1.427-6.146-1.749
					c-0.605-0.324-1.291-0.564-0.824,0.713c0.474,1.281,3.904,2.102,5.594,2.565c1.688,0.462,2.495,3.005,2.961,3.299
					c0.465,0.297,0.81-1.664,0.81-1.664L508.031,315.597z"/>
				<path fill="#8BC7E8" d="M501.514,327.311c0,0,4.412,1.559,6.585-0.528c2.178-2.085,2.932-2.807,3.159-5.601
					c0.229-2.795,1.412-3.708-0.729-4.629c-2.141-0.922-2.469-2.859-3.838-1.066c-1.479,1.934-4.904,7.424-5.164,7.79
					C499.963,325.542,501.514,327.311,501.514,327.311z"/>
				<path fill="#301705" d="M509.712,323.767c0,0-1.449,2.174-3.158,0.821c-1.708-1.354-2.938-0.716-2.665-2.652
					c0.272-1.935-0.878-3.585,1.083-3.456c1.961,0.128,3.075,0.06,3.91,1.168c0.836,1.109,1.165,1.145,1.52,2.177
					C510.756,322.854,509.712,323.767,509.712,323.767z"/>
			</g>
		</g>
		<g id="Boat_moviment_1_2_" display="none" opacity="0.6">
			
				<linearGradient id="SVGID_3_" gradientUnits="userSpaceOnUse" x1="531.4961" y1="1182.083" x2="531.4961" y2="1027.8112" gradientTransform="matrix(0 -1 -1 0 1756.1484 877.6152)">
				<stop  offset="0" style="stop-color:#FFFFFF;stop-opacity:0.8"/>
				<stop  offset="1" style="stop-color:#FFFFFF;stop-opacity:0"/>
			</linearGradient>
			<path display="inline" opacity="0.8" fill="url(#SVGID_3_)" enable-background="new    " d="M728.337,293.231
				c-15,2.039-28.606,11.414-41.158,13.858c-12.551,2.446-22.489-0.815-37.569,2.038c-15.077,2.854-24.125,13.043-34.725,15.896
				c-10.597,2.854-29.979,3.758-37.631,10.03c-7.652,6.272-4.705,12.192-4.705,12.192s-1.247,5.084,4.682,9.942
				c7.651,6.273,26.996,7.179,37.599,10.03c10.597,2.854,19.569,13.043,34.649,15.896c15.082,2.854,25.151-0.408,37.702,2.039
				c12.552,2.444,26.156,11.819,41.156,13.857V293.231L728.337,293.231z"/>
			<g id="Capa_4_7_" display="inline">
				<path fill="#D1D1D1" d="M653.719,374.049v-57.06l-67.966-1.052c0,0-56.338-5.265-75.676,29.679
					c18.572,33.793,74.262,29.965,74.262,29.965L653.719,374.049z"/>
				<path fill="#F4F4F4" d="M524.792,345.813c0,0-0.951-24.708,48.291-25.568c49.242-0.861,54.476,2.549,54.476,2.549v45.895
					l-14.955,2.149H570.27C570.268,370.838,526.287,369.351,524.792,345.813z"/>
				<path fill="#E8E8E8" d="M524.487,345.52c-0.361,19.093,24.047,25.14,47.104,26.672l38.197-0.63l27.572-0.959l3.44-14.838
					l-2.847-2.396l0.072-15.891c0,0,2.393-2.009,2.393-2.488c0-2.697-3.255-14.554-3.255-14.554s-18.719-0.423-27.144-0.622
					c-0.286-0.007-37.965-1.09-38.438-1.076C548.579,319.554,524.885,324.758,524.487,345.52z M609.215,320.677
					c0.622-0.096,26.135,2.439,26.135,2.439s1.838,9.92,1.838,12.465c0,0.453-2.287,2.349-2.287,2.349l-0.064,15.005l2.721,2.26
					l-2.2,13.205l-26.104,2.202c-22.658,0.319-22.979-0.125-37.656,0c-22.49-1.745-46.385-8.617-45.953-25.337
					c0.434-16.617,23.726-23.352,45.953-24.83C572.451,320.446,608.831,320.868,609.215,320.677z"/>
				<path fill="#FFFFFF" d="M569.875,345.315l-0.229-0.009l1.139,7.61l3.183,3.106c1.244,1.724,7.518,2.054,7.518,2.054h11.634
					l2.536-1.205l-1.482-8.5l-4.8-3.107l-3.985,0.051H569.875L569.875,345.315z"/>
				<path fill="#FFFFFF" d="M569.877,345.471l-0.23-0.165l1.139-7.17l3.183-3.049c1.244-1.721,7.516-1.996,7.516-1.996h11.636
					l2.532,1.09l-1.479,8.441l-4.8,3l-3.985-0.145L569.877,345.471z"/>
				<path fill="#C6C6C6" d="M590.133,334.223c-0.354,0.024-5.657,3.399-5.657,3.399l-0.156,15.332l5.465,3.845h0.767h0.383h0.388
					h4.346v-22.576C595.657,334.223,590.493,334.198,590.133,334.223z"/>
				<path fill="#394963" d="M662.229,337.265c1.139,0.005,2.053,0.93,2.043,2.062l-0.062,11.941
					c-0.007,1.132-0.931,2.047-2.064,2.041l-18.347-0.098c-1.133-0.006-2.046-0.93-2.04-2.063l0.064-11.94
					c0.006-1.135,0.93-2.047,2.062-2.041L662.229,337.265z"/>
				<path fill="#29ABE2" d="M579.707,336.583v7.74v2.951v6.975c0,0,3.119,2.234,10.852,2.599c0.047,0.003,0.083-0.397,0.083-0.397
					c-1.429-1.017-5.268-3.289-5.268-3.289l-0.037-7.362l0.048-8.128c0,0,3.855-2.271,5.284-3.286c0,0-0.065-0.402-0.11-0.401
					C582.826,334.351,579.707,336.583,579.707,336.583z"/>
				<g id="Timó_11_">
					<path d="M593.839,353.896c3.11,0,3.336-10.255-0.029-10.255C590.854,343.642,590.575,353.896,593.839,353.896z
						 M593.804,353.005c-2.224,0-2.034-8.471-0.019-8.471C596.078,344.534,595.923,353.005,593.804,353.005z"/>
					<path d="M592.102,350.056c0,0,0.974-0.023,0.957-1.184c-0.013-1.162-0.874-1.004-0.957-1.029
						C592.018,347.817,592.102,350.056,592.102,350.056z"/>
					<polygon points="593.104,349.241 595.657,349.54 595.657,348.009 593.104,348.417 					"/>
					<path d="M592.388,348.2c0-0.022,1.628-3.744,1.628-3.744l-0.956-0.146l-1.125,3.771L592.388,348.2z"/>
					<path d="M592.388,349.758c0,0.022,1.628,3.853,1.628,3.853h-0.956l-1.125-3.625L592.388,349.758z"/>
				</g>
				<g id="Tapiceria_11_">
					<path fill="#E8CDA0" d="M571.591,320.436c0,0,0.097,12.542-13.212,15.319c-13.308,2.775-31.593,4.402-31.976,4.594
						C526.02,340.54,530.616,321.776,571.591,320.436z"/>
					<path fill="#E8CDA0" d="M571.591,370.603c0,0,0.097-12.542-13.212-15.318c-13.308-2.775-31.593-4.404-31.976-4.596
						C526.02,350.497,530.616,369.263,571.591,370.603z"/>
					<path fill="#E8CDA0" d="M623.767,369.645c0,0-3.088,0.917-2.011-2.104c3.542-9.957,4.309-33.414-0.189-43.943
						c-0.939-2.207-0.388-2.172,1.104-2.105c1.115,0.049,12.685,1.625,12.685,1.625s6.896,18,0,45.283L623.767,369.645z"/>
					<path fill="#E8CDA0" d="M610.069,333.831c0.639,0,0.896,0.679,0.896,1.564v20.199c0,0.884-0.262,1.844-0.896,1.844h-6.737
						c-0.639,0-1.296-0.96-1.296-1.844v-20.199c0-0.889,0.656-1.564,1.296-1.564H610.069z"/>
				</g>
			</g>
			<g display="inline">
				<path fill="#996234" d="M597.421,353.333c0,0-1.406-1.133,0.832-1.659c2.239-0.527,4.478-1.556,4.478-1.556
					s-0.694-2.405-1.354-2.734c-0.658-0.328-3.659-0.053-4.411-2.139c-0.753-2.086-1.229-3.029,1.926-2.139
					c3.153,0.891,5.379,1.215,5.379,1.215l1.937,8.678l-8.282,0.334"/>
				<path fill="#EF45B7" d="M605.337,352.237c0,0-4.892,3.161-4.722,1.475c0.174-1.688,1.368-0.812,1.479-2.954
					c0.112-2.144-1.595-1.851-0.689-4.479c0.896-2.631,0.277-3.613,1.714-3.17c1.43,0.442,2.222,0.54,2.222,0.54L605.337,352.237
					L605.337,352.237z"/>
				<path fill="#996234" d="M605.403,354.751c0,0-3.74,0.146-4.707,0.246c-1.812,0.188-5.562-1.351-6.246-1.351
					c-0.688,0-1.404-0.108-0.393-1.017c1.021-0.905,4.436-0.014,6.145,0.371c1.707,0.387,3.787-0.721,4.337-0.764
					c0.549-0.041-0.242,1.096-0.242,1.096L605.403,354.751z"/>
				<path fill="#996234" d="M605.64,343.006c0,0-3.977-1.175-4.938-1.274c-1.812-0.188-5.562,1.35-6.246,1.35
					c-0.688,0-1.404,0.11-0.393,1.018c1.021,0.907,4.436,0.016,6.145-0.371c1.707-0.387,3.615,1.477,4.164,1.518
					c0.55,0.043-0.069-1.849-0.069-1.849L605.64,343.006z"/>
				<path fill="#8BC7E8" d="M605.403,356.409c0,0,4.626-0.701,5.562-3.565c0.938-2.865,1.264-3.856,0.15-6.429
					c-1.114-2.573-0.5-3.937-2.822-3.741c-2.321,0.194-3.521-1.36-3.888,0.866c-0.396,2.402-0.832,8.858-0.89,9.304
					C603.202,355.579,605.403,356.409,605.403,356.409z"/>
				<path fill="#301705" d="M610.968,349.423c0,0-0.256,2.601-2.399,2.211c-2.145-0.391-2.929,0.751-3.601-1.085
					c-0.671-1.836-2.462-2.75-0.671-3.56c1.79-0.81,2.741-1.395,3.999-0.81c1.261,0.584,1.567,0.461,2.365,1.205
					C611.459,348.126,610.968,349.423,610.968,349.423z"/>
			</g>
		</g>
		<g id="Boat_moviment_1_1_" opacity="0.5">
			
				<linearGradient id="SVGID_4_" gradientUnits="userSpaceOnUse" x1="531.6826" y1="1106.0615" x2="531.6826" y2="951.7897" gradientTransform="matrix(0 -1 -1 0 1756.1484 877.6152)">
				<stop  offset="0" style="stop-color:#FFFFFF;stop-opacity:0.8"/>
				<stop  offset="1" style="stop-color:#FFFFFF;stop-opacity:0"/>
			</linearGradient>
			<path opacity="0.8" fill="url(#SVGID_4_)" enable-background="new    " d="M804.358,293.043
				c-15,2.039-28.607,11.414-41.158,13.858c-12.552,2.446-22.489-0.815-37.57,2.038c-15.077,2.854-24.125,13.043-34.724,15.897
				c-10.598,2.853-29.979,3.757-37.631,10.03c-7.652,6.272-4.705,12.192-4.705,12.192s-1.247,5.084,4.681,9.942
				c7.652,6.273,26.997,7.179,37.599,10.03c10.598,2.854,19.569,13.043,34.65,15.896c15.082,2.854,25.151-0.408,37.702,2.039
				c12.551,2.444,26.156,11.819,41.156,13.857V293.043L804.358,293.043z"/>
			<g id="Capa_4_5_">
				<path fill="#D1D1D1" d="M729.74,373.86v-57.059l-67.966-1.052c0,0-56.339-5.265-75.677,29.679
					c18.572,33.793,74.263,29.965,74.263,29.965L729.74,373.86z"/>
				<path fill="#F4F4F4" d="M600.812,345.625c0,0-0.95-24.708,48.291-25.568c49.242-0.862,54.477,2.548,54.477,2.548V368.5
					l-14.955,2.149h-42.334C646.289,370.649,602.309,369.162,600.812,345.625z"/>
				<path fill="#E8E8E8" d="M600.509,345.331c-0.36,19.093,24.047,25.14,47.104,26.672l38.196-0.63l27.572-0.959l3.441-14.838
					l-2.848-2.396l0.072-15.891c0,0,2.394-2.009,2.394-2.488c0-2.697-3.256-14.554-3.256-14.554s-18.719-0.423-27.144-0.622
					c-0.286-0.007-37.964-1.09-38.438-1.076C624.601,319.365,600.906,324.569,600.509,345.331z M685.236,320.488
					c0.622-0.096,26.135,2.44,26.135,2.44s1.837,9.919,1.837,12.464c0,0.454-2.287,2.349-2.287,2.349l-0.063,15.005l2.721,2.26
					l-2.201,13.205l-26.104,2.202c-22.658,0.319-22.979-0.125-37.656,0c-22.491-1.745-46.385-8.617-45.953-25.337
					c0.433-16.617,23.725-23.351,45.953-24.83C648.473,320.258,684.854,320.68,685.236,320.488z"/>
				<path fill="#FFFFFF" d="M645.896,345.127l-0.229-0.009l1.139,7.61l3.184,3.106c1.244,1.724,7.517,2.054,7.517,2.054h11.634
					l2.536-1.205l-1.481-8.5l-4.801-3.107l-3.984,0.051H645.896L645.896,345.127z"/>
				<path fill="#FFFFFF" d="M645.898,345.282l-0.231-0.165l1.139-7.17l3.184-3.048c1.244-1.722,7.515-1.997,7.515-1.997h11.636
					l2.532,1.09l-1.479,8.441l-4.801,3l-3.984-0.145L645.898,345.282z"/>
				<path fill="#C6C6C6" d="M666.154,334.034c-0.354,0.024-5.657,3.399-5.657,3.399l-0.157,15.333l5.465,3.845h0.768h0.383h0.387
					h4.347v-22.576C671.679,334.034,666.515,334.01,666.154,334.034z"/>
				<path fill="#394963" d="M738.251,337.076c1.138,0.005,2.052,0.929,2.042,2.062l-0.062,11.942
					c-0.007,1.132-0.931,2.047-2.063,2.041l-18.347-0.098c-1.134-0.006-2.047-0.93-2.04-2.063l0.063-11.941
					c0.006-1.134,0.931-2.046,2.062-2.041L738.251,337.076z"/>
				<path fill="#29ABE2" d="M655.729,336.394v7.741v2.951v6.975c0,0,3.119,2.234,10.853,2.599c0.046,0.003,0.083-0.397,0.083-0.397
					c-1.429-1.017-5.268-3.289-5.268-3.289l-0.037-7.362l0.048-8.128c0,0,3.854-2.271,5.284-3.286c0,0-0.065-0.402-0.11-0.401
					C658.848,334.162,655.729,336.394,655.729,336.394z"/>
				<g id="Timó_2_">
					<path d="M669.86,353.708c3.109,0,3.336-10.255-0.029-10.255C666.875,343.453,666.597,353.708,669.86,353.708z M669.825,352.816
						c-2.225,0-2.034-8.471-0.02-8.471C672.1,344.346,671.944,352.816,669.825,352.816z"/>
					<path d="M668.123,349.867c0,0,0.973-0.023,0.957-1.184c-0.013-1.162-0.874-1.004-0.957-1.029
						C668.039,347.629,668.123,349.867,668.123,349.867z"/>
					<polygon points="669.126,349.053 671.679,349.352 671.679,347.82 669.126,348.229 					"/>
					<path d="M668.409,348.012c0-0.022,1.628-3.744,1.628-3.744l-0.956-0.146l-1.125,3.771L668.409,348.012z"/>
					<path d="M668.409,349.569c0,0.022,1.628,3.853,1.628,3.853h-0.956l-1.125-3.625L668.409,349.569z"/>
				</g>
				<g id="Tapiceria_2_">
					<path fill="#E8CDA0" d="M647.612,320.247c0,0,0.096,12.542-13.212,15.319c-13.309,2.775-31.594,4.402-31.977,4.594
						C602.041,340.352,606.638,321.588,647.612,320.247z"/>
					<path fill="#E8CDA0" d="M647.612,370.414c0,0,0.096-12.542-13.212-15.318c-13.309-2.775-31.594-4.404-31.977-4.596
						C602.041,350.309,606.638,369.074,647.612,370.414z"/>
					<path fill="#E8CDA0" d="M699.788,369.456c0,0-3.088,0.917-2.011-2.104c3.542-9.957,4.308-33.415-0.19-43.943
						c-0.938-2.207-0.387-2.172,1.104-2.106c1.114,0.049,12.684,1.626,12.684,1.626s6.896,18,0,45.283L699.788,369.456z"/>
					<path fill="#E8CDA0" d="M686.091,333.642c0.64,0,0.896,0.679,0.896,1.565v20.199c0,0.884-0.263,1.844-0.896,1.844h-6.737
						c-0.639,0-1.296-0.96-1.296-1.844v-20.199c0-0.889,0.656-1.565,1.296-1.565H686.091z"/>
				</g>
			</g>
			<g>
				<path fill="#996234" d="M673.442,353.145c0,0-1.406-1.133,0.832-1.659c2.238-0.527,4.477-1.556,4.477-1.556
					s-0.694-2.405-1.354-2.734c-0.657-0.328-3.658-0.053-4.41-2.139c-0.753-2.086-1.229-3.029,1.926-2.139
					c3.153,0.891,5.379,1.215,5.379,1.215l1.936,8.678l-8.281,0.334"/>
				<path fill="#EF45B7" d="M681.358,352.049c0,0-4.893,3.161-4.723,1.475c0.174-1.688,1.368-0.812,1.479-2.954
					c0.111-2.144-1.596-1.851-0.69-4.479c0.896-2.631,0.278-3.613,1.714-3.17c1.431,0.442,2.223,0.54,2.223,0.54L681.358,352.049
					L681.358,352.049z"/>
				<path fill="#996234" d="M681.425,354.562c0,0-3.74,0.146-4.707,0.246c-1.812,0.188-5.562-1.351-6.246-1.351
					c-0.688,0-1.403-0.108-0.392-1.017c1.021-0.905,4.435-0.014,6.144,0.371c1.707,0.387,3.787-0.721,4.337-0.764
					c0.55-0.041-0.241,1.096-0.241,1.096L681.425,354.562z"/>
				<path fill="#996234" d="M681.661,342.817c0,0-3.978-1.175-4.939-1.274c-1.812-0.188-5.562,1.35-6.246,1.35
					c-0.688,0-1.403,0.11-0.392,1.018c1.021,0.907,4.435,0.016,6.144-0.371c1.707-0.387,3.615,1.477,4.164,1.518
					c0.551,0.043-0.068-1.849-0.068-1.849L681.661,342.817z"/>
				<path fill="#8BC7E8" d="M681.425,356.221c0,0,4.626-0.701,5.562-3.565c0.938-2.865,1.264-3.856,0.149-6.429
					c-1.113-2.573-0.5-3.937-2.821-3.741c-2.321,0.194-3.522-1.36-3.889,0.866c-0.395,2.402-0.832,8.858-0.889,9.304
					C679.224,355.391,681.425,356.221,681.425,356.221z"/>
				<path fill="#301705" d="M686.989,349.234c0,0-0.256,2.601-2.4,2.211c-2.144-0.391-2.928,0.751-3.6-1.085
					c-0.671-1.836-2.462-2.75-0.671-3.56c1.79-0.81,2.74-1.395,3.999-0.81c1.261,0.584,1.566,0.461,2.364,1.205
					C687.48,347.938,686.989,349.234,686.989,349.234z"/>
			</g>
		</g>
		<g id="Boat_moviment_1_3_">
			
				<linearGradient id="SVGID_5_" gradientUnits="userSpaceOnUse" x1="612.0137" y1="1280.334" x2="612.0137" y2="1126.0623" gradientTransform="matrix(1 0 0 -1 -207.6055 1437.1582)">
				<stop  offset="0" style="stop-color:#FFFFFF;stop-opacity:0.8"/>
				<stop  offset="1" style="stop-color:#FFFFFF;stop-opacity:0"/>
			</linearGradient>
			<path opacity="0.8" fill="url(#SVGID_5_)" enable-background="new    " d="M457.297,311.097
				c-2.039-15-11.414-28.607-13.857-41.158c-2.446-12.551,0.814-22.489-2.038-37.57c-2.854-15.077-13.043-24.125-15.896-34.724
				c-2.854-10.597-3.758-29.979-10.03-37.631c-6.271-7.652-12.191-4.705-12.191-4.705s-5.084-1.247-9.942,4.681
				c-6.272,7.652-7.179,26.997-10.03,37.599c-2.854,10.597-13.043,19.569-15.896,34.65c-2.854,15.082,0.408,25.151-2.039,37.702
				c-2.444,12.551-11.819,26.156-13.856,41.156H457.297L457.297,311.097z"/>
			<g id="Capa_4_8_">
				<path fill="#D1D1D1" d="M376.479,236.479h57.061l1.052-67.966c0,0,5.266-56.338-29.679-75.676
					c-33.793,18.572-29.965,74.262-29.965,74.262L376.479,236.479z"/>
				<path fill="#F4F4F4" d="M404.715,107.552c0,0,24.708-0.951,25.568,48.291c0.86,49.242-2.549,54.476-2.549,54.476H381.84
					l-2.148-14.955V153.03C379.69,153.027,381.178,109.047,404.715,107.552z"/>
				<path fill="#E8E8E8" d="M405.009,107.247c-19.093-0.361-25.14,24.047-26.672,47.104l0.63,38.197l0.959,27.572l14.838,3.441
					l2.396-2.847l15.891,0.072c0,0,2.009,2.393,2.488,2.393c2.697,0,14.554-3.255,14.554-3.255s0.423-18.719,0.622-27.144
					c0.007-0.286,1.09-37.964,1.076-38.438C430.975,131.339,425.771,107.645,405.009,107.247z M429.852,191.975
					c0.097,0.622-2.438,26.135-2.438,26.135s-9.92,1.837-12.465,1.837c-0.453,0-2.35-2.287-2.35-2.287l-15.005-0.064l-2.26,2.721
					l-13.205-2.201l-2.202-26.104c-0.318-22.658,0.125-22.979,0-37.656c1.745-22.491,8.617-46.385,25.337-45.953
					c16.617,0.433,23.353,23.725,24.83,45.953C430.082,155.211,429.66,191.591,429.852,191.975z"/>
				<path fill="#FFFFFF" d="M405.213,152.635l0.009-0.229l-7.609,1.139l-3.106,3.183c-1.724,1.244-2.054,7.517-2.054,7.517v11.634
					l1.205,2.536l8.5-1.482l3.106-4.8l-0.051-3.985V152.635L405.213,152.635z"/>
				<path fill="#FFFFFF" d="M405.058,152.637l0.165-0.23l7.17,1.139l3.05,3.183c1.721,1.244,1.996,7.515,1.996,7.515v11.636
					l-1.091,2.532l-8.44-1.479l-3-4.8l0.145-3.985L405.058,152.637z"/>
				<path fill="#C6C6C6" d="M416.306,172.893c-0.023-0.354-3.398-5.657-3.398-5.657l-15.332-0.157l-3.845,5.465v0.767v0.383v0.387
					v4.346h22.575C416.306,178.417,416.33,173.253,416.306,172.893z"/>
				<path fill="#394963" d="M414.629,243.603c0.176,1.124-0.592,2.174-1.71,2.344l-11.8,1.839c-1.118,0.173-2.168-0.593-2.343-1.712
					l-2.823-18.129c-0.175-1.12,0.592-2.168,1.711-2.342l11.798-1.838c1.121-0.175,2.169,0.593,2.343,1.711L414.629,243.603z"/>
				<path fill="#29ABE2" d="M413.945,162.467h-7.74h-2.951h-6.975c0,0-2.234,3.119-2.6,10.852c-0.003,0.046,0.397,0.083,0.397,0.083
					c1.017-1.429,3.289-5.268,3.289-5.268l7.362-0.037l8.128,0.048c0,0,2.271,3.855,3.285,5.284c0,0,0.402-0.064,0.401-0.11
					C416.178,165.586,413.945,162.467,413.945,162.467z"/>
				<g id="Timó_23_">
					<path d="M396.632,176.599c0,3.11,10.255,3.336,10.255-0.029C406.887,173.613,396.632,173.335,396.632,176.599z
						 M397.523,176.563c0-2.224,8.471-2.034,8.471-0.019C405.994,178.838,397.523,178.683,397.523,176.563z"/>
					<path d="M400.473,174.861c0,0,0.023,0.973,1.185,0.957c1.162-0.013,1.004-0.874,1.028-0.957
						C402.711,174.777,400.473,174.861,400.473,174.861z"/>
					<polygon points="401.287,175.864 400.988,178.417 402.52,178.417 402.111,175.864 					"/>
					<path d="M402.328,175.147c0.021,0,3.744,1.628,3.744,1.628l0.146-0.956l-3.771-1.125L402.328,175.147z"/>
					<path d="M400.771,175.147c-0.022,0-3.854,1.628-3.854,1.628v-0.956l3.625-1.125L400.771,175.147z"/>
				</g>
				<g id="Tapiceria_22_">
					<path fill="#E8CDA0" d="M430.093,154.351c0,0-12.542,0.096-15.318-13.212c-2.775-13.308-4.402-31.593-4.595-31.976
						C409.988,108.779,428.752,113.376,430.093,154.351z"/>
					<path fill="#E8CDA0" d="M379.926,154.351c0,0,12.542,0.096,15.318-13.212c2.774-13.308,4.404-31.593,4.596-31.976
						C400.031,108.779,381.266,113.376,379.926,154.351z"/>
					<path fill="#E8CDA0" d="M380.884,206.526c0,0-0.917-3.088,2.104-2.011c9.957,3.542,33.414,4.308,43.942-0.19
						c2.207-0.939,2.173-0.387,2.105,1.104c-0.049,1.115-1.625,12.684-1.625,12.684s-18,6.896-45.283,0L380.884,206.526z"/>
					<path fill="#E8CDA0" d="M416.697,192.829c0,0.639-0.68,0.896-1.564,0.896h-20.199c-0.884,0-1.844-0.262-1.844-0.896v-6.737
						c0-0.639,0.96-1.296,1.844-1.296h20.199c0.89,0,1.564,0.656,1.564,1.296V192.829z"/>
				</g>
			</g>
			<g>
				<path fill="#996234" d="M397.195,180.181c0,0,1.133-1.406,1.658,0.832c0.527,2.239,1.557,4.477,1.557,4.477
					s2.405-0.694,2.733-1.354c0.328-0.658,0.054-3.659,2.14-4.411c2.086-0.753,3.029-1.229,2.139,1.926
					c-0.891,3.153-1.215,5.379-1.215,5.379l-8.678,1.936l-0.334-8.282"/>
				<path fill="#EF45B7" d="M398.291,188.097c0,0-3.161-4.892-1.475-4.722c1.688,0.174,0.812,1.368,2.953,1.479
					c2.145,0.112,1.852-1.595,4.479-0.69c2.631,0.896,3.613,0.278,3.17,1.714c-0.442,1.43-0.54,2.222-0.54,2.222L398.291,188.097
					L398.291,188.097z"/>
				<path fill="#996234" d="M395.777,188.163c0,0-0.146-3.74-0.246-4.707c-0.188-1.812,1.351-5.562,1.351-6.246
					c0-0.688,0.108-1.404,1.018-0.392c0.904,1.021,0.014,4.435-0.371,6.144c-0.388,1.707,0.721,3.787,0.764,4.337
					c0.041,0.549-1.096-0.242-1.096-0.242L395.777,188.163z"/>
				<path fill="#996234" d="M407.522,188.399c0,0,1.175-3.977,1.273-4.939c0.188-1.812-1.35-5.562-1.35-6.246
					c0-0.688-0.11-1.404-1.019-0.392c-0.907,1.021-0.016,4.435,0.371,6.144c0.387,1.707-1.477,3.615-1.518,4.164
					c-0.043,0.55,1.849-0.069,1.849-0.069L407.522,188.399z"/>
				<path fill="#8BC7E8" d="M394.119,188.163c0,0,0.701,4.626,3.564,5.562c2.865,0.938,3.856,1.264,6.43,0.15
					c2.572-1.114,3.937-0.5,3.74-2.822c-0.193-2.321,1.36-3.521-0.865-3.888c-2.402-0.395-8.858-0.832-9.305-0.889
					C394.949,185.962,394.119,188.163,394.119,188.163z"/>
				<path fill="#301705" d="M401.105,193.728c0,0-2.602-0.256-2.212-2.4c0.392-2.144-0.751-2.928,1.085-3.6
					c1.837-0.671,2.75-2.462,3.561-0.671c0.81,1.79,1.395,2.741,0.81,3.999c-0.584,1.261-0.461,1.567-1.205,2.365
					C402.402,194.219,401.105,193.728,401.105,193.728z"/>
			</g>
		</g>
	</g>
</g>
</svg>
