<?xml version="1.0" encoding="utf-8"?>
<!-- Generator: Adobe Illustrator 16.0.0, SVG Export Plug-In . SVG Version: 6.00 Build 0)  -->
<!DOCTYPE svg PUBLIC "-//W3C//DTD SVG 1.1//EN" "http://www.w3.org/Graphics/SVG/1.1/DTD/svg11.dtd">
<svg version="1.1" id="Capa_2" xmlns="http://www.w3.org/2000/svg" xmlns:xlink="http://www.w3.org/1999/xlink" x="0px" y="0px"
	 width="800px" height="800px" viewBox="0 0 800 800" enable-background="new 0 0 800 800" xml:space="preserve">
<g id="Caixa_2_">
	<path fill="#C4C4C4" d="M179,518.32v-75.477l103.464-279.932c0,0,213.21-89.848,227.412-86.772
		c15.109,3.274,128.619,73.161,136.484,119.136c9.073-2.419,13.312,7.258,16.94,17.543l78.574,749.501l-271.051,111.297L179,518.32z
		"/>
	<polygon fill="#DDDDDD" points="432.067,575.777 513.279,237.997 278.263,159.282 179.356,442.844 	"/>
	<path fill="#EAEAEA" d="M513.279,237.997c0,0,58.038-148.667-8.043-163.2s-94.895-20.575-94.895-20.575
		s-61.319-26.06-132.079,105.059L513.279,237.997z"/>
	<polygon fill="#CECECE" points="427.862,1138.214 431.801,575.777 179,442.844 179,991.227 	"/>
</g>
<path display="none" fill="#D8D8D8" d="M267.704,670.609c0,0-0.083-0.14-0.226-0.39c-1.465-2.59-9.223-17.086,4.158-11.707
	l19.509,12.097c0,0,6.048,5.445,3.478,8.621c-2.571,3.175-4.538,3.478-7.108,2.57c-2.571-0.907,2.57,8.771-2.874,11.493
	c-5.445,2.723-4.537,0.908-3.479,5.295c1.06,4.387,1.514,22.079,0.908,22.382c-0.605,0.303,13.005,6.049,9.829,17.24
	c-3.175,11.192-10.585,2.572-14.215,0.606c-3.629-1.968-3.933-0.238-4.234,5.022c-0.303,5.26,4.234,12.217-1.362,12.672
	c-5.595,0.453-6.804-3.479-9.829-4.388c-3.025-0.907-6.957-3.933-4.537-8.015c2.419-4.084,5.142-3.782,4.99-9.679
	c-0.151-5.897-7.865-11.493-6.503-17.694c1.362-6.201-0.907-7.261,4.084-8.923c4.99-1.663,5.747-3.78,5.747-4.235
	c0-0.452-3.025-3.177-0.757-8.016c2.269-4.837,5.293-1.058,3.479-7.863c-1.815-6.806-3.208-6.997-1.528-11.438
	C268.914,671.819,267.704,670.609,267.704,670.609z"/>
<g id="Indicadors_2_">
	<path fill="#282828" d="M495.539,103.137c-17.86-8.656-41.243,2.704-52.229,25.37c-10.984,22.668-5.412,48.06,12.449,56.715
		c17.858,8.655,41.242-2.705,52.229-25.371C518.974,137.185,513.399,111.792,495.539,103.137z M488.88,113.7
		c13.146,6.369,17.247,25.059,9.16,41.741c-8.084,16.684-25.293,25.044-38.438,18.675c-13.145-6.373-15.878-24.788-7.793-41.47
		C459.894,115.962,475.733,107.329,488.88,113.7z"/>
	<path fill="#282828" d="M404.08,73.646c-17.861-8.655-41.243,2.705-52.228,25.371c-10.985,22.668-5.413,48.059,12.448,56.715
		c17.859,8.656,41.242-2.704,52.228-25.371C427.514,107.694,421.94,82.302,404.08,73.646z M397.42,84.209
		c13.147,6.369,17.25,25.059,9.162,41.741c-8.084,16.683-25.294,25.044-38.439,18.674c-13.146-6.372-15.878-24.787-7.792-41.469
		C368.436,86.472,384.276,77.838,397.42,84.209z"/>
</g>
<g id="Palanca_2_">
	<path fill="#D1D1D1" d="M610.562,342.003c-16.073-3.222-27.389,5.046-38.777,20.373c0,0-10.062,18.192-33.456,14.1l-2.641,21.146
		c0,0,110.939,16.91,112.196,13.299c5.853-29.194,9.849-52.871-8.488-63.146C636.376,346.08,614.018,342.694,610.562,342.003z"/>
	<path fill="#686868" d="M588.57,464.487c-16.155-2.764-23.749-14.545-28.873-32.938c0,0-2.858-20.593-26.162-25.175l5.133-20.687
		c0,0,109.609,24.066,109.484,27.887c-5.023,29.35-13.226,53.376-34.029,56.38C610.694,470.448,592.044,465.085,588.57,464.487z"/>
	<path fill="#848484" d="M634.558,346.406c-16.069-3.222-32.785,6.654-44.176,21.982c0,0-10.062,18.19-33.453,14.1l-3.79,30.362
		c0,0,17.126,0.764,26.162,24.833c0.42,1.394,2.693,7.72,3.258,8.469c5.814,12.354,15.345,21.161,27.327,23.564
		c24.444,4.901,49.783-18.78,56.597-52.782C673.298,382.932,659.003,351.305,634.558,346.406z"/>
	<path fill="#3A3A3A" d="M427.074,358.188c0,0-10.348,34.03-11.01,34.304c-0.667,0.273,132.184,21.393,135.348,21.99
		c5.296,1.003,6.137-3.374,6.137-3.374s6.964-26.028,5.941-29.068c-0.616-1.835-20.164-5.717-20.844-5.67
		c-0.678,0.045-67.148-12.077-67.148-12.077"/>
	<path fill="#2B2B2B" d="M427.074,358.188c0,0,5.814,5.23,16.549,6.757c0.71,0.1,119.867,17.095,119.867,17.095s1.022,3.04,0,0
		c-0.616-1.835-19.33-8.254-19.33-8.254c-0.676,0.046-68.662-9.493-68.662-9.493"/>
	<path fill="#353535" d="M655.69,414.26c4.941-24.647-5.418-47.51-23.141-51.062c-17.725-3.554-36.095,13.55-41.038,38.2
		c-4.942,24.65,5.42,47.511,23.141,51.064C632.377,456.015,650.749,438.913,655.69,414.26z"/>
	<path fill="#212121" d="M491.674,384.563l-64.6-26.375c-9.5-2.178-19.097,4.338-21.438,14.551
		c-2.34,10.215,3.462,20.26,12.961,22.437l64.602,26.376c9.499,2.179,19.098-4.339,21.435-14.554
		C506.975,396.786,501.171,386.74,491.674,384.563z"/>
	
		<ellipse transform="matrix(0.9748 0.2233 -0.2233 0.9748 102.2986 -98.6576)" fill="#353535" cx="487.434" cy="403.058" rx="15.076" ry="16.211"/>
</g>
<g id="Kill_Coard">
	<polygon fill="#0F0F0F" points="390.714,407.621 385.947,406.031 384.954,408.514 370.371,410.77 362.938,430.058 375.851,446.197 
		396.196,443.051 403.627,423.764 	"/>
	<polygon fill="#303030" points="371.084,444.607 358.171,428.467 365.604,409.18 385.947,406.031 398.86,422.172 391.43,441.461 	
		"/>
	<g id="Cordó">
		<path fill="none" stroke="#FF0000" stroke-width="4" stroke-linecap="round" stroke-miterlimit="10" d="M326.518,789.672
			c0,8.532,27.467,11.951,27.445,4.257c-0.021-7.673-26.835-7.608-27.445,4.885c-0.609,12.493,26.51,12.798,27.424,5.18
			c0.804-6.696-27.139-10.124-27.424,6.095"/>
		<path fill="none" stroke="#FF0000" stroke-width="4" stroke-linecap="round" stroke-miterlimit="10" d="M326.518,828.675
			c0,8.532,28.664,10.894,28.643,3.199c-0.012-4.016-28.211-4.124-28.643,4.724c-0.609,12.492,26.531,10.361,27.445,2.743
			s-20.539-14.729-20.843,2.64"/>
		<path fill="none" stroke="#FF0000" stroke-width="4" stroke-linecap="round" stroke-miterlimit="10" d="M326.518,809.174
			c0,8.531,28.664,13.331,28.643,5.637c-0.018-6.453-26.874-7.773-27.423,3.504c-0.609,12.493,26.509,12.798,27.423,5.181
			c0.804-6.696-28.358-10.125-28.643,6.094"/>
		<path fill="none" stroke="#FF0000" stroke-width="4" stroke-linecap="round" stroke-miterlimit="10" d="M325.299,654.382
			c0,8.532,28.664,14.55,28.643,6.856c-0.021-7.673-28.033-4.114-28.643,8.379s27.729,14.017,28.643,6.399
			c0.914-7.618-28.338-10.056-28.643,7.312"/>
		<path fill="none" stroke="#FF0000" stroke-width="4" stroke-linecap="round" stroke-miterlimit="10" d="M325.299,621.474
			c0,8.532,28.664,14.55,28.643,6.855c-0.021-7.672-28.033-4.113-28.643,8.38s27.729,14.017,28.643,6.398
			c0.914-7.617-28.338-5.18-28.643,12.188"/>
		<path fill="none" stroke="#FF0000" stroke-width="4" stroke-linecap="round" stroke-miterlimit="10" d="M325.299,588.565
			c0,8.531,28.664,14.55,28.643,6.855c-0.021-7.672-28.033-4.113-28.643,8.38s27.729,14.017,28.643,6.398
			c0.914-7.617-28.338-5.18-28.643,12.188"/>
		<path fill="none" stroke="#FF0000" stroke-width="4" stroke-linecap="round" stroke-miterlimit="10" d="M327.831,552.587
			c0,8.532,26.132,17.62,26.111,9.926c-0.021-7.673-28.033-4.113-28.643,8.38c-0.609,12.492,27.729,14.016,28.643,6.398
			c0.914-7.618-28.338-5.18-28.643,12.188"/>
		<path fill="none" stroke="#FF0000" stroke-width="4" stroke-linecap="round" stroke-miterlimit="10" d="M325.299,764.077
			c0,8.531,28.664,14.55,28.643,6.855c-0.021-7.672-28.033-7.77-28.643,4.723c-0.609,12.493,27.729,14.017,28.643,6.399
			c0.914-7.618-27.284-10.329-27.589,7.039"/>
		<path fill="none" stroke="#FF0000" stroke-width="4" stroke-linecap="round" stroke-miterlimit="10" d="M325.299,738.481
			c0,8.532,28.664,14.55,28.643,6.855c-0.021-7.672-28.033-7.77-28.643,4.724s27.729,14.017,28.643,6.398
			c0.914-7.617-28.338-8.836-28.643,8.532"/>
		<path fill="none" stroke="#FF0000" stroke-width="4" stroke-linecap="round" stroke-miterlimit="10" d="M325.299,712.886
			c0,8.532,28.664,14.55,28.643,6.856c-0.021-7.673-28.033-7.771-28.643,4.723s27.729,14.017,28.643,6.398
			c0.914-7.617-28.338-8.836-28.643,8.532"/>
		<path fill="none" stroke="#FF0000" stroke-width="4" stroke-linecap="round" stroke-miterlimit="10" d="M325.29,682.263
			c0,8.532,28.673,15.921,28.652,8.228c-0.021-7.673-28.033-4.114-28.643,8.379s27.729,14.017,28.643,6.399
			c0.914-7.618-28.338-8.837-28.643,8.531"/>
		<g>
			<path d="M363.604,420.641c-0.402,1.174-0.604,2.314-0.604,3.693v-0.002l-0.125,0.098c-0.072,0.728-0.183,1.167-0.167,1.9
				L361.797,448h-0.004c-0.356,4,1.568,8.18,4.939,10.053c3.396,1.889,7.127,1.038,9.031-1.993l11.965-15.511
				c0.477-0.523,0.957-1.494,1.357-2.113l0.068-0.436h-0.003c0.67-1,1.071-1.617,1.472-2.79c2.307-6.729-0.101-14.567-5.125-19.427
				l-2.323,6.866c1.227,2.11,1.459,4.628,0.706,6.829c-0.755,2.2-2.435,3.633-4.373,3.992l-2.626,7.507
				c-0.778,1.99-2.886,2.792-4.787,1.736c-1.9-1.057-3.234-3.646-2.632-5.685l2.633-7.533c-1.229-2.107-1.448-4.605-0.683-6.842
				c0.767-2.238,2.425-3.674,4.478-3.969l2.354-6.711C372.06,410.51,365.918,413.882,363.604,420.641z M370.711,446.77
				c1.953,1.082,2.949,3.675,2.225,5.787c-0.723,2.112-2.892,2.944-4.845,1.859c-1.952-1.084-2.948-3.676-2.225-5.788
				C366.591,446.517,368.76,445.685,370.711,446.77z"/>
		</g>
		<path fill="none" stroke="#FF0000" stroke-width="4" stroke-linecap="round" stroke-miterlimit="10" d="M327.831,552.587
			c4.332-15.965,29.799-9.235,27.177-2.415c-2.62,6.82-30.193-1.948-26.716-13.34c3.477-11.393,29.828-4.919,28.058,2.169
			c-1.775,7.11-23.782-7.376-21.792-15.253c0,0-0.373-5.569,9.375-9.053c6.643-2.374,8.838-12.467,8.759-14.026
			c-0.08-1.56,5.356-51.896,14.049-50.136c11.794,2.389-7.275,22.386-8.502,34.736c-0.18,1.71-2.37,18.509-2.37,18.509"/>
		<path fill="#F4F4F4" d="M361.137,496.658c-0.042,0.759-0.525,1.348-1.081,1.317l-9.132-0.5c-0.555-0.031-0.97-0.67-0.928-1.429
			l0.611-11.166c0.042-0.759,0.525-1.349,1.08-1.318l9.132,0.5c0.556,0.031,0.971,0.67,0.93,1.43L361.137,496.658z"/>
	</g>
	<g id="Botó">
		<path fill="#C41A1A" d="M380,419.488v-0.005l0.288-0.038c-0.148-0.062-0.093-0.126-0.249-0.176
			c-0.088-0.029-0.079-0.046-0.166-0.07L373.536,417l-1.499,5.17c-0.577,0.768-1.038,1.646-1.358,2.625
			c-0.38,1.161-0.5,2.337-0.416,3.462l-1.323,4.498l5.769,1.975c0.14,0.056,0.276,0.115,0.421,0.163
			c0.087,0.029,0.177,0.047,0.265,0.071l0.11,0.037l0.003-0.007c3.761,0.99,7.404-1.451,8.769-5.627
			C385.617,425.268,384,420.988,380,419.488z"/>
		
			<ellipse transform="matrix(0.9505 0.3108 -0.3108 0.9505 150.469 -94.4158)" fill="#E81C1C" cx="371.498" cy="424.943" rx="7.357" ry="8.219"/>
	</g>
</g>
<g id="Fuel">
	<path fill="#F9F9F9" d="M491.436,111.468c-15.174-7.505-34.527,1.121-43.227,19.268c-8.701,18.146-3.455,38.94,11.72,46.445
		c15.174,7.506,34.528-1.122,43.229-19.268C511.858,139.767,506.608,118.973,491.436,111.468z"/>
	<polygon fill="#232323" points="481.744,128.343 479.536,127.539 482.697,118.577 484.905,119.381 	"/>
	<polygon fill="#232323" points="492.806,142.922 492.326,141.018 499.679,137.483 500.157,139.388 	"/>
	<polygon fill="#232323" points="461.579,131.55 463.141,130.389 459.672,122.915 458.111,124.076 	"/>
	<polygon fill="#232323" points="470.593,124.881 471.879,124.66 471.761,118.086 470.472,118.308 	"/>
	<polygon fill="#232323" points="489.939,131.926 489.082,130.924 493.284,125.925 494.141,126.928 	"/>
	
		<text transform="matrix(0.7626 0.2777 -0.3327 0.943 451.7588 147.3428)" fill="#232323" font-family="'MyriadPro-Bold'" font-size="6.9242">FUEL</text>
	
		<text transform="matrix(0.7626 0.2777 -0.3327 0.943 460.0029 137.2295)" fill="#232323" font-family="'MyriadPro-Bold'" font-size="7.227">E</text>
	
		<text transform="matrix(0.7626 0.2777 -0.3327 0.943 487.5557 147.2627)" fill="#232323" font-family="'MyriadPro-Bold'" font-size="7.227">F</text>
	
		<text transform="matrix(1.1209 0.4082 -0.3327 0.943 477.2031 133.6128)" fill="#232323" font-family="'MyriadPro-Bold'" font-size="7.227">/</text>
	
		<text transform="matrix(0.7626 0.2777 -0.3327 0.943 477.1074 131.1694)" fill="#1E1E1E" font-family="'MyriadPro-Bold'" font-size="4.3217">1</text>
	
		<text transform="matrix(0.7626 0.2777 -0.3327 0.943 479.1973 134.7051)" fill="#232323" font-family="'MyriadPro-Bold'" font-size="4.3217">2</text>
	<path d="M490.05,156.292c-0.054-0.109-0.435-1.037-0.698-0.993c-0.264,0.044,0.137,0.839,0.19,1.037
		c0.055,0.199,0.192,0.07-0.172,0.842c-0.366,0.77-0.599,2.073-0.587,2.357c0.015,0.285,0.004,1.657-0.85,1.192
		c-0.855-0.464-0.167-1.002,0.249-2.29c0.312-0.974-0.347-1.457-0.329-1.504l0.733-2.079l-3.312-1.207l-1.976,5.602l-1.104-0.402
		l-0.396,1.12l4.416,1.608l0.484-1.375l0,0l0.989-2.805c-0.031,0.09,0.253,0.38,0.273,0.59c0.051,0.503-0.522,0.817-0.727,1.837
		c-0.205,1.02,0.578,1.547,1.278,1.37c0.702-0.178,0.659-1.644,0.692-2.053c0.03-0.41,0.335-1.417,0.454-1.578
		c0.118-0.161,0.474-0.069,0.617-0.208C490.42,157.215,490.105,156.401,490.05,156.292z M487.797,157.096l-3.312-1.206l0.79-2.241
		l3.312,1.207L487.797,157.096z"/>
	<path fill="#1E1E1E" d="M489.419,102.345c-18.166-6.615-39.316,6.232-47.24,28.693c-7.924,22.462,0.378,46.034,18.543,52.649
		c18.166,6.616,39.317-6.232,47.24-28.694C515.887,132.532,507.585,108.96,489.419,102.345z M463.482,175.867
		c-14.673-5.343-21.379-24.381-14.978-42.525c6.4-18.142,23.482-28.518,38.154-23.175s21.378,24.381,14.977,42.524
		C495.236,170.833,478.153,181.209,463.482,175.867z"/>
	<path fill="#3D3D3D" d="M489.419,102.345c-18.166-6.615-39.316,6.232-47.24,28.693c-7.924,22.462,0.378,46.034,18.543,52.649
		c18.166,6.616,39.317-6.232,47.24-28.694C515.887,132.532,507.585,108.96,489.419,102.345z M461.74,180.801
		c-16.874-6.146-24.588-28.044-17.228-48.912c7.363-20.868,27.011-32.802,43.888-26.657c16.875,6.146,24.588,28.044,17.228,48.911
		C498.265,175.011,478.617,186.946,461.74,180.801z"/>
	<path fill="#EA2424" d="M468.615,146.667c0.005-0.075-7.134-23.145-7.134-23.145l1.19-0.687l8.172,22.53L468.615,146.667z"/>
	<path fill="#1E1E1E" d="M465.812,149.964c-1.455,4.121,0.067,8.444,3.401,9.658c3.332,1.213,7.212-1.144,8.665-5.265
		c1.454-4.119-0.07-8.443-3.401-9.657C471.145,143.487,467.264,145.845,465.812,149.964z"/>
</g>
<g id="Water">
	
		<ellipse transform="matrix(0.4601 -0.8879 0.8879 0.4601 103.1382 403.492)" fill="#F9F9F9" cx="383.321" cy="116.946" rx="37.43" ry="31.759"/>
	<text transform="matrix(0.7524 0.2626 -0.3295 0.9442 359.3647 117.7246)" font-family="'MyriadPro-Bold'" font-size="6.9246">ºC</text>
	<text transform="matrix(0.7524 0.2626 -0.3295 0.9442 369.8867 104.0127)" font-family="'MyriadPro-Bold'" font-size="6.9246">40</text>
	<text transform="matrix(0.7524 0.2626 -0.3295 0.9442 381.9946 101.1074)" font-family="'MyriadPro-Bold'" font-size="6.9246">80</text>
	<text transform="matrix(0.7524 0.2626 -0.3295 0.9442 389.627 104.5176)" font-family="'MyriadPro-Bold'" font-size="6.9246">100</text>
	<text transform="matrix(0.7524 0.2626 -0.3295 0.9442 393.2979 112.917)" font-family="'MyriadPro-Bold'" font-size="6.9246">120</text>
	<polygon points="387.691,95.127 385.875,94.798 387.441,88.269 389.26,88.599 	"/>
	<polygon points="397.955,100.918 396.645,99.52 400.643,94.334 401.95,95.731 	"/>
	<polygon points="403.398,110.363 402.732,108.378 407.911,105.215 408.575,107.201 	"/>
	<polygon points="378.113,95.248 376.237,95.895 375.417,89.574 377.292,88.926 	"/>
	<polygon points="372.267,97.739 370.514,98.884 368.415,93.192 370.171,92.049 	"/>
	<polygon points="393.438,95.732 392.466,95.275 394.566,90.323 395.537,90.779 	"/>
	<polygon points="382,93.245 380.896,93.399 381,88.16 382.106,88.003 	"/>
	<polygon points="402.251,104.932 401.707,103.886 405.558,100.666 406.104,101.71 	"/>
	<g>
		<path fill="none" stroke="#111111" stroke-width="2" stroke-linecap="round" stroke-miterlimit="10" d="M393.104,130.062
			c0,0-0.04,0.582,0.43,0.711c0.469,0.13,0.852-0.5,1.365-0.304s0.377,0.897,0.901,1.096c0.527,0.202,0.826-0.391,1.407-0.189
			c0.578,0.203,0.457,0.858,1.006,1.032c0.549,0.174,0.912-0.447,1.52-0.252c0.609,0.196,0.444,0.94,0.929,1.107
			c0.483,0.167,0.631-0.256,0.631-0.256"/>
		<polyline fill="none" stroke="#111111" stroke-width="4" stroke-linecap="round" stroke-miterlimit="10" points="400.984,125.316 
			401.02,125.219 399.379,129.919 		"/>
		
			<line fill="none" stroke="#111111" stroke-width="2" stroke-linecap="round" stroke-miterlimit="10" x1="400.76" y1="125.112" x2="399.584" y2="124.718"/>
		
			<line fill="none" stroke="#111111" stroke-width="2" stroke-linecap="round" stroke-miterlimit="10" x1="400.314" y1="126.383" x2="399.141" y2="125.991"/>
		
			<line fill="none" stroke="#111111" stroke-width="2" stroke-linecap="round" stroke-miterlimit="10" x1="399.872" y1="127.655" x2="398.697" y2="127.262"/>
		
			<ellipse transform="matrix(-0.9442 -0.3294 0.3294 -0.9442 731.2016 382.41)" fill="#161616" cx="397.998" cy="129.26" rx="0.626" ry="0.784"/>
		<path fill="none" stroke="#1E1E1E" stroke-width="2" stroke-linecap="round" stroke-miterlimit="10" d="M393.748,128.217
			c0,0,0.775-0.663,1.312-0.458c0.536,0.205,0.619,1.132,0.619,1.132"/>
		<path fill="none" stroke="#1E1E1E" stroke-width="2" stroke-linecap="round" stroke-miterlimit="10" d="M399.826,130.338
			c0,0,0.771-0.664,1.311-0.459c0.536,0.206,0.621,1.132,0.621,1.132"/>
	</g>
	<path fill="#1E1E1E" d="M397.975,73.499c-18.009-6.285-39.004,6.941-46.891,29.542c-7.887,22.6,0.32,46.018,18.329,52.303
		c18.012,6.285,39.006-6.941,46.894-29.541C424.192,103.201,415.986,79.784,397.975,73.499z M372.16,147.473
		c-14.547-5.076-21.175-23.991-14.805-42.244c6.37-18.255,23.328-28.937,37.876-23.862c14.545,5.078,21.176,23.992,14.805,42.247
		C403.665,141.867,386.707,152.55,372.16,147.473z"/>
	<path fill="#3D3D3D" d="M397.975,73.499c-18.009-6.285-39.004,6.941-46.891,29.542c-7.887,22.6,0.32,46.018,18.329,52.303
		c18.012,6.285,39.006-6.941,46.894-29.541C424.192,103.201,415.986,79.784,397.975,73.499z M370.428,152.437
		c-16.732-5.839-24.357-27.592-17.03-48.588c7.328-20.996,26.832-33.283,43.564-27.444c16.732,5.839,24.356,27.593,17.028,48.59
		C406.664,145.989,387.16,158.277,370.428,152.437z"/>
	<path fill="#EA2424" d="M377.287,118.187c0.005-0.075-7.047-23.011-7.047-23.011l1.18-0.708l8.083,22.379L377.287,118.187z"/>
	
		<ellipse transform="matrix(-0.9441 -0.3295 0.3295 -0.9441 698.9768 365.7234)" fill="#1E1E1E" cx="380.484" cy="123.623" rx="6.336" ry="7.95"/>
</g>
<g id="Timó_2_">
	
		<rect x="181.199" y="330.184" transform="matrix(0.8873 -0.4611 0.4611 0.8873 -128.314 144.2859)" fill="#999999" width="99.813" height="9.073"/>
	
		<rect x="248.346" y="361.037" transform="matrix(0.294 -0.9558 0.9558 0.294 -138.845 543.1818)" fill="#999999" width="99.813" height="9.075"/>
	
		<rect x="197.53" y="224.924" transform="matrix(0.7826 0.6225 -0.6225 0.7826 196.6284 -104.1488)" fill="#999999" width="99.812" height="9.074"/>
	
		<rect x="264.679" y="199.517" transform="matrix(0.0858 0.9963 -0.9963 0.0858 490.8831 -126.8853)" fill="#999999" width="99.813" height="9.074"/>
	<path fill="#3F3F3F" stroke="#000000" stroke-miterlimit="10" d="M375.685,229.463c52.312,10.661,37.204,146.697-26.012,133.992
		C286.457,350.753,311.864,216.457,375.685,229.463z"/>
	<path fill="#191919" stroke="#000000" stroke-miterlimit="10" d="M264.377,322.321c-30.549-4.839-18.753-88.019,14.519-82.876
		c33.271,5.143,29.944,3.629,52.326,7.259c22.382,3.63,20.871,89.229-12.401,84.993
		C285.549,327.461,264.377,322.321,264.377,322.321z"/>
	<path fill="#333333" stroke="#000000" stroke-miterlimit="10" d="M279.424,240.806c33.271,5.142,20.701,84.766-12.571,80.531
		C233.582,317.102,246.153,235.664,279.424,240.806z"/>
	<path fill="#999999" d="M334.111,280.23c0,0-6.287-0.354-5.897,4.938c0.353,4.784,5.284,4.544,5.284,4.544l1.436,0.109
		l42.163-1.292l0.064-9.317L334.111,280.23z"/>
	<path fill="#141414" stroke="#000000" stroke-miterlimit="10" d="M295.228,84.884c-176.64-12.402-211.636,357.061-65.938,385.645
		C396.251,500.776,469.218,120.535,295.228,84.884z M351.488,291.771c-3.63,76.523-58.376,124.918-58.376,124.918
		s4.234-12.099-3.328-13.006c-6.352,3.326-8.772-0.906-8.772-0.906c-13.308-1.211-11.796,40.832-36.598,37.202
		c-48.75-7.134-58.375-52.024-57.166-60.493c1.209-8.469,14.367-15.879,17.542-19.055c3.176-3.176,4.235-6.05,0-6.05
		s-4.234-7.562-4.234-7.562c0.606-6.654-18.753,3.327-18.753,3.327c-2.722-0.907-5.417,3.972-9.679-6.956
		c-15.721-40.318,10.586-128.548,12.1-132.48c1.512-3.932,4.537-13.007,16.937-4.537c12.401,8.469,14.217,3.931,14.217,3.931
		c-1.209-5.444,4.839-8.166,4.839-8.166c0.907-5.748-19.497-17.374-15.124-27.525c28.433-64.122,80.154-54.443,80.154-54.443
		c21.475,8.771,6.05,38.412,27.523,39.32c12.395,0.523,10.285-19.358,10.285-19.358c41.136,41.438,33.271,132.177,30.852,135.203
		S348.765,286.025,351.488,291.771z"/>
</g>
<g>
	<path fill="#212121" d="M446.541,428.187l0.004-0.006l-0.117-0.059c-0.517-0.284-1.046-0.55-1.594-0.792l-5.148-2.564l-0.478,0.93
		c-10.16-1.477-20.589,4.536-24.776,15.034c-3.568,8.944-1.605,18.646,4.244,24.986l-0.593,1.152l5.76,2.946
		c0.542,0.309,1.322,0.616,1.9,0.879L426,470.73v-0.003c0,0.108,0.367,0.244,0.672,0.365c11.493,4.584,24.635-1.579,29.491-13.754
		C460.65,446.09,456.281,433.631,446.541,428.187z"/>
	
		<ellipse transform="matrix(0.9288 0.3705 -0.3705 0.9288 196.041 -127.6254)" fill="#2B2B2B" cx="430.271" cy="446.546" rx="22.404" ry="23.732"/>
	<g id="Clau_2_">
		<polygon fill="#898989" points="433.857,443.205 415.005,436.201 412.113,443.555 430.967,450.559 		"/>
		<path fill="#E8E8E8" d="M415.988,421.854c0,0-0.75-0.021-2.85-0.845c-4.661-1.832-5.691,1.262-5.691,1.262l-10,26.025
			c-1.746,4.547,0.541,6.302,5.59,8.261c1.105,0.429,2.286-16.794,2.286-16.794C410.72,425.719,415.988,421.854,415.988,421.854z
			 M422.66,425.645"/>
		<path fill="#C9C9C9" d="M424.625,440.498c0.366-1.088,1.226-0.742,2.572-8.145c1.347-7.403-2.282-7.682-2.282-7.682
			s-9.273-2.382-11.354-3.244c-2.085-0.863-3.16,2.307-3.16,2.307l-9.999,26.029c-1.747,4.547,0.47,5.694,0.47,5.694
			s5.289,2.935,10.383,4.767c5.098,1.832,7.217-4.612,7.217-4.612S424.115,442.001,424.625,440.498z M410.409,442.333
			c-1.675,0.603-3.015-0.622-2.995-2.734c0.02-2.111,1.395-4.312,3.065-4.915c1.675-0.601,3.018,0.623,2.996,2.734
			C413.457,439.529,412.083,441.73,410.409,442.333z"/>
		<path fill="#E8E8E8" d="M412.463,437.93c-0.344,1.973-1.881,3.675-3.434,3.801c-0.742,0.061-1.194-0.645-1.596-1.198
			c0.373,1.038,1.056,2.069,2.15,1.98c1.729-0.141,3.437-2.03,3.816-4.224c0.38-2.191-0.712-3.855-2.439-3.716
			c-0.07,0.007-0.141,0.02-0.213,0.031C412.016,434.793,412.768,436.171,412.463,437.93z"/>
		<path fill="#707070" d="M427.521,431.916c1.347-7.404-2.603-7.538-2.603-7.538s-9.272-2.381-11.357-3.245
			c-2.082-0.863-3.158,2.31-3.158,2.31l-9.998,26.026c-1.746,4.548-0.055,6.032-0.055,6.032s5.662,3.239,10.758,5.071
			c5.095,1.832,7.832-5.31,7.832-5.31S426.174,439.319,427.521,431.916z M418.641,453.721c0,0-2.462,6.427-7.047,4.777
			c-4.585-1.647-9.68-4.563-9.68-4.563s-1.521-1.336,0.049-5.427l8.998-23.42c0,0,0.967-2.855,2.843-2.076
			c1.872,0.775,10.218,2.918,10.218,2.918s3.553,0.121,2.342,6.783C425.153,439.375,418.641,453.721,418.641,453.721z"/>
	</g>
</g>
</svg>
