<?xml version="1.0" encoding="utf-8"?>
<!-- Generator: Adobe Illustrator 16.0.0, SVG Export Plug-In . SVG Version: 6.00 Build 0)  -->
<!DOCTYPE svg PUBLIC "-//W3C//DTD SVG 1.1//EN" "http://www.w3.org/Graphics/SVG/1.1/DTD/svg11.dtd">
<svg version="1.1" id="Capa_1" xmlns="http://www.w3.org/2000/svg" xmlns:xlink="http://www.w3.org/1999/xlink" x="0px" y="0px"
	 width="800px" height="800px" viewBox="0 0 800 800" enable-background="new 0 0 800 800" xml:space="preserve">
<g id="Anclar">
	<g id="Costa">
		<g id="fons">
			<path fill="#EFDE95" d="M-21,831c16.303-5.379,739.469,48.049,876,3L796.066-69.859L-28-22L-21,831z"/>
			<g>
				
					<radialGradient id="SVGID_1_" cx="-229.0933" cy="-137.6465" r="980.0138" gradientTransform="matrix(0.9496 -0.3133 -0.3133 -0.9496 420.107 858.3085)" gradientUnits="userSpaceOnUse">
					<stop  offset="0" style="stop-color:#42C9CC"/>
					<stop  offset="0.646" style="stop-color:#42C9CC"/>
					<stop  offset="0.7523" style="stop-color:#42C9CC"/>
					<stop  offset="0.9693" style="stop-color:#42C9CC;stop-opacity:0.3868"/>
					<stop  offset="1" style="stop-color:#42C9CC;stop-opacity:0.3"/>
				</radialGradient>
				
					<radialGradient id="SVGID_2_" cx="309.6123" cy="357.6504" r="396.2683" gradientTransform="matrix(1 0 0 -1 94 805)" gradientUnits="userSpaceOnUse">
					<stop  offset="0" style="stop-color:#42C9CC"/>
					<stop  offset="0.646" style="stop-color:#42C9CC"/>
					<stop  offset="0.7523" style="stop-color:#42C9CC"/>
					<stop  offset="0.9693" style="stop-color:#42C9CC;stop-opacity:0.3868"/>
					<stop  offset="1" style="stop-color:#42C9CC;stop-opacity:0.3"/>
				</radialGradient>
				<path fill="url(#SVGID_1_)" stroke="url(#SVGID_2_)" stroke-miterlimit="10" d="M810.326,199.579
					c-2.465-5.524-6.689-8.617-8.607-10.547c-1.92-1.93-10.572-4.845-12.295-8.122c-1.723-3.277-6.441-12.918-8.014-13.211
					c-1.57-0.292-1.369-3.565-8.299-3.201c-6.931,0.364-11.162-0.803-13.851-3.121c-2.687-2.317,0.771,0.388-2.687-2.317
					c-3.458-2.706-8.274-5.652-13.27-7.186c-4.991-1.533-5.226-2.238-9.821-2.574c-4.598-0.335-7.271-2.612-10.837-3.702
					c-3.563-1.09-5.706-3.699-7.223-6.349c-1.515-2.649,1.355-3.662-4.797-2.882c-6.152,0.781-7.732,7.646-12.718,4.196
					s-8.209-3.506-11.497-5.707c-3.289-2.2-10.406-6.283-10.406-6.283s-4.229,0.776-6.917-1.542c-2.688-2.318-6.33-7.526-6.33-7.526
					s-1.537-0.774-3.652-1.359c-2.115-0.584-5.953-4.446-9.416-5.226c-3.462-0.781-9.803-4.458-13.074-4.66
					c-3.272-0.202-26.149-9.317-35.006-8.96c-8.854,0.358-15.964-3.706-25.966-6.816c-10-3.111-3.484,6.919-21.555-1.221
					c-18.068-8.14-32.156-6.67-32.156-6.67s-36.924-5.148-40.383-4.647c-3.461,0.5-16.736-0.888-16.736-0.888
					s-11.55-0.035-22.329,0.317c-10.782,0.353-19.614-6.989-28.089-5.475c-8.475,1.515-10.916,1.038-22.024,4.703
					s-3.409,3.689-14.86,2.98s-15.49-1.299-19.919-1.119c-4.428,0.179-6.162,0.75-8.277,0.167s-7.89-0.601-10.971-0.226
					s-11.174,3.045-15.208,0.531c-4.035-2.515,0.979-4.81-7.884-2.526c-8.861,2.284-11.197,4.976-16.766,3.61
					c-5.569-1.368-5.505-2.03-12.077-3.066c-6.573-1.036-19.618-5.417-20.99-2.866c-1.37,2.551-13.693,4.054-17.931,4.811
					c-4.237,0.756-16.179,3.415-20.226,4.75c-4.047,1.335-20.81,6.866-23.694,5.896c-2.884-0.972-5.387-0.787-8.462-2.336
					c-3.075-1.548-11.796-0.594-11.796-0.594l-6.116,1.376l-35.855,7.984c0,0,2.701-1.532-10.665,0.314
					c-13.365,1.847-16.609,2.276-16.609,2.276l-14.103,3.371c0,0-5.214,0.752-8.476,1.511c-6.697,1.558-3.525-2.318-14.583,3.096
					c-12.767,6.251-17.191,5.468-23.354,6.219c-6.162,0.751-8.855,0.358-10.589,0.93c-1.734,0.572-15.138,2.275-17.92,5.913
					c-2.781,3.638-17.642,3.578-17.642,3.578l-16.864,7.428L-13.095,814l833.418,7V199.767
					C814.703,204.198,812.208,203.797,810.326,199.579z"/>
				
					<radialGradient id="SVGID_3_" cx="309.5908" cy="668.0918" r="299.3392" gradientTransform="matrix(1 0 0 -1 94 805)" gradientUnits="userSpaceOnUse">
					<stop  offset="0" style="stop-color:#42C9CC"/>
					<stop  offset="0.646" style="stop-color:#42C9CC"/>
					<stop  offset="0.7523" style="stop-color:#42C9CC"/>
					<stop  offset="0.9693" style="stop-color:#42C9CC;stop-opacity:0.3868"/>
					<stop  offset="1" style="stop-color:#42C9CC;stop-opacity:0.3"/>
				</radialGradient>
				<path fill="#FFFFFF" stroke="url(#SVGID_3_)" stroke-miterlimit="10" d="M810.025,183.806
					c-3.913-1.914-7.302-4.642-11.448-7.499c-4.148-2.857-9.962-9.793-14.203-13.904c-4.24-4.109-7.389-1.027-19.665-5.212
					c-12.278-4.184-18.087-12.075-27.079-14.072c-8.991-1.999-16.771-8.091-18.88-10.6c-2.111-2.509-19.554-11.445-32.301-12.418
					s-6.544-0.405-13.267-5.238c-4.939-3.553-16.149-6.208-22.307-7.382s-15.195-3.319-19.422-6.411
					c-4.226-3.092-18.461-5.447-29.236-7.019c-10.772-1.572-11.346-3.307-21.931-4.301c-10.583-0.995-18.079-4.29-18.079-4.29
					s-10.567-6.77-23.076-7.77s-29.26,0.682-31.682,0.839c-2.422,0.157-14.061,1.896-22.26-2.912
					c-8.2-4.808-18.682,2.397-23.761,2.023c-5.08-0.374-19.486-5.06-19.486-5.06s-22.903-1.417-29.355-5.425
					c-6.451-4.009-22.679,7.85-23.781,7.847c-1.104-0.003-10.958-4.348-10.958-4.348s-10.388-2.341-15.584-2.551
					s-20.369,7.647-23.522,7.761c-3.155,0.115-11.607,0.488-16.129-3.611c-4.522-4.1-10.175,4.868-15.77,5.203
					c-5.595,0.334-11.584-2.627-14.326-3.645c-2.742-1.019-14.386-0.38-19.422-1.924c-5.036-1.543-15.958,5.907-19.182,6.33
					c-3.224,0.422-8.326-0.458-10.853-2.288c-2.527-1.83-9.826,3.242-9.826,3.242s-15.246-0.638-24.237,4.251
					c-8.99,4.888-9.052,1.705-16.37,2.837c-6.866,1.062-16.364,0.912-18.294-0.374c-1.93-1.286-22.863,3.911-22.863,3.911
					L135.096,94.5c0,0-16.423,6.993-18.634,6.149c-2.211-0.845-9.397,3.101-9.397,3.101s-5.333-3.523-7.62-4.691
					c-2.289-1.168-9.07,1.711-13.562-0.423c-4.492-2.135-5.422,2.2-5.422,2.2l-3.876,2.561c0,0-4.827,4.797-12.696,4.26
					c-7.869-0.538-4.922,2.832-8.173,2.694s-9.684-0.204-9.684-0.204s-7.873,3.351-12.884,5.646
					c-5.012,2.295-4.12,5.496-8.683,2.852s-2.713-2.337-6.563-2.349c-3.85-0.012-4.102,3.223-13.634,4.445l-17.362,5.434
					l3.631,11.004l16.863-7.43c0,0,14.861,0.06,17.642-3.578c2.781-3.638,16.186-5.341,17.92-5.913
					c1.734-0.572,4.427-0.179,10.589-0.93c6.162-0.751,10.587,0.033,23.353-6.219c11.058-5.414,7.885-1.539,14.583-3.096
					c3.263-0.759,8.476-1.511,8.476-1.511l14.104-3.371c0,0,3.244-0.43,16.61-2.277c13.367-1.846,10.665-0.314,10.665-0.314
					l35.855-7.984l6.116-1.377c0,0,8.723-0.955,11.798,0.595c3.075,1.55,5.578,1.364,8.462,2.335
					c2.885,0.972,19.647-4.56,23.694-5.895c4.046-1.335,15.988-3.994,20.226-4.751c4.238-0.756,16.561-2.259,17.932-4.811
					c1.372-2.551,14.415,1.83,20.988,2.867c6.571,1.037,6.508,1.698,12.077,3.065c5.568,1.368,7.904-1.327,16.766-3.609
					c8.861-2.282,3.851,0.011,7.884,2.526c4.034,2.514,12.127-0.155,15.208-0.531c3.081-0.375,8.855-0.358,10.971,0.226
					s3.85,0.012,8.277-0.167c4.43-0.179,8.469,0.41,19.919,1.119s3.751,0.685,14.86-2.98c11.109-3.666,13.55-3.189,22.024-4.704
					c8.475-1.514,17.307,5.828,28.087,5.475c10.781-0.353,22.331-0.316,22.331-0.316s13.274,1.389,16.736,0.888
					c3.46-0.5,40.382,4.648,40.382,4.648s14.088-1.468,32.157,6.67c18.068,8.139,11.553-1.889,21.554,1.221
					c10.002,3.111,17.11,7.175,25.966,6.817c8.854-0.358,31.732,8.758,35.006,8.96c3.272,0.202,9.612,3.879,13.075,4.659
					c3.463,0.781,7.3,4.642,9.416,5.226c2.114,0.584,3.651,1.359,3.651,1.359s3.644,5.208,6.33,7.527
					c2.688,2.317,6.918,1.54,6.918,1.54s7.117,4.084,10.406,6.285c3.288,2.2,6.513,2.257,11.497,5.707
					c4.984,3.45,6.564-3.414,12.717-4.196c6.152-0.782,3.282,0.233,4.798,2.883c1.516,2.649,3.657,5.258,7.223,6.349
					c3.563,1.089,6.238,3.366,10.837,3.702c4.596,0.334,4.828,1.041,9.821,2.574c4.994,1.532,9.812,4.479,13.269,7.185
					s0,0,2.688,2.317c2.688,2.318,6.919,3.486,13.85,3.121c6.931-0.364,6.729,2.909,8.3,3.201c1.57,0.292,6.291,9.935,8.013,13.212
					c1.724,3.278,10.376,6.191,12.296,8.122c1.918,1.931,6.144,5.023,8.606,10.548c1.882,4.217,4.377,4.618,9.998,0.189
					l-6.354-19.25C812.211,184.585,810.771,184.17,810.025,183.806z"/>
			</g>
			<path id="spuma" opacity="0.8" fill="#FFFFFF" enable-background="new    " d="M4.268,120.74
				c9.532-1.222,9.785-4.456,13.634-4.445c3.85,0.011,2-0.295,6.563,2.349s3.67-0.558,8.683-2.852
				c5.012-2.294,12.884-5.646,12.884-5.646s6.433,0.067,9.684,0.205c3.251,0.137,0.304-3.232,8.173-2.695
				c7.869,0.537,12.696-4.259,12.696-4.259l3.876-2.562c0,0,0.929-4.335,5.421-2.2c4.493,2.134,11.274-0.745,13.562,0.423
				c2.288,1.168,7.621,4.69,7.621,4.69s7.187-3.945,9.397-3.1c2.21,0.844,18.634-6.149,18.634-6.149l16.375-4.703
				c0,0,20.933-5.197,22.863-3.911c1.93,1.287,11.429,1.438,18.294,0.375c7.318-1.133,7.378,2.05,16.37-2.837
				c8.991-4.888,24.237-4.251,24.237-4.251s7.299-5.072,9.826-3.242c2.527,1.831,7.628,2.711,10.853,2.288
				c3.223-0.423,14.146-7.872,19.182-6.33c5.036,1.543,16.68,0.907,19.422,1.925c2.742,1.018,8.732,3.979,14.327,3.645
				s11.245-9.302,15.769-5.203c4.522,4.099,12.974,3.727,16.129,3.612c3.155-0.114,18.327-7.972,23.522-7.761
				c5.197,0.21,15.584,2.551,15.584,2.551s9.855,4.344,10.958,4.348s17.33-11.856,23.782-7.847
				c6.451,4.009,29.353,5.426,29.353,5.426s14.408,4.687,19.488,5.06c5.08,0.372,15.56-6.83,23.76-2.023
				c8.2,4.807,19.838,3.069,22.261,2.912c2.421-0.158,19.172-1.839,31.682-0.839c12.508,1,23.074,7.77,23.074,7.77
				s7.496,3.295,18.081,4.291c10.584,0.995,11.155,2.729,21.93,4.302c10.774,1.572,25.012,3.926,29.236,7.018
				c4.227,3.091,13.267,5.238,19.423,6.411c6.155,1.173,17.365,3.83,22.307,7.382c6.722,4.833,0.519,4.265,13.267,5.237
				c12.748,0.974,30.188,9.91,32.299,12.418c2.111,2.508,9.889,8.601,18.881,10.599c8.993,1.998,14.801,9.887,27.078,14.073
				c12.278,4.187,15.429,1.1,19.669,5.209c4.241,4.111,10.055,11.048,14.203,13.904c4.146,2.856,7.535,5.584,11.448,7.499
				c3.91,1.914,26.694,5.146,16.484,14.998c-10.208,9.852-13.721,10.866-16.185,5.34c-2.465-5.523-6.689-8.617-8.607-10.547
				c-1.92-1.93-10.571-4.845-12.295-8.123c-1.723-3.277-6.441-12.918-8.014-13.211c-1.57-0.292-1.369-3.565-8.299-3.201
				c-6.931,0.364-11.162-0.803-13.851-3.122c-2.687-2.317,0.771,0.388-2.687-2.317s-8.274-5.652-13.27-7.186
				c-4.991-1.533-5.226-2.237-9.821-2.574c-4.598-0.335-7.271-2.611-10.837-3.702c-3.563-1.089-5.706-3.699-7.223-6.349
				c-1.515-2.649,1.355-3.663-4.797-2.882c-6.151,0.781-7.732,7.645-12.718,4.196s-8.209-3.506-11.497-5.707
				c-3.289-2.2-10.406-6.283-10.406-6.283s-4.229,0.776-6.917-1.542c-2.688-2.318-6.33-7.526-6.33-7.526s-1.537-0.774-3.652-1.359
				c-2.115-0.584-5.953-4.445-9.416-5.226c-3.463-0.78-9.803-4.458-13.074-4.66c-3.272-0.202-26.149-9.317-35.006-8.959
				c-8.854,0.357-15.964-3.707-25.965-6.817c-10-3.11-3.485,6.919-21.556-1.221c-18.069-8.14-32.156-6.67-32.156-6.67
				s-36.924-5.148-40.383-4.648c-3.461,0.5-16.736-0.888-16.736-0.888s-11.55-0.035-22.329,0.317
				c-10.782,0.353-19.614-6.989-28.089-5.474c-8.475,1.514-10.916,1.037-22.024,4.703c-11.108,3.665-3.409,3.688-14.86,2.98
				c-11.452-0.708-15.49-1.299-19.919-1.119c-4.428,0.179-6.162,0.75-8.277,0.167s-7.89-0.601-10.971-0.225
				c-3.081,0.375-11.174,3.045-15.208,0.53s0.979-4.81-7.884-2.526c-8.861,2.283-11.197,4.977-16.766,3.609
				c-5.569-1.368-5.505-2.03-12.077-3.066c-6.573-1.036-19.618-5.417-20.99-2.866c-1.37,2.551-13.693,4.054-17.931,4.811
				c-4.237,0.757-16.179,3.416-20.226,4.75c-4.046,1.335-20.81,6.867-23.694,5.896c-2.884-0.971-5.387-0.787-8.462-2.336
				c-3.075-1.548-11.796-0.594-11.796-0.594l-6.116,1.376l-35.855,7.985c0,0,2.701-1.532-10.665,0.314
				c-13.365,1.846-16.609,2.276-16.609,2.276L99.964,108.5c0,0-5.214,0.752-8.476,1.511c-6.697,1.558-3.525-2.317-14.583,3.096
				c-12.767,6.252-17.191,5.468-23.354,6.219c-6.162,0.751-8.855,0.358-10.589,0.93c-1.734,0.572-15.138,2.274-17.92,5.913
				c-2.781,3.638-17.642,3.578-17.642,3.578l-7.015,2.314l-3.147-9.538L4.268,120.74z"/>
			<g id="Sombrilla">
				<path fill="#E8628F" d="M627.248,37.831l5.806-11.629c-3.002-1.628-6.64-2.157-10.143-1.084l4.208,12.755L627.248,37.831z"/>
				<path fill="#FFFFFF" d="M639.316,33.787c-0.022-0.074-0.036-0.146-0.062-0.22c-1.093-3.312-3.382-5.888-6.224-7.431
					l-5.827,11.566L639.316,33.787z"/>
				<path fill="#F9F9F9" d="M627.119,37.873l-4.208-12.755c-0.093,0.028-0.186,0.045-0.276,0.076
					c-3.45,1.139-6.093,3.633-7.607,6.641l11.964,6.082L627.119,37.873z"/>
				<path fill="#E8628F" d="M627.205,37.703l-0.085,0.17l11.392,5.74c1.483-2.944,1.857-6.442,0.808-9.826L627.205,37.703z"/>
				<path fill="#E8628F" d="M615.005,31.77c-1.515,3.008-1.884,6.594-0.744,10.045c0.007,0.022,0.019,0.043,0.024,0.066
					l12.662-4.095L615.005,31.77z"/>
				<path fill="#FFFFFF" d="M627.119,37.874l4.029,12.212c3.318-1.174,5.889-3.545,7.362-6.474L627.119,37.874L627.119,37.874z"/>
				<path fill="#FFFFFF" d="M627.119,37.873l-0.172-0.086l-12.662,4.095c1.195,3.557,3.767,6.258,6.923,7.729L627.119,37.873
					L627.119,37.873z"/>
				<path fill="#E8628F" d="M621.208,49.609c2.93,1.366,6.361,1.673,9.675,0.58c0.091-0.03,0.176-0.071,0.267-0.104l-4.029-12.212
					L621.208,49.609z"/>
			</g>
			<g id="Sombrilla_2_">
				<path fill="#E8628F" d="M492.34,39.863l5.807-11.629c-3.002-1.628-6.64-2.157-10.144-1.084l4.209,12.756L492.34,39.863z"/>
				<path fill="#FFFFFF" d="M504.409,35.819c-0.022-0.074-0.036-0.147-0.061-0.22c-1.094-3.312-3.383-5.888-6.225-7.43
					l-5.827,11.565L504.409,35.819z"/>
				<path fill="#F9F9F9" d="M492.212,39.905l-4.209-12.756c-0.092,0.028-0.185,0.045-0.274,0.076
					c-3.451,1.139-6.094,3.633-7.608,6.641l11.964,6.082L492.212,39.905z"/>
				<path fill="#E8628F" d="M492.298,39.734l-0.085,0.17l11.393,5.74c1.483-2.944,1.856-6.443,0.807-9.826L492.298,39.734z"/>
				<path fill="#E8628F" d="M480.098,33.802c-1.515,3.008-1.883,6.594-0.744,10.045c0.008,0.023,0.019,0.044,0.024,0.066
					l12.662-4.095L480.098,33.802z"/>
				<path fill="#FFFFFF" d="M492.213,39.906l4.029,12.212c3.317-1.174,5.888-3.545,7.361-6.474L492.213,39.906L492.213,39.906z"/>
				<path fill="#FFFFFF" d="M492.212,39.905l-0.171-0.086l-12.662,4.095c1.194,3.556,3.766,6.258,6.922,7.729L492.212,39.905
					L492.212,39.905z"/>
				<path fill="#E8628F" d="M486.301,51.642c2.93,1.366,6.361,1.673,9.674,0.58c0.093-0.03,0.177-0.072,0.269-0.104l-4.029-12.212
					L486.301,51.642z"/>
			</g>
			<g id="Sombrilla_1_">
				<path fill="#E8628F" d="M687.637,83.886l5.806-11.629c-3-1.628-6.64-2.157-10.143-1.084l4.208,12.756L687.637,83.886z"/>
				<path fill="#FFFFFF" d="M699.705,79.843c-0.021-0.073-0.036-0.146-0.061-0.22c-1.093-3.312-3.383-5.888-6.225-7.43
					l-5.827,11.566L699.705,79.843z"/>
				<path fill="#F9F9F9" d="M687.508,83.929L683.3,71.173c-0.093,0.029-0.185,0.045-0.275,0.076
					c-3.451,1.139-6.094,3.634-7.608,6.641l11.964,6.082L687.508,83.929z"/>
				<path fill="#E8628F" d="M687.594,83.758l-0.085,0.17l11.394,5.74c1.481-2.944,1.855-6.442,0.806-9.826L687.594,83.758z"/>
				<path fill="#E8628F" d="M675.395,77.825c-1.516,3.008-1.885,6.594-0.744,10.045c0.007,0.022,0.018,0.044,0.023,0.065
					l12.662-4.095L675.395,77.825z"/>
				<path fill="#FFFFFF" d="M687.508,83.93l4.029,12.211c3.318-1.174,5.889-3.545,7.363-6.474L687.508,83.93L687.508,83.93z"/>
				<path fill="#FFFFFF" d="M687.508,83.929l-0.172-0.087l-12.662,4.095c1.195,3.557,3.768,6.259,6.922,7.729L687.508,83.929
					L687.508,83.929z"/>
				<path fill="#E8628F" d="M681.596,95.666c2.932,1.366,6.362,1.672,9.677,0.579c0.091-0.03,0.176-0.072,0.266-0.104l-4.029-12.211
					L681.596,95.666z"/>
			</g>
		</g>
		<g id="Capa_4_3_">
			<g>
				
					<circle fill="none" stroke="#FFFFFF" stroke-width="3" stroke-miterlimit="10" stroke-dasharray="15.2865,15.2865" cx="658.068" cy="500.776" r="121.641"/>
			</g>
			
				<line fill="none" stroke="#FFFFFF" stroke-width="2" stroke-miterlimit="10" x1="658.067" y1="500.775" x2="718.989" y2="395.488"/>
			<g>
				<path fill="#E5E5E5" d="M735.034,398.312l-24.994-14.935l-18.293,29.567c0,0-17.071,23.335-6.824,40.953
					c19.668,0.709,32.596-24.741,32.596-24.741L735.034,398.312z"/>
				<path fill="#E2E2E2" d="M688.678,447.442c0,0-11.051-5.903,1.461-27.702c12.513-21.8,15.398-23.053,15.398-23.053l20.104,12.012
					l-3.183,6.724l-11.079,18.548C711.381,433.971,699.38,452.946,688.678,447.442z"/>
				<path fill="#CECECE" d="M688.632,447.595c8.271,5.156,17.309-3.955,24.013-13.653l9.72-16.9l6.799-12.329l-5.599-5.395
					l-1.792,0.622l-6.944-4.191c0,0-0.255-1.575-0.462-1.7c-1.183-0.704-7.229-2.384-7.229-2.384s-5.085,8.09-7.378,11.729
					c-0.075,0.122-10.411,16.346-10.528,16.557C683.562,430.243,679.64,441.987,688.632,447.595z M699.925,403.973
					c0.12-0.295,7.911-10.809,7.911-10.809s4.825,1.79,5.94,2.457c0.197,0.119,0.431,1.618,0.431,1.618l6.554,3.956l1.703-0.603
					l5.208,4.422l-5.867,12.015c-5.791,10.009-6.067,10.031-9.854,16.497c-6.651,9.395-15.918,18.063-23.129,13.499
					c-7.165-4.537-4.021-16.504,1.15-26.632C690.203,420.021,699.907,404.192,699.925,403.973z"/>
				<path fill="#EFEFEF" d="M697.104,423.089l0.426,2.148l2.703,2.287l0.006-0.01l0.264,0.159l0.043,0.025l0.429,0.255l-0.006,0.012
					l3.22,1.247l2.181-0.587c1.082-0.095,2.855-2.762,2.855-2.762l3.044-5.097l0.084-1.46l-4.14-1.59l-2.433,1.218l-0.07-2.713
					l-3.325-2.869l-1.169,0.811l-3.044,5.096C698.172,419.26,696.673,422.093,697.104,423.089z"/>
				<path fill="#C6C6C6" d="M700.799,415.989c-0.082,0.161,0.043,3.312,0.043,3.312l6.656,4.032l3.095-1.435l0.2-0.337l0.102-0.169
					l0.101-0.168l1.004-1.682l-9.819-5.867C702.179,413.679,700.883,415.826,700.799,415.989z"/>
				<path fill="#29ABE2" d="M699.252,420.929l3.391,2.026l1.293,0.771l3.058,1.823c0,0,1.754-0.714,3.938-4.006
					c0.014-0.02-0.174-0.106-0.174-0.106c-0.818,0.362-2.828,1.465-2.828,1.465l-3.239-1.9l-3.552-2.145
					c0,0,0.013-2.281-0.057-3.176c0,0-0.152-0.142-0.165-0.122C699.049,419.045,699.252,420.929,699.252,420.929z"/>
				<g id="Timó_4_">
					<path d="M710.453,419.404c0.813-1.362-3.618-4.146-4.5-2.67C705.18,418.03,709.601,420.835,710.453,419.404z M710.054,419.188
						c-0.583,0.974-4.245-1.324-3.716-2.207C706.938,415.974,710.608,418.259,710.054,419.188z"/>
					<path d="M708.317,419.161c0,0,0.24-0.433-0.271-0.73c-0.512-0.298-0.67,0.121-0.702,0.151
						C707.312,418.611,708.317,419.161,708.317,419.161z"/>
					<polygon points="708.141,418.646 708.894,417.682 708.223,417.282 707.778,418.43 					"/>
					<path d="M707.58,418.55c-0.012-0.008-1.215-1.692-1.215-1.692l-0.314,0.383l1.356,1.479L707.58,418.55z"/>
					<path d="M708.188,418.912c0.011,0.007,2.041,0.251,2.041,0.251l-0.25,0.419l-1.849-0.434L708.188,418.912z"/>
				</g>
				<g id="Tapiceria_4_">
					<path fill="#E8CDA0" d="M689.972,420.395c0,0,5.521,3.24,3.253,9.797c-2.266,6.557-6.341,14.994-6.354,15.212
						C686.852,445.621,679.833,438.695,689.972,420.395z"/>
					<path fill="#E8CDA0" d="M711.951,433.524c0,0-5.471-3.324-10.17,1.777c-4.699,5.105-10.198,12.688-10.382,12.808
						C691.215,448.225,700.637,451.123,711.951,433.524z"/>
					<path fill="#E8CDA0" d="M725.186,410.415c0,0-0.402,1.594-1.448,0.331c-3.437-4.16-13.509-10.633-19.3-11.418
						c-1.215-0.165-1.055-0.4-0.636-1.034c0.315-0.475,4.034-5.129,4.034-5.129s9.688,1.689,19.838,11.851L725.186,410.415z"/>
					<path fill="#E8CDA0" d="M705.586,406.849c0.168-0.278,1.121-0.464,1.509-0.232l8.851,5.287
						c0.388,0.231,0.127,0.828-0.043,1.105l-1.763,2.952c-0.167,0.279-0.448,0.595-0.838,0.362l-8.849-5.286
						c-0.388-0.233-0.799-0.959-0.629-1.239L705.586,406.849z"/>
				</g>
				<path fill="#394963" d="M720.34,385.021c0.297-0.513,0.953-0.688,1.465-0.391l5.405,3.127c0.512,0.298,0.688,0.954,0.39,1.468
					l-4.805,8.301c-0.297,0.513-0.954,0.688-1.467,0.391l-5.404-3.128c-0.512-0.296-0.687-0.953-0.389-1.465L720.34,385.021z"/>
			</g>
		</g>
		<g id="Capa_4_1_">
			<g>
				
					<circle fill="none" stroke="#FFFFFF" stroke-width="3" stroke-miterlimit="10" stroke-dasharray="15.2865,15.2865" cx="146.195" cy="637.573" r="121.642"/>
			</g>
			
				<line fill="none" stroke="#FFFFFF" stroke-width="2" stroke-miterlimit="10" x1="146.195" y1="637.573" x2="242.735" y2="563.567"/>
			<g>
				<path fill="#E5E5E5" d="M256.482,572.311l-17.388-23.354l-28.205,20.331c0,0-24.694,15.037-21.96,35.235
					c17.903,8.173,39.578-10.404,39.578-10.404L256.482,572.311z"/>
				<path fill="#E2E2E2" d="M194.866,599.99c0,0-7.954-9.678,11.939-25.041c19.894-15.362,23.04-15.416,23.04-15.416l13.988,18.785
					l-5.512,4.994l-17.327,12.905C220.995,596.219,202.653,609.167,194.866,599.99z"/>
				<path fill="#CECECE" d="M194.767,600.113c5.671,7.927,17.504,2.962,27.408-3.439l15.441-11.9l10.995-8.795l-3.111-7.125
					l-1.895-0.109l-4.814-6.527c0,0,0.366-1.553,0.223-1.748c-0.823-1.103-5.768-4.966-5.768-4.966s-7.792,5.532-11.302,8.021
					c-0.117,0.084-15.868,11.124-16.058,11.273C196.713,582.142,188.6,591.495,194.767,600.113z M221.875,564.12
					c0.225-0.227,11.441-6.964,11.441-6.964s3.775,3.5,4.551,4.541c0.138,0.187-0.22,1.66-0.22,1.66l4.544,6.16l1.803,0.097
					l3.124,6.076l-10.014,8.858c-9.178,7.035-9.442,6.951-15.414,11.477c-9.736,6.139-21.614,10.608-26.531,3.635
					c-4.887-6.934,2.593-16.787,11.242-24.169C206.757,575.233,221.775,564.317,221.875,564.12z"/>
				<path fill="#EFEFEF" d="M211.961,580.705l-0.429,2.148l1.624,3.146l0.009-0.006l0.183,0.248l0.03,0.041l0.298,0.398l-0.01,0.01
					l2.497,2.382l2.241,0.292c1.037,0.325,3.694-1.461,3.694-1.461l4.76-3.545l0.636-1.317l-3.217-3.051l-2.713,0.194l0.971-2.534
					l-1.975-3.922l-1.389,0.303l-4.763,3.545C214.411,577.576,211.944,579.621,211.961,580.705z"/>
				<path fill="#C6C6C6" d="M218.09,575.559c-0.138,0.118-1.228,3.078-1.228,3.078l4.61,6.271l3.408-0.146l0.314-0.232l0.156-0.117
					l0.158-0.117l1.571-1.17l-6.832-9.175C220.248,573.951,218.229,575.44,218.09,575.559z"/>
				<path fill="#29ABE2" d="M214.773,579.532l2.357,3.167l0.901,1.209l2.126,2.852c0,0,1.895,0.012,5.17-2.195
					c0.019-0.014-0.121-0.164-0.121-0.164c-0.895,0.021-3.173,0.271-3.173,0.271l-2.268-2.995l-2.461-3.339
					c0,0,0.883-2.104,1.161-2.955c0,0-0.086-0.188-0.106-0.176C215.305,577.713,214.773,579.532,214.773,579.532z"/>
				<g id="Timó_1_">
					<path d="M225.706,582.405c1.273-0.948-1.76-5.214-3.138-4.188C221.358,579.118,224.371,583.401,225.706,582.405z
						 M225.419,582.051c-0.91,0.678-3.416-2.847-2.589-3.459C223.769,577.891,226.287,581.405,225.419,582.051z"/>
					<path d="M223.824,581.363c0,0,0.389-0.308,0.031-0.777c-0.359-0.471-0.665-0.144-0.708-0.13
						C223.106,580.472,223.824,581.363,223.824,581.363z"/>
					<polygon points="223.858,580.819 224.923,580.217 224.455,579.592 223.606,580.481 					"/>
					<path d="M223.377,580.516c-0.007-0.011-0.476-2.027-0.476-2.027l-0.436,0.233l0.688,1.887L223.377,580.516z"/>
					<path d="M223.799,581.083c0.007,0.011,1.79,1.012,1.79,1.012l-0.391,0.292l-1.541-1.105L223.799,581.083z"/>
				</g>
				<g id="Tapiceria_1_">
					<path fill="#E8CDA0" d="M206.4,575.491c0,0,3.864,5.104-0.738,10.295c-4.599,5.192-11.59,11.433-11.688,11.627
						C193.876,597.608,190.037,588.526,206.4,575.491z"/>
					<path fill="#E8CDA0" d="M221.692,596.024c0,0-3.785-5.163-10.077-2.244c-6.292,2.923-14.274,7.828-14.489,7.866
						C196.911,601.684,204.511,607.963,221.692,596.024z"/>
					<path fill="#E8CDA0" d="M242.756,579.729c0,0-0.982,1.318-1.465-0.247c-1.585-5.157-8.419-14.989-13.471-17.93
						c-1.058-0.616-0.82-0.771-0.191-1.196c0.472-0.319,5.688-3.198,5.688-3.198s8.307,5.265,13.802,18.534L242.756,579.729z"/>
					<path fill="#E8CDA0" d="M226.007,568.941c0.262-0.194,1.213,0,1.484,0.36l6.157,8.27c0.269,0.362-0.2,0.812-0.463,1.006
						l-2.755,2.056c-0.262,0.192-0.642,0.378-0.913,0.014l-6.156-8.268c-0.269-0.362-0.373-1.191-0.108-1.385L226.007,568.941z"/>
				</g>
				<path fill="#394963" d="M247.983,554.412c0.47-0.361,1.144-0.271,1.503,0.199l3.799,4.953c0.36,0.472,0.271,1.146-0.2,1.507
					l-7.613,5.835c-0.471,0.359-1.145,0.271-1.505-0.201l-3.797-4.955c-0.36-0.469-0.271-1.145,0.2-1.503L247.983,554.412z"/>
			</g>
		</g>
	</g>
	<g>
		<path opacity="0.7" fill="#1AB737" enable-background="new    " d="M488.055,360.332
			c-47.227-61.202-135.124-72.532-196.327-25.308c-61.201,47.225-72.531,135.123-25.307,196.324
			c47.226,61.202,135.122,72.533,196.325,25.31C523.945,509.432,535.279,421.533,488.055,360.332z M448.188,512.142
			c-0.127,0.042-4.898-4.562-7.241-6.747c-35.824,33.771-91.856,32.736-126.465-1.854c-2.854,2.682-8.469,7.832-8.611,7.784
			l-2.415-33.769l31.509,6.427c0,0-5.116,4.975-7.485,7.265c11.156,11.03,25.521,17.75,40.521,20.111V397.734
			c-6-3.58-11.28-10.235-11.28-17.861c0-11.409,9.179-20.658,20.587-20.658c11.409,0,20.839,9.249,20.839,20.658
			c0,7.702-5.146,14.415-11.146,17.966V511.79c14-1.764,29.569-7.982,41.25-18.716c-2.865-2.764-7.765-7.457-7.765-7.457
			l32.312-5.959L448.188,512.142z"/>
		<circle opacity="0.7" fill="#1AB737" enable-background="new    " cx="377.237" cy="379.406" r="8.413"/>
	</g>
</g>
</svg>
