<?xml version="1.0" encoding="utf-8"?>
<!-- Generator: Adobe Illustrator 16.0.0, SVG Export Plug-In . SVG Version: 6.00 Build 0)  -->
<!DOCTYPE svg PUBLIC "-//W3C//DTD SVG 1.1//EN" "http://www.w3.org/Graphics/SVG/1.1/DTD/svg11.dtd">
<svg version="1.1" id="Capa_1" xmlns="http://www.w3.org/2000/svg" xmlns:xlink="http://www.w3.org/1999/xlink" x="0px" y="0px"
	 width="800px" height="800px" viewBox="0 0 800 800" enable-background="new 0 0 800 800" xml:space="preserve">
<g id="_x32_.Off_clau">
	<g id="Mà_Timó">
		<g id="Capa_6" display="none">
			<rect x="-9.203" y="-9.17" display="inline" fill="#F4F4F4" width="818" height="822"/>
		</g>
		<g id="Timó">
			<rect x="-6.752" y="-205.677" fill="#969696" width="21.957" height="439.13"/>
			
				<rect x="-17.417" y="-213.557" transform="matrix(-0.4822 0.8761 -0.8761 -0.4822 4.2484 29.024)" fill="#969696" width="21.927" height="458.649"/>
			
				<rect x="-23.607" y="-203.536" transform="matrix(0.5147 0.8574 -0.8574 0.5147 15.9626 23.3486)" fill="#969696" width="21.928" height="458.621"/>
			<circle cx="4.051" cy="16.472" r="48.947"/>
			<path stroke="#000000" stroke-miterlimit="10" d="M-1.417-353.295c-207.01,0-374.826,167.815-374.826,374.825
				c0,207.01,167.816,374.826,374.826,374.826c207.006,0,374.824-167.816,374.824-374.826
				C373.407-185.48,205.593-353.295-1.417-353.295z M-1.417,343.882c-178.033,0-322.355-144.322-322.355-322.354
				c0-178.032,144.324-322.352,322.355-322.352c178.03,0,322.353,144.323,322.353,322.354
				C320.936,199.56,176.614,343.882-1.417,343.882z"/>
			<path stroke="#000000" stroke-miterlimit="10" d="M-66.31-294.289c1.552-0.217,45.658-5.271,46.396,30.509
				c0.738,35.78,0.854,60.992,0.854,60.992s-1.665,26.484,15.371,26.467c1.634,0,14.006,0.018,15.402,0.018
				c14.161,0,14.576-13.205,14.455-26.992c-0.135-14.962,0.784-59.902,0.784-59.902s3.222-30.646,36.906-30.646
				c34.558-0.002-7.226-12.106-7.226-12.106l-108.7,0.687L-66.31-294.289z"/>
			<path stroke="#000000" stroke-miterlimit="10" d="M-309.268-73.468c0.59-1.45,17.298-41.818,48.651-24.566
				c31.356,17.251,53.248,29.754,53.248,29.754s22.105,14.683,30.607-0.076c0.817-1.416,7.019-12.122,7.714-13.33
				c7.083-12.264-4.148-19.228-16.148-26.015c-13.024-7.365-51.487-30.631-51.487-30.631s-29.531-18.301-10.758-46.269
				c19.187-28.584-11.425-0.812-11.425-0.812l-53.76,94.479L-309.268-73.468z"/>
			<path stroke="#000000" stroke-miterlimit="10" d="M-238.84,239.294c-0.965-1.238-27.568-35.891,3.048-54.417
				c30.62-18.528,52.392-31.235,52.392-31.235s23.769-11.804,15.238-26.545c-0.819-1.417-6.99-12.143-7.685-13.348
				c-7.082-12.267-18.728-6.022-30.606,0.979c-12.888,7.594-52.27,29.273-52.27,29.273s-30.419,11.087-47.259-18.083
				c-17.283-29.93-4.604,13.755-4.604,13.755l54.941,93.795L-238.84,239.294z"/>
			<path stroke="#000000" stroke-miterlimit="10" d="M76.704,334.12c-1.555,0.217-44.866,5.93-45.601-29.85
				c-0.736-35.781-0.856-60.99-0.856-60.99s1.663-26.487-15.369-26.468c-1.636,0-14.008-0.015-15.403-0.015
				c-14.16-0.003-14.578,13.205-14.455,26.992c0.135,14.957-0.784,59.905-0.784,59.905s-6.524,34.261-40.983,34.065
				c-34.558-0.196,11.303,8.687,11.303,8.687l108.701-0.686L76.704,334.12z"/>
			<path stroke="#000000" stroke-miterlimit="10" d="M307.925,113.957c-0.588,1.452-17.293,41.818-48.65,24.563
				c-31.354-17.251-53.247-29.754-53.247-29.754s-22.105-14.685-30.606,0.078c-0.818,1.417-7.019,12.124-7.714,13.329
				c-7.085,12.263,4.146,19.229,16.148,26.017c13.021,7.361,51.487,30.629,51.487,30.629s25.087,22.285,8.246,51.455
				c-17.277,29.927,13.938-4.374,13.938-4.374l53.758-94.477L307.925,113.957z"/>
			<path stroke="#000000" stroke-miterlimit="10" d="M231.237-201.937c0.965,1.236,27.568,35.887-3.051,54.413
				c-30.617,18.53-52.392,31.236-52.392,31.236s-23.767,11.801-15.236,26.545c0.818,1.417,6.991,12.139,7.687,13.347
				c7.079,12.264,18.727,6.021,30.607-0.979c12.885-7.597,52.266-29.274,52.266-29.274s33.388-9.818,50.23,19.352
				c17.281,29.928,1.634-15.023,1.634-15.023l-54.941-93.79L231.237-201.937z"/>
			<path fill="#969696" d="M3.534-64.11c-47.1,0-85.28,38.183-85.28,85.281c0,47.098,38.18,85.278,85.28,85.278
				c47.1,0,85.283-38.18,85.283-85.278C88.817-25.928,50.632-64.11,3.534-64.11z M3.534,64.024
				c-23.666,0-42.854-19.187-42.854-42.854c0-23.668,19.187-42.855,42.854-42.855c23.668,0,42.856,19.186,42.856,42.855
				C46.388,44.838,27.201,64.024,3.534,64.024z"/>
		</g>
		<g id="Capa_4">
			<polygon fill="#494949" points="384.065,289.913 355.405,240.51 384.065,191.108 441.387,191.108 470.047,240.51 
				441.387,289.913 			"/>
			<g>
				<path d="M370.122,247.366c0,3.406,0.846,8.043,1.604,9.612h-0.032l0.111,0.619c0.464,1.875,1.059,3.936,1.762,5.697
					l17.604,54.848h0.006c2.36,9.41,11.215,17.065,21.787,17.065c10.65,0,19.562-7.483,21.841-17.445l17.446-54.134
					c0.781-1.921,1.425-4.188,1.922-6.24l0.04-0.414h-0.011c0.757-1.568,1.293-6.206,1.293-9.612
					c0-19.497-13.708-35.639-30.959-40.595v19.564c4.705,3.492,7.768,9.144,7.768,15.521c0,6.375-3.261,12.056-8.043,15.555
					l-0.207,21.791c-0.253,5.896-5.318,10.672-11.276,10.672s-10.197-3.998-11.768-10.528l0,0v-0.616c0-0.003,0-0.006,0-0.009
					s0-0.003,0-0.006v-21.166c-3.137-3.48-8.131-9.211-8.131-15.692c0-6.485,4.994-12.213,8.131-15.692v-19.457
					C383.759,211.576,370.119,227.783,370.122,247.366z M412.963,301.607c6.122,0,11.086,4.962,11.086,11.085
					c0,6.117-4.964,11.083-11.086,11.083c-6.12,0-11.084-4.965-11.084-11.083C401.879,306.57,406.843,301.607,412.963,301.607z"/>
			</g>
			<circle fill="#F22F2F" cx="412.728" cy="240.654" r="23.451"/>
			<g id="Cordó_4_">
				<path fill="none" stroke="#FF0000" stroke-width="7" stroke-linecap="round" stroke-miterlimit="10" d="M480.203,732.007
					c4.503-13.119,43.771-2.833,39.68,8.987c-3.336,9.637-33.912-9.012-29.022-25.895c6.812-23.529,46.401-8.013,42.925,8.213
					c-1.473,6.87-29.703-23.385-25.674-34.526"/>
				<path fill="none" stroke="#FF0000" stroke-width="7" stroke-linecap="round" stroke-miterlimit="10" d="M589.222,599.523
					c4.852-12.996-66.571-44.905-70.979-33.194c-2.3,6.11,65.188,31.189,78.919,17.536c7.334-7.293,21.927-6.66,17.336,5.635
					c-4.657,12.477-57.408-5.544-47.998-32.172"/>
				<path fill="none" stroke="#FF0000" stroke-width="7" stroke-linecap="round" stroke-miterlimit="10" d="M507.355,690.177
					c2.896-19.981,46.227-3.213,42.133,8.607c-3.433,9.915-33.2-12.99-28.096-30.625c5.653-19.53,32.619,5.719,30.573,11.575
					c-3.147,8.994-28.371-22.835-11.308-35.896"/>
				<path fill="none" stroke="#FF0000" stroke-width="7" stroke-linecap="round" stroke-miterlimit="10" d="M441.003,598.363
					c0.372,13.869-45.947,24.894-46.249,12.39c-0.299-12.47,45.382-7.902,46.914,12.372c1.536,20.278-44.454,23.987-46.271,11.646
					c-1.818-12.344,45.574-19.141,46.822,9.067"/>
				<path fill="none" stroke="#FF0000" stroke-width="7" stroke-linecap="round" stroke-miterlimit="10" d="M439.866,555.844
					c0.369,13.867-45.951,24.896-46.251,12.389c-0.299-12.469,45.273-11.817,46.809,8.458c1.536,20.275-44.453,23.985-46.27,11.646
					c-1.818-12.344,45.639-16.703,46.889,11.515"/>
				<path fill="none" stroke="#FF0000" stroke-width="7" stroke-linecap="round" stroke-miterlimit="10" d="M438.623,509.41
					c0.367,13.866-45.952,24.894-46.252,12.387c-0.299-12.467,45.316-10.252,46.852,10.025
					c1.535,20.273-44.456,23.982-46.271,11.646c-1.815-12.342,45.705-14.348,46.953,13.86"/>
				<path fill="none" stroke="#FF0000" stroke-width="7" stroke-linecap="round" stroke-miterlimit="10" d="M439.095,510.022
					c-0.495-28.236-48.062-26.625-46.575-14.24c1.487,12.384,47.567,6.684,46.575-13.628c-0.989-20.312-47.312-20.615-47.349-8.141
					c-0.032,12.512,42.45-2.264,42.45-16.137c0,0,2.945-9.061-11.731-18.905c-10.001-6.708-9.414-24.334-8.632-26.88
					c0.784-2.545,13.562-97.198-1.565-97.921c-20.521-0.977,1.959,49.157-1.176,70.112c-0.42,2.907-3.816,31.627-3.816,31.627"/>
				<path fill="none" stroke="#FF0000" stroke-width="7" stroke-linecap="round" stroke-miterlimit="10" d="M453.965,777.516
					c-9.957-13.26,39.454-14.755,35.361-2.932c-4.08,11.784-29.846-4.129-24.19-23.662c5.656-19.533,44.011,0.245,41.396,12.442
					c-2.614,12.192-35.021-4.487-26.325-31.357"/>
				<path fill="none" stroke="#FF0000" stroke-width="7" stroke-linecap="round" stroke-miterlimit="10" d="M457.53,727.646
					c0.372,13.861-39.425,24.716-39.725,12.212c-0.302-12.472,42.202-13.146,43.736,7.135c1.535,20.272-38.4,20.247-29.542,11.468
					c4.509-4.469,53.854,9.102,26.86,18.924"/>
				<path fill="none" stroke="#FF0000" stroke-width="7" stroke-linecap="round" stroke-miterlimit="10" d="M447.091,686.296
					c0.372,13.867-40.354,24.744-40.657,12.24c-0.297-12.47,45.225-13.849,46.76,6.43c1.53,20.278-40.729,23.886-42.544,11.545
					c-1.848-12.534,45.666-15.681,46.924,12.62"/>
				<path fill="none" stroke="#FF0000" stroke-width="7" stroke-linecap="round" stroke-miterlimit="10" d="M442.191,642.11
					c0.371,13.865-44.082,25.507-44.384,13c-0.302-12.472,45.271-11.82,46.81,8.457c1.536,20.273-42.588,23.936-44.406,11.598
					c-1.812-12.342,45.672-15.595,46.921,12.62"/>
			</g>
			<circle fill="#494949" cx="614.498" cy="244.634" r="66.704"/>
			<path d="M413.558,323.769c0,0-11.366,0.512-11.631-12.096c-0.264-12.604-10.877,6.089-10.877,6.089s3.817,17.892,23.952,17.445
				C416.479,334.732,413.558,323.769,413.558,323.769z"/>
		</g>
		<g id="Capa_24">
			<path fill="#F9DBBD" d="M598.303,664.947c0.999-8.288-3.591-52.009-0.103-60.206c3.492-8.193,4.895-17.433,7.257-34.526
				c2.363-17.093,18.103-44.946,27.134-54.432s47.3-51.065,56.906-63.656c9.607-12.585,44.109-35.885,47.907-45.141
				c3.795-9.257-8.181-80.128-8.353-81.995c-0.173-1.859,0.977-2.638,10.908-34.01c9.934-31.369,7.692-38.509,4.008-44.022
				c-3.682-5.519-16.279-7.083-16.558-7.649c-0.28-0.567-74.572-9.417-78.121-11.229c-3.549-1.808-28.588-4.053-31.431-3.849
				c-2.843,0.202-4.769,3.851-5.38,3.364c-1.515-2.73-4.253-1.209-8.501-2.425c-4.248-1.214-18.401,12.422-25.265,16.646
				c-6.865,4.225-9.387,3.152-15.394,5.043c-6.006,1.888-15.151,1.613-20.076,10.627c-4.926,9.011-12.591,94.358-12.073,98.746
				c0.513,4.391-11.316,23.762-12.494,30.734c-3.734,8.271-5.216,35.193-6.82,41.19c-1.964,6.61-0.855,15.593-1.282,21.204
				c1.307,5.325-1.588,30.311-2.501,41.54c-0.907,11.23,6.271,55.778-58.559,347.599l157.986,96L598.303,664.947z M591.425,326.339
				l4.075-34.589c0,0,2.803,8.75,26.532,7.066l-1.037,0.189c-4.962,2.902-21.344,15.129-24.823,31.139
				C595.884,331.441,591.425,326.339,591.425,326.339z"/>
		</g>
		<g id="Capa_5">
			<path fill="none" stroke="#FF0000" stroke-width="7" stroke-linecap="round" stroke-miterlimit="10" d="M495.5,555.844
				c4.78-30,35.089,21.165,22.739,16.188c-10.74-4.329,17.689-26.115,38.344-20.998c26.26,6.507,34.982,40.405,22.161,36.966
				c-12.082-3.245,8.337-15.838,21.734-19.428c0,0,11.493-1.95,14.955,8.965"/>
		</g>
		<path fill="#F4F4F4" d="M612.574,283.283c-0.356,1.287-2.519,1.734-3.422,1.484l-8.111-2.245c-0.906-0.25-2.425-1.72-2.069-3.003
			l21.104-76.254c0.356-1.285,2.23-1.102,3.137-0.851l8.111,2.245c0.903,0.25,2.711,1.087,2.355,2.371L612.574,283.283z"/>
		<path fill="#C1C1C1" d="M419.965,407.549c-0.173,1.173-1,2.021-1.85,1.896l-14.015-2.055c-0.85-0.126-1.399-1.176-1.227-2.35
			l2.527-17.254c0.171-1.176,1.002-2.025,1.85-1.899l14.013,2.052c0.852,0.123,1.399,1.18,1.229,2.35L419.965,407.549z"/>
	</g>
</g>
</svg>
