<?xml version="1.0" encoding="utf-8"?>
<!-- Generator: Adobe Illustrator 16.0.0, SVG Export Plug-In . SVG Version: 6.00 Build 0)  -->
<!DOCTYPE svg PUBLIC "-//W3C//DTD SVG 1.1//EN" "http://www.w3.org/Graphics/SVG/1.1/DTD/svg11.dtd">
<svg version="1.1" id="Capa_1" xmlns="http://www.w3.org/2000/svg" xmlns:xlink="http://www.w3.org/1999/xlink" x="0px" y="0px"
	 width="800px" height="800px" viewBox="0 0 800 800" enable-background="new 0 0 800 800" xml:space="preserve">
<g id="Capa_1_1_">
	<g id="Cèl">
		
			<linearGradient id="SVGID_1_" gradientUnits="userSpaceOnUse" x1="389.6787" y1="-274.1167" x2="1223.207" y2="-274.1167" gradientTransform="matrix(0 -1 1 0 685.5 1192.5)">
			<stop  offset="0.4692" style="stop-color:#FFFFFF"/>
			<stop  offset="0.5669" style="stop-color:#C1F0FF"/>
			<stop  offset="0.6844" style="stop-color:#7DE0FF"/>
			<stop  offset="0.7908" style="stop-color:#47D4FF"/>
			<stop  offset="0.8821" style="stop-color:#20CBFF"/>
			<stop  offset="0.9549" style="stop-color:#09C5FF"/>
			<stop  offset="1" style="stop-color:#00C3FF"/>
		</linearGradient>
		<polygon fill="url(#SVGID_1_)" points="-9.414,-30.707 832.181,-30.707 828.91,802.821 -6.475,802.821 		"/>
	</g>
	<polygon opacity="0.6" fill="#39BCC4" enable-background="new    " points="-2.192,336 847.558,335.08 845.575,803 -5.21,803 	"/>
	<g id="Capa_3_copia">
	</g>
	<g id="Capa_4">
		<path fill="#EDEDED" d="M146.273,1343.625h506.362l9.342-392.621c0,0,46.719-325.445-263.376-437.16
			C98.698,621.132,132.678,942.838,132.678,942.838L146.273,1343.625z"/>
		<path fill="#F4F4F4" d="M396.839,598.842c0,0,219.265-5.492,226.905,278.973c7.645,284.468-22.616,314.695-22.616,314.695H193.849
			l-19.076-86.388V861.559C174.773,861.552,187.97,607.486,396.839,598.842z"/>
		<path fill="#E8E8E8" d="M399.452,597.092C230.012,595,176.356,736.003,162.749,869.193l5.605,220.662l8.502,159.278
			l131.682,19.904l21.247-16.449l141.031,0.418c0,0,17.83,13.824,22.085,13.824c23.93,0,129.159-18.805,129.159-18.805
			s3.761-108.14,5.516-156.805c0.06-1.652,9.681-219.284,9.544-222.025C629.896,736.267,583.701,599.377,399.452,597.092z
			 M619.918,1086.537c0.852,3.598-21.663,150.979-21.663,150.979s-88.021,10.608-110.613,10.608
			c-4.017,0-20.843-13.216-20.843-13.216l-133.151-0.391l-20.052,15.721l-117.2-12.716l-19.54-150.802
			c-2.826-130.886,1.113-132.729,0-217.524c15.487-129.931,76.473-267.958,224.857-265.464
			c147.455,2.482,207.216,137.027,220.348,265.464C621.953,874.17,618.216,1084.325,619.918,1086.537z"/>
		<path fill="#FFFFFF" d="M401.261,859.281l0.089-1.325l-67.549,6.555l-27.559,18.391c-15.297,7.187-18.225,43.407-18.225,43.407
			v67.193l10.687,14.656l75.438-8.571l27.577-27.724l-0.458-23.025V859.281L401.261,859.281z"/>
		<path fill="#FFFFFF" d="M399.88,859.288l1.47-1.332l63.636,6.555l27.054,18.391c15.284,7.187,17.712,43.407,17.712,43.407v67.193
			l-9.669,14.656l-74.92-8.571l-26.632-27.724l1.292-23.028L399.88,859.288z"/>
		<path fill="#C6C6C6" d="M499.702,976.31c-0.209-2.076-30.167-32.68-30.167-32.68l-136.067-0.93l-34.122,31.569v4.425v2.212v2.213
			v25.101h200.356C499.702,1008.22,499.915,978.385,499.702,976.31z"/>
		<path fill="#394963" d="M472.719,1392.802c-0.048,6.545-8.247,11.829-18.303,11.789l-105.984-0.362
			c-10.043-0.039-18.158-5.382-18.11-11.925l0.875-105.979c0.053-6.548,8.252-11.829,18.308-11.79l105.984,0.371
			c10.057,0.03,18.158,5.367,18.104,11.913L472.719,1392.802z"/>
		<g id="Timó_1_">
			<path d="M325.108,997.713c0,17.975,91.009,19.271,91.009-0.167C416.117,980.47,325.108,978.863,325.108,997.713z
				 M333.027,997.511c0-12.847,75.165-11.747,75.165-0.107C408.198,1010.646,333.027,1009.76,333.027,997.511z"/>
			<path d="M359.201,987.682c0,0,0.214,5.601,10.507,5.523c10.305-0.066,8.919-5.045,9.139-5.523
				C379.062,987.193,359.201,987.682,359.201,987.682z"/>
			<polygon points="366.424,993.476 363.771,1008.22 377.36,1008.22 373.749,993.476 			"/>
			<path d="M375.658,989.338c0.214,0,33.242,9.404,33.242,9.404l1.278-5.53l-33.457-6.5L375.658,989.338z"/>
			<path d="M361.849,989.338c-0.209,0-34.199,9.404-34.199,9.404v-5.53l32.183-6.5L361.849,989.338z"/>
		</g>
		<g id="Tapiceria_1_">
			<path fill="#E8CDA0" d="M622.061,869.193c0,0-111.299,0.553-135.942-76.323c-24.633-76.871-39.072-182.502-40.78-184.717
				C443.641,605.945,610.16,632.491,622.061,869.193z"/>
			<path fill="#E8CDA0" d="M176.856,869.193c0,0,111.298,0.553,135.936-76.323c24.639-76.871,39.085-182.502,40.78-184.717
				C355.268,605.945,188.75,632.491,176.856,869.193z"/>
			<path fill="#E8CDA0" d="M185.352,1170.598c0,0-8.146-17.826,18.688-11.613c88.361,20.468,296.517,24.886,389.96-1.099
				c19.586-5.45,19.288-2.233,18.694,6.356c-0.44,6.447-14.44,73.273-14.44,73.273s-159.729,39.818-401.859,0L185.352,1170.598z"/>
			<path fill="#E8CDA0" d="M503.176,1091.479c0,3.688-6.009,5.199-13.875,5.199H310.043c-7.86,0-16.368-1.512-16.368-5.199v-38.924
				c0-3.687,8.508-7.479,16.368-7.479H489.3c7.87,0,13.875,3.792,13.875,7.479L503.176,1091.479L503.176,1091.479z"/>
		</g>
		<path fill="#29ABE2" d="M317.296,669.469c-0.024,0.262,2.997-4.307,2.997-4.307c7.505-8.257,24.285-30.437,24.285-30.437
			l54.412-0.209l60.064,0.272c0,0,16.774,22.277,24.285,30.526c0,0,2.341,4.4,2.326,4.142c0-41.748-11.459-65.629-40.582-65.629
			H359.86C329.066,605.152,316.939,628.389,317.296,669.469z"/>
	</g>
	<g>
		<path fill="#D3D3D3" d="M486,675.61c0-24.682-18.639-44.61-41.02-44.61h-87.805C334.796,631,317,650.93,317,675.61v198.466
			c0,24.68,17.796,44.924,40.177,44.924h87.805c22.381,0,41.02-20.244,41.02-44.924L486,675.61L486,675.61z"/>
		<g>
			<g id="WATER">
				<circle fill="#F4F4F4" cx="348.495" cy="659.767" r="11.237"/>
				<circle fill="#F4F4F4" cx="380.652" cy="659.767" r="11.237"/>
				<text transform="matrix(1 0 0 1 340.4146 663.1221)" font-family="'MyriadPro-Bold'" font-size="2.0346">ºC</text>
				<text transform="matrix(1 0 0 1 342.4116 658.2988)" font-family="'MyriadPro-Bold'" font-size="2.0346">40</text>
				<text transform="matrix(1 0 0 1 346.2734 656.3232)" font-family="'MyriadPro-Bold'" font-size="2.0346">80</text>
				<text transform="matrix(1 0 0 1 349.3447 656.5293)" font-family="'MyriadPro-Bold'" font-size="2.0346">100</text>
				<text transform="matrix(1 0 0 1 351.6421 658.5039)" font-family="'MyriadPro-Bold'" font-size="2.0346">120</text>
				
					<rect x="346.763" y="652.155" transform="matrix(-0.9921 0.1253 -0.1253 -0.9921 773.2925 1257.6604)" width="0.678" height="1.979"/>
				
					<rect x="351.564" y="652.654" transform="matrix(-0.9236 -0.3833 0.3833 -0.9236 426.3991 1392.2476)" width="0.678" height="1.98"/>
				
					<rect x="354.984" y="654.908" transform="matrix(-0.6962 -0.7178 0.7178 -0.6962 131.8783 1367.6046)" width="0.677" height="1.978"/>
				
					<rect x="343.077" y="653.396" transform="matrix(-0.8464 0.5326 -0.5326 -0.8464 982.5918 1025.3446)" width="0.678" height="1.978"/>
				
					<rect x="341.205" y="654.924" transform="matrix(-0.6933 0.7206 -0.7206 -0.6933 1051.0105 864.5621)" width="0.68" height="1.979"/>
				
					<rect x="349.304" y="652.134" transform="matrix(-0.9967 -0.0816 0.0816 -0.9967 644.55 1332.1953)" width="0.395" height="1.582"/>
				
					<rect x="344.614" y="652.667" transform="matrix(-0.925 0.3799 -0.3799 -0.925 912.0106 1126.9414)" width="0.396" height="1.582"/>
				
					<rect x="353.927" y="653.847" transform="matrix(-0.8012 -0.5984 0.5984 -0.8012 246.0973 1391.0374)" width="0.395" height="1.581"/>
			</g>
			<g id="Capa_2_copia">
				<path fill="#1E1E1E" d="M348.495,647.109c-7.033,0-12.735,5.699-12.735,12.734c0,7.033,5.702,12.734,12.735,12.734
					c7.034,0,12.735-5.701,12.735-12.734C361.23,652.81,355.528,647.109,348.495,647.109z M348.495,670.13
					c-5.681,0-10.286-4.604-10.286-10.285c0-5.68,4.605-10.286,10.286-10.286s10.286,4.606,10.286,10.286
					C358.781,665.525,354.176,670.13,348.495,670.13z"/>
				<path fill="#3D3D3D" d="M348.495,647.109c-7.033,0-12.735,5.699-12.735,12.734c0,7.033,5.702,12.734,12.735,12.734
					c7.034,0,12.735-5.701,12.735-12.734C361.23,652.81,355.528,647.109,348.495,647.109z M348.495,671.675
					c-6.533,0-11.83-5.297-11.83-11.83c0-6.535,5.297-11.831,11.83-11.831c6.534,0,11.831,5.296,11.831,11.831
					C360.325,666.378,355.029,671.675,348.495,671.675z"/>
				<path fill="#EA2424" d="M348.073,660.685l0.222-7.745l0.449-0.001c0,0,0.164,7.727,0.174,7.747L348.073,660.685z"/>
				<circle fill="#1E1E1E" cx="348.495" cy="662.707" r="2.336"/>
			</g>
			<g id="FUEL">
				<rect x="379.899" y="652.266" fill="#232323" width="0.616" height="2.753"/>
				
					<rect x="386.901" y="655.478" transform="matrix(-0.6367 -0.7711 0.7711 -0.6367 127.2311 1373.6602)" fill="#232323" width="0.632" height="2.758"/>
				
					<rect x="372.866" y="655.477" transform="matrix(0.6365 -0.7713 0.7713 0.6365 -370.9628 526.5726)" fill="#232323" width="0.631" height="2.758"/>
				
					<rect x="375.893" y="653.144" transform="matrix(0.907 -0.421 0.421 0.907 -240.4677 219.1801)" fill="#232323" width="0.466" height="2.029"/>
				
					<rect x="383.993" y="653.183" transform="matrix(-0.9083 -0.4184 0.4184 -0.9083 459.4936 1409.1384)" fill="#232323" width="0.464" height="2.028"/>
				<text transform="matrix(1 0 0 1 372.5884 663.4658)" fill="#232323" font-family="'MyriadPro-Bold'" font-size="2.0781">FUEL</text>
				<text transform="matrix(1 0 0 1 374.2183 659.7666)" fill="#232323" font-family="'MyriadPro-Bold'" font-size="2.169">E</text>
				<text transform="matrix(1 0 0 1 385.0605 659.7666)" fill="#232323" font-family="'MyriadPro-Bold'" font-size="2.169">F</text>
				<text transform="matrix(1.4697 0 0 1 379.7715 656.9805)" fill="#232323" font-family="'MyriadPro-Bold'" font-size="2.169">/</text>
				<text transform="matrix(1 0 0 1 379.438 656.3008)" fill="#1E1E1E" font-family="'MyriadPro-Bold'" font-size="1.297">1</text>
				<text transform="matrix(1 0 0 1 380.6021 657.084)" fill="#232323" font-family="'MyriadPro-Bold'" font-size="1.297">2</text>
				<path d="M387.042,662.05c-0.032-0.024-0.28-0.248-0.366-0.208c-0.086,0.039,0.151,0.224,0.194,0.272
					c0.043,0.051,0.076,0,0.043,0.255c-0.032,0.255,0.047,0.646,0.086,0.725c0.04,0.08,0.206,0.468-0.149,0.424
					c-0.354-0.043-0.229-0.266-0.242-0.67c-0.012-0.308-0.203-0.376-0.346-0.392v-0.697h-1.233v1.899h-0.19v0.095h1.614v-0.095
					h-0.19v-1.055c0.096,0.027,0.183,0.081,0.214,0.138c0.079,0.139-0.058,0.284-0.004,0.595c0.055,0.308,0.404,0.377,0.626,0.255
					c0.223-0.123,0.033-0.532-0.007-0.65c-0.039-0.117-0.053-0.435-0.032-0.492c0.022-0.057,0.158-0.067,0.19-0.121
					C387.282,662.271,387.074,662.075,387.042,662.05z M386.166,662.472h-1.044v-0.616h1.044V662.472z"/>
			</g>
			<g id="Capa_2_copia_1_">
				<path fill="#1E1E1E" d="M380.185,646.9c-7.147,0-12.943,5.795-12.943,12.943c0,7.147,5.795,12.944,12.943,12.944
					c7.149,0,12.943-5.797,12.943-12.944C393.128,652.695,387.333,646.9,380.185,646.9z M380.185,670.299
					c-5.773,0-10.454-4.681-10.454-10.454s4.681-10.454,10.454-10.454c5.774,0,10.455,4.681,10.455,10.454
					C390.639,665.618,385.958,670.299,380.185,670.299z"/>
				<path fill="#3D3D3D" d="M380.185,646.9c-7.147,0-12.943,5.795-12.943,12.943c0,7.147,5.795,12.944,12.943,12.944
					c7.149,0,12.943-5.797,12.943-12.944C393.128,652.695,387.333,646.9,380.185,646.9z M380.185,671.869
					c-6.641,0-12.024-5.383-12.024-12.024c0-6.641,5.384-12.023,12.024-12.023c6.642,0,12.025,5.383,12.025,12.023
					C392.21,666.486,386.826,671.869,380.185,671.869z"/>
				<path fill="#EA2424" d="M380.601,662.062c0.021-0.01,5.901-5.22,5.901-5.22l0.309,0.338l-5.627,5.51L380.601,662.062z"/>
				<circle fill="#1E1E1E" cx="380.185" cy="662.755" r="2.375"/>
			</g>
		</g>
		<g>
			<rect x="401.082" y="706.364" fill="#969696" width="3.76" height="72.382"/>
			
				<rect x="399.68" y="704.096" transform="matrix(-0.482 0.8762 -0.8762 -0.482 1245.5525 748.5313)" fill="#969696" width="3.667" height="76.7"/>
			
				<rect x="398.608" y="705.78" transform="matrix(0.5147 0.8574 -0.8574 0.5147 832.3502 17.8109)" fill="#969696" width="3.669" height="76.691"/>
			<path stroke="#000000" stroke-miterlimit="10" d="M402.367,680.733c-34.619,0-62.685,28.062-62.685,62.685
				c0,34.62,28.064,62.685,62.685,62.685s62.685-28.063,62.685-62.685S436.987,680.733,402.367,680.733z M402.367,797.326
				c-29.772,0-53.91-24.136-53.91-53.908c0-29.773,24.138-53.909,53.91-53.909c29.773,0,53.909,24.136,53.909,53.909
				C456.276,773.19,432.141,797.326,402.367,797.326z"/>
			<path stroke="#000000" stroke-miterlimit="10" d="M391.516,690.602c0.259-0.037,7.636-0.882,7.759,5.102
				c0.123,5.984,0.144,10.2,0.144,10.2s-0.279,4.429,2.571,4.426c0.271,0,2.341,0.003,2.574,0.003c2.369,0,2.438-2.209,2.418-4.515
				c-0.022-2.502,0.13-10.018,0.13-10.018s0.539-5.125,6.173-5.125c5.779-0.001-1.208-2.023-1.208-2.023l-18.178,0.113
				L391.516,690.602z"/>
			<path stroke="#000000" stroke-miterlimit="10" d="M350.884,727.531c0.098-0.243,2.893-6.994,8.136-4.107
				c5.245,2.884,8.904,4.976,8.904,4.976s3.698,2.455,5.119-0.015c0.137-0.236,1.174-2.026,1.291-2.229
				c1.184-2.051-0.694-3.216-2.701-4.351c-2.179-1.231-8.611-5.12-8.611-5.12s-4.939-3.063-1.799-7.739
				c3.209-4.78-1.909-0.137-1.909-0.137l-8.991,15.802L350.884,727.531z"/>
			<path d="M362.662,779.835c-0.161-0.206-4.61-6.001,0.509-9.1c5.121-3.099,8.762-5.225,8.762-5.225s3.975-1.974,2.548-4.438
				c-0.138-0.237-1.169-2.031-1.286-2.232c-1.183-2.053-3.131-1.008-5.118,0.163c-2.155,1.271-8.741,4.896-8.741,4.896
				s-5.088,1.854-7.904-3.025c-2.89-5.005-0.769,2.299-0.769,2.299l9.188,15.688L362.662,779.835z"/>
			<path stroke="#000000" stroke-miterlimit="10" d="M415.433,795.693c-0.26,0.037-7.503,0.992-7.625-4.992
				c-0.123-5.984-0.144-10.199-0.144-10.199s0.278-4.43-2.57-4.427c-0.273,0-2.341-0.003-2.574-0.003
				c-2.369,0-2.439,2.208-2.418,4.514c0.022,2.502-0.131,10.019-0.131,10.019s-1.091,5.729-6.854,5.697
				c-5.78-0.032,1.89,1.452,1.89,1.452l18.179-0.114L415.433,795.693z"/>
			<path stroke="#000000" stroke-miterlimit="10" d="M454.102,758.875c-0.099,0.242-2.893,6.992-8.136,4.109
				c-5.244-2.887-8.905-4.978-8.905-4.978s-3.698-2.455-5.119,0.014c-0.137,0.236-1.174,2.026-1.29,2.228
				c-1.185,2.052,0.693,3.218,2.7,4.353c2.177,1.229,8.611,5.122,8.611,5.122s4.196,3.726,1.38,8.604
				c-2.891,5.006,2.329-0.729,2.329-0.729l8.991-15.801L454.102,758.875z"/>
			<path stroke="#000000" stroke-miterlimit="10" d="M441.276,706.047c0.16,0.206,4.61,6.002-0.511,9.099
				c-5.12,3.099-8.763,5.226-8.763,5.226c-4.682,2.325-1.646,5.996-2.548,4.438c-0.137-0.236,1.17,2.03,1.286,2.232
				c1.185,2.051,3.133,1.008,5.118-0.163c2.156-1.271,8.741-4.896,8.741-4.896s5.583-1.641,8.401,3.236
				c2.89,5.005,0.273-2.514,0.273-2.514l-9.188-15.686L441.276,706.047z"/>
			<path fill="#969696" d="M403.196,729.096c-7.877,0-14.263,6.387-14.263,14.264c0,7.876,6.385,14.262,14.263,14.262
				c7.876,0,14.262-6.386,14.262-14.262C417.458,735.482,411.072,729.096,403.196,729.096z M403.196,750.525
				c-3.958,0-7.168-3.208-7.168-7.166c0-3.959,3.209-7.168,7.168-7.168c3.957,0,7.167,3.209,7.167,7.168
				C410.363,747.317,407.153,750.525,403.196,750.525z"/>
			<circle cx="403.282" cy="742.571" r="8.186"/>
		</g>
	</g>
	<g>
		<path fill="#996234" d="M336.391,863.4c0,0-6.675-39.835-8.958-50.054c-4.271-19.129,3.903-61.094,2.914-68.437
			c-0.989-7.344-1.062-15.158,8.41-5.356c9.468,9.803,6.525,47.376,5.581,66.119c-0.951,18.735,11.833,39.659,13.006,45.487
			c1.155,5.837-10.017-1.283-10.017-1.283L336.391,863.4z"/>
		<path fill="#996234" d="M466.017,910.213c0,0,10.448-42.933,11.346-53.364c1.67-19.526-12.031-60.022-12.031-67.433
			s-0.959-15.164-9.044-4.185c-8.079,10.979-0.149,47.821,3.291,66.271c3.451,18.44-13.146,39.026-13.518,44.958
			c-0.371,5.939,16.479-0.75,16.479-0.75L466.017,910.213z"/>
		<path fill="#8BC7E8" d="M466.065,801.089c0,0,7.526-52.664-22.808-62.475c-26.117-8.447-46.735-19.351-69.254-6.613
			c-22.523,12.745-33.086,7.379-36.285,32.298c-3.033,23.627-18.781,37.715,1.18,41.002c21.508,3.546,90.952,6.382,94.934,6.816
			C458.296,814.82,466.065,801.089,466.065,801.089z"/>
		<path fill="#996234" d="M384.123,658.773c0,0-0.657,28.909-0.136,63.862c0.351,23.5,17.937,25.8,28.067,17.543
			c13.062-10.645,3.588-48.751,5.016-56.296C418.5,676.33,384.123,658.773,384.123,658.773z"/>
		<path fill="#301705" d="M397.011,723.697c0,0-23.16-2.768-19.683-25.925c3.458-23.145-9.45-40.479,7.448-46.349
			c15.947-5.538,26.697-19.091,33.911,0.242c7.213,19.333,12.421,29.592,7.213,43.181c-5.203,13.604-4.114,16.918-10.733,25.527
			C408.555,728.999,397.011,723.697,397.011,723.697z"/>
	</g>
	<path fill="#5B5B5B" d="M501,798.973c0,2.479-1.39,4.027-2.697,4.027h-10.268c-1.309,0-2.035-1.55-2.035-4.027v-47.104
		c0-2.479,0.729-4.869,2.035-4.869h10.268c1.309,0,2.697,2.392,2.697,4.869V798.973z"/>
</g>
<g id="extras">
	
		<image display="none" overflow="visible" enable-background="new    " width="1200" height="900" xlink:href="../../../Referències fotogràgiques/windsurfing-3264136_640-compressor-1200x900.jpg"  transform="matrix(0.4406 0 0 0.4406 -50.7754 -10.478)">
	</image>
	<g id="windsurf">
		<path opacity="0.7" fill="#FFFFFF" enable-background="new    " d="M384.432,382.439c-0.436-0.071-0.812-0.177-1.151-0.304
			c-2.501-0.944-2.938-3.065-10.466-1.241c-8.546,2.072-8.355,7.844-14.648,6.104c-6.292-1.743-7.068-4.999-22.743-3.742
			c-15.677,1.254-5.853,5.793-23.166,6.089c-17.307,0.294-27.486,1.243-33.483-1.868c-5.998-3.108,3.84,0.333-18.421,1.104
			c-22.263,0.771-17.424,7.986-28.942,6.717c-11.517-1.269-25.05,3.477-31.597,0.357c-6.545-3.118-33.119-4.331-27.356-7.544
			c7.201-4.014,30.427-14.386,33.651-9.393c3.223,4.992,7.813,10.277,11.425,7.583c3.61-2.693,5.852-5.682,8.606-6.19
			c2.754-0.509,6.32-0.183,6.32-0.183s2.181,1.13,4.646,1.716c2.465,0.585,3.861-1.042,8.017-3.454
			c4.156-2.412,11.017-2.035,14.547,0.763c3.53,2.799,7.888,5.334,18.934,1.378c11.044-3.959,11.621-5.812,18.17-2.725
			c6.547,3.089,0.715,7.397,10.073,6.162c9.357-1.236,15.181-4.997,17.358-3.592c2.175,1.405-3.867,1.317,6.037,0.364
			c9.904-0.952,12.656-4.43,16.926-0.299c4.267,4.131,10.186,5.919,12.703,2.934c2.514-2.984-0.708-8.003,6.117-5.143
			c6.823,2.859,13.607-4.191,16.13-1.127C384.639,379.97,384.432,382.439,384.432,382.439z"/>
		<path fill="#E58525" d="M193.313,381.335c0,0,45.86-179.588,98.083-243.098c4.496-3.647,24.689,4.604,25.065,7.072
			c0.375,2.468-10.829,86.642-12.407,101.192c-1.577,14.55,3.128,26.14-1.872,40.313c-5.002,14.173-8.357,14.255-9.039,23.619
			c-0.683,9.363,4.03,23.756,0.32,29.812c-3.71,6.055-68.16,22.578-75.52,26.644c-7.36,4.064-13.68,6.798-13.492,8.033
			c0.188,1.235-4.235,5.365-4.235,5.365L193.313,381.335z"/>
		<path fill="#1C262B" d="M219.224,293.889c0,0-5.408-5.492-0.938-6.171c3.726-0.566,33.625,11.728,33.625,11.728l47.803,40.507
			c0,0-4.107,3.991-3.8,2.682c0.307-1.309-41.987-40.127-43.762-40.7c-1.774-0.571-31.285-12.503-31.273-11.242
			C220.891,291.952,219.224,293.889,219.224,293.889z"/>
		<path fill="#E2BE27" d="M288.302,152.066l-0.359-2.36l26.058-3.958c0,0,5.663,0.346,0.503,2.394
			C309.344,150.188,288.302,152.066,288.302,152.066z"/>
		<path fill="#E2BE27" d="M267.363,190.602c-1.073-1.521-3.854-3.203-0.5-3.291c3.353-0.089,43.625,1.791,44.411,4.196
			c0.786,2.405,3.699,2.805-2.076,3.261C303.42,195.226,267.363,190.602,267.363,190.602z"/>
		<path fill="#E2BE27" d="M246.681,231.624c0,0-2.472-2.57-0.375-2.468c2.097,0.102,55.949,13.807,55.913,16.338
			c-0.037,2.531-4.587,2.38-4.587,2.38L246.681,231.624z"/>
		<path fill="#E2BE27" d="M230.09,277.075c0,0-0.6-2.855,0.667-3.047c1.269-0.192,59.783,23.748,63.164,25.759
			c3.381,2.011,0.691,4.549,0.691,4.549L230.09,277.075z"/>
		<path fill="#EAEAEA" d="M224.084,397.941c0,0-50.996,9.711-98.82-29.882c0,0-1.538-0.889-0.333-2.194
			c1.206-1.306,130.414,25.397,137.641,20.354c7.227-5.043-0.912,6.027-0.912,6.027L224.084,397.941z"/>
		<path fill="#896446" d="M236.083,292.918c0,0,0.987,3.37,1.906,4.016c0.918,0.646,5.014,4.472,5.014,4.472l8.9,6.233l9.503-1.444
			l0.347,3.914l1.956,2.978c0,0,0.12,2.074-0.689,3.6c-0.809,1.525-3.291,5.55-4.179,7.088c-0.889,1.538-13.125,20.753-13.57,23.367
			c-0.444,2.613-4.574,6.046-4.793,7.763c-0.221,1.717-3.034,17.858-3.992,21.932c-0.958,4.073-8.604,7.48-8.604,7.48
			s2.425,1.315,4.409,1.295c1.983-0.021,6.65,0.393,6.65,0.393s2.407-4.294,2.264-6.798s1.758-8.412,2.085-10.418
			c0.328-2.006,5.013-7.214,5.502-9.534c0.49-2.319,1.473-4.713,3.802-6.189c2.329-1.477,7.566-7.643,8.857-8.38
			c1.291-0.738,0.338,5.019,0.026,6.188c-0.312,1.17-1.396,4.982-2.104,5.932c-0.708,0.95-3.609,10.922-3.436,12.303
			c0.173,1.38,2.604,20.26,3.392,20.141c0.787-0.12,2.911-1.739,3.252-11.325c0.031-0.881,3.202-15.845,3.202-15.845l3.148-4.621
			l2.76-4.769c0,0,6.996-8.588,7.363-11.71c0.368-3.123,0.586-11.383,0.378-12.754c-0.209-1.371,0.809-7.138,0.809-7.138
			l2.127-6.776l0.646-6.833c0,0-0.565-1.878-0.708-4.663c-0.143-2.784-1.805-4.495-2.521-5.509
			c-0.715-1.014-2.628-4.371-2.628-4.371s0.072-3.448,1.43-3.865c0.593-0.182,1.939-2.82,1.939-2.82l0.462-5.963l-2.558-2.987
			l-4.899-0.388l-3.086,0.469l-2.943,4.174l-1.101,5.221l0.602,5.808l2.761,2.249l-2.164,0.934c0,0-2.609,0.14-5.971,2.054
			c-3.361,1.914-9.478,4.114-9.478,4.114l-8.772-4.86l-3.845-5.625L236.083,292.918z"/>
		<path fill="#3F2C1E" d="M292.59,275.621c0,0-0.339,0.542-0.616,0.794c-0.277,0.252-0.507,0.82-0.507,0.82s-0.72,0.11-1.132,0.172
			c-0.411,0.062-0.854-0.087-2.12-0.106c-1.266-0.018-1.488-0.788-1.488-0.788l-0.926-1.243c0,0-0.651-0.124-1.244-0.56
			c-0.592-0.437-1.236,0.184-1.236,0.184s-2.875,1.176-4.11,1.364c-0.645,0.098-0.85,0.256-0.952,0.449
			c-0.459-0.556-1.444-1.034-2.649-0.655c-1.294,0.407-1.234,0.188-2.16,0.328c-0.926,0.141-1.863,0.21-2.474,0.339
			c-0.612,0.129,0.164-0.304-0.612,0.129c-0.776,0.434-1.24,0.609-1.367,1.154c-0.128,0.546-1.826,0.909-1.826,0.909l0.172,1.131
			c0.156,1.028,0.838,2.293,1.677,2.271c0.838-0.021,3.278-0.813,3.736-0.567c0.459,0.246,1.238,0.759,1.238,0.759
			s-1.086,0.586-1.04,0.895c0.047,0.309-0.858,2.025-0.733,2.847c0.125,0.823-0.615,0.83,0.121,0.824
			c0.735-0.007,1.634,0.383,1.681,0.691c0.047,0.308,1.062,2.153,1.062,2.153l2.599,0.608c0,0,0.461-0.547,0.857-0.712
			c0.396-0.166,1.077-1.216,1.561-1.5c0.483-0.284,1.887-1.433,1.792-2.061c-0.096-0.629-0.961-2.169-0.562-3.702
			c0.236-0.909,0.125-1.909-0.085-2.673c0.396-0.016,0.854-0.032,1.356-0.045c1.677-0.044,0.624,0.642,1.777,1.309
			c1.153,0.667,1.169,0.769,2.687,1.064s3.917-1.227,5.503-3.256c1.585-2.029,0.747-2.007,0.844-3.452
			C293.509,274.05,292.59,275.621,292.59,275.621z"/>
		<path fill="#3F2C1E" d="M314.66,274.75"/>
		<path fill="#DAE551" d="M259.21,323.135c0.34,0.159,20.385,7.555,20.385,7.555s-0.276,3.482-0.167,4.202
			c0.109,0.72,0.434,1.018-1.782,1.67c-2.216,0.653-4.77,2.197-5.525,2.418c-0.756,0.22-5.027,2.237-5.668,2.86
			c-0.642,0.625-2.037-0.073-2.037-0.073s0.897-3.963,1.057-4.303c0.159-0.34-1.048-2.05-1.869-3.293
			c-0.82-1.244-2.458-5.099-3.549-5.354c-1.091-0.255-3.32-1.645-3.32-1.645L259.21,323.135z"/>
		<path opacity="0.7" fill="#FFFFFF" enable-background="new    " d="M406.165,394.222c-0.434-0.08-0.807-0.194-1.143-0.328
			c-2.481-0.998-2.871-3.128-10.439-1.465c-8.587,1.887-8.521,7.663-14.774,5.788c-6.254-1.877-6.959-5.15-22.658-4.23
			c-15.7,0.917-5.977,5.665-23.292,5.589c-17.309-0.078-27.506,0.653-33.436-2.584c-5.93-3.238,3.832,0.413-18.44,0.707
			c-22.274,0.293-17.591,7.609-29.079,6.094c-11.488-1.517-25.119,2.938-31.597-0.321c-6.477-3.258-33.02-5.042-27.188-8.131
			c7.285-3.857,30.728-13.728,33.845-8.668c3.115,5.06,7.591,10.442,11.259,7.827c3.667-2.615,5.973-5.555,8.738-6.005
			c2.763-0.448,6.322-0.046,6.322-0.046s2.156,1.177,4.608,1.816c2.451,0.637,3.881-0.959,8.09-3.281
			c4.207-2.322,11.057-1.797,14.527,1.076c3.469,2.874,7.772,5.503,18.9,1.784c11.126-3.721,11.743-5.561,18.224-2.333
			c6.479,3.229,0.558,7.411,9.938,6.377c9.382-1.035,15.284-4.67,17.432-3.218c2.145,1.452-3.894,1.235,6.028,0.494
			c9.921-0.738,12.748-4.158,16.928,0.064c4.177,4.222,10.056,6.136,12.637,3.207c2.577-2.93-0.536-8.017,6.226-5.01
			c6.76,3.005,13.694-3.898,16.15-0.781C406.426,391.758,406.165,394.222,406.165,394.222z"/>
		<path fill="#DAE551" d="M271.57,295.304c0,0,1.742-0.049,1.879-0.068c0.137-0.019,2.643-0.172,2.643-0.172l0.908-0.409v0.533
			c0,0-0.541,0.612-0.619,0.829c-0.079,0.217-0.477,0.592-0.398,1.006s-0.239,0.572,0.038,0.809
			c0.276,0.237,0.246,0.434,0.522,0.533c0.276,0.099,0.221,0.217,0.261,0.099c0.04-0.118,0.131-0.276,0.131-0.414
			c0-0.139,0.253,0.039-0.004-0.139c-0.256-0.177-0.239-0.138-0.436-0.315c-0.197-0.178-0.277-0.257-0.316-0.533
			c-0.04-0.276-0.159-0.266-0.021-0.478c0.138-0.212,0.356-0.45,0.434-0.646c0.079-0.197,0.138-0.352,0.158-0.57
			c0.02-0.219,0.02-0.199,0-0.416c-0.02-0.217-0.158-0.315-0.02-0.217c0.138,0.098,0.75,0.611,0.75,0.789
			c0,0.178-0.079,0.237,0,0.257c0.079,0.02,0.157,0.079,0.197-0.059c0.04-0.138-0.02-0.118,0-0.276
			c0.02-0.158,0.126-0.138,0.014-0.316c-0.112-0.177-0.152-0.256-0.231-0.296c-0.079-0.039-0.473-0.375-0.473-0.375
			s0.04-0.178,0.138-0.099c0.098,0.079,0.444,0.316,0.616,0.355c0.172,0.039,0.942,0.237,0.942,0.237l-0.157-0.296
			c0,0-0.354,0.03-0.455-0.143c-0.102-0.173-0.314-0.311-0.433-0.331c-0.118-0.02-0.158-0.079-0.454-0.119
			c-0.296-0.039-0.355-0.158-0.355-0.158c-0.079-0.118-0.139-0.217-0.276-0.177c-0.138,0.039-0.158-0.06-0.237,0.118
			c-0.079,0.178-0.118,0.197-0.118,0.296s0.04,0.256,0.04,0.256s0.296-0.158-0.02,0.079c-0.315,0.237-0.829,0.336-0.967,0.316
			s0.059,0.039-0.888-0.02c-0.947-0.059-1.834-0.02-2.505,0.02c-0.671,0.039-1.361-0.02-1.44-0.02s-0.38-0.058-0.651,0.059
			s-0.947,0.257-0.947,0.257l-0.159,0.221L271.57,295.304z"/>
		<path fill="#DAE551" d="M261.534,306.255c0,0,1.169-0.343,1.318-0.363c0.149-0.021,1.518-0.311,1.518-0.311
			s0.773,2.854,0.892,2.973c0.118,0.118,0.425,0.568,0.623,0.785c0.197,0.217,0.746,0.788,0.786,0.867c0,0,0.491,1.558,0.51,1.617
			c0.02,0.059,0,0.65,0,0.769c0,0,1.131,0.237,1.345,0.316c0.213,0.079,2.976,0.295,3.331,0.275
			c0.355-0.019,2.288-0.217,2.782-0.236c0.494-0.02,0.829-0.139,0.967-0.119s0.71-0.119,0.888-0.04c0.178,0.079,0.986,0,1.045,0.04
			c0.06,0.04,0.256,0.02,0.395-0.059s0.69-0.256,0.75-0.276s0.474-0.138,0.474-0.138s0.315-0.118,0.276-0.197
			c-0.04-0.079-0.092-0.139,0.003-0.198s0.647-0.316,0.747-0.138c0.1,0.178,0.118,0.375,0.118,0.375
			c0.139,0.059,0.198,0.06,0.435,0.02c0.237-0.04,0.059,0,0.414-0.119c0.355-0.118,0.651-0.335,0.651-0.335
			s-0.207-0.059-0.029-0.099c0.178-0.039,0.228-0.237,0.228-0.237v-0.138l0.54-0.276l0.46-0.099v0.375c0,0-0.639,0.454-0.777,0.573
			c-0.139,0.118-0.182,0.099-0.517,0.355c-0.335,0.256-0.613,0.533-0.851,0.572c-0.236,0.04-0.464-0.039-0.464-0.039
			s-0.074,0.18-0.055,0.435s-0.274,0.433,0.041,0.611c0.316,0.177,0.692,0.375,0.692,0.375s0.435,0.138,0.494,0.138
			s0.059-0.158,0.059,0.079c0,0.237-0.059,0.572-0.059,0.572c-0.237-0.177-0.217-0.473-0.513-0.493c-0.296-0.02,0,0.276-0.296-0.02
			c-0.296-0.296-0.75-0.336-0.81-0.612c-0.059-0.276-0.079-0.375-0.118-0.631c-0.04-0.256,0-0.474-0.119-0.375
			c-0.118,0.099-0.295,0.513-0.315,0.947s-0.296,1.125-0.079,1.263s0.573,0.205,0.671,0.261c0.098,0.055,0.395,0.115,0.533,0.154
			c0.138,0.039,0.355,0.079,0.474,0.158c0.118,0.079,0.138,0.296,0.039,0.296c-0.099,0-0.651,0.099-1.045-0.099
			c-0.395-0.197-0.631-0.335-0.71-0.375c-0.079-0.039-0.257-0.04-0.316-0.355s-0.099-0.592-0.059-0.809
			c0.039-0.217-0.04-0.138,0.039-0.493s0.099-0.532,0.138-0.611c0.04-0.079,0.099-0.316,0.099-0.316s-1.361,0.295-1.618,0.335
			c-0.257,0.04-0.671,0.158-1.855,0.158s-2.21,0.178-2.841,0.237c-0.631,0.059-2.585,0.434-3.414,0.197
			c-0.829-0.237-1.934-0.552-2.309-0.631s-1.283-0.079-1.993-0.158c-0.71-0.079-1.25,0.177-1.342,0.197
			c-0.092,0.02-2.549-1.099-2.271-5.542l-0.116-1.305L261.534,306.255z"/>
	</g>
	<g id="nedador">
		<path opacity="0.7" fill="#FFFFFF" enable-background="new    " d="M531.735,445.686c1.904-1.973,6.188,3.258,11.048,1.663
			c4.857-1.595,2.36,1.685,3.93,3.879c1.57,2.193,5.744,1.287,8.91-1.322c3.169-2.61,4.874-0.062,11.642,1.138
			c6.77,1.199,2.604,0.928,4.18,0.081c1.577-0.849,5.381,2.062,11.76,3.428c6.376,1.366,2.596-1.923,7.274-3.688
			c4.681-1.769,4.979-0.46,12.365,2.875c7.392,3.332,10.53,1.826,13.116,0.093c2.585-1.733,7.332-1.616,10.062,0.272
			c2.729,1.89,3.603,3.088,5.331,2.82c1.729-0.27,3.294-0.929,3.294-0.929s2.476-0.027,4.344,0.474
			c1.869,0.501,3.249,2.686,5.588,4.736c2.34,2.056,4.937,5.186,7.431,1.925c2.496-3.261,7.527-0.569,12.27,2.591
			c3.791,2.529-3.328,1.115-8.009,2.903c-4.682,1.787-13.741-2.226-21.743-1.984c-8.004,0.241-4.274-4.462-19.565-6.218
			c-15.291-1.755-8.325-3.584-12.628-1.771c-4.301,1.812-11.26,0.598-23.163-0.557c-11.911-1.154-4.895-3.74-15.623-5.467
			c-10.727-1.728-11.439,0.472-15.871,1.327c-4.429,0.853-3.979-3.113-9.753-5.011c-5.086-1.669-5.503-0.234-7.276,0.279
			c-0.241,0.068-0.505,0.119-0.81,0.146C529.837,449.369,529.83,447.657,531.735,445.686z"/>
		<path fill="#EFD2AF" d="M616.5,459.295c0,0,12.429-4.429,14.012-4.057c1.584,0.37,5.258,0.673,6.951,0.882
			c1.694,0.208,3.391,0.396,4.696-0.602c1.305-0.997,7.026-3.972,7.791-4.285c0.765-0.314-0.627-5.021-1.48-6.851
			s-5.896-12.707-6.102-16.082c-0.202-3.377-1.919-3.416-2.119-3.982c-0.198-0.569-2.358-2.093-3.236-2.306
			c-0.879-0.214-10.319-7.847-12.016-7.339s-5.418,4.854-5.541,5.102c-0.122,0.244-0.246,1.224-1.699,1.265
			c-1.455,0.043-2.481,0.999-2.481,0.999s-1.485,0.987-1.854,1.031s-1.576,1.701-2.121,1.723c-0.547,0.021-1.503-1.007-1.021-1.941
			c0.481-0.936,1.788-1.947,2.485-2.445c0.697-0.499,2.95-1.117,3.035-1.786c0.086-0.669-1.597-1.685-2.313-1.736
			c-0.72-0.055-5.726,0.756-6.827,0.57c-1.102-0.187-3.756,0.039-4.045,0.175c-0.288,0.133-2.227-0.303-2.948-1.023
			c-0.724-0.725-1.324-1.69-1.597-1.688s-0.57-1.213-0.447-1.469c0.124-0.256,5.925-3.139,5.925-3.139s1.861-1.645,2.008-1.816
			c0.148-0.173,0.896-1.072,1.61-0.982c0.712,0.092,3.729,0.565,4.989,0.637c1.259,0.07,4.204-1.004,6.021-1.045
			c1.815-0.039,5.507-1.289,6.068-0.72s3.144,1.623,4.47,1.883c1.326,0.261,15.689,4.084,16.245,4.698s6.974,9.945,7.47,10.325
			c0.494,0.38,5.347,12.047,5.913,12.572c0.567,0.524,10.063,10.977,9.823,15.291c-0.025,0.452,0.771,3.177,0.771,3.177
			s4.999,6.25,5.738,6.843c0.739,0.595,2.341-1.311,2.685-1.164c0.344,0.148,3.014-3.042,4.828-2.358
			c1.814,0.685,2.651,0.519,2.651,0.519s0.713,0.093,1.259,0.07c0.546-0.021,2.948,0.114,5.175,1.123
			c2.226,1.008,4.952,3.126,5.494,3.842c0.543,0.718,2.331,3.207,2.315,4.049c-0.018,0.841,0.24,1.698-0.505,1.874
			c-0.747,0.177-1.979,0.504-2.496,1.026c-0.521,0.521-4.166,1.409-6.424,2.075c-2.259,0.666-3.773,0.474-5.802,0.033
			c-2.025-0.439-4.025-0.384-5.93-0.374c-1.902,0.011-7.306,1.193-10.9,0.977c-3.596-0.218-10.537-2.581-11.94-1.522
			c-1.403,1.06-2.349,2.073-5.347,1.44c-2.998-0.632-12.562-3.754-14.812-4.585c-2.248-0.829-16.883-4.578-18.704-6.624
			C614.399,459.525,616.5,459.295,616.5,459.295z"/>
		<path opacity="0.7" fill="#FFFFFF" enable-background="new    " d="M495.025,441.256c1.904-1.973,6.188,3.257,11.048,1.663
			c4.857-1.595,2.36,1.684,3.93,3.879c1.57,2.193,5.744,1.287,8.91-1.323c3.169-2.609,4.874-0.062,11.642,1.139
			c6.77,1.199,2.604,0.928,4.18,0.081c1.578-0.85,5.381,2.062,11.76,3.428c6.376,1.366,2.596-1.923,7.275-3.689
			c4.68-1.768,4.978-0.46,12.364,2.875c7.392,3.332,10.53,1.826,13.116,0.094c2.585-1.733,7.332-1.616,10.062,0.272
			c2.729,1.89,3.603,3.087,5.33,2.82c1.73-0.271,3.295-0.929,3.295-0.929s2.476-0.027,4.344,0.474
			c1.869,0.501,3.249,2.685,5.588,4.736c2.34,2.056,4.937,5.186,7.431,1.925c2.496-3.261,7.527-0.569,12.27,2.591
			c3.791,2.529-3.328,1.115-8.009,2.903c-4.682,1.787-13.741-2.227-21.743-1.984c-8.004,0.241-4.274-4.462-19.565-6.218
			c-15.291-1.755-8.325-3.584-12.628-1.771c-4.301,1.812-11.26,0.599-23.163-0.556c-11.911-1.155-4.895-3.741-15.623-5.467
			c-10.727-1.729-11.439,0.472-15.871,1.327c-4.429,0.853-3.979-3.113-9.753-5.012c-5.086-1.669-5.503-0.233-7.276,0.28
			c-0.241,0.068-0.506,0.119-0.81,0.146C493.127,444.939,493.12,443.228,495.025,441.256z"/>
		<path fill="#C9A57D" d="M669.392,465.276c-0.612,0.631-0.956,0.843-0.65,1.451c0.305,0.609,1.442,1.246,1.686,1.426
			c0.243,0.179,1.023-0.446,0.981-1.369c-0.041-0.923-0.162-1.597,0.104-2.084c0.268-0.488-0.377-1.005-0.377-1.005l-0.467,1.049
			L669.392,465.276z"/>
		<path opacity="0.8" fill="#FFFFFF" enable-background="new    " d="M543.179,452.721c1.905-1.973,6.188,3.257,11.048,1.663
			c4.858-1.595,2.361,1.685,3.931,3.879c1.569,2.193,5.744,1.287,8.91-1.322c3.169-2.61,4.874-0.062,11.642,1.138
			c6.769,1.199,2.604,0.928,4.179,0.081c1.578-0.85,5.381,2.062,11.761,3.428c6.376,1.366,2.596-1.923,7.274-3.688
			c4.681-1.769,4.979-0.46,12.365,2.875c7.391,3.332,10.53,1.825,13.116,0.093c2.585-1.733,7.332-1.616,10.062,0.272
			c2.73,1.89,3.604,3.087,5.331,2.82c1.73-0.27,3.294-0.929,3.294-0.929s2.477-0.027,4.345,0.474s3.248,2.686,5.588,4.736
			c2.34,2.056,4.937,5.186,7.431,1.925c2.496-3.261,7.527-0.569,12.269,2.591c3.791,2.529-3.327,1.115-8.009,2.903
			c-4.681,1.787-13.741-2.227-21.743-1.984c-8.004,0.241-4.273-4.462-19.564-6.218c-15.291-1.755-8.325-3.584-12.628-1.771
			c-4.301,1.812-11.26,0.599-23.163-0.556c-11.911-1.155-4.896-3.741-15.623-5.467c-10.727-1.729-11.44,0.472-15.871,1.327
			c-4.429,0.853-3.979-3.113-9.753-5.011c-5.086-1.67-5.503-0.234-7.277,0.279c-0.24,0.068-0.505,0.119-0.809,0.146
			C541.28,456.404,541.273,454.692,543.179,452.721z"/>
		<path fill="#ED669D" d="M684.758,457.724c0,0,0.218,2.514,0.504,3.527c0.287,1.014,1.611,4.836,1.611,4.836
			s0.243,1.924-0.112,2.408c-0.354,0.482-0.545,4.14-0.358,4.147c0.185,0.01,13.799-2.522,13.82-3.022
			c0.023-0.499-0.32-3.854-1.096-5.142C698.354,463.192,695.754,458.066,684.758,457.724z"/>
		<path fill="#5A5A72" d="M676.849,459.181c-0.421,0.074-0.736,2.229,0.403,2.449c1.143,0.219,2.033,0.511,2.118,1.517
			c0.084,1.005-1.403,4.272-0.87,5.383c0.533,1.107,3.559,2.418,4.301,2.619c0.741,0.199,2.569,0.346,1.506-3.696
			c-1.062-4.042-2.639-3.438-3.042-5.219c-0.221-0.976,0.078-0.413,0.455-1.646c0.377-1.234,0.516-2.549-0.234-3.073
			C679.527,456.146,676.849,459.181,676.849,459.181z"/>
		<path fill="#27258C" d="M680.957,464.137c0,0,2.209,0.938,2.572,3.874c0.217,1.744-0.438,2.231-0.864,2.462
			c-0.428,0.23-2.403-0.359-3.162-1.98S679.428,464.733,680.957,464.137z"/>
		<path fill="#27258C" d="M679.843,461.165c0,0,2.08-1.655,1.449-2.437c-0.632-0.779-1.517-1.494-2.028-1.265
			c-0.511,0.23-1.799,1.028-1.831,1.726c-0.031,0.694-0.417,1.761,0.413,1.883C678.675,461.195,679.843,461.165,679.843,461.165z"/>
		<path fill="#FFFFFF" d="M651.651,472.911c0.108,0.018,0.206,0.044,0.292,0.075c0.64,0.235,0.754,0.773,2.669,0.297
			c2.173-0.544,2.112-2.014,3.72-1.582c1.605,0.433,1.81,1.262,5.799,0.911c3.99-0.349,1.48-1.485,5.891-1.593
			c4.406-0.106,6.998-0.367,8.529,0.414c1.534,0.78-0.978-0.077,4.69-0.314c5.667-0.237,4.423-2.066,7.357-1.764
			c2.936,0.302,6.375-0.933,8.046-0.147c1.674,0.78,4.33,0.45,2.868,1.278c-1.826,1.037-3.748,1.891-4.579,0.627
			c-0.83-1.268-1.869-0.185-2.782,0.509c-0.915,0.69-1.48,1.457-2.182,1.592s-1.608,0.06-1.608,0.06s-0.559-0.284-1.188-0.432
			c-0.629-0.144-0.979,0.274-2.035,0.896c-1.054,0.621-2.802,0.538-3.706-0.167c-0.902-0.707-2.02-1.346-4.823-0.316
			c-2.807,1.029-2.95,1.502-4.624,0.728c-1.675-0.773-0.195-1.884-2.577-1.552c-2.38,0.332-3.855,1.303-4.413,0.947
			c-0.558-0.354,0.98-0.342-1.539-0.082c-2.521,0.26-3.215,1.152-4.312,0.107c-1.095-1.044-2.604-1.489-3.238-0.726
			c-0.636,0.767,0.193,2.038-1.55,1.321c-1.743-0.716-3.458,1.093-4.104,0.317C651.604,473.541,651.651,472.911,651.651,472.911z"/>
	</g>
</g>
<g id="Capa_3">
</g>
</svg>
