<?xml version="1.0" encoding="utf-8"?>
<!-- Generator: Adobe Illustrator 16.0.0, SVG Export Plug-In . SVG Version: 6.00 Build 0)  -->
<!DOCTYPE svg PUBLIC "-//W3C//DTD SVG 1.1//EN" "http://www.w3.org/Graphics/SVG/1.1/DTD/svg11.dtd">
<svg version="1.1" xmlns="http://www.w3.org/2000/svg" xmlns:xlink="http://www.w3.org/1999/xlink" x="0px" y="0px" width="800px"
	 height="800px" viewBox="0 0 800 800" enable-background="new 0 0 800 800" xml:space="preserve">
<g id="Capa_1">
	<rect x="-23" y="-33" fill="#42C9CC" width="840" height="843"/>
	<rect x="-4" y="-46" fill="#A0A0A0" width="496" height="110"/>
	<rect x="-4" y="722" fill="#A0A0A0" width="814" height="113"/>
</g>
<g id="Sortida_2">
	<g>
		<path fill="#E5E5E5" d="M344.377,554h-55.421l-1.023,66.082c0,0-5.114,54.752,28.827,73.536
			c32.825-18.039,29.105-72.18,29.105-72.18L344.377,554z"/>
		<path fill="#E2E2E2" d="M316.824,679.358c0,0-23.936,1.155-24.772-46.676c-0.836-47.831,2.541-52.683,2.541-52.683h44.578
			l1.83,14.064v41.121C341,635.186,339.686,677.905,316.824,679.358z"/>
		<path fill="#CECECE" d="M316.666,679.653c18.546,0.353,24.418-23.357,25.908-45.751l-0.614-37.103l-0.93-26.782l-14.413-3.347
			l-2.325,2.767l-15.437-0.069c0,0-1.952-2.325-2.417-2.325c-2.62,0-14.137,3.162-14.137,3.162s-0.411,18.182-0.604,26.365
			c-0.007,0.277-1.059,36.871-1.044,37.332C291.444,656.253,296.5,679.27,316.666,679.653z M292.536,597.357
			c-0.093-0.604,2.371-25.386,2.371-25.386s9.634-1.784,12.106-1.784c0.44,0,2.283,2.223,2.283,2.223l14.572,0.066l2.194-2.645
			l12.829,2.14l2.139,25.354c0.31,22.007-0.121,22.318,0,36.576c-1.694,21.847-8.37,45.055-24.611,44.635
			c-16.139-0.416-22.679-23.039-24.117-44.635C292.313,633.065,292.721,597.729,292.536,597.357z"/>
		<path fill="#BABABA" d="M306.788,631.345l2.676,3.093l6.536,1.102V636h0.619h0.093H317v-0.461l6.807-1.102l3.109-3.093
			c1.673-1.209,2.084-7.299,2.084-7.299v-11.299l-1.238-2.465l-8.291,1.442l-2.775,4.365l-2.757-4.365l-8.026-1.442L305,612.747
			v11.299C305,624.046,305.114,630.136,306.788,631.345z"/>
		<path fill="#C6C6C6" d="M305.693,616.128c0.023,0.349,3.302,5.377,3.302,5.377l15.081,0.096l3.924-5.366v-0.744v-0.372v-0.372V611
			h-22.307C305.693,611,305.67,615.779,305.693,616.128z"/>
		<path fill="#29ABE2" d="M307.988,626h7.516h2.868h6.772c0,0,2.172-3.021,2.526-10.532c0.002-0.044-0.388-0.073-0.388-0.073
			c-0.987,1.387-3.191,5.118-3.191,5.118l-7.153,0.035l-7.896-0.044c0,0-2.205-3.746-3.192-5.133c0,0-0.39,0.055-0.388,0.098
			C305.816,622.98,307.988,626,307.988,626z"/>
		<g id="Timó_18_">
			<path d="M324.803,612.293c0-3.023-9.96-3.242-9.96,0.026C314.843,615.191,324.803,615.462,324.803,612.293z M323.936,612.325
				c0,2.161-8.228,1.977-8.228,0.02C315.708,610.117,323.936,610.266,323.936,612.325z"/>
			<path d="M321.072,613.979c0,0-0.023-0.941-1.151-0.93c-1.128,0.011-0.977,0.848-1,0.93
				C318.897,614.061,321.072,613.979,321.072,613.979z"/>
			<polygon points="320.281,614 320.571,611 319.084,611 319.479,614 			"/>
			<path d="M319.27,613.7c-0.023,0-3.638-1.581-3.638-1.581l-0.139,0.931l3.662,1.093L319.27,613.7z"/>
			<path d="M320.519,613.7c0.023,0,3.481-1.581,3.481-1.581v0.931l-3.391,1.093L320.519,613.7z"/>
		</g>
		<g id="Tapiceria_18_">
			<path fill="#E8CDA0" d="M292.301,633.902c0,0,12.181-0.093,14.878,12.832c2.697,12.926,4.278,30.687,4.464,31.059
				C311.829,678.165,293.603,673.701,292.301,633.902z"/>
			<path fill="#E8CDA0" d="M341.029,633.902c0,0-12.181-0.093-14.878,12.832c-2.696,12.926-4.277,30.687-4.463,31.059
				C321.501,678.165,339.728,673.701,341.029,633.902z"/>
			<path fill="#E8CDA0" d="M340.1,583.223c0,0,0.891,2.998-2.047,1.953c-9.67-3.44-32.452-4.185-42.682,0.185
				c-2.144,0.916-2.11,0.376-2.046-1.069c0.049-1.082,1.581-12.319,1.581-12.319s17.482-6.696,43.984,0L340.1,583.223z"/>
			<path fill="#E8CDA0" d="M305,596.526c0-0.62,0.971-1.526,1.832-1.526h19.62c0.861,0,1.548,0.906,1.548,1.526v6.544
				c0,0.619-0.687,0.93-1.548,0.93h-19.62c-0.861,0-1.832-0.311-1.832-0.93V596.526z"/>
		</g>
		<circle fill="#3B59AD" cx="349.26" cy="645.07" r="4.908"/>
		<circle fill="#3B59AD" cx="284.008" cy="645.07" r="4.908"/>
		<circle fill="#3B59AD" cx="284.008" cy="590.791" r="4.908"/>
		<circle fill="#3B59AD" cx="349.837" cy="590.213" r="4.908"/>
	</g>
	<g>
		<path fill="#E5E5E5" d="M31.377,554h-55.421l-1.023,66.082c0,0-5.114,54.752,28.827,73.536
			c32.825-18.039,29.105-72.18,29.105-72.18L31.377,554z"/>
		<path fill="#E2E2E2" d="M3.824,679.358c0,0-23.936,1.155-24.772-46.676C-21.785,584.852-18.408,580-18.408,580H26.17L28,594.064
			v41.121C28,635.186,26.686,677.905,3.824,679.358z"/>
		<path fill="#CECECE" d="M3.666,679.653c18.546,0.353,24.418-23.357,25.908-45.751L28.959,596.8l-0.93-26.782l-14.413-3.347
			l-2.325,2.767l-15.437-0.069c0,0-1.952-2.325-2.417-2.325c-2.62,0-14.137,3.162-14.137,3.162s-0.411,18.182-0.604,26.365
			c-0.007,0.277-1.059,36.871-1.044,37.332C-21.556,656.253-16.5,679.27,3.666,679.653z M-20.464,597.357
			c-0.093-0.604,2.371-25.386,2.371-25.386s9.634-1.784,12.106-1.784c0.44,0,2.283,2.223,2.283,2.223l14.572,0.066l2.194-2.645
			l12.829,2.14l2.139,25.354c0.31,22.007-0.121,22.318,0,36.576c-1.694,21.847-8.37,45.055-24.611,44.635
			c-16.139-0.416-22.679-23.039-24.117-44.635C-20.687,633.065-20.279,597.729-20.464,597.357z"/>
		<path fill="#BABABA" d="M-6.212,631.345l2.676,3.093L3,635.539V636h0.619h0.093H4v-0.461l6.807-1.102l3.109-3.093
			c1.673-1.209,2.084-7.299,2.084-7.299v-11.299l-1.238-2.465l-8.291,1.442l-2.775,4.365l-2.757-4.365l-8.026-1.442L-8,612.747
			v11.299C-8,624.046-7.886,630.136-6.212,631.345z"/>
		<path fill="#C6C6C6" d="M-7.307,616.128c0.023,0.349,3.302,5.377,3.302,5.377l15.081,0.096L15,616.234v-0.744v-0.372v-0.372V611
			H-7.307C-7.307,611-7.33,615.779-7.307,616.128z"/>
		<path fill="#29ABE2" d="M-5.012,626h7.516h2.868h6.772c0,0,2.172-3.021,2.526-10.532c0.002-0.044-0.388-0.073-0.388-0.073
			c-0.987,1.387-3.191,5.118-3.191,5.118l-7.153,0.035l-7.896-0.044c0,0-2.205-3.746-3.192-5.133c0,0-0.39,0.055-0.388,0.098
			C-7.184,622.98-5.012,626-5.012,626z"/>
		<g id="Timó_17_">
			<path d="M11.803,612.293c0-3.023-9.96-3.242-9.96,0.026C1.843,615.191,11.803,615.462,11.803,612.293z M10.936,612.325
				c0,2.161-8.228,1.977-8.228,0.02C2.708,610.117,10.936,610.266,10.936,612.325z"/>
			<path d="M8.072,613.979c0,0-0.023-0.941-1.151-0.93c-1.128,0.011-0.977,0.848-1,0.93C5.897,614.061,8.072,613.979,8.072,613.979z
				"/>
			<polygon points="7.281,614 7.571,611 6.084,611 6.479,614 			"/>
			<path d="M6.27,613.7c-0.023,0-3.638-1.581-3.638-1.581l-0.139,0.931l3.662,1.093L6.27,613.7z"/>
			<path d="M7.519,613.7c0.023,0,3.481-1.581,3.481-1.581v0.931l-3.391,1.093L7.519,613.7z"/>
		</g>
		<g id="Tapiceria_17_">
			<path fill="#E8CDA0" d="M-20.699,633.902c0,0,12.181-0.093,14.878,12.832c2.697,12.926,4.278,30.687,4.464,31.059
				C-1.171,678.165-19.397,673.701-20.699,633.902z"/>
			<path fill="#E8CDA0" d="M28.029,633.902c0,0-12.181-0.093-14.878,12.832c-2.696,12.926-4.277,30.687-4.463,31.059
				C8.501,678.165,26.728,673.701,28.029,633.902z"/>
			<path fill="#E8CDA0" d="M27.1,583.223c0,0,0.891,2.998-2.047,1.953c-9.67-3.44-32.452-4.185-42.682,0.185
				c-2.144,0.916-2.11,0.376-2.046-1.069c0.049-1.082,1.581-12.319,1.581-12.319s17.482-6.696,43.984,0L27.1,583.223z"/>
			<path fill="#E8CDA0" d="M-8,596.526c0-0.62,0.971-1.526,1.832-1.526h19.62c0.861,0,1.548,0.906,1.548,1.526v6.544
				c0,0.619-0.687,0.93-1.548,0.93h-19.62C-7.029,604-8,603.689-8,603.07V596.526z"/>
		</g>
		<circle fill="#3B59AD" cx="36.26" cy="645.07" r="4.908"/>
		<circle fill="#3B59AD" cx="-28.992" cy="645.07" r="4.908"/>
		<circle fill="#3B59AD" cx="-28.992" cy="590.791" r="4.908"/>
		<circle fill="#3B59AD" cx="36.837" cy="590.213" r="4.908"/>
	</g>
	<g>
		<path fill="#E5E5E5" d="M508.021,553h-55.421l-1.024,66.121c0,0-5.113,54.773,28.827,73.558
			c32.825-18.039,29.104-72.211,29.104-72.211L508.021,553z"/>
		<path fill="#E2E2E2" d="M480.146,678.439c0,0-23.774,1.115-24.611-46.716c-0.836-47.832,2.701-52.724,2.701-52.724h44.578
			L504,593.146v41.121C504,634.267,503.008,676.985,480.146,678.439z"/>
		<path fill="#CECECE" d="M480.31,678.733c18.546,0.354,24.419-23.356,25.908-45.751l-0.614-37.103l-0.93-26.781l-14.414-3.347
			l-2.324,2.766l-15.437-0.069c0,0-1.952-2.325-2.417-2.325c-2.62,0-14.137,3.162-14.137,3.162s-0.411,18.183-0.604,26.366
			c-0.007,0.277-1.06,36.871-1.044,37.331C455.088,655.334,460.144,678.351,480.31,678.733z M456.18,596.438
			c-0.093-0.605,2.371-25.386,2.371-25.386s9.635-1.784,12.105-1.784c0.44,0,2.283,2.222,2.283,2.222l14.572,0.066l2.194-2.644
			l12.829,2.14l2.139,25.354c0.31,22.007-0.121,22.317,0,36.575c-1.694,21.848-8.37,45.056-24.611,44.636
			c-16.14-0.417-22.68-23.04-24.117-44.636C455.957,632.146,456.365,596.811,456.18,596.438z"/>
		<path fill="#BABABA" d="M470.61,630.426l2.765,3.092l6.625,1.102V635h0.264h0.093H481v-0.381l6.629-1.102l3.197-3.092
			c1.674-1.209,2.174-7.299,2.174-7.299v-11.299l-1.416-2.465l-8.381,1.441l-2.818,4.365l-2.779-4.365l-7.86-1.441L469,611.828
			v11.299C469,623.127,468.936,629.217,470.61,630.426z"/>
		<path fill="#C6C6C6" d="M469.337,615.168c0.023,0.349,3.302,5.398,3.302,5.398l15.26,0.104l4.102-5.356v-0.744v-0.371v-0.372V610
			h-22.663C469.337,610,469.314,614.82,469.337,615.168z"/>
		<path fill="#29ABE2" d="M471.632,625h7.517h2.867h6.772c0,0,2.172-2.98,2.525-10.492c0.003-0.043-0.388-0.054-0.388-0.054
			c-0.988,1.388-3.192,5.129-3.192,5.129l-7.152,0.04l-7.896-0.042c0,0-2.205-3.743-3.192-5.13c0,0-0.39,0.014-0.388,0.057
			C469.46,622.02,471.632,625,471.632,625z"/>
		<g id="Timó_16_">
			<path d="M488.447,611.373c0-3.022-9.96-3.241-9.96,0.027C478.487,614.272,488.447,614.543,488.447,611.373z M487.58,611.406
				c0,2.16-8.228,1.977-8.228,0.02C479.353,609.198,487.58,609.347,487.58,611.406z"/>
			<path d="M484.717,613.061c0,0-0.023-0.941-1.151-0.93c-1.128,0.01-0.977,0.847-1,0.93
				C482.542,613.142,484.717,613.061,484.717,613.061z"/>
			<polygon points="483.926,613 484.215,610 482.729,610 483.124,613 			"/>
			<path d="M482.913,612.781c-0.022,0-3.638-1.581-3.638-1.581l-0.139,0.931l3.662,1.092L482.913,612.781z"/>
			<path d="M484.341,612.781c0.023,0,3.659-1.581,3.659-1.581v0.931l-3.48,1.092L484.341,612.781z"/>
		</g>
		<g id="Tapiceria_16_">
			<path fill="#E8CDA0" d="M455.945,632.982c0,0,12.182-0.092,14.879,12.833c2.696,12.925,4.277,30.687,4.463,31.058
				C475.474,677.246,457.247,672.782,455.945,632.982z"/>
			<path fill="#E8CDA0" d="M504.674,632.982c0,0-12.182-0.092-14.879,12.833c-2.696,12.925-4.277,30.687-4.463,31.058
				C485.146,677.246,503.372,672.782,504.674,632.982z"/>
			<path fill="#E8CDA0" d="M503.744,582.304c0,0,0.891,2.998-2.047,1.952c-9.67-3.439-32.452-4.185-42.682,0.186
				c-2.144,0.916-2.109,0.376-2.046-1.069c0.05-1.083,1.581-12.319,1.581-12.319s17.482-6.696,43.984,0L503.744,582.304z"/>
			<path fill="#E8CDA0" d="M469,595.607c0-0.621,0.615-1.607,1.477-1.607h19.619c0.861,0,1.904,0.986,1.904,1.607v6.544
				c0,0.618-1.043,0.849-1.904,0.849h-19.619c-0.861,0-1.477-0.23-1.477-0.849V595.607z"/>
		</g>
		<circle fill="#3B59AD" cx="512.903" cy="644.151" r="4.908"/>
		<circle fill="#3B59AD" cx="447.652" cy="644.151" r="4.908"/>
		<circle fill="#3B59AD" cx="447.652" cy="589.871" r="4.908"/>
		<circle fill="#3B59AD" cx="513.481" cy="589.294" r="4.909"/>
	</g>
	<g>
		<path fill="#E5E5E5" d="M177.975,554h-55.421l-1.023,66.082c0,0-5.114,54.752,28.827,73.536
			c32.825-18.039,29.105-72.18,29.105-72.18L177.975,554z"/>
		<path fill="#E2E2E2" d="M150.123,679.358c0,0-23.786,1.155-24.623-46.676c-0.837-47.831,2.69-52.683,2.69-52.683h44.578
			L174,594.064v41.121C174,635.186,172.984,677.905,150.123,679.358z"/>
		<path fill="#CECECE" d="M150.264,679.653c18.546,0.353,24.418-23.357,25.908-45.751l-0.614-37.103l-0.93-26.782l-14.413-3.347
			l-2.324,2.767l-15.437-0.069c0,0-1.952-2.325-2.417-2.325c-2.62,0-14.137,3.162-14.137,3.162s-0.411,18.182-0.603,26.365
			c-0.007,0.277-1.06,36.871-1.044,37.332C125.042,656.253,130.097,679.27,150.264,679.653z M126.133,597.357
			c-0.092-0.604,2.371-25.386,2.371-25.386s9.634-1.784,12.106-1.784c0.44,0,2.283,2.223,2.283,2.223l14.572,0.066l2.194-2.645
			l12.829,2.14l2.138,25.354c0.31,22.007-0.121,22.318,0,36.576c-1.694,21.847-8.37,45.055-24.611,44.635
			c-16.139-0.416-22.679-23.039-24.117-44.635C125.911,633.065,126.319,597.729,126.133,597.357z"/>
		<path fill="#BABABA" d="M140.587,631.345l2.776,3.093l6.637,1.102V636h0.217h0.093H151v-0.461l6.606-1.102l2.709-3.093
			c1.673-1.209,1.685-7.299,1.685-7.299v-11.299l-0.939-2.465l-8.142,1.442l-2.7,4.365l-2.719-4.365l-7.807-1.442L139,612.747
			v11.299C139,624.046,138.913,630.136,140.587,631.345z"/>
		<path fill="#C6C6C6" d="M139.291,616.128c0.023,0.349,3.302,5.377,3.302,5.377l15.282,0.096l4.125-5.366v-0.744v-0.372v-0.372V611
			h-22.709C139.291,611,139.268,615.779,139.291,616.128z"/>
		<path fill="#29ABE2" d="M141.585,626h7.516h2.868h6.772c0,0,2.171-3.021,2.525-10.532c0.002-0.044-0.388-0.073-0.388-0.073
			c-0.987,1.387-3.191,5.118-3.191,5.118l-7.153,0.035l-7.895-0.044c0,0-2.205-3.746-3.193-5.133c0,0-0.39,0.055-0.388,0.098
			C139.414,622.98,141.585,626,141.585,626z"/>
		<g id="Timó_15_">
			<path d="M158.401,612.293c0-3.023-9.96-3.242-9.96,0.026C148.441,615.191,158.401,615.462,158.401,612.293z M157.534,612.325
				c0,2.161-8.228,1.977-8.228,0.02C149.307,610.117,157.534,610.266,157.534,612.325z"/>
			<path d="M154.67,613.979c0,0-0.023-0.941-1.151-0.93c-1.128,0.011-0.977,0.848-1,0.93
				C152.496,614.061,154.67,613.979,154.67,613.979z"/>
			<polygon points="153.879,614 154.169,611 152.682,611 153.077,614 			"/>
			<path d="M152.867,613.7c-0.023,0-3.638-1.581-3.638-1.581l-0.139,0.931l3.662,1.093L152.867,613.7z"/>
			<path d="M154.318,613.7c0.023,0,3.682-1.581,3.682-1.581v0.931l-3.491,1.093L154.318,613.7z"/>
		</g>
		<g id="Tapiceria_15_">
			<path fill="#E8CDA0" d="M125.899,633.902c0,0,12.182-0.093,14.878,12.832c2.697,12.926,4.278,30.687,4.464,31.059
				S127.201,673.701,125.899,633.902z"/>
			<path fill="#E8CDA0" d="M174.627,633.902c0,0-12.181-0.093-14.878,12.832c-2.696,12.926-4.277,30.687-4.463,31.059
				C155.099,678.165,173.325,673.701,174.627,633.902z"/>
			<path fill="#E8CDA0" d="M173.698,583.223c0,0,0.891,2.998-2.047,1.953c-9.67-3.44-32.452-4.185-42.681,0.185
				c-2.144,0.916-2.11,0.376-2.046-1.069c0.049-1.082,1.581-12.319,1.581-12.319s17.482-6.696,43.984,0L173.698,583.223z"/>
			<path fill="#E8CDA0" d="M139,596.526c0-0.62,0.569-1.526,1.43-1.526h19.62c0.861,0,1.95,0.906,1.95,1.526v6.544
				c0,0.619-1.089,0.93-1.95,0.93h-19.62c-0.861,0-1.43-0.311-1.43-0.93V596.526z"/>
		</g>
		<circle fill="#3B59AD" cx="182.857" cy="645.07" r="4.908"/>
		<circle fill="#3B59AD" cx="117.606" cy="645.07" r="4.908"/>
		<circle fill="#3B59AD" cx="117.606" cy="590.791" r="4.908"/>
		<circle fill="#3B59AD" cx="183.435" cy="590.213" r="4.908"/>
	</g>
	<g>
		<path fill="#E5E5E5" d="M64.227,229h55.422l1.023-66.375c0,0,5.114-54.899-28.827-73.683c-32.825,18.04-29.105,72.4-29.105,72.4
			L64.227,229z"/>
		<path fill="#E2E2E2" d="M91.979,103.055c0,0,23.835-0.862,24.672,46.969c0.837,47.832-2.638,52.976-2.638,52.976H69.435
			L68,188.349v-41.121C68,147.228,69.117,104.509,91.979,103.055z"/>
		<path fill="#CECECE" d="M91.938,102.761c-18.545-0.353-24.418,23.357-25.908,45.751l0.614,37.103l0.93,26.782l14.413,3.347
			l2.325-2.766l15.436,0.069c0,0,1.952,2.325,2.417,2.325c2.619,0,14.136-3.162,14.136-3.162s0.412-18.182,0.604-26.366
			c0.006-0.277,1.059-36.871,1.043-37.332C117.161,126.161,112.104,103.144,91.938,102.761z M116.069,185.056
			c0.093,0.605-2.372,25.386-2.372,25.386s-9.634,1.784-12.106,1.784c-0.44,0-2.283-2.222-2.283-2.222l-14.572-0.066l-2.194,2.644
			l-12.828-2.139l-2.139-25.355c-0.31-22.007,0.121-22.317,0-36.576c1.694-21.847,8.37-45.055,24.611-44.635
			c16.139,0.417,22.68,23.039,24.117,44.635C116.292,149.349,115.883,184.684,116.069,185.056z"/>
		<path fill="#BABABA" d="M102.014,151.069l-2.577-3.092L93,146.875V147h-1.015h-0.093H92v-0.125l-7.005,1.102l-3.01,3.092
			c-1.673,1.209-1.985,7.299-1.985,7.299v11.299l1.041,2.464l8.192-1.442l2.725-4.365l2.733,4.365l8.212,1.442l1.098-2.464v-11.299
			C104,158.368,103.688,152.278,102.014,151.069z"/>
		<path fill="#C6C6C6" d="M102.911,166.579c-0.023-0.348-3.302-5.523-3.302-5.523l-14.884-0.169L81,166.18v0.744v0.372v0.372V172
			h21.911C102.911,172,102.934,166.927,102.911,166.579z"/>
		<path fill="#29ABE2" d="M100.617,157h-7.517h-2.867h-6.772c0,0-2.171,2.728-2.526,10.239c-0.002,0.044,0.388-0.073,0.388-0.073
			c0.987-1.388,3.192-5.192,3.192-5.192l7.152-0.071l7.896,0.026c0,0,2.205,3.736,3.192,5.123c0,0,0.39,0.234,0.388,0.191
			C102.789,159.732,100.617,157,100.617,157z"/>
		<g id="Timó_14_">
			<path d="M83.802,170.121c0,3.023,9.96,3.242,9.96-0.027C93.762,167.222,83.802,166.952,83.802,170.121z M84.668,170.089
				c0-2.161,8.228-1.977,8.228-0.02C92.896,172.296,84.668,172.148,84.668,170.089z"/>
			<path d="M87.533,168.434c0,0,0.023,0.942,1.151,0.93c1.127-0.011,0.977-0.848,1-0.93
				C89.707,168.353,87.533,168.434,87.533,168.434z"/>
			<polygon points="88.323,169 88.033,172 89.521,172 89.125,169 			"/>
			<path d="M89.334,168.713c0.023,0,3.638,1.581,3.638,1.581l0.14-0.93l-3.662-1.093L89.334,168.713z"/>
			<path d="M87.784,168.713c-0.023,0-3.784,1.581-3.784,1.581v-0.93l3.542-1.093L87.784,168.713z"/>
		</g>
		<g id="Tapiceria_14_">
			<path fill="#E8CDA0" d="M116.303,148.512c0,0-12.181,0.093-14.878-12.832c-2.696-12.926-4.277-30.687-4.463-31.059
				C96.775,104.249,115.001,108.712,116.303,148.512z"/>
			<path fill="#E8CDA0" d="M67.575,148.512c0,0,12.181,0.093,14.878-12.832c2.696-12.926,4.277-30.687,4.463-31.059
				C87.103,104.249,68.877,108.712,67.575,148.512z"/>
			<path fill="#E8CDA0" d="M68.505,199.191c0,0-0.891-2.998,2.046-1.953c9.671,3.44,32.453,4.185,42.682-0.185
				c2.144-0.916,2.11-0.376,2.046,1.069c-0.049,1.083-1.582,12.32-1.582,12.32s-17.481,6.696-43.983,0L68.505,199.191z"/>
			<path fill="#E8CDA0" d="M104,185.887c0,0.621-1.366,1.113-2.228,1.113h-19.62c-0.861,0-1.153-0.492-1.153-1.113v-6.544
				c0-0.619,0.292-1.343,1.153-1.343h19.62c0.861,0,2.228,0.725,2.228,1.343V185.887z"/>
		</g>
		<circle fill="#3B59AD" cx="59.345" cy="137.343" r="4.908"/>
		<circle fill="#3B59AD" cx="124.596" cy="137.343" r="4.908"/>
		<circle fill="#3B59AD" cx="124.596" cy="191.624" r="4.908"/>
		<circle fill="#3B59AD" cx="58.768" cy="192.201" r="4.908"/>
	</g>
	<g>
		<path fill="#E5E5E5" d="M218.371,229h55.421l1.023-66.294c0,0,5.113-54.859-28.827-73.643
			c-32.826,18.04-29.105,72.34-29.105,72.34L218.371,229z"/>
		<path fill="#E2E2E2" d="M246.05,103.216c0,0,23.872-0.943,24.709,46.888c0.837,47.832-2.604,52.896-2.604,52.896h-44.578
			L222,188.51v-41.121C222,147.389,223.188,104.67,246.05,103.216z"/>
		<path fill="#CECECE" d="M246.082,102.922c-18.546-0.353-24.418,23.357-25.908,45.751l0.614,37.103l0.93,26.781l14.414,3.347
			l2.324-2.766l15.437,0.069c0,0,1.952,2.325,2.417,2.325c2.62,0,14.137-3.162,14.137-3.162s0.411-18.183,0.604-26.366
			c0.007-0.278,1.06-36.871,1.044-37.332C271.304,126.322,266.248,103.305,246.082,102.922z M270.212,185.217
			c0.093,0.605-2.371,25.386-2.371,25.386s-9.634,1.784-12.105,1.784c-0.44,0-2.283-2.222-2.283-2.222l-14.572-0.066l-2.194,2.644
			l-12.829-2.14l-2.139-25.355c-0.31-22.007,0.121-22.317,0-36.575c1.694-21.847,8.37-45.056,24.611-44.635
			c16.139,0.417,22.679,23.04,24.117,44.635C270.435,149.51,270.026,184.846,270.212,185.217z"/>
		<path fill="#BABABA" d="M256.086,151.23l-2.613-3.092L247,147.037V147h-0.871h-0.094H246v0.037l-6.933,1.102l-3.045,3.092
			c-1.674,1.209-2.021,7.299-2.021,7.299v11.299l1.112,2.464l8.228-1.442l2.743-4.365l2.741,4.365l8.145,1.442l1.03-2.464v-11.299
			C258,158.529,257.76,152.439,256.086,151.23z"/>
		<path fill="#C6C6C6" d="M257.055,166.66c-0.023-0.348-3.302-5.483-3.302-5.483l-14.956-0.149L235,166.341v0.745v0.372v0.372V172
			h22.055C257.055,172,257.077,167.008,257.055,166.66z"/>
		<path fill="#29ABE2" d="M254.76,157h-7.516h-2.868h-6.772c0,0-2.172,2.808-2.525,10.32c-0.003,0.044,0.388-0.033,0.388-0.033
			c0.988-1.388,3.192-5.172,3.192-5.172l7.153-0.062l7.895,0.032c0,0,2.205,3.738,3.192,5.125c0,0,0.39,0.155,0.388,0.112
			C256.932,159.812,254.76,157,254.76,157z"/>
		<g id="Timó_19_">
			<path d="M237.944,170.282c0,3.023,9.96,3.242,9.96-0.027C247.904,167.383,237.944,167.113,237.944,170.282z M238.812,170.25
				c0-2.161,8.228-1.977,8.228-0.02C247.039,172.458,238.812,172.31,238.812,170.25z"/>
			<path d="M241.676,168.595c0,0,0.023,0.942,1.151,0.93c1.127-0.011,0.977-0.848,1-0.93
				C243.85,168.515,241.676,168.595,241.676,168.595z"/>
			<polygon points="242.467,169 242.177,172 243.663,172 243.269,169 			"/>
			<path d="M243.479,168.875c0.023,0,3.638,1.581,3.638,1.581l0.139-0.93l-3.662-1.093L243.479,168.875z"/>
			<path d="M241.855,168.875c-0.023,0-3.855,1.581-3.855,1.581v-0.93l3.578-1.093L241.855,168.875z"/>
		</g>
		<g id="Tapiceria_19_">
			<path fill="#E8CDA0" d="M270.446,148.673c0,0-12.181,0.092-14.878-12.833c-2.697-12.926-4.278-30.687-4.464-31.059
				C250.918,104.41,269.145,108.874,270.446,148.673z"/>
			<path fill="#E8CDA0" d="M221.718,148.673c0,0,12.182,0.092,14.878-12.833c2.696-12.926,4.277-30.687,4.463-31.059
				C241.247,104.41,223.02,108.874,221.718,148.673z"/>
			<path fill="#E8CDA0" d="M222.647,199.352c0,0-0.891-2.998,2.047-1.953c9.67,3.44,32.452,4.185,42.682-0.185
				c2.144-0.916,2.11-0.376,2.046,1.069c-0.049,1.083-1.581,12.32-1.581,12.32s-17.481,6.696-43.984,0L222.647,199.352z"/>
			<path fill="#E8CDA0" d="M258,186.049c0,0.62-1.224,0.951-2.084,0.951h-19.62c-0.861,0-1.296-0.331-1.296-0.951v-6.544
				c0-0.619,0.435-1.504,1.296-1.504h19.62c0.86,0,2.084,0.886,2.084,1.504V186.049z"/>
		</g>
		<circle fill="#3B59AD" cx="213.488" cy="137.504" r="4.908"/>
		<circle fill="#3B59AD" cx="278.739" cy="137.504" r="4.908"/>
		<circle fill="#3B59AD" cx="278.739" cy="191.785" r="4.908"/>
		<circle fill="#3B59AD" cx="212.911" cy="192.362" r="4.908"/>
	</g>
	<g id="Boat_moviment_2">
		
			<linearGradient id="SVGID_1_" gradientUnits="userSpaceOnUse" x1="676.3818" y1="102.5654" x2="676.3818" y2="256.592" gradientTransform="matrix(4.362159e-08 1 -1 4.362159e-08 814.5923 -219.1479)">
			<stop  offset="0" style="stop-color:#FFFFFF;stop-opacity:0.8"/>
			<stop  offset="1" style="stop-color:#FFFFFF;stop-opacity:0"/>
		</linearGradient>
		<path opacity="0.8" fill="url(#SVGID_1_)" d="M558,510.125c15-2.039,28.478-11.414,41.028-13.858
			c12.551-2.446,22.425,0.815,37.505-2.038c15.082-2.854,24.094-13.043,34.691-15.896c10.597-2.854,29.963-3.758,37.615-10.031
			s4.696-12.191,4.696-12.191s1.243-5.085-4.685-9.943c-7.652-6.273-26.999-7.178-37.597-10.031
			c-10.597-2.854-19.574-13.043-34.655-15.896c-15.082-2.854-25.021,0.408-37.572-2.038C586.477,415.756,573,406.381,558,404.342
			V510.125z"/>
		<g id="Capa_4_3_">
			<path fill="#D1D1D1" d="M632.358,429.308v57.06l67.966,1.052c0,0,56.338,5.265,75.676-29.679
				c-18.572-33.793-74.262-29.965-74.262-29.965L632.358,429.308z"/>
			<path fill="#F4F4F4" d="M761.285,457.543c0,0,0.951,24.707-48.291,25.567c-49.242,0.862-54.476-2.548-54.476-2.548v-45.895
				l14.955-2.148h42.334C715.81,432.52,759.79,434.006,761.285,457.543z"/>
			<path fill="#E8E8E8" d="M761.59,457.837c0.361-19.093-24.047-25.14-47.104-26.672l-38.197,0.63l-27.572,0.959l-3.445,14.838
				l2.847,2.396l-0.072,15.891c0,0-2.393,2.009-2.393,2.488c0,2.696,3.255,14.554,3.255,14.554s18.719,0.423,27.144,0.622
				c0.286,0.006,37.961,1.09,38.435,1.075C737.498,483.803,761.192,478.599,761.59,457.837z M676.862,482.68
				c-0.622,0.096-26.135-2.44-26.135-2.44s-1.837-9.919-1.837-12.464c0-0.454,2.287-2.35,2.287-2.35l0.068-15.005l-2.721-2.259
				l2.201-13.206l26.104-2.202c22.658-0.318,22.978,0.125,37.656,0c22.491,1.745,46.385,8.617,45.953,25.337
				c-0.429,16.617-23.721,23.351-45.953,24.83C713.626,482.91,677.246,482.488,676.862,482.68z"/>
			<path fill="#FFFFFF" d="M716.202,458.041l0.229,0.01l-1.135-7.611l-3.183-3.106c-1.244-1.724-7.515-2.054-7.515-2.054h-11.632
				l-2.536,1.205l1.482,8.5l4.8,3.107l3.985-0.051H716.202z"/>
			<path fill="#FFFFFF" d="M716.2,457.886l0.231,0.165l-1.135,7.17l-3.183,3.049c-1.244,1.722-7.515,1.996-7.515,1.996h-11.632
				l-2.536-1.09l1.482-8.441l4.8-3.001l3.985,0.146L716.2,457.886z"/>
			<path fill="#C6C6C6" d="M695.944,469.133c0.358-0.023,5.657-3.398,5.657-3.398l0.161-15.333l-5.465-3.845h-0.767h-0.383h-0.383
				h-4.346v22.576C690.42,469.133,695.584,469.158,695.944,469.133z"/>
			<path fill="#394963" d="M623.848,466.092c-1.134-0.004-2.048-0.928-2.042-2.062l0.062-11.942
				c0.007-1.132,0.931-2.047,2.064-2.041l18.347,0.099c1.133,0.005,2.046,0.931,2.04,2.063l-0.064,11.941
				c-0.006,1.134-0.93,2.047-2.062,2.041L623.848,466.092z"/>
			<path fill="#29ABE2" d="M706.37,466.773v-7.74v-2.951v-6.975c0,0-3.119-2.234-10.852-2.599c-0.046-0.003-0.083,0.398-0.083,0.398
				c1.429,1.017,5.268,3.288,5.268,3.288l0.037,7.363l-0.048,8.128c0,0-3.855,2.271-5.284,3.286c0,0,0.065,0.402,0.11,0.4
				C703.251,469.006,706.37,466.773,706.37,466.773z"/>
			<g id="Timó_10_">
				<path d="M692.238,449.46c-3.11,0-3.336,10.255,0.029,10.255C695.224,459.715,695.502,449.46,692.238,449.46z M692.273,450.352
					c2.224,0,2.034,8.471,0.019,8.471C689.999,458.822,690.154,450.352,692.273,450.352z"/>
				<path d="M693.976,453.301c0,0-0.969,0.025-0.957,1.185c0.013,1.161,0.874,1.005,0.957,1.029
					C694.06,455.539,693.976,453.301,693.976,453.301z"/>
				<polygon points="692.973,454.115 690.42,453.816 690.42,455.348 692.973,454.939 				"/>
				<path d="M693.689,455.156c0,0.023-1.628,3.744-1.628,3.744l0.956,0.146l1.125-3.77L693.689,455.156z"/>
				<path d="M693.689,453.599c0-0.022-1.628-3.853-1.628-3.853h0.956l1.125,3.627L693.689,453.599z"/>
			</g>
			<g id="Tapiceria_10_">
				<path fill="#E8CDA0" d="M714.486,482.921c0,0-0.096-12.542,13.212-15.319c13.308-2.774,31.593-4.402,31.976-4.594
					S755.461,481.58,714.486,482.921z"/>
				<path fill="#E8CDA0" d="M714.486,432.754c0,0-0.096,12.542,13.212,15.318c13.308,2.775,31.593,4.404,31.976,4.596
					C760.057,452.858,755.461,434.094,714.486,432.754z"/>
				<path fill="#E8CDA0" d="M662.311,433.711c0,0,3.088-0.917,2.011,2.105c-3.542,9.957-4.308,33.414,0.191,43.943
					c0.942,2.207,0.386,2.172-1.102,2.105c-1.115-0.049-12.684-1.626-12.684-1.626s-6.894-18,0-45.283L662.311,433.711z"/>
				<path fill="#E8CDA0" d="M676.008,469.525c-0.639,0-0.9-0.679-0.9-1.564v-20.199c0-0.885,0.262-1.844,0.9-1.844h6.737
					c0.639,0,1.296,0.959,1.296,1.844v20.199c0,0.889-0.657,1.564-1.296,1.564H676.008z"/>
			</g>
		</g>
		<g>
			<path fill="#996234" d="M688.656,450.023c0,0,1.406,1.132-0.832,1.658c-2.239,0.527-4.477,1.557-4.477,1.557
				s0.698,2.405,1.355,2.734c0.658,0.327,3.659,0.053,4.411,2.139c0.753,2.086,1.228,3.028-1.926,2.137
				c-3.153-0.891-5.379-1.215-5.379-1.215l-1.932-8.678l8.282-0.332"/>
			<path fill="#EF45B7" d="M681,451.119c0,0,4.762-3.161,4.592-1.475c-0.174,1.688-1.434,0.811-1.545,2.955
				c-0.113,2.143,1.562,1.85,0.661,4.479s-0.168,3.612-1.6,3.169c-1.43-0.441-2.108-0.539-2.108-0.539V451.119z"/>
			<path fill="#996234" d="M680.674,448.605c0,0,3.74-0.146,4.707-0.246c1.808-0.188,5.56,1.35,6.246,1.35
				c0.685,0,1.404,0.109,0.388,1.018c-1.017,0.905-4.431,0.014-6.14-0.371c-1.707-0.387-3.787,0.722-4.337,0.764
				c-0.549,0.042,0.242-1.096,0.242-1.096L680.674,448.605z"/>
			<path fill="#996234" d="M680.438,460.351c0,0,3.977,1.175,4.943,1.274c1.808,0.188,5.56-1.35,6.246-1.35
				c0.685,0,1.404-0.11,0.388-1.018c-1.017-0.906-4.431-0.014-6.14,0.371c-1.707,0.387-3.615-1.476-4.164-1.518
				c-0.55-0.043,0.069,1.848,0.069,1.848L680.438,460.351z"/>
			<path fill="#8BC7E8" d="M680.674,446.948c0,0-4.626,0.7-5.564,3.565s-1.264,3.855-0.15,6.428c1.113,2.573,0.5,3.937,2.822,3.742
				c2.321-0.195,3.522,1.359,3.888-0.867c0.391-2.402,0.832-8.858,0.885-9.303C682.875,447.776,680.674,446.948,680.674,446.948z"/>
			<path fill="#301705" d="M675.109,453.934c0,0,0.256-2.601,2.4-2.211c2.144,0.389,2.928-0.752,3.6,1.085
				c0.671,1.837,2.462,2.749,0.671,3.56c-1.79,0.81-2.741,1.395-3.999,0.81c-1.261-0.585-1.567-0.462-2.365-1.204
				S675.109,453.934,675.109,453.934z"/>
		</g>
	</g>
	<g id="Boat_moviment_1_2_">
		
			<linearGradient id="SVGID_2_" gradientUnits="userSpaceOnUse" x1="395.3813" y1="-381.4399" x2="395.3813" y2="-227.5093" gradientTransform="matrix(-4.371139e-08 -1 1 -4.371139e-08 419.5093 851.6147)">
			<stop  offset="0" style="stop-color:#FFFFFF;stop-opacity:0.8"/>
			<stop  offset="1" style="stop-color:#FFFFFF;stop-opacity:0"/>
		</linearGradient>
		<path opacity="0.8" fill="url(#SVGID_2_)" d="M192,403.342c-15,2.039-28.427,11.414-40.978,13.858
			c-12.551,2.446-22.399-0.815-37.48,2.038s-24.081,13.043-34.678,15.896c-10.597,2.854-29.956,3.758-37.608,10.031
			s-4.694,12.191-4.694,12.191s-1.242,5.085,4.686,9.943c7.652,6.273,27,7.178,37.598,10.031
			c10.597,2.854,19.575,13.043,34.656,15.896c15.082,2.854,24.972-0.408,37.522,2.038c12.55,2.444,25.976,11.819,40.976,13.858
			V403.342z"/>
		<g id="Capa_4_4_">
			<path fill="#D1D1D1" d="M26.095,427.378v59.587l70.977,1.099c0,0,58.833,5.498,79.028-30.993
				c-19.396-35.29-77.552-31.292-77.552-31.292L26.095,427.378z"/>
			<path fill="#F4F4F4" d="M160.733,456.863c0,0,0.993,25.802-50.431,26.701c-51.425,0.899-56.89-2.661-56.89-2.661v-47.928
				l15.617-2.244h44.211C113.242,430.731,159.171,432.284,160.733,456.863z"/>
			<path fill="#E8E8E8" d="M161.051,457.171c0.378-19.939-25.112-26.254-49.189-27.854l-39.891,0.658l-28.794,1.001l-3.598,15.496
				l2.973,2.501l-0.075,16.596c0,0-2.499,2.098-2.499,2.598c0,2.816,3.399,15.199,3.399,15.199s19.549,0.442,28.347,0.649
				c0.299,0.007,39.642,1.139,40.138,1.123C135.892,484.288,160.637,478.853,161.051,457.171z M72.57,483.114
				c-0.65,0.101-27.293-2.549-27.293-2.549s-1.918-10.358-1.918-13.017c0-0.474,2.389-2.453,2.389-2.453l0.071-15.669l-2.842-2.359
				l2.299-13.791l27.261-2.3c23.661-0.333,23.994,0.131,39.324,0c23.487,1.822,48.439,8.999,47.988,26.46
				c-0.448,17.353-24.771,24.385-47.988,25.93C110.962,483.354,72.971,482.914,72.57,483.114z"/>
			<path fill="#FFFFFF" d="M113.652,457.384l0.24,0.01l-1.185-7.948l-3.324-3.243c-1.3-1.801-7.848-2.145-7.848-2.145H89.389
				l-2.648,1.258l1.549,8.877l5.012,3.245l4.162-0.054H113.652z"/>
			<path fill="#FFFFFF" d="M113.651,457.222l0.241,0.172l-1.185,7.488l-3.324,3.184c-1.3,1.799-7.848,2.085-7.848,2.085H89.389
				l-2.648-1.138l1.549-8.816l5.012-3.134l4.163,0.151L113.651,457.222z"/>
			<path fill="#C6C6C6" d="M92.497,468.968c0.375-0.025,5.908-3.55,5.908-3.55l0.168-16.012l-5.707-4.015h-0.801h-0.399h-0.399
				h-4.538v23.576C86.729,468.968,92.121,468.993,92.497,468.968z"/>
			<path fill="#394963" d="M17.206,465.792c-1.184-0.005-2.139-0.97-2.132-2.153l0.065-12.472c0.008-1.182,0.973-2.137,2.156-2.131
				l19.158,0.103c1.184,0.006,2.138,0.972,2.132,2.155l-0.068,12.471c-0.006,1.184-0.971,2.137-2.153,2.131L17.206,465.792z"/>
			<path fill="#29ABE2" d="M103.386,466.503v-8.082v-3.083v-7.282c0,0-3.258-2.334-11.333-2.715
				c-0.048-0.003-0.086,0.416-0.086,0.416c1.492,1.062,5.501,3.434,5.501,3.434l0.037,7.689l-0.049,8.488
				c0,0-4.026,2.371-5.519,3.432c0,0,0.068,0.42,0.115,0.418C100.128,468.835,103.386,466.503,103.386,466.503z"/>
			<g id="Timó_11_">
				<path d="M88.628,448.423c-3.249,0-3.484,10.709,0.03,10.709C91.745,459.132,92.035,448.423,88.628,448.423z M88.664,449.354
					c2.322,0,2.124,8.845,0.02,8.845C86.289,458.2,86.45,449.354,88.664,449.354z"/>
				<path d="M90.441,452.435c0,0-1.013,0.025-0.999,1.236c0.013,1.213,0.912,1.049,0.999,1.075
					C90.529,454.771,90.441,452.435,90.441,452.435z"/>
				<polygon points="89.394,453.284 86.729,452.972 86.729,454.571 89.394,454.146 				"/>
				<path d="M90.142,454.371c0,0.024-1.699,3.911-1.699,3.911l0.999,0.151l1.175-3.937L90.142,454.371z"/>
				<path d="M90.142,452.745c0-0.023-1.699-4.023-1.699-4.023h0.999l1.175,3.787L90.142,452.745z"/>
			</g>
			<g id="Tapiceria_11_">
				<path fill="#E8CDA0" d="M111.861,483.366c0,0-0.101-13.098,13.797-15.997c13.896-2.898,32.992-4.599,33.393-4.798
					C159.45,462.371,154.651,481.966,111.861,483.366z"/>
				<path fill="#E8CDA0" d="M111.861,430.977c0,0-0.101,13.098,13.797,15.997c13.896,2.898,32.992,4.6,33.393,4.799
					C159.45,451.972,154.651,432.376,111.861,430.977z"/>
				<path fill="#E8CDA0" d="M57.374,431.977c0,0,3.224-0.958,2.1,2.198c-3.699,10.398-4.498,34.895,0.199,45.891
					c0.984,2.305,0.403,2.269-1.149,2.199c-1.165-0.052-13.246-1.699-13.246-1.699s-7.198-18.797,0-47.289L57.374,431.977z"/>
				<path fill="#E8CDA0" d="M71.678,469.377c-0.667,0-0.94-0.708-0.94-1.634v-21.094c0-0.924,0.273-1.926,0.94-1.926h7.036
					c0.666,0,1.353,1.002,1.353,1.926v21.094c0,0.928-0.687,1.634-1.353,1.634H71.678z"/>
			</g>
		</g>
		<g>
			<path fill="#996234" d="M84.886,449.012c0,0,1.469,1.182-0.868,1.731c-2.338,0.551-4.676,1.625-4.676,1.625
				s0.729,2.513,1.416,2.855c0.688,0.342,3.821,0.055,4.607,2.233s1.281,3.163-2.012,2.232c-3.293-0.93-5.617-1.269-5.617-1.269
				l-2.017-9.062l8.648-0.347"/>
			<path fill="#EF45B7" d="M76,450.155c0,0,5.419-3.301,5.239-1.539s-1.272,0.847-1.389,3.085c-0.117,2.237,1.743,1.933,0.803,4.679
				c-0.94,2.746-0.567,3.771-2.062,3.31S76,459.126,76,459.126V450.155z"/>
			<path fill="#996234" d="M76.551,447.53c0,0,3.905-0.152,4.914-0.257c1.889-0.196,5.807,1.41,6.523,1.41
				c0.716,0,1.467,0.114,0.404,1.062c-1.062,0.946-4.626,0.016-6.41-0.387c-1.783-0.404-3.955,0.754-4.529,0.797
				c-0.573,0.044,0.253-1.144,0.253-1.144L76.551,447.53z"/>
			<path fill="#996234" d="M76.304,459.796c0,0,4.152,1.227,5.161,1.331c1.889,0.196,5.807-1.41,6.523-1.41
				c0.716,0,1.467-0.114,0.404-1.062c-1.062-0.947-4.626-0.016-6.41,0.387c-1.783,0.404-3.775-1.541-4.349-1.585
				c-0.574-0.044,0.072,1.931,0.072,1.931L76.304,459.796z"/>
			<path fill="#8BC7E8" d="M76.551,445.8c0,0-4.832,0.731-5.812,3.723c-0.98,2.992-1.319,4.027-0.156,6.714
				c1.162,2.687,0.521,4.11,2.946,3.907c2.424-0.203,3.68,1.42,4.06-0.906c0.409-2.508,0.869-9.25,0.925-9.715
				C78.85,446.665,76.551,445.8,76.551,445.8z"/>
			<path fill="#301705" d="M70.739,453.095c0,0,0.268-2.716,2.507-2.31c2.239,0.407,3.058-0.784,3.759,1.134
				s2.571,2.871,0.701,3.717s-2.862,1.457-4.177,0.846c-1.315-0.61-1.637-0.481-2.47-1.258
				C70.227,454.448,70.739,453.095,70.739,453.095z"/>
		</g>
	</g>
	<polygon opacity="0.8" fill="#F90606" points="570.366,463 571,463 571,471.351 591.634,457.184 571,443.016 571,451 570.366,451 
		336,451 336,463 	"/>
	<path opacity="0.8" fill="#ED1C24" d="M400.537,254c-0.26,107.995-86.342,196.067-193.657,199.132l0.12-9.116l-21.384,14.167
		l20.759,14.168l0.098-8.89C319.69,460.425,410.911,367.889,411.172,254H400.537z"/>
</g>
</svg>
