<?xml version="1.0" encoding="utf-8"?>
<!-- Generator: Adobe Illustrator 16.0.0, SVG Export Plug-In . SVG Version: 6.00 Build 0)  -->
<!DOCTYPE svg PUBLIC "-//W3C//DTD SVG 1.1//EN" "http://www.w3.org/Graphics/SVG/1.1/DTD/svg11.dtd">
<svg version="1.1" id="Capa_1" xmlns="http://www.w3.org/2000/svg" xmlns:xlink="http://www.w3.org/1999/xlink" x="0px" y="0px"
	 width="800px" height="800px" viewBox="0 0 800 800" enable-background="new 0 0 800 800" xml:space="preserve">
<g id="Cordó_mà">
	<g id="Capa_1_1_">
		
			<image overflow="visible" enable-background="new    " width="696" height="400" xlink:href="../../../Referències fotogràgiques/680.jpg"  transform="matrix(0.5555 0.8315 -0.8315 0.5555 211.0039 2.958)">
		</image>
	</g>
	<g id="Capa_6">
		<rect x="-157" y="-60" fill="#F4F4F4" width="1026" height="921"/>
	</g>
	<g id="Timó">
		<rect x="-86" y="-132" fill="#969696" width="21" height="419"/>
		
			<rect x="-95.317" y="-140.149" transform="matrix(-0.4822 0.8761 -0.8761 -0.4822 -56.3296 191.7385)" fill="#969696" width="20.976" height="438.743"/>
		
			<rect x="-101.282" y="-130.536" transform="matrix(0.5147 0.8574 -0.8574 0.5147 32.0781 120.9441)" fill="#969696" width="20.976" height="438.687"/>
		<circle cx="-74.813" cy="79.897" r="46.822"/>
		<path stroke="#000000" stroke-miterlimit="10" d="M-80.045-273.817c-198.022,0-358.551,160.529-358.551,358.551
			s160.528,358.552,358.551,358.552c198.021,0,358.551-160.529,358.551-358.552C278.506-113.288,117.977-273.817-80.045-273.817z
			 M-80.045,393.092c-170.302,0-308.358-138.058-308.358-308.359c0-170.301,138.056-308.358,308.358-308.358
			c170.302,0,308.358,138.058,308.358,308.358C228.313,255.035,90.257,393.092-80.045,393.092z"/>
		<path stroke="#000000" stroke-miterlimit="10" d="M-142.119-217.373c1.484-0.206,43.676-5.042,44.381,29.185
			c0.706,34.227,0.819,58.343,0.819,58.343s-1.592,25.334,14.702,25.318c1.564-0.001,13.398,0.016,14.733,0.016
			c13.547,0,13.944-12.633,13.827-25.822c-0.127-14.312,0.751-57.301,0.751-57.301s3.083-29.316,35.303-29.318
			c33.061-0.001-6.911-11.58-6.911-11.58l-103.981,0.654L-142.119-217.373z"/>
		<path stroke="#000000" stroke-miterlimit="10" d="M-374.529-6.138c0.565-1.389,16.546-40.002,46.538-23.5
			c29.995,16.503,50.936,28.462,50.936,28.462s21.146,14.046,29.278-0.073c0.781-1.355,6.713-11.595,7.38-12.75
			c6.774-11.732-3.968-18.393-15.448-24.886c-12.458-7.045-49.25-29.301-49.25-29.301s-28.25-17.507-10.292-44.26
			c18.354-27.344-10.928-0.777-10.928-0.777l-51.425,90.377L-374.529-6.138z"/>
		<path stroke="#000000" stroke-miterlimit="10" d="M-307.16,293.043c-0.922-1.184-26.371-34.331,2.917-52.052
			c29.29-17.725,50.117-29.879,50.117-29.879s22.738-11.292,14.576-25.394c-0.784-1.354-6.687-11.612-7.352-12.766
			c-6.773-11.735-17.914-5.762-29.277,0.935c-12.329,7.265-50,28.002-50,28.002s-29.098,10.605-45.208-17.299
			c-16.532-28.628-4.405,13.157-4.405,13.157l52.557,89.725L-307.16,293.043z"/>
		<path stroke="#000000" stroke-miterlimit="10" d="M-5.315,383.751c-1.486,0.208-42.917,5.674-43.62-28.552
			c-0.705-34.228-0.818-58.343-0.818-58.343s1.59-25.336-14.703-25.319c-1.566,0.001-13.4-0.015-14.733-0.015
			c-13.547-0.003-13.945,12.632-13.829,25.821c0.129,14.309-0.749,57.302-0.749,57.302s-6.242,32.775-39.204,32.588
			c-33.059-0.187,10.811,8.308,10.811,8.308l103.982-0.656L-5.315,383.751z"/>
		<path stroke="#000000" stroke-miterlimit="10" d="M215.869,173.148c-0.563,1.39-16.544,40.003-46.536,23.499
			c-29.995-16.503-50.936-28.461-50.936-28.461s-21.146-14.046-29.278,0.073c-0.782,1.356-6.713,11.597-7.38,12.751
			c-6.774,11.73,3.968,18.394,15.448,24.887c12.456,7.041,49.25,29.298,49.25,29.298s23.999,21.314,7.889,49.218
			c-16.528,28.631,13.331-4.182,13.331-4.182l51.423-90.377L215.869,173.148z"/>
		<path stroke="#000000" stroke-miterlimit="10" d="M142.508-129.029c0.922,1.183,26.372,34.329-2.917,52.051
			c-29.29,17.725-50.117,29.881-50.117,29.881s-22.738,11.29-14.575,25.392c0.783,1.355,6.687,11.612,7.353,12.768
			c6.771,11.732,17.914,5.76,29.278-0.935c12.324-7.267,49.997-28.003,49.997-28.003s31.938-9.392,48.049,18.511
			c16.531,28.629,1.564-14.371,1.564-14.371l-52.557-89.722L142.508-129.029z"/>
		<path fill="#969696" d="M-75.309,2.813c-45.055,0-81.579,36.524-81.579,81.579c0,45.054,36.524,81.578,81.579,81.578
			c45.054,0,81.579-36.522,81.579-81.578C6.271,39.337-30.254,2.813-75.309,2.813z M-75.309,125.386
			c-22.64,0-40.994-18.354-40.994-40.994c0-22.641,18.354-40.994,40.994-40.994s40.994,18.353,40.994,40.994
			C-34.315,107.032-52.669,125.386-75.309,125.386z"/>
	</g>
	<g id="Capa_4">
		<polygon fill="#494949" points="568.396,246 537.671,192.5 568.396,139 629.854,139 660.579,192.5 629.854,246 		"/>
		<g>
			<path d="M553.666,200.207c0,3.649,0.689,6.793,1.502,10.793h-0.035l0.122,0.176c0.497,2.007,1.132,4.172,1.886,6.064L576.016,276
				h0.006c2.53,10,12.024,18.093,23.357,18.093c11.418,0,20.974-8.124,23.417-18.801l18.703-58.088
				c0.838-2.059,1.527-4.028,2.06-6.223l0.045,0.02h-0.013c0.812-4,0.993-7.144,0.993-10.793c0-20.903-13.584-38.7-33.584-44.013
				v20.973c6,3.747,8.721,9.803,8.721,16.64s-3.3,12.931-8.427,16.678l-0.124,23.363c-0.271,6.321-5.435,11.443-11.823,11.443
				c-6.388,0-12.075-4.292-12.347-11.292l0,0v-0.663c0-0.003,0-0.005,0-0.008s0-0.005,0-0.007V210.63
				c-5-3.731-8.718-9.873-8.718-16.824c-0.001-6.95,3.718-13.093,8.718-16.824V156.12C568,161.346,553.664,179.21,553.666,200.207z
				 M599.379,257.87c6.562,0,11.884,5.32,11.884,11.883s-5.32,11.883-11.884,11.883c-6.562,0-11.883-5.32-11.883-11.883
				S592.816,257.87,599.379,257.87z"/>
		</g>
		<circle fill="#F22F2F" cx="599.125" cy="192.523" r="25.143"/>
		<g id="Cordó">
			<circle fill="#494949" cx="775" cy="192.5" r="71.515"/>
			<path fill="none" stroke="#FF0000" stroke-width="8" stroke-linecap="round" stroke-miterlimit="10" d="M533.572,719.476
				c-5.201-13.931-46.994-1.776-42.27,10.773c3.854,10.233,36.084-10.633,30.363-28.583c-7.977-25.021-46.597-2.213-42.405,15.077
				c1.774,7.322,34.526-24.234,29.888-36.062"/>
			<path fill="none" stroke="#FF0000" stroke-width="8" stroke-linecap="round" stroke-miterlimit="10" d="M410.795,577.269
				c-5.201-13.933,83.747-47.497,88.472-34.945c2.468,6.55-82.266,32.801-96.984,18.16c-7.861-7.819-50.867-1.328-45.947,11.851
				c4.994,13.376,46.509-1.464,36.419-30.011"/>
			<path fill="none" stroke="#FF0000" stroke-width="8" stroke-linecap="round" stroke-miterlimit="10" d="M509.998,682.151
				c-3.68-21.336-44.805-1.63-40.08,10.922c3.964,10.527-54.902-91.565-60.879-110.315c-6.62-20.771,53.848,91.672,56.209,97.889
				c3.632,9.55-48.655-86.89-54.453-103.378"/>
			<path fill="none" stroke="#FF0000" stroke-width="8" stroke-linecap="round" stroke-miterlimit="10" d="M571.746,575.123
				c0,14.872,49.961,25.361,49.924,11.95c-0.037-13.373-48.861-7.169-49.924,14.604c-1.062,21.775,48.332,24.433,49.924,11.154
				c1.594-13.278-49.393-19.206-49.924,11.066"/>
			<path fill="none" stroke="#FF0000" stroke-width="8" stroke-linecap="round" stroke-miterlimit="10" d="M571.746,529.521
				c0,14.869,49.961,25.36,49.924,11.949c-0.037-13.373-48.861-11.367-49.924,10.406c-1.062,21.775,48.332,24.431,49.924,11.153
				c1.594-13.277-49.393-16.588-49.924,13.687"/>
			<path fill="none" stroke="#FF0000" stroke-width="8" stroke-linecap="round" stroke-miterlimit="10" d="M571.746,479.721
				c0,14.871,49.961,25.359,49.924,11.949c-0.037-13.373-48.861-9.688-49.924,12.087s48.332,24.431,49.924,11.152
				c1.594-13.276-49.393-14.066-49.924,16.206"/>
			<path fill="none" stroke="#FF0000" stroke-width="8" stroke-linecap="round" stroke-miterlimit="10" d="M571.746,481.314
				c0.531-30.273,51.527-28.546,49.934-15.269c-1.593,13.277-50.996,7.164-49.934-14.611c1.062-21.774,50.727-22.1,50.764-8.727
				c0.037,13.411-45.511-2.429-45.511-17.3c0,0-3.161-9.716,12.577-20.27c10.723-7.19,10.093-26.088,9.253-28.816
				c-0.84-2.729-14.536-104.207,1.68-104.981c22.001-1.05-2.1,52.7,1.26,75.167c0.45,3.116,4.096,33.909,4.096,33.909"/>
			<path fill="none" stroke="#FF0000" stroke-width="8" stroke-linecap="round" stroke-miterlimit="10" d="M563,767.5
				c10.291-14.5-42.71-14.683-37.985-2.131c4.714,12.516,31.87-5.281,25.249-26.053c-6.619-20.772-47.156,1.525-44.005,14.523
				c3.151,12.994,37.404-5.816,27.313-34.365"/>
			<path fill="none" stroke="#FF0000" stroke-width="8" stroke-linecap="round" stroke-miterlimit="10" d="M557.746,714.15
				c0,14.871,42.961,25.359,42.924,11.949c-0.037-13.374-45.607-12.875-46.67,8.899c-1.062,21.777,42.248,14.979,32.5,5.825
				c-4.962-4.66-57.962,16.919-28.754,26.675"/>
			<path fill="none" stroke="#FF0000" stroke-width="8" stroke-linecap="round" stroke-miterlimit="10" d="M567.746,669.537
				c0,14.872,43.961,25.361,43.924,11.951c-0.037-13.373-48.861-13.544-49.924,8.23c-1.062,21.776,44.332,24.432,45.924,11.154
				c1.594-13.278-49.393-15.403-49.924,14.869"/>
			<path fill="none" stroke="#FF0000" stroke-width="8" stroke-linecap="round" stroke-miterlimit="10" d="M571.729,622.04
				c0,14.872,47.979,26.07,47.94,12.659c-0.037-13.372-48.861-11.368-49.924,10.408c-1.062,21.773,46.332,24.43,47.924,11.151
				c1.594-13.276-49.393-15.4-49.924,14.871"/>
			<path fill="#CECECE" d="M608.957,356.04c0.141,1.175-0.441,2.209-1.3,2.312l-14.136,1.695c-0.857,0.102-1.668-0.767-1.809-1.94
				l-2.071-17.282c-0.141-1.174,0.441-2.209,1.301-2.312l14.134-1.694c0.858-0.103,1.669,0.766,1.81,1.94L608.957,356.04z"/>
		</g>
		<path d="M599.125,281.631c0,0,11.812,0.65,12.094-12.865c0.282-13.515,11.715,6.1,11.715,6.1s-3.933,19.57-24.85,19.228
			C596.501,293.583,599.125,281.631,599.125,281.631z"/>
		<path fill="#EAEAEA" d="M782,234.412c0,1.43-0.815,2.588-1.821,2.588h-9.022c-1.006,0-2.155-1.159-2.155-2.588v-84.823
			c0-1.43,1.149-2.588,2.155-2.588h9.022c1.006,0,1.821,1.159,1.821,2.588V234.412z"/>
	</g>
	<g id="Capa_3">
		<path fill="#F9DBBD" d="M524.63,920.689c-45.469-507.057-50.547-537.817-36.072-400.247c-1.18-11.194-3.499-27.872,1.488-36.916
			c4.984-9.043,33.121-96.684,21.745-165.249c3.989-28.819,2.698-36.595,1.084-47.128c-1.616-10.533,0.128-87.542-19.015-91.576
			c-16.233-1.563-15.22,6.592-14.95,13.4c0.271,6.809,2.167,37.583,1.847,41.945c-0.413,5.591-7.137,45.525-7.137,45.525
			s-0.128-47.449-2.063-56.771c-1.935-9.322,0.176-21.2-4.606-44.231c-4.781-23.031,0.121-43.498-6.864-52.343
			c-6.983-8.846-25.877-8.927-25.771,5.351c0.104,14.278-0.525,33.285,0.635,41.625c1.159,8.338-3.295,77.796-1.894,85.763
			c1.437,8.144-4.729-59.793-4.729-59.793s1.428-23.606,1.85-32.416c0.438-9.094-1.903-20.197-2.702-24.035
			c-0.796-3.838,4.571-35.841-3.055-42.266c-7.626-6.425-22.909-8.4-26.87,5.579c-3.962,13.979-6.321,52.22-5.321,61.165
			c1.002,8.944-4.2,33.476-3.839,37.978c0.363,4.5,3.372,45.167,1.861,48.913c-1.51,3.746-6.227-45.148-6.227-45.148
			s7.792-75.405-0.334-82.87c-8.126-7.464-15.917-6.419-23.098,3.08c-7.18,9.498-20.807,128.443-15.818,149.715
			c-6.915,19.383-3.39,47.036-6.452,48.816c-3.062,1.78-10.838,23.217-9.472,29.797c1.366,6.578-8.044-6.713-12.224-7.562
			c-4.181-0.846-23.436-82.197-65.396-80.799c-21.126,0.703-13.17,16.463-11.257,22.929c1.915,6.465,18.917,33.252,20.853,42.574
			c1.935,9.322,12.315,62.078,18.64,70.49c6.322,8.411,26.343,27.707,29.262,36.252c2.918,8.546,16.402,34.918,25.674,41.002
			c9.271,6.082,15.479,13.946,18.854,24.687c3.374,10.738,13.32,64.156,13.684,68.657c0.361,4.502-0.76,336.252-0.76,336.252
			L524.63,920.689z"/>
	</g>
	<g id="Capa_5">
		<path fill="none" stroke="#FF0000" stroke-width="8" stroke-linecap="round" stroke-miterlimit="10" d="M356.334,566.333
			c16.667-28,57.848,12.354,43.666,14c-12.333,1.431,3.263-33.658,25.334-39.435c28.06-7.345,53.656,20.102,39.821,23.435
			c-13.039,3.142-0.274-19.183,10.499-29.435c0,0,9.821-7.732,18.68,0.768"/>
	</g>
</g>
</svg>
