<?xml version="1.0" encoding="utf-8"?>
<!-- Generator: Adobe Illustrator 16.0.0, SVG Export Plug-In . SVG Version: 6.00 Build 0)  -->
<!DOCTYPE svg PUBLIC "-//W3C//DTD SVG 1.1//EN" "http://www.w3.org/Graphics/SVG/1.1/DTD/svg11.dtd">
<svg version="1.1" xmlns="http://www.w3.org/2000/svg" xmlns:xlink="http://www.w3.org/1999/xlink" x="0px" y="0px" width="800px"
	 height="800px" viewBox="0 0 800 800" enable-background="new 0 0 800 800" xml:space="preserve">
<g id="Capa_2_1_">
	<g id="Capa_2">
		<rect x="-11.523" y="-0.305" fill="#42C9CC" width="824.712" height="829.459"/>
	</g>
</g>
<g id="Capa_1">
	<circle display="none" fill="#FF0000" cx="565.306" cy="249.475" r="177.209"/>
	<circle display="none" fill="#FF0000" cx="170.343" cy="624.483" r="100.179"/>
	<path fill="none" stroke="#ED1C24" stroke-width="8" stroke-miterlimit="10" stroke-dasharray="10.064,10.0644" d="
		M646.544,406.482c68.521-22.36,161.472-184.167,31.192-293.982c0,0-135.243-113.892-257.456,34.35
		c0,0-236.453,299.199-327.372,414.074C1.99,675.799,156.997,798.341,247.777,688.043l37.384-47.253"/>
	<g id="boat_1_">
		<g>
			
				<linearGradient id="SVGID_1_" gradientUnits="userSpaceOnUse" x1="236.3047" y1="435.3926" x2="236.3046" y2="215.1295" gradientTransform="matrix(0.3782 0.9258 0.9258 -0.3782 136.9062 355.2834)">
				<stop  offset="0" style="stop-color:#FFFFFF;stop-opacity:0.8"/>
				<stop  offset="0.9306" style="stop-color:#FFFFFF;stop-opacity:0"/>
			</linearGradient>
			<path display="none" fill="url(#SVGID_1_)" d="M458.104,572.322c14.179-8.602,24.573-24.41,36.421-32.49
				c11.85-8.084,23.239-9.086,37.507-18.708c14.275-9.623,19.432-24.141,29.122-31.78c9.692-7.639,29.112-17.143,34.438-27.015
				c5.321-9.869,36.062-55.448,36.062-55.448s-56.607-16.443-64.592-18.843c-10.31-3.097-30.426,4.526-42.385,6.269
				c-11.959,1.739-25.176-4.821-41.715-1.098c-16.536,3.728-25.415,11.506-39.206,14.532c-13.787,3.025-31.634-0.55-47.429,3.837
				L458.104,572.322z"/>
			
				<linearGradient id="SVGID_2_" gradientUnits="userSpaceOnUse" x1="235.7383" y1="404.5371" x2="235.7383" y2="221.0905" gradientTransform="matrix(0.3782 0.9258 0.9258 -0.3782 136.9062 355.2834)">
				<stop  offset="0" style="stop-color:#FFFFFF;stop-opacity:0.8"/>
				<stop  offset="1" style="stop-color:#FFFFFF;stop-opacity:0"/>
			</linearGradient>
			<path display="none" opacity="0.8" fill="url(#SVGID_2_)" enable-background="new    " d="M454.379,547.459
				c15.065-9.138,26.113-25.938,38.705-34.523c12.588-8.589,24.691-9.65,39.858-19.88c15.163-10.228,20.654-25.667,30.95-33.777
				c10.295-8.118,30.936-18.219,36.594-28.706c5.658-10.492-0.047-15.606-0.047-15.606s-0.794-6.169-9.281-8.717
				c-10.954-3.293-32.334,4.817-45.039,6.657c-12.707,1.854-26.756-5.118-44.327-1.163c-17.571,3.959-27.007,12.229-41.663,15.441
				c-14.646,3.206-33.612-0.585-50.401,4.077L454.379,547.459z"/>
			
				<linearGradient id="SVGID_3_" gradientUnits="userSpaceOnUse" x1="233.6812" y1="420.7744" x2="233.6811" y2="237.3273" gradientTransform="matrix(0.3782 0.9258 0.9258 -0.3782 136.9062 355.2834)">
				<stop  offset="0" style="stop-color:#FFFFFF;stop-opacity:0.8"/>
				<stop  offset="1" style="stop-color:#FFFFFF;stop-opacity:0"/>
			</linearGradient>
			<path opacity="0.8" fill="url(#SVGID_3_)" enable-background="new    " d="M468.629,539.413
				c15.068-9.138,26.114-25.939,38.708-34.525c12.586-8.584,24.69-9.651,39.856-19.879c15.164-10.229,20.656-25.668,30.95-33.776
				c10.296-8.117,30.933-18.219,36.596-28.708c5.655-10.49-0.05-15.604-0.05-15.604s-0.792-6.169-9.278-8.718
				c-10.955-3.292-32.336,4.818-45.04,6.658c-12.708,1.851-26.756-5.12-44.328-1.163c-17.573,3.959-27.006,12.226-41.66,15.44
				c-14.649,3.205-33.614-0.584-50.403,4.077L468.629,539.413z"/>
		</g>
		<g id="Capa_4_2_">
			<path fill="#D1D1D1" d="M548.12,408.783l20.755,50.161l60.13-23.8c0,0,51.437-15.864,55.724-53.613
				c-28.612-22.959-76.176,0.67-76.176,0.67L548.12,408.783z"/>
			<path fill="#F4F4F4" d="M671.721,386.708c0,0,9.828,21.372-33.147,40.041c-42.977,18.671-48.815,17.58-48.815,17.58
				l-16.69-40.348l12.362-7.329l37.216-15.397C622.646,381.252,661.847,366.563,671.721,386.708z"/>
			<path fill="#E8E8E8" d="M672.099,386.855c-6.63-16.915-30.285-13.353-51.111-6.314l-33.347,14.453l-23.893,10.876l2.372,14.296
				l3.375,1.064l5.715,13.995c0,0-1.372,2.638-1.198,3.059c0.981,2.37,8.154,11.613,8.154,11.613s16.608-6.436,24.088-9.328
				c0.253-0.099,33.766-12.847,34.176-13.037C660.365,418.445,679.303,405.252,672.099,386.855z M606.652,439.513
				c-0.512,0.31-23.859,7.363-23.859,7.363s-5.223-8.054-6.15-10.293c-0.164-0.396,1.157-2.892,1.157-2.892l-5.398-13.22
				l-3.214-0.992l-2.867-12.412l22.146-11.432c19.805-8.527,20.242-8.253,33.101-13.697c20.405-6.645,43.909-9.295,49.614,5.552
				c5.667,14.762-12.356,29.155-31.366,38.545C639.056,426.343,606.923,439.205,606.652,439.513z"/>
			<path fill="#FFFFFF" d="M632.275,403.544l0.204-0.076l-3.767-6.277l-3.926-1.571c-1.722-1.066-7.354,0.932-7.354,0.932
				l-10.228,4.227l-1.79,1.981l4.395,6.934l5.349,0.983l3.489-1.494L632.275,403.544z"/>
			<path fill="#FFFFFF" d="M632.217,403.407l0.263,0.061l1.612,6.714l-1.691,3.844c-0.467,1.968-5.876,4.483-5.876,4.483
				l-10.229,4.232l-2.624-0.031l-1.77-7.962l3.127-4.378l3.557-1.328L632.217,403.407z"/>
			<path fill="#C6C6C6" d="M618.501,420.665c0.309-0.151,3.733-5.048,3.733-5.048l-5.43-13.54l-6.203-1.393l-0.676,0.284
				l-0.338,0.139l-0.337,0.14l-3.819,1.579l8.211,19.848C613.646,422.673,618.19,420.817,618.501,420.665z"/>
			<path fill="#394963" d="M554.017,444.216c-1.002,0.414-2.139-0.071-2.547-1.067l-4.287-10.524
				c-0.405-0.998,0.075-2.138,1.074-2.544l16.164-6.587c0.997-0.407,2.138,0.07,2.545,1.073l4.286,10.521
				c0.409,0.996-0.07,2.135-1.071,2.542L554.017,444.216z"/>
			<path fill="#29ABE2" d="M626.805,414.796l-2.814-6.797l-1.072-2.6l-2.535-6.129c0,0-3.556-0.828-10.486,1.665
				c-0.044,0.017,0.074,0.375,0.074,0.375c1.623,0.373,5.827,0.976,5.827,0.976l2.71,6.456l2.918,7.159c0,0-2.562,3.403-3.448,4.81
				c0,0,0.2,0.331,0.241,0.312C624.878,417.893,626.805,414.796,626.805,414.796z"/>
			<g id="Timó_3_">
				<path d="M608.087,404.718c-2.735,1.131,0.798,10.23,3.756,9.003C614.44,412.646,610.956,403.529,608.087,404.718z
					 M608.442,405.487c1.956-0.806,4.866,6.709,3.096,7.444C609.524,413.765,606.58,406.261,608.442,405.487z"/>
				<path d="M611.011,407.463c0,0-0.844,0.375-0.409,1.388c0.432,1.019,1.133,0.565,1.215,0.559
					C611.9,409.399,611.011,407.463,611.011,407.463z"/>
				<polygon points="610.425,408.543 608.072,409.209 608.631,410.555 610.725,409.267 				"/>
				<path d="M611.431,409.197c0.011,0.021-0.069,3.885-0.069,3.885l0.898-0.222l-0.383-3.725L611.431,409.197z"/>
				<path d="M610.867,407.827c-0.011-0.018-2.834-2.794-2.834-2.794l0.842-0.347l2.31,2.778L610.867,407.827z"/>
			</g>
			<g id="Tapiceria_3_">
				<path fill="#E8CDA0" d="M639.814,426.04c0,0-4.646-10.991,6.042-18.271c10.69-7.281,26.171-15.363,26.438-15.672
					C672.561,391.79,675.348,409.954,639.814,426.04z"/>
				<path fill="#E8CDA0" d="M621.57,381.942c0,0,4.479,11.06,17.18,8.661c12.709-2.399,29.373-7.62,29.783-7.596
					C668.939,383.037,658.075,368.213,621.57,381.942z"/>
				<path fill="#E8CDA0" d="M576.048,401.762c0,0,2.377-1.926,2.531,1.123c0.51,10.041,8.368,30.937,16.149,38.558
					c1.635,1.596,1.133,1.771-0.201,2.254c-0.998,0.358-11.742,3.182-11.742,3.182s-12.606-13.309-16.472-39.806L576.048,401.762z"
					/>
				<path fill="#E8CDA0" d="M601.118,428.261c-0.564,0.23-1.038-0.269-1.36-1.05l-7.349-17.754c-0.327-0.777-0.44-1.717,0.12-1.947
					l5.924-2.453c0.562-0.232,1.488,0.372,1.812,1.15l7.348,17.753c0.323,0.778-0.014,1.619-0.573,1.851L601.118,428.261z"/>
			</g>
		</g>
		<g>
			<path fill="#996234" d="M605.364,406.612c0,0,1.595,0.458-0.119,1.698c-1.717,1.232-3.254,2.892-3.254,2.892
				s1.438,1.795,2.109,1.843c0.674,0.05,3.119-1.239,4.495,0.266c1.367,1.508,2.104,2.139-0.886,2.491
				c-2.989,0.358-4.989,0.86-4.989,0.86l-4.688-6.688l6.913-3.188"/>
			<path fill="#EF45B7" d="M599.374,410.18c0,0,2.875-4.336,3.317-2.84c0.447,1.489-0.959,1.203-0.304,3.062s1.96,1.027,2.12,3.577
				c0.158,2.545,1.174,3.098-0.191,3.228c-1.37,0.126-1.927,0.26-1.927,0.26L599.374,410.18z"/>
			<path fill="#996234" d="M598.096,408.211c0,0,3.119-1.438,3.907-1.863c1.468-0.796,5.189-0.805,5.772-1.045
				c0.584-0.243,1.23-0.399,0.681,0.731c-0.541,1.127-3.75,1.566-5.333,1.834c-1.585,0.271-2.962,1.941-3.413,2.171
				c-0.451,0.234-0.18-1.009-0.18-1.009L598.096,408.211z"/>
			<path fill="#996234" d="M602.019,418.261c0,0,3.786-0.402,4.64-0.655c1.603-0.477,4.241-3.091,4.825-3.339
				c0.581-0.242,1.155-0.577-0.028-0.995c-1.183-0.411-3.764,1.543-5.076,2.467c-1.31,0.926-3.584,0.015-4.066,0.174
				c-0.481,0.161,0.708,1.549,0.708,1.549L602.019,418.261z"/>
			<path fill="#8BC7E8" d="M597.515,406.805c0,0-3.678,2.212-3.472,4.979c0.208,2.759,0.286,3.715,2.131,5.505
				c1.85,1.793,1.805,3.173,3.707,2.186c1.898-0.98,3.467-0.082,2.994-2.102c-0.51-2.178-2.404-7.807-2.517-8.202
				C599.671,406.734,597.515,406.805,597.515,406.805z"/>
			<path fill="#301705" d="M595.242,414.683c0,0-0.693-2.295,1.265-2.718c1.951-0.422,2.22-1.664,3.432-0.343
				c1.215,1.323,3.057,1.469,1.82,2.785c-1.232,1.313-1.836,2.148-3.108,2.093c-1.272-0.055-1.492,0.157-2.428-0.2
				C595.283,415.956,595.242,414.683,595.242,414.683z"/>
		</g>
	</g>
	<g>
		<polygon fill="#EA3434" points="294.899,655.908 297.595,625.784 268.514,634.089 		"/>
	</g>
	<polygon fill="#44CC64" points="156.037,344.689 184.91,335.682 175.707,328.44 293.709,179.328 285.083,172.502 167.063,321.638 
		158.004,314.508 	"/>
</g>
<g id="Home_ofegant-se">
	<path fill="#FFFFFF" d="M450.144,418.815c0.589,0.115,5.591-0.375,6.283,0.288c0.692,0.664,0.859,2.998,1.069,3.876
		s0.627,0.902-0.865,1.409c-1.491,0.506-3.134,2.627-5.252,0.988s-2.521-1.965-2.936-2.366c-0.414-0.401-1.357,0.004-0.271-1.445
		c1.086-1.451-0.29-3.343-0.29-3.343L450.144,418.815z"/>
	<path fill="#EDC494" d="M437.726,420.813c-0.37-0.156-4.458-9.24-4.45-9.808c0.008-0.566,0.049-2.725,0.412-4.719
		c0.362-1.993,1.859-4.879,1.761-7.805c-0.101-2.926-0.271-5.044-0.271-5.044s-2.079-3.231-0.741-3.937
		c1.337-0.705,2.777-2.078,2.777-2.078s0.762,1.636,0.968,2.731c0.206,1.094,0.679,1.799,0.494,2.625
		c-0.184,0.827-0.819,1.06-0.839,2.761c-0.02,1.703,0.559,3.557,0.764,5.254s-0.036,4.009-0.154,4.597
		c-0.117,0.587-0.67,1.258-0.374,2.222c0.295,0.963,0.027-0.459,1.437,2.221c1.409,2.678,1.819,3.053,1.923,3.6
		c0.103,0.548,2.063,3.124,2.52,3.151c0.457,0.026,0.769-0.713,1.255-1.144c0.487-0.431,0.499-1.552,0.903-2.427
		c0.402-0.876-0.295-0.972,1.234-1.26c1.53-0.289,0.965-0.293,1.989-0.26c1.026,0.031,1.281-1.019,2.79,0.388
		c1.51,1.405,2.329-1.466,2.023,2.328c-0.305,3.795-0.055,2.729-0.305,3.795c-0.25,1.064,0.124,0.656-1.263,1.709
		c-1.386,1.053-1.16,0.444-1.386,1.053c-0.226,0.61-0.941-0.162-0.473,1.109c0.467,1.271-0.68,1.827,0.411,2.188
		c1.09,0.358,2.799-0.188,4.719-0.21s4.061-0.084,5.579,0.761c1.518,0.847,1.383,1.325,1.498,2.548
		c0.116,1.225,3.124,1.564-1.285,1.602c-4.409,0.038-8.623-0.073-9.769-0.764c-1.147-0.691-3.273-1.763-4.923-2.698
		c-1.648-0.935-2.072-1.987-3.508-2.397c-1.437-0.408-4.979,0.032-4.979,0.032L437.726,420.813z"/>
	<path fill="#874926" d="M450.62,412.128c-0.844-1.284-2.08-1.842-0.878-2.069c1.202-0.227,1.279-1.034,1.641-0.309
		c0.361,0.724-0.235,0.579,1.074,1.496c1.312,0.917,2.605,1.208,2.605,1.208s0.069-0.239,0.186,0.984
		c0.117,1.222,1.501,1.415,0.522,2.505c-0.978,1.091-1.268,1.371-1.929,2.062c-0.661,0.689-1.169,1.013-1.169,1.013
		s-0.659,0.918-0.729,0.139c-0.069-0.782,0.107-1.04,0.422-1.78c0.314-0.738,1.439-1.289,0.852-1.745
		c-0.587-0.456-1.516-1.186-1.516-1.186s-0.426-1.053-0.378-1.401c0.049-0.35-0.569-0.205-0.637-0.561"/>
	<path fill="#FFFFFF" d="M416.582,420.378c0.246,0.12,0.733,0.093,1.351-0.016c1.903-0.336,5.023-1.44,5.978-1.364
		c1.264,0.102,2.507-0.53,3.078-0.496s-0.184-6.377,1.77-5.625c1.954,0.75,2.817,3.546,5.504,3.38
		c2.686-0.165,1.834,1.438,2.249,2.292c0.414,0.854,2.143,1.585,2.364,2.953c0.22,1.369,1.78,2.837,0.819,0.752
		c-2.685-5.827,12.541,5.898,6.313,1.643c-1.561-1.065,0.831,1.089,3.761,1.784c2.931,0.692,1.552,1.179,3.644,1.464
		c2.092,0.286,1.074-0.314,2.967,0.121c1.892,0.436-0.05-1.463,4.236-0.345c4.287,1.119,6.065-0.276,6.551,1.104
		c0.485,1.381,0.708,3.759-0.604,5.816c-1.311,2.058-3.757,4.104-2.459,3.181c6.326-4.5-2.418,3.658-2.667-0.072
		c-0.067-1.007-0.341-3.274-0.205-2.557c0.309,1.641,2.499-4.772-0.31-1.64c-2.807,3.13-1.725,4.06-2.807,3.13
		c-1.082-0.927-1.497-0.735-1.71-1.261c-0.214-0.526,0.986-0.186-0.506-1.491c-1.493-1.305-1.065-0.819-3.306-1.303
		c-2.242-0.483-3.166,0.031-3.603,0.112c-0.436,0.082-0.791,1.197-1.181-0.271c-0.391-1.47-0.697-1.302-0.753-2.196
		c-0.058-0.894,1.596-0.526-0.058-0.894c-1.653-0.368-1.566-0.508-2.918-0.476c-1.353,0.034-0.473,0.424-1.854,0.35
		c-1.381-0.075-1.698,1.229-2.617-0.636s-1.134-1.824-1.211-2.829c-0.078-1.004,0.558-1.234-0.57-1.816
		c-1.129-0.582-1.796-1.135-3.001-0.908s-1.722-0.127-2.254,0.651c-0.534,0.779,0.594,1.36-1.21,0.794
		c-1.805-0.566-2.003-0.416-2.236-1.051c-0.234-0.636,0.819-1.061-0.337-1.183c-1.155-0.122-1.296-1.454-2.961-0.688
		c-1.667,0.768-0.331,2.442-2.35,1.349c-2.019-1.093-3.002-0.358-3.192-1.323c-0.189-0.965,0.987-1.268-0.189-0.965"/>
	<path fill="#FFFFFF" d="M450.481,420.119c-0.177-0.013-0.468,0.12-0.817,0.334c-1.076,0.661-2.706,2.077-3.304,2.261
		c-0.796,0.243-1.396,0.924-1.752,1.038c-0.354,0.115,0.83,1.592-0.536,1.604c-1.37,0.013-1.281-1.082-2.875-0.338
		c-1.592,0.743-1.93,1.407-2.386,0.987c-0.458-0.417-1.683-0.447-2.145-1.229c-0.463-0.777-1.762-1.295-0.679-0.26
		c3.025,2.898-9.033-0.579-4.231,0.516c1.207,0.273-0.764-0.463-2.711-0.183c-1.945,0.28-1.226-0.345-2.564-0.017
		c-1.34,0.327-0.579,0.449-1.831,0.635c-1.257,0.191,0.381,0.88-2.493,1.227c-2.871,0.349-3.617,1.622-4.243,0.898
		c-0.624-0.723-1.332-2.112-1.026-3.678c0.301-1.565,1.298-3.395,0.729-2.521c-2.765,4.25,0.592-2.803,1.64-0.596
		c0.282,0.595,0.99,1.908,0.736,1.505c-0.578-0.923-0.373,3.498,0.583,0.923c0.953-2.577,0.073-2.881,0.953-2.577
		c0.88,0.305,1.086,0.089,1.342,0.359c0.255,0.268-0.554,0.347,0.665,0.783c1.221,0.435,0.845,0.243,2.322,0
		c1.475-0.244,1.913-0.776,2.16-0.93c0.244-0.155,0.196-0.919,0.785-0.12c0.587,0.8,0.731,0.624,0.98,1.154
		c0.251,0.528-0.845,0.702,0.251,0.528c1.094-0.172,1.072-0.067,1.887-0.409c0.812-0.345,0.185-0.372,1.042-0.657
		c0.856-0.285,0.734-1.153,1.743-0.242c1.006,0.915,1.126,0.838,1.412,1.431c0.29,0.591-0.043,0.885,0.783,0.966
		c0.824,0.083,1.364,0.259,2.038-0.165c0.678-0.428,1.077-0.336,1.217-0.938c0.136-0.602-0.689-0.684,0.544-0.771
		c1.23-0.088,1.316-0.228,1.612,0.103c0.293,0.33-0.245,0.839,0.486,0.638c0.731-0.204,1.136,0.573,1.964-0.291
		s-0.387-1.562,1.103-1.383c1.49,0.18,1.914-0.501,2.261,0.038c0.346,0.542-0.299,1.009,0.346,0.542"/>
</g>
</svg>
