<?xml version="1.0" encoding="utf-8"?>
<!-- Generator: Adobe Illustrator 16.0.0, SVG Export Plug-In . SVG Version: 6.00 Build 0)  -->
<!DOCTYPE svg PUBLIC "-//W3C//DTD SVG 1.1//EN" "http://www.w3.org/Graphics/SVG/1.1/DTD/svg11.dtd">
<svg version="1.1" xmlns="http://www.w3.org/2000/svg" xmlns:xlink="http://www.w3.org/1999/xlink" x="0px" y="0px" width="800px"
	 height="800px" viewBox="0 0 800 800" enable-background="new 0 0 800 800" xml:space="preserve">
<g id="Capa_1" display="none">
	<g id="Cèl" display="inline">
		
			<linearGradient id="SVGID_1_" gradientUnits="userSpaceOnUse" x1="361.5" y1="985.4062" x2="1195.0283" y2="985.4062" gradientTransform="matrix(0 -1 -1 0 1391.5 1187.5)">
			<stop  offset="0.4692" style="stop-color:#FFFFFF"/>
			<stop  offset="0.5669" style="stop-color:#C1F0FF"/>
			<stop  offset="0.6844" style="stop-color:#7DE0FF"/>
			<stop  offset="0.7908" style="stop-color:#47D4FF"/>
			<stop  offset="0.8821" style="stop-color:#20CBFF"/>
			<stop  offset="0.9549" style="stop-color:#09C5FF"/>
			<stop  offset="1" style="stop-color:#00C3FF"/>
		</linearGradient>
		<polygon fill="url(#SVGID_1_)" points="-14.703,-7.528 826.892,-7.528 823.621,826 -11.764,826 		"/>
	</g>
	<polygon display="inline" opacity="0.6" fill="#39BCC4" enable-background="new    " points="-2.36,421.741 847.39,420.821 
		845.407,888.741 -5.378,888.741 	"/>
	<path display="inline" fill="#29ABE2" d="M301.853,292.441c-0.025,0.261,2.997-4.307,2.997-4.307
		c7.505-8.257,24.285-30.436,24.285-30.436l54.412-0.209l60.065,0.272c0,0,16.774,22.277,24.285,30.526c0,0,2.341,4.401,2.326,4.142
		c0-41.748-11.459-65.629-40.582-65.629h-85.224C313.623,228.125,301.496,251.361,301.853,292.441z"/>
	<g display="inline">
		<path fill="#D3D3D3" d="M471,293.61c0-24.681-18.639-44.61-41.02-44.61h-87.804C319.796,249,302,268.93,302,293.61v198.466
			c0,24.68,17.796,44.924,40.177,44.924h87.804c22.381,0,41.02-20.244,41.02-44.924V293.61z"/>
		<g>
			<g id="WATER">
				<circle fill="#F4F4F4" cx="333.495" cy="277.767" r="11.237"/>
				<circle fill="#F4F4F4" cx="365.652" cy="277.767" r="11.237"/>
				<text transform="matrix(1 0 0 1 325.4146 281.1221)" font-family="'MyriadPro-Bold'" font-size="2.0346">ºC</text>
				<text transform="matrix(1 0 0 1 327.4116 276.2988)" font-family="'MyriadPro-Bold'" font-size="2.0346">40</text>
				<text transform="matrix(1 0 0 1 331.2734 274.3232)" font-family="'MyriadPro-Bold'" font-size="2.0346">80</text>
				<text transform="matrix(1 0 0 1 334.3447 274.5293)" font-family="'MyriadPro-Bold'" font-size="2.0346">100</text>
				<text transform="matrix(1 0 0 1 336.6421 276.5039)" font-family="'MyriadPro-Bold'" font-size="2.0346">120</text>
				
					<rect x="331.744" y="270.174" transform="matrix(0.9921 -0.1254 0.1254 0.9921 -31.3746 43.7708)" width="0.678" height="1.98"/>
				
					<rect x="336.547" y="270.684" transform="matrix(0.9235 0.3835 -0.3835 0.9235 129.9612 -108.4327)" width="0.677" height="1.979"/>
				
					<rect x="339.995" y="272.889" transform="matrix(0.6966 0.7175 -0.7175 0.6966 299.7632 -161.0824)" width="0.678" height="1.978"/>
				
					<rect x="328.07" y="271.419" transform="matrix(0.8468 -0.5319 0.5319 0.8468 -94.5828 216.3997)" width="0.678" height="1.978"/>
				
					<rect x="326.204" y="272.888" transform="matrix(0.6941 -0.7199 0.7199 0.6941 -97.2661 318.8768)" width="0.68" height="1.979"/>
				<rect x="334.286" y="270.12" transform="matrix(0.9967 0.0815 -0.0815 0.9967 23.1956 -26.363)" width="0.395" height="1.582"/>
				
					<rect x="329.652" y="270.686" transform="matrix(0.9255 -0.3786 0.3786 0.9255 -78.2318 145.1041)" width="0.395" height="1.581"/>
				
					<rect x="338.921" y="271.873" transform="matrix(0.8016 0.5978 -0.5978 0.8016 230.2765 -148.644)" width="0.395" height="1.582"/>
			</g>
			<g id="Capa_2_copia">
				<path fill="#1E1E1E" d="M333.495,265.109c-7.033,0-12.735,5.7-12.735,12.735c0,7.033,5.702,12.734,12.735,12.734
					c7.034,0,12.735-5.701,12.735-12.734C346.23,270.81,340.528,265.109,333.495,265.109z M333.495,288.13
					c-5.681,0-10.286-4.605-10.286-10.285s4.605-10.286,10.286-10.286c5.681,0,10.286,4.606,10.286,10.286
					S339.176,288.13,333.495,288.13z"/>
				<path fill="#3D3D3D" d="M333.495,265.109c-7.033,0-12.735,5.7-12.735,12.735c0,7.033,5.702,12.734,12.735,12.734
					c7.034,0,12.735-5.701,12.735-12.734C346.23,270.81,340.528,265.109,333.495,265.109z M333.495,289.675
					c-6.533,0-11.83-5.297-11.83-11.83c0-6.535,5.297-11.831,11.83-11.831c6.534,0,11.831,5.296,11.831,11.831
					C345.325,284.378,340.029,289.675,333.495,289.675z"/>
				<path fill="#EA2424" d="M333.073,278.685l0.222-7.746l0.449-0.001c0,0,0.164,7.727,0.174,7.748L333.073,278.685z"/>
				<circle fill="#1E1E1E" cx="333.495" cy="280.707" r="2.336"/>
			</g>
			<g id="FUEL">
				<rect x="364.899" y="270.266" fill="#232323" width="0.617" height="2.753"/>
				
					<rect x="371.906" y="273.495" transform="matrix(0.6362 0.7715 -0.7715 0.6362 347.4732 -187.1785)" fill="#232323" width="0.632" height="2.758"/>
				
					<rect x="357.889" y="273.498" transform="matrix(-0.6358 0.7719 -0.7719 -0.6358 798.1112 173.139)" fill="#232323" width="0.631" height="2.758"/>
				
					<rect x="360.944" y="271.157" transform="matrix(-0.9069 0.4215 -0.4215 -0.9069 803.418 366.7723)" fill="#232323" width="0.466" height="2.029"/>
				
					<rect x="368.986" y="271.158" transform="matrix(0.9083 0.4184 -0.4184 0.9083 147.7442 -129.5105)" fill="#232323" width="0.464" height="2.028"/>
				<text transform="matrix(1 0 0 1 357.5884 281.4658)" fill="#232323" font-family="'MyriadPro-Bold'" font-size="2.0781">FUEL</text>
				<text transform="matrix(1 0 0 1 359.2183 277.7666)" fill="#232323" font-family="'MyriadPro-Bold'" font-size="2.169">E</text>
				<text transform="matrix(1 0 0 1 370.0605 277.7666)" fill="#232323" font-family="'MyriadPro-Bold'" font-size="2.169">F</text>
				<text transform="matrix(1.4697 0 0 1 364.7715 274.9805)" fill="#232323" font-family="'MyriadPro-Bold'" font-size="2.169">/</text>
				<text transform="matrix(1 0 0 1 364.438 274.3008)" fill="#1E1E1E" font-family="'MyriadPro-Bold'" font-size="1.297">1</text>
				<text transform="matrix(1 0 0 1 365.6021 275.084)" fill="#232323" font-family="'MyriadPro-Bold'" font-size="1.297">2</text>
				<path d="M372.042,280.05c-0.032-0.025-0.28-0.248-0.366-0.208c-0.086,0.039,0.151,0.223,0.194,0.272
					c0.043,0.051,0.076,0,0.043,0.255c-0.032,0.255,0.047,0.646,0.086,0.725c0.04,0.08,0.206,0.468-0.149,0.424
					c-0.355-0.043-0.229-0.266-0.243-0.67c-0.011-0.308-0.203-0.376-0.345-0.392v-0.697h-1.234v1.899h-0.19v0.095h1.614v-0.095
					h-0.19v-1.054c0.095,0.027,0.182,0.081,0.214,0.137c0.079,0.139-0.058,0.285-0.004,0.595c0.054,0.308,0.404,0.377,0.626,0.255
					c0.222-0.123,0.033-0.532-0.007-0.65c-0.039-0.118-0.053-0.435-0.032-0.493c0.022-0.056,0.158-0.067,0.19-0.121
					C372.282,280.271,372.074,280.075,372.042,280.05z M371.166,280.472h-1.044v-0.617h1.044V280.472z"/>
			</g>
			<g id="Capa_2_copia_1_">
				<path fill="#1E1E1E" d="M365.185,264.9c-7.148,0-12.944,5.795-12.944,12.944c0,7.147,5.795,12.944,12.944,12.944
					s12.943-5.797,12.943-12.944C378.128,270.695,372.333,264.9,365.185,264.9z M365.185,288.299
					c-5.774,0-10.455-4.681-10.455-10.454c0-5.774,4.681-10.454,10.455-10.454s10.455,4.68,10.455,10.454
					C375.639,283.618,370.958,288.299,365.185,288.299z"/>
				<path fill="#3D3D3D" d="M365.185,264.9c-7.148,0-12.944,5.795-12.944,12.944c0,7.147,5.795,12.944,12.944,12.944
					s12.943-5.797,12.943-12.944C378.128,270.695,372.333,264.9,365.185,264.9z M365.185,289.869
					c-6.641,0-12.025-5.383-12.025-12.024s5.384-12.024,12.025-12.024s12.025,5.383,12.025,12.024S371.826,289.869,365.185,289.869z
					"/>
				<path fill="#EA2424" d="M365.601,280.062c0.021-0.009,5.901-5.219,5.901-5.219l0.309,0.338l-5.627,5.509L365.601,280.062z"/>
				<circle fill="#1E1E1E" cx="365.185" cy="280.755" r="2.375"/>
			</g>
		</g>
		<g>
			<rect x="386" y="286" fill="#969696" width="4" height="90"/>
			
				<rect x="384.055" y="283.627" transform="matrix(0.482 -0.8762 0.8762 0.482 -90.0821 510.0767)" fill="#969696" width="4.551" height="95.187"/>
			
				<rect x="382.759" y="285.713" transform="matrix(-0.5146 -0.8575 0.8575 -0.5146 297.3672 834.9536)" fill="#969696" width="4.551" height="95.175"/>
			<path stroke="#000000" stroke-miterlimit="10" d="M387.367,267.977c-35.589,0-64.44,28.85-64.44,64.441
				c0,35.59,28.852,64.441,64.44,64.441c35.59,0,64.441-28.851,64.441-64.441C451.809,296.827,422.957,267.977,387.367,267.977z
				 M387.367,399.318c-36.948,0-66.901-29.953-66.901-66.9c0-36.948,29.953-66.901,66.901-66.901
				c36.948,0,66.901,29.953,66.901,66.901C454.269,369.365,424.315,399.318,387.367,399.318z"/>
			<path stroke="#000000" stroke-miterlimit="10" d="M373.9,266.873c0.322-0.046,9.476-1.095,9.629,6.331
				c0.153,7.427,0.178,12.658,0.178,12.658s-0.345,5.496,3.19,5.493c0.338-0.001,2.905,0.003,3.195,0.003
				c2.939,0,3.025-2.741,3.001-5.603c-0.028-3.104,0.161-12.431,0.161-12.431s0.669-6.361,7.66-6.361
				c7.173-0.001-1.499-2.513-1.499-2.513l-22.559,0.142L373.9,266.873z"/>
			<path stroke="#000000" stroke-miterlimit="10" d="M323.477,312.703c0.122-0.303,3.59-8.681,10.097-5.1
				c6.508,3.581,11.051,6.176,11.051,6.176s4.588,3.047,6.352-0.017c0.169-0.294,1.457-2.516,1.601-2.767
				c1.47-2.545-0.861-3.99-3.351-5.398c-2.704-1.529-10.686-6.356-10.686-6.356s-6.129-3.8-2.233-9.604
				c3.982-5.933-2.371-0.169-2.371-0.169l-11.157,19.609L323.477,312.703z"/>
			<path d="M338.093,377.611c-0.2-0.256-5.721-7.447,0.633-11.293c6.354-3.844,10.873-6.481,10.873-6.481s4.933-2.45,3.163-5.509
				c-0.17-0.295-1.451-2.521-1.596-2.771c-1.469-2.546-3.886-1.251-6.351,0.202c-2.675,1.576-10.848,6.076-10.848,6.076
				s-6.313,2.3-9.809-3.754c-3.587-6.211-0.956,2.854-0.956,2.854l11.403,19.467L338.093,377.611z"/>
			<path stroke="#000000" stroke-miterlimit="10" d="M403.581,397.292c-0.323,0.045-9.312,1.231-9.464-6.194
				s-0.178-12.658-0.178-12.658s0.345-5.496-3.19-5.492c-0.339,0-2.906-0.004-3.195-0.004c-2.939,0-3.026,2.74-3,5.602
				c0.027,3.104-0.164,12.433-0.164,12.433s-1.354,7.11-8.505,7.07c-7.172-0.041,2.346,1.802,2.346,1.802l22.561-0.142
				L403.581,397.292z"/>
			<path stroke="#000000" stroke-miterlimit="10" d="M451.569,351.6c-0.122,0.302-3.589,8.679-10.097,5.1
				c-6.508-3.582-11.051-6.176-11.051-6.176s-4.589-3.047-6.353,0.016c-0.169,0.294-1.457,2.516-1.602,2.766
				c-1.47,2.546,0.861,3.992,3.352,5.4c2.702,1.527,10.686,6.357,10.686,6.357s5.207,4.623,1.712,10.678
				c-3.586,6.212,2.892-0.907,2.892-0.907l11.157-19.608L451.569,351.6z"/>
			<path stroke="#000000" stroke-miterlimit="10" d="M435.652,286.04c0.2,0.256,5.723,7.448-0.633,11.293
				c-6.354,3.845-10.874,6.482-10.874,6.482c-5.812,2.886-2.043,7.441-3.162,5.509c-0.17-0.293,1.451,2.52,1.596,2.771
				c1.47,2.545,3.888,1.25,6.353-0.203c2.675-1.577,10.848-6.076,10.848-6.076s6.928-2.036,10.425,4.018
				c3.586,6.211,0.339-3.119,0.339-3.119l-11.403-19.466L435.652,286.04z"/>
			<path fill="#969696" d="M388.396,314.645c-9.775,0-17.7,7.925-17.7,17.699s7.925,17.699,17.7,17.699
				c9.774,0,17.699-7.925,17.699-17.699S398.17,314.645,388.396,314.645z M388.396,341.237c-4.912,0-8.894-3.981-8.894-8.894
				s3.982-8.895,8.894-8.895c4.911,0,8.895,3.982,8.895,8.895S393.307,341.237,388.396,341.237z"/>
			<circle cx="388.503" cy="331.368" r="10.158"/>
		</g>
	</g>
	<g display="inline">
		<path fill="#EAEAEA" d="M490,481c0-6.627-5.373-12-12-12H298c-6.627,0-12,5.373-12,12v33c0,6.627,5.373,12,12,12h180
			c6.627,0,12-5.373,12-12V481z"/>
		<path fill="#E8CDA0" d="M480,463c0-3.313-2.687-6-6-6H310c-3.313,0-6,2.687-6,6l0,0c0,3.313,2.687,6,6,6h164
			C477.313,469,480,466.313,480,463L480,463z"/>
		<path fill="#E8CDA0" d="M540.552,519c0-3.313-4.71-6-10.519-6H242.519c-5.809,0-10.519,2.687-10.519,6l0,0
			c0,3.313,4.71,6,10.519,6h287.514C535.842,525,540.552,522.313,540.552,519L540.552,519z"/>
		<g>
			<path fill="#EF45B7" d="M431.426,426.421c0,0,23.383,34.227,6.597,33.084c-16.787-1.148,1-3-20.291-3.405
				c-21.285-0.4-17.83,15.934-44.21,7.879c-26.375-8.055-35.837,0.105-31.937-14.229c3.912-14.334,4.672-20.484,4.672-20.484
				L431.426,426.421z"/>
			<path fill="#996234" d="M338.485,382.667c0,0-21.769,14.898-24.051,4.681c-4.271-19.129,3.903-61.094,2.914-68.437
				c-0.99-7.344-1.063-15.158,8.41-5.356c9.468,9.802,11.019,15.036,10.074,33.779c-0.951,18.735,22.466,24.45,23.64,30.278
				c1.155,5.837-18.19,8.785-18.19,8.785L338.485,382.667z"/>
			<path fill="#996234" d="M429.017,387.213c0,0,35.448,4.067,36.345-6.364c1.67-19.527-12.031-60.023-12.031-67.433
				c0-7.41-0.959-15.164-9.044-4.185c-8.079,10.979-15.727,25.654-12.286,44.102c3.451,18.44-22.568,14.195-22.939,20.126
				c-0.371,5.939,16.479-0.75,16.479-0.75L429.017,387.213z"/>
			<path fill="#8BC7E8" d="M461.333,341.526c0,0,2.26-51.102-28.074-60.912c-26.117-8.447-46.736-19.35-69.254-6.613
				c-22.524,12.745-29.207,8.192-36.285,32.298c-7.253,24.701-11.861,39.588,8.099,42.875c2.872,0.474-4.299,86.382,0.013,86.826
				c11.761,1.211,97.619,12.36,105.169-5.791c2-4.809-2.668-38.409,0.473-73.51C441.792,353.127,461.333,341.526,461.333,341.526z"
				/>
			<path fill="#996234" d="M374.123,200.773c0,0-0.657,28.91-0.136,63.863c0.351,23.5,17.937,25.8,28.068,17.543
				c13.062-10.645,3.588-48.751,5.015-56.296C408.5,218.33,374.123,200.773,374.123,200.773z"/>
			<path fill="#301705" d="M387.011,265.697c0,0-23.16-2.767-19.683-25.925c3.458-23.144-9.45-40.479,7.448-46.348
				c15.948-5.538,26.698-19.091,33.911,0.242s12.421,29.592,7.213,43.181c-5.203,13.604-4.114,16.918-10.733,25.527
				C398.555,270.999,387.011,265.697,387.011,265.697z"/>
		</g>
	</g>
	<path display="inline" fill="#5B5B5B" d="M486,416.973c0,2.478-1.39,4.027-2.697,4.027h-10.268c-1.308,0-2.035-1.55-2.035-4.027
		v-47.104c0-2.478,0.728-4.869,2.035-4.869h10.268c1.308,0,2.697,2.392,2.697,4.869V416.973z"/>
	<rect x="184" y="522" display="inline" fill="#F4F4F4" width="412" height="220"/>
</g>
<g id="Capa_3">
	<g id="Cèl_1_">
		
			<linearGradient id="SVGID_2_" gradientUnits="userSpaceOnUse" x1="303.6611" y1="1027.1582" x2="1197.6895" y2="1027.1582" gradientTransform="matrix(0 -1 -1 0 1391.5 1187.5)">
			<stop  offset="0.4692" style="stop-color:#FFFFFF"/>
			<stop  offset="0.5669" style="stop-color:#C1F0FF"/>
			<stop  offset="0.6844" style="stop-color:#7DE0FF"/>
			<stop  offset="0.7908" style="stop-color:#47D4FF"/>
			<stop  offset="0.8821" style="stop-color:#20CBFF"/>
			<stop  offset="0.9549" style="stop-color:#09C5FF"/>
			<stop  offset="1" style="stop-color:#00C3FF"/>
		</linearGradient>
		<polygon fill="url(#SVGID_2_)" points="-86.998,-10.19 815.683,-10.19 812.175,883.839 -83.845,883.839 		"/>
	</g>
	<polygon opacity="0.8" fill="#39BCC4" enable-background="new    " points="-36.698,-17.098 874.729,-18.85 872.603,872.685 
		-39.935,872.685 	"/>
</g>
<g id="Capa_2">
	<g>
		<path fill="#CCCCCC" d="M66.368,398.044c-89.144-5.738-390.319-4.856-471.499-7.075c-0.625,158.573,0.879,289.533,7.423,296.079
			c16.995,16.995,449.595,75.707,475.86,72.616c26.266-3.091,321.361-67.979,369.255-92.699
			c43.611-22.512,93.622-223.055,110.385-285.58C441.363,396.084,156.999,403.877,66.368,398.044z"/>
		<path fill="#EAEAEA" d="M557.793,384.077c1.646-6.14,2.979-10.974,3.945-14.153c10.816-35.535,9.269-83.429,7.724-98.88
			c-1.543-15.449-93.546-30.899-93.546-30.899L404,155.17V39.295l-195.367-58.71L-69.818-156.921l-354.867-53.759
			c0,0,20.639,351.128,19.64,604.341c81.182,2.219,381.441,10.253,470.769,10.253C154.82,403.914,441.363,398.775,557.793,384.077z"
			/>
	</g>
	<rect x="-350" y="39" fill="#D8D8D8" width="754" height="198"/>
	<rect x="-339" y="-102" fill="#D8D8D8" width="323" height="85"/>
	<rect x="-390" y="-291" fill="#D8D8D8" width="212" height="165"/>
	<path fill="#E8CDA0" d="M354.141,17c0,8.959-7.262,16-16.22,16h-659.717C-330.756,33-339,30.024-339,22.299v-8.497
		C-339,4.532-330.756,1-321.797,1H337.92C346.878,1,354.141,8.041,354.141,17L354.141,17z"/>
	<path fill="#E8CDA0" d="M-27.723-119.5c0,8.959-7.263,15.5-16.221,15.5h-659.717c-8.959,0-17.339-2.167-17.339-9.893v-8.496
		c0-9.271,8.38-12.611,18.91-12.611h659.717C-34.986-135-27.723-128.459-27.723-119.5L-27.723-119.5z"/>
	<path fill="#D8D8D8" d="M-368.916,270.313c0,0,872.011,9.282,912.902,2.552c40.892-6.73,24.215-4.221,24.215-4.221
		s7.312,27.551-0.717,72.082c-3.521,19.512-25.486,29.051-25.486,29.051l-372.618,2.465l-531.116-1.024L-368.916,270.313z"/>
	<path fill="#FF0000" d="M553.303,362.711c14.359-6.229,15.006-26.526,15.006-26.526s30.983,53.446-11.059,56.455
		c-71.702,5.132-273.25,8.186-273.25,8.186v-28.583C284,372.242,525.371,374.825,553.303,362.711z"/>
	<path fill="#E5CAB1" d="M290.254,268.826c-2.019-1.345-34.133-18.843-36.92-29.612c-2.787-10.768-0.768-13.46-3.459-29.612
		c-2.692-16.152-10.769-30.958,1.345-40.379c12.115-9.422,8.56-24.901,12.693-24.901c4.132,0,29.605-0.673,39.751,2.691
		c10.146,3.365,25.348,8.779,26.666,19.657c1.32,10.878,13.092,26.781,11.073,36.876c-2.019,10.095-4.711,20.189-7.403,26.247
		c-2.692,6.057,1.25,15.947,0.586,19.62c-0.663,3.672-4.206,16.723-12.828,19.414C313.137,271.519,290.254,268.826,290.254,268.826z
		"/>
	<path fill="#394963" d="M-130.422,255.595c0,0,3.089-241.021,41.715-262.651c38.624-21.629,44.804-38.625,67.979-38.625
		c23.174,0,142.14-10.814,159.134,0c16.996,10.815,104.854,40.17,106.4,61.801c1.545,21.629,27.81,166.859,0,259.561
		c-6.315,21.052-17.732,55.174-31.606,95.832c-47.215,138.364-110.328,352.422-110.328,384.664c0,41.716,16.995,43.26,32.444,60.255
		c15.45,16.994-3.089,24.205-3.089,24.205s-37.081-14.935-41.715-18.025c-4.636-3.091-21.631-16.994-32.446-4.636
		c-10.815,12.361-16.995,94.245-15.449,98.88c1.544,4.637-9.27,18.795,12.36,32.445c21.629,13.652,36.05,32.963,36.05,32.963
		s23.69,55.619,14.42,55.619c-9.271,0-76.735-34.506-78.281-42.23c-1.545-7.726,3.091-38.626-4.634-44.806
		c-7.726-6.182-32.446-23.176-32.446-23.176l-16.994-142.138l9.269-84.976l-66.435-77.252c0,0,10.815-185.399-18.539-227.115
		C-131.968,354.474-130.422,255.595-130.422,255.595z"/>
	<path fill="#626363" d="M47.252,870.506c0,0-65.92-81.37-27.81-74.161c38.11,7.211,34.841,44.29,39.565,61.801
		c4.725,17.51,31.505,7.213,34.594,23.69c3.091,16.479,0,20.601,0,20.601s43.26-9.271,48.411,9.27
		c5.149,18.541,11.328,57.678-17.511,33.989c-28.839-23.69-52.67-33.989-52.67-33.989l-12.825,7.211c0,0,5.754,31.929-24.116,47.379
		c-29.87,15.448-24.819,25.749-18.589,0c6.229-25.749,13.439-39.14,20.65-45.32c7.208-6.179-5.151-14.935-5.151-14.935
		s1.897-23.426,2.059-24.403C34.023,880.659,47.252,870.506,47.252,870.506z"/>
	<path fill="#394963" d="M66.876,904.234c-4.954-31.694,6.531-32.521,15.338-23.083c8.805,9.436,12.595,15.907,4.614,17.957
		C78.848,901.157,66.876,904.234,66.876,904.234z"/>
	<polygon fill="#8C8C8C" points="295,325.12 295,289 492.213,289 493.214,323.497 	"/>
	<path fill="#606060" d="M295,311.058V289h167.314c0,0,2.019,19.586,0.271,19.899C460.838,309.209,295,311.058,295,311.058z"/>
	<path fill="#999999" d="M704.476,562.256c3.628-3.408,3.803-9.403,0.392-13.029L460.47,289h-25.421l256.313,272.898
		c3.411,3.623,9.113,3.961,12.739,0.55L704.476,562.256z"/>
	<path fill="#B7B7B7" d="M669,520.854c0-4.338-3.517-7.854-7.854-7.854H516.854c-4.338,0-7.854,3.516-7.854,7.854v0.293
		c0,4.338,3.517,7.854,7.854,7.854h144.291c4.338,0,7.854-3.516,7.854-7.854V520.854z"/>
	<path fill="#B7B7B7" d="M615,465.854c0-4.337-3.517-7.854-7.854-7.854H462.854c-4.338,0-7.854,3.517-7.854,7.854v0.293
		c0,4.337,3.517,7.854,7.854,7.854h144.291c4.338,0,7.854-3.517,7.854-7.854V465.854z"/>
	<path fill="#B7B7B7" d="M565,409.854c0-4.338-3.517-7.854-7.854-7.854H412.854c-4.338,0-7.854,3.516-7.854,7.854v0.293
		c0,4.338,3.516,7.854,7.854,7.854h144.293c4.337,0,7.854-3.516,7.854-7.854V409.854z"/>
	<path fill="#B7B7B7" d="M513,351.854c0-4.337-3.517-7.854-7.854-7.854H360.854c-4.338,0-7.854,3.516-7.854,7.854v0.293
		c0,4.337,3.516,7.854,7.854,7.854h144.293c4.337,0,7.854-3.516,7.854-7.854V351.854z"/>
	<path fill="#999999" d="M557.701,568.438c3.626-3.412,3.803-9.115,0.392-12.741L308.18,289.644L295,289.585v13.195l249.858,265.617
		c3.413,3.628,8.979,3.801,12.606,0.392L557.701,568.438z"/>
	<path fill="#7A7A7A" d="M556.626,564.758c1.599-1.99,1.281-4.896-0.709-6.494l-0.146-0.116c-1.989-1.595-4.895-1.277-6.491,0.71
		l-1.801,2.244c-1.599,1.99-1.279,4.898,0.708,6.494l0.146,0.116c1.989,1.597,4.896,1.276,6.492-0.71L556.626,564.758z"/>
	<path fill="#7A7A7A" d="M704.688,559.371c1.599-1.987,1.279-4.896-0.709-6.491l-0.146-0.116c-1.988-1.598-4.896-1.276-6.492,0.709
		l-1.801,2.245c-1.597,1.989-1.279,4.896,0.711,6.493l0.146,0.117c1.989,1.595,4.895,1.277,6.491-0.713L704.688,559.371z"/>
	<g opacity="0.7">
		<path opacity="0.6" fill="#39BCC4" enable-background="new    " d="M-26.907,785.532L-9.913,927.67
			c0,0,21.907,15.062,30.919,21.982c-1.616,4.872-3.188,10.387-4.702,16.644c-5.625,23.249-10.28,17.108,10.85,4.326
			c0.132,10.085-0.814,20.888,0.014,25.029c1.546,7.725,69.011,42.23,78.281,42.23c9.27,0-14.42-55.619-14.42-55.619
			s-14.42-19.311-36.05-32.963c-0.44-0.277-0.846-0.555-1.259-0.833c8.009-14.455,5.29-29.55,5.29-29.55l12.825-7.211
			c0,0,23.831,10.299,52.67,33.989c28.839,23.688,22.66-15.448,17.511-33.989c-5.151-18.54-48.411-9.27-48.411-9.27
			s3.091-4.121,0-20.601c-3.089-16.478-29.87-6.181-34.594-23.69c-2.05-7.598-2.598-18.876-5.671-29.804
			c1.455-4.785,3.036-8.43,4.73-10.367c10.815-12.358,27.81,1.545,32.446,4.636c4.634,3.091,41.715,18.025,41.715,18.025
			s18.539-7.211,3.089-24.205c-15.449-16.995-32.444-18.539-32.444-60.255c0-0.29,0.02-0.627,0.031-0.946
			c78.004-15.669,303.195-66.901,344.504-88.223c7.891-4.071,15.99-13.99,24.065-27.848l-835.396,0.905l-0.37,57.374
			c70.145,15.406,233.554,39.137,341.271,52.465L-26.907,785.532z M45.892,868.801c0.865,1.094,1.361,1.705,1.361,1.705
			s-0.679,0.521-1.725,1.333C45.646,870.828,45.768,869.816,45.892,868.801z"/>
	</g>
	<path fill="#5B422C" d="M436.634,114c3.364,2,21.841,13.646,26.399,19.703c4.557,6.057,7.112,8.731,7.855,18.041
		c0.74,9.309,13.264,11.864,8.958,19.266c-4.308,7.403-10.573,24.688-11.247,27.38c-0.672,2.693-17.248,8.804-28.309,6.11
		c-11.062-2.69-10.298,32.252-18.038,35.618c-7.738,3.365-31.356-20.491-31.386-24.806c-0.01-1.428-4.711-4.707-9.758-3.361
		c-5.047,1.345-26.246,2.877-27.594,0.262c-1.345-2.615-10.576,8.875-16.157,4.994c-5.581-3.881-1.284-16.394-4.172-21.759
		c-2.888-5.364-4.235-36.508-4.571-40.546c-0.337-4.038,5.047-40.903,5.047-40.903H436.634z"/>
	<path fill="#F9F9F9" d="M322.869,38.659c-15.84,0-59.535-25.574-65.496-22.54c0,0,5.624-43.752,1.586-56.202
		c-4.038-12.451,17.705-53.711,22.856-57.147s41.751-13.181,46.799-10.153c5.047,3.029,30.286,16.152,31.967,22.883
		c1.684,6.73,9.424,25.626,21.875,34.013c12.449,8.387,40.117,10.742,44.958,11.078c4.844,0.337,15.612-8.022,18.303-11.078
		c2.692-3.055,7.067-18.197,8.077-20.889c1.008-2.692-1.684-10.432,1.682-10.432s48.457,10.095,52.494,11.441
		c4.039,1.346,8.75-13.461,21.201,5.72c12.449,19.18,17.833,58.888,17.497,61.916c-0.337,3.029-2.693,15.143-2.019,19.181
		c0.672,4.038,0,9.085,0,11.104c0,2.02-6.139,6.636-6.099,5.505c0.041-1.13-14.766-1.803-19.812-1.13
		c-5.048,0.673-23.891,2.019-27.257,2.692c-3.365,0.673,2.8,5.721-4.604,12.451c-7.401,6.73-6.88,41.053-10.538,41.053
		s-8.076,50.475-63.936,49.465c-2.059-0.036-5.471,7.238-20.215,9.617c-26.405,4.261-63.79-8.753-63.574-9.617
		c0.336-1.346-20.19,1.291-20.19,1.291L322.869,38.659z"/>
	<path fill="#E5CAB1" d="M461.607,273.426c-10.808-0.758-20.303-2.394-28.729-10.808c-8.425-8.414-21.045-14.257-22.852-25.633
		c-1.81-11.377,4.171-12.334,0-15.534c-4.17-3.198-0.721-25.232-1.503-27.895s6.746-4.052,5.856-9.405
		c-0.891-5.352,4.748-19.726,11.729-20.008c6.979-0.284,27.864-9.428,32.009-6.902c4.144,2.527,8.581,1.222,13.352,4.347
		c4.809,3.151,4.235,0.954,10.02,7.454c5.783,6.501,16.708,10.1,18.488,20.804c1.779,10.705-1.227,19.583,0.981,24.208
		c2.209,4.625-0.007,16.839,1.147,20.16c1.152,3.323-1.207,6.785,0.959,12.759c2.166,5.973,0.312,10.091-6.866,15.771
		c-7.179,5.68-23.046,13.058-27.697,14.595C463.849,278.875,461.607,273.426,461.607,273.426z"/>
	<path fill="#F9DBBD" d="M284.912-91.261c9.202-8.076,32.645-16.14,34.664-10.083c2.019,6.058-6.228,31.964-0.172,44.078
		c6.058,12.114-3.436,68.568,0.27,76.645c3.706,8.075,1.722,68.606,1.722,68.606s14.051,35.828,16.07,41.123
		c2.017,5.293-8.083,56.344-8.083,67.154c0,10.811-6.062,35.034-6.062,47.146c0,12.113,0.292,24.226,4.331,30.281
		c4.037,6.057,32.369,41.239,32.369,41.239l2.804,28.938l-3.446,0.163l-14.028-15.353c0,0-7.628-2.018-10.007,0.72
		c-5.896,6.788-4.721,10.972-4.721,10.972l17.988,19.134l-9.583,5.701c0,0-10.1,2.019-16.155,0
		c-6.056-2.02-21.72-8.654-24.841-18.463c-2.749-8.639-17.112-28.258-15.092-33.496c2.019-5.236-0.001-20.338,4.036-26.92
		c4.039-6.582,4.038-8.174,0-24.538c-4.036-16.365-10.397-28.024-11.201-41.375c-0.806-13.349-8.774-43.633-8.774-61.804
		c0-18.17,0-62.071,0-62.071s11.817-53.007,8.908-59.063c-2.912-6.057-5.186-60.567-9.135-66.624
		C262.825-35.207,284.912-91.261,284.912-91.261z"/>
	<path fill="#F9DBBD" d="M455.477-46.476c0.674,2.692,16.993,63.094,25.069,80.592c8.076,17.499,16.91,59.141,18.255,66.543
		c1.348,7.404,3.407,32.263,0.043,40.339c-3.366,8.076-5.364,88.143-5.364,100.93c0,12.786-8.222,24.89-8.894,28.255
		C483.912,273.548,473,295.747,473,303.822c0,8.077,0,34.997,0,34.997l5.27,5.181h28.692c0,0,18.372,13.609,21.386,17.188
		l21.086,22.5c0,0,4.639-2.496,4.639-4.515s1.347-9.409,0-12.773c-1.347-3.366-8.076-16.146-8.076-16.146s3.365-1.343,3.365-3.362
		s0.672-5.382-1.347-10.094c-2.019-4.711-3.364-9.42-7.403-14.131c-4.037-4.712-18.844-18.171-18.844-18.171l-3.364-13.46
		l3.364-16.825c0,0,12.115-39.034,14.134-45.764c2.02-6.73,15.479-51.821,15.479-51.821l3.29-33.651c0,0-1.271-16.152-3.29-21.537
		c-2.019-5.383-2.692-22.882-2.692-30.285c0-7.403,1.346-12.114-3.365-23.555c-4.711-11.441-7.401-19.518-6.729-35.669
		c0.672-16.152,2.019-57.206-2.019-66.627c-4.039-9.422-9.421-30.958-11.441-32.304c-2.019-1.346-17.498-6.057-25.574-6.057
		S455.477-46.476,455.477-46.476z"/>
	<path fill="#F9F9F9" d="M322.869,38.659c-15.84,0-59.535-25.574-65.496-22.54c0,0,5.624-43.752,1.586-56.202
		c-4.038-12.451,17.705-53.711,22.856-57.147s41.751-13.181,46.799-10.153c5.047,3.029,37.24-15.368,38.922-8.639
		c1.684,6.731,8.71,48.065,21.16,56.451c12.45,8.387,33.877,19.826,38.718,20.162c4.844,0.337,15.612-8.022,18.303-11.078
		c2.692-3.055,7.067-18.197,8.077-20.889c1.008-2.692-1.684-10.432,1.682-10.432s17.596-16.561,21.633-15.214
		c4.038,1.346,39.611,13.195,52.062,32.376c12.449,19.18,17.833,58.888,17.497,61.916c-0.337,3.029-2.693,15.143-2.019,19.181
		c0.672,4.038,0,9.085,0,11.104c0,2.02-6.139,6.636-6.099,5.505c0.041-1.13-14.766-1.803-19.812-1.13
		c-5.048,0.673-23.891,2.019-27.257,2.692c-3.365,0.673-7.402-2.692-14.807,4.038c-7.402,6.73-32.727,26.247-36.385,26.247
		c-3.657,0-84.419-2.691-89.803-4.71c-5.384-2.02-21.201-2.692-20.863-4.038c0.336-1.346-3.028-16.488-3.028-16.488L322.869,38.659z
		"/>
	<path fill="#9E895A" d="M355.735-146.55c32.866-32.693,26.636-45.886,51.252-36.727c24.616,9.16,47.653,13.572,50.263,24.966
		c2.607,11.396,10.996,31.793,14.234,40.524c3.238,8.732,4.2,22.04,3.684,32.704c-0.516,10.665-6.668,35.378-10.912,40.411
		c-4.25,5.033-5.379,4.518-10.014,8.733c-4.636,4.214-10.912,8.169-23.747,10.896c-12.835,2.726-9.622,4.875-25.606,2.183
		c-15.986-2.69-6.582-6.38-22.061-5.042c-15.48,1.337-2.076,14.412-15.48,1.337c-13.404-13.074-17.595-7.857-12.736-18.935
		c4.854-11.078-2.493-22.018-6.196-31.422c-3.706-9.405-12.239-13.35-10.675-17.702c1.566-4.353-4.662-0.782-2.06-13.006
		s11.633-37.971,11.633-37.971L355.735-146.55z"/>
	
		<image display="none" overflow="visible" width="800" height="500" xlink:href="../../../Referències fotogràgiques/compass_15.jpg"  transform="matrix(1.4405 0 0 1.4405 -1406.2783 -368.5469)">
	</image>
</g>
</svg>
