<?xml version="1.0" encoding="utf-8"?>
<!-- Generator: Adobe Illustrator 16.0.0, SVG Export Plug-In . SVG Version: 6.00 Build 0)  -->
<!DOCTYPE svg PUBLIC "-//W3C//DTD SVG 1.1//EN" "http://www.w3.org/Graphics/SVG/1.1/DTD/svg11.dtd">
<svg version="1.1" xmlns="http://www.w3.org/2000/svg" xmlns:xlink="http://www.w3.org/1999/xlink" x="0px" y="0px" width="800px"
	 height="800px" viewBox="0 0 800 800" enable-background="new 0 0 800 800" xml:space="preserve">
<g id="Capa_1">
	<g id="Capa_1_1_">
		<g id="_x33_">
			<g id="Cèl_2_">
				
					<linearGradient id="SVGID_1_" gradientUnits="userSpaceOnUse" x1="394.2129" y1="-482.6807" x2="1749.7754" y2="-482.6807" gradientTransform="matrix(-4.371139e-08 -1 1 -4.371139e-08 872.4995 1201.4995)">
					<stop  offset="0.1444" style="stop-color:#FFFFFF"/>
					<stop  offset="1" style="stop-color:#00C3FF"/>
				</linearGradient>
				<polygon fill="url(#SVGID_1_)" points="-289.506,-548.275 1067.479,-548.275 1069.144,807.287 -287.84,807.287 				"/>
			</g>
			<g id="Ancla_copia_2">
				<path fill="#727272" d="M752.961,666.457c0.292-0.732-1.09-2.403-1.35-2.655c-0.182-0.158-0.408-0.173-0.655-0.093
					c-0.447,0.146-0.994,0.604-1.424,1.044c-0.697,0.546-29.603,16.567-46.873,26.128c-7.718,4.274-13.805,7.646-14.771,8.198
					c-1.396,0.793-2.177,1.626-2.328,2.453c-0.118,0.665,0.224,1.077,0.241,1.094c1.084,1.877,1.721,1.649,2.751,1.061
					c0.174-0.095,0.363-0.2,0.581-0.306c1.306-0.623,52.737-27.323,54.93-28.45c0.696-0.424,2.678-1.448,3.568-1.187
					c1.022,0.308,2.863,2.711,3.628,3.926c3.622,5.779,5.616,10.154,5.002,10.893c-0.197,0.235-1.049,0.723-4.726,0.194
					c-2.089-0.303-4.272-0.84-4.806-1.019c-0.098-0.038-10.981-3.42-12.846-2.467c-0.167,0.085-0.286,0.217-0.333,0.377
					c-0.451,1.502,1.627,3.562,4.022,5.941l0.633,0.62c1.967,1.967,4.336,4.013,5.28,4.805c-1.589,0.236-6.143,0.925-6.817,1.079
					c-0.062,0.024-0.168,0.053-0.28,0.082c-0.436,0.138-1.154,0.452-1.493,1.065c-0.217,0.393-0.239,0.839-0.07,1.321
					c0.323,0.908,2.008,1.881,3.792,2.913c0.297,0.178,0.591,0.354,0.88,0.522c-0.063,0.054-0.122,0.124-0.199,0.184
					c-1.621,1.552-3.847,3.681-3.771,5.128c0.021,0.37,0.173,0.672,0.474,0.898c1.376,1.073,5.242-0.813,12.141-5.91
					c5.167-3.823,12.089-10.533,12.158-10.596c1.498-1.45,3.32-4.956,2.496-7.885c-0.797-2.781-9-17.675-9.888-19.283
					C752.912,666.502,752.929,666.478,752.961,666.457z"/>
				<g>
					<path fill="#727272" d="M689.771,701.273c0.061-0.209,0.038-0.427-0.063-0.622c-0.204-0.394-0.69-0.55-1.111-0.331
						c-0.189,0.105-0.33,0.281-0.389,0.486c-0.065,0.21-0.038,0.429,0.061,0.623c0.186,0.345,0.607,0.504,0.971,0.386
						c0.047-0.015,0.103-0.033,0.145-0.057C689.579,701.652,689.719,701.481,689.771,701.273z"/>
					<path fill="#727272" d="M762.332,685.937c-0.733-2.622-8.495-16.753-9.738-18.991c-0.22,0.217-0.507,0.38-0.79,0.438
						c-0.341,0.088-0.657,0.004-0.883-0.2c-0.312-0.296-0.717-0.81-1.004-1.201l-0.02,0.11l-56.522,30.486
						c-2.815,1.562-4.731,2.622-5.233,2.913c-1.558,0.887-1.994,1.631-2.08,2.091c-0.082,0.439,0.115,0.699,0.151,0.745
						c0.921,1.576,1.242,1.396,2.104,0.907c0.187-0.1,0.379-0.21,0.605-0.318c0.303-0.146,3.35-1.71,7.869-4.046
						c0.4-1.872,2.367-2.902,2.45-2.956c1.812-1.021,44.601-25.046,49.529-24.12c1.305,0.242,3.311,3.511,3.529,3.868
						c0.188,0.308,4.851,7.574,5.935,10.515c1.564,4.306-3.142,8.313-5.107,9.477c-1.671,0.986-8.686,1.88-8.962,1.974l-0.004,0.003
						c-0.23,0.071-6.572,0.86-7.354,1.044c-0.535,0.126-1.231,0.311-1.483,0.802c-0.146,0.27-0.165,0.567-0.041,0.916
						c0.26,0.731,2.018,1.75,3.57,2.648c1.039,0.61,2.032,1.186,2.683,1.708c0.848,0.691,1.204,1.204,1.112,1.599
						c-0.058,0.24-0.262,0.36-0.378,0.378l-0.105-0.489c0.002-0.001,0.062-0.272-0.946-1.099c-0.33-0.285-0.779-0.574-1.287-0.889
						c-0.101,0.097-0.195,0.189-0.3,0.29c-1.376,1.321-3.684,3.526-3.62,4.742c0.007,0.229,0.11,0.4,0.285,0.543
						c0.776,0.609,3.417,0.076,11.533-5.934c3.177-2.35,7.036-5.799,9.528-8.104c-4.897,1.863-15.688,3.296-19.479,3.802
						c-0.712,0.094-1.272,0.162-1.354,0.183l-0.074-0.238l-0.117-0.222c0.008-0.01,0.015-0.011,0.042-0.021
						c0.079-0.028,0.305-0.054,1.433-0.203c4.195-0.548,16.94-2.236,20.684-4.367c0.883-0.839,1.433-1.375,1.453-1.39
						C761.166,692.162,763.108,688.784,762.332,685.937z M690.255,701.411c-0.098,0.334-0.325,0.612-0.632,0.774
						c-0.646,0.353-1.447,0.103-1.782-0.528c-0.165-0.31-0.194-0.665-0.104-0.999c0.1-0.34,0.318-0.617,0.631-0.781
						c0.065-0.037,0.152-0.072,0.231-0.099c0.596-0.191,1.253,0.071,1.556,0.624C690.316,700.717,690.357,701.074,690.255,701.411z"
						/>
					<path fill="#727272" d="M697.383,698.537c15.333-7.929,46.021-23.854,46.423-24.065c0.267-0.151,2.69-1.594,3.951-1.217
						c1.315,0.393,3.306,3.175,3.907,4.142c2.323,3.72,6.067,10.152,4.953,11.471c-1.355,1.604-9.439-0.454-10.072-0.682
						c-1.248-0.433-10.98-3.266-12.457-2.493c-0.03,0.013-0.081,0.041-0.09,0.069c-0.363,1.222,1.705,3.287,3.901,5.462l0.631,0.62
						c2.271,2.264,5.078,4.634,5.596,5.062c0.894-0.112,7.228-0.914,8.697-1.793c1.736-1.018,6.363-4.86,4.917-8.812
						c-1.065-2.904-5.823-10.315-5.881-10.405c-0.573-0.945-2.283-3.451-3.19-3.624c-4.767-0.897-48.764,23.826-49.214,24.077
						C699.441,696.354,697.926,697.165,697.383,698.537z"/>
					<path fill="#727272" d="M749.422,665.766l0.1-0.448c-1.5,0.906-7.925,4.502-18.855,10.579L749.422,665.766z"/>
					<path fill="#727272" d="M752.475,666.268c0.127-0.326-0.782-1.689-1.229-2.104c-0.076-0.076-0.577,0.126-1.377,0.923
						l0.101,0.15c0.011,0.024,0.783,1.133,1.265,1.584c0.112,0.1,0.27,0.131,0.437,0.089
						C752.032,666.832,752.379,666.511,752.475,666.268z"/>
					<path fill="#727272" d="M752.939,666.454c0.291-0.729-1.085-2.401-1.346-2.651c-0.18-0.158-0.409-0.173-0.662-0.092
						c-0.445,0.142-0.987,0.604-1.418,1.041c-0.697,0.544-29.605,16.568-46.872,26.124c-7.72,4.278-13.809,7.652-14.774,8.199
						c-1.394,0.795-2.176,1.625-2.324,2.454c-0.119,0.663,0.226,1.08,0.239,1.096c1.086,1.877,1.721,1.644,2.749,1.057
						c0.177-0.091,0.367-0.199,0.58-0.303c1.31-0.624,52.734-27.324,54.927-28.452c0.704-0.425,2.685-1.449,3.575-1.184
						c1.021,0.308,2.862,2.707,3.623,3.922c3.621,5.786,5.623,10.153,5.009,10.899c-0.206,0.237-1.053,0.721-4.73,0.195
						c-2.087-0.305-4.272-0.84-4.803-1.019c-0.099-0.04-10.974-3.422-12.845-2.468c-0.174,0.08-0.289,0.219-0.34,0.375
						c-0.447,1.502,1.634,3.569,4.032,5.947l0.626,0.629c1.976,1.972,4.338,4.02,5.287,4.817c0.3-0.042,0.51-0.041,0.554-0.048
						l0.09,0.534c0,0,0.024,0.106,0.02,0.107l0.006-0.003c0.28-0.089,7.302-0.986,8.962-1.974c1.947-1.15,6.652-5.223,5.081-9.535
						c-1.07-2.944-5.718-10.168-5.917-10.483c-0.221-0.363-2.22-3.626-3.528-3.865c-4.929-0.914-47.714,23.122-49.526,24.14
						c-0.084,0.052-2.048,1.087-2.445,2.956c-4.521,2.341-7.571,3.92-7.87,4.051c-0.222,0.102-0.419,0.223-0.606,0.32
						c-0.868,0.49-1.189,0.674-2.106-0.906c-0.033-0.047-0.23-0.307-0.15-0.739c0.096-0.472,0.528-1.213,2.081-2.098
						c0.499-0.284,2.414-1.342,5.233-2.913l56.521-30.484l0.02-0.111c0.291,0.386,0.688,0.902,1.006,1.198
						c0.229,0.21,0.54,0.282,0.882,0.2c0.28-0.064,0.564-0.222,0.788-0.437c-0.094-0.184-0.162-0.298-0.171-0.305l0.435-0.244
						c0.016,0.025,0.034,0.066,0.075,0.116C752.912,666.502,752.929,666.478,752.939,666.454z M697.367,698.56
						c0.542-1.382,2.058-2.194,2.08-2.206c0.443-0.246,44.443-24.976,49.21-24.081c0.92,0.17,2.621,2.679,3.186,3.629
						c0.059,0.086,4.829,7.503,5.881,10.402c1.44,3.962-3.183,7.792-4.909,8.821c-1.469,0.858-7.801,1.666-8.7,1.784
						c-0.511-0.426-3.315-2.791-5.589-5.062l-0.632-0.619c-2.196-2.184-4.263-4.242-3.907-5.465c0.016-0.024,0.06-0.055,0.098-0.066
						c1.487-0.771,11.218,2.056,12.461,2.49c0.63,0.225,8.71,2.276,10.066,0.683c1.116-1.318-2.627-7.753-4.959-11.471
						c-0.595-0.954-2.59-3.751-3.897-4.141c-1.257-0.381-3.681,1.06-3.953,1.216C743.4,674.686,712.705,690.619,697.367,698.56z
						 M749.525,665.323l-0.103,0.452l-18.764,10.121C741.604,669.817,748.024,666.222,749.525,665.323z M752.481,666.267
						c-0.093,0.241-0.438,0.562-0.811,0.643c-0.174,0.045-0.32,0.014-0.436-0.091c-0.483-0.447-1.253-1.558-1.264-1.584
						l-0.101-0.149c0.794-0.79,1.3-0.998,1.382-0.924C751.688,664.572,752.608,665.941,752.481,666.267z"/>
					<path fill="#727272" d="M739.917,704.253c-0.133-0.092-0.288-0.182-0.438-0.254c-0.069,0.048-0.127,0.123-0.201,0.183
						c-1.622,1.555-3.849,3.683-3.773,5.123c0.021,0.372,0.174,0.677,0.479,0.906c1.378,1.07,5.236-0.811,12.139-5.909
						c5.166-3.825,12.088-10.538,12.156-10.601c1.493-1.447,3.318-4.962,2.497-7.88c-0.794-2.778-9.007-17.681-9.897-19.286
						c-0.073,0.165-0.184,0.307-0.324,0.438c1.234,2.238,8.994,16.38,9.742,18.989c0.796,2.83-1.15,6.219-2.364,7.392
						c-0.014,0.014-0.566,0.553-1.456,1.396c0.009-0.006,0.022-0.019,0.029-0.022l0.246,0.429c-0.379,0.221-0.854,0.424-1.402,0.64
						c-2.501,2.312-6.36,5.76-9.527,8.109c-8.12,6.004-10.758,6.536-11.539,5.924c-0.19-0.145-0.271-0.317-0.281-0.546
						c-0.067-1.226,2.238-3.431,3.618-4.741C739.73,704.435,739.824,704.345,739.917,704.253z"/>
					<path fill="#727272" d="M752.897,666.526c-0.029-0.049-0.05-0.1-0.06-0.119l-0.434,0.244c0.007,0.017,0.074,0.125,0.171,0.307
						C752.708,666.831,752.823,666.686,752.897,666.526z"/>
					<path fill="#727272" d="M743.885,697.357c-0.004,0.002-0.163-0.135-0.419-0.346c-1.593,0.237-6.149,0.916-6.827,1.082
						c-0.058,0.015-0.163,0.041-0.276,0.077c-0.431,0.14-1.15,0.45-1.486,1.063c-0.221,0.39-0.244,0.844-0.073,1.325
						c0.313,0.913,2.006,1.877,3.793,2.915c0.287,0.172,0.589,0.351,0.878,0.521c0.113-0.1,0.218-0.211,0.312-0.298l0.346,0.354
						c-0.064,0.062-0.137,0.144-0.207,0.201c0.507,0.317,0.941,0.608,1.289,0.893c1.006,0.814,0.942,1.094,0.942,1.094l0.107,0.493
						c0.113-0.022,0.32-0.14,0.378-0.38c0.09-0.399-0.265-0.903-1.112-1.599c-0.643-0.526-1.636-1.099-2.685-1.707
						c-1.551-0.899-3.302-1.919-3.567-2.648c-0.122-0.351-0.114-0.65,0.041-0.917c0.252-0.493,0.916-0.775,1.448-0.902
						c0.771-0.183,7.071-1.12,7.32-1.152l-0.109,0.005L743.885,697.357z"/>
					<path fill="#727272" d="M744.006,696.916c-0.039,0.007-0.244,0.028-0.544,0.08c0.268,0.21,0.415,0.34,0.42,0.345l0.085,0.075
						l0.104-0.005c0.002-0.001,0.017-0.004,0.018-0.003L744.006,696.916z"/>
					<path fill="#727272" d="M739.793,703.696c-0.102,0.09-0.206,0.201-0.31,0.292c0.146,0.086,0.3,0.178,0.437,0.261
						c0.069-0.058,0.146-0.131,0.211-0.2L739.793,703.696z"/>
					<path fill="#727272" d="M757.35,695.796c0.416-0.396,0.804-0.753,1.138-1.067c-3.744,2.116-16.488,3.806-20.682,4.365
						c-1.133,0.141-1.354,0.174-1.435,0.198c-0.025,0.006-0.031,0.021-0.039,0.028l0.116,0.215l0.074,0.239
						c0.08-0.02,0.646-0.079,1.352-0.183C741.669,699.082,752.452,697.652,757.35,695.796z"/>
					<path fill="#727272" d="M758.499,694.725c-0.334,0.316-0.722,0.665-1.141,1.065c0.546-0.201,1.026-0.411,1.405-0.64
						l-0.246-0.432C758.506,694.718,758.497,694.726,758.499,694.725z"/>
					<path fill="#727272" d="M690.257,701.412c0.101-0.338,0.067-0.692-0.107-1.012c-0.304-0.548-0.953-0.812-1.554-0.621
						c-0.081,0.023-0.16,0.06-0.233,0.097c-0.309,0.168-0.534,0.446-0.631,0.78c-0.104,0.338-0.069,0.689,0.104,1.001
						c0.342,0.624,1.137,0.879,1.783,0.526C689.93,702.023,690.157,701.745,690.257,701.412z M689.785,701.268
						c-0.061,0.2-0.202,0.381-0.396,0.481c-0.035,0.028-0.098,0.051-0.142,0.058c-0.374,0.121-0.785-0.043-0.974-0.386
						c-0.104-0.189-0.121-0.41-0.06-0.621c0.07-0.208,0.195-0.378,0.398-0.483c0.405-0.222,0.891-0.061,1.103,0.328
						C689.817,700.838,689.841,701.061,689.785,701.268z"/>
				</g>
			</g>
			<g id="Cadena">
				<path fill="none" stroke="#727272" stroke-width="1.5" stroke-miterlimit="10" d="M687.841,701.657
					C562,710.018,570.78,478.478,535.333,474C392.667,455.978,271.55,331.333,271.55,331.333s-5.55-2-8.716,0.833"/>
				
					<path fill="none" stroke="#727272" stroke-width="3" stroke-linecap="round" stroke-miterlimit="10" stroke-dasharray="1.5,4" d="
					M687.841,701.657C562,710.018,570.78,478.478,535.333,474C392.667,455.978,271.55,331.333,271.55,331.333s-5.55-2-8.716,0.833"
					/>
			</g>
			<g id="Barco_Petit_copia_2">
				<g>
					<g id="Capa_22_copia_1_">
						<path fill="#36627A" d="M-252.205,319.284c-1.966,0.41-8.25,14.017-6.26,24.758c1.995,10.74,7.723,35.617,11.017,39.715
							c3.297,4.099,7.429,11.43,7.429,11.43s-14.54,7.81-16.857,12.923c0,0,0.006,2.086,1.781,1.814
							c1.776-0.281,17.281-1.127,18.01,0.607c0.729,1.744,2.145,10.779,2.379,11.953c0.237,1.18-0.416,6.521-0.64,8.438
							c-0.094,0.795-4.85,8.445-3.979,10.178c0.88,1.73,7.317,1.793,10.907,1.705c3.585-0.078,22.707-12.898,25.374-15.248
							c2.669-2.357,3.414-30.856,3.414-30.856s-5.438-37.254-4.103-37.33c1.336-0.076,10.355-3.708,13.251-7.063
							c2.897-3.356,1.822-19.597,0.451-22.19C-191.414,327.521-222.722,313.065-252.205,319.284z"/>
						<path fill="#6C808C" d="M-237.584,422.074c0,0,3.098-0.627,3.276-0.248c0.178,0.387,0.856,1.461,0.71,3.531
							c-0.147,2.066,0.646,4.701-0.985,4.902c-1.632,0.199-2.755,0.199-2.755,0.199s-2.721,6.715-6.915,8.746
							c-4.193,2.035-7.014,1.342-4.436-1.318c2.575-2.652,7.419-5.785,6.957-6.877c-0.459-1.088-8.584,0.025-8.584,0.025
							l0.073-6.566c0,0,6.21-0.6,6.518-0.479c0.309,0.109,2.649-1.619,0.872-2.385c-1.777-0.768-9.429,0.012-8.208-2.699
							c1.221-2.719,0.924-2.688,3.816-3.049c2.894-0.375,6.591,1.061,8.235,3.049C-237.372,420.891-237.584,422.074-237.584,422.074
							z"/>
					</g>
					<path fill="#FF0000" d="M-72.782,400.217l-29.224-24.456l-122.603-6.961c38.267-7.875,110.771-19.391,218.794-26.045
						c77.603-4.773,142.624-5.277,172.697-3.758c54.684,2.776,91.471-0.403,100.815-1.358c-1.592,1.007-3.922,2.579-5.337,3.896
						c-1.073,0.997-2.014,2.346-3.344,4.204c-2.662,3.782-6.732,9.233-15.723,17.715l-0.898,0.813
						c-60.024,29.241-141.389,37.858-199.825,39.524C-19.332,405.561-70.167,400.489-72.782,400.217z"/>
					<path d="M-4.366,302.306c-0.523-1.059-0.94-1.852-1.275-2.444c-0.17-0.297-0.317-0.539-0.448-0.748
						c-0.649-1.036-0.863-1.04-0.994-1.043l-0.371,0.235c-0.175,0.328-0.371,0.686-0.602,1.062
						c-0.151,0.248-0.312,0.504-0.483,0.764c-0.087,0.126-0.175,0.259-0.259,0.391c-2.369,3.433-6.297,7.482-8.658,6.861
						c-1.125-0.305-1.801-1.061-2.072-2.339c-0.036-0.15-0.057-0.312-0.075-0.464c-0.019-0.166-0.036-0.324-0.036-0.51
						c-0.148-4.561,3.915-13.496,9.258-19.189c0.822-0.883,1.675-1.669,2.547-2.366c0.485-0.39,1.035-0.779,1.616-1.112
						c0.932-0.528,1.944-0.91,2.884-0.866c0.353,0.019,0.699,0.098,1.028,0.247c0.524,0.247,0.872,0.656,1.063,1.239
						c0.126,0.388,0.176,0.845,0.175,1.332c-0.038,3.402-2.933,8.585-2.97,8.644l-0.217,0.389l4.732,1.361L-4.366,302.306z
						 M-3.783,285.468c-0.012-0.528-0.143-0.954-0.432-1.239c-0.058-0.06-0.122-0.104-0.191-0.165
						c-0.177-0.111-0.387-0.178-0.605-0.178c-0.158,0-0.322,0.036-0.51,0.106c-1.271,0.458-3.097,2.427-4.936,4.952l-0.081-0.104
						l-0.083-0.103l-1.608,2.791c-0.798,1.244-1.562,2.538-2.242,3.792c-1.136,2.087-2.039,4.08-2.497,5.581
						c-0.257,0.852-0.373,1.533-0.346,2.062c0.007,0.131,0.027,0.248,0.05,0.364c0.075,0.331,0.23,0.583,0.461,0.742
						c0.105,0.065,0.222,0.104,0.348,0.104c1.449,0,6.138-5.685,8.083-8.449c0.071-0.106,0.14-0.202,0.205-0.303
						c0.123-0.185,0.239-0.361,0.327-0.511c0.099-0.149,0.173-0.28,0.221-0.388c0.057-0.1,0.128-0.205,0.213-0.34
						c0.088-0.132,0.178-0.293,0.283-0.463C-5.976,291.811-3.728,287.76-3.783,285.468z"/>
					<path fill="#3FA9F5" d="M40.089,287.058c-1.873,0.254-8.45,1.322-14.154,2.405c-0.364,0.068-0.722,0.138-1.08,0.209
						c-0.185,0.036-0.37,0.073-0.553,0.106c-0.782,0.155-1.536,0.317-2.256,0.47c-0.226,0.05-0.446,0.106-0.663,0.159
						c-0.54,0.119-1.06,0.247-1.541,0.38c-0.195,0.051-0.385,0.104-0.565,0.16c-0.039,0.007-0.09,0.019-0.147,0.036
						c-1.757,0.388-11.773,2.721-13.27,5.321c-0.047,0.091-0.089,0.16-0.113,0.246c-0.88,2.51-3.018,16.575-3.367,19.704h-5.99
						l-2.099-5.294l0.812-7.523l0.315-0.149l0,0l0,0c-0.019-0.036-0.036-0.069-0.048-0.106c-0.021-0.034-0.036-0.07-0.052-0.104
						l5.189-9.129l0.082,0.02l0,0l0,0l0.1-0.328l0.075-0.133l0.132-0.238l7.756-16.321l1.189-0.412l1.192-0.418l3.487-19.031
						c0.169,0,0.406-0.001,0.704-0.001c2.031,0,8.819,0.056,10.768,0.802C27.631,258.505,35.487,275.821,40.089,287.058z"/>
					<path d="M-7.572,292.582c0.036,0,0.06-0.007,0.083-0.012c0.068-0.019,0.126-0.052,0.177-0.1
						c-0.343,0.6-0.688,1.169-1.025,1.708c-0.189,0.384-0.557,0.949-1.028,1.608c-0.078-0.178-0.105-0.385-0.106-0.554
						c-0.003-0.295,0.058-0.53,0.058-0.533l0.105-0.361l-3.32-0.702l1.389-2.429c0.268-0.394,0.537-0.788,0.811-1.167
						C-8.414,292.368-7.809,292.587-7.572,292.582z"/>
					<path d="M-7.404,294.184c-0.085,0.138-0.154,0.247-0.214,0.344c-0.047,0.104-0.123,0.236-0.22,0.388
						c-0.094,0.15-0.205,0.319-0.328,0.508c-0.063,0.103-0.131,0.194-0.204,0.305c-1.944,2.776-6.633,8.45-8.083,8.45
						c-0.126,0-0.248-0.035-0.348-0.104c-0.236-0.159-0.389-0.397-0.461-0.742c-0.026-0.104-0.041-0.235-0.049-0.364
						c-0.029-0.528,0.086-1.208,0.345-2.062c0.458-1.499,1.361-3.492,2.497-5.58c0.68-1.254,1.449-2.548,2.242-3.79l1.608-2.792
						l0.083,0.104l0.082,0.103c1.837-2.523,3.665-4.494,4.936-4.953c0.182-0.064,0.351-0.106,0.509-0.106
						c0.229,0,0.429,0.062,0.605,0.178c0.071,0.041,0.136,0.104,0.191,0.164c0.291,0.293,0.421,0.724,0.433,1.239
						c0.049,2.296-2.194,6.337-3.345,8.245C-7.224,293.895-7.321,294.052-7.404,294.184z M-16.354,301.116
						c-0.55,1.809-0.315,2.252-0.221,2.345c1.166-0.217,4.665-4.229,6.757-7.053c-0.382-0.502-0.389-1.137-0.343-1.524l-2.977-0.629
						C-14.562,296.686-15.767,299.166-16.354,301.116z M-11.239,291.213l-1.394,2.428l3.32,0.702l-0.104,0.359
						c-0.001,0.005-0.062,0.249-0.06,0.532c0.002,0.176,0.034,0.381,0.107,0.557c0.471-0.673,0.84-1.237,1.028-1.61
						c0.336-0.53,0.683-1.106,1.024-1.706c-0.05,0.035-0.108,0.076-0.176,0.098c-0.021,0.004-0.042,0.01-0.083,0.012
						c-0.239,0.007-0.841-0.216-2.863-2.539C-10.701,290.424-10.971,290.814-11.239,291.213z M-4.798,284.647
						c-0.061-0.04-0.132-0.06-0.218-0.06c-0.981,0-2.946,2.062-4.993,4.873c0.877,1.009,1.864,2.03,2.298,2.341
						c0.244-0.363,0.699-0.507,1.079-0.552C-5.062,288.309-3.867,285.268-4.798,284.647z"/>
					<path fill="#FFFFFF" stroke="#FFFFFF" stroke-miterlimit="10" d="M-226.54,363.735l0.164-0.104l-0.117-9.67l6.037-3.688
						l26.422,0.459l0.062-0.03l10.946-4.052l0.466-22.572l19.744-4.825l42.241-0.113l2.226-4.09l35.779-1.987l0.234-3.63
						l7.439-0.752l-0.672-0.528c-0.01-0.013-1.05-0.842-1.024-1.858c0.021-0.588,0.393-1.149,1.126-1.66
						c0.542-0.389,2.135-0.836,6.629-0.836c4.122,0,9.161,0.371,12.84,0.643c1.814,0.134,3.253,0.248,4.093,0.264
						c2.51,0.079,5.295,1.971,6.811,3.695c0.934,1.057,1.429,2.089,1.359,2.822c-0.222,2.336-0.602,2.899-2.282,3.216l0.099,0.743
						l24.708-2.346l15.25-1.439l2.085,5.357h6.599l0.039-0.794c0.031-0.169,2.468-17.031,3.377-19.648
						c0.712-2.048,9.659-4.439,13.042-5.185c5.976-1.672,18.442-3.43,20.733-3.737l0.036,0.086l0.254-0.028
						c0.003,0,0.49-0.039,1.167-0.039c1.913,0,3.306,0.317,3.928,0.884c0.679,0.623,0.684,1.872,0.691,3.083
						c0.005,1.045,0.008,2.031,0.396,2.763c0.812,1.506,7.752,13.233,8.049,13.734l0.099,0.162l0.178,0.014
						c1.021,0.058,101.648,6.008,124.104,8.771c1.741,0.214,3.722,0.416,5.894,0.719c33.974,4.786,81.562,13.965,81.562,13.965
						c3.684,0.062,5.142,1.222,5.264,2.194c0.123,0.895-0.812,1.801-2.339,2.243c-0.04,0.028-1.067,0.543-2.465,1.376
						c-6.172,0.673-43.419,4.361-101.611,1.411c-30.092-1.519-95.212-0.924-172.838,3.854
						c-110.594,6.819-178.851,17.704-216.634,25.626l-1.652,0.348c-3.135-0.04-4.249-0.358-4.393-0.528
						c-0.053-0.104-0.121-0.185-0.189-0.282c-0.161-0.222-0.242-0.339-0.209-0.52C-230.668,366.611-229.281,365.462-226.54,363.735z
						"/>
					<path fill="#FFFFFF" stroke="#FFFFFF" stroke-miterlimit="10" d="M-73.725,400.479l0.105,0.015
						c0.424,0.038,36.681,3.827,86.621,3.827c8.647,0,17.699-0.105,27.041-0.383c58.184-1.66,139.957-9.718,200.001-38.625
						c-0.169,0.149-0.316,0.288-0.464,0.434c-2.069,1.913-4.128,3.942-6.311,6.093c-13.795,13.58-30.963,30.482-75.25,43.359
						c-10.189,2.957-21.098,4.346-34.342,4.346c-11.345,0-22.982-0.311-35.302-1.377c-13.526-1.168-27.502-2.373-42.453-2.373
						c-2.296,0-4.588,0.033-6.814,0.09c-2.246,0.059-4.876,0.092-7.819,0.092c-58.23,0-235.613-12.184-242.975-12.658
						l-13.155-33.681l121.982,6.397L-73.725,400.479z"/>
				</g>
				<g id="_x33__1_">
					<path fill="#996234" d="M-39.307,314.203c0,0-2.354-2.729-1.839-5.966c0.516-3.221,1.24-4.87,3.22-5.437
						c1.979-0.567,4.661-0.823,5.208-0.544c0.551,0.28,7.226,2.933,8.747,3.454c1.525,0.53,5.689,3.288,5.774,4.55
						c0.084,1.27,0.329,1.677,0.844,2.923c0.514,1.235,1.298,6.827,1.298,6.827l-10.064,1.11c0,0,0.107-3.923-0.633-4.202
						c-0.745-0.264-10.576-1.27-11.239-1.65C-38.655,314.901-39.307,314.203-39.307,314.203z"/>
					<path fill="#EF45B7" d="M-76.578,298.504c0,0-0.529-4.982-0.743-4.982c-0.213,0,6.984-0.424,8.693-1.696
						c2.12-1.587,13.782-1.484,13.782-1.484l7.738,7.104l8.929,6.717c0,0-2.568,8.446-3.84,8.446c-0.601,0-6.97-5.77-12.722-5.937
						c-6.418-0.185-6.89,3.496-5.408,11.449c0.282,1.504-13.251-7.528-13.251-7.528s-2.554-1.908-3.186-5.301
						C-77.216,301.899-76.578,298.504-76.578,298.504z"/>
					<path fill="#996234" d="M-61.208,247.406c0.319,0.106,2.649-2.757,2.544-3.711c-0.105-0.955-1.057-1.592-1.271-1.592
						c-0.214,0-2.439-2.648-1.274-3.816c1.167-1.166-2.544-5.937-1.167-8.269c1.377-2.333,3.074-5.938,6.255-7.209
						c3.182-1.272,5.194-2.333,6.785-1.061c1.591,1.272,5.408,4.877,5.513,6.257c0.105,1.376,0.743,4.028,0,6.889
						c-0.743,2.864-0.743,3.288-0.848,6.361c-0.105,3.074-1.484,4.984-2.439,6.152c-0.955,1.169-0.529,2.753-2.333,3.177
						s0.424,3.288-0.424,4.347c-0.848,1.06-10.813-1.592-10.602-5.725C-60.365,247.261-61.208,247.406-61.208,247.406z"/>
					<path fill="#301705" d="M-60.888,243.271c0,0-1.801,0-1.591-1.484c0.21-1.483,0.601-4.028-0.017-4.664
						c-0.618-0.637-2.528-1.803-1.892-3.604c0.636-1.804,1.377-2.864,0.953-4.561s0-3.072,1.377-3.921
						c1.377-0.848,2.452-0.636,4.036-1.378c1.589-0.742,2.861-2.545,4.657-2.862c1.802-0.32,3.922-1.592,5.408,0
						c1.486,1.59,2.544,1.59,2.968,2.648c0.424,1.059-0.105-0.104,0.529,2.44c0.635,2.544,1.908,3.072,1.06,4.452
						c-0.848,1.377-1.591-1.168-2.332-1.272c-0.741-0.105-0.319-1.271-2.333,0c-2.013,1.272-1.272,0.849-4.24,0.212
						c-2.969-0.636-4.56-2.332-5.461,0.742c-0.899,3.075-0.374,2.545,0,4.984c0.373,2.438,0,3.497,0,3.497s-0.157-1.166-1.324-0.952
						c-1.167,0.212-1.377,0.424-1.272,1.696c0.105,1.271,0.743,2.756,0.529,3.18C-60.045,242.849-60.888,243.271-60.888,243.271z"/>
					<path fill="#996234" d="M-46.258,267.443c0,0,6.997,11.449,8.8,12.509c1.804,1.061,5.513,3.181,6.89,3.497
						c1.377,0.32,10.072,1.696,13.782,1.484c3.71-0.212,4.346-1.333,5.725,0.023c1.377,1.361,2.015,2.309,2.544,1.249
						c0.529-1.061,0.212-1.272,0-2.862c-0.212-1.592,0-2.44,1.484-2.65c1.484-0.211,3.754,1.484,3.145-0.425
						c-0.601-1.908-0.389-2.756-2.831-2.544c-2.439,0.212-2.863,2.016-4.56,2.227c-1.696,0.208-2.439,0.212-5.408-0.212
						c-2.968-0.425-11.344-5.408-13.146-5.513c-1.802-0.106-1.908-1.484-3.074-2.65c-1.167-1.167-5.832-6.89-5.832-6.89"/>
					<path fill="#8BC7E8" d="M-77.323,273.273c0.424-5.937,2.544-15.37,6.149-19.507c3.604-4.134,4.665-4.028,7.314-5.192
						c2.649-1.168,4.029-0.849,4.029-0.849s0.139,4.241,2.296,4.983c2.158,0.743,7.245,2.12,7.563,1.271
						c0.319-0.848-0.422-1.38,0.212-2.125c0.635-0.742,1.696-2.751,2.439-2.327c0.741,0.424,4.453,1.906,4.876,3.816
						c0.424,1.91,0.848,4.452,1.908,5.937c1.061,1.484,1.696,3.816,1.696,3.816s0.319,0.849,0.636,1.803
						c0.317,0.952-2.756,0.848-4.77,4.769c-2.013,3.923-4.24-2.225-4.24-2.225s2.439-1.592,0.212,1.801c0,0-3.393,5.194-3.604,5.937
						c-0.212,0.744-1.06,2.65-0.953,4.561c0.105,1.911,1.167,3.921,0.953,5.937c-0.214,2.015,0.043,3.816-2.469,4.77
						c-2.508,0.954-5.265,0.743-8.344,1.06c-3.074,0.32-6.864,0.151-8.269,1.379c-1.404,1.226-2.756,0.212-4.453,0.636
						s-1.801,1.484-3.181,0c-1.377-1.484,0.812-6.148,0.46-7.209c-0.353-1.061-1.272-3.393-0.919-6.891
						C-77.43,275.923-77.323,273.273-77.323,273.273z"/>
					<path fill="#996234" d="M-65.066,280.427c0,0,2.248,7.387,3.508,8.801c1.262,1.405,3.279,4.665,4.346,5.927
						c1.071,1.266,10.561,10.989,11.699,11.838c1.149,0.847,6.648,5.688,6.648,5.688l7.802-0.895c0,0-5.167-5.533-7.706-8.233
						c-2.541-2.705-10.945-13.11-11.426-14.048c-0.48-0.949-3.211-3.79-3.951-5.11c-0.739-1.309-0.861-4.025-1.475-6.5
						c-0.609-2.475-1.665-5.674-1.665-5.674s-9.802-1.173-10.101,1.139C-67.685,275.666-65.066,280.427-65.066,280.427z"/>
					<path fill="#996234" d="M-59.937,318.011c0,0-2.156-2.897-1.413-6.077c0.743-3.181,1.586-4.77,3.596-5.193
						c2.015-0.424,4.709-0.494,5.238-0.178c0.529,0.32,6.997,3.43,8.481,4.065c1.484,0.636,5.437,3.674,5.437,4.946
						s0.212,1.696,0.636,2.969c0.424,1.271,0.953,4.876,0.953,4.876l-10.181,1.08c0,0,0.309-2.564-0.416-2.877
						c-0.729-0.318-10.46-2.015-11.097-2.438C-59.337,318.76-59.937,318.011-59.937,318.011z"/>
					<path fill="#996234" d="M-48.882,328.268"/>
				</g>
			</g>
		</g>
	</g>
	<g id="Capa_4">
		<g>
			<path fill="#E2C8B3" d="M538.266,474.043c-1.445-1.445-7.943-5.958-9.568-6.139s-10.832-2.708-12.276-4.693
				c-1.444-1.986-6.499-5.597-8.305-6.139c-1.806-0.541-9.929-14.441-11.192-16.248c-1.264-1.805-0.723-12.096,0.36-11.734
				c0,0-0.722-3.971-4.333-5.777c-3.61-1.805-6.5-6.499-8.305-7.04c-1.805-0.542-11.914-2.528-17.15-0.723
				c-5.234,1.806-21.844,12.276-26.898,12.638c-5.056,0.361-9.568,1.986-13.18,1.264c-3.61-0.723-13.359-1.264-18.233,0.361
				s-23.65,12.817-28.885,14.081c-5.236,1.265-6.68,1.265-6.68,1.265s-8.846-4.875-14.803-4.695
				c-5.957,0.182-19.499,0.723-21.845,0.182c-2.347-0.542-4.874-3.611-6.86-3.069s-6.318,4.513-10.109,6.499
				c-3.792,1.986-8.484,3.951-8.305,5.586c0.181,1.635-1.264,2.357,3.25,1.816c4.513-0.542,12.998-3.973,15.345-4.152
				c2.347-0.181,13.721-0.181,16.609,0.902s15.705,4.332,18.594,5.957c2.89,1.625,5.235,1.986,6.5,2.527
				c1.264,0.542,15.28-1.461,15.28-1.461l-3.546,3.628c0,0-10.832-0.181-15.887,0.36c-5.056,0.543-18.775,5.236-18.775,5.236
				l-7.112-2.188c0,0-2.638,2.368-4.983,3.271c-2.347,0.902-9.568,1.806-9.749,2.527c-0.18,0.722-2.708,2.527-0.18,2.708
				c2.527,0.181,5.235,0,10.29,0.723c5.054,0.722,9.568-1.625,11.734-1.625s31.232-1.083,33.038-0.361
				c1.805,0.723,10.11-2.527,12.457-2.708s18.775-7.401,27.802-13.179c3.046-1.834,6.68-1.986,8.846-2.166
				c2.167-0.182,23.289,0.541,27.261-0.542s22.024-9.388,23.47-9.568c1.443-0.181,7.762,7.763,8.665,9.749
				c0.903,1.985,3.056,7.314,4.499,8.218c1.445,0.902,10.147,6.944,11.411,7.667s12.794,4.695,14.6,5.237s3.791,2.167,6.319,3.61
				c2.527,1.444,6.318,3.25,8.304,3.61c1.986,0.362,5.417,0.542,5.417,0.542S539.709,475.486,538.266,474.043z"/>
			<path fill="#E2C8B3" d="M513.425,483.297c-1.015-1.774-6.099-7.836-7.618-8.438c-1.521-0.602-9.74-5.46-10.611-7.755
				c-0.872-2.296-4.8-7.108-6.399-8.105c-1.601-0.996-5.784-16.543-6.529-18.618c-0.745-2.073,2.481-11.86,3.432-11.228
				c0,0,0.348-4.021-2.662-6.713c-3.009-2.69-16.812,14.319-15.37,14.524c1.439,0.205,5.448,9.53,5.798,11.684
				s-0.392,8.312,0.764,9.563c1.157,1.251,7.287,9.656,8.316,10.686s13.207,7.152,14.807,8.149c1.601,0.998,3.089,3.087,5.148,5.145
				s5.242,4.796,7.063,5.666c1.821,0.871,5.084,1.946,5.084,1.946S514.438,485.068,513.425,483.297z"/>
			<path fill="#E2C8B3" d="M492.615,429.453c0,0,0.969-0.62,2.76,0.422c2.044,1.188,4.472,0.996,4.885,0.619
				c0.412-0.375,2.081-0.743,2.871-0.706c0.788,0.037,1.352,0.901,1.352,0.901s1.013,1.165,1.765,1.014
				c0.75-0.149,2.553-1.878,2.553-1.878s-0.938,0.676,1.352-2.028c2.29-2.705,5.82-5.071,5.82-5.071s2.178-3.268,1.727-5.521
				c-0.45-2.253-0.94-6.646-3.756-8.522c-2.818-1.878-4.839-3.72-8.97-2.893s-6.639,0.696-8.103,3.626
				c-1.466,2.93-7.328,9.876-9.828,10.084C484.754,419.69,492.615,429.453,492.615,429.453z"/>
			<path fill="#EDAD1D" d="M425.885,452.559c0,0-3.205-15.164,0.045-21.121c3.768-3.973-0.237-2.258-0.237-2.258l-2.224-0.227
				c0,0-5.443-1.054-8.152-0.729c-2.707,0.324-10.106,3.754-13.537,4.656c-3.43,0.902-9.747,2.166-9.747,2.166l-2.708,4.846
				c0,0,2.733-1.422,2.889-0.873c0.362,1.264,8.632,9.676,8.124,13.539c-0.338,2.566-5.088,2.691-5.088,2.691l5.088,2.363
				l2.889-1.082c0,0,0.361,2.692,0.542,3.414c0.181,0.723,3.25,3.055,3.25,3.055h2.708l10.874-7.926l2.485-1.71L425.885,452.559z"/>
		</g>
		<g id="Capa_5">
			<path fill="#514035" d="M497.83,407.912c0,0,2.545-2.744,3.545-3.203s2.417-1.583,2.667-1.125s-0.583,0.499,0,0.916
				s1.126,0.792,2.042,0.292s1.791-1.458,2.708-1.083s-0.626,0.582,1.083,0.916s0.916-0.959,3.625,0.125s2.334,0.167,3.167,2.792
				s0.167,4.083,1.625,5s2.042-0.355,3,1.51s2.291,3.907,1.208,4.282s-1.583,0.499-1.333,0.916s0.999,1.201,1.333,1.33
				s0.642,0.878,0.404,1.17s-0.654,0.5-1.404,0.375s-1.334-0.25-1.75-0.5s-1.292-1.215-1.75-1.045s-0.779,0.555-1.166,0.599
				s0.095-0.202-0.917-0.22s-1.208-0.709-2.208-0.084s-1.791,1.291-2.125,0.75s-0.208-0.924,0-1.045s1.124,0.023,1.416-0.674
				s0.121-1.114-0.21-1.489s-1.306-0.917-2.381-0.875s-12.489-1.159-12.825-1.792c-1.195-2.25-2.375,1.959-3.25,1.667
				s-1.519,0.125-2.584,0.875s-1.417,0.596-1.5,0.359s-0.166-0.776-0.208-0.901s1.057-1.66,0.958-2.541s2.543-2.111,1.459-2.39
				s3.844-1.799,3.594-2.049S497.83,407.912,497.83,407.912"/>
			<path fill="#474747" d="M498.919,426.849c0,0-0.385-1.617-1.398-3.826c-1.015-2.21-0.653-4.79,0.48-5.455
				c1.134-0.667,0.907-1.446,0.907-1.446s2.174-1.095,2.476-1.179c0.301-0.083,1.306-0.765,2.386-0.608
				c1.08,0.154,3.991,0.492,4.758,1.392c0.766,0.898,2.438,0.516,2.952,0.834c0.516,0.318,1.342,0.712,1.31,0.967
				c-0.033,0.257-0.199,0.337-0.626,0.399c-0.428,0.062-6.698-0.379-6.698-0.379s-1.315,1.302-1.521,1.655
				C503.739,419.557,498.919,426.849,498.919,426.849z"/>
			<path fill="#474747" d="M514.529,419.906c0,0,0.232,2.625-0.834,3.654c-1.066,1.031-0.645,1.183-2.386,2.354
				c-1.605,1.08-3.191,0.441-3.644,0.899c-0.452,0.457-1.199,0.573-1.457,0.565c-0.258-0.007-1.358,1.028-2.291,0.768
				c-0.934-0.261-2.356-2.249-2.842-1.904s-2.039-1.152-2.039-1.152l1.438,3.78l3.265,2.536l4.396-0.239l1.966-0.299l2.652-1.361
				l1.964-2.15c0,0,0.835-1.13,0.995-1.474c0.161-0.345,0.563-2.015,0.563-2.015s0.489-1.521-0.054-2.126
				C515.678,421.137,514.529,419.906,514.529,419.906z"/>
			<path fill="#474747" d="M503.137,418.128c-3.483-2.818-5.307-10.216-5.307-10.216l-1.441,1.927c0,0,2.152,8.148,5.239,9.859
				C504.714,421.409,503.137,418.128,503.137,418.128z"/>
			<path fill="#FFFF00" d="M516.817,422.015c-0.175-0.493-0.43-0.939-0.743-1.347c-1.277-3.344-6.047-4.719-10.743-3.063
				c-4.751,1.677-7.622,5.814-6.412,9.244c0.175,0.494,0.432,0.941,0.744,1.35c1.278,3.343,6.048,4.717,10.742,3.062
				C515.155,429.584,518.026,425.444,516.817,422.015z M509.95,430.503c-4.232,1.492-8.536,0.226-9.614-2.832
				c-1.077-3.055,1.48-6.739,5.711-8.233c4.232-1.491,8.537-0.225,9.614,2.831C516.737,425.324,514.181,429.01,509.95,430.503z"/>
			<path fill="#FFFF00" d="M499.891,412.408c0.227,0.388,0.095,0.885-0.294,1.11l-1.188,0.691c-0.388,0.226-0.885,0.095-1.11-0.294
				l-0.188-0.324c-0.227-0.388-0.095-0.885,0.294-1.11l1.188-0.691c0.388-0.226,0.885-0.095,1.11,0.294L499.891,412.408z"/>
			<path fill="#514035" d="M497.83,407.912c0,0,2.545-2.744,3.545-3.203s2.417-1.583,2.667-1.125s-0.583,0.499,0,0.916
				s1.126,0.792,2.042,0.292s1.791-1.458,2.708-1.083s-0.626,0.582,1.083,0.916s0.916-0.959,3.625,0.125s2.334,0.167,3.167,2.792
				s0.167,4.083,1.625,5s2.042-0.355,3,1.51s2.291,3.907,1.208,4.282s-1.583,0.499-1.333,0.916s0.999,1.201,1.333,1.33
				s0.642,0.878,0.404,1.17s-0.654,0.5-1.404,0.375s-1.334-0.25-1.75-0.5s-1.292-1.215-1.75-1.045s-0.779,0.555-1.166,0.599
				s0.095-0.202-0.917-0.22s-1.208-0.709-2.208-0.084s-1.791,1.291-2.125,0.75s-0.208-0.924,0-1.045s1.124,0.023,1.416-0.674
				s0.121-1.114-0.21-1.489s-1.306-0.917-2.381-0.875s-2.328,0.8-2.651,0.16s-0.008-1.243-0.883-1.535s-0.952-0.875-2.018-0.125
				s-2.107,1.098-2.19,0.861s-0.166-0.278-0.208-0.403s0.182-0.244,0.083-1.125s0.251-0.776-0.833-1.055s-1.167-1.778-1.417-2.028
				S497.83,407.912,497.83,407.912"/>
		</g>
	</g>
	<polygon id="La_mar_3_m" opacity="0.6" fill="#39BCC4" enable-background="new    " points="-290.274,382.107 1066.71,382.107 
		1068.375,807.287 -288.608,807.287 	"/>
	<g id="La_Mar">
		<g>
			<path fill="#D8BD80" d="M1068.423,706.85c-64.255,11.617-103.798,8.727-149.628,8.566c-40.796-0.057-56.452-6.639-128.085-12.076
				c-44.251-1.334-79.008-1.572-125.876,0.816c-34.116,1.73-112.57,5.807-147.823,0.318
				c-89.294-17.123-236.838-14.479-313.483-2.631c-76.647,11.852-43.548-7.295-92.326-5.469
				c-48.775,1.807-40.937,9.117-65.325,2.721c-24.387-6.381-35.062-25.75-55.841-22.072c-2.354,1.406,0.448,12.725-51.734-14.629
				c-18.291-9.588-39.354-9.328-52.371-9.541c-12.934-0.213-41.76,6.621-58.308-6.15c-19.083-11.201-74.343,27.842-93.505,38.768
				c-19.163,10.965-28.712,4.543-28.712,4.543l2.968,122.512l1360.771,1.695L1068.423,706.85z"/>
		</g>
	</g>
</g>
<g id="Capa_2" display="none">
	
		<image display="inline" overflow="visible" width="1280" height="720" xlink:href="../../../Referències fotogràgiques/swimmer.jpg"  transform="matrix(1 0 0 1 -191 -164)">
	</image>
</g>
</svg>
