<?xml version="1.0" encoding="utf-8"?>
<!-- Generator: Adobe Illustrator 16.0.0, SVG Export Plug-In . SVG Version: 6.00 Build 0)  -->
<!DOCTYPE svg PUBLIC "-//W3C//DTD SVG 1.1//EN" "http://www.w3.org/Graphics/SVG/1.1/DTD/svg11.dtd">
<svg version="1.1" id="Capa_1" xmlns="http://www.w3.org/2000/svg" xmlns:xlink="http://www.w3.org/1999/xlink" x="0px" y="0px"
	 width="800px" height="800px" viewBox="0 0 800 800" enable-background="new 0 0 800 800" xml:space="preserve">
<g id="_x34_.Desconectar_Kill_cord">
	<g id="Capa_13_2_">
		<g id="Capa_13_3_" opacity="0.2">
			<path fill="#5E5E5E" d="M807.36-185.386L463.624,662.588v354.486c0,22.466,82.787,39.123,105.351,39.123h752.59
				c22.563,0,40.861-18.211,40.861-40.684l202.163-1251.718c0-22.466-54.727,50.814-77.292,50.814L807.36-185.386z"/>
		</g>
	</g>
	<g>
		
			<rect x="528.304" y="397.792" transform="matrix(-0.3799 0.925 -0.925 -0.3799 1115.5085 76.1291)" fill="#3D3D3D" width="7.868" height="28.325"/>
		
			<rect x="514.149" y="408.649" transform="matrix(0.3798 -0.9251 0.9251 0.3798 -46.4043 770.1185)" fill="#1C1C1C" width="73.973" height="22.036"/>
		<path fill="#E52E2E" d="M533.202,399.593c1.944,0.796,2.872,3.018,2.074,4.959l-6.076,14.8c-0.798,1.944-3.02,2.872-4.965,2.074
			l-14.796-6.076c-1.944-0.799-2.872-3.02-2.075-4.965l6.078-14.796c0.797-1.944,3.02-2.873,4.961-2.074L533.202,399.593z"/>
	</g>
	<g id="Palanca_2_">
		<g id="Palanca_3_">
			<g>
				<circle fill="#A5A5A5" cx="810.322" cy="355.755" r="108.186"/>
				<path fill="#A5A5A5" d="M680.022,252.938c0,0,32.478,27.721,22.721,90.975c-9.757,63.25,57.061-41.769,57.061-41.769
					l-64.08-72.611l-17.601,16.564L680.022,252.938z"/>
				<path fill="#A5A5A5" d="M715.47,219.567c0,0,25.716,34.087,89.438,28.161c63.725-5.932-45.134,54.438-45.134,54.438
					l-68.617-68.342l17.594-16.564L715.47,219.567z"/>
			</g>
			<path fill="#5E5E5E" d="M527.417,108.086c-12.052-12.802-13.644-40.881-1.559-52.256l1.389-1.31
				c19.111-16.213,41.656-11.698,54.733,2.196l132.468,140.708c7.015,7.45,5.873,19.588-1.492,26.525l-27.778,26.154
				c-7.368,6.935-18.274,6.139-25.29-1.314L527.417,108.086L527.417,108.086z"/>
			<circle fill="#727272" cx="810.28" cy="355.898" r="82.42"/>
		</g>
		<g id="Capa_2_copia_1_">
			<circle fill="#2D2D2D" cx="552.978" cy="80.712" r="37.156"/>
			<circle fill="#3F3F3F" cx="552.978" cy="80.713" r="28.862"/>
		</g>
	</g>
	<g>
		
			<line fill="none" stroke="#F28D41" stroke-width="6" stroke-miterlimit="10" x1="412.583" y1="361.16" x2="474.688" y2="387.794"/>
		
			<line fill="none" stroke="#F28D41" stroke-width="6" stroke-miterlimit="10" x1="455.294" y1="302.411" x2="497.987" y2="359.503"/>
		
			<line fill="none" stroke="#F28D41" stroke-width="6" stroke-miterlimit="10" x1="522.193" y1="276.845" x2="530.624" y2="347.625"/>
		
			<line fill="none" stroke="#F28D41" stroke-width="6" stroke-miterlimit="10" x1="426.021" y1="501.424" x2="482.261" y2="457.625"/>
		
			<line fill="none" stroke="#F28D41" stroke-width="6" stroke-miterlimit="10" x1="402.581" y1="433.277" x2="468.277" y2="426.246"/>
	</g>
	<g id="Capa_4_copia_2_">
		<g id="Capa_4_copia_2_2_">
			<g id="Capa_2_copia_3_1_">
				<g>
					<path fill="none" stroke="#FF0000" stroke-width="7" stroke-linecap="round" stroke-miterlimit="10" d="M71.422,358.138
						c30.815,3.89,28.313,43.56,13.859,44.565c-14.458,1.016-4.812-43.006,18.583-46.312c23.397-3.306,33.397,36.27,19.17,39.035
						c-14.266,2.777-6.226-35.711,9.606-38.749c0,0,11.27-5.399,25.709,9.208c9.843,9.947,29.83,5.425,32.558,3.976
						c2.736-1.451,107.967-36.703,112.092-19.605c5.602,23.206-56.521,8.504-79.757,16.656
						c-3.225,1.116-35.258,11.273-35.258,11.273"/>
					<path fill="#CECECE" d="M214.565,376.509c-1.219,0.389-2.443-0.02-2.722-0.913l-4.689-14.701
						c-0.284-0.893,0.475-1.932,1.695-2.325l17.975-5.725c1.222-0.389,2.442,0.019,2.726,0.913l4.685,14.699
						c0.286,0.894-0.476,1.933-1.696,2.324L214.565,376.509z"/>
				</g>
			</g>
			<g id="Cordó_5_">
				<path fill="none" stroke="#FF0000" stroke-width="7" stroke-linecap="round" stroke-miterlimit="10" d="M-139.734,204.082
					c9.021,9.417-14.243,45.341-22.355,36.825c-8.09-8.489,26.585-34.183,40.468-21.041c19.748,18.691-9.491,49.953-24.843,37.344
					c-9.064-7.441,24.558-35.996,43.259-17.15"/>
				<path fill="none" stroke="#FF0000" stroke-width="7" stroke-linecap="round" stroke-miterlimit="10" d="M-172.356,165.188
					c12.421,12.964-12.944,50.579-24.466,38.485c-9.888-10.374,22.164-38.617,37.921-23.697
					c18.053,17.086-9.477,53.203-23.104,42.009c-9.063-7.439,22.305-38.125,41.009-19.279"/>
				<path fill="none" stroke="#FF0000" stroke-width="7" stroke-linecap="round" stroke-miterlimit="10" d="M-233.893,138.055"/>
				<path fill="none" stroke="#FF0000" stroke-width="7" stroke-linecap="round" stroke-miterlimit="10" d="M-171.386,166.199
					c-18.703-18.845-52.188,9.495-43.124,16.933c10.045,8.248,36.282-29.516,21.479-43.528
					c-13.884-13.143-47.032,14.145-38.943,22.632c13.137,13.788,40.419-20.338,26.384-34.984"/>
				<path fill="none" stroke="#FF0000" stroke-width="7" stroke-linecap="round" stroke-miterlimit="10" d="M20.771,333.933
					c18.346,12.737,10.174,59.117-7.11,47.052C1.228,370.67,34.571,341.162,50.79,351.284c16.218,10.121,10.458,48.35,0.098,42.858
					c-10.362-5.49-3.996-38.71,20.535-36"/>
				<path fill="none" stroke="#FF0000" stroke-width="7" stroke-linecap="round" stroke-miterlimit="10" d="M-20.607,309.567
					c19.129,13.279-3.001,49.975-21.059,37.367c-9.615-6.718,18.503-38.191,34.721-28.067c22.019,13.74,8.853,56.543-7.606,47.82
					c-10.362-5.493,14.396-46.71,36.471-31.959"/>
				<path fill="none" stroke="#FF0000" stroke-width="7" stroke-linecap="round" stroke-miterlimit="10" d="M-64.899,272.552
					c15.448,16.124-5.771,57.857-20.315,42.596c-10.673-13.804,32.405-32.771,46.289-19.63
					c13.884,13.141-13.247,42.362-22.311,34.919c-9.064-7.438,21.93-39.717,40.63-20.871"/>
				<path fill="none" stroke="#FF0000" stroke-width="7" stroke-linecap="round" stroke-miterlimit="10" d="M-104.321,238.876
					c16.11,16.817-9.162,49.956-24.354,34.007c-8.09-8.49,25.721-33.746,39.605-20.606c18.849,17.844-2.559,57.173-16.957,45.353
					c-9.065-7.444,23.392-42.92,42.093-24.074"/>
			</g>
		</g>
	</g>
	<g id="Capa_3_1_" display="none">
		<path display="inline" fill="#F9DBBD" d="M-427.123,470.646C-166.336,72.29-177.559,91.494-177.559,91.494
			c5.629-8.897,13.603-22.478,22.507-26.217c8.903-3.743,80.384-51.716,111.812-108.614c19.647-18.829,23.208-25.282,28.134-33.945
			c4.925-8.662,50.878-64.146,39.176-78.21c-11.002-10.563-14.991-3.994-18.743,1.159c-3.75,5.15-20.211,28.827-22.976,31.841
			c-3.547,3.864-31.645,29.258-31.645,29.258s27.431-34.884,31.418-42.844c3.988-7.961,12.429-15.449,22.28-35.122
			c9.852-19.668,25.321-31.838,25.327-42.38c0.008-10.539-13.805-21.56-22.009-11.022c-8.207,10.535-19.693,24.112-23.68,30.905
			c-3.986,6.79-47.546,55.159-51.141,61.818c-3.67,6.809,31.217-46.609,31.217-46.609s14.742-16.488,20.162-22.708
			c5.596-6.417,10.321-15.92,11.961-19.2c1.643-3.278,24.144-23.642,22.277-32.78c-1.867-9.137-11.933-19.452-22.948-11.493
			c-11.017,7.956-34.929,34.642-39.385,41.785c-4.454,7.142-22.5,22.12-24.849,25.632c-2.345,3.513-23.727,35.091-27.01,36.963
			c-3.279,1.871,21.624-36.733,21.624-36.733s49.458-50.796,47.828-60.987c-1.631-10.19-7.952-13.942-18.732-11.141
			c-10.777,2.805-89.774,82.158-98.453,100.658c-16.317,10.206-29.772,32.539-33.052,32.066
			c-3.279-0.469-21.418,10.746-24.234,16.366c-2.814,5.617-2.006-9.592-4.582-12.639c-2.576-3.047,30.491-73.895-1.103-97.209
			c-15.907-11.741-19.213,4.438-21.56,10.291c-2.345,5.853-5.411,35.367-9.398,43.329c-3.988,7.963-26.977,52.686-27.216,62.526
			c-0.241,9.836,3.253,35.607,0.438,43.569c-2.817,7.962-8.223,35.131-4.951,44.974c3.272,9.839,3.265,19.21-0.49,29.048
			c-3.755,9.836-27.445,54.793-29.79,58.306c-2.346,3.511-261.687,317.291-261.687,317.291L-427.123,470.646z"/>
	</g>
	<g>
		<path d="M351.458,313.481c-2.744,0.297-5.053,1.071-7.997,2.008l-0.003-0.027l-0.121,0.104c-1.471,0.539-3.047,1.192-4.409,1.913
			l-42.667,18.974l-0.001,0.006c-7.317,2.715-12.632,10.516-11.709,19.041c0.927,8.588,7.814,15.118,16.043,16.087l45.218,9.347
			c1.617,0.463,3.153,0.823,4.85,1.044l-0.013,0.036l0-0.008c3.076,0.286,5.455,0.165,8.199-0.132
			c15.726-1.7,28.008-13.366,30.378-28.84l-15.775,1.704c-2.331,4.818-6.667,7.356-11.81,7.914
			c-5.143,0.555-9.996-1.432-13.232-4.984l-17.583,1.806c-4.775,0.311-9.048-3.157-9.567-7.963
			c-0.521-4.807,2.245-9.432,7.49-10.207l0,0l0.499-0.054c0,0.002,0.003,0,0.007,0c0,0,0.002-0.001,0.004-0.001l17.071-1.845
			c2.399-4.064,6.716-7.36,11.945-7.925c5.229-0.567,10.152,1.731,13.364,5.19l15.693-1.695
			C381.857,321.105,367.254,311.773,351.458,313.481z M311.797,352.558c0.536,4.935-3.034,9.37-7.971,9.904
			c-4.938,0.534-9.373-3.034-9.905-7.972c-0.534-4.938,3.037-9.373,7.973-9.906C306.831,344.051,311.264,347.617,311.797,352.558z"
			/>
	</g>
	<path fill="none" stroke="#FF0000" stroke-width="6" stroke-linecap="round" stroke-miterlimit="10" d="M258.094,364.154
		c0,0,46.951,4.442,45.263-11.456"/>
	<g id="Capa_9_2_">
		<g id="Capa_5_copia_1_">
			<path fill="none" stroke="#FF0000" stroke-width="5" stroke-linecap="round" stroke-miterlimit="10" d="M-198.423,124.799
				c-28.374,8.202-30.62-44.01-20.215-36.313c9.044,6.691-23.011,20.247-41.191,10.396c-23.117-12.526-23.046-46.542-11.829-40.176
				c10.574,6-11.703,12.861-25.181,12.971c0,0-11.29-0.972-11.883-12.081"/>
		</g>
	</g>
</g>
</svg>
