<svg width="96" height="60" viewBox="0 0 96 60" fill="none" xmlns="http://www.w3.org/2000/svg">
<circle cx="47.8677" cy="25.4293" r="4.38679" fill="#E0F7FA"/>
<g filter="url(#filter0_d)">
<path d="M72.1947 23.3218C67.5884 23.3218 63.8638 27.0644 63.8638 31.6527C63.8638 32.7503 64.7634 33.65 65.861 33.65C66.9586 33.65 67.8583 32.7503 67.8583 31.6527C67.8583 29.2596 69.8196 27.2983 72.2127 27.2983C73.3103 27.2983 74.21 26.3986 74.21 25.301C74.192 24.2035 73.2923 23.3218 72.1947 23.3218Z" fill="#4FC3F7"/>
<path d="M19.0518 10.1866C21.7063 8.31209 24.8739 7.06548 28.2947 6.73615L28.5758 7.01672L28.5761 7.01636L28.9716 6.62087L29.4435 6.14899L29.4398 6.14924L32.9832 2.5916H33.0124L33.084 2.52611C34.2989 1.41537 35.8946 0.756274 37.6476 0.756274C40.649 0.756274 43.2004 2.71685 44.0855 5.42418L44.1848 5.72778L44.4556 5.55849C45.4264 4.95175 46.5685 4.58886 47.7959 4.58886C47.9784 4.58886 48.1635 4.58909 48.3288 4.60562L48.3288 4.60578L48.3378 4.60635C49.4304 4.67573 50.4329 5.00482 51.2958 5.55706L51.5699 5.73254L51.6687 5.42236C52.5361 2.69896 55.0863 0.738281 58.1061 0.738281C59.8585 0.738281 61.4724 1.41497 62.6697 2.50823L62.7414 2.5736H62.7705L66.3139 6.13125L66.3101 6.13099L66.782 6.60287L67.1775 6.99837L67.1779 6.99873L67.4591 6.71806C70.8786 7.04594 74.0307 8.27728 76.7017 10.1685L84.0707 16.4231L84.0706 16.4232L84.0763 16.4277C84.6113 16.8558 85.1271 17.3004 85.6062 17.7618C89.2481 21.2793 91.5034 26.1991 91.4857 31.652V31.6528C91.4857 42.3108 82.8168 50.9796 72.1589 50.9796C62.3188 50.9796 54.1823 43.5724 52.9921 34.0509L52.9455 33.6777L52.6194 33.8652C51.217 34.6716 49.6045 35.1274 47.8678 35.1274C46.1489 35.1274 44.5184 34.6714 43.1162 33.8652L42.7895 33.6773L42.7435 34.0514C41.5711 43.5902 33.4171 50.9976 23.5768 50.9976C12.9188 50.9976 4.25 42.3287 4.25 31.6708C4.25 26.2174 6.50561 21.2973 10.1475 17.7798L10.1475 17.7798L10.1506 17.7768C10.6277 17.2996 11.1411 16.8569 11.6733 16.4489L11.6735 16.4491L11.683 16.4411L19.0518 10.1866ZM9.97571 31.6708C9.97571 39.1861 16.0614 45.2719 23.5768 45.2719C31.0918 45.2719 37.1962 39.1684 37.1779 31.6702C37.1775 24.1551 31.0919 18.0697 23.5768 18.0697C16.0614 18.0697 9.97571 24.1554 9.97571 31.6708ZM43.2994 25.4991C43.2994 28.0303 45.3546 30.0855 47.8858 30.0855C50.417 30.0855 52.4722 28.0303 52.4722 25.4991C52.4722 22.9679 50.417 20.9127 47.8858 20.9127C45.3546 20.9127 43.2994 22.9679 43.2994 25.4991ZM58.5938 31.6708C58.5938 39.1861 64.6795 45.2719 72.1949 45.2719C79.7104 45.2719 85.7959 39.1679 85.7959 31.6708C85.7959 24.1554 79.7102 18.0697 72.1949 18.0697C64.6795 18.0697 58.5938 24.1554 58.5938 31.6708Z" fill="black" stroke="black" stroke-width="0.5"/>
<path d="M23.5765 23.3218C18.9702 23.3218 15.2456 27.0644 15.2456 31.6527C15.2456 32.7503 16.1453 33.65 17.2429 33.65C18.3405 33.65 19.2401 32.7503 19.2401 31.6527C19.2401 29.2596 21.2014 27.2983 23.5945 27.2983C24.6921 27.2983 25.5918 26.3986 25.5918 25.301C25.5738 24.2035 24.6741 23.3218 23.5765 23.3218Z" fill="#4FC3F7"/>
</g>
<defs>
<filter id="filter0_d" x="0" y="0.488281" width="95.7358" height="58.7593" filterUnits="userSpaceOnUse" color-interpolation-filters="sRGB">
<feFlood flood-opacity="0" result="BackgroundImageFix"/>
<feColorMatrix in="SourceAlpha" type="matrix" values="0 0 0 0 0 0 0 0 0 0 0 0 0 0 0 0 0 0 127 0"/>
<feOffset dy="4"/>
<feGaussianBlur stdDeviation="2"/>
<feColorMatrix type="matrix" values="0 0 0 0 0 0 0 0 0 0 0 0 0 0 0 0 0 0 0.25 0"/>
<feBlend mode="normal" in2="BackgroundImageFix" result="effect1_dropShadow"/>
<feBlend mode="normal" in="SourceGraphic" in2="effect1_dropShadow" result="shape"/>
</filter>
</defs>
</svg>
