<svg width="100" height="57" viewBox="0 0 100 57" fill="none" xmlns="http://www.w3.org/2000/svg">
<g filter="url(#filter0_d)">
<path d="M95.6849 26.3687C95.6849 29.1513 94.4106 31.4255 92.0991 33.2741C89.786 35.124 86.4352 36.5465 82.2881 37.6204C73.9941 39.768 62.5326 40.5172 49.8674 40.5172C37.2023 40.5172 25.7407 39.768 17.4468 37.6204C13.2997 36.5465 9.94885 35.124 7.63572 33.2741C5.32423 31.4255 4.05 29.1513 4.05 26.3687C4.05 23.5831 5.32693 20.5453 7.64397 17.5532C9.9606 14.5617 13.3143 11.6194 17.4606 9.02586C25.7532 3.83882 37.2108 0.05 49.8671 0.05C62.5234 0.05 73.9812 3.83882 82.2739 9.02586C86.4203 11.6194 89.7741 14.5617 92.0908 17.5532C94.4079 20.5453 95.6849 23.5831 95.6849 26.3687Z" fill="black" stroke="black" stroke-width="0.1"/>
<path d="M85.8739 40.26C85.8739 40.6853 85.6857 41.1423 85.2423 41.6329C84.7962 42.1264 84.1147 42.6264 83.1955 43.1184C81.3579 44.1019 78.6658 45.003 75.2968 45.7657C68.5668 47.2891 59.2449 48.2359 48.9311 48.2359C38.6173 48.2359 29.2954 47.2891 22.5654 45.7657C19.1964 45.003 16.5043 44.1019 14.6667 43.1184C13.7474 42.6264 13.066 42.1264 12.6199 41.6329C12.1764 41.1423 11.9883 40.6853 11.9883 40.26C11.9883 39.8348 12.1764 39.3777 12.6199 38.8871C13.066 38.3936 13.7474 37.8936 14.6667 37.4017C16.5043 36.4182 19.1964 35.517 22.5654 34.7544C29.2954 33.2309 38.6173 32.2842 48.9311 32.2842C59.2449 32.2842 68.5668 33.2309 75.2968 34.7544C78.6658 35.517 81.3579 36.4182 83.1955 37.4017C84.1147 37.8936 84.7962 38.3936 85.2423 38.8871C85.6857 39.3777 85.8739 39.8348 85.8739 40.26Z" fill="#4FC3F7" stroke="#4FC3F7"/>
<path d="M85.9146 39.6905C77.703 38.5658 64.0119 38.1218 48.9317 38.1218C33.8459 38.1218 20.15 38.5661 11.9394 39.6917C11.9374 39.6653 11.9355 39.638 11.9335 39.6099C11.9064 39.2292 11.878 38.6872 11.8729 38.0456C11.8626 36.7579 11.9461 35.0896 12.3124 33.5248C12.3542 33.3462 12.5845 33.0493 13.245 32.6888C13.8728 32.346 14.7724 32.0085 15.9124 31.6844C18.1877 31.0376 21.3293 30.4693 24.9476 29.9996C32.1792 29.0609 41.2446 28.5249 48.9317 28.5249C56.6077 28.5249 65.6696 29.3494 72.9062 30.4335C76.525 30.9755 79.6755 31.5808 81.9617 32.1769C83.107 32.4755 84.0196 32.7678 84.6612 33.0427C84.983 33.1806 85.2201 33.3072 85.38 33.4185C85.5344 33.526 85.5681 33.5859 85.5691 33.5854C85.5692 33.5853 85.5688 33.5842 85.568 33.5821C85.9117 34.5249 86.0006 36.1509 85.99 37.6108C85.9848 38.3266 85.9562 38.9793 85.929 39.4533C85.9241 39.5384 85.9192 39.6177 85.9146 39.6905Z" fill="#4FC3F7" stroke="#4FC3F7"/>
<path d="M86.3509 40.2103C85.4952 40.2076 83.2295 40.0578 80.0614 39.8483C77.9051 39.7057 75.3308 39.5355 72.4986 39.3652C65.4696 38.9426 56.8563 38.5199 49.1177 38.5199C41.3791 38.5199 32.2048 38.9426 24.8486 39.3652C21.1705 39.5765 17.9466 39.7879 15.5839 39.9464C15.0856 39.9798 14.6258 40.0108 14.2082 40.039C12.6439 40.1447 11.6718 40.2104 11.4888 40.2104C11.2771 40.2104 11.116 40.0918 11.0053 39.9039C10.8939 39.7149 10.8366 39.4594 10.8366 39.2009C10.8366 38.9424 10.8938 38.6869 11.0052 38.4979C11.1158 38.31 11.2769 38.1914 11.4886 38.1914C11.6082 38.1914 12.0596 38.158 12.7816 38.1002C13.2294 38.0644 13.7825 38.019 14.4277 37.9661C14.8251 37.9335 15.2575 37.898 15.7217 37.8602C18.1569 37.6615 21.4675 37.3967 25.2033 37.1318C32.6753 36.6021 41.8471 36.0725 49.1177 36.0725C56.3884 36.0725 65.4672 36.495 72.8455 37.0105C76.5347 37.2683 79.7982 37.5493 82.1977 37.8123C83.3975 37.9438 84.3807 38.0707 85.0929 38.1879C85.449 38.2466 85.7366 38.3026 85.9492 38.3554C86.0555 38.3818 86.1423 38.4072 86.2091 38.4314C86.2772 38.456 86.3204 38.478 86.343 38.496C86.5687 38.6754 86.6789 38.8713 86.7202 39.0631C86.7617 39.2558 86.7344 39.4487 86.6777 39.6221C86.621 39.7955 86.5356 39.9471 86.464 40.0557C86.4283 40.1099 86.3962 40.1531 86.3731 40.1826C86.3643 40.1939 86.3568 40.2032 86.3509 40.2103Z" fill="black" stroke="black" stroke-width="0.1"/>
<path d="M49.0749 19.5046C46.0156 19.5046 43.5269 17.1966 43.5269 14.3604H45.112C45.112 16.3862 46.8898 18.0349 49.0749 18.0349C51.2599 18.0349 53.0379 16.3865 53.0379 14.3604L54.623 14.3604C54.623 17.1966 52.1343 19.5046 49.0749 19.5046Z" fill="#E0F7FA"/>
<path d="M49.8678 11.2373H48.2827V20.0885H49.8678V11.2373Z" fill="#E0F7FA"/>
<path d="M49.0749 11.6653C47.782 11.6653 46.73 10.6899 46.73 9.49155C46.73 8.29232 47.782 7.31689 49.0749 7.31689C50.3678 7.31689 51.4198 8.29232 51.4198 9.49155C51.4198 10.6901 50.368 11.6653 49.0749 11.6653ZM49.0749 8.78684C48.6562 8.78684 48.3151 9.10335 48.3151 9.49155C48.3151 9.87976 48.656 10.1956 49.0749 10.1956C49.4936 10.1956 49.8347 9.87976 49.8347 9.49155C49.8347 9.10335 49.4936 8.78684 49.0749 8.78684Z" fill="#E0F7FA"/>
<path d="M51.6651 12.4033H46.4863V13.873H51.6651V12.4033Z" fill="#E0F7FA"/>
</g>
<defs>
<filter id="filter0_d" x="0" y="0" width="99.7349" height="56.7359" filterUnits="userSpaceOnUse" color-interpolation-filters="sRGB">
<feFlood flood-opacity="0" result="BackgroundImageFix"/>
<feColorMatrix in="SourceAlpha" type="matrix" values="0 0 0 0 0 0 0 0 0 0 0 0 0 0 0 0 0 0 127 0"/>
<feOffset dy="4"/>
<feGaussianBlur stdDeviation="2"/>
<feColorMatrix type="matrix" values="0 0 0 0 0 0 0 0 0 0 0 0 0 0 0 0 0 0 0.25 0"/>
<feBlend mode="normal" in2="BackgroundImageFix" result="effect1_dropShadow"/>
<feBlend mode="normal" in="SourceGraphic" in2="effect1_dropShadow" result="shape"/>
</filter>
</defs>
</svg>
