<svg width="92" height="91" viewBox="0 0 92 91" fill="none" xmlns="http://www.w3.org/2000/svg">
<g filter="url(#filter0_d)">
<path d="M76.6648 9.68652L4.69238 41.0972H44.2772V82.2083L76.6648 9.68652Z" fill="black"/>
<path d="M4.69238 41.0972L4.59238 40.8681C4.48388 40.9155 4.42347 41.0324 4.44766 41.1483C4.47184 41.2642 4.574 41.3472 4.69238 41.3472V41.0972ZM76.6648 9.68652L76.8931 9.78847C76.9351 9.69422 76.915 9.5838 76.8423 9.5105C76.7696 9.4372 76.6594 9.41611 76.5648 9.45739L76.6648 9.68652ZM44.2772 82.2083H44.0272C44.0272 82.3263 44.1097 82.4282 44.2251 82.4528C44.3405 82.4774 44.4574 82.418 44.5055 82.3103L44.2772 82.2083ZM44.2772 41.0972H44.5272C44.5272 40.9592 44.4153 40.8472 44.2772 40.8472V41.0972ZM4.79238 41.3264L76.7648 9.91565L76.5648 9.45739L4.59238 40.8681L4.79238 41.3264ZM76.4365 9.58458L44.0489 82.1064L44.5055 82.3103L76.8931 9.78847L76.4365 9.58458ZM44.5272 82.2083V41.0972H44.0272V82.2083H44.5272ZM44.2772 40.8472H4.69238V41.3472H44.2772V40.8472Z" fill="black"/>
<circle cx="84.1313" cy="5.61519" r="3.07075" fill="#4FC3F7"/>
</g>
<defs>
<filter id="filter0_d" x="0.442383" y="2.54443" width="90.7597" height="87.9139" filterUnits="userSpaceOnUse" color-interpolation-filters="sRGB">
<feFlood flood-opacity="0" result="BackgroundImageFix"/>
<feColorMatrix in="SourceAlpha" type="matrix" values="0 0 0 0 0 0 0 0 0 0 0 0 0 0 0 0 0 0 127 0"/>
<feOffset dy="4"/>
<feGaussianBlur stdDeviation="2"/>
<feColorMatrix type="matrix" values="0 0 0 0 0 0 0 0 0 0 0 0 0 0 0 0 0 0 0.25 0"/>
<feBlend mode="normal" in2="BackgroundImageFix" result="effect1_dropShadow"/>
<feBlend mode="normal" in="SourceGraphic" in2="effect1_dropShadow" result="shape"/>
</filter>
</defs>
</svg>
