<svg width="376" height="376" viewBox="0 0 376 376" fill="none" xmlns="http://www.w3.org/2000/svg">
<g clip-path="url(#clip0)">
<path d="M-126.317 -212.984H477.45L478.191 390.15H-125.576L-126.317 -212.984Z" fill="url(#paint0_linear)"/>
<path d="M300.702 302.076C300.966 302.306 301.872 301.97 302.014 301.898C302.107 301.849 302.146 301.755 302.148 301.638C302.154 301.424 302.04 301.131 301.919 300.883C301.789 300.513 299.272 286.027 297.768 277.375C297.096 273.508 296.563 270.453 296.474 269.971C296.347 269.267 296.112 268.819 295.785 268.634C295.518 268.488 295.297 268.571 295.289 268.575C294.341 268.76 294.346 269.063 294.441 269.58C294.456 269.668 294.474 269.764 294.488 269.87C294.563 270.511 298.282 296.02 298.442 297.106C298.518 297.465 298.661 298.444 298.42 298.78C298.151 299.163 296.869 299.59 296.246 299.73C293.289 300.41 291.158 300.617 290.938 300.247C290.868 300.131 290.788 299.7 291.549 298.231C291.981 297.399 292.52 296.559 292.676 296.361C292.707 296.321 295.714 292.24 295.585 291.318C295.573 291.233 295.535 291.163 295.476 291.121C294.905 290.716 293.738 291.287 292.381 291.948L292.031 292.123C290.914 292.666 289.717 293.364 289.242 293.647C289.374 292.939 289.749 290.927 289.781 290.616C289.785 290.587 289.789 290.543 289.79 290.49C289.797 290.285 289.77 289.936 289.557 289.704C289.423 289.555 289.24 289.482 289.012 289.481C288.583 289.485 287.928 290.053 287.235 290.649C287.119 290.756 287.001 290.852 286.891 290.95C286.871 290.908 286.857 290.876 286.839 290.836C286.42 289.927 285.852 288.683 285.23 288.502C285.074 288.454 284.923 288.48 284.78 288.573C284.128 288.993 284.356 290.891 285.496 294.534C286.35 297.264 288.159 301.155 288.178 301.193C288.569 302.034 289.78 303.312 291.127 303.39C292.412 303.467 299.875 302.184 300.677 302.044C300.687 302.054 300.695 302.064 300.702 302.076Z" fill="#727272"/>
<path d="M295.61 270.132C295.692 270.185 295.784 270.21 295.88 270.193C296.079 270.164 296.212 269.978 296.179 269.773C296.164 269.679 296.111 269.593 296.033 269.538C295.955 269.483 295.86 269.459 295.764 269.474C295.594 269.501 295.465 269.647 295.46 269.823C295.46 269.848 295.461 269.869 295.466 269.894C295.48 269.993 295.531 270.076 295.61 270.132Z" fill="#727272"/>
<path d="M291.478 302.855C292.682 302.929 299.755 301.723 300.881 301.529C300.829 301.405 300.801 301.263 300.813 301.134C300.831 300.981 300.91 300.858 301.031 300.794C301.2 300.705 301.48 300.611 301.68 300.549L301.632 300.523L297.057 272.32C296.809 270.906 296.642 269.947 296.596 269.694C296.452 268.911 296.203 268.619 296.02 268.514C295.849 268.416 295.705 268.465 295.683 268.468C294.888 268.625 294.917 268.788 294.997 269.22C295.015 269.313 295.03 269.415 295.043 269.523C295.061 269.667 295.278 271.18 295.6 273.42C296.323 273.863 296.474 274.839 296.483 274.88C296.647 275.794 300.513 297.28 299.405 299.222C299.11 299.74 297.445 300.102 297.262 300.142C297.104 300.18 293.375 301.075 291.977 301.102C289.939 301.134 288.94 298.567 288.738 297.571C288.565 296.727 289.211 293.65 289.215 293.517V293.515C289.218 293.407 289.811 290.626 289.848 290.27C289.874 290.034 289.895 289.711 289.732 289.532C289.638 289.433 289.514 289.381 289.351 289.383C289.005 289.384 288.321 289.978 287.717 290.497C287.309 290.849 286.923 291.183 286.608 291.376C286.19 291.634 285.927 291.708 285.775 291.613C285.681 291.551 285.665 291.447 285.67 291.397L285.89 291.426C285.891 291.428 285.996 291.492 286.494 291.19C286.657 291.092 286.845 290.945 287.049 290.778C287.022 290.722 286.997 290.67 286.97 290.609C286.62 289.837 286.028 288.548 285.505 288.399C285.413 288.369 285.326 288.383 285.238 288.44C284.868 288.682 284.707 289.87 286.048 294.155C286.575 295.831 287.464 297.953 288.071 299.338C287.998 297.005 288.97 292.267 289.311 290.593C289.375 290.28 289.425 290.037 289.428 289.998L289.54 290.005L289.648 289.987C289.649 289.991 289.65 289.997 289.65 290.005C289.652 290.043 289.634 290.142 289.532 290.635C289.152 292.48 288.005 298.082 288.351 299.968C288.573 300.464 288.713 300.769 288.718 300.783C289.035 301.468 290.171 302.778 291.478 302.855ZM295.482 270.314C295.355 270.219 295.271 270.084 295.247 269.93C295.194 269.607 295.416 269.31 295.729 269.257C295.883 269.23 296.038 269.269 296.165 269.359C296.295 269.452 296.377 269.584 296.4 269.739C296.406 269.779 296.408 269.818 296.408 269.85C296.401 270.129 296.197 270.368 295.919 270.412C295.764 270.438 295.609 270.403 295.482 270.314Z" fill="#727272"/>
<path d="M295.645 273.722C296.747 281.316 298.969 296.544 298.994 296.742C299.026 296.882 299.278 298.109 298.938 298.584C298.581 299.078 297.113 299.512 296.624 299.621C294.722 300.06 291.476 300.692 291.083 300.031C290.605 299.23 292.651 296.135 292.838 295.897C293.2 295.437 295.809 291.759 295.702 291.024C295.7 291.013 295.695 290.986 295.682 290.978C295.224 290.647 294.056 291.22 292.821 291.822L292.468 291.995C291.183 292.622 289.78 293.459 289.528 293.615C289.444 294.008 288.856 296.788 289.01 297.53C289.189 298.411 290.127 300.911 292.001 300.881C293.376 300.86 297.187 299.94 297.229 299.927C297.714 299.826 299.016 299.478 299.222 299.115C300.292 297.245 296.313 275.145 296.273 274.918C296.269 274.908 296.149 274.154 295.645 273.722Z" fill="#727272"/>
<path d="M301.838 300.383L302.017 300.49C301.855 299.73 301.278 296.504 300.318 291.02L301.838 300.383Z" fill="#727272"/>
<path d="M301.186 301.593C301.301 301.696 302.014 301.508 302.25 301.385C302.295 301.361 302.281 301.122 302.062 300.669L301.985 300.687C301.979 300.691 301.394 300.855 301.136 300.991C301.077 301.019 301.045 301.078 301.032 301.158C301.014 301.322 301.098 301.516 301.186 301.593Z" fill="#727272"/>
<path d="M301.044 301.756C301.307 301.987 302.214 301.649 302.354 301.576C302.447 301.528 302.487 301.434 302.488 301.317C302.495 301.103 302.38 300.812 302.257 300.562C302.129 300.194 299.61 285.708 298.104 277.056C297.433 273.189 296.903 270.134 296.811 269.65C296.682 268.949 296.45 268.501 296.119 268.315C295.856 268.169 295.633 268.253 295.622 268.258C294.675 268.443 294.684 268.742 294.781 269.261C294.796 269.349 294.813 269.445 294.822 269.551C294.898 270.195 298.619 295.702 298.777 296.789C298.856 297.146 298.997 298.126 298.758 298.462C298.483 298.844 297.206 299.271 296.58 299.411C293.624 300.089 291.492 300.299 291.272 299.928C291.203 299.81 291.122 299.38 291.881 297.913C292.316 297.075 292.856 296.236 293.012 296.04C293.042 296.002 296.049 291.923 295.921 291C295.908 290.912 295.87 290.846 295.809 290.803C295.241 290.396 294.07 290.969 292.717 291.629L292.362 291.805C291.245 292.346 290.038 293.046 289.563 293.329C289.538 293.466 289.508 293.55 289.504 293.57L289.262 293.529C289.261 293.528 289.213 293.522 289.213 293.52L289.211 293.522C289.207 293.654 288.563 296.735 288.735 297.578C288.94 298.568 289.96 301.14 291.999 301.105C293.399 301.084 297.112 300.184 297.273 300.145C297.459 300.107 299.115 299.742 299.41 299.226C300.517 297.282 296.647 275.796 296.484 274.883C296.478 274.841 296.324 273.865 295.599 273.422C295.274 271.18 295.055 269.668 295.04 269.524C295.028 269.414 295.011 269.313 294.992 269.221C294.915 268.789 294.885 268.628 295.681 268.47C295.703 268.463 295.846 268.417 296.016 268.517C296.2 268.624 296.448 268.912 296.593 269.696C296.64 269.95 296.806 270.909 297.052 272.322L301.631 300.525L301.676 300.552C301.473 300.614 301.197 300.709 301.028 300.797C300.906 300.861 300.829 300.983 300.81 301.139C300.796 301.265 300.825 301.407 300.879 301.532C300.968 301.517 301.026 301.507 301.032 301.505L301.072 301.723C301.056 301.725 301.038 301.73 301.009 301.733C301.023 301.739 301.032 301.751 301.044 301.756ZM295.648 273.731C296.152 274.161 296.272 274.912 296.274 274.922C296.314 275.148 300.293 297.25 299.224 299.119C299.018 299.482 297.713 299.828 297.229 299.933C297.186 299.946 293.377 300.862 292.004 300.884C290.125 300.916 289.19 298.413 289.01 297.534C288.86 296.792 289.442 294.009 289.527 293.618C289.782 293.462 291.183 292.624 292.469 291.998L292.821 291.826C294.058 291.22 295.225 290.649 295.683 290.982C295.7 290.988 295.703 291.013 295.704 291.026C295.812 291.764 293.202 295.44 292.839 295.9C292.652 296.137 290.607 299.234 291.084 300.036C291.475 300.697 294.724 300.063 296.625 299.624C297.115 299.514 298.584 299.081 298.94 298.588C299.28 298.112 299.029 296.881 298.996 296.744C298.968 296.548 296.746 281.321 295.648 273.731ZM302.015 300.489L301.837 300.382L300.317 291.017C301.278 296.503 301.854 299.726 302.015 300.489ZM301.186 301.592C301.097 301.514 301.014 301.321 301.034 301.157C301.045 301.077 301.078 301.017 301.138 300.989C301.397 300.848 301.979 300.688 301.988 300.686L302.064 300.667C302.282 301.122 302.297 301.36 302.252 301.383C302.013 301.505 301.304 301.694 301.186 301.592Z" fill="#727272"/>
<path d="M287.051 290.778C287.108 290.733 287.166 290.685 287.224 290.635C287.208 290.592 287.19 290.561 287.173 290.521C286.753 289.612 286.185 288.367 285.567 288.186C285.41 288.138 285.259 288.164 285.115 288.255C284.464 288.676 284.693 290.574 285.832 294.222C286.689 296.947 288.496 300.84 288.517 300.876C288.909 301.718 290.117 302.995 291.466 303.075C292.75 303.151 300.209 301.867 301.014 301.727C300.961 301.675 300.916 301.604 300.882 301.525C299.759 301.716 292.687 302.922 291.48 302.852C290.173 302.776 289.035 301.466 288.717 300.782C288.71 300.769 288.57 300.462 288.349 299.967C288.349 299.971 288.35 299.977 288.351 299.983L288.134 300.021C288.098 299.828 288.075 299.599 288.07 299.335C287.46 297.953 286.576 295.829 286.047 294.154C284.708 289.866 284.867 288.681 285.238 288.437C285.325 288.384 285.412 288.368 285.505 288.398C286.025 288.545 286.618 289.834 286.97 290.608C286.999 290.669 287.024 290.723 287.051 290.778Z" fill="#727272"/>
<path d="M301.013 301.729C301.042 301.726 301.06 301.722 301.075 301.719L301.037 301.502C301.029 301.503 300.971 301.513 300.882 301.528C300.916 301.606 300.96 301.674 301.013 301.729Z" fill="#727272"/>
<path d="M289.368 293.454C289.372 293.449 289.451 293.404 289.582 293.327C289.714 292.621 290.088 290.608 290.119 290.297C290.128 290.27 290.128 290.224 290.131 290.171C290.137 289.965 290.108 289.618 289.898 289.388C289.763 289.235 289.578 289.164 289.349 289.163C288.92 289.167 288.266 289.734 287.572 290.331C287.455 290.438 287.337 290.533 287.225 290.633C287.253 290.688 287.279 290.748 287.304 290.799L287.107 290.893C287.088 290.858 287.071 290.815 287.053 290.775C286.848 290.942 286.659 291.09 286.496 291.188C285.999 291.491 285.896 291.426 285.895 291.426L285.674 291.396C285.666 291.45 285.684 291.551 285.778 291.612C285.93 291.709 286.198 291.629 286.612 291.375C286.926 291.182 287.312 290.851 287.719 290.496C288.325 289.978 289.008 289.384 289.354 289.382C289.519 289.381 289.643 289.432 289.735 289.531C289.898 289.711 289.928 290.031 289.905 290.27C289.864 290.627 289.343 293.408 289.32 293.515L289.33 293.471L289.368 293.454Z" fill="#727272"/>
<path d="M289.538 293.567C289.542 293.551 289.558 293.459 289.583 293.327C289.451 293.402 289.374 293.447 289.37 293.451L289.328 293.475L289.318 293.52C289.318 293.521 289.318 293.527 289.318 293.527L289.538 293.567Z" fill="#727272"/>
<path d="M287.303 290.799C287.279 290.75 287.252 290.689 287.225 290.632C287.164 290.681 287.108 290.731 287.049 290.777C287.066 290.816 287.084 290.857 287.103 290.894L287.303 290.799Z" fill="#727272"/>
<path d="M288.07 299.331C288.173 299.569 288.267 299.78 288.35 299.966C288.005 298.081 289.152 292.479 289.53 290.634C289.63 290.141 289.647 290.043 289.649 290.002C289.649 289.995 289.648 289.989 289.647 289.985L289.54 290.002L289.426 289.998C289.423 290.035 289.374 290.279 289.31 290.592C288.967 292.263 287.996 297.006 288.07 299.331Z" fill="#727272"/>
<path d="M288.346 299.971C288.263 299.785 288.166 299.572 288.067 299.336C288.072 299.6 288.095 299.827 288.129 300.02L288.349 299.983C288.347 299.978 288.347 299.973 288.346 299.971Z" fill="#727272"/>
<path d="M295.482 270.313C295.61 270.401 295.764 270.437 295.918 270.415C296.195 270.368 296.401 270.134 296.407 269.854C296.408 269.821 296.405 269.783 296.399 269.743C296.376 269.589 296.291 269.455 296.163 269.363C296.036 269.275 295.88 269.235 295.727 269.26C295.414 269.311 295.191 269.608 295.244 269.933C295.272 270.087 295.355 270.22 295.482 270.313ZM295.61 270.134C295.531 270.077 295.478 269.992 295.463 269.898C295.458 269.873 295.457 269.85 295.459 269.826C295.463 269.651 295.592 269.505 295.762 269.477C295.858 269.46 295.954 269.485 296.032 269.54C296.11 269.597 296.164 269.68 296.178 269.775C296.212 269.98 296.076 270.164 295.881 270.195C295.786 270.212 295.691 270.188 295.61 270.134Z" fill="#727272"/>
<path d="M60.6851 168.316C59.8104 168.499 57.0147 174.554 57.9016 179.333C58.7904 184.111 61.339 195.182 62.8019 197.005C64.2691 198.828 66.109 202.087 66.109 202.087C66.109 202.087 59.6407 205.562 58.6085 207.837C58.6085 207.837 58.6104 208.769 59.4007 208.646C60.191 208.519 67.0901 208.144 67.4144 208.92C67.7388 209.692 68.3688 213.713 68.4715 214.238C68.5783 214.76 68.2877 217.136 68.1869 217.989C68.1443 218.342 66.0302 221.747 66.4151 222.516C66.8083 223.287 69.671 223.314 71.269 223.276C72.8632 223.24 81.3738 217.54 82.5588 216.49C83.7452 215.442 84.0794 202.764 84.0794 202.764C84.0794 202.764 81.6597 186.188 82.2537 186.153C82.8485 186.119 86.8605 184.503 88.1491 183.011C89.4386 181.516 88.9596 174.29 88.3526 173.138C87.7329 171.982 73.803 165.549 60.6851 168.316Z" fill="#36627A"/>
<path d="M67.1909 214.053C67.1909 214.053 68.5691 213.772 68.6478 213.943C68.727 214.116 69.0289 214.593 68.9637 215.514C68.8981 216.438 69.2525 217.608 68.5259 217.696C67.7994 217.785 67.2997 217.788 67.2997 217.788C67.2997 217.788 66.0894 220.774 64.2242 221.677C62.3581 222.581 61.1028 222.273 62.2517 221.091C63.3969 219.908 65.5527 218.517 65.3464 218.03C65.142 217.545 61.527 218.043 61.527 218.043L61.5594 215.12C61.5594 215.12 64.3227 214.852 64.4595 214.905C64.5973 214.958 65.6389 214.185 64.8481 213.843C64.0569 213.502 60.6523 213.849 61.1956 212.642C61.7403 211.436 61.6086 211.447 62.8939 211.285C64.1816 211.123 65.8278 211.757 66.5581 212.641C67.2852 213.524 67.1909 214.053 67.1909 214.053Z" fill="#6C808C"/>
<path d="M139.949 206.954L126.946 196.074L72.3977 192.977C89.425 189.474 121.686 184.35 169.744 181.388C204.272 179.262 233.201 179.04 246.582 179.717C270.912 180.952 287.282 179.537 291.438 179.113C290.731 179.56 289.693 180.262 289.064 180.848C288.585 181.289 288.165 181.889 287.575 182.718C286.392 184.4 284.579 186.826 280.579 190.599L280.179 190.962C253.473 203.973 217.272 207.808 191.27 208.547C163.732 209.333 141.112 207.076 139.949 206.954Z" fill="#FF0000"/>
<path d="M170.763 163.391C170.53 162.92 170.343 162.567 170.196 162.301C170.119 162.17 170.054 162.059 169.996 161.968C169.706 161.506 169.611 161.505 169.554 161.503L169.388 161.606C169.309 161.754 169.222 161.913 169.121 162.078C169.053 162.189 168.982 162.303 168.908 162.419C168.867 162.477 168.829 162.535 168.792 162.593C167.738 164.123 165.99 165.923 164.94 165.647C164.44 165.513 164.139 165.176 164.018 164.605C164.002 164.539 163.993 164.469 163.984 164.4C163.976 164.327 163.968 164.252 163.968 164.174C163.902 162.145 165.711 158.17 168.087 155.634C168.452 155.244 168.832 154.888 169.221 154.581C169.436 154.407 169.681 154.233 169.939 154.085C170.355 153.848 170.805 153.678 171.222 153.699C171.379 153.706 171.532 153.742 171.68 153.809C171.912 153.917 172.067 154.097 172.153 154.363C172.21 154.536 172.232 154.739 172.232 154.953C172.216 156.469 170.927 158.773 170.909 158.801L170.814 158.973L172.918 159.581L170.763 163.391ZM171.023 155.899C171.016 155.665 170.959 155.475 170.829 155.345C170.804 155.319 170.776 155.296 170.743 155.274C170.666 155.223 170.574 155.195 170.475 155.195C170.405 155.195 170.333 155.211 170.249 155.241C169.684 155.443 168.872 156.32 168.053 157.445L168.016 157.4L167.979 157.356L167.263 158.598C166.908 159.152 166.569 159.728 166.268 160.286C165.762 161.216 165.361 162.103 165.155 162.769C165.041 163.148 164.989 163.454 165.002 163.686C165.006 163.745 165.016 163.798 165.024 163.848C165.056 163.996 165.126 164.108 165.229 164.176C165.276 164.207 165.327 164.221 165.383 164.221C166.027 164.221 168.113 161.694 168.98 160.461C169.011 160.413 169.042 160.371 169.07 160.327C169.123 160.244 169.177 160.167 169.214 160.101C169.26 160.034 169.293 159.976 169.312 159.931C169.338 159.888 169.369 159.839 169.411 159.778C169.449 159.718 169.489 159.649 169.537 159.571C170.047 158.721 171.047 156.92 171.023 155.899Z" fill="black"/>
<path d="M190.542 156.606C189.709 156.721 186.783 157.197 184.243 157.677C184.081 157.707 183.921 157.738 183.764 157.769C183.681 157.785 183.599 157.802 183.517 157.818C183.17 157.887 182.834 157.959 182.513 158.029C182.413 158.051 182.315 158.074 182.22 158.098C181.978 158.152 181.748 158.209 181.534 158.267C181.446 158.29 181.362 158.312 181.282 158.336C181.266 158.338 181.242 158.344 181.216 158.351C180.434 158.524 175.977 159.562 175.311 160.718C175.291 160.757 175.272 160.788 175.261 160.827C174.87 161.944 173.921 168.2 173.764 169.593H171.1L170.168 167.238L170.529 163.892L170.671 163.827C170.662 163.81 170.655 163.795 170.65 163.779C170.64 163.763 170.634 163.747 170.627 163.732L172.939 159.67L172.973 159.679L173.02 159.531L173.053 159.472L173.112 159.368L176.563 152.106L177.091 151.92L177.621 151.735L179.173 143.269C179.249 143.269 179.354 143.269 179.485 143.269C180.39 143.269 183.41 143.294 184.278 143.623C185 143.902 188.495 151.607 190.542 156.606Z" fill="#3FA9F5"/>
<path d="M169.338 159.064C169.354 159.064 169.365 159.061 169.376 159.059C169.406 159.053 169.43 159.036 169.455 159.016C169.303 159.282 169.15 159.538 168.999 159.776C168.916 159.945 168.752 160.196 168.543 160.492C168.508 160.412 168.496 160.322 168.496 160.246C168.493 160.115 168.52 160.01 168.521 160.006L168.568 159.845L167.091 159.533L167.709 158.454C167.826 158.277 167.946 158.104 168.07 157.935C168.964 158.969 169.232 159.068 169.338 159.064Z" fill="black"/>
<path d="M169.412 159.779C169.372 159.84 169.342 159.891 169.316 159.931C169.295 159.977 169.264 160.035 169.218 160.101C169.176 160.169 169.128 160.244 169.073 160.328C169.044 160.371 169.015 160.414 168.983 160.461C168.118 161.697 166.032 164.222 165.386 164.222C165.33 164.222 165.275 164.208 165.234 164.178C165.124 164.107 165.059 163.999 165.027 163.849C165.015 163.801 165.009 163.744 165.006 163.687C164.992 163.454 165.048 163.15 165.158 162.769C165.363 162.104 165.765 161.218 166.273 160.286C166.572 159.728 166.916 159.153 167.266 158.601L167.982 157.357L168.019 157.4L168.057 157.444C168.874 156.321 169.686 155.443 170.252 155.241C170.332 155.213 170.408 155.195 170.479 155.195C170.582 155.195 170.67 155.222 170.747 155.275C170.778 155.294 170.808 155.32 170.833 155.345C170.962 155.476 171.019 155.668 171.026 155.898C171.047 156.918 170.05 158.72 169.537 159.569C169.491 159.649 169.449 159.719 169.412 159.779ZM165.429 162.862C165.185 163.669 165.288 163.867 165.331 163.906C165.849 163.81 167.406 162.024 168.335 160.769C168.165 160.544 168.162 160.262 168.187 160.088L166.858 159.807C166.228 160.891 165.691 161.995 165.429 162.862ZM167.706 158.456L167.087 159.534L168.564 159.847L168.516 160.007C168.515 160.009 168.488 160.116 168.49 160.247C168.491 160.324 168.506 160.413 168.538 160.492C168.746 160.195 168.911 159.944 168.994 159.777C169.143 159.539 169.297 159.282 169.45 159.017C169.427 159.035 169.401 159.052 169.371 159.059C169.361 159.061 169.353 159.064 169.334 159.064C169.228 159.068 168.96 158.969 168.061 157.935C167.945 158.104 167.826 158.277 167.706 158.456ZM170.572 155.535C170.547 155.518 170.513 155.508 170.473 155.508C170.037 155.508 169.165 156.425 168.25 157.676C168.643 158.125 169.082 158.582 169.274 158.718C169.382 158.556 169.584 158.493 169.754 158.473C170.454 157.164 170.987 155.811 170.572 155.535Z" fill="black"/>
<path d="M71.9112 190.723L71.9843 190.675L71.9365 186.375L74.6229 184.732L86.3792 184.939L86.4063 184.929L91.2767 183.128L91.481 173.083L100.27 170.939L119.061 170.886L120.051 169.066L135.971 168.182L136.076 166.569L139.387 166.233L139.087 165.996C139.083 165.993 138.622 165.621 138.632 165.171C138.641 164.909 138.805 164.66 139.133 164.431C139.372 164.259 140.084 164.057 142.081 164.057C143.917 164.057 146.155 164.222 147.793 164.342C148.602 164.402 149.241 164.452 149.614 164.462C150.731 164.496 151.97 165.338 152.647 166.104C153.063 166.574 153.282 167.035 153.253 167.36C153.153 168.399 152.985 168.65 152.235 168.791L152.283 169.121L163.272 168.079L170.057 167.44L170.985 169.823H173.921L173.937 169.471C173.952 169.398 175.034 161.893 175.439 160.729C175.757 159.818 179.736 158.753 181.243 158.424C183.901 157.678 189.449 156.898 190.467 156.76L190.483 156.797L190.594 156.787C190.595 156.787 190.812 156.767 191.112 156.767C191.963 156.767 192.579 156.91 192.858 157.161C193.16 157.439 193.162 157.994 193.164 158.534C193.167 158.998 193.168 159.437 193.343 159.764C193.704 160.432 196.789 165.65 196.923 165.871L196.967 165.942L197.046 165.948C197.501 165.974 242.275 168.621 252.263 169.85C253.037 169.945 253.92 170.035 254.887 170.171C270.004 172.299 291.177 176.384 291.177 176.384C292.815 176.413 293.464 176.927 293.521 177.359C293.573 177.759 293.159 178.161 292.479 178.361C292.459 178.371 292.004 178.603 291.381 178.971C288.635 179.273 272.062 180.912 246.176 179.599C232.785 178.921 203.81 179.188 169.273 181.316C120.064 184.349 89.697 189.189 72.8834 192.715L72.1456 192.869C70.7496 192.851 70.2537 192.711 70.1895 192.635C70.1703 192.59 70.1407 192.549 70.1098 192.508C70.0348 192.41 69.9992 192.354 70.017 192.277C70.0732 192.002 70.6915 191.493 71.9112 190.723Z" fill="white" stroke="white" stroke-miterlimit="10"/>
<path d="M139.904 207.071L139.952 207.076C140.14 207.096 156.271 208.778 178.49 208.778C182.338 208.778 186.366 208.731 190.52 208.611C216.408 207.874 252.791 204.287 279.507 191.424C279.433 191.489 279.368 191.551 279.302 191.617C278.38 192.468 277.464 193.37 276.494 194.326C270.355 200.369 262.716 207.889 243.013 213.618C238.478 214.936 233.626 215.551 227.731 215.551C222.684 215.551 217.507 215.414 212.025 214.941C206.007 214.422 199.789 213.886 193.136 213.886C192.114 213.886 191.095 213.899 190.105 213.925C189.106 213.949 187.935 213.964 186.626 213.964C160.717 213.964 81.7944 208.544 78.5183 208.332L72.6641 193.343L126.938 196.19L139.904 207.071Z" fill="white" stroke="white" stroke-miterlimit="10"/>
<path d="M283.04 144.986C283.061 145.199 284.115 149.224 284.303 149.663C284.49 150.102 285.624 154.273 285.906 155.073C286.189 155.871 287.168 157.014 287.148 157.434C287.124 157.852 287.314 158.43 286.82 159.015C286.329 159.6 285.169 160.682 284.837 160.51C284.507 160.337 283.402 158.901 283.52 158.633C283.64 158.364 284.088 156.864 284.061 156.651C284.033 156.438 283.854 154.949 283.188 154.044C282.523 153.141 280.681 149.531 280.538 149.237C280.394 148.943 278.873 145.154 278.873 145.154L283.04 144.986Z" fill="#FFCBA1"/>
<path d="M271.631 175.071C271.636 175.055 271.645 175.01 271.66 174.935V174.934C271.839 174.074 272.769 169.589 272.838 168.872C272.912 168.077 274.821 162.798 274.918 161.766C275.015 160.733 275.485 159.645 275.485 159.645L275.732 159.236C274.883 158.151 274.155 157.137 274.104 156.906C273.932 156.114 274.948 155.724 274.948 155.724L276.852 155.902C276.869 155.773 276.888 155.669 276.908 155.612C277.013 155.305 272.484 150.63 272.484 150.63C272.484 150.63 271.917 154.104 271.177 155.155C270.437 156.209 269.845 159.775 269.582 160.873C269.319 161.97 268.278 164.517 267.833 170.085C267.597 173.016 267.556 174.904 267.601 176.034C267.593 176.281 267.583 176.524 267.572 176.748H271.407C271.411 176.209 271.567 175.387 271.631 175.071Z" fill="#FFCBA1"/>
<path d="M274.104 156.905C274.155 157.137 274.884 158.151 275.732 159.236L276.721 157.597C276.721 157.597 276.773 156.481 276.852 155.902L274.948 155.724C274.948 155.724 273.932 156.114 274.104 156.905Z" fill="#FFCBA1"/>
<path d="M269.415 176.387C269.415 176.387 282.68 160.354 284.711 158.453C286.741 156.553 287.28 155.089 291.403 156.778C295.822 159.059 295.162 266.178 295.539 269.952" stroke="#727272" stroke-width="1.5" stroke-miterlimit="10"/>
<path d="M269.415 176.387C269.415 176.387 282.68 160.354 284.711 158.453C286.741 156.553 287.142 154.972 291.264 156.662C296.068 159.494 295.161 266.177 295.539 269.951" stroke="#727272" stroke-width="3" stroke-miterlimit="10" stroke-linecap="round" stroke-dasharray="1.5 4"/>
<path d="M275.732 159.236C276.824 160.632 278.114 162.143 278.408 162.245C278.666 162.332 278.854 162.379 278.854 162.379C278.854 162.379 279.079 163.615 278.529 164.627C277.979 165.64 278.42 173.578 278.788 174.051C278.996 174.317 278.765 175.642 278.525 176.749H282.662C282.672 176.146 282.691 175.447 282.732 174.759C282.841 172.949 283.009 170.996 283.133 170.325C283.258 169.653 283.449 166.34 283.626 165.108C283.803 163.876 283.855 162.032 283.893 160.984C283.931 159.934 281.31 156.321 281.31 156.321L276.851 155.902C276.773 156.481 276.72 157.597 276.72 157.597L275.732 159.236Z" fill="#FFCBA1"/>
<path d="M293.166 147.065C293.166 147.065 291.868 149.746 291.547 150.277C291.224 150.808 291.042 153.174 290.833 154.067C290.625 154.958 291.014 156.537 291.034 156.819C291.053 157.102 291.28 158.175 290.989 158.778C290.697 159.383 290.632 159.982 289.83 159.604C289.029 159.225 288.757 157.727 288.448 157.628C288.138 157.529 287.663 156.921 287.64 156.639C287.618 156.356 285.736 154.6 286.116 152.866C286.497 151.132 287.075 150.345 287.277 149.243C287.481 148.14 289.806 143.241 289.806 143.241L293.166 147.065Z" fill="#FFCBA1"/>
<path d="M292.802 135.032C292.878 135.068 294.841 135.575 295.178 135.609C295.518 135.643 296.593 135.696 296.705 135.719C296.814 135.739 297.513 135.559 297.938 135.436C298.362 135.314 299.832 134.706 300.149 134.781C300.467 134.854 302.899 135.186 302.915 135.246C302.932 135.307 304.278 136.803 304.295 136.934C304.314 137.068 305.188 139.249 305.079 139.833C304.971 140.415 304.014 142.262 303.795 142.435C303.576 142.609 302.369 143.319 302.121 143.346C301.873 143.37 300.643 143.345 300.463 143.47C300.284 143.594 300.143 143.569 300.005 143.472C299.864 143.373 299.805 143.147 299.614 143.255C299.421 143.363 299.207 143.439 298.967 143.581C298.725 143.723 298.086 144.113 297.97 144.121C297.854 144.129 297.791 144.197 297.633 143.965C297.475 143.736 297.373 143.587 297.373 143.587C297.373 143.587 296.866 143.38 296.756 143.43C296.648 143.482 296.139 143.446 295.978 143.458C295.817 143.473 294.756 143.091 294.68 143.019C294.608 142.947 294.446 142.502 294.448 142.33C294.452 142.159 294.665 141.238 294.665 141.238L294.849 140.555L294.117 140.09C294.117 140.09 293.697 140.114 293.602 140.154C293.508 140.194 293.275 140.486 293.065 140.553C292.856 140.618 292.243 141.065 292.243 141.065C292.243 141.065 291.196 139.509 291.045 139.007C290.893 138.506 292.292 135.506 292.292 135.506C292.292 135.506 292.788 134.903 292.793 134.968" fill="#FFCBA1"/>
<path d="M295.539 135.616L295.559 136.171L296.04 136.745C296.04 136.745 296.274 137.211 296.424 137.202C296.572 137.194 296.746 137.321 296.934 137.282C297.12 137.242 297.937 137.33 297.966 137.272C297.995 137.213 298.641 137.334 298.641 137.334C298.641 137.334 298.694 137.444 298.852 137.587C299.01 137.728 299.313 138.136 299.313 138.136L299.726 138.61C299.726 138.61 299.466 138.633 299.833 138.522C300.196 138.412 300.642 138.471 300.642 138.471L301.53 139.246C301.53 139.246 301.964 138.413 301.814 138.189C301.668 137.964 299.734 135.982 299.547 135.945C299.361 135.91 298.605 135.333 298.605 135.333C298.605 135.333 297.161 135.177 297.053 135.266C296.946 135.355 296.648 135.372 296.535 135.425C296.425 135.479 295.619 135.543 295.619 135.543" fill="#662F09"/>
<path d="M298.278 135.375L303.229 143.216C303.229 143.216 307.803 141.086 305.084 136.81C302.804 133.223 300.574 133.915 298.278 135.375Z" fill="#908DFF"/>
<path d="M306.314 147.276C306.242 147.328 306.156 147.339 306.105 147.262L303.033 142.984C302.98 142.911 303 142.814 303.074 142.761L303.162 142.703C303.235 142.651 303.339 142.67 303.391 142.744L306.455 147.008C306.505 147.083 306.471 147.159 306.401 147.214L306.314 147.276Z" fill="#908DFF"/>
<path d="M271.395 135.333C271.017 135.368 268.325 136.936 267.417 138.113C266.512 139.29 265.49 140.456 265.515 142.42C265.538 144.386 267.619 149.279 267.69 149.919C267.76 150.555 268.61 154.703 268.61 154.703C268.61 154.703 270.383 155.36 270.956 155.276C271.53 155.188 271.712 154.856 271.712 154.856C271.712 154.856 272.177 157.422 272.219 157.638C272.26 157.854 278.478 158.79 279.54 158.33C280.602 157.871 282.549 157.142 282.549 157.142L281.812 155.391C281.812 155.391 280.893 154.393 281.436 152.55C281.976 150.709 281.423 150.867 281.397 149.532C281.372 148.197 280.516 145.523 280.113 145.273C279.712 145.023 271.395 135.333 271.395 135.333Z" fill="#F7931E"/>
<path d="M270.489 134.827C270.724 134.778 282.53 128.392 288.197 130.819C293.865 133.248 295.66 134.189 295.7 135.664C295.74 137.14 296.14 139.913 296.258 140.344C296.377 140.776 295.392 146.431 295.392 146.431L294.883 147.925C294.883 147.925 294.023 147.495 293.452 147.79C292.881 148.088 292.197 148.023 292.197 148.023C292.197 148.023 288.711 144.958 289.01 144.637C289.311 144.315 286.993 146.69 285.487 146.618C283.982 146.546 281.175 145.789 280.7 146.025C280.222 146.26 278.257 146.355 278.21 146.071C278.162 145.787 275.397 143.142 275.397 143.142C275.397 143.142 274.563 140.679 274.234 140.157C273.905 139.637 270.929 136.201 270.695 135.756C270.462 135.315 270.489 134.827 270.489 134.827Z" fill="#FFF599"/>
<path d="M154.045 169.64C154.045 169.64 152.996 168.422 153.228 166.986C153.457 165.552 153.778 164.819 154.659 164.567C155.539 164.315 156.733 164.201 156.976 164.325C157.221 164.45 160.19 165.626 160.869 165.86C161.544 166.096 163.398 167.321 163.435 167.885C163.477 168.45 163.581 168.631 163.811 169.183C164.042 169.734 164.39 172.223 164.39 172.223L159.911 172.716C159.911 172.716 159.96 170.969 159.629 170.849C159.298 170.731 154.926 170.285 154.627 170.117C154.336 169.951 154.045 169.64 154.045 169.64Z" fill="#996234"/>
<path d="M137.463 162.655C137.463 162.655 137.227 160.439 137.132 160.439C137.037 160.439 140.239 160.25 140.999 159.684C141.943 158.982 147.132 159.024 147.132 159.024L150.575 162.184L154.55 165.173C154.55 165.173 153.406 168.93 152.84 168.93C152.572 168.93 149.741 166.362 147.18 166.289C144.326 166.206 144.114 167.844 144.773 171.383C144.898 172.051 138.878 168.033 138.878 168.033C138.878 168.033 137.741 167.184 137.46 165.675C137.18 164.165 137.463 162.655 137.463 162.655Z" fill="#EF45B7"/>
<path d="M144.302 139.92C144.444 139.967 145.482 138.694 145.434 138.269C145.387 137.845 144.964 137.562 144.868 137.562C144.773 137.562 143.783 136.382 144.302 135.863C144.821 135.344 143.169 133.222 143.783 132.184C144.395 131.146 145.15 129.542 146.566 128.976C147.982 128.41 148.878 127.939 149.585 128.504C150.293 129.071 151.991 130.674 152.037 131.288C152.085 131.901 152.368 133.08 152.037 134.354C151.707 135.628 151.707 135.816 151.66 137.184C151.613 138.551 151 139.402 150.575 139.921C150.15 140.439 150.34 141.146 149.538 141.335C148.735 141.523 149.726 142.797 149.349 143.268C148.972 143.739 144.538 142.56 144.633 140.721C144.677 139.855 144.302 139.92 144.302 139.92Z" fill="#996234"/>
<path d="M144.444 138.08C144.444 138.08 143.642 138.08 143.735 137.42C143.829 136.759 144.002 135.627 143.727 135.344C143.451 135.061 142.603 134.542 142.886 133.74C143.169 132.937 143.499 132.466 143.311 131.711C143.122 130.956 143.311 130.344 143.923 129.966C144.537 129.589 145.014 129.683 145.719 129.353C146.425 129.023 146.991 128.221 147.791 128.079C148.592 127.937 149.537 127.371 150.197 128.079C150.858 128.787 151.329 128.787 151.518 129.258C151.706 129.73 151.471 129.212 151.753 130.343C152.035 131.476 152.602 131.711 152.224 132.325C151.847 132.937 151.517 131.805 151.187 131.759C150.856 131.712 151.045 131.193 150.149 131.759C149.253 132.325 149.582 132.136 148.262 131.853C146.942 131.57 146.232 130.815 145.832 132.183C145.431 133.552 145.662 133.315 145.832 134.401C145.997 135.486 145.832 135.957 145.832 135.957C145.832 135.957 145.76 135.438 145.243 135.533C144.724 135.628 144.63 135.721 144.677 136.288C144.724 136.853 145.008 137.514 144.913 137.703C144.819 137.892 144.444 138.08 144.444 138.08Z" fill="#301705"/>
<path d="M150.953 148.834C150.953 148.834 154.067 153.929 154.869 154.4C155.671 154.872 157.321 155.816 157.935 155.956C158.547 156.098 162.416 156.711 164.067 156.616C165.717 156.522 166 156.025 166.614 156.628C167.227 157.231 167.51 157.654 167.746 157.182C167.981 156.711 167.84 156.616 167.746 155.909C167.652 155.2 167.746 154.823 168.407 154.729C169.066 154.638 170.078 155.39 169.805 154.541C169.539 153.691 169.632 153.314 168.546 153.409C167.461 153.503 167.272 154.305 166.518 154.399C165.763 154.492 165.432 154.493 164.111 154.305C162.79 154.116 159.063 151.898 158.261 151.852C157.46 151.805 157.412 151.192 156.894 150.673C156.375 150.155 154.299 147.607 154.299 147.607" fill="#996234"/>
<path d="M137.133 151.43C137.321 148.788 138.265 144.591 139.868 142.75C141.472 140.911 141.943 140.958 143.123 140.44C144.302 139.921 144.915 140.063 144.915 140.063C144.915 140.063 144.977 141.949 145.937 142.28C146.896 142.61 149.16 143.223 149.302 142.846C149.444 142.468 149.113 142.229 149.396 141.899C149.679 141.571 150.151 140.676 150.482 140.865C150.812 141.053 152.463 141.714 152.651 142.563C152.84 143.413 153.029 144.544 153.501 145.204C153.972 145.864 154.255 146.902 154.255 146.902C154.255 146.902 154.397 147.28 154.538 147.704C154.679 148.127 153.311 148.081 152.416 149.825C151.519 151.57 150.529 148.835 150.529 148.835C150.529 148.835 151.615 148.127 150.623 149.637C150.623 149.637 149.114 151.948 149.02 152.278C148.925 152.609 148.548 153.458 148.596 154.308C148.643 155.157 149.115 156.052 149.02 156.949C148.924 157.846 149.039 158.647 147.92 159.07C146.804 159.495 145.578 159.401 144.208 159.542C142.841 159.685 141.153 159.61 140.529 160.156C139.904 160.702 139.303 160.25 138.548 160.439C137.793 160.628 137.747 161.099 137.133 160.439C136.52 159.779 137.494 157.703 137.337 157.232C137.182 156.76 136.771 155.722 136.929 154.165C137.086 152.609 137.133 151.43 137.133 151.43Z" fill="#8BC7E8"/>
<path d="M142.584 154.612C142.584 154.612 143.584 157.897 144.146 158.525C144.707 159.15 145.604 160.599 146.079 161.162C146.558 161.724 150.78 166.054 151.285 166.431C151.795 166.805 154.244 168.959 154.244 168.959L157.714 168.56C157.714 168.56 155.416 166.099 154.286 164.896C153.155 163.693 149.415 159.063 149.204 158.643C148.99 158.222 147.773 156.957 147.447 156.373C147.117 155.789 147.064 154.582 146.791 153.481C146.52 152.38 146.05 150.954 146.05 150.954C146.05 150.954 141.691 150.433 141.556 151.462C141.419 152.491 142.584 154.612 142.584 154.612Z" fill="#996234"/>
<path d="M144.868 171.335C144.868 171.335 143.909 170.045 144.238 168.63C144.569 167.214 144.943 166.508 145.839 166.319C146.735 166.13 147.932 166.099 148.17 166.24C148.406 166.382 151.283 167.766 151.944 168.049C152.604 168.332 154.362 169.684 154.362 170.25C154.362 170.816 154.456 171.005 154.646 171.57C154.835 172.137 155.07 173.74 155.07 173.74L150.54 174.22C150.54 174.22 150.68 173.08 150.355 172.938C150.032 172.796 145.7 172.041 145.418 171.853C145.135 171.665 144.868 171.335 144.868 171.335Z" fill="#996234"/>
<path d="M104.462 166.719C104.462 166.719 104.971 168.5 104.641 170.693C104.311 172.886 104.241 174.763 105.046 175.451C105.852 176.14 105.054 177.5 105.835 177.678C106.342 177.794 114.348 176.738 114.999 176.914C115.65 177.091 117.771 176.583 118.102 176.774C118.432 176.966 121.2 176.536 121.632 176.615C122.065 176.694 121.812 175.844 122.233 175.667C122.653 175.489 123.423 173.524 123.423 173.524L123.386 172.704L122.232 170.898L121.626 169.271L121.072 168.947C121.072 168.947 120.739 168.7 120.502 168.182C120.264 167.664 120.125 166.971 119.993 166.415C119.861 165.859 119.77 164.96 119.322 165.164C118.873 165.368 104.462 166.719 104.462 166.719Z" fill="#32417F"/>
<path d="M97.7473 154.235C97.7473 154.235 97.2045 162.008 97.2949 162.217C97.3868 162.426 97.129 164.018 96.6724 166.243C96.2154 168.47 96.3199 174.108 96.3673 174.65C96.416 175.192 96.2271 176.337 96.2402 176.483C96.2534 176.628 95.6871 177.223 95.2591 177.736C94.8312 178.248 95.2943 178.132 95.2943 178.132C95.2943 178.132 95.8596 178.339 96.2299 178.413C96.6016 178.489 97.8691 178.413 98.2835 178.557C98.697 178.703 101.175 178.301 101.356 178.283C101.537 178.269 101.872 177.946 101.837 177.55C101.801 177.15 101.302 176.867 101.302 176.867L99.7221 176.316C99.7221 176.316 99.6809 175.445 99.6246 175.232C99.5688 175.018 100.833 171.225 100.904 169.981C100.974 168.735 101.137 168.101 100.997 167.349C100.856 166.596 100.895 164.589 100.918 164.441C100.942 164.294 101.366 161.704 101.637 161.062C101.906 160.418 101.328 155.989 101.348 155.806L97.7473 154.235Z" fill="#FFCBA1"/>
<path d="M122.438 152.499C122.438 152.499 125.044 158.823 125.286 159.093C125.529 159.362 126.77 162.239 127.061 162.651C127.353 163.06 130.641 174.171 130.764 174.306C130.885 174.441 131.677 174.734 131.863 174.79C132.049 174.846 132.216 175.888 132.216 175.888L129.614 176.122L127.51 176.309C127.51 176.309 127.192 176.339 126.722 176.379C126.253 176.421 125.987 176.3 125.902 176.169C125.817 176.039 126.113 175.27 126.283 175.142C126.454 175.019 126.938 174.72 127.211 174.514C127.484 174.309 127.192 173.896 127.101 173.286C127.011 172.674 126.317 171.023 125.911 170.15C125.505 169.28 123.964 166.315 123.929 165.92C123.893 165.519 123.056 163.082 122.8 162.668C122.544 162.253 122.8 162.668 122.35 162.124C121.901 161.582 118.891 155.62 118.891 155.62L122.167 153.141L122.438 152.499Z" fill="#FFCBA1"/>
<path d="M123.675 152.896C123.692 153.075 123.026 153.791 122.71 153.929C122.396 154.066 120.873 154.967 120.636 155.171C120.399 155.375 119.507 156.402 119.494 156.658C119.481 156.914 119.387 158.307 119.4 158.451C119.412 158.596 120.16 161.664 120.331 161.938C120.501 162.212 120.614 165.52 120.587 166.03C120.56 166.543 120.737 170.112 119.791 170.123C118.845 170.135 115.168 170.573 114.396 170.497C113.624 170.42 109.385 171.492 108.885 171.609C108.386 171.727 104.825 171.425 104.284 170.673C103.742 169.921 102.955 164 102.952 163.564C102.949 163.127 102.407 158.694 102.407 158.694C102.407 158.694 102.094 156.427 101.946 156.403C101.798 156.38 100.045 156.318 98.8947 156.094C97.7453 155.869 97.0919 155.49 97.0919 155.49C97.0919 155.49 96.9292 154.486 96.9855 154.299C97.0412 154.111 98.0552 148.738 98.4114 147.432C98.7677 146.125 104.333 144.387 104.649 144.25C104.965 144.113 111.534 143.015 111.97 143.012C112.407 143.01 116.429 144.399 117.254 144.652C118.079 144.906 120.731 145.653 121.748 147.238C122.764 148.823 123.54 152.616 123.659 152.715C123.66 152.715 123.659 152.716 123.675 152.896Z" fill="#FFFEF8"/>
<path d="M111.998 143.337C111.998 143.337 111.81 144.074 111.494 144.653C109.363 145.898 108.696 145.011 107.334 144.841C105.97 144.672 106.074 143.066 106.139 142.586C106.204 142.107 105.836 137.585 105.835 136.748C105.833 135.911 106.888 131.006 110.865 131.889C114.842 132.773 113.87 137.377 113.87 137.377C113.043 142.807 111.998 143.337 111.998 143.337Z" fill="#FFCBA1"/>
<path d="M107.982 142.596C107.982 142.596 105.958 142.861 105.424 140.547C104.891 138.233 105.329 138.428 105.218 135.967C105.107 133.507 102.533 132.964 106.174 131.951C109.815 130.936 112.506 129.635 113.02 131.112C113.534 132.59 114.07 133.212 113.872 133.754C113.674 134.298 114.052 135.147 114.013 135.678C113.974 136.209 113.32 137.746 113.32 137.746C113.32 137.746 111.81 138.243 111.796 138.566C111.782 138.888 111.255 139.621 111.297 140.283C111.339 140.944 112.178 141.071 111.355 141.562C110.531 142.054 109.821 142.518 109.821 142.518L107.982 142.596Z" fill="#9E5A2D"/>
<path opacity="0.6" d="M-126.317 200.974H477.45L478.191 390.15H-125.576L-126.317 200.974Z" fill="#33EFFF"/>
<path d="M477.87 345.461C449.282 350.63 431.689 349.345 411.297 349.274C393.145 349.248 386.181 346.319 354.307 343.901C334.619 343.306 319.155 343.201 298.301 344.262C283.122 345.034 248.215 346.847 232.53 344.404C192.8 336.786 127.153 337.962 93.0513 343.234C58.9483 348.507 73.6751 339.988 51.9724 340.801C30.2711 341.603 33.7587 344.857 22.9075 342.011C12.0574 339.171 7.30756 330.554 -1.9376 332.191C-2.98479 332.817 -1.73839 337.852 -24.9556 325.682C-33.0935 321.415 -42.4657 321.531 -48.2571 321.436C-54.012 321.342 -66.8375 324.379 -74.2006 318.7C-82.691 313.715 -107.278 331.088 -115.804 335.948C-124.33 340.828 -128.579 337.97 -128.579 337.97L-127.258 392.48L478.194 393.234L477.87 345.461Z" fill="#D8BD80"/>
<path d="M65.0656 76.8484C78.1407 76.8484 88.7402 66.2489 88.7402 53.1737C88.7402 40.0985 78.1407 29.499 65.0656 29.499C51.9904 29.499 41.3909 40.0985 41.3909 53.1737C41.3909 66.2489 51.9904 76.8484 65.0656 76.8484Z" fill="#2BA03C"/>
<path d="M59.5252 66.1562V58.0362C59.5252 53.6362 59.4452 49.8362 59.2852 46.2762L59.4052 46.2362C60.7252 49.3962 62.4852 52.8762 64.0852 55.7562L69.8452 66.1562H76.2452V39.1962H70.6452V47.0762C70.6452 51.1162 70.7652 54.7562 71.1652 58.3162H71.0452C69.8452 55.2762 68.2452 51.9162 66.6452 49.0762L61.0452 39.1962H53.9252V66.1562H59.5252Z" fill="white"/>
<rect x="315.775" y="15.2949" width="45.0996" height="25" rx="12.5" fill="#969696" fill-opacity="0.3"/>
<path d="M326.313 32.9209H320.079V32.292L323.49 28.4229C324.055 27.7712 324.447 27.2334 324.666 26.8096C324.884 26.3857 324.994 25.9733 324.994 25.5723C324.994 24.9434 324.809 24.4466 324.44 24.082C324.071 23.7129 323.563 23.5283 322.916 23.5283C322.246 23.5283 321.703 23.7425 321.289 24.1709C320.878 24.5993 320.673 25.1553 320.673 25.8389H319.86C319.86 25.2783 319.985 24.7679 320.236 24.3076C320.491 23.8473 320.851 23.4873 321.316 23.2275C321.785 22.9632 322.319 22.8311 322.916 22.8311C323.827 22.8311 324.538 23.0703 325.048 23.5488C325.563 24.0273 325.821 24.679 325.821 25.5039C325.821 25.9688 325.675 26.4769 325.383 27.0283C325.096 27.5798 324.588 28.2679 323.859 29.0928L321.083 32.2305H326.313V32.9209ZM331.652 32.9209H330.832V23.9521L328.125 24.957V24.1914L331.515 22.9336H331.652V32.9209ZM335.624 33.7754H334.878L339.035 22.9678H339.773L335.624 33.7754ZM347.409 32.9209H341.174V32.292L344.585 28.4229C345.151 27.7712 345.542 27.2334 345.761 26.8096C345.98 26.3857 346.089 25.9733 346.089 25.5723C346.089 24.9434 345.905 24.4466 345.536 24.082C345.167 23.7129 344.658 23.5283 344.011 23.5283C343.341 23.5283 342.799 23.7425 342.384 24.1709C341.974 24.5993 341.769 25.1553 341.769 25.8389H340.956C340.956 25.2783 341.081 24.7679 341.332 24.3076C341.587 23.8473 341.947 23.4873 342.412 23.2275C342.881 22.9632 343.414 22.8311 344.011 22.8311C344.923 22.8311 345.634 23.0703 346.144 23.5488C346.659 24.0273 346.917 24.679 346.917 25.5039C346.917 25.9688 346.771 26.4769 346.479 27.0283C346.192 27.5798 345.684 28.2679 344.955 29.0928L342.179 32.2305H347.409V32.9209ZM353.964 29.7148H355.516V30.4053H353.964V32.9209H353.144V30.4053H348.461V29.9404L353.069 22.9678H353.964V29.7148ZM349.466 29.7148H353.144V24.0273L352.782 24.6562L349.466 29.7148Z" fill="black"/>
</g>
<defs>
<linearGradient id="paint0_linear" x1="175.937" y1="390.15" x2="175.937" y2="-212.985" gradientUnits="userSpaceOnUse">
<stop offset="0.1444" stop-color="white"/>
<stop offset="1" stop-color="#4FC3F7"/>
</linearGradient>
<clipPath id="clip0">
<rect width="375" height="375" fill="white" transform="translate(0.775146 0.294922)"/>
</clipPath>
</defs>
</svg>
