<svg width="376" height="376" viewBox="0 0 376 376" fill="none" xmlns="http://www.w3.org/2000/svg">
<path d="M122.362 85.494V70.3473C122.747 70.0424 122.992 69.5928 122.992 69.1266V67.4096C122.992 66.9039 122.703 66.4577 122.261 66.1849C122.05 65.6525 121.532 65.2754 120.925 65.2754H117.29C116.682 65.2754 116.165 65.6525 115.954 66.1849C115.512 66.4575 115.223 66.9039 115.223 67.4096V69.1266C115.223 69.5928 115.468 70.0424 115.853 70.3473V85.5043C111.925 86.8602 109.103 90.5871 109.103 94.9757C109.102 95.2239 109.132 130.375 109.132 130.375C109.132 131.767 110.26 132.895 111.652 132.895H126.562C127.954 132.895 129.082 131.767 129.082 130.375C129.082 130.375 129.142 95.3438 129.142 94.9755C129.142 90.5758 126.305 86.8411 122.362 85.494Z" fill="black"/>
<path d="M90.8569 119.393L99.859 106.015H81.6226L90.8569 119.393Z" fill="black" stroke="black" stroke-width="8" stroke-miterlimit="10" stroke-linejoin="round"/>
<path d="M90.8887 119.665L104.355 100.345H77.0024L90.8887 119.665Z" stroke="black" stroke-width="8" stroke-miterlimit="10" stroke-linejoin="round"/>
<path d="M83.7227 131.215H97.5827" stroke="black" stroke-width="10" stroke-miterlimit="10" stroke-linecap="round" stroke-linejoin="round"/>
<path d="M90.8623 117.354V131.214" stroke="black" stroke-width="12" stroke-miterlimit="10" stroke-linejoin="round"/>
<path d="M105.713 45.3008C75.195 45.3008 50.4556 70.0403 50.4556 100.558C50.4556 131.076 75.195 155.815 105.713 155.815C136.23 155.815 160.97 131.076 160.97 100.558C160.97 70.0403 136.23 45.3008 105.713 45.3008ZM150.77 100.558C150.77 109.37 148.237 117.59 143.864 124.534L75.9158 66.7634C83.858 59.7553 94.2876 55.5007 105.713 55.5007C130.597 55.5007 150.77 75.6735 150.77 100.558ZM60.6555 100.558C60.6555 91.4124 63.3827 82.9053 68.0647 75.8001L136.201 133.73C128.178 141.108 117.472 145.615 105.712 145.615C80.8283 145.615 60.6555 125.442 60.6555 100.558Z" fill="#F90606"/>
<path d="M55.3594 269.866C58.1425 266.15 62.6644 279.327 69.2162 272.603C75.768 265.879 83.1816 278.983 88.6992 272.431C94.2163 265.879 101.975 276.914 107.665 271.741C113.354 266.569 120.078 277.845 125.596 272.379C131.113 266.914 137.837 278.535 144.217 272.379C150.596 266.224 155.247 276.742 159.73 271.966" stroke="black" stroke-width="3" stroke-miterlimit="10"/>
<path d="M57.0396 283.103C64.6258 275.689 71.6948 289.827 78.2464 283.103C84.7982 276.379 92.2118 289.483 97.7294 282.931C103.246 276.379 111.005 287.414 116.695 282.241C122.385 277.069 129.108 288.345 134.626 282.879C140.143 277.414 146.867 289.035 153.247 282.879" stroke="black" stroke-width="3" stroke-miterlimit="10"/>
<path d="M86.885 306.409C85.6897 306.409 84.6567 305.605 84.3734 304.454C84.3736 304.456 78.5465 280.973 78.5056 280.807C77.7624 277.792 78.8743 274.657 81.2854 272.816L79.0079 263.576C78.6146 263.245 78.5003 262.781 78.4315 262.501L78.1488 261.354C78.0178 260.822 78.1282 260.274 78.4441 259.841C78.6215 259.217 79.1047 258.736 79.7322 258.582L82.1613 257.983C82.2997 257.949 82.4404 257.932 82.5785 257.932C83.0638 257.932 83.5082 258.136 83.8526 258.514C84.3106 258.746 84.6313 259.166 84.7684 259.723L85.0511 260.87C85.1202 261.149 85.2348 261.614 85.0404 262.089L87.3159 271.321C90.3441 271.826 92.8112 274.083 93.5542 277.098C93.6149 277.344 99.3529 300.763 99.3529 300.763C99.5171 301.43 99.4119 302.122 99.0562 302.71C98.7004 303.299 98.1368 303.713 97.4692 303.878L87.5051 306.334C87.3023 306.384 87.0935 306.409 86.885 306.409Z" fill="black"/>
<path d="M82.5794 258.772C82.8889 258.772 83.148 258.944 83.3345 259.206C83.6747 259.315 83.8704 259.586 83.9538 259.924L84.2365 261.071C84.3135 261.383 84.3877 261.683 84.1441 261.959L86.6391 272.081C89.502 272.331 92.0151 274.359 92.7396 277.299C92.8001 277.545 98.5379 300.963 98.5379 300.963C98.7672 301.893 98.199 302.833 97.2691 303.062L87.305 305.518C87.1649 305.552 87.0242 305.569 86.8856 305.569C86.1036 305.569 85.3841 305.043 85.1897 304.253C85.1897 304.253 79.3626 280.771 79.3216 280.605C78.5988 277.673 79.8212 274.73 82.2389 273.173L79.7425 263.044C79.3985 262.912 79.3246 262.612 79.2479 262.3L78.965 261.153C78.8819 260.815 78.9707 260.475 79.2215 260.22C79.2746 259.829 79.5278 259.497 79.9334 259.397L82.3631 258.798C82.4374 258.78 82.5096 258.772 82.5794 258.772ZM82.5794 257.092C82.3733 257.092 82.165 257.117 81.9607 257.168L79.5314 257.767C78.6557 257.982 77.9709 258.626 77.6811 259.469C77.2848 260.08 77.1546 260.828 77.3338 261.555L77.6166 262.703C77.6822 262.969 77.8203 263.531 78.2496 264.008L80.3433 272.503C77.9701 274.577 76.9125 277.853 77.6903 281.008C77.7313 281.174 83.3211 303.7 83.559 304.658C83.9343 306.183 85.3026 307.249 86.8856 307.249C87.1618 307.249 87.4383 307.216 87.7071 307.149L97.671 304.694C98.5566 304.475 99.3038 303.926 99.7756 303.145C100.248 302.364 100.387 301.447 100.169 300.561C99.9352 299.608 94.4307 277.142 94.3709 276.898C93.5924 273.739 91.1083 271.33 88.0051 270.603L85.914 262.119C86.0725 261.497 85.9337 260.935 85.8678 260.668L85.5853 259.522C85.4032 258.783 84.971 258.192 84.3683 257.839C83.8784 257.359 83.248 257.092 82.5794 257.092Z" fill="white"/>
<path d="M75.0643 305L66.7168 293.586L72.8784 292.943C72.8784 292.943 79.7922 295.701 80.2845 295.677C80.7767 295.652 86.5093 292.932 86.5093 292.932H92.6692L98.1219 295.213L102.361 295.684L103.029 303.187L75.0643 305Z" fill="white" stroke="white" stroke-width="5" stroke-miterlimit="10"/>
<path d="M63.1294 293.813C70.7156 286.399 77.7847 300.537 84.3362 293.813C90.888 287.089 98.3017 300.193 103.819 293.641C109.337 287.089 117.095 298.123 122.785 292.951C128.474 287.779 135.198 299.055 140.716 293.589" stroke="black" stroke-width="3" stroke-miterlimit="10"/>
<path d="M72.1592 304.103C79.7454 296.689 86.8145 310.827 93.366 304.103C99.9176 297.378 107.331 310.482 112.849 303.931C118.366 297.379 126.125 308.413 131.814 303.241C137.504 298.069 138.602 308.372 144.119 302.906" stroke="black" stroke-width="3" stroke-miterlimit="10"/>
<path d="M138.301 236.117C138.834 235.471 139.214 236.494 139.861 237.026L140.565 235.642C141.211 236.174 141.269 237.673 140.736 238.319L128.99 252.08C128.458 252.726 127.503 252.819 126.856 252.286C126.21 251.754 126.35 250.983 126.883 250.336L138.301 236.117Z" fill="black"/>
<path d="M135.019 235.075C135.592 234.501 137.046 234.265 137.62 234.839C138.195 235.412 138.55 236.745 137.977 237.32L123.531 251.04C122.958 251.614 122.027 251.615 121.452 251.042C120.878 250.468 120.877 249.538 121.449 248.963L135.019 235.075Z" fill="black"/>
<path d="M131.729 233.028C132.338 232.492 133.478 233.11 134.014 233.719C134.551 234.329 134.949 235.517 134.34 236.053L118.909 248.978C118.3 249.515 117.371 249.456 116.835 248.846C116.298 248.237 116.357 247.308 116.966 246.772L131.729 233.028Z" fill="black"/>
<path d="M131.257 229.12C131.9 228.623 133.305 229.18 133.801 229.822C134.297 230.465 134.179 231.388 133.537 231.884L117.751 244.084C117.108 244.58 116.186 244.462 115.689 243.82C115.193 243.177 115.311 242.254 115.954 241.758L131.257 229.12Z" fill="black"/>
<path d="M135.303 228.963C135.131 228.002 134.788 226.37 133.483 226.605L124.113 228.101C122.809 228.336 121.892 229.305 122.065 230.267C122.237 231.228 123.435 231.818 124.739 231.583L134.11 230.087C135.414 229.852 135.476 229.924 135.303 228.963Z" fill="black"/>
<path d="M127.753 232.192C125.749 234.2 125.752 237.453 127.761 239.458L131.636 243.324C133.644 245.329 134.563 245.466 136.568 243.458L141.65 238.001C143.654 235.993 143.774 233.758 141.765 231.754L139.627 227.565C137.618 225.561 134.365 225.565 132.361 227.573L127.753 232.192Z" fill="black"/>
<path d="M108.52 252.534L112.525 245.167L106.368 241.82L102.363 249.187L108.52 252.534Z" fill="black"/>
<path d="M118.906 255.747L117.516 252.546L113.015 254.5L114.405 257.701L118.906 255.747Z" fill="black"/>
<path d="M117.824 262.779L119.857 263.771L122.01 259.362L119.977 258.369L117.824 262.779Z" fill="black"/>
<path d="M107.939 210.062C77.4211 210.062 52.6816 234.802 52.6816 265.32C52.6816 295.837 77.4211 320.577 107.939 320.577C138.456 320.577 163.196 295.837 163.196 265.32C163.196 234.802 138.456 210.062 107.939 210.062ZM152.995 265.32C152.995 274.132 150.463 282.351 146.09 289.296L78.1418 231.525C86.084 224.517 96.5135 220.262 107.939 220.262C132.823 220.262 152.995 240.435 152.995 265.32ZM62.8815 265.32C62.8815 256.174 65.6088 247.667 70.2908 240.562L138.427 298.491C130.404 305.87 119.698 310.377 107.938 310.377C83.0544 310.377 62.8815 290.204 62.8815 265.32Z" fill="#F90606"/>
<path d="M278.143 78.8096L274.362 81.5396C277.427 87.2056 279.167 93.6929 279.167 100.587C279.167 107.614 277.357 114.218 274.181 119.962L277.993 122.632C281.687 116.126 283.797 108.603 283.797 100.587C283.797 92.6801 281.743 85.2545 278.143 78.8096Z" fill="black"/>
<path d="M286.611 69.4092L282.204 72.6323C287.961 80.4655 291.364 90.136 291.364 100.603C291.364 111.202 287.877 120.987 281.986 128.872L286.457 132.007C292.97 123.234 296.824 112.368 296.824 100.603C296.824 88.9304 293.03 78.1458 286.611 69.4092Z" fill="black"/>
<path d="M246.713 90.2641H246.603H232.323C230.931 90.2641 229.803 91.3924 229.803 92.7841V108.534C229.803 109.926 230.931 111.054 232.323 111.054H246.198L268.023 126.367V74.8379L246.713 90.2641Z" fill="black"/>
<path d="M265.023 45.3008C234.505 45.3008 209.766 70.0403 209.766 100.558C209.766 131.076 234.505 155.815 265.023 155.815C295.54 155.815 320.28 131.076 320.28 100.558C320.28 70.0403 295.54 45.3008 265.023 45.3008ZM310.08 100.558C310.08 109.37 307.547 117.59 303.174 124.534L235.226 66.7634C243.168 59.7553 253.598 55.5007 265.023 55.5007C289.907 55.5007 310.08 75.6735 310.08 100.558ZM219.966 100.558C219.966 91.4124 222.693 82.9053 227.375 75.8001L295.511 133.73C287.488 141.108 276.782 145.615 265.023 145.615C240.138 145.615 219.966 125.442 219.966 100.558Z" fill="#F90606"/>
<path d="M306.682 269.458C307.045 270.446 306.539 271.543 305.55 271.906L263.997 287.193C263.008 287.556 261.912 287.05 261.549 286.062L259.385 280.181C259.022 279.192 259.528 278.096 260.517 277.733L302.07 262.446C303.059 262.082 304.155 262.589 304.518 263.577L306.682 269.458Z" fill="black"/>
<path d="M260.429 287.275C260.649 287.874 260.342 288.538 259.744 288.758C259.145 288.979 258.481 288.672 258.261 288.073L255.578 280.781C255.358 280.182 255.665 279.518 256.263 279.298C256.862 279.078 257.526 279.384 257.746 279.983L260.429 287.275Z" fill="black"/>
<path d="M256.893 288.653C257.113 289.251 256.807 289.915 256.208 290.135C255.609 290.356 254.945 290.049 254.725 289.45L252.042 282.158C251.822 281.559 252.129 280.895 252.728 280.675C253.326 280.455 253.99 280.762 254.211 281.36L256.893 288.653Z" fill="black"/>
<path d="M253.323 289.912C253.544 290.511 253.237 291.175 252.638 291.395C252.039 291.615 251.375 291.308 251.155 290.71L248.473 283.417C248.253 282.819 248.559 282.155 249.158 281.935C249.757 281.714 250.42 282.021 250.641 282.62L253.323 289.912Z" fill="black"/>
<path d="M250.39 279.697C248.581 274.307 241.931 257.142 257.294 253.284C257.294 253.284 248.52 238.955 257.844 233.681" stroke="black" stroke-width="5" stroke-miterlimit="10" stroke-linecap="round"/>
<path d="M257.166 276.946C255.416 271.333 252.838 265.872 259.071 263.568C265.303 261.264 276.202 258.958 268.396 247.607C275.973 244.699 276.408 228.653 264.226 227.076" stroke="black" stroke-width="5" stroke-miterlimit="10" stroke-linecap="round"/>
<path d="M271.978 209.777C241.46 209.777 216.721 234.517 216.721 265.034C216.721 295.552 241.46 320.292 271.978 320.292C302.495 320.292 327.235 295.552 327.235 265.034C327.235 234.517 302.495 209.777 271.978 209.777ZM317.035 265.034C317.035 273.847 314.502 282.066 310.13 289.01L242.181 231.24C250.123 224.232 260.553 219.977 271.978 219.977C296.862 219.977 317.035 240.15 317.035 265.034ZM226.921 265.034C226.921 255.889 229.648 247.382 234.33 240.277L302.466 298.206C294.443 305.585 283.737 310.091 271.978 310.091C247.093 310.091 226.921 289.919 226.921 265.034Z" fill="#F90606"/>
<rect x="315.775" y="15.2949" width="48.5987" height="28.1532" rx="14.0766" fill="#969696" fill-opacity="0.3"/>
<path d="M326.574 33.5039H320.34V32.875L323.751 29.0059C324.316 28.3542 324.708 27.8164 324.927 27.3926C325.146 26.9688 325.255 26.5563 325.255 26.1553C325.255 25.5264 325.07 25.0296 324.701 24.665C324.332 24.2959 323.824 24.1113 323.177 24.1113C322.507 24.1113 321.965 24.3255 321.55 24.7539C321.14 25.1823 320.935 25.7383 320.935 26.4219H320.121C320.121 25.8613 320.246 25.3509 320.497 24.8906C320.752 24.4303 321.112 24.0703 321.577 23.8105C322.047 23.5462 322.58 23.4141 323.177 23.4141C324.088 23.4141 324.799 23.6533 325.31 24.1318C325.825 24.6104 326.082 25.262 326.082 26.0869C326.082 26.5518 325.936 27.0599 325.645 27.6113C325.357 28.1628 324.849 28.8509 324.12 29.6758L321.345 32.8135H326.574V33.5039ZM333.13 30.2979H334.682V30.9883H333.13V33.5039H332.31V30.9883H327.627V30.5234L332.234 23.5508H333.13V30.2979ZM328.632 30.2979H332.31V24.6104L331.947 25.2393L328.632 30.2979ZM335.885 34.3584H335.14L339.296 23.5508H340.034L335.885 34.3584ZM347.67 33.5039H341.436V32.875L344.847 29.0059C345.412 28.3542 345.804 27.8164 346.022 27.3926C346.241 26.9688 346.351 26.5563 346.351 26.1553C346.351 25.5264 346.166 25.0296 345.797 24.665C345.428 24.2959 344.92 24.1113 344.272 24.1113C343.603 24.1113 343.06 24.3255 342.646 24.7539C342.235 25.1823 342.03 25.7383 342.03 26.4219H341.217C341.217 25.8613 341.342 25.3509 341.593 24.8906C341.848 24.4303 342.208 24.0703 342.673 23.8105C343.142 23.5462 343.675 23.4141 344.272 23.4141C345.184 23.4141 345.895 23.6533 346.405 24.1318C346.92 24.6104 347.178 25.262 347.178 26.0869C347.178 26.5518 347.032 27.0599 346.74 27.6113C346.453 28.1628 345.945 28.8509 345.216 29.6758L342.44 32.8135H347.67V33.5039ZM354.226 30.2979H355.777V30.9883H354.226V33.5039H353.405V30.9883H348.723V30.5234L353.33 23.5508H354.226V30.2979ZM349.728 30.2979H353.405V24.6104L353.043 25.2393L349.728 30.2979Z" fill="black"/>
</svg>
