<svg width="376" height="376" viewBox="0 0 376 376" fill="none" xmlns="http://www.w3.org/2000/svg">
<g clip-path="url(#clip0)">
<path d="M-37.6624 161.2V69.8381L87.1714 -269.01C87.1714 -269.01 345.051 -377.768 362.243 -374.044C380.532 -370.08 517.83 -285.485 527.35 -229.835C538.333 -232.764 543.413 -221.049 547.805 -208.6L640.823 618.575L268.192 675.465L-37.6624 161.2Z" fill="#C4C4C4"/>
<path d="M267.963 675.466V230.749L-37.6624 69.8379V497.543L267.963 675.466Z" fill="#CECECE"/>
<path d="M267.854 230.75L366.159 -178.121L81.6795 -273.403L-54.0686 96.6569L267.854 230.75Z" fill="#C9C9C9"/>
<path d="M-26.9425 34.6676L47.4585 -3.99609L43.9436 -10.7598L-30.4573 27.9038L-26.9425 34.6676Z" fill="#999999"/>
<path d="M56.2317 79.0698L80.8849 -1.07812L73.5977 -3.31965L48.9445 76.8282L56.2317 79.0698Z" fill="#999999"/>
<path d="M129.964 -76.4764C173.912 -67.5204 161.22 46.766 108.111 36.0935C55.002 25.421 76.3479 -87.4034 129.964 -76.4764Z" fill="#3F3F3F" stroke="black" stroke-miterlimit="10"/>
<path d="M36.4526 1.53584C10.7876 -2.53009 20.698 -72.4104 48.65 -68.0899C76.6016 -63.7695 73.8069 -65.0412 92.6103 -61.9915C111.414 -58.9418 110.144 12.9705 82.1919 9.41319C54.2403 5.85491 36.4526 1.53584 36.4526 1.53584Z" fill="#191919" stroke="black" stroke-miterlimit="10"/>
<path d="M49.0944 -66.9464C77.046 -62.6264 66.4855 4.26752 38.533 0.709709C10.581 -2.84811 21.1424 -71.2664 49.0944 -66.9464Z" fill="#333333" stroke="black" stroke-miterlimit="10"/>
<path d="M62.3712 -197.939C-86.0275 -208.358 -115.427 102.035 6.97578 126.049C147.243 151.459 208.543 -167.988 62.3712 -197.939ZM109.636 -24.1292C106.587 40.1594 60.5933 80.8169 60.5933 80.8169C60.5933 80.8169 64.1501 70.6526 57.7981 69.8904C52.4619 72.6846 50.4284 69.1277 50.4284 69.1277C39.2483 68.1115 40.5181 103.433 19.6817 100.383C-21.2734 94.3891 -29.3608 56.6768 -28.3445 49.5621C-27.3287 42.4474 -16.2742 36.2219 -13.6066 33.5538C-10.9384 30.8857 -10.0487 28.4712 -13.6066 28.4712C-17.1644 28.4712 -17.1634 22.1187 -17.1634 22.1187C-16.6544 16.5288 -32.9181 24.9133 -32.9181 24.9133C-35.2051 24.1516 -37.4692 28.2508 -41.05 19.0694C-54.2575 -14.8024 -32.1559 -88.9263 -30.8847 -92.2296C-29.6144 -95.5329 -27.0733 -103.157 -16.6558 -96.041C-6.23734 -88.9259 -4.71202 -92.7387 -4.71202 -92.7387C-5.7278 -97.3128 -0.646088 -99.5988 -0.646088 -99.5988C0.115631 -104.428 -17.0256 -114.195 -13.3516 -122.723C10.535 -176.593 53.9872 -168.462 53.9872 -168.462C72.0289 -161.093 59.0698 -136.191 77.1102 -135.428C87.523 -134.989 85.7511 -151.691 85.7511 -151.691C120.311 -116.878 113.702 -40.6465 111.67 -38.1049C109.636 -35.5634 107.348 -28.9573 109.636 -24.1292Z" fill="#141414" stroke="black" stroke-miterlimit="10"/>
<path d="M175.567 103.298L171.504 102.151L170.769 104.272L158.62 106.74L153.141 123.219L164.613 136.256L181.562 132.815L187.039 116.335L175.567 103.298Z" fill="#0F0F0F"/>
<path d="M160.55 135.109L149.078 122.072L154.557 105.593L171.504 102.151L182.976 115.188L177.499 131.668L160.55 135.109Z" fill="#303030"/>
<path d="M155.277 113.594C154.821 114.532 154.525 115.469 154.525 116.619V116.618L154.281 116.68C154.146 117.279 153.935 117.698 153.873 118.311L150.822 136.351H150.818C150.179 139.164 151.299 143.266 153.919 145.173C156.559 147.094 159.762 146.733 161.659 144.401L173.226 132.674C173.677 132.286 174.17 131.542 174.567 131.067L174.662 130.726H174.659C175.333 129.789 175.725 129.464 176.181 128.526C178.791 123.152 177.591 116.357 173.898 111.792L171.261 117.271C172.068 119.157 172.005 121.278 171.152 123.035C170.297 124.793 168.75 125.815 167.098 125.916L164.14 131.907C163.288 133.487 161.447 133.94 159.971 132.864C158.494 131.79 157.647 129.495 158.358 127.855L161.324 121.841C160.514 119.959 160.588 117.854 161.455 116.067C162.323 114.28 163.852 113.253 165.594 113.217L168.308 107.865C163.299 106.01 157.898 108.197 155.277 113.594ZM158.402 136.103C159.919 137.207 160.485 139.47 159.665 141.157C158.846 142.845 156.951 143.316 155.435 142.213C153.918 141.109 153.353 138.846 154.172 137.159C154.991 135.472 156.885 135 158.402 136.103Z" fill="black"/>
<path d="M132.354 359.108C132.354 365.535 153.947 367.99 153.932 362.194C153.919 357.468 132.407 357.932 132.01 366.066C131.551 375.477 153.243 374.163 153.932 368.425C154.537 363.379 132.354 365.521 132.476 372.899" stroke="#FF0000" stroke-width="8" stroke-miterlimit="10" stroke-linecap="round"/>
<path d="M132.354 372.176C130.619 381.371 153.947 383.295 153.932 377.499C153.918 372.637 133.21 372.331 132.797 380.826C132.337 390.237 153.961 386.11 153.944 383.237C153.917 378.822 132.615 375.685 132.47 383.237" stroke="#FF0000" stroke-width="8" stroke-miterlimit="10" stroke-linecap="round"/>
<path d="M131.436 263.116C131.436 269.544 153.029 274.078 153.013 268.282C152.997 262.502 131.896 265.183 131.436 274.594C130.977 284.005 152.325 285.153 153.013 279.415C153.702 273.676 131.665 271.114 131.436 284.198" stroke="#FF0000" stroke-width="8" stroke-miterlimit="10" stroke-linecap="round"/>
<path d="M131.436 243.407C131.436 249.834 153.029 254.369 153.013 248.573C152.997 242.793 131.896 243.66 131.436 253.07C130.977 262.482 152.325 263.629 153.013 257.891C153.702 252.153 131.665 250.722 131.436 263.806" stroke="#FF0000" stroke-width="8" stroke-miterlimit="10" stroke-linecap="round"/>
<path d="M131.436 221.884C131.436 228.311 153.029 232.844 153.013 227.049C152.997 221.269 131.896 222.861 131.436 232.273C130.977 241.684 152.325 242.831 153.013 237.093C153.702 231.355 131.665 231.013 131.436 244.097" stroke="#FF0000" stroke-width="8" stroke-miterlimit="10" stroke-linecap="round"/>
<path d="M131.436 222.573C131.666 209.488 153.706 210.236 153.018 215.974C152.329 221.712 130.978 219.07 131.436 209.659C131.895 200.248 153.36 200.107 153.376 205.887C153.392 211.683 133.707 204.838 133.707 198.41C133.707 198.41 132.341 194.211 139.142 189.65C143.777 186.542 144.711 178.479 144.353 177.297C143.119 173.225 151.229 134.91 157.494 138.069C165.72 142.217 149.213 157.287 148.588 166.506C148.783 167.853 147.299 183.694 147.299 183.694" stroke="#FF0000" stroke-width="8" stroke-miterlimit="10" stroke-linecap="round"/>
<path d="M131.436 342.485C131.436 348.913 153.046 350.991 153.029 345.194C153.013 339.414 131.888 340.199 131.428 349.61C130.969 359.021 152.797 359.1 153.486 353.361C154.174 347.623 132.583 346.024 132.354 359.109" stroke="#FF0000" stroke-width="8" stroke-miterlimit="10" stroke-linecap="round"/>
<path d="M131.436 323.203C131.436 329.631 153.029 334.164 153.013 328.368C152.997 322.588 131.896 322.515 131.436 331.926C130.977 341.338 152.325 342.485 153.013 336.746C153.355 333.897 131.616 332.947 131.436 343.174" stroke="#FF0000" stroke-width="8" stroke-miterlimit="10" stroke-linecap="round"/>
<path d="M131.436 303.922C131.436 310.349 153.029 314.883 153.013 309.087C152.997 303.307 131.896 303.234 131.436 312.645C130.977 322.056 152.325 323.203 153.013 317.466C153.702 311.727 131.665 310.808 131.436 323.892" stroke="#FF0000" stroke-width="8" stroke-miterlimit="10" stroke-linecap="round"/>
<path d="M131.429 283.394C131.429 289.822 153.029 294.661 153.013 288.865C152.996 283.086 131.895 283.952 131.436 293.363C130.977 302.774 152.324 303.922 153.013 298.184C153.701 292.445 131.665 291.527 131.436 304.611" stroke="#FF0000" stroke-width="8" stroke-miterlimit="10" stroke-linecap="round"/>
<path d="M150.226 175.41C150.131 176.006 149.704 176.434 149.271 176.365L142.146 175.236C141.714 175.166 141.44 174.628 141.534 174.031L142.926 165.255C143.021 164.658 143.448 164.23 143.881 164.299L151.006 165.429C151.438 165.497 151.713 166.036 151.618 166.633L150.226 175.41Z" fill="#EAEAEA"/>
<path d="M167.65 113.635V113.631L167.719 113.599C167.593 113.548 167.553 113.494 167.422 113.451C167.349 113.427 167.314 113.413 167.24 113.392L161.894 111.545L160.624 115.888C160.139 116.533 159.747 117.272 159.478 118.093C159.158 119.07 159.056 120.057 159.126 121.002L158.013 124.781L162.859 126.44C162.976 126.487 163.09 126.537 163.212 126.577C163.285 126.602 163.36 126.616 163.434 126.637L163.527 126.668L163.529 126.662C166.688 127.494 169.923 125.442 171.069 121.935C172.196 118.491 170.931 114.896 167.65 113.635Z" fill="#C41A1A"/>
<path d="M166.036 120.141C167.221 116.516 165.552 112.717 162.306 111.656C159.061 110.595 155.471 112.674 154.287 116.298C153.102 119.923 154.77 123.721 158.015 124.782C161.261 125.843 164.851 123.765 166.036 120.141Z" fill="#E81C1C"/>
<path d="M250.744 125.374L250.747 125.369L250.639 125.319C250.162 125.075 249.673 124.849 249.17 124.643L244.425 122.456L244.017 123.315C234.748 122.254 225.444 128.003 221.931 137.651C218.938 145.873 220.989 154.629 226.475 160.224L225.969 161.288L231.281 163.805C231.781 164.069 232.296 164.316 232.828 164.539L232.86 164.554L232.861 164.551C233.132 164.664 233.404 164.774 233.682 164.876C244.246 168.721 256.112 162.767 260.185 151.577C263.949 141.236 259.739 130.049 250.744 125.374Z" fill="#212121"/>
<path d="M255.613 149.465C259.687 138.274 254.426 126.084 243.862 122.238C233.297 118.392 221.43 124.346 217.356 135.537C213.282 146.728 218.544 158.918 229.108 162.764C239.673 166.61 251.539 160.655 255.613 149.465Z" fill="#3D3D3D"/>
<path d="M239.639 139.363L222.325 133.523L219.904 140.281L237.217 146.121L239.639 139.363Z" fill="#898989"/>
<path d="M222.822 120.466C222.822 120.466 222.141 120.469 220.211 119.778C215.927 118.244 215.078 121.081 215.078 121.081L206.717 144.992C205.256 149.17 207.381 150.7 212.019 152.34C213.035 152.698 213.631 137.025 213.631 137.025C218.144 124.123 222.822 120.466 222.822 120.466Z" fill="#E8E8E8"/>
<path d="M231.18 137.16C231.483 136.162 232.273 136.452 233.291 129.692C234.31 122.932 231.008 122.779 231.008 122.779C231.008 122.779 222.52 120.873 220.606 120.147C218.689 119.421 217.801 122.33 217.801 122.33L209.438 146.242C207.978 150.42 210.024 151.4 210.024 151.4C210.024 151.4 214.906 153.92 219.584 155.443C224.262 156.966 226.01 151.056 226.01 151.056C226.01 151.056 230.76 138.538 231.18 137.16ZM218.322 139.218C216.819 139.812 215.567 138.737 215.526 136.818C215.486 134.899 216.672 132.863 218.175 132.27C219.678 131.677 220.931 132.752 220.971 134.67C221.012 136.589 219.826 138.625 218.322 139.218Z" fill="#C9C9C9"/>
<path d="M220.064 135.163C219.808 136.964 218.458 138.552 217.049 138.709C216.379 138.784 215.821 138.351 215.606 137.546C215.921 139.165 217.052 139.503 218.045 139.404C220.071 139.203 221.111 137.465 221.395 135.463C221.678 133.462 220.238 131.85 218.609 132.157C218.544 132.169 218.481 132.178 218.415 132.19C219.572 132.327 220.293 133.557 220.064 135.163Z" fill="#E8E8E8"/>
<path d="M233.573 129.286C234.592 122.526 231.002 122.513 231.002 122.513C231.002 122.513 222.515 120.607 220.599 119.88C218.684 119.154 217.796 122.064 217.796 122.064L209.434 145.976C207.974 150.153 209.55 151.454 209.55 151.454C209.55 151.454 214.782 154.24 219.461 155.763C224.138 157.286 226.427 150.724 226.427 150.724C226.427 150.724 232.555 136.047 233.573 129.286ZM226.112 149.332C226.112 149.332 224.053 155.237 219.844 153.867C215.635 152.496 210.927 149.989 210.927 149.989C210.927 149.989 209.509 148.818 210.822 145.059L218.347 123.543C218.347 123.543 219.147 120.924 220.87 121.578C222.594 122.232 230.23 123.947 230.23 123.947C230.23 123.947 233.46 123.959 232.545 130.042C231.629 136.125 226.112 149.332 226.112 149.332Z" fill="#707070"/>
<rect x="315.775" y="15.4141" width="45.0996" height="25" rx="12.5" fill="#969696" fill-opacity="0.3"/>
<path d="M323.886 33.04H323.066V24.0713L320.359 25.0762V24.3105L323.75 23.0527H323.886V33.04ZM333.709 25.6504C333.709 26.1654 333.559 26.6279 333.258 27.0381C332.958 27.4437 332.561 27.7422 332.069 27.9336C332.643 28.1296 333.103 28.4463 333.45 28.8838C333.796 29.3213 333.969 29.8271 333.969 30.4014C333.969 31.2536 333.68 31.9303 333.101 32.4316C332.522 32.9284 331.757 33.1768 330.804 33.1768C329.843 33.1768 329.072 32.9284 328.494 32.4316C327.919 31.9349 327.632 31.2581 327.632 30.4014C327.632 29.8363 327.799 29.3327 328.131 28.8906C328.464 28.4486 328.92 28.1296 329.499 27.9336C329.006 27.7422 328.614 27.4437 328.323 27.0381C328.031 26.6279 327.885 26.1654 327.885 25.6504C327.885 24.8255 328.15 24.1693 328.678 23.6816C329.211 23.194 329.916 22.9502 330.791 22.9502C331.666 22.9502 332.37 23.1963 332.903 23.6885C333.441 24.1807 333.709 24.8346 333.709 25.6504ZM333.149 30.4082C333.149 29.7884 332.928 29.2803 332.486 28.8838C332.044 28.4827 331.479 28.2822 330.791 28.2822C330.102 28.2822 329.54 28.4782 329.102 28.8701C328.665 29.262 328.446 29.7747 328.446 30.4082C328.446 31.0417 328.658 31.5475 329.082 31.9258C329.505 32.2995 330.08 32.4863 330.804 32.4863C331.511 32.4863 332.078 32.2995 332.506 31.9258C332.935 31.5521 333.149 31.0462 333.149 30.4082ZM332.889 25.6436C332.889 25.0739 332.691 24.5999 332.294 24.2217C331.903 23.8389 331.401 23.6475 330.791 23.6475C330.171 23.6475 329.667 23.832 329.28 24.2012C328.897 24.5658 328.706 25.0465 328.706 25.6436C328.706 26.2269 328.897 26.6963 329.28 27.0518C329.667 27.4072 330.173 27.585 330.797 27.585C331.413 27.585 331.914 27.4072 332.301 27.0518C332.693 26.6917 332.889 26.2223 332.889 25.6436ZM335.624 33.8945H334.878L339.035 23.0869H339.773L335.624 33.8945ZM347.409 33.04H341.174V32.4111L344.585 28.542C345.151 27.8903 345.542 27.3525 345.761 26.9287C345.98 26.5049 346.089 26.0924 346.089 25.6914C346.089 25.0625 345.905 24.5658 345.536 24.2012C345.167 23.832 344.658 23.6475 344.011 23.6475C343.341 23.6475 342.799 23.8617 342.384 24.29C341.974 24.7184 341.769 25.2744 341.769 25.958H340.956C340.956 25.3975 341.081 24.887 341.332 24.4268C341.587 23.9665 341.947 23.6064 342.412 23.3467C342.881 23.0824 343.414 22.9502 344.011 22.9502C344.923 22.9502 345.634 23.1895 346.144 23.668C346.659 24.1465 346.917 24.7982 346.917 25.623C346.917 26.0879 346.771 26.596 346.479 27.1475C346.192 27.6989 345.684 28.387 344.955 29.2119L342.179 32.3496H347.409V33.04ZM353.964 29.834H355.516V30.5244H353.964V33.04H353.144V30.5244H348.461V30.0596L353.069 23.0869H353.964V29.834ZM349.466 29.834H353.144V24.1465L352.782 24.7754L349.466 29.834Z" fill="black"/>
</g>
<defs>
<clipPath id="clip0">
<rect width="375" height="375" fill="white" transform="translate(0.775146 0.414062)"/>
</clipPath>
</defs>
</svg>
