<svg width="376" height="376" viewBox="0 0 376 376" fill="none" xmlns="http://www.w3.org/2000/svg">
<g clip-path="url(#clip0)">
<path d="M-3.63745 -14.0986H390.86L389.327 376.618H-2.2598L-3.63745 -14.0986Z" fill="url(#paint0_linear)"/>
<path d="M-2.62267 172.196L395.698 171.749L394.768 398.91H-4.03735L-2.62267 172.196Z" fill="#8BF6FF"/>
<path d="M69.3408 630.12H306.698L311.077 446.079C311.077 446.079 332.977 293.527 187.62 241.16C47.0401 291.451 62.9682 442.251 62.9682 442.251L69.3408 630.12Z" fill="#EDEDED"/>
<path d="M186.794 281.004C186.794 281.004 289.574 278.429 293.155 411.772C296.739 545.117 282.554 559.285 282.554 559.285H91.6421L82.7002 518.791V404.152C82.7002 404.149 88.8863 285.055 186.794 281.004Z" fill="#F4F4F4"/>
<path d="M188.019 280.183C108.593 279.202 83.4422 345.297 77.064 407.73L79.6913 511.165L83.6766 585.826L145.403 595.156L155.362 587.446L221.47 587.642C221.47 587.642 229.828 594.122 231.823 594.122C243.04 594.122 292.366 585.307 292.366 585.307C292.366 585.307 294.129 534.616 294.952 511.804C294.98 511.03 299.49 409.015 299.425 407.73C296.039 345.421 274.385 281.254 188.019 280.183ZM291.362 509.61C291.761 511.297 281.207 580.381 281.207 580.381C281.207 580.381 239.948 585.354 229.358 585.354C227.475 585.354 219.587 579.159 219.587 579.159L157.173 578.976L147.774 586.345L92.836 580.384L83.6766 509.695C82.3519 448.343 84.1983 447.479 83.6766 407.731C90.9362 346.826 119.523 282.126 189.078 283.295C258.198 284.458 286.211 347.526 292.366 407.731C292.316 410.063 290.564 508.573 291.362 509.61Z" fill="#E8E8E8"/>
<path d="M292.367 407.73C292.367 407.73 240.195 407.99 228.644 371.954C217.097 335.921 210.329 286.406 209.529 285.368C208.732 284.333 286.788 296.776 292.367 407.73Z" fill="#E8CDA0"/>
<path d="M83.6768 407.73C83.6768 407.73 135.848 407.99 147.397 371.954C158.946 335.921 165.718 286.406 166.512 285.368C167.307 284.333 89.2521 296.776 83.6768 407.73Z" fill="#E8CDA0"/>
<path d="M149.508 314.109C149.497 314.232 150.913 312.09 150.913 312.09C154.431 308.22 162.296 297.822 162.296 297.822L187.802 297.724L215.957 297.852C215.957 297.852 223.819 308.294 227.34 312.161C227.34 312.161 228.438 314.223 228.43 314.102C228.43 294.533 223.059 283.339 209.408 283.339H169.46C155.025 283.96 149.341 294.853 149.508 314.109Z" fill="#29ABE2"/>
<path d="M228.588 316.987C228.588 305.417 219.851 296.076 209.36 296.076H168.201C157.711 296.076 149.369 305.418 149.369 316.987V410.018C149.369 421.587 157.711 431.076 168.202 431.076H209.361C219.852 431.076 228.589 421.587 228.589 410.018L228.588 316.987Z" fill="#D3D3D3"/>
<path d="M164.132 314.828C167.041 314.828 169.4 312.469 169.4 309.56C169.4 306.651 167.041 304.293 164.132 304.293C161.223 304.293 158.865 306.651 158.865 309.56C158.865 312.469 161.223 314.828 164.132 314.828Z" fill="#F4F4F4"/>
<path d="M179.206 314.828C182.115 314.828 184.473 312.469 184.473 309.56C184.473 306.651 182.115 304.293 179.206 304.293C176.297 304.293 173.939 306.651 173.939 309.56C173.939 312.469 176.297 314.828 179.206 314.828Z" fill="#F4F4F4"/>
<path d="M160.739 310.977C160.536 310.977 160.392 311.116 160.392 311.319C160.392 311.52 160.544 311.649 160.733 311.649C160.91 311.649 161.079 311.537 161.079 311.307C161.079 311.118 160.949 310.977 160.739 310.977ZM160.735 311.128C160.819 311.128 160.862 311.225 160.862 311.311C160.862 311.421 160.817 311.498 160.737 311.498C160.658 311.498 160.611 311.415 160.611 311.315C160.611 311.234 160.644 311.128 160.735 311.128ZM161.439 313.899C161.378 313.923 161.275 313.944 161.181 313.944C160.904 313.944 160.741 313.771 160.741 313.496C160.741 313.191 160.933 313.042 161.179 313.042C161.289 313.042 161.376 313.067 161.439 313.093L161.502 312.847C161.447 312.819 161.325 312.786 161.165 312.786C160.75 312.786 160.416 313.046 160.416 313.514C160.416 313.905 160.66 314.2 161.134 314.2C161.301 314.2 161.429 314.17 161.486 314.141L161.439 313.899Z" fill="black"/>
<path d="M162.207 309.918V309.603H162.365V309.371H162.207V308.595H161.828L161.328 309.401V309.603H161.914V309.918H162.207ZM161.616 309.371V309.367L161.793 309.078C161.838 308.994 161.873 308.917 161.916 308.831H161.924C161.918 308.917 161.914 308.998 161.914 309.078V309.371H161.616ZM161.85 310.573C161.509 310.573 161.346 310.876 161.346 311.259C161.348 311.633 161.498 311.94 161.84 311.94C162.178 311.94 162.343 311.66 162.343 311.251C162.343 310.888 162.204 310.573 161.85 310.573ZM161.846 310.807C161.97 310.807 162.034 310.962 162.034 311.255C162.034 311.556 161.968 311.706 161.848 311.706C161.728 311.706 161.655 311.562 161.657 311.259C161.655 310.952 161.732 310.807 161.846 310.807Z" fill="black"/>
<path d="M163.647 309.015C163.954 309.015 164.155 308.854 164.155 308.614C164.155 308.443 164.041 308.333 163.913 308.284V308.278C164.043 308.213 164.104 308.101 164.104 307.987C164.104 307.826 163.976 307.647 163.667 307.647C163.402 307.647 163.201 307.796 163.201 308.02C163.201 308.136 163.264 308.243 163.392 308.309V308.315C163.248 308.378 163.156 308.488 163.156 308.646C163.156 308.825 163.311 309.015 163.647 309.015ZM163.659 308.801C163.543 308.801 163.47 308.711 163.472 308.616C163.472 308.52 163.531 308.447 163.632 308.418C163.754 308.451 163.84 308.52 163.84 308.636C163.84 308.73 163.769 308.801 163.659 308.801ZM163.653 307.857C163.767 307.857 163.813 307.938 163.813 308.02C163.813 308.103 163.75 308.168 163.679 308.189C163.573 308.156 163.492 308.099 163.492 308.009C163.492 307.926 163.547 307.857 163.653 307.857ZM163.661 309.647C163.319 309.647 163.156 309.95 163.156 310.333C163.158 310.707 163.309 311.015 163.651 311.015C163.988 311.015 164.153 310.734 164.153 310.325C164.153 309.963 164.015 309.647 163.661 309.647ZM163.657 309.881C163.781 309.881 163.844 310.036 163.844 310.329C163.844 310.63 163.779 310.781 163.659 310.781C163.539 310.781 163.465 310.636 163.467 310.333C163.465 310.026 163.543 309.881 163.657 309.881Z" fill="black"/>
<path d="M165.011 309.089H165.31V307.766H165.054L164.704 307.929L164.755 308.161L165.007 308.041H165.011V309.089ZM165.1 309.744C164.759 309.744 164.596 310.047 164.596 310.43C164.598 310.804 164.748 311.111 165.09 311.111C165.428 311.111 165.593 310.83 165.593 310.422C165.593 310.059 165.454 309.744 165.1 309.744ZM165.096 309.978C165.22 309.978 165.284 310.133 165.284 310.426C165.284 310.727 165.218 310.877 165.098 310.877C164.978 310.877 164.905 310.733 164.907 310.43C164.905 310.122 164.982 309.978 165.096 309.978ZM165.1 311.744C164.759 311.744 164.596 312.047 164.596 312.43C164.598 312.804 164.748 313.111 165.09 313.111C165.428 313.111 165.593 312.83 165.593 312.422C165.593 312.059 165.454 311.744 165.1 311.744ZM165.096 311.978C165.22 311.978 165.284 312.133 165.284 312.426C165.284 312.727 165.218 312.877 165.098 312.877C164.978 312.877 164.905 312.733 164.907 312.43C164.905 312.122 164.982 311.978 165.096 311.978Z" fill="black"/>
<path d="M166.088 310.015H166.387V308.692H166.131L165.781 308.855L165.831 309.087L166.084 308.967H166.088V310.015ZM166.631 312.015V311.76H166.133V311.756L166.255 311.655C166.446 311.484 166.607 311.307 166.607 311.085C166.607 310.845 166.442 310.67 166.143 310.67C165.964 310.67 165.809 310.731 165.709 310.806L165.797 311.028C165.866 310.975 165.966 310.918 166.08 310.918C166.232 310.918 166.297 311.003 166.297 311.111C166.293 311.266 166.153 311.414 165.864 311.673L165.693 311.827V312.015H166.631ZM166.177 312.67C165.836 312.67 165.673 312.973 165.673 313.355C165.675 313.73 165.825 314.037 166.167 314.037C166.505 314.037 166.67 313.756 166.67 313.347C166.67 312.985 166.531 312.67 166.177 312.67ZM166.173 312.904C166.297 312.904 166.36 313.058 166.36 313.351C166.36 313.652 166.295 313.803 166.175 313.803C166.055 313.803 165.982 313.659 165.984 313.355C165.982 313.048 166.059 312.904 166.173 312.904Z" fill="black"/>
<path d="M163.579 305.976L163.263 306.016L163.38 306.936L163.695 306.896L163.579 305.976Z" fill="black"/>
<path d="M166.054 306.322L165.761 306.2L165.405 307.057L165.699 307.179L166.054 306.322Z" fill="black"/>
<path d="M167.756 307.558L167.535 307.33L166.87 307.976L167.09 308.203L167.756 307.558Z" fill="black"/>
<path d="M161.64 306.56L161.371 306.729L161.865 307.515L162.134 307.345L161.64 306.56Z" fill="black"/>
<path d="M160.662 307.344L160.44 307.573L161.108 308.217L161.329 307.988L160.662 307.344Z" fill="black"/>
<path d="M164.724 305.986L164.539 305.971L164.479 306.71L164.664 306.725L164.724 305.986Z" fill="black"/>
<path d="M162.348 306.244L162.176 306.314L162.457 307.001L162.629 306.93L162.348 306.244Z" fill="black"/>
<path d="M167.067 306.915L166.918 306.804L166.475 307.397L166.623 307.508L167.067 306.915Z" fill="black"/>
<path d="M164.132 303.627C160.836 303.627 158.163 306.298 158.163 309.596C158.163 312.892 160.836 315.565 164.132 315.565C167.43 315.565 170.102 312.892 170.102 309.596C170.102 306.299 167.429 303.627 164.132 303.627ZM164.132 314.418C161.469 314.418 159.311 312.26 159.311 309.597C159.311 306.934 161.469 304.775 164.132 304.775C166.795 304.775 168.954 306.934 168.954 309.597C168.954 312.259 166.795 314.418 164.132 314.418Z" fill="#1E1E1E"/>
<path d="M164.132 303.627C160.836 303.627 158.163 306.298 158.163 309.596C158.163 312.892 160.836 315.565 164.132 315.565C167.43 315.565 170.102 312.892 170.102 309.596C170.102 306.299 167.429 303.627 164.132 303.627ZM164.132 315.142C161.07 315.142 158.587 312.659 158.587 309.597C158.587 306.534 161.07 304.051 164.132 304.051C167.195 304.051 169.678 306.534 169.678 309.597C169.678 312.659 167.195 315.142 164.132 315.142Z" fill="#3D3D3D"/>
<path d="M163.935 309.991L164.039 306.361L164.249 306.36C164.249 306.36 164.326 309.982 164.331 309.991L163.935 309.991Z" fill="#EA2424"/>
<path d="M164.132 312.034C164.737 312.034 165.227 311.544 165.227 310.939C165.227 310.334 164.737 309.844 164.132 309.844C163.528 309.844 163.037 310.334 163.037 310.939C163.037 311.544 163.528 312.034 164.132 312.034Z" fill="#1E1E1E"/>
<path d="M179.141 306.045H178.853V307.335H179.141V306.045Z" fill="#232323"/>
<path d="M182.876 307.899L182.687 307.671L181.69 308.494L181.879 308.722L182.876 307.899Z" fill="#232323"/>
<path d="M176.122 308.698L176.311 308.47L175.314 307.647L175.125 307.875L176.122 308.698Z" fill="#232323"/>
<path d="M177.185 307.409L177.383 307.317L176.983 306.455L176.785 306.547L177.185 307.409Z" fill="#232323"/>
<path d="M181.179 306.564L180.981 306.473L180.583 307.336L180.781 307.427L181.179 306.564Z" fill="#232323"/>
<path d="M175.563 312.32H175.881V311.757H176.384V311.499H175.881V311.179H176.419V310.92H175.563V312.32ZM175.561 312.92V313.701C175.561 314.148 175.769 314.343 176.122 314.343C176.488 314.343 176.706 314.137 176.706 313.705V312.92H176.39V313.726C176.39 313.973 176.299 314.09 176.133 314.09C175.97 314.09 175.879 313.967 175.879 313.726V312.92H175.561ZM176.396 315.47H175.881V315.179H176.428V314.92H175.563V316.32H176.457V316.061H175.881V315.728H176.396V315.47ZM176.673 316.32H177.548V316.054H176.991V314.92H176.673V316.32Z" fill="#232323"/>
<path d="M177.203 309.657H176.665V309.353H177.235V309.082H176.333V310.544H177.266V310.273H176.665V309.926H177.203V309.657Z" fill="#232323"/>
<path d="M181.415 310.544H181.747V309.956H182.272V309.687H181.747V309.353H182.309V309.082H181.415V310.544Z" fill="#232323"/>
<path d="M179.101 309.343L179.663 307.437H179.398L178.835 309.343H179.101Z" fill="#232323"/>
<path d="M178.943 308.328H179.133V307.485H178.97L178.747 307.589L178.779 307.737L178.94 307.66H178.943V308.328Z" fill="#1E1E1E"/>
<path d="M179.835 308.695V308.533H179.517V308.531L179.595 308.466C179.717 308.357 179.819 308.244 179.819 308.103C179.819 307.95 179.714 307.838 179.523 307.838C179.409 307.838 179.311 307.877 179.247 307.925L179.303 308.066C179.347 308.033 179.411 307.996 179.483 307.996C179.581 307.996 179.622 308.051 179.622 308.119C179.619 308.218 179.53 308.313 179.346 308.477L179.237 308.576V308.695H179.835Z" fill="#232323"/>
<path d="M182.201 310.632C182.186 310.621 182.07 310.515 182.03 310.534C181.989 310.552 182.1 310.64 182.121 310.662C182.141 310.685 182.156 310.662 182.141 310.781C182.126 310.901 182.163 311.084 182.181 311.121C182.2 311.158 182.278 311.34 182.111 311.32C181.945 311.3 182.004 311.195 181.998 311.006C181.992 310.861 181.903 310.829 181.836 310.822V310.495H181.258V311.385H181.169V311.43H181.926V311.385H181.836V310.89C181.882 310.903 181.923 310.928 181.937 310.955C181.974 311.021 181.91 311.089 181.935 311.234C181.961 311.379 182.124 311.411 182.228 311.354C182.333 311.296 182.244 311.104 182.225 311.049C182.207 310.995 182.2 310.845 182.21 310.819C182.22 310.792 182.284 310.788 182.299 310.762C182.314 310.735 182.216 310.643 182.201 310.632ZM181.791 310.829H181.301V310.541H181.791V310.829Z" fill="black"/>
<path d="M178.987 303.529C175.637 303.529 172.92 306.246 172.92 309.596C172.92 312.946 175.637 315.663 178.987 315.663C182.338 315.663 185.054 312.946 185.054 309.596C185.054 306.246 182.338 303.529 178.987 303.529ZM178.987 314.498C176.281 314.498 174.087 312.303 174.087 309.597C174.087 306.892 176.281 304.697 178.987 304.697C181.694 304.697 183.888 306.892 183.888 309.597C183.887 312.303 181.693 314.498 178.987 314.498Z" fill="#1E1E1E"/>
<path d="M178.987 303.529C175.637 303.529 172.92 306.246 172.92 309.596C172.92 312.946 175.637 315.663 178.987 315.663C182.338 315.663 185.054 312.946 185.054 309.596C185.054 306.246 182.338 303.529 178.987 303.529ZM178.987 315.234C175.874 315.234 173.351 312.71 173.351 309.597C173.351 306.484 175.875 303.962 178.987 303.962C182.101 303.962 184.624 306.485 184.624 309.597C184.624 312.71 182.1 315.234 178.987 315.234Z" fill="#3D3D3D"/>
<path d="M179.182 310.637C179.192 310.632 181.948 308.189 181.948 308.189L182.093 308.348L179.455 310.931L179.182 310.637Z" fill="#EA2424"/>
<path d="M178.987 312.075C179.602 312.075 180.1 311.577 180.1 310.962C180.1 310.347 179.602 309.849 178.987 309.849C178.372 309.849 177.874 310.347 177.874 310.962C177.874 311.577 178.372 312.075 178.987 312.075Z" fill="#1E1E1E"/>
<path d="M190.545 331.403H188.782V365.332H190.545V331.403Z" fill="#969696"/>
<path d="M173.648 338.899L172.819 340.405L204.322 357.735L205.15 356.229L173.648 338.899Z" fill="#969696"/>
<path d="M172.616 357.628L173.501 359.103L204.321 340.596L203.435 339.121L172.616 357.628Z" fill="#969696"/>
<path d="M189.385 319.389C173.157 319.389 160.001 332.543 160.001 348.772C160.001 365 173.156 378.156 189.385 378.156C205.614 378.156 218.768 365.002 218.768 348.772C218.768 332.543 205.613 319.389 189.385 319.389ZM189.385 374.042C175.429 374.042 164.114 362.728 164.114 348.772C164.114 334.816 175.429 323.502 189.385 323.502C203.34 323.502 214.655 334.816 214.655 348.772C214.655 362.728 203.341 374.042 189.385 374.042Z" fill="black" stroke="black" stroke-miterlimit="10"/>
<path d="M184.298 324.015C184.42 323.998 187.878 323.602 187.936 326.407C187.993 329.212 188.003 331.188 188.003 331.188C188.003 331.188 187.873 333.264 189.208 333.263C189.336 333.263 190.306 333.264 190.415 333.264C191.525 333.264 191.558 332.229 191.548 331.148C191.538 329.975 191.609 326.452 191.609 326.452C191.609 326.452 191.862 324.049 194.503 324.049C197.212 324.049 193.937 323.102 193.937 323.102L185.416 323.154L184.298 324.015Z" fill="black" stroke="black" stroke-miterlimit="10"/>
<path d="M165.252 341.325C165.299 341.211 166.609 338.047 169.066 339.4C171.525 340.752 173.24 341.733 173.24 341.733C173.24 341.733 174.973 342.884 175.639 341.726C175.704 341.615 176.19 340.776 176.244 340.681C176.799 339.719 175.919 339.173 174.978 338.641C173.957 338.064 170.942 336.241 170.942 336.241C170.942 336.241 168.627 334.805 170.099 332.613C171.603 330.373 169.204 332.549 169.204 332.549L164.99 339.956L165.252 341.325Z" fill="black" stroke="black" stroke-miterlimit="10"/>
<path d="M170.773 365.842C170.698 365.746 168.612 363.029 171.012 361.577C173.412 360.124 175.119 359.127 175.119 359.127C175.119 359.127 176.983 358.202 176.314 357.047C176.249 356.936 175.765 356.095 175.711 356.001C175.156 355.038 174.243 355.528 173.312 356.077C172.302 356.673 169.215 358.372 169.215 358.372C169.215 358.372 166.83 359.241 165.51 356.954C164.155 354.608 165.149 358.032 165.149 358.032L169.456 365.385L170.773 365.842Z" fill="black"/>
<path d="M195.51 373.276C195.388 373.294 191.992 373.741 191.935 370.936C191.878 368.131 191.868 366.156 191.868 366.156C191.868 366.156 191.998 364.079 190.663 364.081C190.536 364.081 189.566 364.079 189.457 364.079C188.347 364.079 188.314 365.114 188.323 366.195C188.333 367.368 188.262 370.892 188.262 370.892C188.262 370.892 187.75 373.577 185.049 373.562C182.339 373.547 185.935 374.243 185.935 374.243L194.456 374.189L195.51 373.276Z" fill="black" stroke="black" stroke-miterlimit="10"/>
<path d="M213.636 356.018C213.589 356.131 212.279 359.295 209.822 357.944C207.364 356.59 205.648 355.61 205.648 355.61C205.648 355.61 203.915 354.459 203.248 355.617C203.184 355.727 202.698 356.566 202.644 356.662C202.088 357.623 202.968 358.17 203.909 358.702C204.93 359.278 207.945 361.103 207.945 361.103C207.945 361.103 209.912 362.85 208.592 365.136C207.237 367.483 209.684 364.794 209.684 364.794L213.899 357.388L213.636 356.018Z" fill="black" stroke="black" stroke-miterlimit="10"/>
<path d="M207.623 331.254C207.698 331.35 209.784 334.067 207.383 335.52C204.983 336.972 203.276 337.969 203.276 337.969C201.081 339.059 202.504 340.78 202.081 340.05C202.017 339.939 202.63 341.001 202.684 341.096C203.24 342.057 204.153 341.568 205.083 341.019C206.093 340.424 209.18 338.724 209.18 338.724C209.18 338.724 211.797 337.955 213.118 340.241C214.473 342.587 213.246 339.062 213.246 339.062L208.939 331.71L207.623 331.254Z" fill="black" stroke="black" stroke-miterlimit="10"/>
<path d="M189.773 342.059C186.081 342.059 183.087 345.053 183.087 348.745C183.087 352.437 186.081 355.431 189.773 355.431C193.465 355.431 196.459 352.437 196.459 348.745C196.459 345.052 193.465 342.059 189.773 342.059ZM189.773 352.103C187.918 352.103 186.413 350.6 186.413 348.744C186.413 346.889 187.918 345.384 189.773 345.384C191.628 345.384 193.133 346.889 193.133 348.744C193.133 350.6 191.628 352.103 189.773 352.103Z" fill="#969696"/>
<path d="M189.814 352.212C191.933 352.212 193.651 350.495 193.651 348.375C193.651 346.256 191.933 344.538 189.814 344.538C187.695 344.538 185.977 346.256 185.977 348.375C185.977 350.495 187.695 352.212 189.814 352.212Z" fill="black"/>
<path d="M158.459 405.015C158.459 405.015 155.33 386.342 154.26 381.551C152.258 372.585 156.089 352.914 155.625 349.472C155.162 346.029 155.128 342.366 159.568 346.961C164.006 351.556 162.626 369.169 162.184 377.954C161.738 386.736 167.731 396.544 168.28 399.276C168.822 402.012 163.585 398.675 163.585 398.675L158.459 405.015Z" fill="#996234"/>
<path d="M219.221 426.958C219.221 426.958 224.118 406.834 224.54 401.944C225.322 392.792 218.9 373.809 218.9 370.335C218.9 366.86 218.451 363.227 214.661 368.373C210.874 373.519 214.591 390.789 216.203 399.438C217.821 408.081 210.041 417.731 209.866 420.512C209.692 423.296 217.591 420.16 217.591 420.16L219.221 426.958Z" fill="#996234"/>
<path d="M219.243 375.806C219.243 375.806 222.771 351.12 208.552 346.521C196.309 342.561 186.645 337.45 176.089 343.421C165.532 349.395 160.58 346.88 159.08 358.561C157.658 369.636 150.277 376.24 159.634 377.78C169.716 379.443 202.267 380.772 204.134 380.975C215.602 382.242 219.243 375.806 219.243 375.806Z" fill="#8BC7E8"/>
<path d="M180.833 309.096C180.833 309.096 180.525 322.646 180.769 339.031C180.934 350.046 189.177 351.124 193.925 347.254C200.048 342.264 195.607 324.402 196.277 320.865C196.947 317.326 180.833 309.096 180.833 309.096Z" fill="#996234"/>
<path d="M186.874 339.529C186.874 339.529 176.018 338.231 177.648 327.376C179.269 316.526 173.218 308.402 181.139 305.65C188.614 303.054 193.653 296.701 197.035 305.763C200.416 314.825 202.857 319.634 200.416 326.004C197.977 332.381 198.488 333.934 195.385 337.97C192.285 342.014 186.874 339.529 186.874 339.529Z" fill="#301705"/>
<path d="M235.619 374.814C235.619 375.976 234.968 376.701 234.355 376.701H229.542C228.928 376.701 228.588 375.975 228.588 374.814V352.734C228.588 351.571 228.93 350.451 229.542 350.451H234.355C234.969 350.451 235.619 351.572 235.619 352.734V374.814Z" fill="#5B5B5B"/>
<path d="M381.65 287.999C381.259 280.17 379.869 264.218 366.263 264.343C349.488 264.496 350.486 287.145 350.486 287.145C350.471 287.149 350.46 287.157 350.445 287.16C352.406 288.526 365.422 296.781 381.65 287.999Z" fill="#FFF988"/>
<path d="M381.656 288.105C381.655 288.07 381.652 288.034 381.65 287.999C365.422 296.781 352.406 288.526 350.445 287.16C348.129 287.849 349.565 291.636 349.565 291.636C349.565 291.636 351.369 294.208 352.712 295.781C364.958 301.501 377.409 297.236 379.429 296.626C381.464 296.012 381.611 292.897 381.886 292.596C384.299 289.946 381.656 288.105 381.656 288.105Z" fill="#F7EF89"/>
<path d="M322.502 246.647C322.238 241.372 321.301 230.625 312.136 230.709C300.834 230.813 301.507 246.071 301.507 246.071C301.497 246.074 301.489 246.079 301.479 246.082C302.8 247.002 311.568 252.563 322.502 246.647Z" fill="#FFF988"/>
<path d="M322.505 246.717C322.505 246.695 322.503 246.669 322.502 246.647C311.568 252.563 302.8 247.002 301.478 246.082C299.918 246.546 300.885 249.097 300.885 249.097C300.885 249.097 302.101 250.83 303.005 251.89C311.255 255.743 319.643 252.87 321.005 252.459C322.375 252.045 322.475 249.947 322.659 249.743C324.286 247.958 322.505 246.717 322.505 246.717Z" fill="#F7EF89"/>
<path d="M282.554 218.693C282.363 214.858 281.681 207.046 275.019 207.108C266.803 207.183 267.293 218.274 267.293 218.274C267.285 218.276 267.28 218.28 267.272 218.282C268.233 218.951 274.606 222.994 282.554 218.693Z" fill="#FFF988"/>
<path d="M282.557 218.744C282.556 218.728 282.555 218.71 282.554 218.693C274.606 222.994 268.233 218.951 267.271 218.282C266.137 218.619 266.84 220.474 266.84 220.474C266.84 220.474 267.724 221.734 268.382 222.504C274.379 225.305 280.477 223.217 281.466 222.918C282.463 222.616 282.535 221.091 282.669 220.944C283.851 219.646 282.557 218.744 282.557 218.744Z" fill="#F7EF89"/>
<path d="M256.082 199.237C255.943 196.435 255.445 190.725 250.575 190.77C244.57 190.825 244.928 198.931 244.928 198.931C244.922 198.932 244.918 198.935 244.913 198.937C245.616 199.426 250.274 202.38 256.082 199.237Z" fill="#FFF988"/>
<path d="M256.085 199.274C256.084 199.262 256.084 199.249 256.082 199.237C250.274 202.38 245.616 199.425 244.913 198.937C244.083 199.183 244.597 200.538 244.597 200.538C244.597 200.538 245.243 201.459 245.724 202.022C250.107 204.069 254.564 202.543 255.287 202.325C256.016 202.104 256.068 200.99 256.166 200.882C257.031 199.934 256.085 199.274 256.085 199.274Z" fill="#F7EF89"/>
<path d="M236.349 185.961C236.244 183.847 235.868 179.539 232.194 179.572C227.664 179.614 227.933 185.73 227.933 185.73C227.929 185.73 227.926 185.733 227.922 185.735C228.452 186.103 231.967 188.332 236.349 185.961Z" fill="#FFF988"/>
<path d="M236.351 185.989C236.35 185.98 236.35 185.97 236.349 185.961C231.967 188.332 228.452 186.103 227.922 185.734C227.296 185.92 227.684 186.943 227.684 186.943C227.684 186.943 228.171 187.637 228.534 188.063C231.841 189.607 235.203 188.455 235.749 188.29C236.299 188.125 236.339 187.284 236.412 187.202C237.064 186.486 236.351 185.989 236.351 185.989Z" fill="#F7EF89"/>
<path d="M223.595 176.788C223.512 175.12 223.215 171.722 220.318 171.749C216.744 171.782 216.957 176.606 216.957 176.606C216.953 176.606 216.952 176.608 216.948 176.61C217.366 176.9 220.139 178.658 223.595 176.788Z" fill="#FFF988"/>
<path d="M223.597 176.81C223.596 176.803 223.596 176.795 223.595 176.788C220.139 178.658 217.366 176.9 216.948 176.609C216.454 176.756 216.761 177.562 216.761 177.562C216.761 177.562 217.145 178.11 217.432 178.445C220.039 179.663 222.692 178.755 223.123 178.625C223.556 178.494 223.587 177.831 223.645 177.767C224.159 177.202 223.597 176.81 223.597 176.81Z" fill="#F7EF89"/>
<path d="M307.607 99.9014H293.662V142.558H307.607V99.9014Z" fill="#0C0C0C"/>
<path d="M332.651 137.789C324.325 123.382 316.011 108.972 307.693 94.5613C307.025 93.4068 306.375 92.2372 305.683 91.0968C304.167 88.6002 301.622 87.3979 298.97 87.9608C296.96 88.3874 295.575 89.6572 294.569 91.3991C288.52 101.881 282.468 112.361 276.417 122.841C273.482 127.925 270.537 133.004 267.617 138.097C265.732 141.384 266.602 145.08 269.64 146.826C270.833 147.514 272.134 147.728 273.493 147.727C282.376 147.72 291.258 147.725 300.141 147.725C301.756 147.725 303.371 147.725 304.986 147.725C312.393 147.722 319.799 147.735 327.207 147.716C330.705 147.707 333.285 145.629 333.747 142.485C333.997 140.788 333.498 139.253 332.651 137.789ZM304.041 100.094L302.877 127.965H297.703L296.604 100.094H304.041ZM300.323 140.381C298.037 140.381 296.184 138.528 296.184 136.242C296.184 133.956 298.037 132.103 300.323 132.103C302.608 132.103 304.461 133.956 304.461 136.242C304.461 138.528 302.609 140.381 300.323 140.381Z" fill="#070707"/>
<path d="M329.605 136.378C322.061 123.324 314.528 110.268 306.991 97.2095C306.386 96.1638 305.797 95.1039 305.17 94.0708C303.797 91.8086 301.49 90.7192 299.087 91.2292C297.267 91.6155 296.011 92.7663 295.1 94.3445C289.618 103.842 284.135 113.338 278.652 122.833C275.992 127.44 273.325 132.042 270.678 136.657C268.97 139.635 269.758 142.985 272.511 144.567C273.592 145.189 274.77 145.383 276.002 145.382C284.051 145.376 292.099 145.381 300.148 145.381C301.611 145.381 303.075 145.381 304.538 145.381C311.249 145.378 317.96 145.39 324.672 145.373C327.842 145.364 330.18 143.481 330.598 140.633C330.825 139.096 330.373 137.705 329.605 136.378ZM303.682 102.223L302.627 127.477H297.94L296.944 102.223H303.682ZM300.313 138.727C298.242 138.727 296.563 137.048 296.563 134.977C296.563 132.906 298.242 131.227 300.313 131.227C302.383 131.227 304.063 132.906 304.063 134.977C304.063 137.048 302.384 138.727 300.313 138.727Z" fill="#F9E132"/>
<rect x="315.775" y="15.2949" width="44.0746" height="25" rx="12.5" fill="#969696" fill-opacity="0.3"/>
<path d="M330.083 23.4395L325.831 32.9209H324.976L329.201 23.665H323.541V22.9678H330.083V23.4395ZM331.73 33.7754H330.985L335.141 22.9678H335.879L331.73 33.7754ZM343.515 32.9209H337.281V32.292L340.692 28.4229C341.257 27.7712 341.649 27.2334 341.868 26.8096C342.086 26.3857 342.196 25.9733 342.196 25.5723C342.196 24.9434 342.011 24.4466 341.642 24.082C341.273 23.7129 340.765 23.5283 340.118 23.5283C339.448 23.5283 338.905 23.7425 338.491 24.1709C338.081 24.5993 337.875 25.1553 337.875 25.8389H337.062C337.062 25.2783 337.187 24.7679 337.438 24.3076C337.693 23.8473 338.053 23.4873 338.518 23.2275C338.987 22.9632 339.521 22.8311 340.118 22.8311C341.029 22.8311 341.74 23.0703 342.25 23.5488C342.765 24.0273 343.023 24.679 343.023 25.5039C343.023 25.9688 342.877 26.4769 342.585 27.0283C342.298 27.5798 341.79 28.2679 341.061 29.0928L338.286 32.2305H343.515V32.9209ZM350.071 29.7148H351.623V30.4053H350.071V32.9209H349.25V30.4053H344.568V29.9404L349.175 22.9678H350.071V29.7148ZM345.573 29.7148H349.25V24.0273L348.888 24.6562L345.573 29.7148Z" fill="black"/>
</g>
<defs>
<linearGradient id="paint0_linear" x1="193.611" y1="376.618" x2="193.611" y2="-14.0986" gradientUnits="userSpaceOnUse">
<stop offset="0.4692" stop-color="white"/>
<stop offset="1" stop-color="#4FC3F7"/>
</linearGradient>
<clipPath id="clip0">
<rect width="375" height="375" fill="white" transform="translate(0.775391 0.294922)"/>
</clipPath>
</defs>
</svg>
