<svg width="376" height="376" viewBox="0 0 376 376" fill="none" xmlns="http://www.w3.org/2000/svg">
<g clip-path="url(#clip0)">
<path d="M-2.53754 -2.70801H376.707L377.172 376.14H-2.07254L-2.53754 -2.70801Z" fill="url(#paint0_linear)"/>
<path d="M356.676 329.718C356.815 329.84 357.29 329.664 357.363 329.626C357.412 329.599 357.432 329.552 357.433 329.49C357.436 329.378 357.376 329.225 357.313 329.094C357.245 328.901 355.927 321.314 355.139 316.784C354.787 314.76 354.507 313.161 354.462 312.907C354.394 312.539 354.273 312.303 354.1 312.207C353.96 312.131 353.845 312.174 353.841 312.176C353.343 312.273 353.346 312.432 353.396 312.702C353.406 312.749 353.414 312.798 353.421 312.854C353.461 313.19 355.408 326.547 355.491 327.115C355.532 327.303 355.605 327.816 355.481 327.992C355.339 328.194 354.67 328.416 354.342 328.49C352.793 328.846 351.677 328.953 351.562 328.759C351.526 328.698 351.483 328.474 351.883 327.705C352.108 327.267 352.392 326.829 352.474 326.725C352.49 326.704 354.065 324.566 353.997 324.084C353.99 324.039 353.97 324.003 353.939 323.981C353.64 323.768 353.03 324.068 352.319 324.414L352.135 324.505C351.551 324.788 350.924 325.155 350.674 325.303C350.744 324.932 350.94 323.878 350.957 323.715C350.959 323.701 350.962 323.676 350.963 323.649C350.966 323.541 350.953 323.359 350.84 323.237C350.771 323.16 350.674 323.122 350.556 323.121C350.331 323.123 349.987 323.42 349.625 323.733C349.564 323.789 349.502 323.84 349.445 323.89C349.434 323.868 349.427 323.851 349.416 323.83C349.197 323.354 348.899 322.704 348.574 322.609C348.492 322.583 348.412 322.598 348.338 322.646C347.997 322.867 348.116 323.86 348.713 325.767C349.162 327.197 350.109 329.234 350.118 329.254C350.323 329.694 350.957 330.363 351.661 330.404C352.335 330.445 356.242 329.771 356.663 329.699C356.668 329.708 356.672 329.713 356.676 329.718Z" fill="#727272"/>
<path d="M354.01 312.993C354.053 313.022 354.1 313.034 354.151 313.024C354.255 313.009 354.325 312.912 354.308 312.804C354.299 312.755 354.272 312.711 354.232 312.681C354.191 312.652 354.141 312.639 354.09 312.649C354.001 312.661 353.934 312.738 353.931 312.831C353.931 312.844 353.931 312.855 353.934 312.869C353.942 312.92 353.969 312.963 354.01 312.993Z" fill="#727272"/>
<path d="M351.846 330.128C352.477 330.166 356.181 329.534 356.77 329.434C356.741 329.369 356.728 329.294 356.734 329.227C356.744 329.148 356.785 329.083 356.848 329.049C356.937 329.002 357.083 328.954 357.188 328.922L357.163 328.909L354.768 314.141C354.638 313.401 354.551 312.899 354.526 312.766C354.45 312.356 354.32 312.203 354.224 312.149C354.134 312.097 354.058 312.122 354.047 312.124C353.63 312.207 353.646 312.29 353.688 312.518C353.698 312.567 353.705 312.62 353.711 312.677C353.721 312.752 353.836 313.545 354.004 314.718C354.383 314.95 354.463 315.461 354.465 315.483C354.552 315.962 356.575 327.212 355.996 328.228C355.842 328.499 354.97 328.689 354.873 328.71C354.791 328.73 352.838 329.199 352.107 329.211C351.04 329.228 350.516 327.884 350.409 327.363C350.32 326.922 350.658 325.309 350.659 325.241V325.24C350.661 325.182 350.972 323.726 350.991 323.54C351.004 323.416 351.016 323.247 350.93 323.154C350.881 323.103 350.816 323.074 350.73 323.075C350.548 323.077 350.191 323.388 349.874 323.659C349.66 323.844 349.458 324.019 349.294 324.119C349.075 324.254 348.936 324.292 348.857 324.243C348.808 324.211 348.8 324.156 348.803 324.13L348.917 324.145C348.918 324.146 348.973 324.179 349.234 324.021C349.319 323.97 349.418 323.893 349.524 323.805C349.511 323.776 349.497 323.749 349.483 323.717C349.298 323.313 348.989 322.638 348.715 322.56C348.666 322.544 348.622 322.551 348.575 322.581C348.382 322.708 348.297 323.33 348.998 325.574C349.274 326.452 349.739 327.563 350.058 328.288C350.02 327.067 350.53 324.586 350.708 323.708C350.741 323.544 350.768 323.418 350.769 323.397L350.829 323.401L350.885 323.391C350.886 323.394 350.887 323.396 350.887 323.401C350.887 323.421 350.878 323.472 350.824 323.731C350.626 324.697 350.025 327.628 350.207 328.617C350.323 328.878 350.396 329.037 350.399 329.044C350.567 329.401 351.162 330.087 351.846 330.128ZM353.943 313.088C353.876 313.038 353.832 312.967 353.82 312.887C353.791 312.717 353.908 312.562 354.072 312.535C354.153 312.521 354.234 312.541 354.3 312.588C354.368 312.636 354.411 312.705 354.423 312.786C354.426 312.807 354.428 312.828 354.427 312.845C354.424 312.991 354.317 313.115 354.171 313.139C354.09 313.152 354.009 313.135 353.943 313.088Z" fill="#727272"/>
<path d="M354.028 314.872C354.604 318.848 355.768 326.822 355.781 326.926C355.798 327 355.929 327.642 355.752 327.892C355.565 328.15 354.796 328.378 354.539 328.434C353.544 328.663 351.844 328.995 351.638 328.65C351.389 328.23 352.46 326.609 352.557 326.484C352.747 326.243 354.113 324.317 354.057 323.933C354.057 323.927 354.053 323.913 354.047 323.91C353.805 323.736 353.196 324.037 352.549 324.352L352.363 324.441C351.69 324.769 350.955 325.208 350.824 325.29C350.779 325.495 350.472 326.952 350.553 327.34C350.645 327.8 351.138 329.109 352.119 329.093C352.839 329.084 354.834 328.601 354.857 328.595C355.11 328.543 355.792 328.36 355.901 328.17C356.46 327.19 354.378 315.619 354.357 315.501C354.355 315.493 354.292 315.099 354.028 314.872Z" fill="#727272"/>
<path d="M357.27 328.833L357.363 328.889C357.278 328.491 356.976 326.802 356.474 323.93L357.27 328.833Z" fill="#727272"/>
<path d="M356.93 329.466C356.99 329.519 357.363 329.421 357.486 329.358C357.51 329.345 357.503 329.22 357.388 328.982L357.347 328.992C357.343 328.994 357.038 329.08 356.903 329.152C356.872 329.166 356.855 329.198 356.849 329.24C356.84 329.326 356.883 329.426 356.93 329.466Z" fill="#727272"/>
<path d="M356.855 329.552C356.993 329.673 357.469 329.496 357.542 329.458C357.59 329.433 357.611 329.384 357.612 329.322C357.615 329.211 357.555 329.059 357.491 328.927C357.422 328.734 356.104 321.149 355.314 316.618C354.964 314.593 354.685 312.995 354.638 312.741C354.57 312.374 354.449 312.14 354.277 312.042C354.14 311.967 354.022 312.011 354.017 312.013C353.519 312.11 353.525 312.267 353.577 312.538C353.585 312.584 353.593 312.635 353.598 312.69C353.639 313.027 355.586 326.384 355.67 326.952C355.711 327.138 355.785 327.652 355.66 327.829C355.516 328.029 354.849 328.251 354.519 328.326C352.971 328.681 351.854 328.791 351.739 328.597C351.703 328.535 351.66 328.31 352.059 327.542C352.286 327.103 352.569 326.664 352.651 326.561C352.667 326.541 354.242 324.403 354.175 323.922C354.167 323.875 354.148 323.84 354.116 323.817C353.818 323.604 353.206 323.905 352.497 324.251L352.311 324.342C351.726 324.625 351.093 324.992 350.846 325.14C350.833 325.211 350.817 325.256 350.815 325.266L350.688 325.244C350.687 325.244 350.661 325.241 350.662 325.24L350.661 325.241C350.659 325.31 350.322 326.923 350.413 327.365C350.52 327.883 351.054 329.23 352.122 329.211C352.854 329.201 354.799 328.73 354.883 328.709C354.98 328.689 355.849 328.498 356.003 328.228C356.581 327.21 354.556 315.959 354.47 315.482C354.468 315.46 354.387 314.949 354.007 314.717C353.838 313.543 353.723 312.752 353.714 312.676C353.708 312.619 353.7 312.566 353.69 312.517C353.649 312.291 353.633 312.207 354.051 312.124C354.062 312.119 354.137 312.095 354.226 312.148C354.321 312.204 354.451 312.355 354.529 312.765C354.553 312.898 354.64 313.4 354.77 314.141L357.167 328.909L357.191 328.922C357.085 328.954 356.939 329.005 356.851 329.05C356.788 329.083 356.746 329.148 356.737 329.23C356.729 329.296 356.746 329.371 356.773 329.435C356.821 329.426 356.85 329.422 356.854 329.421L356.874 329.535C356.866 329.537 356.858 329.539 356.843 329.54C356.844 329.543 356.849 329.549 356.855 329.552ZM354.029 314.877C354.293 315.102 354.356 315.495 354.357 315.5C354.378 315.62 356.461 327.191 355.902 328.17C355.794 328.36 355.11 328.541 354.857 328.597C354.834 328.604 352.84 329.083 352.121 329.095C351.136 329.111 350.646 327.8 350.553 327.341C350.474 326.952 350.778 325.495 350.823 325.291C350.956 325.209 351.691 324.77 352.364 324.442L352.548 324.352C353.196 324.035 353.807 323.736 354.048 323.91C354.057 323.914 354.058 323.927 354.058 323.933C354.115 324.32 352.748 326.246 352.557 326.486C352.459 326.61 351.39 328.231 351.639 328.651C351.844 328.997 353.544 328.664 354.54 328.436C354.796 328.378 355.565 328.152 355.752 327.893C355.929 327.644 355.799 327 355.781 326.927C355.768 326.825 354.605 318.852 354.029 314.877ZM357.364 328.888L357.272 328.833L356.476 323.93C356.977 326.802 357.279 328.489 357.364 328.888ZM356.93 329.466C356.883 329.425 356.84 329.323 356.85 329.238C356.855 329.196 356.873 329.165 356.904 329.15C357.039 329.077 357.343 328.992 357.348 328.991L357.388 328.981C357.503 329.219 357.51 329.343 357.487 329.356C357.363 329.421 356.991 329.52 356.93 329.466Z" fill="#727272"/>
<path d="M349.528 323.803C349.558 323.779 349.588 323.754 349.618 323.729C349.609 323.706 349.601 323.689 349.59 323.669C349.37 323.191 349.073 322.541 348.75 322.446C348.667 322.421 348.588 322.435 348.513 322.482C348.172 322.703 348.292 323.697 348.889 325.606C349.337 327.034 350.285 329.072 350.295 329.091C350.501 329.532 351.132 330.201 351.839 330.243C352.512 330.283 356.418 329.61 356.839 329.537C356.81 329.509 356.788 329.472 356.771 329.431C356.182 329.531 352.479 330.162 351.847 330.125C351.163 330.084 350.567 329.399 350.4 329.041C350.397 329.033 350.324 328.874 350.207 328.614C350.208 328.616 350.208 328.62 350.209 328.623L350.096 328.644C350.076 328.542 350.065 328.422 350.062 328.283C349.743 327.559 349.279 326.447 349.003 325.571C348.301 323.325 348.385 322.705 348.58 322.577C348.626 322.548 348.67 322.54 348.72 322.556C348.993 322.633 349.303 323.308 349.487 323.714C349.501 323.746 349.514 323.775 349.528 323.803Z" fill="#727272"/>
<path d="M356.84 329.538C356.854 329.536 356.864 329.534 356.871 329.532L356.851 329.419C356.847 329.419 356.818 329.425 356.771 329.432C356.788 329.474 356.811 329.509 356.84 329.538Z" fill="#727272"/>
<path d="M350.742 325.206C350.743 325.203 350.785 325.179 350.854 325.139C350.923 324.77 351.119 323.715 351.135 323.552C351.141 323.538 351.141 323.514 351.143 323.485C351.145 323.378 351.131 323.197 351.019 323.075C350.95 322.995 350.853 322.959 350.733 322.958C350.508 322.96 350.166 323.258 349.802 323.57C349.741 323.626 349.679 323.676 349.621 323.728C349.633 323.757 349.649 323.789 349.663 323.815L349.559 323.864C349.549 323.846 349.54 323.824 349.53 323.803C349.423 323.891 349.325 323.968 349.239 324.019C348.979 324.177 348.924 324.143 348.924 324.143L348.808 324.128C348.804 324.157 348.815 324.21 348.862 324.24C348.943 324.292 349.082 324.25 349.299 324.117C349.465 324.015 349.666 323.842 349.88 323.656C350.196 323.385 350.554 323.075 350.735 323.073C350.821 323.072 350.886 323.101 350.936 323.151C351.021 323.245 351.037 323.414 351.024 323.538C351.002 323.725 350.729 325.182 350.719 325.238L350.723 325.215L350.742 325.206Z" fill="#727272"/>
<path d="M350.83 325.264C350.833 325.256 350.84 325.208 350.854 325.139C350.785 325.178 350.744 325.201 350.743 325.203L350.721 325.216L350.715 325.239C350.715 325.24 350.715 325.243 350.715 325.243L350.83 325.264Z" fill="#727272"/>
<path d="M349.66 323.815C349.647 323.788 349.633 323.757 349.618 323.727C349.587 323.753 349.558 323.778 349.527 323.802C349.536 323.823 349.545 323.845 349.556 323.864L349.66 323.815Z" fill="#727272"/>
<path d="M350.062 328.282C350.116 328.407 350.166 328.517 350.208 328.615C350.028 327.628 350.628 324.695 350.827 323.728C350.878 323.47 350.887 323.419 350.888 323.398C350.889 323.394 350.888 323.39 350.887 323.388L350.831 323.398L350.772 323.395C350.77 323.414 350.743 323.541 350.711 323.706C350.531 324.581 350.023 327.065 350.062 328.282Z" fill="#727272"/>
<path d="M350.206 328.618C350.163 328.52 350.113 328.409 350.06 328.285C350.063 328.424 350.074 328.542 350.093 328.643L350.207 328.624C350.207 328.622 350.207 328.619 350.206 328.618Z" fill="#727272"/>
<path d="M353.943 313.088C354.011 313.134 354.09 313.153 354.171 313.141C354.316 313.117 354.424 312.994 354.427 312.848C354.427 312.83 354.426 312.81 354.422 312.789C354.411 312.707 354.367 312.638 354.299 312.59C354.232 312.543 354.151 312.522 354.071 312.537C353.907 312.563 353.79 312.719 353.818 312.889C353.833 312.97 353.876 313.039 353.943 313.088ZM354.01 312.995C353.968 312.966 353.941 312.921 353.933 312.871C353.93 312.858 353.929 312.846 353.931 312.833C353.932 312.742 354 312.666 354.089 312.65C354.138 312.64 354.19 312.653 354.23 312.682C354.272 312.711 354.299 312.755 354.306 312.806C354.324 312.914 354.253 313.01 354.151 313.026C354.103 313.035 354.052 313.023 354.01 312.995Z" fill="#727272"/>
<path d="M334.292 250.664C334.292 250.664 333.995 252.483 333.607 253.034C333.22 253.586 332.91 255.453 332.773 256.029C332.634 256.604 332.089 257.936 331.856 260.852C331.733 262.387 331.711 263.376 331.734 263.967C331.722 264.38 331.699 264.783 331.66 264.855C331.577 265.005 331.369 265.826 331.4 265.968C331.431 266.11 331.4 266.641 331.4 266.641L331.372 266.98L332.182 267.205C332.182 267.205 332.684 267.235 333.124 267.205C333.562 267.174 334.114 267.111 334.449 266.98C334.787 266.85 334.239 266.14 334.176 265.89C334.114 265.639 334.033 265.414 334.019 265.118C334.006 264.821 333.914 264.739 333.774 264.59C333.652 264.463 333.799 263.7 333.844 263.466C333.846 263.457 333.853 263.435 333.859 263.395V263.395C333.951 262.945 334.439 260.595 334.475 260.221C334.513 259.805 335.513 257.04 335.563 256.5C335.614 255.96 335.861 255.389 335.861 255.389L336.508 254.317C336.508 254.317 336.549 253.44 336.606 253.277C336.663 253.113 334.292 250.664 334.292 250.664Z" fill="#FFCBA1"/>
<path d="M339.818 247.709C339.83 247.819 340.382 249.927 340.48 250.158C340.579 250.387 341.173 252.571 341.32 252.99C341.467 253.409 341.981 254.007 341.97 254.226C341.959 254.447 342.058 254.748 341.798 255.056C341.541 255.361 340.934 255.928 340.76 255.839C340.588 255.749 340.008 254.997 340.071 254.855C340.133 254.714 340.368 253.928 340.354 253.817C340.34 253.707 340.246 252.927 339.896 252.453C339.547 251.979 338.583 250.089 338.508 249.936C338.433 249.782 337.636 247.798 337.636 247.798L339.818 247.709Z" fill="#FFCBA1"/>
<path d="M333.246 265.666C333.246 265.666 339.629 255.756 340.693 254.76C341.757 253.766 342.962 253.008 345.12 253.891C347.278 254.775 349.029 257.585 349.076 260.593C349.123 263.601 349.255 273.358 353.01 276.218C356.765 279.08 358.475 282.572 356.105 286.786C356.105 286.786 352.791 291.067 351.815 300.09C350.837 309.115 353.801 310.959 353.998 312.933" stroke="#727272" stroke-miterlimit="10"/>
<path d="M333.246 265.666C333.246 265.666 339.629 255.756 340.693 254.76C341.757 253.766 342.962 253.008 345.12 253.891C347.278 254.775 349.029 257.585 349.076 260.593C349.123 263.601 349.255 273.358 353.01 276.218C356.765 279.08 358.475 282.572 356.105 286.786C356.105 286.786 352.791 291.067 351.815 300.09C350.837 309.115 353.801 310.959 353.998 312.933" stroke="#727272" stroke-width="2" stroke-miterlimit="10" stroke-linecap="round" stroke-dasharray="1 3"/>
<path d="M338.913 253.645C338.913 253.645 340.285 255.536 340.265 256.086C340.245 256.635 340.218 257.6 340.125 258.245C340.033 258.89 339.933 260.625 339.867 260.977C339.801 261.327 339.714 262.351 339.657 263.298C339.601 264.245 339.62 265.233 339.62 265.233L340.02 265.674C340.02 265.674 340.9 266.085 341.343 266.425C341.785 266.764 342.413 266.945 342.529 266.97C342.645 266.993 342.938 267.374 342.956 267.585C342.973 267.794 343.009 267.799 342.417 267.852C341.825 267.907 339.846 267.536 339.308 267.558C338.771 267.582 338.367 267.553 337.82 267.534C337.272 267.514 337.021 267.416 336.878 267.201C336.734 266.985 337.266 265.213 337.254 265.171C337.254 265.171 337.785 263.173 337.591 262.926C337.398 262.679 337.168 258.522 337.456 257.992C337.743 257.462 337.626 256.815 337.626 256.815C337.626 256.815 337.527 256.79 337.393 256.744C337.12 256.652 335.198 254.226 335.138 253.949C335.049 253.535 335.579 253.331 335.579 253.331L338.913 253.645Z" fill="#FFCBA1"/>
<path d="M345.121 248.798C345.121 248.798 344.443 250.202 344.272 250.48C344.105 250.759 344.008 251.997 343.899 252.464C343.789 252.931 343.993 253.758 344.004 253.905C344.014 254.052 344.133 254.616 343.98 254.931C343.827 255.247 343.793 255.562 343.373 255.364C342.953 255.165 342.811 254.38 342.649 254.329C342.487 254.278 342.238 253.96 342.227 253.812C342.216 253.664 341.23 252.744 341.429 251.835C341.63 250.927 341.93 250.516 342.036 249.938C342.144 249.361 343.362 246.796 343.362 246.796L345.121 248.798Z" fill="#FFCBA1"/>
<path d="M344.93 242.496C344.97 242.516 345.998 242.779 346.175 242.799C346.353 242.817 346.914 242.845 346.973 242.856C347.03 242.867 347.396 242.773 347.62 242.71C347.842 242.645 348.611 242.328 348.778 242.367C348.944 242.405 350.217 242.579 350.226 242.611C350.236 242.642 350.939 243.425 350.949 243.495C350.959 243.564 351.417 244.707 351.359 245.012C351.303 245.316 350.802 246.284 350.687 246.374C350.572 246.465 349.939 246.837 349.81 246.852C349.68 246.864 349.037 246.852 348.941 246.918C348.847 246.982 348.775 246.969 348.701 246.918C348.627 246.867 348.595 246.748 348.495 246.805C348.394 246.861 348.282 246.901 348.156 246.975C348.029 247.05 347.696 247.254 347.635 247.258C347.573 247.263 347.54 247.298 347.458 247.176C347.375 247.055 347.322 246.979 347.322 246.979C347.322 246.979 347.058 246.87 347 246.896C346.942 246.923 346.676 246.904 346.591 246.91C346.507 246.918 345.951 246.718 345.912 246.68C345.875 246.643 345.789 246.41 345.791 246.319C345.792 246.23 345.904 245.747 345.904 245.747L346 245.389L345.616 245.145C345.616 245.145 345.396 245.157 345.347 245.178C345.298 245.199 345.177 245.352 345.066 245.387C344.957 245.42 344.635 245.654 344.635 245.654C344.635 245.654 344.086 244.84 344.008 244.577C343.928 244.314 344.662 242.743 344.662 242.743C344.662 242.743 344.921 242.427 344.925 242.461" fill="#FFCBA1"/>
<path d="M346.364 242.804L346.374 243.093L346.625 243.395C346.625 243.395 346.749 243.639 346.827 243.634C346.905 243.63 346.996 243.697 347.094 243.676C347.191 243.655 347.618 243.701 347.634 243.671C347.648 243.64 347.987 243.703 347.987 243.703C347.987 243.703 348.016 243.76 348.097 243.834C348.18 243.908 348.339 244.123 348.339 244.123L348.557 244.37C348.557 244.37 348.419 244.381 348.611 244.323C348.801 244.266 349.034 244.296 349.034 244.296L349.5 244.702C349.5 244.702 349.726 244.265 349.647 244.148C349.57 244.03 348.56 242.992 348.462 242.973C348.364 242.955 347.967 242.652 347.967 242.652C347.967 242.652 347.212 242.57 347.155 242.617C347.1 242.664 346.943 242.672 346.886 242.701C346.827 242.73 346.405 242.762 346.405 242.762" fill="#662F09"/>
<path d="M347.797 242.676L350.389 246.783C350.389 246.783 352.784 245.667 351.361 243.429C350.168 241.55 349 241.912 347.797 242.676Z" fill="#908DFF"/>
<path d="M352.006 248.908C351.968 248.935 351.923 248.94 351.897 248.9L350.288 246.66C350.26 246.622 350.271 246.572 350.309 246.544L350.355 246.514C350.394 246.486 350.448 246.497 350.477 246.535L352.081 248.769C352.108 248.808 352.09 248.848 352.052 248.876L352.006 248.908Z" fill="#908DFF"/>
<path d="M333.722 242.654C333.524 242.673 332.113 243.494 331.639 244.109C331.164 244.726 330.631 245.336 330.642 246.365C330.654 247.393 331.746 249.956 331.783 250.292C331.818 250.625 332.263 252.797 332.263 252.797C332.263 252.797 333.191 253.141 333.491 253.098C333.792 253.051 333.887 252.876 333.887 252.876C333.887 252.876 334.131 254.22 334.153 254.333C334.174 254.446 337.43 254.936 337.986 254.695C338.543 254.454 339.561 254.073 339.561 254.073L339.176 253.156C339.176 253.156 338.695 252.634 338.979 251.668C339.262 250.704 338.972 250.787 338.959 250.088C338.945 249.39 338.497 247.989 338.286 247.858C338.076 247.728 333.722 242.654 333.722 242.654Z" fill="#F7931E"/>
<path d="M333.247 242.39C333.37 242.364 339.55 239.02 342.518 240.291C345.486 241.563 346.426 242.056 346.446 242.828C346.468 243.6 346.677 245.053 346.739 245.278C346.802 245.505 346.286 248.467 346.286 248.467L346.02 249.249C346.02 249.249 345.57 249.024 345.27 249.179C344.971 249.335 344.614 249.301 344.614 249.301C344.614 249.301 342.788 247.696 342.944 247.528C343.102 247.361 341.888 248.604 341.1 248.566C340.311 248.529 338.841 248.132 338.592 248.256C338.342 248.38 337.312 248.429 337.289 248.28C337.263 248.131 335.815 246.747 335.815 246.747C335.815 246.747 335.378 245.457 335.205 245.184C335.034 244.912 333.476 243.112 333.353 242.879C333.233 242.646 333.247 242.39 333.247 242.39Z" fill="#FFF599"/>
<path d="M225.152 261.955C224.694 262.051 223.23 265.222 223.695 267.725C224.161 270.227 225.496 276.023 226.263 276.978C227.031 277.932 227.993 279.639 227.993 279.639C227.993 279.639 224.606 281.46 224.065 282.651C224.065 282.651 224.067 283.139 224.481 283.073C224.895 283.007 228.507 282.81 228.676 283.217C228.846 283.621 229.176 285.727 229.23 286.001C229.287 286.275 229.135 287.518 229.082 287.965C229.059 288.15 227.953 289.931 228.154 290.335C228.359 290.739 229.859 290.754 230.696 290.734C231.531 290.715 235.987 287.731 236.608 287.181C237.229 286.632 237.403 279.993 237.403 279.993C237.403 279.993 236.135 271.313 236.447 271.295C236.758 271.278 238.859 270.431 239.534 269.65C240.209 268.868 239.958 265.083 239.641 264.48C239.316 263.875 232.022 260.506 225.152 261.955Z" fill="#36627A"/>
<path d="M228.559 285.904C228.559 285.904 229.28 285.758 229.322 285.846C229.363 285.937 229.521 286.188 229.488 286.669C229.453 287.152 229.639 287.766 229.258 287.812C228.878 287.857 228.617 287.859 228.617 287.859C228.617 287.859 227.982 289.423 227.006 289.896C226.028 290.37 225.372 290.208 225.973 289.59C226.573 288.971 227.702 288.242 227.593 287.988C227.486 287.734 225.594 287.994 225.594 287.994L225.611 286.464C225.611 286.464 227.057 286.323 227.127 286.351C227.2 286.38 227.745 285.974 227.333 285.795C226.917 285.616 225.135 285.799 225.42 285.165C225.703 284.534 225.636 284.539 226.309 284.455C226.983 284.37 227.844 284.701 228.228 285.165C228.609 285.627 228.559 285.904 228.559 285.904Z" fill="#6C808C"/>
<path d="M266.658 282.187L259.849 276.489L231.285 274.868C240.202 273.034 257.095 270.35 282.259 268.8C300.338 267.686 315.487 267.571 322.493 267.926C335.234 268.572 343.804 267.832 345.98 267.609C345.61 267.843 345.067 268.21 344.738 268.518C344.487 268.749 344.266 269.063 343.958 269.498C343.339 270.378 342.389 271.649 340.295 273.625L340.087 273.815C326.103 280.628 307.147 282.635 293.532 283.024C279.11 283.433 267.267 282.25 266.658 282.187Z" fill="#FF0000"/>
<path d="M282.792 259.377C282.67 259.131 282.572 258.945 282.495 258.806C282.455 258.737 282.421 258.679 282.39 258.631C282.239 258.389 282.187 258.388 282.158 258.387L282.071 258.44C282.03 258.518 281.984 258.601 281.931 258.688C281.896 258.745 281.859 258.805 281.82 258.866C281.799 258.895 281.779 258.927 281.759 258.956C281.207 259.758 280.292 260.7 279.742 260.556C279.479 260.486 279.322 260.309 279.26 260.01C279.25 259.976 279.247 259.94 279.242 259.903C279.237 259.864 279.232 259.825 279.232 259.784C279.199 258.72 280.145 256.64 281.391 255.312C281.581 255.107 281.781 254.922 281.985 254.761C282.096 254.67 282.226 254.578 282.361 254.501C282.578 254.376 282.814 254.287 283.034 254.298C283.116 254.302 283.197 254.32 283.274 254.355C283.395 254.412 283.477 254.507 283.521 254.646C283.55 254.736 283.562 254.842 283.562 254.954C283.552 255.747 282.879 256.955 282.869 256.97L282.82 257.059L283.922 257.378L282.792 259.377ZM282.928 255.454C282.925 255.331 282.895 255.231 282.827 255.164C282.814 255.151 282.799 255.138 282.782 255.126C282.741 255.099 282.694 255.085 282.641 255.085C282.605 255.085 282.568 255.095 282.522 255.109C282.226 255.216 281.802 255.674 281.373 256.264L281.353 256.239L281.334 256.217L280.958 256.868C280.773 257.157 280.596 257.459 280.438 257.752C280.173 258.239 279.962 258.703 279.855 259.051C279.796 259.249 279.768 259.41 279.776 259.531C279.777 259.561 279.783 259.59 279.786 259.616C279.802 259.693 279.839 259.752 279.893 259.788C279.917 259.804 279.944 259.812 279.974 259.812C280.311 259.812 281.403 258.488 281.857 257.842C281.873 257.817 281.889 257.795 281.906 257.773C281.933 257.73 281.961 257.688 281.98 257.654C282.005 257.62 282.022 257.588 282.031 257.566C282.044 257.543 282.06 257.518 282.082 257.486C282.102 257.455 282.123 257.418 282.148 257.378C282.417 256.931 282.94 255.988 282.928 255.454Z" fill="black"/>
<path d="M293.149 255.824C292.711 255.884 291.18 256.133 289.851 256.384C289.765 256.4 289.682 256.416 289.6 256.433C289.556 256.443 289.512 256.45 289.47 256.459C289.288 256.495 289.113 256.533 288.944 256.569C288.893 256.58 288.841 256.593 288.791 256.605C288.664 256.634 288.545 256.663 288.432 256.693C288.387 256.704 288.343 256.717 288.3 256.729C288.292 256.731 288.279 256.734 288.266 256.737C287.856 256.828 285.523 257.372 285.174 257.977C285.164 257.997 285.153 258.014 285.147 258.034C284.942 258.619 284.445 261.895 284.363 262.624H282.968L282.479 261.391L282.668 259.64L282.742 259.606C282.738 259.597 282.732 259.589 282.732 259.581C282.727 259.572 282.723 259.564 282.721 259.556L283.93 257.429L283.949 257.434L283.973 257.357L283.991 257.326L284.02 257.272L285.828 253.47L286.104 253.373L286.381 253.276L287.194 248.843C287.234 248.843 287.288 248.843 287.357 248.843C287.832 248.843 289.413 248.855 289.867 249.028C290.247 249.172 292.077 253.206 293.149 255.824Z" fill="#3FA9F5"/>
<path d="M282.046 257.11C282.055 257.11 282.059 257.109 282.066 257.107C282.081 257.104 282.095 257.096 282.107 257.085C282.027 257.224 281.947 257.359 281.868 257.483C281.825 257.571 281.739 257.704 281.63 257.858C281.611 257.816 281.605 257.77 281.605 257.73C281.604 257.662 281.616 257.606 281.617 257.604L281.642 257.519L280.869 257.356L281.193 256.791C281.255 256.698 281.317 256.606 281.381 256.519C281.85 257.06 281.991 257.112 282.046 257.11Z" fill="black"/>
<path d="M282.084 257.485C282.064 257.517 282.048 257.543 282.035 257.564C282.025 257.589 282.006 257.619 281.984 257.654C281.962 257.688 281.936 257.728 281.909 257.773C281.893 257.795 281.878 257.817 281.86 257.841C281.408 258.489 280.315 259.811 279.977 259.811C279.948 259.811 279.919 259.803 279.898 259.788C279.839 259.751 279.806 259.694 279.789 259.616C279.783 259.591 279.779 259.562 279.779 259.531C279.771 259.409 279.8 259.248 279.86 259.051C279.966 258.702 280.177 258.239 280.443 257.751C280.6 257.459 280.779 257.157 280.962 256.868L281.338 256.216L281.358 256.239L281.377 256.263C281.805 255.675 282.229 255.216 282.526 255.109C282.568 255.095 282.608 255.084 282.645 255.084C282.698 255.084 282.745 255.099 282.785 255.127C282.802 255.137 282.816 255.151 282.83 255.163C282.899 255.231 282.928 255.331 282.932 255.452C282.942 255.988 282.42 256.929 282.152 257.375C282.126 257.416 282.103 257.453 282.084 257.485ZM279.999 259.099C279.872 259.521 279.926 259.625 279.949 259.645C280.219 259.595 281.034 258.659 281.521 258.002C281.433 257.885 281.432 257.738 281.444 257.645L280.749 257.499C280.418 258.067 280.136 258.644 279.999 259.099ZM281.192 256.792L280.868 257.356L281.641 257.52L281.616 257.604C281.615 257.605 281.601 257.662 281.602 257.731C281.603 257.771 281.612 257.818 281.629 257.858C281.736 257.703 281.824 257.573 281.867 257.483C281.945 257.359 282.026 257.224 282.106 257.086C282.095 257.095 282.08 257.103 282.065 257.108C282.059 257.108 282.055 257.11 282.046 257.11C281.99 257.112 281.849 257.061 281.379 256.518C281.316 256.608 281.254 256.698 281.192 256.792ZM282.692 255.262C282.68 255.253 282.662 255.249 282.642 255.249C282.414 255.249 281.956 255.729 281.477 256.385C281.683 256.62 281.914 256.86 282.014 256.93C282.07 256.845 282.177 256.812 282.265 256.802C282.63 256.115 282.91 255.407 282.692 255.262Z" fill="black"/>
<path d="M231.031 273.687L231.069 273.662L231.044 271.41L232.451 270.55L238.606 270.658L238.621 270.651L241.17 269.708L241.277 264.448L245.878 263.325L255.718 263.298L256.235 262.345L264.57 261.882L264.626 261.037L266.359 260.861L266.202 260.737C266.2 260.736 265.958 260.541 265.963 260.305C265.968 260.168 266.053 260.038 266.226 259.918C266.353 259.828 266.724 259.722 267.77 259.722C268.731 259.722 269.904 259.808 270.761 259.87C271.184 259.902 271.519 259.928 271.714 259.934C272.299 259.951 272.949 260.393 273.304 260.794C273.521 261.039 273.636 261.281 273.621 261.45C273.568 261.995 273.48 262.125 273.088 262.2L273.112 262.373L278.866 261.828L282.419 261.492L282.904 262.74H284.442L284.451 262.555C284.459 262.517 285.027 258.587 285.238 257.977C285.404 257.499 287.488 256.942 288.276 256.771C289.669 256.38 292.573 255.972 293.106 255.899L293.115 255.919L293.174 255.914C293.174 255.914 293.287 255.904 293.445 255.904C293.89 255.904 294.213 255.978 294.359 256.109C294.517 256.255 294.519 256.546 294.519 256.828C294.521 257.072 294.522 257.301 294.613 257.472C294.801 257.822 296.418 260.553 296.488 260.669L296.511 260.706L296.552 260.71C296.79 260.723 320.234 262.109 325.465 262.753C325.87 262.802 326.333 262.85 326.84 262.921C334.755 264.035 345.841 266.173 345.841 266.173C346.7 266.188 347.039 266.457 347.068 266.684C347.097 266.893 346.881 267.104 346.523 267.208C346.514 267.214 346.275 267.335 345.948 267.529C344.511 267.687 335.833 268.544 322.277 267.857C315.265 267.501 300.094 267.642 282.01 268.756C256.242 270.344 240.342 272.879 231.537 274.724L231.151 274.805C230.42 274.795 230.161 274.722 230.127 274.682C230.117 274.659 230.101 274.637 230.085 274.614C230.046 274.564 230.027 274.534 230.036 274.494C230.068 274.357 230.392 274.091 231.031 273.687Z" fill="white" stroke="white" stroke-miterlimit="10"/>
<path d="M266.633 282.248L266.658 282.251C266.757 282.261 275.204 283.142 286.838 283.142C288.854 283.142 290.963 283.117 293.137 283.054C306.694 282.669 325.744 280.791 339.734 274.055C339.695 274.089 339.66 274.123 339.626 274.158C339.144 274.602 338.664 275.075 338.155 275.574C334.941 278.739 330.942 282.676 320.624 285.676C318.251 286.368 315.71 286.689 312.623 286.689C309.98 286.689 307.269 286.619 304.399 286.369C301.247 286.097 297.991 285.817 294.508 285.817C293.973 285.817 293.439 285.824 292.921 285.837C292.397 285.85 291.785 285.857 291.099 285.857C277.532 285.857 236.206 283.019 234.49 282.908L231.424 275.061L259.843 276.551L266.633 282.248Z" fill="white" stroke="white" stroke-miterlimit="10"/>
<path d="M274.039 262.648C274.039 262.648 273.489 262.011 273.61 261.258C273.73 260.507 273.898 260.123 274.36 259.992C274.82 259.861 275.446 259.801 275.574 259.865C275.701 259.93 277.257 260.546 277.612 260.669C277.966 260.793 278.937 261.434 278.956 261.73C278.978 262.026 279.032 262.121 279.153 262.409C279.274 262.697 279.455 264.001 279.455 264.001L277.11 264.259C277.11 264.259 277.136 263.344 276.964 263.281C276.791 263.219 274.501 262.985 274.345 262.898C274.19 262.81 274.039 262.648 274.039 262.648Z" fill="#996234"/>
<path d="M265.355 258.991C265.355 258.991 265.232 257.83 265.183 257.83C265.134 257.83 266.81 257.731 267.207 257.435C267.702 257.067 270.419 257.089 270.419 257.089L272.222 258.744L274.304 260.309C274.304 260.309 273.704 262.276 273.408 262.276C273.267 262.276 271.785 260.932 270.444 260.893C268.949 260.849 268.838 261.707 269.184 263.56C269.249 263.909 266.097 261.806 266.097 261.806C266.097 261.806 265.501 261.362 265.354 260.571C265.207 259.781 265.355 258.991 265.355 258.991Z" fill="#EF45B7"/>
<path d="M268.937 247.086C269.011 247.111 269.554 246.444 269.53 246.221C269.505 245.998 269.285 245.85 269.233 245.85C269.184 245.85 268.665 245.233 268.937 244.961C269.208 244.69 268.343 243.579 268.665 243.035C268.985 242.493 269.38 241.653 270.122 241.356C270.863 241.059 271.333 240.813 271.702 241.11C272.073 241.406 272.962 242.246 272.986 242.566C273.012 242.888 273.159 243.505 272.986 244.172C272.813 244.839 272.813 244.938 272.788 245.654C272.764 246.369 272.443 246.816 272.22 247.088C271.997 247.359 272.097 247.729 271.677 247.828C271.258 247.927 271.776 248.593 271.578 248.84C271.38 249.086 269.059 248.469 269.108 247.505C269.133 247.052 268.937 247.086 268.937 247.086Z" fill="#996234"/>
<path d="M269.011 246.123C269.011 246.123 268.591 246.123 268.64 245.778C268.688 245.432 268.78 244.839 268.635 244.692C268.49 244.544 268.046 244.272 268.195 243.852C268.342 243.432 268.516 243.184 268.417 242.789C268.318 242.393 268.417 242.073 268.739 241.876C269.061 241.678 269.311 241.728 269.68 241.554C270.05 241.382 270.346 240.961 270.764 240.887C271.184 240.813 271.678 240.516 272.024 240.887C272.371 241.258 272.617 241.258 272.716 241.504C272.815 241.75 272.691 241.479 272.841 242.072C272.987 242.665 273.284 242.787 273.087 243.11C272.889 243.43 272.716 242.837 272.544 242.813C272.371 242.789 272.47 242.516 272.001 242.813C271.532 243.11 271.704 243.011 271.013 242.862C270.322 242.714 269.95 242.318 269.74 243.034C269.53 243.75 269.652 243.628 269.74 244.196C269.827 244.764 269.74 245.01 269.74 245.01C269.74 245.01 269.702 244.739 269.432 244.788C269.161 244.837 269.111 244.887 269.136 245.183C269.161 245.481 269.309 245.826 269.26 245.924C269.207 246.024 269.011 246.123 269.011 246.123Z" fill="#301705"/>
<path d="M272.42 251.754C272.42 251.754 274.05 254.42 274.469 254.669C274.889 254.915 275.754 255.41 276.075 255.483C276.396 255.557 278.422 255.879 279.287 255.828C280.151 255.779 280.298 255.519 280.621 255.835C280.942 256.151 281.09 256.372 281.214 256.125C281.337 255.879 281.263 255.828 281.214 255.458C281.165 255.087 281.214 254.889 281.559 254.841C281.905 254.792 282.434 255.186 282.291 254.742C282.151 254.298 282.201 254.1 281.632 254.148C281.064 254.198 280.966 254.619 280.57 254.667C280.174 254.716 280.001 254.716 279.31 254.618C278.617 254.519 276.667 253.358 276.247 253.334C275.828 253.309 275.802 252.988 275.532 252.717C275.26 252.445 274.174 251.111 274.174 251.111" fill="#996234"/>
<path d="M265.182 253.113C265.281 251.731 265.775 249.532 266.615 248.57C267.455 247.606 267.702 247.63 268.319 247.36C268.936 247.088 269.258 247.161 269.258 247.161C269.258 247.161 269.29 248.149 269.794 248.323C270.296 248.496 271.482 248.818 271.556 248.62C271.63 248.422 271.457 248.297 271.605 248.124C271.753 247.952 272 247.483 272.173 247.582C272.345 247.681 273.211 248.027 273.31 248.471C273.409 248.916 273.507 249.509 273.754 249.853C274 250.199 274.149 250.742 274.149 250.742C274.149 250.742 274.222 250.94 274.296 251.162C274.37 251.384 273.654 251.359 273.185 252.272C272.716 253.186 272.198 251.755 272.198 251.755C272.198 251.755 272.767 251.384 272.247 252.174C272.247 252.174 271.456 253.385 271.407 253.558C271.358 253.73 271.161 254.174 271.186 254.62C271.21 255.065 271.457 255.533 271.407 256.003C271.358 256.473 271.417 256.892 270.831 257.114C270.247 257.338 269.605 257.287 268.888 257.361C268.173 257.435 267.289 257.396 266.962 257.682C266.635 257.968 266.32 257.731 265.925 257.83C265.529 257.929 265.505 258.176 265.184 257.83C264.863 257.485 265.372 256.397 265.291 256.151C265.21 255.904 264.995 255.359 265.078 254.545C265.158 253.73 265.182 253.113 265.182 253.113Z" fill="#8BC7E8"/>
<path d="M268.037 254.779C268.037 254.779 268.561 256.499 268.855 256.827C269.148 257.154 269.618 257.913 269.867 258.207C270.117 258.502 272.329 260.769 272.592 260.967C272.859 261.163 274.141 262.29 274.141 262.29L275.959 262.083C275.959 262.083 274.756 260.794 274.164 260.163C273.571 259.533 271.614 257.108 271.502 256.89C271.391 256.668 270.753 256.006 270.582 255.702C270.409 255.395 270.381 254.764 270.239 254.187C270.097 253.611 269.851 252.865 269.851 252.865C269.851 252.865 267.569 252.592 267.498 253.13C267.426 253.669 268.037 254.779 268.037 254.779Z" fill="#996234"/>
<path d="M269.233 263.536C269.233 263.536 268.731 262.861 268.903 262.12C269.076 261.379 269.272 261.009 269.741 260.911C270.211 260.812 270.837 260.796 270.962 260.868C271.085 260.943 272.592 261.668 272.938 261.816C273.283 261.963 274.204 262.672 274.204 262.969C274.204 263.265 274.253 263.364 274.351 263.66C274.45 263.957 274.574 264.797 274.574 264.797L272.202 265.048C272.202 265.048 272.274 264.452 272.104 264.376C271.937 264.302 269.668 263.907 269.519 263.808C269.373 263.709 269.233 263.536 269.233 263.536Z" fill="#996234"/>
<path d="M246.801 260.237C246.801 260.237 247.071 261.186 246.896 262.356C246.72 263.524 246.683 264.525 247.112 264.891C247.542 265.258 247.116 265.983 247.532 266.078C247.803 266.14 252.07 265.578 252.417 265.671C252.764 265.765 253.895 265.494 254.071 265.597C254.247 265.7 255.722 265.47 255.953 265.512C256.183 265.554 256.048 265.101 256.273 265.006C256.498 264.911 256.908 263.863 256.908 263.863L256.888 263.426L256.273 262.463L255.95 261.596L255.655 261.423C255.655 261.423 255.477 261.291 255.351 261.015C255.225 260.739 255.151 260.37 255.08 260.073C255.011 259.777 254.961 259.298 254.722 259.406C254.482 259.517 246.801 260.237 246.801 260.237Z" fill="#32417F"/>
<path d="M243.222 253.584C243.222 253.584 242.933 257.727 242.981 257.838C243.029 257.949 242.892 258.798 242.649 259.984C242.405 261.171 242.461 264.176 242.486 264.466C242.511 264.755 242.411 265.365 242.418 265.443C242.425 265.52 242.123 265.838 241.895 266.111C241.667 266.384 241.913 266.323 241.913 266.323C241.913 266.323 242.215 266.432 242.412 266.471C242.61 266.512 243.285 266.472 243.507 266.548C243.727 266.626 245.048 266.412 245.144 266.402C245.241 266.394 245.42 266.222 245.4 266.011C245.382 265.798 245.116 265.647 245.116 265.647L244.273 265.354C244.273 265.354 244.251 264.89 244.222 264.776C244.193 264.663 244.866 262.64 244.904 261.977C244.941 261.313 245.029 260.975 244.953 260.574C244.877 260.174 244.899 259.103 244.911 259.024C244.923 258.946 245.15 257.566 245.293 257.223C245.438 256.88 245.128 254.518 245.14 254.42L243.222 253.584Z" fill="#FFCBA1"/>
<path d="M256.383 252.657C256.383 252.657 257.772 256.028 257.901 256.173C258.03 256.316 258.692 257.85 258.847 258.069C259.003 258.287 260.756 264.21 260.821 264.281C260.886 264.353 261.308 264.51 261.407 264.54C261.507 264.57 261.595 265.125 261.595 265.125L260.208 265.25L259.085 265.35C259.085 265.35 258.917 265.366 258.666 265.388C258.416 265.41 258.274 265.344 258.228 265.276C258.183 265.207 258.34 264.796 258.432 264.728C258.523 264.662 258.78 264.503 258.927 264.394C259.073 264.285 258.917 264.063 258.868 263.739C258.82 263.414 258.45 262.532 258.234 262.068C258.018 261.605 257.196 260.024 257.178 259.813C257.158 259.599 256.712 258.299 256.576 258.079C256.439 257.858 256.576 258.079 256.336 257.79C256.096 257.501 254.491 254.323 254.491 254.323L256.238 253.002L256.383 252.657Z" fill="#FFCBA1"/>
<path d="M257.043 252.869C257.051 252.964 256.696 253.347 256.528 253.42C256.361 253.493 255.548 253.973 255.423 254.082C255.296 254.19 254.821 254.737 254.813 254.875C254.806 255.01 254.757 255.754 254.764 255.83C254.771 255.907 255.169 257.542 255.261 257.689C255.351 257.835 255.411 259.597 255.397 259.869C255.383 260.143 255.478 262.046 254.973 262.051C254.469 262.058 252.509 262.291 252.097 262.25C251.686 262.209 249.426 262.781 249.159 262.843C248.894 262.907 246.996 262.745 246.707 262.345C246.418 261.945 245.998 258.789 245.996 258.556C245.995 258.323 245.706 255.96 245.706 255.96C245.706 255.96 245.54 254.751 245.461 254.74C245.382 254.727 244.447 254.694 243.834 254.574C243.221 254.454 242.873 254.252 242.873 254.252C242.873 254.252 242.786 253.716 242.816 253.617C242.845 253.517 243.387 250.653 243.576 249.957C243.766 249.26 246.732 248.334 246.901 248.261C247.07 248.187 250.571 247.602 250.803 247.601C251.037 247.6 253.18 248.34 253.62 248.475C254.06 248.611 255.474 249.008 256.016 249.853C256.557 250.698 256.971 252.719 257.034 252.773C257.035 252.773 257.034 252.773 257.043 252.869Z" fill="#FFFEF8"/>
<path d="M250.818 247.774C250.818 247.774 250.718 248.167 250.55 248.475C249.414 249.139 249.058 248.666 248.333 248.575C247.605 248.486 247.66 247.629 247.696 247.374C247.73 247.118 247.535 244.708 247.534 244.262C247.533 243.816 248.095 241.201 250.215 241.672C252.335 242.144 251.817 244.598 251.817 244.598C251.375 247.493 250.818 247.774 250.818 247.774Z" fill="#FFCBA1"/>
<path d="M248.677 247.379C248.677 247.379 247.598 247.52 247.314 246.287C247.03 245.053 247.263 245.158 247.204 243.846C247.145 242.534 245.773 242.245 247.714 241.704C249.654 241.164 251.089 240.47 251.363 241.258C251.637 242.046 251.922 242.377 251.817 242.666C251.711 242.956 251.913 243.409 251.892 243.692C251.871 243.975 251.523 244.794 251.523 244.794C251.523 244.794 250.718 245.059 250.711 245.232C250.703 245.403 250.423 245.794 250.446 246.148C250.468 246.5 250.915 246.568 250.475 246.829C250.037 247.091 249.658 247.338 249.658 247.338L248.677 247.379Z" fill="#9E5A2D"/>
<path opacity="0.6" d="M-4.56396 277.082H376.704L377.172 376.14H-4.09615L-4.56396 277.082Z" fill="#33EFFF"/>
<path d="M377.005 352.74C362.035 355.446 352.824 354.773 342.145 354.736C332.641 354.724 328.994 353.189 312.304 351.922C301.995 351.612 293.897 351.556 282.978 352.112C275.03 352.515 256.752 353.466 248.539 352.186C227.734 348.197 193.359 348.813 175.503 351.573C157.646 354.334 165.356 349.874 153.993 350.298C142.629 350.718 144.455 352.422 138.773 350.932C133.092 349.446 131.719 346.446 126.877 347.302C126.329 347.629 121.199 352.469 109.042 346.096C104.781 343.862 89.1167 346.146 86.0839 346.096C83.0703 346.047 41.7687 349.182 37.9133 346.208C33.4677 343.598 17.8766 343.662 13.4117 346.208C8.94734 348.764 -7.82922 348.186 -7.82922 348.186L-7.13782 376.729L377.172 377.755L377.005 352.74Z" fill="#D8BD80"/>
<rect x="315.775" y="15.2949" width="45.0996" height="25" rx="12.5" fill="#969696" fill-opacity="0.3"/>
<path d="M323.886 32.9209H323.066V23.9521L320.359 24.957V24.1914L323.75 22.9336H323.886V32.9209ZM334.079 32.9209H327.844V32.292L331.255 28.4229C331.82 27.7712 332.212 27.2334 332.431 26.8096C332.65 26.3857 332.759 25.9733 332.759 25.5723C332.759 24.9434 332.575 24.4466 332.206 24.082C331.836 23.7129 331.328 23.5283 330.681 23.5283C330.011 23.5283 329.469 23.7425 329.054 24.1709C328.644 24.5993 328.439 25.1553 328.439 25.8389H327.625C327.625 25.2783 327.751 24.7679 328.001 24.3076C328.257 23.8473 328.617 23.4873 329.082 23.2275C329.551 22.9632 330.084 22.8311 330.681 22.8311C331.593 22.8311 332.304 23.0703 332.814 23.5488C333.329 24.0273 333.586 24.679 333.586 25.5039C333.586 25.9688 333.441 26.4769 333.149 27.0283C332.862 27.5798 332.354 28.2679 331.625 29.0928L328.849 32.2305H334.079V32.9209ZM335.624 33.7754H334.878L339.035 22.9678H339.773L335.624 33.7754ZM347.409 32.9209H341.174V32.292L344.585 28.4229C345.151 27.7712 345.542 27.2334 345.761 26.8096C345.98 26.3857 346.089 25.9733 346.089 25.5723C346.089 24.9434 345.905 24.4466 345.536 24.082C345.167 23.7129 344.658 23.5283 344.011 23.5283C343.341 23.5283 342.799 23.7425 342.384 24.1709C341.974 24.5993 341.769 25.1553 341.769 25.8389H340.956C340.956 25.2783 341.081 24.7679 341.332 24.3076C341.587 23.8473 341.947 23.4873 342.412 23.2275C342.881 22.9632 343.414 22.8311 344.011 22.8311C344.923 22.8311 345.634 23.0703 346.144 23.5488C346.659 24.0273 346.917 24.679 346.917 25.5039C346.917 25.9688 346.771 26.4769 346.479 27.0283C346.192 27.5798 345.684 28.2679 344.955 29.0928L342.179 32.2305H347.409V32.9209ZM353.964 29.7148H355.516V30.4053H353.964V32.9209H353.144V30.4053H348.461V29.9404L353.069 22.9678H353.964V29.7148ZM349.466 29.7148H353.144V24.0273L352.782 24.6562L349.466 29.7148Z" fill="black"/>
</g>
<defs>
<linearGradient id="paint0_linear" x1="187.318" y1="376.14" x2="187.317" y2="-2.70815" gradientUnits="userSpaceOnUse">
<stop offset="0.1444" stop-color="white"/>
<stop offset="1" stop-color="#4FC3F7"/>
</linearGradient>
<clipPath id="clip0">
<rect width="375" height="375" fill="white" transform="translate(0.775146 0.294922)"/>
</clipPath>
</defs>
</svg>
