<svg width="376" height="376" viewBox="0 0 376 376" fill="none" xmlns="http://www.w3.org/2000/svg">
<g clip-path="url(#clip0)">
<path d="M-23.5345 395.826C-16.1344 393.384 384.147 417.634 446.116 397.187L419.367 -13.0645L-11.8988 -7.58711L-23.5345 395.826Z" fill="#EFDE95"/>
<path d="M378.362 88.7761C377.156 86.0709 375.087 84.5568 374.149 83.6114C373.208 82.6664 368.972 81.2386 368.127 79.6345C367.284 78.03 364.973 73.3087 364.204 73.1657C363.434 73.0223 363.533 71.4196 360.14 71.5982C356.748 71.7768 354.675 71.2054 353.358 70.0701C352.042 68.9353 353.736 70.26 352.042 68.9353C350.349 67.6106 347.99 66.1678 345.545 65.4168C343.101 64.6664 342.987 64.3214 340.736 64.1568C338.485 63.9928 337.175 62.8781 335.43 62.3442C333.685 61.8103 332.636 60.5329 331.894 59.2354C331.152 57.9384 332.557 57.4425 329.545 57.824C326.532 58.2065 325.758 61.5679 323.317 59.879C320.877 58.1901 319.298 58.162 317.688 57.0848C316.077 56.0076 312.592 54.0084 312.592 54.0084C312.592 54.0084 310.52 54.3886 309.205 53.2532C307.887 52.1184 306.106 49.5679 306.106 49.5679C306.106 49.5679 305.354 49.1887 304.317 48.9028C303.282 48.6164 301.402 46.7259 299.706 46.3439C298.012 45.9618 294.908 44.1614 293.306 44.062C291.703 43.9631 280.502 39.5001 276.165 39.675C271.829 39.8503 268.348 37.8604 263.451 36.3375C258.555 34.8145 261.744 39.7256 252.897 35.7398C244.049 31.7545 237.151 32.4736 237.151 32.4736C237.151 32.4736 219.072 29.9531 217.377 30.1978C215.682 30.4429 209.181 29.7632 209.181 29.7632C209.181 29.7632 203.527 29.7459 198.249 29.9184C192.968 30.0909 188.645 26.4961 184.494 27.2376C180.344 27.9792 179.15 27.7457 173.71 29.5406C168.271 31.3354 172.04 31.3472 166.434 30.9998C160.827 30.6525 158.848 30.3642 156.68 30.4518C154.512 30.54 153.662 30.8193 152.627 30.5334C151.591 30.2479 148.764 30.2395 147.255 30.4232C145.747 30.607 141.784 31.9143 139.809 30.6829C137.833 29.452 140.287 28.3275 135.948 29.4459C131.609 30.5643 130.465 31.8825 127.738 31.2136C125.012 30.5437 125.043 30.2198 121.825 29.7122C118.607 29.205 112.219 27.0595 111.547 28.3092C110.877 29.5584 104.842 30.2939 102.767 30.6647C100.692 31.035 94.8448 32.3367 92.8639 32.9906C90.8825 33.6445 82.6742 36.3525 81.2619 35.8776C79.8495 35.4018 78.6242 35.4923 77.1181 34.7339C75.6125 33.9759 71.3417 34.4428 71.3417 34.4428L68.3469 35.1168L50.7903 39.0262C50.7903 39.0262 52.1126 38.2757 45.5684 39.18C39.0242 40.0847 37.4356 40.2947 37.4356 40.2947L30.5295 41.9447C30.5295 41.9447 27.9767 42.3131 26.3792 42.6848C23.0998 43.4475 24.6528 41.55 19.2387 44.2007C12.988 47.2617 10.8209 46.8782 7.80359 47.2462C4.78624 47.6142 3.46765 47.4215 2.61827 47.7014C1.76937 47.9812 -4.79407 48.8151 -6.15626 50.5964C-7.51798 52.3776 -14.7949 52.3486 -14.7949 52.3486L-23.0524 55.9851L-24.8303 389.63L383.256 393.058V88.8684C380.505 91.0382 379.283 90.8418 378.362 88.7761Z" fill="url(#paint0_radial)" stroke="url(#paint1_radial)" stroke-miterlimit="10"/>
<path d="M378.215 81.0532C376.299 80.1157 374.64 78.7802 372.609 77.3814C370.578 75.9822 367.731 72.5861 365.655 70.5733C363.577 68.561 362.037 70.0703 356.026 68.021C350.014 65.9721 347.168 62.1086 342.766 61.1303C338.363 60.1516 334.553 57.168 333.522 55.9399C332.488 54.7113 323.946 50.336 317.706 49.8592C311.464 49.383 314.501 49.661 311.21 47.2942C308.791 45.5547 303.302 44.2544 300.287 43.6797C297.273 43.1055 292.847 42.0546 290.777 40.541C288.709 39.0269 281.738 37.8738 276.462 37.1041C271.186 36.3344 270.906 35.485 265.723 34.998C260.541 34.5105 256.871 32.8975 256.871 32.8975C256.871 32.8975 251.696 29.583 245.572 29.0932C239.447 28.6038 231.245 29.4269 230.058 29.5038C228.873 29.5811 223.173 30.4319 219.158 28.0778C215.144 25.7238 210.011 29.2516 207.525 29.0683C205.037 28.885 197.983 26.591 197.983 26.591C197.983 26.591 186.769 25.8977 183.61 23.9346C180.451 21.9714 172.506 27.7783 171.965 27.7769C171.424 27.7755 166.599 25.6478 166.599 25.6478C166.599 25.6478 161.513 24.5013 158.969 24.3986C156.424 24.2955 148.995 28.143 147.451 28.1988C145.906 28.255 141.767 28.4374 139.553 26.4307C137.338 24.423 134.571 28.8138 131.832 28.9783C129.092 29.1424 126.159 27.6921 124.817 27.1938C123.474 26.695 117.772 27.0072 115.307 26.2516C112.841 25.496 107.493 29.1438 105.914 29.351C104.335 29.5577 101.837 29.1264 100.6 28.2302C99.3627 27.3344 95.7885 29.8178 95.7885 29.8178C95.7885 29.8178 88.3232 29.5052 83.9211 31.8996C79.5191 34.293 79.4886 32.7344 75.905 33.2885C72.5432 33.8088 67.8927 33.7352 66.9477 33.1052C66.0022 32.4757 55.7525 35.02 55.7525 35.02L47.7341 37.3239C47.7341 37.3239 39.6927 40.7482 38.6099 40.3347C37.5271 39.9208 34.0086 41.853 34.0086 41.853C34.0086 41.853 31.3977 40.128 30.2774 39.5561C29.1566 38.9838 25.836 40.3942 23.6366 39.3489C21.4372 38.3032 20.9816 40.4261 20.9816 40.4261L19.0836 41.68C19.0836 41.68 16.7202 44.0289 12.8671 43.766C9.01394 43.5025 10.4572 45.1525 8.86535 45.085C7.27347 45.0175 4.12253 44.9852 4.12253 44.9852C4.12253 44.9852 0.26753 46.6258 -2.18638 47.7494C-4.64028 48.873 -4.20388 50.4405 -6.43794 49.1458C-8.67247 47.8511 -7.76638 48.0011 -9.65169 47.996C-11.537 47.9899 -11.6598 49.5738 -16.3276 50.1724L-24.8293 52.833L-23.0514 58.2213L-14.7939 54.5842C-14.7939 54.5842 -7.517 54.6133 -6.15528 52.8325C-4.79309 51.0513 1.77034 50.2174 2.61925 49.9371C3.46862 49.6567 4.78722 49.8494 7.80456 49.4814C10.8219 49.1139 12.9889 49.4974 19.2393 46.4364C24.6538 43.7857 23.1003 45.6831 26.3797 44.9205C27.9772 44.5488 30.53 44.1808 30.53 44.1808L37.4357 42.5303C37.4357 42.5303 39.0238 42.3199 45.5689 41.4157C52.1141 40.5119 50.7908 41.2619 50.7908 41.2619L68.3474 37.3525L71.3422 36.6785C71.3422 36.6785 75.6135 36.2111 77.1191 36.97C78.6247 37.7285 79.85 37.6375 81.2628 38.1133C82.6757 38.5891 90.883 35.8802 92.8649 35.2267C94.8463 34.5728 100.694 33.2711 102.768 32.9008C104.843 32.5305 110.877 31.7946 111.549 30.5453C112.221 29.2961 118.607 31.4411 121.826 31.9492C125.043 32.4569 125.012 32.7803 127.739 33.4502C130.465 34.12 131.609 32.8005 135.949 31.6825C140.287 30.5646 137.833 31.6882 139.809 32.9196C141.784 34.1505 145.746 32.8432 147.255 32.6594C148.764 32.4757 151.591 32.4841 152.626 32.77C153.662 33.056 154.511 32.7761 156.679 32.6885C158.848 32.6008 160.827 32.8891 166.434 33.2364C172.04 33.5838 168.27 33.5716 173.709 31.7772C179.149 29.9824 180.344 30.2153 184.493 29.4738C188.644 28.7322 192.967 32.3271 198.247 32.1541C203.527 31.9816 209.18 31.9989 209.18 31.9989C209.18 31.9989 215.681 32.6791 217.376 32.4339C219.07 32.1888 237.149 34.7097 237.149 34.7097C237.149 34.7097 244.048 33.9911 252.896 37.976C261.743 41.9613 258.552 37.0511 263.451 38.5736C268.347 40.0971 271.828 42.0869 276.164 41.9116C280.5 41.7363 291.702 46.2002 293.304 46.2991C294.907 46.398 298.011 48.1985 299.706 48.5805C301.402 48.9625 303.281 50.8535 304.317 51.1394C305.353 51.4253 306.105 51.8046 306.105 51.8046C306.105 51.8046 307.888 54.355 309.204 55.4899C310.52 56.6247 312.592 56.2441 312.592 56.2441C312.592 56.2441 316.077 58.2442 317.687 59.3214C319.297 60.3986 320.876 60.4267 323.317 62.1156C325.758 63.805 326.531 60.4441 329.544 60.0606C332.556 59.6782 331.151 60.175 331.893 61.4725C332.635 62.7696 333.684 64.0474 335.429 64.5813C337.176 65.1147 338.485 66.2299 340.735 66.3939C342.986 66.5575 343.1 66.9035 345.545 67.6539C347.991 68.4044 350.349 69.8472 352.041 71.1719C353.734 72.4971 352.041 71.1719 353.358 72.3067C354.674 73.4416 356.746 74.0135 360.139 73.8349C363.532 73.6567 363.433 75.2589 364.204 75.4019C364.973 75.5449 367.283 80.2666 368.126 81.8711C368.97 83.4761 373.207 84.9025 374.148 85.848C375.087 86.7935 377.156 88.308 378.361 91.0127C379.284 93.0775 380.504 93.2739 383.256 91.105L380.146 81.6794C379.285 81.4352 378.58 81.2317 378.215 81.0532Z" fill="white" stroke="url(#paint2_radial)" stroke-miterlimit="10"/>
<path opacity="0.8" d="M-16.3282 50.1729C-11.6604 49.5743 -11.5371 47.9909 -9.65225 47.9961C-7.76741 48.0017 -8.67303 47.8517 -6.4385 49.1464C-4.20444 50.4411 -4.64131 48.8731 -2.18694 47.75C0.266966 46.6268 4.1215 44.9853 4.1215 44.9853C4.1215 44.9853 7.27103 45.0181 8.8629 45.0851C10.4548 45.1522 9.0115 43.5031 12.8646 43.7656C16.7177 44.029 19.0817 41.6801 19.0817 41.6801L20.9796 40.4257C20.9796 40.4257 21.4343 38.3032 23.6342 39.349C25.834 40.3939 29.1542 38.9839 30.2749 39.5562C31.3952 40.1281 34.0062 41.8531 34.0062 41.8531C34.0062 41.8531 37.5251 39.9209 38.6074 40.3353C39.6898 40.7482 47.7317 37.3245 47.7317 37.3245L55.7501 35.0215C55.7501 35.0215 65.9998 32.4772 66.9448 33.1067C67.8902 33.7367 72.5407 33.8103 75.9026 33.29C79.4857 32.735 79.5157 34.294 83.9182 31.9011C88.3207 29.5076 95.7856 29.8193 95.7856 29.8193C95.7856 29.8193 99.3598 27.3359 100.597 28.2317C101.834 29.1284 104.332 29.5597 105.911 29.3525C107.489 29.1453 112.838 25.4979 115.304 26.2531C117.769 27.0087 123.471 26.697 124.814 27.1957C126.156 27.6945 129.09 29.1443 131.829 28.9803C134.568 28.8167 137.335 24.4254 139.55 26.4326C141.765 28.4393 145.903 28.2575 147.448 28.2012C148.992 28.1454 156.422 24.2979 158.965 24.4011C161.511 24.5037 166.596 25.6507 166.596 25.6507C166.596 25.6507 171.422 27.7779 171.962 27.7798C172.5 27.7817 180.447 21.9743 183.607 23.9375C186.765 25.9006 197.979 26.5943 197.979 26.5943C197.979 26.5943 205.034 28.8893 207.521 29.0717C210.009 29.254 215.139 25.7276 219.154 28.0812C223.169 30.4348 228.868 29.584 230.054 29.5067C231.239 29.4293 239.441 28.6067 245.567 29.0961C251.691 29.5859 256.866 32.9004 256.866 32.9004C256.866 32.9004 260.536 34.5143 265.719 35.0014C270.903 35.4884 271.181 36.3378 276.457 37.1079C281.733 37.8776 288.704 39.0307 290.773 40.5443C292.842 42.0579 297.268 43.1093 300.284 43.6836C303.297 44.2582 308.786 45.559 311.206 47.2981C314.497 49.6643 311.46 49.3864 317.702 49.8626C323.943 50.3398 332.483 54.7147 333.515 55.9428C334.549 57.1714 338.358 60.154 342.762 61.1328C347.165 62.1111 350.009 65.974 356.021 68.0234C362.032 70.0737 363.574 68.562 365.652 70.5743C367.728 72.5872 370.575 75.9842 372.606 77.3825C374.637 78.7807 376.296 80.1167 378.212 81.0542C380.127 81.9912 391.284 83.5737 386.284 88.3976C381.286 93.2215 379.566 93.7179 378.359 91.0128C377.154 88.3081 375.085 86.7936 374.146 85.8486C373.205 84.9031 368.969 83.4762 368.125 81.8712C367.281 80.2662 364.97 75.5454 364.201 75.4025C363.432 75.2595 363.53 73.6564 360.137 73.8354C356.745 74.014 354.672 73.4422 353.356 72.3068C352.04 71.172 353.734 72.4967 352.04 71.172C350.347 69.8473 347.987 68.4045 345.543 67.6536C343.099 66.9031 342.985 66.5581 340.733 66.3931C338.483 66.229 337.173 65.1143 335.427 64.5804C333.682 64.047 332.633 62.7697 331.891 61.4722C331.15 60.1751 332.555 59.6782 329.542 60.0612C326.53 60.4432 325.756 63.8042 323.315 62.1157C320.874 60.4268 319.295 60.3987 317.685 59.3215C316.074 58.2443 312.59 56.2451 312.59 56.2451C312.59 56.2451 310.518 56.6248 309.203 55.4904C307.885 54.3551 306.103 51.8051 306.103 51.8051C306.103 51.8051 305.351 51.4259 304.315 51.1395C303.279 50.8536 301.4 48.9631 299.704 48.5811C298.009 48.199 294.906 46.3986 293.303 46.2997C291.701 46.2007 280.499 41.7373 276.163 41.9126C271.827 42.0875 268.346 40.0976 263.449 38.5747C258.552 37.0517 261.742 41.9628 252.894 37.9765C244.046 33.9912 237.148 34.7107 237.148 34.7107C237.148 34.7107 219.069 32.1903 217.374 32.435C215.679 32.6797 209.179 32 209.179 32C209.179 32 203.524 31.9826 198.246 32.1556C195.602 32.2423 191.219 28.2729 184.491 29.4748C180.342 30.2164 179.148 29.9825 173.707 31.7778C168.268 33.5722 172.038 33.5839 166.432 33.237C160.824 32.8901 158.846 32.6009 156.677 32.689C154.509 32.7767 153.66 33.0565 152.624 32.7706C151.589 32.4851 148.761 32.4767 147.253 32.6604C145.744 32.8442 141.782 34.1515 139.806 32.9201C137.831 31.6887 140.285 30.5651 135.946 31.6831C131.607 32.8011 130.463 34.1201 127.736 33.4507C125.009 32.7809 125.04 32.4565 121.823 31.9493C118.604 31.4417 112.217 29.2967 111.545 30.5459C110.874 31.7951 104.84 32.5311 102.765 32.9014C100.69 33.2722 94.8424 34.5739 92.8615 35.2273C90.8801 35.8817 82.6718 38.5897 81.2595 38.1143C79.8471 37.6386 78.6218 37.729 77.1157 36.9706C75.6101 36.2122 71.3393 36.6795 71.3393 36.6795L68.3445 37.3536L50.7879 41.2634C50.7879 41.2634 52.1102 40.5129 45.566 41.4172C39.0218 42.3214 37.4332 42.5314 37.4332 42.5314L30.5281 44.1818C30.5281 44.1818 27.9752 44.5498 26.3777 44.9215C23.0984 45.6842 24.6513 43.7872 19.2373 46.4375C12.9865 49.4989 10.8195 49.115 7.80212 49.4829C4.78478 49.8509 3.46618 49.6582 2.61681 49.9386C1.7679 50.2189 -4.79553 51.0523 -6.15772 52.834C-7.51944 54.6148 -14.7963 54.5857 -14.7963 54.5857L-18.2313 55.7192L-19.7721 51.049L-16.3282 50.1729Z" fill="white"/>
<path d="M297.762 27.1865L300.057 22.5927C298.872 21.9496 297.433 21.7405 296.05 22.1643L297.713 27.2034L297.762 27.1865Z" fill="#E8628F"/>
<path d="M302.53 25.5894C302.521 25.5604 302.517 25.5318 302.506 25.5027C302.074 24.1939 301.17 23.1768 300.048 22.5674L297.746 27.1363L302.53 25.5894Z" fill="white"/>
<path d="M297.712 27.2041L296.049 22.165C296.012 22.1763 295.976 22.1829 295.94 22.195C294.578 22.6446 293.533 23.6304 292.935 24.8186L297.661 27.221L297.712 27.2041Z" fill="#F9F9F9"/>
<path d="M297.746 27.1353L297.713 27.2028L302.213 29.4701C302.799 28.3071 302.946 26.9253 302.532 25.5889L297.746 27.1353Z" fill="#E8628F"/>
<path d="M292.926 24.792C292.328 25.9803 292.181 27.3968 292.631 28.7604C292.635 28.7693 292.639 28.7778 292.641 28.7867L297.643 27.169L292.926 24.792Z" fill="#E8628F"/>
<path d="M297.711 27.2041L299.303 32.0285C300.615 31.5644 301.63 30.6283 302.212 29.471L297.711 27.2041Z" fill="white"/>
<path d="M297.712 27.2032L297.643 27.1689L292.641 28.7866C293.113 30.1919 294.129 31.2588 295.376 31.84L297.712 27.2032Z" fill="white"/>
<path d="M295.377 31.84C296.534 32.3796 297.889 32.501 299.199 32.0693C299.234 32.0575 299.267 32.0411 299.304 32.0285L297.712 27.2041L295.377 31.84Z" fill="#E8628F"/>
<path d="M230.184 17.9768L232.479 13.3826C231.293 12.7394 229.855 12.5308 228.472 12.9541L230.134 17.9932L230.184 17.9768Z" fill="#E8628F"/>
<path d="M234.952 16.3789C234.942 16.3499 234.938 16.3208 234.928 16.2918C234.495 14.9835 233.591 13.9658 232.47 13.3564L230.168 17.9254L234.952 16.3789Z" fill="white"/>
<path d="M230.134 17.9932L228.471 12.9541C228.435 12.9654 228.398 12.9724 228.363 12.9841C227 13.4336 225.956 14.4194 225.357 15.6072L230.083 18.0096L230.134 17.9932Z" fill="#F9F9F9"/>
<path d="M230.168 17.9263L230.135 17.9938L234.635 20.2611C235.221 19.0982 235.368 17.7163 234.955 16.3799L230.168 17.9263Z" fill="#E8628F"/>
<path d="M225.349 15.582C224.751 16.7703 224.605 18.1869 225.054 19.55C225.057 19.5594 225.062 19.5673 225.064 19.5763L230.066 17.9586L225.349 15.582Z" fill="#E8628F"/>
<path d="M230.135 17.9932L231.727 22.8171C233.037 22.3535 234.053 21.4169 234.634 20.2596L230.135 17.9932Z" fill="white"/>
<path d="M230.134 17.9932L230.066 17.959L225.064 19.5766C225.536 20.9815 226.551 22.0488 227.798 22.6296L230.134 17.9932Z" fill="white"/>
<path d="M227.799 22.6291C228.958 23.1686 230.312 23.29 231.621 22.8579C231.657 22.8461 231.69 22.8293 231.727 22.8171L230.135 17.9932L227.799 22.6291Z" fill="#E8628F"/>
<path d="M263.01 9.82711L265.303 5.23336C264.118 4.59023 262.68 4.38117 261.297 4.80492L262.959 9.84398L263.01 9.82711Z" fill="#E8628F"/>
<path d="M267.777 8.23051C267.767 8.20145 267.763 8.17239 267.752 8.14332C267.321 6.83457 266.416 5.81738 265.295 5.20801L262.993 9.77692L267.777 8.23051Z" fill="white"/>
<path d="M262.959 9.84473L261.297 4.80566C261.26 4.81691 261.223 4.82348 261.187 4.83567C259.824 5.2852 258.78 6.27098 258.182 7.45879L262.908 9.86113L262.959 9.84473Z" fill="#F9F9F9"/>
<path d="M262.993 9.77684L262.959 9.84387L267.46 12.1112C268.045 10.9482 268.193 9.56637 267.779 8.22949L262.993 9.77684Z" fill="#E8628F"/>
<path d="M258.174 7.43262C257.575 8.6209 257.429 10.0379 257.879 11.4011C257.882 11.41 257.887 11.4184 257.889 11.4268L262.892 9.80918L258.174 7.43262Z" fill="#E8628F"/>
<path d="M262.959 9.84473L264.551 14.6686C265.863 14.2046 266.878 13.268 267.46 12.1111L262.959 9.84473Z" fill="white"/>
<path d="M262.959 9.84476L262.89 9.81055L257.888 11.4282C258.361 12.833 259.377 13.9004 260.623 14.4812L262.959 9.84476Z" fill="white"/>
<path d="M260.624 14.4807C261.782 15.0202 263.137 15.1411 264.446 14.7094C264.481 14.6977 264.515 14.6808 264.551 14.6686L262.959 9.84473L260.624 14.4807Z" fill="#E8628F"/>
<path d="M305.668 258.826C332.207 258.826 353.72 237.312 353.72 210.774C353.72 184.235 332.207 162.722 305.668 162.722C279.13 162.722 257.616 184.235 257.616 210.774C257.616 237.312 279.13 258.826 305.668 258.826Z" stroke="white" stroke-width="3" stroke-miterlimit="10" stroke-dasharray="10.06 10.06"/>
<path d="M305.668 210.774L305.916 162.722" stroke="white" stroke-width="2" stroke-miterlimit="10"/>
<path d="M311.972 160.544L300.473 160.323L299.996 174.05C299.996 174.05 298.717 185.399 305.686 189.432C312.571 185.819 312.013 174.556 312.013 174.556L311.972 160.544Z" fill="#E5E5E5"/>
<path d="M305.707 186.482C305.707 186.482 300.759 186.624 300.776 176.695C300.792 166.766 301.536 165.771 301.536 165.771L310.786 165.947L311.012 168.877L310.849 177.41C310.852 177.41 310.457 186.271 305.707 186.482Z" fill="#E2E2E2"/>
<path d="M305.722 186.543C309.569 186.69 310.882 181.793 311.279 177.152L311.299 169.451L311.212 163.89L308.234 163.138L307.741 163.703L304.538 163.627C304.538 163.627 304.14 163.136 304.045 163.134C303.503 163.124 301.1 163.733 301.1 163.733C301.1 163.733 300.942 167.505 300.87 169.203C300.868 169.26 300.504 176.849 300.505 176.945C300.581 181.587 301.539 186.383 305.722 186.543ZM301.042 169.37C301.025 169.245 301.635 164.112 301.635 164.112C301.635 164.112 303.641 163.779 304.154 163.789C304.246 163.791 304.619 164.26 304.619 164.26L307.642 164.332L308.108 163.792L310.761 164.287L311.104 169.557C311.08 174.126 310.99 174.188 310.957 177.147C310.518 181.673 309.04 186.464 305.674 186.311C302.326 186.16 301.059 181.44 300.847 176.953C300.854 176.779 301.079 169.448 301.042 169.37Z" fill="#CECECE"/>
<path d="M303.822 176.478L304.389 177.132L305.765 177.386V177.382L305.887 177.384H305.907L306.104 177.388L306.105 177.393L307.453 177.189L308.086 176.56C308.438 176.316 308.525 175.053 308.525 175.053L308.57 172.709L308.312 172.192L306.581 172.458L305.986 173.353L305.429 172.436L303.726 172.104L303.484 172.611L303.438 174.955C303.438 174.955 303.479 176.221 303.822 176.478Z" fill="#EFEFEF"/>
<path d="M303.696 173.319C303.701 173.39 304.362 174.447 304.362 174.447L307.435 174.525L308.215 173.426L308.218 173.271L308.219 173.194L308.221 173.116L308.235 172.343L303.717 172.256C303.717 172.256 303.694 173.246 303.696 173.319Z" fill="#C6C6C6"/>
<path d="M304.135 175.317L305.695 175.347L306.29 175.357L307.696 175.383C307.696 175.383 308.157 174.794 308.261 173.237C308.261 173.228 308.18 173.235 308.18 173.235C307.97 173.52 307.497 174.291 307.497 174.291L306.013 174.275L304.375 174.236C304.375 174.236 303.933 173.451 303.734 173.158C303.734 173.158 303.653 173.14 303.653 173.149C303.696 174.711 304.135 175.317 304.135 175.317Z" fill="#29ABE2"/>
<path d="M307.678 172.598C307.69 171.971 305.624 171.886 305.612 172.565C305.6 173.161 307.666 173.256 307.678 172.598ZM307.498 172.602C307.489 173.05 305.783 172.98 305.791 172.573C305.8 172.111 307.506 172.175 307.498 172.602Z" fill="black"/>
<path d="M306.898 172.934C306.898 172.934 306.896 172.739 306.662 172.736C306.428 172.735 306.457 172.909 306.452 172.926C306.445 172.943 306.898 172.934 306.898 172.934Z" fill="black"/>
<path d="M306.736 172.791L306.805 172.313L306.497 172.308L306.569 172.788L306.736 172.791Z" fill="black"/>
<path d="M306.525 172.868C306.519 172.868 305.776 172.525 305.776 172.525L305.744 172.719L306.498 172.96L306.525 172.868Z" fill="black"/>
<path d="M306.804 172.875C306.809 172.875 307.553 172.561 307.553 172.561L307.55 172.753L306.831 172.967L306.804 172.875Z" fill="black"/>
<path d="M300.848 176.952C300.848 176.952 303.377 176.981 303.884 179.674C304.393 182.367 304.65 186.059 304.688 186.137C304.725 186.215 300.96 185.216 300.848 176.952Z" fill="#E8CDA0"/>
<path d="M310.96 177.146C310.96 177.146 308.432 177.078 307.822 179.75C307.211 182.421 306.813 186.1 306.773 186.177C306.731 186.253 310.531 185.399 310.96 177.146Z" fill="#E8CDA0"/>
<path d="M310.967 166.626C310.967 166.626 311.141 167.251 310.535 167.024C308.541 166.271 303.818 166.026 301.678 166.892C301.229 167.074 301.238 166.962 301.258 166.662C301.272 166.438 301.636 164.113 301.636 164.113C301.636 164.113 305.289 162.792 310.763 164.287L310.967 166.626Z" fill="#E8CDA0"/>
<path d="M303.547 169.245C303.549 169.117 303.84 168.866 304.019 168.869L308.09 168.947C308.27 168.951 308.296 169.206 308.293 169.335L308.268 170.693C308.265 170.821 308.231 170.985 308.051 170.981L303.979 170.904C303.801 170.899 303.518 170.731 303.52 170.602L303.547 169.245Z" fill="#E8CDA0"/>
<path d="M304.327 158.867C304.328 158.633 304.519 158.445 304.752 158.446L307.219 158.459C307.453 158.46 307.642 158.652 307.64 158.886L307.619 162.675C307.618 162.909 307.428 163.098 307.194 163.096L304.726 163.083C304.493 163.082 304.305 162.891 304.306 162.657L304.327 158.867Z" fill="#394963"/>
<path d="M103.462 312.866C130.001 312.866 151.515 291.352 151.515 264.813C151.515 238.275 130.001 216.761 103.462 216.761C76.9234 216.761 55.4095 238.275 55.4095 264.813C55.4095 291.352 76.9234 312.866 103.462 312.866Z" stroke="white" stroke-width="3" stroke-miterlimit="10" stroke-dasharray="10.06 10.06"/>
<path d="M103.462 264.813L102.415 216.771" stroke="white" stroke-width="2" stroke-miterlimit="10"/>
<path d="M108.411 214.433L96.9092 214.521L96.8037 228.256C96.8037 228.256 95.8306 239.635 102.906 243.48C109.69 239.681 108.83 228.439 108.83 228.439L108.411 214.433Z" fill="#E5E5E5"/>
<path d="M102.848 240.529C102.848 240.529 97.9069 240.804 97.6547 230.878C97.403 220.952 98.1207 219.937 98.1207 219.937L107.372 219.865L107.678 222.787L107.745 231.322C107.746 231.321 107.589 240.189 102.848 240.529Z" fill="#E2E2E2"/>
<path d="M102.864 240.59C106.714 240.633 107.894 235.703 108.166 231.053L107.978 223.354L107.742 217.797L104.746 217.125L104.268 217.702L101.064 217.712C101.064 217.712 100.655 217.233 100.559 217.233C100.016 217.238 97.6301 217.912 97.6301 217.912C97.6301 217.912 97.5739 221.687 97.5472 223.386C97.5472 223.443 97.3882 231.039 97.3915 231.135C97.5912 235.774 98.6773 240.543 102.864 240.59ZM97.722 223.549C97.7023 223.423 98.1734 218.277 98.1734 218.277C98.1734 218.277 100.17 217.891 100.683 217.887C100.775 217.887 101.161 218.345 101.161 218.345L104.185 218.335L104.636 217.782L107.302 218.205L107.787 223.464C107.887 228.031 107.798 228.096 107.846 231.055C107.529 235.591 106.181 240.42 102.811 240.359C99.4611 240.298 98.0665 235.613 97.7333 231.134C97.7342 230.961 97.7614 223.627 97.722 223.549Z" fill="#CECECE"/>
<path d="M100.693 230.58L101.278 231.218L102.659 231.436V231.431L102.781 231.431H102.801L102.997 231.429L102.998 231.434L104.34 231.194L104.956 230.548C105.301 230.294 105.353 229.03 105.353 229.03L105.334 226.686L105.063 226.176L103.34 226.488L102.769 227.398L102.188 226.496L100.477 226.211L100.25 226.725L100.267 229.07C100.268 229.069 100.343 230.332 100.693 230.58Z" fill="#EFEFEF"/>
<path d="M100.484 227.425C100.489 227.497 101.177 228.535 101.177 228.535L104.252 228.53L105.002 227.409L105.001 227.254L105.001 227.177L105 227.1L104.994 226.327L100.476 226.362C100.475 226.362 100.479 227.353 100.484 227.425Z" fill="#C6C6C6"/>
<path d="M100.976 229.409L102.535 229.397L103.131 229.392L104.536 229.38C104.536 229.38 104.982 228.779 105.043 227.221C105.044 227.211 104.963 227.221 104.963 227.221C104.761 227.51 104.308 228.296 104.308 228.296L102.825 228.319L101.186 228.324C101.186 228.324 100.722 227.552 100.515 227.264C100.515 227.264 100.436 227.248 100.435 227.256C100.52 228.815 100.976 229.409 100.976 229.409Z" fill="#29ABE2"/>
<path d="M104.444 226.596C104.439 225.968 102.372 225.94 102.377 226.619C102.381 227.215 104.449 227.255 104.444 226.596ZM104.263 226.605C104.267 227.054 102.559 227.029 102.556 226.622C102.553 226.16 104.26 226.177 104.263 226.605Z" fill="black"/>
<path d="M103.672 226.952C103.672 226.952 103.665 226.756 103.432 226.761C103.198 226.766 103.231 226.939 103.226 226.956C103.221 226.973 103.672 226.952 103.672 226.952Z" fill="black"/>
<path d="M103.507 226.815L103.563 226.335L103.255 226.338L103.34 226.816L103.507 226.815Z" fill="black"/>
<path d="M103.297 226.898C103.292 226.897 102.54 226.575 102.54 226.575L102.513 226.768L103.275 226.991L103.297 226.898Z" fill="black"/>
<path d="M103.577 226.895C103.582 226.895 104.317 226.561 104.317 226.561L104.319 226.754L103.606 226.986L103.577 226.895Z" fill="black"/>
<path d="M97.733 231.135C97.733 231.135 100.262 231.095 100.842 233.773C101.423 236.451 101.779 240.136 101.818 240.212C101.858 240.289 98.0668 239.392 97.733 231.135Z" fill="#E8CDA0"/>
<path d="M107.846 231.054C107.846 231.054 105.317 231.055 104.779 233.74C104.241 236.428 103.941 240.117 103.903 240.195C103.865 240.272 107.64 239.316 107.846 231.054Z" fill="#E8CDA0"/>
<path d="M107.571 220.539C107.571 220.539 107.762 221.159 107.15 220.948C105.136 220.25 100.408 220.133 98.2916 221.055C97.8482 221.248 97.8543 221.136 97.8655 220.836C97.8744 220.612 98.174 218.277 98.174 218.277C98.174 218.277 101.791 216.859 107.302 218.206L107.571 220.539Z" fill="#E8CDA0"/>
<path d="M100.223 223.357C100.222 223.229 100.506 222.971 100.684 222.969L104.757 222.938C104.935 222.937 104.969 223.191 104.969 223.32L104.981 224.677C104.981 224.805 104.951 224.97 104.772 224.97L100.7 225.002C100.522 225.003 100.233 224.843 100.233 224.714L100.223 223.357Z" fill="#E8CDA0"/>
<path d="M100.724 212.963C100.718 212.729 100.904 212.535 101.138 212.53L103.604 212.477C103.838 212.471 104.032 212.658 104.037 212.892L104.119 216.68C104.124 216.914 103.938 217.108 103.703 217.113L101.237 217.166C101.004 217.172 100.81 216.985 100.806 216.751L100.724 212.963Z" fill="#394963"/>
<path opacity="0.7" d="M238.135 155.941C219.638 131.97 185.21 127.531 161.238 146.028C137.267 164.526 132.829 198.953 151.326 222.925C169.823 246.896 204.25 251.333 228.223 232.837C252.193 214.34 256.633 179.912 238.135 155.941ZM206.792 200.703C206.77 200.711 205.959 199.928 205.561 199.556C199.47 205.298 189.945 205.121 184.063 199.241C183.578 199.697 182.624 200.573 182.599 200.564L182.189 194.824L187.546 195.916C187.546 195.916 186.578 196.762 186.173 197.152C188.071 199.027 190.62 200.169 192.963 200.57V181.255C192.026 180.647 191.144 179.515 191.144 178.219C191.144 176.279 192.754 174.707 194.693 174.707C196.633 174.707 198.186 176.28 198.186 178.219C198.186 179.528 197.181 180.669 196.243 181.273V200.644C198.587 200.343 201.343 199.286 203.328 197.462C202.841 196.993 202.045 196.195 202.045 196.195L207.556 195.182L206.792 200.703Z" fill="#1AB737"/>
<path d="M194.73 133.528C193.353 70.336 -3.39214 107.57 37.1941 317.055C38.9322 326.025 38.9454 322.281 38.9454 322.281" stroke="white" stroke-width="6" stroke-miterlimit="10" stroke-dasharray="10 10"/>
<path opacity="0.8" d="M63.795 355.983C62.2608 353.555 59.498 351.865 58.0617 349.845C56.625 347.823 56.4094 345.818 54.6984 343.383C52.9875 340.949 50.4652 340.172 49.1137 338.53C47.7614 336.886 46.0514 333.54 44.3311 332.691C42.6112 331.841 41.8022 332.837 41.8022 332.837C41.8022 332.837 40.8047 333.024 40.4212 334.46C39.9258 336.314 41.3161 339.802 41.6602 341.901C42.0047 344.001 40.9247 346.403 41.6278 349.294C42.3314 352.185 43.7053 353.682 44.2777 356.095C44.85 358.507 44.302 361.698 45.1167 364.452L63.795 355.983Z" fill="url(#paint3_linear)"/>
<path d="M41.6032 346.672L53.2404 342.504L48.4915 328.566C48.4915 328.566 45.4498 316.692 36.911 315.3C31.3746 321.555 36.2238 332.634 36.2238 332.634L41.6032 346.672Z" fill="#D1D1D1"/>
<path d="M37.9448 318.316C37.9448 318.316 42.914 316.317 46.6865 326.297C50.459 336.278 50.1459 337.593 50.1459 337.593L40.7859 340.945L39.255 338.052L36.1631 329.418C36.1631 329.418 33.2545 320.339 37.9448 318.316Z" fill="#F4F4F4"/>
<path d="M37.9833 318.232C34.0626 319.552 34.612 324.972 35.9836 329.787L38.9025 337.53L41.1122 343.086L44.3906 342.704L44.6695 341.949L47.9161 340.804C47.9161 340.804 48.5011 341.146 48.599 341.111C49.1484 340.912 51.33 339.383 51.33 339.383C51.33 339.383 50.0494 335.533 49.4737 333.801C49.454 333.742 46.9237 325.979 46.8858 325.884C45.0389 321.249 42.2461 316.795 37.9833 318.232ZM49.2375 333.697C49.3026 333.817 50.6489 339.206 50.6489 339.206C50.6489 339.206 48.7603 340.305 48.2405 340.49C48.1486 340.523 47.5945 340.196 47.5945 340.196L44.5294 341.279L44.2678 341.998L41.4131 342.513L39.0572 337.35C37.3369 332.752 37.4044 332.655 36.307 329.67C35.0203 324.954 34.6767 319.581 38.1173 318.448C41.5373 317.323 44.6123 321.581 46.538 326.007C46.5998 326.183 49.1714 333.633 49.2375 333.697Z" fill="#E8E8E8"/>
<path d="M41.3398 327.474L41.3243 327.426L39.8553 328.213L39.4545 329.089C39.1934 329.47 39.5843 330.771 39.5843 330.771L40.4342 333.144L40.865 333.574L42.4901 332.649L42.7732 331.444L42.4714 330.634L41.3398 327.474Z" fill="white"/>
<path d="M41.3081 327.486L41.325 327.426L42.869 327.134L43.7245 327.561C44.167 327.688 44.6803 328.947 44.6803 328.947L45.5297 331.32L45.4931 331.916L43.6626 332.231L42.7008 331.471L42.4383 330.648L41.3081 327.486Z" fill="white"/>
<path d="M45.0816 330.795C45.0506 330.724 43.9748 329.89 43.9748 329.89L40.8356 330.976L40.4503 332.372L40.507 332.528L40.5352 332.607L40.5633 332.685L40.8806 333.573L45.4852 331.922C45.4852 331.922 45.1125 330.867 45.0816 330.795Z" fill="#C6C6C6"/>
<path d="M49.7273 345.721C49.8094 345.953 49.6875 346.206 49.4555 346.288L47.0152 347.148C46.7836 347.229 46.5295 347.106 46.448 346.876L45.1289 343.126C45.0473 342.895 45.1687 342.641 45.4003 342.559L47.8406 341.7C48.0722 341.618 48.3262 341.741 48.4078 341.972L49.7273 345.721Z" fill="#394963"/>
<path d="M43.8386 328.842L42.2608 329.408L41.658 329.622L40.2363 330.131C40.2363 330.131 40.0084 330.931 40.4983 332.535C40.5016 332.544 40.5859 332.524 40.5859 332.524C40.6881 332.158 40.8709 331.209 40.8709 331.209L42.3705 330.663L44.0308 330.079C44.0308 330.079 44.7761 330.699 45.0873 330.917C45.0873 330.917 45.1642 330.874 45.1605 330.865C44.5216 329.314 43.8386 328.842 43.8386 328.842Z" fill="#29ABE2"/>
<path d="M41.3396 332.987C41.567 333.622 43.6754 332.919 43.4284 332.232C43.2128 331.629 41.1006 332.322 41.3396 332.987ZM41.5187 332.915C41.3565 332.46 43.0979 331.881 43.2451 332.293C43.4124 332.76 41.6738 333.347 41.5187 332.915Z" fill="black"/>
<path d="M41.9957 332.352C41.9957 332.352 42.0717 332.548 42.3074 332.461C42.5428 332.372 42.4481 332.209 42.4471 332.191C42.4462 332.171 41.9957 332.352 41.9957 332.352Z" fill="black"/>
<path d="M42.2354 332.497L42.361 333.04L42.6732 332.927L42.4032 332.437L42.2354 332.497Z" fill="black"/>
<path d="M42.3951 332.276C42.3998 332.274 43.2783 332.334 43.2783 332.334L43.2379 332.129L42.3862 332.174L42.3951 332.276Z" fill="black"/>
<path d="M42.0781 332.39C42.0734 332.392 41.411 333.005 41.411 333.005L41.3412 332.809L41.9984 332.314L42.0781 332.39Z" fill="black"/>
<path d="M46.539 326.007C46.539 326.007 43.9881 326.943 42.4501 324.432C40.9121 321.921 39.2448 318.31 39.1768 318.247C39.1107 318.181 43.2727 317.748 46.539 326.007Z" fill="#E8CDA0"/>
<path d="M36.3079 329.67C36.3079 329.67 38.8729 328.775 38.4665 325.858C38.0619 322.94 37.0579 319.093 37.0682 319.001C37.0799 318.909 33.5882 321.217 36.3079 329.67Z" fill="#E8CDA0"/>
<path d="M40.3138 340.243C40.3138 340.243 39.9013 339.681 40.5969 339.68C42.8863 339.674 47.7257 338.117 49.5454 336.431C49.926 336.077 49.9602 336.193 50.0544 336.501C50.1257 336.732 50.6493 339.206 50.6493 339.206C50.6493 339.206 47.4829 341.927 41.4144 342.515L40.3138 340.243Z" fill="#E8CDA0"/>
<path d="M46.6173 334.833C46.6637 334.963 46.5452 335.066 46.3637 335.132L42.2444 336.607C42.0644 336.673 41.8492 336.688 41.8028 336.558L41.3106 335.183C41.2642 335.053 41.4119 334.849 41.5923 334.784L45.7117 333.308C45.8927 333.244 46.0792 333.329 46.1256 333.459L46.6173 334.833Z" fill="#E8CDA0"/>
<path d="M42.7662 333.719C42.7662 333.719 42.8576 333.354 43.1539 333.732C43.4492 334.113 43.8397 334.448 43.8397 334.448C43.8397 334.448 44.2358 334.106 44.2409 333.951C44.2461 333.797 43.932 333.251 44.263 332.926C44.5934 332.601 44.7312 332.428 44.8372 333.105C44.944 333.782 45.0753 334.234 45.0753 334.234L43.594 335.357L42.8094 333.812" fill="#996234"/>
<path d="M43.6295 335.053C43.6295 335.053 42.6189 334.437 42.9555 334.321C43.2902 334.206 43.2367 334.529 43.6539 334.364C44.0711 334.198 43.8709 333.909 44.4494 333.85C45.0273 333.793 45.145 333.557 45.1853 333.866C45.2261 334.177 45.2617 334.302 45.2617 334.302L43.6295 335.053Z" fill="#EF45B7"/>
<path d="M43.1919 335.36C43.1919 335.36 42.8385 334.664 42.7349 334.489C42.5413 334.162 42.5066 333.313 42.4471 333.184C42.3876 333.054 42.3458 332.907 42.6074 333.022C42.8685 333.135 42.996 333.863 43.071 334.221C43.1465 334.579 43.5383 334.876 43.5941 334.978C43.6508 335.079 43.3658 335.027 43.3658 335.027L43.1919 335.36Z" fill="#996234"/>
<path d="M45.4453 334.381C45.4453 334.381 45.3215 333.524 45.2564 333.33C45.135 332.97 44.5158 332.392 44.4553 332.263C44.3958 332.133 44.3133 332.005 44.2293 332.277C44.1459 332.549 44.6128 333.121 44.835 333.412C45.0567 333.701 44.8687 334.226 44.9095 334.336C44.9498 334.444 45.2554 334.162 45.2554 334.162L45.4453 334.381Z" fill="#996234"/>
<path d="M42.8776 335.504C42.8776 335.504 43.4134 336.323 44.0397 336.251C44.6659 336.18 44.8825 336.155 45.2748 335.72C45.6662 335.282 45.9798 335.28 45.7394 334.855C45.5003 334.434 45.6906 334.067 45.235 334.193C44.7447 334.328 43.48 334.808 43.39 334.836C42.843 335.013 42.8776 335.504 42.8776 335.504Z" fill="#8BC7E8"/>
<path d="M44.6899 335.953C44.6899 335.953 44.1733 336.132 44.0608 335.69C43.9479 335.25 43.6629 335.199 43.953 334.911C44.2441 334.625 44.2614 334.204 44.5708 334.473C44.8807 334.742 45.0757 334.873 45.0738 335.163C45.0724 335.453 45.1225 335.503 45.0499 335.718C44.9796 335.933 44.6899 335.953 44.6899 335.953Z" fill="#301705"/>
<path d="M190.291 132.909L194.849 139.293L199.169 132.746L190.291 132.909Z" fill="white"/>
<rect x="315.775" y="15.4141" width="45.0996" height="25" rx="12.5" fill="#969696" fill-opacity="0.3"/>
<path d="M323.886 33.04H323.066V24.0713L320.359 25.0762V24.3105L323.75 23.0527H323.886V33.04ZM333.846 28.8906C333.846 30.2943 333.589 31.3607 333.074 32.0898C332.559 32.8145 331.8 33.1768 330.797 33.1768C329.813 33.1768 329.059 32.8213 328.535 32.1104C328.011 31.3949 327.742 30.3558 327.728 28.9932V27.209C327.728 25.8099 327.988 24.7503 328.507 24.0303C329.027 23.3102 329.786 22.9502 330.784 22.9502C331.768 22.9502 332.52 23.2988 333.04 23.9961C333.559 24.6888 333.828 25.7119 333.846 27.0654V28.8906ZM333.026 27.1064C333.026 25.9671 332.839 25.1058 332.465 24.5225C332.096 23.9391 331.536 23.6475 330.784 23.6475C330.045 23.6475 329.489 23.9323 329.116 24.502C328.742 25.0716 328.551 25.9124 328.542 27.0244V28.9795C328.542 30.1143 328.733 30.9824 329.116 31.584C329.503 32.1855 330.064 32.4863 330.797 32.4863C331.527 32.4863 332.078 32.1924 332.452 31.6045C332.83 31.0166 333.021 30.1553 333.026 29.0205V27.1064ZM335.624 33.8945H334.878L339.035 23.0869H339.773L335.624 33.8945ZM347.409 33.04H341.174V32.4111L344.585 28.542C345.151 27.8903 345.542 27.3525 345.761 26.9287C345.98 26.5049 346.089 26.0924 346.089 25.6914C346.089 25.0625 345.905 24.5658 345.536 24.2012C345.167 23.832 344.658 23.6475 344.011 23.6475C343.341 23.6475 342.799 23.8617 342.384 24.29C341.974 24.7184 341.769 25.2744 341.769 25.958H340.956C340.956 25.3975 341.081 24.887 341.332 24.4268C341.587 23.9665 341.947 23.6064 342.412 23.3467C342.881 23.0824 343.414 22.9502 344.011 22.9502C344.923 22.9502 345.634 23.1895 346.144 23.668C346.659 24.1465 346.917 24.7982 346.917 25.623C346.917 26.0879 346.771 26.596 346.479 27.1475C346.192 27.6989 345.684 28.387 344.955 29.2119L342.179 32.3496H347.409V33.04ZM353.964 29.834H355.516V30.5244H353.964V33.04H353.144V30.5244H348.461V30.0596L353.069 23.0869H353.964V29.834ZM349.466 29.834H353.144V24.1465L352.782 24.7754L349.466 29.834Z" fill="black"/>
</g>
<defs>
<radialGradient id="paint0_radial" cx="0" cy="0" r="1" gradientUnits="userSpaceOnUse" gradientTransform="translate(101.882 510.473) rotate(-18.2592) scale(479.843)">
<stop stop-color="#58F1FE"/>
<stop offset="0.646" stop-color="#58F1FE"/>
<stop offset="0.7523" stop-color="#58F1FE"/>
<stop offset="0.9693" stop-color="#58F1FE" stop-opacity="0.37"/>
<stop offset="1" stop-color="#58F1FE" stop-opacity="0.26"/>
</radialGradient>
<radialGradient id="paint1_radial" cx="0" cy="0" r="1" gradientUnits="userSpaceOnUse" gradientTransform="translate(179.212 210.098) scale(194.024)">
<stop stop-color="#58F1FE"/>
<stop offset="0.646" stop-color="#58F1FE"/>
<stop offset="0.7523" stop-color="#58F1FE"/>
<stop offset="0.9693" stop-color="#58F1FE" stop-opacity="0.45"/>
<stop offset="1" stop-color="#58F1FE" stop-opacity="0.15"/>
</radialGradient>
<radialGradient id="paint2_radial" cx="0" cy="0" r="1" gradientUnits="userSpaceOnUse" gradientTransform="translate(179.202 58.0889) scale(146.562)">
<stop stop-color="#42C9CC"/>
<stop offset="0.646" stop-color="#42C9CC"/>
<stop offset="0.7523" stop-color="#42C9CC"/>
<stop offset="0.9693" stop-color="#42C9CC" stop-opacity="0.3868"/>
<stop offset="1" stop-color="#42C9CC" stop-opacity="0.3"/>
</radialGradient>
<linearGradient id="paint3_linear" x1="42.137" y1="333.041" x2="54.4696" y2="360.248" gradientUnits="userSpaceOnUse">
<stop stop-color="white" stop-opacity="0.8"/>
<stop offset="1" stop-color="white" stop-opacity="0"/>
</linearGradient>
<clipPath id="clip0">
<rect width="375" height="375" fill="white" transform="translate(0.775146 0.414062)"/>
</clipPath>
</defs>
</svg>
