<svg width="376" height="376" viewBox="0 0 376 376" fill="none" xmlns="http://www.w3.org/2000/svg">
<g clip-path="url(#clip0)">
<path d="M-79.5737 457.178C-70.8475 454.298 401.166 482.894 474.241 458.784L442.699 -24.9883L-65.853 -18.5294L-79.5737 457.178Z" fill="#EFDE95"/>
<path d="M394.344 95.1041C392.922 91.9138 390.483 90.1288 389.375 89.0141C388.267 87.8999 383.271 86.2161 382.276 84.3243C381.281 82.4324 378.556 76.8646 377.65 76.6963C376.742 76.5271 376.858 74.6371 372.857 74.848C368.856 75.059 366.412 74.3849 364.86 73.0462C363.308 71.7079 365.305 73.2697 363.308 71.7079C361.311 70.1455 358.531 68.4444 355.646 67.5585C352.765 66.674 352.63 66.2666 349.975 66.073C347.321 65.8794 345.777 64.5651 343.718 63.9355C341.66 63.306 340.423 61.7994 339.548 60.2694C338.673 58.7399 340.331 58.1554 336.778 58.6054C333.226 59.0563 332.313 63.0201 329.435 61.0283C326.556 59.0366 324.695 59.0038 322.796 57.7335C320.897 56.4632 316.788 54.1058 316.788 54.1058C316.788 54.1058 314.345 54.554 312.794 53.2157C311.241 51.8774 309.139 48.8699 309.139 48.8699C309.139 48.8699 308.252 48.4227 307.029 48.0857C305.808 47.7482 303.592 45.5188 301.592 45.0683C299.594 44.6179 295.934 42.4949 294.043 42.3777C292.154 42.261 278.945 36.9979 273.831 37.2041C268.719 37.4108 264.613 35.0647 258.839 33.2685C253.065 31.4727 256.826 37.2637 246.393 32.5635C235.96 27.8643 227.826 28.7122 227.826 28.7122C227.826 28.7122 206.507 25.7399 204.509 26.0287C202.51 26.3179 194.845 25.5163 194.845 25.5163C194.845 25.5163 188.177 25.4962 181.953 25.6991C175.726 25.9026 170.627 21.6637 165.734 22.5379C160.84 23.4126 159.431 23.1369 153.017 25.2538C146.603 27.3702 151.048 27.3838 144.437 26.9741C137.824 26.5644 135.492 26.2246 132.935 26.3282C130.378 26.4322 129.377 26.7618 128.155 26.4243C126.934 26.0877 123.6 26.0779 121.822 26.2944C120.043 26.511 115.37 28.0527 113.041 26.6005C110.711 25.1488 113.605 23.8227 108.488 25.1418C103.372 26.4608 102.023 28.0147 98.8075 27.2263C95.5924 26.4365 95.6284 26.0544 91.8349 25.4558C88.0394 24.8577 80.507 22.3279 79.7153 23.8012C78.9246 25.2744 71.8089 26.1416 69.3616 26.579C66.9152 27.0158 60.0194 28.5505 57.6836 29.3216C55.3474 30.0927 45.6682 33.2858 44.0022 32.7262C42.3367 32.1651 40.8921 32.2715 39.116 31.3776C37.3403 30.4837 32.3041 31.0344 32.3041 31.0344L28.7735 31.8294L8.07065 36.4391C8.07065 36.4391 9.63017 35.5541 1.91315 36.6205C-5.80389 37.6869 -7.67701 37.9349 -7.67701 37.9349L-15.8206 39.8807C-15.8206 39.8807 -18.8309 40.3147 -20.7148 40.7535C-24.582 41.6526 -22.7506 39.4152 -29.1345 42.5408C-36.5056 46.1502 -39.0608 45.6979 -42.619 46.1319C-46.1769 46.5655 -47.7322 46.3387 -48.7334 46.6687C-49.7342 46.9987 -57.4737 47.9821 -59.0806 50.0826C-60.6861 52.1826 -69.267 52.1483 -69.267 52.1483L-79.0044 56.4365L-81.1011 449.872L400.117 453.914V95.2129C396.873 97.7718 395.432 97.5402 394.344 95.1041Z" fill="url(#paint0_radial)" stroke="url(#paint1_radial)" stroke-miterlimit="10"/>
<path d="M394.172 85.9966C391.913 84.8913 389.956 83.3163 387.561 81.6667C385.166 80.0163 381.809 76.0117 379.361 73.6384C376.911 71.2656 375.093 73.0455 368.006 70.6291C360.916 68.2131 357.562 63.6574 352.37 62.5038C347.178 61.3497 342.685 57.8317 341.469 56.3833C340.249 54.9344 330.178 49.7749 322.818 49.2128C315.458 48.6513 319.039 48.9789 315.159 46.188C312.306 44.1367 305.833 42.6034 302.278 41.9256C298.724 41.2488 293.505 40.0094 291.064 38.2244C288.625 36.4389 280.405 35.0795 274.182 34.1716C267.962 33.2641 267.632 32.2624 261.52 31.6881C255.409 31.1134 251.081 29.2113 251.081 29.2113C251.081 29.2113 244.978 25.3028 237.757 24.7253C230.534 24.1483 220.862 25.1186 219.463 25.2095C218.066 25.3005 211.345 26.3036 206.611 23.5281C201.876 20.7527 195.824 24.9124 192.892 24.6958C189.958 24.4802 181.64 21.7745 181.64 21.7745C181.64 21.7745 168.416 20.9561 164.69 18.6419C160.965 16.3272 151.596 23.1742 150.959 23.1733C150.322 23.1714 144.632 20.6627 144.632 20.6627C144.632 20.6627 138.634 19.3108 135.633 19.1894C132.633 19.068 123.872 23.605 122.051 23.6706C120.23 23.7372 115.349 23.9524 112.737 21.5856C110.126 19.218 106.863 24.3958 103.632 24.5899C100.402 24.7834 96.9433 23.073 95.3608 22.4856C93.7774 21.8974 87.0536 22.2658 84.1465 21.3747C81.2388 20.4836 74.9322 24.7853 73.0704 25.0295C71.2085 25.2733 68.2633 24.7647 66.8046 23.7077C65.3454 22.6516 61.1304 25.5799 61.1304 25.5799C61.1304 25.5799 52.3277 25.2114 47.1363 28.0347C41.9454 30.857 41.9093 29.0195 37.6835 29.6725C33.7188 30.2861 28.2354 30.1994 27.1207 29.4564C26.006 28.7139 13.9193 31.7144 13.9193 31.7144L4.46506 34.4308C4.46506 34.4308 -5.0173 38.4686 -6.29464 37.9811C-7.57151 37.4931 -11.7204 39.7713 -11.7204 39.7713C-11.7204 39.7713 -14.7992 37.7374 -16.1201 37.0628C-17.442 36.3883 -21.3574 38.0509 -23.951 36.8186C-26.5446 35.5853 -27.0818 38.0884 -27.0818 38.0884L-29.3196 39.5674C-29.3196 39.5674 -32.1068 42.3372 -36.6504 42.0269C-41.194 41.7161 -39.492 43.6619 -41.3693 43.5822C-43.2467 43.5025 -46.9601 43.4645 -46.9601 43.4645C-46.9601 43.4645 -51.506 45.3991 -54.3996 46.7242C-57.2932 48.0494 -56.779 49.8977 -59.4129 48.3709C-62.0478 46.8447 -60.9795 47.0214 -63.2028 47.0149C-65.426 47.0078 -65.5704 48.8758 -71.0749 49.5813L-81.1001 52.7191L-79.0034 59.073L-69.266 54.7844C-69.266 54.7844 -60.6851 54.8186 -59.0796 52.7186C-57.4732 50.6181 -49.7337 49.6347 -48.7324 49.3042C-47.7307 48.9733 -46.1759 49.2006 -42.6181 48.767C-39.0603 48.3339 -36.5046 48.7863 -29.134 45.1764C-22.7492 42.0508 -24.581 44.2881 -20.7143 43.3891C-18.8304 42.9503 -15.8201 42.5167 -15.8201 42.5167L-7.67698 40.5705C-7.67698 40.5705 -5.80432 40.322 1.91364 39.2561C9.63161 38.1902 8.07114 39.0747 8.07114 39.0747L28.774 34.4645L32.3055 33.67C32.3055 33.67 37.3422 33.1188 39.1179 34.0136C40.8935 34.908 42.3382 34.8011 44.0041 35.3617C45.6701 35.9228 55.3483 32.7288 57.6855 31.9581C60.0218 31.187 66.9176 29.6524 69.3635 29.2155C71.8108 28.7786 78.926 27.9109 79.7177 26.4381C80.5099 24.9649 88.0413 27.4942 91.8368 28.0933C95.6308 28.6919 95.5943 29.0734 98.8094 29.8633C102.024 30.6536 103.374 29.0974 108.49 27.7788C113.606 26.4606 110.713 27.7853 113.042 29.2375C115.371 30.6892 120.044 29.1475 121.823 28.9305C123.602 28.7134 126.936 28.7238 128.156 29.0608C129.378 29.3978 130.379 29.0683 132.936 28.9647C135.493 28.8611 137.826 29.2014 144.438 29.6106C151.049 30.0203 146.604 30.0058 153.018 27.8903C159.432 25.7734 160.841 26.0486 165.734 25.1739C170.628 24.2997 175.727 28.5386 181.952 28.3347C188.178 28.1313 194.845 28.1514 194.845 28.1514C194.845 28.1514 202.511 28.9534 204.51 28.6647C206.508 28.3755 227.826 31.3483 227.826 31.3483C227.826 31.3483 235.961 30.5008 246.394 35.1995C256.826 39.8988 253.064 34.1092 258.839 35.9045C264.613 37.7013 268.719 40.0474 273.832 39.8402C278.944 39.6334 292.153 44.8975 294.044 45.0142C295.933 45.1309 299.594 47.2539 301.593 47.7044C303.593 48.1549 305.808 50.3847 307.03 50.7217C308.251 51.0592 309.138 51.5059 309.138 51.5059C309.138 51.5059 311.241 54.5139 312.794 55.8517C314.345 57.1895 316.788 56.7409 316.788 56.7409C316.788 56.7409 320.898 59.0997 322.796 60.37C324.695 61.6399 326.556 61.6731 329.434 63.6648C332.313 65.657 333.225 61.6938 336.777 61.2419C340.33 60.7909 338.673 61.3769 339.548 62.9069C340.422 64.4364 341.659 65.9434 343.718 66.573C345.776 67.2016 347.32 68.5169 349.975 68.7105C352.628 68.9036 352.763 69.3114 355.646 70.1964C358.53 71.0814 361.311 72.783 363.307 74.3448C365.304 75.9072 363.307 74.3448 364.86 75.6831C366.412 77.0209 368.855 77.6955 372.856 77.485C376.858 77.275 376.741 79.1645 377.65 79.3328C378.556 79.5016 381.281 85.0694 382.275 86.9613C383.269 88.8541 388.266 90.5359 389.375 91.6506C390.482 92.7653 392.921 94.5513 394.344 97.7411C395.431 100.176 396.872 100.407 400.117 97.8499L396.449 86.7353C395.433 86.447 394.602 86.207 394.172 85.9966Z" fill="white" stroke="url(#paint2_radial)" stroke-miterlimit="10"/>
<path opacity="0.8" d="M-71.0759 49.5818C-65.5713 48.8759 -65.4265 47.0089 -63.2037 47.0145C-60.9809 47.0215 -62.0487 46.8443 -59.4143 48.371C-56.7799 49.8978 -57.2951 48.0485 -54.4005 46.7243C-51.507 45.4001 -46.9615 43.4642 -46.9615 43.4642C-46.9615 43.4642 -43.2476 43.5031 -41.3702 43.5818C-39.4934 43.6606 -41.1949 41.7162 -36.6513 42.026C-32.1077 42.3368 -29.3201 39.567 -29.3201 39.567L-27.0823 38.0876C-27.0823 38.0876 -26.546 35.5849 -23.952 36.8182C-21.3579 38.0501 -17.4429 36.3879 -16.121 37.0624C-14.8001 37.737 -11.7213 39.7709 -11.7213 39.7709C-11.7213 39.7709 -7.57195 37.4928 -6.29555 37.9812C-5.01914 38.4682 4.46367 34.4309 4.46367 34.4309L13.9188 31.7154C13.9188 31.7154 26.0055 28.7149 27.1202 29.4574C28.2349 30.2004 33.7188 30.2871 37.683 29.6735C41.9084 29.0192 41.9435 30.8576 47.1354 28.0357C52.3268 25.2134 61.1295 25.5814 61.1295 25.5814C61.1295 25.5814 65.344 22.6526 66.8032 23.7092C68.2619 24.7667 71.2076 25.2748 73.0695 25.0306C74.9304 24.7864 81.2374 20.4856 84.1455 21.3757C87.0527 22.2668 93.7765 21.8993 95.3599 22.4871C96.9429 23.0754 100.402 24.7849 103.632 24.5914C106.862 24.3982 110.125 19.2204 112.737 21.5871C115.348 23.9534 120.229 23.7392 122.05 23.6731C123.872 23.607 132.632 19.0704 135.632 19.1914C138.634 19.3128 144.631 20.6651 144.631 20.6651C144.631 20.6651 150.321 23.1734 150.958 23.1757C151.594 23.1776 160.965 16.3301 164.69 18.6448C168.415 20.9595 181.638 21.7779 181.638 21.7779C181.638 21.7779 189.958 24.484 192.89 24.6992C195.824 24.9139 201.874 20.7556 206.609 23.531C211.345 26.306 218.064 25.3029 219.463 25.212C220.86 25.1206 230.532 24.1507 237.755 24.7278C244.977 25.3053 251.079 29.2142 251.079 29.2142C251.079 29.2142 255.407 31.1173 261.519 31.6915C267.631 32.2657 267.96 33.2674 274.181 34.1754C280.402 35.0829 288.623 36.4428 291.063 38.2278C293.503 40.0128 298.723 41.2526 302.278 41.9295C305.831 42.6073 312.304 44.141 315.158 46.1918C319.038 48.9818 315.457 48.6542 322.818 49.2162C330.177 49.7787 340.249 54.9373 341.466 56.3857C342.685 57.8346 347.176 61.3521 352.369 62.5062C357.561 63.6598 360.915 68.2146 368.004 70.6315C375.093 73.0493 376.912 71.2662 379.361 73.6395C381.81 76.0132 385.166 80.0187 387.561 81.6678C389.956 83.3163 391.913 84.8918 394.172 85.9976C396.431 87.1024 409.586 88.9685 403.691 94.6568C397.797 100.345 395.769 100.931 394.345 97.7407C392.923 94.5513 390.483 92.7654 389.376 91.6507C388.268 90.536 383.272 88.8537 382.277 86.9609C381.282 85.0685 378.557 79.5017 377.65 79.3329C376.742 79.1642 376.859 77.2737 372.858 77.4851C368.857 77.696 366.413 77.0215 364.861 75.6828C363.309 74.3445 365.306 75.9063 363.309 74.3445C361.312 72.7821 358.531 71.081 355.647 70.1951C352.765 69.3101 352.631 68.9032 349.976 68.7087C347.322 68.5156 345.778 67.2007 343.719 66.5712C341.661 65.9421 340.424 64.4356 339.549 62.9056C338.674 61.3765 340.331 60.7906 336.779 61.242C333.227 61.6924 332.314 65.6557 329.435 63.6645C326.557 61.6728 324.696 61.6399 322.797 60.3696C320.898 59.0993 316.789 56.742 316.789 56.742C316.789 56.742 314.346 57.1896 312.795 55.8523C311.242 54.5135 309.139 51.5065 309.139 51.5065C309.139 51.5065 308.252 51.0598 307.03 50.7218C305.809 50.3848 303.593 48.1559 301.593 47.7049C299.595 47.2545 295.935 45.1315 294.044 45.0148C292.155 44.8981 278.946 39.6349 273.832 39.8417C268.72 40.0474 264.614 37.7014 258.84 35.9056C253.066 34.1093 256.827 39.9007 246.394 35.2001C235.961 30.5009 227.827 31.3493 227.827 31.3493C227.827 31.3493 206.508 28.3774 204.51 28.6657C202.512 28.954 194.845 28.1524 194.845 28.1524C194.845 28.1524 188.178 28.1323 181.953 28.3362C178.836 28.4384 173.667 23.7579 165.734 25.1749C160.841 26.0496 159.432 25.7735 153.018 27.8904C146.604 30.0064 151.049 30.0199 144.438 29.6107C137.826 29.202 135.493 28.8607 132.936 28.9648C130.379 29.0684 129.378 29.3984 128.156 29.0609C126.935 28.7243 123.601 28.7145 121.822 28.931C120.043 29.1476 115.371 30.6893 113.041 29.2371C110.712 27.7849 113.606 26.4603 108.489 27.7784C103.372 29.0965 102.023 30.6523 98.8076 29.8629C95.5924 29.0726 95.629 28.6906 91.8349 28.0924C88.0394 27.4939 80.5071 24.9645 79.7154 26.4378C78.9246 27.911 71.809 28.7787 69.3621 29.2151C66.9157 29.6524 60.0199 31.1871 57.6841 31.9578C55.3474 32.7293 45.6687 35.9224 44.0027 35.3618C42.3373 34.8012 40.8926 34.9076 39.1165 34.0132C37.3409 33.1193 32.3046 33.6706 32.3046 33.6706L28.773 34.4656L8.07024 39.0757C8.07024 39.0757 9.62929 38.1907 1.91226 39.2571C-5.80477 40.3231 -7.67789 40.571 -7.67789 40.571L-15.8205 42.5173C-15.8205 42.5173 -18.8309 42.9514 -20.7143 43.3896C-24.5815 44.2887 -22.7501 42.0518 -29.1345 45.177C-36.5056 48.7868 -39.0607 48.334 -42.619 48.7681C-46.1773 49.2017 -47.7321 48.9748 -48.7334 49.3053C-49.7346 49.6362 -57.4741 50.6187 -59.0801 52.7196C-60.686 54.8192 -69.267 54.7854 -69.267 54.7854L-73.3179 56.1218L-75.1348 50.6149L-71.0759 49.5818Z" fill="white"/>
<path d="M277.132 14.0442L279.837 8.62736C278.439 7.86893 276.744 7.62189 275.112 8.12205L277.073 14.0644L277.132 14.0442Z" fill="#E8628F"/>
<path d="M282.754 12.1606C282.743 12.1264 282.738 12.0926 282.726 12.0584C282.216 10.5153 281.15 9.31574 279.826 8.59668L277.111 13.9845L282.754 12.1606Z" fill="white"/>
<path d="M277.072 14.0644L275.111 8.12207C275.068 8.1352 275.025 8.14316 274.983 8.15769C273.376 8.68785 272.144 9.85035 271.438 11.2514L277.012 14.0841L277.072 14.0644Z" fill="#F9F9F9"/>
<path d="M277.112 13.9846L277.073 14.0643L282.379 16.738C283.07 15.3664 283.244 13.7371 282.755 12.1611L277.112 13.9846Z" fill="#E8628F"/>
<path d="M271.429 11.2207C270.723 12.6218 270.551 14.2924 271.082 15.9002C271.086 15.9105 271.091 15.9204 271.093 15.9312L276.992 14.0238L271.429 11.2207Z" fill="#E8628F"/>
<path d="M277.072 14.0645L278.949 19.7532C280.495 19.2062 281.692 18.1018 282.378 16.7373L277.072 14.0645Z" fill="white"/>
<path d="M277.072 14.0647L276.991 14.0244L271.093 15.9318C271.649 17.5893 272.847 18.8469 274.318 19.5327L277.072 14.0647Z" fill="white"/>
<path d="M274.318 19.531C275.683 20.1671 277.281 20.3105 278.825 19.8015C278.867 19.7879 278.907 19.7682 278.949 19.7532L277.072 14.0645L274.318 19.531Z" fill="#E8628F"/>
<path d="M241.925 12.099L244.63 6.68164C243.232 5.9232 241.537 5.6771 239.906 6.17632L241.866 12.1187L241.925 12.099Z" fill="#E8628F"/>
<path d="M247.548 10.2153C247.537 10.1811 247.531 10.1468 247.519 10.1126C247.01 8.56996 245.944 7.36996 244.621 6.65137L241.906 12.0392L247.548 10.2153Z" fill="white"/>
<path d="M241.867 12.1181L239.906 6.17578C239.862 6.18891 239.819 6.19734 239.777 6.21141C238.17 6.74156 236.939 7.90406 236.233 9.30469L241.807 12.1373L241.867 12.1181Z" fill="#F9F9F9"/>
<path d="M241.906 12.0383L241.867 12.118L247.173 14.7917C247.865 13.4206 248.039 11.7912 247.549 10.2148L241.906 12.0383Z" fill="#E8628F"/>
<path d="M236.223 9.27539C235.518 10.677 235.346 12.3471 235.876 13.9545C235.88 13.9652 235.885 13.9746 235.888 13.9854L241.785 12.078L236.223 9.27539Z" fill="#E8628F"/>
<path d="M241.867 12.1182L243.744 17.8064C245.29 17.2599 246.487 16.1555 247.173 14.7905L241.867 12.1182Z" fill="white"/>
<path d="M241.866 12.1184L241.786 12.0781L235.887 13.9855C236.444 15.642 237.641 16.9006 239.112 17.5855L241.866 12.1184Z" fill="white"/>
<path d="M239.113 17.5852C240.478 18.2213 242.076 18.3647 243.619 17.8547C243.662 17.8411 243.701 17.821 243.744 17.8064L241.867 12.1182L239.113 17.5852Z" fill="#E8628F"/>
<path d="M305.435 33.5655L308.14 28.1486C306.742 27.3902 305.047 27.1436 303.416 27.6433L305.376 33.5852L305.435 33.5655Z" fill="#E8628F"/>
<path d="M311.057 31.6825C311.047 31.6483 311.04 31.6141 311.028 31.5794C310.519 30.0363 309.453 28.8363 308.13 28.1182L305.415 33.506L311.057 31.6825Z" fill="white"/>
<path d="M305.376 33.5859L303.415 27.6436C303.372 27.6567 303.329 27.6646 303.286 27.6792C301.679 28.2089 300.448 29.3714 299.742 30.7725L305.316 33.6051L305.376 33.5859Z" fill="#F9F9F9"/>
<path d="M305.416 33.5065L305.376 33.5852L310.683 36.259C311.373 34.8879 311.548 33.258 311.058 31.6816L305.416 33.5065Z" fill="#E8628F"/>
<path d="M299.733 30.7422C299.027 32.1437 298.855 33.8144 299.386 35.4217C299.389 35.432 299.395 35.4423 299.397 35.4522L305.296 33.5448L299.733 30.7422Z" fill="#E8628F"/>
<path d="M305.376 33.5859L307.253 39.2742C308.799 38.7272 309.997 37.6228 310.682 36.2583L305.376 33.5859Z" fill="white"/>
<path d="M305.376 33.5862L305.295 33.5459L299.397 35.4532C299.953 37.1098 301.152 38.3684 302.621 39.0537L305.376 33.5862Z" fill="white"/>
<path d="M302.621 39.053C303.987 39.6891 305.585 39.8316 307.129 39.3225C307.171 39.3089 307.21 39.2888 307.253 39.2742L305.376 33.5859L302.621 39.053Z" fill="#E8628F"/>
<path d="M308.623 295.626C339.918 295.626 365.287 270.257 365.287 238.962C365.287 207.668 339.918 182.299 308.623 182.299C277.329 182.299 251.96 207.668 251.96 238.962C251.96 270.257 277.329 295.626 308.623 295.626Z" stroke="white" stroke-width="3" stroke-miterlimit="10" stroke-dasharray="10.06 10.06"/>
<path d="M308.624 238.962L308.916 182.3" stroke="white" stroke-width="2" stroke-miterlimit="10"/>
<path d="M316.057 179.732L302.497 179.472L301.936 195.658C301.936 195.658 300.428 209.041 308.645 213.797C316.763 209.536 316.106 196.255 316.106 196.255L316.057 179.732Z" fill="#E5E5E5"/>
<path d="M308.67 210.318C308.67 210.318 302.836 210.486 302.856 198.778C302.875 187.069 303.753 185.896 303.753 185.896L314.661 186.104L314.927 189.559L314.736 199.621C314.736 199.621 314.271 210.069 308.67 210.318Z" fill="#E2E2E2"/>
<path d="M308.687 210.39C313.224 210.562 314.772 204.788 315.24 199.316L315.263 190.234L315.162 183.676L311.65 182.79L311.069 183.456L307.292 183.367C307.292 183.367 306.824 182.789 306.712 182.785C306.072 182.774 303.238 183.493 303.238 183.493C303.238 183.493 303.052 187.94 302.967 189.942C302.964 190.009 302.535 198.958 302.536 199.071C302.625 204.546 303.754 210.202 308.687 210.39ZM303.168 190.139C303.148 189.992 303.868 183.939 303.868 183.939C303.868 183.939 306.232 183.547 306.839 183.558C306.946 183.561 307.386 184.113 307.386 184.113L310.951 184.198L311.5 183.562L314.629 184.146L315.034 190.36C315.006 195.747 314.9 195.82 314.862 199.31C314.345 204.647 312.602 210.297 308.631 210.117C304.684 209.939 303.19 204.372 302.939 199.081C302.947 198.876 303.211 190.231 303.168 190.139Z" fill="#CECECE"/>
<path d="M306.448 198.522L307.115 199.293L308.738 199.593V199.588L308.882 199.591H308.906L309.138 199.595L309.138 199.601L310.728 199.361L311.474 198.619C311.89 198.331 311.992 196.842 311.992 196.842L312.045 194.078L311.741 193.469L309.7 193.782L308.998 194.838L308.341 193.756L306.333 193.365L306.049 193.962L305.995 196.727C305.994 196.727 306.042 198.218 306.448 198.522Z" fill="#EFEFEF"/>
<path d="M306.3 194.796C306.304 194.88 307.084 196.127 307.084 196.127L310.707 196.218L311.627 194.922L311.63 194.739L311.632 194.649L311.635 194.557L311.651 193.646L306.324 193.543C306.324 193.543 306.296 194.71 306.3 194.796Z" fill="#C6C6C6"/>
<path d="M306.816 197.151L308.656 197.186L309.358 197.198L311.015 197.229C311.015 197.229 311.559 196.534 311.681 194.699C311.682 194.688 311.586 194.696 311.586 194.696C311.338 195.032 310.781 195.942 310.781 195.942L309.031 195.922L307.1 195.876C307.1 195.876 306.578 194.951 306.343 194.605C306.343 194.605 306.249 194.583 306.248 194.594C306.298 196.436 306.816 197.151 306.816 197.151Z" fill="#29ABE2"/>
<path d="M310.993 193.945C311.008 193.205 308.572 193.105 308.557 193.906C308.543 194.609 310.979 194.72 310.993 193.945ZM310.782 193.949C310.771 194.478 308.759 194.395 308.768 193.916C308.779 193.37 310.791 193.445 310.782 193.949Z" fill="black"/>
<path d="M310.074 194.341C310.074 194.341 310.071 194.11 309.795 194.107C309.52 194.106 309.553 194.312 309.547 194.332C309.54 194.351 310.074 194.341 310.074 194.341Z" fill="black"/>
<path d="M309.883 194.174L309.965 193.609L309.601 193.604L309.687 194.17L309.883 194.174Z" fill="black"/>
<path d="M309.634 194.264C309.627 194.263 308.751 193.86 308.751 193.86L308.713 194.087L309.602 194.372L309.634 194.264Z" fill="black"/>
<path d="M309.964 194.269C309.969 194.269 310.847 193.899 310.847 193.899L310.843 194.126L309.995 194.378L309.964 194.269Z" fill="black"/>
<path d="M302.939 199.082C302.939 199.082 305.922 199.115 306.52 202.291C307.12 205.467 307.424 209.821 307.468 209.913C307.512 210.005 303.071 208.827 302.939 199.082Z" fill="#E8CDA0"/>
<path d="M314.864 199.309C314.864 199.309 311.884 199.229 311.163 202.38C310.443 205.531 309.973 209.869 309.925 209.958C309.877 210.049 314.359 209.041 314.864 199.309Z" fill="#E8CDA0"/>
<path d="M314.873 186.904C314.873 186.904 315.078 187.641 314.363 187.373C312.012 186.485 306.442 186.197 303.918 187.218C303.389 187.433 303.4 187.3 303.423 186.947C303.44 186.682 303.868 183.94 303.868 183.94C303.868 183.94 308.176 182.384 314.63 184.146L314.873 186.904Z" fill="#E8CDA0"/>
<path d="M306.122 189.994C306.126 189.842 306.468 189.547 306.679 189.551L311.479 189.642C311.691 189.647 311.722 189.948 311.719 190.1L311.689 191.7C311.686 191.852 311.645 192.045 311.434 192.041L306.633 191.95C306.422 191.944 306.088 191.745 306.092 191.594L306.122 189.994Z" fill="#E8CDA0"/>
<path d="M307.042 177.755C307.044 177.479 307.268 177.257 307.544 177.258L310.452 177.273C310.729 177.275 310.951 177.5 310.949 177.776L310.925 182.244C310.924 182.52 310.699 182.743 310.423 182.741L307.514 182.726C307.238 182.725 307.016 182.499 307.018 182.224L307.042 177.755Z" fill="#394963"/>
<path d="M70.181 359.352C101.476 359.352 126.845 333.983 126.845 302.688C126.845 271.394 101.476 246.024 70.181 246.024C38.8864 246.024 13.5171 271.394 13.5171 302.688C13.5171 333.983 38.8864 359.352 70.181 359.352Z" stroke="white" stroke-width="3" stroke-miterlimit="10" stroke-dasharray="10.06 10.06"/>
<path d="M70.181 302.687L68.9468 246.037" stroke="white" stroke-width="2" stroke-miterlimit="10"/>
<path d="M179.843 270.05L178.609 213.399" stroke="white" stroke-width="2" stroke-miterlimit="10"/>
<path d="M76.017 243.278L62.4537 243.383L62.329 259.579C62.329 259.579 61.182 272.998 69.5248 277.531C77.5249 273.052 76.5106 259.795 76.5106 259.795L76.017 243.278Z" fill="#E5E5E5"/>
<path d="M69.4569 274.052C69.4569 274.052 63.6308 274.377 63.3336 262.672C63.0369 250.967 63.883 249.771 63.883 249.771L74.7922 249.686L75.1527 253.132L75.2319 263.196C75.2324 263.195 75.0486 273.652 69.4569 274.052Z" fill="#E2E2E2"/>
<path d="M69.4755 274.123C74.0154 274.174 75.4071 268.361 75.7277 262.877L75.5065 253.798L75.228 247.246L71.6941 246.453L71.1307 247.134L67.3526 247.146C67.3526 247.146 66.8702 246.581 66.7572 246.581C66.1165 246.588 63.3035 247.382 63.3035 247.382C63.3035 247.382 63.2369 251.833 63.2055 253.837C63.2055 253.904 63.018 262.862 63.0218 262.975C63.258 268.444 64.5387 274.067 69.4755 274.123ZM63.4123 254.028C63.3888 253.881 63.9447 247.812 63.9447 247.812C63.9447 247.812 66.2993 247.356 66.904 247.352C67.0118 247.351 67.4674 247.891 67.4674 247.891L71.0332 247.88L71.5652 247.228L74.7087 247.727L75.2815 253.929C75.3987 259.315 75.2937 259.391 75.3504 262.881C74.9768 268.229 73.3873 273.923 69.4127 273.851C65.4626 273.779 63.8182 268.255 63.4254 262.973C63.4268 262.768 63.4587 254.12 63.4123 254.028Z" fill="#CECECE"/>
<path d="M66.9157 262.318L67.6048 263.07L69.2341 263.327V263.322L69.3776 263.321H69.4015L69.6335 263.319L69.6345 263.325L71.2165 263.042L71.9426 262.28C72.3499 261.98 72.4109 260.49 72.4109 260.49L72.3888 257.725L72.0691 257.125L70.0376 257.493L69.3635 258.566L68.6787 257.504L66.6607 257.167L66.3926 257.772L66.4137 260.538C66.4141 260.537 66.5032 262.026 66.9157 262.318Z" fill="#EFEFEF"/>
<path d="M66.669 258.599C66.6751 258.684 67.487 259.908 67.487 259.908L71.1132 259.903L71.9973 258.581L71.9963 258.398L71.9959 258.308L71.9954 258.216L71.9879 257.305L66.6601 257.347C66.6582 257.346 66.6629 258.515 66.669 258.599Z" fill="#C6C6C6"/>
<path d="M67.2488 260.94L69.0877 260.925L69.7904 260.919L71.4479 260.906C71.4479 260.906 71.9743 260.196 72.046 258.359C72.0465 258.347 71.9508 258.359 71.9508 258.359C71.7127 258.7 71.1793 259.626 71.1793 259.626L69.4299 259.653L67.4973 259.659C67.4973 259.659 66.9497 258.748 66.706 258.409C66.706 258.409 66.6122 258.39 66.6108 258.4C66.7116 260.238 67.2488 260.94 67.2488 260.94Z" fill="#29ABE2"/>
<path d="M71.3384 257.622C71.3328 256.882 68.8953 256.848 68.9014 257.648C68.9056 258.352 71.345 258.398 71.3384 257.622ZM71.1256 257.632C71.1303 258.161 69.1156 258.131 69.1133 257.653C69.1086 257.107 71.1223 257.128 71.1256 257.632Z" fill="black"/>
<path d="M70.4288 258.041C70.4288 258.041 70.4203 257.811 70.1452 257.817C69.8696 257.822 69.908 258.026 69.9019 258.046C69.8963 258.066 70.4288 258.041 70.4288 258.041Z" fill="black"/>
<path d="M70.2342 257.88L70.3003 257.313L69.9365 257.318L70.0373 257.882L70.2342 257.88Z" fill="black"/>
<path d="M69.9866 257.977C69.9805 257.976 69.0936 257.597 69.0936 257.597L69.0613 257.824L69.9599 258.087L69.9866 257.977Z" fill="black"/>
<path d="M70.3162 257.974C70.3223 257.975 71.189 257.58 71.189 257.58L71.1904 257.807L70.3504 258.082L70.3162 257.974Z" fill="black"/>
<path d="M63.4255 262.973C63.4255 262.973 66.4077 262.927 67.0916 266.085C67.7765 269.242 68.1969 273.588 68.2433 273.677C68.2893 273.768 63.8193 272.71 63.4255 262.973Z" fill="#E8CDA0"/>
<path d="M75.3513 262.879C75.3513 262.879 72.3686 262.88 71.7335 266.048C71.0997 269.217 70.7463 273.567 70.7013 273.659C70.6558 273.75 75.1075 272.622 75.3513 262.879Z" fill="#E8CDA0"/>
<path d="M75.0261 250.478C75.0261 250.478 75.2511 251.21 74.5297 250.96C72.1559 250.137 66.5792 249.999 64.0845 251.087C63.5614 251.314 63.5684 251.182 63.582 250.829C63.5923 250.564 63.9458 247.811 63.9458 247.811C63.9458 247.811 68.2109 246.138 74.7097 247.727L75.0261 250.478Z" fill="#E8CDA0"/>
<path d="M66.3613 253.802C66.3609 253.65 66.6951 253.346 66.9055 253.344L71.7079 253.307C71.9179 253.306 71.9587 253.606 71.9582 253.758L71.9723 255.358C71.9723 255.51 71.9376 255.703 71.7257 255.704L66.9243 255.743C66.7143 255.744 66.374 255.554 66.374 255.402L66.3613 253.802Z" fill="#E8CDA0"/>
<path d="M66.9518 241.545C66.9448 241.269 67.1646 241.041 67.4403 241.034L70.3479 240.971C70.624 240.965 70.8528 241.185 70.8584 241.461L70.955 245.927C70.961 246.204 70.7417 246.433 70.4656 246.438L67.5574 246.501C67.2823 246.507 67.0535 246.287 67.0484 246.012L66.9518 241.545Z" fill="#394963"/>
<path d="M177.705 273.901C210.899 273.901 237.808 246.992 237.808 213.797C237.808 180.603 210.899 153.694 177.705 153.694C144.511 153.694 117.602 180.603 117.602 213.797C117.602 246.992 144.511 273.901 177.705 273.901Z" stroke="white" stroke-width="3" stroke-miterlimit="10" stroke-dasharray="10.06 10.06"/>
<path d="M185.934 238.523L171.36 238.692L171.292 256.056C171.292 256.056 170.114 270.462 179.097 275.298C187.675 270.455 186.53 256.241 186.53 256.241L185.934 238.523Z" fill="#D1D1D1"/>
<path d="M179.105 271.54C179.105 271.54 172.797 271.856 172.431 259.28C172.065 246.704 172.92 245.358 172.92 245.358L184.643 245.222L185.237 249.036L185.362 259.85C185.362 259.85 185.112 271.088 179.105 271.54Z" fill="#F4F4F4"/>
<path d="M179.03 271.617C183.908 271.653 185.381 265.402 185.704 259.507L185.429 249.752L185.102 242.71L181.301 241.875L180.7 242.609L176.64 242.638C176.64 242.638 176.119 242.032 175.997 242.032C175.308 242.042 172.287 242.908 172.287 242.908C172.287 242.908 172.234 247.691 172.21 249.843C172.209 249.917 172.043 259.544 172.049 259.665C172.326 265.54 173.726 271.579 179.03 271.617ZM172.434 250.05C172.407 249.891 172.979 243.367 172.979 243.367C172.979 243.367 175.507 242.867 176.158 242.861C176.274 242.859 176.765 243.438 176.765 243.438L180.598 243.41L181.166 242.708L184.547 243.232L185.187 249.893C185.336 255.68 185.223 255.763 185.298 259.512C184.918 265.264 183.234 271.386 178.962 271.326C174.717 271.265 172.928 265.336 172.485 259.66C172.484 259.44 172.482 250.146 172.434 250.05Z" fill="#E8E8E8"/>
<path d="M178.843 260.024L178.842 260.084L180.783 259.771L181.566 258.949C182.004 258.626 182.069 257.024 182.069 257.024L182.035 254.053L181.72 253.407L179.552 253.813L178.772 255.047L178.797 256.065L178.843 260.024Z" fill="white"/>
<path d="M178.883 260.024L178.842 260.084L177.008 259.816L176.219 259.011C175.774 258.699 175.687 257.098 175.687 257.098L175.652 254.126L175.923 253.475L178.083 253.828L178.864 255.046L178.841 256.065L178.883 260.024Z" fill="white"/>
<path d="M175.951 254.884C175.957 254.974 176.835 256.318 176.835 256.318L180.753 256.315L181.719 254.908L181.715 254.712L181.715 254.613L181.714 254.514L181.701 253.403L175.934 253.472C175.934 253.472 175.943 254.791 175.951 254.884Z" fill="#C6C6C6"/>
<path d="M176.513 236.458C176.511 236.168 176.744 235.932 177.033 235.929L180.085 235.911C180.374 235.908 180.611 236.143 180.612 236.432L180.641 241.119C180.643 241.408 180.409 241.645 180.12 241.647L177.07 241.665C176.78 241.667 176.544 241.434 176.542 241.144L176.513 236.458Z" fill="#394963"/>
<path d="M176.584 257.539L178.561 257.515L179.315 257.507L181.096 257.486C181.096 257.486 181.657 256.682 181.728 254.707C181.729 254.695 181.626 254.686 181.626 254.686C181.372 255.054 180.803 256.041 180.803 256.041L178.921 256.074L176.846 256.086C176.846 256.086 176.254 255.107 175.991 254.745C175.991 254.745 175.888 254.763 175.889 254.775C176.004 256.75 176.584 257.539 176.584 257.539Z" fill="#29ABE2"/>
<path d="M180.964 253.879C180.955 253.084 178.334 253.057 178.345 253.918C178.353 254.672 180.975 254.712 180.964 253.879ZM180.737 253.891C180.743 254.459 178.579 254.435 178.572 253.92C178.566 253.334 180.73 253.349 180.737 253.891Z" fill="black"/>
<path d="M179.989 254.334C179.989 254.334 179.979 254.087 179.683 254.093C179.387 254.099 179.429 254.318 179.423 254.339C179.417 254.363 179.989 254.334 179.989 254.334Z" fill="black"/>
<path d="M179.778 254.08L179.847 253.426L179.456 253.432L179.567 254.082L179.778 254.08Z" fill="black"/>
<path d="M179.514 254.265C179.508 254.266 178.553 253.86 178.553 253.86L178.518 254.105L179.485 254.382L179.514 254.265Z" fill="black"/>
<path d="M179.911 254.261C179.917 254.261 180.891 253.833 180.891 253.833L180.895 254.077L179.971 254.376L179.911 254.261Z" fill="black"/>
<path d="M172.484 259.66C172.484 259.66 175.687 259.599 176.435 262.989C177.184 266.38 177.654 271.046 177.705 271.143C177.754 271.241 172.947 270.123 172.484 259.66Z" fill="#E8CDA0"/>
<path d="M185.297 259.513C185.297 259.513 182.094 259.524 181.425 262.932C180.754 266.339 180.393 271.014 180.346 271.113C180.297 271.211 185.077 269.982 185.297 259.513Z" fill="#E8CDA0"/>
<path d="M184.899 246.186C184.899 246.186 185.143 246.972 184.367 246.705C181.812 245.831 175.819 245.704 173.142 246.884C172.582 247.132 172.588 246.99 172.602 246.61C172.612 246.325 172.979 243.365 172.979 243.365C172.979 243.365 177.556 241.552 184.547 243.23L184.899 246.186Z" fill="#E8CDA0"/>
<path d="M175.791 249.792C175.79 249.629 175.962 249.561 176.189 249.557L181.349 249.498C181.574 249.494 181.82 249.56 181.822 249.722L181.842 251.443C181.843 251.607 181.6 251.777 181.375 251.78L176.215 251.842C175.989 251.843 175.814 251.676 175.811 251.514L175.791 249.792Z" fill="#E8CDA0"/>
<path d="M179.656 252.513C179.656 252.513 179.414 252.885 179.229 252.348C179.046 251.811 178.74 251.287 178.74 251.287C178.74 251.287 178.167 251.516 178.102 251.686C178.037 251.855 178.177 252.584 177.683 252.821C177.19 253.055 176.97 253.195 177.112 252.4C177.253 251.603 177.28 251.05 177.28 251.05L179.364 250.368L179.644 252.392" fill="#996234"/>
<path d="M179.207 250.694C179.207 250.694 180.096 251.77 179.677 251.769C179.26 251.769 179.443 251.428 178.914 251.453C178.386 251.477 178.498 251.876 177.83 251.719C177.164 251.561 176.942 251.778 177.016 251.417C177.09 251.056 177.099 250.902 177.099 250.902L179.207 250.694Z" fill="#EF45B7"/>
<path d="M179.813 250.52C179.813 250.52 179.939 251.432 179.987 251.667C180.077 252.107 179.79 253.064 179.806 253.232C179.823 253.4 179.812 253.58 179.564 253.352C179.318 253.124 179.455 252.266 179.508 251.838C179.562 251.409 179.24 250.926 179.216 250.792C179.193 250.657 179.491 250.824 179.491 250.824L179.813 250.52Z" fill="#996234"/>
<path d="M176.924 250.746C176.924 250.746 176.733 251.749 176.731 251.989C176.727 252.437 177.196 253.32 177.213 253.488C177.229 253.656 177.272 253.83 177.469 253.558C177.667 253.287 177.367 252.471 177.231 252.06C177.096 251.653 177.507 251.14 177.504 251.002C177.5 250.867 177.051 251.064 177.051 251.064L176.924 250.746Z" fill="#996234"/>
<path d="M180.219 250.48C180.219 250.48 179.935 249.362 179.21 249.201C178.485 249.039 178.234 248.983 177.629 249.317C177.024 249.654 176.674 249.536 176.779 250.102C176.883 250.665 176.53 250.999 177.086 251.035C177.684 251.072 179.279 251.025 179.391 251.027C180.068 251.04 180.219 250.48 180.219 250.48Z" fill="#8BC7E8"/>
<path d="M178.371 249.282C178.371 249.282 179.015 249.283 178.971 249.818C178.927 250.353 179.227 250.518 178.792 250.728C178.357 250.935 178.176 251.399 177.934 250.978C177.693 250.559 177.525 250.339 177.639 250.017C177.752 249.693 177.716 249.619 177.879 249.407C178.04 249.194 178.371 249.282 178.371 249.282Z" fill="#301705"/>
<path d="M295.261 368.89L302.889 363.658L295.267 358.419L295.261 368.89Z" fill="white"/>
<path d="M179.097 275.298C178.518 300.217 206.962 362.405 295.072 363.655" stroke="white" stroke-width="7" stroke-miterlimit="10" stroke-dasharray="10.06 10.06"/>
<rect x="315.775" y="15.2949" width="45.0996" height="25" rx="12.5" fill="#969696" fill-opacity="0.3"/>
<path d="M326.313 32.9209H320.079V32.292L323.49 28.4229C324.055 27.7712 324.447 27.2334 324.666 26.8096C324.884 26.3857 324.994 25.9733 324.994 25.5723C324.994 24.9434 324.809 24.4466 324.44 24.082C324.071 23.7129 323.563 23.5283 322.916 23.5283C322.246 23.5283 321.703 23.7425 321.289 24.1709C320.878 24.5993 320.673 25.1553 320.673 25.8389H319.86C319.86 25.2783 319.985 24.7679 320.236 24.3076C320.491 23.8473 320.851 23.4873 321.316 23.2275C321.785 22.9632 322.319 22.8311 322.916 22.8311C323.827 22.8311 324.538 23.0703 325.048 23.5488C325.563 24.0273 325.821 24.679 325.821 25.5039C325.821 25.9688 325.675 26.4769 325.383 27.0283C325.096 27.5798 324.588 28.2679 323.859 29.0928L321.083 32.2305H326.313V32.9209ZM329.663 27.5H330.51C330.98 27.5 331.39 27.418 331.741 27.2539C332.092 27.0853 332.358 26.8574 332.541 26.5703C332.727 26.2786 332.821 25.9437 332.821 25.5654C332.821 24.9274 332.641 24.4284 332.281 24.0684C331.921 23.7083 331.403 23.5283 330.729 23.5283C330.091 23.5283 329.567 23.7174 329.157 24.0957C328.751 24.4694 328.548 24.9639 328.548 25.5791H327.728C327.728 25.0641 327.858 24.5947 328.118 24.1709C328.377 23.7425 328.737 23.4121 329.198 23.1797C329.658 22.9473 330.168 22.8311 330.729 22.8311C331.631 22.8311 332.342 23.0771 332.862 23.5693C333.381 24.0615 333.641 24.736 333.641 25.5928C333.641 26.0713 333.488 26.5133 333.183 26.9189C332.882 27.32 332.468 27.6208 331.939 27.8213C332.559 27.9945 333.028 28.293 333.347 28.7168C333.666 29.1361 333.826 29.6374 333.826 30.2207C333.826 31.0729 333.548 31.7588 332.992 32.2783C332.436 32.7979 331.693 33.0576 330.763 33.0576C330.171 33.0576 329.626 32.9391 329.129 32.7021C328.637 32.4652 328.254 32.1348 327.981 31.7109C327.712 31.2826 327.578 30.7858 327.578 30.2207H328.398C328.398 30.8542 328.619 31.3714 329.061 31.7725C329.503 32.1689 330.07 32.3672 330.763 32.3672C331.47 32.3672 332.019 32.1872 332.411 31.8271C332.807 31.4626 333.005 30.9362 333.005 30.248C333.005 29.5827 332.791 29.0745 332.363 28.7236C331.939 28.3727 331.312 28.1973 330.483 28.1973H329.663V27.5ZM335.624 33.7754H334.878L339.035 22.9678H339.773L335.624 33.7754ZM347.409 32.9209H341.174V32.292L344.585 28.4229C345.151 27.7712 345.542 27.2334 345.761 26.8096C345.98 26.3857 346.089 25.9733 346.089 25.5723C346.089 24.9434 345.905 24.4466 345.536 24.082C345.167 23.7129 344.658 23.5283 344.011 23.5283C343.341 23.5283 342.799 23.7425 342.384 24.1709C341.974 24.5993 341.769 25.1553 341.769 25.8389H340.956C340.956 25.2783 341.081 24.7679 341.332 24.3076C341.587 23.8473 341.947 23.4873 342.412 23.2275C342.881 22.9632 343.414 22.8311 344.011 22.8311C344.923 22.8311 345.634 23.0703 346.144 23.5488C346.659 24.0273 346.917 24.679 346.917 25.5039C346.917 25.9688 346.771 26.4769 346.479 27.0283C346.192 27.5798 345.684 28.2679 344.955 29.0928L342.179 32.2305H347.409V32.9209ZM353.964 29.7148H355.516V30.4053H353.964V32.9209H353.144V30.4053H348.461V29.9404L353.069 22.9678H353.964V29.7148ZM349.466 29.7148H353.144V24.0273L352.782 24.6562L349.466 29.7148Z" fill="black"/>
</g>
<defs>
<radialGradient id="paint0_radial" cx="0" cy="0" r="1" gradientUnits="userSpaceOnUse" gradientTransform="translate(68.3184 592.372) rotate(-18.2592) scale(565.834)">
<stop stop-color="#58F1FE"/>
<stop offset="0.646" stop-color="#58F1FE"/>
<stop offset="0.7523" stop-color="#58F1FE"/>
<stop offset="0.9693" stop-color="#58F1FE" stop-opacity="0.45"/>
<stop offset="1" stop-color="#58F1FE" stop-opacity="0.2"/>
</radialGradient>
<radialGradient id="paint1_radial" cx="0" cy="0" r="1" gradientUnits="userSpaceOnUse" gradientTransform="translate(159.507 238.168) scale(228.752)">
<stop stop-color="#42C9CC"/>
<stop offset="0.646" stop-color="#42C9CC"/>
<stop offset="0.7523" stop-color="#42C9CC"/>
<stop offset="0.9693" stop-color="#42C9CC" stop-opacity="0.3868"/>
<stop offset="1" stop-color="#42C9CC" stop-opacity="0.3"/>
</radialGradient>
<radialGradient id="paint2_radial" cx="0" cy="0" r="1" gradientUnits="userSpaceOnUse" gradientTransform="translate(159.496 58.9167) scale(172.786)">
<stop stop-color="#42C9CC"/>
<stop offset="0.646" stop-color="#42C9CC"/>
<stop offset="0.7523" stop-color="#42C9CC"/>
<stop offset="0.9693" stop-color="#42C9CC" stop-opacity="0.3868"/>
<stop offset="1" stop-color="#42C9CC" stop-opacity="0.3"/>
</radialGradient>
<clipPath id="clip0">
<rect width="375" height="375" fill="white" transform="translate(0.775146 0.294922)"/>
</clipPath>
</defs>
</svg>
