<svg width="376" height="375" viewBox="0 0 376 375" fill="none" xmlns="http://www.w3.org/2000/svg">
<g clip-path="url(#clip0)">
<path d="M0.775391 0.294922H375.775L376.235 373.903H1.2357L0.775391 0.294922Z" fill="url(#paint0_linear)"/>
<path d="M350.469 339.212C350.579 339.025 350.273 338.512 350.212 338.432C350.169 338.382 350.108 338.368 350.037 338.38C349.908 338.4 349.74 338.502 349.604 338.604C349.391 338.724 340.822 341.874 335.703 343.754C333.415 344.594 331.61 345.258 331.323 345.367C330.908 345.524 330.66 345.719 330.584 345.938C330.524 346.114 330.6 346.24 330.604 346.246C330.821 346.802 331.004 346.767 331.31 346.65C331.362 346.632 331.418 346.611 331.482 346.592C331.865 346.476 347.035 341.363 347.681 341.147C347.89 341.061 348.474 340.865 348.706 340.974C348.972 341.1 349.374 341.832 349.531 342.195C350.277 343.921 350.638 345.197 350.44 345.372C350.375 345.428 350.122 345.525 349.14 345.226C348.582 345.057 348.008 344.819 347.871 344.748C347.846 344.733 345.016 343.355 344.466 343.536C344.417 343.553 344.379 343.584 344.359 343.625C344.173 344.015 344.654 344.664 345.208 345.413L345.354 345.608C345.808 346.227 346.369 346.883 346.594 347.139C346.151 347.137 344.878 347.132 344.687 347.147C344.669 347.15 344.639 347.153 344.607 347.157C344.482 347.176 344.273 347.232 344.155 347.384C344.079 347.483 344.053 347.603 344.08 347.742C344.129 348.003 344.549 348.339 344.993 348.694C345.066 348.755 345.139 348.815 345.211 348.874C345.191 348.886 345.172 348.902 345.149 348.915C344.641 349.27 343.943 349.756 343.903 350.153C343.893 350.255 343.922 350.345 343.995 350.419C344.325 350.769 345.461 350.418 347.559 349.318C349.131 348.494 351.304 346.956 351.326 346.942C351.796 346.61 352.441 345.731 352.339 344.9C352.239 344.108 350.625 339.707 350.45 339.232C350.454 339.223 350.459 339.217 350.469 339.212Z" fill="#727272"/>
<path d="M331.745 346.044C331.771 345.989 331.773 345.929 331.754 345.872C331.715 345.756 331.588 345.692 331.464 345.735C331.408 345.756 331.362 345.798 331.337 345.851C331.311 345.905 331.31 345.966 331.328 346.023C331.365 346.125 331.472 346.186 331.577 346.169C331.591 346.167 331.606 346.164 331.619 346.16C331.676 346.139 331.722 346.098 331.745 346.044Z" fill="#727272"/>
<path d="M352.21 344.911C352.119 344.167 350.594 339.991 350.349 339.329C350.279 339.379 350.195 339.412 350.115 339.416C350.018 339.425 349.935 339.389 349.882 339.323C349.809 339.23 349.72 339.072 349.659 338.954L349.649 338.984L332.928 344.916C332.093 345.223 331.525 345.432 331.376 345.49C330.913 345.666 330.763 345.85 330.72 345.972C330.679 346.088 330.722 346.167 330.73 346.181C330.915 346.649 331.01 346.614 331.266 346.517C331.321 346.497 331.378 346.475 331.445 346.455C331.533 346.428 332.432 346.13 333.765 345.683C333.952 345.191 334.533 344.991 334.558 344.981C335.096 344.779 347.794 340.031 349.101 340.489C349.447 340.61 349.857 341.584 349.902 341.692C349.941 341.783 350.908 343.957 351.08 344.805C351.327 346.043 349.872 346.938 349.286 347.172C348.789 347.37 346.835 347.32 346.756 347.334L346.755 347.334C346.689 347.344 344.923 347.292 344.702 347.309C344.551 347.322 344.353 347.343 344.263 347.465C344.212 347.533 344.194 347.614 344.213 347.714C344.253 347.924 344.691 348.276 345.077 348.586C345.335 348.795 345.582 348.993 345.738 349.163C345.94 349.388 346.016 349.542 345.974 349.645C345.948 349.708 345.887 349.733 345.855 349.733L345.847 349.594C345.847 349.594 345.876 349.523 345.635 349.255C345.557 349.164 345.446 349.067 345.32 348.96C345.289 348.982 345.259 349.003 345.227 349.026C344.795 349.328 344.072 349.832 344.038 350.166C344.03 350.227 344.051 350.279 344.093 350.326C344.28 350.524 345.024 350.489 347.493 349.194C348.46 348.687 349.659 347.909 350.436 347.385C349.02 347.687 346.014 347.625 344.956 347.603C344.758 347.599 344.602 347.595 344.579 347.597L344.569 347.529L344.546 347.464C344.549 347.462 344.551 347.462 344.558 347.46C344.581 347.456 344.644 347.459 344.958 347.464C346.127 347.492 349.679 347.566 350.791 347.144C351.068 346.952 351.24 346.83 351.247 346.826C351.629 346.558 352.302 345.719 352.21 344.911ZM331.872 346.101C331.832 346.189 331.758 346.255 331.667 346.286C331.476 346.355 331.268 346.253 331.203 346.067C331.171 345.976 331.177 345.878 331.216 345.79C331.257 345.702 331.33 345.636 331.421 345.604C331.441 345.597 331.466 345.591 331.489 345.587C331.66 345.56 331.827 345.659 331.887 345.823C331.918 345.915 331.915 346.014 331.872 346.101Z" fill="#727272"/>
<path d="M333.939 345.618C338.461 344.102 347.512 341.052 347.631 341.011C347.711 340.981 348.433 340.689 348.762 340.845C349.104 341.007 349.531 341.849 349.654 342.137C350.133 343.248 350.884 345.157 350.525 345.47C350.087 345.85 347.966 344.95 347.802 344.861C347.48 344.691 344.941 343.511 344.505 343.659C344.496 343.662 344.481 343.666 344.478 343.674C344.327 343.992 344.806 344.641 345.314 345.326L345.46 345.521C345.985 346.234 346.652 346.997 346.775 347.135C347.024 347.142 348.788 347.19 349.225 347.013C349.743 346.808 351.168 345.956 350.94 344.818C350.771 343.982 349.783 341.764 349.771 341.737C349.654 341.456 349.293 340.702 349.052 340.616C347.788 340.172 334.731 345.06 334.597 345.109C334.593 345.11 334.145 345.267 333.939 345.618Z" fill="#727272"/>
<path d="M349.532 338.875L349.577 338.757C349.13 338.941 347.224 339.65 343.983 340.848L349.532 338.875Z" fill="#727272"/>
<path d="M350.345 339.141C350.393 339.057 350.202 338.647 350.098 338.516C350.08 338.492 349.935 338.525 349.683 338.709L349.704 338.754C349.706 338.76 349.87 339.096 349.983 339.239C350.009 339.271 350.05 339.285 350.098 339.281C350.2 339.275 350.309 339.203 350.345 339.141Z" fill="#727272"/>
<path d="M350.464 339.21C350.573 339.024 350.268 338.511 350.207 338.431C350.165 338.381 350.103 338.367 350.031 338.379C349.903 338.399 349.735 338.502 349.599 338.603C349.386 338.721 340.816 341.873 335.698 343.752C333.41 344.593 331.605 345.257 331.318 345.365C330.903 345.523 330.655 345.717 330.58 345.936C330.519 346.112 330.596 346.239 330.599 346.244C330.817 346.801 330.999 346.764 331.305 346.647C331.358 346.631 331.414 346.609 331.477 346.589C331.86 346.474 347.03 341.36 347.676 341.145C347.886 341.058 348.47 340.863 348.702 340.972C348.968 341.098 349.37 341.83 349.527 342.193C350.272 343.92 350.635 345.194 350.436 345.372C350.37 345.428 350.118 345.524 349.136 345.226C348.578 345.056 348.004 344.819 347.867 344.747C347.842 344.732 345.014 343.355 344.462 343.536C344.412 343.551 344.374 343.584 344.354 343.624C344.168 344.014 344.649 344.665 345.205 345.414L345.349 345.611C345.805 346.231 346.365 346.888 346.59 347.145C346.674 347.146 346.732 347.155 346.744 347.155L346.746 347.305C346.746 347.305 346.748 347.335 346.747 347.335L346.748 347.335C346.829 347.322 348.784 347.372 349.279 347.173C349.86 346.941 351.316 346.03 351.068 344.79C350.9 343.942 349.935 341.779 349.894 341.685C349.849 341.577 349.44 340.605 349.093 340.485C347.785 340.028 335.088 344.78 334.55 344.982C334.525 344.991 333.945 345.192 333.757 345.684C332.424 346.132 331.524 346.433 331.437 346.457C331.373 346.475 331.313 346.5 331.258 346.519C331 346.616 330.905 346.652 330.721 346.184C330.714 346.17 330.67 346.09 330.711 345.976C330.757 345.851 330.907 345.668 331.367 345.492C331.516 345.436 332.084 345.227 332.92 344.918L349.64 338.987L349.649 338.956C349.712 339.074 349.8 339.231 349.874 339.325C349.927 339.392 350.009 339.425 350.106 339.418C350.185 339.412 350.27 339.38 350.339 339.332C350.322 339.278 350.308 339.244 350.306 339.242L350.435 339.193C350.437 339.201 350.441 339.213 350.45 339.228C350.454 339.223 350.459 339.216 350.464 339.21ZM333.934 345.623C334.141 345.27 334.589 345.112 334.595 345.11C334.727 345.061 347.785 340.172 349.049 340.616C349.293 340.701 349.652 341.455 349.767 341.738C349.779 341.764 350.769 343.984 350.935 344.818C351.162 345.958 349.738 346.807 349.222 347.014C348.786 347.188 347.022 347.142 346.771 347.136C346.649 346.998 345.983 346.236 345.458 345.523L345.312 345.327C344.804 344.64 344.325 343.993 344.475 343.675C344.479 343.668 344.493 343.662 344.503 343.66C344.942 343.513 347.481 344.692 347.802 344.862C347.964 344.95 350.085 345.847 350.523 345.471C350.883 345.158 350.131 343.248 349.651 342.138C349.529 341.853 349.102 341.007 348.76 340.846C348.433 340.69 347.71 340.98 347.629 341.012C347.512 341.052 338.458 344.104 333.934 345.623ZM349.578 338.759L349.532 338.878L343.981 340.848C347.226 339.651 349.131 338.941 349.578 338.759ZM350.347 339.14C350.311 339.202 350.203 339.274 350.098 339.281C350.048 339.285 350.009 339.271 349.983 339.238C349.869 339.096 349.706 338.761 349.704 338.754L349.683 338.709C349.933 338.527 350.08 338.491 350.1 338.515C350.201 338.645 350.394 339.057 350.347 339.14Z" fill="#727272"/>
<path d="M345.316 348.961C345.283 348.93 345.244 348.899 345.207 348.872C345.186 348.883 345.167 348.901 345.144 348.914C344.635 349.27 343.938 349.755 343.898 350.151C343.888 350.253 343.917 350.342 343.99 350.418C344.322 350.767 345.455 350.417 347.555 349.317C349.126 348.493 351.3 346.955 351.321 346.94C351.79 346.609 352.436 345.729 352.335 344.898C352.235 344.108 350.619 339.705 350.443 339.229C350.416 339.272 350.38 339.306 350.336 339.335C350.579 339.997 352.104 344.174 352.198 344.917C352.296 345.721 351.623 346.563 351.241 346.831C351.237 346.835 351.063 346.958 350.785 347.15C350.787 347.149 350.792 347.146 350.794 347.146L350.843 347.272C350.73 347.317 350.592 347.352 350.433 347.388C349.652 347.912 348.454 348.69 347.489 349.197C345.02 350.492 344.277 350.526 344.088 350.326C344.043 350.279 344.028 350.228 344.035 350.167C344.068 349.83 344.79 349.326 345.222 349.027C345.257 349.002 345.287 348.982 345.316 348.961Z" fill="#727272"/>
<path d="M350.45 339.228C350.444 339.214 350.44 339.199 350.438 339.193L350.309 339.242C350.31 339.246 350.324 339.279 350.343 339.332C350.385 339.303 350.423 339.269 350.45 339.228Z" fill="#727272"/>
<path d="M346.69 347.248C346.689 347.248 346.651 347.206 346.59 347.137C346.145 347.134 344.872 347.129 344.68 347.145C344.663 347.147 344.633 347.149 344.601 347.154C344.477 347.174 344.268 347.228 344.15 347.382C344.074 347.479 344.048 347.601 344.075 347.74C344.122 348.001 344.543 348.335 344.988 348.693C345.06 348.751 345.134 348.813 345.206 348.872C345.24 348.849 345.274 348.824 345.303 348.803L345.383 348.914C345.363 348.928 345.339 348.947 345.318 348.961C345.443 349.067 345.549 349.166 345.632 349.257C345.873 349.521 345.844 349.595 345.844 349.595L345.853 349.734C345.884 349.732 345.945 349.709 345.972 349.646C346.013 349.542 345.938 349.389 345.735 349.163C345.582 348.994 345.335 348.796 345.074 348.586C344.688 348.276 344.253 347.925 344.211 347.715C344.192 347.614 344.207 347.533 344.26 347.466C344.351 347.343 344.543 347.293 344.694 347.281C344.912 347.264 346.673 347.273 346.742 347.275L346.712 347.271L346.69 347.248Z" fill="#727272"/>
<path d="M346.741 347.133C346.731 347.133 346.674 347.131 346.59 347.132C346.654 347.201 346.689 347.243 346.69 347.245L346.71 347.268L346.739 347.27C346.74 347.27 346.742 347.27 346.743 347.27L346.741 347.133Z" fill="#727272"/>
<path d="M345.306 348.803C345.274 348.823 345.24 348.849 345.208 348.869C345.245 348.899 345.283 348.93 345.317 348.959C345.338 348.945 345.362 348.928 345.383 348.913L345.306 348.803Z" fill="#727272"/>
<path d="M350.433 347.387C350.563 347.297 350.684 347.216 350.788 347.146C349.676 347.564 346.125 347.49 344.956 347.465C344.641 347.457 344.578 347.457 344.555 347.461C344.549 347.461 344.547 347.464 344.544 347.465L344.567 347.529L344.576 347.598C344.599 347.596 344.756 347.602 344.953 347.604C346.012 347.625 349.017 347.688 350.433 347.387Z" fill="#727272"/>
<path d="M350.792 347.144C350.688 347.216 350.568 347.295 350.436 347.386C350.593 347.354 350.733 347.317 350.846 347.271L350.798 347.143C350.794 347.143 350.792 347.144 350.792 347.144Z" fill="#727272"/>
<path d="M331.872 346.102C331.914 346.014 331.919 345.916 331.885 345.823C331.825 345.66 331.659 345.56 331.487 345.587C331.464 345.591 331.441 345.597 331.42 345.604C331.328 345.637 331.255 345.703 331.214 345.79C331.173 345.878 331.167 345.975 331.201 346.067C331.268 346.252 331.474 346.355 331.665 346.286C331.757 346.255 331.831 346.189 331.872 346.102ZM331.749 346.042C331.724 346.095 331.678 346.138 331.621 346.157C331.609 346.163 331.592 346.167 331.58 346.167C331.473 346.184 331.367 346.123 331.331 346.021C331.31 345.965 331.314 345.904 331.339 345.849C331.368 345.795 331.409 345.754 331.469 345.734C331.588 345.691 331.715 345.755 331.757 345.869C331.776 345.927 331.773 345.989 331.749 346.042Z" fill="#727272"/>
<path d="M258.018 344.678C257.883 343.598 256.309 344.026 256.405 344.712C256.528 345.615 258.095 345.287 258.018 344.678Z" fill="#727272"/>
<path d="M255.86 344.621C255.724 343.54 254.151 343.968 254.248 344.654C254.369 345.559 255.936 345.23 255.86 344.621Z" fill="#727272"/>
<path d="M260.219 344.546C260.083 343.465 258.51 343.894 258.607 344.583C258.728 345.483 260.295 345.154 260.219 344.546Z" fill="#727272"/>
<path d="M261.338 344.62C261.627 344.176 260.015 344.22 259.839 344.503C259.609 344.874 261.176 344.871 261.338 344.62Z" fill="#727272"/>
<path d="M258.95 344.716C259.241 344.273 257.629 344.31 257.451 344.589C257.219 344.964 258.787 344.966 258.95 344.716Z" fill="#727272"/>
<path d="M256.563 344.809C256.855 344.368 255.245 344.402 255.068 344.685C254.832 345.056 256.4 345.058 256.563 344.809Z" fill="#727272"/>
<path d="M246.94 344.519C246.921 343.428 245.309 343.691 245.328 344.381C245.356 345.289 246.95 345.131 246.94 344.519Z" fill="#727272"/>
<path d="M244.969 344.396C244.9 343.308 243.301 343.639 243.356 344.331C243.422 345.238 245.007 345.008 244.969 344.396Z" fill="#727272"/>
<path d="M249.141 344.624C249.122 343.534 247.513 343.793 247.532 344.486C247.558 345.395 249.15 345.236 249.141 344.624Z" fill="#727272"/>
<path d="M251.34 344.729C251.323 343.64 249.712 343.901 249.731 344.592C249.757 345.5 251.35 345.342 251.34 344.729Z" fill="#727272"/>
<path d="M253.784 344.712C253.766 343.623 252.157 343.885 252.176 344.575C252.201 345.483 253.795 345.325 253.784 344.712Z" fill="#727272"/>
<path d="M254.721 344.745C254.996 344.291 253.386 344.385 253.218 344.673C253 345.052 254.567 345.001 254.721 344.745Z" fill="#727272"/>
<path d="M252.521 344.639C252.8 344.182 251.185 344.278 251.018 344.568C250.799 344.946 252.367 344.895 252.521 344.639Z" fill="#727272"/>
<path d="M250.262 344.716C250.537 344.26 248.924 344.356 248.759 344.646C248.539 345.024 250.108 344.972 250.262 344.716Z" fill="#727272"/>
<path d="M247.862 344.656C248.199 344.246 246.592 344.11 246.385 344.374C246.114 344.716 247.673 344.887 247.862 344.656Z" fill="#727272"/>
<path d="M245.658 344.628C245.977 344.203 244.364 344.138 244.169 344.41C243.914 344.765 245.48 344.866 245.658 344.628Z" fill="#727272"/>
<path d="M235.969 344.498C235.922 343.409 234.318 343.708 234.357 344.401C234.405 345.308 235.994 345.11 235.969 344.498Z" fill="#727272"/>
<path d="M233.821 344.263C233.775 343.173 232.172 343.474 232.21 344.165C232.258 345.073 233.847 344.875 233.821 344.263Z" fill="#727272"/>
<path d="M238.17 344.547C238.122 343.459 236.52 343.758 236.559 344.451C236.608 345.359 238.196 345.16 238.17 344.547Z" fill="#727272"/>
<path d="M240.373 344.599C240.327 343.512 238.723 343.81 238.761 344.501C238.81 345.409 240.398 345.211 240.373 344.599Z" fill="#727272"/>
<path d="M242.817 344.519C242.77 343.43 241.167 343.73 241.205 344.423C241.253 345.33 242.841 345.132 242.817 344.519Z" fill="#727272"/>
<path d="M243.753 344.529C244.017 344.069 242.412 344.203 242.253 344.495C242.04 344.879 243.605 344.787 243.753 344.529Z" fill="#727272"/>
<path d="M241.551 344.478C241.814 344.021 240.207 344.156 240.047 344.449C239.838 344.829 241.403 344.736 241.551 344.478Z" fill="#727272"/>
<path d="M239.294 344.612C239.557 344.154 237.949 344.285 237.79 344.578C237.581 344.962 239.146 344.871 239.294 344.612Z" fill="#727272"/>
<path d="M236.894 344.613C237.221 344.195 235.613 344.098 235.41 344.368C235.148 344.716 236.71 344.849 236.894 344.613Z" fill="#727272"/>
<path d="M234.507 344.508C234.834 344.089 233.223 343.992 233.023 344.261C232.761 344.611 234.323 344.743 234.507 344.508Z" fill="#727272"/>
<path d="M286.748 344.104C286.55 343.033 285.004 343.553 285.137 344.234C285.315 345.125 286.86 344.707 286.748 344.104Z" fill="#727272"/>
<path d="M284.59 344.172C284.392 343.1 282.846 343.618 282.981 344.298C283.156 345.194 284.701 344.774 284.59 344.172Z" fill="#727272"/>
<path d="M288.936 344.002C288.738 342.931 287.192 343.452 287.325 344.131C287.504 345.024 289.048 344.605 288.936 344.002Z" fill="#727272"/>
<path d="M289.998 344.022C290.286 343.577 288.674 343.622 288.498 343.904C288.268 344.276 289.836 344.271 289.998 344.022Z" fill="#727272"/>
<path d="M287.681 344.09C287.945 343.632 286.337 343.761 286.177 344.052C285.967 344.437 287.532 344.349 287.681 344.09Z" fill="#727272"/>
<path d="M285.302 344.32C285.566 343.862 283.959 343.989 283.799 344.282C283.588 344.666 285.154 344.578 285.302 344.32Z" fill="#727272"/>
<path d="M275.679 344.584C275.597 343.497 274.005 343.848 274.065 344.536C274.143 345.444 275.725 345.195 275.679 344.584Z" fill="#727272"/>
<path d="M273.526 344.418C273.444 343.331 271.852 343.684 271.912 344.374C271.99 345.28 273.572 345.029 273.526 344.418Z" fill="#727272"/>
<path d="M277.88 344.562C277.799 343.475 276.207 343.827 276.267 344.515C276.345 345.423 277.926 345.173 277.88 344.562Z" fill="#727272"/>
<path d="M280.083 344.541C280 343.454 278.41 343.805 278.47 344.493C278.548 345.402 280.129 345.153 280.083 344.541Z" fill="#727272"/>
<path d="M282.523 344.383C282.439 343.299 280.85 343.65 280.91 344.339C280.987 345.243 282.569 344.994 282.523 344.383Z" fill="#727272"/>
<path d="M283.46 344.362C283.705 343.893 282.103 344.079 281.952 344.377C281.76 344.768 283.322 344.625 283.46 344.362Z" fill="#727272"/>
<path d="M281.258 344.382C281.503 343.914 279.9 344.1 279.753 344.398C279.556 344.788 281.118 344.646 281.258 344.382Z" fill="#727272"/>
<path d="M279.006 344.59C279.254 344.121 277.652 344.308 277.502 344.606C277.304 344.997 278.867 344.854 279.006 344.59Z" fill="#727272"/>
<path d="M276.608 344.669C276.921 344.24 275.309 344.197 275.114 344.471C274.866 344.829 276.433 344.911 276.608 344.669Z" fill="#727272"/>
<path d="M274.218 344.642C274.531 344.213 272.919 344.165 272.727 344.439C272.476 344.802 274.043 344.883 274.218 344.642Z" fill="#727272"/>
<path d="M264.528 344.635C264.467 343.547 262.868 343.866 262.916 344.558C262.974 345.465 264.561 345.246 264.528 344.635Z" fill="#727272"/>
<path d="M262.377 344.613C262.317 343.525 260.718 343.844 260.765 344.537C260.824 345.443 262.411 345.225 262.377 344.613Z" fill="#727272"/>
<path d="M266.73 344.658C266.67 343.573 265.071 343.889 265.118 344.584C265.178 345.489 266.763 345.269 266.73 344.658Z" fill="#727272"/>
<path d="M268.932 344.679C268.872 343.59 267.273 343.91 267.32 344.603C267.38 345.51 268.966 345.291 268.932 344.679Z" fill="#727272"/>
<path d="M271.374 344.569C271.314 343.48 269.715 343.8 269.762 344.492C269.821 345.399 271.407 345.181 271.374 344.569Z" fill="#727272"/>
<path d="M272.311 344.566C272.569 344.103 270.963 344.257 270.808 344.552C270.604 344.938 272.168 344.827 272.311 344.566Z" fill="#727272"/>
<path d="M270.108 344.545C270.365 344.08 268.76 344.235 268.604 344.53C268.4 344.916 269.964 344.805 270.108 344.545Z" fill="#727272"/>
<path d="M267.853 344.708C268.114 344.244 266.505 344.397 266.349 344.693C266.145 345.079 267.709 344.969 267.853 344.708Z" fill="#727272"/>
<path d="M265.454 344.739C265.775 344.315 264.16 344.24 263.964 344.51C263.71 344.863 265.274 344.976 265.454 344.739Z" fill="#727272"/>
<path d="M263.534 344.663C263.857 344.241 262.243 344.166 262.047 344.435C261.79 344.788 263.353 344.902 263.534 344.663Z" fill="#727272"/>
<path d="M224.877 343.972C224.883 342.883 223.267 343.107 223.272 343.803C223.278 344.709 224.874 344.585 224.877 343.972Z" fill="#727272"/>
<path d="M222.744 343.637C222.75 342.547 221.132 342.771 221.139 343.465C221.145 344.374 222.741 344.25 222.744 343.637Z" fill="#727272"/>
<path d="M227.074 344.125C227.08 343.035 225.462 343.259 225.466 343.954C225.475 344.862 227.072 344.738 227.074 344.125Z" fill="#727272"/>
<path d="M229.273 344.278C229.278 343.188 227.662 343.411 227.667 344.105C227.673 345.015 229.27 344.891 229.273 344.278Z" fill="#727272"/>
<path d="M231.716 344.313C231.722 343.223 230.107 343.446 230.111 344.141C230.117 345.05 231.713 344.926 231.716 344.313Z" fill="#727272"/>
<path d="M232.652 344.366C232.937 343.919 231.325 343.978 231.152 344.259C230.925 344.637 232.492 344.617 232.652 344.366Z" fill="#727272"/>
<path d="M230.454 344.213C230.737 343.766 229.127 343.824 228.954 344.106C228.727 344.482 230.295 344.463 230.454 344.213Z" fill="#727272"/>
<path d="M228.193 344.242C228.476 343.795 226.866 343.853 226.693 344.138C226.466 344.511 228.033 344.493 228.193 344.242Z" fill="#727272"/>
<path d="M225.796 344.131C226.142 343.732 224.537 343.557 224.326 343.815C224.047 344.152 225.602 344.357 225.796 344.131Z" fill="#727272"/>
<path d="M223.417 343.914C223.763 343.515 222.158 343.34 221.946 343.598C221.667 343.935 223.223 344.14 223.417 343.914Z" fill="#727272"/>
<path d="M213.851 343.128C213.874 342.039 212.256 342.238 212.249 342.932C212.241 343.84 213.839 343.741 213.851 343.128Z" fill="#727272"/>
<path d="M211.722 343.05C211.746 341.96 210.127 342.159 210.121 342.853C210.112 343.762 211.711 343.663 211.722 343.05Z" fill="#727272"/>
<path d="M216.046 343.315C216.069 342.226 214.45 342.425 214.443 343.115C214.435 344.028 216.033 343.929 216.046 343.315Z" fill="#727272"/>
<path d="M218.242 343.503C218.265 342.413 216.65 342.612 216.64 343.306C216.631 344.214 218.23 344.115 218.242 343.503Z" fill="#727272"/>
<path d="M220.685 343.576C220.707 342.486 219.092 342.685 219.082 343.379C219.073 344.288 220.672 344.189 220.685 343.576Z" fill="#727272"/>
<path d="M221.62 343.644C221.911 343.204 220.302 343.235 220.121 343.518C219.888 343.887 221.455 343.892 221.62 343.644Z" fill="#727272"/>
<path d="M219.426 343.457C219.718 343.014 218.104 343.048 217.927 343.329C217.694 343.7 219.262 343.705 219.426 343.457Z" fill="#727272"/>
<path d="M217.163 343.45C217.455 343.007 215.842 343.041 215.665 343.323C215.431 343.692 216.999 343.698 217.163 343.45Z" fill="#727272"/>
<path d="M214.769 343.3C215.122 342.901 213.52 342.706 213.304 342.959C213.019 343.295 214.571 343.524 214.769 343.3Z" fill="#727272"/>
<path d="M212.822 343.196C213.113 342.756 211.5 342.787 211.323 343.069C211.09 343.44 212.659 343.444 212.822 343.196Z" fill="#727272"/>
<path d="M202.667 342.343C202.713 341.254 201.09 341.418 201.069 342.113C201.042 343.021 202.642 342.956 202.667 342.343Z" fill="#727272"/>
<path d="M204.859 342.577C204.904 341.487 203.281 341.651 203.261 342.346C203.233 343.254 204.833 343.188 204.859 342.577Z" fill="#727272"/>
<path d="M207.048 342.809C207.094 341.72 205.471 341.884 205.451 342.578C205.422 343.487 207.022 343.421 207.048 342.809Z" fill="#727272"/>
<path d="M209.489 342.932C209.535 341.842 207.912 342.007 207.891 342.703C207.863 343.61 209.463 343.545 209.489 342.932Z" fill="#727272"/>
<path d="M210.423 343.019C210.724 342.582 209.111 342.582 208.927 342.86C208.687 343.225 210.255 343.264 210.423 343.019Z" fill="#727272"/>
<path d="M208.232 342.786C208.533 342.349 206.92 342.349 206.737 342.628C206.496 342.993 208.064 343.032 208.232 342.786Z" fill="#727272"/>
<path d="M205.971 342.733C206.272 342.294 204.659 342.294 204.476 342.574C204.234 342.941 205.803 342.979 205.971 342.733Z" fill="#727272"/>
<path d="M203.58 342.535C203.941 342.145 202.34 341.916 202.122 342.165C201.832 342.494 203.378 342.754 203.58 342.535Z" fill="#727272"/>
<path d="M195.955 341.93C195.976 343.021 197.586 342.758 197.566 342.063C197.536 341.154 195.942 341.317 195.955 341.93Z" fill="#727272"/>
<path d="M198.631 342.092C198.652 343.183 200.262 342.92 200.242 342.225C200.212 341.317 198.618 341.481 198.631 342.092Z" fill="#727272"/>
<path d="M193.754 341.83C193.779 342.921 195.385 342.658 195.366 341.963C195.335 341.055 193.743 341.217 193.754 341.83Z" fill="#727272"/>
<path d="M191.553 341.731C191.574 342.821 193.183 342.559 193.162 341.864C193.134 340.955 191.541 341.118 191.553 341.731Z" fill="#727272"/>
<path d="M189.11 341.754C189.131 342.84 190.741 342.581 190.719 341.883C190.691 340.977 189.097 341.141 189.11 341.754Z" fill="#727272"/>
<path d="M190.373 341.825C190.1 342.279 191.711 342.181 191.876 341.893C192.094 341.514 190.527 341.57 190.373 341.825Z" fill="#727272"/>
<path d="M192.632 341.74C192.359 342.194 193.97 342.097 194.135 341.808C194.354 341.429 192.786 341.485 192.632 341.74Z" fill="#727272"/>
<path d="M195.032 341.795C194.696 342.207 196.304 342.335 196.509 342.076C196.781 341.73 195.22 341.563 195.032 341.795Z" fill="#727272"/>
<path d="M197.416 341.953C197.08 342.364 198.688 342.496 198.894 342.233C199.164 341.888 197.604 341.721 197.416 341.953Z" fill="#727272"/>
<path d="M200.02 342.088C199.685 342.498 201.292 342.627 201.497 342.367C201.768 342.024 200.208 341.856 200.02 342.088Z" fill="#727272"/>
<path d="M174.459 337.275C175.044 336.35 173.552 335.688 173.191 336.277C172.712 337.054 174.131 337.792 174.459 337.275Z" fill="#727272"/>
<path d="M172.538 335.857C173.295 335.069 171.969 334.123 171.493 334.63C170.869 335.292 172.112 336.299 172.538 335.857Z" fill="#727272"/>
<path d="M170.963 333.963C171.715 333.174 170.382 332.238 169.908 332.746C169.291 333.411 170.541 334.409 170.963 333.963Z" fill="#727272"/>
<path d="M169.39 332.16C170.347 331.634 169.365 330.336 168.759 330.678C167.966 331.125 168.852 332.456 169.39 332.16Z" fill="#727272"/>
<path d="M168.263 330.467C169.308 330.145 168.608 328.675 167.946 328.888C167.079 329.166 167.676 330.648 168.263 330.467Z" fill="#727272"/>
<path d="M167.515 328.535C168.549 328.181 167.804 326.733 167.149 326.967C166.29 327.273 166.935 328.734 167.515 328.535Z" fill="#727272"/>
<path d="M164.038 317.938C165.071 317.584 164.326 316.135 163.672 316.369C162.813 316.675 163.456 318.137 164.038 317.938Z" fill="#727272"/>
<path d="M163.652 315.818C164.685 315.464 163.94 314.016 163.287 314.25C162.427 314.556 163.071 316.018 163.652 315.818Z" fill="#727272"/>
<path d="M164.618 320.058C165.651 319.7 164.906 318.256 164.252 318.489C163.392 318.795 164.036 320.257 164.618 320.058Z" fill="#727272"/>
<path d="M165.198 322.177C166.231 321.823 165.486 320.376 164.832 320.609C163.973 320.914 164.616 322.376 165.198 322.177Z" fill="#727272"/>
<path d="M165.97 324.489C167.003 324.136 166.259 322.688 165.604 322.922C164.745 323.226 165.388 324.689 165.97 324.489Z" fill="#727272"/>
<path d="M166.55 326.609C167.583 326.254 166.838 324.806 166.184 325.04C165.325 325.346 165.968 326.808 166.55 326.609Z" fill="#727272"/>
<path d="M173.284 336.435C173.799 336.296 172.569 335.257 172.245 335.353C171.825 335.474 172.996 336.514 173.284 336.435Z" fill="#727272"/>
<path d="M175.584 337.863C176.063 337.633 174.661 336.835 174.364 336.987C173.973 337.185 175.316 337.993 175.584 337.863Z" fill="#727272"/>
<path d="M178.805 339.598C179.175 338.572 177.578 338.244 177.35 338.9C177.051 339.759 178.597 340.174 178.805 339.598Z" fill="#727272"/>
<path d="M176.621 338.628C177.19 337.698 175.693 337.059 175.335 337.656C174.869 338.437 176.301 339.152 176.621 338.628Z" fill="#727272"/>
<path d="M177.475 339.031C177.945 338.784 176.518 338.03 176.226 338.195C175.842 338.406 177.211 339.17 177.475 339.031Z" fill="#727272"/>
<path d="M180.03 339.93C180.448 339.601 178.906 339.121 178.649 339.335C178.31 339.615 179.796 340.114 180.03 339.93Z" fill="#727272"/>
<path d="M183.511 341.037C183.684 339.956 182.053 339.935 181.952 340.618C181.818 341.52 183.414 341.641 183.511 341.037Z" fill="#727272"/>
<path d="M181.185 340.489C181.57 339.466 179.978 339.116 179.74 339.771C179.428 340.626 180.969 341.063 181.185 340.489Z" fill="#727272"/>
<path d="M182.1 340.726C182.515 340.398 180.973 339.924 180.716 340.134C180.378 340.417 181.865 340.912 182.1 340.726Z" fill="#727272"/>
<path d="M184.778 341.135C185.127 340.734 183.523 340.553 183.31 340.809C183.028 341.146 184.583 341.36 184.778 341.135Z" fill="#727272"/>
<path d="M171.63 334.966C172.155 334.883 171.045 333.715 170.716 333.774C170.284 333.851 171.335 335.013 171.63 334.966Z" fill="#727272"/>
<path d="M170.02 333.055C170.551 333.084 169.718 331.708 169.385 331.695C168.946 331.678 169.722 333.038 170.02 333.055Z" fill="#727272"/>
<path d="M168.861 331.321C169.391 331.35 168.558 329.974 168.225 329.961C167.787 329.944 168.562 331.303 168.861 331.321Z" fill="#727272"/>
<path d="M167.968 329.435C168.486 329.555 167.9 328.057 167.572 327.987C167.143 327.897 167.677 329.367 167.968 329.435Z" fill="#727272"/>
<path d="M167.003 327.508C167.52 327.629 166.933 326.129 166.604 326.061C166.177 325.97 166.711 327.44 167.003 327.508Z" fill="#727272"/>
<path d="M166.228 325.388C166.746 325.509 166.16 324.013 165.833 323.942C165.404 323.85 165.938 325.32 166.228 325.388Z" fill="#727272"/>
<path d="M165.649 323.269C166.167 323.393 165.581 321.894 165.252 321.821C164.824 321.731 165.359 323.201 165.649 323.269Z" fill="#727272"/>
<path d="M164.876 321.15C165.394 321.269 164.807 319.771 164.48 319.699C164.051 319.612 164.586 321.082 164.876 321.15Z" fill="#727272"/>
<path d="M164.192 318.856C164.687 319.049 164.319 317.482 164.006 317.366C163.595 317.216 163.913 318.748 164.192 318.856Z" fill="#727272"/>
<path d="M163.612 316.543C164.108 316.736 163.74 315.169 163.426 315.054C163.015 314.903 163.334 316.435 163.612 316.543Z" fill="#727272"/>
<path d="M161.927 307.089C162.992 306.846 162.408 305.329 161.733 305.491C160.845 305.701 161.327 307.225 161.927 307.089Z" fill="#727272"/>
<path d="M161.771 304.94C162.837 304.697 162.253 303.177 161.576 303.341C160.69 303.554 161.172 305.076 161.771 304.94Z" fill="#727272"/>
<path d="M162.273 309.258C163.338 309.018 162.754 307.5 162.078 307.66C161.192 307.871 161.674 309.394 162.273 309.258Z" fill="#727272"/>
<path d="M162.62 311.428C163.686 311.184 163.102 309.666 162.426 309.83C161.539 310.041 162.021 311.564 162.62 311.428Z" fill="#727272"/>
<path d="M163.137 313.81C164.203 313.57 163.62 312.051 162.942 312.212C162.057 312.423 162.538 313.946 163.137 313.81Z" fill="#727272"/>
<path d="M163.297 314.733C163.798 314.908 163.377 313.355 163.06 313.251C162.643 313.115 163.016 314.634 163.297 314.733Z" fill="#727272"/>
<path d="M162.95 312.563C163.452 312.738 163.03 311.185 162.712 311.081C162.297 310.945 162.669 312.464 162.95 312.563Z" fill="#727272"/>
<path d="M162.412 310.373C162.912 310.548 162.492 308.999 162.174 308.892C161.758 308.755 162.129 310.274 162.412 310.373Z" fill="#727272"/>
<path d="M161.98 308.018C162.451 308.262 162.255 306.664 161.955 306.518C161.563 306.323 161.714 307.881 161.98 308.018Z" fill="#727272"/>
<path d="M161.653 305.658C162.125 305.903 161.93 304.305 161.63 304.157C161.237 303.963 161.388 305.521 161.653 305.658Z" fill="#727272"/>
<path d="M160.227 296.097C161.297 295.874 160.743 294.347 160.065 294.492C159.174 294.689 159.625 296.221 160.227 296.097Z" fill="#727272"/>
<path d="M160.115 293.945C161.185 293.726 160.632 292.195 159.952 292.344C159.061 292.537 159.512 294.069 160.115 293.945Z" fill="#727272"/>
<path d="M160.531 298.274C161.601 298.054 161.048 296.524 160.368 296.672C159.477 296.865 159.928 298.397 160.531 298.274Z" fill="#727272"/>
<path d="M160.834 300.449C161.905 300.229 161.351 298.698 160.671 298.847C159.78 299.04 160.232 300.572 160.834 300.449Z" fill="#727272"/>
<path d="M161.304 302.841C162.375 302.617 161.821 301.091 161.142 301.24C160.251 301.433 160.702 302.965 161.304 302.841Z" fill="#727272"/>
<path d="M161.445 303.766C161.943 303.951 161.553 302.392 161.238 302.28C160.824 302.136 161.166 303.662 161.445 303.766Z" fill="#727272"/>
<path d="M161.141 301.589C161.639 301.774 161.249 300.215 160.933 300.101C160.52 299.959 160.861 301.485 161.141 301.589Z" fill="#727272"/>
<path d="M160.646 299.389C161.144 299.573 160.754 298.013 160.44 297.9C160.025 297.759 160.366 299.285 160.646 299.389Z" fill="#727272"/>
<path d="M160.26 297.027C160.727 297.282 160.563 295.68 160.268 295.527C159.878 295.325 159.998 296.884 160.26 297.027Z" fill="#727272"/>
<path d="M159.982 294.66C160.448 294.914 160.284 293.313 159.989 293.16C159.6 292.957 159.719 294.517 159.982 294.66Z" fill="#727272"/>
<path d="M158.966 285.094C160.047 284.926 159.564 283.37 158.878 283.487C157.98 283.638 158.359 285.19 158.966 285.094Z" fill="#727272"/>
<path d="M158.955 282.941C160.035 282.771 159.552 281.217 158.867 281.333C157.969 281.484 158.348 283.036 158.955 282.941Z" fill="#727272"/>
<path d="M159.168 287.283C160.247 287.114 159.764 285.558 159.079 285.675C158.181 285.827 158.561 287.378 159.168 287.283Z" fill="#727272"/>
<path d="M159.369 289.47C160.449 289.304 159.967 287.746 159.282 287.863C158.383 288.014 158.762 289.566 159.369 289.47Z" fill="#727272"/>
<path d="M159.726 291.882C160.808 291.712 160.325 290.158 159.639 290.275C158.74 290.426 159.119 291.978 159.726 291.882Z" fill="#727272"/>
<path d="M159.824 292.812C160.313 293.021 159.996 291.443 159.686 291.319C159.279 291.155 159.549 292.696 159.824 292.812Z" fill="#727272"/>
<path d="M159.624 290.624C160.113 290.83 159.796 289.251 159.485 289.13C159.079 288.967 159.35 290.507 159.624 290.624Z" fill="#727272"/>
<path d="M159.232 288.402C159.72 288.608 159.403 287.029 159.094 286.909C158.687 286.745 158.958 288.285 159.232 288.402Z" fill="#727272"/>
<path d="M158.957 286.025C159.411 286.304 159.322 284.693 159.034 284.531C158.655 284.306 158.702 285.87 158.957 286.025Z" fill="#727272"/>
<path d="M158.789 283.647C159.244 283.926 159.155 282.317 158.866 282.149C158.488 281.929 158.535 283.493 158.789 283.647Z" fill="#727272"/>
<path d="M158.031 274.106C159.114 273.954 158.657 272.392 157.968 272.497C157.068 272.635 157.422 274.192 158.031 274.106Z" fill="#727272"/>
<path d="M158.055 271.952C159.137 271.799 158.68 270.237 157.992 270.343C157.091 270.48 157.446 272.038 158.055 271.952Z" fill="#727272"/>
<path d="M158.198 276.296C159.28 276.144 158.823 274.583 158.136 274.688C157.235 274.825 157.59 276.382 158.198 276.296Z" fill="#727272"/>
<path d="M158.365 278.487C159.447 278.335 158.99 276.771 158.303 276.878C157.402 277.015 157.757 278.573 158.365 278.487Z" fill="#727272"/>
<path d="M158.685 280.904C159.768 280.751 159.311 279.19 158.623 279.295C157.722 279.432 158.077 280.99 158.685 280.904Z" fill="#727272"/>
<path d="M158.768 281.836C159.254 282.051 158.961 280.469 158.653 280.343C158.25 280.169 158.496 281.714 158.768 281.836Z" fill="#727272"/>
<path d="M158.601 279.644C159.086 279.861 158.794 278.278 158.487 278.149C158.082 277.979 158.328 279.524 158.601 279.644Z" fill="#727272"/>
<path d="M158.245 277.417C158.73 277.633 158.438 276.047 158.132 275.921C157.727 275.752 157.972 277.297 158.245 277.417Z" fill="#727272"/>
<path d="M158.007 275.036C158.457 275.319 158.394 273.711 158.108 273.543C157.732 273.313 157.754 274.877 158.007 275.036Z" fill="#727272"/>
<path d="M157.877 272.656C158.327 272.939 158.263 271.331 157.978 271.159C157.602 270.933 157.625 272.497 157.877 272.656Z" fill="#727272"/>
<path d="M157.3 262.923C158.385 262.795 157.96 261.22 157.271 261.315C156.367 261.432 156.69 262.998 157.3 262.923Z" fill="#727272"/>
<path d="M157.367 260.77C158.452 260.639 158.027 259.068 157.338 259.16C156.435 259.279 156.757 260.843 157.367 260.77Z" fill="#727272"/>
<path d="M157.421 265.117C158.506 264.987 158.082 263.416 157.392 263.51C156.489 263.626 156.811 265.19 157.421 265.117Z" fill="#727272"/>
<path d="M157.543 267.31C158.628 267.18 158.204 265.606 157.514 265.7C156.611 265.819 156.933 267.383 157.543 267.31Z" fill="#727272"/>
<path d="M157.812 269.733C158.897 269.602 158.473 268.032 157.783 268.123C156.879 268.241 157.202 269.805 157.812 269.733Z" fill="#727272"/>
<path d="M157.876 270.666C158.357 270.892 158.099 269.305 157.792 269.169C157.393 268.99 157.607 270.539 157.876 270.666Z" fill="#727272"/>
<path d="M157.755 268.473C158.236 268.698 157.978 267.111 157.672 266.979C157.271 266.796 157.486 268.346 157.755 268.473Z" fill="#727272"/>
<path d="M157.444 266.238C157.925 266.462 157.667 264.877 157.361 264.741C156.96 264.562 157.174 266.112 157.444 266.238Z" fill="#727272"/>
<path d="M157.257 263.852C157.7 264.144 157.671 262.538 157.388 262.358C157.018 262.124 157.007 263.688 157.257 263.852Z" fill="#727272"/>
<path d="M157.175 261.471C157.618 261.763 157.589 260.154 157.306 259.977C156.936 259.743 156.926 261.307 157.175 261.471Z" fill="#727272"/>
<path d="M156.914 251.746C157.999 251.616 157.574 250.043 156.885 250.137C155.981 250.257 156.303 251.82 156.914 251.746Z" fill="#727272"/>
<path d="M156.981 249.594C158.065 249.467 157.641 247.892 156.952 247.986C156.048 248.102 156.371 249.667 156.981 249.594Z" fill="#727272"/>
<path d="M157.035 253.941C158.12 253.815 157.696 252.24 157.006 252.334C156.103 252.45 156.425 254.014 157.035 253.941Z" fill="#727272"/>
<path d="M157.157 256.134C158.24 256.003 157.818 254.434 157.128 254.524C156.225 254.643 156.547 256.208 157.157 256.134Z" fill="#727272"/>
<path d="M157.427 258.556C158.511 258.43 158.087 256.856 157.398 256.949C156.494 257.065 156.816 258.629 157.427 258.556Z" fill="#727272"/>
<path d="M157.49 259.49C157.97 259.716 157.712 258.129 157.406 257.993C157.006 257.815 157.22 259.364 157.49 259.49Z" fill="#727272"/>
<path d="M157.368 257.297C157.848 257.521 157.59 255.935 157.284 255.8C156.885 255.62 157.099 257.17 157.368 257.297Z" fill="#727272"/>
<path d="M157.059 255.062C157.538 255.289 157.28 253.701 156.973 253.565C156.575 253.387 156.789 254.937 157.059 255.062Z" fill="#727272"/>
<path d="M156.87 252.677C157.313 252.973 157.284 251.362 157.001 251.187C156.631 250.949 156.62 252.513 156.87 252.677Z" fill="#727272"/>
<path d="M156.789 250.294C157.232 250.586 157.203 248.979 156.921 248.8C156.55 248.566 156.54 250.13 156.789 250.294Z" fill="#727272"/>
<path d="M156.916 247.385C158.004 247.282 157.621 245.7 156.928 245.775C156.022 245.87 156.304 247.442 156.916 247.385Z" fill="#727272"/>
<path d="M156.697 244.955C157.785 244.853 157.402 243.27 156.709 243.345C155.803 243.44 156.085 245.012 156.697 244.955Z" fill="#727272"/>
<path d="M156.572 242.766C156.855 241.713 155.234 241.521 155.063 242.193C154.837 243.074 156.413 243.359 156.572 242.766Z" fill="#727272"/>
<path d="M154.742 242.335C154.426 241.292 152.947 241.98 153.158 242.641C153.432 243.509 154.921 242.922 154.742 242.335Z" fill="#727272"/>
<path d="M156.955 248.32C157.431 248.557 157.213 246.964 156.91 246.819C156.515 246.632 156.689 248.185 156.955 248.32Z" fill="#727272"/>
<path d="M156.89 246.123C157.366 246.363 157.148 244.769 156.845 244.624C156.451 244.436 156.624 245.99 156.89 246.123Z" fill="#727272"/>
<path d="M156.642 243.76C157.163 243.866 156.533 242.385 156.203 242.325C155.773 242.247 156.35 243.701 156.642 243.76Z" fill="#727272"/>
<path d="M155.633 242.366C155.823 241.87 154.255 242.246 154.14 242.56C153.993 242.971 155.526 242.644 155.633 242.366Z" fill="#727272"/>
<path d="M184.529 341.004C184.496 342.093 186.117 341.91 186.129 341.216C186.147 340.306 184.548 340.391 184.529 341.004Z" fill="#727272"/>
<path d="M186.729 341.391C186.696 342.48 188.317 342.297 188.33 341.602C188.347 340.693 186.748 340.778 186.729 341.391Z" fill="#727272"/>
<path d="M185.815 341.209C185.459 341.607 187.058 341.817 187.277 341.566C187.564 341.232 186.015 340.987 185.815 341.209Z" fill="#727272"/>
<path d="M188.188 341.486C187.83 341.879 189.428 342.091 189.647 341.838C189.937 341.507 188.388 341.264 188.188 341.486Z" fill="#727272"/>
<path d="M289.602 343.862C289.569 344.951 291.19 344.768 291.203 344.074C291.22 343.165 289.621 343.25 289.602 343.862Z" fill="#727272"/>
<path d="M291.728 344.178C291.695 345.268 293.316 345.083 293.328 344.39C293.344 343.482 291.746 343.566 291.728 344.178Z" fill="#727272"/>
<path d="M291.06 343.884C290.702 344.278 292.301 344.49 292.522 344.237C292.81 343.905 291.26 343.663 291.06 343.884Z" fill="#727272"/>
<path d="M300.746 344.517C300.716 345.607 302.337 345.423 302.346 344.729C302.363 343.821 300.764 343.905 300.746 344.517Z" fill="#727272"/>
<path d="M298.552 344.308C298.519 345.394 300.141 345.214 300.152 344.518C300.17 343.612 298.571 343.696 298.552 344.308Z" fill="#727272"/>
<path d="M296.36 344.101C296.328 345.189 297.948 345.007 297.96 344.312C297.978 343.404 296.379 343.487 296.36 344.101Z" fill="#727272"/>
<path d="M293.918 344.004C293.886 345.093 295.506 344.91 295.519 344.215C295.536 343.307 293.937 343.391 293.918 344.004Z" fill="#727272"/>
<path d="M292.983 343.927C292.687 344.369 294.3 344.349 294.481 344.069C294.717 343.702 293.149 343.68 292.983 343.927Z" fill="#727272"/>
<path d="M295.176 344.135C294.879 344.574 296.494 344.554 296.673 344.279C296.91 343.911 295.341 343.89 295.176 344.135Z" fill="#727272"/>
<path d="M297.437 344.164C297.141 344.604 298.755 344.587 298.934 344.306C299.171 343.937 297.603 343.917 297.437 344.164Z" fill="#727272"/>
<path d="M299.83 344.335C299.471 344.729 301.07 344.94 301.288 344.689C301.579 344.358 300.03 344.114 299.83 344.335Z" fill="#727272"/>
<path d="M302.205 344.611C301.849 345.006 303.448 345.217 303.666 344.964C303.952 344.634 302.405 344.39 302.205 344.611Z" fill="#727272"/>
<path d="M307.805 345.179C307.773 346.269 309.393 346.086 309.406 345.391C309.423 344.483 307.824 344.566 307.805 345.179Z" fill="#727272"/>
<path d="M309.931 345.568C309.898 346.657 311.519 346.474 311.531 345.78C311.547 344.872 309.948 344.955 309.931 345.568Z" fill="#727272"/>
<path d="M305.612 344.971C305.579 346.06 307.2 345.877 307.212 345.179C307.23 344.274 305.63 344.358 305.612 344.971Z" fill="#727272"/>
<path d="M303.42 344.762C303.391 345.853 305.011 345.668 305.02 344.976C305.038 344.067 303.438 344.151 303.42 344.762Z" fill="#727272"/>
<path d="M304.497 344.827C304.197 345.267 305.814 345.249 305.991 344.969C306.231 344.6 304.662 344.58 304.497 344.827Z" fill="#727272"/>
<path d="M306.891 344.997C306.535 345.392 308.135 345.603 308.353 345.352C308.64 345.02 307.091 344.775 306.891 344.997Z" fill="#727272"/>
<path d="M309.265 345.275C308.905 345.668 310.505 345.88 310.723 345.627C311.013 345.298 309.464 345.053 309.265 345.275Z" fill="#727272"/>
<path d="M318.949 346.374C318.917 347.464 320.537 347.28 320.546 346.582C320.567 345.677 318.968 345.762 318.949 346.374Z" fill="#727272"/>
<path d="M321.613 346.668C321.58 347.758 323.201 347.574 323.213 346.88C323.23 345.972 321.631 346.057 321.613 346.668Z" fill="#727272"/>
<path d="M316.755 346.167C316.723 347.256 318.343 347.073 318.356 346.379C318.373 345.47 316.774 345.554 316.755 346.167Z" fill="#727272"/>
<path d="M314.563 345.957C314.53 347.048 316.151 346.864 316.163 346.17C316.18 345.261 314.581 345.345 314.563 345.957Z" fill="#727272"/>
<path d="M312.121 345.863C312.088 346.951 313.709 346.769 313.722 346.075C313.738 345.165 312.139 345.249 312.121 345.863Z" fill="#727272"/>
<path d="M311.186 345.784C310.89 346.226 312.503 346.208 312.683 345.93C312.92 345.558 311.352 345.538 311.186 345.784Z" fill="#727272"/>
<path d="M313.379 345.993C313.084 346.433 314.698 346.414 314.877 346.135C315.114 345.767 313.545 345.745 313.379 345.993Z" fill="#727272"/>
<path d="M315.639 346.021C315.344 346.46 316.957 346.441 317.137 346.164C317.374 345.795 315.805 345.774 315.639 346.021Z" fill="#727272"/>
<path d="M318.033 346.193C317.674 346.591 319.274 346.798 319.491 346.546C319.783 346.216 318.233 345.971 318.033 346.193Z" fill="#727272"/>
<path d="M320.408 346.47C320.052 346.864 321.651 347.076 321.87 346.823C322.157 346.491 320.608 346.247 320.408 346.47Z" fill="#727272"/>
<path d="M323.002 346.733C322.646 347.126 324.245 347.338 324.464 347.085C324.751 346.756 323.202 346.511 323.002 346.733Z" fill="#727272"/>
<path d="M330.308 346.614C329.974 345.575 328.508 346.289 328.729 346.947C329.017 347.81 330.495 347.197 330.308 346.614Z" fill="#727272"/>
<path d="M328.169 347.096C327.936 346.031 326.407 346.6 326.562 347.278C326.771 348.164 328.302 347.695 328.169 347.096Z" fill="#727272"/>
<path d="M325.79 347.377C325.893 346.293 324.264 346.371 324.206 347.062C324.131 347.968 325.732 347.987 325.79 347.377Z" fill="#727272"/>
<path d="M331.151 346.167C331.223 345.642 329.782 346.366 329.744 346.696C329.693 347.131 331.111 346.463 331.151 346.167Z" fill="#727272"/>
<path d="M329.09 346.988C329.267 346.487 327.709 346.906 327.604 347.223C327.467 347.638 328.992 347.269 329.09 346.988Z" fill="#727272"/>
<path d="M326.885 347.363C327.21 346.944 325.599 346.853 325.4 347.122C325.14 347.472 326.702 347.599 326.885 347.363Z" fill="#727272"/>
<path d="M11.0825 239.403C10.5392 239.516 8.803 243.266 9.35284 246.226C9.90409 249.187 11.4871 256.043 12.3974 257.173C13.3086 258.302 14.4505 260.323 14.4505 260.323C14.4505 260.323 10.4324 262.475 9.79206 263.884C9.79206 263.884 9.79347 264.46 10.2842 264.384C10.775 264.307 15.0599 264.074 15.2614 264.552C15.463 265.033 15.8539 267.523 15.9186 267.847C15.9842 268.172 15.8038 269.644 15.7419 270.171C15.7161 270.391 14.4017 272.499 14.6422 272.976C14.8855 273.454 16.6644 273.471 17.6563 273.447C18.6472 273.425 23.9314 269.892 24.6683 269.244C25.4061 268.595 25.6119 260.74 25.6119 260.74C25.6119 260.74 24.1091 250.472 24.478 250.451C24.8474 250.43 27.3397 249.429 28.1399 248.505C28.9405 247.579 28.6433 243.104 28.2646 242.389C27.8821 241.673 19.2303 237.689 11.0825 239.403Z" fill="#36627A"/>
<path d="M15.1228 267.733C15.1228 267.733 15.9787 267.56 16.028 267.665C16.0772 267.772 16.2647 268.067 16.2244 268.638C16.1836 269.208 16.403 269.935 15.952 269.989C15.5011 270.044 15.1908 270.044 15.1908 270.044C15.1908 270.044 14.4389 271.895 13.2797 272.455C12.1209 273.015 11.3414 272.825 12.0539 272.092C12.7655 271.36 14.1042 270.497 13.9762 270.196C13.8492 269.896 11.6039 270.203 11.6039 270.203L11.6241 268.394C11.6241 268.394 13.3401 268.228 13.4255 268.261C13.5108 268.292 14.1576 267.814 13.6664 267.604C13.1751 267.392 11.0606 267.607 11.3981 266.859C11.7356 266.111 11.6536 266.119 12.4528 266.019C13.2525 265.916 14.2744 266.311 14.7286 266.859C15.1814 267.406 15.1228 267.733 15.1228 267.733Z" fill="#6C808C"/>
<path d="M60.6654 261.709L52.5893 254.969L18.7085 253.05C29.2835 250.881 49.3197 247.707 79.1716 245.872C100.617 244.556 118.586 244.418 126.896 244.836C142.008 245.602 152.174 244.726 154.756 244.462C154.316 244.74 153.672 245.173 153.281 245.536C152.985 245.811 152.724 246.182 152.357 246.695C151.622 247.737 150.497 249.239 148.012 251.577L147.764 251.801C131.177 259.861 108.691 262.236 92.5427 262.694C75.4361 263.182 61.3877 261.784 60.6654 261.709Z" fill="#FF0000"/>
<path d="M79.573 234.724C79.4287 234.432 79.3133 234.213 79.2205 234.05C79.1737 233.968 79.1329 233.901 79.0968 233.844C78.9172 233.558 78.8582 233.557 78.8221 233.556L78.7194 233.621C78.6712 233.711 78.6172 233.81 78.5535 233.914C78.5118 233.982 78.4672 234.053 78.4199 234.124C78.396 234.159 78.3716 234.195 78.3482 234.232C77.6938 235.178 76.6082 236.294 75.9557 236.123C75.6444 236.039 75.4579 235.83 75.3829 235.478C75.373 235.436 75.3674 235.393 75.3622 235.35C75.3571 235.305 75.3524 235.26 75.3524 235.21C75.3116 233.953 76.4343 231.49 77.9108 229.921C78.1382 229.678 78.374 229.46 78.6149 229.269C78.749 229.162 78.9008 229.054 79.0616 228.963C79.319 228.817 79.5988 228.711 79.8585 228.724C79.956 228.729 80.0516 228.751 80.1426 228.792C80.2874 228.859 80.3835 228.972 80.4365 229.133C80.4712 229.241 80.4852 229.366 80.4847 229.5C80.4744 230.438 79.6743 231.867 79.664 231.882L79.604 231.99L80.9118 232.365L79.573 234.724ZM79.7343 230.083C79.731 229.938 79.6949 229.82 79.6147 229.742C79.5988 229.725 79.581 229.712 79.5618 229.696C79.513 229.666 79.4549 229.647 79.3944 229.647C79.3508 229.647 79.3054 229.657 79.2538 229.676C78.9027 229.803 78.3979 230.345 77.8897 231.041L77.8672 231.013L77.8443 230.984L77.3999 231.754C77.1791 232.097 76.9682 232.453 76.7802 232.799C76.4661 233.374 76.2168 233.923 76.0902 234.337C76.019 234.572 75.9871 234.759 75.9946 234.905C75.9965 234.941 76.0021 234.974 76.0082 235.006C76.0288 235.097 76.0719 235.166 76.1357 235.21C76.1647 235.228 76.1971 235.239 76.2318 235.239C76.6321 235.239 77.9282 233.672 78.4654 232.909C78.4851 232.88 78.5043 232.853 78.5221 232.826C78.5558 232.775 78.5882 232.727 78.6126 232.686C78.6397 232.645 78.6604 232.609 78.6735 232.579C78.6894 232.552 78.7091 232.522 78.7326 232.485C78.7569 232.449 78.7818 232.404 78.8108 232.357C79.1282 231.832 79.7493 230.715 79.7343 230.083Z" fill="black"/>
<path d="M91.8577 230.521C91.3402 230.591 89.5224 230.886 87.9464 231.184C87.8456 231.203 87.7467 231.222 87.6478 231.242C87.5967 231.252 87.5456 231.262 87.495 231.271C87.2789 231.314 87.0703 231.359 86.8716 231.401C86.8092 231.415 86.7483 231.43 86.6883 231.444C86.5392 231.478 86.3953 231.513 86.2627 231.549C86.2088 231.563 86.1563 231.578 86.1066 231.593C86.0958 231.595 86.0817 231.599 86.0658 231.603C85.5802 231.71 82.8122 232.353 82.3988 233.07C82.3856 233.095 82.3739 233.114 82.3674 233.138C82.1241 233.829 81.5334 237.706 81.4369 238.569H79.7817L79.2014 237.109L79.4259 235.036L79.5131 234.994C79.508 234.985 79.5033 234.975 79.5 234.966C79.4939 234.956 79.4902 234.946 79.4855 234.937L80.9194 232.42L80.9419 232.426L80.9695 232.336L80.9902 232.299L81.0267 232.233L83.1703 227.735L83.4989 227.622L83.8285 227.507L84.7922 222.261C84.8391 222.261 84.9042 222.261 84.9867 222.261C85.5478 222.261 87.4238 222.276 87.9624 222.482C88.4152 222.652 90.586 227.424 91.8577 230.521Z" fill="#3FA9F5"/>
<path d="M78.6864 232.044C78.6962 232.044 78.7028 232.042 78.7094 232.041C78.7281 232.036 78.7441 232.027 78.7581 232.013C78.6634 232.179 78.5683 232.336 78.475 232.484C78.4225 232.59 78.3208 232.746 78.1909 232.927C78.1694 232.879 78.1619 232.822 78.1614 232.775C78.1605 232.693 78.1773 232.629 78.1773 232.628L78.2064 232.528L77.2891 232.335L77.673 231.665C77.747 231.557 77.8211 231.448 77.897 231.344C78.4539 231.985 78.6208 232.046 78.6864 232.044Z" fill="black"/>
<path d="M78.7328 232.486C78.7094 232.524 78.6902 232.554 78.6738 232.58C78.6606 232.609 78.64 232.646 78.6128 232.687C78.587 232.729 78.5561 232.775 78.5224 232.827C78.5045 232.855 78.4858 232.881 78.4656 232.911C77.9284 233.676 76.6328 235.24 76.232 235.24C76.1973 235.24 76.1636 235.23 76.1359 235.211C76.0708 235.167 76.0286 235.102 76.0084 235.007C76.0014 234.978 75.9972 234.942 75.9948 234.907C75.9869 234.761 76.0188 234.574 76.0905 234.338C76.217 233.925 76.4664 233.376 76.7805 232.8C76.9684 232.455 77.1808 232.098 77.4002 231.756L77.8445 230.986L77.8675 231.015L77.89 231.043C78.3977 230.347 78.903 229.804 79.2541 229.677C79.3042 229.66 79.3511 229.648 79.3947 229.648C79.458 229.648 79.5133 229.665 79.562 229.697C79.5817 229.709 79.5995 229.726 79.615 229.742C79.6952 229.823 79.7313 229.942 79.7345 230.084C79.7481 230.717 79.1284 231.831 78.8102 232.357C78.7825 232.406 78.7558 232.449 78.7328 232.486ZM76.2592 234.396C76.1073 234.894 76.172 235.017 76.1983 235.042C76.5203 234.983 77.4873 233.877 78.0653 233.099C77.9598 232.96 77.958 232.785 77.9706 232.678L77.148 232.504C76.7547 233.175 76.4219 233.859 76.2592 234.396ZM77.673 231.667L77.2877 232.336L78.205 232.53L78.1764 232.629C78.1759 232.63 78.1591 232.697 78.16 232.775C78.1605 232.824 78.1694 232.88 78.1895 232.928C78.3194 232.744 78.4216 232.588 78.4736 232.485C78.5664 232.339 78.662 232.18 78.7567 232.014C78.7427 232.025 78.7267 232.036 78.708 232.042C78.7019 232.043 78.6963 232.044 78.685 232.045C78.6189 232.047 78.4525 231.985 77.8938 231.345C77.8216 231.449 77.747 231.557 77.673 231.667ZM79.4528 229.857C79.436 229.846 79.4163 229.841 79.3928 229.841C79.1214 229.841 78.5786 230.409 78.0128 231.184C78.2552 231.462 78.528 231.743 78.648 231.829C78.7155 231.729 78.8411 231.689 78.9461 231.677C79.3802 230.866 79.7102 230.028 79.4528 229.857Z" fill="black"/>
<path d="M18.1754 251.654L18.2209 251.625L18.1885 248.96L19.8568 247.944L27.1585 248.071L27.1759 248.062L30.2007 246.946L30.3296 240.725L35.7859 239.395L47.4591 239.364L48.0741 238.237L57.9615 237.689L58.0262 236.688L60.0821 236.481L59.8965 236.335C59.8937 236.333 59.6063 236.104 59.6134 235.824C59.619 235.662 59.7221 235.507 59.9246 235.366C60.0746 235.259 60.5148 235.135 61.7565 235.135C62.8955 235.135 64.2882 235.238 65.3049 235.313C65.8065 235.35 66.204 235.38 66.436 235.385C67.1298 235.407 67.8995 235.928 68.3185 236.404C68.5763 236.695 68.7132 236.979 68.694 237.182C68.6326 237.825 68.5276 237.981 68.0635 238.068L68.0907 238.273L74.919 237.626L79.133 237.23L79.7091 238.707H81.5326L81.5434 238.488C81.5518 238.441 82.2254 233.794 82.4766 233.072C82.6735 232.508 85.1457 231.849 86.0809 231.643C87.7323 231.183 91.1771 230.698 91.8104 230.613L91.8202 230.637L91.8905 230.629C91.8915 230.629 92.026 230.618 92.213 230.618C92.7418 230.618 93.1266 230.706 93.2987 230.862C93.4862 231.034 93.4876 231.378 93.4894 231.712C93.4909 232 93.4918 232.272 93.5991 232.473C93.8237 232.888 95.7413 236.121 95.8234 236.258L95.8505 236.303L95.8998 236.306C96.182 236.322 123.99 237.962 130.195 238.724C130.677 238.783 131.224 238.838 131.824 238.922C141.213 240.241 154.364 242.771 154.364 242.771C155.382 242.788 155.784 243.108 155.819 243.376C155.853 243.622 155.595 243.872 155.173 243.994C155.161 244.002 154.878 244.144 154.492 244.373C152.786 244.558 142.493 245.575 126.412 244.762C118.096 244.343 100.1 244.507 78.6479 245.824C48.0854 247.704 29.2229 250.704 18.7815 252.887L18.3249 252.983C17.4587 252.971 17.1507 252.885 17.1109 252.837C17.0963 252.81 17.0776 252.787 17.0588 252.76C17.0143 252.698 16.9918 252.666 17.0007 252.617C17.0345 252.446 17.4179 252.13 18.1754 251.654Z" fill="white" stroke="white" stroke-miterlimit="10"/>
<path d="M60.4059 261.781L60.435 261.785C60.5522 261.796 70.5717 262.84 84.3727 262.84C86.7624 262.84 89.2636 262.81 91.845 262.734C107.924 262.278 130.522 260.056 147.115 252.089C147.069 252.13 147.028 252.168 146.987 252.209C146.415 252.736 145.846 253.295 145.243 253.887C141.43 257.63 136.686 262.288 124.448 265.837C121.632 266.652 118.617 267.035 114.957 267.035C111.822 267.035 108.606 266.95 105.202 266.656C101.464 266.334 97.6013 266.001 93.4697 266.001C92.835 266.001 92.2017 266.011 91.5867 266.026C90.9661 266.042 90.2391 266.052 89.4258 266.052C73.3341 266.052 24.3145 262.693 22.2802 262.563L18.6445 253.28L52.3542 255.043L60.4059 261.781Z" fill="white" stroke="white" stroke-miterlimit="10"/>
<path d="M69.9165 238.004C69.9165 238.004 69.2658 237.251 69.4083 236.359C69.5508 235.472 69.751 235.017 70.298 234.861C70.8451 234.705 71.5861 234.634 71.7371 234.711C71.8894 234.788 73.734 235.518 74.1544 235.663C74.5758 235.809 75.7266 236.568 75.7501 236.917C75.7735 237.267 75.841 237.379 75.9835 237.722C76.1255 238.063 76.3421 239.604 76.3421 239.604L73.561 239.91C73.561 239.91 73.5905 238.828 73.3862 238.752C73.1804 238.679 70.4635 238.402 70.2802 238.298C70.0965 238.196 69.9165 238.004 69.9165 238.004Z" fill="#996234"/>
<path d="M59.6172 233.676C59.6172 233.676 59.471 232.303 59.4119 232.303C59.3529 232.303 61.3418 232.186 61.8143 231.835C62.4002 231.399 65.6229 231.426 65.6229 231.426L67.7613 233.384L70.2288 235.235C70.2288 235.235 69.5191 237.563 69.1676 237.563C69.0016 237.563 67.2415 235.973 65.6519 235.927C63.8782 235.876 63.7479 236.891 64.1576 239.082C64.2354 239.497 60.4957 237.008 60.4957 237.008C60.4957 237.008 59.7897 236.482 59.6154 235.547C59.441 234.612 59.6172 233.676 59.6172 233.676Z" fill="#EF45B7"/>
<path d="M63.8643 219.593C63.9524 219.622 64.5965 218.833 64.5674 218.57C64.5384 218.307 64.2754 218.132 64.2163 218.132C64.1573 218.132 63.5423 217.401 63.8643 217.08C64.1868 216.758 63.1612 215.443 63.5418 214.801C63.9224 214.158 64.3912 213.164 65.2705 212.814C66.1499 212.463 66.7059 212.171 67.1455 212.522C67.5852 212.872 68.6399 213.866 68.669 214.246C68.698 214.625 68.8743 215.356 68.669 216.145C68.4637 216.934 68.4637 217.051 68.4346 217.898C68.4055 218.745 68.0244 219.271 67.7605 219.593C67.4966 219.916 67.6143 220.352 67.116 220.469C66.6177 220.586 67.2332 221.375 66.9988 221.667C66.7644 221.959 64.0105 221.228 64.0691 220.089C64.0973 219.553 63.8643 219.593 63.8643 219.593Z" fill="#996234"/>
<path d="M63.9528 218.453C63.9528 218.453 63.455 218.453 63.5132 218.044C63.5713 217.635 63.6791 216.934 63.5085 216.759C63.3378 216.583 62.81 216.262 62.9858 215.765C63.1616 215.268 63.3664 214.976 63.2493 214.509C63.1321 214.041 63.2492 213.661 63.6299 213.428C64.0105 213.194 64.3072 213.252 64.745 213.048C65.1843 212.843 65.5358 212.347 66.0322 212.259C66.53 212.171 67.116 211.82 67.5266 212.259C67.9372 212.697 68.2297 212.697 68.3469 212.989C68.4641 213.281 68.3179 212.96 68.4932 213.661C68.6685 214.363 69.0205 214.509 68.7861 214.889C68.5518 215.268 68.3464 214.567 68.1416 214.538C67.9368 214.509 68.0535 214.187 67.4971 214.538C66.9407 214.889 67.1455 214.772 66.3252 214.596C65.5049 214.421 65.0652 213.954 64.8158 214.801C64.5674 215.648 64.7127 215.502 64.8158 216.175C64.9189 216.847 64.8158 217.139 64.8158 217.139C64.8158 217.139 64.7727 216.817 64.4502 216.876C64.1277 216.934 64.0696 216.993 64.0986 217.343C64.1277 217.694 64.3039 218.103 64.2449 218.22C64.1858 218.337 63.9528 218.453 63.9528 218.453Z" fill="#301705"/>
<path d="M67.9958 225.115C67.9958 225.115 69.9294 228.271 70.4277 228.563C70.926 228.855 71.9512 229.44 72.3318 229.527C72.7124 229.615 75.1152 229.994 76.1404 229.936C77.1655 229.878 77.3413 229.569 77.7224 229.943C78.103 230.317 78.2793 230.579 78.4255 230.287C78.5718 229.994 78.4841 229.936 78.4255 229.497C78.3669 229.059 78.4255 228.825 78.8357 228.767C79.2458 228.709 79.873 229.176 79.7048 228.65C79.5388 228.124 79.5974 227.891 78.9224 227.949C78.2483 228.008 78.1312 228.505 77.6624 228.562C77.1937 228.62 76.9883 228.621 76.168 228.504C75.3477 228.387 73.033 227.014 72.5352 226.985C72.0374 226.956 72.0079 226.576 71.6858 226.254C71.3633 225.933 70.0743 224.355 70.0743 224.355" fill="#996234"/>
<path d="M59.4112 226.722C59.5283 225.086 60.1143 222.486 61.1104 221.346C62.1065 220.206 62.3994 220.236 63.1316 219.915C63.8638 219.593 64.2449 219.681 64.2449 219.681C64.2449 219.681 64.2833 220.85 64.8796 221.054C65.4758 221.259 66.8816 221.639 66.9697 221.405C67.0579 221.171 66.853 221.024 67.0283 220.819C67.2037 220.614 67.4971 220.061 67.7024 220.178C67.9073 220.295 68.9329 220.703 69.0501 221.23C69.1673 221.756 69.2844 222.457 69.5774 222.866C69.8704 223.275 70.0462 223.918 70.0462 223.918C70.0462 223.918 70.1343 224.152 70.2219 224.414C70.3096 224.677 69.4602 224.648 68.9038 225.729C68.3474 226.81 67.7319 225.116 67.7319 225.116C67.7319 225.116 68.406 224.677 67.7905 225.612C67.7905 225.612 66.853 227.044 66.7944 227.248C66.7358 227.453 66.5015 227.979 66.531 228.505C66.5601 229.032 66.8535 229.586 66.7944 230.141C66.7354 230.697 66.8062 231.193 66.1119 231.456C65.4187 231.719 64.6569 231.661 63.8062 231.748C62.9568 231.836 61.9091 231.79 61.521 232.128C61.1329 232.466 60.7593 232.186 60.2905 232.303C59.8218 232.42 59.7927 232.712 59.4116 232.303C59.031 231.894 59.6362 230.608 59.5387 230.316C59.4412 230.024 59.1871 229.381 59.2846 228.417C59.3816 227.453 59.4112 226.722 59.4112 226.722Z" fill="#8BC7E8"/>
<path d="M62.7987 228.695C62.7987 228.695 63.4198 230.73 63.7681 231.12C64.1168 231.507 64.6742 232.405 64.969 232.753C65.2648 233.102 67.8874 235.782 68.202 236.016C68.5193 236.249 70.039 237.583 70.039 237.583L72.1953 237.336C72.1953 237.336 70.7674 235.811 70.0657 235.067C69.3635 234.322 67.0409 231.454 66.9082 231.195C66.7756 230.934 66.0209 230.15 65.8165 229.787C65.6121 229.426 65.5784 228.678 65.4087 227.996C65.2404 227.314 64.9488 226.432 64.9488 226.432C64.9488 226.432 62.2399 226.108 62.1574 226.746C62.0749 227.382 62.7987 228.695 62.7987 228.695Z" fill="#996234"/>
<path d="M64.2155 239.052C64.2155 239.052 63.6197 238.254 63.825 237.377C64.0303 236.501 64.2633 236.063 64.8188 235.946C65.3757 235.829 66.12 235.81 66.2663 235.897C66.4125 235.985 68.1999 236.842 68.61 237.017C69.0202 237.193 70.1124 238.03 70.1124 238.381C70.1124 238.731 70.171 238.848 70.2882 239.199C70.4053 239.549 70.5516 240.543 70.5516 240.543L67.7382 240.841C67.7382 240.841 67.8235 240.134 67.6233 240.048C67.4217 239.96 64.7325 239.492 64.5567 239.375C64.381 239.259 64.2155 239.052 64.2155 239.052Z" fill="#996234"/>
<path opacity="0.6" d="M0.775391 256.719H375.775L376.235 373.903H1.2357L0.775391 256.719Z" fill="#33EFFF"/>
<path d="M376.036 346.221C358.28 349.423 347.351 348.627 334.687 348.582C323.413 348.567 319.15 346.315 299.355 344.816C287.126 344.449 277.457 344.82 264.505 345.478C255.077 345.956 233.397 347.079 223.655 345.567C205.116 340.532 158.205 341.577 137.024 344.842C115.843 348.108 124.989 342.831 111.51 343.334C98.0312 343.833 100.197 345.847 93.4576 344.084C86.7184 342.326 83.7685 336.987 78.0263 338.001C77.3757 338.389 78.1501 341.508 63.7295 333.969C58.6749 331.327 52.854 331.398 49.2568 331.339C45.6826 331.281 37.7166 333.164 33.1435 329.645C27.8701 326.557 12.5991 337.318 7.30367 340.33C2.0082 343.351 -0.630859 341.581 -0.630859 341.581L0.189453 375.347L376.236 375.814L376.036 346.221Z" fill="#D8BD80"/>
<rect x="315.775" y="15.2949" width="44.0746" height="25" rx="12.5" fill="#969696" fill-opacity="0.3"/>
<path d="M324.504 27.8213L324.99 22.9678H329.966V23.7266H325.694L325.345 27.0898C325.878 26.7253 326.503 26.543 327.218 26.543C328.116 26.543 328.832 26.8346 329.365 27.418C329.898 28.0013 330.165 28.7783 330.165 29.749C330.165 30.7972 329.905 31.6107 329.385 32.1895C328.866 32.7682 328.134 33.0576 327.191 33.0576C326.325 33.0576 325.623 32.8161 325.085 32.333C324.548 31.8499 324.24 31.1732 324.163 30.3027H324.949C325.026 30.9818 325.256 31.4967 325.639 31.8477C326.022 32.194 326.539 32.3672 327.191 32.3672C327.902 32.3672 328.437 32.1416 328.797 31.6904C329.162 31.2393 329.344 30.5967 329.344 29.7627C329.344 29.0335 329.141 28.4388 328.736 27.9785C328.33 27.5182 327.777 27.2881 327.075 27.2881C326.687 27.2881 326.35 27.3382 326.063 27.4385C325.776 27.5342 325.473 27.7233 325.154 28.0059L324.504 27.8213ZM331.73 33.7754H330.985L335.141 22.9678H335.879L331.73 33.7754ZM343.515 32.9209H337.281V32.292L340.692 28.4229C341.257 27.7712 341.649 27.2334 341.868 26.8096C342.086 26.3857 342.196 25.9733 342.196 25.5723C342.196 24.9434 342.011 24.4466 341.642 24.082C341.273 23.7129 340.765 23.5283 340.118 23.5283C339.448 23.5283 338.905 23.7425 338.491 24.1709C338.081 24.5993 337.875 25.1553 337.875 25.8389H337.062C337.062 25.2783 337.187 24.7679 337.438 24.3076C337.693 23.8473 338.053 23.4873 338.518 23.2275C338.987 22.9632 339.521 22.8311 340.118 22.8311C341.029 22.8311 341.74 23.0703 342.25 23.5488C342.765 24.0273 343.023 24.679 343.023 25.5039C343.023 25.9688 342.877 26.4769 342.585 27.0283C342.298 27.5798 341.79 28.2679 341.061 29.0928L338.286 32.2305H343.515V32.9209ZM350.071 29.7148H351.623V30.4053H350.071V32.9209H349.25V30.4053H344.568V29.9404L349.175 22.9678H350.071V29.7148ZM345.573 29.7148H349.25V24.0273L348.888 24.6562L345.573 29.7148Z" fill="black"/>
</g>
<defs>
<linearGradient id="paint0_linear" x1="188.506" y1="373.903" x2="188.506" y2="0.294691" gradientUnits="userSpaceOnUse">
<stop offset="0.1444" stop-color="white"/>
<stop offset="1" stop-color="#4FC3F7"/>
</linearGradient>
<clipPath id="clip0">
<rect width="375" height="374" fill="white" transform="translate(0.775391 0.294922)"/>
</clipPath>
</defs>
</svg>
