<svg width="375" height="376" viewBox="0 0 375 376" fill="none" xmlns="http://www.w3.org/2000/svg">
<g clip-path="url(#clip0)">
<path d="M-24.0345 395.707C-16.6344 393.265 383.647 417.515 445.616 397.068L418.867 -13.1836L-12.3988 -7.70625L-24.0345 395.707Z" fill="#EFDE95"/>
<path d="M377.862 88.6569C376.656 85.9518 374.587 84.4377 373.648 83.4922C372.708 82.5472 368.471 81.1194 367.627 79.5154C366.784 77.9108 364.473 73.1896 363.704 73.0466C362.934 72.9032 363.033 71.3005 359.64 71.4791C356.247 71.6577 354.174 71.0863 352.858 69.951C351.542 68.8161 353.236 70.1408 351.542 68.8161C349.849 67.4914 347.49 66.0486 345.045 65.2977C342.601 64.5472 342.487 64.2022 340.236 64.0377C337.985 63.8736 336.675 62.7589 334.93 62.225C333.185 61.6911 332.136 60.4138 331.394 59.1163C330.652 57.8193 332.057 57.3233 329.045 57.7049C326.032 58.0874 325.258 61.4488 322.817 59.7599C320.377 58.071 318.798 58.0429 317.188 56.9657C315.577 55.8885 312.092 53.8893 312.092 53.8893C312.092 53.8893 310.02 54.2694 308.705 53.1341C307.388 51.9993 305.606 49.4488 305.606 49.4488C305.606 49.4488 304.854 49.0696 303.817 48.7836C302.782 48.4972 300.902 46.6068 299.206 46.2247C297.512 45.8427 294.408 44.0422 292.805 43.9429C291.203 43.844 280.001 39.381 275.665 39.5558C271.329 39.7311 267.848 37.7413 262.951 36.2183C258.054 34.6954 261.244 39.6065 252.396 35.6207C243.548 31.6354 236.651 32.3544 236.651 32.3544C236.651 32.3544 218.571 29.834 216.877 30.0786C215.182 30.3238 208.681 29.6441 208.681 29.6441C208.681 29.6441 203.027 29.6268 197.748 29.7993C192.468 29.9718 188.144 26.3769 183.994 27.1185C179.844 27.86 178.65 27.6266 173.21 29.4215C167.771 31.2163 171.54 31.228 165.934 30.8807C160.327 30.5333 158.348 30.245 156.18 30.3327C154.012 30.4208 153.163 30.7002 152.127 30.4143C151.092 30.1288 148.264 30.1204 146.756 30.3041C145.247 30.4879 141.285 31.7952 139.309 30.5638C137.334 29.3329 139.788 28.2083 135.449 29.3268C131.11 30.4452 129.966 31.7633 127.239 31.0944C124.512 30.4246 124.543 30.1007 121.326 29.593C118.107 29.0858 111.72 26.9404 111.048 28.19C110.377 29.4393 104.343 30.1747 102.268 30.5455C100.193 30.9158 94.3453 32.2175 92.3644 32.8715C90.383 33.5254 82.1747 36.2333 80.7623 35.7585C79.35 35.2827 78.1247 35.3732 76.6186 34.6147C75.113 33.8568 70.8422 34.3236 70.8422 34.3236L67.8473 34.9977L50.2908 38.9071C50.2908 38.9071 51.6131 38.1566 45.0689 39.0608C38.5247 39.9655 36.9361 40.1755 36.9361 40.1755L30.0295 41.8255C30.0295 41.8255 27.4767 42.194 25.8792 42.5657C22.5998 43.3283 24.1528 41.4308 18.7387 44.0816C12.488 47.1425 10.3209 46.7591 7.30359 47.1271C4.28624 47.495 2.96765 47.3024 2.11827 47.5822C1.26937 47.8621 -5.29407 48.696 -6.65626 50.4772C-8.01798 52.2585 -15.2949 52.2294 -15.2949 52.2294L-23.5524 55.866L-25.3303 389.511L382.756 392.938V88.7493C380.005 90.9191 378.783 90.7227 377.862 88.6569Z" fill="url(#paint0_radial)" stroke="url(#paint1_radial)" stroke-miterlimit="10"/>
<path d="M377.715 80.934C375.799 79.9965 374.14 78.661 372.109 77.2623C370.078 75.8631 367.231 72.467 365.155 70.4542C363.078 68.4418 361.537 69.9512 355.526 67.9018C349.514 65.8529 346.669 61.9895 342.266 61.0112C337.863 60.0324 334.053 57.0489 333.022 55.8207C331.988 54.5921 323.446 50.2168 317.206 49.7401C310.964 49.2639 314.001 49.5418 310.71 47.1751C308.291 45.4356 302.802 44.1353 299.787 43.5606C296.773 42.9864 292.347 41.9354 290.277 40.4218C288.209 38.9078 281.238 37.7546 275.962 36.985C270.686 36.2153 270.406 35.3659 265.223 34.8789C260.041 34.3914 256.371 32.7784 256.371 32.7784C256.371 32.7784 251.196 29.4639 245.072 28.974C238.947 28.4846 230.745 29.3078 229.559 29.3846C228.373 29.462 222.674 30.3128 218.659 27.9587C214.644 25.6046 209.512 29.1325 207.025 28.9492C204.537 28.7659 197.483 26.4718 197.483 26.4718C197.483 26.4718 186.269 25.7781 183.11 23.8154C179.951 21.8523 172.005 27.6592 171.465 27.6578C170.925 27.6564 166.099 25.5287 166.099 25.5287C166.099 25.5287 161.013 24.3821 158.468 24.2795C155.924 24.1764 148.495 28.0239 146.95 28.0796C145.406 28.1359 141.267 28.3182 139.052 26.3115C136.838 24.3039 134.07 28.6946 131.331 28.8592C128.591 29.0232 125.659 27.5729 124.316 27.0746C122.974 26.5759 117.272 26.8881 114.806 26.1325C112.341 25.3768 106.992 29.0246 105.413 29.2318C103.835 29.4385 101.337 29.0073 100.1 28.111C98.8622 27.2153 95.288 29.6987 95.288 29.6987C95.288 29.6987 87.8227 29.386 83.4207 31.7804C79.0186 34.1739 78.9882 32.6153 75.4046 33.1693C72.0427 33.6896 67.3922 33.616 66.4472 32.986C65.5018 32.3565 55.2521 34.9009 55.2521 34.9009L47.2336 37.2048C47.2336 37.2048 39.1922 40.629 38.1094 40.2156C37.0266 39.8017 33.5082 41.7339 33.5082 41.7339C33.5082 41.7339 30.8972 40.0089 29.7769 39.437C28.6561 38.8646 25.3355 40.2751 23.1361 39.2298C20.9368 38.184 20.4811 40.307 20.4811 40.307L18.5832 41.5609C18.5832 41.5609 16.2197 43.9098 12.3666 43.6468C8.51347 43.3834 9.95675 45.0334 8.36487 44.9659C6.77299 44.8984 3.62253 44.866 3.62253 44.866C3.62253 44.866 -0.23247 46.5067 -2.68638 47.6303C-5.14028 48.7539 -4.70388 50.3214 -6.93794 49.0267C-9.17247 47.732 -8.26638 47.882 -10.1517 47.8768C-12.037 47.8707 -12.1598 49.4546 -16.8276 50.0532L-25.3293 52.7139L-23.5514 58.1021L-15.2939 54.4651C-15.2939 54.4651 -8.017 54.4942 -6.65528 52.7134C-5.29309 50.9321 1.27034 50.0982 2.11925 49.8179C2.96862 49.5376 4.28722 49.7303 7.30456 49.3623C10.3219 48.9948 12.4889 49.3782 18.7393 46.3173C24.1538 43.6665 22.6003 45.564 25.8797 44.8014C27.4772 44.4296 30.03 44.0617 30.03 44.0617L36.9357 42.4112C36.9357 42.4112 38.5238 42.2007 45.0689 41.2965C51.6141 40.3928 50.2908 41.1428 50.2908 41.1428L67.8474 37.2334L70.8422 36.5593C70.8422 36.5593 75.1135 36.092 76.6191 36.8509C78.1247 37.6093 79.35 37.5184 80.7628 37.9942C82.1757 38.47 90.383 35.761 92.3649 35.1076C94.3463 34.4537 100.194 33.152 102.268 32.7817C104.343 32.4114 110.377 31.6754 111.049 30.4262C111.721 29.177 118.107 31.322 121.326 31.8301C124.543 32.3378 124.512 32.6612 127.239 33.331C129.965 34.0009 131.109 32.6814 135.449 31.5634C139.787 30.4454 137.333 31.569 139.309 32.8004C141.284 34.0314 145.247 32.724 146.755 32.5403C148.264 32.3565 151.091 32.365 152.126 32.6509C153.162 32.9368 154.011 32.657 156.179 32.5693C158.348 32.4817 160.326 32.77 165.933 33.1173C171.54 33.4646 167.77 33.4524 173.209 31.6581C178.648 29.8632 179.843 30.0962 183.993 29.3546C188.143 28.6131 192.467 32.2079 197.746 32.0349C203.026 31.8624 208.68 31.8798 208.68 31.8798C208.68 31.8798 215.18 32.5599 216.876 32.3148C218.57 32.0696 236.649 34.5906 236.649 34.5906C236.649 34.5906 243.547 33.872 252.395 37.8568C261.242 41.8421 258.052 36.932 262.95 38.4545C267.846 39.9779 271.328 41.9678 275.663 41.7924C279.999 41.6171 291.201 46.081 292.804 46.1799C294.406 46.2789 297.51 48.0793 299.206 48.4614C300.901 48.8434 302.78 50.7343 303.816 51.0203C304.852 51.3062 305.604 51.6854 305.604 51.6854C305.604 51.6854 307.388 54.2359 308.704 55.3707C310.02 56.5056 312.091 56.1249 312.091 56.1249C312.091 56.1249 315.577 58.1251 317.187 59.2023C318.797 60.2795 320.376 60.3076 322.816 61.9965C325.257 63.6859 326.031 60.3249 329.043 59.9415C332.056 59.559 330.651 60.0559 331.393 61.3534C332.134 62.6504 333.183 63.9282 334.929 64.4621C336.675 64.9956 337.984 66.1107 340.235 66.2748C342.485 66.4384 342.6 66.7843 345.045 67.5348C347.49 68.2853 349.848 69.7281 351.541 71.0528C353.234 72.3779 351.541 71.0528 352.857 72.1876C354.173 73.3224 356.246 73.8943 359.638 73.7157C363.032 73.5376 362.933 75.1398 363.703 75.2828C364.472 75.4257 366.783 80.1474 367.626 81.752C368.469 83.357 372.707 84.7834 373.647 85.7289C374.586 86.6743 376.655 88.1889 377.861 90.8935C378.783 92.9584 380.004 93.1548 382.756 90.9859L379.645 81.5603C378.785 81.316 378.08 81.1126 377.715 80.934Z" fill="white" stroke="url(#paint2_radial)" stroke-miterlimit="10"/>
<path opacity="0.8" d="M-16.8281 50.0538C-12.1603 49.4552 -12.037 47.8718 -10.1522 47.8769C-8.26735 47.8825 -9.17297 47.7325 -6.93844 49.0272C-4.70438 50.3219 -5.14125 48.754 -2.68688 47.6308C-0.232971 46.5077 3.62156 44.8661 3.62156 44.8661C3.62156 44.8661 6.77109 44.899 8.36296 44.966C9.95484 45.033 8.51156 43.384 12.3647 43.6465C16.2178 43.9099 18.5817 41.561 18.5817 41.561L20.4797 40.3066C20.4797 40.3066 20.9344 38.1841 23.1342 39.2299C25.3341 40.2747 28.6542 38.8647 29.775 39.4371C30.8953 40.0089 33.5062 41.7339 33.5062 41.7339C33.5062 41.7339 37.0252 39.8018 38.1075 40.2161C39.1898 40.6291 47.2317 37.2054 47.2317 37.2054L55.2502 34.9024C55.2502 34.9024 65.4998 32.358 66.4448 32.9875C67.3903 33.6175 72.0408 33.6911 75.4027 33.1708C78.9858 32.6158 79.0158 34.1749 83.4183 31.7819C87.8208 29.3885 95.2856 29.7002 95.2856 29.7002C95.2856 29.7002 98.8598 27.2168 100.097 28.1125C101.334 29.0093 103.832 29.4405 105.411 29.2333C106.989 29.0261 112.338 25.3788 114.804 26.134C117.27 26.8896 122.971 26.5779 124.314 27.0766C125.656 27.5754 128.59 29.0252 131.329 28.8611C134.068 28.6975 136.835 24.3063 139.05 26.3135C141.265 28.3202 145.403 28.1383 146.948 28.0821C148.493 28.0263 155.922 24.1788 158.466 24.2819C161.011 24.3846 166.096 25.5316 166.096 25.5316C166.096 25.5316 170.922 27.6588 171.462 27.6607C172.001 27.6625 179.948 21.8552 183.107 23.8183C186.266 25.7815 197.479 26.4752 197.479 26.4752C197.479 26.4752 204.535 28.7702 207.022 28.9525C209.51 29.1349 214.64 25.6085 218.655 27.9621C222.67 30.3157 228.369 29.4649 229.555 29.3875C230.74 29.3102 238.943 28.4875 245.068 28.9769C251.192 29.4668 256.367 32.7813 256.367 32.7813C256.367 32.7813 260.037 34.3952 265.22 34.8822C270.404 35.3693 270.683 36.2186 275.958 36.9888C281.234 37.7585 288.205 38.9116 290.274 40.4252C292.343 41.9388 296.77 42.9902 299.785 43.5644C302.798 44.1391 308.288 45.4399 310.707 47.1789C313.998 49.5452 310.961 49.2672 317.203 49.7435C323.444 50.2207 331.984 54.5955 333.017 55.8236C334.05 57.0522 337.859 60.0349 342.263 61.0136C346.666 61.9919 349.51 65.8549 355.522 67.9043C361.533 69.9546 363.076 68.4429 365.153 70.4552C367.23 72.468 370.076 75.865 372.107 77.2633C374.138 78.6616 375.797 79.9975 377.713 80.935C379.628 81.8721 390.785 83.4546 385.785 88.2785C380.787 93.1024 379.067 93.5988 377.86 90.8936C376.654 88.1889 374.586 86.6744 373.647 85.7294C372.706 84.784 368.47 83.3571 367.626 81.7521C366.782 80.1471 364.471 75.4263 363.702 75.2833C362.933 75.1404 363.031 73.5372 359.638 73.7163C356.246 73.8949 354.173 73.323 352.857 72.1877C351.541 71.0529 353.235 72.3775 351.541 71.0529C349.848 69.7282 347.489 68.2854 345.044 67.5344C342.6 66.784 342.486 66.4389 340.234 66.2739C337.984 66.1099 336.674 64.9952 334.928 64.4613C333.183 63.9279 332.134 62.6505 331.392 61.353C330.651 60.056 332.056 59.5591 329.043 59.9421C326.031 60.3241 325.257 63.685 322.816 61.9966C320.375 60.3077 318.796 60.2796 317.186 59.2024C315.576 58.1252 312.091 56.126 312.091 56.126C312.091 56.126 310.019 56.5057 308.704 55.3713C307.387 54.236 305.604 51.686 305.604 51.686C305.604 51.686 304.852 51.3068 303.816 51.0204C302.78 50.7344 300.901 48.844 299.205 48.4619C297.51 48.0799 294.406 46.2794 292.804 46.1805C291.202 46.0816 280 41.6182 275.663 41.7935C271.328 41.9683 267.846 39.9785 262.95 38.4555C258.053 36.9325 261.242 41.8436 252.395 37.8574C243.547 33.8721 236.649 34.5916 236.649 34.5916C236.649 34.5916 218.57 32.0711 216.875 32.3158C215.181 32.5605 208.68 31.8808 208.68 31.8808C208.68 31.8808 203.025 31.8635 197.747 32.0365C195.103 32.1232 190.72 28.1538 183.992 29.3557C179.843 30.0972 178.648 29.8633 173.208 31.6586C167.769 33.453 171.539 33.4647 165.933 33.1179C160.325 32.771 158.347 32.4818 156.179 32.5699C154.011 32.6575 153.161 32.9374 152.126 32.6515C151.09 32.366 148.263 32.3575 146.754 32.5413C145.246 32.725 141.283 34.0324 139.308 32.801C137.333 31.5696 139.786 30.446 135.447 31.564C131.108 32.6819 129.964 34.001 127.238 33.3316C124.511 32.6618 124.542 32.3374 121.324 31.8302C118.106 31.3225 111.718 29.1775 111.046 30.4268C110.376 31.676 104.341 32.4119 102.266 32.7822C100.192 33.153 94.3439 34.4547 92.363 35.1082C90.3816 35.7625 82.1733 38.4705 80.7609 37.9952C79.3486 37.5194 78.1233 37.6099 76.6172 36.8515C75.1116 36.093 70.8408 36.5604 70.8408 36.5604L67.8459 37.2344L50.2894 41.1443C50.2894 41.1443 51.6117 40.3938 45.0675 41.298C38.5233 42.2022 36.9347 42.4122 36.9347 42.4122L30.0295 44.0627C30.0295 44.0627 27.4767 44.4307 25.8792 44.8024C22.5998 45.565 24.1528 43.668 18.7387 46.3183C12.488 49.3797 10.3209 48.9958 7.30359 49.3638C4.28625 49.7318 2.96765 49.5391 2.11828 49.8194C1.26937 50.0997 -5.29407 50.9332 -6.65625 52.7149C-8.01797 54.4957 -15.2948 54.4666 -15.2948 54.4666L-18.7298 55.6L-20.2706 50.9299L-16.8281 50.0538Z" fill="white"/>
<path d="M279.343 15.9814L281.637 11.3877C280.452 10.7445 279.014 10.5355 277.63 10.9592L279.293 15.9983L279.343 15.9814Z" fill="#E8628F"/>
<path d="M284.11 14.3843C284.101 14.3553 284.097 14.3267 284.087 14.2976C283.654 12.9889 282.75 11.9717 281.628 11.3623L279.326 15.9312L284.11 14.3843Z" fill="white"/>
<path d="M279.292 15.999L277.629 10.96C277.593 10.9712 277.556 10.9778 277.52 10.99C276.158 11.4395 275.113 12.4253 274.515 13.6136L279.241 16.0159L279.292 15.999Z" fill="#F9F9F9"/>
<path d="M279.326 15.9302L279.293 15.9977L283.793 18.265C284.379 17.1021 284.526 15.7202 284.112 14.3838L279.326 15.9302Z" fill="#E8628F"/>
<path d="M274.506 13.5869C273.908 14.7752 273.761 16.1918 274.212 17.5554C274.215 17.5643 274.219 17.5727 274.222 17.5816L279.224 15.9639L274.506 13.5869Z" fill="#E8628F"/>
<path d="M279.292 15.999L280.884 20.8234C282.195 20.3593 283.21 19.4232 283.792 18.2659L279.292 15.999Z" fill="white"/>
<path d="M279.292 15.9981L279.223 15.9639L274.221 17.5815C274.693 18.9868 275.709 20.0537 276.956 20.635L279.292 15.9981Z" fill="white"/>
<path d="M276.957 20.635C278.114 21.1745 279.47 21.2959 280.779 20.8642C280.814 20.8525 280.848 20.8361 280.884 20.8234L279.292 15.999L276.957 20.635Z" fill="#E8628F"/>
<path d="M248.605 18.2678L250.9 13.6736C249.715 13.0305 248.277 12.8219 246.893 13.2451L248.556 18.2842L248.605 18.2678Z" fill="#E8628F"/>
<path d="M253.374 16.67C253.364 16.6409 253.359 16.6118 253.35 16.5828C252.917 15.2745 252.013 14.2568 250.892 13.6475L248.589 18.2164L253.374 16.67Z" fill="white"/>
<path d="M248.556 18.2842L246.893 13.2451C246.857 13.2564 246.82 13.2634 246.784 13.2751C245.421 13.7246 244.377 14.7104 243.779 15.8982L248.505 18.3006L248.556 18.2842Z" fill="#F9F9F9"/>
<path d="M248.589 18.2173L248.556 18.2848L253.056 20.5522C253.643 19.3892 253.79 18.0073 253.375 16.6709L248.589 18.2173Z" fill="#E8628F"/>
<path d="M243.77 15.873C243.172 17.0613 243.026 18.4779 243.476 19.841C243.479 19.8504 243.483 19.8584 243.486 19.8673L248.487 18.2496L243.77 15.873Z" fill="#E8628F"/>
<path d="M248.556 18.2842L250.148 23.1081C251.459 22.6445 252.474 21.7079 253.056 20.5506L248.556 18.2842Z" fill="white"/>
<path d="M248.556 18.2842L248.487 18.25L243.485 19.8677C243.957 21.2725 244.973 22.3398 246.22 22.9206L248.556 18.2842Z" fill="white"/>
<path d="M246.221 22.9201C247.379 23.4596 248.733 23.5811 250.042 23.1489C250.078 23.1371 250.111 23.1203 250.148 23.1081L248.557 18.2842L246.221 22.9201Z" fill="#E8628F"/>
<path d="M302.788 32.2607L305.081 27.667C303.896 27.0238 302.458 26.8148 301.075 27.2385L302.737 32.2776L302.788 32.2607Z" fill="#E8628F"/>
<path d="M307.556 30.6641C307.546 30.635 307.541 30.606 307.531 30.5769C307.1 29.2682 306.195 28.251 305.073 27.6416L302.771 32.2105L307.556 30.6641Z" fill="white"/>
<path d="M302.737 32.2783L301.075 27.2393C301.038 27.2505 301.002 27.2571 300.966 27.2693C299.603 27.7188 298.559 28.7046 297.96 29.8924L302.687 32.2947L302.737 32.2783Z" fill="#F9F9F9"/>
<path d="M302.771 32.2104L302.738 32.2775L307.238 34.5448C307.824 33.3818 307.971 32 307.557 30.6631L302.771 32.2104Z" fill="#E8628F"/>
<path d="M297.952 29.8662C297.354 31.0545 297.207 32.4715 297.658 33.8347C297.661 33.8436 297.665 33.852 297.668 33.8604L302.67 32.2428L297.952 29.8662Z" fill="#E8628F"/>
<path d="M302.737 32.2783L304.329 37.1022C305.641 36.6382 306.656 35.7016 307.238 34.5447L302.737 32.2783Z" fill="white"/>
<path d="M302.737 32.2784L302.669 32.2441L297.667 33.8618C298.139 35.2666 299.155 36.334 300.401 36.9148L302.737 32.2784Z" fill="white"/>
<path d="M300.402 36.9143C301.56 37.4538 302.915 37.5747 304.224 37.143C304.26 37.1313 304.293 37.1144 304.329 37.1022L302.737 32.2783L300.402 36.9143Z" fill="#E8628F"/>
<path d="M305.168 258.707C331.707 258.707 353.22 237.193 353.22 210.655C353.22 184.116 331.707 162.603 305.168 162.603C278.63 162.603 257.116 184.116 257.116 210.655C257.116 237.193 278.63 258.707 305.168 258.707Z" stroke="white" stroke-width="3" stroke-miterlimit="10" stroke-dasharray="10.06 10.06"/>
<path d="M305.168 210.655L305.416 162.603" stroke="white" stroke-width="2" stroke-miterlimit="10"/>
<path d="M311.472 160.425L299.972 160.204L299.496 173.931C299.496 173.931 298.217 185.28 305.186 189.313C312.071 185.7 311.513 174.437 311.513 174.437L311.472 160.425Z" fill="#E5E5E5"/>
<path d="M305.207 186.363C305.207 186.363 300.259 186.505 300.276 176.576C300.292 166.647 301.036 165.651 301.036 165.651L310.286 165.828L310.512 168.758L310.35 177.291C310.351 177.291 309.957 186.152 305.207 186.363Z" fill="#E2E2E2"/>
<path d="M305.222 186.424C309.069 186.57 310.382 181.674 310.779 177.033L310.798 169.332L310.712 163.77L307.734 163.019L307.241 163.583L304.038 163.507C304.038 163.507 303.641 163.017 303.546 163.015C303.003 163.005 300.6 163.614 300.6 163.614C300.6 163.614 300.442 167.386 300.37 169.084C300.368 169.14 300.004 176.73 300.005 176.826C300.08 181.468 301.038 186.264 305.222 186.424ZM300.541 169.251C300.525 169.126 301.135 163.993 301.135 163.993C301.135 163.993 303.14 163.66 303.654 163.67C303.745 163.672 304.119 164.141 304.119 164.141L307.142 164.212L307.607 163.672L310.261 164.168L310.604 169.438C310.58 174.006 310.49 174.068 310.458 177.028C310.019 181.554 308.541 186.344 305.174 186.192C301.826 186.041 300.559 181.32 300.346 176.834C300.354 176.66 300.578 169.329 300.541 169.251Z" fill="#CECECE"/>
<path d="M303.322 176.359L303.889 177.013L305.265 177.267V177.263L305.387 177.265H305.407L305.604 177.269L305.604 177.274L306.952 177.07L307.586 176.441C307.938 176.197 308.024 174.934 308.024 174.934L308.069 172.59L307.811 172.073L306.08 172.339L305.485 173.234L304.928 172.317L303.225 171.985L302.983 172.492L302.938 174.836C302.938 174.836 302.979 176.101 303.322 176.359Z" fill="#EFEFEF"/>
<path d="M303.197 173.2C303.201 173.271 303.862 174.328 303.862 174.328L306.935 174.405L307.715 173.307L307.718 173.152L307.719 173.075L307.721 172.997L307.735 172.224L303.217 172.137C303.217 172.137 303.194 173.127 303.197 173.2Z" fill="#C6C6C6"/>
<path d="M303.635 175.197L305.195 175.227L305.79 175.238L307.196 175.264C307.196 175.264 307.657 174.675 307.761 173.118C307.761 173.109 307.68 173.116 307.68 173.116C307.47 173.401 306.997 174.172 306.997 174.172L305.513 174.156L303.875 174.117C303.875 174.117 303.433 173.332 303.234 173.039C303.234 173.039 303.153 173.021 303.153 173.03C303.196 174.591 303.635 175.197 303.635 175.197Z" fill="#29ABE2"/>
<path d="M307.177 172.479C307.19 171.852 305.124 171.767 305.111 172.445C305.1 173.042 307.165 173.137 307.177 172.479ZM306.998 172.482C306.989 172.931 305.282 172.861 305.29 172.454C305.3 171.992 307.006 172.055 306.998 172.482Z" fill="black"/>
<path d="M306.397 172.815C306.397 172.815 306.396 172.62 306.162 172.617C305.928 172.616 305.956 172.79 305.951 172.807C305.945 172.823 306.397 172.815 306.397 172.815Z" fill="black"/>
<path d="M306.236 172.672L306.305 172.194L305.996 172.188L306.069 172.669L306.236 172.672Z" fill="black"/>
<path d="M306.025 172.749C306.019 172.748 305.276 172.406 305.276 172.406L305.243 172.599L305.998 172.841L306.025 172.749Z" fill="black"/>
<path d="M306.304 172.755C306.309 172.755 307.053 172.441 307.053 172.441L307.049 172.634L306.331 172.848L306.304 172.755Z" fill="black"/>
<path d="M300.347 176.833C300.347 176.833 302.877 176.862 303.384 179.555C303.893 182.248 304.15 185.94 304.187 186.018C304.224 186.095 300.459 185.097 300.347 176.833Z" fill="#E8CDA0"/>
<path d="M310.46 177.027C310.46 177.027 307.932 176.959 307.322 179.63C306.711 182.302 306.313 185.981 306.272 186.057C306.231 186.134 310.031 185.28 310.46 177.027Z" fill="#E8CDA0"/>
<path d="M310.467 166.507C310.467 166.507 310.641 167.132 310.035 166.904C308.041 166.152 303.318 165.907 301.178 166.773C300.729 166.955 300.738 166.843 300.758 166.543C300.772 166.319 301.136 163.994 301.136 163.994C301.136 163.994 304.789 162.673 310.263 164.168L310.467 166.507Z" fill="#E8CDA0"/>
<path d="M303.046 169.126C303.049 168.998 303.34 168.747 303.518 168.75L307.59 168.828C307.769 168.832 307.795 169.087 307.793 169.216L307.767 170.573C307.764 170.702 307.73 170.865 307.551 170.862L303.479 170.784C303.3 170.78 303.017 170.612 303.02 170.483L303.046 169.126Z" fill="#E8CDA0"/>
<path d="M303.827 158.748C303.828 158.514 304.018 158.326 304.252 158.327L306.719 158.34C306.953 158.341 307.142 158.532 307.14 158.767L307.12 162.556C307.118 162.79 306.928 162.979 306.693 162.977L304.226 162.964C303.993 162.963 303.805 162.772 303.806 162.538L303.827 158.748Z" fill="#394963"/>
<path d="M102.962 312.747C129.501 312.747 151.015 291.233 151.015 264.694C151.015 238.155 129.501 216.642 102.962 216.642C76.4234 216.642 54.9095 238.155 54.9095 264.694C54.9095 291.233 76.4234 312.747 102.962 312.747Z" stroke="white" stroke-width="3" stroke-miterlimit="10" stroke-dasharray="10.06 10.06"/>
<path d="M102.962 264.695L101.915 216.653" stroke="white" stroke-width="2" stroke-miterlimit="10"/>
<path d="M107.911 214.313L96.4092 214.402L96.3037 228.136C96.3037 228.136 95.3306 239.516 102.406 243.36C109.19 239.562 108.33 228.319 108.33 228.319L107.911 214.313Z" fill="#E5E5E5"/>
<path d="M102.348 240.41C102.348 240.41 97.4069 240.686 97.1547 230.76C96.903 220.834 97.6207 219.819 97.6207 219.819L106.872 219.747L107.178 222.669L107.245 231.204C107.246 231.203 107.089 240.071 102.348 240.41Z" fill="#E2E2E2"/>
<path d="M102.364 240.471C106.214 240.514 107.394 235.584 107.666 230.933L107.478 223.235L107.242 217.678L104.246 217.006L103.768 217.583L100.564 217.593C100.564 217.593 100.155 217.115 100.059 217.115C99.5156 217.12 97.1301 217.793 97.1301 217.793C97.1301 217.793 97.0739 221.568 97.0472 223.267C97.0472 223.324 96.8882 230.921 96.8915 231.016C97.0912 235.655 98.1773 240.424 102.364 240.471ZM97.222 223.43C97.2023 223.304 97.6734 218.158 97.6734 218.158C97.6734 218.158 99.6703 217.772 100.183 217.768C100.275 217.768 100.661 218.226 100.661 218.226L103.685 218.216L104.136 217.664L106.802 218.086L107.287 223.346C107.387 227.913 107.298 227.977 107.346 230.937C107.029 235.473 105.681 240.301 102.311 240.24C98.9611 240.179 97.5665 235.495 97.2333 231.015C97.2342 230.842 97.2614 223.508 97.222 223.43Z" fill="#CECECE"/>
<path d="M100.193 230.46L100.778 231.098L102.159 231.316V231.311L102.281 231.311H102.301L102.497 231.309L102.498 231.314L103.84 231.074L104.456 230.428C104.801 230.174 104.853 228.91 104.853 228.91L104.834 226.566L104.563 226.056L102.84 226.368L102.269 227.278L101.688 226.377L99.977 226.091L99.7496 226.605L99.7674 228.95C99.7679 228.949 99.8434 230.212 100.193 230.46Z" fill="#EFEFEF"/>
<path d="M99.9837 227.306C99.9889 227.378 100.677 228.416 100.677 228.416L103.752 228.411L104.502 227.29L104.501 227.136L104.501 227.058L104.5 226.981L104.494 226.208L99.9757 226.243C99.9748 226.243 99.9785 227.234 99.9837 227.306Z" fill="#C6C6C6"/>
<path d="M100.476 229.29L102.035 229.278L102.631 229.273L104.036 229.262C104.036 229.262 104.482 228.661 104.543 227.102C104.544 227.092 104.463 227.102 104.463 227.102C104.261 227.392 103.808 228.176 103.808 228.176L102.325 228.2L100.686 228.205C100.686 228.205 100.222 227.433 100.015 227.145C100.015 227.145 99.9355 227.129 99.9346 227.137C100.02 228.696 100.476 229.29 100.476 229.29Z" fill="#29ABE2"/>
<path d="M103.944 226.477C103.939 225.849 101.872 225.82 101.877 226.499C101.881 227.095 103.949 227.135 103.944 226.477ZM103.763 226.486C103.767 226.934 102.059 226.909 102.056 226.503C102.053 226.04 103.76 226.058 103.763 226.486Z" fill="black"/>
<path d="M103.172 226.834C103.172 226.834 103.165 226.638 102.932 226.643C102.698 226.647 102.731 226.821 102.726 226.838C102.721 226.855 103.172 226.834 103.172 226.834Z" fill="black"/>
<path d="M103.007 226.695L103.063 226.215L102.755 226.218L102.84 226.696L103.007 226.695Z" fill="black"/>
<path d="M102.797 226.778C102.792 226.777 102.04 226.455 102.04 226.455L102.013 226.648L102.775 226.87L102.797 226.778Z" fill="black"/>
<path d="M103.077 226.777C103.082 226.777 103.817 226.442 103.817 226.442L103.819 226.636L103.106 226.868L103.077 226.777Z" fill="black"/>
<path d="M97.233 231.016C97.233 231.016 99.7619 230.976 100.342 233.654C100.923 236.332 101.279 240.017 101.318 240.093C101.358 240.17 97.5668 239.273 97.233 231.016Z" fill="#E8CDA0"/>
<path d="M107.346 230.935C107.346 230.935 104.817 230.936 104.279 233.621C103.741 236.309 103.441 239.998 103.403 240.076C103.365 240.153 107.14 239.197 107.346 230.935Z" fill="#E8CDA0"/>
<path d="M107.071 220.419C107.071 220.419 107.262 221.04 106.65 220.829C104.636 220.13 99.9076 220.013 97.7916 220.936C97.3482 221.129 97.3543 221.017 97.3655 220.717C97.3744 220.493 97.674 218.158 97.674 218.158C97.674 218.158 101.291 216.74 106.802 218.086L107.071 220.419Z" fill="#E8CDA0"/>
<path d="M99.7228 223.238C99.7223 223.109 100.006 222.852 100.184 222.85L104.257 222.818C104.435 222.817 104.469 223.072 104.469 223.2L104.481 224.558C104.481 224.686 104.451 224.85 104.272 224.851L100.2 224.883C100.022 224.884 99.7331 224.724 99.7331 224.594L99.7228 223.238Z" fill="#E8CDA0"/>
<path d="M100.224 212.844C100.218 212.61 100.404 212.416 100.638 212.411L103.104 212.358C103.338 212.352 103.532 212.539 103.537 212.773L103.619 216.561C103.624 216.795 103.438 216.989 103.203 216.994L100.737 217.047C100.504 217.053 100.31 216.866 100.306 216.632L100.224 212.844Z" fill="#394963"/>
<path d="M194.145 240.283C222.295 240.283 245.114 217.463 245.114 189.314C245.114 161.164 222.295 138.345 194.145 138.345C165.996 138.345 143.176 161.164 143.176 189.314C143.176 217.463 165.996 240.283 194.145 240.283Z" stroke="white" stroke-width="3" stroke-miterlimit="10" stroke-dasharray="10.06 10.06"/>
<path opacity="0.7" d="M237.635 155.822C219.138 131.85 184.71 127.412 160.738 145.909C136.767 164.407 132.329 198.834 150.826 222.806C169.323 246.777 203.75 251.215 227.723 232.718C251.693 214.221 256.133 179.793 237.635 155.822ZM206.292 200.584C206.27 200.592 205.459 199.809 205.061 199.437C198.97 205.178 189.445 205.002 183.563 199.122C183.078 199.578 182.124 200.453 182.099 200.445L181.689 194.705L187.045 195.797C187.045 195.797 186.077 196.643 185.673 197.032C187.57 198.907 190.12 200.05 192.463 200.451V181.136C191.526 180.528 190.644 179.396 190.644 178.1C190.644 176.16 192.254 174.588 194.193 174.588C196.133 174.588 197.687 176.16 197.687 178.1C197.687 179.409 196.681 180.55 195.744 181.154V200.525C198.087 200.224 200.843 199.167 202.829 197.343C202.342 196.874 201.545 196.076 201.545 196.076L207.057 195.063L206.292 200.584Z" fill="#1AB737"/>
<path d="M194.541 211.465L194.146 136.47" stroke="white" stroke-width="3" stroke-miterlimit="10" stroke-dasharray="5 5"/>
<path d="M200.124 173.281L187.765 173.425L187.707 188.15C187.707 188.15 186.708 200.366 194.327 204.468C201.601 200.36 200.63 188.306 200.63 188.306L200.124 173.281Z" fill="#D1D1D1"/>
<path d="M194.333 201.28C194.333 201.28 188.983 201.548 188.673 190.883C188.363 180.218 189.087 179.077 189.087 179.077L199.029 178.961L199.533 182.195L199.639 191.365C199.639 191.366 199.427 200.897 194.333 201.28Z" fill="#F4F4F4"/>
<path d="M194.269 201.346C198.406 201.377 199.654 196.075 199.929 191.076L199.696 182.804L199.418 176.833L196.195 176.124L195.685 176.747L192.242 176.771C192.242 176.771 191.8 176.258 191.696 176.258C191.113 176.266 188.551 177 188.551 177C188.551 177 188.506 181.056 188.485 182.882C188.485 182.944 188.343 191.108 188.349 191.21C188.583 196.193 189.771 201.314 194.269 201.346ZM188.676 183.056C188.653 182.921 189.138 177.388 189.138 177.388C189.138 177.388 191.282 176.965 191.834 176.96C191.932 176.958 192.349 177.449 192.349 177.449L195.6 177.425L196.081 176.83L198.948 177.274L199.491 182.923C199.617 187.831 199.521 187.901 199.585 191.08C199.263 195.957 197.835 201.149 194.212 201.099C190.612 201.047 189.095 196.019 188.719 191.206C188.718 191.019 188.717 183.138 188.676 183.056Z" fill="#E8E8E8"/>
<path d="M194.11 191.515L194.109 191.566L195.756 191.301L196.419 190.604C196.791 190.33 196.846 188.971 196.846 188.971L196.816 186.451L196.549 185.904L194.711 186.248L194.05 187.294L194.072 188.158L194.11 191.515Z" fill="white"/>
<path d="M194.145 191.515L194.109 191.565L192.554 191.338L191.885 190.655C191.508 190.392 191.434 189.033 191.434 189.033L191.405 186.513L191.634 185.961L193.466 186.26L194.128 187.293L194.109 188.157L194.145 191.515Z" fill="white"/>
<path d="M191.658 187.156C191.663 187.233 192.408 188.372 192.408 188.372L195.73 188.369L196.55 187.176L196.547 187.01L196.546 186.926L196.546 186.842L196.534 185.9L191.644 185.958C191.644 185.959 191.651 187.077 191.658 187.156Z" fill="#C6C6C6"/>
<path d="M192.135 171.53C192.133 171.284 192.331 171.084 192.576 171.082L195.164 171.066C195.409 171.065 195.61 171.263 195.611 171.508L195.635 175.483C195.637 175.728 195.439 175.928 195.194 175.93L192.607 175.946C192.362 175.948 192.161 175.749 192.159 175.504L192.135 171.53Z" fill="#394963"/>
<path d="M192.195 189.407L193.871 189.386L194.511 189.38L196.021 189.362C196.021 189.362 196.497 188.68 196.557 187.005C196.558 186.995 196.471 186.987 196.471 186.987C196.255 187.3 195.772 188.137 195.772 188.137L194.177 188.164L192.417 188.176C192.417 188.176 191.915 187.345 191.692 187.038C191.692 187.038 191.605 187.053 191.605 187.064C191.704 188.737 192.195 189.407 192.195 189.407Z" fill="#29ABE2"/>
<path d="M195.909 186.303C195.901 185.629 193.679 185.606 193.689 186.335C193.696 186.976 195.918 187.01 195.909 186.303ZM195.717 186.313C195.722 186.795 193.887 186.774 193.881 186.338C193.875 185.842 195.711 185.854 195.717 186.313Z" fill="black"/>
<path d="M195.082 186.689C195.082 186.689 195.074 186.479 194.822 186.484C194.572 186.491 194.608 186.676 194.602 186.694C194.597 186.714 195.082 186.689 195.082 186.689Z" fill="black"/>
<path d="M194.903 186.473L194.962 185.919L194.63 185.924L194.724 186.475L194.903 186.473Z" fill="black"/>
<path d="M194.68 186.631C194.674 186.632 193.864 186.288 193.864 186.288L193.835 186.495L194.655 186.73L194.68 186.631Z" fill="black"/>
<path d="M195.016 186.627C195.021 186.627 195.847 186.265 195.847 186.265L195.85 186.472L195.067 186.725L195.016 186.627Z" fill="black"/>
<path d="M188.718 191.206C188.718 191.206 191.434 191.154 192.069 194.029C192.704 196.905 193.102 200.861 193.146 200.943C193.187 201.026 189.11 200.079 188.718 191.206Z" fill="#E8CDA0"/>
<path d="M199.584 191.081C199.584 191.081 196.867 191.091 196.3 193.981C195.731 196.87 195.424 200.835 195.385 200.919C195.343 201.002 199.397 199.959 199.584 191.081Z" fill="#E8CDA0"/>
<path d="M199.246 179.78C199.246 179.78 199.453 180.446 198.795 180.22C196.628 179.479 191.545 179.371 189.276 180.372C188.8 180.582 188.806 180.461 188.818 180.139C188.826 179.897 189.137 177.388 189.137 177.388C189.137 177.388 193.018 175.85 198.947 177.273L199.246 179.78Z" fill="#E8CDA0"/>
<path d="M191.522 182.837C191.522 182.7 191.667 182.641 191.86 182.638L196.235 182.588C196.426 182.584 196.635 182.64 196.637 182.778L196.653 184.238C196.654 184.376 196.448 184.521 196.257 184.523L191.881 184.575C191.689 184.576 191.541 184.434 191.539 184.297L191.522 182.837Z" fill="#E8CDA0"/>
<path d="M195.799 185.146C195.799 185.146 195.594 185.462 195.438 185.007C195.283 184.551 195.023 184.107 195.023 184.107C195.023 184.107 194.537 184.301 194.482 184.446C194.427 184.589 194.546 185.207 194.126 185.407C193.708 185.607 193.522 185.725 193.642 185.05C193.762 184.375 193.785 183.906 193.785 183.906L195.552 183.328L195.79 185.044" fill="#996234"/>
<path d="M195.419 183.604C195.419 183.604 196.173 184.516 195.818 184.515C195.464 184.515 195.619 184.226 195.171 184.247C194.723 184.268 194.818 184.606 194.252 184.473C193.687 184.339 193.499 184.523 193.561 184.217C193.624 183.91 193.631 183.78 193.631 183.78L195.419 183.604Z" fill="#EF45B7"/>
<path d="M195.933 183.456C195.933 183.456 196.04 184.23 196.08 184.43C196.156 184.802 195.913 185.615 195.926 185.757C195.94 185.9 195.932 186.051 195.721 185.858C195.512 185.665 195.629 184.936 195.674 184.574C195.72 184.21 195.447 183.801 195.427 183.687C195.406 183.572 195.659 183.714 195.659 183.714L195.933 183.456Z" fill="#996234"/>
<path d="M193.483 183.646C193.483 183.646 193.321 184.497 193.319 184.701C193.316 185.081 193.713 185.829 193.728 185.972C193.741 186.115 193.778 186.262 193.946 186.031C194.114 185.802 193.859 185.109 193.744 184.762C193.629 184.416 193.978 183.981 193.975 183.864C193.972 183.75 193.591 183.916 193.591 183.916L193.483 183.646Z" fill="#996234"/>
<path d="M196.277 183.422C196.277 183.422 196.037 182.474 195.422 182.338C194.807 182.2 194.594 182.153 194.081 182.436C193.568 182.722 193.271 182.622 193.36 183.102C193.448 183.579 193.149 183.863 193.621 183.893C194.129 183.925 195.48 183.884 195.576 183.887C196.149 183.897 196.277 183.422 196.277 183.422Z" fill="#8BC7E8"/>
<path d="M194.71 182.406C194.71 182.406 195.256 182.407 195.219 182.861C195.182 183.315 195.436 183.455 195.067 183.632C194.698 183.808 194.545 184.201 194.34 183.844C194.135 183.489 193.993 183.303 194.09 183.029C194.185 182.754 194.155 182.692 194.293 182.512C194.429 182.331 194.71 182.406 194.71 182.406Z" fill="#301705"/>
<path d="M199.644 157.83L194.149 150.602L188.647 157.825L199.644 157.83Z" fill="white"/>
<rect x="315.275" y="15.2949" width="45.0996" height="25" rx="12.5" fill="#969696" fill-opacity="0.3"/>
<path d="M323.386 32.9209H322.566V23.9521L319.859 24.957V24.1914L323.25 22.9336H323.386V32.9209ZM331.152 32.9209H330.332V23.9521L327.625 24.957V24.1914L331.015 22.9336H331.152V32.9209ZM335.124 33.7754H334.378L338.535 22.9678H339.273L335.124 33.7754ZM346.909 32.9209H340.674V32.292L344.085 28.4229C344.651 27.7712 345.042 27.2334 345.261 26.8096C345.48 26.3857 345.589 25.9733 345.589 25.5723C345.589 24.9434 345.405 24.4466 345.036 24.082C344.667 23.7129 344.158 23.5283 343.511 23.5283C342.841 23.5283 342.299 23.7425 341.884 24.1709C341.474 24.5993 341.269 25.1553 341.269 25.8389H340.456C340.456 25.2783 340.581 24.7679 340.832 24.3076C341.087 23.8473 341.447 23.4873 341.912 23.2275C342.381 22.9632 342.914 22.8311 343.511 22.8311C344.423 22.8311 345.134 23.0703 345.644 23.5488C346.159 24.0273 346.417 24.679 346.417 25.5039C346.417 25.9688 346.271 26.4769 345.979 27.0283C345.692 27.5798 345.184 28.2679 344.455 29.0928L341.679 32.2305H346.909V32.9209ZM353.464 29.7148H355.016V30.4053H353.464V32.9209H352.644V30.4053H347.961V29.9404L352.569 22.9678H353.464V29.7148ZM348.966 29.7148H352.644V24.0273L352.282 24.6562L348.966 29.7148Z" fill="black"/>
<path d="M193.843 132.009C192.467 68.8164 -4.27898 106.051 36.3073 315.535C38.0454 324.505 38.0585 320.761 38.0585 320.761" stroke="white" stroke-width="6" stroke-miterlimit="10" stroke-dasharray="10 10"/>
</g>
<defs>
<radialGradient id="paint0_radial" cx="0" cy="0" r="1" gradientUnits="userSpaceOnUse" gradientTransform="translate(101.382 510.354) rotate(-18.2592) scale(479.843)">
<stop stop-color="#58F1FE"/>
<stop offset="0.646" stop-color="#58F1FE"/>
<stop offset="0.7523" stop-color="#58F1FE"/>
<stop offset="0.9693" stop-color="#58F1FE" stop-opacity="0.36"/>
<stop offset="1" stop-color="#58F1FE" stop-opacity="0.35"/>
</radialGradient>
<radialGradient id="paint1_radial" cx="0" cy="0" r="1" gradientUnits="userSpaceOnUse" gradientTransform="translate(178.712 209.979) scale(194.024)">
<stop stop-color="#42C9CC"/>
<stop offset="0.646" stop-color="#42C9CC"/>
<stop offset="0.7523" stop-color="#42C9CC"/>
<stop offset="0.9693" stop-color="#42C9CC" stop-opacity="0.3868"/>
<stop offset="1" stop-color="#42C9CC" stop-opacity="0.3"/>
</radialGradient>
<radialGradient id="paint2_radial" cx="0" cy="0" r="1" gradientUnits="userSpaceOnUse" gradientTransform="translate(178.702 57.9699) scale(146.562)">
<stop stop-color="#42C9CC"/>
<stop offset="0.646" stop-color="#42C9CC"/>
<stop offset="0.7523" stop-color="#42C9CC"/>
<stop offset="0.9693" stop-color="#42C9CC" stop-opacity="0.3868"/>
<stop offset="1" stop-color="#42C9CC" stop-opacity="0.3"/>
</radialGradient>
<clipPath id="clip0">
<rect width="375" height="375" fill="white" transform="translate(0.275146 0.294922)"/>
</clipPath>
</defs>
</svg>
