<svg width="376" height="376" viewBox="0 0 376 376" fill="none" xmlns="http://www.w3.org/2000/svg">
<g clip-path="url(#clip0)">
<path d="M-126.317 -212.516H477.45L478.191 390.619H-125.576L-126.317 -212.516Z" fill="url(#paint0_linear)"/>
<path d="M288.066 178.139C288.066 178.139 290.809 175.32 292.69 175.54C294.57 175.759 295.67 175.774 295.755 183.656C295.838 191.538 288.066 363.958 391.097 343.993C396.013 343.676 435.035 344.491 439.706 344.084C444.379 343.679 490.376 350.419 494.613 346.538" stroke="#727272" stroke-width="1.5" stroke-miterlimit="10" stroke-linecap="round"/>
<path d="M288.066 177.692C288.066 177.692 290.809 174.872 292.69 175.092C294.57 175.312 295.67 175.774 295.755 183.656C295.838 191.538 288.066 363.958 391.097 343.993C396.013 343.676 435.035 344.491 439.706 344.084C444.379 343.68 490.376 350.42 494.613 346.538" stroke="#727272" stroke-width="3" stroke-miterlimit="10" stroke-linecap="round" stroke-dasharray="1.5 4"/>
<path d="M60.6851 168.316C59.8104 168.499 57.0147 174.554 57.9016 179.333C58.7904 184.111 61.339 195.182 62.8019 197.005C64.2691 198.828 66.109 202.087 66.109 202.087C66.109 202.087 59.6407 205.562 58.6085 207.837C58.6085 207.837 58.6104 208.769 59.4007 208.646C60.191 208.519 67.0901 208.144 67.4144 208.92C67.7388 209.692 68.3688 213.713 68.4715 214.238C68.5783 214.76 68.2877 217.136 68.1869 217.989C68.1443 218.342 66.0302 221.747 66.4151 222.516C66.8083 223.287 69.671 223.314 71.269 223.276C72.8632 223.24 81.3738 217.54 82.5588 216.49C83.7452 215.442 84.0794 202.764 84.0794 202.764C84.0794 202.764 81.6597 186.188 82.2536 186.153C82.8485 186.119 86.8605 184.503 88.1491 183.011C89.4386 181.516 88.9596 174.29 88.3526 173.138C87.7329 171.982 73.803 165.549 60.6851 168.316Z" fill="#36627A"/>
<path d="M67.1909 214.053C67.1909 214.053 68.5691 213.772 68.6478 213.943C68.727 214.116 69.0289 214.593 68.9637 215.514C68.8981 216.438 69.2525 217.608 68.5259 217.696C67.7994 217.785 67.2997 217.788 67.2997 217.788C67.2997 217.788 66.0894 220.774 64.2242 221.677C62.3581 222.581 61.1028 222.273 62.2517 221.091C63.3969 219.908 65.5527 218.517 65.3464 218.03C65.142 217.545 61.527 218.043 61.527 218.043L61.5594 215.12C61.5594 215.12 64.3227 214.852 64.4595 214.905C64.5973 214.958 65.6389 214.185 64.8481 213.843C64.0569 213.502 60.6523 213.849 61.1956 212.642C61.7403 211.436 61.6086 211.447 62.8939 211.285C64.1816 211.123 65.8278 211.757 66.5581 212.641C67.2852 213.524 67.1909 214.053 67.1909 214.053Z" fill="#6C808C"/>
<path d="M139.949 206.953L126.946 196.073L72.3977 192.976C89.4251 189.473 121.686 184.349 169.744 181.387C204.272 179.261 233.201 179.039 246.582 179.716C270.912 180.951 287.282 179.536 291.438 179.112C290.731 179.559 289.693 180.261 289.064 180.847C288.585 181.288 288.165 181.888 287.575 182.717C286.392 184.399 284.579 186.825 280.579 190.598L280.179 190.961C253.474 203.972 217.272 207.807 191.27 208.547C163.732 209.332 141.112 207.075 139.949 206.953Z" fill="#FF0000"/>
<path d="M170.763 163.39C170.53 162.919 170.343 162.566 170.196 162.3C170.119 162.169 170.054 162.058 169.996 161.967C169.706 161.505 169.611 161.504 169.554 161.502L169.388 161.605C169.309 161.753 169.222 161.912 169.121 162.077C169.053 162.188 168.982 162.302 168.908 162.418C168.867 162.476 168.829 162.534 168.792 162.592C167.738 164.122 165.99 165.922 164.94 165.646C164.44 165.512 164.139 165.175 164.018 164.604C164.002 164.538 163.993 164.468 163.984 164.399C163.976 164.326 163.968 164.251 163.968 164.173C163.902 162.144 165.711 158.169 168.087 155.633C168.452 155.243 168.832 154.887 169.221 154.58C169.436 154.406 169.681 154.232 169.939 154.084C170.355 153.847 170.805 153.677 171.222 153.698C171.379 153.705 171.532 153.741 171.68 153.808C171.912 153.916 172.067 154.096 172.153 154.362C172.21 154.535 172.232 154.738 172.232 154.952C172.216 156.468 170.927 158.772 170.909 158.8L170.814 158.972L172.918 159.58L170.763 163.39ZM171.023 155.898C171.016 155.664 170.959 155.474 170.829 155.344C170.804 155.318 170.776 155.295 170.743 155.273C170.666 155.222 170.574 155.194 170.475 155.194C170.405 155.194 170.333 155.21 170.249 155.24C169.684 155.442 168.872 156.319 168.053 157.444L168.016 157.399L167.979 157.355L167.263 158.597C166.908 159.151 166.569 159.727 166.268 160.285C165.762 161.215 165.361 162.102 165.155 162.768C165.041 163.147 164.989 163.453 165.002 163.685C165.006 163.744 165.016 163.797 165.024 163.847C165.056 163.995 165.126 164.107 165.229 164.175C165.276 164.206 165.327 164.221 165.383 164.221C166.027 164.221 168.113 161.693 168.98 160.46C169.011 160.412 169.042 160.37 169.07 160.326C169.123 160.243 169.177 160.166 169.214 160.1C169.26 160.033 169.293 159.975 169.312 159.93C169.338 159.887 169.369 159.838 169.411 159.777C169.449 159.717 169.489 159.648 169.537 159.57C170.047 158.72 171.047 156.919 171.023 155.898Z" fill="black"/>
<path d="M190.542 156.605C189.709 156.72 186.783 157.196 184.243 157.676C184.081 157.706 183.921 157.737 183.764 157.768C183.681 157.784 183.599 157.801 183.517 157.817C183.17 157.886 182.834 157.958 182.513 158.028C182.413 158.05 182.315 158.074 182.22 158.097C181.978 158.151 181.748 158.208 181.534 158.266C181.446 158.289 181.362 158.311 181.282 158.335C181.266 158.337 181.242 158.343 181.216 158.35C180.434 158.523 175.977 159.561 175.311 160.717C175.291 160.756 175.272 160.787 175.261 160.826C174.87 161.944 173.921 168.199 173.764 169.592H171.1L170.168 167.237L170.529 163.891L170.671 163.826C170.662 163.809 170.655 163.794 170.65 163.778C170.64 163.762 170.634 163.746 170.627 163.731L172.939 159.669L172.973 159.678L173.02 159.53L173.053 159.471L173.112 159.367L176.563 152.105L177.091 151.919L177.621 151.734L179.173 143.269C179.249 143.269 179.354 143.268 179.485 143.268C180.39 143.268 183.41 143.293 184.278 143.622C185 143.901 188.495 151.606 190.542 156.605Z" fill="#3FA9F5"/>
<path d="M169.338 159.063C169.354 159.063 169.365 159.06 169.376 159.058C169.406 159.052 169.43 159.035 169.455 159.015C169.303 159.281 169.15 159.537 168.999 159.775C168.916 159.944 168.752 160.195 168.543 160.491C168.508 160.411 168.496 160.321 168.496 160.245C168.493 160.114 168.52 160.009 168.521 160.005L168.568 159.844L167.091 159.532L167.709 158.453C167.826 158.276 167.946 158.103 168.07 157.934C168.964 158.968 169.232 159.067 169.338 159.063Z" fill="black"/>
<path d="M169.412 159.777C169.372 159.838 169.342 159.889 169.316 159.929C169.295 159.975 169.264 160.033 169.218 160.099C169.176 160.167 169.128 160.242 169.073 160.326C169.044 160.369 169.015 160.412 168.983 160.459C168.118 161.695 166.032 164.22 165.386 164.22C165.33 164.22 165.275 164.206 165.234 164.176C165.124 164.105 165.059 163.997 165.027 163.847C165.015 163.799 165.009 163.742 165.006 163.685C164.992 163.452 165.048 163.148 165.158 162.767C165.363 162.102 165.765 161.216 166.273 160.284C166.572 159.726 166.916 159.151 167.266 158.599L167.982 157.355L168.019 157.398L168.057 157.442C168.874 156.319 169.686 155.441 170.252 155.239C170.332 155.211 170.408 155.193 170.479 155.193C170.582 155.193 170.67 155.221 170.747 155.273C170.778 155.292 170.808 155.318 170.833 155.343C170.962 155.474 171.019 155.666 171.026 155.896C171.047 156.916 170.05 158.718 169.537 159.567C169.491 159.647 169.449 159.717 169.412 159.777ZM165.429 162.86C165.185 163.667 165.288 163.865 165.331 163.904C165.849 163.808 167.406 162.022 168.335 160.767C168.165 160.542 168.162 160.26 168.187 160.086L166.858 159.805C166.228 160.889 165.691 161.993 165.429 162.86ZM167.706 158.454L167.087 159.532L168.564 159.845L168.516 160.005C168.515 160.007 168.488 160.114 168.49 160.245C168.491 160.322 168.506 160.411 168.538 160.49C168.746 160.194 168.911 159.942 168.994 159.775C169.143 159.537 169.297 159.28 169.45 159.015C169.427 159.033 169.401 159.05 169.371 159.057C169.361 159.059 169.353 159.062 169.334 159.062C169.228 159.066 168.96 158.967 168.061 157.933C167.945 158.102 167.826 158.275 167.706 158.454ZM170.572 155.533C170.547 155.516 170.513 155.506 170.473 155.506C170.037 155.506 169.165 156.423 168.25 157.674C168.643 158.123 169.082 158.58 169.274 158.716C169.382 158.554 169.584 158.491 169.754 158.471C170.454 157.162 170.987 155.809 170.572 155.533Z" fill="black"/>
<path d="M71.9112 190.722L71.9843 190.674L71.9365 186.374L74.6229 184.731L86.3792 184.938L86.4063 184.928L91.2767 183.127L91.481 173.082L100.27 170.938L119.061 170.885L120.051 169.065L135.971 168.181L136.076 166.568L139.387 166.232L139.087 165.995C139.083 165.992 138.622 165.621 138.632 165.17C138.641 164.908 138.805 164.659 139.133 164.43C139.372 164.258 140.084 164.056 142.081 164.056C143.917 164.056 146.155 164.221 147.793 164.341C148.601 164.401 149.241 164.451 149.614 164.461C150.731 164.495 151.97 165.337 152.647 166.103C153.063 166.573 153.282 167.034 153.253 167.359C153.153 168.398 152.985 168.649 152.235 168.79L152.283 169.12L163.272 168.078L170.057 167.439L170.985 169.822H173.921L173.937 169.47C173.952 169.397 175.034 161.892 175.439 160.728C175.757 159.817 179.736 158.752 181.243 158.423C183.901 157.677 189.449 156.897 190.467 156.759L190.483 156.796L190.594 156.786C190.595 156.786 190.811 156.766 191.112 156.766C191.963 156.766 192.579 156.909 192.858 157.16C193.16 157.438 193.162 157.993 193.164 158.533C193.167 158.997 193.168 159.436 193.343 159.763C193.704 160.431 196.789 165.649 196.923 165.87L196.967 165.941L197.046 165.947C197.501 165.973 242.275 168.62 252.263 169.849C253.037 169.944 253.92 170.034 254.887 170.17C270.004 172.298 291.177 176.383 291.177 176.383C292.815 176.412 293.464 176.926 293.521 177.358C293.573 177.758 293.159 178.161 292.479 178.36C292.459 178.37 292.004 178.602 291.381 178.97C288.635 179.272 272.062 180.911 246.176 179.598C232.785 178.92 203.81 179.187 169.273 181.315C120.064 184.348 89.697 189.188 72.8834 192.714L72.1456 192.868C70.7496 192.85 70.2537 192.71 70.1895 192.634C70.1703 192.589 70.1407 192.548 70.1098 192.507C70.0348 192.409 69.9992 192.353 70.017 192.276C70.0732 192.001 70.6915 191.492 71.9112 190.722Z" fill="white" stroke="white" stroke-miterlimit="10"/>
<path d="M139.904 207.07L139.952 207.075C140.14 207.095 156.271 208.777 178.49 208.777C182.338 208.777 186.366 208.73 190.52 208.61C216.408 207.873 252.791 204.286 279.507 191.423C279.433 191.488 279.368 191.55 279.302 191.616C278.38 192.467 277.464 193.369 276.494 194.325C270.355 200.368 262.716 207.888 243.012 213.617C238.478 214.935 233.626 215.55 227.731 215.55C222.684 215.55 217.507 215.413 212.025 214.94C206.007 214.421 199.789 213.885 193.136 213.885C192.114 213.885 191.095 213.898 190.105 213.924C189.106 213.948 187.935 213.963 186.626 213.963C160.717 213.963 81.7944 208.543 78.5183 208.331L72.6641 193.342L126.938 196.189L139.904 207.07Z" fill="white" stroke="white" stroke-miterlimit="10"/>
<path d="M154.045 169.639C154.045 169.639 152.996 168.421 153.228 166.985C153.457 165.551 153.778 164.818 154.659 164.566C155.539 164.314 156.733 164.2 156.976 164.324C157.221 164.449 160.19 165.625 160.869 165.859C161.544 166.095 163.398 167.32 163.435 167.884C163.477 168.449 163.581 168.63 163.811 169.182C164.042 169.733 164.39 172.223 164.39 172.223L159.911 172.715C159.911 172.715 159.96 170.968 159.629 170.848C159.298 170.73 154.926 170.284 154.627 170.116C154.336 169.95 154.045 169.639 154.045 169.639Z" fill="#996234"/>
<path d="M137.463 162.655C137.463 162.655 137.227 160.439 137.132 160.439C137.037 160.439 140.239 160.25 140.999 159.684C141.943 158.982 147.132 159.024 147.132 159.024L150.575 162.184L154.55 165.173C154.55 165.173 153.406 168.93 152.84 168.93C152.572 168.93 149.741 166.362 147.18 166.289C144.326 166.206 144.114 167.844 144.773 171.383C144.898 172.051 138.878 168.033 138.878 168.033C138.878 168.033 137.741 167.184 137.46 165.675C137.18 164.165 137.463 162.655 137.463 162.655Z" fill="#EF45B7"/>
<path d="M144.302 139.919C144.444 139.966 145.482 138.693 145.434 138.268C145.387 137.844 144.964 137.561 144.868 137.561C144.773 137.561 143.783 136.381 144.302 135.862C144.821 135.343 143.169 133.221 143.783 132.183C144.395 131.145 145.15 129.541 146.566 128.975C147.982 128.409 148.878 127.938 149.585 128.503C150.293 129.07 151.991 130.673 152.037 131.287C152.085 131.9 152.368 133.079 152.037 134.353C151.707 135.627 151.707 135.815 151.66 137.183C151.613 138.55 151 139.401 150.575 139.92C150.15 140.438 150.34 141.145 149.538 141.334C148.735 141.522 149.726 142.796 149.349 143.267C148.972 143.738 144.538 142.559 144.633 140.72C144.677 139.854 144.302 139.919 144.302 139.919Z" fill="#996234"/>
<path d="M144.444 138.079C144.444 138.079 143.642 138.079 143.735 137.419C143.829 136.758 144.002 135.626 143.727 135.343C143.451 135.06 142.603 134.541 142.886 133.739C143.169 132.936 143.499 132.465 143.311 131.71C143.122 130.955 143.311 130.343 143.923 129.965C144.537 129.588 145.014 129.682 145.719 129.352C146.425 129.022 146.991 128.22 147.791 128.078C148.592 127.936 149.537 127.37 150.197 128.078C150.858 128.786 151.329 128.786 151.518 129.257C151.706 129.729 151.471 129.211 151.753 130.342C152.035 131.475 152.602 131.71 152.224 132.324C151.847 132.936 151.517 131.804 151.187 131.758C150.856 131.711 151.045 131.192 150.149 131.758C149.253 132.324 149.582 132.135 148.262 131.852C146.942 131.569 146.232 130.814 145.832 132.182C145.431 133.551 145.662 133.314 145.832 134.4C145.997 135.485 145.832 135.956 145.832 135.956C145.832 135.956 145.76 135.437 145.243 135.532C144.724 135.627 144.63 135.72 144.677 136.287C144.724 136.852 145.008 137.513 144.913 137.702C144.819 137.891 144.444 138.079 144.444 138.079Z" fill="#301705"/>
<path d="M150.953 148.833C150.953 148.833 154.067 153.928 154.869 154.399C155.671 154.871 157.321 155.815 157.935 155.955C158.547 156.097 162.416 156.71 164.067 156.615C165.717 156.521 166 156.024 166.614 156.627C167.227 157.23 167.51 157.653 167.746 157.181C167.981 156.71 167.84 156.615 167.746 155.908C167.652 155.199 167.746 154.822 168.407 154.728C169.066 154.637 170.078 155.389 169.805 154.54C169.539 153.69 169.632 153.313 168.546 153.408C167.461 153.502 167.272 154.304 166.518 154.398C165.763 154.491 165.432 154.492 164.111 154.304C162.79 154.115 159.063 151.897 158.261 151.851C157.46 151.804 157.412 151.191 156.894 150.672C156.375 150.154 154.299 147.606 154.299 147.606" fill="#996234"/>
<path d="M137.133 151.429C137.321 148.787 138.265 144.59 139.868 142.75C141.472 140.91 141.943 140.957 143.123 140.439C144.302 139.92 144.915 140.062 144.915 140.062C144.915 140.062 144.977 141.948 145.937 142.279C146.896 142.609 149.16 143.222 149.302 142.845C149.444 142.467 149.113 142.228 149.396 141.898C149.679 141.57 150.151 140.675 150.482 140.864C150.812 141.052 152.463 141.713 152.651 142.562C152.84 143.412 153.029 144.543 153.501 145.203C153.972 145.863 154.255 146.901 154.255 146.901C154.255 146.901 154.397 147.279 154.538 147.703C154.679 148.126 153.311 148.08 152.416 149.824C151.519 151.57 150.529 148.834 150.529 148.834C150.529 148.834 151.615 148.126 150.623 149.636C150.623 149.636 149.114 151.947 149.02 152.277C148.925 152.608 148.548 153.457 148.596 154.307C148.643 155.156 149.115 156.051 149.02 156.948C148.924 157.845 149.039 158.646 147.92 159.069C146.804 159.494 145.578 159.4 144.208 159.542C142.84 159.684 141.153 159.609 140.529 160.155C139.904 160.701 139.303 160.249 138.548 160.438C137.793 160.627 137.747 161.098 137.133 160.438C136.52 159.778 137.494 157.702 137.337 157.231C137.182 156.759 136.771 155.721 136.929 154.165C137.086 152.608 137.133 151.429 137.133 151.429Z" fill="#8BC7E8"/>
<path d="M142.584 154.611C142.584 154.611 143.584 157.896 144.146 158.524C144.707 159.149 145.604 160.598 146.079 161.161C146.558 161.723 150.78 166.053 151.285 166.43C151.795 166.804 154.244 168.958 154.244 168.958L157.714 168.559C157.714 168.559 155.416 166.098 154.286 164.895C153.155 163.692 149.415 159.062 149.204 158.642C148.99 158.221 147.773 156.956 147.447 156.372C147.117 155.788 147.064 154.581 146.791 153.48C146.52 152.379 146.05 150.953 146.05 150.953C146.05 150.953 141.691 150.432 141.556 151.461C141.419 152.49 142.584 154.611 142.584 154.611Z" fill="#996234"/>
<path d="M144.868 171.334C144.868 171.334 143.909 170.044 144.238 168.629C144.569 167.213 144.943 166.507 145.838 166.318C146.735 166.13 147.931 166.098 148.17 166.239C148.406 166.381 151.283 167.765 151.944 168.048C152.604 168.331 154.362 169.683 154.362 170.249C154.362 170.815 154.456 171.004 154.645 171.569C154.834 172.136 155.07 173.739 155.07 173.739L150.54 174.219C150.54 174.219 150.679 173.079 150.354 172.937C150.031 172.795 145.7 172.04 145.418 171.852C145.135 171.664 144.868 171.334 144.868 171.334Z" fill="#996234"/>
<path d="M104.462 166.718C104.462 166.718 104.971 168.499 104.641 170.692C104.311 172.885 104.241 174.762 105.046 175.45C105.852 176.139 105.054 177.499 105.835 177.677C106.342 177.793 114.348 176.737 114.999 176.913C115.65 177.09 117.771 176.582 118.102 176.773C118.432 176.965 121.2 176.535 121.632 176.614C122.065 176.693 121.812 175.843 122.233 175.666C122.653 175.488 123.423 173.523 123.423 173.523L123.386 172.703L122.232 170.897L121.626 169.27L121.072 168.946C121.072 168.946 120.739 168.699 120.502 168.181C120.264 167.663 120.125 166.97 119.993 166.414C119.861 165.858 119.77 164.959 119.322 165.163C118.873 165.367 104.462 166.718 104.462 166.718Z" fill="#32417F"/>
<path d="M97.7473 154.234C97.7473 154.234 97.2045 162.007 97.2949 162.216C97.3868 162.425 97.129 164.017 96.6724 166.242C96.2154 168.469 96.3199 174.107 96.3673 174.649C96.416 175.191 96.2271 176.336 96.2402 176.482C96.2534 176.627 95.6871 177.222 95.2591 177.735C94.8312 178.247 95.2943 178.131 95.2943 178.131C95.2943 178.131 95.8596 178.338 96.2299 178.412C96.6016 178.488 97.8691 178.412 98.2835 178.556C98.697 178.702 101.175 178.3 101.356 178.282C101.537 178.268 101.872 177.945 101.837 177.549C101.801 177.149 101.302 176.866 101.302 176.866L99.7221 176.315C99.7221 176.315 99.6809 175.444 99.6246 175.231C99.5688 175.017 100.833 171.224 100.904 169.98C100.974 168.734 101.137 168.1 100.997 167.348C100.856 166.595 100.895 164.588 100.918 164.44C100.942 164.293 101.366 161.703 101.636 161.061C101.906 160.417 101.328 155.988 101.348 155.805L97.7473 154.234Z" fill="#FFCBA1"/>
<path d="M122.438 152.498C122.438 152.498 125.044 158.822 125.286 159.092C125.529 159.361 126.77 162.238 127.061 162.65C127.353 163.059 130.641 174.17 130.764 174.305C130.885 174.44 131.677 174.733 131.863 174.789C132.049 174.845 132.216 175.887 132.216 175.887L129.614 176.121L127.51 176.308C127.51 176.308 127.192 176.338 126.722 176.378C126.253 176.42 125.987 176.299 125.902 176.168C125.817 176.038 126.113 175.269 126.283 175.141C126.454 175.018 126.938 174.719 127.211 174.513C127.484 174.308 127.192 173.895 127.101 173.285C127.011 172.674 126.317 171.022 125.911 170.149C125.505 169.279 123.964 166.314 123.929 165.919C123.893 165.519 123.056 163.081 122.8 162.667C122.544 162.252 122.8 162.667 122.35 162.123C121.901 161.581 118.891 155.619 118.891 155.619L122.167 153.14L122.438 152.498Z" fill="#FFCBA1"/>
<path d="M123.675 152.896C123.692 153.075 123.026 153.791 122.71 153.929C122.396 154.066 120.873 154.967 120.636 155.171C120.399 155.375 119.507 156.402 119.494 156.658C119.481 156.914 119.387 158.307 119.4 158.451C119.412 158.596 120.16 161.664 120.331 161.938C120.501 162.212 120.614 165.52 120.587 166.03C120.56 166.543 120.737 170.112 119.791 170.123C118.845 170.135 115.168 170.573 114.396 170.497C113.624 170.42 109.385 171.492 108.885 171.609C108.386 171.727 104.825 171.425 104.284 170.673C103.742 169.921 102.955 164 102.952 163.564C102.949 163.127 102.407 158.694 102.407 158.694C102.407 158.694 102.094 156.427 101.946 156.403C101.798 156.38 100.045 156.318 98.8947 156.094C97.7453 155.869 97.0919 155.49 97.0919 155.49C97.0919 155.49 96.9292 154.486 96.9855 154.299C97.0412 154.111 98.0552 148.738 98.4114 147.432C98.7676 146.125 104.333 144.387 104.649 144.25C104.965 144.113 111.534 143.015 111.97 143.012C112.407 143.01 116.429 144.399 117.254 144.652C118.079 144.906 120.731 145.653 121.748 147.238C122.764 148.823 123.54 152.616 123.659 152.715C123.66 152.715 123.659 152.716 123.675 152.896Z" fill="#FFFEF8"/>
<path d="M111.998 143.336C111.998 143.336 111.81 144.073 111.494 144.652C109.363 145.897 108.696 145.01 107.334 144.84C105.97 144.671 106.074 143.065 106.139 142.585C106.204 142.106 105.836 137.584 105.835 136.747C105.833 135.91 106.888 131.005 110.865 131.888C114.842 132.772 113.87 137.376 113.87 137.376C113.043 142.806 111.998 143.336 111.998 143.336Z" fill="#FFCBA1"/>
<path d="M107.982 142.595C107.982 142.595 105.958 142.86 105.424 140.546C104.891 138.232 105.329 138.427 105.218 135.966C105.107 133.506 102.533 132.964 106.174 131.95C109.815 130.935 112.506 129.634 113.02 131.111C113.534 132.589 114.07 133.211 113.872 133.753C113.674 134.297 114.052 135.146 114.013 135.677C113.974 136.208 113.32 137.745 113.32 137.745C113.32 137.745 111.81 138.242 111.796 138.565C111.782 138.887 111.255 139.62 111.297 140.282C111.339 140.944 112.178 141.07 111.355 141.561C110.531 142.053 109.821 142.517 109.821 142.517L107.982 142.595Z" fill="#9E5A2D"/>
<path opacity="0.6" d="M-126.316 200.974H477.45L478.191 390.15H-125.575L-126.316 200.974Z" fill="#33EFFF"/>
<path d="M477.87 345.461C449.282 350.63 431.689 349.345 411.297 349.274C393.145 349.248 386.182 346.319 354.307 343.901C334.619 343.306 319.155 343.201 298.302 344.262C283.122 345.034 248.215 346.847 232.53 344.404C192.801 336.786 127.154 337.962 93.0515 343.234C58.9485 348.507 73.6753 339.988 51.9726 340.801C30.2714 341.603 33.7589 344.857 22.9078 342.011C12.0576 339.171 7.30779 330.554 -1.93737 332.191C-2.98456 332.817 -1.73816 337.852 -24.9553 325.682C-33.0933 321.415 -42.4655 321.531 -48.2569 321.436C-54.0117 321.342 -66.8372 324.379 -74.2003 318.7C-82.6908 313.715 -107.278 331.088 -115.803 335.948C-124.329 340.828 -128.579 337.97 -128.579 337.97L-127.258 392.48L478.194 393.234L477.87 345.461Z" fill="#D8BD80"/>
<path d="M248.344 168.032C248.302 167.717 247.644 166.036 247.938 165.689C248.232 165.341 249.283 164.447 249.647 164.114C250.011 163.781 250.523 163.432 250.668 163.113C250.815 162.792 250.732 162.102 250.931 162.112C251.132 162.122 263.77 162.642 263.873 162.683C263.976 162.722 265.428 163.762 265.55 164.187C265.67 164.611 266.31 165.127 266.469 165.483C266.627 165.839 267.149 167.153 267.417 167.932C267.686 168.711 267.79 169.518 267.814 170.566C267.837 171.613 267.861 172.676 267.702 173.08C267.544 173.483 267.143 173.902 267.053 173.977C266.961 174.052 267.473 174.108 266.556 174.051C265.639 173.993 261.983 173.064 261.16 173.551C260.336 174.038 259.215 174.13 258.732 174.002C258.25 173.875 258.418 174.005 257.984 173.577C257.549 173.147 257.292 172.629 257.12 172.613C256.945 172.596 257.081 172.325 256.56 172.86C256.039 173.395 256.216 173.334 256.039 173.395C255.861 173.457 254.582 173.993 254.235 173.978C253.886 173.963 254.168 173.999 253.714 173.956C253.262 173.912 253.354 174.208 253.262 173.912C253.169 173.618 253.144 172.535 252.689 172.167C252.238 171.798 248.344 168.032 248.344 168.032Z" fill="#F7931E"/>
<path d="M268.064 151.499C268.091 151.674 267.728 155.948 268.015 156.554C268.301 157.159 268.821 159.624 268.849 159.766C268.878 159.905 269.002 161.829 268.9 162.558C268.798 163.285 268.981 163.887 269.103 165.079C269.225 166.269 270.601 169.854 270.558 170.061C270.513 170.268 270.511 171.105 270.511 171.105L269.02 171.702C269.02 171.702 268.554 171.995 268.536 172.38C268.519 172.761 268.856 173.057 269.03 173.064C269.204 173.072 271.599 173.35 271.989 173.193C272.38 173.038 273.598 173.055 273.952 172.966C274.304 172.879 274.838 172.656 274.838 172.656C274.838 172.656 275.287 172.746 274.854 172.275C274.421 171.801 273.852 171.254 273.86 171.115C273.866 170.974 273.634 169.884 273.657 169.362C273.679 168.84 273.536 163.427 273 161.31C272.467 159.196 272.15 157.68 272.229 157.475C272.306 157.27 271.45 149.838 271.45 149.838L268.064 151.499Z" fill="#FFCBA1"/>
<path d="M247.976 149.843L251.226 152.08C251.226 152.08 248.597 157.93 248.189 158.47C247.782 159.01 248.008 158.601 247.782 159.01C247.554 159.419 246.856 161.794 246.839 162.18C246.822 162.561 245.473 165.471 245.122 166.324C244.77 167.179 244.175 168.794 244.115 169.384C244.054 169.972 243.792 170.382 244.063 170.566C244.333 170.752 244.811 171.018 244.98 171.129C245.15 171.243 245.466 171.968 245.39 172.098C245.315 172.226 245.065 172.355 244.613 172.334C244.16 172.315 243.854 172.301 243.854 172.301L241.828 172.213L239.321 172.101C239.321 172.101 239.436 171.094 239.612 171.032C239.788 170.97 240.535 170.654 240.646 170.52C240.757 170.385 243.43 159.584 243.693 159.179C243.955 158.771 245.021 155.958 245.242 155.689C245.462 155.419 247.688 149.239 247.688 149.239L247.976 149.843Z" fill="#FFCBA1"/>
<path d="M258.859 173.44C258.863 173.346 258.443 173.484 258.793 171.644C259.144 169.802 260.632 168.893 261.502 168.397C262.374 167.901 263.937 167.404 264.752 168.194C265.565 168.985 266.613 169.503 266.753 170.265C266.893 171.025 266.725 171.962 266.652 172.557C266.578 173.152 266.008 174.669 265.994 175.013C265.978 175.361 259.037 174.797 259.037 174.797L258.859 173.44Z" fill="#FFCBA1"/>
<path d="M252.497 174.497C252.497 174.497 253.737 173.094 253.929 172.949C254.121 172.802 255.54 172.215 255.607 172.093C255.675 171.973 255.966 171.678 255.656 171.012C255.344 170.349 254.829 168.682 254.416 168.2C254.004 167.718 250.644 166.64 249.93 166.671C249.216 166.702 249.138 166.39 248.339 166.912C247.541 167.433 247.049 168.062 246.848 168.424C246.644 168.788 246.166 169.85 246.12 170.159C246.077 170.466 246.17 171.833 246.026 172.291C245.882 172.75 245.941 174.077 245.941 174.077L252.497 174.497Z" fill="#FFCBA1"/>
<path d="M246.525 149.501C246.634 149.401 247.215 145.729 248.121 144.165C249.027 142.6 251.54 141.769 252.32 141.49C253.1 141.211 256.9 139.705 257.318 139.687C257.737 139.671 264.086 140.44 264.395 140.557C264.705 140.675 270.118 142.102 270.517 143.339C270.916 144.577 272.121 149.688 272.182 149.866C272.245 150.043 272.133 151.014 272.133 151.014C272.133 151.014 271.521 151.405 270.429 151.67C269.335 151.935 267.656 152.071 267.515 152.1C267.374 152.129 267.173 154.317 267.173 154.317C267.173 154.317 266.845 158.593 266.861 159.013C266.877 159.431 266.906 161.945 266.418 162.691C265.931 163.436 262.529 163.879 262.046 163.788C261.561 163.697 257.448 162.852 256.711 162.96C255.973 163.066 252.427 162.805 251.519 162.834C250.611 162.865 250.097 162.633 250.049 162.142C250.001 161.653 249.967 158.476 250.119 158.205C250.269 157.934 250.854 154.959 250.861 154.82C250.867 154.681 250.716 153.348 250.693 153.104C250.668 152.859 249.769 151.912 249.532 151.727C249.297 151.541 247.797 150.743 247.489 150.625C247.18 150.506 246.51 149.848 246.519 149.675C246.526 149.501 246.525 149.501 246.525 149.501Z" fill="#FFF599"/>
<path d="M255.252 134.364C255.252 134.364 254.121 129.989 257.898 128.969C261.675 127.95 262.9 132.609 262.933 133.412C262.968 134.215 262.811 138.569 262.894 139.026C262.978 139.484 263.264 143.298 261.963 143.519C260.664 143.742 259.029 144.437 257.591 142.246C257.263 141.704 257.307 140 257.307 140C257.307 140 256.28 139.537 255.252 134.364Z" fill="#FFCBA1"/>
<path d="M262.732 132.452C262.732 132.452 263.093 128.269 258.506 128.88C254.659 129.396 254.377 131.511 254.706 133.973L254.847 133.955C252.371 138.889 260.233 136.954 262.366 132.974L262.732 132.452Z" fill="#908DFF"/>
<rect x="315.775" y="15.2949" width="45.0996" height="25" rx="12.5" fill="#969696" fill-opacity="0.3"/>
<path d="M326.313 32.9209H320.079V32.292L323.49 28.4229C324.055 27.7712 324.447 27.2334 324.666 26.8096C324.884 26.3857 324.994 25.9733 324.994 25.5723C324.994 24.9434 324.809 24.4466 324.44 24.082C324.071 23.7129 323.563 23.5283 322.916 23.5283C322.246 23.5283 321.703 23.7425 321.289 24.1709C320.878 24.5993 320.673 25.1553 320.673 25.8389H319.86C319.86 25.2783 319.985 24.7679 320.236 24.3076C320.491 23.8473 320.851 23.4873 321.316 23.2275C321.785 22.9632 322.319 22.8311 322.916 22.8311C323.827 22.8311 324.538 23.0703 325.048 23.5488C325.563 24.0273 325.821 24.679 325.821 25.5039C325.821 25.9688 325.675 26.4769 325.383 27.0283C325.096 27.5798 324.588 28.2679 323.859 29.0928L321.083 32.2305H326.313V32.9209ZM333.846 28.7715C333.846 30.1751 333.589 31.2415 333.074 31.9707C332.559 32.6953 331.8 33.0576 330.797 33.0576C329.813 33.0576 329.059 32.7021 328.535 31.9912C328.011 31.2757 327.742 30.2367 327.728 28.874V27.0898C327.728 25.6908 327.988 24.6312 328.507 23.9111C329.027 23.1911 329.786 22.8311 330.784 22.8311C331.768 22.8311 332.52 23.1797 333.04 23.877C333.559 24.5697 333.828 25.5928 333.846 26.9463V28.7715ZM333.026 26.9873C333.026 25.848 332.839 24.9867 332.465 24.4033C332.096 23.82 331.536 23.5283 330.784 23.5283C330.045 23.5283 329.489 23.8132 329.116 24.3828C328.742 24.9525 328.551 25.7933 328.542 26.9053V28.8604C328.542 29.9951 328.733 30.8633 329.116 31.4648C329.503 32.0664 330.064 32.3672 330.797 32.3672C331.527 32.3672 332.078 32.0732 332.452 31.4854C332.83 30.8975 333.021 30.0361 333.026 28.9014V26.9873ZM335.624 33.7754H334.878L339.035 22.9678H339.773L335.624 33.7754ZM347.409 32.9209H341.174V32.292L344.585 28.4229C345.151 27.7712 345.542 27.2334 345.761 26.8096C345.98 26.3857 346.089 25.9733 346.089 25.5723C346.089 24.9434 345.905 24.4466 345.536 24.082C345.167 23.7129 344.658 23.5283 344.011 23.5283C343.341 23.5283 342.799 23.7425 342.384 24.1709C341.974 24.5993 341.769 25.1553 341.769 25.8389H340.956C340.956 25.2783 341.081 24.7679 341.332 24.3076C341.587 23.8473 341.947 23.4873 342.412 23.2275C342.881 22.9632 343.414 22.8311 344.011 22.8311C344.923 22.8311 345.634 23.0703 346.144 23.5488C346.659 24.0273 346.917 24.679 346.917 25.5039C346.917 25.9688 346.771 26.4769 346.479 27.0283C346.192 27.5798 345.684 28.2679 344.955 29.0928L342.179 32.2305H347.409V32.9209ZM353.964 29.7148H355.516V30.4053H353.964V32.9209H353.144V30.4053H348.461V29.9404L353.069 22.9678H353.964V29.7148ZM349.466 29.7148H353.144V24.0273L352.782 24.6562L349.466 29.7148Z" fill="black"/>
</g>
<defs>
<linearGradient id="paint0_linear" x1="175.937" y1="390.619" x2="175.937" y2="-212.516" gradientUnits="userSpaceOnUse">
<stop offset="0.1444" stop-color="white"/>
<stop offset="1" stop-color="#4FC3F7"/>
</linearGradient>
<clipPath id="clip0">
<rect width="375" height="375" fill="white" transform="translate(0.775146 0.294922)"/>
</clipPath>
</defs>
</svg>
