<svg width="376" height="376" viewBox="0 0 376 376" fill="none" xmlns="http://www.w3.org/2000/svg">
<g clip-path="url(#clip0)">
<path d="M-2.53757 -2.70801H376.707L377.172 376.14H-2.07257L-2.53757 -2.70801Z" fill="url(#paint0_linear)"/>
<path d="M355.767 347.268C355.859 347.11 355.601 346.676 355.55 346.609C355.514 346.566 355.462 346.556 355.403 346.564C355.295 346.582 355.153 346.668 355.039 346.754C354.859 346.855 347.634 349.518 343.318 351.107C341.39 351.818 339.87 352.378 339.626 352.47C339.276 352.603 339.067 352.768 339.003 352.952C338.953 353.101 339.016 353.208 339.02 353.213C339.204 353.684 339.357 353.653 339.616 353.555C339.659 353.54 339.705 353.522 339.761 353.506C340.083 353.408 352.875 349.084 353.419 348.904C353.593 348.831 354.087 348.665 354.284 348.758C354.509 348.865 354.847 349.483 354.98 349.79C355.61 351.249 355.912 352.327 355.746 352.475C355.693 352.523 355.48 352.603 354.651 352.351C354.182 352.207 353.699 352.008 353.582 351.948C353.559 351.935 351.173 350.769 350.711 350.922C350.67 350.936 350.637 350.962 350.621 350.997C350.464 351.327 350.869 351.875 351.336 352.507L351.46 352.673C351.843 353.195 352.316 353.752 352.504 353.967C352.13 353.965 351.057 353.961 350.898 353.974C350.883 353.979 350.856 353.982 350.829 353.983C350.722 353.999 350.546 354.047 350.448 354.174C350.383 354.259 350.362 354.36 350.385 354.476C350.426 354.697 350.78 354.979 351.154 355.282C351.216 355.333 351.279 355.385 351.34 355.434C351.323 355.443 351.307 355.458 351.287 355.468C350.859 355.769 350.271 356.179 350.237 356.514C350.228 356.601 350.253 356.674 350.314 356.738C350.593 357.033 351.551 356.736 353.32 355.808C354.644 355.109 356.475 353.81 356.494 353.799C356.89 353.518 357.435 352.776 357.346 352.073C357.261 351.403 355.903 347.683 355.755 347.281C355.754 347.278 355.759 347.272 355.767 347.268Z" fill="#727272"/>
<path d="M339.982 353.042C340.004 352.995 340.007 352.945 339.991 352.896C339.958 352.798 339.851 352.745 339.747 352.78C339.699 352.798 339.66 352.833 339.639 352.878C339.617 352.926 339.614 352.976 339.63 353.025C339.66 353.11 339.754 353.162 339.839 353.148C339.851 353.146 339.864 353.144 339.874 353.14C339.924 353.123 339.963 353.088 339.982 353.042Z" fill="#727272"/>
<path d="M357.234 352.086C357.16 351.453 355.874 347.926 355.664 347.367C355.608 347.409 355.535 347.437 355.467 347.44C355.385 347.448 355.316 347.417 355.271 347.364C355.209 347.285 355.134 347.152 355.083 347.052L355.074 347.076L340.977 352.09C340.273 352.351 339.795 352.527 339.669 352.576C339.279 352.724 339.151 352.879 339.115 352.983C339.081 353.081 339.117 353.148 339.124 353.16C339.281 353.556 339.362 353.525 339.577 353.443C339.624 353.428 339.671 353.408 339.727 353.392C339.801 353.368 340.558 353.117 341.683 352.738C341.842 352.322 342.332 352.154 342.352 352.145C342.805 351.974 353.509 347.959 354.61 348.349C354.902 348.451 355.248 349.275 355.285 349.363C355.317 349.44 356.134 351.281 356.28 351.994C356.486 353.041 355.262 353.797 354.767 353.996C354.347 354.163 352.7 354.12 352.633 354.133H352.632C352.577 354.142 351.088 354.098 350.902 354.112C350.775 354.121 350.607 354.139 350.532 354.243C350.489 354.301 350.474 354.367 350.49 354.451C350.524 354.629 350.892 354.926 351.219 355.188C351.437 355.365 351.644 355.531 351.776 355.676C351.947 355.864 352.01 355.996 351.975 356.083C351.954 356.136 351.904 356.156 351.875 356.156L351.869 356.042C351.869 356.042 351.893 355.981 351.69 355.756C351.623 355.679 351.531 355.596 351.425 355.505C351.398 355.523 351.372 355.543 351.346 355.562C350.983 355.818 350.373 356.242 350.344 356.526C350.337 356.579 350.354 356.622 350.39 356.662C350.547 356.83 351.173 356.801 353.257 355.704C354.071 355.276 355.083 354.618 355.738 354.177C354.544 354.433 352.008 354.38 351.118 354.361C350.952 354.358 350.819 354.353 350.8 354.354L350.791 354.297L350.772 354.241C350.774 354.239 350.776 354.239 350.782 354.237C350.801 354.233 350.854 354.235 351.12 354.242C352.106 354.265 355.099 354.329 356.037 353.971C356.269 353.808 356.416 353.706 356.42 353.702C356.744 353.477 357.312 352.768 357.234 352.086ZM340.088 353.091C340.054 353.165 339.992 353.221 339.915 353.248C339.754 353.306 339.578 353.22 339.524 353.063C339.496 352.985 339.502 352.902 339.535 352.829C339.569 352.754 339.627 352.698 339.707 352.671C339.723 352.664 339.744 352.66 339.764 352.657C339.908 352.634 340.051 352.718 340.102 352.856C340.127 352.934 340.124 353.018 340.088 353.091Z" fill="#727272"/>
<path d="M341.832 352.683C345.643 351.402 353.275 348.822 353.375 348.789C353.442 348.764 354.05 348.517 354.328 348.649C354.617 348.786 354.977 349.497 355.08 349.741C355.483 350.68 356.117 352.293 355.812 352.558C355.444 352.879 353.654 352.12 353.517 352.043C353.246 351.899 351.105 350.901 350.737 351.027C350.729 351.03 350.718 351.036 350.714 351.039C350.587 351.308 350.989 351.857 351.417 352.436L351.541 352.601C351.984 353.202 352.547 353.848 352.65 353.965C352.859 353.971 354.347 354.011 354.717 353.859C355.153 353.687 356.354 352.966 356.16 352.006C356.019 351.299 355.185 349.423 355.175 349.4C355.077 349.161 354.773 348.523 354.569 348.453C353.505 348.076 342.495 352.209 342.383 352.25C342.383 352.254 342.005 352.386 341.832 352.683Z" fill="#727272"/>
<path d="M354.977 346.984L355.017 346.884C354.64 347.039 353.034 347.639 350.301 348.651L354.977 346.984Z" fill="#727272"/>
<path d="M355.662 347.207C355.703 347.136 355.542 346.79 355.454 346.679C355.44 346.658 355.316 346.687 355.105 346.842L355.123 346.881C355.124 346.888 355.263 347.169 355.358 347.29C355.382 347.317 355.416 347.331 355.455 347.326C355.54 347.321 355.631 347.259 355.662 347.207Z" fill="#727272"/>
<path d="M355.763 347.266C355.855 347.108 355.598 346.674 355.547 346.608C355.511 346.565 355.459 346.555 355.399 346.563C355.291 346.58 355.15 346.667 355.035 346.753C354.855 346.853 347.63 349.516 343.316 351.105C341.387 351.816 339.865 352.377 339.623 352.468C339.274 352.601 339.064 352.765 339.001 352.95C338.951 353.098 339.014 353.207 339.017 353.211C339.2 353.683 339.354 353.651 339.612 353.553C339.657 353.539 339.704 353.52 339.758 353.504C340.081 353.407 352.87 349.082 353.415 348.903C353.592 348.83 354.085 348.663 354.28 348.757C354.505 348.864 354.843 349.482 354.975 349.788C355.604 351.248 355.909 352.326 355.742 352.475C355.684 352.523 355.474 352.603 354.646 352.351C354.176 352.208 353.692 352.007 353.576 351.947C353.555 351.935 351.17 350.769 350.706 350.923C350.663 350.935 350.632 350.962 350.616 350.997C350.459 351.327 350.864 351.878 351.333 352.51L351.454 352.676C351.841 353.201 352.31 353.756 352.5 353.973C352.571 353.974 352.619 353.983 352.629 353.983L352.631 354.108C352.631 354.108 352.633 354.134 352.632 354.134H352.633C352.701 354.124 354.349 354.165 354.767 353.995C355.255 353.801 356.484 353.03 356.274 351.98C356.133 351.264 355.318 349.435 355.284 349.356C355.247 349.264 354.902 348.442 354.609 348.341C353.507 347.955 342.802 351.972 342.351 352.141C342.329 352.15 341.841 352.319 341.682 352.735C340.559 353.114 339.8 353.37 339.726 353.39C339.673 353.404 339.622 353.426 339.576 353.441C339.359 353.523 339.277 353.554 339.123 353.158C339.116 353.146 339.081 353.078 339.114 352.982C339.153 352.876 339.279 352.721 339.668 352.574C339.792 352.525 340.27 352.35 340.977 352.088L355.072 347.074L355.081 347.05C355.134 347.149 355.207 347.282 355.27 347.362C355.316 347.418 355.384 347.446 355.466 347.438C355.534 347.432 355.603 347.407 355.662 347.365C355.648 347.318 355.635 347.291 355.634 347.289L355.742 347.248C355.744 347.254 355.748 347.265 355.754 347.277C355.754 347.277 355.759 347.272 355.763 347.266ZM341.827 352.687C342 352.388 342.379 352.255 342.384 352.253C342.494 352.212 353.505 348.079 354.57 348.455C354.776 348.526 355.078 349.164 355.174 349.402C355.183 349.425 356.021 351.301 356.159 352.007C356.349 352.97 355.151 353.688 354.717 353.864C354.348 354.008 352.863 353.971 352.651 353.966C352.549 353.85 351.987 353.206 351.544 352.603L351.42 352.437C350.992 351.857 350.59 351.309 350.714 351.04C350.72 351.035 350.73 351.03 350.739 351.03C351.109 350.905 353.249 351.9 353.521 352.045C353.659 352.119 355.445 352.877 355.816 352.56C356.119 352.297 355.486 350.681 355.082 349.743C354.977 349.5 354.619 348.787 354.331 348.651C354.055 348.518 353.446 348.765 353.378 348.791C353.274 348.823 345.641 351.403 341.827 352.687ZM355.017 346.885L354.975 346.985L350.296 348.652C353.032 347.639 354.639 347.039 355.017 346.885ZM355.664 347.206C355.635 347.259 355.543 347.32 355.454 347.326C355.414 347.332 355.381 347.317 355.358 347.29C355.264 347.169 355.125 346.886 355.123 346.881L355.106 346.842C355.316 346.689 355.441 346.658 355.457 346.679C355.541 346.789 355.705 347.137 355.664 347.206Z" fill="#727272"/>
<path d="M351.423 355.508C351.395 355.483 351.363 355.456 351.332 355.434C351.313 355.444 351.299 355.458 351.28 355.469C350.851 355.77 350.263 356.18 350.229 356.514C350.22 356.601 350.245 356.675 350.307 356.739C350.587 357.034 351.542 356.738 353.312 355.809C354.637 355.11 356.468 353.81 356.486 353.8C356.882 353.519 357.426 352.775 357.34 352.073C357.256 351.405 355.894 347.683 355.746 347.281C355.723 347.316 355.693 347.345 355.656 347.369C355.862 347.929 357.147 351.462 357.226 352.088C357.311 352.767 356.741 353.479 356.419 353.706C356.416 353.709 356.269 353.813 356.035 353.976C356.037 353.975 356.042 353.971 356.044 353.971L356.085 354.078C355.99 354.116 355.874 354.146 355.74 354.176C355.083 354.618 354.07 355.275 353.258 355.705C351.175 356.799 350.549 356.828 350.391 356.659C350.351 356.618 350.341 356.575 350.345 356.523C350.374 356.238 350.982 355.812 351.347 355.559C351.373 355.542 351.398 355.526 351.423 355.508Z" fill="#727272"/>
<path d="M355.75 347.281C355.745 347.269 355.741 347.257 355.741 347.252L355.633 347.293C355.635 347.299 355.645 347.324 355.662 347.369C355.696 347.345 355.727 347.316 355.75 347.281Z" fill="#727272"/>
<path d="M352.581 354.061C352.58 354.061 352.549 354.022 352.497 353.966C352.122 353.964 351.049 353.957 350.886 353.973C350.873 353.974 350.847 353.977 350.819 353.982C350.714 353.998 350.538 354.045 350.438 354.172C350.373 354.255 350.351 354.359 350.374 354.476C350.414 354.697 350.77 354.978 351.145 355.282C351.203 355.331 351.268 355.384 351.329 355.433C351.358 355.414 351.386 355.392 351.412 355.375L351.479 355.468C351.462 355.481 351.443 355.497 351.424 355.508C351.531 355.599 351.62 355.681 351.689 355.76C351.892 355.983 351.867 356.044 351.867 356.044L351.875 356.162C351.903 356.161 351.954 356.141 351.977 356.089C352.01 355.999 351.948 355.869 351.776 355.681C351.648 355.536 351.439 355.37 351.219 355.193C350.894 354.93 350.526 354.635 350.491 354.458C350.476 354.372 350.488 354.303 350.534 354.249C350.607 354.144 350.772 354.102 350.898 354.093C351.083 354.079 352.567 354.086 352.625 354.087L352.6 354.084L352.581 354.061Z" fill="#727272"/>
<path d="M352.624 353.963C352.615 353.963 352.566 353.961 352.496 353.963C352.55 354.02 352.58 354.053 352.581 354.055L352.598 354.077L352.623 354.079C352.624 354.079 352.629 354.079 352.629 354.079L352.624 353.963Z" fill="#727272"/>
<path d="M351.414 355.375C351.386 355.392 351.359 355.416 351.332 355.433C351.362 355.457 351.395 355.485 351.422 355.507C351.44 355.497 351.461 355.483 351.478 355.468L351.414 355.375Z" fill="#727272"/>
<path d="M355.737 354.178C355.847 354.102 355.948 354.033 356.038 353.973C355.102 354.328 352.107 354.263 351.122 354.245C350.857 354.236 350.803 354.236 350.784 354.238C350.777 354.238 350.775 354.243 350.774 354.245L350.794 354.298L350.802 354.357C350.822 354.354 350.953 354.362 351.121 354.364C352.009 354.379 354.544 354.433 355.737 354.178Z" fill="#727272"/>
<path d="M356.039 353.973C355.951 354.035 355.849 354.101 355.737 354.179C355.87 354.151 355.988 354.12 356.084 354.082L356.042 353.973C356.041 353.972 356.039 353.973 356.039 353.973Z" fill="#727272"/>
<path d="M340.089 353.092C340.124 353.018 340.13 352.935 340.099 352.854C340.049 352.717 339.909 352.632 339.763 352.655C339.741 352.658 339.722 352.664 339.705 352.67C339.628 352.697 339.566 352.753 339.533 352.827C339.496 352.901 339.491 352.983 339.522 353.061C339.578 353.217 339.753 353.303 339.914 353.246C339.992 353.221 340.054 353.165 340.089 353.092ZM339.985 353.042C339.964 353.084 339.925 353.123 339.877 353.138C339.869 353.144 339.853 353.147 339.843 353.147C339.754 353.162 339.663 353.11 339.633 353.024C339.616 352.975 339.621 352.925 339.642 352.878C339.665 352.832 339.7 352.797 339.75 352.78C339.852 352.743 339.956 352.797 339.992 352.894C340.008 352.944 340.005 352.997 339.985 353.042Z" fill="#727272"/>
<path d="M269.738 265.841C269.738 265.841 269.468 258.04 273.341 253.588C277.056 249.318 280.676 266.814 280.72 270.841C280.763 274.869 278.551 350.298 308.92 349.476C317.243 349.251 336.855 355.197 339.018 353.213" stroke="#727272" stroke-miterlimit="10" stroke-linecap="round"/>
<path d="M269.738 265.841C269.738 265.841 269.468 258.04 273.341 253.588C277.056 249.318 280.676 266.814 280.72 270.841C280.763 274.869 278.551 350.298 308.92 349.476C317.243 349.251 336.855 355.197 339.018 353.213" stroke="#727272" stroke-width="2" stroke-miterlimit="10" stroke-linecap="round" stroke-dasharray="1 3"/>
<path d="M264.984 249.924C264.984 249.924 264.687 251.743 264.299 252.294C263.912 252.846 263.602 254.713 263.464 255.289C263.326 255.863 262.781 257.196 262.548 260.112C262.424 261.646 262.402 262.636 262.426 263.227C262.414 263.64 262.391 264.043 262.352 264.115C262.269 264.265 262.061 265.086 262.092 265.228C262.122 265.371 262.092 265.902 262.092 265.902L262.063 266.24L262.874 266.466C262.874 266.466 263.375 266.496 263.816 266.466C264.254 266.434 264.805 266.371 265.141 266.241C265.479 266.11 264.931 265.4 264.868 265.149C264.805 264.899 264.724 264.674 264.711 264.378C264.698 264.081 264.606 263.999 264.465 263.849C264.344 263.723 264.49 262.96 264.536 262.726C264.538 262.716 264.544 262.694 264.55 262.655V262.655C264.643 262.205 265.131 259.855 265.167 259.481C265.205 259.064 266.205 256.3 266.255 255.76C266.306 255.219 266.553 254.649 266.553 254.649L267.2 253.577C267.2 253.577 267.241 252.7 267.298 252.537C267.355 252.373 264.984 249.924 264.984 249.924Z" fill="#FFCBA1"/>
<path d="M270.511 246.969C270.522 247.079 271.074 249.186 271.172 249.418C271.271 249.647 271.865 251.831 272.012 252.25C272.159 252.669 272.673 253.266 272.663 253.486C272.651 253.707 272.75 254.008 272.491 254.316C272.234 254.622 271.626 255.188 271.452 255.098C271.28 255.008 270.701 254.256 270.763 254.115C270.825 253.974 271.06 253.188 271.046 253.077C271.032 252.966 270.938 252.186 270.588 251.713C270.24 251.239 269.275 249.349 269.2 249.196C269.125 249.042 268.329 247.058 268.329 247.058L270.511 246.969Z" fill="#FFCBA1"/>
<path d="M269.605 252.905C269.605 252.905 270.977 254.796 270.957 255.345C270.937 255.895 270.91 256.859 270.817 257.505C270.725 258.15 270.625 259.885 270.559 260.237C270.493 260.587 270.406 261.61 270.349 262.558C270.293 263.505 270.312 264.492 270.312 264.492L270.712 264.934C270.712 264.934 271.592 265.345 272.035 265.684C272.477 266.024 273.104 266.206 273.22 266.23C273.337 266.253 273.63 266.634 273.648 266.845C273.664 267.054 273.701 267.058 273.109 267.112C272.516 267.167 270.538 266.795 270 266.817C269.463 266.842 269.058 266.813 268.511 266.793C267.963 266.773 267.712 266.675 267.569 266.461C267.425 266.245 267.958 264.473 267.945 264.43C267.945 264.43 268.476 262.433 268.283 262.186C268.09 261.939 267.86 257.781 268.148 257.252C268.435 256.721 268.317 256.074 268.317 256.074C268.317 256.074 268.219 256.049 268.084 256.004C267.811 255.911 265.89 253.486 265.83 253.209C265.74 252.794 266.27 252.59 266.27 252.59L269.605 252.905Z" fill="#FFCBA1"/>
<path d="M275.812 248.057C275.812 248.057 275.134 249.461 274.963 249.74C274.796 250.018 274.7 251.256 274.59 251.723C274.481 252.19 274.684 253.017 274.695 253.164C274.705 253.312 274.824 253.875 274.671 254.19C274.519 254.507 274.485 254.822 274.064 254.623C273.644 254.424 273.503 253.64 273.34 253.589C273.178 253.537 272.929 253.219 272.919 253.071C272.907 252.924 271.921 252.005 272.121 251.095C272.321 250.187 272.622 249.776 272.728 249.198C272.835 248.621 274.054 246.056 274.054 246.056L275.812 248.057Z" fill="#FFCBA1"/>
<path d="M275.622 241.756C275.662 241.775 276.69 242.039 276.867 242.059C277.045 242.077 277.607 242.105 277.665 242.116C277.722 242.127 278.088 242.033 278.312 241.969C278.534 241.905 279.303 241.588 279.47 241.626C279.636 241.665 280.909 241.839 280.918 241.87C280.928 241.901 281.631 242.684 281.642 242.754C281.651 242.823 282.109 243.966 282.051 244.272C281.995 244.576 281.494 245.544 281.379 245.634C281.264 245.724 280.631 246.096 280.502 246.111C280.373 246.123 279.729 246.111 279.634 246.177C279.539 246.242 279.467 246.228 279.393 246.177C279.319 246.126 279.288 246.007 279.188 246.064C279.087 246.121 278.974 246.16 278.848 246.235C278.721 246.309 278.389 246.513 278.327 246.518C278.266 246.521 278.233 246.557 278.15 246.435C278.067 246.314 278.014 246.237 278.014 246.237C278.014 246.237 277.75 246.13 277.692 246.154C277.634 246.182 277.369 246.163 277.284 246.169C277.199 246.177 276.644 245.977 276.605 245.939C276.567 245.902 276.482 245.668 276.484 245.578C276.485 245.489 276.597 245.006 276.597 245.006L276.692 244.648L276.309 244.404C276.309 244.404 276.089 244.416 276.04 244.437C275.991 244.458 275.869 244.611 275.759 244.646C275.65 244.679 275.328 244.913 275.328 244.913C275.328 244.913 274.779 244.099 274.701 243.836C274.621 243.573 275.355 242.002 275.355 242.002C275.355 242.002 275.614 241.686 275.618 241.72" fill="#FFCBA1"/>
<path d="M277.055 242.062L277.065 242.352L277.317 242.654C277.317 242.654 277.44 242.898 277.519 242.893C277.597 242.889 277.688 242.955 277.786 242.935C277.883 242.914 278.31 242.96 278.325 242.93C278.34 242.899 278.679 242.962 278.679 242.962C278.679 242.962 278.708 243.019 278.789 243.093C278.872 243.167 279.031 243.382 279.031 243.382L279.249 243.629C279.249 243.629 279.111 243.64 279.302 243.582C279.493 243.525 279.726 243.555 279.726 243.555L280.191 243.961C280.191 243.961 280.418 243.524 280.339 243.406C280.262 243.289 279.251 242.251 279.153 242.232C279.056 242.213 278.659 241.911 278.659 241.911C278.659 241.911 277.903 241.829 277.847 241.876C277.792 241.923 277.635 241.931 277.577 241.959C277.518 241.988 277.097 242.021 277.097 242.021" fill="#662F09"/>
<path d="M278.489 241.936L281.082 246.042C281.082 246.042 283.476 244.927 282.053 242.689C280.86 240.809 279.691 241.172 278.489 241.936Z" fill="#908DFF"/>
<path d="M282.698 248.167C282.66 248.194 282.615 248.2 282.589 248.16L280.98 245.92C280.952 245.881 280.963 245.831 281.002 245.803L281.047 245.774C281.087 245.745 281.14 245.756 281.169 245.795L282.773 248.029C282.8 248.068 282.782 248.107 282.744 248.136L282.698 248.167Z" fill="#908DFF"/>
<path d="M264.414 241.914C264.216 241.932 262.805 242.754 262.331 243.369C261.856 243.985 261.323 244.596 261.334 245.625C261.346 246.654 262.437 249.216 262.474 249.551C262.511 249.885 262.955 252.057 262.955 252.057C262.955 252.057 263.883 252.401 264.183 252.357C264.484 252.31 264.579 252.136 264.579 252.136C264.579 252.136 264.823 253.48 264.844 253.593C264.867 253.706 268.121 254.196 268.678 253.954C269.235 253.713 270.253 253.334 270.253 253.334L269.869 252.416C269.869 252.416 269.387 251.894 269.671 250.928C269.954 249.964 269.664 250.047 269.651 249.348C269.638 248.65 269.19 247.249 268.978 247.118C268.768 246.987 264.414 241.914 264.414 241.914Z" fill="#F7931E"/>
<path d="M263.939 241.649C264.062 241.624 270.243 238.28 273.21 239.551C276.179 240.822 277.118 241.316 277.139 242.088C277.16 242.86 277.369 244.313 277.432 244.538C277.495 244.765 276.978 247.727 276.978 247.727L276.713 248.509C276.713 248.509 276.262 248.285 275.963 248.439C275.663 248.594 275.306 248.561 275.306 248.561C275.306 248.561 273.48 246.956 273.637 246.788C273.794 246.621 272.58 247.863 271.792 247.826C271.003 247.789 269.533 247.392 269.284 247.516C269.035 247.64 268.005 247.689 267.981 247.54C267.956 247.391 266.507 246.007 266.507 246.007C266.507 246.007 266.07 244.717 265.897 244.444C265.726 244.172 264.169 242.372 264.045 242.139C263.925 241.905 263.939 241.649 263.939 241.649Z" fill="#FFF599"/>
<path d="M157.77 262.898C157.312 262.993 155.848 266.164 156.312 268.667C156.777 271.169 158.112 276.964 158.88 277.919C159.649 278.874 160.61 280.583 160.61 280.583C160.61 280.583 157.223 282.402 156.683 283.594C156.683 283.594 156.684 284.079 157.098 284.015C157.512 283.949 161.124 283.753 161.294 284.157C161.463 284.561 161.793 286.666 161.848 286.94C161.904 287.215 161.752 288.461 161.699 288.907C161.678 289.093 160.57 290.875 160.772 291.279C160.977 291.682 162.477 291.698 163.313 291.677C164.148 291.659 168.604 288.673 169.225 288.125C169.846 287.576 170.02 280.936 170.02 280.936C170.02 280.936 168.753 272.256 169.063 272.238C169.375 272.221 171.476 271.374 172.15 270.592C172.825 269.81 172.575 266.027 172.256 265.423C171.933 264.816 164.639 261.449 157.77 262.898Z" fill="#36627A"/>
<path d="M161.176 286.846C161.176 286.846 161.897 286.7 161.939 286.788C161.981 286.878 162.138 287.13 162.105 287.611C162.07 288.092 162.255 288.707 161.875 288.754C161.495 288.802 161.233 288.801 161.233 288.801C161.233 288.801 160.599 290.366 159.622 290.839C158.645 291.314 157.988 291.152 158.589 290.532C159.189 289.916 160.317 289.184 160.21 288.93C160.102 288.677 158.209 288.936 158.209 288.936L158.226 287.406C158.226 287.406 159.673 287.267 159.744 287.297C159.816 287.322 160.361 286.919 159.948 286.741C159.534 286.562 157.75 286.743 158.036 286.112C158.319 285.477 158.251 285.486 158.925 285.401C159.599 285.312 160.46 285.647 160.844 286.112C161.226 286.57 161.176 286.846 161.176 286.846Z" fill="#6C808C"/>
<path d="M199.572 281.754L192.765 276.056L164.2 274.435C173.116 272.598 190.009 269.916 215.174 268.367C233.254 267.256 248.403 267.137 255.409 267.492C268.149 268.138 276.721 267.399 278.897 267.175C278.526 267.41 277.984 267.776 277.654 268.083C277.405 268.314 277.185 268.63 276.875 269.063C276.256 269.944 275.306 271.214 273.213 273.19L273.004 273.379C259.02 280.191 240.064 282.197 226.451 282.588C212.025 283 200.18 281.818 199.572 281.754Z" fill="#FF0000"/>
<path d="M215.511 258.943C215.389 258.697 215.292 258.511 215.214 258.373C215.175 258.304 215.141 258.248 215.11 258.201C214.959 257.959 214.909 257.957 214.878 257.956L214.791 258.011C214.75 258.088 214.703 258.171 214.651 258.259C214.616 258.316 214.579 258.377 214.539 258.436C214.519 258.465 214.498 258.497 214.479 258.526C213.926 259.325 213.012 260.271 212.461 260.125C212.198 260.054 212.041 259.879 211.979 259.58C211.97 259.546 211.966 259.507 211.962 259.473C211.958 259.434 211.953 259.399 211.953 259.354C211.919 258.291 212.865 256.21 214.11 254.884C214.302 254.678 214.501 254.496 214.705 254.332C214.817 254.242 214.946 254.15 215.081 254.072C215.299 253.949 215.535 253.86 215.754 253.87C215.836 253.874 215.917 253.893 215.994 253.927C216.116 253.985 216.198 254.081 216.241 254.215C216.27 254.304 216.282 254.412 216.282 254.526C216.273 255.317 215.599 256.526 215.589 256.539L215.539 256.629L216.642 256.947L215.511 258.943ZM215.648 255.02C215.645 254.896 215.615 254.797 215.547 254.731C215.534 254.718 215.518 254.707 215.502 254.693C215.461 254.667 215.411 254.652 215.36 254.652C215.324 254.652 215.286 254.661 215.242 254.677C214.946 254.784 214.52 255.242 214.092 255.831L214.073 255.806L214.054 255.781L213.679 256.432C213.493 256.722 213.315 257.024 213.157 257.316C212.892 257.801 212.682 258.266 212.575 258.615C212.515 258.814 212.488 258.973 212.494 259.096C212.496 259.125 212.502 259.154 212.505 259.181C212.523 259.258 212.558 259.318 212.613 259.354C212.637 259.369 212.665 259.379 212.694 259.379C213.032 259.379 214.124 258.054 214.579 257.411C214.595 257.386 214.61 257.364 214.627 257.341C214.655 257.298 214.682 257.255 214.702 257.22C214.726 257.187 214.744 257.155 214.753 257.131C214.766 257.106 214.782 257.082 214.802 257.052C214.823 257.021 214.843 256.983 214.869 256.944C215.136 256.498 215.66 255.555 215.648 255.02Z" fill="black"/>
<path d="M225.868 255.39C225.431 255.449 223.9 255.698 222.571 255.951C222.486 255.965 222.402 255.981 222.319 256C222.276 256.008 222.233 256.017 222.191 256.025C222.008 256.061 221.832 256.099 221.665 256.132C221.613 256.143 221.561 256.157 221.511 256.171C221.384 256.197 221.265 256.228 221.151 256.259C221.106 256.271 221.063 256.284 221.02 256.296C221.011 256.298 220.999 256.301 220.987 256.306C220.577 256.395 218.243 256.94 217.894 257.546C217.885 257.567 217.873 257.583 217.868 257.604C217.663 258.188 217.165 261.464 217.083 262.194H215.688L215.2 260.96L215.388 259.208L215.461 259.174C215.456 259.164 215.452 259.158 215.451 259.148C215.444 259.14 215.442 259.131 215.44 259.123L216.649 256.997L216.668 257.002L216.692 256.926L216.709 256.895L216.738 256.84L218.545 253.038L218.822 252.942L219.1 252.845L219.912 248.411C219.952 248.411 220.007 248.41 220.077 248.41C220.55 248.41 222.131 248.423 222.587 248.597C222.966 248.739 224.796 252.772 225.868 255.39Z" fill="#3FA9F5"/>
<path d="M214.765 256.677C214.774 256.677 214.778 256.676 214.784 256.675C214.799 256.669 214.813 256.663 214.825 256.652C214.745 256.791 214.665 256.922 214.586 257.05C214.543 257.138 214.457 257.271 214.347 257.424C214.329 257.383 214.323 257.334 214.322 257.296C214.322 257.227 214.335 257.172 214.335 257.171L214.36 257.087L213.587 256.922L213.91 256.356C213.972 256.265 214.035 256.173 214.098 256.085C214.568 256.628 214.709 256.679 214.765 256.677Z" fill="black"/>
<path d="M214.804 257.05C214.784 257.082 214.767 257.109 214.755 257.131C214.744 257.155 214.726 257.185 214.703 257.221C214.682 257.255 214.655 257.295 214.628 257.339C214.614 257.364 214.598 257.384 214.58 257.41C214.126 258.058 213.034 259.378 212.695 259.378C212.667 259.378 212.637 259.37 212.615 259.353C212.559 259.316 212.526 259.261 212.508 259.18C212.501 259.156 212.498 259.126 212.497 259.095C212.49 258.971 212.518 258.813 212.577 258.615C212.685 258.266 212.896 257.801 213.16 257.316C213.318 257.024 213.498 256.721 213.681 256.432L214.056 255.782L214.076 255.806L214.094 255.831C214.522 255.242 214.948 254.785 215.245 254.676C215.287 254.662 215.326 254.651 215.363 254.651C215.417 254.651 215.464 254.665 215.504 254.693C215.521 254.702 215.536 254.718 215.55 254.731C215.618 254.799 215.648 254.899 215.651 255.019C215.661 255.555 215.14 256.494 214.871 256.939C214.846 256.984 214.823 257.02 214.804 257.05ZM212.719 258.665C212.591 259.085 212.644 259.19 212.667 259.211C212.938 259.161 213.754 258.225 214.24 257.567C214.151 257.45 214.151 257.304 214.159 257.213L213.466 257.067C213.136 257.633 212.855 258.212 212.719 258.665ZM213.91 256.359L213.587 256.924L214.36 257.089L214.335 257.173C214.334 257.174 214.32 257.23 214.321 257.297C214.321 257.339 214.331 257.386 214.347 257.426C214.454 257.27 214.541 257.138 214.586 257.051C214.664 256.927 214.744 256.793 214.825 256.652C214.814 256.662 214.799 256.671 214.783 256.676C214.778 256.677 214.774 256.679 214.764 256.679C214.708 256.681 214.568 256.629 214.097 256.087C214.035 256.174 213.972 256.265 213.91 256.359ZM215.411 254.829C215.397 254.819 215.381 254.815 215.361 254.815C215.133 254.815 214.676 255.295 214.199 255.95C214.404 256.186 214.634 256.424 214.735 256.496C214.793 256.411 214.898 256.378 214.986 256.368C215.35 255.682 215.628 254.973 215.411 254.829Z" fill="black"/>
<path d="M163.75 273.254L163.788 273.229L163.76 270.976L165.167 270.116L171.323 270.224L171.337 270.216L173.886 269.27L173.995 264.01L178.594 262.887L188.435 262.86L188.954 261.908L197.289 261.445L197.343 260.599L199.076 260.424L198.919 260.3C198.917 260.296 198.675 260.104 198.68 259.866C198.686 259.729 198.771 259.599 198.943 259.479C199.07 259.389 199.441 259.284 200.487 259.284C201.449 259.284 202.623 259.372 203.48 259.434C203.902 259.464 204.237 259.491 204.433 259.495C205.017 259.514 205.668 259.954 206.02 260.356C206.238 260.602 206.353 260.842 206.337 261.014C206.286 261.558 206.198 261.688 205.806 261.763L205.829 261.936L211.584 261.39L215.137 261.053L215.622 262.301H217.161L217.169 262.115C217.178 262.074 217.745 258.147 217.957 257.537C218.123 257.059 220.207 256.503 220.995 256.328C222.387 255.94 225.29 255.53 225.826 255.459L225.834 255.479L225.893 255.47C225.894 255.47 226.007 255.461 226.165 255.461C226.611 255.461 226.936 255.534 227.08 255.667C227.238 255.813 227.239 256.104 227.241 256.384C227.242 256.628 227.243 256.858 227.333 257.028C227.522 257.379 229.138 260.111 229.207 260.228L229.232 260.267L229.272 260.27C229.511 260.284 252.955 261.67 258.186 262.313C258.591 262.362 259.054 262.41 259.561 262.48C267.476 263.595 278.563 265.733 278.563 265.733C279.422 265.747 279.76 266.017 279.789 266.244C279.818 266.451 279.601 266.664 279.244 266.766C279.236 266.774 278.996 266.892 278.669 267.087C277.233 267.244 268.554 268.103 254.996 267.416C247.986 267.061 232.814 267.201 214.729 268.313C188.962 269.903 173.06 272.439 164.258 274.282L163.873 274.364C163.142 274.354 162.883 274.279 162.849 274.239C162.838 274.215 162.821 274.198 162.805 274.173C162.768 274.122 162.749 274.096 162.756 274.052C162.788 273.924 163.111 273.657 163.75 273.254Z" fill="white" stroke="white" stroke-miterlimit="10"/>
<path d="M199.352 281.815L199.377 281.819C199.476 281.828 207.923 282.71 219.558 282.71C221.574 282.71 223.683 282.684 225.857 282.621C239.412 282.234 258.464 280.357 272.453 273.622C272.412 273.657 272.378 273.69 272.345 273.724C271.864 274.169 271.383 274.642 270.874 275.144C267.661 278.308 263.661 282.246 253.343 285.246C250.97 285.936 248.429 286.259 245.343 286.259C242.699 286.259 239.988 286.185 237.118 285.937C233.965 285.666 230.711 285.385 227.227 285.385C226.691 285.385 226.159 285.393 225.639 285.406C225.116 285.419 224.503 285.428 223.818 285.428C210.251 285.428 168.925 282.589 167.21 282.479L164.145 274.633L192.564 276.123L199.352 281.815Z" fill="white" stroke="white" stroke-miterlimit="10"/>
<path d="M207.371 261.714C207.371 261.714 206.822 261.079 206.943 260.324C207.063 259.573 207.231 259.188 207.693 259.058C208.154 258.926 208.778 258.866 208.905 258.93C209.033 258.996 210.589 259.614 210.944 259.735C211.3 259.86 212.27 260.501 212.289 260.797C212.308 261.092 212.364 261.186 212.487 261.478C212.606 261.766 212.789 263.069 212.789 263.069L210.444 263.327C210.444 263.327 210.469 262.414 210.298 262.348C210.124 262.286 207.833 262.052 207.679 261.962C207.523 261.877 207.371 261.714 207.371 261.714Z" fill="#996234"/>
<path d="M198.687 258.058C198.687 258.058 198.564 256.897 198.514 256.897C198.466 256.897 200.142 256.798 200.539 256.502C201.034 256.131 203.75 256.156 203.75 256.156L205.555 257.81L207.635 259.375C207.635 259.375 207.038 261.343 206.741 261.343C206.6 261.343 205.117 259.999 203.778 259.96C202.283 259.917 202.172 260.774 202.518 262.627C202.584 262.977 199.43 260.874 199.43 260.874C199.43 260.874 198.835 260.429 198.688 259.637C198.54 258.848 198.687 258.058 198.687 258.058Z" fill="#EF45B7"/>
<path d="M202.268 246.152C202.343 246.177 202.886 245.51 202.862 245.288C202.837 245.064 202.616 244.917 202.566 244.917C202.517 244.917 201.997 244.3 202.268 244.028C202.541 243.757 201.675 242.645 201.997 242.101C202.318 241.56 202.713 240.719 203.454 240.422C204.195 240.126 204.664 239.88 205.034 240.176C205.406 240.473 206.294 241.312 206.319 241.633C206.344 241.955 206.492 242.571 206.319 243.239C206.146 243.906 206.146 244.005 206.121 244.72C206.096 245.436 205.775 245.882 205.553 246.154C205.329 246.427 205.429 246.795 205.01 246.894C204.59 246.993 205.108 247.661 204.911 247.907C204.713 248.153 202.392 247.536 202.44 246.572C202.465 246.119 202.268 246.152 202.268 246.152Z" fill="#996234"/>
<path d="M202.343 245.189C202.343 245.189 201.923 245.189 201.972 244.843C202.021 244.497 202.113 243.905 201.968 243.756C201.824 243.61 201.379 243.336 201.528 242.917C201.676 242.497 201.85 242.249 201.751 241.854C201.652 241.459 201.751 241.138 202.072 240.941C202.394 240.743 202.644 240.793 203.013 240.62C203.384 240.447 203.681 240.026 204.097 239.952C204.517 239.878 205.011 239.581 205.357 239.952C205.703 240.323 205.951 240.323 206.049 240.568C206.148 240.815 206.024 240.544 206.172 241.137C206.321 241.731 206.617 241.853 206.419 242.174C206.222 242.496 206.049 241.902 205.876 241.878C205.704 241.853 205.802 241.581 205.333 241.878C204.864 242.174 205.036 242.076 204.346 241.927C203.653 241.779 203.283 241.384 203.074 242.099C202.864 242.815 202.985 242.693 203.074 243.261C203.161 243.83 203.074 244.076 203.074 244.076C203.074 244.076 203.037 243.804 202.766 243.853C202.494 243.902 202.444 243.952 202.469 244.248C202.494 244.546 202.641 244.89 202.593 244.99C202.54 245.09 202.343 245.189 202.343 245.189Z" fill="#301705"/>
<path d="M205.752 250.82C205.752 250.82 207.382 253.487 207.801 253.735C208.221 253.982 209.086 254.476 209.407 254.549C209.728 254.624 211.753 254.945 212.618 254.895C213.483 254.846 213.63 254.584 213.953 254.901C214.274 255.22 214.422 255.438 214.546 255.192C214.669 254.945 214.594 254.895 214.546 254.524C214.497 254.154 214.546 253.956 214.892 253.908C215.236 253.858 215.765 254.253 215.624 253.809C215.484 253.364 215.534 253.166 214.965 253.216C214.396 253.264 214.297 253.685 213.902 253.733C213.507 253.782 213.334 253.782 212.642 253.684C211.95 253.586 209.999 252.424 209.58 252.4C209.16 252.375 209.135 252.055 208.865 251.783C208.592 251.511 207.506 250.178 207.506 250.178" fill="#996234"/>
<path d="M198.514 252.179C198.613 250.797 199.108 248.598 199.947 247.636C200.787 246.672 201.033 246.697 201.652 246.425C202.268 246.154 202.591 246.228 202.591 246.228C202.591 246.228 202.623 247.215 203.126 247.389C203.629 247.562 204.815 247.884 204.889 247.686C204.962 247.488 204.79 247.365 204.938 247.19C205.085 247.017 205.333 246.549 205.506 246.648C205.678 246.747 206.544 247.092 206.642 247.537C206.741 247.982 206.84 248.575 207.087 248.92C207.334 249.265 207.482 249.809 207.482 249.809C207.482 249.809 207.556 250.007 207.63 250.229C207.704 250.451 206.988 250.426 206.519 251.339C206.05 252.252 205.531 250.821 205.531 250.821C205.531 250.821 206.1 250.45 205.58 251.241C205.58 251.241 204.789 252.452 204.74 252.624C204.692 252.797 204.493 253.241 204.518 253.687C204.543 254.132 204.789 254.6 204.74 255.07C204.692 255.539 204.75 255.959 204.164 256.181C203.581 256.404 202.939 256.354 202.221 256.427C201.505 256.501 200.622 256.462 200.295 256.749C199.969 257.034 199.654 256.798 199.257 256.896C198.862 256.995 198.837 257.242 198.516 256.896C198.195 256.551 198.706 255.464 198.624 255.217C198.542 254.97 198.327 254.426 198.41 253.611C198.489 252.796 198.514 252.179 198.514 252.179Z" fill="#8BC7E8"/>
<path d="M201.37 253.845C201.37 253.845 201.892 255.567 202.186 255.896C202.48 256.223 202.951 256.983 203.199 257.277C203.448 257.571 205.659 259.836 205.924 260.035C206.191 260.232 207.472 261.36 207.472 261.36L209.291 261.152C209.291 261.152 208.088 259.863 207.496 259.233C206.904 258.601 204.946 256.178 204.834 255.961C204.722 255.739 204.085 255.078 203.913 254.769C203.741 254.464 203.712 253.831 203.57 253.255C203.428 252.679 203.183 251.934 203.183 251.934C203.183 251.934 200.899 251.662 200.829 252.199C200.76 252.736 201.37 253.845 201.37 253.845Z" fill="#996234"/>
<path d="M202.565 262.602C202.565 262.602 202.063 261.927 202.235 261.186C202.408 260.445 202.606 260.074 203.073 259.976C203.543 259.877 204.17 259.861 204.294 259.934C204.417 260.008 205.925 260.734 206.27 260.882C206.615 261.03 207.536 261.738 207.536 262.034C207.536 262.331 207.585 262.429 207.684 262.726C207.783 263.023 207.907 263.863 207.907 263.863L205.534 264.114C205.534 264.114 205.605 263.517 205.438 263.443C205.267 263.369 203 262.974 202.851 262.875C202.704 262.776 202.565 262.602 202.565 262.602Z" fill="#996234"/>
<path d="M180.245 260.5C180.245 260.5 180.517 261.449 180.341 262.619C180.165 263.787 180.127 264.788 180.557 265.155C180.986 265.522 180.561 266.247 180.977 266.342C181.247 266.403 185.515 265.841 185.861 265.935C186.209 266.029 187.339 265.758 187.515 265.861C187.691 265.963 189.167 265.734 189.397 265.775C189.628 265.817 189.492 265.364 189.718 265.27C189.942 265.175 190.353 264.127 190.353 264.127L190.332 263.689L189.717 262.727L189.394 261.859L189.099 261.686C189.099 261.686 188.921 261.555 188.796 261.279C188.669 261.002 188.595 260.633 188.525 260.336C188.455 260.041 188.405 259.562 188.166 259.67C187.927 259.78 180.245 260.5 180.245 260.5Z" fill="#32417F"/>
<path d="M176.666 253.847C176.666 253.847 176.377 257.99 176.425 258.101C176.473 258.212 176.336 259.061 176.093 260.246C175.849 261.433 175.905 264.439 175.93 264.728C175.956 265.017 175.856 265.628 175.863 265.706C175.87 265.782 175.567 266.1 175.339 266.374C175.111 266.646 175.358 266.585 175.358 266.585C175.358 266.585 175.66 266.695 175.856 266.734C176.054 266.774 176.73 266.735 176.951 266.81C177.172 266.888 178.492 266.674 178.589 266.664C178.685 266.657 178.864 266.485 178.845 266.274C178.826 266.06 178.56 265.91 178.56 265.91L177.718 265.617C177.718 265.617 177.696 265.153 177.666 265.039C177.637 264.926 178.31 262.903 178.348 262.239C178.386 261.575 178.473 261.237 178.397 260.837C178.323 260.436 178.343 259.365 178.355 259.287C178.368 259.208 178.594 257.828 178.738 257.485C178.882 257.142 178.573 254.781 178.584 254.683L176.666 253.847Z" fill="#FFCBA1"/>
<path d="M189.828 252.921C189.828 252.921 191.217 256.292 191.345 256.437C191.474 256.58 192.137 258.113 192.292 258.333C192.447 258.551 194.2 264.474 194.266 264.544C194.33 264.617 194.752 264.773 194.852 264.804C194.951 264.833 195.039 265.388 195.039 265.388L193.652 265.513L192.53 265.613C192.53 265.613 192.361 265.629 192.11 265.651C191.86 265.673 191.718 265.608 191.672 265.539C191.627 265.47 191.785 265.06 191.876 264.992C191.967 264.926 192.224 264.767 192.371 264.657C192.517 264.548 192.361 264.327 192.312 264.003C192.264 263.677 191.894 262.796 191.678 262.332C191.462 261.868 190.64 260.287 190.622 260.076C190.602 259.863 190.156 258.563 190.02 258.342C189.883 258.122 190.02 258.342 189.78 258.053C189.54 257.764 187.936 254.586 187.936 254.586L189.682 253.265L189.828 252.921Z" fill="#FFCBA1"/>
<path d="M190.487 253.132C190.496 253.228 190.141 253.611 189.972 253.683C189.805 253.756 188.993 254.237 188.867 254.345C188.74 254.453 188.265 255.001 188.258 255.138C188.251 255.274 188.201 256.017 188.209 256.094C188.216 256.171 188.614 257.806 188.705 257.952C188.795 258.098 188.856 259.861 188.842 260.133C188.827 260.407 188.922 262.309 188.417 262.314C187.913 262.321 185.953 262.555 185.542 262.514C185.131 262.473 182.87 263.045 182.604 263.107C182.338 263.17 180.44 263.009 180.151 262.609C179.863 262.208 179.442 259.052 179.441 258.819C179.44 258.586 179.15 256.224 179.15 256.224C179.15 256.224 178.984 255.015 178.905 255.003C178.827 254.991 177.891 254.957 177.279 254.837C176.666 254.717 176.318 254.515 176.318 254.515C176.318 254.515 176.23 253.98 176.261 253.881C176.29 253.78 176.831 250.917 177.021 250.22C177.21 249.523 180.177 248.597 180.346 248.524C180.514 248.451 184.016 247.866 184.249 247.864C184.482 247.864 186.626 248.603 187.065 248.738C187.504 248.874 188.919 249.272 189.461 250.116C190.001 250.961 190.415 252.983 190.479 253.036C190.479 253.036 190.478 253.036 190.487 253.132Z" fill="#FFFEF8"/>
<path d="M184.262 248.037C184.262 248.037 184.162 248.43 183.993 248.739C182.858 249.402 182.501 248.929 181.776 248.838C181.049 248.749 181.104 247.893 181.14 247.638C181.174 247.382 180.978 244.971 180.978 244.526C180.976 244.079 181.539 241.465 183.659 241.935C185.778 242.407 185.261 244.861 185.261 244.861C184.819 247.755 184.262 248.037 184.262 248.037Z" fill="#FFCBA1"/>
<path d="M182.122 247.643C182.122 247.643 181.043 247.784 180.758 246.55C180.475 245.317 180.708 245.421 180.649 244.109C180.589 242.798 179.217 242.508 181.159 241.968C183.099 241.428 184.534 240.734 184.807 241.522C185.081 242.31 185.366 242.641 185.262 242.93C185.156 243.22 185.358 243.673 185.336 243.956C185.316 244.239 184.967 245.059 184.967 245.059C184.967 245.059 184.162 245.323 184.155 245.496C184.148 245.668 183.867 246.058 183.889 246.412C183.912 246.764 184.359 246.832 183.92 247.093C183.481 247.355 183.102 247.602 183.102 247.602L182.122 247.643Z" fill="#9E5A2D"/>
<path opacity="0.6" d="M-4.56396 277.082H376.704L377.172 376.14H-4.09615L-4.56396 277.082Z" fill="#33EFFF"/>
<path d="M377.005 352.74C362.035 355.446 352.824 354.773 342.145 354.736C332.641 354.724 328.994 353.189 312.304 351.922C301.995 351.612 293.897 351.556 282.978 352.112C275.03 352.515 256.752 353.466 248.539 352.186C227.734 348.197 193.359 348.813 175.503 351.573C157.646 354.334 165.356 349.874 153.993 350.298C142.629 350.718 144.454 352.422 138.773 350.932C133.092 349.446 131.719 346.446 126.877 347.302C126.329 347.629 121.199 352.469 109.042 346.096C104.781 343.862 89.1167 346.146 86.0839 346.096C83.0703 346.047 41.7687 349.182 37.9132 346.208C33.4676 343.598 17.8765 343.662 13.4117 346.208C8.94731 348.764 -7.82925 348.186 -7.82925 348.186L-7.13785 376.729L377.172 377.755L377.005 352.74Z" fill="#D8BD80"/>
<path opacity="0.5" d="M166.593 289.683C167.21 289.683 167.709 289.184 167.709 288.567C167.709 287.951 167.21 287.451 166.593 287.451C165.977 287.451 165.477 287.951 165.477 288.567C165.477 289.184 165.977 289.683 166.593 289.683Z" fill="white"/>
<path opacity="0.5" d="M170.024 285.169C170.446 285.169 170.789 284.826 170.789 284.404C170.789 283.981 170.446 283.639 170.024 283.639C169.601 283.639 169.259 283.981 169.259 284.404C169.259 284.826 169.601 285.169 170.024 285.169Z" fill="white"/>
<path opacity="0.5" d="M177.391 287.221C177.913 287.221 178.336 286.798 178.336 286.276C178.336 285.754 177.913 285.331 177.391 285.331C176.869 285.331 176.446 285.754 176.446 286.276C176.446 286.798 176.869 287.221 177.391 287.221Z" fill="white"/>
<path opacity="0.5" d="M162.326 289.335C162.942 289.335 163.442 288.835 163.442 288.219C163.442 287.603 162.942 287.104 162.326 287.104C161.71 287.104 161.21 287.603 161.21 288.219C161.21 288.835 161.71 289.335 162.326 289.335Z" fill="white"/>
<path opacity="0.5" d="M175.467 292.036C176.084 292.036 176.583 291.536 176.583 290.92C176.583 290.304 176.084 289.805 175.467 289.805C174.851 289.805 174.352 290.304 174.352 290.92C174.352 291.536 174.851 292.036 175.467 292.036Z" fill="white"/>
<path opacity="0.5" d="M174.79 286.093C175.406 286.093 175.906 285.593 175.906 284.977C175.906 284.361 175.406 283.861 174.79 283.861C174.174 283.861 173.674 284.361 173.674 284.977C173.674 285.593 174.174 286.093 174.79 286.093Z" fill="white"/>
<path opacity="0.5" d="M171.399 289.642C172.016 289.642 172.515 289.143 172.515 288.526C172.515 287.91 172.016 287.41 171.399 287.41C170.783 287.41 170.283 287.91 170.283 288.526C170.283 289.143 170.783 289.642 171.399 289.642Z" fill="white"/>
<path opacity="0.3" d="M162.848 290.962C163.465 290.962 163.964 290.462 163.964 289.846C163.964 289.229 163.465 288.729 162.848 288.729C162.232 288.729 161.732 289.229 161.732 289.846C161.732 290.462 162.232 290.962 162.848 290.962Z" fill="white"/>
<path opacity="0.5" d="M163.471 286.791C163.813 286.791 164.091 286.514 164.091 286.171C164.091 285.829 163.813 285.552 163.471 285.552C163.129 285.552 162.851 285.829 162.851 286.171C162.851 286.514 163.129 286.791 163.471 286.791Z" fill="white"/>
<path opacity="0.5" d="M162.035 288.263C162.377 288.263 162.655 287.985 162.655 287.643C162.655 287.301 162.377 287.023 162.035 287.023C161.693 287.023 161.415 287.301 161.415 287.643C161.415 287.985 161.693 288.263 162.035 288.263Z" fill="white"/>
<path opacity="0.5" d="M166.106 286.283C166.448 286.283 166.726 286.006 166.726 285.664C166.726 285.321 166.448 285.044 166.106 285.044C165.764 285.044 165.486 285.321 165.486 285.664C165.486 286.006 165.764 286.283 166.106 286.283Z" fill="white"/>
<path opacity="0.5" d="M167.457 285.254C167.8 285.254 168.077 284.977 168.077 284.634C168.077 284.292 167.8 284.015 167.457 284.015C167.115 284.015 166.838 284.292 166.838 284.634C166.838 284.977 167.115 285.254 167.457 285.254Z" fill="white"/>
<path opacity="0.5" d="M173.533 292.827C173.875 292.827 174.153 292.55 174.153 292.208C174.153 291.865 173.875 291.588 173.533 291.588C173.191 291.588 172.913 291.865 172.913 292.208C172.913 292.55 173.191 292.827 173.533 292.827Z" fill="white"/>
<path opacity="0.5" d="M173.869 288.509C174.211 288.509 174.489 288.231 174.489 287.889C174.489 287.547 174.211 287.27 173.869 287.27C173.527 287.27 173.249 287.547 173.249 287.889C173.249 288.231 173.527 288.509 173.869 288.509Z" fill="white"/>
<path opacity="0.5" d="M168.795 287.449C169.138 287.449 169.415 287.172 169.415 286.83C169.415 286.487 169.138 286.21 168.795 286.21C168.453 286.21 168.176 286.487 168.176 286.83C168.176 287.172 168.453 287.449 168.795 287.449Z" fill="white"/>
<path opacity="0.5" d="M169.709 291.898C170.052 291.898 170.329 291.62 170.329 291.278C170.329 290.936 170.052 290.658 169.709 290.658C169.367 290.658 169.09 290.936 169.09 291.278C169.09 291.62 169.367 291.898 169.709 291.898Z" fill="white"/>
<path opacity="0.5" d="M164.288 289.588C164.451 289.588 164.583 289.455 164.583 289.292C164.583 289.129 164.451 288.997 164.288 288.997C164.125 288.997 163.992 289.129 163.992 289.292C163.992 289.455 164.125 289.588 164.288 289.588Z" fill="white"/>
<path opacity="0.5" d="M168.687 289.493C168.85 289.493 168.982 289.361 168.982 289.198C168.982 289.035 168.85 288.902 168.687 288.902C168.524 288.902 168.392 289.035 168.392 289.198C168.392 289.361 168.524 289.493 168.687 289.493Z" fill="white"/>
<path opacity="0.5" d="M172.077 285.611C172.24 285.611 172.372 285.479 172.372 285.316C172.372 285.153 172.24 285.021 172.077 285.021C171.913 285.021 171.781 285.153 171.781 285.316C171.781 285.479 171.913 285.611 172.077 285.611Z" fill="white"/>
<path opacity="0.5" d="M164.569 288.054C164.731 288.054 164.863 287.922 164.863 287.759C164.863 287.596 164.731 287.464 164.569 287.464C164.406 287.464 164.274 287.596 164.274 287.759C164.274 287.922 164.406 288.054 164.569 288.054Z" fill="white"/>
<path opacity="0.5" d="M159.776 288.974C159.939 288.974 160.071 288.842 160.071 288.68C160.071 288.517 159.939 288.385 159.776 288.385C159.613 288.385 159.481 288.517 159.481 288.68C159.481 288.842 159.613 288.974 159.776 288.974Z" fill="white"/>
<path opacity="0.5" d="M159.561 287.205C159.725 287.205 159.857 287.073 159.857 286.91C159.857 286.746 159.725 286.614 159.561 286.614C159.398 286.614 159.266 286.746 159.266 286.91C159.266 287.073 159.398 287.205 159.561 287.205Z" fill="white"/>
<path opacity="0.5" d="M160.971 287.063C161.134 287.063 161.266 286.931 161.266 286.768C161.266 286.605 161.134 286.473 160.971 286.473C160.808 286.473 160.676 286.605 160.676 286.768C160.676 286.931 160.808 287.063 160.971 287.063Z" fill="white"/>
<path opacity="0.5" d="M165.505 291.22C165.668 291.22 165.8 291.087 165.8 290.924C165.8 290.761 165.668 290.629 165.505 290.629C165.342 290.629 165.209 290.761 165.209 290.924C165.209 291.087 165.342 291.22 165.505 291.22Z" fill="white"/>
<path opacity="0.5" d="M172.814 283.542C172.977 283.542 173.109 283.41 173.109 283.246C173.109 283.083 172.977 282.951 172.814 282.951C172.651 282.951 172.519 283.083 172.519 283.246C172.519 283.41 172.651 283.542 172.814 283.542Z" fill="white"/>
<path opacity="0.5" d="M176.563 284.009C176.726 284.009 176.858 283.876 176.858 283.713C176.858 283.55 176.726 283.418 176.563 283.418C176.4 283.418 176.268 283.55 176.268 283.713C176.268 283.876 176.4 284.009 176.563 284.009Z" fill="white"/>
<path opacity="0.5" d="M164.695 285.274C164.858 285.274 164.991 285.142 164.991 284.979C164.991 284.816 164.858 284.684 164.695 284.684C164.532 284.684 164.4 284.816 164.4 284.979C164.4 285.142 164.532 285.274 164.695 285.274Z" fill="white"/>
<path opacity="0.5" d="M160.98 289.233C161.143 289.233 161.275 289.101 161.275 288.938C161.275 288.776 161.143 288.644 160.98 288.644C160.817 288.644 160.685 288.776 160.685 288.938C160.685 289.101 160.817 289.233 160.98 289.233Z" fill="white"/>
<path opacity="0.5" d="M162.02 286.104C162.194 286.104 162.335 285.963 162.335 285.789C162.335 285.615 162.194 285.474 162.02 285.474C161.846 285.474 161.705 285.615 161.705 285.789C161.705 285.963 161.846 286.104 162.02 286.104Z" fill="white"/>
<path opacity="0.2" d="M173.733 290.007C174.928 290.007 175.897 289.038 175.897 287.843C175.897 286.648 174.928 285.679 173.733 285.679C172.538 285.679 171.569 286.648 171.569 287.843C171.569 289.038 172.538 290.007 173.733 290.007Z" fill="white"/>
<path opacity="0.1" d="M169.664 290.494C171.411 290.494 172.828 289.078 172.828 287.33C172.828 285.583 171.411 284.166 169.664 284.166C167.916 284.166 166.499 285.583 166.499 287.33C166.499 289.078 167.916 290.494 169.664 290.494Z" fill="white"/>
<path opacity="0.1" d="M162.919 291.468C164.666 291.468 166.083 290.051 166.083 288.304C166.083 286.556 164.666 285.14 162.919 285.14C161.171 285.14 159.755 286.556 159.755 288.304C159.755 290.051 161.171 291.468 162.919 291.468Z" fill="white"/>
<path opacity="0.1" d="M166.15 290.077C167.897 290.077 169.314 288.661 169.314 286.913C169.314 285.166 167.897 283.749 166.15 283.749C164.402 283.749 162.986 285.166 162.986 286.913C162.986 288.661 164.402 290.077 166.15 290.077Z" fill="white"/>
<path opacity="0.1" d="M174.945 288.559C176.692 288.559 178.109 287.142 178.109 285.395C178.109 283.647 176.692 282.23 174.945 282.23C173.197 282.23 171.781 283.647 171.781 285.395C171.781 287.142 173.197 288.559 174.945 288.559Z" fill="white"/>
<path opacity="0.1" d="M176.46 292.779C178.207 292.779 179.624 291.363 179.624 289.615C179.624 287.868 178.207 286.451 176.46 286.451C174.712 286.451 173.296 287.868 173.296 289.615C173.296 291.363 174.712 292.779 176.46 292.779Z" fill="white"/>
<path opacity="0.1" d="M169.294 294.111C171.042 294.111 172.459 292.695 172.459 290.947C172.459 289.2 171.042 287.783 169.294 287.783C167.547 287.783 166.13 289.2 166.13 290.947C166.13 292.695 167.547 294.111 169.294 294.111Z" fill="white"/>
<path opacity="0.1" d="M173.057 294.283C174.804 294.283 176.221 292.867 176.221 291.119C176.221 289.372 174.804 287.955 173.057 287.955C171.309 287.955 169.893 289.372 169.893 291.119C169.893 292.867 171.309 294.283 173.057 294.283Z" fill="white"/>
<path opacity="0.5" d="M181.811 289.908C182.721 289.908 183.458 289.17 183.458 288.26C183.458 287.351 182.721 286.613 181.811 286.613C180.901 286.613 180.164 287.351 180.164 288.26C180.164 289.17 180.901 289.908 181.811 289.908Z" fill="white"/>
<path opacity="0.5" d="M186.874 283.245C187.498 283.245 188.003 282.739 188.003 282.116C188.003 281.492 187.498 280.986 186.874 280.986C186.251 280.986 185.745 281.492 185.745 282.116C185.745 282.739 186.251 283.245 186.874 283.245Z" fill="white"/>
<path opacity="0.5" d="M197.748 286.274C198.519 286.274 199.143 285.65 199.143 284.879C199.143 284.109 198.519 283.484 197.748 283.484C196.978 283.484 196.353 284.109 196.353 284.879C196.353 285.65 196.978 286.274 197.748 286.274Z" fill="white"/>
<path opacity="0.5" d="M197.536 296.685C198.446 296.685 199.183 295.948 199.183 295.038C199.183 294.128 198.446 293.391 197.536 293.391C196.626 293.391 195.889 294.128 195.889 295.038C195.889 295.948 196.626 296.685 197.536 296.685Z" fill="white"/>
<path opacity="0.5" d="M194.908 293.381C195.818 293.381 196.555 292.644 196.555 291.734C196.555 290.824 195.818 290.087 194.908 290.087C193.998 290.087 193.261 290.824 193.261 291.734C193.261 292.644 193.998 293.381 194.908 293.381Z" fill="white"/>
<path opacity="0.5" d="M193.909 284.608C194.818 284.608 195.556 283.87 195.556 282.961C195.556 282.051 194.818 281.313 193.909 281.313C192.999 281.313 192.261 282.051 192.261 282.961C192.261 283.87 192.999 284.608 193.909 284.608Z" fill="white"/>
<path opacity="0.5" d="M188.904 289.847C189.814 289.847 190.551 289.11 190.551 288.2C190.551 287.29 189.814 286.553 188.904 286.553C187.994 286.553 187.257 287.29 187.257 288.2C187.257 289.11 187.994 289.847 188.904 289.847Z" fill="white"/>
<path opacity="0.3" d="M176.283 291.795C177.193 291.795 177.93 291.058 177.93 290.148C177.93 289.238 177.193 288.501 176.283 288.501C175.373 288.501 174.636 289.238 174.636 290.148C174.636 291.058 175.373 291.795 176.283 291.795Z" fill="white"/>
<path opacity="0.5" d="M177.201 285.638C177.706 285.638 178.116 285.228 178.116 284.723C178.116 284.218 177.706 283.809 177.201 283.809C176.696 283.809 176.287 284.218 176.287 284.723C176.287 285.228 176.696 285.638 177.201 285.638Z" fill="white"/>
<path opacity="0.5" d="M175.082 287.811C175.587 287.811 175.997 287.401 175.997 286.896C175.997 286.391 175.587 285.981 175.082 285.981C174.577 285.981 174.168 286.391 174.168 286.896C174.168 287.401 174.577 287.811 175.082 287.811Z" fill="white"/>
<path opacity="0.5" d="M181.092 284.888C181.597 284.888 182.007 284.478 182.007 283.973C182.007 283.468 181.597 283.059 181.092 283.059C180.587 283.059 180.178 283.468 180.178 283.973C180.178 284.478 180.587 284.888 181.092 284.888Z" fill="white"/>
<path opacity="0.5" d="M183.086 283.369C183.591 283.369 184.001 282.96 184.001 282.455C184.001 281.949 183.591 281.54 183.086 281.54C182.581 281.54 182.172 281.949 182.172 282.455C182.172 282.96 182.581 283.369 183.086 283.369Z" fill="white"/>
<path opacity="0.5" d="M192.054 294.548C192.559 294.548 192.968 294.138 192.968 293.633C192.968 293.128 192.559 292.719 192.054 292.719C191.549 292.719 191.139 293.128 191.139 293.633C191.139 294.138 191.549 294.548 192.054 294.548Z" fill="white"/>
<path opacity="0.5" d="M192.549 288.173C193.054 288.173 193.464 287.763 193.464 287.258C193.464 286.753 193.054 286.344 192.549 286.344C192.044 286.344 191.635 286.753 191.635 287.258C191.635 287.763 192.044 288.173 192.549 288.173Z" fill="white"/>
<path opacity="0.5" d="M185.061 286.61C185.566 286.61 185.976 286.201 185.976 285.696C185.976 285.191 185.566 284.781 185.061 284.781C184.556 284.781 184.146 285.191 184.146 285.696C184.146 286.201 184.556 286.61 185.061 286.61Z" fill="white"/>
<path opacity="0.5" d="M186.41 293.175C186.915 293.175 187.324 292.765 187.324 292.26C187.324 291.755 186.915 291.346 186.41 291.346C185.905 291.346 185.495 291.755 185.495 292.26C185.495 292.765 185.905 293.175 186.41 293.175Z" fill="white"/>
<path opacity="0.5" d="M178.407 289.766C178.648 289.766 178.843 289.571 178.843 289.33C178.843 289.09 178.648 288.895 178.407 288.895C178.167 288.895 177.972 289.09 177.972 289.33C177.972 289.571 178.167 289.766 178.407 289.766Z" fill="white"/>
<path opacity="0.5" d="M184.901 289.626C185.142 289.626 185.337 289.431 185.337 289.19C185.337 288.95 185.142 288.755 184.901 288.755C184.661 288.755 184.466 288.95 184.466 289.19C184.466 289.431 184.661 289.626 184.901 289.626Z" fill="white"/>
<path opacity="0.5" d="M189.903 283.897C190.144 283.897 190.339 283.702 190.339 283.462C190.339 283.221 190.144 283.026 189.903 283.026C189.663 283.026 189.468 283.221 189.468 283.462C189.468 283.702 189.663 283.897 189.903 283.897Z" fill="white"/>
<path opacity="0.5" d="M178.821 287.502C179.062 287.502 179.257 287.307 179.257 287.066C179.257 286.826 179.062 286.631 178.821 286.631C178.581 286.631 178.386 286.826 178.386 287.066C178.386 287.307 178.581 287.502 178.821 287.502Z" fill="white"/>
<path opacity="0.5" d="M171.748 288.86C171.989 288.86 172.184 288.665 172.184 288.425C172.184 288.184 171.989 287.989 171.748 287.989C171.508 287.989 171.313 288.184 171.313 288.425C171.313 288.665 171.508 288.86 171.748 288.86Z" fill="white"/>
<path opacity="0.5" d="M171.432 286.249C171.672 286.249 171.867 286.054 171.867 285.813C171.867 285.573 171.672 285.378 171.432 285.378C171.191 285.378 170.996 285.573 170.996 285.813C170.996 286.054 171.191 286.249 171.432 286.249Z" fill="white"/>
<path opacity="0.5" d="M173.513 286.039C173.753 286.039 173.948 285.844 173.948 285.603C173.948 285.363 173.753 285.168 173.513 285.168C173.272 285.168 173.077 285.363 173.077 285.603C173.077 285.844 173.272 286.039 173.513 286.039Z" fill="white"/>
<path opacity="0.5" d="M180.204 292.176C180.444 292.176 180.639 291.981 180.639 291.74C180.639 291.5 180.444 291.305 180.204 291.305C179.963 291.305 179.768 291.5 179.768 291.74C179.768 291.981 179.963 292.176 180.204 292.176Z" fill="white"/>
<path opacity="0.5" d="M190.991 280.843C191.232 280.843 191.427 280.648 191.427 280.407C191.427 280.167 191.232 279.972 190.991 279.972C190.751 279.972 190.556 280.167 190.556 280.407C190.556 280.648 190.751 280.843 190.991 280.843Z" fill="white"/>
<path opacity="0.5" d="M196.525 281.531C196.766 281.531 196.961 281.336 196.961 281.096C196.961 280.855 196.766 280.66 196.525 280.66C196.285 280.66 196.09 280.855 196.09 281.096C196.09 281.336 196.285 281.531 196.525 281.531Z" fill="white"/>
<path opacity="0.5" d="M179.01 283.398C179.25 283.398 179.445 283.203 179.445 282.963C179.445 282.722 179.25 282.527 179.01 282.527C178.769 282.527 178.574 282.722 178.574 282.963C178.574 283.203 178.769 283.398 179.01 283.398Z" fill="white"/>
<path opacity="0.5" d="M173.524 289.245C173.764 289.245 173.959 289.05 173.959 288.809C173.959 288.569 173.764 288.374 173.524 288.374C173.283 288.374 173.088 288.569 173.088 288.809C173.088 289.05 173.283 289.245 173.524 289.245Z" fill="white"/>
<path opacity="0.5" d="M175.061 284.624C175.318 284.624 175.526 284.416 175.526 284.159C175.526 283.902 175.318 283.693 175.061 283.693C174.804 283.693 174.595 283.902 174.595 284.159C174.595 284.416 174.804 284.624 175.061 284.624Z" fill="white"/>
<path opacity="0.2" d="M192.348 290.383C194.112 290.383 195.541 288.954 195.541 287.19C195.541 285.427 194.112 283.997 192.348 283.997C190.585 283.997 189.155 285.427 189.155 287.19C189.155 288.954 190.585 290.383 192.348 290.383Z" fill="white"/>
<path opacity="0.1" d="M186.128 291.098C188.705 291.216 190.889 289.224 191.007 286.647C191.124 284.07 189.132 281.886 186.555 281.769C183.979 281.65 181.795 283.644 181.677 286.219C181.559 288.796 183.553 290.98 186.128 291.098Z" fill="white"/>
<path opacity="0.1" d="M176.173 292.536C178.75 292.655 180.934 290.661 181.052 288.084C181.17 285.508 179.177 283.324 176.601 283.206C174.025 283.088 171.841 285.081 171.723 287.658C171.605 290.234 173.598 292.418 176.173 292.536Z" fill="white"/>
<path opacity="0.1" d="M183.086 297.843C185.665 297.843 187.755 295.753 187.755 293.174C187.755 290.595 185.665 288.505 183.086 288.505C180.507 288.505 178.417 290.595 178.417 293.174C178.417 295.753 180.507 297.843 183.086 297.843Z" fill="white"/>
<path opacity="0.1" d="M196.373 294.476C198.952 294.476 201.042 292.386 201.042 289.807C201.042 287.228 198.952 285.138 196.373 285.138C193.794 285.138 191.704 287.228 191.704 289.807C191.704 292.386 193.794 294.476 196.373 294.476Z" fill="white"/>
<path opacity="0.1" d="M191.137 296.691C193.713 296.809 195.897 294.815 196.015 292.239C196.132 289.662 194.14 287.479 191.563 287.36C188.987 287.243 186.803 289.236 186.685 291.813C186.568 294.389 188.561 296.573 191.137 296.691Z" fill="white"/>
<rect x="315.775" y="15.2949" width="45.0996" height="25" rx="12.5" fill="#969696" fill-opacity="0.3"/>
<path d="M323.886 32.9209H323.066V23.9521L320.359 24.957V24.1914L323.749 22.9336H323.886V32.9209ZM329.663 27.5H330.51C330.98 27.5 331.39 27.418 331.741 27.2539C332.092 27.0853 332.358 26.8574 332.541 26.5703C332.727 26.2786 332.821 25.9437 332.821 25.5654C332.821 24.9274 332.641 24.4284 332.281 24.0684C331.921 23.7083 331.403 23.5283 330.729 23.5283C330.091 23.5283 329.567 23.7174 329.157 24.0957C328.751 24.4694 328.548 24.9639 328.548 25.5791H327.728C327.728 25.0641 327.858 24.5947 328.118 24.1709C328.377 23.7425 328.737 23.4121 329.198 23.1797C329.658 22.9473 330.168 22.8311 330.729 22.8311C331.631 22.8311 332.342 23.0771 332.862 23.5693C333.381 24.0615 333.641 24.736 333.641 25.5928C333.641 26.0713 333.488 26.5133 333.183 26.9189C332.882 27.32 332.468 27.6208 331.939 27.8213C332.559 27.9945 333.028 28.293 333.347 28.7168C333.666 29.1361 333.826 29.6374 333.826 30.2207C333.826 31.0729 333.548 31.7588 332.992 32.2783C332.436 32.7979 331.693 33.0576 330.763 33.0576C330.171 33.0576 329.626 32.9391 329.129 32.7021C328.637 32.4652 328.254 32.1348 327.981 31.7109C327.712 31.2826 327.578 30.7858 327.578 30.2207H328.398C328.398 30.8542 328.619 31.3714 329.061 31.7725C329.503 32.1689 330.07 32.3672 330.763 32.3672C331.47 32.3672 332.019 32.1872 332.411 31.8271C332.807 31.4626 333.005 30.9362 333.005 30.248C333.005 29.5827 332.791 29.0745 332.363 28.7236C331.939 28.3727 331.312 28.1973 330.483 28.1973H329.663V27.5ZM335.624 33.7754H334.878L339.035 22.9678H339.773L335.624 33.7754ZM347.409 32.9209H341.174V32.292L344.585 28.4229C345.151 27.7712 345.542 27.2334 345.761 26.8096C345.98 26.3857 346.089 25.9733 346.089 25.5723C346.089 24.9434 345.905 24.4466 345.536 24.082C345.166 23.7129 344.658 23.5283 344.011 23.5283C343.341 23.5283 342.799 23.7425 342.384 24.1709C341.974 24.5993 341.769 25.1553 341.769 25.8389H340.956C340.956 25.2783 341.081 24.7679 341.332 24.3076C341.587 23.8473 341.947 23.4873 342.412 23.2275C342.881 22.9632 343.414 22.8311 344.011 22.8311C344.923 22.8311 345.634 23.0703 346.144 23.5488C346.659 24.0273 346.916 24.679 346.916 25.5039C346.916 25.9688 346.771 26.4769 346.479 27.0283C346.192 27.5798 345.684 28.2679 344.955 29.0928L342.179 32.2305H347.409V32.9209ZM353.964 29.7148H355.516V30.4053H353.964V32.9209H353.144V30.4053H348.461V29.9404L353.069 22.9678H353.964V29.7148ZM349.466 29.7148H353.144V24.0273L352.782 24.6562L349.466 29.7148Z" fill="black"/>
</g>
<defs>
<linearGradient id="paint0_linear" x1="187.317" y1="376.14" x2="187.317" y2="-2.70815" gradientUnits="userSpaceOnUse">
<stop offset="0.1444" stop-color="white"/>
<stop offset="1" stop-color="#4FC3F7"/>
</linearGradient>
<clipPath id="clip0">
<rect width="375" height="375" fill="white" transform="translate(0.775146 0.294922)"/>
</clipPath>
</defs>
</svg>
