<svg width="376" height="376" viewBox="0 0 376 376" fill="none" xmlns="http://www.w3.org/2000/svg">
<g clip-path="url(#clip0)">
<path d="M-9.06836 389.827C-1.42633 387.305 337.558 412.35 401.557 391.233L373.931 -32.4512L-12.3496 -10.0173L-9.06836 389.827Z" fill="#EFDE95"/>
<path d="M380.616 93.8474C379.46 91.258 377.48 89.8082 376.581 88.9035C375.681 87.9988 371.626 86.6324 370.818 85.0963C370.01 83.5602 367.799 79.041 367.061 78.9037C366.325 78.7668 366.42 77.2326 363.171 77.4032C359.922 77.5738 357.939 77.0268 356.679 75.9402C355.419 74.8541 357.04 76.1221 355.419 74.8541C353.798 73.5857 351.541 72.2048 349.199 71.4857C346.859 70.7671 346.749 70.4366 344.595 70.2791C342.44 70.1221 341.187 69.0548 339.515 68.5438C337.845 68.0329 336.841 66.8099 336.13 65.5677C335.419 64.326 336.765 63.8512 333.881 64.2168C330.997 64.5829 330.257 67.8009 327.919 66.1837C325.582 64.5665 324.071 64.5402 322.53 63.5085C320.988 62.4773 317.652 60.5634 317.652 60.5634C317.652 60.5634 315.67 60.9271 314.41 59.8406C313.15 58.754 311.443 56.3127 311.443 56.3127C311.443 56.3127 310.722 55.9499 309.731 55.6757C308.74 55.402 306.94 53.5917 305.317 53.226C303.694 52.8599 300.722 51.1363 299.189 51.0417C297.655 50.947 286.931 46.6743 282.78 46.8417C278.629 47.0095 275.297 45.1045 270.608 43.6467C265.921 42.1884 268.975 46.8899 260.504 43.0743C252.035 39.2587 245.431 39.9477 245.431 39.9477C245.431 39.9477 228.123 37.5346 226.502 37.7695C224.879 38.0038 218.657 37.3532 218.657 37.3532C218.657 37.3532 213.243 37.3368 208.19 37.5018C203.136 37.6673 198.996 34.2257 195.023 34.9354C191.05 35.6456 189.906 35.422 184.699 37.1399C179.493 38.8579 183.101 38.8692 177.734 38.5368C172.366 38.2045 170.473 37.9279 168.397 38.0123C166.321 38.0962 165.508 38.3638 164.517 38.0906C163.525 37.8173 160.818 37.8088 159.374 37.9846C157.93 38.1604 154.136 39.412 152.245 38.2335C150.354 37.0546 152.704 35.9788 148.55 37.0495C144.396 38.1201 143.301 39.382 140.691 38.7416C138.08 38.1004 138.11 37.7901 135.03 37.3045C131.949 36.8188 125.834 34.7652 125.191 35.961C124.548 37.1568 118.772 37.8613 116.785 38.2162C114.799 38.5706 109.202 39.817 107.305 40.4427C105.408 41.0685 97.5499 43.6612 96.198 43.2065C94.8461 42.7509 93.6728 42.8376 92.2314 42.1115C90.79 41.3859 86.702 41.8331 86.702 41.8331L83.8352 42.4781L67.0281 46.2206C67.0281 46.2206 68.2942 45.5024 62.0289 46.3677C55.7641 47.2335 54.2435 47.4346 54.2435 47.4346L47.6327 49.0148C47.6327 49.0148 45.1886 49.3673 43.6595 49.7231C40.5203 50.4534 42.0072 48.6365 36.8238 51.1743C30.8392 54.1045 28.7655 53.7374 25.8766 54.0895C22.9881 54.4415 21.7258 54.2573 20.913 54.5254C20.1002 54.7935 13.8171 55.5918 12.513 57.2971C11.2094 59.0024 4.2433 58.9743 4.2433 58.9743L-3.6617 62.4562L-5.36279 381.857L385.302 385.138V93.9356C382.667 96.0126 381.498 95.8246 380.616 93.8474Z" fill="url(#paint0_radial)" stroke="url(#paint1_radial)" stroke-miterlimit="10"/>
<path d="M380.475 86.4538C378.641 85.5566 377.052 84.2779 375.109 82.9387C373.165 81.5995 370.439 78.3482 368.451 76.4212C366.464 74.4951 364.988 75.9398 359.233 73.978C353.478 72.0168 350.755 68.3179 346.54 67.3818C342.326 66.4448 338.679 63.5891 337.69 62.413C336.701 61.237 328.524 57.0482 322.549 56.5921C316.574 56.136 319.481 56.4023 316.33 54.1368C314.015 52.4713 308.76 51.2268 305.874 50.6765C302.987 50.1262 298.751 49.1207 296.77 47.6713C294.789 46.222 288.116 45.118 283.065 44.3812C278.016 43.6443 277.747 42.831 272.785 42.3651C267.824 41.8987 264.311 40.3541 264.311 40.3541C264.311 40.3541 259.357 37.1807 253.494 36.712C247.63 36.2432 239.778 37.0316 238.643 37.1052C237.507 37.1788 232.052 37.994 228.208 35.7402C224.365 33.4865 219.451 36.8638 217.07 36.6885C214.689 36.5132 207.936 34.3166 207.936 34.3166C207.936 34.3166 197.201 33.6524 194.176 31.7737C191.152 29.8945 183.545 35.4534 183.029 35.452C182.511 35.4505 177.892 33.4138 177.892 33.4138C177.892 33.4138 173.023 32.3165 170.587 32.218C168.152 32.1196 161.039 35.8026 159.561 35.856C158.082 35.9099 154.121 36.0848 152.001 34.1634C149.881 32.2415 147.231 36.4452 144.609 36.6023C141.986 36.7588 139.179 35.3709 137.893 34.8937C136.608 34.416 131.15 34.7155 128.789 33.9918C126.429 33.2685 121.309 36.7607 119.798 36.959C118.286 37.1568 115.895 36.7443 114.71 35.8865C113.526 35.0287 110.104 37.4062 110.104 37.4062C110.104 37.4062 102.958 37.1071 98.7433 39.3988C94.5293 41.6901 94.5002 40.198 91.0699 40.7287C87.8515 41.2265 83.3993 41.1562 82.4946 40.5534C81.5899 39.9505 71.7776 42.3866 71.7776 42.3866L64.1022 44.5916C64.1022 44.5916 56.404 47.8696 55.3676 47.474C54.3312 47.0779 50.9627 48.9276 50.9627 48.9276C50.9627 48.9276 48.4629 47.2762 47.3908 46.7287C46.3179 46.1812 43.1393 47.5307 41.0337 46.5304C38.928 45.5296 38.4921 47.5616 38.4921 47.5616L36.6752 48.7621C36.6752 48.7621 34.4126 51.0107 30.724 50.759C27.0354 50.5068 28.4168 52.0865 26.8929 52.0218C25.369 51.9571 22.3535 51.9262 22.3535 51.9262C22.3535 51.9262 18.663 53.497 16.3141 54.5727C13.9647 55.6485 14.3829 57.149 12.244 55.9096C10.1051 54.6702 10.9722 54.8141 9.16756 54.8085C7.36287 54.8029 7.24475 56.3193 2.77662 56.8921L-5.36182 59.4393L-3.65979 64.5974L4.24475 61.1146C4.24475 61.1146 11.2108 61.1427 12.5144 59.4374C13.818 57.7321 20.1016 56.9338 20.9144 56.6657C21.7272 56.3976 22.9896 56.5818 25.878 56.2298C28.7665 55.8777 30.8407 56.2452 36.8247 53.3146C42.0082 50.7768 40.5208 52.5932 43.6605 51.8634C45.1901 51.5076 47.6337 51.1551 47.6337 51.1551L54.2449 49.5749C54.2449 49.5749 55.7655 49.3734 62.0308 48.5076C68.2966 47.6423 67.0301 48.3604 67.0301 48.3604L83.8371 44.6179L86.704 43.9724C86.704 43.9724 90.7929 43.5248 92.2343 44.2513C93.6757 44.9779 94.849 44.8907 96.2008 45.3459C97.5532 45.8015 105.41 43.2084 107.307 42.5826C109.204 41.9568 114.802 40.7104 116.788 40.3555C118.775 40.0012 124.551 39.2966 125.194 38.1004C125.837 36.9046 131.951 38.9582 135.032 39.4443C138.112 39.9304 138.083 40.2402 140.693 40.881C143.303 41.5223 144.398 40.259 148.552 39.1893C152.706 38.1196 150.357 39.1945 152.248 40.3734C154.139 41.5518 157.932 40.3007 159.377 40.1245C160.821 39.9487 163.527 39.9566 164.519 40.2304C165.511 40.5041 166.324 40.236 168.399 40.1521C170.476 40.0682 172.369 40.3443 177.736 40.6766C183.103 41.009 179.494 40.9977 184.702 39.2798C189.909 37.5613 191.053 37.7849 195.026 37.0748C198.998 36.3651 203.138 39.8066 208.191 39.6412C213.245 39.4757 218.659 39.493 218.659 39.493C218.659 39.493 224.881 40.1441 226.504 39.9093C228.126 39.6749 245.433 42.088 245.433 42.088C245.433 42.088 252.037 41.3999 260.507 45.2146C268.976 49.0298 265.922 44.3291 270.61 45.787C275.298 47.2452 278.63 49.1502 282.782 48.9824C286.932 48.8146 297.656 53.0877 299.191 53.1824C300.724 53.2771 303.696 55.0007 305.32 55.3663C306.943 55.7324 308.741 57.5423 309.733 57.816C310.724 58.0898 311.445 58.453 311.445 58.453C311.445 58.453 313.153 60.8943 314.412 61.9813C315.672 63.0674 317.655 62.7032 317.655 62.7032C317.655 62.7032 320.991 64.6176 322.533 65.6493C324.074 66.6805 325.586 66.7073 327.922 68.3245C330.258 69.9416 330.999 66.7241 333.883 66.3576C336.767 65.991 335.421 66.4668 336.132 67.709C336.843 68.9507 337.846 70.1737 339.518 70.6851C341.188 71.1955 342.442 72.2629 344.598 72.4204C346.752 72.577 346.861 72.9084 349.201 73.627C351.542 74.3451 353.801 75.7265 355.421 76.9949C357.041 78.2634 355.421 76.9949 356.681 78.081C357.941 79.1676 359.924 79.7151 363.173 79.544C366.422 79.3734 366.327 80.9076 367.064 81.0445C367.8 81.1813 370.013 85.7015 370.82 87.2376C371.628 88.7741 375.684 90.1396 376.584 91.0448C377.483 91.9499 379.464 93.3993 380.618 95.9891C381.5 97.9659 382.669 98.1538 385.304 96.0777L382.326 87.0543C381.5 86.819 380.825 86.6245 380.475 86.4538Z" fill="white" stroke="url(#paint2_radial)" stroke-miterlimit="10"/>
<path opacity="0.8" d="M2.77603 56.8922C7.24415 56.3194 7.36274 54.8034 9.16696 54.8086C10.9717 54.8137 10.1045 54.6703 12.2434 55.9097C14.3823 57.149 13.9637 55.6481 16.3135 54.5728C18.6629 53.4975 22.3529 51.9262 22.3529 51.9262C22.3529 51.9262 25.3684 51.9576 26.8923 52.0223C28.4162 52.0865 27.0348 50.5073 30.7234 50.759C34.412 51.0108 36.6746 48.7626 36.6746 48.7626L38.4915 47.5617C38.4915 47.5617 38.927 45.5297 41.0326 46.5304C43.1387 47.5308 46.3173 46.1812 47.3898 46.7287C48.4623 47.2762 50.9621 48.9272 50.9621 48.9272C50.9621 48.9272 54.331 47.0779 55.367 47.474C56.4029 47.8697 64.1016 44.5917 64.1016 44.5917L71.7774 42.3872C71.7774 42.3872 81.5898 39.9511 82.4945 40.5539C83.3991 41.1572 87.8518 41.2279 91.0698 40.7297C94.5001 40.1986 94.5282 41.6906 98.7432 39.3998C102.958 37.1086 110.104 37.4072 110.104 37.4072C110.104 37.4072 113.526 35.0297 114.71 35.8875C115.895 36.7458 118.286 37.1583 119.798 36.96C121.308 36.7617 126.429 33.27 128.789 33.9928C131.15 34.7161 136.608 34.4179 137.893 34.8951C139.179 35.3723 141.986 36.7603 144.609 36.6037C147.232 36.4472 149.88 32.2434 152.001 34.1648C154.12 36.0862 158.082 35.9119 159.561 35.8579C161.04 35.8045 168.152 32.1211 170.587 32.22C173.023 32.3184 177.892 33.4158 177.892 33.4158C177.892 33.4158 182.512 35.452 183.029 35.4539C183.546 35.4558 191.152 29.8964 194.176 31.7756C197.2 33.6548 207.936 34.319 207.936 34.319C207.936 34.319 214.689 36.5161 217.071 36.6909C219.452 36.8653 224.364 33.4894 228.208 35.7426C232.052 37.9959 237.507 37.1812 238.643 37.1076C239.778 37.0336 247.63 36.2456 253.494 36.7144C259.357 37.1831 264.31 40.3565 264.31 40.3565C264.31 40.3565 267.824 41.9011 272.785 42.3679C277.747 42.8344 278.014 43.6472 283.065 44.3845C288.115 45.1214 294.789 46.2248 296.769 47.6742C298.751 49.1231 302.988 50.1295 305.874 50.6794C308.759 51.2292 314.014 52.4747 316.33 54.1397C319.481 56.4051 316.574 56.1389 322.549 56.5945C328.525 57.0511 336.7 61.2398 337.689 62.4154C338.679 63.5911 342.325 66.4472 346.54 67.3837C350.755 68.3203 353.478 72.0183 359.233 73.9804C364.988 75.9431 366.465 74.4961 368.453 76.4222C370.441 78.3492 373.166 81.6009 375.11 82.9397C377.054 84.2784 378.642 85.5572 380.477 86.4548C382.309 87.352 392.989 88.867 388.203 93.4851C383.418 98.1033 381.772 98.5786 380.617 95.9883C379.461 93.3994 377.481 91.949 376.582 91.0444C375.682 90.1397 371.627 88.7733 370.819 87.2367C370.011 85.7006 367.8 81.1814 367.062 81.044C366.326 80.9072 366.421 79.373 363.172 79.5436C359.923 79.7142 357.94 79.1672 356.679 78.0801C355.42 76.994 357.041 78.262 355.42 76.994C353.799 75.7261 351.542 74.3447 349.2 73.6256C346.86 72.907 346.75 72.577 344.596 72.419C342.441 72.262 341.188 71.1951 339.516 70.6837C337.846 70.1733 336.842 68.9498 336.13 67.7076C335.42 66.4659 336.766 65.9906 333.882 66.3567C330.999 66.7228 330.257 69.9403 327.92 68.3236C325.583 66.7069 324.072 66.6801 322.531 65.6484C320.989 64.6172 317.653 62.7033 317.653 62.7033C317.653 62.7033 315.671 63.067 314.411 61.9804C313.151 60.8939 311.444 58.4526 311.444 58.4526C311.444 58.4526 310.723 58.0898 309.732 57.8156C308.74 57.5419 306.941 55.732 305.318 55.3659C303.695 55.0003 300.723 53.2762 299.19 53.1815C297.656 53.0869 286.932 48.8142 282.781 48.982C278.63 49.1494 275.297 47.2444 270.609 45.7865C265.922 44.3287 268.976 49.0298 260.505 45.2142C252.035 41.3986 245.432 42.0876 245.432 42.0876C245.432 42.0876 228.124 39.6745 226.502 39.9089C224.88 40.1433 218.657 39.4926 218.657 39.4926C218.657 39.4926 213.243 39.4762 208.191 39.6412C203.137 39.8067 198.997 36.3651 195.024 37.0753C191.051 37.785 189.907 37.5614 184.7 39.2798C179.493 40.9978 183.102 41.0086 177.735 40.6767C172.366 40.3448 170.474 40.0678 168.398 40.1522C166.322 40.2361 165.509 40.5037 164.518 40.2304C163.526 39.9572 160.819 39.9487 159.375 40.125C157.931 40.3008 154.137 41.5523 152.246 40.3734C150.355 39.1945 152.705 38.1187 148.551 39.1894C144.397 40.2595 143.302 41.5223 140.692 40.8811C138.081 40.2398 138.111 39.9295 135.031 39.4439C131.949 38.9583 125.835 36.9047 125.191 38.1004C124.549 39.2962 118.773 40.0008 116.786 40.3556C114.8 40.7104 109.202 41.9569 107.305 42.5822C105.409 43.2079 97.5507 45.8011 96.1988 45.3459C94.847 44.8908 93.6737 44.977 92.2323 44.2509C90.7909 43.5253 86.7029 43.9725 86.7029 43.9725L83.836 44.6175L67.029 48.3604C67.029 48.3604 68.2951 47.6423 62.0298 48.5076C55.7649 49.3729 54.2443 49.5745 54.2443 49.5745L47.6335 51.1547C47.6335 51.1547 45.1895 51.5072 43.6604 51.8629C40.5212 52.5933 42.0081 50.7769 36.8246 53.3142C30.8401 56.2448 28.7663 55.8773 25.8774 56.2294C22.989 56.5814 21.7267 56.3972 20.9138 56.6653C20.101 56.9334 13.8179 57.7312 12.5138 59.437C11.2102 61.1423 4.24415 61.1142 4.24415 61.1142L0.955869 62.1989L-0.519287 57.7279L2.77603 56.8922Z" fill="white"/>
<path d="M294.798 18.0291L297.519 12.578C296.112 11.8149 294.407 11.5669 292.765 12.0699L294.737 18.0488L294.798 18.0291Z" fill="#E8628F"/>
<path d="M300.455 16.1333C300.444 16.0986 300.438 16.0648 300.426 16.0302C299.913 14.4777 298.84 13.2702 297.508 12.5469L294.777 17.9684L300.455 16.1333Z" fill="white"/>
<path d="M294.737 18.0492L292.765 12.0703C292.721 12.0834 292.678 12.0914 292.635 12.1059C291.018 12.6398 289.779 13.8089 289.07 15.2189L294.678 18.0698L294.737 18.0492Z" fill="#F9F9F9"/>
<path d="M294.778 17.9694L294.738 18.0491L300.078 20.7397C300.773 19.3597 300.948 17.72 300.457 16.1338L294.778 17.9694Z" fill="#E8628F"/>
<path d="M289.059 15.1875C288.349 16.5975 288.176 18.2784 288.71 19.8961C288.713 19.9064 288.719 19.9162 288.721 19.927L294.657 18.0075L289.059 15.1875Z" fill="#E8628F"/>
<path d="M294.737 18.0498L296.626 23.7742C298.181 23.2239 299.386 22.1125 300.077 20.7395L294.737 18.0498Z" fill="white"/>
<path d="M294.737 18.0491L294.657 18.0088L288.721 19.9283C289.282 21.5957 290.487 22.8618 291.967 23.5513L294.737 18.0491Z" fill="white"/>
<path d="M291.967 23.5501C293.34 24.1904 294.948 24.3343 296.502 23.822C296.544 23.8079 296.584 23.7887 296.627 23.7732L294.738 18.0488L291.967 23.5501Z" fill="#E8628F"/>
<path d="M231.56 18.9813L234.282 13.5302C232.875 12.7671 231.169 12.5191 229.527 13.0221L231.5 19.0014L231.56 18.9813Z" fill="#E8628F"/>
<path d="M237.217 17.0859C237.207 17.0513 237.2 17.017 237.189 16.9828C236.676 15.4303 235.603 14.2228 234.271 13.5L231.539 18.9211L237.217 17.0859Z" fill="white"/>
<path d="M231.5 19.0009L229.527 13.0215C229.484 13.0346 229.44 13.0426 229.398 13.0571C227.781 13.591 226.542 14.7601 225.832 16.1701L231.44 19.021L231.5 19.0009Z" fill="#F9F9F9"/>
<path d="M231.54 18.9206L231.5 19.0003L236.841 21.6909C237.536 20.3109 237.711 18.6707 237.219 17.085L231.54 18.9206Z" fill="#E8628F"/>
<path d="M225.821 16.1396C225.111 17.5496 224.939 19.2306 225.473 20.8482C225.476 20.859 225.481 20.8689 225.484 20.8792L231.419 18.9596L225.821 16.1396Z" fill="#E8628F"/>
<path d="M231.5 19.002L233.389 24.7263C234.944 24.176 236.149 23.0646 236.839 21.6916L231.5 19.002Z" fill="white"/>
<path d="M231.5 19.0012L231.42 18.9609L225.484 20.8805C226.044 22.5473 227.25 23.8139 228.729 24.5034L231.5 19.0012Z" fill="white"/>
<path d="M228.729 24.5032C230.102 25.1435 231.711 25.2874 233.264 24.7751C233.307 24.761 233.347 24.7413 233.39 24.7263L231.501 19.002L228.729 24.5032Z" fill="#E8628F"/>
<path d="M338.905 53.3993L341.626 47.9482C340.22 47.185 338.514 46.9371 336.872 47.44L338.844 53.4194L338.905 53.3993Z" fill="#E8628F"/>
<path d="M344.561 51.5039C344.552 51.4697 344.545 51.4355 344.533 51.4008C344.02 49.8483 342.947 48.6408 341.615 47.918L338.883 53.3395L344.561 51.5039Z" fill="white"/>
<path d="M338.844 53.4198L336.872 47.4404C336.828 47.454 336.785 47.4615 336.743 47.4761C335.125 48.01 333.886 49.1795 333.176 50.589L338.785 53.44L338.844 53.4198Z" fill="#F9F9F9"/>
<path d="M338.884 53.3395L338.844 53.4192L344.185 56.1098C344.88 54.7298 345.055 53.0902 344.563 51.5039L338.884 53.3395Z" fill="#E8628F"/>
<path d="M333.166 50.5576C332.455 51.9676 332.283 53.6486 332.817 55.2662C332.821 55.2765 332.826 55.2868 332.828 55.2967L338.763 53.3771L333.166 50.5576Z" fill="#E8628F"/>
<path d="M338.844 53.4199L340.733 59.1438C342.288 58.5935 343.493 57.4821 344.184 56.1091L338.844 53.4199Z" fill="white"/>
<path d="M338.844 53.4197L338.763 53.3789L332.828 55.2984C333.388 56.9658 334.594 58.2323 336.073 58.9214L338.844 53.4197Z" fill="white"/>
<path d="M336.073 58.9212C337.447 59.5615 339.055 59.7049 340.609 59.1926C340.652 59.1785 340.691 59.1588 340.734 59.1438L338.845 53.4199L336.073 58.9212Z" fill="#E8628F"/>
<path d="M309.245 292.053C340.736 292.053 366.264 266.525 366.264 235.034C366.264 203.543 340.736 178.015 309.245 178.015C277.754 178.015 252.226 203.543 252.226 235.034C252.226 266.525 277.754 292.053 309.245 292.053Z" stroke="white" stroke-width="3" stroke-miterlimit="10" stroke-dasharray="15.29 15.29"/>
<path d="M309.244 235.034L337.802 185.681" stroke="white" stroke-width="2" stroke-miterlimit="10"/>
<path d="M345.323 187.004L333.607 180.003L325.032 193.862C325.032 193.862 317.03 204.801 321.833 213.059C331.052 213.392 337.112 201.462 337.112 201.462L345.323 187.004Z" fill="#E5E5E5"/>
<path d="M323.593 210.034C323.593 210.034 318.413 207.267 324.278 197.048C330.144 186.83 331.496 186.242 331.496 186.242L340.92 191.873L339.428 195.025L334.234 203.719C334.235 203.719 328.61 212.614 323.593 210.034Z" fill="#E2E2E2"/>
<path d="M323.572 210.105C327.449 212.522 331.685 208.251 334.828 203.705L339.384 195.783L342.571 190.004L339.947 187.475L339.107 187.767L335.852 185.802C335.852 185.802 335.732 185.064 335.635 185.005C335.08 184.675 332.246 183.888 332.246 183.888C332.246 183.888 329.863 187.68 328.788 189.386C328.753 189.443 323.908 197.048 323.853 197.147C321.195 201.971 319.357 207.476 323.572 210.105ZM328.865 189.657C328.922 189.519 332.574 184.59 332.574 184.59C332.574 184.59 334.835 185.429 335.358 185.742C335.45 185.798 335.56 186.501 335.56 186.501L338.632 188.355L339.43 188.072L341.872 190.145L339.122 195.777C336.407 200.469 336.278 200.479 334.502 203.51C331.385 207.914 327.041 211.977 323.661 209.838C320.302 207.711 321.776 202.101 324.2 197.354C324.308 197.18 328.857 189.76 328.865 189.657Z" fill="#CECECE"/>
<path d="M327.543 198.618L327.743 199.625L329.01 200.697L329.012 200.692L329.136 200.767L329.156 200.778L329.357 200.898L329.355 200.904L330.864 201.488L331.886 201.213C332.393 201.168 333.225 199.918 333.225 199.918L334.651 197.529L334.691 196.845L332.75 196.099L331.61 196.67L331.577 195.399L330.018 194.054L329.47 194.434L328.043 196.823C328.043 196.823 327.341 198.151 327.543 198.618Z" fill="#EFEFEF"/>
<path d="M329.275 195.29C329.237 195.365 329.295 196.842 329.295 196.842L332.415 198.732L333.866 198.06L333.96 197.902L334.008 197.822L334.055 197.744L334.525 196.955L329.923 194.205C329.922 194.207 329.314 195.213 329.275 195.29Z" fill="#C6C6C6"/>
<path d="M328.55 197.606L330.139 198.556L330.745 198.917L332.179 199.772C332.179 199.772 333.001 199.437 334.025 197.894C334.031 197.884 333.943 197.844 333.943 197.844C333.56 198.014 332.618 198.531 332.618 198.531L331.099 197.64L329.434 196.635C329.434 196.635 329.44 195.566 329.408 195.146C329.408 195.146 329.336 195.079 329.33 195.089C328.455 196.723 328.55 197.606 328.55 197.606Z" fill="#29ABE2"/>
<path d="M333.8 196.891C334.181 196.252 332.104 194.947 331.691 195.639C331.329 196.247 333.401 197.562 333.8 196.891ZM333.613 196.789C333.34 197.246 331.623 196.169 331.871 195.755C332.153 195.283 333.873 196.354 333.613 196.789Z" fill="black"/>
<path d="M332.799 196.777C332.799 196.777 332.912 196.574 332.672 196.435C332.432 196.295 332.358 196.491 332.343 196.505C332.328 196.519 332.799 196.777 332.799 196.777Z" fill="black"/>
<path d="M332.717 196.536L333.069 196.084L332.755 195.896L332.546 196.435L332.717 196.536Z" fill="black"/>
<path d="M332.454 196.49C332.448 196.487 331.884 195.697 331.884 195.697L331.737 195.877L332.372 196.57L332.454 196.49Z" fill="black"/>
<path d="M332.739 196.66C332.744 196.663 333.695 196.778 333.695 196.778L333.578 196.974L332.711 196.771L332.739 196.66Z" fill="black"/>
<path d="M324.2 197.354C324.2 197.354 326.788 198.873 325.725 201.947C324.662 205.02 322.752 208.975 322.746 209.077C322.737 209.179 319.447 205.933 324.2 197.354Z" fill="#E8CDA0"/>
<path d="M334.502 203.509C334.502 203.509 331.938 201.951 329.735 204.342C327.533 206.735 324.955 210.289 324.869 210.345C324.782 210.4 329.199 211.758 334.502 203.509Z" fill="#E8CDA0"/>
<path d="M340.706 192.677C340.706 192.677 340.518 193.424 340.028 192.832C338.416 190.882 333.695 187.848 330.981 187.48C330.411 187.402 330.486 187.292 330.683 186.995C330.83 186.772 332.573 184.591 332.573 184.591C332.573 184.591 337.115 185.383 341.873 190.146L340.706 192.677Z" fill="#E8CDA0"/>
<path d="M331.519 191.006C331.598 190.875 332.044 190.788 332.226 190.897L336.375 193.375C336.557 193.483 336.435 193.763 336.355 193.893L335.529 195.277C335.45 195.408 335.319 195.556 335.136 195.447L330.988 192.969C330.806 192.86 330.613 192.519 330.693 192.388L331.519 191.006Z" fill="#E8CDA0"/>
<path d="M338.435 180.774C338.574 180.533 338.881 180.451 339.121 180.59L341.655 182.056C341.895 182.196 341.978 182.503 341.838 182.744L339.586 186.635C339.446 186.876 339.138 186.958 338.898 186.819L336.365 185.352C336.125 185.214 336.043 184.906 336.182 184.666L338.435 180.774Z" fill="#394963"/>
<path d="M69.3044 356.177C100.795 356.177 126.324 330.648 126.324 299.157C126.324 267.666 100.795 242.138 69.3044 242.138C37.8133 242.138 12.2847 267.666 12.2847 299.157C12.2847 330.648 37.8133 356.177 69.3044 356.177Z" stroke="white" stroke-width="3" stroke-miterlimit="10" stroke-dasharray="15.29 15.29"/>
<path d="M69.3044 299.157L114.558 264.467" stroke="white" stroke-width="2" stroke-miterlimit="10"/>
<path d="M121.001 268.565L112.851 257.618L99.6296 267.148C99.6296 267.148 88.0543 274.197 89.3359 283.665C97.7279 287.496 107.888 278.788 107.888 278.788L121.001 268.565Z" fill="#E5E5E5"/>
<path d="M92.119 281.539C92.119 281.539 88.3905 277.003 97.7154 269.801C107.041 262.6 108.515 262.575 108.515 262.575L115.072 271.381L112.489 273.722L104.366 279.771C104.367 279.772 95.7691 285.841 92.119 281.539Z" fill="#E2E2E2"/>
<path d="M92.0725 281.598C94.7308 285.314 100.278 282.986 104.92 279.986L112.158 274.408L117.312 270.285L115.854 266.945L114.965 266.894L112.709 263.835C112.709 263.835 112.88 263.107 112.813 263.015C112.428 262.498 110.11 260.688 110.11 260.688C110.11 260.688 106.457 263.281 104.812 264.447C104.757 264.487 97.3736 269.662 97.2846 269.732C92.9847 273.174 89.1818 277.558 92.0725 281.598ZM104.779 264.726C104.885 264.62 110.142 261.462 110.142 261.462C110.142 261.462 111.912 263.102 112.276 263.59C112.34 263.678 112.173 264.369 112.173 264.369L114.303 267.256L115.148 267.302L116.612 270.15L111.918 274.302C107.616 277.599 107.492 277.56 104.693 279.682C100.129 282.559 94.5611 284.654 92.2563 281.386C89.9655 278.135 93.4718 273.517 97.526 270.056C97.6929 269.935 104.733 264.819 104.779 264.726Z" fill="#CECECE"/>
<path d="M100.132 272.5L99.9312 273.507L100.692 274.982L100.697 274.979L100.782 275.095L100.796 275.114L100.936 275.301L100.931 275.305L102.102 276.422L103.152 276.559C103.638 276.711 104.884 275.874 104.884 275.874L107.115 274.212L107.413 273.595L105.905 272.165L104.634 272.256L105.089 271.068L104.163 269.229L103.512 269.372L101.279 271.033C101.281 271.033 100.124 271.992 100.132 272.5Z" fill="#EFEFEF"/>
<path d="M103.005 270.088C102.94 270.143 102.429 271.531 102.429 271.531L104.59 274.47L106.188 274.402L106.335 274.293L106.408 274.238L106.482 274.183L107.219 273.635L104.016 269.334C104.017 269.334 103.07 270.032 103.005 270.088Z" fill="#C6C6C6"/>
<path d="M101.45 271.95L102.555 273.435L102.978 274.002L103.974 275.339C103.974 275.339 104.862 275.344 106.397 274.31C106.406 274.303 106.341 274.233 106.341 274.233C105.921 274.243 104.853 274.36 104.853 274.36L103.79 272.956L102.637 271.391C102.637 271.391 103.051 270.405 103.181 270.006C103.181 270.006 103.141 269.917 103.131 269.923C101.7 271.098 101.45 271.95 101.45 271.95Z" fill="#29ABE2"/>
<path d="M106.575 273.297C107.172 272.853 105.75 270.853 105.104 271.334C104.537 271.756 105.949 273.764 106.575 273.297ZM106.441 273.131C106.014 273.449 104.839 271.797 105.227 271.51C105.667 271.181 106.848 272.828 106.441 273.131Z" fill="black"/>
<path d="M105.693 272.809C105.693 272.809 105.875 272.665 105.708 272.445C105.539 272.224 105.396 272.377 105.376 272.384C105.356 272.392 105.693 272.809 105.693 272.809Z" fill="black"/>
<path d="M105.709 272.554L106.208 272.271L105.989 271.979L105.591 272.395L105.709 272.554Z" fill="black"/>
<path d="M105.483 272.411C105.48 272.406 105.26 271.461 105.26 271.461L105.056 271.57L105.378 272.455L105.483 272.411Z" fill="black"/>
<path d="M105.681 272.677C105.685 272.682 106.52 273.151 106.52 273.151L106.337 273.288L105.615 272.77L105.681 272.677Z" fill="black"/>
<path d="M97.5255 270.056C97.5255 270.056 99.3367 272.448 97.1795 274.881C95.0237 277.315 91.7467 280.241 91.7008 280.332C91.6548 280.423 89.8553 276.166 97.5255 270.056Z" fill="#E8CDA0"/>
<path d="M104.694 279.681C104.694 279.681 102.919 277.261 99.9701 278.629C97.0207 279.999 93.2791 282.298 93.1783 282.316C93.0776 282.334 96.6401 285.277 104.694 279.681Z" fill="#E8CDA0"/>
<path d="M114.567 272.042C114.567 272.042 114.107 272.66 113.881 271.926C113.138 269.509 109.934 264.9 107.566 263.522C107.07 263.233 107.182 263.16 107.477 262.961C107.698 262.811 110.143 261.462 110.143 261.462C110.143 261.462 114.037 263.93 116.612 270.15L114.567 272.042Z" fill="#E8CDA0"/>
<path d="M106.716 266.985C106.839 266.894 107.285 266.985 107.412 267.154L110.298 271.03C110.424 271.2 110.204 271.411 110.081 271.502L108.79 272.466C108.667 272.556 108.489 272.643 108.362 272.472L105.476 268.597C105.35 268.427 105.301 268.038 105.425 267.948L106.716 266.985Z" fill="#E8CDA0"/>
<path d="M117.017 260.175C117.238 260.006 117.554 260.048 117.722 260.268L119.503 262.59C119.671 262.811 119.63 263.127 119.409 263.297L115.84 266.032C115.62 266.2 115.304 266.159 115.135 265.937L113.355 263.615C113.186 263.395 113.228 263.078 113.449 262.91L117.017 260.175Z" fill="#394963"/>
<path opacity="0.7" d="M229.551 169.2C207.413 140.512 166.212 135.201 137.523 157.337C108.835 179.474 103.524 220.676 125.66 249.364C147.797 278.053 188.999 283.364 217.688 261.228C246.375 239.091 251.687 197.888 229.551 169.2ZM210.863 240.361C210.804 240.381 208.568 238.223 207.469 237.199C190.677 253.029 164.412 252.544 148.189 236.33C146.851 237.587 144.219 240.001 144.152 239.978L143.02 224.149L157.79 227.162C157.79 227.162 155.392 229.494 154.282 230.567C159.511 235.738 166.245 238.888 173.276 239.994V186.733C170.463 185.054 167.988 181.935 167.988 178.36C167.988 173.012 172.291 168.677 177.638 168.677C182.986 168.677 187.407 173.012 187.407 178.36C187.407 181.971 184.995 185.117 182.182 186.782V240.196C188.745 239.369 196.043 236.455 201.518 231.423C200.175 230.128 197.878 227.928 197.878 227.928L213.024 225.134L210.863 240.361Z" fill="#1AB737"/>
<path opacity="0.7" d="M177.605 182.085C179.783 182.085 181.549 180.32 181.549 178.142C181.549 175.964 179.783 174.198 177.605 174.198C175.427 174.198 173.662 175.964 173.662 178.142C173.662 180.32 175.427 182.085 177.605 182.085Z" fill="#1AB737"/>
<rect x="315.775" y="15.2949" width="44.0746" height="25" rx="12.5" fill="#969696" fill-opacity="0.3"/>
<path d="M329.057 28.3135C328.765 28.7419 328.403 29.0745 327.97 29.3115C327.537 29.5439 327.068 29.6602 326.562 29.6602C325.997 29.6602 325.498 29.5143 325.065 29.2227C324.632 28.931 324.297 28.5277 324.06 28.0127C323.823 27.4977 323.704 26.9349 323.704 26.3242C323.704 25.668 323.83 25.071 324.08 24.5332C324.336 23.9954 324.689 23.5785 325.14 23.2822C325.596 22.9814 326.12 22.8311 326.712 22.8311C327.71 22.8311 328.487 23.182 329.043 23.8838C329.599 24.5811 329.877 25.5723 329.877 26.8574V27.5957C329.877 29.3913 329.495 30.7402 328.729 31.6426C327.963 32.5449 326.794 32.9961 325.222 32.9961H325.072L325.078 32.2852H325.366C326.555 32.2669 327.46 31.9297 328.079 31.2734C328.699 30.6172 329.025 29.6305 329.057 28.3135ZM326.664 28.9561C327.211 28.9561 327.701 28.7943 328.134 28.4707C328.572 28.1426 328.882 27.7188 329.064 27.1992V26.7275C329.064 25.7158 328.852 24.932 328.428 24.376C328.009 23.8154 327.441 23.5352 326.726 23.5352C326.079 23.5352 325.548 23.7972 325.133 24.3213C324.718 24.8408 324.511 25.4971 324.511 26.29C324.511 27.0511 324.709 27.6868 325.106 28.1973C325.507 28.7031 326.026 28.9561 326.664 28.9561ZM331.73 33.7754H330.985L335.141 22.9678H335.879L331.73 33.7754ZM343.515 32.9209H337.281V32.292L340.692 28.4229C341.257 27.7712 341.649 27.2334 341.868 26.8096C342.086 26.3857 342.196 25.9733 342.196 25.5723C342.196 24.9434 342.011 24.4466 341.642 24.082C341.273 23.7129 340.765 23.5283 340.118 23.5283C339.448 23.5283 338.905 23.7425 338.491 24.1709C338.08 24.5993 337.875 25.1553 337.875 25.8389H337.062C337.062 25.2783 337.187 24.7679 337.438 24.3076C337.693 23.8473 338.053 23.4873 338.518 23.2275C338.987 22.9632 339.521 22.8311 340.118 22.8311C341.029 22.8311 341.74 23.0703 342.25 23.5488C342.765 24.0273 343.023 24.679 343.023 25.5039C343.023 25.9688 342.877 26.4769 342.585 27.0283C342.298 27.5798 341.79 28.2679 341.061 29.0928L338.286 32.2305H343.515V32.9209ZM350.071 29.7148H351.622V30.4053H350.071V32.9209H349.25V30.4053H344.568V29.9404L349.175 22.9678H350.071V29.7148ZM345.573 29.7148H349.25V24.0273L348.888 24.6562L345.573 29.7148Z" fill="black"/>
</g>
<defs>
<radialGradient id="paint0_radial" cx="0" cy="0" r="1" gradientUnits="userSpaceOnUse" gradientTransform="translate(115.94 497.541) rotate(-18.2592) scale(459.358)">
<stop stop-color="#58F1FE"/>
<stop offset="0.646" stop-color="#58F1FE"/>
<stop offset="0.7523" stop-color="#58F1FE"/>
<stop offset="0.9693" stop-color="#58F1FE" stop-opacity="0.39"/>
<stop offset="1" stop-color="#58F1FE" stop-opacity="0.45"/>
</radialGradient>
<radialGradient id="paint1_radial" cx="0" cy="0" r="1" gradientUnits="userSpaceOnUse" gradientTransform="translate(189.969 209.99) scale(185.751)">
<stop stop-color="#42C9CC"/>
<stop offset="0.646" stop-color="#42C9CC"/>
<stop offset="0.7523" stop-color="#42C9CC"/>
<stop offset="0.9693" stop-color="#42C9CC" stop-opacity="0.3868"/>
<stop offset="1" stop-color="#42C9CC" stop-opacity="0.3"/>
</radialGradient>
<radialGradient id="paint2_radial" cx="0" cy="0" r="1" gradientUnits="userSpaceOnUse" gradientTransform="translate(189.959 64.4705) scale(140.315)">
<stop stop-color="#42C9CC"/>
<stop offset="0.646" stop-color="#42C9CC"/>
<stop offset="0.7523" stop-color="#42C9CC"/>
<stop offset="0.9693" stop-color="#42C9CC" stop-opacity="0.3868"/>
<stop offset="1" stop-color="#42C9CC" stop-opacity="0.3"/>
</radialGradient>
<clipPath id="clip0">
<rect width="375" height="375" fill="white" transform="translate(0.775391 0.294922)"/>
</clipPath>
</defs>
</svg>
