<svg width="376" height="376" viewBox="0 0 376 376" fill="none" xmlns="http://www.w3.org/2000/svg">
<g clip-path="url(#clip0)">
<path d="M-0.861145 -33.916H379.97L380.437 222.992H-0.393801L-0.861145 -33.916Z" fill="url(#paint0_linear)"/>
<path d="M252.556 93.0646L251.73 92.2752C251.73 92.2752 286.12 76.0077 308.904 110.279C308.572 111.035 252.556 93.0646 252.556 93.0646Z" fill="#D1D1D1"/>
<path d="M249.016 112.149L250.011 117.13L300.222 128.396L308.904 110.279L251.73 92.2754L249.016 112.149Z" fill="#D1D1D1"/>
<path d="M260.699 96.718L299.851 109.139L302.26 101.542L263.109 89.1217L260.699 96.718Z" fill="#D1D1D1"/>
<path d="M277.369 80.3712C277.359 80.3946 277.808 80.074 277.808 80.074C278.833 79.5626 281.234 78.0771 281.234 78.0771L286.922 79.8612L293.187 81.8763C293.187 81.8763 294.288 84.483 294.832 85.4913C294.832 85.4913 294.948 85.9741 294.954 85.9498C296.174 82.1065 295.674 79.5288 292.633 78.5637L283.732 75.7399C280.477 74.8404 278.532 76.578 277.369 80.3712Z" fill="#29ABE2"/>
<path d="M270.376 101.988C269.436 104.949 270.918 108.062 273.686 108.94L281.749 111.498C284.516 112.377 287.521 110.688 288.461 107.727L294.839 87.6206C295.78 84.6595 294.298 81.5475 291.531 80.6695L283.467 78.1111C280.7 77.2331 277.695 78.9216 276.755 81.8827L270.376 101.988Z" fill="#D1D1D1"/>
<path d="M261.449 91.8423C261.303 92.304 261.558 92.7981 262.02 92.9443L300.55 105.169C301.011 105.316 301.504 105.06 301.651 104.598C301.798 104.136 301.542 103.642 301.08 103.496L262.551 91.2709C262.09 91.1241 261.597 91.3801 261.449 91.8423Z" fill="#E8CDA0"/>
<path d="M283.741 82.9649L283.487 83.2061L288.531 88.5183L288.785 88.2771L283.741 82.9649Z" fill="#969696"/>
<path d="M282.373 86.5485L282.454 86.8887L289.58 85.1922L289.499 84.852L282.373 86.5485Z" fill="#969696"/>
<path d="M287.982 80.1501C284.831 79.1503 281.465 80.894 280.466 84.0459C279.465 87.1978 281.21 90.5629 284.361 91.5632C287.513 92.5635 290.878 90.8193 291.878 87.667C292.879 84.5156 291.134 81.1504 287.982 80.1501ZM284.614 90.7645C281.904 89.9043 280.404 87.0098 281.263 84.2995C282.124 81.5892 285.019 80.0892 287.729 80.9493C290.439 81.8095 291.939 84.704 291.079 87.4143C290.219 90.1242 287.325 91.6242 284.614 90.7645Z" fill="black" stroke="black" stroke-miterlimit="10"/>
<path d="M286.709 80.7348C286.734 80.7386 287.43 80.875 287.268 81.4229C287.106 81.9714 286.969 82.4092 286.969 82.4092C286.969 82.4092 286.8 82.8568 287.059 82.9389C287.084 82.9468 287.272 83.0068 287.293 83.0134C287.509 83.0818 287.596 82.8301 287.66 82.6192C287.73 82.3909 287.97 81.685 287.97 81.685C287.97 81.685 288.171 81.2204 288.684 81.3831C289.21 81.5495 288.635 81.1576 288.635 81.1576L286.977 80.6396L286.709 80.7348Z" fill="black" stroke="black" stroke-miterlimit="10"/>
<path d="M281.943 82.9236C281.96 82.9039 282.408 82.37 282.803 82.7844C283.197 83.1983 283.47 83.4946 283.47 83.4946C283.47 83.4946 283.736 83.825 283.936 83.6413C283.955 83.6235 284.102 83.4908 284.118 83.4758C284.284 83.323 284.147 83.1627 283.998 83.0014C283.835 82.8266 283.362 82.2866 283.362 82.2866C283.362 82.2866 283.001 81.8652 283.422 81.53C283.852 81.1879 283.252 81.463 283.252 81.463L281.977 82.6414L281.943 82.9236Z" fill="black" stroke="black" stroke-miterlimit="10"/>
<path d="M281.505 88.0252C281.496 88.0018 281.259 87.3455 281.814 87.2115C282.371 87.0774 282.762 86.9893 282.762 86.9893C282.762 86.9893 283.182 86.9241 283.123 86.6584C283.117 86.6326 283.075 86.4395 283.07 86.4179C283.022 86.1971 282.815 86.236 282.6 86.2852C282.367 86.3382 281.663 86.4784 281.663 86.4784C281.663 86.4784 281.146 86.4999 281.03 85.9745C280.912 85.4354 280.894 86.1619 280.894 86.1619L281.277 87.8551L281.505 88.0252Z" fill="black"/>
<path d="M285.851 90.9934C285.826 90.9892 285.139 90.8669 285.301 90.3184C285.463 89.7704 285.594 89.3504 285.594 89.3504C285.594 89.3504 285.759 88.9201 285.499 88.8376C285.474 88.8297 285.286 88.7701 285.265 88.7631C285.049 88.6947 284.967 88.929 284.903 89.1395C284.832 89.3683 284.596 90.0658 284.596 90.0658C284.596 90.0658 284.328 90.5645 283.804 90.3953C283.28 90.2256 283.933 90.5865 283.933 90.5865L285.591 91.1036L285.851 90.9934Z" fill="black" stroke="black" stroke-miterlimit="10"/>
<path d="M290.434 88.7579C290.418 88.7776 289.969 89.311 289.575 88.8971C289.181 88.4828 288.908 88.1865 288.908 88.1865C288.908 88.1865 288.643 87.8565 288.442 88.0398C288.423 88.0576 288.276 88.1907 288.26 88.2057C288.093 88.3581 288.23 88.5184 288.38 88.6796C288.543 88.855 289.016 89.395 289.016 89.395C289.016 89.395 289.29 89.8553 288.893 90.2181C288.485 90.5903 289.126 90.219 289.126 90.219L290.401 89.0406L290.434 88.7579Z" fill="black" stroke="black" stroke-miterlimit="10"/>
<path d="M290.793 83.5791C290.802 83.6025 291.039 84.2588 290.484 84.3929C289.928 84.5269 289.536 84.6155 289.536 84.6155C289.042 84.6919 289.213 85.1138 289.175 84.9455C289.169 84.9202 289.223 85.1639 289.228 85.1864C289.276 85.4072 289.484 85.3688 289.698 85.3191C289.931 85.2657 290.636 85.126 290.636 85.126C290.636 85.126 291.191 85.1382 291.307 85.6632C291.426 86.2027 291.405 85.4419 291.405 85.4419L291.021 83.7488L290.793 83.5791Z" fill="black" stroke="black" stroke-miterlimit="10"/>
<path d="M286.662 84.5768C285.944 84.3495 285.179 84.746 284.951 85.4632C284.724 86.1804 285.12 86.9463 285.838 87.1737C286.554 87.4005 287.32 87.004 287.548 86.2868C287.775 85.5701 287.378 84.8046 286.662 84.5768ZM286.042 86.5277C285.682 86.4134 285.482 86.0285 285.597 85.668C285.711 85.3076 286.095 85.1084 286.456 85.2227C286.817 85.3371 287.015 85.7215 286.901 86.082C286.787 86.4424 286.402 86.6421 286.042 86.5277Z" fill="#969696"/>
<path d="M286.279 86.5872C286.711 86.5872 287.061 86.2374 287.061 85.8058C287.061 85.3743 286.711 85.0244 286.279 85.0244C285.848 85.0244 285.498 85.3743 285.498 85.8058C285.498 86.2374 285.848 86.5872 286.279 86.5872Z" fill="black"/>
<path d="M285.87 91.6613C285.87 91.6613 286.973 97.0248 285.512 96.5691C284.053 96.1126 284.552 95.7024 282.673 95.2093C280.794 94.7157 281.257 95.6391 279.112 94.4157C276.967 93.1904 275.931 93.6502 276.62 92.5707C277.311 91.493 278.835 89.6738 278.835 89.6738L285.87 91.6613Z" fill="#EF45B7"/>
<path d="M278.782 89.7975C278.782 89.7975 278.425 85.9861 278.279 85.005C278.007 83.168 279.068 79.2563 279.025 78.556C278.981 77.8542 279.027 77.1155 279.856 78.1069C280.685 79.0992 280.148 82.6303 279.93 84.3961C279.712 86.1605 280.776 88.2263 280.847 88.7855C280.916 89.3456 279.909 88.5956 279.909 88.5956L278.782 89.7975Z" fill="#996234"/>
<path d="M285.862 92.1502C285.862 92.1502 288.502 88.8985 289.002 88.0416C289.939 86.4376 290.411 82.4133 290.712 81.7786C291.013 81.144 291.247 80.4408 290.108 81.0526C288.97 81.6647 288.152 85.1415 287.696 86.8613C287.242 88.5807 284.985 89.6686 284.712 90.1613C284.439 90.6549 286.153 90.7669 286.153 90.7669L285.862 92.1502Z" fill="#996234"/>
<path d="M290.463 86.7824C290.463 86.7824 292.653 82.2407 290.193 80.4847C288.076 78.9726 286.526 77.3966 284.127 77.9019C281.727 78.4077 280.926 77.6202 279.923 79.7797C278.972 81.8272 276.967 83.1768 278.854 83.518C280.074 83.7383 277.618 89.788 277.941 89.9305C280.348 90.9871 285.953 92.4435 286.259 92.579C286.395 92.6394 287.759 87.0486 287.888 87.0932C289.758 87.7541 290.463 86.7824 290.463 86.7824Z" fill="#8BC7E8"/>
<path d="M287.14 71.5762C287.14 71.5762 286.251 74.1693 285.296 77.3423C284.654 79.4751 286.177 80.1871 287.329 79.7315C288.815 79.1446 289.051 75.4302 289.396 74.7895C289.742 74.1477 287.14 71.5762 287.14 71.5762Z" fill="#996234"/>
<path d="M286.443 77.8112C286.443 77.8112 284.43 76.8976 285.408 74.9054C286.383 72.9132 285.715 70.9773 287.409 70.9313C289.009 70.8887 290.368 69.9723 290.466 71.9256C290.564 73.8788 290.74 74.9551 289.88 76.0337C289.02 77.1137 289.023 77.4442 288.178 78.032C287.333 78.6212 286.443 77.8112 286.443 77.8112Z" fill="#301705"/>
<path d="M287.7 95.1926C287.7 95.1926 288.803 100.556 287.342 100.1C285.882 99.6443 286.381 99.2341 284.503 98.7401C282.624 98.247 283.087 99.1704 280.942 97.947C278.797 96.7216 277.762 97.181 278.451 96.1015C279.141 95.0238 280.665 93.2051 280.665 93.2051L287.7 95.1926Z" fill="#EF45B7"/>
<path d="M292.121 89.1777C292.121 89.1777 291.812 92.9938 291.786 93.9848C291.743 95.5813 290.466 98.5143 290.057 99.7504C289.989 99.9529 291.626 100.638 291.615 100.736C291.536 101.435 289.434 100.967 289.038 100.506C288.489 99.8676 289.535 96.0004 290.056 94.2998C290.575 92.5996 289.885 90.3805 289.912 89.818C289.941 89.2546 290.803 90.1673 290.803 90.1673L292.121 89.1777Z" fill="#996234"/>
<path d="M281.722 85.2432C281.722 85.2432 279.535 88.8155 279.152 89.731C278.508 91.2727 278.495 94.7044 278.343 95.8669C278.326 95.9967 276.871 96.1646 276.801 96.1589C275.598 96.0647 278.227 97.7006 279.275 96.9441C280.321 96.1866 280.378 92.4933 280.602 90.7285C280.825 88.965 282.918 87.5874 283.124 87.0633C283.33 86.5378 281.615 86.6532 281.615 86.6532L281.722 85.2432Z" fill="#996234"/>
<path d="M292.292 90.3146C292.292 90.3146 294.483 85.7729 292.023 84.0165C289.906 82.5048 288.356 80.9288 285.956 81.4342C283.556 81.9395 282.756 81.1524 281.753 83.3115C280.801 85.3595 278.797 86.7085 280.684 87.0498C281.903 87.2701 279.448 93.3198 279.771 93.4623C282.178 94.5188 287.783 95.9757 288.089 96.1112C288.225 96.1721 289.588 90.5804 289.718 90.6254C291.588 91.2854 292.292 90.3146 292.292 90.3146Z" fill="#8BC7E8"/>
<path d="M288.969 75.1084C288.969 75.1084 288.082 77.7015 287.127 80.874C286.485 83.0073 288.008 83.7189 289.159 83.2637C290.644 82.6768 290.881 78.9625 291.227 78.3217C291.572 77.68 288.969 75.1084 288.969 75.1084Z" fill="#996234"/>
<path d="M288.272 81.3426C288.272 81.3426 286.26 80.4286 287.238 78.4368C288.213 76.4446 287.544 74.5087 289.239 74.4628C290.839 74.4196 292.199 73.5037 292.296 75.457C292.394 77.4103 292.57 78.4865 291.71 79.5642C290.85 80.6442 290.853 80.9751 290.009 81.5629C289.163 82.1526 288.272 81.3426 288.272 81.3426Z" fill="#301705"/>
<path d="M301.551 99.5871C301.551 99.5871 302.654 104.951 301.193 104.494C299.733 104.038 300.233 103.628 298.354 103.135C296.476 102.641 296.938 103.564 294.792 102.341C292.648 101.116 291.613 101.576 292.302 100.496C292.992 99.4184 294.516 97.5996 294.516 97.5996L301.551 99.5871Z" fill="#EF45B7"/>
<path d="M305.972 93.5723C305.972 93.5723 305.663 97.3879 305.637 98.3793C305.594 99.9754 304.316 102.909 303.908 104.145C303.84 104.347 305.477 105.033 305.466 105.131C305.387 105.829 303.286 105.362 302.889 104.901C302.341 104.262 303.385 100.395 303.907 98.6943C304.426 96.9941 303.736 94.7755 303.763 94.2121C303.792 93.6487 304.653 94.5613 304.653 94.5613L305.972 93.5723Z" fill="#996234"/>
<path d="M295.572 89.6377C295.572 89.6377 293.386 93.21 293.003 94.1255C292.359 95.6668 292.345 99.0989 292.193 100.261C292.176 100.39 290.721 100.558 290.651 100.553C289.449 100.459 292.077 102.095 293.125 101.338C294.171 100.581 294.228 96.8874 294.453 95.1225C294.675 93.3586 296.769 91.9814 296.974 91.4574C297.18 90.9314 295.465 91.0472 295.465 91.0472L295.572 89.6377Z" fill="#996234"/>
<path d="M306.144 94.7092C306.144 94.7092 308.334 90.167 305.875 88.4115C303.756 86.8993 302.207 85.3234 299.807 85.8287C297.407 86.3345 296.607 85.547 295.603 87.7065C294.653 89.754 292.648 91.1035 294.535 91.4448C295.755 91.6651 293.299 97.7148 293.622 97.8573C296.028 98.9138 301.634 100.371 301.94 100.506C302.077 100.567 303.439 94.9759 303.569 95.0204C305.439 95.6804 306.144 94.7092 306.144 94.7092Z" fill="#8BC7E8"/>
<path d="M302.821 79.5029C302.821 79.5029 301.932 82.0956 300.978 85.2686C300.335 87.4014 301.859 88.1134 303.009 87.6578C304.495 87.0714 304.732 83.357 305.077 82.7157C305.423 82.0745 302.821 79.5029 302.821 79.5029Z" fill="#996234"/>
<path d="M302.124 85.7374C302.124 85.7374 300.111 84.8234 301.089 82.8317C302.064 80.8395 301.395 78.9035 303.091 78.8571C304.69 78.8145 306.05 77.8981 306.147 79.8513C306.244 81.8046 306.421 82.8804 305.561 83.959C304.701 85.039 304.705 85.3699 303.86 85.9578C303.015 86.547 302.124 85.7374 302.124 85.7374Z" fill="#301705"/>
<path d="M286.165 110.256C285.815 111.34 277.996 122.487 276.913 122.135L272.312 120.631C271.23 120.281 270.471 106.379 270.82 105.295L274.35 94.3358C274.699 93.2525 275.863 92.6572 276.946 93.0078L288.367 96.6992C289.45 97.0494 290.044 98.2114 289.694 99.2956L286.165 110.256Z" fill="#394963"/>
<path d="M266.445 107.92C266.553 107.581 266.365 107.218 265.579 106.969L250.404 102.154C250.512 102.189 250.15 102.376 250.042 102.715C249.934 103.055 250.123 103.418 250.462 103.525L265.637 108.339C265.975 108.447 266.338 108.259 266.445 107.92Z" fill="#FF0000"/>
<path d="M304.91 120.124C305.018 119.785 304.83 119.423 304.491 119.315L289.316 114.5C288.977 114.392 288.614 114.58 288.506 114.919C288.399 115.259 288.587 115.621 288.925 115.729L304.101 120.544C304.44 120.651 304.803 120.464 304.91 120.124Z" fill="#FF0000"/>
<path d="M64.8772 96.7877L63.8516 96.2852C63.8516 96.2852 91.7117 70.3788 123.793 96.1544C123.705 96.9748 64.8772 96.7877 64.8772 96.7877Z" fill="#D1D1D1"/>
<path d="M67.2743 116.049H120.996L123.792 96.1543L63.8506 96.2851L67.2743 116.049Z" fill="#D1D1D1"/>
<path d="M114.828 89.8262H73.7539V97.7949H114.828V89.8262Z" fill="#D1D1D1"/>
<path d="M84.6903 77.1846C84.6875 77.2099 85.0184 76.7688 85.0184 76.7688C85.8406 75.9715 87.6795 73.8293 87.6795 73.8293L93.6411 73.8091L100.222 73.8354C100.222 73.8354 102.06 75.987 102.883 76.7834C102.883 76.7834 103.139 77.2085 103.138 77.1837C103.138 73.1515 101.883 70.8457 98.6914 70.8457H89.3539C85.9798 70.9732 84.6509 73.2176 84.6903 77.1846Z" fill="#29ABE2"/>
<path d="M84.5618 99.9043C84.5618 103.011 86.9154 105.529 89.8183 105.529H98.2783C101.181 105.529 103.535 103.011 103.535 99.9043V78.8105C103.535 75.7041 101.181 73.1855 98.2783 73.1855H89.8183C86.9154 73.1855 84.5618 75.7041 84.5618 78.8105V99.9043Z" fill="#D1D1D1"/>
<path d="M72.9843 92.9327C72.9843 93.4173 73.3771 93.8106 73.8622 93.8106H114.284C114.769 93.8106 115.162 93.4178 115.162 92.9327C115.162 92.4475 114.769 92.0547 114.284 92.0547H73.8622C73.3775 92.0547 72.9843 92.448 72.9843 92.9327Z" fill="#E8CDA0"/>
<path d="M91.5307 77.7352L91.3619 78.042L97.7799 81.5737L97.9487 81.2669L91.5307 77.7352Z" fill="#969696"/>
<path d="M91.332 81.5474L91.5121 81.8477L97.7937 78.0798L97.6136 77.7795L91.332 81.5474Z" fill="#969696"/>
<path d="M94.7388 73.7637C91.4323 73.7637 88.752 76.444 88.752 79.7505C88.752 83.0571 91.4323 85.7374 94.7388 85.7374C98.0454 85.7374 100.726 83.0571 100.726 79.7505C100.726 76.444 98.0449 73.7637 94.7388 73.7637ZM94.7388 84.8993C91.8954 84.8993 89.5901 82.5945 89.5901 79.7505C89.5901 76.9071 91.8954 74.6018 94.7388 74.6018C97.5822 74.6018 99.8876 76.9071 99.8876 79.7505C99.8871 82.5945 97.5822 84.8993 94.7388 84.8993Z" fill="black" stroke="black" stroke-miterlimit="10"/>
<path d="M93.7019 74.7059C93.7267 74.7022 94.4313 74.6215 94.443 75.1929C94.4547 75.7648 94.4566 76.2228 94.4566 76.2228C94.4566 76.2228 94.4299 76.7009 94.7022 76.7009C94.728 76.7009 94.9258 76.7009 94.9478 76.7009C95.1742 76.7009 95.1808 76.4347 95.1789 76.2143C95.1771 75.9753 95.1911 75.23 95.1911 75.23C95.1911 75.23 95.2427 74.7265 95.7808 74.7265C96.333 74.7265 95.6655 74.5264 95.6655 74.5264L93.9292 74.5339L93.7019 74.7059Z" fill="black" stroke="black" stroke-miterlimit="10"/>
<path d="M89.8216 78.2339C89.831 78.2104 90.0977 77.5659 90.5988 77.8415C91.0999 78.1172 91.4491 78.3168 91.4491 78.3168C91.4491 78.3168 91.8021 78.5512 91.938 78.3154C91.9507 78.2929 92.0501 78.1218 92.0613 78.1026C92.1743 77.9067 91.9948 77.7956 91.8035 77.6873C91.5954 77.5696 90.9813 77.1984 90.9813 77.1984C90.9813 77.1984 90.5097 76.9059 90.8093 76.4592C91.1158 76.0026 90.6269 76.4465 90.6269 76.4465L89.7682 77.9554L89.8216 78.2339Z" fill="black" stroke="black" stroke-miterlimit="10"/>
<path d="M90.9466 83.2297C90.9311 83.21 90.5064 82.6564 90.9953 82.3606C91.4842 82.0648 91.832 81.8619 91.832 81.8619C91.832 81.8619 92.2117 81.6734 92.0758 81.4381C92.0626 81.4152 91.9642 81.2441 91.953 81.2248C91.84 81.0289 91.6539 81.1283 91.4645 81.2403C91.2587 81.3617 90.6297 81.7081 90.6297 81.7081C90.6297 81.7081 90.1436 81.8848 89.875 81.4194C89.5989 80.9412 89.8014 81.6388 89.8014 81.6388L90.6789 83.1369L90.9466 83.2297Z" fill="black"/>
<path d="M95.9868 84.744C95.9619 84.7473 95.2701 84.8387 95.2583 84.2673C95.2466 83.6959 95.2448 83.2557 95.2448 83.2557C95.2448 83.2557 95.2715 82.7959 94.9991 82.7959C94.9729 82.7959 94.7755 82.7959 94.7535 82.7959C94.5271 82.7959 94.5205 83.0439 94.5224 83.2642C94.5243 83.5032 94.5097 84.2396 94.5097 84.2396C94.5097 84.2396 94.4057 84.7965 93.8554 84.7932C93.3032 84.7904 94.0358 84.9367 94.0358 84.9367L95.7721 84.9278L95.9868 84.744Z" fill="black" stroke="black" stroke-miterlimit="10"/>
<path d="M99.68 81.2269C99.6706 81.2499 99.4039 81.8949 98.9028 81.6192C98.4017 81.3436 98.0525 81.1439 98.0525 81.1439C98.0525 81.1439 97.6995 80.9096 97.5636 81.1449C97.5505 81.1674 97.4516 81.3385 97.4403 81.3577C97.3273 81.5536 97.5069 81.6652 97.6981 81.7735C97.9062 81.8911 98.5203 82.2628 98.5203 82.2628C98.5203 82.2628 98.9211 82.6186 98.652 83.0846C98.3759 83.5627 98.8747 83.0147 98.8747 83.0147L99.7334 81.5058L99.68 81.2269Z" fill="black" stroke="black" stroke-miterlimit="10"/>
<path d="M98.4545 76.1816C98.47 76.2013 98.8947 76.7549 98.4058 77.0507C97.9169 77.3465 97.5686 77.5495 97.5686 77.5495C97.1214 77.7716 97.4115 78.1223 97.3253 77.9732C97.3122 77.9507 97.4368 78.1673 97.4481 78.1865C97.5611 78.382 97.7472 78.2826 97.937 78.1705C98.1428 78.0491 98.7718 77.7027 98.7718 77.7027C98.7718 77.7027 99.3053 77.5462 99.5744 78.0121C99.85 78.4902 99.6006 77.7721 99.6006 77.7721L98.7226 76.274L98.4545 76.1816Z" fill="black" stroke="black" stroke-miterlimit="10"/>
<path d="M94.8179 78.3828C94.0656 78.3828 93.4557 78.9927 93.4557 79.745C93.4557 80.4973 94.0656 81.1072 94.8179 81.1072C95.5698 81.1072 96.1801 80.4973 96.1801 79.745C96.1797 78.9931 95.5698 78.3828 94.8179 78.3828ZM94.8179 80.4298C94.4397 80.4298 94.1336 80.1233 94.1336 79.7455C94.1336 79.3677 94.4401 79.0611 94.8179 79.0611C95.1958 79.0611 95.5023 79.3677 95.5023 79.7455C95.5023 80.1233 95.1958 80.4298 94.8179 80.4298Z" fill="#969696"/>
<path d="M94.826 80.4524C95.2578 80.4524 95.6079 80.1024 95.6079 79.6705C95.6079 79.2387 95.2578 78.8887 94.826 78.8887C94.3942 78.8887 94.0441 79.2387 94.0441 79.6705C94.0441 80.1024 94.3942 80.4524 94.826 80.4524Z" fill="black"/>
<path d="M96.2072 85.374C96.2072 85.374 98.881 90.1529 97.35 90.16C95.8205 90.167 96.1725 89.6246 94.2329 89.7221C92.2936 89.8196 93.0136 90.5603 90.5986 90.0428C88.1836 89.5239 87.3357 90.2748 87.6666 89.0373C87.998 87.8021 88.9003 85.6075 88.9003 85.6075L96.2072 85.374Z" fill="#EF45B7"/>
<path d="M88.8876 85.7422C88.8876 85.7422 87.3941 82.2172 86.9587 81.3261C86.1431 79.6569 85.9715 75.6083 85.7184 74.9534C85.4648 74.2981 85.2862 73.5795 86.3751 74.2738C87.4645 74.9689 88.0213 78.4972 88.3476 80.2461C88.6734 81.9941 90.3126 83.6408 90.5493 84.1522C90.7841 84.665 89.5977 84.2548 89.5977 84.2548L88.8876 85.7422Z" fill="#996234"/>
<path d="M96.3473 85.8443C96.3473 85.8443 97.8796 81.9466 98.0976 80.9786C98.5049 79.1665 97.7385 75.1877 97.8337 74.4916C97.9288 73.796 97.9387 73.0554 97.0382 73.9826C96.1392 74.9102 96.4101 78.4718 96.4963 80.2483C96.584 82.0244 94.761 83.7443 94.6499 84.2965C94.5384 84.8496 96.2071 84.4376 96.2071 84.4376L96.3473 85.8443Z" fill="#996234"/>
<path d="M99.1092 79.3355C99.1092 79.3355 99.8226 74.3438 96.9478 73.4142C94.4723 72.6136 92.5181 71.58 90.3834 72.7875C88.2487 73.9955 87.2479 73.4874 86.9446 75.8489C86.6573 78.0882 85.1549 79.9805 87.0562 79.7353C88.2857 79.5769 87.7748 86.0855 88.1259 86.1235C90.7387 86.4028 96.5217 86.0963 96.855 86.1328C97.0036 86.1492 96.6117 80.4075 96.7481 80.4113C98.7309 80.4741 99.1092 79.3355 99.1092 79.3355Z" fill="#8BC7E8"/>
<path d="M91.3428 65.8467C91.3428 65.8467 91.2805 68.587 91.3297 71.8997C91.363 74.1272 93.0299 74.3451 93.9899 73.5628C95.2283 72.554 94.3302 68.9423 94.4657 68.227C94.6011 67.5112 91.3428 65.8467 91.3428 65.8467Z" fill="#996234"/>
<path d="M92.564 72.0002C92.564 72.0002 90.3689 71.7377 90.6989 69.5435C91.0265 67.3497 89.8031 65.7063 91.4048 65.1504C92.9165 64.6254 93.9351 63.341 94.6186 65.1733C95.302 67.0057 95.7961 67.9779 95.302 69.2655C94.8089 70.555 94.912 70.8691 94.2848 71.6852C93.6586 72.5022 92.564 72.0002 92.564 72.0002Z" fill="#301705"/>
<path d="M83.0822 88.1865C83.0822 88.1865 85.7559 92.9654 84.225 92.9725C82.6954 92.9795 83.0475 92.4372 81.1078 92.5347C79.1686 92.6322 79.8886 93.3728 77.4736 92.8553C75.0586 92.3364 74.2106 93.0873 74.5415 91.8498C74.8729 90.6147 75.7753 88.42 75.7753 88.42L83.0822 88.1865Z" fill="#EF45B7"/>
<path d="M85.477 81.1172C85.477 81.1172 86.3367 84.8475 86.6114 85.8005C87.0529 87.3347 86.722 90.517 86.7065 91.8192C86.7042 92.0325 88.4714 92.1905 88.4901 92.2875C88.6261 92.977 86.4815 93.1669 85.9645 92.8472C85.2483 92.4047 85.0748 88.4025 85.0565 86.6236C85.0383 84.8461 83.7093 82.9397 83.565 82.395C83.422 81.8494 84.5198 82.4588 84.5198 82.4588L85.477 81.1172Z" fill="#996234"/>
<path d="M74.3741 80.5117C74.3741 80.5117 73.3705 84.5777 73.2824 85.5663C73.1348 87.2303 74.1599 90.5059 74.3662 91.6595C74.3891 91.7884 73.0532 92.3884 72.9848 92.4044C71.811 92.6777 74.8105 93.4427 75.5802 92.4044C76.349 91.3661 75.2868 87.8284 74.9662 86.0781C74.6446 84.3297 76.2243 82.3834 76.2613 81.8219C76.2988 81.2584 74.699 81.8875 74.699 81.8875L74.3741 80.5117Z" fill="#996234"/>
<path d="M85.9842 82.148C85.9842 82.148 86.6976 77.1563 83.8228 76.2267C81.3473 75.4261 79.3931 74.3925 77.2584 75.6C75.1237 76.808 74.1229 76.2999 73.8196 78.6614C73.5323 80.9007 72.0299 82.793 73.9312 82.5478C75.1607 82.3894 74.6498 88.898 75.0009 88.936C77.6137 89.2153 83.3967 88.9088 83.7299 88.9453C83.8785 88.9617 83.4867 83.22 83.6231 83.2238C85.6059 83.2866 85.9842 82.148 85.9842 82.148Z" fill="#8BC7E8"/>
<path d="M78.2178 68.6592C78.2178 68.6592 78.1554 71.3995 78.2047 74.7122C78.2379 76.9397 79.9048 77.1576 80.8648 76.3753C82.1032 75.3665 81.2051 71.7548 81.3406 71.0395C81.4761 70.3237 78.2178 68.6592 78.2178 68.6592Z" fill="#996234"/>
<path d="M79.439 74.8127C79.439 74.8127 77.2438 74.5502 77.5738 72.356C77.9015 70.1622 76.678 68.5188 78.2798 67.9629C79.7915 67.4379 80.8101 66.1535 81.4935 67.9858C82.1769 69.8182 82.671 70.7904 82.1769 72.078C81.6838 73.3675 81.7869 73.6816 81.1598 74.4977C80.5335 75.3147 79.439 74.8127 79.439 74.8127Z" fill="#301705"/>
<path d="M112.145 88.1865C112.145 88.1865 114.818 92.9654 113.287 92.9725C111.758 92.9795 112.11 92.4372 110.17 92.5347C108.231 92.6322 108.951 93.3728 106.536 92.8553C104.121 92.3364 103.273 93.0873 103.604 91.8498C103.935 90.6147 104.838 88.42 104.838 88.42L112.145 88.1865Z" fill="#EF45B7"/>
<path d="M114.54 81.1172C114.54 81.1172 115.399 84.8475 115.674 85.8005C116.115 87.3347 115.785 90.517 115.769 91.8192C115.767 92.0325 117.534 92.1905 117.553 92.2875C117.689 92.977 115.544 93.1669 115.027 92.8472C114.311 92.4047 114.137 88.4025 114.119 86.6236C114.101 84.8461 112.772 82.9397 112.627 82.395C112.484 81.8494 113.582 82.4588 113.582 82.4588L114.54 81.1172Z" fill="#996234"/>
<path d="M103.437 80.5117C103.437 80.5117 102.433 84.5777 102.345 85.5663C102.197 87.2303 103.222 90.5059 103.429 91.6595C103.452 91.7884 102.116 92.3884 102.047 92.4044C100.874 92.6777 103.873 93.4427 104.643 92.4044C105.411 91.3661 104.349 87.8284 104.029 86.0781C103.707 84.3297 105.287 82.3834 105.324 81.8219C105.361 81.2584 103.761 81.8875 103.761 81.8875L103.437 80.5117Z" fill="#996234"/>
<path d="M115.047 82.148C115.047 82.148 115.76 77.1563 112.885 76.2267C110.41 75.4261 108.456 74.3925 106.321 75.6C104.186 76.808 103.185 76.2999 102.882 78.6614C102.595 80.9007 101.092 82.793 102.994 82.5478C104.223 82.3894 103.712 88.898 104.063 88.936C106.676 89.2153 112.459 88.9088 112.792 88.9453C112.941 88.9617 112.549 83.22 112.686 83.2238C114.668 83.2866 115.047 82.148 115.047 82.148Z" fill="#8BC7E8"/>
<path d="M107.28 68.6592C107.28 68.6592 107.218 71.3995 107.267 74.7122C107.3 76.9397 108.967 77.1576 109.927 76.3753C111.166 75.3665 110.268 71.7548 110.403 71.0395C110.539 70.3237 107.28 68.6592 107.28 68.6592Z" fill="#996234"/>
<path d="M108.501 74.8127C108.501 74.8127 106.306 74.5502 106.636 72.356C106.964 70.1622 105.741 68.5188 107.342 67.9629C108.854 67.4379 109.873 66.1535 110.556 67.9858C111.239 69.8182 111.734 70.7904 111.239 72.078C110.746 73.3675 110.849 73.6816 110.222 74.4977C109.596 75.3147 108.501 74.8127 108.501 74.8127Z" fill="#301705"/>
<path d="M102.111 103.01C102.106 104.149 98.0242 117.138 96.8856 117.131L92.0448 117.089C90.9076 117.082 85.9797 104.062 85.9853 102.923L86.0345 91.4092C86.0406 90.2706 86.9692 89.3514 88.1078 89.3584L100.11 89.4231C101.249 89.4292 102.167 90.3569 102.16 91.4964L102.111 103.01Z" fill="#394963"/>
<path d="M82.6085 106.746C82.6085 106.39 82.3197 106.102 81.4952 106.102H65.575C65.688 106.102 65.3992 106.39 65.3992 106.746C65.3992 107.102 65.688 107.391 66.0438 107.391H81.9639C82.3197 107.391 82.6085 107.102 82.6085 106.746Z" fill="#FF0000"/>
<path d="M122.964 106.746C122.964 106.39 122.675 106.102 122.319 106.102H106.399C106.043 106.102 105.754 106.39 105.754 106.746C105.754 107.102 106.043 107.391 106.399 107.391H122.319C122.675 107.391 122.964 107.102 122.964 106.746Z" fill="#FF0000"/>
<path d="M383.744 115.607H-10.0061V381.389H383.744V115.607Z" fill="#8BF6FF"/>
<path d="M-33.4436 184.279H384.681" stroke="white" stroke-width="3" stroke-miterlimit="10" stroke-dasharray="10 10"/>
<path d="M188.041 -5.33008V426.389" stroke="white" stroke-width="3" stroke-miterlimit="10" stroke-dasharray="10 10"/>
<path d="M253.378 348.783H310.723L311.78 280.476C311.78 280.476 317.071 223.857 281.953 204.422C247.99 223.087 251.838 279.056 251.838 279.056L253.378 348.783Z" fill="#D1D1D1"/>
<path d="M281.754 219.21C281.754 219.21 306.585 218.255 307.45 267.744C308.316 317.234 304.888 322.493 304.888 322.493H258.765L256.606 307.464V264.916C256.605 264.914 258.1 220.714 281.754 219.21Z" fill="#F4F4F4"/>
<path d="M282.049 218.905C262.86 218.542 256.785 243.073 255.243 266.244L255.878 304.633L256.841 332.343L271.754 335.806L274.16 332.945L290.131 333.016C290.131 333.016 292.151 335.422 292.632 335.422C295.342 335.422 307.259 332.151 307.259 332.151C307.259 332.151 307.685 313.337 307.884 304.871C307.891 304.583 308.98 266.721 308.965 266.244C308.147 243.118 302.915 219.303 282.049 218.905ZM307.016 304.056C307.113 304.682 304.563 330.322 304.563 330.322C304.563 330.322 294.595 332.168 292.036 332.168C291.581 332.168 289.676 329.869 289.676 329.869L274.597 329.801L272.326 332.536L259.053 330.324L256.84 304.088C256.52 281.317 256.967 280.996 256.84 266.244C258.594 243.64 265.501 219.627 282.304 220.061C299.004 220.493 305.771 243.901 307.258 266.244C307.247 267.11 306.824 303.671 307.016 304.056Z" fill="#E8E8E8"/>
<path d="M282.254 264.52L282.264 264.29L274.615 265.43L271.494 268.629C269.762 269.88 269.43 276.181 269.43 276.181V287.871L270.64 290.42L279.184 288.928L282.307 284.105L282.255 280.099L282.254 264.52Z" fill="white"/>
<path d="M282.098 264.521L282.264 264.29L289.47 265.43L292.534 268.629C294.265 269.88 294.54 276.181 294.54 276.181V287.871L293.445 290.42L284.96 288.928L281.943 284.105L282.09 280.099L282.098 264.521Z" fill="white"/>
<path d="M293.402 284.879C293.378 284.518 289.986 279.193 289.986 279.193L274.577 279.031L270.713 284.524V285.295V285.679V286.063V290.43H293.402C293.402 290.431 293.426 285.241 293.402 284.879Z" fill="#C6C6C6"/>
<path d="M290.347 357.338C290.341 358.477 289.413 359.396 288.274 359.389L276.272 359.325C275.134 359.318 274.215 358.389 274.22 357.25L274.32 338.813C274.326 337.674 275.254 336.755 276.394 336.762L288.395 336.826C289.534 336.833 290.452 337.76 290.446 338.9L290.347 357.338Z" fill="#394963"/>
<path d="M291.03 274.4H283.252H280.286H273.278C273.278 274.4 271.031 277.536 270.665 285.308C270.662 285.353 271.065 285.391 271.065 285.391C272.086 283.954 274.369 280.096 274.369 280.096L281.769 280.06L289.939 280.107C289.939 280.107 292.22 283.984 293.241 285.418C293.241 285.418 293.645 285.353 293.643 285.308C293.275 277.534 291.03 274.4 291.03 274.4Z" fill="#29ABE2"/>
<path d="M273.63 288.603C273.63 291.73 283.937 291.956 283.937 288.574C283.937 285.603 273.63 285.324 273.63 288.603ZM274.527 288.568C274.527 286.332 283.04 286.525 283.04 288.549C283.04 290.853 274.527 290.699 274.527 288.568Z" fill="black"/>
<path d="M277.491 286.858C277.491 286.858 277.515 287.832 278.681 287.819C279.848 287.808 279.69 286.942 279.716 286.858C279.74 286.773 277.491 286.858 277.491 286.858Z" fill="black"/>
<path d="M278.309 287.866L278.009 290.431H279.548L279.139 287.866H278.309Z" fill="black"/>
<path d="M279.355 287.147C279.38 287.147 283.119 288.782 283.119 288.782L283.265 287.82L279.476 286.689L279.355 287.147Z" fill="black"/>
<path d="M277.791 287.147C277.767 287.147 273.918 288.782 273.918 288.782V287.82L277.563 286.689L277.791 287.147Z" fill="black"/>
<path d="M307.259 266.244C307.259 266.244 294.655 266.34 291.864 252.966C289.075 239.592 287.439 221.215 287.245 220.829C287.054 220.446 305.912 225.064 307.259 266.244Z" fill="#E8CDA0"/>
<path d="M256.841 266.244C256.841 266.244 269.445 266.34 272.235 252.966C275.026 239.592 276.661 221.215 276.854 220.829C277.046 220.446 258.187 225.064 256.841 266.244Z" fill="#E8CDA0"/>
<path d="M257.803 318.681C257.803 318.681 256.881 315.58 259.92 316.66C269.927 320.221 293.5 320.99 304.082 316.469C306.3 315.522 306.266 316.081 306.2 317.575C306.15 318.697 304.565 330.322 304.565 330.322C304.565 330.322 286.476 337.25 259.055 330.322L257.803 318.681Z" fill="#E8CDA0"/>
<path d="M293.796 304.916C293.796 305.557 293.115 305.82 292.224 305.82H271.923C271.034 305.82 270.07 305.557 270.07 304.916V298.145C270.07 297.503 271.034 296.844 271.923 296.844H292.224C293.115 296.844 293.796 297.503 293.796 298.145V304.916H293.796Z" fill="#E8CDA0"/>
<path d="M274.38 292.024C274.38 292.024 275.477 290.66 275.988 292.831C276.499 295.003 277.497 297.174 277.497 297.174C277.497 297.174 279.831 296.498 280.149 295.858C280.467 295.22 280.2 292.31 282.224 291.579C284.248 290.848 285.163 290.389 284.298 293.447C283.435 296.506 283.12 298.665 283.12 298.665L274.701 300.539L274.38 292.504" fill="#996234"/>
<path d="M275.442 299.357C275.442 299.357 272.375 294.784 274.012 294.951C275.648 295.117 274.799 296.363 276.877 296.472C278.957 296.58 278.672 294.968 281.223 295.841C283.774 296.714 284.726 295.965 284.298 297.353C283.869 298.741 283.774 299.357 283.774 299.357H275.442Z" fill="#EF45B7"/>
<path d="M273.002 299.766C273.002 299.766 272.862 296.14 272.764 295.202C272.581 293.448 274.075 289.809 274.075 289.143C274.075 288.478 274.181 287.781 275.061 288.767C275.94 289.753 275.075 293.064 274.701 294.722C274.325 296.378 275.401 298.395 275.442 298.928C275.483 299.462 274.379 298.694 274.379 298.694L273.002 299.766Z" fill="#996234"/>
<path d="M284.398 299.997C284.398 299.997 285.536 296.14 285.633 295.202C285.816 293.448 284.323 289.809 284.323 289.143C284.323 288.478 284.218 287.781 283.338 288.767C282.457 289.753 283.321 293.064 283.696 294.722C284.073 296.378 282.264 298.228 282.223 298.76C282.183 299.295 284.019 298.693 284.019 298.693L284.398 299.997Z" fill="#996234"/>
<path d="M271.397 299.767C271.397 299.767 272.075 304.255 274.855 305.166C277.633 306.076 278.594 306.391 281.09 305.312C283.586 304.231 284.909 304.827 284.719 302.574C284.531 300.323 286.039 299.156 283.877 298.804C281.548 298.423 275.286 297.996 274.855 297.946C272.201 297.632 271.397 299.767 271.397 299.767Z" fill="#8BC7E8"/>
<path d="M278.171 305.166C278.171 305.166 275.648 304.918 276.027 302.837C276.404 300.757 275.298 299.997 277.08 299.347C278.861 298.694 279.746 296.957 280.532 298.694C281.318 300.431 281.886 301.353 281.318 302.574C280.751 303.796 280.87 304.093 280.149 304.868C279.429 305.643 278.171 305.166 278.171 305.166Z" fill="#301705"/>
<path d="M278.087 316.083C278.087 316.083 279.775 315.178 280.374 317.327C280.974 319.474 282.062 321.603 282.062 321.603C282.062 321.603 284.365 320.831 284.657 320.178C284.949 319.528 284.562 316.631 286.553 315.817C288.546 315.004 288.947 315.632 288.703 317.598C288.312 320.752 287.742 322.861 287.742 322.861L279.407 325.081L278.161 317.864C278.16 317.863 277.5 317.201 278.087 316.083Z" fill="#996234"/>
<path d="M278.187 323.905C278.187 323.905 276.844 319.404 278.486 319.504C280.128 319.602 279.744 320.203 281.826 320.226C283.907 320.249 283.144 319.343 285.729 320.111C288.314 320.878 289.233 320.07 288.863 321.475C288.492 322.88 288.423 323.48 288.423 323.48L278.187 323.905Z" fill="#EF45B7"/>
<path d="M276.073 324.446C276.073 324.446 276.938 328.903 279.752 329.696C282.567 330.491 283.539 330.765 285.989 329.584C288.438 328.401 289.784 328.941 289.502 326.7C289.219 324.458 290.679 323.228 288.504 322.966C286.162 322.683 279.887 322.515 279.453 322.482C276.788 322.279 276.073 324.446 276.073 324.446Z" fill="#8BC7E8"/>
<path d="M283.066 329.559C283.066 329.559 280.536 329.415 280.828 327.321C281.119 325.228 279.982 324.515 281.735 323.79C283.488 323.065 284.301 321.293 285.159 322.996C286.015 324.7 286.62 325.597 286.104 326.84C285.588 328.085 285.72 328.378 285.031 329.18C284.341 329.983 283.066 329.559 283.066 329.559Z" fill="#301705"/>
<path d="M291.882 315.958C291.882 315.958 293.321 314.697 294.391 316.654C295.461 318.61 297 320.437 297 320.437C297 320.437 299.07 319.165 299.207 318.464C299.344 317.765 298.313 315.03 300.069 313.787C301.826 312.544 302.36 313.067 302.566 315.036C302.896 318.198 302.818 320.379 302.818 320.379L295.199 324.424L292.356 317.675C292.356 317.676 291.563 317.18 291.882 315.958Z" fill="#996234"/>
<path d="M293.747 323.555C293.747 323.555 291.422 319.475 293.044 319.201C294.666 318.926 294.427 319.599 296.461 319.151C298.494 318.703 297.545 317.993 300.237 318.156C302.929 318.321 303.643 317.326 303.598 318.779C303.553 320.231 303.622 320.831 303.622 320.831L293.747 323.555Z" fill="#EF45B7"/>
<path d="M291.809 324.56C291.809 324.56 293.658 328.707 296.579 328.846C299.499 328.984 300.509 329.031 302.628 327.327C304.748 325.621 306.18 325.843 305.399 323.723C304.619 321.604 305.761 320.077 303.584 320.313C301.238 320.566 295.088 321.819 294.658 321.885C292.015 322.288 291.809 324.56 291.809 324.56Z" fill="#8BC7E8"/>
<path d="M299.776 327.962C299.776 327.962 297.278 328.393 297.09 326.287C296.901 324.182 295.633 323.743 297.177 322.642C298.721 321.54 299.112 319.63 300.331 321.095C301.552 322.561 302.342 323.298 302.12 324.627C301.898 325.955 302.092 326.211 301.603 327.148C301.115 328.088 299.776 327.962 299.776 327.962Z" fill="#301705"/>
<path d="M289.069 246.145C289.069 246.145 287.864 244.657 289.861 243.665C291.858 242.673 293.744 241.207 293.744 241.207C293.744 241.207 292.555 239.088 291.86 238.924C291.166 238.759 288.393 239.683 287.221 237.879C286.048 236.074 286.591 235.562 288.567 235.434C291.739 235.227 293.916 235.391 293.916 235.391L297.66 243.161L290.804 245.739C290.804 245.739 290.278 246.513 289.069 246.145Z" fill="#996234"/>
<path d="M296.733 244.579C296.733 244.579 292.565 246.743 292.354 245.111C292.144 243.48 292.806 243.745 292.438 241.695C292.071 239.646 291.324 240.567 291.592 237.882C291.862 235.199 290.896 234.448 292.345 234.549C293.795 234.651 294.397 234.606 294.397 234.606L296.733 244.579Z" fill="#EF45B7"/>
<path d="M297.661 246.555C297.661 246.555 301.877 244.87 302.129 241.957C302.382 239.043 302.469 238.037 300.849 235.852C299.228 233.669 299.505 232.246 297.357 232.943C295.209 233.639 293.727 232.438 293.878 234.623C294.039 236.976 295.049 243.171 295.098 243.604C295.399 246.26 297.661 246.555 297.661 246.555Z" fill="#8BC7E8"/>
<path d="M301.373 238.727C301.373 238.727 301.707 241.24 299.594 241.346C297.483 241.454 296.995 242.703 295.955 241.117C294.914 239.532 293.021 239.066 294.533 237.904C296.046 236.743 296.813 235.981 298.133 236.254C299.451 236.527 299.714 236.344 300.631 236.869C301.551 237.395 301.373 238.727 301.373 238.727Z" fill="#301705"/>
<path d="M296.189 267.079C296.189 267.079 294.521 266.139 296.013 264.481C297.504 262.823 298.718 260.765 298.718 260.765C298.718 260.765 296.832 259.233 296.125 259.337C295.42 259.439 293.181 261.319 291.427 260.075C289.672 258.828 289.988 258.151 291.779 257.305C294.651 255.944 296.736 255.296 296.736 255.296L303.078 261.141L297.654 266.062C297.653 266.062 297.448 266.975 296.189 267.079Z" fill="#996234"/>
<path d="M302.738 262.8C302.738 262.8 299.66 266.347 298.862 264.907C298.066 263.468 298.779 263.471 297.682 261.7C296.585 259.931 296.229 261.061 295.491 258.467C294.755 255.874 293.579 255.531 294.964 255.09C296.349 254.651 296.893 254.389 296.893 254.389L302.738 262.8Z" fill="#EF45B7"/>
<path d="M304.329 264.294C304.329 264.294 307.627 261.175 306.789 258.374C305.951 255.572 305.662 254.604 303.35 253.169C301.038 251.736 300.773 250.311 299.031 251.752C297.291 253.189 295.47 252.618 296.415 254.593C297.433 256.723 300.653 262.109 300.859 262.493C302.116 264.854 304.329 264.294 304.329 264.294Z" fill="#8BC7E8"/>
<path d="M304.897 255.65C304.897 255.65 306.132 257.865 304.207 258.74C302.283 259.618 302.291 260.959 300.739 259.867C299.188 258.776 297.257 259.04 298.234 257.403C299.212 255.767 299.646 254.776 300.973 254.544C302.3 254.312 302.476 254.046 303.523 254.196C304.571 254.346 304.897 255.65 304.897 255.65Z" fill="#301705"/>
<path d="M65.8775 348.783H123.222L124.28 280.476C124.28 280.476 129.57 223.857 94.453 204.422C60.4897 223.087 64.3377 279.056 64.3377 279.056L65.8775 348.783Z" fill="#D1D1D1"/>
<path d="M94.2537 219.21C94.2537 219.21 119.085 218.255 119.95 267.744C120.816 317.234 117.389 322.493 117.389 322.493H71.2653L69.1053 307.464V264.916C69.1053 264.914 70.5997 220.714 94.2537 219.21Z" fill="#F4F4F4"/>
<path d="M94.5497 218.905C75.3609 218.542 69.2845 243.073 67.7433 266.244L68.378 304.633L69.3408 332.343L84.2536 335.806L86.6597 332.945L102.631 333.016C102.631 333.016 104.65 335.422 105.132 335.422C107.843 335.422 119.76 332.151 119.76 332.151C119.76 332.151 120.185 313.337 120.384 304.871C120.391 304.583 121.481 266.721 121.465 266.244C120.647 243.118 115.415 219.303 94.5497 218.905ZM119.517 304.056C119.613 304.682 117.063 330.322 117.063 330.322C117.063 330.322 107.095 332.168 104.536 332.168C104.082 332.168 102.176 329.869 102.176 329.869L87.0966 329.801L84.8259 332.536L71.5533 330.324L69.3403 304.088C69.0202 281.317 69.4664 280.996 69.3403 266.244C71.0944 243.64 78.0009 219.627 94.8052 220.061C111.504 220.493 118.272 243.901 119.759 266.244C119.747 267.11 119.324 303.671 119.517 304.056Z" fill="#E8E8E8"/>
<path d="M94.7544 264.52L94.7643 264.29L87.1148 265.43L83.9938 268.629C82.2613 269.88 81.9299 276.181 81.9299 276.181V287.871L83.1402 290.42L91.6837 288.928L94.8069 284.105L94.7549 280.099L94.7544 264.52Z" fill="white"/>
<path d="M94.5978 264.521L94.7642 264.29L101.971 265.43L105.034 268.629C106.766 269.88 107.04 276.181 107.04 276.181V287.871L105.946 290.42L97.4609 288.928L94.4449 284.105L94.5912 280.099L94.5978 264.521Z" fill="white"/>
<path d="M105.902 284.879C105.879 284.518 102.486 279.193 102.486 279.193L87.0766 279.031L83.2122 284.524V285.295V285.679V286.063V290.43H105.902C105.902 290.431 105.926 285.241 105.902 284.879Z" fill="#C6C6C6"/>
<path d="M102.847 357.338C102.841 358.477 101.913 359.396 100.774 359.389L88.7716 359.325C87.6344 359.318 86.7152 358.389 86.7209 357.25L86.8198 338.813C86.8259 337.674 87.7544 336.755 88.893 336.762L100.895 336.826C102.034 336.833 102.952 337.76 102.946 338.9L102.847 357.338Z" fill="#394963"/>
<path d="M103.53 274.4H95.7518H92.7851H85.7773C85.7773 274.4 83.531 277.536 83.1644 285.308C83.1612 285.353 83.5652 285.391 83.5652 285.391C84.5862 283.954 86.868 280.096 86.868 280.096L94.2687 280.06L102.438 280.107C102.438 280.107 104.719 283.984 105.741 285.418C105.741 285.418 106.144 285.353 106.142 285.308C105.775 277.534 103.53 274.4 103.53 274.4Z" fill="#29ABE2"/>
<path d="M86.1304 288.603C86.1304 291.73 96.4368 291.956 96.4368 288.574C96.4368 285.603 86.1304 285.324 86.1304 288.603ZM87.0271 288.568C87.0271 286.332 95.5396 286.525 95.5396 288.549C95.5401 290.853 87.0271 290.699 87.0271 288.568Z" fill="black"/>
<path d="M89.9911 286.858C89.9911 286.858 90.0155 287.832 91.1813 287.819C92.348 287.808 92.191 286.942 92.2163 286.858C92.2402 286.773 89.9911 286.858 89.9911 286.858Z" fill="black"/>
<path d="M90.8091 287.866L90.5087 290.431H92.0476L91.6388 287.866H90.8091Z" fill="black"/>
<path d="M91.8549 287.147C91.8792 287.147 95.6194 288.782 95.6194 288.782L95.7642 287.82L91.9753 286.689L91.8549 287.147Z" fill="black"/>
<path d="M90.2911 287.147C90.2677 287.147 86.4178 288.782 86.4178 288.782V287.82L90.0624 286.689L90.2911 287.147Z" fill="black"/>
<path d="M119.759 266.244C119.759 266.244 107.155 266.34 104.364 252.966C101.575 239.592 99.9393 221.215 99.7461 220.829C99.554 220.446 118.412 225.064 119.759 266.244Z" fill="#E8CDA0"/>
<path d="M69.3406 266.244C69.3406 266.244 81.9449 266.34 84.7353 252.966C87.5258 239.592 89.1617 221.215 89.3539 220.829C89.5456 220.446 70.6878 225.064 69.3406 266.244Z" fill="#E8CDA0"/>
<path d="M70.3031 318.681C70.3031 318.681 69.3806 315.58 72.4195 316.66C82.4264 320.221 105.999 320.99 116.581 316.469C118.8 315.522 118.766 316.081 118.699 317.575C118.649 318.697 117.063 330.322 117.063 330.322C117.063 330.322 98.9742 337.25 71.5537 330.322L70.3031 318.681Z" fill="#E8CDA0"/>
<path d="M106.296 304.916C106.296 305.557 105.615 305.82 104.725 305.82H84.424C83.5338 305.82 82.5701 305.557 82.5701 304.916V298.145C82.5701 297.503 83.5338 296.844 84.424 296.844H104.725C105.616 296.844 106.296 297.503 106.296 298.145V304.916Z" fill="#E8CDA0"/>
<path d="M86.8799 292.024C86.8799 292.024 87.9777 290.66 88.4886 292.831C88.9991 295.003 89.9971 297.174 89.9971 297.174C89.9971 297.174 92.3305 296.498 92.6493 295.858C92.9675 295.22 92.7003 292.31 94.7239 291.579C96.748 290.848 97.663 290.389 96.7986 293.447C95.9347 296.506 95.6202 298.665 95.6202 298.665L87.201 300.539L86.8799 292.504" fill="#996234"/>
<path d="M87.9428 299.357C87.9428 299.357 84.8758 294.784 86.5122 294.951C88.1486 295.118 87.2988 296.363 89.3781 296.472C91.457 296.58 91.1725 294.968 93.7239 295.841C96.2748 296.714 97.2264 295.965 96.7984 297.353C96.3691 298.741 96.2749 299.357 96.2749 299.357H87.9428Z" fill="#EF45B7"/>
<path d="M85.5026 299.766C85.5026 299.766 85.362 296.14 85.264 295.202C85.0812 293.448 86.5746 289.809 86.5746 289.143C86.5746 288.478 86.6806 287.781 87.5604 288.767C88.4398 289.753 87.5754 293.064 87.2004 294.722C86.8249 296.378 87.9002 298.395 87.9424 298.928C87.9823 299.462 86.8798 298.694 86.8798 298.694L85.5026 299.766Z" fill="#996234"/>
<path d="M96.8978 299.997C96.8978 299.997 98.0359 296.14 98.1334 295.202C98.3153 293.448 96.8228 289.809 96.8228 289.143C96.8228 288.478 96.7183 287.781 95.8375 288.767C94.9576 289.753 95.8211 293.064 96.1961 294.722C96.572 296.378 94.7641 298.228 94.7237 298.76C94.6834 299.295 96.5186 298.693 96.5186 298.693L96.8978 299.997Z" fill="#996234"/>
<path d="M83.8966 299.767C83.8966 299.767 84.5758 304.255 87.3546 305.166C90.1333 306.077 91.0943 306.391 93.5899 305.312C96.0865 304.231 97.4088 304.827 97.2199 302.574C97.0314 300.323 98.5389 299.156 96.3775 298.804C94.0483 298.423 87.7863 297.996 87.3546 297.946C84.7005 297.632 83.8966 299.767 83.8966 299.767Z" fill="#8BC7E8"/>
<path d="M90.6715 305.166C90.6715 305.166 88.1486 304.918 88.5274 302.837C88.9043 300.757 87.7985 299.997 89.5802 299.347C91.3615 298.694 92.2469 296.957 93.0325 298.694C93.8182 300.431 94.3858 301.353 93.8182 302.574C93.2515 303.796 93.37 304.093 92.6491 304.868C91.9286 305.643 90.6715 305.166 90.6715 305.166Z" fill="#301705"/>
<path d="M78.3077 314.407C78.3077 314.407 80.1293 313.817 80.3374 316.038C80.5451 318.258 81.2355 320.546 81.2355 320.546C81.2355 320.546 83.6398 320.196 84.0433 319.607C84.446 319.019 84.581 316.1 86.6857 315.653C88.7908 315.208 89.0749 315.898 88.4838 317.788C87.5365 320.823 86.6004 322.796 86.6004 322.796L78.0035 323.496L78.063 316.172C78.063 316.173 77.531 315.403 78.3077 314.407Z" fill="#996234"/>
<path d="M77.0144 322.123C77.0144 322.123 76.4936 317.455 78.0921 317.845C79.6905 318.235 79.2049 318.758 81.2496 319.151C83.2938 319.545 82.7032 318.517 85.1111 319.733C87.5182 320.949 88.5663 320.318 87.9518 321.635C87.3363 322.951 87.1605 323.529 87.1605 323.529L77.0144 322.123Z" fill="#EF45B7"/>
<path d="M74.8367 322.277C74.8367 322.277 74.8934 326.818 77.5207 328.1C80.1481 329.383 81.057 329.827 83.6773 329.1C86.2985 328.372 87.5267 329.144 87.6485 326.887C87.7704 324.631 89.4246 323.681 87.3317 323.036C85.0765 322.341 78.9331 321.056 78.5121 320.947C75.926 320.273 74.8367 322.277 74.8367 322.277Z" fill="#8BC7E8"/>
<path d="M80.8067 328.555C80.8067 328.555 78.3421 327.963 79.0025 325.954C79.6611 323.946 78.6707 323.041 80.5246 322.641C82.3785 322.24 83.4941 320.64 84.0341 322.469C84.5736 324.298 85.0091 325.289 84.2797 326.421C83.5503 327.554 83.6272 327.865 82.8069 328.532C81.9866 329.2 80.8067 328.555 80.8067 328.555Z" fill="#301705"/>
<path d="M99.6942 315.02C99.6942 315.02 101.134 313.759 102.204 315.716C103.273 317.673 104.813 319.499 104.813 319.499C104.813 319.499 106.882 318.227 107.02 317.526C107.157 316.827 106.125 314.093 107.881 312.849C109.639 311.607 110.173 312.129 110.378 314.098C110.709 317.26 110.63 319.441 110.63 319.441L103.012 323.487L100.169 316.738C100.169 316.739 99.375 316.242 99.6942 315.02Z" fill="#996234"/>
<path d="M101.559 322.618C101.559 322.618 99.2343 318.537 100.856 318.263C102.479 317.988 102.239 318.662 104.273 318.213C106.306 317.765 105.357 317.056 108.05 317.219C110.741 317.384 111.454 316.389 111.411 317.841C111.366 319.294 111.434 319.894 111.434 319.894L101.559 322.618Z" fill="#EF45B7"/>
<path d="M99.6216 323.623C99.6216 323.623 101.47 327.77 104.391 327.908C107.312 328.047 108.322 328.094 110.441 326.389C112.56 324.684 113.993 324.906 113.212 322.786C112.432 320.667 113.574 319.14 111.397 319.376C109.05 319.629 102.901 320.882 102.471 320.948C99.8283 321.35 99.6216 323.623 99.6216 323.623Z" fill="#8BC7E8"/>
<path d="M107.589 327.025C107.589 327.025 105.091 327.456 104.902 325.35C104.713 323.245 103.445 322.806 104.989 321.704C106.533 320.603 106.924 318.693 108.144 320.158C109.363 321.624 110.155 322.361 109.933 323.69C109.711 325.018 109.905 325.273 109.416 326.211C108.927 327.15 107.589 327.025 107.589 327.025Z" fill="#301705"/>
<path d="M102.038 249.427C102.038 249.427 100.833 247.938 102.831 246.946C104.828 245.955 106.714 244.488 106.714 244.488C106.714 244.488 105.524 242.369 104.829 242.205C104.136 242.04 101.362 242.964 100.19 241.161C99.0173 239.355 99.5601 238.843 101.536 238.715C104.709 238.508 106.886 238.672 106.886 238.672L110.63 246.442L103.774 249.02C103.773 249.021 103.247 249.795 102.038 249.427Z" fill="#996234"/>
<path d="M109.702 247.861C109.702 247.861 105.533 250.024 105.323 248.393C105.112 246.762 105.775 247.026 105.407 244.976C105.039 242.928 104.293 243.848 104.561 241.164C104.831 238.48 103.865 237.73 105.315 237.83C106.764 237.932 107.367 237.888 107.367 237.888L109.702 247.861Z" fill="#EF45B7"/>
<path d="M110.63 249.836C110.63 249.836 114.846 248.151 115.098 245.238C115.351 242.324 115.438 241.318 113.818 239.134C112.197 236.95 112.474 235.527 110.325 236.225C108.177 236.921 106.695 235.719 106.846 237.904C107.008 240.258 108.018 246.452 108.067 246.885C108.368 249.541 110.63 249.836 110.63 249.836Z" fill="#8BC7E8"/>
<path d="M114.342 242.008C114.342 242.008 114.675 244.521 112.563 244.628C110.452 244.735 109.965 245.985 108.924 244.398C107.884 242.813 105.99 242.347 107.503 241.186C109.015 240.024 109.783 239.262 111.102 239.535C112.421 239.808 112.684 239.625 113.601 240.151C114.52 240.676 114.342 242.008 114.342 242.008Z" fill="#301705"/>
<path d="M89.0896 243.61C89.0896 243.61 89.4777 245.485 87.2469 245.45C85.018 245.416 82.6686 245.854 82.6686 245.854C82.6686 245.854 82.7544 248.281 83.2958 248.747C83.8363 249.21 86.7243 249.663 86.9394 251.803C87.1536 253.945 86.4355 254.152 84.621 253.358C81.7077 252.087 79.8486 250.942 79.8486 250.942L80.0872 242.32L87.3608 243.175C87.3613 243.176 88.1839 242.729 89.0896 243.61Z" fill="#996234"/>
<path d="M81.5615 241.485C81.5615 241.485 86.2579 241.476 85.6963 243.022C85.1353 244.568 84.6679 244.028 84.0543 246.019C83.4412 248.008 84.5263 247.533 83.0568 249.795C81.5864 252.055 82.1001 253.166 80.8574 252.411C79.6167 251.657 79.0607 251.419 79.0607 251.419L81.5615 241.485Z" fill="#EF45B7"/>
<path d="M81.6431 239.304C81.6431 239.304 77.1243 238.867 75.5634 241.34C74.002 243.813 73.4625 244.668 73.9008 247.352C74.339 250.037 73.4395 251.173 75.6689 251.54C77.8968 251.906 78.6623 253.655 79.5309 251.644C80.4675 249.477 82.4114 243.51 82.5661 243.103C83.5176 240.605 81.6431 239.304 81.6431 239.304Z" fill="#8BC7E8"/>
<path d="M74.7534 244.556C74.7534 244.556 75.6103 242.17 77.5359 243.045C79.4606 243.917 80.4675 243.032 80.6639 244.919C80.8608 246.804 82.3298 248.087 80.453 248.425C78.577 248.763 77.5448 249.088 76.4981 248.24C75.4519 247.39 75.134 247.433 74.5598 246.546C73.9842 245.658 74.7534 244.556 74.7534 244.556Z" fill="#301705"/>
<rect x="315.775" y="15.2949" width="45.0996" height="25" rx="12.5" fill="#969696" fill-opacity="0.3"/>
<path d="M323.886 32.9209H323.066V23.9521L320.359 24.957V24.1914L323.75 22.9336H323.886V32.9209ZM332.67 22.8926V23.6104H332.575C331.385 23.6104 330.449 23.9613 329.765 24.6631C329.082 25.3604 328.703 26.3311 328.63 27.5752C328.904 27.1969 329.252 26.9053 329.676 26.7002C330.1 26.4906 330.574 26.3857 331.098 26.3857C331.973 26.3857 332.668 26.6888 333.183 27.2949C333.703 27.8965 333.962 28.6849 333.962 29.6602C333.962 30.3073 333.842 30.8906 333.6 31.4102C333.359 31.9297 333.012 32.3353 332.561 32.627C332.11 32.9141 331.595 33.0576 331.016 33.0576C330.064 33.0576 329.289 32.7135 328.692 32.0254C328.095 31.3327 327.796 30.4395 327.796 29.3457V28.5254C327.796 26.7435 328.202 25.3649 329.013 24.3896C329.824 23.4098 330.975 22.9108 332.465 22.8926H332.67ZM330.968 27.0898C330.449 27.0898 329.963 27.2448 329.512 27.5547C329.066 27.86 328.767 28.2497 328.617 28.7236V29.4209C328.617 30.2868 328.838 30.9932 329.28 31.54C329.726 32.0869 330.305 32.3604 331.016 32.3604C331.654 32.3604 332.169 32.1074 332.561 31.6016C332.958 31.0957 333.156 30.4577 333.156 29.6875C333.156 28.9036 332.958 28.2747 332.561 27.8008C332.169 27.3268 331.638 27.0898 330.968 27.0898ZM335.624 33.7754H334.878L339.035 22.9678H339.773L335.624 33.7754ZM347.409 32.9209H341.174V32.292L344.585 28.4229C345.151 27.7712 345.542 27.2334 345.761 26.8096C345.98 26.3857 346.089 25.9733 346.089 25.5723C346.089 24.9434 345.905 24.4466 345.536 24.082C345.167 23.7129 344.658 23.5283 344.011 23.5283C343.341 23.5283 342.799 23.7425 342.384 24.1709C341.974 24.5993 341.769 25.1553 341.769 25.8389H340.956C340.956 25.2783 341.081 24.7679 341.332 24.3076C341.587 23.8473 341.947 23.4873 342.412 23.2275C342.881 22.9632 343.414 22.8311 344.011 22.8311C344.923 22.8311 345.634 23.0703 346.144 23.5488C346.659 24.0273 346.917 24.679 346.917 25.5039C346.917 25.9688 346.771 26.4769 346.479 27.0283C346.192 27.5798 345.684 28.2679 344.955 29.0928L342.179 32.2305H347.409V32.9209ZM353.964 29.7148H355.516V30.4053H353.964V32.9209H353.144V30.4053H348.461V29.9404L353.069 22.9678H353.964V29.7148ZM349.466 29.7148H353.144V24.0273L352.782 24.6562L349.466 29.7148Z" fill="black"/>
</g>
<defs>
<linearGradient id="paint0_linear" x1="189.788" y1="222.992" x2="189.788" y2="-33.9162" gradientUnits="userSpaceOnUse">
<stop offset="0.1444" stop-color="white"/>
<stop offset="1" stop-color="#4FC3F7"/>
</linearGradient>
<clipPath id="clip0">
<rect width="375" height="375" fill="white" transform="translate(0.775146 0.294922)"/>
</clipPath>
</defs>
</svg>
