<svg width="376" height="376" viewBox="0 0 376 376" fill="none" xmlns="http://www.w3.org/2000/svg">
<g clip-path="url(#clip0)">
<path d="M-2.53757 -2.70801H376.707L377.172 376.14H-2.07257L-2.53757 -2.70801Z" fill="url(#paint0_linear)"/>
<path d="M355.573 346.806C355.664 346.649 355.407 346.214 355.356 346.147C355.319 346.105 355.267 346.094 355.209 346.102C355.101 346.12 354.957 346.207 354.843 346.292C354.664 346.393 347.44 349.056 343.124 350.645C341.196 351.357 339.675 351.917 339.431 352.009C339.081 352.141 338.873 352.306 338.809 352.491C338.759 352.64 338.821 352.747 338.826 352.752C339.009 353.222 339.163 353.191 339.422 353.093C339.465 353.078 339.511 353.06 339.567 353.045C339.889 352.947 352.681 348.622 353.225 348.443C353.4 348.369 353.893 348.204 354.091 348.297C354.314 348.404 354.653 349.023 354.786 349.327C355.416 350.786 355.718 351.865 355.552 352.013C355.498 352.06 355.285 352.141 354.457 351.89C353.987 351.746 353.503 351.546 353.387 351.487C353.366 351.475 350.979 350.309 350.517 350.461C350.476 350.475 350.442 350.503 350.427 350.536C350.27 350.866 350.675 351.414 351.143 352.047L351.266 352.212C351.649 352.734 352.122 353.291 352.311 353.506C351.936 353.504 350.863 353.5 350.703 353.514C350.688 353.518 350.661 353.521 350.635 353.523C350.528 353.539 350.352 353.587 350.254 353.715C350.189 353.798 350.167 353.901 350.19 354.018C350.231 354.24 350.586 354.521 350.96 354.824C351.021 354.874 351.084 354.926 351.145 354.974C351.128 354.984 351.113 355 351.093 355.009C350.665 355.312 350.076 355.722 350.043 356.056C350.034 356.142 350.059 356.217 350.119 356.279C350.398 356.574 351.357 356.277 353.124 355.35C354.449 354.652 356.281 353.352 356.299 353.341C356.695 353.06 357.24 352.317 357.152 351.614C357.067 350.945 355.707 347.226 355.56 346.822C355.56 346.814 355.565 346.81 355.573 346.806Z" fill="#727272"/>
<path d="M339.788 352.579C339.81 352.533 339.814 352.482 339.798 352.433C339.764 352.335 339.657 352.282 339.553 352.318C339.506 352.335 339.466 352.37 339.446 352.416C339.424 352.462 339.422 352.514 339.437 352.562C339.467 352.648 339.56 352.7 339.646 352.686C339.657 352.682 339.672 352.68 339.681 352.677C339.73 352.66 339.769 352.625 339.788 352.579Z" fill="#727272"/>
<path d="M357.04 351.622C356.964 350.992 355.678 347.464 355.47 346.904C355.413 346.946 355.341 346.974 355.273 346.978C355.191 346.987 355.121 346.954 355.076 346.901C355.015 346.822 354.939 346.689 354.888 346.589L354.879 346.614L340.783 351.627C340.078 351.887 339.601 352.064 339.474 352.113C339.084 352.262 338.956 352.417 338.921 352.519C338.886 352.617 338.923 352.684 338.93 352.696C339.087 353.092 339.168 353.061 339.384 352.98C339.429 352.962 339.477 352.945 339.534 352.928C339.607 352.905 340.364 352.654 341.488 352.275C341.647 351.857 342.138 351.692 342.158 351.681C342.611 351.51 353.316 347.495 354.417 347.885C354.708 347.987 355.053 348.811 355.092 348.901C355.125 348.977 355.941 350.817 356.086 351.531C356.292 352.577 355.068 353.335 354.573 353.532C354.153 353.699 352.507 353.656 352.44 353.669L352.439 353.669C352.383 353.678 350.895 353.634 350.708 353.648C350.581 353.658 350.415 353.676 350.338 353.779C350.294 353.837 350.281 353.905 350.296 353.988C350.33 354.166 350.699 354.463 351.026 354.724C351.244 354.901 351.452 355.067 351.583 355.212C351.754 355.401 351.817 355.533 351.783 355.619C351.76 355.671 351.709 355.693 351.682 355.693L351.673 355.576C351.674 355.576 351.698 355.516 351.495 355.29C351.429 355.213 351.336 355.13 351.23 355.04C351.203 355.058 351.179 355.077 351.151 355.097C350.788 355.352 350.178 355.777 350.149 356.06C350.141 356.113 350.16 356.155 350.195 356.196C350.352 356.364 350.98 356.334 353.061 355.238C353.876 354.81 354.888 354.153 355.543 353.711C354.349 353.966 351.813 353.914 350.923 353.895C350.757 353.892 350.624 353.887 350.605 353.889L350.596 353.831L350.576 353.775C350.579 353.773 350.581 353.773 350.585 353.771C350.605 353.767 350.658 353.77 350.924 353.776C351.909 353.799 354.902 353.863 355.84 353.504C356.073 353.343 356.219 353.24 356.224 353.237C356.55 353.015 357.117 352.305 357.04 351.622ZM339.894 352.629C339.86 352.702 339.798 352.758 339.721 352.785C339.559 352.843 339.384 352.758 339.329 352.6C339.303 352.523 339.308 352.44 339.341 352.366C339.374 352.292 339.434 352.235 339.513 352.209C339.529 352.202 339.551 352.199 339.57 352.196C339.716 352.171 339.857 352.255 339.907 352.395C339.933 352.471 339.93 352.554 339.894 352.629Z" fill="#727272"/>
<path d="M341.637 352.218C345.45 350.937 353.081 348.358 353.181 348.324C353.249 348.299 353.857 348.052 354.133 348.183C354.423 348.321 354.784 349.032 354.885 349.276C355.288 350.215 355.923 351.828 355.618 352.093C355.248 352.415 353.46 351.655 353.322 351.579C353.051 351.435 350.91 350.436 350.542 350.563C350.534 350.566 350.522 350.57 350.519 350.574C350.392 350.844 350.795 351.391 351.223 351.97L351.346 352.136C351.789 352.737 352.352 353.383 352.456 353.5C352.665 353.506 354.153 353.545 354.522 353.395C354.959 353.222 356.16 352.501 355.967 351.541C355.824 350.834 354.991 348.959 354.981 348.935C354.883 348.696 354.579 348.06 354.375 347.988C353.31 347.613 342.301 351.744 342.189 351.786C342.189 351.789 341.811 351.922 341.637 352.218Z" fill="#727272"/>
<path d="M354.783 346.52L354.822 346.419C354.445 346.575 352.839 347.174 350.105 348.187L354.783 346.52Z" fill="#727272"/>
<path d="M355.468 346.743C355.509 346.672 355.348 346.326 355.262 346.215C355.247 346.194 355.122 346.223 354.911 346.378L354.93 346.418C354.932 346.425 355.069 346.705 355.165 346.827C355.188 346.853 355.222 346.867 355.262 346.862C355.346 346.857 355.437 346.796 355.468 346.743Z" fill="#727272"/>
<path d="M355.569 346.803C355.66 346.646 355.403 346.211 355.351 346.145C355.316 346.103 355.263 346.092 355.204 346.1C355.096 346.118 354.955 346.206 354.84 346.29C354.66 346.39 347.436 349.054 343.121 350.642C341.191 351.354 339.671 351.915 339.427 352.006C339.078 352.138 338.869 352.303 338.805 352.487C338.756 352.636 338.819 352.744 338.822 352.749C339.006 353.22 339.159 353.189 339.417 353.09C339.461 353.076 339.507 353.058 339.562 353.042C339.884 352.944 352.675 348.619 353.22 348.439C353.397 348.366 353.889 348.2 354.085 348.294C354.309 348.401 354.649 349.019 354.781 349.323C355.41 350.784 355.714 351.861 355.547 352.011C355.49 352.058 355.279 352.139 354.452 351.887C353.982 351.743 353.498 351.543 353.382 351.483C353.36 351.471 350.976 350.305 350.511 350.458C350.469 350.47 350.438 350.5 350.422 350.532C350.265 350.862 350.671 351.414 351.138 352.046L351.261 352.212C351.646 352.736 352.117 353.29 352.306 353.51C352.377 353.51 352.426 353.518 352.435 353.518L352.436 353.644C352.436 353.644 352.438 353.669 352.437 353.669L352.439 353.669C352.507 353.659 354.156 353.7 354.572 353.532C355.061 353.336 356.29 352.565 356.08 351.515C355.939 350.799 355.125 348.97 355.09 348.89C355.052 348.8 354.708 347.977 354.415 347.875C353.313 347.491 342.608 351.506 342.157 351.677C342.134 351.685 341.645 351.854 341.488 352.27C340.365 352.65 339.605 352.905 339.533 352.925C339.477 352.941 339.427 352.961 339.381 352.977C339.164 353.059 339.083 353.089 338.928 352.694C338.922 352.682 338.886 352.614 338.92 352.517C338.959 352.412 339.085 352.259 339.473 352.11C339.598 352.062 340.076 351.887 340.782 351.624L354.878 346.612L354.887 346.586C354.94 346.685 355.014 346.818 355.076 346.898C355.12 346.954 355.189 346.983 355.271 346.975C355.339 346.968 355.41 346.944 355.467 346.902C355.452 346.855 355.442 346.828 355.44 346.827L355.548 346.786C355.55 346.792 355.555 346.801 355.56 346.815C355.56 346.813 355.565 346.809 355.569 346.803ZM341.633 352.224C341.806 351.925 342.185 351.791 342.19 351.789C342.301 351.747 353.311 347.616 354.376 347.991C354.582 348.064 354.884 348.701 354.98 348.939C354.99 348.962 355.827 350.838 355.966 351.543C356.156 352.507 354.956 353.224 354.523 353.4C354.154 353.546 352.669 353.507 352.457 353.503C352.354 353.386 351.792 352.742 351.35 352.139L351.227 351.974C350.798 351.393 350.396 350.846 350.521 350.577C350.525 350.571 350.536 350.567 350.545 350.566C350.916 350.442 353.056 351.438 353.327 351.581C353.465 351.655 355.251 352.414 355.622 352.097C355.926 351.833 355.292 350.217 354.889 349.278C354.784 349.037 354.425 348.323 354.137 348.186C353.862 348.054 353.253 348.3 353.184 348.326C353.08 348.36 345.446 350.94 341.633 352.224ZM354.822 346.421L354.783 346.522L350.104 348.187C352.839 347.175 354.445 346.575 354.822 346.421ZM355.47 346.743C355.441 346.795 355.348 346.856 355.261 346.862C355.219 346.867 355.187 346.854 355.164 346.827C355.069 346.705 354.931 346.424 354.929 346.417L354.912 346.378C355.12 346.225 355.246 346.194 355.263 346.215C355.347 346.325 355.511 346.673 355.47 346.743Z" fill="#727272"/>
<path d="M351.229 355.045C351.201 355.02 351.169 354.993 351.138 354.971C351.12 354.981 351.105 354.997 351.086 355.006C350.657 355.309 350.069 355.719 350.035 356.052C350.027 356.138 350.051 356.213 350.113 356.276C350.392 356.571 351.348 356.274 353.118 355.347C354.443 354.649 356.273 353.348 356.292 353.338C356.688 353.056 357.234 352.312 357.146 351.61C357.062 350.944 355.7 347.222 355.553 346.818C355.528 346.854 355.499 346.883 355.463 346.908C355.668 347.467 356.953 351 357.032 351.625C357.116 352.305 356.547 353.017 356.225 353.243C356.222 353.247 356.076 353.35 355.841 353.515C355.844 353.513 355.848 353.51 355.85 353.51L355.891 353.617C355.796 353.655 355.68 353.686 355.545 353.715C354.889 354.158 353.876 354.816 353.064 355.245C350.982 356.339 350.356 356.368 350.197 356.199C350.158 356.157 350.147 356.116 350.151 356.063C350.18 355.778 350.787 355.351 351.153 355.099C351.179 355.08 351.204 355.063 351.229 355.045Z" fill="#727272"/>
<path d="M355.556 346.818C355.549 346.805 355.546 346.793 355.546 346.788L355.439 346.83C355.44 346.835 355.45 346.861 355.466 346.905C355.502 346.881 355.533 346.852 355.556 346.818Z" fill="#727272"/>
<path d="M352.387 353.597C352.386 353.597 352.354 353.56 352.301 353.503C351.926 353.501 350.853 353.495 350.691 353.511C350.678 353.513 350.652 353.516 350.623 353.519C350.519 353.536 350.342 353.582 350.243 353.711C350.179 353.793 350.156 353.897 350.179 354.014C350.22 354.236 350.575 354.516 350.949 354.821C351.009 354.87 351.073 354.922 351.133 354.971C351.162 354.951 351.191 354.93 351.216 354.914L351.284 355.006C351.267 355.017 351.247 355.035 351.229 355.046C351.335 355.136 351.424 355.219 351.494 355.297C351.697 355.521 351.672 355.583 351.672 355.583L351.68 355.701C351.708 355.699 351.758 355.679 351.783 355.627C351.816 355.538 351.754 355.409 351.581 355.219C351.454 355.076 351.243 354.909 351.024 354.732C350.699 354.47 350.33 354.174 350.294 353.997C350.28 353.911 350.291 353.843 350.337 353.788C350.411 353.682 350.576 353.642 350.702 353.631C350.887 353.617 352.371 353.622 352.429 353.625L352.403 353.621L352.387 353.597Z" fill="#727272"/>
<path d="M352.43 353.5C352.421 353.5 352.373 353.498 352.302 353.499C352.357 353.557 352.386 353.591 352.387 353.593L352.404 353.614L352.429 353.616C352.43 353.616 352.434 353.616 352.434 353.616L352.43 353.5Z" fill="#727272"/>
<path d="M351.22 354.912C351.194 354.929 351.165 354.952 351.138 354.969C351.168 354.994 351.201 355.02 351.228 355.044C351.246 355.034 351.266 355.019 351.284 355.004L351.22 354.912Z" fill="#727272"/>
<path d="M355.542 353.715C355.653 353.639 355.754 353.57 355.843 353.51C354.906 353.864 351.912 353.799 350.928 353.781C350.662 353.772 350.608 353.772 350.59 353.775C350.583 353.775 350.581 353.779 350.58 353.781L350.6 353.834L350.609 353.892C350.629 353.89 350.76 353.898 350.928 353.9C351.815 353.917 354.35 353.969 355.542 353.715Z" fill="#727272"/>
<path d="M355.845 353.51C355.757 353.57 355.656 353.637 355.543 353.716C355.676 353.689 355.794 353.658 355.89 353.619L355.848 353.511C355.847 353.508 355.845 353.51 355.845 353.51Z" fill="#727272"/>
<path d="M339.895 352.628C339.93 352.555 339.935 352.472 339.904 352.392C339.854 352.253 339.715 352.169 339.567 352.192C339.547 352.196 339.528 352.202 339.51 352.205C339.434 352.234 339.371 352.289 339.338 352.363C339.302 352.438 339.296 352.52 339.327 352.597C339.384 352.753 339.557 352.84 339.718 352.782C339.798 352.758 339.86 352.701 339.895 352.628ZM339.791 352.578C339.77 352.621 339.732 352.659 339.684 352.675C339.675 352.68 339.659 352.683 339.649 352.683C339.559 352.698 339.469 352.646 339.44 352.56C339.423 352.513 339.427 352.461 339.449 352.415C339.473 352.368 339.506 352.334 339.556 352.317C339.658 352.281 339.762 352.335 339.799 352.431C339.814 352.481 339.811 352.532 339.791 352.578Z" fill="#727272"/>
<path d="M130.849 265.754C130.849 265.754 132.72 264.007 133.681 264.121C134.642 264.231 237.481 339.785 286.386 347.969C291.919 349.509 336.66 354.736 338.824 352.751" stroke="#727272" stroke-width="1.5" stroke-miterlimit="10" stroke-linecap="round"/>
<path d="M131.155 265.455C131.155 265.455 132.558 264.015 133.518 264.127C134.479 264.238 239.327 340.313 286.387 347.969C291.919 349.509 336.661 354.736 338.825 352.752" stroke="#727272" stroke-width="3" stroke-miterlimit="10" stroke-linecap="round" stroke-dasharray="1.5 4"/>
<path d="M117.094 257.623C117.094 257.623 116.796 259.442 116.409 259.994C116.022 260.546 115.711 262.412 115.574 262.988C115.436 263.563 114.89 264.895 114.657 267.811C114.534 269.346 114.512 270.335 114.536 270.927C114.523 271.339 114.5 271.743 114.462 271.814C114.378 271.964 114.17 272.786 114.201 272.928C114.232 273.07 114.201 273.601 114.201 273.601L114.173 273.94L114.984 274.165C114.984 274.165 115.485 274.195 115.925 274.165C116.363 274.134 116.915 274.071 117.251 273.94C117.588 273.809 117.04 273.099 116.977 272.849C116.915 272.599 116.834 272.374 116.821 272.077C116.807 271.781 116.716 271.699 116.575 271.549C116.453 271.423 116.6 270.66 116.645 270.426C116.648 270.416 116.653 270.394 116.66 270.355V270.354C116.753 269.904 117.241 267.555 117.276 267.18C117.315 266.764 118.315 264 118.365 263.459C118.416 262.919 118.662 262.349 118.662 262.349L119.31 261.276C119.31 261.276 119.351 260.399 119.408 260.237C119.464 260.071 117.094 257.623 117.094 257.623Z" fill="#FFCBA1"/>
<path d="M122.62 254.668C122.631 254.779 123.183 256.886 123.281 257.117C123.38 257.346 123.974 259.53 124.121 259.949C124.269 260.368 124.782 260.966 124.772 261.186C124.76 261.406 124.859 261.707 124.6 262.015C124.343 262.321 123.735 262.887 123.561 262.797C123.389 262.707 122.81 261.956 122.872 261.815C122.935 261.673 123.17 260.888 123.155 260.776C123.141 260.666 123.047 259.886 122.698 259.412C122.349 258.938 121.385 257.048 121.31 256.895C121.235 256.741 120.438 254.757 120.438 254.757L122.62 254.668Z" fill="#FFCBA1"/>
<path d="M121.714 260.604C121.714 260.604 123.087 262.495 123.067 263.044C123.047 263.594 123.019 264.558 122.927 265.203C122.834 265.848 122.734 267.583 122.668 267.935C122.603 268.286 122.516 269.31 122.458 270.257C122.402 271.204 122.421 272.191 122.421 272.191L122.822 272.633C122.822 272.633 123.701 273.044 124.145 273.383C124.587 273.723 125.214 273.904 125.33 273.928C125.447 273.952 125.74 274.333 125.757 274.543C125.774 274.752 125.811 274.757 125.219 274.81C124.626 274.865 122.647 274.494 122.11 274.516C121.572 274.54 121.168 274.511 120.621 274.492C120.073 274.472 119.822 274.374 119.679 274.159C119.536 273.943 120.068 272.171 120.055 272.129C120.055 272.129 120.586 270.132 120.393 269.884C120.2 269.638 119.97 265.48 120.258 264.95C120.545 264.42 120.427 263.773 120.427 263.773C120.427 263.773 120.328 263.748 120.194 263.702C119.921 263.61 118 261.185 117.94 260.907C117.85 260.493 118.381 260.289 118.381 260.289L121.714 260.604Z" fill="#FFCBA1"/>
<path d="M127.922 255.757C127.922 255.757 127.243 257.16 127.073 257.439C126.905 257.717 126.809 258.955 126.7 259.423C126.59 259.889 126.794 260.716 126.805 260.863C126.815 261.011 127.613 263.503 127.46 263.818C127.307 264.135 127.493 264.946 127.074 264.748C126.654 264.549 125.585 261.947 125.423 261.896C125.261 261.844 125.039 260.917 125.028 260.77C125.016 260.622 124.03 259.703 124.23 258.793C124.43 257.885 124.731 257.474 124.837 256.896C124.944 256.319 126.162 253.754 126.162 253.754L127.922 255.757Z" fill="#FFCBA1"/>
<path d="M127.731 249.455C127.772 249.475 128.8 249.738 128.976 249.758C129.154 249.776 129.716 249.804 129.775 249.816C129.832 249.826 130.197 249.732 130.421 249.669C130.644 249.604 131.412 249.287 131.579 249.325C131.745 249.364 133.018 249.538 133.027 249.57C133.037 249.6 133.74 250.383 133.751 250.453C133.76 250.523 134.218 251.665 134.16 251.971C134.104 252.275 133.603 253.243 133.488 253.333C133.374 253.423 132.741 253.795 132.611 253.81C132.482 253.822 131.838 253.81 131.743 253.876C131.649 253.941 131.576 253.928 131.502 253.877C131.429 253.826 131.397 253.707 131.298 253.764C131.196 253.82 131.084 253.859 130.959 253.934C130.832 254.008 130.498 254.213 130.437 254.217C130.376 254.221 130.343 254.256 130.26 254.134C130.177 254.013 130.124 253.937 130.124 253.937C130.124 253.937 129.859 253.829 129.802 253.854C129.744 253.881 129.478 253.863 129.394 253.868C129.309 253.876 128.754 253.676 128.714 253.638C128.677 253.601 128.592 253.368 128.593 253.277C128.595 253.188 128.706 252.705 128.706 252.705L128.802 252.347L128.419 252.102C128.419 252.102 128.199 252.115 128.149 252.136C128.101 252.156 127.979 252.31 127.868 252.345C127.759 252.378 127.437 252.612 127.437 252.612C127.437 252.612 126.889 251.798 126.811 251.534C126.731 251.271 127.464 249.701 127.464 249.701C127.464 249.701 127.723 249.385 127.727 249.419" fill="#FFCBA1"/>
<path d="M129.165 249.762L129.175 250.052L129.426 250.353C129.426 250.353 129.55 250.597 129.628 250.592C129.706 250.588 129.797 250.655 129.895 250.634C129.992 250.613 130.42 250.66 130.435 250.629C130.45 250.599 130.789 250.661 130.789 250.661C130.789 250.661 130.818 250.719 130.898 250.792C130.981 250.866 131.141 251.081 131.141 251.081L131.358 251.328C131.358 251.328 131.221 251.339 131.412 251.282C131.603 251.225 131.836 251.254 131.836 251.254L132.301 251.66C132.301 251.66 132.528 251.223 132.449 251.106C132.372 250.988 131.361 249.95 131.263 249.932C131.165 249.913 130.769 249.61 130.769 249.61C130.769 249.61 130.013 249.528 129.957 249.575C129.902 249.623 129.745 249.63 129.687 249.659C129.628 249.688 129.206 249.721 129.206 249.721" fill="#662F09"/>
<path d="M130.599 249.635L133.191 253.742C133.191 253.742 135.585 252.626 134.163 250.388C132.969 248.508 131.801 248.871 130.599 249.635Z" fill="#908DFF"/>
<path d="M134.807 255.867C134.769 255.894 134.725 255.899 134.698 255.859L133.089 253.619C133.061 253.58 133.072 253.531 133.111 253.503L133.156 253.473C133.196 253.444 133.249 253.456 133.278 253.494L134.882 255.728C134.908 255.767 134.891 255.807 134.853 255.835L134.807 255.867Z" fill="#908DFF"/>
<path d="M116.523 249.613C116.325 249.632 114.915 250.453 114.44 251.068C113.966 251.684 113.432 252.295 113.443 253.324C113.456 254.353 114.546 256.915 114.583 257.251C114.62 257.584 115.064 259.757 115.064 259.757C115.064 259.757 115.992 260.1 116.292 260.057C116.593 260.01 116.688 259.835 116.688 259.835C116.688 259.835 116.932 261.179 116.954 261.292C116.975 261.405 120.231 261.895 120.787 261.654C121.344 261.413 122.363 261.033 122.363 261.033L121.977 260.116C121.977 260.116 121.496 259.593 121.78 258.627C122.063 257.663 121.773 257.746 121.76 257.048C121.747 256.349 121.299 254.948 121.087 254.817C120.878 254.687 116.523 249.613 116.523 249.613Z" fill="#F7931E"/>
<path d="M116.048 249.348C116.171 249.322 122.352 245.978 125.32 247.249C128.288 248.521 129.228 249.014 129.248 249.786C129.269 250.558 129.478 252.011 129.541 252.237C129.604 252.463 129.088 255.425 129.088 255.425L128.822 256.207C128.822 256.207 128.371 255.983 128.072 256.137C127.773 256.293 127.416 256.259 127.416 256.259C127.416 256.259 125.59 254.654 125.746 254.486C125.904 254.319 124.69 255.562 123.902 255.524C123.113 255.487 121.643 255.09 121.394 255.214C121.144 255.338 120.115 255.387 120.091 255.238C120.065 255.09 118.617 253.705 118.617 253.705C118.617 253.705 118.181 252.416 118.008 252.142C117.837 251.87 116.279 250.07 116.155 249.837C116.034 249.604 116.048 249.348 116.048 249.348Z" fill="#FFF599"/>
<path d="M12.3921 262.04C11.9342 262.136 10.4703 265.308 10.9338 267.81C11.3988 270.313 12.7334 276.109 13.5007 277.062C14.269 278.017 15.2313 279.725 15.2313 279.725C15.2313 279.725 11.8437 281.545 11.3042 282.736C11.3042 282.736 11.3051 283.221 11.719 283.158C12.1324 283.092 15.7451 282.895 15.9153 283.299C16.0849 283.704 16.4145 285.809 16.4693 286.083C16.5246 286.357 16.3728 287.603 16.3207 288.049C16.2987 288.235 15.1906 290.016 15.3935 290.42C15.5988 290.824 17.0984 290.839 17.9346 290.819C18.7699 290.801 23.2249 287.814 23.846 287.267C24.4681 286.717 24.6415 280.079 24.6415 280.079C24.6415 280.079 23.3745 271.399 23.6857 271.382C23.997 271.364 26.0979 270.516 26.7729 269.735C27.4479 268.953 27.1971 265.168 26.8784 264.566C26.5549 263.959 19.2612 260.592 12.3921 262.04Z" fill="#36627A"/>
<path d="M15.7981 285.989C15.7981 285.989 16.5199 285.842 16.5612 285.931C16.6024 286.021 16.7604 286.272 16.7271 286.754C16.6929 287.235 16.8776 287.849 16.4974 287.897C16.1173 287.944 15.8557 287.944 15.8557 287.944C15.8557 287.944 15.222 289.509 14.2446 289.982C13.2677 290.456 12.6106 290.294 13.211 289.676C13.811 289.059 14.9398 288.328 14.832 288.072C14.7246 287.819 12.8313 288.08 12.8313 288.08L12.8487 286.55C12.8487 286.55 14.2952 286.409 14.367 286.439C14.4391 286.464 14.9843 286.061 14.5704 285.883C14.1565 285.704 12.3734 285.886 12.6584 285.254C12.9424 284.619 12.8735 284.628 13.5471 284.542C14.2212 284.454 15.0827 284.789 15.4657 285.254C15.8473 285.712 15.7981 285.989 15.7981 285.989Z" fill="#6C808C"/>
<path d="M54.1939 280.896L47.3853 275.198L18.8215 273.576C27.7372 271.741 44.629 269.058 69.7958 267.508C87.8755 266.397 103.024 266.28 110.03 266.633C122.77 267.282 131.341 266.541 133.518 266.316C133.147 266.551 132.604 266.917 132.275 267.225C132.024 267.456 131.805 267.771 131.495 268.205C130.875 269.086 129.926 270.355 127.832 272.331L127.623 272.52C113.638 279.331 94.6826 281.338 81.0683 281.729C66.6458 282.141 54.8028 280.959 54.1939 280.896Z" fill="#FF0000"/>
<path d="M70.1332 258.084C70.0113 257.838 69.9143 257.652 69.836 257.515C69.7967 257.446 69.762 257.389 69.7315 257.342C69.5801 257.101 69.5299 257.099 69.4999 257.098L69.4123 257.154C69.372 257.229 69.326 257.313 69.2726 257.401C69.237 257.458 69.1995 257.518 69.1596 257.579C69.1395 257.607 69.1188 257.638 69.0991 257.669C68.5474 258.467 67.6324 259.412 67.0821 259.266C66.8196 259.196 66.6621 259.02 66.5993 258.722C66.5909 258.687 66.5862 258.649 66.582 258.614C66.5777 258.574 66.5735 258.539 66.5735 258.494C66.5393 257.432 67.4852 255.35 68.7307 254.024C68.9224 253.819 69.1212 253.636 69.3246 253.472C69.4376 253.382 69.5656 253.29 69.701 253.214C69.9176 253.09 70.1538 253.002 70.3727 253.01C70.4548 253.016 70.5354 253.034 70.6123 253.068C70.7346 253.126 70.8157 253.221 70.8598 253.356C70.8888 253.445 70.901 253.553 70.9006 253.666C70.8916 254.458 70.2171 255.667 70.2087 255.68L70.1581 255.77L71.261 256.088L70.1332 258.084ZM70.2687 254.161C70.2659 254.038 70.2354 253.938 70.1679 253.873C70.1543 253.86 70.1393 253.848 70.1229 253.834C70.0821 253.809 70.0334 253.793 69.9823 253.793C69.9452 253.793 69.9068 253.802 69.8637 253.818C69.5679 253.925 69.1423 254.383 68.7138 254.972L68.6951 254.947L68.6754 254.922L68.3009 255.573C68.1148 255.862 67.9371 256.165 67.7787 256.456C67.5138 256.942 67.3034 257.406 67.197 257.755C67.137 257.954 67.1098 258.113 67.1163 258.236C67.1177 258.265 67.1224 258.294 67.1267 258.322C67.144 258.398 67.1801 258.458 67.234 258.495C67.2584 258.51 67.2856 258.52 67.3151 258.52C67.6526 258.52 68.7452 257.194 69.1981 256.551C69.2149 256.527 69.2309 256.504 69.2468 256.482C69.2754 256.439 69.3026 256.396 69.3232 256.362C69.3457 256.327 69.3631 256.296 69.3748 256.272C69.3879 256.248 69.4043 256.223 69.4245 256.193C69.4446 256.162 69.4657 256.125 69.4906 256.086C69.7577 255.639 70.2818 254.696 70.2687 254.161Z" fill="black"/>
<path d="M80.4902 254.532C80.0538 254.591 78.521 254.84 77.1926 255.094C77.1077 255.108 77.0243 255.124 76.9409 255.142C76.8977 255.151 76.8537 255.16 76.8119 255.166C76.6301 255.202 76.4543 255.24 76.2865 255.275C76.234 255.285 76.1824 255.3 76.1318 255.312C76.0057 255.34 75.8848 255.37 75.7727 255.401C75.7273 255.412 75.6832 255.426 75.641 255.44C75.6321 255.441 75.6199 255.445 75.6068 255.448C75.1971 255.538 72.8637 256.083 72.5154 256.688C72.5046 256.711 72.4943 256.727 72.4887 256.746C72.2834 257.33 71.7855 260.607 71.7044 261.337H70.309L69.8201 260.103L70.0094 258.35L70.083 258.316C70.0788 258.306 70.0746 258.299 70.0718 258.291C70.0666 258.282 70.0634 258.274 70.0596 258.266L71.2685 256.139L71.2877 256.144L71.3112 256.069L71.3285 256.039L71.359 255.982L73.166 252.18L73.443 252.086L73.721 251.988L74.5334 247.553C74.5727 247.553 74.6276 247.553 74.6974 247.553C75.1704 247.553 76.7519 247.565 77.2062 247.74C77.5873 247.88 79.4182 251.914 80.4902 254.532Z" fill="#3FA9F5"/>
<path d="M69.386 255.819C69.3945 255.819 69.4001 255.816 69.4057 255.815C69.4212 255.81 69.4348 255.804 69.4465 255.79C69.3668 255.931 69.2867 256.063 69.2079 256.189C69.1639 256.279 69.0781 256.412 68.9684 256.564C68.9501 256.523 68.944 256.474 68.9435 256.436C68.9431 256.367 68.9571 256.312 68.9571 256.312L68.9815 256.227L68.2081 256.063L68.5315 255.496C68.5939 255.407 68.6567 255.313 68.7204 255.225C69.1896 255.769 69.3307 255.82 69.386 255.819Z" fill="black"/>
<path d="M69.4254 256.193C69.4057 256.224 69.3893 256.251 69.3757 256.273C69.3649 256.298 69.3471 256.329 69.3246 256.363C69.303 256.398 69.2759 256.437 69.2482 256.482C69.2332 256.506 69.2177 256.527 69.2004 256.552C68.7476 257.2 67.6554 258.52 67.3174 258.52C67.2879 258.52 67.2593 258.511 67.2363 258.495C67.1815 258.458 67.1459 258.404 67.129 258.323C67.1229 258.298 67.1196 258.267 67.1187 258.237C67.1116 258.113 67.1384 257.954 67.1988 257.756C67.3057 257.407 67.5157 256.943 67.7806 256.457C67.939 256.166 68.1181 255.862 68.3027 255.574L68.6773 254.923L68.6965 254.948L68.7157 254.973C69.1437 254.387 69.5693 253.928 69.8655 253.819C69.9077 253.805 69.9471 253.794 69.9841 253.794C70.0376 253.794 70.084 253.808 70.1252 253.835C70.1421 253.845 70.1562 253.861 70.1698 253.873C70.2373 253.943 70.2677 254.043 70.2705 254.162C70.2823 254.697 69.7596 255.638 69.4915 256.083C69.4671 256.126 69.4441 256.163 69.4254 256.193ZM67.3399 257.807C67.212 258.227 67.2668 258.332 67.2888 258.355C67.5602 258.303 68.3754 257.369 68.8629 256.711C68.7738 256.594 68.7724 256.447 68.7827 256.357L68.0895 256.21C67.7576 256.775 67.4768 257.354 67.3399 257.807ZM68.5315 255.501L68.2066 256.067L68.9801 256.232L68.9562 256.316C68.9557 256.317 68.9416 256.373 68.9421 256.441C68.9426 256.482 68.9501 256.529 68.967 256.569C69.0766 256.412 69.1624 256.281 69.2065 256.194C69.2848 256.071 69.3654 255.937 69.4451 255.796C69.4334 255.805 69.4198 255.813 69.4038 255.819C69.3987 255.821 69.394 255.822 69.3846 255.823C69.3288 255.825 69.1887 255.773 68.7176 255.231C68.6571 255.317 68.5943 255.407 68.5315 255.501ZM70.0324 253.971C70.0184 253.962 70.002 253.958 69.9823 253.958C69.7535 253.958 69.2955 254.438 68.8188 255.094C69.0232 255.33 69.2534 255.567 69.3541 255.64C69.4113 255.553 69.5173 255.52 69.6059 255.511C69.9705 254.824 70.2494 254.115 70.0324 253.971Z" fill="black"/>
<path d="M18.3715 272.396L18.41 272.37L18.3823 270.117L19.789 269.258L25.9447 269.365L25.9592 269.358L28.5092 268.413L28.6175 263.152L33.2173 262.029L43.0587 262.002L43.5772 261.05L51.9129 260.587L51.9673 259.741L53.7007 259.566L53.5442 259.442C53.5418 259.438 53.2995 259.245 53.3056 259.008C53.3103 258.87 53.397 258.74 53.5681 258.622C53.6947 258.532 54.0654 258.427 55.1122 258.427C56.0726 258.427 57.2468 258.514 58.1037 258.576C58.5265 258.607 58.8617 258.634 59.0572 258.637C59.6422 258.656 60.2909 259.096 60.6443 259.498C60.8614 259.744 60.9767 259.985 60.9607 260.156C60.9092 260.7 60.8206 260.83 60.4292 260.905L60.4522 261.078L66.2084 260.532L69.7615 260.196L70.2472 261.442H71.7842L71.7936 261.257C71.8006 261.217 72.3687 257.289 72.5801 256.679C72.7461 256.201 74.8301 255.645 75.6186 255.471C77.0107 255.082 79.9151 254.672 80.449 254.602L80.4584 254.622L80.5179 254.614C80.5184 254.614 80.6318 254.605 80.7898 254.605C81.2356 254.605 81.56 254.678 81.7053 254.81C81.8632 254.955 81.8647 255.247 81.8661 255.527C81.867 255.771 81.8679 256 81.9584 256.171C82.1478 256.523 83.7645 259.255 83.8334 259.372L83.8559 259.41L83.8976 259.413C84.1353 259.426 107.579 260.812 112.812 261.456C113.217 261.505 113.679 261.553 114.184 261.623C122.1 262.738 133.187 264.876 133.187 264.876C134.045 264.889 134.385 265.159 134.414 265.387C134.442 265.594 134.224 265.807 133.869 265.909C133.86 265.916 133.619 266.035 133.294 266.23C131.855 266.387 123.178 267.247 109.621 266.559C102.611 266.205 87.439 266.344 69.3537 267.457C43.5875 269.046 27.6851 271.582 18.8829 273.425L18.4981 273.505C17.7678 273.497 17.5081 273.422 17.4748 273.382C17.4626 273.357 17.4462 273.339 17.4308 273.316C17.3933 273.264 17.3745 273.237 17.382 273.194C17.4097 273.066 17.7326 272.798 18.3715 272.396Z" fill="white" stroke="white" stroke-miterlimit="10"/>
<path d="M53.9735 280.956L53.9984 280.96C54.0968 280.969 62.5441 281.852 74.179 281.852C76.1937 281.852 78.3021 281.827 80.4785 281.762C94.0343 281.376 113.086 279.499 127.074 272.764C127.034 272.798 127 272.832 126.966 272.865C126.484 273.311 126.005 273.783 125.496 274.285C122.282 277.448 118.282 281.386 107.965 284.387C105.591 285.076 103.049 285.399 99.964 285.399C97.3207 285.399 94.6095 285.326 91.7393 285.078C88.5879 284.806 85.332 284.526 81.8487 284.526C81.3134 284.526 80.7795 284.534 80.261 284.547C79.7379 284.559 79.1248 284.569 78.439 284.569C64.8729 284.569 23.5465 281.728 21.8313 281.619L18.7662 273.773L47.1856 275.263L53.9735 280.956Z" fill="white" stroke="white" stroke-miterlimit="10"/>
<path d="M61.9924 260.857C61.9924 260.857 61.444 260.221 61.564 259.465C61.684 258.715 61.8527 258.33 62.314 258.199C62.7752 258.067 63.3996 258.008 63.5271 258.072C63.6556 258.137 65.2104 258.755 65.5648 258.876C65.9201 259 66.8904 259.642 66.9101 259.938C66.9298 260.234 66.987 260.328 67.107 260.619C67.2265 260.906 67.4093 262.209 67.4093 262.209L65.0646 262.467C65.0646 262.467 65.0895 261.554 64.9174 261.488C64.744 261.427 62.4537 261.192 62.299 261.103C62.1448 261.019 61.9924 260.857 61.9924 260.857Z" fill="#996234"/>
<path d="M53.3088 257.199C53.3088 257.199 53.1856 256.037 53.1359 256.037C53.0862 256.037 54.7629 255.938 55.1609 255.642C55.6549 255.271 58.3718 255.296 58.3718 255.296L60.1746 256.951L62.2549 258.516C62.2549 258.516 61.6563 260.484 61.3601 260.484C61.2199 260.484 59.7363 259.14 58.3962 259.101C56.9009 259.058 56.7907 259.915 57.1362 261.768C57.2018 262.117 54.049 260.014 54.049 260.014C54.049 260.014 53.4537 259.57 53.307 258.778C53.1602 257.99 53.3088 257.199 53.3088 257.199Z" fill="#EF45B7"/>
<path d="M56.8896 245.294C56.9641 245.319 57.507 244.652 57.4826 244.429C57.4582 244.206 57.2365 244.059 57.1868 244.059C57.138 244.059 56.6187 243.442 56.8901 243.169C57.162 242.898 56.2976 241.787 56.6182 241.244C56.9388 240.701 57.3345 239.861 58.0755 239.564C58.8171 239.267 59.2859 239.021 59.6566 239.318C60.0274 239.614 60.9166 240.454 60.941 240.774C60.9654 241.096 61.114 241.714 60.941 242.38C60.768 243.047 60.768 243.146 60.7437 243.862C60.7193 244.577 60.3977 245.024 60.1755 245.296C59.9529 245.568 60.0523 245.937 59.6323 246.036C59.2123 246.135 59.7312 246.802 59.5334 247.048C59.336 247.294 57.0143 246.678 57.0635 245.714C57.086 245.26 56.8896 245.294 56.8896 245.294Z" fill="#996234"/>
<path d="M56.9646 244.33C56.9646 244.33 56.5446 244.33 56.5939 243.985C56.6426 243.639 56.7335 243.046 56.5896 242.898C56.4457 242.751 56.0009 242.478 56.149 242.058C56.2971 241.638 56.4701 241.391 56.3712 240.996C56.2723 240.601 56.3712 240.28 56.6923 240.083C57.0134 239.885 57.2632 239.934 57.6326 239.761C58.0024 239.588 58.2992 239.168 58.7173 239.094C59.1373 239.02 59.6309 238.723 59.9773 239.094C60.3237 239.465 60.5703 239.465 60.6692 239.71C60.7681 239.957 60.6448 239.686 60.7924 240.279C60.9401 240.872 61.2373 240.994 61.0395 241.316C60.8417 241.638 60.6687 241.044 60.4962 241.02C60.3232 240.995 60.4217 240.723 59.9529 241.02C59.4837 241.316 59.6567 241.217 58.9648 241.069C58.2734 240.921 57.9026 240.526 57.6921 241.241C57.4826 241.957 57.6054 241.835 57.6921 242.403C57.7793 242.971 57.6921 243.218 57.6921 243.218C57.6921 243.218 57.656 242.946 57.3842 242.994C57.1123 243.044 57.0631 243.093 57.0879 243.391C57.1123 243.687 57.2609 244.032 57.2112 244.131C57.161 244.231 56.9646 244.33 56.9646 244.33Z" fill="#301705"/>
<path d="M60.3729 249.962C60.3729 249.962 62.0032 252.629 62.4232 252.877C62.8432 253.123 63.7076 253.618 64.0287 253.691C64.3498 253.765 66.3752 254.086 67.2396 254.037C68.104 253.987 68.2521 253.727 68.5737 254.043C68.8957 254.361 69.0429 254.581 69.1662 254.333C69.2895 254.087 69.2154 254.037 69.1662 253.666C69.117 253.296 69.1662 253.098 69.5121 253.049C69.8581 253 70.3868 253.395 70.2448 252.95C70.1051 252.506 70.1543 252.308 69.5852 252.357C69.0171 252.406 68.9182 252.827 68.5226 252.875C68.1274 252.924 67.9545 252.924 67.2626 252.826C66.5707 252.727 64.6198 251.566 64.1998 251.542C63.7802 251.517 63.7554 251.196 63.4835 250.924C63.2117 250.653 62.1251 249.319 62.1251 249.319" fill="#996234"/>
<path d="M53.1354 251.321C53.2343 249.938 53.7284 247.739 54.5679 246.776C55.4074 245.813 55.6544 245.838 56.2718 245.566C56.8891 245.295 57.2102 245.369 57.2102 245.369C57.2102 245.369 57.2426 246.355 57.7455 246.53C58.248 246.703 59.4335 247.024 59.5076 246.826C59.5821 246.629 59.4091 246.505 59.5568 246.331C59.7044 246.158 59.9519 245.69 60.1249 245.789C60.2974 245.887 61.1623 246.233 61.2612 246.678C61.3601 247.123 61.4585 247.715 61.7055 248.061C61.9526 248.406 62.1007 248.949 62.1007 248.949C62.1007 248.949 62.1752 249.147 62.2488 249.369C62.3229 249.592 61.6066 249.568 61.1374 250.481C60.6682 251.394 60.1493 249.963 60.1493 249.963C60.1493 249.963 60.7179 249.592 60.1985 250.383C60.1985 250.383 59.4082 251.593 59.359 251.766C59.3098 251.939 59.1119 252.383 59.1368 252.829C59.1612 253.274 59.4087 253.742 59.359 254.211C59.3093 254.681 59.3688 255.1 58.7834 255.322C58.1988 255.546 57.5566 255.495 56.8394 255.57C56.1237 255.644 55.2401 255.605 54.9134 255.89C54.5862 256.176 54.2712 255.939 53.876 256.038C53.4809 256.137 53.456 256.383 53.1349 256.038C52.8138 255.693 53.3243 254.605 53.2423 254.359C53.1598 254.112 52.946 253.568 53.028 252.754C53.1105 251.938 53.1354 251.321 53.1354 251.321Z" fill="#8BC7E8"/>
<path d="M55.991 252.987C55.991 252.987 56.5146 254.707 56.8085 255.037C57.1024 255.364 57.5721 256.123 57.821 256.418C58.0704 256.713 60.2815 258.978 60.5454 259.176C60.813 259.373 62.0946 260.501 62.0946 260.501L63.9124 260.293C63.9124 260.293 62.7087 259.004 62.1171 258.375C61.5251 257.743 59.5671 255.319 59.4551 255.102C59.343 254.88 58.707 254.219 58.5345 253.911C58.3624 253.607 58.3338 252.973 58.1909 252.397C58.0488 251.821 57.8032 251.075 57.8032 251.075C57.8032 251.075 55.5195 250.803 55.4496 251.34C55.3812 251.878 55.991 252.987 55.991 252.987Z" fill="#996234"/>
<path d="M57.1863 261.744C57.1863 261.744 56.6838 261.07 56.8573 260.328C57.0302 259.587 57.2266 259.217 57.6949 259.118C58.1641 259.02 58.7918 259.004 58.9155 259.077C59.0388 259.151 60.5459 259.875 60.8913 260.024C61.2373 260.172 62.1579 260.88 62.1579 261.177C62.1579 261.473 62.2066 261.572 62.306 261.869C62.4044 262.166 62.5282 263.006 62.5282 263.006L60.1554 263.257C60.1554 263.257 60.2276 262.66 60.0584 262.586C59.8887 262.513 57.6213 262.117 57.4727 262.018C57.3255 261.919 57.1863 261.744 57.1863 261.744Z" fill="#996234"/>
<path d="M34.345 258.447C34.345 258.447 34.6164 259.397 34.4407 260.567C34.2644 261.735 34.2269 262.735 34.6563 263.103C35.0861 263.469 34.6605 264.194 35.0763 264.289C35.3468 264.351 39.6138 263.788 39.9611 263.883C40.3085 263.976 41.4386 263.705 41.6149 263.808C41.7911 263.91 43.2663 263.681 43.4969 263.723C43.7275 263.765 43.5921 263.312 43.8171 263.216C44.0411 263.122 44.4513 262.074 44.4513 262.074L44.4316 261.637L43.8166 260.674L43.4936 259.806L43.1988 259.633C43.1988 259.633 43.0211 259.502 42.8946 259.226C42.768 258.949 42.6939 258.58 42.6236 258.284C42.5529 257.988 42.5041 257.509 42.266 257.617C42.0264 257.727 34.345 258.447 34.345 258.447Z" fill="#32417F"/>
<path d="M30.7657 251.793C30.7657 251.793 30.4765 255.936 30.5248 256.047C30.5735 256.158 30.4362 257.007 30.1929 258.192C29.9491 259.38 30.0049 262.385 30.0302 262.675C30.056 262.963 29.9557 263.574 29.9627 263.652C29.9698 263.729 29.6679 264.047 29.4396 264.32C29.2113 264.592 29.4584 264.531 29.4584 264.531C29.4584 264.531 29.7598 264.641 29.9571 264.68C30.1549 264.721 30.8309 264.68 31.0516 264.757C31.272 264.834 32.5929 264.621 32.6895 264.611C32.786 264.603 32.9646 264.431 32.9454 264.22C32.9262 264.007 32.6604 263.856 32.6604 263.856L31.8185 263.563C31.8185 263.563 31.7965 263.1 31.7665 262.985C31.737 262.872 32.4106 260.849 32.4485 260.186C32.486 259.522 32.5732 259.184 32.4977 258.783C32.4227 258.383 32.4434 257.312 32.456 257.233C32.4687 257.155 32.6946 255.775 32.8385 255.432C32.9824 255.089 32.674 252.727 32.6848 252.629L30.7657 251.793Z" fill="#FFCBA1"/>
<path d="M43.9272 250.867C43.9272 250.867 45.3161 254.238 45.4455 254.383C45.5744 254.527 46.2363 256.06 46.3914 256.279C46.5471 256.498 48.2997 262.42 48.3649 262.491C48.4296 262.563 48.8519 262.72 48.9508 262.75C49.0502 262.78 49.1388 263.335 49.1388 263.335L47.7518 263.46L46.63 263.56C46.63 263.56 46.4608 263.576 46.21 263.597C45.9597 263.62 45.8182 263.555 45.7727 263.486C45.7277 263.417 45.8852 263.007 45.9761 262.938C46.0675 262.872 46.3249 262.713 46.4707 262.604C46.6164 262.495 46.4604 262.273 46.4121 261.949C46.3638 261.624 45.9939 260.743 45.7774 260.278C45.5608 259.815 44.74 258.234 44.7213 258.023C44.7021 257.809 44.2558 256.51 44.1194 256.289C43.983 256.068 44.1194 256.289 43.8794 256C43.6399 255.711 42.0353 252.533 42.0353 252.533L43.7814 251.212L43.9272 250.867Z" fill="#FFCBA1"/>
<path d="M44.5863 251.079C44.5952 251.174 44.2399 251.557 44.0721 251.63C43.9048 251.703 43.0929 252.184 42.9668 252.292C42.8402 252.4 42.3649 252.948 42.3579 253.085C42.3513 253.221 42.3007 253.964 42.3077 254.04C42.3143 254.117 42.7132 255.752 42.8041 255.899C42.8946 256.045 42.9555 257.808 42.941 258.079C42.926 258.353 43.0212 260.256 42.5163 260.261C42.012 260.268 40.0521 260.502 39.6405 260.46C39.2295 260.419 36.9691 260.991 36.7024 261.054C36.4371 261.117 34.5387 260.956 34.2499 260.555C33.9616 260.155 33.5412 256.999 33.5398 256.766C33.5384 256.533 33.2491 254.17 33.2491 254.17C33.2491 254.17 33.0827 252.962 33.004 252.95C32.9252 252.937 31.9901 252.904 31.3774 252.784C30.7643 252.664 30.4165 252.462 30.4165 252.462C30.4165 252.462 30.3293 251.926 30.3598 251.827C30.3888 251.727 30.9298 248.864 31.1196 248.166C31.3095 247.47 34.2757 246.544 34.4445 246.471C34.6132 246.397 38.1143 245.812 38.3473 245.811C38.5802 245.811 40.7243 246.55 41.1635 246.685C41.6032 246.821 43.0174 247.219 43.5593 248.063C44.1007 248.908 44.5146 250.93 44.5779 250.983C44.5784 250.983 44.5779 250.983 44.5863 251.079Z" fill="#FFFEF8"/>
<path d="M38.3622 245.984C38.3622 245.984 38.2624 246.377 38.0936 246.685C36.9578 247.349 36.6021 246.875 35.876 246.785C35.1489 246.696 35.2043 245.839 35.2394 245.584C35.2741 245.328 35.0782 242.918 35.0777 242.472C35.0763 242.026 35.6388 239.411 37.7589 239.882C39.8786 240.354 39.3607 242.807 39.3607 242.807C38.9191 245.701 38.3622 245.984 38.3622 245.984Z" fill="#FFCBA1"/>
<path d="M36.2215 245.589C36.2215 245.589 35.1424 245.73 34.8579 244.497C34.5738 243.263 34.8073 243.367 34.7482 242.055C34.6892 240.744 33.3167 240.455 35.2578 239.915C37.1984 239.374 38.6332 238.68 38.907 239.468C39.1807 240.256 39.4662 240.587 39.3612 240.876C39.2557 241.166 39.4573 241.619 39.4362 241.902C39.4156 242.185 39.0663 243.005 39.0663 243.005C39.0663 243.005 38.262 243.269 38.2545 243.442C38.247 243.614 37.9662 244.004 37.9887 244.358C38.0107 244.71 38.4584 244.778 38.0192 245.039C37.5804 245.301 37.2017 245.549 37.2017 245.549L36.2215 245.589Z" fill="#9E5A2D"/>
<path opacity="0.6" d="M-4.56397 277.082H376.704L377.172 376.14H-4.09616L-4.56397 277.082Z" fill="#33EFFF"/>
<path d="M377.005 352.741C362.035 355.447 352.824 354.774 342.145 354.737C332.641 354.725 328.994 353.19 312.304 351.923C301.995 351.613 293.897 351.557 282.978 352.113C275.03 352.516 256.752 353.467 248.539 352.187C227.734 348.198 193.359 348.814 175.503 351.574C157.646 354.335 165.356 349.875 153.993 350.299C142.629 350.719 144.454 352.423 138.773 350.933C133.092 349.447 131.719 346.447 126.877 347.303C126.329 347.63 121.199 352.47 109.042 346.097C104.781 343.863 89.1167 346.147 86.0839 346.097C83.0703 346.048 41.7687 349.183 37.9132 346.209C33.4676 343.599 17.8765 343.663 13.4117 346.209C8.94731 348.765 -7.82925 348.187 -7.82925 348.187L-7.13785 376.73L377.172 377.756L377.005 352.741Z" fill="#D8BD80"/>
<path opacity="0.5" d="M20.6614 289.825C21.2778 289.825 21.7775 289.325 21.7775 288.709C21.7775 288.092 21.2778 287.593 20.6614 287.593C20.045 287.593 19.5453 288.092 19.5453 288.709C19.5453 289.325 20.045 289.825 20.6614 289.825Z" fill="white"/>
<path opacity="0.5" d="M24.0921 285.31C24.5146 285.31 24.8571 284.968 24.8571 284.545C24.8571 284.123 24.5146 283.78 24.0921 283.78C23.6696 283.78 23.3271 284.123 23.3271 284.545C23.3271 284.968 23.6696 285.31 24.0921 285.31Z" fill="white"/>
<path opacity="0.5" d="M31.4591 287.363C31.981 287.363 32.4041 286.94 32.4041 286.418C32.4041 285.896 31.981 285.473 31.4591 285.473C30.9372 285.473 30.5141 285.896 30.5141 286.418C30.5141 286.94 30.9372 287.363 31.4591 287.363Z" fill="white"/>
<path opacity="0.5" d="M16.3944 289.476C17.0105 289.476 17.51 288.977 17.51 288.361C17.51 287.745 17.0105 287.245 16.3944 287.245C15.7783 287.245 15.2788 287.745 15.2788 288.361C15.2788 288.977 15.7783 289.476 16.3944 289.476Z" fill="white"/>
<path opacity="0.5" d="M29.5354 292.178C30.1515 292.178 30.651 291.678 30.651 291.062C30.651 290.446 30.1515 289.946 29.5354 289.946C28.9192 289.946 28.4198 290.446 28.4198 291.062C28.4198 291.678 28.9192 292.178 29.5354 292.178Z" fill="white"/>
<path opacity="0.5" d="M28.8584 286.234C29.4746 286.234 29.974 285.735 29.974 285.119C29.974 284.502 29.4746 284.003 28.8584 284.003C28.2423 284.003 27.7428 284.502 27.7428 285.119C27.7428 285.735 28.2423 286.234 28.8584 286.234Z" fill="white"/>
<path opacity="0.5" d="M25.4675 289.783C26.0839 289.783 26.5836 289.283 26.5836 288.667C26.5836 288.05 26.0839 287.551 25.4675 287.551C24.8511 287.551 24.3514 288.05 24.3514 288.667C24.3514 289.283 24.8511 289.783 25.4675 289.783Z" fill="white"/>
<path opacity="0.3" d="M16.9166 291.103C17.533 291.103 18.0327 290.604 18.0327 289.987C18.0327 289.371 17.533 288.871 16.9166 288.871C16.3002 288.871 15.8005 289.371 15.8005 289.987C15.8005 290.604 16.3002 291.103 16.9166 291.103Z" fill="white"/>
<path opacity="0.5" d="M17.5391 286.932C17.8813 286.932 18.1588 286.654 18.1588 286.312C18.1588 285.97 17.8813 285.692 17.5391 285.692C17.1969 285.692 16.9194 285.97 16.9194 286.312C16.9194 286.654 17.1969 286.932 17.5391 286.932Z" fill="white"/>
<path opacity="0.5" d="M16.1033 288.404C16.4455 288.404 16.723 288.127 16.723 287.785C16.723 287.442 16.4455 287.165 16.1033 287.165C15.7611 287.165 15.4836 287.442 15.4836 287.785C15.4836 288.127 15.7611 288.404 16.1033 288.404Z" fill="white"/>
<path opacity="0.5" d="M20.1744 286.424C20.5166 286.424 20.7941 286.146 20.7941 285.804C20.7941 285.462 20.5166 285.185 20.1744 285.185C19.8321 285.185 19.5547 285.462 19.5547 285.804C19.5547 286.146 19.8321 286.424 20.1744 286.424Z" fill="white"/>
<path opacity="0.5" d="M21.5257 285.396C21.868 285.396 22.1454 285.118 22.1454 284.776C22.1454 284.434 21.868 284.156 21.5257 284.156C21.1835 284.156 20.9061 284.434 20.9061 284.776C20.9061 285.118 21.1835 285.396 21.5257 285.396Z" fill="white"/>
<path opacity="0.5" d="M27.6012 292.969C27.9435 292.969 28.2209 292.691 28.2209 292.349C28.2209 292.007 27.9435 291.729 27.6012 291.729C27.259 291.729 26.9816 292.007 26.9816 292.349C26.9816 292.691 27.259 292.969 27.6012 292.969Z" fill="white"/>
<path opacity="0.5" d="M27.9373 288.65C28.2796 288.65 28.557 288.372 28.557 288.03C28.557 287.688 28.2796 287.41 27.9373 287.41C27.5951 287.41 27.3176 287.688 27.3176 288.03C27.3176 288.372 27.5951 288.65 27.9373 288.65Z" fill="white"/>
<path opacity="0.5" d="M22.8636 287.591C23.2058 287.591 23.4832 287.314 23.4832 286.971C23.4832 286.629 23.2058 286.352 22.8636 286.352C22.5213 286.352 22.2439 286.629 22.2439 286.971C22.2439 287.314 22.5213 287.591 22.8636 287.591Z" fill="white"/>
<path opacity="0.5" d="M23.7776 292.039C24.1199 292.039 24.3973 291.762 24.3973 291.419C24.3973 291.077 24.1199 290.8 23.7776 290.8C23.4354 290.8 23.158 291.077 23.158 291.419C23.158 291.762 23.4354 292.039 23.7776 292.039Z" fill="white"/>
<path opacity="0.5" d="M18.3561 289.729C18.5192 289.729 18.6514 289.597 18.6514 289.434C18.6514 289.271 18.5192 289.139 18.3561 289.139C18.193 289.139 18.0608 289.271 18.0608 289.434C18.0608 289.597 18.193 289.729 18.3561 289.729Z" fill="white"/>
<path opacity="0.5" d="M22.7553 289.635C22.9184 289.635 23.0506 289.502 23.0506 289.339C23.0506 289.176 22.9184 289.044 22.7553 289.044C22.5922 289.044 22.46 289.176 22.46 289.339C22.46 289.502 22.5922 289.635 22.7553 289.635Z" fill="white"/>
<path opacity="0.5" d="M26.1449 285.753C26.308 285.753 26.4402 285.621 26.4402 285.457C26.4402 285.294 26.308 285.162 26.1449 285.162C25.9818 285.162 25.8496 285.294 25.8496 285.457C25.8496 285.621 25.9818 285.753 26.1449 285.753Z" fill="white"/>
<path opacity="0.5" d="M18.6365 288.195C18.7993 288.195 18.9313 288.063 18.9313 287.9C18.9313 287.737 18.7993 287.605 18.6365 287.605C18.4736 287.605 18.3416 287.737 18.3416 287.9C18.3416 288.063 18.4736 288.195 18.6365 288.195Z" fill="white"/>
<path opacity="0.5" d="M13.8444 289.115C14.0072 289.115 14.1392 288.983 14.1392 288.82C14.1392 288.657 14.0072 288.525 13.8444 288.525C13.6816 288.525 13.5495 288.657 13.5495 288.82C13.5495 288.983 13.6816 289.115 13.8444 289.115Z" fill="white"/>
<path opacity="0.5" d="M13.6297 287.346C13.7928 287.346 13.925 287.214 13.925 287.051C13.925 286.888 13.7928 286.756 13.6297 286.756C13.4666 286.756 13.3344 286.888 13.3344 287.051C13.3344 287.214 13.4666 287.346 13.6297 287.346Z" fill="white"/>
<path opacity="0.5" d="M15.0392 287.204C15.2023 287.204 15.3345 287.072 15.3345 286.909C15.3345 286.745 15.2023 286.613 15.0392 286.613C14.8761 286.613 14.7439 286.745 14.7439 286.909C14.7439 287.072 14.8761 287.204 15.0392 287.204Z" fill="white"/>
<path opacity="0.5" d="M19.573 291.361C19.7361 291.361 19.8683 291.229 19.8683 291.066C19.8683 290.903 19.7361 290.771 19.573 290.771C19.4099 290.771 19.2777 290.903 19.2777 291.066C19.2777 291.229 19.4099 291.361 19.573 291.361Z" fill="white"/>
<path opacity="0.5" d="M26.8822 283.683C27.0453 283.683 27.1775 283.551 27.1775 283.388C27.1775 283.225 27.0453 283.093 26.8822 283.093C26.7191 283.093 26.5869 283.225 26.5869 283.388C26.5869 283.551 26.7191 283.683 26.8822 283.683Z" fill="white"/>
<path opacity="0.5" d="M30.6308 284.15C30.7939 284.15 30.9261 284.018 30.9261 283.855C30.9261 283.692 30.7939 283.56 30.6308 283.56C30.4677 283.56 30.3355 283.692 30.3355 283.855C30.3355 284.018 30.4677 284.15 30.6308 284.15Z" fill="white"/>
<path opacity="0.5" d="M18.7635 285.415C18.9266 285.415 19.0588 285.283 19.0588 285.12C19.0588 284.956 18.9266 284.824 18.7635 284.824C18.6004 284.824 18.4682 284.956 18.4682 285.12C18.4682 285.283 18.6004 285.415 18.7635 285.415Z" fill="white"/>
<path opacity="0.5" d="M15.0476 289.375C15.2104 289.375 15.3424 289.243 15.3424 289.08C15.3424 288.917 15.2104 288.785 15.0476 288.785C14.8848 288.785 14.7528 288.917 14.7528 289.08C14.7528 289.243 14.8848 289.375 15.0476 289.375Z" fill="white"/>
<path opacity="0.5" d="M16.0879 286.244C16.2618 286.244 16.4029 286.103 16.4029 285.929C16.4029 285.755 16.2618 285.614 16.0879 285.614C15.9139 285.614 15.7729 285.755 15.7729 285.929C15.7729 286.103 15.9139 286.244 16.0879 286.244Z" fill="white"/>
<path opacity="0.2" d="M27.8009 290.148C28.9961 290.148 29.9651 289.179 29.9651 287.984C29.9651 286.788 28.9961 285.819 27.8009 285.819C26.6056 285.819 25.6367 286.788 25.6367 287.984C25.6367 289.179 26.6056 290.148 27.8009 290.148Z" fill="white"/>
<path opacity="0.1" d="M23.7318 290.636C25.4792 290.636 26.8958 289.219 26.8958 287.472C26.8958 285.724 25.4792 284.308 23.7318 284.308C21.9843 284.308 20.5677 285.724 20.5677 287.472C20.5677 289.219 21.9843 290.636 23.7318 290.636Z" fill="white"/>
<path opacity="0.1" d="M16.9864 291.609C18.7339 291.609 20.1505 290.193 20.1505 288.445C20.1505 286.698 18.7339 285.281 16.9864 285.281C15.2389 285.281 13.8223 286.698 13.8223 288.445C13.8223 290.193 15.2389 291.609 16.9864 291.609Z" fill="white"/>
<path opacity="0.1" d="M20.2179 290.219C21.9654 290.219 23.382 288.802 23.382 287.055C23.382 285.307 21.9654 283.891 20.2179 283.891C18.4705 283.891 17.0539 285.307 17.0539 287.055C17.0539 288.802 18.4705 290.219 20.2179 290.219Z" fill="white"/>
<path opacity="0.1" d="M29.0131 288.7C30.7606 288.7 32.1772 287.284 32.1772 285.536C32.1772 283.789 30.7606 282.372 29.0131 282.372C27.2657 282.372 25.8491 283.789 25.8491 285.536C25.8491 287.284 27.2657 288.7 29.0131 288.7Z" fill="white"/>
<path opacity="0.1" d="M30.5282 292.921C32.2756 292.921 33.6922 291.504 33.6922 289.757C33.6922 288.009 32.2756 286.593 30.5282 286.593C28.7807 286.593 27.3641 288.009 27.3641 289.757C27.3641 291.504 28.7807 292.921 30.5282 292.921Z" fill="white"/>
<path opacity="0.1" d="M23.3628 294.252C25.1103 294.252 26.5269 292.835 26.5269 291.088C26.5269 289.34 25.1103 287.924 23.3628 287.924C21.6153 287.924 20.1987 289.34 20.1987 291.088C20.1987 292.835 21.6153 294.252 23.3628 294.252Z" fill="white"/>
<path opacity="0.1" d="M27.125 294.425C28.8725 294.425 30.2891 293.008 30.2891 291.261C30.2891 289.513 28.8725 288.097 27.125 288.097C25.3776 288.097 23.961 289.513 23.961 291.261C23.961 293.008 25.3776 294.425 27.125 294.425Z" fill="white"/>
<path opacity="0.5" d="M35.8794 290.049C36.7891 290.049 37.5266 289.312 37.5266 288.402C37.5266 287.492 36.7891 286.755 35.8794 286.755C34.9696 286.755 34.2322 287.492 34.2322 288.402C34.2322 289.312 34.9696 290.049 35.8794 290.049Z" fill="white"/>
<path opacity="0.5" d="M40.942 283.386C41.5656 283.386 42.0712 282.881 42.0712 282.257C42.0712 281.634 41.5656 281.128 40.942 281.128C40.3183 281.128 39.8128 281.634 39.8128 282.257C39.8128 282.881 40.3183 283.386 40.942 283.386Z" fill="white"/>
<path opacity="0.5" d="M51.8165 286.417C52.5869 286.417 53.2115 285.792 53.2115 285.022C53.2115 284.252 52.5869 283.627 51.8165 283.627C51.046 283.627 50.4215 284.252 50.4215 285.022C50.4215 285.792 51.046 286.417 51.8165 286.417Z" fill="white"/>
<path opacity="0.5" d="M51.6041 296.827C52.5138 296.827 53.2513 296.089 53.2513 295.179C53.2513 294.27 52.5138 293.532 51.6041 293.532C50.6944 293.532 49.9569 294.27 49.9569 295.179C49.9569 296.089 50.6944 296.827 51.6041 296.827Z" fill="white"/>
<path opacity="0.5" d="M48.9763 293.523C49.886 293.523 50.6235 292.785 50.6235 291.876C50.6235 290.966 49.886 290.229 48.9763 290.229C48.0666 290.229 47.3291 290.966 47.3291 291.876C47.3291 292.785 48.0666 293.523 48.9763 293.523Z" fill="white"/>
<path opacity="0.5" d="M47.9765 284.749C48.8862 284.749 49.6236 284.012 49.6236 283.102C49.6236 282.193 48.8862 281.455 47.9765 281.455C47.0667 281.455 46.3293 282.193 46.3293 283.102C46.3293 284.012 47.0667 284.749 47.9765 284.749Z" fill="white"/>
<path opacity="0.5" d="M42.9721 289.989C43.8818 289.989 44.6193 289.251 44.6193 288.342C44.6193 287.432 43.8818 286.694 42.9721 286.694C42.0624 286.694 41.3249 287.432 41.3249 288.342C41.3249 289.251 42.0624 289.989 42.9721 289.989Z" fill="white"/>
<path opacity="0.3" d="M30.3515 291.937C31.2612 291.937 31.9987 291.199 31.9987 290.29C31.9987 289.38 31.2612 288.643 30.3515 288.643C29.4418 288.643 28.7043 289.38 28.7043 290.29C28.7043 291.199 29.4418 291.937 30.3515 291.937Z" fill="white"/>
<path opacity="0.5" d="M31.2697 285.779C31.7748 285.779 32.1842 285.37 32.1842 284.865C32.1842 284.36 31.7748 283.95 31.2697 283.95C30.7646 283.95 30.3551 284.36 30.3551 284.865C30.3551 285.37 30.7646 285.779 31.2697 285.779Z" fill="white"/>
<path opacity="0.5" d="M29.1509 287.952C29.656 287.952 30.0655 287.543 30.0655 287.038C30.0655 286.532 29.656 286.123 29.1509 286.123C28.6459 286.123 28.2364 286.532 28.2364 287.038C28.2364 287.543 28.6459 287.952 29.1509 287.952Z" fill="white"/>
<path opacity="0.5" d="M35.1599 285.029C35.665 285.029 36.0745 284.62 36.0745 284.115C36.0745 283.61 35.665 283.2 35.1599 283.2C34.6548 283.2 34.2454 283.61 34.2454 284.115C34.2454 284.62 34.6548 285.029 35.1599 285.029Z" fill="white"/>
<path opacity="0.5" d="M37.1539 283.511C37.659 283.511 38.0684 283.101 38.0684 282.596C38.0684 282.091 37.659 281.682 37.1539 281.682C36.6488 281.682 36.2394 282.091 36.2394 282.596C36.2394 283.101 36.6488 283.511 37.1539 283.511Z" fill="white"/>
<path opacity="0.5" d="M46.1216 294.688C46.6267 294.688 47.0362 294.279 47.0362 293.774C47.0362 293.269 46.6267 292.859 46.1216 292.859C45.6166 292.859 45.2071 293.269 45.2071 293.774C45.2071 294.279 45.6166 294.688 46.1216 294.688Z" fill="white"/>
<path opacity="0.5" d="M46.6175 288.315C47.1226 288.315 47.5321 287.906 47.5321 287.401C47.5321 286.896 47.1226 286.486 46.6175 286.486C46.1124 286.486 45.703 286.896 45.703 287.401C45.703 287.906 46.1124 288.315 46.6175 288.315Z" fill="white"/>
<path opacity="0.5" d="M39.1293 286.752C39.6344 286.752 40.0438 286.342 40.0438 285.837C40.0438 285.332 39.6344 284.923 39.1293 284.923C38.6242 284.923 38.2148 285.332 38.2148 285.837C38.2148 286.342 38.6242 286.752 39.1293 286.752Z" fill="white"/>
<path opacity="0.5" d="M40.4779 293.316C40.983 293.316 41.3924 292.907 41.3924 292.402C41.3924 291.897 40.983 291.487 40.4779 291.487C39.9728 291.487 39.5634 291.897 39.5634 292.402C39.5634 292.907 39.9728 293.316 40.4779 293.316Z" fill="white"/>
<path opacity="0.5" d="M32.4758 289.907C32.7163 289.907 32.9113 289.712 32.9113 289.472C32.9113 289.231 32.7163 289.036 32.4758 289.036C32.2353 289.036 32.0403 289.231 32.0403 289.472C32.0403 289.712 32.2353 289.907 32.4758 289.907Z" fill="white"/>
<path opacity="0.5" d="M38.969 289.767C39.2095 289.767 39.4045 289.572 39.4045 289.332C39.4045 289.091 39.2095 288.896 38.969 288.896C38.7285 288.896 38.5335 289.091 38.5335 289.332C38.5335 289.572 38.7285 289.767 38.969 289.767Z" fill="white"/>
<path opacity="0.5" d="M43.971 284.039C44.2115 284.039 44.4064 283.844 44.4064 283.603C44.4064 283.363 44.2115 283.168 43.971 283.168C43.7305 283.168 43.5355 283.363 43.5355 283.603C43.5355 283.844 43.7305 284.039 43.971 284.039Z" fill="white"/>
<path opacity="0.5" d="M32.8898 287.643C33.1303 287.643 33.3253 287.448 33.3253 287.208C33.3253 286.967 33.1303 286.772 32.8898 286.772C32.6493 286.772 32.4543 286.967 32.4543 287.208C32.4543 287.448 32.6493 287.643 32.8898 287.643Z" fill="white"/>
<path opacity="0.5" d="M25.8167 289.002C26.0573 289.002 26.2522 288.807 26.2522 288.566C26.2522 288.326 26.0573 288.131 25.8167 288.131C25.5762 288.131 25.3813 288.326 25.3813 288.566C25.3813 288.807 25.5762 289.002 25.8167 289.002Z" fill="white"/>
<path opacity="0.5" d="M25.4999 286.39C25.7404 286.39 25.9354 286.195 25.9354 285.955C25.9354 285.715 25.7404 285.52 25.4999 285.52C25.2594 285.52 25.0644 285.715 25.0644 285.955C25.0644 286.195 25.2594 286.39 25.4999 286.39Z" fill="white"/>
<path opacity="0.5" d="M27.5812 286.18C27.8217 286.18 28.0166 285.985 28.0166 285.744C28.0166 285.504 27.8217 285.309 27.5812 285.309C27.3407 285.309 27.1457 285.504 27.1457 285.744C27.1457 285.985 27.3407 286.18 27.5812 286.18Z" fill="white"/>
<path opacity="0.5" d="M34.2717 292.316C34.5122 292.316 34.7071 292.121 34.7071 291.881C34.7071 291.64 34.5122 291.445 34.2717 291.445C34.0312 291.445 33.8362 291.64 33.8362 291.881C33.8362 292.121 34.0312 292.316 34.2717 292.316Z" fill="white"/>
<path opacity="0.5" d="M45.0594 280.984C45.2999 280.984 45.4949 280.789 45.4949 280.549C45.4949 280.308 45.2999 280.113 45.0594 280.113C44.8189 280.113 44.6239 280.308 44.6239 280.549C44.6239 280.789 44.8189 280.984 45.0594 280.984Z" fill="white"/>
<path opacity="0.5" d="M50.593 281.673C50.8335 281.673 51.0285 281.478 51.0285 281.237C51.0285 280.997 50.8335 280.802 50.593 280.802C50.3525 280.802 50.1576 280.997 50.1576 281.237C50.1576 281.478 50.3525 281.673 50.593 281.673Z" fill="white"/>
<path opacity="0.5" d="M33.0782 283.54C33.3187 283.54 33.5136 283.345 33.5136 283.104C33.5136 282.864 33.3187 282.669 33.0782 282.669C32.8377 282.669 32.6427 282.864 32.6427 283.104C32.6427 283.345 32.8377 283.54 33.0782 283.54Z" fill="white"/>
<path opacity="0.5" d="M27.5915 289.386C27.832 289.386 28.027 289.191 28.027 288.95C28.027 288.71 27.832 288.515 27.5915 288.515C27.351 288.515 27.156 288.71 27.156 288.95C27.156 289.191 27.351 289.386 27.5915 289.386Z" fill="white"/>
<path opacity="0.5" d="M29.129 284.766C29.386 284.766 29.5944 284.558 29.5944 284.3C29.5944 284.043 29.386 283.835 29.129 283.835C28.8719 283.835 28.6635 284.043 28.6635 284.3C28.6635 284.558 28.8719 284.766 29.129 284.766Z" fill="white"/>
<path opacity="0.2" d="M46.4164 290.526C48.1802 290.526 49.61 289.096 49.61 287.332C49.61 285.568 48.1802 284.139 46.4164 284.139C44.6527 284.139 43.2228 285.568 43.2228 287.332C43.2228 289.096 44.6527 290.526 46.4164 290.526Z" fill="white"/>
<path opacity="0.1" d="M40.1966 291.239C42.7733 291.358 44.9568 289.365 45.0749 286.788C45.1926 284.212 43.1999 282.028 40.6232 281.91C38.0469 281.792 35.8635 283.786 35.7454 286.361C35.6277 288.937 37.6208 291.121 40.1966 291.239Z" fill="white"/>
<path opacity="0.1" d="M30.2418 292.678C32.8185 292.796 35.0024 290.803 35.1205 288.226C35.2382 285.65 33.2455 283.465 30.6693 283.348C28.093 283.23 25.9091 285.223 25.791 287.8C25.6729 290.376 27.666 292.559 30.2418 292.678Z" fill="white"/>
<path opacity="0.1" d="M37.1539 297.985C39.7327 297.985 41.8231 295.894 41.8231 293.316C41.8231 290.737 39.7327 288.646 37.1539 288.646C34.5752 288.646 32.4847 290.737 32.4847 293.316C32.4847 295.894 34.5752 297.985 37.1539 297.985Z" fill="white"/>
<path opacity="0.1" d="M50.4411 294.618C53.0199 294.618 55.1103 292.527 55.1103 289.949C55.1103 287.37 53.0199 285.279 50.4411 285.279C47.8624 285.279 45.7719 287.37 45.7719 289.949C45.7719 292.527 47.8624 294.618 50.4411 294.618Z" fill="white"/>
<path opacity="0.1" d="M45.2052 296.833C47.7815 296.951 49.9654 294.958 50.0835 292.381C50.2012 289.804 48.2085 287.62 45.6318 287.502C43.0555 287.384 40.8716 289.377 40.7535 291.954C40.6363 294.531 42.629 296.714 45.2052 296.833Z" fill="white"/>
<rect x="315.775" y="15.2949" width="45.0996" height="25" rx="12.5" fill="#969696" fill-opacity="0.3"/>
<path d="M323.886 32.9209H323.066V23.9521L320.359 24.957V24.1914L323.749 22.9336H323.886V32.9209ZM332.869 29.7148H334.42V30.4053H332.869V32.9209H332.048V30.4053H327.366V29.9404L331.973 22.9678H332.869V29.7148ZM328.371 29.7148H332.048V24.0273L331.686 24.6562L328.371 29.7148ZM335.624 33.7754H334.878L339.035 22.9678H339.773L335.624 33.7754ZM347.409 32.9209H341.174V32.292L344.585 28.4229C345.151 27.7712 345.542 27.2334 345.761 26.8096C345.98 26.3857 346.089 25.9733 346.089 25.5723C346.089 24.9434 345.905 24.4466 345.536 24.082C345.166 23.7129 344.658 23.5283 344.011 23.5283C343.341 23.5283 342.799 23.7425 342.384 24.1709C341.974 24.5993 341.769 25.1553 341.769 25.8389H340.956C340.956 25.2783 341.081 24.7679 341.332 24.3076C341.587 23.8473 341.947 23.4873 342.412 23.2275C342.881 22.9632 343.414 22.8311 344.011 22.8311C344.923 22.8311 345.634 23.0703 346.144 23.5488C346.659 24.0273 346.916 24.679 346.916 25.5039C346.916 25.9688 346.771 26.4769 346.479 27.0283C346.192 27.5798 345.684 28.2679 344.955 29.0928L342.179 32.2305H347.409V32.9209ZM353.964 29.7148H355.516V30.4053H353.964V32.9209H353.144V30.4053H348.461V29.9404L353.069 22.9678H353.964V29.7148ZM349.466 29.7148H353.144V24.0273L352.782 24.6562L349.466 29.7148Z" fill="black"/>
</g>
<defs>
<linearGradient id="paint0_linear" x1="187.317" y1="376.14" x2="187.317" y2="-2.70815" gradientUnits="userSpaceOnUse">
<stop offset="0.1444" stop-color="white"/>
<stop offset="1" stop-color="#4FC3F7"/>
</linearGradient>
<clipPath id="clip0">
<rect width="375" height="375" fill="white" transform="translate(0.775146 0.294922)"/>
</clipPath>
</defs>
</svg>
