<svg width="53" height="60" viewBox="0 0 53 60" fill="none" xmlns="http://www.w3.org/2000/svg">
<path d="M26.0968 57.0066C11.9962 57.0066 0.541137 46.4407 0.395927 33.4434H7.31104C7.45567 42.9601 15.8449 50.6317 26.0968 50.6317C36.3476 50.6317 44.7379 42.9611 44.8825 33.4434H51.7976C51.6524 46.4407 40.1974 57.0066 26.0968 57.0066Z" fill="#E0F7FA" stroke="black" stroke-width="0.5"/>
<path d="M22.6411 59.7332L22.6411 18.8301H29.5558L29.5558 59.7332H22.6411Z" fill="#E0F7FA" stroke="black" stroke-width="0.5"/>
<path d="M26.0966 20.3347C20.1688 20.3347 15.3779 15.8664 15.3779 10.4165C15.3779 4.96237 20.1688 0.494141 26.0966 0.494141C32.0244 0.494141 36.8153 4.96237 36.8153 10.4165C36.8153 15.8675 32.0256 20.3347 26.0966 20.3347ZM26.0966 6.87011C24.0181 6.87011 22.2926 8.4452 22.2926 10.4165C22.2926 12.3881 24.0173 13.9598 26.0966 13.9598C28.1748 13.9598 29.9007 12.3881 29.9007 10.4165C29.9007 8.4452 28.1752 6.87011 26.0966 6.87011Z" fill="#E0F7FA" stroke="black" stroke-width="0.5"/>
<path d="M14.2383 30.6606V24.2856H37.9631V30.6606H14.2383Z" fill="#E0F7FA" stroke="black" stroke-width="0.5"/>
</svg>
