<svg width="376" height="376" viewBox="0 0 376 376" fill="none" xmlns="http://www.w3.org/2000/svg">
<g clip-path="url(#clip0)">
<path d="M395.06 -20.2109H-21.1904V397.914H395.06V-20.2109Z" fill="#8BF6FF"/>
<path d="M187.79 352.198C278.651 352.198 352.308 278.541 352.308 187.681C352.308 96.8201 278.651 23.1631 187.79 23.1631C96.9295 23.1631 23.2725 96.8201 23.2725 187.681C23.2725 278.541 96.9295 352.198 187.79 352.198Z" stroke="white" stroke-width="3" stroke-miterlimit="10" stroke-dasharray="11.99 11.99"/>
<path d="M186.935 187.914V351.977" stroke="white" stroke-width="3" stroke-miterlimit="10"/>
<path d="M172.639 359.511H202.106L202.648 324.413C202.648 324.413 205.368 295.318 187.322 285.331C169.87 294.922 171.847 323.681 171.847 323.681L172.639 359.511Z" fill="#D1D1D1"/>
<path d="M187.219 292.929C187.219 292.929 199.979 292.438 200.424 317.868C200.868 343.3 199.107 346.002 199.107 346.002H175.406L174.296 338.28V316.415C174.297 316.415 175.065 293.703 187.219 292.929Z" fill="#F4F4F4"/>
<path d="M187.372 292.774C177.512 292.587 174.39 305.192 173.598 317.099L173.924 336.826L174.418 351.064L182.082 352.844L183.318 351.374L191.525 351.41C191.525 351.41 192.563 352.647 192.811 352.646C194.203 352.647 200.327 350.966 200.327 350.966C200.327 350.966 200.545 341.298 200.648 336.948C200.651 336.801 201.211 317.345 201.204 317.099C200.782 305.215 198.094 292.977 187.372 292.774ZM200.202 336.529C200.251 336.851 198.942 350.026 198.942 350.026C198.942 350.026 193.819 350.974 192.504 350.974C192.271 350.974 191.292 349.792 191.292 349.792L183.543 349.758L182.377 351.163L175.557 350.025L174.419 336.545C174.255 324.843 174.484 324.679 174.42 317.098C175.32 305.484 178.87 293.144 187.505 293.367C196.087 293.59 199.564 305.617 200.328 317.098C200.32 317.543 200.103 336.331 200.202 336.529Z" fill="#E8E8E8"/>
<path d="M187.477 316.212L187.482 316.093L183.551 316.679L181.947 318.323C181.057 318.966 180.886 322.204 180.886 322.204V328.21L181.508 329.521L185.898 328.754L187.502 326.276L187.475 324.217L187.477 316.212Z" fill="white"/>
<path d="M187.397 316.213L187.482 316.093L191.185 316.679L192.759 318.323C193.648 318.966 193.789 322.204 193.789 322.204V328.21L193.227 329.521L188.868 328.754L187.317 326.276L187.392 324.217L187.397 316.213Z" fill="white"/>
<path d="M193.206 326.674C193.194 326.489 191.45 323.753 191.45 323.753L183.532 323.67L181.547 326.492V326.888V327.086V327.284V329.528H193.206C193.206 329.527 193.218 326.86 193.206 326.674Z" fill="#C6C6C6"/>
<path d="M191.635 363.907C191.632 364.492 191.155 364.965 190.571 364.961L184.403 364.929C183.818 364.925 183.346 364.449 183.35 363.864L183.4 354.389C183.403 353.804 183.88 353.331 184.465 353.335L190.632 353.368C191.217 353.371 191.689 353.848 191.686 354.433L191.635 363.907Z" fill="#394963"/>
<path d="M191.987 321.289H187.99H186.466H182.865C182.865 321.289 181.711 322.901 181.522 326.893C181.521 326.917 181.727 326.936 181.727 326.936C182.252 326.199 183.425 324.215 183.425 324.215L187.228 324.197L191.426 324.222C191.426 324.222 192.598 326.213 193.123 326.95C193.123 326.95 193.329 326.917 193.328 326.893C193.14 322.901 191.987 321.289 191.987 321.289Z" fill="#29ABE2"/>
<path d="M183.045 328.588C183.045 330.194 188.341 330.311 188.341 328.573C188.341 327.045 183.045 326.902 183.045 328.588ZM183.507 328.57C183.507 327.421 187.881 327.519 187.881 328.56C187.881 329.744 183.507 329.664 183.507 328.57Z" fill="black"/>
<path d="M185.03 327.691C185.03 327.691 185.042 328.191 185.642 328.185C186.241 328.178 186.16 327.734 186.174 327.691C186.185 327.648 185.03 327.691 185.03 327.691Z" fill="black"/>
<path d="M185.45 328.209L185.295 329.527H186.086L185.876 328.209H185.45Z" fill="black"/>
<path d="M185.987 327.839C185.999 327.839 187.921 328.679 187.921 328.679L187.995 328.185L186.049 327.604L185.987 327.839Z" fill="black"/>
<path d="M185.184 327.838C185.173 327.838 183.194 328.68 183.194 328.68V328.185L185.067 327.604L185.184 327.838Z" fill="black"/>
<path d="M200.326 317.098C200.326 317.098 193.849 317.147 192.415 310.275C190.981 303.402 190.14 293.959 190.042 293.762C189.944 293.564 199.634 295.937 200.326 317.098Z" fill="#E8CDA0"/>
<path d="M174.418 317.098C174.418 317.098 180.895 317.147 182.329 310.274C183.763 303.403 184.603 293.959 184.702 293.762C184.8 293.564 175.111 295.938 174.418 317.098Z" fill="#E8CDA0"/>
<path d="M174.913 344.042C174.913 344.042 174.439 342.448 176 343.004C181.142 344.833 193.256 345.229 198.693 342.906C199.833 342.419 199.816 342.705 199.781 343.474C199.754 344.05 198.941 350.025 198.941 350.025C198.941 350.025 189.645 353.584 175.555 350.025L174.913 344.042Z" fill="#E8CDA0"/>
<path d="M193.408 336.969C193.408 337.298 193.059 337.433 192.601 337.433H182.169C181.712 337.433 181.216 337.298 181.216 336.969V333.489C181.216 333.16 181.712 332.82 182.169 332.82H192.601C193.06 332.82 193.408 333.16 193.408 333.489V336.969Z" fill="#E8CDA0"/>
<path d="M186.935 205.099C196.426 205.099 204.12 197.405 204.12 187.914C204.12 178.423 196.426 170.729 186.935 170.729C177.444 170.729 169.75 178.423 169.75 187.914C169.75 197.405 177.444 205.099 186.935 205.099Z" fill="#FCFCFC"/>
<path opacity="0.7" d="M199.719 178.065C194.391 171.159 184.473 169.881 177.567 175.209C170.662 180.538 169.383 190.456 174.712 197.361C180.04 204.267 189.958 205.545 196.863 200.217C203.769 194.888 205.048 184.97 199.719 178.065ZM195.221 195.194C195.207 195.199 194.669 194.679 194.404 194.433C190.362 198.243 184.04 198.126 180.135 194.224C179.813 194.526 179.179 195.107 179.163 195.102L178.891 191.292L182.446 192.017C182.446 192.017 181.721 192.578 181.453 192.836C182.712 194.081 184.591 194.839 185.997 195.106V182.285C185.528 181.881 184.753 181.13 184.753 180.27C184.753 178.982 185.862 177.939 187.149 177.939C188.437 177.939 189.609 178.982 189.609 180.27C189.609 181.139 188.81 181.896 188.341 182.297V195.155C189.747 194.955 191.726 194.254 193.043 193.042C192.72 192.731 192.131 192.201 192.131 192.201L195.759 191.529L195.221 195.194Z" fill="#1AB737"/>
<path opacity="0.7" d="M187.216 181.167C187.74 181.167 188.165 180.742 188.165 180.218C188.165 179.694 187.74 179.269 187.216 179.269C186.692 179.269 186.267 179.694 186.267 180.218C186.267 180.742 186.692 181.167 187.216 181.167Z" fill="#1AB737"/>
<rect x="315.138" y="15.4141" width="44.0746" height="25" rx="12.5" fill="#969696" fill-opacity="0.3"/>
<path d="M329.547 33.04H323.313V32.4111L326.724 28.542C327.289 27.8903 327.681 27.3525 327.9 26.9287C328.119 26.5049 328.228 26.0924 328.228 25.6914C328.228 25.0625 328.043 24.5658 327.674 24.2012C327.305 23.832 326.797 23.6475 326.15 23.6475C325.48 23.6475 324.938 23.8617 324.523 24.29C324.113 24.7184 323.908 25.2744 323.908 25.958H323.094C323.094 25.3975 323.22 24.887 323.47 24.4268C323.725 23.9665 324.085 23.6064 324.55 23.3467C325.02 23.0824 325.553 22.9502 326.15 22.9502C327.061 22.9502 327.772 23.1895 328.283 23.668C328.798 24.1465 329.055 24.7982 329.055 25.623C329.055 26.0879 328.909 26.596 328.618 27.1475C328.331 27.6989 327.822 28.387 327.093 29.2119L324.318 32.3496H329.547V33.04ZM331.092 33.8945H330.347L334.503 23.0869H335.242L331.092 33.8945ZM342.877 33.04H336.643V32.4111L340.054 28.542C340.619 27.8903 341.011 27.3525 341.23 26.9287C341.449 26.5049 341.558 26.0924 341.558 25.6914C341.558 25.0625 341.374 24.5658 341.004 24.2012C340.635 23.832 340.127 23.6475 339.48 23.6475C338.81 23.6475 338.268 23.8617 337.853 24.29C337.443 24.7184 337.238 25.2744 337.238 25.958H336.424C336.424 25.3975 336.55 24.887 336.8 24.4268C337.056 23.9665 337.416 23.6064 337.88 23.3467C338.35 23.0824 338.883 22.9502 339.48 22.9502C340.391 22.9502 341.102 23.1895 341.613 23.668C342.128 24.1465 342.385 24.7982 342.385 25.623C342.385 26.0879 342.239 26.596 341.948 27.1475C341.661 27.6989 341.153 28.387 340.423 29.2119L337.648 32.3496H342.877V33.04ZM349.433 29.834H350.985V30.5244H349.433V33.04H348.613V30.5244H343.93V30.0596L348.538 23.0869H349.433V29.834ZM344.935 29.834H348.613V24.1465L348.25 24.7754L344.935 29.834Z" fill="black"/>
</g>
<defs>
<clipPath id="clip0">
<rect width="375" height="375" fill="white" transform="translate(0.137695 0.414062)"/>
</clipPath>
</defs>
</svg>
