<svg width="376" height="376" viewBox="0 0 376 376" fill="none" xmlns="http://www.w3.org/2000/svg">
<g clip-path="url(#clip0)">
<path d="M-3.63745 -14.0986H390.86L389.327 376.618H-2.2598L-3.63745 -14.0986Z" fill="url(#paint0_linear)"/>
<path d="M-0.252061 157.796L398.068 157.364L397.139 376.702H-1.66675L-0.252061 157.796Z" fill="#8BF6FF"/>
<path d="M69.3408 630.12H306.698L311.077 446.079C311.077 446.079 332.977 293.527 187.62 241.16C47.0401 291.451 62.9682 442.251 62.9682 442.251L69.3408 630.12Z" fill="#EDEDED"/>
<path d="M186.794 281.004C186.794 281.004 289.574 278.429 293.155 411.772C296.739 545.117 282.554 559.285 282.554 559.285H91.6421L82.7002 518.791V404.152C82.7002 404.149 88.8863 285.055 186.794 281.004Z" fill="#F4F4F4"/>
<path d="M188.019 280.183C108.593 279.202 83.4422 345.297 77.064 407.73L79.6913 511.165L83.6766 585.826L145.403 595.156L155.362 587.446L221.47 587.642C221.47 587.642 229.828 594.122 231.823 594.122C243.04 594.122 292.366 585.307 292.366 585.307C292.366 585.307 294.129 534.616 294.952 511.804C294.98 511.03 299.49 409.015 299.425 407.73C296.039 345.421 274.385 281.254 188.019 280.183ZM291.362 509.61C291.761 511.297 281.207 580.381 281.207 580.381C281.207 580.381 239.948 585.354 229.358 585.354C227.475 585.354 219.587 579.159 219.587 579.159L157.173 578.976L147.774 586.345L92.836 580.384L83.6766 509.695C82.3519 448.343 84.1983 447.479 83.6766 407.731C90.9362 346.826 119.523 282.126 189.078 283.295C258.198 284.458 286.211 347.526 292.366 407.731C292.316 410.063 290.564 508.573 291.362 509.61Z" fill="#E8E8E8"/>
<path d="M292.367 407.73C292.367 407.73 240.195 407.99 228.644 371.954C217.097 335.921 210.329 286.406 209.529 285.368C208.732 284.333 286.788 296.776 292.367 407.73Z" fill="#E8CDA0"/>
<path d="M83.6768 407.73C83.6768 407.73 135.848 407.99 147.397 371.954C158.946 335.921 165.718 286.406 166.512 285.368C167.307 284.333 89.2521 296.776 83.6768 407.73Z" fill="#E8CDA0"/>
<path d="M149.508 314.109C149.497 314.232 150.913 312.09 150.913 312.09C154.431 308.22 162.296 297.822 162.296 297.822L187.802 297.724L215.957 297.852C215.957 297.852 223.819 308.294 227.34 312.161C227.34 312.161 228.438 314.223 228.43 314.102C228.43 294.533 223.059 283.339 209.408 283.339H169.46C155.025 283.96 149.341 294.853 149.508 314.109Z" fill="#29ABE2"/>
<path d="M228.588 316.987C228.588 305.417 219.851 296.076 209.36 296.076H168.201C157.711 296.076 149.369 305.418 149.369 316.987V410.018C149.369 421.587 157.711 431.076 168.202 431.076H209.361C219.852 431.076 228.589 421.587 228.589 410.018L228.588 316.987Z" fill="#D3D3D3"/>
<path d="M164.132 314.828C167.041 314.828 169.4 312.469 169.4 309.56C169.4 306.651 167.041 304.293 164.132 304.293C161.223 304.293 158.865 306.651 158.865 309.56C158.865 312.469 161.223 314.828 164.132 314.828Z" fill="#F4F4F4"/>
<path d="M179.206 314.828C182.115 314.828 184.473 312.469 184.473 309.56C184.473 306.651 182.115 304.293 179.206 304.293C176.297 304.293 173.938 306.651 173.938 309.56C173.938 312.469 176.297 314.828 179.206 314.828Z" fill="#F4F4F4"/>
<path d="M160.739 310.977C160.536 310.977 160.392 311.116 160.392 311.319C160.392 311.52 160.544 311.649 160.733 311.649C160.91 311.649 161.079 311.537 161.079 311.307C161.079 311.118 160.949 310.977 160.739 310.977ZM160.735 311.128C160.819 311.128 160.862 311.225 160.862 311.311C160.862 311.421 160.817 311.498 160.737 311.498C160.658 311.498 160.611 311.415 160.611 311.315C160.611 311.234 160.644 311.128 160.735 311.128ZM161.439 313.899C161.378 313.923 161.275 313.944 161.181 313.944C160.904 313.944 160.741 313.771 160.741 313.496C160.741 313.191 160.933 313.042 161.179 313.042C161.289 313.042 161.376 313.067 161.439 313.093L161.502 312.847C161.447 312.819 161.325 312.786 161.165 312.786C160.75 312.786 160.416 313.046 160.416 313.514C160.416 313.905 160.66 314.2 161.134 314.2C161.301 314.2 161.429 314.17 161.486 314.141L161.439 313.899Z" fill="black"/>
<path d="M162.207 309.918V309.603H162.365V309.371H162.207V308.595H161.828L161.328 309.401V309.603H161.914V309.918H162.207ZM161.616 309.371V309.367L161.793 309.078C161.838 308.994 161.873 308.917 161.916 308.831H161.924C161.918 308.917 161.914 308.998 161.914 309.078V309.371H161.616ZM161.85 310.573C161.509 310.573 161.346 310.876 161.346 311.259C161.348 311.633 161.498 311.94 161.84 311.94C162.178 311.94 162.343 311.66 162.343 311.251C162.343 310.888 162.204 310.573 161.85 310.573ZM161.846 310.807C161.97 310.807 162.034 310.962 162.034 311.255C162.034 311.556 161.968 311.706 161.848 311.706C161.728 311.706 161.655 311.562 161.657 311.259C161.655 310.952 161.732 310.807 161.846 310.807Z" fill="black"/>
<path d="M163.646 309.015C163.953 309.015 164.155 308.854 164.155 308.614C164.155 308.443 164.041 308.333 163.913 308.284V308.278C164.043 308.213 164.104 308.101 164.104 307.987C164.104 307.826 163.976 307.647 163.667 307.647C163.402 307.647 163.201 307.796 163.201 308.02C163.201 308.136 163.264 308.243 163.392 308.309V308.315C163.247 308.378 163.156 308.488 163.156 308.646C163.156 308.825 163.311 309.015 163.646 309.015ZM163.658 308.801C163.543 308.801 163.469 308.711 163.471 308.616C163.471 308.52 163.53 308.447 163.632 308.418C163.754 308.451 163.84 308.52 163.84 308.636C163.84 308.73 163.768 308.801 163.658 308.801ZM163.652 307.857C163.766 307.857 163.813 307.938 163.813 308.02C163.813 308.103 163.75 308.168 163.679 308.189C163.573 308.156 163.492 308.099 163.492 308.009C163.492 307.926 163.547 307.857 163.652 307.857ZM163.661 309.647C163.319 309.647 163.156 309.95 163.156 310.333C163.158 310.707 163.309 311.015 163.65 311.015C163.988 311.015 164.153 310.734 164.153 310.325C164.153 309.963 164.015 309.647 163.661 309.647ZM163.656 309.881C163.781 309.881 163.844 310.036 163.844 310.329C163.844 310.63 163.779 310.781 163.658 310.781C163.538 310.781 163.465 310.636 163.467 310.333C163.465 310.026 163.543 309.881 163.656 309.881Z" fill="black"/>
<path d="M165.011 309.089H165.31V307.766H165.053L164.703 307.929L164.754 308.161L165.007 308.041H165.011V309.089ZM165.1 309.744C164.758 309.744 164.596 310.047 164.596 310.43C164.598 310.804 164.748 311.111 165.09 311.111C165.428 311.111 165.593 310.83 165.593 310.422C165.593 310.059 165.454 309.744 165.1 309.744ZM165.096 309.978C165.22 309.978 165.283 310.133 165.283 310.426C165.283 310.727 165.218 310.877 165.098 310.877C164.978 310.877 164.905 310.733 164.907 310.43C164.905 310.122 164.982 309.978 165.096 309.978ZM165.1 311.744C164.758 311.744 164.596 312.047 164.596 312.43C164.598 312.804 164.748 313.111 165.09 313.111C165.428 313.111 165.593 312.83 165.593 312.422C165.593 312.059 165.454 311.744 165.1 311.744ZM165.096 311.978C165.22 311.978 165.283 312.133 165.283 312.426C165.283 312.727 165.218 312.877 165.098 312.877C164.978 312.877 164.905 312.733 164.907 312.43C164.905 312.122 164.982 311.978 165.096 311.978Z" fill="black"/>
<path d="M166.088 310.015H166.387V308.692H166.13L165.78 308.855L165.831 309.087L166.084 308.967H166.088V310.015ZM166.631 312.015V311.76H166.132V311.756L166.254 311.655C166.446 311.484 166.606 311.307 166.606 311.085C166.606 310.845 166.442 310.67 166.143 310.67C165.963 310.67 165.809 310.731 165.709 310.806L165.797 311.028C165.866 310.975 165.966 310.918 166.079 310.918C166.232 310.918 166.297 311.003 166.297 311.111C166.293 311.266 166.153 311.414 165.864 311.673L165.693 311.827V312.015H166.631ZM166.177 312.67C165.835 312.67 165.673 312.973 165.673 313.355C165.675 313.73 165.825 314.037 166.167 314.037C166.505 314.037 166.669 313.756 166.669 313.347C166.669 312.985 166.531 312.67 166.177 312.67ZM166.173 312.904C166.297 312.904 166.36 313.058 166.36 313.351C166.36 313.652 166.295 313.803 166.175 313.803C166.055 313.803 165.982 313.659 165.984 313.355C165.982 313.048 166.059 312.904 166.173 312.904Z" fill="black"/>
<path d="M163.579 305.976L163.263 306.016L163.38 306.936L163.695 306.896L163.579 305.976Z" fill="black"/>
<path d="M166.054 306.322L165.761 306.2L165.405 307.057L165.699 307.179L166.054 306.322Z" fill="black"/>
<path d="M167.756 307.558L167.535 307.33L166.87 307.976L167.09 308.203L167.756 307.558Z" fill="black"/>
<path d="M161.64 306.56L161.371 306.729L161.865 307.515L162.134 307.345L161.64 306.56Z" fill="black"/>
<path d="M160.662 307.344L160.44 307.573L161.108 308.217L161.329 307.988L160.662 307.344Z" fill="black"/>
<path d="M164.724 305.986L164.539 305.971L164.479 306.71L164.664 306.725L164.724 305.986Z" fill="black"/>
<path d="M162.348 306.244L162.176 306.314L162.457 307.001L162.629 306.93L162.348 306.244Z" fill="black"/>
<path d="M167.067 306.915L166.918 306.804L166.475 307.397L166.623 307.508L167.067 306.915Z" fill="black"/>
<path d="M164.132 303.627C160.836 303.627 158.163 306.298 158.163 309.596C158.163 312.892 160.836 315.565 164.132 315.565C167.43 315.565 170.102 312.892 170.102 309.596C170.102 306.299 167.429 303.627 164.132 303.627ZM164.132 314.418C161.469 314.418 159.311 312.26 159.311 309.597C159.311 306.934 161.469 304.775 164.132 304.775C166.795 304.775 168.954 306.934 168.954 309.597C168.954 312.259 166.795 314.418 164.132 314.418Z" fill="#1E1E1E"/>
<path d="M164.132 303.627C160.836 303.627 158.163 306.298 158.163 309.596C158.163 312.892 160.836 315.565 164.132 315.565C167.43 315.565 170.102 312.892 170.102 309.596C170.102 306.299 167.429 303.627 164.132 303.627ZM164.132 315.142C161.07 315.142 158.587 312.659 158.587 309.597C158.587 306.534 161.07 304.051 164.132 304.051C167.195 304.051 169.678 306.534 169.678 309.597C169.678 312.659 167.195 315.142 164.132 315.142Z" fill="#3D3D3D"/>
<path d="M163.935 309.991L164.039 306.361L164.249 306.36C164.249 306.36 164.326 309.982 164.331 309.991L163.935 309.991Z" fill="#EA2424"/>
<path d="M164.132 312.034C164.737 312.034 165.227 311.544 165.227 310.939C165.227 310.334 164.737 309.844 164.132 309.844C163.528 309.844 163.037 310.334 163.037 310.939C163.037 311.544 163.528 312.034 164.132 312.034Z" fill="#1E1E1E"/>
<path d="M179.141 306.045H178.853V307.335H179.141V306.045Z" fill="#232323"/>
<path d="M182.876 307.899L182.687 307.671L181.69 308.494L181.879 308.722L182.876 307.899Z" fill="#232323"/>
<path d="M176.122 308.698L176.311 308.47L175.314 307.647L175.125 307.875L176.122 308.698Z" fill="#232323"/>
<path d="M177.185 307.409L177.383 307.317L176.983 306.455L176.785 306.547L177.185 307.409Z" fill="#232323"/>
<path d="M181.179 306.564L180.981 306.473L180.583 307.336L180.781 307.427L181.179 306.564Z" fill="#232323"/>
<path d="M175.563 312.32H175.881V311.757H176.384V311.499H175.881V311.179H176.419V310.92H175.563V312.32ZM175.561 312.92V313.701C175.561 314.148 175.769 314.343 176.122 314.343C176.488 314.343 176.706 314.137 176.706 313.705V312.92H176.39V313.726C176.39 313.973 176.299 314.09 176.133 314.09C175.97 314.09 175.879 313.967 175.879 313.726V312.92H175.561ZM176.396 315.47H175.881V315.179H176.428V314.92H175.563V316.32H176.457V316.061H175.881V315.728H176.396V315.47ZM176.673 316.32H177.548V316.054H176.991V314.92H176.673V316.32Z" fill="#232323"/>
<path d="M177.203 309.657H176.665V309.353H177.235V309.082H176.333V310.544H177.266V310.273H176.665V309.926H177.203V309.657Z" fill="#232323"/>
<path d="M181.415 310.544H181.747V309.956H182.272V309.687H181.747V309.353H182.309V309.082H181.415V310.544Z" fill="#232323"/>
<path d="M179.101 309.343L179.664 307.437H179.398L178.835 309.343H179.101Z" fill="#232323"/>
<path d="M178.943 308.328H179.133V307.485H178.97L178.747 307.589L178.779 307.737L178.94 307.66H178.943V308.328Z" fill="#1E1E1E"/>
<path d="M179.835 308.695V308.533H179.517V308.531L179.595 308.466C179.717 308.357 179.819 308.244 179.819 308.103C179.819 307.95 179.714 307.838 179.523 307.838C179.409 307.838 179.311 307.877 179.247 307.925L179.303 308.066C179.347 308.033 179.411 307.996 179.483 307.996C179.581 307.996 179.622 308.051 179.622 308.119C179.619 308.218 179.53 308.313 179.346 308.477L179.237 308.576V308.695H179.835Z" fill="#232323"/>
<path d="M182.201 310.632C182.186 310.621 182.07 310.515 182.03 310.534C181.989 310.552 182.1 310.64 182.12 310.662C182.141 310.685 182.156 310.662 182.141 310.781C182.126 310.901 182.163 311.084 182.181 311.121C182.2 311.158 182.278 311.34 182.111 311.32C181.945 311.3 182.004 311.195 181.998 311.006C181.992 310.861 181.903 310.829 181.836 310.822V310.495H181.258V311.385H181.169V311.43H181.926V311.385H181.836V310.89C181.882 310.903 181.923 310.928 181.937 310.955C181.974 311.021 181.91 311.089 181.935 311.234C181.961 311.379 182.124 311.411 182.228 311.354C182.333 311.296 182.244 311.104 182.225 311.049C182.207 310.995 182.2 310.845 182.21 310.819C182.22 310.792 182.284 310.788 182.299 310.762C182.314 310.735 182.216 310.643 182.201 310.632ZM181.79 310.829H181.301V310.541H181.79V310.829Z" fill="black"/>
<path d="M178.987 303.529C175.637 303.529 172.92 306.246 172.92 309.596C172.92 312.946 175.637 315.663 178.987 315.663C182.338 315.663 185.054 312.946 185.054 309.596C185.054 306.246 182.338 303.529 178.987 303.529ZM178.987 314.498C176.281 314.498 174.087 312.303 174.087 309.597C174.087 306.892 176.281 304.697 178.987 304.697C181.694 304.697 183.888 306.892 183.888 309.597C183.887 312.303 181.693 314.498 178.987 314.498Z" fill="#1E1E1E"/>
<path d="M178.987 303.529C175.637 303.529 172.92 306.246 172.92 309.596C172.92 312.946 175.637 315.663 178.987 315.663C182.338 315.663 185.054 312.946 185.054 309.596C185.054 306.246 182.338 303.529 178.987 303.529ZM178.987 315.234C175.874 315.234 173.351 312.71 173.351 309.597C173.351 306.484 175.875 303.962 178.987 303.962C182.101 303.962 184.624 306.485 184.624 309.597C184.624 312.71 182.1 315.234 178.987 315.234Z" fill="#3D3D3D"/>
<path d="M179.182 310.637C179.192 310.632 181.948 308.189 181.948 308.189L182.093 308.348L179.455 310.931L179.182 310.637Z" fill="#EA2424"/>
<path d="M178.987 312.074C179.602 312.074 180.1 311.576 180.1 310.961C180.1 310.346 179.602 309.848 178.987 309.848C178.372 309.848 177.874 310.346 177.874 310.961C177.874 311.576 178.372 312.074 178.987 312.074Z" fill="#1E1E1E"/>
<path d="M190.545 331.403H188.782V365.332H190.545V331.403Z" fill="#969696"/>
<path d="M173.648 338.899L172.819 340.405L204.322 357.735L205.15 356.229L173.648 338.899Z" fill="#969696"/>
<path d="M172.616 357.628L173.501 359.103L204.321 340.596L203.435 339.121L172.616 357.628Z" fill="#969696"/>
<path d="M189.385 319.389C173.157 319.389 160.001 332.543 160.001 348.772C160.001 365 173.156 378.156 189.385 378.156C205.614 378.156 218.768 365.002 218.768 348.772C218.768 332.543 205.613 319.389 189.385 319.389ZM189.385 374.042C175.429 374.042 164.114 362.728 164.114 348.772C164.114 334.816 175.429 323.502 189.385 323.502C203.34 323.502 214.655 334.816 214.655 348.772C214.655 362.728 203.341 374.042 189.385 374.042Z" fill="black" stroke="black" stroke-miterlimit="10"/>
<path d="M184.298 324.015C184.42 323.998 187.878 323.602 187.936 326.407C187.993 329.212 188.003 331.188 188.003 331.188C188.003 331.188 187.873 333.264 189.208 333.263C189.336 333.263 190.306 333.264 190.415 333.264C191.525 333.264 191.558 332.229 191.548 331.148C191.538 329.975 191.609 326.452 191.609 326.452C191.609 326.452 191.862 324.049 194.503 324.049C197.212 324.049 193.937 323.102 193.937 323.102L185.416 323.154L184.298 324.015Z" fill="black" stroke="black" stroke-miterlimit="10"/>
<path d="M165.252 341.325C165.299 341.211 166.609 338.047 169.066 339.4C171.525 340.752 173.24 341.733 173.24 341.733C173.24 341.733 174.973 342.884 175.639 341.726C175.703 341.615 176.19 340.776 176.244 340.681C176.799 339.719 175.919 339.173 174.978 338.641C173.957 338.064 170.942 336.241 170.942 336.241C170.942 336.241 168.627 334.805 170.099 332.613C171.603 330.373 169.204 332.549 169.204 332.549L164.99 339.956L165.252 341.325Z" fill="black" stroke="black" stroke-miterlimit="10"/>
<path d="M170.773 365.842C170.698 365.746 168.612 363.029 171.012 361.577C173.412 360.124 175.119 359.127 175.119 359.127C175.119 359.127 176.983 358.202 176.314 357.047C176.249 356.936 175.765 356.095 175.711 356.001C175.156 355.038 174.243 355.528 173.312 356.077C172.302 356.673 169.215 358.372 169.215 358.372C169.215 358.372 166.83 359.241 165.51 356.954C164.155 354.608 165.149 358.032 165.149 358.032L169.456 365.385L170.773 365.842Z" fill="black"/>
<path d="M195.51 373.276C195.388 373.294 191.992 373.741 191.935 370.936C191.878 368.131 191.868 366.156 191.868 366.156C191.868 366.156 191.998 364.079 190.663 364.081C190.536 364.081 189.566 364.079 189.457 364.079C188.347 364.079 188.314 365.114 188.323 366.195C188.333 367.368 188.262 370.892 188.262 370.892C188.262 370.892 187.75 373.577 185.049 373.562C182.339 373.547 185.935 374.243 185.935 374.243L194.456 374.189L195.51 373.276Z" fill="black" stroke="black" stroke-miterlimit="10"/>
<path d="M213.636 356.018C213.589 356.131 212.279 359.295 209.822 357.944C207.364 356.59 205.648 355.61 205.648 355.61C205.648 355.61 203.915 354.459 203.248 355.617C203.184 355.727 202.698 356.566 202.644 356.662C202.088 357.623 202.968 358.17 203.909 358.702C204.93 359.278 207.945 361.103 207.945 361.103C207.945 361.103 209.912 362.85 208.592 365.136C207.237 367.483 209.684 364.794 209.684 364.794L213.899 357.388L213.636 356.018Z" fill="black" stroke="black" stroke-miterlimit="10"/>
<path d="M207.623 331.255C207.698 331.351 209.784 334.068 207.383 335.521C204.983 336.973 203.276 337.97 203.276 337.97C201.081 339.06 202.504 340.781 202.081 340.051C202.017 339.94 202.63 341.002 202.684 341.097C203.24 342.058 204.153 341.569 205.083 341.02C206.093 340.425 209.18 338.725 209.18 338.725C209.18 338.725 211.797 337.956 213.118 340.242C214.473 342.588 213.246 339.063 213.246 339.063L208.939 331.711L207.623 331.255Z" fill="black" stroke="black" stroke-miterlimit="10"/>
<path d="M189.773 342.059C186.081 342.059 183.087 345.053 183.087 348.745C183.087 352.437 186.081 355.431 189.773 355.431C193.465 355.431 196.459 352.437 196.459 348.745C196.459 345.052 193.465 342.059 189.773 342.059ZM189.773 352.103C187.918 352.103 186.413 350.6 186.413 348.744C186.413 346.889 187.918 345.384 189.773 345.384C191.628 345.384 193.133 346.889 193.133 348.744C193.133 350.6 191.628 352.103 189.773 352.103Z" fill="#969696"/>
<path d="M189.814 352.212C191.933 352.212 193.651 350.495 193.651 348.375C193.651 346.256 191.933 344.538 189.814 344.538C187.695 344.538 185.977 346.256 185.977 348.375C185.977 350.495 187.695 352.212 189.814 352.212Z" fill="black"/>
<path d="M158.459 405.015C158.459 405.015 155.33 386.342 154.26 381.551C152.258 372.585 156.089 352.914 155.625 349.472C155.162 346.029 155.128 342.366 159.568 346.961C164.006 351.556 162.626 369.169 162.184 377.954C161.738 386.736 167.731 396.544 168.28 399.276C168.822 402.012 163.585 398.675 163.585 398.675L158.459 405.015Z" fill="#996234"/>
<path d="M219.221 426.958C219.221 426.958 224.118 406.834 224.54 401.944C225.322 392.792 218.9 373.809 218.9 370.335C218.9 366.86 218.451 363.227 214.661 368.373C210.874 373.519 214.591 390.789 216.203 399.438C217.821 408.081 210.041 417.731 209.866 420.512C209.692 423.296 217.591 420.16 217.591 420.16L219.221 426.958Z" fill="#996234"/>
<path d="M219.243 375.806C219.243 375.806 222.771 351.12 208.552 346.521C196.309 342.561 186.645 337.45 176.089 343.421C165.532 349.395 160.58 346.88 159.08 358.561C157.658 369.636 150.277 376.24 159.634 377.78C169.716 379.443 202.267 380.772 204.134 380.975C215.602 382.242 219.243 375.806 219.243 375.806Z" fill="#8BC7E8"/>
<path d="M180.833 309.096C180.833 309.096 180.525 322.646 180.769 339.031C180.934 350.046 189.177 351.124 193.925 347.254C200.048 342.264 195.607 324.402 196.277 320.865C196.947 317.326 180.833 309.096 180.833 309.096Z" fill="#996234"/>
<path d="M186.874 339.529C186.874 339.529 176.018 338.231 177.648 327.376C179.269 316.526 173.218 308.402 181.139 305.65C188.614 303.054 193.653 296.701 197.035 305.763C200.416 314.825 202.857 319.634 200.416 326.004C197.977 332.381 198.488 333.934 195.385 337.97C192.285 342.014 186.874 339.529 186.874 339.529Z" fill="#301705"/>
<path d="M235.619 374.814C235.619 375.976 234.968 376.701 234.355 376.701H229.542C228.928 376.701 228.588 375.975 228.588 374.814V352.734C228.588 351.571 228.93 350.451 229.542 350.451H234.355C234.969 350.451 235.619 351.572 235.619 352.734V374.814Z" fill="#5B5B5B"/>
<path opacity="0.7" d="M229.196 217.273C230.037 216.301 232.175 218.641 234.41 217.77C236.642 216.9 235.557 218.499 236.348 219.485C237.139 220.471 239.07 219.941 240.485 218.639C241.901 217.336 242.764 218.485 245.963 218.874C249.162 219.263 247.206 219.242 247.922 218.806C248.638 218.369 250.493 219.634 253.514 220.11C256.533 220.587 254.679 219.144 256.824 218.199C258.97 217.251 259.143 217.857 262.685 219.229C266.23 220.6 267.66 219.815 268.827 218.938C269.992 218.06 272.217 217.994 273.543 218.808C274.869 219.623 275.309 220.162 276.11 219.992C276.913 219.822 277.628 219.474 277.628 219.474C277.628 219.474 278.787 219.398 279.674 219.584C280.561 219.771 281.263 220.758 282.41 221.658C283.558 222.561 284.853 223.959 285.937 222.37C287.022 220.78 289.446 221.911 291.747 223.269C293.586 224.357 290.217 223.877 288.072 224.833C285.926 225.789 281.584 224.141 277.845 224.459C274.104 224.776 275.73 222.479 268.528 222.047C261.327 221.616 264.54 220.583 262.573 221.541C260.606 222.499 257.318 222.108 251.717 221.871C246.113 221.635 249.33 220.246 244.265 219.711C239.2 219.176 238.923 220.224 236.871 220.737C234.819 221.249 234.929 219.381 232.178 218.641C229.755 217.989 229.596 218.671 228.78 218.956C228.668 218.995 228.546 219.025 228.404 219.046C228.402 219.046 228.355 218.244 229.196 217.273Z" fill="white"/>
<path d="M269.218 221.479C269.218 221.479 274.922 219.089 275.673 219.223C276.424 219.356 278.151 219.404 278.949 219.459C279.747 219.513 280.546 219.558 281.132 219.057C281.717 218.558 284.319 217.019 284.669 216.853C285.019 216.687 284.248 214.519 283.801 213.684C283.356 212.849 280.718 207.887 280.535 206.312C280.354 204.737 279.549 204.762 279.441 204.503C279.334 204.241 278.284 203.583 277.868 203.506C277.451 203.428 272.838 200.097 272.057 200.377C271.276 200.658 269.645 202.788 269.594 202.907C269.543 203.024 269.509 203.486 268.831 203.542C268.15 203.599 267.695 204.073 267.695 204.073C267.695 204.073 267.024 204.573 266.853 204.603C266.681 204.633 266.159 205.439 265.905 205.463C265.649 205.488 265.175 205.031 265.377 204.581C265.578 204.131 266.165 203.624 266.478 203.373C266.791 203.122 267.83 202.775 267.853 202.46C267.876 202.144 267.062 201.711 266.727 201.706C266.388 201.699 264.065 202.206 263.546 202.147C263.025 202.088 261.789 202.262 261.657 202.332C261.526 202.402 260.607 202.248 260.251 201.929C259.894 201.608 259.588 201.172 259.46 201.18C259.332 201.187 259.163 200.627 259.214 200.504C259.265 200.381 261.907 198.883 261.907 198.883C261.907 198.883 262.736 198.066 262.8 197.982C262.865 197.897 263.192 197.457 263.529 197.481C263.865 197.507 265.289 197.651 265.881 197.652C266.472 197.653 267.823 197.075 268.672 197.009C269.521 196.945 271.216 196.266 271.494 196.518C271.771 196.77 273.007 197.197 273.634 197.285C274.261 197.373 281.082 198.796 281.357 199.069C281.634 199.343 284.875 203.547 285.117 203.712C285.358 203.877 287.927 209.214 288.205 209.445C288.485 209.675 293.196 214.326 293.194 216.351C293.193 216.563 293.635 217.819 293.635 217.819C293.635 217.819 296.135 220.616 296.496 220.875C296.857 221.134 297.558 220.202 297.723 220.261C297.888 220.322 299.056 218.761 299.922 219.035C300.788 219.309 301.177 219.21 301.177 219.21C301.177 219.21 301.513 219.235 301.768 219.211C302.023 219.187 303.151 219.188 304.218 219.604C305.286 220.019 306.616 220.941 306.888 221.262C307.16 221.584 308.061 222.704 308.075 223.099C308.087 223.492 308.231 223.887 307.887 223.988C307.542 224.09 306.973 224.274 306.744 224.532C306.513 224.789 304.831 225.297 303.79 225.667C302.75 226.036 302.036 225.986 301.075 225.831C300.116 225.677 299.182 225.754 298.291 225.807C297.4 225.861 294.902 226.552 293.213 226.542C291.525 226.533 288.216 225.603 287.586 226.135C286.956 226.667 286.539 227.165 285.121 226.945C283.701 226.726 279.144 225.509 278.071 225.177C276.997 224.847 270.052 223.466 269.147 222.554C268.241 221.641 269.218 221.479 269.218 221.479Z" fill="#EFD2AF"/>
<path opacity="0.7" d="M211.901 216.136C212.741 215.164 214.88 217.502 217.114 216.632C219.347 215.762 218.261 217.36 219.053 218.348C219.844 219.334 221.774 218.804 223.189 217.501C224.606 216.199 225.469 217.348 228.668 217.737C231.867 218.125 229.91 218.105 230.627 217.668C231.343 217.23 233.198 218.496 236.218 218.973C239.238 219.45 237.384 218.006 239.529 217.06C241.675 216.113 241.847 216.718 245.389 218.09C248.934 219.461 250.365 218.676 251.531 217.8C252.697 216.923 254.921 216.856 256.248 217.67C257.573 218.485 258.013 219.024 258.814 218.854C259.617 218.683 260.333 218.336 260.333 218.336C260.333 218.336 261.491 218.26 262.378 218.447C263.266 218.633 263.967 219.62 265.114 220.521C266.262 221.424 267.557 222.822 268.641 221.232C269.726 219.642 272.15 220.773 274.451 222.132C276.29 223.219 272.921 222.739 270.776 223.695C268.63 224.651 264.288 223.003 260.549 223.321C256.809 223.638 258.434 221.342 251.232 220.91C244.03 220.479 247.244 219.445 245.277 220.403C243.31 221.361 240.022 220.971 234.421 220.734C228.816 220.497 232.035 219.108 226.969 218.574C221.905 218.038 221.627 219.087 219.575 219.6C217.524 220.112 217.633 218.244 214.882 217.502C212.459 216.851 212.3 217.534 211.484 217.819C211.373 217.858 211.25 217.888 211.108 217.908C211.106 217.908 211.06 217.107 211.901 216.136Z" fill="white"/>
<path d="M294.127 222.929C293.857 223.24 293.701 223.348 293.86 223.624C294.018 223.902 294.566 224.17 294.686 224.249C294.804 224.327 295.153 224.014 295.11 223.583C295.067 223.152 294.993 222.84 295.105 222.605C295.218 222.37 294.903 222.145 294.903 222.145L294.711 222.647L294.127 222.929Z" fill="#C9A57D"/>
<path opacity="0.8" d="M234.732 220.273C235.573 219.302 237.711 221.64 239.945 220.77C242.179 219.9 241.093 221.499 241.885 222.485C242.675 223.472 244.606 222.941 246.021 221.639C247.438 220.337 248.301 221.486 251.499 221.875C254.698 222.263 252.742 222.242 253.457 221.807C254.174 221.368 256.029 222.634 259.05 223.111C262.069 223.587 260.216 222.144 262.36 221.199C264.507 220.251 264.679 220.857 268.222 222.229C271.766 223.6 273.197 222.814 274.363 221.938C275.529 221.06 277.754 220.994 279.08 221.808C280.406 222.623 280.846 223.161 281.647 222.992C282.451 222.822 283.165 222.474 283.165 222.474C283.165 222.474 284.324 222.398 285.211 222.584C286.098 222.771 286.8 223.759 287.948 224.658C289.095 225.561 290.39 226.96 291.475 225.37C292.559 223.78 294.983 224.911 297.283 226.27C299.122 227.357 295.755 226.877 293.609 227.833C291.463 228.789 287.12 227.141 283.381 227.459C279.641 227.776 281.267 225.479 274.066 225.047C266.864 224.616 270.077 223.583 268.11 224.541C266.143 225.499 262.855 225.109 257.254 224.872C251.65 224.635 254.867 223.246 249.803 222.712C244.737 222.176 244.46 223.224 242.408 223.738C240.357 224.25 240.466 222.382 237.715 221.641C235.292 220.989 235.134 221.672 234.316 221.957C234.206 221.995 234.083 222.026 233.941 222.046C233.937 222.046 233.89 221.245 234.732 220.273Z" fill="white"/>
<path d="M301.126 219.003C301.126 219.003 301.292 220.174 301.452 220.641C301.613 221.108 302.33 222.863 302.33 222.863C302.33 222.863 302.493 223.757 302.339 223.993C302.186 224.227 302.19 225.945 302.277 225.943C302.364 225.943 308.672 224.41 308.669 224.176C308.667 223.942 308.421 222.38 308.025 221.797C307.629 221.215 306.282 218.883 301.126 219.003Z" fill="#ED669D"/>
<path d="M297.462 219.886C297.267 219.932 297.175 220.949 297.713 221.023C298.253 221.096 298.678 221.21 298.743 221.679C298.808 222.147 298.196 223.714 298.474 224.22C298.751 224.724 300.201 225.261 300.553 225.336C300.905 225.41 301.765 225.433 301.164 223.568C300.564 221.703 299.841 222.026 299.607 221.203C299.479 220.752 299.634 221.008 299.778 220.421C299.923 219.833 299.955 219.215 299.591 218.988C298.638 218.398 297.462 219.886 297.462 219.886Z" fill="#5A5A72"/>
<path d="M299.511 222.102C299.511 222.102 300.569 222.484 300.814 223.849C300.96 224.66 300.666 224.905 300.472 225.024C300.278 225.142 299.338 224.917 298.941 224.178C298.545 223.438 298.811 222.419 299.511 222.102Z" fill="#27258C"/>
<path d="M298.913 220.738C298.913 220.738 299.845 219.91 299.529 219.56C299.214 219.212 298.781 218.9 298.548 219.02C298.314 219.141 297.732 219.548 297.735 219.875C297.738 220.2 297.585 220.71 297.976 220.746C298.368 220.782 298.913 220.738 298.913 220.738Z" fill="#27258C"/>
<path d="M286.019 226.956C286.069 226.961 286.116 226.971 286.158 226.984C286.463 227.077 286.53 227.325 287.414 227.054C288.417 226.744 288.351 226.058 289.115 226.219C289.877 226.38 289.994 226.763 291.852 226.498C293.711 226.232 292.507 225.765 294.569 225.602C296.629 225.439 297.835 225.251 298.571 225.578C299.31 225.903 298.113 225.567 300.759 225.311C303.406 225.055 302.777 224.231 304.157 224.298C305.539 224.364 307.117 223.698 307.919 224.024C308.723 224.346 309.958 224.124 309.295 224.549C308.466 225.081 307.588 225.529 307.167 224.959C306.746 224.386 306.288 224.92 305.878 225.268C305.468 225.615 305.223 225.988 304.897 226.069C304.572 226.15 304.146 226.138 304.146 226.138C304.146 226.138 303.877 226.019 303.579 225.966C303.281 225.915 303.128 226.119 302.65 226.437C302.172 226.755 301.352 226.761 300.911 226.454C300.471 226.146 299.931 225.875 298.646 226.429C297.358 226.982 297.303 227.207 296.5 226.888C295.696 226.568 296.36 226.011 295.254 226.227C294.149 226.443 293.483 226.935 293.213 226.783C292.943 226.632 293.663 226.598 292.49 226.784C291.317 226.97 291.015 227.405 290.475 226.944C289.936 226.484 289.218 226.313 288.941 226.687C288.663 227.063 289.083 227.636 288.249 227.345C287.415 227.054 286.658 227.944 286.336 227.598C286.012 227.252 286.019 226.956 286.019 226.956Z" fill="white"/>
<path opacity="0.7" d="M158.485 179.879C158.747 179.547 159.486 180.285 160.209 179.966C160.932 179.647 160.598 180.19 160.872 180.503C161.147 180.816 161.775 180.614 162.222 180.164C162.669 179.715 162.97 180.08 164.029 180.162C165.088 180.243 164.444 180.265 164.673 180.111C164.902 179.956 165.532 180.346 166.533 180.458C167.534 180.571 166.903 180.123 167.595 179.781C168.288 179.438 168.354 179.634 169.54 180.034C170.727 180.434 171.187 180.155 171.558 179.849C171.93 179.543 172.661 179.488 173.109 179.737C173.558 179.986 173.711 180.157 173.972 180.089C174.234 180.021 174.465 179.896 174.465 179.896C174.465 179.896 174.845 179.854 175.14 179.903C175.435 179.951 175.68 180.266 176.071 180.546C176.462 180.826 176.909 181.268 177.242 180.728C177.577 180.189 178.391 180.526 179.168 180.94C179.79 181.271 178.673 181.162 177.982 181.508C177.288 181.854 175.835 181.375 174.608 181.534C173.381 181.693 173.883 180.913 171.505 180.876C169.128 180.839 170.171 180.452 169.537 180.796C168.903 181.14 167.815 181.06 165.967 181.064C164.118 181.068 165.158 180.563 163.482 180.461C161.806 180.359 161.73 180.708 161.062 180.907C160.394 181.105 160.402 180.488 159.486 180.285C158.678 180.105 158.636 180.332 158.371 180.438C158.335 180.453 158.295 180.465 158.249 180.473C158.249 180.474 158.222 180.211 158.485 179.879Z" fill="white"/>
<path d="M171.724 180.68C171.724 180.68 173.568 179.81 173.817 179.843C174.067 179.876 174.636 179.866 174.9 179.873C175.163 179.879 175.427 179.882 175.613 179.709C175.798 179.536 176.632 178.991 176.745 178.931C176.858 178.871 176.572 178.169 176.413 177.901C176.254 177.632 175.313 176.037 175.23 175.521C175.148 175.005 174.883 175.025 174.844 174.941C174.804 174.856 174.449 174.655 174.311 174.636C174.172 174.616 172.605 173.587 172.351 173.69C172.098 173.794 171.593 174.519 171.578 174.559C171.563 174.599 171.558 174.751 171.336 174.78C171.112 174.808 170.969 174.971 170.969 174.971C170.969 174.971 170.756 175.146 170.7 175.158C170.644 175.17 170.484 175.443 170.4 175.455C170.316 175.467 170.154 175.323 170.214 175.172C170.274 175.021 170.459 174.845 170.558 174.758C170.658 174.671 170.995 174.541 170.998 174.437C171.001 174.333 170.726 174.203 170.616 174.205C170.504 174.208 169.747 174.409 169.575 174.397C169.402 174.385 168.998 174.46 168.955 174.485C168.913 174.51 168.609 174.473 168.487 174.373C168.364 174.273 168.257 174.134 168.215 174.138C168.174 174.142 168.109 173.96 168.124 173.919C168.139 173.878 168.987 173.346 168.987 173.346C168.987 173.346 169.248 173.065 169.269 173.036C169.289 173.007 169.39 172.858 169.501 172.861C169.612 172.863 170.083 172.89 170.278 172.883C170.473 172.874 170.909 172.664 171.187 172.63C171.466 172.596 172.014 172.348 172.11 172.426C172.205 172.505 172.618 172.628 172.826 172.648C173.033 172.668 175.3 173.037 175.394 173.123C175.489 173.209 176.618 174.546 176.701 174.597C176.782 174.648 177.706 176.368 177.801 176.44C177.896 176.512 179.515 177.974 179.544 178.642C179.548 178.711 179.711 179.118 179.711 179.118C179.711 179.118 180.575 180.003 180.697 180.083C180.82 180.163 181.038 179.846 181.092 179.863C181.148 179.881 181.51 179.349 181.799 179.427C182.088 179.504 182.214 179.466 182.214 179.466C182.214 179.466 182.326 179.469 182.409 179.458C182.493 179.446 182.864 179.43 183.222 179.551C183.579 179.672 184.031 179.956 184.125 180.059C184.219 180.161 184.532 180.516 184.543 180.646C184.553 180.775 184.606 180.903 184.494 180.942C184.382 180.98 184.197 181.049 184.126 181.137C184.054 181.225 183.507 181.417 183.17 181.554C182.833 181.691 182.597 181.684 182.279 181.648C181.96 181.611 181.654 181.65 181.361 181.681C181.069 181.711 180.256 181.975 179.7 181.997C179.144 182.018 178.041 181.761 177.841 181.945C177.641 182.13 177.511 182.3 177.041 182.248C176.57 182.196 175.052 181.862 174.694 181.769C174.335 181.675 172.028 181.322 171.717 181.035C171.405 180.748 171.724 180.68 171.724 180.68Z" fill="#EFD2AF"/>
<path opacity="0.7" d="M152.773 179.757C153.036 179.425 153.774 180.164 154.497 179.845C155.22 179.525 154.885 180.068 155.161 180.381C155.435 180.694 156.063 180.491 156.51 180.042C156.958 179.592 157.259 179.958 158.317 180.04C159.377 180.121 158.732 180.143 158.961 179.988C159.191 179.834 159.82 180.223 160.822 180.337C161.823 180.45 161.192 180.002 161.884 179.659C162.577 179.316 162.642 179.512 163.829 179.913C165.016 180.312 165.476 180.033 165.847 179.727C166.218 179.422 166.95 179.367 167.398 179.616C167.846 179.865 167.999 180.036 168.26 179.968C168.522 179.9 168.752 179.775 168.752 179.775C168.752 179.775 169.133 179.733 169.427 179.782C169.722 179.831 169.968 180.145 170.359 180.425C170.75 180.706 171.196 181.147 171.531 180.608C171.864 180.069 172.679 180.406 173.456 180.82C174.077 181.151 172.961 181.042 172.269 181.388C171.576 181.734 170.122 181.254 168.896 181.413C167.669 181.572 168.171 180.793 165.793 180.756C163.415 180.719 164.459 180.332 163.825 180.676C163.191 181.02 162.103 180.94 160.255 180.943C158.406 180.947 159.445 180.443 157.77 180.34C156.094 180.238 156.018 180.588 155.349 180.786C154.682 180.985 154.69 180.368 153.774 180.164C152.966 179.985 152.924 180.212 152.659 180.318C152.623 180.332 152.583 180.344 152.537 180.353C152.537 180.353 152.51 180.089 152.773 179.757Z" fill="white"/>
<path d="M179.948 180.794C179.863 180.9 179.814 180.938 179.87 181.027C179.926 181.116 180.111 181.197 180.151 181.221C180.191 181.245 180.302 181.137 180.281 180.996C180.261 180.854 180.232 180.753 180.265 180.674C180.299 180.595 180.192 180.525 180.192 180.525L180.137 180.694L179.948 180.794Z" fill="#C9A57D"/>
<path opacity="0.8" d="M160.352 180.787C160.614 180.455 161.353 181.194 162.076 180.874C162.798 180.555 162.464 181.098 162.739 181.411C163.014 181.724 163.642 181.521 164.089 181.072C164.537 180.623 164.837 180.988 165.896 181.07C166.955 181.151 166.311 181.173 166.54 181.019C166.769 180.864 167.398 181.254 168.4 181.367C169.401 181.48 168.77 181.032 169.462 180.689C170.155 180.345 170.221 180.543 171.407 180.942C172.594 181.342 173.054 181.062 173.425 180.757C173.796 180.451 174.528 180.396 174.976 180.645C175.425 180.894 175.577 181.065 175.839 180.997C176.102 180.929 176.331 180.804 176.331 180.804C176.331 180.804 176.712 180.762 177.007 180.811C177.302 180.86 177.547 181.175 177.938 181.454C178.329 181.735 178.775 182.177 179.11 181.637C179.443 181.098 180.258 181.435 181.035 181.849C181.657 182.179 180.541 182.071 179.848 182.417C179.155 182.763 177.701 182.284 176.475 182.443C175.248 182.602 175.75 181.822 173.372 181.785C170.995 181.748 172.037 181.361 171.404 181.705C170.77 182.049 169.682 181.969 167.834 181.972C165.985 181.976 167.024 181.472 165.349 181.37C163.673 181.267 163.597 181.617 162.929 181.816C162.261 182.014 162.27 181.398 161.353 181.194C160.545 181.014 160.503 181.242 160.238 181.347C160.202 181.362 160.162 181.373 160.116 181.382C160.116 181.382 160.089 181.119 160.352 180.787Z" fill="white"/>
<path d="M182.196 179.399C182.196 179.399 182.267 179.782 182.327 179.933C182.387 180.085 182.648 180.653 182.648 180.653C182.648 180.653 182.715 180.945 182.668 181.024C182.62 181.103 182.647 181.669 182.676 181.667C182.705 181.666 184.759 181.069 184.755 180.992C184.751 180.915 184.647 180.405 184.509 180.218C184.369 180.032 183.891 179.284 182.196 179.399Z" fill="#39BCEA"/>
<path d="M181.002 179.743C180.938 179.761 180.923 180.097 181.101 180.114C181.28 180.13 181.421 180.161 181.45 180.315C181.478 180.468 181.299 180.993 181.398 181.156C181.497 181.318 181.982 181.473 182.099 181.493C182.216 181.512 182.499 181.507 182.274 180.902C182.049 180.296 181.816 180.414 181.727 180.146C181.678 179.999 181.733 180.081 181.772 179.886C181.811 179.69 181.813 179.486 181.689 179.417C181.367 179.236 181.002 179.743 181.002 179.743Z" fill="#5A5A72"/>
<path d="M181.709 180.442C181.709 180.442 182.063 180.553 182.164 180.999C182.223 181.264 182.13 181.349 182.068 181.391C182.006 181.432 181.693 181.372 181.552 181.135C181.41 180.897 181.482 180.558 181.709 180.442Z" fill="#27258C"/>
<path d="M181.492 180.003C181.492 180.003 181.787 179.716 181.678 179.606C181.569 179.496 181.422 179.399 181.346 179.442C181.271 179.485 181.086 179.628 181.091 179.736C181.097 179.843 181.054 180.013 181.184 180.019C181.313 180.025 181.492 180.003 181.492 180.003Z" fill="#27258C"/>
<path d="M177.337 182.238C177.354 182.239 177.37 182.242 177.384 182.246C177.485 182.272 177.511 182.353 177.798 182.25C178.124 182.134 178.092 181.909 178.345 181.95C178.6 181.993 178.644 182.117 179.252 182.002C179.86 181.888 179.457 181.751 180.133 181.668C180.809 181.584 181.203 181.504 181.451 181.601C181.698 181.698 181.299 181.604 182.167 181.482C183.035 181.359 182.815 181.096 183.271 181.098C183.728 181.1 184.237 180.858 184.506 180.953C184.775 181.048 185.179 180.956 184.967 181.106C184.701 181.293 184.419 181.453 184.272 181.272C184.126 181.089 183.982 181.272 183.852 181.393C183.722 181.513 183.647 181.639 183.541 181.67C183.434 181.702 183.295 181.704 183.295 181.704C183.295 181.704 183.205 181.669 183.105 181.655C183.007 181.643 182.959 181.712 182.806 181.824C182.653 181.936 182.384 181.95 182.234 181.855C182.084 181.76 181.902 181.678 181.487 181.88C181.071 182.081 181.056 182.156 180.788 182.062C180.518 181.969 180.729 181.775 180.368 181.863C180.007 181.95 179.795 182.122 179.704 182.076C179.613 182.03 179.849 182.008 179.466 182.087C179.082 182.165 178.989 182.313 178.805 182.169C178.62 182.025 178.381 181.979 178.295 182.106C178.209 182.234 178.357 182.417 178.077 182.333C177.798 182.249 177.562 182.554 177.451 182.444C177.339 182.336 177.337 182.238 177.337 182.238Z" fill="white"/>
<path opacity="0.7" d="M105.425 202.595C105.323 202.583 105.236 202.563 105.156 202.537C104.569 202.347 104.444 201.863 102.726 202.367C100.774 202.941 100.883 204.271 99.4106 203.939C97.9373 203.606 97.7227 202.863 94.117 203.327C90.5109 203.791 92.8298 204.73 88.8342 204.99C84.8409 205.251 82.5009 205.582 81.082 204.931C79.6622 204.279 81.9722 204.964 76.8398 205.389C71.7075 205.815 72.9047 207.427 70.2305 207.261C67.5567 207.096 64.485 208.342 62.9381 207.695C61.3917 207.048 58.9955 207.445 60.2906 206.639C61.9106 205.633 63.6211 204.786 64.4217 205.903C65.2214 207.02 66.1228 206.001 66.9272 205.338C67.7311 204.678 68.2158 203.961 68.8462 203.813C69.4762 203.666 70.3041 203.701 70.3041 203.701C70.3041 203.701 70.8206 203.938 71.3962 204.046C71.9709 204.154 72.2761 203.763 73.2089 203.16C74.1417 202.557 75.7308 202.568 76.5769 203.175C77.4234 203.782 78.4566 204.319 80.9639 203.282C83.4694 202.246 83.5828 201.811 85.1297 202.452C86.6752 203.091 85.3762 204.152 87.5231 203.762C89.6709 203.373 90.9741 202.44 91.492 202.74C92.01 203.04 90.6141 203.087 92.8908 202.758C95.167 202.428 95.7638 201.594 96.7964 202.5C97.8277 203.406 99.2138 203.753 99.7627 203.037C100.311 202.32 99.5105 201.196 101.118 201.781C102.727 202.366 104.215 200.662 104.83 201.342C105.446 202.023 105.426 202.595 105.425 202.595Z" fill="white"/>
<path d="M76.4071 205.762C75.7762 206.426 70.8421 207.525 70.0818 207.779C69.3201 208.033 66.0885 208.976 65.0793 209.155C64.0706 209.335 63.7649 208.987 63.3065 208.617C62.8485 208.248 60.5024 208.965 59.2973 209C58.0931 209.034 56.2982 208.581 55.6621 208.557C55.0251 208.534 54.3567 208.495 53.6751 208.62C52.9917 208.746 52.4835 208.794 51.7349 208.547C50.9868 208.3 49.7774 207.965 49.6087 207.785C49.4413 207.605 49.0326 207.482 48.7846 207.416C48.5376 207.349 48.6328 207.065 48.6356 206.784C48.6393 206.502 49.2637 205.688 49.4531 205.454C49.642 205.22 50.5757 204.541 51.3313 204.228C52.0865 203.913 52.8913 203.894 53.0737 203.906C53.256 203.92 53.4956 203.897 53.4956 203.897C53.4956 203.897 53.7735 203.961 54.3876 203.751C55.0017 203.542 55.8604 204.637 55.9771 204.591C56.0938 204.545 56.6095 205.2 56.8631 205.008C57.1167 204.818 58.8548 202.78 58.8548 202.78C58.8548 202.78 59.1496 201.878 59.1459 201.726C59.1112 200.281 62.3981 196.886 62.5931 196.717C62.7881 196.547 64.5346 192.697 64.7034 192.575C64.8735 192.453 67.1184 189.401 67.311 189.201C67.5032 189.002 72.3473 187.875 72.7935 187.802C73.2398 187.729 74.1149 187.404 74.3081 187.219C74.5021 187.035 75.7237 187.493 76.3303 187.524C76.9368 187.557 77.9109 187.948 78.3323 187.937C78.7546 187.927 79.7685 187.801 80.0076 187.777C80.2471 187.755 80.4876 188.064 80.5354 188.123C80.5828 188.182 81.1874 188.751 81.1874 188.751C81.1874 188.751 83.0971 189.777 83.1356 189.864C83.174 189.951 83.062 190.354 82.9701 190.351C82.8792 190.347 82.6678 190.663 82.4184 190.898C82.1699 191.132 81.5165 191.256 81.4218 191.209C81.3267 191.161 80.4417 191.057 80.0709 191.108C79.7006 191.158 78.0351 190.834 77.7937 190.844C77.5537 190.854 76.9804 191.176 77.002 191.401C77.0231 191.625 77.7703 191.856 77.9981 192.03C78.2254 192.204 78.652 192.556 78.8029 192.874C78.9543 193.192 78.6234 193.526 78.441 193.513C78.2587 193.499 77.8729 192.932 77.7496 192.914C77.6268 192.895 77.1403 192.55 77.1403 192.55C77.1403 192.55 76.8074 192.219 76.3213 192.189C75.8357 192.16 75.8048 191.83 75.7664 191.748C75.7274 191.664 74.5293 190.171 73.9673 189.983C73.4053 189.795 70.1671 192.248 69.8709 192.31C69.5751 192.372 68.8363 192.859 68.7642 193.047C68.6915 193.234 68.1168 193.229 68.0132 194.356C67.9087 195.482 66.1068 199.067 65.8021 199.67C65.4974 200.273 64.9818 201.832 65.2345 201.945C65.4876 202.058 67.3687 203.114 67.7948 203.461C68.2209 203.808 68.7899 203.763 69.359 203.711C69.9276 203.66 71.159 203.597 71.6929 203.49C72.2264 203.383 76.3359 204.995 76.3359 204.995C76.3359 204.995 77.0381 205.095 76.4071 205.762Z" fill="#EFD2AF"/>
<path opacity="0.7" d="M117.749 201.502C117.648 201.489 117.56 201.47 117.479 201.444C116.892 201.254 116.768 200.769 115.049 201.273C113.098 201.848 113.206 203.179 111.734 202.846C110.261 202.513 110.046 201.77 106.441 202.234C102.835 202.698 105.154 203.637 101.158 203.897C97.1647 204.158 94.8247 204.49 93.4053 203.837C91.9855 203.186 94.296 203.871 89.1636 204.296C84.0313 204.721 85.2285 206.334 82.5547 206.168C79.881 206.002 76.8093 207.248 75.2619 206.602C73.7155 205.954 71.3197 206.351 72.6144 205.545C74.2344 204.539 75.9454 203.693 76.7455 204.809C77.5452 205.926 78.4466 204.907 79.251 204.244C80.0549 203.583 80.5396 202.867 81.17 202.719C81.8005 202.572 82.6274 202.607 82.6274 202.607C82.6274 202.607 83.1444 202.844 83.7196 202.952C84.2947 203.06 84.5994 202.669 85.5322 202.066C86.4655 201.463 88.0541 201.474 88.9002 202.081C89.7468 202.688 90.7804 203.224 93.2877 202.189C95.7932 201.151 95.9061 200.717 97.453 201.358C98.9985 201.998 97.6996 203.059 99.8464 202.669C101.994 202.28 103.297 201.346 103.815 201.647C104.333 201.947 102.937 201.993 105.214 201.664C107.49 201.334 108.088 200.501 109.12 201.406C110.151 202.313 111.537 202.661 112.086 201.944C112.634 201.226 111.833 200.103 113.441 200.688C115.049 201.272 116.537 199.569 117.153 200.249C117.77 200.929 117.749 201.502 117.749 201.502Z" fill="white"/>
<path d="M58.1648 206.244L58.02 205.889C58.02 205.889 57.7983 206.055 57.8831 206.221C57.967 206.387 57.9197 206.611 57.8958 206.919C57.8719 207.227 58.1264 207.444 58.2094 207.387C58.2928 207.329 58.68 207.128 58.7883 206.928C58.897 206.728 58.7841 206.654 58.5862 206.436L58.1648 206.244Z" fill="#C9A57D"/>
<path opacity="0.8" d="M101.523 204.826C101.422 204.814 101.334 204.795 101.254 204.77C100.666 204.579 100.542 204.095 98.8234 204.599C96.872 205.173 96.9803 206.504 95.5084 206.171C94.0356 205.839 93.8205 205.094 90.2148 205.559C86.6097 206.023 88.9276 206.961 84.932 207.222C80.9387 207.482 78.5987 207.814 77.1798 207.163C75.76 206.511 78.0705 207.196 72.9381 207.621C67.8058 208.046 69.0039 209.659 66.3297 209.493C63.6559 209.327 60.5837 210.574 59.0369 209.927C57.49 209.279 55.0947 209.677 56.3894 208.871C58.0084 207.864 59.7194 207.017 60.52 208.134C61.3197 209.251 62.2211 208.232 63.0255 207.569C63.8298 206.909 64.3145 206.192 64.9445 206.045C65.5745 205.897 66.4028 205.933 66.4028 205.933C66.4028 205.933 66.9184 206.17 67.4945 206.278C68.0692 206.385 68.3739 205.994 69.3072 205.391C70.2405 204.789 71.8286 204.8 72.6751 205.406C73.5217 206.013 74.5558 206.55 77.0626 205.514C79.5681 204.477 79.6815 204.042 81.2284 204.684C82.7739 205.324 81.475 206.384 83.6219 205.994C85.7701 205.605 87.0728 204.672 87.5917 204.973C88.1092 205.273 86.7137 205.319 88.99 204.989C91.2658 204.66 91.863 203.826 92.8951 204.732C93.9264 205.639 95.3134 205.986 95.8609 205.269C96.4094 204.552 95.6087 203.429 97.217 204.014C98.8253 204.598 100.313 202.894 100.929 203.574C101.545 204.254 101.524 204.826 101.523 204.826Z" fill="white"/>
<path d="M48.6502 205.854C48.3769 206.276 48.2269 207.394 48.2293 207.562C48.2307 207.729 52.7569 208.72 52.8188 208.719C52.8816 208.719 52.8563 207.493 52.7433 207.329C52.6294 207.163 52.7311 206.522 52.7311 206.522C52.7311 206.522 53.2144 205.257 53.3213 204.921C53.4277 204.586 53.5271 203.747 53.5271 203.747C49.8465 203.745 48.9226 205.432 48.6502 205.854Z" fill="#604C19"/>
<path d="M54.6234 203.712C54.3674 203.879 54.3998 204.321 54.5127 204.738C54.6257 205.154 54.7316 204.969 54.6477 205.293C54.494 205.885 53.9732 205.666 53.5748 207.006C53.1763 208.346 53.7894 208.317 54.0393 208.258C54.2896 208.199 55.3152 207.792 55.5051 207.428C55.6949 207.063 55.2323 205.954 55.2712 205.619C55.3101 205.283 55.611 205.195 55.9954 205.134C56.3784 205.073 56.2963 204.349 56.1562 204.319C56.1566 204.318 55.2932 203.276 54.6234 203.712Z" fill="#5A5A72"/>
<path d="M55.1705 207.405C54.8991 207.938 54.2325 208.115 54.0919 208.033C53.9522 207.952 53.738 207.781 53.8289 207.201C53.9817 206.223 54.7299 205.933 54.7299 205.933C55.2356 206.148 55.4414 206.87 55.1705 207.405Z" fill="#27258C"/>
<path d="M55.8033 204.94C56.0822 204.908 55.9641 204.547 55.9613 204.315C55.958 204.081 55.5357 203.8 55.3674 203.718C55.1986 203.636 54.8954 203.866 54.6755 204.119C54.4561 204.374 55.1344 204.95 55.1344 204.95C55.1344 204.95 55.5249 204.973 55.8033 204.94Z" fill="#27258C"/>
<path d="M64.2225 209.641C63.998 209.894 63.4439 209.271 62.8533 209.491C62.2631 209.713 62.5538 209.296 62.3489 209.033C62.145 208.771 61.636 208.904 61.2586 209.242C60.8803 209.579 60.6581 209.273 59.8172 209.16C58.9777 209.046 59.4919 209.058 59.3016 209.171C59.1113 209.284 58.628 208.943 57.8358 208.807C57.0427 208.672 57.5259 209.058 56.9574 209.299C56.3897 209.54 56.3466 209.381 55.4189 209.007C54.4922 208.633 54.1116 208.835 53.8027 209.061C53.4928 209.287 52.9074 209.297 52.5619 209.078C52.215 208.859 52.103 208.716 51.8906 208.756C51.6788 208.799 51.4889 208.888 51.4889 208.888C51.4889 208.888 51.1856 208.904 50.9517 208.851C50.7183 208.799 50.5374 208.536 50.2388 208.295C49.9406 208.054 49.605 207.68 49.3139 208.095C49.0224 208.51 48.3886 208.203 47.7891 207.837C47.3091 207.545 48.1936 207.683 48.7617 207.44C49.3289 207.195 50.4656 207.644 51.4509 207.575C52.4353 207.504 51.9994 208.103 53.8922 208.243C55.7855 208.382 54.9361 208.642 55.4574 208.397C55.9777 208.152 56.8416 208.267 58.3139 208.349C59.7881 208.431 58.9364 208.785 60.2672 208.944C61.5975 209.104 61.6749 208.829 62.2163 208.701C62.7586 208.574 62.7225 209.064 63.4434 209.269C64.0786 209.449 64.1227 209.27 64.3388 209.198C64.3678 209.189 64.4011 209.181 64.4372 209.176C64.4381 209.177 64.447 209.389 64.2225 209.641Z" fill="white"/>
<path d="M195.463 100.768H181.518V143.424H195.463V100.768Z" fill="#0C0C0C"/>
<path d="M220.507 138.655C212.181 124.249 203.867 109.838 195.549 95.4275C194.881 94.273 194.231 93.1035 193.539 91.963C192.023 89.4664 189.478 88.2641 186.825 88.8271C184.816 89.2536 183.431 90.5235 182.425 92.2653C176.376 102.748 170.324 113.227 164.273 123.707C161.338 128.791 158.393 133.871 155.473 138.963C153.588 142.25 154.458 145.947 157.496 147.693C158.689 148.38 159.99 148.594 161.349 148.593C170.232 148.587 179.114 148.591 187.997 148.591C189.612 148.591 191.227 148.591 192.842 148.591C200.249 148.588 207.655 148.602 215.063 148.582C218.561 148.573 221.141 146.495 221.603 143.352C221.853 141.655 221.354 140.12 220.507 138.655ZM191.897 100.96L190.733 128.831H185.559L184.46 100.96H191.897ZM188.179 141.247C185.893 141.247 184.04 139.394 184.04 137.108C184.04 134.823 185.893 132.97 188.179 132.97C190.464 132.97 192.317 134.823 192.317 137.108C192.317 139.394 190.465 141.247 188.179 141.247Z" fill="#070707"/>
<path d="M217.461 137.244C209.917 124.19 202.384 111.134 194.847 98.0757C194.242 97.03 193.653 95.9701 193.026 94.937C191.653 92.6748 189.346 91.5854 186.943 92.0954C185.123 92.4817 183.867 93.6325 182.956 95.2107C177.474 104.709 171.991 114.204 166.508 123.699C163.848 128.306 161.181 132.909 158.534 137.523C156.826 140.501 157.614 143.851 160.367 145.433C161.448 146.056 162.626 146.25 163.858 146.249C171.907 146.243 179.955 146.247 188.004 146.247C189.467 146.247 190.931 146.247 192.394 146.247C199.105 146.245 205.816 146.257 212.528 146.239C215.698 146.23 218.036 144.347 218.454 141.499C218.681 139.962 218.228 138.571 217.461 137.244ZM191.538 103.089L190.483 128.343H185.796L184.8 103.089H191.538ZM188.168 139.593C186.098 139.593 184.418 137.914 184.418 135.843C184.418 133.772 186.098 132.093 188.168 132.093C190.239 132.093 191.918 133.772 191.918 135.843C191.918 137.914 190.24 139.593 188.168 139.593Z" fill="#F9E132"/>
<rect x="315.775" y="15.2949" width="44.0746" height="25" rx="12.5" fill="#969696" fill-opacity="0.3"/>
<path d="M329.816 25.5312C329.816 26.0462 329.666 26.5088 329.365 26.9189C329.064 27.3245 328.667 27.623 328.175 27.8145C328.75 28.0104 329.21 28.3271 329.556 28.7646C329.903 29.2021 330.076 29.708 330.076 30.2822C330.076 31.1344 329.786 31.8112 329.208 32.3125C328.629 32.8092 327.863 33.0576 326.911 33.0576C325.949 33.0576 325.179 32.8092 324.6 32.3125C324.026 31.8158 323.739 31.139 323.739 30.2822C323.739 29.7171 323.905 29.2135 324.238 28.7715C324.57 28.3294 325.026 28.0104 325.605 27.8145C325.113 27.623 324.721 27.3245 324.429 26.9189C324.138 26.5088 323.992 26.0462 323.992 25.5312C323.992 24.7064 324.256 24.0501 324.785 23.5625C325.318 23.0749 326.022 22.8311 326.897 22.8311C327.772 22.8311 328.476 23.0771 329.009 23.5693C329.547 24.0615 329.816 24.7155 329.816 25.5312ZM329.255 30.2891C329.255 29.6693 329.034 29.1611 328.592 28.7646C328.15 28.3636 327.585 28.1631 326.897 28.1631C326.209 28.1631 325.646 28.359 325.208 28.751C324.771 29.1429 324.552 29.6556 324.552 30.2891C324.552 30.9225 324.764 31.4284 325.188 31.8066C325.612 32.1803 326.186 32.3672 326.911 32.3672C327.617 32.3672 328.184 32.1803 328.613 31.8066C329.041 31.4329 329.255 30.9271 329.255 30.2891ZM328.996 25.5244C328.996 24.9548 328.797 24.4808 328.401 24.1025C328.009 23.7197 327.508 23.5283 326.897 23.5283C326.277 23.5283 325.774 23.7129 325.386 24.082C325.003 24.4466 324.812 24.9274 324.812 25.5244C324.812 26.1077 325.003 26.5771 325.386 26.9326C325.774 27.2881 326.279 27.4658 326.904 27.4658C327.519 27.4658 328.02 27.2881 328.408 26.9326C328.8 26.5726 328.996 26.1032 328.996 25.5244ZM331.73 33.7754H330.985L335.141 22.9678H335.879L331.73 33.7754ZM343.515 32.9209H337.281V32.292L340.692 28.4229C341.257 27.7712 341.649 27.2334 341.868 26.8096C342.086 26.3857 342.196 25.9733 342.196 25.5723C342.196 24.9434 342.011 24.4466 341.642 24.082C341.273 23.7129 340.765 23.5283 340.118 23.5283C339.448 23.5283 338.905 23.7425 338.491 24.1709C338.081 24.5993 337.875 25.1553 337.875 25.8389H337.062C337.062 25.2783 337.187 24.7679 337.438 24.3076C337.693 23.8473 338.053 23.4873 338.518 23.2275C338.987 22.9632 339.521 22.8311 340.118 22.8311C341.029 22.8311 341.74 23.0703 342.25 23.5488C342.765 24.0273 343.023 24.679 343.023 25.5039C343.023 25.9688 342.877 26.4769 342.585 27.0283C342.298 27.5798 341.79 28.2679 341.061 29.0928L338.286 32.2305H343.515V32.9209ZM350.071 29.7148H351.623V30.4053H350.071V32.9209H349.25V30.4053H344.568V29.9404L349.175 22.9678H350.071V29.7148ZM345.573 29.7148H349.25V24.0273L348.888 24.6562L345.573 29.7148Z" fill="black"/>
</g>
<defs>
<linearGradient id="paint0_linear" x1="193.611" y1="376.618" x2="193.611" y2="-14.0986" gradientUnits="userSpaceOnUse">
<stop offset="0.510417" stop-color="white"/>
<stop offset="1" stop-color="#4FC3F7"/>
</linearGradient>
<clipPath id="clip0">
<rect width="375" height="375" fill="white" transform="translate(0.775391 0.294922)"/>
</clipPath>
</defs>
</svg>
