<svg width="376" height="376" viewBox="0 0 376 376" fill="none" xmlns="http://www.w3.org/2000/svg">
<g clip-path="url(#clip0)">
<path d="M-40.0051 -4.3623H383.127L381.482 414.714H-38.5272L-40.0051 -4.3623Z" fill="url(#paint0_linear)"/>
<path opacity="0.8" d="M-17.8332 -7.60062L409.398 -8.42188L408.402 409.485H-19.3506L-17.8332 -7.60062Z" fill="#8BF6FF"/>
<path d="M31.8853 186.997C-9.90097 184.308 -151.077 184.721 -189.13 183.681C-189.423 258.012 -188.718 319.4 -185.65 322.468C-177.684 330.434 25.0973 357.956 37.409 356.507C49.7212 355.058 188.047 324.642 210.497 313.054C230.94 302.502 254.383 208.497 262.24 179.188C207.664 186.079 74.3686 189.732 31.8853 186.997Z" fill="#CCCCCC"/>
<path d="M262.241 180.451C263.012 177.572 263.637 175.306 264.09 173.816C269.159 157.159 268.435 134.709 267.71 127.466C266.987 120.225 223.861 112.982 223.861 112.982L190.15 73.1504V18.834L98.5719 -8.68633L-31.952 -73.1423L-198.296 -98.3418C-198.296 -98.3418 -188.621 66.2495 -189.09 184.943C-151.036 185.983 -10.2892 189.749 31.5833 189.749C73.347 189.749 207.664 187.34 262.241 180.451Z" fill="#EAEAEA"/>
<path d="M190.15 18.6953H-163.287V111.508H190.15V18.6953Z" fill="#D8D8D8"/>
<path d="M166.779 8.38281C166.779 12.5823 163.375 15.8828 159.176 15.8828H-150.067C-154.267 15.8828 -158.131 14.4878 -158.131 10.8667V6.88375C-158.131 2.53844 -154.267 0.882812 -150.067 0.882812H159.175C163.374 0.882812 166.779 4.18328 166.779 8.38281Z" fill="#E8CDA0"/>
<path d="M-172.154 127.123C-172.154 127.123 236.601 131.474 255.769 128.319C274.937 125.164 267.119 126.341 267.119 126.341C267.119 126.341 270.547 139.255 266.783 160.129C265.133 169.275 254.837 173.747 254.837 173.747L80.1721 174.902L-168.789 174.422L-172.154 127.123Z" fill="#D8D8D8"/>
<path d="M260.136 170.435C266.867 167.515 267.17 158.001 267.17 158.001C267.17 158.001 281.693 183.054 261.986 184.464C228.376 186.87 133.9 188.301 133.9 188.301V174.903C133.9 174.903 247.043 176.113 260.136 170.435Z" fill="#FF0000"/>
<path d="M136.832 126.426C135.885 125.796 120.832 117.593 119.525 112.545C118.219 107.498 119.165 106.236 117.904 98.6648C116.642 91.0936 112.856 84.1533 118.535 79.7372C124.213 75.3206 122.547 68.0648 124.484 68.0648C126.421 68.0648 138.362 67.7494 143.118 69.3262C147.874 70.9036 154.999 73.4414 155.617 78.5404C156.236 83.6395 161.754 91.094 160.808 95.8261C159.861 100.558 158.6 105.29 157.338 108.129C156.076 110.969 157.924 115.605 157.612 117.326C157.302 119.047 155.641 125.165 151.599 126.427C147.558 127.688 136.832 126.426 136.832 126.426Z" fill="#E5CAB1"/>
<path d="M-60.3601 120.224C-60.3601 120.224 -58.9122 7.24549 -40.8062 -2.89357C-22.7012 -13.0322 -19.8043 -20.999 -8.94105 -20.999C1.92176 -20.999 57.6871 -26.0681 65.653 -20.999C73.6199 -15.9295 114.803 -2.16935 115.528 7.97018C116.252 18.1088 128.564 86.1853 115.528 129.639C112.568 139.508 107.216 155.502 100.713 174.561C78.5807 239.419 48.9965 339.758 48.9965 354.872C48.9965 374.426 56.9629 375.15 64.2046 383.116C71.4468 391.082 62.7566 394.463 62.7566 394.463C62.7566 394.463 45.3749 387.462 43.2027 386.014C41.0296 384.565 33.0632 378.048 27.9936 383.84C22.9241 389.634 20.0272 428.018 20.7519 430.191C21.4757 432.364 16.4066 439.001 26.5457 445.399C36.6843 451.798 43.4441 460.85 43.4441 460.85C43.4441 460.85 54.5488 486.922 50.2035 486.922C45.8577 486.922 14.2339 470.747 13.5093 467.127C12.785 463.505 14.9582 449.021 11.3371 446.123C7.71551 443.226 -3.87199 435.26 -3.87199 435.26L-11.8379 368.633L-7.49308 328.8L-38.6345 292.588C-38.6345 292.588 -33.565 205.682 -47.3246 186.128C-61.0848 166.574 -60.3601 120.224 -60.3601 120.224Z" fill="#394963"/>
<path d="M22.9245 408.464C22.9245 408.464 -7.97553 370.322 9.88853 373.701C27.7526 377.081 26.2203 394.462 28.4346 402.671C30.6495 410.879 43.2026 406.052 44.6506 413.775C46.0995 421.5 44.6506 423.432 44.6506 423.432C44.6506 423.432 64.9287 419.087 67.3432 427.778C69.7568 436.469 72.6532 454.814 59.1349 443.71C45.6167 432.605 34.4459 427.778 34.4459 427.778L28.4342 431.158C28.4342 431.158 31.1313 446.125 17.1298 453.367C3.12822 460.608 5.49588 465.437 8.41619 453.367C11.336 441.297 14.7157 435.02 18.0959 432.123C21.4746 429.227 15.6813 425.122 15.6813 425.122C15.6813 425.122 16.5706 414.141 16.6465 413.683C16.7234 413.223 22.9245 408.464 22.9245 408.464Z" fill="#626363"/>
<path d="M139.056 152.814V135.883H231.5L231.969 152.053L139.056 152.814Z" fill="#8C8C8C"/>
<path d="M139.056 146.223V135.883H217.485C217.485 135.883 218.431 145.064 217.612 145.21C216.793 145.356 139.056 146.223 139.056 146.223Z" fill="#606060"/>
<g opacity="0.7">
<path opacity="0.6" d="M-11.8375 368.632L-3.87152 435.259C-3.87152 435.259 6.39738 442.319 10.6218 445.563C9.86426 447.847 9.12738 450.432 8.41769 453.365C5.78098 464.263 3.59894 461.384 13.5036 455.393C13.5655 460.12 13.1221 465.184 13.5102 467.125C14.2349 470.746 45.8591 486.92 50.2044 486.92C54.5497 486.92 43.445 460.848 43.445 460.848C43.445 460.848 36.6857 451.796 26.5466 445.397C26.3403 445.267 26.15 445.137 25.9565 445.007C29.7107 438.231 28.4361 431.155 28.4361 431.155L34.4478 427.775C34.4478 427.775 45.6186 432.603 59.1369 443.707C72.6552 454.811 69.7588 436.466 67.3452 427.775C64.9307 419.084 44.6525 423.429 44.6525 423.429C44.6525 423.429 46.1015 421.498 44.6525 413.772C43.2046 406.048 30.651 410.875 28.4366 402.668C27.4757 399.106 27.2188 393.82 25.7783 388.697C26.4603 386.454 27.2014 384.746 27.9955 383.838C33.065 378.045 41.0314 384.562 43.2046 386.011C45.3768 387.46 62.7585 394.46 62.7585 394.46C62.7585 394.46 71.4486 391.08 64.2065 383.114C56.9647 375.147 48.9983 374.424 48.9983 354.869C48.9983 354.733 49.0077 354.575 49.0128 354.426C85.5772 347.081 191.135 323.066 210.499 313.071C214.198 311.163 217.994 306.514 221.779 300.018L-169.853 306.736L-169.986 327.335C-137.106 334.557 -60.5078 345.681 -10.0154 351.929L-11.8375 368.632ZM22.2871 407.664C22.6925 408.177 22.925 408.463 22.925 408.463C22.925 408.463 22.6068 408.708 22.1164 409.088C22.1718 408.614 22.2289 408.14 22.2871 407.664Z" fill="#39BCC4"/>
</g>
<path d="M230.236 139.47C227.903 139.483 225.931 141.487 225.946 143.82L227.603 394.962L236.334 403.07L234.626 143.775C234.61 141.443 232.76 139.508 230.426 139.523L230.236 139.47Z" fill="#999999"/>
<path d="M230.621 140.454C229.517 139.995 228.249 140.522 227.794 141.626L227.76 141.707C227.303 142.811 227.83 144.078 228.933 144.535L230.18 145.05C231.285 145.507 232.552 144.982 233.008 143.876L233.041 143.795C233.497 142.69 232.972 141.425 231.867 140.969L230.621 140.454Z" fill="#7A7A7A"/>
<path d="M232.247 172.343C232.247 170.31 230.598 168.661 228.565 168.661H160.928C158.894 168.661 157.246 170.309 157.246 172.343V172.48C157.246 174.513 158.894 176.162 160.928 176.162H228.565C230.599 176.162 232.247 174.513 232.247 172.48V172.343Z" fill="#B7B7B7"/>
<path d="M232.247 203.514C232.247 201.481 230.599 199.832 228.566 199.832H160.928C158.895 199.832 157.247 201.481 157.247 203.514V203.652C157.247 205.684 158.895 207.333 160.928 207.333H228.565C230.599 207.333 232.246 205.684 232.246 203.652L232.247 203.514Z" fill="#B7B7B7"/>
<path d="M232.247 236.092C232.247 234.059 230.598 232.41 228.565 232.41H160.928C158.894 232.41 157.246 234.058 157.246 236.092V236.229C157.246 238.262 158.894 239.911 160.928 239.911H228.565C230.599 239.911 232.247 238.262 232.247 236.229V236.092Z" fill="#B7B7B7"/>
<path d="M232.247 267.264C232.247 265.231 230.599 263.582 228.566 263.582H160.928C158.895 263.582 157.247 265.231 157.247 267.264V267.402C157.247 269.434 158.895 271.083 160.928 271.083H228.565C230.599 271.083 232.246 269.434 232.246 267.402L232.247 267.264Z" fill="#B7B7B7"/>
<path d="M232.247 299.607C232.247 297.575 230.598 295.926 228.565 295.926H160.928C158.894 295.926 157.246 297.574 157.246 299.607V299.745C157.246 301.778 158.894 303.427 160.928 303.427H228.565C230.599 303.427 232.247 301.778 232.247 299.745V299.607Z" fill="#B7B7B7"/>
<path d="M232.247 330.779C232.247 328.747 230.599 327.098 228.566 327.098H160.928C158.895 327.098 157.247 328.747 157.247 330.779V330.917C157.247 332.95 158.895 334.599 160.928 334.599H228.565C230.599 334.599 232.246 332.95 232.246 330.917L232.247 330.779Z" fill="#B7B7B7"/>
<path d="M232.716 360.243C232.716 358.211 231.067 356.562 229.034 356.562H161.397C159.364 356.562 157.716 358.211 157.716 360.243V360.381C157.716 362.414 159.364 364.063 161.397 364.063H229.034C231.067 364.063 232.715 362.414 232.715 360.381L232.716 360.243Z" fill="#B7B7B7"/>
<path d="M157.927 139.134C155.594 139.148 153.713 141.049 153.726 143.382L153.683 389.243L158.188 393.471L162.4 388.942L162.322 143.249C162.309 140.914 160.454 139.078 158.121 139.09L157.927 139.134Z" fill="#999999"/>
<path d="M158.151 140.104C157.025 139.701 155.786 140.286 155.382 141.412L155.353 141.494C154.951 142.62 155.536 143.859 156.661 144.262L157.931 144.717C159.057 145.12 160.296 144.533 160.7 143.409L160.729 143.326C161.132 142.201 160.545 140.962 159.421 140.559L158.151 140.104Z" fill="#7A7A7A"/>
<path opacity="0.8" d="M235.743 313.126C235.761 316.389 227.688 316.358 227.066 313.545L227.155 327.098H162.38L162.376 313.527C161.929 316.836 155.283 316.195 153.696 314.134L153.683 389.242L158.188 393.47L162.4 388.941L162.392 364.063H227.399L227.603 394.963L236.335 403.07L235.743 313.126ZM162.39 356.561L162.383 334.598H227.205L227.35 356.561H162.39Z" fill="#39BCC4"/>
<path d="M205.447 53.852C207.024 54.7895 215.685 60.2486 217.822 63.0878C219.958 65.927 221.155 67.1805 221.503 71.5445C221.85 75.9081 227.721 77.1058 225.703 80.5755C223.683 84.0456 220.747 92.148 220.43 93.4098C220.115 94.6722 212.346 97.5367 207.161 96.2739C201.975 95.013 202.333 111.392 198.705 112.97C195.078 114.547 184.008 103.365 183.993 101.342C183.988 100.673 181.785 99.1356 179.419 99.7666C177.053 100.397 167.116 101.115 166.484 99.8894C165.853 98.6636 161.527 104.05 158.911 102.23C156.295 100.411 158.309 94.5456 156.955 92.0308C155.601 89.5164 154.97 74.9177 154.813 73.0248C154.655 71.132 157.178 53.8516 157.178 53.8516L205.447 53.852Z" fill="#5B422C"/>
<path d="M152.12 18.5355C144.695 18.5355 124.213 6.54765 121.419 7.96984C121.419 7.96984 124.055 -12.5389 122.162 -18.3748C120.269 -24.2113 130.461 -43.5519 132.876 -45.1625C135.29 -46.7731 152.447 -51.3411 154.813 -49.9217C157.179 -48.5019 169.009 -42.3505 169.797 -39.1953C170.587 -36.0406 174.215 -27.1831 180.051 -23.2517C185.887 -19.3203 198.856 -18.2164 201.125 -18.0589C203.396 -17.9009 208.444 -21.8192 209.705 -23.2517C210.967 -24.6838 213.018 -31.7816 213.491 -33.0434C213.964 -34.3053 212.702 -37.9334 214.28 -37.9334C215.857 -37.9334 236.994 -33.2014 238.886 -32.5705C240.779 -31.9395 242.988 -38.8803 248.824 -29.8892C254.66 -20.8986 257.183 -2.28548 257.026 -0.8661C256.868 0.553741 255.763 6.23218 256.079 8.12499C256.394 10.0178 256.079 12.3836 256.079 13.33C256.079 14.2769 253.201 16.4406 253.22 15.9105C253.239 15.3808 246.298 15.0653 243.933 15.3808C241.567 15.6962 232.734 16.3272 231.156 16.6426C229.579 16.9581 232.469 19.3244 228.998 22.4791C225.529 25.6333 225.773 41.7226 224.059 41.7226C222.344 41.7226 220.273 65.3828 194.089 64.9094C193.123 64.8925 191.524 68.3022 184.613 69.4173C172.235 71.4147 154.711 65.3144 154.812 64.9094C154.97 64.2784 145.348 65.5145 145.348 65.5145L152.12 18.5355Z" fill="#F9F9F9"/>
<path d="M217.153 128.582C212.087 128.227 207.636 127.46 203.687 123.516C199.738 119.572 193.822 116.833 192.975 111.501C192.126 106.168 194.93 105.719 192.975 104.219C191.02 102.72 192.636 92.3916 192.27 91.1433C191.904 89.895 195.432 89.2439 195.015 86.7347C194.597 84.226 197.24 77.4882 200.513 77.356C203.784 77.2228 213.574 72.9366 215.517 74.1207C217.46 75.3052 219.539 74.6935 221.776 76.1583C224.03 77.6353 223.761 76.6055 226.473 79.6524C229.183 82.6997 234.305 84.3867 235.139 89.4042C235.973 94.4222 234.564 98.5838 235.599 100.752C236.634 102.92 235.595 108.645 236.136 110.202C236.676 111.759 235.571 113.382 236.586 116.183C237.601 118.982 236.732 120.913 233.368 123.575C230.002 126.238 222.565 129.696 220.385 130.417C218.204 131.137 217.153 128.582 217.153 128.582Z" fill="#E5CAB1"/>
<path d="M134.328 -42.3645C138.641 -46.1501 149.63 -49.9301 150.577 -47.0909C151.523 -44.2512 147.657 -32.1077 150.496 -26.4293C153.336 -20.7509 148.885 5.71194 150.623 9.49803C152.36 13.2832 151.43 41.6571 151.43 41.6571C151.43 41.6571 158.017 58.4515 158.962 60.9335C159.908 63.4146 155.174 87.3447 155.174 92.4119C155.174 97.4801 152.332 108.834 152.332 114.512C152.332 120.19 152.469 125.868 154.362 128.706C156.254 131.545 169.099 149.564 169.099 149.564L165.717 161.43L162.329 161.84L162.326 154.403C162.326 154.403 159.083 153.535 157.968 154.818C155.204 158 153.683 159.027 153.683 159.027L153.721 171.937C153.721 171.937 154.961 172.55 152.122 171.604C149.283 170.657 141.941 167.547 140.478 162.949C139.19 158.899 132.457 149.703 133.404 147.248C134.35 144.793 133.403 137.714 135.296 134.629C137.189 131.544 137.189 130.797 135.296 123.127C133.404 115.456 130.422 109.991 130.045 103.732C129.668 97.4749 125.933 83.2793 125.933 74.7616C125.933 66.2444 125.933 45.6658 125.933 45.6658C125.933 45.6658 131.472 20.8188 130.108 17.9801C128.743 15.1408 127.677 -10.4107 125.826 -13.2499C123.975 -16.0892 134.328 -42.3645 134.328 -42.3645Z" fill="#F9DBBD"/>
<path d="M214.722 -22.0125C215.001 -20.7422 221.816 7.78358 225.359 16.0936C228.903 24.404 232.469 44.0362 232.997 47.5233C233.527 51.0108 234.15 62.6869 232.462 66.4247C230.774 70.1625 228.737 107.65 228.561 113.641C228.386 119.632 224.367 125.19 224.005 126.757C223.643 128.325 218.225 138.576 218.114 142.359C218.003 146.144 217.632 158.757 217.632 158.757L225.945 165.57L226.073 163.148C226.073 163.148 231.14 160.023 234.754 162.992L234.829 174.477C234.829 174.477 240.669 173.077 240.697 172.131C240.725 171.185 244.209 169.987 245.111 168.66C244.526 167.064 247.103 163.773 247.103 163.773C247.103 163.773 248.091 162.844 248.119 161.898C248.147 160.952 248.766 160.236 247.885 158C247.003 155.765 249.019 154.381 247.191 152.119C245.364 149.855 241.478 142.41 241.478 142.41L239.564 136.993L241.371 129.156C241.371 129.156 247.585 111.032 248.623 107.907C249.663 104.782 256.588 83.8397 256.588 83.8397L258.593 68.1178C258.593 68.1178 258.219 60.532 257.347 57.9815C256.476 55.4315 256.4 47.2233 256.503 43.7545C256.604 40.2858 257.3 38.0972 255.25 32.6714C253.2 27.2456 252.05 23.4244 252.588 15.8658C253.125 8.30717 254.32 -10.9102 252.558 -15.3797C250.795 -19.8502 248.57 -30.0145 247.642 -30.6727C246.714 -31.3313 239.526 -33.7514 235.742 -33.8625C231.959 -33.9731 214.722 -22.0125 214.722 -22.0125Z" fill="#F9DBBD"/>
<path d="M152.12 18.536C144.695 18.536 124.213 6.54814 121.419 7.97033C121.419 7.97033 124.055 -12.5384 122.162 -18.3744C120.269 -24.2108 130.461 -43.5514 132.876 -45.162C135.29 -46.7726 152.447 -51.3406 154.813 -49.9212C157.179 -48.5014 172.269 -57.125 173.058 -53.9708C173.847 -50.8156 177.14 -31.4403 182.976 -27.5094C188.812 -23.578 198.856 -18.2159 201.125 -18.0584C203.396 -17.9005 208.444 -21.8187 209.705 -23.2512C210.967 -24.6833 213.018 -31.7811 213.491 -33.043C213.964 -34.3048 212.702 -37.933 214.28 -37.933C215.857 -37.933 222.528 -45.6959 224.42 -45.0645C226.313 -44.4336 242.988 -38.8794 248.824 -29.8883C254.66 -20.8976 257.184 -2.28451 257.026 -0.865139C256.868 0.554707 255.764 6.23314 256.08 8.12595C256.395 10.0188 256.08 12.3846 256.08 13.331C256.08 14.2778 253.202 16.4416 253.22 15.9114C253.24 15.3817 246.299 15.0663 243.934 15.3817C241.567 15.6972 232.734 16.3281 231.156 16.6436C229.579 16.9591 227.687 15.3817 224.216 18.5364C220.746 21.6911 208.875 30.8397 207.16 30.8397C205.446 30.8397 167.589 29.5783 165.065 28.6319C162.541 27.6845 155.127 27.37 155.285 26.7391C155.443 26.1081 153.866 19.0103 153.866 19.0103L152.12 18.536Z" fill="#F9F9F9"/>
<rect x="315.775" y="15.4141" width="45.0996" height="25" rx="12.5" fill="#969696" fill-opacity="0.3"/>
<path d="M323.886 33.04H323.066V24.0713L320.359 25.0762V24.3105L323.75 23.0527H323.886V33.04ZM333.976 23.5586L329.724 33.04H328.87L333.094 23.7842H327.434V23.0869H333.976V23.5586ZM335.624 33.8945H334.878L339.035 23.0869H339.773L335.624 33.8945ZM347.409 33.04H341.174V32.4111L344.585 28.542C345.151 27.8903 345.542 27.3525 345.761 26.9287C345.98 26.5049 346.089 26.0924 346.089 25.6914C346.089 25.0625 345.905 24.5658 345.536 24.2012C345.167 23.832 344.658 23.6475 344.011 23.6475C343.341 23.6475 342.799 23.8617 342.384 24.29C341.974 24.7184 341.769 25.2744 341.769 25.958H340.956C340.956 25.3975 341.081 24.887 341.332 24.4268C341.587 23.9665 341.947 23.6064 342.412 23.3467C342.881 23.0824 343.414 22.9502 344.011 22.9502C344.923 22.9502 345.634 23.1895 346.144 23.668C346.659 24.1465 346.917 24.7982 346.917 25.623C346.917 26.0879 346.771 26.596 346.479 27.1475C346.192 27.6989 345.684 28.387 344.955 29.2119L342.179 32.3496H347.409V33.04ZM353.964 29.834H355.516V30.5244H353.964V33.04H353.144V30.5244H348.461V30.0596L353.069 23.0869H353.964V29.834ZM349.466 29.834H353.144V24.1465L352.782 24.7754L349.466 29.834Z" fill="black"/>
</g>
<defs>
<linearGradient id="paint0_linear" x1="171.561" y1="414.714" x2="171.561" y2="-4.36205" gradientUnits="userSpaceOnUse">
<stop offset="0.4692" stop-color="white"/>
<stop offset="0.5669" stop-color="#C1F0FF"/>
<stop offset="0.6844" stop-color="#7DE0FF"/>
<stop offset="0.7908" stop-color="#47D4FF"/>
<stop offset="0.8821" stop-color="#20CBFF"/>
<stop offset="0.9549" stop-color="#09C5FF"/>
<stop offset="1" stop-color="#00C3FF"/>
</linearGradient>
<clipPath id="clip0">
<rect width="375" height="375" fill="white" transform="translate(0.775146 0.414062)"/>
</clipPath>
</defs>
</svg>
