<svg width="376" height="376" viewBox="0 0 376 376" fill="none" xmlns="http://www.w3.org/2000/svg">
<g clip-path="url(#clip0)">
<path d="M0.137695 0.533203H375.138L375.598 375.14H0.598008L0.137695 0.533203Z" fill="url(#paint0_linear)"/>
<path d="M349.833 340.357C349.943 340.169 349.637 339.655 349.576 339.575C349.533 339.524 349.472 339.511 349.401 339.522C349.272 339.543 349.104 339.645 348.968 339.747C348.755 339.867 340.186 343.026 335.066 344.911C332.778 345.754 330.974 346.419 330.687 346.528C330.272 346.686 330.024 346.881 329.948 347.101C329.888 347.277 329.964 347.404 329.968 347.41C330.185 347.967 330.368 347.932 330.674 347.815C330.726 347.796 330.782 347.775 330.846 347.756C331.229 347.64 346.399 342.513 347.045 342.297C347.254 342.21 347.838 342.014 348.07 342.124C348.336 342.25 348.738 342.984 348.895 343.348C349.641 345.079 350.002 346.357 349.803 346.534C349.739 346.589 349.486 346.687 348.504 346.387C347.946 346.217 347.372 345.979 347.235 345.907C347.21 345.893 344.379 344.511 343.83 344.693C343.78 344.709 343.742 344.74 343.723 344.782C343.537 345.173 344.018 345.823 344.572 346.574L344.718 346.77C345.172 347.39 345.733 348.048 345.958 348.305C345.514 348.303 344.242 348.298 344.05 348.313C344.033 348.316 344.003 348.319 343.971 348.323C343.846 348.342 343.637 348.398 343.518 348.551C343.442 348.65 343.417 348.77 343.443 348.909C343.493 349.171 343.913 349.508 344.357 349.865C344.43 349.925 344.503 349.986 344.575 350.045C344.555 350.056 344.536 350.073 344.513 350.086C344.004 350.442 343.307 350.93 343.267 351.327C343.257 351.43 343.286 351.519 343.359 351.594C343.689 351.945 344.824 351.592 346.923 350.49C348.495 349.663 350.668 348.122 350.69 348.108C351.159 347.775 351.805 346.894 351.703 346.06C351.602 345.266 349.989 340.853 349.814 340.377C349.817 340.368 349.823 340.362 349.833 340.357Z" fill="#727272"/>
<path d="M331.109 347.206C331.135 347.152 331.137 347.092 331.118 347.034C331.079 346.918 330.952 346.854 330.828 346.897C330.772 346.918 330.726 346.96 330.701 347.013C330.675 347.068 330.674 347.129 330.692 347.186C330.729 347.288 330.836 347.349 330.941 347.333C330.955 347.33 330.97 347.327 330.983 347.323C331.04 347.302 331.086 347.261 331.109 347.206Z" fill="#727272"/>
<path d="M351.573 346.072C351.482 345.326 349.956 341.139 349.712 340.475C349.642 340.525 349.557 340.558 349.478 340.561C349.381 340.571 349.298 340.535 349.245 340.469C349.172 340.375 349.083 340.217 349.021 340.099L349.011 340.129L332.291 346.076C331.456 346.385 330.888 346.594 330.738 346.652C330.276 346.829 330.126 347.013 330.082 347.136C330.041 347.252 330.085 347.331 330.092 347.345C330.278 347.814 330.373 347.779 330.629 347.682C330.684 347.662 330.741 347.64 330.807 347.62C330.896 347.593 331.794 347.294 333.127 346.846C333.315 346.352 333.896 346.152 333.92 346.142C334.459 345.939 347.156 341.178 348.464 341.638C348.81 341.759 349.22 342.736 349.265 342.844C349.304 342.936 350.271 345.115 350.442 345.965C350.689 347.207 349.235 348.103 348.649 348.338C348.151 348.538 346.198 348.487 346.119 348.501L346.117 348.501C346.051 348.511 344.286 348.459 344.064 348.476C343.913 348.489 343.715 348.51 343.625 348.633C343.574 348.701 343.556 348.782 343.576 348.882C343.616 349.093 344.053 349.445 344.44 349.756C344.698 349.966 344.944 350.165 345.1 350.335C345.303 350.56 345.378 350.715 345.337 350.818C345.311 350.881 345.25 350.906 345.218 350.906L345.209 350.767C345.21 350.767 345.238 350.696 344.997 350.428C344.919 350.336 344.808 350.238 344.683 350.131C344.651 350.153 344.622 350.174 344.589 350.198C344.157 350.501 343.435 351.006 343.401 351.341C343.393 351.402 343.414 351.454 343.456 351.501C343.643 351.699 344.387 351.665 346.855 350.366C347.822 349.858 349.021 349.078 349.799 348.553C348.383 348.855 345.376 348.793 344.319 348.771C344.12 348.767 343.964 348.763 343.941 348.764L343.931 348.697L343.908 348.631C343.911 348.629 343.913 348.629 343.921 348.628C343.944 348.623 344.006 348.626 344.321 348.632C345.49 348.659 349.042 348.734 350.154 348.31C350.43 348.118 350.603 347.995 350.609 347.991C350.991 347.723 351.664 346.882 351.573 346.072ZM331.235 347.264C331.194 347.353 331.121 347.419 331.03 347.45C330.838 347.519 330.631 347.417 330.565 347.231C330.533 347.139 330.54 347.041 330.579 346.953C330.62 346.865 330.692 346.799 330.784 346.767C330.803 346.759 330.828 346.753 330.851 346.75C331.022 346.723 331.19 346.821 331.249 346.986C331.281 347.078 331.277 347.177 331.235 347.264Z" fill="#727272"/>
<path d="M333.302 346.78C337.824 345.26 346.875 342.202 346.994 342.161C347.074 342.13 347.796 341.838 348.125 341.994C348.467 342.157 348.894 343.001 349.017 343.29C349.496 344.404 350.247 346.318 349.888 346.631C349.45 347.012 347.329 346.11 347.166 346.021C346.843 345.851 344.304 344.667 343.868 344.816C343.859 344.818 343.844 344.823 343.841 344.831C343.69 345.15 344.169 345.8 344.677 346.487L344.823 346.683C345.348 347.398 346.015 348.162 346.139 348.301C346.387 348.308 348.151 348.357 348.588 348.178C349.106 347.973 350.531 347.119 350.303 345.978C350.134 345.14 349.146 342.915 349.134 342.888C349.017 342.606 348.656 341.85 348.415 341.765C347.151 341.319 334.094 346.22 333.96 346.269C333.956 346.271 333.508 346.428 333.302 346.78Z" fill="#727272"/>
<path d="M348.895 340.019L348.941 339.9C348.493 340.085 346.587 340.796 343.346 341.997L348.895 340.019Z" fill="#727272"/>
<path d="M349.707 340.285C349.756 340.201 349.565 339.79 349.46 339.658C349.443 339.634 349.297 339.668 349.045 339.852L349.066 339.898C349.068 339.904 349.232 340.24 349.345 340.383C349.371 340.415 349.413 340.43 349.461 340.426C349.563 340.42 349.671 340.347 349.707 340.285Z" fill="#727272"/>
<path d="M349.827 340.355C349.937 340.168 349.632 339.653 349.571 339.574C349.528 339.524 349.466 339.51 349.394 339.521C349.266 339.541 349.099 339.645 348.963 339.746C348.749 339.865 340.179 343.025 335.061 344.909C332.773 345.752 330.968 346.418 330.681 346.526C330.267 346.685 330.018 346.879 329.943 347.099C329.883 347.275 329.959 347.403 329.962 347.408C330.18 347.966 330.363 347.929 330.669 347.812C330.721 347.795 330.777 347.773 330.84 347.754C331.224 347.639 346.393 342.511 347.039 342.295C347.249 342.208 347.833 342.012 348.065 342.122C348.331 342.248 348.733 342.982 348.89 343.345C349.636 345.078 349.998 346.355 349.799 346.533C349.733 346.589 349.482 346.686 348.499 346.387C347.941 346.216 347.367 345.978 347.23 345.907C347.205 345.892 344.377 344.511 343.826 344.693C343.775 344.707 343.737 344.74 343.717 344.781C343.532 345.172 344.013 345.824 344.568 346.575L344.712 346.773C345.169 347.395 345.728 348.053 345.954 348.311C346.038 348.312 346.095 348.321 346.107 348.321L346.109 348.472C346.109 348.472 346.111 348.502 346.11 348.502L346.112 348.501C346.192 348.489 348.147 348.539 348.642 348.339C349.223 348.107 350.679 347.193 350.432 345.949C350.263 345.1 349.298 342.931 349.257 342.837C349.212 342.728 348.803 341.753 348.456 341.633C347.149 341.175 334.451 345.94 333.913 346.142C333.889 346.151 333.308 346.352 333.12 346.846C331.787 347.295 330.888 347.597 330.8 347.621C330.736 347.64 330.677 347.664 330.621 347.683C330.364 347.78 330.268 347.817 330.084 347.347C330.077 347.333 330.034 347.253 330.074 347.138C330.12 347.014 330.27 346.83 330.731 346.654C330.88 346.597 331.447 346.388 332.283 346.078L349.003 340.131L349.012 340.101C349.076 340.218 349.163 340.376 349.237 340.47C349.29 340.538 349.372 340.57 349.469 340.563C349.549 340.557 349.633 340.525 349.703 340.477C349.685 340.423 349.671 340.389 349.669 340.387L349.798 340.338C349.801 340.345 349.804 340.358 349.813 340.373C349.817 340.367 349.823 340.361 349.827 340.355ZM333.298 346.785C333.504 346.431 333.952 346.272 333.958 346.27C334.091 346.222 347.148 341.319 348.412 341.764C348.657 341.85 349.015 342.606 349.13 342.889C349.143 342.915 350.133 345.142 350.299 345.978C350.525 347.121 349.101 347.972 348.586 348.18C348.149 348.354 346.385 348.308 346.135 348.302C346.013 348.164 345.346 347.4 344.821 346.684L344.675 346.488C344.167 345.799 343.689 345.15 343.838 344.831C343.842 344.825 343.856 344.819 343.866 344.817C344.305 344.669 346.844 345.851 347.165 346.022C347.328 346.11 349.448 347.01 349.886 346.632C350.246 346.319 349.495 344.404 349.015 343.29C348.892 343.005 348.465 342.157 348.123 341.995C347.796 341.838 347.074 342.13 346.992 342.162C346.875 342.202 337.821 345.262 333.298 346.785ZM348.942 339.902L348.896 340.021L343.345 341.997C346.589 340.797 348.494 340.085 348.942 339.902ZM349.71 340.284C349.674 340.347 349.566 340.419 349.461 340.426C349.411 340.43 349.372 340.416 349.346 340.383C349.232 340.24 349.069 339.904 349.068 339.897L349.047 339.852C349.296 339.67 349.444 339.634 349.463 339.658C349.564 339.788 349.758 340.201 349.71 340.284Z" fill="#727272"/>
<path d="M344.68 350.132C344.647 350.1 344.608 350.069 344.571 350.043C344.55 350.054 344.531 350.071 344.508 350.084C343.999 350.441 343.302 350.928 343.262 351.325C343.252 351.427 343.281 351.517 343.354 351.592C343.686 351.943 344.819 351.591 346.919 350.489C348.49 349.662 350.664 348.12 350.685 348.106C351.154 347.773 351.8 346.891 351.699 346.058C351.599 345.266 349.983 340.851 349.807 340.374C349.78 340.416 349.744 340.45 349.7 340.48C349.943 341.144 351.468 345.332 351.562 346.076C351.66 346.883 350.987 347.727 350.605 347.996C350.601 348 350.427 348.123 350.149 348.316C350.151 348.315 350.156 348.312 350.158 348.311L350.207 348.438C350.094 348.483 349.956 348.519 349.797 348.554C349.016 349.08 347.818 349.86 346.853 350.368C344.384 351.666 343.641 351.701 343.452 351.5C343.407 351.453 343.392 351.402 343.399 351.34C343.432 351.003 344.154 350.497 344.586 350.198C344.621 350.172 344.651 350.153 344.68 350.132Z" fill="#727272"/>
<path d="M349.813 340.373C349.807 340.359 349.804 340.344 349.801 340.338L349.672 340.387C349.673 340.391 349.687 340.425 349.706 340.478C349.748 340.449 349.786 340.414 349.813 340.373Z" fill="#727272"/>
<path d="M346.053 348.415C346.052 348.415 346.014 348.372 345.953 348.303C345.508 348.3 344.235 348.295 344.043 348.311C344.027 348.313 343.997 348.315 343.964 348.321C343.841 348.34 343.631 348.395 343.513 348.549C343.437 348.646 343.411 348.768 343.438 348.907C343.485 349.169 343.907 349.505 344.351 349.863C344.423 349.922 344.497 349.984 344.569 350.042C344.604 350.019 344.638 349.994 344.667 349.974L344.746 350.085C344.726 350.099 344.703 350.118 344.681 350.132C344.806 350.239 344.913 350.337 344.996 350.428C345.236 350.694 345.207 350.767 345.207 350.767L345.216 350.907C345.247 350.905 345.309 350.882 345.335 350.818C345.376 350.714 345.301 350.561 345.098 350.335C344.945 350.165 344.698 349.966 344.437 349.756C344.052 349.445 343.616 349.093 343.574 348.882C343.556 348.782 343.57 348.7 343.624 348.633C343.714 348.51 343.907 348.46 344.057 348.448C344.276 348.431 346.036 348.44 346.105 348.441L346.075 348.438L346.053 348.415Z" fill="#727272"/>
<path d="M346.106 348.299C346.095 348.299 346.039 348.297 345.953 348.298C346.018 348.368 346.053 348.41 346.054 348.412L346.074 348.435L346.103 348.438C346.104 348.438 346.107 348.438 346.107 348.438L346.106 348.299Z" fill="#727272"/>
<path d="M344.669 349.974C344.638 349.994 344.604 350.02 344.572 350.04C344.609 350.071 344.647 350.102 344.681 350.131C344.702 350.118 344.727 350.101 344.747 350.085L344.669 349.974Z" fill="#727272"/>
<path d="M349.797 348.554C349.927 348.463 350.048 348.382 350.151 348.312C349.04 348.732 345.488 348.657 344.319 348.632C344.004 348.624 343.942 348.624 343.919 348.627C343.913 348.628 343.91 348.631 343.907 348.632L343.93 348.696L343.94 348.765C343.963 348.763 344.12 348.77 344.317 348.771C345.375 348.792 348.381 348.855 349.797 348.554Z" fill="#727272"/>
<path d="M350.156 348.31C350.051 348.382 349.931 348.461 349.799 348.552C349.957 348.52 350.097 348.483 350.21 348.437L350.161 348.309C350.158 348.309 350.155 348.31 350.156 348.31Z" fill="#727272"/>
<path d="M331.236 347.265C331.277 347.177 331.283 347.079 331.249 346.985C331.189 346.823 331.023 346.722 330.85 346.75C330.828 346.753 330.805 346.759 330.783 346.766C330.692 346.799 330.618 346.866 330.578 346.953C330.536 347.041 330.531 347.139 330.564 347.23C330.631 347.416 330.838 347.519 331.029 347.45C331.121 347.418 331.194 347.352 331.236 347.265ZM331.113 347.206C331.088 347.259 331.042 347.301 330.985 347.32C330.973 347.327 330.956 347.33 330.944 347.331C330.836 347.348 330.731 347.286 330.694 347.185C330.674 347.128 330.677 347.067 330.703 347.012C330.731 346.958 330.773 346.917 330.833 346.896C330.952 346.853 331.079 346.917 331.12 347.032C331.14 347.09 331.137 347.152 331.113 347.206Z" fill="#727272"/>
<path d="M257.38 345.836C257.245 344.753 255.671 345.182 255.767 345.87C255.89 346.776 257.457 346.446 257.38 345.836Z" fill="#727272"/>
<path d="M255.222 345.779C255.086 344.695 253.513 345.124 253.61 345.812C253.731 346.719 255.298 346.39 255.222 345.779Z" fill="#727272"/>
<path d="M259.581 345.705C259.444 344.621 257.872 345.051 257.969 345.742C258.09 346.645 259.657 346.315 259.581 345.705Z" fill="#727272"/>
<path d="M260.7 345.778C260.989 345.333 259.377 345.377 259.201 345.661C258.971 346.033 260.538 346.03 260.7 345.778Z" fill="#727272"/>
<path d="M258.313 345.875C258.604 345.431 256.992 345.468 256.814 345.748C256.582 346.123 258.15 346.126 258.313 345.875Z" fill="#727272"/>
<path d="M255.926 345.969C256.217 345.526 254.607 345.56 254.43 345.844C254.194 346.216 255.763 346.217 255.926 345.969Z" fill="#727272"/>
<path d="M246.302 345.677C246.283 344.584 244.671 344.847 244.691 345.539C244.719 346.449 246.313 346.291 246.302 345.677Z" fill="#727272"/>
<path d="M244.33 345.554C244.262 344.464 242.662 344.795 242.717 345.489C242.783 346.398 244.368 346.168 244.33 345.554Z" fill="#727272"/>
<path d="M248.502 345.782C248.484 344.689 246.875 344.949 246.894 345.644C246.92 346.555 248.512 346.396 248.502 345.782Z" fill="#727272"/>
<path d="M250.702 345.888C250.685 344.796 249.074 345.058 249.093 345.751C249.119 346.662 250.712 346.503 250.702 345.888Z" fill="#727272"/>
<path d="M253.146 345.871C253.128 344.778 251.518 345.041 251.537 345.733C251.563 346.643 253.156 346.485 253.146 345.871Z" fill="#727272"/>
<path d="M254.084 345.904C254.359 345.449 252.748 345.543 252.581 345.832C252.362 346.212 253.93 346.16 254.084 345.904Z" fill="#727272"/>
<path d="M251.884 345.797C252.162 345.338 250.548 345.435 250.381 345.726C250.162 346.105 251.729 346.053 251.884 345.797Z" fill="#727272"/>
<path d="M249.624 345.875C249.899 345.417 248.286 345.513 248.121 345.804C247.901 346.183 249.469 346.131 249.624 345.875Z" fill="#727272"/>
<path d="M247.224 345.815C247.561 345.404 245.954 345.268 245.747 345.532C245.476 345.875 247.035 346.047 247.224 345.815Z" fill="#727272"/>
<path d="M245.021 345.786C245.339 345.361 243.727 345.295 243.532 345.567C243.277 345.924 244.843 346.025 245.021 345.786Z" fill="#727272"/>
<path d="M235.331 345.656C235.284 344.565 233.681 344.864 233.719 345.559C233.767 346.469 235.357 346.27 235.331 345.656Z" fill="#727272"/>
<path d="M233.183 345.42C233.137 344.328 231.534 344.629 231.572 345.322C231.62 346.233 233.209 346.034 233.183 345.42Z" fill="#727272"/>
<path d="M237.533 345.706C237.484 344.614 235.882 344.914 235.921 345.609C235.97 346.519 237.558 346.32 237.533 345.706Z" fill="#727272"/>
<path d="M239.735 345.757C239.689 344.667 238.086 344.966 238.124 345.659C238.172 346.57 239.761 346.371 239.735 345.757Z" fill="#727272"/>
<path d="M242.179 345.678C242.132 344.585 240.529 344.886 240.567 345.581C240.615 346.49 242.203 346.292 242.179 345.678Z" fill="#727272"/>
<path d="M243.116 345.687C243.379 345.225 241.775 345.36 241.615 345.653C241.402 346.038 242.967 345.946 243.116 345.687Z" fill="#727272"/>
<path d="M240.913 345.636C241.177 345.177 239.569 345.313 239.409 345.607C239.2 345.988 240.765 345.895 240.913 345.636Z" fill="#727272"/>
<path d="M238.655 345.771C238.919 345.312 237.311 345.443 237.152 345.737C236.942 346.122 238.508 346.031 238.655 345.771Z" fill="#727272"/>
<path d="M236.256 345.772C236.583 345.352 234.975 345.255 234.772 345.526C234.51 345.875 236.072 346.008 236.256 345.772Z" fill="#727272"/>
<path d="M233.869 345.665C234.195 345.245 232.584 345.148 232.385 345.418C232.123 345.769 233.685 345.901 233.869 345.665Z" fill="#727272"/>
<path d="M286.111 345.262C285.913 344.188 284.367 344.709 284.499 345.392C284.677 346.286 286.222 345.867 286.111 345.262Z" fill="#727272"/>
<path d="M283.952 345.33C283.754 344.255 282.209 344.774 282.343 345.457C282.518 346.354 284.064 345.934 283.952 345.33Z" fill="#727272"/>
<path d="M288.299 345.159C288.1 344.085 286.555 344.607 286.687 345.288C286.866 346.184 288.41 345.763 288.299 345.159Z" fill="#727272"/>
<path d="M289.36 345.179C289.648 344.733 288.036 344.778 287.861 345.061C287.63 345.434 289.198 345.429 289.36 345.179Z" fill="#727272"/>
<path d="M287.044 345.247C287.307 344.788 285.7 344.917 285.539 345.209C285.329 345.595 286.895 345.506 287.044 345.247Z" fill="#727272"/>
<path d="M284.664 345.477C284.928 345.018 283.321 345.145 283.161 345.439C282.95 345.824 284.516 345.736 284.664 345.477Z" fill="#727272"/>
<path d="M275.041 345.742C274.959 344.652 273.367 345.004 273.427 345.694C273.505 346.605 275.087 346.355 275.041 345.742Z" fill="#727272"/>
<path d="M272.888 345.577C272.806 344.486 271.214 344.84 271.274 345.532C271.351 346.44 272.933 346.189 272.888 345.577Z" fill="#727272"/>
<path d="M277.243 345.72C277.162 344.631 275.57 344.983 275.63 345.673C275.708 346.583 277.289 346.333 277.243 345.72Z" fill="#727272"/>
<path d="M279.446 345.699C279.362 344.61 277.773 344.961 277.833 345.651C277.91 346.562 279.492 346.313 279.446 345.699Z" fill="#727272"/>
<path d="M281.885 345.54C281.801 344.454 280.212 344.805 280.272 345.496C280.349 346.403 281.931 346.153 281.885 345.54Z" fill="#727272"/>
<path d="M282.823 345.52C283.067 345.05 281.465 345.236 281.315 345.535C281.122 345.927 282.684 345.784 282.823 345.52Z" fill="#727272"/>
<path d="M280.62 345.54C280.865 345.07 279.262 345.257 279.115 345.556C278.919 345.947 280.48 345.804 280.62 345.54Z" fill="#727272"/>
<path d="M278.369 345.748C278.617 345.278 277.014 345.465 276.865 345.764C276.667 346.156 278.229 346.013 278.369 345.748Z" fill="#727272"/>
<path d="M275.969 345.828C276.282 345.397 274.67 345.354 274.475 345.629C274.228 345.988 275.794 346.069 275.969 345.828Z" fill="#727272"/>
<path d="M273.581 345.8C273.894 345.37 272.282 345.322 272.089 345.597C271.839 345.96 273.406 346.042 273.581 345.8Z" fill="#727272"/>
<path d="M263.889 345.794C263.828 344.703 262.23 345.023 262.277 345.717C262.336 346.626 263.922 346.407 263.889 345.794Z" fill="#727272"/>
<path d="M261.739 345.772C261.679 344.68 260.08 345.001 260.127 345.695C260.186 346.604 261.772 346.385 261.739 345.772Z" fill="#727272"/>
<path d="M266.092 345.816C266.032 344.728 264.433 345.045 264.48 345.742C264.54 346.649 266.124 346.429 266.092 345.816Z" fill="#727272"/>
<path d="M268.294 345.839C268.234 344.746 266.635 345.067 266.682 345.762C266.742 346.671 268.328 346.452 268.294 345.839Z" fill="#727272"/>
<path d="M270.736 345.728C270.676 344.636 269.078 344.957 269.125 345.651C269.184 346.56 270.77 346.342 270.736 345.728Z" fill="#727272"/>
<path d="M271.673 345.724C271.931 345.26 270.325 345.414 270.17 345.71C269.965 346.097 271.53 345.986 271.673 345.724Z" fill="#727272"/>
<path d="M269.471 345.704C269.728 345.238 268.123 345.393 267.967 345.689C267.763 346.076 269.327 345.965 269.471 345.704Z" fill="#727272"/>
<path d="M267.215 345.867C267.476 345.402 265.867 345.555 265.711 345.852C265.507 346.239 267.071 346.129 267.215 345.867Z" fill="#727272"/>
<path d="M264.816 345.898C265.137 345.473 263.522 345.397 263.325 345.668C263.071 346.023 264.635 346.136 264.816 345.898Z" fill="#727272"/>
<path d="M262.897 345.822C263.219 345.399 261.605 345.324 261.41 345.594C261.152 345.948 262.716 346.061 262.897 345.822Z" fill="#727272"/>
<path d="M224.239 345.128C224.245 344.036 222.63 344.261 222.634 344.959C222.64 345.867 224.236 345.743 224.239 345.128Z" fill="#727272"/>
<path d="M222.106 344.793C222.112 343.7 220.494 343.924 220.501 344.62C220.507 345.531 222.102 345.407 222.106 344.793Z" fill="#727272"/>
<path d="M226.436 345.282C226.443 344.189 224.824 344.414 224.828 345.11C224.838 346.021 226.434 345.896 226.436 345.282Z" fill="#727272"/>
<path d="M228.635 345.436C228.64 344.343 227.024 344.567 227.03 345.263C227.035 346.175 228.632 346.051 228.635 345.436Z" fill="#727272"/>
<path d="M231.079 345.47C231.084 344.377 229.469 344.601 229.474 345.298C229.479 346.209 231.076 346.085 231.079 345.47Z" fill="#727272"/>
<path d="M232.014 345.523C232.299 345.074 230.687 345.134 230.514 345.416C230.287 345.795 231.854 345.775 232.014 345.523Z" fill="#727272"/>
<path d="M229.817 345.37C230.1 344.922 228.489 344.98 228.317 345.263C228.09 345.64 229.658 345.621 229.817 345.37Z" fill="#727272"/>
<path d="M227.556 345.399C227.839 344.951 226.229 345.009 226.056 345.295C225.829 345.669 227.396 345.651 227.556 345.399Z" fill="#727272"/>
<path d="M225.159 345.287C225.505 344.887 223.9 344.712 223.689 344.97C223.41 345.309 224.965 345.514 225.159 345.287Z" fill="#727272"/>
<path d="M222.78 345.07C223.125 344.67 221.521 344.495 221.309 344.754C221.03 345.092 222.586 345.297 222.78 345.07Z" fill="#727272"/>
<path d="M213.213 344.283C213.236 343.19 211.618 343.39 211.611 344.086C211.603 344.996 213.201 344.897 213.213 344.283Z" fill="#727272"/>
<path d="M211.085 344.204C211.108 343.111 209.489 343.311 209.483 344.006C209.475 344.918 211.073 344.819 211.085 344.204Z" fill="#727272"/>
<path d="M215.409 344.469C215.431 343.377 213.813 343.577 213.806 344.269C213.798 345.184 215.396 345.085 215.409 344.469Z" fill="#727272"/>
<path d="M217.603 344.658C217.626 343.565 216.011 343.765 216.001 344.461C215.993 345.371 217.591 345.272 217.603 344.658Z" fill="#727272"/>
<path d="M220.047 344.732C220.069 343.638 218.454 343.838 218.444 344.534C218.435 345.446 220.034 345.346 220.047 344.732Z" fill="#727272"/>
<path d="M220.983 344.8C221.274 344.359 219.664 344.39 219.484 344.674C219.251 345.044 220.818 345.049 220.983 344.8Z" fill="#727272"/>
<path d="M218.787 344.612C219.079 344.168 217.466 344.202 217.289 344.484C217.055 344.856 218.624 344.861 218.787 344.612Z" fill="#727272"/>
<path d="M216.526 344.605C216.818 344.161 215.205 344.195 215.028 344.478C214.794 344.848 216.362 344.854 216.526 344.605Z" fill="#727272"/>
<path d="M214.131 344.456C214.484 344.055 212.881 343.86 212.666 344.114C212.381 344.45 213.933 344.68 214.131 344.456Z" fill="#727272"/>
<path d="M212.184 344.35C212.475 343.909 210.862 343.94 210.685 344.223C210.452 344.594 212.021 344.599 212.184 344.35Z" fill="#727272"/>
<path d="M202.029 343.495C202.075 342.403 200.452 342.568 200.432 343.265C200.404 344.176 202.004 344.11 202.029 343.495Z" fill="#727272"/>
<path d="M204.22 343.729C204.265 342.637 202.643 342.801 202.622 343.497C202.595 344.409 204.195 344.343 204.22 343.729Z" fill="#727272"/>
<path d="M206.41 343.962C206.456 342.87 204.833 343.035 204.813 343.731C204.785 344.642 206.385 344.576 206.41 343.962Z" fill="#727272"/>
<path d="M208.851 344.085C208.897 342.993 207.275 343.158 207.254 343.856C207.226 344.765 208.825 344.7 208.851 344.085Z" fill="#727272"/>
<path d="M209.785 344.174C210.087 343.735 208.473 343.735 208.29 344.014C208.05 344.38 209.617 344.419 209.785 344.174Z" fill="#727272"/>
<path d="M207.594 343.94C207.895 343.503 206.282 343.503 206.099 343.782C205.858 344.148 207.426 344.186 207.594 343.94Z" fill="#727272"/>
<path d="M205.334 343.886C205.635 343.447 204.022 343.447 203.839 343.727C203.597 344.094 205.165 344.133 205.334 343.886Z" fill="#727272"/>
<path d="M202.942 343.688C203.303 343.297 201.702 343.067 201.484 343.317C201.194 343.646 202.74 343.908 202.942 343.688Z" fill="#727272"/>
<path d="M195.318 343.081C195.339 344.174 196.949 343.911 196.929 343.214C196.899 342.302 195.305 342.467 195.318 343.081Z" fill="#727272"/>
<path d="M197.993 343.244C198.014 344.337 199.624 344.074 199.605 343.377C199.574 342.467 197.981 342.631 197.993 343.244Z" fill="#727272"/>
<path d="M193.116 342.981C193.14 344.074 194.747 343.811 194.727 343.114C194.697 342.203 193.105 342.367 193.116 342.981Z" fill="#727272"/>
<path d="M190.915 342.882C190.937 343.975 192.546 343.712 192.524 343.015C192.496 342.103 190.904 342.267 190.915 342.882Z" fill="#727272"/>
<path d="M188.472 342.907C188.493 343.996 190.103 343.736 190.081 343.036C190.053 342.128 188.46 342.292 188.472 342.907Z" fill="#727272"/>
<path d="M189.735 342.976C189.461 343.431 191.073 343.333 191.238 343.045C191.456 342.664 189.889 342.72 189.735 342.976Z" fill="#727272"/>
<path d="M191.995 342.891C191.722 343.346 193.333 343.249 193.498 342.959C193.716 342.579 192.149 342.635 191.995 342.891Z" fill="#727272"/>
<path d="M194.394 342.945C194.057 343.358 195.665 343.487 195.87 343.228C196.142 342.881 194.582 342.713 194.394 342.945Z" fill="#727272"/>
<path d="M196.778 343.104C196.443 343.516 198.051 343.648 198.256 343.385C198.526 343.039 196.967 342.871 196.778 343.104Z" fill="#727272"/>
<path d="M199.382 343.239C199.047 343.651 200.654 343.78 200.86 343.52C201.131 343.175 199.571 343.007 199.382 343.239Z" fill="#727272"/>
<path d="M173.822 338.414C174.406 337.487 172.914 336.822 172.553 337.413C172.074 338.192 173.494 338.933 173.822 338.414Z" fill="#727272"/>
<path d="M171.9 336.993C172.657 336.202 171.332 335.254 170.856 335.762C170.232 336.426 171.474 337.436 171.9 336.993Z" fill="#727272"/>
<path d="M170.325 335.094C171.077 334.302 169.744 333.364 169.27 333.873C168.654 334.541 169.904 335.54 170.325 335.094Z" fill="#727272"/>
<path d="M168.753 333.285C169.71 332.758 168.727 331.456 168.122 331.799C167.329 332.248 168.215 333.582 168.753 333.285Z" fill="#727272"/>
<path d="M167.626 331.587C168.671 331.264 167.971 329.791 167.309 330.004C166.441 330.283 167.038 331.769 167.626 331.587Z" fill="#727272"/>
<path d="M166.878 329.651C167.911 329.296 167.167 327.844 166.512 328.078C165.653 328.385 166.297 329.85 166.878 329.651Z" fill="#727272"/>
<path d="M163.401 319.025C164.435 318.67 163.689 317.218 163.035 317.452C162.176 317.759 162.82 319.225 163.401 319.025Z" fill="#727272"/>
<path d="M163.014 316.9C164.048 316.545 163.303 315.093 162.649 315.327C161.79 315.634 162.433 317.1 163.014 316.9Z" fill="#727272"/>
<path d="M163.981 321.15C165.014 320.791 164.269 319.343 163.615 319.577C162.755 319.884 163.399 321.35 163.981 321.15Z" fill="#727272"/>
<path d="M164.56 323.275C165.593 322.92 164.848 321.469 164.195 321.703C163.335 322.009 163.979 323.475 164.56 323.275Z" fill="#727272"/>
<path d="M165.333 325.594C166.367 325.239 165.623 323.788 164.967 324.023C164.108 324.328 164.752 325.794 165.333 325.594Z" fill="#727272"/>
<path d="M165.912 327.719C166.946 327.364 166.2 325.912 165.546 326.147C164.687 326.453 165.331 327.919 165.912 327.719Z" fill="#727272"/>
<path d="M172.647 337.572C173.163 337.433 171.932 336.39 171.608 336.487C171.188 336.608 172.359 337.651 172.647 337.572Z" fill="#727272"/>
<path d="M174.946 339.004C175.425 338.774 174.023 337.974 173.726 338.125C173.335 338.324 174.678 339.135 174.946 339.004Z" fill="#727272"/>
<path d="M178.167 340.743C178.537 339.714 176.94 339.386 176.712 340.044C176.413 340.904 177.959 341.321 178.167 340.743Z" fill="#727272"/>
<path d="M175.984 339.771C176.552 338.838 175.055 338.197 174.697 338.796C174.231 339.58 175.663 340.296 175.984 339.771Z" fill="#727272"/>
<path d="M176.837 340.175C177.307 339.928 175.879 339.171 175.587 339.337C175.204 339.548 176.572 340.314 176.837 340.175Z" fill="#727272"/>
<path d="M179.392 341.076C179.81 340.746 178.268 340.265 178.011 340.48C177.672 340.76 179.159 341.261 179.392 341.076Z" fill="#727272"/>
<path d="M182.874 342.185C183.047 341.102 181.416 341.081 181.315 341.765C181.181 342.67 182.777 342.792 182.874 342.185Z" fill="#727272"/>
<path d="M180.548 341.637C180.933 340.612 179.34 340.261 179.103 340.918C178.791 341.775 180.332 342.213 180.548 341.637Z" fill="#727272"/>
<path d="M181.462 341.875C181.878 341.545 180.336 341.07 180.079 341.281C179.74 341.564 181.228 342.061 181.462 341.875Z" fill="#727272"/>
<path d="M184.14 342.284C184.49 341.883 182.886 341.701 182.673 341.958C182.391 342.296 183.945 342.51 184.14 342.284Z" fill="#727272"/>
<path d="M170.993 336.099C171.518 336.016 170.407 334.845 170.078 334.903C169.647 334.981 170.698 336.146 170.993 336.099Z" fill="#727272"/>
<path d="M169.382 334.184C169.913 334.213 169.079 332.833 168.747 332.82C168.308 332.803 169.084 334.166 169.382 334.184Z" fill="#727272"/>
<path d="M168.224 332.443C168.754 332.472 167.921 331.093 167.588 331.08C167.15 331.063 167.925 332.426 168.224 332.443Z" fill="#727272"/>
<path d="M167.33 330.553C167.848 330.674 167.262 329.171 166.934 329.102C166.505 329.011 167.039 330.485 167.33 330.553Z" fill="#727272"/>
<path d="M166.365 328.621C166.882 328.742 166.295 327.239 165.966 327.17C165.539 327.079 166.074 328.553 166.365 328.621Z" fill="#727272"/>
<path d="M165.591 326.495C166.109 326.616 165.522 325.116 165.195 325.045C164.766 324.954 165.301 326.427 165.591 326.495Z" fill="#727272"/>
<path d="M165.012 324.37C165.529 324.495 164.943 322.992 164.614 322.919C164.187 322.828 164.722 324.302 165.012 324.37Z" fill="#727272"/>
<path d="M164.238 322.245C164.756 322.365 164.169 320.863 163.842 320.791C163.413 320.704 163.948 322.178 164.238 322.245Z" fill="#727272"/>
<path d="M163.554 319.946C164.05 320.139 163.681 318.568 163.369 318.452C162.957 318.302 163.276 319.837 163.554 319.946Z" fill="#727272"/>
<path d="M162.974 317.627C163.471 317.821 163.102 316.25 162.789 316.135C162.378 315.983 162.696 317.519 162.974 317.627Z" fill="#727272"/>
<path d="M161.289 308.148C162.355 307.904 161.771 306.383 161.095 306.545C160.208 306.757 160.689 308.284 161.289 308.148Z" fill="#727272"/>
<path d="M161.133 305.992C162.199 305.748 161.615 304.225 160.938 304.389C160.053 304.602 160.534 306.129 161.133 305.992Z" fill="#727272"/>
<path d="M161.636 310.323C162.7 310.082 162.116 308.56 161.441 308.721C160.554 308.932 161.036 310.459 161.636 310.323Z" fill="#727272"/>
<path d="M161.983 312.497C163.048 312.253 162.464 310.731 161.788 310.895C160.901 311.107 161.383 312.634 161.983 312.497Z" fill="#727272"/>
<path d="M162.5 314.887C163.566 314.646 162.983 313.123 162.305 313.284C161.42 313.496 161.901 315.023 162.5 314.887Z" fill="#727272"/>
<path d="M162.66 315.812C163.161 315.988 162.74 314.431 162.422 314.326C162.006 314.19 162.379 315.713 162.66 315.812Z" fill="#727272"/>
<path d="M162.313 313.636C162.814 313.812 162.393 312.255 162.075 312.15C161.66 312.014 162.031 313.537 162.313 313.636Z" fill="#727272"/>
<path d="M161.774 311.44C162.275 311.616 161.855 310.063 161.537 309.955C161.12 309.818 161.492 311.341 161.774 311.44Z" fill="#727272"/>
<path d="M161.342 309.08C161.814 309.324 161.618 307.722 161.318 307.575C160.926 307.38 161.077 308.942 161.342 309.08Z" fill="#727272"/>
<path d="M161.015 306.713C161.487 306.959 161.292 305.356 160.992 305.208C160.599 305.013 160.75 306.575 161.015 306.713Z" fill="#727272"/>
<path d="M159.589 297.126C160.659 296.902 160.106 295.371 159.427 295.517C158.536 295.713 158.987 297.25 159.589 297.126Z" fill="#727272"/>
<path d="M159.476 294.969C160.547 294.749 159.994 293.215 159.313 293.364C158.423 293.557 158.874 295.093 159.476 294.969Z" fill="#727272"/>
<path d="M159.892 299.308C160.963 299.088 160.41 297.554 159.729 297.702C158.839 297.896 159.29 299.432 159.892 299.308Z" fill="#727272"/>
<path d="M160.196 301.49C161.267 301.269 160.713 299.735 160.033 299.884C159.142 300.077 159.594 301.614 160.196 301.49Z" fill="#727272"/>
<path d="M160.667 303.889C161.738 303.664 161.184 302.134 160.504 302.283C159.614 302.476 160.065 304.012 160.667 303.889Z" fill="#727272"/>
<path d="M160.808 304.815C161.306 305 160.915 303.438 160.6 303.325C160.187 303.18 160.528 304.71 160.808 304.815Z" fill="#727272"/>
<path d="M160.504 302.633C161.002 302.819 160.612 301.256 160.296 301.141C159.883 300.999 160.224 302.529 160.504 302.633Z" fill="#727272"/>
<path d="M160.009 300.427C160.507 300.612 160.117 299.047 159.802 298.934C159.388 298.793 159.729 300.323 160.009 300.427Z" fill="#727272"/>
<path d="M159.623 298.058C160.09 298.314 159.926 296.708 159.63 296.554C159.241 296.352 159.361 297.915 159.623 298.058Z" fill="#727272"/>
<path d="M159.344 295.685C159.81 295.94 159.647 294.335 159.351 294.181C158.962 293.978 159.081 295.542 159.344 295.685Z" fill="#727272"/>
<path d="M158.328 286.094C159.409 285.925 158.926 284.365 158.24 284.482C157.343 284.634 157.721 286.19 158.328 286.094Z" fill="#727272"/>
<path d="M158.318 283.934C159.397 283.764 158.915 282.206 158.23 282.323C157.332 282.474 157.711 284.029 158.318 283.934Z" fill="#727272"/>
<path d="M158.53 288.288C159.609 288.119 159.127 286.559 158.442 286.676C157.544 286.829 157.923 288.384 158.53 288.288Z" fill="#727272"/>
<path d="M158.731 290.481C159.812 290.315 159.33 288.752 158.644 288.87C157.745 289.021 158.124 290.577 158.731 290.481Z" fill="#727272"/>
<path d="M159.089 292.899C160.17 292.729 159.688 291.17 159.002 291.288C158.103 291.439 158.482 292.995 159.089 292.899Z" fill="#727272"/>
<path d="M159.187 293.832C159.676 294.041 159.359 292.459 159.049 292.334C158.642 292.17 158.912 293.715 159.187 293.832Z" fill="#727272"/>
<path d="M158.986 291.639C159.475 291.845 159.158 290.262 158.847 290.141C158.441 289.977 158.712 291.522 158.986 291.639Z" fill="#727272"/>
<path d="M158.595 289.411C159.083 289.617 158.766 288.034 158.457 287.913C158.05 287.75 158.321 289.294 158.595 289.411Z" fill="#727272"/>
<path d="M158.32 287.027C158.774 287.307 158.685 285.692 158.397 285.529C158.017 285.304 158.064 286.872 158.32 287.027Z" fill="#727272"/>
<path d="M158.151 284.644C158.606 284.924 158.517 283.31 158.228 283.141C157.85 282.921 157.896 284.489 158.151 284.644Z" fill="#727272"/>
<path d="M157.394 275.075C158.476 274.922 158.019 273.357 157.331 273.462C156.431 273.6 156.785 275.161 157.394 275.075Z" fill="#727272"/>
<path d="M157.417 272.916C158.499 272.763 158.042 271.197 157.355 271.303C156.454 271.44 156.808 273.002 157.417 272.916Z" fill="#727272"/>
<path d="M157.561 277.272C158.643 277.12 158.186 275.554 157.498 275.659C156.598 275.797 156.952 277.359 157.561 277.272Z" fill="#727272"/>
<path d="M157.728 279.469C158.81 279.316 158.353 277.749 157.665 277.856C156.764 277.993 157.12 279.555 157.728 279.469Z" fill="#727272"/>
<path d="M158.048 281.892C159.131 281.739 158.674 280.173 157.986 280.279C157.085 280.416 157.439 281.978 158.048 281.892Z" fill="#727272"/>
<path d="M158.13 282.827C158.617 283.043 158.324 281.457 158.016 281.33C157.613 281.156 157.859 282.705 158.13 282.827Z" fill="#727272"/>
<path d="M157.963 280.63C158.449 280.847 158.157 279.26 157.849 279.13C157.445 278.96 157.691 280.509 157.963 280.63Z" fill="#727272"/>
<path d="M157.608 278.396C158.093 278.613 157.801 277.023 157.494 276.897C157.09 276.727 157.335 278.276 157.608 278.396Z" fill="#727272"/>
<path d="M157.37 276.009C157.82 276.292 157.757 274.68 157.471 274.511C157.095 274.281 157.117 275.849 157.37 276.009Z" fill="#727272"/>
<path d="M157.239 273.623C157.69 273.906 157.626 272.294 157.34 272.122C156.965 271.896 156.988 273.464 157.239 273.623Z" fill="#727272"/>
<path d="M156.662 263.863C157.747 263.734 157.322 262.155 156.633 262.25C155.729 262.368 156.052 263.938 156.662 263.863Z" fill="#727272"/>
<path d="M156.729 261.705C157.814 261.574 157.389 259.999 156.7 260.091C155.797 260.21 156.12 261.778 156.729 261.705Z" fill="#727272"/>
<path d="M156.783 266.064C157.868 265.933 157.444 264.358 156.755 264.452C155.852 264.569 156.174 266.137 156.783 266.064Z" fill="#727272"/>
<path d="M156.906 268.263C157.99 268.132 157.566 266.554 156.877 266.649C155.974 266.768 156.296 268.336 156.906 268.263Z" fill="#727272"/>
<path d="M157.176 270.691C158.26 270.56 157.836 268.986 157.146 269.077C156.243 269.196 156.566 270.764 157.176 270.691Z" fill="#727272"/>
<path d="M157.239 271.627C157.719 271.854 157.461 270.262 157.154 270.126C156.755 269.947 156.97 271.5 157.239 271.627Z" fill="#727272"/>
<path d="M157.117 269.428C157.598 269.654 157.34 268.062 157.034 267.93C156.633 267.747 156.848 269.301 157.117 269.428Z" fill="#727272"/>
<path d="M156.807 267.188C157.288 267.412 157.03 265.823 156.724 265.686C156.323 265.507 156.537 267.061 156.807 267.188Z" fill="#727272"/>
<path d="M156.62 264.796C157.063 265.089 157.034 263.478 156.751 263.297C156.381 263.063 156.37 264.631 156.62 264.796Z" fill="#727272"/>
<path d="M156.538 262.406C156.981 262.699 156.952 261.086 156.669 260.909C156.299 260.674 156.289 262.242 156.538 262.406Z" fill="#727272"/>
<path d="M156.276 252.657C157.361 252.526 156.936 250.949 156.247 251.043C155.344 251.163 155.666 252.731 156.276 252.657Z" fill="#727272"/>
<path d="M156.345 250.498C157.428 250.371 157.005 248.793 156.316 248.887C155.412 249.003 155.734 250.572 156.345 250.498Z" fill="#727272"/>
<path d="M156.397 254.858C157.483 254.731 157.058 253.152 156.369 253.246C155.465 253.362 155.787 254.931 156.397 254.858Z" fill="#727272"/>
<path d="M156.519 257.056C157.603 256.925 157.18 255.351 156.49 255.442C155.588 255.561 155.91 257.13 156.519 257.056Z" fill="#727272"/>
<path d="M156.789 259.486C157.872 259.359 157.449 257.781 156.76 257.874C155.856 257.99 156.178 259.559 156.789 259.486Z" fill="#727272"/>
<path d="M156.853 260.421C157.333 260.648 157.074 259.056 156.769 258.92C156.369 258.741 156.583 260.294 156.853 260.421Z" fill="#727272"/>
<path d="M156.731 258.222C157.211 258.446 156.952 256.856 156.646 256.72C156.247 256.541 156.462 258.095 156.731 258.222Z" fill="#727272"/>
<path d="M156.421 255.982C156.9 256.208 156.642 254.617 156.335 254.48C155.936 254.301 156.151 255.855 156.421 255.982Z" fill="#727272"/>
<path d="M156.233 253.589C156.676 253.886 156.647 252.271 156.364 252.095C155.994 251.857 155.983 253.425 156.233 253.589Z" fill="#727272"/>
<path d="M156.152 251.201C156.595 251.494 156.566 249.883 156.284 249.704C155.913 249.469 155.903 251.037 156.152 251.201Z" fill="#727272"/>
<path d="M156.278 248.284C157.367 248.181 156.983 246.594 156.291 246.67C155.385 246.765 155.666 248.341 156.278 248.284Z" fill="#727272"/>
<path d="M156.059 245.847C157.147 245.744 156.764 244.158 156.072 244.233C155.166 244.328 155.447 245.905 156.059 245.847Z" fill="#727272"/>
<path d="M155.935 243.653C156.217 242.597 154.597 242.404 154.426 243.078C154.2 243.961 155.776 244.247 155.935 243.653Z" fill="#727272"/>
<path d="M154.105 243.22C153.788 242.174 152.309 242.864 152.521 243.527C152.794 244.398 154.284 243.809 154.105 243.22Z" fill="#727272"/>
<path d="M156.318 249.221C156.794 249.459 156.576 247.862 156.273 247.717C155.877 247.529 156.051 249.087 156.318 249.221Z" fill="#727272"/>
<path d="M156.252 247.019C156.728 247.259 156.51 245.661 156.207 245.516C155.813 245.327 155.986 246.885 156.252 247.019Z" fill="#727272"/>
<path d="M156.005 244.649C156.527 244.755 155.897 243.27 155.566 243.21C155.136 243.132 155.713 244.59 156.005 244.649Z" fill="#727272"/>
<path d="M154.995 243.252C155.185 242.754 153.617 243.131 153.503 243.446C153.355 243.858 154.889 243.53 154.995 243.252Z" fill="#727272"/>
<path d="M183.891 342.153C183.858 343.245 185.479 343.061 185.492 342.365C185.509 341.453 183.91 341.538 183.891 342.153Z" fill="#727272"/>
<path d="M186.092 342.541C186.059 343.633 187.68 343.45 187.693 342.754C187.71 341.842 186.111 341.927 186.092 342.541Z" fill="#727272"/>
<path d="M185.178 342.359C184.821 342.758 186.42 342.968 186.639 342.717C186.926 342.381 185.377 342.136 185.178 342.359Z" fill="#727272"/>
<path d="M187.551 342.636C187.192 343.031 188.791 343.243 189.01 342.99C189.3 342.657 187.75 342.414 187.551 342.636Z" fill="#727272"/>
<path d="M288.964 345.019C288.932 346.111 290.552 345.927 290.565 345.231C290.582 344.319 288.984 344.405 288.964 345.019Z" fill="#727272"/>
<path d="M291.089 345.336C291.057 346.428 292.677 346.243 292.69 345.548C292.706 344.637 291.108 344.722 291.089 345.336Z" fill="#727272"/>
<path d="M290.423 345.041C290.065 345.435 291.663 345.648 291.885 345.394C292.172 345.062 290.623 344.818 290.423 345.041Z" fill="#727272"/>
<path d="M300.108 345.675C300.078 346.768 301.7 346.584 301.708 345.888C301.726 344.977 300.127 345.062 300.108 345.675Z" fill="#727272"/>
<path d="M297.915 345.466C297.882 346.554 299.504 346.374 299.515 345.676C299.533 344.768 297.934 344.852 297.915 345.466Z" fill="#727272"/>
<path d="M295.722 345.258C295.689 346.349 297.309 346.166 297.322 345.47C297.34 344.56 295.74 344.643 295.722 345.258Z" fill="#727272"/>
<path d="M293.281 345.161C293.248 346.253 294.868 346.07 294.882 345.374C294.898 344.463 293.299 344.547 293.281 345.161Z" fill="#727272"/>
<path d="M292.346 345.084C292.05 345.526 293.663 345.507 293.843 345.226C294.08 344.858 292.512 344.837 292.346 345.084Z" fill="#727272"/>
<path d="M294.539 345.292C294.242 345.731 295.857 345.712 296.036 345.436C296.273 345.067 294.704 345.046 294.539 345.292Z" fill="#727272"/>
<path d="M296.8 345.322C296.504 345.763 298.118 345.745 298.297 345.464C298.534 345.094 296.966 345.074 296.8 345.322Z" fill="#727272"/>
<path d="M299.193 345.493C298.834 345.889 300.434 346.1 300.652 345.849C300.943 345.516 299.394 345.272 299.193 345.493Z" fill="#727272"/>
<path d="M301.567 345.77C301.211 346.165 302.81 346.377 303.029 346.123C303.315 345.793 301.767 345.548 301.567 345.77Z" fill="#727272"/>
<path d="M307.167 346.34C307.135 347.433 308.755 347.249 308.768 346.552C308.785 345.642 307.186 345.725 307.167 346.34Z" fill="#727272"/>
<path d="M309.293 346.729C309.26 347.822 310.881 347.638 310.893 346.942C310.909 346.031 309.31 346.115 309.293 346.729Z" fill="#727272"/>
<path d="M304.975 346.13C304.942 347.222 306.562 347.039 306.575 346.339C306.592 345.432 304.993 345.516 304.975 346.13Z" fill="#727272"/>
<path d="M302.782 345.921C302.753 347.015 304.373 346.83 304.382 346.136C304.399 345.225 302.8 345.309 302.782 345.921Z" fill="#727272"/>
<path d="M303.86 345.986C303.56 346.427 305.176 346.409 305.354 346.128C305.594 345.758 304.025 345.738 303.86 345.986Z" fill="#727272"/>
<path d="M306.253 346.158C305.896 346.553 307.496 346.765 307.714 346.513C308.001 346.181 306.453 345.935 306.253 346.158Z" fill="#727272"/>
<path d="M308.627 346.435C308.268 346.83 309.867 347.042 310.085 346.789C310.376 346.458 308.827 346.212 308.627 346.435Z" fill="#727272"/>
<path d="M318.313 347.537C318.28 348.63 319.9 348.445 319.91 347.746C319.93 346.839 318.331 346.924 318.313 347.537Z" fill="#727272"/>
<path d="M320.976 347.833C320.943 348.926 322.563 348.741 322.576 348.045C322.593 347.134 320.994 347.219 320.976 347.833Z" fill="#727272"/>
<path d="M316.119 347.329C316.086 348.421 317.706 348.238 317.719 347.542C317.736 346.631 316.137 346.715 316.119 347.329Z" fill="#727272"/>
<path d="M313.925 347.12C313.892 348.213 315.513 348.029 315.526 347.333C315.543 346.422 313.944 346.505 313.925 347.12Z" fill="#727272"/>
<path d="M311.483 347.024C311.451 348.116 313.071 347.933 313.084 347.237C313.101 346.325 311.501 346.409 311.483 347.024Z" fill="#727272"/>
<path d="M310.549 346.946C310.253 347.388 311.866 347.37 312.046 347.092C312.283 346.719 310.715 346.699 310.549 346.946Z" fill="#727272"/>
<path d="M312.742 347.155C312.446 347.596 314.06 347.578 314.239 347.298C314.477 346.929 312.908 346.907 312.742 347.155Z" fill="#727272"/>
<path d="M315.003 347.184C314.707 347.623 316.321 347.604 316.5 347.327C316.737 346.957 315.169 346.936 315.003 347.184Z" fill="#727272"/>
<path d="M317.397 347.356C317.037 347.755 318.637 347.963 318.855 347.71C319.146 347.379 317.596 347.133 317.397 347.356Z" fill="#727272"/>
<path d="M319.77 347.633C319.414 348.028 321.013 348.241 321.232 347.987C321.519 347.654 319.97 347.41 319.77 347.633Z" fill="#727272"/>
<path d="M322.364 347.897C322.008 348.292 323.607 348.504 323.826 348.25C324.113 347.92 322.564 347.674 322.364 347.897Z" fill="#727272"/>
<path d="M329.671 347.778C329.337 346.737 327.871 347.452 328.092 348.112C328.38 348.978 329.858 348.363 329.671 347.778Z" fill="#727272"/>
<path d="M327.531 348.262C327.298 347.194 325.769 347.764 325.924 348.444C326.133 349.332 327.664 348.862 327.531 348.262Z" fill="#727272"/>
<path d="M325.152 348.543C325.255 347.456 323.626 347.535 323.569 348.227C323.493 349.136 325.094 349.155 325.152 348.543Z" fill="#727272"/>
<path d="M330.514 347.329C330.585 346.803 329.145 347.529 329.107 347.86C329.056 348.296 330.474 347.626 330.514 347.329Z" fill="#727272"/>
<path d="M328.452 348.152C328.628 347.651 327.071 348.071 326.966 348.388C326.829 348.805 328.353 348.434 328.452 348.152Z" fill="#727272"/>
<path d="M326.248 348.529C326.572 348.109 324.962 348.018 324.763 348.287C324.503 348.639 326.065 348.766 326.248 348.529Z" fill="#727272"/>
<path d="M10.4458 240.281C9.90253 240.394 8.16628 244.155 8.71612 247.123C9.26737 250.091 10.8503 256.966 11.7607 258.098C12.6719 259.231 13.8138 261.257 13.8138 261.257C13.8138 261.257 9.79566 263.415 9.15534 264.827C9.15534 264.827 9.15675 265.405 9.64753 265.329C10.1383 265.251 14.4232 265.018 14.6247 265.498C14.8263 265.979 15.2172 268.476 15.2819 268.801C15.3475 269.127 15.1671 270.602 15.1052 271.132C15.0794 271.352 13.765 273.466 14.0055 273.944C14.2488 274.423 16.0277 274.44 17.0196 274.416C18.0105 274.394 23.2947 270.851 24.0316 270.202C24.7694 269.551 24.9752 261.675 24.9752 261.675C24.9752 261.675 23.4724 251.38 23.8413 251.359C24.2107 251.338 26.703 250.334 27.5032 249.407C28.3038 248.479 28.0066 243.992 27.6278 243.275C27.2453 242.557 18.5936 238.563 10.4458 240.281Z" fill="#36627A"/>
<path d="M14.4861 268.687C14.4861 268.687 15.342 268.513 15.3912 268.619C15.4405 268.726 15.628 269.022 15.5876 269.594C15.5469 270.166 15.7662 270.894 15.3153 270.949C14.8644 271.004 14.5541 271.004 14.5541 271.004C14.5541 271.004 13.8022 272.86 12.643 273.421C11.4842 273.983 10.7047 273.792 11.4172 273.057C12.1287 272.324 13.4675 271.458 13.3395 271.156C13.2125 270.856 10.9672 271.163 10.9672 271.163L10.9873 269.349C10.9873 269.349 12.7034 269.183 12.7887 269.216C12.8741 269.247 13.5209 268.769 13.0297 268.557C12.5384 268.345 10.4239 268.56 10.7614 267.811C11.0989 267.06 11.0169 267.068 11.8161 266.969C12.6158 266.865 13.6376 267.261 14.0919 267.811C14.5447 268.359 14.4861 268.687 14.4861 268.687Z" fill="#6C808C"/>
<path d="M60.0291 262.647L51.953 255.889L18.0723 253.965C28.6473 251.789 48.6835 248.607 78.5354 246.768C99.9807 245.448 117.949 245.309 126.26 245.729C141.372 246.496 151.538 245.618 154.12 245.354C153.68 245.632 153.036 246.066 152.645 246.43C152.348 246.706 152.088 247.079 151.721 247.592C150.985 248.637 149.86 250.144 147.376 252.487L147.128 252.712C130.54 260.794 108.055 263.175 91.9065 263.635C74.7999 264.124 60.7515 262.722 60.0291 262.647Z" fill="#FF0000"/>
<path d="M78.9356 235.589C78.7912 235.296 78.6759 235.077 78.5831 234.913C78.5362 234.831 78.4954 234.764 78.4593 234.706C78.2798 234.42 78.2207 234.419 78.1846 234.418L78.082 234.483C78.0337 234.573 77.9798 234.672 77.916 234.776C77.8743 234.845 77.8298 234.916 77.7824 234.987C77.7585 235.022 77.7342 235.058 77.7107 235.095C77.0563 236.044 75.9707 237.163 75.3182 236.991C75.007 236.908 74.8204 236.698 74.7454 236.345C74.7356 236.303 74.7299 236.259 74.7248 236.217C74.7196 236.171 74.7149 236.126 74.7149 236.076C74.6742 234.816 75.7968 232.346 77.2734 230.773C77.5007 230.529 77.7365 230.311 77.9774 230.119C78.1115 230.011 78.2634 229.904 78.4242 229.812C78.6815 229.666 78.9613 229.56 79.221 229.572C79.3185 229.577 79.4142 229.599 79.5051 229.641C79.6499 229.708 79.746 229.821 79.799 229.983C79.8337 230.091 79.8477 230.216 79.8473 230.351C79.837 231.291 79.0368 232.724 79.0265 232.74L78.9665 232.847L80.2743 233.223L78.9356 235.589ZM79.0968 230.935C79.0935 230.79 79.0574 230.672 78.9773 230.593C78.9613 230.577 78.9435 230.564 78.9243 230.547C78.8756 230.517 78.8174 230.498 78.757 230.498C78.7134 230.498 78.6679 230.508 78.6163 230.527C78.2653 230.654 77.7604 231.198 77.2523 231.896L77.2298 231.868L77.2068 231.839L76.7624 232.611C76.5417 232.954 76.3307 233.312 76.1428 233.658C75.8287 234.235 75.5793 234.786 75.4528 235.201C75.3815 235.436 75.3496 235.624 75.3571 235.771C75.359 235.807 75.3646 235.839 75.3707 235.871C75.3913 235.963 75.4345 236.032 75.4982 236.076C75.5273 236.094 75.5596 236.105 75.5943 236.105C75.9946 236.105 77.2907 234.533 77.8279 233.769C77.8476 233.74 77.8668 233.713 77.8846 233.686C77.9184 233.634 77.9507 233.586 77.9751 233.545C78.0023 233.504 78.0229 233.468 78.036 233.438C78.052 233.411 78.0717 233.381 78.0951 233.344C78.1195 233.307 78.1443 233.263 78.1734 233.216C78.4907 232.688 79.1118 231.569 79.0968 230.935Z" fill="black"/>
<path d="M91.2212 231.376C90.7037 231.445 88.8859 231.741 87.3099 232.04C87.2092 232.059 87.1103 232.078 87.0113 232.098C86.9603 232.108 86.9092 232.118 86.8585 232.127C86.6424 232.17 86.4339 232.215 86.2351 232.258C86.1728 232.271 86.1118 232.287 86.0518 232.301C85.9028 232.335 85.7588 232.37 85.6262 232.406C85.5723 232.42 85.5198 232.435 85.4701 232.45C85.4593 232.452 85.4453 232.456 85.4293 232.46C84.9437 232.568 82.1757 233.212 81.7623 233.931C81.7492 233.956 81.7374 233.975 81.7309 233.999C81.4876 234.692 80.897 238.579 80.8004 239.444H79.1453L78.5649 237.981L78.7895 235.902L78.8767 235.861C78.8715 235.851 78.8668 235.841 78.8635 235.832C78.8574 235.822 78.8537 235.812 78.849 235.802L80.2829 233.28L80.3054 233.285L80.3331 233.195L80.3537 233.158L80.3903 233.092L82.5338 228.582L82.8624 228.468L83.192 228.353L84.1557 223.093C84.2026 223.093 84.2678 223.093 84.3503 223.093C84.9113 223.093 86.7873 223.108 87.3259 223.314C87.7787 223.485 89.9495 228.27 91.2212 231.376Z" fill="#3FA9F5"/>
<path d="M78.0502 232.901C78.06 232.901 78.0666 232.9 78.0731 232.898C78.0919 232.893 78.1078 232.884 78.1219 232.87C78.0272 233.036 77.932 233.194 77.8388 233.342C77.7863 233.449 77.6845 233.605 77.5547 233.787C77.5331 233.738 77.5256 233.681 77.5252 233.634C77.5242 233.552 77.5411 233.488 77.5411 233.487L77.5702 233.387L76.6528 233.193L77.0367 232.522C77.1108 232.413 77.1849 232.304 77.2608 232.199C77.8177 232.842 77.9846 232.903 78.0502 232.901Z" fill="black"/>
<path d="M78.0961 233.345C78.0727 233.383 78.0534 233.413 78.037 233.44C78.0239 233.469 78.0033 233.505 77.9761 233.547C77.9503 233.589 77.9194 233.635 77.8856 233.687C77.8678 233.715 77.8491 233.741 77.8289 233.771C77.2917 234.538 75.9961 236.107 75.5953 236.107C75.5606 236.107 75.5269 236.097 75.4992 236.078C75.4341 236.034 75.3919 235.968 75.3717 235.873C75.3647 235.844 75.3605 235.808 75.3581 235.772C75.3502 235.626 75.382 235.439 75.4538 235.202C75.5803 234.788 75.8297 234.237 76.1438 233.66C76.3317 233.314 76.5441 232.956 76.7634 232.613L77.2078 231.842L77.2308 231.87L77.2533 231.898C77.7609 231.201 78.2663 230.656 78.6174 230.529C78.6675 230.511 78.7144 230.5 78.758 230.5C78.8213 230.5 78.8766 230.517 78.9253 230.549C78.945 230.561 78.9628 230.578 78.9783 230.594C79.0584 230.675 79.0945 230.794 79.0978 230.936C79.1114 231.571 78.4917 232.689 78.1734 233.216C78.1458 233.265 78.1191 233.308 78.0961 233.345ZM75.6225 235.26C75.4706 235.76 75.5353 235.883 75.5616 235.908C75.8836 235.848 76.8506 234.74 77.4286 233.959C77.3231 233.821 77.3213 233.645 77.3339 233.537L76.5113 233.364C76.118 234.036 75.7852 234.722 75.6225 235.26ZM77.0363 232.524L76.6509 233.195L77.5683 233.389L77.5397 233.488C77.5392 233.49 77.5224 233.557 77.5233 233.635C77.5238 233.684 77.5327 233.74 77.5528 233.789C77.6827 233.604 77.7848 233.447 77.8369 233.344C77.9297 233.198 78.0253 233.038 78.12 232.872C78.1059 232.883 78.09 232.893 78.0713 232.9C78.0652 232.9 78.0595 232.902 78.0483 232.903C77.9822 232.905 77.8158 232.843 77.257 232.201C77.1848 232.306 77.1103 232.413 77.0363 232.524ZM78.8161 230.709C78.7992 230.698 78.7795 230.693 78.7561 230.693C78.4847 230.693 77.9419 231.263 77.3761 232.039C77.6184 232.318 77.8913 232.6 78.0113 232.686C78.0788 232.586 78.2044 232.546 78.3094 232.534C78.7434 231.721 79.0734 230.881 78.8161 230.709Z" fill="black"/>
<path d="M17.5389 252.565L17.5844 252.536L17.552 249.863L19.2203 248.844L26.522 248.972L26.5394 248.963L29.5642 247.845L29.6931 241.606L35.1494 240.273L46.8227 240.242L47.4377 239.112L57.325 238.562L57.3897 237.559L59.4456 237.352L59.26 237.205C59.2572 237.202 58.9699 236.973 58.9769 236.692C58.9825 236.53 59.0856 236.375 59.2881 236.233C59.4381 236.126 59.8783 236.002 61.12 236.002C62.2591 236.002 63.6517 236.105 64.6684 236.18C65.17 236.217 65.5675 236.248 65.7995 236.252C66.4933 236.274 67.263 236.797 67.682 237.274C67.9399 237.566 68.0767 237.851 68.0575 238.054C67.9961 238.699 67.8911 238.855 67.427 238.942L67.4542 239.148L74.2825 238.499L78.4966 238.102L79.0727 239.583H80.8961L80.9069 239.363C80.9153 239.317 81.5889 234.657 81.8402 233.933C82.037 233.368 84.5092 232.707 85.4444 232.5C87.0958 232.039 90.5406 231.553 91.1739 231.468L91.1838 231.492L91.2541 231.484C91.255 231.484 91.3895 231.473 91.5766 231.473C92.1053 231.473 92.4902 231.561 92.6622 231.717C92.8497 231.89 92.8511 232.235 92.853 232.569C92.8544 232.858 92.8553 233.13 92.9627 233.333C93.1872 233.749 95.1049 236.99 95.1869 237.127L95.2141 237.172L95.2633 237.176C95.5455 237.192 123.354 238.837 129.559 239.6C130.04 239.659 130.588 239.715 131.188 239.799C140.577 241.121 153.727 243.658 153.727 243.658C154.745 243.675 155.148 243.996 155.183 244.264C155.216 244.511 154.958 244.762 154.536 244.884C154.525 244.892 154.241 245.035 153.855 245.264C152.149 245.45 141.856 246.47 125.775 245.655C117.459 245.234 99.4633 245.399 78.0114 246.719C47.4489 248.604 28.5864 251.612 18.145 253.801L17.6884 253.897C16.8222 253.886 16.5142 253.799 16.4744 253.751C16.4599 253.724 16.4411 253.701 16.4224 253.673C16.3778 253.612 16.3553 253.58 16.3642 253.53C16.398 253.359 16.7814 253.042 17.5389 252.565Z" fill="white" stroke="white" stroke-miterlimit="10"/>
<path d="M59.7682 262.719L59.7973 262.723C59.9145 262.734 69.934 263.781 83.735 263.781C86.1246 263.781 88.6259 263.751 91.2073 263.675C107.286 263.217 129.884 260.989 146.477 253.001C146.431 253.042 146.39 253.081 146.349 253.121C145.777 253.65 145.208 254.21 144.605 254.804C140.793 258.557 136.048 263.228 123.81 266.786C120.994 267.603 117.979 267.987 114.319 267.987C111.184 267.987 107.968 267.902 104.564 267.607C100.826 267.284 96.9635 266.951 92.832 266.951C92.1973 266.951 91.564 266.96 90.949 266.975C90.3284 266.992 89.6014 267.001 88.7881 267.001C72.6964 267.001 23.6768 263.634 21.6425 263.503L18.0068 254.195L51.7165 255.963L59.7682 262.719Z" fill="white" stroke="white" stroke-miterlimit="10"/>
<path d="M69.2795 238.877C69.2795 238.877 68.6289 238.122 68.7714 237.228C68.9139 236.338 69.114 235.882 69.6611 235.725C70.2081 235.569 70.9492 235.498 71.1001 235.575C71.2525 235.653 73.097 236.385 73.5175 236.53C73.9389 236.676 75.0897 237.438 75.1131 237.787C75.1365 238.138 75.204 238.251 75.3465 238.594C75.4886 238.936 75.7051 240.482 75.7051 240.482L72.924 240.788C72.924 240.788 72.9536 239.704 72.7492 239.627C72.5434 239.554 69.8265 239.276 69.6433 239.172C69.4595 239.07 69.2795 238.877 69.2795 238.877Z" fill="#996234"/>
<path d="M58.9791 234.539C58.9791 234.539 58.8328 233.161 58.7737 233.161C58.7147 233.161 60.7036 233.044 61.1761 232.693C61.762 232.255 64.9847 232.283 64.9847 232.283L67.1231 234.246L69.5906 236.102C69.5906 236.102 68.8809 238.436 68.5294 238.436C68.3634 238.436 66.6033 236.842 65.0137 236.795C63.24 236.745 63.1097 237.762 63.5194 239.959C63.5972 240.375 59.8575 237.879 59.8575 237.879C59.8575 237.879 59.1516 237.352 58.9772 236.414C58.8028 235.477 58.9791 234.539 58.9791 234.539Z" fill="#EF45B7"/>
<path d="M63.2273 220.418C63.3155 220.447 63.9595 219.656 63.9305 219.392C63.9014 219.128 63.6384 218.953 63.5794 218.953C63.5203 218.953 62.9053 218.22 63.2273 217.898C63.5498 217.575 62.5242 216.257 62.9048 215.613C63.2855 214.968 63.7542 213.972 64.6336 213.621C65.513 213.269 66.0689 212.976 66.5086 213.328C66.9483 213.679 68.0029 214.675 68.032 215.056C68.0611 215.437 68.2373 216.17 68.032 216.96C67.8267 217.752 67.8267 217.869 67.7976 218.718C67.7686 219.568 67.3875 220.095 67.1236 220.418C66.8597 220.741 66.9773 221.179 66.479 221.296C65.9808 221.414 66.5962 222.205 66.3619 222.497C66.1275 222.79 63.3736 222.058 63.4322 220.915C63.4603 220.378 63.2273 220.418 63.2273 220.418Z" fill="#996234"/>
<path d="M63.3159 219.275C63.3159 219.275 62.8181 219.275 62.8762 218.865C62.9343 218.455 63.0421 217.752 62.8715 217.576C62.7009 217.4 62.1731 217.078 62.3488 216.58C62.5246 216.082 62.7295 215.789 62.6123 215.32C62.4951 214.851 62.6123 214.47 62.9929 214.236C63.3735 214.002 63.6703 214.06 64.1081 213.855C64.5473 213.65 64.8988 213.152 65.3953 213.064C65.8931 212.976 66.479 212.624 66.8896 213.064C67.3003 213.504 67.5928 213.504 67.7099 213.796C67.8271 214.089 67.6809 213.767 67.8562 214.47C68.0315 215.174 68.3835 215.32 68.1492 215.701C67.9148 216.082 67.7095 215.378 67.5046 215.349C67.2998 215.32 67.4165 214.998 66.8601 215.349C66.3037 215.701 66.5085 215.584 65.6882 215.408C64.8679 215.232 64.4282 214.763 64.1788 215.613C63.9304 216.463 64.0757 216.316 64.1788 216.99C64.282 217.665 64.1788 217.957 64.1788 217.957C64.1788 217.957 64.1357 217.635 63.8132 217.694C63.4907 217.752 63.4326 217.811 63.4617 218.162C63.4907 218.514 63.667 218.924 63.6079 219.041C63.5488 219.158 63.3159 219.275 63.3159 219.275Z" fill="#301705"/>
<path d="M67.3584 225.955C67.3584 225.955 69.292 229.119 69.7903 229.412C70.2886 229.705 71.3137 230.291 71.6943 230.379C72.075 230.467 74.4778 230.847 75.5029 230.789C76.5281 230.73 76.7039 230.42 77.085 230.795C77.4656 231.171 77.6418 231.433 77.7881 231.14C77.9343 230.847 77.8467 230.789 77.7881 230.349C77.7295 229.909 77.7881 229.675 78.1982 229.617C78.6084 229.559 79.2356 230.027 79.0673 229.5C78.9014 228.972 78.96 228.738 78.285 228.797C77.6109 228.855 77.4937 229.354 77.025 229.412C76.5562 229.469 76.3509 229.47 75.5306 229.353C74.7103 229.236 72.3956 227.859 71.8978 227.83C71.4 227.801 71.3704 227.419 71.0484 227.097C70.7259 226.775 69.4368 225.193 69.4368 225.193" fill="#996234"/>
<path d="M58.7739 227.566C58.8911 225.926 59.4771 223.319 60.4732 222.176C61.4693 221.033 61.7622 221.063 62.4944 220.74C63.2266 220.418 63.6077 220.506 63.6077 220.506C63.6077 220.506 63.6461 221.678 64.2424 221.883C64.8386 222.089 66.2444 222.469 66.3325 222.235C66.4207 222 66.2158 221.853 66.3911 221.648C66.5664 221.442 66.8599 220.887 67.0652 221.004C67.27 221.122 68.2957 221.531 68.4129 222.059C68.53 222.587 68.6472 223.29 68.9402 223.7C69.2332 224.11 69.4089 224.754 69.4089 224.754C69.4089 224.754 69.4971 224.989 69.5847 225.252C69.6724 225.516 68.823 225.487 68.2666 226.57C67.7102 227.654 67.0947 225.955 67.0947 225.955C67.0947 225.955 67.7688 225.516 67.1533 226.453C67.1533 226.453 66.2158 227.888 66.1572 228.094C66.0986 228.299 65.8643 228.826 65.8938 229.354C65.9229 229.882 66.2163 230.438 66.1572 230.994C66.0982 231.551 66.1689 232.049 65.4747 232.313C64.7814 232.576 64.0197 232.518 63.1689 232.605C62.3196 232.694 61.2719 232.647 60.8838 232.986C60.4957 233.325 60.1221 233.045 59.6533 233.162C59.1846 233.279 59.1555 233.572 58.7744 233.162C58.3938 232.752 58.9989 231.463 58.9014 231.17C58.8039 230.877 58.5499 230.232 58.6474 229.266C58.7444 228.299 58.7739 227.566 58.7739 227.566Z" fill="#8BC7E8"/>
<path d="M62.161 229.544C62.161 229.544 62.7821 231.585 63.1304 231.975C63.4791 232.363 64.0365 233.264 64.3313 233.613C64.6271 233.963 67.2497 236.65 67.5643 236.884C67.8816 237.118 69.4013 238.455 69.4013 238.455L71.5576 238.208C71.5576 238.208 70.1297 236.679 69.428 235.933C68.7258 235.186 66.4032 232.31 66.2705 232.05C66.1379 231.789 65.3832 231.003 65.1788 230.639C64.9744 230.277 64.9407 229.527 64.771 228.843C64.6027 228.159 64.3111 227.275 64.3111 227.275C64.3111 227.275 61.6022 226.95 61.5197 227.589C61.4372 228.227 62.161 229.544 62.161 229.544Z" fill="#996234"/>
<path d="M63.579 239.93C63.579 239.93 62.9832 239.129 63.1886 238.251C63.3939 237.372 63.6268 236.932 64.1823 236.815C64.7392 236.698 65.4836 236.679 65.6298 236.766C65.7761 236.855 67.5634 237.714 67.9736 237.89C68.3837 238.065 69.4759 238.905 69.4759 239.256C69.4759 239.608 69.5345 239.725 69.6517 240.077C69.7689 240.428 69.9151 241.424 69.9151 241.424L67.1017 241.723C67.1017 241.723 67.187 241.014 66.9868 240.928C66.7853 240.84 64.0961 240.371 63.9203 240.254C63.7445 240.137 63.579 239.93 63.579 239.93Z" fill="#996234"/>
<path opacity="0.6" d="M0.137695 257.643H375.138L375.598 375.14H0.598008L0.137695 257.643Z" fill="#33EFFF"/>
<path d="M375.399 347.385C357.642 350.596 346.714 349.797 334.049 349.752C322.776 349.737 318.512 347.479 298.717 345.977C286.488 345.608 276.82 345.98 263.868 346.64C254.44 347.119 232.759 348.245 223.017 346.729C204.478 341.681 157.567 342.728 136.386 346.002C115.205 349.277 124.352 343.986 110.872 344.491C97.3935 344.991 99.5596 347.01 92.8199 345.243C86.0807 343.479 83.1308 338.126 77.3886 339.143C76.738 339.532 77.5124 342.659 63.0918 335.1C58.0372 332.451 52.2163 332.523 48.6191 332.464C45.0449 332.405 37.0789 334.294 32.5058 330.764C27.2324 327.669 11.9614 338.458 6.66598 341.478C1.37051 344.508 -1.26855 342.732 -1.26855 342.732L-0.448242 376.588L375.598 377.057L375.399 347.385Z" fill="#D8BD80"/>
<rect x="315.138" y="15.5332" width="44.0746" height="25" rx="12.5" fill="#969696" fill-opacity="0.3"/>
<path d="M327.121 33.1592H326.3V24.1904L323.593 25.1953V24.4297L326.984 23.1719H327.121V33.1592ZM331.092 34.0137H330.347L334.503 23.2061H335.242L331.092 34.0137ZM342.877 33.1592H336.643V32.5303L340.054 28.6611C340.619 28.0094 341.011 27.4717 341.23 27.0479C341.449 26.624 341.558 26.2116 341.558 25.8105C341.558 25.1816 341.374 24.6849 341.004 24.3203C340.635 23.9512 340.127 23.7666 339.48 23.7666C338.81 23.7666 338.268 23.9808 337.853 24.4092C337.443 24.8376 337.238 25.3936 337.238 26.0771H336.424C336.424 25.5166 336.55 25.0062 336.8 24.5459C337.056 24.0856 337.416 23.7256 337.88 23.4658C338.35 23.2015 338.883 23.0693 339.48 23.0693C340.391 23.0693 341.102 23.3086 341.613 23.7871C342.128 24.2656 342.385 24.9173 342.385 25.7422C342.385 26.207 342.239 26.7152 341.948 27.2666C341.661 27.818 341.153 28.5062 340.423 29.3311L337.648 32.4688H342.877V33.1592ZM349.433 29.9531H350.985V30.6436H349.433V33.1592H348.613V30.6436H343.93V30.1787L348.538 23.2061H349.433V29.9531ZM344.935 29.9531H348.613V24.2656L348.25 24.8945L344.935 29.9531Z" fill="black"/>
</g>
<defs>
<linearGradient id="paint0_linear" x1="187.868" y1="375.14" x2="187.868" y2="0.532972" gradientUnits="userSpaceOnUse">
<stop offset="0.1444" stop-color="white"/>
<stop offset="1" stop-color="#4FC3F7"/>
</linearGradient>
<clipPath id="clip0">
<rect width="375" height="375" fill="white" transform="translate(0.137695 0.533203)"/>
</clipPath>
</defs>
</svg>
