<svg width="376" height="376" viewBox="0 0 376 376" fill="none" xmlns="http://www.w3.org/2000/svg">
<g clip-path="url(#clip0)">
<path d="M0.775391 0.414062H375.775L376.235 375.021H1.2357L0.775391 0.414062Z" fill="url(#paint0_linear)"/>
<path d="M272.958 313.793C273.465 313.784 278.165 313.703 278.942 313.508C279.755 313.304 280.347 312.385 280.488 311.826C280.495 311.801 281.148 309.217 281.354 307.452C281.627 305.097 281.547 303.912 281.101 303.731C281.004 303.691 280.909 303.694 280.818 303.739C280.459 303.923 280.258 304.746 280.106 305.351C280.099 305.379 280.096 305.4 280.087 305.427C280.007 305.379 279.924 305.335 279.843 305.283C279.35 304.999 278.885 304.728 278.622 304.776C278.483 304.804 278.379 304.868 278.316 304.975C278.213 305.141 278.238 305.356 278.266 305.481C278.273 305.513 278.28 305.54 278.286 305.557C278.341 305.742 278.803 306.927 278.965 307.344C278.643 307.227 277.83 306.939 277.087 306.737L276.852 306.671C275.947 306.424 275.17 306.212 274.87 306.525C274.84 306.557 274.822 306.603 274.825 306.657C274.853 307.234 277.16 309.377 277.184 309.397C277.303 309.499 277.727 309.948 278.089 310.407C278.724 311.215 278.724 311.487 278.694 311.567C278.604 311.818 277.278 311.939 275.396 311.867C274.998 311.854 274.169 311.74 273.96 311.539C273.774 311.362 273.748 310.747 273.754 310.52C273.725 309.839 273.042 293.842 273.013 293.442C273.008 293.376 273.007 293.315 273.007 293.26C273.005 292.933 272.975 292.748 272.373 292.746C272.366 292.744 272.223 292.719 272.077 292.839C271.897 292.989 271.807 293.291 271.812 293.734C271.813 294.038 271.841 295.964 271.88 298.401C271.964 303.856 272.105 312.986 272.069 313.227C272.022 313.393 271.988 313.585 272.017 313.714C272.031 313.785 272.066 313.838 272.129 313.857C272.223 313.887 272.815 313.985 272.95 313.815C272.949 313.807 272.953 313.8 272.958 313.793Z" fill="#727272"/>
<path d="M272.417 293.571C272.417 293.556 272.415 293.542 272.412 293.526C272.386 293.42 272.291 293.345 272.186 293.349C272.125 293.351 272.069 293.377 272.028 293.419C271.987 293.462 271.964 293.519 271.966 293.579C271.969 293.706 272.073 293.804 272.197 293.8C272.258 293.799 272.311 293.774 272.355 293.732C272.396 293.688 272.419 293.632 272.417 293.571Z" fill="#727272"/>
<path d="M280.112 311.638C280.114 311.63 280.163 311.428 280.241 311.099C280.233 309.908 278.884 306.622 278.44 305.54C278.32 305.25 278.297 305.193 278.294 305.169C278.293 305.164 278.292 305.16 278.292 305.158L278.361 305.156L278.429 305.141C278.435 305.163 278.495 305.307 278.57 305.489C278.97 306.471 280.113 309.251 280.338 310.682C280.547 309.767 280.845 308.368 280.973 307.285C281.295 304.515 281.059 303.808 280.805 303.703C280.745 303.679 280.691 303.68 280.639 303.71C280.336 303.861 280.124 304.716 280 305.228C279.991 305.268 279.982 305.303 279.972 305.339C280.116 305.418 280.247 305.486 280.358 305.527C280.697 305.653 280.754 305.601 280.754 305.6L280.884 305.558C280.893 305.587 280.894 305.653 280.845 305.702C280.763 305.777 280.593 305.763 280.308 305.654C280.094 305.572 279.819 305.413 279.53 305.246C279.101 305 278.615 304.715 278.404 304.754C278.303 304.773 278.236 304.82 278.189 304.89C278.109 305.018 278.16 305.212 278.202 305.354C278.266 305.566 278.951 307.195 278.964 307.261V307.262C278.982 307.341 279.733 309.147 279.725 309.681C279.716 310.311 279.404 311.993 278.156 312.209C277.3 312.356 274.921 312.24 274.82 312.237C274.703 312.233 273.646 312.205 273.406 311.923C272.505 310.866 272.377 297.307 272.371 296.731C272.371 296.706 272.349 296.093 272.739 295.738C272.677 294.334 272.633 293.385 272.63 293.295C272.624 293.227 272.62 293.164 272.62 293.105C272.619 292.832 272.618 292.729 272.115 292.726C272.101 292.725 272.008 292.713 271.915 292.793C271.816 292.878 271.697 293.085 271.7 293.579C271.7 293.74 271.71 294.344 271.722 295.235L272.196 312.975L272.169 312.996C272.3 313.01 272.481 313.035 272.593 313.07C272.676 313.096 272.738 313.16 272.766 313.253C272.789 313.33 272.789 313.421 272.771 313.502C273.481 313.491 277.937 313.406 278.662 313.223C279.454 313.024 279.996 312.093 280.112 311.638ZM272.2 293.939C272.026 293.945 271.873 293.824 271.837 293.654C271.832 293.633 271.829 293.609 271.828 293.585C271.824 293.488 271.859 293.398 271.929 293.326C271.996 293.257 272.086 293.216 272.183 293.214C272.379 293.209 272.55 293.365 272.554 293.57C272.557 293.665 272.521 293.757 272.454 293.83C272.388 293.898 272.297 293.938 272.2 293.939Z" fill="#727272"/>
<path d="M272.506 296.73C272.508 296.875 272.638 310.821 273.509 311.838C273.675 312.036 274.512 312.098 274.819 312.102C274.846 312.105 277.278 312.226 278.119 312.078C279.267 311.881 279.55 310.246 279.556 309.688C279.565 309.217 278.883 307.588 278.786 307.357C278.613 307.291 277.661 306.943 276.804 306.709L276.569 306.645C275.746 306.42 274.967 306.205 274.724 306.46C274.717 306.467 274.717 306.483 274.717 306.49C274.736 306.95 276.754 308.893 277.03 309.132C277.172 309.256 278.778 310.907 278.58 311.452C278.416 311.901 276.363 311.89 275.151 311.843C274.84 311.833 273.894 311.738 273.618 311.478C273.355 311.228 273.367 310.45 273.371 310.36C273.363 310.236 272.957 300.687 272.75 295.925C272.492 296.25 272.506 296.724 272.506 296.73Z" fill="#727272"/>
<path d="M271.9 307.023C271.949 310.481 271.97 312.516 271.96 312.999L272.057 312.914L271.9 307.023Z" fill="#727272"/>
<path d="M272.638 313.294C272.623 313.245 272.595 313.213 272.555 313.203C272.382 313.149 272.007 313.117 272.002 313.116L271.953 313.112C271.871 313.415 271.892 313.562 271.922 313.571C272.083 313.62 272.537 313.652 272.596 313.576C272.64 313.519 272.668 313.392 272.638 313.294Z" fill="#727272"/>
<path d="M272.717 313.64C272.699 313.64 272.687 313.64 272.678 313.64L272.676 313.503C272.68 313.503 272.716 313.502 272.773 313.501C272.792 313.42 272.793 313.329 272.769 313.253C272.74 313.161 272.679 313.095 272.597 313.07C272.484 313.035 272.303 313.01 272.173 312.995L272.197 312.974L271.726 295.234C271.714 294.344 271.704 293.739 271.702 293.578C271.7 293.084 271.818 292.878 271.918 292.793C272.011 292.712 272.104 292.724 272.117 292.725C272.621 292.729 272.622 292.831 272.624 293.104C272.624 293.163 272.625 293.227 272.632 293.294C272.639 293.384 272.681 294.333 272.741 295.738C272.351 296.093 272.369 296.706 272.37 296.731C272.377 297.307 272.502 310.866 273.403 311.924C273.642 312.206 274.696 312.236 274.813 312.237C274.916 312.244 277.285 312.362 278.143 312.211C279.391 311.997 279.716 310.31 279.726 309.682C279.735 309.146 278.984 307.341 278.967 307.262L278.967 307.261C278.967 307.262 278.937 307.27 278.937 307.271L278.793 307.324C278.788 307.313 278.762 307.263 278.729 307.183C278.406 307.066 277.588 306.779 276.844 306.576L276.608 306.511C275.705 306.265 274.925 306.052 274.625 306.365C274.594 306.398 274.577 306.444 274.58 306.498C274.609 307.074 276.914 309.217 276.938 309.237C277.056 309.339 277.481 309.788 277.845 310.248C278.479 311.056 278.479 311.328 278.45 311.408C278.359 311.659 277.034 311.78 275.151 311.707C274.752 311.694 273.925 311.581 273.713 311.38C273.528 311.203 273.501 310.588 273.507 310.362C273.478 309.68 272.794 293.683 272.767 293.283C272.759 293.216 272.759 293.156 272.758 293.1C272.756 292.774 272.728 292.589 272.126 292.586C272.12 292.585 271.974 292.559 271.83 292.678C271.65 292.829 271.561 293.13 271.563 293.573C271.564 293.878 271.593 295.805 271.631 298.242C271.715 303.696 271.855 312.826 271.818 313.068C271.772 313.234 271.736 313.425 271.766 313.555C271.779 313.625 271.814 313.679 271.877 313.697C271.971 313.726 272.563 313.826 272.697 313.655C272.707 313.654 272.711 313.646 272.717 313.64ZM273.369 310.365C273.364 310.453 273.356 311.232 273.616 311.483C273.891 311.744 274.836 311.838 275.149 311.848C276.36 311.895 278.417 311.906 278.577 311.457C278.775 310.914 277.169 309.26 277.027 309.138C276.752 308.898 274.732 306.957 274.713 306.495C274.712 306.486 274.712 306.471 274.722 306.465C274.965 306.21 275.743 306.423 276.567 306.65L276.801 306.716C277.658 306.948 278.611 307.296 278.784 307.362C278.881 307.591 279.557 309.222 279.553 309.693C279.545 310.25 279.265 311.885 278.114 312.083C277.274 312.23 274.843 312.11 274.817 312.109C274.51 312.1 273.674 312.04 273.505 311.842C272.636 310.825 272.505 296.878 272.503 296.735C272.503 296.729 272.489 296.256 272.748 295.936C272.957 300.692 273.364 310.241 273.369 310.365ZM271.901 307.023L272.057 312.913L271.96 312.999C271.971 312.513 271.949 310.481 271.901 307.023ZM271.921 313.57C271.892 313.56 271.872 313.414 271.953 313.111L272.001 313.115C272.006 313.116 272.381 313.146 272.555 313.202C272.594 313.212 272.622 313.244 272.637 313.293C272.668 313.391 272.639 313.518 272.594 313.576C272.535 313.651 272.08 313.618 271.921 313.57Z" fill="#727272"/>
<path d="M279.997 305.228C280.124 304.716 280.335 303.86 280.636 303.709C280.687 303.68 280.743 303.68 280.802 303.702C281.056 303.808 281.292 304.513 280.97 307.284C280.843 308.368 280.548 309.766 280.335 310.681C280.364 310.842 280.375 310.985 280.376 311.107L280.239 311.109C280.239 311.104 280.239 311.101 280.239 311.099C280.16 311.426 280.111 311.631 280.109 311.639C279.994 312.093 279.452 313.023 278.662 313.222C277.933 313.404 273.477 313.487 272.772 313.501C272.761 313.552 272.742 313.6 272.715 313.639C273.223 313.631 277.922 313.55 278.698 313.356C279.512 313.151 280.102 312.232 280.243 311.673C280.252 311.647 280.903 309.063 281.111 307.299C281.384 304.943 281.305 303.758 280.858 303.577C280.761 303.536 280.666 303.54 280.575 303.586C280.218 303.77 280.018 304.593 279.865 305.198C279.859 305.226 279.853 305.247 279.846 305.274C279.889 305.298 279.93 305.321 279.971 305.342C279.979 305.303 279.987 305.267 279.997 305.228Z" fill="#727272"/>
<path d="M272.773 313.501C272.716 313.502 272.68 313.503 272.675 313.503L272.677 313.64C272.687 313.64 272.699 313.64 272.716 313.639C272.742 313.6 272.762 313.553 272.773 313.501Z" fill="#727272"/>
<path d="M278.891 307.25L278.901 307.275C278.874 307.213 278.234 305.575 278.169 305.363C278.126 305.219 278.107 305.021 278.185 304.891C278.23 304.821 278.301 304.774 278.402 304.756C278.613 304.717 279.099 305 279.527 305.247C279.817 305.415 280.091 305.573 280.306 305.655C280.589 305.762 280.76 305.779 280.842 305.702C280.892 305.655 280.891 305.592 280.88 305.559L280.749 305.602C280.749 305.602 280.693 305.654 280.355 305.527C280.244 305.485 280.111 305.419 279.967 305.34C279.961 305.367 279.956 305.394 279.948 305.418L279.818 305.385C279.827 305.352 279.835 305.311 279.846 305.274C279.766 305.226 279.683 305.182 279.6 305.13C279.107 304.846 278.642 304.575 278.38 304.623C278.24 304.65 278.135 304.714 278.071 304.823C277.97 304.989 277.993 305.204 278.02 305.328C278.03 305.359 278.035 305.388 278.043 305.404C278.096 305.589 278.56 306.775 278.721 307.191C278.809 307.221 278.865 307.24 278.867 307.242L278.891 307.25Z" fill="#727272"/>
<path d="M278.903 307.279C278.903 307.279 278.902 307.276 278.901 307.275L278.891 307.248L278.863 307.239C278.861 307.237 278.808 307.218 278.717 307.188C278.747 307.266 278.767 307.319 278.772 307.33L278.903 307.279Z" fill="#727272"/>
<path d="M279.95 305.417C279.958 305.392 279.963 305.365 279.97 305.339C279.928 305.317 279.887 305.294 279.845 305.271C279.835 305.309 279.826 305.348 279.816 305.382L279.95 305.417Z" fill="#727272"/>
<path d="M278.57 305.487C278.495 305.303 278.435 305.161 278.429 305.139L278.36 305.154L278.292 305.156C278.292 305.16 278.292 305.164 278.294 305.167C278.299 305.19 278.322 305.247 278.441 305.538C278.885 306.621 280.234 309.906 280.242 311.096C280.271 310.972 280.303 310.833 280.339 310.676C280.114 309.251 278.972 306.468 278.57 305.487Z" fill="#727272"/>
<path d="M280.243 311.107L280.381 311.105C280.38 310.982 280.368 310.841 280.34 310.68C280.307 310.834 280.271 310.976 280.243 311.1C280.243 311.102 280.243 311.104 280.243 311.107Z" fill="#727272"/>
<path d="M272.555 293.568C272.549 293.363 272.379 293.207 272.182 293.213C272.085 293.215 271.995 293.257 271.928 293.325C271.86 293.395 271.824 293.488 271.828 293.585C271.829 293.61 271.832 293.634 271.836 293.653C271.873 293.823 272.026 293.943 272.2 293.939C272.297 293.935 272.386 293.896 272.455 293.827C272.521 293.757 272.557 293.665 272.555 293.568ZM272.196 293.802C272.074 293.806 271.971 293.71 271.968 293.581C271.966 293.52 271.989 293.463 272.03 293.419C272.071 293.375 272.127 293.351 272.188 293.35C272.295 293.347 272.392 293.421 272.412 293.529C272.418 293.541 272.42 293.558 272.42 293.573C272.422 293.634 272.399 293.69 272.357 293.734C272.313 293.777 272.257 293.802 272.196 293.802Z" fill="#727272"/>
<path d="M270.909 104.452C269.828 104.613 270.294 106.176 270.983 106.064C271.883 105.921 271.518 104.362 270.909 104.452Z" fill="#727272"/>
<path d="M270.901 106.613C269.818 106.774 270.286 108.335 270.971 108.225C271.875 108.08 271.509 106.521 270.901 106.613Z" fill="#727272"/>
<path d="M270.728 102.257C269.644 102.417 270.113 103.98 270.797 103.869C271.701 103.725 271.335 102.167 270.728 102.257Z" fill="#727272"/>
<path d="M270.673 101.134C270.185 100.921 270.487 102.506 270.798 102.633C271.202 102.8 270.945 101.254 270.673 101.134Z" fill="#727272"/>
<path d="M270.926 103.519C270.474 103.239 270.546 104.851 270.837 105.021C271.214 105.245 271.181 103.676 270.926 103.519Z" fill="#727272"/>
<path d="M271.075 105.905C270.622 105.624 270.697 107.237 270.987 107.407C271.361 107.631 271.328 106.063 271.075 105.905Z" fill="#727272"/>
<path d="M271.556 115.537C270.469 115.647 270.863 117.23 271.554 117.152C272.46 117.05 272.168 115.475 271.556 115.537Z" fill="#727272"/>
<path d="M271.447 117.694C270.363 117.803 270.754 119.386 271.445 119.307C272.351 119.206 272.059 117.632 271.447 117.694Z" fill="#727272"/>
<path d="M271.476 113.336C270.39 113.445 270.783 115.027 271.474 114.949C272.38 114.847 272.088 113.274 271.476 113.336Z" fill="#727272"/>
<path d="M271.397 111.134C270.309 111.243 270.703 112.826 271.394 112.748C272.301 112.646 272.008 111.071 271.397 111.134Z" fill="#727272"/>
<path d="M271.174 108.7C270.091 108.81 270.482 110.393 271.173 110.315C272.078 110.212 271.786 108.638 271.174 108.7Z" fill="#727272"/>
<path d="M271.129 107.764C270.652 107.528 270.881 109.125 271.183 109.267C271.579 109.453 271.396 107.896 271.129 107.764Z" fill="#727272"/>
<path d="M271.208 109.965C270.731 109.729 270.96 111.326 271.262 111.469C271.659 111.654 271.475 110.098 271.208 109.965Z" fill="#727272"/>
<path d="M271.474 112.21C270.998 111.974 271.227 113.572 271.53 113.714C271.925 113.9 271.742 112.343 271.474 112.21Z" fill="#727272"/>
<path d="M271.617 114.606C271.179 114.304 271.177 115.919 271.457 116.102C271.823 116.342 271.863 114.775 271.617 114.606Z" fill="#727272"/>
<path d="M271.651 116.996C271.213 116.693 271.213 118.308 271.492 118.49C271.858 118.732 271.898 117.164 271.651 116.996Z" fill="#727272"/>
<path d="M271.878 126.59C270.79 126.683 271.159 128.271 271.849 128.204C272.758 128.117 272.49 126.538 271.878 126.59Z" fill="#727272"/>
<path d="M271.736 128.745C270.648 128.839 271.017 130.427 271.708 130.359C272.616 130.272 272.349 128.692 271.736 128.745Z" fill="#727272"/>
<path d="M271.834 124.388C270.749 124.48 271.115 126.069 271.808 126.002C272.714 125.914 272.446 124.335 271.834 124.388Z" fill="#727272"/>
<path d="M271.788 122.185C270.7 122.277 271.069 123.867 271.761 123.799C272.668 123.712 272.402 122.133 271.788 122.185Z" fill="#727272"/>
<path d="M271.605 119.748C270.519 119.842 270.888 121.43 271.577 121.363C272.484 121.276 272.216 119.696 271.605 119.748Z" fill="#727272"/>
<path d="M271.572 118.811C271.099 118.568 271.304 120.168 271.601 120.315C271.997 120.508 271.838 118.948 271.572 118.811Z" fill="#727272"/>
<path d="M271.619 121.013C271.145 120.77 271.35 122.371 271.649 122.517C272.044 122.71 271.883 121.15 271.619 121.013Z" fill="#727272"/>
<path d="M271.85 123.264C271.378 123.019 271.582 124.62 271.881 124.767C272.275 124.959 272.116 123.399 271.85 123.264Z" fill="#727272"/>
<path d="M269.755 80.122C268.673 80.2832 269.14 81.846 269.828 81.734C270.728 81.5905 270.363 80.0315 269.755 80.122Z" fill="#727272"/>
<path d="M269.747 82.2832C268.664 82.4435 269.132 84.0054 269.817 83.8952C270.72 83.7504 270.354 82.1913 269.747 82.2832Z" fill="#727272"/>
<path d="M269.574 77.9266C268.49 78.0869 268.959 79.6497 269.644 79.5386C270.546 79.3947 270.181 77.8366 269.574 77.9266Z" fill="#727272"/>
<path d="M269.519 76.8029C269.031 76.5896 269.334 78.1745 269.644 78.3015C270.049 78.4693 269.792 76.9229 269.519 76.8029Z" fill="#727272"/>
<path d="M269.773 79.1889C269.32 78.9086 269.392 80.5211 269.683 80.6912C270.06 80.9148 270.027 79.3464 269.773 79.1889Z" fill="#727272"/>
<path d="M269.92 81.5737C269.468 81.2933 269.542 82.9058 269.832 83.076C270.207 83.2996 270.173 81.7316 269.92 81.5737Z" fill="#727272"/>
<path d="M270.401 91.2059C269.314 91.3155 269.708 92.8985 270.4 92.8207C271.305 92.719 271.013 91.1444 270.401 91.2059Z" fill="#727272"/>
<path d="M270.293 93.3641C269.208 93.4729 269.599 95.0558 270.291 94.9771C271.196 94.8758 270.904 93.3018 270.293 93.3641Z" fill="#727272"/>
<path d="M270.322 89.0047C269.235 89.1135 269.628 90.6964 270.319 90.6177C271.225 90.5164 270.933 88.9428 270.322 89.0047Z" fill="#727272"/>
<path d="M270.243 86.8036C269.156 86.9132 269.55 88.4962 270.24 88.4175C271.147 88.3162 270.855 86.7412 270.243 86.8036Z" fill="#727272"/>
<path d="M270.02 84.3699C268.936 84.4796 269.327 86.0626 270.018 85.9848C270.923 85.8826 270.631 84.3081 270.02 84.3699Z" fill="#727272"/>
<path d="M269.974 83.4339C269.498 83.1977 269.726 84.7952 270.028 84.9372C270.425 85.1228 270.241 83.5657 269.974 83.4339Z" fill="#727272"/>
<path d="M270.053 85.6341C269.577 85.3979 269.806 86.9954 270.108 87.1374C270.505 87.3231 270.32 85.7668 270.053 85.6341Z" fill="#727272"/>
<path d="M270.321 87.8802C269.844 87.644 270.073 89.2415 270.376 89.3835C270.772 89.5696 270.589 88.0129 270.321 87.8802Z" fill="#727272"/>
<path d="M270.463 90.2747C270.024 89.9733 270.023 91.5877 270.302 91.7705C270.668 92.0114 270.708 90.4444 270.463 90.2747Z" fill="#727272"/>
<path d="M270.497 92.6655C270.059 92.3632 270.059 93.9776 270.338 94.1604C270.704 94.4023 270.745 92.8338 270.497 92.6655Z" fill="#727272"/>
<path d="M270.679 100.058C269.594 100.15 269.96 101.739 270.653 101.672C271.559 101.584 271.292 100.005 270.679 100.058Z" fill="#727272"/>
<path d="M270.635 97.8548C269.546 97.9471 269.915 99.5367 270.607 99.4687C271.515 99.382 271.248 97.8027 270.635 97.8548Z" fill="#727272"/>
<path d="M270.45 95.4173C269.364 95.5106 269.733 97.0992 270.423 97.0321C271.33 96.9445 271.062 95.3648 270.45 95.4173Z" fill="#727272"/>
<path d="M270.418 94.4813C269.944 94.2375 270.149 95.8387 270.447 95.9845C270.843 96.1776 270.684 94.6177 270.418 94.4813Z" fill="#727272"/>
<path d="M270.464 96.6824C269.99 96.4387 270.195 98.0399 270.494 98.1857C270.889 98.3788 270.729 96.8188 270.464 96.6824Z" fill="#727272"/>
<path d="M270.695 98.9335C270.223 98.6893 270.427 100.29 270.727 100.437C271.121 100.629 270.961 99.069 270.695 98.9335Z" fill="#727272"/>
<path d="M267.285 56.4845C266.609 57.3433 268.019 58.1617 268.445 57.6077C269.001 56.8863 267.666 56.0017 267.285 56.4845Z" fill="#727272"/>
<path d="M268.592 58.1582C267.509 58.3185 267.977 59.8804 268.663 59.7702C269.566 59.6249 269.2 58.0663 268.592 58.1582Z" fill="#727272"/>
<path d="M265.371 56.8029C265.682 57.8534 267.164 57.169 266.958 56.5057C266.687 55.6324 265.196 56.2141 265.371 56.8029Z" fill="#727272"/>
<path d="M263.129 56.8029C263.44 57.8534 264.921 57.169 264.715 56.5057C264.445 55.6324 262.954 56.2141 263.129 56.8029Z" fill="#727272"/>
<path d="M264.252 56.6798C263.999 57.1485 265.603 56.9798 265.756 56.6802C265.957 56.2912 264.395 56.4177 264.252 56.6798Z" fill="#727272"/>
<path d="M266.448 56.5221C266.098 56.9224 267.7 57.1169 267.915 56.8577C268.198 56.523 266.645 56.2971 266.448 56.5221Z" fill="#727272"/>
<path d="M268.275 57.288C267.759 57.1596 268.324 58.6722 268.651 58.7449C269.076 58.8433 268.565 57.3611 268.275 57.288Z" fill="#727272"/>
<path d="M269.248 67.0819C268.161 67.1915 268.554 68.7745 269.246 68.6967C270.151 68.595 269.859 67.02 269.248 67.0819Z" fill="#727272"/>
<path d="M269.138 69.2391C268.053 69.3479 268.445 70.9308 269.136 70.8521C270.042 70.7504 269.749 69.1763 269.138 69.2391Z" fill="#727272"/>
<path d="M269.167 64.8797C268.08 64.9885 268.474 66.5714 269.165 66.4927C270.071 66.3914 269.779 64.8178 269.167 64.8797Z" fill="#727272"/>
<path d="M269.089 62.6786C268.001 62.7883 268.395 64.3712 269.086 64.2925C269.993 64.1912 269.7 62.6158 269.089 62.6786Z" fill="#727272"/>
<path d="M268.865 60.245C267.781 60.3547 268.172 61.9376 268.864 61.8598C269.769 61.7576 269.476 60.1826 268.865 60.245Z" fill="#727272"/>
<path d="M268.82 59.3089C268.342 59.0727 268.572 60.6702 268.873 60.8122C269.27 60.9979 269.086 59.4402 268.82 59.3089Z" fill="#727272"/>
<path d="M268.899 61.5091C268.422 61.2729 268.651 62.8704 268.953 63.0124C269.35 63.198 269.166 61.6423 268.899 61.5091Z" fill="#727272"/>
<path d="M269.166 63.7552C268.689 63.519 268.918 65.1165 269.221 65.2585C269.617 65.4446 269.434 63.8884 269.166 63.7552Z" fill="#727272"/>
<path d="M269.308 66.1497C268.87 65.8483 268.868 67.4627 269.148 67.6455C269.514 67.8864 269.554 66.3199 269.308 66.1497Z" fill="#727272"/>
<path d="M269.343 68.5405C268.904 68.2382 268.904 69.8526 269.183 70.0354C269.55 70.2773 269.59 68.7088 269.343 68.5405Z" fill="#727272"/>
<path d="M269.524 75.9329C268.439 76.0252 268.805 77.6138 269.498 77.5468C270.405 77.4587 270.137 75.8809 269.524 75.9329Z" fill="#727272"/>
<path d="M269.48 73.7298C268.391 73.8221 268.761 75.4116 269.452 75.3437C270.36 75.2574 270.093 73.6777 269.48 73.7298Z" fill="#727272"/>
<path d="M269.295 71.2923C268.21 71.3856 268.578 72.9741 269.268 72.9071C270.175 72.8195 269.907 71.2402 269.295 71.2923Z" fill="#727272"/>
<path d="M269.264 70.3563C268.79 70.1125 268.995 71.7133 269.293 71.8596C269.689 72.0532 269.53 70.4927 269.264 70.3563Z" fill="#727272"/>
<path d="M269.309 72.5575C268.836 72.3133 269.041 73.915 269.339 74.0608C269.734 74.2539 269.574 72.6939 269.309 72.5575Z" fill="#727272"/>
<path d="M269.541 74.8075C269.069 74.5633 269.273 76.1636 269.572 76.3108C269.966 76.5035 269.807 74.9435 269.541 74.8075Z" fill="#727272"/>
<path d="M271.954 125.66C271.52 125.352 271.495 126.965 271.77 127.153C272.132 127.4 272.198 125.833 271.954 125.66Z" fill="#727272"/>
<path d="M271.953 128.05C271.52 127.742 271.494 129.355 271.769 129.543C272.132 129.789 272.196 128.223 271.953 128.05Z" fill="#727272"/>
<path d="M271.989 137.826C270.898 137.896 271.237 139.493 271.928 139.439C272.836 139.37 272.601 137.787 271.989 137.826Z" fill="#727272"/>
<path d="M271.801 139.978C270.71 140.047 271.047 141.645 271.738 141.59C272.649 141.522 272.415 139.938 271.801 139.978Z" fill="#727272"/>
<path d="M271.989 135.623C270.898 135.691 271.237 137.289 271.927 137.234C272.836 137.167 272.601 135.583 271.989 135.623Z" fill="#727272"/>
<path d="M271.99 133.421C270.899 133.491 271.238 135.087 271.929 135.034C272.838 134.965 272.603 133.381 271.99 133.421Z" fill="#727272"/>
<path d="M271.854 130.98C270.763 131.05 271.102 132.646 271.795 132.592C272.702 132.525 272.467 130.941 271.854 130.98Z" fill="#727272"/>
<path d="M271.842 130.043C271.376 129.789 271.545 131.393 271.842 131.546C272.233 131.747 272.105 130.184 271.842 130.043Z" fill="#727272"/>
<path d="M271.842 132.245C271.375 131.992 271.545 133.596 271.842 133.749C272.232 133.95 272.105 132.387 271.842 132.245Z" fill="#727272"/>
<path d="M272.029 134.5C271.56 134.247 271.731 135.85 272.028 136.004C272.418 136.204 272.291 134.642 272.029 134.5Z" fill="#727272"/>
<path d="M272.082 136.899C271.656 136.581 271.596 138.193 271.868 138.388C272.225 138.641 272.322 137.076 272.082 136.899Z" fill="#727272"/>
<path d="M272.032 139.287C271.605 138.97 271.545 140.584 271.818 140.777C272.174 141.03 272.272 139.465 272.032 139.287Z" fill="#727272"/>
<path d="M271.753 149.037C270.661 149.107 271.001 150.703 271.693 150.65C272.602 150.58 272.366 148.997 271.753 149.037Z" fill="#727272"/>
<path d="M271.754 146.833C270.663 146.901 271.002 148.499 271.693 148.445C272.602 148.377 272.366 146.793 271.754 146.833Z" fill="#727272"/>
<path d="M271.754 144.631C270.663 144.7 271.002 146.297 271.694 146.243C272.602 146.175 272.367 144.59 271.754 144.631Z" fill="#727272"/>
<path d="M271.62 142.19C270.529 142.26 270.867 143.856 271.559 143.803C272.467 143.735 272.232 142.151 271.62 142.19Z" fill="#727272"/>
<path d="M271.608 141.252C271.14 140.999 271.307 142.603 271.608 142.757C271.998 142.956 271.871 141.395 271.608 141.252Z" fill="#727272"/>
<path d="M271.607 143.456C271.14 143.202 271.307 144.807 271.607 144.959C271.997 145.161 271.87 143.597 271.607 143.456Z" fill="#727272"/>
<path d="M271.793 145.709C271.326 145.455 271.496 147.06 271.793 147.214C272.182 147.415 272.056 145.851 271.793 145.709Z" fill="#727272"/>
<path d="M271.848 148.108C271.421 147.789 271.36 149.403 271.633 149.596C271.99 149.851 272.088 148.286 271.848 148.108Z" fill="#727272"/>
<path d="M271.776 150.288C271.349 149.969 271.288 151.583 271.561 151.776C271.918 152.031 272.016 150.465 271.776 150.288Z" fill="#727272"/>
<path d="M271.675 151.028C270.589 151.138 270.983 152.721 271.674 152.643C272.579 152.541 272.287 150.966 271.675 151.028Z" fill="#727272"/>
<path d="M271.566 153.185C270.481 153.294 270.873 154.877 271.564 154.798C272.47 154.697 272.178 153.123 271.566 153.185Z" fill="#727272"/>
<path d="M271.77 152.487C271.332 152.184 271.332 153.799 271.611 153.982C271.977 154.224 272.017 152.655 271.77 152.487Z" fill="#727272"/>
<path d="M271.998 162.08C270.909 162.174 271.278 163.761 271.969 163.694C272.877 163.608 272.609 162.028 271.998 162.08Z" fill="#727272"/>
<path d="M271.856 164.236C270.768 164.329 271.137 165.918 271.828 165.85C272.736 165.762 272.468 164.183 271.856 164.236Z" fill="#727272"/>
<path d="M271.953 159.878C270.868 159.971 271.234 161.559 271.926 161.492C272.833 161.404 272.565 159.826 271.953 159.878Z" fill="#727272"/>
<path d="M271.907 157.675C270.818 157.767 271.188 159.357 271.88 159.289C272.787 159.202 272.521 157.623 271.907 157.675Z" fill="#727272"/>
<path d="M271.723 155.239C270.637 155.332 271.006 156.92 271.696 156.853C272.603 156.766 272.335 155.187 271.723 155.239Z" fill="#727272"/>
<path d="M271.691 154.302C271.218 154.058 271.423 155.659 271.721 155.805C272.116 155.998 271.957 154.438 271.691 154.302Z" fill="#727272"/>
<path d="M271.737 156.504C271.263 156.26 271.469 157.861 271.767 158.007C272.162 158.2 272.002 156.64 271.737 156.504Z" fill="#727272"/>
<path d="M271.969 158.754C271.497 158.51 271.701 160.11 272.001 160.257C272.394 160.45 272.235 158.89 271.969 158.754Z" fill="#727272"/>
<path d="M272.073 161.15C271.639 160.842 271.614 162.455 271.889 162.643C272.252 162.89 272.317 161.323 272.073 161.15Z" fill="#727272"/>
<path d="M272.072 163.541C271.639 163.233 271.613 164.846 271.888 165.034C272.252 165.28 272.315 163.714 272.072 163.541Z" fill="#727272"/>
<path d="M272.108 173.316C271.017 173.386 271.356 174.983 272.047 174.929C272.955 174.861 272.72 173.277 272.108 173.316Z" fill="#727272"/>
<path d="M271.92 175.47C270.83 175.538 271.166 177.136 271.857 177.081C272.768 177.013 272.534 175.429 271.92 175.47Z" fill="#727272"/>
<path d="M272.108 171.114C271.017 171.182 271.356 172.78 272.046 172.726C272.955 172.659 272.72 171.075 272.108 171.114Z" fill="#727272"/>
<path d="M272.109 168.911C271.018 168.981 271.358 170.577 272.049 170.524C272.957 170.455 272.722 168.872 272.109 168.911Z" fill="#727272"/>
<path d="M271.973 166.471C270.883 166.541 271.222 168.137 271.914 168.083C272.821 168.016 272.586 166.432 271.973 166.471Z" fill="#727272"/>
<path d="M271.962 165.534C271.495 165.28 271.665 166.884 271.962 167.037C272.352 167.238 272.225 165.675 271.962 165.534Z" fill="#727272"/>
<path d="M271.961 167.736C271.494 167.483 271.664 169.087 271.961 169.24C272.351 169.44 272.224 167.877 271.961 167.736Z" fill="#727272"/>
<path d="M272.148 169.99C271.679 169.737 271.85 171.34 272.147 171.494C272.537 171.695 272.41 170.132 272.148 169.99Z" fill="#727272"/>
<path d="M272.201 172.389C271.775 172.071 271.715 173.684 271.987 173.878C272.344 174.131 272.441 172.567 272.201 172.389Z" fill="#727272"/>
<path d="M272.151 174.778C271.724 174.462 271.664 176.075 271.936 176.268C272.293 176.521 272.39 174.956 272.151 174.778Z" fill="#727272"/>
<path d="M271.872 184.527C270.781 184.597 271.12 186.194 271.812 186.14C272.721 186.071 272.485 184.487 271.872 184.527Z" fill="#727272"/>
<path d="M271.873 182.323C270.782 182.391 271.121 183.989 271.812 183.935C272.721 183.868 272.485 182.284 271.873 182.323Z" fill="#727272"/>
<path d="M271.873 180.121C270.783 180.19 271.121 181.787 271.813 181.733C272.721 181.665 272.487 180.081 271.873 180.121Z" fill="#727272"/>
<path d="M271.739 177.68C270.648 177.75 270.987 179.346 271.678 179.293C272.586 179.225 272.351 177.641 271.739 177.68Z" fill="#727272"/>
<path d="M271.726 176.743C271.259 176.49 271.426 178.094 271.726 178.248C272.116 178.448 271.989 176.886 271.726 176.743Z" fill="#727272"/>
<path d="M271.726 178.946C271.259 178.692 271.426 180.297 271.726 180.449C272.116 180.65 271.989 179.087 271.726 178.946Z" fill="#727272"/>
<path d="M271.912 181.199C271.445 180.945 271.615 182.55 271.912 182.704C272.302 182.905 272.175 181.341 271.912 181.199Z" fill="#727272"/>
<path d="M271.967 183.599C271.54 183.28 271.48 184.894 271.752 185.087C272.11 185.342 272.208 183.777 271.967 183.599Z" fill="#727272"/>
<path d="M271.895 185.779C271.469 185.46 271.408 187.074 271.681 187.268C272.037 187.523 272.135 185.956 271.895 185.779Z" fill="#727272"/>
<path d="M271.747 186.38C270.66 186.489 271.054 188.072 271.746 187.995C272.651 187.893 272.359 186.318 271.747 186.38Z" fill="#727272"/>
<path d="M271.639 188.537C270.554 188.645 270.945 190.228 271.637 190.149C272.542 190.049 272.249 188.474 271.639 188.537Z" fill="#727272"/>
<path d="M271.843 187.838C271.405 187.536 271.405 189.15 271.683 189.333C272.05 189.576 272.09 188.007 271.843 187.838Z" fill="#727272"/>
<path d="M272.07 197.433C270.981 197.526 271.35 199.114 272.041 199.047C272.95 198.96 272.681 197.38 272.07 197.433Z" fill="#727272"/>
<path d="M271.928 199.588C270.839 199.681 271.208 201.27 271.899 201.201C272.808 201.115 272.54 199.536 271.928 199.588Z" fill="#727272"/>
<path d="M272.023 195.231C270.938 195.323 271.304 196.912 271.997 196.844C272.904 196.757 272.637 195.179 272.023 195.231Z" fill="#727272"/>
<path d="M271.979 193.028C270.89 193.12 271.26 194.71 271.952 194.641C272.859 194.555 272.592 192.976 271.979 193.028Z" fill="#727272"/>
<path d="M271.794 190.591C270.709 190.684 271.077 192.273 271.767 192.205C272.674 192.118 272.406 190.539 271.794 190.591Z" fill="#727272"/>
<path d="M271.763 189.654C271.289 189.41 271.495 191.012 271.792 191.158C272.188 191.351 272.029 189.791 271.763 189.654Z" fill="#727272"/>
<path d="M271.809 191.855C271.335 191.611 271.54 193.213 271.839 193.359C272.234 193.552 272.073 191.992 271.809 191.855Z" fill="#727272"/>
<path d="M272.04 194.106C271.568 193.862 271.772 195.462 272.071 195.61C272.465 195.802 272.306 194.242 272.04 194.106Z" fill="#727272"/>
<path d="M272.145 196.503C271.711 196.195 271.687 197.807 271.961 197.996C272.324 198.242 272.389 196.676 272.145 196.503Z" fill="#727272"/>
<path d="M272.143 198.892C271.71 198.585 271.684 200.198 271.959 200.386C272.323 200.632 272.386 199.065 272.143 198.892Z" fill="#727272"/>
<path d="M272.179 208.668C271.088 208.737 271.426 210.336 272.118 210.28C273.027 210.212 272.791 208.628 272.179 208.668Z" fill="#727272"/>
<path d="M271.993 210.821C270.902 210.889 271.239 212.488 271.93 212.433C272.84 212.365 272.606 210.78 271.993 210.821Z" fill="#727272"/>
<path d="M272.18 206.466C271.089 206.534 271.428 208.132 272.119 208.077C273.027 208.01 272.793 206.426 272.18 206.466Z" fill="#727272"/>
<path d="M272.181 204.263C271.089 204.333 271.429 205.93 272.12 205.876C273.029 205.808 272.794 204.224 272.181 204.263Z" fill="#727272"/>
<path d="M272.045 201.823C270.954 201.892 271.294 203.488 271.986 203.435C272.894 203.368 272.659 201.784 272.045 201.823Z" fill="#727272"/>
<path d="M272.034 200.886C271.568 200.632 271.737 202.236 272.034 202.389C272.424 202.589 272.296 201.027 272.034 200.886Z" fill="#727272"/>
<path d="M272.034 203.087C271.567 202.835 271.736 204.439 272.033 204.592C272.423 204.792 272.296 203.23 272.034 203.087Z" fill="#727272"/>
<path d="M272.219 205.341C271.75 205.089 271.921 206.692 272.218 206.846C272.608 207.046 272.482 205.483 272.219 205.341Z" fill="#727272"/>
<path d="M272.273 207.742C271.847 207.424 271.787 209.036 272.059 209.23C272.416 209.484 272.513 207.919 272.273 207.742Z" fill="#727272"/>
<path d="M272.222 210.13C271.795 209.813 271.735 211.427 272.008 211.62C272.365 211.872 272.462 210.307 272.222 210.13Z" fill="#727272"/>
<path d="M271.944 219.879C270.853 219.948 271.192 221.546 271.884 221.491C272.793 221.422 272.558 219.839 271.944 219.879Z" fill="#727272"/>
<path d="M271.945 217.676C270.855 217.744 271.193 219.342 271.884 219.287C272.794 219.221 272.558 217.636 271.945 217.676Z" fill="#727272"/>
<path d="M271.945 215.472C270.855 215.541 271.193 217.139 271.885 217.084C272.794 217.017 272.559 215.432 271.945 215.472Z" fill="#727272"/>
<path d="M271.811 213.033C270.72 213.102 271.059 214.698 271.751 214.645C272.659 214.578 272.424 212.994 271.811 213.033Z" fill="#727272"/>
<path d="M271.799 212.094C271.331 211.842 271.499 213.446 271.799 213.599C272.189 213.799 272.061 212.237 271.799 212.094Z" fill="#727272"/>
<path d="M271.799 214.299C271.332 214.045 271.499 215.65 271.799 215.802C272.188 216.003 272.061 214.44 271.799 214.299Z" fill="#727272"/>
<path d="M271.984 216.552C271.516 216.298 271.686 217.903 271.984 218.057C272.373 218.257 272.247 216.693 271.984 216.552Z" fill="#727272"/>
<path d="M272.039 218.951C271.612 218.632 271.552 220.246 271.825 220.439C272.182 220.694 272.28 219.128 272.039 218.951Z" fill="#727272"/>
<path d="M271.967 221.131C271.54 220.811 271.48 222.427 271.752 222.62C272.11 222.874 272.208 221.308 271.967 221.131Z" fill="#727272"/>
<path d="M271.903 221.87C270.815 221.979 271.209 223.562 271.901 223.484C272.806 223.383 272.514 221.809 271.903 221.87Z" fill="#727272"/>
<path d="M271.794 224.027C270.71 224.136 271.101 225.718 271.792 225.64C272.698 225.539 272.405 223.964 271.794 224.027Z" fill="#727272"/>
<path d="M271.999 223.329C271.56 223.026 271.56 224.641 271.839 224.823C272.206 225.065 272.246 223.497 271.999 223.329Z" fill="#727272"/>
<path d="M272.227 232.923C271.138 233.016 271.508 234.605 272.198 234.537C273.107 234.45 272.838 232.87 272.227 232.923Z" fill="#727272"/>
<path d="M272.083 235.078C270.995 235.172 271.364 236.76 272.055 236.691C272.963 236.605 272.696 235.026 272.083 235.078Z" fill="#727272"/>
<path d="M272.18 230.721C271.095 230.813 271.461 232.402 272.154 232.334C273.061 232.247 272.793 230.669 272.18 230.721Z" fill="#727272"/>
<path d="M272.136 228.518C271.047 228.61 271.417 230.2 272.108 230.132C273.016 230.045 272.749 228.466 272.136 228.518Z" fill="#727272"/>
<path d="M271.951 226.081C270.866 226.174 271.234 227.763 271.924 227.696C272.831 227.609 272.563 226.029 271.951 226.081Z" fill="#727272"/>
<path d="M271.92 225.144C271.446 224.9 271.651 226.502 271.949 226.648C272.345 226.841 272.186 225.281 271.92 225.144Z" fill="#727272"/>
<path d="M271.965 227.346C271.492 227.101 271.697 228.703 271.995 228.849C272.391 229.042 272.23 227.482 271.965 227.346Z" fill="#727272"/>
<path d="M272.197 229.597C271.725 229.352 271.929 230.953 272.228 231.1C272.622 231.292 272.463 229.732 272.197 229.597Z" fill="#727272"/>
<path d="M272.302 231.993C271.868 231.685 271.843 233.298 272.118 233.486C272.481 233.733 272.545 232.166 272.302 231.993Z" fill="#727272"/>
<path d="M272.3 234.384C271.866 234.076 271.841 235.689 272.116 235.877C272.48 236.123 272.542 234.557 272.3 234.384Z" fill="#727272"/>
<path d="M272.335 244.159C271.245 244.228 271.583 245.827 272.274 245.771C273.183 245.703 272.948 244.12 272.335 244.159Z" fill="#727272"/>
<path d="M272.148 246.311C271.057 246.379 271.394 247.978 272.085 247.923C272.996 247.855 272.762 246.271 272.148 246.311Z" fill="#727272"/>
<path d="M272.335 241.957C271.245 242.025 271.584 243.623 272.274 243.568C273.183 243.501 272.949 241.917 272.335 241.957Z" fill="#727272"/>
<path d="M272.337 239.754C271.246 239.823 271.585 241.421 272.276 241.366C273.185 241.298 272.95 239.714 272.337 239.754Z" fill="#727272"/>
<path d="M272.201 237.314C271.11 237.383 271.449 238.98 272.141 238.926C273.049 238.859 272.814 237.275 272.201 237.314Z" fill="#727272"/>
<path d="M272.189 236.377C271.723 236.123 271.892 237.727 272.189 237.88C272.579 238.08 272.452 236.518 272.189 236.377Z" fill="#727272"/>
<path d="M272.19 238.578C271.723 238.325 271.893 239.929 272.19 240.082C272.58 240.283 272.452 238.72 272.19 238.578Z" fill="#727272"/>
<path d="M272.376 240.833C271.907 240.58 272.077 242.184 272.375 242.337C272.765 242.537 272.639 240.974 272.376 240.833Z" fill="#727272"/>
<path d="M272.43 243.232C272.004 242.914 271.944 244.527 272.216 244.721C272.573 244.974 272.67 243.409 272.43 243.232Z" fill="#727272"/>
<path d="M272.379 245.62C271.952 245.303 271.892 246.917 272.165 247.11C272.522 247.363 272.619 245.798 272.379 245.62Z" fill="#727272"/>
<path d="M272.1 255.369C271.008 255.438 271.348 257.036 272.04 256.981C272.949 256.912 272.713 255.329 272.1 255.369Z" fill="#727272"/>
<path d="M272.1 253.166C271.01 253.234 271.348 254.833 272.04 254.777C272.949 254.711 272.713 253.126 272.1 253.166Z" fill="#727272"/>
<path d="M272.101 250.964C271.01 251.033 271.349 252.63 272.041 252.575C272.949 252.508 272.715 250.923 272.101 250.964Z" fill="#727272"/>
<path d="M271.968 248.523C270.877 248.592 271.215 250.189 271.907 250.136C272.815 250.068 272.58 248.484 271.968 248.523Z" fill="#727272"/>
<path d="M271.956 247.586C271.488 247.333 271.656 248.937 271.956 249.091C272.346 249.29 272.218 247.728 271.956 247.586Z" fill="#727272"/>
<path d="M271.954 249.789C271.486 249.535 271.654 251.14 271.954 251.292C272.343 251.494 272.216 249.93 271.954 249.789Z" fill="#727272"/>
<path d="M272.14 252.042C271.673 251.788 271.843 253.394 272.14 253.547C272.529 253.747 272.403 252.183 272.14 252.042Z" fill="#727272"/>
<path d="M272.195 254.441C271.768 254.122 271.707 255.736 271.98 255.929C272.337 256.184 272.435 254.619 272.195 254.441Z" fill="#727272"/>
<path d="M272.123 256.621C271.696 256.301 271.635 257.917 271.908 258.11C272.265 258.365 272.363 256.798 272.123 256.621Z" fill="#727272"/>
<path d="M272.059 257.36C270.972 257.469 271.366 259.052 272.058 258.975C272.963 258.874 272.671 257.299 272.059 257.36Z" fill="#727272"/>
<path d="M271.951 259.518C270.866 259.627 271.257 261.21 271.949 261.131C272.855 261.03 272.562 259.456 271.951 259.518Z" fill="#727272"/>
<path d="M272.154 258.82C271.715 258.517 271.715 260.132 271.994 260.314C272.361 260.557 272.401 258.988 272.154 258.82Z" fill="#727272"/>
<path d="M272.382 268.413C271.293 268.506 271.662 270.094 272.353 270.027C273.262 269.941 272.993 268.361 272.382 268.413Z" fill="#727272"/>
<path d="M272.24 270.569C271.151 270.662 271.52 272.251 272.211 272.182C273.12 272.095 272.853 270.516 272.24 270.569Z" fill="#727272"/>
<path d="M272.336 266.211C271.251 266.304 271.617 267.892 272.309 267.825C273.216 267.737 272.949 266.159 272.336 266.211Z" fill="#727272"/>
<path d="M272.292 264.008C271.203 264.1 271.572 265.69 272.264 265.622C273.171 265.536 272.905 263.957 272.292 264.008Z" fill="#727272"/>
<path d="M272.107 261.572C271.021 261.664 271.389 263.253 272.079 263.186C272.986 263.099 272.718 261.519 272.107 261.572Z" fill="#727272"/>
<path d="M272.075 260.635C271.602 260.39 271.807 261.992 272.104 262.138C272.501 262.331 272.341 260.771 272.075 260.635Z" fill="#727272"/>
<path d="M272.121 262.837C271.647 262.593 271.852 264.194 272.151 264.34C272.546 264.533 272.386 262.973 272.121 262.837Z" fill="#727272"/>
<path d="M272.352 265.087C271.88 264.843 272.084 266.443 272.383 266.59C272.777 266.782 272.618 265.222 272.352 265.087Z" fill="#727272"/>
<path d="M272.458 267.483C272.024 267.175 271.999 268.788 272.273 268.976C272.636 269.223 272.701 267.656 272.458 267.483Z" fill="#727272"/>
<path d="M272.455 269.874C272.022 269.567 271.996 271.179 272.271 271.368C272.635 271.613 272.698 270.047 272.455 269.874Z" fill="#727272"/>
<path d="M272.492 279.649C271.401 279.719 271.74 281.317 272.431 281.261C273.34 281.194 273.105 279.61 272.492 279.649Z" fill="#727272"/>
<path d="M272.305 281.802C271.214 281.87 271.55 283.468 272.242 283.413C273.152 283.345 272.918 281.761 272.305 281.802Z" fill="#727272"/>
<path d="M272.492 277.447C271.401 277.515 271.74 279.113 272.431 279.059C273.339 278.991 273.105 277.408 272.492 277.447Z" fill="#727272"/>
<path d="M272.493 275.244C271.401 275.314 271.741 276.911 272.432 276.856C273.341 276.788 273.106 275.205 272.493 275.244Z" fill="#727272"/>
<path d="M272.358 272.804C271.266 272.873 271.606 274.47 272.298 274.416C273.207 274.349 272.971 272.765 272.358 272.804Z" fill="#727272"/>
<path d="M272.346 271.867C271.88 271.613 272.049 273.218 272.346 273.37C272.736 273.57 272.608 272.008 272.346 271.867Z" fill="#727272"/>
<path d="M272.346 274.069C271.879 273.816 272.048 275.42 272.345 275.573C272.735 275.774 272.608 274.211 272.346 274.069Z" fill="#727272"/>
<path d="M272.531 276.322C272.062 276.069 272.233 277.672 272.531 277.826C272.92 278.027 272.794 276.464 272.531 276.322Z" fill="#727272"/>
<path d="M272.586 278.722C272.159 278.404 272.1 280.017 272.371 280.211C272.729 280.464 272.825 278.9 272.586 278.722Z" fill="#727272"/>
<path d="M272.535 281.111C272.108 280.793 272.047 282.407 272.32 282.6C272.677 282.853 272.775 281.288 272.535 281.111Z" fill="#727272"/>
<path d="M272.257 290.859C271.165 290.929 271.505 292.526 272.197 292.471C273.106 292.403 272.87 290.819 272.257 290.859Z" fill="#727272"/>
<path d="M272.257 288.656C271.167 288.724 271.505 290.323 272.197 290.268C273.106 290.201 272.87 288.617 272.257 288.656Z" fill="#727272"/>
<path d="M272.257 286.454C271.167 286.523 271.505 288.121 272.197 288.065C273.106 287.998 272.871 286.414 272.257 286.454Z" fill="#727272"/>
<path d="M272.123 284.014C271.032 284.083 271.371 285.68 272.063 285.627C272.971 285.559 272.736 283.975 272.123 284.014Z" fill="#727272"/>
<path d="M272.111 283.076C271.643 282.823 271.811 284.427 272.111 284.581C272.501 284.78 272.374 283.218 272.111 283.076Z" fill="#727272"/>
<path d="M272.111 285.279C271.643 285.025 271.811 286.631 272.111 286.782C272.5 286.984 272.373 285.42 272.111 285.279Z" fill="#727272"/>
<path d="M272.296 287.533C271.828 287.279 271.998 288.885 272.296 289.039C272.685 289.238 272.559 287.675 272.296 287.533Z" fill="#727272"/>
<path d="M272.35 289.932C271.923 289.613 271.863 291.227 272.135 291.42C272.493 291.675 272.591 290.11 272.35 289.932Z" fill="#727272"/>
<path d="M272.279 292.111C271.852 291.792 271.792 293.407 272.065 293.6C272.422 293.855 272.52 292.289 272.279 292.111Z" fill="#727272"/>
<path d="M123.215 52.2389C122.671 52.3528 120.935 56.1127 121.485 59.0808C122.036 62.0489 123.619 68.9236 124.529 70.0561C125.441 71.1886 126.583 73.2145 126.583 73.2145C126.583 73.2145 122.564 75.3731 121.924 76.7859C121.924 76.7859 121.926 77.3644 122.416 77.2875C122.907 77.2097 127.192 76.9763 127.394 77.4577C127.595 77.9391 127.986 80.4342 128.051 80.76C128.116 81.0867 127.936 82.5609 127.874 83.0902C127.848 83.31 126.534 85.4241 126.774 85.9027C127.018 86.3808 128.796 86.3981 129.788 86.3742C130.779 86.3522 136.064 82.8108 136.8 82.1602C137.538 81.5091 137.744 73.6331 137.744 73.6331C137.744 73.6331 136.241 63.338 136.61 63.3169C136.979 63.2958 139.472 62.2927 140.272 61.365C141.073 60.4374 140.775 55.9495 140.397 55.2328C140.014 54.5156 131.362 50.5205 123.215 52.2389Z" fill="#36627A"/>
<path d="M127.255 80.6456C127.255 80.6456 128.111 80.4717 128.16 80.5786C128.21 80.6859 128.397 80.9821 128.357 81.5545C128.316 82.1259 128.535 82.8543 128.084 82.9087C127.633 82.9631 127.323 82.9645 127.323 82.9645C127.323 82.9645 126.571 84.8203 125.412 85.3814C124.253 85.9434 123.474 85.7521 124.186 85.0171C124.898 84.2821 126.237 83.4178 126.109 83.1164C125.982 82.8159 123.736 83.1229 123.736 83.1229L123.756 81.3084C123.756 81.3084 125.472 81.1434 125.558 81.1748C125.643 81.2062 126.29 80.7271 125.799 80.5157C125.307 80.3034 123.193 80.5186 123.53 79.7695C123.868 79.0204 123.786 79.027 124.585 78.9272C125.385 78.8254 126.407 79.2201 126.861 79.7695C127.314 80.3179 127.255 80.6456 127.255 80.6456Z" fill="#6C808C"/>
<path d="M172.696 76.237L164.62 69.4786L130.739 67.5543C141.315 65.3798 161.352 62.1975 191.202 60.3571C212.647 59.0362 230.615 58.8979 238.926 59.3189C254.037 60.0857 264.204 59.2073 266.786 58.9443C266.347 59.2214 265.702 59.6582 265.312 60.0211C265.015 60.2953 264.754 60.6679 264.388 61.1831C263.652 62.227 262.527 63.7345 260.042 66.0782L259.794 66.3042C243.207 74.3864 220.721 76.7676 204.573 77.2265C187.467 77.7136 173.418 76.312 172.696 76.237Z" fill="#FF0000"/>
<path d="M191.585 49.1799C191.441 48.8874 191.325 48.668 191.233 48.503C191.186 48.421 191.144 48.3525 191.109 48.2949C190.929 48.0085 190.87 48.0075 190.834 48.0066L190.731 48.0704C190.683 48.1622 190.629 48.2611 190.566 48.3638C190.524 48.4322 190.479 48.503 190.432 48.5752C190.408 48.6108 190.384 48.6474 190.362 48.6839C189.707 49.6341 188.621 50.7516 187.969 50.58C187.658 50.4975 187.471 50.2871 187.396 49.9336C187.386 49.8924 187.381 49.8493 187.375 49.8052C187.37 49.7597 187.365 49.7138 187.365 49.6646C187.325 48.4046 188.449 45.9352 189.924 44.3607C190.151 44.1183 190.387 43.8975 190.628 43.7054C190.762 43.598 190.914 43.4897 191.075 43.3979C191.333 43.2507 191.612 43.1452 191.871 43.1583C191.969 43.163 192.064 43.1846 192.156 43.2268C192.3 43.2933 192.396 43.4063 192.449 43.5708C192.483 43.6796 192.498 43.8043 192.498 43.9383C192.488 44.8791 191.688 46.3111 191.677 46.3275L191.617 46.4344L192.925 46.8108L191.585 49.1799ZM191.746 44.5266C191.742 44.3827 191.706 44.2636 191.626 44.183C191.61 44.1666 191.593 44.1521 191.573 44.139C191.524 44.1066 191.466 44.0902 191.406 44.0902C191.362 44.0902 191.317 44.0996 191.265 44.1179C190.914 44.243 190.409 44.7877 189.901 45.4861L189.878 45.4594L189.855 45.4322L189.411 46.2052C189.19 46.5488 188.979 46.906 188.792 47.2529C188.478 47.8313 188.228 48.3816 188.101 48.795C188.03 49.0304 187.998 49.2202 188.006 49.365C188.008 49.4011 188.015 49.4344 188.02 49.4658C188.04 49.5572 188.083 49.6252 188.147 49.6693C188.176 49.6875 188.209 49.6969 188.242 49.6969C188.643 49.6969 189.939 48.1271 190.478 47.3597C190.497 47.3311 190.516 47.3044 190.534 47.2777C190.566 47.2257 190.601 47.1783 190.623 47.1371C190.652 47.0958 190.672 47.0597 190.684 47.0311C190.7 47.0058 190.719 46.9744 190.744 46.9365C190.769 46.8994 190.793 46.8563 190.822 46.808C191.14 46.2797 191.761 45.1604 191.746 44.5266Z" fill="black"/>
<path d="M203.869 44.9658C203.352 45.0371 201.535 45.3324 199.958 45.6305C199.858 45.6493 199.758 45.6685 199.66 45.6882C199.608 45.698 199.558 45.7083 199.507 45.7182C199.29 45.7613 199.082 45.8058 198.883 45.8503C198.821 45.8639 198.76 45.878 198.701 45.8921C198.551 45.9272 198.408 45.9624 198.275 45.9971C198.221 46.0116 198.169 46.0257 198.119 46.0402C198.108 46.0421 198.094 46.0454 198.077 46.0491C197.592 46.1574 194.824 46.8019 194.411 47.5191C194.397 47.543 194.386 47.5622 194.378 47.5866C194.136 48.2808 193.547 52.1653 193.45 53.0316H191.795L191.216 51.5686L191.441 49.4907L191.529 49.4494C191.523 49.4396 191.519 49.4302 191.516 49.4203C191.511 49.4105 191.506 49.4007 191.502 49.3903L192.938 46.8675L192.96 46.8736L192.988 46.7813L193.009 46.7447L193.045 46.68L195.189 42.1697L195.518 42.0544L195.846 41.9391L196.806 36.6811C196.853 36.6811 196.919 36.6807 197 36.6807C197.562 36.6807 199.438 36.6966 199.977 36.901C200.427 37.0753 202.598 41.8603 203.869 44.9658Z" fill="#3FA9F5"/>
<path d="M190.699 46.4918C190.709 46.4918 190.716 46.4899 190.722 46.4885C190.741 46.4847 190.757 46.4744 190.771 46.4627C190.677 46.6272 190.581 46.7871 190.488 46.9343C190.437 47.0393 190.334 47.1954 190.205 47.3791C190.183 47.3294 190.176 47.2746 190.175 47.2258C190.174 47.1443 190.191 47.0791 190.191 47.0772L190.22 46.9774L189.303 46.7833L189.685 46.1135C189.76 46.0033 189.834 45.8955 189.91 45.79C190.467 46.4327 190.633 46.4936 190.699 46.4918Z" fill="black"/>
<path d="M190.745 46.9356C190.721 46.9736 190.702 47.005 190.686 47.0303C190.674 47.0593 190.654 47.0945 190.625 47.1362C190.599 47.1779 190.568 47.2248 190.536 47.2768C190.518 47.3031 190.499 47.3303 190.48 47.3589C189.943 48.1262 188.647 49.6961 188.244 49.6961C188.211 49.6961 188.176 49.6867 188.151 49.6684C188.083 49.6243 188.043 49.5573 188.023 49.465C188.015 49.4345 188.011 49.3998 188.009 49.3642C188.001 49.2193 188.036 49.0304 188.104 48.7942C188.231 48.3807 188.481 47.8304 188.797 47.252C188.983 46.9051 189.197 46.5479 189.414 46.2043L189.858 45.4314L189.881 45.4586L189.904 45.4853C190.412 44.7868 190.917 44.2422 191.268 44.1165C191.318 44.0987 191.365 44.0889 191.408 44.0889C191.473 44.0889 191.529 44.1057 191.576 44.1381C191.595 44.1512 191.613 44.1662 191.629 44.1822C191.709 44.2632 191.744 44.3823 191.749 44.5257C191.762 45.159 191.143 46.2789 190.824 46.8062C190.794 46.855 190.768 46.8986 190.745 46.9356ZM188.271 48.8504C188.119 49.3515 188.183 49.4743 188.21 49.4987C188.532 49.4387 189.499 48.3301 190.075 47.5497C189.97 47.4109 189.968 47.2356 189.984 47.1264L189.158 46.9525C188.767 47.6265 188.434 48.3118 188.271 48.8504ZM189.686 46.1139L189.302 46.7837L190.218 46.9778L190.189 47.0771C190.188 47.0786 190.172 47.1447 190.173 47.2257C190.173 47.2745 190.183 47.3293 190.202 47.379C190.331 47.1953 190.434 47.0392 190.485 46.9342C190.578 46.7865 190.674 46.6272 190.768 46.4626C190.754 46.4743 190.738 46.4842 190.72 46.4884C190.713 46.4893 190.709 46.4912 190.697 46.4917C190.631 46.4936 190.464 46.4322 189.906 45.79C189.834 45.8959 189.76 46.0037 189.686 46.1139ZM191.466 44.2993C191.452 44.2886 191.429 44.2829 191.405 44.2829C191.134 44.2829 190.593 44.8529 190.025 45.6297C190.269 45.9086 190.542 46.1921 190.66 46.2765C190.729 46.1762 190.853 46.1364 190.958 46.1242C191.392 45.3114 191.722 44.4709 191.466 44.2993Z" fill="black"/>
<path d="M130.187 66.1553L130.233 66.1262L130.201 63.4539L131.87 62.4348L139.172 62.5632L139.189 62.5562L142.214 61.4382L142.341 55.2001L147.8 53.8679L159.471 53.8356L160.086 52.7054L169.973 52.1561L170.038 51.1543L172.096 50.9453L171.91 50.7981C171.907 50.7953 171.62 50.5656 171.627 50.2862C171.632 50.1236 171.734 49.9684 171.937 49.8259C172.087 49.7195 172.529 49.5934 173.768 49.5934C174.909 49.5934 176.3 49.6961 177.317 49.7711C177.818 49.8081 178.216 49.8381 178.447 49.8451C179.141 49.8662 179.911 50.3898 180.33 50.8651C180.588 51.1571 180.725 51.4436 180.706 51.6451C180.645 52.2906 180.54 52.4462 180.075 52.5334L180.105 52.7387L186.93 52.0918L191.145 51.6948L191.721 53.1761H193.546L193.556 52.9567C193.566 52.9112 194.238 48.25 194.489 47.5267C194.686 46.9609 197.158 46.3 198.094 46.0951C199.745 45.632 203.19 45.1478 203.823 45.0615L203.833 45.085L203.901 45.0784C203.902 45.0784 204.037 45.0662 204.224 45.0662C204.752 45.0662 205.134 45.1534 205.307 45.3104C205.495 45.4829 205.497 45.8289 205.498 46.1636C205.5 46.4523 205.5 46.7246 205.608 46.9267C205.833 47.342 207.749 50.5829 207.831 50.7203L207.86 50.7643L207.908 50.7676C208.192 50.784 236 52.4279 242.204 53.1915C242.685 53.2506 243.233 53.3064 243.834 53.3903C253.222 54.7126 266.373 57.2495 266.373 57.2495C267.391 57.2673 267.792 57.587 267.829 57.8556C267.862 58.104 267.604 58.3534 267.182 58.4767C267.169 58.4832 266.887 58.6276 266.5 58.8564C264.794 59.0434 254.501 60.0615 238.422 59.2464C230.106 58.825 212.109 58.9909 190.658 60.3123C160.094 62.1962 141.232 65.2032 130.791 67.3928L130.333 67.4889C129.467 67.4771 129.159 67.3909 129.119 67.3426C129.105 67.3168 129.087 67.2906 129.068 67.2648C129.022 67.2034 129 67.1696 129.01 67.1218C129.046 66.9498 129.43 66.6334 130.187 66.1553Z" fill="white" stroke="white" stroke-miterlimit="10"/>
<path d="M172.418 76.3089L172.447 76.3117C172.563 76.3234 182.583 77.3692 196.382 77.3692C198.774 77.3692 201.275 77.3383 203.854 77.2647C219.933 76.8077 242.531 74.5802 259.125 66.5898C259.078 66.6311 259.037 66.6695 258.997 66.7098C258.424 67.2381 257.856 67.7992 257.252 68.3917C253.44 72.1445 248.696 76.8156 236.457 80.3739C233.641 81.1924 230.627 81.5744 226.966 81.5744C223.831 81.5744 220.616 81.49 217.211 81.1952C213.472 80.8727 209.61 80.5389 205.479 80.5389C204.845 80.5389 204.211 80.5474 203.597 80.5628C202.976 80.5792 202.249 80.5877 201.436 80.5877C185.344 80.5877 136.325 77.2211 134.29 77.0903L130.654 67.7814L164.364 69.5491L172.418 76.3089Z" fill="white" stroke="white" stroke-miterlimit="10"/>
<path d="M181.93 53.0195C181.93 53.0195 181.279 52.2624 181.422 51.3713C181.565 50.4807 181.764 50.0256 182.312 49.869C182.858 49.7124 183.6 49.6402 183.75 49.7181C183.902 49.7949 185.748 50.5262 186.167 50.672C186.588 50.8182 187.739 51.5785 187.762 51.9292C187.787 52.2798 187.851 52.3932 187.995 52.7354C188.138 53.0771 188.354 54.6235 188.354 54.6235L185.573 54.931C185.573 54.931 185.602 53.8449 185.398 53.7709C185.193 53.6977 182.476 53.4202 182.291 53.3157C182.111 53.2117 181.93 53.0195 181.93 53.0195Z" fill="#996234"/>
<path d="M171.631 48.6802C171.631 48.6802 171.485 47.303 171.426 47.303C171.367 47.303 173.356 47.1858 173.828 46.8343C174.414 46.3979 177.637 46.4241 177.637 46.4241L179.775 48.3873L182.243 50.2435C182.243 50.2435 181.533 52.5774 181.181 52.5774C181.016 52.5774 179.256 50.9827 177.666 50.9368C175.893 50.8857 175.762 51.9033 176.171 54.1008C176.249 54.5162 172.51 52.0205 172.51 52.0205C172.51 52.0205 171.804 51.4932 171.629 50.5557C171.455 49.6177 171.631 48.6802 171.631 48.6802Z" fill="#EF45B7"/>
<path d="M175.878 34.5596C175.966 34.5886 176.61 33.7978 176.581 33.5339C176.552 33.27 176.289 33.0943 176.23 33.0943C176.171 33.0943 175.556 32.3621 175.878 32.0396C176.201 31.7171 175.175 30.3989 175.556 29.7544C175.936 29.1099 176.405 28.1138 177.284 27.7622C178.164 27.4107 178.72 27.1177 179.159 27.4692C179.599 27.8208 180.654 28.8169 180.683 29.198C180.712 29.5791 180.888 30.3113 180.683 31.1021C180.478 31.8928 180.478 32.0105 180.449 32.8599C180.419 33.7093 180.038 34.2385 179.774 34.56C179.511 34.8816 179.628 35.3208 179.13 35.438C178.632 35.5552 179.247 36.3464 179.013 36.6389C178.778 36.9314 176.024 36.1993 176.083 35.0569C176.111 34.5197 175.878 34.5596 175.878 34.5596Z" fill="#996234"/>
<path d="M175.967 33.4167C175.967 33.4167 175.469 33.4167 175.527 33.0065C175.585 32.5964 175.693 31.8933 175.522 31.7175C175.351 31.5417 174.824 31.2197 175 30.7214C175.176 30.2231 175.38 29.9301 175.263 29.4614C175.146 28.9926 175.263 28.612 175.644 28.3776C176.024 28.1433 176.321 28.2019 176.759 27.997C177.199 27.7922 177.55 27.2939 178.046 27.2058C178.544 27.1176 179.13 26.7661 179.541 27.2058C179.951 27.6455 180.244 27.6455 180.361 27.938C180.478 28.2305 180.332 27.9089 180.507 28.612C180.682 29.3151 181.034 29.4614 180.8 29.8425C180.566 30.2231 180.36 29.52 180.156 29.4909C179.95 29.4619 180.067 29.1394 179.511 29.4909C178.955 29.8425 179.159 29.7253 178.339 29.5495C177.519 29.3737 177.079 28.905 176.829 29.7548C176.581 30.6047 176.725 30.458 176.829 31.132C176.933 31.8061 176.829 32.0986 176.829 32.0986C176.829 32.0986 176.786 31.7761 176.464 31.8351C176.142 31.8942 176.084 31.9523 176.113 32.3039C176.142 32.6555 176.318 33.0656 176.259 33.1828C176.2 33.3 175.967 33.4167 175.967 33.4167Z" fill="#301705"/>
<path d="M180.01 40.0967C180.01 40.0967 181.943 43.2607 182.442 43.5537C182.94 43.8467 183.965 44.4326 184.346 44.5203C184.726 44.6079 187.129 44.989 188.154 44.9304C189.179 44.8718 189.355 44.562 189.736 44.9365C190.117 45.3111 190.293 45.575 190.439 45.282C190.586 44.989 190.498 44.9304 190.439 44.4907C190.381 44.0511 190.439 43.8167 190.85 43.7586C191.26 43.7004 191.887 44.1687 191.719 43.6414C191.553 43.114 191.611 42.8796 190.937 42.9382C190.263 42.9968 190.146 43.4951 189.677 43.5532C189.208 43.6114 189.003 43.6118 188.182 43.4946C187.362 43.3775 185.047 42.0003 184.55 41.9712C184.052 41.9421 184.022 41.5611 183.7 41.239C183.378 40.917 182.089 39.335 182.089 39.335" fill="#996234"/>
<path d="M171.425 41.708C171.543 40.0674 172.129 37.4602 173.125 36.3174C174.121 35.1746 174.414 35.2041 175.146 34.8821C175.878 34.5596 176.259 34.6477 176.259 34.6477C176.259 34.6477 176.298 35.8196 176.894 36.0249C177.49 36.2302 178.896 36.6109 178.984 36.3765C179.072 36.1421 178.867 35.993 179.043 35.7891C179.218 35.5852 179.511 35.0288 179.717 35.146C179.922 35.2632 180.947 35.6729 181.064 36.2007C181.182 36.7285 181.299 37.4312 181.592 37.8413C181.885 38.2515 182.06 38.896 182.06 38.896C182.06 38.896 182.149 39.1304 182.236 39.3938C182.324 39.6573 181.475 39.6282 180.918 40.7119C180.361 41.7957 179.746 40.0969 179.746 40.0969C179.746 40.0969 180.42 39.6573 179.805 40.5948C179.805 40.5948 178.867 42.0301 178.809 42.2354C178.75 42.4407 178.516 42.9676 178.545 43.4954C178.574 44.0232 178.868 44.5791 178.809 45.136C178.75 45.6929 178.82 46.1907 178.126 46.4541C177.432 46.7176 176.671 46.6594 175.82 46.7471C174.971 46.8352 173.923 46.7888 173.535 47.1277C173.147 47.4671 172.774 47.1863 172.305 47.3035C171.836 47.4207 171.807 47.7137 171.426 47.3035C171.045 46.8934 171.65 45.6043 171.553 45.3113C171.456 45.0184 171.201 44.3738 171.299 43.4073C171.397 42.4407 171.425 41.708 171.425 41.708Z" fill="#8BC7E8"/>
<path d="M174.812 43.6848C174.812 43.6848 175.434 45.7267 175.781 46.1153C176.129 46.5034 176.688 47.4039 176.982 47.7531C177.278 48.1023 179.901 50.7916 180.214 51.0245C180.532 51.2589 182.053 52.5953 182.053 52.5953L184.208 52.3478C184.208 52.3478 182.781 50.8192 182.079 50.072C181.376 49.3248 179.054 46.4491 178.922 46.1884C178.789 45.9273 178.034 45.1408 177.83 44.778C177.626 44.4152 177.592 43.6656 177.423 42.9817C177.255 42.2978 176.964 41.4137 176.964 41.4137C176.964 41.4137 174.255 41.0884 174.172 41.7283C174.089 42.3681 174.812 43.6848 174.812 43.6848Z" fill="#996234"/>
<path d="M176.23 54.0714C176.23 54.0714 175.634 53.2712 175.839 52.3923C176.045 51.5134 176.278 51.0742 176.833 50.957C177.39 50.8398 178.134 50.8201 178.281 50.9083C178.427 50.9964 180.215 51.8556 180.625 52.0314C181.035 52.2072 182.127 53.0472 182.127 53.3987C182.127 53.7503 182.186 53.8675 182.303 54.219C182.42 54.5706 182.566 55.5667 182.566 55.5667L179.753 55.8648C179.753 55.8648 179.839 55.1565 179.638 55.0689C179.436 54.9808 176.747 54.512 176.571 54.3948C176.396 54.2776 176.23 54.0714 176.23 54.0714Z" fill="#996234"/>
<path opacity="0.6" d="M-1.10938 74.0986L379.291 74.2871L379.75 377.41L-0.649063 377.221L-1.10938 74.0986Z" fill="#33EFFF"/>
<path d="M376.036 347.265C358.28 350.476 347.351 349.677 334.687 349.632C323.413 349.617 319.15 347.359 299.355 345.857C287.126 345.488 277.457 345.86 264.505 346.52C255.077 346.999 233.397 348.125 223.655 346.61C205.116 341.561 158.205 342.609 137.024 345.883C115.843 349.157 124.989 343.867 111.51 344.371C98.0312 344.872 100.197 346.891 93.4576 345.123C86.7184 343.36 83.7685 338.007 78.0263 339.024C77.3757 339.413 78.1501 342.54 63.7295 334.981C58.6749 332.332 52.854 332.403 49.2568 332.344C45.6826 332.286 37.7166 334.174 33.1435 330.645C27.8701 327.55 12.5991 338.339 7.30367 341.359C2.0082 344.388 -0.630859 342.612 -0.630859 342.612L0.189453 376.468L376.236 376.937L376.036 347.265Z" fill="#D8BD80"/>
<rect x="315.775" y="15.4141" width="44.0746" height="25" rx="12.5" fill="#969696" fill-opacity="0.3"/>
<path d="M328.777 23.0117V23.7295H328.681C327.492 23.7295 326.555 24.0804 325.872 24.7822C325.188 25.4795 324.81 26.4502 324.737 27.6943C325.01 27.3161 325.359 27.0244 325.783 26.8193C326.207 26.6097 326.681 26.5049 327.205 26.5049C328.08 26.5049 328.775 26.8079 329.29 27.4141C329.809 28.0156 330.069 28.804 330.069 29.7793C330.069 30.4264 329.948 31.0098 329.707 31.5293C329.465 32.0488 329.119 32.4544 328.667 32.7461C328.216 33.0332 327.701 33.1768 327.123 33.1768C326.17 33.1768 325.395 32.8327 324.798 32.1445C324.201 31.4518 323.903 30.5586 323.903 29.4648V28.6445C323.903 26.8626 324.308 25.484 325.12 24.5088C325.931 23.529 327.082 23.0299 328.572 23.0117H328.777ZM327.075 27.209C326.555 27.209 326.07 27.3639 325.619 27.6738C325.172 27.9792 324.874 28.3688 324.723 28.8428V29.54C324.723 30.4059 324.944 31.1123 325.386 31.6592C325.833 32.2061 326.412 32.4795 327.123 32.4795C327.761 32.4795 328.276 32.2266 328.667 31.7207C329.064 31.2148 329.262 30.5768 329.262 29.8066C329.262 29.0228 329.064 28.3939 328.667 27.9199C328.276 27.446 327.745 27.209 327.075 27.209ZM331.73 33.8945H330.985L335.141 23.0869H335.879L331.73 33.8945ZM343.515 33.04H337.281V32.4111L340.692 28.542C341.257 27.8903 341.649 27.3525 341.868 26.9287C342.086 26.5049 342.196 26.0924 342.196 25.6914C342.196 25.0625 342.011 24.5658 341.642 24.2012C341.273 23.832 340.765 23.6475 340.118 23.6475C339.448 23.6475 338.905 23.8617 338.491 24.29C338.081 24.7184 337.875 25.2744 337.875 25.958H337.062C337.062 25.3975 337.187 24.887 337.438 24.4268C337.693 23.9665 338.053 23.6064 338.518 23.3467C338.987 23.0824 339.521 22.9502 340.118 22.9502C341.029 22.9502 341.74 23.1895 342.25 23.668C342.765 24.1465 343.023 24.7982 343.023 25.623C343.023 26.0879 342.877 26.596 342.585 27.1475C342.298 27.6989 341.79 28.387 341.061 29.2119L338.286 32.3496H343.515V33.04ZM350.071 29.834H351.623V30.5244H350.071V33.04H349.25V30.5244H344.568V30.0596L349.175 23.0869H350.071V29.834ZM345.573 29.834H349.25V24.1465L348.888 24.7754L345.573 29.834Z" fill="black"/>
<path d="M83.1201 244.508H69.1748V287.164H83.1201V244.508Z" fill="#0C0C0C"/>
<path d="M108.164 282.395C99.8381 267.989 91.5239 253.579 83.2059 239.168C82.5379 238.013 81.8882 236.844 81.1959 235.703C79.6804 233.207 77.1346 232.004 74.4825 232.567C72.4734 232.994 71.0878 234.264 70.0818 236.006C64.0331 246.488 57.9811 256.968 51.9295 267.447C48.9946 272.531 46.0504 277.611 43.1301 282.703C41.2448 285.99 42.1148 289.687 45.1528 291.433C46.3457 292.12 47.6465 292.334 49.0059 292.333C57.8887 292.327 66.7711 292.331 75.6539 292.331C77.2687 292.331 78.884 292.331 80.4989 292.331C87.9056 292.329 95.3123 292.342 102.719 292.323C106.218 292.313 108.798 290.235 109.26 287.092C109.51 285.395 109.011 283.86 108.164 282.395ZM79.5539 244.7L78.39 272.571H73.2164L72.1171 244.7H79.5539ZM75.8357 284.987C73.5501 284.987 71.6971 283.134 71.6971 280.848C71.6971 278.563 73.5501 276.71 75.8357 276.71C78.1209 276.71 79.9743 278.563 79.9743 280.848C79.9743 283.134 78.1218 284.987 75.8357 284.987Z" fill="#070707"/>
<path d="M105.118 280.985C97.5741 267.931 90.0408 254.874 82.5037 241.816C81.8986 240.77 81.3098 239.71 80.6826 238.677C79.3097 236.415 77.003 235.326 74.5997 235.836C72.7795 236.222 71.5237 237.373 70.6125 238.951C65.1314 248.449 59.6475 257.945 54.1645 267.44C51.5053 272.047 48.8376 276.649 46.1911 281.263C44.483 284.242 45.2714 287.591 48.0239 289.173C49.1048 289.796 50.2833 289.99 51.5151 289.989C59.5636 289.983 67.612 289.987 75.6609 289.987C77.1239 289.987 78.5878 289.987 80.0508 289.987C86.7619 289.985 93.4734 289.997 100.185 289.979C103.355 289.971 105.693 288.088 106.111 285.24C106.338 283.702 105.885 282.311 105.118 280.985ZM79.1948 246.829L78.1401 272.083H73.4526L72.4566 246.829H79.1948ZM75.8255 283.333C73.7545 283.333 72.0755 281.654 72.0755 279.583C72.0755 277.512 73.7545 275.833 75.8255 275.833C77.8964 275.833 79.5755 277.512 79.5755 279.583C79.5755 281.654 77.8969 283.333 75.8255 283.333Z" fill="#F9E132"/>
</g>
<defs>
<linearGradient id="paint0_linear" x1="188.505" y1="375.022" x2="188.505" y2="0.414322" gradientUnits="userSpaceOnUse">
<stop offset="0.773" stop-color="white"/>
<stop offset="1" stop-color="#4FC3F7"/>
</linearGradient>
<clipPath id="clip0">
<rect width="375" height="375" fill="white" transform="translate(0.775391 0.414062)"/>
</clipPath>
</defs>
</svg>
