<svg width="376" height="376" viewBox="0 0 376 376" fill="none" xmlns="http://www.w3.org/2000/svg">
<g clip-path="url(#clip0)">
<path d="M0.306641 0.294922H375.307L375.767 374.902H0.766953L0.306641 0.294922Z" fill="url(#paint0_linear)"/>
<path d="M350.708 340.878C350.829 340.697 350.553 340.165 350.497 340.083C350.457 340.031 350.397 340.015 350.325 340.021C350.194 340.033 350.022 340.126 349.88 340.219C349.66 340.327 340.922 342.982 335.701 344.565C333.368 345.273 331.526 345.829 331.237 345.923C330.813 346.055 330.554 346.236 330.465 346.451C330.397 346.623 330.464 346.754 330.467 346.76C330.653 347.33 330.836 347.305 331.148 347.206C331.201 347.191 331.259 347.173 331.323 347.157C331.712 347.065 347.155 342.831 347.812 342.654C348.027 342.581 348.623 342.417 348.845 342.541C349.105 342.682 349.462 343.438 349.597 343.811C350.24 345.582 350.525 346.88 350.318 347.045C350.25 347.095 349.993 347.177 349.03 346.82C348.482 346.617 347.924 346.346 347.789 346.266C347.765 346.251 345.021 344.706 344.461 344.854C344.41 344.867 344.371 344.897 344.347 344.938C344.14 345.318 344.581 345.995 345.092 346.778L345.225 346.982C345.642 347.628 346.165 348.318 346.374 348.589C345.931 348.56 344.66 348.482 344.469 348.483C344.451 348.484 344.421 348.485 344.389 348.49C344.263 348.501 344.051 348.544 343.924 348.692C343.842 348.786 343.81 348.905 343.828 349.045C343.863 349.309 344.264 349.671 344.684 350.051C344.753 350.117 344.824 350.18 344.891 350.243C344.87 350.253 344.851 350.271 344.827 350.281C344.298 350.607 343.571 351.053 343.509 351.448C343.493 351.549 343.518 351.64 343.585 351.72C343.894 352.09 345.048 351.805 347.208 350.825C348.822 350.093 351.085 348.679 351.106 348.667C351.595 348.362 352.29 347.52 352.237 346.682C352.183 345.884 350.83 341.384 350.685 340.898C350.692 340.889 350.698 340.883 350.708 340.878Z" fill="#727272"/>
<path d="M331.616 346.624C331.645 346.572 331.651 346.511 331.635 346.453C331.603 346.335 331.479 346.266 331.354 346.299C331.296 346.317 331.247 346.356 331.22 346.408C331.191 346.46 331.186 346.522 331.201 346.58C331.23 346.683 331.334 346.75 331.442 346.741C331.455 346.739 331.471 346.737 331.484 346.733C331.542 346.716 331.59 346.677 331.616 346.624Z" fill="#727272"/>
<path d="M352.111 346.686C352.063 345.937 350.785 341.667 350.58 340.992C350.506 341.038 350.422 341.063 350.341 341.063C350.244 341.065 350.164 341.025 350.114 340.955C350.046 340.857 349.968 340.693 349.913 340.572L349.902 340.603L332.862 345.564C332.011 345.823 331.431 345.999 331.279 346.045C330.808 346.194 330.646 346.37 330.596 346.49C330.547 346.603 330.586 346.685 330.593 346.699C330.751 347.178 330.848 347.149 331.11 347.067C331.165 347.051 331.224 347.032 331.291 347.015C331.382 346.995 332.297 346.748 333.652 346.379C333.869 345.898 334.462 345.729 334.486 345.724C335.036 345.554 347.99 341.541 349.268 342.076C349.607 342.217 349.959 343.216 349.997 343.327C350.031 343.421 350.869 345.653 350.99 346.512C351.165 347.766 349.659 348.576 349.061 348.776C348.553 348.946 346.607 348.783 346.526 348.79L346.524 348.791C346.457 348.797 344.698 348.642 344.478 348.645C344.326 348.652 344.127 348.659 344.031 348.775C343.975 348.84 343.953 348.922 343.964 349.021C343.993 349.235 344.408 349.612 344.775 349.945C345.02 350.169 345.254 350.382 345.401 350.561C345.59 350.799 345.657 350.956 345.609 351.058C345.58 351.12 345.517 351.141 345.483 351.139V351C345.483 351 345.516 350.932 345.291 350.649C345.22 350.552 345.113 350.449 344.994 350.335C344.962 350.355 344.931 350.374 344.896 350.395C344.448 350.673 343.697 351.134 343.644 351.467C343.633 351.528 343.65 351.582 343.689 351.631C343.865 351.839 344.611 351.848 347.151 350.697C348.144 350.245 349.387 349.536 350.195 349.059C348.763 349.28 345.768 349.041 344.712 348.955C344.512 348.941 344.358 348.927 344.334 348.927L344.328 348.859L344.309 348.791C344.311 348.79 344.313 348.79 344.321 348.789C344.344 348.787 344.406 348.793 344.72 348.817C345.885 348.911 349.427 349.195 350.562 348.837C350.849 348.661 351.029 348.55 351.036 348.546C351.435 348.3 352.156 347.499 352.111 346.686ZM331.739 346.69C331.693 346.778 331.616 346.837 331.523 346.865C331.327 346.922 331.127 346.808 331.072 346.62C331.045 346.527 331.058 346.429 331.102 346.344C331.148 346.257 331.224 346.197 331.318 346.17C331.338 346.162 331.363 346.16 331.386 346.157C331.558 346.14 331.719 346.248 331.769 346.416C331.796 346.506 331.785 346.605 331.739 346.69Z" fill="#727272"/>
<path d="M333.832 346.326C338.433 345.072 347.65 342.547 347.77 342.514C347.851 342.485 348.589 342.236 348.909 342.411C349.242 342.595 349.62 343.462 349.724 343.756C350.138 344.898 350.776 346.852 350.4 347.145C349.94 347.499 347.875 346.472 347.715 346.375C347.406 346.187 344.939 344.858 344.495 344.979C344.485 344.981 344.47 344.984 344.466 344.993C344.298 345.3 344.739 345.979 345.205 346.695L345.338 346.899C345.819 347.645 346.442 348.446 346.558 348.591C346.805 348.613 348.563 348.764 349.009 348.613C349.538 348.437 351.011 347.666 350.85 346.513C350.729 345.667 349.875 343.389 349.863 343.361C349.763 343.074 349.448 342.298 349.21 342.199C347.974 341.681 334.654 345.809 334.518 345.853C334.514 345.856 334.058 345.987 333.832 346.326Z" fill="#727272"/>
<path d="M349.792 340.487L349.841 340.371C349.383 340.53 347.44 341.129 344.135 342.138L349.792 340.487Z" fill="#727272"/>
<path d="M350.587 340.8C350.641 340.719 350.476 340.297 350.38 340.16C350.364 340.134 350.215 340.159 349.955 340.329L349.973 340.376C349.974 340.381 350.118 340.727 350.222 340.876C350.245 340.909 350.286 340.925 350.333 340.925C350.435 340.926 350.548 340.859 350.587 340.8Z" fill="#727272"/>
<path d="M350.703 340.877C350.826 340.697 350.549 340.164 350.494 340.082C350.455 340.03 350.392 340.014 350.321 340.02C350.193 340.032 350.018 340.125 349.878 340.218C349.658 340.326 340.918 342.98 335.699 344.562C333.365 345.272 331.524 345.828 331.232 345.92C330.811 346.053 330.55 346.233 330.461 346.449C330.391 346.621 330.46 346.753 330.462 346.758C330.647 347.328 330.832 347.303 331.144 347.203C331.196 347.189 331.253 347.171 331.318 347.154C331.708 347.063 347.149 342.83 347.808 342.652C348.023 342.578 348.619 342.413 348.841 342.54C349.1 342.68 349.456 343.437 349.593 343.809C350.236 345.582 350.524 346.879 350.314 347.043C350.247 347.094 349.992 347.177 349.026 346.819C348.477 346.616 347.922 346.345 347.786 346.266C347.763 346.249 345.02 344.706 344.457 344.852C344.408 344.864 344.369 344.897 344.345 344.937C344.137 345.317 344.579 345.995 345.09 346.779L345.222 346.984C345.641 347.633 346.162 348.322 346.37 348.594C346.456 348.6 346.513 348.611 346.523 348.612L346.516 348.761C346.516 348.761 346.516 348.791 346.515 348.792L346.516 348.791C346.597 348.783 348.547 348.947 349.052 348.777C349.647 348.58 351.152 347.752 350.977 346.5C350.857 345.641 350.022 343.419 349.988 343.324C349.95 343.213 349.599 342.218 349.257 342.075C347.978 341.543 335.025 345.556 334.475 345.728C334.451 345.735 333.86 345.902 333.644 346.384C332.286 346.754 331.369 347.001 331.282 347.02C331.217 347.036 331.155 347.057 331.1 347.072C330.836 347.154 330.738 347.184 330.582 346.705C330.576 346.691 330.537 346.609 330.585 346.496C330.638 346.375 330.798 346.2 331.269 346.053C331.421 346.004 332.001 345.828 332.853 345.569L349.893 340.607L349.902 340.577C349.958 340.7 350.037 340.861 350.107 340.959C350.156 341.029 350.234 341.067 350.331 341.066C350.411 341.065 350.497 341.037 350.57 340.997C350.557 340.941 350.542 340.907 350.541 340.903L350.672 340.863C350.675 340.87 350.678 340.883 350.684 340.898C350.692 340.889 350.698 340.883 350.703 340.877ZM333.826 346.331C334.054 345.99 334.509 345.857 334.516 345.856C334.653 345.816 347.973 341.685 349.21 342.201C349.45 342.3 349.763 343.074 349.863 343.364C349.873 343.393 350.732 345.671 350.849 346.518C351.009 347.672 349.538 348.438 349.008 348.616C348.565 348.766 346.805 348.616 346.556 348.595C346.443 348.45 345.822 347.648 345.339 346.903L345.206 346.699C344.739 345.982 344.297 345.305 344.467 344.996C344.471 344.988 344.486 344.985 344.494 344.983C344.941 344.86 347.409 346.189 347.718 346.38C347.875 346.478 349.939 347.5 350.401 347.148C350.778 346.856 350.138 344.9 349.726 343.76C349.619 343.467 349.244 342.598 348.91 342.416C348.593 342.24 347.855 342.487 347.771 342.518C347.648 342.549 338.43 345.075 333.826 346.331ZM349.846 340.374L349.796 340.49L344.139 342.138C347.445 341.128 349.388 340.53 349.846 340.374ZM350.59 340.8C350.55 340.86 350.439 340.926 350.331 340.926C350.282 340.927 350.243 340.911 350.221 340.877C350.113 340.729 349.973 340.38 349.971 340.377L349.953 340.33C350.213 340.163 350.362 340.135 350.38 340.161C350.473 340.296 350.643 340.719 350.59 340.8Z" fill="#727272"/>
<path d="M344.994 350.336C344.962 350.302 344.925 350.27 344.889 350.239C344.867 350.25 344.848 350.268 344.822 350.278C344.294 350.603 343.569 351.049 343.506 351.443C343.49 351.545 343.513 351.637 343.583 351.717C343.893 352.086 345.043 351.801 347.206 350.822C348.822 350.09 351.083 348.677 351.105 348.663C351.592 348.36 352.288 347.518 352.236 346.68C352.183 345.883 350.827 341.381 350.68 340.896C350.651 340.936 350.612 340.966 350.566 340.994C350.771 341.669 352.048 345.94 352.099 346.688C352.149 347.499 351.429 348.301 351.032 348.55C351.028 348.554 350.847 348.667 350.558 348.842C350.561 348.842 350.565 348.837 350.568 348.837L350.611 348.966C350.496 349.003 350.354 349.032 350.193 349.057C349.383 349.536 348.142 350.245 347.148 350.697C344.609 351.848 343.864 351.84 343.687 351.627C343.646 351.578 343.633 351.525 343.642 351.464C343.695 351.129 344.446 350.667 344.895 350.393C344.931 350.374 344.962 350.355 344.994 350.336Z" fill="#727272"/>
<path d="M350.687 340.894C350.682 340.879 350.678 340.864 350.677 340.858L350.546 340.899C350.547 340.902 350.56 340.937 350.575 340.992C350.618 340.966 350.657 340.932 350.687 340.894Z" fill="#727272"/>
<path d="M346.465 348.703C346.463 348.706 346.428 348.66 346.373 348.586C345.929 348.557 344.659 348.479 344.466 348.482C344.45 348.482 344.419 348.483 344.387 348.487C344.261 348.498 344.05 348.542 343.924 348.692C343.841 348.784 343.809 348.903 343.827 349.044C343.859 349.308 344.261 349.669 344.683 350.05C344.752 350.115 344.823 350.179 344.89 350.242C344.926 350.221 344.959 350.199 344.991 350.18L345.064 350.296C345.043 350.309 345.017 350.326 344.996 350.339C345.114 350.452 345.215 350.556 345.292 350.652C345.517 350.934 345.484 351.003 345.484 351.003L345.484 351.142C345.515 351.143 345.578 351.123 345.61 351.062C345.657 350.96 345.591 350.803 345.402 350.565C345.259 350.384 345.022 350.173 344.776 349.948C344.409 349.615 343.995 349.238 343.965 349.025C343.955 348.924 343.974 348.843 344.032 348.779C344.13 348.662 344.326 348.622 344.474 348.618C344.695 348.614 346.451 348.726 346.518 348.731L346.489 348.726L346.465 348.703Z" fill="#727272"/>
<path d="M346.524 348.59C346.514 348.59 346.458 348.582 346.374 348.58C346.434 348.654 346.464 348.697 346.465 348.699L346.483 348.724L346.514 348.729C346.514 348.73 346.516 348.729 346.517 348.729L346.524 348.59Z" fill="#727272"/>
<path d="M344.991 350.178C344.959 350.196 344.923 350.219 344.891 350.237C344.926 350.271 344.96 350.303 344.994 350.335C345.016 350.322 345.041 350.306 345.062 350.293L344.991 350.178Z" fill="#727272"/>
<path d="M350.194 349.06C350.329 348.977 350.457 348.904 350.561 348.84C349.427 349.194 345.885 348.911 344.72 348.817C344.405 348.791 344.344 348.788 344.321 348.789C344.313 348.79 344.311 348.792 344.308 348.793L344.327 348.858L344.333 348.927C344.356 348.926 344.512 348.94 344.709 348.954C345.765 349.04 348.762 349.279 350.194 349.06Z" fill="#727272"/>
<path d="M350.566 348.837C350.459 348.905 350.333 348.976 350.197 349.059C350.356 349.035 350.5 349.007 350.615 348.969L350.573 348.837C350.568 348.836 350.566 348.837 350.566 348.837Z" fill="#727272"/>
<path d="M331.739 346.691C331.788 346.605 331.796 346.507 331.769 346.413C331.718 346.247 331.558 346.138 331.386 346.155C331.363 346.157 331.34 346.161 331.318 346.168C331.225 346.195 331.148 346.256 331.101 346.342C331.053 346.427 331.044 346.525 331.072 346.618C331.127 346.805 331.327 346.921 331.523 346.863C331.616 346.837 331.693 346.775 331.739 346.691ZM331.62 346.624C331.591 346.676 331.544 346.715 331.486 346.732C331.474 346.737 331.457 346.739 331.444 346.741C331.336 346.751 331.234 346.684 331.203 346.579C331.186 346.521 331.192 346.461 331.221 346.407C331.25 346.355 331.297 346.316 331.358 346.299C331.479 346.266 331.602 346.335 331.637 346.452C331.654 346.51 331.647 346.572 331.62 346.624Z" fill="#727272"/>
<path d="M289.602 344.313C289.569 345.405 291.19 345.221 291.203 344.525C291.22 343.613 289.621 343.699 289.602 344.313Z" fill="#727272"/>
<path d="M287.454 343.929C287.421 345.021 289.042 344.838 289.055 344.141C289.072 343.23 287.473 343.314 287.454 343.929Z" fill="#727272"/>
<path d="M291.728 344.629C291.695 345.721 293.316 345.536 293.328 344.841C293.344 343.93 291.746 344.015 291.728 344.629Z" fill="#727272"/>
<path d="M290.788 344.419C290.429 344.814 292.028 345.027 292.246 344.773C292.537 344.441 290.987 344.198 290.788 344.419Z" fill="#727272"/>
<path d="M288.62 344.024C288.261 344.419 289.86 344.631 290.078 344.378C290.369 344.045 288.819 343.802 288.62 344.024Z" fill="#727272"/>
<path d="M286.487 343.799C286.129 344.195 287.727 344.406 287.947 344.154C288.236 343.82 286.686 343.576 286.487 343.799Z" fill="#727272"/>
<path d="M300.746 344.968C300.717 346.061 302.338 345.877 302.346 345.181C302.363 344.27 300.765 344.355 300.746 344.968Z" fill="#727272"/>
<path d="M298.553 344.759C298.52 345.847 300.142 345.667 300.154 344.968C300.171 344.061 298.572 344.145 298.553 344.759Z" fill="#727272"/>
<path d="M296.36 344.551C296.328 345.642 297.948 345.459 297.96 344.763C297.978 343.853 296.379 343.936 296.36 344.551Z" fill="#727272"/>
<path d="M293.918 344.454C293.886 345.546 295.506 345.363 295.519 344.667C295.536 343.756 293.937 343.84 293.918 344.454Z" fill="#727272"/>
<path d="M292.983 344.376C292.687 344.819 294.3 344.8 294.481 344.519C294.717 344.151 293.149 344.129 292.983 344.376Z" fill="#727272"/>
<path d="M295.176 344.585C294.88 345.024 296.494 345.005 296.674 344.729C296.91 344.36 295.341 344.339 295.176 344.585Z" fill="#727272"/>
<path d="M297.438 344.615C297.142 345.056 298.756 345.038 298.935 344.757C299.172 344.387 297.604 344.367 297.438 344.615Z" fill="#727272"/>
<path d="M299.831 344.785C299.471 345.181 301.071 345.392 301.288 345.141C301.58 344.808 300.031 344.564 299.831 344.785Z" fill="#727272"/>
<path d="M302.205 345.064C301.849 345.459 303.448 345.671 303.666 345.417C303.952 345.087 302.405 344.842 302.205 345.064Z" fill="#727272"/>
<path d="M307.805 345.633C307.773 346.726 309.393 346.542 309.406 345.845C309.423 344.935 307.824 345.018 307.805 345.633Z" fill="#727272"/>
<path d="M309.931 346.022C309.898 347.115 311.519 346.931 311.531 346.235C311.547 345.324 309.948 345.408 309.931 346.022Z" fill="#727272"/>
<path d="M305.612 345.423C305.579 346.515 307.2 346.332 307.212 345.631C307.23 344.725 305.63 344.809 305.612 345.423Z" fill="#727272"/>
<path d="M303.421 345.214C303.391 346.308 305.012 346.123 305.02 345.428C305.038 344.518 303.438 344.602 303.421 345.214Z" fill="#727272"/>
<path d="M304.497 345.279C304.196 345.72 305.814 345.702 305.991 345.421C306.231 345.051 304.662 345.031 304.497 345.279Z" fill="#727272"/>
<path d="M306.891 345.451C306.535 345.846 308.135 346.058 308.353 345.806C308.64 345.474 307.091 345.228 306.891 345.451Z" fill="#727272"/>
<path d="M309.264 345.728C308.904 346.123 310.505 346.335 310.722 346.082C311.013 345.751 309.464 345.505 309.264 345.728Z" fill="#727272"/>
<path d="M318.949 346.83C318.917 347.923 320.537 347.738 320.546 347.038C320.567 346.132 318.968 346.217 318.949 346.83Z" fill="#727272"/>
<path d="M321.613 347.125C321.58 348.219 323.201 348.034 323.213 347.338C323.23 346.427 321.631 346.512 321.613 347.125Z" fill="#727272"/>
<path d="M316.757 346.622C316.724 347.714 318.344 347.531 318.357 346.834C318.374 345.924 316.775 346.008 316.757 346.622Z" fill="#727272"/>
<path d="M314.563 346.413C314.53 347.506 316.151 347.322 316.163 346.626C316.18 345.715 314.581 345.798 314.563 346.413Z" fill="#727272"/>
<path d="M312.121 346.317C312.088 347.409 313.709 347.226 313.722 346.53C313.738 345.617 312.139 345.702 312.121 346.317Z" fill="#727272"/>
<path d="M311.186 346.238C310.89 346.681 312.504 346.663 312.684 346.385C312.92 346.012 311.352 345.992 311.186 346.238Z" fill="#727272"/>
<path d="M313.379 346.448C313.084 346.889 314.698 346.871 314.877 346.591C315.114 346.222 313.545 346.2 313.379 346.448Z" fill="#727272"/>
<path d="M315.641 346.477C315.345 346.916 316.958 346.897 317.138 346.62C317.375 346.25 315.807 346.229 315.641 346.477Z" fill="#727272"/>
<path d="M318.034 346.649C317.674 347.049 319.274 347.256 319.491 347.003C319.783 346.672 318.234 346.426 318.034 346.649Z" fill="#727272"/>
<path d="M320.408 346.926C320.052 347.321 321.651 347.534 321.87 347.28C322.157 346.947 320.608 346.703 320.408 346.926Z" fill="#727272"/>
<path d="M323.002 347.19C322.646 347.585 324.245 347.797 324.464 347.543C324.751 347.213 323.202 346.967 323.002 347.19Z" fill="#727272"/>
<path d="M330.309 347.071C329.975 346.03 328.51 346.745 328.73 347.405C329.018 348.271 330.496 347.656 330.309 347.071Z" fill="#727272"/>
<path d="M328.169 347.555C327.936 346.487 326.406 347.057 326.561 347.737C326.771 348.625 328.302 348.155 328.169 347.555Z" fill="#727272"/>
<path d="M325.79 347.836C325.893 346.749 324.264 346.828 324.206 347.52C324.131 348.429 325.732 348.448 325.79 347.836Z" fill="#727272"/>
<path d="M331.151 346.622C331.223 346.096 329.782 346.822 329.744 347.153C329.693 347.589 331.111 346.919 331.151 346.622Z" fill="#727272"/>
<path d="M329.09 347.445C329.267 346.944 327.709 347.364 327.604 347.681C327.468 348.098 328.992 347.727 329.09 347.445Z" fill="#727272"/>
<path d="M326.886 347.822C327.211 347.402 325.601 347.311 325.401 347.58C325.141 347.932 326.704 348.059 326.886 347.822Z" fill="#727272"/>
<path d="M273.056 339.496C273.64 338.571 272.147 337.906 271.787 338.498C271.309 339.273 272.727 340.014 273.056 339.496Z" fill="#727272"/>
<path d="M271.135 338.074C271.892 337.287 270.567 336.336 270.091 336.844C269.466 337.508 270.709 338.517 271.135 338.074Z" fill="#727272"/>
<path d="M269.558 336.174C270.31 335.38 268.977 334.441 268.505 334.952C267.887 335.621 269.138 336.621 269.558 336.174Z" fill="#727272"/>
<path d="M267.987 334.366C268.944 333.839 267.962 332.54 267.356 332.88C266.563 333.329 267.449 334.662 267.987 334.366Z" fill="#727272"/>
<path d="M266.86 332.669C267.904 332.346 267.202 330.873 266.539 331.082C265.676 331.364 266.273 332.85 266.86 332.669Z" fill="#727272"/>
<path d="M266.112 330.732C267.146 330.377 266.401 328.926 265.746 329.16C264.887 329.466 265.531 330.932 266.112 330.732Z" fill="#727272"/>
<path d="M262.635 320.106C263.668 319.752 262.923 318.3 262.268 318.534C261.41 318.84 262.053 320.306 262.635 320.106Z" fill="#727272"/>
<path d="M262.248 317.98C263.282 317.622 262.537 316.174 261.887 316.408C261.023 316.714 261.667 318.18 262.248 317.98Z" fill="#727272"/>
<path d="M263.214 322.231C264.247 321.876 263.502 320.425 262.848 320.659C261.989 320.965 262.633 322.431 263.214 322.231Z" fill="#727272"/>
<path d="M263.794 324.357C264.824 324.002 264.078 322.55 263.428 322.784C262.569 323.091 263.213 324.557 263.794 324.357Z" fill="#727272"/>
<path d="M264.566 326.675C265.6 326.316 264.856 324.868 264.2 325.103C263.342 325.409 263.985 326.875 264.566 326.675Z" fill="#727272"/>
<path d="M265.146 328.801C266.179 328.442 265.435 326.994 264.779 327.229C263.921 327.535 264.564 329 265.146 328.801Z" fill="#727272"/>
<path d="M271.881 338.653C272.394 338.514 271.163 337.47 270.838 337.565C270.422 337.689 271.593 338.732 271.881 338.653Z" fill="#727272"/>
<path d="M274.179 340.086C274.658 339.855 273.257 339.059 272.959 339.207C272.568 339.405 273.911 340.215 274.179 340.086Z" fill="#727272"/>
<path d="M277.4 341.824C277.771 340.799 276.174 340.467 275.946 341.125C275.646 341.985 277.192 342.402 277.4 341.824Z" fill="#727272"/>
<path d="M275.218 340.852C275.791 339.92 274.29 339.278 273.936 339.877C273.465 340.661 274.897 341.378 275.218 340.852Z" fill="#727272"/>
<path d="M276.072 341.256C276.542 341.012 275.115 340.256 274.822 340.418C274.438 340.63 275.807 341.395 276.072 341.256Z" fill="#727272"/>
<path d="M278.626 342.157C279.044 341.828 277.502 341.349 277.245 341.563C276.906 341.841 278.392 342.342 278.626 342.157Z" fill="#727272"/>
<path d="M282.108 343.267C282.281 342.187 280.653 342.164 280.549 342.85C280.414 343.751 282.011 343.873 282.108 343.267Z" fill="#727272"/>
<path d="M279.783 342.718C280.168 341.695 278.575 341.345 278.337 341.999C278.025 342.856 279.566 343.293 279.783 342.718Z" fill="#727272"/>
<path d="M280.696 342.955C281.111 342.626 279.569 342.151 279.312 342.365C278.974 342.645 280.461 343.141 280.696 342.955Z" fill="#727272"/>
<path d="M283.374 343.366C283.723 342.965 282.12 342.783 281.906 343.043C281.625 343.377 283.179 343.591 283.374 343.366Z" fill="#727272"/>
<path d="M270.226 337.181C270.751 337.093 269.641 335.922 269.311 335.981C268.88 336.063 269.931 337.228 270.226 337.181Z" fill="#727272"/>
<path d="M268.616 335.264C269.151 335.295 268.314 333.914 267.981 333.906C267.542 333.884 268.318 335.247 268.616 335.264Z" fill="#727272"/>
<path d="M267.457 333.525C267.987 333.557 267.154 332.175 266.821 332.166C266.383 332.144 267.158 333.508 267.457 333.525Z" fill="#727272"/>
<path d="M266.564 331.634C267.081 331.755 266.495 330.253 266.167 330.179C265.739 330.093 266.273 331.567 266.564 331.634Z" fill="#727272"/>
<path d="M265.599 329.702C266.116 329.823 265.529 328.32 265.201 328.247C264.773 328.159 265.308 329.634 265.599 329.702Z" fill="#727272"/>
<path d="M264.825 327.576C265.343 327.697 264.757 326.195 264.43 326.126C264 326.035 264.535 327.509 264.825 327.576Z" fill="#727272"/>
<path d="M264.245 325.451C264.763 325.572 264.177 324.07 263.845 324C263.42 323.91 263.955 325.383 264.245 325.451Z" fill="#727272"/>
<path d="M263.472 323.327C263.99 323.447 263.403 321.945 263.075 321.876C262.647 321.786 263.182 323.259 263.472 323.327Z" fill="#727272"/>
<path d="M262.788 321.027C263.284 321.22 262.916 319.65 262.603 319.534C262.191 319.383 262.51 320.918 262.788 321.027Z" fill="#727272"/>
<path d="M262.209 318.708C262.706 318.902 262.337 317.33 262.023 317.213C261.611 317.063 261.93 318.6 262.209 318.708Z" fill="#727272"/>
<path d="M260.523 309.229C261.588 308.987 261.004 307.464 260.329 307.626C259.441 307.838 259.923 309.365 260.523 309.229Z" fill="#727272"/>
<path d="M260.377 307.423C261.101 306.604 259.738 305.71 259.283 306.237C258.687 306.925 259.97 307.884 260.377 307.423Z" fill="#727272"/>
<path d="M260.869 311.404C261.934 311.16 261.348 309.636 260.674 309.802C259.788 310.013 260.27 311.54 260.869 311.404Z" fill="#727272"/>
<path d="M261.216 313.579C262.28 313.338 261.695 311.816 261.021 311.977C260.135 312.188 260.616 313.715 261.216 313.579Z" fill="#727272"/>
<path d="M261.735 315.968C262.8 315.727 262.217 314.204 261.54 314.365C260.654 314.577 261.136 316.104 261.735 315.968Z" fill="#727272"/>
<path d="M261.893 316.892C262.395 317.068 261.974 315.511 261.656 315.406C261.239 315.27 261.612 316.793 261.893 316.892Z" fill="#727272"/>
<path d="M261.547 314.717C262.045 314.893 261.627 313.34 261.305 313.231C260.894 313.095 261.265 314.618 261.547 314.717Z" fill="#727272"/>
<path d="M261.008 312.521C261.51 312.697 261.089 311.141 260.771 311.036C260.355 310.899 260.726 312.422 261.008 312.521Z" fill="#727272"/>
<path d="M260.576 310.161C261.048 310.406 260.852 308.805 260.552 308.656C260.16 308.461 260.311 310.022 260.576 310.161Z" fill="#727272"/>
<path d="M260.327 308.197C260.839 308.341 260.317 306.812 259.994 306.728C259.569 306.621 260.04 308.118 260.327 308.197Z" fill="#727272"/>
<path d="M258.819 306.789C258.912 305.701 257.286 305.792 257.233 306.486C257.165 307.394 258.765 307.4 258.819 306.789Z" fill="#727272"/>
<path d="M257.709 306.498C257.931 306.015 256.342 306.287 256.207 306.59C256.032 306.996 257.583 306.77 257.709 306.498Z" fill="#727272"/>
<path d="M259.58 306.758C259.96 306.388 258.379 306.068 258.144 306.305C257.836 306.617 259.364 306.967 259.58 306.758Z" fill="#727272"/>
<path d="M283.126 343.234C283.097 344.326 284.718 344.142 284.727 343.446C284.744 342.534 283.145 342.619 283.126 343.234Z" fill="#727272"/>
<path d="M285.325 343.623C285.292 344.715 286.913 344.531 286.926 343.835C286.943 342.923 285.344 343.008 285.325 343.623Z" fill="#727272"/>
<path d="M284.412 343.44C284.056 343.836 285.655 344.047 285.874 343.794C286.16 343.463 284.612 343.217 284.412 343.44Z" fill="#727272"/>
<path d="M114.605 302.239C114.061 302.352 112.325 306.113 112.875 309.081C113.425 312.049 115.008 318.925 115.919 320.057C116.831 321.19 117.972 323.213 117.972 323.213C117.972 323.213 113.953 325.371 113.313 326.784C113.313 326.784 113.315 327.364 113.805 327.286C114.296 327.208 118.581 326.975 118.782 327.454C118.984 327.934 119.375 330.433 119.44 330.758C119.505 331.082 119.325 332.559 119.263 333.089C119.238 333.308 117.923 335.423 118.164 335.901C118.407 336.38 120.186 336.396 121.178 336.373C122.169 336.35 127.452 332.809 128.19 332.158C128.928 331.508 129.133 323.633 129.133 323.633C129.133 323.633 127.63 313.336 127.999 313.315C128.368 313.295 130.862 312.29 131.661 311.363C132.462 310.436 132.165 305.946 131.785 305.231C131.404 304.516 122.752 300.52 114.605 302.239Z" fill="#36627A"/>
<path d="M118.646 330.646C118.646 330.646 119.502 330.471 119.551 330.577C119.6 330.685 119.788 330.981 119.747 331.553C119.706 332.128 119.926 332.854 119.475 332.91C119.024 332.967 118.714 332.966 118.714 332.966C118.714 332.966 117.961 334.821 116.803 335.381C115.644 335.942 114.864 335.751 115.576 335.018C116.287 334.285 117.626 333.419 117.498 333.116C117.37 332.815 115.126 333.125 115.126 333.125L115.146 331.309C115.146 331.309 116.862 331.143 116.947 331.178C117.033 331.207 117.68 330.73 117.188 330.518C116.697 330.308 114.583 330.523 114.92 329.773C115.258 329.021 115.176 329.03 115.975 328.928C116.774 328.827 117.796 329.221 118.25 329.771C118.704 330.318 118.646 330.646 118.646 330.646Z" fill="#6C808C"/>
<path d="M164.472 325.963L156.395 319.205L122.515 317.281C133.09 315.105 153.126 311.923 182.978 310.084C204.423 308.765 222.392 308.625 230.702 309.045C245.815 309.813 255.981 308.934 258.564 308.67C258.124 308.948 257.48 309.383 257.089 309.747C256.793 310.022 256.532 310.395 256.166 310.909C255.429 311.954 254.303 313.46 251.82 315.804L251.572 316.028C234.984 324.111 212.5 326.492 196.35 326.953C179.242 327.44 165.194 326.038 164.472 325.963Z" fill="#FF0000"/>
<path d="M183.395 298.906C183.249 298.614 183.134 298.394 183.042 298.231C182.994 298.149 182.954 298.082 182.918 298.024C182.738 297.739 182.677 297.738 182.643 297.736L182.538 297.801C182.49 297.892 182.436 297.992 182.372 298.095C182.331 298.163 182.284 298.234 182.24 298.306C182.215 298.34 182.191 298.377 182.168 298.413C181.514 299.362 180.428 300.479 179.775 300.31C179.464 300.225 179.278 300.017 179.203 299.661C179.193 299.62 179.187 299.577 179.181 299.534C179.175 299.488 179.171 299.444 179.171 299.393C179.13 298.133 180.253 295.664 181.73 294.091C181.956 293.846 182.192 293.629 182.434 293.436C182.567 293.329 182.719 293.221 182.88 293.129C183.139 292.982 183.417 292.877 183.676 292.89C183.774 292.894 183.87 292.917 183.96 292.958C184.106 293.027 184.202 293.138 184.253 293.3C184.288 293.408 184.302 293.534 184.302 293.668C184.292 294.609 183.492 296.041 183.481 296.057L183.421 296.164L184.729 296.543L183.395 298.906ZM183.556 294.253C183.553 294.107 183.517 293.989 183.436 293.911C183.42 293.894 183.405 293.882 183.385 293.865C183.337 293.834 183.278 293.816 183.218 293.816C183.174 293.816 183.13 293.826 183.077 293.845C182.726 293.972 182.221 294.517 181.713 295.214L181.691 295.185L181.668 295.157L181.223 295.929C181.003 296.273 180.792 296.63 180.606 296.977C180.291 297.553 180.041 298.105 179.914 298.519C179.845 298.754 179.811 298.943 179.818 299.089C179.82 299.125 179.827 299.157 179.832 299.19C179.852 299.281 179.895 299.351 179.959 299.395C179.988 299.413 180.02 299.424 180.055 299.424C180.455 299.424 181.75 297.854 182.288 297.089C182.308 297.06 182.327 297.033 182.345 297.005C182.379 296.954 182.413 296.905 182.435 296.864C182.463 296.822 182.483 296.786 182.497 296.757C182.512 296.729 182.531 296.701 182.556 296.663C182.58 296.626 182.604 296.582 182.634 296.535C182.95 296.006 183.571 294.887 183.556 294.253Z" fill="black"/>
<path d="M195.68 294.692C195.162 294.762 193.344 295.058 191.768 295.357C191.667 295.376 191.568 295.395 191.469 295.415C191.418 295.425 191.365 295.435 191.316 295.444C191.1 295.487 190.892 295.532 190.693 295.574C190.63 295.587 190.568 295.603 190.508 295.618C190.36 295.651 190.215 295.686 190.084 295.724C190.03 295.737 189.977 295.753 189.928 295.767C189.918 295.769 189.901 295.774 189.886 295.777C189.401 295.885 186.633 296.529 186.22 297.248C186.207 297.273 186.193 297.292 186.189 297.316C185.945 298.009 185.357 301.895 185.261 302.759H183.606L183.027 301.296L183.251 299.217L183.34 299.176C183.333 299.166 183.33 299.156 183.328 299.147C183.321 299.137 183.318 299.127 183.313 299.117L184.747 296.595L184.772 296.6L184.8 296.51L184.821 296.474L184.857 296.409L187.001 291.898L187.329 291.783L187.656 291.668L188.623 286.41C188.67 286.41 188.734 286.409 188.817 286.409C189.376 286.409 191.253 286.424 191.793 286.631C192.237 286.802 194.408 291.587 195.68 294.692Z" fill="#3FA9F5"/>
<path d="M182.509 296.219C182.519 296.219 182.526 296.217 182.532 296.216C182.551 296.21 182.567 296.201 182.581 296.188C182.488 296.354 182.393 296.511 182.298 296.66C182.245 296.766 182.144 296.922 182.014 297.104C181.992 297.056 181.985 296.998 181.985 296.951C181.984 296.87 182.001 296.805 182.001 296.804L182.03 296.704L181.112 296.51L181.495 295.839C181.569 295.73 181.642 295.621 181.72 295.517C182.277 296.16 182.444 296.221 182.509 296.219Z" fill="black"/>
<path d="M182.556 296.662C182.53 296.699 182.511 296.73 182.495 296.755C182.482 296.784 182.462 296.821 182.433 296.863C182.408 296.904 182.378 296.951 182.344 297.003C182.326 297.032 182.307 297.057 182.287 297.088C181.75 297.856 180.456 299.423 180.054 299.423C180.019 299.423 179.985 299.413 179.959 299.394C179.891 299.349 179.852 299.284 179.832 299.188C179.823 299.159 179.821 299.123 179.818 299.087C179.81 298.941 179.845 298.754 179.914 298.517C180.041 298.103 180.291 297.552 180.606 296.975C180.792 296.629 181.007 296.271 181.224 295.928L181.668 295.156L181.691 295.184L181.713 295.212C182.221 294.515 182.726 293.971 183.077 293.844C183.126 293.826 183.175 293.814 183.218 293.814C183.283 293.814 183.337 293.831 183.385 293.863C183.405 293.874 183.421 293.892 183.437 293.909C183.517 293.99 183.553 294.109 183.556 294.251C183.571 294.886 182.95 296.002 182.633 296.529C182.604 296.581 182.578 296.625 182.556 296.662ZM180.082 298.577C179.932 299.077 179.995 299.2 180.021 299.225C180.343 299.165 181.31 298.057 181.888 297.276C181.781 297.137 181.78 296.962 181.795 296.855L180.97 296.681C180.577 297.353 180.244 298.038 180.082 298.577ZM181.496 295.84L181.113 296.512L182.03 296.706L182.001 296.805C182.001 296.806 181.984 296.874 181.985 296.952C181.985 297.001 181.995 297.057 182.014 297.106C182.144 296.92 182.246 296.764 182.297 296.661C182.39 296.514 182.485 296.355 182.581 296.189C182.568 296.199 182.552 296.21 182.532 296.216C182.526 296.217 182.521 296.219 182.509 296.22C182.441 296.221 182.276 296.16 181.718 295.518C181.645 295.622 181.57 295.73 181.496 295.84ZM183.276 294.026C183.26 294.015 183.241 294.009 183.215 294.009C182.944 294.009 182.402 294.579 181.836 295.356C182.08 295.635 182.353 295.917 182.47 296.003C182.539 295.903 182.664 295.863 182.77 295.851C183.203 295.038 183.533 294.197 183.276 294.026Z" fill="black"/>
<path d="M121.997 315.882L122.043 315.853L122.01 313.181L123.679 312.162L130.98 312.289L130.998 312.28L134.023 311.16L134.152 304.922L139.608 303.589L151.28 303.558L151.895 302.428L161.782 301.878L161.849 300.875L163.907 300.667L163.722 300.521C163.718 300.517 163.432 300.289 163.439 300.007C163.444 299.845 163.546 299.69 163.749 299.548C163.898 299.441 164.34 299.317 165.58 299.317C166.722 299.317 168.11 299.42 169.128 299.495C169.629 299.532 170.028 299.563 170.258 299.568C170.951 299.59 171.721 300.112 172.142 300.589C172.401 300.881 172.537 301.166 172.518 301.369C172.456 302.015 172.352 302.17 171.887 302.258L171.916 302.463L178.743 301.816L182.956 301.418L183.532 302.897H185.356L185.366 302.678C185.375 302.631 186.048 297.971 186.299 297.248C186.496 296.682 188.966 296.021 189.903 295.815C191.553 295.353 194.999 294.868 195.632 294.782L195.642 294.806L195.712 294.799C195.713 294.799 195.845 294.787 196.034 294.787C196.564 294.787 196.948 294.876 197.118 295.032C197.304 295.205 197.306 295.549 197.308 295.883C197.309 296.172 197.311 296.444 197.418 296.647C197.643 297.063 199.559 300.305 199.642 300.442L199.669 300.487L199.718 300.491C200 300.507 227.809 302.151 234.014 302.915C234.493 302.974 235.04 303.029 235.642 303.115C245.032 304.436 258.181 306.973 258.181 306.973C259.2 306.99 259.603 307.31 259.638 307.579C259.67 307.826 259.414 308.076 258.991 308.2C258.98 308.206 258.695 308.349 258.311 308.58C256.603 308.766 246.309 309.785 230.232 308.969C221.915 308.549 203.919 308.714 182.468 310.034C151.905 311.919 133.042 314.926 122.6 317.114L122.144 317.211C121.277 317.201 120.969 317.113 120.929 317.064C120.915 317.037 120.896 317.013 120.877 316.986C120.833 316.925 120.81 316.892 120.819 316.842C120.856 316.677 121.24 316.36 121.997 315.882Z" fill="white" stroke="white" stroke-miterlimit="10"/>
<path d="M164.228 326.036L164.257 326.039C164.374 326.049 174.394 327.096 188.194 327.096C190.585 327.096 193.086 327.067 195.665 326.99C211.745 326.531 234.343 324.305 250.934 316.316C250.89 316.358 250.849 316.396 250.807 316.436C250.234 316.965 249.664 317.526 249.061 318.119C245.249 321.873 240.505 326.544 228.268 330.101C225.451 330.918 222.438 331.301 218.778 331.301C215.643 331.301 212.426 331.217 209.022 330.922C205.284 330.6 201.421 330.266 197.291 330.266C196.656 330.266 196.024 330.276 195.407 330.292C194.787 330.306 194.06 330.317 193.248 330.317C177.157 330.317 128.137 326.95 126.101 326.819L122.466 317.512L156.176 319.279L164.228 326.036Z" fill="white" stroke="white" stroke-miterlimit="10"/>
<path d="M174.17 302.193C174.17 302.193 173.52 301.438 173.662 300.544C173.806 299.654 174.004 299.199 174.551 299.042C175.098 298.885 175.839 298.815 175.991 298.892C176.142 298.969 177.987 299.702 178.407 299.846C178.827 299.992 179.979 300.753 180 301.104C180.026 301.455 180.092 301.567 180.234 301.912C180.378 302.253 180.594 303.798 180.594 303.798L177.811 304.105C177.811 304.105 177.841 303.019 177.637 302.943C177.431 302.871 174.716 302.593 174.531 302.487C174.351 302.386 174.17 302.193 174.17 302.193Z" fill="#996234"/>
<path d="M163.871 297.855C163.871 297.855 163.725 296.478 163.666 296.478C163.606 296.478 165.595 296.361 166.068 296.009C166.654 295.57 169.877 295.599 169.877 295.599L172.015 297.562L174.483 299.418C174.483 299.418 173.773 301.752 173.421 301.752C173.255 301.752 171.496 300.158 169.906 300.112C168.132 300.062 168.002 301.078 168.411 303.276C168.489 303.692 164.749 301.195 164.749 301.195C164.749 301.195 164.042 300.668 163.868 299.731C163.695 298.792 163.871 297.855 163.871 297.855Z" fill="#EF45B7"/>
<path d="M168.119 283.734C168.207 283.763 168.851 282.973 168.822 282.709C168.793 282.445 168.53 282.269 168.471 282.269C168.412 282.269 167.797 281.537 168.119 281.214C168.442 280.892 167.416 279.574 167.797 278.929C168.177 278.285 168.646 277.289 169.525 276.937C170.404 276.585 170.961 276.292 171.4 276.644C171.84 276.996 172.895 277.992 172.924 278.373C172.953 278.753 173.129 279.486 172.924 280.277C172.719 281.068 172.719 281.185 172.689 282.035C172.66 282.884 172.279 283.412 172.015 283.735C171.752 284.057 171.869 284.496 171.371 284.613C170.873 284.73 171.488 285.521 171.254 285.814C171.019 286.107 168.265 285.374 168.324 284.232C168.352 283.695 168.119 283.734 168.119 283.734Z" fill="#996234"/>
<path d="M168.208 282.591C168.208 282.591 167.71 282.591 167.768 282.181C167.825 281.771 167.934 281.068 167.763 280.892C167.592 280.716 167.065 280.394 167.24 279.896C167.416 279.398 167.621 279.105 167.504 278.636C167.387 278.167 167.504 277.787 167.885 277.552C168.265 277.318 168.562 277.377 169 277.172C169.44 276.966 169.791 276.469 170.287 276.381C170.785 276.292 171.371 275.941 171.781 276.381C172.192 276.82 172.484 276.82 172.602 277.113C172.719 277.405 172.573 277.084 172.748 277.787C172.924 278.49 173.275 278.636 173.041 279.017C172.806 279.398 172.601 278.695 172.396 278.666C172.191 278.637 172.308 278.314 171.752 278.666C171.195 279.017 171.4 278.9 170.58 278.724C169.76 278.549 169.32 278.08 169.07 278.93C168.821 279.779 168.965 279.633 169.07 280.307C169.174 280.981 169.07 281.273 169.07 281.273C169.07 281.273 169.025 280.951 168.705 281.01C168.382 281.068 168.324 281.127 168.353 281.479C168.382 281.83 168.559 282.24 168.5 282.358C168.441 282.475 168.208 282.591 168.208 282.591Z" fill="#301705"/>
<path d="M172.25 289.271C172.25 289.271 174.183 292.436 174.681 292.728C175.18 293.021 176.205 293.607 176.585 293.695C176.966 293.783 179.369 294.164 180.394 294.105C181.419 294.047 181.595 293.737 181.976 294.112C182.357 294.488 182.533 294.75 182.679 294.457C182.825 294.164 182.738 294.105 182.679 293.666C182.621 293.226 182.679 292.991 183.089 292.933C183.5 292.875 184.127 293.343 183.958 292.816C183.792 292.289 183.851 292.054 183.176 292.113C182.502 292.172 182.384 292.67 181.916 292.728C181.447 292.785 181.242 292.787 180.421 292.669C179.601 292.552 177.286 291.175 176.788 291.146C176.291 291.117 176.261 290.736 175.939 290.414C175.617 290.092 174.327 288.51 174.327 288.51" fill="#996234"/>
<path d="M163.666 290.883C163.783 289.242 164.369 286.635 165.365 285.492C166.361 284.349 166.654 284.379 167.386 284.057C168.118 283.734 168.499 283.823 168.499 283.823C168.499 283.823 168.538 284.994 169.134 285.2C169.73 285.405 171.136 285.786 171.224 285.551C171.312 285.317 171.107 285.168 171.283 284.964C171.458 284.759 171.752 284.204 171.957 284.321C172.162 284.438 173.187 284.848 173.304 285.376C173.422 285.903 173.539 286.606 173.832 287.016C174.125 287.426 174.301 288.071 174.301 288.071C174.301 288.071 174.389 288.305 174.476 288.569C174.564 288.832 173.715 288.803 173.158 289.887C172.601 290.971 171.986 289.272 171.986 289.272C171.986 289.272 172.66 288.832 172.045 289.77C172.045 289.77 171.107 291.205 171.049 291.41C170.99 291.616 170.756 292.142 170.785 292.67C170.814 293.198 171.108 293.754 171.049 294.311C170.99 294.868 171.06 295.366 170.366 295.629C169.673 295.892 168.911 295.834 168.061 295.922C167.211 296.01 166.163 295.964 165.775 296.303C165.388 296.642 165.014 296.361 164.545 296.478C164.076 296.596 164.047 296.889 163.666 296.478C163.285 296.068 163.891 294.779 163.793 294.486C163.694 294.193 163.442 293.549 163.537 292.582C163.636 291.616 163.666 290.883 163.666 290.883Z" fill="#8BC7E8"/>
<path d="M167.052 292.86C167.052 292.86 167.674 294.901 168.021 295.292C168.37 295.681 168.927 296.581 169.222 296.93C169.52 297.279 172.142 299.967 172.456 300.201C172.772 300.435 174.294 301.773 174.294 301.773L176.448 301.527C176.448 301.527 175.021 299.997 174.319 299.251C173.619 298.504 171.296 295.629 171.163 295.369C171.031 295.106 170.275 294.324 170.072 293.957C169.866 293.596 169.833 292.846 169.665 292.162C169.496 291.478 169.206 290.593 169.206 290.593C169.206 290.593 166.497 290.269 166.414 290.907C166.328 291.544 167.052 292.86 167.052 292.86Z" fill="#996234"/>
<path d="M168.47 303.246C168.47 303.246 167.874 302.446 168.079 301.567C168.284 300.688 168.518 300.249 169.073 300.132C169.63 300.014 170.372 299.995 170.521 300.083C170.667 300.171 172.454 301.03 172.864 301.206C173.275 301.382 174.366 302.221 174.366 302.573C174.366 302.924 174.425 303.042 174.542 303.393C174.659 303.745 174.806 304.741 174.806 304.741L171.992 305.039C171.992 305.039 172.079 304.331 171.877 304.244C171.677 304.156 168.987 303.688 168.811 303.57C168.635 303.453 168.47 303.246 168.47 303.246Z" fill="#996234"/>
<path opacity="0.6" d="M-0.689453 318.996H379.051L379.516 375.605H-0.223516L-0.689453 318.996Z" fill="#33EFFF"/>
<path d="M58.2085 203.967H44.2632V246.623H58.2085V203.967Z" fill="#0C0C0C"/>
<path d="M83.2529 241.854C74.927 227.448 66.6127 213.038 58.2948 198.627C57.6268 197.472 56.9771 196.303 56.2848 195.162C54.7693 192.666 52.2235 191.463 49.5713 192.026C47.5623 192.453 46.1766 193.723 45.1707 195.465C39.122 205.947 33.0699 216.427 27.0184 226.906C24.0835 231.99 21.1393 237.07 18.219 242.162C16.3337 245.449 17.2037 249.146 20.2416 250.892C21.4346 251.579 22.7354 251.793 24.0948 251.792C32.9776 251.786 41.8599 251.79 50.7427 251.79C52.3576 251.79 53.9729 251.79 55.5877 251.79C62.9944 251.788 70.4012 251.801 77.8084 251.782C81.3071 251.772 83.8871 249.694 84.3493 246.551C84.5991 244.854 84.0994 243.319 83.2529 241.854ZM54.6427 204.159L53.4788 232.03H48.3052L47.206 204.159H54.6427ZM50.9246 244.446C48.639 244.446 46.786 242.593 46.786 240.307C46.786 238.022 48.639 236.169 50.9246 236.169C53.2098 236.169 55.0632 238.022 55.0632 240.307C55.0632 242.593 53.2107 244.446 50.9246 244.446Z" fill="#070707"/>
<path d="M80.207 240.444C72.6629 227.389 65.1296 214.333 57.5926 201.275C56.9875 200.229 56.3987 199.169 55.7715 198.136C54.3985 195.874 52.0918 194.785 49.6885 195.295C47.8684 195.681 46.6126 196.832 45.7014 198.41C40.2203 207.908 34.7364 217.404 29.2534 226.899C26.5942 231.506 23.9265 236.108 21.28 240.722C19.5718 243.701 20.3603 247.05 23.1128 248.632C24.1937 249.255 25.3721 249.449 26.604 249.448C34.6525 249.442 42.7009 249.446 50.7498 249.446C52.2128 249.446 53.6767 249.446 55.1396 249.446C61.8507 249.444 68.5623 249.456 75.2739 249.438C78.444 249.43 80.7817 247.547 81.2003 244.699C81.4267 243.161 80.9743 241.77 80.207 240.444ZM54.2837 206.288L53.229 231.542H48.5415L47.5454 206.288H54.2837ZM50.9143 242.792C48.8434 242.792 47.1643 241.113 47.1643 239.042C47.1643 236.971 48.8434 235.292 50.9143 235.292C52.9853 235.292 54.6643 236.971 54.6643 239.042C54.6643 241.113 52.9857 242.792 50.9143 242.792Z" fill="#F9E132"/>
<path d="M376.036 347.146C358.28 350.357 347.352 349.559 334.687 349.514C323.413 349.499 319.15 347.241 299.355 345.738C287.126 345.369 277.457 345.742 264.505 346.402C255.077 346.881 233.397 348.007 223.655 346.49C205.116 341.441 158.205 342.489 137.024 345.763C115.843 349.038 124.989 343.747 111.51 344.251C98.0312 344.751 100.197 346.771 93.4576 345.003C86.7184 343.24 83.7685 337.887 78.0263 338.904C77.3757 339.293 78.1501 342.42 63.7295 334.861C58.6749 332.212 52.854 332.283 49.2568 332.224C45.6826 332.166 37.7166 334.054 33.1435 330.525C27.8701 327.429 12.5991 338.219 7.30367 341.238C2.0082 344.269 -0.630859 342.494 -0.630859 342.494L0.189453 376.35L376.236 376.819L376.036 347.146Z" fill="#D8BD80"/>
<path d="M53.5098 302.404H58.209L51.2898 312.483L44.3691 302.404H47.8848V301.936H53.5098V302.404Z" fill="#F90606"/>
<path d="M53.7441 262.912H47.8848V302.404H53.7441V262.912Z" fill="#FC3232"/>
<rect x="315.775" y="15.2949" width="44.0746" height="25" rx="12.5" fill="#969696" fill-opacity="0.3"/>
<path d="M328.975 29.7148H330.527V30.4053H328.975V32.9209H328.155V30.4053H323.472V29.9404L328.08 22.9678H328.975V29.7148ZM324.477 29.7148H328.155V24.0273L327.792 24.6562L324.477 29.7148ZM331.73 33.7754H330.985L335.141 22.9678H335.879L331.73 33.7754ZM343.515 32.9209H337.281V32.292L340.692 28.4229C341.257 27.7712 341.649 27.2334 341.868 26.8096C342.086 26.3857 342.196 25.9733 342.196 25.5723C342.196 24.9434 342.011 24.4466 341.642 24.082C341.273 23.7129 340.765 23.5283 340.118 23.5283C339.448 23.5283 338.905 23.7425 338.491 24.1709C338.081 24.5993 337.875 25.1553 337.875 25.8389H337.062C337.062 25.2783 337.187 24.7679 337.438 24.3076C337.693 23.8473 338.053 23.4873 338.518 23.2275C338.987 22.9632 339.521 22.8311 340.118 22.8311C341.029 22.8311 341.74 23.0703 342.25 23.5488C342.765 24.0273 343.023 24.679 343.023 25.5039C343.023 25.9688 342.877 26.4769 342.585 27.0283C342.298 27.5798 341.79 28.2679 341.061 29.0928L338.286 32.2305H343.515V32.9209ZM350.071 29.7148H351.623V30.4053H350.071V32.9209H349.25V30.4053H344.568V29.9404L349.175 22.9678H350.071V29.7148ZM345.573 29.7148H349.25V24.0273L348.888 24.6562L345.573 29.7148Z" fill="black"/>
</g>
<defs>
<linearGradient id="paint0_linear" x1="188.037" y1="374.902" x2="188.037" y2="0.29469" gradientUnits="userSpaceOnUse">
<stop offset="0.0131" stop-color="white"/>
<stop offset="1" stop-color="#4FC3F7"/>
</linearGradient>
<clipPath id="clip0">
<rect width="375" height="375" fill="white" transform="translate(0.775391 0.294922)"/>
</clipPath>
</defs>
</svg>
