<svg width="376" height="376" viewBox="0 0 376 376" fill="none" xmlns="http://www.w3.org/2000/svg">
<g clip-path="url(#clip0)">
<path d="M-40.0051 -4.48145H383.127L381.482 414.595H-38.5272L-40.0051 -4.48145Z" fill="url(#paint0_linear)"/>
<path opacity="0.8" d="M-16.4272 -7.71977L410.804 -8.54102L409.808 409.366H-17.9446L-16.4272 -7.71977Z" fill="#8BF6FF"/>
<path d="M96.9926 181.484C70.3901 179.771 -19.4881 180.034 -43.714 179.372C-43.9006 226.695 -43.4515 265.776 -41.4987 267.73C-36.4273 272.8 92.6711 290.321 100.51 289.399C108.348 288.477 196.412 269.113 210.704 261.736C223.72 255.018 238.644 195.171 243.646 176.512C208.9 180.899 124.039 183.224 96.9926 181.484Z" fill="#CCCCCC"/>
<path d="M243.646 177.316C244.137 175.484 244.534 174.041 244.823 173.093C248.052 162.488 247.589 148.195 247.128 143.584C246.669 138.974 219.162 134.364 219.162 134.364L197.65 109.005V74.4245L139.398 56.904L56.3261 15.8691L-49.5621 -0.173828C-49.5621 -0.173828 -43.3967 104.611 -43.6948 180.176C-19.4684 180.839 70.1397 183.236 96.7971 183.236C123.386 183.236 208.9 181.702 243.646 177.316Z" fill="#EAEAEA"/>
<path d="M197.65 74.3574H-27.3499V133.42H197.65V74.3574Z" fill="#D8D8D8"/>
<path d="M72.4939 32.1699H-24.0686V57.4824H72.4939V32.1699Z" fill="#D8D8D8"/>
<path d="M24.2126 -24.0801H-39.0686V25.1387H24.2126V-24.0801Z" fill="#D8D8D8"/>
<path d="M182.871 67.7954C182.871 70.4691 180.704 72.4829 178.031 72.4829H-18.8444C-21.5191 72.4829 -24.0686 71.6588 -24.0686 69.3531V66.8171C-24.0686 64.051 -21.5191 63.1074 -18.8449 63.1074H178.03C180.704 63.1079 182.871 65.1216 182.871 67.7954Z" fill="#E8CDA0"/>
<path d="M68.9136 27.0132C68.9136 29.687 66.7461 31.7007 64.0728 31.7007H-132.803C-135.476 31.7007 -137.975 31.0149 -137.975 28.7096V26.1741C-137.975 23.4076 -135.476 22.3262 -132.333 22.3262H64.542C66.7461 22.3257 68.9136 24.3395 68.9136 27.0132Z" fill="#E8CDA0"/>
<path d="M-32.9067 143.366C-32.9067 143.366 227.323 146.136 239.525 144.128C251.728 142.119 246.751 142.868 246.751 142.868C246.751 142.868 248.933 151.09 246.538 164.379C245.487 170.202 238.932 173.049 238.932 173.049L127.732 173.784L-30.7655 173.478L-32.9067 143.366Z" fill="#D8D8D8"/>
<path d="M242.348 170.94C246.634 169.081 246.805 163.023 246.805 163.023C246.805 163.023 256.084 178.973 243.536 179.871C222.14 181.403 162.025 182.314 162.025 182.314V173.784C162.025 173.784 234.013 174.555 242.348 170.94Z" fill="#FF0000"/>
<path d="M163.806 142.923C163.203 142.522 153.62 137.299 152.788 134.086C151.955 130.873 152.558 130.069 151.755 125.249C150.951 120.429 148.542 116.01 152.156 113.199C155.772 110.386 154.711 105.767 155.944 105.767C157.177 105.767 164.779 105.566 167.807 106.57C170.834 107.575 175.371 109.19 175.764 112.436C176.159 115.682 179.671 120.429 179.07 123.441C178.468 126.454 177.664 129.466 176.86 131.274C176.056 133.081 177.234 136.033 177.035 137.129C176.837 138.225 175.779 142.119 173.206 142.922C170.634 143.726 163.806 142.923 163.806 142.923Z" fill="#E5CAB1"/>
<path d="M38.2659 138.974C38.2659 138.974 39.1879 67.0475 50.715 60.5928C62.2411 54.1381 64.0856 49.0662 71.0015 49.0662C77.917 49.0662 113.42 45.8389 118.491 49.0662C123.563 52.2936 149.782 61.054 150.243 67.5092C150.703 73.9639 158.542 117.304 150.243 144.968C148.358 151.251 144.952 161.434 140.811 173.567C126.721 214.858 107.887 278.738 107.887 288.36C107.887 300.809 112.958 301.27 117.569 306.341C122.179 311.412 116.647 313.564 116.647 313.564C116.647 313.564 105.581 309.107 104.198 308.184C102.815 307.262 97.7433 303.113 94.5154 306.801C91.2881 310.49 89.444 334.926 89.9053 336.309C90.3661 337.692 87.1387 341.918 93.5939 345.991C100.049 350.064 104.352 355.827 104.352 355.827C104.352 355.827 111.422 372.425 108.656 372.425C105.889 372.425 85.7559 362.128 85.2947 359.822C84.8334 357.517 86.2172 348.295 83.9118 346.452C81.6065 344.607 74.2293 339.535 74.2293 339.535L69.1579 297.118L71.924 271.759L52.0982 248.705C52.0982 248.705 55.3256 193.377 46.5656 180.928C37.8047 168.482 38.2659 138.974 38.2659 138.974Z" fill="#394963"/>
<path d="M91.2881 322.478C91.2881 322.478 71.6161 298.194 82.9889 300.346C94.3617 302.498 93.3863 313.562 94.7963 318.789C96.2063 324.014 104.198 320.942 105.12 325.859C106.043 330.776 105.12 332.006 105.12 332.006C105.12 332.006 118.03 329.24 119.567 334.772C121.103 340.306 122.948 351.985 114.341 344.915C105.735 337.846 98.6231 334.772 98.6231 334.772L94.7958 336.924C94.7958 336.924 96.5128 346.452 87.5991 351.062C78.6848 355.673 80.1923 358.748 82.0519 351.062C83.9109 343.378 86.0625 339.382 88.2145 337.538C90.3656 335.693 86.677 333.081 86.677 333.081C86.677 333.081 87.2433 326.09 87.2916 325.798C87.3403 325.508 91.2881 322.478 91.2881 322.478Z" fill="#626363"/>
<path d="M97.1439 332.543C95.6655 323.085 99.093 322.838 101.721 325.655C104.349 328.472 105.48 330.402 103.098 331.015C100.717 331.625 97.1439 332.543 97.1439 332.543Z" fill="#394963"/>
<path d="M165.306 159.722V148.889H224.075L224.416 159.211L165.306 159.722Z" fill="#8C8C8C"/>
<path d="M165.306 155.525V148.889H215.153C215.153 148.889 215.797 154.761 215.276 154.854C214.754 154.946 165.306 155.525 165.306 155.525Z" fill="#606060"/>
<path d="M287.419 230.489C288.503 229.471 288.554 227.656 287.536 226.573L214.602 148.889H207.016L283.506 230.355C284.524 231.437 286.225 231.551 287.306 230.533L287.419 230.489Z" fill="#999999"/>
<path d="M276.869 218.264C276.869 216.969 275.82 215.92 274.525 215.92H231.4C230.105 215.92 229.056 216.969 229.056 218.264C229.056 219.558 230.105 220.607 231.4 220.607H274.525C275.82 220.607 276.869 219.558 276.869 218.264Z" fill="#B7B7B7"/>
<path d="M260.931 201.857C260.931 200.563 259.882 199.514 258.588 199.514H215.463C214.168 199.514 213.119 200.563 213.119 201.857C213.119 203.152 214.168 204.201 215.463 204.201H258.588C259.882 204.201 260.931 203.152 260.931 201.857Z" fill="#B7B7B7"/>
<path d="M245.931 184.982C245.931 183.688 244.882 182.639 243.588 182.639H200.463C199.168 182.639 198.119 183.688 198.119 184.982C198.119 186.277 199.168 187.326 200.463 187.326H243.588C244.882 187.326 245.931 186.277 245.931 184.982Z" fill="#B7B7B7"/>
<path d="M230.463 167.639C230.463 166.344 229.414 165.295 228.119 165.295H184.994C183.699 165.295 182.65 166.344 182.65 167.639C182.65 168.933 183.699 169.982 184.994 169.982H228.119C229.414 169.982 230.463 168.933 230.463 167.639Z" fill="#B7B7B7"/>
<path d="M243.618 232.333C244.7 231.315 244.753 229.613 243.735 228.532L169.197 149.135L165.306 149.117V153.055L239.828 232.321C240.847 233.404 242.487 233.456 243.568 232.438L243.618 232.333Z" fill="#999999"/>
<path d="M243.298 231.236C243.776 230.642 243.68 229.774 243.086 229.298L243.043 229.263C242.449 228.787 241.582 228.882 241.105 229.475L240.568 230.145C240.091 230.74 240.188 231.606 240.78 232.084L240.823 232.117C241.418 232.595 242.284 232.498 242.762 231.905L243.298 231.236Z" fill="#7A7A7A"/>
<path d="M287.483 229.628C287.961 229.034 287.864 228.167 287.272 227.691L287.227 227.656C286.634 227.179 285.767 227.276 285.29 227.868L284.752 228.538C284.275 229.132 284.371 229.999 284.964 230.476L285.008 230.51C285.602 230.987 286.469 230.892 286.945 230.298L287.483 229.628Z" fill="#7A7A7A"/>
<g opacity="0.7">
<path opacity="0.6" d="M69.1574 297.121L74.2288 339.538C74.2288 339.538 80.7664 344.033 83.4556 346.098C82.9733 347.553 82.5041 349.197 82.0522 351.065C80.3736 358.004 78.9847 356.171 85.2899 352.356C85.3292 355.366 85.0471 358.59 85.2941 359.826C85.7553 362.131 105.889 372.429 108.655 372.429C111.421 372.429 104.352 355.831 104.352 355.831C104.352 355.831 100.048 350.068 93.5933 345.995C93.4621 345.912 93.3406 345.829 93.2174 345.747C95.6075 341.433 94.7961 336.929 94.7961 336.929L98.6235 334.777C98.6235 334.777 105.735 337.851 114.342 344.921C122.948 351.99 121.104 340.311 119.567 334.777C118.03 329.243 105.12 332.011 105.12 332.011C105.12 332.011 106.043 330.781 105.12 325.864C104.199 320.947 96.2066 324.019 94.7966 318.794C94.1849 316.527 94.0213 313.161 93.1044 309.9C93.5385 308.471 94.0105 307.384 94.5158 306.805C97.7431 303.117 102.815 307.266 104.199 308.188C105.582 309.111 116.647 313.568 116.647 313.568C116.647 313.568 122.18 311.416 117.569 306.345C112.959 301.274 107.887 300.811 107.887 288.364C107.887 288.277 107.893 288.177 107.896 288.081C131.175 283.404 198.377 268.115 210.704 261.753C213.059 260.537 215.477 257.579 217.886 253.442L-31.4162 253.712L-31.5269 270.833C-10.5939 275.432 38.1711 282.513 70.317 286.49L69.1574 297.121ZM90.8821 321.969C91.1403 322.295 91.288 322.478 91.288 322.478C91.288 322.478 91.0855 322.634 90.7733 322.876C90.8085 322.575 90.845 322.273 90.8821 321.969Z" fill="#39BCC4"/>
</g>
<path d="M207.488 96.8574C208.492 97.3262 214.005 100.861 215.367 102.668C216.727 104.476 217.489 105.239 217.711 108.017C217.933 110.795 221.669 111.541 220.384 113.75C219.099 115.959 217.23 121.109 217.028 121.912C216.827 122.716 211.882 124.535 208.581 123.731C205.28 122.928 205.507 133.354 203.198 134.358C200.888 135.362 193.84 128.242 193.832 126.954C193.829 126.528 192.427 125.549 190.92 125.951C189.414 126.352 183.087 126.809 182.686 126.029C182.285 125.249 179.53 128.678 177.865 127.519C176.199 126.361 177.482 122.626 176.62 121.026C175.758 119.425 175.357 110.2 175.256 108.995C175.155 107.79 176.762 96.8584 176.762 96.8584H207.491V96.8574H207.488Z" fill="#5B422C"/>
<path d="M173.538 74.2356C168.812 74.2356 155.772 66.6039 153.993 67.5091C153.993 67.5091 155.671 54.4525 154.466 50.7372C153.261 47.0214 159.75 34.7083 161.287 33.6832C162.825 32.658 173.747 29.7494 175.253 30.6532C176.759 31.5569 184.291 35.4733 184.794 37.4819C185.295 39.4905 187.606 45.1296 191.322 47.6322C195.037 50.1349 203.294 50.838 204.738 50.9383C206.184 51.0391 209.397 48.5444 210.2 47.6322C211.004 46.7205 212.309 42.2017 212.611 41.3983C212.912 40.5949 212.109 38.2853 213.113 38.2853C214.117 38.2853 227.574 41.298 228.778 41.6997C229.983 42.101 231.388 37.6825 235.105 43.4069C238.82 49.1308 240.427 60.9803 240.327 61.8841C240.226 62.7878 239.523 66.4033 239.724 67.608C239.926 68.8132 239.724 70.3192 239.724 70.9216C239.724 71.5244 237.893 72.9021 237.904 72.5646C237.917 72.2271 233.498 72.0264 231.992 72.2271C230.485 72.4281 224.862 72.8294 223.858 73.0305C222.853 73.2316 224.693 74.7377 222.483 76.7463C220.274 78.7549 220.429 88.9975 219.339 88.9975C218.247 88.9975 216.927 104.06 200.259 103.759C199.644 103.749 198.626 105.919 194.226 106.63C186.346 107.901 175.19 104.018 175.253 103.759C175.354 103.358 169.228 104.145 169.228 104.145L173.538 74.2356Z" fill="#F9F9F9"/>
<path d="M214.942 144.295C211.716 144.069 208.883 143.58 206.368 141.069C203.855 138.558 200.089 136.814 199.549 133.42C199.01 130.025 200.794 129.739 199.549 128.784C198.305 127.83 199.334 121.254 199.1 120.46C198.867 119.665 201.114 119.25 200.848 117.653C200.583 116.056 202.265 111.767 204.349 111.682C206.431 111.598 212.664 108.869 213.901 109.623C215.137 110.376 216.462 109.987 217.885 110.92C219.32 111.861 219.149 111.205 220.875 113.144C222.601 115.085 225.861 116.159 226.393 119.353C226.924 122.548 226.027 125.197 226.686 126.577C227.344 127.958 226.683 131.603 227.028 132.593C227.371 133.585 226.667 134.618 227.314 136.401C227.96 138.184 227.405 139.412 225.265 141.107C223.123 142.802 218.387 145.004 216.999 145.463C215.61 145.922 214.942 144.295 214.942 144.295Z" fill="#E5CAB1"/>
<path d="M162.211 35.4638C164.956 33.0535 171.953 30.6474 172.555 32.4549C173.157 34.2624 170.696 41.994 172.505 45.609C174.311 49.224 171.479 66.0713 172.585 68.4816C173.69 70.8915 173.1 88.9552 173.1 88.9552C173.1 88.9552 177.293 99.6474 177.895 101.227C178.496 102.807 175.483 118.042 175.483 121.268C175.483 124.494 173.674 131.723 173.674 135.337C173.674 138.952 173.762 142.567 174.967 144.374C176.171 146.181 184.626 156.68 184.626 156.68L185.463 165.316L184.434 165.365L180.248 160.783C180.248 160.783 177.972 160.181 177.262 160.998C175.502 163.023 175.853 164.272 175.853 164.272L181.221 169.982L178.36 171.684C178.36 171.684 175.346 172.286 173.54 171.684C171.733 171.081 167.058 169.101 166.127 166.174C165.307 163.596 161.02 157.741 161.623 156.178C162.226 154.615 161.623 150.108 162.827 148.144C164.033 146.18 164.032 145.705 162.827 140.821C161.623 135.938 159.726 132.459 159.486 128.475C159.246 124.491 156.869 115.454 156.869 110.031C156.869 104.608 156.869 91.5071 156.869 91.5071C156.869 91.5071 160.395 75.6886 159.526 73.8811C158.657 72.0736 157.978 55.8066 156.799 53.9987C155.621 52.1916 162.211 35.4638 162.211 35.4638Z" fill="#F9DBBD"/>
<path d="M213.112 48.8287C213.313 49.6321 218.182 67.6574 220.593 72.8793C223.003 78.1012 225.64 90.5282 226.041 92.7374C226.442 94.9466 227.058 102.366 226.053 104.775C225.048 107.186 224.452 131.079 224.452 134.895C224.452 138.711 221.965 142.323 221.766 143.327C221.563 144.331 218.275 150.956 218.275 153.366C218.275 155.776 218.275 163.81 218.275 163.81L219.914 165.295H228.477C228.477 165.295 233.959 169.386 234.859 170.455L241.151 177.185C241.151 177.185 242.535 176.447 242.535 175.845C242.535 175.243 242.937 173.041 242.535 172.037C242.134 171.032 240.125 167.22 240.125 167.22C240.125 167.22 241.129 166.821 241.129 166.218C241.129 165.615 241.33 164.612 240.729 163.206C240.126 161.8 239.724 160.395 238.519 158.989C237.315 157.583 232.896 153.567 232.896 153.567L231.891 149.55L232.896 144.529C232.896 144.529 236.511 132.88 237.113 130.872C237.716 128.864 241.732 115.408 241.732 115.408L242.714 105.366C242.714 105.366 242.335 100.545 241.732 98.9385C241.13 97.3321 240.929 92.1102 240.929 89.901C240.929 87.6918 241.329 86.286 239.923 82.8716C238.518 79.4573 237.715 77.047 237.916 72.2273C238.117 67.4071 238.518 55.1559 237.314 52.3443C236.109 49.5323 234.502 43.1057 233.899 42.704C233.297 42.3023 228.678 40.8965 226.268 40.8965C223.857 40.8965 213.112 48.8287 213.112 48.8287Z" fill="#F9DBBD"/>
<path d="M173.538 74.2347C168.812 74.2347 155.772 66.6029 153.993 67.5081C153.993 67.5081 155.671 54.4515 154.466 50.7362C153.261 47.0204 159.75 34.7073 161.287 33.6822C162.825 32.657 173.747 29.7484 175.253 30.6522C176.759 31.5559 186.366 26.0659 186.868 28.074C187.37 30.0826 189.467 42.4178 193.183 44.9204C196.899 47.4231 203.292 50.837 204.737 50.9368C206.183 51.0376 209.395 48.5429 210.199 47.6308C211.002 46.719 212.307 42.2003 212.61 41.3968C212.911 40.5934 212.107 38.2839 213.111 38.2839C214.115 38.2839 218.362 33.3418 219.566 33.7436C220.771 34.1453 231.387 37.6811 235.104 43.4054C238.819 49.1293 240.426 60.9789 240.325 61.8826C240.225 62.7864 239.522 66.4018 239.723 67.6065C239.924 68.8117 239.723 70.3178 239.723 70.9201C239.723 71.5229 237.891 72.9006 237.903 72.5631C237.915 72.2256 233.497 72.025 231.991 72.2256C230.484 72.4267 224.861 72.8279 223.856 73.029C222.851 73.2301 221.647 72.2256 219.437 74.2342C217.228 76.2428 209.671 82.067 208.579 82.067C207.488 82.067 183.387 81.264 181.78 80.6612C180.172 80.0584 175.453 79.8578 175.554 79.4561C175.654 79.0543 174.65 74.5356 174.65 74.5356L173.538 74.2347Z" fill="#F9F9F9"/>
<path d="M183.347 18.9647C193.155 9.20864 191.296 5.27114 198.642 8.00489C205.988 10.7386 212.863 12.0549 213.641 15.4557C214.42 18.8564 216.923 24.9436 217.889 27.5489C218.856 30.1547 219.143 34.126 218.989 37.3083C218.836 40.4911 216.999 47.866 215.733 49.3679C214.465 50.8697 214.128 50.716 212.745 51.9741C211.361 53.2318 209.488 54.4121 205.658 55.2258C201.828 56.0391 202.787 56.6808 198.017 55.8774C193.245 55.0744 196.052 53.9733 191.433 54.3727C186.813 54.7716 190.814 58.6735 186.813 54.7716C182.814 50.8702 181.563 52.4269 183.013 49.1208C184.463 45.8147 182.269 42.5499 181.165 39.7435C180.059 36.9371 177.512 35.7596 177.979 34.4602C178.447 33.1613 176.588 34.2268 177.364 30.579C178.141 26.9311 180.836 19.2474 180.836 19.2474L183.347 18.9647Z" fill="#9E895A"/>
<rect x="315.775" y="15.2949" width="45.0996" height="25" rx="12.5" fill="#969696" fill-opacity="0.3"/>
<path d="M323.886 32.9209H323.066V23.9521L320.359 24.957V24.1914L323.75 22.9336H323.886V32.9209ZM332.951 28.3135C332.659 28.7419 332.297 29.0745 331.864 29.3115C331.431 29.5439 330.961 29.6602 330.456 29.6602C329.89 29.6602 329.391 29.5143 328.958 29.2227C328.526 28.931 328.191 28.5277 327.954 28.0127C327.717 27.4977 327.598 26.9349 327.598 26.3242C327.598 25.668 327.723 25.071 327.974 24.5332C328.229 23.9954 328.583 23.5785 329.034 23.2822C329.489 22.9814 330.014 22.8311 330.606 22.8311C331.604 22.8311 332.381 23.182 332.937 23.8838C333.493 24.5811 333.771 25.5723 333.771 26.8574V27.5957C333.771 29.3913 333.388 30.7402 332.623 31.6426C331.857 32.5449 330.688 32.9961 329.116 32.9961H328.965L328.972 32.2852H329.259C330.449 32.2669 331.353 31.9297 331.973 31.2734C332.593 30.6172 332.919 29.6305 332.951 28.3135ZM330.558 28.9561C331.105 28.9561 331.595 28.7943 332.028 28.4707C332.465 28.1426 332.775 27.7188 332.958 27.1992V26.7275C332.958 25.7158 332.746 24.932 332.322 24.376C331.903 23.8154 331.335 23.5352 330.62 23.5352C329.972 23.5352 329.442 23.7972 329.027 24.3213C328.612 24.8408 328.405 25.4971 328.405 26.29C328.405 27.0511 328.603 27.6868 329 28.1973C329.401 28.7031 329.92 28.9561 330.558 28.9561ZM335.624 33.7754H334.878L339.035 22.9678H339.773L335.624 33.7754ZM347.409 32.9209H341.174V32.292L344.585 28.4229C345.151 27.7712 345.542 27.2334 345.761 26.8096C345.98 26.3857 346.089 25.9733 346.089 25.5723C346.089 24.9434 345.905 24.4466 345.536 24.082C345.167 23.7129 344.658 23.5283 344.011 23.5283C343.341 23.5283 342.799 23.7425 342.384 24.1709C341.974 24.5993 341.769 25.1553 341.769 25.8389H340.956C340.956 25.2783 341.081 24.7679 341.332 24.3076C341.587 23.8473 341.947 23.4873 342.412 23.2275C342.881 22.9632 343.414 22.8311 344.011 22.8311C344.923 22.8311 345.634 23.0703 346.144 23.5488C346.659 24.0273 346.917 24.679 346.917 25.5039C346.917 25.9688 346.771 26.4769 346.479 27.0283C346.192 27.5798 345.684 28.2679 344.955 29.0928L342.179 32.2305H347.409V32.9209ZM353.964 29.7148H355.516V30.4053H353.964V32.9209H353.144V30.4053H348.461V29.9404L353.069 22.9678H353.964V29.7148ZM349.466 29.7148H353.144V24.0273L352.782 24.6562L349.466 29.7148Z" fill="black"/>
</g>
<defs>
<linearGradient id="paint0_linear" x1="171.56" y1="414.595" x2="171.56" y2="-4.4812" gradientUnits="userSpaceOnUse">
<stop offset="0.4692" stop-color="white"/>
<stop offset="0.5669" stop-color="#C1F0FF"/>
<stop offset="0.6844" stop-color="#7DE0FF"/>
<stop offset="0.7908" stop-color="#47D4FF"/>
<stop offset="0.8821" stop-color="#20CBFF"/>
<stop offset="0.9549" stop-color="#09C5FF"/>
<stop offset="1" stop-color="#00C3FF"/>
</linearGradient>
<clipPath id="clip0">
<rect width="375" height="375" fill="white" transform="translate(0.775146 0.294922)"/>
</clipPath>
</defs>
</svg>
