<svg width="376" height="376" viewBox="0 0 376 376" fill="none" xmlns="http://www.w3.org/2000/svg">
<g clip-path="url(#clip0)">
<path d="M-126.785 -212.438H476.981L477.722 390.697H-126.044L-126.785 -212.438Z" fill="url(#paint0_linear)"/>
<path d="M68.6538 168.316C67.7791 168.499 64.9835 174.554 65.8704 179.333C66.7591 184.111 69.3077 195.182 70.7707 197.005C72.2379 198.828 74.0777 202.087 74.0777 202.087C74.0777 202.087 67.6094 205.562 66.5772 207.837C66.5772 207.837 66.5791 208.769 67.3694 208.646C68.1597 208.519 75.0588 208.145 75.3832 208.92C75.7076 209.692 76.3376 213.713 76.4402 214.239C76.5471 214.761 76.2565 217.137 76.1557 217.989C76.113 218.342 73.999 221.748 74.3838 222.517C74.7771 223.288 77.6397 223.314 79.2372 223.277C80.8315 223.241 89.3421 217.541 90.5271 216.49C91.7135 215.443 92.0477 202.764 92.0477 202.764C92.0477 202.764 89.628 186.188 90.2219 186.153C90.8168 186.119 94.8288 184.503 96.1174 183.011C97.4069 181.516 96.9279 174.29 96.3208 173.138C95.7016 171.982 81.7718 165.549 68.6538 168.316Z" fill="#36627A"/>
<path d="M75.1597 214.052C75.1597 214.052 76.5378 213.771 76.6166 213.943C76.6958 214.116 76.9977 214.593 76.9325 215.514C76.8669 216.438 77.2213 217.608 76.4947 217.696C75.7681 217.785 75.2684 217.788 75.2684 217.788C75.2684 217.788 74.0581 220.774 72.193 221.677C70.3269 222.581 69.0716 222.273 70.2205 221.091C71.3656 219.909 73.5214 218.517 73.3152 218.03C73.1108 217.546 69.4958 218.043 69.4958 218.043L69.5281 215.12C69.5281 215.12 72.2914 214.853 72.4283 214.906C72.5661 214.959 73.6077 214.185 72.8169 213.843C72.0256 213.502 68.6211 213.849 69.1644 212.642C69.7091 211.436 69.5773 211.447 70.8627 211.285C72.1503 211.122 73.7966 211.757 74.5269 212.641C75.2539 213.523 75.1597 214.052 75.1597 214.052Z" fill="#6C808C"/>
<path d="M147.918 206.953L134.915 196.073L80.3665 192.976C97.3938 189.473 129.655 184.349 177.713 181.387C212.24 179.261 241.17 179.039 254.551 179.716C278.881 180.951 295.25 179.536 299.407 179.112C298.7 179.559 297.662 180.261 297.034 180.847C296.554 181.288 296.133 181.888 295.543 182.717C294.362 184.399 292.548 186.825 288.548 190.598L288.148 190.96C261.442 203.972 225.241 207.806 199.239 208.547C171.701 209.332 149.081 207.075 147.918 206.953Z" fill="#FF0000"/>
<path d="M178.732 163.391C178.499 162.92 178.312 162.567 178.165 162.301C178.088 162.169 178.023 162.058 177.964 161.967C177.675 161.506 177.58 161.505 177.522 161.503L177.357 161.605C177.278 161.753 177.191 161.913 177.089 162.078C177.022 162.188 176.951 162.302 176.877 162.419C176.836 162.477 176.798 162.535 176.761 162.593C175.707 164.123 173.959 165.923 172.909 165.647C172.409 165.513 172.107 165.176 171.987 164.605C171.971 164.539 171.962 164.469 171.953 164.4C171.945 164.327 171.937 164.252 171.937 164.174C171.871 162.145 173.681 158.17 176.056 155.634C176.421 155.244 176.801 154.888 177.19 154.581C177.404 154.407 177.649 154.233 177.908 154.085C178.324 153.848 178.774 153.678 179.191 153.699C179.348 153.706 179.501 153.742 179.649 153.809C179.881 153.917 180.036 154.097 180.122 154.363C180.178 154.536 180.2 154.739 180.2 154.953C180.185 156.469 178.896 158.773 178.879 158.801L178.783 158.973L180.888 159.581L178.732 163.391ZM178.992 155.899C178.984 155.665 178.927 155.474 178.798 155.345C178.773 155.318 178.745 155.296 178.712 155.274C178.634 155.222 178.543 155.195 178.444 155.195C178.374 155.195 178.302 155.211 178.218 155.241C177.653 155.443 176.841 156.32 176.022 157.444L175.984 157.399L175.948 157.356L175.232 158.598C174.877 159.151 174.538 159.727 174.237 160.285C173.731 161.216 173.33 162.103 173.124 162.768C173.011 163.147 172.958 163.453 172.97 163.686C172.976 163.744 172.985 163.798 172.993 163.847C173.025 163.996 173.095 164.107 173.199 164.176C173.246 164.207 173.297 164.221 173.352 164.221C173.996 164.221 176.082 161.694 176.949 160.46C176.98 160.413 177.011 160.371 177.04 160.326C177.092 160.244 177.147 160.166 177.184 160.1C177.23 160.034 177.262 159.976 177.282 159.93C177.308 159.887 177.338 159.839 177.38 159.778C177.418 159.718 177.459 159.649 177.507 159.571C178.016 158.721 179.015 156.92 178.992 155.899Z" fill="black"/>
<path d="M198.511 156.606C197.678 156.721 194.752 157.197 192.212 157.676C192.049 157.706 191.89 157.738 191.733 157.769C191.65 157.785 191.568 157.802 191.486 157.818C191.139 157.887 190.803 157.959 190.482 158.029C190.382 158.051 190.284 158.074 190.189 158.098C189.947 158.152 189.716 158.209 189.502 158.267C189.415 158.29 189.331 158.312 189.251 158.336C189.235 158.338 189.211 158.344 189.184 158.351C188.403 158.524 183.945 159.562 183.28 160.718C183.259 160.757 183.24 160.788 183.229 160.826C182.839 161.944 181.89 168.2 181.733 169.593H179.069L178.136 167.238L178.498 163.892L178.64 163.826C178.631 163.81 178.624 163.795 178.619 163.778C178.609 163.763 178.603 163.747 178.596 163.731L180.908 159.669L180.942 159.678L180.989 159.53L181.023 159.471L181.082 159.367L184.532 152.105L185.06 151.92L185.59 151.734L187.142 143.269C187.218 143.269 187.323 143.268 187.454 143.268C188.359 143.268 191.379 143.293 192.248 143.622C192.969 143.902 196.464 151.607 198.511 156.606Z" fill="#3FA9F5"/>
<path d="M177.307 159.064C177.323 159.064 177.334 159.061 177.345 159.059C177.374 159.053 177.399 159.036 177.423 159.016C177.273 159.282 177.119 159.538 176.968 159.776C176.884 159.945 176.72 160.196 176.511 160.492C176.477 160.412 176.464 160.322 176.464 160.246C176.462 160.115 176.488 160.01 176.489 160.006L176.537 159.845L175.06 159.533L175.677 158.454C175.795 158.277 175.915 158.104 176.039 157.935C176.933 158.969 177.201 159.068 177.307 159.064Z" fill="black"/>
<path d="M177.38 159.779C177.341 159.84 177.311 159.891 177.285 159.931C177.264 159.977 177.233 160.035 177.187 160.101C177.145 160.169 177.097 160.244 177.042 160.328C177.013 160.371 176.983 160.414 176.951 160.461C176.087 161.697 174.001 164.222 173.354 164.222C173.299 164.222 173.244 164.208 173.202 164.178C173.094 164.107 173.028 163.999 172.996 163.849C172.984 163.801 172.978 163.744 172.976 163.687C172.961 163.454 173.017 163.15 173.126 162.769C173.332 162.104 173.734 161.218 174.242 160.286C174.542 159.728 174.885 159.153 175.235 158.601L175.951 157.357L175.988 157.4L176.026 157.444C176.843 156.321 177.655 155.443 178.221 155.241C178.301 155.213 178.377 155.195 178.448 155.195C178.551 155.195 178.639 155.222 178.716 155.275C178.746 155.294 178.776 155.32 178.802 155.345C178.931 155.476 178.988 155.668 178.994 155.898C179.015 156.918 178.019 158.72 177.506 159.569C177.46 159.649 177.417 159.719 177.38 159.779ZM173.398 162.862C173.154 163.669 173.257 163.867 173.3 163.906C173.818 163.81 175.375 162.024 176.304 160.769C176.134 160.544 176.131 160.262 176.156 160.088L174.827 159.807C174.197 160.891 173.66 161.995 173.398 162.862ZM175.675 158.456L175.056 159.534L176.533 159.847L176.485 160.007C176.483 160.009 176.456 160.116 176.458 160.247C176.459 160.324 176.474 160.413 176.507 160.492C176.714 160.195 176.879 159.944 176.963 159.777C177.111 159.539 177.266 159.282 177.419 159.017C177.396 159.035 177.37 159.052 177.34 159.059C177.33 159.061 177.322 159.064 177.303 159.064C177.197 159.068 176.929 158.969 176.029 157.935C175.914 158.104 175.795 158.277 175.675 158.456ZM178.541 155.535C178.516 155.518 178.481 155.508 178.441 155.508C178.006 155.508 177.133 156.425 176.219 157.676C176.612 158.125 177.05 158.582 177.243 158.718C177.351 158.556 177.553 158.493 177.723 158.473C178.422 157.164 178.955 155.811 178.541 155.535Z" fill="black"/>
<path d="M79.8799 190.722L79.953 190.675L79.9052 186.374L82.5916 184.731L94.3479 184.938L94.3751 184.928L99.2454 183.127L99.4498 173.082L108.239 170.938L127.03 170.885L128.02 169.065L143.939 168.181L144.045 166.568L147.356 166.232L147.056 165.995C147.051 165.992 146.591 165.621 146.6 165.17C146.609 164.908 146.773 164.659 147.101 164.43C147.341 164.258 148.053 164.056 150.049 164.056C151.885 164.056 154.123 164.221 155.762 164.341C156.57 164.401 157.209 164.451 157.583 164.461C158.7 164.495 159.939 165.337 160.616 166.103C161.032 166.573 161.251 167.034 161.222 167.359C161.121 168.398 160.953 168.649 160.204 168.79L160.251 169.12L171.241 168.078L178.026 167.439L178.954 169.822H181.89L181.906 169.47C181.921 169.397 183.003 161.892 183.408 160.728C183.725 159.817 187.705 158.752 189.212 158.423C191.869 157.677 197.418 156.897 198.436 156.759L198.452 156.796L198.562 156.786C198.564 156.786 198.78 156.766 199.081 156.766C199.931 156.766 200.547 156.909 200.826 157.16C201.129 157.438 201.13 157.993 201.132 158.533C201.135 158.997 201.137 159.436 201.312 159.763C201.672 160.431 204.758 165.649 204.892 165.87L204.936 165.941L205.015 165.947C205.47 165.973 250.243 168.62 260.231 169.849C261.005 169.944 261.889 170.034 262.856 170.17C277.973 172.298 299.146 176.383 299.146 176.383C300.784 176.412 301.433 176.926 301.49 177.358C301.541 177.758 301.128 178.161 300.448 178.36C300.428 178.37 299.973 178.602 299.35 178.97C296.604 179.272 280.031 180.911 254.144 179.598C240.754 178.92 211.778 179.187 177.241 181.315C128.032 184.348 97.6652 189.188 80.8516 192.714L80.1138 192.868C78.7179 192.85 78.222 192.71 78.1577 192.634C78.1385 192.588 78.109 192.548 78.078 192.507C78.003 192.409 77.9674 192.353 77.9852 192.276C78.042 192.002 78.6602 191.492 79.8799 190.722Z" fill="white" stroke="white" stroke-miterlimit="10"/>
<path d="M147.873 207.071L147.921 207.076C148.108 207.096 164.24 208.779 186.459 208.779C190.308 208.779 194.336 208.732 198.489 208.612C224.377 207.875 260.76 204.287 287.476 191.425C287.403 191.49 287.337 191.552 287.271 191.618C286.349 192.469 285.433 193.37 284.464 194.327C278.324 200.37 270.685 207.89 250.982 213.618C246.447 214.936 241.596 215.552 235.701 215.552C230.653 215.552 225.476 215.415 219.995 214.941C213.976 214.422 207.758 213.886 201.105 213.886C200.083 213.886 199.064 213.9 198.074 213.925C197.075 213.95 195.904 213.964 194.594 213.964C168.686 213.964 89.7631 208.545 86.4875 208.332L80.6333 193.343L134.908 196.19L147.873 207.071Z" fill="white" stroke="white" stroke-miterlimit="10"/>
<path d="M162.014 169.64C162.014 169.64 160.966 168.422 161.197 166.986C161.425 165.552 161.748 164.819 162.628 164.567C163.508 164.315 164.703 164.201 164.945 164.324C165.19 164.45 168.159 165.626 168.838 165.86C169.512 166.096 171.367 167.321 171.404 167.885C171.446 168.45 171.551 168.631 171.781 169.182C172.011 169.734 172.36 172.223 172.36 172.223L167.88 172.716C167.88 172.716 167.929 170.969 167.598 170.849C167.267 170.731 162.895 170.284 162.596 170.117C162.305 169.951 162.014 169.64 162.014 169.64Z" fill="#996234"/>
<path d="M145.431 162.655C145.431 162.655 145.195 160.439 145.101 160.439C145.006 160.439 148.207 160.25 148.968 159.684C149.912 158.982 155.1 159.024 155.1 159.024L158.544 162.184L162.519 165.173C162.519 165.173 161.375 168.93 160.809 168.93C160.542 168.93 157.711 166.362 155.149 166.289C152.296 166.206 152.083 167.844 152.743 171.383C152.867 172.051 146.847 168.033 146.847 168.033C146.847 168.033 145.711 167.184 145.429 165.675C145.149 164.165 145.431 162.655 145.431 162.655Z" fill="#EF45B7"/>
<path d="M152.271 139.92C152.413 139.967 153.45 138.694 153.402 138.269C153.355 137.845 152.933 137.562 152.836 137.562C152.742 137.562 151.752 136.382 152.27 135.863C152.789 135.344 151.138 133.222 151.751 132.184C152.364 131.146 153.119 129.542 154.534 128.976C155.95 128.41 156.847 127.939 157.553 128.504C158.261 129.071 159.96 130.674 160.006 131.288C160.053 131.901 160.337 133.08 160.006 134.354C159.676 135.628 159.676 135.816 159.628 137.184C159.581 138.551 158.968 139.402 158.544 139.921C158.119 140.439 158.308 141.146 157.506 141.335C156.704 141.523 157.694 142.797 157.318 143.268C156.94 143.739 152.506 142.56 152.601 140.721C152.645 139.855 152.271 139.92 152.271 139.92Z" fill="#996234"/>
<path d="M152.412 138.08C152.412 138.08 151.61 138.08 151.704 137.42C151.797 136.759 151.971 135.627 151.695 135.344C151.42 135.061 150.572 134.542 150.854 133.74C151.137 132.937 151.468 132.466 151.279 131.711C151.09 130.956 151.279 130.344 151.892 129.966C152.506 129.589 152.982 129.683 153.687 129.353C154.394 129.023 154.96 128.221 155.759 128.079C156.561 127.937 157.505 127.371 158.165 128.079C158.827 128.787 159.297 128.787 159.486 129.258C159.675 129.73 159.439 129.212 159.721 130.343C160.003 131.476 160.571 131.711 160.193 132.325C159.815 132.937 159.485 131.805 159.155 131.759C158.824 131.712 159.013 131.193 158.117 131.759C157.222 132.325 157.551 132.136 156.23 131.853C154.911 131.57 154.201 130.815 153.8 132.183C153.399 133.552 153.63 133.315 153.8 134.4C153.966 135.485 153.8 135.956 153.8 135.956C153.8 135.956 153.728 135.437 153.212 135.532C152.693 135.627 152.598 135.721 152.645 136.287C152.693 136.853 152.976 137.513 152.881 137.702C152.787 137.892 152.412 138.08 152.412 138.08Z" fill="#301705"/>
<path d="M158.922 148.835C158.922 148.835 162.036 153.929 162.838 154.401C163.64 154.873 165.289 155.816 165.903 155.956C166.517 156.099 170.385 156.711 172.036 156.617C173.686 156.523 173.968 156.026 174.583 156.629C175.196 157.231 175.48 157.654 175.715 157.183C175.951 156.711 175.81 156.617 175.715 155.909C175.621 155.201 175.715 154.824 176.376 154.73C177.035 154.638 178.047 155.39 177.774 154.541C177.508 153.692 177.601 153.315 176.515 153.409C175.429 153.503 175.241 154.306 174.486 154.4C173.732 154.493 173.401 154.494 172.08 154.305C170.759 154.117 167.032 151.899 166.23 151.853C165.429 151.805 165.381 151.193 164.863 150.674C164.344 150.156 162.268 147.608 162.268 147.608" fill="#996234"/>
<path d="M145.101 151.43C145.289 148.788 146.233 144.591 147.837 142.75C149.44 140.911 149.912 140.958 151.091 140.44C152.27 139.921 152.883 140.063 152.883 140.063C152.883 140.063 152.945 141.949 153.905 142.28C154.864 142.61 157.128 143.223 157.27 142.846C157.413 142.468 157.082 142.229 157.364 141.899C157.647 141.571 158.119 140.676 158.45 140.865C158.78 141.053 160.431 141.714 160.62 142.563C160.808 143.413 160.997 144.544 161.469 145.204C161.941 145.864 162.223 146.902 162.223 146.902C162.223 146.902 162.365 147.28 162.506 147.704C162.647 148.127 161.28 148.081 160.384 149.825C159.488 151.57 158.497 148.835 158.497 148.835C158.497 148.835 159.583 148.127 158.591 149.637C158.591 149.637 157.082 151.948 156.988 152.278C156.893 152.609 156.516 153.458 156.565 154.308C156.611 155.157 157.083 156.052 156.988 156.949C156.893 157.846 157.007 158.647 155.888 159.07C154.773 159.495 153.546 159.401 152.177 159.542C150.809 159.685 149.121 159.61 148.497 160.156C147.872 160.702 147.271 160.25 146.515 160.439C145.761 160.628 145.714 161.099 145.1 160.439C144.487 159.779 145.462 157.703 145.305 157.232C145.15 156.76 144.739 155.722 144.897 154.165C145.055 152.609 145.101 151.43 145.101 151.43Z" fill="#8BC7E8"/>
<path d="M150.553 154.612C150.553 154.612 151.553 157.897 152.115 158.525C152.675 159.15 153.572 160.599 154.048 161.162C154.527 161.724 158.748 166.054 159.254 166.431C159.764 166.805 162.212 168.959 162.212 168.959L165.682 168.56C165.682 168.56 163.385 166.099 162.255 164.896C161.124 163.693 157.383 159.063 157.172 158.643C156.959 158.222 155.741 156.957 155.416 156.373C155.086 155.789 155.033 154.582 154.76 153.481C154.488 152.38 154.019 150.954 154.019 150.954C154.019 150.954 149.659 150.433 149.524 151.462C149.388 152.491 150.553 154.612 150.553 154.612Z" fill="#996234"/>
<path d="M152.837 171.335C152.837 171.335 151.878 170.045 152.207 168.63C152.537 167.214 152.912 166.508 153.807 166.319C154.704 166.13 155.9 166.099 156.139 166.24C156.375 166.382 159.252 167.766 159.912 168.049C160.573 168.332 162.331 169.684 162.331 170.25C162.331 170.816 162.425 171.005 162.614 171.57C162.803 172.137 163.039 173.74 163.039 173.74L158.509 174.22C158.509 174.22 158.648 173.08 158.323 172.938C158 172.796 153.669 172.041 153.386 171.853C153.104 171.665 152.837 171.335 152.837 171.335Z" fill="#996234"/>
<path d="M112.43 166.718C112.43 166.718 112.939 168.5 112.61 170.693C112.28 172.886 112.21 174.762 113.015 175.451C113.821 176.139 113.023 177.499 113.804 177.678C114.311 177.793 122.316 176.737 122.968 176.914C123.619 177.091 125.74 176.583 126.071 176.774C126.401 176.965 129.169 176.535 129.601 176.614C130.034 176.694 129.781 175.844 130.202 175.666C130.622 175.488 131.391 173.523 131.391 173.523L131.354 172.703L130.201 170.898L129.595 169.27L129.041 168.946C129.041 168.946 128.708 168.7 128.471 168.182C128.233 167.663 128.094 166.971 127.962 166.414C127.83 165.858 127.738 164.959 127.291 165.163C126.842 165.367 112.43 166.718 112.43 166.718Z" fill="#32417F"/>
<path d="M105.716 154.234C105.716 154.234 105.173 162.007 105.264 162.216C105.356 162.425 105.098 164.017 104.641 166.242C104.184 168.469 104.289 174.107 104.336 174.649C104.385 175.191 104.196 176.336 104.209 176.482C104.222 176.627 103.656 177.222 103.228 177.735C102.8 178.247 103.263 178.131 103.263 178.131C103.263 178.131 103.828 178.338 104.199 178.412C104.57 178.488 105.838 178.413 106.252 178.556C106.666 178.702 109.144 178.3 109.324 178.282C109.506 178.268 109.841 177.945 109.805 177.549C109.77 177.149 109.271 176.866 109.271 176.866L107.691 176.315C107.691 176.315 107.65 175.444 107.593 175.231C107.538 175.018 108.802 171.225 108.873 169.981C108.943 168.735 109.106 168.1 108.965 167.349C108.825 166.596 108.864 164.589 108.887 164.441C108.911 164.293 109.335 161.704 109.605 161.061C109.875 160.417 109.296 155.989 109.316 155.805L105.716 154.234Z" fill="#FFCBA1"/>
<path d="M130.407 152.498C130.407 152.498 133.013 158.822 133.255 159.092C133.497 159.361 134.739 162.238 135.03 162.65C135.322 163.059 138.61 174.17 138.732 174.305C138.854 174.44 139.645 174.733 139.832 174.789C140.018 174.845 140.185 175.887 140.185 175.887L137.583 176.121L135.478 176.308C135.478 176.308 135.161 176.338 134.691 176.379C134.222 176.42 133.955 176.299 133.871 176.169C133.786 176.038 134.081 175.269 134.252 175.141C134.423 175.018 134.906 174.719 135.18 174.513C135.453 174.308 135.161 173.895 135.07 173.285C134.98 172.674 134.285 171.022 133.879 170.149C133.473 169.279 131.933 166.314 131.898 165.919C131.861 165.519 131.025 163.081 130.768 162.667C130.513 162.252 130.768 162.667 130.319 162.123C129.87 161.581 126.859 155.619 126.859 155.619L130.135 153.14L130.407 152.498Z" fill="#FFCBA1"/>
<path d="M131.644 152.895C131.66 153.074 130.995 153.79 130.679 153.928C130.365 154.065 128.842 154.966 128.605 155.17C128.367 155.374 127.476 156.401 127.463 156.657C127.45 156.913 127.355 158.306 127.368 158.45C127.381 158.595 128.129 161.663 128.299 161.937C128.47 162.211 128.583 165.519 128.556 166.029C128.529 166.542 128.706 170.111 127.76 170.122C126.813 170.134 123.137 170.572 122.365 170.496C121.593 170.419 117.354 171.491 116.853 171.608C116.356 171.726 112.794 171.424 112.253 170.672C111.711 169.92 110.923 163.999 110.921 163.563C110.918 163.126 110.375 158.693 110.375 158.693C110.375 158.693 110.063 156.426 109.915 156.402C109.767 156.379 108.013 156.317 106.863 156.093C105.714 155.868 105.061 155.489 105.061 155.489C105.061 155.489 104.898 154.485 104.954 154.298C105.01 154.11 106.024 148.737 106.38 147.431C106.736 146.124 112.301 144.386 112.617 144.249C112.933 144.112 119.502 143.014 119.939 143.011C120.376 143.009 124.398 144.398 125.223 144.651C126.048 144.905 128.7 145.652 129.717 147.237C130.733 148.822 131.509 152.615 131.628 152.714C131.628 152.714 131.628 152.715 131.644 152.895Z" fill="#FFFEF8"/>
<path d="M119.966 143.336C119.966 143.336 119.779 144.074 119.462 144.652C117.332 145.898 116.665 145.011 115.302 144.84C113.939 144.671 114.042 143.065 114.107 142.585C114.173 142.106 113.805 137.584 113.804 136.747C113.801 135.91 114.857 131.005 118.834 131.888C122.811 132.772 121.839 137.376 121.839 137.376C121.012 142.807 119.966 143.336 119.966 143.336Z" fill="#FFCBA1"/>
<path d="M115.951 142.595C115.951 142.595 113.927 142.86 113.393 140.546C112.86 138.232 113.298 138.427 113.186 135.966C113.075 133.506 110.501 132.964 114.143 131.95C117.783 130.935 120.475 129.634 120.989 131.111C121.503 132.589 122.038 133.211 121.841 133.753C121.643 134.297 122.021 135.146 121.982 135.677C121.943 136.208 121.288 137.745 121.288 137.745C121.288 137.745 119.778 138.242 119.765 138.565C119.751 138.887 119.224 139.62 119.266 140.282C119.308 140.944 120.147 141.07 119.324 141.561C118.501 142.053 117.791 142.517 117.791 142.517L115.951 142.595Z" fill="#9E5A2D"/>
<path d="M283.459 158.668C283.383 157.459 282.37 155.578 282.37 155.578C282.37 155.578 281.931 151.742 281.965 151.283C281.997 150.824 282.175 148.679 282.175 148.679L283.01 150.122L282.425 146.895C281.68 146.773 281.097 146.678 280.997 146.663C280.767 146.628 278.392 148.063 277.2 148.796L277.02 147.805C276.275 147.683 275.691 147.588 275.592 147.572C275.284 147.525 271.12 150.123 271.12 150.123C271.12 150.123 271.519 156.774 271.419 157.316C271.319 157.858 271.822 159.178 272.22 160.966C272.535 162.388 272.868 171.259 272.991 174.821L276.814 175.089C276.839 174.008 276.873 172.588 276.894 171.926C276.931 170.783 277.411 168.457 277.411 168.457C277.411 168.457 277.701 165.365 277.894 162.798C278.151 166.679 278.374 173.231 278.431 174.964C278.403 175.016 278.359 175.1 278.308 175.194L282.28 175.472L282.201 174.894C282.226 173.837 282.273 171.839 282.299 171.016C282.336 169.872 282.816 167.546 282.816 167.546C282.816 167.546 283.536 159.876 283.459 158.668ZM276.56 152.193C276.572 152.026 276.603 151.634 276.638 151.204C276.708 152.491 276.791 154.12 276.824 155.218C276.7 154.057 276.539 152.478 276.56 152.193Z" fill="#FFCBA1"/>
<path d="M283.961 136.752C283.961 136.752 284.218 140.325 283.786 140.766C283.353 141.207 284.041 143.546 284.086 143.942C284.13 144.339 283.714 146.862 284.061 147.149C284.408 147.437 284.649 149.979 284.649 149.979C284.649 149.979 284.474 151.517 284.092 151.713C283.71 151.91 283.099 151.959 282.241 152.209C281.384 152.458 280.14 152.209 280.14 152.209L280.095 151.447C280.095 151.447 279.251 153.282 279.077 153.219C278.903 153.154 271.603 152.652 271.603 152.652L270.064 152.797C270.064 152.797 269.772 150.261 269.761 149.3C269.749 148.34 269.638 145.466 269.323 144.694C269.007 143.923 270.094 141.016 270.094 141.016C270.094 141.016 270.093 135.167 271.068 135.316C272.044 135.464 282.506 133.479 282.506 133.479L283.961 136.752Z" fill="#F7931E"/>
<path d="M280.089 108.505C280.154 108.505 279.595 109.051 279.595 109.051C279.595 109.051 276.64 112.458 276.128 112.349C275.616 112.241 275.311 109.552 275.311 109.552C275.311 109.552 275.263 108.935 275.311 108.721C275.359 108.507 275.28 108.204 275.311 108.107C275.342 108.01 274.876 107.628 274.876 107.628L274.351 106.938L273.686 107.18C273.686 107.18 272.786 107.471 272.615 107.488C272.445 107.506 271.987 107.383 271.91 107.317C271.834 107.25 271.361 106.224 271.361 106.063C271.361 105.903 271.28 105.398 271.323 105.284C271.365 105.17 271.114 104.683 271.114 104.683C271.114 104.683 270.957 104.595 270.716 104.456C270.473 104.319 270.535 104.251 270.531 104.134C270.529 104.018 270.864 103.348 270.985 103.096C271.105 102.843 271.162 102.623 271.253 102.423C271.344 102.222 271.114 102.183 271.005 102.052C270.896 101.921 270.859 101.785 270.967 101.595C271.075 101.404 270.945 100.182 270.95 99.9325C270.954 99.6827 271.558 98.4199 271.712 98.1874C271.867 97.9549 273.624 96.8435 274.195 96.6864C274.766 96.5299 277.015 97.2119 277.148 97.2199C277.282 97.2269 278.886 98.4377 278.948 98.4503C279.01 98.4625 279.549 100.856 279.649 101.165C279.748 101.474 279.268 102.991 279.183 103.424C279.097 103.857 278.977 104.568 279.008 104.676C279.038 104.785 279.185 105.852 279.248 106.186C279.311 106.52 279.981 108.433 280.025 108.506" fill="#FFCBA1"/>
<path d="M279.271 105.74C279.271 105.74 279.265 104.933 279.309 104.817C279.354 104.702 279.344 104.404 279.423 104.289C279.504 104.175 279.225 102.749 279.225 102.749C279.225 102.749 278.586 102.045 278.534 101.863C278.484 101.681 276.344 99.926 276.107 99.7967C275.87 99.6673 275.078 100.17 275.078 100.17L275.927 100.99C275.927 100.99 276.023 101.427 275.943 101.8C275.865 102.173 275.865 101.912 275.865 101.912L276.371 102.283C276.371 102.283 276.805 102.552 276.96 102.696C277.113 102.84 277.229 102.884 277.229 102.884C277.229 102.884 277.405 103.52 277.349 103.553C277.292 103.587 277.451 104.392 277.427 104.581C277.404 104.771 277.546 104.933 277.551 105.083C277.556 105.232 278.041 105.426 278.041 105.426L278.653 105.855L279.208 105.829" fill="#662F09"/>
<path d="M277.205 96.4246C272.714 94.0832 270.984 98.8185 270.984 98.8185L279.215 103.081C280.472 100.669 280.972 98.3891 277.205 96.4246Z" fill="#908DFF"/>
<path d="M266.731 96.005C266.778 95.9276 266.852 95.8878 266.929 95.9333L271.439 98.6197C271.516 98.6647 271.545 98.7673 271.498 98.8442L271.448 98.9365C271.401 99.0144 271.307 99.0434 271.23 98.9965L266.706 96.3017C266.628 96.2553 266.629 96.1704 266.677 96.0936L266.731 96.005Z" fill="#908DFF"/>
<path d="M280.38 108.721C280.38 108.721 281.226 110.531 283.048 113.794C284.873 117.058 282.6 129.682 282.776 130.496C282.951 131.31 283.092 134.602 283.092 134.602L281.818 135.542L273.847 135.154C273.847 135.154 271.264 135.432 270.634 135.302C270.004 135.172 269.748 134.352 270.016 131.973C270.283 129.593 269.74 125.31 269.54 123.774C269.341 122.238 270.815 115.758 270.982 114.651C271.148 113.544 273.333 111.78 273.333 111.78L275.31 109.552L280.38 108.721Z" fill="#FFF599"/>
<path d="M273.959 116.603L272.318 116.31C272.318 116.31 271.729 116.305 271.59 116.693C271.45 117.081 270.928 117.733 270.868 117.812C270.807 117.891 269.876 120.216 269.371 119.866C268.865 119.516 267.243 119.285 266.468 119.188C266.006 119.13 263.681 117.831 261.879 116.791L261.881 116.789C261.878 116.79 261.87 116.784 261.865 116.783C261.841 116.769 261.817 116.755 261.794 116.741C261.414 116.493 259.894 115.303 259.639 115.164C259.352 115.01 258.748 114.724 258.587 114.43C258.424 114.137 257.943 113.092 257.82 112.941C257.699 112.79 257.609 112.325 257.44 112.114C257.27 111.902 256.941 111.232 256.945 111.067C256.949 110.902 256.918 110.802 256.841 110.614C256.765 110.426 256.696 110.156 256.696 110.156L256.687 109.466C256.687 109.466 256.706 109.412 256.489 109.445C256.272 109.477 255.942 109.856 255.896 110.21C255.852 110.564 255.887 111.024 255.962 111.294C256.036 111.564 256.244 111.752 256.245 111.903C256.246 112.056 256.18 112.504 256.18 112.504C256.18 112.504 255.73 112.608 255.453 112.619C255.175 112.631 253.695 112.679 253.455 113.234C253.216 113.788 253.512 113.993 253.594 113.991C253.678 113.989 253.346 114.249 253.41 114.557C253.474 114.864 253.551 115.037 253.642 115.089C253.733 115.141 253.446 115.373 253.484 115.529C253.523 115.685 253.696 116.141 253.791 116.139C253.888 116.138 254.023 116.164 254.023 116.164C254.023 116.164 253.963 116.339 253.996 116.424C254.028 116.511 254.101 116.985 254.206 117.039C254.31 117.093 254.45 117.135 254.551 117.201C254.651 117.269 254.964 117.429 255.08 117.428C255.196 117.427 256.694 117.651 257.372 117.517C257.451 117.502 257.901 117.73 257.901 117.73C257.901 117.73 259.606 119.303 259.721 119.249C260.277 119.719 260.927 120.286 261.035 120.448C261.229 120.739 263.895 122.244 264.456 122.794C264.895 123.223 268.26 124.566 268.26 124.566H270.889L272.236 123.79L276.047 119.825C276.047 119.466 276.649 118.957 276.281 118.38C275.573 117.267 274.722 116.985 273.959 116.603Z" fill="#F9DBBD"/>
<path opacity="0.6" d="M-126.317 200.974H477.45L478.191 390.15H-125.576L-126.317 200.974Z" fill="#33EFFF"/>
<path d="M477.87 345.462C449.282 350.63 431.689 349.345 411.297 349.274C393.145 349.248 386.182 346.319 354.308 343.901C334.619 343.306 319.155 343.201 298.302 344.262C283.122 345.034 248.215 346.847 232.531 344.404C192.801 336.786 127.154 337.963 93.0518 343.234C58.9488 348.506 73.6755 339.988 51.9729 340.801C30.2716 341.603 33.7596 344.858 22.908 342.011C12.0579 339.171 7.30803 330.555 -1.93713 332.192C-2.98431 332.817 -1.7379 337.853 -24.9551 325.682C-33.0931 321.415 -42.4652 321.532 -48.2567 321.436C-54.0115 321.342 -66.837 324.379 -74.2001 318.7C-82.6906 313.715 -107.277 331.088 -115.803 335.948C-124.329 340.828 -128.578 337.97 -128.578 337.97L-127.257 392.48L478.194 393.233L477.87 345.462Z" fill="#D8BD80"/>
<rect x="315.775" y="15.2949" width="45.0996" height="25" rx="12.5" fill="#969696" fill-opacity="0.3"/>
<path d="M326.313 32.9209H320.079V32.292L323.49 28.4229C324.055 27.7712 324.447 27.2334 324.666 26.8096C324.884 26.3857 324.994 25.9733 324.994 25.5723C324.994 24.9434 324.809 24.4466 324.44 24.082C324.071 23.7129 323.563 23.5283 322.916 23.5283C322.246 23.5283 321.703 23.7425 321.289 24.1709C320.878 24.5993 320.673 25.1553 320.673 25.8389H319.86C319.86 25.2783 319.985 24.7679 320.236 24.3076C320.491 23.8473 320.851 23.4873 321.316 23.2275C321.785 22.9632 322.319 22.8311 322.916 22.8311C323.827 22.8311 324.538 23.0703 325.048 23.5488C325.563 24.0273 325.821 24.679 325.821 25.5039C325.821 25.9688 325.675 26.4769 325.383 27.0283C325.096 27.5798 324.588 28.2679 323.859 29.0928L321.083 32.2305H326.313V32.9209ZM334.079 32.9209H327.844V32.292L331.255 28.4229C331.82 27.7712 332.212 27.2334 332.431 26.8096C332.65 26.3857 332.759 25.9733 332.759 25.5723C332.759 24.9434 332.575 24.4466 332.206 24.082C331.836 23.7129 331.328 23.5283 330.681 23.5283C330.011 23.5283 329.469 23.7425 329.054 24.1709C328.644 24.5993 328.439 25.1553 328.439 25.8389H327.625C327.625 25.2783 327.751 24.7679 328.001 24.3076C328.257 23.8473 328.617 23.4873 329.082 23.2275C329.551 22.9632 330.084 22.8311 330.681 22.8311C331.593 22.8311 332.304 23.0703 332.814 23.5488C333.329 24.0273 333.586 24.679 333.586 25.5039C333.586 25.9688 333.441 26.4769 333.149 27.0283C332.862 27.5798 332.354 28.2679 331.625 29.0928L328.849 32.2305H334.079V32.9209ZM335.624 33.7754H334.878L339.035 22.9678H339.773L335.624 33.7754ZM347.409 32.9209H341.174V32.292L344.585 28.4229C345.151 27.7712 345.542 27.2334 345.761 26.8096C345.98 26.3857 346.089 25.9733 346.089 25.5723C346.089 24.9434 345.905 24.4466 345.536 24.082C345.167 23.7129 344.658 23.5283 344.011 23.5283C343.341 23.5283 342.799 23.7425 342.384 24.1709C341.974 24.5993 341.769 25.1553 341.769 25.8389H340.956C340.956 25.2783 341.081 24.7679 341.332 24.3076C341.587 23.8473 341.947 23.4873 342.412 23.2275C342.881 22.9632 343.414 22.8311 344.011 22.8311C344.923 22.8311 345.634 23.0703 346.144 23.5488C346.659 24.0273 346.917 24.679 346.917 25.5039C346.917 25.9688 346.771 26.4769 346.479 27.0283C346.192 27.5798 345.684 28.2679 344.955 29.0928L342.179 32.2305H347.409V32.9209ZM353.964 29.7148H355.516V30.4053H353.964V32.9209H353.144V30.4053H348.461V29.9404L353.069 22.9678H353.964V29.7148ZM349.466 29.7148H353.144V24.0273L352.782 24.6562L349.466 29.7148Z" fill="black"/>
</g>
<defs>
<linearGradient id="paint0_linear" x1="175.469" y1="390.697" x2="175.469" y2="-212.438" gradientUnits="userSpaceOnUse">
<stop offset="0.1444" stop-color="white"/>
<stop offset="1" stop-color="#4FC3F7"/>
</linearGradient>
<clipPath id="clip0">
<rect width="375" height="375" fill="white" transform="translate(0.775146 0.294922)"/>
</clipPath>
</defs>
</svg>
