<svg width="376" height="376" viewBox="0 0 376 376" fill="none" xmlns="http://www.w3.org/2000/svg">
<g clip-path="url(#clip0)">
<path d="M-2.53751 -2.70801H376.708L377.172 376.14H-2.07251L-2.53751 -2.70801Z" fill="url(#paint0_linear)"/>
<path d="M361.078 346.984C361.17 346.826 360.912 346.392 360.862 346.325C360.824 346.282 360.773 346.271 360.714 346.281C360.607 346.298 360.463 346.384 360.349 346.47C360.169 346.571 352.945 349.234 348.629 350.823C346.701 351.534 345.18 352.095 344.937 352.186C344.587 352.319 344.378 352.484 344.314 352.669C344.264 352.818 344.326 352.925 344.331 352.929C344.514 353.4 344.668 353.37 344.926 353.271C344.971 353.256 345.017 353.238 345.072 353.222C345.395 353.124 358.185 348.801 358.73 348.62C358.905 348.547 359.398 348.381 359.594 348.474C359.819 348.581 360.158 349.199 360.291 349.505C360.92 350.964 361.223 352.042 361.057 352.191C361.003 352.238 360.79 352.319 359.962 352.067C359.492 351.924 359.009 351.723 358.891 351.664C358.87 351.652 356.484 350.486 356.021 350.639C355.98 350.652 355.947 350.679 355.931 350.714C355.775 351.043 356.18 351.592 356.647 352.223L356.771 352.389C357.153 352.911 357.626 353.468 357.816 353.683C357.442 353.681 356.369 353.677 356.208 353.69C356.193 353.694 356.167 353.697 356.14 353.699C356.034 353.715 355.858 353.762 355.759 353.891C355.695 353.975 355.673 354.077 355.696 354.194C355.737 354.415 356.092 354.697 356.466 354.999C356.527 355.05 356.589 355.102 356.651 355.151C356.633 355.161 356.618 355.176 356.598 355.185C356.169 355.486 355.582 355.897 355.548 356.232C355.539 356.318 355.564 356.392 355.625 356.455C355.904 356.751 356.862 356.454 358.63 355.525C359.955 354.828 361.786 353.528 361.805 353.517C362.201 353.236 362.745 352.493 362.658 351.79C362.573 351.121 361.214 347.401 361.066 346.998C361.065 346.993 361.07 346.987 361.078 346.984Z" fill="#727272"/>
<path d="M345.292 352.758C345.315 352.711 345.318 352.661 345.302 352.612C345.269 352.514 345.161 352.461 345.058 352.497C345.01 352.514 344.971 352.549 344.95 352.595C344.928 352.641 344.926 352.692 344.941 352.741C344.972 352.827 345.065 352.878 345.151 352.865C345.162 352.862 345.176 352.859 345.187 352.856C345.234 352.838 345.273 352.803 345.292 352.758Z" fill="#727272"/>
<path d="M362.545 351.801C362.469 351.17 361.183 347.642 360.975 347.082C360.917 347.124 360.846 347.152 360.778 347.156C360.696 347.164 360.626 347.132 360.582 347.079C360.52 347 360.444 346.866 360.393 346.767L360.384 346.791L346.288 351.805C345.584 352.065 345.106 352.242 344.979 352.291C344.589 352.439 344.461 352.595 344.426 352.698C344.391 352.796 344.428 352.863 344.434 352.875C344.591 353.27 344.671 353.24 344.887 353.158C344.933 353.141 344.981 353.123 345.038 353.106C345.111 353.083 345.869 352.832 346.994 352.454C347.151 352.036 347.642 351.869 347.662 351.859C348.115 351.689 358.82 347.674 359.922 348.064C360.213 348.165 360.558 348.989 360.597 349.079C360.629 349.155 361.445 350.995 361.59 351.71C361.797 352.756 360.572 353.513 360.078 353.711C359.658 353.878 358.011 353.835 357.945 353.848H357.944C357.888 353.857 356.4 353.813 356.213 353.827C356.086 353.837 355.919 353.856 355.843 353.959C355.799 354.016 355.786 354.084 355.8 354.168C355.835 354.346 356.204 354.642 356.53 354.903C356.748 355.081 356.956 355.248 357.087 355.391C357.258 355.58 357.321 355.713 357.287 355.798C357.264 355.852 357.213 355.873 357.186 355.873L357.178 355.756C357.178 355.756 357.202 355.696 356.999 355.47C356.933 355.392 356.841 355.31 356.735 355.22C356.708 355.238 356.683 355.256 356.655 355.276C356.292 355.532 355.682 355.956 355.653 356.24C355.647 356.293 355.664 356.335 355.7 356.376C355.857 356.543 356.484 356.514 358.566 355.418C359.381 354.99 360.392 354.333 361.048 353.89C359.854 354.146 357.318 354.094 356.428 354.075C356.261 354.071 356.129 354.066 356.109 354.069L356.101 354.011L356.081 353.955C356.084 353.953 356.086 353.953 356.091 353.951C356.11 353.947 356.163 353.95 356.428 353.956C357.414 353.979 360.408 354.042 361.345 353.684C361.578 353.522 361.724 353.419 361.729 353.415C362.055 353.193 362.622 352.484 362.545 351.801ZM345.398 352.806C345.365 352.881 345.302 352.936 345.226 352.963C345.064 353.021 344.888 352.935 344.834 352.777C344.807 352.7 344.813 352.618 344.845 352.544C344.879 352.47 344.939 352.414 345.018 352.386C345.034 352.38 345.056 352.377 345.075 352.373C345.219 352.35 345.361 352.433 345.412 352.572C345.437 352.649 345.434 352.733 345.398 352.806Z" fill="#727272"/>
<path d="M347.142 352.398C350.955 351.117 358.585 348.538 358.686 348.504C358.753 348.478 359.362 348.232 359.638 348.363C359.927 348.501 360.288 349.212 360.39 349.456C360.794 350.395 361.428 352.008 361.123 352.273C360.754 352.595 358.965 351.834 358.828 351.758C358.556 351.614 356.415 350.616 356.047 350.743C356.04 350.745 356.027 350.751 356.025 350.755C355.897 351.024 356.3 351.572 356.729 352.151L356.852 352.317C357.294 352.918 357.858 353.564 357.962 353.68C358.17 353.687 359.658 353.726 360.028 353.575C360.464 353.403 361.666 352.682 361.473 351.722C361.33 351.014 360.497 349.139 360.487 349.116C360.389 348.877 360.084 348.24 359.881 348.169C358.816 347.793 347.807 351.926 347.695 351.967C347.694 351.968 347.316 352.101 347.142 352.398Z" fill="#727272"/>
<path d="M360.287 346.698L360.327 346.598C359.949 346.753 358.343 347.353 355.61 348.365L360.287 346.698Z" fill="#727272"/>
<path d="M360.973 346.922C361.014 346.851 360.853 346.504 360.765 346.394C360.751 346.373 360.627 346.402 360.416 346.557L360.433 346.596C360.435 346.602 360.574 346.883 360.669 347.005C360.692 347.032 360.726 347.045 360.765 347.041C360.851 347.036 360.942 346.975 360.973 346.922Z" fill="#727272"/>
<path d="M361.073 346.981C361.165 346.824 360.908 346.389 360.856 346.323C360.821 346.281 360.768 346.269 360.708 346.278C360.6 346.295 360.459 346.383 360.345 346.468C360.165 346.568 352.941 349.232 348.626 350.82C346.696 351.533 345.175 352.093 344.932 352.184C344.583 352.317 344.374 352.48 344.31 352.666C344.259 352.814 344.324 352.922 344.327 352.927C344.511 353.397 344.664 353.366 344.923 353.268C344.967 353.254 345.013 353.236 345.067 353.219C345.39 353.122 358.18 348.798 358.725 348.618C358.902 348.545 359.394 348.378 359.589 348.472C359.814 348.579 360.153 349.197 360.285 349.502C360.914 350.963 361.219 352.04 361.051 352.19C360.995 352.237 360.784 352.318 359.956 352.066C359.486 351.922 359.002 351.722 358.886 351.662C358.864 351.65 356.481 350.485 356.016 350.637C355.973 350.65 355.942 350.679 355.925 350.712C355.769 351.042 356.174 351.593 356.641 352.225L356.764 352.391C357.149 352.916 357.62 353.47 357.81 353.688C357.881 353.689 357.929 353.697 357.938 353.697L357.94 353.823C357.94 353.823 357.942 353.848 357.941 353.848L357.943 353.847C358.012 353.838 359.66 353.879 360.076 353.71C360.565 353.515 361.793 352.744 361.584 351.694C361.443 350.979 360.629 349.15 360.594 349.07C360.555 348.979 360.211 348.156 359.919 348.055C358.817 347.67 348.112 351.686 347.659 351.856C347.638 351.865 347.149 352.034 346.991 352.45C345.868 352.829 345.109 353.085 345.036 353.104C344.981 353.119 344.931 353.14 344.885 353.156C344.667 353.238 344.587 353.268 344.432 352.873C344.426 352.861 344.39 352.793 344.423 352.696C344.462 352.591 344.588 352.436 344.977 352.289C345.101 352.24 345.58 352.065 346.285 351.803L360.382 346.789L360.39 346.765C360.443 346.863 360.517 346.997 360.579 347.076C360.623 347.132 360.693 347.16 360.775 347.153C360.841 347.147 360.913 347.122 360.971 347.08C360.957 347.034 360.945 347.006 360.943 347.004L361.051 346.963C361.053 346.969 361.057 346.98 361.064 346.992C361.065 346.991 361.07 346.986 361.073 346.981ZM347.138 352.403C347.311 352.103 347.69 351.97 347.695 351.968C347.805 351.927 358.815 347.795 359.88 348.169C360.086 348.242 360.389 348.88 360.485 349.118C360.495 349.14 361.331 351.017 361.471 351.722C361.66 352.686 360.46 353.403 360.028 353.578C359.658 353.725 358.172 353.686 357.961 353.682C357.858 353.565 357.296 352.922 356.854 352.318L356.73 352.153C356.302 351.572 355.899 351.025 356.025 350.756C356.029 350.751 356.04 350.747 356.049 350.745C356.42 350.621 358.559 351.617 358.83 351.76C358.968 351.834 360.755 352.593 361.125 352.276C361.43 352.012 360.795 350.396 360.391 349.458C360.287 349.217 359.928 348.502 359.64 348.366C359.365 348.234 358.755 348.479 358.688 348.506C358.584 348.538 350.951 351.118 347.138 352.403ZM360.327 346.6L360.287 346.7L355.607 348.366C358.343 347.353 359.949 346.753 360.327 346.6ZM360.975 346.922C360.945 346.973 360.853 347.035 360.765 347.041C360.724 347.045 360.691 347.031 360.668 347.005C360.574 346.884 360.435 346.601 360.433 346.595L360.416 346.556C360.625 346.403 360.75 346.373 360.766 346.393C360.852 346.504 361.015 346.851 360.975 346.922Z" fill="#727272"/>
<path d="M356.734 355.223C356.706 355.197 356.673 355.17 356.642 355.148C356.624 355.157 356.609 355.173 356.59 355.183C356.161 355.485 355.573 355.895 355.539 356.228C355.53 356.315 355.555 356.39 355.617 356.453C355.897 356.748 356.852 356.451 358.622 355.523C359.947 354.825 361.778 353.525 361.797 353.514C362.192 353.233 362.737 352.488 362.651 351.787C362.566 351.12 361.205 347.398 361.057 346.995C361.033 347.03 361.004 347.06 360.967 347.085C361.171 347.644 362.457 351.176 362.536 351.802C362.62 352.481 362.051 353.193 361.729 353.42C361.726 353.424 361.579 353.527 361.344 353.691C361.347 353.689 361.351 353.686 361.354 353.686L361.395 353.793C361.299 353.83 361.183 353.861 361.049 353.89C360.391 354.333 359.379 354.992 358.567 355.42C356.485 356.514 355.859 356.543 355.701 356.374C355.661 356.333 355.649 356.291 355.655 356.238C355.683 355.953 356.291 355.527 356.656 355.274C356.684 355.257 356.709 355.24 356.734 355.223Z" fill="#727272"/>
<path d="M361.061 346.996C361.055 346.984 361.052 346.971 361.051 346.967L360.944 347.009C360.945 347.013 360.955 347.04 360.972 347.084C361.007 347.06 361.038 347.031 361.061 346.996Z" fill="#727272"/>
<path d="M357.892 353.776C357.891 353.776 357.86 353.738 357.808 353.682C357.433 353.68 356.359 353.673 356.197 353.689C356.183 353.691 356.158 353.693 356.13 353.698C356.025 353.714 355.849 353.76 355.75 353.889C355.685 353.971 355.663 354.075 355.685 354.192C355.726 354.413 356.081 354.694 356.456 354.997C356.515 355.047 356.58 355.099 356.64 355.148C356.669 355.129 356.698 355.108 356.722 355.091L356.79 355.184C356.773 355.195 356.753 355.212 356.735 355.224C356.841 355.314 356.931 355.397 357 355.475C357.203 355.698 357.179 355.76 357.179 355.76L357.187 355.878C357.213 355.876 357.264 355.857 357.287 355.804C357.322 355.715 357.258 355.586 357.087 355.396C356.959 355.253 356.749 355.086 356.53 354.909C356.205 354.646 355.837 354.351 355.801 354.173C355.785 354.088 355.798 354.019 355.843 353.964C355.918 353.859 356.082 353.818 356.208 353.807C356.393 353.794 357.877 353.8 357.936 353.801L357.909 353.798L357.892 353.776Z" fill="#727272"/>
<path d="M357.935 353.678C357.925 353.678 357.877 353.676 357.807 353.677C357.861 353.735 357.891 353.768 357.892 353.771L357.908 353.792L357.934 353.794C357.935 353.794 357.938 353.794 357.938 353.794L357.935 353.678Z" fill="#727272"/>
<path d="M356.724 355.09C356.698 355.107 356.67 355.13 356.642 355.147C356.673 355.171 356.706 355.198 356.733 355.222C356.751 355.211 356.772 355.196 356.789 355.182L356.724 355.09Z" fill="#727272"/>
<path d="M361.047 353.893C361.157 353.816 361.259 353.747 361.348 353.688C360.411 354.041 357.416 353.978 356.432 353.959C356.166 353.95 356.113 353.95 356.094 353.953C356.088 353.954 356.085 353.957 356.084 353.959L356.104 354.013L356.112 354.07C356.131 354.069 356.263 354.076 356.43 354.077C357.32 354.094 359.855 354.147 361.047 353.893Z" fill="#727272"/>
<path d="M361.35 353.688C361.262 353.748 361.161 353.815 361.05 353.893C361.183 353.866 361.301 353.836 361.396 353.796L361.355 353.688C361.352 353.687 361.35 353.688 361.35 353.688Z" fill="#727272"/>
<path d="M345.399 352.807C345.434 352.733 345.44 352.65 345.409 352.57C345.359 352.432 345.219 352.348 345.073 352.371C345.053 352.374 345.033 352.38 345.015 352.384C344.939 352.413 344.876 352.469 344.842 352.542C344.807 352.616 344.801 352.698 344.832 352.776C344.889 352.933 345.062 353.019 345.224 352.961C345.302 352.936 345.365 352.881 345.399 352.807ZM345.297 352.757C345.276 352.801 345.237 352.838 345.189 352.854C345.179 352.86 345.164 352.863 345.155 352.863C345.065 352.877 344.975 352.825 344.945 352.739C344.927 352.691 344.932 352.64 344.953 352.594C344.977 352.548 345.011 352.514 345.062 352.496C345.163 352.46 345.268 352.514 345.304 352.611C345.319 352.659 345.316 352.711 345.297 352.757Z" fill="#727272"/>
<path d="M146.987 265.687C146.987 265.687 149.018 264.246 150.411 264.359C151.803 264.47 152.731 264.815 152.794 268.843C152.856 272.871 145.517 352.258 224.268 352.258C233.886 352.826 294.872 349.953 303.65 351.566C307.109 351.359 341.154 354.804 344.291 352.82" stroke="#727272" stroke-width="1.5" stroke-miterlimit="10" stroke-linecap="round"/>
<path d="M146.987 265.687C146.987 265.687 149.029 264.246 150.431 264.359C151.83 264.47 152.764 264.815 152.827 268.843C152.889 272.871 145.508 352.258 224.714 352.258C234.387 352.826 295.726 349.953 304.555 351.566C308.033 351.359 342.275 354.804 345.429 352.82" stroke="#727272" stroke-width="3" stroke-miterlimit="10" stroke-linecap="round" stroke-dasharray="1.5 4"/>
<path d="M27.5619 262.505C27.104 262.6 25.6401 265.771 26.1037 268.274C26.5687 270.776 27.9032 276.572 28.6705 277.526C29.4388 278.481 30.4012 280.189 30.4012 280.189C30.4012 280.189 27.0135 282.009 26.474 283.2C26.474 283.2 26.4754 283.685 26.8893 283.622C27.3027 283.556 30.9154 283.36 31.0851 283.763C31.2552 284.169 31.5848 286.274 31.6396 286.547C31.6944 286.822 31.5426 288.068 31.4905 288.514C31.469 288.699 30.3608 290.481 30.5633 290.885C30.7687 291.288 32.2682 291.303 33.1044 291.283C33.9397 291.264 38.3947 288.279 39.0158 287.731C39.6379 287.182 39.8113 280.543 39.8113 280.543C39.8113 280.543 38.5443 271.862 38.8551 271.845C39.1668 271.827 41.2677 270.98 41.9422 270.199C42.6168 269.417 42.3665 265.633 42.0472 265.029C41.7247 264.424 34.431 261.056 27.5619 262.505Z" fill="#36627A"/>
<path d="M30.9679 286.453C30.9679 286.453 31.6898 286.307 31.731 286.395C31.7723 286.486 31.9302 286.736 31.8965 287.218C31.8623 287.7 32.0469 288.314 31.6668 288.361C31.2866 288.408 31.0251 288.408 31.0251 288.408C31.0251 288.408 30.3904 289.972 29.4135 290.445C28.4366 290.92 27.7795 290.758 28.3799 290.139C28.9795 289.522 30.1087 288.791 30.0004 288.536C29.893 288.283 28.0002 288.543 28.0002 288.543L28.0171 287.013C28.0171 287.013 29.4641 286.873 29.5359 286.902C29.608 286.927 30.1532 286.525 29.7393 286.346C29.3254 286.168 27.5423 286.349 27.8268 285.717C28.1113 285.083 28.042 285.091 28.716 285.006C29.3901 284.918 30.2516 285.253 30.6346 285.717C31.0171 286.177 30.9679 286.453 30.9679 286.453Z" fill="#6C808C"/>
<path d="M69.3637 281.361L62.5551 275.663L33.9913 274.041C42.9065 272.206 59.7984 269.522 84.9656 267.973C103.045 266.862 118.193 266.745 125.2 267.098C137.94 267.745 146.511 267.005 148.686 266.781C148.316 267.016 147.773 267.382 147.444 267.69C147.194 267.921 146.974 268.235 146.665 268.669C146.045 269.55 145.095 270.82 143.002 272.796L142.792 272.985C128.808 279.797 109.853 281.804 96.2385 282.194C81.8156 282.606 69.9726 281.424 69.3637 281.361Z" fill="#FF0000"/>
<path d="M85.3031 258.55C85.1812 258.303 85.0841 258.118 85.0059 257.98C84.9665 257.912 84.9318 257.855 84.9018 257.807C84.7499 257.565 84.7002 257.564 84.6702 257.563L84.583 257.619C84.5427 257.695 84.4968 257.778 84.4429 257.866C84.4082 257.923 84.3707 257.983 84.3309 258.044C84.3102 258.073 84.2906 258.103 84.2704 258.134C83.7187 258.933 82.8037 259.878 82.2538 259.732C81.9913 259.661 81.8338 259.486 81.7706 259.187C81.7626 259.152 81.7574 259.115 81.7532 259.08C81.749 259.04 81.7452 259.004 81.7452 258.96C81.7106 257.897 82.6574 255.816 83.9024 254.49C84.0941 254.284 84.2929 254.101 84.4959 253.938C84.6088 253.848 84.7373 253.756 84.8727 253.679C85.0893 253.556 85.3255 253.467 85.5444 253.476C85.6265 253.481 85.7076 253.5 85.784 253.534C85.9059 253.592 85.9869 253.687 86.0315 253.821C86.0605 253.912 86.0723 254.019 86.0723 254.132C86.0634 254.924 85.3888 256.133 85.3799 256.146L85.3298 256.236L86.4318 256.554L85.3031 258.55ZM85.4385 254.627C85.4357 254.504 85.4052 254.404 85.3377 254.339C85.3241 254.325 85.3091 254.314 85.2927 254.3C85.252 254.275 85.2027 254.259 85.1521 254.259C85.1156 254.259 85.0766 254.267 85.0335 254.283C84.7373 254.39 84.3116 254.849 83.8837 255.437L83.864 255.413L83.8448 255.388L83.4707 256.038C83.2841 256.328 83.1065 256.63 82.948 256.921C82.6841 257.408 82.4732 257.872 82.3663 258.221C82.3063 258.42 82.2791 258.579 82.2862 258.701C82.2876 258.731 82.2923 258.759 82.2979 258.787C82.3148 258.864 82.3509 258.924 82.4052 258.96C82.4301 258.975 82.4568 258.985 82.4863 258.985C82.8238 258.985 83.9165 257.66 84.3693 257.017C84.3862 256.992 84.4021 256.97 84.4171 256.947C84.4457 256.904 84.4729 256.862 84.4935 256.827C84.5165 256.792 84.5334 256.762 84.5446 256.737C84.5577 256.713 84.5746 256.689 84.5943 256.658C84.6145 256.627 84.6356 256.59 84.6604 256.551C84.9271 256.105 85.4516 255.161 85.4385 254.627Z" fill="black"/>
<path d="M95.66 254.997C95.2232 255.056 93.6908 255.305 92.3624 255.557C92.2775 255.572 92.1946 255.589 92.1107 255.606C92.068 255.614 92.0244 255.623 91.9822 255.63C91.7994 255.667 91.6241 255.705 91.4568 255.74C91.4043 255.75 91.3522 255.764 91.3021 255.777C91.1755 255.804 91.055 255.834 90.943 255.865C90.8975 255.877 90.8535 255.889 90.8118 255.902C90.8019 255.904 90.7907 255.907 90.7771 255.911C90.3679 256.001 88.0344 256.545 87.6857 257.151C87.6744 257.174 87.6651 257.189 87.659 257.209C87.4541 257.793 86.9558 261.07 86.8743 261.8H85.4788L84.9899 260.566L85.1793 258.813L85.2524 258.778C85.2477 258.77 85.244 258.763 85.2411 258.754C85.236 258.745 85.2332 258.737 85.2294 258.729L86.4383 256.602L86.4571 256.607L86.4805 256.531L86.4974 256.501L86.5283 256.445L88.3354 252.642L88.6124 252.547L88.8908 252.45L89.7027 248.015C89.7421 248.015 89.7974 248.015 89.8668 248.015C90.3402 248.015 91.9218 248.028 92.376 248.202C92.7575 248.345 94.588 252.379 95.66 254.997Z" fill="#3FA9F5"/>
<path d="M84.5559 256.283C84.5638 256.283 84.5699 256.282 84.5751 256.28C84.5906 256.275 84.6042 256.269 84.6159 256.256C84.5362 256.396 84.456 256.528 84.3773 256.655C84.3327 256.745 84.2474 256.877 84.1378 257.03C84.1195 256.988 84.1134 256.939 84.1124 256.901C84.112 256.832 84.1265 256.778 84.1265 256.777L84.1509 256.692L83.3774 256.529L83.7014 255.962C83.7637 255.871 83.826 255.779 83.8898 255.69C84.3599 256.234 84.5006 256.285 84.5559 256.283Z" fill="black"/>
<path d="M84.5952 256.656C84.5755 256.688 84.5591 256.715 84.5455 256.737C84.5343 256.761 84.5169 256.792 84.4944 256.827C84.4729 256.862 84.4466 256.901 84.418 256.946C84.403 256.97 84.3871 256.991 84.3702 257.016C83.9174 257.664 82.8252 258.985 82.4873 258.985C82.4582 258.985 82.4296 258.976 82.4062 258.96C82.3509 258.923 82.3152 258.868 82.2984 258.787C82.2927 258.762 82.289 258.731 82.2871 258.701C82.2801 258.578 82.3073 258.419 82.3677 258.221C82.4746 257.871 82.6846 257.407 82.9494 256.921C83.1079 256.629 83.2869 256.327 83.4716 256.039L83.8466 255.388L83.8658 255.412L83.8851 255.437C84.313 254.85 84.7391 254.391 85.0349 254.283C85.0771 254.268 85.1165 254.259 85.1535 254.259C85.2069 254.259 85.2533 254.273 85.2946 254.3C85.311 254.309 85.326 254.324 85.3391 254.338C85.4066 254.406 85.4371 254.506 85.4399 254.626C85.4507 255.161 84.929 256.102 84.6608 256.547C84.6369 256.589 84.6144 256.626 84.5952 256.656ZM82.5098 258.272C82.3818 258.693 82.4366 258.796 82.4587 258.819C82.7301 258.768 83.5452 257.833 84.0327 257.176C83.9437 257.059 83.9423 256.911 83.953 256.821L83.2598 256.674C82.9274 257.24 82.6462 257.818 82.5098 258.272ZM83.7013 255.965L83.3765 256.531L84.1499 256.695L84.126 256.779C84.1255 256.781 84.1115 256.837 84.1124 256.903C84.1124 256.944 84.1204 256.992 84.1373 257.032C84.2465 256.876 84.3327 256.744 84.3763 256.657C84.4551 256.533 84.5352 256.4 84.6154 256.258C84.6032 256.268 84.5901 256.276 84.5741 256.281C84.569 256.284 84.5643 256.285 84.5549 256.286C84.4991 256.287 84.359 256.235 83.8879 255.694C83.8269 255.781 83.7641 255.871 83.7013 255.965ZM85.2022 254.435C85.1882 254.426 85.1713 254.421 85.1516 254.421C84.9229 254.421 84.4649 254.902 83.9882 255.557C84.1926 255.793 84.4227 256.03 84.5235 256.102C84.5807 256.018 84.6866 255.983 84.7752 255.974C85.1404 255.288 85.4193 254.579 85.2022 254.435Z" fill="black"/>
<path d="M33.5413 272.861L33.5797 272.837L33.5525 270.584L34.9588 269.725L41.1144 269.832L41.1289 269.825L43.6789 268.879L43.7872 263.62L48.3871 262.496L58.228 262.469L58.7464 261.517L67.0827 261.054L67.1371 260.208L68.8705 260.033L68.7139 259.91C68.7116 259.905 68.4693 259.713 68.4754 259.476C68.48 259.338 68.5672 259.207 68.7379 259.089C68.8644 258.999 69.2352 258.894 70.2819 258.894C71.2419 258.894 72.4161 258.981 73.2735 259.044C73.6958 259.074 74.0315 259.102 74.2269 259.105C74.8119 259.124 75.4607 259.564 75.8141 259.966C76.0311 260.212 76.1465 260.453 76.1305 260.624C76.079 261.168 75.9904 261.299 75.5994 261.373L75.6219 261.546L81.3786 260.999L84.9313 260.663L85.4169 261.911H86.954L86.9638 261.726C86.9708 261.686 87.539 257.758 87.7508 257.148C87.9168 256.67 90.0008 256.113 90.7893 255.94C92.1814 255.55 95.0858 255.141 95.6197 255.069L95.6277 255.09L95.6868 255.082C95.6877 255.082 95.8012 255.073 95.9591 255.073C96.4049 255.073 96.7302 255.147 96.8746 255.278C97.0321 255.424 97.033 255.715 97.0344 255.997C97.0358 256.24 97.0372 256.469 97.1272 256.64C97.3162 256.992 98.9333 259.724 99.0022 259.84L99.0247 259.879L99.0665 259.882C99.3041 259.895 122.748 261.281 127.981 261.924C128.385 261.974 128.848 262.021 129.354 262.092C137.27 263.207 148.356 265.345 148.356 265.345C149.214 265.359 149.554 265.629 149.583 265.856C149.611 266.064 149.393 266.276 149.038 266.378C149.029 266.385 148.79 266.504 148.463 266.699C147.025 266.857 138.347 267.716 124.79 267.029C117.779 266.675 102.608 266.813 84.5221 267.926C58.7563 269.515 42.8539 272.051 34.0513 273.894L33.6664 273.975C32.9361 273.967 32.6764 273.892 32.6427 273.852C32.6305 273.827 32.6146 273.809 32.5986 273.787C32.5611 273.734 32.5424 273.707 32.5499 273.664C32.5794 273.531 32.9024 273.263 33.5413 272.861Z" fill="white" stroke="white" stroke-miterlimit="10"/>
<path d="M69.1438 281.422L69.1682 281.426C69.2671 281.434 77.714 282.318 89.3493 282.318C91.364 282.318 93.4724 282.292 95.6483 282.228C109.204 281.841 128.256 279.964 142.244 273.229C142.204 273.264 142.17 273.297 142.137 273.33C141.655 273.776 141.175 274.249 140.666 274.75C137.453 277.914 133.452 281.852 123.135 284.852C120.761 285.541 118.22 285.864 115.134 285.864C112.491 285.864 109.78 285.792 106.91 285.544C103.759 285.271 100.502 284.99 97.019 284.99C96.4837 284.99 95.9497 284.999 95.4313 285.012C94.9087 285.025 94.2951 285.034 93.6093 285.034C80.0432 285.034 38.7168 282.194 37.0016 282.084L33.9365 274.238L62.3558 275.729L69.1438 281.422Z" fill="white" stroke="white" stroke-miterlimit="10"/>
<path d="M77.1623 261.321C77.1623 261.321 76.6134 260.685 76.7338 259.929C76.8538 259.18 77.0226 258.795 77.4838 258.664C77.9451 258.531 78.5699 258.472 78.697 258.537C78.8254 258.602 80.3802 259.22 80.7351 259.341C81.0904 259.465 82.0602 260.107 82.0799 260.402C82.0996 260.698 82.1568 260.793 82.2768 261.083C82.3968 261.371 82.5791 262.674 82.5791 262.674L80.2349 262.932C80.2349 262.932 80.2602 262.018 80.0882 261.953C79.9148 261.891 77.624 261.657 77.4698 261.568C77.3141 261.484 77.1623 261.321 77.1623 261.321Z" fill="#996234"/>
<path d="M68.4787 257.664C68.4787 257.664 68.3554 256.503 68.3053 256.503C68.256 256.503 69.9323 256.404 70.3303 256.108C70.8243 255.737 73.5412 255.762 73.5412 255.762L75.344 257.417L77.4243 258.981C77.4243 258.981 76.8262 260.949 76.5295 260.949C76.3898 260.949 74.9057 259.605 73.5656 259.566C72.0703 259.523 71.9601 260.38 72.3056 262.233C72.3717 262.583 69.2179 260.479 69.2179 260.479C69.2179 260.479 68.6226 260.035 68.4759 259.244C68.3301 258.455 68.4787 257.664 68.4787 257.664Z" fill="#EF45B7"/>
<path d="M72.0595 245.758C72.1335 245.783 72.6759 245.116 72.6524 244.894C72.6276 244.67 72.4064 244.523 72.3562 244.523C72.307 244.523 71.7881 243.906 72.0599 243.634C72.3318 243.362 71.467 242.251 71.7881 241.707C72.1087 241.164 72.5039 240.325 73.2454 240.028C73.9865 239.731 74.4552 239.485 74.826 239.781C75.1968 240.078 76.086 240.918 76.1104 241.239C76.1348 241.56 76.2834 242.178 76.1104 242.844C75.937 243.512 75.937 243.61 75.9126 244.325C75.8877 245.042 75.5671 245.487 75.3445 245.759C75.1218 246.032 75.2212 246.401 74.8012 246.499C74.3807 246.598 74.8996 247.266 74.7023 247.512C74.5049 247.759 72.1828 247.142 72.2324 246.178C72.2559 245.725 72.0595 245.758 72.0595 245.758Z" fill="#996234"/>
<path d="M72.134 244.795C72.134 244.795 71.7145 244.795 71.7628 244.45C71.812 244.105 71.9029 243.512 71.759 243.364C71.6156 243.216 71.1703 242.944 71.3189 242.524C71.467 242.104 71.64 241.857 71.5411 241.461C71.4422 241.066 71.5411 240.746 71.8622 240.548C72.1828 240.35 72.4331 240.4 72.802 240.227C73.1723 240.054 73.4686 239.634 73.8867 239.559C74.3067 239.485 74.8003 239.189 75.1467 239.559C75.4931 239.93 75.7397 239.93 75.8386 240.176C75.937 240.422 75.8137 240.152 75.9619 240.745C76.109 241.337 76.4067 241.46 76.2089 241.782C76.0111 242.103 75.8376 241.51 75.6651 241.486C75.4922 241.461 75.5906 241.189 75.1219 241.486C74.6526 241.782 74.8256 241.683 74.1342 241.535C73.4423 241.387 73.0715 240.992 72.8615 241.708C72.6525 242.423 72.7748 242.301 72.8615 242.869C72.9487 243.437 72.8615 243.684 72.8615 243.684C72.8615 243.684 72.8254 243.412 72.5536 243.461C72.2817 243.51 72.2325 243.56 72.2573 243.857C72.2817 244.153 72.4303 244.499 72.3806 244.598C72.3305 244.697 72.134 244.795 72.134 244.795Z" fill="#301705"/>
<path d="M75.5428 250.426C75.5428 250.426 77.1731 253.093 77.5931 253.341C78.0131 253.588 78.8774 254.082 79.198 254.156C79.5191 254.229 81.5451 254.551 82.409 254.501C83.2729 254.452 83.4215 254.191 83.7426 254.508C84.0632 254.825 84.2123 255.045 84.3355 254.798C84.4588 254.551 84.3848 254.501 84.3355 254.13C84.2868 253.76 84.3355 253.562 84.6815 253.514C85.0274 253.465 85.5562 253.859 85.4141 253.415C85.274 252.97 85.3232 252.772 84.7541 252.821C84.186 252.87 84.0871 253.291 83.6915 253.34C83.2963 253.388 83.1234 253.388 82.432 253.29C81.7401 253.192 79.7887 252.03 79.3691 252.007C78.9492 251.982 78.9243 251.661 78.6529 251.39C78.381 251.118 77.2949 249.784 77.2949 249.784" fill="#996234"/>
<path d="M68.3057 251.786C68.4041 250.403 68.8987 248.204 69.7382 247.242C70.5782 246.277 70.8252 246.302 71.4421 246.031C72.059 245.759 72.3806 245.833 72.3806 245.833C72.3806 245.833 72.4129 246.821 72.9159 246.995C73.4184 247.168 74.6039 247.489 74.6779 247.291C74.752 247.093 74.579 246.97 74.7267 246.796C74.8738 246.623 75.1218 246.155 75.2948 246.253C75.4678 246.352 76.3321 246.698 76.4306 247.143C76.5295 247.587 76.6284 248.18 76.8754 248.525C77.1224 248.871 77.2706 249.414 77.2706 249.414C77.2706 249.414 77.3446 249.612 77.4187 249.834C77.4928 250.057 76.7765 250.032 76.3073 250.946C75.8385 251.859 75.3192 250.428 75.3192 250.428C75.3192 250.428 75.8878 250.057 75.3684 250.848C75.3684 250.848 74.5781 252.057 74.5288 252.231C74.4796 252.404 74.2818 252.847 74.3067 253.293C74.331 253.738 74.5785 254.207 74.5288 254.676C74.4796 255.146 74.5387 255.565 73.9537 255.788C73.3692 256.01 72.727 255.96 72.0093 256.034C71.2935 256.108 70.4099 256.07 70.0828 256.355C69.756 256.64 69.4406 256.405 69.0454 256.503C68.6502 256.602 68.6259 256.849 68.3043 256.503C67.9832 256.158 68.4937 255.07 68.4117 254.824C68.3296 254.577 68.1154 254.033 68.1974 253.218C68.2804 252.402 68.3057 251.786 68.3057 251.786Z" fill="#8BC7E8"/>
<path d="M71.1608 253.451C71.1608 253.451 71.6844 255.172 71.9779 255.501C72.2718 255.828 72.7419 256.587 72.9904 256.882C73.2398 257.176 75.4513 259.442 75.7157 259.64C75.9838 259.838 77.2649 260.965 77.2649 260.965L79.0823 260.757C79.0823 260.757 77.8785 259.468 77.2869 258.839C76.6949 258.207 74.7369 255.784 74.6249 255.566C74.5129 255.344 73.8768 254.683 73.7047 254.375C73.5322 254.071 73.5041 253.438 73.3607 252.862C73.2191 252.286 72.973 251.54 72.973 251.54C72.973 251.54 70.6888 251.267 70.6194 251.805C70.551 252.342 71.1608 253.451 71.1608 253.451Z" fill="#996234"/>
<path d="M72.3562 262.209C72.3562 262.209 71.8537 261.534 72.0267 260.793C72.2001 260.052 72.3965 259.682 72.8653 259.583C73.3345 259.484 73.9621 259.468 74.0854 259.542C74.2087 259.616 75.7157 260.34 76.0612 260.489C76.4071 260.637 77.3278 261.345 77.3278 261.641C77.3278 261.937 77.377 262.036 77.4759 262.333C77.5748 262.629 77.6981 263.47 77.6981 263.47L75.3262 263.72C75.3262 263.72 75.3979 263.124 75.2292 263.051C75.0595 262.977 72.7921 262.581 72.6435 262.482C72.4954 262.383 72.3562 262.209 72.3562 262.209Z" fill="#996234"/>
<path d="M113.46 259.44C113.439 259.283 113.113 258.45 113.259 258.278C113.405 258.105 113.926 257.661 114.107 257.495C114.288 257.329 114.541 257.157 114.613 256.998C114.685 256.84 114.644 256.499 114.743 256.502C114.842 256.507 121.111 256.765 121.162 256.785C121.213 256.804 121.934 257.322 121.993 257.531C122.053 257.741 122.371 257.998 122.45 258.175C122.528 258.35 122.787 259.004 122.919 259.389C123.053 259.776 123.105 260.176 123.116 260.696C123.127 261.214 123.14 261.742 123.061 261.942C122.983 262.143 122.783 262.35 122.738 262.387C122.694 262.425 122.947 262.452 122.493 262.425C122.039 262.396 120.225 261.935 119.817 262.176C119.408 262.418 118.852 262.463 118.613 262.4C118.373 262.337 118.456 262.402 118.242 262.189C118.026 261.976 117.9 261.72 117.813 261.711C117.726 261.703 117.794 261.568 117.535 261.834C117.277 262.099 117.365 262.069 117.277 262.099C117.189 262.129 116.555 262.396 116.382 262.387C116.209 262.38 116.349 262.397 116.124 262.377C115.9 262.355 115.945 262.502 115.9 262.355C115.854 262.209 115.842 261.672 115.617 261.489C115.392 261.307 113.46 259.44 113.46 259.44Z" fill="#F7931E"/>
<path d="M123.241 251.239C123.254 251.327 123.075 253.445 123.216 253.747C123.359 254.048 123.617 255.27 123.631 255.339C123.645 255.409 123.706 256.363 123.657 256.724C123.606 257.085 123.697 257.383 123.757 257.975C123.817 258.565 124.5 260.343 124.479 260.445C124.456 260.549 124.455 260.963 124.455 260.963L123.716 261.26C123.716 261.26 123.485 261.406 123.475 261.595C123.467 261.785 123.634 261.932 123.72 261.935C123.806 261.939 124.994 262.077 125.188 262C125.382 261.922 125.986 261.932 126.162 261.888C126.336 261.844 126.601 261.734 126.601 261.734C126.601 261.734 126.824 261.778 126.61 261.545C126.396 261.311 126.112 261.038 126.116 260.968C126.119 260.9 126.006 260.358 126.015 260.099C126.027 259.841 125.956 257.156 125.691 256.106C125.426 255.057 125.269 254.304 125.308 254.203C125.347 254.101 124.921 250.414 124.921 250.414L123.241 251.239Z" fill="#FFCBA1"/>
<path d="M113.277 250.418L114.89 251.528C114.89 251.528 113.585 254.428 113.383 254.696C113.18 254.965 113.294 254.762 113.18 254.965C113.067 255.168 112.721 256.345 112.713 256.537C112.704 256.726 112.034 258.169 111.861 258.594C111.687 259.018 111.391 259.817 111.362 260.11C111.333 260.403 111.201 260.606 111.336 260.698C111.47 260.788 111.706 260.921 111.791 260.977C111.876 261.033 112.032 261.394 111.995 261.457C111.958 261.521 111.833 261.584 111.609 261.575C111.384 261.565 111.233 261.559 111.233 261.559L110.227 261.514L108.984 261.459C108.984 261.459 109.041 260.959 109.129 260.929C109.217 260.899 109.587 260.741 109.642 260.674C109.697 260.606 111.023 255.251 111.154 255.049C111.284 254.846 111.812 253.452 111.921 253.318C112.031 253.184 113.136 250.119 113.136 250.119L113.277 250.418Z" fill="#FFCBA1"/>
<path d="M118.675 262.121C118.677 262.074 118.47 262.144 118.644 261.23C118.817 260.317 119.555 259.866 119.986 259.62C120.419 259.374 121.195 259.127 121.598 259.519C122.002 259.911 122.521 260.169 122.59 260.547C122.66 260.923 122.577 261.388 122.541 261.683C122.504 261.978 122.221 262.73 122.215 262.902C122.206 263.074 118.764 262.795 118.764 262.795L118.675 262.121Z" fill="#FFCBA1"/>
<path d="M115.52 262.646C115.52 262.646 116.134 261.952 116.23 261.878C116.325 261.805 117.029 261.514 117.062 261.455C117.096 261.394 117.24 261.249 117.087 260.918C116.931 260.589 116.676 259.763 116.472 259.522C116.266 259.284 114.601 258.749 114.246 258.764C113.892 258.779 113.853 258.626 113.457 258.884C113.061 259.143 112.817 259.454 112.717 259.634C112.617 259.815 112.379 260.342 112.356 260.494C112.334 260.648 112.381 261.325 112.31 261.553C112.238 261.78 112.267 262.439 112.267 262.439L115.52 262.646Z" fill="#FFCBA1"/>
<path d="M112.558 250.247C112.612 250.198 112.9 248.377 113.349 247.6C113.798 246.824 115.045 246.412 115.432 246.274C115.818 246.135 117.704 245.388 117.91 245.38C118.118 245.372 121.267 245.754 121.42 245.812C121.574 245.87 124.259 246.578 124.457 247.191C124.655 247.806 125.252 250.341 125.284 250.428C125.314 250.516 125.258 250.998 125.258 250.998C125.258 250.998 124.956 251.192 124.413 251.323C123.871 251.454 123.038 251.523 122.968 251.536C122.899 251.55 122.798 252.636 122.798 252.636C122.798 252.636 122.635 254.756 122.644 254.966C122.652 255.173 122.666 256.421 122.424 256.79C122.183 257.16 120.495 257.38 120.255 257.334C120.014 257.29 117.974 256.87 117.609 256.923C117.243 256.977 115.484 256.848 115.034 256.862C114.582 256.877 114.329 256.762 114.304 256.518C114.279 256.275 114.262 254.699 114.337 254.565C114.412 254.43 114.703 252.955 114.706 252.886C114.709 252.817 114.634 252.156 114.623 252.036C114.611 251.913 114.164 251.444 114.047 251.352C113.93 251.261 113.185 250.865 113.033 250.806C112.88 250.747 112.548 250.422 112.552 250.335C112.558 250.248 112.558 250.247 112.558 250.247Z" fill="#FFF599"/>
<path d="M116.886 242.739C116.886 242.739 116.325 240.57 118.199 240.064C120.071 239.558 120.679 241.869 120.696 242.267C120.713 242.666 120.636 244.826 120.676 245.052C120.718 245.278 120.86 247.17 120.215 247.281C119.57 247.39 118.76 247.736 118.045 246.649C117.883 246.379 117.905 245.535 117.905 245.535C117.905 245.535 117.396 245.306 116.886 242.739Z" fill="#FFCBA1"/>
<path d="M120.596 241.792C120.596 241.792 120.775 239.715 118.499 240.02C116.592 240.275 116.452 241.324 116.615 242.545L116.684 242.537C115.456 244.984 119.355 244.024 120.413 242.049L120.596 241.792Z" fill="#908DFF"/>
<path d="M50.714 259.369C50.714 259.369 50.9854 260.319 50.8097 261.488C50.6334 262.657 50.5959 263.657 51.0253 264.024C51.4551 264.391 51.0295 265.116 51.4457 265.211C51.7162 265.273 55.9832 264.71 56.3306 264.804C56.6779 264.898 57.8081 264.627 57.9843 264.73C58.1606 264.832 59.6357 264.602 59.8664 264.645C60.097 264.687 59.9615 264.234 60.1865 264.139C60.4106 264.044 60.8207 262.996 60.8207 262.996L60.801 262.559L60.186 261.597L59.8631 260.729L59.5682 260.556C59.5682 260.556 59.3906 260.425 59.264 260.149C59.1375 259.872 59.0634 259.503 58.9931 259.207C58.9223 258.911 58.8735 258.432 58.6354 258.54C58.3954 258.649 50.714 259.369 50.714 259.369Z" fill="#32417F"/>
<path d="M47.1346 252.716C47.1346 252.716 46.8454 256.859 46.8937 256.97C46.9424 257.081 46.8051 257.93 46.5618 259.116C46.318 260.303 46.3738 263.308 46.3991 263.597C46.4249 263.886 46.3246 264.497 46.3316 264.575C46.3387 264.652 46.0368 264.969 45.8085 265.243C45.5802 265.515 45.8273 265.454 45.8273 265.454C45.8273 265.454 46.1287 265.564 46.326 265.603C46.5238 265.643 47.1998 265.604 47.4205 265.68C47.6409 265.757 48.9618 265.544 49.0584 265.534C49.1549 265.526 49.3335 265.354 49.3143 265.143C49.2951 264.93 49.0293 264.779 49.0293 264.779L48.1874 264.486C48.1874 264.486 48.1654 264.022 48.1354 263.908C48.1059 263.795 48.7795 261.772 48.8174 261.109C48.8549 260.445 48.9421 260.107 48.8666 259.706C48.7916 259.305 48.8123 258.235 48.8249 258.156C48.8376 258.077 49.0635 256.697 49.2074 256.355C49.3513 256.012 49.0429 253.651 49.0537 253.553L47.1346 252.716Z" fill="#FFCBA1"/>
<path d="M60.2962 251.79C60.2962 251.79 61.6851 255.161 61.8144 255.306C61.9434 255.449 62.6052 256.982 62.7604 257.202C62.916 257.42 64.6687 263.343 64.7338 263.414C64.7985 263.486 65.2208 263.642 65.3198 263.673C65.4191 263.702 65.5077 264.257 65.5077 264.257L64.1207 264.383L62.999 264.482C62.999 264.482 62.8298 264.498 62.579 264.52C62.3287 264.542 62.1871 264.477 62.1416 264.408C62.0966 264.338 62.2541 263.929 62.3451 263.861C62.4365 263.795 62.6938 263.635 62.8396 263.526C62.9854 263.417 62.8293 263.196 62.781 262.871C62.7327 262.546 62.3629 261.665 62.1463 261.2C61.9298 260.737 61.109 259.156 61.0902 258.945C61.071 258.731 60.6248 257.431 60.4884 257.211C60.352 256.99 60.4884 257.211 60.2484 256.922C60.0088 256.633 58.4043 253.455 58.4043 253.455L60.1504 252.134L60.2962 251.79Z" fill="#FFCBA1"/>
<path d="M60.9552 252.002C60.9642 252.097 60.6088 252.48 60.441 252.552C60.2737 252.626 59.4618 253.106 59.3357 253.215C59.2092 253.323 58.7338 253.871 58.7268 254.007C58.7203 254.143 58.6696 254.886 58.6767 254.963C58.6832 255.04 59.0821 256.675 59.1731 256.822C59.2635 256.968 59.3245 258.731 59.3099 259.002C59.2949 259.276 59.3901 261.179 58.8853 261.184C58.3809 261.191 56.421 261.424 56.0095 261.384C55.5984 261.342 53.3381 261.914 53.0713 261.977C52.806 262.039 50.9076 261.879 50.6188 261.478C50.3306 261.077 49.9101 257.922 49.9087 257.689C49.9073 257.456 49.6181 255.093 49.6181 255.093C49.6181 255.093 49.4517 253.884 49.3729 253.872C49.2942 253.86 48.359 253.827 47.7463 253.707C47.1332 253.587 46.7854 253.385 46.7854 253.385C46.7854 253.385 46.6982 252.849 46.7287 252.75C46.7582 252.65 47.2987 249.786 47.4885 249.089C47.6784 248.393 50.6446 247.467 50.8134 247.393C50.9821 247.32 54.4832 246.735 54.7162 246.733C54.9492 246.733 57.0932 247.473 57.5324 247.608C57.9721 247.744 59.3863 248.141 59.9282 248.986C60.4696 249.831 60.8835 251.853 60.9468 251.906C60.9473 251.906 60.9468 251.906 60.9552 252.002Z" fill="#FFFEF8"/>
<path d="M54.7312 246.907C54.7312 246.907 54.6313 247.3 54.4626 247.608C53.3268 248.272 52.971 247.799 52.2449 247.708C51.5179 247.619 51.5732 246.762 51.6084 246.507C51.6431 246.251 51.4471 243.841 51.4467 243.395C51.4453 242.948 52.0078 240.334 54.1279 240.804C56.2476 241.276 55.7296 243.73 55.7296 243.73C55.288 246.624 54.7312 246.907 54.7312 246.907Z" fill="#FFCBA1"/>
<path d="M52.5904 246.512C52.5904 246.512 51.5113 246.653 51.2268 245.42C50.9427 244.186 51.1762 244.291 51.1171 242.979C51.0581 241.667 49.6856 241.378 51.6267 240.837C53.5673 240.297 55.0021 239.603 55.2759 240.391C55.5496 241.179 55.8351 241.51 55.7301 241.799C55.6246 242.089 55.8262 242.542 55.8051 242.825C55.7845 243.108 55.4353 243.927 55.4353 243.927C55.4353 243.927 54.6309 244.192 54.6234 244.365C54.6159 244.536 54.3351 244.927 54.3576 245.28C54.3796 245.633 54.8273 245.7 54.3881 245.962C53.9493 246.224 53.5706 246.471 53.5706 246.471L52.5904 246.512Z" fill="#9E5A2D"/>
<path opacity="0.6" d="M-4.5639 277.082H376.704L377.172 376.14H-4.09609L-4.5639 277.082Z" fill="#33EFFF"/>
<path d="M377.005 352.74C362.035 355.447 352.824 354.774 342.145 354.736C332.641 354.724 328.994 353.189 312.304 351.923C301.995 351.612 293.897 351.556 282.978 352.113C275.03 352.516 256.752 353.466 248.539 352.187C227.734 348.197 193.36 348.814 175.503 351.573C157.646 354.335 165.357 349.874 153.993 350.299C142.63 350.719 144.455 352.423 138.774 350.933C133.092 349.447 131.719 346.447 126.878 347.303C126.329 347.631 121.2 352.469 109.042 346.097C104.781 343.863 89.1172 346.147 86.0844 346.097C83.0708 346.048 41.7692 349.183 37.9137 346.209C33.4681 343.599 17.877 343.663 13.4122 346.209C8.9478 348.765 -7.82877 348.187 -7.82877 348.187L-7.13736 376.73L377.172 377.756L377.005 352.74Z" fill="#D8BD80"/>
<rect x="315.775" y="15.2949" width="45.0996" height="25" rx="12.5" fill="#969696" fill-opacity="0.3"/>
<path d="M323.886 32.9209H323.066V23.9521L320.359 24.957V24.1914L323.75 22.9336H323.886V32.9209ZM328.398 27.8213L328.883 22.9678H333.86V23.7266H329.587L329.239 27.0898C329.772 26.7253 330.396 26.543 331.112 26.543C332.01 26.543 332.725 26.8346 333.258 27.418C333.792 28.0013 334.058 28.7783 334.058 29.749C334.058 30.7972 333.798 31.6107 333.279 32.1895C332.759 32.7682 332.028 33.0576 331.084 33.0576C330.219 33.0576 329.517 32.8161 328.979 32.333C328.441 31.8499 328.134 31.1732 328.056 30.3027H328.842C328.92 30.9818 329.15 31.4967 329.533 31.8477C329.916 32.194 330.433 32.3672 331.084 32.3672C331.795 32.3672 332.331 32.1416 332.691 31.6904C333.056 31.2393 333.238 30.5967 333.238 29.7627C333.238 29.0335 333.035 28.4388 332.629 27.9785C332.224 27.5182 331.67 27.2881 330.968 27.2881C330.581 27.2881 330.244 27.3382 329.957 27.4385C329.669 27.5342 329.366 27.7233 329.047 28.0059L328.398 27.8213ZM335.624 33.7754H334.878L339.035 22.9678H339.773L335.624 33.7754ZM347.409 32.9209H341.174V32.292L344.585 28.4229C345.151 27.7712 345.542 27.2334 345.761 26.8096C345.98 26.3857 346.089 25.9733 346.089 25.5723C346.089 24.9434 345.905 24.4466 345.536 24.082C345.167 23.7129 344.658 23.5283 344.011 23.5283C343.341 23.5283 342.799 23.7425 342.384 24.1709C341.974 24.5993 341.769 25.1553 341.769 25.8389H340.956C340.956 25.2783 341.081 24.7679 341.332 24.3076C341.587 23.8473 341.947 23.4873 342.412 23.2275C342.881 22.9632 343.414 22.8311 344.011 22.8311C344.923 22.8311 345.634 23.0703 346.144 23.5488C346.659 24.0273 346.917 24.679 346.917 25.5039C346.917 25.9688 346.771 26.4769 346.479 27.0283C346.192 27.5798 345.684 28.2679 344.955 29.0928L342.179 32.2305H347.409V32.9209ZM353.964 29.7148H355.516V30.4053H353.964V32.9209H353.144V30.4053H348.461V29.9404L353.069 22.9678H353.964V29.7148ZM349.466 29.7148H353.144V24.0273L352.782 24.6562L349.466 29.7148Z" fill="black"/>
</g>
<defs>
<linearGradient id="paint0_linear" x1="187.318" y1="376.14" x2="187.318" y2="-2.70811" gradientUnits="userSpaceOnUse">
<stop offset="0.1444" stop-color="white"/>
<stop offset="1" stop-color="#4FC3F7"/>
</linearGradient>
<clipPath id="clip0">
<rect width="375" height="375" fill="white" transform="translate(0.775146 0.294922)"/>
</clipPath>
</defs>
</svg>
