<svg width="50" height="50" viewBox="0 0 50 50" fill="none" xmlns="http://www.w3.org/2000/svg">
<g filter="url(#filter0_d)">
<circle cx="33.1157" cy="11.937" r="0.987733" fill="#0019FF"/>
<circle cx="35.7739" cy="11.8745" r="0.987733" fill="#0019FF"/>
<circle cx="30.4399" cy="11.8745" r="0.987733" fill="#0019FF"/>
<circle cx="33.2065" cy="8.91156" r="0.987733" fill="#0019FF"/>
<circle cx="33.2065" cy="14.8373" r="0.987733" fill="#0019FF"/>
<path d="M38.3352 33.971L33.2039 30.5292C32.9873 30.3749 32.7336 30.2811 32.4688 30.2575C32.204 30.2338 31.9376 30.2811 31.6972 30.3946L29.7271 31.3938C29.48 31.5153 29.2027 31.562 28.9294 31.5283C28.6561 31.4945 28.3985 31.3817 28.1884 31.2037C24.5052 28.1559 22.0399 23.8859 21.242 19.1722C21.1929 18.9012 21.224 18.6218 21.3314 18.3682C21.4388 18.1146 21.6179 17.8979 21.8467 17.7446L23.6405 16.44C23.8628 16.2935 24.0421 16.0904 24.1597 15.8515C24.2773 15.6127 24.3291 15.3467 24.3096 15.0812L23.8946 8.91639L23.7998 7.3373C23.7827 7.11004 23.7145 6.88959 23.6002 6.69239C23.417 6.37234 23.1209 6.13227 22.7698 6.01926C21.8018 5.69706 20.7709 5.6105 19.7627 5.76678C18.7544 5.92305 17.7981 6.31766 16.973 6.91781L16.5701 7.22448L16.3614 7.38447C16.2642 7.45456 16.1709 7.52984 16.0819 7.61L15.8248 7.85716C12.4311 11.1739 13.0695 19.5124 17.4427 27.7924L18.7732 30.0969C23.7508 38.0131 30.653 42.7352 35.2427 41.5242L35.5853 41.4251C35.6986 41.3884 35.8098 41.3456 35.9185 41.2969L36.1625 41.198L36.6296 41.0024C37.5614 40.5875 38.3808 39.9563 39.0197 39.1612C39.6586 38.3661 40.0986 37.43 40.3032 36.4307C40.3809 36.0702 40.321 35.6937 40.1355 35.375C40.0218 35.1774 39.865 35.0081 39.6767 34.8797L38.3352 33.971Z" fill="black" stroke="black" stroke-width="0.5" stroke-miterlimit="10"/>
</g>
<defs>
<filter id="filter0_d" x="9.41016" y="5.44141" width="35.1765" height="44.5217" filterUnits="userSpaceOnUse" color-interpolation-filters="sRGB">
<feFlood flood-opacity="0" result="BackgroundImageFix"/>
<feColorMatrix in="SourceAlpha" type="matrix" values="0 0 0 0 0 0 0 0 0 0 0 0 0 0 0 0 0 0 127 0"/>
<feOffset dy="4"/>
<feGaussianBlur stdDeviation="2"/>
<feColorMatrix type="matrix" values="0 0 0 0 0 0 0 0 0 0 0 0 0 0 0 0 0 0 0.25 0"/>
<feBlend mode="normal" in2="BackgroundImageFix" result="effect1_dropShadow"/>
<feBlend mode="normal" in="SourceGraphic" in2="effect1_dropShadow" result="shape"/>
</filter>
</defs>
</svg>
