<svg width="50" height="51" viewBox="0 0 50 51" fill="none" xmlns="http://www.w3.org/2000/svg">
<g filter="url(#filter0_d)">
<ellipse cx="33.0034" cy="13.4097" rx="0.97406" ry="0.938967" fill="#0019FF"/>
<ellipse cx="35.6245" cy="13.3511" rx="0.97406" ry="0.938967" fill="#0019FF"/>
<ellipse cx="30.3647" cy="13.3511" rx="0.97406" ry="0.938967" fill="#0019FF"/>
<ellipse cx="33.0922" cy="10.5347" rx="0.97406" ry="0.938967" fill="#0019FF"/>
<ellipse cx="33.0922" cy="16.1675" rx="0.97406" ry="0.938967" fill="#0019FF"/>
<path d="M38.1504 34.3561L33.0901 31.0842C32.8766 30.9375 32.6264 30.8483 32.3652 30.8258C32.1041 30.8034 31.8414 30.8484 31.6043 30.9562L29.6615 31.9061C29.4178 32.0216 29.1444 32.066 28.8748 32.0339C28.6053 32.0018 28.3513 31.8946 28.1441 31.7254C24.5118 28.828 22.0807 24.7689 21.2939 20.2879C21.2455 20.0303 21.2761 19.7647 21.382 19.5236C21.488 19.2825 21.6646 19.0765 21.8902 18.9307L23.6591 17.6905C23.8784 17.5513 24.0551 17.3582 24.1711 17.1311C24.2872 16.9041 24.3382 16.6513 24.319 16.3989L23.9097 10.5384L23.8163 9.03729C23.7994 8.82126 23.7321 8.61168 23.6194 8.42422C23.4388 8.11997 23.1467 7.89176 22.8005 7.78433C21.8459 7.47803 20.8292 7.39575 19.835 7.54431C18.8407 7.69287 17.8976 8.068 17.084 8.63852L16.6866 8.93004L16.4808 9.08214C16.385 9.14876 16.293 9.22033 16.2052 9.29653L15.9516 9.53149C12.6049 12.6845 13.2344 20.6113 17.5471 28.4825L18.8592 30.6732C23.768 38.1986 30.5746 42.6876 35.1007 41.5363L35.4386 41.4421C35.5503 41.4072 35.66 41.3665 35.7672 41.3203L36.0078 41.2262L36.4684 41.0403C37.3873 40.6459 38.1954 40.0458 38.8254 39.29C39.4555 38.5341 39.8894 37.6443 40.0912 36.6943C40.1678 36.3516 40.1088 35.9937 39.9258 35.6907C39.8137 35.5029 39.659 35.342 39.4734 35.2199L38.1504 34.3561Z" fill="#F8F8F8" stroke="black" stroke-width="0.5" stroke-miterlimit="10"/>
</g>
<defs>
<filter id="filter0_d" x="9.56348" y="7.22656" width="34.814" height="42.7363" filterUnits="userSpaceOnUse" color-interpolation-filters="sRGB">
<feFlood flood-opacity="0" result="BackgroundImageFix"/>
<feColorMatrix in="SourceAlpha" type="matrix" values="0 0 0 0 0 0 0 0 0 0 0 0 0 0 0 0 0 0 127 0"/>
<feOffset dy="4"/>
<feGaussianBlur stdDeviation="2"/>
<feColorMatrix type="matrix" values="0 0 0 0 0 0 0 0 0 0 0 0 0 0 0 0 0 0 0.25 0"/>
<feBlend mode="normal" in2="BackgroundImageFix" result="effect1_dropShadow"/>
<feBlend mode="normal" in="SourceGraphic" in2="effect1_dropShadow" result="shape"/>
</filter>
</defs>
</svg>
