<svg width="376" height="376" viewBox="0 0 376 376" fill="none" xmlns="http://www.w3.org/2000/svg">
<g clip-path="url(#clip0)">
<g clip-path="url(#clip1)">
<path d="M100.993 123.834C100.993 113.132 117.439 104.521 137.717 104.521C157.459 104.521 173.563 112.581 174.4 123.123L174.397 291.511C174.423 291.811 174.44 292.078 174.44 292.381C174.44 303.084 157.967 311.744 137.69 311.744C117.413 311.744 100.993 303.06 100.993 292.356C100.993 291.471 100.993 124.719 100.993 123.834Z" fill="#ED1C24"/>
<path d="M84.4654 88.0847L104.296 67.3997L109.509 66.6132L109.237 64.0355C109.237 64.0355 127.046 64.2629 127.498 64.1501C127.951 64.0374 127.299 66.9501 127.299 66.9501C127.299 66.9501 133.758 67.1751 134.665 67.0624C135.572 66.9501 132.43 63.2426 132.43 63.2426L101.01 43.3578C100.217 42.9091 98.8447 40.6761 100.415 38.2181C102.03 35.6904 105.882 37.741 105.882 37.741C105.882 37.741 153.476 64.0291 155.402 65.0402C157.329 66.0513 157.215 69.1244 157.215 69.1244L157.102 75.4558H162.48V88.071C162.48 88.071 156.845 88.1265 156.505 88.0142L152.78 87.1534L145.762 100.204C145.762 100.204 153.812 103.237 155.398 104.248C156.985 105.259 154.859 107.061 152.567 107.506C146.788 108.63 140.443 108.63 135.91 108.63C131.378 108.63 121.973 107.506 120.839 106.158C119.706 104.81 123.226 102.114 123.226 102.114L126.846 100.684C126.846 100.684 127.072 99.3052 125.033 97.8454C122.993 96.3852 114.494 95.8232 110.641 95.149C106.788 94.4748 101.916 90.8797 99.4225 88.5225C96.9293 86.1652 95.6829 85.1936 95.6829 85.1936L88.4306 91.1047C88.4306 91.1047 85.7108 92.2276 84.4644 91.1047C83.2185 89.9813 84.4654 88.0847 84.4654 88.0847ZM98.7434 82.9033C100.103 84.5881 108.489 92.213 108.489 92.213C108.489 92.213 125.777 95.8833 126.846 94.5353L129.112 94.2493C129.112 94.2493 134.665 82.7882 133.192 79.8682C131.719 76.9482 126.279 71.3308 126.279 71.3308H106.789C106.789 71.3308 99.8765 78.4611 99.5367 78.8278C99.1965 79.1954 97.3833 81.218 98.7434 82.9033Z" fill="#262626"/>
<path d="M147.585 103.238C142.327 103.238 138.065 99.0128 138.065 93.8003C138.065 88.5878 142.327 84.3623 147.585 84.3623C152.842 84.3623 157.104 88.5878 157.104 93.8003C157.104 99.0128 152.842 103.238 147.585 103.238Z" fill="#EDEDED"/>
<path d="M148.619 87.1925L149.202 87.2656L148.987 88.9499L148.404 88.8767L148.619 87.1925Z" fill="black"/>
<path d="M144.052 87.8405L144.594 87.6162L145.254 89.1828L144.712 89.4071L144.052 87.8405Z" fill="black"/>
<path d="M140.848 90.0049L141.257 89.5879L142.485 90.7708L142.076 91.1879L140.848 90.0049Z" fill="black"/>
<path d="M152.188 88.2713L152.686 88.582L151.772 90.0177L151.275 89.707L152.188 88.2713Z" fill="black"/>
<path d="M154.019 89.5976L154.427 90.0146L153.198 91.1966L152.79 90.7795L154.019 89.5976Z" fill="black"/>
<path d="M146.5 87.188L146.843 87.1611L146.951 88.5154L146.608 88.5423L146.5 87.188Z" fill="black"/>
<path d="M150.839 87.6581L151.155 87.7871L150.633 89.0432L150.317 88.9141L150.839 87.6581Z" fill="black"/>
<path d="M142.162 88.9111L142.438 88.707L143.257 89.7955L142.982 89.9995L142.162 88.9111Z" fill="black"/>
<path d="M147.583 82.873C153.671 82.873 158.606 87.7658 158.606 93.8006C158.606 99.8355 153.671 104.729 147.583 104.729C141.496 104.729 136.56 99.836 136.56 93.8006C136.56 87.7658 141.496 82.873 147.583 82.873ZM147.583 102.628C152.501 102.628 156.486 98.6759 156.486 93.8011C156.486 88.9262 152.501 84.9745 147.583 84.9745C142.666 84.9745 138.681 88.9262 138.681 93.8011C138.681 98.6759 142.667 102.628 147.583 102.628Z" fill="#AAAAAA"/>
<path d="M147.583 82.873C153.671 82.873 158.606 87.7658 158.606 93.8006C158.606 99.8355 153.671 104.729 147.583 104.729C141.496 104.729 136.56 99.836 136.56 93.8006C136.56 87.7658 141.496 82.873 147.583 82.873ZM147.583 103.953C153.239 103.953 157.823 99.4074 157.823 93.8011C157.823 88.1947 153.239 83.6495 147.583 83.6495C141.928 83.6495 137.343 88.1947 137.343 93.8011C137.343 99.4074 141.928 103.953 147.583 103.953Z" fill="#E2E2E2"/>
<path d="M147.843 95.8827C147.835 95.8649 147.567 89.2383 147.567 89.2383L147.178 89.247L147.113 95.896L147.843 95.8827Z" fill="#EA2424"/>
<path d="M147.584 98.2634C146.467 98.2634 145.562 97.3658 145.562 96.2587C145.562 95.1515 146.467 94.2539 147.584 94.2539C148.701 94.2539 149.606 95.1515 149.606 96.2587C149.606 97.3658 148.701 98.2634 147.584 98.2634Z" fill="#3F3F3F"/>
<path d="M94.1545 42.404C97.404 42.1767 100.912 43.3587 100.912 43.3587L132.43 63.2435V64.4563H123.183V67.0152L121.658 66.967L121.747 64.4563H120.217L120.09 67.1394L118.603 67.0853L118.656 64.7006L117.549 64.5347L117.412 67.0724L114.87 67.0019L114.948 64.4563H112.909L112.781 67.0935C112.781 67.0935 111.551 66.9294 111.125 67.0152L111.185 64.4888L103.884 64.344C103.884 64.344 101.188 67.1861 95.8262 67.1989C89.5369 67.215 83.4177 63.7747 82.9078 55.6861C82.3077 46.1725 89.7348 42.713 94.1545 42.404ZM95.2307 64.4714C100.675 64.4714 105.089 60.0962 105.089 54.6979C105.089 49.3001 100.675 44.924 95.2307 44.924C89.7861 44.924 85.3724 49.3001 85.3724 54.6979C85.3724 60.0962 89.7861 64.4714 95.2307 64.4714Z" fill="#FFCF36"/>
</g>
<path d="M271.261 275.002C271.261 274.938 271.216 274.874 271.216 274.81C271.216 272.156 266.199 270.005 260.044 270.005C253.981 270.005 249.025 272.106 248.879 274.693H248.739V287.343H248.878C248.875 287.343 248.871 287.434 248.871 287.473C248.871 290.127 253.86 292.284 260.016 292.284C266.17 292.284 271.216 290.136 271.216 287.482C271.216 287.417 271.261 287.356 271.261 287.293L271.261 275.002Z" fill="#C41033"/>
<path d="M272.705 244.274C272.705 241.272 267.027 238.865 260.066 238.865C253.21 238.865 247.584 240.956 247.295 244.124C247.295 244.124 247.295 277.221 247.295 277.266C247.295 280.267 253.072 282.652 260.033 282.652C266.993 282.652 272.705 280.222 272.705 277.22C272.705 277.148 272.705 244.346 272.705 244.274Z" fill="#D81A36"/>
<path d="M260.016 249.336C266.9 249.336 272.48 246.93 272.48 243.961C272.48 240.993 266.9 238.587 260.016 238.587C253.131 238.587 247.551 240.993 247.551 243.961C247.551 246.93 253.131 249.336 260.016 249.336Z" fill="#ED1D45"/>
<path d="M271.261 170.435C271.261 170.371 271.216 170.307 271.216 170.243C271.216 167.588 266.199 165.396 260.044 165.396C253.981 165.396 249.025 167.456 248.879 170.043H248.739V243.356H248.878C248.875 243.356 248.871 243.458 248.871 243.497C248.871 246.151 253.86 248.313 260.016 248.313C266.17 248.313 271.216 246.168 271.216 243.514C271.216 243.449 271.261 243.391 271.261 243.327L271.261 170.435Z" fill="#F9B938"/>
<path d="M272.48 154.836C272.48 151.867 266.928 149.447 260.044 149.447C253.263 149.447 247.557 151.891 247.557 154.664C247.557 154.664 247.61 168.996 247.61 169.04C247.61 172.009 253.161 174.401 260.046 174.401C266.929 174.401 272.432 171.988 272.432 169.02C272.432 168.948 272.48 154.908 272.48 154.836Z" fill="#D81A36"/>
<path d="M272.48 154.836C272.48 157.805 266.9 160.211 260.016 160.211C253.131 160.211 247.551 157.805 247.551 154.836C247.551 151.867 253.131 149.461 260.016 149.461C266.9 149.461 272.48 151.867 272.48 154.836Z" fill="#ED1D4F"/>
<path d="M260.015 158.678C264.935 158.678 268.924 156.958 268.924 154.836C268.924 152.715 264.935 150.995 260.015 150.995C255.095 150.995 251.106 152.715 251.106 154.836C251.106 156.958 255.095 158.678 260.015 158.678Z" fill="#E01945"/>
<rect x="315.5" y="15.9561" width="44.0746" height="25" rx="12.5" fill="#969696" fill-opacity="0.3"/>
<path d="M325.494 28.1611H326.341C326.811 28.1611 327.221 28.0791 327.572 27.915C327.923 27.7464 328.189 27.5186 328.372 27.2314C328.558 26.9398 328.652 26.6048 328.652 26.2266C328.652 25.5885 328.472 25.0895 328.112 24.7295C327.752 24.3695 327.235 24.1895 326.56 24.1895C325.922 24.1895 325.398 24.3786 324.988 24.7568C324.582 25.1305 324.379 25.625 324.379 26.2402H323.559C323.559 25.7253 323.689 25.2559 323.949 24.832C324.208 24.4036 324.569 24.0732 325.029 23.8408C325.489 23.6084 326 23.4922 326.56 23.4922C327.462 23.4922 328.173 23.7383 328.693 24.2305C329.212 24.7227 329.472 25.3971 329.472 26.2539C329.472 26.7324 329.319 27.1745 329.014 27.5801C328.713 27.9811 328.299 28.2819 327.77 28.4824C328.39 28.6556 328.859 28.9541 329.178 29.3779C329.497 29.7972 329.657 30.2985 329.657 30.8818C329.657 31.734 329.379 32.4199 328.823 32.9395C328.267 33.459 327.524 33.7188 326.594 33.7188C326.002 33.7188 325.457 33.6003 324.96 33.3633C324.468 33.1263 324.085 32.7959 323.812 32.3721C323.543 31.9437 323.409 31.4469 323.409 30.8818H324.229C324.229 31.5153 324.45 32.0326 324.892 32.4336C325.334 32.8301 325.902 33.0283 326.594 33.0283C327.301 33.0283 327.85 32.8483 328.242 32.4883C328.638 32.1237 328.836 31.5973 328.836 30.9092C328.836 30.2438 328.622 29.7357 328.194 29.3848C327.77 29.0339 327.143 28.8584 326.314 28.8584H325.494V28.1611ZM331.455 34.4365H330.709L334.866 23.6289H335.604L331.455 34.4365ZM340.813 33.582H339.993V24.6133L337.286 25.6182V24.8525L340.676 23.5947H340.813V33.582ZM350.773 29.4326C350.773 30.8363 350.515 31.9027 350 32.6318C349.486 33.3564 348.727 33.7188 347.724 33.7188C346.74 33.7188 345.986 33.3633 345.461 32.6523C344.937 31.9368 344.668 30.8978 344.655 29.5352V27.751C344.655 26.3519 344.915 25.2923 345.434 24.5723C345.954 23.8522 346.712 23.4922 347.71 23.4922C348.695 23.4922 349.447 23.8408 349.966 24.5381C350.486 25.2308 350.755 26.2539 350.773 27.6074V29.4326ZM349.953 27.6484C349.953 26.5091 349.766 25.6478 349.392 25.0645C349.023 24.4811 348.462 24.1895 347.71 24.1895C346.972 24.1895 346.416 24.4743 346.042 25.0439C345.669 25.6136 345.477 26.4544 345.468 27.5664V29.5215C345.468 30.6562 345.66 31.5244 346.042 32.126C346.43 32.7275 346.99 33.0283 347.724 33.0283C348.453 33.0283 349.005 32.7344 349.378 32.1465C349.757 31.5586 349.948 30.6973 349.953 29.5625V27.6484Z" fill="black"/>
</g>
<defs>
<clipPath id="clip0">
<rect width="375" height="375" fill="white" transform="translate(0.5 0.956055)"/>
</clipPath>
<clipPath id="clip1">
<rect width="92" height="275" fill="white" transform="matrix(-1 0 0 1 174.5 36.9561)"/>
</clipPath>
</defs>
</svg>
