<svg width="376" height="376" viewBox="0 0 376 376" fill="none" xmlns="http://www.w3.org/2000/svg">
<g clip-path="url(#clip0)">
<path d="M383.234 -14.5127H-10.5156V380.643H383.234V-14.5127Z" fill="#8BF6FF"/>
<path d="M380.187 339.394H-1.375V392.362H380.187V339.394Z" fill="#A0A0A0"/>
<path opacity="0.7" d="M296.766 189.558C319.283 189.558 337.537 171.305 337.537 148.788C337.537 126.271 319.283 108.018 296.766 108.018C274.249 108.018 255.996 126.271 255.996 148.788C255.996 171.305 274.249 189.558 296.766 189.558Z" fill="#FF0000"/>
<path opacity="0.7" d="M73.0556 257.553C95.5725 257.553 113.826 239.299 113.826 216.782C113.826 194.265 95.5725 176.012 73.0556 176.012C50.5387 176.012 32.2852 194.265 32.2852 216.782C32.2852 239.299 50.5387 257.553 73.0556 257.553Z" fill="#FF1301"/>
<path opacity="0.8" d="M31.1859 147.174H30.7171V143.432L21.0449 150.072L30.7171 156.714V152.799H31.1859H240.717V147.174H31.1859Z" fill="#FF0000"/>
<path opacity="0.8" d="M332.547 218.455H332.844V222.37L342.516 215.729L332.844 209.088V212.83H332.547H128.938V218.455H332.547Z" fill="#F90606"/>
<path d="M309.233 -20.6064H0.20459V30.9561H309.233V-20.6064Z" fill="#A0A0A0"/>
<path d="M88.0549 96.6787L109.302 96.6787L109.694 71.5865C109.694 71.5865 111.655 50.8041 98.6428 43.6787C86.0584 50.5216 87.4847 71.0787 87.4847 71.0787L88.0549 96.6787Z" fill="#E5E5E5" fill-opacity="0.6"/>
<path d="M98.7003 49.0743C98.7003 49.0743 107.835 48.8596 108.156 67.0028C108.476 85.1465 107.14 87.21 107.14 87.21L90.0508 87.21L89.5144 81.4281L89.5144 65.8302C89.5144 65.8302 89.936 49.626 98.7003 49.0743Z" fill="#E2E2E2" fill-opacity="0.9"/>
<path d="M98.6785 48.9634C91.5687 48.8298 89.3174 57.8235 88.7463 66.3178L88.9815 80.3917L89.3381 90.5504L94.8635 91.8201L95.7549 90.7712L101.673 90.7971C101.673 90.7971 102.421 91.6796 102.599 91.6796C103.604 91.6796 108.019 90.4802 108.019 90.4802C108.019 90.4802 108.177 83.583 108.25 80.4789C108.253 80.3733 108.657 66.4927 108.65 66.3183C108.348 57.8399 106.409 49.1089 98.6785 48.9634ZM107.929 80.18C107.965 80.4092 107.02 89.8094 107.02 89.8094C107.02 89.8094 103.327 90.4866 102.379 90.4866C102.211 90.4866 101.504 89.6435 101.504 89.6435L95.9176 89.6181L95.0765 90.6212L90.1585 89.8094L89.3386 80.1919C89.2197 71.8441 89.3849 71.7265 89.3386 66.3178C89.9878 58.0308 92.5472 49.2275 98.7737 49.3865C104.961 49.5444 107.468 58.1259 108.019 66.3178C108.014 66.6352 107.858 80.0389 107.929 80.18Z" fill="#CECECE"/>
<path d="M102.446 67.2879L101.504 66.1149L99.0834 65.6973L99.0834 65.783L98.6961 65.783L98.6604 65.783L98.5798 65.783L98.5798 65.6973L95.9553 66.1149L94.805 67.2879C94.1634 67.7468 94.0471 70.0565 94.0471 70.0565L94.0471 74.3426L94.4731 75.2774L97.6269 74.7308L98.679 73.0748L99.7296 74.7308L102.785 75.2774L103.113 74.3426L103.113 70.0565C103.113 70.0565 103.088 67.7463 102.446 67.2879Z" fill="#BABABA" fill-opacity="0.4"/>
<path d="M102.885 73.1833C102.876 73.0513 101.619 71.0824 101.619 71.0824L95.9457 71.0156L94.5502 73.0203L94.5502 73.3024L94.5502 73.4434L94.5502 73.5844L94.5502 75.2513L102.884 75.2513C102.885 75.2513 102.893 73.3154 102.885 73.1833Z" fill="#C6C6C6"/>
<path d="M102.005 69.7695L99.1236 69.7695L98.0241 69.7695L95.4279 69.7695C95.4279 69.7695 94.5954 70.6884 94.4599 73.5378C94.4594 73.5548 94.6089 73.4526 94.6089 73.4526C94.9872 72.9264 95.8323 71.4538 95.8323 71.4538L98.5741 71.4125L101.601 71.4155C101.601 71.4155 102.446 72.8287 102.825 73.3549C102.825 73.3549 102.974 73.5572 102.973 73.5413C102.838 70.6919 102.005 69.7695 102.005 69.7695Z" fill="#29ABE2" fill-opacity="0.4"/>
<path d="M95.5586 74.5142C95.5586 75.6608 99.3772 75.7441 99.3772 74.5037C99.3772 73.4144 95.5586 73.3123 95.5586 74.5142ZM95.8915 74.5022C95.8915 73.6825 99.0458 73.7523 99.0458 74.4948C99.0453 75.3394 95.8915 75.2836 95.8915 74.5022Z" fill="black" fill-opacity="0.4"/>
<path d="M96.9894 73.8739C96.9894 73.8739 96.9985 74.2306 97.4306 74.2267C97.8627 74.2232 97.8048 73.9053 97.8139 73.8739C97.823 73.8435 96.9894 73.8739 96.9894 73.8739Z" fill="black" fill-opacity="0.4"/>
<path d="M97.2927 74.2539L97.1814 75.2505L97.751 75.2505L97.5999 74.2539L97.2927 74.2539Z" fill="black" fill-opacity="0.4"/>
<path d="M97.6804 73.9804C97.6895 73.9804 99.0755 74.5804 99.0755 74.5804L99.1289 74.2276L97.7248 73.8135L97.6804 73.9804Z" fill="black" fill-opacity="0.4"/>
<path d="M97.0474 73.9804C97.0383 73.9804 95.5581 74.5804 95.5581 74.5804L95.5581 74.2276L96.935 73.8135L97.0474 73.9804Z" fill="black" fill-opacity="0.4"/>
<path d="M108.019 66.3175C108.019 66.3175 103.349 66.3524 102.315 61.4499C101.281 56.547 100.675 49.8097 100.604 49.6687C100.532 49.5277 107.52 51.2205 108.019 66.3175Z" fill="#E8CDA0" fill-opacity="0.4"/>
<path d="M89.3381 66.3175C89.3381 66.3175 94.0083 66.3524 95.0418 61.4499C96.0752 56.547 96.6816 49.8097 96.7526 49.6687C96.8236 49.5277 89.8372 51.2205 89.3381 66.3175Z" fill="#E8CDA0" fill-opacity="0.4"/>
<path d="M89.6941 85.5404C89.6941 85.5404 89.3526 84.4037 90.4788 84.7999C94.186 86.1045 102.92 86.387 106.842 84.7296C107.663 84.3823 107.65 84.5871 107.626 85.1353C107.608 85.5459 107.02 89.808 107.02 89.808C107.02 89.808 100.318 92.3479 90.1579 89.808L89.6941 85.5404Z" fill="#E8CDA0" fill-opacity="0.4"/>
<path d="M103.113 80.4944C103.113 80.7301 102.778 80.7321 102.449 80.7321L94.9271 80.7321C94.5973 80.7321 94.5509 80.7306 94.5509 80.4944L94.5509 78.0123C94.5509 77.7776 94.5973 77.7422 94.9271 77.7422L102.449 77.7422C102.779 77.7422 103.113 77.7781 103.113 78.0123L103.113 80.4944Z" fill="#E8CDA0" fill-opacity="0.4"/>
<path d="M84.3013 62.0814C84.3013 63.1096 85.1437 63.9431 86.1829 63.9431C87.222 63.9431 88.0645 63.1096 88.0645 62.0814C88.0645 61.0532 87.222 60.2197 86.1829 60.2197C85.1437 60.2197 84.3013 61.0532 84.3013 62.0814Z" fill="#3B59AD" fill-opacity="0.4"/>
<path d="M109.317 62.0814C109.317 63.1096 110.159 63.9431 111.198 63.9431C112.238 63.9431 113.08 63.1096 113.08 62.0814C113.08 61.0532 112.238 60.2197 111.198 60.2197C110.159 60.2197 109.317 61.0532 109.317 62.0814Z" fill="#3B59AD" fill-opacity="0.4"/>
<path d="M109.317 82.6713C109.317 83.6995 110.159 84.533 111.198 84.533C112.238 84.533 113.08 83.6995 113.08 82.6713C113.08 81.6431 112.238 80.8096 111.198 80.8096C110.159 80.8096 109.317 81.6431 109.317 82.6713Z" fill="#3B59AD" fill-opacity="0.4"/>
<path d="M84.0801 82.89C84.0801 83.9182 84.9225 84.7517 85.9617 84.7517C87.0008 84.7517 87.8433 83.9182 87.8433 82.89C87.8433 81.8618 87.0008 81.0283 85.9617 81.0283C84.9225 81.0283 84.0801 81.8618 84.0801 82.89Z" fill="#3B59AD" fill-opacity="0.4"/>
<path d="M32.0138 96.6787L53.2608 96.6787L53.6532 71.5865C53.6532 71.5865 55.6138 50.8041 42.6018 43.6787C30.0174 50.5216 31.4437 71.0787 31.4437 71.0787L32.0138 96.6787Z" fill="#E5E5E5" fill-opacity="0.6"/>
<path d="M42.6593 49.0743C42.6593 49.0743 51.7938 48.8596 52.1146 67.0028C52.4354 85.1465 51.0992 87.21 51.0992 87.21L34.0098 87.21L33.4734 81.4281L33.4734 65.8302C33.4734 65.8302 33.8949 49.626 42.6593 49.0743Z" fill="#E2E2E2" fill-opacity="0.9"/>
<path d="M42.6375 48.9634C35.5277 48.8298 33.2764 57.8235 32.7053 66.3178L32.9405 80.3917L33.297 90.5504L38.8225 91.8201L39.7139 90.7712L45.6317 90.7971C45.6317 90.7971 46.3801 91.6796 46.5583 91.6796C47.5626 91.6796 51.978 90.4802 51.978 90.4802C51.978 90.4802 52.1356 83.583 52.2092 80.4789C52.2117 80.3733 52.6156 66.4927 52.6091 66.3183C52.3069 57.8399 50.3684 49.1089 42.6375 48.9634ZM51.8883 80.18C51.9236 80.4092 50.9793 89.8094 50.9793 89.8094C50.9793 89.8094 47.2861 90.4866 46.3383 90.4866C46.1695 90.4866 45.4629 89.6435 45.4629 89.6435L39.8766 89.6181L39.0355 90.6212L34.1175 89.8094L33.2976 80.1919C33.1787 71.8441 33.3439 71.7265 33.2976 66.3178C33.9467 58.0308 36.5062 49.2275 42.7327 49.3865C48.9199 49.5444 51.427 58.1259 51.978 66.3178C51.9735 66.6352 51.8168 80.0389 51.8883 80.18Z" fill="#CECECE"/>
<path d="M46.4052 67.2879L45.4634 66.1149L43.0424 65.6973L43.0424 65.783L42.6551 65.783L42.6194 65.783L42.5388 65.783L42.5388 65.6973L39.9143 66.1149L38.764 67.2879C38.1224 67.7468 38.006 70.0565 38.006 70.0565L38.006 74.3426L38.4321 75.2774L41.5859 74.7308L42.638 73.0748L43.6886 74.7308L46.7442 75.2774L47.0715 74.3426L47.0715 70.0565C47.0715 70.0565 47.0469 67.7463 46.4052 67.2879Z" fill="#BABABA" fill-opacity="0.4"/>
<path d="M46.8439 73.1833C46.8348 73.0513 45.5782 71.0824 45.5782 71.0824L39.9047 71.0156L38.5091 73.0203L38.5091 73.3024L38.5091 73.4434L38.5091 73.5844L38.5091 75.2513L46.8434 75.2513C46.8439 75.2513 46.8524 73.3154 46.8439 73.1833Z" fill="#C6C6C6"/>
<path d="M45.9639 69.7695L43.0826 69.7695L41.9831 69.7695L39.3869 69.7695C39.3869 69.7695 38.5543 70.6884 38.4189 73.5378C38.4184 73.5548 38.5679 73.4526 38.5679 73.4526C38.9462 72.9264 39.7913 71.4538 39.7913 71.4538L42.5331 71.4125L45.56 71.4155C45.56 71.4155 46.4051 72.8287 46.7838 73.3549C46.7838 73.3549 46.9329 73.5572 46.9324 73.5413C46.7969 70.6919 45.9639 69.7695 45.9639 69.7695Z" fill="#29ABE2" fill-opacity="0.4"/>
<path d="M39.5176 74.5142C39.5176 75.6608 43.3362 75.7441 43.3362 74.5037C43.3362 73.4144 39.5176 73.3123 39.5176 74.5142ZM39.8505 74.5022C39.8505 73.6825 43.0048 73.7523 43.0048 74.4948C43.0043 75.3394 39.8505 75.2836 39.8505 74.5022Z" fill="black" fill-opacity="0.4"/>
<path d="M40.9484 73.8739C40.9484 73.8739 40.9575 74.2306 41.3896 74.2267C41.8217 74.2232 41.7638 73.9053 41.7729 73.8739C41.7819 73.8435 40.9484 73.8739 40.9484 73.8739Z" fill="black" fill-opacity="0.4"/>
<path d="M41.2517 74.2539L41.1404 75.2505L41.71 75.2505L41.5589 74.2539L41.2517 74.2539Z" fill="black" fill-opacity="0.4"/>
<path d="M41.6394 73.9804C41.6485 73.9804 43.0345 74.5804 43.0345 74.5804L43.0879 74.2276L41.6837 73.8135L41.6394 73.9804Z" fill="black" fill-opacity="0.4"/>
<path d="M41.0063 73.9804C40.9973 73.9804 39.5171 74.5804 39.5171 74.5804L39.5171 74.2276L40.894 73.8135L41.0063 73.9804Z" fill="black" fill-opacity="0.4"/>
<path d="M51.978 66.3175C51.978 66.3175 47.3083 66.3524 46.2743 61.4499C45.2404 56.547 44.634 49.8097 44.563 49.6687C44.4914 49.5277 51.4789 51.2205 51.978 66.3175Z" fill="#E8CDA0" fill-opacity="0.4"/>
<path d="M33.297 66.3175C33.297 66.3175 37.9673 66.3524 39.0008 61.4499C40.0342 56.547 40.6406 49.8097 40.7116 49.6687C40.7826 49.5277 33.7962 51.2205 33.297 66.3175Z" fill="#E8CDA0" fill-opacity="0.4"/>
<path d="M33.6531 85.5404C33.6531 85.5404 33.3116 84.4037 34.4377 84.7999C38.145 86.1045 46.8791 86.387 50.801 84.7296C51.6224 84.3823 51.6093 84.5871 51.5851 85.1353C51.5665 85.5459 50.9788 89.808 50.9788 89.808C50.9788 89.808 44.2768 92.3479 34.1169 89.808L33.6531 85.5404Z" fill="#E8CDA0" fill-opacity="0.4"/>
<path d="M47.0718 80.4944C47.0718 80.7301 46.7374 80.7321 46.408 80.7321L38.8861 80.7321C38.5562 80.7321 38.5099 80.7306 38.5099 80.4944L38.5099 78.0123C38.5099 77.7776 38.5562 77.7422 38.8861 77.7422L46.408 77.7422C46.7379 77.7422 47.0718 77.7781 47.0718 78.0123L47.0718 80.4944Z" fill="#E8CDA0" fill-opacity="0.4"/>
<path d="M28.2602 62.0814C28.2602 63.1096 29.1027 63.9431 30.1418 63.9431C31.181 63.9431 32.0234 63.1096 32.0234 62.0814C32.0234 61.0532 31.181 60.2197 30.1418 60.2197C29.1027 60.2197 28.2602 61.0532 28.2602 62.0814Z" fill="#3B59AD" fill-opacity="0.4"/>
<path d="M53.2759 62.0814C53.2759 63.1096 54.1183 63.9431 55.1575 63.9431C56.1966 63.9431 57.0391 63.1096 57.0391 62.0814C57.0391 61.0532 56.1966 60.2197 55.1575 60.2197C54.1183 60.2197 53.2759 61.0532 53.2759 62.0814Z" fill="#3B59AD" fill-opacity="0.4"/>
<path d="M53.2759 82.6713C53.2759 83.6995 54.1183 84.533 55.1575 84.533C56.1966 84.533 57.0391 83.6995 57.0391 82.6713C57.0391 81.6431 56.1966 80.8096 55.1575 80.8096C54.1183 80.8096 53.2759 81.6431 53.2759 82.6713Z" fill="#3B59AD" fill-opacity="0.4"/>
<path d="M28.0391 82.89C28.0391 83.9182 28.8815 84.7517 29.9206 84.7517C30.9598 84.7517 31.8022 83.9182 31.8022 82.89C31.8022 81.8618 30.9598 81.0283 29.9206 81.0283C28.8815 81.0283 28.0391 81.8618 28.0391 82.89Z" fill="#3B59AD" fill-opacity="0.4"/>
<path d="M283.19 96.6787L304.437 96.6787L304.83 71.5865C304.83 71.5865 306.79 50.8041 293.778 43.6787C281.194 50.5216 282.62 71.0787 282.62 71.0787L283.19 96.6787Z" fill="#E5E5E5" fill-opacity="0.6"/>
<path d="M293.836 49.0743C293.836 49.0743 302.97 48.8596 303.291 67.0028C303.612 85.1465 302.276 87.21 302.276 87.21L285.186 87.21L284.65 81.4281L284.65 65.8302C284.65 65.8302 285.071 49.626 293.836 49.0743Z" fill="#E2E2E2" fill-opacity="0.9"/>
<path d="M293.814 48.9634C286.704 48.8298 284.453 57.8235 283.882 66.3178L284.117 80.3917L284.474 90.5504L289.999 91.8201L290.89 90.7712L296.808 90.7971C296.808 90.7971 297.557 91.6796 297.735 91.6796C298.739 91.6796 303.155 90.4802 303.155 90.4802C303.155 90.4802 303.312 83.583 303.386 80.4789C303.388 80.3733 303.792 66.4927 303.786 66.3183C303.483 57.8399 301.545 49.1089 293.814 48.9634ZM303.065 80.18C303.1 80.4092 302.156 89.8094 302.156 89.8094C302.156 89.8094 298.463 90.4866 297.515 90.4866C297.346 90.4866 296.639 89.6435 296.639 89.6435L291.053 89.6181L290.212 90.6212L285.294 89.8094L284.474 80.1919C284.355 71.8441 284.52 71.7265 284.474 66.3178C285.123 58.0308 287.683 49.2275 293.909 49.3865C300.096 49.5444 302.604 58.1259 303.155 66.3178C303.15 66.6352 302.993 80.0389 303.065 80.18Z" fill="#CECECE"/>
<path d="M297.582 67.2879L296.64 66.1149L294.219 65.6973L294.219 65.783L293.832 65.783L293.796 65.783L293.715 65.783L293.715 65.6973L291.091 66.1149L289.941 67.2879C289.299 67.7468 289.183 70.0565 289.183 70.0565L289.183 74.3426L289.609 75.2774L292.762 74.7308L293.815 73.0748L294.865 74.7308L297.921 75.2774L298.248 74.3426L298.248 70.0565C298.248 70.0565 298.223 67.7463 297.582 67.2879Z" fill="#BABABA" fill-opacity="0.4"/>
<path d="M298.02 73.1833C298.011 73.0513 296.755 71.0824 296.755 71.0824L291.081 71.0156L289.686 73.0203L289.686 73.3024L289.686 73.4434L289.686 73.5844L289.686 75.2513L298.02 75.2513C298.02 75.2513 298.029 73.3154 298.02 73.1833Z" fill="#C6C6C6"/>
<path d="M297.14 69.7695L294.259 69.7695L293.16 69.7695L290.563 69.7695C290.563 69.7695 289.731 70.6884 289.595 73.5378C289.595 73.5548 289.744 73.4526 289.744 73.4526C290.123 72.9264 290.968 71.4538 290.968 71.4538L293.71 71.4125L296.736 71.4155C296.736 71.4155 297.582 72.8287 297.96 73.3549C297.96 73.3549 298.109 73.5572 298.109 73.5413C297.973 70.6919 297.14 69.7695 297.14 69.7695Z" fill="#29ABE2" fill-opacity="0.4"/>
<path d="M290.694 74.5142C290.694 75.6608 294.513 75.7441 294.513 74.5037C294.513 73.4144 290.694 73.3123 290.694 74.5142ZM291.027 74.5022C291.027 73.6825 294.181 73.7523 294.181 74.4948C294.181 75.3394 291.027 75.2836 291.027 74.5022Z" fill="black" fill-opacity="0.4"/>
<path d="M292.125 73.8739C292.125 73.8739 292.134 74.2306 292.566 74.2267C292.998 74.2232 292.94 73.9053 292.949 73.8739C292.958 73.8435 292.125 73.8739 292.125 73.8739Z" fill="black" fill-opacity="0.4"/>
<path d="M292.428 74.2539L292.317 75.2505L292.886 75.2505L292.735 74.2539L292.428 74.2539Z" fill="black" fill-opacity="0.4"/>
<path d="M292.816 73.9804C292.825 73.9804 294.211 74.5804 294.211 74.5804L294.264 74.2276L292.86 73.8135L292.816 73.9804Z" fill="black" fill-opacity="0.4"/>
<path d="M292.183 73.9804C292.174 73.9804 290.694 74.5804 290.694 74.5804L290.694 74.2276L292.071 73.8135L292.183 73.9804Z" fill="black" fill-opacity="0.4"/>
<path d="M303.155 66.3175C303.155 66.3175 298.485 66.3524 297.451 61.4499C296.417 56.547 295.81 49.8097 295.739 49.6687C295.668 49.5277 302.655 51.2205 303.155 66.3175Z" fill="#E8CDA0" fill-opacity="0.4"/>
<path d="M284.474 66.3175C284.474 66.3175 289.144 66.3524 290.177 61.4499C291.211 56.547 291.817 49.8097 291.888 49.6687C291.959 49.5277 284.973 51.2205 284.474 66.3175Z" fill="#E8CDA0" fill-opacity="0.4"/>
<path d="M284.83 85.5404C284.83 85.5404 284.488 84.4037 285.614 84.7999C289.322 86.1045 298.056 86.387 301.977 84.7296C302.799 84.3823 302.786 84.5871 302.762 85.1353C302.743 85.5459 302.155 89.808 302.155 89.808C302.155 89.808 295.453 92.3479 285.293 89.808L284.83 85.5404Z" fill="#E8CDA0" fill-opacity="0.4"/>
<path d="M298.248 80.4944C298.248 80.7301 297.914 80.7321 297.584 80.7321L290.063 80.7321C289.733 80.7321 289.686 80.7306 289.686 80.4944L289.686 78.0123C289.686 77.7776 289.733 77.7422 290.063 77.7422L297.584 77.7422C297.914 77.7422 298.248 77.7781 298.248 78.0123L298.248 80.4944Z" fill="#E8CDA0" fill-opacity="0.4"/>
<path d="M279.437 62.0814C279.437 63.1096 280.279 63.9431 281.318 63.9431C282.358 63.9431 283.2 63.1096 283.2 62.0814C283.2 61.0532 282.358 60.2197 281.318 60.2197C280.279 60.2197 279.437 61.0532 279.437 62.0814Z" fill="#3B59AD" fill-opacity="0.4"/>
<path d="M304.452 62.0814C304.452 63.1096 305.295 63.9431 306.334 63.9431C307.373 63.9431 308.216 63.1096 308.216 62.0814C308.216 61.0532 307.373 60.2197 306.334 60.2197C305.295 60.2197 304.452 61.0532 304.452 62.0814Z" fill="#3B59AD" fill-opacity="0.4"/>
<path d="M304.452 82.6713C304.452 83.6995 305.295 84.533 306.334 84.533C307.373 84.533 308.216 83.6995 308.216 82.6713C308.216 81.6431 307.373 80.8096 306.334 80.8096C305.295 80.8096 304.452 81.6431 304.452 82.6713Z" fill="#3B59AD" fill-opacity="0.4"/>
<path d="M279.216 82.89C279.216 83.9182 280.058 84.7517 281.097 84.7517C282.136 84.7517 282.979 83.9182 282.979 82.89C282.979 81.8618 282.136 81.0283 281.097 81.0283C280.058 81.0283 279.216 81.8618 279.216 82.89Z" fill="#3B59AD" fill-opacity="0.4"/>
<path d="M8.77132 276.108L-12.4757 276.108L-12.868 301.201C-12.868 301.201 -14.8287 321.983 -1.81667 329.108C10.7677 322.266 9.34144 301.708 9.34144 301.708L8.77132 276.108Z" fill="#E5E5E5" fill-opacity="0.6"/>
<path d="M-1.8741 323.713C-1.8741 323.713 -11.0086 323.928 -11.3294 305.784C-11.6502 287.641 -10.3141 285.577 -10.3141 285.577L6.77538 285.577L7.31176 291.359L7.31176 306.957C7.31176 306.957 6.89021 323.161 -1.8741 323.713Z" fill="#E2E2E2" fill-opacity="0.9"/>
<path d="M-1.85236 323.824C5.2575 323.957 7.50875 314.964 8.07988 306.469L7.84468 292.395L7.48811 282.237L1.96269 280.967L1.07125 282.016L-4.8465 281.99C-4.8465 281.99 -5.5949 281.107 -5.77319 281.107C-6.77744 281.107 -11.1928 282.307 -11.1928 282.307C-11.1928 282.307 -11.3505 289.204 -11.424 292.308C-11.4265 292.414 -11.8304 306.294 -11.8239 306.469C-11.5217 314.947 -9.58321 323.678 -1.85236 323.824ZM-11.1032 292.607C-11.1384 292.378 -10.1941 282.978 -10.1941 282.978C-10.1941 282.978 -6.50095 282.3 -5.5531 282.3C-5.38438 282.3 -4.67778 283.144 -4.67778 283.144L0.908577 283.169L1.74965 282.166L6.66768 282.978L7.4876 292.595C7.60646 300.943 7.44127 301.061 7.4876 306.469C6.83842 314.756 4.27893 323.56 -1.94755 323.401C-8.13475 323.243 -10.6419 314.661 -11.1928 306.469C-11.1883 306.152 -11.0317 292.748 -11.1032 292.607Z" fill="#CECECE"/>
<path d="M-5.62006 305.499L-4.67826 306.672L-2.25727 307.09L-2.25727 307.004L-1.86997 307.004L-1.83421 307.004L-1.75363 307.004L-1.75363 307.09L0.870833 306.672L2.02114 305.499C2.66278 305.04 2.77912 302.731 2.77912 302.731L2.77912 298.445L2.35305 297.51L-0.800744 298.056L-1.85285 299.712L-2.90344 298.056L-5.95901 297.51L-6.28638 298.445L-6.28638 302.731C-6.28638 302.731 -6.2617 305.041 -5.62006 305.499Z" fill="#BABABA" fill-opacity="0.4"/>
<path d="M-6.05871 299.604C-6.04965 299.736 -4.79307 301.705 -4.79307 301.705L0.880422 301.771L2.27601 299.767L2.27601 299.485L2.27601 299.344L2.27601 299.203L2.27601 297.536L-6.05821 297.536C-6.05871 297.536 -6.06728 299.472 -6.05871 299.604Z" fill="#C6C6C6"/>
<path d="M-5.17872 303.018L-2.2974 303.018L-1.19796 303.018L1.3983 303.018C1.3983 303.018 2.23082 302.099 2.3663 299.249C2.3668 299.232 2.21722 299.335 2.21722 299.335C1.83899 299.861 0.993884 301.333 0.993884 301.333L-1.74793 301.375L-4.7748 301.372C-4.7748 301.372 -5.61991 299.958 -5.99864 299.432C-5.99864 299.432 -6.14772 299.23 -6.14722 299.246C-6.01174 302.095 -5.17872 303.018 -5.17872 303.018Z" fill="#29ABE2" fill-opacity="0.4"/>
<path d="M1.26755 298.273C1.26755 297.126 -2.55103 297.043 -2.55103 298.283C-2.55103 299.373 1.26755 299.475 1.26755 298.273ZM0.934652 298.285C0.934652 299.105 -2.21964 299.035 -2.21964 298.292C-2.21913 297.448 0.934652 297.503 0.934652 298.285Z" fill="black" fill-opacity="0.4"/>
<path d="M-0.221191 298.807C-0.212126 298.807 1.26807 298.207 1.26807 298.207L1.26807 298.56L-0.108877 298.974L-0.221191 298.807Z" fill="black" fill-opacity="0.4"/>
<path d="M7.48811 306.47C7.48811 306.47 2.81786 306.435 1.78439 311.337C0.750924 316.24 0.144549 322.977 0.0735357 323.118C0.00252262 323.259 6.989 321.567 7.48811 306.47Z" fill="#E8CDA0" fill-opacity="0.4"/>
<path d="M7.13208 287.247C7.13208 287.247 7.47355 288.383 6.34741 287.987C2.64012 286.683 -6.09399 286.4 -10.0158 288.057C-10.8373 288.405 -10.8242 288.2 -10.8 287.652C-10.7814 287.241 -10.1936 282.979 -10.1936 282.979C-10.1936 282.979 -3.49168 280.439 6.66822 282.979L7.13208 287.247Z" fill="#E8CDA0" fill-opacity="0.4"/>
<path d="M-6.28662 292.293C-6.28662 292.057 -5.95221 292.055 -5.62283 292.055L1.89902 292.055C2.22891 292.055 2.27524 292.057 2.27524 292.293L2.27524 294.775C2.27524 295.01 2.22891 295.045 1.89902 295.045L-5.62283 295.045C-5.95271 295.045 -6.28662 295.009 -6.28662 294.775L-6.28662 292.293Z" fill="#E8CDA0" fill-opacity="0.4"/>
<path d="M12.5249 310.706C12.5249 309.677 11.6825 308.844 10.6433 308.844C9.60414 308.844 8.76172 309.677 8.76172 310.706C8.76172 311.734 9.60414 312.567 10.6433 312.567C11.6825 312.567 12.5249 311.734 12.5249 310.706Z" fill="#3B59AD" fill-opacity="0.4"/>
<path d="M12.7461 289.897C12.7461 288.869 11.9037 288.035 10.8645 288.035C9.82533 288.035 8.98291 288.869 8.98291 289.897C8.98291 290.925 9.82533 291.759 10.8645 291.759C11.9037 291.759 12.7461 290.925 12.7461 289.897Z" fill="#3B59AD" fill-opacity="0.4"/>
<path d="M103.673 276.108L82.4259 276.108L82.0336 301.201C82.0336 301.201 80.0729 321.983 93.0849 329.108C105.669 322.266 104.243 301.708 104.243 301.708L103.673 276.108Z" fill="#E5E5E5" fill-opacity="0.6"/>
<path d="M93.0275 323.713C93.0275 323.713 83.893 323.928 83.5722 305.784C83.2514 287.641 84.5875 285.577 84.5875 285.577L101.677 285.577L102.213 291.359L102.213 306.957C102.213 306.957 101.792 323.161 93.0275 323.713Z" fill="#E2E2E2" fill-opacity="0.9"/>
<path d="M93.0492 323.824C100.159 323.957 102.41 314.964 102.981 306.469L102.746 292.395L102.39 282.237L96.8643 280.967L95.9729 282.016L90.0551 281.99C90.0551 281.99 89.3067 281.107 89.1284 281.107C88.1242 281.107 83.7088 282.307 83.7088 282.307C83.7088 282.307 83.5511 289.204 83.4776 292.308C83.4751 292.414 83.0712 306.294 83.0777 306.469C83.3799 314.947 85.3184 323.678 93.0492 323.824ZM83.7984 292.607C83.7632 292.378 84.7075 282.978 84.7075 282.978C84.7075 282.978 88.4007 282.3 89.3485 282.3C89.5172 282.3 90.2238 283.144 90.2238 283.144L95.8102 283.169L96.6513 282.166L101.569 282.978L102.389 292.595C102.508 300.943 102.343 301.061 102.389 306.469C101.74 314.756 99.1805 323.56 92.9541 323.401C86.7669 323.243 84.2597 314.661 83.7088 306.469C83.7133 306.152 83.8699 292.748 83.7984 292.607Z" fill="#CECECE"/>
<path d="M89.2815 305.499L90.2233 306.672L92.6443 307.09L92.6443 307.004L93.0316 307.004L93.0674 307.004L93.148 307.004L93.148 307.09L95.7724 306.672L96.9228 305.499C97.5644 305.04 97.6807 302.731 97.6807 302.731L97.6807 298.445L97.2547 297.51L94.1009 298.056L93.0488 299.712L91.9982 298.056L88.9426 297.51L88.6152 298.445L88.6152 302.731C88.6152 302.731 88.6399 305.041 89.2815 305.499Z" fill="#BABABA" fill-opacity="0.4"/>
<path d="M88.8429 299.604C88.852 299.736 90.1085 301.705 90.1085 301.705L95.782 301.771L97.1776 299.767L97.1776 299.485L97.1776 299.344L97.1776 299.203L97.1776 297.536L88.8434 297.536C88.8429 297.536 88.8343 299.472 88.8429 299.604Z" fill="#C6C6C6"/>
<path d="M89.7229 303.018L92.6042 303.018L93.7037 303.018L96.2999 303.018C96.2999 303.018 97.1324 302.099 97.2679 299.249C97.2684 299.232 97.1188 299.335 97.1188 299.335C96.7406 299.861 95.8955 301.333 95.8955 301.333L93.1537 301.375L90.1268 301.372C90.1268 301.372 89.2817 299.958 88.903 299.432C88.903 299.432 88.7539 299.23 88.7544 299.246C88.8899 302.095 89.7229 303.018 89.7229 303.018Z" fill="#29ABE2" fill-opacity="0.4"/>
<path d="M96.1692 298.273C96.1692 297.126 92.3506 297.043 92.3506 298.283C92.3506 299.373 96.1692 299.475 96.1692 298.273ZM95.8363 298.285C95.8363 299.105 92.682 299.035 92.682 298.292C92.6825 297.448 95.8363 297.503 95.8363 298.285Z" fill="black" fill-opacity="0.4"/>
<path d="M94.7384 298.913C94.7384 298.913 94.7293 298.556 94.2972 298.56C93.865 298.564 93.923 298.882 93.9139 298.913C93.9048 298.944 94.7384 298.913 94.7384 298.913Z" fill="black" fill-opacity="0.4"/>
<path d="M94.4351 298.533L94.5464 297.537L93.9768 297.537L94.1279 298.533L94.4351 298.533Z" fill="black" fill-opacity="0.4"/>
<path d="M94.0473 298.807C94.0383 298.807 92.6523 298.207 92.6523 298.207L92.5989 298.56L94.003 298.974L94.0473 298.807Z" fill="black" fill-opacity="0.4"/>
<path d="M94.6804 298.807C94.6895 298.807 96.1697 298.207 96.1697 298.207L96.1697 298.56L94.7927 298.974L94.6804 298.807Z" fill="black" fill-opacity="0.4"/>
<path d="M83.7087 306.47C83.7087 306.47 88.3785 306.435 89.4124 311.337C90.4464 316.24 91.0528 322.977 91.1238 323.118C91.1953 323.259 84.2078 321.567 83.7087 306.47Z" fill="#E8CDA0" fill-opacity="0.4"/>
<path d="M102.39 306.47C102.39 306.47 97.7195 306.435 96.686 311.337C95.6525 316.24 95.0462 322.977 94.9751 323.118C94.9041 323.259 101.891 321.567 102.39 306.47Z" fill="#E8CDA0" fill-opacity="0.4"/>
<path d="M102.034 287.247C102.034 287.247 102.375 288.383 101.249 287.987C97.5417 286.683 88.8076 286.4 84.8858 288.057C84.0644 288.405 84.0774 288.2 84.1016 287.652C84.1203 287.241 84.708 282.979 84.708 282.979C84.708 282.979 91.4099 280.439 101.57 282.979L102.034 287.247Z" fill="#E8CDA0" fill-opacity="0.4"/>
<path d="M88.615 292.293C88.615 292.057 88.9494 292.055 89.2788 292.055L96.8006 292.055C97.1305 292.055 97.1769 292.057 97.1769 292.293L97.1769 294.775C97.1769 295.01 97.1305 295.045 96.8006 295.045L89.2788 295.045C88.9489 295.045 88.615 295.009 88.615 294.775L88.615 292.293Z" fill="#E8CDA0" fill-opacity="0.4"/>
<path d="M107.427 310.706C107.427 309.677 106.584 308.844 105.545 308.844C104.506 308.844 103.663 309.677 103.663 310.706C103.663 311.734 104.506 312.567 105.545 312.567C106.584 312.567 107.427 311.734 107.427 310.706Z" fill="#3B59AD" fill-opacity="0.4"/>
<path d="M82.4109 310.706C82.4109 309.677 81.5685 308.844 80.5293 308.844C79.4901 308.844 78.6477 309.677 78.6477 310.706C78.6477 311.734 79.4901 312.567 80.5293 312.567C81.5685 312.567 82.4109 311.734 82.4109 310.706Z" fill="#3B59AD" fill-opacity="0.4"/>
<path d="M82.4109 290.116C82.4109 289.088 81.5685 288.254 80.5293 288.254C79.4901 288.254 78.6477 289.088 78.6477 290.116C78.6477 291.144 79.4901 291.978 80.5293 291.978C81.5685 291.978 82.4109 291.144 82.4109 290.116Z" fill="#3B59AD" fill-opacity="0.4"/>
<path d="M107.648 289.897C107.648 288.869 106.805 288.035 105.766 288.035C104.727 288.035 103.885 288.869 103.885 289.897C103.885 290.925 104.727 291.759 105.766 291.759C106.805 291.759 107.648 290.925 107.648 289.897Z" fill="#3B59AD" fill-opacity="0.4"/>
<path d="M161.652 276.108L140.405 276.108L140.013 301.201C140.013 301.201 138.052 321.983 151.064 329.108C163.649 322.266 162.223 301.708 162.223 301.708L161.652 276.108Z" fill="#E5E5E5" fill-opacity="0.6"/>
<path d="M151.007 323.713C151.007 323.713 141.873 323.928 141.552 305.784C141.231 287.641 142.567 285.577 142.567 285.577L159.656 285.577L160.193 291.359L160.193 306.957C160.193 306.957 159.771 323.161 151.007 323.713Z" fill="#E2E2E2" fill-opacity="0.9"/>
<path d="M151.029 323.824C158.139 323.957 160.39 314.964 160.961 306.469L160.726 292.395L160.369 282.237L154.844 280.967L153.952 282.016L148.035 281.99C148.035 281.99 147.286 281.107 147.108 281.107C146.104 281.107 141.688 282.307 141.688 282.307C141.688 282.307 141.531 289.204 141.457 292.308C141.455 292.414 141.051 306.294 141.057 306.469C141.359 314.947 143.298 323.678 151.029 323.824ZM141.778 292.607C141.743 292.378 142.687 282.978 142.687 282.978C142.687 282.978 146.38 282.3 147.328 282.3C147.497 282.3 148.203 283.144 148.203 283.144L153.79 283.169L154.631 282.166L159.549 282.978L160.369 292.595C160.488 300.943 160.322 301.061 160.369 306.469C159.72 314.756 157.16 323.56 150.934 323.401C144.746 323.243 142.239 314.661 141.688 306.469C141.693 306.152 141.849 292.748 141.778 292.607Z" fill="#CECECE"/>
<path d="M147.261 305.499L148.203 306.672L150.624 307.09L150.624 307.004L151.011 307.004L151.047 307.004L151.127 307.004L151.127 307.09L153.752 306.672L154.902 305.499C155.544 305.04 155.66 302.731 155.66 302.731L155.66 298.445L155.234 297.51L152.08 298.056L151.028 299.712L149.978 298.056L146.922 297.51L146.595 298.445L146.595 302.731C146.595 302.731 146.619 305.041 147.261 305.499Z" fill="#BABABA" fill-opacity="0.4"/>
<path d="M146.822 299.604C146.831 299.736 148.088 301.705 148.088 301.705L153.762 301.771L155.157 299.767L155.157 299.485L155.157 299.344L155.157 299.203L155.157 297.536L146.823 297.536C146.822 297.536 146.814 299.472 146.822 299.604Z" fill="#C6C6C6"/>
<path d="M147.702 303.018L150.584 303.018L151.683 303.018L154.279 303.018C154.279 303.018 155.112 302.099 155.247 299.249C155.248 299.232 155.098 299.335 155.098 299.335C154.72 299.861 153.875 301.333 153.875 301.333L151.133 301.375L148.106 301.372C148.106 301.372 147.261 299.958 146.882 299.432C146.882 299.432 146.733 299.23 146.734 299.246C146.869 302.095 147.702 303.018 147.702 303.018Z" fill="#29ABE2" fill-opacity="0.4"/>
<path d="M154.149 298.273C154.149 297.126 150.33 297.043 150.33 298.283C150.33 299.373 154.149 299.475 154.149 298.273ZM153.816 298.285C153.816 299.105 150.661 299.035 150.661 298.292C150.662 297.448 153.816 297.503 153.816 298.285Z" fill="black" fill-opacity="0.4"/>
<path d="M152.718 298.913C152.718 298.913 152.709 298.556 152.277 298.56C151.845 298.564 151.902 298.882 151.893 298.913C151.884 298.944 152.718 298.913 152.718 298.913Z" fill="black" fill-opacity="0.4"/>
<path d="M152.415 298.533L152.526 297.537L151.956 297.537L152.107 298.533L152.415 298.533Z" fill="black" fill-opacity="0.4"/>
<path d="M152.027 298.807C152.018 298.807 150.632 298.207 150.632 298.207L150.578 298.56L151.983 298.974L152.027 298.807Z" fill="black" fill-opacity="0.4"/>
<path d="M152.66 298.807C152.669 298.807 154.149 298.207 154.149 298.207L154.149 298.56L152.772 298.974L152.66 298.807Z" fill="black" fill-opacity="0.4"/>
<path d="M141.688 306.47C141.688 306.47 146.358 306.435 147.392 311.337C148.426 316.24 149.032 322.977 149.103 323.118C149.175 323.259 142.187 321.567 141.688 306.47Z" fill="#E8CDA0" fill-opacity="0.4"/>
<path d="M160.369 306.47C160.369 306.47 155.699 306.435 154.665 311.337C153.632 316.24 153.026 322.977 152.955 323.118C152.884 323.259 159.87 321.567 160.369 306.47Z" fill="#E8CDA0" fill-opacity="0.4"/>
<path d="M160.013 287.247C160.013 287.247 160.355 288.383 159.229 287.987C155.521 286.683 146.787 286.4 142.865 288.057C142.044 288.405 142.057 288.2 142.081 287.652C142.1 287.241 142.687 282.979 142.687 282.979C142.687 282.979 149.389 280.439 159.549 282.979L160.013 287.247Z" fill="#E8CDA0" fill-opacity="0.4"/>
<path d="M146.594 292.293C146.594 292.057 146.929 292.055 147.258 292.055L154.78 292.055C155.11 292.055 155.156 292.057 155.156 292.293L155.156 294.775C155.156 295.01 155.11 295.045 154.78 295.045L147.258 295.045C146.928 295.045 146.594 295.009 146.594 294.775L146.594 292.293Z" fill="#E8CDA0" fill-opacity="0.4"/>
<path d="M165.406 310.706C165.406 309.677 164.564 308.844 163.524 308.844C162.485 308.844 161.643 309.677 161.643 310.706C161.643 311.734 162.485 312.567 163.524 312.567C164.564 312.567 165.406 311.734 165.406 310.706Z" fill="#3B59AD" fill-opacity="0.4"/>
<path d="M140.39 310.706C140.39 309.677 139.548 308.844 138.509 308.844C137.47 308.844 136.627 309.677 136.627 310.706C136.627 311.734 137.47 312.567 138.509 312.567C139.548 312.567 140.39 311.734 140.39 310.706Z" fill="#3B59AD" fill-opacity="0.4"/>
<path d="M140.39 290.116C140.39 289.088 139.548 288.254 138.509 288.254C137.47 288.254 136.627 289.088 136.627 290.116C136.627 291.144 137.47 291.978 138.509 291.978C139.548 291.978 140.39 291.144 140.39 290.116Z" fill="#3B59AD" fill-opacity="0.4"/>
<path d="M165.627 289.897C165.627 288.869 164.785 288.035 163.746 288.035C162.706 288.035 161.864 288.869 161.864 289.897C161.864 290.925 162.706 291.759 163.746 291.759C164.785 291.759 165.627 290.925 165.627 289.897Z" fill="#3B59AD" fill-opacity="0.4"/>
<path d="M299.883 276.108L278.636 276.108L278.244 301.201C278.244 301.201 276.283 321.983 289.295 329.108C301.88 322.266 300.453 301.708 300.453 301.708L299.883 276.108Z" fill="#E5E5E5" fill-opacity="0.6"/>
<path d="M289.238 323.713C289.238 323.713 280.103 323.928 279.783 305.784C279.462 287.641 280.798 285.577 280.798 285.577L297.887 285.577L298.424 291.359L298.424 306.957C298.424 306.957 298.002 323.161 289.238 323.713Z" fill="#E2E2E2" fill-opacity="0.9"/>
<path d="M289.26 323.824C296.37 323.957 298.621 314.964 299.192 306.469L298.957 292.395L298.6 282.237L293.075 280.967L292.183 282.016L286.266 281.99C286.266 281.99 285.517 281.107 285.339 281.107C284.335 281.107 279.919 282.307 279.919 282.307C279.919 282.307 279.762 289.204 279.688 292.308C279.686 292.414 279.282 306.294 279.288 306.469C279.59 314.947 281.529 323.678 289.26 323.824ZM280.009 292.607C279.974 292.378 280.918 282.978 280.918 282.978C280.918 282.978 284.611 282.3 285.559 282.3C285.728 282.3 286.434 283.144 286.434 283.144L292.021 283.169L292.862 282.166L297.78 282.978L298.6 292.595C298.719 300.943 298.553 301.061 298.6 306.469C297.95 314.756 295.391 323.56 289.165 323.401C282.977 323.243 280.47 314.661 279.919 306.469C279.924 306.152 280.08 292.748 280.009 292.607Z" fill="#CECECE"/>
<path d="M285.492 305.499L286.434 306.672L288.855 307.09L288.855 307.004L289.242 307.004L289.278 307.004L289.358 307.004L289.358 307.09L291.983 306.672L293.133 305.499C293.775 305.04 293.891 302.731 293.891 302.731L293.891 298.445L293.465 297.51L290.311 298.056L289.259 299.712L288.209 298.056L285.153 297.51L284.826 298.445L284.826 302.731C284.826 302.731 284.85 305.041 285.492 305.499Z" fill="#BABABA" fill-opacity="0.4"/>
<path d="M285.053 299.604C285.062 299.736 286.319 301.705 286.319 301.705L291.992 301.771L293.388 299.767L293.388 299.485L293.388 299.344L293.388 299.203L293.388 297.536L285.054 297.536C285.053 297.536 285.045 299.472 285.053 299.604Z" fill="#C6C6C6"/>
<path d="M285.933 303.018L288.815 303.018L289.914 303.018L292.51 303.018C292.51 303.018 293.343 302.099 293.478 299.249C293.479 299.232 293.329 299.335 293.329 299.335C292.951 299.861 292.106 301.333 292.106 301.333L289.364 301.375L286.337 301.372C286.337 301.372 285.492 299.958 285.113 299.432C285.113 299.432 284.964 299.23 284.965 299.246C285.1 302.095 285.933 303.018 285.933 303.018Z" fill="#29ABE2" fill-opacity="0.4"/>
<path d="M292.38 298.273C292.38 297.126 288.561 297.043 288.561 298.283C288.561 299.373 292.38 299.475 292.38 298.273ZM292.047 298.285C292.047 299.105 288.892 299.035 288.892 298.292C288.893 297.448 292.047 297.503 292.047 298.285Z" fill="black" fill-opacity="0.4"/>
<path d="M290.949 298.913C290.949 298.913 290.94 298.556 290.508 298.56C290.075 298.564 290.133 298.882 290.124 298.913C290.115 298.944 290.949 298.913 290.949 298.913Z" fill="black" fill-opacity="0.4"/>
<path d="M290.646 298.533L290.757 297.537L290.187 297.537L290.338 298.533L290.646 298.533Z" fill="black" fill-opacity="0.4"/>
<path d="M290.258 298.807C290.249 298.807 288.863 298.207 288.863 298.207L288.809 298.56L290.213 298.974L290.258 298.807Z" fill="black" fill-opacity="0.4"/>
<path d="M290.891 298.807C290.9 298.807 292.38 298.207 292.38 298.207L292.38 298.56L291.003 298.974L290.891 298.807Z" fill="black" fill-opacity="0.4"/>
<path d="M279.919 306.47C279.919 306.47 284.589 306.435 285.623 311.337C286.657 316.24 287.263 322.977 287.334 323.118C287.406 323.259 280.418 321.567 279.919 306.47Z" fill="#E8CDA0" fill-opacity="0.4"/>
<path d="M298.6 306.47C298.6 306.47 293.93 306.435 292.896 311.337C291.863 316.24 291.257 322.977 291.186 323.118C291.115 323.259 298.101 321.567 298.6 306.47Z" fill="#E8CDA0" fill-opacity="0.4"/>
<path d="M298.244 287.247C298.244 287.247 298.586 288.383 297.459 287.987C293.752 286.683 285.018 286.4 281.096 288.057C280.275 288.405 280.288 288.2 280.312 287.652C280.331 287.241 280.918 282.979 280.918 282.979C280.918 282.979 287.62 280.439 297.78 282.979L298.244 287.247Z" fill="#E8CDA0" fill-opacity="0.4"/>
<path d="M284.825 292.293C284.825 292.057 285.16 292.055 285.489 292.055L293.011 292.055C293.341 292.055 293.387 292.057 293.387 292.293L293.387 294.775C293.387 295.01 293.341 295.045 293.011 295.045L285.489 295.045C285.159 295.045 284.825 295.009 284.825 294.775L284.825 292.293Z" fill="#E8CDA0" fill-opacity="0.4"/>
<path d="M303.637 310.706C303.637 309.677 302.795 308.844 301.755 308.844C300.716 308.844 299.874 309.677 299.874 310.706C299.874 311.734 300.716 312.567 301.755 312.567C302.795 312.567 303.637 311.734 303.637 310.706Z" fill="#3B59AD" fill-opacity="0.4"/>
<path d="M278.621 310.706C278.621 309.677 277.779 308.844 276.74 308.844C275.701 308.844 274.858 309.677 274.858 310.706C274.858 311.734 275.701 312.567 276.74 312.567C277.779 312.567 278.621 311.734 278.621 310.706Z" fill="#3B59AD" fill-opacity="0.4"/>
<path d="M278.621 290.116C278.621 289.088 277.779 288.254 276.74 288.254C275.701 288.254 274.858 289.088 274.858 290.116C274.858 291.144 275.701 291.978 276.74 291.978C277.779 291.978 278.621 291.144 278.621 290.116Z" fill="#3B59AD" fill-opacity="0.4"/>
<path d="M303.858 289.897C303.858 288.869 303.016 288.035 301.977 288.035C300.937 288.035 300.095 288.869 300.095 289.897C300.095 290.925 300.937 291.759 301.977 291.759C303.016 291.759 303.858 290.925 303.858 289.897Z" fill="#3B59AD" fill-opacity="0.4"/>
<path opacity="0.8" d="M364.329 125.281C357.297 126.237 350.919 130.632 345.036 131.777C339.153 132.924 334.494 131.395 327.425 132.732C320.358 134.07 316.116 138.846 311.148 140.184C306.181 141.521 297.095 141.945 293.509 144.885C289.922 147.826 291.303 150.6 291.303 150.6C291.303 150.6 290.719 152.983 293.497 155.261C297.084 158.202 306.152 158.626 311.122 159.963C316.089 161.3 320.295 166.077 327.364 167.414C334.434 168.752 339.154 167.223 345.037 168.37C350.92 169.516 357.297 173.911 364.329 174.866V125.281Z" fill="url(#paint0_linear)"/>
<path d="M313.249 160.345V139.098L288.157 138.706C288.157 138.706 267.374 136.745 260.249 149.757C267.092 162.341 287.649 160.915 287.649 160.915L313.249 160.345Z" fill="#E5E5E5" fill-opacity="0.6"/>
<path d="M265.645 149.699C265.645 149.699 265.43 140.565 283.574 140.244C301.717 139.923 303.781 141.259 303.781 141.259V158.349L297.999 158.885H282.401C282.401 158.885 266.197 158.464 265.645 149.699Z" fill="#E2E2E2" fill-opacity="0.9"/>
<path d="M265.533 149.721C265.4 156.83 274.394 159.082 282.888 159.653L296.962 159.418L307.12 159.061L308.39 153.536L307.341 152.644L307.367 146.727C307.367 146.727 308.25 145.978 308.25 145.8C308.25 144.796 307.05 140.38 307.05 140.38C307.05 140.38 300.153 140.223 297.049 140.149C296.943 140.146 283.063 139.743 282.888 139.749C274.41 140.051 265.679 141.99 265.533 149.721ZM296.75 140.47C296.979 140.435 306.379 141.379 306.379 141.379C306.379 141.379 307.057 145.072 307.057 146.02C307.057 146.189 306.214 146.895 306.214 146.895L306.188 152.482L307.191 153.323L306.379 158.241L296.762 159.061C288.414 159.179 288.297 159.014 282.888 159.061C274.601 158.411 265.798 155.852 265.957 149.625C266.114 143.438 274.696 140.931 282.888 140.38C283.205 140.385 296.609 140.541 296.75 140.47Z" fill="#CECECE"/>
<path d="M283.859 145.953L282.686 146.895L282.268 149.316H282.354V149.704V149.739V149.82H282.268L282.686 152.444L283.859 153.595C284.318 154.236 286.627 154.353 286.627 154.353H290.913L291.848 153.927L291.302 150.773L289.646 149.721L291.302 148.67L291.848 145.614L290.913 145.287H286.627C286.627 145.287 284.317 145.312 283.859 145.953Z" fill="#BABABA" fill-opacity="0.4"/>
<path d="M289.753 145.515C289.621 145.524 287.652 146.78 287.652 146.78L287.585 152.454L289.59 153.849H289.872H290.013H290.154H291.821V145.515C291.821 145.515 289.885 145.506 289.753 145.515Z" fill="#C6C6C6"/>
<path d="M286.34 146.394V149.276V150.375V152.971C286.34 152.971 287.259 153.804 290.108 153.939C290.125 153.94 290.023 153.79 290.023 153.79C289.497 153.412 288.024 152.567 288.024 152.567L287.983 149.825L287.986 146.798C287.986 146.798 289.399 145.953 289.925 145.574C289.925 145.574 290.128 145.425 290.112 145.426C287.262 145.561 286.34 146.394 286.34 146.394Z" fill="#29ABE2" fill-opacity="0.4"/>
<path d="M291.085 152.841C292.231 152.841 292.315 149.022 291.074 149.022C289.985 149.022 289.883 152.841 291.085 152.841ZM291.073 152.508C290.253 152.508 290.323 149.354 291.065 149.354C291.91 149.354 291.854 152.508 291.073 152.508Z" fill="black" fill-opacity="0.4"/>
<path d="M290.445 151.41C290.445 151.41 290.801 151.401 290.797 150.969C290.794 150.537 290.476 150.595 290.445 150.586C290.414 150.577 290.445 151.41 290.445 151.41Z" fill="black" fill-opacity="0.4"/>
<path d="M290.824 151.107L291.821 151.218V150.648L290.824 150.8V151.107Z" fill="black" fill-opacity="0.4"/>
<path d="M290.551 150.719C290.551 150.71 291.151 149.324 291.151 149.324L290.798 149.271L290.384 150.675L290.551 150.719Z" fill="black" fill-opacity="0.4"/>
<path d="M290.551 151.353C290.551 151.362 291.151 152.842 291.151 152.842H290.798L290.384 151.465L290.551 151.353Z" fill="black" fill-opacity="0.4"/>
<path d="M282.888 140.381C282.888 140.381 282.923 145.051 278.02 146.085C273.118 147.119 266.38 147.725 266.239 147.796C266.098 147.867 267.791 140.88 282.888 140.381Z" fill="#E8CDA0" fill-opacity="0.4"/>
<path d="M282.888 159.062C282.888 159.062 282.923 154.391 278.02 153.358C273.118 152.324 266.38 151.718 266.239 151.647C266.098 151.576 267.791 158.562 282.888 159.062Z" fill="#E8CDA0" fill-opacity="0.4"/>
<path d="M302.111 158.706C302.111 158.706 300.975 159.048 301.371 157.921C302.676 154.214 302.958 145.48 301.301 141.558C300.953 140.737 301.158 140.75 301.706 140.774C302.117 140.793 306.379 141.38 306.379 141.38C306.379 141.38 308.919 148.082 306.379 158.242L302.111 158.706Z" fill="#E8CDA0" fill-opacity="0.4"/>
<path d="M297.065 145.287C297.301 145.287 297.303 145.622 297.303 145.951V153.473C297.303 153.803 297.301 153.849 297.065 153.849H294.583C294.348 153.849 294.313 153.803 294.313 153.473V145.951C294.313 145.621 294.349 145.287 294.583 145.287H297.065Z" fill="#E8CDA0" fill-opacity="0.4"/>
<path d="M278.652 164.098C279.68 164.098 280.513 163.256 280.513 162.217C280.513 161.177 279.68 160.335 278.652 160.335C277.624 160.335 276.79 161.177 276.79 162.217C276.79 163.256 277.624 164.098 278.652 164.098Z" fill="#3B59AD" fill-opacity="0.4"/>
<path d="M278.652 139.083C279.68 139.083 280.513 138.24 280.513 137.201C280.513 136.162 279.68 135.319 278.652 135.319C277.624 135.319 276.79 136.162 276.79 137.201C276.79 138.24 277.624 139.083 278.652 139.083Z" fill="#3B59AD" fill-opacity="0.4"/>
<path d="M299.241 139.083C300.27 139.083 301.103 138.24 301.103 137.201C301.103 136.162 300.27 135.319 299.241 135.319C298.213 135.319 297.38 136.162 297.38 137.201C297.38 138.24 298.213 139.083 299.241 139.083Z" fill="#3B59AD" fill-opacity="0.4"/>
<path d="M299.461 164.32C300.489 164.32 301.322 163.477 301.322 162.438C301.322 161.399 300.489 160.557 299.461 160.557C298.432 160.557 297.599 161.399 297.599 162.438C297.599 163.477 298.432 164.32 299.461 164.32Z" fill="#3B59AD" fill-opacity="0.4"/>
<path d="M292.33 152.301C292.33 152.301 291.901 151.956 292.584 151.795C293.267 151.634 293.95 151.32 293.95 151.32C293.95 151.32 293.738 150.586 293.537 150.486C293.336 150.386 292.42 150.47 292.191 149.834C291.961 149.197 291.816 148.91 292.779 149.181C293.74 149.453 294.419 149.552 294.419 149.552L295.01 152.199L292.484 152.301" fill="#996234" fill-opacity="0.4"/>
<path d="M294.745 151.966C294.745 151.966 293.253 152.931 293.305 152.416C293.358 151.901 293.722 152.169 293.756 151.515C293.79 150.861 293.269 150.95 293.545 150.148C293.819 149.346 293.63 149.047 294.068 149.182C294.505 149.316 294.746 149.346 294.746 149.346L294.745 151.966Z" fill="#EF45B7" fill-opacity="0.4"/>
<path d="M294.765 152.733C294.765 152.733 293.624 152.777 293.329 152.808C292.777 152.865 291.633 152.396 291.424 152.396C291.214 152.396 290.996 152.363 291.305 152.086C291.616 151.81 292.657 152.081 293.179 152.199C293.699 152.317 294.334 151.979 294.502 151.966C294.669 151.953 294.428 152.3 294.428 152.3L294.765 152.733Z" fill="#996234" fill-opacity="0.4"/>
<path d="M294.839 149.15C294.839 149.15 293.626 148.792 293.332 148.762C292.779 148.704 291.635 149.174 291.427 149.174C291.217 149.174 290.999 149.207 291.307 149.484C291.619 149.76 292.66 149.488 293.181 149.371C293.702 149.253 294.284 149.821 294.452 149.834C294.619 149.846 294.431 149.27 294.431 149.27L294.839 149.15Z" fill="#996234" fill-opacity="0.4"/>
<path d="M294.765 153.239C294.765 153.239 296.177 153.026 296.462 152.152C296.748 151.278 296.848 150.976 296.508 150.191C296.168 149.406 296.355 148.99 295.647 149.05C294.939 149.109 294.573 148.635 294.461 149.314C294.34 150.046 294.207 152.016 294.19 152.152C294.094 152.987 294.765 153.239 294.765 153.239Z" fill="#8BC7E8" fill-opacity="0.4"/>
<path d="M296.463 151.107C296.463 151.107 296.385 151.901 295.731 151.782C295.077 151.663 294.838 152.011 294.633 151.451C294.428 150.891 293.882 150.612 294.428 150.365C294.974 150.118 295.264 149.94 295.648 150.118C296.033 150.296 296.126 150.259 296.369 150.486C296.613 150.712 296.463 151.107 296.463 151.107Z" fill="#301705" fill-opacity="0.4"/>
<path opacity="0.8" d="M3.16006 190.938C10.1913 191.893 16.5696 196.288 22.4529 197.433C28.3362 198.58 32.9946 197.051 40.0638 198.389C47.1312 199.727 51.3724 204.503 56.3407 205.84C61.3081 207.177 70.3934 207.601 73.9803 210.542C77.5671 213.482 76.1857 216.257 76.1857 216.257C76.1857 216.257 76.7703 218.64 73.9915 220.917C70.4046 223.858 61.3367 224.282 56.367 225.619C51.3996 226.957 47.194 231.733 40.1248 233.071C33.0551 234.408 28.3352 232.879 22.452 234.026C16.5687 235.172 10.1913 239.567 3.16006 240.522V190.938Z" fill="url(#paint1_linear)"/>
<path d="M54.2397 226.001V204.754L79.332 204.362C79.332 204.362 100.114 202.401 107.24 215.413C100.397 227.998 79.8398 226.571 79.8398 226.571L54.2397 226.001Z" fill="#E5E5E5" fill-opacity="0.6"/>
<path d="M101.844 215.356C101.844 215.356 102.058 206.221 83.9152 205.9C65.7715 205.58 63.7079 206.916 63.7079 206.916V224.005L69.4899 224.541H85.0877C85.0877 224.541 101.292 224.12 101.844 215.356Z" fill="#E2E2E2" fill-opacity="0.9"/>
<path d="M101.955 215.377C102.089 222.487 93.0952 224.738 84.6009 225.309L70.527 225.074L60.3683 224.717L59.0986 219.192L60.1475 218.3L60.1216 212.383C60.1216 212.383 59.2391 211.634 59.2391 211.456C59.2391 210.452 60.4385 206.036 60.4385 206.036C60.4385 206.036 67.3357 205.879 70.4398 205.805C70.5454 205.803 84.426 205.399 84.6004 205.405C93.0788 205.708 101.81 207.646 101.955 215.377ZM70.7387 206.126C70.5095 206.091 61.1093 207.035 61.1093 207.035C61.1093 207.035 60.4321 210.728 60.4321 211.676C60.4321 211.845 61.2752 212.551 61.2752 212.551L61.3006 218.138L60.2975 218.979L61.1093 223.897L70.7268 224.717C79.0746 224.836 79.1922 224.671 84.6009 224.717C92.8879 224.068 101.691 221.508 101.532 215.282C101.374 209.095 92.7928 206.587 84.6009 206.036C84.2835 206.041 70.8798 206.198 70.7387 206.126Z" fill="#CECECE"/>
<path d="M83.6301 211.61L84.8031 212.551L85.2207 214.972H85.135V215.36V215.396V215.476H85.2207L84.8031 218.101L83.6301 219.251C83.1711 219.893 80.8614 220.009 80.8614 220.009H76.5754L75.6406 219.583L76.1872 216.429L77.8431 215.377L76.1872 214.326L75.6406 211.271L76.5754 210.943H80.8614C80.8614 210.943 83.1716 210.968 83.6301 211.61Z" fill="#BABABA" fill-opacity="0.4"/>
<path d="M77.7356 211.171C77.8677 211.18 79.8365 212.436 79.8365 212.436L79.9033 218.11L77.8986 219.506H77.6165H77.4755H77.3345H75.6676V211.171C75.6676 211.171 77.6036 211.162 77.7356 211.171Z" fill="#C6C6C6"/>
<path d="M81.1489 212.051V214.932V216.031V218.628C81.1489 218.628 80.23 219.46 77.3806 219.596C77.3637 219.596 77.4659 219.446 77.4659 219.446C77.9921 219.068 79.4646 218.223 79.4646 218.223L79.506 215.481L79.503 212.454C79.503 212.454 78.0897 211.609 77.5635 211.231C77.5635 211.231 77.3612 211.082 77.3772 211.082C80.2265 211.218 81.1489 212.051 81.1489 212.051Z" fill="#29ABE2" fill-opacity="0.4"/>
<path d="M76.404 218.497C75.2574 218.497 75.1742 214.679 76.4145 214.679C77.5038 214.679 77.6059 218.497 76.404 218.497ZM76.416 218.164C77.2357 218.164 77.1659 215.01 76.4234 215.01C75.5788 215.011 75.6346 218.164 76.416 218.164Z" fill="black" fill-opacity="0.4"/>
<path d="M77.0441 217.067C77.0441 217.067 76.6873 217.058 76.6913 216.626C76.6948 216.193 77.0127 216.251 77.0441 216.242C77.0745 216.233 77.0441 217.067 77.0441 217.067Z" fill="black" fill-opacity="0.4"/>
<path d="M76.6643 216.763L75.6677 216.874V216.305L76.6643 216.456V216.763Z" fill="black" fill-opacity="0.4"/>
<path d="M76.9376 216.375C76.9376 216.366 76.3376 214.98 76.3376 214.98L76.6904 214.927L77.1045 216.331L76.9376 216.375Z" fill="black" fill-opacity="0.4"/>
<path d="M76.9376 217.009C76.9376 217.018 76.3376 218.498 76.3376 218.498H76.6904L77.1045 217.121L76.9376 217.009Z" fill="black" fill-opacity="0.4"/>
<path d="M84.6007 206.037C84.6007 206.037 84.5659 210.707 89.4683 211.741C94.3712 212.775 101.108 213.381 101.25 213.452C101.391 213.524 99.6977 206.536 84.6007 206.037Z" fill="#E8CDA0" fill-opacity="0.4"/>
<path d="M84.6007 224.718C84.6007 224.718 84.5659 220.048 89.4683 219.014C94.3712 217.981 101.108 217.374 101.25 217.303C101.391 217.232 99.6977 224.219 84.6007 224.718Z" fill="#E8CDA0" fill-opacity="0.4"/>
<path d="M65.3773 224.362C65.3773 224.362 66.514 224.704 66.1178 223.578C64.8132 219.87 64.5307 211.136 66.1881 207.214C66.5354 206.393 66.3306 206.406 65.7825 206.43C65.3719 206.449 61.1098 207.037 61.1098 207.037C61.1098 207.037 58.5698 213.739 61.1098 223.898L65.3773 224.362Z" fill="#E8CDA0" fill-opacity="0.4"/>
<path d="M70.4238 210.943C70.1881 210.943 70.1861 211.278 70.1861 211.607V219.129C70.1861 219.459 70.1876 219.505 70.4238 219.505H72.9059C73.1406 219.505 73.176 219.459 73.176 219.129V211.607C73.176 211.277 73.1401 210.943 72.9059 210.943H70.4238Z" fill="#E8CDA0" fill-opacity="0.4"/>
<path d="M88.837 229.754C87.8088 229.754 86.9753 228.912 86.9753 227.873C86.9753 226.834 87.8088 225.991 88.837 225.991C89.8652 225.991 90.6987 226.834 90.6987 227.873C90.6987 228.912 89.8652 229.754 88.837 229.754Z" fill="#3B59AD" fill-opacity="0.4"/>
<path d="M88.837 204.739C87.8088 204.739 86.9753 203.896 86.9753 202.857C86.9753 201.818 87.8088 200.976 88.837 200.976C89.8652 200.976 90.6987 201.818 90.6987 202.857C90.6987 203.896 89.8652 204.739 88.837 204.739Z" fill="#3B59AD" fill-opacity="0.4"/>
<path d="M68.2474 204.739C67.2192 204.739 66.3857 203.896 66.3857 202.857C66.3857 201.818 67.2192 200.976 68.2474 200.976C69.2756 200.976 70.1091 201.818 70.1091 202.857C70.1091 203.896 69.2756 204.739 68.2474 204.739Z" fill="#3B59AD" fill-opacity="0.4"/>
<path d="M68.0282 229.976C67 229.976 66.1665 229.134 66.1665 228.094C66.1665 227.055 67 226.213 68.0282 226.213C69.0564 226.213 69.8899 227.055 69.8899 228.094C69.8899 229.134 69.0564 229.976 68.0282 229.976Z" fill="#3B59AD" fill-opacity="0.4"/>
<path d="M75.1586 217.957C75.1586 217.957 75.5875 217.612 74.9048 217.451C74.2218 217.29 73.5391 216.976 73.5391 216.976C73.5391 216.976 73.7508 216.243 73.9521 216.142C74.1528 216.042 75.0683 216.126 75.2977 215.49C75.5274 214.853 75.6726 214.566 74.7102 214.838C73.7483 215.109 73.0693 215.208 73.0693 215.208L72.4787 217.855L75.0051 217.957" fill="#996234" fill-opacity="0.4"/>
<path d="M72.7435 217.623C72.7435 217.623 74.2358 218.587 74.184 218.072C74.1309 217.558 73.7667 217.825 73.7328 217.171C73.6986 216.518 74.2194 216.607 73.9433 215.805C73.67 215.002 73.8585 214.703 73.4204 214.838C72.9842 214.973 72.7426 215.003 72.7426 215.003L72.7435 217.623Z" fill="#EF45B7" fill-opacity="0.4"/>
<path d="M72.7235 218.389C72.7235 218.389 73.8643 218.434 74.1593 218.464C74.712 218.522 75.856 218.052 76.0646 218.052C76.2745 218.052 76.4929 218.019 76.1842 217.742C75.8727 217.466 74.8313 217.738 74.31 217.855C73.7893 217.973 73.1548 217.635 72.987 217.622C72.8195 217.61 73.0608 217.956 73.0608 217.956L72.7235 218.389Z" fill="#996234" fill-opacity="0.4"/>
<path d="M72.65 214.807C72.65 214.807 73.8631 214.448 74.1566 214.418C74.7093 214.361 75.8533 214.83 76.0619 214.83C76.2718 214.83 76.4902 214.863 76.1815 215.14C75.87 215.417 74.8286 215.145 74.3073 215.027C73.7866 214.909 73.2045 215.477 73.0371 215.49C72.8693 215.503 73.0581 214.926 73.0581 214.926L72.65 214.807Z" fill="#996234" fill-opacity="0.4"/>
<path d="M72.7234 218.896C72.7234 218.896 71.3122 218.682 71.0267 217.808C70.7406 216.934 70.6411 216.632 70.9809 215.847C71.3208 215.062 71.1335 214.646 71.8418 214.706C72.5498 214.765 72.9162 214.291 73.0278 214.97C73.1483 215.703 73.2816 217.672 73.299 217.808C73.3948 218.643 72.7234 218.896 72.7234 218.896Z" fill="#8BC7E8" fill-opacity="0.4"/>
<path d="M71.0258 216.764C71.0258 216.764 71.1039 217.557 71.7579 217.438C72.4119 217.319 72.6511 217.667 72.8561 217.107C73.0608 216.547 73.6071 216.268 73.0608 216.022C72.5147 215.774 72.2246 215.596 71.8409 215.774C71.4562 215.953 71.3629 215.915 71.1194 216.142C70.876 216.368 71.0258 216.764 71.0258 216.764Z" fill="#301705" fill-opacity="0.4"/>
<path d="M196.482 104.371L171.864 104.371L171.41 75.1486C171.41 75.1486 169.138 50.927 184.215 42.6123C198.795 50.5982 197.144 74.5412 197.144 74.5412L196.482 104.371Z" fill="#D1D1D1"/>
<path d="M184.3 48.939C184.3 48.939 173.64 48.5301 173.269 69.7018C172.896 90.8745 174.367 93.1244 174.367 93.1244L194.169 93.1244L195.096 86.6941L195.096 68.4918C195.096 68.4913 194.455 49.5821 184.3 48.939Z" fill="#F4F4F4"/>
<path d="M184.173 48.8083C192.411 48.6531 195.02 59.147 195.681 69.06L195.409 85.4833L194.995 97.338L188.593 98.8183L187.56 97.5949L180.703 97.6263C180.703 97.6263 179.836 98.6545 179.63 98.6545C178.465 98.6545 173.35 97.2547 173.35 97.2547C173.35 97.2547 173.167 89.2061 173.082 85.5839C173.079 85.4611 172.612 69.2633 172.619 69.0589C172.969 59.1664 175.215 48.9787 184.173 48.8083ZM173.455 85.2361C173.413 85.5044 174.507 96.4726 174.507 96.4726C174.507 96.4726 178.787 97.2623 179.884 97.2623C180.08 97.2623 180.898 96.2795 180.898 96.2795L187.372 96.2492L188.347 97.4197L194.045 96.4732L194.995 85.2491C195.132 75.5076 194.94 75.3708 194.995 69.0589C194.241 59.3887 191.276 49.1161 184.062 49.3016C176.893 49.4866 173.988 59.5007 173.349 69.0589C173.355 69.431 173.537 85.0717 173.455 85.2361Z" fill="#E8E8E8"/>
<path d="M184.085 68.3226L184.081 68.2236L187.365 68.7104L188.705 70.0794C189.449 70.6137 189.592 73.3105 189.592 73.3105L189.592 78.3113L189.072 79.4028L185.404 78.7646L184.063 76.7017L184.085 74.9882L184.085 68.3226Z" fill="white"/>
<path d="M184.152 68.3232L184.081 68.2236L180.987 68.7104L179.672 70.0794C178.929 70.6137 178.811 73.3105 178.811 73.3105L178.811 78.3113L179.28 79.4028L182.923 78.7646L184.218 76.7017L184.155 74.9872L184.152 68.3232Z" fill="white"/>
<path d="M179.299 77.0318C179.31 76.8776 180.765 74.5995 180.765 74.5995L187.381 74.5303L189.039 76.8798L189.039 77.2092L189.039 77.3741L189.039 77.5391L189.039 79.4067L179.298 79.4067C179.299 79.4067 179.289 77.187 179.299 77.0318Z" fill="#C6C6C6"/>
<path d="M180.611 108.031C180.613 108.517 181.011 108.911 181.501 108.908L186.654 108.881C187.142 108.878 187.536 108.481 187.534 107.993L187.492 100.105C187.489 99.6186 187.09 99.2254 186.601 99.2275L181.449 99.2562C180.961 99.2584 180.566 99.6554 180.569 100.143L180.611 108.031Z" fill="#394963"/>
<path d="M180.318 72.5488L183.656 72.5488L184.93 72.5488L187.939 72.5488C187.939 72.5488 188.902 73.8896 189.06 77.2149C189.061 77.2349 188.889 77.25 188.889 77.25C188.45 76.635 187.47 74.9849 187.47 74.9849L184.293 74.9692L180.786 74.9897C180.786 74.9897 179.806 76.6469 179.369 77.2614C179.369 77.2614 179.196 77.2332 179.197 77.2138C179.354 73.8907 180.318 72.5488 180.318 72.5488Z" fill="#29ABE2"/>
<path d="M187.787 78.6255C187.787 79.9637 183.363 80.06 183.363 78.6137C183.363 77.3421 187.787 77.2225 187.787 78.6255ZM187.403 78.6104C187.403 77.6536 183.748 77.7358 183.748 78.6012C183.748 79.5883 187.403 79.5223 187.403 78.6104Z" fill="black"/>
<path d="M186.13 77.8784C186.13 77.8784 186.119 78.2954 185.619 78.2905C185.118 78.2851 185.186 77.9152 185.175 77.8784C185.164 77.8422 186.13 77.8784 186.13 77.8784Z" fill="black"/>
<path d="M185.779 78.3105L185.908 79.4069L185.247 79.4069L185.423 78.3105L185.779 78.3105Z" fill="black"/>
<path d="M185.33 78.002C185.32 78.002 183.714 78.7013 183.714 78.7013L183.652 78.2903L185.278 77.8057L185.33 78.002Z" fill="black"/>
<path d="M186.001 78.002C186.011 78.002 187.663 78.7013 187.663 78.7013L187.663 78.2903L186.099 77.8057L186.001 78.002Z" fill="black"/>
<path d="M173.35 69.0593C173.35 69.0593 178.762 69.1004 179.961 63.3791C181.158 57.6579 181.86 49.7959 181.942 49.6309C182.024 49.4665 173.929 51.4423 173.35 69.0593Z" fill="#D79056"/>
<path d="M194.995 69.0593C194.995 69.0593 189.583 69.1004 188.385 63.3791C187.187 57.6579 186.485 49.7959 186.403 49.6309C186.321 49.4665 194.417 51.4423 194.995 69.0593Z" fill="#D79056"/>
<path d="M194.582 91.4929C194.582 91.4929 194.978 90.1661 193.674 90.628C189.378 92.1506 179.257 92.4805 174.714 90.5463C173.762 90.1407 173.776 90.3803 173.806 91.0196C173.827 91.4999 174.508 96.4732 174.508 96.4732C174.508 96.4732 182.274 99.4366 194.045 96.4732L194.582 91.4929Z" fill="#D79056"/>
<path d="M179.13 85.6038C179.13 85.8785 179.422 85.9915 179.805 85.9915L188.52 85.9915C188.902 85.9915 189.316 85.8785 189.316 85.6038L189.316 82.7079C189.316 82.4326 188.902 82.1514 188.52 82.1514L179.805 82.1514C179.422 82.1514 179.13 82.4332 179.13 82.7079L179.13 85.6038Z" fill="#B5A081"/>
<path d="M187.544 80.1658C187.544 80.1658 187.057 79.5611 186.829 80.5233C186.601 81.4849 186.158 82.4482 186.158 82.4482C186.158 82.4482 185.119 82.148 184.978 81.8651C184.836 81.5833 184.955 80.2923 184.055 79.9689C183.155 79.6444 182.748 79.4405 183.132 80.7969C183.517 82.1524 183.657 83.1086 183.657 83.1086L187.401 83.9388L187.544 80.3778" fill="#996234"/>
<path d="M187.072 83.755C187.072 83.755 188.436 81.5586 187.707 81.6327C186.979 81.7068 187.357 82.1735 186.433 82.2217C185.509 82.2698 185.634 81.5132 184.5 81.8999C183.365 82.2871 182.942 82.1027 183.132 82.7182C183.322 83.3337 183.366 83.755 183.366 83.755L187.072 83.755Z" fill="#EF45B7"/>
<path d="M188.156 83.5979C188.156 83.5979 188.219 81.9899 188.262 81.575C188.342 80.7973 187.679 79.1844 187.679 78.8885C187.679 78.5938 187.632 78.2855 187.241 78.7225C186.849 79.1595 187.234 80.6269 187.4 81.3614C187.567 82.0948 187.089 82.9899 187.071 83.2257C187.053 83.4626 187.543 83.1225 187.543 83.1225L188.156 83.5979Z" fill="#996234"/>
<path d="M183.088 83.6991C183.088 83.6991 182.581 81.9899 182.538 81.574C182.457 80.7963 183.121 79.1834 183.121 78.8876C183.121 78.5928 183.168 78.2845 183.56 78.7215C183.951 79.1585 183.566 80.6259 183.4 81.3604C183.233 82.0938 184.037 82.9148 184.055 83.1512C184.073 83.3881 183.257 83.1214 183.257 83.1214L183.088 83.6991Z" fill="#996234"/>
<path d="M188.871 83.5982C188.871 83.5982 188.568 85.5876 187.333 85.9911C186.097 86.3945 185.67 86.5341 184.56 86.0554C183.45 85.5768 182.861 85.8412 182.945 84.8422C183.029 83.8443 182.358 83.3273 183.319 83.171C184.355 83.0022 187.14 82.8135 187.333 82.7902C188.514 82.6517 188.871 83.5982 188.871 83.5982Z" fill="#8BC7E8"/>
<path d="M185.857 85.9906C185.857 85.9906 186.978 85.8808 186.811 84.9587C186.642 84.0365 187.135 83.6995 186.342 83.4118C185.55 83.1235 185.156 82.3533 184.807 83.1235C184.457 83.8932 184.205 84.3015 184.457 84.8429C184.71 85.3843 184.656 85.5168 184.977 85.8597C185.298 86.2016 185.857 85.9906 185.857 85.9906Z" fill="#301705"/>
<rect x="315.5" y="15.9561" width="44.0746" height="25" rx="12.5" fill="#969696" fill-opacity="0.3"/>
<path d="M329.807 24.1006L325.555 33.582H324.701L328.925 24.3262H323.265V23.6289H329.807V24.1006ZM331.455 34.4365H330.709L334.866 23.6289H335.604L331.455 34.4365ZM340.813 33.582H339.993V24.6133L337.286 25.6182V24.8525L340.676 23.5947H340.813V33.582ZM350.773 29.4326C350.773 30.8363 350.515 31.9027 350 32.6318C349.486 33.3564 348.727 33.7188 347.724 33.7188C346.74 33.7188 345.986 33.3633 345.461 32.6523C344.937 31.9368 344.668 30.8978 344.655 29.5352V27.751C344.655 26.3519 344.915 25.2923 345.434 24.5723C345.954 23.8522 346.712 23.4922 347.71 23.4922C348.695 23.4922 349.447 23.8408 349.966 24.5381C350.486 25.2308 350.755 26.2539 350.773 27.6074V29.4326ZM349.953 27.6484C349.953 26.5091 349.766 25.6478 349.392 25.0645C349.023 24.4811 348.462 24.1895 347.71 24.1895C346.972 24.1895 346.416 24.4743 346.042 25.0439C345.669 25.6136 345.477 26.4544 345.468 27.5664V29.5215C345.468 30.6562 345.66 31.5244 346.042 32.126C346.43 32.7275 346.99 33.0283 347.724 33.0283C348.453 33.0283 349.005 32.7344 349.378 32.1465C349.757 31.5586 349.948 30.6973 349.953 29.5625V27.6484Z" fill="black"/>
</g>
<defs>
<linearGradient id="paint0_linear" x1="292.014" y1="150.073" x2="364.329" y2="150.073" gradientUnits="userSpaceOnUse">
<stop offset="0.322917" stop-color="white" stop-opacity="0.89"/>
<stop offset="1" stop-color="white" stop-opacity="0"/>
</linearGradient>
<linearGradient id="paint1_linear" x1="75.4749" y1="215.73" x2="3.15994" y2="215.73" gradientUnits="userSpaceOnUse">
<stop offset="0.322917" stop-color="white" stop-opacity="0.89"/>
<stop offset="1" stop-color="white" stop-opacity="0"/>
</linearGradient>
<clipPath id="clip0">
<rect width="375" height="375" fill="white" transform="translate(0.5 0.956055)"/>
</clipPath>
</defs>
</svg>
