<svg width="376" height="376" viewBox="0 0 376 376" fill="none" xmlns="http://www.w3.org/2000/svg">
<g clip-path="url(#clip0)">
<path d="M-4.427 -4.14844H378.479L376.992 379.906H-3.09013L-4.427 -4.14844Z" fill="url(#paint0_linear)"/>
<path d="M335.59 243.692C335.59 241.318 333.666 239.394 331.292 239.394H329.372C327 239.394 325.074 241.318 325.074 243.692V262.322C325.074 264.695 326.999 266.62 329.372 266.62H331.292C333.664 266.62 335.59 264.696 335.59 262.322V243.692Z" fill="#3F3F3F"/>
<path d="M380.774 256.728H315.585V379.905H380.774V256.728Z" fill="#968E89"/>
<path d="M247.713 253.163C246.244 241.796 252.91 220.437 252.91 220.437C253.153 219.534 258.975 219.627 263.117 222.909C292.062 245.851 325.077 244.37 325.077 244.37H335.592L325.077 246.858H335.592" stroke="#753C15" stroke-width="5" stroke-miterlimit="10" stroke-linecap="round" stroke-linejoin="round"/>
<path d="M238.069 260.087C238.069 260.087 239.541 261.264 238.783 262.458C238.024 263.653 235.92 265.66 235.62 267.901C235.319 270.137 235.091 272.549 234.791 274.489C234.49 276.432 233.139 280.094 233.139 280.094H237.857L240.478 273.182C240.478 273.182 242.128 272.021 242.726 269.406C243.325 266.793 244.896 264.778 245.345 263.883C245.796 262.988 246.47 262.09 245.721 260.523C244.972 258.956 243.739 256.866 243.739 256.866L238.069 260.087Z" fill="#FFCBA1"/>
<path d="M254.729 223.368L250.89 226.64L249.747 227.945C249.055 227.945 257.393 226.412 259.802 226.412C261.225 226.412 262.722 226.859 263.097 226.412C263.469 225.964 262.872 225.442 263.695 224.994C264.519 224.547 266.539 224.098 266.465 222.977C266.39 221.857 265.85 220.042 264.743 220.962C263.842 221.708 262.496 222.083 261.374 222.456C260.25 222.83 257.262 222.894 254.868 223.417L254.729 223.368Z" fill="#FFCBA1"/>
<path d="M240.252 227.288C240.365 226.59 241.414 225.027 242.547 224.414C243.676 223.804 245.892 224.054 246.27 224.177C246.651 224.301 246.883 224.119 246.883 224.119C246.883 224.119 248.795 223.497 249.743 223.05C250.692 222.602 253.064 221.185 252.912 220.437C252.764 219.691 253.513 219.021 254.263 217.527C255.01 216.032 256.284 216.406 256.657 216.257C258.074 215.69 256.958 217.377 257.857 218.123C258.755 218.87 258.531 219.539 258.531 220.287C258.531 221.035 258.082 221.256 256.134 222.525C253.79 224.055 253.164 224.863 250.294 227.453C247.148 230.29 246.7 230.291 245.352 230.811C244.005 231.333 244.305 231.111 242.881 230.811C241.458 230.513 240.368 227.495 240.368 227.495" fill="#FFCBA1"/>
<path d="M239.134 203.8H240.075L248.612 204.379L249.402 205.283C249.402 205.283 249.444 205.412 249.242 206.849C249.115 207.765 248.493 208.866 247.97 209.612C247.448 210.358 246.773 212.375 246.622 212.742C246.475 213.108 245.423 213.64 244.898 213.342C244.377 213.045 244.322 215.122 244.218 215.346L244.029 215.59L241.352 213.481L238.768 209.856C238.792 209.233 238.984 207.791 238.837 206.369C238.685 204.952 239.134 203.8 239.134 203.8Z" fill="#FFCBA1"/>
<path d="M240.929 249.998C241.828 252.461 244.344 257.465 244.344 257.465C244.344 257.465 242.502 258.061 241.866 258.21C241.229 258.358 236.811 261.795 235.163 261.795C233.513 261.795 228.799 262.39 228.873 261.795C228.947 261.198 228.049 260.226 227.451 258.361C226.852 256.496 226.177 256.046 225.619 253.136C225.062 250.223 224.438 248.207 224.438 248.207C224.438 248.207 223.257 245.744 223.257 242.299C223.257 238.852 226.062 236.671 226.062 236.671L240.242 241.959C240.168 242.184 240.479 245.146 240.03 246.114C239.582 247.086 240.031 247.535 240.929 249.998Z" fill="#F7931E" stroke="#F7931E" stroke-miterlimit="10"/>
<path d="M246.473 222.826C247.069 224.393 247.069 224.393 246.097 224.242C245.245 224.112 242.493 224.27 241.221 225.666C241.221 225.666 240.556 226.494 240.556 227.565C241.421 230.722 244.299 231.11 244.299 231.11C244.299 231.11 244.299 231.11 243.851 232.679C243.401 234.249 243.401 234.173 242.576 235.59C241.753 237.007 241.979 237.981 241.155 240.218C240.33 242.458 240.031 242.458 237.634 242.161C235.24 241.861 232.842 239.997 231.793 239.026C230.747 238.056 226.327 237.532 225.804 236.339C225.28 235.143 226.029 234.996 226.179 234.249C226.326 233.501 226.852 233.428 226.554 232.083C226.254 230.74 227.002 229.693 227.002 229.693C230.821 211.701 238.31 209.611 238.31 209.611C238.31 209.611 240.93 209.973 242.354 212.742C243.777 215.509 244.898 215.509 244.974 216.629C245.048 217.751 244.824 218.047 245.35 218.944C245.873 219.838 245.798 220.214 245.948 221.183C246.098 222.154 245.874 221.257 246.473 222.826ZM240.351 226.927C240.343 226.928 240.34 226.931 240.331 226.931C240.331 226.93 240.331 226.931 240.331 226.931C240.352 226.979 240.358 226.973 240.351 226.927Z" fill="#FFF599"/>
<path d="M240.252 201.633C240.252 201.633 239.134 204.141 238.884 205.033C238.638 205.923 238.858 206.806 238.858 206.806L238.768 208.332C238.768 208.332 238.577 209.19 239.134 209.611C239.687 210.035 240.202 210.013 240.458 210.044C240.713 210.076 241.828 210.522 242.273 210.553C242.72 210.583 243.134 210.235 244.216 208.807C245.3 207.377 245.841 207.853 247.18 206.139C248.517 204.425 246.924 204.33 246.882 204.042C246.841 203.756 245.044 201.884 245.044 201.884C245.044 201.884 240.649 201.406 240.458 201.406" fill="#662F09"/>
<path d="M248.718 205.668C244.374 205.679 239.134 204.616 239.134 204.015C239.134 199.459 242.952 198.264 246.397 199.237C249.842 200.208 249.651 204.141 249.524 205.13C249.483 205.448 248.718 205.668 248.718 205.668ZM241.928 201.929C240.382 201.772 240.287 203.534 240.287 203.534C240.387 203.566 240.786 203.769 241.41 203.915C242.195 204.095 243.224 204.221 243.224 204.221C243.224 204.221 243.671 202.104 241.928 201.929Z" fill="#908DFF"/>
<path d="M42.9224 260.361C43.6719 261.662 44.5245 269.955 43.1038 271.729C41.6835 273.501 37.1356 275.527 36.4531 275.59C35.7706 275.656 39.2492 294.625 39.2492 294.625C39.2492 294.625 39.3974 309.228 38.075 310.484C36.756 311.742 27.2028 318.656 25.3691 318.764C23.5339 318.873 20.2372 318.964 19.7539 318.092C19.2753 317.221 21.5689 313.219 21.6013 312.809C21.6819 311.823 21.9163 309.08 21.7714 308.482C21.6308 307.884 20.7378 303.283 20.3319 302.408C19.926 301.529 12.0041 302.249 11.0999 302.428C10.1961 302.604 10.1539 301.531 10.1539 301.531C11.2466 298.87 18.5427 294.602 18.5427 294.602C18.5427 294.602 16.2913 290.928 14.5269 288.89C12.7658 286.853 9.36876 274.222 8.14673 268.762C6.92751 263.301 9.89048 256.219 10.8889 255.972C25.8674 252.241 42.1649 259.06 42.9224 260.361Z" fill="#36627A"/>
<path d="M19.5022 306.728C18.6233 305.742 16.7038 305.08 15.2286 305.323C13.7553 305.562 13.9072 305.544 13.332 306.954C12.7564 308.365 16.6602 307.824 17.5845 308.181C18.508 308.541 17.3427 309.475 17.1824 309.42C17.022 309.368 13.8538 309.788 13.8538 309.788L13.94 313.155C13.94 313.155 18.0786 312.432 18.3341 312.982C18.5924 313.532 16.1689 315.223 14.901 316.631C13.6302 318.041 15.0866 318.342 17.195 317.225C19.3044 316.106 20.5724 312.62 20.5724 312.62C20.5724 312.62 21.147 312.594 21.9786 312.463C22.8111 312.333 22.3555 310.999 22.3925 309.936C22.4286 308.871 22.0616 308.337 21.9622 308.141C21.8642 307.947 20.2906 308.326 20.2906 308.326C20.2906 308.326 20.3774 307.715 19.5022 306.728Z" fill="#6C808C"/>
<path d="M91.5018 282.742L25.6982 282.869L33.7111 301.244C37.4901 301.351 128.659 304.68 158.469 303.596C159.975 303.542 165.813 303.643 166.989 303.599C174.644 303.32 180.514 303.576 187.604 303.257C193.929 303.573 199.893 303.513 205.7 303.3C212.482 303.054 218.039 302.144 223.201 300.438C245.633 293.02 254.109 284.046 260.917 276.837C261.994 275.696 263.011 274.621 264.033 273.605C264.108 273.526 264.179 273.451 264.262 273.373C234.06 289.296 192.705 291.578 162.946 293.508C158.171 293.82 153.503 294.554 149.077 294.717C123.511 295.645 107.339 295.318 107.122 295.306L105.918 294.412L91.5018 282.742Z" fill="white" stroke="white" stroke-miterlimit="10"/>
<path d="M163.876 296.364C193.759 294.427 235.253 288.497 265.437 272.407L265.878 271.972C270.325 267.464 272.308 264.596 273.601 262.611C274.243 261.632 274.704 260.922 275.233 260.394C275.934 259.698 277.098 258.843 277.893 258.3C273.128 258.961 254.635 260.569 226.587 260.167C211.163 259.947 177.632 261.544 137.995 265.439C82.8222 270.862 45.6776 277.973 26.4429 283.427L89.3383 284.706L104.756 296.681C106.098 296.772 132.22 298.422 163.876 296.364Z" fill="#FF0000"/>
<path d="M137.965 245.673C137.678 245.139 137.449 244.743 137.265 244.442C137.173 244.294 137.092 244.168 137.022 244.062C136.67 243.544 136.561 243.545 136.495 243.546L136.309 243.671C136.224 243.845 136.13 244.033 136.021 244.228C135.947 244.356 135.871 244.492 135.787 244.629C135.745 244.697 135.703 244.766 135.661 244.835C134.513 246.641 132.577 248.783 131.357 248.509C130.775 248.377 130.415 248 130.252 247.349C130.231 247.275 130.218 247.193 130.204 247.112C130.193 247.028 130.18 246.945 130.176 246.854C130.016 244.52 131.929 239.871 134.558 236.854C134.964 236.389 135.385 235.965 135.818 235.592C136.06 235.386 136.334 235.172 136.624 234.993C137.093 234.704 137.604 234.489 138.086 234.495C138.267 234.498 138.444 234.531 138.616 234.604C138.889 234.717 139.075 234.919 139.184 235.219C139.256 235.42 139.289 235.649 139.297 235.896C139.343 237.64 137.957 240.346 137.938 240.378L137.836 240.579L140.282 241.189L137.965 245.673ZM137.949 237.041C137.931 236.775 137.859 236.556 137.702 236.414C137.673 236.384 137.64 236.358 137.602 236.333C137.509 236.277 137.403 236.249 137.288 236.254C137.209 236.258 137.126 236.278 137.03 236.317C136.389 236.573 135.49 237.614 134.596 238.943L134.552 238.895L134.508 238.846L133.736 240.309C133.35 240.962 132.985 241.637 132.66 242.292C132.118 243.386 131.693 244.423 131.485 245.194C131.368 245.636 131.323 245.989 131.347 246.258C131.352 246.326 131.367 246.387 131.379 246.443C131.422 246.612 131.507 246.734 131.63 246.811C131.684 246.842 131.744 246.857 131.808 246.856C132.549 246.827 134.844 243.833 135.789 242.375C135.823 242.319 135.857 242.268 135.888 242.218C135.947 242.119 136.004 242.03 136.046 241.952C136.094 241.873 136.129 241.806 136.151 241.751C136.18 241.702 136.212 241.643 136.257 241.571C136.299 241.502 136.342 241.419 136.393 241.327C136.945 240.33 138.019 238.215 137.949 237.041Z" fill="black"/>
<path d="M152.755 221.917C151.744 221.576 148.268 221.673 147.225 221.712C147.075 221.718 146.954 221.722 146.867 221.723L145.436 231.529L144.834 231.764L144.235 232L137.79 245.817L137.513 249.682L138.684 252.601L142.366 252.565C142.539 250.275 143.541 242.065 143.565 242.016C144.282 240.661 148.965 239.23 149.856 238.997C149.887 238.987 149.911 238.982 149.932 238.978C150.023 238.947 150.12 238.917 150.218 238.888C150.462 238.814 150.723 238.74 151 238.664C151.108 238.635 151.221 238.602 151.334 238.575C151.698 238.478 152.084 238.383 152.479 238.29C152.573 238.267 152.665 238.246 152.762 238.223C152.943 238.18 153.125 238.137 153.31 238.096C156.211 237.438 159.558 236.767 160.511 236.601C157.946 230.929 153.601 222.211 152.755 221.917Z" fill="#3FA9F5"/>
<path d="M134.635 239.508C134.501 239.708 134.371 239.913 134.241 240.121L133.575 241.389L135.288 241.687L135.24 241.873C135.239 241.878 135.213 241.999 135.22 242.152C135.224 242.241 135.242 242.34 135.285 242.435C135.513 242.085 135.691 241.79 135.78 241.59C135.944 241.309 136.109 241.01 136.274 240.697C136.247 240.72 136.219 240.741 136.185 240.748C136.174 240.752 136.161 240.756 136.142 240.757C136.021 240.764 135.708 240.66 134.635 239.508Z" fill="black"/>
<path d="M136.258 241.573C136.217 241.643 136.183 241.703 136.154 241.752C136.132 241.808 136.097 241.874 136.05 241.953C136.005 242.034 135.95 242.12 135.892 242.22C135.86 242.268 135.827 242.322 135.793 242.376C134.849 243.832 132.555 246.829 131.811 246.857C131.748 246.859 131.684 246.844 131.635 246.812C131.507 246.736 131.426 246.613 131.382 246.444C131.367 246.388 131.356 246.325 131.35 246.259C131.326 245.992 131.375 245.639 131.488 245.194C131.695 244.421 132.12 243.384 132.666 242.293C132.987 241.638 133.358 240.96 133.74 240.31L134.51 238.848L134.555 238.897L134.6 238.945C135.493 237.619 136.391 236.575 137.034 236.319C137.126 236.282 137.212 236.26 137.293 236.255C137.411 236.251 137.514 236.28 137.606 236.338C137.643 236.362 137.677 236.387 137.707 236.417C137.862 236.56 137.935 236.778 137.952 237.044C138.019 238.217 136.948 240.334 136.393 241.331C136.342 241.421 136.298 241.503 136.258 241.573ZM131.805 245.287C131.557 246.226 131.685 246.449 131.735 246.492C132.327 246.358 134.044 244.237 135.062 242.754C134.857 242.504 134.841 242.178 134.861 241.977L133.322 241.712C132.641 242.987 132.07 244.278 131.805 245.287ZM134.24 240.122L133.572 241.39L135.283 241.69L135.238 241.875C135.237 241.877 135.21 242.002 135.217 242.153C135.221 242.242 135.243 242.342 135.282 242.436C135.51 242.087 135.689 241.791 135.778 241.592C135.94 241.309 136.106 241.011 136.271 240.698C136.245 240.722 136.216 240.74 136.182 240.75C136.17 240.753 136.159 240.757 136.14 240.758C136.018 240.767 135.706 240.664 134.627 239.512C134.501 239.708 134.37 239.912 134.24 240.122ZM137.415 236.641C137.387 236.622 137.346 236.612 137.301 236.614C136.799 236.633 135.833 237.725 134.833 239.202C135.305 239.702 135.83 240.21 136.056 240.357C136.172 240.169 136.403 240.086 136.598 240.056C137.347 238.52 137.903 236.941 137.415 236.641Z" fill="black"/>
<path d="M248.501 258.031C255.677 257.613 274.091 258.471 278.511 255.337C278.17 255.28 277.788 254.968 277.311 254.976C277.311 254.976 252.733 250.823 235.251 249.005C234.133 248.891 233.113 248.823 232.219 248.746C220.674 247.75 169.047 246.58 168.522 246.568L168.43 246.566L168.376 246.485C168.214 246.236 164.444 240.362 164.001 239.606C163.787 239.24 163.767 238.735 163.745 238.2C163.719 237.58 163.693 236.939 163.334 236.633C163.004 236.351 162.289 236.217 161.309 236.253C160.964 236.266 160.715 236.299 160.713 236.299L160.585 236.314L160.565 236.272C159.401 236.475 153.048 237.604 150.022 238.573C148.302 239.015 143.766 240.407 143.44 241.468C143.022 242.825 142.098 251.712 142.085 251.794L142.087 252.407L138.708 252.532L137.534 249.622L129.75 250.539L117.145 252.145L117.076 251.743C117.932 251.551 118.114 251.243 118.185 250.042C118.206 249.667 117.934 249.139 117.436 248.615C116.627 247.763 115.165 246.842 113.879 246.85C113.449 246.852 112.712 246.821 111.779 246.788C109.889 246.718 107.306 246.621 105.193 246.698C102.895 246.783 102.086 247.045 101.816 247.252C101.45 247.533 101.27 247.828 101.271 248.126C101.277 248.644 101.824 249.052 101.829 249.056L102.184 249.316L98.3891 249.842L98.3371 251.702L80.0568 253.388L78.9927 255.525L57.374 256.373L47.3526 259.21L47.5382 270.776L42.0102 273.051L41.9798 273.063L28.4441 273.317L25.4216 275.319L25.7727 280.888C49.8623 275.228 99.3848 266.59 147.715 262.49C212.24 257.005 241.325 258.449 248.501 258.031Z" fill="white"/>
<path d="M278.512 255.337C273.592 257.277 255.972 257.134 248.796 257.554C241.619 257.971 212.645 256.368 148.122 261.842C99.7922 265.943 49.9613 275.198 25.7836 280.863L25.7846 280.88L25.651 280.938C24.2794 281.877 23.5636 282.489 23.5135 282.812C23.4961 282.9 23.5294 282.962 23.6171 283.072C23.6541 283.121 23.6836 283.165 23.7094 283.217C23.7853 283.303 24.3596 283.441 25.9646 283.402L26.8055 283.196C46.0032 278.433 80.7399 271.591 137.235 266.038C176.883 262.143 210.21 260.621 225.646 260.841C255.487 261.269 274.745 258.762 277.893 258.299C278.596 257.69 278.847 257.488 278.873 257.476C279.644 257.218 280.106 256.739 280.028 256.281C279.966 255.913 279.521 255.504 278.512 255.337Z" fill="white"/>
<path d="M101.195 249.481C101.195 249.481 99.282 247.401 102.613 246.577C105.054 245.974 112.302 246.471 114.257 246.505C116.213 246.537 118.49 249.233 118.34 250.49C118.213 251.562 118.04 252.738 116.225 252.218C114.408 251.699 114.631 250.32 113.612 250.241C112.594 250.159 102.06 249.583 101.195 249.481Z" fill="#C99B59"/>
<path d="M194.682 256.29V254.316C194.682 253.045 193.655 252.138 192.383 252.138H192.252C190.981 252.138 189.953 253.046 189.953 254.316V256.236C188.18 256.89 186.792 258.641 186.792 260.413H197.843C197.843 258.642 196.455 256.981 194.682 256.29ZM192.317 254.844C191.845 254.844 191.462 254.461 191.462 253.988C191.462 253.516 191.845 253.134 192.317 253.134C192.789 253.134 193.172 253.516 193.172 253.988C193.172 254.461 192.789 254.844 192.317 254.844Z" fill="#283C8E"/>
<path d="M189.953 283.314V284.838C189.953 286.11 190.979 287.016 192.251 287.016H192.382C193.654 287.016 194.68 286.109 194.68 284.838V283.185C196.454 282.503 197.65 281.105 197.821 279.331H186.807C186.965 281.106 188.179 282.705 189.953 283.314ZM192.317 283.918C192.79 283.918 193.172 284.299 193.172 284.771C193.172 285.244 192.79 285.625 192.317 285.625C191.845 285.625 191.462 285.245 191.462 284.771C191.462 284.302 191.845 283.918 192.317 283.918Z" fill="#283C8E"/>
<path d="M197.638 260.415H186.998V278.852C186.998 278.987 186.798 279.333 186.81 279.333H197.825C197.837 279.333 197.639 278.986 197.639 278.852V260.415H197.638Z" fill="#CCCCCE"/>
<path d="M98.91 256.29V254.316C98.91 253.045 97.883 252.138 96.6112 252.138H96.4795C95.2078 252.138 94.1803 253.046 94.1803 254.316V256.236C92.407 256.89 91.019 258.641 91.019 260.413H102.07C102.071 258.642 100.684 256.981 98.91 256.29ZM96.5451 254.844C96.0726 254.844 95.6901 254.461 95.6901 253.988C95.6901 253.516 96.0722 253.134 96.5451 253.134C97.0181 253.134 97.4001 253.516 97.4001 253.988C97.4001 254.461 97.0176 254.844 96.5451 254.844Z" fill="#283C8E"/>
<path d="M94.1808 283.314V284.838C94.1808 286.11 95.2078 287.016 96.48 287.016H96.6113C97.8834 287.016 98.9105 286.109 98.9105 284.838V283.185C100.684 282.503 101.879 281.105 102.051 279.331H91.0374C91.193 281.106 92.407 282.705 94.1808 283.314ZM96.5452 283.918C97.0177 283.918 97.4002 284.299 97.4002 284.771C97.4002 285.244 97.0181 285.625 96.5452 285.625C96.0722 285.625 95.6902 285.245 95.6902 284.771C95.6906 284.302 96.0731 283.918 96.5452 283.918Z" fill="#283C8E"/>
<path d="M101.866 260.415H91.2248V278.852C91.2248 278.987 91.026 279.333 91.0368 279.333H102.051C102.063 279.333 101.866 278.986 101.866 278.852V260.415Z" fill="#CCCCCE"/>
<path d="M121.676 252.49C121.676 252.49 120.39 250.996 120.673 249.238C120.954 247.479 121.347 246.582 122.427 246.273C123.506 245.963 124.969 245.821 125.269 245.974C125.57 246.126 129.209 247.568 130.041 247.858C130.871 248.146 133.141 249.647 133.187 250.341C133.238 251.033 133.368 251.254 133.648 251.931C133.931 252.606 134.358 255.66 134.358 255.66L128.866 256.265C128.866 256.265 128.927 254.122 128.521 253.976C128.116 253.83 122.756 253.283 122.39 253.079C122.032 252.874 121.676 252.49 121.676 252.49Z" fill="#996234"/>
<path d="M101.347 243.93C101.347 243.93 101.059 241.212 100.942 241.212C100.826 241.212 104.752 240.981 105.684 240.285C106.841 239.425 113.202 239.475 113.202 239.475L117.422 243.352L122.295 247.014C122.295 247.014 120.892 251.618 120.197 251.618C119.871 251.618 116.399 248.471 113.258 248.38C109.76 248.28 109.501 250.288 110.31 254.626C110.462 255.446 103.081 250.52 103.081 250.52C103.081 250.52 101.688 249.476 101.343 247.628C101 245.781 101.347 243.93 101.347 243.93Z" fill="#EF45B7"/>
<path d="M109.732 216.059C109.905 216.116 111.177 214.556 111.12 214.037C111.061 213.515 110.543 213.168 110.426 213.168C110.31 213.168 109.095 211.723 109.732 211.088C110.368 210.452 108.345 207.85 109.095 206.578C109.847 205.306 110.772 203.339 112.508 202.645C114.243 201.952 115.34 201.373 116.208 202.067C117.075 202.761 119.158 204.727 119.215 205.478C119.272 206.23 119.62 207.675 119.215 209.238C118.81 210.799 118.81 211.031 118.753 212.708C118.695 214.383 117.943 215.428 117.422 216.062C116.903 216.696 117.134 217.563 116.15 217.795C115.168 218.025 116.381 219.587 115.918 220.166C115.456 220.742 110.02 219.297 110.136 217.043C110.19 215.98 109.732 216.059 109.732 216.059Z" fill="#996234"/>
<path d="M109.905 213.803C109.905 213.803 108.923 213.803 109.038 212.992C109.152 212.183 109.365 210.795 109.028 210.448C108.69 210.101 107.65 209.467 107.997 208.483C108.344 207.499 108.748 206.921 108.517 205.995C108.285 205.071 108.517 204.319 109.269 203.857C110.02 203.395 110.606 203.51 111.469 203.105C112.334 202.701 113.028 201.717 114.01 201.543C114.991 201.37 116.148 200.676 116.959 201.543C117.769 202.411 118.347 202.411 118.578 202.987C118.81 203.565 118.522 202.931 118.867 204.318C119.213 205.706 119.908 205.995 119.446 206.75C118.983 207.502 118.577 206.113 118.174 206.055C117.768 205.998 118 205.362 116.902 206.055C115.802 206.75 116.208 206.519 114.588 206.171C112.968 205.824 112.098 204.899 111.609 206.576C111.118 208.255 111.401 207.965 111.609 209.295C111.813 210.625 111.609 211.202 111.609 211.202C111.609 211.202 111.52 210.565 110.888 210.682C110.251 210.8 110.136 210.914 110.194 211.608C110.251 212.301 110.599 213.112 110.482 213.343C110.365 213.572 109.905 213.803 109.905 213.803Z" fill="#301705"/>
<path d="M117.885 226.986C117.885 226.986 121.701 233.231 122.685 233.81C123.667 234.388 124.436 235.47 125.187 235.643C125.939 235.816 130.578 237.062 132.601 236.947C134.626 236.831 134.972 236.219 135.724 236.957C136.477 237.696 136.823 238.217 137.112 237.639C137.401 237.062 137.227 236.945 137.112 236.077C136.996 235.208 137.112 234.746 137.922 234.632C138.731 234.517 139.972 235.442 139.639 234.4C139.309 233.36 139.425 232.899 138.095 233.012C136.764 233.127 136.533 234.114 135.608 234.228C134.683 234.341 134.278 234.341 132.659 234.112C131.04 233.882 126.404 231.466 125.489 231.106C124.986 230.908 124.589 229.75 124.25 228.919C123.809 227.832 121.989 225.483 121.989 225.483" fill="#996234"/>
<path d="M100.942 230.166C101.174 226.93 102.33 221.781 104.296 219.529C106.262 217.272 106.84 217.331 108.285 216.695C109.731 216.06 110.483 216.232 110.483 216.232C110.483 216.232 110.558 218.547 111.736 218.952C112.911 219.355 115.687 220.109 115.861 219.645C116.035 219.182 115.63 218.888 115.977 218.485C116.324 218.083 116.902 216.984 117.307 217.216C117.712 217.445 119.736 218.256 119.966 219.297C120.198 220.338 120.429 221.725 121.007 222.534C121.586 223.344 121.933 224.614 121.933 224.614C121.933 224.614 122.107 225.076 122.28 225.599C122.454 226.117 120.776 226.06 119.678 228.2C118.579 230.338 117.366 226.986 117.366 226.986C117.366 226.986 118.695 226.117 117.481 227.969C117.481 227.969 115.631 230.802 115.515 231.207C115.4 231.613 114.937 232.653 114.995 233.695C115.054 234.739 115.632 235.834 115.515 236.932C115.399 238.032 115.539 239.013 114.168 239.534C112.8 240.054 111.295 239.94 109.618 240.112C107.939 240.284 105.872 240.195 105.107 240.863C104.341 241.535 103.604 240.98 102.678 241.211C101.753 241.442 101.695 242.021 100.943 241.211C100.191 240.402 101.385 237.858 101.193 237.279C101.002 236.701 100.499 235.428 100.692 233.519C100.886 231.613 100.942 230.166 100.942 230.166Z" fill="#8BC7E8"/>
<path d="M107.626 234.069C107.626 234.069 108.854 238.101 109.542 238.866C110.23 239.632 111.327 241.409 111.91 242.099C112.497 242.787 117.674 248.096 118.295 248.554C118.918 249.017 121.921 251.654 121.921 251.654L126.174 251.166C126.174 251.166 123.356 248.148 121.97 246.673C120.584 245.198 116 239.524 115.741 239.007C115.478 238.491 113.987 236.939 113.586 236.223C113.181 235.507 113.117 234.026 112.783 232.678C112.447 231.328 111.872 229.583 111.872 229.583C111.872 229.583 106.527 228.941 106.363 230.204C106.198 231.47 107.626 234.069 107.626 234.069Z" fill="#996234"/>
<path d="M110.426 254.571C110.426 254.571 109.25 252.988 109.654 251.254C110.058 249.52 110.517 248.653 111.616 248.422C112.713 248.191 114.182 248.152 114.473 248.325C114.762 248.499 118.29 250.196 119.1 250.542C119.909 250.889 122.065 252.548 122.065 253.241C122.065 253.935 122.181 254.166 122.412 254.859C122.643 255.552 122.932 257.52 122.932 257.52L117.378 258.108C117.378 258.108 117.549 256.712 117.151 256.536C116.757 256.364 111.446 255.435 111.099 255.207C110.752 254.976 110.426 254.571 110.426 254.571Z" fill="#996234"/>
<path d="M351.803 183.857L350.751 182.547C350.751 182.547 348.122 181.42 348.009 181.473C347.899 181.525 347.738 182.257 347.65 182.275C347.562 182.292 347.061 183.376 346.911 183.405C346.762 183.434 346.097 185.904 346.097 185.904L345.034 187.546C345.034 187.546 345.034 187.546 344.958 187.469C344.881 187.393 342.966 186.794 342.965 186.794C341.334 185.811 339.58 184.754 338.617 184.171C338.003 183.721 336.884 182.853 336.665 182.734C336.362 182.571 335.727 182.271 335.557 181.962C335.387 181.654 334.881 180.555 334.752 180.396C334.624 180.238 334.529 179.749 334.351 179.526C334.172 179.304 333.826 178.599 333.832 178.425C333.837 178.251 333.803 178.146 333.724 177.95C333.643 177.752 333.572 177.468 333.572 177.468L333.562 176.742C333.562 176.742 333.583 176.686 333.354 176.72C333.126 176.753 332.779 177.152 332.732 177.524C332.685 177.897 332.722 178.38 332.8 178.664C332.879 178.948 333.097 179.146 333.098 179.305C333.099 179.466 333.03 179.937 333.03 179.937C333.03 179.937 332.557 180.046 332.265 180.058C331.974 180.071 330.418 180.121 330.166 180.704C329.915 181.287 330.226 181.502 330.312 181.501C330.4 181.498 330.051 181.773 330.119 182.096C330.187 182.419 330.267 182.601 330.363 182.655C330.459 182.71 330.157 182.954 330.197 183.118C330.238 183.282 330.421 183.762 330.52 183.76C330.622 183.758 330.764 183.786 330.764 183.786C330.764 183.786 330.7 183.97 330.735 184.06C330.77 184.151 330.846 184.649 330.957 184.706C331.066 184.763 331.214 184.806 331.319 184.877C331.424 184.948 331.754 185.116 331.876 185.115C332 185.114 333.575 185.35 334.288 185.209C334.371 185.193 334.844 185.433 334.844 185.433C334.844 185.433 335.601 185.948 336.285 186.389C337.469 187.237 339.806 188.886 344.138 192.199C344.189 192.238 344.594 192.571 344.594 192.571L345.321 192.854C345.321 192.854 345.855 192.779 345.967 192.727C346.078 192.675 346.384 192.37 346.448 192.235C346.513 192.101 347.182 191.786 347.671 191.354C348.159 190.922 349.786 189.229 350.089 188.743C350.392 188.256 352.501 183.994 352.771 183.666C353.041 183.338 351.803 183.857 351.803 183.857Z" fill="#F9DBBD"/>
<path d="M349.559 159.463C349.956 159.198 351.275 158.67 351.825 158.89C352.375 159.111 355.852 158.714 356.555 160.034C357.259 161.354 357.874 162.608 357.127 164.214C356.379 165.82 355.697 166.458 355.457 167.602C355.213 168.746 355.544 170.968 355.544 170.968L351.322 173.08C351.322 173.08 350.595 172.97 350.332 172.661C350.068 172.353 349.43 172.002 349.43 171.473C349.43 170.945 349.474 170.439 349.167 170.197C348.857 169.955 347.251 170.241 346.855 169.449C346.458 168.658 346.502 168.152 346.679 167.293C346.855 166.435 346.947 165.841 346.551 165.533C346.151 165.225 345.779 165.006 346.042 164.609C346.305 164.214 347.558 163.554 347.803 163.025C348.044 162.498 347.714 162.366 347.91 161.838C348.107 161.31 349.559 159.463 349.559 159.463Z" fill="#F9DBBD"/>
<path d="M349.142 159.506C349.142 159.572 350.09 159.22 350.617 159.506C351.145 159.792 351.981 159.66 351.718 160.892C351.454 162.124 351.542 163.245 351.587 163.312C351.632 163.378 351.478 163.839 351.52 163.927C351.564 164.016 352.092 164.434 352.201 164.412C352.311 164.389 352.971 163.62 352.971 163.62C352.971 163.62 353.479 163.444 353.983 163.488C354.49 163.531 355.04 163.312 355.063 164.06C355.085 164.808 355.193 164.896 354.932 165.204C354.667 165.512 353.897 166.128 354.096 166.216C354.294 166.304 354.645 166.325 354.755 166.568C354.864 166.81 355.238 167.645 355.215 167.866C355.193 168.086 355.041 168.592 355.216 168.592C355.391 168.592 356.205 169.076 356.295 169.032C356.383 168.988 356.538 167.954 356.777 167.69C357.021 167.426 358.779 165.613 358.889 164.727C358.999 163.84 358.935 163.576 358.713 162.96C358.493 162.344 358.605 161.618 358.077 160.76C357.55 159.903 356.031 158.539 355.349 158.275C354.667 158.01 353.68 158.78 353.083 158.758C352.49 158.736 352.556 158.209 351.83 157.988C351.103 157.768 350.092 157.57 349.807 157.879C349.522 158.187 348.664 158.45 348.818 158.847C348.965 159.242 349.142 159.506 349.142 159.506Z" fill="#5B4838"/>
<path d="M355.93 248.339H359.914C359.914 248.339 360.07 251.932 360.148 252.128C360.227 252.323 356.36 252.792 356.242 252.831C356.125 252.87 355.93 248.339 355.93 248.339Z" fill="#F9DBBD"/>
<path d="M358.644 198.246C358.644 198.246 360.845 202.821 360.404 205.724C359.965 208.628 359.261 209.245 359.261 211.71C359.261 214.174 359.966 224.204 359.261 225.964C358.558 227.723 357.765 227.548 358.822 228.867C359.878 230.187 360.648 233.355 360.483 234.322C360.317 235.291 360.093 236.699 360.865 239.163C360.969 244.198 362.816 244.633 361.499 247.713C360.178 250.793 358.765 250.927 356.477 249.784C354.188 248.64 353.75 247.16 354.018 245.838C354.283 244.52 353.894 239.25 353.542 238.105C353.19 236.962 353.319 235.817 353.122 233.529C352.924 231.241 351.429 232.385 350.505 229.921C349.581 227.458 349.848 226.401 350.109 225.697C350.373 224.993 349.67 222.178 349.143 219.36C348.614 216.544 347.734 216.106 347.734 212.937C347.734 209.768 346.415 211.442 346.149 208.36C345.885 205.281 345.445 205.016 346.149 203.344C346.854 201.674 347.382 199.387 347.382 199.387C347.382 199.387 352.567 197.098 353.187 197.274C353.805 197.453 358.644 198.246 358.644 198.246Z" fill="#2A2866"/>
<path d="M347.976 180.34C348.09 178.629 350.705 175.192 350.394 174.302C350.084 173.413 351.455 171.877 352.997 170.965C354.236 170.402 355.859 168.644 356.047 170.397C356.403 171.909 358.354 173.146 359.155 175.102C359.955 177.059 360.844 183.817 360.755 185.596C360.667 187.374 361.034 193.422 360.762 195.378C360.489 197.335 359.333 198.668 358.354 198.935C357.376 199.202 352.841 198.401 351.418 198.935C349.995 199.469 348.572 200.091 347.239 199.469C345.905 198.847 345.682 198.011 345.86 196.499C346.038 194.988 345.825 193.403 346.27 192.603C346.714 191.803 347.684 183.551 347.772 183.284C347.861 183.017 347.976 180.34 347.976 180.34Z" fill="#EDEDED"/>
<path d="M357.453 189.95C357.453 189.862 357.277 183.299 357.277 183.299C357.277 183.299 355.988 182.596 355.9 182.479C355.812 182.362 352.828 182.479 352.828 182.479C352.828 182.479 352.56 187.811 352.578 187.879C352.596 187.947 352.765 190.653 352.809 190.741C352.852 190.828 352.809 192.527 352.809 192.527L352.619 195.281L352.604 195.279C352.604 195.279 352.594 195.498 352.579 195.866L352.578 195.869C352.487 198.026 352.173 205.396 352.16 205.484C352.145 205.589 351.835 206.811 351.741 207.056C351.646 207.3 351.491 207.473 351.265 207.599C351.041 207.726 350.689 208.318 350.61 208.51C350.53 208.704 350.036 209.124 349.878 209.307C349.719 209.492 349.401 210.702 349.341 210.916C349.283 211.126 348.849 211.725 348.795 211.869C348.742 212.017 348.532 212.369 349.02 212.419C349.99 212.513 350.558 210.655 350.656 210.644C350.754 210.631 350.992 210.337 350.95 210.487C350.909 210.634 351.058 211.142 351.126 211.191C351.194 211.237 351.072 211.873 351.203 212.333C351.057 212.818 351.195 215.595 351.349 215.827C351.5 216.057 351.68 216.093 351.88 215.932C352.08 215.771 352.01 214.011 352.01 214.011C352.01 214.011 352.193 212.885 352.22 212.974C352.25 213.062 352.12 213.999 352.105 214.106C352.092 214.209 352.174 214.786 352.137 214.992C352.1 215.197 352.099 216.088 352.17 216.417C352.239 216.748 352.597 216.724 352.784 216.587C352.97 216.449 352.893 215.699 352.918 215.611C352.942 215.523 353.012 215.269 353.015 215.057C353.02 214.852 353.021 214.304 353.021 214.304C353.021 214.304 353.149 213.483 353.203 213.102C353.174 213.571 353.17 214.754 353.137 214.916C353.097 215.107 353.084 215.551 353.06 215.881C353.037 216.213 353.475 216.239 353.65 216.044C353.825 215.85 353.741 215.368 353.886 214.842C354.032 214.315 354 214.036 354.059 213.823C354.118 213.609 354.191 212.51 354.191 212.51C354.191 212.51 354.287 213.446 354.289 213.576C354.29 213.677 354.2 214.386 354.183 214.543C354.167 214.701 354.132 214.888 354.508 214.876C354.958 214.81 355.032 213.023 355.084 212.781C355.137 212.539 355.179 212.361 355.13 211.686C355.494 210.114 354.973 208.042 354.87 207.825C354.769 207.608 354.846 207.224 354.89 206.966C354.89 206.966 354.779 207.506 356.585 195.823L356.583 195.823C356.596 195.759 356.601 195.7 356.585 195.662C356.51 195.487 357.1 192.616 357.129 192.323C357.158 192.03 357.453 190.037 357.453 189.95Z" fill="#F9DBBD"/>
<path d="M352.287 176.653C352.355 175.757 357.038 172.657 357.743 177.66C358.226 180.875 357.654 181.354 357.535 184.068C357.456 185.864 351.075 183.843 350.931 182.646C350.789 181.45 352.285 176.674 352.287 176.653Z" fill="#EFEFEF"/>
<path d="M64.7188 266.619C64.7188 266.619 65.8906 263.69 66.5441 258.301C67.1975 252.913 62.4884 252.137 62.4884 252.137C56.2873 250.563 58.3906 247.987 58.1563 240.97C57.9219 233.954 56.1575 238.014 50.7059 231.684C45.2544 225.354 43.1563 236.247 43.1563 236.247L-6.76562 375.955" stroke="#753C15" stroke-width="6" stroke-miterlimit="10" stroke-linecap="round" stroke-linejoin="round"/>
<path d="M62.4908 231.306C62.6263 231.693 62.7247 233.786 62.7247 233.786L64.2683 236.344C64.2683 236.344 64.8556 237.703 64.977 238.993C65.0989 240.283 67.4839 246.877 67.5763 247.871C67.6616 248.766 68.8241 254.37 69.0477 255.443V255.446C69.0655 255.539 69.0772 255.594 69.0833 255.615C69.1953 256.173 69.5408 257.998 69.2544 258.298C68.9145 258.655 68.6975 258.85 68.6652 259.558C68.6328 260.267 68.4392 260.801 68.2911 261.401C68.143 261.996 66.8347 263.691 67.6391 264.004C68.4392 264.316 69.7583 264.465 70.8031 264.542C71.8503 264.613 73.0485 264.542 73.0485 264.542L74.9825 264.002L74.9174 263.196C74.9174 263.196 74.8424 261.928 74.9174 261.591C74.991 261.251 74.496 259.295 74.2958 258.933C74.2035 258.767 74.1505 257.802 74.1186 256.818C74.1753 255.405 74.1238 253.048 73.8294 249.387C73.2725 242.429 71.9731 239.248 71.6436 237.877C71.315 236.504 70.5753 232.049 69.651 230.733C68.7266 229.419 68.0178 225.079 68.0178 225.079C68.0178 225.079 62.3591 230.923 62.4908 231.306Z" fill="#FFCBA1"/>
<path d="M60.0349 218.24C60.0349 218.24 58.1346 222.974 57.9546 223.342C57.7755 223.708 55.4749 228.218 54.6443 229.347C53.8122 230.476 53.5882 232.337 53.553 232.602C53.5193 232.869 54.0794 234.742 54.229 235.079C54.3761 235.413 52.9957 237.207 52.5836 237.424C52.1688 237.639 50.7194 236.287 50.1068 235.557C49.4899 234.826 49.7262 234.103 49.6966 233.58C49.6708 233.056 50.8947 231.63 51.2477 230.631C51.6007 229.631 53.0172 224.42 53.2511 223.872C53.486 223.324 54.8027 218.296 54.8294 218.029L60.0349 218.24Z" fill="#FFCBA1"/>
<path d="M64.939 231.445C64.939 231.445 66.2332 230.115 66.0181 231.104C65.8732 231.764 61.2678 239.366 60.6157 239.59C60.2942 239.699 60.0589 239.757 60.0589 239.757C60.0589 239.757 59.7786 241.302 60.4648 242.566C61.1515 243.831 60.6017 253.749 60.1418 254.339C59.6796 254.932 60.9481 259.695 60.9481 259.695C60.9143 259.796 62.1842 264.023 61.8425 264.539C61.5012 265.052 60.9017 265.286 59.5962 265.332C58.2912 265.379 57.3242 265.448 56.044 265.39C54.7625 265.337 50.0407 266.222 48.627 266.092C47.2128 265.963 47.3004 265.953 47.3421 265.453C47.3834 264.952 48.0842 264.04 48.3612 263.985C48.6382 263.928 50.1345 263.494 51.1906 262.686C52.2486 261.875 54.3481 260.895 54.3481 260.895L55.302 259.841C55.302 259.841 55.3493 257.484 55.2143 255.224C55.0775 252.963 54.8684 250.523 54.7137 249.686C54.5581 248.846 54.3186 244.706 54.0978 243.168C53.8765 241.629 53.8114 239.325 53.7645 238.015C53.7162 236.703 57.1957 229.492 57.1957 229.492L64.939 231.445Z" fill="#FFCBA1"/>
<path d="M46.3766 215.85C46.3766 215.85 49.2815 221.97 49.5365 223.347C49.7896 224.724 50.5105 225.707 50.9868 227.874C51.4607 230.041 49.1099 232.234 49.0822 232.589C49.0541 232.941 48.4611 233.699 48.074 233.825C47.6872 233.949 47.3469 235.819 46.3466 236.293C45.3444 236.765 45.2638 236.016 44.8991 235.262C44.5354 234.509 44.819 233.167 44.8429 232.813C44.8668 232.461 45.3533 230.489 45.0936 229.375C44.8325 228.26 44.6047 225.303 44.2016 224.64C43.7994 223.977 42.179 220.626 42.179 220.626L46.3766 215.85Z" fill="#FFCBA1"/>
<path d="M42.6443 205.513C42.6513 205.432 43.2696 206.186 43.2696 206.186C43.2696 206.186 45.018 209.935 44.8277 210.561C44.6402 211.188 43.3315 213.131 43.3315 213.131C43.3315 213.131 42.5655 212.574 42.3044 212.491C42.0424 212.408 41.7508 212.043 41.6332 211.993C41.5155 211.944 40.991 211.914 40.991 211.914L40.076 212.495L40.3048 213.347C40.3048 213.347 40.5715 214.497 40.5757 214.711C40.5785 214.925 40.3765 215.483 40.2865 215.572C40.1918 215.661 38.8662 216.139 38.6646 216.121C38.4644 216.107 37.8284 216.15 37.6929 216.086C37.5555 216.024 36.9218 216.283 36.9218 216.283C36.9218 216.283 36.7948 216.468 36.5974 216.755C36.3996 217.044 36.3208 216.961 36.176 216.95C36.0307 216.94 35.2329 216.452 34.931 216.275C34.6315 216.098 34.3633 216.003 34.1224 215.868C33.8838 215.733 33.8098 216.016 33.6335 216.139C33.4615 216.261 33.2852 216.292 33.0616 216.137C32.8371 215.98 31.3005 216.012 30.9907 215.981C30.6799 215.95 29.1729 215.06 28.8987 214.844C28.6254 214.627 27.4301 212.319 27.2951 211.592C27.1582 210.862 28.2504 208.138 28.2738 207.97C28.2958 207.806 29.9773 205.936 29.9993 205.861C30.019 205.786 33.0579 205.371 33.4544 205.28C33.8501 205.188 35.6876 205.946 36.2173 206.098C36.7493 206.252 37.6221 206.479 37.7585 206.451C37.8977 206.424 39.2412 206.357 39.6654 206.315C40.0873 206.272 42.5393 205.64 42.634 205.593" fill="#FFCBA1"/>
<path d="M58.4862 218.388C57.9828 218.7 56.9131 222.04 56.8817 223.709C56.8503 225.377 56.1584 225.18 56.8329 227.48C56.3628 229.786 56.3628 231.029 56.3628 231.029C56.3628 231.029 58.2622 232.355 59.5878 232.93C60.9158 233.504 68.6834 232.334 68.735 232.065C68.787 231.795 68.982 230.358 68.982 230.358C68.982 230.358 69.2131 230.318 69.9308 230.427C70.6456 230.534 72.8605 229.712 72.8605 229.712C72.8605 229.712 73.9189 224.986 74.0061 224.192C74.0947 223.393 76.6944 217.279 76.7239 214.824C76.7539 212.37 75.478 210.914 74.3473 209.443C73.2125 207.972 69.8487 206.013 69.3767 205.97C69.3772 205.969 58.9869 218.075 58.4862 218.388Z" fill="#32417F"/>
<path d="M70.2514 206.498C69.9585 207.055 66.2408 211.347 65.8307 211.996C65.4196 212.649 64.3766 215.725 64.3766 215.725C64.3766 215.725 60.9214 219.029 60.8619 219.386C60.8038 219.74 58.348 219.622 57.7522 219.329C57.1583 219.033 53.6507 219.978 51.771 220.069C49.8894 220.158 46.9935 217.19 47.3689 217.593C47.7425 217.994 43.3874 221.823 43.3874 221.823C43.3874 221.823 42.5329 221.905 41.8204 221.533C41.1074 221.164 40.0321 221.701 40.0321 221.701L39.3969 219.836C39.3969 219.836 38.1664 212.77 38.3155 212.229C38.4636 211.692 38.9628 208.226 39.0121 206.382C39.0627 204.538 41.3052 203.364 48.3861 200.329C55.4661 197.297 70.2168 205.276 70.5097 205.336C70.5097 205.338 70.543 205.947 70.2514 206.498Z" fill="#FFFEF8"/>
<path d="M33.9899 205.271C33.1845 204.824 32.6305 204.166 31.3334 204.312C30.0364 204.458 29.4509 204.767 29.0849 205.271C28.7188 205.776 27.621 206.654 27.621 207.093C27.621 207.533 27.3561 208.468 27.621 208.777C27.8858 209.088 27.7499 209.363 27.283 210.169C26.8161 210.975 27.3842 212.291 27.283 213.098C27.1817 213.903 26.7988 215.294 27.283 215.587C27.7672 215.879 28.2795 215.823 28.6456 215.851C29.0117 215.879 29.9633 216.465 29.9633 216.465C29.9633 216.465 30.8394 216.949 30.9149 216.465C30.9903 215.981 30.9903 215.981 30.9903 215.981C30.9903 215.981 31.8247 215.221 31.333 214.928C30.8413 214.635 30.8413 214.342 30.8413 213.757C30.8413 213.171 31.333 212.073 31.333 212.073C31.333 212.073 31.0194 211.707 31.333 211.707C31.6466 211.707 31.9395 211.635 32.1589 211.635C32.3788 211.635 31.866 211.707 32.3788 211.635C32.8916 211.561 32.9642 211.707 33.3303 211.488C33.6964 211.269 33.6233 211.709 33.6964 211.269C33.7695 210.829 33.6233 210.488 33.6233 210.488L33.9894 209.439C33.9894 209.439 34.3109 209.658 34.6925 209.223C35.0741 208.788 35.6731 209.292 35.6731 209.292C35.6731 209.292 35.6469 209.292 36.0627 209.512C36.4784 209.731 36.4784 209.731 36.4784 209.731C36.4784 209.731 36.7714 209.878 36.9908 209.878C37.2106 209.878 36.8445 210.171 37.2106 209.878C37.5767 209.585 38.3703 209.585 38.3028 209.146C38.2353 208.706 37.9888 208.533 38.307 208.161C38.6249 207.788 39.4808 207.876 38.968 207.23C38.4552 206.583 37.993 206.469 37.9677 206.087C37.9424 205.704 38.2353 204.752 37.3569 204.826C36.4784 204.901 36.4784 204.9 36.4784 204.9L33.9899 205.271Z" fill="#9E5A2D"/>
<path opacity="0.6" d="M-3.2312 292.253L380.686 291.923L381.154 386.776H-3.2312V292.253Z" fill="#33EFFF"/>
<path d="M346.692 254.215C346.692 254.215 346.355 254.083 346.253 254.331C346.15 254.58 346.092 255.53 346.092 255.53C346.092 255.53 347.656 257.109 353.298 256.67C353.298 256.67 353.33 256.305 353.409 256.319C353.488 256.334 356.601 256.042 356.601 256.042C356.601 256.042 356.693 256.524 356.713 256.539C356.733 256.554 360.445 256.714 360.869 256.495C361.293 256.276 361.512 256.247 361.497 256.013C361.483 255.779 361.41 254.434 361.41 254.434C361.41 254.434 361.302 254.175 361.159 254.18C361.015 254.186 360.255 254.288 359.67 254.317C359.086 254.347 346.692 254.215 346.692 254.215Z" fill="#A08162"/>
<path d="M346.688 253.354C346.688 253.354 346.175 253.894 346.35 254.231C346.526 254.567 346.628 254.947 349.464 255.59C349.621 255.626 352.811 255.838 355.295 255.385C357.781 254.932 358.117 255.152 358.204 255.152C358.292 255.152 360.937 254.99 361.091 254.757C361.244 254.523 361.091 253.193 361.091 253.193C361.091 253.193 361.274 253.003 361.274 252.623C361.274 252.243 361.186 251.907 361.186 251.907C361.186 251.907 361.328 251.473 361.274 251.249C361.089 250.489 355.997 251.249 355.997 251.249C355.997 251.249 354.448 251.344 353.293 251.541C352.138 251.739 351.919 251.775 351.919 251.892C351.919 252.009 351.846 252.229 351.846 252.229C351.846 252.229 351.056 252.637 350.808 252.623C350.56 252.609 347.607 252.769 347.388 252.886C347.168 253.003 346.687 253.281 346.687 253.281" fill="#472117"/>
<path d="M352.377 252.095C352.261 252.212 352.069 252.497 352.062 252.095C352.055 251.693 352.047 251.291 352.219 251.291C352.392 251.291 352.684 251.291 352.684 251.291C352.684 251.291 352.129 251.028 352.436 251.583C352.743 252.139 353.006 252.285 353.035 252.182C353.064 252.08 353.237 251.842 353.106 251.573C352.976 251.306 352.64 251.117 352.874 250.911C353.108 250.706 353.307 250.487 353.39 250.618C353.474 250.75 353.678 250.693 353.546 250.911C353.415 251.13 353.05 251.203 353.458 251.693C353.868 252.182 354.03 252.197 354.015 251.992C353.999 251.788 354.233 251.7 354.087 251.511C353.941 251.32 353.721 250.809 353.868 250.707C354.014 250.604 353.882 250.422 354.291 250.579C354.701 250.736 355.022 250.782 355.168 250.912C355.315 251.043 355.504 251.087 355.431 251.292C355.359 251.496 355.534 251.613 355.256 251.693C354.978 251.773 355.258 251.921 354.671 251.847C354.085 251.773 354.116 252.055 354.015 251.693" stroke="#E7C57A" stroke-miterlimit="10"/>
<rect x="315.5" y="15.9561" width="44.0746" height="25" rx="12.5" fill="#969696" fill-opacity="0.3"/>
<path d="M328.501 23.5537V24.2715H328.406C327.216 24.2715 326.28 24.6224 325.596 25.3242C324.913 26.0215 324.534 26.9922 324.461 28.2363C324.735 27.8581 325.083 27.5664 325.507 27.3613C325.931 27.1517 326.405 27.0469 326.929 27.0469C327.804 27.0469 328.499 27.3499 329.014 27.9561C329.534 28.5576 329.793 29.346 329.793 30.3213C329.793 30.9684 329.673 31.5518 329.431 32.0713C329.19 32.5908 328.843 32.9964 328.392 33.2881C327.941 33.5752 327.426 33.7188 326.847 33.7188C325.895 33.7188 325.12 33.3747 324.523 32.6865C323.926 31.9938 323.627 31.1006 323.627 30.0068V29.1865C323.627 27.4046 324.033 26.026 324.844 25.0508C325.655 24.071 326.806 23.5719 328.296 23.5537H328.501ZM326.799 27.751C326.28 27.751 325.794 27.9059 325.343 28.2158C324.897 28.5212 324.598 28.9108 324.448 29.3848V30.082C324.448 30.9479 324.669 31.6543 325.111 32.2012C325.557 32.748 326.136 33.0215 326.847 33.0215C327.485 33.0215 328 32.7686 328.392 32.2627C328.789 31.7568 328.987 31.1188 328.987 30.3486C328.987 29.5648 328.789 28.9359 328.392 28.4619C328 27.988 327.469 27.751 326.799 27.751ZM331.455 34.4365H330.709L334.866 23.6289H335.604L331.455 34.4365ZM340.813 33.582H339.993V24.6133L337.286 25.6182V24.8525L340.676 23.5947H340.813V33.582ZM350.773 29.4326C350.773 30.8363 350.515 31.9027 350 32.6318C349.486 33.3564 348.727 33.7188 347.724 33.7188C346.74 33.7188 345.986 33.3633 345.461 32.6523C344.937 31.9368 344.668 30.8978 344.655 29.5352V27.751C344.655 26.3519 344.915 25.2923 345.434 24.5723C345.954 23.8522 346.712 23.4922 347.71 23.4922C348.695 23.4922 349.447 23.8408 349.966 24.5381C350.486 25.2308 350.755 26.2539 350.773 27.6074V29.4326ZM349.953 27.6484C349.953 26.5091 349.766 25.6478 349.392 25.0645C349.023 24.4811 348.462 24.1895 347.71 24.1895C346.972 24.1895 346.416 24.4743 346.042 25.0439C345.669 25.6136 345.477 26.4544 345.468 27.5664V29.5215C345.468 30.6562 345.66 31.5244 346.042 32.126C346.43 32.7275 346.99 33.0283 347.724 33.0283C348.453 33.0283 349.005 32.7344 349.378 32.1465C349.757 31.5586 349.948 30.6973 349.953 29.5625V27.6484Z" fill="black"/>
</g>
<defs>
<linearGradient id="paint0_linear" x1="187.026" y1="379.906" x2="187.026" y2="-4.14853" gradientUnits="userSpaceOnUse">
<stop stop-color="white"/>
<stop offset="1" stop-color="#4FC3F7"/>
</linearGradient>
<clipPath id="clip0">
<rect width="375" height="375" fill="white" transform="translate(0.5 0.956055)"/>
</clipPath>
</defs>
</svg>
