<svg width="376" height="376" viewBox="0 0 376 376" fill="none" xmlns="http://www.w3.org/2000/svg">
<g clip-path="url(#clip0)">
<path d="M-4.77246 -3.67578H387.299L385.776 379.358H-3.40311L-4.77246 -3.67578Z" fill="url(#paint0_linear)"/>
<path d="M343.384 243.506C343.384 241.139 341.414 239.219 338.983 239.219H337.017C334.587 239.219 332.617 241.139 332.617 243.506V262.087C332.617 264.453 334.587 266.373 337.017 266.373H338.983C341.413 266.373 343.384 264.454 343.384 262.087V243.506Z" fill="#3F3F3F"/>
<path d="M389.649 256.507H322.9V379.357H389.649V256.507Z" fill="#968E89"/>
<path d="M253.4 254.448C252.662 254.448 252.019 253.901 251.919 253.149C250.389 241.611 257.018 220.739 257.301 219.855C257.405 219.476 257.745 218.889 258.682 218.577C260.559 217.951 265.98 218.421 270.09 221.594C298.964 243.884 332.226 242.71 332.554 242.686L343.386 242.685C344.147 242.685 344.786 243.256 344.872 244.012C344.937 244.58 344.673 245.118 344.222 245.422C344.62 245.691 344.882 246.147 344.882 246.663C344.882 247.489 344.212 248.159 343.386 248.159H332.619C331.858 248.159 331.219 247.588 331.133 246.832C331.084 246.405 331.221 245.998 331.481 245.691C325.282 245.684 294.914 244.536 268.262 223.961C265.186 221.587 261.27 221.203 259.971 221.346C258.868 224.953 253.585 242.941 254.886 252.754C254.994 253.572 254.418 254.324 253.6 254.434C253.532 254.444 253.466 254.448 253.4 254.448Z" fill="#753C15"/>
<path d="M243.529 259.857C243.529 259.857 245.036 261.033 244.259 262.223C243.483 263.414 241.328 265.416 241.021 267.651C240.712 269.881 240.478 272.286 240.171 274.222C239.862 276.159 238.479 279.811 238.479 279.811H243.311L245.994 272.918C245.994 272.918 247.683 271.759 248.297 269.152C248.91 266.546 250.519 264.536 250.978 263.644C251.44 262.751 252.13 261.856 251.363 260.293C250.596 258.731 249.333 256.646 249.333 256.646L243.529 259.857Z" fill="#FFCBA1"/>
<path d="M260.587 223.236L256.657 226.498L255.487 227.801C254.777 227.801 263.316 226.272 265.782 226.272C267.239 226.272 268.772 226.718 269.156 226.272C269.537 225.825 268.926 225.304 269.768 224.858C270.612 224.412 272.68 223.964 272.604 222.846C272.528 221.728 271.975 219.917 270.841 220.835C269.918 221.579 268.54 221.953 267.391 222.325C266.24 222.698 263.181 222.762 260.73 223.284L260.587 223.236Z" fill="#FFCBA1"/>
<path d="M245.763 227.146C245.877 226.45 246.952 224.891 248.112 224.279C249.268 223.671 251.538 223.92 251.925 224.043C252.315 224.167 252.551 223.985 252.551 223.985C252.551 223.985 254.51 223.365 255.48 222.919C256.453 222.473 258.881 221.059 258.727 220.313C258.575 219.569 259.341 218.901 260.109 217.412C260.875 215.921 262.179 216.294 262.561 216.144C264.012 215.58 262.87 217.261 263.788 218.005C264.709 218.749 264.478 219.417 264.478 220.163C264.478 220.909 264.019 221.13 262.025 222.394C259.625 223.921 258.983 224.727 256.044 227.31C252.824 230.14 252.366 230.141 250.984 230.659C249.605 231.179 249.913 230.959 248.454 230.659C246.997 230.361 245.881 227.352 245.881 227.352" fill="#FFCBA1"/>
<path d="M244.619 203.72H245.584L254.325 204.297L255.134 205.199C255.134 205.199 255.176 205.327 254.969 206.76C254.839 207.673 254.203 208.772 253.667 209.516C253.133 210.26 252.442 212.272 252.286 212.638C252.137 213.003 251.059 213.533 250.521 213.236C249.986 212.939 249.931 215.012 249.825 215.236L249.632 215.478L246.891 213.376L244.245 209.761C244.27 209.139 244.467 207.701 244.315 206.283C244.159 204.869 244.619 203.72 244.619 203.72Z" fill="#FFCBA1"/>
<path d="M246.457 249.795C247.378 252.252 249.953 257.243 249.953 257.243C249.953 257.243 248.067 257.838 247.415 257.986C246.765 258.133 242.241 261.56 240.552 261.56C238.864 261.56 234.037 262.155 234.113 261.56C234.187 260.966 233.268 259.996 232.655 258.136C232.042 256.276 231.352 255.827 230.779 252.924C230.211 250.02 229.571 248.008 229.571 248.008C229.571 248.008 228.361 245.552 228.361 242.116C228.361 238.679 231.234 236.503 231.234 236.503L245.753 241.777C245.678 242.002 245.997 244.955 245.536 245.921C245.077 246.891 245.537 247.339 246.457 249.795Z" fill="#F7931E"/>
<path d="M235.372 262.323C234.413 262.323 233.992 262.231 233.766 261.974L233.617 261.804L233.618 261.496C233.636 261.358 233.395 260.914 233.202 260.557C232.906 260.01 232.502 259.262 232.183 258.292C231.966 257.639 231.744 257.172 231.508 256.679C231.094 255.813 230.665 254.917 230.291 253.021C229.734 250.181 229.103 248.18 229.096 248.16C229.073 248.125 227.863 245.629 227.863 242.116C227.863 238.473 230.808 236.2 230.934 236.106L231.151 235.942L246.382 241.476L246.226 241.937C246.232 241.97 246.245 242.215 246.257 242.536C246.312 243.956 246.336 245.403 245.987 246.136C245.743 246.654 245.83 246.901 246.336 248.132C246.5 248.532 246.698 249.017 246.925 249.621C247.825 252.021 250.372 256.963 250.397 257.013L250.668 257.539L250.104 257.717C250.026 257.741 248.191 258.32 247.526 258.471C247.357 258.525 246.634 258.987 245.997 259.394C243.715 260.852 241.73 262.059 240.553 262.059C240.051 262.059 239.236 262.116 238.371 262.174C237.311 262.247 236.215 262.323 235.372 262.323ZM234.598 261.286C234.733 261.306 234.969 261.325 235.372 261.325C236.181 261.325 237.307 261.247 238.302 261.179C239.183 261.118 240.016 261.061 240.552 261.061C241.533 261.061 243.991 259.492 245.459 258.553C246.53 257.869 247.016 257.565 247.304 257.499C247.711 257.406 248.637 257.128 249.239 256.941C248.55 255.585 246.743 251.979 245.99 249.97C245.768 249.377 245.573 248.903 245.411 248.51C244.885 247.226 244.644 246.64 245.085 245.707C245.359 245.133 245.293 243.403 245.261 242.573C245.253 242.385 245.248 242.239 245.245 242.122L231.335 237.069C230.713 237.624 228.861 239.492 228.861 242.116C228.861 245.398 230.007 247.765 230.019 247.789C230.073 247.94 230.703 249.929 231.269 252.829C231.619 254.601 232.002 255.401 232.408 256.249C232.647 256.749 232.894 257.267 233.13 257.981C233.422 258.866 233.786 259.539 234.08 260.082C234.335 260.558 234.538 260.934 234.598 261.286Z" fill="#F7931E"/>
<path d="M252.133 222.696C252.743 224.258 252.743 224.258 251.747 224.108C250.876 223.978 248.057 224.136 246.754 225.528C246.754 225.528 246.074 226.354 246.074 227.422C246.96 230.57 249.907 230.957 249.907 230.957C249.907 230.957 249.907 230.957 249.448 232.521C248.988 234.087 248.988 234.011 248.141 235.425C247.298 236.838 247.53 237.81 246.686 240.04C245.842 242.274 245.536 242.274 243.082 241.978C240.63 241.679 238.175 239.82 237.102 238.851C236.03 237.883 231.503 237.36 230.969 236.171C230.432 234.979 231.198 234.831 231.354 234.086C231.503 233.34 232.041 233.268 231.737 231.926C231.43 230.586 232.196 229.542 232.196 229.542C236.107 211.598 243.775 209.514 243.775 209.514C243.775 209.514 246.456 209.875 247.915 212.636C249.372 215.396 250.52 215.396 250.598 216.513C250.673 217.632 250.445 217.927 250.983 218.822C251.517 219.713 251.442 220.087 251.594 221.054C251.749 222.025 251.519 221.131 252.133 222.696ZM245.864 226.786C245.856 226.788 245.853 226.79 245.844 226.79C245.865 226.837 245.872 226.832 245.864 226.786Z" fill="#FFF599"/>
<path d="M245.763 201.557C245.763 201.557 244.618 204.059 244.362 204.948C244.111 205.836 244.335 206.717 244.335 206.717L244.243 208.238C244.243 208.238 244.049 209.092 244.618 209.513C245.185 209.936 245.713 209.914 245.975 209.945C246.235 209.977 247.377 210.422 247.833 210.453C248.289 210.483 248.715 210.137 249.822 208.711C250.932 207.285 251.485 207.761 252.856 206.05C254.226 204.341 252.594 204.246 252.551 203.959C252.508 203.674 250.669 201.807 250.669 201.807C250.669 201.807 246.168 201.33 245.973 201.33" fill="#662F09"/>
<path d="M254.433 205.583C249.984 205.594 244.619 204.534 244.619 203.934C244.619 199.39 248.529 198.199 252.056 199.17C255.582 200.138 255.388 204.061 255.258 205.047C255.215 205.363 254.433 205.583 254.433 205.583ZM247.48 201.854C245.897 201.698 245.799 203.454 245.799 203.454C245.901 203.485 246.31 203.688 246.948 203.834C247.753 204.014 248.806 204.141 248.806 204.141C248.806 204.141 249.264 202.028 247.48 201.854Z" fill="#908DFF"/>
<path d="M43.7103 260.13C44.4783 261.428 45.3509 269.699 43.8958 271.469C42.4417 273.235 37.7851 275.257 37.086 275.318C36.3868 275.384 39.9493 294.303 39.9493 294.303C39.9493 294.303 40.1009 308.867 38.7475 310.12C37.3971 311.374 27.6152 318.27 25.7372 318.378C23.8582 318.485 20.4822 318.576 19.9876 317.706C19.4979 316.839 21.8466 312.846 21.8795 312.438C21.9623 311.455 22.2017 308.719 22.0531 308.122C21.9094 307.526 20.9949 302.938 20.579 302.065C20.1631 301.188 12.0517 301.907 11.1262 302.086C10.2007 302.262 10.1578 301.191 10.1578 301.191C11.2768 298.537 18.7469 294.281 18.7469 294.281C18.7469 294.281 16.441 290.617 14.6348 288.583C12.8316 286.551 9.35293 273.954 8.10226 268.51C6.85359 263.061 9.8875 256 10.9098 255.753C26.2479 252.033 42.9354 258.832 43.7103 260.13Z" fill="#36627A"/>
<path d="M19.7302 306.373C18.8306 305.391 16.8648 304.731 15.3539 304.973C13.8449 305.211 14.0015 305.194 13.412 306.6C12.8226 308.007 16.82 307.468 17.7664 307.824C18.7119 308.183 17.5181 309.115 17.3545 309.059C17.19 309.007 13.9466 309.426 13.9466 309.426L14.0344 312.784C14.0344 312.784 18.2721 312.063 18.5344 312.611C18.7987 313.16 16.3173 314.847 15.0188 316.25C13.7172 317.656 15.2093 317.957 17.3675 316.844C19.5277 315.727 20.8263 312.251 20.8263 312.251C20.8263 312.251 21.4147 312.225 22.2654 312.094C23.1182 311.965 22.6514 310.634 22.6893 309.575C22.7262 308.513 22.3502 307.979 22.2485 307.783C22.1477 307.591 20.537 307.969 20.537 307.969C20.537 307.969 20.6258 307.359 19.7302 306.373Z" fill="#6C808C"/>
<path d="M93.4526 282.451L26.0732 282.578L34.2784 300.904C38.148 301.01 131.498 304.332 162.022 303.251C163.564 303.196 169.542 303.298 170.746 303.253C178.584 302.976 184.595 303.23 191.855 302.912C198.332 303.227 204.439 303.167 210.384 302.955C217.328 302.709 223.018 301.802 228.305 300.101C251.273 292.703 259.951 283.752 266.923 276.562C268.025 275.424 269.067 274.352 270.113 273.339C270.189 273.261 270.262 273.186 270.347 273.108C239.422 288.988 197.077 291.265 166.607 293.19C161.717 293.501 156.937 294.233 152.404 294.396C126.227 295.322 109.668 294.996 109.446 294.983L108.213 294.091L93.4526 282.451Z" fill="white"/>
<path d="M145.971 303.965C130.197 303.965 98.5907 303.54 37.5934 301.511C35.7802 301.45 34.6283 301.412 34.2653 301.403L33.9521 301.394L25.3062 282.081L93.626 281.953L108.524 293.699L109.615 294.488C111.292 294.523 127.318 294.782 152.388 293.895C154.899 293.806 157.447 293.543 160.144 293.267C162.238 293.052 164.403 292.829 166.576 292.691L169.046 292.535C199.038 290.651 240.115 288.071 270.12 272.664L273.398 270.98L270.686 273.474C270.608 273.545 270.541 273.613 270.472 273.684C269.454 274.672 268.467 275.685 267.282 276.908C260.27 284.14 251.544 293.138 228.458 300.574C223.123 302.291 217.385 303.205 210.403 303.452C203.318 303.704 197.572 303.687 191.832 303.408C188.1 303.574 184.715 303.584 181.132 303.595C177.884 303.605 174.526 303.616 170.765 303.749C170.193 303.771 168.54 303.76 166.79 303.746C164.876 303.733 162.846 303.718 162.041 303.747C157.985 303.893 152.58 303.965 145.971 303.965ZM34.6064 300.416C35.1469 300.433 36.1752 300.467 37.6263 300.516C98.6097 302.543 130.205 302.969 145.971 302.969C152.568 302.969 157.961 302.896 162.005 302.753C162.819 302.726 164.862 302.738 166.797 302.752C168.521 302.765 170.161 302.777 170.728 302.755C174.506 302.621 177.872 302.61 181.128 302.601C184.701 302.589 188.075 302.579 191.834 302.414C197.631 302.693 203.311 302.709 210.367 302.457C217.255 302.213 222.906 301.314 228.152 299.627C251 292.267 259.63 283.367 266.564 276.217C267.012 275.754 267.432 275.321 267.836 274.908C237.929 289.208 198.289 291.697 169.108 293.53L166.639 293.686C164.485 293.824 162.33 294.044 160.245 294.258C157.531 294.537 154.967 294.801 152.423 294.893C137.158 295.432 125.205 295.546 117.865 295.546C112.437 295.546 109.514 295.484 109.419 295.479L109.273 295.471L107.923 294.495L93.2809 282.951L26.8431 283.076L34.6064 300.416Z" fill="white"/>
<path d="M167.559 296.038C198.159 294.105 240.645 288.192 271.552 272.145L272.004 271.71C276.557 267.214 278.588 264.354 279.913 262.375C280.568 261.398 281.042 260.689 281.583 260.163C282.3 259.469 283.493 258.616 284.306 258.074C279.427 258.733 260.49 260.337 231.772 259.936C215.979 259.717 181.645 261.31 141.059 265.193C84.5655 270.603 46.5319 277.695 26.8374 283.133L91.2387 284.409L107.025 296.352C108.399 296.445 135.146 298.091 167.559 296.038Z" fill="#FF0000"/>
<path d="M141.028 245.481C140.735 244.95 140.499 244.554 140.312 244.255C140.218 244.107 140.134 243.981 140.063 243.875C139.702 243.358 139.591 243.359 139.523 243.36L139.332 243.485C139.245 243.658 139.15 243.846 139.037 244.04C138.962 244.169 138.883 244.305 138.799 244.44C138.755 244.508 138.713 244.578 138.669 244.646C137.494 246.446 135.511 248.583 134.262 248.31C133.666 248.178 133.298 247.802 133.131 247.153C133.109 247.079 133.096 246.998 133.082 246.918C133.07 246.834 133.056 246.751 133.053 246.66C132.889 244.332 134.848 239.696 137.539 236.685C137.955 236.223 138.387 235.799 138.83 235.427C139.078 235.222 139.358 235.008 139.655 234.83C140.135 234.542 140.659 234.327 141.151 234.333C141.337 234.336 141.518 234.369 141.695 234.44C141.974 234.553 142.165 234.754 142.276 235.053C142.35 235.255 142.384 235.484 142.392 235.729C142.439 237.469 141.02 240.169 141.001 240.199L140.896 240.4L143.4 241.007L141.028 245.481ZM141.012 236.872C140.994 236.606 140.919 236.389 140.759 236.247C140.73 236.217 140.696 236.191 140.657 236.166C140.561 236.11 140.453 236.082 140.336 236.086C140.254 236.091 140.169 236.111 140.07 236.15C139.414 236.406 138.493 237.444 137.579 238.769L137.534 238.721L137.488 238.673L136.698 240.132C136.303 240.782 135.929 241.456 135.597 242.107C135.042 243.198 134.607 244.234 134.393 245.003C134.275 245.441 134.229 245.796 134.253 246.063C134.259 246.131 134.273 246.191 134.286 246.248C134.33 246.417 134.416 246.539 134.542 246.615C134.598 246.645 134.659 246.66 134.726 246.66C135.485 246.631 137.834 243.645 138.803 242.191C138.838 242.135 138.871 242.085 138.903 242.035C138.964 241.936 139.022 241.847 139.065 241.769C139.115 241.69 139.15 241.624 139.173 241.568C139.202 241.52 139.235 241.462 139.279 241.389C139.323 241.32 139.367 241.238 139.419 241.146C139.984 240.153 141.084 238.043 141.012 236.872Z" fill="black"/>
<path d="M156.172 221.789C155.137 221.449 151.578 221.546 150.509 221.585C150.357 221.591 150.233 221.595 150.143 221.597L148.678 231.377L148.062 231.611L147.449 231.846L140.848 245.626L140.565 249.481L141.764 252.391L145.535 252.356C145.711 250.071 146.737 241.884 146.762 241.835C147.496 240.484 152.292 239.055 153.204 238.823C153.235 238.813 153.26 238.807 153.281 238.803C153.375 238.773 153.474 238.742 153.574 238.713C153.825 238.639 154.091 238.567 154.375 238.49C154.485 238.461 154.601 238.428 154.717 238.401C155.09 238.303 155.484 238.21 155.889 238.117C155.986 238.094 156.08 238.073 156.179 238.051C156.365 238.008 156.55 237.965 156.741 237.924C159.711 237.268 163.138 236.598 164.114 236.432C161.487 230.777 157.038 222.083 156.172 221.789Z" fill="#3FA9F5"/>
<path d="M137.619 239.333C137.48 239.532 137.348 239.737 137.215 239.944L136.533 241.21L138.286 241.506L138.237 241.693C138.237 241.698 138.21 241.818 138.217 241.971C138.221 242.06 138.24 242.158 138.284 242.252C138.517 241.903 138.7 241.609 138.791 241.408C138.958 241.13 139.128 240.831 139.296 240.518C139.268 240.541 139.24 240.563 139.206 240.57C139.194 240.574 139.181 240.578 139.162 240.579C139.037 240.587 138.717 240.482 137.619 239.333Z" fill="black"/>
<path d="M139.28 241.393C139.238 241.463 139.204 241.523 139.174 241.572C139.152 241.627 139.116 241.693 139.067 241.772C139.021 241.853 138.965 241.939 138.905 242.038C138.873 242.087 138.839 242.141 138.804 242.194C137.838 243.646 135.488 246.635 134.727 246.662C134.663 246.665 134.597 246.65 134.546 246.617C134.415 246.542 134.333 246.42 134.288 246.251C134.272 246.194 134.261 246.132 134.255 246.066C134.23 245.799 134.281 245.448 134.396 245.004C134.608 244.233 135.044 243.198 135.602 242.111C135.931 241.458 136.311 240.782 136.701 240.133L137.491 238.676L137.536 238.725L137.583 238.773C138.496 237.451 139.416 236.409 140.075 236.154C140.169 236.116 140.257 236.094 140.34 236.09C140.461 236.086 140.566 236.115 140.66 236.173C140.698 236.197 140.733 236.221 140.763 236.251C140.922 236.394 140.998 236.612 141.015 236.877C141.084 238.046 139.986 240.158 139.418 241.153C139.366 241.241 139.321 241.323 139.28 241.393ZM134.72 245.097C134.467 246.033 134.598 246.256 134.649 246.299C135.255 246.165 137.013 244.05 138.056 242.571C137.846 242.322 137.829 241.997 137.849 241.797L136.273 241.531C135.576 242.803 134.992 244.09 134.72 245.097ZM137.213 239.946L136.53 241.211L138.282 241.511L138.236 241.695C138.234 241.697 138.207 241.822 138.215 241.973C138.219 242.061 138.241 242.16 138.281 242.255C138.514 241.905 138.697 241.61 138.788 241.412C138.954 241.131 139.125 240.833 139.293 240.52C139.266 240.543 139.237 240.562 139.202 240.572C139.19 240.575 139.179 240.579 139.159 240.58C139.034 240.589 138.715 240.486 137.61 239.339C137.481 239.533 137.347 239.735 137.213 239.946ZM140.464 236.475C140.436 236.455 140.394 236.446 140.348 236.448C139.834 236.467 138.846 237.556 137.821 239.029C138.304 239.528 138.842 240.035 139.073 240.18C139.193 239.993 139.429 239.91 139.628 239.88C140.395 238.348 140.965 236.772 140.464 236.475Z" fill="black"/>
<path d="M254.21 257.807C261.558 257.39 280.412 258.246 284.938 255.12C284.59 255.063 284.198 254.752 283.711 254.76C283.711 254.76 258.545 250.619 240.644 248.805C239.499 248.692 238.455 248.623 237.539 248.547C225.719 247.553 172.855 246.386 172.318 246.374L172.224 246.371L172.169 246.292C172.002 246.043 168.142 240.185 167.689 239.431C167.47 239.066 167.448 238.562 167.426 238.029C167.4 237.41 167.373 236.77 167.005 236.466C166.668 236.185 165.935 236.051 164.932 236.087C164.579 236.101 164.324 236.133 164.322 236.133L164.191 236.148L164.17 236.105C162.978 236.309 156.474 237.435 153.376 238.402C151.613 238.841 146.97 240.231 146.636 241.289C146.208 242.642 145.261 251.506 145.247 251.587L145.25 252.199L141.791 252.323L140.588 249.42L132.618 250.336L119.712 251.938L119.641 251.537C120.517 251.345 120.702 251.038 120.777 249.839C120.798 249.466 120.519 248.941 120.009 248.417C119.181 247.566 117.683 246.649 116.366 246.657C115.927 246.659 115.172 246.628 114.217 246.595C112.281 246.525 109.636 246.428 107.472 246.505C105.119 246.59 104.292 246.851 104.015 247.058C103.64 247.338 103.455 247.632 103.456 247.929C103.462 248.446 104.022 248.853 104.027 248.857L104.391 249.116L100.505 249.641L100.452 251.496L81.7338 253.177L80.6437 255.309L58.5078 256.155L48.2461 258.985L48.4366 270.52L42.7757 272.788L42.7448 272.801L28.8858 273.054L25.791 275.051L26.1501 280.604C50.8163 274.959 101.525 266.344 151.011 262.256C217.081 256.784 246.863 258.224 254.21 257.807Z" fill="white"/>
<path d="M284.939 255.12C279.9 257.055 261.858 256.912 254.511 257.331C247.163 257.748 217.496 256.148 151.428 261.608C101.942 265.699 50.9179 274.928 26.1609 280.578L26.1619 280.595L26.0243 280.654C24.62 281.59 23.887 282.201 23.8361 282.522C23.8182 282.611 23.8531 282.672 23.9418 282.782C23.9797 282.831 24.0096 282.875 24.0366 282.927C24.1144 283.012 24.7018 283.15 26.3454 283.113L27.2061 282.907C46.8627 278.156 82.4319 271.333 140.279 265.795C180.877 261.91 214.999 260.392 230.807 260.611C261.362 261.038 281.081 258.539 284.305 258.076C285.025 257.47 285.281 257.267 285.307 257.255C286.098 256.997 286.571 256.521 286.492 256.065C286.428 255.695 285.972 255.287 284.939 255.12Z" fill="white"/>
<path d="M103.377 249.279C103.377 249.279 101.419 247.205 104.83 246.383C107.33 245.781 114.751 246.278 116.752 246.311C118.755 246.343 121.087 249.033 120.934 250.286C120.803 251.354 120.627 252.528 118.767 252.009C116.907 251.491 117.135 250.117 116.092 250.037C115.05 249.956 104.264 249.381 103.377 249.279Z" fill="#C99B59"/>
<path d="M199.102 256.071V254.101C199.102 252.833 198.05 251.929 196.748 251.929H196.614C195.313 251.929 194.262 252.834 194.262 254.101V256.016C192.446 256.668 191.024 258.415 191.024 260.183H202.339C202.339 258.416 200.917 256.76 199.102 256.071ZM196.68 254.63C196.198 254.63 195.806 254.247 195.806 253.776C195.806 253.305 196.198 252.924 196.68 252.924C197.164 252.924 197.556 253.306 197.556 253.776C197.556 254.247 197.165 254.63 196.68 254.63Z" fill="#283C8E"/>
<path d="M194.26 283.021V284.541C194.26 285.81 195.312 286.714 196.613 286.714H196.747C198.051 286.714 199.101 285.81 199.101 284.541V282.893C200.917 282.212 202.141 280.818 202.316 279.049H191.038C191.201 280.82 192.444 282.415 194.26 283.021ZM196.68 283.625C197.164 283.625 197.556 284.005 197.556 284.475C197.556 284.948 197.164 285.327 196.68 285.327C196.198 285.327 195.806 284.948 195.806 284.475C195.806 284.008 196.198 283.625 196.68 283.625Z" fill="#283C8E"/>
<path d="M202.13 260.185H191.234V278.574C191.234 278.708 191.029 279.052 191.042 279.052H202.322C202.334 279.052 202.132 278.706 202.132 278.574L202.13 260.185Z" fill="#CCCCCE"/>
<path d="M101.038 256.071V254.101C101.038 252.833 99.9862 251.929 98.6847 251.929H98.5501C97.2476 251.929 96.1964 252.834 96.1964 254.101V256.016C94.3802 256.668 92.959 258.415 92.959 260.183H104.275C104.275 258.416 102.855 256.76 101.038 256.071ZM98.6169 254.63C98.1332 254.63 97.7422 254.247 97.7422 253.776C97.7422 253.305 98.1332 252.924 98.6169 252.924C99.1016 252.924 99.4926 253.306 99.4926 253.776C99.4926 254.247 99.1006 254.63 98.6169 254.63Z" fill="#283C8E"/>
<path d="M96.1955 283.021V284.541C96.1955 285.81 97.2467 286.714 98.5492 286.714H98.6838C99.9874 286.714 101.038 285.81 101.038 284.541V282.893C102.854 282.212 104.077 280.818 104.253 279.049H92.9771C93.1366 280.82 94.3793 282.415 96.1955 283.021ZM98.617 283.625C99.1007 283.625 99.4917 284.005 99.4917 284.475C99.4917 284.948 99.1007 285.327 98.617 285.327C98.1323 285.327 97.7413 284.948 97.7413 284.475C97.7413 284.008 98.1333 283.625 98.617 283.625Z" fill="#283C8E"/>
<path d="M104.065 260.185H93.1695V278.574C93.1695 278.708 92.966 279.052 92.977 279.052H104.254C104.267 279.052 104.065 278.706 104.065 278.574V260.185Z" fill="#CCCCCE"/>
<path d="M124.349 252.281C124.349 252.281 123.032 250.791 123.322 249.037C123.61 247.283 124.012 246.388 125.118 246.079C126.222 245.77 127.721 245.629 128.028 245.781C128.337 245.933 132.063 247.372 132.913 247.661C133.764 247.947 136.088 249.445 136.136 250.136C136.188 250.827 136.32 251.047 136.608 251.722C136.897 252.396 137.335 255.441 137.335 255.441L131.711 256.044C131.711 256.044 131.774 253.906 131.358 253.761C130.944 253.615 125.454 253.071 125.079 252.867C124.713 252.664 124.349 252.281 124.349 252.281Z" fill="#996234"/>
<path d="M103.534 243.745C103.534 243.745 103.238 241.033 103.119 241.033C103 241.033 107.019 240.803 107.974 240.108C109.159 239.25 115.671 239.3 115.671 239.3L119.993 243.167L124.982 246.819C124.982 246.819 123.546 251.411 122.834 251.411C122.5 251.411 118.945 248.273 115.729 248.182C112.147 248.082 111.882 250.085 112.71 254.411C112.867 255.229 105.309 250.317 105.309 250.317C105.309 250.317 103.883 249.275 103.529 247.432C103.178 245.59 103.534 243.745 103.534 243.745Z" fill="#EF45B7"/>
<path d="M112.119 215.947C112.297 216.004 113.598 214.447 113.54 213.93C113.479 213.41 112.95 213.063 112.829 213.063C112.711 213.063 111.467 211.623 112.119 210.989C112.77 210.355 110.699 207.761 111.467 206.491C112.237 205.222 113.184 203.261 114.961 202.568C116.738 201.877 117.862 201.3 118.75 201.992C119.638 202.682 121.77 204.645 121.829 205.393C121.888 206.143 122.244 207.584 121.829 209.144C121.414 210.701 121.414 210.932 121.355 212.605C121.297 214.275 120.527 215.318 119.993 215.95C119.461 216.583 119.698 217.448 118.691 217.678C117.685 217.907 118.928 219.465 118.453 220.043C117.98 220.617 112.414 219.176 112.533 216.928C112.589 215.867 112.119 215.947 112.119 215.947Z" fill="#996234"/>
<path d="M112.296 213.698C112.296 213.698 111.29 213.698 111.408 212.888C111.525 212.08 111.743 210.697 111.398 210.351C111.052 210.004 109.986 209.371 110.342 208.391C110.698 207.41 111.111 206.833 110.874 205.91C110.637 204.988 110.874 204.238 111.644 203.776C112.413 203.317 113.013 203.43 113.898 203.026C114.783 202.624 115.494 201.642 116.499 201.469C117.503 201.296 118.688 200.604 119.519 201.469C120.349 202.334 120.939 202.334 121.177 202.909C121.414 203.485 121.119 202.852 121.473 204.236C121.827 205.621 122.539 205.909 122.065 206.662C121.592 207.411 121.176 206.026 120.763 205.97C120.347 205.912 120.584 205.278 119.46 205.97C118.334 206.662 118.75 206.431 117.091 206.084C115.433 205.738 114.541 204.817 114.04 206.488C113.538 208.163 113.828 207.873 114.04 209.2C114.25 210.526 114.04 211.102 114.04 211.102C114.04 211.102 113.95 210.467 113.302 210.583C112.65 210.7 112.532 210.814 112.592 211.507C112.65 212.197 113.006 213.006 112.887 213.236C112.767 213.467 112.296 213.698 112.296 213.698Z" fill="#301705"/>
<path d="M120.468 226.845C120.468 226.845 124.374 233.073 125.382 233.65C126.388 234.226 127.175 235.305 127.945 235.479C128.714 235.65 133.464 236.893 135.535 236.779C137.609 236.664 137.965 236.053 138.734 236.788C139.504 237.526 139.859 238.046 140.154 237.468C140.45 236.894 140.272 236.778 140.154 235.912C140.035 235.045 140.154 234.584 140.984 234.47C141.813 234.356 143.082 235.279 142.741 234.239C142.404 233.203 142.523 232.741 141.161 232.854C139.798 232.969 139.562 233.954 138.614 234.067C137.667 234.18 137.253 234.18 135.595 233.953C133.937 233.722 129.19 231.314 128.253 230.955C127.738 230.757 127.331 229.602 126.985 228.773C126.533 227.688 124.669 225.346 124.669 225.346" fill="#996234"/>
<path d="M103.119 230.016C103.356 226.789 104.54 221.653 106.553 219.407C108.567 217.156 109.158 217.215 110.638 216.58C112.118 215.946 112.888 216.118 112.888 216.118C112.888 216.118 112.965 218.427 114.171 218.831C115.374 219.233 118.217 219.986 118.395 219.523C118.573 219.061 118.158 218.767 118.513 218.366C118.869 217.965 119.46 216.869 119.875 217.099C120.29 217.328 122.363 218.136 122.598 219.174C122.835 220.213 123.072 221.597 123.664 222.403C124.257 223.212 124.612 224.478 124.612 224.478C124.612 224.478 124.79 224.938 124.968 225.459C125.145 225.977 123.428 225.919 122.304 228.054C121.178 230.186 119.935 226.843 119.935 226.843C119.935 226.843 121.298 225.977 120.054 227.824C120.054 227.824 118.159 230.648 118.04 231.052C117.922 231.457 117.448 232.494 117.508 233.533C117.568 234.575 118.159 235.666 118.04 236.762C117.921 237.858 118.064 238.836 116.66 239.357C115.259 239.875 113.719 239.762 112.001 239.933C110.282 240.105 108.166 240.016 107.383 240.682C106.598 241.353 105.843 240.798 104.895 241.029C103.948 241.261 103.889 241.837 103.119 241.029C102.349 240.222 103.571 237.685 103.374 237.108C103.179 236.531 102.664 235.262 102.862 233.357C103.061 231.459 103.119 230.016 103.119 230.016Z" fill="#8BC7E8"/>
<path d="M109.963 233.909C109.963 233.909 111.22 237.929 111.925 238.692C112.629 239.457 113.753 241.229 114.35 241.916C114.951 242.602 120.251 247.898 120.887 248.354C121.525 248.816 124.6 251.447 124.6 251.447L128.954 250.96C128.954 250.96 126.069 247.949 124.651 246.479C123.231 245.008 118.537 239.35 118.272 238.834C118.003 238.319 116.476 236.771 116.066 236.058C115.651 235.343 115.585 233.867 115.243 232.522C114.9 231.175 114.31 229.435 114.31 229.435C114.31 229.435 108.838 228.793 108.669 230.054C108.501 231.317 109.963 233.909 109.963 233.909Z" fill="#996234"/>
<path d="M112.829 254.356C112.829 254.356 111.625 252.777 112.039 251.048C112.453 249.319 112.923 248.454 114.048 248.222C115.172 247.993 116.676 247.954 116.974 248.127C117.269 248.3 120.882 249.993 121.71 250.338C122.54 250.685 124.747 252.338 124.747 253.03C124.747 253.721 124.866 253.951 125.102 254.643C125.34 255.333 125.635 257.297 125.635 257.297L119.948 257.884C119.948 257.884 120.124 256.491 119.716 256.316C119.312 256.144 113.874 255.217 113.518 254.99C113.163 254.76 112.829 254.356 112.829 254.356Z" fill="#996234"/>
<path d="M359.985 183.83L358.909 182.524C358.909 182.524 356.216 181.4 356.101 181.452C355.988 181.504 355.823 182.234 355.733 182.252C355.643 182.269 355.131 183.35 354.977 183.379C354.825 183.408 354.143 185.872 354.143 185.872L353.054 187.509C353.054 187.509 353.054 187.509 352.977 187.433C352.898 187.357 350.937 186.759 350.936 186.759C349.265 185.779 347.468 184.725 346.483 184.143C345.855 183.694 344.71 182.829 344.484 182.71C344.174 182.548 343.524 182.248 343.35 181.94C343.176 181.633 342.657 180.537 342.526 180.378C342.395 180.22 342.297 179.733 342.116 179.511C341.932 179.289 341.578 178.586 341.584 178.412C341.589 178.238 341.555 178.133 341.473 177.937C341.391 177.74 341.318 177.457 341.318 177.457L341.309 176.733C341.309 176.733 341.33 176.677 341.095 176.711C340.862 176.744 340.506 177.142 340.458 177.513C340.409 177.885 340.447 178.367 340.527 178.65C340.607 178.933 340.832 179.131 340.832 179.289C340.834 179.449 340.763 179.92 340.763 179.92C340.763 179.92 340.279 180.028 339.98 180.04C339.682 180.053 338.088 180.103 337.83 180.685C337.574 181.266 337.892 181.48 337.981 181.479C338.07 181.476 337.713 181.751 337.782 182.073C337.852 182.395 337.934 182.575 338.032 182.63C338.131 182.685 337.821 182.929 337.863 183.091C337.904 183.256 338.091 183.734 338.193 183.732C338.298 183.73 338.443 183.758 338.443 183.758C338.443 183.758 338.378 183.942 338.413 184.032C338.448 184.122 338.527 184.619 338.641 184.676C338.753 184.733 338.905 184.776 339.013 184.846C339.12 184.917 339.457 185.085 339.582 185.084C339.709 185.083 341.321 185.318 342.053 185.178C342.138 185.162 342.621 185.401 342.621 185.401C342.621 185.401 343.396 185.915 344.096 186.354C345.308 187.2 347.701 188.845 352.138 192.149C352.189 192.188 352.605 192.52 352.605 192.52L353.349 192.802C353.349 192.802 353.895 192.727 354.008 192.676C354.123 192.623 354.437 192.319 354.503 192.185C354.568 192.05 355.253 191.737 355.753 191.306C356.254 190.874 357.92 189.187 358.23 188.702C358.541 188.216 360.699 183.966 360.976 183.639C361.253 183.313 359.985 183.83 359.985 183.83Z" fill="#F9DBBD"/>
<path d="M357.687 159.5C358.093 159.236 359.443 158.71 360.007 158.929C360.569 159.149 364.13 158.754 364.849 160.07C365.571 161.387 366.2 162.637 365.435 164.239C364.669 165.841 363.971 166.477 363.725 167.618C363.476 168.759 363.815 170.975 363.815 170.975L359.49 173.081C359.49 173.081 358.747 172.972 358.477 172.664C358.207 172.356 357.553 172.006 357.553 171.479C357.553 170.952 357.599 170.447 357.284 170.206C356.967 169.965 355.322 170.25 354.915 169.46C354.51 168.67 354.556 168.167 354.735 167.31C354.915 166.454 355.01 165.862 354.605 165.554C354.195 165.247 353.814 165.028 354.084 164.633C354.354 164.238 355.637 163.581 355.888 163.053C356.134 162.528 355.797 162.396 355.996 161.869C356.2 161.343 357.687 159.5 357.687 159.5Z" fill="#F9DBBD"/>
<path d="M357.26 159.544C357.26 159.609 358.231 159.258 358.77 159.544C359.311 159.828 360.167 159.697 359.897 160.926C359.627 162.154 359.718 163.273 359.764 163.339C359.809 163.405 359.652 163.865 359.695 163.953C359.741 164.042 360.28 164.457 360.393 164.435C360.505 164.414 361.181 163.647 361.181 163.647C361.181 163.647 361.7 163.47 362.216 163.515C362.736 163.558 363.299 163.339 363.323 164.085C363.345 164.831 363.456 164.919 363.187 165.226C362.917 165.534 362.128 166.148 362.333 166.236C362.535 166.323 362.895 166.344 363.008 166.588C363.119 166.829 363.503 167.662 363.479 167.882C363.457 168.102 363.3 168.606 363.481 168.606C363.659 168.606 364.493 169.089 364.584 169.045C364.674 169.001 364.833 167.97 365.078 167.706C365.328 167.443 367.128 165.635 367.241 164.752C367.353 163.867 367.288 163.604 367.06 162.989C366.834 162.375 366.949 161.651 366.409 160.795C365.869 159.941 364.313 158.579 363.616 158.317C362.917 158.053 361.906 158.82 361.296 158.799C360.688 158.778 360.756 158.251 360.012 158.031C359.268 157.811 358.233 157.614 357.94 157.921C357.649 158.228 356.771 158.491 356.928 158.886C357.08 159.28 357.26 159.544 357.26 159.544Z" fill="#5B4838"/>
<path d="M364.21 248.141H368.29C368.29 248.141 368.449 251.725 368.53 251.92C368.61 252.114 364.651 252.582 364.53 252.621C364.41 252.66 364.21 248.141 364.21 248.141Z" fill="#F9DBBD"/>
<path d="M366.989 198.18C366.989 198.18 369.243 202.744 368.791 205.639C368.343 208.536 367.621 209.151 367.621 211.609C367.621 214.067 368.343 224.069 367.621 225.825C366.9 227.581 366.09 227.405 367.171 228.721C368.253 230.036 369.042 233.196 368.872 234.161C368.703 235.128 368.473 236.532 369.264 238.989C369.37 244.011 371.262 244.445 369.912 247.517C368.561 250.588 367.113 250.722 364.77 249.582C362.426 248.44 361.978 246.965 362.253 245.647C362.524 244.333 362.126 239.076 361.766 237.934C361.405 236.794 361.538 235.653 361.336 233.371C361.133 231.089 359.603 232.229 358.655 229.773C357.71 227.316 357.982 226.262 358.251 225.56C358.521 224.858 357.801 222.051 357.261 219.24C356.72 216.432 355.819 215.995 355.819 212.833C355.819 209.674 354.469 211.343 354.195 208.269C353.926 205.198 353.475 204.934 354.195 203.267C354.918 201.6 355.458 199.32 355.458 199.32C355.458 199.32 360.768 197.037 361.403 197.213C362.034 197.39 366.989 198.18 366.989 198.18Z" fill="#2A2866"/>
<path d="M356.065 180.322C356.183 178.616 358.86 175.187 358.542 174.3C358.224 173.414 359.628 171.882 361.208 170.972C362.475 170.412 364.137 168.657 364.33 170.406C364.694 171.914 366.692 173.147 367.512 175.098C368.331 177.05 369.241 183.79 369.151 185.564C369.061 187.338 369.437 193.37 369.158 195.32C368.878 197.272 367.694 198.602 366.693 198.868C365.692 199.135 361.047 198.336 359.59 198.868C358.133 199.401 356.677 200.021 355.312 199.401C353.945 198.78 353.717 197.946 353.899 196.438C354.082 194.931 353.864 193.351 354.319 192.553C354.774 191.756 355.766 183.525 355.857 183.259C355.948 182.992 356.065 180.322 356.065 180.322Z" fill="#EDEDED"/>
<path d="M365.77 189.907C365.77 189.82 365.589 183.274 365.589 183.274C365.589 183.274 364.27 182.573 364.179 182.456C364.089 182.339 361.034 182.456 361.034 182.456C361.034 182.456 360.76 187.774 360.778 187.842C360.797 187.91 360.969 190.608 361.013 190.695C361.058 190.783 361.013 192.477 361.013 192.477L360.819 195.224L360.804 195.221C360.804 195.221 360.794 195.441 360.778 195.808V195.811C360.684 197.962 360.363 205.311 360.349 205.4C360.334 205.504 360.017 206.723 359.92 206.967C359.822 207.21 359.664 207.384 359.432 207.508C359.204 207.635 358.843 208.226 358.762 208.417C358.68 208.61 358.174 209.029 358.013 209.213C357.85 209.397 357.523 210.604 357.463 210.816C357.403 211.026 356.959 211.624 356.903 211.767C356.848 211.914 356.633 212.266 357.132 212.316C358.127 212.409 358.707 210.556 358.808 210.545C358.909 210.531 359.152 210.239 359.109 210.39C359.067 210.535 359.219 211.042 359.291 211.091C359.36 211.138 359.234 211.772 359.37 212.231C359.22 212.714 359.361 215.484 359.518 215.715C359.672 215.945 359.856 215.981 360.062 215.82C360.266 215.659 360.194 213.903 360.194 213.903C360.194 213.903 360.383 212.78 360.41 212.869C360.441 212.957 360.307 213.891 360.293 213.999C360.278 214.102 360.364 214.676 360.326 214.883C360.288 215.087 360.287 215.976 360.358 216.304C360.429 216.634 360.796 216.61 360.987 216.473C361.178 216.336 361.099 215.588 361.126 215.5C361.149 215.411 361.222 215.158 361.225 214.948C361.23 214.743 361.231 214.196 361.231 214.196C361.231 214.196 361.362 213.378 361.418 212.998C361.389 213.465 361.384 214.644 361.35 214.806C361.309 214.995 361.295 215.439 361.271 215.768C361.25 216.099 361.696 216.125 361.876 215.931C362.054 215.738 361.969 215.257 362.117 214.732C362.266 214.207 362.233 213.927 362.294 213.716C362.355 213.502 362.429 212.406 362.429 212.406C362.429 212.406 362.529 213.341 362.531 213.469C362.532 213.57 362.44 214.277 362.422 214.434C362.406 214.591 362.37 214.778 362.756 214.765C363.215 214.7 363.292 212.917 363.345 212.677C363.4 212.435 363.443 212.258 363.392 211.584C363.765 210.016 363.232 207.949 363.127 207.734C363.021 207.518 363.102 207.133 363.146 206.877C363.146 206.877 363.034 207.416 364.882 195.764H364.88C364.894 195.699 364.9 195.641 364.882 195.603C364.805 195.429 365.409 192.564 365.44 192.273C365.467 191.982 365.77 189.994 365.77 189.907Z" fill="#F9DBBD"/>
<path d="M360.48 176.646C360.55 175.752 365.345 172.66 366.068 177.65C366.563 180.856 365.976 181.334 365.854 184.041C365.774 185.832 359.24 183.815 359.092 182.623C358.946 181.43 360.478 176.667 360.48 176.646Z" fill="#EFEFEF"/>
<path d="M-7.16702 376.914C-7.33856 376.914 -7.5121 376.885 -7.68265 376.822C-8.45858 376.538 -8.85652 375.678 -8.57227 374.902L42.5055 235.672C42.7818 234.337 44.0743 229.101 47.4284 228.193C49.1947 227.716 51.0009 228.504 52.8001 230.539C54.9404 232.959 56.4344 233.698 57.5255 234.238C59.7336 235.33 60.6481 236.224 60.8027 240.741C60.8626 242.474 60.7798 243.966 60.713 245.167C60.5025 248.971 60.4686 249.572 64.0481 250.464C66.2213 250.843 70.0441 252.935 69.3809 258.262C68.6947 263.771 67.464 266.815 67.4111 266.941C67.0969 267.707 66.2233 268.071 65.4583 267.757C64.6944 267.444 64.3293 266.571 64.6425 265.806C64.6694 265.738 65.7854 262.926 66.4118 257.891C66.8716 254.199 64.062 253.506 63.4936 253.403C63.4616 253.398 63.4158 253.388 63.3848 253.381C57.343 251.887 57.5115 248.848 57.7259 245.001C57.7928 243.802 57.8676 242.444 57.8127 240.845C57.704 237.665 57.5025 237.567 56.199 236.92C54.9593 236.308 53.0863 235.38 50.559 232.521C49.6185 231.458 48.7638 230.93 48.2113 231.082C47.0135 231.405 45.8187 234.363 45.4168 236.375C45.4018 236.449 45.3799 236.525 45.3539 236.598L-5.76277 375.934C-5.98418 376.539 -6.55665 376.914 -7.16702 376.914Z" fill="#753C15"/>
<path d="M63.7469 231.153C63.8856 231.54 63.9863 233.626 63.9863 233.626L65.5661 236.178C65.5661 236.178 66.1675 237.532 66.2922 238.819C66.4168 240.105 68.8583 246.682 68.9531 247.674C69.0408 248.567 70.2306 254.155 70.46 255.226V255.229C70.479 255.321 70.49 255.376 70.4969 255.397C70.6116 255.954 70.9657 257.773 70.6725 258.073C70.3244 258.429 70.102 258.625 70.0691 259.33C70.0362 260.037 69.8377 260.569 69.6861 261.169C69.5345 261.762 68.1941 263.452 69.0179 263.765C69.8377 264.076 71.1881 264.225 72.2582 264.301C73.3304 264.372 74.5571 264.301 74.5571 264.301L76.5378 263.763L76.471 262.959C76.471 262.959 76.3942 261.694 76.471 261.358C76.5468 261.019 76.0392 259.068 75.8347 258.707C75.74 258.542 75.6861 257.579 75.6532 256.599C75.711 255.19 75.6582 252.838 75.357 249.188C74.7875 242.247 73.457 239.074 73.1189 237.707C72.7828 236.338 72.0249 231.895 71.0794 230.582C70.1329 229.272 69.4068 224.943 69.4068 224.943C69.4068 224.943 63.6123 230.77 63.7469 231.153Z" fill="#FFCBA1"/>
<path d="M61.2327 218.122C61.2327 218.122 59.2869 222.842 59.1024 223.21C58.9189 223.575 56.5641 228.073 55.7134 229.199C54.8617 230.325 54.6323 232.181 54.5964 232.446C54.5615 232.713 55.136 234.581 55.2885 234.917C55.4391 235.25 54.0259 237.039 53.604 237.256C53.1792 237.471 51.6951 236.122 51.0678 235.394C50.4355 234.664 50.6778 233.943 50.6479 233.422C50.622 232.899 51.8747 231.477 52.2357 230.481C52.5977 229.483 54.0479 224.286 54.2872 223.74C54.5276 223.193 55.876 218.177 55.9039 217.912L61.2327 218.122Z" fill="#FFCBA1"/>
<path d="M66.2544 231.292C66.2544 231.292 67.5799 229.965 67.3585 230.951C67.2109 231.61 62.4945 239.192 61.8272 239.414C61.4981 239.523 61.2568 239.58 61.2568 239.58C61.2568 239.58 60.9695 241.121 61.6727 242.382C62.3758 243.645 61.8133 253.536 61.3415 254.124C60.8678 254.716 62.1673 259.465 62.1673 259.465C62.1324 259.566 63.433 263.781 63.0829 264.297C62.7328 264.808 62.1195 265.042 60.783 265.087C59.4466 265.134 58.4562 265.203 57.1457 265.145C55.8332 265.092 50.9981 265.975 49.551 265.845C48.1028 265.717 48.1926 265.707 48.2355 265.208C48.2774 264.708 48.9955 263.799 49.2787 263.744C49.5629 263.685 51.0939 263.254 52.176 262.448C53.2591 261.639 55.4094 260.662 55.4094 260.662L56.3857 259.609C56.3857 259.609 56.4346 257.26 56.296 255.005C56.1554 252.75 55.9419 250.317 55.7834 249.483C55.6238 248.645 55.3784 244.516 55.153 242.98C54.9266 241.446 54.8598 239.149 54.8119 237.842C54.7621 236.534 58.3246 229.343 58.3246 229.343L66.2544 231.292Z" fill="#FFCBA1"/>
<path d="M47.2468 215.739C47.2468 215.739 50.2208 221.842 50.4822 223.215C50.7415 224.589 51.4795 225.569 51.9672 227.729C52.4529 229.892 50.0453 232.079 50.0174 232.433C49.9885 232.784 49.3811 233.54 48.9851 233.665C48.5892 233.788 48.2401 235.654 47.2169 236.127C46.1906 236.598 46.1078 235.852 45.7348 235.1C45.3618 234.348 45.652 233.009 45.677 232.657C45.7009 232.305 46.1996 230.339 45.9333 229.228C45.666 228.116 45.4326 225.168 45.0197 224.506C44.6078 223.846 42.9482 220.503 42.9482 220.503L47.2468 215.739Z" fill="#FFCBA1"/>
<path d="M43.4251 205.429C43.432 205.349 44.0654 206.101 44.0654 206.101C44.0654 206.101 45.8556 209.839 45.6611 210.464C45.4686 211.089 44.1282 213.026 44.1282 213.026C44.1282 213.026 43.3443 212.47 43.077 212.388C42.8087 212.305 42.5105 211.941 42.3898 211.891C42.2691 211.842 41.7326 211.812 41.7326 211.812L40.7961 212.392L41.0304 213.242C41.0304 213.242 41.3037 214.389 41.3077 214.602C41.3107 214.816 41.1033 215.372 41.0115 215.461C40.9148 215.55 39.5574 216.026 39.3509 216.007C39.1455 215.993 38.4942 216.036 38.3556 215.973C38.215 215.911 37.5657 216.17 37.5657 216.17C37.5657 216.17 37.436 216.354 37.2336 216.641C37.0311 216.929 36.9503 216.845 36.8017 216.835C36.6531 216.825 35.8363 216.338 35.5271 216.161C35.2199 215.985 34.9457 215.891 34.6993 215.756C34.455 215.621 34.3792 215.904 34.1987 216.026C34.0221 216.147 33.8426 216.178 33.6132 216.024C33.3838 215.867 31.81 215.9 31.4929 215.869C31.1747 215.838 29.6318 214.949 29.3516 214.735C29.0713 214.517 27.8476 212.216 27.71 211.49C27.5693 210.763 28.6884 208.046 28.7123 207.878C28.7342 207.714 30.4566 205.85 30.4786 205.776C30.4985 205.7 33.6102 205.287 34.0162 205.196C34.4211 205.104 36.3021 205.86 36.8446 206.012C37.3892 206.165 38.2828 206.392 38.4234 206.364C38.566 206.336 39.9414 206.269 40.3762 206.228C40.808 206.186 43.3193 205.554 43.4161 205.507" fill="#FFCBA1"/>
<path d="M59.6469 218.27C59.1312 218.581 58.0362 221.912 58.0042 223.577C57.9723 225.24 57.2632 225.045 57.9544 227.338C57.4727 229.638 57.4727 230.878 57.4727 230.878C57.4727 230.878 59.4175 232.2 60.7749 232.774C62.1342 233.346 70.088 232.179 70.1409 231.909C70.1937 231.64 70.3932 230.209 70.3932 230.209C70.3932 230.209 70.6296 230.169 71.3646 230.277C72.0967 230.383 74.3646 229.564 74.3646 229.564C74.3646 229.564 75.4477 224.85 75.5375 224.058C75.6282 223.261 78.2901 217.164 78.3201 214.715C78.351 212.267 77.0445 210.816 75.8876 209.349C74.7257 207.88 71.2808 205.927 70.7971 205.884C70.7981 205.885 60.1595 217.958 59.6469 218.27Z" fill="#32417F"/>
<path d="M71.6936 206.411C71.3934 206.968 67.5875 211.247 67.1667 211.895C66.7458 212.546 65.6776 215.614 65.6776 215.614C65.6776 215.614 62.1401 218.909 62.0792 219.263C62.0194 219.617 59.5051 219.499 58.8947 219.207C58.2863 218.912 54.6949 219.853 52.77 219.945C50.8432 220.034 47.8781 217.074 48.2621 217.475C48.645 217.875 44.1859 221.694 44.1859 221.694C44.1859 221.694 43.3113 221.775 42.5812 221.404C41.8522 221.036 40.7511 221.572 40.7511 221.572L40.1008 219.711C40.1008 219.711 38.8412 212.666 38.9938 212.126C39.1454 211.59 39.657 208.133 39.7069 206.294C39.7587 204.455 42.0546 203.284 49.3053 200.257C56.5549 197.233 71.6587 205.191 71.9589 205.25C71.9589 205.253 71.9918 205.862 71.6936 206.411Z" fill="#FFFEF8"/>
<path d="M34.5646 205.186C33.7398 204.741 33.1723 204.084 31.8438 204.23C30.5154 204.375 29.916 204.683 29.541 205.186C29.166 205.691 28.042 206.566 28.042 207.003C28.042 207.442 27.7717 208.375 28.042 208.684C28.3133 208.994 28.1736 209.268 27.6959 210.072C27.2182 210.877 27.7996 212.188 27.6959 212.994C27.5922 213.797 27.2002 215.183 27.6959 215.476C28.1916 215.767 28.7162 215.711 29.0912 215.739C29.4652 215.767 30.4406 216.351 30.4406 216.351C30.4406 216.351 31.3382 216.834 31.415 216.351C31.4928 215.87 31.4928 215.87 31.4928 215.87C31.4928 215.87 32.3465 215.11 31.8438 214.819C31.3402 214.526 31.3402 214.234 31.3402 213.65C31.3402 213.066 31.8438 211.971 31.8438 211.971C31.8438 211.971 31.5227 211.606 31.8438 211.606C32.165 211.606 32.4652 211.534 32.6896 211.534C32.914 211.534 32.3894 211.606 32.915 211.534C33.4396 211.461 33.5144 211.606 33.8894 211.389C34.2644 211.169 34.1896 211.609 34.2644 211.169C34.3392 210.731 34.1896 210.391 34.1896 210.391L34.5636 209.344C34.5636 209.344 34.8937 209.563 35.2837 209.13C35.6746 208.695 36.288 209.197 36.288 209.197C36.288 209.197 36.2611 209.197 36.6869 209.418C37.1128 209.636 37.1128 209.636 37.1128 209.636C37.1128 209.636 37.413 209.782 37.6374 209.782C37.8618 209.782 37.4878 210.074 37.8628 209.782C38.2378 209.49 39.0496 209.49 38.9808 209.052C38.912 208.614 38.6597 208.441 38.9848 208.07C39.3099 207.697 40.1866 207.786 39.662 207.141C39.1364 206.497 38.6637 206.383 38.6377 206.001C38.6118 205.619 38.912 204.669 38.0124 204.743C37.1128 204.818 37.1128 204.816 37.1128 204.816L34.5646 205.186Z" fill="#9E5A2D"/>
<g opacity="0.6">
<path opacity="0.6" d="M-3.54785 291.938L389.559 291.608L390.038 386.21H-3.54785V291.938Z" fill="#33EFFF"/>
</g>
<path d="M354.752 254C354.752 254 354.407 253.87 354.303 254.117C354.197 254.365 354.138 255.313 354.138 255.313C354.138 255.313 355.738 256.888 361.515 256.45C361.515 256.45 361.549 256.087 361.628 256.1C361.71 256.115 364.898 255.823 364.898 255.823C364.898 255.823 364.992 256.304 365.011 256.319C365.032 256.334 368.832 256.494 369.267 256.275C369.702 256.057 369.926 256.028 369.911 255.795C369.896 255.562 369.822 254.221 369.822 254.221C369.822 254.221 369.712 253.961 369.564 253.967C369.418 253.971 368.639 254.074 368.04 254.104C367.442 254.133 354.752 254 354.752 254Z" fill="#A08162"/>
<path d="M354.747 253.142C354.747 253.142 354.223 253.68 354.402 254.017C354.581 254.352 354.686 254.731 357.59 255.371C357.751 255.406 361.017 255.619 363.561 255.167C366.106 254.716 366.45 254.936 366.539 254.936C366.627 254.936 369.337 254.774 369.495 254.541C369.651 254.307 369.495 252.982 369.495 252.982C369.495 252.982 369.682 252.792 369.682 252.413C369.682 252.034 369.592 251.698 369.592 251.698C369.592 251.698 369.738 251.266 369.682 251.043C369.493 250.285 364.28 251.043 364.28 251.043C364.28 251.043 362.693 251.139 361.511 251.334C360.328 251.532 360.104 251.567 360.104 251.684C360.104 251.802 360.029 252.019 360.029 252.019C360.029 252.019 359.221 252.428 358.968 252.414C358.712 252.4 355.69 252.56 355.465 252.677C355.24 252.793 354.747 253.072 354.747 253.072" fill="#472117"/>
<path d="M360.33 252.594C360.268 252.594 360.201 252.583 360.133 252.557C359.963 252.492 359.76 252.325 359.752 251.895C359.743 251.399 359.737 251.016 359.982 250.766L360.128 250.618L360.352 250.594C360.423 250.557 360.502 250.534 360.586 250.527C360.635 250.444 360.697 250.379 360.755 250.33L360.857 250.241C361.079 250.044 361.312 249.84 361.619 249.883L361.889 249.967C362.076 249.794 362.351 249.778 362.708 249.909C362.855 249.964 362.991 250.004 363.11 250.04C363.364 250.115 363.583 250.182 363.757 250.333C364.179 250.619 364.295 250.914 364.168 251.259C364.227 251.689 363.932 251.873 363.714 251.949C363.476 252.211 363.137 252.173 362.86 252.136C362.777 252.124 362.716 252.123 362.669 252.129C362.602 252.246 362.5 252.324 362.401 252.366C362.136 252.473 361.905 252.378 361.69 252.207C361.604 252.371 361.449 252.48 361.268 252.501C361.114 252.523 360.958 252.475 360.805 252.366C360.7 252.468 360.537 252.594 360.33 252.594ZM362.803 251.128C362.858 251.131 362.918 251.136 362.984 251.144C363.025 251.149 363.06 251.153 363.089 251.156C363.106 251.142 363.124 251.129 363.143 251.116C363.129 251.105 363.117 251.095 363.104 251.084C363.078 251.07 362.932 251.026 362.825 250.995C362.782 250.981 362.735 250.968 362.687 250.953C362.697 250.969 362.707 250.982 362.715 250.994C362.75 251.037 362.779 251.083 362.803 251.128Z" fill="#E7C57A"/>
<rect x="315.137" y="15.709" width="38.9496" height="25" rx="12.5" fill="#969696" fill-opacity="0.3"/>
<path d="M325.394 27.2354L325.879 22.3818H330.856V23.1406H326.583L326.235 26.5039C326.768 26.1393 327.392 25.957 328.108 25.957C329.006 25.957 329.721 26.2487 330.254 26.832C330.788 27.4154 331.054 28.1924 331.054 29.1631C331.054 30.2113 330.794 31.0247 330.275 31.6035C329.755 32.1823 329.024 32.4717 328.081 32.4717C327.215 32.4717 326.513 32.2301 325.975 31.7471C325.437 31.264 325.13 30.5872 325.052 29.7168H325.838C325.916 30.3958 326.146 30.9108 326.529 31.2617C326.912 31.6081 327.429 31.7812 328.081 31.7812C328.792 31.7812 329.327 31.5557 329.687 31.1045C330.052 30.6533 330.234 30.0107 330.234 29.1768C330.234 28.4476 330.031 27.8529 329.625 27.3926C329.22 26.9323 328.666 26.7021 327.964 26.7021C327.577 26.7021 327.24 26.7523 326.953 26.8525C326.666 26.9482 326.362 27.1374 326.043 27.4199L325.394 27.2354ZM332.62 33.1895H331.875L336.031 22.3818H336.769L332.62 33.1895ZM342.997 22.3066V23.0244H342.901C341.711 23.0244 340.775 23.3753 340.091 24.0771C339.408 24.7744 339.029 25.7451 338.957 26.9893C339.23 26.611 339.579 26.3193 340.002 26.1143C340.426 25.9046 340.9 25.7998 341.424 25.7998C342.299 25.7998 342.994 26.1029 343.509 26.709C344.029 27.3105 344.289 28.099 344.289 29.0742C344.289 29.7214 344.168 30.3047 343.926 30.8242C343.685 31.3438 343.338 31.7493 342.887 32.041C342.436 32.3281 341.921 32.4717 341.342 32.4717C340.39 32.4717 339.615 32.1276 339.018 31.4395C338.421 30.7467 338.123 29.8535 338.123 28.7598V27.9395C338.123 26.1576 338.528 24.779 339.339 23.8037C340.151 22.8239 341.301 22.3249 342.792 22.3066H342.997ZM341.294 26.5039C340.775 26.5039 340.29 26.6589 339.838 26.9688C339.392 27.2741 339.093 27.6637 338.943 28.1377V28.835C338.943 29.7008 339.164 30.4072 339.606 30.9541C340.053 31.501 340.631 31.7744 341.342 31.7744C341.98 31.7744 342.495 31.5215 342.887 31.0156C343.284 30.5098 343.482 29.8717 343.482 29.1016C343.482 28.3177 343.284 27.6888 342.887 27.2148C342.495 26.7409 341.964 26.5039 341.294 26.5039Z" fill="black"/>
</g>
<defs>
<linearGradient id="paint0_linear" x1="191.263" y1="379.358" x2="191.263" y2="-3.67427" gradientUnits="userSpaceOnUse">
<stop stop-color="white"/>
<stop offset="1" stop-color="#4FC3F7"/>
</linearGradient>
<clipPath id="clip0">
<rect width="375" height="375" fill="white" transform="translate(0.136719 0.708984)"/>
</clipPath>
</defs>
</svg>
