<svg width="376" height="376" viewBox="0 0 376 376" fill="none" xmlns="http://www.w3.org/2000/svg">
<g clip-path="url(#clip0)">
<path d="M383.469 -14.5127H-10.2812V380.643H383.469V-14.5127Z" fill="#8BF6FF"/>
<path d="M380.187 339.394H-1.375V392.362H380.187V339.394Z" fill="#A0A0A0"/>
<path opacity="0.8" d="M267.859 217.988H268.156V221.902L277.828 215.261L268.156 208.62V212.363H267.859H158V217.988H267.859Z" fill="#DEFCFF"/>
<path opacity="0.8" d="M188.252 120.019C188.13 170.641 147.779 211.925 97.4748 213.362L97.5311 209.089L87.5073 215.729L97.2381 222.371L97.284 218.203C150.355 216.78 193.114 173.404 193.237 120.019H188.252Z" fill="white"/>
<path d="M38.2287 96.6787L59.4757 96.6787L59.868 71.5865C59.868 71.5865 61.8287 50.8041 48.8167 43.6787C36.2323 50.5216 37.6586 71.0787 37.6586 71.0787L38.2287 96.6787Z" fill="#E5E5E5" fill-opacity="0.6"/>
<path d="M48.8741 49.0743C48.8741 49.0743 58.0086 48.8596 58.3294 67.0028C58.6502 85.1465 57.3141 87.21 57.3141 87.21L40.2246 87.21L39.6882 81.4281L39.6882 65.8302C39.6882 65.8302 40.1098 49.626 48.8741 49.0743Z" fill="#E2E2E2" fill-opacity="0.9"/>
<path d="M48.8524 48.9634C41.7425 48.8298 39.4912 57.8235 38.9201 66.3178L39.1553 80.3917L39.5119 90.5504L45.0373 91.8201L45.9287 90.7712L51.8465 90.7971C51.8465 90.7971 52.5949 91.6796 52.7732 91.6796C53.7774 91.6796 58.1928 90.4802 58.1928 90.4802C58.1928 90.4802 58.3505 83.583 58.424 80.4789C58.4265 80.3733 58.8304 66.4927 58.8239 66.3183C58.5217 57.8399 56.5832 49.1089 48.8524 48.9634ZM58.1032 80.18C58.1384 80.4092 57.1941 89.8094 57.1941 89.8094C57.1941 89.8094 53.5009 90.4866 52.5531 90.4866C52.3844 90.4866 51.6778 89.6435 51.6778 89.6435L46.0914 89.6181L45.2503 90.6212L40.3323 89.8094L39.5124 80.1919C39.3935 71.8441 39.5587 71.7265 39.5124 66.3178C40.1616 58.0308 42.7211 49.2275 48.9475 49.3865C55.1347 49.5444 57.6419 58.1259 58.1928 66.3178C58.1883 66.6352 58.0317 80.0389 58.1032 80.18Z" fill="#CECECE"/>
<path d="M52.6201 67.2879L51.6783 66.1149L49.2573 65.6973L49.2573 65.783L48.87 65.783L48.8342 65.783L48.7536 65.783L48.7536 65.6973L46.1292 66.1149L44.9789 67.2879C44.3372 67.7468 44.2209 70.0565 44.2209 70.0565L44.2209 74.3426L44.647 75.2774L47.8007 74.7308L48.8528 73.0748L49.9034 74.7308L52.959 75.2774L53.2864 74.3426L53.2864 70.0565C53.2864 70.0565 53.2617 67.7463 52.6201 67.2879Z" fill="#BABABA" fill-opacity="0.4"/>
<path d="M53.0587 73.1833C53.0496 73.0513 51.7931 71.0824 51.7931 71.0824L46.1196 71.0156L44.724 73.0203L44.724 73.3024L44.724 73.4434L44.724 73.5844L44.724 75.2513L53.0582 75.2513C53.0587 75.2513 53.0673 73.3154 53.0587 73.1833Z" fill="#C6C6C6"/>
<path d="M52.1787 69.7695L49.2974 69.7695L48.198 69.7695L45.6017 69.7695C45.6017 69.7695 44.7692 70.6884 44.6337 73.5378C44.6332 73.5548 44.7828 73.4526 44.7828 73.4526C45.161 72.9264 46.0061 71.4538 46.0061 71.4538L48.7479 71.4125L51.7748 71.4155C51.7748 71.4155 52.6199 72.8287 52.9986 73.3549C52.9986 73.3549 53.1477 73.5572 53.1472 73.5413C53.0117 70.6919 52.1787 69.7695 52.1787 69.7695Z" fill="#29ABE2" fill-opacity="0.4"/>
<path d="M45.7324 74.5142C45.7324 75.6608 49.551 75.7441 49.551 74.5037C49.551 73.4144 45.7324 73.3123 45.7324 74.5142ZM46.0653 74.5022C46.0653 73.6825 49.2196 73.7523 49.2196 74.4948C49.2191 75.3394 46.0653 75.2836 46.0653 74.5022Z" fill="black" fill-opacity="0.4"/>
<path d="M47.1633 73.8739C47.1633 73.8739 47.1723 74.2306 47.6045 74.2267C48.0366 74.2232 47.9787 73.9053 47.9877 73.8739C47.9968 73.8435 47.1633 73.8739 47.1633 73.8739Z" fill="black" fill-opacity="0.4"/>
<path d="M47.4665 74.2539L47.3552 75.2505L47.9248 75.2505L47.7737 74.2539L47.4665 74.2539Z" fill="black" fill-opacity="0.4"/>
<path d="M47.8543 73.9804C47.8633 73.9804 49.2493 74.5804 49.2493 74.5804L49.3027 74.2276L47.8986 73.8135L47.8543 73.9804Z" fill="black" fill-opacity="0.4"/>
<path d="M47.2212 73.9804C47.2121 73.9804 45.7319 74.5804 45.7319 74.5804L45.7319 74.2276L47.1089 73.8135L47.2212 73.9804Z" fill="black" fill-opacity="0.4"/>
<path d="M58.1929 66.3175C58.1929 66.3175 53.5231 66.3524 52.4892 61.4499C51.4552 56.547 50.8488 49.8097 50.7778 49.6687C50.7063 49.5277 57.6938 51.2205 58.1929 66.3175Z" fill="#E8CDA0" fill-opacity="0.4"/>
<path d="M39.5119 66.3175C39.5119 66.3175 44.1821 66.3524 45.2156 61.4499C46.2491 56.547 46.8555 49.8097 46.9265 49.6687C46.9975 49.5277 40.011 51.2205 39.5119 66.3175Z" fill="#E8CDA0" fill-opacity="0.4"/>
<path d="M39.8679 85.5404C39.8679 85.5404 39.5265 84.4037 40.6526 84.7999C44.3599 86.1045 53.094 86.387 57.0158 84.7296C57.8373 84.3823 57.8242 84.5871 57.8 85.1353C57.7814 85.5459 57.1936 89.808 57.1936 89.808C57.1936 89.808 50.4917 92.3479 40.3318 89.808L39.8679 85.5404Z" fill="#E8CDA0" fill-opacity="0.4"/>
<path d="M53.2866 80.4944C53.2866 80.7301 52.9522 80.7321 52.6228 80.7321L45.101 80.7321C44.7711 80.7321 44.7248 80.7306 44.7248 80.4944L44.7248 78.0123C44.7248 77.7776 44.7711 77.7422 45.101 77.7422L52.6228 77.7422C52.9527 77.7422 53.2866 77.7781 53.2866 78.0123L53.2866 80.4944Z" fill="#E8CDA0" fill-opacity="0.4"/>
<path d="M34.4751 62.0814C34.4751 63.1096 35.3175 63.9431 36.3567 63.9431C37.3959 63.9431 38.2383 63.1096 38.2383 62.0814C38.2383 61.0532 37.3959 60.2197 36.3567 60.2197C35.3175 60.2197 34.4751 61.0532 34.4751 62.0814Z" fill="#3B59AD" fill-opacity="0.4"/>
<path d="M59.4907 62.0814C59.4907 63.1096 60.3331 63.9431 61.3723 63.9431C62.4115 63.9431 63.2539 63.1096 63.2539 62.0814C63.2539 61.0532 62.4115 60.2197 61.3723 60.2197C60.3331 60.2197 59.4907 61.0532 59.4907 62.0814Z" fill="#3B59AD" fill-opacity="0.4"/>
<path d="M59.4907 82.6713C59.4907 83.6995 60.3331 84.533 61.3723 84.533C62.4115 84.533 63.2539 83.6995 63.2539 82.6713C63.2539 81.6431 62.4115 80.8096 61.3723 80.8096C60.3331 80.8096 59.4907 81.6431 59.4907 82.6713Z" fill="#3B59AD" fill-opacity="0.4"/>
<path d="M34.2539 82.89C34.2539 83.9182 35.0963 84.7517 36.1355 84.7517C37.1747 84.7517 38.0171 83.9182 38.0171 82.89C38.0171 81.8618 37.1747 81.0283 36.1355 81.0283C35.0963 81.0283 34.2539 81.8618 34.2539 82.89Z" fill="#3B59AD" fill-opacity="0.4"/>
<path d="M100.278 96.6787L121.525 96.6787L121.918 71.5865C121.918 71.5865 123.878 50.8041 110.866 43.6787C98.2821 50.5216 99.7084 71.0787 99.7084 71.0787L100.278 96.6787Z" fill="#E5E5E5" fill-opacity="0.6"/>
<path d="M110.924 49.0743C110.924 49.0743 120.058 48.8596 120.379 67.0028C120.7 85.1465 119.364 87.21 119.364 87.21L102.274 87.21L101.738 81.4281L101.738 65.8302C101.738 65.8302 102.16 49.626 110.924 49.0743Z" fill="#E2E2E2" fill-opacity="0.9"/>
<path d="M110.902 48.9634C103.792 48.8298 101.541 57.8235 100.97 66.3178L101.205 80.3917L101.562 90.5504L107.087 91.8201L107.979 90.7712L113.896 90.7971C113.896 90.7971 114.645 91.6796 114.823 91.6796C115.827 91.6796 120.243 90.4802 120.243 90.4802C120.243 90.4802 120.4 83.583 120.474 80.4789C120.476 80.3733 120.88 66.4927 120.874 66.3183C120.572 57.8399 118.633 49.1089 110.902 48.9634ZM120.153 80.18C120.188 80.4092 119.244 89.8094 119.244 89.8094C119.244 89.8094 115.551 90.4866 114.603 90.4866C114.434 90.4866 113.728 89.6435 113.728 89.6435L108.141 89.6181L107.3 90.6212L102.382 89.8094L101.562 80.1919C101.443 71.8441 101.609 71.7265 101.562 66.3178C102.211 58.0308 104.771 49.2275 110.997 49.3865C117.185 49.5444 119.692 58.1259 120.243 66.3178C120.238 66.6352 120.081 80.0389 120.153 80.18Z" fill="#CECECE"/>
<path d="M114.67 67.2879L113.728 66.1149L111.307 65.6973L111.307 65.783L110.92 65.783L110.884 65.783L110.803 65.783L110.803 65.6973L108.179 66.1149L107.029 67.2879C106.387 67.7468 106.271 70.0565 106.271 70.0565L106.271 74.3426L106.697 75.2774L109.851 74.7308L110.903 73.0748L111.953 74.7308L115.009 75.2774L115.336 74.3426L115.336 70.0565C115.336 70.0565 115.312 67.7463 114.67 67.2879Z" fill="#BABABA" fill-opacity="0.4"/>
<path d="M115.109 73.1833C115.099 73.0513 113.843 71.0824 113.843 71.0824L108.169 71.0156L106.774 73.0203L106.774 73.3024L106.774 73.4434L106.774 73.5844L106.774 75.2513L115.108 75.2513C115.109 75.2513 115.117 73.3154 115.109 73.1833Z" fill="#C6C6C6"/>
<path d="M114.229 69.7695L111.347 69.7695L110.248 69.7695L107.652 69.7695C107.652 69.7695 106.819 70.6884 106.684 73.5378C106.683 73.5548 106.833 73.4526 106.833 73.4526C107.211 72.9264 108.056 71.4538 108.056 71.4538L110.798 71.4125L113.825 71.4155C113.825 71.4155 114.67 72.8287 115.048 73.3549C115.048 73.3549 115.198 73.5572 115.197 73.5413C115.062 70.6919 114.229 69.7695 114.229 69.7695Z" fill="#29ABE2" fill-opacity="0.4"/>
<path d="M107.782 74.5142C107.782 75.6608 111.601 75.7441 111.601 74.5037C111.601 73.4144 107.782 73.3123 107.782 74.5142ZM108.115 74.5022C108.115 73.6825 111.269 73.7523 111.269 74.4948C111.269 75.3394 108.115 75.2836 108.115 74.5022Z" fill="black" fill-opacity="0.4"/>
<path d="M109.213 73.8739C109.213 73.8739 109.222 74.2306 109.654 74.2267C110.086 74.2232 110.028 73.9053 110.038 73.8739C110.047 73.8435 109.213 73.8739 109.213 73.8739Z" fill="black" fill-opacity="0.4"/>
<path d="M109.516 74.2539L109.405 75.2505L109.975 75.2505L109.824 74.2539L109.516 74.2539Z" fill="black" fill-opacity="0.4"/>
<path d="M109.904 73.9804C109.913 73.9804 111.299 74.5804 111.299 74.5804L111.353 74.2276L109.948 73.8135L109.904 73.9804Z" fill="black" fill-opacity="0.4"/>
<path d="M109.271 73.9804C109.262 73.9804 107.782 74.5804 107.782 74.5804L107.782 74.2276L109.159 73.8135L109.271 73.9804Z" fill="black" fill-opacity="0.4"/>
<path d="M120.243 66.3175C120.243 66.3175 115.573 66.3524 114.539 61.4499C113.505 56.547 112.899 49.8097 112.828 49.6687C112.756 49.5277 119.744 51.2205 120.243 66.3175Z" fill="#E8CDA0" fill-opacity="0.4"/>
<path d="M101.562 66.3175C101.562 66.3175 106.232 66.3524 107.265 61.4499C108.299 56.547 108.905 49.8097 108.976 49.6687C109.047 49.5277 102.061 51.2205 101.562 66.3175Z" fill="#E8CDA0" fill-opacity="0.4"/>
<path d="M101.918 85.5404C101.918 85.5404 101.576 84.4037 102.702 84.7999C106.41 86.1045 115.144 86.387 119.066 84.7296C119.887 84.3823 119.874 84.5871 119.85 85.1353C119.831 85.5459 119.243 89.808 119.243 89.808C119.243 89.808 112.541 92.3479 102.382 89.808L101.918 85.5404Z" fill="#E8CDA0" fill-opacity="0.4"/>
<path d="M115.336 80.4944C115.336 80.7301 115.002 80.7321 114.673 80.7321L107.151 80.7321C106.821 80.7321 106.775 80.7306 106.775 80.4944L106.775 78.0123C106.775 77.7776 106.821 77.7422 107.151 77.7422L114.673 77.7422C115.003 77.7422 115.336 77.7781 115.336 78.0123L115.336 80.4944Z" fill="#E8CDA0" fill-opacity="0.4"/>
<path d="M96.5249 62.0814C96.5249 63.1096 97.3673 63.9431 98.4065 63.9431C99.4457 63.9431 100.288 63.1096 100.288 62.0814C100.288 61.0532 99.4457 60.2197 98.4065 60.2197C97.3673 60.2197 96.5249 61.0532 96.5249 62.0814Z" fill="#3B59AD" fill-opacity="0.4"/>
<path d="M121.541 62.0814C121.541 63.1096 122.383 63.9431 123.422 63.9431C124.461 63.9431 125.304 63.1096 125.304 62.0814C125.304 61.0532 124.461 60.2197 123.422 60.2197C122.383 60.2197 121.541 61.0532 121.541 62.0814Z" fill="#3B59AD" fill-opacity="0.4"/>
<path d="M121.541 82.6713C121.541 83.6995 122.383 84.533 123.422 84.533C124.461 84.533 125.304 83.6995 125.304 82.6713C125.304 81.6431 124.461 80.8096 123.422 80.8096C122.383 80.8096 121.541 81.6431 121.541 82.6713Z" fill="#3B59AD" fill-opacity="0.4"/>
<path d="M96.3037 82.89C96.3037 83.9182 97.1461 84.7517 98.1853 84.7517C99.2245 84.7517 100.067 83.9182 100.067 82.89C100.067 81.8618 99.2245 81.0283 98.1853 81.0283C97.1461 81.0283 96.3037 81.8618 96.3037 82.89Z" fill="#3B59AD" fill-opacity="0.4"/>
<path d="M304.092 -20.7939H-4.93652V30.7686H304.092V-20.7939Z" fill="#A0A0A0"/>
<path d="M282.379 96.6787L303.626 96.6787L304.018 71.5865C304.018 71.5865 305.979 50.8041 292.967 43.6787C280.382 50.5216 281.808 71.0787 281.808 71.0787L282.379 96.6787Z" fill="#E5E5E5" fill-opacity="0.6"/>
<path d="M293.024 49.0743C293.024 49.0743 302.158 48.8596 302.479 67.0028C302.8 85.1465 301.464 87.21 301.464 87.21L284.375 87.21L283.838 81.4281L283.838 65.8302C283.838 65.8302 284.26 49.626 293.024 49.0743Z" fill="#E2E2E2" fill-opacity="0.9"/>
<path d="M293.002 48.9634C285.892 48.8298 283.641 57.8235 283.07 66.3178L283.305 80.3917L283.662 90.5504L289.187 91.8201L290.079 90.7712L295.996 90.7971C295.996 90.7971 296.745 91.6796 296.923 91.6796C297.927 91.6796 302.343 90.4802 302.343 90.4802C302.343 90.4802 302.5 83.583 302.574 80.4789C302.576 80.3733 302.98 66.4927 302.974 66.3183C302.672 57.8399 300.733 49.1089 293.002 48.9634ZM302.253 80.18C302.288 80.4092 301.344 89.8094 301.344 89.8094C301.344 89.8094 297.651 90.4866 296.703 90.4866C296.534 90.4866 295.828 89.6435 295.828 89.6435L290.241 89.6181L289.4 90.6212L284.482 89.8094L283.662 80.1919C283.543 71.8441 283.709 71.7265 283.662 66.3178C284.311 58.0308 286.871 49.2275 293.097 49.3865C299.285 49.5444 301.792 58.1259 302.343 66.3178C302.338 66.6352 302.182 80.0389 302.253 80.18Z" fill="#CECECE"/>
<path d="M296.77 67.2879L295.828 66.1149L293.407 65.6973L293.407 65.783L293.02 65.783L292.984 65.783L292.904 65.783L292.904 65.6973L290.279 66.1149L289.129 67.2879C288.487 67.7468 288.371 70.0565 288.371 70.0565L288.371 74.3426L288.797 75.2774L291.951 74.7308L293.003 73.0748L294.053 74.7308L297.109 75.2774L297.436 74.3426L297.436 70.0565C297.436 70.0565 297.412 67.7463 296.77 67.2879Z" fill="#BABABA" fill-opacity="0.4"/>
<path d="M297.209 73.1833C297.2 73.0513 295.943 71.0824 295.943 71.0824L290.269 71.0156L288.874 73.0203L288.874 73.3024L288.874 73.4434L288.874 73.5844L288.874 75.2513L297.208 75.2513C297.209 75.2513 297.217 73.3154 297.209 73.1833Z" fill="#C6C6C6"/>
<path d="M296.329 69.7695L293.447 69.7695L292.348 69.7695L289.752 69.7695C289.752 69.7695 288.919 70.6884 288.784 73.5378C288.783 73.5548 288.933 73.4526 288.933 73.4526C289.311 72.9264 290.156 71.4538 290.156 71.4538L292.898 71.4125L295.925 71.4155C295.925 71.4155 296.77 72.8287 297.149 73.3549C297.149 73.3549 297.298 73.5572 297.297 73.5413C297.162 70.6919 296.329 69.7695 296.329 69.7695Z" fill="#29ABE2" fill-opacity="0.4"/>
<path d="M289.882 74.5142C289.882 75.6608 293.701 75.7441 293.701 74.5037C293.701 73.4144 289.882 73.3123 289.882 74.5142ZM290.215 74.5022C290.215 73.6825 293.37 73.7523 293.37 74.4948C293.369 75.3394 290.215 75.2836 290.215 74.5022Z" fill="black" fill-opacity="0.4"/>
<path d="M291.313 73.8739C291.313 73.8739 291.322 74.2306 291.754 74.2267C292.186 74.2232 292.129 73.9053 292.138 73.8739C292.147 73.8435 291.313 73.8739 291.313 73.8739Z" fill="black" fill-opacity="0.4"/>
<path d="M291.616 74.2539L291.505 75.2505L292.075 75.2505L291.924 74.2539L291.616 74.2539Z" fill="black" fill-opacity="0.4"/>
<path d="M292.004 73.9804C292.013 73.9804 293.399 74.5804 293.399 74.5804L293.453 74.2276L292.048 73.8135L292.004 73.9804Z" fill="black" fill-opacity="0.4"/>
<path d="M291.371 73.9804C291.362 73.9804 289.882 74.5804 289.882 74.5804L289.882 74.2276L291.259 73.8135L291.371 73.9804Z" fill="black" fill-opacity="0.4"/>
<path d="M302.343 66.3175C302.343 66.3175 297.673 66.3524 296.639 61.4499C295.605 56.547 294.999 49.8097 294.928 49.6687C294.856 49.5277 301.844 51.2205 302.343 66.3175Z" fill="#E8CDA0" fill-opacity="0.4"/>
<path d="M283.662 66.3175C283.662 66.3175 288.332 66.3524 289.366 61.4499C290.399 56.547 291.005 49.8097 291.076 49.6687C291.147 49.5277 284.161 51.2205 283.662 66.3175Z" fill="#E8CDA0" fill-opacity="0.4"/>
<path d="M284.018 85.5404C284.018 85.5404 283.676 84.4037 284.802 84.7999C288.51 86.1045 297.244 86.387 301.166 84.7296C301.987 84.3823 301.974 84.5871 301.95 85.1353C301.931 85.5459 301.344 89.808 301.344 89.808C301.344 89.808 294.642 92.3479 284.482 89.808L284.018 85.5404Z" fill="#E8CDA0" fill-opacity="0.4"/>
<path d="M297.437 80.4944C297.437 80.7301 297.102 80.7321 296.773 80.7321L289.251 80.7321C288.921 80.7321 288.875 80.7306 288.875 80.4944L288.875 78.0123C288.875 77.7776 288.921 77.7422 289.251 77.7422L296.773 77.7422C297.103 77.7422 297.437 77.7781 297.437 78.0123L297.437 80.4944Z" fill="#E8CDA0" fill-opacity="0.4"/>
<path d="M278.625 62.0814C278.625 63.1096 279.467 63.9431 280.507 63.9431C281.546 63.9431 282.388 63.1096 282.388 62.0814C282.388 61.0532 281.546 60.2197 280.507 60.2197C279.467 60.2197 278.625 61.0532 278.625 62.0814Z" fill="#3B59AD" fill-opacity="0.4"/>
<path d="M303.641 62.0814C303.641 63.1096 304.483 63.9431 305.522 63.9431C306.561 63.9431 307.404 63.1096 307.404 62.0814C307.404 61.0532 306.561 60.2197 305.522 60.2197C304.483 60.2197 303.641 61.0532 303.641 62.0814Z" fill="#3B59AD" fill-opacity="0.4"/>
<path d="M303.641 82.6713C303.641 83.6995 304.483 84.533 305.522 84.533C306.561 84.533 307.404 83.6995 307.404 82.6713C307.404 81.6431 306.561 80.8096 305.522 80.8096C304.483 80.8096 303.641 81.6431 303.641 82.6713Z" fill="#3B59AD" fill-opacity="0.4"/>
<path d="M278.404 82.89C278.404 83.9182 279.246 84.7517 280.285 84.7517C281.325 84.7517 282.167 83.9182 282.167 82.89C282.167 81.8618 281.325 81.0283 280.285 81.0283C279.246 81.0283 278.404 81.8618 278.404 82.89Z" fill="#3B59AD" fill-opacity="0.4"/>
<path opacity="0.8" d="M98.9041 191.025C91.8729 191.981 85.4946 196.376 79.6113 197.521C73.728 198.668 69.0696 197.139 62.0004 198.477C54.933 199.814 50.6918 204.591 45.7235 205.928C40.7561 207.265 31.6708 207.689 28.0839 210.629C24.4971 213.57 25.8785 216.344 25.8785 216.344C25.8785 216.344 25.294 218.728 28.0727 221.005C31.6596 223.946 40.7276 224.37 45.6972 225.707C50.6646 227.045 54.8702 231.821 61.9394 233.159C69.0091 234.496 73.729 232.967 79.6123 234.114C85.4955 235.26 91.8729 239.655 98.9041 240.61V191.025Z" fill="url(#paint0_linear)"/>
<path d="M13.4984 230.343L13.4984 201.808L46.9412 201.282C46.9412 201.282 74.6615 198.648 84.1772 216.124C75.0378 233.024 47.6364 231.109 47.6364 231.109L13.4984 230.343Z" fill="#D1D1D1"/>
<path d="M76.9369 216.223C76.9369 216.223 77.4048 203.867 53.1751 203.437C28.9441 203.005 26.3691 204.71 26.3691 204.71L26.3691 227.662L33.7283 228.736L54.5598 228.736C54.5604 228.737 76.2009 227.994 76.9369 216.223Z" fill="#F4F4F4"/>
<path d="M77.0867 216.076C77.2643 225.624 65.2547 228.648 53.9098 229.414L35.1142 229.099L21.5472 228.619L19.853 221.199L21.2531 220.001L21.2173 212.054C21.2173 212.054 20.0405 211.048 20.0405 210.809C20.0405 209.46 21.6425 203.531 21.6425 203.531C21.6425 203.531 30.8537 203.319 34.9991 203.22C35.1396 203.217 53.6771 202.675 53.9111 202.683C65.2324 203.09 76.8917 205.692 77.0867 216.076ZM35.3971 203.652C35.0901 203.603 22.5376 204.872 22.5376 204.872C22.5376 204.872 21.6338 209.832 21.6338 211.104C21.6338 211.332 22.7585 212.28 22.7585 212.28L22.7932 219.783L21.4537 220.914L22.5369 227.518L35.3822 228.619C46.5308 228.778 46.6875 228.555 53.9111 228.619C64.978 227.746 76.7345 224.309 76.5222 215.947C76.3105 207.637 64.8499 204.27 53.9111 203.53C53.4852 203.536 35.5853 203.748 35.3971 203.652Z" fill="#E8E8E8"/>
<path d="M54.7534 215.973L54.8667 215.968L54.3096 219.774L52.7429 221.327C52.1314 222.19 49.0451 222.355 49.0451 222.355L43.3219 222.355L42.0728 221.753L42.8032 217.501L45.164 215.947L47.125 215.973L54.7534 215.973Z" fill="white"/>
<path d="M54.7528 216.051L54.8667 215.968L54.3096 212.382L52.7429 210.858C52.1314 209.997 49.0451 209.86 49.0451 209.86L43.3219 209.86L42.0728 210.404L42.8032 214.626L45.164 216.127L47.1262 216.055L54.7528 216.051Z" fill="white"/>
<path d="M44.7861 210.426C44.9625 210.439 47.5697 212.126 47.5697 212.126L47.6489 219.793L44.96 221.716L44.5831 221.716L44.3943 221.716L44.2055 221.716L42.0681 221.716L42.0681 210.425C42.0681 210.426 44.6084 210.414 44.7861 210.426Z" fill="#C6C6C6"/>
<path d="M9.30959 211.946C8.7525 211.949 8.30187 212.41 8.30558 212.977L8.33652 218.95C8.34024 219.516 8.79457 219.973 9.35228 219.971L18.3797 219.922C18.9367 219.919 19.3867 219.457 19.3843 218.889L19.3515 212.918C19.349 212.352 18.8946 211.895 18.3369 211.897L9.30959 211.946Z" fill="#394963"/>
<path d="M49.9165 211.606L49.9165 215.476L49.9165 216.953L49.9165 220.44C49.9165 220.44 48.382 221.557 44.5765 221.739C44.5536 221.741 44.5363 221.541 44.5363 221.541C45.2401 221.032 47.1286 219.897 47.1286 219.897L47.1466 216.214L47.123 212.149C47.123 212.149 45.2264 211.014 44.5233 210.506C44.5233 210.506 44.5555 210.306 44.5777 210.307C48.3808 210.489 49.9165 211.606 49.9165 211.606Z" fill="#29ABE2"/>
<path d="M42.9621 220.265C41.4307 220.265 41.3205 215.137 42.9757 215.137C44.4309 215.136 44.5678 220.265 42.9621 220.265ZM42.9794 219.819C44.0744 219.819 43.9803 215.583 42.9899 215.583C41.8602 215.582 41.9358 219.819 42.9794 219.819Z" fill="black"/>
<path d="M43.8173 218.343C43.8173 218.343 43.3401 218.33 43.3456 217.751C43.3518 217.17 43.7752 217.249 43.8173 217.236C43.8587 217.224 43.8173 218.343 43.8173 218.343Z" fill="black"/>
<path d="M43.3225 217.936L42.0678 218.086L42.0678 217.32L43.3225 217.524L43.3225 217.936Z" fill="black"/>
<path d="M43.6757 217.416C43.6757 217.404 42.8754 215.543 42.8754 215.543L43.3458 215.471L43.9004 217.356L43.6757 217.416Z" fill="black"/>
<path d="M43.6757 218.195C43.6757 218.206 42.8754 220.121 42.8754 220.121L43.3458 220.121L43.9004 218.307L43.6757 218.195Z" fill="black"/>
<path d="M53.9097 203.531C53.9097 203.531 53.8627 209.804 60.4104 211.193C66.958 212.58 75.9557 213.395 76.1444 213.49C76.3326 213.585 74.0714 204.201 53.9097 203.531Z" fill="#D79056"/>
<path d="M53.9097 228.619C53.9097 228.619 53.8627 222.346 60.4104 220.958C66.958 219.569 75.9557 218.755 76.1444 218.66C76.3326 218.565 74.0714 227.949 53.9097 228.619Z" fill="#D79056"/>
<path d="M28.2356 228.141C28.2356 228.141 29.754 228.599 29.2254 227.088C27.4829 222.109 27.1053 210.378 29.3189 205.112C29.7831 204.009 29.5089 204.025 28.7772 204.059C28.2276 204.083 22.5359 204.872 22.5359 204.872C22.5359 204.872 19.1444 213.874 22.5359 227.518L28.2356 228.141Z" fill="#D79056"/>
<path d="M34.9759 210.23C34.6615 210.23 34.5321 210.569 34.5321 211.012L34.5321 221.114C34.5321 221.556 34.6615 222.036 34.9759 222.036L38.29 222.036C38.6051 222.036 38.927 221.556 38.927 221.114L38.927 211.012C38.927 210.568 38.6045 210.23 38.29 210.23L34.9759 210.23Z" fill="#B5A081"/>
<path d="M41.1997 219.982C41.1997 219.982 41.8917 219.417 40.7905 219.153C39.69 218.89 38.5876 218.376 38.5876 218.376C38.5876 218.376 38.9311 217.172 39.2548 217.008C39.5773 216.844 41.0549 216.982 41.425 215.938C41.7964 214.895 42.0298 214.424 40.4773 214.869C38.9261 215.314 37.8318 215.477 37.8318 215.477L36.8816 219.816L40.9571 219.982" fill="#996234"/>
<path d="M37.0922 219.435C37.0922 219.435 39.6059 221.016 39.5211 220.172C39.4363 219.328 38.9021 219.766 38.847 218.695C38.7919 217.623 39.6579 217.769 39.2153 216.454C38.7721 215.139 38.9832 214.648 38.2788 214.868C37.5744 215.089 37.0922 215.14 37.0922 215.14L37.0922 219.435Z" fill="#EF45B7"/>
<path d="M37.272 220.692C37.272 220.692 39.1122 220.765 39.587 220.814C40.4771 220.908 42.3229 220.139 42.6615 220.139C42.9989 220.139 43.3517 220.085 42.8515 219.631C42.3514 219.177 40.6721 219.623 39.8315 219.816C38.9921 220.01 37.9677 219.455 37.6978 219.435C37.4267 219.413 37.816 219.982 37.816 219.982L37.272 220.692Z" fill="#996234"/>
<path d="M37.1565 214.818C37.1565 214.818 39.1125 214.23 39.5885 214.181C40.4786 214.087 42.3244 214.856 42.663 214.856C43.0003 214.856 43.3532 214.911 42.853 215.365C42.3529 215.818 40.6735 215.372 39.833 215.18C38.9936 214.986 38.054 215.918 37.7835 215.939C37.5124 215.96 37.8176 215.014 37.8176 215.014L37.1565 214.818Z" fill="#996234"/>
<path d="M37.2723 221.521C37.2723 221.521 34.9956 221.17 34.5339 219.739C34.0721 218.305 33.9124 217.81 34.4602 216.524C35.008 215.237 34.7053 214.555 35.8486 214.652C36.9907 214.749 37.5824 213.972 37.7613 215.086C37.9544 216.287 38.1704 219.515 38.1971 219.739C38.3555 221.107 37.2723 221.521 37.2723 221.521Z" fill="#8BC7E8"/>
<path d="M34.5338 218.028C34.5338 218.028 34.6594 219.327 35.7148 219.134C36.7702 218.938 37.1558 219.509 37.4851 218.591C37.815 217.672 38.6965 217.215 37.815 216.811C36.9342 216.406 36.4669 216.113 35.8473 216.406C35.2277 216.698 35.076 216.636 34.6836 217.008C34.2924 217.38 34.5338 218.028 34.5338 218.028Z" fill="#301705"/>
<path opacity="0.8" d="M265.002 240.261C271.811 239.304 278.341 234.902 284.255 233.754C290.169 232.606 294.782 234.137 301.887 232.798C308.993 231.458 313.22 226.673 318.213 225.334C323.205 223.994 332.321 223.57 335.926 220.624C339.532 217.677 338.134 214.9 338.134 214.9C338.134 214.9 338.717 212.513 335.924 210.232C332.319 207.287 323.202 206.862 318.209 205.522C313.217 204.182 308.985 199.399 301.879 198.058C294.773 196.719 290.167 198.251 284.253 197.102C278.34 195.954 271.809 191.553 265 190.595L265.002 240.261Z" fill="url(#paint1_linear)"/>
<path d="M296.498 229.445L296.498 201.47L329.941 200.954C329.941 200.954 357.662 198.372 367.177 215.505C358.038 232.074 330.636 230.197 330.636 230.197L296.498 229.445Z" fill="#D1D1D1"/>
<path d="M359.937 215.602C359.937 215.602 360.405 203.488 336.175 203.066C311.944 202.643 309.369 204.315 309.369 204.315L309.369 226.817L316.728 227.87L337.56 227.87C337.56 227.871 359.201 227.142 359.937 215.602Z" fill="#F4F4F4"/>
<path d="M360.087 215.457C360.264 224.819 348.255 227.783 336.91 228.534L318.114 228.225L304.547 227.755L302.853 220.48L304.253 219.306L304.217 211.514C304.217 211.514 303.041 210.529 303.041 210.294C303.041 208.971 304.643 203.158 304.643 203.158C304.643 203.158 313.854 202.95 317.999 202.854C318.14 202.851 336.677 202.319 336.911 202.327C348.232 202.726 359.892 205.277 360.087 215.457ZM318.397 203.277C318.09 203.23 305.538 204.473 305.538 204.473C305.538 204.473 304.634 209.336 304.634 210.584C304.634 210.806 305.759 211.736 305.759 211.736L305.793 219.092L304.454 220.2L305.537 226.675L318.382 227.755C329.531 227.911 329.687 227.692 336.911 227.755C347.978 226.898 359.734 223.529 359.522 215.331C359.31 207.184 347.85 203.883 336.911 203.158C336.485 203.164 318.585 203.371 318.397 203.277Z" fill="#E8E8E8"/>
<path d="M337.753 215.357L337.867 215.352L337.31 219.084L335.743 220.606C335.131 221.452 332.045 221.614 332.045 221.614L326.322 221.614L325.073 221.023L325.803 216.855L328.164 215.332L330.125 215.357L337.753 215.357Z" fill="white"/>
<path d="M337.753 215.433L337.867 215.352L337.31 211.837L335.743 210.342C335.131 209.498 332.045 209.364 332.045 209.364L326.322 209.364L325.073 209.897L325.803 214.036L328.164 215.508L330.126 215.437L337.753 215.433Z" fill="white"/>
<path d="M327.786 209.919C327.963 209.932 330.57 211.585 330.57 211.585L330.649 219.102L327.96 220.987L327.583 220.987L327.394 220.987L327.205 220.987L325.068 220.987L325.068 209.918C325.068 209.919 327.608 209.908 327.786 209.919Z" fill="#C6C6C6"/>
<path d="M292.31 211.409C291.752 211.412 291.302 211.864 291.306 212.42L291.337 218.276C291.34 218.83 291.795 219.279 292.352 219.276L301.38 219.228C301.937 219.226 302.387 218.772 302.384 218.216L302.351 212.362C302.349 211.807 301.895 211.359 301.337 211.361L292.31 211.409Z" fill="#394963"/>
<path d="M332.917 211.076L332.917 214.87L332.917 216.318L332.917 219.737C332.917 219.737 331.382 220.832 327.577 221.011C327.554 221.012 327.536 220.816 327.536 220.816C328.24 220.317 330.129 219.204 330.129 219.204L330.147 215.594L330.123 211.609C330.123 211.609 328.226 210.495 327.523 209.998C327.523 209.998 327.555 209.801 327.578 209.803C331.381 209.982 332.917 211.076 332.917 211.076Z" fill="#29ABE2"/>
<path d="M325.962 219.564C324.431 219.564 324.32 214.537 325.976 214.537C327.431 214.537 327.568 219.564 325.962 219.564ZM325.979 219.127C327.074 219.127 326.98 214.974 325.99 214.974C324.86 214.974 324.936 219.127 325.979 219.127Z" fill="black"/>
<path d="M326.817 217.681C326.817 217.681 326.34 217.668 326.346 217.1C326.352 216.531 326.775 216.608 326.817 216.596C326.859 216.583 326.817 217.681 326.817 217.681Z" fill="black"/>
<path d="M326.323 217.282L325.068 217.429L325.068 216.677L326.323 216.878L326.323 217.282Z" fill="black"/>
<path d="M326.676 216.771C326.676 216.76 325.875 214.935 325.875 214.935L326.346 214.864L326.9 216.713L326.676 216.771Z" fill="black"/>
<path d="M326.676 217.535C326.676 217.546 325.875 219.424 325.875 219.424L326.346 219.424L326.9 217.646L326.676 217.535Z" fill="black"/>
<path d="M336.91 203.159C336.91 203.159 336.863 209.308 343.41 210.67C349.958 212.031 358.956 212.829 359.144 212.922C359.333 213.015 357.071 203.816 336.91 203.159Z" fill="#D79056"/>
<path d="M336.91 227.755C336.91 227.755 336.863 221.605 343.41 220.244C349.958 218.883 358.956 218.084 359.144 217.991C359.333 217.898 357.071 227.098 336.91 227.755Z" fill="#D79056"/>
<path d="M311.236 227.285C311.236 227.285 312.754 227.735 312.225 226.254C310.483 221.372 310.105 209.871 312.319 204.708C312.783 203.627 312.509 203.643 311.777 203.676C311.228 203.7 305.536 204.473 305.536 204.473C305.536 204.473 302.144 213.299 305.536 226.675L311.236 227.285Z" fill="#D79056"/>
<path d="M317.976 209.726C317.661 209.726 317.532 210.058 317.532 210.493L317.532 220.397C317.532 220.83 317.661 221.301 317.976 221.301L321.29 221.301C321.605 221.301 321.927 220.83 321.927 220.397L321.927 210.493C321.927 210.058 321.604 209.726 321.29 209.726L317.976 209.726Z" fill="#B5A081"/>
<path d="M324.2 219.287C324.2 219.287 324.892 218.733 323.791 218.474C322.69 218.216 321.588 217.712 321.588 217.712C321.588 217.712 321.931 216.532 322.255 216.371C322.577 216.21 324.055 216.345 324.425 215.322C324.796 214.299 325.03 213.837 323.477 214.274C321.926 214.711 320.832 214.87 320.832 214.87L319.882 219.124L323.957 219.287" fill="#996234"/>
<path d="M320.092 218.75C320.092 218.75 322.606 220.3 322.521 219.473C322.436 218.645 321.902 219.075 321.847 218.024C321.792 216.974 322.658 217.117 322.215 215.827C321.772 214.538 321.983 214.057 321.279 214.273C320.574 214.489 320.092 214.539 320.092 214.539L320.092 218.75Z" fill="#EF45B7"/>
<path d="M320.272 219.982C320.272 219.982 322.112 220.054 322.587 220.103C323.477 220.194 325.323 219.441 325.662 219.441C325.999 219.441 326.352 219.387 325.852 218.943C325.351 218.498 323.672 218.934 322.832 219.124C321.992 219.314 320.968 218.77 320.698 218.75C320.427 218.729 320.816 219.287 320.816 219.287L320.272 219.982Z" fill="#996234"/>
<path d="M320.156 214.224C320.156 214.224 322.112 213.648 322.588 213.599C323.479 213.507 325.324 214.261 325.663 214.261C326 214.261 326.353 214.315 325.853 214.76C325.353 215.204 323.674 214.767 322.833 214.578C321.994 214.388 321.054 215.302 320.784 215.323C320.512 215.343 320.818 214.416 320.818 214.416L320.156 214.224Z" fill="#996234"/>
<path d="M320.272 220.796C320.272 220.796 317.996 220.452 317.534 219.048C317.072 217.643 316.912 217.158 317.46 215.896C318.008 214.635 317.705 213.966 318.849 214.061C319.991 214.156 320.582 213.395 320.761 214.486C320.954 215.664 321.17 218.829 321.197 219.048C321.356 220.389 320.272 220.796 320.272 220.796Z" fill="#8BC7E8"/>
<path d="M317.534 217.37C317.534 217.37 317.659 218.644 318.715 218.454C319.77 218.263 320.156 218.823 320.485 217.922C320.815 217.022 321.696 216.574 320.815 216.177C319.934 215.78 319.467 215.493 318.847 215.78C318.228 216.067 318.076 216.006 317.684 216.371C317.292 216.735 317.534 217.37 317.534 217.37Z" fill="#301705"/>
<rect x="315.5" y="15.9561" width="44.0746" height="25" rx="12.5" fill="#969696" fill-opacity="0.3"/>
<path d="M329.541 26.1924C329.541 26.7074 329.39 27.1699 329.089 27.5801C328.789 27.9857 328.392 28.2842 327.9 28.4756C328.474 28.6715 328.934 28.9883 329.281 29.4258C329.627 29.8633 329.8 30.3691 329.8 30.9434C329.8 31.7956 329.511 32.4723 328.932 32.9736C328.353 33.4704 327.588 33.7188 326.635 33.7188C325.674 33.7188 324.903 33.4704 324.325 32.9736C323.75 32.4769 323.463 31.8001 323.463 30.9434C323.463 30.3783 323.63 29.8747 323.962 29.4326C324.295 28.9906 324.751 28.6715 325.33 28.4756C324.837 28.2842 324.445 27.9857 324.154 27.5801C323.862 27.1699 323.716 26.7074 323.716 26.1924C323.716 25.3675 323.981 24.7113 324.509 24.2236C325.042 23.736 325.747 23.4922 326.622 23.4922C327.497 23.4922 328.201 23.7383 328.734 24.2305C329.272 24.7227 329.541 25.3766 329.541 26.1924ZM328.98 30.9502C328.98 30.3304 328.759 29.8223 328.317 29.4258C327.875 29.0247 327.31 28.8242 326.622 28.8242C325.933 28.8242 325.371 29.0202 324.933 29.4121C324.496 29.804 324.277 30.3167 324.277 30.9502C324.277 31.5837 324.489 32.0895 324.913 32.4678C325.336 32.8415 325.911 33.0283 326.635 33.0283C327.342 33.0283 327.909 32.8415 328.337 32.4678C328.766 32.0941 328.98 31.5882 328.98 30.9502ZM328.72 26.1855C328.72 25.6159 328.522 25.1419 328.125 24.7637C327.734 24.3809 327.232 24.1895 326.622 24.1895C326.002 24.1895 325.498 24.374 325.111 24.7432C324.728 25.1077 324.537 25.5885 324.537 26.1855C324.537 26.7689 324.728 27.2383 325.111 27.5938C325.498 27.9492 326.004 28.127 326.628 28.127C327.244 28.127 327.745 27.9492 328.132 27.5938C328.524 27.2337 328.72 26.7643 328.72 26.1855ZM331.455 34.4365H330.709L334.866 23.6289H335.604L331.455 34.4365ZM340.813 33.582H339.993V24.6133L337.286 25.6182V24.8525L340.676 23.5947H340.813V33.582ZM350.773 29.4326C350.773 30.8363 350.515 31.9027 350 32.6318C349.486 33.3564 348.727 33.7188 347.724 33.7188C346.74 33.7188 345.986 33.3633 345.461 32.6523C344.937 31.9368 344.668 30.8978 344.655 29.5352V27.751C344.655 26.3519 344.915 25.2923 345.434 24.5723C345.954 23.8522 346.712 23.4922 347.71 23.4922C348.695 23.4922 349.447 23.8408 349.966 24.5381C350.486 25.2308 350.755 26.2539 350.773 27.6074V29.4326ZM349.953 27.6484C349.953 26.5091 349.766 25.6478 349.392 25.0645C349.023 24.4811 348.462 24.1895 347.71 24.1895C346.972 24.1895 346.416 24.4743 346.042 25.0439C345.669 25.6136 345.477 26.4544 345.468 27.5664V29.5215C345.468 30.6562 345.66 31.5244 346.042 32.126C346.43 32.7275 346.99 33.0283 347.724 33.0283C348.453 33.0283 349.005 32.7344 349.378 32.1465C349.757 31.5586 349.948 30.6973 349.953 29.5625V27.6484Z" fill="black"/>
</g>
<defs>
<linearGradient id="paint0_linear" x1="26.5893" y1="215.818" x2="98.9043" y2="215.818" gradientUnits="userSpaceOnUse">
<stop offset="0.322917" stop-color="white" stop-opacity="0.89"/>
<stop offset="1" stop-color="white" stop-opacity="0"/>
</linearGradient>
<linearGradient id="paint1_linear" x1="337.427" y1="215.428" x2="265.001" y2="215.428" gradientUnits="userSpaceOnUse">
<stop offset="0.296875" stop-color="white"/>
<stop offset="1" stop-color="white" stop-opacity="0"/>
</linearGradient>
<clipPath id="clip0">
<rect width="375" height="375" fill="white" transform="translate(0.5 0.956055)"/>
</clipPath>
</defs>
</svg>
