<svg width="376" height="376" viewBox="0 0 376 376" fill="none" xmlns="http://www.w3.org/2000/svg">
<g clip-path="url(#clip0)">
<path d="M230.263 178.486C230.263 178.486 225.643 178.627 225.329 174.84C225.014 171.053 225.434 167.056 228.304 165.303C231.173 163.55 238.308 160.394 241.807 160.254C245.304 160.114 249.642 158.22 251.252 157.73C252.861 157.239 254.12 157.519 254.959 157.73C255.8 157.94 259.577 162.712 261.466 163.131C263.354 163.55 272.869 162.572 277.557 163.131C282.245 163.69 282.524 164.672 283.714 164.461C284.903 164.251 289.1 159.552 291.34 159.413C293.578 159.273 295.397 158.571 298.125 158.571C300.854 158.571 308.06 157.8 310.019 159.132C311.978 160.464 313.377 164.041 313.238 164.812C313.097 165.583 312.188 170.071 312.118 170.282C312.049 170.492 230.263 178.486 230.263 178.486Z" fill="#FFC41D"/>
<path d="M268.534 207.662C274.322 239.896 282.105 282.953 282.455 283.392C283.015 284.092 296.308 284.372 296.308 284.372C296.308 284.372 297.706 222.524 297.706 221.823C297.706 221.527 298.575 214.399 299.579 206.242L273.639 207.237C273.64 207.237 271.704 207.399 268.534 207.662Z" fill="#191919"/>
<path d="M294.909 163.76C292.25 164.321 289.592 167.687 286.514 169.511C283.435 171.334 277.138 170.773 272.382 170.767C267.623 170.761 267.088 168.657 267.088 168.657L262.307 172.876C262.307 172.876 265.062 188.32 268.535 207.662C271.705 207.398 273.641 207.236 273.641 207.236L299.581 206.241C300.964 195.019 302.606 181.851 302.606 181.851C302.606 181.851 297.567 163.199 294.909 163.76Z" fill="#282828"/>
<path d="M271.451 180.888C272.943 180.888 282.455 179.973 282.455 179.973L280.73 173.358H268.883L271.451 180.888Z" fill="#BABABA"/>
<path d="M290.851 253.238C290.851 252.676 281.336 195.035 295.049 165.724C295.049 165.724 296.027 162.638 297.567 163.199C299.106 163.76 301.765 164.602 302.325 166.004C302.885 167.406 306.103 167.827 308.341 167.406C310.58 166.986 312.119 166.425 314.219 167.547C316.318 168.669 317.996 169.089 319.816 168.388C321.634 167.686 325.273 166.144 325.832 167.406C326.392 168.669 325.132 177.645 325.832 180.169C326.532 182.693 326.811 209.621 327.091 211.304C327.371 212.987 329.89 223.086 335.348 225.188C340.805 227.293 335.348 235.707 335.348 235.707C335.348 235.707 339.078 238.793 337.773 244.542C336.467 250.293 336.188 249.311 336.188 249.311C336.188 249.311 337.166 266.001 337.307 266.702C337.447 267.403 339.965 272.873 341.504 273.994C343.043 275.116 343.464 276.099 342.903 278.202C342.343 280.306 343.602 282.13 340.244 282.689C336.887 283.251 307.502 290.965 302.885 289.281C298.267 287.598 298.687 289.521 298.687 289.521C298.687 289.521 298.546 292.507 290.571 292.787C282.596 293.068 242.996 295.172 238.938 294.471C234.88 293.77 230.963 291.385 230.963 291.385C230.963 291.385 224.807 284.372 225.366 281.849C225.926 279.325 227.325 272.593 229.144 271.471C230.963 270.349 233.062 268.526 233.761 267.123C234.46 265.721 234.881 264.317 234.881 264.317L235.301 252.677C235.301 252.677 230.408 243.42 229.849 239.493C229.289 235.566 229.434 231.781 229.434 231.781V221.076C229.434 221.076 233.207 208.781 233.346 208.36C233.487 207.939 232.644 172.176 233.064 172.316C233.484 172.457 236.281 170.634 238.661 171.194C241.04 171.755 243.838 169.652 245.516 169.792C247.196 169.932 253.351 169.932 254.33 169.512C255.31 169.091 256.149 168.81 259.787 169.231C263.426 169.652 265.105 166.847 265.944 167.268C266.784 167.688 269.302 172.457 269.302 172.878C269.302 173.298 282.176 192.933 283.015 213.97C283.854 235.008 287.352 253.1 287.352 253.1L290.151 279.746L294.209 279.185L290.851 253.238Z" fill="#FFC41D"/>
<path d="M234.712 253.548L261.358 255.116L263.285 254.3H266.923L269.441 255.137C269.441 255.137 273.545 255.654 274.105 255.654C274.665 255.654 279.889 255.293 280.45 255.387C281.009 255.481 284.553 254.829 284.553 254.829H287.352L288.938 265.393C288.938 265.393 285.953 267.31 285.673 267.31C285.393 267.31 285.206 266.071 283.154 266.819C281.102 267.567 276.531 269.238 276.251 269.238C275.972 269.238 272.8 268.672 272.8 268.672L270.934 267.266C270.934 267.266 268.975 267.452 268.695 267.639C268.416 267.826 264.684 268.199 264.684 268.199L263.285 266.889L255.636 267.348C255.636 267.348 251.718 267.525 249.666 267.525C247.613 267.525 241.737 267.525 241.737 267.525L240.338 267.862L239.032 266.254L239.46 264.609L234.712 263.897V253.548Z" fill="#191919"/>
<path d="M297.241 252.405L299.48 265.41H301.066L303.677 262.062L307.036 261.706H311.42L311.887 269.861C311.887 269.861 313.659 280.951 313.846 281.418C314.033 281.886 315.712 286.87 316.084 288.646C316.458 290.422 318.79 299.132 318.603 300.441C318.416 301.751 324.759 300.075 324.759 300.075C324.759 300.075 324.293 292.504 323.734 291.944C323.174 291.383 333.156 299.706 333.436 299.8C333.715 299.894 339.312 301.266 341.085 300.955C342.857 300.643 346.495 299.053 347.428 298.026C348.362 296.997 350.227 295.035 350.227 293.165C350.227 291.295 346.594 287.247 347.06 286.312C347.527 285.377 353.803 278.015 353.524 274.369C353.245 270.723 352.498 267.077 351.471 265.674C350.446 264.272 347.493 261.404 346.374 261.389C345.255 261.375 337.11 260.159 337.11 260.159V265.02C337.11 265.02 347.773 265.769 349.359 266.516C350.945 267.264 350.991 269.319 350.991 270.815C350.991 272.311 349.66 279.045 349.66 279.045C349.66 279.045 345.098 280.888 344.259 282.851C343.419 284.815 342.862 285.469 343.421 285.936C343.981 286.405 345.94 288.368 345.566 289.303C345.193 290.238 346.589 294.753 345.935 295.127C345.283 295.501 342.484 297.838 338.753 297.464C335.022 297.091 330.358 291.293 329.145 289.891C327.932 288.49 322.336 280.355 321.309 279.793C320.283 279.232 320.563 277.55 320.563 277.55C320.563 277.55 319.629 272.501 318.883 271.191C318.137 269.882 318.231 267.732 317.95 266.236C317.671 264.74 316.551 263.805 316.737 262.871C316.924 261.935 317.763 261.001 317.763 261.001C317.763 261.001 326.812 260.627 329.424 260.253C332.036 259.879 336.326 259.131 336.326 259.131L336.233 249.501C336.233 249.501 327.558 251.091 322.987 251.184C318.415 251.278 308.341 250.437 306.288 251.091C304.235 251.745 303.21 251.96 302.557 251.96C301.905 251.958 297.241 252.405 297.241 252.405Z" fill="#191919"/>
<path d="M286.793 254.734C286.887 255.014 289.468 265.674 289.468 265.674L293.882 265.299L295.096 264.178L298.92 263.991L300.226 261.746L298.267 254.174L296.868 253.052L293.883 253.519L288.472 253.988L286.793 254.734Z" fill="#545454"/>
<path d="M311.247 268.198C311.247 268.198 318.47 267.45 318.376 267.73C318.283 268.01 317.883 270.067 317.883 270.067L318.478 271.377C318.478 271.377 319.893 273.808 319.985 274.089C320.078 274.369 319.994 275.397 319.994 275.397L313.469 276.987L312.165 274.743L312.405 271.752L311.247 269.32V268.198Z" fill="#545454"/>
<path d="M243.229 213.783C243.043 210.791 241.364 193.774 241.364 193.774C241.364 193.774 239.483 183.863 238.551 182.741C237.618 181.619 234.712 174.327 234.712 174.327V171.896C234.712 171.896 231.274 170.212 230.155 174.327C229.035 178.44 228.475 178.26 228.475 178.26C228.475 178.26 230.887 189.275 230.854 190.198C230.832 190.76 231.52 208.173 231.52 208.173L230.542 215.279L228.304 220.703C228.304 220.703 228.864 231.735 229.984 231.922C231.103 232.11 233.901 226.873 236.327 226.499C238.754 226.126 240.619 224.816 241.178 224.068C241.737 223.319 243.416 216.774 243.229 213.783ZM241.2 220.538C240.314 221.987 240.407 223.109 239.288 223.391C238.169 223.67 235.51 224.044 234.997 224.489C234.483 224.933 233.061 226.405 232.385 227.013C231.709 227.62 230.729 229.023 230.637 229.023C230.542 229.023 229.844 228.626 229.89 228.462C229.937 228.297 229.89 221.729 230.31 220.842C230.73 219.953 231.942 216.331 232.013 216.214C232.083 216.097 232.853 213.946 232.782 213.759C232.713 213.572 232.969 210.417 232.969 210.417L241.714 213.058C241.714 213.058 242.086 219.088 241.2 220.538Z" fill="#191919"/>
<path d="M326.042 167.197C326.042 167.197 328.281 168.881 328.351 169.231C328.421 169.581 327.651 173.018 327.582 173.578C327.512 174.14 327.446 184.027 327.198 184.237C326.951 184.448 327.198 208.851 327.198 208.851L328.001 216.004L335.067 223.576L336.467 224.277C336.467 224.277 336.467 225.61 335.976 225.89C335.486 226.171 334.017 225.049 333.738 224.979C333.458 224.908 328.491 218.317 328.491 218.317L327.161 211.654L326.042 182.132C326.042 182.132 325.552 181.361 325.412 180.238C325.272 179.116 325.272 175.891 325.412 174.208C325.552 172.527 326.042 167.197 326.042 167.197Z" fill="#191919"/>
<path d="M283.8 215.652V209.481L283.058 208.57L283.386 205.765L286.436 205.344L286.967 209.06V209.481L286.39 209.622L286.879 215.301L283.8 215.652Z" fill="#545454"/>
<path d="M252.744 180.403C252.465 180.497 247.334 182.18 247.334 182.46C247.334 182.697 253.266 193.625 255.102 196.999C255.438 197.616 255.636 197.981 255.636 197.981L260.208 196.578L259.367 193.493L252.744 180.403Z" fill="#323244"/>
<path d="M302.185 187.182C302.185 187.182 311.141 190.618 311.91 191.25C312.679 191.881 314.009 188.795 314.009 188.795C314.009 188.795 315.408 181.152 315.689 180.451C315.969 179.75 317.438 172.176 317.438 172.176C317.438 172.176 311.351 168.32 308.902 168.53C306.452 168.74 306.664 170.283 306.664 170.283L303.794 181.082L302.185 187.182Z" fill="#BABABA"/>
<path d="M248.139 172.106C248.418 172.176 257.916 170.703 258.197 170.703C258.478 170.703 262.386 175.121 262.665 175.472C262.946 175.823 266.614 183.676 266.614 183.676L270.282 189.777L259.648 194.546L248.139 172.106Z" fill="#BABABA"/>
<path d="M256.339 197.608L256.596 197.725C256.596 197.725 257.365 196.93 256.339 197.421C256.086 197.541 256.41 197.982 256.41 197.982C256.41 197.982 258.859 200.109 259.139 203.007C259.418 205.906 260.352 210.546 260.818 211.855C261.284 213.165 263.803 220.066 263.71 221.655C263.616 223.244 260.537 230.902 258.205 228.284C255.873 225.666 261.66 220.146 262.03 218.275C262.4 216.405 262.123 213.037 262.03 211.541C261.936 210.045 261.75 204.878 260.538 203.195C259.325 201.512 256.339 197.608 256.339 197.608Z" stroke="#323244" stroke-width="2" stroke-miterlimit="10" stroke-linecap="round"/>
<path d="M30.6045 119.303C30.6045 119.303 22.7162 119.543 22.1805 113.076C21.6442 106.609 22.3615 99.7837 27.2597 96.7904C32.1579 93.7972 44.3443 88.4085 50.3176 88.1688C56.291 87.9292 63.6984 84.6962 66.4463 83.8583C69.1941 83.0203 71.3445 83.499 72.7786 83.8583C74.2121 84.2175 80.6637 92.3667 83.8892 93.0819C87.1147 93.7972 103.363 92.1276 111.368 93.0819C119.372 94.0368 119.85 95.7133 121.881 95.3536C123.912 94.9944 131.08 86.9716 134.903 86.732C138.726 86.4923 141.832 85.2951 146.493 85.2951C151.152 85.2951 163.458 83.9778 166.803 86.2532C170.147 88.528 172.537 94.6352 172.298 95.9525C172.06 97.2697 170.506 104.933 170.387 105.293C170.267 105.652 30.6045 119.303 30.6045 119.303Z" fill="#FF5E17"/>
<path d="M95.9585 169.123C105.843 224.166 119.133 297.692 119.731 298.441C120.686 299.638 143.385 300.117 143.385 300.117C143.385 300.117 145.775 194.502 145.775 193.305C145.775 192.801 147.256 180.628 148.972 166.698L104.677 168.397C104.677 168.397 101.371 168.674 95.9585 169.123Z" fill="#191919"/>
<path d="M140.996 94.156C136.456 95.114 131.916 100.861 126.66 103.975C121.403 107.089 110.65 106.131 102.526 106.121C94.4019 106.112 93.4866 102.518 93.4866 102.518L85.3223 109.723C85.3223 109.723 90.0267 136.096 95.9579 169.124C101.371 168.674 104.676 168.398 104.676 168.398L148.972 166.699C151.333 147.536 154.137 125.05 154.137 125.05C154.137 125.05 145.536 93.1979 140.996 94.156Z" fill="#282828"/>
<path d="M100.939 123.333C103.488 123.333 119.73 121.735 119.73 121.735L116.784 110.403H96.5527L100.939 123.333Z" fill="#BABABA"/>
<path d="M134.066 246.951C134.066 245.992 117.819 147.563 141.235 97.5094C141.235 97.5094 142.908 92.2408 145.536 93.1984C148.164 94.1564 152.704 95.5933 153.66 97.9882C154.616 100.383 160.112 101.102 163.935 100.383C167.758 99.6647 170.386 98.7066 173.97 100.623C177.554 102.539 180.422 103.257 183.528 102.06C186.634 100.862 192.846 98.2279 193.803 100.383C194.759 102.538 192.607 117.866 193.803 122.177C194.998 126.487 195.475 172.47 195.953 175.344C196.43 178.218 200.732 195.461 210.051 199.053C219.369 202.646 210.051 217.015 210.051 217.015C210.051 217.015 216.422 222.284 214.193 232.103C211.962 241.923 211.485 240.246 211.485 240.246C211.485 240.246 213.157 268.746 213.396 269.944C213.635 271.142 217.936 280.482 220.564 282.397C223.192 284.313 223.91 285.989 222.953 289.581C221.997 293.174 224.148 296.288 218.413 297.245C212.678 298.204 162.5 311.375 154.615 308.501C146.731 305.626 147.447 308.909 147.447 308.909C147.447 308.909 147.208 314.009 133.588 314.487C119.969 314.966 52.3475 318.559 45.4188 317.362C38.4895 316.164 31.7989 312.093 31.7989 312.093C31.7989 312.093 21.2857 300.118 22.2411 295.808C23.197 291.497 25.5864 280.002 28.6926 278.086C31.7989 276.169 35.3833 273.056 36.5778 270.662C37.7728 268.267 38.4895 265.871 38.4895 265.871L39.2063 245.994C39.2063 245.994 30.9522 230.188 29.9969 223.482C29.041 216.776 29.3894 210.31 29.3894 210.31V192.028C29.3894 192.028 35.7317 171.033 35.9708 170.315C36.2093 169.596 34.7214 108.527 35.4382 108.766C36.155 109.005 40.9064 105.892 44.9686 106.85C49.0307 107.808 53.7958 104.215 56.663 104.455C59.5306 104.694 70.0369 104.694 71.7096 103.976C73.3823 103.257 74.8121 102.778 81.0251 103.497C87.2376 104.215 90.1031 99.4256 91.5372 100.144C92.9708 100.862 97.271 109.005 97.271 109.724C97.271 110.442 119.253 143.971 120.687 179.895C122.121 215.818 128.094 246.712 128.094 246.712L132.873 292.215L139.802 291.257L134.066 246.951Z" fill="#FF5E17"/>
<path d="M38.3623 247.479L83.7856 250.28L86.9953 249.009H93.2078L97.5085 250.316C97.5085 250.316 104.517 251.139 105.473 251.139C106.429 251.139 115.349 250.427 116.305 250.588C117.261 250.748 123.314 249.54 123.314 249.54H128.093L130.801 267.645C130.801 267.645 125.704 270.949 125.226 270.949C124.748 270.949 124.429 268.849 120.925 270.127C117.421 271.404 109.615 274.266 109.137 274.266C108.66 274.266 103.243 273.303 103.243 273.303L100.057 270.905C100.057 270.905 96.7125 271.223 96.2343 271.541C95.7566 271.861 89.3847 272.499 89.3847 272.499L86.9953 270.263L73.9333 271.251C73.9333 271.251 67.2426 271.759 63.7384 271.759C60.2342 271.759 50.1982 271.759 50.1982 271.759L47.8087 272.129L45.5787 269.28L46.391 266.418L38.3623 265.153V247.479Z" fill="#191919"/>
<path d="M144.979 245.425L148.802 267.526H151.509L155.97 262.062L161.705 261.707H169.192L169.988 275.484C169.988 275.484 173.015 294.347 173.334 295.146C173.652 295.945 176.52 304.418 177.157 307.452C177.794 310.485 181.776 325.34 181.457 327.575C181.139 329.811 191.971 326.938 191.971 326.938C191.971 326.938 191.173 314.008 190.219 313.05C189.262 312.091 206.307 326.302 206.785 326.463C207.264 326.623 216.821 328.964 219.847 328.432C222.874 327.9 229.087 325.186 230.679 323.43C232.272 321.674 235.458 318.322 235.458 315.129C235.458 311.936 234.662 309.541 235.458 307.944C236.255 306.346 242.467 286.549 241.99 280.323C241.512 274.096 240.237 267.869 238.484 265.474C236.733 263.08 230.796 260.894 228.884 260.869C226.972 260.844 213.071 258.766 213.071 258.766V267.068C213.071 267.068 231.274 268.346 233.982 269.623C236.69 270.9 237.666 271.698 237.666 274.253C237.666 276.807 234.49 291.017 234.49 291.017C234.49 291.017 232.107 298.68 230.673 302.033C229.239 305.386 228.287 306.503 229.242 307.301C230.199 308.101 233.544 311.453 232.907 313.049C232.269 314.646 229.245 317.84 228.129 318.479C227.013 319.117 222.235 323.108 215.863 322.47C209.492 321.832 201.528 311.932 199.457 309.537C197.385 307.143 187.828 293.252 186.075 292.294C184.323 291.336 184.801 288.462 184.801 288.462C184.801 288.462 183.207 279.84 181.933 277.606C180.659 275.371 180.818 271.699 180.34 269.144C179.862 266.59 177.95 264.993 178.269 263.397C178.588 261.799 180.021 260.204 180.021 260.204C180.021 260.204 195.473 259.565 199.933 258.926C204.393 258.287 211.721 257.01 211.721 257.01L211.561 240.565C211.561 240.565 196.748 243.28 188.941 243.44C181.135 243.599 163.932 242.163 160.427 243.28C156.923 244.397 155.171 244.711 154.056 244.711C152.943 244.711 144.979 245.425 144.979 245.425Z" fill="#191919"/>
<path d="M127.138 249.505C127.297 249.985 131.706 268.187 131.706 268.187L139.244 267.548L141.315 265.632L147.846 265.312L150.077 261.481L146.732 248.548L144.343 246.633L139.245 247.431L130.006 248.23L127.138 249.505Z" fill="#545454"/>
<path d="M169.262 272.496C169.262 272.496 181.413 271.22 181.254 271.698C181.094 272.177 180.32 275.689 180.32 275.689L181.288 277.925C181.288 277.925 183.682 282.077 183.841 282.556C184 283.035 183.844 284.791 183.844 284.791L172.695 287.506L170.465 283.674L171.058 278.565L169.262 274.414V272.496Z" fill="#545454"/>
<path d="M52.7471 179.575C52.4283 174.465 49.5606 145.408 49.5606 145.408C49.5606 145.408 46.4306 128.483 44.8377 126.568C43.2447 124.652 38.3623 112.198 38.3623 112.198V108.047C38.3623 108.047 32.4127 105.173 30.501 112.198C28.5892 119.223 27.5932 118.915 27.5932 118.915C27.5932 118.915 31.6938 137.724 31.6342 139.301C31.5978 140.261 32.7622 169.996 32.7622 169.996L31.0863 182.13L27.2617 191.39C27.2617 191.39 28.2165 210.23 30.1283 210.549C32.0401 210.869 36.8179 201.927 40.9598 201.289C45.1016 200.65 48.287 198.415 49.2429 197.138C50.1982 195.86 53.0654 184.684 52.7471 179.575ZM49.2819 191.111C47.7687 193.585 47.9281 195.501 46.0163 195.981C44.105 196.459 39.5652 197.098 38.6891 197.856C37.8129 198.615 35.3838 201.13 34.229 202.167C33.0741 203.204 31.4014 205.6 31.242 205.6C31.0826 205.6 29.8882 204.922 29.9679 204.641C30.047 204.363 29.9679 193.145 30.6846 191.629C31.4014 190.112 33.4721 183.925 33.5914 183.726C33.7112 183.526 35.0249 179.854 34.9056 179.535C34.7863 179.215 35.2244 173.827 35.2244 173.827L50.1581 178.337C50.1581 178.337 50.7952 188.636 49.2819 191.111Z" fill="#191919"/>
<path d="M194.161 100.023C194.161 100.023 197.984 102.898 198.104 103.496C198.224 104.094 196.909 109.962 196.79 110.92C196.67 111.878 196.559 128.762 196.137 129.121C195.715 129.48 196.137 171.152 196.137 171.152L197.507 183.366L209.574 196.298L211.963 197.496C211.963 197.496 211.963 199.771 211.127 200.25C210.291 200.728 207.781 198.813 207.304 198.693C206.826 198.573 198.343 187.317 198.343 187.317L196.073 175.942L194.161 125.529C194.161 125.529 193.325 124.212 193.086 122.296C192.847 120.38 192.847 114.872 193.086 111.998C193.325 109.124 194.161 100.023 194.161 100.023Z" fill="#191919"/>
<path d="M121.758 182.768V172.23L120.625 170.673L121.253 165.883L126.295 165.165L127.036 171.512V172.23L126.251 172.469L127.051 182.169L121.758 182.768Z" fill="#545454"/>
<path d="M68.9953 122.576C68.5177 122.736 59.7563 125.61 59.7563 126.089C59.7563 126.494 69.8874 145.154 73.021 150.915C73.5943 151.97 73.9336 152.592 73.9336 152.592L81.7391 150.197L80.3055 144.929L68.9953 122.576Z" fill="#323244"/>
<path d="M153.421 134.151C153.421 134.151 168.714 140.018 170.028 141.096C171.341 142.174 173.612 136.905 173.612 136.905C173.612 136.905 176.001 123.853 176.479 122.655C176.957 121.458 179.466 108.525 179.466 108.525C179.466 108.525 169.072 101.939 164.891 102.298C160.71 102.658 161.068 105.292 161.068 105.292L156.17 123.733L153.421 134.151Z" fill="#BABABA"/>
<path d="M61.1294 108.406C61.6071 108.526 77.8255 106.011 78.3037 106.011C78.7813 106.011 85.4567 113.555 85.9349 114.154C86.4131 114.752 92.6778 128.164 92.6778 128.164L98.9426 138.582L80.7828 146.725L61.1294 108.406Z" fill="#BABABA"/>
<path d="M73.1365 151.954L72.6985 152.154C72.6985 152.154 71.3842 150.797 73.1365 151.635C73.5678 151.841 73.0167 152.593 73.0167 152.593C73.0167 152.593 68.8353 156.225 68.3571 161.175C67.8794 166.124 66.2865 174.048 65.49 176.283C64.6935 178.518 60.3923 190.303 60.5517 193.017C60.7111 195.731 65.9682 208.809 69.9501 204.337C73.9325 199.866 64.0511 190.441 63.4188 187.246C62.7865 184.052 63.2594 178.301 63.4188 175.747C63.5782 173.193 63.897 164.369 65.9677 161.496C68.0394 158.621 73.1365 151.954 73.1365 151.954Z" stroke="#323244" stroke-width="2" stroke-miterlimit="10" stroke-linecap="round"/>
</g>
<rect x="315.5" y="15.9561" width="44.0746" height="25" rx="12.5" fill="#969696" fill-opacity="0.3"/>
<path d="M329.91 33.582H323.675V32.9531L327.086 29.084C327.652 28.4323 328.043 27.8945 328.262 27.4707C328.481 27.0469 328.59 26.6344 328.59 26.2334C328.59 25.6045 328.406 25.1077 328.037 24.7432C327.667 24.374 327.159 24.1895 326.512 24.1895C325.842 24.1895 325.3 24.4036 324.885 24.832C324.475 25.2604 324.27 25.8164 324.27 26.5H323.457C323.457 25.9395 323.582 25.429 323.833 24.9688C324.088 24.5085 324.448 24.1484 324.913 23.8887C325.382 23.6243 325.915 23.4922 326.512 23.4922C327.424 23.4922 328.135 23.7314 328.645 24.21C329.16 24.6885 329.417 25.3402 329.417 26.165C329.417 26.6299 329.272 27.138 328.98 27.6895C328.693 28.2409 328.185 28.929 327.456 29.7539L324.68 32.8916H329.91V33.582ZM331.455 34.4365H330.709L334.866 23.6289H335.604L331.455 34.4365ZM340.813 33.582H339.993V24.6133L337.286 25.6182V24.8525L340.676 23.5947H340.813V33.582ZM350.773 29.4326C350.773 30.8363 350.515 31.9027 350 32.6318C349.486 33.3564 348.727 33.7188 347.724 33.7188C346.74 33.7188 345.986 33.3633 345.461 32.6523C344.937 31.9368 344.668 30.8978 344.655 29.5352V27.751C344.655 26.3519 344.915 25.2923 345.434 24.5723C345.954 23.8522 346.712 23.4922 347.71 23.4922C348.695 23.4922 349.447 23.8408 349.966 24.5381C350.486 25.2308 350.755 26.2539 350.773 27.6074V29.4326ZM349.953 27.6484C349.953 26.5091 349.766 25.6478 349.392 25.0645C349.023 24.4811 348.462 24.1895 347.71 24.1895C346.972 24.1895 346.416 24.4743 346.042 25.0439C345.669 25.6136 345.477 26.4544 345.468 27.5664V29.5215C345.468 30.6562 345.66 31.5244 346.042 32.126C346.43 32.7275 346.99 33.0283 347.724 33.0283C348.453 33.0283 349.005 32.7344 349.378 32.1465C349.757 31.5586 349.948 30.6973 349.953 29.5625V27.6484Z" fill="black"/>
<defs>
<clipPath id="clip0">
<rect width="332" height="246" fill="white" transform="translate(22 82.8936)"/>
</clipPath>
</defs>
</svg>
