<svg width="375" height="376" viewBox="0 0 375 376" fill="none" xmlns="http://www.w3.org/2000/svg">
<g clip-path="url(#clip0)">
<path d="M409.121 -4.21289H-26.8164L-24.6752 382.975H408.98L409.121 -4.21289Z" fill="url(#paint0_linear)"/>
<path d="M269.582 226.182C268.866 227.366 267.911 234.985 269.183 236.647C270.455 238.31 274.601 240.268 275.228 240.342C275.856 240.413 272.263 257.813 272.263 257.813C272.263 257.813 271.827 271.258 273.02 272.441C274.21 273.625 282.865 280.189 284.552 280.326C286.24 280.466 289.273 280.615 289.736 279.824C290.194 279.031 288.165 275.296 288.143 274.92C288.089 274.011 287.929 271.48 288.075 270.932C288.217 270.382 289.133 266.166 289.524 265.367C289.916 264.566 297.197 265.392 298.025 265.574C298.855 265.755 298.914 264.768 298.914 264.768C297.963 262.296 291.331 258.214 291.331 258.214C291.331 258.214 293.48 254.877 295.146 253.038C296.81 251.198 300.196 239.636 301.433 234.631C302.668 229.626 300.084 223.045 299.17 222.797C285.454 219.053 270.307 224.998 269.582 226.182Z" fill="#36627A"/>
<path d="M290.201 269.359C291.03 268.469 292.811 267.901 294.165 268.153C295.517 268.403 295.377 268.383 295.878 269.695C296.379 271.006 292.795 270.427 291.936 270.739C291.079 271.051 292.133 271.934 292.281 271.887C292.429 271.841 295.339 272.294 295.339 272.294L295.191 275.391C295.191 275.391 291.394 274.64 291.148 275.142C290.899 275.643 293.097 277.249 294.235 278.573C295.377 279.897 294.029 280.145 292.11 279.071C290.191 277.998 289.095 274.762 289.095 274.762C289.095 274.762 288.566 274.727 287.803 274.589C287.039 274.451 287.486 273.233 287.474 272.253C287.463 271.274 287.811 270.787 287.906 270.608C288.001 270.432 289.443 270.814 289.443 270.814C289.443 270.814 289.375 270.25 290.201 269.359Z" fill="#6C808C"/>
<path d="M224.389 245.797L284.983 247.262L277.228 264.019C273.746 264.041 189.722 265.241 162.293 263.632C160.908 263.55 155.529 263.524 154.448 263.46C147.405 263.046 141.995 263.161 135.473 262.722C129.641 262.883 124.151 262.705 118.807 262.392C112.567 262.025 107.468 261.074 102.749 259.396C82.2448 252.105 74.6244 243.67 68.5011 236.891C67.5322 235.82 66.619 234.808 65.697 233.85C65.6286 233.777 65.5644 233.704 65.4908 233.632C92.9769 248.913 131.015 251.862 158.376 254.247C162.767 254.632 167.051 255.406 171.123 255.644C194.647 257.024 209.545 257.055 209.746 257.045L210.875 256.246L224.389 245.797Z" fill="white" stroke="white" stroke-miterlimit="10"/>
<path d="M157.462 256.859C129.982 254.463 91.8909 248.154 64.4269 232.717L64.0266 232.308C60.0248 228.065 58.2586 225.384 57.1092 223.529C56.5383 222.615 56.1286 221.953 55.6505 221.455C55.0205 220.799 53.9653 219.989 53.2448 219.473C57.6187 220.18 74.617 222.039 100.453 222.244C114.662 222.358 145.505 224.515 181.927 228.913C232.624 235.036 266.684 242.344 284.285 247.76L226.34 247.652L211.897 258.363C210.66 258.419 186.571 259.404 157.462 256.859Z" fill="#FF0000"/>
<path d="M182.361 210.711C182.636 210.227 182.855 209.863 183.031 209.591C183.118 209.457 183.195 209.343 183.261 209.249C183.597 208.778 183.697 208.783 183.758 208.785L183.927 208.905C184 209.065 184.083 209.239 184.18 209.421C184.245 209.542 184.312 209.667 184.387 209.796C184.424 209.858 184.46 209.924 184.497 209.987C185.518 211.673 187.257 213.687 188.386 213.459C188.924 213.35 189.263 213.01 189.427 212.414C189.448 212.346 189.462 212.271 189.475 212.198C189.488 212.12 189.503 212.042 189.506 211.96C189.702 209.815 188.034 205.493 185.676 202.661C185.313 202.225 184.932 201.826 184.542 201.475C184.323 201.278 184.075 201.078 183.811 200.905C183.386 200.628 182.919 200.42 182.476 200.416C182.31 200.415 182.146 200.443 181.985 200.505C181.732 200.604 181.556 200.787 181.448 201.062C181.378 201.243 181.343 201.454 181.33 201.683C181.252 203.287 182.473 205.808 182.491 205.838L182.58 206.025L180.315 206.536L182.361 210.711ZM182.552 202.762C182.574 202.517 182.646 202.317 182.792 202.188C182.819 202.161 182.851 202.138 182.885 202.118C182.973 202.068 183.07 202.046 183.176 202.052C183.249 202.056 183.324 202.076 183.413 202.113C183.999 202.362 184.805 203.34 185.601 204.581L185.642 204.539L185.685 204.494L186.365 205.857C186.706 206.464 187.03 207.093 187.315 207.703C187.793 208.72 188.162 209.684 188.338 210.401C188.435 210.81 188.47 211.135 188.443 211.382C188.437 211.444 188.423 211.5 188.41 211.552C188.367 211.707 188.286 211.817 188.172 211.885C188.122 211.915 188.065 211.926 188.006 211.923C187.324 211.883 185.272 209.078 184.432 207.716C184.402 207.664 184.373 207.617 184.344 207.57C184.292 207.477 184.241 207.393 184.204 207.321C184.162 207.249 184.132 207.184 184.111 207.134C184.087 207.089 184.058 207.035 184.019 206.967C183.982 206.902 183.944 206.824 183.898 206.742C183.409 205.81 182.463 203.842 182.552 202.762Z" fill="black"/>
<path d="M169.228 188.532C170.168 188.237 173.367 188.398 174.324 188.453C174.466 188.462 174.575 188.468 174.654 188.474L175.772 197.533L176.321 197.762L176.867 197.991L182.521 210.846L182.697 214.41L181.558 217.074L178.168 216.966C178.056 214.853 177.301 207.271 177.279 207.229C176.647 205.966 172.365 204.549 171.548 204.317C171.52 204.308 171.498 204.301 171.48 204.297C171.396 204.267 171.308 204.239 171.217 204.209C170.994 204.136 170.754 204.061 170.502 203.986C170.401 203.956 170.299 203.927 170.195 203.897C169.861 203.801 169.51 203.705 169.146 203.611C169.059 203.587 168.975 203.565 168.888 203.543C168.722 203.5 168.555 203.456 168.386 203.416C165.728 202.749 162.66 202.063 161.785 201.891C164.262 196.723 168.442 188.785 169.228 188.532Z" fill="#3FA9F5"/>
<path d="M185.553 205.101C185.673 205.287 185.789 205.478 185.904 205.674L186.492 206.854L184.908 207.093L184.948 207.267C184.948 207.271 184.97 207.382 184.96 207.522C184.954 207.606 184.935 207.697 184.893 207.78C184.69 207.454 184.532 207.178 184.454 206.993C184.31 206.734 184.164 206.451 184.019 206.161C184.042 206.183 184.068 206.202 184.099 206.211C184.109 206.213 184.122 206.217 184.139 206.218C184.252 206.227 184.541 206.139 185.553 205.101Z" fill="black"/>
<path d="M184.016 206.969C184.052 207.037 184.083 207.091 184.107 207.136C184.127 207.187 184.157 207.249 184.2 207.321C184.239 207.396 184.288 207.48 184.339 207.571C184.368 207.619 184.397 207.665 184.428 207.717C185.267 209.079 187.318 211.884 188.002 211.924C188.061 211.928 188.119 211.916 188.166 211.887C188.284 211.819 188.361 211.708 188.406 211.553C188.421 211.502 188.433 211.444 188.439 211.383C188.468 211.137 188.428 210.812 188.334 210.402C188.158 209.685 187.788 208.721 187.308 207.704C187.026 207.094 186.697 206.464 186.361 205.858L185.681 204.495L185.639 204.54L185.597 204.582C184.802 203.342 183.996 202.365 183.408 202.112C183.325 202.077 183.246 202.056 183.172 202.052C183.063 202.045 182.967 202.069 182.883 202.119C182.848 202.14 182.815 202.163 182.787 202.189C182.642 202.318 182.57 202.518 182.549 202.762C182.463 203.841 183.407 205.811 183.896 206.742C183.941 206.828 183.98 206.904 184.016 206.969ZM188.042 210.481C188.249 211.35 188.128 211.553 188.08 211.592C187.538 211.457 186 209.472 185.094 208.083C185.287 207.858 185.308 207.558 185.295 207.37L186.717 207.157C187.318 208.344 187.818 209.546 188.042 210.481ZM185.905 205.675L186.494 206.856L184.911 207.095L184.95 207.267C184.952 207.27 184.973 207.383 184.963 207.521C184.957 207.606 184.936 207.697 184.896 207.781C184.693 207.454 184.535 207.177 184.458 206.993C184.313 206.732 184.166 206.451 184.021 206.161C184.045 206.183 184.07 206.201 184.103 206.211C184.113 206.213 184.123 206.216 184.141 206.217C184.253 206.228 184.543 206.14 185.56 205.101C185.673 205.288 185.789 205.479 185.905 205.675ZM183.052 202.404C183.078 202.387 183.117 202.379 183.158 202.382C183.619 202.409 184.487 203.434 185.377 204.814C184.933 205.266 184.439 205.723 184.227 205.853C184.124 205.675 183.912 205.596 183.734 205.565C183.076 204.137 182.596 202.67 183.052 202.404Z" fill="black"/>
<path d="M80.3172 219.826C73.7176 219.294 56.7442 219.705 52.7368 216.73C53.0514 216.685 53.4109 216.405 53.8482 216.422C53.8482 216.422 76.5653 213.102 92.702 211.785C93.7337 211.702 94.6736 211.662 95.4995 211.61C106.152 210.929 153.718 210.908 154.201 210.91L154.284 210.909L154.337 210.837C154.491 210.612 158.082 205.278 158.507 204.593C158.711 204.26 158.739 203.796 158.77 203.304C158.807 202.733 158.844 202.143 159.181 201.869C159.49 201.619 160.153 201.509 161.053 201.562C161.372 201.58 161.6 201.614 161.602 201.614L161.72 201.633L161.739 201.594C162.808 201.804 168.634 202.974 171.4 203.929C172.976 204.371 177.123 205.745 177.402 206.73C177.759 207.989 178.428 216.189 178.439 216.267L178.423 216.831L181.532 217.015L182.674 214.358L189.824 215.362L201.398 217.1L201.468 216.729C200.685 216.536 200.523 216.247 200.482 215.141C200.471 214.796 200.731 214.314 201.202 213.842C201.963 213.074 203.329 212.257 204.513 212.29C204.909 212.3 205.588 212.288 206.447 212.276C208.189 212.25 210.571 212.212 212.514 212.327C214.629 212.451 215.368 212.709 215.612 212.905C215.944 213.169 216.105 213.444 216.096 213.72C216.08 214.197 215.568 214.561 215.564 214.565L215.231 214.798L218.716 215.36L218.725 217.073L235.525 218.998L236.461 220.986L256.352 222.21L265.522 225.026L265.115 235.672L270.159 237.881L270.188 237.893L282.647 238.403L285.389 240.309L284.952 245.429C262.884 239.721 217.458 230.755 173.034 225.989C113.731 219.624 86.9186 220.358 80.3172 219.826Z" fill="white"/>
<path d="M52.7369 216.73C57.2271 218.616 73.4561 218.848 80.0552 219.378C86.6552 219.91 113.369 219.027 172.676 225.391C217.099 230.157 262.796 239.699 284.945 245.411L284.944 245.426L285.065 245.482C286.31 246.375 286.956 246.954 286.995 247.252C287.01 247.333 286.978 247.39 286.895 247.488C286.859 247.531 286.831 247.573 286.807 247.618C286.735 247.695 286.203 247.811 284.726 247.746L283.956 247.536C266.376 242.759 234.527 235.747 182.617 229.479C146.184 225.079 115.525 222.996 101.307 222.883C73.8166 222.664 56.1339 219.963 53.2455 219.473C52.6108 218.897 52.3816 218.707 52.3609 218.696C51.6527 218.442 51.2392 217.991 51.3203 217.571C51.3859 217.232 51.8041 216.864 52.7369 216.73Z" fill="white"/>
<path d="M216.143 214.969C216.143 214.969 217.947 213.092 214.896 212.265C212.66 211.658 205.976 211.971 204.175 211.959C202.374 211.948 200.221 214.386 200.333 215.545C200.429 216.535 200.563 217.622 202.246 217.179C203.93 216.739 203.752 215.466 204.692 215.412C205.633 215.361 215.344 215.046 216.143 214.969Z" fill="#C99B59"/>
<path d="M197.883 215.733C197.883 215.733 198.918 214.585 198.726 213.202C198.536 211.818 198.243 211.106 197.402 210.846C196.562 210.584 195.416 210.447 195.179 210.563C194.94 210.677 192.062 211.745 191.404 211.958C190.748 212.169 188.942 213.307 188.893 213.849C188.841 214.391 188.736 214.562 188.504 215.088C188.27 215.612 187.883 217.999 187.883 217.999L192.179 218.57C192.179 218.57 192.168 216.888 192.489 216.782C192.809 216.674 197.022 216.339 197.313 216.185C197.597 216.026 197.883 215.733 197.883 215.733Z" fill="#996234"/>
<path d="M213.973 209.373C213.973 209.373 214.246 207.247 214.338 207.25C214.429 207.252 211.355 207.002 210.637 206.44C209.745 205.745 204.755 205.675 204.755 205.675L201.378 208.639L197.494 211.426C197.494 211.426 198.514 215.062 199.058 215.074C199.314 215.08 202.092 212.673 204.556 212.656C207.301 212.638 207.469 214.217 206.76 217.605C206.625 218.245 212.499 214.511 212.499 214.511C212.499 214.511 213.61 213.719 213.914 212.273C214.213 210.832 213.973 209.373 213.973 209.373Z" fill="#EF45B7"/>
<path d="M207.885 187.37C207.748 187.412 206.777 186.167 206.831 185.76C206.887 185.35 207.299 185.087 207.39 185.09C207.481 185.092 208.459 183.98 207.971 183.47C207.483 182.96 209.115 180.955 208.548 179.944C207.981 178.934 207.289 177.376 205.941 176.802C204.593 176.227 203.743 175.755 203.049 176.283C202.357 176.813 200.69 178.318 200.632 178.907C200.574 179.496 200.276 180.623 200.566 181.854C200.857 183.085 200.853 183.267 200.869 184.584C200.884 185.899 201.457 186.731 201.854 187.238C202.25 187.744 202.054 188.42 202.821 188.619C203.588 188.817 202.608 190.021 202.961 190.481C203.314 190.942 207.601 189.904 207.549 188.133C207.526 187.3 207.885 187.37 207.885 187.37Z" fill="#996234"/>
<path d="M207.787 185.6C207.787 185.6 208.557 185.618 208.48 184.98C208.405 184.343 208.263 183.25 208.533 182.985C208.803 182.719 209.63 182.239 209.376 181.461C209.121 180.684 208.814 180.223 209.012 179.502C209.21 178.781 209.041 178.187 208.46 177.812C207.879 177.437 207.417 177.516 206.747 177.185C206.076 176.853 205.548 176.07 204.782 175.916C204.016 175.763 203.12 175.198 202.469 175.865C201.818 176.53 201.366 176.52 201.174 176.969C200.982 177.418 201.22 176.925 200.924 178.007C200.628 179.09 200.079 179.304 200.428 179.903C200.778 180.499 201.121 179.418 201.438 179.38C201.757 179.342 201.586 178.839 202.435 179.402C203.285 179.966 202.971 179.778 204.247 179.533C205.523 179.289 206.223 178.579 206.577 179.903C206.932 181.228 206.715 180.996 206.529 182.034C206.345 183.075 206.496 183.53 206.496 183.53C206.496 183.53 206.576 183.032 207.07 183.135C207.568 183.238 207.656 183.33 207.598 183.872C207.541 184.415 207.254 185.044 207.342 185.228C207.431 185.411 207.787 185.6 207.787 185.6Z" fill="#301705"/>
<path d="M201.299 195.798C201.299 195.798 198.199 200.629 197.417 201.065C196.636 201.502 195.028 202.373 194.436 202.496C193.845 202.619 190.112 203.126 188.528 203C186.942 202.873 186.682 202.388 186.079 202.954C185.476 203.521 185.194 203.923 184.978 203.465C184.762 203.006 184.9 202.919 185.006 202.241C185.112 201.561 185.029 201.197 184.395 201.094C183.762 200.989 182.774 201.693 183.053 200.882C183.33 200.072 183.247 199.707 184.288 199.82C185.33 199.934 185.494 200.709 186.217 200.816C186.941 200.923 187.259 200.93 188.532 200.777C189.805 200.624 193.436 198.571 194.207 198.544C194.978 198.516 195.037 197.927 195.547 197.441C196.055 196.953 198.106 194.55 198.106 194.55" fill="#996234"/>
<path d="M214.531 198.588C214.405 196.046 213.588 191.991 212.086 190.188C210.584 188.385 210.129 188.421 209.008 187.896C207.885 187.373 207.292 187.496 207.292 187.496C207.292 187.496 207.193 189.308 206.263 189.606C205.335 189.902 203.145 190.443 203.015 190.078C202.887 189.712 203.21 189.488 202.945 189.167C202.68 188.845 202.246 187.973 201.924 188.149C201.602 188.322 200.002 188.92 199.803 189.734C199.603 190.546 199.397 191.63 198.931 192.255C198.463 192.88 198.168 193.87 198.168 193.87C198.168 193.87 198.024 194.23 197.879 194.635C197.733 195.04 199.05 195.025 199.873 196.72C200.699 198.416 201.708 195.81 201.708 195.81C201.708 195.81 200.681 195.106 201.601 196.578C201.601 196.578 203.003 198.833 203.086 199.152C203.17 199.472 203.514 200.295 203.451 201.112C203.386 201.928 202.914 202.778 202.986 203.642C203.059 204.505 202.932 205.273 203.997 205.705C205.062 206.137 206.243 206.072 207.556 206.237C208.869 206.402 210.49 206.368 211.08 206.905C211.669 207.444 212.257 207.023 212.978 207.22C213.699 207.417 213.735 207.872 214.338 207.25C214.942 206.628 214.051 204.612 214.211 204.162C214.371 203.712 214.787 202.723 214.669 201.224C214.55 199.724 214.531 198.588 214.531 198.588Z" fill="#8BC7E8"/>
<path d="M209.221 201.532C209.221 201.532 208.188 204.67 207.635 205.26C207.083 205.85 206.191 207.224 205.721 207.754C205.249 208.283 201.097 212.356 200.603 212.706C200.105 213.058 197.704 215.073 197.704 215.073L194.378 214.617C194.378 214.617 196.639 212.299 197.752 211.166C198.864 210.033 202.558 205.665 202.771 205.264C202.986 204.864 204.181 203.673 204.509 203.119C204.839 202.564 204.915 201.406 205.201 200.353C205.488 199.3 205.969 197.942 205.969 197.942C205.969 197.942 210.172 197.531 210.278 198.524C210.386 199.518 209.221 201.532 209.221 201.532Z" fill="#996234"/>
<path d="M206.669 217.56C206.669 217.56 207.619 216.34 207.332 214.972C207.045 213.605 206.701 212.917 205.843 212.717C204.986 212.517 203.836 212.461 203.605 212.59C203.375 212.722 200.579 213.991 199.938 214.248C199.297 214.507 197.578 215.77 197.565 216.313C197.554 216.857 197.458 217.036 197.265 217.575C197.071 218.116 196.811 219.654 196.811 219.654L201.156 220.212C201.156 220.212 201.047 219.112 201.361 218.982C201.674 218.854 205.854 218.22 206.131 218.045C206.406 217.872 206.669 217.56 206.669 217.56Z" fill="#996234"/>
<path d="M237.077 211.881C237.077 211.881 236.549 213.657 236.856 215.854C237.163 218.05 237.214 219.927 236.402 220.607C235.589 221.287 236.373 222.656 235.59 222.826C235.081 222.936 227.087 221.797 226.434 221.967C225.781 222.137 223.666 221.607 223.333 221.795C223.001 221.983 220.238 221.524 219.805 221.599C219.371 221.673 219.633 220.826 219.214 220.644C218.795 220.461 218.047 218.489 218.047 218.489L218.092 217.669L219.264 215.876L219.887 214.255L220.444 213.936C220.444 213.936 220.78 213.693 221.022 213.178C221.266 212.661 221.411 211.971 221.549 211.416C221.688 210.862 221.788 209.964 222.234 210.172C222.68 210.381 237.077 211.881 237.077 211.881Z" fill="#32417F"/>
<path d="M243.92 199.468C243.92 199.468 244.383 207.246 244.29 207.453C244.196 207.662 244.437 209.256 244.871 211.486C245.305 213.718 245.141 219.354 245.088 219.895C245.034 220.437 245.211 221.584 245.196 221.73C245.182 221.874 245.742 222.476 246.164 222.993C246.587 223.509 246.125 223.389 246.125 223.389C246.125 223.389 245.558 223.59 245.186 223.659C244.814 223.731 243.547 223.643 243.131 223.783C242.717 223.924 240.243 223.496 240.063 223.477C239.881 223.46 239.55 223.134 239.589 222.738C239.629 222.339 240.131 222.061 240.131 222.061L241.716 221.526C241.716 221.526 241.766 220.657 241.825 220.443C241.883 220.231 240.658 216.424 240.6 215.18C240.543 213.933 240.386 213.297 240.535 212.547C240.683 211.796 240.665 209.788 240.643 209.641C240.621 209.493 240.223 206.899 239.96 206.253C239.697 205.607 240.321 201.185 240.303 201.001L243.92 199.468Z" fill="#FFCBA1"/>
<path d="M219.249 197.476C219.249 197.476 216.577 203.772 216.332 204.039C216.087 204.306 214.816 207.17 214.52 207.579C214.224 207.985 210.821 219.061 210.697 219.194C210.574 219.328 209.78 219.613 209.592 219.668C209.406 219.722 209.228 220.761 209.228 220.761L211.827 221.023L213.93 221.231C213.93 221.231 214.247 221.265 214.717 221.31C215.185 221.357 215.453 221.238 215.538 221.109C215.625 220.979 215.337 220.206 215.168 220.078C214.998 219.952 214.518 219.648 214.247 219.44C213.976 219.232 214.272 218.822 214.369 218.213C214.466 217.602 215.177 215.958 215.592 215.09C216.008 214.224 217.578 211.275 217.618 210.88C217.658 210.48 218.521 208.051 218.781 207.64C219.041 207.228 218.781 207.64 219.236 207.102C219.691 206.564 222.763 200.634 222.763 200.634L219.513 198.121L219.249 197.476Z" fill="#FFCBA1"/>
<path d="M218.008 197.859C217.99 198.038 218.648 198.762 218.962 198.903C219.275 199.043 220.789 199.96 221.023 200.167C221.258 200.372 222.139 201.409 222.15 201.665C222.16 201.921 222.24 203.315 222.225 203.46C222.211 203.604 221.431 206.663 221.258 206.936C221.085 207.208 220.937 210.514 220.959 211.025C220.981 211.539 220.766 215.105 221.712 215.126C222.659 215.149 226.331 215.625 227.104 215.556C227.876 215.487 232.104 216.603 232.603 216.725C233.1 216.848 236.664 216.584 237.213 215.837C237.762 215.091 238.612 209.179 238.619 208.742C238.627 208.305 239.215 203.879 239.215 203.879C239.215 203.879 239.551 201.615 239.7 201.592C239.847 201.571 241.602 201.527 242.754 201.315C243.905 201.102 244.563 200.73 244.563 200.73C244.563 200.73 244.736 199.728 244.681 199.539C244.627 199.351 243.669 193.968 243.327 192.658C242.984 191.347 237.438 189.552 237.124 189.411C236.809 189.27 230.251 188.105 229.815 188.097C229.378 188.091 225.341 189.437 224.514 189.682C223.687 189.928 221.027 190.647 219.993 192.222C218.961 193.796 218.145 197.581 218.026 197.678C218.025 197.679 218.027 197.68 218.008 197.859Z" fill="#FFFEF8"/>
<path d="M229.784 188.422C229.784 188.422 229.964 189.161 230.274 189.743C232.392 191.01 233.068 190.13 234.432 189.974C235.798 189.819 235.711 188.212 235.65 187.732C235.59 187.252 236.005 182.734 236.014 181.898C236.025 181.06 235.021 176.145 231.035 176.986C227.05 177.829 227.974 182.443 227.974 182.443C228.744 187.881 229.784 188.422 229.784 188.422Z" fill="#FFCBA1"/>
<path d="M233.807 187.723C233.807 187.723 235.828 188.009 236.386 185.701C236.943 183.392 236.504 183.583 236.64 181.123C236.777 178.664 239.356 178.149 235.725 177.097C232.095 176.044 229.417 174.716 228.888 176.188C228.36 177.66 227.817 178.276 228.009 178.82C228.201 179.366 227.815 180.211 227.848 180.743C227.881 181.274 228.52 182.818 228.52 182.818C228.52 182.818 230.025 183.331 230.035 183.654C230.046 183.976 230.565 184.714 230.516 185.376C230.467 186.037 229.627 186.155 230.445 186.655C231.263 187.155 231.968 187.626 231.968 187.626L233.807 187.723Z" fill="#9E5A2D"/>
<path d="M122.218 209.001C122.263 208.685 122.939 207.011 122.648 206.661C122.357 206.311 121.316 205.406 120.956 205.069C120.595 204.732 120.087 204.379 119.945 204.058C119.802 203.735 119.891 203.046 119.692 203.055C119.491 203.062 106.848 203.45 106.746 203.491C106.642 203.529 105.179 204.554 105.053 204.977C104.928 205.4 104.283 205.909 104.121 206.263C103.959 206.617 103.424 207.926 103.148 208.703C102.87 209.479 102.758 210.285 102.723 211.331C102.689 212.379 102.654 213.441 102.809 213.847C102.962 214.252 103.36 214.675 103.449 214.751C103.539 214.826 103.028 214.878 103.945 214.83C104.863 214.781 108.529 213.89 109.346 214.386C110.165 214.882 111.285 214.985 111.769 214.862C112.253 214.74 112.083 214.869 112.522 214.445C112.961 214.019 113.223 213.504 113.396 213.491C113.571 213.475 113.438 213.202 113.954 213.743C114.468 214.283 114.292 214.221 114.468 214.283C114.645 214.347 115.919 214.897 116.267 214.885C116.615 214.873 116.334 214.906 116.787 214.868C117.24 214.829 117.145 215.124 117.24 214.829C117.335 214.536 117.372 213.453 117.831 213.09C118.285 212.726 122.218 209.001 122.218 209.001Z" fill="#F7931E"/>
<path d="M102.671 192.263C102.642 192.439 102.961 196.716 102.667 197.319C102.375 197.921 101.829 200.381 101.799 200.521C101.769 200.661 101.626 202.584 101.72 203.313C101.814 204.042 101.625 204.641 101.49 205.832C101.356 207.021 99.9434 210.591 99.9837 210.798C100.027 211.006 100.019 211.843 100.019 211.843L101.505 212.456C101.505 212.456 101.968 212.754 101.981 213.139C101.994 213.52 101.655 213.812 101.481 213.816C101.306 213.824 98.9098 214.077 98.5212 213.916C98.1312 213.756 96.912 213.76 96.56 213.668C96.2084 213.577 95.6778 213.349 95.6778 213.349C95.6778 213.349 95.2278 213.435 95.6656 212.969C96.1034 212.499 96.6772 211.958 96.6715 211.819C96.6668 211.678 96.9097 210.59 96.8928 210.068C96.8759 209.546 97.0761 204.135 97.6334 202.024C98.1889 199.915 98.5203 198.402 98.4444 198.197C98.3689 197.991 99.3026 190.568 99.3026 190.568L102.671 192.263Z" fill="#FFCBA1"/>
<path d="M122.775 190.817L119.503 193.02C119.503 193.02 122.071 198.897 122.472 199.441C122.874 199.986 122.652 199.574 122.874 199.986C123.098 200.397 123.771 202.779 123.784 203.165C123.797 203.545 125.116 206.47 125.458 207.327C125.801 208.185 126.379 209.806 126.433 210.397C126.487 210.986 126.745 211.398 126.471 211.58C126.2 211.762 125.719 212.023 125.55 212.133C125.379 212.245 125.055 212.967 125.13 213.097C125.203 213.226 125.452 213.358 125.903 213.342C126.357 213.328 126.663 213.316 126.663 213.316L128.69 213.249L131.198 213.163C131.198 213.163 131.093 212.155 130.918 212.091C130.742 212.027 129.999 211.704 129.889 211.568C129.781 211.432 127.22 200.603 126.961 200.196C126.702 199.786 125.666 196.962 125.448 196.69C125.23 196.419 123.069 190.216 123.069 190.216L122.775 190.817Z" fill="#FFCBA1"/>
<path d="M111.648 214.3C111.645 214.205 112.063 214.348 111.732 212.504C111.401 210.658 109.923 209.734 109.058 209.229C108.191 208.724 106.633 208.211 105.81 208.992C104.989 209.775 103.935 210.282 103.788 211.042C103.64 211.801 103.798 212.74 103.865 213.335C103.933 213.931 104.486 215.454 104.498 215.798C104.509 216.147 111.456 215.654 111.456 215.654L111.648 214.3Z" fill="#FFCBA1"/>
<path d="M117.999 215.421C117.999 215.421 116.773 214.005 116.582 213.859C116.393 213.71 114.979 213.108 114.913 212.986C114.846 212.865 114.558 212.566 114.876 211.904C115.194 211.244 115.726 209.583 116.144 209.105C116.562 208.627 119.932 207.584 120.646 207.622C121.359 207.661 121.441 207.35 122.235 207.88C123.026 208.409 123.513 209.043 123.71 209.408C123.909 209.773 124.377 210.841 124.419 211.15C124.46 211.457 124.353 212.824 124.491 213.283C124.63 213.743 124.558 215.07 124.558 215.07L117.999 215.421Z" fill="#FFCBA1"/>
<path d="M124.229 190.49C124.122 190.389 123.579 186.711 122.69 185.138C121.8 183.563 119.296 182.706 118.519 182.419C117.742 182.132 113.958 180.586 113.54 180.564C113.12 180.544 106.764 181.247 106.454 181.361C106.144 181.476 100.715 182.846 100.304 184.079C99.8921 185.312 98.634 190.411 98.5707 190.588C98.5065 190.765 98.6077 191.736 98.6077 191.736C98.6077 191.736 99.2157 192.134 100.305 192.41C101.396 192.687 103.074 192.84 103.214 192.87C103.355 192.9 103.533 195.091 103.533 195.091C103.533 195.091 103.816 199.37 103.796 199.789C103.776 200.208 103.721 202.721 104.2 203.471C104.679 204.221 108.077 204.7 108.561 204.614C109.046 204.528 113.169 203.727 113.904 203.842C114.641 203.955 118.19 203.732 119.097 203.77C120.005 203.81 120.521 203.584 120.574 203.093C120.628 202.605 120.694 199.428 120.545 199.157C120.399 198.884 119.844 195.903 119.838 195.764C119.833 195.624 119.999 194.294 120.024 194.049C120.051 193.805 120.96 192.867 121.2 192.685C121.437 192.501 122.944 191.719 123.254 191.603C123.564 191.489 124.24 190.838 124.234 190.665C124.229 190.491 124.229 190.49 124.229 190.49Z" fill="#FFF599"/>
<path d="M115.66 175.262C115.66 175.262 116.837 170.898 113.071 169.84C109.305 168.781 108.031 173.427 107.989 174.23C107.946 175.032 108.058 179.388 107.97 179.844C107.881 180.301 107.555 184.112 108.854 184.347C110.151 184.583 111.778 185.295 113.239 183.119C113.573 182.581 113.545 180.876 113.545 180.876C113.545 180.876 114.579 180.423 115.66 175.262Z" fill="#FFCBA1"/>
<path d="M108.201 173.274C108.201 173.274 107.882 169.087 112.464 169.746C116.305 170.301 116.565 172.42 116.211 174.879L116.07 174.858C118.494 179.818 110.653 177.802 108.56 173.799L108.201 173.274Z" fill="#908DFF"/>
<path d="M125.885 219.422L125.786 217.606C125.721 216.436 126.387 215.384 127.556 215.319L127.677 215.313C128.847 215.248 129.759 216.215 129.823 217.385L129.92 219.15C131.788 219.649 133.041 221.278 133.122 222.747L122.957 223.305C122.877 221.836 124.084 220.157 125.885 219.422ZM127.763 217.984C128.198 217.961 128.531 217.589 128.507 217.155C128.482 216.719 128.111 216.387 127.677 216.411C127.242 216.435 126.909 216.806 126.933 217.241C126.957 217.675 127.329 218.008 127.763 217.984Z" fill="#283C8E"/>
<path d="M131.286 244.055L131.364 245.458C131.427 246.627 130.598 247.189 129.429 247.253L129.308 247.259C128.138 247.325 127.389 246.849 127.325 245.679L127.242 244.16C125.372 243.631 124.182 242.386 123.943 240.927L134.072 240.371C134.01 241.846 133.091 243.395 131.286 244.055ZM129.23 244.725C128.795 244.749 128.462 245.12 128.485 245.555C128.51 245.99 128.881 246.322 129.315 246.298C129.75 246.274 130.082 245.904 130.058 245.469C130.035 245.034 129.664 244.702 129.23 244.725Z" fill="#283C8E"/>
<path d="M123.151 223.295L133.064 222.752L133.998 239.791C134.005 239.915 134.082 240.371 134.072 240.371L123.943 240.927C123.932 240.928 124.092 240.458 124.086 240.336L123.151 223.295Z" fill="#E2E2E2"/>
<path d="M217.338 224.764L217.239 222.949C217.174 221.779 217.839 220.726 219.009 220.662L219.131 220.655C220.3 220.591 221.212 221.558 221.276 222.727L221.373 224.494C223.242 224.991 224.494 226.621 224.575 228.09L214.41 228.647C214.331 227.179 215.537 225.5 217.338 224.764ZM219.216 223.327C219.651 223.304 219.983 222.932 219.959 222.497C219.936 222.062 219.564 221.73 219.13 221.754C218.695 221.778 218.363 222.149 218.386 222.584C218.409 223.018 218.782 223.351 219.216 223.327Z" fill="#283C8E"/>
<path d="M222.74 249.397L222.817 250.8C222.881 251.97 222.052 252.53 220.883 252.595L220.762 252.602C219.592 252.666 218.843 252.191 218.78 251.021L218.696 249.502C216.826 248.973 215.636 247.728 215.397 246.268L225.526 245.712C225.463 247.188 224.544 248.737 222.74 249.397ZM220.683 250.069C220.249 250.092 219.916 250.463 219.94 250.899C219.964 251.333 220.335 251.665 220.77 251.642C221.205 251.617 221.537 251.247 221.513 250.811C221.489 250.377 221.118 250.044 220.683 250.069Z" fill="#283C8E"/>
<path d="M214.41 228.648L224.516 228.094C224.516 228.094 225.535 245.713 225.525 245.713L215.396 246.27C215.384 246.269 214.41 228.648 214.41 228.648Z" fill="#E2E2E2"/>
<path d="M219.164 222.452C219.164 222.452 217.5 223.061 216.5 221.566C215.501 220.072 214.586 220.411 213.749 220.678" stroke="#75422C" stroke-width="5" stroke-miterlimit="10" stroke-linecap="round"/>
<path d="M127.711 217.109C127.711 217.109 126.046 217.718 125.046 216.224C124.046 214.73 123.132 215.068 122.295 215.335" stroke="#75422C" stroke-width="5" stroke-miterlimit="10" stroke-linecap="round"/>
<path opacity="0.6" d="M409.121 252.433L-26.626 252.263L-26.9115 385.488L409.216 385.318L409.121 252.433Z" fill="#33EFFF"/>
<path opacity="0.5" d="M308.822 278.623C307.469 278.623 306.371 277.526 306.371 276.172C306.371 274.818 307.469 273.721 308.822 273.721C310.176 273.721 311.273 274.818 311.273 276.172C311.273 277.526 310.176 278.623 308.822 278.623Z" fill="white"/>
<path opacity="0.5" d="M316.163 268.55C315.235 268.55 314.483 267.798 314.483 266.87C314.483 265.943 315.235 265.19 316.163 265.19C317.091 265.19 317.843 265.943 317.843 266.87C317.843 267.798 317.091 268.55 316.163 268.55Z" fill="white"/>
<path opacity="0.5" d="M332.427 272.72C331.281 272.72 330.352 271.791 330.352 270.645C330.352 269.498 331.281 268.569 332.427 268.569C333.573 268.569 334.502 269.498 334.502 270.645C334.502 271.791 333.573 272.72 332.427 272.72Z" fill="white"/>
<path opacity="0.5" d="M332.429 288.214C331.076 288.214 329.978 287.116 329.978 285.763C329.978 284.409 331.076 283.312 332.429 283.312C333.783 283.312 334.88 284.409 334.88 285.763C334.88 287.116 333.783 288.214 332.429 288.214Z" fill="white"/>
<path opacity="0.5" d="M328.418 283.381C327.064 283.381 325.967 282.283 325.967 280.93C325.967 279.576 327.064 278.479 328.418 278.479C329.772 278.479 330.869 279.576 330.869 280.93C330.869 282.283 329.772 283.381 328.418 283.381Z" fill="white"/>
<path opacity="0.5" d="M326.655 270.36C325.301 270.36 324.204 269.263 324.204 267.909C324.204 266.555 325.301 265.458 326.655 265.458C328.009 265.458 329.106 266.555 329.106 267.909C329.106 269.263 328.009 270.36 326.655 270.36Z" fill="white"/>
<path opacity="0.5" d="M319.374 278.308C318.02 278.308 316.923 277.211 316.923 275.857C316.923 274.504 318.02 273.406 319.374 273.406C320.727 273.406 321.825 274.504 321.825 275.857C321.825 277.211 320.727 278.308 319.374 278.308Z" fill="white"/>
<path opacity="0.3" d="M300.657 281.603C299.303 281.603 298.206 280.506 298.206 279.152C298.206 277.799 299.303 276.701 300.657 276.701C302.011 276.701 303.108 277.799 303.108 279.152C303.108 280.506 302.011 281.603 300.657 281.603Z" fill="white"/>
<path opacity="0.5" d="M301.854 272.412C301.103 272.412 300.493 271.803 300.493 271.051C300.493 270.3 301.103 269.69 301.854 269.69C302.606 269.69 303.215 270.3 303.215 271.051C303.215 271.803 302.606 272.412 301.854 272.412Z" fill="white"/>
<path opacity="0.5" d="M298.77 275.711C298.018 275.711 297.409 275.102 297.409 274.35C297.409 273.598 298.018 272.989 298.77 272.989C299.521 272.989 300.13 273.598 300.13 274.35C300.13 275.102 299.521 275.711 298.77 275.711Z" fill="white"/>
<path opacity="0.5" d="M307.618 271.176C306.867 271.176 306.257 270.566 306.257 269.815C306.257 269.063 306.867 268.454 307.618 268.454C308.37 268.454 308.979 269.063 308.979 269.815C308.979 270.566 308.37 271.176 307.618 271.176Z" fill="white"/>
<path opacity="0.5" d="M310.538 268.854C309.787 268.854 309.177 268.245 309.177 267.494C309.177 266.742 309.787 266.133 310.538 266.133C311.29 266.133 311.899 266.742 311.899 267.494C311.899 268.245 311.29 268.854 310.538 268.854Z" fill="white"/>
<path opacity="0.5" d="M324.229 285.204C323.477 285.204 322.868 284.595 322.868 283.843C322.868 283.092 323.477 282.482 324.229 282.482C324.98 282.482 325.589 283.092 325.589 283.843C325.589 284.595 324.98 285.204 324.229 285.204Z" fill="white"/>
<path opacity="0.5" d="M324.767 275.705C324.016 275.705 323.406 275.096 323.406 274.344C323.406 273.593 324.016 272.983 324.767 272.983C325.519 272.983 326.128 273.593 326.128 274.344C326.128 275.096 325.519 275.705 324.767 275.705Z" fill="white"/>
<path opacity="0.5" d="M313.577 273.614C312.826 273.614 312.216 273.005 312.216 272.253C312.216 271.502 312.826 270.893 313.577 270.893C314.329 270.893 314.938 271.502 314.938 272.253C314.938 273.005 314.329 273.614 313.577 273.614Z" fill="white"/>
<path opacity="0.5" d="M315.789 283.34C315.037 283.34 314.428 282.73 314.428 281.979C314.428 281.227 315.037 280.618 315.789 280.618C316.54 280.618 317.149 281.227 317.149 281.979C317.149 282.73 316.54 283.34 315.789 283.34Z" fill="white"/>
<path opacity="0.5" d="M303.792 278.516C303.434 278.516 303.144 278.226 303.144 277.868C303.144 277.51 303.434 277.22 303.792 277.22C304.15 277.22 304.44 277.51 304.44 277.868C304.44 278.226 304.15 278.516 303.792 278.516Z" fill="white"/>
<path opacity="0.5" d="M313.449 278.106C313.092 278.106 312.802 277.816 312.802 277.458C312.802 277.101 313.092 276.811 313.449 276.811C313.807 276.811 314.097 277.101 314.097 277.458C314.097 277.816 313.807 278.106 313.449 278.106Z" fill="white"/>
<path opacity="0.5" d="M320.713 269.426C320.355 269.426 320.065 269.135 320.065 268.778C320.065 268.42 320.355 268.13 320.713 268.13C321.07 268.13 321.36 268.42 321.36 268.778C321.36 269.135 321.07 269.426 320.713 269.426Z" fill="white"/>
<path opacity="0.5" d="M304.338 275.136C303.98 275.136 303.69 274.846 303.69 274.489C303.69 274.131 303.98 273.841 304.338 273.841C304.695 273.841 304.985 274.131 304.985 274.489C304.985 274.846 304.695 275.136 304.338 275.136Z" fill="white"/>
<path opacity="0.5" d="M293.857 277.377C293.499 277.377 293.209 277.087 293.209 276.729C293.209 276.371 293.499 276.081 293.857 276.081C294.214 276.081 294.504 276.371 294.504 276.729C294.504 277.087 294.214 277.377 293.857 277.377Z" fill="white"/>
<path opacity="0.5" d="M293.304 273.503C292.946 273.503 292.656 273.213 292.656 272.855C292.656 272.497 292.946 272.207 293.304 272.207C293.662 272.207 293.952 272.497 293.952 272.855C293.952 273.213 293.662 273.503 293.304 273.503Z" fill="white"/>
<path opacity="0.5" d="M296.393 273.126C296.035 273.126 295.745 272.835 295.745 272.477C295.745 272.119 296.035 271.829 296.393 271.829C296.751 271.829 297.042 272.119 297.042 272.477C297.042 272.835 296.751 273.126 296.393 273.126Z" fill="white"/>
<path opacity="0.5" d="M306.54 282.046C306.182 282.046 305.891 281.755 305.891 281.397C305.891 281.039 306.182 280.749 306.54 280.749C306.898 280.749 307.188 281.039 307.188 281.397C307.188 281.755 306.898 282.046 306.54 282.046Z" fill="white"/>
<path opacity="0.5" d="M322.236 264.847C321.878 264.847 321.588 264.557 321.588 264.199C321.588 263.841 321.878 263.551 322.236 263.551C322.594 263.551 322.884 263.841 322.884 264.199C322.884 264.557 322.594 264.847 322.236 264.847Z" fill="white"/>
<path opacity="0.5" d="M330.489 265.701C330.131 265.701 329.841 265.411 329.841 265.053C329.841 264.695 330.131 264.404 330.489 264.404C330.847 264.404 331.138 264.695 331.138 265.053C331.138 265.411 330.847 265.701 330.489 265.701Z" fill="white"/>
<path opacity="0.5" d="M304.489 269.025C304.131 269.025 303.841 268.735 303.841 268.377C303.841 268.019 304.131 267.729 304.489 267.729C304.847 267.729 305.137 268.019 305.137 268.377C305.137 268.735 304.847 269.025 304.489 269.025Z" fill="white"/>
<path opacity="0.5" d="M296.51 277.893C296.152 277.893 295.863 277.603 295.863 277.246C295.863 276.888 296.152 276.599 296.51 276.599C296.867 276.599 297.157 276.888 297.157 277.246C297.157 277.603 296.867 277.893 296.51 277.893Z" fill="white"/>
<path opacity="0.5" d="M298.651 270.973C298.269 270.973 297.958 270.662 297.958 270.279C297.958 269.896 298.269 269.586 298.651 269.586C299.034 269.586 299.345 269.896 299.345 270.279C299.345 270.662 299.034 270.973 298.651 270.973Z" fill="white"/>
<path opacity="0.2" d="M324.466 279.003C321.841 279.003 319.713 276.875 319.713 274.25C319.713 271.625 321.841 269.497 324.466 269.497C327.091 269.497 329.219 271.625 329.219 274.25C329.219 276.875 327.091 279.003 324.466 279.003Z" fill="white"/>
<path opacity="0.1" d="M315.507 280.259C311.669 280.259 308.558 277.148 308.558 273.31C308.558 269.472 311.669 266.36 315.507 266.36C319.345 266.36 322.456 269.472 322.456 273.31C322.456 277.148 319.345 280.259 315.507 280.259Z" fill="white"/>
<path opacity="0.1" d="M300.741 282.709C296.903 282.709 293.792 279.598 293.792 275.76C293.792 271.922 296.903 268.811 300.741 268.811C304.579 268.811 307.69 271.922 307.69 275.76C307.69 279.598 304.579 282.709 300.741 282.709Z" fill="white"/>
<path opacity="0.1" d="M307.771 279.508C303.934 279.508 300.823 276.397 300.823 272.559C300.823 268.721 303.934 265.61 307.771 265.61C311.609 265.61 314.72 268.721 314.72 272.559C314.72 276.397 311.609 279.508 307.771 279.508Z" fill="white"/>
<path opacity="0.1" d="M330.537 284.966C326.699 284.966 323.588 281.855 323.588 278.017C323.588 274.179 326.699 271.068 330.537 271.068C334.374 271.068 337.485 274.179 337.485 278.017C337.485 281.855 334.374 284.966 330.537 284.966Z" fill="white"/>
<path opacity="0.1" d="M323.132 288.424C319.294 288.424 316.183 285.313 316.183 281.475C316.183 277.637 319.294 274.525 323.132 274.525C326.97 274.525 330.082 277.637 330.082 281.475C330.082 285.313 326.97 288.424 323.132 288.424Z" fill="white"/>
<path opacity="0.5" d="M342.223 278.413C340.225 278.413 338.606 276.794 338.606 274.796C338.606 272.797 340.225 271.178 342.223 271.178C344.222 271.178 345.841 272.797 345.841 274.796C345.841 276.794 344.222 278.413 342.223 278.413Z" fill="white"/>
<path opacity="0.5" d="M353.057 263.548C351.688 263.548 350.577 262.438 350.577 261.068C350.577 259.698 351.688 258.588 353.057 258.588C354.427 258.588 355.538 259.698 355.538 261.068C355.538 262.438 354.427 263.548 353.057 263.548Z" fill="white"/>
<path opacity="0.5" d="M377.064 269.7C375.372 269.7 374.001 268.329 374.001 266.637C374.001 264.945 375.372 263.574 377.064 263.574C378.755 263.574 380.126 264.945 380.126 266.637C380.126 268.329 378.755 269.7 377.064 269.7Z" fill="white"/>
<path opacity="0.5" d="M377.066 292.57C375.068 292.57 373.448 290.95 373.448 288.952C373.448 286.954 375.068 285.335 377.066 285.335C379.064 285.335 380.683 286.954 380.683 288.952C380.683 290.95 379.064 292.57 377.066 292.57Z" fill="white"/>
<path opacity="0.5" d="M371.144 285.437C369.146 285.437 367.527 283.817 367.527 281.819C367.527 279.821 369.146 278.201 371.144 278.201C373.142 278.201 374.762 279.821 374.762 281.819C374.762 283.817 373.142 285.437 371.144 285.437Z" fill="white"/>
<path opacity="0.5" d="M368.544 266.218C366.546 266.218 364.926 264.598 364.926 262.6C364.926 260.602 366.546 258.982 368.544 258.982C370.542 258.982 372.162 260.602 372.162 262.6C372.162 264.598 370.542 266.218 368.544 266.218Z" fill="white"/>
<path opacity="0.5" d="M357.796 277.952C355.798 277.952 354.178 276.333 354.178 274.335C354.178 272.337 355.798 270.717 357.796 270.717C359.794 270.717 361.414 272.337 361.414 274.335C361.414 276.333 359.794 277.952 357.796 277.952Z" fill="white"/>
<path opacity="0.3" d="M330.172 282.813C328.174 282.813 326.555 281.193 326.555 279.195C326.555 277.198 328.174 275.578 330.172 275.578C332.17 275.578 333.79 277.198 333.79 279.195C333.79 281.193 332.17 282.813 330.172 282.813Z" fill="white"/>
<path opacity="0.5" d="M331.939 269.248C330.83 269.248 329.931 268.349 329.931 267.24C329.931 266.131 330.83 265.231 331.939 265.231C333.048 265.231 333.947 266.131 333.947 267.24C333.947 268.349 333.048 269.248 331.939 269.248Z" fill="white"/>
<path opacity="0.5" d="M327.385 274.117C326.276 274.117 325.377 273.218 325.377 272.108C325.377 270.999 326.276 270.1 327.385 270.1C328.495 270.1 329.394 270.999 329.394 272.108C329.394 273.218 328.495 274.117 327.385 274.117Z" fill="white"/>
<path opacity="0.5" d="M340.446 267.423C339.337 267.423 338.438 266.524 338.438 265.415C338.438 264.306 339.337 263.407 340.446 263.407C341.555 263.407 342.454 264.306 342.454 265.415C342.454 266.524 341.555 267.423 340.446 267.423Z" fill="white"/>
<path opacity="0.5" d="M344.756 263.997C343.647 263.997 342.747 263.097 342.747 261.988C342.747 260.879 343.647 259.979 344.756 259.979C345.865 259.979 346.765 260.879 346.765 261.988C346.765 263.097 345.865 263.997 344.756 263.997Z" fill="white"/>
<path opacity="0.5" d="M364.963 288.129C363.854 288.129 362.954 287.229 362.954 286.12C362.954 285.011 363.854 284.112 364.963 284.112C366.072 284.112 366.971 285.011 366.971 286.12C366.971 287.229 366.072 288.129 364.963 288.129Z" fill="white"/>
<path opacity="0.5" d="M365.758 274.109C364.648 274.109 363.749 273.21 363.749 272.1C363.749 270.991 364.648 270.092 365.758 270.092C366.867 270.092 367.766 270.991 367.766 272.1C367.766 273.21 366.867 274.109 365.758 274.109Z" fill="white"/>
<path opacity="0.5" d="M349.242 271.022C348.133 271.022 347.234 270.123 347.234 269.014C347.234 267.905 348.133 267.006 349.242 267.006C350.351 267.006 351.25 267.905 351.25 269.014C351.25 270.123 350.351 271.022 349.242 271.022Z" fill="white"/>
<path opacity="0.5" d="M352.506 285.375C351.397 285.375 350.498 284.476 350.498 283.367C350.498 282.257 351.397 281.358 352.506 281.358C353.615 281.358 354.514 282.257 354.514 283.367C354.514 284.476 353.615 285.375 352.506 285.375Z" fill="white"/>
<path opacity="0.5" d="M334.799 278.258C334.271 278.258 333.842 277.83 333.842 277.301C333.842 276.773 334.271 276.345 334.799 276.345C335.328 276.345 335.756 276.773 335.756 277.301C335.756 277.83 335.328 278.258 334.799 278.258Z" fill="white"/>
<path opacity="0.5" d="M349.052 277.653C348.524 277.653 348.095 277.224 348.095 276.696C348.095 276.168 348.524 275.739 349.052 275.739C349.58 275.739 350.009 276.168 350.009 276.696C350.009 277.224 349.58 277.653 349.052 277.653Z" fill="white"/>
<path opacity="0.5" d="M359.773 264.84C359.244 264.84 358.816 264.412 358.816 263.883C358.816 263.355 359.244 262.927 359.773 262.927C360.301 262.927 360.729 263.355 360.729 263.883C360.729 264.412 360.301 264.84 359.773 264.84Z" fill="white"/>
<path opacity="0.5" d="M335.604 273.269C335.076 273.269 334.648 272.841 334.648 272.312C334.648 271.784 335.076 271.355 335.604 271.355C336.133 271.355 336.561 271.784 336.561 272.312C336.561 272.841 336.133 273.269 335.604 273.269Z" fill="white"/>
<path opacity="0.5" d="M320.135 276.576C319.606 276.576 319.178 276.147 319.178 275.619C319.178 275.09 319.606 274.662 320.135 274.662C320.663 274.662 321.091 275.09 321.091 275.619C321.091 276.147 320.663 276.576 320.135 276.576Z" fill="white"/>
<path opacity="0.5" d="M319.319 270.857C318.791 270.857 318.363 270.429 318.363 269.901C318.363 269.372 318.791 268.944 319.319 268.944C319.847 268.944 320.275 269.372 320.275 269.901C320.275 270.429 319.847 270.857 319.319 270.857Z" fill="white"/>
<path opacity="0.5" d="M323.879 270.3C323.351 270.3 322.922 269.872 322.922 269.343C322.922 268.815 323.351 268.387 323.879 268.387C324.408 268.387 324.836 268.815 324.836 269.343C324.836 269.872 324.408 270.3 323.879 270.3Z" fill="white"/>
<path opacity="0.5" d="M338.855 283.466C338.326 283.466 337.898 283.038 337.898 282.509C337.898 281.981 338.326 281.553 338.855 281.553C339.383 281.553 339.812 281.981 339.812 282.509C339.812 283.038 339.383 283.466 338.855 283.466Z" fill="white"/>
<path opacity="0.5" d="M362.021 258.084C361.492 258.084 361.064 257.656 361.064 257.127C361.064 256.598 361.492 256.17 362.021 256.17C362.549 256.17 362.978 256.598 362.978 257.127C362.978 257.656 362.549 258.084 362.021 258.084Z" fill="white"/>
<path opacity="0.5" d="M374.203 259.342C373.675 259.342 373.246 258.914 373.246 258.385C373.246 257.857 373.675 257.429 374.203 257.429C374.731 257.429 375.16 257.857 375.16 258.385C375.16 258.914 374.731 259.342 374.203 259.342Z" fill="white"/>
<path opacity="0.5" d="M335.827 264.248C335.299 264.248 334.871 263.82 334.871 263.292C334.871 262.763 335.299 262.335 335.827 262.335C336.356 262.335 336.784 262.763 336.784 263.292C336.784 263.82 336.356 264.248 335.827 264.248Z" fill="white"/>
<path opacity="0.5" d="M324.051 277.338C323.523 277.338 323.095 276.91 323.095 276.382C323.095 275.854 323.523 275.426 324.051 275.426C324.579 275.426 325.007 275.854 325.007 276.382C325.007 276.91 324.579 277.338 324.051 277.338Z" fill="white"/>
<path opacity="0.5" d="M327.212 267.123C326.647 267.123 326.189 266.665 326.189 266.1C326.189 265.535 326.647 265.077 327.212 265.077C327.776 265.077 328.234 265.535 328.234 266.1C328.234 266.665 327.776 267.123 327.212 267.123Z" fill="white"/>
<path opacity="0.2" d="M365.313 278.975C361.439 278.975 358.298 275.835 358.298 271.961C358.298 268.087 361.439 264.946 365.313 264.946C369.187 264.946 372.327 268.087 372.327 271.961C372.327 275.835 369.187 278.975 365.313 278.975Z" fill="white"/>
<path opacity="0.1" d="M341.836 270.319C341.976 264.657 346.68 260.179 352.342 260.32C358.005 260.46 362.482 265.164 362.342 270.826C362.202 276.49 357.498 280.967 351.835 280.827C346.173 280.686 341.695 275.983 341.836 270.319Z" fill="white"/>
<path opacity="0.1" d="M330.295 284.445C324.631 284.445 320.04 279.854 320.04 274.189C320.04 268.525 324.631 263.934 330.295 263.934C335.96 263.934 340.551 268.525 340.551 274.189C340.551 279.854 335.96 284.445 330.295 284.445Z" fill="white"/>
<path opacity="0.1" d="M330.419 269.211C330.559 263.549 335.263 259.071 340.925 259.211C346.588 259.352 351.065 264.056 350.926 269.718C350.785 275.382 346.081 279.859 340.418 279.719C334.756 279.578 330.279 274.875 330.419 269.211Z" fill="white"/>
<path opacity="0.1" d="M374.273 287.776C368.608 287.776 364.016 283.184 364.016 277.52C364.016 271.856 368.608 267.264 374.273 267.264C379.937 267.264 384.529 271.856 384.529 277.52C384.529 283.184 379.937 287.776 374.273 287.776Z" fill="white"/>
<path opacity="0.1" d="M353.091 282.371C353.231 276.709 357.935 272.231 363.597 272.37C369.26 272.511 373.737 277.215 373.597 282.877C373.457 288.541 368.753 293.018 363.09 292.878C357.428 292.738 352.951 288.034 353.091 282.371Z" fill="white"/>
<rect x="315.137" y="15.709" width="38.9496" height="25" rx="12.5" fill="#969696" fill-opacity="0.3"/>
<path d="M331.075 32.335H324.84V31.7061L328.251 27.8369C328.817 27.1852 329.208 26.6475 329.427 26.2236C329.646 25.7998 329.755 25.3874 329.755 24.9863C329.755 24.3574 329.571 23.8607 329.202 23.4961C328.833 23.127 328.324 22.9424 327.677 22.9424C327.007 22.9424 326.465 23.1566 326.05 23.585C325.64 24.0133 325.435 24.5693 325.435 25.2529H324.622C324.622 24.6924 324.747 24.182 324.998 23.7217C325.253 23.2614 325.613 22.9014 326.078 22.6416C326.547 22.3773 327.08 22.2451 327.677 22.2451C328.589 22.2451 329.3 22.4844 329.81 22.9629C330.325 23.4414 330.583 24.0931 330.583 24.918C330.583 25.3828 330.437 25.891 330.145 26.4424C329.858 26.9938 329.35 27.682 328.621 28.5068L325.845 31.6445H331.075V32.335ZM332.62 33.1895H331.875L336.031 22.3818H336.769L332.62 33.1895ZM342.997 22.3066V23.0244H342.901C341.711 23.0244 340.775 23.3753 340.091 24.0771C339.408 24.7744 339.029 25.7451 338.957 26.9893C339.23 26.611 339.579 26.3193 340.002 26.1143C340.426 25.9046 340.9 25.7998 341.424 25.7998C342.299 25.7998 342.994 26.1029 343.509 26.709C344.029 27.3105 344.289 28.099 344.289 29.0742C344.289 29.7214 344.168 30.3047 343.926 30.8242C343.685 31.3438 343.338 31.7493 342.887 32.041C342.436 32.3281 341.921 32.4717 341.342 32.4717C340.39 32.4717 339.615 32.1276 339.018 31.4395C338.421 30.7467 338.123 29.8535 338.123 28.7598V27.9395C338.123 26.1576 338.528 24.779 339.339 23.8037C340.151 22.8239 341.301 22.3249 342.792 22.3066H342.997ZM341.294 26.5039C340.775 26.5039 340.29 26.6589 339.838 26.9688C339.392 27.2741 339.093 27.6637 338.943 28.1377V28.835C338.943 29.7008 339.164 30.4072 339.606 30.9541C340.053 31.501 340.631 31.7744 341.342 31.7744C341.98 31.7744 342.495 31.5215 342.887 31.0156C343.284 30.5098 343.482 29.8717 343.482 29.1016C343.482 28.3177 343.284 27.6888 342.887 27.2148C342.495 26.7409 341.964 26.5039 341.294 26.5039Z" fill="black"/>
</g>
<defs>
<linearGradient id="paint0_linear" x1="191.152" y1="382.975" x2="191.152" y2="-4.21289" gradientUnits="userSpaceOnUse">
<stop offset="0.1511" stop-color="white"/>
<stop offset="1" stop-color="#4FC3F7"/>
</linearGradient>
<clipPath id="clip0">
<rect width="375" height="375" fill="white" transform="matrix(-1 0 0 1 375.137 0.708984)"/>
</clipPath>
</defs>
</svg>
