<svg width="376" height="376" viewBox="0 0 376 376" fill="none" xmlns="http://www.w3.org/2000/svg">
<g clip-path="url(#clip0)">
<path d="M383 -9.35645H-10.75V385.8H383V-9.35645Z" fill="#8BF6FF"/>
<path d="M383.469 -2.79395H260.188V15.2839H383.469V-2.79395Z" fill="#A0A0A0"/>
<path d="M388.625 267.675H255.031V380.175H388.625V267.675Z" fill="#A0A0A0"/>
<path d="M25.8125 -2.79395H-10.2812V380.175H25.8125V-2.79395Z" fill="#A0A0A0"/>
<path d="M172.297 0.993164L172.53 375.956" stroke="#2DC873" stroke-width="6" stroke-miterlimit="10" stroke-dasharray="12 12"/>
<path d="M182.785 24.9864L172.732 10.0625L162.785 25.0625L182.785 24.9864Z" fill="#2DC873"/>
<path d="M182.785 236.715L172.732 221.791L162.785 236.791L182.785 236.715Z" fill="#2DC873"/>
<path d="M121.906 375.956V0.956055" stroke="#FF0000" stroke-width="6" stroke-miterlimit="10" stroke-dasharray="12 12"/>
<path d="M131.907 352.117L121.853 367.042L111.907 352.042L131.907 352.117Z" fill="#FF1301"/>
<path d="M131.907 164.879L121.853 179.804L111.907 164.804L131.907 164.879Z" fill="#FF1301"/>
<path d="M375.514 127.529L142.204 126.037" stroke="#FF0000" stroke-width="6" stroke-miterlimit="10" stroke-dasharray="12 12"/>
<path d="M350.143 117.529L337.728 127.476L350.081 137.529L350.143 117.529Z" fill="#FF1301"/>
<path d="M142.204 116.744L126.932 126.691L142.128 136.744L142.204 116.744Z" fill="#FF1301"/>
<path d="M375.515 187.261L169.555 187.663" stroke="#2DC873" stroke-width="6" stroke-miterlimit="10" stroke-dasharray="12 12"/>
<path d="M352.073 177.663L366.073 187.61L352.142 197.663L352.073 177.663Z" fill="#2DC873"/>
<path d="M192.23 177.663L207.23 187.61L192.305 197.663L192.23 177.663Z" fill="#2DC873"/>
<path d="M88.3364 176.786V155.539L63.2442 155.147C63.2442 155.147 42.4619 153.186 35.3364 166.198C42.1793 178.783 62.7364 177.357 62.7364 177.357L88.3364 176.786Z" fill="#E5E5E5" fill-opacity="0.6"/>
<path d="M40.7325 166.141C40.7325 166.141 40.5178 157.006 58.661 156.685C76.8047 156.365 78.8682 157.701 78.8682 157.701V174.79L73.0863 175.327H57.4884C57.4884 175.327 41.2842 174.905 40.7325 166.141Z" fill="#E2E2E2" fill-opacity="0.9"/>
<path d="M40.6211 166.162C40.4875 173.272 49.4812 175.523 57.9755 176.094L72.0495 175.859L82.2081 175.503L83.4779 169.977L82.4289 169.086L82.4548 163.168C82.4548 163.168 83.3373 162.42 83.3373 162.241C83.3373 161.237 82.1379 156.822 82.1379 156.822C82.1379 156.822 75.2407 156.664 72.1367 156.59C72.031 156.588 58.1504 156.184 57.976 156.191C49.4976 156.493 40.7666 158.431 40.6211 166.162ZM71.8377 156.911C72.0669 156.876 81.4671 157.82 81.4671 157.82C81.4671 157.82 82.1444 161.513 82.1444 162.461C82.1444 162.63 81.3012 163.337 81.3012 163.337L81.2758 168.923L82.2789 169.764L81.4671 174.682L71.8496 175.502C63.5018 175.621 63.3842 175.456 57.9755 175.502C49.6885 174.853 40.8852 172.293 41.0442 166.067C41.2021 159.88 49.7837 157.373 57.9755 156.822C58.2929 156.826 71.6966 156.983 71.8377 156.911Z" fill="#CECECE"/>
<path d="M58.9461 162.395L57.7731 163.337L57.3555 165.758H57.4412V166.145V166.181V166.261H57.3555L57.7731 168.886L58.9461 170.036C59.405 170.678 61.7147 170.794 61.7147 170.794H66.0008L66.9356 170.368L66.389 167.214L64.733 166.162L66.389 165.111L66.9356 162.056L66.0008 161.729H61.7147C61.7147 161.729 59.4045 161.753 58.9461 162.395Z" fill="#BABABA" fill-opacity="0.4"/>
<path d="M64.8405 161.956C64.7085 161.965 62.7396 163.222 62.7396 163.222L62.6729 168.895L64.6776 170.291H64.9596H65.1006H65.2417H66.9085V161.956C66.9085 161.956 64.9726 161.947 64.8405 161.956Z" fill="#C6C6C6"/>
<path d="M61.4272 162.836V165.717V166.816V169.413C61.4272 169.413 62.3461 170.245 65.1955 170.381C65.2125 170.381 65.1103 170.232 65.1103 170.232C64.5841 169.853 63.1116 169.008 63.1116 169.008L63.0702 166.266L63.0732 163.24C63.0732 163.24 64.4864 162.394 65.0126 162.016C65.0126 162.016 65.215 161.867 65.199 161.867C62.3496 162.003 61.4272 162.836 61.4272 162.836Z" fill="#29ABE2" fill-opacity="0.4"/>
<path d="M66.1724 169.282C67.319 169.282 67.4023 165.464 66.162 165.464C65.0726 165.464 64.9705 169.282 66.1724 169.282ZM66.1605 168.95C65.3407 168.95 65.4105 165.795 66.153 165.795C66.9976 165.796 66.9418 168.95 66.1605 168.95Z" fill="black" fill-opacity="0.4"/>
<path d="M65.5321 167.852C65.5321 167.852 65.8889 167.843 65.8849 167.411C65.8814 166.979 65.5635 167.036 65.5321 167.027C65.5017 167.018 65.5321 167.852 65.5321 167.852Z" fill="black" fill-opacity="0.4"/>
<path d="M65.9121 167.548L66.9087 167.659V167.09L65.9121 167.241V167.548Z" fill="black" fill-opacity="0.4"/>
<path d="M65.6391 167.16C65.6391 167.151 66.2391 165.765 66.2391 165.765L65.8863 165.712L65.4722 167.116L65.6391 167.16Z" fill="black" fill-opacity="0.4"/>
<path d="M65.6391 167.794C65.6391 167.803 66.2391 169.283 66.2391 169.283H65.8863L65.4722 167.906L65.6391 167.794Z" fill="black" fill-opacity="0.4"/>
<path d="M57.9757 156.822C57.9757 156.822 58.0106 161.492 53.1081 162.526C48.2052 163.56 41.4679 164.166 41.3269 164.237C41.1859 164.309 42.8787 157.321 57.9757 156.822Z" fill="#E8CDA0" fill-opacity="0.4"/>
<path d="M57.9757 175.503C57.9757 175.503 58.0106 170.833 53.1081 169.799C48.2052 168.766 41.4679 168.159 41.3269 168.088C41.1859 168.017 42.8787 175.004 57.9757 175.503Z" fill="#E8CDA0" fill-opacity="0.4"/>
<path d="M77.1991 175.147C77.1991 175.147 76.0624 175.489 76.4586 174.363C77.7632 170.656 78.0457 161.921 76.3883 158C76.041 157.178 76.2458 157.191 76.7939 157.215C77.2046 157.234 81.4667 157.822 81.4667 157.822C81.4667 157.822 84.0066 164.524 81.4667 174.684L77.1991 175.147Z" fill="#E8CDA0" fill-opacity="0.4"/>
<path d="M72.1526 161.729C72.3883 161.729 72.3903 162.063 72.3903 162.392V169.914C72.3903 170.244 72.3888 170.29 72.1526 170.29H69.6705C69.4358 170.29 69.4004 170.244 69.4004 169.914V162.392C69.4004 162.062 69.4363 161.729 69.6705 161.729H72.1526Z" fill="#E8CDA0" fill-opacity="0.4"/>
<path d="M53.7392 180.54C54.7673 180.54 55.6009 179.697 55.6009 178.658C55.6009 177.619 54.7673 176.776 53.7392 176.776C52.711 176.776 51.8774 177.619 51.8774 178.658C51.8774 179.697 52.711 180.54 53.7392 180.54Z" fill="#3B59AD" fill-opacity="0.4"/>
<path d="M53.7392 155.524C54.7673 155.524 55.6009 154.682 55.6009 153.642C55.6009 152.603 54.7673 151.761 53.7392 151.761C52.711 151.761 51.8774 152.603 51.8774 153.642C51.8774 154.682 52.711 155.524 53.7392 155.524Z" fill="#3B59AD" fill-opacity="0.4"/>
<path d="M74.329 155.524C75.3572 155.524 76.1907 154.682 76.1907 153.642C76.1907 152.603 75.3572 151.761 74.329 151.761C73.3008 151.761 72.4673 152.603 72.4673 153.642C72.4673 154.682 73.3008 155.524 74.329 155.524Z" fill="#3B59AD" fill-opacity="0.4"/>
<path d="M74.5478 180.761C75.5759 180.761 76.4095 179.919 76.4095 178.88C76.4095 177.84 75.5759 176.998 74.5478 176.998C73.5196 176.998 72.686 177.84 72.686 178.88C72.686 179.919 73.5196 180.761 74.5478 180.761Z" fill="#3B59AD" fill-opacity="0.4"/>
<path d="M88.3364 353.659V332.412L63.2442 332.019C63.2442 332.019 42.4619 330.059 35.3364 343.071C42.1793 355.655 62.7364 354.229 62.7364 354.229L88.3364 353.659Z" fill="#E5E5E5" fill-opacity="0.6"/>
<path d="M40.7325 343.013C40.7325 343.013 40.5178 333.878 58.661 333.558C76.8047 333.237 78.8682 334.573 78.8682 334.573V351.662L73.0863 352.199H57.4884C57.4884 352.199 41.2842 351.777 40.7325 343.013Z" fill="#E2E2E2" fill-opacity="0.9"/>
<path d="M40.6211 343.034C40.4875 350.144 49.4812 352.395 57.9755 352.966L72.0495 352.731L82.2081 352.375L83.4779 346.849L82.4289 345.958L82.4548 340.04C82.4548 340.04 83.3373 339.292 83.3373 339.113C83.3373 338.109 82.1379 333.694 82.1379 333.694C82.1379 333.694 75.2407 333.536 72.1367 333.462C72.031 333.46 58.1504 333.056 57.976 333.063C49.4976 333.365 40.7666 335.303 40.6211 343.034ZM71.8377 333.783C72.0669 333.748 81.4671 334.692 81.4671 334.692C81.4671 334.692 82.1444 338.386 82.1444 339.333C82.1444 339.502 81.3012 340.209 81.3012 340.209L81.2758 345.795L82.2789 346.636L81.4671 351.554L71.8496 352.374C63.5018 352.493 63.3842 352.328 57.9755 352.374C49.6885 351.725 40.8852 349.165 41.0442 342.939C41.2021 336.752 49.7837 334.245 57.9755 333.694C58.2929 333.698 71.6966 333.855 71.8377 333.783Z" fill="#CECECE"/>
<path d="M58.9461 339.267L57.7731 340.209L57.3555 342.63H57.4412V343.017V343.053V343.133H57.3555L57.7731 345.758L58.9461 346.908C59.405 347.55 61.7147 347.666 61.7147 347.666H66.0008L66.9356 347.24L66.389 344.086L64.733 343.034L66.389 341.984L66.9356 338.928L66.0008 338.601H61.7147C61.7147 338.601 59.4045 338.625 58.9461 339.267Z" fill="#BABABA" fill-opacity="0.4"/>
<path d="M64.8405 338.828C64.7085 338.837 62.7396 340.094 62.7396 340.094L62.6729 345.767L64.6776 347.163H64.9596H65.1006H65.2417H66.9085V338.829C66.9085 338.828 64.9726 338.819 64.8405 338.828Z" fill="#C6C6C6"/>
<path d="M61.4272 339.708V342.589V343.689V346.285C61.4272 346.285 62.3461 347.117 65.1955 347.253C65.2125 347.253 65.1103 347.104 65.1103 347.104C64.5841 346.725 63.1116 345.88 63.1116 345.88L63.0702 343.139L63.0732 340.112C63.0732 340.112 64.4864 339.267 65.0126 338.888C65.0126 338.888 65.215 338.739 65.199 338.739C62.3496 338.875 61.4272 339.708 61.4272 339.708Z" fill="#29ABE2" fill-opacity="0.4"/>
<path d="M66.1724 346.155C67.319 346.155 67.4023 342.336 66.162 342.336C65.0726 342.336 64.9705 346.155 66.1724 346.155ZM66.1605 345.822C65.3407 345.822 65.4105 342.667 66.153 342.667C66.9976 342.668 66.9418 345.822 66.1605 345.822Z" fill="black" fill-opacity="0.4"/>
<path d="M65.5321 344.724C65.5321 344.724 65.8889 344.715 65.8849 344.283C65.8814 343.851 65.5635 343.909 65.5321 343.899C65.5017 343.89 65.5321 344.724 65.5321 344.724Z" fill="black" fill-opacity="0.4"/>
<path d="M65.9121 344.42L66.9087 344.532V343.962L65.9121 344.113V344.42Z" fill="black" fill-opacity="0.4"/>
<path d="M65.6391 344.032C65.6391 344.023 66.2391 342.637 66.2391 342.637L65.8863 342.584L65.4722 343.988L65.6391 344.032Z" fill="black" fill-opacity="0.4"/>
<path d="M65.6391 344.666C65.6391 344.675 66.2391 346.155 66.2391 346.155H65.8863L65.4722 344.778L65.6391 344.666Z" fill="black" fill-opacity="0.4"/>
<path d="M57.9757 333.694C57.9757 333.694 58.0106 338.364 53.1081 339.398C48.2052 340.432 41.4679 341.038 41.3269 341.109C41.1859 341.181 42.8787 334.193 57.9757 333.694Z" fill="#E8CDA0" fill-opacity="0.4"/>
<path d="M57.9757 352.375C57.9757 352.375 58.0106 347.705 53.1081 346.671C48.2052 345.638 41.4679 345.032 41.3269 344.96C41.1859 344.889 42.8787 351.876 57.9757 352.375Z" fill="#E8CDA0" fill-opacity="0.4"/>
<path d="M77.1991 352.02C77.1991 352.02 76.0624 352.361 76.4586 351.235C77.7632 347.528 78.0457 338.793 76.3883 334.872C76.041 334.05 76.2458 334.063 76.7939 334.087C77.2046 334.106 81.4667 334.694 81.4667 334.694C81.4667 334.694 84.0066 341.396 81.4667 351.556L77.1991 352.02Z" fill="#E8CDA0" fill-opacity="0.4"/>
<path d="M72.1526 338.601C72.3883 338.601 72.3903 338.935 72.3903 339.264V346.786C72.3903 347.116 72.3888 347.162 72.1526 347.162H69.6705C69.4358 347.162 69.4004 347.116 69.4004 346.786V339.264C69.4004 338.934 69.4363 338.601 69.6705 338.601H72.1526Z" fill="#E8CDA0" fill-opacity="0.4"/>
<path d="M53.7392 357.412C54.7673 357.412 55.6009 356.569 55.6009 355.53C55.6009 354.491 54.7673 353.648 53.7392 353.648C52.711 353.648 51.8774 354.491 51.8774 355.53C51.8774 356.569 52.711 357.412 53.7392 357.412Z" fill="#3B59AD" fill-opacity="0.4"/>
<path d="M53.7392 332.396C54.7673 332.396 55.6009 331.554 55.6009 330.514C55.6009 329.475 54.7673 328.633 53.7392 328.633C52.711 328.633 51.8774 329.475 51.8774 330.514C51.8774 331.554 52.711 332.396 53.7392 332.396Z" fill="#3B59AD" fill-opacity="0.4"/>
<path d="M74.329 332.396C75.3572 332.396 76.1907 331.554 76.1907 330.514C76.1907 329.475 75.3572 328.633 74.329 328.633C73.3008 328.633 72.4673 329.475 72.4673 330.514C72.4673 331.554 73.3008 332.396 74.329 332.396Z" fill="#3B59AD" fill-opacity="0.4"/>
<path d="M74.5478 357.633C75.5759 357.633 76.4095 356.791 76.4095 355.752C76.4095 354.713 75.5759 353.87 74.5478 353.87C73.5196 353.87 72.686 354.713 72.686 355.752C72.686 356.791 73.5196 357.633 74.5478 357.633Z" fill="#3B59AD" fill-opacity="0.4"/>
<path d="M199.247 353.66V332.413L224.34 332.02C224.34 332.02 245.122 330.06 252.247 343.072C245.404 355.656 224.847 354.23 224.847 354.23L199.247 353.66Z" fill="#E5E5E5" fill-opacity="0.6"/>
<path d="M246.851 343.014C246.851 343.014 247.066 333.879 228.923 333.559C210.779 333.238 208.716 334.574 208.716 334.574V351.663L214.497 352.2H230.095C230.095 352.2 246.3 351.778 246.851 343.014Z" fill="#E2E2E2" fill-opacity="0.9"/>
<path d="M246.963 343.035C247.096 350.145 238.103 352.396 229.608 352.967L215.535 352.732L205.376 352.376L204.106 346.85L205.155 345.959L205.129 340.041C205.129 340.041 204.247 339.293 204.247 339.114C204.247 338.11 205.446 333.695 205.446 333.695C205.446 333.695 212.343 333.537 215.447 333.463C215.553 333.461 229.434 333.057 229.608 333.064C238.086 333.366 246.817 335.304 246.963 343.035ZM215.746 333.784C215.517 333.749 206.117 334.693 206.117 334.693C206.117 334.693 205.44 338.387 205.44 339.334C205.44 339.503 206.283 340.21 206.283 340.21L206.308 345.796L205.305 346.637L206.117 351.555L215.734 352.375C224.082 352.494 224.2 352.329 229.608 352.375C237.896 351.726 246.699 349.166 246.54 342.94C246.382 336.753 237.8 334.246 229.608 333.695C229.291 333.699 215.887 333.856 215.746 333.784Z" fill="#CECECE"/>
<path d="M228.638 339.268L229.811 340.21L230.228 342.631H230.143V343.018V343.054V343.134H230.228L229.811 345.759L228.638 346.909C228.179 347.551 225.869 347.667 225.869 347.667H221.583L220.648 347.241L221.195 344.087L222.851 343.035L221.195 341.985L220.648 338.929L221.583 338.602H225.869C225.869 338.602 228.179 338.626 228.638 339.268Z" fill="#BABABA" fill-opacity="0.4"/>
<path d="M222.743 338.829C222.875 338.838 224.844 340.095 224.844 340.095L224.911 345.768L222.906 347.164H222.624H222.483H222.342H220.675V338.829C220.675 338.829 222.611 338.82 222.743 338.829Z" fill="#C6C6C6"/>
<path d="M226.156 339.709V342.59V343.689V346.286C226.156 346.286 225.238 347.118 222.388 347.254C222.371 347.254 222.473 347.105 222.473 347.105C223 346.726 224.472 345.881 224.472 345.881L224.514 343.14L224.511 340.113C224.511 340.113 223.097 339.268 222.571 338.889C222.571 338.889 222.369 338.74 222.385 338.74C225.234 338.876 226.156 339.709 226.156 339.709Z" fill="#29ABE2" fill-opacity="0.4"/>
<path d="M221.412 346.155C220.265 346.155 220.182 342.337 221.422 342.337C222.511 342.337 222.614 346.155 221.412 346.155ZM221.424 345.823C222.243 345.823 222.173 342.668 221.431 342.668C220.586 342.669 220.642 345.823 221.424 345.823Z" fill="black" fill-opacity="0.4"/>
<path d="M222.052 344.725C222.052 344.725 221.695 344.716 221.699 344.284C221.702 343.852 222.02 343.91 222.052 343.9C222.082 343.891 222.052 344.725 222.052 344.725Z" fill="black" fill-opacity="0.4"/>
<path d="M221.672 344.421L220.675 344.533V343.963L221.672 344.114V344.421Z" fill="black" fill-opacity="0.4"/>
<path d="M221.945 344.033C221.945 344.024 221.345 342.638 221.345 342.638L221.698 342.585L222.112 343.989L221.945 344.033Z" fill="black" fill-opacity="0.4"/>
<path d="M221.945 344.667C221.945 344.676 221.345 346.156 221.345 346.156H221.698L222.112 344.779L221.945 344.667Z" fill="black" fill-opacity="0.4"/>
<path d="M229.608 333.695C229.608 333.695 229.573 338.365 234.476 339.399C239.379 340.433 246.116 341.039 246.257 341.11C246.398 341.182 244.705 334.194 229.608 333.695Z" fill="#E8CDA0" fill-opacity="0.4"/>
<path d="M229.608 352.376C229.608 352.376 229.573 347.706 234.476 346.672C239.379 345.639 246.116 345.032 246.257 344.961C246.398 344.89 244.705 351.877 229.608 352.376Z" fill="#E8CDA0" fill-opacity="0.4"/>
<path d="M210.385 352.021C210.385 352.021 211.522 352.362 211.125 351.236C209.821 347.529 209.538 338.794 211.196 334.873C211.543 334.051 211.338 334.064 210.79 334.088C210.379 334.107 206.117 334.695 206.117 334.695C206.117 334.695 203.577 341.397 206.117 351.557L210.385 352.021Z" fill="#E8CDA0" fill-opacity="0.4"/>
<path d="M215.431 338.602C215.196 338.602 215.194 338.936 215.194 339.265V346.787C215.194 347.117 215.195 347.163 215.431 347.163H217.914C218.148 347.163 218.184 347.117 218.184 346.787V339.265C218.184 338.935 218.148 338.602 217.914 338.602H215.431Z" fill="#E8CDA0" fill-opacity="0.4"/>
<path d="M233.845 357.413C232.816 357.413 231.983 356.57 231.983 355.531C231.983 354.492 232.816 353.649 233.845 353.649C234.873 353.649 235.706 354.492 235.706 355.531C235.706 356.57 234.873 357.413 233.845 357.413Z" fill="#3B59AD" fill-opacity="0.4"/>
<path d="M233.845 332.397C232.816 332.397 231.983 331.555 231.983 330.515C231.983 329.476 232.816 328.634 233.845 328.634C234.873 328.634 235.706 329.476 235.706 330.515C235.706 331.555 234.873 332.397 233.845 332.397Z" fill="#3B59AD" fill-opacity="0.4"/>
<path d="M213.255 332.397C212.227 332.397 211.393 331.555 211.393 330.515C211.393 329.476 212.227 328.634 213.255 328.634C214.283 328.634 215.117 329.476 215.117 330.515C215.117 331.555 214.283 332.397 213.255 332.397Z" fill="#3B59AD" fill-opacity="0.4"/>
<path d="M213.036 357.634C212.008 357.634 211.174 356.792 211.174 355.753C211.174 354.714 212.008 353.871 213.036 353.871C214.064 353.871 214.897 354.714 214.897 355.753C214.897 356.792 214.064 357.634 213.036 357.634Z" fill="#3B59AD" fill-opacity="0.4"/>
<path d="M333.301 207.89L354.548 207.89L354.941 232.982C354.941 232.982 356.901 253.764 343.889 260.89C331.305 254.047 332.731 233.49 332.731 233.49L333.301 207.89Z" fill="#E5E5E5" fill-opacity="0.6"/>
<path d="M343.947 255.494C343.947 255.494 353.081 255.709 353.402 237.566C353.723 219.422 352.387 217.358 352.387 217.358L335.297 217.358L334.761 223.14L334.761 238.738C334.761 238.738 335.183 254.942 343.947 255.494Z" fill="#E2E2E2" fill-opacity="0.9"/>
<path d="M343.925 255.605C336.815 255.739 334.564 246.745 333.993 238.251L334.228 224.177L334.585 214.018L340.11 212.748L341.002 213.797L346.919 213.771C346.919 213.771 347.668 212.889 347.846 212.889C348.85 212.889 353.266 214.088 353.266 214.088C353.266 214.088 353.423 220.985 353.497 224.089C353.499 224.195 353.903 238.076 353.897 238.25C353.594 246.728 351.656 255.459 343.925 255.605ZM353.176 224.388C353.211 224.159 352.267 214.759 352.267 214.759C352.267 214.759 348.574 214.082 347.626 214.082C347.457 214.082 346.751 214.925 346.751 214.925L341.164 214.95L340.323 213.947L335.405 214.759L334.585 224.376C334.466 232.724 334.631 232.842 334.585 238.251C335.234 246.538 337.794 255.341 344.02 255.182C350.207 255.024 352.715 246.442 353.266 238.251C353.261 237.933 353.104 224.529 353.176 224.388Z" fill="#CECECE"/>
<path d="M347.693 237.28L346.751 238.454L344.33 238.871L344.33 238.785L343.943 238.785L343.907 238.785L343.826 238.785L343.826 238.871L341.202 238.454L340.052 237.28C339.41 236.822 339.294 234.512 339.294 234.512L339.294 230.226L339.72 229.291L342.873 229.838L343.926 231.494L344.976 229.838L348.032 229.291L348.359 230.226L348.359 234.512C348.359 234.512 348.334 236.822 347.693 237.28Z" fill="#BABABA" fill-opacity="0.4"/>
<path d="M348.131 231.385C348.122 231.517 346.866 233.486 346.866 233.486L341.192 233.553L339.797 231.548L339.797 231.266L339.797 231.125L339.797 230.984L339.797 229.317L348.131 229.317C348.131 229.317 348.14 231.253 348.131 231.385Z" fill="#C6C6C6"/>
<path d="M347.251 234.799L344.37 234.799L343.271 234.799L340.674 234.799C340.674 234.799 339.842 233.88 339.706 231.031C339.706 231.014 339.856 231.116 339.856 231.116C340.234 231.642 341.079 233.115 341.079 233.115L343.821 233.156L346.848 233.153C346.848 233.153 347.693 231.74 348.071 231.213C348.071 231.213 348.22 231.011 348.22 231.027C348.084 233.876 347.251 234.799 347.251 234.799Z" fill="#29ABE2" fill-opacity="0.4"/>
<path d="M340.805 230.054C340.805 228.908 344.624 228.824 344.624 230.065C344.624 231.154 340.805 231.256 340.805 230.054ZM341.138 230.066C341.138 230.886 344.292 230.816 344.292 230.074C344.292 229.229 341.138 229.285 341.138 230.066Z" fill="black" fill-opacity="0.4"/>
<path d="M342.236 230.694C342.236 230.694 342.245 230.338 342.677 230.342C343.109 230.345 343.051 230.663 343.06 230.694C343.07 230.725 342.236 230.694 342.236 230.694Z" fill="black" fill-opacity="0.4"/>
<path d="M342.539 230.314L342.428 229.318L342.998 229.318L342.846 230.314L342.539 230.314Z" fill="black" fill-opacity="0.4"/>
<path d="M342.927 230.588C342.936 230.588 344.322 229.988 344.322 229.988L344.375 230.341L342.971 230.755L342.927 230.588Z" fill="black" fill-opacity="0.4"/>
<path d="M342.294 230.588C342.285 230.588 340.805 229.988 340.805 229.988L340.805 230.341L342.182 230.755L342.294 230.588Z" fill="black" fill-opacity="0.4"/>
<path d="M353.266 238.251C353.266 238.251 348.596 238.216 347.562 243.118C346.528 248.021 345.922 254.759 345.851 254.9C345.779 255.041 352.767 253.348 353.266 238.251Z" fill="#E8CDA0" fill-opacity="0.4"/>
<path d="M334.585 238.251C334.585 238.251 339.255 238.216 340.288 243.118C341.322 248.021 341.928 254.759 341.999 254.9C342.07 255.041 335.084 253.348 334.585 238.251Z" fill="#E8CDA0" fill-opacity="0.4"/>
<path d="M334.941 219.028C334.941 219.028 334.599 220.165 335.725 219.768C339.433 218.464 348.167 218.181 352.089 219.839C352.91 220.186 352.897 219.981 352.873 219.433C352.854 219.022 352.266 214.76 352.266 214.76C352.266 214.76 345.564 212.22 335.405 214.76L334.941 219.028Z" fill="#E8CDA0" fill-opacity="0.4"/>
<path d="M348.359 224.074C348.359 223.838 348.025 223.836 347.696 223.836L340.174 223.836C339.844 223.836 339.798 223.838 339.798 224.074L339.798 226.556C339.798 226.791 339.844 226.826 340.174 226.826L347.696 226.826C348.025 226.826 348.359 226.79 348.359 226.556L348.359 224.074Z" fill="#E8CDA0" fill-opacity="0.4"/>
<path d="M329.548 242.487C329.548 241.459 330.39 240.625 331.429 240.625C332.469 240.625 333.311 241.459 333.311 242.487C333.311 243.515 332.469 244.349 331.429 244.349C330.39 244.349 329.548 243.515 329.548 242.487Z" fill="#3B59AD" fill-opacity="0.4"/>
<path d="M354.563 242.487C354.563 241.459 355.406 240.625 356.445 240.625C357.484 240.625 358.327 241.459 358.327 242.487C358.327 243.515 357.484 244.349 356.445 244.349C355.406 244.349 354.563 243.515 354.563 242.487Z" fill="#3B59AD" fill-opacity="0.4"/>
<path d="M354.563 221.897C354.563 220.869 355.406 220.035 356.445 220.035C357.484 220.035 358.327 220.869 358.327 221.897C358.327 222.925 357.484 223.759 356.445 223.759C355.406 223.759 354.563 222.925 354.563 221.897Z" fill="#3B59AD" fill-opacity="0.4"/>
<path d="M329.327 221.678C329.327 220.65 330.169 219.817 331.208 219.817C332.247 219.817 333.09 220.65 333.09 221.678C333.09 222.707 332.247 223.54 331.208 223.54C330.169 223.54 329.327 222.707 329.327 221.678Z" fill="#3B59AD" fill-opacity="0.4"/>
<path d="M88.3364 125.678V104.431L63.2442 104.039C63.2442 104.039 42.4619 102.078 35.3364 115.09C42.1793 127.674 62.7364 126.248 62.7364 126.248L88.3364 125.678Z" fill="#E5E5E5" fill-opacity="0.6"/>
<path d="M40.7325 115.032C40.7325 115.032 40.5178 105.898 58.661 105.577C76.8047 105.256 78.8682 106.592 78.8682 106.592V123.682L73.0863 124.218H57.4884C57.4884 124.218 41.2842 123.797 40.7325 115.032Z" fill="#E2E2E2" fill-opacity="0.9"/>
<path d="M40.6211 115.054C40.4875 122.164 49.4812 124.415 57.9755 124.986L72.0495 124.751L82.2081 124.394L83.4779 118.869L82.4289 117.977L82.4548 112.06C82.4548 112.06 83.3373 111.311 83.3373 111.133C83.3373 110.129 82.1379 105.713 82.1379 105.713C82.1379 105.713 75.2407 105.556 72.1367 105.482C72.031 105.479 58.1504 105.076 57.976 105.082C49.4976 105.384 40.7666 107.323 40.6211 115.054ZM71.8377 105.803C72.0669 105.768 81.4671 106.712 81.4671 106.712C81.4671 106.712 82.1444 110.405 82.1444 111.353C82.1444 111.522 81.3012 112.228 81.3012 112.228L81.2758 117.815L82.2789 118.656L81.4671 123.574L71.8496 124.394C63.5018 124.512 63.3842 124.347 57.9755 124.394C49.6885 123.744 40.8852 121.185 41.0442 114.958C41.2021 108.771 49.7837 106.264 57.9755 105.713C58.2929 105.718 71.6966 105.874 71.8377 105.803Z" fill="#CECECE"/>
<path d="M58.9461 111.286L57.7731 112.228L57.3555 114.649H57.4412V115.037V115.072V115.153H57.3555L57.7731 117.777L58.9461 118.928C59.405 119.569 61.7147 119.686 61.7147 119.686H66.0008L66.9356 119.26L66.389 116.106L64.733 115.054L66.389 114.003L66.9356 110.947L66.0008 110.62H61.7147C61.7147 110.62 59.4045 110.645 58.9461 111.286Z" fill="#BABABA" fill-opacity="0.4"/>
<path d="M64.8405 110.848C64.7085 110.857 62.7396 112.113 62.7396 112.113L62.6729 117.787L64.6776 119.182H64.9596H65.1006H65.2417H66.9085V110.848C66.9085 110.848 64.9726 110.839 64.8405 110.848Z" fill="#C6C6C6"/>
<path d="M61.4272 111.727V114.609V115.708V118.304C61.4272 118.304 62.3461 119.137 65.1955 119.272C65.2125 119.273 65.1103 119.123 65.1103 119.123C64.5841 118.745 63.1116 117.9 63.1116 117.9L63.0702 115.158L63.0732 112.131C63.0732 112.131 64.4864 111.286 65.0126 110.907C65.0126 110.907 65.215 110.758 65.199 110.759C62.3496 110.894 61.4272 111.727 61.4272 111.727Z" fill="#29ABE2" fill-opacity="0.4"/>
<path d="M66.1724 118.174C67.319 118.174 67.4023 114.355 66.162 114.355C65.0726 114.355 64.9705 118.174 66.1724 118.174ZM66.1605 117.841C65.3407 117.841 65.4105 114.687 66.153 114.687C66.9976 114.687 66.9418 117.841 66.1605 117.841Z" fill="black" fill-opacity="0.4"/>
<path d="M65.5321 116.743C65.5321 116.743 65.8889 116.734 65.8849 116.302C65.8814 115.87 65.5635 115.928 65.5321 115.919C65.5017 115.91 65.5321 116.743 65.5321 116.743Z" fill="black" fill-opacity="0.4"/>
<path d="M65.9121 116.44L66.9087 116.551V115.981L65.9121 116.133V116.44Z" fill="black" fill-opacity="0.4"/>
<path d="M65.6391 116.052C65.6391 116.043 66.2391 114.657 66.2391 114.657L65.8863 114.604L65.4722 116.008L65.6391 116.052Z" fill="black" fill-opacity="0.4"/>
<path d="M65.6391 116.686C65.6391 116.695 66.2391 118.175 66.2391 118.175H65.8863L65.4722 116.798L65.6391 116.686Z" fill="black" fill-opacity="0.4"/>
<path d="M57.9757 105.714C57.9757 105.714 58.0106 110.384 53.1081 111.418C48.2052 112.452 41.4679 113.058 41.3269 113.129C41.1859 113.2 42.8787 106.213 57.9757 105.714Z" fill="#E8CDA0" fill-opacity="0.4"/>
<path d="M57.9757 124.395C57.9757 124.395 58.0106 119.724 53.1081 118.691C48.2052 117.657 41.4679 117.051 41.3269 116.98C41.1859 116.909 42.8787 123.895 57.9757 124.395Z" fill="#E8CDA0" fill-opacity="0.4"/>
<path d="M77.1991 124.039C77.1991 124.039 76.0624 124.381 76.4586 123.254C77.7632 119.547 78.0457 110.813 76.3883 106.891C76.041 106.07 76.2458 106.083 76.7939 106.107C77.2046 106.126 81.4667 106.713 81.4667 106.713C81.4667 106.713 84.0066 113.415 81.4667 123.575L77.1991 124.039Z" fill="#E8CDA0" fill-opacity="0.4"/>
<path d="M72.1526 110.62C72.3883 110.62 72.3903 110.955 72.3903 111.284V118.806C72.3903 119.136 72.3888 119.182 72.1526 119.182H69.6705C69.4358 119.182 69.4004 119.136 69.4004 118.806V111.284C69.4004 110.954 69.4363 110.62 69.6705 110.62H72.1526Z" fill="#E8CDA0" fill-opacity="0.4"/>
<path d="M53.7392 129.431C54.7673 129.431 55.6009 128.589 55.6009 127.55C55.6009 126.51 54.7673 125.668 53.7392 125.668C52.711 125.668 51.8774 126.51 51.8774 127.55C51.8774 128.589 52.711 129.431 53.7392 129.431Z" fill="#3B59AD" fill-opacity="0.4"/>
<path d="M53.7392 104.416C54.7673 104.416 55.6009 103.573 55.6009 102.534C55.6009 101.495 54.7673 100.652 53.7392 100.652C52.711 100.652 51.8774 101.495 51.8774 102.534C51.8774 103.573 52.711 104.416 53.7392 104.416Z" fill="#3B59AD" fill-opacity="0.4"/>
<path d="M74.329 104.416C75.3572 104.416 76.1907 103.573 76.1907 102.534C76.1907 101.495 75.3572 100.652 74.329 100.652C73.3008 100.652 72.4673 101.495 72.4673 102.534C72.4673 103.573 73.3008 104.416 74.329 104.416Z" fill="#3B59AD" fill-opacity="0.4"/>
<path d="M74.5478 129.653C75.5759 129.653 76.4095 128.81 76.4095 127.771C76.4095 126.732 75.5759 125.89 74.5478 125.89C73.5196 125.89 72.686 126.732 72.686 127.771C72.686 128.81 73.5196 129.653 74.5478 129.653Z" fill="#3B59AD" fill-opacity="0.4"/>
<path opacity="0.8" d="M103.033 9.4407C103.761 14.597 107.106 19.5423 107.978 24.0207C108.851 28.4996 107.687 31.9927 108.705 37.3735C109.723 42.7543 113.36 45.9554 114.378 49.7368C115.396 53.5173 115.718 60.4201 117.957 63.1505C120.196 65.881 122.307 64.8226 122.307 64.8226C122.307 64.8226 124.122 65.2636 125.855 63.1491C128.093 60.4191 128.416 53.5149 129.435 49.7335C130.453 45.953 134.088 42.7487 135.107 37.3674C136.125 31.9862 134.961 28.4982 135.834 24.0198C136.706 19.5413 140.051 14.596 140.779 9.43976L103.033 9.4407Z" fill="url(#paint0_linear)"/>
<path d="M111.253 33.2926H132.515L132.906 58.6183C132.906 58.6183 134.869 79.6103 121.848 86.8164C109.256 79.8953 110.682 59.1447 110.682 59.1447L111.253 33.2926Z" fill="#D1D1D1"/>
<path d="M121.774 81.3335C121.774 81.3335 130.981 81.6879 131.301 63.3391C131.623 44.9895 130.352 43.0395 130.352 43.0395H113.251L112.45 48.6124V64.3877C112.45 64.3882 113.004 80.7762 121.774 81.3335Z" fill="#F4F4F4"/>
<path d="M121.884 81.4468C114.769 81.5813 112.516 72.4866 111.945 63.8954L112.18 49.6618L112.537 39.3877L118.067 38.1048L118.959 39.1651L124.88 39.1379C124.88 39.1379 125.63 38.2468 125.808 38.2468C126.813 38.2468 131.231 39.4599 131.231 39.4599C131.231 39.4599 131.389 46.4354 131.462 49.5746C131.465 49.681 131.869 63.7191 131.862 63.8963C131.56 72.4697 129.62 81.2991 121.884 81.4468ZM131.141 49.876C131.177 49.6435 130.232 40.1377 130.232 40.1377C130.232 40.1377 126.536 39.4533 125.588 39.4533C125.419 39.4533 124.712 40.3051 124.712 40.3051L119.121 40.3313L118.279 39.317L113.358 40.1373L112.538 49.8647C112.419 58.3074 112.585 58.426 112.538 63.8963C113.188 72.2771 115.749 81.1801 121.979 81.0193C128.171 80.859 130.68 72.1801 131.232 63.8963C131.227 63.5738 131.069 50.0185 131.141 49.876Z" fill="#E8E8E8"/>
<path d="M121.96 64.5343L121.964 64.6201L119.128 64.1982L117.97 63.0118C117.328 62.5487 117.204 60.2115 117.204 60.2115V55.8775L117.653 54.9315L120.821 55.4846L121.979 57.2725L121.96 58.7575V64.5343Z" fill="white"/>
<path d="M121.902 64.5339L121.963 64.6201L124.635 64.1982L125.771 63.0118C126.413 62.5487 126.515 60.2115 126.515 60.2115V55.8775L126.109 54.9315L122.964 55.4846L121.845 57.2725L121.899 58.7584L121.902 64.5339Z" fill="white"/>
<path d="M126.093 56.9863C126.083 57.1199 124.827 59.0943 124.827 59.0943L119.114 59.1543L117.681 57.118V56.8326V56.6896V56.5466V54.928H126.094C126.093 54.928 126.102 56.8518 126.093 56.9863Z" fill="#C6C6C6"/>
<path d="M124.96 30.1206C124.958 29.6987 124.615 29.3575 124.192 29.3603L119.742 29.3837C119.32 29.3866 118.979 29.7306 118.981 30.153L119.018 36.9892C119.02 37.4111 119.364 37.7519 119.787 37.75L124.236 37.7252C124.658 37.7233 124.999 37.3792 124.997 36.9569L124.96 30.1206Z" fill="#394963"/>
<path d="M125.214 60.8711H122.33H121.23H118.632C118.632 60.8711 117.8 59.7091 117.664 56.8272C117.663 56.8099 117.811 56.7967 117.811 56.7967C118.19 57.3297 119.037 58.7599 119.037 58.7599L121.781 58.7735L124.809 58.7556C124.809 58.7556 125.655 57.3194 126.033 56.7869C126.033 56.7869 126.183 56.8113 126.182 56.8282C126.046 59.7081 125.214 60.8711 125.214 60.8711Z" fill="#29ABE2"/>
<path d="M118.762 55.6047C118.762 54.445 122.583 54.3616 122.583 55.615C122.583 56.7171 118.762 56.8207 118.762 55.6047ZM119.095 55.6179C119.095 56.4471 122.251 56.3758 122.251 55.6258C122.251 54.7703 119.095 54.8275 119.095 55.6179Z" fill="black"/>
<path d="M120.194 56.2526C120.194 56.2526 120.203 55.8913 120.635 55.8955C121.068 55.9002 121.009 56.2208 121.018 56.2526C121.028 56.284 120.194 56.2526 120.194 56.2526Z" fill="black"/>
<path d="M120.497 55.8779L120.385 54.9278H120.956L120.804 55.8779H120.497Z" fill="black"/>
<path d="M120.885 56.1453C120.893 56.1453 122.28 55.5392 122.28 55.5392L122.334 55.8954L120.929 56.3154L120.885 56.1453Z" fill="black"/>
<path d="M120.305 56.1453C120.296 56.1453 118.869 55.5392 118.869 55.5392V55.8954L120.221 56.3154L120.305 56.1453Z" fill="black"/>
<path d="M131.231 63.8956C131.231 63.8956 126.557 63.86 125.522 68.8184C124.488 73.7769 123.881 80.5906 123.81 80.7336C123.74 80.8761 130.731 79.1637 131.231 63.8956Z" fill="#D79056"/>
<path d="M112.537 63.8956C112.537 63.8956 117.211 63.86 118.246 68.8184C119.28 73.7769 119.887 80.5906 119.958 80.7336C120.029 80.8761 113.037 79.1637 112.537 63.8956Z" fill="#D79056"/>
<path d="M112.894 44.4529C112.894 44.4529 112.552 45.6028 113.678 45.2025C117.388 43.8829 126.129 43.597 130.053 45.2732C130.875 45.6248 130.863 45.4171 130.837 44.8631C130.819 44.4468 130.231 40.1366 130.231 40.1366C130.231 40.1366 123.524 37.5683 113.358 40.1366L112.894 44.4529Z" fill="#D79056"/>
<path d="M126.239 49.5577C126.239 49.3196 125.987 49.2216 125.656 49.2216H118.13C117.8 49.2216 117.442 49.3196 117.442 49.5577V52.0674C117.442 52.306 117.8 52.5498 118.13 52.5498H125.656C125.987 52.5498 126.239 52.3056 126.239 52.0674V49.5577Z" fill="#B5A081"/>
<path d="M118.973 54.2703C118.973 54.2703 119.394 54.7944 119.59 53.9605C119.787 53.1271 120.17 52.2922 120.17 52.2922C120.17 52.2922 121.067 52.5524 121.189 52.7975C121.311 53.0418 121.209 54.1607 121.986 54.441C122.763 54.7222 123.115 54.8989 122.783 53.7233C122.451 52.5486 122.33 51.7199 122.33 51.7199L119.096 51.0003L118.973 54.0866" fill="#996234"/>
<path d="M119.381 51.16C119.381 51.16 118.203 53.0636 118.832 52.9994C119.46 52.9352 119.134 52.5306 119.932 52.4889C120.731 52.4472 120.622 53.103 121.602 52.7678C122.582 52.4322 122.947 52.592 122.783 52.0586C122.619 51.5252 122.581 51.16 122.581 51.16H119.381Z" fill="#EF45B7"/>
<path d="M118.444 51.2961C118.444 51.2961 118.39 52.6896 118.353 53.0492C118.283 53.7232 118.856 55.121 118.856 55.3775C118.856 55.6329 118.896 55.9001 119.234 55.5214C119.572 55.1426 119.241 53.8709 119.097 53.2343C118.952 52.5987 119.366 51.8229 119.381 51.6185C119.397 51.4132 118.973 51.7081 118.973 51.7081L118.444 51.2961Z" fill="#996234"/>
<path d="M122.821 51.2085C122.821 51.2085 123.259 52.6897 123.296 53.0502C123.366 53.7242 122.792 55.122 122.792 55.3784C122.792 55.6339 122.752 55.9011 122.414 55.5223C122.076 55.1436 122.408 53.8719 122.551 53.2353C122.696 52.5997 122.002 51.8881 121.986 51.6833C121.97 51.478 122.675 51.7091 122.675 51.7091L122.821 51.2085Z" fill="#996234"/>
<path d="M117.826 51.2965C117.826 51.2965 118.088 49.5724 119.155 49.2227C120.222 48.873 120.591 48.7521 121.55 49.1669C122.509 49.5818 123.017 49.3526 122.944 50.2184C122.872 51.0832 123.451 51.5313 122.621 51.6668C121.727 51.8131 119.321 51.9766 119.155 51.9968C118.135 52.1168 117.826 51.2965 117.826 51.2965Z" fill="#8BC7E8"/>
<path d="M120.43 49.2221C120.43 49.2221 119.461 49.3173 119.606 50.1165C119.752 50.9157 119.326 51.2077 120.01 51.4571C120.695 51.7069 121.035 52.3744 121.336 51.7069C121.638 51.0399 121.856 50.686 121.638 50.2168C121.42 49.7476 121.467 49.6327 121.189 49.3355C120.913 49.0393 120.43 49.2221 120.43 49.2221Z" fill="#301705"/>
<path opacity="0.8" d="M291.663 107.165C286.507 107.893 281.561 111.238 277.083 112.11C272.604 112.983 269.111 111.819 263.73 112.837C258.349 113.855 255.148 117.492 251.367 118.51C247.587 119.528 240.684 119.85 237.953 122.089C235.223 124.328 236.281 126.439 236.281 126.439C236.281 126.439 235.84 128.254 237.955 129.987C240.685 132.225 247.589 132.548 251.37 133.566C255.151 134.585 258.355 138.22 263.736 139.239C269.118 140.257 272.606 139.093 277.084 139.966C281.562 140.838 286.508 144.183 291.664 144.911L291.663 107.165Z" fill="url(#paint1_linear)"/>
<path d="M267.811 115.385L267.811 136.646L242.485 137.038C242.485 137.038 221.493 139 214.287 125.979C221.208 113.387 241.959 114.813 241.959 114.813L267.811 115.385Z" fill="#D1D1D1"/>
<path d="M219.771 125.905C219.771 125.905 219.416 135.112 237.765 135.433C256.115 135.754 258.065 134.484 258.065 134.484L258.065 117.383L252.492 116.582L236.716 116.582C236.716 116.582 220.328 117.135 219.771 125.905Z" fill="#F4F4F4"/>
<path d="M219.657 126.016C219.522 118.901 228.617 116.648 237.208 116.077L251.442 116.312L261.716 116.669L262.999 122.199L261.939 123.091L261.966 129.012C261.966 129.012 262.857 129.761 262.857 129.939C262.857 130.945 261.644 135.363 261.644 135.363C261.644 135.363 254.668 135.521 251.529 135.594C251.423 135.596 237.385 136 237.207 135.994C228.634 135.692 219.805 133.752 219.657 126.016ZM251.228 135.272C251.46 135.309 260.966 134.364 260.966 134.364C260.966 134.364 261.65 130.667 261.65 129.72C261.65 129.55 260.799 128.844 260.799 128.844L260.772 123.253L261.787 122.411L260.966 117.49L251.239 116.67C242.796 116.551 242.678 116.717 237.207 116.67C228.827 117.32 219.924 119.881 220.084 126.111C220.245 132.303 228.924 134.812 237.207 135.363C237.53 135.359 251.085 135.201 251.228 135.272Z" fill="#E8E8E8"/>
<path d="M236.569 126.091L236.484 126.095L236.906 123.259L238.092 122.102C238.555 121.459 240.892 121.336 240.892 121.336L245.226 121.336L246.172 121.785L245.619 124.953L243.831 126.111L242.346 126.091L236.569 126.091Z" fill="white"/>
<path d="M236.57 126.033L236.484 126.095L236.906 128.767L238.092 129.902C238.555 130.544 240.892 130.646 240.892 130.646L245.226 130.646L246.172 130.241L245.619 127.095L243.831 125.977L242.345 126.03L236.57 126.033Z" fill="white"/>
<path d="M244.118 130.225C243.984 130.215 242.01 128.958 242.01 128.958L241.95 123.245L243.986 121.813L244.271 121.813L244.414 121.813L244.557 121.813L246.176 121.813L246.176 130.225C246.176 130.225 244.252 130.233 244.118 130.225Z" fill="#C6C6C6"/>
<path d="M270.983 129.091C271.405 129.089 271.746 128.746 271.743 128.323L271.72 123.873C271.717 123.451 271.373 123.11 270.951 123.112L264.115 123.149C263.693 123.151 263.352 123.495 263.354 123.918L263.379 128.367C263.38 128.789 263.725 129.13 264.147 129.128L270.983 129.091Z" fill="#394963"/>
<path d="M240.232 129.345L240.232 126.462L240.232 125.361L240.232 122.763C240.232 122.763 241.394 121.931 244.276 121.795C244.293 121.794 244.307 121.943 244.307 121.943C243.774 122.322 242.343 123.168 242.343 123.168L242.33 125.912L242.348 128.941C242.348 128.941 243.784 129.787 244.316 130.164C244.316 130.164 244.292 130.314 244.275 130.313C241.395 130.177 240.232 129.345 240.232 129.345Z" fill="#29ABE2"/>
<path d="M245.499 122.894C246.658 122.894 246.742 126.714 245.488 126.714C244.386 126.715 244.283 122.894 245.499 122.894ZM245.486 123.226C244.656 123.226 244.728 126.382 245.478 126.382C246.333 126.382 246.276 123.226 245.486 123.226Z" fill="black"/>
<path d="M244.851 124.325C244.851 124.325 245.213 124.335 245.209 124.766C245.204 125.199 244.883 125.14 244.851 125.15C244.82 125.159 244.851 124.325 244.851 124.325Z" fill="black"/>
<path d="M245.226 124.628L246.176 124.517L246.176 125.088L245.226 124.935L245.226 124.628Z" fill="black"/>
<path d="M244.958 125.016C244.958 125.025 245.564 126.411 245.564 126.411L245.208 126.465L244.788 125.06L244.958 125.016Z" fill="black"/>
<path d="M244.958 124.436C244.958 124.428 245.564 123.001 245.564 123.001L245.208 123.001L244.788 124.352L244.958 124.436Z" fill="black"/>
<path d="M237.208 135.362C237.208 135.362 237.244 130.688 232.286 129.653C227.327 128.619 220.513 128.013 220.37 127.942C220.228 127.871 221.94 134.863 237.208 135.362Z" fill="#D79056"/>
<path d="M237.208 116.669C237.208 116.669 237.244 121.343 232.286 122.377C227.327 123.412 220.513 124.018 220.37 124.089C220.228 124.161 221.94 117.168 237.208 116.669Z" fill="#D79056"/>
<path d="M256.651 117.025C256.651 117.025 255.501 116.684 255.901 117.81C257.221 121.52 257.507 130.26 255.831 134.184C255.479 135.006 255.687 134.994 256.241 134.969C256.657 134.95 260.967 134.363 260.967 134.363C260.967 134.363 263.535 127.655 260.967 117.489L256.651 117.025Z" fill="#D79056"/>
<path d="M251.547 130.371C251.785 130.371 251.883 130.119 251.883 129.788L251.883 122.261C251.883 121.932 251.785 121.574 251.547 121.574L249.037 121.574C248.798 121.574 248.554 121.932 248.554 122.261L248.554 129.788C248.554 130.119 248.799 130.371 249.037 130.371L251.547 130.371Z" fill="#B5A081"/>
<path d="M246.833 123.104C246.833 123.104 246.309 123.525 247.143 123.722C247.977 123.919 248.812 124.302 248.812 124.302C248.812 124.302 248.551 125.198 248.306 125.321C248.062 125.443 246.943 125.34 246.663 126.118C246.382 126.895 246.205 127.246 247.38 126.914C248.555 126.583 249.384 126.462 249.384 126.462L250.103 123.228L247.017 123.104" fill="#996234"/>
<path d="M249.944 123.512C249.944 123.512 248.04 122.334 248.105 122.963C248.169 123.592 248.573 123.266 248.615 124.064C248.657 124.862 248.001 124.753 248.336 125.734C248.672 126.713 248.512 127.079 249.045 126.915C249.579 126.751 249.944 126.713 249.944 126.713L249.944 123.512Z" fill="#EF45B7"/>
<path d="M249.808 122.576C249.808 122.576 248.414 122.521 248.055 122.484C247.381 122.415 245.983 122.987 245.726 122.987C245.471 122.987 245.204 123.028 245.582 123.366C245.961 123.704 247.233 123.372 247.869 123.228C248.505 123.084 249.281 123.497 249.485 123.512C249.691 123.528 249.396 123.105 249.396 123.105L249.808 122.576Z" fill="#996234"/>
<path d="M249.895 126.953C249.895 126.953 248.414 127.391 248.054 127.428C247.38 127.497 245.982 126.924 245.725 126.924C245.47 126.924 245.203 126.883 245.581 126.545C245.96 126.207 247.232 126.54 247.868 126.683C248.504 126.828 249.216 126.133 249.42 126.117C249.626 126.102 249.395 126.807 249.395 126.807L249.895 126.953Z" fill="#996234"/>
<path d="M249.808 121.958C249.808 121.958 251.532 122.22 251.881 123.286C252.231 124.354 252.352 124.723 251.937 125.682C251.522 126.64 251.751 127.148 250.886 127.076C250.021 127.004 249.573 127.583 249.437 126.753C249.291 125.858 249.127 123.453 249.107 123.286C248.987 122.267 249.808 121.958 249.808 121.958Z" fill="#8BC7E8"/>
<path d="M251.881 124.561C251.881 124.561 251.786 123.593 250.987 123.737C250.188 123.883 249.896 123.457 249.646 124.142C249.397 124.826 248.729 125.167 249.397 125.468C250.064 125.77 250.418 125.988 250.887 125.77C251.356 125.552 251.471 125.598 251.768 125.321C252.064 125.044 251.881 124.561 251.881 124.561Z" fill="#301705"/>
<path opacity="0.8" d="M208.346 168.79C213.502 169.518 218.448 172.863 222.926 173.735C227.405 174.608 230.898 173.444 236.279 174.462C241.66 175.48 244.861 179.117 248.642 180.135C252.423 181.153 259.325 181.475 262.056 183.714C264.786 185.953 263.728 188.064 263.728 188.064C263.728 188.064 264.169 189.879 262.054 191.612C259.324 193.85 252.42 194.173 248.639 195.191C244.858 196.21 241.654 199.845 236.273 200.864C230.891 201.882 227.403 200.718 222.925 201.591C218.447 202.463 213.501 205.808 208.345 206.536L208.346 168.79Z" fill="url(#paint2_linear)"/>
<path d="M232.198 177.01L232.198 198.271L257.524 198.663C257.524 198.663 278.516 200.625 285.722 187.604C278.801 175.012 258.05 176.438 258.05 176.438L232.198 177.01Z" fill="#D1D1D1"/>
<path d="M280.239 187.53C280.239 187.53 280.593 196.737 262.244 197.058C243.895 197.379 241.945 196.109 241.945 196.109L241.945 179.008L247.517 178.207L263.293 178.207C263.293 178.207 279.681 178.76 280.239 187.53Z" fill="#F4F4F4"/>
<path d="M280.352 187.641C280.487 180.526 271.392 178.273 262.801 177.702L248.567 177.937L238.293 178.294L237.01 183.824L238.07 184.716L238.043 190.637C238.043 190.637 237.152 191.386 237.152 191.564C237.152 192.57 238.365 196.988 238.365 196.988C238.365 196.988 245.341 197.146 248.48 197.219C248.586 197.221 262.624 197.625 262.802 197.619C271.375 197.317 280.204 195.377 280.352 187.641ZM248.781 196.897C248.549 196.934 239.043 195.989 239.043 195.989C239.043 195.989 238.359 192.292 238.359 191.345C238.359 191.175 239.21 190.469 239.21 190.469L239.237 184.878L238.222 184.036L239.043 179.115L248.77 178.295C257.213 178.176 257.331 178.342 262.802 178.295C271.182 178.945 280.085 181.506 279.925 187.736C279.764 193.928 271.085 196.437 262.802 196.988C262.479 196.984 248.924 196.826 248.781 196.897Z" fill="#E8E8E8"/>
<path d="M263.44 187.716L263.525 187.72L263.104 184.884L261.917 183.727C261.454 183.084 259.117 182.961 259.117 182.961L254.783 182.961L253.837 183.41L254.39 186.578L256.178 187.736L257.663 187.716L263.44 187.716Z" fill="white"/>
<path d="M263.439 187.658L263.525 187.72L263.104 190.392L261.917 191.527C261.454 192.169 259.117 192.271 259.117 192.271L254.783 192.271L253.837 191.866L254.39 188.72L256.178 187.602L257.664 187.655L263.439 187.658Z" fill="white"/>
<path d="M255.891 191.85C256.025 191.84 257.999 190.583 257.999 190.583L258.059 184.87L256.023 183.438L255.738 183.438L255.595 183.438L255.452 183.438L253.833 183.438L253.833 191.85C253.833 191.85 255.757 191.858 255.891 191.85Z" fill="#C6C6C6"/>
<path d="M229.026 190.716C228.604 190.714 228.263 190.371 228.266 189.948L228.289 185.498C228.292 185.076 228.636 184.735 229.058 184.737L235.894 184.774C236.316 184.776 236.657 185.12 236.655 185.543L236.63 189.992C236.629 190.414 236.284 190.755 235.862 190.753L229.026 190.716Z" fill="#394963"/>
<path d="M259.777 190.97L259.777 188.087L259.777 186.986L259.777 184.388C259.777 184.388 258.615 183.556 255.733 183.42C255.716 183.419 255.702 183.568 255.702 183.568C256.235 183.947 257.666 184.793 257.666 184.793L257.679 187.537L257.661 190.566C257.661 190.566 256.225 191.412 255.693 191.789C255.693 191.789 255.717 191.939 255.734 191.938C258.614 191.802 259.777 190.97 259.777 190.97Z" fill="#29ABE2"/>
<path d="M254.51 184.519C253.351 184.519 253.267 188.339 254.521 188.339C255.623 188.34 255.726 184.519 254.51 184.519ZM254.523 184.851C255.353 184.851 255.281 188.007 254.531 188.007C253.676 188.007 253.733 184.851 254.523 184.851Z" fill="black"/>
<path d="M255.158 185.95C255.158 185.95 254.796 185.96 254.801 186.391C254.805 186.824 255.126 186.765 255.158 186.775C255.189 186.784 255.158 185.95 255.158 185.95Z" fill="black"/>
<path d="M254.783 186.253L253.833 186.142L253.833 186.713L254.783 186.56L254.783 186.253Z" fill="black"/>
<path d="M255.051 186.641C255.051 186.65 254.445 188.036 254.445 188.036L254.801 188.09L255.221 186.685L255.051 186.641Z" fill="black"/>
<path d="M255.051 186.061C255.051 186.053 254.445 184.626 254.445 184.626L254.801 184.626L255.221 185.977L255.051 186.061Z" fill="black"/>
<path d="M262.801 196.987C262.801 196.987 262.765 192.313 267.723 191.278C272.682 190.244 279.496 189.638 279.639 189.567C279.781 189.496 278.069 196.488 262.801 196.987Z" fill="#D79056"/>
<path d="M262.801 178.294C262.801 178.294 262.765 182.968 267.723 184.002C272.682 185.037 279.496 185.643 279.639 185.714C279.781 185.786 278.069 178.793 262.801 178.294Z" fill="#D79056"/>
<path d="M243.358 178.65C243.358 178.65 244.508 178.309 244.108 179.435C242.788 183.145 242.502 191.885 244.179 195.809C244.53 196.631 244.322 196.619 243.768 196.594C243.352 196.575 239.042 195.988 239.042 195.988C239.042 195.988 236.474 189.28 239.042 179.114L243.358 178.65Z" fill="#D79056"/>
<path d="M248.463 191.996C248.224 191.996 248.126 191.744 248.126 191.413L248.126 183.886C248.126 183.557 248.224 183.199 248.463 183.199L250.972 183.199C251.211 183.199 251.455 183.557 251.455 183.886L251.455 191.413C251.455 191.744 251.21 191.996 250.972 191.996L248.463 191.996Z" fill="#B5A081"/>
<path d="M253.176 184.729C253.176 184.729 253.7 185.15 252.866 185.347C252.032 185.544 251.198 185.927 251.198 185.927C251.198 185.927 251.458 186.823 251.703 186.946C251.947 187.068 253.066 186.965 253.346 187.743C253.627 188.52 253.804 188.871 252.629 188.539C251.454 188.208 250.625 188.087 250.625 188.087L249.906 184.853L252.992 184.729" fill="#996234"/>
<path d="M250.065 185.137C250.065 185.137 251.969 183.959 251.904 184.588C251.84 185.217 251.436 184.891 251.394 185.689C251.352 186.487 252.008 186.378 251.673 187.359C251.337 188.338 251.497 188.704 250.964 188.54C250.43 188.376 250.065 188.338 250.065 188.338L250.065 185.137Z" fill="#EF45B7"/>
<path d="M250.201 184.201C250.201 184.201 251.595 184.146 251.954 184.109C252.629 184.04 254.026 184.612 254.283 184.612C254.538 184.612 254.805 184.653 254.427 184.991C254.048 185.329 252.776 184.997 252.14 184.853C251.504 184.709 250.728 185.122 250.524 185.137C250.319 185.153 250.613 184.73 250.613 184.73L250.201 184.201Z" fill="#996234"/>
<path d="M250.114 188.578C250.114 188.578 251.595 189.016 251.955 189.053C252.63 189.122 254.027 188.549 254.284 188.549C254.539 188.549 254.806 188.508 254.428 188.17C254.049 187.832 252.777 188.165 252.141 188.308C251.505 188.453 250.793 187.758 250.589 187.742C250.383 187.727 250.614 188.432 250.614 188.432L250.114 188.578Z" fill="#996234"/>
<path d="M250.202 183.583C250.202 183.583 248.477 183.845 248.128 184.911C247.778 185.979 247.657 186.348 248.072 187.307C248.487 188.265 248.258 188.773 249.123 188.701C249.988 188.629 250.436 189.208 250.572 188.378C250.718 187.483 250.882 185.078 250.902 184.911C251.022 183.892 250.202 183.583 250.202 183.583Z" fill="#8BC7E8"/>
<path d="M248.128 186.186C248.128 186.186 248.223 185.218 249.022 185.362C249.821 185.508 250.113 185.082 250.363 185.767C250.612 186.451 251.28 186.792 250.612 187.093C249.945 187.395 249.592 187.613 249.122 187.395C248.653 187.177 248.538 187.223 248.241 186.946C247.945 186.669 248.128 186.186 248.128 186.186Z" fill="#301705"/>
<path opacity="0.8" d="M153.912 339.235C154.64 334.079 157.985 329.134 158.857 324.655C159.73 320.176 158.566 316.683 159.584 311.302C160.602 305.921 164.239 302.72 165.257 298.939C166.275 295.159 166.597 288.256 168.836 285.525C171.076 282.795 173.186 283.853 173.186 283.853C173.186 283.853 175.001 283.412 176.734 285.527C178.972 288.257 179.295 295.161 180.314 298.942C181.332 302.723 184.968 305.927 185.986 311.308C187.004 316.69 185.84 320.178 186.713 324.656C187.585 329.134 190.93 334.08 191.658 339.236L153.912 339.235Z" fill="url(#paint3_linear)"/>
<path d="M162.133 315.383H183.394L183.786 290.058C183.786 290.058 185.748 269.065 172.727 261.859C160.135 268.78 161.561 289.531 161.561 289.531L162.133 315.383Z" fill="#D1D1D1"/>
<path d="M172.653 267.342C172.653 267.342 181.86 266.988 182.18 285.337C182.502 303.686 181.232 305.636 181.232 305.636H164.13L163.33 300.063V284.288C163.329 284.288 163.883 267.9 172.653 267.342Z" fill="#F4F4F4"/>
<path d="M172.763 267.229C165.648 267.094 163.395 276.189 162.824 284.78L163.059 299.014L163.416 309.288L168.946 310.571L169.838 309.511L175.76 309.538C175.76 309.538 176.509 310.429 176.687 310.429C177.692 310.429 182.11 309.216 182.11 309.216C182.11 309.216 182.268 302.24 182.341 299.101C182.344 298.995 182.748 284.957 182.742 284.779C182.439 276.206 180.5 267.377 172.763 267.229ZM182.02 298.8C182.056 299.032 181.111 308.538 181.111 308.538C181.111 308.538 177.415 309.222 176.467 309.222C176.298 309.222 175.591 308.371 175.591 308.371L170.001 308.344L169.158 309.359L164.237 308.539L163.417 298.811C163.298 290.368 163.464 290.25 163.417 284.779C164.068 276.399 166.628 267.496 172.859 267.657C179.05 267.817 181.559 276.496 182.111 284.779C182.106 285.102 181.949 298.657 182.02 298.8Z" fill="#E8E8E8"/>
<path d="M172.839 284.141L172.843 284.056L170.007 284.478L168.849 285.664C168.207 286.127 168.083 288.464 168.083 288.464V292.798L168.533 293.744L171.7 293.191L172.858 291.403L172.839 289.918V284.141Z" fill="white"/>
<path d="M172.781 284.142L172.842 284.056L175.514 284.478L176.65 285.664C177.292 286.127 177.394 288.464 177.394 288.464V292.798L176.989 293.744L173.843 293.191L172.724 291.403L172.778 289.917L172.781 284.142Z" fill="white"/>
<path d="M176.972 291.689C176.963 291.556 175.706 289.581 175.706 289.581L169.993 289.521L168.56 291.558V291.843V291.986V292.129V293.748H176.973C176.972 293.748 176.981 291.824 176.972 291.689Z" fill="#C6C6C6"/>
<path d="M175.839 318.555C175.837 318.977 175.494 319.318 175.071 319.315L170.621 319.292C170.199 319.289 169.858 318.945 169.86 318.523L169.897 311.687C169.899 311.265 170.243 310.924 170.666 310.926L175.116 310.951C175.537 310.952 175.878 311.297 175.876 311.719L175.839 318.555Z" fill="#394963"/>
<path d="M176.093 287.805H173.21H172.109H169.511C169.511 287.805 168.679 288.967 168.543 291.849C168.542 291.866 168.69 291.879 168.69 291.879C169.07 291.346 169.916 289.916 169.916 289.916L172.66 289.902L175.688 289.92C175.688 289.92 176.534 291.356 176.912 291.889C176.912 291.889 177.062 291.865 177.061 291.848C176.925 288.968 176.093 287.805 176.093 287.805Z" fill="#29ABE2"/>
<path d="M169.641 293.071C169.641 294.231 173.462 294.314 173.462 293.061C173.463 291.959 169.641 291.855 169.641 293.071ZM169.974 293.058C169.974 292.229 173.13 292.3 173.13 293.05C173.13 293.905 169.974 293.848 169.974 293.058Z" fill="black"/>
<path d="M171.073 292.423C171.073 292.423 171.082 292.785 171.514 292.78C171.947 292.776 171.888 292.455 171.898 292.423C171.907 292.392 171.073 292.423 171.073 292.423Z" fill="black"/>
<path d="M171.376 292.798L171.265 293.748H171.836L171.683 292.798H171.376Z" fill="black"/>
<path d="M171.764 292.53C171.773 292.53 173.159 293.137 173.159 293.137L173.213 292.78L171.808 292.36L171.764 292.53Z" fill="black"/>
<path d="M171.184 292.53C171.175 292.53 169.749 293.137 169.749 293.137V292.78L171.1 292.36L171.184 292.53Z" fill="black"/>
<path d="M182.11 284.78C182.11 284.78 177.436 284.816 176.401 279.857C175.367 274.899 174.76 268.085 174.689 267.942C174.619 267.8 181.61 269.512 182.11 284.78Z" fill="#D79056"/>
<path d="M163.417 284.78C163.417 284.78 168.09 284.816 169.125 279.857C170.159 274.899 170.766 268.085 170.837 267.942C170.908 267.8 163.916 269.512 163.417 284.78Z" fill="#D79056"/>
<path d="M163.773 304.223C163.773 304.223 163.431 303.073 164.557 303.473C168.267 304.793 177.008 305.079 180.932 303.403C181.754 303.051 181.742 303.259 181.716 303.813C181.698 304.229 181.11 308.539 181.11 308.539C181.11 308.539 174.403 311.107 164.237 308.539L163.773 304.223Z" fill="#D79056"/>
<path d="M177.119 299.118C177.119 299.356 176.866 299.454 176.535 299.454H169.009C168.679 299.454 168.322 299.356 168.322 299.118V296.608C168.322 296.37 168.679 296.126 169.009 296.126H176.535C176.866 296.126 177.119 296.37 177.119 296.608V299.118Z" fill="#B5A081"/>
<path d="M169.852 294.405C169.852 294.405 170.273 293.881 170.47 294.715C170.666 295.549 171.049 296.384 171.049 296.384C171.049 296.384 171.946 296.123 172.068 295.878C172.19 295.634 172.088 294.515 172.865 294.235C173.643 293.954 173.994 293.777 173.662 294.952C173.33 296.127 173.209 296.956 173.209 296.956L169.976 297.675L169.852 294.589" fill="#996234"/>
<path d="M170.26 297.516C170.26 297.516 169.082 295.612 169.711 295.676C170.339 295.741 170.013 296.145 170.811 296.187C171.61 296.229 171.501 295.573 172.481 295.908C173.461 296.244 173.826 296.084 173.662 296.617C173.498 297.151 173.46 297.516 173.46 297.516H170.26Z" fill="#EF45B7"/>
<path d="M169.323 297.38C169.323 297.38 169.269 295.986 169.232 295.627C169.163 294.953 169.735 293.555 169.735 293.298C169.735 293.043 169.776 292.776 170.114 293.154C170.452 293.533 170.12 294.805 169.976 295.441C169.831 296.077 170.245 296.853 170.26 297.057C170.276 297.263 169.852 296.968 169.852 296.968L169.323 297.38Z" fill="#996234"/>
<path d="M173.7 297.467C173.7 297.467 174.138 295.986 174.175 295.626C174.245 294.952 173.671 293.554 173.671 293.297C173.671 293.042 173.631 292.775 173.293 293.153C172.955 293.532 173.287 294.804 173.431 295.44C173.575 296.076 172.881 296.788 172.865 296.992C172.849 297.198 173.554 296.967 173.554 296.967L173.7 297.467Z" fill="#996234"/>
<path d="M168.705 297.379C168.705 297.379 168.967 299.103 170.034 299.453C171.102 299.803 171.47 299.924 172.429 299.509C173.388 299.094 173.896 299.323 173.824 298.457C173.751 297.593 174.33 297.144 173.501 297.009C172.606 296.863 170.2 296.699 170.034 296.679C169.014 296.559 168.705 297.379 168.705 297.379Z" fill="#8BC7E8"/>
<path d="M171.309 299.454C171.309 299.454 170.341 299.359 170.485 298.559C170.631 297.76 170.205 297.468 170.889 297.219C171.574 296.969 171.914 296.301 172.216 296.969C172.517 297.636 172.735 297.99 172.517 298.459C172.299 298.928 172.346 299.043 172.068 299.34C171.792 299.636 171.309 299.454 171.309 299.454Z" fill="#301705"/>
<rect x="315.5" y="15.9561" width="44.0746" height="25" rx="12.5" fill="#969696" fill-opacity="0.3"/>
<path d="M324.229 28.4824L324.714 23.6289H329.691V24.3877H325.418L325.07 27.751C325.603 27.3864 326.227 27.2041 326.943 27.2041C327.841 27.2041 328.556 27.4958 329.089 28.0791C329.623 28.6624 329.889 29.4395 329.889 30.4102C329.889 31.4583 329.629 32.2718 329.11 32.8506C328.59 33.4294 327.859 33.7188 326.916 33.7188C326.05 33.7188 325.348 33.4772 324.81 32.9941C324.272 32.5111 323.965 31.8343 323.887 30.9639H324.673C324.751 31.6429 324.981 32.1579 325.364 32.5088C325.747 32.8551 326.264 33.0283 326.916 33.0283C327.626 33.0283 328.162 32.8027 328.522 32.3516C328.887 31.9004 329.069 31.2578 329.069 30.4238C329.069 29.6947 328.866 29.0999 328.46 28.6396C328.055 28.1794 327.501 27.9492 326.799 27.9492C326.412 27.9492 326.075 27.9993 325.788 28.0996C325.5 28.1953 325.197 28.3844 324.878 28.667L324.229 28.4824ZM331.455 34.4365H330.709L334.866 23.6289H335.604L331.455 34.4365ZM340.813 33.582H339.993V24.6133L337.286 25.6182V24.8525L340.676 23.5947H340.813V33.582ZM350.773 29.4326C350.773 30.8363 350.515 31.9027 350 32.6318C349.486 33.3564 348.727 33.7188 347.724 33.7188C346.74 33.7188 345.986 33.3633 345.461 32.6523C344.937 31.9368 344.668 30.8978 344.655 29.5352V27.751C344.655 26.3519 344.915 25.2923 345.434 24.5723C345.954 23.8522 346.712 23.4922 347.71 23.4922C348.695 23.4922 349.447 23.8408 349.966 24.5381C350.486 25.2308 350.755 26.2539 350.773 27.6074V29.4326ZM349.953 27.6484C349.953 26.5091 349.766 25.6478 349.392 25.0645C349.023 24.4811 348.462 24.1895 347.71 24.1895C346.972 24.1895 346.416 24.4743 346.042 25.0439C345.669 25.6136 345.477 26.4544 345.468 27.5664V29.5215C345.468 30.6562 345.66 31.5244 346.042 32.126C346.43 32.7275 346.99 33.0283 347.724 33.0283C348.453 33.0283 349.005 32.7344 349.378 32.1465C349.757 31.5586 349.948 30.6973 349.953 29.5625V27.6484Z" fill="black"/>
</g>
<defs>
<linearGradient id="paint0_linear" x1="121.906" y1="64.2867" x2="121.906" y2="9.44027" gradientUnits="userSpaceOnUse">
<stop offset="0.411458" stop-color="white" stop-opacity="0.8"/>
<stop offset="1" stop-color="white" stop-opacity="0"/>
</linearGradient>
<linearGradient id="paint1_linear" x1="236.817" y1="126.038" x2="291.663" y2="126.038" gradientUnits="userSpaceOnUse">
<stop offset="0.411458" stop-color="white" stop-opacity="0.8"/>
<stop offset="1" stop-color="white" stop-opacity="0"/>
</linearGradient>
<linearGradient id="paint2_linear" x1="263.192" y1="187.663" x2="208.346" y2="187.663" gradientUnits="userSpaceOnUse">
<stop offset="0.411458" stop-color="white" stop-opacity="0.8"/>
<stop offset="1" stop-color="white" stop-opacity="0"/>
</linearGradient>
<linearGradient id="paint3_linear" x1="172.785" y1="284.389" x2="172.785" y2="339.236" gradientUnits="userSpaceOnUse">
<stop offset="0.411458" stop-color="white" stop-opacity="0.8"/>
<stop offset="1" stop-color="white" stop-opacity="0"/>
</linearGradient>
<clipPath id="clip0">
<rect width="375" height="375" fill="white" transform="translate(0.5 0.956055)"/>
</clipPath>
</defs>
</svg>
