<svg width="376" height="376" viewBox="0 0 376 376" fill="none" xmlns="http://www.w3.org/2000/svg">
<g clip-path="url(#clip0)">
<path d="M382.871 -14.7598H-10.8789V380.396H382.871V-14.7598Z" fill="#8BF6FF"/>
<path d="M379.824 339.146H-1.73828V392.115H379.824V339.146Z" fill="#A0A0A0"/>
<path d="M308.871 -20.8535H-0.157715V30.709H308.871V-20.8535Z" fill="#A0A0A0"/>
<path opacity="0.7" d="M209.974 60.4859C201.739 49.8129 186.41 47.8376 175.737 56.0726C165.064 64.3086 163.088 79.6367 171.323 90.3092C179.558 100.982 194.887 102.958 205.56 94.7229C216.233 86.4875 218.21 71.1589 209.974 60.4859ZM203.022 86.9595C203.001 86.9665 202.168 86.1636 201.759 85.7829C195.513 91.6718 185.741 91.4918 179.706 85.4595C179.207 85.9282 178.229 86.825 178.204 86.8165L177.783 80.9281L183.277 82.0489C183.277 82.0489 182.157 82.9165 181.743 83.3154C183.69 85.2392 186.593 86.4115 188.766 86.8231V67.0086C188.041 66.3846 186.843 65.224 186.843 63.8937C186.843 61.9034 188.558 60.2904 190.547 60.2904C192.537 60.2904 194.349 61.9034 194.349 63.8937C194.349 65.2367 193.113 66.4071 192.389 67.0264V86.899C194.562 86.5906 197.62 85.5064 199.656 83.6337C199.156 83.1528 198.247 82.3343 198.247 82.3343L203.854 81.2951L203.022 86.9595Z" fill="#1AB737"/>
<path opacity="0.7" d="M190.649 65.2801C191.459 65.2801 192.116 64.6232 192.116 63.8129C192.116 63.0026 191.459 62.3457 190.649 62.3457C189.839 62.3457 189.182 63.0026 189.182 63.8129C189.182 64.6232 189.839 65.2801 190.649 65.2801Z" fill="#1AB737"/>
<path opacity="0.8" d="M370.773 146.932C364.163 147.851 357.823 152.076 352.081 153.178C346.339 154.28 341.861 152.81 334.962 154.096C328.064 155.382 323.96 159.976 319.112 161.262C314.265 162.548 305.415 162.955 301.915 165.783C298.414 168.612 299.771 171.278 299.771 171.278C299.771 171.278 299.205 173.57 301.916 175.759C305.416 178.586 314.268 178.994 319.116 180.281C323.963 181.567 328.071 186.159 334.97 187.446C341.869 188.732 346.341 187.261 352.082 188.364C357.824 189.466 364.164 193.691 370.775 194.611L370.773 146.932Z" fill="url(#paint0_linear)"/>
<path d="M340.194 157.315L340.194 184.171L307.725 184.666C307.725 184.666 280.812 187.145 271.574 170.697C280.447 154.791 307.05 156.593 307.05 156.593L340.194 157.315Z" fill="#D1D1D1"/>
<path d="M278.603 170.604C278.603 170.604 278.149 182.234 301.673 182.639C325.198 183.045 327.698 181.44 327.698 181.44L327.698 159.838L320.553 158.827L300.329 158.827C300.328 158.827 279.318 159.526 278.603 170.604Z" fill="#F4F4F4"/>
<path d="M278.458 170.742C278.285 161.755 289.945 158.91 300.96 158.188L319.208 158.485L332.38 158.936L334.025 165.921L332.665 167.048L332.7 174.528C332.7 174.528 333.843 175.474 333.843 175.699C333.843 176.969 332.287 182.549 332.287 182.549C332.287 182.549 323.344 182.749 319.32 182.841C319.183 182.844 301.186 183.355 300.959 183.347C289.967 182.965 278.647 180.515 278.458 170.742ZM318.933 182.435C319.231 182.481 331.418 181.287 331.418 181.287C331.418 181.287 332.296 176.618 332.296 175.421C332.296 175.207 331.204 174.315 331.204 174.315L331.17 167.253L332.471 166.189L331.419 159.973L318.948 158.937C308.124 158.787 307.972 158.997 300.959 158.937C290.214 159.759 278.8 162.993 279.006 170.863C279.212 178.684 290.338 181.854 300.959 182.55C301.372 182.544 318.751 182.345 318.933 182.435Z" fill="#E8E8E8"/>
<path d="M300.14 170.838L300.03 170.843L300.571 167.26L302.092 165.799C302.686 164.987 305.682 164.831 305.682 164.831L311.239 164.831L312.452 165.398L311.742 169.4L309.45 170.862L307.547 170.838L300.14 170.838Z" fill="white"/>
<path d="M300.141 170.765L300.03 170.843L300.571 174.218L302.092 175.652C302.686 176.463 305.682 176.592 305.682 176.592L311.239 176.592L312.452 176.08L311.742 172.106L309.45 170.693L307.545 170.761L300.141 170.765Z" fill="white"/>
<path d="M309.818 176.06C309.646 176.047 307.115 174.46 307.115 174.46L307.038 167.243L309.649 165.434L310.015 165.434L310.198 165.434L310.381 165.434L312.456 165.434L312.456 176.06C312.456 176.06 309.99 176.07 309.818 176.06Z" fill="#C6C6C6"/>
<path d="M344.261 174.629C344.802 174.626 345.239 174.192 345.236 173.658L345.205 168.037C345.202 167.504 344.761 167.074 344.219 167.076L335.455 167.122C334.914 167.125 334.477 167.56 334.48 168.094L334.511 173.714C334.514 174.247 334.955 174.677 335.496 174.675L344.261 174.629Z" fill="#394963"/>
<path d="M304.836 174.948L304.836 171.306L304.836 169.916L304.836 166.634C304.836 166.634 306.326 165.583 310.021 165.411C310.043 165.41 310.06 165.598 310.06 165.598C309.377 166.077 307.543 167.145 307.543 167.145L307.526 170.612L307.549 174.437C307.549 174.437 309.39 175.506 310.073 175.983C310.073 175.983 310.041 176.172 310.02 176.171C306.327 175.999 304.836 174.948 304.836 174.948Z" fill="#29ABE2"/>
<path d="M311.588 166.8C313.075 166.8 313.182 171.626 311.575 171.626C310.162 171.627 310.029 166.8 311.588 166.8ZM311.571 167.22C310.508 167.22 310.6 171.206 311.561 171.206C312.658 171.207 312.585 167.22 311.571 167.22Z" fill="black"/>
<path d="M310.758 168.608C310.758 168.608 311.221 168.62 311.216 169.166C311.21 169.712 310.799 169.638 310.758 169.65C310.718 169.662 310.758 168.608 310.758 168.608Z" fill="black"/>
<path d="M311.238 168.991L312.456 168.851L312.456 169.572L311.238 169.379L311.238 168.991Z" fill="black"/>
<path d="M310.895 169.48C310.895 169.492 311.672 171.243 311.672 171.243L311.216 171.311L310.677 169.537L310.895 169.48Z" fill="black"/>
<path d="M310.895 168.749C310.895 168.738 311.672 166.936 311.672 166.936L311.216 166.936L310.677 168.643L310.895 168.749Z" fill="black"/>
<path d="M300.96 182.549C300.96 182.549 301.005 176.646 294.648 175.338C288.291 174.032 279.556 173.266 279.373 173.176C279.19 173.087 281.385 181.918 300.96 182.549Z" fill="#D79056"/>
<path d="M300.96 158.937C300.96 158.937 301.005 164.84 294.648 166.147C288.291 167.454 279.556 168.22 279.373 168.31C279.19 168.4 281.385 159.567 300.96 158.937Z" fill="#D79056"/>
<path d="M325.886 159.387C325.886 159.387 324.412 158.955 324.925 160.377C326.617 165.064 326.983 176.105 324.834 181.061C324.383 182.099 324.65 182.084 325.36 182.052C325.894 182.029 331.42 181.286 331.42 181.286C331.42 181.286 334.712 172.814 331.42 159.972L325.886 159.387Z" fill="#D79056"/>
<path d="M319.342 176.245C319.647 176.245 319.773 175.926 319.773 175.508L319.773 166.001C319.773 165.585 319.647 165.133 319.342 165.133L316.124 165.133C315.818 165.133 315.506 165.585 315.506 166.001L315.506 175.508C315.506 175.926 315.819 176.245 316.124 176.245L319.342 176.245Z" fill="#B5A081"/>
<path d="M313.3 167.065C313.3 167.065 312.628 167.597 313.697 167.846C314.765 168.094 315.836 168.578 315.836 168.578C315.836 168.578 315.502 169.71 315.188 169.865C314.875 170.019 313.44 169.89 313.081 170.871C312.72 171.854 312.494 172.297 314.001 171.878C315.507 171.459 316.57 171.306 316.57 171.306L317.492 167.222L313.535 167.065" fill="#996234"/>
<path d="M317.287 167.58C317.287 167.58 314.847 166.092 314.929 166.887C315.012 167.681 315.53 167.269 315.584 168.277C315.637 169.285 314.796 169.148 315.226 170.386C315.656 171.624 315.452 172.086 316.135 171.878C316.819 171.671 317.287 171.623 317.287 171.623L317.287 167.58Z" fill="#EF45B7"/>
<path d="M317.113 166.398C317.113 166.398 315.326 166.33 314.865 166.283C314.001 166.195 312.209 166.918 311.88 166.918C311.553 166.918 311.21 166.97 311.696 167.397C312.181 167.823 313.812 167.404 314.628 167.222C315.443 167.04 316.437 167.562 316.7 167.581C316.963 167.601 316.585 167.066 316.585 167.066L317.113 166.398Z" fill="#996234"/>
<path d="M317.225 171.927C317.225 171.927 315.326 172.48 314.864 172.526C314 172.615 312.208 171.89 311.879 171.89C311.551 171.89 311.209 171.839 311.694 171.412C312.18 170.985 313.81 171.405 314.627 171.586C315.441 171.768 316.354 170.892 316.616 170.871C316.879 170.852 316.583 171.742 316.583 171.742L317.225 171.927Z" fill="#996234"/>
<path d="M317.112 165.617C317.112 165.617 319.323 165.948 319.771 167.295C320.219 168.644 320.374 169.11 319.843 170.321C319.311 171.532 319.605 172.174 318.495 172.082C317.386 171.991 316.811 172.722 316.638 171.674C316.45 170.544 316.24 167.505 316.215 167.295C316.061 166.007 317.112 165.617 317.112 165.617Z" fill="#8BC7E8"/>
<path d="M319.771 168.906C319.771 168.906 319.649 167.683 318.625 167.865C317.6 168.049 317.226 167.512 316.906 168.376C316.586 169.241 315.73 169.671 316.586 170.051C317.441 170.433 317.895 170.708 318.496 170.433C319.098 170.157 319.245 170.216 319.626 169.865C320.006 169.516 319.771 168.906 319.771 168.906Z" fill="#301705"/>
<path d="M29.2328 109.49L54.7292 109.49L55.2 79.286C55.2 79.286 57.5528 54.2703 41.9384 45.6934C26.8371 53.9302 28.5487 78.6748 28.5487 78.6748L29.2328 109.49Z" fill="#E5E5E5" fill-opacity="0.6"/>
<path d="M42.0075 52.1886C42.0075 52.1886 52.9689 51.9301 53.3539 73.7691C53.7389 95.6088 52.1355 98.0927 52.1355 98.0927L31.6281 98.0927L30.9845 91.1329L30.9845 72.3578C30.9845 72.3578 31.4903 52.8526 42.0075 52.1886Z" fill="#E2E2E2" fill-opacity="0.9"/>
<path d="M41.9813 52.0545C33.4495 51.8937 30.748 62.7194 30.0626 72.944L30.3449 89.8849L30.7728 102.113L37.4033 103.641L38.473 102.379L45.5743 102.41C45.5743 102.41 46.4724 103.472 46.6863 103.472C47.8914 103.472 53.1899 102.028 53.1899 102.028C53.1899 102.028 53.3791 93.7262 53.4673 89.9899C53.4703 89.8627 53.955 73.1546 53.9472 72.9446C53.5846 62.7392 51.2584 52.2297 41.9813 52.0545ZM53.0823 89.63C53.1246 89.9059 51.9914 101.221 51.9914 101.221C51.9914 101.221 47.5596 102.036 46.4222 102.036C46.2198 102.036 45.3718 101.021 45.3718 101.021L38.6682 100.991L37.6589 102.198L31.7573 101.221L30.7734 89.6444C30.6307 79.5961 30.829 79.4546 30.7734 72.944C31.5524 62.9689 34.6238 52.3724 42.0956 52.5638C49.5202 52.7539 52.5287 63.0835 53.1899 72.944C53.1845 73.3261 52.9965 89.4603 53.0823 89.63Z" fill="#CECECE"/>
<path d="M46.5027 74.1119L45.3725 72.6999L42.4673 72.1973L42.4673 72.3004L42.0026 72.3004L41.9596 72.3004L41.8629 72.3004L41.8629 72.1973L38.7136 72.6999L37.3332 74.1119C36.5633 74.6643 36.4237 77.4445 36.4237 77.4445L36.4237 82.6036L36.9349 83.7289L40.7195 83.0709L41.982 81.0777L43.2427 83.0709L46.9094 83.7289L47.3022 82.6036L47.3022 77.4445C47.3022 77.4445 47.2726 74.6637 46.5027 74.1119Z" fill="#BABABA" fill-opacity="0.4"/>
<path d="M47.0291 81.2079C47.0183 81.0489 45.5104 78.679 45.5104 78.679L38.7022 78.5986L37.0275 81.0117L37.0275 81.3512L37.0275 81.521L37.0275 81.6907L37.0275 83.6972L47.0285 83.6972C47.0291 83.6972 47.0394 81.3668 47.0291 81.2079Z" fill="#C6C6C6"/>
<path d="M45.9731 77.0986L42.5155 77.0986L41.1961 77.0986L38.0806 77.0986C38.0806 77.0986 37.0816 78.2047 36.919 81.6345C36.9184 81.6549 37.0979 81.532 37.0979 81.532C37.5518 80.8985 38.5659 79.1261 38.5659 79.1261L41.8561 79.0763L45.4883 79.0799C45.4883 79.0799 46.5025 80.781 46.957 81.4144C46.957 81.4144 47.1359 81.6579 47.1353 81.6387C46.9727 78.2089 45.9731 77.0986 45.9731 77.0986Z" fill="#29ABE2" fill-opacity="0.4"/>
<path d="M38.2375 82.8105C38.2375 84.1907 42.8198 84.2909 42.8198 82.7979C42.8198 81.4867 38.2375 81.3637 38.2375 82.8105ZM38.637 82.7961C38.637 81.8094 42.4222 81.8934 42.4222 82.7871C42.4216 83.8038 38.637 83.7366 38.637 82.7961Z" fill="black" fill-opacity="0.4"/>
<path d="M39.9544 82.0397C39.9544 82.0397 39.9653 82.4692 40.4838 82.4644C41.0024 82.4602 40.9329 82.0775 40.9438 82.0397C40.9546 82.0031 39.9544 82.0397 39.9544 82.0397Z" fill="black" fill-opacity="0.4"/>
<path d="M40.3182 82.4971L40.1846 83.6967L40.8682 83.6967L40.6869 82.4971L40.3182 82.4971Z" fill="black" fill-opacity="0.4"/>
<path d="M40.7838 82.1677C40.7947 82.1677 42.4579 82.8899 42.4579 82.8899L42.522 82.4653L40.837 81.9668L40.7838 82.1677Z" fill="black" fill-opacity="0.4"/>
<path d="M40.0239 82.1677C40.013 82.1677 38.2368 82.8899 38.2368 82.8899L38.2368 82.4653L39.8891 81.9668L40.0239 82.1677Z" fill="black" fill-opacity="0.4"/>
<path d="M53.1899 72.9438C53.1899 72.9438 47.5863 72.9858 46.3455 67.0847C45.1047 61.183 44.3771 53.0734 44.2919 52.9036C44.206 52.7339 52.591 54.7715 53.1899 72.9438Z" fill="#E8CDA0" fill-opacity="0.4"/>
<path d="M30.7728 72.9438C30.7728 72.9438 36.3771 72.9858 37.6172 67.0847C38.8574 61.183 39.585 53.0734 39.6703 52.9036C39.7555 52.7339 31.3717 54.7715 30.7728 72.9438Z" fill="#E8CDA0" fill-opacity="0.4"/>
<path d="M31.1997 96.0831C31.1997 96.0831 30.7899 94.7149 32.1413 95.1918C36.5901 96.7621 47.071 97.1022 51.7772 95.1072C52.7629 94.6891 52.7472 94.9357 52.7182 95.5955C52.6958 96.0897 51.9905 101.22 51.9905 101.22C51.9905 101.22 43.9482 104.277 31.7563 101.22L31.1997 96.0831Z" fill="#E8CDA0" fill-opacity="0.4"/>
<path d="M47.3022 90.0091C47.3022 90.2928 46.901 90.2952 46.5057 90.2952L37.4795 90.2952C37.0836 90.2952 37.028 90.2934 37.028 90.0091L37.028 87.0214C37.028 86.7389 37.0836 86.6963 37.4795 86.6963L46.5057 86.6963C46.9016 86.6963 47.3022 86.7395 47.3022 87.0214L47.3022 90.0091Z" fill="#E8CDA0" fill-opacity="0.4"/>
<path d="M24.7288 67.8445C24.7288 69.0821 25.7397 70.0854 26.9867 70.0854C28.2337 70.0854 29.2446 69.0821 29.2446 67.8445C29.2446 66.6068 28.2337 65.6035 26.9867 65.6035C25.7397 65.6035 24.7288 66.6068 24.7288 67.8445Z" fill="#3B59AD" fill-opacity="0.4"/>
<path d="M54.7474 67.8445C54.7474 69.0821 55.7583 70.0854 57.0053 70.0854C58.2523 70.0854 59.2632 69.0821 59.2632 67.8445C59.2632 66.6068 58.2523 65.6035 57.0053 65.6035C55.7583 65.6035 54.7474 66.6068 54.7474 67.8445Z" fill="#3B59AD" fill-opacity="0.4"/>
<path d="M54.7474 92.6286C54.7474 93.8663 55.7583 94.8696 57.0053 94.8696C58.2523 94.8696 59.2632 93.8663 59.2632 92.6286C59.2632 91.391 58.2523 90.3877 57.0053 90.3877C55.7583 90.3877 54.7474 91.391 54.7474 92.6286Z" fill="#3B59AD" fill-opacity="0.4"/>
<path d="M24.4632 92.8923C24.4632 94.13 25.4741 95.1333 26.7211 95.1333C27.9681 95.1333 28.979 94.13 28.979 92.8923C28.979 91.6547 27.9681 90.6514 26.7211 90.6514C25.4741 90.6514 24.4632 91.6547 24.4632 92.8923Z" fill="#3B59AD" fill-opacity="0.4"/>
<path d="M109.882 107.11L135.379 107.11L135.849 76.9061C135.849 76.9061 138.202 51.8904 122.588 43.3135C107.487 51.5503 109.198 76.2949 109.198 76.2949L109.882 107.11Z" fill="#E5E5E5" fill-opacity="0.6"/>
<path d="M122.657 49.8087C122.657 49.8087 133.618 49.5502 134.003 71.3893C134.388 93.2289 132.785 95.7128 132.785 95.7128L112.278 95.7128L111.634 88.753L111.634 69.9779C111.634 69.9779 112.14 50.4727 122.657 49.8087Z" fill="#E2E2E2" fill-opacity="0.9"/>
<path d="M122.631 49.6746C114.099 49.5139 111.397 60.3395 110.712 70.5642L110.994 87.505L111.422 99.7331L118.053 101.261L119.122 99.9988L126.224 100.03C126.224 100.03 127.122 101.092 127.336 101.092C128.541 101.092 133.839 99.6485 133.839 99.6485C133.839 99.6485 134.028 91.3463 134.117 87.61C134.12 87.4829 134.604 70.7747 134.597 70.5648C134.234 60.3593 131.908 49.8498 122.631 49.6746ZM133.732 87.2501C133.774 87.5261 132.641 98.8412 132.641 98.8412C132.641 98.8412 128.209 99.6563 127.072 99.6563C126.869 99.6563 126.021 98.6414 126.021 98.6414L119.318 98.6108L118.308 99.8183L112.407 98.8412L111.423 87.2645C111.28 77.2162 111.478 77.0747 111.423 70.5642C112.202 60.5891 115.273 49.9925 122.745 50.1839C130.17 50.374 133.178 60.7036 133.839 70.5642C133.834 70.9463 133.646 87.0804 133.732 87.2501Z" fill="#CECECE"/>
<path d="M127.152 71.732L126.022 70.32L123.117 69.8174L123.117 69.9206L122.652 69.9206L122.609 69.9206L122.512 69.9206L122.512 69.8174L119.363 70.32L117.983 71.732C117.213 72.2845 117.073 75.0647 117.073 75.0647L117.073 80.2238L117.584 81.349L121.369 80.691L122.631 78.6978L123.892 80.691L127.559 81.349L127.952 80.2238L127.952 75.0647C127.952 75.0647 127.922 72.2839 127.152 71.732Z" fill="#BABABA" fill-opacity="0.4"/>
<path d="M127.679 78.828C127.668 78.669 126.16 76.2991 126.16 76.2991L119.352 76.2187L117.677 78.6318L117.677 78.9714L117.677 79.1411L117.677 79.3109L117.677 81.3173L127.678 81.3173C127.679 81.3173 127.689 78.9869 127.679 78.828Z" fill="#C6C6C6"/>
<path d="M126.622 74.7187L123.165 74.7187L121.846 74.7187L118.73 74.7187C118.73 74.7187 117.731 75.8248 117.568 79.2546C117.568 79.275 117.747 79.1521 117.747 79.1521C118.201 78.5187 119.215 76.7462 119.215 76.7462L122.506 76.6964L126.138 76.7C126.138 76.7 127.152 78.4011 127.606 79.0345C127.606 79.0345 127.785 79.278 127.785 79.2588C127.622 75.829 126.622 74.7187 126.622 74.7187Z" fill="#29ABE2" fill-opacity="0.4"/>
<path d="M118.887 80.4306C118.887 81.8108 123.469 81.911 123.469 80.418C123.469 79.1068 118.887 78.9838 118.887 80.4306ZM119.286 80.4162C119.286 79.4295 123.072 79.5135 123.072 80.4072C123.071 81.4239 119.286 81.3567 119.286 80.4162Z" fill="black" fill-opacity="0.4"/>
<path d="M120.604 79.6598C120.604 79.6598 120.615 80.0893 121.133 80.0845C121.652 80.0803 121.582 79.6976 121.593 79.6598C121.604 79.6232 120.604 79.6598 120.604 79.6598Z" fill="black" fill-opacity="0.4"/>
<path d="M120.968 80.1172L120.834 81.3168L121.518 81.3168L121.336 80.1172L120.968 80.1172Z" fill="black" fill-opacity="0.4"/>
<path d="M121.433 79.7879C121.444 79.7879 123.107 80.51 123.107 80.51L123.171 80.0854L121.486 79.5869L121.433 79.7879Z" fill="black" fill-opacity="0.4"/>
<path d="M120.673 79.7879C120.662 79.7879 118.886 80.51 118.886 80.51L118.886 80.0854L120.539 79.5869L120.673 79.7879Z" fill="black" fill-opacity="0.4"/>
<path d="M133.839 70.5639C133.839 70.5639 128.236 70.6059 126.995 64.7048C125.754 58.8032 125.026 50.6935 124.941 50.5238C124.855 50.354 133.24 52.3916 133.839 70.5639Z" fill="#E8CDA0" fill-opacity="0.4"/>
<path d="M111.422 70.5639C111.422 70.5639 117.026 70.6059 118.267 64.7048C119.507 58.8032 120.234 50.6935 120.32 50.5238C120.405 50.354 112.021 52.3916 111.422 70.5639Z" fill="#E8CDA0" fill-opacity="0.4"/>
<path d="M111.849 93.7033C111.849 93.7033 111.439 92.3351 112.791 92.8119C117.239 94.3823 127.72 94.7224 132.427 92.7273C133.412 92.3093 133.397 92.5558 133.368 93.2156C133.345 93.7099 132.64 98.8402 132.64 98.8402C132.64 98.8402 124.598 101.897 112.406 98.8402L111.849 93.7033Z" fill="#E8CDA0" fill-opacity="0.4"/>
<path d="M127.952 87.6292C127.952 87.913 127.55 87.9154 127.155 87.9154L118.129 87.9154C117.733 87.9154 117.677 87.9136 117.677 87.6292L117.677 84.6415C117.677 84.359 117.733 84.3164 118.129 84.3164L127.155 84.3164C127.551 84.3164 127.952 84.3596 127.952 84.6415L127.952 87.6292Z" fill="#E8CDA0" fill-opacity="0.4"/>
<path d="M105.378 65.4646C105.378 66.7022 106.389 67.7055 107.636 67.7055C108.883 67.7055 109.894 66.7022 109.894 65.4646C109.894 64.2269 108.883 63.2236 107.636 63.2236C106.389 63.2236 105.378 64.2269 105.378 65.4646Z" fill="#3B59AD" fill-opacity="0.4"/>
<path d="M135.397 65.4646C135.397 66.7022 136.408 67.7055 137.655 67.7055C138.902 67.7055 139.913 66.7022 139.913 65.4646C139.913 64.2269 138.902 63.2236 137.655 63.2236C136.408 63.2236 135.397 64.2269 135.397 65.4646Z" fill="#3B59AD" fill-opacity="0.4"/>
<path d="M135.397 90.2488C135.397 91.4864 136.408 92.4897 137.655 92.4897C138.902 92.4897 139.913 91.4864 139.913 90.2488C139.913 89.0111 138.902 88.0078 137.655 88.0078C136.408 88.0078 135.397 89.0111 135.397 90.2488Z" fill="#3B59AD" fill-opacity="0.4"/>
<path d="M105.113 90.5124C105.113 91.7501 106.123 92.7534 107.371 92.7534C108.618 92.7534 109.628 91.7501 109.628 90.5124C109.628 89.2748 108.618 88.2715 107.371 88.2715C106.123 88.2715 105.113 89.2748 105.113 90.5124Z" fill="#3B59AD" fill-opacity="0.4"/>
<path d="M223.57 258.938L198.074 258.938L197.603 289.142C197.603 289.142 195.25 314.157 210.864 322.734C225.966 314.498 224.254 289.753 224.254 289.753L223.57 258.938Z" fill="#E5E5E5" fill-opacity="0.6"/>
<path d="M210.795 316.239C210.795 316.239 199.834 316.498 199.449 294.659C199.064 272.819 200.667 270.335 200.667 270.335L221.175 270.335L221.818 277.295L221.818 296.07C221.818 296.07 221.312 315.575 210.795 316.239Z" fill="#E2E2E2" fill-opacity="0.9"/>
<path d="M210.821 316.373C219.353 316.534 222.055 305.708 222.74 295.484L222.458 278.543L222.03 266.315L215.399 264.786L214.33 266.049L207.228 266.018C207.228 266.018 206.33 264.956 206.116 264.956C204.911 264.956 199.613 266.399 199.613 266.399C199.613 266.399 199.424 274.702 199.335 278.438C199.332 278.565 198.848 295.273 198.856 295.483C199.218 305.689 201.544 316.198 210.821 316.373ZM199.72 278.798C199.678 278.522 200.811 267.207 200.811 267.207C200.811 267.207 205.243 266.392 206.381 266.392C206.583 266.392 207.431 267.406 207.431 267.406L214.135 267.437L215.144 266.23L221.045 267.207L222.029 278.783C222.172 288.832 221.974 288.973 222.029 295.484C221.25 305.459 218.179 316.055 210.707 315.864C203.283 315.674 200.274 305.344 199.613 295.484C199.618 295.102 199.806 278.967 199.72 278.798Z" fill="#CECECE"/>
<path d="M206.3 294.316L207.43 295.728L210.335 296.23L210.335 296.127L210.8 296.127L210.843 296.127L210.94 296.127L210.94 296.23L214.089 295.728L215.47 294.316C216.239 293.763 216.379 290.983 216.379 290.983L216.379 285.824L215.868 284.699L212.083 285.357L210.821 287.35L209.56 285.357L205.893 284.699L205.5 285.824L205.5 290.983C205.5 290.983 205.53 293.764 206.3 294.316Z" fill="#BABABA" fill-opacity="0.4"/>
<path d="M205.774 287.22C205.784 287.379 207.292 289.749 207.292 289.749L214.101 289.829L215.775 287.416L215.775 287.076L215.775 286.907L215.775 286.737L215.775 284.731L205.774 284.731C205.774 284.731 205.763 287.061 205.774 287.22Z" fill="#C6C6C6"/>
<path d="M206.83 291.329L210.287 291.329L211.607 291.329L214.722 291.329C214.722 291.329 215.721 290.223 215.884 286.793C215.884 286.773 215.705 286.896 215.705 286.896C215.251 287.529 214.237 289.302 214.237 289.302L210.947 289.351L207.314 289.348C207.314 289.348 206.3 287.647 205.846 287.013C205.846 287.013 205.667 286.77 205.667 286.789C205.83 290.219 206.83 291.329 206.83 291.329Z" fill="#29ABE2" fill-opacity="0.4"/>
<path d="M214.565 285.617C214.565 284.237 209.983 284.137 209.983 285.63C209.983 286.941 214.565 287.064 214.565 285.617ZM214.166 285.632C214.166 286.618 210.381 286.534 210.381 285.641C210.381 284.624 214.166 284.691 214.166 285.632Z" fill="black" fill-opacity="0.4"/>
<path d="M212.848 286.388C212.848 286.388 212.837 285.959 212.319 285.963C211.8 285.968 211.87 286.35 211.859 286.388C211.848 286.425 212.848 286.388 212.848 286.388Z" fill="black" fill-opacity="0.4"/>
<path d="M212.485 285.931L212.618 284.731L211.935 284.731L212.116 285.931L212.485 285.931Z" fill="black" fill-opacity="0.4"/>
<path d="M212.019 286.26C212.008 286.26 210.345 285.538 210.345 285.538L210.281 285.962L211.966 286.461L212.019 286.26Z" fill="black" fill-opacity="0.4"/>
<path d="M212.779 286.26C212.79 286.26 214.566 285.538 214.566 285.538L214.566 285.962L212.914 286.461L212.779 286.26Z" fill="black" fill-opacity="0.4"/>
<path d="M199.613 295.484C199.613 295.484 205.216 295.442 206.457 301.343C207.698 307.245 208.426 315.354 208.511 315.524C208.597 315.694 200.212 313.656 199.613 295.484Z" fill="#E8CDA0" fill-opacity="0.4"/>
<path d="M222.03 295.484C222.03 295.484 216.426 295.442 215.186 301.343C213.945 307.245 213.218 315.354 213.132 315.524C213.047 315.694 221.431 313.656 222.03 295.484Z" fill="#E8CDA0" fill-opacity="0.4"/>
<path d="M221.603 272.345C221.603 272.345 222.013 273.713 220.661 273.236C216.213 271.666 205.732 271.325 201.026 273.321C200.04 273.739 200.056 273.492 200.085 272.832C200.107 272.338 200.812 267.208 200.812 267.208C200.812 267.208 208.855 264.15 221.046 267.208L221.603 272.345Z" fill="#E8CDA0" fill-opacity="0.4"/>
<path d="M205.5 278.419C205.5 278.135 205.902 278.132 206.297 278.132L215.323 278.132C215.719 278.132 215.775 278.134 215.775 278.419L215.775 281.406C215.775 281.689 215.719 281.731 215.323 281.731L206.297 281.731C205.901 281.731 205.5 281.688 205.5 281.406L205.5 278.419Z" fill="#E8CDA0" fill-opacity="0.4"/>
<path d="M228.074 300.583C228.074 299.346 227.063 298.342 225.816 298.342C224.569 298.342 223.558 299.346 223.558 300.583C223.558 301.821 224.569 302.824 225.816 302.824C227.063 302.824 228.074 301.821 228.074 300.583Z" fill="#3B59AD" fill-opacity="0.4"/>
<path d="M198.055 300.583C198.055 299.346 197.044 298.342 195.797 298.342C194.55 298.342 193.54 299.346 193.54 300.583C193.54 301.821 194.55 302.824 195.797 302.824C197.044 302.824 198.055 301.821 198.055 300.583Z" fill="#3B59AD" fill-opacity="0.4"/>
<path d="M198.055 275.799C198.055 274.561 197.044 273.558 195.797 273.558C194.55 273.558 193.54 274.561 193.54 275.799C193.54 277.037 194.55 278.04 195.797 278.04C197.044 278.04 198.055 277.037 198.055 275.799Z" fill="#3B59AD" fill-opacity="0.4"/>
<path d="M228.34 275.535C228.34 274.298 227.329 273.294 226.082 273.294C224.835 273.294 223.824 274.298 223.824 275.535C223.824 276.773 224.835 277.776 226.082 277.776C227.329 277.776 228.34 276.773 228.34 275.535Z" fill="#3B59AD" fill-opacity="0.4"/>
<path d="M152.519 258.938L127.023 258.938L126.552 289.142C126.552 289.142 124.199 314.157 139.814 322.734C154.915 314.498 153.203 289.753 153.203 289.753L152.519 258.938Z" fill="#E5E5E5" fill-opacity="0.6"/>
<path d="M139.744 316.239C139.744 316.239 128.783 316.498 128.398 294.659C128.013 272.819 129.616 270.335 129.616 270.335L150.124 270.335L150.767 277.295L150.767 296.07C150.767 296.07 150.262 315.575 139.744 316.239Z" fill="#E2E2E2" fill-opacity="0.9"/>
<path d="M139.771 316.373C148.302 316.534 151.004 305.708 151.689 295.484L151.407 278.543L150.979 266.315L144.349 264.786L143.279 266.049L136.178 266.018C136.178 266.018 135.28 264.956 135.066 264.956C133.861 264.956 128.562 266.399 128.562 266.399C128.562 266.399 128.373 274.702 128.285 278.438C128.282 278.565 127.797 295.273 127.805 295.483C128.167 305.689 130.494 316.198 139.771 316.373ZM128.67 278.798C128.627 278.522 129.761 267.207 129.761 267.207C129.761 267.207 134.192 266.392 135.33 266.392C135.532 266.392 136.38 267.406 136.38 267.406L143.084 267.437L144.093 266.23L149.995 267.207L150.979 278.783C151.121 288.832 150.923 288.973 150.979 295.484C150.2 305.459 147.128 316.055 139.656 315.864C132.232 315.674 129.223 305.344 128.562 295.484C128.567 295.102 128.755 278.967 128.67 278.798Z" fill="#CECECE"/>
<path d="M135.249 294.316L136.379 295.728L139.285 296.23L139.285 296.127L139.749 296.127L139.792 296.127L139.889 296.127L139.889 296.23L143.038 295.728L144.419 294.316C145.189 293.763 145.328 290.983 145.328 290.983L145.328 285.824L144.817 284.699L141.032 285.357L139.77 287.35L138.509 285.357L134.843 284.699L134.45 285.824L134.45 290.983C134.45 290.983 134.479 293.764 135.249 294.316Z" fill="#BABABA" fill-opacity="0.4"/>
<path d="M134.723 287.22C134.734 287.379 136.242 289.749 136.242 289.749L143.05 289.829L144.724 287.416L144.724 287.076L144.724 286.907L144.724 286.737L144.724 284.731L134.723 284.731C134.723 284.731 134.713 287.061 134.723 287.22Z" fill="#C6C6C6"/>
<path d="M135.779 291.329L139.236 291.329L140.556 291.329L143.671 291.329C143.671 291.329 144.67 290.223 144.833 286.793C144.834 286.773 144.654 286.896 144.654 286.896C144.2 287.529 143.186 289.302 143.186 289.302L139.896 289.351L136.264 289.348C136.264 289.348 135.249 287.647 134.795 287.013C134.795 287.013 134.616 286.77 134.617 286.789C134.779 290.219 135.779 291.329 135.779 291.329Z" fill="#29ABE2" fill-opacity="0.4"/>
<path d="M143.514 285.617C143.514 284.237 138.932 284.137 138.932 285.63C138.932 286.941 143.514 287.064 143.514 285.617ZM143.115 285.632C143.115 286.618 139.33 286.534 139.33 285.641C139.33 284.624 143.115 284.691 143.115 285.632Z" fill="black" fill-opacity="0.4"/>
<path d="M141.798 286.388C141.798 286.388 141.787 285.959 141.268 285.963C140.75 285.968 140.819 286.35 140.808 286.388C140.797 286.425 141.798 286.388 141.798 286.388Z" fill="black" fill-opacity="0.4"/>
<path d="M141.434 285.931L141.567 284.731L140.884 284.731L141.065 285.931L141.434 285.931Z" fill="black" fill-opacity="0.4"/>
<path d="M140.968 286.26C140.957 286.26 139.294 285.538 139.294 285.538L139.23 285.962L140.915 286.461L140.968 286.26Z" fill="black" fill-opacity="0.4"/>
<path d="M141.728 286.26C141.739 286.26 143.515 285.538 143.515 285.538L143.515 285.962L141.863 286.461L141.728 286.26Z" fill="black" fill-opacity="0.4"/>
<path d="M128.562 295.484C128.562 295.484 134.166 295.442 135.406 301.343C136.647 307.245 137.375 315.354 137.46 315.524C137.546 315.694 129.161 313.656 128.562 295.484Z" fill="#E8CDA0" fill-opacity="0.4"/>
<path d="M150.979 295.484C150.979 295.484 145.375 295.442 144.135 301.343C142.895 307.245 142.167 315.354 142.082 315.524C141.996 315.694 150.38 313.656 150.979 295.484Z" fill="#E8CDA0" fill-opacity="0.4"/>
<path d="M150.552 272.345C150.552 272.345 150.962 273.713 149.611 273.236C145.162 271.666 134.681 271.325 129.975 273.321C128.989 273.739 129.005 273.492 129.034 272.832C129.056 272.338 129.761 267.208 129.761 267.208C129.761 267.208 137.804 264.15 149.996 267.208L150.552 272.345Z" fill="#E8CDA0" fill-opacity="0.4"/>
<path d="M134.45 278.419C134.45 278.135 134.851 278.132 135.246 278.132L144.272 278.132C144.668 278.132 144.724 278.134 144.724 278.419L144.724 281.406C144.724 281.689 144.668 281.731 144.272 281.731L135.246 281.731C134.85 281.731 134.45 281.688 134.45 281.406L134.45 278.419Z" fill="#E8CDA0" fill-opacity="0.4"/>
<path d="M157.023 300.583C157.023 299.346 156.012 298.342 154.765 298.342C153.518 298.342 152.507 299.346 152.507 300.583C152.507 301.821 153.518 302.824 154.765 302.824C156.012 302.824 157.023 301.821 157.023 300.583Z" fill="#3B59AD" fill-opacity="0.4"/>
<path d="M127.005 300.583C127.005 299.346 125.994 298.342 124.747 298.342C123.5 298.342 122.489 299.346 122.489 300.583C122.489 301.821 123.5 302.824 124.747 302.824C125.994 302.824 127.005 301.821 127.005 300.583Z" fill="#3B59AD" fill-opacity="0.4"/>
<path d="M127.005 275.799C127.005 274.561 125.994 273.558 124.747 273.558C123.5 273.558 122.489 274.561 122.489 275.799C122.489 277.037 123.5 278.04 124.747 278.04C125.994 278.04 127.005 277.037 127.005 275.799Z" fill="#3B59AD" fill-opacity="0.4"/>
<path d="M157.289 275.535C157.289 274.298 156.278 273.294 155.031 273.294C153.784 273.294 152.773 274.298 152.773 275.535C152.773 276.773 153.784 277.776 155.031 277.776C156.278 277.776 157.289 276.773 157.289 275.535Z" fill="#3B59AD" fill-opacity="0.4"/>
<path d="M13.0626 259.842L-12.4338 259.842L-12.9046 290.046C-12.9046 290.046 -15.2574 315.062 0.357007 323.639C15.4583 315.402 13.7467 290.657 13.7467 290.657L13.0626 259.842Z" fill="#E5E5E5" fill-opacity="0.6"/>
<path d="M0.287892 317.143C0.287892 317.143 -10.6735 317.402 -11.0585 295.563C-11.4435 273.723 -9.84007 271.239 -9.84007 271.239L10.6673 271.239L11.3109 278.199L11.3109 296.974C11.3109 296.974 10.8051 316.479 0.287892 317.143Z" fill="#E2E2E2" fill-opacity="0.9"/>
<path d="M0.314075 317.278C8.84591 317.438 11.5474 306.613 12.2328 296.388L11.9505 279.447L11.5226 267.219L4.89214 265.691L3.82241 266.953L-3.27888 266.922C-3.27888 266.922 -4.17697 265.86 -4.39091 265.86C-5.59602 265.86 -10.8945 267.304 -10.8945 267.304C-10.8945 267.304 -11.0837 275.606 -11.1719 279.342C-11.1749 279.469 -11.6596 296.177 -11.6518 296.387C-11.2891 306.593 -8.96294 317.102 0.314075 317.278ZM-10.7869 279.702C-10.8292 279.426 -9.69604 268.111 -9.69604 268.111C-9.69604 268.111 -5.26423 267.296 -4.12681 267.296C-3.92435 267.296 -3.07642 268.311 -3.07642 268.311L3.6272 268.341L4.63649 267.134L10.5381 268.111L11.522 279.688C11.6647 289.736 11.4664 289.877 11.522 296.388C10.743 306.363 7.67163 316.96 0.199852 316.768C-7.22478 316.578 -10.2333 306.249 -10.8945 296.388C-10.8891 296.006 -10.7011 279.872 -10.7869 279.702Z" fill="#CECECE"/>
<path d="M-4.20726 295.22L-3.0771 296.632L-0.171905 297.135L-0.171905 297.032L0.292851 297.032L0.335761 297.032L0.432461 297.032L0.432461 297.135L3.58181 296.632L4.96218 295.22C5.73215 294.668 5.87176 291.887 5.87176 291.887L5.87176 286.728L5.36047 285.603L1.57592 286.261L0.313398 288.254L-0.94731 286.261L-4.614 285.603L-5.00684 286.728L-5.00684 291.887C-5.00684 291.887 -4.97722 294.668 -4.20726 295.22Z" fill="#BABABA" fill-opacity="0.4"/>
<path d="M-4.73374 288.124C-4.72286 288.283 -3.21496 290.653 -3.21496 290.653L3.59322 290.733L5.26793 288.32L5.26793 287.981L5.26793 287.811L5.26793 287.641L5.26793 285.635L-4.73313 285.635C-4.73373 285.635 -4.74401 287.965 -4.73374 288.124Z" fill="#C6C6C6"/>
<path d="M-3.67764 292.233L-0.220064 292.233L1.09927 292.233L4.21478 292.233C4.21478 292.233 5.21379 291.127 5.37637 287.698C5.37697 287.677 5.19748 287.8 5.19748 287.8C4.7436 288.433 3.72948 290.206 3.72948 290.206L0.439302 290.256L-3.19294 290.252C-3.19294 290.252 -4.20707 288.551 -4.66156 287.918C-4.66156 287.918 -4.84045 287.674 -4.83984 287.693C-4.67727 291.123 -3.67764 292.233 -3.67764 292.233Z" fill="#29ABE2" fill-opacity="0.4"/>
<path d="M4.05788 286.522C4.05788 285.141 -0.524414 285.041 -0.524414 286.534C-0.524414 287.845 4.05788 287.968 4.05788 286.522ZM3.6584 286.536C3.6584 287.523 -0.126748 287.439 -0.126748 286.545C-0.126143 285.528 3.6584 285.595 3.6584 286.536Z" fill="black" fill-opacity="0.4"/>
<path d="M2.341 287.292C2.341 287.292 2.33012 286.863 1.81157 286.868C1.29303 286.872 1.36253 287.255 1.35165 287.292C1.34077 287.329 2.341 287.292 2.341 287.292Z" fill="black" fill-opacity="0.4"/>
<path d="M1.97722 286.835L2.11078 285.635L1.42725 285.635L1.60856 286.835L1.97722 286.835Z" fill="black" fill-opacity="0.4"/>
<path d="M1.51159 287.164C1.50071 287.164 -0.162498 286.442 -0.162498 286.442L-0.226562 286.867L1.45841 287.365L1.51159 287.164Z" fill="black" fill-opacity="0.4"/>
<path d="M2.27148 287.164C2.28236 287.164 4.05859 286.442 4.05859 286.442L4.05859 286.867L2.40626 287.365L2.27148 287.164Z" fill="black" fill-opacity="0.4"/>
<path d="M11.5226 296.388C11.5226 296.388 5.91834 296.346 4.67818 302.247C3.43802 308.149 2.71037 316.259 2.62516 316.428C2.53994 316.598 10.9237 314.561 11.5226 296.388Z" fill="#E8CDA0" fill-opacity="0.4"/>
<path d="M11.0957 273.249C11.0957 273.249 11.5055 274.617 10.1541 274.14C5.70535 272.57 -4.77558 272.23 -9.48178 274.225C-10.4675 274.643 -10.4518 274.396 -10.4228 273.737C-10.4004 273.242 -9.69512 268.112 -9.69512 268.112C-9.69512 268.112 -1.65281 265.055 10.5391 268.112L11.0957 273.249Z" fill="#E8CDA0" fill-opacity="0.4"/>
<path d="M-5.00684 279.323C-5.00684 279.039 -4.60554 279.037 -4.21028 279.037L4.81594 279.037C5.2118 279.037 5.2674 279.039 5.2674 279.323L5.2674 282.311C5.2674 282.593 5.2118 282.636 4.81594 282.636L-4.21028 282.636C-4.60614 282.636 -5.00684 282.593 -5.00684 282.311L-5.00684 279.323Z" fill="#E8CDA0" fill-opacity="0.4"/>
<path d="M17.5666 301.488C17.5666 300.25 16.5557 299.247 15.3087 299.247C14.0617 299.247 13.0508 300.25 13.0508 301.488C13.0508 302.725 14.0617 303.729 15.3087 303.729C16.5557 303.729 17.5666 302.725 17.5666 301.488Z" fill="#3B59AD" fill-opacity="0.4"/>
<path d="M17.8322 276.44C17.8322 275.202 16.8213 274.199 15.5743 274.199C14.3273 274.199 13.3164 275.202 13.3164 276.44C13.3164 277.677 14.3273 278.681 15.5743 278.681C16.8213 278.681 17.8322 277.677 17.8322 276.44Z" fill="#3B59AD" fill-opacity="0.4"/>
<path d="M81.4679 261.045L55.9715 261.045L55.5007 291.249C55.5007 291.249 53.1479 316.265 68.7623 324.842C83.8636 316.605 82.152 291.86 82.152 291.86L81.4679 261.045Z" fill="#E5E5E5" fill-opacity="0.6"/>
<path d="M68.6932 318.347C68.6932 318.347 57.7318 318.605 57.3468 296.766C56.9618 274.926 58.5652 272.442 58.5652 272.442L79.0725 272.442L79.7162 279.402L79.7162 298.177C79.7162 298.177 79.2103 317.683 68.6932 318.347Z" fill="#E2E2E2" fill-opacity="0.9"/>
<path d="M68.7193 318.481C77.2512 318.641 79.9527 307.816 80.638 297.591L80.3558 280.65L79.9279 268.422L73.2974 266.894L72.2277 268.156L65.1264 268.125C65.1264 268.125 64.2283 267.063 64.0144 267.063C62.8093 267.063 57.5108 268.507 57.5108 268.507C57.5108 268.507 57.3216 276.809 57.2334 280.545C57.2304 280.672 56.7457 297.381 56.7535 297.591C57.1161 307.796 59.4423 318.306 68.7193 318.481ZM57.6184 280.905C57.5761 280.629 58.7092 269.314 58.7092 269.314C58.7092 269.314 63.141 268.499 64.2785 268.499C64.4809 268.499 65.3289 269.514 65.3289 269.514L72.0325 269.544L73.0418 268.337L78.9434 269.314L79.9273 280.891C80.0699 290.939 79.8717 291.081 79.9273 297.591C79.1483 307.566 76.0769 318.163 68.6051 317.971C61.1805 317.781 58.172 307.452 57.5108 297.591C57.5162 297.209 57.7042 281.075 57.6184 280.905Z" fill="#CECECE"/>
<path d="M64.198 296.423L65.3282 297.835L68.2334 298.338L68.2334 298.235L68.6981 298.235L68.741 298.235L68.8377 298.235L68.8377 298.338L71.9871 297.835L73.3675 296.423C74.1374 295.871 74.277 293.091 74.277 293.091L74.277 287.932L73.7657 286.806L69.9812 287.464L68.7187 289.457L67.458 287.464L63.7913 286.806L63.3984 287.932L63.3984 293.091C63.3984 293.091 63.4281 295.871 64.198 296.423Z" fill="#BABABA" fill-opacity="0.4"/>
<path d="M63.6715 289.327C63.6824 289.486 65.1903 291.856 65.1903 291.856L71.9985 291.937L73.6732 289.523L73.6732 289.184L73.6732 289.014L73.6732 288.844L73.6732 286.838L63.6721 286.838C63.6715 286.838 63.6613 289.168 63.6715 289.327Z" fill="#C6C6C6"/>
<path d="M64.7276 293.437L68.1852 293.437L69.5045 293.437L72.6201 293.437C72.6201 293.437 73.6191 292.33 73.7816 288.901C73.7822 288.88 73.6028 289.003 73.6028 289.003C73.1489 289.637 72.1347 291.409 72.1347 291.409L68.8446 291.459L65.2123 291.455C65.2123 291.455 64.1982 289.754 63.7437 289.121C63.7437 289.121 63.5648 288.877 63.5654 288.896C63.728 292.326 64.7276 293.437 64.7276 293.437Z" fill="#29ABE2" fill-opacity="0.4"/>
<path d="M72.4632 287.725C72.4632 286.344 67.8809 286.244 67.8809 287.737C67.8809 289.048 72.4632 289.171 72.4632 287.725ZM72.0637 287.739C72.0637 288.726 68.2785 288.642 68.2785 287.748C68.2791 286.731 72.0637 286.799 72.0637 287.739Z" fill="black" fill-opacity="0.4"/>
<path d="M70.7463 288.495C70.7463 288.495 70.7354 288.066 70.2168 288.071C69.6983 288.075 69.7678 288.458 69.7569 288.495C69.746 288.532 70.7463 288.495 70.7463 288.495Z" fill="black" fill-opacity="0.4"/>
<path d="M70.3825 288.038L70.5161 286.838L69.8325 286.838L70.0138 288.038L70.3825 288.038Z" fill="black" fill-opacity="0.4"/>
<path d="M69.9169 288.367C69.906 288.367 68.2428 287.645 68.2428 287.645L68.1787 288.07L69.8637 288.568L69.9169 288.367Z" fill="black" fill-opacity="0.4"/>
<path d="M70.6768 288.367C70.6876 288.367 72.4639 287.645 72.4639 287.645L72.4639 288.07L70.8115 288.568L70.6768 288.367Z" fill="black" fill-opacity="0.4"/>
<path d="M57.5107 297.591C57.5107 297.591 63.1144 297.549 64.3552 303.45C65.5959 309.352 66.3236 317.462 66.4088 317.632C66.4946 317.801 58.1097 315.764 57.5107 297.591Z" fill="#E8CDA0" fill-opacity="0.4"/>
<path d="M79.9279 297.591C79.9279 297.591 74.3236 297.549 73.0835 303.45C71.8433 309.352 71.1156 317.462 71.0304 317.632C70.9452 317.801 79.329 315.764 79.9279 297.591Z" fill="#E8CDA0" fill-opacity="0.4"/>
<path d="M79.501 274.452C79.501 274.452 79.9107 275.82 78.5594 275.343C74.1106 273.773 63.6297 273.433 58.9235 275.428C57.9378 275.846 57.9535 275.599 57.9825 274.94C58.0049 274.445 58.7102 269.315 58.7102 269.315C58.7102 269.315 66.7525 266.258 78.9443 269.315L79.501 274.452Z" fill="#E8CDA0" fill-opacity="0.4"/>
<path d="M63.3984 280.526C63.3984 280.242 63.7997 280.24 64.195 280.24L73.2212 280.24C73.6171 280.24 73.6727 280.242 73.6727 280.526L73.6727 283.514C73.6727 283.796 73.6171 283.839 73.2212 283.839L64.195 283.839C63.7991 283.839 63.3984 283.796 63.3984 283.514L63.3984 280.526Z" fill="#E8CDA0" fill-opacity="0.4"/>
<path d="M85.9719 302.691C85.9719 301.453 84.961 300.45 83.714 300.45C82.467 300.45 81.4561 301.453 81.4561 302.691C81.4561 303.928 82.467 304.932 83.714 304.932C84.961 304.932 85.9719 303.928 85.9719 302.691Z" fill="#3B59AD" fill-opacity="0.4"/>
<path d="M55.9533 302.691C55.9533 301.453 54.9424 300.45 53.6954 300.45C52.4484 300.45 51.4375 301.453 51.4375 302.691C51.4375 303.928 52.4484 304.932 53.6954 304.932C54.9424 304.932 55.9533 303.928 55.9533 302.691Z" fill="#3B59AD" fill-opacity="0.4"/>
<path d="M55.9533 277.907C55.9533 276.669 54.9424 275.666 53.6954 275.666C52.4484 275.666 51.4375 276.669 51.4375 277.907C51.4375 279.144 52.4484 280.147 53.6954 280.147C54.9424 280.147 55.9533 279.144 55.9533 277.907Z" fill="#3B59AD" fill-opacity="0.4"/>
<path d="M86.2375 277.643C86.2375 276.405 85.2266 275.402 83.9796 275.402C82.7326 275.402 81.7217 276.405 81.7217 277.643C81.7217 278.88 82.7326 279.884 83.9796 279.884C85.2266 279.884 86.2375 278.88 86.2375 277.643Z" fill="#3B59AD" fill-opacity="0.4"/>
<path d="M245.634 107.369L271.131 107.369L271.601 77.1649C271.601 77.1649 273.954 52.1492 258.34 43.5723C243.238 51.8091 244.95 76.5537 244.95 76.5537L245.634 107.369Z" fill="#E5E5E5" fill-opacity="0.6"/>
<path d="M258.409 50.0675C258.409 50.0675 269.37 49.809 269.755 71.6481C270.14 93.4877 268.537 95.9716 268.537 95.9716L248.03 95.9716L247.386 89.0118L247.386 70.2367C247.386 70.2367 247.892 50.7315 258.409 50.0675Z" fill="#E2E2E2" fill-opacity="0.9"/>
<path d="M258.383 49.9334C249.851 49.7727 247.149 60.5983 246.464 70.8229L246.746 87.7638L247.174 99.9919L253.805 101.52L254.874 100.258L261.976 100.289C261.976 100.289 262.874 101.351 263.088 101.351C264.293 101.351 269.591 99.9073 269.591 99.9073C269.591 99.9073 269.78 91.6051 269.869 87.8688C269.872 87.7416 270.356 71.0335 270.349 70.8236C269.986 60.6181 267.66 50.1086 258.383 49.9334ZM269.484 87.5089C269.526 87.7848 268.393 99.0999 268.393 99.0999C268.393 99.0999 263.961 99.9151 262.824 99.9151C262.621 99.9151 261.773 98.9002 261.773 98.9002L255.07 98.8696L254.06 100.077L248.159 99.0999L247.175 87.5233C247.032 77.475 247.23 77.3335 247.175 70.8229C247.954 60.8478 251.025 50.2513 258.497 50.4427C265.922 50.6328 268.93 60.9624 269.591 70.823C269.586 71.205 269.398 87.3392 269.484 87.5089Z" fill="#CECECE"/>
<path d="M262.904 71.9908L261.774 70.5788L258.869 70.0762L258.869 70.1793L258.404 70.1793L258.361 70.1793L258.264 70.1793L258.264 70.0762L255.115 70.5788L253.735 71.9908C252.965 72.5433 252.825 75.3234 252.825 75.3234L252.825 80.4826L253.336 81.6078L257.121 80.9498L258.383 78.9566L259.644 80.9498L263.311 81.6078L263.704 80.4826L263.704 75.3234C263.704 75.3234 263.674 72.5427 262.904 71.9908Z" fill="#BABABA" fill-opacity="0.4"/>
<path d="M263.431 79.0868C263.42 78.9278 261.912 76.5579 261.912 76.5579L255.104 76.4775L253.429 78.8906L253.429 79.2301L253.429 79.3999L253.429 79.5696L253.429 81.5761L263.43 81.5761C263.431 81.5761 263.441 79.2457 263.431 79.0868Z" fill="#C6C6C6"/>
<path d="M262.374 74.9775L258.917 74.9775L257.598 74.9775L254.482 74.9775C254.482 74.9775 253.483 76.0836 253.32 79.5134C253.32 79.5338 253.499 79.4109 253.499 79.4109C253.953 78.7774 254.967 77.005 254.967 77.005L258.257 76.9552L261.89 76.9588C261.89 76.9588 262.904 78.6599 263.358 79.2933C263.358 79.2933 263.537 79.5368 263.537 79.5176C263.374 76.0878 262.374 74.9775 262.374 74.9775Z" fill="#29ABE2" fill-opacity="0.4"/>
<path d="M254.639 80.6894C254.639 82.0696 259.221 82.1698 259.221 80.6768C259.221 79.3656 254.639 79.2426 254.639 80.6894ZM255.038 80.675C255.038 79.6883 258.824 79.7723 258.824 80.666C258.823 81.6827 255.038 81.6155 255.038 80.675Z" fill="black" fill-opacity="0.4"/>
<path d="M256.356 79.9186C256.356 79.9186 256.367 80.3481 256.885 80.3433C257.404 80.3391 257.334 79.9564 257.345 79.9186C257.356 79.882 256.356 79.9186 256.356 79.9186Z" fill="black" fill-opacity="0.4"/>
<path d="M256.72 80.376L256.586 81.5756L257.27 81.5756L257.088 80.376L256.72 80.376Z" fill="black" fill-opacity="0.4"/>
<path d="M257.185 80.0466C257.196 80.0466 258.859 80.7688 258.859 80.7688L258.923 80.3442L257.238 79.8457L257.185 80.0466Z" fill="black" fill-opacity="0.4"/>
<path d="M256.425 80.0466C256.414 80.0466 254.638 80.7688 254.638 80.7688L254.638 80.3442L256.291 79.8457L256.425 80.0466Z" fill="black" fill-opacity="0.4"/>
<path d="M269.591 70.8227C269.591 70.8227 263.988 70.8647 262.747 64.9636C261.506 59.0619 260.778 50.9523 260.693 50.7826C260.607 50.6128 268.992 52.6504 269.591 70.8227Z" fill="#E8CDA0" fill-opacity="0.4"/>
<path d="M247.174 70.8227C247.174 70.8227 252.778 70.8647 254.019 64.9636C255.259 59.0619 255.986 50.9523 256.072 50.7826C256.157 50.6128 247.773 52.6504 247.174 70.8227Z" fill="#E8CDA0" fill-opacity="0.4"/>
<path d="M247.601 93.962C247.601 93.962 247.191 92.5939 248.543 93.0707C252.991 94.6411 263.472 94.9812 268.179 92.9861C269.164 92.5681 269.149 92.8146 269.12 93.4744C269.097 93.9687 268.392 99.099 268.392 99.099C268.392 99.099 260.35 102.156 248.158 99.099L247.601 93.962Z" fill="#E8CDA0" fill-opacity="0.4"/>
<path d="M263.704 87.888C263.704 88.1717 263.302 88.1741 262.907 88.1741L253.881 88.1741C253.485 88.1741 253.429 88.1723 253.429 87.888L253.429 84.9003C253.429 84.6178 253.485 84.5752 253.881 84.5752L262.907 84.5752C263.303 84.5752 263.704 84.6184 263.704 84.9003L263.704 87.888Z" fill="#E8CDA0" fill-opacity="0.4"/>
<path d="M241.13 65.7234C241.13 66.961 242.141 67.9643 243.388 67.9643C244.635 67.9643 245.646 66.961 245.646 65.7234C245.646 64.4857 244.635 63.4824 243.388 63.4824C242.141 63.4824 241.13 64.4857 241.13 65.7234Z" fill="#3B59AD" fill-opacity="0.4"/>
<path d="M271.149 65.7234C271.149 66.961 272.16 67.9643 273.407 67.9643C274.654 67.9643 275.665 66.961 275.665 65.7234C275.665 64.4857 274.654 63.4824 273.407 63.4824C272.16 63.4824 271.149 64.4857 271.149 65.7234Z" fill="#3B59AD" fill-opacity="0.4"/>
<path d="M271.149 90.5075C271.149 91.7452 272.16 92.7485 273.407 92.7485C274.654 92.7485 275.665 91.7452 275.665 90.5075C275.665 89.2699 274.654 88.2666 273.407 88.2666C272.16 88.2666 271.149 89.2699 271.149 90.5075Z" fill="#3B59AD" fill-opacity="0.4"/>
<path d="M240.865 90.7712C240.865 92.0089 241.875 93.0122 243.122 93.0122C244.369 93.0122 245.38 92.0089 245.38 90.7712C245.38 89.5336 244.369 88.5303 243.122 88.5303C241.875 88.5303 240.865 89.5336 240.865 90.7712Z" fill="#3B59AD" fill-opacity="0.4"/>
<path opacity="0.8" d="M-28.9638 185.076C-21.093 186.146 -13.9531 191.065 -7.36731 192.348C-0.781532 193.631 4.43315 191.92 12.3465 193.417C20.2577 194.915 25.0054 200.261 30.5669 201.758C36.1273 203.255 46.2975 203.729 50.3126 207.021C54.3278 210.313 52.7815 213.418 52.7815 213.418C52.7815 213.418 53.4358 216.086 50.3252 218.636C46.3101 221.927 36.1593 222.402 30.5962 223.899C25.0358 225.396 20.328 230.743 12.4147 232.24C4.50081 233.737 -0.782585 232.026 -7.36836 233.31C-13.9541 234.593 -21.093 239.512 -28.9638 240.582V185.076Z" fill="url(#paint1_linear)"/>
<path d="M28.215 224.326V200.542L56.3034 200.103C56.3034 200.103 79.5672 197.908 87.5435 212.474C79.8835 226.561 56.8718 224.964 56.8718 224.964L28.215 224.326Z" fill="#E5E5E5" fill-opacity="0.6"/>
<path d="M81.5033 212.41C81.5033 212.41 81.7437 202.184 61.4341 201.825C41.124 201.466 38.814 202.962 38.814 202.962V222.092L45.2864 222.692H62.7467C62.7467 222.692 80.8858 222.22 81.5033 212.41Z" fill="#E2E2E2" fill-opacity="0.9"/>
<path d="M81.6277 212.434C81.7772 220.393 71.7097 222.913 62.2012 223.552L46.4467 223.289L35.075 222.89L33.6537 216.704L34.8279 215.706L34.7989 209.082C34.7989 209.082 33.811 208.244 33.811 208.045C33.811 206.921 35.1537 201.978 35.1537 201.978C35.1537 201.978 42.8744 201.802 46.3491 201.719C46.4674 201.716 62.0054 201.264 62.2006 201.272C71.6913 201.61 81.4649 203.78 81.6277 212.434ZM46.6838 202.078C46.4272 202.039 35.9045 203.096 35.9045 203.096C35.9045 203.096 35.1464 207.23 35.1464 208.291C35.1464 208.48 36.0903 209.271 36.0903 209.271L36.1187 215.524L34.9958 216.466L35.9045 221.971L46.6704 222.889C56.015 223.022 56.1466 222.837 62.2012 222.889C71.4777 222.162 81.3321 219.297 81.1542 212.327C80.9773 205.401 71.3711 202.595 62.2012 201.978C61.8458 201.983 46.8416 202.158 46.6838 202.078Z" fill="#CECECE"/>
<path d="M61.115 208.217L62.4281 209.271L62.8955 211.981H62.7996V212.414V212.454V212.545H62.8955L62.4281 215.483L61.115 216.77C60.6012 217.488 58.0157 217.619 58.0157 217.619H53.2179L52.1715 217.142L52.7834 213.611L54.637 212.434L52.7834 211.258L52.1715 207.837L53.2179 207.471H58.0157C58.0157 207.471 60.6018 207.498 61.115 208.217Z" fill="#BABABA" fill-opacity="0.4"/>
<path d="M54.5164 207.725C54.6642 207.735 56.8681 209.142 56.8681 209.142L56.9429 215.493L54.6988 217.055H54.383H54.2252H54.0673H52.2014V207.726C52.2014 207.725 54.3685 207.715 54.5164 207.725Z" fill="#C6C6C6"/>
<path d="M58.3374 208.71V211.935V213.166V216.072C58.3374 216.072 57.3088 217.004 54.1192 217.156C54.1002 217.157 54.2146 216.989 54.2146 216.989C54.8036 216.566 56.452 215.62 56.452 215.62L56.4983 212.551L56.4949 209.162C56.4949 209.162 54.9129 208.216 54.3239 207.792C54.3239 207.792 54.0974 207.625 54.1153 207.626C57.3049 207.778 58.3374 208.71 58.3374 208.71Z" fill="#29ABE2" fill-opacity="0.4"/>
<path d="M53.0256 215.927C51.7421 215.927 51.6489 211.652 53.0373 211.652C54.2567 211.652 54.3711 215.927 53.0256 215.927ZM53.039 215.554C53.9566 215.554 53.8785 212.023 53.0474 212.023C52.1019 212.024 52.1643 215.554 53.039 215.554Z" fill="black" fill-opacity="0.4"/>
<path d="M53.7422 214.325C53.7422 214.325 53.3428 214.315 53.3473 213.831C53.3512 213.348 53.7071 213.413 53.7422 213.402C53.7762 213.392 53.7422 214.325 53.7422 214.325Z" fill="black" fill-opacity="0.4"/>
<path d="M53.3169 213.986L52.2013 214.11V213.473L53.3169 213.642V213.986Z" fill="black" fill-opacity="0.4"/>
<path d="M53.6227 213.552C53.6227 213.542 52.9511 211.99 52.9511 211.99L53.346 211.931L53.8096 213.502L53.6227 213.552Z" fill="black" fill-opacity="0.4"/>
<path d="M53.6227 214.261C53.6227 214.271 52.9511 215.928 52.9511 215.928H53.346L53.8096 214.386L53.6227 214.261Z" fill="black" fill-opacity="0.4"/>
<path d="M62.201 201.979C62.201 201.979 62.162 207.206 67.6498 208.363C73.1382 209.521 80.6799 210.199 80.8377 210.279C80.9956 210.359 79.1007 202.537 62.201 201.979Z" fill="#E8CDA0" fill-opacity="0.4"/>
<path d="M62.201 222.89C62.201 222.89 62.162 217.662 67.6498 216.506C73.1382 215.349 80.6799 214.67 80.8377 214.59C80.9956 214.511 79.1007 222.332 62.201 222.89Z" fill="#E8CDA0" fill-opacity="0.4"/>
<path d="M40.6822 222.492C40.6822 222.492 41.9546 222.874 41.5112 221.613C40.0508 217.463 39.7345 207.686 41.5898 203.296C41.9786 202.377 41.7493 202.391 41.1357 202.418C40.6761 202.439 35.9051 203.097 35.9051 203.097C35.9051 203.097 33.0619 210.599 35.9051 221.972L40.6822 222.492Z" fill="#E8CDA0" fill-opacity="0.4"/>
<path d="M46.3313 207.471C46.0674 207.471 46.0652 207.845 46.0652 208.214V216.634C46.0652 217.003 46.0669 217.055 46.3313 217.055H49.1098C49.3725 217.055 49.4121 217.003 49.4121 216.634V208.214C49.4121 207.844 49.3719 207.471 49.1098 207.471H46.3313Z" fill="#E8CDA0" fill-opacity="0.4"/>
<path d="M66.9433 228.528C65.7924 228.528 64.8593 227.585 64.8593 226.422C64.8593 225.258 65.7924 224.315 66.9433 224.315C68.0943 224.315 69.0273 225.258 69.0273 226.422C69.0273 227.585 68.0943 228.528 66.9433 228.528Z" fill="#3B59AD" fill-opacity="0.4"/>
<path d="M66.9433 200.525C65.7924 200.525 64.8593 199.582 64.8593 198.419C64.8593 197.256 65.7924 196.312 66.9433 196.312C68.0943 196.312 69.0273 197.256 69.0273 198.419C69.0273 199.582 68.0943 200.525 66.9433 200.525Z" fill="#3B59AD" fill-opacity="0.4"/>
<path d="M43.895 200.525C42.744 200.525 41.811 199.582 41.811 198.419C41.811 197.256 42.744 196.312 43.895 196.312C45.046 196.312 45.979 197.256 45.979 198.419C45.979 199.582 45.046 200.525 43.895 200.525Z" fill="#3B59AD" fill-opacity="0.4"/>
<path d="M43.6499 228.775C42.4989 228.775 41.5659 227.832 41.5659 226.669C41.5659 225.506 42.4989 224.562 43.6499 224.562C44.8008 224.562 45.7339 225.506 45.7339 226.669C45.7339 227.832 44.8008 228.775 43.6499 228.775Z" fill="#3B59AD" fill-opacity="0.4"/>
<path d="M51.6315 215.321C51.6315 215.321 52.1116 214.935 51.3474 214.755C50.5828 214.575 49.8186 214.223 49.8186 214.223C49.8186 214.223 50.0556 213.402 50.281 213.29C50.5056 213.178 51.5304 213.272 51.7872 212.559C52.0443 211.847 52.2069 211.525 51.1295 211.829C50.0528 212.134 49.2927 212.244 49.2927 212.244L48.6316 215.208L51.4597 215.321" fill="#996234" fill-opacity="0.4"/>
<path d="M48.9281 214.947C48.9281 214.947 50.5986 216.027 50.5405 215.451C50.4811 214.874 50.0734 215.174 50.0355 214.442C49.9972 213.71 50.5801 213.81 50.2711 212.912C49.9651 212.014 50.1762 211.679 49.6858 211.83C49.1975 211.981 48.927 212.014 48.927 212.014L48.9281 214.947Z" fill="#EF45B7" fill-opacity="0.4"/>
<path d="M48.9054 215.805C48.9054 215.805 50.1825 215.855 50.5127 215.889C51.1315 215.953 52.412 215.428 52.6455 215.428C52.8805 215.428 53.125 215.391 52.7794 215.081C52.4308 214.772 51.265 215.076 50.6814 215.207C50.0985 215.339 49.3883 214.961 49.2005 214.947C49.013 214.932 49.2831 215.321 49.2831 215.321L48.9054 215.805Z" fill="#996234" fill-opacity="0.4"/>
<path d="M48.8242 211.795C48.8242 211.795 50.1822 211.394 50.5107 211.36C51.1295 211.296 52.41 211.821 52.6436 211.821C52.8785 211.821 53.123 211.858 52.7774 212.168C52.4288 212.478 51.263 212.173 50.6794 212.042C50.0965 211.909 49.445 212.546 49.2575 212.56C49.0697 212.574 49.2811 211.928 49.2811 211.928L48.8242 211.795Z" fill="#996234" fill-opacity="0.4"/>
<path d="M48.9052 216.372C48.9052 216.372 47.3256 216.132 47.006 215.154C46.6857 214.176 46.5743 213.837 46.9547 212.959C47.3351 212.08 47.1255 211.615 47.9184 211.681C48.7109 211.748 49.121 211.217 49.246 211.977C49.3809 212.797 49.5301 215.002 49.5496 215.154C49.6568 216.088 48.9052 216.372 48.9052 216.372Z" fill="#8BC7E8" fill-opacity="0.4"/>
<path d="M47.0049 213.985C47.0049 213.985 47.0923 214.873 47.8244 214.74C48.5565 214.607 48.8243 214.997 49.0537 214.37C49.2829 213.743 49.8944 213.431 49.2828 213.154C48.6716 212.878 48.3469 212.678 47.9173 212.878C47.4867 213.077 47.3822 213.035 47.1097 213.289C46.8372 213.543 47.0049 213.985 47.0049 213.985Z" fill="#301705" fill-opacity="0.4"/>
<rect x="315.137" y="15.709" width="38.9496" height="25" rx="12.5" fill="#969696" fill-opacity="0.3"/>
<path d="M326.659 26.9141H327.506C327.976 26.9141 328.386 26.832 328.737 26.668C329.088 26.4993 329.354 26.2715 329.537 25.9844C329.723 25.6927 329.817 25.3577 329.817 24.9795C329.817 24.3415 329.637 23.8424 329.277 23.4824C328.917 23.1224 328.4 22.9424 327.725 22.9424C327.087 22.9424 326.563 23.1315 326.153 23.5098C325.747 23.8835 325.544 24.3779 325.544 24.9932H324.724C324.724 24.4782 324.854 24.0088 325.114 23.585C325.374 23.1566 325.734 22.8262 326.194 22.5938C326.654 22.3613 327.165 22.2451 327.725 22.2451C328.627 22.2451 329.338 22.4912 329.858 22.9834C330.377 23.4756 330.637 24.1501 330.637 25.0068C330.637 25.4854 330.485 25.9274 330.179 26.333C329.878 26.734 329.464 27.0348 328.935 27.2354C329.555 27.4085 330.024 27.707 330.343 28.1309C330.662 28.5501 330.822 29.0514 330.822 29.6348C330.822 30.487 330.544 31.1729 329.988 31.6924C329.432 32.2119 328.689 32.4717 327.759 32.4717C327.167 32.4717 326.622 32.3532 326.125 32.1162C325.633 31.8792 325.25 31.5488 324.977 31.125C324.708 30.6966 324.574 30.1999 324.574 29.6348H325.394C325.394 30.2682 325.615 30.7855 326.057 31.1865C326.499 31.583 327.067 31.7812 327.759 31.7812C328.466 31.7812 329.015 31.6012 329.407 31.2412C329.803 30.8766 330.001 30.3503 330.001 29.6621C330.001 28.9967 329.787 28.4886 329.359 28.1377C328.935 27.7868 328.308 27.6113 327.479 27.6113H326.659V26.9141ZM332.62 33.1895H331.875L336.031 22.3818H336.769L332.62 33.1895ZM342.997 22.3066V23.0244H342.901C341.711 23.0244 340.775 23.3753 340.091 24.0771C339.408 24.7744 339.029 25.7451 338.957 26.9893C339.23 26.611 339.579 26.3193 340.002 26.1143C340.426 25.9046 340.9 25.7998 341.424 25.7998C342.299 25.7998 342.994 26.1029 343.509 26.709C344.029 27.3105 344.289 28.099 344.289 29.0742C344.289 29.7214 344.168 30.3047 343.926 30.8242C343.685 31.3438 343.338 31.7493 342.887 32.041C342.436 32.3281 341.921 32.4717 341.342 32.4717C340.39 32.4717 339.615 32.1276 339.018 31.4395C338.421 30.7467 338.123 29.8535 338.123 28.7598V27.9395C338.123 26.1576 338.528 24.779 339.339 23.8037C340.151 22.8239 341.301 22.3249 342.792 22.3066H342.997ZM341.294 26.5039C340.775 26.5039 340.29 26.6589 339.838 26.9688C339.392 27.2741 339.093 27.6637 338.943 28.1377V28.835C338.943 29.7008 339.164 30.4072 339.606 30.9541C340.053 31.501 340.631 31.7744 341.342 31.7744C341.98 31.7744 342.495 31.5215 342.887 31.0156C343.284 30.5098 343.482 29.8717 343.482 29.1016C343.482 28.3177 343.284 27.6888 342.887 27.2148C342.495 26.7409 341.964 26.5039 341.294 26.5039Z" fill="black"/>
</g>
<defs>
<linearGradient id="paint0_linear" x1="300.458" y1="170.771" x2="370.774" y2="170.771" gradientUnits="userSpaceOnUse">
<stop offset="0.411458" stop-color="white" stop-opacity="0.8"/>
<stop offset="1" stop-color="white" stop-opacity="0"/>
</linearGradient>
<linearGradient id="paint1_linear" x1="51.9857" y1="212.829" x2="-28.9639" y2="212.829" gradientUnits="userSpaceOnUse">
<stop offset="0.322917" stop-color="white" stop-opacity="0.89"/>
<stop offset="1" stop-color="white" stop-opacity="0"/>
</linearGradient>
<clipPath id="clip0">
<rect width="375" height="375" fill="white" transform="translate(0.136719 0.708984)"/>
</clipPath>
</defs>
</svg>
