<svg width="376" height="376" viewBox="0 0 376 376" fill="none" xmlns="http://www.w3.org/2000/svg">
<g clip-path="url(#clip0)">
<path d="M-1.13623 -33.4326H379.695L380.162 223.476H-0.668887L-1.13623 -33.4326Z" fill="url(#paint0_linear)"/>
<path d="M252.281 93.548L251.455 92.7586C251.455 92.7586 285.845 76.4911 308.629 110.762C308.297 111.518 252.281 93.548 252.281 93.548Z" fill="#D1D1D1"/>
<path d="M248.741 112.632L249.736 117.614L299.947 128.879L308.629 110.763L251.455 92.7588L248.741 112.632Z" fill="#D1D1D1"/>
<path d="M260.424 97.2014L299.576 109.622L301.986 102.026L262.834 89.6051L260.424 97.2014Z" fill="#D1D1D1"/>
<path d="M277.094 80.8546C277.085 80.878 277.533 80.5574 277.533 80.5574C278.558 80.046 280.959 78.5605 280.959 78.5605L286.648 80.3446L292.912 82.3597C292.912 82.3597 294.013 84.9664 294.557 85.9747C294.557 85.9747 294.673 86.4575 294.679 86.4332C295.899 82.5899 295.399 80.0122 292.358 79.0471L283.457 76.2233C280.202 75.3238 278.257 77.0614 277.094 80.8546Z" fill="#29ABE2"/>
<path d="M270.101 102.472C269.161 105.433 270.643 108.545 273.411 109.423L281.474 111.982C284.241 112.86 287.246 111.171 288.186 108.21L294.564 88.104C295.505 85.1429 294.023 82.0309 291.256 81.1529L283.192 78.5945C280.425 77.7165 277.42 79.405 276.48 82.3661L270.101 102.472Z" fill="#D1D1D1"/>
<path d="M261.175 92.3257C261.028 92.7874 261.283 93.2815 261.745 93.4277L300.275 105.653C300.736 105.799 301.23 105.543 301.376 105.081C301.523 104.619 301.268 104.125 300.805 103.979L262.277 91.7543C261.815 91.6075 261.322 91.8635 261.175 92.3257Z" fill="#E8CDA0"/>
<path d="M283.465 83.4483L283.211 83.6895L288.256 89.0017L288.509 88.7605L283.465 83.4483Z" fill="#969696"/>
<path d="M282.098 87.0319L282.179 87.3721L289.305 85.6756L289.224 85.3354L282.098 87.0319Z" fill="#969696"/>
<path d="M287.707 80.6335C284.556 79.6337 281.19 81.3774 280.19 84.5293C279.19 87.6812 280.935 91.0463 284.086 92.0466C287.238 93.0469 290.603 91.3027 291.603 88.1504C292.603 84.999 290.859 81.6338 287.707 80.6335ZM284.339 91.2479C281.629 90.3877 280.129 87.4932 280.988 84.7829C281.848 82.0726 284.743 80.5726 287.454 81.4327C290.164 82.2929 291.664 85.1874 290.804 87.8977C289.944 90.6076 287.05 92.1076 284.339 91.2479Z" fill="black" stroke="black" stroke-miterlimit="10"/>
<path d="M286.434 81.2182C286.458 81.222 287.155 81.3584 286.993 81.9063C286.831 82.4548 286.694 82.8926 286.694 82.8926C286.694 82.8926 286.525 83.3402 286.784 83.4223C286.809 83.4302 286.997 83.4902 287.018 83.4968C287.234 83.5652 287.32 83.3135 287.385 83.1026C287.455 82.8743 287.695 82.1684 287.695 82.1684C287.695 82.1684 287.896 81.7038 288.408 81.8665C288.935 82.0329 288.36 81.641 288.36 81.641L286.702 81.123L286.434 81.2182Z" fill="black" stroke="black" stroke-miterlimit="10"/>
<path d="M281.668 83.407C281.685 83.3873 282.133 82.8534 282.528 83.2678C282.922 83.6817 283.195 83.978 283.195 83.978C283.195 83.978 283.46 84.3084 283.661 84.1247C283.68 84.1069 283.827 83.9742 283.843 83.9592C284.009 83.8064 283.872 83.6461 283.723 83.4848C283.56 83.31 283.087 82.77 283.087 82.77C283.087 82.77 282.726 82.3486 283.147 82.0134C283.577 81.6713 282.977 81.9464 282.977 81.9464L281.702 83.1248L281.668 83.407Z" fill="black" stroke="black" stroke-miterlimit="10"/>
<path d="M281.23 88.5086C281.221 88.4852 280.984 87.8289 281.539 87.6949C282.096 87.5608 282.487 87.4727 282.487 87.4727C282.487 87.4727 282.907 87.4075 282.848 87.1418C282.842 87.116 282.8 86.9228 282.796 86.9013C282.747 86.6805 282.54 86.7194 282.325 86.7686C282.092 86.8216 281.388 86.9618 281.388 86.9618C281.388 86.9618 280.871 86.9833 280.756 86.4579C280.637 85.9188 280.619 86.6453 280.619 86.6453L281.002 88.3385L281.23 88.5086Z" fill="black"/>
<path d="M285.576 91.4768C285.551 91.4726 284.864 91.3503 285.025 90.8018C285.187 90.2538 285.319 89.8338 285.319 89.8338C285.319 89.8338 285.483 89.4035 285.224 89.321C285.199 89.3131 285.01 89.2535 284.989 89.2465C284.774 89.1781 284.692 89.4124 284.628 89.6229C284.557 89.8517 284.321 90.5492 284.321 90.5492C284.321 90.5492 284.053 91.0479 283.529 90.8787C283.005 90.709 283.658 91.0699 283.658 91.0699L285.315 91.587L285.576 91.4768Z" fill="black" stroke="black" stroke-miterlimit="10"/>
<path d="M290.159 89.2413C290.143 89.261 289.694 89.7944 289.3 89.3805C288.906 88.9662 288.633 88.6699 288.633 88.6699C288.633 88.6699 288.368 88.3399 288.166 88.5232C288.147 88.541 288.001 88.6741 287.985 88.6891C287.818 88.8415 287.955 89.0018 288.105 89.163C288.268 89.3383 288.741 89.8784 288.741 89.8784C288.741 89.8784 289.014 90.3387 288.617 90.7015C288.21 91.0737 288.851 90.7024 288.851 90.7024L290.126 89.524L290.159 89.2413Z" fill="black" stroke="black" stroke-miterlimit="10"/>
<path d="M290.517 84.0625C290.527 84.0859 290.764 84.7422 290.209 84.8763C289.653 85.0103 289.261 85.0989 289.261 85.0989C288.767 85.1753 288.937 85.5972 288.9 85.4289C288.894 85.4036 288.948 85.6473 288.952 85.6698C289.001 85.8906 289.209 85.8522 289.423 85.8025C289.655 85.7491 290.36 85.6094 290.36 85.6094C290.36 85.6094 290.916 85.6216 291.032 86.1466C291.15 86.6861 291.13 85.9253 291.13 85.9253L290.745 84.2322L290.517 84.0625Z" fill="black" stroke="black" stroke-miterlimit="10"/>
<path d="M286.386 85.0602C285.669 84.8328 284.903 85.2294 284.676 85.9466C284.449 86.6638 284.845 87.4297 285.563 87.6571C286.279 87.8839 287.045 87.4874 287.273 86.7702C287.5 86.0535 287.102 85.288 286.386 85.0602ZM285.766 87.0111C285.406 86.8968 285.207 86.5119 285.321 86.1514C285.435 85.791 285.82 85.5918 286.181 85.7061C286.542 85.8205 286.74 86.2049 286.626 86.5654C286.512 86.9258 286.127 87.1255 285.766 87.0111Z" fill="#969696"/>
<path d="M286.004 87.0706C286.436 87.0706 286.785 86.7208 286.785 86.2892C286.785 85.8577 286.436 85.5078 286.004 85.5078C285.573 85.5078 285.223 85.8577 285.223 86.2892C285.223 86.7208 285.573 87.0706 286.004 87.0706Z" fill="black"/>
<path d="M285.595 92.1447C285.595 92.1447 286.698 97.5082 285.237 97.0525C283.778 96.596 284.277 96.1858 282.398 95.6927C280.519 95.1991 280.982 96.1225 278.837 94.8991C276.692 93.6738 275.656 94.1336 276.345 93.0541C277.036 91.9764 278.56 90.1572 278.56 90.1572L285.595 92.1447Z" fill="#EF45B7"/>
<path d="M278.507 90.2809C278.507 90.2809 278.15 86.4695 278.004 85.4884C277.732 83.6514 278.793 79.7397 278.75 79.0394C278.706 78.3376 278.752 77.5989 279.581 78.5903C280.41 79.5826 279.873 83.1137 279.655 84.8795C279.437 86.6439 280.501 88.7097 280.572 89.2689C280.641 89.829 279.634 89.079 279.634 89.079L278.507 90.2809Z" fill="#996234"/>
<path d="M285.587 92.6336C285.587 92.6336 288.227 89.3819 288.727 88.525C289.664 86.921 290.136 82.8967 290.437 82.262C290.738 81.6274 290.972 80.9242 289.833 81.5359C288.695 82.1481 287.876 85.6249 287.421 87.3447C286.967 89.0641 284.71 90.152 284.437 90.6447C284.163 91.1383 285.878 91.2503 285.878 91.2503L285.587 92.6336Z" fill="#996234"/>
<path d="M290.188 87.2658C290.188 87.2658 292.378 82.7241 289.918 80.9681C287.801 79.456 286.251 77.88 283.852 78.3853C281.452 78.8911 280.651 78.1036 279.648 80.2631C278.697 82.3106 276.692 83.6602 278.579 84.0014C279.799 84.2217 277.343 90.2714 277.666 90.4139C280.073 91.4705 285.678 92.9269 285.984 93.0624C286.12 93.1228 287.484 87.532 287.613 87.5766C289.483 88.2375 290.188 87.2658 290.188 87.2658Z" fill="#8BC7E8"/>
<path d="M286.865 72.0596C286.865 72.0596 285.976 74.6527 285.022 77.8257C284.379 79.9585 285.902 80.6705 287.054 80.2149C288.54 79.628 288.776 75.9136 289.121 75.2729C289.467 74.6311 286.865 72.0596 286.865 72.0596Z" fill="#996234"/>
<path d="M286.168 78.2946C286.168 78.2946 284.155 77.381 285.132 75.3888C286.108 73.3966 285.44 71.4607 287.134 71.4147C288.734 71.3721 290.093 70.4557 290.191 72.409C290.289 74.3622 290.465 75.4385 289.605 76.5171C288.745 77.5971 288.748 77.9276 287.903 78.5154C287.058 79.1046 286.168 78.2946 286.168 78.2946Z" fill="#301705"/>
<path d="M287.425 95.676C287.425 95.676 288.528 101.04 287.067 100.584C285.607 100.128 286.106 99.7175 284.228 99.2235C282.349 98.7304 282.812 99.6538 280.666 98.4304C278.522 97.205 277.486 97.6644 278.176 96.5849C278.866 95.5072 280.389 93.6885 280.389 93.6885L287.425 95.676Z" fill="#EF45B7"/>
<path d="M291.846 89.6611C291.846 89.6611 291.537 93.4772 291.511 94.4682C291.468 96.0647 290.191 98.9977 289.782 100.234C289.715 100.436 291.351 101.122 291.34 101.22C291.261 101.918 289.159 101.451 288.763 100.989C288.214 100.351 289.26 96.4838 289.781 94.7832C290.3 93.083 289.61 90.8639 289.637 90.3014C289.666 89.738 290.528 90.6507 290.528 90.6507L291.846 89.6611Z" fill="#996234"/>
<path d="M281.447 85.7266C281.447 85.7266 279.26 89.2989 278.877 90.2144C278.233 91.7561 278.22 95.1878 278.068 96.3503C278.051 96.4801 276.596 96.648 276.526 96.6423C275.323 96.5481 277.952 98.184 279 97.4275C280.046 96.67 280.103 92.9767 280.327 91.2119C280.549 89.4484 282.643 88.0708 282.849 87.5467C283.055 87.0212 281.34 87.1366 281.34 87.1366L281.447 85.7266Z" fill="#996234"/>
<path d="M292.018 90.798C292.018 90.798 294.208 86.2563 291.749 84.4999C289.631 82.9882 288.081 81.4122 285.682 81.9176C283.282 82.4229 282.481 81.6358 281.478 83.7949C280.527 85.8429 278.522 87.1919 280.409 87.5332C281.629 87.7535 279.173 93.8032 279.496 93.9457C281.903 95.0022 287.508 96.4591 287.814 96.5946C287.951 96.6555 289.313 91.0638 289.443 91.1088C291.313 91.7688 292.018 90.798 292.018 90.798Z" fill="#8BC7E8"/>
<path d="M288.694 75.5918C288.694 75.5918 287.807 78.1849 286.852 81.3574C286.209 83.4907 287.732 84.2023 288.884 83.7471C290.369 83.1602 290.605 79.4459 290.951 78.8051C291.297 78.1634 288.694 75.5918 288.694 75.5918Z" fill="#996234"/>
<path d="M287.998 81.826C287.998 81.826 285.985 80.912 286.963 78.9202C287.938 76.928 287.27 74.9921 288.965 74.9462C290.564 74.903 291.924 73.9871 292.021 75.9404C292.119 77.8937 292.295 78.9699 291.435 80.0476C290.575 81.1276 290.578 81.4585 289.734 82.0463C288.889 82.636 287.998 81.826 287.998 81.826Z" fill="#301705"/>
<path d="M301.276 100.071C301.276 100.071 302.379 105.434 300.918 104.978C299.458 104.521 299.957 104.112 298.079 103.618C296.2 103.124 296.663 104.048 294.517 102.825C292.373 101.6 291.338 102.059 292.027 100.98C292.717 99.9018 294.241 98.083 294.241 98.083L301.276 100.071Z" fill="#EF45B7"/>
<path d="M305.697 94.0557C305.697 94.0557 305.388 97.8713 305.362 98.8627C305.318 100.459 304.041 103.392 303.632 104.628C303.565 104.831 305.202 105.516 305.191 105.614C305.112 106.313 303.01 105.845 302.614 105.384C302.065 104.746 303.11 100.878 303.631 99.1777C304.151 97.4775 303.461 95.2589 303.488 94.6955C303.517 94.1321 304.378 95.0447 304.378 95.0447L305.697 94.0557Z" fill="#996234"/>
<path d="M295.297 90.1211C295.297 90.1211 293.111 93.6934 292.728 94.6089C292.084 96.1502 292.07 99.5823 291.918 100.744C291.901 100.874 290.446 101.042 290.376 101.037C289.174 100.942 291.802 102.578 292.85 101.822C293.896 101.065 293.953 97.3708 294.177 95.6059C294.4 93.842 296.494 92.4648 296.699 91.9408C296.905 91.4148 295.19 91.5306 295.19 91.5306L295.297 90.1211Z" fill="#996234"/>
<path d="M305.869 95.1926C305.869 95.1926 308.059 90.6504 305.6 88.8949C303.481 87.3827 301.932 85.8068 299.532 86.3121C297.132 86.8179 296.332 86.0304 295.328 88.1899C294.378 90.2374 292.373 91.5869 294.26 91.9282C295.48 92.1485 293.024 98.1982 293.347 98.3407C295.754 99.3972 301.359 100.854 301.665 100.99C301.802 101.051 303.164 95.4593 303.294 95.5038C305.164 96.1638 305.869 95.1926 305.869 95.1926Z" fill="#8BC7E8"/>
<path d="M302.546 79.9863C302.546 79.9863 301.657 82.579 300.703 85.752C300.06 87.8848 301.584 88.5968 302.734 88.1412C304.22 87.5548 304.457 83.8404 304.802 83.1991C305.148 82.5579 302.546 79.9863 302.546 79.9863Z" fill="#996234"/>
<path d="M301.848 86.2208C301.848 86.2208 299.836 85.3068 300.813 83.3151C301.789 81.3229 301.12 79.3869 302.815 79.3405C304.415 79.2979 305.775 78.3815 305.872 80.3347C305.969 82.288 306.145 83.3638 305.286 84.4424C304.426 85.5224 304.429 85.8533 303.585 86.4412C302.739 87.0304 301.848 86.2208 301.848 86.2208Z" fill="#301705"/>
<path d="M285.889 110.739C285.54 111.823 277.721 122.97 276.638 122.619L272.037 121.115C270.955 120.764 270.196 106.863 270.545 105.779L274.075 94.8192C274.424 93.7359 275.588 93.1406 276.671 93.4912L288.092 97.1826C289.175 97.5328 289.769 98.6948 289.419 99.779L285.889 110.739Z" fill="#394963"/>
<path d="M266.17 108.403C266.278 108.064 266.09 107.702 265.304 107.452L250.129 102.638C250.236 102.672 249.875 102.859 249.767 103.199C249.659 103.538 249.847 103.901 250.186 104.008L265.362 108.823C265.7 108.93 266.062 108.743 266.17 108.403Z" fill="#FF0000"/>
<path d="M304.635 120.608C304.743 120.268 304.555 119.906 304.216 119.799L289.041 114.984C288.702 114.876 288.339 115.063 288.231 115.403C288.124 115.742 288.312 116.104 288.65 116.212L303.826 121.027C304.165 121.135 304.528 120.947 304.635 120.608Z" fill="#FF0000"/>
<path d="M64.6023 97.2711L63.5767 96.7686C63.5767 96.7686 91.4368 70.8622 123.519 96.6378C123.43 97.4582 64.6023 97.2711 64.6023 97.2711Z" fill="#D1D1D1"/>
<path d="M66.9994 116.532H120.721L123.518 96.6377L63.5757 96.7685L66.9994 116.532Z" fill="#D1D1D1"/>
<path d="M114.553 90.3096H73.479V98.2783H114.553V90.3096Z" fill="#D1D1D1"/>
<path d="M84.4154 77.668C84.4126 77.6933 84.7435 77.2522 84.7435 77.2522C85.5657 76.4549 87.4046 74.3127 87.4046 74.3127L93.3662 74.2925L99.9474 74.3188C99.9474 74.3188 101.785 76.4704 102.608 77.2668C102.608 77.2668 102.864 77.6919 102.863 77.6671C102.863 73.6349 101.608 71.3291 98.4165 71.3291H89.079C85.7049 71.4566 84.376 73.701 84.4154 77.668Z" fill="#29ABE2"/>
<path d="M84.2871 100.388C84.2871 103.494 86.6407 106.013 89.5437 106.013H98.0037C100.907 106.013 103.26 103.494 103.26 100.388V79.2939C103.26 76.1875 100.907 73.6689 98.0037 73.6689H89.5437C86.6407 73.6689 84.2871 76.1875 84.2871 79.2939V100.388Z" fill="#D1D1D1"/>
<path d="M72.7095 93.4161C72.7095 93.9007 73.1023 94.294 73.5874 94.294H114.009C114.494 94.294 114.887 93.9012 114.887 93.4161C114.887 92.9309 114.494 92.5381 114.009 92.5381H73.5874C73.1028 92.5381 72.7095 92.9314 72.7095 93.4161Z" fill="#E8CDA0"/>
<path d="M91.2557 78.2186L91.0869 78.5254L97.5049 82.0571L97.6737 81.7503L91.2557 78.2186Z" fill="#969696"/>
<path d="M91.0572 82.0317L91.2373 82.332L97.519 78.5642L97.3388 78.2639L91.0572 82.0317Z" fill="#969696"/>
<path d="M94.4639 74.2471C91.1574 74.2471 88.4771 76.9274 88.4771 80.2339C88.4771 83.5405 91.1574 86.2208 94.4639 86.2208C97.7705 86.2208 100.451 83.5405 100.451 80.2339C100.451 76.9274 97.77 74.2471 94.4639 74.2471ZM94.4639 85.3827C91.6205 85.3827 89.3152 83.0779 89.3152 80.2339C89.3152 77.3905 91.6205 75.0852 94.4639 75.0852C97.3073 75.0852 99.6127 77.3905 99.6127 80.2339C99.6122 83.0779 97.3073 85.3827 94.4639 85.3827Z" fill="black" stroke="black" stroke-miterlimit="10"/>
<path d="M93.4272 75.1893C93.4521 75.1856 94.1566 75.1049 94.1683 75.6763C94.1801 76.2482 94.1819 76.7062 94.1819 76.7062C94.1819 76.7062 94.1552 77.1843 94.4276 77.1843C94.4533 77.1843 94.6511 77.1843 94.6732 77.1843C94.8996 77.1843 94.9061 76.918 94.9043 76.6977C94.9024 76.4587 94.9165 75.7134 94.9165 75.7134C94.9165 75.7134 94.968 75.2099 95.5061 75.2099C96.0583 75.2099 95.3908 75.0098 95.3908 75.0098L93.6546 75.0173L93.4272 75.1893Z" fill="black" stroke="black" stroke-miterlimit="10"/>
<path d="M89.5466 78.7173C89.556 78.6938 89.8227 78.0493 90.3238 78.3249C90.8249 78.6006 91.1741 78.8002 91.1741 78.8002C91.1741 78.8002 91.5271 79.0346 91.663 78.7988C91.6757 78.7763 91.775 78.6052 91.7863 78.586C91.8993 78.3901 91.7197 78.279 91.5285 78.1707C91.3204 78.053 90.7063 77.6818 90.7063 77.6818C90.7063 77.6818 90.2347 77.3893 90.5343 76.9426C90.8408 76.486 90.3519 76.9299 90.3519 76.9299L89.4932 78.4388L89.5466 78.7173Z" fill="black" stroke="black" stroke-miterlimit="10"/>
<path d="M90.6718 83.7131C90.6564 83.6934 90.2317 83.1398 90.7206 82.844C91.2095 82.5482 91.5573 82.3453 91.5573 82.3453C91.5573 82.3453 91.937 82.1568 91.8011 81.9215C91.7879 81.8986 91.6895 81.7275 91.6782 81.7082C91.5653 81.5123 91.3792 81.6117 91.1898 81.7237C90.984 81.8451 90.355 82.1915 90.355 82.1915C90.355 82.1915 89.8689 82.3682 89.6003 81.9028C89.3242 81.4246 89.5267 82.1221 89.5267 82.1221L90.4042 83.6203L90.6718 83.7131Z" fill="black"/>
<path d="M95.7119 85.2274C95.6871 85.2307 94.9952 85.3221 94.9835 84.7507C94.9718 84.1793 94.9699 83.7391 94.9699 83.7391C94.9699 83.7391 94.9966 83.2793 94.7243 83.2793C94.698 83.2793 94.5007 83.2793 94.4787 83.2793C94.2523 83.2793 94.2457 83.5273 94.2476 83.7476C94.2494 83.9866 94.2349 84.723 94.2349 84.723C94.2349 84.723 94.1308 85.2799 93.5805 85.2766C93.0283 85.2738 93.761 85.4201 93.761 85.4201L95.4973 85.4112L95.7119 85.2274Z" fill="black" stroke="black" stroke-miterlimit="10"/>
<path d="M99.4052 81.7103C99.3958 81.7333 99.1291 82.3783 98.628 82.1026C98.1269 81.827 97.7777 81.6273 97.7777 81.6273C97.7777 81.6273 97.4247 81.393 97.2887 81.6283C97.2756 81.6508 97.1767 81.8219 97.1655 81.8411C97.0525 82.037 97.232 82.1486 97.4233 82.2569C97.6314 82.3745 98.2455 82.7462 98.2455 82.7462C98.2455 82.7462 98.6463 83.102 98.3772 83.568C98.1011 84.0461 98.5998 83.4981 98.5998 83.4981L99.4586 81.9892L99.4052 81.7103Z" fill="black" stroke="black" stroke-miterlimit="10"/>
<path d="M98.1796 76.665C98.1951 76.6847 98.6198 77.2383 98.1309 77.5341C97.6419 77.8299 97.2937 78.0329 97.2937 78.0329C96.8465 78.255 97.1366 78.6057 97.0504 78.4566C97.0373 78.4341 97.1619 78.6507 97.1732 78.6699C97.2862 78.8654 97.4723 78.766 97.6621 78.6539C97.8679 78.5325 98.4969 78.1861 98.4969 78.1861C98.4969 78.1861 99.0304 78.0296 99.2994 78.4955C99.5751 78.9736 99.3257 78.2555 99.3257 78.2555L98.4477 76.7574L98.1796 76.665Z" fill="black" stroke="black" stroke-miterlimit="10"/>
<path d="M94.5429 78.8662C93.7905 78.8662 93.1807 79.4761 93.1807 80.2284C93.1807 80.9807 93.7905 81.5906 94.5429 81.5906C95.2947 81.5906 95.9051 80.9807 95.9051 80.2284C95.9046 79.4765 95.2947 78.8662 94.5429 78.8662ZM94.5429 80.9132C94.1646 80.9132 93.8585 80.6067 93.8585 80.2289C93.8585 79.8511 94.165 79.5445 94.5429 79.5445C94.9207 79.5445 95.2272 79.8511 95.2272 80.2289C95.2272 80.6067 94.9207 80.9132 94.5429 80.9132Z" fill="#969696"/>
<path d="M94.5509 80.9358C94.9827 80.9358 95.3328 80.5858 95.3328 80.1539C95.3328 79.7221 94.9827 79.3721 94.5509 79.3721C94.1191 79.3721 93.769 79.7221 93.769 80.1539C93.769 80.5858 94.1191 80.9358 94.5509 80.9358Z" fill="black"/>
<path d="M95.9325 85.8574C95.9325 85.8574 98.6063 90.6363 97.0753 90.6434C95.5458 90.6504 95.8978 90.108 93.9581 90.2055C92.0189 90.303 92.7389 91.0437 90.3239 90.5262C87.9089 90.0073 87.0609 90.7582 87.3919 89.5207C87.7233 88.2855 88.6256 86.0909 88.6256 86.0909L95.9325 85.8574Z" fill="#EF45B7"/>
<path d="M88.6127 86.2256C88.6127 86.2256 87.1192 82.7006 86.6838 81.8095C85.8682 80.1403 85.6966 76.0917 85.4435 75.4368C85.1899 74.7815 85.0113 74.0629 86.1002 74.7572C87.1896 75.4523 87.7464 78.9806 88.0727 80.7295C88.3985 82.4775 90.0377 84.1242 90.2744 84.6356C90.5092 85.1484 89.3228 84.7382 89.3228 84.7382L88.6127 86.2256Z" fill="#996234"/>
<path d="M96.0723 86.3277C96.0723 86.3277 97.6047 82.43 97.8226 81.462C98.23 79.6499 97.4636 75.6711 97.5587 74.975C97.6539 74.2794 97.6637 73.5388 96.7633 74.466C95.8642 75.3936 96.1351 78.9552 96.2214 80.7317C96.309 82.5078 94.4861 84.2277 94.375 84.7799C94.2634 85.333 95.9322 84.921 95.9322 84.921L96.0723 86.3277Z" fill="#996234"/>
<path d="M98.8345 79.8189C98.8345 79.8189 99.548 74.8272 96.6731 73.8976C94.1976 73.097 92.2434 72.0634 90.1087 73.2709C87.974 74.4789 86.9733 73.9708 86.67 76.3323C86.3826 78.5715 84.8803 80.4639 86.7815 80.2187C88.0111 80.0603 87.5001 86.5689 87.8512 86.6069C90.464 86.8862 96.247 86.5797 96.5803 86.6162C96.7289 86.6326 96.337 80.8909 96.4734 80.8947C98.4562 80.9575 98.8345 79.8189 98.8345 79.8189Z" fill="#8BC7E8"/>
<path d="M91.0682 66.3301C91.0682 66.3301 91.0058 69.0704 91.0551 72.383C91.0883 74.6106 92.7552 74.8285 93.7152 74.0462C94.9536 73.0374 94.0555 69.4257 94.191 68.7104C94.3265 67.9946 91.0682 66.3301 91.0682 66.3301Z" fill="#996234"/>
<path d="M92.2892 72.4836C92.2892 72.4836 90.0941 72.2211 90.4241 70.0269C90.7518 67.8331 89.5283 66.1897 91.13 65.6338C92.6418 65.1088 93.6603 63.8244 94.3438 65.6567C95.0272 67.4891 95.5213 68.4613 95.0272 69.7489C94.5341 71.0384 94.6372 71.3525 94.01 72.1686C93.3838 72.9856 92.2892 72.4836 92.2892 72.4836Z" fill="#301705"/>
<path d="M82.8075 88.6699C82.8075 88.6699 85.4813 93.4488 83.9503 93.4559C82.4208 93.4629 82.7728 92.9205 80.8331 93.018C78.8939 93.1155 79.6139 93.8562 77.1989 93.3387C74.7839 92.8198 73.9359 93.5707 74.2669 92.3332C74.5983 91.098 75.5006 88.9034 75.5006 88.9034L82.8075 88.6699Z" fill="#EF45B7"/>
<path d="M85.2022 81.6006C85.2022 81.6006 86.0619 85.3309 86.3366 86.2839C86.7782 87.8181 86.4472 91.0004 86.4318 92.3026C86.4294 92.5159 88.1966 92.6739 88.2153 92.7709C88.3513 93.4604 86.2068 93.6503 85.6897 93.3306C84.9735 92.8881 84.8 88.8859 84.7818 87.107C84.7635 85.3295 83.4346 83.4231 83.2902 82.8784C83.1472 82.3328 84.245 82.9421 84.245 82.9421L85.2022 81.6006Z" fill="#996234"/>
<path d="M74.0994 80.9951C74.0994 80.9951 73.0958 85.0611 73.0077 86.0496C72.86 87.7137 73.8852 90.9893 74.0914 92.1429C74.1144 92.2718 72.7785 92.8718 72.71 92.8878C71.5363 93.1611 74.5358 93.9261 75.3055 92.8878C76.0742 91.8495 75.0121 88.3118 74.6914 86.5615C74.3699 84.8131 75.9496 82.8668 75.9866 82.3053C76.0241 81.7418 74.4243 82.3709 74.4243 82.3709L74.0994 80.9951Z" fill="#996234"/>
<path d="M85.7095 82.6314C85.7095 82.6314 86.4229 77.6397 83.5481 76.7101C81.0726 75.9095 79.1184 74.8759 76.9837 76.0834C74.849 77.2914 73.8483 76.7833 73.545 79.1448C73.2576 81.384 71.7553 83.2764 73.6565 83.0312C74.8861 82.8728 74.3751 89.3814 74.7262 89.4194C77.339 89.6987 83.122 89.3922 83.4553 89.4287C83.6039 89.4451 83.212 83.7034 83.3484 83.7072C85.3312 83.77 85.7095 82.6314 85.7095 82.6314Z" fill="#8BC7E8"/>
<path d="M77.9432 69.1426C77.9432 69.1426 77.8808 71.8829 77.9301 75.1955C77.9633 77.4231 79.6302 77.641 80.5902 76.8587C81.8286 75.8499 80.9305 72.2382 81.066 71.5229C81.2015 70.8071 77.9432 69.1426 77.9432 69.1426Z" fill="#996234"/>
<path d="M79.1642 75.2961C79.1642 75.2961 76.9691 75.0336 77.2991 72.8394C77.6268 70.6456 76.4033 69.0022 78.005 68.4463C79.5168 67.9213 80.5353 66.6369 81.2188 68.4692C81.9022 70.3016 82.3963 71.2738 81.9022 72.5614C81.4091 73.8509 81.5122 74.165 80.885 74.9811C80.2588 75.7981 79.1642 75.2961 79.1642 75.2961Z" fill="#301705"/>
<path d="M111.87 88.6699C111.87 88.6699 114.544 93.4488 113.013 93.4559C111.483 93.4629 111.835 92.9205 109.896 93.018C107.956 93.1155 108.676 93.8562 106.261 93.3387C103.846 92.8198 102.998 93.5707 103.329 92.3332C103.661 91.098 104.563 88.9034 104.563 88.9034L111.87 88.6699Z" fill="#EF45B7"/>
<path d="M114.265 81.6006C114.265 81.6006 115.124 85.3309 115.399 86.2839C115.841 87.8181 115.51 91.0004 115.494 92.3026C115.492 92.5159 117.259 92.6739 117.278 92.7709C117.414 93.4604 115.269 93.6503 114.752 93.3306C114.036 92.8881 113.863 88.8859 113.844 87.107C113.826 85.3295 112.497 83.4231 112.353 82.8784C112.21 82.3328 113.308 82.9421 113.308 82.9421L114.265 81.6006Z" fill="#996234"/>
<path d="M103.162 80.9951C103.162 80.9951 102.158 85.0611 102.07 86.0496C101.923 87.7137 102.948 90.9893 103.154 92.1429C103.177 92.2718 101.841 92.8718 101.773 92.8878C100.599 93.1611 103.598 93.9261 104.368 92.8878C105.137 91.8495 104.075 88.3118 103.754 86.5615C103.432 84.8131 105.012 82.8668 105.049 82.3053C105.087 81.7418 103.487 82.3709 103.487 82.3709L103.162 80.9951Z" fill="#996234"/>
<path d="M114.772 82.6314C114.772 82.6314 115.485 77.6397 112.611 76.7101C110.135 75.9095 108.181 74.8759 106.046 76.0834C103.912 77.2914 102.911 76.7833 102.607 79.1448C102.32 81.384 100.818 83.2764 102.719 83.0312C103.949 82.8728 103.438 89.3814 103.789 89.4194C106.402 89.6987 112.185 89.3922 112.518 89.4287C112.666 89.4451 112.275 83.7034 112.411 83.7072C114.394 83.77 114.772 82.6314 114.772 82.6314Z" fill="#8BC7E8"/>
<path d="M107.006 69.1426C107.006 69.1426 106.943 71.8829 106.993 75.1955C107.026 77.4231 108.693 77.641 109.653 76.8587C110.891 75.8499 109.993 72.2382 110.128 71.5229C110.264 70.8071 107.006 69.1426 107.006 69.1426Z" fill="#996234"/>
<path d="M108.227 75.2961C108.227 75.2961 106.032 75.0336 106.362 72.8394C106.689 70.6456 105.466 69.0022 107.068 68.4463C108.579 67.9213 109.598 66.6369 110.281 68.4692C110.965 70.3016 111.459 71.2738 110.965 72.5614C110.472 73.8509 110.575 74.165 109.948 74.9811C109.321 75.7981 108.227 75.2961 108.227 75.2961Z" fill="#301705"/>
<path d="M101.836 103.493C101.831 104.632 97.7494 117.622 96.6108 117.615L91.77 117.573C90.6328 117.566 85.7048 104.545 85.7105 103.406L85.7597 91.8926C85.7658 90.754 86.6944 89.8348 87.833 89.8418L99.8353 89.9065C100.974 89.9126 101.892 90.8403 101.886 91.9798L101.836 103.493Z" fill="#394963"/>
<path d="M82.3337 107.229C82.3337 106.874 82.045 106.585 81.2205 106.585H65.3003C65.4133 106.585 65.1245 106.874 65.1245 107.229C65.1245 107.585 65.4133 107.874 65.769 107.874H81.6892C82.045 107.874 82.3337 107.585 82.3337 107.229Z" fill="#FF0000"/>
<path d="M122.689 107.229C122.689 106.874 122.4 106.585 122.044 106.585H106.124C105.768 106.585 105.479 106.874 105.479 107.229C105.479 107.585 105.768 107.874 106.124 107.874H122.044C122.4 107.874 122.689 107.585 122.689 107.229Z" fill="#FF0000"/>
<path d="M383.469 116.091H-10.2812V381.872H383.469V116.091Z" fill="#8BF6FF"/>
<path d="M-33.7188 184.763H384.406" stroke="white" stroke-width="3" stroke-miterlimit="10" stroke-dasharray="10 10"/>
<path d="M187.766 -4.84668V426.872" stroke="white" stroke-width="3" stroke-miterlimit="10" stroke-dasharray="10 10"/>
<path d="M253.102 349.266H310.447L311.505 280.959C311.505 280.959 316.796 224.341 281.678 204.905C247.715 223.57 251.563 279.54 251.563 279.54L253.102 349.266Z" fill="#D1D1D1"/>
<path d="M281.479 219.694C281.479 219.694 306.31 218.739 307.175 268.228C308.041 317.717 304.613 322.976 304.613 322.976H258.49L256.331 307.947V265.4C256.33 265.397 257.824 221.197 281.479 219.694Z" fill="#F4F4F4"/>
<path d="M281.774 219.389C262.585 219.025 256.509 243.556 254.968 266.727L255.602 305.116L256.566 332.827L271.479 336.289L273.885 333.428L289.856 333.5C289.856 333.5 291.875 335.905 292.357 335.905C295.067 335.905 306.984 332.634 306.984 332.634C306.984 332.634 307.41 313.82 307.609 305.354C307.615 305.067 308.705 267.205 308.689 266.728C307.872 243.602 302.64 219.787 281.774 219.389ZM306.741 304.54C306.838 305.165 304.288 330.805 304.288 330.805C304.288 330.805 294.32 332.651 291.761 332.651C291.306 332.651 289.401 330.353 289.401 330.353L274.322 330.284L272.05 333.019L258.778 330.807L256.565 304.571C256.245 281.8 256.692 281.479 256.565 266.728C258.319 244.123 265.226 220.111 282.029 220.545C298.728 220.976 305.496 244.384 306.983 266.728C306.972 267.593 306.549 304.155 306.741 304.54Z" fill="#E8E8E8"/>
<path d="M281.979 265.003L281.989 264.773L274.34 265.913L271.219 269.113C269.487 270.363 269.155 276.664 269.155 276.664V288.354L270.365 290.903L278.909 289.411L282.032 284.588L281.98 280.583L281.979 265.003Z" fill="white"/>
<path d="M281.823 265.005L281.989 264.773L289.195 265.913L292.259 269.113C293.99 270.363 294.265 276.664 294.265 276.664V288.354L293.17 290.903L284.685 289.411L281.668 284.588L281.815 280.582L281.823 265.005Z" fill="white"/>
<path d="M293.127 285.363C293.102 285.001 289.711 279.677 289.711 279.677L274.301 279.515L270.438 285.007V285.778V286.162V286.547V290.913H293.127C293.127 290.914 293.151 285.724 293.127 285.363Z" fill="#C6C6C6"/>
<path d="M290.072 357.821C290.066 358.96 289.138 359.879 287.999 359.872L275.997 359.808C274.859 359.801 273.94 358.872 273.945 357.733L274.045 339.296C274.051 338.157 274.979 337.238 276.118 337.245L288.12 337.31C289.259 337.316 290.177 338.244 290.171 339.383L290.072 357.821Z" fill="#394963"/>
<path d="M290.755 274.884H282.977H280.01H273.002C273.002 274.884 270.756 278.02 270.39 285.792C270.386 285.837 270.79 285.875 270.79 285.875C271.811 284.438 274.093 280.58 274.093 280.58L281.493 280.543L289.663 280.591C289.663 280.591 291.945 284.467 292.966 285.902C292.966 285.902 293.37 285.836 293.368 285.792C293 278.018 290.755 274.884 290.755 274.884Z" fill="#29ABE2"/>
<path d="M273.355 289.087C273.355 292.214 283.662 292.439 283.662 289.058C283.662 286.087 273.355 285.808 273.355 289.087ZM274.252 289.051C274.252 286.816 282.765 287.008 282.765 289.033C282.765 291.337 274.252 291.183 274.252 289.051Z" fill="black"/>
<path d="M277.216 287.342C277.216 287.342 277.241 288.316 278.406 288.303C279.573 288.291 279.416 287.425 279.441 287.342C279.465 287.256 277.216 287.342 277.216 287.342Z" fill="black"/>
<path d="M278.034 288.35L277.734 290.915H279.273L278.864 288.35H278.034Z" fill="black"/>
<path d="M279.08 287.63C279.105 287.63 282.845 289.266 282.845 289.266L282.99 288.303L279.201 287.173L279.08 287.63Z" fill="black"/>
<path d="M277.516 287.63C277.492 287.63 273.643 289.266 273.643 289.266V288.303L277.288 287.173L277.516 287.63Z" fill="black"/>
<path d="M306.984 266.727C306.984 266.727 294.38 266.823 291.589 253.449C288.8 240.076 287.164 221.699 286.97 221.313C286.779 220.929 305.637 225.548 306.984 266.727Z" fill="#E8CDA0"/>
<path d="M256.565 266.727C256.565 266.727 269.17 266.823 271.96 253.449C274.751 240.076 276.386 221.699 276.579 221.313C276.77 220.929 257.912 225.548 256.565 266.727Z" fill="#E8CDA0"/>
<path d="M257.528 319.164C257.528 319.164 256.606 316.064 259.645 317.144C269.652 320.705 293.225 321.473 303.807 316.953C306.025 316.005 305.991 316.564 305.925 318.059C305.875 319.181 304.29 330.806 304.29 330.806C304.29 330.806 286.201 337.733 258.78 330.806L257.528 319.164Z" fill="#E8CDA0"/>
<path d="M293.521 305.399C293.521 306.04 292.84 306.304 291.949 306.304H271.648C270.759 306.304 269.794 306.04 269.794 305.399V298.628C269.794 297.987 270.759 297.327 271.648 297.327H291.949C292.84 297.327 293.521 297.987 293.521 298.628V305.399H293.521Z" fill="#E8CDA0"/>
<path d="M274.104 292.508C274.104 292.508 275.202 291.144 275.713 293.315C276.224 295.486 277.222 297.657 277.222 297.657C277.222 297.657 279.556 296.981 279.874 296.342C280.192 295.704 279.925 292.794 281.949 292.062C283.973 291.332 284.888 290.872 284.023 293.93C283.16 296.989 282.845 299.148 282.845 299.148L274.426 301.022L274.104 292.988" fill="#996234"/>
<path d="M275.167 299.84C275.167 299.84 272.1 295.267 273.737 295.434C275.373 295.601 274.524 296.846 276.602 296.955C278.682 297.064 278.397 295.451 280.948 296.324C283.499 297.198 284.451 296.449 284.023 297.836C283.594 299.224 283.499 299.84 283.499 299.84H275.167Z" fill="#EF45B7"/>
<path d="M272.727 300.25C272.727 300.25 272.587 296.623 272.489 295.686C272.306 293.931 273.799 290.293 273.799 289.627C273.799 288.961 273.906 288.264 274.786 289.251C275.665 290.237 274.8 293.548 274.426 295.205C274.05 296.861 275.125 298.879 275.167 299.412C275.208 299.946 274.104 299.177 274.104 299.177L272.727 300.25Z" fill="#996234"/>
<path d="M284.123 300.48C284.123 300.48 285.261 296.623 285.359 295.686C285.541 293.931 284.048 290.293 284.048 289.627C284.048 288.961 283.943 288.264 283.063 289.251C282.182 290.237 283.046 293.548 283.421 295.205C283.798 296.861 281.989 298.711 281.948 299.244C281.908 299.778 283.744 299.176 283.744 299.176L284.123 300.48Z" fill="#996234"/>
<path d="M271.122 300.25C271.122 300.25 271.8 304.739 274.58 305.65C277.358 306.56 278.319 306.874 280.815 305.795C283.311 304.714 284.634 305.31 284.444 303.058C284.256 300.807 285.764 299.64 283.602 299.287C281.273 298.907 275.011 298.479 274.58 298.429C271.925 298.115 271.122 300.25 271.122 300.25Z" fill="#8BC7E8"/>
<path d="M277.896 305.65C277.896 305.65 275.373 305.402 275.752 303.32C276.129 301.241 275.023 300.481 276.805 299.83C278.586 299.178 279.471 297.44 280.257 299.178C281.043 300.915 281.611 301.836 281.043 303.057C280.476 304.279 280.595 304.577 279.874 305.351C279.153 306.126 277.896 305.65 277.896 305.65Z" fill="#301705"/>
<path d="M277.811 316.566C277.811 316.566 279.5 315.662 280.099 317.81C280.699 319.958 281.787 322.086 281.787 322.086C281.787 322.086 284.09 321.314 284.382 320.662C284.674 320.011 284.287 317.114 286.278 316.301C288.271 315.487 288.672 316.115 288.428 318.081C288.037 321.235 287.467 323.344 287.467 323.344L279.132 325.565L277.886 318.348C277.885 318.347 277.224 317.684 277.811 316.566Z" fill="#996234"/>
<path d="M277.912 324.388C277.912 324.388 276.569 319.888 278.211 319.987C279.853 320.086 279.468 320.686 281.551 320.709C283.631 320.732 282.868 319.827 285.454 320.594C288.039 321.362 288.958 320.554 288.588 321.959C288.216 323.363 288.148 323.963 288.148 323.963L277.912 324.388Z" fill="#EF45B7"/>
<path d="M275.798 324.929C275.798 324.929 276.663 329.386 279.477 330.18C282.291 330.974 283.264 331.248 285.713 330.068C288.163 328.884 289.509 329.424 289.227 327.183C288.944 324.942 290.404 323.712 288.229 323.45C285.886 323.167 279.612 322.998 279.178 322.966C276.513 322.763 275.798 324.929 275.798 324.929Z" fill="#8BC7E8"/>
<path d="M282.791 330.044C282.791 330.044 280.261 329.9 280.552 327.806C280.844 325.713 279.706 324.999 281.46 324.275C283.213 323.55 284.026 321.777 284.883 323.481C285.74 325.184 286.345 326.081 285.829 327.325C285.313 328.569 285.444 328.862 284.756 329.664C284.066 330.468 282.791 330.044 282.791 330.044Z" fill="#301705"/>
<path d="M291.606 316.441C291.606 316.441 293.046 315.18 294.116 317.137C295.185 319.094 296.725 320.92 296.725 320.92C296.725 320.92 298.794 319.648 298.932 318.947C299.069 318.248 298.037 315.514 299.794 314.27C301.551 313.028 302.085 313.55 302.291 315.519C302.621 318.681 302.542 320.862 302.542 320.862L294.924 324.908L292.081 318.159C292.081 318.16 291.287 317.663 291.606 316.441Z" fill="#996234"/>
<path d="M293.471 324.039C293.471 324.039 291.146 319.958 292.768 319.684C294.391 319.409 294.152 320.082 296.185 319.634C298.218 319.186 297.269 318.477 299.962 318.64C302.653 318.805 303.367 317.809 303.323 319.262C303.278 320.715 303.347 321.315 303.347 321.315L293.471 324.039Z" fill="#EF45B7"/>
<path d="M291.534 325.044C291.534 325.044 293.383 329.191 296.304 329.329C299.224 329.468 300.234 329.515 302.353 327.81C304.473 326.105 305.905 326.327 305.124 324.207C304.344 322.087 305.486 320.561 303.309 320.796C300.963 321.05 294.813 322.303 294.383 322.369C291.74 322.771 291.534 325.044 291.534 325.044Z" fill="#8BC7E8"/>
<path d="M299.501 328.446C299.501 328.446 297.003 328.877 296.815 326.771C296.625 324.666 295.357 324.227 296.902 323.125C298.446 322.024 298.837 320.114 300.056 321.579C301.276 323.045 302.067 323.781 301.845 325.11C301.623 326.439 301.817 326.694 301.327 327.632C300.84 328.571 299.501 328.446 299.501 328.446Z" fill="#301705"/>
<path d="M288.794 246.629C288.794 246.629 287.589 245.141 289.586 244.149C291.583 243.157 293.469 241.69 293.469 241.69C293.469 241.69 292.28 239.571 291.584 239.407C290.891 239.242 288.117 240.167 286.946 238.363C285.773 236.557 286.316 236.045 288.291 235.917C291.464 235.71 293.641 235.874 293.641 235.874L297.384 243.644L290.528 246.222C290.529 246.223 290.002 246.997 288.794 246.629Z" fill="#996234"/>
<path d="M296.458 245.063C296.458 245.063 292.289 247.226 292.079 245.595C291.868 243.964 292.531 244.228 292.163 242.179C291.795 240.13 291.049 241.05 291.317 238.366C291.587 235.682 290.621 234.932 292.07 235.032C293.52 235.134 294.122 235.09 294.122 235.09L296.458 245.063Z" fill="#EF45B7"/>
<path d="M297.386 247.038C297.386 247.038 301.602 245.353 301.853 242.44C302.107 239.527 302.194 238.52 300.574 236.336C298.953 234.152 299.23 232.729 297.081 233.427C294.934 234.123 293.451 232.921 293.602 235.106C293.764 237.46 294.774 243.654 294.823 244.087C295.124 246.743 297.386 247.038 297.386 247.038Z" fill="#8BC7E8"/>
<path d="M301.098 239.21C301.098 239.21 301.432 241.723 299.319 241.83C297.208 241.937 296.72 243.187 295.68 241.601C294.639 240.015 292.746 239.549 294.258 238.388C295.771 237.226 296.538 236.464 297.857 236.737C299.176 237.011 299.439 236.827 300.356 237.353C301.276 237.878 301.098 239.21 301.098 239.21Z" fill="#301705"/>
<path d="M295.914 267.562C295.914 267.562 294.246 266.623 295.738 264.964C297.229 263.306 298.443 261.248 298.443 261.248C298.443 261.248 296.557 259.717 295.85 259.82C295.145 259.923 292.906 261.802 291.152 260.558C289.397 259.312 289.713 258.634 291.504 257.788C294.376 256.428 296.461 255.779 296.461 255.779L302.803 261.624L297.379 266.545C297.378 266.545 297.173 267.459 295.914 267.562Z" fill="#996234"/>
<path d="M302.463 263.284C302.463 263.284 299.385 266.83 298.587 265.391C297.791 263.952 298.504 263.955 297.407 262.184C296.31 260.414 295.954 261.545 295.216 258.95C294.479 256.358 293.304 256.014 294.689 255.574C296.074 255.134 296.618 254.872 296.618 254.872L302.463 263.284Z" fill="#EF45B7"/>
<path d="M304.053 264.778C304.053 264.778 307.352 261.659 306.514 258.858C305.676 256.055 305.386 255.088 303.074 253.653C300.763 252.219 300.497 250.794 298.756 252.235C297.015 253.673 295.195 253.102 296.14 255.076C297.158 257.206 300.378 262.593 300.584 262.977C301.841 265.337 304.053 264.778 304.053 264.778Z" fill="#8BC7E8"/>
<path d="M304.621 256.134C304.621 256.134 305.857 258.348 303.931 259.224C302.008 260.101 302.016 261.442 300.464 260.351C298.913 259.26 296.982 259.524 297.959 257.887C298.937 256.251 299.37 255.259 300.697 255.027C302.024 254.796 302.201 254.529 303.248 254.68C304.296 254.83 304.621 256.134 304.621 256.134Z" fill="#301705"/>
<path d="M65.6023 349.266H122.947L124.004 280.959C124.004 280.959 129.295 224.341 94.1778 204.905C60.2145 223.57 64.0625 279.54 64.0625 279.54L65.6023 349.266Z" fill="#D1D1D1"/>
<path d="M93.9785 219.694C93.9785 219.694 118.81 218.739 119.675 268.228C120.541 317.717 117.114 322.976 117.114 322.976H70.9901L68.8301 307.947V265.4C68.8301 265.397 70.3245 221.197 93.9785 219.694Z" fill="#F4F4F4"/>
<path d="M94.2747 219.389C75.0859 219.025 69.0095 243.556 67.4683 266.727L68.1029 305.116L69.0658 332.827L83.9786 336.289L86.3847 333.428L102.356 333.5C102.356 333.5 104.375 335.905 104.857 335.905C107.567 335.905 119.485 332.634 119.485 332.634C119.485 332.634 119.91 313.82 120.109 305.354C120.116 305.067 121.206 267.205 121.19 266.728C120.372 243.602 115.14 219.787 94.2747 219.389ZM119.242 304.54C119.338 305.165 116.788 330.805 116.788 330.805C116.788 330.805 106.82 332.651 104.261 332.651C103.807 332.651 101.901 330.353 101.901 330.353L86.8215 330.284L84.5509 333.019L71.2783 330.807L69.0653 304.571C68.7451 281.8 69.1914 281.479 69.0653 266.728C70.8194 244.123 77.7259 220.111 94.5301 220.545C111.229 220.976 117.997 244.384 119.484 266.728C119.472 267.593 119.049 304.155 119.242 304.54Z" fill="#E8E8E8"/>
<path d="M94.4793 265.003L94.4891 264.773L86.8396 265.913L83.7187 269.113C81.9862 270.363 81.6548 276.664 81.6548 276.664V288.354L82.8651 290.903L91.4085 289.411L94.5318 284.588L94.4798 280.583L94.4793 265.003Z" fill="white"/>
<path d="M94.3227 265.005L94.4891 264.773L101.696 265.913L104.759 269.113C106.491 270.363 106.765 276.664 106.765 276.664V288.354L105.671 290.903L97.1859 289.411L94.1699 284.588L94.3162 280.582L94.3227 265.005Z" fill="white"/>
<path d="M105.627 285.363C105.603 285.001 102.211 279.677 102.211 279.677L86.8014 279.515L82.937 285.007V285.778V286.162V286.547V290.913H105.627C105.627 290.914 105.651 285.724 105.627 285.363Z" fill="#C6C6C6"/>
<path d="M102.572 357.821C102.566 358.96 101.638 359.879 100.499 359.872L88.4966 359.808C87.3594 359.801 86.4402 358.872 86.4458 357.733L86.5447 339.296C86.5508 338.157 87.4794 337.238 88.618 337.245L100.62 337.31C101.759 337.316 102.677 338.244 102.671 339.383L102.572 357.821Z" fill="#394963"/>
<path d="M103.254 274.884H95.4765H92.5098H85.502C85.502 274.884 83.2557 278.02 82.8892 285.792C82.8859 285.837 83.29 285.875 83.29 285.875C84.3109 284.438 86.5928 280.58 86.5928 280.58L93.9934 280.543L102.163 280.591C102.163 280.591 104.444 284.467 105.466 285.902C105.466 285.902 105.869 285.836 105.867 285.792C105.5 278.018 103.254 274.884 103.254 274.884Z" fill="#29ABE2"/>
<path d="M85.855 289.087C85.855 292.214 96.1614 292.439 96.1614 289.058C96.1614 286.087 85.855 285.808 85.855 289.087ZM86.7517 289.051C86.7517 286.816 95.2642 287.008 95.2642 289.033C95.2647 291.337 86.7517 291.183 86.7517 289.051Z" fill="black"/>
<path d="M89.7158 287.342C89.7158 287.342 89.7402 288.316 90.906 288.303C92.0727 288.291 91.9157 287.425 91.941 287.342C91.9649 287.256 89.7158 287.342 89.7158 287.342Z" fill="black"/>
<path d="M90.5339 288.35L90.2334 290.915H91.7723L91.3636 288.35H90.5339Z" fill="black"/>
<path d="M91.5796 287.63C91.604 287.63 95.3441 289.266 95.3441 289.266L95.489 288.303L91.7001 287.173L91.5796 287.63Z" fill="black"/>
<path d="M90.0159 287.63C89.9924 287.63 86.1426 289.266 86.1426 289.266V288.303L89.7871 287.173L90.0159 287.63Z" fill="black"/>
<path d="M119.484 266.727C119.484 266.727 106.88 266.823 104.089 253.449C101.3 240.076 99.6643 221.699 99.4712 221.313C99.279 220.929 118.137 225.548 119.484 266.727Z" fill="#E8CDA0"/>
<path d="M69.0654 266.727C69.0654 266.727 81.6697 266.823 84.4601 253.449C87.2506 240.076 88.8865 221.699 89.0787 221.313C89.2704 220.929 70.4126 225.548 69.0654 266.727Z" fill="#E8CDA0"/>
<path d="M70.0276 319.164C70.0276 319.164 69.1051 316.064 72.1441 317.144C82.1509 320.705 105.724 321.473 116.306 316.953C118.524 316.005 118.49 316.564 118.423 318.059C118.374 319.181 116.788 330.806 116.788 330.806C116.788 330.806 98.6987 337.733 71.2783 330.806L70.0276 319.164Z" fill="#E8CDA0"/>
<path d="M106.021 305.399C106.021 306.04 105.34 306.304 104.449 306.304H84.1488C83.2587 306.304 82.2949 306.04 82.2949 305.399V298.628C82.2949 297.987 83.2587 297.327 84.1488 297.327H104.449C105.341 297.327 106.021 297.987 106.021 298.628V305.399Z" fill="#E8CDA0"/>
<path d="M86.605 292.508C86.605 292.508 87.7028 291.144 88.2137 293.315C88.7242 295.486 89.7222 297.657 89.7222 297.657C89.7222 297.657 92.0556 296.981 92.3744 296.342C92.6926 295.704 92.4254 292.794 94.449 292.062C96.4731 291.332 97.3881 290.872 96.5237 293.93C95.6598 296.989 95.3453 299.148 95.3453 299.148L86.9261 301.022L86.605 292.988" fill="#996234"/>
<path d="M87.6676 299.84C87.6676 299.84 84.6006 295.267 86.237 295.434C87.8734 295.601 87.0235 296.846 89.1029 296.955C91.1818 297.064 90.8973 295.451 93.4487 296.324C95.9996 297.198 96.9512 296.449 96.5232 297.836C96.0939 299.224 95.9996 299.84 95.9996 299.84H87.6676Z" fill="#EF45B7"/>
<path d="M85.2277 300.25C85.2277 300.25 85.0871 296.623 84.9891 295.686C84.8063 293.931 86.2998 290.293 86.2998 289.627C86.2998 288.961 86.4057 288.264 87.2856 289.251C88.1649 290.237 87.3006 293.548 86.9256 295.205C86.5501 296.861 87.6254 298.879 87.6676 299.412C87.7074 299.946 86.6049 299.177 86.6049 299.177L85.2277 300.25Z" fill="#996234"/>
<path d="M96.623 300.48C96.623 300.48 97.7611 296.623 97.8586 295.686C98.0405 293.931 96.548 290.293 96.548 289.627C96.548 288.961 96.4434 288.264 95.5627 289.251C94.6828 290.237 95.5462 293.548 95.9212 295.205C96.2972 296.861 94.4892 298.711 94.4489 299.244C94.4086 299.778 96.2437 299.176 96.2437 299.176L96.623 300.48Z" fill="#996234"/>
<path d="M83.6216 300.25C83.6216 300.25 84.3008 304.739 87.0796 305.65C89.8583 306.56 90.8192 306.874 93.3149 305.795C95.8114 304.714 97.1338 305.31 96.9449 303.058C96.7564 300.807 98.2639 299.64 96.1025 299.287C93.7733 298.907 87.5113 298.479 87.0796 298.429C84.4255 298.115 83.6216 300.25 83.6216 300.25Z" fill="#8BC7E8"/>
<path d="M90.3962 305.65C90.3962 305.65 87.8734 305.402 88.2521 303.32C88.629 301.241 87.5232 300.481 89.3049 299.83C91.0862 299.178 91.9716 297.44 92.7573 299.178C93.5429 300.915 94.1106 301.836 93.5429 303.057C92.9762 304.279 93.0948 304.577 92.3738 305.351C91.6534 306.126 90.3962 305.65 90.3962 305.65Z" fill="#301705"/>
<path d="M78.0323 314.89C78.0323 314.89 79.8539 314.301 80.062 316.522C80.2697 318.742 80.9601 321.03 80.9601 321.03C80.9601 321.03 83.3644 320.68 83.768 320.091C84.1706 319.502 84.3056 316.583 86.4103 316.136C88.5155 315.691 88.7995 316.381 88.2084 318.272C87.2611 321.306 86.325 323.279 86.325 323.279L77.7281 323.979L77.7876 316.655C77.7876 316.656 77.2556 315.886 78.0323 314.89Z" fill="#996234"/>
<path d="M76.7393 322.605C76.7393 322.605 76.2185 317.938 77.8169 318.328C79.4154 318.717 78.9297 319.24 80.9744 319.634C83.0186 320.027 82.428 319 84.836 320.215C87.243 321.431 88.2912 320.8 87.6766 322.117C87.0611 323.433 86.8854 324.011 86.8854 324.011L76.7393 322.605Z" fill="#EF45B7"/>
<path d="M74.5615 322.761C74.5615 322.761 74.6182 327.301 77.2456 328.584C79.8729 329.866 80.7818 330.31 83.4022 329.584C86.0234 328.856 87.2515 329.627 87.3734 327.37C87.4953 325.115 89.1495 324.165 87.0565 323.519C84.8014 322.824 78.6579 321.54 78.237 321.43C75.6509 320.757 74.5615 322.761 74.5615 322.761Z" fill="#8BC7E8"/>
<path d="M80.5314 329.039C80.5314 329.039 78.0667 328.446 78.7272 326.437C79.3858 324.429 78.3953 323.524 80.2492 323.124C82.1031 322.724 83.2188 321.123 83.7588 322.952C84.2983 324.781 84.7338 325.772 84.0044 326.904C83.275 328.037 83.3519 328.348 82.5316 329.015C81.7113 329.684 80.5314 329.039 80.5314 329.039Z" fill="#301705"/>
<path d="M99.419 315.504C99.419 315.504 100.859 314.242 101.929 316.199C102.998 318.156 104.538 319.983 104.538 319.983C104.538 319.983 106.607 318.711 106.745 318.01C106.881 317.311 105.85 314.576 107.606 313.333C109.363 312.09 109.897 312.613 110.103 314.582C110.434 317.744 110.355 319.925 110.355 319.925L102.737 323.97L99.8933 317.221C99.8933 317.222 99.0997 316.726 99.419 315.504Z" fill="#996234"/>
<path d="M101.284 323.101C101.284 323.101 98.9594 319.021 100.581 318.747C102.204 318.472 101.965 319.145 103.998 318.697C106.031 318.249 105.082 317.539 107.775 317.702C110.466 317.867 111.179 316.872 111.136 318.325C111.091 319.777 111.159 320.377 111.159 320.377L101.284 323.101Z" fill="#EF45B7"/>
<path d="M99.3462 324.106C99.3462 324.106 101.195 328.253 104.116 328.392C107.037 328.53 108.046 328.577 110.165 326.873C112.285 325.167 113.718 325.389 112.937 323.269C112.156 321.15 113.299 319.623 111.122 319.859C108.775 320.112 102.626 321.365 102.195 321.431C99.5529 321.834 99.3462 324.106 99.3462 324.106Z" fill="#8BC7E8"/>
<path d="M107.314 327.508C107.314 327.508 104.816 327.939 104.627 325.833C104.437 323.728 103.17 323.289 104.714 322.188C106.258 321.086 106.649 319.176 107.869 320.641C109.088 322.107 109.88 322.844 109.658 324.173C109.436 325.501 109.63 325.757 109.141 326.694C108.652 327.634 107.314 327.508 107.314 327.508Z" fill="#301705"/>
<path d="M101.763 249.91C101.763 249.91 100.558 248.422 102.556 247.43C104.553 246.438 106.439 244.971 106.439 244.971C106.439 244.971 105.249 242.853 104.554 242.688C103.861 242.523 101.087 243.448 99.9148 241.644C98.742 239.838 99.2848 239.327 101.261 239.198C104.434 238.991 106.61 239.155 106.61 239.155L110.354 246.925L103.499 249.503C103.498 249.504 102.972 250.278 101.763 249.91Z" fill="#996234"/>
<path d="M109.427 248.344C109.427 248.344 105.258 250.507 105.048 248.876C104.837 247.245 105.5 247.51 105.132 245.46C104.764 243.411 104.018 244.331 104.286 241.647C104.555 238.964 103.59 238.213 105.04 238.313C106.489 238.416 107.091 238.371 107.091 238.371L109.427 248.344Z" fill="#EF45B7"/>
<path d="M110.355 250.319C110.355 250.319 114.571 248.634 114.823 245.722C115.076 242.808 115.163 241.801 113.542 239.617C111.921 237.434 112.199 236.01 110.05 236.708C107.902 237.404 106.42 236.203 106.571 238.387C106.732 240.741 107.743 246.936 107.792 247.368C108.093 250.024 110.355 250.319 110.355 250.319Z" fill="#8BC7E8"/>
<path d="M114.067 242.492C114.067 242.492 114.4 245.004 112.288 245.111C110.177 245.218 109.689 246.468 108.649 244.882C107.609 243.296 105.715 242.831 107.227 241.669C108.739 240.507 109.507 239.745 110.826 240.019C112.145 240.292 112.408 240.109 113.325 240.634C114.244 241.159 114.067 242.492 114.067 242.492Z" fill="#301705"/>
<path d="M88.8142 244.094C88.8142 244.094 89.2023 245.968 86.9715 245.934C84.7426 245.899 82.3932 246.337 82.3932 246.337C82.3932 246.337 82.479 248.765 83.0204 249.23C83.5609 249.694 86.4489 250.146 86.664 252.286C86.8782 254.428 86.1601 254.635 84.3456 253.842C81.4323 252.571 79.5732 251.425 79.5732 251.425L79.8118 242.804L87.0854 243.658C87.0859 243.659 87.9086 243.212 88.8142 244.094Z" fill="#996234"/>
<path d="M81.2859 241.969C81.2859 241.969 85.9823 241.959 85.4208 243.505C84.8597 245.051 84.3923 244.511 83.7787 246.502C83.1656 248.492 84.2508 248.017 82.7812 250.278C81.3108 252.538 81.8245 253.649 80.5819 252.895C79.3411 252.14 78.7852 251.903 78.7852 251.903L81.2859 241.969Z" fill="#EF45B7"/>
<path d="M81.3677 239.788C81.3677 239.788 76.849 239.351 75.288 241.823C73.7266 244.296 73.1871 245.151 73.6254 247.835C74.0636 250.52 73.1641 251.656 75.3935 252.023C77.6215 252.389 78.3869 254.138 79.2555 252.127C80.1921 249.961 82.136 243.994 82.2907 243.586C83.2422 241.088 81.3677 239.788 81.3677 239.788Z" fill="#8BC7E8"/>
<path d="M74.4782 245.04C74.4782 245.04 75.335 242.654 77.2607 243.529C79.1853 244.401 80.1922 243.515 80.3886 245.402C80.5855 247.287 82.0546 248.57 80.1777 248.908C78.3018 249.247 77.2696 249.572 76.2228 248.723C75.1766 247.874 74.8588 247.917 74.2846 247.029C73.7089 246.142 74.4782 245.04 74.4782 245.04Z" fill="#301705"/>
<rect x="315.5" y="15.7783" width="44.0746" height="25" rx="12.5" fill="#969696" fill-opacity="0.3"/>
<path d="M328.7 30.1982H330.251V30.8887H328.7V33.4043H327.879V30.8887H323.197V30.4238L327.804 23.4512H328.7V30.1982ZM324.202 30.1982H327.879V24.5107L327.517 25.1396L324.202 30.1982ZM331.455 34.2588H330.709L334.866 23.4512H335.604L331.455 34.2588ZM340.813 33.4043H339.993V24.4355L337.286 25.4404V24.6748L340.676 23.417H340.813V33.4043ZM350.773 29.2549C350.773 30.6585 350.515 31.7249 350 32.4541C349.486 33.1787 348.727 33.541 347.724 33.541C346.74 33.541 345.986 33.1855 345.461 32.4746C344.937 31.7591 344.668 30.7201 344.655 29.3574V27.5732C344.655 26.1742 344.915 25.1146 345.434 24.3945C345.954 23.6745 346.712 23.3145 347.71 23.3145C348.695 23.3145 349.447 23.6631 349.966 24.3604C350.486 25.0531 350.755 26.0762 350.773 27.4297V29.2549ZM349.953 27.4707C349.953 26.3314 349.766 25.4701 349.392 24.8867C349.023 24.3034 348.462 24.0117 347.71 24.0117C346.972 24.0117 346.416 24.2965 346.042 24.8662C345.669 25.4359 345.477 26.2767 345.468 27.3887V29.3438C345.468 30.4785 345.66 31.3467 346.042 31.9482C346.43 32.5498 346.99 32.8506 347.724 32.8506C348.453 32.8506 349.005 32.5566 349.378 31.9688C349.757 31.3809 349.948 30.5195 349.953 29.3848V27.4707Z" fill="black"/>
</g>
<defs>
<linearGradient id="paint0_linear" x1="189.513" y1="223.476" x2="189.513" y2="-33.4328" gradientUnits="userSpaceOnUse">
<stop offset="0.1444" stop-color="white"/>
<stop offset="1" stop-color="#B4EDFF"/>
</linearGradient>
<clipPath id="clip0">
<rect width="375" height="375" fill="white" transform="translate(0.5 0.77832)"/>
</clipPath>
</defs>
</svg>
