<svg width="376" height="376" viewBox="0 0 376 376" fill="none" xmlns="http://www.w3.org/2000/svg">
<g clip-path="url(#clip0)">
<path d="M328.182 292.42C324.947 290.249 315.184 280.625 313.137 276.53C310.105 273.063 294.305 230.073 290.155 222.866C286.005 215.658 279.557 190.349 275.885 186.485C269.413 181.462 257.204 143.81 257.027 140.52C256.848 137.23 246.303 126.255 245.224 124.166C244.146 122.078 242.73 117.697 241.392 117.205C240.055 116.714 236.034 89.3991 235.556 88.785C235.079 88.17 234.442 88.7489 234.442 88.7489C230.181 82.8244 216.391 96.6923 218.017 101.921L112.223 99.0863C112.213 99.0848 104.887 98.1009 102.779 98.6944C100.67 99.2888 97.1476 98.1834 93.3189 104.143C89.4901 110.102 95.552 118.743 97.0267 119.849C98.5014 120.954 117.138 134.673 117.138 134.673L121.195 170.565L108.564 183.682L126.92 194.418L109.649 219.924L122.892 228.832L131.325 235.278L129.637 234.401C129.637 234.401 127.889 234.455 126.469 234.073C125.05 233.692 115.848 237.542 114.674 238.88C113.5 240.218 110.663 243.55 110.334 250.13C111.127 260.451 124.438 267.618 125.12 267.617C125.803 267.617 133.476 274.225 134.65 274.934C135.824 275.645 138.582 278.565 142.351 283.097C146.119 287.63 153.41 291.561 154.228 292.516C155.048 293.472 168.304 304.352 171.431 306.441C174.557 308.528 207.393 328.8 210.027 330.179C212.662 331.556 237.005 342.218 238.029 342.559C239.053 342.9 243.244 346.983 244.732 347.158C246.22 347.335 253.497 353.22 258.658 355.896C263.82 358.571 273.008 371.689 279.508 378.269C286.006 384.849 337.453 454.825 338.177 455.794C338.9 456.763 405.603 439.037 405.603 439.037L431.526 404.128C431.525 404.127 331.418 294.59 328.182 292.42Z" fill="#F9DBBD"/>
<path d="M239.737 231.77C240.948 240.235 235.065 248.078 226.602 249.287L148.671 260.427C140.207 261.637 132.364 255.755 131.154 247.292L102.968 50.1043C101.758 41.6397 107.64 33.7965 116.104 32.5867L194.034 21.4478C202.499 20.2379 210.342 26.1189 211.552 34.5836L239.737 231.77Z" fill="#282726"/>
<path d="M185.692 248.423C191.237 248.423 195.732 243.928 195.732 238.383C195.732 232.838 191.237 228.343 185.692 228.343C180.147 228.343 175.652 232.838 175.652 238.383C175.652 243.928 180.147 248.423 185.692 248.423Z" fill="#353535"/>
<path d="M156.952 39.0554C157.912 39.0554 158.69 38.2772 158.69 37.3172C158.69 36.3573 157.912 35.5791 156.952 35.5791C155.992 35.5791 155.214 36.3573 155.214 37.3172C155.214 38.2772 155.992 39.0554 156.952 39.0554Z" fill="#353535"/>
<path d="M168.018 44.7341C167.86 43.6255 166.834 42.8554 165.725 43.0138L149.784 45.2924C148.676 45.4509 147.906 46.4774 148.065 47.586L148.088 47.7487C148.246 48.8573 149.273 49.6274 150.382 49.469L166.322 47.1904C167.431 47.0319 168.2 46.0054 168.042 44.8968L168.018 44.7341Z" fill="#353535"/>
<path d="M136.66 229.465L229.924 216.134L206.644 53.2703L113.38 66.6018L136.66 229.465Z" fill="white"/>
<path d="M107.495 183.371C107.684 183.501 120.11 187.199 125.823 181.117C131.536 175.034 131.596 167.785 129.016 164.058C126.436 160.332 125.022 158.12 121.264 156.902C120.476 155.99 119.595 152.899 117.68 152.294C117.68 152.294 107.287 146.613 98.7287 160.927C93.3338 172.304 98.648 177.249 107.495 183.371Z" fill="#F9DBBD"/>
<path d="M123.482 223.067C123.68 223.179 127.158 225.247 129.595 225.411C132.031 225.575 137.53 225.154 138.984 224.069C140.437 222.984 145.618 218.294 145.802 214.465C145.987 210.634 146.396 207.871 145.515 206.826C144.635 205.781 143.037 202.793 140.497 201.912C137.958 201.031 133.821 198.698 132.766 197.971C131.712 197.244 127.688 194.675 126.92 194.418C126.152 194.163 123.459 191.695 122.742 191.285C122.025 190.875 120.52 190.067 118.748 189.954C116.977 189.842 107.311 188.736 102.828 199.836C99.8386 208.6 101.129 210.465 102.439 213.496C103.75 216.526 108.184 219.403 109.648 219.925C111.112 220.446 119.181 220.609 123.482 223.067Z" fill="#F9DBBD"/>
<path d="M127.905 234.062C127.905 234.062 133.588 235.956 136.046 237.288C138.504 238.618 144.749 239.846 145.968 240.184C147.187 240.523 154.835 243.378 154.835 247.986C154.835 252.595 152.461 259.004 147.372 260.242C142.284 261.482 144.362 261.697 138.413 261.523C132.464 261.35 128.246 262.025 128.246 262.025C128.246 262.025 122.881 262.353 121.181 260.182C119.481 258.011 117.023 246.442 117.647 244.67C118.272 242.9 117.882 235.056 127.905 234.062Z" fill="#F9DBBD"/>
<path d="M189.301 131.601C189.295 130.946 189.126 130.719 188.518 130.517C185.237 129.423 181.956 128.329 178.674 127.236C177.947 126.993 177.692 127.071 177.27 127.7C176.353 129.066 175.445 130.437 174.531 131.804C174.016 132.575 173.765 132.654 172.92 132.313C169.275 130.841 166.004 128.763 163.057 126.176C158.751 122.396 155.379 117.929 153.208 112.597C152.865 111.756 152.954 111.494 153.716 110.987C155.111 110.058 156.506 109.131 157.898 108.198C158.401 107.861 158.518 107.564 158.339 107.024C157.222 103.655 156.098 100.287 154.978 96.9182C154.823 96.4495 154.511 96.2151 154.016 96.217C152.693 96.2216 151.369 96.1799 150.048 96.2343C146.138 96.3941 143.172 99.4743 143.223 103.388C143.246 105.183 143.356 106.988 143.6 108.765C144.462 115.03 146.681 120.799 150.432 125.893C158.304 136.583 168.925 142.065 182.212 142.301C185.325 142.356 188.1 140.32 188.953 137.328C189.281 136.18 189.283 134.939 189.433 133.741C189.389 133.735 189.345 133.73 189.302 133.724C189.304 133.016 189.309 132.309 189.301 131.601Z" fill="#85FF97"/>
<path d="M164.395 96.9453L163.878 100.08C168.081 101.346 172.037 103.646 175.348 106.977C178.723 110.373 181.02 114.433 182.243 118.734L185.367 118.195C184.028 113.277 181.435 108.627 177.586 104.754C173.789 100.932 169.23 98.3309 164.395 96.9453Z" fill="#85FF97"/>
<path d="M163.973 88.3359L163.392 92.01C169.935 93.0305 176.224 96.0694 181.251 101.127C186.341 106.249 189.354 112.653 190.294 119.292L193.96 118.66C192.895 111.293 189.539 104.191 183.889 98.505C178.283 92.8645 171.27 89.475 163.973 88.3359Z" fill="#85FF97"/>
<path d="M172.72 110.582C170.492 108.34 167.929 106.635 165.192 105.464L164.825 108.013C167.051 109.049 169.138 110.48 170.969 112.323C172.743 114.108 174.128 116.131 175.141 118.286C176.033 118.136 176.91 117.991 177.663 117.868C176.514 115.227 174.873 112.748 172.72 110.582Z" fill="#85FF97"/>
<rect x="315.137" y="15.709" width="38.9496" height="25" rx="12.5" fill="#969696" fill-opacity="0.3"/>
<path d="M328.648 32.335H327.828V23.3662L325.121 24.3711V23.6055L328.511 22.3477H328.648V32.335ZM332.62 33.1895H331.875L336.031 22.3818H336.769L332.62 33.1895ZM342.997 22.3066V23.0244H342.901C341.711 23.0244 340.775 23.3753 340.091 24.0771C339.408 24.7744 339.029 25.7451 338.957 26.9893C339.23 26.611 339.579 26.3193 340.002 26.1143C340.426 25.9046 340.9 25.7998 341.424 25.7998C342.299 25.7998 342.994 26.1029 343.509 26.709C344.029 27.3105 344.289 28.099 344.289 29.0742C344.289 29.7214 344.168 30.3047 343.926 30.8242C343.685 31.3438 343.338 31.7493 342.887 32.041C342.436 32.3281 341.921 32.4717 341.342 32.4717C340.39 32.4717 339.615 32.1276 339.018 31.4395C338.421 30.7467 338.123 29.8535 338.123 28.7598V27.9395C338.123 26.1576 338.528 24.779 339.339 23.8037C340.151 22.8239 341.301 22.3249 342.792 22.3066H342.997ZM341.294 26.5039C340.775 26.5039 340.29 26.6589 339.838 26.9688C339.392 27.2741 339.093 27.6637 338.943 28.1377V28.835C338.943 29.7008 339.164 30.4072 339.606 30.9541C340.053 31.501 340.631 31.7744 341.342 31.7744C341.98 31.7744 342.495 31.5215 342.887 31.0156C343.284 30.5098 343.482 29.8717 343.482 29.1016C343.482 28.3177 343.284 27.6888 342.887 27.2148C342.495 26.7409 341.964 26.5039 341.294 26.5039Z" fill="black"/>
</g>
<defs>
<clipPath id="clip0">
<rect width="375" height="375" fill="white" transform="translate(0.136719 0.708984)"/>
</clipPath>
</defs>
</svg>
