<svg width="376" height="376" viewBox="0 0 376 376" fill="none" xmlns="http://www.w3.org/2000/svg">
<g clip-path="url(#clip0)">
<path d="M-33.4844 -3.96582H402.453L400.312 383.222H-33.3428L-33.4844 -3.96582Z" fill="url(#paint0_linear)"/>
<path d="M106.055 226.429C106.771 227.613 107.726 235.232 106.454 236.894C105.182 238.557 101.036 240.515 100.408 240.589C99.7808 240.66 103.373 258.06 103.373 258.06C103.373 258.06 103.809 271.505 102.617 272.688C101.427 273.872 92.7716 280.436 91.085 280.573C89.3966 280.713 86.3638 280.862 85.9007 280.072C85.4431 279.278 87.4719 275.543 87.4935 275.167C87.5474 274.259 87.7077 271.727 87.5614 271.179C87.4194 270.629 86.5039 266.413 86.1125 265.614C85.7211 264.813 78.44 265.639 77.6113 265.821C76.7821 266.002 76.7225 265.015 76.7225 265.015C77.6736 262.543 84.3055 258.461 84.3055 258.461C84.3055 258.461 82.1572 255.124 80.4908 253.285C78.8267 251.445 75.441 239.883 74.2035 234.878C72.9688 229.873 75.5525 223.292 76.4666 223.044C90.1827 219.3 105.33 225.245 106.055 226.429Z" fill="#36627A"/>
<path d="M85.4362 269.606C84.6065 268.716 82.8262 268.148 81.4719 268.4C80.1196 268.65 80.2593 268.63 79.7587 269.942C79.258 271.253 82.8421 270.674 83.7004 270.986C84.5582 271.298 83.504 272.181 83.3554 272.134C83.2072 272.088 80.2982 272.541 80.2982 272.541L80.4454 275.638C80.4454 275.638 84.2423 274.887 84.4883 275.389C84.7373 275.89 82.5402 277.496 81.4016 278.82C80.2597 280.144 81.6074 280.392 83.5265 279.319C85.446 278.246 86.5419 275.009 86.5419 275.009C86.5419 275.009 87.0702 274.974 87.8333 274.836C88.5974 274.699 88.1507 273.48 88.1629 272.501C88.1737 271.521 87.8254 271.034 87.7302 270.855C87.6355 270.679 86.1941 271.061 86.1941 271.061C86.1941 271.061 86.2621 270.497 85.4362 269.606Z" fill="#6C808C"/>
<path d="M151.248 246.043L90.6533 247.508L98.4088 264.265C101.891 264.287 185.915 265.487 213.343 263.878C214.729 263.796 220.108 263.77 221.189 263.706C228.231 263.292 233.641 263.407 240.163 262.968C245.996 263.129 251.486 262.951 256.829 262.638C263.069 262.272 268.168 261.32 272.888 259.642C293.392 252.351 301.012 243.916 307.136 237.137C308.105 236.066 309.018 235.054 309.94 234.096C310.008 234.023 310.072 233.95 310.146 233.878C282.66 249.159 244.622 252.108 217.261 254.494C212.87 254.878 208.586 255.652 204.514 255.89C180.989 257.27 166.092 257.301 165.891 257.291L164.762 256.492L151.248 246.043Z" fill="white" stroke="white" stroke-miterlimit="10"/>
<path d="M218.175 257.106C245.654 254.71 283.746 248.401 311.21 232.964L311.61 232.555C315.612 228.312 317.378 225.631 318.528 223.776C319.099 222.862 319.508 222.2 319.986 221.703C320.616 221.046 321.672 220.236 322.392 219.72C318.018 220.427 301.02 222.286 275.184 222.491C260.975 222.605 230.132 224.762 193.709 229.16C143.013 235.283 108.953 242.591 91.3517 248.007L149.297 247.899L163.74 258.61C164.977 258.666 189.065 259.651 218.175 257.106Z" fill="#FF0000"/>
<path d="M193.276 210.958C193.001 210.474 192.781 210.11 192.606 209.838C192.518 209.704 192.442 209.59 192.375 209.496C192.04 209.025 191.939 209.03 191.878 209.032L191.71 209.152C191.636 209.313 191.554 209.486 191.457 209.668C191.391 209.789 191.324 209.914 191.25 210.043C191.213 210.105 191.176 210.171 191.139 210.235C190.119 211.92 188.379 213.934 187.251 213.706C186.712 213.597 186.374 213.257 186.21 212.661C186.188 212.593 186.175 212.518 186.161 212.445C186.148 212.367 186.134 212.289 186.13 212.207C185.934 210.062 187.602 205.74 189.96 202.908C190.324 202.473 190.705 202.073 191.094 201.722C191.313 201.525 191.561 201.325 191.825 201.152C192.251 200.875 192.717 200.667 193.16 200.663C193.327 200.662 193.491 200.69 193.652 200.752C193.905 200.851 194.081 201.034 194.188 201.309C194.258 201.49 194.293 201.701 194.307 201.93C194.384 203.534 193.164 206.055 193.146 206.085L193.056 206.272L195.321 206.783L193.276 210.958ZM193.085 203.009C193.063 202.764 192.991 202.564 192.845 202.435C192.817 202.408 192.785 202.385 192.751 202.365C192.664 202.315 192.566 202.293 192.461 202.299C192.387 202.303 192.312 202.323 192.224 202.36C191.638 202.609 190.832 203.587 190.036 204.828L189.994 204.786L189.952 204.741L189.272 206.104C188.93 206.711 188.606 207.34 188.322 207.95C187.844 208.968 187.474 209.931 187.298 210.648C187.201 211.057 187.166 211.383 187.193 211.629C187.2 211.691 187.214 211.747 187.226 211.799C187.27 211.954 187.35 212.065 187.465 212.133C187.515 212.162 187.572 212.173 187.63 212.17C188.312 212.13 190.364 209.325 191.204 207.963C191.234 207.911 191.264 207.865 191.292 207.817C191.345 207.724 191.395 207.64 191.432 207.568C191.475 207.496 191.504 207.431 191.525 207.381C191.55 207.336 191.578 207.282 191.617 207.214C191.654 207.149 191.693 207.071 191.738 206.989C192.227 206.058 193.173 204.089 193.085 203.009Z" fill="black"/>
<path d="M206.409 188.779C205.468 188.484 202.27 188.645 201.313 188.7C201.171 188.709 201.062 188.716 200.983 188.721L199.865 197.78L199.316 198.009L198.77 198.238L193.116 211.093L192.94 214.657L194.079 217.322L197.469 217.213C197.581 215.101 198.336 207.518 198.358 207.476C198.99 206.213 203.272 204.796 204.089 204.564C204.117 204.556 204.139 204.548 204.157 204.544C204.241 204.514 204.329 204.486 204.42 204.456C204.643 204.383 204.883 204.309 205.135 204.233C205.236 204.204 205.338 204.174 205.442 204.144C205.776 204.048 206.127 203.952 206.491 203.858C206.578 203.834 206.662 203.812 206.749 203.79C206.915 203.747 207.082 203.703 207.251 203.663C209.908 202.996 212.977 202.31 213.852 202.138C211.375 196.97 207.195 189.032 206.409 188.779Z" fill="#3FA9F5"/>
<path d="M190.084 205.348C189.964 205.534 189.848 205.725 189.733 205.921L189.145 207.101L190.729 207.34L190.689 207.514C190.689 207.518 190.667 207.63 190.677 207.769C190.683 207.853 190.701 207.944 190.744 208.027C190.947 207.701 191.105 207.425 191.182 207.24C191.327 206.981 191.473 206.698 191.618 206.408C191.594 206.43 191.569 206.449 191.538 206.458C191.528 206.46 191.515 206.464 191.498 206.465C191.385 206.474 191.096 206.386 190.084 205.348Z" fill="black"/>
<path d="M191.621 207.216C191.585 207.284 191.554 207.338 191.529 207.383C191.51 207.434 191.48 207.496 191.437 207.568C191.398 207.643 191.349 207.727 191.297 207.818C191.268 207.866 191.24 207.912 191.209 207.964C190.37 209.326 188.319 212.131 187.634 212.171C187.576 212.175 187.517 212.163 187.471 212.134C187.353 212.066 187.275 211.955 187.231 211.8C187.215 211.749 187.204 211.691 187.198 211.63C187.169 211.384 187.208 211.059 187.303 210.649C187.478 209.932 187.849 208.968 188.329 207.951C188.611 207.341 188.939 206.711 189.276 206.105L189.956 204.742L189.997 204.787L190.04 204.829C190.835 203.589 191.641 202.612 192.228 202.36C192.312 202.324 192.39 202.303 192.464 202.299C192.574 202.292 192.669 202.316 192.754 202.366C192.789 202.387 192.822 202.41 192.849 202.436C192.995 202.565 193.067 202.765 193.088 203.009C193.174 204.088 192.23 206.058 191.74 206.989C191.696 207.075 191.656 207.151 191.621 207.216ZM187.595 210.728C187.387 211.597 187.508 211.8 187.556 211.839C188.099 211.704 189.636 209.719 190.543 208.33C190.35 208.105 190.329 207.805 190.341 207.617L188.919 207.404C188.319 208.592 187.818 209.793 187.595 210.728ZM189.732 205.922L189.142 207.103L190.725 207.342L190.687 207.514C190.685 207.517 190.663 207.63 190.673 207.768C190.679 207.853 190.701 207.944 190.74 208.028C190.944 207.701 191.101 207.424 191.179 207.24C191.323 206.979 191.47 206.698 191.615 206.408C191.592 206.43 191.566 206.448 191.534 206.458C191.524 206.46 191.513 206.463 191.495 206.464C191.384 206.475 191.093 206.387 190.077 205.348C189.964 205.535 189.848 205.726 189.732 205.922ZM192.585 202.651C192.558 202.634 192.519 202.626 192.479 202.629C192.017 202.656 191.15 203.681 190.259 205.061C190.703 205.513 191.198 205.97 191.409 206.1C191.512 205.922 191.724 205.843 191.903 205.812C192.56 204.384 193.041 202.917 192.585 202.651Z" fill="black"/>
<path d="M295.32 220.074C301.919 219.542 318.893 219.953 322.9 216.978C322.586 216.933 322.226 216.653 321.789 216.67C321.789 216.67 299.072 213.35 282.935 212.034C281.903 211.95 280.963 211.91 280.137 211.858C269.485 211.177 221.919 211.156 221.436 211.158L221.352 211.157L221.3 211.085C221.146 210.86 217.555 205.526 217.13 204.841C216.926 204.508 216.897 204.044 216.867 203.552C216.83 202.981 216.793 202.391 216.456 202.117C216.147 201.867 215.484 201.757 214.584 201.81C214.265 201.828 214.037 201.862 214.035 201.862L213.917 201.881L213.897 201.842C212.829 202.052 207.003 203.222 204.237 204.177C202.661 204.619 198.514 205.993 198.235 206.978C197.878 208.237 197.209 216.437 197.198 216.515L197.214 217.079L194.105 217.263L192.963 214.606L185.813 215.61L174.239 217.348L174.169 216.977C174.952 216.784 175.114 216.496 175.155 215.389C175.166 215.044 174.906 214.562 174.435 214.09C173.674 213.322 172.308 212.505 171.124 212.538C170.728 212.548 170.049 212.536 169.19 212.524C167.448 212.498 165.066 212.46 163.122 212.575C161.007 212.699 160.269 212.957 160.025 213.153C159.693 213.417 159.532 213.692 159.541 213.968C159.557 214.445 160.069 214.809 160.073 214.813L160.406 215.046L156.921 215.608L156.912 217.321L140.112 219.246L139.176 221.234L119.285 222.458L110.115 225.274L110.522 235.92L105.478 238.129L105.449 238.141L92.9905 238.651L90.2478 240.557L90.6847 245.677C112.752 239.969 158.179 231.003 202.602 226.237C261.906 219.872 288.718 220.606 295.32 220.074Z" fill="white"/>
<path d="M322.9 216.979C318.41 218.865 302.181 219.097 295.582 219.627C288.982 220.159 262.268 219.276 202.961 225.64C158.538 230.406 112.841 239.948 90.6918 245.66L90.6932 245.675L90.5718 245.731C89.3273 246.624 88.6813 247.203 88.6419 247.501C88.6274 247.582 88.6593 247.639 88.7423 247.737C88.7784 247.78 88.806 247.822 88.8304 247.867C88.9026 247.944 89.4337 248.06 90.9112 247.995L91.6809 247.785C109.261 243.008 141.11 235.996 193.02 229.728C229.453 225.328 260.112 223.245 274.33 223.132C301.821 222.913 319.503 220.212 322.392 219.722C323.026 219.146 323.256 218.956 323.276 218.945C323.984 218.691 324.398 218.24 324.317 217.82C324.251 217.481 323.833 217.113 322.9 216.979Z" fill="white"/>
<path d="M159.494 215.215C159.494 215.215 157.689 213.338 160.741 212.511C162.976 211.904 169.661 212.217 171.462 212.206C173.263 212.194 175.416 214.632 175.303 215.791C175.208 216.781 175.074 217.868 173.391 217.426C171.706 216.985 171.884 215.712 170.945 215.658C170.004 215.607 160.292 215.292 159.494 215.215Z" fill="#C99B59"/>
<path d="M177.754 215.98C177.754 215.98 176.719 214.833 176.911 213.449C177.101 212.065 177.393 211.354 178.235 211.093C179.075 210.831 180.22 210.694 180.458 210.81C180.697 210.924 183.575 211.992 184.233 212.205C184.889 212.416 186.695 213.554 186.743 214.096C186.795 214.638 186.901 214.809 187.133 215.335C187.366 215.859 187.754 218.247 187.754 218.247L183.458 218.817C183.458 218.817 183.469 217.136 183.148 217.029C182.828 216.921 178.615 216.586 178.324 216.432C178.04 216.273 177.754 215.98 177.754 215.98Z" fill="#996234"/>
<path d="M161.664 209.619C161.664 209.619 161.39 207.494 161.299 207.496C161.207 207.498 164.282 207.248 165 206.686C165.892 205.991 170.881 205.921 170.881 205.921L174.259 208.885L178.143 211.672C178.143 211.672 177.123 215.308 176.578 215.32C176.322 215.326 173.544 212.919 171.081 212.902C168.335 212.884 168.167 214.463 168.877 217.851C169.011 218.491 163.137 214.757 163.137 214.757C163.137 214.757 162.026 213.965 161.723 212.519C161.424 211.078 161.664 209.619 161.664 209.619Z" fill="#EF45B7"/>
<path d="M167.752 187.618C167.889 187.66 168.859 186.415 168.805 186.008C168.75 185.598 168.338 185.336 168.246 185.338C168.156 185.34 167.177 184.228 167.666 183.718C168.154 183.208 166.522 181.203 167.088 180.192C167.656 179.182 168.348 177.624 169.695 177.05C171.044 176.475 171.893 176.003 172.588 176.531C173.279 177.061 174.947 178.566 175.005 179.155C175.063 179.744 175.36 180.871 175.071 182.102C174.78 183.333 174.784 183.515 174.768 184.832C174.752 186.147 174.18 186.979 173.783 187.486C173.386 187.992 173.583 188.668 172.816 188.867C172.049 189.065 173.028 190.269 172.675 190.729C172.323 191.19 168.036 190.152 168.087 188.381C168.111 187.548 167.752 187.618 167.752 187.618Z" fill="#996234"/>
<path d="M167.849 185.847C167.849 185.847 167.079 185.865 167.156 185.227C167.231 184.591 167.374 183.497 167.103 183.232C166.833 182.966 166.006 182.486 166.26 181.708C166.515 180.931 166.822 180.47 166.625 179.749C166.426 179.028 166.595 178.434 167.176 178.059C167.757 177.684 168.219 177.763 168.89 177.432C169.56 177.1 170.088 176.317 170.854 176.163C171.62 176.01 172.516 175.445 173.167 176.112C173.818 176.777 174.27 176.767 174.463 177.216C174.654 177.665 174.417 177.172 174.712 178.254C175.008 179.337 175.558 179.551 175.208 180.15C174.859 180.746 174.515 179.665 174.199 179.627C173.879 179.589 174.05 179.086 173.201 179.649C172.351 180.213 172.665 180.025 171.389 179.78C170.113 179.536 169.414 178.826 169.059 180.15C168.704 181.475 168.921 181.243 169.107 182.281C169.291 183.322 169.14 183.777 169.14 183.777C169.14 183.777 169.06 183.279 168.566 183.382C168.068 183.485 167.98 183.577 168.038 184.119C168.095 184.662 168.382 185.291 168.294 185.476C168.205 185.658 167.849 185.847 167.849 185.847Z" fill="#301705"/>
<path d="M174.337 196.045C174.337 196.045 177.438 200.877 178.219 201.312C179 201.749 180.608 202.62 181.2 202.743C181.791 202.866 185.524 203.373 187.108 203.247C188.694 203.12 188.954 202.635 189.557 203.201C190.16 203.768 190.442 204.17 190.658 203.712C190.874 203.253 190.736 203.166 190.63 202.488C190.525 201.808 190.607 201.444 191.241 201.341C191.874 201.236 192.862 201.94 192.583 201.129C192.306 200.319 192.389 199.954 191.348 200.067C190.306 200.181 190.143 200.956 189.419 201.063C188.696 201.17 188.377 201.177 187.104 201.024C185.831 200.871 182.2 198.818 181.429 198.791C180.658 198.763 180.599 198.174 180.089 197.688C179.581 197.2 177.53 194.797 177.53 194.797" fill="#996234"/>
<path d="M161.105 198.835C161.231 196.293 162.048 192.238 163.55 190.436C165.053 188.632 165.507 188.668 166.629 188.143C167.751 187.62 168.344 187.743 168.344 187.743C168.344 187.743 168.443 189.555 169.373 189.853C170.302 190.149 172.491 190.69 172.621 190.325C172.749 189.959 172.427 189.735 172.691 189.414C172.956 189.093 173.39 188.22 173.712 188.396C174.034 188.569 175.635 189.168 175.833 189.981C176.033 190.793 176.239 191.877 176.706 192.502C177.174 193.127 177.468 194.118 177.468 194.118C177.468 194.118 177.613 194.478 177.758 194.883C177.904 195.288 176.586 195.272 175.763 196.968C174.937 198.663 173.929 196.057 173.929 196.057C173.929 196.057 174.956 195.353 174.036 196.826C174.036 196.826 172.634 199.08 172.55 199.399C172.467 199.719 172.122 200.542 172.186 201.359C172.251 202.175 172.723 203.025 172.65 203.889C172.578 204.753 172.705 205.52 171.639 205.953C170.575 206.384 169.393 206.32 168.081 206.485C166.768 206.649 165.146 206.615 164.557 207.153C163.968 207.691 163.38 207.27 162.658 207.467C161.937 207.664 161.902 208.119 161.299 207.497C160.694 206.876 161.586 204.859 161.426 204.409C161.266 203.959 160.85 202.97 160.967 201.471C161.087 199.971 161.105 198.835 161.105 198.835Z" fill="#8BC7E8"/>
<path d="M166.415 201.778C166.415 201.778 167.449 204.917 168.001 205.506C168.554 206.096 169.446 207.47 169.915 208C170.387 208.529 174.539 212.602 175.034 212.952C175.532 213.304 177.932 215.32 177.932 215.32L181.259 214.863C181.259 214.863 178.997 212.545 177.884 211.412C176.772 210.28 173.078 205.911 172.866 205.51C172.651 205.11 171.455 203.919 171.127 203.365C170.798 202.81 170.721 201.652 170.435 200.599C170.149 199.547 169.667 198.188 169.667 198.188C169.667 198.188 165.465 197.777 165.358 198.77C165.25 199.765 166.415 201.778 166.415 201.778Z" fill="#996234"/>
<path d="M168.968 217.806C168.968 217.806 168.018 216.586 168.305 215.218C168.592 213.851 168.936 213.163 169.793 212.963C170.65 212.763 171.801 212.707 172.032 212.836C172.261 212.968 175.058 214.237 175.699 214.494C176.339 214.753 178.059 216.016 178.072 216.559C178.083 217.103 178.179 217.282 178.372 217.821C178.566 218.362 178.826 219.9 178.826 219.9L174.481 220.458C174.481 220.458 174.59 219.358 174.276 219.228C173.963 219.1 169.783 218.466 169.506 218.291C169.23 218.118 168.968 217.806 168.968 217.806Z" fill="#996234"/>
<path d="M138.56 212.128C138.56 212.128 139.087 213.904 138.781 216.101C138.474 218.297 138.423 220.174 139.235 220.854C140.048 221.534 139.264 222.903 140.047 223.073C140.556 223.183 148.55 222.044 149.203 222.214C149.856 222.384 151.971 221.854 152.303 222.042C152.636 222.23 155.399 221.771 155.832 221.846C156.266 221.92 156.004 221.073 156.423 220.891C156.841 220.709 157.59 218.736 157.59 218.736L157.544 217.916L156.373 216.123L155.75 214.502L155.192 214.184C155.192 214.184 154.857 213.94 154.614 213.425C154.371 212.909 154.225 212.218 154.087 211.663C153.949 211.109 153.848 210.211 153.403 210.42C152.957 210.628 138.56 212.128 138.56 212.128Z" fill="#32417F"/>
<path d="M131.716 199.715C131.716 199.715 131.254 207.493 131.347 207.7C131.441 207.909 131.2 209.503 130.766 211.733C130.332 213.965 130.495 219.601 130.548 220.142C130.603 220.684 130.426 221.831 130.44 221.977C130.455 222.121 129.895 222.723 129.472 223.24C129.05 223.756 129.512 223.636 129.512 223.636C129.512 223.636 130.079 223.837 130.45 223.907C130.822 223.978 132.089 223.89 132.505 224.03C132.92 224.171 135.394 223.743 135.574 223.724C135.756 223.707 136.087 223.382 136.048 222.985C136.008 222.586 135.506 222.308 135.506 222.308L133.92 221.773C133.92 221.773 133.87 220.904 133.812 220.69C133.754 220.478 134.978 216.671 135.037 215.427C135.094 214.18 135.25 213.544 135.102 212.794C134.954 212.043 134.972 210.035 134.994 209.888C135.015 209.74 135.413 207.146 135.677 206.5C135.94 205.854 135.315 201.432 135.334 201.248L131.716 199.715Z" fill="#FFCBA1"/>
<path d="M156.388 197.722C156.388 197.722 159.06 204.018 159.304 204.286C159.549 204.552 160.82 207.416 161.116 207.825C161.413 208.231 164.816 219.307 164.94 219.44C165.062 219.574 165.857 219.859 166.044 219.914C166.23 219.968 166.408 221.007 166.408 221.007L163.809 221.269L161.707 221.477C161.707 221.477 161.39 221.511 160.92 221.556C160.451 221.603 160.184 221.484 160.098 221.355C160.012 221.225 160.299 220.452 160.469 220.324C160.638 220.198 161.119 219.894 161.39 219.686C161.661 219.478 161.364 219.068 161.267 218.459C161.171 217.848 160.459 216.204 160.044 215.336C159.629 214.47 158.058 211.521 158.019 211.127C157.978 210.726 157.116 208.297 156.855 207.886C156.596 207.474 156.855 207.886 156.4 207.348C155.946 206.81 152.873 200.881 152.873 200.881L156.124 198.367L156.388 197.722Z" fill="#FFCBA1"/>
<path d="M157.629 198.106C157.647 198.285 156.989 199.009 156.675 199.15C156.362 199.29 154.848 200.207 154.614 200.414C154.379 200.619 153.498 201.656 153.487 201.912C153.477 202.168 153.397 203.562 153.411 203.707C153.426 203.851 154.206 206.911 154.379 207.183C154.551 207.455 154.7 210.761 154.678 211.272C154.656 211.786 154.87 215.352 153.924 215.373C152.978 215.396 149.306 215.872 148.533 215.803C147.761 215.734 143.533 216.85 143.034 216.972C142.537 217.096 138.973 216.831 138.424 216.084C137.874 215.338 137.025 209.426 137.018 208.989C137.01 208.553 136.422 204.126 136.422 204.126C136.422 204.126 136.086 201.862 135.937 201.84C135.789 201.818 134.035 201.774 132.883 201.562C131.731 201.349 131.074 200.977 131.074 200.977C131.074 200.977 130.901 199.975 130.956 199.786C131.009 199.598 131.968 194.215 132.31 192.905C132.652 191.595 138.199 189.799 138.513 189.658C138.828 189.518 145.386 188.352 145.821 188.344C146.258 188.338 150.295 189.684 151.123 189.93C151.95 190.175 154.61 190.894 155.644 192.469C156.676 194.043 157.491 197.828 157.611 197.925C157.611 197.926 157.61 197.927 157.629 198.106Z" fill="#FFFEF8"/>
<path d="M145.852 188.669C145.852 188.669 145.673 189.408 145.363 189.99C143.245 191.257 142.569 190.377 141.205 190.221C139.839 190.066 139.926 188.459 139.986 187.979C140.047 187.499 139.632 182.981 139.623 182.145C139.611 181.307 140.615 176.392 144.601 177.233C148.587 178.076 147.663 182.69 147.663 182.69C146.893 188.128 145.852 188.669 145.852 188.669Z" fill="#FFCBA1"/>
<path d="M141.83 187.97C141.83 187.97 139.808 188.256 139.251 185.948C138.693 183.639 139.133 183.83 138.996 181.37C138.86 178.911 136.281 178.396 139.911 177.344C143.541 176.291 146.219 174.963 146.748 176.435C147.277 177.907 147.819 178.523 147.627 179.067C147.435 179.613 147.822 180.458 147.788 180.99C147.755 181.521 147.116 183.065 147.116 183.065C147.116 183.065 145.612 183.578 145.602 183.901C145.591 184.223 145.072 184.961 145.121 185.623C145.169 186.284 146.01 186.402 145.192 186.902C144.374 187.402 143.668 187.873 143.668 187.873L141.83 187.97Z" fill="#9E5A2D"/>
<path d="M253.419 209.249C253.373 208.933 252.697 207.26 252.988 206.909C253.279 206.559 254.321 205.654 254.681 205.317C255.042 204.98 255.549 204.627 255.692 204.306C255.834 203.983 255.745 203.294 255.944 203.303C256.145 203.31 268.788 203.698 268.891 203.739C268.994 203.777 270.457 204.802 270.583 205.225C270.709 205.648 271.353 206.157 271.516 206.511C271.677 206.865 272.213 208.174 272.488 208.951C272.766 209.727 272.878 210.533 272.914 211.58C272.948 212.627 272.982 213.689 272.827 214.095C272.674 214.5 272.277 214.923 272.187 214.999C272.097 215.075 272.608 215.126 271.691 215.078C270.773 215.03 267.108 214.138 266.29 214.634C265.471 215.13 264.351 215.233 263.868 215.11C263.383 214.988 263.553 215.117 263.114 214.693C262.675 214.267 262.413 213.752 262.241 213.739C262.065 213.723 262.198 213.45 261.683 213.991C261.169 214.531 261.344 214.469 261.169 214.531C260.991 214.595 259.717 215.145 259.37 215.133C259.022 215.121 259.303 215.154 258.85 215.116C258.396 215.077 258.491 215.372 258.396 215.077C258.301 214.784 258.264 213.701 257.805 213.338C257.352 212.974 253.419 209.249 253.419 209.249Z" fill="#F7931E"/>
<path d="M272.966 192.509C272.995 192.685 272.675 196.962 272.97 197.565C273.261 198.167 273.808 200.627 273.838 200.767C273.868 200.908 274.011 202.83 273.917 203.559C273.823 204.288 274.011 204.887 274.147 206.078C274.281 207.267 275.693 210.837 275.653 211.044C275.61 211.252 275.617 212.089 275.617 212.089L274.131 212.702C274.131 212.702 273.669 213 273.656 213.385C273.643 213.766 273.981 214.058 274.156 214.063C274.331 214.07 276.727 214.323 277.115 214.162C277.505 214.002 278.725 214.006 279.077 213.914C279.428 213.824 279.959 213.595 279.959 213.595C279.959 213.595 280.409 213.681 279.971 213.215C279.533 212.745 278.96 212.204 278.965 212.065C278.97 211.924 278.727 210.836 278.744 210.314C278.761 209.792 278.561 204.381 278.003 202.27C277.448 200.161 277.116 198.648 277.192 198.443C277.268 198.238 276.334 190.814 276.334 190.814L272.966 192.509Z" fill="#FFCBA1"/>
<path d="M252.861 191.064L256.134 193.267C256.134 193.267 253.566 199.144 253.164 199.688C252.763 200.233 252.985 199.821 252.763 200.233C252.538 200.644 251.865 203.026 251.853 203.412C251.84 203.792 250.521 206.717 250.179 207.574C249.836 208.432 249.257 210.053 249.204 210.644C249.149 211.233 248.892 211.645 249.165 211.827C249.436 212.009 249.917 212.271 250.087 212.38C250.258 212.492 250.581 213.214 250.507 213.344C250.434 213.473 250.185 213.605 249.733 213.589C249.28 213.575 248.974 213.563 248.974 213.563L246.947 213.496L244.439 213.41C244.439 213.41 244.543 212.402 244.719 212.339C244.895 212.274 245.638 211.951 245.748 211.815C245.856 211.679 248.417 200.85 248.676 200.443C248.934 200.033 249.971 197.209 250.189 196.937C250.407 196.666 252.568 190.463 252.568 190.463L252.861 191.064Z" fill="#FFCBA1"/>
<path d="M263.989 214.547C263.992 214.452 263.573 214.596 263.904 212.751C264.236 210.905 265.714 209.981 266.579 209.476C267.445 208.971 269.004 208.458 269.827 209.24C270.647 210.022 271.702 210.53 271.849 211.289C271.996 212.048 271.839 212.987 271.771 213.582C271.704 214.178 271.15 215.701 271.139 216.045C271.128 216.394 264.18 215.901 264.18 215.901L263.989 214.547Z" fill="#FFCBA1"/>
<path d="M257.638 215.669C257.638 215.669 258.864 214.253 259.055 214.107C259.244 213.958 260.658 213.356 260.724 213.234C260.791 213.113 261.079 212.814 260.761 212.152C260.442 211.492 259.911 209.831 259.493 209.353C259.074 208.875 255.705 207.832 254.991 207.87C254.277 207.909 254.196 207.598 253.402 208.128C252.61 208.657 252.124 209.291 251.927 209.656C251.727 210.021 251.259 211.089 251.217 211.398C251.177 211.705 251.284 213.072 251.145 213.531C251.006 213.991 251.079 215.318 251.079 215.318L257.638 215.669Z" fill="#FFCBA1"/>
<path d="M251.407 190.737C251.515 190.636 252.058 186.958 252.947 185.385C253.837 183.81 256.341 182.953 257.117 182.666C257.895 182.379 261.679 180.833 262.097 180.811C262.517 180.791 268.872 181.494 269.182 181.608C269.493 181.723 274.922 183.093 275.333 184.326C275.744 185.559 277.002 190.658 277.066 190.835C277.13 191.012 277.029 191.983 277.029 191.983C277.029 191.983 276.421 192.381 275.332 192.657C274.241 192.934 272.563 193.087 272.423 193.117C272.281 193.148 272.104 195.338 272.104 195.338C272.104 195.338 271.82 199.617 271.84 200.036C271.861 200.455 271.915 202.968 271.436 203.718C270.957 204.468 267.559 204.947 267.075 204.861C266.59 204.775 262.467 203.974 261.732 204.089C260.995 204.203 257.447 203.979 256.539 204.017C255.631 204.057 255.116 203.831 255.062 203.34C255.008 202.853 254.942 199.675 255.091 199.404C255.238 199.131 255.792 196.15 255.799 196.011C255.803 195.871 255.637 194.541 255.612 194.296C255.586 194.052 254.676 193.114 254.437 192.932C254.2 192.748 252.692 191.966 252.383 191.85C252.073 191.736 251.397 191.085 251.403 190.912C251.408 190.738 251.407 190.737 251.407 190.737Z" fill="#FFF599"/>
<path d="M259.976 175.51C259.976 175.51 258.799 171.147 262.566 170.088C266.332 169.029 267.606 173.675 267.647 174.478C267.69 175.28 267.579 179.636 267.667 180.092C267.755 180.549 268.081 184.36 266.782 184.595C265.485 184.831 263.858 185.543 262.398 183.367C262.064 182.829 262.091 181.124 262.091 181.124C262.091 181.124 261.058 180.672 259.976 175.51Z" fill="#FFCBA1"/>
<path d="M267.436 173.521C267.436 173.521 267.754 169.334 263.172 169.993C259.331 170.548 259.072 172.667 259.426 175.126L259.567 175.106C257.143 180.065 264.984 178.049 267.076 174.046L267.436 173.521Z" fill="#908DFF"/>
<path d="M249.752 219.669L249.851 217.853C249.916 216.683 249.25 215.631 248.081 215.566L247.96 215.56C246.79 215.495 245.877 216.463 245.814 217.632L245.717 219.397C243.848 219.896 242.596 221.526 242.515 222.994L252.68 223.552C252.76 222.083 251.553 220.404 249.752 219.669ZM247.873 218.231C247.438 218.208 247.106 217.836 247.13 217.402C247.154 216.966 247.526 216.634 247.96 216.658C248.395 216.682 248.727 217.053 248.704 217.488C248.68 217.922 248.308 218.255 247.873 218.231Z" fill="#283C8E"/>
<path d="M244.351 244.301L244.273 245.705C244.21 246.874 245.039 247.435 246.208 247.499L246.329 247.506C247.499 247.571 248.248 247.095 248.312 245.925L248.395 244.406C250.265 243.877 251.455 242.632 251.693 241.173L241.565 240.617C241.627 242.092 242.546 243.641 244.351 244.301ZM246.407 244.971C246.842 244.995 247.175 245.367 247.152 245.802C247.127 246.236 246.756 246.568 246.321 246.545C245.887 246.52 245.555 246.15 245.579 245.715C245.602 245.28 245.973 244.948 246.407 244.971Z" fill="#283C8E"/>
<path d="M252.486 223.541L242.573 222.998L241.639 240.038C241.632 240.161 241.555 240.617 241.565 240.617L251.694 241.173C251.705 241.174 251.545 240.704 251.551 240.582L252.486 223.541Z" fill="#E2E2E2"/>
<path d="M158.299 225.012L158.398 223.197C158.463 222.026 157.797 220.973 156.628 220.909L156.506 220.902C155.337 220.838 154.424 221.805 154.361 222.974L154.264 224.741C152.395 225.238 151.143 226.868 151.062 228.337L161.226 228.894C161.306 227.427 160.1 225.747 158.299 225.012ZM156.42 223.574C155.986 223.551 155.653 223.179 155.677 222.744C155.701 222.309 156.072 221.977 156.507 222.001C156.942 222.025 157.274 222.396 157.25 222.831C157.227 223.265 156.854 223.598 156.42 223.574Z" fill="#283C8E"/>
<path d="M152.897 249.644L152.82 251.047C152.756 252.217 153.585 252.777 154.753 252.842L154.874 252.849C156.044 252.913 156.794 252.438 156.857 251.269L156.941 249.749C158.811 249.22 160.001 247.976 160.24 246.515L150.11 245.959C150.174 247.435 151.093 248.984 152.897 249.644ZM154.954 250.316C155.388 250.339 155.721 250.71 155.697 251.146C155.673 251.58 155.301 251.913 154.867 251.889C154.432 251.864 154.1 251.494 154.123 251.059C154.148 250.624 154.519 250.291 154.954 250.316Z" fill="#283C8E"/>
<path d="M161.227 228.895L151.121 228.341C151.121 228.341 150.102 245.96 150.111 245.96L160.241 246.517C160.253 246.516 161.227 228.895 161.227 228.895Z" fill="#E2E2E2"/>
<path d="M156.472 222.699C156.472 222.699 158.137 223.308 159.136 221.814C160.136 220.319 161.05 220.658 161.887 220.925" stroke="#75422C" stroke-width="5" stroke-miterlimit="10" stroke-linecap="round"/>
<path d="M247.926 217.355C247.926 217.355 249.591 217.964 250.591 216.47C251.591 214.976 252.505 215.314 253.341 215.581" stroke="#75422C" stroke-width="5" stroke-miterlimit="10" stroke-linecap="round"/>
<path d="M245.292 217.439C245.292 217.439 237.311 216.541 234.929 219.72C232.548 222.9 232.067 230.452 228.312 232.496C224.557 234.54 214.566 234.193 212.379 240.616C210.192 247.04 215.506 261.07 200.401 264.716C185.296 268.36 173.305 261.764 160.241 268.339C147.705 274.647 146.865 278.506 133.934 275.851C121.004 273.196 124.083 273.864 108.838 282.907C93.5932 291.949 97.9582 296.101 83.9979 293.138" stroke="#75422C" stroke-width="5" stroke-miterlimit="10" stroke-linecap="round"/>
<path opacity="0.6" d="M-33.4844 252.68L402.263 252.51L402.548 385.735L-33.5796 385.565L-33.4844 252.68Z" fill="#33EFFF"/>
<path opacity="0.5" d="M66.8146 278.869C68.1683 278.869 69.2657 277.772 69.2657 276.418C69.2657 275.064 68.1683 273.967 66.8146 273.967C65.4609 273.967 64.3635 275.064 64.3635 276.418C64.3635 277.772 65.4609 278.869 66.8146 278.869Z" fill="white"/>
<path opacity="0.5" d="M59.4739 268.798C60.4018 268.798 61.1539 268.045 61.1539 267.117C61.1539 266.19 60.4018 265.438 59.4739 265.438C58.5461 265.438 57.7939 266.19 57.7939 267.117C57.7939 268.045 58.5461 268.798 59.4739 268.798Z" fill="white"/>
<path opacity="0.5" d="M43.2092 272.966C44.3553 272.966 45.2843 272.037 45.2843 270.891C45.2843 269.745 44.3553 268.815 43.2092 268.815C42.0631 268.815 41.134 269.745 41.134 270.891C41.134 272.037 42.0631 272.966 43.2092 272.966Z" fill="white"/>
<path opacity="0.5" d="M43.2072 288.461C44.5609 288.461 45.6583 287.363 45.6583 286.01C45.6583 284.656 44.5609 283.559 43.2072 283.559C41.8535 283.559 40.7561 284.656 40.7561 286.01C40.7561 287.363 41.8535 288.461 43.2072 288.461Z" fill="white"/>
<path opacity="0.5" d="M47.2187 283.627C48.5724 283.627 49.6698 282.529 49.6698 281.176C49.6698 279.822 48.5724 278.725 47.2187 278.725C45.865 278.725 44.7676 279.822 44.7676 281.176C44.7676 282.529 45.865 283.627 47.2187 283.627Z" fill="white"/>
<path opacity="0.5" d="M48.9819 270.606C50.3356 270.606 51.4329 269.509 51.4329 268.155C51.4329 266.801 50.3356 265.704 48.9819 265.704C47.6282 265.704 46.5308 266.801 46.5308 268.155C46.5308 269.509 47.6282 270.606 48.9819 270.606Z" fill="white"/>
<path opacity="0.5" d="M56.2633 278.556C57.617 278.556 58.7144 277.458 58.7144 276.104C58.7144 274.751 57.617 273.653 56.2633 273.653C54.9096 273.653 53.8123 274.751 53.8123 276.104C53.8123 277.458 54.9096 278.556 56.2633 278.556Z" fill="white"/>
<path opacity="0.3" d="M74.9797 281.85C76.3334 281.85 77.4308 280.753 77.4308 279.399C77.4308 278.046 76.3334 276.948 74.9797 276.948C73.626 276.948 72.5286 278.046 72.5286 279.399C72.5286 280.753 73.626 281.85 74.9797 281.85Z" fill="white"/>
<path opacity="0.5" d="M73.7824 272.66C74.534 272.66 75.1432 272.051 75.1432 271.299C75.1432 270.548 74.534 269.938 73.7824 269.938C73.0309 269.938 72.4216 270.548 72.4216 271.299C72.4216 272.051 73.0309 272.66 73.7824 272.66Z" fill="white"/>
<path opacity="0.5" d="M76.8674 275.959C77.6189 275.959 78.2281 275.35 78.2281 274.598C78.2281 273.847 77.6189 273.237 76.8674 273.237C76.1158 273.237 75.5066 273.847 75.5066 274.598C75.5066 275.35 76.1158 275.959 76.8674 275.959Z" fill="white"/>
<path opacity="0.5" d="M68.0187 271.423C68.7703 271.423 69.3795 270.814 69.3795 270.062C69.3795 269.31 68.7703 268.701 68.0187 268.701C67.2672 268.701 66.658 269.31 66.658 270.062C66.658 270.814 67.2672 271.423 68.0187 271.423Z" fill="white"/>
<path opacity="0.5" d="M65.0983 269.101C65.8499 269.101 66.4591 268.492 66.4591 267.741C66.4591 266.989 65.8499 266.38 65.0983 266.38C64.3468 266.38 63.7375 266.989 63.7375 267.741C63.7375 268.492 64.3468 269.101 65.0983 269.101Z" fill="white"/>
<path opacity="0.5" d="M51.4081 285.452C52.1597 285.452 52.7689 284.843 52.7689 284.091C52.7689 283.34 52.1597 282.73 51.4081 282.73C50.6566 282.73 50.0474 283.34 50.0474 284.091C50.0474 284.843 50.6566 285.452 51.4081 285.452Z" fill="white"/>
<path opacity="0.5" d="M50.8696 275.953C51.6211 275.953 52.2303 275.344 52.2303 274.592C52.2303 273.841 51.6211 273.231 50.8696 273.231C50.118 273.231 49.5088 273.841 49.5088 274.592C49.5088 275.344 50.118 275.953 50.8696 275.953Z" fill="white"/>
<path opacity="0.5" d="M62.0595 273.861C62.8111 273.861 63.4203 273.252 63.4203 272.5C63.4203 271.749 62.8111 271.14 62.0595 271.14C61.308 271.14 60.6987 271.749 60.6987 272.5C60.6987 273.252 61.308 273.861 62.0595 273.861Z" fill="white"/>
<path opacity="0.5" d="M59.8478 283.586C60.5994 283.586 61.2086 282.977 61.2086 282.225C61.2086 281.474 60.5994 280.864 59.8478 280.864C59.0963 280.864 58.4871 281.474 58.4871 282.225C58.4871 282.977 59.0963 283.586 59.8478 283.586Z" fill="white"/>
<path opacity="0.5" d="M71.8446 278.763C72.2026 278.763 72.4929 278.473 72.4929 278.115C72.4929 277.757 72.2026 277.467 71.8446 277.467C71.4865 277.467 71.1963 277.757 71.1963 278.115C71.1963 278.473 71.4865 278.763 71.8446 278.763Z" fill="white"/>
<path opacity="0.5" d="M62.1874 278.353C62.5451 278.353 62.8352 278.063 62.8352 277.705C62.8352 277.348 62.5451 277.058 62.1874 277.058C61.8296 277.058 61.5396 277.348 61.5396 277.705C61.5396 278.063 61.8296 278.353 62.1874 278.353Z" fill="white"/>
<path opacity="0.5" d="M54.9242 269.673C55.282 269.673 55.572 269.383 55.572 269.025C55.572 268.667 55.282 268.377 54.9242 268.377C54.5664 268.377 54.2764 268.667 54.2764 269.025C54.2764 269.383 54.5664 269.673 54.9242 269.673Z" fill="white"/>
<path opacity="0.5" d="M71.2989 275.383C71.6567 275.383 71.9467 275.093 71.9467 274.735C71.9467 274.377 71.6567 274.087 71.2989 274.087C70.9412 274.087 70.6511 274.377 70.6511 274.735C70.6511 275.093 70.9412 275.383 71.2989 275.383Z" fill="white"/>
<path opacity="0.5" d="M81.7801 277.624C82.1379 277.624 82.4279 277.334 82.4279 276.976C82.4279 276.618 82.1379 276.328 81.7801 276.328C81.4224 276.328 81.1323 276.618 81.1323 276.976C81.1323 277.334 81.4224 277.624 81.7801 277.624Z" fill="white"/>
<path opacity="0.5" d="M82.3329 273.75C82.6906 273.75 82.9807 273.46 82.9807 273.102C82.9807 272.744 82.6906 272.454 82.3329 272.454C81.9751 272.454 81.6851 272.744 81.6851 273.102C81.6851 273.46 81.9751 273.75 82.3329 273.75Z" fill="white"/>
<path opacity="0.5" d="M79.2435 273.372C79.6015 273.372 79.8918 273.082 79.8918 272.723C79.8918 272.365 79.6015 272.075 79.2435 272.075C78.8855 272.075 78.5952 272.365 78.5952 272.723C78.5952 273.082 78.8855 273.372 79.2435 273.372Z" fill="white"/>
<path opacity="0.5" d="M69.0968 282.292C69.4548 282.292 69.745 282.001 69.745 281.643C69.745 281.285 69.4548 280.995 69.0968 280.995C68.7387 280.995 68.4485 281.285 68.4485 281.643C68.4485 282.001 68.7387 282.292 69.0968 282.292Z" fill="white"/>
<path opacity="0.5" d="M53.4007 265.095C53.7588 265.095 54.049 264.805 54.049 264.447C54.049 264.089 53.7588 263.799 53.4007 263.799C53.0427 263.799 52.7524 264.089 52.7524 264.447C52.7524 264.805 53.0427 265.095 53.4007 265.095Z" fill="white"/>
<path opacity="0.5" d="M45.1476 265.947C45.5056 265.947 45.7958 265.657 45.7958 265.299C45.7958 264.941 45.5056 264.65 45.1476 264.65C44.7895 264.65 44.4993 264.941 44.4993 265.299C44.4993 265.657 44.7895 265.947 45.1476 265.947Z" fill="white"/>
<path opacity="0.5" d="M71.1475 269.271C71.5056 269.271 71.7958 268.981 71.7958 268.623C71.7958 268.265 71.5056 267.975 71.1475 267.975C70.7895 267.975 70.4993 268.265 70.4993 268.623C70.4993 268.981 70.7895 269.271 71.1475 269.271Z" fill="white"/>
<path opacity="0.5" d="M79.1271 278.14C79.4846 278.14 79.7744 277.851 79.7744 277.493C79.7744 277.136 79.4846 276.846 79.1271 276.846C78.7696 276.846 78.4797 277.136 78.4797 277.493C78.4797 277.851 78.7696 278.14 79.1271 278.14Z" fill="white"/>
<path opacity="0.5" d="M76.9855 271.22C77.3684 271.22 77.6788 270.909 77.6788 270.526C77.6788 270.143 77.3684 269.833 76.9855 269.833C76.6026 269.833 76.2922 270.143 76.2922 270.526C76.2922 270.909 76.6026 271.22 76.9855 271.22Z" fill="white"/>
<path opacity="0.2" d="M51.1711 279.25C53.7962 279.25 55.9242 277.122 55.9242 274.497C55.9242 271.872 53.7962 269.744 51.1711 269.744C48.546 269.744 46.418 271.872 46.418 274.497C46.418 277.122 48.546 279.25 51.1711 279.25Z" fill="white"/>
<path opacity="0.1" d="M60.1301 280.506C63.9681 280.506 67.0793 277.395 67.0793 273.557C67.0793 269.719 63.9681 266.607 60.1301 266.607C56.2922 266.607 53.1809 269.719 53.1809 273.557C53.1809 277.395 56.2922 280.506 60.1301 280.506Z" fill="white"/>
<path opacity="0.1" d="M74.8958 282.957C78.7337 282.957 81.845 279.846 81.845 276.008C81.845 272.17 78.7337 269.059 74.8958 269.059C71.0578 269.059 67.9465 272.17 67.9465 276.008C67.9465 279.846 71.0578 282.957 74.8958 282.957Z" fill="white"/>
<path opacity="0.1" d="M67.8655 279.755C71.7032 279.755 74.8142 276.644 74.8142 272.806C74.8142 268.969 71.7032 265.857 67.8655 265.857C64.0278 265.857 60.9167 268.969 60.9167 272.806C60.9167 276.644 64.0278 279.755 67.8655 279.755Z" fill="white"/>
<path opacity="0.1" d="M45.1001 285.212C48.9378 285.212 52.0489 282.101 52.0489 278.263C52.0489 274.426 48.9378 271.314 45.1001 271.314C41.2624 271.314 38.1514 274.426 38.1514 278.263C38.1514 282.101 41.2624 285.212 45.1001 285.212Z" fill="white"/>
<path opacity="0.1" d="M52.5046 288.671C56.3426 288.671 59.4539 285.56 59.4539 281.722C59.4539 277.884 56.3426 274.772 52.5046 274.772C48.6667 274.772 45.5554 277.884 45.5554 281.722C45.5554 285.56 48.6667 288.671 52.5046 288.671Z" fill="white"/>
<path opacity="0.5" d="M33.4132 278.66C35.4113 278.66 37.031 277.041 37.031 275.043C37.031 273.045 35.4113 271.425 33.4132 271.425C31.4152 271.425 29.7954 273.045 29.7954 275.043C29.7954 277.041 31.4152 278.66 33.4132 278.66Z" fill="white"/>
<path opacity="0.5" d="M22.579 263.794C23.9488 263.794 25.0592 262.684 25.0592 261.314C25.0592 259.944 23.9488 258.834 22.579 258.834C21.2093 258.834 20.0989 259.944 20.0989 261.314C20.0989 262.684 21.2093 263.794 22.579 263.794Z" fill="white"/>
<path opacity="0.5" d="M-1.42718 269.947C0.264368 269.947 1.63564 268.576 1.63564 266.884C1.63564 265.193 0.264368 263.821 -1.42718 263.821C-3.11872 263.821 -4.48999 265.193 -4.48999 266.884C-4.48999 268.576 -3.11872 269.947 -1.42718 269.947Z" fill="white"/>
<path opacity="0.5" d="M-1.42953 292.817C0.568273 292.817 2.18781 291.197 2.18781 289.199C2.18781 287.202 0.568273 285.582 -1.42953 285.582C-3.42734 285.582 -5.04688 287.202 -5.04688 289.199C-5.04688 291.197 -3.42734 292.817 -1.42953 292.817Z" fill="white"/>
<path opacity="0.5" d="M4.49184 285.684C6.4899 285.684 8.10965 284.064 8.10965 282.066C8.10965 280.068 6.4899 278.448 4.49184 278.448C2.49377 278.448 0.874023 280.068 0.874023 282.066C0.874023 284.064 2.49377 285.684 4.49184 285.684Z" fill="white"/>
<path opacity="0.5" d="M7.09218 266.466C9.09024 266.466 10.71 264.846 10.71 262.848C10.71 260.85 9.09024 259.23 7.09218 259.23C5.09412 259.23 3.47437 260.85 3.47437 262.848C3.47437 264.846 5.09412 266.466 7.09218 266.466Z" fill="white"/>
<path opacity="0.5" d="M17.84 278.199C19.838 278.199 21.4578 276.579 21.4578 274.581C21.4578 272.583 19.838 270.963 17.84 270.963C15.8419 270.963 14.2222 272.583 14.2222 274.581C14.2222 276.579 15.8419 278.199 17.84 278.199Z" fill="white"/>
<path opacity="0.3" d="M45.4643 283.06C47.4621 283.06 49.0816 281.44 49.0816 279.443C49.0816 277.445 47.4621 275.825 45.4643 275.825C43.4665 275.825 41.8469 277.445 41.8469 279.443C41.8469 281.44 43.4665 283.06 45.4643 283.06Z" fill="white"/>
<path opacity="0.5" d="M43.6981 269.496C44.8071 269.496 45.7062 268.597 45.7062 267.488C45.7062 266.379 44.8071 265.479 43.6981 265.479C42.589 265.479 41.6899 266.379 41.6899 267.488C41.6899 268.597 42.589 269.496 43.6981 269.496Z" fill="white"/>
<path opacity="0.5" d="M48.251 274.365C49.3603 274.365 50.2596 273.466 50.2596 272.356C50.2596 271.247 49.3603 270.348 48.251 270.348C47.1417 270.348 46.2424 271.247 46.2424 272.356C46.2424 273.466 47.1417 274.365 48.251 274.365Z" fill="white"/>
<path opacity="0.5" d="M35.1905 267.67C36.2996 267.67 37.1986 266.77 37.1986 265.661C37.1986 264.552 36.2996 263.653 35.1905 263.653C34.0814 263.653 33.1824 264.552 33.1824 265.661C33.1824 266.77 34.0814 267.67 35.1905 267.67Z" fill="white"/>
<path opacity="0.5" d="M30.8807 264.245C31.99 264.245 32.8893 263.345 32.8893 262.236C32.8893 261.127 31.99 260.228 30.8807 260.228C29.7713 260.228 28.8721 261.127 28.8721 262.236C28.8721 263.345 29.7713 264.245 30.8807 264.245Z" fill="white"/>
<path opacity="0.5" d="M10.6737 288.376C11.7827 288.376 12.6818 287.477 12.6818 286.367C12.6818 285.258 11.7827 284.359 10.6737 284.359C9.5646 284.359 8.66553 285.258 8.66553 286.367C8.66553 287.477 9.5646 288.376 10.6737 288.376Z" fill="white"/>
<path opacity="0.5" d="M9.8792 274.356C10.9885 274.356 11.8878 273.457 11.8878 272.347C11.8878 271.238 10.9885 270.339 9.8792 270.339C8.76988 270.339 7.87061 271.238 7.87061 272.347C7.87061 273.457 8.76988 274.356 9.8792 274.356Z" fill="white"/>
<path opacity="0.5" d="M26.3946 271.269C27.5037 271.269 28.4027 270.37 28.4027 269.261C28.4027 268.152 27.5037 267.253 26.3946 267.253C25.2855 267.253 24.3865 268.152 24.3865 269.261C24.3865 270.37 25.2855 271.269 26.3946 271.269Z" fill="white"/>
<path opacity="0.5" d="M23.1304 285.622C24.2395 285.622 25.1386 284.723 25.1386 283.614C25.1386 282.505 24.2395 281.605 23.1304 281.605C22.0214 281.605 21.1223 282.505 21.1223 283.614C21.1223 284.723 22.0214 285.622 23.1304 285.622Z" fill="white"/>
<path opacity="0.5" d="M40.8373 278.504C41.3657 278.504 41.7941 278.076 41.7941 277.548C41.7941 277.019 41.3657 276.591 40.8373 276.591C40.309 276.591 39.8806 277.019 39.8806 277.548C39.8806 278.076 40.309 278.504 40.8373 278.504Z" fill="white"/>
<path opacity="0.5" d="M26.5844 277.9C27.1128 277.9 27.5411 277.471 27.5411 276.943C27.5411 276.415 27.1128 275.986 26.5844 275.986C26.056 275.986 25.6277 276.415 25.6277 276.943C25.6277 277.471 26.056 277.9 26.5844 277.9Z" fill="white"/>
<path opacity="0.5" d="M15.8637 265.087C16.3921 265.087 16.8204 264.659 16.8204 264.131C16.8204 263.602 16.3921 263.174 15.8637 263.174C15.3353 263.174 14.907 263.602 14.907 264.131C14.907 264.659 15.3353 265.087 15.8637 265.087Z" fill="white"/>
<path opacity="0.5" d="M40.0319 273.516C40.5603 273.516 40.9886 273.088 40.9886 272.559C40.9886 272.031 40.5603 271.603 40.0319 271.603C39.5035 271.603 39.0752 272.031 39.0752 272.559C39.0752 273.088 39.5035 273.516 40.0319 273.516Z" fill="white"/>
<path opacity="0.5" d="M55.5016 276.823C56.03 276.823 56.4584 276.394 56.4584 275.866C56.4584 275.337 56.03 274.909 55.5016 274.909C54.9733 274.909 54.5449 275.337 54.5449 275.866C54.5449 276.394 54.9733 276.823 55.5016 276.823Z" fill="white"/>
<path opacity="0.5" d="M56.3173 271.104C56.8455 271.104 57.2736 270.676 57.2736 270.148C57.2736 269.62 56.8455 269.191 56.3173 269.191C55.7892 269.191 55.3611 269.62 55.3611 270.148C55.3611 270.676 55.7892 271.104 56.3173 271.104Z" fill="white"/>
<path opacity="0.5" d="M51.7573 270.548C52.2856 270.548 52.714 270.12 52.714 269.591C52.714 269.063 52.2856 268.635 51.7573 268.635C51.2289 268.635 50.8005 269.063 50.8005 269.591C50.8005 270.12 51.2289 270.548 51.7573 270.548Z" fill="white"/>
<path opacity="0.5" d="M36.7817 283.712C37.3101 283.712 37.7384 283.284 37.7384 282.756C37.7384 282.227 37.3101 281.799 36.7817 281.799C36.2533 281.799 35.825 282.227 35.825 282.756C35.825 283.284 36.2533 283.712 36.7817 283.712Z" fill="white"/>
<path opacity="0.5" d="M13.6156 258.331C14.1443 258.331 14.5728 257.903 14.5728 257.374C14.5728 256.846 14.1443 256.417 13.6156 256.417C13.087 256.417 12.6584 256.846 12.6584 257.374C12.6584 257.903 13.087 258.331 13.6156 258.331Z" fill="white"/>
<path opacity="0.5" d="M1.43328 259.589C1.96166 259.589 2.39 259.161 2.39 258.633C2.39 258.104 1.96166 257.676 1.43328 257.676C0.9049 257.676 0.476562 258.104 0.476562 258.633C0.476562 259.161 0.9049 259.589 1.43328 259.589Z" fill="white"/>
<path opacity="0.5" d="M39.809 264.495C40.3374 264.495 40.7657 264.067 40.7657 263.539C40.7657 263.01 40.3374 262.582 39.809 262.582C39.2806 262.582 38.8523 263.01 38.8523 263.539C38.8523 264.067 39.2806 264.495 39.809 264.495Z" fill="white"/>
<path opacity="0.5" d="M51.5854 277.585C52.1135 277.585 52.5417 277.157 52.5417 276.629C52.5417 276.101 52.1135 275.673 51.5854 275.673C51.0573 275.673 50.6292 276.101 50.6292 276.629C50.6292 277.157 51.0573 277.585 51.5854 277.585Z" fill="white"/>
<path opacity="0.5" d="M48.4249 267.37C48.9898 267.37 49.4477 266.912 49.4477 266.347C49.4477 265.782 48.9898 265.324 48.4249 265.324C47.86 265.324 47.4021 265.782 47.4021 266.347C47.4021 266.912 47.86 267.37 48.4249 267.37Z" fill="white"/>
<path opacity="0.2" d="M10.3237 279.222C14.1976 279.222 17.3381 276.082 17.3381 272.208C17.3381 268.334 14.1976 265.193 10.3237 265.193C6.44977 265.193 3.30933 268.334 3.30933 272.208C3.30933 276.082 6.44977 279.222 10.3237 279.222Z" fill="white"/>
<path opacity="0.1" d="M33.8009 270.566C33.6607 264.905 28.9568 260.427 23.2948 260.567C17.6313 260.707 13.1543 265.411 13.2945 271.073C13.4346 276.737 18.1385 281.214 23.802 281.074C29.4635 280.933 33.941 276.23 33.8009 270.566Z" fill="white"/>
<path opacity="0.1" d="M45.3412 284.693C51.0053 284.693 55.597 280.102 55.597 274.437C55.597 268.773 51.0053 264.182 45.3412 264.182C39.6771 264.182 35.0854 268.773 35.0854 274.437C35.0854 280.102 39.6771 284.693 45.3412 284.693Z" fill="white"/>
<path opacity="0.1" d="M45.2174 269.458C45.0777 263.796 40.3733 259.318 34.7113 259.458C29.0483 259.599 24.5713 264.303 24.7109 269.965C24.8511 275.629 29.555 280.106 35.2184 279.966C40.8809 279.825 45.3575 275.122 45.2174 269.458Z" fill="white"/>
<path opacity="0.1" d="M1.36392 288.023C7.02829 288.023 11.6202 283.431 11.6202 277.767C11.6202 272.103 7.02829 267.511 1.36392 267.511C-4.30045 267.511 -8.89233 272.103 -8.89233 277.767C-8.89233 283.431 -4.30045 288.023 1.36392 288.023Z" fill="white"/>
<path opacity="0.1" d="M22.5453 282.617C22.4056 276.955 17.7012 272.477 12.0392 272.616C6.37623 272.757 1.89873 277.461 2.03936 283.123C2.17951 288.787 6.88342 293.264 12.5464 293.124C18.2084 292.984 22.685 288.28 22.5453 282.617Z" fill="white"/>
<path d="M208.356 132.584H201.819V152.579H208.356V132.584Z" fill="#0C0C0C"/>
<path d="M220.095 150.344C216.192 143.591 212.295 136.836 208.396 130.081C208.083 129.54 207.778 128.991 207.454 128.457C206.743 127.287 205.55 126.723 204.307 126.987C203.365 127.187 202.716 127.782 202.244 128.599C199.409 133.512 196.572 138.425 193.735 143.337C192.359 145.72 190.979 148.101 189.61 150.488C188.727 152.029 189.135 153.762 190.559 154.58C191.118 154.902 191.728 155.003 192.365 155.002C196.529 154.999 200.692 155.001 204.856 155.001C205.613 155.001 206.37 155.001 207.127 155.001C210.599 155 214.071 155.006 217.543 154.997C219.183 154.993 220.392 154.019 220.609 152.545C220.726 151.75 220.492 151.03 220.095 150.344ZM206.684 132.674L206.139 145.739H203.713L203.198 132.674H206.684ZM204.941 151.559C203.87 151.559 203.001 150.69 203.001 149.619C203.001 148.547 203.87 147.679 204.941 147.679C206.012 147.679 206.881 148.547 206.881 149.619C206.881 150.69 206.013 151.559 204.941 151.559Z" fill="#070707"/>
<path d="M218.667 149.683C215.131 143.563 211.6 137.443 208.067 131.322C207.783 130.832 207.507 130.335 207.213 129.851C206.57 128.791 205.488 128.28 204.362 128.519C203.509 128.7 202.92 129.239 202.493 129.979C199.924 134.431 197.353 138.883 194.783 143.333C193.536 145.493 192.286 147.65 191.045 149.813C190.245 151.209 190.614 152.779 191.904 153.521C192.411 153.813 192.963 153.904 193.541 153.903C197.314 153.9 201.086 153.902 204.859 153.902C205.545 153.902 206.231 153.902 206.917 153.902C210.063 153.901 213.209 153.907 216.355 153.899C217.841 153.895 218.937 153.012 219.133 151.677C219.239 150.956 219.027 150.304 218.667 149.683ZM206.516 133.672L206.021 145.51H203.824L203.357 133.672H206.516ZM204.936 150.783C203.966 150.783 203.179 149.996 203.179 149.026C203.179 148.055 203.966 147.268 204.936 147.268C205.907 147.268 206.694 148.055 206.694 149.026C206.694 149.996 205.907 150.783 204.936 150.783Z" fill="#F9E132"/>
<rect x="315.5" y="15.9561" width="45.0996" height="25" rx="12.5" fill="#969696" fill-opacity="0.3"/>
<path d="M323.611 33.582H322.791V24.6133L320.084 25.6182V24.8525L323.474 23.5947H323.611V33.582ZM333.571 29.4326C333.571 30.8363 333.314 31.9027 332.799 32.6318C332.284 33.3564 331.525 33.7188 330.522 33.7188C329.538 33.7188 328.784 33.3633 328.26 32.6523C327.735 31.9368 327.467 30.8978 327.453 29.5352V27.751C327.453 26.3519 327.713 25.2923 328.232 24.5723C328.752 23.8522 329.51 23.4922 330.509 23.4922C331.493 23.4922 332.245 23.8408 332.764 24.5381C333.284 25.2308 333.553 26.2539 333.571 27.6074V29.4326ZM332.751 27.6484C332.751 26.5091 332.564 25.6478 332.19 25.0645C331.821 24.4811 331.26 24.1895 330.509 24.1895C329.77 24.1895 329.214 24.4743 328.841 25.0439C328.467 25.6136 328.275 26.4544 328.266 27.5664V29.5215C328.266 30.6562 328.458 31.5244 328.841 32.126C329.228 32.7275 329.788 33.0283 330.522 33.0283C331.251 33.0283 331.803 32.7344 332.177 32.1465C332.555 31.5586 332.746 30.6973 332.751 29.5625V27.6484ZM335.348 34.4365H334.603L338.76 23.6289H339.498L335.348 34.4365ZM344.707 33.582H343.886V24.6133L341.179 25.6182V24.8525L344.57 23.5947H344.707V33.582ZM354.667 29.4326C354.667 30.8363 354.409 31.9027 353.894 32.6318C353.379 33.3564 352.621 33.7188 351.618 33.7188C350.634 33.7188 349.879 33.3633 349.355 32.6523C348.831 31.9368 348.562 30.8978 348.549 29.5352V27.751C348.549 26.3519 348.808 25.2923 349.328 24.5723C349.847 23.8522 350.606 23.4922 351.604 23.4922C352.589 23.4922 353.341 23.8408 353.86 24.5381C354.38 25.2308 354.649 26.2539 354.667 27.6074V29.4326ZM353.846 27.6484C353.846 26.5091 353.66 25.6478 353.286 25.0645C352.917 24.4811 352.356 24.1895 351.604 24.1895C350.866 24.1895 350.31 24.4743 349.936 25.0439C349.563 25.6136 349.371 26.4544 349.362 27.5664V29.5215C349.362 30.6562 349.553 31.5244 349.936 32.126C350.324 32.7275 350.884 33.0283 351.618 33.0283C352.347 33.0283 352.899 32.7344 353.272 32.1465C353.65 31.5586 353.842 30.6973 353.846 29.5625V27.6484Z" fill="black"/>
</g>
<defs>
<linearGradient id="paint0_linear" x1="184.484" y1="383.222" x2="184.484" y2="-3.96582" gradientUnits="userSpaceOnUse">
<stop offset="0.1511" stop-color="white"/>
<stop offset="1" stop-color="#4FC3F7"/>
</linearGradient>
<clipPath id="clip0">
<rect width="375" height="375" fill="white" transform="translate(0.5 0.956055)"/>
</clipPath>
</defs>
</svg>
