<svg width="376" height="376" viewBox="0 0 376 376" fill="none" xmlns="http://www.w3.org/2000/svg">
<g clip-path="url(#clip0)">
<path d="M-11.6875 -3.08691H382.81L381.277 387.629H-10.3098L-11.6875 -3.08691Z" fill="url(#paint0_linear)"/>
<path d="M326.681 209.364C326.681 206.257 324.163 203.739 321.056 203.739H318.547C315.44 203.739 312.922 206.257 312.922 209.364V233.746C312.922 236.853 315.44 239.371 318.547 239.371H321.056C324.163 239.371 326.681 236.853 326.681 233.746V209.364Z" fill="#3F3F3F"/>
<path d="M385.812 226.424H300.5V378.768H385.812V226.424Z" fill="#968E89"/>
<path d="M219.484 225.831L312.922 210.252H326.681L312.922 213.507H326.681" stroke="#753C15" stroke-width="3" stroke-miterlimit="10" stroke-linecap="round" stroke-linejoin="round"/>
<path d="M206.816 174.854C206.979 175.045 208.133 177.051 208.421 180.345C208.708 183.64 210.01 187.644 210.199 189.079C210.388 190.514 210.859 192.149 211.118 192.642C211.379 193.134 212.279 192.964 212.379 194.807C212.478 196.65 211.731 199.537 211.208 199.418C210.683 199.3 209.898 199.519 209.205 199.269C208.513 199.02 206.66 198.468 206.678 198.232C206.695 197.996 207.426 196.927 207.506 196.636C207.588 196.346 208.822 195.668 208.059 194.782C207.296 193.897 206.684 192.549 206.459 192.413C206.232 192.278 204.429 190.25 204.222 189.051C204.014 187.85 206.816 174.854 206.816 174.854Z" fill="#996234"/>
<path d="M207.736 209.497C207.736 209.497 209.191 212.943 208.664 215.202C208.137 217.461 208.158 218.229 208.139 219.646C208.119 221.064 207.69 224.71 207.153 226.614C206.615 228.519 204.261 237.254 204.485 238.902C204.708 240.549 203.76 243.109 203.503 243.174C203.247 243.241 200.777 243.602 200.649 243.251C200.521 242.9 200.426 239.533 200.515 238.468C200.603 237.403 200.929 232.195 200.531 230.61C200.131 229.027 199.747 225.848 200.038 224.658C200.33 223.468 201.321 220.901 201.397 219.363C201.471 217.825 200.497 209.386 200.497 209.386L207.736 209.497Z" fill="#996234"/>
<path d="M199.552 212.268C199.552 212.268 200.863 215.066 200.669 216.549C200.474 218.031 197.596 224.964 197.705 226.732C197.813 228.501 196.6 233.674 196.295 235.454C195.991 237.235 195.659 242.265 196.215 243.136C196.771 244.007 197.418 244.993 197.418 244.993C197.418 244.993 193.411 248.472 193.234 248.477C193.057 248.482 191.793 247.631 191.793 247.631C191.793 247.631 190.929 235.782 190.663 234.726C190.398 233.672 189.867 227.366 190.008 226.062C190.147 224.758 192.241 219.325 192.33 218.319C192.42 217.311 191.637 211.131 191.637 211.131L199.552 212.268Z" fill="#996234"/>
<path d="M206.253 188.216C206.253 188.216 209.614 196.45 209.508 198.994C209.402 201.536 209.245 210.755 209.245 210.755C209.245 210.755 206.619 211.833 204.252 211.663C201.885 211.494 201.163 211.007 200.934 211.274C200.705 211.539 200.92 213.613 200.92 213.613C200.92 213.613 201.827 213.622 197.753 213.677C193.678 213.732 192.311 213.999 191.606 214.137C190.901 214.275 190.224 214.137 190.224 214.137C190.224 214.137 190.441 209.924 189.765 208.997C189.09 208.071 188.518 202.417 187.804 200.133C187.09 197.849 186.082 195.583 186.676 191.486C187.27 187.389 187.757 185.781 187.757 185.781L206.253 188.216Z" fill="#EF45B7"/>
<path d="M202.134 153.063C202.134 153.063 202.385 154.991 201.557 154.896C200.726 154.801 195.027 150.137 193.898 149.873C192.768 149.61 188.666 150.788 187.451 151.708C186.236 152.628 182.979 156.5 182.629 158.813C182.28 161.127 181.858 162.91 181.858 162.91L185.302 167.776C185.302 167.776 186.865 175.056 186.788 180.728C186.71 186.401 188.539 187.726 188.539 187.726C188.539 187.726 202.669 191.453 206.967 188.852C206.99 186.852 208.001 187.339 207.543 185.757C207.085 184.175 206.712 185.604 206.834 183.652C206.957 181.699 206.466 170.49 206.746 169.951C207.027 169.411 207.732 169.332 207.82 166.14C207.908 162.947 207.887 162.181 207.406 159.772C206.924 157.364 208.286 157.444 206.283 155.551C204.281 153.658 202.134 153.063 202.134 153.063Z" fill="#8BC7E8"/>
<path d="M189.093 163.947C189.1 164.184 188.925 168.441 188.207 170.233C187.488 172.026 186.497 172.467 186.651 173.762C186.806 175.057 187.908 176.444 188.376 178.38C188.844 180.316 190.91 184.512 191.277 184.974C191.644 185.435 195.791 192.171 195.976 192.462C196.161 192.753 197.343 194.845 197.438 196.143C197.533 197.44 197.624 198.559 197.515 198.916C197.407 199.274 196.345 199.303 195.815 199.377C195.286 199.451 194.588 199.825 194.458 199.415C194.328 199.006 193.421 198.263 193.236 197.973C193.051 197.682 192.126 196.291 191.946 196.237C191.768 196.183 190.872 195.795 190.803 195.501C190.736 195.208 190.215 193.45 190.088 193.159C189.962 192.867 189.876 189.797 188.976 189.292C188.076 188.785 183.004 180.657 182.629 179.9C182.253 179.142 181.27 175.685 181.145 175.452C181.021 175.219 181.372 164.577 182.092 162.844C182.812 161.111 189.093 163.947 189.093 163.947Z" fill="#996234"/>
<path d="M194.653 149.955C194.865 150.018 196.355 148.084 196.268 147.455C196.866 145.178 195.53 140.736 196.395 139.168C197.264 137.601 195.483 134.498 197.562 133.599C199.643 132.699 202.401 130.935 203.478 131.746C204.553 132.558 207.143 134.869 207.238 135.779C207.334 136.689 207.803 138.43 207.366 140.335C206.928 142.24 207.563 143.164 207.55 145.198C206.466 146.121 206.398 149.046 205.789 149.835C205.181 150.62 204.267 149.93 203.081 150.244C201.898 150.558 202.832 154.004 202.291 154.72C201.751 155.434 195.113 153.868 195.176 151.131C194.63 150.227 194.653 149.955 194.653 149.955Z" fill="#996234"/>
<path d="M198.132 146.366C198.132 146.366 194.974 146.455 195.086 145.468C195.197 144.484 195.408 142.793 194.986 142.385C194.565 141.975 193.284 141.242 193.67 140.036C194.058 138.833 194.527 138.117 194.216 137.004C193.904 135.892 194.159 134.972 195.054 134.386C195.95 133.8 197.272 133.161 198.306 132.643C199.339 132.125 200.523 131.638 201.708 131.394C202.89 131.15 204.271 130.27 205.283 131.294C206.294 132.318 206.995 132.298 207.295 132.99C207.595 133.683 207.224 132.923 207.69 134.593C208.157 136.264 208.555 136.697 208.019 137.624C207.165 138.589 207.4 136.776 206.908 136.719C206.414 136.664 208.642 135.829 207.334 136.707C206.025 137.587 204.539 137.348 202.565 136.981C200.591 136.616 199.503 135.524 198.967 137.574C198.43 139.625 199.747 139.236 200.043 140.842C201.216 142.903 200.108 143.154 200.108 143.154C200.108 143.154 199.981 142.385 199.218 142.549C198.449 142.712 198.314 142.854 198.407 143.693C198.5 144.532 198.949 145.502 198.815 145.788C198.682 146.07 198.132 146.366 198.132 146.366Z" fill="#301705"/>
<path d="M7.24137 260.47L-78.876 260.638L-68.3896 284.685C-63.4443 284.825 55.8686 289.182 94.8817 287.762C96.8523 287.691 104.492 287.821 106.032 287.766C116.049 287.401 123.729 287.736 133.008 287.317C141.287 287.73 149.091 287.652 156.69 287.373C165.566 287.051 172.839 285.86 179.595 283.626C208.949 273.917 220.04 262.175 228.953 252.741C230.362 251.247 231.692 249.841 233.031 248.508C233.13 248.405 233.225 248.307 233.332 248.205C193.809 269.043 139.684 272.03 100.742 274.556C94.4912 274.965 88.3825 275.928 82.5901 276.138C49.1321 277.355 27.969 276.928 27.6845 276.909L26.1076 275.738L7.24137 260.47Z" fill="white" stroke="white" stroke-miterlimit="10"/>
<path d="M101.958 278.299C141.067 275.764 195.372 268.003 234.871 246.947L235.451 246.377C241.271 240.477 243.863 236.723 245.556 234.126C246.395 232.845 246.999 231.918 247.694 231.228C248.611 230.314 250.133 229.197 251.174 228.486C244.937 229.352 220.734 231.456 184.029 230.931C163.843 230.644 119.964 232.734 68.0895 237.83C-4.11581 244.926 -52.7275 254.232 -77.8994 261.37L4.41168 263.044L24.5876 278.715C26.3445 278.834 60.53 280.993 101.958 278.299Z" fill="#FF0000"/>
<path d="M68.0481 211.959C67.6726 211.263 67.3726 210.741 67.1326 210.349C67.0121 210.154 66.9067 209.991 66.8153 209.853C66.354 209.174 66.2115 209.177 66.1243 209.179L65.8815 209.343C65.7699 209.569 65.6476 209.814 65.5046 210.069C65.4085 210.238 65.3082 210.414 65.199 210.594C65.1442 210.682 65.0893 210.774 65.0349 210.864C63.5326 213.227 60.999 216.031 59.402 215.673C58.6407 215.499 58.1706 215.006 57.9568 214.156C57.9282 214.057 57.9118 213.952 57.894 213.847C57.8785 213.737 57.8617 213.626 57.857 213.509C57.6474 210.455 60.1515 204.37 63.5912 200.422C64.1223 199.814 64.674 199.258 65.2403 198.77C65.5567 198.499 65.9157 198.221 66.2959 197.984C66.909 197.605 67.5774 197.325 68.2084 197.333C68.446 197.336 68.6771 197.381 68.9031 197.475C69.2593 197.623 69.5031 197.888 69.646 198.283C69.7402 198.544 69.7834 198.846 69.7946 199.17C69.8542 201.452 68.0406 204.994 68.0162 205.037L67.8817 205.3L71.0837 206.097L68.0481 211.959ZM68.027 200.663C68.0045 200.314 67.9093 200.028 67.7045 199.842C67.667 199.803 67.6229 199.768 67.5742 199.738C67.4513 199.664 67.3135 199.629 67.1631 199.634C67.0585 199.638 66.9502 199.664 66.8256 199.715C65.9865 200.051 64.8095 201.413 63.6395 203.151L63.5818 203.089L63.5232 203.024L62.514 204.939C62.0092 205.792 61.531 206.676 61.1059 207.533C60.3967 208.965 59.8402 210.321 59.5679 211.333C59.416 211.91 59.3565 212.373 59.3879 212.723C59.3949 212.811 59.4137 212.892 59.4301 212.966C59.4868 213.188 59.5974 213.348 59.7582 213.447C59.8295 213.491 59.9073 213.508 59.9912 213.506C60.9615 213.468 63.9652 209.55 65.2013 207.643C65.2459 207.569 65.2895 207.504 65.3312 207.437C65.4085 207.308 65.4831 207.191 65.5374 207.088C65.6012 206.986 65.6462 206.898 65.6748 206.825C65.7127 206.763 65.7559 206.687 65.8131 206.591C65.8684 206.5 65.9251 206.392 65.9912 206.274C66.7121 204.966 68.1188 202.199 68.027 200.663Z" fill="black"/>
<path d="M87.4037 180.869C86.078 180.422 81.5288 180.548 80.1657 180.598C79.9674 180.606 79.8118 180.612 79.6969 180.615L77.8243 193.448L77.0363 193.756L76.2521 194.064L67.8165 212.144L67.4546 217.202L68.9869 221.022L73.8061 220.974C74.0321 217.977 75.3437 207.23 75.3755 207.169C76.3135 205.396 82.4415 203.52 83.6082 203.215C83.6476 203.204 83.6804 203.195 83.7071 203.19C83.8271 203.149 83.9532 203.111 84.0826 203.073C84.4027 202.976 84.7454 202.878 85.1063 202.78C85.2497 202.741 85.3951 202.699 85.5441 202.662C86.0227 202.536 86.5238 202.411 87.0441 202.288C87.1674 202.259 87.2883 202.232 87.4126 202.202C87.6497 202.145 87.8893 202.089 88.1302 202.036C91.9266 201.174 96.3062 200.298 97.5544 200.079C94.1972 192.664 88.5104 181.254 87.4037 180.869Z" fill="#3FA9F5"/>
<path d="M63.6907 203.891C63.5149 204.153 63.3448 204.421 63.1746 204.694L62.3027 206.352L64.5443 206.742L64.482 206.986C64.4815 206.992 64.4473 207.15 64.4552 207.35C64.4609 207.466 64.4848 207.597 64.541 207.719C64.8391 207.261 65.0726 206.874 65.1888 206.615C65.4026 206.248 65.6196 205.854 65.8343 205.445C65.7991 205.475 65.7621 205.502 65.7181 205.514C65.7031 205.517 65.6866 205.521 65.6623 205.523C65.5038 205.534 65.0946 205.399 63.6907 203.891Z" fill="black"/>
<path d="M65.8144 206.593C65.761 206.688 65.7164 206.765 65.6784 206.828C65.6494 206.9 65.6039 206.986 65.5416 207.091C65.483 207.196 65.4113 207.31 65.3349 207.44C65.2936 207.505 65.2505 207.574 65.205 207.645C63.9703 209.553 60.968 213.472 59.9949 213.508C59.9124 213.511 59.8285 213.491 59.7638 213.45C59.5969 213.35 59.4905 213.189 59.4333 212.968C59.4136 212.895 59.3991 212.812 59.3916 212.726C59.3602 212.376 59.4244 211.915 59.572 211.336C59.8435 210.322 60.3999 208.966 61.1138 207.536C61.5338 206.68 62.0199 205.793 62.5191 204.942L63.5274 203.028L63.5855 203.09L63.6445 203.152C64.8131 201.418 65.9883 200.052 66.8302 199.715C66.9506 199.667 67.0627 199.639 67.1681 199.635C67.3233 199.63 67.4578 199.665 67.5783 199.741C67.627 199.772 67.672 199.805 67.7109 199.844C67.913 200.032 68.0095 200.318 68.032 200.666C68.1197 202.2 66.7172 204.971 65.9916 206.276C65.925 206.394 65.8674 206.501 65.8144 206.593ZM59.9864 211.454C59.6625 212.682 59.8294 212.975 59.895 213.031C60.6699 212.856 62.917 210.082 64.2488 208.141C63.9811 207.814 63.9605 207.388 63.9853 207.125L61.9716 206.775C61.0814 208.444 60.3328 210.132 59.9864 211.454ZM63.173 204.695L62.2992 206.354L64.5394 206.744L64.4803 206.985C64.4785 206.989 64.4433 207.151 64.4527 207.349C64.4583 207.465 64.4864 207.597 64.538 207.718C64.8366 207.261 65.07 206.874 65.1863 206.614C65.3986 206.247 65.6161 205.854 65.8313 205.444C65.7975 205.475 65.7605 205.499 65.7145 205.513C65.6991 205.517 65.685 205.521 65.6597 205.523C65.5003 205.533 65.092 205.399 63.6797 203.892C63.5142 204.152 63.3436 204.42 63.173 204.695ZM67.3285 200.138C67.2919 200.113 67.238 200.102 67.1799 200.104C66.5222 200.128 65.258 201.558 63.9492 203.491C64.5666 204.146 65.2538 204.81 65.55 205.003C65.7024 204.754 66.0047 204.646 66.2597 204.609C67.2403 202.598 67.9678 200.531 67.3285 200.138Z" fill="black"/>
<path d="M212.707 228.131C222.098 227.585 246.196 228.704 251.982 224.606C251.536 224.531 251.035 224.122 250.412 224.133C250.412 224.133 218.25 218.698 195.369 216.319C193.907 216.169 192.571 216.08 191.402 215.98C176.293 214.677 108.728 213.145 108.042 213.131L107.922 213.127L107.851 213.021C107.638 212.695 102.705 205.008 102.126 204.019C101.845 203.539 101.818 202.879 101.789 202.179C101.756 201.368 101.722 200.528 101.252 200.129C100.821 199.762 99.8824 199.586 98.6018 199.631C98.1476 199.648 97.8241 199.688 97.8209 199.688L97.6526 199.711L97.6263 199.655C96.1015 199.92 87.7891 201.399 83.8291 202.667C81.5777 203.246 75.6424 205.069 75.2159 206.456C74.6688 208.231 73.4585 219.861 73.4417 219.97L73.4454 220.772L69.0228 220.933L67.4862 217.124L57.2993 218.325L40.804 220.427L40.714 219.9C41.8338 219.649 42.072 219.244 42.1657 217.674C42.1929 217.184 41.8371 216.492 41.1851 215.806C40.1266 214.691 38.2127 213.487 36.5299 213.497C35.9674 213.5 35.0027 213.46 33.7826 213.417C31.309 213.325 27.9274 213.197 25.1618 213.298C22.1548 213.409 21.0963 213.753 20.7434 214.023C20.2643 214.388 20.0281 214.775 20.0295 215.167C20.0374 215.844 20.7537 216.377 20.7598 216.384L21.2248 216.724L16.2579 217.414L16.1895 219.847L-7.73413 222.053L-9.12679 224.847L-37.4191 225.957L-50.5343 229.668L-50.291 244.803L-57.5257 247.782L-57.5665 247.798L-75.281 248.131L-79.2363 250.751L-78.7774 258.038C-47.2516 250.628 17.5587 239.327 80.809 233.96C165.251 226.789 203.315 228.678 212.707 228.131Z" fill="white"/>
<path d="M251.981 224.605C245.543 227.141 222.484 226.957 213.093 227.504C203.699 228.05 165.782 225.953 81.3401 233.119C18.0912 238.487 -47.1227 250.598 -78.7638 258.012L-78.7629 258.034L-78.9378 258.11C-80.7331 259.338 -81.6692 260.139 -81.7343 260.562C-81.7573 260.677 -81.7137 260.76 -81.5984 260.903C-81.5496 260.965 -81.5112 261.025 -81.4779 261.09C-81.3785 261.201 -80.6271 261.383 -78.5267 261.335L-77.426 261.062C-52.3024 254.829 -6.84214 245.876 67.0924 238.61C118.981 233.513 162.595 231.521 182.797 231.81C221.852 232.369 247.054 229.088 251.173 228.483C252.093 227.685 252.423 227.421 252.453 227.405C253.466 227.067 254.068 226.441 253.966 225.842C253.885 225.36 253.302 224.825 251.981 224.605Z" fill="white"/>
<path d="M19.9265 216.942C19.9265 216.942 17.4234 214.219 21.7837 213.14C24.9768 212.35 34.4624 213.004 37.0218 213.045C39.5812 213.088 42.561 216.616 42.3656 218.26C42.1982 219.664 41.9732 221.202 39.5966 220.522C37.2182 219.841 37.5107 218.04 36.1781 217.936C34.844 217.83 21.0595 217.076 19.9265 216.942Z" fill="#C99B59"/>
<path d="M142.273 225.853V223.268C142.273 221.606 140.928 220.417 139.265 220.417H139.091C137.428 220.417 136.083 221.604 136.083 223.268V225.78C133.761 226.634 131.945 228.928 131.945 231.248H146.407C146.41 228.929 144.594 226.755 142.273 225.853ZM139.179 223.96C138.561 223.96 138.06 223.459 138.06 222.84C138.06 222.222 138.561 221.721 139.179 221.721C139.796 221.721 140.298 222.222 140.298 222.84C140.298 223.459 139.796 223.96 139.179 223.96Z" fill="#283C8E"/>
<path d="M136.084 261.219V263.215C136.084 264.878 137.429 266.066 139.092 266.066H139.266C140.929 266.066 142.274 264.879 142.274 263.215V261.051C144.596 260.158 146.16 258.329 146.385 256.007H131.97C132.174 258.329 133.763 260.422 136.084 261.219ZM139.179 262.01C139.796 262.01 140.298 262.511 140.298 263.129C140.298 263.746 139.796 264.247 139.179 264.247C138.561 264.247 138.06 263.747 138.06 263.129C138.059 262.511 138.561 262.01 139.179 262.01Z" fill="#283C8E"/>
<path d="M146.142 231.25H132.216V255.379C132.216 255.556 131.956 256.008 131.97 256.008H146.385C146.401 256.008 146.143 255.555 146.143 255.379L146.142 231.25Z" fill="#CCCCCE"/>
<path d="M16.9364 225.853V223.268C16.9364 221.606 15.5921 220.417 13.928 220.417H13.7555C12.091 220.417 10.7466 221.604 10.7466 223.268V225.78C8.4258 226.634 6.60986 228.928 6.60986 231.248H21.0727C21.0736 228.929 19.2577 226.755 16.9364 225.853ZM13.8417 223.96C13.2239 223.96 12.7228 223.459 12.7228 222.84C12.7228 222.222 13.2235 221.721 13.8417 221.721C14.46 221.721 14.9606 222.222 14.9606 222.84C14.9606 223.459 14.46 223.96 13.8417 223.96Z" fill="#283C8E"/>
<path d="M10.7471 261.219V263.215C10.7471 264.878 12.0914 266.066 13.756 266.066H13.928C15.5925 266.066 16.9369 264.879 16.9369 263.215V261.051C19.2581 260.158 20.8219 258.329 21.0469 256.007H6.6333C6.83674 258.329 8.42627 260.422 10.7471 261.219ZM13.8417 262.01C14.46 262.01 14.9606 262.511 14.9606 263.129C14.9606 263.746 14.46 264.247 13.8417 264.247C13.2239 264.247 12.7228 263.747 12.7228 263.129C12.7228 262.511 13.2239 262.01 13.8417 262.01Z" fill="#283C8E"/>
<path d="M20.8051 231.25H6.8785V255.379C6.8785 255.556 6.61881 256.008 6.63288 256.008H21.0465C21.0629 256.008 20.8051 255.555 20.8051 255.379V231.25Z" fill="#CCCCCE"/>
<path opacity="0.6" d="M-12.4951 272.917L385.825 272.485L386.31 396.619H-12.4951V272.917Z" fill="#33EFFF"/>
<path d="M353.693 213.363C353.422 213.44 351.795 212.588 351.911 214.486C352.028 216.383 352.337 217.003 351.64 217.584C350.943 218.164 350.905 217.971 350.014 218.823C349.123 219.675 348.426 219.636 348.193 220.256C347.961 220.876 347.457 221.806 346.683 221.96C345.909 222.115 342.733 221.689 341.803 222.115C340.874 222.541 340.409 223.084 340.177 224.09C339.944 225.097 339.828 225.795 339.983 225.795C340.138 225.795 341.919 227.499 346.799 227.305C346.799 227.305 353.609 226.585 355.242 226.182C355.45 226.13 355.24 226.853 355.24 226.853L360.353 226.57C360.353 226.57 360.625 226.453 360.353 224.672C360.083 222.89 360.237 221.961 359.811 221.031C359.386 220.102 358.805 219.404 358.921 218.63C359.037 217.856 358.844 216.655 358.921 216.035C358.998 215.416 359.037 214.951 358.921 214.137C358.805 213.325 356.752 212.782 356.752 212.782L353.693 213.363Z" fill="#332B25"/>
<path d="M339.192 137.496C339.192 137.496 329.305 128.526 329.212 128.423C329.12 128.32 328.141 126.972 327.973 126.67C327.805 126.368 327.761 126.065 327.821 125.73C327.881 125.395 327.578 124.539 327.449 124.294C327.321 124.049 327.313 123.196 327.26 122.878C327.206 122.559 326.25 121.216 326.084 120.976C325.917 120.736 325.679 119.793 325.575 119.614C325.471 119.435 325.289 118.925 324.827 119.381C323.911 120.286 325.316 122.43 325.247 122.541C325.178 122.652 325.275 123.142 325.158 122.973C325.04 122.804 324.398 122.525 324.294 122.555C324.19 122.586 323.649 121.924 323.072 121.669C322.703 121.11 319.768 118.904 319.405 118.864C319.042 118.823 318.854 118.974 318.849 119.313C318.843 119.651 320.687 121.068 320.687 121.068C320.687 121.068 321.676 122.205 321.561 122.16C321.445 122.114 320.603 121.189 320.511 121.086C320.419 120.983 319.762 120.581 319.584 120.371C319.406 120.16 318.505 119.406 318.11 119.199C317.715 118.992 317.437 119.374 317.419 119.679C317.401 119.985 318.227 120.54 318.295 120.639C318.364 120.737 318.562 121.024 318.774 121.206C318.979 121.382 319.534 121.848 319.534 121.848C319.534 121.848 320.917 123.419 320.766 123.215C320.618 123.016 318.978 121.65 318.817 121.448C318.655 121.246 318.219 120.859 317.903 120.556C317.587 120.252 317.191 120.674 317.241 121.016C317.29 121.358 317.849 121.681 318.261 122.273C318.674 122.866 318.982 123.069 319.149 123.309C319.315 123.548 320.37 124.553 320.37 124.553C320.37 124.553 319.339 123.86 319.206 123.751C319.102 123.666 318.457 122.975 318.311 122.825C318.165 122.676 318.005 122.481 317.697 122.875C317.383 123.386 319.134 124.972 319.335 125.23C319.536 125.488 319.681 125.681 320.407 126.2C321.693 127.899 324.238 129.121 324.545 129.201C324.851 129.281 325.174 129.684 325.398 129.946C325.398 129.946 324.944 129.376 335.273 141.084L339.192 137.496Z" fill="#F9DBBD"/>
<path d="M344.602 98.7199C345.125 98.3711 346.868 97.6741 347.594 97.9647C348.32 98.2553 352.909 97.7322 353.838 99.475C354.767 101.218 355.581 102.873 354.593 104.994C353.606 107.114 352.705 107.956 352.386 109.466C352.066 110.977 352.502 113.91 352.502 113.91L346.926 116.699C346.926 116.699 345.967 116.553 345.618 116.147C345.27 115.74 344.428 115.276 344.428 114.579C344.428 113.882 344.486 113.214 344.079 112.894C343.673 112.574 341.552 112.952 341.029 111.906C340.507 110.861 340.565 110.193 340.797 109.06C341.029 107.927 341.153 107.143 340.626 106.736C340.1 106.33 339.606 106.039 339.954 105.516C340.303 104.994 341.959 104.122 342.278 103.425C342.598 102.728 342.162 102.554 342.424 101.857C342.685 101.16 344.602 98.7199 344.602 98.7199Z" fill="#F9DBBD"/>
<path d="M344.05 98.7774C344.05 98.8646 345.299 98.4001 345.996 98.7774C346.693 99.1552 347.797 98.9808 347.448 100.607C347.1 102.234 347.216 103.715 347.274 103.802C347.332 103.89 347.129 104.499 347.187 104.616C347.245 104.732 347.942 105.284 348.087 105.255C348.233 105.226 349.104 104.209 349.104 104.209C349.104 104.209 349.772 103.976 350.44 104.034C351.108 104.093 351.835 103.802 351.863 104.79C351.892 105.777 352.038 105.893 351.689 106.3C351.341 106.707 350.324 107.52 350.585 107.636C350.847 107.753 351.312 107.782 351.457 108.101C351.602 108.42 352.096 109.524 352.067 109.815C352.038 110.105 351.837 110.773 352.068 110.773C352.299 110.773 353.374 111.412 353.49 111.354C353.606 111.296 353.81 109.931 354.129 109.582C354.448 109.233 356.772 106.841 356.917 105.67C357.063 104.499 356.975 104.151 356.685 103.337C356.395 102.524 356.539 101.565 355.842 100.433C355.145 99.3001 353.141 97.4991 352.241 97.1504C351.34 96.8016 350.033 97.8183 349.249 97.7893C348.464 97.7602 348.552 97.0632 347.593 96.7726C346.635 96.4819 345.298 96.2208 344.921 96.6273C344.544 97.0337 343.411 97.3824 343.614 97.9055C343.818 98.4287 344.05 98.7774 344.05 98.7774Z" fill="#5B4838"/>
<path d="M356.598 149.927C356.598 149.927 359.502 155.968 358.921 159.802C358.341 163.636 357.411 164.45 357.411 167.703C357.411 170.956 358.34 184.2 357.411 186.524C356.482 188.848 355.436 188.615 356.83 190.358C358.224 192.101 359.242 196.283 359.023 197.561C358.805 198.839 358.509 200.698 359.528 203.951C360.548 207.204 362.407 205.81 360.664 209.877C358.921 213.943 355.784 215.221 352.764 213.711C349.743 212.201 349.037 210.574 349.39 208.831C349.743 207.088 350.324 204.068 349.86 202.557C349.395 201.047 349.568 199.537 349.307 196.516C349.046 193.495 347.07 195.006 345.85 191.752C344.631 188.499 344.98 187.105 345.329 186.176C345.677 185.246 344.748 181.528 344.05 177.81C343.353 174.092 342.191 173.511 342.191 169.329C342.191 165.147 340.448 167.354 340.1 163.288C339.751 159.221 339.171 158.873 340.1 156.665C341.029 154.458 341.727 151.437 341.727 151.437C341.727 151.437 348.572 148.416 349.39 148.648C350.208 148.88 356.598 149.927 356.598 149.927Z" fill="#2A2866"/>
<path d="M342.772 124.715C343.353 122.856 341.377 121.694 342.772 120.881C344.166 120.068 346.256 119.719 345.85 118.557C345.444 117.396 345.212 116.234 346.954 115.304C348.696 114.375 347.999 113.213 349.858 112.981C351.718 112.748 352.879 111.005 353.344 112.981C353.809 114.956 356.248 117.047 357.295 119.603C358.34 122.159 359.502 130.989 359.386 133.312C359.27 135.636 359.75 143.536 359.394 146.092C359.038 148.648 357.527 150.391 356.249 150.739C354.971 151.088 349.046 150.042 347.187 150.739C345.328 151.437 343.469 152.25 341.727 151.437C339.984 150.623 339.054 150.274 339.287 148.3C339.519 146.325 339.17 144.233 339.751 143.188C340.332 142.142 342.307 130.64 342.424 130.292C342.539 129.943 342.772 124.715 342.772 124.715Z" fill="#374FAA"/>
<path d="M346.901 120.849C347.458 119.816 354.693 118.6 352.88 124.948C351.021 131.454 349.973 131.57 345.85 136.101C341.726 140.632 340.681 142.026 338.706 142.258C336.73 142.491 334.755 142.839 334.058 141.329C333.361 139.819 332.78 138.773 331.502 138.076C330.224 137.379 329.295 136.682 327.9 134.126C326.506 131.57 325.809 129.362 328.597 129.246C331.386 129.13 331.734 129.519 334.174 131.474C336.614 133.428 338.786 132.377 339.251 130.872C339.716 129.368 346.888 120.873 346.901 120.849Z" fill="#2A2866"/>
<rect x="315.5" y="15.9561" width="44.0746" height="25" rx="12.5" fill="#969696" fill-opacity="0.3"/>
<path d="M327.483 33.582H326.663V24.6133L323.956 25.6182V24.8525L327.346 23.5947H327.483V33.582ZM331.455 34.4365H330.709L334.866 23.6289H335.604L331.455 34.4365ZM340.813 33.582H339.993V24.6133L337.286 25.6182V24.8525L340.676 23.5947H340.813V33.582ZM350.773 29.4326C350.773 30.8363 350.515 31.9027 350 32.6318C349.486 33.3564 348.727 33.7188 347.724 33.7188C346.74 33.7188 345.986 33.3633 345.461 32.6523C344.937 31.9368 344.668 30.8978 344.655 29.5352V27.751C344.655 26.3519 344.915 25.2923 345.434 24.5723C345.954 23.8522 346.712 23.4922 347.71 23.4922C348.695 23.4922 349.447 23.8408 349.966 24.5381C350.486 25.2308 350.755 26.2539 350.773 27.6074V29.4326ZM349.953 27.6484C349.953 26.5091 349.766 25.6478 349.392 25.0645C349.023 24.4811 348.462 24.1895 347.71 24.1895C346.972 24.1895 346.416 24.4743 346.042 25.0439C345.669 25.6136 345.477 26.4544 345.468 27.5664V29.5215C345.468 30.6562 345.66 31.5244 346.042 32.126C346.43 32.7275 346.99 33.0283 347.724 33.0283C348.453 33.0283 349.005 32.7344 349.378 32.1465C349.757 31.5586 349.948 30.6973 349.953 29.5625V27.6484Z" fill="black"/>
</g>
<defs>
<linearGradient id="paint0_linear" x1="185.561" y1="387.629" x2="185.561" y2="-3.08691" gradientUnits="userSpaceOnUse">
<stop offset="0.1511" stop-color="white"/>
<stop offset="1" stop-color="#4FC3F7"/>
</linearGradient>
<clipPath id="clip0">
<rect width="375" height="375" fill="white" transform="translate(0.5 0.956055)"/>
</clipPath>
</defs>
</svg>
