<svg width="376" height="376" viewBox="0 0 376 376" fill="none" xmlns="http://www.w3.org/2000/svg">
<g clip-path="url(#clip0)">
<path d="M-19.0684 -3.33398H408.697L407.035 387.382H-17.5745L-19.0684 -3.33398Z" fill="url(#paint0_linear)"/>
<path d="M352.568 209.117C352.568 206.01 350.05 203.492 346.943 203.492H344.434C341.327 203.492 338.809 206.01 338.809 209.117V233.499C338.809 236.606 341.327 239.124 344.434 239.124H346.943C350.05 239.124 352.568 236.606 352.568 233.499V209.117Z" fill="#3F3F3F"/>
<path d="M411.699 226.178H326.387V378.521H411.699V226.178Z" fill="#968E89"/>
<path d="M245.371 225.585L338.809 210.006H352.568L338.809 213.261H352.568" stroke="#753C15" stroke-width="3" stroke-miterlimit="10" stroke-linecap="round" stroke-linejoin="round"/>
<path d="M193.268 121.15C193.707 120.717 195.251 119.721 196.003 119.864C196.756 120.008 201.072 118.645 202.291 120.147C203.512 121.649 204.603 123.087 204.051 125.312C203.498 127.536 202.791 128.515 202.769 130.026C202.742 131.539 203.712 134.278 203.712 134.278L198.873 138.003C198.873 138.003 197.925 138.043 197.513 137.716C197.103 137.391 196.206 137.102 196.075 136.431C195.945 135.76 195.876 135.107 195.426 134.877C194.973 134.646 193.005 135.406 192.305 134.499C191.606 133.592 191.537 132.939 191.549 131.805C191.561 130.672 191.53 129.895 190.953 129.602C190.368 129.31 189.841 129.123 190.078 128.555C190.315 127.988 191.743 126.84 191.922 126.109C192.097 125.379 191.646 125.294 191.765 124.575C191.881 123.856 193.268 121.15 193.268 121.15Z" fill="#F9DBBD"/>
<path d="M192.749 121.31C192.764 121.394 193.881 120.713 194.622 120.946C195.363 121.178 196.391 120.804 196.362 122.433C196.332 124.062 196.721 125.464 196.795 125.537C196.868 125.61 196.786 126.233 196.861 126.335C196.94 126.437 197.713 126.837 197.847 126.782C197.981 126.726 198.629 125.586 198.629 125.586C198.629 125.586 199.229 125.237 199.88 125.167C200.534 125.098 201.179 124.683 201.394 125.627C201.606 126.571 201.766 126.657 201.509 127.112C201.249 127.568 200.425 128.541 200.698 128.603C200.972 128.667 201.423 128.607 201.622 128.887C201.821 129.168 202.503 130.136 202.528 130.422C202.555 130.706 202.487 131.387 202.71 131.343C202.932 131.3 204.084 131.713 204.187 131.635C204.287 131.557 204.23 130.206 204.469 129.811C204.712 129.416 206.496 126.68 206.417 125.528C206.336 124.374 206.19 124.055 205.756 123.328C205.325 122.601 205.287 121.652 204.404 120.693C203.522 119.734 201.258 118.378 200.327 118.212C199.395 118.045 198.333 119.267 197.57 119.386C196.811 119.505 196.764 118.82 195.787 118.718C194.811 118.619 193.477 118.617 193.192 119.079C192.907 119.54 191.882 120.088 192.177 120.553C192.46 121.018 192.749 121.31 192.749 121.31Z" fill="#5B4838"/>
<path d="M203.969 234.174H209.122C209.122 234.174 209.324 238.822 209.425 239.074C209.527 239.327 204.525 239.933 204.374 239.984C204.222 240.034 203.969 234.174 203.969 234.174Z" fill="#F9DBBD"/>
<path d="M207.481 169.382C207.481 169.382 210.327 175.3 209.756 179.056C209.188 182.812 208.278 183.609 208.278 186.798C208.278 189.985 209.19 202.957 208.278 205.233C207.368 207.509 206.343 207.281 207.709 208.989C209.076 210.696 210.072 214.794 209.858 216.045C209.644 217.298 209.354 219.12 210.353 222.305C210.487 228.818 212.876 229.382 211.172 233.365C209.464 237.349 207.637 237.522 204.677 236.043C201.718 234.564 201.151 232.649 201.497 230.94C201.839 229.235 201.336 222.419 200.882 220.937C200.426 219.459 200.593 217.978 200.339 215.019C200.082 212.06 198.149 213.539 196.953 210.353C195.758 207.167 196.104 205.8 196.441 204.888C196.783 203.98 195.873 200.337 195.191 196.692C194.507 193.05 193.368 192.484 193.368 188.385C193.368 184.286 191.662 186.452 191.318 182.465C190.977 178.483 190.409 178.139 191.318 175.977C192.23 173.818 192.912 170.859 192.912 170.859C192.912 170.859 199.62 167.899 200.422 168.127C201.221 168.357 207.481 169.382 207.481 169.382Z" fill="#2A2866"/>
<path d="M193.681 147.16C193.829 144.947 197.211 140.501 196.81 139.351C196.409 138.201 198.182 136.215 200.177 135.035C201.779 134.306 203.878 132.033 204.121 134.3C204.581 136.255 207.105 137.856 208.141 140.386C209.176 142.917 210.327 151.659 210.211 153.959C210.097 156.259 210.572 164.081 210.219 166.612C209.866 169.143 208.372 170.868 207.106 171.213C205.841 171.558 199.974 170.522 198.134 171.213C196.293 171.903 194.453 172.707 192.728 171.903C191.003 171.098 190.715 170.017 190.944 168.062C191.175 166.106 190.9 164.057 191.475 163.022C192.05 161.987 193.303 151.314 193.418 150.97C193.532 150.622 193.681 147.16 193.681 147.16Z" fill="#EDEDED"/>
<path d="M205.94 158.651C205.94 158.538 205.712 150.049 205.712 150.049C205.712 150.049 204.045 149.141 203.932 148.988C203.817 148.837 199.957 148.988 199.957 148.988C199.957 148.988 199.612 155.884 199.634 155.973C199.658 156.061 199.877 159.56 199.933 159.674C199.989 159.788 199.933 161.986 199.933 161.986L199.688 165.547L199.668 165.544C199.668 165.544 199.656 165.829 199.635 166.303L199.635 166.308C199.517 169.097 199.112 178.63 199.094 178.744C199.075 178.879 198.674 180.46 198.552 180.777C198.43 181.092 198.23 181.316 197.937 181.48C197.648 181.644 197.193 182.41 197.091 182.658C196.987 182.909 196.348 183.452 196.144 183.688C195.938 183.928 195.526 185.493 195.449 185.769C195.375 186.041 194.813 186.815 194.743 187.002C194.675 187.193 194.402 187.648 195.033 187.713C196.289 187.835 197.023 185.432 197.15 185.418C197.277 185.401 197.584 185.021 197.53 185.215C197.478 185.405 197.669 186.063 197.758 186.126C197.846 186.185 197.688 187.008 197.858 187.602C197.669 188.23 197.848 191.823 198.046 192.122C198.241 192.42 198.473 192.466 198.734 192.258C198.992 192.05 198.9 189.774 198.9 189.774C198.9 189.774 199.138 188.317 199.171 188.432C199.212 188.546 199.043 189.758 199.023 189.896C199.006 190.03 199.113 190.775 199.065 191.042C199.018 191.307 199.016 192.46 199.108 192.886C199.197 193.314 199.661 193.282 199.903 193.106C200.143 192.926 200.043 191.957 200.076 191.844C200.106 191.73 200.197 191.402 200.201 191.128C200.207 190.862 200.21 190.153 200.21 190.153C200.21 190.153 200.375 189.091 200.444 188.599C200.408 189.207 200.401 190.736 200.359 190.946C200.308 191.192 200.29 191.767 200.259 192.194C200.23 192.623 200.797 192.656 201.023 192.404C201.248 192.153 201.14 191.53 201.327 190.85C201.516 190.168 201.474 189.807 201.551 189.532C201.627 189.256 201.722 187.835 201.722 187.835C201.722 187.835 201.847 189.045 201.849 189.212C201.85 189.343 201.734 190.261 201.712 190.463C201.69 190.668 201.645 190.909 202.132 190.893C202.713 190.809 202.809 188.498 202.877 188.185C202.945 187.871 203 187.641 202.936 186.768C203.408 184.735 202.733 182.055 202.601 181.775C202.47 181.495 202.57 180.997 202.626 180.664C202.626 180.664 202.483 181.362 204.819 166.251L204.815 166.25C204.833 166.167 204.84 166.092 204.819 166.043C204.722 165.816 205.485 162.102 205.522 161.723C205.557 161.342 205.94 158.765 205.94 158.651Z" fill="#F9DBBD"/>
<path d="M199.257 141.452C199.345 140.294 205.402 136.284 206.315 142.755C206.939 146.913 206.199 147.533 206.046 151.043C205.943 153.366 197.69 150.752 197.504 149.204C197.319 147.657 199.254 141.479 199.257 141.452Z" fill="#EFEFEF"/>
<path d="M74.8565 171.052C72.3463 170.627 73.2777 170.852 74.8565 171.052V171.052Z" fill="#996234"/>
<path d="M103.484 165.843C103.173 166.055 102.742 166.317 102.579 166.471C102.441 166.6 101.281 167.257 100.83 167.553C101.175 167.276 101.895 166.673 101.895 166.673C101.895 166.673 102.438 166.367 102.638 166.247C102.846 166.126 103.05 165.901 103.122 165.824C103.192 165.746 103.988 165.421 104.001 165.121C104.011 164.822 103.795 164.381 103.42 164.481C103.046 164.579 102.163 165.074 101.984 165.233C101.805 165.392 101.178 165.612 101.085 165.686C100.99 165.762 100.147 166.44 100.04 166.453C99.9322 166.469 100.927 165.625 100.927 165.625C100.927 165.625 102.719 164.729 102.744 164.401C102.771 164.072 102.615 163.878 102.285 163.824C101.953 163.77 99.1054 165.147 98.7215 165.592C98.1777 165.69 97.6293 166.191 97.5383 166.134C97.4455 166.079 96.8418 166.183 96.7218 166.315C96.6013 166.449 96.7335 166.001 96.6805 165.875C96.6276 165.751 98.0882 164.04 97.3443 162.932C96.9683 162.375 96.7593 162.821 96.6486 162.966C96.5404 163.112 96.239 163.963 96.0688 164.149C95.8972 164.339 94.9115 165.392 94.8341 165.685C94.7577 165.978 94.6729 166.799 94.5346 167.004C94.3968 167.206 94.0447 167.956 94.0691 168.294C94.0949 168.633 94.0255 168.915 93.8479 169.163C93.6674 169.412 92.6633 170.463 92.5686 170.538C92.5002 170.594 87.8638 173.109 85.5561 174.359C85.2922 173.801 84.8507 172.242 84.6693 170.864C84.4804 169.429 83.1777 165.425 82.8908 162.13C82.603 158.836 81.4494 156.83 81.2854 156.64C81.2854 156.64 78.4836 169.635 78.6922 170.836C78.7954 171.433 76.4863 171.256 74.8564 171.05C74.9554 171.067 75.0486 171.082 75.1588 171.101C75.3838 171.237 77.5663 175.45 78.3299 176.336C79.093 177.221 80.1589 178.311 80.0779 178.601C79.9972 178.892 81.1644 179.782 81.1475 180.017C81.1297 180.253 82.9827 180.806 83.6755 181.054C84.3683 181.303 85.153 181.085 85.6775 181.203C85.7005 181.208 85.7286 181.202 85.7572 181.197L85.7582 181.201C85.7596 181.2 85.7629 181.198 85.7643 181.197C85.9471 181.165 86.2363 180.948 86.5565 180.61C88.5158 179.155 93.245 175.636 93.245 175.636C94.0105 175.246 96.4283 172.484 96.711 172.485C96.9946 172.486 99.3988 171.959 100.714 170.649C101.416 170.335 101.565 170.186 101.77 169.987C101.975 169.79 103.698 168.708 103.461 168.133C103.22 167.674 103.057 167.821 102.912 167.928C102.766 168.035 102.123 168.537 102.022 168.592C101.893 168.663 100.899 169.067 100.899 169.067C100.899 169.067 101.941 168.369 102.113 168.18C102.284 167.991 102.583 167.875 103.008 167.407C103.431 166.941 103.967 166.773 104.042 166.456C104.117 166.141 103.798 165.632 103.484 165.843Z" fill="#996234"/>
<path d="M83.4688 206.875C83.4688 206.875 84.9238 210.321 84.3964 212.579C83.8695 214.838 83.8906 215.606 83.8714 217.023C83.8517 218.441 83.4228 222.087 82.8852 223.991C82.3475 225.895 79.9939 234.63 80.2175 236.278C80.4411 237.927 79.4923 240.486 79.2359 240.551C78.98 240.618 76.5092 240.978 76.3813 240.627C76.2533 240.276 76.1572 236.909 76.2472 235.845C76.3353 234.78 76.6616 229.571 76.2631 227.986C75.8628 226.403 75.4784 223.225 75.77 222.035C76.062 220.845 77.053 218.276 77.1284 216.739C77.203 215.202 76.2289 206.763 76.2289 206.763L83.4688 206.875Z" fill="#996234"/>
<path d="M75.2848 209.645C75.2848 209.645 76.5964 212.443 76.4023 213.925C76.2073 215.407 73.3282 222.34 73.4384 224.11C73.5462 225.877 72.3335 231.052 72.0289 232.831C71.7242 234.612 71.3928 239.641 71.9487 240.513C72.5042 241.383 73.1496 242.37 73.1496 242.37C73.1496 242.37 69.1428 245.849 68.966 245.854C68.7889 245.86 67.5246 245.009 67.5246 245.009C67.5246 245.009 66.6612 233.16 66.395 232.104C66.131 231.049 65.6 224.743 65.7406 223.44C65.8803 222.137 67.9737 216.703 68.0632 215.697C68.1518 214.69 67.3695 208.509 67.3695 208.509L75.2848 209.645Z" fill="#996234"/>
<path d="M81.9856 185.594C81.9856 185.594 85.347 193.827 85.2406 196.371C85.1347 198.913 84.9772 208.133 84.9772 208.133C84.9772 208.133 82.3508 209.21 79.9845 209.041C77.6173 208.872 76.895 208.386 76.6658 208.652C76.4375 208.917 76.6536 210.991 76.6536 210.991C76.6536 210.991 77.5601 211 73.4848 211.054C69.4114 211.11 68.044 211.377 67.3395 211.515C66.634 211.653 65.9576 211.515 65.9576 211.515C65.9576 211.515 66.1737 207.302 65.4983 206.374C64.8242 205.448 64.2514 199.794 63.5375 197.511C62.8236 195.227 61.8148 192.96 62.4092 188.864C63.004 184.767 63.4897 183.159 63.4897 183.159L81.9856 185.594Z" fill="#EF45B7"/>
<path d="M77.8669 150.44C77.8669 150.44 78.1186 152.368 77.2898 152.273C76.4597 152.178 70.7597 147.514 69.6309 147.25C68.5008 146.987 64.3992 148.164 63.1842 149.085C61.9692 150.005 58.7118 153.877 58.3626 156.19C58.0134 158.504 57.5911 160.287 57.5911 160.287L61.0354 165.152C61.0354 165.152 62.5983 172.433 62.5214 178.105C62.4436 183.779 64.2722 185.103 64.2722 185.103C64.2722 185.103 78.4031 188.83 82.6997 186.228C82.7226 184.229 83.7337 184.716 83.2758 183.133C82.8169 181.551 82.4451 182.981 82.5665 181.028C82.6898 179.075 82.199 167.867 82.4784 167.327C82.7578 166.787 83.4647 166.709 83.5523 163.517C83.6405 160.323 83.6194 159.557 83.1379 157.149C82.6565 154.741 84.0183 154.82 82.0148 152.927C80.0137 151.034 77.8669 150.44 77.8669 150.44Z" fill="#8BC7E8"/>
<path d="M64.8261 161.325C64.8331 161.561 64.6573 165.819 63.9392 167.611C63.2211 169.403 62.2297 169.844 62.3839 171.139C62.5386 172.435 63.6411 173.821 64.1084 175.758C64.5762 177.694 66.6425 181.889 67.01 182.351C67.377 182.812 71.5236 189.548 71.7078 189.839C71.8934 190.13 73.0742 192.222 73.1698 193.521C73.265 194.818 73.3555 195.936 73.2472 196.294C73.1398 196.652 72.0767 196.681 71.547 196.755C71.0178 196.827 70.3194 197.202 70.1895 196.792C70.0597 196.383 69.1526 195.64 68.968 195.35C68.7828 195.06 67.8575 193.668 67.678 193.615C67.4998 193.561 66.6036 193.173 66.5351 192.88C66.4667 192.586 65.9459 190.828 65.8198 190.537C65.6928 190.245 65.608 187.175 64.7075 186.67C63.8075 186.163 58.7361 178.036 58.3611 177.278C57.9847 176.521 57.0022 173.063 56.877 172.83C56.7523 172.598 57.1039 161.956 57.8244 160.222C58.5448 158.489 64.8261 161.325 64.8261 161.325Z" fill="#996234"/>
<path d="M70.3869 147.333C70.5983 147.396 72.088 145.462 72.0003 144.833C72.5989 142.556 71.263 138.114 72.1273 136.546C72.9964 134.979 71.2156 131.876 73.2941 130.977C75.3744 130.077 78.133 128.313 79.2102 129.124C80.285 129.936 82.8744 132.247 82.97 133.157C83.0656 134.067 83.5353 135.807 83.098 137.713C82.6587 139.618 83.2948 140.542 83.2817 142.576C82.198 143.499 82.1305 146.424 81.5206 147.213C80.9131 147.998 79.9986 147.308 78.8131 147.622C77.6314 147.936 78.5637 151.382 78.0228 152.098C77.4828 152.811 70.8453 151.246 70.9067 148.509C70.363 147.604 70.3869 147.333 70.3869 147.333Z" fill="#996234"/>
<path d="M73.8651 143.744C73.8651 143.744 70.7066 143.833 70.8187 142.846C70.9288 141.862 71.1407 140.171 70.7193 139.763C70.2984 139.353 69.0163 138.62 69.4016 137.414C69.7898 136.211 70.259 135.495 69.9477 134.382C69.6365 133.27 69.8905 132.35 70.7859 131.764C71.6816 131.178 73.0035 130.539 74.038 130.021C75.0712 129.503 76.2548 129.015 77.4402 128.772C78.6219 128.528 80.0033 127.648 81.0149 128.672C82.026 129.696 82.7258 129.676 83.0273 130.368C83.3268 131.061 82.956 130.301 83.4219 131.971C83.8893 133.641 84.2873 134.075 83.7505 135.002C82.8969 135.967 83.1323 134.154 82.6401 134.097C82.146 134.042 84.374 133.207 83.0657 134.085C81.7569 134.965 80.2715 134.726 78.2971 134.359C76.3227 133.994 75.2352 132.902 74.6976 134.952C74.1613 137.003 75.478 136.614 75.7752 138.22C76.9476 140.28 75.8404 140.532 75.8404 140.532C75.8404 140.532 75.7134 139.762 74.9498 139.927C74.181 140.09 74.046 140.232 74.1393 141.071C74.2316 141.91 74.6802 142.88 74.5466 143.166C74.4149 143.448 73.8651 143.744 73.8651 143.744Z" fill="#301705"/>
<path d="M33.1283 260.222L-52.989 260.39L-42.5026 284.437C-37.5573 284.577 81.7555 288.934 120.769 287.514C122.739 287.443 130.379 287.573 131.919 287.518C141.936 287.153 149.616 287.488 158.896 287.069C167.174 287.482 174.979 287.404 182.578 287.125C191.453 286.802 198.727 285.611 205.482 283.378C234.837 273.668 245.927 261.927 254.841 252.491C256.25 250.997 257.58 249.591 258.918 248.26C259.017 248.157 259.112 248.058 259.22 247.957C219.696 268.795 165.572 271.782 126.629 274.309C120.379 274.717 114.27 275.681 108.478 275.89C75.0196 277.109 53.8565 276.681 53.5719 276.661L51.995 275.49L33.1283 260.222Z" fill="white" stroke="white" stroke-miterlimit="10"/>
<path d="M127.844 278.05C166.954 275.516 221.259 267.755 260.758 246.698L261.337 246.129C267.157 240.229 269.748 236.474 271.443 233.876C272.282 232.597 272.885 231.668 273.581 230.978C274.498 230.064 276.02 228.948 277.061 228.235C270.823 229.102 246.621 231.205 209.917 230.681C189.732 230.394 145.852 232.485 93.9776 237.581C21.7719 244.677 -26.8398 253.983 -52.0117 261.121L30.2994 262.795L50.4753 278.466C52.2312 278.586 86.4167 280.745 127.844 278.05Z" fill="#FF0000"/>
<path d="M93.935 211.711C93.5596 211.016 93.2596 210.493 93.0196 210.1C92.8991 209.906 92.7936 209.743 92.7022 209.604C92.241 208.926 92.0985 208.929 92.0113 208.93L91.7685 209.094C91.6569 209.321 91.5346 209.566 91.3916 209.822C91.2955 209.99 91.1952 210.166 91.086 210.346C91.0311 210.434 90.9763 210.527 90.9219 210.616C89.4196 212.979 86.886 215.783 85.2889 215.425C84.5277 215.252 84.0575 214.758 83.8438 213.909C83.8152 213.811 83.7988 213.704 83.781 213.601C83.7655 213.492 83.7486 213.379 83.7439 213.262C83.5344 210.207 86.0385 204.123 89.4772 200.175C90.0083 199.568 90.561 199.012 91.1277 198.524C91.4441 198.252 91.8017 197.975 92.1833 197.738C92.7964 197.357 93.4649 197.078 94.0958 197.085C94.3335 197.09 94.5646 197.134 94.7896 197.229C95.1458 197.375 95.3896 197.641 95.5325 198.036C95.6268 198.299 95.6699 198.599 95.6811 198.924C95.7407 201.205 93.9271 204.749 93.9027 204.791L93.7682 205.055L96.9702 205.852L93.935 211.711ZM93.9139 200.415C93.8914 200.066 93.7963 199.78 93.5914 199.594C93.5539 199.554 93.5099 199.52 93.4611 199.49C93.3383 199.416 93.2005 199.381 93.05 199.385C92.9455 199.39 92.8372 199.415 92.7125 199.467C91.8735 199.802 90.6964 201.163 89.5264 202.901L89.4688 202.839L89.4102 202.774L88.401 204.69C87.8961 205.543 87.418 206.427 86.9928 207.284C86.2836 208.716 85.7272 210.07 85.4549 211.082C85.303 211.659 85.2435 212.123 85.2749 212.473C85.2819 212.561 85.3006 212.642 85.3171 212.717C85.3738 212.938 85.4844 213.098 85.6452 213.196C85.7164 213.241 85.7942 213.259 85.8781 213.255C86.8485 213.219 89.8522 209.3 91.0883 207.392C91.1328 207.32 91.1764 207.253 91.2182 207.187C91.2955 207.058 91.37 206.941 91.4244 206.838C91.4882 206.735 91.5332 206.648 91.5617 206.574C91.5997 206.513 91.6428 206.436 91.7 206.34C91.7553 206.251 91.8121 206.141 91.8782 206.023C92.5991 204.718 94.0058 201.951 93.9139 200.415Z" fill="black"/>
<path d="M113.291 180.621C111.965 180.174 107.416 180.3 106.053 180.35C105.855 180.358 105.699 180.364 105.584 180.367L103.711 193.2L102.924 193.507L102.139 193.814L93.7037 211.894L93.3418 216.952L94.8741 220.771L99.6934 220.723C99.9193 217.725 101.231 206.979 101.263 206.919C102.201 205.145 108.329 203.269 109.495 202.964C109.535 202.953 109.568 202.945 109.594 202.938C109.714 202.897 109.84 202.858 109.97 202.82C110.29 202.723 110.633 202.626 110.994 202.527C111.137 202.488 111.282 202.447 111.431 202.41C111.91 202.284 112.411 202.159 112.931 202.036C113.055 202.007 113.176 201.979 113.3 201.95C113.537 201.893 113.776 201.836 114.017 201.784C117.814 200.921 122.192 200.045 123.441 199.827C120.084 192.416 114.398 181.006 113.291 180.621Z" fill="#3FA9F5"/>
<path d="M89.5777 203.642C89.4019 203.905 89.2317 204.172 89.0616 204.445L88.1897 206.103L90.4313 206.493L90.3689 206.737C90.3684 206.743 90.3342 206.902 90.3422 207.1C90.3478 207.216 90.3717 207.347 90.428 207.469C90.7261 207.011 90.9595 206.624 91.0758 206.365C91.2895 205.999 91.5066 205.605 91.7213 205.196C91.6861 205.225 91.6491 205.253 91.605 205.264C91.59 205.268 91.5736 205.273 91.5492 205.274C91.3908 205.285 90.9816 205.151 89.5777 203.642Z" fill="black"/>
<path d="M91.7011 206.345C91.6477 206.439 91.6031 206.517 91.5652 206.579C91.5361 206.651 91.4906 206.738 91.4283 206.842C91.3697 206.948 91.298 207.061 91.2216 207.191C91.1803 207.256 91.1372 207.325 91.0917 207.396C89.8571 209.304 86.8547 213.225 85.8816 213.261C85.7991 213.264 85.7152 213.244 85.6505 213.203C85.4846 213.102 85.3772 212.941 85.32 212.721C85.3003 212.648 85.2858 212.565 85.2783 212.479C85.2469 212.129 85.3111 211.668 85.4588 211.088C85.7302 210.073 86.2866 208.717 87.0005 207.289C87.4205 206.433 87.9066 205.546 88.4058 204.695L89.4141 202.781L89.4722 202.843L89.5313 202.906C90.6999 201.172 91.875 199.806 92.7169 199.469C92.8374 199.421 92.9494 199.393 93.0549 199.388C93.21 199.383 93.3446 199.418 93.465 199.496C93.5138 199.525 93.5588 199.559 93.5977 199.598C93.7997 199.787 93.8963 200.072 93.9188 200.42C94.0064 201.954 92.6039 204.725 91.8783 206.03C91.8117 206.146 91.7541 206.253 91.7011 206.345ZM85.8731 211.205C85.5492 212.432 85.7161 212.725 85.7817 212.781C86.5566 212.606 88.8038 209.832 90.1355 207.891C89.8678 207.564 89.8472 207.138 89.872 206.875L87.8583 206.525C86.9681 208.196 86.2196 209.884 85.8731 211.205ZM89.0597 204.447L88.186 206.106L90.4261 206.496L90.367 206.738C90.3652 206.742 90.33 206.904 90.3394 207.1C90.345 207.217 90.3731 207.348 90.4247 207.47C90.7233 207.012 90.9567 206.625 91.073 206.367C91.2853 206 91.5028 205.606 91.718 205.197C91.6842 205.226 91.6472 205.252 91.6013 205.265C91.5858 205.269 91.5717 205.274 91.5464 205.275C91.3871 205.285 90.9788 205.15 89.5664 203.644C89.401 203.903 89.2303 204.171 89.0597 204.447ZM93.2152 199.89C93.1786 199.865 93.1247 199.853 93.0666 199.856C92.4089 199.881 91.1447 201.311 89.836 203.244C90.4533 203.898 91.1405 204.562 91.4367 204.755C91.5891 204.507 91.8914 204.399 92.1464 204.362C93.1271 202.349 93.8546 200.283 93.2152 199.89Z" fill="black"/>
<path d="M238.594 227.883C247.985 227.337 272.083 228.458 277.869 224.358C277.423 224.283 276.921 223.874 276.298 223.885C276.298 223.885 244.137 218.451 221.254 216.071C219.794 215.921 218.457 215.831 217.288 215.731C202.18 214.429 134.613 212.896 133.927 212.882L133.807 212.878L133.736 212.772C133.524 212.446 128.591 204.758 128.012 203.77C127.731 203.29 127.704 202.628 127.675 201.93C127.642 201.119 127.608 200.279 127.137 199.88C126.707 199.513 125.768 199.337 124.488 199.382C124.033 199.399 123.71 199.439 123.707 199.439L123.538 199.462L123.512 199.408C121.987 199.671 113.675 201.151 109.715 202.42C107.463 202.997 101.528 204.82 101.102 206.208C100.555 207.984 99.3443 219.613 99.3274 219.722L99.3311 220.525L94.9085 220.686L93.3719 216.877L83.185 218.077L66.6897 220.18L66.5997 219.652C67.7196 219.401 67.9577 218.996 68.0514 217.426C68.08 216.937 67.7229 216.244 67.0708 215.559C66.0124 214.443 64.0985 213.241 62.4156 213.249C61.8531 213.252 60.8885 213.212 59.6683 213.169C57.1947 213.077 53.8132 212.949 51.0475 213.05C48.0405 213.161 46.9821 213.505 46.6291 213.775C46.15 214.141 45.9138 214.527 45.9152 214.919C45.9232 215.595 46.6394 216.129 46.6455 216.136L47.1105 216.476L42.1436 217.167L42.0752 219.6L18.1516 221.806L16.7589 224.599L-11.5334 225.709L-24.6486 229.42L-24.4053 244.555L-31.64 247.534L-31.6807 247.549L-49.3953 247.882L-53.3506 250.503L-52.8917 257.79C-21.3659 250.379 43.4444 239.08 106.695 233.712C191.138 226.541 229.202 228.43 238.594 227.883Z" fill="white"/>
<path d="M277.868 224.358C271.43 226.894 248.371 226.71 238.98 227.257C229.586 227.803 191.669 225.706 107.227 232.872C43.9781 238.24 -21.2358 250.351 -52.8769 257.765L-52.8759 257.787L-53.0508 257.863C-54.8461 259.091 -55.7822 259.892 -55.8474 260.315C-55.8703 260.43 -55.8267 260.513 -55.7114 260.656C-55.6627 260.718 -55.6242 260.78 -55.5909 260.843C-55.4916 260.954 -54.7402 261.136 -52.6397 261.087L-51.5391 260.815C-26.4155 254.581 19.0448 245.629 92.9794 238.364C144.868 233.267 188.482 231.275 208.684 231.563C247.738 232.121 272.941 228.84 277.06 228.235C277.98 227.438 278.31 227.173 278.339 227.157C279.352 226.819 279.953 226.193 279.853 225.594C279.772 225.113 279.189 224.578 277.868 224.358Z" fill="white"/>
<path d="M45.8137 216.694C45.8137 216.694 43.3106 213.971 47.6709 212.894C50.864 212.102 60.3496 212.757 62.909 212.798C65.4684 212.841 68.4482 216.369 68.2528 218.013C68.0854 219.417 67.8604 220.955 65.4839 220.275C63.1054 219.594 63.3979 217.793 62.0653 217.687C60.7312 217.582 46.9467 216.828 45.8137 216.694Z" fill="#C99B59"/>
<path d="M168.16 225.604V223.018C168.16 221.356 166.815 220.167 165.152 220.167H164.978C163.315 220.167 161.969 221.354 161.969 223.018V225.53C159.648 226.384 157.832 228.678 157.832 230.998H172.294C172.297 228.681 170.481 226.507 168.16 225.604ZM165.066 223.711C164.449 223.711 163.947 223.21 163.947 222.59C163.947 221.974 164.448 221.471 165.066 221.471C165.683 221.471 166.185 221.972 166.185 222.59C166.184 223.21 165.683 223.711 165.066 223.711Z" fill="#283C8E"/>
<path d="M161.971 260.97V262.967C161.971 264.63 163.316 265.819 164.979 265.819H165.153C166.816 265.819 168.161 264.632 168.161 262.967V260.803C170.482 259.91 172.046 258.08 172.271 255.758H157.857C158.06 258.08 159.649 260.173 161.971 260.97ZM165.065 261.761C165.683 261.761 166.185 262.262 166.185 262.88C166.185 263.497 165.684 263.998 165.065 263.998C164.448 263.998 163.946 263.499 163.946 262.88C163.946 262.262 164.448 261.761 165.065 261.761Z" fill="#283C8E"/>
<path d="M172.029 231.002H158.103V255.131C158.103 255.308 157.843 255.762 157.857 255.762H172.272C172.288 255.762 172.03 255.307 172.03 255.131L172.029 231.002Z" fill="#CCCCCE"/>
<path d="M42.8234 225.604V223.018C42.8234 221.356 41.479 220.167 39.815 220.167H39.6424C37.9779 220.167 36.6335 221.354 36.6335 223.018V225.53C34.3128 226.384 32.4968 228.678 32.4968 230.998H46.9596C46.9606 228.681 45.1446 226.507 42.8234 225.604ZM39.7287 223.711C39.1109 223.711 38.6098 223.21 38.6098 222.59C38.6098 221.974 39.1104 221.471 39.7287 221.471C40.347 221.471 40.8476 221.972 40.8476 222.59C40.8476 223.21 40.347 223.711 39.7287 223.711Z" fill="#283C8E"/>
<path d="M36.634 260.97V262.967C36.634 264.63 37.9784 265.819 39.6429 265.819H39.815C41.4795 265.819 42.8239 264.632 42.8239 262.967V260.803C45.1451 259.91 46.7089 258.08 46.9339 255.758H32.5203C32.7237 258.08 34.3132 260.173 36.634 260.97ZM39.7287 261.761C40.347 261.761 40.8476 262.262 40.8476 262.88C40.8476 263.497 40.347 263.998 39.7287 263.998C39.1109 263.998 38.6098 263.499 38.6098 262.88C38.6098 262.262 39.1109 261.761 39.7287 261.761Z" fill="#283C8E"/>
<path d="M46.692 231.002H32.7655V255.131C32.7655 255.308 32.5058 255.762 32.5198 255.762H46.9334C46.9498 255.762 46.692 255.307 46.692 255.131V231.002Z" fill="#CCCCCE"/>
<path opacity="0.6" d="M-19.0684 272.67L411.673 272.238L412.197 396.372H-19.0684V272.67Z" fill="#33EFFF"/>
<rect x="315.137" y="15.709" width="38.9496" height="25" rx="12.5" fill="#969696" fill-opacity="0.3"/>
<path d="M329.667 22.3066V23.0244H329.571C328.381 23.0244 327.445 23.3753 326.761 24.0771C326.078 24.7744 325.699 25.7451 325.626 26.9893C325.9 26.611 326.249 26.3193 326.672 26.1143C327.096 25.9046 327.57 25.7998 328.094 25.7998C328.969 25.7998 329.664 26.1029 330.179 26.709C330.699 27.3105 330.958 28.099 330.958 29.0742C330.958 29.7214 330.838 30.3047 330.596 30.8242C330.355 31.3438 330.008 31.7493 329.557 32.041C329.106 32.3281 328.591 32.4717 328.012 32.4717C327.06 32.4717 326.285 32.1276 325.688 31.4395C325.091 30.7467 324.792 29.8535 324.792 28.7598V27.9395C324.792 26.1576 325.198 24.779 326.009 23.8037C326.82 22.8239 327.971 22.3249 329.461 22.3066H329.667ZM327.964 26.5039C327.445 26.5039 326.959 26.6589 326.508 26.9688C326.062 27.2741 325.763 27.6637 325.613 28.1377V28.835C325.613 29.7008 325.834 30.4072 326.276 30.9541C326.722 31.501 327.301 31.7744 328.012 31.7744C328.65 31.7744 329.165 31.5215 329.557 31.0156C329.954 30.5098 330.152 29.8717 330.152 29.1016C330.152 28.3177 329.954 27.6888 329.557 27.2148C329.165 26.7409 328.634 26.5039 327.964 26.5039ZM332.62 33.1895H331.875L336.031 22.3818H336.769L332.62 33.1895ZM342.997 22.3066V23.0244H342.901C341.711 23.0244 340.775 23.3753 340.091 24.0771C339.408 24.7744 339.029 25.7451 338.957 26.9893C339.23 26.611 339.579 26.3193 340.002 26.1143C340.426 25.9046 340.9 25.7998 341.424 25.7998C342.299 25.7998 342.994 26.1029 343.509 26.709C344.029 27.3105 344.289 28.099 344.289 29.0742C344.289 29.7214 344.168 30.3047 343.926 30.8242C343.685 31.3438 343.338 31.7493 342.887 32.041C342.436 32.3281 341.921 32.4717 341.342 32.4717C340.39 32.4717 339.615 32.1276 339.018 31.4395C338.421 30.7467 338.123 29.8535 338.123 28.7598V27.9395C338.123 26.1576 338.528 24.779 339.339 23.8037C340.151 22.8239 341.301 22.3249 342.792 22.3066H342.997ZM341.294 26.5039C340.775 26.5039 340.29 26.6589 339.838 26.9688C339.392 27.2741 339.093 27.6637 338.943 28.1377V28.835C338.943 29.7008 339.164 30.4072 339.606 30.9541C340.053 31.501 340.631 31.7744 341.342 31.7744C341.98 31.7744 342.495 31.5215 342.887 31.0156C343.284 30.5098 343.482 29.8717 343.482 29.1016C343.482 28.3177 343.284 27.6888 342.887 27.2148C342.495 26.7409 341.964 26.5039 341.294 26.5039Z" fill="black"/>
</g>
<defs>
<linearGradient id="paint0_linear" x1="194.815" y1="387.382" x2="194.815" y2="-3.33398" gradientUnits="userSpaceOnUse">
<stop offset="0.1511" stop-color="white"/>
<stop offset="1" stop-color="#4FC3F7"/>
</linearGradient>
<clipPath id="clip0">
<rect width="375" height="375" fill="white" transform="translate(0.136719 0.708984)"/>
</clipPath>
</defs>
</svg>
