<svg width="376" height="376" viewBox="0 0 376 376" fill="none" xmlns="http://www.w3.org/2000/svg">
<g clip-path="url(#clip0)">
<path d="M-35.7725 -2.81445H400.165L398.024 384.373H-35.6309L-35.7725 -2.81445Z" fill="url(#paint0_linear)"/>
<path d="M106.29 226.124C107.009 227.312 107.968 234.955 106.692 236.622C105.417 238.289 101.258 240.255 100.629 240.328C99.9992 240.401 103.605 257.854 103.605 257.854C103.605 257.854 104.045 271.342 102.849 272.53C101.656 273.718 92.975 280.305 91.2823 280.443C89.5892 280.583 86.5461 280.733 86.0811 279.94C85.6222 279.144 87.6565 275.398 87.6786 275.02C87.7325 274.108 87.8928 271.569 87.7465 271.019C87.604 270.468 86.6844 266.239 86.2915 265.438C85.8992 264.633 78.5947 265.464 77.7636 265.646C76.932 265.829 76.8711 264.838 76.8711 264.838C77.825 262.358 84.4775 258.263 84.4775 258.263C84.4775 258.263 82.3212 254.915 80.6492 253.071C78.9795 251.225 75.5811 239.628 74.3389 234.607C73.099 229.587 75.6908 222.985 76.6072 222.735C90.3673 218.975 105.562 224.937 106.29 226.124Z" fill="#36627A"/>
<path d="M85.6143 269.442C84.7827 268.55 82.9954 267.98 81.6374 268.232C80.2813 268.484 80.421 268.463 79.9194 269.78C79.4174 271.095 83.0118 270.514 83.8743 270.826C84.7344 271.138 83.6779 272.025 83.5283 271.978C83.3797 271.931 80.4618 272.387 80.4618 272.387L80.6104 275.495C80.6104 275.495 84.419 274.741 84.666 275.244C84.9158 275.745 82.7122 277.358 81.5704 278.686C80.4252 280.015 81.7771 280.262 83.7018 279.186C85.6274 278.108 86.7261 274.861 86.7261 274.861C86.7261 274.861 87.2563 274.825 88.0218 274.688C88.7882 274.55 88.3396 273.328 88.3518 272.344C88.363 271.362 88.0133 270.874 87.9177 270.695C87.8226 270.517 86.3769 270.901 86.3769 270.901C86.3769 270.901 86.443 270.335 85.6143 269.442Z" fill="#6C808C"/>
<path d="M151.63 245.793L90.8442 247.273L98.6274 264.08C102.12 264.102 186.409 265.291 213.924 263.672C215.315 263.59 220.71 263.562 221.796 263.498C228.86 263.081 234.287 263.196 240.829 262.754C246.68 262.915 252.187 262.735 257.548 262.42C263.807 262.05 268.923 261.095 273.656 259.412C294.224 252.094 301.867 243.631 308.008 236.829C308.979 235.754 309.895 234.739 310.82 233.778C310.889 233.705 310.954 233.632 311.026 233.559C283.458 248.893 245.301 251.858 217.853 254.257C213.448 254.643 209.151 255.42 205.065 255.66C181.468 257.05 166.522 257.081 166.321 257.073L165.189 256.272L151.63 245.793Z" fill="white" stroke="white" stroke-miterlimit="10"/>
<path d="M218.769 256.878C246.336 254.469 284.546 248.134 312.094 232.644L312.494 232.232C316.508 227.976 318.28 225.286 319.432 223.426C320.005 222.508 320.416 221.844 320.895 221.345C321.528 220.686 322.586 219.874 323.309 219.355C318.92 220.066 301.869 221.934 275.951 222.145C261.698 222.261 230.758 224.43 194.222 228.85C143.367 235 109.2 242.337 91.5449 247.774L149.673 247.653L164.163 258.396C165.404 258.452 189.569 259.435 218.769 256.878Z" fill="#FF0000"/>
<path d="M193.783 210.588C193.508 210.103 193.287 209.739 193.112 209.465C193.024 209.33 192.946 209.217 192.88 209.122C192.543 208.65 192.442 208.654 192.382 208.657L192.213 208.776C192.139 208.938 192.057 209.113 191.959 209.294C191.893 209.416 191.826 209.54 191.751 209.671C191.714 209.732 191.677 209.799 191.64 209.862C190.618 211.554 188.874 213.574 187.74 213.346C187.2 213.238 186.861 212.894 186.696 212.298C186.674 212.229 186.66 212.155 186.647 212.082C186.634 212.004 186.62 211.926 186.615 211.842C186.418 209.691 188.091 205.355 190.456 202.515C190.82 202.077 191.202 201.676 191.593 201.324C191.813 201.127 192.062 200.925 192.326 200.752C192.752 200.474 193.22 200.266 193.664 200.262C193.832 200.26 193.997 200.289 194.158 200.35C194.412 200.449 194.587 200.633 194.695 200.91C194.765 201.091 194.801 201.302 194.814 201.532C194.893 203.142 193.669 205.67 193.651 205.701L193.561 205.889L195.834 206.402L193.783 210.588ZM193.59 202.614C193.569 202.368 193.497 202.168 193.349 202.038C193.322 202.012 193.29 201.99 193.255 201.969C193.168 201.919 193.07 201.897 192.964 201.902C192.89 201.907 192.815 201.927 192.727 201.964C192.139 202.213 191.33 203.196 190.532 204.44L190.49 204.397L190.448 204.352L189.765 205.719C189.423 206.329 189.098 206.96 188.812 207.572C188.334 208.594 187.963 209.558 187.787 210.278C187.689 210.688 187.654 211.015 187.682 211.262C187.688 211.325 187.702 211.381 187.716 211.433C187.759 211.589 187.839 211.7 187.954 211.768C188.005 211.797 188.061 211.809 188.12 211.806C188.804 211.764 190.863 208.951 191.704 207.584C191.735 207.533 191.765 207.486 191.792 207.438C191.845 207.345 191.896 207.26 191.932 207.188C191.976 207.115 192.005 207.051 192.025 207.001C192.051 206.956 192.08 206.901 192.119 206.834C192.156 206.768 192.194 206.69 192.24 206.607C192.731 205.673 193.679 203.698 193.59 202.614Z" fill="black"/>
<path d="M206.954 188.337C206.011 188.041 202.803 188.202 201.842 188.259C201.701 188.268 201.591 188.274 201.511 188.28L200.393 197.368L199.841 197.598L199.292 197.827L193.624 210.725L193.448 214.3L194.591 216.972L197.991 216.862C198.103 214.743 198.86 207.137 198.881 207.093C199.515 205.826 203.811 204.406 204.629 204.172C204.657 204.163 204.68 204.156 204.699 204.152C204.782 204.123 204.871 204.094 204.961 204.064C205.186 203.99 205.426 203.915 205.68 203.84C205.779 203.81 205.882 203.78 205.987 203.75C206.322 203.654 206.674 203.558 207.039 203.462C207.126 203.439 207.212 203.418 207.298 203.395C207.464 203.352 207.633 203.308 207.802 203.267C210.468 202.598 213.545 201.91 214.423 201.736C211.936 196.554 207.742 188.591 206.954 188.337Z" fill="#3FA9F5"/>
<path d="M190.58 204.961C190.46 205.148 190.344 205.34 190.229 205.536L189.64 206.72L191.228 206.959L191.189 207.134C191.188 207.138 191.166 207.25 191.176 207.39C191.183 207.474 191.201 207.566 191.244 207.649C191.447 207.322 191.605 207.045 191.683 206.858C191.829 206.598 191.975 206.315 192.12 206.024C192.097 206.047 192.071 206.065 192.04 206.074C192.029 206.077 192.018 206.08 192.001 206.081C191.887 206.092 191.595 206.004 190.58 204.961Z" fill="black"/>
<path d="M192.122 206.836C192.085 206.904 192.055 206.958 192.03 207.003C192.011 207.054 191.98 207.116 191.938 207.189C191.898 207.264 191.85 207.347 191.797 207.439C191.769 207.487 191.74 207.534 191.709 207.586C190.867 208.951 188.81 211.766 188.124 211.806C188.066 211.81 188.007 211.797 187.96 211.769C187.841 211.701 187.764 211.589 187.72 211.434C187.704 211.382 187.692 211.325 187.686 211.264C187.658 211.017 187.696 210.69 187.792 210.279C187.967 209.559 188.339 208.592 188.821 207.573C189.104 206.96 189.431 206.329 189.771 205.72L190.453 204.354L190.495 204.398L190.537 204.44C191.334 203.197 192.143 202.215 192.731 201.963C192.816 201.928 192.895 201.906 192.97 201.902C193.078 201.896 193.174 201.919 193.259 201.969C193.294 201.992 193.328 202.014 193.355 202.04C193.501 202.169 193.573 202.37 193.594 202.615C193.68 203.697 192.734 205.674 192.242 206.608C192.197 206.694 192.158 206.77 192.122 206.836ZM188.085 210.36C187.876 211.231 187.998 211.435 188.045 211.474C188.59 211.34 190.131 209.346 191.041 207.954C190.848 207.728 190.826 207.428 190.839 207.239L189.413 207.024C188.81 208.217 188.308 209.421 188.085 210.36ZM190.227 205.537L189.637 206.721L191.224 206.961L191.186 207.133C191.185 207.137 191.163 207.25 191.173 207.388C191.179 207.473 191.201 207.565 191.24 207.648C191.444 207.321 191.602 207.044 191.68 206.858C191.825 206.596 191.972 206.314 192.118 206.023C192.095 206.045 192.069 206.064 192.036 206.073C192.026 206.076 192.015 206.079 191.997 206.08C191.886 206.09 191.595 206.003 190.575 204.961C190.459 205.149 190.344 205.341 190.227 205.537ZM193.088 202.255C193.062 202.239 193.023 202.232 192.983 202.233C192.519 202.262 191.65 203.29 190.757 204.675C191.202 205.128 191.698 205.585 191.91 205.717C192.013 205.539 192.225 205.459 192.405 205.428C193.065 203.994 193.546 202.523 193.088 202.255Z" fill="black"/>
<path d="M296.151 219.715C302.772 219.18 319.799 219.588 323.817 216.604C323.502 216.559 323.142 216.278 322.702 216.295C322.702 216.295 299.914 212.968 283.725 211.651C282.69 211.568 281.747 211.528 280.92 211.476C270.234 210.795 222.517 210.783 222.033 210.783H221.948L221.898 210.709C221.742 210.485 218.138 205.134 217.712 204.448C217.507 204.113 217.477 203.648 217.447 203.155C217.411 202.582 217.373 201.991 217.035 201.714C216.725 201.464 216.06 201.353 215.156 201.407C214.836 201.426 214.608 201.459 214.606 201.459L214.487 201.479L214.468 201.44C213.396 201.65 207.551 202.825 204.777 203.783C203.196 204.227 199.036 205.607 198.756 206.593C198.398 207.856 197.729 216.083 197.718 216.161L197.733 216.727L194.616 216.911L193.47 214.246L186.299 215.254L174.688 216.999L174.616 216.628C175.403 216.433 175.564 216.144 175.605 215.035C175.617 214.688 175.355 214.205 174.883 213.732C174.118 212.962 172.748 212.142 171.561 212.175C171.163 212.186 170.482 212.174 169.62 212.162C167.872 212.136 165.483 212.099 163.533 212.214C161.413 212.339 160.671 212.599 160.426 212.794C160.093 213.06 159.933 213.336 159.94 213.613C159.957 214.091 160.471 214.456 160.475 214.46L160.808 214.694L157.313 215.258L157.303 216.978L140.451 218.912L139.513 220.907L119.558 222.138L110.36 224.964L110.771 235.643L105.712 237.86L105.682 237.872L93.1837 238.387L90.4331 240.3L90.8723 245.435C113.009 239.706 158.578 230.703 203.139 225.914C262.632 219.518 289.53 220.249 296.151 219.715Z" fill="white"/>
<path d="M323.817 216.604C319.313 218.496 303.033 218.731 296.414 219.266C289.792 219.801 262.994 218.921 203.502 225.313C158.94 230.102 113.1 239.684 90.8825 245.418L90.884 245.433L90.7616 245.489C89.5138 246.385 88.8655 246.965 88.8266 247.264C88.8121 247.346 88.8444 247.403 88.9274 247.503C88.963 247.545 88.9911 247.588 89.0155 247.632C89.0877 247.709 89.6202 247.826 91.1033 247.76L91.8754 247.55C109.511 242.753 141.458 235.714 193.532 229.416C230.078 224.996 260.833 222.901 275.097 222.785C302.673 222.561 320.411 219.847 323.309 219.355C323.947 218.778 324.175 218.586 324.197 218.575C324.906 218.321 325.321 217.868 325.241 217.447C325.173 217.106 324.753 216.738 323.817 216.604Z" fill="white"/>
<path d="M159.895 214.866C159.895 214.866 158.085 212.983 161.145 212.153C163.387 211.545 170.093 211.857 171.9 211.846C173.706 211.834 175.866 214.277 175.754 215.442C175.658 216.435 175.524 217.525 173.836 217.082C172.146 216.64 172.324 215.363 171.381 215.311C170.439 215.258 160.697 214.944 159.895 214.866Z" fill="#C99B59"/>
<path d="M178.213 215.629C178.213 215.629 177.175 214.477 177.366 213.089C177.557 211.7 177.85 210.989 178.694 210.726C179.538 210.463 180.686 210.326 180.925 210.442C181.164 210.556 184.052 211.625 184.712 211.839C185.369 212.051 187.182 213.192 187.23 213.735C187.283 214.279 187.389 214.452 187.621 214.978C187.856 215.504 188.245 217.898 188.245 217.898L183.936 218.471C183.936 218.471 183.946 216.784 183.624 216.677C183.303 216.57 179.077 216.234 178.785 216.079C178.5 215.924 178.213 215.629 178.213 215.629Z" fill="#996234"/>
<path d="M162.071 209.253C162.071 209.253 161.796 207.12 161.705 207.122C161.613 207.124 164.698 206.874 165.418 206.309C166.313 205.613 171.318 205.541 171.318 205.541L174.707 208.514L178.604 211.31C178.604 211.31 177.581 214.957 177.036 214.969C176.778 214.976 173.992 212.561 171.52 212.545C168.766 212.527 168.598 214.112 169.31 217.51C169.445 218.153 163.552 214.408 163.552 214.408C163.552 214.408 162.438 213.613 162.134 212.164C161.83 210.715 162.071 209.253 162.071 209.253Z" fill="#EF45B7"/>
<path d="M168.175 187.18C168.312 187.222 169.285 185.973 169.231 185.564C169.175 185.154 168.762 184.891 168.67 184.892C168.58 184.894 167.597 183.779 168.087 183.267C168.576 182.755 166.939 180.744 167.507 179.731C168.076 178.717 168.769 177.153 170.122 176.578C171.475 176.002 172.327 175.528 173.023 176.057C173.717 176.588 175.39 178.097 175.449 178.688C175.506 179.278 175.806 180.409 175.516 181.644C175.224 182.88 175.228 183.062 175.213 184.382C175.197 185.702 174.624 186.537 174.226 187.046C173.828 187.554 174.025 188.231 173.256 188.432C172.487 188.63 173.47 189.838 173.116 190.299C172.763 190.761 168.461 189.721 168.513 187.945C168.534 187.11 168.175 187.18 168.175 187.18Z" fill="#996234"/>
<path d="M168.272 185.403C168.272 185.403 167.5 185.42 167.576 184.781C167.651 184.142 167.795 183.046 167.523 182.779C167.251 182.512 166.422 182.031 166.677 181.251C166.933 180.471 167.241 180.009 167.042 179.286C166.844 178.562 167.013 177.966 167.596 177.589C168.179 177.212 168.642 177.292 169.313 176.96C169.987 176.626 170.515 175.84 171.285 175.686C172.054 175.533 172.952 174.966 173.605 175.634C174.258 176.302 174.712 176.292 174.904 176.742C175.096 177.193 174.858 176.698 175.154 177.783C175.452 178.869 176.004 179.083 175.652 179.684C175.303 180.283 174.959 179.198 174.64 179.16C174.319 179.122 174.49 178.618 173.639 179.182C172.786 179.748 173.102 179.559 171.822 179.314C170.541 179.07 169.84 178.358 169.485 179.686C169.129 181.015 169.347 180.782 169.533 181.824C169.718 182.867 169.566 183.324 169.566 183.324C169.566 183.324 169.486 182.826 168.99 182.928C168.492 183.032 168.403 183.124 168.461 183.668C168.518 184.213 168.805 184.844 168.718 185.028C168.629 185.213 168.272 185.403 168.272 185.403Z" fill="#301705"/>
<path d="M174.782 195.632C174.782 195.632 177.895 200.479 178.678 200.916C179.461 201.353 181.073 202.228 181.668 202.351C182.262 202.473 186.006 202.981 187.595 202.854C189.186 202.727 189.448 202.24 190.052 202.808C190.657 203.377 190.939 203.781 191.156 203.32C191.373 202.861 191.233 202.773 191.127 202.092C191.022 201.411 191.104 201.046 191.74 200.941C192.374 200.836 193.367 201.542 193.086 200.729C192.808 199.917 192.891 199.55 191.847 199.664C190.802 199.778 190.638 200.557 189.912 200.663C189.185 200.771 188.867 200.777 187.59 200.624C186.312 200.471 182.67 198.413 181.896 198.387C181.123 198.358 181.064 197.767 180.552 197.279C180.041 196.791 177.984 194.379 177.984 194.379" fill="#996234"/>
<path d="M161.51 198.432C161.635 195.883 162.454 191.814 163.961 190.005C165.467 188.195 165.924 188.232 167.048 187.706C168.174 187.181 168.769 187.303 168.769 187.303C168.769 187.303 168.869 189.123 169.803 189.421C170.735 189.718 172.932 190.26 173.061 189.895C173.189 189.527 172.866 189.302 173.131 188.98C173.396 188.657 173.832 187.782 174.155 187.958C174.478 188.132 176.083 188.733 176.284 189.548C176.484 190.363 176.69 191.45 177.16 192.077C177.629 192.704 177.925 193.698 177.925 193.698C177.925 193.698 178.071 194.059 178.215 194.465C178.362 194.871 177.041 194.857 176.214 196.558C175.387 198.26 174.373 195.644 174.373 195.644C174.373 195.644 175.404 194.938 174.482 196.415C174.482 196.415 173.076 198.677 172.992 198.998C172.908 199.319 172.563 200.144 172.627 200.963C172.692 201.781 173.165 202.634 173.093 203.501C173.022 204.368 173.149 205.137 172.079 205.571C171.012 206.004 169.826 205.941 168.51 206.106C167.192 206.271 165.565 206.237 164.975 206.777C164.384 207.317 163.794 206.895 163.071 207.093C162.346 207.291 162.312 207.747 161.706 207.123C161.1 206.5 161.993 204.477 161.833 204.027C161.672 203.575 161.254 202.582 161.373 201.079C161.49 199.573 161.51 198.432 161.51 198.432Z" fill="#8BC7E8"/>
<path d="M166.837 201.385C166.837 201.385 167.873 204.533 168.429 205.125C168.984 205.717 169.878 207.095 170.349 207.627C170.823 208.158 174.989 212.243 175.485 212.594C175.983 212.947 178.392 214.968 178.392 214.968L181.729 214.509C181.729 214.509 179.46 212.185 178.343 211.048C177.226 209.912 173.52 205.53 173.308 205.128C173.092 204.727 171.891 203.532 171.563 202.976C171.232 202.42 171.155 201.257 170.869 200.201C170.581 199.145 170.098 197.783 170.098 197.783C170.098 197.783 165.882 197.372 165.774 198.368C165.667 199.365 166.837 201.385 166.837 201.385Z" fill="#996234"/>
<path d="M169.4 217.463C169.4 217.463 168.447 216.238 168.734 214.867C169.021 213.495 169.367 212.806 170.227 212.604C171.087 212.404 172.242 212.347 172.474 212.478C172.704 212.61 175.51 213.882 176.152 214.14C176.795 214.399 178.521 215.666 178.532 216.211C178.544 216.757 178.64 216.937 178.834 217.478C179.029 218.019 179.29 219.562 179.29 219.562L174.931 220.122C174.931 220.122 175.041 219.019 174.726 218.888C174.412 218.761 170.218 218.125 169.941 217.95C169.663 217.775 169.4 217.463 169.4 217.463Z" fill="#996234"/>
<path opacity="0.6" d="M-35.7723 253.831L399.975 253.661L400.26 386.886L-35.8674 386.716L-35.7723 253.831Z" fill="#33EFFF"/>
<path opacity="0.5" d="M67.4476 277.999C68.8057 277.999 69.9066 276.898 69.9066 275.54C69.9066 274.182 68.8057 273.081 67.4476 273.081C66.0895 273.081 64.9885 274.182 64.9885 275.54C64.9885 276.898 66.0895 277.999 67.4476 277.999Z" fill="white"/>
<path opacity="0.5" d="M59.8895 268.052C60.8204 268.052 61.5751 267.297 61.5751 266.366C61.5751 265.435 60.8204 264.681 59.8895 264.681C58.9585 264.681 58.2039 265.435 58.2039 266.366C58.2039 267.297 58.9585 268.052 59.8895 268.052Z" fill="white"/>
<path opacity="0.5" d="M43.6569 272.576C44.8066 272.576 45.7386 271.644 45.7386 270.494C45.7386 269.344 44.8066 268.412 43.6569 268.412C42.5072 268.412 41.5752 269.344 41.5752 270.494C41.5752 271.644 42.5072 272.576 43.6569 272.576Z" fill="white"/>
<path opacity="0.5" d="M43.9732 288.117C45.3313 288.117 46.4323 287.016 46.4323 285.658C46.4323 284.3 45.3313 283.199 43.9732 283.199C42.6151 283.199 41.5142 284.3 41.5142 285.658C41.5142 287.016 42.6151 288.117 43.9732 288.117Z" fill="white"/>
<path opacity="0.5" d="M47.8949 283.185C49.253 283.185 50.3539 282.084 50.3539 280.726C50.3539 279.368 49.253 278.267 47.8949 278.267C46.5368 278.267 45.4358 279.368 45.4358 280.726C45.4358 282.084 46.5368 283.185 47.8949 283.185Z" fill="white"/>
<path opacity="0.5" d="M49.3883 270.089C50.7464 270.089 51.8473 268.988 51.8473 267.63C51.8473 266.272 50.7464 265.171 49.3883 265.171C48.0302 265.171 46.9292 266.272 46.9292 267.63C46.9292 268.988 48.0302 270.089 49.3883 270.089Z" fill="white"/>
<path opacity="0.5" d="M56.8592 277.908C58.2173 277.908 59.3183 276.807 59.3183 275.449C59.3183 274.091 58.2173 272.99 56.8592 272.99C55.5011 272.99 54.4001 274.091 54.4001 275.449C54.4001 276.807 55.5011 277.908 56.8592 277.908Z" fill="white"/>
<path opacity="0.3" d="M75.6995 280.818C77.0577 280.818 78.1586 279.717 78.1586 278.358C78.1586 277 77.0577 275.899 75.6995 275.899C74.3414 275.899 73.2405 277 73.2405 278.358C73.2405 279.717 74.3414 280.818 75.6995 280.818Z" fill="white"/>
<path opacity="0.5" d="M74.3286 271.625C75.0827 271.625 75.6941 271.014 75.6941 270.26C75.6941 269.506 75.0827 268.895 74.3286 268.895C73.5745 268.895 72.9631 269.506 72.9631 270.26C72.9631 271.014 73.5745 271.625 74.3286 271.625Z" fill="white"/>
<path opacity="0.5" d="M77.4922 274.869C78.2461 274.869 78.8572 274.258 78.8572 273.504C78.8572 272.75 78.2461 272.139 77.4922 272.139C76.7383 272.139 76.1272 272.75 76.1272 273.504C76.1272 274.258 76.7383 274.869 77.4922 274.869Z" fill="white"/>
<path opacity="0.5" d="M68.5215 270.505C69.2754 270.505 69.8865 269.894 69.8865 269.14C69.8865 268.387 69.2754 267.775 68.5215 267.775C67.7676 267.775 67.1565 268.387 67.1565 269.14C67.1565 269.894 67.7676 270.505 68.5215 270.505Z" fill="white"/>
<path opacity="0.5" d="M65.5437 268.239C66.2976 268.239 66.9087 267.628 66.9087 266.874C66.9087 266.12 66.2976 265.509 65.5437 265.509C64.7898 265.509 64.1787 266.12 64.1787 266.874C64.1787 267.628 64.7898 268.239 65.5437 268.239Z" fill="white"/>
<path opacity="0.5" d="M52.157 284.926C52.9109 284.926 53.522 284.315 53.522 283.561C53.522 282.807 52.9109 282.196 52.157 282.196C51.4031 282.196 50.792 282.807 50.792 283.561C50.792 284.315 51.4031 284.926 52.157 284.926Z" fill="white"/>
<path opacity="0.5" d="M51.4175 275.411C52.1714 275.411 52.7825 274.8 52.7825 274.046C52.7825 273.292 52.1714 272.681 51.4175 272.681C50.6636 272.681 50.0525 273.292 50.0525 274.046C50.0525 274.8 50.6636 275.411 51.4175 275.411Z" fill="white"/>
<path opacity="0.5" d="M62.5962 273.078C63.3503 273.078 63.9616 272.466 63.9616 271.712C63.9616 270.958 63.3503 270.347 62.5962 270.347C61.8421 270.347 61.2307 270.958 61.2307 271.712C61.2307 272.466 61.8421 273.078 62.5962 273.078Z" fill="white"/>
<path opacity="0.5" d="M60.5823 282.876C61.3361 282.876 61.9473 282.265 61.9473 281.511C61.9473 280.758 61.3361 280.146 60.5823 280.146C59.8284 280.146 59.2173 280.758 59.2173 281.511C59.2173 282.265 59.8284 282.876 60.5823 282.876Z" fill="white"/>
<path opacity="0.5" d="M72.5281 277.788C72.8872 277.788 73.1783 277.497 73.1783 277.137C73.1783 276.778 72.8872 276.487 72.5281 276.487C72.169 276.487 71.8779 276.778 71.8779 277.137C71.8779 277.497 72.169 277.788 72.5281 277.788Z" fill="white"/>
<path opacity="0.5" d="M62.8345 277.58C63.1935 277.58 63.4846 277.289 63.4846 276.929C63.4846 276.57 63.1935 276.279 62.8345 276.279C62.4754 276.279 62.1843 276.57 62.1843 276.929C62.1843 277.289 62.4754 277.58 62.8345 277.58Z" fill="white"/>
<path opacity="0.5" d="M55.3664 269.027C55.7258 269.027 56.0171 268.736 56.0171 268.376C56.0171 268.017 55.7258 267.726 55.3664 267.726C55.0071 267.726 54.7158 268.017 54.7158 268.376C54.7158 268.736 55.0071 269.027 55.3664 269.027Z" fill="white"/>
<path opacity="0.5" d="M71.9097 274.409C72.2688 274.409 72.5598 274.118 72.5598 273.759C72.5598 273.399 72.2688 273.108 71.9097 273.108C71.5506 273.108 71.2595 273.399 71.2595 273.759C71.2595 274.118 71.5506 274.409 71.9097 274.409Z" fill="white"/>
<path opacity="0.5" d="M82.4688 276.435C82.8278 276.435 83.1189 276.144 83.1189 275.785C83.1189 275.426 82.8278 275.135 82.4688 275.135C82.1097 275.135 81.8186 275.426 81.8186 275.785C81.8186 276.144 82.1097 276.435 82.4688 276.435Z" fill="white"/>
<path opacity="0.5" d="M82.9414 272.539C83.3005 272.539 83.5916 272.248 83.5916 271.888C83.5916 271.529 83.3005 271.238 82.9414 271.238C82.5823 271.238 82.2913 271.529 82.2913 271.888C82.2913 272.248 82.5823 272.539 82.9414 272.539Z" fill="white"/>
<path opacity="0.5" d="M79.8355 272.225C80.1945 272.225 80.4856 271.934 80.4856 271.575C80.4856 271.216 80.1945 270.925 79.8355 270.925C79.4764 270.925 79.1853 271.216 79.1853 271.575C79.1853 271.934 79.4764 272.225 79.8355 272.225Z" fill="white"/>
<path opacity="0.5" d="M69.8464 281.384C70.2055 281.384 70.4966 281.093 70.4966 280.734C70.4966 280.375 70.2055 280.084 69.8464 280.084C69.4874 280.084 69.1963 280.375 69.1963 280.734C69.1963 281.093 69.4874 281.384 69.8464 281.384Z" fill="white"/>
<path opacity="0.5" d="M53.7424 264.467C54.1015 264.467 54.3926 264.176 54.3926 263.817C54.3926 263.458 54.1015 263.167 53.7424 263.167C53.3834 263.167 53.0923 263.458 53.0923 263.817C53.0923 264.176 53.3834 264.467 53.7424 264.467Z" fill="white"/>
<path opacity="0.5" d="M45.4819 265.496C45.841 265.496 46.1321 265.205 46.1321 264.845C46.1321 264.486 45.841 264.195 45.4819 264.195C45.1229 264.195 44.8318 264.486 44.8318 264.845C44.8318 265.205 45.1229 265.496 45.4819 265.496Z" fill="white"/>
<path opacity="0.5" d="M71.6294 268.283C71.9887 268.283 72.28 267.991 72.28 267.632C72.28 267.273 71.9887 266.981 71.6294 266.981C71.2701 266.981 70.9788 267.273 70.9788 267.632C70.9788 267.991 71.2701 268.283 71.6294 268.283Z" fill="white"/>
<path opacity="0.5" d="M79.8184 277.009C80.1774 277.009 80.4685 276.718 80.4685 276.359C80.4685 276 80.1774 275.709 79.8184 275.709C79.4593 275.709 79.1682 276 79.1682 276.359C79.1682 276.718 79.4593 277.009 79.8184 277.009Z" fill="white"/>
<path opacity="0.5" d="M77.5245 270.112C77.9084 270.112 78.2197 269.801 78.2197 269.417C78.2197 269.033 77.9084 268.722 77.5245 268.722C77.1406 268.722 76.8293 269.033 76.8293 269.417C76.8293 269.801 77.1406 270.112 77.5245 270.112Z" fill="white"/>
<path opacity="0.2" d="M51.7176 278.711C54.3507 278.711 56.4853 276.577 56.4853 273.943C56.4853 271.31 54.3507 269.176 51.7176 269.176C49.0845 269.176 46.95 271.31 46.95 273.943C46.95 276.577 49.0845 278.711 51.7176 278.711Z" fill="white"/>
<path opacity="0.1" d="M60.6837 279.783C64.5335 279.783 67.6544 276.662 67.6544 272.813C67.6544 268.963 64.5335 265.842 60.6837 265.842C56.8338 265.842 53.7129 268.963 53.7129 272.813C53.7129 276.662 56.8338 279.783 60.6837 279.783Z" fill="white"/>
<path opacity="0.1" d="M75.544 281.93C79.3939 281.93 82.5148 278.809 82.5148 274.959C82.5148 271.109 79.3939 267.988 75.544 267.988C71.6942 267.988 68.5732 271.109 68.5732 274.959C68.5732 278.809 71.6942 281.93 75.544 281.93Z" fill="white"/>
<path opacity="0.1" d="M68.4259 278.867C72.2757 278.867 75.3966 275.746 75.3966 271.897C75.3966 268.047 72.2757 264.926 68.4259 264.926C64.576 264.926 61.4551 268.047 61.4551 271.897C61.4551 275.746 64.576 278.867 68.4259 278.867Z" fill="white"/>
<path opacity="0.1" d="M45.7083 284.819C49.5582 284.819 52.6791 281.699 52.6791 277.849C52.6791 273.999 49.5582 270.878 45.7083 270.878C41.8585 270.878 38.7375 273.999 38.7375 277.849C38.7375 281.699 41.8585 284.819 45.7083 284.819Z" fill="white"/>
<path opacity="0.1" d="M53.2071 288.132C57.0572 288.132 60.1783 285.011 60.1783 281.161C60.1783 277.311 57.0572 274.189 53.2071 274.189C49.357 274.189 46.2358 277.311 46.2358 281.161C46.2358 285.011 49.357 288.132 53.2071 288.132Z" fill="white"/>
<path opacity="0.5" d="M33.9191 278.493C35.9234 278.493 37.5482 276.869 37.5482 274.864C37.5482 272.86 35.9234 271.235 33.9191 271.235C31.9148 271.235 30.29 272.86 30.29 274.864C30.29 276.869 31.9148 278.493 33.9191 278.493Z" fill="white"/>
<path opacity="0.5" d="M22.7643 263.812C24.1382 263.812 25.2519 262.698 25.2519 261.325C25.2519 259.951 24.1382 258.837 22.7643 258.837C21.3904 258.837 20.2766 259.951 20.2766 261.325C20.2766 262.698 21.3904 263.812 22.7643 263.812Z" fill="white"/>
<path opacity="0.5" d="M-1.1947 270.489C0.502542 270.489 1.87843 269.113 1.87843 267.416C1.87843 265.719 0.502542 264.343 -1.1947 264.343C-2.89194 264.343 -4.26782 265.719 -4.26782 267.416C-4.26782 269.113 -2.89194 270.489 -1.1947 270.489Z" fill="white"/>
<path opacity="0.5" d="M-0.72789 293.426C1.27664 293.426 2.90164 291.801 2.90164 289.797C2.90164 287.792 1.27664 286.167 -0.72789 286.167C-2.73243 286.167 -4.35742 287.792 -4.35742 289.797C-4.35742 291.801 -2.73243 293.426 -0.72789 293.426Z" fill="white"/>
<path opacity="0.5" d="M5.06093 286.147C7.06546 286.147 8.69046 284.522 8.69046 282.517C8.69046 280.513 7.06546 278.888 5.06093 278.888C3.05639 278.888 1.4314 280.513 1.4314 282.517C1.4314 284.522 3.05639 286.147 5.06093 286.147Z" fill="white"/>
<path opacity="0.5" d="M7.26505 266.818C9.26932 266.818 10.8941 265.193 10.8941 263.189C10.8941 261.184 9.26932 259.56 7.26505 259.56C5.26077 259.56 3.63599 261.184 3.63599 263.189C3.63599 265.193 5.26077 266.818 7.26505 266.818Z" fill="white"/>
<path opacity="0.5" d="M18.2909 278.359C20.2952 278.359 21.92 276.734 21.92 274.73C21.92 272.725 20.2952 271.101 18.2909 271.101C16.2867 271.101 14.6619 272.725 14.6619 274.73C14.6619 276.734 16.2867 278.359 18.2909 278.359Z" fill="white"/>
<path opacity="0.3" d="M46.0985 282.653C48.1028 282.653 49.7276 281.028 49.7276 279.024C49.7276 277.019 48.1028 275.395 46.0985 275.395C44.0943 275.395 42.4695 277.019 42.4695 279.024C42.4695 281.028 44.0943 282.653 46.0985 282.653Z" fill="white"/>
<path opacity="0.5" d="M44.0747 269.085C45.1874 269.085 46.0894 268.183 46.0894 267.07C46.0894 265.958 45.1874 265.056 44.0747 265.056C42.9621 265.056 42.0601 265.958 42.0601 267.07C42.0601 268.183 42.9621 269.085 44.0747 269.085Z" fill="white"/>
<path opacity="0.5" d="M48.7447 273.872C49.8573 273.872 50.7593 272.97 50.7593 271.857C50.7593 270.745 49.8573 269.843 48.7447 269.843C47.632 269.843 46.73 270.745 46.73 271.857C46.73 272.97 47.632 273.872 48.7447 273.872Z" fill="white"/>
<path opacity="0.5" d="M35.504 267.433C36.6164 267.433 37.5182 266.531 37.5182 265.419C37.5182 264.306 36.6164 263.404 35.504 263.404C34.3915 263.404 33.4897 264.306 33.4897 265.419C33.4897 266.531 34.3915 267.433 35.504 267.433Z" fill="white"/>
<path opacity="0.5" d="M31.1099 264.088C32.2226 264.088 33.1246 263.186 33.1246 262.073C33.1246 260.961 32.2226 260.059 31.1099 260.059C29.9972 260.059 29.0952 260.961 29.0952 262.073C29.0952 263.186 29.9972 264.088 31.1099 264.088Z" fill="white"/>
<path opacity="0.5" d="M11.3514 288.716C12.4638 288.716 13.3656 287.814 13.3656 286.702C13.3656 285.589 12.4638 284.688 11.3514 284.688C10.239 284.688 9.33716 285.589 9.33716 286.702C9.33716 287.814 10.239 288.716 11.3514 288.716Z" fill="white"/>
<path opacity="0.5" d="M10.2593 274.673C11.3722 274.673 12.2745 273.771 12.2745 272.658C12.2745 271.545 11.3722 270.643 10.2593 270.643C9.14636 270.643 8.24414 271.545 8.24414 272.658C8.24414 273.771 9.14636 274.673 10.2593 274.673Z" fill="white"/>
<path opacity="0.5" d="M26.7586 271.229C27.8715 271.229 28.7737 270.326 28.7737 269.213C28.7737 268.1 27.8715 267.198 26.7586 267.198C25.6456 267.198 24.7434 268.1 24.7434 269.213C24.7434 270.326 25.6456 271.229 26.7586 271.229Z" fill="white"/>
<path opacity="0.5" d="M23.7872 285.691C24.8998 285.691 25.8018 284.789 25.8018 283.677C25.8018 282.564 24.8998 281.662 23.7872 281.662C22.6745 281.662 21.7725 282.564 21.7725 283.677C21.7725 284.789 22.6745 285.691 23.7872 285.691Z" fill="white"/>
<path opacity="0.5" d="M41.4175 278.18C41.9477 278.18 42.3775 277.75 42.3775 277.22C42.3775 276.69 41.9477 276.26 41.4175 276.26C40.8873 276.26 40.4575 276.69 40.4575 277.22C40.4575 277.75 40.8873 278.18 41.4175 278.18Z" fill="white"/>
<path opacity="0.5" d="M27.1104 277.874C27.6403 277.874 28.0699 277.445 28.0699 276.915C28.0699 276.385 27.6403 275.955 27.1104 275.955C26.5805 275.955 26.1509 276.385 26.1509 276.915C26.1509 277.445 26.5805 277.874 27.1104 277.874Z" fill="white"/>
<path opacity="0.5" d="M16.0887 265.249C16.6184 265.249 17.0478 264.82 17.0478 264.29C17.0478 263.76 16.6184 263.331 16.0887 263.331C15.559 263.331 15.1296 263.76 15.1296 264.29C15.1296 264.82 15.559 265.249 16.0887 265.249Z" fill="white"/>
<path opacity="0.5" d="M40.5049 273.194C41.0351 273.194 41.4649 272.765 41.4649 272.234C41.4649 271.704 41.0351 271.274 40.5049 271.274C39.9747 271.274 39.5449 271.704 39.5449 272.234C39.5449 272.765 39.9747 273.194 40.5049 273.194Z" fill="white"/>
<path opacity="0.5" d="M56.0904 276.186C56.6203 276.186 57.0499 275.756 57.0499 275.226C57.0499 274.696 56.6203 274.267 56.0904 274.267C55.5605 274.267 55.1309 274.696 55.1309 275.226C55.1309 275.756 55.5605 276.186 56.0904 276.186Z" fill="white"/>
<path opacity="0.5" d="M56.7879 270.433C57.3178 270.433 57.7474 270.003 57.7474 269.473C57.7474 268.943 57.3178 268.514 56.7879 268.514C56.258 268.514 55.8284 268.943 55.8284 269.473C55.8284 270.003 56.258 270.433 56.7879 270.433Z" fill="white"/>
<path opacity="0.5" d="M52.2027 269.97C52.7326 269.97 53.1622 269.54 53.1622 269.01C53.1622 268.48 52.7326 268.051 52.2027 268.051C51.6728 268.051 51.2432 268.48 51.2432 269.01C51.2432 269.54 51.6728 269.97 52.2027 269.97Z" fill="white"/>
<path opacity="0.5" d="M37.46 283.489C37.99 283.489 38.4195 283.06 38.4195 282.53C38.4195 282 37.99 281.57 37.46 281.57C36.9301 281.57 36.5005 282 36.5005 282.53C36.5005 283.06 36.9301 283.489 37.46 283.489Z" fill="white"/>
<path opacity="0.5" d="M13.692 258.521C14.2219 258.521 14.6515 258.091 14.6515 257.561C14.6515 257.031 14.2219 256.602 13.692 256.602C13.162 256.602 12.7324 257.031 12.7324 257.561C12.7324 258.091 13.162 258.521 13.692 258.521Z" fill="white"/>
<path opacity="0.5" d="M1.49979 260.039C2.02999 260.039 2.45979 259.609 2.45979 259.079C2.45979 258.549 2.02999 258.119 1.49979 258.119C0.969601 258.119 0.539795 258.549 0.539795 259.079C0.539795 259.609 0.969601 260.039 1.49979 260.039Z" fill="white"/>
<path opacity="0.5" d="M40.0914 264.151C40.6213 264.151 41.0509 263.722 41.0509 263.192C41.0509 262.662 40.6213 262.232 40.0914 262.232C39.5614 262.232 39.1318 262.662 39.1318 263.192C39.1318 263.722 39.5614 264.151 40.0914 264.151Z" fill="white"/>
<path opacity="0.5" d="M52.1785 277.031C52.7082 277.031 53.1376 276.602 53.1376 276.072C53.1376 275.543 52.7082 275.113 52.1785 275.113C51.6489 275.113 51.2195 275.543 51.2195 276.072C51.2195 276.602 51.6489 277.031 52.1785 277.031Z" fill="white"/>
<path opacity="0.5" d="M48.7925 266.854C49.3592 266.854 49.8186 266.395 49.8186 265.828C49.8186 265.261 49.3592 264.802 48.7925 264.802C48.2258 264.802 47.7664 265.261 47.7664 265.828C47.7664 266.395 48.2258 266.854 48.7925 266.854Z" fill="white"/>
<path opacity="0.2" d="M10.7029 279.545C14.5895 279.545 17.7402 276.395 17.7402 272.508C17.7402 268.621 14.5895 265.471 10.7029 265.471C6.81625 265.471 3.66553 268.621 3.66553 272.508C3.66553 276.395 6.81625 279.545 10.7029 279.545Z" fill="white"/>
<path opacity="0.1" d="M34.2143 270.367C33.9541 264.692 29.1424 260.299 23.4663 260.559C17.7893 260.819 13.3985 265.63 13.6582 271.308C13.9174 276.985 18.7296 281.376 24.4066 281.116C30.0822 280.857 34.4735 276.044 34.2143 270.367Z" fill="white"/>
<path opacity="0.1" d="M56.1472 273.536C55.8875 267.861 51.0754 263.468 45.3997 263.728C39.7232 263.988 35.3315 268.8 35.5921 274.477C35.8518 280.154 40.664 284.545 46.341 284.285C52.0157 284.025 56.4069 279.213 56.1472 273.536Z" fill="white"/>
<path opacity="0.1" d="M35.3633 279.773C41.0455 279.773 45.6519 275.167 45.6519 269.485C45.6519 263.803 41.0455 259.196 35.3633 259.196C29.6811 259.196 25.0747 263.803 25.0747 269.485C25.0747 275.167 29.6811 279.773 35.3633 279.773Z" fill="white"/>
<path opacity="0.1" d="M1.83352 288.56C7.51575 288.56 12.1221 283.953 12.1221 278.271C12.1221 272.589 7.51575 267.982 1.83352 267.982C-3.84872 267.982 -8.45508 272.589 -8.45508 278.271C-8.45508 283.953 -3.84872 288.56 1.83352 288.56Z" fill="white"/>
<path opacity="0.1" d="M23.1789 282.69C22.9187 277.014 18.107 272.621 12.4309 272.881C6.75435 273.141 2.36357 277.953 2.62325 283.63C2.88341 289.307 7.69466 293.698 13.3722 293.439C19.0473 293.178 23.4386 288.367 23.1789 282.69Z" fill="white"/>
<path d="M131.281 213.719C131.281 213.719 131.832 215.487 131.555 217.688C131.277 219.888 131.251 221.766 132.072 222.434C132.895 223.104 132.129 224.482 132.914 224.642C133.424 224.746 141.402 223.5 142.058 223.66C142.713 223.822 144.822 223.264 145.156 223.447C145.491 223.631 148.248 223.134 148.682 223.203C149.116 223.272 148.842 222.429 149.259 222.241C149.675 222.053 150.397 220.071 150.397 220.071L150.341 219.251L149.145 217.474L148.5 215.861L147.938 215.551C147.938 215.551 147.6 215.312 147.35 214.8C147.1 214.287 146.945 213.598 146.8 213.044C146.654 212.493 146.541 211.597 146.099 211.811C145.656 212.025 131.281 213.719 131.281 213.719Z" fill="#32417F"/>
<path d="M124.271 201.398C124.271 201.398 123.913 209.182 124.009 209.388C124.106 209.595 123.885 211.193 123.482 213.428C123.078 215.665 123.316 221.299 123.377 221.84C123.439 222.381 123.277 223.529 123.293 223.676C123.31 223.819 122.758 224.428 122.342 224.952C121.926 225.473 122.387 225.346 122.387 225.346C122.387 225.346 122.956 225.54 123.328 225.605C123.702 225.672 124.967 225.567 125.385 225.701C125.802 225.836 128.269 225.375 128.45 225.353C128.631 225.335 128.958 225.004 128.914 224.608C128.869 224.21 128.362 223.938 128.362 223.938L126.77 223.425C126.77 223.425 126.709 222.556 126.647 222.344C126.586 222.132 127.76 218.31 127.801 217.064C127.841 215.817 127.989 215.179 127.831 214.431C127.673 213.682 127.663 211.673 127.684 211.526C127.703 211.378 128.066 208.779 128.321 208.13C128.575 207.48 127.891 203.067 127.907 202.882L124.271 201.398Z" fill="#FFCBA1"/>
<path d="M148.913 199.075C148.913 199.075 151.669 205.335 151.917 205.599C152.166 205.863 153.476 208.709 153.777 209.114C154.079 209.516 157.63 220.546 157.755 220.678C157.88 220.809 158.678 221.084 158.867 221.136C159.053 221.188 159.245 222.224 159.245 222.224L156.65 222.521L154.55 222.758C154.55 222.758 154.234 222.795 153.765 222.846C153.297 222.899 153.028 222.784 152.94 222.657C152.852 222.528 153.129 221.751 153.297 221.621C153.465 221.493 153.941 221.182 154.209 220.971C154.478 220.759 154.176 220.352 154.07 219.745C153.966 219.136 153.232 217.501 152.806 216.638C152.379 215.778 150.769 212.851 150.724 212.457C150.678 212.057 149.784 209.639 149.517 209.232C149.252 208.823 149.517 209.232 149.055 208.7C148.594 208.168 145.442 202.28 145.442 202.28L148.658 199.723L148.913 199.075Z" fill="#FFCBA1"/>
<path d="M150.16 199.443C150.18 199.621 149.531 200.353 149.22 200.498C148.909 200.643 147.407 201.581 147.176 201.79C146.943 201.998 146.076 203.047 146.069 203.303C146.062 203.559 146 204.954 146.017 205.099C146.033 205.243 146.854 208.292 147.031 208.562C147.207 208.832 147.4 212.136 147.385 212.646C147.37 213.161 147.632 216.724 146.686 216.757C145.74 216.792 142.076 217.318 141.302 217.259C140.529 217.2 136.316 218.374 135.819 218.502C135.324 218.631 131.756 218.415 131.197 217.676C130.638 216.936 129.709 211.037 129.696 210.6C129.682 210.163 129.035 205.745 129.035 205.745C129.035 205.745 128.668 203.486 128.52 203.466C128.372 203.447 126.617 203.426 125.462 203.229C124.308 203.031 123.646 202.669 123.646 202.669C123.646 202.669 123.459 201.669 123.511 201.48C123.562 201.291 124.448 195.895 124.773 194.581C125.097 193.266 130.62 191.397 130.932 191.251C131.245 191.106 137.786 189.853 138.222 189.839C138.659 189.828 142.714 191.12 143.544 191.353C144.374 191.587 147.044 192.27 148.098 193.832C149.151 195.392 150.018 199.166 150.139 199.261C150.14 199.263 150.139 199.264 150.16 199.443Z" fill="#FFFEF8"/>
<path d="M138.258 190.164C138.258 190.164 138.088 190.906 137.786 191.491C135.686 192.787 134.998 191.917 133.631 191.778C132.264 191.642 132.329 190.034 132.383 189.553C132.437 189.072 131.961 184.561 131.941 183.724C131.918 182.886 132.857 177.959 136.853 178.746C140.85 179.536 139.988 184.161 139.988 184.161C139.291 189.609 138.258 190.164 138.258 190.164Z" fill="#FFCBA1"/>
<path d="M134.226 189.519C134.226 189.519 132.208 189.833 131.62 187.532C131.032 185.231 131.474 185.416 131.305 182.958C131.135 180.501 128.549 180.019 132.165 178.92C135.78 177.819 138.44 176.454 138.989 177.919C139.538 179.384 140.089 179.992 139.904 180.54C139.72 181.088 140.117 181.928 140.09 182.46C140.064 182.992 139.446 184.544 139.446 184.544C139.446 184.544 137.949 185.076 137.943 185.4C137.936 185.722 137.427 186.466 137.485 187.128C137.542 187.788 138.384 187.895 137.573 188.406C136.761 188.917 136.062 189.397 136.062 189.397L134.226 189.519Z" fill="#9E5A2D"/>
<path d="M246.09 209.302C246.041 208.987 245.342 207.323 245.628 206.968C245.914 206.614 246.944 205.695 247.3 205.353C247.656 205.012 248.158 204.652 248.297 204.329C248.435 204.004 248.337 203.316 248.537 203.322C248.737 203.327 261.384 203.546 261.488 203.586C261.592 203.621 263.068 204.628 263.2 205.049C263.33 205.47 263.982 205.971 264.149 206.322C264.316 206.674 264.869 207.976 265.155 208.749C265.443 209.522 265.566 210.325 265.615 211.372C265.664 212.418 265.712 213.481 265.563 213.888C265.415 214.295 265.024 214.723 264.935 214.8C264.846 214.877 265.358 214.922 264.44 214.886C263.522 214.85 259.844 214.008 259.033 214.515C258.221 215.021 257.103 215.14 256.618 215.023C256.132 214.907 256.303 215.034 255.858 214.616C255.414 214.196 255.145 213.685 254.972 213.673C254.796 213.66 254.925 213.385 254.417 213.933C253.91 214.48 254.085 214.416 253.91 214.48C253.734 214.547 252.468 215.114 252.12 215.107C251.772 215.1 252.053 215.129 251.6 215.097C251.146 215.064 251.245 215.357 251.146 215.064C251.047 214.772 250.995 213.689 250.532 213.333C250.073 212.974 246.09 209.302 246.09 209.302Z" fill="#F7931E"/>
<path d="M265.411 192.302C265.442 192.477 265.181 196.758 265.483 197.357C265.783 197.955 266.362 200.408 266.393 200.548C266.425 200.687 266.594 202.608 266.51 203.339C266.425 204.069 266.622 204.665 266.773 205.854C266.923 207.041 268.383 210.592 268.345 210.799C268.305 211.007 268.324 211.845 268.324 211.845L266.846 212.477C266.846 212.477 266.387 212.781 266.38 213.167C266.372 213.548 266.715 213.835 266.889 213.838C267.064 213.842 269.464 214.064 269.85 213.898C270.238 213.733 271.457 213.721 271.808 213.624C272.158 213.528 272.686 213.293 272.686 213.293C272.686 213.293 273.137 213.372 272.693 212.912C272.249 212.449 271.667 211.915 271.672 211.776C271.674 211.635 271.418 210.55 271.427 210.028C271.437 209.506 271.165 204.098 270.579 201.994C269.995 199.893 269.644 198.384 269.717 198.179C269.789 197.972 268.756 190.562 268.756 190.562L265.411 192.302Z" fill="#FFCBA1"/>
<path d="M245.289 191.127L248.591 193.286C248.591 193.286 246.102 199.196 245.708 199.745C245.313 200.296 245.53 199.881 245.313 200.296C245.095 200.71 244.454 203.1 244.447 203.487C244.438 203.867 243.159 206.809 242.828 207.671C242.497 208.534 241.939 210.162 241.894 210.754C241.847 211.343 241.595 211.759 241.871 211.937C242.145 212.116 242.629 212.371 242.8 212.477C242.972 212.587 243.306 213.305 243.234 213.436C243.162 213.566 242.915 213.701 242.463 213.691C242.009 213.682 241.703 213.675 241.703 213.675L239.675 213.636L237.167 213.583C237.167 213.583 237.257 212.574 237.431 212.509C237.606 212.442 238.345 212.108 238.454 211.971C238.561 211.834 240.976 200.972 241.229 200.562C241.482 200.148 242.48 197.309 242.695 197.036C242.909 196.761 244.988 190.53 244.988 190.53L245.289 191.127Z" fill="#FFCBA1"/>
<path d="M256.73 214.458C256.732 214.363 256.315 214.512 256.622 212.664C256.929 210.813 258.395 209.869 259.252 209.353C260.112 208.837 261.664 208.303 262.497 209.073C263.327 209.845 264.389 210.338 264.547 211.096C264.704 211.852 264.559 212.793 264.499 213.389C264.44 213.985 263.906 215.516 263.901 215.86C263.894 216.209 256.941 215.81 256.941 215.81L256.73 214.458Z" fill="#FFCBA1"/>
<path d="M250.395 215.665C250.395 215.665 251.601 214.232 251.791 214.083C251.978 213.932 253.383 213.311 253.448 213.188C253.513 213.067 253.797 212.764 253.47 212.106C253.143 211.45 252.589 209.796 252.165 209.324C251.741 208.852 248.357 207.854 247.643 207.902C246.93 207.95 246.845 207.64 246.058 208.18C245.274 208.72 244.796 209.361 244.603 209.728C244.409 210.096 243.955 211.17 243.917 211.48C243.881 211.787 244.006 213.152 243.874 213.614C243.741 214.075 243.831 215.401 243.831 215.401L250.395 215.665Z" fill="#FFCBA1"/>
<path d="M243.831 190.819C243.937 190.716 244.43 187.031 245.298 185.446C246.167 183.86 248.66 182.969 249.432 182.672C250.206 182.375 253.969 180.778 254.386 180.751C254.806 180.725 261.17 181.343 261.482 181.452C261.794 181.563 267.241 182.86 267.668 184.088C268.096 185.316 269.423 190.397 269.489 190.573C269.555 190.749 269.467 191.722 269.467 191.722C269.467 191.722 268.864 192.127 267.779 192.418C266.692 192.709 265.015 192.884 264.876 192.917C264.735 192.949 264.587 195.142 264.587 195.142C264.587 195.142 264.361 199.425 264.387 199.843C264.413 200.262 264.501 202.774 264.032 203.531C263.563 204.287 260.172 204.811 259.687 204.731C259.201 204.652 255.068 203.906 254.333 204.031C253.598 204.155 250.047 203.979 249.14 204.029C248.233 204.081 247.714 203.862 247.654 203.372C247.593 202.885 247.485 199.709 247.63 199.435C247.773 199.16 248.287 196.172 248.291 196.032C248.294 195.893 248.11 194.565 248.082 194.321C248.053 194.077 247.13 193.151 246.888 192.972C246.649 192.792 245.131 192.03 244.82 191.919C244.509 191.808 243.824 191.167 243.828 190.993C243.831 190.819 243.831 190.819 243.831 190.819Z" fill="#FFF599"/>
<path d="M252.195 175.477C252.195 175.477 250.959 171.13 254.712 170.02C258.463 168.912 259.8 173.54 259.852 174.342C259.905 175.144 259.853 179.501 259.946 179.956C260.041 180.411 260.418 184.218 259.122 184.47C257.829 184.723 256.211 185.457 254.721 183.3C254.38 182.767 254.384 181.062 254.384 181.062C254.384 181.062 253.346 180.624 252.195 175.477Z" fill="#FFCBA1"/>
<path d="M259.628 173.388C259.628 173.388 259.89 169.198 255.317 169.918C251.484 170.524 251.253 172.646 251.64 175.1L251.781 175.078C249.423 180.07 257.236 177.949 259.275 173.919L259.628 173.388Z" fill="#908DFF"/>
<rect x="315.5" y="15.9561" width="44.0746" height="25" rx="12.5" fill="#969696" fill-opacity="0.3"/>
<path d="M328.782 28.9746C328.49 29.403 328.128 29.7357 327.695 29.9727C327.262 30.2051 326.792 30.3213 326.287 30.3213C325.722 30.3213 325.222 30.1755 324.79 29.8838C324.357 29.5921 324.022 29.1888 323.785 28.6738C323.548 28.1589 323.429 27.596 323.429 26.9854C323.429 26.3291 323.555 25.7321 323.805 25.1943C324.06 24.6566 324.414 24.2396 324.865 23.9434C325.32 23.6426 325.845 23.4922 326.437 23.4922C327.435 23.4922 328.212 23.8431 328.768 24.5449C329.324 25.2422 329.602 26.2334 329.602 27.5186V28.2568C329.602 30.0524 329.219 31.4014 328.454 32.3037C327.688 33.2061 326.519 33.6572 324.947 33.6572H324.796L324.803 32.9463H325.09C326.28 32.9281 327.184 32.5908 327.804 31.9346C328.424 31.2783 328.75 30.2917 328.782 28.9746ZM326.389 29.6172C326.936 29.6172 327.426 29.4554 327.859 29.1318C328.296 28.8037 328.606 28.3799 328.789 27.8604V27.3887C328.789 26.377 328.577 25.5931 328.153 25.0371C327.734 24.4766 327.166 24.1963 326.451 24.1963C325.804 24.1963 325.273 24.4583 324.858 24.9824C324.443 25.502 324.236 26.1582 324.236 26.9512C324.236 27.7122 324.434 28.348 324.831 28.8584C325.232 29.3643 325.751 29.6172 326.389 29.6172ZM331.455 34.4365H330.709L334.866 23.6289H335.604L331.455 34.4365ZM340.813 33.582H339.993V24.6133L337.286 25.6182V24.8525L340.676 23.5947H340.813V33.582ZM350.773 29.4326C350.773 30.8363 350.515 31.9027 350 32.6318C349.486 33.3564 348.727 33.7188 347.724 33.7188C346.74 33.7188 345.986 33.3633 345.461 32.6523C344.937 31.9368 344.668 30.8978 344.655 29.5352V27.751C344.655 26.3519 344.915 25.2923 345.434 24.5723C345.954 23.8522 346.712 23.4922 347.71 23.4922C348.695 23.4922 349.447 23.8408 349.966 24.5381C350.486 25.2308 350.755 26.2539 350.773 27.6074V29.4326ZM349.953 27.6484C349.953 26.5091 349.766 25.6478 349.392 25.0645C349.023 24.4811 348.462 24.1895 347.71 24.1895C346.972 24.1895 346.416 24.4743 346.042 25.0439C345.669 25.6136 345.477 26.4544 345.468 27.5664V29.5215C345.468 30.6562 345.66 31.5244 346.042 32.126C346.43 32.7275 346.99 33.0283 347.724 33.0283C348.453 33.0283 349.005 32.7344 349.378 32.1465C349.757 31.5586 349.948 30.6973 349.953 29.5625V27.6484Z" fill="black"/>
</g>
<defs>
<linearGradient id="paint0_linear" x1="182.196" y1="384.373" x2="182.196" y2="-2.81441" gradientUnits="userSpaceOnUse">
<stop offset="0.1511" stop-color="white"/>
<stop offset="1" stop-color="#4FC3F7"/>
</linearGradient>
<clipPath id="clip0">
<rect width="375" height="375" fill="white" transform="translate(0.5 0.956055)"/>
</clipPath>
</defs>
</svg>
