<svg width="376" height="376" viewBox="0 0 376 376" fill="none" xmlns="http://www.w3.org/2000/svg">
<g clip-path="url(#clip0)">
<path d="M383.106 -14.7598H-10.6445V380.396H383.106V-14.7598Z" fill="#42C9CC"/>
<path d="M230.762 -20.8535H-1.73828V30.709H230.762V-20.8535Z" fill="#A0A0A0"/>
<path d="M379.824 339.146H-1.73828V392.115H379.824V339.146Z" fill="#A0A0A0"/>
<path d="M383.507 -14.8994H-10.2427V380.257H383.507V-14.8994Z" fill="#8BF6FF"/>
<path d="M380.461 339.007H-1.10205V391.976H380.461V339.007Z" fill="#A0A0A0"/>
<path d="M309.507 -20.9932H0.478027V30.5693H309.507V-20.9932Z" fill="#A0A0A0"/>
<g opacity="0.7">
<path opacity="0.8" d="M300.003 155.136C293.35 152.67 285.653 153.545 279.923 151.785C274.193 150.028 270.802 146.486 263.936 144.338C257.071 142.191 251.08 144.409 246.068 143.25C241.056 142.092 232.84 138.189 228.292 139.094C223.743 140 223.655 143.098 223.655 143.098C223.655 143.098 222.018 144.926 223.397 148.243C225.177 152.526 232.977 157.169 236.733 160.688C240.486 164.206 241.948 170.4 247.555 174.908C253.163 179.416 258.047 180.289 262.698 184.071C267.349 187.852 270.907 194.73 276.661 198.883L300.003 155.136Z" fill="url(#paint0_linear)"/>
<g opacity="0.7">
<path opacity="0.7" d="M251.311 172.093L263.901 148.496L236.025 133.063C236.025 133.063 213.887 118.454 198.179 128.638C198.403 146.712 222.279 157.418 222.279 157.418L251.311 172.093Z" fill="#D1D1D1"/>
<path opacity="0.7" d="M204.222 131.967C204.222 131.967 209.28 121.539 229.836 132.049C250.391 142.559 251.802 145.124 251.802 145.124L241.675 164.104L235.016 161.693L217.507 152.351C217.507 152.351 199.646 142.031 204.222 131.967Z" fill="#F4F4F4"/>
<path opacity="0.7" d="M204.16 131.778C199.797 139.594 208.557 147.481 217.754 153.203L233.69 161.371L245.305 167.058L250.002 161.681L249.354 160.062L252.89 153.506C252.89 153.506 254.323 153.203 254.429 153.005C255.024 151.889 256.294 146.268 256.294 146.268C256.294 146.268 248.646 141.962 245.206 140.02C245.09 139.954 229.746 131.193 229.547 131.094C219.853 126.356 208.906 123.28 204.16 131.778ZM244.682 140.2C244.961 140.298 254.952 146.976 254.952 146.976C254.952 146.976 253.522 151.484 252.961 152.536C252.861 152.724 251.497 153.003 251.497 153.003L248.159 159.194L248.786 160.729L244.962 165.704L233.681 160.855C224.239 155.987 224.205 155.733 218.107 152.545C209.191 146.861 200.825 138.746 204.694 131.927C208.539 125.15 219.658 127.505 229.177 131.799C229.529 131.993 244.481 140.195 244.682 140.2Z" fill="#E8E8E8"/>
<path opacity="0.7" d="M222.976 141.709L222.884 141.654L221.675 145.053L222.306 147.04C222.44 148.027 224.962 149.548 224.962 149.548L229.773 152.114L231.089 152.176L232.351 148.334L231.052 145.989L229.392 145.131L222.976 141.709Z" fill="white"/>
<path opacity="0.7" d="M222.942 141.774L222.883 141.655L224.936 138.941L226.925 138.383C227.819 137.946 230.473 139.215 230.473 139.215L235.285 141.783L236.092 142.792L233.619 145.957L230.972 146.138L229.355 145.2L222.942 141.774Z" fill="white"/>
<path opacity="0.7" d="M233.802 141.592C233.649 141.524 230.711 141.749 230.711 141.749L227.264 148.055L228.676 150.852L228.992 151.021L229.151 151.105L229.311 151.19L231.108 152.15L236.09 142.813C236.086 142.811 233.956 141.661 233.802 141.592Z" fill="#C6C6C6"/>
<path opacity="0.7" d="M263.086 160.205C263.476 160.568 263.497 161.177 263.134 161.564L259.317 165.658C258.954 166.047 258.345 166.068 257.956 165.706L251.667 159.84C251.278 159.478 251.258 158.87 251.62 158.481L255.438 154.388C255.801 153.999 256.408 153.978 256.797 154.34L263.086 160.205Z" fill="#394963"/>
<path opacity="0.7" d="M228.969 140.268L227.26 143.469L226.609 144.689L225.07 147.574C225.07 147.574 225.867 149.186 228.985 151.043C229.003 151.054 229.107 150.897 229.107 150.897C228.741 150.161 227.654 148.374 227.654 148.374L229.264 145.321L231.077 141.971C231.077 141.971 233.173 141.882 233.987 141.777C233.987 141.777 234.049 141.596 234.03 141.587C230.752 140.032 228.969 140.268 228.969 140.268Z" fill="#29ABE2"/>
<g opacity="0.7">
<path opacity="0.7" d="M230.993 150.546C232.279 151.232 234.636 147.041 233.244 146.298C232.022 145.647 229.644 149.826 230.993 150.546ZM231.175 150.17C230.256 149.679 232.203 146.218 233.037 146.662C233.985 147.168 232.052 150.637 231.175 150.17Z" fill="black"/>
<path opacity="0.7" d="M231.123 148.575C231.123 148.575 231.529 148.78 231.779 148.296C232.03 147.813 231.639 147.688 231.611 147.66C231.581 147.631 231.123 148.575 231.123 148.575Z" fill="black"/>
<path opacity="0.7" d="M231.716 148.458L232.706 149.146L233.044 148.512L231.899 148.118L231.716 148.458Z" fill="black"/>
<path opacity="0.7" d="M231.65 147.87C231.656 147.86 233.15 146.681 233.15 146.681L232.787 146.409L231.489 147.72L231.65 147.87Z" fill="black"/>
<path opacity="0.7" d="M231.307 148.514C231.302 148.523 231.13 150.466 231.13 150.466L230.734 150.255L231.069 148.508L231.307 148.514Z" fill="black"/>
</g>
<g opacity="0.7">
<path opacity="0.7" d="M229.175 131.799C229.175 131.799 226.447 137.007 220.331 135.219C214.215 133.43 206.294 130.068 206.093 130.062C205.892 130.057 211.934 123.312 229.175 131.799Z" fill="#E8CDA0"/>
<path opacity="0.7" d="M218.105 152.546C218.105 152.546 220.913 147.38 216.021 143.296C211.13 139.211 203.928 134.503 203.812 134.339C203.695 134.175 201.455 142.95 218.105 152.546Z" fill="#E8CDA0"/>
<path opacity="0.7" d="M239.895 163.663C239.895 163.663 238.415 163.36 239.528 162.349C243.19 159.012 248.682 149.48 249.146 144.133C249.244 143.013 249.466 143.15 250.067 143.506C250.518 143.773 254.955 146.977 254.955 146.977C254.955 146.977 253.834 155.943 244.962 165.704L239.895 163.663Z" fill="#E8CDA0"/>
<path opacity="0.7" d="M242.133 145.829C242.397 145.97 242.355 146.308 242.159 146.674L237.701 155.027C237.506 155.393 237.186 155.732 236.924 155.592L234.138 154.105C233.874 153.965 233.814 153.422 234.009 153.057L238.466 144.703C238.663 144.336 239.083 144.201 239.348 144.342L242.133 145.829Z" fill="#E8CDA0"/>
</g>
</g>
<g opacity="0.7">
<path opacity="0.7" d="M232.598 151.102C232.598 151.102 232.267 150.323 233.309 150.6C234.352 150.876 235.504 150.944 235.504 150.944C235.504 150.944 235.748 149.796 235.548 149.514C235.348 149.233 234.046 148.685 234.195 147.657C234.344 146.628 234.356 146.133 235.464 147.197C236.572 148.262 237.42 148.887 237.42 148.887L236.306 152.902L232.807 151.213" fill="#996234"/>
<path opacity="0.7" d="M236.115 152.397C236.115 152.397 233.394 152.625 233.837 151.965C234.281 151.305 234.582 151.931 235.1 151.07C235.619 150.208 234.849 149.952 235.802 149.065C236.753 148.175 236.715 147.632 237.211 148.132C237.705 148.631 238.011 148.846 238.011 148.846L236.115 152.397Z" fill="#EF45B7"/>
<path opacity="0.7" d="M235.587 153.451C235.587 153.451 234.008 152.686 233.586 152.514C232.795 152.192 231.584 150.728 231.301 150.577C231.016 150.425 230.744 150.222 231.363 150.07C231.985 149.921 233.2 151.043 233.822 151.58C234.442 152.116 235.547 152.117 235.784 152.221C236.02 152.325 235.442 152.621 235.442 152.621L235.587 153.451Z" fill="#996234"/>
<path opacity="0.7" d="M238.276 148.646C238.276 148.646 236.891 147.282 236.514 147.028C235.807 146.551 233.916 146.36 233.633 146.209C233.35 146.057 233.028 145.944 233.247 146.543C233.469 147.143 235.077 147.528 235.869 147.745C236.661 147.962 237.039 149.154 237.257 149.292C237.475 149.431 237.637 148.512 237.637 148.512L238.276 148.646Z" fill="#996234"/>
<path opacity="0.7" d="M235.221 154.137C235.221 154.137 237.289 154.868 238.308 153.889C239.329 152.912 239.682 152.574 239.789 151.264C239.896 149.954 240.451 149.526 239.447 149.094C238.443 148.662 238.29 147.754 237.648 148.594C236.955 149.501 235.349 152.074 235.227 152.246C234.494 153.308 235.221 154.137 235.221 154.137Z" fill="#8BC7E8"/>
<path opacity="0.7" d="M239.064 152.476C239.064 152.476 238.385 153.495 237.584 152.861C236.783 152.226 236.207 152.525 236.335 151.617C236.462 150.71 235.923 149.937 236.842 149.997C237.762 150.057 238.284 150.026 238.675 150.545C239.067 151.065 239.221 151.082 239.388 151.565C239.554 152.048 239.064 152.476 239.064 152.476Z" fill="#301705"/>
</g>
</g>
<g opacity="0.5">
<path opacity="0.8" d="M377.179 138.073C370.148 139.029 363.77 143.424 357.886 144.569C352.003 145.716 347.345 144.187 340.275 145.524C333.208 146.862 328.967 151.638 323.999 152.976C319.031 154.314 309.946 154.737 306.359 157.678C302.772 160.618 304.154 163.393 304.154 163.393C304.154 163.393 303.569 165.776 306.348 168.053C309.935 170.994 319.003 171.418 323.972 172.755C328.94 174.092 333.145 178.869 340.215 180.206C347.284 181.544 352.004 180.015 357.887 181.162C363.771 182.307 370.148 186.702 377.179 187.657V138.073Z" fill="url(#paint1_linear)"/>
<g opacity="0.5">
<path opacity="0.5" d="M342.202 175.956V149.209L310.343 148.716C310.343 148.716 283.934 146.248 274.869 162.628C283.575 178.469 309.68 176.674 309.68 176.674L342.202 175.956Z" fill="#D1D1D1"/>
<path opacity="0.5" d="M281.767 162.72C281.767 162.72 281.321 151.139 304.403 150.735C327.485 150.331 329.939 151.93 329.939 151.93V173.443L322.929 174.45H303.085C303.084 174.45 282.468 173.753 281.767 162.72Z" fill="#F4F4F4"/>
<path opacity="0.5" d="M281.625 162.582C281.456 171.532 292.897 174.367 303.705 175.085L321.609 174.79L334.534 174.34L336.147 167.385L334.812 166.262L334.845 158.813C334.845 158.813 335.968 157.871 335.968 157.647C335.968 156.382 334.441 150.824 334.441 150.824C334.441 150.824 325.667 150.626 321.718 150.533C321.583 150.529 303.922 150.022 303.7 150.028C292.918 150.411 281.811 152.85 281.625 162.582ZM321.341 150.937C321.632 150.892 333.591 152.081 333.591 152.081C333.591 152.081 334.453 156.731 334.453 157.924C334.453 158.136 333.38 159.025 333.38 159.025L333.351 166.058L334.626 167.118L333.595 173.307L321.358 174.34C310.738 174.489 310.587 174.281 303.707 174.34C293.165 173.522 281.964 170.3 282.167 162.463C282.37 154.674 293.288 151.517 303.707 150.824C304.108 150.829 321.162 151.027 321.341 150.937Z" fill="#E8E8E8"/>
<path opacity="0.5" d="M302.9 162.487L302.792 162.483L303.326 166.05L304.819 167.506C305.402 168.314 308.342 168.469 308.342 168.469H313.796L314.985 167.904L314.29 163.919L312.04 162.463L310.172 162.487H302.9Z" fill="white"/>
<path opacity="0.5" d="M302.901 162.56L302.792 162.483L303.326 159.122L304.819 157.693C305.402 156.886 308.342 156.757 308.342 156.757H313.796L314.983 157.268L314.29 161.224L312.039 162.631L310.172 162.563L302.901 162.56Z" fill="white"/>
<path opacity="0.5" d="M312.396 157.287C312.23 157.298 309.744 158.881 309.744 158.881L309.67 166.068L312.232 167.87H312.592H312.772H312.953H314.991V157.288C314.986 157.287 312.565 157.276 312.396 157.287Z" fill="#C6C6C6"/>
<path opacity="0.5" d="M346.192 158.713C346.725 158.715 347.153 159.148 347.149 159.68L347.12 165.277C347.116 165.808 346.683 166.237 346.153 166.234L337.552 166.188C337.021 166.185 336.593 165.752 336.596 165.221L336.626 159.624C336.629 159.092 337.062 158.665 337.592 158.667L346.192 158.713Z" fill="#394963"/>
<path opacity="0.5" d="M307.509 158.394V162.023V163.406V166.676C307.509 166.676 308.971 167.723 312.597 167.894C312.618 167.895 312.636 167.708 312.636 167.708C311.966 167.231 310.166 166.166 310.166 166.166L310.149 162.715L310.171 158.905C310.171 158.905 311.978 157.841 312.648 157.365C312.648 157.365 312.618 157.176 312.597 157.177C308.971 157.348 307.509 158.394 307.509 158.394Z" fill="#29ABE2"/>
<g opacity="0.5">
<path opacity="0.5" d="M314.133 166.509C315.591 166.509 315.697 161.702 314.12 161.702C312.734 161.702 312.604 166.509 314.133 166.509ZM314.117 166.091C313.074 166.091 313.163 162.12 314.107 162.12C315.183 162.121 315.11 166.091 314.117 166.091Z" fill="black"/>
<path opacity="0.5" d="M313.319 164.708C313.319 164.708 313.775 164.698 313.767 164.153C313.761 163.609 313.358 163.683 313.319 163.671C313.279 163.659 313.319 164.708 313.319 164.708Z" fill="black"/>
<path opacity="0.5" d="M313.789 164.327L314.986 164.467V163.749L313.789 163.941V164.327Z" fill="black"/>
<path opacity="0.5" d="M313.453 163.839C313.453 163.829 314.216 162.084 314.216 162.084L313.768 162.016L313.241 163.783L313.453 163.839Z" fill="black"/>
<path opacity="0.5" d="M313.453 164.569C313.453 164.58 314.216 166.375 314.216 166.375H313.768L313.241 164.676L313.453 164.569Z" fill="black"/>
</g>
<g opacity="0.5">
<path opacity="0.5" d="M303.704 150.825C303.704 150.825 303.749 156.704 297.511 158.006C291.272 159.307 282.701 160.069 282.522 160.159C282.343 160.249 284.498 151.454 303.704 150.825Z" fill="#E8CDA0"/>
<path opacity="0.5" d="M303.704 174.341C303.704 174.341 303.749 168.462 297.511 167.161C291.272 165.86 282.701 165.097 282.522 165.007C282.343 164.917 284.498 173.713 303.704 174.341Z" fill="#E8CDA0"/>
<path opacity="0.5" d="M328.161 173.892C328.161 173.892 326.714 174.322 327.219 172.905C328.879 168.238 329.238 157.242 327.13 152.307C326.69 151.273 326.948 151.289 327.647 151.32C328.169 151.343 333.593 152.082 333.593 152.082C333.593 152.082 336.825 160.52 333.593 173.309L328.161 173.892Z" fill="#E8CDA0"/>
<path opacity="0.5" d="M321.741 157.104C322.041 157.104 322.161 157.423 322.161 157.838V167.306C322.161 167.721 322.038 168.171 321.741 168.171H318.583C318.284 168.171 317.976 167.721 317.976 167.306V157.838C317.976 157.421 318.283 157.104 318.583 157.104H321.741Z" fill="#E8CDA0"/>
</g>
</g>
<g opacity="0.5">
<path opacity="0.5" d="M315.812 166.246C315.812 166.246 315.153 165.715 316.202 165.468C317.251 165.221 318.301 164.739 318.301 164.739C318.301 164.739 317.976 163.611 317.666 163.457C317.358 163.303 315.951 163.432 315.599 162.454C315.246 161.477 315.023 161.035 316.502 161.452C317.98 161.869 319.023 162.021 319.023 162.021L319.931 166.089L316.049 166.246" fill="#996234"/>
<path opacity="0.5" d="M319.523 165.732C319.523 165.732 317.229 167.214 317.309 166.423C317.39 165.632 317.95 166.043 318.002 165.039C318.054 164.034 317.254 164.171 317.679 162.939C318.099 161.706 317.809 161.246 318.482 161.453C319.153 161.66 319.524 161.706 319.524 161.706L319.523 165.732Z" fill="#EF45B7"/>
<path opacity="0.5" d="M319.554 166.91C319.554 166.91 317.801 166.978 317.348 167.025C316.498 167.113 314.74 166.392 314.42 166.392C314.097 166.392 313.762 166.341 314.236 165.915C314.715 165.491 316.315 165.909 317.116 166.089C317.916 166.271 318.891 165.751 319.149 165.731C319.407 165.712 319.036 166.245 319.036 166.245L319.554 166.91Z" fill="#996234"/>
<path opacity="0.5" d="M319.665 161.404C319.665 161.404 317.8 160.854 317.35 160.807C316.5 160.719 314.742 161.44 314.422 161.44C314.099 161.44 313.764 161.492 314.238 161.917C314.717 162.342 316.317 161.925 317.118 161.743C317.918 161.562 318.813 162.436 319.07 162.455C319.328 162.475 319.038 161.588 319.038 161.588L319.665 161.404Z" fill="#996234"/>
<path opacity="0.5" d="M319.554 167.688C319.554 167.688 321.722 167.359 322.161 166.016C322.601 164.673 322.754 164.209 322.231 163.003C321.709 161.797 321.997 161.157 320.909 161.249C319.821 161.34 319.258 160.612 319.086 161.655C318.901 162.781 318.696 165.807 318.669 166.016C318.522 167.298 319.554 167.688 319.554 167.688Z" fill="#8BC7E8"/>
<path opacity="0.5" d="M322.162 164.413C322.162 164.413 322.042 165.632 321.037 165.449C320.032 165.266 319.664 165.801 319.349 164.941C319.035 164.08 318.195 163.652 319.035 163.272C319.874 162.892 320.319 162.618 320.909 162.892C321.5 163.166 321.643 163.108 322.017 163.457C322.392 163.805 322.162 164.413 322.162 164.413Z" fill="#301705"/>
</g>
</g>
<path d="M223.57 258.938L198.074 258.938L197.603 289.142C197.603 289.142 195.25 314.157 210.864 322.734C225.966 314.498 224.254 289.753 224.254 289.753L223.57 258.938Z" fill="#E5E5E5" fill-opacity="0.6"/>
<path d="M210.795 316.239C210.795 316.239 199.834 316.498 199.449 294.659C199.064 272.819 200.667 270.335 200.667 270.335L221.175 270.335L221.818 277.295L221.818 296.07C221.818 296.07 221.312 315.575 210.795 316.239Z" fill="#E2E2E2" fill-opacity="0.9"/>
<path d="M210.821 316.373C219.353 316.534 222.055 305.708 222.74 295.484L222.458 278.543L222.03 266.315L215.399 264.786L214.33 266.049L207.228 266.018C207.228 266.018 206.33 264.956 206.116 264.956C204.911 264.956 199.613 266.399 199.613 266.399C199.613 266.399 199.424 274.702 199.335 278.438C199.332 278.565 198.848 295.273 198.856 295.483C199.218 305.689 201.544 316.198 210.821 316.373ZM199.72 278.798C199.678 278.522 200.811 267.207 200.811 267.207C200.811 267.207 205.243 266.392 206.381 266.392C206.583 266.392 207.431 267.406 207.431 267.406L214.135 267.437L215.144 266.23L221.045 267.207L222.029 278.783C222.172 288.832 221.974 288.973 222.029 295.484C221.25 305.459 218.179 316.055 210.707 315.864C203.283 315.674 200.274 305.344 199.613 295.484C199.618 295.102 199.806 278.967 199.72 278.798Z" fill="#CECECE"/>
<path d="M206.3 294.316L207.43 295.728L210.335 296.23L210.335 296.127L210.8 296.127L210.843 296.127L210.94 296.127L210.94 296.23L214.089 295.728L215.47 294.316C216.239 293.763 216.379 290.983 216.379 290.983L216.379 285.824L215.868 284.699L212.083 285.357L210.821 287.35L209.56 285.357L205.893 284.699L205.5 285.824L205.5 290.983C205.5 290.983 205.53 293.764 206.3 294.316Z" fill="#BABABA" fill-opacity="0.4"/>
<path d="M205.774 287.22C205.784 287.379 207.292 289.749 207.292 289.749L214.101 289.829L215.775 287.416L215.775 287.076L215.775 286.907L215.775 286.737L215.775 284.731L205.774 284.731C205.774 284.731 205.763 287.061 205.774 287.22Z" fill="#C6C6C6"/>
<path d="M206.83 291.329L210.287 291.329L211.607 291.329L214.722 291.329C214.722 291.329 215.721 290.223 215.884 286.793C215.884 286.773 215.705 286.896 215.705 286.896C215.251 287.529 214.237 289.302 214.237 289.302L210.947 289.351L207.314 289.348C207.314 289.348 206.3 287.647 205.846 287.013C205.846 287.013 205.667 286.77 205.667 286.789C205.83 290.219 206.83 291.329 206.83 291.329Z" fill="#29ABE2" fill-opacity="0.4"/>
<path d="M214.565 285.617C214.565 284.237 209.983 284.137 209.983 285.63C209.983 286.941 214.565 287.064 214.565 285.617ZM214.166 285.632C214.166 286.618 210.381 286.534 210.381 285.641C210.381 284.624 214.166 284.691 214.166 285.632Z" fill="black" fill-opacity="0.4"/>
<path d="M212.848 286.388C212.848 286.388 212.837 285.959 212.319 285.963C211.8 285.968 211.87 286.35 211.859 286.388C211.848 286.425 212.848 286.388 212.848 286.388Z" fill="black" fill-opacity="0.4"/>
<path d="M212.485 285.931L212.618 284.731L211.935 284.731L212.116 285.931L212.485 285.931Z" fill="black" fill-opacity="0.4"/>
<path d="M212.019 286.26C212.008 286.26 210.345 285.538 210.345 285.538L210.281 285.962L211.966 286.461L212.019 286.26Z" fill="black" fill-opacity="0.4"/>
<path d="M212.779 286.26C212.79 286.26 214.566 285.538 214.566 285.538L214.566 285.962L212.914 286.461L212.779 286.26Z" fill="black" fill-opacity="0.4"/>
<path d="M199.613 295.484C199.613 295.484 205.216 295.442 206.457 301.343C207.698 307.245 208.426 315.354 208.511 315.524C208.597 315.694 200.212 313.656 199.613 295.484Z" fill="#E8CDA0" fill-opacity="0.4"/>
<path d="M222.03 295.484C222.03 295.484 216.426 295.442 215.186 301.343C213.945 307.245 213.218 315.354 213.132 315.524C213.047 315.694 221.431 313.656 222.03 295.484Z" fill="#E8CDA0" fill-opacity="0.4"/>
<path d="M221.603 272.345C221.603 272.345 222.013 273.713 220.661 273.236C216.213 271.666 205.732 271.325 201.026 273.321C200.04 273.739 200.056 273.492 200.085 272.832C200.107 272.338 200.812 267.208 200.812 267.208C200.812 267.208 208.855 264.15 221.046 267.208L221.603 272.345Z" fill="#E8CDA0" fill-opacity="0.4"/>
<path d="M205.5 278.419C205.5 278.135 205.902 278.132 206.297 278.132L215.323 278.132C215.719 278.132 215.775 278.134 215.775 278.419L215.775 281.406C215.775 281.689 215.719 281.731 215.323 281.731L206.297 281.731C205.901 281.731 205.5 281.688 205.5 281.406L205.5 278.419Z" fill="#E8CDA0" fill-opacity="0.4"/>
<path d="M228.074 300.583C228.074 299.346 227.063 298.342 225.816 298.342C224.569 298.342 223.558 299.346 223.558 300.583C223.558 301.821 224.569 302.824 225.816 302.824C227.063 302.824 228.074 301.821 228.074 300.583Z" fill="#3B59AD" fill-opacity="0.4"/>
<path d="M198.055 300.583C198.055 299.346 197.044 298.342 195.797 298.342C194.55 298.342 193.54 299.346 193.54 300.583C193.54 301.821 194.55 302.824 195.797 302.824C197.044 302.824 198.055 301.821 198.055 300.583Z" fill="#3B59AD" fill-opacity="0.4"/>
<path d="M198.055 275.799C198.055 274.561 197.044 273.558 195.797 273.558C194.55 273.558 193.54 274.561 193.54 275.799C193.54 277.037 194.55 278.04 195.797 278.04C197.044 278.04 198.055 277.037 198.055 275.799Z" fill="#3B59AD" fill-opacity="0.4"/>
<path d="M228.34 275.535C228.34 274.298 227.329 273.294 226.082 273.294C224.835 273.294 223.824 274.298 223.824 275.535C223.824 276.773 224.835 277.776 226.082 277.776C227.329 277.776 228.34 276.773 228.34 275.535Z" fill="#3B59AD" fill-opacity="0.4"/>
<path d="M152.519 258.938L127.023 258.938L126.552 289.142C126.552 289.142 124.199 314.157 139.814 322.734C154.915 314.498 153.203 289.753 153.203 289.753L152.519 258.938Z" fill="#E5E5E5" fill-opacity="0.6"/>
<path d="M139.744 316.239C139.744 316.239 128.783 316.498 128.398 294.659C128.013 272.819 129.616 270.335 129.616 270.335L150.124 270.335L150.767 277.295L150.767 296.07C150.767 296.07 150.262 315.575 139.744 316.239Z" fill="#E2E2E2" fill-opacity="0.9"/>
<path d="M139.771 316.373C148.302 316.534 151.004 305.708 151.689 295.484L151.407 278.543L150.979 266.315L144.349 264.786L143.279 266.049L136.178 266.018C136.178 266.018 135.28 264.956 135.066 264.956C133.861 264.956 128.562 266.399 128.562 266.399C128.562 266.399 128.373 274.702 128.285 278.438C128.282 278.565 127.797 295.273 127.805 295.483C128.167 305.689 130.494 316.198 139.771 316.373ZM128.67 278.798C128.627 278.522 129.761 267.207 129.761 267.207C129.761 267.207 134.192 266.392 135.33 266.392C135.532 266.392 136.38 267.406 136.38 267.406L143.084 267.437L144.093 266.23L149.995 267.207L150.979 278.783C151.121 288.832 150.923 288.973 150.979 295.484C150.2 305.459 147.128 316.055 139.656 315.864C132.232 315.674 129.223 305.344 128.562 295.484C128.567 295.102 128.755 278.967 128.67 278.798Z" fill="#CECECE"/>
<path d="M135.249 294.316L136.379 295.728L139.285 296.23L139.285 296.127L139.749 296.127L139.792 296.127L139.889 296.127L139.889 296.23L143.038 295.728L144.419 294.316C145.189 293.763 145.328 290.983 145.328 290.983L145.328 285.824L144.817 284.699L141.032 285.357L139.77 287.35L138.509 285.357L134.843 284.699L134.45 285.824L134.45 290.983C134.45 290.983 134.479 293.764 135.249 294.316Z" fill="#BABABA" fill-opacity="0.4"/>
<path d="M134.723 287.22C134.734 287.379 136.242 289.749 136.242 289.749L143.05 289.829L144.724 287.416L144.724 287.076L144.724 286.907L144.724 286.737L144.724 284.731L134.723 284.731C134.723 284.731 134.713 287.061 134.723 287.22Z" fill="#C6C6C6"/>
<path d="M135.779 291.329L139.236 291.329L140.556 291.329L143.671 291.329C143.671 291.329 144.67 290.223 144.833 286.793C144.834 286.773 144.654 286.896 144.654 286.896C144.2 287.529 143.186 289.302 143.186 289.302L139.896 289.351L136.264 289.348C136.264 289.348 135.249 287.647 134.795 287.013C134.795 287.013 134.616 286.77 134.617 286.789C134.779 290.219 135.779 291.329 135.779 291.329Z" fill="#29ABE2" fill-opacity="0.4"/>
<path d="M143.514 285.617C143.514 284.237 138.932 284.137 138.932 285.63C138.932 286.941 143.514 287.064 143.514 285.617ZM143.115 285.632C143.115 286.618 139.33 286.534 139.33 285.641C139.33 284.624 143.115 284.691 143.115 285.632Z" fill="black" fill-opacity="0.4"/>
<path d="M141.798 286.388C141.798 286.388 141.787 285.959 141.268 285.963C140.75 285.968 140.819 286.35 140.808 286.388C140.797 286.425 141.798 286.388 141.798 286.388Z" fill="black" fill-opacity="0.4"/>
<path d="M141.434 285.931L141.567 284.731L140.884 284.731L141.065 285.931L141.434 285.931Z" fill="black" fill-opacity="0.4"/>
<path d="M140.968 286.26C140.957 286.26 139.294 285.538 139.294 285.538L139.23 285.962L140.915 286.461L140.968 286.26Z" fill="black" fill-opacity="0.4"/>
<path d="M141.728 286.26C141.739 286.26 143.515 285.538 143.515 285.538L143.515 285.962L141.863 286.461L141.728 286.26Z" fill="black" fill-opacity="0.4"/>
<path d="M128.562 295.484C128.562 295.484 134.166 295.442 135.406 301.343C136.647 307.245 137.375 315.354 137.46 315.524C137.546 315.694 129.161 313.656 128.562 295.484Z" fill="#E8CDA0" fill-opacity="0.4"/>
<path d="M150.979 295.484C150.979 295.484 145.375 295.442 144.135 301.343C142.895 307.245 142.167 315.354 142.082 315.524C141.996 315.694 150.38 313.656 150.979 295.484Z" fill="#E8CDA0" fill-opacity="0.4"/>
<path d="M150.552 272.345C150.552 272.345 150.962 273.713 149.611 273.236C145.162 271.666 134.681 271.325 129.975 273.321C128.989 273.739 129.005 273.492 129.034 272.832C129.056 272.338 129.761 267.208 129.761 267.208C129.761 267.208 137.804 264.15 149.996 267.208L150.552 272.345Z" fill="#E8CDA0" fill-opacity="0.4"/>
<path d="M134.45 278.419C134.45 278.135 134.851 278.132 135.246 278.132L144.272 278.132C144.668 278.132 144.724 278.134 144.724 278.419L144.724 281.406C144.724 281.689 144.668 281.731 144.272 281.731L135.246 281.731C134.85 281.731 134.45 281.688 134.45 281.406L134.45 278.419Z" fill="#E8CDA0" fill-opacity="0.4"/>
<path d="M157.023 300.583C157.023 299.346 156.012 298.342 154.765 298.342C153.518 298.342 152.507 299.346 152.507 300.583C152.507 301.821 153.518 302.824 154.765 302.824C156.012 302.824 157.023 301.821 157.023 300.583Z" fill="#3B59AD" fill-opacity="0.4"/>
<path d="M127.005 300.583C127.005 299.346 125.994 298.342 124.747 298.342C123.5 298.342 122.489 299.346 122.489 300.583C122.489 301.821 123.5 302.824 124.747 302.824C125.994 302.824 127.005 301.821 127.005 300.583Z" fill="#3B59AD" fill-opacity="0.4"/>
<path d="M127.005 275.799C127.005 274.561 125.994 273.558 124.747 273.558C123.5 273.558 122.489 274.561 122.489 275.799C122.489 277.037 123.5 278.04 124.747 278.04C125.994 278.04 127.005 277.037 127.005 275.799Z" fill="#3B59AD" fill-opacity="0.4"/>
<path d="M157.289 275.535C157.289 274.298 156.278 273.294 155.031 273.294C153.784 273.294 152.773 274.298 152.773 275.535C152.773 276.773 153.784 277.776 155.031 277.776C156.278 277.776 157.289 276.773 157.289 275.535Z" fill="#3B59AD" fill-opacity="0.4"/>
<path d="M13.0626 259.842L-12.4338 259.842L-12.9046 290.046C-12.9046 290.046 -15.2574 315.062 0.357007 323.639C15.4583 315.402 13.7467 290.657 13.7467 290.657L13.0626 259.842Z" fill="#E5E5E5" fill-opacity="0.6"/>
<path d="M0.287892 317.143C0.287892 317.143 -10.6735 317.402 -11.0585 295.563C-11.4435 273.723 -9.84007 271.239 -9.84007 271.239L10.6673 271.239L11.3109 278.199L11.3109 296.974C11.3109 296.974 10.8051 316.479 0.287892 317.143Z" fill="#E2E2E2" fill-opacity="0.9"/>
<path d="M0.314075 317.278C8.84591 317.438 11.5474 306.613 12.2328 296.388L11.9505 279.447L11.5226 267.219L4.89214 265.691L3.82241 266.953L-3.27888 266.922C-3.27888 266.922 -4.17697 265.86 -4.39091 265.86C-5.59602 265.86 -10.8945 267.304 -10.8945 267.304C-10.8945 267.304 -11.0837 275.606 -11.1719 279.342C-11.1749 279.469 -11.6596 296.177 -11.6518 296.387C-11.2891 306.593 -8.96294 317.102 0.314075 317.278ZM-10.7869 279.702C-10.8292 279.426 -9.69604 268.111 -9.69604 268.111C-9.69604 268.111 -5.26423 267.296 -4.12681 267.296C-3.92435 267.296 -3.07642 268.311 -3.07642 268.311L3.6272 268.341L4.63649 267.134L10.5381 268.111L11.522 279.688C11.6647 289.736 11.4664 289.877 11.522 296.388C10.743 306.363 7.67163 316.96 0.199852 316.768C-7.22478 316.578 -10.2333 306.249 -10.8945 296.388C-10.8891 296.006 -10.7011 279.872 -10.7869 279.702Z" fill="#CECECE"/>
<path d="M-4.20726 295.22L-3.0771 296.632L-0.171905 297.135L-0.171905 297.032L0.292851 297.032L0.335761 297.032L0.432461 297.032L0.432461 297.135L3.58181 296.632L4.96218 295.22C5.73215 294.668 5.87176 291.887 5.87176 291.887L5.87176 286.728L5.36047 285.603L1.57592 286.261L0.313398 288.254L-0.94731 286.261L-4.614 285.603L-5.00684 286.728L-5.00684 291.887C-5.00684 291.887 -4.97722 294.668 -4.20726 295.22Z" fill="#BABABA" fill-opacity="0.4"/>
<path d="M-4.73374 288.124C-4.72286 288.283 -3.21496 290.653 -3.21496 290.653L3.59322 290.733L5.26793 288.32L5.26793 287.981L5.26793 287.811L5.26793 287.641L5.26793 285.635L-4.73313 285.635C-4.73373 285.635 -4.74401 287.965 -4.73374 288.124Z" fill="#C6C6C6"/>
<path d="M-3.67764 292.233L-0.220064 292.233L1.09927 292.233L4.21478 292.233C4.21478 292.233 5.21379 291.127 5.37637 287.698C5.37697 287.677 5.19748 287.8 5.19748 287.8C4.7436 288.433 3.72948 290.206 3.72948 290.206L0.439302 290.256L-3.19294 290.252C-3.19294 290.252 -4.20707 288.551 -4.66156 287.918C-4.66156 287.918 -4.84045 287.674 -4.83984 287.693C-4.67727 291.123 -3.67764 292.233 -3.67764 292.233Z" fill="#29ABE2" fill-opacity="0.4"/>
<path d="M4.05788 286.522C4.05788 285.141 -0.524414 285.041 -0.524414 286.534C-0.524414 287.845 4.05788 287.968 4.05788 286.522ZM3.6584 286.536C3.6584 287.523 -0.126748 287.439 -0.126748 286.545C-0.126143 285.528 3.6584 285.595 3.6584 286.536Z" fill="black" fill-opacity="0.4"/>
<path d="M2.341 287.292C2.341 287.292 2.33012 286.863 1.81157 286.868C1.29303 286.872 1.36253 287.255 1.35165 287.292C1.34077 287.329 2.341 287.292 2.341 287.292Z" fill="black" fill-opacity="0.4"/>
<path d="M1.97722 286.835L2.11078 285.635L1.42725 285.635L1.60856 286.835L1.97722 286.835Z" fill="black" fill-opacity="0.4"/>
<path d="M1.51159 287.164C1.50071 287.164 -0.162498 286.442 -0.162498 286.442L-0.226562 286.867L1.45841 287.365L1.51159 287.164Z" fill="black" fill-opacity="0.4"/>
<path d="M2.27148 287.164C2.28236 287.164 4.05859 286.442 4.05859 286.442L4.05859 286.867L2.40626 287.365L2.27148 287.164Z" fill="black" fill-opacity="0.4"/>
<path d="M11.5226 296.388C11.5226 296.388 5.91834 296.346 4.67818 302.247C3.43802 308.149 2.71037 316.259 2.62516 316.428C2.53994 316.598 10.9237 314.561 11.5226 296.388Z" fill="#E8CDA0" fill-opacity="0.4"/>
<path d="M11.0957 273.249C11.0957 273.249 11.5055 274.617 10.1541 274.14C5.70535 272.57 -4.77558 272.23 -9.48178 274.225C-10.4675 274.643 -10.4518 274.396 -10.4228 273.737C-10.4004 273.242 -9.69512 268.112 -9.69512 268.112C-9.69512 268.112 -1.65281 265.055 10.5391 268.112L11.0957 273.249Z" fill="#E8CDA0" fill-opacity="0.4"/>
<path d="M-5.00684 279.323C-5.00684 279.039 -4.60554 279.037 -4.21028 279.037L4.81594 279.037C5.2118 279.037 5.2674 279.039 5.2674 279.323L5.2674 282.311C5.2674 282.593 5.2118 282.636 4.81594 282.636L-4.21028 282.636C-4.60614 282.636 -5.00684 282.593 -5.00684 282.311L-5.00684 279.323Z" fill="#E8CDA0" fill-opacity="0.4"/>
<path d="M17.5666 301.488C17.5666 300.25 16.5557 299.247 15.3087 299.247C14.0617 299.247 13.0508 300.25 13.0508 301.488C13.0508 302.725 14.0617 303.729 15.3087 303.729C16.5557 303.729 17.5666 302.725 17.5666 301.488Z" fill="#3B59AD" fill-opacity="0.4"/>
<path d="M17.8322 276.44C17.8322 275.202 16.8213 274.199 15.5743 274.199C14.3273 274.199 13.3164 275.202 13.3164 276.44C13.3164 277.677 14.3273 278.681 15.5743 278.681C16.8213 278.681 17.8322 277.677 17.8322 276.44Z" fill="#3B59AD" fill-opacity="0.4"/>
<path d="M81.4679 261.045L55.9715 261.045L55.5007 291.249C55.5007 291.249 53.1479 316.265 68.7623 324.842C83.8636 316.605 82.152 291.86 82.152 291.86L81.4679 261.045Z" fill="#E5E5E5" fill-opacity="0.6"/>
<path d="M68.6932 318.347C68.6932 318.347 57.7318 318.605 57.3468 296.766C56.9618 274.926 58.5652 272.442 58.5652 272.442L79.0725 272.442L79.7162 279.402L79.7162 298.177C79.7162 298.177 79.2103 317.683 68.6932 318.347Z" fill="#E2E2E2" fill-opacity="0.9"/>
<path d="M68.7193 318.481C77.2512 318.641 79.9527 307.816 80.638 297.591L80.3558 280.65L79.9279 268.422L73.2974 266.894L72.2277 268.156L65.1264 268.125C65.1264 268.125 64.2283 267.063 64.0144 267.063C62.8093 267.063 57.5108 268.507 57.5108 268.507C57.5108 268.507 57.3216 276.809 57.2334 280.545C57.2304 280.672 56.7457 297.381 56.7535 297.591C57.1161 307.796 59.4423 318.306 68.7193 318.481ZM57.6184 280.905C57.5761 280.629 58.7092 269.314 58.7092 269.314C58.7092 269.314 63.141 268.499 64.2785 268.499C64.4809 268.499 65.3289 269.514 65.3289 269.514L72.0325 269.544L73.0418 268.337L78.9434 269.314L79.9273 280.891C80.0699 290.939 79.8717 291.081 79.9273 297.591C79.1483 307.566 76.0769 318.163 68.6051 317.971C61.1805 317.781 58.172 307.452 57.5108 297.591C57.5162 297.209 57.7042 281.075 57.6184 280.905Z" fill="#CECECE"/>
<path d="M64.198 296.423L65.3282 297.835L68.2334 298.338L68.2334 298.235L68.6981 298.235L68.741 298.235L68.8377 298.235L68.8377 298.338L71.9871 297.835L73.3675 296.423C74.1374 295.871 74.277 293.091 74.277 293.091L74.277 287.932L73.7657 286.806L69.9812 287.464L68.7187 289.457L67.458 287.464L63.7913 286.806L63.3984 287.932L63.3984 293.091C63.3984 293.091 63.4281 295.871 64.198 296.423Z" fill="#BABABA" fill-opacity="0.4"/>
<path d="M63.6715 289.327C63.6824 289.486 65.1903 291.856 65.1903 291.856L71.9985 291.937L73.6732 289.523L73.6732 289.184L73.6732 289.014L73.6732 288.844L73.6732 286.838L63.6721 286.838C63.6715 286.838 63.6613 289.168 63.6715 289.327Z" fill="#C6C6C6"/>
<path d="M64.7276 293.437L68.1852 293.437L69.5045 293.437L72.6201 293.437C72.6201 293.437 73.6191 292.33 73.7816 288.901C73.7822 288.88 73.6028 289.003 73.6028 289.003C73.1489 289.637 72.1347 291.409 72.1347 291.409L68.8446 291.459L65.2123 291.455C65.2123 291.455 64.1982 289.754 63.7437 289.121C63.7437 289.121 63.5648 288.877 63.5654 288.896C63.728 292.326 64.7276 293.437 64.7276 293.437Z" fill="#29ABE2" fill-opacity="0.4"/>
<path d="M72.4632 287.725C72.4632 286.344 67.8809 286.244 67.8809 287.737C67.8809 289.048 72.4632 289.171 72.4632 287.725ZM72.0637 287.739C72.0637 288.726 68.2785 288.642 68.2785 287.748C68.2791 286.731 72.0637 286.799 72.0637 287.739Z" fill="black" fill-opacity="0.4"/>
<path d="M70.7463 288.495C70.7463 288.495 70.7354 288.066 70.2168 288.071C69.6983 288.075 69.7678 288.458 69.7569 288.495C69.746 288.532 70.7463 288.495 70.7463 288.495Z" fill="black" fill-opacity="0.4"/>
<path d="M70.3825 288.038L70.5161 286.838L69.8325 286.838L70.0138 288.038L70.3825 288.038Z" fill="black" fill-opacity="0.4"/>
<path d="M69.9169 288.367C69.906 288.367 68.2428 287.645 68.2428 287.645L68.1787 288.07L69.8637 288.568L69.9169 288.367Z" fill="black" fill-opacity="0.4"/>
<path d="M70.6768 288.367C70.6876 288.367 72.4639 287.645 72.4639 287.645L72.4639 288.07L70.8115 288.568L70.6768 288.367Z" fill="black" fill-opacity="0.4"/>
<path d="M57.5107 297.591C57.5107 297.591 63.1144 297.549 64.3552 303.45C65.5959 309.352 66.3236 317.462 66.4088 317.632C66.4946 317.801 58.1097 315.764 57.5107 297.591Z" fill="#E8CDA0" fill-opacity="0.4"/>
<path d="M79.9279 297.591C79.9279 297.591 74.3236 297.549 73.0835 303.45C71.8433 309.352 71.1156 317.462 71.0304 317.632C70.9452 317.801 79.329 315.764 79.9279 297.591Z" fill="#E8CDA0" fill-opacity="0.4"/>
<path d="M79.501 274.452C79.501 274.452 79.9107 275.82 78.5594 275.343C74.1106 273.773 63.6297 273.433 58.9235 275.428C57.9378 275.846 57.9535 275.599 57.9825 274.94C58.0049 274.445 58.7102 269.315 58.7102 269.315C58.7102 269.315 66.7525 266.258 78.9443 269.315L79.501 274.452Z" fill="#E8CDA0" fill-opacity="0.4"/>
<path d="M63.3984 280.526C63.3984 280.242 63.7997 280.24 64.195 280.24L73.2212 280.24C73.6171 280.24 73.6727 280.242 73.6727 280.526L73.6727 283.514C73.6727 283.796 73.6171 283.839 73.2212 283.839L64.195 283.839C63.7991 283.839 63.3984 283.796 63.3984 283.514L63.3984 280.526Z" fill="#E8CDA0" fill-opacity="0.4"/>
<path d="M85.9719 302.691C85.9719 301.453 84.961 300.45 83.714 300.45C82.467 300.45 81.4561 301.453 81.4561 302.691C81.4561 303.928 82.467 304.932 83.714 304.932C84.961 304.932 85.9719 303.928 85.9719 302.691Z" fill="#3B59AD" fill-opacity="0.4"/>
<path d="M55.9533 302.691C55.9533 301.453 54.9424 300.45 53.6954 300.45C52.4484 300.45 51.4375 301.453 51.4375 302.691C51.4375 303.928 52.4484 304.932 53.6954 304.932C54.9424 304.932 55.9533 303.928 55.9533 302.691Z" fill="#3B59AD" fill-opacity="0.4"/>
<path d="M55.9533 277.907C55.9533 276.669 54.9424 275.666 53.6954 275.666C52.4484 275.666 51.4375 276.669 51.4375 277.907C51.4375 279.144 52.4484 280.147 53.6954 280.147C54.9424 280.147 55.9533 279.144 55.9533 277.907Z" fill="#3B59AD" fill-opacity="0.4"/>
<path d="M86.2375 277.643C86.2375 276.405 85.2266 275.402 83.9796 275.402C82.7326 275.402 81.7217 276.405 81.7217 277.643C81.7217 278.88 82.7326 279.884 83.9796 279.884C85.2266 279.884 86.2375 278.88 86.2375 277.643Z" fill="#3B59AD" fill-opacity="0.4"/>
<path d="M24.4486 108.292L49.945 108.292L50.4158 78.0887C50.4158 78.0887 52.7686 53.073 37.1542 44.4961C22.0529 52.7329 23.7645 77.4775 23.7645 77.4775L24.4486 108.292Z" fill="#E5E5E5" fill-opacity="0.6"/>
<path d="M37.2233 50.9913C37.2233 50.9913 48.1847 50.7328 48.5697 72.5719C48.9547 94.4115 47.3513 96.8954 47.3513 96.8954L26.844 96.8954L26.2003 89.9356L26.2003 71.1605C26.2003 71.1605 26.7062 51.6554 37.2233 50.9913Z" fill="#E2E2E2" fill-opacity="0.9"/>
<path d="M37.1972 50.8572C28.6653 50.6965 25.9638 61.5221 25.2785 71.7468L25.5607 88.6877L25.9886 100.916L32.6191 102.444L33.6888 101.181L40.7901 101.213C40.7901 101.213 41.6882 102.275 41.9021 102.275C43.1072 102.275 48.4057 100.831 48.4057 100.831C48.4057 100.831 48.5949 92.529 48.6831 88.7926C48.6862 88.6655 49.1708 71.9573 49.163 71.7474C48.8004 61.5419 46.4742 51.0324 37.1972 50.8572ZM48.2981 88.4327C48.3404 88.7087 47.2073 100.024 47.2073 100.024C47.2073 100.024 42.7755 100.839 41.638 100.839C41.4356 100.839 40.5876 99.824 40.5876 99.824L33.884 99.7934L32.8747 101.001L26.9731 100.024L25.9892 88.4471C25.8466 78.3988 26.0448 78.2573 25.9892 71.7468C26.7682 61.7717 29.8396 51.1751 37.3114 51.3665C44.736 51.5566 47.7446 61.8862 48.4057 71.7468C48.4003 72.1289 48.2123 88.263 48.2981 88.4327Z" fill="#CECECE"/>
<path d="M41.7185 72.9146L40.5883 71.5027L37.6831 71L37.6831 71.1032L37.2184 71.1032L37.1755 71.1032L37.0788 71.1032L37.0788 71L33.9294 71.5027L32.549 72.9146C31.7791 73.4671 31.6395 76.2473 31.6395 76.2473L31.6395 81.4064L32.1508 82.5317L35.9353 81.8736L37.1978 79.8804L38.4585 81.8736L42.1252 82.5317L42.5181 81.4064L42.5181 76.2473C42.5181 76.2473 42.4885 73.4665 41.7185 72.9146Z" fill="#BABABA" fill-opacity="0.4"/>
<path d="M42.245 80.0106C42.2341 79.8517 40.7262 77.4817 40.7262 77.4817L33.918 77.4014L32.2433 79.8145L32.2433 80.154L32.2433 80.3237L32.2433 80.4935L32.2433 82.4999L42.2444 82.4999C42.245 82.4999 42.2552 80.1696 42.245 80.0106Z" fill="#C6C6C6"/>
<path d="M41.1889 75.9014L37.7313 75.9014L36.412 75.9014L33.2965 75.9014C33.2965 75.9014 32.2974 77.0074 32.1349 80.4373C32.1343 80.4577 32.3137 80.3347 32.3137 80.3347C32.7676 79.7013 33.7818 77.9288 33.7818 77.9288L37.0719 77.879L40.7042 77.8826C40.7042 77.8826 41.7183 79.5837 42.1728 80.2171C42.1728 80.2171 42.3517 80.4607 42.3511 80.4415C42.1885 77.0116 41.1889 75.9014 41.1889 75.9014Z" fill="#29ABE2" fill-opacity="0.4"/>
<path d="M33.4534 81.6132C33.4534 82.9934 38.0356 83.0936 38.0356 81.6006C38.0356 80.2894 33.4534 80.1664 33.4534 81.6132ZM33.8528 81.5988C33.8528 80.6121 37.638 80.6961 37.638 81.5898C37.6374 82.6065 33.8528 82.5394 33.8528 81.5988Z" fill="black" fill-opacity="0.4"/>
<path d="M35.1702 80.8424C35.1702 80.8424 35.1811 81.2719 35.6997 81.2671C36.2182 81.2629 36.1487 80.8802 36.1596 80.8424C36.1705 80.8058 35.1702 80.8424 35.1702 80.8424Z" fill="black" fill-opacity="0.4"/>
<path d="M35.534 81.2998L35.4005 82.4995L36.084 82.4995L35.9027 81.2998L35.534 81.2998Z" fill="black" fill-opacity="0.4"/>
<path d="M35.9996 80.9705C36.0105 80.9705 37.6737 81.6927 37.6737 81.6927L37.7378 81.268L36.0528 80.7695L35.9996 80.9705Z" fill="black" fill-opacity="0.4"/>
<path d="M35.2397 80.9705C35.2289 80.9705 33.4526 81.6927 33.4526 81.6927L33.4526 81.268L35.105 80.7695L35.2397 80.9705Z" fill="black" fill-opacity="0.4"/>
<path d="M48.4058 71.7466C48.4058 71.7466 42.8021 71.7885 41.5613 65.8875C40.3206 59.9858 39.5929 51.8761 39.5077 51.7064C39.4219 51.5366 47.8068 53.5742 48.4058 71.7466Z" fill="#E8CDA0" fill-opacity="0.4"/>
<path d="M25.9886 71.7466C25.9886 71.7466 31.5929 71.7886 32.833 65.8875C34.0732 59.9858 34.8009 51.8761 34.8861 51.7064C34.9713 51.5366 26.5875 53.5742 25.9886 71.7466Z" fill="#E8CDA0" fill-opacity="0.4"/>
<path d="M26.4155 94.8859C26.4155 94.8859 26.0058 93.5177 27.3571 93.9945C31.8059 95.5649 42.2868 95.905 46.993 93.91C47.9787 93.4919 47.963 93.7384 47.934 94.3982C47.9117 94.8925 47.2064 100.023 47.2064 100.023C47.2064 100.023 39.164 103.08 26.9722 100.023L26.4155 94.8859Z" fill="#E8CDA0" fill-opacity="0.4"/>
<path d="M42.5181 88.8119C42.5181 89.0956 42.1168 89.098 41.7215 89.098L32.6953 89.098C32.2994 89.098 32.2438 89.0962 32.2438 88.8119L32.2438 85.8241C32.2438 85.5416 32.2994 85.499 32.6953 85.499L41.7215 85.499C42.1174 85.499 42.5181 85.5422 42.5181 85.8241L42.5181 88.8119Z" fill="#E8CDA0" fill-opacity="0.4"/>
<path d="M19.9446 66.6472C19.9446 67.8848 20.9555 68.8881 22.2025 68.8881C23.4495 68.8881 24.4604 67.8848 24.4604 66.6472C24.4604 65.4096 23.4495 64.4062 22.2025 64.4062C20.9555 64.4062 19.9446 65.4096 19.9446 66.6472Z" fill="#3B59AD" fill-opacity="0.4"/>
<path d="M49.9632 66.6472C49.9632 67.8848 50.9741 68.8881 52.2211 68.8881C53.4681 68.8881 54.479 67.8848 54.479 66.6472C54.479 65.4096 53.4681 64.4062 52.2211 64.4062C50.9741 64.4062 49.9632 65.4096 49.9632 66.6472Z" fill="#3B59AD" fill-opacity="0.4"/>
<path d="M49.9632 91.4314C49.9632 92.669 50.9741 93.6723 52.2211 93.6723C53.4681 93.6723 54.479 92.669 54.479 91.4314C54.479 90.1937 53.4681 89.1904 52.2211 89.1904C50.9741 89.1904 49.9632 90.1937 49.9632 91.4314Z" fill="#3B59AD" fill-opacity="0.4"/>
<path d="M19.679 91.6951C19.679 92.9327 20.6899 93.936 21.9369 93.936C23.1839 93.936 24.1948 92.9327 24.1948 91.6951C24.1948 90.4574 23.1839 89.4541 21.9369 89.4541C20.6899 89.4541 19.679 90.4574 19.679 91.6951Z" fill="#3B59AD" fill-opacity="0.4"/>
<path d="M106.535 108.292L132.031 108.292L132.502 78.0887C132.502 78.0887 134.855 53.073 119.241 44.4961C104.139 52.7329 105.851 77.4775 105.851 77.4775L106.535 108.292Z" fill="#E5E5E5" fill-opacity="0.6"/>
<path d="M119.31 50.9913C119.31 50.9913 130.271 50.7328 130.656 72.5719C131.041 94.4115 129.438 96.8954 129.438 96.8954L108.93 96.8954L108.287 89.9356L108.287 71.1605C108.287 71.1605 108.793 51.6554 119.31 50.9913Z" fill="#E2E2E2" fill-opacity="0.9"/>
<path d="M119.284 50.8572C110.752 50.6965 108.05 61.5221 107.365 71.7468L107.647 88.6877L108.075 100.916L114.706 102.444L115.775 101.181L122.877 101.213C122.877 101.213 123.775 102.275 123.989 102.275C125.194 102.275 130.492 100.831 130.492 100.831C130.492 100.831 130.681 92.529 130.77 88.7926C130.773 88.6655 131.257 71.9573 131.249 71.7474C130.887 61.5419 128.561 51.0324 119.284 50.8572ZM130.385 88.4327C130.427 88.7087 129.294 100.024 129.294 100.024C129.294 100.024 124.862 100.839 123.724 100.839C123.522 100.839 122.674 99.824 122.674 99.824L115.97 99.7934L114.961 101.001L109.06 100.024L108.076 88.4471C107.933 78.3988 108.131 78.2573 108.076 71.7468C108.855 61.7717 111.926 51.1751 119.398 51.3665C126.822 51.5566 129.831 61.8862 130.492 71.7468C130.487 72.1289 130.299 88.263 130.385 88.4327Z" fill="#CECECE"/>
<path d="M123.805 72.9146L122.675 71.5027L119.77 71L119.77 71.1032L119.305 71.1032L119.262 71.1032L119.165 71.1032L119.165 71L116.016 71.5027L114.635 72.9146C113.866 73.4671 113.726 76.2473 113.726 76.2473L113.726 81.4064L114.237 82.5317L118.022 81.8736L119.284 79.8804L120.545 81.8736L124.212 82.5317L124.604 81.4064L124.604 76.2473C124.604 76.2473 124.575 73.4665 123.805 72.9146Z" fill="#BABABA" fill-opacity="0.4"/>
<path d="M124.331 80.0106C124.321 79.8517 122.813 77.4817 122.813 77.4817L116.004 77.4014L114.33 79.8145L114.33 80.154L114.33 80.3237L114.33 80.4935L114.33 82.4999L124.331 82.4999C124.331 82.4999 124.342 80.1696 124.331 80.0106Z" fill="#C6C6C6"/>
<path d="M123.275 75.9014L119.818 75.9014L118.498 75.9014L115.383 75.9014C115.383 75.9014 114.384 77.0074 114.221 80.4373C114.221 80.4577 114.4 80.3347 114.4 80.3347C114.854 79.7013 115.868 77.9288 115.868 77.9288L119.158 77.879L122.791 77.8826C122.791 77.8826 123.805 79.5837 124.259 80.2171C124.259 80.2171 124.438 80.4607 124.437 80.4415C124.275 77.0116 123.275 75.9014 123.275 75.9014Z" fill="#29ABE2" fill-opacity="0.4"/>
<path d="M115.54 81.6132C115.54 82.9934 120.122 83.0936 120.122 81.6006C120.122 80.2894 115.54 80.1664 115.54 81.6132ZM115.939 81.5988C115.939 80.6121 119.724 80.6961 119.724 81.5898C119.724 82.6065 115.939 82.5394 115.939 81.5988Z" fill="black" fill-opacity="0.4"/>
<path d="M117.257 80.8424C117.257 80.8424 117.268 81.2719 117.786 81.2671C118.305 81.2629 118.235 80.8802 118.246 80.8424C118.257 80.8058 117.257 80.8424 117.257 80.8424Z" fill="black" fill-opacity="0.4"/>
<path d="M117.62 81.2998L117.487 82.4995L118.17 82.4995L117.989 81.2998L117.62 81.2998Z" fill="black" fill-opacity="0.4"/>
<path d="M118.086 80.9705C118.097 80.9705 119.76 81.6927 119.76 81.6927L119.824 81.268L118.139 80.7695L118.086 80.9705Z" fill="black" fill-opacity="0.4"/>
<path d="M117.326 80.9705C117.315 80.9705 115.539 81.6927 115.539 81.6927L115.539 81.268L117.191 80.7695L117.326 80.9705Z" fill="black" fill-opacity="0.4"/>
<path d="M130.492 71.7466C130.492 71.7466 124.889 71.7885 123.648 65.8875C122.407 59.9858 121.679 51.8761 121.594 51.7064C121.508 51.5366 129.893 53.5742 130.492 71.7466Z" fill="#E8CDA0" fill-opacity="0.4"/>
<path d="M108.075 71.7466C108.075 71.7466 113.679 71.7886 114.919 65.8875C116.16 59.9858 116.887 51.8761 116.972 51.7064C117.058 51.5366 108.674 53.5742 108.075 71.7466Z" fill="#E8CDA0" fill-opacity="0.4"/>
<path d="M108.502 94.8859C108.502 94.8859 108.092 93.5177 109.444 93.9945C113.892 95.5649 124.373 95.905 129.079 93.91C130.065 93.4919 130.049 93.7384 130.02 94.3982C129.998 94.8925 129.293 100.023 129.293 100.023C129.293 100.023 121.25 103.08 109.059 100.023L108.502 94.8859Z" fill="#E8CDA0" fill-opacity="0.4"/>
<path d="M124.604 88.8119C124.604 89.0956 124.203 89.098 123.808 89.098L114.782 89.098C114.386 89.098 114.33 89.0962 114.33 88.8119L114.33 85.8241C114.33 85.5416 114.386 85.499 114.782 85.499L123.808 85.499C124.204 85.499 124.604 85.5422 124.604 85.8241L124.604 88.8119Z" fill="#E8CDA0" fill-opacity="0.4"/>
<path d="M102.031 66.6472C102.031 67.8848 103.042 68.8881 104.289 68.8881C105.536 68.8881 106.547 67.8848 106.547 66.6472C106.547 65.4096 105.536 64.4062 104.289 64.4062C103.042 64.4062 102.031 65.4096 102.031 66.6472Z" fill="#3B59AD" fill-opacity="0.4"/>
<path d="M132.05 66.6472C132.05 67.8848 133.061 68.8881 134.308 68.8881C135.555 68.8881 136.565 67.8848 136.565 66.6472C136.565 65.4096 135.555 64.4062 134.308 64.4062C133.061 64.4062 132.05 65.4096 132.05 66.6472Z" fill="#3B59AD" fill-opacity="0.4"/>
<path d="M132.05 91.4314C132.05 92.669 133.061 93.6723 134.308 93.6723C135.555 93.6723 136.565 92.669 136.565 91.4314C136.565 90.1937 135.555 89.1904 134.308 89.1904C133.061 89.1904 132.05 90.1937 132.05 91.4314Z" fill="#3B59AD" fill-opacity="0.4"/>
<path d="M101.765 91.6951C101.765 92.9327 102.776 93.936 104.023 93.936C105.27 93.936 106.281 92.9327 106.281 91.6951C106.281 90.4574 105.27 89.4541 104.023 89.4541C102.776 89.4541 101.765 90.4574 101.765 91.6951Z" fill="#3B59AD" fill-opacity="0.4"/>
<path d="M266.498 108.292L291.994 108.292L292.465 78.0887C292.465 78.0887 294.818 53.073 279.204 44.4961C264.102 52.7329 265.814 77.4775 265.814 77.4775L266.498 108.292Z" fill="#E5E5E5" fill-opacity="0.6"/>
<path d="M279.273 50.9913C279.273 50.9913 290.234 50.7328 290.619 72.5719C291.004 94.4115 289.401 96.8954 289.401 96.8954L268.893 96.8954L268.25 89.9356L268.25 71.1605C268.25 71.1605 268.755 51.6554 279.273 50.9913Z" fill="#E2E2E2" fill-opacity="0.9"/>
<path d="M279.246 50.8572C270.715 50.6965 268.013 61.5221 267.328 71.7468L267.61 88.6877L268.038 100.916L274.668 102.444L275.738 101.181L282.839 101.213C282.839 101.213 283.738 102.275 283.951 102.275C285.157 102.275 290.455 100.831 290.455 100.831C290.455 100.831 290.644 92.529 290.732 88.7926C290.735 88.6655 291.22 71.9573 291.212 71.7474C290.85 61.5419 288.523 51.0324 279.246 50.8572ZM290.347 88.4327C290.39 88.7087 289.257 100.024 289.257 100.024C289.257 100.024 284.825 100.839 283.687 100.839C283.485 100.839 282.637 99.824 282.637 99.824L275.933 99.7934L274.924 101.001L269.022 100.024L268.039 88.4471C267.896 78.3988 268.094 78.2573 268.039 71.7468C268.818 61.7717 271.889 51.1751 279.361 51.3665C286.785 51.5566 289.794 61.8862 290.455 71.7468C290.45 72.1289 290.262 88.263 290.347 88.4327Z" fill="#CECECE"/>
<path d="M283.768 72.9146L282.638 71.5027L279.732 71L279.732 71.1032L279.268 71.1032L279.225 71.1032L279.128 71.1032L279.128 71L275.979 71.5027L274.598 72.9146C273.828 73.4671 273.689 76.2473 273.689 76.2473L273.689 81.4064L274.2 82.5317L277.985 81.8736L279.247 79.8804L280.508 81.8736L284.175 82.5317L284.567 81.4064L284.567 76.2473C284.567 76.2473 284.538 73.4665 283.768 72.9146Z" fill="#BABABA" fill-opacity="0.4"/>
<path d="M284.294 80.0106C284.283 79.8517 282.776 77.4817 282.776 77.4817L275.967 77.4014L274.293 79.8145L274.293 80.154L274.293 80.3237L274.293 80.4935L274.293 82.4999L284.294 82.4999C284.294 82.4999 284.305 80.1696 284.294 80.0106Z" fill="#C6C6C6"/>
<path d="M283.238 75.9014L279.781 75.9014L278.461 75.9014L275.346 75.9014C275.346 75.9014 274.347 77.0074 274.184 80.4373C274.184 80.4577 274.363 80.3347 274.363 80.3347C274.817 79.7013 275.831 77.9288 275.831 77.9288L279.121 77.879L282.753 77.8826C282.753 77.8826 283.768 79.5837 284.222 80.2171C284.222 80.2171 284.401 80.4607 284.4 80.4415C284.238 77.0116 283.238 75.9014 283.238 75.9014Z" fill="#29ABE2" fill-opacity="0.4"/>
<path d="M275.503 81.6132C275.503 82.9934 280.085 83.0936 280.085 81.6006C280.085 80.2894 275.503 80.1664 275.503 81.6132ZM275.902 81.5988C275.902 80.6121 279.687 80.6961 279.687 81.5898C279.687 82.6065 275.902 82.5394 275.902 81.5988Z" fill="black" fill-opacity="0.4"/>
<path d="M277.22 80.8424C277.22 80.8424 277.23 81.2719 277.749 81.2671C278.268 81.2629 278.198 80.8802 278.209 80.8424C278.22 80.8058 277.22 80.8424 277.22 80.8424Z" fill="black" fill-opacity="0.4"/>
<path d="M277.583 81.2998L277.45 82.4995L278.133 82.4995L277.952 81.2998L277.583 81.2998Z" fill="black" fill-opacity="0.4"/>
<path d="M278.049 80.9705C278.06 80.9705 279.723 81.6927 279.723 81.6927L279.787 81.268L278.102 80.7695L278.049 80.9705Z" fill="black" fill-opacity="0.4"/>
<path d="M277.289 80.9705C277.278 80.9705 275.502 81.6927 275.502 81.6927L275.502 81.268L277.154 80.7695L277.289 80.9705Z" fill="black" fill-opacity="0.4"/>
<path d="M290.455 71.7466C290.455 71.7466 284.851 71.7885 283.611 65.8875C282.37 59.9858 281.642 51.8761 281.557 51.7064C281.471 51.5366 289.856 53.5742 290.455 71.7466Z" fill="#E8CDA0" fill-opacity="0.4"/>
<path d="M268.038 71.7466C268.038 71.7466 273.642 71.7886 274.882 65.8875C276.123 59.9858 276.85 51.8761 276.935 51.7064C277.021 51.5366 268.637 53.5742 268.038 71.7466Z" fill="#E8CDA0" fill-opacity="0.4"/>
<path d="M268.465 94.8859C268.465 94.8859 268.055 93.5177 269.406 93.9945C273.855 95.5649 284.336 95.905 289.042 93.91C290.028 93.4919 290.012 93.7384 289.983 94.3982C289.961 94.8925 289.256 100.023 289.256 100.023C289.256 100.023 281.213 103.08 269.021 100.023L268.465 94.8859Z" fill="#E8CDA0" fill-opacity="0.4"/>
<path d="M284.567 88.8119C284.567 89.0956 284.166 89.098 283.771 89.098L274.745 89.098C274.349 89.098 274.293 89.0962 274.293 88.8119L274.293 85.8241C274.293 85.5416 274.349 85.499 274.745 85.499L283.771 85.499C284.167 85.499 284.567 85.5422 284.567 85.8241L284.567 88.8119Z" fill="#E8CDA0" fill-opacity="0.4"/>
<path d="M261.994 66.6472C261.994 67.8848 263.005 68.8881 264.252 68.8881C265.499 68.8881 266.51 67.8848 266.51 66.6472C266.51 65.4096 265.499 64.4062 264.252 64.4062C263.005 64.4062 261.994 65.4096 261.994 66.6472Z" fill="#3B59AD" fill-opacity="0.4"/>
<path d="M292.012 66.6472C292.012 67.8848 293.023 68.8881 294.27 68.8881C295.517 68.8881 296.528 67.8848 296.528 66.6472C296.528 65.4096 295.517 64.4062 294.27 64.4062C293.023 64.4062 292.012 65.4096 292.012 66.6472Z" fill="#3B59AD" fill-opacity="0.4"/>
<path d="M292.012 91.4314C292.012 92.669 293.023 93.6723 294.27 93.6723C295.517 93.6723 296.528 92.669 296.528 91.4314C296.528 90.1937 295.517 89.1904 294.27 89.1904C293.023 89.1904 292.012 90.1937 292.012 91.4314Z" fill="#3B59AD" fill-opacity="0.4"/>
<path d="M261.728 91.6951C261.728 92.9327 262.739 93.936 263.986 93.936C265.233 93.936 266.244 92.9327 266.244 91.6951C266.244 90.4574 265.233 89.4541 263.986 89.4541C262.739 89.4541 261.728 90.4574 261.728 91.6951Z" fill="#3B59AD" fill-opacity="0.4"/>
<path opacity="0.8" d="M215.774 143.67C214.855 137.06 210.63 130.72 209.528 124.978C208.426 119.236 209.896 114.757 208.61 107.859C207.324 100.961 202.73 96.8566 201.444 92.0087C200.158 87.1619 199.751 78.3122 196.923 74.8116C194.094 71.311 191.428 72.668 191.428 72.668C191.428 72.668 189.136 72.1025 186.947 74.8134C184.12 78.3134 183.712 87.165 182.425 92.0129C181.139 96.8597 176.547 100.968 175.26 107.867C173.974 114.766 175.445 119.238 174.342 124.979C173.24 130.721 169.015 137.061 168.095 143.672L215.774 143.67Z" fill="url(#paint2_linear)"/>
<path d="M205.391 113.091L178.535 113.091L178.04 80.6222C178.04 80.6222 175.561 53.7093 192.009 44.4707C207.915 53.3439 206.113 79.9473 206.113 79.9473L205.391 113.091Z" fill="#D1D1D1"/>
<path d="M192.102 51.5006C192.102 51.5006 180.472 51.0463 180.067 74.5703C179.661 98.0955 181.266 100.596 181.266 100.596L202.868 100.596L203.879 93.4507L203.879 73.226C203.879 73.2254 203.18 52.2152 192.102 51.5006Z" fill="#F4F4F4"/>
<path d="M191.963 51.3544C200.95 51.182 203.796 62.8418 204.517 73.8562L204.22 92.1044L203.769 105.276L196.785 106.921L195.658 105.562L188.178 105.597C188.178 105.597 187.232 106.739 187.007 106.739C185.737 106.739 180.156 105.184 180.156 105.184C180.156 105.184 179.957 96.2408 179.864 92.2162C179.861 92.0798 179.351 74.0822 179.359 73.855C179.741 62.8634 182.191 51.5437 191.963 51.3544ZM180.27 91.8298C180.225 92.1278 181.418 104.315 181.418 104.315C181.418 104.315 186.087 105.192 187.284 105.192C187.498 105.192 188.391 104.1 188.391 104.1L195.453 104.067L196.517 105.367L202.732 104.315L203.769 91.8442C203.918 81.0203 203.709 80.8682 203.769 73.855C202.947 63.1104 199.712 51.6964 191.842 51.9025C184.021 52.108 180.852 63.2348 180.156 73.855C180.161 74.2685 180.36 91.6471 180.27 91.8298Z" fill="#E8E8E8"/>
<path d="M191.867 73.0377L191.862 72.9277L195.445 73.4686L196.907 74.9897C197.718 75.5834 197.874 78.5798 197.874 78.5798L197.874 84.1363L197.307 85.349L193.305 84.6399L191.843 82.3478L191.867 80.444L191.867 73.0377Z" fill="white"/>
<path d="M191.94 73.0383L191.863 72.9277L188.488 73.4686L187.053 74.9897C186.242 75.5834 186.113 78.5798 186.113 78.5798L186.113 84.1363L186.625 85.349L190.599 84.6399L192.012 82.3478L191.944 80.4428L191.94 73.0383Z" fill="white"/>
<path d="M186.646 82.715C186.658 82.5437 188.246 80.0125 188.246 80.0125L195.463 79.9355L197.272 82.5461L197.272 82.9121L197.272 83.0954L197.272 83.2787L197.272 85.3538L186.645 85.3538C186.646 85.3538 186.635 82.8875 186.646 82.715Z" fill="#C6C6C6"/>
<path d="M188.077 117.157C188.079 117.698 188.513 118.136 189.048 118.132L194.669 118.102C195.201 118.098 195.632 117.657 195.629 117.116L195.583 108.351C195.581 107.81 195.146 107.374 194.612 107.376L188.991 107.408C188.458 107.41 188.029 107.851 188.031 108.393L188.077 117.157Z" fill="#394963"/>
<path d="M187.757 77.7334L191.399 77.7334L192.789 77.7334L196.071 77.7334C196.071 77.7334 197.122 79.2232 197.294 82.9179C197.295 82.9401 197.107 82.9569 197.107 82.9569C196.628 82.2736 195.56 80.4401 195.56 80.4401L192.093 80.4227L188.268 80.4455C188.268 80.4455 187.199 82.2869 186.722 82.9696C186.722 82.9696 186.533 82.9383 186.534 82.9167C186.706 79.2244 187.757 77.7334 187.757 77.7334Z" fill="#29ABE2"/>
<path d="M195.906 84.4857C195.906 85.9725 191.08 86.0795 191.08 84.4725C191.079 83.0596 195.906 82.9268 195.906 84.4857ZM195.486 84.4689C195.486 83.4058 191.5 83.4971 191.5 84.4587C191.499 85.5555 195.486 85.4821 195.486 84.4689Z" fill="black"/>
<path d="M194.098 83.6556C194.098 83.6556 194.086 84.1189 193.54 84.1135C192.994 84.1075 193.068 83.6965 193.056 83.6556C193.044 83.6153 194.098 83.6556 194.098 83.6556Z" fill="black"/>
<path d="M193.715 84.1357L193.856 85.3539L193.135 85.3539L193.327 84.1357L193.715 84.1357Z" fill="black"/>
<path d="M193.226 83.7924C193.214 83.7924 191.463 84.5694 191.463 84.5694L191.395 84.1127L193.169 83.5742L193.226 83.7924Z" fill="black"/>
<path d="M193.958 83.7924C193.969 83.7924 195.771 84.5694 195.771 84.5694L195.771 84.1127L194.064 83.5742L193.958 83.7924Z" fill="black"/>
<path d="M180.157 73.8567C180.157 73.8567 186.06 73.9023 187.368 67.5454C188.674 61.1884 189.44 52.4529 189.53 52.2696C189.619 52.0869 180.788 54.2822 180.157 73.8567Z" fill="#D79056"/>
<path d="M203.769 73.8567C203.769 73.8567 197.865 73.9023 196.558 67.5454C195.252 61.1884 194.485 52.4529 194.396 52.2696C194.306 52.0869 203.138 54.2822 203.769 73.8567Z" fill="#D79056"/>
<path d="M203.318 98.7833C203.318 98.7833 203.75 97.3091 202.328 97.8224C197.641 99.5141 186.6 99.8807 181.644 97.7316C180.606 97.2809 180.621 97.5471 180.653 98.2575C180.676 98.7911 181.419 104.317 181.419 104.317C181.419 104.317 189.891 107.61 202.733 104.317L203.318 98.7833Z" fill="#D79056"/>
<path d="M186.461 92.2393C186.461 92.5446 186.78 92.6702 187.198 92.6702L196.705 92.6702C197.121 92.6702 197.573 92.5446 197.573 92.2393L197.573 89.0217C197.573 88.7159 197.121 88.4033 196.705 88.4033L187.198 88.4033C186.78 88.4033 186.461 88.7165 186.461 89.0217L186.461 92.2393Z" fill="#B5A081"/>
<path d="M195.64 86.1967C195.64 86.1967 195.108 85.5248 194.86 86.5939C194.612 87.6624 194.128 88.7327 194.128 88.7327C194.128 88.7327 192.995 88.3992 192.841 88.0849C192.686 87.7718 192.816 86.3373 191.834 85.9779C190.852 85.6173 190.408 85.3908 190.828 86.898C191.247 88.404 191.399 89.4665 191.399 89.4665L195.484 90.389L195.64 86.4322" fill="#996234"/>
<path d="M195.125 90.1844C195.125 90.1844 196.613 87.7439 195.818 87.8263C195.024 87.9086 195.436 88.4272 194.428 88.4807C193.42 88.5342 193.557 87.6935 192.319 88.1231C191.081 88.5534 190.62 88.3485 190.827 89.0324C191.034 89.7163 191.082 90.1844 191.082 90.1844L195.125 90.1844Z" fill="#EF45B7"/>
<path d="M196.308 90.0094C196.308 90.0094 196.377 88.2228 196.423 87.7618C196.511 86.8977 195.788 85.1056 195.788 84.7769C195.788 84.4493 195.736 84.1068 195.31 84.5924C194.883 85.078 195.302 86.7083 195.484 87.5245C195.666 88.3394 195.144 89.334 195.125 89.596C195.105 89.8592 195.64 89.4812 195.64 89.4812L196.308 90.0094Z" fill="#996234"/>
<path d="M190.779 90.122C190.779 90.122 190.226 88.223 190.179 87.7608C190.091 86.8967 190.815 85.1046 190.815 84.7759C190.815 84.4484 190.867 84.1058 191.294 84.5914C191.72 85.077 191.301 86.7074 191.119 87.5235C190.937 88.3384 191.814 89.2506 191.834 89.5132C191.854 89.7765 190.964 89.4802 190.964 89.4802L190.779 90.122Z" fill="#996234"/>
<path d="M197.088 90.0099C197.088 90.0099 196.758 92.2202 195.41 92.6686C194.062 93.1169 193.596 93.2719 192.385 92.7401C191.174 92.2082 190.532 92.5021 190.623 91.3921C190.714 90.2833 189.983 89.7088 191.031 89.5351C192.161 89.3476 195.2 89.1379 195.41 89.1121C196.698 88.9582 197.088 90.0099 197.088 90.0099Z" fill="#8BC7E8"/>
<path d="M193.8 92.6684C193.8 92.6684 195.023 92.5464 194.841 91.5218C194.657 90.4971 195.194 90.1228 194.33 89.8031C193.465 89.4827 193.036 88.627 192.655 89.4827C192.273 90.3379 191.998 90.7916 192.273 91.3932C192.549 91.9947 192.49 92.142 192.841 92.523C193.19 92.9028 193.8 92.6684 193.8 92.6684Z" fill="#301705"/>
<rect x="315.137" y="15.709" width="38.9496" height="25" rx="12.5" fill="#969696" fill-opacity="0.3"/>
<path d="M329.865 29.1289H331.417V29.8193H329.865V32.335H329.044V29.8193H324.362V29.3545L328.969 22.3818H329.865V29.1289ZM325.367 29.1289H329.044V23.4414L328.682 24.0703L325.367 29.1289ZM332.62 33.1895H331.875L336.031 22.3818H336.769L332.62 33.1895ZM342.997 22.3066V23.0244H342.901C341.711 23.0244 340.775 23.3753 340.091 24.0771C339.408 24.7744 339.029 25.7451 338.957 26.9893C339.23 26.611 339.579 26.3193 340.002 26.1143C340.426 25.9046 340.9 25.7998 341.424 25.7998C342.299 25.7998 342.994 26.1029 343.509 26.709C344.029 27.3105 344.289 28.099 344.289 29.0742C344.289 29.7214 344.168 30.3047 343.926 30.8242C343.685 31.3438 343.338 31.7493 342.887 32.041C342.436 32.3281 341.921 32.4717 341.342 32.4717C340.39 32.4717 339.615 32.1276 339.018 31.4395C338.421 30.7467 338.123 29.8535 338.123 28.7598V27.9395C338.123 26.1576 338.528 24.779 339.339 23.8037C340.151 22.8239 341.301 22.3249 342.792 22.3066H342.997ZM341.294 26.5039C340.775 26.5039 340.29 26.6589 339.838 26.9688C339.392 27.2741 339.093 27.6637 338.943 28.1377V28.835C338.943 29.7008 339.164 30.4072 339.606 30.9541C340.053 31.501 340.631 31.7744 341.342 31.7744C341.98 31.7744 342.495 31.5215 342.887 31.0156C343.284 30.5098 343.482 29.8717 343.482 29.1016C343.482 28.3177 343.284 27.6888 342.887 27.2148C342.495 26.7409 341.964 26.5039 341.294 26.5039Z" fill="black"/>
</g>
<defs>
<linearGradient id="paint0_linear" x1="224.529" y1="142.971" x2="288.333" y2="177.01" gradientUnits="userSpaceOnUse">
<stop stop-color="white" stop-opacity="0.8"/>
<stop offset="1" stop-color="white" stop-opacity="0"/>
</linearGradient>
<linearGradient id="paint1_linear" x1="304.865" y1="162.865" x2="377.18" y2="162.865" gradientUnits="userSpaceOnUse">
<stop stop-color="white" stop-opacity="0.8"/>
<stop offset="1" stop-color="white" stop-opacity="0"/>
</linearGradient>
<linearGradient id="paint2_linear" x1="191.935" y1="73.3549" x2="191.935" y2="143.671" gradientUnits="userSpaceOnUse">
<stop offset="0.411458" stop-color="white" stop-opacity="0.8"/>
<stop offset="1" stop-color="white" stop-opacity="0"/>
</linearGradient>
<clipPath id="clip0">
<rect width="375" height="375" fill="white" transform="translate(0.136719 0.708984)"/>
</clipPath>
</defs>
</svg>
