<svg width="45" height="45" viewBox="0 0 45 45" fill="none" xmlns="http://www.w3.org/2000/svg">
<g clip-path="url(#clip0)">
<g filter="url(#filter0_d)">
<path d="M35.8351 31.471L30.7037 28.0292C30.4872 27.8749 30.2335 27.7811 29.9687 27.7575C29.7038 27.7338 29.4375 27.7811 29.1971 27.8946L27.227 28.8938C26.9798 29.0153 26.7026 29.062 26.4293 29.0283C26.1559 28.9945 25.8984 28.8817 25.6883 28.7037C22.005 25.6559 19.5398 21.3859 18.7419 16.6722C18.6928 16.4012 18.7239 16.1218 18.8313 15.8682C18.9387 15.6146 19.1178 15.3979 19.3466 15.2446L21.1403 13.94C21.3627 13.7935 21.5419 13.5904 21.6596 13.3515C21.7772 13.1127 21.829 12.8467 21.8095 12.5812L21.3945 6.41639L21.2997 4.8373C21.2826 4.61004 21.2144 4.38959 21.1001 4.19239C20.9169 3.87234 20.6208 3.63227 20.2697 3.51926C19.3017 3.19706 18.2707 3.1105 17.2625 3.26678C16.2543 3.42305 15.298 3.81766 14.4729 4.41781L14.07 4.72448L13.8613 4.88447C13.7641 4.95456 13.6708 5.02984 13.5818 5.11L13.3247 5.35716C9.93094 8.67393 10.5693 17.0124 14.9426 25.2924L16.2731 27.5969C21.2507 35.5131 28.1529 40.2352 32.7426 39.0242L33.0852 38.9251C33.1985 38.8884 33.3097 38.8456 33.4184 38.7969L33.6624 38.698L34.1294 38.5024C35.0613 38.0875 35.8806 37.4563 36.5196 36.6612C37.1585 35.8661 37.5985 34.93 37.8031 33.9307C37.8807 33.5702 37.8209 33.1937 37.6353 32.875C37.5217 32.6774 37.3649 32.5081 37.1766 32.3797L35.8351 31.471Z" fill="#001AFF"/>
</g>
</g>
<defs>
<filter id="filter0_d" x="7.15967" y="3.19141" width="34.6766" height="44.0215" filterUnits="userSpaceOnUse" color-interpolation-filters="sRGB">
<feFlood flood-opacity="0" result="BackgroundImageFix"/>
<feColorMatrix in="SourceAlpha" type="matrix" values="0 0 0 0 0 0 0 0 0 0 0 0 0 0 0 0 0 0 127 0"/>
<feOffset dy="4"/>
<feGaussianBlur stdDeviation="2"/>
<feColorMatrix type="matrix" values="0 0 0 0 0 0 0 0 0 0 0 0 0 0 0 0 0 0 0.25 0"/>
<feBlend mode="normal" in2="BackgroundImageFix" result="effect1_dropShadow"/>
<feBlend mode="normal" in="SourceGraphic" in2="effect1_dropShadow" result="shape"/>
</filter>
<clipPath id="clip0">
<rect width="45" height="45" fill="white"/>
</clipPath>
</defs>
</svg>
