<svg width="376" height="376" viewBox="0 0 376 376" fill="none" xmlns="http://www.w3.org/2000/svg">
<g clip-path="url(#clip0)">
<path d="M-4.27527 -13.4092H390.222L388.689 377.307H-2.89761L-4.27527 -13.4092Z" fill="url(#paint0_linear)"/>
<path d="M-0.89 158.485L397.43 158.054L396.501 377.391H-2.30469L-0.89 158.485Z" fill="#8BF6FF"/>
<path d="M117.372 266.833C72.824 261.916 42.959 238.254 42.794 203.103L52.0523 203.306L38.5617 187.904L25.0687 203.306H32.2247V203.901H32.3995C33.0539 243.818 66.9923 269.954 117.37 276.536C154.84 281.43 183.631 303.99 183.663 339.141H195.049C195.015 299.224 159.563 271.489 117.372 266.833Z" fill="#F80606"/>
<path d="M68.7028 630.809H306.06L310.439 446.768C310.439 446.768 332.338 294.216 186.982 241.85C46.402 292.141 62.3301 442.941 62.3301 442.941L68.7028 630.809Z" fill="#EDEDED"/>
<path d="M186.155 281.693C186.155 281.693 288.936 279.119 292.517 412.461C296.101 545.806 281.916 559.975 281.916 559.975H91.0039L82.062 519.48V404.842C82.062 404.838 88.2481 285.745 186.155 281.693Z" fill="#F4F4F4"/>
<path d="M187.381 280.872C107.956 279.891 82.8043 345.987 76.426 408.419L79.0534 511.855L83.0387 586.517L144.765 595.847L154.724 588.136L220.832 588.332C220.832 588.332 229.191 594.812 231.185 594.812C242.402 594.812 291.729 585.997 291.729 585.997C291.729 585.997 293.491 535.307 294.314 512.496C294.342 511.721 298.852 409.706 298.787 408.421C295.401 346.11 273.747 281.943 187.381 280.872ZM290.724 510.299C291.123 511.986 280.569 581.071 280.569 581.071C280.569 581.071 239.309 586.043 228.72 586.043C226.837 586.043 218.949 579.848 218.949 579.848L156.534 579.666L147.136 587.034L92.1981 581.074L83.0387 510.386C81.714 449.033 83.5604 448.169 83.0387 408.421C90.2982 347.516 118.885 282.816 188.44 283.985C257.56 285.149 285.573 348.216 291.729 408.421C291.678 410.752 289.926 509.263 290.724 510.299Z" fill="#E8E8E8"/>
<path d="M291.728 408.42C291.728 408.42 239.557 408.679 228.005 372.644C216.458 336.61 209.69 287.096 208.89 286.057C208.094 285.022 286.15 297.466 291.728 408.42Z" fill="#E8CDA0"/>
<path d="M83.0385 408.42C83.0385 408.42 135.209 408.679 146.758 372.644C158.308 336.61 165.08 287.096 165.874 286.057C166.669 285.022 88.6138 297.466 83.0385 408.42Z" fill="#E8CDA0"/>
<path d="M148.87 314.799C148.858 314.921 150.274 312.78 150.274 312.78C153.792 308.909 161.658 298.513 161.658 298.513L187.164 298.415L215.319 298.542C215.319 298.542 223.182 308.985 226.703 312.851C226.703 312.851 227.8 314.914 227.793 314.793C227.793 295.224 222.422 284.029 208.77 284.029H168.821C154.387 284.65 148.702 295.542 148.87 314.799Z" fill="#29ABE2"/>
<path d="M227.95 317.677C227.95 306.107 219.213 296.766 208.722 296.766H167.564C157.073 296.766 148.731 306.108 148.731 317.677V410.708C148.731 422.276 157.073 431.766 167.564 431.766H208.722C219.213 431.766 227.95 422.276 227.95 410.708V317.677H227.95Z" fill="#D3D3D3"/>
<path d="M163.495 315.517C166.404 315.517 168.762 313.159 168.762 310.25C168.762 307.341 166.404 304.982 163.495 304.982C160.585 304.982 158.227 307.341 158.227 310.25C158.227 313.159 160.585 315.517 163.495 315.517Z" fill="#F4F4F4"/>
<path d="M178.568 315.517C181.477 315.517 183.835 313.159 183.835 310.25C183.835 307.341 181.477 304.982 178.568 304.982C175.659 304.982 173.301 307.341 173.301 310.25C173.301 313.159 175.659 315.517 178.568 315.517Z" fill="#F4F4F4"/>
<path d="M160.102 311.667C159.898 311.667 159.754 311.805 159.754 312.009C159.754 312.21 159.906 312.338 160.096 312.338C160.273 312.338 160.442 312.226 160.442 311.996C160.442 311.807 160.311 311.667 160.102 311.667ZM160.098 311.817C160.181 311.817 160.224 311.915 160.224 312C160.224 312.11 160.179 312.188 160.1 312.188C160.02 312.188 159.974 312.104 159.974 312.004C159.974 311.923 160.006 311.817 160.098 311.817ZM160.802 314.588C160.741 314.613 160.637 314.633 160.543 314.633C160.267 314.633 160.104 314.46 160.104 314.186C160.104 313.88 160.295 313.732 160.541 313.732C160.651 313.732 160.739 313.756 160.802 313.783L160.865 313.536C160.81 313.508 160.688 313.475 160.527 313.475C160.112 313.475 159.778 313.736 159.778 314.204C159.778 314.594 160.022 314.889 160.496 314.889C160.663 314.889 160.791 314.859 160.848 314.83L160.802 314.588Z" fill="black"/>
<path d="M161.569 310.607V310.292H161.728V310.06H161.569V309.285H161.19L160.69 310.091V310.292H161.276V310.607H161.569ZM160.979 310.06V310.056L161.156 309.767C161.201 309.684 161.235 309.606 161.278 309.521H161.286C161.28 309.606 161.276 309.688 161.276 309.767V310.06H160.979ZM161.213 311.263C160.871 311.263 160.708 311.566 160.708 311.948C160.71 312.323 160.861 312.63 161.203 312.63C161.54 312.63 161.705 312.349 161.705 311.94C161.705 311.578 161.567 311.263 161.213 311.263ZM161.209 311.497C161.333 311.497 161.396 311.651 161.396 311.944C161.396 312.245 161.331 312.396 161.211 312.396C161.091 312.396 161.017 312.251 161.019 311.948C161.017 311.641 161.095 311.497 161.209 311.497Z" fill="black"/>
<path d="M163.008 309.704C163.316 309.704 163.517 309.543 163.517 309.303C163.517 309.132 163.403 309.022 163.275 308.974V308.967C163.405 308.902 163.466 308.79 163.466 308.677C163.466 308.516 163.338 308.337 163.029 308.337C162.764 308.337 162.563 308.485 162.563 308.709C162.563 308.825 162.626 308.933 162.754 308.998V309.004C162.61 309.067 162.518 309.177 162.518 309.336C162.518 309.515 162.673 309.704 163.008 309.704ZM163.021 309.49C162.905 309.49 162.831 309.401 162.833 309.305C162.833 309.21 162.892 309.136 162.994 309.108C163.116 309.14 163.202 309.21 163.202 309.326C163.202 309.419 163.131 309.49 163.021 309.49ZM163.015 308.546C163.128 308.546 163.175 308.628 163.175 308.709C163.175 308.793 163.112 308.858 163.041 308.878C162.935 308.845 162.854 308.788 162.854 308.699C162.854 308.616 162.909 308.546 163.015 308.546ZM163.023 310.337C162.681 310.337 162.518 310.64 162.518 311.022C162.52 311.397 162.671 311.704 163.013 311.704C163.35 311.704 163.515 311.423 163.515 311.014C163.515 310.652 163.377 310.337 163.023 310.337ZM163.019 310.571C163.143 310.571 163.206 310.725 163.206 311.018C163.206 311.319 163.141 311.47 163.021 311.47C162.901 311.47 162.827 311.326 162.829 311.022C162.827 310.715 162.905 310.571 163.019 310.571Z" fill="black"/>
<path d="M164.373 309.778H164.672V308.456H164.416L164.066 308.619L164.117 308.851L164.369 308.731H164.373V309.778ZM164.462 310.433C164.121 310.433 163.958 310.737 163.958 311.119C163.96 311.493 164.11 311.801 164.452 311.801C164.79 311.801 164.955 311.52 164.955 311.111C164.955 310.749 164.816 310.433 164.462 310.433ZM164.458 310.667C164.582 310.667 164.646 310.822 164.646 311.115C164.646 311.416 164.58 311.567 164.46 311.567C164.34 311.567 164.267 311.422 164.269 311.119C164.267 310.812 164.344 310.667 164.458 310.667ZM164.462 312.433C164.121 312.433 163.958 312.737 163.958 313.119C163.96 313.493 164.11 313.801 164.452 313.801C164.79 313.801 164.955 313.52 164.955 313.111C164.955 312.749 164.816 312.433 164.462 312.433ZM164.458 312.667C164.582 312.667 164.646 312.822 164.646 313.115C164.646 313.416 164.58 313.567 164.46 313.567C164.34 313.567 164.267 313.422 164.269 313.119C164.267 312.812 164.344 312.667 164.458 312.667Z" fill="black"/>
<path d="M165.45 310.704H165.749V309.382H165.493L165.143 309.544L165.194 309.776L165.446 309.656H165.45V310.704ZM165.993 312.704V312.45H165.495V312.446L165.617 312.344C165.808 312.173 165.969 311.996 165.969 311.774C165.969 311.534 165.804 311.359 165.505 311.359C165.326 311.359 165.171 311.42 165.072 311.496L165.159 311.717C165.228 311.664 165.328 311.607 165.442 311.607C165.594 311.607 165.66 311.693 165.66 311.801C165.656 311.955 165.515 312.104 165.226 312.362L165.055 312.517V312.704H165.993ZM165.54 313.359C165.198 313.359 165.035 313.662 165.035 314.045C165.037 314.419 165.188 314.726 165.529 314.726C165.867 314.726 166.032 314.446 166.032 314.037C166.032 313.675 165.894 313.359 165.54 313.359ZM165.535 313.593C165.66 313.593 165.723 313.748 165.723 314.041C165.723 314.342 165.658 314.493 165.538 314.493C165.417 314.493 165.344 314.348 165.346 314.045C165.344 313.738 165.422 313.593 165.535 313.593Z" fill="black"/>
<path d="M162.941 306.665L162.626 306.705L162.742 307.626L163.057 307.586L162.941 306.665Z" fill="black"/>
<path d="M165.417 307.012L165.124 306.891L164.768 307.747L165.061 307.869L165.417 307.012Z" fill="black"/>
<path d="M167.139 308.227L166.917 307.999L166.252 308.645L166.473 308.873L167.139 308.227Z" fill="black"/>
<path d="M161.002 307.25L160.733 307.419L161.226 308.204L161.495 308.035L161.002 307.25Z" fill="black"/>
<path d="M160.013 308.007L159.792 308.236L160.46 308.88L160.681 308.651L160.013 308.007Z" fill="black"/>
<path d="M164.089 306.68L163.904 306.665L163.844 307.404L164.028 307.419L164.089 306.68Z" fill="black"/>
<path d="M161.713 306.914L161.542 306.984L161.823 307.67L161.994 307.6L161.713 306.914Z" fill="black"/>
<path d="M166.429 307.604L166.281 307.493L165.837 308.088L165.986 308.198L166.429 307.604Z" fill="black"/>
<path d="M163.495 304.316C160.198 304.316 157.525 306.988 157.525 310.286C157.525 313.583 160.198 316.255 163.495 316.255C166.792 316.255 169.464 313.583 169.464 310.286C169.464 306.989 166.791 304.316 163.495 304.316ZM163.495 315.107C160.832 315.107 158.673 312.949 158.673 310.286C158.673 307.624 160.832 305.465 163.495 305.465C166.158 305.465 168.316 307.624 168.316 310.286C168.316 312.949 166.158 315.107 163.495 315.107Z" fill="#1E1E1E"/>
<path d="M163.495 304.316C160.198 304.316 157.525 306.988 157.525 310.286C157.525 313.583 160.198 316.255 163.495 316.255C166.792 316.255 169.464 313.583 169.464 310.286C169.464 306.989 166.791 304.316 163.495 304.316ZM163.495 315.832C160.432 315.832 157.949 313.349 157.949 310.286C157.949 307.223 160.432 304.741 163.495 304.741C166.557 304.741 169.04 307.223 169.04 310.286C169.04 313.349 166.557 315.832 163.495 315.832Z" fill="#3D3D3D"/>
<path d="M163.297 310.68L163.401 307.049L163.612 307.049C163.612 307.049 163.688 310.671 163.693 310.681L163.297 310.68Z" fill="#EA2424"/>
<path d="M163.494 312.723C164.099 312.723 164.589 312.233 164.589 311.628C164.589 311.023 164.099 310.533 163.494 310.533C162.89 310.533 162.399 311.023 162.399 311.628C162.399 312.233 162.89 312.723 163.494 312.723Z" fill="#1E1E1E"/>
<path d="M178.505 306.734H178.215V308.025H178.505V306.734Z" fill="#232323"/>
<path d="M182.239 308.59L182.05 308.361L181.053 309.184L181.241 309.412L182.239 308.59Z" fill="#232323"/>
<path d="M175.471 309.411L175.659 309.183L174.661 308.361L174.473 308.589L175.471 309.411Z" fill="#232323"/>
<path d="M176.548 308.099L176.746 308.007L176.345 307.144L176.147 307.236L176.548 308.099Z" fill="#232323"/>
<path d="M180.541 307.253L180.343 307.162L179.945 308.026L180.143 308.117L180.541 307.253Z" fill="#232323"/>
<path d="M174.926 313.01H175.244V312.447H175.746V312.189H175.244V311.869H175.782V311.609H174.926V313.01ZM174.924 313.609V314.39C174.924 314.837 175.131 315.033 175.485 315.033C175.85 315.033 176.069 314.827 176.069 314.395V313.609H175.753V314.415C175.753 314.663 175.661 314.779 175.495 314.779C175.333 314.779 175.241 314.656 175.241 314.415V313.609H174.924ZM175.759 316.16H175.244V315.869H175.79V315.609H174.926V317.01H175.819V316.75H175.244V316.418H175.759V316.16ZM176.036 317.01H176.911V316.744H176.354V315.609H176.036V317.01Z" fill="#232323"/>
<path d="M176.565 310.346H176.028V310.043H176.598V309.771H175.696V311.233H176.628V310.962H176.028V310.615H176.565V310.346Z" fill="#232323"/>
<path d="M180.778 311.233H181.109V310.646H181.634V310.377H181.109V310.043H181.671V309.771H180.778V311.233Z" fill="#232323"/>
<path d="M178.463 310.033L179.026 308.127H178.76L178.197 310.033H178.463Z" fill="#232323"/>
<path d="M178.305 309.018H178.496V308.175H178.332L178.109 308.278L178.142 308.426L178.303 308.35H178.305V309.018Z" fill="#1E1E1E"/>
<path d="M179.197 309.385V309.223H178.88V309.22L178.957 309.155C179.079 309.046 179.182 308.933 179.182 308.792C179.182 308.639 179.077 308.527 178.886 308.527C178.772 308.527 178.673 308.566 178.61 308.614L178.666 308.756C178.71 308.722 178.773 308.686 178.846 308.686C178.943 308.686 178.985 308.74 178.985 308.809C178.982 308.907 178.893 309.002 178.708 309.167L178.599 309.265V309.385H179.197Z" fill="#232323"/>
<path d="M181.563 311.321C181.548 311.309 181.432 311.205 181.392 311.223C181.352 311.242 181.463 311.328 181.483 311.351C181.503 311.375 181.518 311.351 181.503 311.471C181.488 311.59 181.525 311.773 181.543 311.81C181.562 311.848 181.64 312.03 181.473 312.009C181.307 311.989 181.366 311.884 181.359 311.695C181.354 311.551 181.264 311.519 181.198 311.511V311.185H180.619V312.075H180.53V312.119H181.287V312.075H181.198V311.581C181.242 311.593 181.283 311.619 181.298 311.645C181.335 311.71 181.271 311.778 181.296 311.924C181.322 312.068 181.486 312.101 181.59 312.043C181.694 311.986 181.605 311.794 181.586 311.739C181.568 311.683 181.562 311.535 181.571 311.508C181.582 311.481 181.645 311.476 181.66 311.451C181.676 311.425 181.578 311.333 181.563 311.321ZM181.153 311.519H180.663V311.23H181.153V311.519Z" fill="black"/>
<path d="M178.349 304.219C174.998 304.219 172.281 306.935 172.281 310.286C172.281 313.636 174.998 316.354 178.349 316.354C181.7 316.354 184.416 313.636 184.416 310.286C184.416 306.935 181.7 304.219 178.349 304.219ZM178.349 315.187C175.642 315.187 173.448 312.993 173.448 310.287C173.448 307.58 175.642 305.386 178.349 305.386C181.056 305.386 183.25 307.58 183.25 310.287C183.249 312.993 181.055 315.187 178.349 315.187Z" fill="#1E1E1E"/>
<path d="M178.349 304.219C174.998 304.219 172.281 306.935 172.281 310.286C172.281 313.636 174.998 316.354 178.349 316.354C181.7 316.354 184.416 313.636 184.416 310.286C184.416 306.935 181.7 304.219 178.349 304.219ZM178.349 315.923C175.236 315.923 172.712 313.4 172.712 310.287C172.712 307.174 175.236 304.65 178.349 304.65C181.462 304.65 183.986 307.174 183.986 310.287C183.986 313.4 181.462 315.923 178.349 315.923Z" fill="#3D3D3D"/>
<path d="M178.544 311.326C178.554 311.322 181.31 308.88 181.31 308.88L181.455 309.038L178.817 311.621L178.544 311.326Z" fill="#EA2424"/>
<path d="M178.349 312.764C178.964 312.764 179.462 312.265 179.462 311.65C179.462 311.036 178.964 310.537 178.349 310.537C177.734 310.537 177.236 311.036 177.236 311.65C177.236 312.265 177.734 312.764 178.349 312.764Z" fill="#1E1E1E"/>
<path d="M189.981 330.984H188.106V367.078H189.981V330.984Z" fill="#969696"/>
<path d="M172.005 338.96L171.124 340.562L204.637 358.994L205.519 357.392L172.005 338.96Z" fill="#969696"/>
<path d="M170.922 358.87L171.863 360.438L204.653 340.758L203.712 339.19L170.922 358.87Z" fill="#969696"/>
<path d="M188.747 318.203C171.484 318.203 157.489 332.197 157.489 349.462C157.489 366.725 171.484 380.72 188.747 380.72C206.011 380.72 220.006 366.726 220.006 349.462C220.006 332.198 206.011 318.203 188.747 318.203ZM188.747 376.344C173.901 376.344 161.865 364.308 161.865 349.462C161.865 334.615 173.901 322.579 188.747 322.579C203.594 322.579 215.63 334.615 215.63 349.462C215.63 364.308 203.594 376.344 188.747 376.344Z" fill="black" stroke="black" stroke-miterlimit="10"/>
<path d="M183.336 323.124C183.465 323.105 187.144 322.684 187.205 325.668C187.267 328.652 187.277 330.755 187.277 330.755C187.277 330.755 187.138 332.963 188.559 332.962C188.694 332.962 189.726 332.963 189.843 332.963C191.024 332.963 191.058 331.862 191.048 330.712C191.037 329.464 191.113 325.717 191.113 325.717C191.113 325.717 191.382 323.161 194.191 323.161C197.073 323.161 193.589 322.151 193.589 322.151L184.524 322.208L183.336 323.124Z" fill="black" stroke="black" stroke-miterlimit="10"/>
<path d="M163.074 341.54C163.123 341.418 164.517 338.052 167.132 339.491C169.747 340.929 171.572 341.972 171.572 341.972C171.572 341.972 173.416 343.197 174.124 341.965C174.192 341.847 174.71 340.955 174.768 340.854C175.359 339.831 174.422 339.25 173.421 338.684C172.335 338.07 169.127 336.131 169.127 336.131C169.127 336.131 166.664 334.604 168.23 332.272C169.83 329.888 167.277 332.204 167.277 332.204L162.794 340.083L163.074 341.54Z" fill="black" stroke="black" stroke-miterlimit="10"/>
<path d="M168.948 367.622C168.868 367.519 166.649 364.629 169.202 363.084C171.755 361.539 173.571 360.479 173.571 360.479C173.571 360.479 175.553 359.495 174.842 358.266C174.773 358.147 174.259 357.253 174.201 357.152C173.61 356.129 172.639 356.65 171.649 357.234C170.574 357.867 167.29 359.675 167.29 359.675C167.29 359.675 164.753 360.6 163.348 358.167C161.907 355.671 162.965 359.313 162.965 359.313L167.547 367.136L168.948 367.622Z" fill="black"/>
<path d="M195.263 375.529C195.133 375.548 191.521 376.024 191.46 373.04C191.398 370.056 191.388 367.954 191.388 367.954C191.388 367.954 191.527 365.745 190.107 365.747C189.97 365.747 188.939 365.745 188.823 365.745C187.642 365.745 187.607 366.846 187.617 367.996C187.628 369.243 187.552 372.992 187.552 372.992C187.552 372.992 187.007 375.849 184.134 375.833C181.252 375.817 185.077 376.557 185.077 376.557L194.142 376.5L195.263 375.529Z" fill="black" stroke="black" stroke-miterlimit="10"/>
<path d="M214.545 357.169C214.496 357.29 213.103 360.656 210.488 359.218C207.873 357.779 206.047 356.737 206.047 356.737C206.047 356.737 204.203 355.512 203.495 356.743C203.427 356.861 202.91 357.754 202.851 357.854C202.261 358.877 203.197 359.459 204.198 360.024C205.284 360.638 208.492 362.579 208.492 362.579C208.492 362.579 210.584 364.436 209.18 366.869C207.739 369.365 210.342 366.505 210.342 366.505L214.825 358.626L214.545 357.169Z" fill="black" stroke="black" stroke-miterlimit="10"/>
<path d="M208.15 330.826C208.23 330.929 210.449 333.819 207.895 335.364C205.342 336.909 203.526 337.969 203.526 337.969C201.191 339.129 202.705 340.959 202.255 340.182C202.187 340.065 202.838 341.195 202.896 341.296C203.487 342.319 204.459 341.798 205.449 341.214C206.523 340.58 209.807 338.772 209.807 338.772C209.807 338.772 212.591 337.954 213.997 340.387C215.438 342.882 214.133 339.133 214.133 339.133L209.551 331.311L208.15 330.826Z" fill="black" stroke="black" stroke-miterlimit="10"/>
<path d="M189.161 342.32C185.233 342.32 182.048 345.505 182.048 349.433C182.048 353.36 185.233 356.545 189.161 356.545C193.088 356.545 196.273 353.36 196.273 349.433C196.273 345.505 193.088 342.32 189.161 342.32ZM189.161 353.006C187.187 353.006 185.587 351.407 185.587 349.433C185.587 347.459 187.187 345.858 189.161 345.858C191.134 345.858 192.735 347.459 192.735 349.433C192.735 351.407 191.134 353.006 189.161 353.006Z" fill="#969696"/>
<path d="M189.204 353.122C191.458 353.122 193.285 351.294 193.285 349.04C193.285 346.786 191.458 344.958 189.204 344.958C186.949 344.958 185.122 346.786 185.122 349.04C185.122 351.294 186.949 353.122 189.204 353.122Z" fill="black"/>
<path d="M157.821 405.704C157.821 405.704 154.692 387.032 153.622 382.242C151.62 373.275 155.451 353.604 154.988 350.162C154.524 346.72 154.49 343.057 158.93 347.651C163.368 352.246 161.989 369.859 161.546 378.645C161.1 387.427 167.093 397.235 167.643 399.967C168.184 402.703 162.947 399.365 162.947 399.365L157.821 405.704Z" fill="#996234"/>
<path d="M218.583 427.648C218.583 427.648 223.481 407.523 223.901 402.633C224.684 393.48 218.262 374.497 218.262 371.024C218.262 367.551 217.812 363.916 214.022 369.062C210.235 374.209 213.952 391.479 215.565 400.127C217.183 408.771 209.403 418.42 209.229 421.201C209.055 423.985 216.953 420.849 216.953 420.849L218.583 427.648Z" fill="#996234"/>
<path d="M218.606 376.496C218.606 376.496 222.134 351.81 207.915 347.211C195.673 343.251 186.008 338.141 175.452 344.111C164.894 350.085 159.943 347.57 158.444 359.251C157.022 370.326 149.64 376.93 158.996 378.47C169.078 380.133 201.631 381.462 203.497 381.665C214.964 382.932 218.606 376.496 218.606 376.496Z" fill="#8BC7E8"/>
<path d="M180.195 309.785C180.195 309.785 179.887 323.337 180.131 339.721C180.296 350.737 188.539 351.815 193.288 347.944C199.411 342.954 194.97 325.092 195.639 321.555C196.309 318.015 180.195 309.785 180.195 309.785Z" fill="#996234"/>
<path d="M186.237 340.218C186.237 340.218 175.38 338.921 177.01 328.066C178.631 317.217 172.58 309.091 180.501 306.34C187.977 303.744 193.016 297.391 196.397 306.453C199.778 315.516 202.22 320.325 199.778 326.695C197.339 333.071 197.85 334.625 194.747 338.66C191.648 342.703 186.237 340.218 186.237 340.218Z" fill="#301705"/>
<path d="M234.981 375.503C234.981 376.665 234.33 377.391 233.717 377.391H228.904C228.291 377.391 227.95 376.664 227.95 375.503V353.423C227.95 352.261 228.291 351.141 228.904 351.141H233.717C234.33 351.141 234.981 352.262 234.981 353.423V375.503Z" fill="#5B5B5B"/>
<path opacity="0.6" d="M151.568 200.568C151.384 200.525 151.227 200.469 151.087 200.404C150.051 199.926 149.928 199.011 146.67 199.563C142.971 200.188 142.878 202.65 140.253 201.72C137.627 200.791 137.394 199.382 130.685 199.445C123.976 199.509 128.019 201.736 120.644 201.342C113.267 200.949 108.908 201.048 106.448 199.544C103.989 198.041 108.073 199.8 98.5754 199.46C89.0776 199.121 90.9207 202.337 86.0565 201.451C81.1923 200.566 75.2907 202.18 72.5982 200.657C69.9057 199.133 58.6327 197.82 61.1818 196.625C64.3665 195.132 74.5632 191.415 75.7852 193.636C77.0073 195.857 78.803 198.245 80.4202 197.207C82.0374 196.168 83.0813 194.964 84.2687 194.83C85.456 194.696 86.964 194.942 86.964 194.942C86.964 194.942 87.8584 195.489 88.8891 195.812C89.9199 196.135 90.5635 195.484 92.4048 194.583C94.246 193.681 97.1546 194.046 98.5735 195.343C99.9915 196.641 101.77 197.851 106.59 196.497C111.41 195.144 111.711 194.373 114.405 195.883C117.099 197.394 114.488 199.053 118.507 198.807C122.527 198.562 125.118 197.136 126.003 197.8C126.887 198.463 124.318 198.244 128.561 198.135C132.805 198.027 134.08 196.629 135.774 198.515C137.467 200.401 139.932 201.34 141.092 200.145C142.253 198.951 141.032 196.718 143.851 198.14C146.67 199.563 149.769 196.765 150.749 198.145C151.73 199.524 151.568 200.568 151.568 200.568Z" fill="white"/>
<path opacity="0.6" d="M195.667 198.404C195.483 198.36 195.326 198.304 195.186 198.24C194.15 197.762 194.027 196.847 190.768 197.399C187.069 198.024 186.977 200.485 184.351 199.556C181.725 198.627 181.493 197.218 174.784 197.281C168.074 197.345 172.118 199.572 164.743 199.178C157.366 198.784 153.006 198.883 150.547 197.38C148.088 195.876 152.172 197.636 142.674 197.296C133.176 196.957 135.02 200.173 130.155 199.287C125.291 198.401 119.39 200.016 116.697 198.492C114.005 196.969 102.732 195.656 105.281 194.461C108.465 192.968 118.662 189.251 119.884 191.472C121.106 193.693 122.902 196.081 124.519 195.043C126.136 194.004 127.18 192.8 128.368 192.666C129.555 192.532 131.063 192.778 131.063 192.778C131.063 192.778 131.957 193.324 132.988 193.648C134.019 193.971 134.662 193.32 136.504 192.418C138.344 191.517 141.253 191.882 142.672 193.179C144.09 194.477 145.869 195.687 150.689 194.333C155.509 192.98 155.81 192.209 158.504 193.719C161.198 195.23 158.586 196.889 162.606 196.643C166.626 196.397 169.217 194.972 170.102 195.636C170.986 196.299 168.417 196.08 172.66 195.971C176.904 195.863 178.179 194.465 179.872 196.351C181.566 198.237 184.031 199.175 185.191 197.981C186.351 196.786 185.13 194.554 187.949 195.976C190.768 197.399 193.867 194.601 194.848 195.98C195.83 197.36 195.667 198.404 195.667 198.404Z" fill="white"/>
<path opacity="0.4" d="M165.215 199.841C164.856 199.772 164.546 199.675 164.269 199.562C162.22 198.722 161.91 196.957 155.637 198.291C148.518 199.805 148.539 204.586 143.373 202.997C138.207 201.409 137.641 198.696 124.64 199.367C111.639 200.038 119.66 204.025 105.33 203.863C90.9995 203.701 82.556 204.248 77.666 201.534C72.776 198.82 80.8361 201.898 62.3974 202.014C43.9586 202.131 47.793 208.213 38.2914 206.894C28.7899 205.575 17.4817 209.184 12.1375 206.451C6.7933 203.718 -15.1667 202.089 -10.3226 199.567C-4.27014 196.413 15.1928 188.376 17.7428 192.582C20.2924 196.789 23.9683 201.271 27.0194 199.126C30.07 196.981 31.9952 194.561 34.286 194.205C36.5772 193.848 39.5205 194.202 39.5205 194.202C39.5205 194.202 41.2985 195.189 43.3239 195.732C45.3485 196.274 46.5433 194.96 50.0383 193.062C53.5338 191.165 59.2028 191.636 62.058 194.035C64.9131 196.434 68.4602 198.634 77.6927 195.618C86.9256 192.602 87.4464 191.081 92.7916 193.79C98.1367 196.498 93.2102 199.928 100.983 199.124C108.755 198.321 113.662 195.346 115.43 196.56C117.198 197.774 112.201 197.559 120.418 197.003C128.635 196.446 130.993 193.632 134.43 197.15C137.867 200.668 142.721 202.286 144.873 199.876C147.025 197.464 144.476 193.237 150.057 195.764C155.637 198.291 161.416 192.615 163.43 195.208C165.445 197.804 165.215 199.841 165.215 199.841Z" fill="white"/>
<path d="M247.499 184.02L214.297 46.1064C214.297 46.1064 225.278 162.467 212.295 182.19C211.676 183.181 247.499 184.02 247.499 184.02Z" fill="white"/>
<path d="M208.911 25.457C208.911 25.457 178.01 162.427 171.823 166.494C165.637 170.561 207.922 167.025 207.922 167.025L208.911 25.457Z" fill="white"/>
<path d="M156.7 182.137C156.7 180.465 155.344 179.109 153.672 179.109H153.634C151.962 179.109 150.606 180.465 150.606 182.137V186.862C150.606 188.535 151.962 189.891 153.634 189.891H153.672C155.344 189.891 156.7 188.535 156.7 186.862V182.137Z" fill="#474D5E"/>
<path d="M169.825 181.922C169.825 180.369 168.565 179.109 167.012 179.109C165.459 179.109 164.2 180.369 164.2 181.922V186.609C164.2 188.162 165.459 189.422 167.012 189.422C168.565 189.422 169.825 188.162 169.825 186.609V181.922Z" fill="#474D5E"/>
<path d="M154.356 174.422C154.356 174.163 154.146 173.953 153.887 173.953C153.629 173.953 153.419 174.163 153.419 174.422V180.047C153.419 180.306 153.629 180.516 153.887 180.516C154.146 180.516 154.356 180.306 154.356 180.047V174.422Z" fill="#474D5E"/>
<path d="M168.419 174.647C168.419 174.264 168.108 173.953 167.724 173.953H167.707C167.323 173.953 167.012 174.264 167.012 174.647V180.29C167.012 180.673 167.323 180.984 167.707 180.984H167.724C168.108 180.984 168.419 180.673 168.419 180.29V174.647Z" fill="#474D5E"/>
<path d="M210.606 188.016C210.606 188.533 210.186 188.953 209.669 188.953C209.151 188.953 208.731 188.533 208.731 188.016V23.4844C208.731 22.9669 209.151 22.5469 209.669 22.5469C210.186 22.5469 210.606 22.9669 210.606 23.4844V188.016Z" fill="#474D5E"/>
<path d="M249.565 186.661C249.565 186.661 249.565 200.023 248.471 201.336C247.377 202.649 154.603 201.562 152.853 201.344C151.102 201.125 143.224 201.207 145.194 188.805L165.106 185.664L168.825 183.328H206.099L217.619 186.133L249.565 186.661Z" fill="#D0DCE2"/>
<path d="M169.192 186.375C169.192 185.944 169.415 185.672 169.689 185.672H196.517C196.791 185.672 197.015 185.944 197.015 186.375C197.015 186.806 196.791 187.078 196.517 187.078H169.689C169.415 187.078 169.192 186.806 169.192 186.375Z" fill="#474D5E"/>
<path d="M216.963 192C216.963 191.456 217.403 190.828 217.948 190.828H223.856C224.399 190.828 224.841 191.456 224.841 192C224.841 192.544 224.4 193.172 223.856 193.172H217.948C217.403 193.172 216.963 192.544 216.963 192Z" fill="#474D5E"/>
<path d="M192.85 191.531C192.85 191.27 193.274 191.297 193.797 191.297H198.718C199.24 191.297 199.664 191.27 199.664 191.531C199.664 191.792 199.241 191.765 198.718 191.765H193.797C193.274 191.765 192.85 191.792 192.85 191.531Z" fill="#474D5E"/>
<path d="M184.522 191.531C184.522 191.27 184.946 191.297 185.469 191.297H190.39C190.912 191.297 191.337 191.27 191.337 191.531C191.337 191.792 190.913 191.765 190.39 191.765H185.469C184.946 191.765 184.522 191.792 184.522 191.531Z" fill="#474D5E"/>
<path d="M171.265 170.735C171.265 170.735 171.471 167.082 172.072 166.408C172.674 165.734 208.731 165.057 208.731 165.057V171.397C208.262 171.397 171.265 170.735 171.265 170.735Z" fill="#545454"/>
<path d="M170.294 174.692C170.294 175.32 169.785 175.828 169.158 175.828H144.711C144.084 175.828 143.575 175.32 143.575 174.692V174.62C143.575 173.993 144.084 173.484 144.711 173.484H169.158C169.785 173.484 170.294 173.993 170.294 174.62V174.692Z" fill="#474D5E"/>
<path opacity="0.7" d="M171.197 201.413C171.011 201.383 170.85 201.338 170.706 201.284C169.639 200.881 169.453 199.976 166.241 200.755C162.595 201.639 162.675 204.101 159.991 203.358C157.306 202.615 156.975 201.226 150.287 201.762C143.598 202.297 147.789 204.234 140.404 204.36C133.019 204.485 128.676 204.89 126.117 203.563C123.558 202.237 127.756 203.705 118.258 204.034C108.759 204.363 110.824 207.441 105.909 206.899C100.995 206.358 95.2214 208.382 92.4281 207.052C89.6353 205.722 78.2971 205.204 80.7562 203.833C83.8284 202.121 93.7382 197.695 95.1135 199.825C96.4889 201.955 98.4478 204.211 99.9881 203.061C101.529 201.912 102.485 200.637 103.66 200.42C104.835 200.203 106.357 200.342 106.357 200.342C106.357 200.342 107.287 200.824 108.339 201.074C109.39 201.324 109.986 200.63 111.759 199.601C113.533 198.572 116.46 198.732 117.966 199.926C119.472 201.121 121.332 202.202 126.044 200.514C130.757 198.825 131.003 198.034 133.797 199.352C136.59 200.67 134.102 202.508 138.094 201.981C142.087 201.453 144.571 199.849 145.5 200.448C146.429 201.048 143.851 201.01 148.077 200.604C152.302 200.197 153.476 198.713 155.298 200.476C157.119 202.238 159.644 203.001 160.717 201.728C161.791 200.454 160.416 198.313 163.328 199.533C166.24 200.754 169.134 197.746 170.21 199.052C171.286 200.36 171.197 201.413 171.197 201.413Z" fill="white"/>
<path d="M96.3491 262.833C63.6763 253.69 42.9313 232.382 42.7939 203.102L52.0522 203.305L38.5616 187.903L25.0686 203.305H32.2245V203.9H32.3994C32.9366 236.663 55.8959 260.141 91.9639 271.144C99.8403 273.547 102.901 264.666 96.3491 262.833Z" fill="#F80606"/>
<rect x="315.137" y="15.9844" width="45.0996" height="25" rx="12.5" fill="#969696" fill-opacity="0.3"/>
<path d="M323.249 33.6104H322.428V24.6416L319.721 25.6465V24.8809L323.112 23.623H323.249V33.6104ZM333.208 29.4609C333.208 30.8646 332.951 31.931 332.436 32.6602C331.921 33.3848 331.162 33.7471 330.16 33.7471C329.175 33.7471 328.421 33.3916 327.897 32.6807C327.373 31.9652 327.104 30.9261 327.09 29.5635V27.7793C327.09 26.3802 327.35 25.3206 327.87 24.6006C328.389 23.8805 329.148 23.5205 330.146 23.5205C331.13 23.5205 331.882 23.8691 332.402 24.5664C332.921 25.2591 333.19 26.2822 333.208 27.6357V29.4609ZM332.388 27.6768C332.388 26.5374 332.201 25.6761 331.828 25.0928C331.458 24.5094 330.898 24.2178 330.146 24.2178C329.408 24.2178 328.852 24.5026 328.478 25.0723C328.104 25.6419 327.913 26.4827 327.904 27.5947V29.5498C327.904 30.6846 328.095 31.5527 328.478 32.1543C328.865 32.7559 329.426 33.0566 330.16 33.0566C330.889 33.0566 331.44 32.7627 331.814 32.1748C332.192 31.5869 332.384 30.7256 332.388 29.5908V27.6768ZM334.986 34.4648H334.241L338.397 23.6572H339.135L334.986 34.4648ZM344.344 33.6104H343.524V24.6416L340.817 25.6465V24.8809L344.208 23.623H344.344V33.6104ZM352.11 33.6104H351.29V24.6416L348.583 25.6465V24.8809L351.973 23.623H352.11V33.6104Z" fill="black"/>
</g>
<defs>
<linearGradient id="paint0_linear" x1="192.973" y1="377.307" x2="192.973" y2="-13.4092" gradientUnits="userSpaceOnUse">
<stop offset="0.4692" stop-color="white"/>
<stop offset="1" stop-color="#4FC3F7"/>
</linearGradient>
<clipPath id="clip0">
<rect width="375" height="375" fill="white" transform="translate(0.137451 0.984375)"/>
</clipPath>
</defs>
</svg>
