<svg width="376" height="376" viewBox="0 0 376 376" fill="none" xmlns="http://www.w3.org/2000/svg">
<g clip-path="url(#clip0)">
<path d="M-4.27515 -13.6475H390.223L388.689 377.069H-2.89749L-4.27515 -13.6475Z" fill="url(#paint0_linear)"/>
<path d="M387.406 157.689H-6.34375V409.893H387.406V157.689Z" fill="#8BF6FF"/>
<path d="M68.7031 630.571H306.06L310.439 446.53C310.439 446.53 332.339 293.978 186.982 241.611C46.4024 291.903 62.3305 442.702 62.3305 442.702L68.7031 630.571Z" fill="#EDEDED"/>
<path d="M186.156 281.455C186.156 281.455 288.936 278.88 292.518 412.223C296.101 545.568 281.916 559.737 281.916 559.737H91.0044L82.0625 519.242V404.603C82.0625 404.6 88.2486 285.507 186.156 281.455Z" fill="#F4F4F4"/>
<path d="M187.381 280.634C107.956 279.653 82.8046 345.748 76.4263 408.181L79.0536 511.616L83.0389 586.278L144.765 595.608L154.724 587.898L220.833 588.094C220.833 588.094 229.19 594.574 231.185 594.574C242.402 594.574 291.728 585.759 291.728 585.759C291.728 585.759 293.491 535.068 294.314 512.256C294.342 511.482 298.852 409.467 298.788 408.182C295.401 345.872 273.747 281.705 187.381 280.634ZM290.724 510.061C291.124 511.748 280.57 580.833 280.57 580.833C280.57 580.833 239.31 585.805 228.72 585.805C226.837 585.805 218.95 579.61 218.95 579.61L156.535 579.427L147.136 586.796L92.1983 580.835L83.0389 510.147C81.7142 448.794 83.5606 447.93 83.0389 408.183C90.2985 347.277 118.886 282.577 188.441 283.746C257.56 284.91 285.573 347.978 291.729 408.183C291.678 410.514 289.926 509.024 290.724 510.061Z" fill="#E8E8E8"/>
<path d="M291.729 408.182C291.729 408.182 239.557 408.441 228.006 372.405C216.459 336.372 209.691 286.857 208.89 285.819C208.094 284.784 286.15 297.228 291.729 408.182Z" fill="#E8CDA0"/>
<path d="M83.0388 408.182C83.0388 408.182 135.21 408.441 146.759 372.405C158.308 336.372 165.08 286.857 165.874 285.819C166.669 284.784 88.6141 297.228 83.0388 408.182Z" fill="#E8CDA0"/>
<path d="M148.87 314.561C148.859 314.683 150.275 312.542 150.275 312.542C153.793 308.671 161.658 298.274 161.658 298.274L187.164 298.176L215.319 298.304C215.319 298.304 223.182 308.746 226.703 312.613C226.703 312.613 227.8 314.676 227.793 314.555C227.793 294.985 222.422 283.791 208.77 283.791H168.822C154.387 284.412 148.703 295.304 148.87 314.561Z" fill="#29ABE2"/>
<path d="M227.95 317.438C227.95 305.869 219.213 296.527 208.722 296.527H167.563C157.073 296.527 148.731 305.87 148.731 317.438V410.469C148.731 422.038 157.073 431.527 167.564 431.527H208.723C219.214 431.527 227.951 422.038 227.951 410.469L227.95 317.438Z" fill="#D3D3D3"/>
<path d="M163.495 315.279C166.404 315.279 168.762 312.921 168.762 310.011C168.762 307.102 166.404 304.744 163.495 304.744C160.586 304.744 158.227 307.102 158.227 310.011C158.227 312.921 160.586 315.279 163.495 315.279Z" fill="#F4F4F4"/>
<path d="M178.568 315.279C181.477 315.279 183.836 312.921 183.836 310.011C183.836 307.102 181.477 304.744 178.568 304.744C175.659 304.744 173.301 307.102 173.301 310.011C173.301 312.921 175.659 315.279 178.568 315.279Z" fill="#F4F4F4"/>
<path d="M160.102 311.428C159.898 311.428 159.754 311.567 159.754 311.77C159.754 311.972 159.906 312.1 160.096 312.1C160.273 312.1 160.442 311.988 160.442 311.758C160.442 311.569 160.311 311.428 160.102 311.428ZM160.098 311.579C160.181 311.579 160.224 311.677 160.224 311.762C160.224 311.872 160.179 311.949 160.1 311.949C160.02 311.949 159.974 311.866 159.974 311.766C159.974 311.685 160.006 311.579 160.098 311.579ZM160.802 314.35C160.741 314.374 160.637 314.395 160.543 314.395C160.267 314.395 160.104 314.222 160.104 313.947C160.104 313.642 160.295 313.494 160.541 313.494C160.651 313.494 160.739 313.518 160.802 313.544L160.865 313.298C160.81 313.27 160.688 313.237 160.527 313.237C160.112 313.237 159.778 313.498 159.778 313.966C159.778 314.356 160.022 314.651 160.496 314.651C160.663 314.651 160.791 314.621 160.848 314.592L160.802 314.35Z" fill="black"/>
<path d="M161.569 310.369V310.054H161.728V309.822H161.569V309.047H161.19L160.69 309.852V310.054H161.276V310.369H161.569ZM160.979 309.822V309.818L161.156 309.529C161.201 309.445 161.235 309.368 161.278 309.283H161.286C161.28 309.368 161.276 309.45 161.276 309.529V309.822H160.979ZM161.213 311.024C160.871 311.024 160.708 311.327 160.708 311.71C160.71 312.084 160.861 312.392 161.203 312.392C161.54 312.392 161.705 312.111 161.705 311.702C161.705 311.34 161.567 311.024 161.213 311.024ZM161.209 311.258C161.333 311.258 161.396 311.413 161.396 311.706C161.396 312.007 161.331 312.158 161.211 312.158C161.091 312.158 161.017 312.013 161.019 311.71C161.017 311.403 161.095 311.258 161.209 311.258Z" fill="black"/>
<path d="M163.009 309.466C163.316 309.466 163.517 309.305 163.517 309.065C163.517 308.894 163.404 308.784 163.275 308.735V308.729C163.406 308.664 163.467 308.552 163.467 308.438C163.467 308.278 163.338 308.098 163.029 308.098C162.765 308.098 162.563 308.247 162.563 308.471C162.563 308.587 162.626 308.695 162.754 308.76V308.766C162.61 308.829 162.518 308.939 162.518 309.097C162.518 309.277 162.673 309.466 163.009 309.466ZM163.021 309.252C162.905 309.252 162.832 309.163 162.834 309.067C162.834 308.971 162.893 308.898 162.995 308.87C163.117 308.902 163.202 308.971 163.202 309.087C163.202 309.181 163.131 309.252 163.021 309.252ZM163.015 308.308C163.129 308.308 163.176 308.389 163.176 308.471C163.176 308.554 163.113 308.619 163.041 308.64C162.936 308.607 162.854 308.55 162.854 308.461C162.854 308.377 162.909 308.308 163.015 308.308ZM163.023 310.098C162.681 310.098 162.518 310.402 162.518 310.784C162.521 311.159 162.671 311.466 163.013 311.466C163.351 311.466 163.515 311.185 163.515 310.776C163.515 310.414 163.377 310.098 163.023 310.098ZM163.019 310.332C163.143 310.332 163.206 310.487 163.206 310.78C163.206 311.081 163.141 311.232 163.021 311.232C162.901 311.232 162.828 311.087 162.83 310.784C162.828 310.477 162.905 310.332 163.019 310.332Z" fill="black"/>
<path d="M164.373 309.54H164.672V308.218H164.416L164.066 308.38L164.117 308.612L164.369 308.492H164.373V309.54ZM164.463 310.195C164.121 310.195 163.958 310.498 163.958 310.881C163.96 311.255 164.111 311.562 164.453 311.562C164.79 311.562 164.955 311.282 164.955 310.873C164.955 310.511 164.817 310.195 164.463 310.195ZM164.459 310.429C164.583 310.429 164.646 310.584 164.646 310.877C164.646 311.178 164.581 311.328 164.461 311.328C164.341 311.328 164.267 311.184 164.269 310.881C164.267 310.574 164.345 310.429 164.459 310.429ZM164.463 312.195C164.121 312.195 163.958 312.498 163.958 312.881C163.96 313.255 164.111 313.562 164.453 313.562C164.79 313.562 164.955 313.282 164.955 312.873C164.955 312.511 164.817 312.195 164.463 312.195ZM164.459 312.429C164.583 312.429 164.646 312.584 164.646 312.877C164.646 313.178 164.581 313.328 164.461 313.328C164.341 313.328 164.267 313.184 164.269 312.881C164.267 312.574 164.345 312.429 164.459 312.429Z" fill="black"/>
<path d="M165.45 310.466H165.749V309.143H165.493L165.143 309.306L165.194 309.538L165.446 309.418H165.45V310.466ZM165.993 312.466V312.211H165.495V312.207L165.617 312.106C165.808 311.935 165.969 311.758 165.969 311.536C165.969 311.296 165.804 311.121 165.505 311.121C165.326 311.121 165.171 311.182 165.072 311.257L165.159 311.479C165.228 311.426 165.328 311.369 165.442 311.369C165.595 311.369 165.66 311.455 165.66 311.562C165.656 311.717 165.515 311.866 165.226 312.124L165.055 312.279V312.466H165.993ZM165.54 313.121C165.198 313.121 165.035 313.424 165.035 313.807C165.037 314.181 165.188 314.488 165.529 314.488C165.867 314.488 166.032 314.207 166.032 313.798C166.032 313.436 165.894 313.121 165.54 313.121ZM165.536 313.355C165.66 313.355 165.723 313.51 165.723 313.803C165.723 314.104 165.658 314.254 165.538 314.254C165.418 314.254 165.344 314.11 165.346 313.807C165.344 313.499 165.422 313.355 165.536 313.355Z" fill="black"/>
<path d="M162.738 307.398L163.053 307.358L162.937 306.438L162.622 306.478L162.738 307.398Z" fill="black"/>
<path d="M164.777 307.516L165.071 307.638L165.426 306.78L165.133 306.659L164.777 307.516Z" fill="black"/>
<path d="M166.244 308.417L166.465 308.645L167.13 307.999L166.909 307.771L166.244 308.417Z" fill="black"/>
<path d="M161.218 307.961L161.487 307.792L160.993 307.007L160.724 307.176L161.218 307.961Z" fill="black"/>
<path d="M160.47 308.652L160.691 308.422L160.023 307.779L159.802 308.008L160.47 308.652Z" fill="black"/>
<path d="M163.834 307.157L164.019 307.172L164.079 306.433L163.895 306.418L163.834 307.157Z" fill="black"/>
<path d="M161.823 307.446L161.994 307.375L161.713 306.689L161.541 306.76L161.823 307.446Z" fill="black"/>
<path d="M165.83 307.847L165.978 307.958L166.421 307.364L166.273 307.253L165.83 307.847Z" fill="black"/>
<path d="M163.495 304.078C160.198 304.078 157.525 306.75 157.525 310.047C157.525 313.344 160.198 316.016 163.495 316.016C166.792 316.016 169.464 313.344 169.464 310.047C169.464 306.75 166.791 304.078 163.495 304.078ZM163.495 314.869C160.832 314.869 158.673 312.711 158.673 310.048C158.673 307.386 160.832 305.227 163.495 305.227C166.158 305.227 168.316 307.386 168.316 310.048C168.316 312.711 166.158 314.869 163.495 314.869Z" fill="#1E1E1E"/>
<path d="M163.495 304.078C160.198 304.078 157.525 306.75 157.525 310.047C157.525 313.344 160.198 316.016 163.495 316.016C166.792 316.016 169.464 313.344 169.464 310.047C169.464 306.75 166.791 304.078 163.495 304.078ZM163.495 315.593C160.432 315.593 157.949 313.11 157.949 310.048C157.949 306.985 160.432 304.502 163.495 304.502C166.557 304.502 169.04 306.985 169.04 310.048C169.04 313.11 166.557 315.593 163.495 315.593Z" fill="#3D3D3D"/>
<path d="M163.297 310.441L163.401 306.811L163.611 306.811C163.611 306.811 163.688 310.433 163.693 310.442L163.297 310.441Z" fill="#EA2424"/>
<path d="M163.495 312.485C164.099 312.485 164.59 311.995 164.59 311.39C164.59 310.785 164.099 310.295 163.495 310.295C162.89 310.295 162.4 310.785 162.4 311.39C162.4 311.995 162.89 312.485 163.495 312.485Z" fill="#1E1E1E"/>
<path d="M178.504 306.496H178.215V307.787H178.504V306.496Z" fill="#232323"/>
<path d="M181.041 308.945L181.23 309.174L182.227 308.351L182.038 308.122L181.041 308.945Z" fill="#232323"/>
<path d="M174.671 308.108L174.483 308.336L175.48 309.159L175.668 308.931L174.671 308.108Z" fill="#232323"/>
<path d="M176.324 306.903L176.126 306.995L176.526 307.858L176.724 307.766L176.324 306.903Z" fill="#232323"/>
<path d="M179.942 307.775L180.14 307.866L180.538 307.003L180.34 306.912L179.942 307.775Z" fill="#232323"/>
<path d="M174.926 312.771H175.244V312.208H175.747V311.951H175.244V311.631H175.782V311.371H174.926V312.771ZM174.924 313.371V314.152C174.924 314.599 175.131 314.794 175.485 314.794C175.85 314.794 176.069 314.589 176.069 314.156V313.371H175.753V314.177C175.753 314.424 175.661 314.541 175.495 314.541C175.333 314.541 175.242 314.418 175.242 314.177V313.371H174.924ZM175.759 315.922H175.244V315.631H175.79V315.371H174.926V316.771H175.819V316.512H175.244V316.179H175.759V315.922ZM176.036 316.771H176.911V316.505H176.354V315.371H176.036V316.771Z" fill="#232323"/>
<path d="M176.565 310.108H176.028V309.804H176.598V309.533H175.696V310.995H176.628V310.724H176.028V310.377H176.565V310.108Z" fill="#232323"/>
<path d="M180.778 310.995H181.11V310.407H181.635V310.138H181.11V309.804H181.672V309.533H180.778V310.995Z" fill="#232323"/>
<path d="M178.463 309.795L179.026 307.888H178.761L178.198 309.795H178.463Z" fill="#232323"/>
<path d="M178.305 308.779H178.496V307.936H178.333L178.11 308.04L178.142 308.188L178.303 308.111H178.305V308.779Z" fill="#1E1E1E"/>
<path d="M179.197 309.146V308.984H178.88V308.982L178.957 308.917C179.079 308.808 179.182 308.695 179.182 308.554C179.182 308.401 179.077 308.289 178.886 308.289C178.772 308.289 178.673 308.328 178.61 308.376L178.666 308.517C178.71 308.484 178.773 308.447 178.846 308.447C178.943 308.447 178.985 308.502 178.985 308.571C178.982 308.669 178.893 308.764 178.708 308.929L178.599 309.027V309.146H179.197Z" fill="#232323"/>
<path d="M181.564 311.083C181.549 311.071 181.432 310.966 181.392 310.985C181.352 311.003 181.463 311.09 181.483 311.113C181.503 311.137 181.519 311.113 181.503 311.232C181.488 311.352 181.525 311.535 181.544 311.572C181.562 311.61 181.64 311.791 181.474 311.771C181.308 311.751 181.366 311.646 181.36 311.457C181.355 311.312 181.265 311.281 181.198 311.273V310.946H180.62V311.836H180.531V311.881H181.288V311.836H181.199V311.342C181.244 311.355 181.284 311.38 181.299 311.407C181.336 311.472 181.272 311.54 181.297 311.686C181.323 311.83 181.486 311.862 181.59 311.805C181.695 311.747 181.606 311.556 181.587 311.5C181.569 311.446 181.562 311.296 181.572 311.27C181.582 311.243 181.646 311.238 181.661 311.213C181.676 311.186 181.579 311.094 181.564 311.083ZM181.153 311.281H180.664V310.992H181.153V311.281Z" fill="black"/>
<path d="M178.349 303.98C174.999 303.98 172.282 306.697 172.282 310.048C172.282 313.398 174.999 316.115 178.349 316.115C181.701 316.115 184.417 313.398 184.417 310.048C184.417 306.697 181.7 303.98 178.349 303.98ZM178.349 314.949C175.643 314.949 173.449 312.755 173.449 310.048C173.449 307.342 175.643 305.148 178.349 305.148C181.056 305.148 183.25 307.342 183.25 310.048C183.25 312.755 181.056 314.949 178.349 314.949Z" fill="#1E1E1E"/>
<path d="M178.349 303.98C174.999 303.98 172.282 306.697 172.282 310.048C172.282 313.398 174.999 316.115 178.349 316.115C181.701 316.115 184.417 313.398 184.417 310.048C184.417 306.697 181.7 303.98 178.349 303.98ZM178.349 315.685C175.237 315.685 172.713 313.161 172.713 310.048C172.713 306.935 175.237 304.413 178.349 304.413C181.463 304.413 183.986 306.936 183.986 310.048C183.986 313.161 181.462 315.685 178.349 315.685Z" fill="#3D3D3D"/>
<path d="M178.544 311.088C178.554 311.083 181.311 308.641 181.311 308.641L181.455 308.799L178.818 311.382L178.544 311.088Z" fill="#EA2424"/>
<path d="M178.35 312.525C178.964 312.525 179.463 312.027 179.463 311.412C179.463 310.797 178.964 310.299 178.35 310.299C177.735 310.299 177.236 310.797 177.236 311.412C177.236 312.027 177.735 312.525 178.35 312.525Z" fill="#1E1E1E"/>
<path d="M189.907 331.854H188.145V365.784H189.907V331.854Z" fill="#969696"/>
<path d="M203.674 358.2L204.502 356.694L173 339.365L172.172 340.871L203.674 358.2Z" fill="#969696"/>
<path d="M203.7 341.053L202.815 339.578L171.992 358.081L172.877 359.556L203.7 341.053Z" fill="#969696"/>
<path d="M188.747 319.84C172.519 319.84 159.364 332.994 159.364 349.223C159.364 365.452 172.519 378.607 188.747 378.607C204.976 378.607 218.131 365.452 218.131 349.223C218.131 332.994 204.975 319.84 188.747 319.84ZM188.747 374.493C174.792 374.493 163.477 363.179 163.477 349.223C163.477 335.267 174.792 323.954 188.747 323.954C202.703 323.954 214.017 335.267 214.017 349.223C214.017 363.179 202.704 374.493 188.747 374.493Z" fill="black" stroke="black" stroke-miterlimit="10"/>
<path d="M183.661 324.466C183.782 324.448 187.24 324.052 187.298 326.857C187.355 329.662 187.365 331.639 187.365 331.639C187.365 331.639 187.234 333.715 188.57 333.713C188.697 333.713 189.668 333.715 189.777 333.715C190.887 333.715 190.92 332.679 190.91 331.598C190.9 330.426 190.971 326.902 190.971 326.902C190.971 326.902 191.224 324.5 193.865 324.5C196.574 324.5 193.299 323.552 193.299 323.552L184.778 323.605L183.661 324.466Z" fill="black" stroke="black" stroke-miterlimit="10"/>
<path d="M164.615 341.776C164.66 341.662 165.971 338.498 168.428 339.851C170.887 341.203 172.602 342.184 172.602 342.184C172.602 342.184 174.335 343.334 175.002 342.177C175.066 342.066 175.552 341.227 175.607 341.132C176.162 340.17 175.281 339.624 174.341 339.092C173.319 338.515 170.304 336.692 170.304 336.692C170.304 336.692 167.989 335.256 169.461 333.065C170.965 330.824 168.566 333 168.566 333L164.352 340.407L164.615 341.776Z" fill="black" stroke="black" stroke-miterlimit="10"/>
<path d="M170.135 366.294C170.06 366.198 167.974 363.481 170.374 362.028C172.774 360.576 174.481 359.579 174.481 359.579C174.481 359.579 176.345 358.654 175.676 357.499C175.611 357.388 175.128 356.547 175.073 356.453C174.518 355.49 173.605 355.98 172.674 356.529C171.664 357.125 168.576 358.824 168.576 358.824C168.576 358.824 166.191 359.693 164.871 357.406C163.517 355.06 164.511 358.484 164.511 358.484L168.818 365.838L170.135 366.294Z" fill="black"/>
<path d="M194.872 373.728C194.75 373.745 191.355 374.193 191.298 371.388C191.24 368.583 191.23 366.607 191.23 366.607C191.23 366.607 191.36 364.53 190.025 364.532C189.897 364.532 188.928 364.53 188.819 364.53C187.708 364.53 187.676 365.565 187.685 366.646C187.696 367.819 187.624 371.343 187.624 371.343C187.624 371.343 187.113 374.028 184.411 374.013C181.702 373.998 185.297 374.694 185.297 374.694L193.819 374.64L194.872 373.728Z" fill="black" stroke="black" stroke-miterlimit="10"/>
<path d="M212.998 356.469C212.952 356.582 211.642 359.746 209.184 358.395C206.726 357.041 205.01 356.061 205.01 356.061C205.01 356.061 203.277 354.911 202.611 356.068C202.546 356.178 202.06 357.018 202.006 357.112C201.45 358.074 202.331 358.621 203.271 359.153C204.292 359.729 207.308 361.554 207.308 361.554C207.308 361.554 209.275 363.3 207.955 365.587C206.6 367.933 209.046 365.245 209.046 365.245L213.261 357.838L212.998 356.469Z" fill="black" stroke="black" stroke-miterlimit="10"/>
<path d="M206.986 331.706C207.061 331.803 209.147 334.519 206.746 335.971C204.346 337.424 202.639 338.421 202.639 338.421C200.444 339.511 201.867 341.232 201.444 340.501C201.38 340.391 201.993 341.453 202.047 341.547C202.602 342.509 203.516 342.02 204.446 341.471C205.457 340.875 208.543 339.176 208.543 339.176C208.543 339.176 211.16 338.407 212.481 340.693C213.836 343.039 212.609 339.515 212.609 339.515L208.302 332.162L206.986 331.706Z" fill="black" stroke="black" stroke-miterlimit="10"/>
<path d="M189.136 342.51C185.443 342.51 182.45 345.504 182.45 349.196C182.45 352.888 185.443 355.881 189.136 355.881C192.828 355.881 195.821 352.888 195.821 349.196C195.821 345.503 192.828 342.51 189.136 342.51ZM189.136 352.555C187.28 352.555 185.776 351.051 185.776 349.196C185.776 347.34 187.28 345.836 189.136 345.836C190.991 345.836 192.495 347.34 192.495 349.196C192.495 351.051 190.991 352.555 189.136 352.555Z" fill="#969696"/>
<path d="M189.176 352.664C191.295 352.664 193.013 350.946 193.013 348.826C193.013 346.707 191.295 344.989 189.176 344.989C187.057 344.989 185.339 346.707 185.339 348.826C185.339 350.946 187.057 352.664 189.176 352.664Z" fill="black"/>
<path d="M157.821 405.465C157.821 405.465 154.692 386.793 153.622 382.003C151.62 373.036 155.451 353.365 154.988 349.923C154.524 346.48 154.49 342.817 158.93 347.412C163.368 352.007 161.989 369.62 161.546 378.405C161.1 387.187 167.093 396.996 167.643 399.727C168.184 402.464 162.947 399.126 162.947 399.126L157.821 405.465Z" fill="#996234"/>
<path d="M218.583 427.408C218.583 427.408 223.481 407.284 223.902 402.394C224.684 393.241 218.262 374.259 218.262 370.785C218.262 367.311 217.812 363.677 214.023 368.823C210.236 373.97 213.953 391.239 215.565 399.888C217.183 408.531 209.403 418.181 209.229 420.962C209.055 423.746 216.953 420.61 216.953 420.61L218.583 427.408Z" fill="#996234"/>
<path d="M218.606 376.257C218.606 376.257 222.134 351.571 207.914 346.972C195.672 343.012 186.007 337.901 175.452 343.872C164.894 349.846 159.943 347.331 158.443 359.012C157.021 370.087 149.639 376.691 158.996 378.231C169.078 379.894 201.63 381.223 203.496 381.426C214.964 382.693 218.606 376.257 218.606 376.257Z" fill="#8BC7E8"/>
<path d="M180.195 309.546C180.195 309.546 179.887 323.097 180.132 339.481C180.296 350.497 188.539 351.575 193.288 347.704C199.411 342.715 194.97 324.852 195.639 321.316C196.31 317.776 180.195 309.546 180.195 309.546Z" fill="#996234"/>
<path d="M186.237 339.979C186.237 339.979 175.38 338.682 177.01 327.827C178.631 316.978 172.58 308.852 180.501 306.101C187.977 303.505 193.016 297.152 196.397 306.214C199.778 315.277 202.22 320.086 199.778 326.455C197.339 332.832 197.85 334.386 194.747 338.421C191.648 342.465 186.237 339.979 186.237 339.979Z" fill="#301705"/>
<path d="M234.981 375.265C234.981 376.427 234.33 377.152 233.717 377.152H228.904C228.291 377.152 227.95 376.426 227.95 375.265V353.185C227.95 352.023 228.292 350.902 228.904 350.902H233.717C234.331 350.902 234.981 352.024 234.981 353.185V375.265Z" fill="#5B5B5B"/>
<path opacity="0.7" d="M180.34 180.014C180.136 179.981 179.96 179.931 179.801 179.872C178.628 179.429 178.423 178.435 174.895 179.29C170.889 180.261 170.978 182.967 168.028 182.151C165.079 181.334 164.715 179.808 157.368 180.397C150.019 180.985 154.624 183.113 146.509 183.252C138.396 183.389 133.625 183.834 130.813 182.376C128.002 180.919 132.613 182.532 122.179 182.893C111.743 183.255 114.011 186.637 108.612 186.042C103.213 185.447 96.8699 187.672 93.8009 186.209C90.733 184.748 78.2764 184.179 80.9778 182.673C84.3533 180.791 95.2405 175.93 96.7517 178.27C98.2625 180.61 100.414 183.087 102.107 181.825C103.799 180.562 104.85 179.161 106.141 178.923C107.432 178.684 109.104 178.837 109.104 178.837C109.104 178.837 110.126 179.367 111.282 179.642C112.437 179.916 113.091 179.153 115.04 178.023C116.988 176.892 120.204 177.069 121.858 178.38C123.513 179.692 125.556 180.881 130.734 179.026C135.911 177.17 136.181 176.302 139.251 177.749C142.32 179.197 139.586 181.216 143.973 180.637C148.359 180.058 151.089 178.295 152.109 178.954C153.129 179.612 150.297 179.571 154.939 179.124C159.582 178.678 160.872 177.048 162.873 178.984C164.873 180.92 167.648 181.759 168.828 180.359C170.006 178.961 168.496 176.608 171.695 177.949C174.893 179.289 178.073 175.984 179.256 177.42C180.437 178.857 180.34 180.014 180.34 180.014Z" fill="white"/>
<path d="M90.7532 179.497C90.7532 179.497 112.25 95.3151 136.73 65.5448C138.837 63.8352 148.303 67.7029 148.479 68.8598C148.655 70.0167 143.403 109.473 142.663 116.294C141.924 123.114 144.129 128.547 141.786 135.19C139.441 141.834 137.868 141.872 137.548 146.262C137.228 150.651 139.438 157.397 137.698 160.236C135.959 163.074 105.748 170.819 102.298 172.725C98.8485 174.63 95.886 175.912 95.9741 176.491C96.0622 177.07 93.989 179.006 93.989 179.006L90.7532 179.497Z" fill="#E58525"/>
<path d="M102.899 138.507C102.899 138.507 100.364 135.933 102.459 135.614C104.206 135.349 118.221 141.112 118.221 141.112L140.628 160.1C140.628 160.1 138.703 161.97 138.847 161.357C138.991 160.743 119.166 142.547 118.334 142.279C117.502 142.011 103.669 136.418 103.675 137.009C103.68 137.599 102.899 138.507 102.899 138.507Z" fill="#1C262B"/>
<path d="M135.279 72.027L135.111 70.9207L147.326 69.0654C147.326 69.0654 149.98 69.2276 147.561 70.1876C145.143 71.1467 135.279 72.027 135.279 72.027Z" fill="#E2BE27"/>
<path d="M125.464 90.091C124.961 89.378 123.657 88.5895 125.23 88.5483C126.801 88.5066 145.679 89.3878 146.047 90.5152C146.416 91.6425 147.781 91.83 145.074 92.0438C142.366 92.2585 125.464 90.091 125.464 90.091Z" fill="#E2BE27"/>
<path d="M115.769 109.319C115.769 109.319 114.611 108.115 115.594 108.163C116.577 108.21 141.82 114.635 141.803 115.821C141.785 117.007 139.653 116.937 139.653 116.937L115.769 109.319Z" fill="#E2BE27"/>
<path d="M107.992 130.625C107.992 130.625 107.711 129.287 108.305 129.197C108.9 129.107 136.328 140.329 137.913 141.271C139.498 142.214 138.237 143.404 138.237 143.404L107.992 130.625Z" fill="#E2BE27"/>
<path d="M105.177 187.281C105.177 187.281 81.2726 191.833 58.8551 173.274C58.8551 173.274 58.1342 172.857 58.699 172.245C59.2643 171.633 119.831 184.15 123.218 181.786C126.606 179.422 122.791 184.612 122.791 184.612L105.177 187.281Z" fill="#EAEAEA"/>
<path d="M110.801 138.051C110.801 138.051 111.264 139.631 111.695 139.934C112.125 140.236 114.045 142.03 114.045 142.03L118.217 144.952L122.672 144.275L122.834 146.109L123.751 147.505C123.751 147.505 123.807 148.478 123.428 149.193C123.049 149.908 121.886 151.794 121.469 152.515C121.053 153.236 115.317 162.243 115.108 163.469C114.9 164.694 112.964 166.303 112.862 167.108C112.758 167.912 111.439 175.479 110.99 177.388C110.541 179.297 106.957 180.894 106.957 180.894C106.957 180.894 108.094 181.511 109.024 181.501C109.954 181.492 112.141 181.686 112.141 181.686C112.141 181.686 113.269 179.673 113.202 178.499C113.135 177.325 114.026 174.556 114.18 173.616C114.334 172.675 116.53 170.234 116.759 169.147C116.989 168.06 117.449 166.937 118.541 166.246C119.633 165.553 122.088 162.663 122.693 162.317C123.298 161.971 122.851 164.67 122.705 165.218C122.559 165.766 122.051 167.553 121.719 167.999C121.387 168.444 120.027 173.118 120.108 173.766C120.189 174.413 121.329 183.263 121.698 183.207C122.067 183.151 123.063 182.392 123.222 177.898C123.237 177.485 124.723 170.471 124.723 170.471L126.199 168.305L127.493 166.069C127.493 166.069 130.772 162.044 130.944 160.58C131.117 159.116 131.219 155.244 131.121 154.602C131.023 153.959 131.501 151.256 131.501 151.256L132.498 148.08L132.8 144.877C132.8 144.877 132.536 143.996 132.469 142.691C132.401 141.386 131.622 140.584 131.287 140.109C130.952 139.633 130.055 138.06 130.055 138.06C130.055 138.06 130.089 136.443 130.725 136.248C131.003 136.163 131.634 134.926 131.634 134.926L131.851 132.131L130.652 130.731L128.355 130.549L126.909 130.769L125.529 132.725L125.013 135.173L125.295 137.895L126.589 138.949L125.575 139.387C125.575 139.387 124.352 139.453 122.776 140.35C121.201 141.247 118.333 142.278 118.333 142.278L114.221 140L112.419 137.364L110.801 138.051Z" fill="#896446"/>
<path d="M137.289 129.943C137.289 129.943 137.13 130.197 137 130.316C136.871 130.434 136.763 130.7 136.763 130.7C136.763 130.7 136.425 130.752 136.232 130.781C136.039 130.81 135.832 130.74 135.238 130.731C134.645 130.722 134.541 130.362 134.541 130.362L134.107 129.779C134.107 129.779 133.802 129.721 133.524 129.516C133.246 129.312 132.944 129.603 132.944 129.603C132.944 129.603 131.597 130.154 131.018 130.242C130.715 130.288 130.619 130.362 130.572 130.452C130.356 130.192 129.895 129.968 129.33 130.145C128.723 130.336 128.751 130.234 128.317 130.299C127.883 130.365 127.444 130.398 127.158 130.458C126.871 130.519 127.235 130.316 126.871 130.519C126.507 130.722 126.29 130.804 126.23 131.06C126.17 131.315 125.374 131.486 125.374 131.486L125.455 132.016C125.528 132.498 125.847 133.091 126.241 133.08C126.634 133.07 127.777 132.699 127.992 132.815C128.207 132.93 128.572 133.17 128.572 133.17C128.572 133.17 128.063 133.445 128.085 133.59C128.107 133.735 127.683 134.539 127.741 134.924C127.8 135.31 127.453 135.313 127.798 135.311C128.142 135.307 128.564 135.49 128.586 135.635C128.608 135.779 129.084 136.644 129.084 136.644L130.302 136.929C130.302 136.929 130.518 136.672 130.704 136.595C130.889 136.517 131.209 136.025 131.435 135.892C131.662 135.759 132.32 135.22 132.275 134.926C132.23 134.631 131.825 133.909 132.012 133.19C132.123 132.764 132.071 132.296 131.972 131.937C132.158 131.93 132.372 131.922 132.608 131.916C133.394 131.896 132.9 132.217 133.441 132.53C133.981 132.843 133.989 132.89 134.7 133.029C135.412 133.167 136.536 132.454 137.28 131.502C138.023 130.551 137.63 130.562 137.675 129.884C137.72 129.207 137.289 129.943 137.289 129.943Z" fill="#3F2C1E"/>
<path d="M121.642 152.216C121.802 152.29 131.198 155.757 131.198 155.757C131.198 155.757 131.068 157.389 131.12 157.727C131.171 158.064 131.323 158.204 130.284 158.51C129.245 158.816 128.048 159.54 127.694 159.643C127.34 159.746 125.338 160.692 125.037 160.984C124.737 161.277 124.083 160.95 124.083 160.95C124.083 160.95 124.503 159.092 124.578 158.933C124.653 158.773 124.087 157.972 123.702 157.389C123.318 156.806 122.55 154.999 122.038 154.879C121.527 154.76 120.482 154.108 120.482 154.108L121.642 152.216Z" fill="#DAE551"/>
<path opacity="0.7" d="M190.527 185.537C190.324 185.5 190.149 185.447 189.992 185.384C188.829 184.916 188.646 183.917 185.098 184.697C181.073 185.582 181.104 188.289 178.173 187.41C175.241 186.53 174.911 184.996 167.552 185.427C160.193 185.857 164.75 188.083 156.634 188.047C148.52 188.011 143.741 188.353 140.961 186.836C138.181 185.318 142.757 187.03 132.317 187.167C121.876 187.305 124.071 190.734 118.686 190.024C113.301 189.313 106.912 191.401 103.875 189.873C100.839 188.346 88.3971 187.51 91.1308 186.062C94.5457 184.254 105.535 179.627 106.996 181.999C108.456 184.371 110.554 186.894 112.273 185.668C113.992 184.442 115.073 183.064 116.369 182.853C117.664 182.643 119.333 182.831 119.333 182.831C119.333 182.831 120.343 183.383 121.493 183.683C122.642 183.981 123.312 183.233 125.285 182.145C127.257 181.056 130.468 181.302 132.094 182.649C133.721 183.996 135.738 185.229 140.954 183.485C146.169 181.741 146.458 180.879 149.496 182.392C152.533 183.905 149.758 185.866 154.155 185.381C158.553 184.896 161.319 183.192 162.326 183.872C163.331 184.553 160.501 184.451 165.152 184.104C169.802 183.758 171.127 182.155 173.087 184.134C175.045 186.113 177.8 187.01 179.01 185.637C180.218 184.264 178.759 181.879 181.929 183.289C185.097 184.697 188.348 181.462 189.499 182.923C190.65 184.382 190.527 185.537 190.527 185.537Z" fill="white"/>
<path d="M127.436 139.17C127.436 139.17 128.253 139.147 128.317 139.138C128.381 139.129 129.556 139.058 129.556 139.058L129.981 138.866V139.116C129.981 139.116 129.728 139.403 129.691 139.504C129.654 139.606 129.468 139.782 129.505 139.976C129.542 140.17 129.393 140.244 129.523 140.355C129.652 140.466 129.638 140.559 129.767 140.605C129.897 140.651 129.871 140.707 129.89 140.651C129.908 140.596 129.951 140.522 129.951 140.457C129.951 140.392 130.07 140.476 129.949 140.392C129.829 140.309 129.837 140.328 129.745 140.245C129.652 140.161 129.615 140.124 129.597 139.995C129.578 139.865 129.522 139.87 129.587 139.771C129.651 139.671 129.754 139.56 129.79 139.468C129.827 139.376 129.855 139.303 129.864 139.201C129.874 139.098 129.874 139.107 129.864 139.006C129.855 138.904 129.79 138.858 129.855 138.904C129.92 138.95 130.206 139.19 130.206 139.274C130.206 139.357 130.169 139.385 130.206 139.394C130.243 139.404 130.28 139.431 130.299 139.367C130.318 139.302 130.289 139.311 130.299 139.237C130.308 139.163 130.358 139.173 130.305 139.089C130.253 139.006 130.234 138.969 130.197 138.95C130.16 138.932 129.975 138.775 129.975 138.775C129.975 138.775 129.994 138.691 130.04 138.728C130.086 138.765 130.248 138.876 130.329 138.895C130.409 138.913 130.77 139.006 130.77 139.006L130.697 138.867C130.697 138.867 130.531 138.881 130.483 138.8C130.436 138.719 130.336 138.654 130.28 138.645C130.225 138.635 130.206 138.608 130.068 138.589C129.929 138.571 129.901 138.515 129.901 138.515C129.864 138.46 129.836 138.413 129.772 138.432C129.707 138.45 129.698 138.404 129.661 138.487C129.624 138.571 129.605 138.58 129.605 138.626C129.605 138.672 129.624 138.746 129.624 138.746C129.624 138.746 129.763 138.672 129.615 138.783C129.467 138.894 129.226 138.941 129.162 138.931C129.097 138.922 129.189 138.949 128.745 138.922C128.301 138.894 127.886 138.912 127.571 138.931C127.257 138.949 126.933 138.922 126.896 138.922C126.859 138.922 126.718 138.895 126.591 138.949C126.464 139.004 126.147 139.07 126.147 139.07L126.073 139.174L127.436 139.17Z" fill="#DAE551"/>
<path d="M122.732 144.303C122.732 144.303 123.28 144.142 123.349 144.133C123.419 144.123 124.061 143.987 124.061 143.987C124.061 143.987 124.423 145.325 124.479 145.381C124.534 145.436 124.678 145.647 124.771 145.749C124.864 145.851 125.121 146.118 125.14 146.155C125.14 146.155 125.37 146.886 125.379 146.913C125.388 146.941 125.379 147.218 125.379 147.274C125.379 147.274 125.909 147.385 126.009 147.422C126.109 147.459 127.404 147.56 127.571 147.551C127.737 147.542 128.643 147.449 128.875 147.44C129.106 147.431 129.263 147.375 129.328 147.384C129.393 147.394 129.661 147.329 129.744 147.366C129.828 147.403 130.206 147.366 130.234 147.384C130.262 147.403 130.354 147.394 130.419 147.357C130.484 147.32 130.743 147.237 130.771 147.227C130.799 147.218 130.993 147.163 130.993 147.163C130.993 147.163 131.141 147.107 131.122 147.07C131.103 147.033 131.079 147.005 131.124 146.977C131.168 146.95 131.427 146.829 131.474 146.913C131.521 146.996 131.529 147.089 131.529 147.089C131.594 147.116 131.622 147.117 131.733 147.098C131.844 147.079 131.761 147.098 131.927 147.042C132.094 146.987 132.232 146.885 132.232 146.885C132.232 146.885 132.135 146.857 132.219 146.839C132.302 146.82 132.326 146.728 132.326 146.728V146.663L132.579 146.534L132.794 146.487V146.663C132.794 146.663 132.495 146.876 132.43 146.932C132.365 146.987 132.345 146.978 132.188 147.098C132.031 147.218 131.9 147.348 131.789 147.366C131.678 147.385 131.571 147.348 131.571 147.348C131.571 147.348 131.537 147.432 131.546 147.552C131.554 147.671 131.417 147.755 131.565 147.838C131.713 147.921 131.889 148.014 131.889 148.014C131.889 148.014 132.093 148.079 132.121 148.079C132.148 148.079 132.148 148.004 132.148 148.116C132.148 148.227 132.121 148.384 132.121 148.384C132.01 148.301 132.019 148.162 131.88 148.153C131.741 148.143 131.88 148.282 131.741 148.143C131.603 148.004 131.39 147.986 131.362 147.856C131.334 147.727 131.325 147.681 131.306 147.561C131.288 147.441 131.306 147.338 131.251 147.385C131.195 147.431 131.112 147.625 131.103 147.829C131.094 148.032 130.964 148.356 131.066 148.421C131.168 148.485 131.335 148.517 131.381 148.543C131.426 148.569 131.566 148.597 131.63 148.615C131.695 148.634 131.797 148.652 131.853 148.689C131.908 148.726 131.917 148.828 131.871 148.828C131.824 148.828 131.566 148.874 131.381 148.782C131.196 148.689 131.085 148.625 131.048 148.606C131.011 148.588 130.928 148.587 130.9 148.44C130.872 148.292 130.854 148.162 130.872 148.06C130.891 147.959 130.854 147.996 130.891 147.829C130.928 147.663 130.937 147.58 130.955 147.543C130.974 147.506 131.002 147.395 131.002 147.395C131.002 147.395 130.364 147.533 130.243 147.552C130.123 147.57 129.929 147.626 129.374 147.626C128.819 147.626 128.338 147.709 128.042 147.737C127.746 147.764 126.83 147.94 126.442 147.829C126.053 147.718 125.535 147.57 125.359 147.533C125.184 147.496 124.758 147.496 124.425 147.459C124.092 147.422 123.839 147.542 123.796 147.552C123.753 147.561 122.601 147.037 122.732 144.954L122.677 144.342L122.732 144.303Z" fill="#DAE551"/>
<path opacity="0.7" d="M249.388 209.662C250.281 208.737 252.289 211.189 254.567 210.441C256.844 209.694 255.673 211.231 256.409 212.26C257.145 213.288 259.102 212.863 260.586 211.64C262.071 210.416 262.871 211.611 266.043 212.173C269.216 212.735 267.264 212.608 268.002 212.211C268.742 211.813 270.525 213.178 273.515 213.818C276.504 214.458 274.732 212.917 276.925 212.089C279.119 211.26 279.258 211.874 282.721 213.437C286.186 214.999 287.657 214.293 288.869 213.481C290.081 212.668 292.306 212.723 293.585 213.608C294.865 214.494 295.274 215.056 296.084 214.93C296.895 214.803 297.628 214.495 297.628 214.495C297.628 214.495 298.789 214.482 299.665 214.717C300.541 214.952 301.188 215.976 302.284 216.937C303.381 217.901 304.598 219.368 305.767 217.839C306.937 216.311 309.296 217.572 311.519 219.054C313.296 220.239 309.959 219.576 307.765 220.414C305.57 221.252 301.323 219.371 297.573 219.484C293.821 219.597 295.569 217.393 288.401 216.57C281.234 215.747 284.499 214.89 282.482 215.74C280.466 216.589 277.204 216.02 271.624 215.478C266.041 214.938 269.33 213.725 264.301 212.916C259.273 212.106 258.939 213.137 256.862 213.538C254.786 213.938 254.996 212.079 252.29 211.189C249.906 210.407 249.71 211.079 248.879 211.32C248.766 211.352 248.643 211.376 248.5 211.388C248.499 211.388 248.495 210.586 249.388 209.662Z" fill="white"/>
<path d="M289.122 216.041C289.122 216.041 294.948 213.965 295.69 214.139C296.433 214.313 298.155 214.455 298.948 214.553C299.742 214.65 300.538 214.738 301.15 214.271C301.761 213.803 304.443 212.409 304.802 212.262C305.16 212.115 304.508 209.908 304.108 209.051C303.708 208.193 301.344 203.094 301.248 201.512C301.153 199.929 300.348 199.911 300.254 199.645C300.162 199.379 299.149 198.664 298.737 198.565C298.325 198.464 293.9 194.886 293.105 195.124C292.31 195.363 290.565 197.4 290.508 197.516C290.45 197.63 290.392 198.09 289.711 198.109C289.029 198.129 288.548 198.577 288.548 198.577C288.548 198.577 287.852 199.04 287.679 199.06C287.506 199.081 286.94 199.858 286.685 199.868C286.429 199.878 285.98 199.396 286.206 198.958C286.432 198.52 287.045 198.046 287.371 197.812C287.698 197.578 288.754 197.289 288.794 196.975C288.834 196.661 288.045 196.185 287.71 196.161C287.372 196.135 285.026 196.516 284.51 196.428C283.993 196.341 282.749 196.447 282.613 196.51C282.478 196.573 281.57 196.368 281.232 196.031C280.892 195.691 280.611 195.239 280.483 195.24C280.355 195.241 280.216 194.671 280.273 194.551C280.332 194.431 283.051 193.08 283.051 193.08C283.051 193.08 283.923 192.309 283.992 192.228C284.061 192.147 284.412 191.726 284.747 191.768C285.08 191.811 286.495 192.033 287.085 192.067C287.675 192.1 289.056 191.596 289.908 191.577C290.758 191.559 292.489 190.973 292.752 191.239C293.015 191.506 294.226 192 294.847 192.122C295.469 192.244 302.202 194.036 302.462 194.324C302.723 194.612 305.731 198.986 305.964 199.164C306.195 199.342 308.47 204.811 308.735 205.057C309.001 205.303 313.452 210.203 313.34 212.225C313.328 212.437 313.701 213.714 313.701 213.714C313.701 213.714 316.045 216.644 316.391 216.922C316.737 217.201 317.488 216.307 317.65 216.376C317.811 216.446 319.062 214.95 319.913 215.271C320.763 215.592 321.155 215.514 321.155 215.514C321.155 215.514 321.49 215.558 321.746 215.547C322.002 215.537 323.127 215.6 324.171 216.073C325.215 216.546 326.493 217.539 326.747 217.874C327.001 218.211 327.839 219.378 327.832 219.772C327.823 220.166 327.944 220.568 327.595 220.651C327.245 220.734 326.667 220.887 326.425 221.132C326.181 221.376 324.472 221.792 323.414 222.104C322.355 222.416 321.645 222.326 320.694 222.12C319.745 221.914 318.807 221.94 317.915 221.944C317.023 221.95 314.49 222.504 312.805 222.402C311.12 222.3 307.866 221.193 307.208 221.689C306.551 222.186 306.107 222.661 304.702 222.364C303.297 222.068 298.813 220.604 297.759 220.215C296.705 219.826 289.845 218.069 288.991 217.11C288.137 216.149 289.122 216.041 289.122 216.041Z" fill="#EFD2AF"/>
<path opacity="0.7" d="M232.181 207.586C233.073 206.661 235.081 209.112 237.359 208.365C239.636 207.617 238.466 209.155 239.201 210.183C239.937 211.211 241.894 210.787 243.378 209.563C244.864 208.34 245.663 209.534 248.835 210.097C252.009 210.659 250.056 210.532 250.795 210.135C251.534 209.737 253.317 211.102 256.307 211.742C259.296 212.382 257.524 210.841 259.717 210.013C261.911 209.184 262.051 209.797 265.513 211.36C268.978 212.922 270.449 212.216 271.661 211.405C272.873 210.592 275.098 210.647 276.378 211.532C277.657 212.418 278.066 212.979 278.876 212.854C279.687 212.727 280.421 212.418 280.421 212.418C280.421 212.418 281.581 212.406 282.457 212.641C283.333 212.875 283.98 213.899 285.076 214.861C286.173 215.824 287.39 217.292 288.559 215.763C289.729 214.234 292.088 215.496 294.311 216.977C296.088 218.163 292.751 217.5 290.557 218.338C288.362 219.176 284.116 217.294 280.365 217.408C276.613 217.521 278.361 215.317 271.194 214.494C264.026 213.671 267.291 212.814 265.274 213.663C263.258 214.513 259.996 213.944 254.417 213.403C248.833 212.861 252.122 211.649 247.093 210.84C242.065 210.03 241.731 211.061 239.654 211.462C237.578 211.862 237.789 210.003 235.082 209.113C232.698 208.33 232.503 209.004 231.672 209.244C231.559 209.276 231.434 209.3 231.292 209.312C231.291 209.312 231.288 208.51 232.181 207.586Z" fill="white"/>
<path d="M313.915 218.845C313.628 219.14 313.467 219.24 313.61 219.525C313.753 219.81 314.286 220.109 314.401 220.193C314.515 220.277 314.88 219.984 314.861 219.551C314.841 219.119 314.785 218.803 314.909 218.575C315.035 218.346 314.733 218.104 314.733 218.104L314.514 218.595L313.915 218.845Z" fill="#C9A57D"/>
<path opacity="0.8" d="M254.753 212.96C255.646 212.035 257.653 214.486 259.932 213.739C262.209 212.992 261.038 214.529 261.774 215.557C262.51 216.585 264.467 216.161 265.951 214.938C267.436 213.714 268.235 214.909 271.408 215.471C274.581 216.033 272.629 215.906 273.367 215.509C274.107 215.111 275.889 216.476 278.88 217.116C281.869 217.756 280.097 216.215 282.29 215.387C284.484 214.558 284.623 215.172 288.086 216.735C291.55 218.297 293.022 217.59 294.234 216.779C295.446 215.966 297.671 216.021 298.95 216.906C300.23 217.792 300.64 218.353 301.449 218.228C302.26 218.101 302.993 217.792 302.993 217.792C302.993 217.792 304.154 217.78 305.03 218.015C305.906 218.25 306.553 219.274 307.649 220.235C308.746 221.198 309.964 222.666 311.133 221.137C312.303 219.608 314.661 220.87 316.884 222.352C318.661 223.537 315.324 222.874 313.13 223.712C310.935 224.55 306.688 222.668 302.938 222.782C299.186 222.895 300.935 220.691 293.767 219.868C286.599 219.045 289.865 218.188 287.848 219.037C285.831 219.887 282.569 219.318 276.99 218.777C271.407 218.235 274.695 217.023 269.667 216.214C264.638 215.404 264.304 216.435 262.227 216.836C260.151 217.236 260.362 215.377 257.655 214.487C255.271 213.704 255.076 214.378 254.244 214.618C254.132 214.65 254.007 214.674 253.865 214.687C253.863 214.686 253.859 213.884 254.753 212.96Z" fill="white"/>
<path d="M321.118 215.305C321.118 215.305 321.22 216.483 321.354 216.958C321.489 217.433 322.109 219.225 322.109 219.225C322.109 219.225 322.223 220.127 322.057 220.354C321.891 220.58 321.801 222.294 321.889 222.298C321.976 222.302 328.357 221.115 328.367 220.881C328.378 220.647 328.217 219.074 327.853 218.471C327.491 217.868 326.272 215.465 321.118 215.305Z" fill="#ED669D"/>
<path d="M317.41 215.987C317.213 216.022 317.065 217.032 317.599 217.135C318.135 217.238 318.552 217.375 318.592 217.846C318.632 218.317 317.935 219.849 318.184 220.37C318.434 220.888 319.853 221.503 320.2 221.597C320.548 221.691 321.405 221.759 320.906 219.865C320.409 217.97 319.669 218.253 319.48 217.418C319.377 216.961 319.517 217.225 319.694 216.647C319.87 216.068 319.936 215.452 319.584 215.206C318.666 214.565 317.41 215.987 317.41 215.987Z" fill="#5A5A72"/>
<path d="M319.336 218.311C319.336 218.311 320.372 218.75 320.542 220.126C320.643 220.944 320.336 221.172 320.137 221.281C319.936 221.388 319.01 221.112 318.654 220.352C318.299 219.593 318.619 218.59 319.336 218.311Z" fill="#27258C"/>
<path d="M318.814 216.918C318.814 216.918 319.789 216.142 319.493 215.775C319.197 215.41 318.782 215.075 318.543 215.182C318.303 215.29 317.699 215.664 317.684 215.991C317.67 216.317 317.489 216.817 317.878 216.874C318.266 216.932 318.814 216.918 318.814 216.918Z" fill="#27258C"/>
<path d="M305.599 222.423C305.65 222.431 305.696 222.444 305.736 222.458C306.036 222.568 306.089 222.821 306.987 222.597C308.006 222.342 307.977 221.653 308.731 221.856C309.483 222.059 309.579 222.447 311.449 222.283C313.319 222.119 312.143 221.587 314.21 221.536C316.276 221.486 317.491 221.364 318.208 221.73C318.927 222.096 317.75 221.694 320.407 221.583C323.063 221.472 322.48 220.615 323.855 220.756C325.232 220.898 326.844 220.319 327.627 220.687C328.412 221.053 329.657 220.898 328.971 221.286C328.115 221.772 327.214 222.173 326.825 221.58C326.436 220.986 325.949 221.494 325.521 221.819C325.092 222.142 324.827 222.502 324.498 222.565C324.169 222.628 323.744 222.593 323.744 222.593C323.744 222.593 323.482 222.46 323.187 222.391C322.893 222.323 322.729 222.519 322.234 222.811C321.739 223.102 320.92 223.063 320.496 222.732C320.074 222.401 319.549 222.101 318.236 222.584C316.92 223.067 316.853 223.288 316.068 222.926C315.283 222.563 315.977 222.042 314.86 222.198C313.744 222.354 313.053 222.809 312.791 222.642C312.53 222.476 313.251 222.482 312.07 222.604C310.888 222.725 310.563 223.144 310.049 222.654C309.536 222.164 308.828 221.956 308.531 222.313C308.233 222.673 308.621 223.269 307.804 222.933C306.987 222.597 306.184 223.445 305.881 223.081C305.577 222.718 305.599 222.423 305.599 222.423Z" fill="white"/>
<rect x="315.138" y="15.7461" width="44.0746" height="25" rx="12.5" fill="#969696" fill-opacity="0.3"/>
<path d="M323.867 28.2725L324.352 23.4189H329.329V24.1777H325.056L324.708 27.541C325.241 27.1764 325.865 26.9941 326.581 26.9941C327.478 26.9941 328.194 27.2858 328.727 27.8691C329.26 28.4525 329.527 29.2295 329.527 30.2002C329.527 31.2484 329.267 32.0618 328.748 32.6406C328.228 33.2194 327.497 33.5088 326.553 33.5088C325.687 33.5088 324.986 33.2673 324.448 32.7842C323.91 32.3011 323.602 31.6243 323.525 30.7539H324.311C324.389 31.4329 324.619 31.9479 325.001 32.2988C325.384 32.6452 325.902 32.8184 326.553 32.8184C327.264 32.8184 327.8 32.5928 328.16 32.1416C328.524 31.6904 328.707 31.0479 328.707 30.2139C328.707 29.4847 328.504 28.89 328.098 28.4297C327.693 27.9694 327.139 27.7393 326.437 27.7393C326.05 27.7393 325.712 27.7894 325.425 27.8896C325.138 27.9854 324.835 28.1745 324.516 28.457L323.867 28.2725ZM331.092 34.2266H330.347L334.503 23.4189H335.242L331.092 34.2266ZM340.451 33.3721H339.63V24.4033L336.923 25.4082V24.6426L340.314 23.3848H340.451V33.3721ZM348.216 33.3721H347.396V24.4033L344.689 25.4082V24.6426L348.08 23.3848H348.216V33.3721Z" fill="black"/>
<path d="M189.927 204.04H182.964V225.339H189.927V204.04Z" fill="#0C0C0C"/>
<path d="M202.432 222.957C198.275 215.763 194.123 208.568 189.97 201.373C189.637 200.796 189.312 200.212 188.966 199.643C188.21 198.396 186.938 197.796 185.614 198.077C184.612 198.29 183.919 198.924 183.417 199.794C180.397 205.027 177.375 210.26 174.353 215.493C172.888 218.032 171.418 220.568 169.96 223.111C169.018 224.752 169.452 226.597 170.97 227.469C171.566 227.812 172.215 227.919 172.894 227.919C177.329 227.915 181.764 227.918 186.2 227.918C187.006 227.918 187.812 227.918 188.619 227.918C192.317 227.916 196.015 227.923 199.714 227.913C201.461 227.909 202.749 226.871 202.98 225.301C203.104 224.455 202.855 223.688 202.432 222.957ZM188.146 204.135L187.565 218.052H184.982L184.433 204.135H188.146ZM186.29 224.251C185.148 224.251 184.223 223.326 184.223 222.185C184.223 221.043 185.148 220.118 186.29 220.118C187.431 220.118 188.356 221.043 188.356 222.185C188.356 223.326 187.431 224.251 186.29 224.251Z" fill="#070707"/>
<path d="M200.911 222.253C197.145 215.735 193.383 209.215 189.62 202.695C189.318 202.173 189.024 201.644 188.711 201.128C188.025 199.999 186.873 199.455 185.673 199.709C184.764 199.902 184.137 200.477 183.682 201.265C180.946 206.007 178.208 210.749 175.47 215.49C174.142 217.79 172.81 220.088 171.488 222.392C170.636 223.879 171.029 225.551 172.403 226.342C172.943 226.653 173.532 226.749 174.147 226.749C178.166 226.746 182.185 226.748 186.203 226.748C186.934 226.748 187.665 226.748 188.395 226.748C191.746 226.747 195.097 226.753 198.448 226.744C200.031 226.74 201.199 225.8 201.407 224.377C201.52 223.61 201.294 222.916 200.911 222.253ZM187.968 205.199L187.441 217.808H185.1L184.603 205.199H187.968ZM186.285 223.425C185.251 223.425 184.413 222.587 184.413 221.553C184.413 220.519 185.251 219.681 186.285 219.681C187.32 219.681 188.158 220.519 188.158 221.553C188.157 222.587 187.319 223.425 186.285 223.425Z" fill="#F9E132"/>
</g>
<defs>
<linearGradient id="paint0_linear" x1="200.707" y1="377.069" x2="192.974" y2="-13.6475" gradientUnits="userSpaceOnUse">
<stop offset="0.4692" stop-color="white"/>
<stop offset="1" stop-color="#4FC3F7"/>
</linearGradient>
<clipPath id="clip0">
<rect width="375" height="375" fill="white" transform="translate(0.137695 0.746094)"/>
</clipPath>
</defs>
</svg>
