<svg width="376" height="376" viewBox="0 0 376 376" fill="none" xmlns="http://www.w3.org/2000/svg">
<g clip-path="url(#clip0)">
<path d="M383.106 -4.41016H-10.6436V390.746H383.106V-4.41016Z" fill="#8BF6FF"/>
<path d="M401.682 329.71L122.931 216.105" stroke="white" stroke-width="3" stroke-miterlimit="10" stroke-dasharray="10 10"/>
<path d="M120.326 215.043L117.721 213.981" stroke="white" stroke-width="3" stroke-miterlimit="10"/>
<path d="M-45.3434 231.198C-19.8645 223.214 9.41738 228.995 33.4464 220.463C59.7766 211.117 83.1349 194.509 104.501 187.064C124.222 180.193 144.435 187.586 170.091 178.677C197.568 169.136 213.695 158.457 231.432 150.55C249.188 142.635 281.8 145.071 299.037 137.172C314.953 129.878 388.168 63.352 388.168 63.352C388.168 63.352 317.691 7.84167 302.452 1.96308C286.116 -4.33833 254.742 -5.94566 235.99 -10.9946C217.238 -16.0435 196.806 -35.183 170.121 -40.2324C143.435 -45.2808 127.447 -44.2899 105.24 -48.6179C83.0327 -52.9454 56.7541 -70.8989 31.5114 -74.506C6.26832 -78.1111 -30.9195 -76.9299 -45.3443 -79.0946C-59.7687 -81.2583 -82.6803 -97.5394 -107.954 -101.146V64.3439V74.1004V263.504C-80.7429 252.632 -60.0054 235.792 -45.3434 231.198Z" fill="url(#paint0_linear)"/>
<path opacity="0.5" d="M-45.3439 186.482C-30.9186 184.318 2.68375 187.283 26.4564 178.061C52.7659 167.855 70.7861 151.517 92.1264 144.001C114.579 136.093 143.405 139.011 170.09 133.962C196.776 128.914 212.68 110.883 231.431 105.835C250.183 100.786 284.424 99.1864 297.965 88.0864C311.506 76.9864 306.265 66.5136 306.265 66.5136C306.265 66.5136 308.458 57.5169 297.971 48.9186C284.43 37.8186 250.198 36.2178 231.445 31.1703C212.694 26.1214 196.804 8.09093 170.119 3.0425C143.433 -2.00594 127.444 -1.01641 105.238 -5.34438C83.0313 -9.67141 56.7531 -27.6245 31.5096 -31.2306C6.26689 -34.8367 -30.9214 -33.6555 -45.3462 -35.8187C-59.7702 -37.983 -82.6817 -54.2641 -107.955 -57.8711V70.1159V79.872V205.71C-82.6813 202.103 -59.7687 188.645 -45.3439 186.482Z" fill="url(#paint1_linear)"/>
<path d="M224.099 25.4934V112.043L327.191 113.639C327.191 113.639 412.646 121.624 441.98 68.6227C413.808 17.3625 329.337 23.1699 329.337 23.1699L224.099 25.4934Z" fill="#D1D1D1"/>
<path d="M420.119 68.7679C420.671 39.8066 383.645 30.6364 348.673 28.3096L290.731 29.2677L248.91 30.7208L243.684 53.2283L248.002 56.8602L247.893 80.9643C247.893 80.9643 244.265 84.013 244.265 84.7391C244.265 88.8304 249.202 106.816 249.202 106.816C249.202 106.816 277.597 107.459 290.375 107.76C290.81 107.77 347.953 109.414 348.673 109.391C383.577 108.156 419.521 100.261 420.119 68.7679ZM291.605 106.449C290.66 106.596 251.962 102.748 251.962 102.748C251.962 102.748 249.176 87.7021 249.176 83.8405C249.176 83.1557 252.645 80.2785 252.645 80.2785L252.747 57.5202L248.62 54.0927L251.958 34.0602L291.553 30.7204C325.922 30.2375 326.404 30.9102 348.671 30.7204C382.787 33.3674 419.029 43.791 418.374 69.1536C417.722 94.3569 382.394 104.571 348.671 106.815C347.367 106.798 292.185 106.158 291.605 106.449Z" fill="#E8E8E8"/>
<path d="M358.511 90.6461L365.162 84.2664L367.533 69.28L365.162 53.3757L358.511 46.3736C355.911 42.7721 342.812 41.5693 342.812 41.5693H318.509L313.209 44.5979L316.308 62.6143L325.745 68.8543L316.308 74.8178L313.209 92.5084L318.509 94.8343H342.812C342.812 94.8329 355.911 94.2442 358.511 90.6461Z" fill="#E5E5E5"/>
<path d="M324.727 92.4301C325.478 92.3804 336.547 85.3281 336.547 85.3281L336.883 53.2942L325.467 45.2607H323.863H323.064H322.264H313.186V92.4292C313.186 92.4301 323.976 92.4817 324.727 92.4301Z" fill="#C6C6C6"/>
<path d="M346.513 87.4964V71.3296V65.1618V50.5945C346.513 50.5945 339.993 45.9243 323.838 45.1621C323.743 45.1556 323.667 45.9951 323.667 45.9951C326.651 48.1176 334.672 52.8614 334.672 52.8614L334.746 68.2457L334.648 85.2281C334.648 85.2281 326.592 89.9695 323.609 92.0934C323.609 92.0934 323.744 92.9343 323.838 92.9287C339.995 92.1642 346.513 87.4964 346.513 87.4964Z" fill="#2C7D99"/>
<path opacity="0.5" d="M324.324 274.727C320.829 273.889 313.245 268.332 307.142 266.825C301.04 265.318 293.814 266.808 288.338 265.745C282.862 264.683 279.429 261.762 272.863 260.451C266.298 259.141 261 261.795 256.248 261.217C251.496 260.639 243.523 257.842 239.403 259.129C235.283 260.415 235.514 263.293 235.514 263.293C235.514 263.293 234.181 265.147 235.785 268.08C237.856 271.868 245.532 275.396 249.352 278.282C253.171 281.168 255.137 286.757 260.77 290.376C266.403 293.995 270.902 294.279 275.579 297.32C280.254 300.359 284.416 306.451 289.852 309.608C295.29 312.763 304.604 314.034 307.7 315.862C310.797 317.688 315.156 322.326 320.428 325.415L330.421 300.687L331.321 298.457L340.115 276.697C334.177 275.257 327.821 275.565 324.324 274.727Z" fill="url(#paint2_linear)"/>
<path d="M254.485 286.153L265.558 258.752L233.124 245.058C233.124 245.058 207.091 231.597 191.024 244.624C193.384 264.457 220.871 273.425 220.871 273.425L254.485 286.153Z" fill="#D1D1D1"/>
<path d="M198.051 247.575C198.051 247.575 202.388 235.525 226.204 244.669C250.018 253.811 251.87 256.462 251.87 256.462L242.964 278.503L235.365 276.634L215.035 268.418C215.033 268.417 194.202 259.168 198.051 247.575Z" fill="#F4F4F4"/>
<path d="M197.962 247.375C194.083 256.473 204.632 264.114 215.406 269.325L233.872 276.434L247.299 281.325L251.834 274.867L250.931 273.166L254.049 265.549C254.049 265.549 255.588 265.047 255.681 264.817C256.204 263.522 256.942 257.196 256.942 257.196C256.942 257.196 248.034 253.36 244.027 251.63C243.891 251.572 226.009 243.74 225.779 243.655C214.571 239.58 202.181 237.481 197.962 247.375ZM243.47 251.888C243.788 251.962 255.548 258.131 255.548 258.131C255.548 258.131 254.505 263.251 254.011 264.474C253.923 264.691 252.457 265.158 252.457 265.158L249.513 272.35L250.382 273.963L246.762 279.878L233.799 275.869C222.856 271.625 222.789 271.35 215.715 268.562C205.254 263.358 195.113 255.422 198.565 247.477C201.996 239.58 214.488 240.866 225.451 244.47C225.861 244.643 243.25 251.905 243.47 251.888Z" fill="#E8E8E8"/>
<path d="M219.798 256.084L219.689 256.035L218.757 259.91L219.683 262.019C219.946 263.09 222.893 264.464 222.893 264.464L228.479 266.721L229.932 266.635L230.869 262.265L229.166 259.841L227.242 259.093L219.798 256.084Z" fill="white"/>
<path d="M219.768 256.159L219.688 256.035L221.625 252.812L223.745 251.965C224.676 251.378 227.741 252.464 227.741 252.464L233.327 254.722L234.334 255.737L231.983 259.503L229.095 260.012L227.21 259.169L219.768 256.159Z" fill="white"/>
<path d="M231.679 254.69C231.501 254.631 228.302 255.224 228.302 255.224L225.25 262.556L227.129 265.464L227.496 265.612L227.68 265.686L227.864 265.76L229.95 266.602L234.332 255.76C234.332 255.761 231.857 254.748 231.679 254.69Z" fill="#C6C6C6"/>
<path d="M265.712 270.141C266.255 270.364 266.515 270.984 266.292 271.527L263.944 277.25C263.721 277.792 263.099 278.052 262.556 277.83L253.766 274.222C253.223 273.999 252.962 273.378 253.186 272.835L255.535 267.113C255.757 266.57 256.377 266.31 256.921 266.533L265.712 270.141Z" fill="#394963"/>
<path d="M226.214 253.799L224.712 257.515L224.14 258.933L222.786 262.281C222.786 262.281 223.851 263.96 227.493 265.636C227.515 265.646 227.61 265.461 227.61 265.461C227.121 264.696 225.717 262.86 225.717 262.86L227.13 259.317L228.729 255.422C228.729 255.422 231.021 255.08 231.905 254.869C231.905 254.869 231.953 254.664 231.931 254.655C228.145 253.331 226.214 253.799 226.214 253.799Z" fill="#29ABE2"/>
<path d="M229.639 264.856C231.134 265.459 233.232 260.579 231.615 259.926C230.197 259.352 228.072 264.223 229.639 264.856ZM229.796 264.421C228.728 263.99 230.463 259.959 231.43 260.35C232.532 260.795 230.814 264.832 229.796 264.421Z" fill="black"/>
<path d="M229.551 262.674C229.551 262.674 230.021 262.85 230.24 262.291C230.46 261.731 230.015 261.639 229.98 261.611C229.945 261.583 229.551 262.674 229.551 262.674Z" fill="black"/>
<path d="M230.191 262.478L231.358 263.117L231.656 262.382L230.351 262.082L230.191 262.478Z" fill="black"/>
<path d="M230.049 261.84C230.054 261.828 231.558 260.356 231.558 260.356L231.126 260.103L229.853 261.695L230.049 261.84Z" fill="black"/>
<path d="M229.747 262.587C229.742 262.597 229.78 264.753 229.78 264.753L229.32 264.568L229.484 262.607L229.747 262.587Z" fill="black"/>
<path d="M225.45 244.469C225.45 244.469 223.061 250.51 216.133 249.261C209.203 248.012 200.107 245.245 199.885 245.263C199.664 245.281 205.513 237.162 225.45 244.469Z" fill="#E8CDA0"/>
<path d="M215.714 268.56C215.714 268.56 218.193 262.556 212.341 258.64C206.491 254.724 198.025 250.394 197.878 250.228C197.732 250.063 196.297 259.965 215.714 268.56Z" fill="#E8CDA0"/>
<path d="M240.956 278.227C240.956 278.227 239.296 278.067 240.4 276.824C244.033 272.732 248.952 261.615 248.835 255.687C248.811 254.443 249.072 254.567 249.773 254.888C250.299 255.129 255.548 258.131 255.548 258.131C255.548 258.131 255.365 268.112 246.76 279.878L240.956 278.227Z" fill="#E8CDA0"/>
<path d="M241.329 258.37C241.634 258.494 241.63 258.869 241.457 259.296L237.538 268.995C237.366 269.42 237.054 269.831 236.748 269.707L233.511 268.399C233.205 268.275 233.075 267.687 233.247 267.262L237.168 257.561C237.34 257.135 237.786 256.938 238.093 257.062L241.329 258.37Z" fill="#E8CDA0"/>
<path d="M231.42 265.158C231.42 265.158 230.981 264.37 232.115 264.544C233.252 264.72 234.482 264.662 234.482 264.662C234.482 264.662 234.609 263.417 234.366 263.142C234.122 262.865 232.681 262.431 232.722 261.323C232.764 260.216 232.721 259.69 234.016 260.692C235.311 261.695 236.282 262.263 236.282 262.263L235.55 266.648L231.651 265.25" fill="#996234"/>
<path d="M235.108 266.057C235.108 266.057 232.341 266.644 232.736 265.894C233.133 265.144 233.568 265.793 234.022 264.82C234.475 263.848 233.652 263.674 234.563 262.623C235.472 261.573 235.288 260.97 235.869 261.442C236.449 261.915 236.717 262.077 236.717 262.077L235.108 266.057Z" fill="#EF45B7"/>
<path d="M234.853 267.311C234.853 267.311 233.094 266.677 232.626 266.543C231.753 266.292 230.303 264.875 229.985 264.747C229.667 264.618 229.354 264.433 229.995 264.203C230.636 263.974 232.052 265.027 232.77 265.526C233.49 266.023 234.661 265.901 234.924 265.983C235.187 266.067 234.606 266.445 234.606 266.445L234.853 267.311Z" fill="#996234"/>
<path d="M237.165 261.911C237.165 261.911 235.541 260.622 235.111 260.394C234.309 259.968 232.282 259.979 231.963 259.85C231.645 259.723 231.293 259.636 231.593 260.249C231.895 260.86 233.642 261.086 234.508 261.227C235.372 261.368 235.907 262.588 236.153 262.71C236.401 262.832 236.469 261.84 236.469 261.84L237.165 261.911Z" fill="#996234"/>
<path d="M234.543 268.079C234.543 268.079 236.819 268.622 237.791 267.469C238.763 266.317 239.098 265.918 239.065 264.518C239.029 263.116 239.569 262.599 238.457 262.255C237.345 261.911 237.079 260.964 236.493 261.929C235.862 262.97 234.449 265.879 234.341 266.075C233.678 267.282 234.543 268.079 234.543 268.079Z" fill="#8BC7E8"/>
<path d="M238.431 265.885C238.431 265.885 237.825 267.042 236.904 266.459C235.983 265.878 235.406 266.259 235.439 265.282C235.472 264.305 234.812 263.547 235.795 263.506C236.777 263.466 237.327 263.373 237.8 263.881C238.275 264.388 238.441 264.389 238.67 264.883C238.901 265.375 238.431 265.885 238.431 265.885Z" fill="#301705"/>
<path d="M-55.1072 268.629L393.852 126.672" stroke="white" stroke-width="3" stroke-miterlimit="10" stroke-dasharray="10 10"/>
<rect x="315.138" y="15.7461" width="44.0746" height="25" rx="12.5" fill="#969696" fill-opacity="0.3"/>
<path d="M328.139 23.3438V24.0615H328.043C326.854 24.0615 325.917 24.4124 325.234 25.1143C324.55 25.8115 324.172 26.7822 324.099 28.0264C324.373 27.6481 324.721 27.3564 325.145 27.1514C325.569 26.9417 326.043 26.8369 326.567 26.8369C327.442 26.8369 328.137 27.14 328.652 27.7461C329.171 28.3477 329.431 29.1361 329.431 30.1113C329.431 30.7585 329.31 31.3418 329.069 31.8613C328.827 32.3809 328.481 32.7865 328.03 33.0781C327.579 33.3652 327.064 33.5088 326.485 33.5088C325.532 33.5088 324.758 33.1647 324.161 32.4766C323.564 31.7839 323.265 30.8906 323.265 29.7969V28.9766C323.265 27.1947 323.671 25.8161 324.482 24.8408C325.293 23.861 326.444 23.362 327.934 23.3438H328.139ZM326.437 27.541C325.917 27.541 325.432 27.696 324.981 28.0059C324.534 28.3112 324.236 28.7008 324.085 29.1748V29.8721C324.085 30.738 324.306 31.4443 324.749 31.9912C325.195 32.5381 325.774 32.8115 326.485 32.8115C327.123 32.8115 327.638 32.5586 328.03 32.0527C328.426 31.5469 328.625 30.9089 328.625 30.1387C328.625 29.3548 328.426 28.7259 328.03 28.252C327.638 27.778 327.107 27.541 326.437 27.541ZM331.092 34.2266H330.347L334.503 23.4189H335.242L331.092 34.2266ZM340.451 33.3721H339.63V24.4033L336.923 25.4082V24.6426L340.314 23.3848H340.451V33.3721ZM348.216 33.3721H347.396V24.4033L344.689 25.4082V24.6426L348.08 23.3848H348.216V33.3721Z" fill="black"/>
</g>
<defs>
<linearGradient id="paint0_linear" x1="381.586" y1="81.1808" x2="-107.955" y2="81.1807" gradientUnits="userSpaceOnUse">
<stop stop-color="white" stop-opacity="0.8"/>
<stop offset="0.9306" stop-color="white" stop-opacity="0"/>
</linearGradient>
<linearGradient id="paint1_linear" x1="301.753" y1="73.9201" x2="-107.956" y2="73.92" gradientUnits="userSpaceOnUse">
<stop stop-color="white" stop-opacity="0.8"/>
<stop offset="1" stop-color="white" stop-opacity="0"/>
</linearGradient>
<linearGradient id="paint2_linear" x1="236.721" y1="263.232" x2="330.271" y2="301.037" gradientUnits="userSpaceOnUse">
<stop stop-color="white" stop-opacity="0.8"/>
<stop offset="1" stop-color="white" stop-opacity="0"/>
</linearGradient>
<clipPath id="clip0">
<rect width="375" height="375" fill="white" transform="translate(0.137695 0.746094)"/>
</clipPath>
</defs>
</svg>
