<svg width="376" height="376" viewBox="0 0 376 376" fill="none" xmlns="http://www.w3.org/2000/svg">
<g clip-path="url(#clip0)">
<path d="M-3.52979 -4.40625H377.772L378.24 314.317H-3.0615L-3.52979 -4.40625Z" fill="url(#paint0_linear)"/>
<path d="M352.999 195.148C353.38 195.229 354.603 197.877 354.216 199.966C353.829 202.055 352.714 206.894 352.074 207.691C351.432 208.488 350.628 209.912 350.628 209.912C350.628 209.912 353.457 211.431 353.908 212.426C353.908 212.426 353.907 212.833 353.562 212.779C353.217 212.724 350.2 212.56 350.058 212.899C349.916 213.236 349.64 214.994 349.595 215.224C349.549 215.451 349.677 216.491 349.72 216.864C349.738 217.018 350.664 218.507 350.494 218.843C350.323 219.181 349.07 219.192 348.372 219.176C347.675 219.16 343.956 216.667 343.437 216.209C342.918 215.75 342.773 210.208 342.773 210.208C342.773 210.208 343.832 202.96 343.572 202.946C343.311 202.932 341.556 202.223 340.993 201.571C340.43 200.918 340.639 197.758 340.906 197.255C341.173 196.751 347.263 193.939 352.999 195.148Z" fill="#36627A"/>
<path d="M350.154 215.144C350.154 215.144 349.552 215.021 349.518 215.095C349.483 215.171 349.351 215.379 349.379 215.782C349.408 216.187 349.253 216.698 349.571 216.738C349.888 216.778 350.107 216.778 350.107 216.778C350.107 216.778 350.637 218.083 351.452 218.477C352.268 218.872 352.817 218.737 352.315 218.222C351.815 217.704 350.873 217.097 350.962 216.883C351.052 216.671 352.632 216.89 352.632 216.89L352.619 215.611C352.619 215.611 351.41 215.494 351.35 215.518C351.29 215.54 350.834 215.203 351.181 215.053C351.527 214.906 353.015 215.057 352.778 214.529C352.54 214.002 352.597 214.007 352.035 213.935C351.473 213.864 350.753 214.141 350.433 214.528C350.112 214.913 350.154 215.144 350.154 215.144Z" fill="#6C808C"/>
<path d="M318.049 211.847L323.734 207.091L347.583 205.736C340.139 204.204 326.035 201.964 305.023 200.67C289.928 199.742 277.28 199.643 271.43 199.938C260.792 200.478 253.637 199.86 251.819 199.675C252.128 199.87 252.582 200.176 252.858 200.433C253.064 200.625 253.251 200.888 253.507 201.25C254.025 201.985 254.818 203.046 256.565 204.697L256.741 204.855C268.416 210.543 284.243 212.219 295.611 212.543C307.651 212.887 317.541 211.9 318.049 211.847Z" fill="#FF0000"/>
<path d="M304.578 192.802C304.681 192.597 304.762 192.441 304.825 192.325C304.859 192.267 304.887 192.219 304.913 192.179C305.04 191.979 305.081 191.978 305.106 191.978L305.179 192.023C305.212 192.087 305.25 192.157 305.296 192.229C305.325 192.278 305.357 192.327 305.388 192.378C305.406 192.403 305.422 192.426 305.439 192.453C305.899 193.122 306.664 193.908 307.124 193.789C307.343 193.73 307.474 193.582 307.527 193.332C307.533 193.303 307.536 193.273 307.541 193.243C307.544 193.21 307.548 193.179 307.548 193.145C307.577 192.257 306.786 190.519 305.746 189.41C305.587 189.241 305.421 189.085 305.25 188.95C305.157 188.875 305.05 188.799 304.937 188.734C304.754 188.629 304.558 188.556 304.376 188.565C304.308 188.569 304.241 188.584 304.175 188.614C304.074 188.661 304.007 188.741 303.969 188.856C303.945 188.933 303.936 189.021 303.936 189.116C303.942 189.777 304.506 190.785 304.513 190.797L304.555 190.872L303.635 191.138L304.578 192.802ZM304.464 189.527C304.466 189.425 304.492 189.342 304.548 189.285C304.559 189.273 304.572 189.263 304.586 189.254C304.62 189.231 304.66 189.22 304.703 189.22C304.734 189.22 304.766 189.227 304.803 189.24C305.049 189.328 305.405 189.711 305.763 190.203L305.778 190.184L305.794 190.165L306.108 190.708C306.263 190.95 306.411 191.201 306.542 191.445C306.764 191.852 306.941 192.239 307.029 192.53C307.077 192.696 307.102 192.83 307.097 192.931C307.096 192.957 307.091 192.98 307.087 193.001C307.073 193.067 307.042 193.115 306.997 193.147C306.978 193.159 306.955 193.166 306.929 193.166C306.647 193.166 305.736 192.062 305.358 191.522C305.344 191.502 305.329 191.484 305.318 191.463C305.292 191.428 305.27 191.393 305.253 191.364C305.234 191.335 305.22 191.31 305.209 191.29C305.2 191.27 305.185 191.25 305.167 191.222C305.152 191.196 305.134 191.166 305.112 191.132C304.891 190.76 304.454 189.973 304.464 189.527Z" fill="black"/>
<path d="M295.93 189.836C296.294 189.886 297.576 190.094 298.685 190.304C298.755 190.317 298.826 190.331 298.895 190.344C298.93 190.352 298.966 190.358 299.002 190.365C299.154 190.396 299.301 190.427 299.441 190.459C299.485 190.469 299.528 190.478 299.569 190.486C299.675 190.512 299.775 190.536 299.87 190.562C299.908 190.572 299.944 190.582 299.979 190.592C299.987 190.593 299.997 190.596 300.008 190.599C300.35 190.674 302.298 191.129 302.589 191.634C302.598 191.65 302.608 191.664 302.611 191.682C302.783 192.171 303.199 194.906 303.267 195.515H304.431L304.838 194.485L304.68 193.023L304.618 192.994C304.623 192.986 304.625 192.98 304.627 192.974C304.631 192.966 304.635 192.959 304.637 192.953L303.627 191.175L303.611 191.181L303.593 191.116L303.577 191.09L303.552 191.045L302.043 187.87L301.811 187.788L301.58 187.707L300.902 184.006C300.869 184.006 300.822 184.006 300.765 184.006C300.369 184.006 299.049 184.017 298.671 184.161C298.354 184.282 296.826 187.65 295.93 189.836Z" fill="#3FA9F5"/>
<path d="M305.201 190.91C305.193 190.91 305.189 190.909 305.185 190.908C305.172 190.905 305.16 190.898 305.151 190.889C305.217 191.006 305.284 191.116 305.35 191.222C305.387 191.295 305.458 191.406 305.55 191.535C305.565 191.5 305.572 191.459 305.572 191.428C305.573 191.37 305.561 191.324 305.561 191.322L305.541 191.253L306.186 191.116L305.917 190.645C305.865 190.567 305.812 190.491 305.758 190.417C305.365 190.868 305.247 190.912 305.201 190.91Z" fill="black"/>
<path d="M305.168 191.222C305.187 191.25 305.2 191.271 305.21 191.289C305.22 191.31 305.235 191.335 305.255 191.364C305.272 191.393 305.293 191.427 305.318 191.463C305.331 191.483 305.344 191.5 305.359 191.523C305.736 192.062 306.649 193.166 306.93 193.166C306.955 193.166 306.979 193.159 306.998 193.147C307.046 193.116 307.074 193.068 307.088 193.002C307.093 192.981 307.096 192.956 307.098 192.931C307.104 192.829 307.08 192.696 307.03 192.53C306.942 192.239 306.765 191.852 306.543 191.445C306.413 191.201 306.262 190.949 306.108 190.708L305.796 190.165L305.78 190.184L305.763 190.203C305.406 189.711 305.05 189.328 304.803 189.239C304.769 189.227 304.735 189.22 304.704 189.22C304.659 189.22 304.619 189.231 304.587 189.253C304.574 189.263 304.56 189.274 304.549 189.284C304.493 189.342 304.467 189.426 304.465 189.527C304.454 189.972 304.891 190.761 305.114 191.132C305.134 191.166 305.152 191.196 305.168 191.222ZM306.91 192.57C307.018 192.923 306.97 193.01 306.953 193.027C306.727 192.984 306.045 192.204 305.638 191.655C305.713 191.557 305.713 191.433 305.705 191.358L306.283 191.235C306.561 191.709 306.795 192.191 306.91 192.57ZM305.915 190.644L306.184 191.115L305.538 191.252L305.559 191.321C305.559 191.322 305.571 191.37 305.571 191.427C305.57 191.46 305.563 191.498 305.55 191.534C305.457 191.403 305.385 191.293 305.349 191.22C305.284 191.116 305.217 191.004 305.15 190.888C305.159 190.896 305.171 190.903 305.184 190.907C305.188 190.907 305.192 190.909 305.2 190.909C305.247 190.91 305.364 190.867 305.757 190.415C305.81 190.49 305.862 190.566 305.915 190.644ZM304.661 189.366C304.673 189.359 304.687 189.356 304.706 189.356C304.895 189.356 305.279 189.756 305.676 190.303C305.506 190.499 305.314 190.699 305.229 190.759C305.181 190.688 305.093 190.66 305.018 190.651C304.713 190.079 304.48 189.487 304.661 189.366Z" fill="black"/>
<path d="M347.795 204.751L347.764 204.73L347.787 202.851L346.612 202.132L341.473 202.222L341.461 202.217L339.331 201.428L339.241 197.037L335.401 196.1L327.186 196.076L326.753 195.281L319.793 194.894L319.747 194.189L318.298 194.043L318.429 193.939C318.432 193.935 318.634 193.775 318.629 193.578C318.626 193.463 318.554 193.353 318.41 193.255C318.305 193.179 317.994 193.091 317.121 193.091C316.319 193.091 315.339 193.163 314.624 193.216C314.27 193.243 313.991 193.264 313.828 193.268C313.339 193.283 312.798 193.651 312.503 193.986C312.32 194.191 312.224 194.392 312.238 194.535C312.283 194.99 312.356 195.099 312.682 195.16L312.662 195.305L307.856 194.849L304.891 194.568L304.485 195.611H303.203L303.195 195.456C303.189 195.425 302.715 192.144 302.539 191.634C302.4 191.236 300.66 190.771 300.001 190.628C298.839 190.302 296.414 189.96 295.968 189.899L295.961 189.916L295.912 189.911C295.911 189.911 295.817 189.902 295.685 189.902C295.312 189.902 295.042 189.964 294.922 190.073C294.79 190.195 294.789 190.438 294.787 190.674C294.786 190.878 294.786 191.069 294.709 191.211C294.553 191.504 293.203 193.785 293.144 193.881L293.126 193.913L293.091 193.916C292.892 193.926 273.317 195.084 268.95 195.621C268.611 195.664 268.226 195.703 267.805 195.762C261.195 196.693 251.939 198.478 251.939 198.478C251.222 198.491 250.938 198.716 250.913 198.905C250.89 199.079 251.071 199.256 251.369 199.342C251.377 199.347 251.576 199.447 251.848 199.61C253.049 199.741 260.295 200.458 271.612 199.884C277.467 199.588 290.134 199.704 305.234 200.635C326.747 201.962 340.024 204.079 347.373 205.619L347.694 205.688C348.304 205.681 348.521 205.619 348.549 205.585C348.559 205.565 348.572 205.548 348.585 205.53C348.616 205.486 348.632 205.463 348.626 205.428C348.599 205.31 348.328 205.087 347.795 204.751Z" fill="white" stroke="white" stroke-miterlimit="10"/>
<path d="M318.069 211.898L318.048 211.9C317.965 211.908 310.912 212.644 301.199 212.644C299.517 212.644 297.755 212.624 295.939 212.571C284.621 212.248 268.715 210.681 257.035 205.058C257.065 205.087 257.096 205.113 257.125 205.142C257.527 205.514 257.928 205.909 258.352 206.327C261.036 208.969 264.376 212.257 272.99 214.761C274.972 215.337 277.094 215.607 279.671 215.607C281.877 215.607 284.141 215.546 286.537 215.339C289.168 215.113 291.886 214.879 294.795 214.879C295.241 214.879 295.686 214.886 296.12 214.896C296.557 214.907 297.068 214.914 297.641 214.914C308.968 214.914 343.472 212.544 344.904 212.452L347.463 205.899L323.735 207.143L318.069 211.898Z" fill="white" stroke="white" stroke-miterlimit="10"/>
<path d="M311.071 195.116C311.071 195.116 311.529 194.583 311.429 193.956C311.327 193.329 311.187 193.009 310.802 192.898C310.418 192.788 309.895 192.737 309.788 192.791C309.681 192.846 308.384 193.361 308.087 193.464C307.791 193.566 306.981 194.102 306.965 194.349C306.948 194.596 306.9 194.675 306.799 194.918C306.699 195.159 306.547 196.246 306.547 196.246L308.505 196.462C308.505 196.462 308.483 195.697 308.628 195.645C308.773 195.595 310.686 195.399 310.814 195.323C310.943 195.253 311.071 195.116 311.071 195.116Z" fill="#996234"/>
<path d="M318.321 192.062C318.321 192.062 318.424 191.094 318.466 191.094C318.508 191.094 317.108 191.011 316.775 190.764C316.363 190.457 314.094 190.475 314.094 190.475L312.589 191.857L310.852 193.164C310.852 193.164 311.351 194.806 311.599 194.806C311.716 194.806 312.956 193.685 314.074 193.65C315.322 193.617 315.414 194.331 315.125 195.878C315.071 196.172 317.703 194.414 317.703 194.414C317.703 194.414 318.2 194.042 318.322 193.382C318.444 192.722 318.321 192.062 318.321 192.062Z" fill="#EF45B7"/>
<path d="M315.331 182.123C315.268 182.143 314.815 181.587 314.836 181.401C314.856 181.216 315.041 181.092 315.082 181.092C315.124 181.092 315.557 180.576 315.33 180.349C315.103 180.122 315.826 179.195 315.557 178.741C315.289 178.287 314.959 177.586 314.34 177.338C313.721 177.091 313.329 176.885 313.02 177.132C312.71 177.38 311.968 178.081 311.948 178.349C311.927 178.618 311.803 179.133 311.948 179.689C312.092 180.246 312.092 180.329 312.113 180.927C312.133 181.524 312.402 181.897 312.588 182.123C312.774 182.35 312.691 182.659 313.041 182.741C313.392 182.824 312.959 183.381 313.124 183.587C313.29 183.793 315.227 183.278 315.186 182.473C315.167 182.095 315.331 182.123 315.331 182.123Z" fill="#996234"/>
<path d="M315.269 181.318C315.269 181.318 315.619 181.318 315.578 181.03C315.538 180.741 315.461 180.246 315.582 180.122C315.704 179.998 316.073 179.771 315.95 179.421C315.826 179.07 315.681 178.864 315.764 178.534C315.847 178.204 315.764 177.936 315.496 177.771C315.229 177.606 315.019 177.647 314.71 177.503C314.402 177.359 314.154 177.008 313.805 176.946C313.454 176.884 313.042 176.637 312.753 176.946C312.464 177.256 312.258 177.256 312.177 177.461C312.094 177.667 312.197 177.441 312.073 177.936C311.949 178.431 311.701 178.534 311.867 178.802C312.032 179.071 312.177 178.575 312.321 178.555C312.466 178.534 312.383 178.307 312.775 178.555C313.167 178.802 313.022 178.72 313.6 178.596C314.177 178.472 314.488 178.142 314.663 178.74C314.838 179.338 314.735 179.235 314.663 179.71C314.59 180.184 314.663 180.39 314.663 180.39C314.663 180.39 314.693 180.163 314.92 180.204C315.148 180.245 315.188 180.287 315.168 180.534C315.148 180.782 315.023 181.07 315.065 181.153C315.104 181.236 315.269 181.318 315.269 181.318Z" fill="#301705"/>
<path d="M312.423 186.02C312.423 186.02 311.063 188.247 310.712 188.453C310.361 188.659 309.639 189.071 309.372 189.134C309.104 189.195 307.412 189.463 306.691 189.422C305.97 189.381 305.845 189.162 305.577 189.426C305.31 189.69 305.185 189.876 305.082 189.67C304.979 189.464 305.041 189.423 305.082 189.113C305.123 188.803 305.082 188.638 304.794 188.597C304.505 188.556 304.063 188.886 304.18 188.515C304.298 188.144 304.257 187.978 304.733 188.019C305.207 188.061 305.289 188.411 305.62 188.452C305.949 188.493 306.095 188.494 306.672 188.411C307.249 188.328 308.878 187.359 309.229 187.338C309.579 187.318 309.6 187.05 309.826 186.823C310.053 186.596 310.961 185.482 310.961 185.482" fill="#996234"/>
<path d="M318.465 187.155C318.382 186 317.969 184.164 317.269 183.36C316.568 182.556 316.361 182.576 315.846 182.349C315.33 182.123 315.063 182.184 315.063 182.184C315.063 182.184 315.035 183.009 314.616 183.154C314.196 183.298 313.207 183.566 313.144 183.401C313.082 183.236 313.226 183.131 313.103 182.988C312.98 182.844 312.773 182.453 312.628 182.535C312.484 182.618 311.762 182.907 311.68 183.278C311.598 183.649 311.515 184.144 311.309 184.432C311.103 184.721 310.979 185.175 310.979 185.175C310.979 185.175 310.917 185.34 310.855 185.526C310.793 185.711 311.392 185.691 311.783 186.453C312.175 187.216 312.607 186.021 312.607 186.021C312.607 186.021 312.133 185.711 312.567 186.371C312.567 186.371 313.226 187.381 313.267 187.526C313.309 187.67 313.473 188.041 313.453 188.413C313.432 188.784 313.226 189.175 313.267 189.568C313.309 189.96 313.259 190.31 313.747 190.495C314.236 190.681 314.773 190.64 315.37 190.702C315.968 190.763 316.707 190.731 316.979 190.969C317.252 191.21 317.516 191.01 317.846 191.093C318.175 191.175 318.196 191.381 318.464 191.093C318.732 190.805 318.306 189.897 318.375 189.691C318.444 189.485 318.622 189.031 318.554 188.351C318.486 187.67 318.465 187.155 318.465 187.155Z" fill="#8BC7E8"/>
<path d="M316.081 188.546C316.081 188.546 315.642 189.983 315.398 190.257C315.153 190.531 314.761 191.164 314.551 191.411C314.344 191.655 312.496 193.549 312.276 193.714C312.054 193.879 310.982 194.819 310.982 194.819L309.466 194.647C309.466 194.647 310.471 193.57 310.965 193.044C311.459 192.519 313.094 190.495 313.186 190.31C313.279 190.127 313.812 189.574 313.956 189.318C314.1 189.063 314.123 188.535 314.241 188.054C314.362 187.572 314.566 186.95 314.566 186.95C314.566 186.95 316.472 186.722 316.53 187.173C316.59 187.619 316.081 188.546 316.081 188.546Z" fill="#996234"/>
<path d="M315.083 195.858C315.083 195.858 315.502 195.294 315.359 194.676C315.214 194.057 315.051 193.748 314.659 193.666C314.267 193.583 313.743 193.572 313.64 193.631C313.537 193.694 312.279 194.299 311.99 194.422C311.701 194.546 310.932 195.135 310.932 195.383C310.932 195.63 310.891 195.712 310.808 195.96C310.726 196.207 310.623 196.908 310.623 196.908L312.604 197.12C312.604 197.12 312.543 196.62 312.685 196.56C312.825 196.497 314.72 196.168 314.843 196.085C314.967 196.002 315.083 195.858 315.083 195.858Z" fill="#996234"/>
<path opacity="0.6" d="M-3.52979 208.815H377.772L378.24 376.507H-3.0615L-3.52979 208.815Z" fill="#33EFFF"/>
<path d="M22.2305 171.864C22.2305 171.864 32.3723 158.926 33.3638 152.685C34.3552 146.444 36.877 145.123 36.5442 143.834C36.2114 142.544 34.9486 140.677 34.463 137.642C33.9773 134.608 31.5933 129.982 31.6584 128.218C31.7236 126.454 31.0453 123.732 31.3922 122.674C31.7391 121.616 31.7545 116.78 31.7545 116.78L28.942 109.773C28.942 109.773 27.9277 110.741 27.1969 109.926C26.4661 109.111 22.6702 105.927 22.6702 105.927L23.6653 104.741L24.8822 106.393L28.5713 108.047C28.5713 108.047 30.7523 107.856 30.9131 107.183C31.0739 106.509 30.427 104.148 30.5498 103.038C30.6727 101.929 31.3538 99.6709 31.3538 99.6709L32.8284 101.3C32.8284 101.3 33.5339 101.678 32.9433 102.609C32.3527 103.539 32.2303 104.649 32.1267 105.977C32.0236 107.305 31.8708 105.56 32.0236 107.305C32.1769 109.051 31.7597 109.307 31.8361 110.179C31.9125 111.052 30.8217 111.147 31.8853 113.252C32.9489 115.357 32.6166 114.067 32.9489 115.357C33.2817 116.646 33.3394 117.301 33.4542 118.609C33.5691 119.918 33.0741 121.796 33.1378 122.522C33.2016 123.247 33.4959 124.1 33.5916 125.191C33.6872 126.282 33.6872 126.282 33.6872 126.282C36.7102 123.159 39.0267 122.005 39.0267 122.005C39.0267 122.005 39.5142 122.551 40.1175 121.91C40.7208 121.269 41.3752 121.212 42.1519 120.045C42.9291 118.878 43.3078 118.185 43.193 116.876C43.0781 115.568 42.9638 114.259 42.9061 113.605C42.8484 112.951 45.3244 113.613 42.7341 111.642C40.1433 109.671 41.1117 110.685 40.1433 109.671C39.1753 108.656 38.3372 104.114 38.8312 104.731C39.3253 105.347 39.1753 108.656 39.1753 108.656C39.1753 108.656 41.1 108.048 42.068 109.062C43.0359 110.076 43.7044 110.457 43.7044 110.457C43.7044 110.457 44.385 110.508 45.0577 110.122C45.3328 109.963 45.607 109.731 45.833 109.391C46.6097 108.225 46.9313 106.877 46.9313 106.877L48.5916 108.271C48.5916 108.271 48.0328 109.419 47.4169 109.912C46.8009 110.406 45.7673 111.156 45.4078 112.067C45.0483 112.977 44.9067 113.869 44.7839 114.978C44.6611 116.088 44.6344 118.288 44.4736 118.962C44.3128 119.635 44.8898 121.199 43.8244 121.584C42.7589 121.969 45.4017 122.029 42.7589 121.969C40.1161 121.91 41.7258 122.719 41.0906 122.995C40.4555 123.271 39.2616 124.694 38.6452 125.188C38.0288 125.681 36.3469 126.551 36.3469 126.551C35.8209 128.073 34.4081 128.636 34.4081 128.636C34.4081 128.636 34.1456 129.783 34.553 130.284C34.9598 130.786 33.4627 132.016 34.7911 132.999C36.1195 133.981 37.6003 135.829 37.6003 135.829L39.1931 140.672L41.6541 136.922C41.6541 136.922 42.8498 137.229 43.9978 135.281C45.1458 133.332 45.5213 131.882 45.5213 131.882L46.7442 129.817L47.6166 129.74C47.6166 129.74 48.4856 129.624 49.0913 129.009C49.6969 128.394 52.0519 125.173 52.0519 125.173C52.0519 125.173 51.6942 123.603 51.7978 122.275C51.9014 120.947 50.8758 119.279 51.3961 117.695C51.9164 116.111 51.8363 110.184 51.8363 110.184L54.1402 108.883C54.1402 108.883 54.7102 110.372 54.3314 111.064L54.7355 113.446C54.7355 113.446 53.1867 115.56 53.2823 116.65C53.378 117.741 53.378 117.741 53.378 117.741C53.378 117.741 52.8834 119.619 52.9856 120.781C53.0873 121.943 53.2022 123.251 53.2022 123.251L54.0145 125.001C54.0145 125.001 55.0814 125.19 55.7353 124.85C56.3892 124.51 59.4675 124.523 59.4675 124.523L61.4306 124.351C61.4306 124.351 62.3086 124.337 63.1753 124.198C64.0425 124.059 64.0425 124.059 64.0425 124.059L65.6728 122.597L67.0467 120.719L66.945 119.557L67.6223 118.288L67.8891 117.788C67.8891 117.788 69.0816 118.859 68.9081 119.385C68.7342 119.912 69.0961 121.199 69.0961 121.199C69.0961 121.199 68.2331 121.714 67.4559 122.881C66.6788 124.048 65.5748 123.988 65.5748 123.988L64.3945 125.567L63.105 125.9C63.105 125.9 60.5906 124.802 61.7963 126.015C63.0014 127.228 65.393 129.436 65.393 129.436C66.5986 130.649 68.3433 130.496 68.3433 130.496L69.9183 130.578C69.9183 130.578 70.9223 129.83 71.018 130.921C71.1136 132.012 72.6783 132.314 71.1136 132.012C69.5484 131.709 69.0713 134.128 67.8305 132.169C66.5897 130.211 65.3086 130.982 65.3086 130.982C63.667 129.807 62.2303 128.459 62.2303 128.459C62.2303 128.459 61.687 129.786 61.7419 127.9C61.7963 126.015 60.9431 126.309 60.3075 126.585C59.6723 126.861 56.5992 126.91 56.5992 126.91L54.8545 127.063C53.0255 128.762 51.7603 129.378 51.7603 129.378C50.76 130.5 49.5084 131.269 49.5084 131.269L48.9497 132.417C48.9497 132.417 47.3161 133.839 48.6361 133.853C49.9561 133.867 50.2931 132.699 51.2536 133.623C52.2136 134.548 52.2136 134.548 52.2136 134.548L54.9614 133.298L58.1409 134.468L59.8861 134.315L60.5597 134.476L61.2328 134.636L57.1463 135.654C57.1463 135.654 56.4727 135.493 55.6195 135.788C54.7664 136.083 55.1644 135.608 53.4192 135.761C51.6741 135.914 53.2397 136.217 51.6741 135.914C50.1094 135.612 51.6356 135.478 50.1094 135.612C48.5822 135.746 47.5111 136.059 47.5111 136.059C47.5111 136.059 47.5631 136.708 46.7536 137.445C45.818 138.296 46.8492 138.535 46.8492 138.535C46.8492 138.535 44.1314 139.085 43.4119 140.907L42.1228 143.368C42.1228 143.368 42.1448 145.045 41.7905 146.012C41.4356 146.979 41.3133 146.791 40.7166 147.503C40.1194 148.215 39.9042 148.499 39.5447 149.409C39.1852 150.32 38.7164 151.578 38.1384 152.508C37.5605 153.438 35.8702 156.203 35.8702 156.203C35.8702 156.203 35.6902 156.658 35.1506 158.024C34.6111 159.39 35.5294 157.331 34.6111 159.39C33.6928 161.449 33.0384 161.507 32.9353 162.834C32.8317 164.162 33.532 162.122 32.8317 164.162C32.1314 166.202 31.9514 166.657 31.1367 167.388C30.3216 168.119 30.3216 168.119 30.3216 168.119L28.9669 170.215L29.0592 171.266C29.0592 171.266 28.4508 170.117 28.2666 172.255C28.0823 174.393 28.0598 174.91 28.1175 175.565C28.1752 176.219 28.1752 176.219 28.1752 176.219L23.5945 176.621L22.388 173.649L22.2305 171.864Z" fill="#7F563B"/>
<path d="M14.8182 109.734C14.4666 109.851 11.3026 109.382 12.826 107.976C14.3494 106.57 15.8124 104.812 13.6163 104.578C11.4202 104.343 9.076 105.281 9.19319 104.578C9.31037 103.875 10.0135 101.765 10.3651 101.882C10.7166 102 13.2947 102.225 13.9979 101.878C14.701 101.531 15.0526 103.045 15.8729 101.878C16.6932 100.711 15.9901 102.499 18.0994 99.6709C20.2088 96.843 20.7947 94.9684 21.2635 95.2028C21.7322 95.4372 22.7869 93.9915 22.9041 95.1831C23.0213 96.3747 24.3104 97.3122 24.3104 97.3122C24.3104 97.3122 24.6619 97.8981 25.2479 97.195C25.8338 96.4919 26.7713 95.5544 26.7713 95.5544C26.7713 95.5544 27.5916 95.0298 28.0604 94.7059C28.5291 94.382 32.3963 94.7059 32.3963 94.7059C32.3963 94.7059 33.451 93.804 33.6854 94.562C33.9197 95.32 34.0369 95.5544 34.5057 96.3747C34.9744 97.195 37.4354 97.0778 37.4354 97.0778C37.4354 97.0778 36.1463 97.6637 37.4354 98.0153C38.7244 98.3669 38.7244 97.7809 38.7244 98.9528C38.7244 100.125 38.9588 99.9512 38.7244 100.682C38.4901 101.414 39.076 99.6667 38.3729 102.005C37.6697 104.344 38.4901 105.164 36.1463 105.281C33.8026 105.398 34.3885 105.281 33.0994 105.047C31.8104 104.812 33.6854 104.929 31.2244 104.343C28.7635 103.757 28.0604 104.343 28.0604 104.343C28.0604 104.343 28.5062 104.277 27.3572 105.632C26.2083 106.988 26.2327 106.147 25.0955 107.999C23.9583 109.851 25.2479 110.223 23.0213 110.506C20.7947 110.789 20.4432 110.458 19.5057 110.506C18.5682 110.554 17.3963 110.506 17.3963 110.506C17.3963 110.506 17.1619 110.203 17.3963 109.031C17.6307 107.859 17.6307 106.922 16.8104 107.859C15.9901 108.797 16.576 107.976 15.9901 108.797C15.4041 109.617 14.8182 109.734 14.8182 109.734Z" fill="#499E53"/>
<path d="M73.1779 141.609C71.6545 141.375 73.2951 142.195 70.3654 141.609C67.4357 141.023 66.1466 140.906 66.1466 140.906C64.506 140.555 67.2013 141.375 64.506 140.555C61.8107 139.734 62.5138 140.555 61.6935 139.031C60.8732 137.508 60.8732 137.508 60.8732 137.508C60.8732 137.508 63.217 137.977 60.2873 137.508C57.3576 137.039 56.3029 136.688 56.3029 136.688C56.3029 136.688 55.717 136.335 56.3029 135.632C56.8888 134.93 57.592 134.344 57.1232 133.406C56.6545 132.469 56.8888 131.297 56.8888 131.297C56.8888 131.297 58.0607 129.891 58.881 130.242C59.7013 130.594 61.6935 131.297 62.1623 131.063C62.631 130.828 63.8268 129.877 64.6101 129.656C65.3934 129.436 66.967 128.398 67.3185 127.855C67.6701 127.313 67.9045 125.906 68.842 126.258C69.7795 126.609 71.8063 127.855 71.8063 127.855C71.8063 127.855 71.8888 126.875 70.9513 127.855C70.0138 128.836 69.7795 129.539 69.7795 129.539C69.7795 129.539 68.9521 130.445 70.4207 130.343C71.8893 130.242 73.4123 129.656 74.3498 129.773C75.2873 129.891 76.1076 130.594 76.1076 130.594C76.1076 130.594 75.756 130.711 76.1076 131.297C76.4591 131.883 76.5763 131.18 76.4591 131.883C76.342 132.586 76.342 132.703 75.6388 133.055C74.9357 133.406 74.3498 133.918 73.9982 134.013C73.6466 134.109 72.2404 133.289 73.6466 134.109C75.0529 134.93 77.7482 135.75 78.0998 135.867C78.4513 135.984 80.7951 135.164 80.7951 136.219C80.7951 137.273 80.9123 137.378 80.7951 138.146C80.6779 138.914 81.8498 137.859 79.7404 139.383C77.631 140.906 78.5685 140.906 77.0451 141.023C75.5216 141.141 75.4045 140.672 74.7013 140.438C73.9982 140.203 76.8107 140.086 73.9982 140.203L73.1779 141.609Z" fill="#499E53"/>
<path d="M63.9266 99.5008C63.9266 99.5008 64.738 100.087 63.4743 99.377C62.5349 98.8497 60.7391 98.0214 59.4482 97.5634C59.0015 97.405 58.6157 97.2902 58.3461 97.248C57.2975 97.083 57.4822 96.8528 55.6377 96.4895C53.7932 96.1267 55.6644 92.3884 52.0302 95.4639C48.3965 98.5399 49.4244 98.3345 48.3965 98.5399C47.369 98.7452 46.3452 99.3789 44.3338 98.7372C42.3224 98.0959 40.649 97.1069 39.584 97.4467C38.5194 97.7861 39.4119 95.852 37.198 97.7331C34.9832 99.6142 34.8505 97.8775 34.5618 100.714C34.273 103.55 34.7043 104.64 35.1154 105.36C35.5265 106.079 34.6424 106.202 36.0397 107.313C37.4375 108.423 39.7082 109.894 40.7877 109.945C41.8668 109.997 43.5308 109.735 45.1143 109.251C46.6977 108.766 48.9182 107.307 49.3705 107.43C49.8229 107.553 50.2541 107.307 50.871 107.718C51.4879 108.13 52.5515 107.543 52.5693 108.715C52.5871 109.888 52.4633 110.34 52.5557 111.337C52.648 112.334 52.8772 112.116 53.2349 113.387C53.5925 114.657 55.2983 115.973 55.6068 116.179C55.9152 116.384 56.0488 116.785 57.4157 116.673C58.783 116.56 63.2947 116.942 63.4283 117.343C63.5615 117.744 63.5291 117.861 63.4579 118.569C63.3861 119.275 62.563 121.845 62.563 121.845C62.563 121.845 61.1286 119.852 62.428 122.537C63.7269 125.222 62.0586 124.136 66.5394 125.967C71.0202 127.798 73.9593 128.601 75.2544 129.198C76.5491 129.794 76.5383 131.613 77.9675 129.939C79.3968 128.264 79.3147 128.12 80.713 126.558C82.1108 124.996 82.491 125.829 83.2218 123.599C83.9525 121.368 84.9861 120.697 83.3291 117.867C81.6721 115.037 82.0115 115.129 81.3229 114.091C80.6347 113.053 82.5463 112.724 79.1755 112.168C75.8047 111.612 75.1668 113.503 74.736 111.078C74.3052 108.652 73.7371 109.841 74.278 107.859C74.8194 105.877 75.3871 105.578 75.0215 104.247C74.6558 102.916 75.2061 102.945 74.5354 102.154C73.865 101.364 74.1219 101.313 73.31 100.727C72.4986 100.141 71.9455 99.4952 69.3243 98.4194C66.703 97.3436 67.6813 96.8735 64.9152 97.2156C64.9152 97.2156 63.2694 97.0136 63.9266 99.5008Z" fill="#499E53"/>
<path d="M289.918 298.5C289.918 298.5 289.418 298.542 288.897 298.585C289.177 298.562 289.511 298.533 289.918 298.5Z" fill="#D8BD80"/>
<path d="M178.342 257.514C178.156 257.551 178.203 257.541 178.342 257.514V257.514Z" fill="#D8BD80"/>
<path d="M288.897 298.585C288.721 298.599 288.567 298.613 288.437 298.623C288.583 298.611 288.74 298.598 288.897 298.585Z" fill="#D8BD80"/>
<path d="M179.121 257.358C179.121 257.358 178.899 257.403 178.675 257.447C178.797 257.423 178.937 257.395 179.121 257.358Z" fill="#D8BD80"/>
<path d="M288.437 298.623C288.375 298.628 288.316 298.633 288.26 298.638C288.313 298.633 288.373 298.628 288.437 298.623Z" fill="#D8BD80"/>
<path d="M178.675 257.447C178.603 257.462 178.537 257.475 178.484 257.485C178.544 257.474 178.61 257.46 178.675 257.447Z" fill="#D8BD80"/>
<path d="M178.484 257.485C178.431 257.495 178.384 257.506 178.342 257.514C178.379 257.506 178.428 257.498 178.484 257.485Z" fill="#D8BD80"/>
<path d="M287.825 298.674C287.809 298.675 287.796 298.676 287.785 298.677C287.795 298.677 287.81 298.675 287.825 298.674Z" fill="#D8BD80"/>
<path d="M287.785 298.678C287.775 298.679 287.77 298.679 287.764 298.68C287.77 298.679 287.777 298.679 287.785 298.678Z" fill="#D8BD80"/>
<path d="M288.26 298.638C288.215 298.641 288.174 298.645 288.136 298.648C288.176 298.645 288.216 298.641 288.26 298.638Z" fill="#D8BD80"/>
<path d="M287.764 298.68C287.743 298.682 287.743 298.682 287.764 298.68V298.68Z" fill="#D8BD80"/>
<path d="M288.136 298.648C288.099 298.652 288.065 298.655 288.031 298.658C288.064 298.655 288.097 298.651 288.136 298.648Z" fill="#D8BD80"/>
<path d="M288.031 298.656C287.939 298.665 287.869 298.67 287.825 298.674C287.874 298.669 287.945 298.664 288.031 298.656Z" fill="#D8BD80"/>
<path d="M378.1 350.906C375.756 341.062 381.381 331.218 378.1 318.093C374.818 304.968 376.313 303.133 376.313 301.951C376.313 300.768 372.475 300.667 372.475 300.667C372.475 300.667 357.943 302.625 356.537 302.837C355.131 303.049 353.256 303.563 350.443 302.543C347.631 301.523 347.631 303.563 342.006 302.543C336.381 301.523 337.318 302.156 335.912 302.487C334.506 302.817 334.037 301.577 334.037 301.577L329.926 301.352C329.926 301.352 328.843 299.813 326.986 301.352C323.32 297.687 324.598 301.298 321.48 299.724C318.362 298.149 317.778 302.324 315.354 300.538C312.931 298.752 312.729 300.945 310.693 302.004C308.657 303.064 305.818 303.041 303.768 302.004C301.719 300.968 302.944 303.041 294.807 298.093C286.67 293.146 294.807 298.093 289.919 298.501C289.919 298.501 289.919 298.501 277.428 300.945C264.937 303.389 267.102 300.227 261.005 300.224C254.909 300.22 261.005 300.224 258.642 298.093C256.279 295.962 245.519 298.5 243.075 298.093C240.631 297.686 240.653 301.036 237.396 301.169C234.139 301.3 237.396 301.169 236.187 301.211C234.979 301.254 227.597 298.5 219.589 295.241C219.063 295.027 218.604 294.843 218.198 294.683C218.18 294.328 218.149 293.75 218.1 292.798C217.973 290.354 218.934 293.564 218.666 292.041C218.666 292.041 218.713 292.43 218.666 290.607C216.628 289.385 219.589 290.607 218.1 289.209C217.596 287.426 217.859 286.127 217.859 286.127C217.859 286.127 218.003 287.503 217.596 278.949C217.189 270.395 218.666 277.436 217.596 273.27C215.56 270.825 216.339 269.938 215.389 269.123C214.439 268.309 215.389 266.344 215.389 266.344L211.71 263.062V259.536C211.71 259.536 210.184 258.619 207.434 255.323C205.862 250.027 205.007 250.312 205.007 247.868C205.007 245.424 204.377 243.916 204.377 243.916C204.377 243.916 203.983 243.297 203.168 238.816C202.354 234.335 197.397 214.971 197.397 214.971C197.397 214.971 196.687 211.837 192.185 210.141C187.242 210.495 190.068 211.877 188.032 211.47C188.032 202.246 183.196 237.205 183.196 237.205L184.388 241.76C184.388 241.76 187.677 242.694 185.64 243.916C183.604 245.138 185.64 245.546 185.64 245.546V247.176V250.027C185.64 250.027 185.64 250.027 183.196 251.657C180.752 253.287 184.011 253.694 183.196 255.323C182.381 256.952 181.159 256.952 179.123 257.359C179.123 257.359 179.123 257.359 176.271 260.211C173.42 263.062 176.271 263.062 176.271 263.062V265.507C176.271 265.507 176.271 265.507 175.864 268.358C175.457 271.209 175.864 269.988 175.864 269.988V271.617C175.864 271.617 175.864 271.617 174.235 273.655C172.605 275.692 174.235 273.655 170.568 275.692C166.903 277.728 168.124 275.692 168.124 275.692C168.124 275.692 168.124 275.692 166.088 275.692C164.051 275.692 164.051 276.506 160.385 279.765C156.719 283.023 160.385 279.765 159.163 278.95C157.941 278.136 155.09 282.209 155.09 282.209C155.09 282.209 155.09 282.209 146.943 282.616C145.493 282.688 144.502 282.786 143.833 282.89C143.809 282.81 143.762 282.719 143.685 282.616C142.463 280.986 136.353 282.209 133.501 282.209C130.65 282.209 133.501 282.209 128.206 280.579C122.91 278.949 124.54 278.949 122.91 278.949C121.281 278.949 117.207 279.764 110.69 282.615C104.172 285.467 107.839 284.291 107.839 284.291C107.839 284.291 105.802 285.059 104.172 285.286C102.543 285.513 101.321 286.281 101.321 286.281C101.321 286.281 101.321 286.281 99.2843 284.958C97.2476 283.636 96.4329 284.652 95.2109 284.864C93.9888 285.077 91.901 284.864 91.901 284.864C91.901 284.864 91.2335 284.833 90.0073 284.775C89.5071 283.333 89.1007 281.8 89.1007 281.8H87.064V279.356C87.064 279.356 87.064 279.356 82.1758 276.505C77.2877 273.654 75.6584 274.875 72.3996 273.654C69.1409 272.432 66.2894 272.024 63.0307 269.988C59.7719 267.951 56.9205 265.507 55.6985 263.47C54.4765 261.434 55.6985 263.47 54.8838 260.619C54.0691 257.768 54.8838 260.619 54.0691 258.582C53.2544 256.545 52.4398 256.545 49.9957 254.509C47.5516 252.473 49.9957 254.509 49.0634 252.065C48.131 249.621 45.1076 249.213 43.4782 244.733C41.8488 240.251 43.0709 240.251 42.6635 238.622C42.2562 236.993 43.0709 232.512 43.4782 229.254C43.8855 225.995 44.2929 226.809 44.2929 225.181C44.2929 223.551 46.7369 223.144 48.3663 219.478C49.9957 215.812 48.3663 219.478 47.5516 217.848C46.7369 216.219 47.959 214.997 47.5516 213.572C47.1443 212.146 46.737 208.073 45.9223 206.426C45.1076 204.779 41.4415 203.185 39.4048 201.147C37.368 199.11 39.4048 201.147 38.1827 199.517C36.9607 197.886 38.1827 194.223 38.1827 194.223C38.1827 194.223 38.1827 194.223 38.1827 192.178C38.1827 190.669 38.1827 190.395 38.1827 190.354L38.9974 188.964L41.4415 186.483C41.4415 186.483 41.4415 186.483 42.2562 184.039C43.0709 181.595 42.2562 184.039 41.4415 182.003C40.6268 179.966 41.4415 182.003 38.5901 180.124C35.7387 178.245 38.9974 177.929 38.5901 176.508C38.1827 175.086 36.146 175.485 33.2946 172.849C30.4432 170.214 31.6652 172.634 28.8138 172.829C25.9624 173.023 26.7771 171.82 23.9257 171.005C21.0743 170.19 23.9257 171.005 21.4816 169.375C19.0376 167.746 21.4816 169.375 19.4449 166.117C17.4082 162.858 19.4449 166.117 21.0743 162.451C22.7037 158.785 21.0743 160.007 21.0743 160.007C21.0743 160.007 21.0743 160.007 20.667 155.933C20.2596 151.86 20.667 155.933 20.2596 154.258C19.8523 152.583 18.6302 152.674 17.8155 150.638C17.0009 148.601 12.9274 150.638 9.66867 150.638C6.40992 150.638 1.9282 155.931 0.706171 156.338C-0.515861 156.745 -8.25539 158.782 -8.25539 158.782L-15.1816 321.885C-15.1816 321.885 -14.337 321.885 -12.8065 321.885C-12.5693 345.551 -12.3302 370.824 -12.3302 376.506L329.018 379.968C329.018 379.968 329.035 379.419 329.064 378.429L379.157 382.312C379.157 382.312 380.443 360.75 378.1 350.906Z" fill="#D8BD80"/>
<path d="M200.309 110.506H188.966V145.203H200.309V110.506Z" fill="#0C0C0C"/>
<path d="M220.68 141.325C213.907 129.606 207.145 117.885 200.378 106.163C199.835 105.223 199.307 104.272 198.743 103.344C197.511 101.314 195.44 100.336 193.283 100.794C191.649 101.141 190.521 102.174 189.703 103.59C184.783 112.116 179.86 120.641 174.938 129.166C172.55 133.302 170.156 137.433 167.78 141.576C166.247 144.249 166.954 147.256 169.425 148.676C170.396 149.235 171.454 149.409 172.56 149.408C179.786 149.403 187.01 149.407 194.236 149.407C195.55 149.407 196.863 149.407 198.177 149.407C204.202 149.404 210.227 149.415 216.252 149.399C219.098 149.392 221.197 147.702 221.573 145.145C221.775 143.765 221.369 142.516 220.68 141.325ZM197.407 110.663L196.46 133.334H192.252L191.358 110.663H197.407ZM194.383 143.434C192.524 143.434 191.016 141.926 191.016 140.067C191.016 138.208 192.524 136.701 194.383 136.701C196.242 136.701 197.75 138.208 197.75 140.067C197.75 141.927 196.243 143.434 194.383 143.434Z" fill="#070707"/>
<path d="M218.203 140.178C212.066 129.559 205.939 118.939 199.808 108.317C199.316 107.466 198.837 106.604 198.327 105.763C197.21 103.924 195.334 103.038 193.378 103.452C191.898 103.766 190.876 104.702 190.135 105.986C185.677 113.712 181.217 121.436 176.756 129.16C174.593 132.907 172.423 136.651 170.27 140.404C168.881 142.827 169.522 145.551 171.761 146.839C172.64 147.345 173.599 147.503 174.602 147.502C181.149 147.497 187.695 147.501 194.242 147.501C195.432 147.501 196.623 147.501 197.812 147.501C203.271 147.499 208.731 147.509 214.19 147.494C216.769 147.487 218.671 145.955 219.011 143.638C219.195 142.388 218.827 141.257 218.203 140.178ZM197.116 112.395L196.258 132.937H192.445L191.635 112.395H197.116ZM194.375 142.088C192.691 142.088 191.325 140.722 191.325 139.038C191.325 137.353 192.691 135.988 194.375 135.988C196.061 135.988 197.426 137.353 197.426 139.038C197.426 140.722 196.06 142.088 194.375 142.088Z" fill="#F9E132"/>
<path d="M196.487 190.578H200.309L194.68 198.776L189.051 190.578H191.911V190.196H196.487V190.578Z" fill="#F90606"/>
<path d="M196.677 158.454H191.911V190.578H196.677V158.454Z" fill="#FC3232"/>
<rect x="315.521" y="15.9844" width="44.0746" height="25" rx="12.5" fill="#969696" fill-opacity="0.3"/>
<path d="M328.721 30.4043H330.273V31.0947H328.721V33.6104H327.901V31.0947H323.218V30.6299L327.826 23.6572H328.721V30.4043ZM324.223 30.4043H327.901V24.7168L327.539 25.3457L324.223 30.4043ZM331.476 34.4648H330.731L334.887 23.6572H335.625L331.476 34.4648ZM340.834 33.6104H340.014V24.6416L337.307 25.6465V24.8809L340.698 23.623H340.834V33.6104ZM348.6 33.6104H347.78V24.6416L345.073 25.6465V24.8809L348.463 23.623H348.6V33.6104Z" fill="black"/>
</g>
<defs>
<linearGradient id="paint0_linear" x1="187.355" y1="314.317" x2="187.355" y2="-4.40647" gradientUnits="userSpaceOnUse">
<stop offset="0.1184" stop-color="white"/>
<stop offset="1" stop-color="#4FC3F7"/>
</linearGradient>
<clipPath id="clip0">
<rect width="375" height="375" fill="white" transform="translate(0.521484 0.984375)"/>
</clipPath>
</defs>
</svg>
