<svg width="376" height="375" viewBox="0 0 376 375" fill="none" xmlns="http://www.w3.org/2000/svg">
<g clip-path="url(#clip0)">
<path d="M383.575 -3.22266H-10.175V390.88H383.575V-3.22266Z" fill="#8BF6FF"/>
<path d="M313.151 67.7148L60.25 319.942" stroke="#EA3434" stroke-width="3" stroke-miterlimit="10" stroke-dasharray="15 15"/>
<path d="M446.744 61.6377L268.339 239.567" stroke="#1AB737" stroke-width="3" stroke-miterlimit="10" stroke-dasharray="15 15"/>
<path d="M105.494 149.527L-72.9106 327.456" stroke="#1AB737" stroke-width="3" stroke-miterlimit="10" stroke-dasharray="15 15"/>
<path d="M253.604 123.07C253.594 123.08 253.582 123.09 253.573 123.1L253.558 123.085L253.604 123.07Z" fill="#F80606"/>
<path d="M258.346 127.861C258.356 127.851 258.366 127.841 258.376 127.831L258.346 127.861Z" fill="#F80606"/>
<path d="M187.612 133.445C166.305 117.441 140.971 118.707 122.1 137.39L125.492 140.774L111.597 143.349L114.179 129.49L117.179 132.483L117.497 132.165L117.57 132.238C139.197 111.216 167.407 111.464 192.05 129.019C210.377 142.075 234.516 142.078 253.331 123.339L258.106 128.101C236.74 149.381 207.792 148.603 187.612 133.445Z" fill="#F80606"/>
<path d="M319.012 19.7604C317.049 22.4201 309.617 26.8529 306.151 31.4793C302.686 36.1061 301.362 42.7549 298.499 47.0101C295.637 51.2643 291.927 53.1269 288.463 58.2156C284.998 63.3039 285.353 68.7353 283.161 72.552C280.966 76.3672 275.739 82.1161 275.354 86.0627C274.97 90.0098 285.618 98.9115 285.618 98.9115C285.618 98.9115 292.748 106.696 295.812 106.387C299.767 105.988 305.511 100.752 309.329 98.5496C313.146 96.3477 318.594 96.6806 323.682 93.2056C328.771 89.7302 330.624 86.0244 334.879 83.1525C339.135 80.2807 345.796 78.9352 350.422 75.4612C355.046 71.9867 359.461 64.5582 362.122 62.5895C364.782 60.6213 370.278 58.5887 374.788 55.2311L351.35 31.9449L349.78 30.3858L326.342 7.09961C322.992 11.61 320.976 17.0999 319.012 19.7604Z" fill="url(#paint0_linear)"/>
<path opacity="0.5" d="M326.207 26.9069C324.243 29.5674 316.811 33.9998 313.345 38.6266C309.88 43.2526 308.556 49.9018 305.694 54.1561C302.831 58.4117 299.121 60.2733 295.657 65.362C292.192 70.4512 292.547 75.8822 290.354 79.6979C288.16 83.5136 282.932 89.262 282.548 93.2096C282.164 97.1558 284.688 97.9884 284.688 97.9884C284.688 97.9884 285.785 99.7784 288.849 99.4694C292.805 99.0711 298.549 93.8332 302.366 91.6318C306.184 89.4299 311.631 89.7623 316.72 86.2873C321.808 82.8129 323.662 79.1061 327.918 76.2347C332.172 73.3633 338.834 72.0174 343.459 68.5434C348.084 65.0689 352.5 57.6394 355.159 55.6717C357.819 53.703 363.316 51.6708 367.826 48.3132L350.422 31.0214L348.851 29.4627L333.536 14.2451C330.186 18.757 328.17 24.2468 326.207 26.9069Z" fill="url(#paint1_linear)"/>
<path d="M310.886 90.0999L291.599 70.9385L268.358 93.4972C268.358 93.4972 247.608 110.721 252.909 128.975C270.585 134.062 288.042 114.003 288.042 114.003L310.886 90.0999Z" fill="#D1D1D1"/>
<path d="M257.93 124.081C257.93 124.081 249.258 116.104 265.548 99.2149C281.838 82.325 284.753 81.7061 284.753 81.7061L300.266 97.1177L295.957 102.881L281.702 117.152C281.701 117.153 266.39 131.48 257.93 124.081Z" fill="#F4F4F4"/>
<path d="M257.729 124.084C264.061 130.618 274.323 124.42 282.605 117.162L295.253 104.073L304.212 94.4566L300.357 88.3118L298.589 88.4675L293.242 83.1066C293.242 83.1066 293.369 81.6251 293.206 81.4643C292.295 80.5583 287.19 77.6738 287.19 77.6738C287.19 77.6738 280.744 83.8425 277.841 86.6162C277.743 86.7106 264.691 99.0465 264.536 99.2116C257.064 107.243 250.844 116.979 257.729 124.084ZM277.861 87.179C278.038 86.9373 287.486 79.1885 287.486 79.1885C287.486 79.1885 291.458 81.9005 292.318 82.7551C292.47 82.907 292.342 84.3142 292.342 84.3142L297.391 89.3758L299.071 89.2178L302.794 94.3944L294.748 103.934C287.226 111.679 286.97 111.637 282.069 116.628C273.906 123.624 263.538 129.371 258.031 123.611C252.56 117.887 258.126 107.773 265.111 99.7819C265.404 99.4949 277.797 87.3735 277.861 87.179Z" fill="#E8E8E8"/>
<path d="M272.942 108.715L272.862 108.79L275.816 110.963L277.937 110.933C278.94 111.092 281.162 109.09 281.162 109.09L285.078 105.168L285.525 103.909L282.152 101.554L279.486 102.128L278.162 103.489L272.942 108.715Z" fill="white"/>
<path d="M272.996 108.767L272.862 108.79L270.82 105.999L270.862 103.902C270.698 102.904 272.718 100.699 272.718 100.699L276.634 96.7771L277.856 96.2881L280.209 99.6232L279.608 102.249L278.216 103.544L272.996 108.767Z" fill="white"/>
<path d="M276.014 98.1614C275.901 98.2899 275.258 101.21 275.258 101.21L280.386 106.413L283.527 105.862L283.784 105.603L283.912 105.474L284.041 105.345L285.505 103.88L277.873 96.2988C277.874 96.2993 276.127 98.0323 276.014 98.1614Z" fill="#C6C6C6"/>
<path d="M301.318 74.8764C301.701 74.4968 302.323 74.4982 302.703 74.881L306.718 78.9128C307.098 79.2952 307.096 79.9142 306.712 80.2942L300.502 86.4461C300.119 86.8261 299.497 86.8243 299.117 86.4414L295.103 82.4092C294.722 82.0268 294.725 81.4083 295.108 81.0287L301.318 74.8764Z" fill="#394963"/>
<path d="M273.301 102.469L275.917 105.068L276.915 106.058L279.272 108.401C279.272 108.401 281.078 108.099 283.805 105.615C283.821 105.601 283.698 105.453 283.698 105.453C282.874 105.594 280.814 106.126 280.814 106.126L278.313 103.665L275.58 100.919C275.58 100.919 276.112 98.8571 276.249 98.0343C276.249 98.0343 276.092 97.9212 276.077 97.9371C273.597 100.667 273.301 102.469 273.301 102.469Z" fill="#29ABE2"/>
<path d="M283.912 103.519C284.959 102.47 281.568 98.9499 280.436 100.085C279.441 101.081 282.813 104.619 283.912 103.519ZM283.599 103.231C282.849 103.981 280.051 101.072 280.73 100.393C281.501 99.6199 284.312 102.516 283.599 103.231Z" fill="black"/>
<path d="M282.028 102.814C282.028 102.814 282.346 102.478 281.95 102.094C281.553 101.708 281.315 102.05 281.278 102.071C281.243 102.091 282.028 102.814 282.028 102.814Z" fill="black"/>
<path d="M282.09 102.203L283.052 101.443L282.534 100.929L281.812 101.926L282.09 102.203Z" fill="black"/>
<path d="M281.499 102.095C281.489 102.087 280.78 100.289 280.78 100.289L280.41 100.563L281.305 102.208L281.499 102.095Z" fill="black"/>
<path d="M282.023 102.617C282.032 102.625 283.874 103.362 283.874 103.362L283.552 103.685L281.947 102.847L282.023 102.617Z" fill="black"/>
<path d="M265.11 99.7812C265.11 99.7812 269.381 103.961 265.839 109.379C262.297 114.797 256.689 121.508 256.626 121.702C256.562 121.895 251.767 114.045 265.11 99.7812Z" fill="#E8CDA0"/>
<path d="M282.068 116.628C282.068 116.628 277.86 112.384 272.442 115.938C267.022 119.492 260.315 125.109 260.122 125.174C259.928 125.239 267.818 129.991 282.068 116.628Z" fill="#E8CDA0"/>
<path d="M299.311 98.7174C299.311 98.7174 298.582 100.066 297.923 98.6884C295.749 94.1503 288.08 86.0158 283.006 83.9962C281.941 83.5727 282.139 83.3964 282.664 82.9177C283.058 82.5582 287.485 79.1885 287.485 79.1885C287.485 79.1885 295.89 82.9088 302.792 94.3953L299.311 98.7174Z" fill="#E8CDA0"/>
<path d="M282.595 91.3089C282.809 91.093 283.126 91.2323 283.425 91.5301L290.253 98.313C290.553 98.6104 290.788 99.0208 290.574 99.2359L288.305 101.507C288.09 101.722 287.545 101.622 287.245 101.324L280.418 94.5408C280.117 94.243 280.111 93.7946 280.326 93.5787L282.595 91.3089Z" fill="#E8CDA0"/>
<path d="M284.805 102.12C284.805 102.12 283.979 102.211 284.535 101.312C285.091 100.413 285.483 99.3517 285.483 99.3517C285.483 99.3517 284.471 98.7982 284.15 98.9062C283.829 99.0137 282.943 100.08 282.018 99.6486C281.092 99.2171 280.631 99.0656 281.946 98.3284C283.262 97.5911 284.091 96.9717 284.091 96.9717L287.551 99.1563L284.967 101.959" fill="#996234"/>
<path d="M286.89 99.3196C286.89 99.3196 286.396 101.871 285.902 101.269C285.407 100.665 286.114 100.529 285.452 99.7978C284.789 99.0667 284.346 99.7006 283.781 98.5548C283.216 97.4098 282.639 97.3491 283.247 97.0265C283.856 96.7044 284.088 96.5352 284.088 96.5352L286.89 99.3196Z" fill="#EF45B7"/>
<path d="M287.862 99.9828C287.862 99.9828 286.695 101.246 286.413 101.593C285.886 102.243 284.164 102.965 283.942 103.188C283.718 103.411 283.45 103.61 283.483 102.984C283.518 102.36 284.919 101.538 285.6 101.108C286.282 100.677 286.596 99.6411 286.761 99.4489C286.926 99.2563 287.039 99.8823 287.039 99.8823L287.862 99.9828Z" fill="#996234"/>
<path d="M284.107 96.0986C284.107 96.0986 282.433 97.0121 282.086 97.2931C281.437 97.8214 280.72 99.5408 280.496 99.7638C280.273 99.9863 280.075 100.256 280.702 100.219C281.327 100.182 282.146 98.7835 282.576 98.1023C283.005 97.4212 284.232 97.4044 284.424 97.2393C284.616 97.0738 283.798 96.6624 283.798 96.6624L284.107 96.0986Z" fill="#996234"/>
<path d="M288.402 100.52C288.402 100.52 289.679 98.7862 289.049 97.5529C288.419 96.3197 288.201 95.8924 287 95.4207C285.799 94.9494 285.553 94.3076 284.862 95.1261C284.171 95.9443 283.273 95.8316 283.882 96.6722C284.537 97.5786 286.501 99.8138 286.628 99.975C287.417 100.968 288.402 100.52 288.402 100.52Z" fill="#8BC7E8"/>
<path d="M287.933 96.4447C287.933 96.4447 288.699 97.3708 287.874 97.9421C287.051 98.5139 287.167 99.138 286.35 98.7607C285.533 98.3844 284.653 98.6714 284.971 97.8257C285.289 96.9809 285.407 96.4816 286.007 96.2624C286.607 96.0422 286.667 95.9024 287.169 95.8832C287.67 95.865 287.933 96.4447 287.933 96.4447Z" fill="#301705"/>
<path d="M123.719 262.481C123.73 262.47 123.741 262.46 123.752 262.45L123.766 262.465L123.719 262.481Z" fill="#F80606"/>
<path d="M118.975 257.688C118.966 257.698 118.956 257.708 118.946 257.718L118.975 257.688Z" fill="#F80606"/>
<path d="M189.51 252.306C210.817 268.311 236.151 267.044 255.023 248.361L251.63 244.978L265.525 242.403L262.944 256.261L259.944 253.269L259.625 253.588L259.552 253.515C237.925 274.536 209.716 274.29 185.073 256.734C166.745 243.677 142.606 243.674 123.79 262.413L119.016 257.651C140.701 236.052 169.33 237.148 189.51 252.306Z" fill="#F80606"/>
<path d="M57.0686 366.751C59.0317 364.091 66.4633 359.658 69.9292 355.033C73.3947 350.406 74.718 343.757 77.5811 339.501C80.4442 335.247 84.1539 333.384 87.6175 328.295C91.082 323.207 90.7277 317.775 92.9205 313.959C95.1142 310.144 100.343 304.395 100.727 300.449C101.111 296.503 90.4638 287.601 90.4638 287.601C90.4638 287.601 83.3345 279.816 80.2698 280.125C76.3136 280.524 70.5705 285.762 66.7525 287.963C62.935 290.165 57.4877 289.833 52.3989 293.308C47.3097 296.783 45.4572 300.489 41.2019 303.361C36.9466 306.234 30.2856 307.579 25.66 311.052C21.0344 314.527 16.6192 321.955 13.9595 323.924C11.2998 325.892 5.80281 327.925 1.29297 331.282L24.7314 354.568L26.3013 356.128L49.7388 379.414C53.0884 374.901 55.1045 369.411 57.0686 366.751Z" fill="url(#paint2_linear)"/>
<path opacity="0.5" d="M49.874 359.605C51.8376 356.945 59.2697 352.512 62.7351 347.885C66.2006 343.259 67.5243 336.611 70.387 332.355C73.2501 328.1 76.9593 326.238 80.4243 321.149C83.8889 316.06 83.5336 310.629 85.7268 306.814C87.9206 302.998 93.1486 297.249 93.5339 293.302C93.9173 289.356 91.3922 288.523 91.3922 288.523C91.3922 288.523 90.2962 286.733 87.232 287.042C83.2767 287.441 77.5322 292.678 73.7151 294.88C69.8976 297.082 64.4503 296.749 59.3615 300.224C54.2728 303.699 52.4193 307.405 48.164 310.278C43.9092 313.149 37.2478 314.495 32.6222 317.969C27.997 321.443 23.5814 328.872 20.9222 330.84C18.2625 332.808 12.765 334.841 8.25513 338.198L25.6598 355.49L27.2292 357.048L42.5451 372.265C45.8943 367.754 47.9104 362.264 49.874 359.605Z" fill="url(#paint3_linear)"/>
<path d="M65.1948 296.412L84.4815 315.573L107.723 293.015C107.723 293.015 128.472 275.79 123.172 257.536C105.496 252.448 88.0384 272.508 88.0384 272.508L65.1948 296.412Z" fill="#D1D1D1"/>
<path d="M118.15 262.431C118.15 262.431 126.822 270.407 110.533 287.296C94.2422 304.186 91.3275 304.805 91.3275 304.805L75.8147 289.393L80.1234 283.63L94.3786 269.358C94.3791 269.358 109.69 255.031 118.15 262.431Z" fill="#F4F4F4"/>
<path d="M118.352 262.427C112.02 255.893 101.757 262.091 93.4764 269.35L80.8281 282.439L71.8679 292.055L75.7234 298.2L77.491 298.044L82.8385 303.405C82.8385 303.405 82.7115 304.887 82.8746 305.048C83.7854 305.954 88.8901 308.838 88.8901 308.838C88.8901 308.838 95.3364 302.669 98.2398 299.896C98.3373 299.801 111.39 287.465 111.544 287.3C119.017 279.27 125.237 269.533 118.352 262.427ZM98.221 299.333C98.0439 299.575 88.5953 307.323 88.5953 307.323C88.5953 307.323 84.6245 304.611 83.7643 303.757C83.6111 303.604 83.7404 302.197 83.7404 302.197L78.6915 297.136L77.0115 297.294L73.2887 292.118L81.3339 282.579C88.8554 274.833 89.1128 274.875 94.0135 269.885C102.176 262.888 112.545 257.141 118.051 262.902C123.522 268.626 117.956 278.74 110.971 286.731C110.677 287.017 98.2848 299.139 98.221 299.333Z" fill="#E8E8E8"/>
<path d="M103.139 277.796L103.219 277.721L100.264 275.548L98.1426 275.578C97.1409 275.418 94.9185 277.421 94.9185 277.421L91.0021 281.343L90.5544 282.602L93.928 284.957L96.5938 284.382L97.9185 283.021L103.139 277.796Z" fill="white"/>
<path d="M103.085 277.744L103.219 277.722L105.261 280.512L105.22 282.609C105.383 283.607 103.364 285.812 103.364 285.812L99.4477 289.734L98.2252 290.224L95.8711 286.888L96.473 284.263L97.8647 282.968L103.085 277.744Z" fill="white"/>
<path d="M100.066 288.35C100.179 288.222 100.822 285.302 100.822 285.302L95.6932 280.099L92.5531 280.65L92.2952 280.908L92.1668 281.037L92.0379 281.166L90.5745 282.631L98.2057 290.213C98.2057 290.213 99.9527 288.48 100.066 288.35Z" fill="#C6C6C6"/>
<path d="M74.7621 311.634C74.3787 312.014 73.7576 312.013 73.3774 311.63L69.3626 307.598C68.9824 307.215 68.9838 306.596 69.3677 306.217L75.5782 300.065C75.9621 299.685 76.5827 299.687 76.9629 300.07L80.9777 304.102C81.3584 304.485 81.356 305.104 80.9731 305.482L74.7621 311.634Z" fill="#394963"/>
<path d="M102.78 284.042L100.164 281.443L99.1661 280.453L96.8087 278.11C96.8087 278.11 95.0026 278.411 92.2759 280.896C92.2595 280.909 92.3833 281.058 92.3833 281.058C93.2078 280.917 95.2679 280.386 95.2679 280.386L97.7687 282.847L100.501 285.592C100.501 285.592 99.9695 287.654 99.8322 288.477C99.8322 288.477 99.9897 288.59 100.004 288.574C102.484 285.844 102.78 284.042 102.78 284.042Z" fill="#29ABE2"/>
<path d="M92.1686 282.993C91.1214 284.041 94.5123 287.561 95.6448 286.427C96.6404 285.43 93.2678 281.893 92.1686 282.993ZM92.4822 283.281C93.2308 282.531 96.0297 285.44 95.3509 286.118C94.5793 286.892 91.7683 283.996 92.4822 283.281Z" fill="black"/>
<path d="M94.0527 283.697C94.0527 283.697 93.7344 284.033 94.131 284.418C94.5276 284.802 94.7652 284.461 94.8018 284.441C94.8365 284.421 94.0527 283.697 94.0527 283.697Z" fill="black"/>
<path d="M93.9905 284.309L93.0295 285.068L93.547 285.583L94.2689 284.586L93.9905 284.309Z" fill="black"/>
<path d="M94.5818 284.416C94.5902 284.425 95.3004 286.222 95.3004 286.222L95.6712 285.949L94.7759 284.303L94.5818 284.416Z" fill="black"/>
<path d="M94.0572 283.894C94.0483 283.886 92.2065 283.148 92.2065 283.148L92.5281 282.826L94.1336 283.664L94.0572 283.894Z" fill="black"/>
<path d="M110.971 286.729C110.971 286.729 106.699 282.551 110.241 277.132C113.784 271.713 119.391 265.004 119.455 264.809C119.519 264.616 124.314 272.466 110.971 286.729Z" fill="#E8CDA0"/>
<path d="M94.0134 269.883C94.0134 269.883 98.2205 274.126 103.639 270.573C109.058 267.019 115.766 261.402 115.959 261.337C116.153 261.272 108.263 256.519 94.0134 269.883Z" fill="#E8CDA0"/>
<path d="M76.7686 287.793C76.7686 287.793 77.4975 286.444 78.1575 287.822C80.3306 292.36 88.0008 300.495 93.0745 302.515C94.1386 302.938 93.9398 303.114 93.4162 303.594C93.0234 303.954 88.5947 307.323 88.5947 307.323C88.5947 307.323 80.19 303.603 73.2886 292.117L76.7686 287.793Z" fill="#E8CDA0"/>
<path d="M93.4861 295.203C93.2714 295.419 92.954 295.279 92.655 294.981L85.8272 288.198C85.5272 287.9 85.2914 287.49 85.5061 287.274L87.7744 285.004C87.989 284.789 88.5347 284.889 88.8342 285.187L95.6611 291.97C95.9615 292.269 95.969 292.717 95.7544 292.933L93.4861 295.203Z" fill="#E8CDA0"/>
<path d="M91.2748 284.39C91.2748 284.39 92.1007 284.3 91.5453 285.199C90.9893 286.098 90.5979 287.158 90.5979 287.158C90.5979 287.158 91.6095 287.712 91.9306 287.603C92.2512 287.496 93.1371 286.43 94.0625 286.861C94.9882 287.293 95.449 287.443 94.1337 288.181C92.8184 288.919 91.9892 289.537 91.9892 289.537L88.5303 287.352L91.1136 284.55" fill="#996234"/>
<path d="M89.1902 287.192C89.1902 287.192 89.6838 284.64 90.1774 285.242C90.6719 285.846 89.9655 285.982 90.6283 286.713C91.2916 287.444 91.7341 286.81 92.2989 287.956C92.8647 289.101 93.4418 289.162 92.8329 289.485C92.2235 289.807 91.9919 289.976 91.9919 289.976L89.1902 287.192Z" fill="#EF45B7"/>
<path d="M88.218 286.527C88.218 286.527 89.3857 285.264 89.6665 284.917C90.1933 284.268 91.9146 283.546 92.1377 283.323C92.3604 283.099 92.6294 282.902 92.5957 283.527C92.56 284.152 91.1604 284.973 90.4788 285.404C89.7977 285.834 89.4832 286.87 89.3186 287.063C89.1536 287.255 89.0397 286.629 89.0397 286.629L88.218 286.527Z" fill="#996234"/>
<path d="M91.973 290.412C91.973 290.412 93.6483 289.499 93.9947 289.217C94.6439 288.688 95.3616 286.969 95.5843 286.746C95.8069 286.523 96.0052 286.255 95.3785 286.292C94.7527 286.328 93.9338 287.726 93.5044 288.407C93.0755 289.089 91.8483 289.105 91.6552 289.271C91.464 289.437 92.2819 289.848 92.2819 289.848L91.973 290.412Z" fill="#996234"/>
<path d="M87.6769 285.99C87.6769 285.99 86.401 287.724 87.031 288.958C87.661 290.192 87.8785 290.619 89.0799 291.09C90.2813 291.562 90.5274 292.204 91.2178 291.385C91.9088 290.566 92.8069 290.68 92.1975 289.838C91.5417 288.932 89.5796 286.697 89.4511 286.535C88.6627 285.543 87.6769 285.99 87.6769 285.99Z" fill="#8BC7E8"/>
<path d="M88.147 290.065C88.147 290.065 87.3815 289.14 88.2065 288.569C89.0296 287.997 88.9124 287.372 89.7299 287.75C90.5474 288.126 91.4273 287.839 91.1099 288.685C90.7916 289.53 90.674 290.029 90.074 290.248C89.4735 290.469 89.414 290.608 88.912 290.628C88.4099 290.646 88.147 290.065 88.147 290.065Z" fill="#301705"/>
<rect x="315.138" y="15.9844" width="44.0746" height="25" rx="12.5" fill="#969696" fill-opacity="0.3"/>
<path d="M329.178 26.2207C329.178 26.7357 329.028 27.1982 328.727 27.6084C328.426 28.014 328.03 28.3125 327.538 28.5039C328.112 28.6999 328.572 29.0166 328.918 29.4541C329.265 29.8916 329.438 30.3975 329.438 30.9717C329.438 31.8239 329.149 32.5007 328.57 33.002C327.991 33.4987 327.225 33.7471 326.273 33.7471C325.311 33.7471 324.541 33.4987 323.962 33.002C323.388 32.5052 323.101 31.8285 323.101 30.9717C323.101 30.4066 323.267 29.903 323.6 29.4609C323.933 29.0189 324.389 28.6999 324.967 28.5039C324.475 28.3125 324.083 28.014 323.792 27.6084C323.5 27.1982 323.354 26.7357 323.354 26.2207C323.354 25.3958 323.618 24.7396 324.147 24.252C324.68 23.7643 325.384 23.5205 326.259 23.5205C327.134 23.5205 327.838 23.7666 328.372 24.2588C328.909 24.751 329.178 25.4049 329.178 26.2207ZM328.618 30.9785C328.618 30.3587 328.397 29.8506 327.955 29.4541C327.513 29.0531 326.947 28.8525 326.259 28.8525C325.571 28.8525 325.008 29.0485 324.571 29.4404C324.133 29.8324 323.915 30.3451 323.915 30.9785C323.915 31.612 324.126 32.1178 324.55 32.4961C324.974 32.8698 325.548 33.0566 326.273 33.0566C326.979 33.0566 327.547 32.8698 327.975 32.4961C328.403 32.1224 328.618 31.6165 328.618 30.9785ZM328.358 26.2139C328.358 25.6442 328.16 25.1702 327.763 24.792C327.371 24.4092 326.87 24.2178 326.259 24.2178C325.639 24.2178 325.136 24.4023 324.749 24.7715C324.366 25.1361 324.174 25.6169 324.174 26.2139C324.174 26.7972 324.366 27.2666 324.749 27.6221C325.136 27.9775 325.642 28.1553 326.266 28.1553C326.881 28.1553 327.383 27.9775 327.77 27.6221C328.162 27.262 328.358 26.7926 328.358 26.2139ZM331.092 34.4648H330.347L334.503 23.6572H335.242L331.092 34.4648ZM340.451 33.6104H339.63V24.6416L336.923 25.6465V24.8809L340.314 23.623H340.451V33.6104ZM348.216 33.6104H347.396V24.6416L344.689 25.6465V24.8809L348.08 23.623H348.216V33.6104Z" fill="black"/>
</g>
<defs>
<linearGradient id="paint0_linear" x1="284.978" y1="96.8378" x2="350.391" y2="30.9899" gradientUnits="userSpaceOnUse">
<stop stop-color="white" stop-opacity="0.8"/>
<stop offset="0.9306" stop-color="white" stop-opacity="0"/>
</linearGradient>
<linearGradient id="paint1_linear" x1="285.094" y1="96.952" x2="350.507" y2="31.1044" gradientUnits="userSpaceOnUse">
<stop stop-color="white" stop-opacity="0.8"/>
<stop offset="1" stop-color="white" stop-opacity="0"/>
</linearGradient>
<linearGradient id="paint2_linear" x1="91.103" y1="289.674" x2="25.6906" y2="355.522" gradientUnits="userSpaceOnUse">
<stop stop-color="white" stop-opacity="0.8"/>
<stop offset="0.9306" stop-color="white" stop-opacity="0"/>
</linearGradient>
<linearGradient id="paint3_linear" x1="90.9866" y1="289.559" x2="25.5743" y2="355.407" gradientUnits="userSpaceOnUse">
<stop stop-color="white" stop-opacity="0.8"/>
<stop offset="1" stop-color="white" stop-opacity="0"/>
</linearGradient>
<clipPath id="clip0">
<rect width="375" height="374" fill="white" transform="translate(0.137695 0.984375)"/>
</clipPath>
</defs>
</svg>
