<svg width="376" height="376" viewBox="0 0 376 376" fill="none" xmlns="http://www.w3.org/2000/svg">
<g clip-path="url(#clip0)">
<path d="M390.606 -0.421875H-3.14355V394.734H390.606V-0.421875Z" fill="#8BF6FF"/>
<path d="M189.403 239.212C189.403 239.196 189.404 239.181 189.404 239.166H189.426L189.403 239.212Z" fill="#F80606"/>
<path d="M182.382 239.166H182.382C182.382 239.181 182.382 239.196 182.382 239.212V239.166Z" fill="#F80606"/>
<path d="M230.286 183.324C257.758 179.456 275.455 159.891 275.557 132.235H270.567L278.886 120.117L287.207 132.235H282.794V132.704H282.687C282.283 164.11 261.354 184.674 230.286 189.852C207.179 193.703 189.425 211.454 189.404 239.11H182.383C182.404 207.235 204.267 186.988 230.286 183.324Z" fill="#F80606"/>
<path d="M217.274 365.117C216.757 361.712 218.954 352.978 218.091 347.018C217.228 341.057 213.298 335.181 212.266 329.938C211.235 324.695 212.589 320.593 211.384 314.294C210.18 307.994 205.914 304.249 204.713 299.822C203.513 295.395 203.119 287.311 200.491 284.118C197.863 280.925 183.469 282.191 183.469 282.191C183.469 282.191 172.485 281.694 170.459 284.175C167.843 287.379 167.481 295.465 166.297 299.896C165.113 304.327 160.862 308.088 159.682 314.393C158.502 320.698 159.872 324.794 158.861 330.041C157.849 335.288 153.942 341.18 153.102 347.143C152.262 353.107 154.493 361.831 153.988 365.239C153.484 368.647 150.94 374.188 150.099 379.981L184.508 379.914L186.812 379.91L221.22 379.844C220.357 374.055 217.791 368.524 217.274 365.117Z" fill="url(#paint0_linear)"/>
<path opacity="0.5" d="M206.713 365.139C206.195 361.732 208.392 352.999 207.529 347.038C206.666 341.078 202.736 335.201 201.705 329.959C200.672 324.715 202.027 320.614 200.823 314.314C199.618 308.013 195.352 304.269 194.152 299.843C192.951 295.416 192.557 287.332 189.93 284.138C187.302 280.945 184.831 282.189 184.831 282.189C184.831 282.189 182.704 281.675 180.679 284.156C178.063 287.359 177.701 295.446 176.518 299.876C175.334 304.308 171.083 308.069 169.902 314.374C168.722 320.678 170.093 324.774 169.081 330.022C168.068 335.268 164.162 341.16 163.322 347.123C162.482 353.087 164.713 361.812 164.209 365.219C163.704 368.628 161.16 374.169 160.32 379.961L185.871 379.913L188.174 379.908L210.66 379.865C209.796 374.075 207.23 368.544 206.713 365.139Z" fill="url(#paint1_linear)"/>
<path d="M171.383 307.273L199.697 307.219L200.154 273.492C200.154 273.492 202.713 245.531 185.355 235.968C168.603 245.216 170.557 272.847 170.557 272.847L171.383 307.273Z" fill="#D1D1D1"/>
<path d="M185.27 243.269C185.27 243.269 197.529 242.773 198.004 267.208C198.478 291.643 196.791 294.243 196.791 294.243L174.017 294.287L172.936 286.869L172.896 265.861C172.896 265.86 173.592 244.035 185.27 243.269Z" fill="#F4F4F4"/>
<path d="M185.415 243.119C175.94 242.958 172.963 255.076 172.225 266.518L172.575 285.472L173.076 299.153L180.443 300.849L181.628 299.433L189.514 299.454C189.514 299.454 190.513 300.64 190.752 300.639C192.09 300.637 197.971 299.01 197.971 299.01C197.971 299.01 198.163 289.72 198.253 285.539C198.256 285.398 198.758 266.702 198.75 266.467C198.324 255.049 195.718 243.295 185.415 243.119ZM197.824 285.138C197.872 285.446 196.637 298.109 196.637 298.109C196.637 298.109 191.717 299.03 190.454 299.032C190.23 299.033 189.287 297.9 189.287 297.9L181.841 297.88L180.723 299.233L174.168 298.153L173.05 285.202C172.871 273.959 173.09 273.801 173.014 266.516C173.858 255.354 177.246 243.491 185.543 243.689C193.788 243.887 197.152 255.438 197.907 266.468C197.903 266.896 197.728 284.948 197.824 285.138Z" fill="#E8E8E8"/>
<path d="M185.561 265.641L185.565 265.526L181.789 266.097L180.251 267.68C179.397 268.299 179.239 271.41 179.239 271.41L179.25 277.182L179.849 278.44L184.067 277.696L185.604 275.312L185.575 273.333L185.561 265.641Z" fill="white"/>
<path d="M185.483 265.642L185.565 265.526L189.124 266.083L190.64 267.659C191.496 268.275 191.637 271.386 191.637 271.386L191.649 277.158L191.111 278.418L186.92 277.69L185.427 275.312L185.495 273.333L185.483 265.642Z" fill="white"/>
<path d="M191.084 275.682C191.072 275.505 189.392 272.879 189.392 272.879L181.783 272.813L179.88 275.529L179.881 275.91L179.882 276.099L179.882 276.289L179.886 278.445L191.089 278.424C191.089 278.424 191.096 275.861 191.084 275.682Z" fill="#C6C6C6"/>
<path d="M189.644 311.462C189.642 312.024 189.185 312.479 188.622 312.477L182.696 312.457C182.134 312.454 181.679 311.997 181.681 311.434L181.712 302.33C181.715 301.768 182.172 301.313 182.734 301.315L188.66 301.337C189.223 301.338 189.677 301.796 189.675 302.358L189.644 311.462Z" fill="#394963"/>
<path d="M189.903 270.511L186.063 270.518L184.599 270.522L181.138 270.529C181.138 270.529 180.032 272.079 179.858 275.916C179.857 275.938 180.057 275.957 180.057 275.957C180.559 275.247 181.682 273.339 181.682 273.339L185.336 273.314L189.37 273.329C189.37 273.329 190.499 275.241 191.006 275.949C191.006 275.949 191.205 275.916 191.204 275.894C191.015 272.057 189.903 270.511 189.903 270.511Z" fill="#29ABE2"/>
<path d="M181.325 277.54C181.328 279.083 186.417 279.185 186.413 277.515C186.411 276.049 181.322 275.921 181.325 277.54ZM181.768 277.521C181.766 276.418 185.969 276.504 185.97 277.504C185.973 278.642 181.77 278.574 181.768 277.521Z" fill="black"/>
<path d="M183.23 276.674C183.23 276.674 183.243 277.156 183.818 277.148C184.394 277.141 184.316 276.714 184.328 276.672C184.34 276.631 183.23 276.674 183.23 276.674Z" fill="black"/>
<path d="M183.635 277.17L183.488 278.437L184.248 278.436L184.044 277.17L183.635 277.17Z" fill="black"/>
<path d="M184.15 276.815C184.162 276.815 186.01 277.618 186.01 277.618L186.081 277.144L184.209 276.589L184.15 276.815Z" fill="black"/>
<path d="M183.379 276.815C183.366 276.816 181.468 277.627 181.468 277.627L181.467 277.152L183.266 276.59L183.379 276.815Z" fill="black"/>
<path d="M197.909 266.468C197.909 266.468 191.685 266.528 190.295 259.927C188.905 253.326 188.08 244.254 187.984 244.064C187.889 243.875 197.204 246.137 197.909 266.468Z" fill="#E8CDA0"/>
<path d="M173.014 266.517C173.014 266.517 179.237 266.552 180.602 259.946C181.967 253.34 182.758 244.264 182.852 244.075C182.947 243.884 173.64 246.183 173.014 266.517Z" fill="#E8CDA0"/>
<path d="M173.54 292.406C173.54 292.406 173.081 290.876 174.583 291.406C179.527 293.154 191.167 293.513 196.387 291.27C197.482 290.8 197.467 291.076 197.434 291.814C197.41 292.368 196.638 298.11 196.638 298.11C196.638 298.11 187.714 301.547 174.168 298.154L173.54 292.406Z" fill="#E8CDA0"/>
<path d="M191.297 285.575C191.298 285.893 190.962 286.023 190.523 286.023L180.5 286.043C180.06 286.044 179.584 285.915 179.583 285.599L179.577 282.255C179.576 281.939 180.051 281.611 180.491 281.611L190.514 281.592C190.954 281.59 191.291 281.915 191.292 282.233L191.297 285.575Z" fill="#E8CDA0"/>
<path d="M181.699 279.229C181.699 279.229 182.239 278.555 182.494 279.626C182.748 280.698 183.243 281.768 183.243 281.768C183.243 281.768 184.395 281.432 184.551 281.116C184.707 280.801 184.573 279.364 185.571 279.001C186.57 278.639 187.021 278.411 186.598 279.922C186.174 281.433 186.021 282.5 186.021 282.5L181.865 283.433L181.699 279.466" fill="#996234"/>
<path d="M182.23 282.828C182.23 282.828 180.712 280.583 181.519 280.664C182.328 280.745 181.909 281.365 182.935 281.417C183.962 281.469 183.82 280.676 185.081 281.105C186.341 281.533 186.81 281.154 186.6 281.839C186.39 282.525 186.344 282.82 186.344 282.82L182.23 282.828Z" fill="#EF45B7"/>
<path d="M181.026 283.053C181.026 283.053 180.953 281.262 180.904 280.799C180.812 279.933 181.546 278.135 181.545 277.806C181.544 277.478 181.596 277.133 182.032 277.62C182.466 278.106 182.043 279.741 181.859 280.56C181.675 281.378 182.208 282.373 182.229 282.636C182.249 282.9 181.704 282.522 181.704 282.522L181.026 283.053Z" fill="#996234"/>
<path d="M186.651 283.156C186.651 283.156 187.21 281.25 187.258 280.788C187.346 279.92 186.605 278.125 186.605 277.797C186.604 277.469 186.552 277.124 186.118 277.612C185.684 278.1 186.114 279.733 186.3 280.552C186.487 281.37 185.597 282.284 185.577 282.548C185.558 282.811 186.463 282.513 186.463 282.513L186.651 283.156Z" fill="#996234"/>
<path d="M180.233 283.055C180.233 283.055 180.573 285.272 181.946 285.718C183.319 286.164 183.794 286.319 185.025 285.784C186.256 285.248 186.91 285.54 186.814 284.428C186.719 283.317 187.463 282.739 186.395 282.567C185.244 282.382 182.152 282.177 181.939 282.152C180.628 282 180.233 283.055 180.233 283.055Z" fill="#8BC7E8"/>
<path d="M183.583 285.714C183.583 285.714 182.337 285.594 182.522 284.566C182.706 283.54 182.16 283.165 183.039 282.842C183.918 282.519 184.353 281.66 184.743 282.517C185.132 283.374 185.414 283.828 185.134 284.432C184.855 285.036 184.914 285.183 184.559 285.566C184.204 285.948 183.583 285.714 183.583 285.714Z" fill="#301705"/>
<g opacity="0.7">
<path opacity="0.7" d="M324.539 27.1562C313.512 30.6119 300.807 28.1097 290.408 31.802C279.013 35.8478 268.888 43.0347 259.642 46.2564C251.107 49.2302 242.351 46.0309 231.248 49.8859C219.357 54.0147 212.373 58.6366 204.698 62.0584C197.013 65.4841 182.897 64.4298 175.438 67.8484C168.55 71.005 136.864 99.7956 136.864 99.7956C136.864 99.7956 167.364 123.819 173.959 126.362C181.028 129.09 194.606 129.785 202.721 131.97C210.836 134.155 219.678 142.439 231.227 144.624C242.776 146.808 249.694 146.38 259.305 148.253C268.916 150.126 280.288 157.895 291.213 159.456C302.137 161.017 318.295 160.505 324.539 161.442C330.782 162.377 340.45 169.423 351.7 170.984V99.3653V95.1433V13.1758C339.513 17.8797 330.884 25.1683 324.539 27.1562Z" fill="url(#paint2_linear)"/>
<path opacity="0.5" d="M324.539 46.5088C318.296 47.4448 303.721 46.1619 293.433 50.1528C282.047 54.5698 274.232 61.64 264.997 64.8931C255.28 68.3155 242.797 67.0527 231.248 69.2375C219.699 71.4224 212.812 79.2256 204.697 81.4105C196.582 83.5953 181.761 84.2877 175.901 89.0914C170.042 93.8952 172.308 98.4275 172.308 98.4275C172.308 98.4275 171.358 102.321 175.897 106.042C181.757 110.846 196.572 111.538 204.687 113.723C212.802 115.908 219.678 123.711 231.226 125.896C242.776 128.081 249.694 127.652 259.305 129.525C268.916 131.398 280.288 139.168 291.212 140.728C302.137 142.289 318.295 141.777 324.539 142.714C330.781 143.65 340.45 150.696 351.7 152.257V96.8684V92.6464V38.1875C340.45 39.748 330.781 45.5722 324.539 46.5088Z" fill="url(#paint3_linear)"/>
</g>
<path d="M207.867 116.179V78.7229L163.252 78.0319C163.252 78.0319 126.27 74.5763 113.575 97.5137C125.767 119.697 162.324 117.184 162.324 117.184L207.867 116.179Z" fill="#D1D1D1"/>
<path d="M123.036 97.4512C122.797 109.985 138.821 113.954 153.955 114.96L179.03 114.546L197.129 113.917L199.391 104.176L197.522 102.604L197.569 92.1726C197.569 92.1726 199.141 90.8531 199.141 90.539C199.141 88.7685 197.004 80.985 197.004 80.985C197.004 80.985 184.715 80.707 179.185 80.5767C178.997 80.5725 154.266 79.8609 153.955 79.8712C138.85 80.4051 123.295 83.8223 123.036 97.4512ZM178.653 81.1439C179.062 81.0801 195.809 82.7456 195.809 82.7456C195.809 82.7456 197.015 89.257 197.015 90.9281C197.015 91.2248 195.513 92.4698 195.513 92.4698L195.468 102.319L197.255 103.802L195.81 112.471L178.675 113.917C163.801 114.126 163.592 113.834 153.956 113.917C139.192 112.771 123.507 108.26 123.791 97.2839C124.073 86.3765 139.362 81.9562 153.956 80.985C154.521 80.9934 178.402 81.2695 178.653 81.1439Z" fill="#E8E8E8"/>
<path d="M149.697 88.0458L146.819 90.7753L145.793 97.245L146.819 104.12L149.697 107.168C150.822 108.727 156.491 109.266 156.491 109.266H167.009L169.302 107.933L167.961 100.125L163.877 97.4189L167.961 94.8356L169.302 87.2414L167.009 86.2969H156.491C156.491 86.2969 150.822 86.4886 149.697 88.0458Z" fill="#E5E5E5"/>
<path d="M164.318 87.211C163.994 87.2325 159.203 90.2846 159.203 90.2846L159.057 104.147L163.998 107.624H164.692H165.038H165.384H169.313V87.211C169.313 87.211 164.644 87.1889 164.318 87.211Z" fill="#C6C6C6"/>
<path d="M154.89 89.3454V96.342V99.011V105.315C154.89 105.315 157.711 107.336 164.702 107.666C164.743 107.669 164.777 107.306 164.777 107.306C163.485 106.387 160.013 104.334 160.013 104.334L159.981 97.676L160.023 90.3265C160.023 90.3265 163.51 88.2748 164.801 87.3556C164.801 87.3556 164.742 86.9913 164.702 86.9942C157.711 87.3251 154.89 89.3454 154.89 89.3454Z" fill="#2C7D99"/>
<rect x="315.138" y="15.9844" width="44.0746" height="25" rx="12.5" fill="#969696" fill-opacity="0.3"/>
<path d="M328.419 29.0029C328.128 29.4313 327.765 29.764 327.332 30.001C326.899 30.2334 326.43 30.3496 325.924 30.3496C325.359 30.3496 324.86 30.2038 324.427 29.9121C323.994 29.6204 323.659 29.2171 323.422 28.7021C323.185 28.1872 323.067 27.6243 323.067 27.0137C323.067 26.3574 323.192 25.7604 323.443 25.2227C323.698 24.6849 324.051 24.2679 324.502 23.9717C324.958 23.6709 325.482 23.5205 326.075 23.5205C327.073 23.5205 327.85 23.8714 328.406 24.5732C328.962 25.2705 329.24 26.2617 329.24 27.5469V28.2852C329.24 30.0807 328.857 31.4297 328.091 32.332C327.326 33.2344 326.157 33.6855 324.584 33.6855H324.434L324.441 32.9746H324.728C325.917 32.9564 326.822 32.6191 327.442 31.9629C328.062 31.3066 328.387 30.32 328.419 29.0029ZM326.027 29.6455C326.574 29.6455 327.064 29.4837 327.496 29.1602C327.934 28.832 328.244 28.4082 328.426 27.8887V27.417C328.426 26.4053 328.214 25.6214 327.79 25.0654C327.371 24.5049 326.804 24.2246 326.088 24.2246C325.441 24.2246 324.91 24.4867 324.495 25.0107C324.081 25.5303 323.873 26.1865 323.873 26.9795C323.873 27.7406 324.072 28.3763 324.468 28.8867C324.869 29.3926 325.389 29.6455 326.027 29.6455ZM331.092 34.4648H330.347L334.503 23.6572H335.242L331.092 34.4648ZM340.451 33.6104H339.63V24.6416L336.923 25.6465V24.8809L340.314 23.623H340.451V33.6104ZM348.216 33.6104H347.396V24.6416L344.689 25.6465V24.8809L348.079 23.623H348.216V33.6104Z" fill="black"/>
</g>
<defs>
<linearGradient id="paint0_linear" x1="185.476" y1="283.251" x2="185.66" y2="379.914" gradientUnits="userSpaceOnUse">
<stop stop-color="white" stop-opacity="0.8"/>
<stop offset="0.9306" stop-color="white" stop-opacity="0"/>
</linearGradient>
<linearGradient id="paint1_linear" x1="185.306" y1="283.252" x2="185.489" y2="379.915" gradientUnits="userSpaceOnUse">
<stop stop-color="white" stop-opacity="0.8"/>
<stop offset="1" stop-color="white" stop-opacity="0"/>
</linearGradient>
<linearGradient id="paint2_linear" x1="139.714" y1="92.0802" x2="351.7" y2="92.0802" gradientUnits="userSpaceOnUse">
<stop stop-color="white" stop-opacity="0.8"/>
<stop offset="0.9306" stop-color="white" stop-opacity="0"/>
</linearGradient>
<linearGradient id="paint3_linear" x1="174.263" y1="95.2227" x2="351.7" y2="95.2227" gradientUnits="userSpaceOnUse">
<stop stop-color="white" stop-opacity="0.8"/>
<stop offset="1" stop-color="white" stop-opacity="0"/>
</linearGradient>
<clipPath id="clip0">
<rect width="375" height="375" fill="white" transform="translate(0.137695 0.984375)"/>
</clipPath>
</defs>
</svg>
