<svg width="376" height="376" viewBox="0 0 376 376" fill="none" xmlns="http://www.w3.org/2000/svg">
<g clip-path="url(#clip0)">
<path d="M380.763 -3.23438H-3.14355V382.547H380.763V-3.23438Z" fill="#72B4CE"/>
<path d="M69.6317 331.31C69.3931 331.37 68.6857 333.058 68.9773 334.364C69.2693 335.667 70.0803 338.682 70.5003 339.168C70.9212 339.654 71.4589 340.531 71.4589 340.531C71.4589 340.531 69.7174 341.551 69.4568 342.185C69.4568 342.185 69.4667 342.441 69.6823 342.398C69.8979 342.355 71.7889 342.184 71.8854 342.392C71.9829 342.602 72.1953 343.699 72.229 343.844C72.2637 343.987 72.2074 344.64 72.1882 344.875C72.1807 344.973 71.6332 345.929 71.7476 346.136C71.8634 346.344 72.6499 346.322 73.0878 346.297C73.5256 346.27 75.8056 344.62 76.1206 344.32C76.4365 344.02 76.4009 340.535 76.4009 340.535C76.4009 340.535 75.5707 336.007 75.7334 335.993C75.8965 335.978 76.9817 335.495 77.321 335.07C77.6604 334.648 77.457 332.667 77.2779 332.356C77.097 332.048 73.2068 330.42 69.6317 331.31Z" fill="#36627A"/>
<path d="M71.8761 343.806C71.8761 343.806 72.252 343.715 72.2755 343.76C72.2989 343.808 72.3866 343.935 72.3781 344.188C72.3688 344.442 72.4785 344.76 72.2797 344.791C72.081 344.822 71.9436 344.829 71.9436 344.829C71.9436 344.829 71.6408 345.66 71.1374 345.928C70.6344 346.195 70.2866 346.123 70.5899 345.786C70.8927 345.45 71.4711 345.047 71.4092 344.916C71.3483 344.786 70.3606 344.958 70.3606 344.958L70.34 344.155C70.34 344.155 71.0966 344.053 71.1345 344.066C71.173 344.079 71.4509 343.856 71.2306 343.771C71.0099 343.683 70.0784 343.814 70.2153 343.478C70.3527 343.14 70.3166 343.145 70.6681 343.088C71.0202 343.03 71.4786 343.188 71.6881 343.424C71.8967 343.66 71.8761 343.806 71.8761 343.806Z" fill="#6C808C"/>
<path d="M92.314 340.486L92.6018 340.698C92.6534 340.702 96.5135 340.781 102.615 340.557C103.672 340.519 104.786 340.343 105.926 340.269C113.028 339.81 122.899 339.263 130.107 335.463C130.088 335.481 130.071 335.499 130.053 335.518C129.809 335.762 129.566 336.017 129.309 336.289C127.683 338.011 125.661 340.15 120.307 341.922C119.074 342.33 117.748 342.547 116.13 342.606C114.744 342.656 113.32 342.672 111.81 342.596C110.118 342.672 108.717 342.61 106.89 342.678C106.609 342.688 105.216 342.665 104.857 342.677C97.7412 342.937 75.9809 342.14 75.079 342.116L73.1665 337.731L88.8729 337.702L92.314 340.486Z" fill="white" stroke="white" stroke-miterlimit="10"/>
<path d="M92.0359 341.028L88.3562 338.17L73.3445 337.864C77.9354 336.565 86.8009 334.866 99.97 333.572C109.431 332.643 117.434 332.26 121.115 332.313C127.809 332.409 132.223 332.025 133.361 331.867C133.172 331.997 132.894 332.2 132.726 332.367C132.599 332.493 132.489 332.662 132.336 332.896C132.028 333.369 131.555 334.054 130.494 335.13L130.387 335.236C123.183 339.075 113.279 340.491 106.146 340.953C98.5918 341.443 92.357 341.05 92.0359 341.028Z" fill="#FF0000"/>
<path d="M99.962 328.852C99.8935 328.725 99.8387 328.629 99.7956 328.558C99.7736 328.523 99.7543 328.493 99.7375 328.468C99.6535 328.344 99.6278 328.345 99.6114 328.345L99.5668 328.374C99.5467 328.417 99.5242 328.462 99.4984 328.506C99.481 328.537 99.4628 328.569 99.4426 328.602C99.4328 328.618 99.4229 328.635 99.4131 328.651C99.1393 329.081 98.6771 329.593 98.386 329.526C98.2468 329.497 98.1615 329.404 98.1226 329.25C98.117 329.232 98.1142 329.213 98.1114 329.193C98.1085 329.173 98.1053 329.153 98.1048 329.131C98.0664 328.575 98.5234 327.465 99.1501 326.745C99.2471 326.634 99.3479 326.532 99.4511 326.443C99.5092 326.394 99.5743 326.342 99.6437 326.298C99.7553 326.23 99.8771 326.178 99.992 326.18C100.036 326.18 100.078 326.19 100.119 326.206C100.185 326.234 100.229 326.281 100.255 326.353C100.272 326.4 100.28 326.455 100.282 326.514C100.293 326.933 99.962 327.578 99.9578 327.585L99.9329 327.633L100.517 327.779L99.962 328.852ZM99.9587 326.792C99.9545 326.728 99.9371 326.676 99.8996 326.644C99.8926 326.635 99.8846 326.631 99.8757 326.625C99.8537 326.611 99.8279 326.605 99.8012 326.606C99.782 326.607 99.7623 326.612 99.7393 326.62C99.586 326.681 99.3718 326.929 99.1581 327.248L99.1482 327.236L99.1375 327.226L98.9532 327.574C98.8614 327.729 98.7737 327.892 98.6964 328.048C98.5675 328.309 98.4657 328.556 98.416 328.741C98.3879 328.848 98.3771 328.931 98.3832 328.995C98.3846 329.011 98.3879 329.026 98.3907 329.039C98.401 329.08 98.4212 329.108 98.4507 329.127C98.4634 329.135 98.4784 329.138 98.4934 329.137C98.6706 329.131 99.2181 328.417 99.4435 328.07C99.452 328.057 99.4595 328.043 99.467 328.032C99.4815 328.009 99.4951 327.987 99.505 327.968C99.5162 327.95 99.5246 327.934 99.5303 327.92C99.5373 327.909 99.5448 327.894 99.5556 327.877C99.5654 327.86 99.5762 327.841 99.5879 327.819C99.7192 327.577 99.9756 327.072 99.9587 326.792Z" fill="black"/>
<path d="M105.344 326.686C105.117 326.726 104.318 326.886 103.625 327.043C103.581 327.053 103.538 327.063 103.495 327.073C103.472 327.078 103.45 327.083 103.427 327.088C103.332 327.111 103.241 327.134 103.154 327.157C103.126 327.164 103.1 327.171 103.074 327.178C103.008 327.196 102.947 327.214 102.888 327.232C102.865 327.239 102.842 327.246 102.82 327.253C102.815 327.254 102.81 327.256 102.801 327.258C102.589 327.314 101.471 327.657 101.3 327.979C101.294 327.99 101.055 329.95 101.014 330.497L100.135 330.507L99.8552 329.81L99.9213 328.888L101.46 325.59L101.603 325.534L101.747 325.478L102.089 323.137C102.109 323.137 102.138 323.135 102.174 323.134C102.423 323.125 103.253 323.102 103.495 323.183C103.695 323.252 104.732 325.333 105.344 326.686Z" fill="#3FA9F5"/>
<path d="M99.5279 327.679C99.5321 327.678 99.5349 327.677 99.5377 327.677C99.5466 327.674 99.5527 327.668 99.5588 327.664C99.5199 327.739 99.4801 327.811 99.4412 327.878C99.4201 327.925 99.3774 327.995 99.323 328.079C99.3132 328.057 99.3085 328.033 99.3076 328.011C99.3062 327.976 99.3122 327.946 99.3122 327.944L99.3226 327.899L98.9138 327.83L99.0727 327.527C99.1037 327.478 99.1351 327.428 99.1669 327.381C99.4238 327.656 99.4983 327.68 99.5279 327.679Z" fill="black"/>
<path d="M99.5551 327.874C99.5452 327.891 99.5373 327.904 99.5302 327.917C99.5246 327.93 99.5167 327.946 99.5049 327.965C99.4946 327.984 99.481 328.005 99.4674 328.03C99.459 328.04 99.452 328.054 99.4435 328.067C99.2185 328.413 98.671 329.13 98.4934 329.135C98.4784 329.136 98.4634 329.132 98.4512 329.125C98.4212 329.107 98.4015 329.076 98.3912 329.037C98.3874 329.025 98.3846 329.008 98.3832 328.993C98.3776 328.929 98.3893 328.846 98.416 328.739C98.4652 328.554 98.567 328.307 98.6973 328.046C98.7742 327.889 98.8632 327.727 98.9537 327.571L99.1379 327.222L99.1482 327.234L99.159 327.244C99.3723 326.927 99.5865 326.68 99.7398 326.616C99.7618 326.607 99.782 326.604 99.8012 326.604C99.8298 326.603 99.8542 326.609 99.8757 326.622C99.8851 326.628 99.8931 326.633 99.9006 326.641C99.9371 326.674 99.9545 326.728 99.9587 326.79C99.9746 327.07 99.7192 327.575 99.587 327.814C99.5752 327.838 99.5649 327.857 99.5551 327.874ZM98.4924 328.761C98.4334 328.985 98.4634 329.038 98.476 329.048C98.6171 329.017 99.0268 328.511 99.2696 328.157C99.2209 328.097 99.2171 328.019 99.2213 327.971L98.8543 327.907C98.6921 328.211 98.5552 328.519 98.4924 328.761ZM99.0737 327.528L98.9143 327.831L99.3226 327.9L99.3127 327.945C99.3123 327.946 99.3057 327.975 99.3076 328.012C99.3085 328.034 99.3137 328.058 99.3231 328.08C99.3774 327.996 99.4196 327.926 99.4412 327.879C99.4796 327.811 99.5195 327.739 99.5588 327.665C99.5523 327.671 99.5457 327.675 99.5373 327.677C99.5345 327.678 99.5321 327.679 99.5274 327.679C99.4984 327.681 99.4238 327.657 99.166 327.381C99.1356 327.429 99.1046 327.478 99.0737 327.528ZM99.8312 326.697C99.8246 326.692 99.8148 326.69 99.804 326.691C99.684 326.695 99.4538 326.956 99.2148 327.308C99.3273 327.428 99.4529 327.549 99.5068 327.584C99.5345 327.538 99.5898 327.519 99.6348 327.512C99.8152 327.145 99.9479 326.769 99.8312 326.697Z" fill="black"/>
<path d="M102.29 332.865C90.7544 333.843 78.9344 335.905 73.1842 337.256L73.1003 335.927L73.8217 335.449L77.0528 335.388L77.0603 335.384L78.3794 334.841L78.3353 332.08L80.7274 331.405L85.8874 331.201L86.1414 330.691L90.5046 330.29L90.5172 329.847L91.4233 329.72L91.3385 329.658C91.3371 329.657 91.2067 329.56 91.2053 329.436C91.2049 329.364 91.248 329.292 91.3352 329.227C91.3999 329.178 91.5925 329.115 92.141 329.095C92.6453 329.077 93.2622 329.102 93.7132 329.118C93.9358 329.127 94.1116 329.133 94.2138 329.132C94.5203 329.13 94.8686 329.35 95.0632 329.553C95.1822 329.678 95.2474 329.802 95.2422 329.894C95.2253 330.18 95.1817 330.255 94.9778 330.299L94.9938 330.396L98.0027 330.012L99.8603 329.793L100.141 330.488L100.947 330.459L100.947 330.312C100.95 330.291 101.171 328.172 101.27 327.846C101.348 327.593 102.431 327.261 102.842 327.155C103.563 326.923 105.079 326.654 105.358 326.606L105.363 326.615L105.393 326.611C105.394 326.611 105.453 326.604 105.536 326.601C105.769 326.591 105.941 326.625 106.019 326.69C106.105 326.763 106.111 326.916 106.117 327.065C106.122 327.192 106.127 327.312 106.178 327.401C106.285 327.581 107.184 328.983 107.223 329.043L107.236 329.062L107.258 329.063C107.383 329.066 119.706 329.345 122.462 329.581C122.675 329.599 122.919 329.615 123.185 329.643C127.358 330.078 133.224 331.068 133.224 331.068C133.337 331.066 133.429 331.14 133.51 331.155C132.454 331.903 128.06 331.698 126.347 331.798C124.634 331.901 117.691 331.558 102.29 332.865Z" fill="white"/>
<path d="M133.87 331.385C133.889 331.493 133.78 331.609 133.595 331.669C133.589 331.671 133.529 331.719 133.361 331.865C132.609 331.975 128.014 332.574 120.891 332.472C117.206 332.42 109.252 332.782 99.7881 333.712C86.304 335.036 78.0133 336.67 73.4308 337.805L73.2301 337.855C72.8472 337.864 72.7098 337.829 72.692 337.809C72.6854 337.798 72.6789 337.785 72.67 337.775C72.6489 337.748 72.6409 337.735 72.6451 337.713C72.6569 337.637 72.8275 337.489 73.1551 337.266L73.1865 337.253V337.249C78.9573 335.896 90.8509 333.687 102.386 332.707C117.787 331.402 124.703 331.783 126.416 331.683C128.129 331.584 132.334 331.616 133.509 331.154C133.75 331.199 133.856 331.297 133.87 331.385Z" fill="white"/>
<path d="M94.15 329.943C94.3938 329.962 94.3399 330.29 94.7739 330.414C95.2075 330.538 95.2483 330.258 95.2788 330.002C95.3144 329.7 94.7706 329.057 94.3042 329.051C93.8374 329.043 92.1072 328.924 91.525 329.068C90.73 329.265 91.1861 329.761 91.1861 329.761C91.3928 329.786 93.9072 329.923 94.15 329.943Z" fill="#C99B59"/>
<path d="M331.544 53.0156H324.981V61.4531H331.544V53.0156Z" fill="#2A2A47"/>
<path d="M73.2627 59.5781H66.7002V70.3594H73.2627V59.5781Z" fill="#E5D0B3" stroke="#F9EACA" stroke-width="2" stroke-miterlimit="10"/>
<path d="M84.5127 14.5781V24.4219" stroke="#F9EACA" stroke-width="2" stroke-miterlimit="10"/>
<path d="M82.1689 14.5781H87.7939" stroke="#F9EACA" stroke-width="2" stroke-miterlimit="10"/>
<path d="M77.0127 21.1406V30.9844" stroke="#F9EACA" stroke-width="2" stroke-miterlimit="10"/>
<path d="M75.6064 21.1406V30.9844" stroke="#F9EACA" stroke-width="2" stroke-miterlimit="10"/>
<path d="M331.544 44.1094V53.9531" stroke="#F9EACA" stroke-width="2" stroke-miterlimit="10"/>
<path d="M67.6377 49.2656V59.1094" stroke="#F9EACA" stroke-width="2" stroke-miterlimit="10"/>
<path d="M88.7314 28.0298C88.7314 28.3673 88.4581 28.6406 88.1206 28.6406H82.31C81.9725 28.6406 81.6992 28.3673 81.6992 28.0298V22.6889C81.6992 22.3514 81.9725 22.0781 82.31 22.0781H88.1206C88.4581 22.0781 88.7314 22.3514 88.7314 22.6889V28.0298Z" fill="#F9EACA"/>
<path d="M83.5752 27.2344H73.7314V68.0156H83.5752V27.2344Z" fill="#F9EACA"/>
<path d="M90.6064 27.2344H80.7627V68.0156H90.6064V27.2344Z" fill="#E5D0B3"/>
<path d="M113.575 39.8906H92.4814V45.0469H113.575V39.8906Z" fill="#B52144"/>
<path d="M113.575 60.5156H92.4814V65.6719H113.575V60.5156Z" fill="#B52144"/>
<path d="M179.669 61.9219H158.575V67.0781H179.669V61.9219Z" fill="#CE456C"/>
<path d="M204.044 56.7656H182.95V61.9219H204.044V56.7656Z" fill="#CE456C"/>
<path d="M259.356 61.9219H238.263V67.0781H259.356V61.9219Z" fill="#CE456C"/>
<path d="M284.669 46.4531H263.575V51.6094H284.669V46.4531Z" fill="#CE456C"/>
<path d="M259.356 56.7656H238.263V61.9219H259.356V56.7656Z" fill="#DB5131"/>
<path d="M232.169 57.2344H211.075V62.3906H232.169V57.2344Z" fill="#DB5131"/>
<path d="M179.669 51.6094H158.575V56.7656H179.669V51.6094Z" fill="#DB5131"/>
<path d="M151.075 56.7656H129.981V61.9219H151.075V56.7656Z" fill="#63B541"/>
<path d="M179.669 56.7656H158.575V61.9219H179.669V56.7656Z" fill="#63B541"/>
<path d="M311.856 63.3281H290.763V68.4844H311.856V63.3281Z" fill="#63B541"/>
<path d="M284.669 51.6094H263.575V56.7656H284.669V51.6094Z" fill="#63B541"/>
<path d="M284.669 56.7656H263.575V61.9219H284.669V56.7656Z" fill="#D8C073"/>
<path d="M232.169 52.0781H211.075V57.2344H232.169V52.0781Z" fill="#D8C073"/>
<path d="M151.075 61.9219H129.981V67.0781H151.075V61.9219Z" fill="#D8C073"/>
<path d="M311.856 58.1719H290.763V63.3281H311.856V58.1719Z" fill="#D8C073"/>
<path d="M113.575 45.0469H92.4814V50.2031H113.575V45.0469Z" fill="#D8C073"/>
<path d="M113.575 55.3594H92.4814V60.5156H113.575V55.3594Z" fill="#D8C073"/>
<path d="M179.669 46.4531H158.575V51.6094H179.669V46.4531Z" fill="#4052BF"/>
<path d="M232.169 46.9219H211.075V52.0781H232.169V46.9219Z" fill="#4052BF"/>
<path d="M284.669 61.9219H263.575V67.5469H284.669V61.9219Z" fill="#4052BF"/>
<path d="M113.575 50.2031H92.4814V55.3594H113.575V50.2031Z" fill="#4052BF"/>
<path d="M151.075 51.6094H129.981V56.7656H151.075V51.6094Z" fill="#304084"/>
<path d="M204.044 61.9219H182.95V67.0781H204.044V61.9219Z" fill="#304084"/>
<path d="M151.075 46.4531H129.981V51.6094H151.075V46.4531Z" fill="#4F5466"/>
<path d="M113.575 65.6719H92.4814V70.8281H113.575V65.6719Z" fill="#4F5466"/>
<path d="M232.169 62.3906H211.075V67.5469H232.169V62.3906Z" fill="#4F5466"/>
<path d="M259.356 51.6094H238.263V56.7656H259.356V51.6094Z" fill="#4F5466"/>
<path d="M311.856 53.0156H290.763V58.1719H311.856V53.0156Z" fill="#4F5466"/>
<path d="M64.8252 63.5916L90.6064 63.6014C90.6064 63.6014 102.638 70.3594 103.263 70.3594C103.888 70.3594 122.013 70.3594 122.013 70.3594L123.776 68.8336L125.763 68.8069L127.169 67.0781H287.013L291.231 65.3203L319.978 65.4108L332.159 53.3086L332.638 59.4366L354.2 62.7103L342.357 78.5967C342.357 78.5967 339.278 82.117 329.825 82.3922C323.414 82.5788 73.2233 83.1727 69.1607 81.2977C64.5125 79.9298 64.8252 76.4531 64.8252 76.4531V63.5916Z" fill="#444444"/>
<path d="M79.3564 31.3359C79.3564 31.6594 79.0939 31.9219 78.7705 31.9219H76.1924C75.8689 31.9219 75.6064 31.6594 75.6064 31.3359V29.6953C75.6064 29.3719 75.8689 29.1094 76.1924 29.1094H78.7705C79.0939 29.1094 79.3564 29.3719 79.3564 29.6953V31.3359Z" fill="#E5D0B3"/>
<path d="M79.3564 36.0234C79.3564 36.3469 79.0939 36.6094 78.7705 36.6094H76.1924C75.8689 36.6094 75.6064 36.3469 75.6064 36.0234V34.3828C75.6064 34.0594 75.8689 33.7969 76.1924 33.7969H78.7705C79.0939 33.7969 79.3564 34.0594 79.3564 34.3828V36.0234Z" fill="#E5D0B3"/>
<path d="M79.3564 40.7109C79.3564 41.0344 79.0939 41.2969 78.7705 41.2969H76.1924C75.8689 41.2969 75.6064 41.0344 75.6064 40.7109V39.0703C75.6064 38.7469 75.8689 38.4844 76.1924 38.4844H78.7705C79.0939 38.4844 79.3564 38.7469 79.3564 39.0703V40.7109Z" fill="#E5D0B3"/>
<path d="M79.3564 45.3984C79.3564 45.7219 79.0939 45.9844 78.7705 45.9844H76.1924C75.8689 45.9844 75.6064 45.7219 75.6064 45.3984V43.7578C75.6064 43.4344 75.8689 43.1719 76.1924 43.1719H78.7705C79.0939 43.1719 79.3564 43.4344 79.3564 43.7578V45.3984Z" fill="#E5D0B3"/>
<path d="M79.3564 50.0859C79.3564 50.4094 79.0939 50.6719 78.7705 50.6719H76.1924C75.8689 50.6719 75.6064 50.4094 75.6064 50.0859V48.4453C75.6064 48.1219 75.8689 47.8594 76.1924 47.8594H78.7705C79.0939 47.8594 79.3564 48.1219 79.3564 48.4453V50.0859Z" fill="#E5D0B3"/>
<path d="M79.3564 54.7734C79.3564 55.0969 79.0939 55.3594 78.7705 55.3594H76.1924C75.8689 55.3594 75.6064 55.0969 75.6064 54.7734V53.1328C75.6064 52.8094 75.8689 52.5469 76.1924 52.5469H78.7705C79.0939 52.5469 79.3564 52.8094 79.3564 53.1328V54.7734Z" fill="#E5D0B3"/>
<path d="M79.3564 59.4609C79.3564 59.7844 79.0939 60.0469 78.7705 60.0469H76.1924C75.8689 60.0469 75.6064 59.7844 75.6064 59.4609V57.8203C75.6064 57.4969 75.8689 57.2344 76.1924 57.2344H78.7705C79.0939 57.2344 79.3564 57.4969 79.3564 57.8203V59.4609Z" fill="#E5D0B3"/>
<path d="M73.7314 54.4219H71.3877V59.5781H73.7314V54.4219Z" fill="#E5D0B3" stroke="#F9EACA" stroke-width="2" stroke-miterlimit="10"/>
<path d="M88.7314 23.9531H84.5127V25.3594H88.7314V23.9531Z" fill="#E5D0B3"/>
<path d="M87.7939 30.9844H86.3877V32.3906H87.7939V30.9844Z" fill="#444444"/>
<path d="M87.7939 35.6719H86.3877V37.0781H87.7939V35.6719Z" fill="#444444"/>
<path d="M87.7939 40.3594H86.3877V41.7656H87.7939V40.3594Z" fill="#444444"/>
<path d="M87.7939 45.0469H86.3877V46.4531H87.7939V45.0469Z" fill="#444444"/>
<path d="M87.7939 49.7344H86.3877V51.1406H87.7939V49.7344Z" fill="#444444"/>
<path d="M87.7939 54.8906H86.3877V56.2969H87.7939V54.8906Z" fill="#444444"/>
<path d="M87.7939 59.5781H86.3877V60.9844H87.7939V59.5781Z" fill="#444444"/>
<path d="M121.749 70.1248L123.888 68.4841H125.47L126.964 66.6382L286.778 66.6677L291.29 64.8223L319.796 65.0126" stroke="#E5D0B3" stroke-width="2" stroke-miterlimit="10" stroke-dasharray="1 1"/>
<path d="M327.794 54.1875C327.794 54.5761 327.479 54.8906 327.091 54.8906C326.703 54.8906 326.388 54.5761 326.388 54.1875V51.375C326.388 50.9864 326.703 50.6719 327.091 50.6719C327.479 50.6719 327.794 50.9864 327.794 51.375V54.1875Z" fill="#2A2A47"/>
<path d="M333.419 53.4844C333.419 53.2256 333.209 53.0156 332.95 53.0156H328.731C328.472 53.0156 328.263 53.2256 328.263 53.4844C328.263 53.7431 328.472 53.9531 328.731 53.9531H332.95C333.209 53.9531 333.419 53.7431 333.419 53.4844Z" fill="#2A2A47"/>
<path d="M140.938 120.677L172.043 130.298" stroke="#1A2756" stroke-width="2" stroke-miterlimit="10" stroke-linecap="round"/>
<path d="M158.361 112.214L169.365 148.884" stroke="#1A2756" stroke-width="2" stroke-miterlimit="10" stroke-linecap="round"/>
<path d="M153.881 116.696L169.365 146.916" stroke="#1A2756" stroke-width="2" stroke-miterlimit="10" stroke-linecap="round"/>
<path d="M90.9745 114.882L71.1838 155.225" stroke="#1A2756" stroke-width="2" stroke-miterlimit="10" stroke-linecap="round"/>
<path d="M90.9744 114.882L72.9285 156.742" stroke="#586077" stroke-width="2" stroke-miterlimit="10" stroke-linecap="round"/>
<path d="M99.2817 106.461L102.232 152.935" stroke="#1A2756" stroke-width="5" stroke-miterlimit="10" stroke-linecap="round"/>
<path d="M169.693 103.348L173.737 149.977" stroke="#1A2756" stroke-width="5" stroke-miterlimit="10" stroke-linecap="round"/>
<path d="M170.348 110.618L182.922 144.948" stroke="#1A2756" stroke-width="2" stroke-miterlimit="10" stroke-linecap="round"/>
<path d="M140.939 120.677L128.093 152.601" stroke="#586077" stroke-width="2" stroke-miterlimit="10" stroke-linecap="round"/>
<path d="M170.348 110.618L185.655 142.178" stroke="#1A2756" stroke-width="2" stroke-miterlimit="10" stroke-linecap="round"/>
<path d="M140.938 120.677L176.58 144.511" stroke="#586077" stroke-width="2" stroke-miterlimit="10" stroke-linecap="round"/>
<path d="M144.302 113.68L168.818 148.108" stroke="#586077" stroke-width="2" stroke-miterlimit="10" stroke-linecap="round"/>
<path d="M90.9746 119.447L93.3802 154.132" stroke="#586077" stroke-width="2" stroke-miterlimit="10" stroke-linecap="round"/>
<path d="M87.5076 122.924L93.3801 158.724" stroke="#586077" stroke-width="3" stroke-miterlimit="10" stroke-linecap="round"/>
<path d="M73.7315 151.827C73.7315 151.103 73.1441 150.516 72.4199 150.516H72.231C71.5068 150.516 70.9194 151.103 70.9194 151.827V152.485C70.9194 153.209 71.5068 153.796 72.231 153.796H72.4199C73.1441 153.796 73.7315 153.209 73.7315 152.485V151.827Z" fill="#3A251B"/>
<path d="M76.5439 151.827C76.5439 151.103 75.9566 150.516 75.2319 150.516H75.0435C74.3188 150.516 73.7314 151.103 73.7314 151.827V152.485C73.7314 153.209 74.3188 153.796 75.0435 153.796H75.2319C75.9566 153.796 76.5439 153.209 76.5439 152.485V151.827Z" fill="#3A251B"/>
<path d="M99.9814 152.296C99.9814 151.572 99.3941 150.984 98.6694 150.984H98.481C97.7563 150.984 97.1689 151.572 97.1689 152.296V152.954C97.1689 153.678 97.7563 154.265 98.481 154.265H98.6694C99.3941 154.265 99.9814 153.678 99.9814 152.954V152.296Z" fill="#3A251B"/>
<path d="M150.138 149.015C150.138 148.29 149.55 147.703 148.826 147.703H148.638C147.913 147.703 147.326 148.29 147.326 149.015V149.672C147.326 150.397 147.913 150.984 148.638 150.984H148.826C149.55 150.984 150.138 150.397 150.138 149.672V149.015Z" fill="#3A251B"/>
<path d="M182.95 141.515C182.95 140.79 182.363 140.203 181.638 140.203H181.45C180.726 140.203 180.138 140.79 180.138 141.515V142.172C180.138 142.897 180.726 143.484 181.45 143.484H181.638C182.363 143.484 182.95 142.897 182.95 142.172V141.515Z" fill="#3A251B"/>
<path d="M167.95 144.796C167.95 144.072 167.363 143.484 166.639 143.484H166.45C165.726 143.484 165.138 144.072 165.138 144.796V145.453C165.138 146.178 165.726 146.765 166.45 146.765H166.639C167.363 146.765 167.95 146.178 167.95 145.453V144.796Z" fill="#3A251B"/>
<path d="M156.231 148.078C156.231 147.353 155.644 146.766 154.919 146.766H154.731C154.007 146.766 153.419 147.353 153.419 148.078V148.734C153.419 149.459 154.007 150.046 154.731 150.046H154.919C155.644 150.046 156.231 149.459 156.231 148.734V148.078Z" fill="#3A251B"/>
<path d="M109.356 147.098L116.807 135.765C117.244 135.91 133.731 135.473 133.731 135.473V135.985H132.411L131.726 146.99L109.356 148.884V147.098Z" fill="#F4D798"/>
<path d="M129.044 147.098C128.575 147.098 102.188 148.446 102.188 148.446L102.608 155.224L129.044 154.277V147.098Z" fill="#1A2756"/>
<path d="M69.6411 162.247C74.0736 170.08 82.0892 170.021 84.7424 170.452C92.031 171.638 155.297 171.624 155.297 171.624C173.568 172.03 179.978 163.201 182.567 157.253C130.699 164.186 87.1424 163.136 69.6411 162.247Z" fill="#751622"/>
<path d="M193.199 138.533C133.577 159.671 66.666 150.903 66.8127 152.382C67.2281 156.604 68.2612 159.807 69.6416 162.246C87.1424 163.135 130.699 164.186 182.569 157.252C183.554 154.991 183.986 153.145 184.307 152.381C185.473 149.612 193.199 138.533 193.199 138.533Z" fill="#202F77"/>
<path d="M66.5937 154.022C66.1447 153.984 67.4679 156.318 67.4679 156.318C67.4679 156.318 91.9011 158.534 113.168 157.521C136.128 156.427 161.175 150.801 161.93 150.633C163.898 150.196 164.572 147.116 161.274 148.009C156.027 149.431 132.192 153.804 113.277 154.787C99.5773 155.501 80.5878 155.225 66.5937 154.022Z" fill="#F2E7D1"/>
<path d="M122.808 139.755L125.432 139.722L125.396 136.879L122.772 136.913L122.808 139.755Z" fill="#B56528" stroke="#895521" stroke-width="2" stroke-miterlimit="10"/>
<path d="M125.651 139.717L128.492 139.682L128.457 136.839L125.615 136.875L125.651 139.717Z" fill="#B56528" stroke="#895521" stroke-width="2" stroke-miterlimit="10"/>
<path d="M128.493 139.681L131.335 139.646L131.299 136.804L128.457 136.84L128.493 139.681Z" fill="#B56528" stroke="#895521" stroke-width="2" stroke-miterlimit="10"/>
<path d="M110.326 145.359H96.2314V147.135L109.401 147.085L110.326 145.359Z" fill="#3A251B"/>
<path d="M111.419 144.422H96.2314V146.297H110.326L111.419 144.422Z" fill="#F4D798"/>
<path d="M89.0066 119.447L170.508 110.946" stroke="#586077" stroke-width="2" stroke-miterlimit="10" stroke-linecap="round"/>
<path d="M99.6116 111.274L89.0066 119.448" stroke="#586077" stroke-width="2" stroke-miterlimit="10" stroke-linecap="round"/>
<path d="M99.6997 112.04L106.499 148.447" stroke="#586077" stroke-width="2" stroke-miterlimit="10" stroke-linecap="round"/>
<path d="M99.6116 111.274L107.921 148.447" stroke="#586077" stroke-width="2" stroke-miterlimit="10" stroke-linecap="round"/>
<path d="M99.6116 111.274L109.233 148.447" stroke="#586077" stroke-width="2" stroke-miterlimit="10" stroke-linecap="round"/>
<path d="M140.938 120.677L170.776 111.5" stroke="#586077" stroke-width="2" stroke-miterlimit="10" stroke-linecap="round"/>
<path d="M99.6116 111.274L170.348 110.618" stroke="#586077" stroke-width="2" stroke-miterlimit="10" stroke-linecap="round"/>
<path d="M99.1742 111.274C99.4157 111.274 99.6115 110.858 99.6115 110.345C99.6115 109.832 99.4157 109.416 99.1742 109.416C98.9326 109.416 98.7368 109.832 98.7368 110.345C98.7368 110.858 98.9326 111.274 99.1742 111.274Z" stroke="#586077" stroke-width="3" stroke-miterlimit="10"/>
<path d="M90.9744 114.882L99.1742 109.415" stroke="#586077" stroke-width="3" stroke-miterlimit="10" stroke-linecap="round"/>
<path d="M133.901 290.208L112.431 201.028C112.431 201.028 119.532 276.273 111.137 289.026C110.737 289.666 133.901 290.208 133.901 290.208Z" fill="white"/>
<path d="M108.949 187.676C108.949 187.676 88.9672 276.244 84.9665 278.875C80.9657 281.505 108.309 279.218 108.309 279.218L108.949 187.676Z" fill="white"/>
<path d="M75.1377 288.797C75.1377 287.761 74.2982 286.922 73.2627 286.922C72.2272 286.922 71.3877 287.761 71.3877 288.797V292.078C71.3877 293.114 72.2272 293.953 73.2627 293.953C74.2982 293.953 75.1377 293.114 75.1377 292.078V288.797Z" fill="#474D5E"/>
<path d="M83.5752 288.741C83.5752 287.736 82.761 286.922 81.7564 286.922H81.6439C80.6394 286.922 79.8252 287.736 79.8252 288.741V291.666C79.8252 292.67 80.6394 293.484 81.6439 293.484H81.7564C82.761 293.484 83.5752 292.67 83.5752 291.666V288.741Z" fill="#474D5E"/>
<path d="M73.7314 283.875C73.7314 283.746 73.6264 283.641 73.4971 283.641C73.3677 283.641 73.2627 283.746 73.2627 283.875V287.625C73.2627 287.754 73.3677 287.859 73.4971 287.859C73.6264 287.859 73.7314 287.754 73.7314 287.625V283.875Z" fill="#474D5E"/>
<path d="M82.6377 284.09C82.6377 283.842 82.4366 283.641 82.1886 283.641H82.1488C81.9008 283.641 81.6997 283.842 81.6997 284.09V287.879C81.6997 288.127 81.9008 288.328 82.1488 288.328H82.1886C82.4366 288.328 82.6377 288.127 82.6377 287.879V284.09Z" fill="#474D5E"/>
<path d="M110.294 292.878C110.294 293.213 110.023 293.484 109.688 293.484H109.494C109.159 293.484 108.888 293.213 108.888 292.878V186.278C108.888 185.943 109.159 185.672 109.494 185.672H109.688C110.023 185.672 110.294 185.943 110.294 186.278V292.878Z" fill="#474D5E"/>
<path d="M135.237 291.916C135.237 291.916 135.237 300.557 134.529 301.405C133.822 302.255 73.8315 301.552 72.6994 301.41C71.5674 301.268 66.4735 301.322 67.7471 293.302L80.6227 291.259L83.0279 289.734H107.131L114.58 291.562L135.237 291.916Z" fill="#D0DCE2"/>
<path d="M83.2649 291.609C83.2649 291.33 83.4088 291.141 83.586 291.141H100.934C101.112 291.141 101.256 291.33 101.256 291.609C101.256 291.889 101.112 292.078 100.934 292.078H83.586C83.4088 292.078 83.2649 291.889 83.2649 291.609Z" fill="#474D5E"/>
<path d="M114.155 295.359C114.155 295.008 114.439 294.422 114.791 294.422H118.611C118.962 294.422 119.248 295.008 119.248 295.359C119.248 295.711 118.962 296.297 118.611 296.297H114.791C114.44 296.297 114.155 295.711 114.155 295.359Z" fill="#474D5E"/>
<path d="M98.5635 295.125C98.5635 294.957 98.8372 294.891 99.1757 294.891H102.358C102.696 294.891 102.97 294.957 102.97 295.125C102.97 295.294 102.696 295.359 102.358 295.359H99.1757C98.8372 295.359 98.5635 295.294 98.5635 295.125Z" fill="#474D5E"/>
<path d="M93.178 295.125C93.178 294.957 93.4517 294.891 93.7902 294.891H96.972C97.31 294.891 97.5842 294.957 97.5842 295.125C97.5842 295.294 97.31 295.359 96.972 295.359H93.7902C93.4522 295.359 93.178 295.294 93.178 295.125Z" fill="#474D5E"/>
<path d="M84.6331 281.618C84.6331 281.618 84.7802 279.256 85.1693 278.82C85.5584 278.383 108.888 277.946 108.888 277.946V282.046C108.419 282.046 84.6331 281.618 84.6331 281.618Z" fill="#545454"/>
<path d="M84.0439 283.875C84.0439 284.263 83.7294 284.578 83.3408 284.578H67.4033C67.0147 284.578 66.7002 284.263 66.7002 283.875C66.7002 283.487 67.0147 283.172 67.4033 283.172H83.3408C83.7294 283.172 84.0439 283.487 84.0439 283.875Z" fill="#474D5E"/>
<path d="M34.9978 32.2119V255.281" stroke="white" stroke-width="12" stroke-miterlimit="10" stroke-dasharray="8 10"/>
<path d="M45.0772 32.4784L34.7277 17.5234L24.4893 32.5544L45.0772 32.4784Z" fill="white"/>
<path d="M40.9179 332.737C41.2465 333.704 41.6988 335.533 41.6988 337.362C41.6988 339.891 41.0618 341.719 39.8281 342.994C38.6365 344.269 36.8276 344.967 34.7928 344.947C30.1882 344.926 27.5571 341.576 27.5571 337.033C27.5571 335.246 27.9068 333.868 28.2354 333.19L30.7432 333.848C30.4146 334.608 30.147 335.554 30.147 337.074C30.147 339.684 31.6273 341.657 34.6278 341.657C37.4853 341.657 39.1704 339.87 39.1704 337.3C39.1704 336.581 39.0884 336.004 38.9646 335.758H36.0673V337.896H33.6213V332.737H40.9179Z" fill="white"/>
<path d="M27.7012 327.146H41.5551V330.292H27.7012V327.146Z" fill="white"/>
<path d="M41.5551 321.168L27.7012 325.608V322.176L33.5596 320.49C35.2035 320.018 36.7865 319.585 38.5129 319.257V319.194C36.8488 318.846 35.2035 318.413 33.6215 317.94L27.7016 316.173V312.844L41.5555 317.509L41.5551 321.168Z" fill="white"/>
<path d="M35.6966 303.123V308.219H38.9859V302.526H41.5546V311.364H27.7012V302.814H30.2709V308.219H33.1485V303.122H35.6966V303.123Z" fill="white"/>
<path d="M41.5551 294.759L27.7012 298.048V294.699L33.4152 293.651C35.0591 293.342 36.8483 293.055 38.2457 292.828V292.786C36.7452 292.561 35.0807 292.232 33.3744 291.883L27.7007 290.711V287.381L33.539 286.271C35.1622 285.962 36.6426 285.736 38.1838 285.531V285.49C36.6426 285.285 35.0183 284.976 33.3744 284.689L27.7007 283.558V280.372L41.5546 283.949V287.34L35.5935 288.511C34.1962 288.778 32.9015 289.005 31.3185 289.169V289.21C32.8808 289.456 34.1962 289.682 35.5935 290.011L41.5546 291.327L41.5551 294.759Z" fill="white"/>
<path d="M37.9991 276.632L41.5551 277.619V280.866L27.7012 276.632V272.521L41.5551 268.226V271.595L37.9991 272.664V276.632ZM35.6559 273.117L32.7163 273.982C31.8941 274.227 30.8666 274.474 30.0445 274.679V274.721C30.8666 274.926 31.9152 275.132 32.7163 275.358L35.6559 276.18V273.117Z" fill="white"/>
<path d="M41.5551 265.123H35.8818L27.7012 269.5V265.924L31.0312 264.506C32.0376 264.074 32.7782 263.787 33.6829 263.437V263.396C32.819 263.087 32.0179 262.759 31.0312 262.349L27.7012 260.951V257.436L35.7796 261.999H41.5551V265.123Z" fill="white"/>
<rect x="315.138" y="15.9844" width="44.0746" height="25" rx="12.5" fill="#969696" fill-opacity="0.3"/>
<path d="M329.445 24.1289L325.193 33.6104H324.338L328.563 24.3545H322.903V23.6572H329.445V24.1289ZM331.092 34.4648H330.347L334.503 23.6572H335.242L331.092 34.4648ZM340.451 33.6104H339.63V24.6416L336.923 25.6465V24.8809L340.314 23.623H340.451V33.6104ZM348.216 33.6104H347.396V24.6416L344.689 25.6465V24.8809L348.08 23.623H348.216V33.6104Z" fill="black"/>
</g>
<defs>
<clipPath id="clip0">
<rect width="375" height="375" fill="white" transform="translate(0.137695 0.984375)"/>
</clipPath>
</defs>
</svg>
