<svg width="376" height="376" viewBox="0 0 376 376" fill="none" xmlns="http://www.w3.org/2000/svg">
<g clip-path="url(#clip0)">
<path opacity="0.6" d="M-4.09375 -10.7498L379.101 -12.1035L379.568 377.71H-4.09375V-10.7498Z" fill="#39BCC4"/>
<path d="M383.106 -13.0781H-10.6436V382.078H383.106V-13.0781Z" fill="#8BF6FF"/>
<path d="M187.403 8.48438V366.609" stroke="white" stroke-width="3" stroke-miterlimit="10" stroke-dasharray="10 10"/>
<path d="M187.403 372.234V377.859" stroke="white" stroke-width="3" stroke-miterlimit="10" stroke-dasharray="10 10"/>
<path opacity="0.8" d="M132.273 308.565L125.91 295.214L123.635 299.146C104.844 291.199 81.2307 291.024 62.4699 299.879C62.4605 299.866 62.454 299.858 62.454 299.858L59.7418 295.692L54.0952 309.36L68.8805 309.72L66.4744 306.027C82.344 298.464 102.969 298.23 119.974 305.475L117.526 309.706L132.273 308.565Z" fill="#F90606"/>
<path d="M94.8252 334.266H91.5439V395.203H94.8252V334.266Z" fill="#969696"/>
<path d="M119.07 381.557L120.543 378.881L64.5703 348.07L63.097 350.747L119.07 381.557Z" fill="#969696"/>
<path d="M119.112 351.05L117.539 348.431L62.7757 381.309L64.3482 383.928L119.112 351.05Z" fill="#969696"/>
<path d="M93.2779 371.734C97.0439 371.734 100.097 368.681 100.097 364.915C100.097 361.149 97.0439 358.096 93.2779 358.096C89.5119 358.096 86.459 361.149 86.459 364.915C86.459 368.681 89.5119 371.734 93.2779 371.734Z" fill="black"/>
<path d="M92.5157 313.401C63.6768 313.401 40.2979 336.78 40.2979 365.618C40.2979 394.457 63.6768 417.836 92.5157 417.836C121.355 417.836 144.733 394.457 144.733 365.618C144.733 336.78 121.355 313.401 92.5157 313.401ZM92.5157 410.527C67.7136 410.527 47.6075 390.419 47.6075 365.617C47.6075 340.815 67.7136 320.71 92.5157 320.71C117.318 320.71 137.424 340.815 137.424 365.617C137.424 390.419 117.318 410.527 92.5157 410.527Z" fill="black" stroke="black" stroke-miterlimit="10"/>
<path d="M83.4751 321.622C83.6912 321.592 89.836 320.888 89.9387 325.87C90.0413 330.855 90.0578 334.367 90.0578 334.367C90.0578 334.367 89.8257 338.057 92.1985 338.054C92.4263 338.054 94.1499 338.057 94.3445 338.057C96.3174 338.057 96.3756 336.217 96.3582 334.297C96.3395 332.213 96.4674 325.951 96.4674 325.951C96.4674 325.951 96.9165 321.682 101.609 321.682C106.423 321.682 100.602 319.994 100.602 319.994L85.4588 320.089L83.4751 321.622Z" fill="black" stroke="black" stroke-miterlimit="10"/>
<path d="M49.628 352.385C49.7105 352.181 52.0379 346.557 56.4057 348.961C60.7739 351.366 63.8241 353.108 63.8241 353.108C63.8241 353.108 66.9033 355.151 68.0878 353.097C68.2017 352.9 69.0657 351.408 69.1627 351.24C70.1494 349.531 68.5847 348.561 66.9132 347.617C65.0986 346.591 59.7408 343.349 59.7408 343.349C59.7408 343.349 55.6266 340.8 58.2418 336.903C60.915 332.921 56.6503 336.79 56.6503 336.79L49.1611 349.952L49.628 352.385Z" fill="black" stroke="black" stroke-miterlimit="10"/>
<path d="M135.611 378.495C135.529 378.698 133.202 384.321 128.834 381.918C124.466 379.514 121.416 377.772 121.416 377.772C121.416 377.772 118.337 375.727 117.152 377.782C117.038 377.98 116.175 379.472 116.077 379.639C115.091 381.349 116.655 382.318 118.327 383.264C120.141 384.289 125.5 387.531 125.5 387.531C125.5 387.531 128.995 390.635 126.648 394.699C124.241 398.869 128.59 394.09 128.59 394.09L136.079 380.928L135.611 378.495Z" fill="black" stroke="black" stroke-miterlimit="10"/>
<path d="M124.927 334.488C125.062 334.66 128.768 339.488 124.503 342.068C120.237 344.652 117.204 346.42 117.204 346.42C117.204 346.42 113.893 348.065 115.081 350.12C115.195 350.317 116.055 351.809 116.152 351.979C117.139 353.688 118.761 352.818 120.416 351.843C122.211 350.785 127.698 347.765 127.698 347.765C127.698 347.765 132.349 346.397 134.695 350.46C137.103 354.63 134.923 348.368 134.923 348.368L127.268 335.301L124.927 334.488Z" fill="black" stroke="black" stroke-miterlimit="10"/>
<path d="M93.2052 353.688C86.6436 353.688 81.3242 359.009 81.3242 365.57C81.3242 372.132 86.6436 377.451 93.2052 377.451C99.7667 377.451 105.086 372.132 105.086 365.57C105.087 359.007 99.7667 353.688 93.2052 353.688ZM93.2052 371.539C89.908 371.539 87.2352 368.868 87.2352 365.57C87.2352 362.274 89.9084 359.601 93.2052 359.601C96.5023 359.601 99.1752 362.274 99.1752 365.57C99.1756 368.866 96.5028 371.539 93.2052 371.539Z" fill="#969696"/>
<path d="M282.794 334.266H279.513V395.203H282.794V334.266Z" fill="#969696"/>
<path d="M307.008 381.56L308.48 378.884L252.5 348.089L251.028 350.765L307.008 381.56Z" fill="#969696"/>
<path d="M307.084 351.092L305.512 348.474L250.733 381.358L252.305 383.976L307.084 351.092Z" fill="#969696"/>
<path d="M281.247 371.734C285.013 371.734 288.066 368.681 288.066 364.915C288.066 361.149 285.013 358.096 281.247 358.096C277.481 358.096 274.428 361.149 274.428 364.915C274.428 368.681 277.481 371.734 281.247 371.734Z" fill="black"/>
<path d="M280.484 313.401C251.645 313.401 228.267 336.78 228.267 365.618C228.267 394.457 251.645 417.836 280.484 417.836C309.322 417.836 332.701 394.457 332.701 365.618C332.702 336.78 309.323 313.401 280.484 313.401ZM280.484 410.527C255.682 410.527 235.576 390.419 235.576 365.617C235.576 340.815 255.682 320.71 280.484 320.71C305.286 320.71 325.392 340.815 325.392 365.617C325.392 390.419 305.286 410.527 280.484 410.527Z" fill="black" stroke="black" stroke-miterlimit="10"/>
<path d="M271.444 321.622C271.66 321.592 277.805 320.888 277.907 325.87C278.01 330.853 278.027 334.367 278.027 334.367C278.027 334.367 277.795 338.057 280.168 338.054C280.394 338.054 282.117 338.057 282.312 338.057C284.286 338.057 284.343 336.217 284.327 334.297C284.309 332.213 284.435 325.951 284.435 325.951C284.435 325.951 284.884 321.682 289.576 321.682C294.391 321.682 288.57 319.994 288.57 319.994L273.425 320.089L271.444 321.622Z" fill="black" stroke="black" stroke-miterlimit="10"/>
<path d="M237.597 352.385C237.679 352.181 240.007 346.557 244.374 348.961C248.742 351.366 251.792 353.108 251.792 353.108C251.792 353.108 254.87 355.151 256.056 353.097C256.17 352.9 257.034 351.408 257.131 351.24C258.118 349.531 256.554 348.561 254.881 347.617C253.067 346.591 247.709 343.349 247.709 343.349C247.709 343.349 243.594 340.8 246.209 336.903C248.882 332.921 244.618 336.79 244.618 336.79L237.128 349.952L237.597 352.385Z" fill="black" stroke="black" stroke-miterlimit="10"/>
<path d="M323.58 378.495C323.498 378.698 321.17 384.321 316.803 381.918C312.436 379.514 309.385 377.772 309.385 377.772C309.385 377.772 306.307 375.727 305.121 377.782C305.007 377.98 304.143 379.472 304.046 379.639C303.06 381.349 304.624 382.318 306.296 383.264C308.11 384.289 313.469 387.531 313.469 387.531C313.469 387.531 316.963 390.635 314.617 394.699C312.21 398.869 316.56 394.09 316.56 394.09L324.049 380.928L323.58 378.495Z" fill="black" stroke="black" stroke-miterlimit="10"/>
<path d="M312.896 334.488C313.03 334.66 316.737 339.488 312.472 342.068C308.206 344.652 305.174 346.42 305.174 346.42C305.174 346.42 301.862 348.065 303.052 350.12C303.165 350.317 304.025 351.809 304.122 351.979C305.109 353.688 306.73 352.818 308.387 351.843C310.181 350.785 315.668 347.765 315.668 347.765C315.668 347.765 320.319 346.397 322.665 350.46C325.075 354.63 322.893 348.368 322.893 348.368L315.239 335.301L312.896 334.488Z" fill="black" stroke="black" stroke-miterlimit="10"/>
<path d="M281.174 353.688C274.612 353.688 269.293 359.009 269.293 365.57C269.293 372.132 274.612 377.451 281.174 377.451C287.735 377.451 293.055 372.132 293.055 365.57C293.055 359.009 287.735 353.688 281.174 353.688ZM281.174 371.539C277.877 371.539 275.204 368.868 275.204 365.57C275.204 362.274 277.877 359.601 281.174 359.601C284.471 359.601 287.144 362.274 287.144 365.57C287.144 368.867 284.471 371.539 281.174 371.539Z" fill="#969696"/>
<path opacity="0.8" d="M346.576 347.056L350.228 332.726L345.963 334.292C333.445 308.532 307.1 292.634 279.018 292.936C251.318 293.006 225.443 308.825 213.062 334.27L208.798 332.7L212.441 347.034L224.51 338.484L219.923 336.795C231.32 314.026 254.779 299.997 279.782 300.215C279.783 300.211 279.783 300.207 279.785 300.203C304.591 300.197 327.796 314.199 339.101 336.814L334.514 338.501L346.576 347.056Z" fill="#F90606"/>
<path opacity="0.8" d="M304.772 115.974C309.762 165.047 256.861 157.121 257.226 197.344C257.512 228.797 279.512 225.529 281.464 269.109" stroke="#ED1C24" stroke-width="12" stroke-miterlimit="10"/>
<path opacity="0.8" d="M96.5408 24.2506V23.9534H100.455L93.8146 14.2812L87.1733 23.9534H90.9158V24.2506V269.11H96.5408V24.2506Z" fill="#F90606"/>
<path d="M360.974 188.995C359.255 184.578 359.577 172.19 356.628 164.447C353.677 156.704 346.636 149.995 343.672 143.266C340.71 136.537 341.296 130.622 337.783 122.526C334.273 114.429 327.42 110.684 324.474 105.101C321.531 99.5189 318.572 88.7822 314.083 85.2853C309.595 81.7884 290.648 87.8165 290.648 87.8165C290.648 87.8165 275.752 90.4528 273.778 94.3931C271.229 99.4804 273.174 110.446 272.916 116.752C272.659 123.058 268.082 129.386 268.395 138.206C268.705 147.026 271.778 152.114 271.997 159.463C272.216 166.812 268.743 175.897 269.409 184.156C270.074 192.416 275.692 203.46 276.04 208.188C276.387 212.915 274.637 221.12 275.25 229.151L321.429 218.716L324.522 218.017L370.703 207.582C367.801 200.068 362.692 193.413 360.974 188.995Z" fill="url(#paint0_linear)"/>
<path opacity="0.5" d="M346.8 192.198C345.081 187.781 345.405 175.393 342.454 167.65C339.501 159.907 332.461 153.198 329.496 146.469C326.535 139.74 327.121 133.825 323.608 125.729C320.096 117.631 313.243 113.887 310.298 108.304C307.356 102.722 304.395 91.9852 299.906 88.4879C295.419 84.9915 292.475 87.4037 292.475 87.4037C292.475 87.4037 289.466 87.3535 287.492 91.2938C284.943 96.3812 286.888 107.348 286.63 113.653C286.372 119.958 281.796 126.286 282.108 135.106C282.419 143.926 285.491 149.014 285.71 156.363C285.93 163.712 282.457 172.797 283.122 181.057C283.787 189.318 289.406 200.362 289.753 205.089C290.1 209.816 288.351 218.021 288.963 226.052L323.254 218.304L326.347 217.606L356.524 210.787C353.627 203.271 348.519 196.615 346.8 192.198Z" fill="url(#paint1_linear)"/>
<path d="M281.964 125.126L319.962 116.54L310.436 71.1179C310.436 71.1179 305.465 32.8065 279.282 25.1855C259.571 42.6399 270.503 79.1518 270.503 79.1518L281.964 125.126Z" fill="#D1D1D1"/>
<path d="M281.364 35.0149C281.364 35.0149 297.675 30.663 305.66 63.3283C313.642 95.9937 312.16 99.9916 312.16 99.9916L281.596 106.898L277.915 97.2621L271.543 69.0677C271.543 69.0668 265.915 39.5529 281.364 35.0149Z" fill="#F4F4F4"/>
<path d="M281.514 34.7685C268.744 37.4001 268.39 54.5662 270.84 70.1511L277.008 95.4955L281.796 113.714L292.196 113.776L293.362 111.519L303.956 109.176C303.956 109.176 305.656 110.467 305.976 110.395C307.772 109.989 315.179 106.037 315.179 106.037C315.179 106.037 312.644 93.5061 311.508 87.8657C311.47 87.6744 306.522 62.4215 306.44 62.1074C302.433 46.9054 295.401 31.9073 281.514 34.7685ZM310.81 87.456C310.967 87.8563 313.119 105.229 313.119 105.229C313.119 105.229 306.788 107.945 305.095 108.328C304.792 108.396 303.186 107.158 303.186 107.158L293.183 109.371L292.088 111.523L282.96 112.044L277.565 94.9911C273.943 79.9499 274.193 79.6701 271.898 69.913C269.676 54.6716 270.658 37.7249 281.857 35.496C292.988 33.2816 300.977 47.7796 305.308 62.3633C305.43 62.938 310.624 87.2296 310.81 87.456Z" fill="#E8E8E8"/>
<path d="M288.481 64.9652L288.453 64.8105L283.554 66.7118L281.965 69.2988C281.003 70.3868 281.726 74.6126 281.726 74.6126L283.477 82.3591L284.66 83.8676L290.099 81.6002L291.446 77.9365L290.811 75.2899L288.481 64.9652Z" fill="white"/>
<path d="M288.377 64.9884L288.452 64.8098L293.399 64.4863L295.908 66.1476C297.244 66.7171 298.368 70.8515 298.368 70.8515L300.119 78.5985L299.775 80.452L293.929 80.7341L291.208 77.9901L290.705 75.3135L288.377 64.9884Z" fill="white"/>
<path d="M298.917 76.7867C298.847 76.5514 295.801 73.5303 295.801 73.5303L285.566 75.7306L283.828 79.9489L283.942 80.4593L284 80.7139L284.058 80.9689L284.712 83.8625L299.748 80.4645C299.748 80.4654 298.987 77.0225 298.917 76.7867Z" fill="#C6C6C6"/>
<path d="M304.725 127.783C304.526 128.531 303.758 128.976 303.011 128.777L295.132 126.678C294.383 126.479 293.94 125.711 294.139 124.963L297.363 112.859C297.562 112.112 298.33 111.667 299.078 111.866L306.957 113.965C307.705 114.164 308.148 114.932 307.95 115.679L304.725 127.783Z" fill="#394963"/>
<path d="M295.775 70.1982L290.621 71.3626L288.655 71.807L284.012 72.8561C284.012 72.8561 282.993 75.2701 283.914 80.4751C283.92 80.5056 284.193 80.47 284.193 80.47C284.653 79.3656 285.59 76.4668 285.59 76.4668L290.488 75.3348L295.907 74.1428C295.907 74.1428 298.001 76.3689 298.892 77.1671C298.892 77.1671 299.149 77.0631 299.141 77.034C297.733 71.9401 295.775 70.1982 295.775 70.1982Z" fill="#29ABE2"/>
<path d="M286.372 82.2147C286.84 84.2871 293.705 82.8935 293.198 80.6524C292.753 78.6836 285.881 80.0416 286.372 82.2147ZM286.961 82.0572C286.626 80.5759 292.297 79.4284 292.599 80.77C292.944 82.2972 287.28 83.4696 286.961 82.0572Z" fill="black"/>
<path d="M288.669 80.48C288.669 80.48 288.831 81.1221 289.6 80.9389C290.372 80.7561 290.138 80.2057 290.141 80.1467C290.145 80.0876 288.669 80.48 288.669 80.48Z" fill="black"/>
<path d="M289.362 81.0251L289.547 82.7703L290.567 82.5396L289.913 80.9014L289.362 81.0251Z" fill="black"/>
<path d="M289.948 80.3919C289.964 80.3886 292.688 80.9122 292.688 80.9122L292.639 80.2536L289.959 80.0713L289.948 80.3919Z" fill="black"/>
<path d="M288.911 80.626C288.895 80.6298 286.589 82.2901 286.589 82.2901L286.445 81.653L288.691 80.3574L288.911 80.626Z" fill="black"/>
<path d="M305.309 62.3634C305.309 62.3634 296.97 64.3144 293.119 55.8698C289.266 47.4253 285.432 35.4923 285.246 35.2664C285.061 35.04 298.25 35.2767 305.309 62.3634Z" fill="#E8CDA0"/>
<path d="M271.898 69.9126C271.898 69.9126 280.265 68.0887 280.111 58.8083C279.958 49.5285 278.289 37.1057 278.36 36.8221C278.429 36.5385 266.625 42.4223 271.898 69.9126Z" fill="#E8CDA0"/>
<path d="M280.388 104.517C280.388 104.517 279.312 102.599 281.487 102.861C288.652 103.721 304.388 100.702 310.723 96.1209C312.051 95.1609 312.113 95.5364 312.292 96.5371C312.427 97.289 313.118 105.229 313.118 105.229C313.118 105.229 302.169 112.529 282.96 112.044L280.388 104.517Z" fill="#E8CDA0"/>
<path d="M302.178 90.0056C302.274 90.4307 301.863 90.7073 301.272 90.8404L287.82 93.8803C287.23 94.0134 286.552 93.9834 286.457 93.5583L285.444 89.0709C285.348 88.6462 285.886 88.0645 286.477 87.9309L299.928 84.8911C300.519 84.7575 301.07 85.0931 301.166 85.5182L302.178 90.0056Z" fill="#E8CDA0"/>
<path d="M287.381 84.3694C287.381 84.3694 287.904 83.3016 288.568 84.6633C289.231 86.0255 290.218 87.315 290.218 87.315C290.218 87.315 291.663 86.5172 291.778 86.0461C291.893 85.5755 291.28 83.6869 292.512 82.8994C293.744 82.1128 294.28 81.6708 294.165 83.827C294.051 85.9833 294.166 87.4612 294.166 87.4612L288.867 89.9634L287.451 84.6881" fill="#996234"/>
<path d="M289.177 89.0405C289.177 89.0405 286.463 86.4835 287.573 86.3489C288.682 86.2144 288.305 87.1739 289.701 86.9349C291.095 86.6958 290.666 85.6735 292.486 85.8703C294.309 86.0672 294.822 85.4152 294.747 86.3991C294.67 87.383 294.697 87.7932 294.697 87.7932L289.177 89.0405Z" fill="#EF45B7"/>
<path d="M287.628 89.7068C287.628 89.7068 286.991 87.3242 286.785 86.7181C286.402 85.5832 286.847 82.9479 286.746 82.5068C286.646 82.0657 286.613 81.5881 287.342 82.1098C288.073 82.632 287.996 84.9551 287.996 86.1096C287.995 87.2637 289.01 88.4393 289.119 88.7862C289.225 89.1335 288.38 88.7899 288.38 88.7899L287.628 89.7068Z" fill="#996234"/>
<path d="M295.214 88.1526C295.214 88.1526 295.391 85.4263 295.315 84.7902C295.172 83.6005 293.639 81.4124 293.539 80.9718C293.439 80.5307 293.266 80.0845 292.83 80.8701C292.392 81.6557 293.463 83.7201 293.959 84.7621C294.456 85.8041 293.535 87.3004 293.588 87.6599C293.64 88.0194 294.768 87.3463 294.768 87.3463L295.214 88.1526Z" fill="#996234"/>
<path d="M286.563 89.9466C286.563 89.9466 287.686 92.8195 289.663 93.0066C291.641 93.1931 292.325 93.2583 293.816 92.1689C295.309 91.0795 296.273 91.2755 295.812 89.8116C295.35 88.3486 296.174 87.3492 294.689 87.4392C293.088 87.5362 288.875 88.1906 288.581 88.2211C286.776 88.4119 286.563 89.9466 286.563 89.9466Z" fill="#8BC7E8"/>
<path d="M291.861 92.51C291.861 92.51 290.152 92.7228 290.094 91.288C290.031 89.8527 289.185 89.5152 290.268 88.8167C291.351 88.1183 291.678 86.8344 292.458 87.868C293.239 88.9011 293.754 89.4271 293.56 90.321C293.368 91.2158 293.492 91.3953 293.129 92.016C292.765 92.6371 291.861 92.51 291.861 92.51Z" fill="#301705"/>
<path d="M137.371 208.524C136.668 203.836 139.715 191.825 138.543 183.621C137.371 175.418 131.98 167.323 130.574 160.106C129.168 152.889 131.043 147.249 129.402 138.577C127.761 129.906 121.902 124.742 120.261 118.648C118.621 112.554 118.101 101.429 114.493 97.0288C110.886 92.6282 91.0766 94.3325 91.0766 94.3325C91.0766 94.3325 75.9655 93.62 73.1713 97.0288C69.5643 101.429 69.0439 112.554 67.4033 118.648C65.7627 124.742 59.9033 129.906 58.2627 138.577C56.6221 147.249 58.4971 152.889 57.0908 160.106C55.6846 167.323 50.2939 175.418 49.1221 183.621C47.9502 191.825 50.9971 203.836 50.2939 208.524C49.5908 213.211 46.0752 220.828 44.9033 228.797H92.2471H95.4177H142.761C141.59 220.828 138.074 213.211 137.371 208.524Z" fill="url(#paint2_linear)"/>
<path opacity="0.5" d="M122.84 208.524C122.136 203.836 125.183 191.824 124.011 183.621C122.84 175.418 117.449 167.322 116.043 160.106C114.636 152.889 116.511 147.249 114.871 138.577C113.23 129.905 107.371 124.742 105.73 118.648C104.09 112.554 103.57 101.429 99.9622 97.0286C96.3552 92.6285 92.9516 94.3324 92.9516 94.3324C92.9516 94.3324 90.028 93.6199 87.2338 97.0286C83.6268 101.429 83.1064 112.554 81.4658 118.648C79.8252 124.742 73.9658 129.905 72.3252 138.577C70.6846 147.249 72.5596 152.889 71.1533 160.106C69.7471 167.322 64.3564 175.418 63.1846 183.621C62.0127 191.824 65.0596 203.836 64.3564 208.524C63.6533 213.211 60.1377 220.828 58.9658 228.797H94.1221H97.2927H128.23C127.058 220.828 123.543 213.211 122.84 208.524Z" fill="url(#paint3_linear)"/>
<path d="M74.3806 128.811H113.338L114.057 82.4057C114.057 82.4057 117.651 43.9405 93.7934 30.7363C70.7197 43.417 73.3344 81.4401 73.3344 81.4401L74.3806 128.811Z" fill="#D1D1D1"/>
<path d="M93.6582 40.7831C93.6582 40.7831 110.528 40.1334 111.115 73.755C111.704 107.377 109.375 110.95 109.375 110.95H78.0404L76.5728 100.74V71.8341C76.5728 71.8331 77.5885 41.8045 93.6582 40.7831Z" fill="#F4F4F4"/>
<path d="M93.8593 40.576C80.8229 40.3285 76.6951 56.9939 75.6479 72.736L76.0792 98.8168L76.7336 117.642L86.8647 119.995L88.4992 118.051L99.3493 118.1C99.3493 118.1 100.721 119.734 101.049 119.734C102.89 119.734 110.986 117.511 110.986 117.511C110.986 117.511 111.275 104.73 111.41 98.978C111.415 98.7825 112.155 73.0603 112.144 72.7378C111.589 57.0253 108.035 40.846 93.8593 40.576ZM110.822 98.4244C110.887 98.8496 109.155 116.269 109.155 116.269C109.155 116.269 102.383 117.523 100.645 117.523C100.336 117.523 99.0409 115.961 99.0409 115.961L88.7969 115.914L87.2542 117.773L78.2373 116.269L76.734 98.446C76.5165 82.9763 76.8198 82.7583 76.734 72.736C77.9256 57.3797 82.6178 41.0658 94.0337 41.3607C105.378 41.6541 109.976 57.5564 110.987 72.736C110.978 73.3242 110.691 98.1628 110.822 98.4244Z" fill="#E8E8E8"/>
<path d="M93.9983 71.5652L94.0054 71.4082L88.8083 72.1826L86.6882 74.3562C85.5111 75.2055 85.2861 79.4866 85.2861 79.4866V87.4287L86.1083 89.1607L91.9124 88.1473L94.034 84.8707L93.9988 82.1496L93.9983 71.5652Z" fill="white"/>
<path d="M93.8926 71.5657L94.0056 71.4082L98.9012 72.1826L100.982 74.3562C102.159 75.2055 102.345 79.4866 102.345 79.4866V87.4287L101.601 89.1607L95.837 88.1473L93.7881 84.8707L93.8875 82.1491L93.8926 71.5657Z" fill="white"/>
<path d="M101.572 85.3965C101.556 85.1513 99.2513 81.5335 99.2513 81.5335L88.7827 81.4238L86.1572 85.1551V85.6787V85.9398V86.2013V89.1681H101.572C101.572 89.1681 101.588 85.6421 101.572 85.3965Z" fill="#C6C6C6"/>
<path d="M99.4966 134.623C99.4929 135.397 98.8619 136.021 98.0885 136.017L89.9341 135.974C89.1616 135.969 88.5373 135.338 88.5405 134.564L88.608 122.038C88.6123 121.265 89.2427 120.64 90.0166 120.645L98.171 120.689C98.9444 120.692 99.5679 121.323 99.5641 122.097L99.4966 134.623Z" fill="#394963"/>
<path d="M99.9602 78.2773H94.6764H92.6608H87.9002C87.9002 78.2773 86.3739 80.4078 86.125 85.6873C86.1227 85.7178 86.3974 85.7436 86.3974 85.7436C87.0906 84.7677 88.6413 82.1469 88.6413 82.1469L93.6691 82.1225L99.2191 82.1544C99.2191 82.1544 100.769 84.7869 101.463 85.7623C101.463 85.7623 101.737 85.7178 101.736 85.6873C101.485 80.4073 99.9602 78.2773 99.9602 78.2773Z" fill="#29ABE2"/>
<path d="M88.1392 87.9271C88.1392 90.0515 95.1413 90.2048 95.1413 87.9074C95.1413 85.889 88.1392 85.6991 88.1392 87.9271ZM88.7485 87.9032C88.7485 86.3844 94.5315 86.5148 94.5315 87.8901C94.532 89.4562 88.7485 89.3512 88.7485 87.9032Z" fill="black"/>
<path d="M90.7622 86.7412C90.7622 86.7412 90.7786 87.4036 91.5708 87.3947C92.3635 87.3867 92.257 86.7984 92.2739 86.7412C92.2903 86.684 90.7622 86.7412 90.7622 86.7412Z" fill="black"/>
<path d="M91.3186 87.4268L91.1143 89.1691H92.1596L91.8821 87.4268H91.3186Z" fill="black"/>
<path d="M92.0283 86.9373C92.0447 86.9373 94.5858 88.0487 94.5858 88.0487L94.6843 87.3952L92.1104 86.627L92.0283 86.9373Z" fill="black"/>
<path d="M90.9661 86.9373C90.9501 86.9373 88.335 88.0487 88.335 88.0487V87.3952L90.8109 86.627L90.9661 86.9373Z" fill="black"/>
<path d="M110.987 72.7368C110.987 72.7368 102.424 72.8019 100.528 63.7161C98.6328 54.6304 97.5219 42.1457 97.3906 41.8841C97.2594 41.623 110.071 44.7604 110.987 72.7368Z" fill="#E8CDA0"/>
<path d="M76.7334 72.7368C76.7334 72.7368 85.2965 72.802 87.1921 63.7162C89.0878 54.6304 90.1992 42.1457 90.3295 41.8842C90.4598 41.6226 77.6484 44.7604 76.7334 72.7368Z" fill="#E8CDA0"/>
<path d="M77.3873 108.361C77.3873 108.361 76.7606 106.253 78.825 106.988C85.6232 109.407 101.638 109.929 108.827 106.858C110.334 106.214 110.311 106.594 110.265 107.61C110.232 108.371 109.154 116.27 109.154 116.27C109.154 116.27 96.8653 120.976 78.2367 116.27L77.3873 108.361Z" fill="#E8CDA0"/>
<path d="M101.84 99.0098C101.84 99.4457 101.377 99.6243 100.772 99.6243H86.9807C86.376 99.6243 85.7212 99.4457 85.7212 99.0098V94.4094C85.7212 93.974 86.3756 93.5254 86.9807 93.5254H100.772C101.378 93.5254 101.84 93.974 101.84 94.4094V99.0098Z" fill="#E8CDA0"/>
<path d="M88.6489 90.2517C88.6489 90.2517 89.3947 89.325 89.7416 90.8002C90.0885 92.2753 90.7667 93.75 90.7667 93.75C90.7667 93.75 92.352 93.2902 92.5686 92.8566C92.7847 92.423 92.6033 90.4453 93.9781 89.9489C95.3534 89.453 95.975 89.1403 95.3877 91.2183C94.8008 93.2967 94.587 94.763 94.587 94.763L88.8674 96.0356L88.6494 90.578" fill="#996234"/>
<path d="M89.3711 95.2036C89.3711 95.2036 87.2875 92.1113 88.3994 92.2247C89.5112 92.3382 88.9337 93.1913 90.3461 93.2653C91.7584 93.3394 91.5653 92.2477 93.2987 92.8411C95.0317 93.4346 95.6781 92.9124 95.3875 93.8555C95.0959 94.7986 95.0317 95.2041 95.0317 95.2041L89.3711 95.2036Z" fill="#EF45B7"/>
<path d="M87.7128 95.5109C87.7128 95.5109 87.6171 93.0467 87.5506 92.4101C87.4264 91.2186 88.4407 88.7459 88.4407 88.294C88.4407 87.8422 88.5125 87.3683 89.1106 88.0386C89.7078 88.7089 89.1204 90.9579 88.8664 92.0839C88.6114 93.2093 89.3421 94.5795 89.3703 94.9418C89.3975 95.3037 88.6484 94.7825 88.6484 94.7825L87.7128 95.5109Z" fill="#996234"/>
<path d="M95.4546 95.6675C95.4546 95.6675 96.2275 93.0467 96.2941 92.4101C96.4178 91.2186 95.4039 88.7459 95.4039 88.294C95.4039 87.8422 95.3332 87.3682 94.7346 88.0386C94.1369 88.7089 94.7238 90.9579 94.9783 92.0839C95.2338 93.2093 94.0056 94.4661 93.978 94.8284C93.9503 95.1907 95.1977 94.7825 95.1977 94.7825L95.4546 95.6675Z" fill="#996234"/>
<path d="M86.6221 95.5106C86.6221 95.5106 87.0833 98.5602 88.9714 99.1785C90.8596 99.7968 91.5121 100.011 93.2075 99.2769C94.9035 98.5429 95.8021 98.9474 95.6736 97.4174C95.5457 95.8884 96.5699 95.0952 95.1013 94.8557C93.5188 94.5974 89.2649 94.3068 88.9714 94.2721C87.1682 94.0602 86.6221 95.5106 86.6221 95.5106Z" fill="#8BC7E8"/>
<path d="M91.2244 99.1784C91.2244 99.1784 89.5107 99.0096 89.768 97.5964C90.024 96.1831 89.2726 95.667 90.4829 95.2245C91.6932 94.782 92.2946 93.6017 92.8285 94.782C93.3624 95.9618 93.7477 96.5881 93.3624 97.4178C92.9776 98.2479 93.0582 98.4504 92.5683 98.9764C92.079 99.5018 91.2244 99.1784 91.2244 99.1784Z" fill="#301705"/>
<rect x="315.138" y="15.9844" width="44.0746" height="25" rx="12.5" fill="#969696" fill-opacity="0.3"/>
<path d="M329.547 33.6104H323.313V32.9814L326.724 29.1123C327.289 28.4606 327.681 27.9229 327.9 27.499C328.119 27.0752 328.228 26.6628 328.228 26.2617C328.228 25.6328 328.043 25.1361 327.674 24.7715C327.305 24.4023 326.797 24.2178 326.15 24.2178C325.48 24.2178 324.938 24.432 324.523 24.8604C324.113 25.2887 323.908 25.8447 323.908 26.5283H323.094C323.094 25.9678 323.22 25.4574 323.47 24.9971C323.725 24.5368 324.085 24.1768 324.55 23.917C325.02 23.6527 325.553 23.5205 326.15 23.5205C327.061 23.5205 327.772 23.7598 328.283 24.2383C328.798 24.7168 329.055 25.3685 329.055 26.1934C329.055 26.6582 328.909 27.1663 328.618 27.7178C328.331 28.2692 327.822 28.9574 327.093 29.7822L324.318 32.9199H329.547V33.6104ZM331.092 34.4648H330.347L334.503 23.6572H335.242L331.092 34.4648ZM340.451 33.6104H339.63V24.6416L336.923 25.6465V24.8809L340.314 23.623H340.451V33.6104ZM348.216 33.6104H347.396V24.6416L344.689 25.6465V24.8809L348.08 23.623H348.216V33.6104Z" fill="black"/>
</g>
<defs>
<linearGradient id="paint0_linear" x1="293.662" y1="88.6384" x2="322.976" y2="218.367" gradientUnits="userSpaceOnUse">
<stop stop-color="white" stop-opacity="0.8"/>
<stop offset="0.9306" stop-color="white" stop-opacity="0"/>
</linearGradient>
<linearGradient id="paint1_linear" x1="293.431" y1="88.6903" x2="322.745" y2="218.42" gradientUnits="userSpaceOnUse">
<stop stop-color="white" stop-opacity="0.8"/>
<stop offset="1" stop-color="white" stop-opacity="0"/>
</linearGradient>
<linearGradient id="paint2_linear" x1="93.8325" y1="95.7967" x2="93.8325" y2="228.797" gradientUnits="userSpaceOnUse">
<stop stop-color="white" stop-opacity="0.8"/>
<stop offset="0.9306" stop-color="white" stop-opacity="0"/>
</linearGradient>
<linearGradient id="paint3_linear" x1="93.5981" y1="95.7961" x2="93.5981" y2="228.797" gradientUnits="userSpaceOnUse">
<stop stop-color="white" stop-opacity="0.8"/>
<stop offset="1" stop-color="white" stop-opacity="0"/>
</linearGradient>
<clipPath id="clip0">
<rect width="375" height="375" fill="white" transform="translate(0.137695 0.984375)"/>
</clipPath>
</defs>
</svg>
