<svg width="376" height="376" viewBox="0 0 376 376" fill="none" xmlns="http://www.w3.org/2000/svg">
<g clip-path="url(#clip0)">
<path d="M379.992 -2.24707H-6.59131V386.561H379.992V-2.24707Z" fill="#8BF6FF"/>
<path d="M193.119 374.332C204.649 355.347 207.65 329.871 216.768 312.921C225.891 295.966 238.546 287.899 249.595 267.617C260.647 247.332 258.306 226.576 265.177 211.461C272.045 196.342 289.149 173.107 289.665 157.899C290.179 142.695 299.717 68.7803 299.717 68.7803C299.717 68.7803 224.524 82.8143 213.873 84.6963C200.121 87.1256 181.131 108.492 168.241 117.802C155.35 127.104 136.23 127.073 119.159 141.543C102.089 156.019 96.2431 170.814 81.9598 182.786C67.6818 194.757 44.9014 201.136 29.0728 215.966L193.119 374.332Z" fill="url(#paint0_linear)"/>
<path opacity="0.8" d="M174.515 346.333C186.77 326.163 189.956 299.086 199.653 281.074C209.343 263.062 222.791 254.49 234.534 232.934C246.277 211.379 243.791 189.298 251.093 173.247C258.392 157.184 276.565 132.492 277.117 116.33C277.665 100.171 268.105 97.3825 268.105 97.3825C268.105 97.3825 263.639 90.3562 252.318 92.3578C237.704 94.9381 217.526 117.656 203.827 127.533C190.128 137.423 169.809 137.39 151.671 152.767C133.532 168.146 127.321 183.873 112.143 196.591C96.9691 209.296 72.764 216.09 55.9395 231.852L174.515 346.333Z" fill="url(#paint1_linear)"/>
<path opacity="0.8" d="M174.515 346.333C186.77 326.163 189.956 299.086 199.653 281.074C209.343 263.062 222.791 254.49 234.534 232.934C246.277 211.379 243.791 189.298 251.093 173.247C258.392 157.184 276.565 132.492 277.117 116.33C277.665 100.171 268.105 97.3825 268.105 97.3825C268.105 97.3825 263.639 90.3562 252.318 92.3578C237.704 94.9381 217.526 117.656 203.827 127.533C190.128 137.423 169.809 137.39 151.671 152.767C133.532 168.146 127.321 183.873 112.143 196.591C96.9691 209.296 72.764 216.09 55.9395 231.852L174.515 346.333Z" fill="url(#paint2_linear)"/>
<path d="M225.466 110.214L263.466 143.503L303.817 98.8531C303.817 98.8531 340.188 64.4051 328.201 31.1417C294.859 23.7884 264.922 63.117 264.922 63.117L225.466 110.214Z" fill="#D1D1D1"/>
<path d="M319.482 40.8242C319.482 40.8242 336.493 54.6017 308.339 87.9003C280.184 121.199 274.861 122.696 274.861 122.696L244.299 95.9187L251.59 84.7067L276.289 56.5137C276.289 56.5114 302.937 28.0887 319.482 40.8242Z" fill="#F4F4F4"/>
<path d="M319.856 40.7936C307.352 29.4142 289.085 42.1422 274.614 56.6031L252.751 82.4111L237.304 101.338L245.176 112.288L248.432 111.783L258.971 121.101C258.971 121.101 258.915 123.868 259.234 124.148C261.03 125.72 270.825 130.475 270.825 130.475C270.825 130.475 282.028 118.257 287.075 112.759C287.246 112.572 309.946 88.1167 310.211 87.7881C323.096 71.9875 333.453 53.1696 319.856 40.7936ZM286.972 111.712C286.672 112.184 270.101 127.693 270.101 127.693C270.101 127.693 262.423 123.13 260.728 121.645C260.427 121.382 260.498 118.753 260.498 118.753L250.545 109.953L247.453 110.449L239.942 101.277L253.704 82.608C266.711 67.3267 267.19 67.375 275.672 57.5294C289.956 43.5691 308.472 31.6666 319.355 41.7025C330.17 51.6813 321.067 71.1208 309.082 86.7944C308.572 87.3625 287.07 111.346 286.972 111.712Z" fill="#E8E8E8"/>
<path d="M293.515 71.1391L293.654 70.9915L287.924 67.3066L284 67.6146C282.125 67.4379 278.248 71.4227 278.248 71.4227L271.462 79.1684L270.784 81.5599L277.31 85.5321L282.179 84.1479L284.471 81.4634L293.515 71.1391Z" fill="white"/>
<path d="M293.41 71.0479L293.654 70.9912L297.767 75.9276L297.942 79.8323C298.363 81.6651 294.888 85.9954 294.888 85.9954L288.101 93.742L285.896 94.8009L281.139 88.8871L281.941 83.9446L284.363 81.3712L293.41 71.0479Z" fill="white"/>
<path d="M289.083 91.1018C289.278 90.8491 290.12 85.3502 290.12 85.3502L280.002 76.2949L274.254 77.6918L273.807 78.2069L273.584 78.4629L273.359 78.7184L270.824 81.6105L285.86 94.7843C285.861 94.7801 288.887 91.3568 289.083 91.1018Z" fill="#C6C6C6"/>
<path d="M244.997 137.343C244.333 138.101 243.183 138.166 242.433 137.5L234.516 130.49C233.766 129.825 233.697 128.676 234.362 127.926L245.131 115.764C245.797 115.013 246.945 114.942 247.697 115.609L255.612 122.618C256.364 123.283 256.433 124.431 255.767 125.181L244.997 137.343Z" fill="#394963"/>
<path d="M293.592 82.782L288.44 78.2713L286.473 76.5439L281.831 72.4766C281.831 72.4766 278.523 73.2505 273.769 78.1916C273.74 78.2216 273.985 78.4742 273.985 78.4742C275.495 78.1156 279.249 76.8833 279.249 76.8833L284.173 81.1536L289.56 85.9222C289.56 85.9222 288.823 89.8194 288.667 91.3588C288.667 91.3588 288.97 91.5505 288.997 91.5191C293.261 86.1603 293.592 82.782 293.592 82.782Z" fill="#29ABE2"/>
<path d="M273.819 82.0927C272.004 84.1641 278.704 90.3005 280.665 88.0547C282.39 86.0869 275.722 79.9182 273.819 82.0927ZM274.433 82.5901C275.732 81.1079 281.261 86.1783 280.086 87.5232C278.749 89.0471 273.198 84.0019 274.433 82.5901Z" fill="black"/>
<path d="M277.391 83.1777C277.391 83.1777 276.841 83.8377 277.622 84.5043C278.403 85.1741 278.801 84.5085 278.865 84.4687C278.931 84.4265 277.391 83.1777 277.391 83.1777Z" fill="black"/>
<path d="M277.348 84.3203L275.66 85.8466L276.68 86.7395L277.897 84.8022L277.348 84.3203Z" fill="black"/>
<path d="M278.458 84.4507C278.474 84.4634 280.003 87.7202 280.003 87.7202L280.657 87.1662L278.802 84.2168L278.458 84.4507Z" fill="black"/>
<path d="M277.422 83.5417C277.405 83.53 273.906 82.3787 273.906 82.3787L274.465 81.7412L277.536 83.1062L277.422 83.5417Z" fill="black"/>
<path d="M309.082 86.7973C309.082 86.7973 300.674 79.5429 306.587 69.0617C312.504 58.5795 322.087 45.454 322.182 45.0851C322.277 44.7195 332.094 58.7262 309.082 86.7973Z" fill="#E8CDA0"/>
<path d="M275.675 57.5292C275.675 57.5292 283.971 64.9092 293.582 57.6713C303.194 50.4305 314.944 39.202 315.297 39.053C315.646 38.9091 300.47 31.0228 275.675 57.5292Z" fill="#E8CDA0"/>
<path d="M245.871 92.8386C245.871 92.8386 247.06 90.2511 248.445 92.7317C253.011 100.9 268.184 115.092 277.82 118.24C279.841 118.898 279.493 119.25 278.581 120.202C277.896 120.915 270.097 127.7 270.097 127.7C270.097 127.7 254.09 121.796 239.939 101.284L245.871 92.8386Z" fill="#E8CDA0"/>
<path d="M277.712 104.607C277.339 105.032 276.738 104.812 276.146 104.295L262.693 92.5117C262.103 91.997 261.617 91.2606 261.991 90.8364L265.922 86.3476C266.294 85.9229 267.317 86.0462 267.905 86.5614L281.357 98.3406C281.948 98.8571 282.015 99.6967 281.643 100.121L277.712 104.607Z" fill="#E8CDA0"/>
<path d="M272.33 84.7959C272.33 84.7959 273.849 84.5226 272.928 86.2621C272.005 87.9989 271.408 90.0159 271.408 90.0159C271.408 90.0159 273.346 90.922 273.926 90.6834C274.509 90.4462 276.02 88.364 277.785 89.0536C279.55 89.744 280.423 89.969 278.076 91.4953C275.728 93.0271 274.266 94.2693 274.266 94.2693L267.6 90.6243L272.051 85.1151" fill="#996234"/>
<path d="M268.802 90.2439C268.802 90.2439 269.412 85.4396 270.399 86.506C271.386 87.5649 270.094 87.9039 271.408 89.1849C272.722 90.4642 273.467 89.2328 274.651 91.2924C275.833 93.3535 276.909 93.3957 275.823 94.066C274.733 94.7382 274.324 95.0785 274.324 95.0785L268.802 90.2439Z" fill="#EF45B7"/>
<path d="M266.923 89.1261C266.923 89.1261 268.934 86.6403 269.414 85.9615C270.311 84.6926 273.413 83.149 273.799 82.7098C274.186 82.2669 274.661 81.8675 274.672 83.0379C274.682 84.2019 272.188 85.8922 270.976 86.7687C269.765 87.6486 269.307 89.6094 269.026 89.9867C268.743 90.3678 268.457 89.2198 268.457 89.2198L266.923 89.1261Z" fill="#996234"/>
<path d="M274.34 95.8937C274.34 95.8937 277.333 93.9967 277.942 93.4337C279.082 92.3757 280.205 89.1048 280.59 88.6571C280.976 88.2175 281.314 87.7 280.156 87.8411C279 87.9845 277.651 90.6798 276.938 91.9923C276.226 93.3043 273.954 93.4811 273.618 93.8148C273.282 94.1471 274.846 94.8146 274.846 94.8146L274.34 95.8937Z" fill="#996234"/>
<path d="M265.859 88.1931C265.859 88.1931 263.701 91.5559 265.016 93.7773C266.328 95.9945 266.784 96.76 269.063 97.4931C271.346 98.2258 271.877 99.3939 273.058 97.7861C274.238 96.1858 275.916 96.2884 274.689 94.7978C273.364 93.1923 269.465 89.2778 269.207 88.9928C267.629 87.2453 265.859 88.1931 265.859 88.1931Z" fill="#8BC7E8"/>
<path d="M267.212 95.7037C267.212 95.7037 265.686 94.0743 267.145 92.9156C268.602 91.7559 268.311 90.6107 269.87 91.2126C271.427 91.8159 273.024 91.1784 272.535 92.7858C272.048 94.3893 271.889 95.3339 270.804 95.8129C269.72 96.2925 269.624 96.5601 268.697 96.6483C267.772 96.7481 267.212 95.7037 267.212 95.7037Z" fill="#301705"/>
<g opacity="0.5">
<path opacity="0.5" d="M208.698 285.276L239.913 323.446L286.062 286.881C286.062 286.881 326.679 259.538 320.498 225.577C289.581 213.129 254.346 246.23 254.346 246.23L208.698 285.276Z" fill="#E5E5E5"/>
<path opacity="0.5" d="M309.252 231.092C309.252 231.092 324.733 245.596 294.702 275.764C264.672 305.927 259.402 306.708 259.402 306.708L231.79 278.242L239.947 268.637L266.21 243.163C266.207 243.162 294.162 217.392 309.252 231.092Z" fill="#E2E2E2"/>
<path opacity="0.5" d="M309.393 230.861C298.131 218.798 279.35 229.733 264.13 242.66L240.814 266.031L224.281 283.212L231.071 294.493L234.274 294.265L243.792 304.167C243.792 304.167 243.519 306.859 243.802 307.152C245.425 308.824 254.578 314.222 254.578 314.222C254.578 314.222 266.448 303.224 271.792 298.274C271.971 298.108 295.995 276.112 296.283 275.816C310.07 261.467 321.64 243.978 309.393 230.861ZM271.778 297.254C271.45 297.684 254.096 311.46 254.096 311.46C254.096 311.46 246.987 306.413 245.457 304.833C245.182 304.551 245.462 301.998 245.462 301.998L236.478 292.651L233.43 292.886L226.851 283.369L241.721 266.295C255.587 252.466 256.047 252.548 265.08 243.639C280.082 231.19 299.047 221.075 308.833 231.708C318.562 242.276 308.165 260.467 295.265 274.762C294.724 275.274 271.901 296.903 271.778 297.254Z" fill="#CECECE"/>
<path opacity="0.5" d="M284.783 267.227L285.029 263.527L281.614 258.6L281.601 258.614L281.238 258.232L281.179 258.172L280.588 257.569L280.603 257.551L275.887 254.099L272.061 254.099C270.254 253.782 266.178 257.363 266.178 257.363L258.963 264.366L258.185 266.714L264.26 271.129L268.774 270.204L267.697 274.677L271.874 280.829L274.146 280.017L281.362 273.014C281.356 273.019 285.047 269.043 284.783 267.227Z" fill="#EFEFEF"/>
<path opacity="0.5" d="M275.622 277.218C275.828 276.986 277.005 271.78 277.005 271.78L267.885 262.262L262.19 263.251L261.715 263.714L261.478 263.943L261.242 264.172L258.861 266.481L272.349 280.386C272.35 280.389 275.413 277.447 275.622 277.218Z" fill="#C6C6C6"/>
<path opacity="0.5" d="M280.319 269.815L275.66 265.016L273.885 263.183L269.687 258.864C269.687 258.864 266.505 259.261 261.483 263.688C261.458 263.712 261.721 263.934 261.721 263.934C263.22 263.703 266.992 262.782 266.992 262.782L271.456 267.311L276.322 272.378C276.322 272.378 275.302 276.106 275.022 277.595C275.022 277.595 275.207 277.894 275.236 277.868C279.825 272.987 280.319 269.815 280.319 269.815Z" fill="#29ABE2"/>
<g opacity="0.5">
<path opacity="0.5" d="M261.33 267.391C259.399 269.264 265.427 275.761 267.52 273.735C269.353 271.956 263.354 265.427 261.33 267.391ZM261.889 267.923C263.268 266.588 268.25 271.956 266.997 273.163C265.573 274.546 260.571 269.198 261.889 267.923Z" fill="black"/>
<path opacity="0.5" d="M264.717 268.73C264.717 268.73 264.134 269.327 264.837 270.039C265.542 270.752 265.987 270.135 266.054 270.102C266.119 270.068 264.717 268.73 264.717 268.73Z" fill="black"/>
<path opacity="0.5" d="M264.781 269.649L263.126 270.893L264.047 271.842L265.278 270.161L264.781 269.649Z" fill="black"/>
<path opacity="0.5" d="M265.656 270.052C265.671 270.069 266.901 273.355 266.901 273.355L267.579 272.867L266.012 269.85L265.656 270.052Z" fill="black"/>
<path opacity="0.5" d="M264.821 269.192C264.805 269.177 261.591 267.885 261.591 267.885L262.182 267.309L265.015 268.827L264.821 269.192Z" fill="black"/>
</g>
<g opacity="0.5">
<path opacity="0.5" d="M295.264 274.764C295.264 274.764 287.655 267.037 294.243 257.31C300.826 247.585 311.194 235.573 311.318 235.22C311.439 234.872 319.88 249.28 295.264 274.764Z" fill="#E8CDA0"/>
<path opacity="0.5" d="M265.078 243.642C265.078 243.642 272.567 251.478 282.492 245.194C292.42 238.904 304.744 228.917 305.098 228.805C305.447 228.696 291.307 219.819 265.078 243.642Z" fill="#E8CDA0"/>
<path opacity="0.5" d="M233.289 275.628C233.289 275.628 234.648 273.196 235.805 275.724C239.597 284.037 253.232 299.044 262.361 302.871C264.272 303.671 263.906 303.986 262.946 304.838C262.223 305.475 254.094 311.456 254.094 311.456C254.094 311.456 238.992 304.438 226.848 283.366L233.289 275.628Z" fill="#E8CDA0"/>
<path opacity="0.5" d="M263.779 290.066C263.387 290.45 261.743 290.332 261.21 289.788L249.056 277.254C248.525 276.706 249.212 275.843 249.614 275.464L253.79 271.411C254.187 271.026 254.783 270.634 255.32 271.185L267.473 283.715C268.002 284.263 268.358 285.634 267.957 286.019L263.779 290.066Z" fill="#E8CDA0"/>
</g>
</g>
<g opacity="0.5">
<path opacity="0.5" d="M216.992 306.536L261.1 328.577L288.23 276.321C288.23 276.321 314.09 234.744 294.544 206.292C261.24 207.595 242.648 252.221 242.648 252.221L216.992 306.536Z" fill="#E5E5E5"/>
<path opacity="0.5" d="M289.026 217.677C289.026 217.677 308.435 226.24 290.08 264.647C271.726 303.05 267.012 305.531 267.012 305.531L231.535 287.809L236.053 276.045L252.404 243.315C252.402 243.313 270.252 209.743 289.026 217.677Z" fill="#E2E2E2"/>
<path opacity="0.5" d="M289.083 217.413C274.462 209.758 260.36 226.292 250.275 243.528L236.008 273.298L226.093 294.983L236.234 303.382L239.182 302.105L251.441 308.3C251.441 308.3 252.074 310.93 252.437 311.113C254.523 312.153 264.946 314.218 264.946 314.218C264.946 314.218 272.507 299.912 275.912 293.472C276.026 293.256 291.415 264.548 291.59 264.174C299.852 246.07 304.981 225.738 289.083 217.413ZM275.562 292.514C275.394 293.028 263.577 311.772 263.577 311.772C263.577 311.772 255.2 309.361 253.233 308.377C252.88 308.202 252.299 305.7 252.299 305.7L240.728 299.854L237.93 301.085L228.572 294.28L236.952 273.247C245.461 255.608 245.921 255.534 251.497 244.137C261.534 227.425 276.082 211.603 288.835 218.398C301.515 225.15 297.724 245.757 290.281 263.517C289.939 264.178 275.562 292.142 275.562 292.514Z" fill="#CECECE"/>
<path opacity="0.5" d="M277.895 259.873L276.903 256.301L272.05 252.782L272.042 252.8L271.574 252.56L271.498 252.522L270.741 252.148L270.75 252.126L265.157 250.429L261.546 251.696C259.735 251.996 257.075 256.723 257.075 256.723L252.584 265.719L252.628 268.192L259.82 270.348L263.774 267.981L264.239 272.559L270.216 276.981L272.091 275.463L276.582 266.466C276.578 266.474 278.746 261.501 277.895 259.873Z" fill="#EFEFEF"/>
<path opacity="0.5" d="M272.558 272.335C272.675 272.048 272.062 266.746 272.062 266.746L260.306 260.782L255.261 263.601L254.965 264.195L254.816 264.49L254.67 264.784L253.187 267.751L270.518 276.407C270.519 276.41 272.435 272.62 272.558 272.335Z" fill="#C6C6C6"/>
<path opacity="0.5" d="M274.541 263.795L268.555 260.808L266.275 259.667L260.884 256.979C260.884 256.979 258.011 258.407 254.738 264.247C254.723 264.278 255.045 264.399 255.045 264.399C256.383 263.686 259.638 261.569 259.638 261.569L265.348 264.364L271.617 267.536C271.617 267.536 271.888 271.392 272.117 272.889C272.117 272.889 272.391 273.11 272.409 273.075C275.124 266.952 274.541 263.795 274.541 263.795Z" fill="#29ABE2"/>
<g opacity="0.5">
<path opacity="0.5" d="M255.82 267.792C254.616 270.199 262.455 274.335 263.76 271.73C264.901 269.444 257.079 265.269 255.82 267.792ZM256.523 268.11C257.382 266.392 263.86 269.81 263.077 271.363C262.191 273.14 255.702 269.749 256.523 268.11Z" fill="black"/>
<path opacity="0.5" d="M259.458 267.934C259.458 267.934 259.106 268.691 260.005 269.131C260.906 269.57 261.121 268.841 261.174 268.787C261.224 268.733 259.458 267.934 259.458 267.934Z" fill="black"/>
<path opacity="0.5" d="M259.823 268.78L258.673 270.502L259.856 271.093L260.461 269.099L259.823 268.78Z" fill="black"/>
<path opacity="0.5" d="M260.782 268.871C260.803 268.882 263.05 271.575 263.05 271.575L263.529 270.89L261.051 268.562L260.782 268.871Z" fill="black"/>
<path opacity="0.5" d="M259.71 268.336C259.69 268.328 256.229 268.172 256.229 268.172L256.596 267.432L259.772 267.927L259.71 268.336Z" fill="black"/>
</g>
<g opacity="0.5">
<path opacity="0.5" d="M290.281 263.517C290.281 263.517 280.543 258.745 283.54 247.386C286.534 236.03 292.343 221.264 292.343 220.889C292.341 220.521 305.074 231.324 290.281 263.517Z" fill="#E8CDA0"/>
<path opacity="0.5" d="M251.496 244.14C251.496 244.14 261.156 249.056 268.441 239.842C275.729 230.62 284.053 217.116 284.349 216.894C284.643 216.677 268.361 212.98 251.496 244.14Z" fill="#E8CDA0"/>
<path opacity="0.5" d="M232.084 284.845C232.084 284.845 232.563 282.101 234.491 284.103C240.82 290.693 258.653 300.341 268.534 300.931C270.602 301.053 270.361 301.471 269.737 302.594C269.265 303.435 263.574 311.767 263.574 311.767C263.574 311.767 247.001 310.143 228.567 294.279L232.084 284.845Z" fill="#E8CDA0"/>
<path opacity="0.5" d="M265.635 288.377C265.391 288.869 263.801 289.302 263.118 288.966L247.502 281.16C246.819 280.818 247.182 279.778 247.435 279.287L250.034 274.08C250.281 273.586 250.715 273.019 251.403 273.36L267.019 281.161C267.699 281.504 268.489 282.68 268.237 283.176L265.635 288.377Z" fill="#E8CDA0"/>
</g>
</g>
<path d="M212.112 296.107L250.281 327.322L288.256 282.326C288.256 282.326 322.64 247.467 309.841 215.409C277.069 209.344 249.103 248.777 249.103 248.777L212.112 296.107Z" fill="#E5E5E5"/>
<path d="M301.951 225.298C301.951 225.298 318.996 237.927 292.633 271.347C266.27 304.763 261.125 306.145 261.125 306.145L230.424 281.042L237.421 270.563L260.581 242.239C260.579 242.237 285.386 213.424 301.951 225.298Z" fill="#E2E2E2"/>
<path d="M302.064 225.053C289.489 214.365 272.091 227.386 258.457 241.977L237.983 267.874L223.535 286.841L231.576 297.268L234.733 296.672L245.326 305.414C245.326 305.414 245.364 308.121 245.678 308.378C247.483 309.852 257.195 314.162 257.195 314.162C257.195 314.162 267.722 301.872 272.462 296.341C272.621 296.156 293.957 271.543 294.209 271.216C306.256 255.378 315.738 236.675 302.064 225.053ZM272.332 295.33C272.055 295.795 256.4 311.476 256.4 311.476C256.4 311.476 248.759 307.279 247.057 305.885C246.751 305.638 246.736 303.069 246.736 303.069L236.737 294.817L233.736 295.401L226.106 286.703L238.914 268.033C251.099 252.702 251.566 252.73 259.515 242.842C272.986 228.75 290.661 216.523 301.605 225.96C312.485 235.339 304.249 254.605 293.077 270.288C292.598 270.858 272.413 294.967 272.332 295.33Z" fill="#CECECE"/>
<path d="M281.798 264.006L281.617 260.303L277.658 255.801L277.647 255.817L277.242 255.48L277.178 255.426L276.521 254.894L276.534 254.875L271.453 251.989L267.652 252.428C265.82 252.322 262.183 256.347 262.183 256.347L255.821 264.133L255.319 266.556L261.86 270.242L266.239 268.805L265.684 273.372L270.54 279.003L272.703 277.935L279.066 270.149C279.059 270.155 282.27 265.781 281.798 264.006Z" fill="#EFEFEF"/>
<path d="M273.846 274.985C274.025 274.731 274.595 269.424 274.595 269.424L264.441 261.017L258.899 262.655L258.48 263.169L258.27 263.424L258.063 263.679L255.963 266.246L270.96 278.508C270.961 278.511 273.665 275.236 273.846 274.985Z" fill="#C6C6C6"/>
<path d="M277.662 267.092L272.482 262.86L270.509 261.244L265.842 257.436C265.842 257.436 262.726 258.195 258.247 263.171C258.225 263.198 258.512 263.388 258.512 263.388C259.974 262.986 263.615 261.638 263.615 261.638L268.571 265.623L273.986 270.098C273.986 270.098 273.402 273.918 273.296 275.429C273.296 275.429 273.514 275.705 273.539 275.676C277.535 270.3 277.662 267.092 277.662 267.092Z" fill="#29ABE2"/>
<path d="M258.519 266.867C256.816 268.95 263.551 274.711 265.398 272.457C267.014 270.479 260.304 264.683 258.519 266.867ZM259.136 267.332C260.353 265.846 265.918 270.607 264.813 271.95C263.557 273.487 257.974 268.75 259.136 267.332Z" fill="black"/>
<path d="M262.039 267.807C262.039 267.807 261.528 268.467 262.308 269.094C263.091 269.721 263.462 269.057 263.524 269.016C263.584 268.976 262.039 267.807 262.039 267.807Z" fill="black"/>
<path d="M262.208 268.712L260.706 270.14L261.73 270.977L262.761 269.164L262.208 268.712Z" fill="black"/>
<path d="M263.123 269.013C263.14 269.028 264.74 272.151 264.74 272.151L265.357 271.587L263.454 268.77L263.123 269.013Z" fill="black"/>
<path d="M262.195 268.255C262.178 268.241 258.836 267.328 258.836 267.328L259.357 266.686L262.345 267.869L262.195 268.255Z" fill="black"/>
<path d="M293.077 270.289C293.077 270.289 284.629 263.488 290.055 253.068C295.476 242.651 304.395 229.526 304.477 229.162C304.557 228.802 314.599 242.144 293.077 270.289Z" fill="#E8CDA0"/>
<path d="M259.513 242.844C259.513 242.844 267.852 249.768 276.99 242.384C286.129 234.993 297.223 223.655 297.561 223.504C297.896 223.356 282.829 216.164 259.513 242.844Z" fill="#E8CDA0"/>
<path d="M231.612 278.273C231.612 278.273 232.683 275.701 234.123 278.079C238.846 285.901 254.116 299.241 263.623 301.993C265.614 302.567 265.287 302.923 264.431 303.88C263.786 304.596 256.398 311.471 256.398 311.471C256.398 311.471 240.59 306.236 226.103 286.699L231.612 278.273Z" fill="#E8CDA0"/>
<path d="M263.559 289.109C263.213 289.537 261.567 289.607 260.975 289.129L247.461 278.075C246.87 277.592 247.454 276.656 247.808 276.232L251.491 271.727C251.841 271.298 252.388 270.841 252.985 271.326L266.499 282.375C267.087 282.859 267.598 284.18 267.244 284.608L263.559 289.109Z" fill="#E8CDA0"/>
<g opacity="0.5">
<path opacity="0.5" d="M196.23 109.954L179.491 63.5734L123.807 82.7023C123.807 82.7023 76.4056 94.9752 70.9374 129.058C95.952 151.082 140.192 131.59 140.192 131.59L196.23 109.954Z" fill="#E5E5E5"/>
<path opacity="0.5" d="M83.3778 127.599C83.3778 127.599 73.6041 108.77 111.961 90.3123C150.314 71.858 155.544 72.8741 155.544 72.8741L172.113 108.904L161.226 115.249L127.985 130.534C127.986 130.536 93.0502 145.539 83.3778 127.599Z" fill="#E2E2E2"/>
<path opacity="0.5" d="M83.1686 127.769C89.776 142.892 111.124 138.828 129.779 131.701L159.541 117.418L180.848 106.716L178.199 93.8182L175.101 92.9678L169.419 80.4635C169.419 80.4635 170.573 78.0158 170.404 77.6452C169.429 75.529 162.594 67.3932 162.594 67.3932C162.594 67.3932 147.741 73.8153 141.055 76.7054C140.831 76.8023 110.857 89.5535 110.487 89.7358C92.7115 98.6811 75.9827 111.325 83.1686 127.769ZM140.728 77.6718C141.181 77.3758 162.13 70.1572 162.13 70.1572C162.13 70.1572 167.154 77.2817 168.071 79.2804C168.237 79.6376 167.123 81.9521 167.123 81.9521L172.486 93.7556L175.438 94.5476L178.477 105.712L158.774 116.866C141.096 125.294 140.69 125.063 129.208 130.459C110.918 137.209 89.6689 140.438 83.9775 127.156C78.3178 113.953 94.1744 100.257 111.096 91.0677C111.778 90.7661 140.495 77.962 140.728 77.6718Z" fill="#CECECE"/>
<path opacity="0.5" d="M118.474 101.662L117.011 105.069L118.593 110.851L118.61 110.842L118.826 111.323L118.86 111.4L119.217 112.165L119.197 112.176L122.496 117.001L126.104 118.273C127.704 119.173 132.738 117.152 132.738 117.152L141.872 112.949L143.387 110.993L139.127 104.808L134.562 104.179L137.066 100.319L135.174 93.1272L132.761 93.1382L123.626 97.3416C123.633 97.3397 118.829 99.8606 118.474 101.662Z" fill="#EFEFEF"/>
<path opacity="0.5" d="M130.437 95.2886C130.166 95.4388 127.324 99.9568 127.324 99.9568L132.758 111.967L138.457 112.928L139.059 112.65L139.359 112.513L139.658 112.375L142.671 110.99L134.578 93.3903C134.578 93.3866 130.711 95.1425 130.437 95.2886Z" fill="#C6C6C6"/>
<path opacity="0.5" d="M123.545 100.706L126.342 106.782L127.406 109.1L129.927 114.57C129.927 114.57 133.06 115.254 139.269 112.75C139.301 112.735 139.126 112.439 139.126 112.439C137.636 112.158 133.772 111.771 133.772 111.771L131.069 106.016L128.166 99.6183C128.166 99.6183 130.368 96.4421 131.127 95.1309C131.127 95.1309 131.053 94.7872 131.016 94.8025C125.066 97.8782 123.545 100.706 123.545 100.706Z" fill="#29ABE2"/>
<g opacity="0.5">
<path opacity="0.5" d="M140.645 109.309C143.09 108.186 139.567 100.053 136.919 101.267C134.598 102.335 138.083 110.488 140.645 109.309ZM140.296 108.621C138.55 109.422 135.639 102.702 137.222 101.98C139.026 101.15 141.962 107.857 140.296 108.621Z" fill="black"/>
<path opacity="0.5" d="M137.897 106.92C137.897 106.92 138.646 106.551 138.22 105.645C137.792 104.738 137.167 105.172 137.093 105.182C137.021 105.192 137.897 106.92 137.897 106.92Z" fill="black"/>
<path opacity="0.5" d="M138.142 106.032L140.117 105.408L139.565 104.207L137.844 105.383L138.142 106.032Z" fill="black"/>
<path opacity="0.5" d="M137.451 105.361C137.442 105.34 137.376 101.832 137.376 101.832L136.573 102.067L137.047 105.434L137.451 105.361Z" fill="black"/>
<path opacity="0.5" d="M137.953 106.449C137.963 106.468 140.564 108.756 140.564 108.756L139.815 109.104L137.649 106.729L137.953 106.449Z" fill="black"/>
</g>
<g opacity="0.5">
<path opacity="0.5" d="M111.097 91.067C111.097 91.067 115.702 100.884 106.253 107.866C96.8095 114.847 83.036 122.725 82.8017 123.017C82.5729 123.306 79.4055 106.91 111.097 91.067Z" fill="#E8CDA0"/>
<path opacity="0.5" d="M129.21 130.459C129.21 130.459 124.755 120.578 113.305 123.201C101.849 125.831 86.904 131.149 86.5341 131.137C86.1679 131.123 96.5504 144.199 129.21 130.459Z" fill="#E8CDA0"/>
<path opacity="0.5" d="M169.83 110.87C169.83 110.87 167.739 112.711 167.488 109.942C166.678 100.841 158.812 82.1528 151.477 75.5065C149.941 74.1168 150.391 73.9413 151.579 73.4572C152.474 73.0968 162.129 70.1618 162.129 70.1618C162.129 70.1618 174.036 81.8042 178.477 105.716L169.83 110.87Z" fill="#E8CDA0"/>
<path opacity="0.5" d="M145.879 87.1114C146.378 86.8792 147.888 87.538 148.21 88.2278L155.502 104.092C155.82 104.785 154.885 105.37 154.381 105.594L149.095 108.027C148.592 108.258 147.899 108.429 147.576 107.731L140.284 91.8719C139.968 91.1788 140.087 89.7675 140.593 89.538L145.879 87.1114Z" fill="#E8CDA0"/>
</g>
</g>
<g opacity="0.5">
<path opacity="0.5" d="M195.482 87.1463L161.218 51.6861L118.249 91.9393C118.249 91.9393 80.0296 122.545 88.9965 155.879C120.837 165.73 153.217 129.831 153.217 129.831L195.482 87.1463Z" fill="#E5E5E5"/>
<path opacity="0.5" d="M97.9883 146.978C97.9883 146.978 82.5339 132.445 112.621 102.333C142.705 72.224 147.976 71.4529 147.976 71.4529L175.536 99.9684L167.363 109.558L141.053 134.984C141.055 134.986 113.053 160.706 97.9883 146.978Z" fill="#E2E2E2"/>
<path opacity="0.5" d="M97.847 147.207C109.088 159.291 127.888 148.391 143.132 135.491L166.49 112.163L183.055 95.0116L176.286 83.718L173.081 83.941L163.581 74.0209C163.581 74.0209 163.859 71.3298 163.577 71.0361C161.957 69.3617 152.814 63.9468 152.814 63.9468C152.814 63.9468 140.924 74.9227 135.571 79.8632C135.392 80.0287 111.328 101.982 111.039 102.276C97.2255 116.601 85.624 134.068 97.847 147.207ZM135.584 80.8827C135.913 80.4538 153.292 66.7088 153.292 66.7088C153.292 66.7088 160.39 71.7697 161.917 73.3513C162.193 73.6342 161.908 76.1867 161.908 76.1867L170.875 85.5499L173.923 85.3197L180.485 94.8499L165.584 111.897C151.692 125.701 151.233 125.617 142.184 134.509C127.158 146.931 108.176 157.012 98.409 146.361C88.6979 135.775 99.1286 117.603 112.056 103.332C112.598 102.821 135.459 81.2341 135.584 80.8827Z" fill="#CECECE"/>
<path opacity="0.5" d="M122.523 110.888L122.27 114.587L125.677 119.52L125.69 119.506L126.052 119.888L126.111 119.949L126.7 120.554L126.685 120.571L131.395 124.032L135.221 124.038C137.028 124.358 141.11 120.785 141.11 120.785L148.338 113.796L149.119 111.449L143.053 107.023L138.538 107.94L139.622 103.468L135.457 97.3087L133.184 98.1175L125.955 105.107C125.961 105.102 122.262 109.071 122.523 110.888Z" fill="#EFEFEF"/>
<path opacity="0.5" d="M131.702 100.914C131.496 101.146 130.31 106.35 130.31 106.35L139.413 115.884L145.108 114.904L145.584 114.444L145.822 114.215L146.058 113.986L148.443 111.681L134.98 97.7522C134.98 97.7484 131.913 100.686 131.702 100.914Z" fill="#C6C6C6"/>
<path opacity="0.5" d="M126.992 108.307L131.643 113.114L133.414 114.949L137.603 119.277C137.603 119.277 140.787 118.886 145.816 114.468C145.842 114.443 145.579 114.223 145.579 114.223C144.08 114.45 140.305 115.364 140.305 115.364L135.85 110.828L130.993 105.751C130.993 105.751 132.02 102.024 132.304 100.537C132.304 100.537 132.119 100.237 132.09 100.264C127.492 105.135 126.992 108.307 126.992 108.307Z" fill="#29ABE2"/>
<g opacity="0.5">
<path opacity="0.5" d="M145.976 110.766C147.911 108.896 141.895 102.388 139.798 104.411C137.961 106.186 143.949 112.726 145.976 110.766ZM145.419 110.232C144.037 111.566 139.065 106.188 140.32 104.983C141.746 103.603 146.738 108.96 145.419 110.232Z" fill="black"/>
<path opacity="0.5" d="M142.592 109.421C142.592 109.421 143.176 108.825 142.475 108.111C141.77 107.397 141.325 108.013 141.258 108.046C141.193 108.08 142.592 109.421 142.592 109.421Z" fill="black"/>
<path opacity="0.5" d="M142.529 108.503L144.187 107.261L143.268 106.309L142.033 107.989L142.529 108.503Z" fill="black"/>
<path opacity="0.5" d="M141.655 108.097C141.639 108.079 140.416 104.792 140.416 104.792L139.737 105.279L141.299 108.299L141.655 108.097Z" fill="black"/>
<path opacity="0.5" d="M142.488 108.958C142.504 108.973 145.716 110.271 145.716 110.271L145.124 110.846L142.294 109.323L142.488 108.958Z" fill="black"/>
</g>
<g opacity="0.5">
<path opacity="0.5" d="M112.056 103.332C112.056 103.332 119.651 111.072 113.046 120.787C106.444 130.5 96.0544 142.493 95.9295 142.846C95.8084 143.194 87.3944 128.77 112.056 103.332Z" fill="#E8CDA0"/>
<path opacity="0.5" d="M142.185 134.509C142.185 134.509 134.711 126.658 124.775 132.925C114.835 139.197 102.491 149.162 102.139 149.273C101.789 149.381 115.914 158.284 142.185 134.509Z" fill="#E8CDA0"/>
<path opacity="0.5" d="M174.033 102.581C174.033 102.581 172.668 105.01 171.516 102.48C167.739 94.1605 154.132 79.1288 145.01 75.2855C143.1 74.4817 143.467 74.168 144.429 73.3171C145.153 72.6819 153.292 66.7163 153.292 66.7163C153.292 66.7163 168.381 73.7611 180.487 94.8555L174.033 102.581Z" fill="#E8CDA0"/>
<path opacity="0.5" d="M143.569 88.0879C143.962 87.7041 145.606 87.8258 146.138 88.3695L158.268 100.927C158.799 101.475 158.111 102.336 157.708 102.715L153.525 106.76C153.127 107.144 152.53 107.534 151.994 106.983L139.864 94.4315C139.336 93.8819 138.982 92.5105 139.384 92.1261L143.569 88.0879Z" fill="#E8CDA0"/>
</g>
</g>
<path d="M196.614 98.6047L171.004 56.4686L120.223 86.2673C120.223 86.2673 76.2003 107.702 77.6041 142.192C106.492 158.815 145.984 130.931 145.984 130.931L196.614 98.6047Z" fill="#E5E5E5"/>
<path d="M88.3353 135.491C88.3353 135.491 76.4617 117.911 112.443 95.1658C148.42 72.4243 153.733 72.8323 153.733 72.8323L174.333 106.719L164.248 114.273L132.984 133.279C132.985 133.28 100.006 152.2 88.3353 135.491Z" fill="#E2E2E2"/>
<path d="M88.1469 135.684C96.4494 149.947 117.189 143.456 134.9 134.231L162.824 116.621L182.758 103.541L178.644 91.0333L175.469 90.5444L168.387 78.7761C168.387 78.7761 169.252 76.212 169.041 75.8642C167.83 73.8734 160.104 66.5777 160.104 66.5777C160.104 66.5777 146.089 74.6655 139.779 78.305C139.567 78.4272 111.258 94.5392 110.911 94.7636C94.2824 105.692 79.1182 120.175 88.1469 135.684ZM139.566 79.302C139.981 78.9556 159.961 69.3763 159.961 69.3763C159.961 69.3763 165.771 75.8762 166.912 77.7565C167.118 78.092 166.278 80.5193 166.278 80.5193L172.962 91.6283L175.986 92.0752L180.288 102.817L161.998 116.162C145.407 126.566 144.977 126.384 134.191 133.065C116.799 141.873 96.062 147.523 88.8811 134.982C81.7406 122.517 95.9179 107.09 111.671 96.0158C112.312 95.6377 139.368 79.6169 139.566 79.302Z" fill="#CECECE"/>
<path d="M120.218 105.692L119.156 109.245L121.392 114.807L121.408 114.796L121.677 115.249L121.72 115.32L122.163 116.04L122.144 116.055L125.975 120.468L129.706 121.317C131.398 122.027 136.167 119.441 136.167 119.441L144.757 114.216L146.037 112.098L141.094 106.446L136.487 106.344L138.53 102.222L135.824 95.2952L133.429 95.5837L124.838 100.809C124.846 100.805 120.363 103.862 120.218 105.692Z" fill="#EFEFEF"/>
<path d="M131.368 97.9844C131.116 98.1651 128.813 102.98 128.813 102.98L135.591 114.286L141.362 114.585L141.929 114.24L142.211 114.07L142.492 113.898L145.327 112.176L135.263 95.6229C135.263 95.6191 131.624 97.8077 131.368 97.9844Z" fill="#C6C6C6"/>
<path d="M125.144 104.159L128.622 109.874L129.945 112.054L133.079 117.197C133.079 117.197 136.27 117.518 142.149 114.316C142.18 114.298 141.971 114.024 141.971 114.024C140.459 113.916 136.577 113.977 136.577 113.977L133.229 108.57L129.611 102.548C129.611 102.548 131.433 99.1401 132.037 97.75C132.037 97.75 131.923 97.4177 131.889 97.437C126.331 101.176 125.144 104.159 125.144 104.159Z" fill="#29ABE2"/>
<path d="M143.121 110.739C145.421 109.343 140.986 101.669 138.494 103.179C136.312 104.508 140.711 112.205 143.121 110.739ZM142.695 110.096C141.053 111.093 137.388 104.752 138.877 103.853C140.574 102.82 144.262 109.145 142.695 110.096Z" fill="black"/>
<path d="M140.116 108.682C140.116 108.682 140.817 108.229 140.29 107.378C139.761 106.527 139.19 107.03 139.118 107.048C139.047 107.066 140.116 108.682 140.116 108.682Z" fill="black"/>
<path d="M140.257 107.773L142.148 106.926L141.461 105.796L139.887 107.163L140.257 107.773Z" fill="black"/>
<path d="M139.494 107.184C139.483 107.164 139.014 103.687 139.014 103.687L138.244 104.013L139.102 107.303L139.494 107.184Z" fill="black"/>
<path d="M140.117 108.208C140.13 108.226 142.977 110.199 142.977 110.199L142.272 110.63L139.848 108.521L140.117 108.208Z" fill="black"/>
<path d="M111.672 96.0157C111.672 96.0157 117.375 105.239 108.792 113.261C100.213 121.281 87.4361 130.691 87.2371 131.008C87.0434 131.32 82.0123 115.398 111.672 96.0157Z" fill="#E8CDA0"/>
<path d="M134.193 133.064C134.193 133.064 128.632 123.76 117.559 127.683C106.481 131.612 92.2472 138.613 91.8781 138.643C91.5127 138.672 103.329 150.467 134.193 133.064Z" fill="#E8CDA0"/>
<path d="M172.292 108.936C172.292 108.936 170.426 111.004 169.859 108.282C168.008 99.3351 158.046 81.6749 149.995 75.9165C148.309 74.7127 148.736 74.4863 149.861 73.8687C150.707 73.4083 159.961 69.3823 159.961 69.3823C159.961 69.3823 173.128 79.5784 180.29 102.822L172.292 108.936Z" fill="#E8CDA0"/>
<path d="M145.769 88.0879C146.237 87.8001 147.813 88.2816 148.212 88.9291L157.279 103.85C157.675 104.501 156.814 105.19 156.338 105.471L151.367 108.495C150.894 108.783 150.225 109.032 149.824 108.376L140.757 93.4602C140.364 92.8081 140.321 91.3918 140.796 91.1063L145.769 88.0879Z" fill="#E8CDA0"/>
<path d="M176.231 195.691H164.888V230.389H176.231V195.691Z" fill="#0C0C0C"/>
<path d="M196.603 226.51C189.83 214.791 183.067 203.069 176.301 191.347C175.758 190.408 175.229 189.457 174.666 188.529C173.433 186.498 171.362 185.52 169.205 185.978C167.572 186.325 166.444 187.358 165.626 188.775C160.705 197.301 155.782 205.826 150.86 214.35C148.473 218.486 146.078 222.618 143.702 226.76C142.169 229.434 142.876 232.44 145.348 233.861C146.318 234.419 147.376 234.594 148.482 234.593C155.708 234.587 162.933 234.591 170.159 234.591C171.472 234.591 172.785 234.591 174.099 234.591C180.125 234.589 186.149 234.599 192.174 234.584C195.02 234.576 197.119 232.886 197.496 230.329C197.698 228.95 197.291 227.701 196.603 226.51ZM173.33 195.847L172.382 218.519H168.174L167.28 195.847H173.33ZM170.306 228.618C168.446 228.618 166.939 227.111 166.939 225.252C166.939 223.393 168.446 221.885 170.306 221.885C172.164 221.885 173.672 223.392 173.672 225.252C173.672 227.111 172.165 228.618 170.306 228.618Z" fill="#070707"/>
<path d="M194.125 225.362C187.989 214.744 181.861 204.123 175.73 193.501C175.238 192.651 174.76 191.788 174.25 190.948C173.132 189.108 171.256 188.222 169.301 188.637C167.82 188.951 166.799 189.887 166.057 191.171C161.599 198.897 157.139 206.621 152.678 214.344C150.515 218.091 148.345 221.835 146.193 225.589C144.803 228.011 145.445 230.736 147.683 232.023C148.563 232.53 149.522 232.687 150.524 232.687C157.071 232.682 163.618 232.686 170.164 232.686C171.354 232.686 172.545 232.686 173.735 232.686C179.194 232.683 184.653 232.693 190.112 232.678C192.691 232.672 194.593 231.14 194.933 228.823C195.117 227.573 194.749 226.442 194.125 225.362ZM173.039 197.579L172.181 218.121H168.367L167.557 197.579H173.039ZM170.298 227.272C168.613 227.272 167.247 225.906 167.247 224.222C167.247 222.538 168.613 221.172 170.298 221.172C171.983 221.172 173.348 222.538 173.348 224.222C173.348 225.906 171.982 227.272 170.298 227.272Z" fill="#F9E132"/>
<rect x="315.138" y="15.9844" width="44.0746" height="25" rx="12.5" fill="#969696" fill-opacity="0.3"/>
<path d="M325.131 28.1895H325.979C326.448 28.1895 326.859 28.1074 327.209 27.9434C327.56 27.7747 327.827 27.5469 328.009 27.2598C328.196 26.9681 328.29 26.6331 328.29 26.2549C328.29 25.6169 328.11 25.1178 327.75 24.7578C327.389 24.3978 326.872 24.2178 326.198 24.2178C325.56 24.2178 325.036 24.4069 324.625 24.7852C324.22 25.1589 324.017 25.6533 324.017 26.2686H323.197C323.197 25.7536 323.327 25.2842 323.586 24.8604C323.846 24.432 324.206 24.1016 324.667 23.8691C325.127 23.6367 325.637 23.5205 326.198 23.5205C327.1 23.5205 327.811 23.7666 328.331 24.2588C328.85 24.751 329.11 25.4255 329.11 26.2822C329.11 26.7607 328.957 27.2028 328.652 27.6084C328.351 28.0094 327.936 28.3102 327.408 28.5107C328.028 28.6839 328.497 28.9824 328.816 29.4062C329.135 29.8255 329.294 30.3268 329.294 30.9102C329.294 31.7624 329.016 32.4482 328.46 32.9678C327.904 33.4873 327.162 33.7471 326.232 33.7471C325.639 33.7471 325.095 33.6286 324.598 33.3916C324.106 33.1546 323.723 32.8242 323.45 32.4004C323.181 31.972 323.046 31.4753 323.046 30.9102H323.867C323.867 31.5436 324.088 32.0609 324.53 32.4619C324.972 32.8584 325.539 33.0566 326.232 33.0566C326.938 33.0566 327.487 32.8766 327.879 32.5166C328.276 32.152 328.474 31.6257 328.474 30.9375C328.474 30.2721 328.26 29.764 327.832 29.4131C327.408 29.0622 326.781 28.8867 325.952 28.8867H325.131V28.1895ZM331.092 34.4648H330.347L334.503 23.6572H335.242L331.092 34.4648ZM340.451 33.6104H339.63V24.6416L336.923 25.6465V24.8809L340.314 23.623H340.451V33.6104ZM348.216 33.6104H347.396V24.6416L344.689 25.6465V24.8809L348.08 23.623H348.216V33.6104Z" fill="black"/>
</g>
<defs>
<linearGradient id="paint0_linear" x1="298.471" y1="73.177" x2="99.6401" y2="288.009" gradientUnits="userSpaceOnUse">
<stop stop-color="white" stop-opacity="0.8"/>
<stop offset="0.9306" stop-color="white" stop-opacity="0"/>
</linearGradient>
<linearGradient id="paint1_linear" x1="271.444" y1="104.031" x2="105.847" y2="282.955" gradientUnits="userSpaceOnUse">
<stop stop-color="white" stop-opacity="0.8"/>
<stop offset="1" stop-color="white" stop-opacity="0"/>
</linearGradient>
<linearGradient id="paint2_linear" x1="271.444" y1="104.031" x2="105.847" y2="282.955" gradientUnits="userSpaceOnUse">
<stop stop-color="white" stop-opacity="0.8"/>
<stop offset="1" stop-color="white" stop-opacity="0"/>
</linearGradient>
<clipPath id="clip0">
<rect width="375" height="375" fill="white" transform="translate(0.137695 0.984375)"/>
</clipPath>
</defs>
</svg>
