<svg width="376" height="376" viewBox="0 0 376 376" fill="none" xmlns="http://www.w3.org/2000/svg">
<g clip-path="url(#clip0)">
<path d="M390.606 -0.421875H-3.1438V394.734H390.606V-0.421875Z" fill="#8BF6FF"/>
<path d="M184.466 239.776C184.466 239.76 184.465 239.745 184.465 239.729H184.443L184.466 239.776Z" fill="#F80606"/>
<path d="M191.488 239.729C191.488 239.744 191.488 239.759 191.488 239.776V239.729Z" fill="#F80606"/>
<path d="M143.584 183.793C116.112 179.925 98.4143 160.36 98.3125 132.704H103.302L94.983 120.586L86.6622 132.704H91.075V133.172H91.1829C91.5864 164.579 112.516 185.143 143.583 190.321C166.69 194.172 184.445 211.922 184.465 239.579H191.487C191.466 208.172 169.602 187.457 143.584 183.793Z" fill="#F80606"/>
<path d="M191.747 239.212C191.747 239.197 191.748 239.182 191.748 239.166H191.77L191.747 239.212Z" fill="#F80606"/>
<path d="M184.725 239.166C184.726 239.181 184.725 239.196 184.725 239.212V239.166Z" fill="#F80606"/>
<path d="M232.628 183.324C260.101 179.456 277.798 159.891 277.9 132.235H272.91L281.23 120.117L289.55 132.235H285.137V132.704H285.03C284.627 164.11 263.697 184.674 232.63 189.852C209.522 193.703 191.768 211.454 191.747 239.11H184.726C184.747 207.235 206.61 186.988 232.628 183.324Z" fill="#F80606"/>
<path d="M219.618 365.118C219.101 361.712 221.298 352.979 220.435 347.019C219.572 341.058 215.642 335.182 214.61 329.938C213.579 324.695 214.933 320.594 213.728 314.294C212.524 307.995 208.258 304.249 207.057 299.823C205.857 295.397 205.464 287.312 202.835 284.118C200.208 280.925 185.813 282.192 185.813 282.192C185.813 282.192 174.829 281.695 172.803 284.176C170.188 287.38 169.825 295.466 168.641 299.897C167.458 304.328 163.206 308.089 162.026 314.394C160.847 320.699 162.216 324.795 161.205 330.042C160.193 335.289 156.287 341.181 155.446 347.143C154.606 353.108 156.837 361.832 156.333 365.24C155.828 368.648 153.284 374.189 152.444 379.982L186.852 379.915L189.157 379.91L223.564 379.843C222.701 374.056 220.135 368.524 219.618 365.118Z" fill="url(#paint0_linear)"/>
<path opacity="0.5" d="M209.057 365.139C208.54 361.732 210.737 352.999 209.873 347.038C209.01 341.078 205.08 335.202 204.049 329.959C203.016 324.715 204.371 320.614 203.167 314.314C201.962 308.014 197.696 304.269 196.496 299.843C195.295 295.416 194.902 287.332 192.274 284.138C189.646 280.945 187.175 282.189 187.175 282.189C187.175 282.189 185.048 281.675 183.023 284.156C180.408 287.359 180.045 295.446 178.862 299.876C177.679 304.307 173.427 308.069 172.247 314.374C171.066 320.678 172.437 324.774 171.425 330.022C170.413 335.268 166.507 341.16 165.666 347.123C164.826 353.087 167.058 361.812 166.553 365.219C166.049 368.627 163.505 374.168 162.664 379.961L188.216 379.912L190.519 379.907L213.005 379.865C212.14 374.076 209.575 368.544 209.057 365.139Z" fill="url(#paint1_linear)"/>
<path d="M173.726 307.273L202.04 307.219L202.498 273.492C202.498 273.492 205.056 245.531 187.698 235.968C170.946 245.216 172.9 272.847 172.9 272.847L173.726 307.273Z" fill="#D1D1D1"/>
<path d="M187.614 243.269C187.614 243.269 199.872 242.773 200.348 267.208C200.822 291.643 199.135 294.243 199.135 294.243L176.361 294.287L175.28 286.869L175.24 265.862C175.24 265.86 175.936 244.035 187.614 243.269Z" fill="#F4F4F4"/>
<path d="M187.759 243.119C178.284 242.958 175.307 255.076 174.568 266.518L174.918 285.473L175.42 299.154L182.786 300.85L183.971 299.434L191.857 299.454C191.857 299.454 192.856 300.639 193.095 300.639C194.433 300.637 200.314 299.01 200.314 299.01C200.314 299.01 200.506 289.72 200.597 285.539C200.599 285.398 201.101 266.702 201.094 266.467C200.667 255.049 198.062 243.295 187.759 243.119ZM200.167 285.138C200.215 285.446 198.981 298.109 198.981 298.109C198.981 298.109 194.061 299.03 192.798 299.032C192.573 299.033 191.63 297.9 191.63 297.9L184.185 297.88L183.066 299.233L176.511 298.153L175.393 285.202C175.214 273.959 175.433 273.801 175.357 266.516C176.202 255.354 179.589 243.491 187.887 243.689C196.131 243.887 199.496 255.438 200.251 266.469C200.246 266.896 200.071 284.948 200.167 285.138Z" fill="#E8E8E8"/>
<path d="M187.904 265.641L187.908 265.527L184.132 266.098L182.594 267.681C181.74 268.299 181.582 271.411 181.582 271.411L181.594 277.183L182.192 278.441L186.41 277.697L187.947 275.313L187.918 273.334L187.904 265.641Z" fill="white"/>
<path d="M187.827 265.642L187.909 265.527L191.468 266.084L192.983 267.66C193.84 268.276 193.98 271.387 193.98 271.387L193.992 277.159L193.454 278.419L189.263 277.69L187.77 275.312L187.838 273.333L187.827 265.642Z" fill="white"/>
<path d="M193.428 275.682C193.417 275.504 191.736 272.879 191.736 272.879L184.128 272.813L182.225 275.529L182.226 275.91L182.226 276.099L182.226 276.289L182.23 278.446L193.433 278.424C193.432 278.424 193.439 275.861 193.428 275.682Z" fill="#C6C6C6"/>
<path d="M191.988 311.462C191.986 312.024 191.529 312.48 190.966 312.477L185.04 312.457C184.478 312.454 184.023 311.997 184.025 311.434L184.056 302.33C184.058 301.768 184.515 301.313 185.078 301.315L191.004 301.337C191.566 301.338 192.02 301.795 192.018 302.358L191.988 311.462Z" fill="#394963"/>
<path d="M192.246 270.511L188.405 270.518L186.942 270.522L183.481 270.529C183.481 270.529 182.375 272.079 182.202 275.916C182.2 275.939 182.4 275.957 182.4 275.957C182.902 275.247 184.025 273.34 184.025 273.34L187.679 273.314L191.713 273.329C191.713 273.329 192.842 275.241 193.348 275.949C193.348 275.949 193.548 275.917 193.547 275.894C193.357 272.057 192.246 270.511 192.246 270.511Z" fill="#29ABE2"/>
<path d="M183.668 277.54C183.672 279.083 188.761 279.185 188.756 277.515C188.754 276.049 183.666 275.921 183.668 277.54ZM184.111 277.521C184.109 276.418 188.313 276.504 188.314 277.505C188.316 278.642 184.114 278.574 184.111 277.521Z" fill="black"/>
<path d="M185.573 276.674C185.573 276.674 185.586 277.156 186.161 277.149C186.737 277.141 186.659 276.714 186.672 276.672C186.683 276.631 185.573 276.674 185.573 276.674Z" fill="black"/>
<path d="M185.978 277.17L185.832 278.437L186.592 278.436L186.387 277.17L185.978 277.17Z" fill="black"/>
<path d="M186.493 276.815C186.505 276.815 188.354 277.619 188.354 277.619L188.424 277.144L186.552 276.589L186.493 276.815Z" fill="black"/>
<path d="M185.722 276.816C185.71 276.816 183.811 277.627 183.811 277.627L183.811 277.152L185.609 276.59L185.722 276.816Z" fill="black"/>
<path d="M200.252 266.468C200.252 266.468 194.029 266.528 192.639 259.927C191.248 253.326 190.424 244.253 190.327 244.064C190.232 243.875 199.547 246.137 200.252 266.468Z" fill="#E8CDA0"/>
<path d="M175.358 266.515C175.358 266.515 181.581 266.551 182.946 259.945C184.311 253.339 185.101 244.263 185.196 244.074C185.29 243.884 175.983 246.182 175.358 266.515Z" fill="#E8CDA0"/>
<path d="M175.883 292.406C175.883 292.406 175.424 290.875 176.926 291.406C181.871 293.154 193.51 293.512 198.731 291.27C199.826 290.8 199.81 291.076 199.778 291.814C199.753 292.368 198.982 298.11 198.982 298.11C198.982 298.11 190.058 301.547 176.512 298.154L175.883 292.406Z" fill="#E8CDA0"/>
<path d="M193.64 285.575C193.642 285.893 193.306 286.023 192.867 286.023L182.843 286.043C182.404 286.044 181.928 285.915 181.927 285.599L181.92 282.255C181.92 281.939 182.395 281.611 182.834 281.611L192.857 281.592C193.298 281.59 193.634 281.915 193.635 282.233L193.64 285.575Z" fill="#E8CDA0"/>
<path d="M184.042 279.228C184.042 279.228 184.583 278.554 184.837 279.626C185.092 280.697 185.586 281.767 185.586 281.767C185.586 281.767 186.738 281.431 186.894 281.116C187.051 280.8 186.916 279.363 187.915 279C188.914 278.638 189.364 278.41 188.941 279.921C188.518 281.433 188.364 282.499 188.364 282.499L184.209 283.431L184.043 279.465" fill="#996234"/>
<path d="M184.573 282.826C184.573 282.826 183.055 280.582 183.862 280.663C184.671 280.744 184.252 281.365 185.278 281.416C186.305 281.467 186.164 280.674 187.424 281.103C188.684 281.532 189.153 281.152 188.943 281.838C188.733 282.523 188.687 282.818 188.687 282.818L184.573 282.826Z" fill="#EF45B7"/>
<path d="M183.37 283.052C183.37 283.052 183.297 281.262 183.247 280.799C183.156 279.932 183.889 278.134 183.889 277.805C183.888 277.477 183.94 277.132 184.375 277.619C184.81 278.106 184.386 279.74 184.203 280.559C184.019 281.377 184.551 282.372 184.573 282.635C184.593 282.899 184.048 282.521 184.048 282.521L183.37 283.052Z" fill="#996234"/>
<path d="M188.995 283.155C188.995 283.155 189.553 281.25 189.601 280.787C189.689 279.92 188.948 278.125 188.947 277.796C188.947 277.468 188.895 277.123 188.46 277.611C188.027 278.099 188.457 279.732 188.644 280.551C188.83 281.369 187.941 282.283 187.92 282.547C187.902 282.81 188.807 282.512 188.807 282.512L188.995 283.155Z" fill="#996234"/>
<path d="M182.576 283.054C182.576 283.054 182.917 285.271 184.289 285.717C185.662 286.163 186.136 286.318 187.368 285.783C188.599 285.247 189.253 285.539 189.157 284.427C189.062 283.316 189.806 282.739 188.737 282.566C187.586 282.381 184.495 282.176 184.282 282.151C182.971 281.999 182.576 283.054 182.576 283.054Z" fill="#8BC7E8"/>
<path d="M185.927 285.713C185.927 285.713 184.681 285.593 184.866 284.565C185.05 283.539 184.504 283.164 185.383 282.841C186.262 282.518 186.697 281.659 187.087 282.516C187.476 283.372 187.758 283.828 187.478 284.431C187.199 285.035 187.258 285.182 186.903 285.565C186.548 285.947 185.927 285.713 185.927 285.713Z" fill="#301705"/>
<path d="M221.807 160.36C220.922 153.99 216.853 147.988 215.79 142.539C214.729 137.09 216.145 132.8 214.906 126.253C213.667 119.705 209.243 115.79 208.004 111.189C206.765 106.588 206.373 98.181 203.65 94.8585C200.925 91.5364 185.97 92.8185 185.97 92.8185C185.97 92.8185 174.561 92.2789 172.451 94.8519C169.727 98.1739 169.335 106.573 168.096 111.173C166.858 115.774 162.434 119.672 161.195 126.22C159.956 132.767 161.372 137.09 160.31 142.539C159.248 147.988 155.179 153.989 154.294 160.36L221.807 160.36Z" fill="url(#paint2_linear)"/>
<path opacity="0.8" d="M212.275 158.016C211.334 151.454 207.01 144.979 205.881 139.189C204.753 133.399 206.257 128.895 204.941 121.937C203.624 114.979 198.923 110.847 197.607 105.958C196.29 101.069 195.874 92.1479 192.98 88.6173C190.085 85.0871 187.355 86.4568 187.355 86.4568C187.355 86.4568 185.009 85.8863 182.768 88.6215C179.873 92.1516 179.457 101.078 178.14 105.967C176.823 110.856 172.123 114.999 170.806 121.957C169.49 128.914 170.995 133.399 169.867 139.189C168.738 144.979 164.414 151.454 163.473 158.016H212.275Z" fill="url(#paint3_linear)"/>
<path d="M173.365 118.845H202.778L203.32 83.8101C203.32 83.8101 206.034 54.7692 188.022 44.7998C170.601 54.3736 172.574 83.0812 172.574 83.0812L173.365 118.845Z" fill="#D1D1D1"/>
<path d="M187.919 52.3854C187.919 52.3854 200.656 51.8951 201.099 77.2793C201.543 102.664 199.785 105.361 199.785 105.361H176.128L175.02 97.6526V75.829C175.02 75.8281 175.786 53.1565 187.919 52.3854Z" fill="#F4F4F4"/>
<path d="M188.071 52.2286C178.228 52.0416 175.112 64.6242 174.321 76.5094L174.646 96.2002L175.141 110.413L182.79 112.189L184.024 110.722L192.216 110.759C192.216 110.759 193.252 111.992 193.499 111.992C194.889 111.992 201.001 110.314 201.001 110.314C201.001 110.314 201.219 100.665 201.322 96.3216C201.325 96.1749 201.884 76.7536 201.877 76.5089C201.456 64.6477 198.773 52.4325 188.071 52.2286ZM200.877 95.9044C200.926 96.2255 199.618 109.377 199.618 109.377C199.618 109.377 194.506 110.324 193.193 110.324C192.96 110.324 191.982 109.144 191.982 109.144L184.247 109.11L183.083 110.513L176.275 109.378L175.141 95.9208C174.976 84.241 175.205 84.0769 175.141 76.5099C176.04 64.9158 179.583 52.5989 188.202 52.8216C196.767 53.0433 200.239 65.0494 201.001 76.5099C200.995 76.9538 200.778 95.7071 200.877 95.9044Z" fill="#E8E8E8"/>
<path d="M188.175 75.6254L188.181 75.5068L184.257 76.0918L182.656 77.7325C181.768 78.3742 181.597 81.6062 181.597 81.6062V87.6025L182.218 88.9103L186.6 88.1453L188.202 85.6712L188.175 83.6167V75.6254Z" fill="white"/>
<path d="M188.096 75.6259L188.182 75.5068L191.878 76.0918L193.451 77.7325C194.339 78.3742 194.479 81.6062 194.479 81.6062V87.6025L193.918 88.9103L189.566 88.1453L188.019 85.6712L188.093 83.6162L188.096 75.6259Z" fill="white"/>
<path d="M193.894 86.0684C193.883 85.8832 192.143 83.1518 192.143 83.1518L184.239 83.0693L182.256 85.8865V86.2817V86.479V86.6764V88.9161H193.895C193.894 88.9156 193.907 86.2536 193.894 86.0684Z" fill="#C6C6C6"/>
<path d="M192.327 123.234C192.325 123.818 191.849 124.289 191.264 124.286L185.107 124.254C184.524 124.25 184.053 123.774 184.055 123.189L184.106 113.732C184.109 113.148 184.585 112.677 185.17 112.68L191.326 112.713C191.91 112.716 192.38 113.192 192.378 113.776L192.327 123.234Z" fill="#394963"/>
<path d="M192.677 80.6934H188.687H187.166H183.571C183.571 80.6934 182.419 82.3021 182.231 86.2879C182.23 86.3109 182.437 86.3301 182.437 86.3301C182.961 85.5937 184.131 83.6146 184.131 83.6146L187.927 83.5963L192.117 83.6202C192.117 83.6202 193.287 85.6077 193.811 86.3441C193.811 86.3441 194.018 86.3109 194.017 86.2874C193.829 82.3016 192.677 80.6934 192.677 80.6934Z" fill="#29ABE2"/>
<path d="M183.753 87.9776C183.753 89.5812 189.039 89.6969 189.039 87.9625C189.039 86.4391 183.753 86.2957 183.753 87.9776ZM184.213 87.9597C184.213 86.8132 188.578 86.9111 188.578 87.9499C188.58 89.1321 184.213 89.0529 184.213 87.9597Z" fill="black"/>
<path d="M185.734 87.0826C185.734 87.0826 185.746 87.5824 186.345 87.5758C186.943 87.5697 186.862 87.1258 186.875 87.0826C186.887 87.0395 185.734 87.0826 185.734 87.0826Z" fill="black"/>
<path d="M186.152 87.5996L185.999 88.9149H186.788L186.578 87.5996H186.152Z" fill="black"/>
<path d="M186.689 87.2305C186.702 87.2305 188.62 88.0695 188.62 88.0695L188.695 87.5764L186.751 86.9961L186.689 87.2305Z" fill="black"/>
<path d="M185.887 87.2305C185.876 87.2305 183.901 88.0695 183.901 88.0695V87.5764L185.77 86.9961L185.887 87.2305Z" fill="black"/>
<path d="M201.002 76.5093C201.002 76.5093 194.537 76.5585 193.105 69.6988C191.674 62.8391 190.836 53.413 190.736 53.2157C190.638 53.0183 200.311 55.3874 201.002 76.5093Z" fill="#E8CDA0"/>
<path d="M175.141 76.5093C175.141 76.5093 181.606 76.5585 183.037 69.6988C184.468 62.8391 185.307 53.413 185.406 53.2157C185.504 53.0183 175.832 55.3874 175.141 76.5093Z" fill="#E8CDA0"/>
<path d="M175.635 103.405C175.635 103.405 175.162 101.814 176.72 102.369C181.853 104.195 193.944 104.589 199.372 102.271C200.51 101.784 200.493 102.071 200.457 102.838C200.432 103.413 199.618 109.376 199.618 109.376C199.618 109.376 190.34 112.93 176.276 109.376L175.635 103.405Z" fill="#E8CDA0"/>
<path d="M194.095 96.345C194.095 96.6741 193.746 96.8091 193.289 96.8091H182.876C182.42 96.8091 181.926 96.6741 181.926 96.345V92.8716C181.926 92.5425 182.42 92.2041 182.876 92.2041H193.289C193.747 92.2041 194.095 92.5425 194.095 92.8716V96.345Z" fill="#E8CDA0"/>
<path d="M184.137 89.7325C184.137 89.7325 184.7 89.0331 184.962 90.1464C185.224 91.2597 185.736 92.3735 185.736 92.3735C185.736 92.3735 186.933 92.0266 187.095 91.6989C187.259 91.3713 187.123 89.8788 188.16 89.5038C189.198 89.1292 189.667 88.8935 189.224 90.4624C188.782 92.0317 188.62 93.1389 188.62 93.1389L184.302 94.0999L184.137 89.9791" fill="#996234"/>
<path d="M184.682 93.3286C184.682 93.3286 183.109 91.0655 183.949 91.1508C184.788 91.237 184.352 91.9167 185.419 91.972C186.484 92.0278 186.34 91.2216 187.648 91.6697C188.957 92.1178 189.445 91.6603 189.225 92.3728C189.004 93.0848 188.957 93.3286 188.957 93.3286H184.682Z" fill="#EF45B7"/>
<path d="M183.43 93.704C183.43 93.704 183.358 91.8436 183.308 91.3626C183.214 90.4631 183.98 88.5965 183.98 88.2553C183.98 87.914 184.035 87.5564 184.486 88.0621C184.937 88.5684 184.494 90.2662 184.301 91.1165C184.108 91.9659 184.66 93.0009 184.681 93.2742C184.702 93.5475 184.136 93.1542 184.136 93.1542L183.43 93.704Z" fill="#996234"/>
<path d="M189.275 93.8221C189.275 93.8221 189.859 91.8435 189.91 91.3626C190.003 90.4631 189.237 88.5965 189.237 88.2553C189.237 87.914 189.184 87.5564 188.732 88.0621C188.281 88.5684 188.723 90.2662 188.916 91.1165C189.109 91.9659 188.182 92.9151 188.161 93.1884C188.141 93.4617 189.082 93.1537 189.082 93.1537L189.275 93.8221Z" fill="#996234"/>
<path d="M182.607 93.7036C182.607 93.7036 182.955 96.0061 184.381 96.473C185.807 96.9399 186.299 97.1011 187.579 96.5476C188.86 95.9935 189.538 96.2986 189.441 95.1436C189.344 93.9891 190.118 93.3905 189.009 93.2096C187.814 93.0146 184.603 92.7952 184.381 92.769C183.019 92.6086 182.607 93.7036 182.607 93.7036Z" fill="#8BC7E8"/>
<path d="M186.081 96.4729C186.081 96.4729 184.788 96.3454 184.982 95.2781C185.175 94.2112 184.608 93.8217 185.522 93.4875C186.436 93.1532 186.889 92.2621 187.292 93.1532C187.695 94.0439 187.986 94.5168 187.695 95.1431C187.405 95.7698 187.465 95.9226 187.095 96.3197C186.727 96.7172 186.081 96.4729 186.081 96.4729Z" fill="#301705"/>
<rect x="315.137" y="15.9844" width="45.0996" height="25" rx="12.5" fill="#969696" fill-opacity="0.3"/>
<path d="M323.249 33.6104H322.428V24.6416L319.721 25.6465V24.8809L323.112 23.623H323.249V33.6104ZM331.014 33.6104H330.194V24.6416L327.487 25.6465V24.8809L330.877 23.623H331.014V33.6104ZM334.986 34.4648H334.241L338.397 23.6572H339.135L334.986 34.4648ZM344.344 33.6104H343.524V24.6416L340.817 25.6465V24.8809L344.208 23.623H344.344V33.6104ZM352.11 33.6104H351.29V24.6416L348.583 25.6465V24.8809L351.973 23.623H352.11V33.6104Z" fill="black"/>
</g>
<defs>
<linearGradient id="paint0_linear" x1="187.82" y1="283.251" x2="188.004" y2="379.915" gradientUnits="userSpaceOnUse">
<stop stop-color="white" stop-opacity="0.8"/>
<stop offset="0.9306" stop-color="white" stop-opacity="0"/>
</linearGradient>
<linearGradient id="paint1_linear" x1="187.651" y1="283.251" x2="187.834" y2="379.915" gradientUnits="userSpaceOnUse">
<stop stop-color="white" stop-opacity="0.8"/>
<stop offset="1" stop-color="white" stop-opacity="0"/>
</linearGradient>
<linearGradient id="paint2_linear" x1="188.05" y1="93.4745" x2="188.05" y2="160.36" gradientUnits="userSpaceOnUse">
<stop stop-color="white" stop-opacity="0.8"/>
<stop offset="0.9306" stop-color="white" stop-opacity="0"/>
</linearGradient>
<linearGradient id="paint3_linear" x1="187.874" y1="87.148" x2="187.874" y2="158.016" gradientUnits="userSpaceOnUse">
<stop stop-color="white" stop-opacity="0.8"/>
<stop offset="1" stop-color="white" stop-opacity="0"/>
</linearGradient>
<clipPath id="clip0">
<rect width="375" height="375" fill="white" transform="translate(0.137451 0.984375)"/>
</clipPath>
</defs>
</svg>
