<svg width="376" height="376" viewBox="0 0 376 376" fill="none" xmlns="http://www.w3.org/2000/svg">
<g clip-path="url(#clip0)">
<path d="M-1.49854 -33.2266H379.333L379.8 223.682H-1.03119L-1.49854 -33.2266Z" fill="url(#paint0_linear)"/>
<path d="M251.919 93.754L251.093 92.9647C251.093 92.9647 285.483 76.6972 308.267 110.968C307.934 111.724 251.919 93.754 251.919 93.754Z" fill="#D1D1D1"/>
<path d="M248.378 112.838L249.374 117.82L299.585 129.085L308.266 110.969L251.092 92.9648L248.378 112.838Z" fill="#D1D1D1"/>
<path d="M260.062 97.4074L299.213 109.828L301.623 102.232L262.472 89.8112L260.062 97.4074Z" fill="#D1D1D1"/>
<path d="M276.732 81.0606C276.722 81.0841 277.171 80.7634 277.171 80.7634C278.196 80.252 280.596 78.7666 280.596 78.7666L286.285 80.5506L292.55 82.5658C292.55 82.5658 293.651 85.1725 294.195 86.1808C294.195 86.1808 294.311 86.6636 294.316 86.6392C295.536 82.7959 295.037 80.2183 291.996 79.2531L283.095 76.4294C279.84 75.5298 277.895 77.2675 276.732 81.0606Z" fill="#29ABE2"/>
<path d="M269.739 102.678C268.799 105.639 270.281 108.751 273.048 109.629L281.112 112.188C283.879 113.066 286.884 111.377 287.823 108.416L294.202 88.3101C295.142 85.349 293.661 82.237 290.893 81.359L282.829 78.8006C280.062 77.9226 277.058 79.611 276.118 82.5721L269.739 102.678Z" fill="#D1D1D1"/>
<path d="M260.812 92.5317C260.666 92.9934 260.921 93.4875 261.383 93.6338L299.913 105.859C300.374 106.005 300.867 105.75 301.014 105.287C301.161 104.825 300.905 104.331 300.443 104.185L261.914 91.9603C261.453 91.8136 260.959 92.0695 260.812 92.5317Z" fill="#E8CDA0"/>
<path d="M283.103 83.6544L282.849 83.8955L287.893 89.2077L288.147 88.9666L283.103 83.6544Z" fill="#969696"/>
<path d="M281.735 87.238L281.816 87.5781L288.942 85.8816L288.861 85.5415L281.735 87.238Z" fill="#969696"/>
<path d="M287.345 80.8396C284.194 79.8397 280.828 81.5835 279.828 84.7354C278.827 87.8872 280.573 91.2524 283.724 92.2527C286.876 93.253 290.241 91.5088 291.241 88.3564C292.241 85.205 290.496 81.8399 287.345 80.8396ZM283.977 91.4539C281.266 90.5938 279.766 87.6993 280.626 84.9889C281.486 82.2786 284.381 80.7786 287.091 81.6388C289.801 82.4989 291.301 85.3935 290.442 88.1038C289.581 90.8136 286.687 92.3136 283.977 91.4539Z" fill="black" stroke="black" stroke-miterlimit="10"/>
<path d="M286.071 81.4243C286.096 81.428 286.792 81.5644 286.631 82.1124C286.469 82.6608 286.331 83.0986 286.331 83.0986C286.331 83.0986 286.162 83.5463 286.421 83.6283C286.446 83.6363 286.634 83.6963 286.655 83.7029C286.871 83.7713 286.958 83.5196 287.022 83.3086C287.093 83.0804 287.332 82.3744 287.332 82.3744C287.332 82.3744 287.534 81.9099 288.046 82.0725C288.573 82.2389 287.997 81.8471 287.997 81.8471L286.34 81.3291L286.071 81.4243Z" fill="black" stroke="black" stroke-miterlimit="10"/>
<path d="M281.306 83.6131C281.323 83.5934 281.771 83.0595 282.166 83.4739C282.56 83.8878 282.832 84.184 282.832 84.184C282.832 84.184 283.098 84.5145 283.298 84.3307C283.318 84.3129 283.464 84.1803 283.481 84.1653C283.647 84.0125 283.51 83.8521 283.361 83.6909C283.198 83.5161 282.725 82.9761 282.725 82.9761C282.725 82.9761 282.364 82.5547 282.785 82.2195C283.215 81.8773 282.615 82.1525 282.615 82.1525L281.34 83.3309L281.306 83.6131Z" fill="black" stroke="black" stroke-miterlimit="10"/>
<path d="M280.868 88.7147C280.859 88.6912 280.622 88.035 281.177 87.9009C281.733 87.7669 282.125 87.6787 282.125 87.6787C282.125 87.6787 282.544 87.6136 282.486 87.3478C282.48 87.322 282.437 87.1289 282.433 87.1073C282.385 86.8866 282.178 86.9255 281.963 86.9747C281.73 87.0277 281.026 87.1678 281.026 87.1678C281.026 87.1678 280.509 87.1894 280.393 86.6639C280.275 86.1248 280.257 86.8514 280.257 86.8514L280.64 88.5445L280.868 88.7147Z" fill="black"/>
<path d="M285.213 91.6829C285.188 91.6787 284.501 91.5563 284.663 91.0079C284.825 90.4599 284.956 90.0399 284.956 90.0399C284.956 90.0399 285.121 89.6096 284.861 89.5271C284.836 89.5191 284.648 89.4596 284.627 89.4526C284.412 89.3841 284.329 89.6185 284.265 89.829C284.195 90.0577 283.958 90.7552 283.958 90.7552C283.958 90.7552 283.691 91.254 283.167 91.0847C282.642 90.9151 283.296 91.276 283.296 91.276L284.953 91.793L285.213 91.6829Z" fill="black" stroke="black" stroke-miterlimit="10"/>
<path d="M289.797 89.4474C289.781 89.4671 289.332 90.0005 288.938 89.5866C288.543 89.1722 288.271 88.876 288.271 88.876C288.271 88.876 288.005 88.546 287.804 88.7293C287.785 88.7471 287.639 88.8802 287.622 88.8952C287.455 89.0475 287.592 89.2078 287.743 89.3691C287.905 89.5444 288.378 90.0844 288.378 90.0844C288.378 90.0844 288.652 90.5447 288.255 90.9075C287.848 91.2797 288.489 90.9085 288.489 90.9085L289.764 89.73L289.797 89.4474Z" fill="black" stroke="black" stroke-miterlimit="10"/>
<path d="M290.155 84.2686C290.165 84.292 290.402 84.9482 289.847 85.0823C289.291 85.2164 288.898 85.305 288.898 85.305C288.405 85.3814 288.575 85.8032 288.538 85.635C288.532 85.6097 288.585 85.8534 288.59 85.8759C288.639 86.0967 288.846 86.0582 289.061 86.0086C289.293 85.9551 289.998 85.8154 289.998 85.8154C289.998 85.8154 290.554 85.8276 290.669 86.3526C290.788 86.8921 290.767 86.1314 290.767 86.1314L290.383 84.4382L290.155 84.2686Z" fill="black" stroke="black" stroke-miterlimit="10"/>
<path d="M286.024 85.2662C285.306 85.0389 284.541 85.4355 284.314 86.1527C284.086 86.8698 284.482 87.6358 285.201 87.8631C285.916 88.09 286.683 87.6934 286.911 86.9762C287.137 86.2595 286.74 85.4941 286.024 85.2662ZM285.404 87.2172C285.044 87.1028 284.845 86.718 284.959 86.3575C285.073 85.997 285.458 85.7978 285.818 85.9122C286.179 86.0266 286.378 86.4109 286.263 86.7714C286.149 87.1319 285.764 87.3316 285.404 87.2172Z" fill="#969696"/>
<path d="M285.642 87.2767C286.073 87.2767 286.423 86.9268 286.423 86.4953C286.423 86.0637 286.073 85.7139 285.642 85.7139C285.21 85.7139 284.86 86.0637 284.86 86.4953C284.86 86.9268 285.21 87.2767 285.642 87.2767Z" fill="black"/>
<path d="M285.233 92.3508C285.233 92.3508 286.336 97.7142 284.875 97.2586C283.416 96.802 283.914 96.3919 282.036 95.8987C280.157 95.4051 280.62 96.3286 278.475 95.1051C276.33 93.8798 275.294 94.3397 275.983 93.2601C276.674 92.1825 278.198 90.3633 278.198 90.3633L285.233 92.3508Z" fill="#EF45B7"/>
<path d="M278.145 90.487C278.145 90.487 277.788 86.6756 277.642 85.6945C277.37 83.8574 278.43 79.9457 278.387 79.2454C278.344 78.5437 278.39 77.8049 279.219 78.7963C280.048 79.7887 279.51 83.3198 279.292 85.0856C279.074 86.8499 280.139 88.9157 280.209 89.4749C280.278 90.0351 279.272 89.2851 279.272 89.2851L278.145 90.487Z" fill="#996234"/>
<path d="M285.224 92.8397C285.224 92.8397 287.864 89.5879 288.364 88.7311C289.301 87.127 289.774 83.1028 290.075 82.4681C290.376 81.8334 290.609 81.1303 289.471 81.742C288.333 82.3542 287.514 85.8309 287.058 87.5508C286.604 89.2701 284.348 90.3581 284.074 90.8508C283.801 91.3443 285.516 91.4564 285.516 91.4564L285.224 92.8397Z" fill="#996234"/>
<path d="M289.826 87.4719C289.826 87.4719 292.016 82.9301 289.556 81.1742C287.438 79.662 285.889 78.0861 283.49 78.5914C281.09 79.0972 280.289 78.3097 279.286 80.4692C278.335 82.5167 276.329 83.8662 278.217 84.2075C279.436 84.4278 276.981 90.4775 277.304 90.62C279.711 91.6765 285.315 93.1329 285.621 93.2684C285.758 93.3289 287.121 87.7381 287.25 87.7826C289.121 88.4436 289.826 87.4719 289.826 87.4719Z" fill="#8BC7E8"/>
<path d="M286.503 72.2656C286.503 72.2656 285.614 74.8588 284.659 78.0317C284.017 80.1645 285.54 80.8766 286.691 80.4209C288.178 79.8341 288.414 76.1197 288.759 75.4789C289.105 74.8372 286.503 72.2656 286.503 72.2656Z" fill="#996234"/>
<path d="M285.806 78.5006C285.806 78.5006 283.793 77.587 284.77 75.5949C285.746 73.6027 285.077 71.6667 286.772 71.6208C288.372 71.5781 289.731 70.6617 289.828 72.615C289.926 74.5683 290.103 75.6445 289.243 76.7231C288.382 77.8031 288.386 78.1336 287.541 78.7214C286.696 79.3106 285.806 78.5006 285.806 78.5006Z" fill="#301705"/>
<path d="M287.063 95.882C287.063 95.882 288.166 101.246 286.704 100.79C285.245 100.334 285.744 99.9236 283.865 99.4295C281.987 98.9364 282.45 99.8598 280.304 98.6364C278.16 97.4111 277.124 97.8705 277.813 96.7909C278.504 95.7133 280.027 93.8945 280.027 93.8945L287.063 95.882Z" fill="#EF45B7"/>
<path d="M291.484 89.8672C291.484 89.8672 291.175 93.6833 291.149 94.6742C291.106 96.2708 289.828 99.2037 289.42 100.44C289.352 100.642 290.989 101.328 290.978 101.426C290.899 102.124 288.797 101.657 288.401 101.195C287.852 100.557 288.898 96.6898 289.418 94.9892C289.938 93.2891 289.248 91.07 289.275 90.5075C289.304 89.9441 290.166 90.8567 290.166 90.8567L291.484 89.8672Z" fill="#996234"/>
<path d="M281.085 85.9326C281.085 85.9326 278.898 89.505 278.515 90.4204C277.871 91.9621 277.858 95.3939 277.706 96.5563C277.688 96.6862 276.233 96.854 276.163 96.8484C274.961 96.7542 277.59 98.3901 278.637 97.6335C279.684 96.876 279.741 93.1828 279.965 91.4179C280.187 89.6545 282.281 88.2768 282.486 87.7528C282.693 87.2273 280.977 87.3426 280.977 87.3426L281.085 85.9326Z" fill="#996234"/>
<path d="M291.655 91.0041C291.655 91.0041 293.846 86.4624 291.386 84.706C289.269 83.1942 287.719 81.6183 285.319 82.1236C282.919 82.6289 282.119 81.8419 281.115 84.001C280.164 86.0489 278.16 87.398 280.047 87.7392C281.266 87.9595 278.811 94.0092 279.134 94.1517C281.541 95.2083 287.146 96.6652 287.452 96.8006C287.588 96.8616 288.951 91.2699 289.08 91.3149C290.951 91.9749 291.655 91.0041 291.655 91.0041Z" fill="#8BC7E8"/>
<path d="M288.332 75.7979C288.332 75.7979 287.444 78.391 286.489 81.5635C285.847 83.6967 287.37 84.4083 288.521 83.9532C290.007 83.3663 290.243 79.6519 290.589 79.0111C290.935 78.3694 288.332 75.7979 288.332 75.7979Z" fill="#996234"/>
<path d="M287.635 82.0321C287.635 82.0321 285.622 81.118 286.601 79.1263C287.576 77.1341 286.907 75.1982 288.602 75.1522C290.202 75.1091 291.562 74.1932 291.659 76.1464C291.757 78.0997 291.933 79.176 291.073 80.2536C290.213 81.3336 290.216 81.6646 289.371 82.2524C288.526 82.8421 287.635 82.0321 287.635 82.0321Z" fill="#301705"/>
<path d="M300.913 100.277C300.913 100.277 302.016 105.64 300.556 105.184C299.095 104.727 299.595 104.318 297.716 103.824C295.838 103.33 296.301 104.254 294.155 103.031C292.01 101.806 290.975 102.265 291.664 101.186C292.355 100.108 293.878 98.2891 293.878 98.2891L300.913 100.277Z" fill="#EF45B7"/>
<path d="M305.335 94.2617C305.335 94.2617 305.026 98.0773 304.999 99.0688C304.956 100.665 303.679 103.598 303.27 104.834C303.203 105.037 304.84 105.722 304.829 105.82C304.749 106.519 302.648 106.051 302.251 105.59C301.703 104.952 302.748 101.084 303.269 99.3838C303.789 97.6836 303.099 95.465 303.126 94.9016C303.154 94.3381 304.015 95.2508 304.015 95.2508L305.335 94.2617Z" fill="#996234"/>
<path d="M294.935 90.3271C294.935 90.3271 292.748 93.8995 292.366 94.815C291.721 96.3562 291.708 99.7884 291.556 100.95C291.539 101.08 290.084 101.248 290.014 101.243C288.812 101.148 291.44 102.784 292.488 102.028C293.534 101.271 293.591 97.5768 293.815 95.812C294.038 94.0481 296.131 92.6709 296.337 92.1468C296.543 91.6209 294.828 91.7367 294.828 91.7367L294.935 90.3271Z" fill="#996234"/>
<path d="M305.506 95.3986C305.506 95.3986 307.696 90.8564 305.237 89.1009C303.119 87.5888 301.57 86.0128 299.17 86.5181C296.77 87.0239 295.97 86.2364 294.966 88.3959C294.015 90.4434 292.011 91.793 293.898 92.1342C295.117 92.3545 292.662 98.4042 292.985 98.5467C295.391 99.6033 300.997 101.06 301.303 101.196C301.44 101.257 302.802 95.6653 302.932 95.7098C304.801 96.3698 305.506 95.3986 305.506 95.3986Z" fill="#8BC7E8"/>
<path d="M302.183 80.1924C302.183 80.1924 301.295 82.785 300.341 85.958C299.698 88.0908 301.221 88.8029 302.372 88.3472C303.858 87.7608 304.094 84.0464 304.44 83.4052C304.785 82.7639 302.183 80.1924 302.183 80.1924Z" fill="#996234"/>
<path d="M301.486 86.4269C301.486 86.4269 299.473 85.5128 300.451 83.5211C301.427 81.5289 300.758 79.593 302.453 79.5466C304.052 79.5039 305.412 78.5875 305.51 80.5408C305.607 82.4941 305.783 83.5699 304.923 84.6485C304.063 85.7285 304.067 86.0594 303.222 86.6472C302.377 87.2364 301.486 86.4269 301.486 86.4269Z" fill="#301705"/>
<path d="M285.527 110.945C285.177 112.029 277.359 123.176 276.275 122.825L271.675 121.321C270.593 120.97 269.833 107.069 270.183 105.985L273.712 95.0253C274.062 93.942 275.226 93.3467 276.309 93.6973L287.729 97.3887C288.813 97.7388 289.407 98.9009 289.056 99.9851L285.527 110.945Z" fill="#394963"/>
<path d="M265.808 108.609C265.916 108.27 265.728 107.908 264.942 107.658L249.766 102.844C249.874 102.878 249.512 103.065 249.404 103.405C249.297 103.744 249.485 104.107 249.824 104.214L264.999 109.029C265.338 109.136 265.7 108.949 265.808 108.609Z" fill="#FF0000"/>
<path d="M304.272 120.814C304.38 120.474 304.193 120.112 303.853 120.005L288.679 115.19C288.339 115.082 287.977 115.269 287.869 115.609C287.762 115.948 287.949 116.31 288.288 116.418L303.463 121.233C303.803 121.341 304.166 121.153 304.272 120.814Z" fill="#FF0000"/>
<path d="M64.24 97.4772L63.2144 96.9747C63.2144 96.9747 91.0745 71.0683 123.156 96.8439C123.068 97.6642 64.24 97.4772 64.24 97.4772Z" fill="#D1D1D1"/>
<path d="M66.6371 116.738H120.359L123.155 96.8438L63.2134 96.9745L66.6371 116.738Z" fill="#D1D1D1"/>
<path d="M114.191 90.5156H73.1167V98.4844H114.191V90.5156Z" fill="#D1D1D1"/>
<path d="M84.0531 77.8741C84.0503 77.8994 84.3812 77.4583 84.3812 77.4583C85.2034 76.6609 87.0423 74.5188 87.0423 74.5188L93.0039 74.4986L99.5851 74.5248C99.5851 74.5248 101.423 76.6764 102.246 77.4728C102.246 77.4728 102.502 77.898 102.501 77.8731C102.501 73.8409 101.245 71.5352 98.0542 71.5352H88.7167C85.3426 71.6627 84.0137 73.907 84.0531 77.8741Z" fill="#29ABE2"/>
<path d="M83.9248 100.594C83.9248 103.7 86.2784 106.219 89.1814 106.219H97.6414C100.544 106.219 102.898 103.7 102.898 100.594V79.5C102.898 76.3936 100.544 73.875 97.6414 73.875H89.1814C86.2784 73.875 83.9248 76.3936 83.9248 79.5V100.594Z" fill="#D1D1D1"/>
<path d="M72.3472 93.6221C72.3472 94.1068 72.74 94.5001 73.2251 94.5001H113.647C114.132 94.5001 114.525 94.1073 114.525 93.6221C114.525 93.137 114.132 92.7441 113.647 92.7441H73.2251C72.7404 92.7441 72.3472 93.1374 72.3472 93.6221Z" fill="#E8CDA0"/>
<path d="M90.8934 78.4247L90.7246 78.7314L97.1426 82.2631L97.3114 81.9564L90.8934 78.4247Z" fill="#969696"/>
<path d="M90.6949 82.2368L90.875 82.5371L97.1567 78.7693L96.9765 78.469L90.6949 82.2368Z" fill="#969696"/>
<path d="M94.1016 74.4531C90.795 74.4531 88.1147 77.1334 88.1147 80.44C88.1147 83.7466 90.795 86.4269 94.1016 86.4269C97.4082 86.4269 100.088 83.7466 100.088 80.44C100.088 77.1334 97.4077 74.4531 94.1016 74.4531ZM94.1016 85.5887C91.2582 85.5887 88.9529 83.2839 88.9529 80.44C88.9529 77.5966 91.2582 75.2912 94.1016 75.2912C96.945 75.2912 99.2504 77.5966 99.2504 80.44C99.2499 83.2839 96.945 85.5887 94.1016 85.5887Z" fill="black" stroke="black" stroke-miterlimit="10"/>
<path d="M93.0649 75.3954C93.0898 75.3916 93.7943 75.311 93.806 75.8824C93.8177 76.4543 93.8196 76.9122 93.8196 76.9122C93.8196 76.9122 93.7929 77.3904 94.0653 77.3904C94.091 77.3904 94.2888 77.3904 94.3109 77.3904C94.5373 77.3904 94.5438 77.1241 94.542 76.9038C94.5401 76.6647 94.5542 75.9194 94.5542 75.9194C94.5542 75.9194 94.6057 75.416 95.1438 75.416C95.696 75.416 95.0285 75.2158 95.0285 75.2158L93.2923 75.2233L93.0649 75.3954Z" fill="black" stroke="black" stroke-miterlimit="10"/>
<path d="M89.1843 78.9233C89.1937 78.8999 89.4604 78.2554 89.9615 78.531C90.4626 78.8066 90.8118 79.0063 90.8118 79.0063C90.8118 79.0063 91.1648 79.2407 91.3007 79.0049C91.3134 78.9824 91.4127 78.8113 91.424 78.7921C91.537 78.5961 91.3574 78.485 91.1662 78.3768C90.9581 78.2591 90.344 77.8879 90.344 77.8879C90.344 77.8879 89.8724 77.5954 90.172 77.1486C90.4785 76.6921 89.9896 77.136 89.9896 77.136L89.1309 78.6449L89.1843 78.9233Z" fill="black" stroke="black" stroke-miterlimit="10"/>
<path d="M90.3095 83.9191C90.2941 83.8995 89.8694 83.3459 90.3583 83.0501C90.8472 82.7543 91.195 82.5513 91.195 82.5513C91.195 82.5513 91.5747 82.3629 91.4387 82.1276C91.4256 82.1046 91.3272 81.9335 91.3159 81.9143C91.203 81.7184 91.0169 81.8177 90.8275 81.9298C90.6217 82.0512 89.9927 82.3976 89.9927 82.3976C89.9927 82.3976 89.5066 82.5743 89.238 82.1088C88.9619 81.6307 89.1644 82.3282 89.1644 82.3282L90.0419 83.8263L90.3095 83.9191Z" fill="black"/>
<path d="M95.3496 85.4335C95.3248 85.4368 94.6329 85.5282 94.6212 84.9568C94.6095 84.3853 94.6076 83.9452 94.6076 83.9452C94.6076 83.9452 94.6343 83.4854 94.362 83.4854C94.3357 83.4854 94.1384 83.4854 94.1164 83.4854C93.8899 83.4854 93.8834 83.7333 93.8853 83.9536C93.8871 84.1927 93.8726 84.9291 93.8726 84.9291C93.8726 84.9291 93.7685 85.486 93.2182 85.4827C92.666 85.4799 93.3987 85.6261 93.3987 85.6261L95.135 85.6172L95.3496 85.4335Z" fill="black" stroke="black" stroke-miterlimit="10"/>
<path d="M99.0429 81.9164C99.0335 81.9393 98.7668 82.5843 98.2657 82.3087C97.7646 82.0331 97.4153 81.8334 97.4153 81.8334C97.4153 81.8334 97.0624 81.599 96.9264 81.8343C96.9133 81.8568 96.8144 82.0279 96.8032 82.0471C96.6902 82.2431 96.8697 82.3546 97.061 82.4629C97.2691 82.5806 97.8832 82.9523 97.8832 82.9523C97.8832 82.9523 98.2839 83.3081 98.0149 83.774C97.7388 84.2521 98.2375 83.7042 98.2375 83.7042L99.0963 82.1953L99.0429 81.9164Z" fill="black" stroke="black" stroke-miterlimit="10"/>
<path d="M97.8173 76.8711C97.8328 76.8908 98.2575 77.4444 97.7686 77.7402C97.2796 78.0359 96.9314 78.2389 96.9314 78.2389C96.4842 78.4611 96.7743 78.8117 96.6881 78.6627C96.675 78.6402 96.7996 78.8567 96.8109 78.8759C96.9239 79.0714 97.11 78.972 97.2998 78.86C97.5056 78.7386 98.1346 78.3922 98.1346 78.3922C98.1346 78.3922 98.6681 78.2356 98.9371 78.7016C99.2128 79.1797 98.9634 78.4616 98.9634 78.4616L98.0854 76.9634L97.8173 76.8711Z" fill="black" stroke="black" stroke-miterlimit="10"/>
<path d="M94.1806 79.0723C93.4282 79.0723 92.8184 79.6821 92.8184 80.4344C92.8184 81.1868 93.4282 81.7966 94.1806 81.7966C94.9324 81.7966 95.5427 81.1868 95.5427 80.4344C95.5423 79.6826 94.9324 79.0723 94.1806 79.0723ZM94.1806 81.1193C93.8023 81.1193 93.4962 80.8127 93.4962 80.4349C93.4962 80.0571 93.8027 79.7505 94.1806 79.7505C94.5584 79.7505 94.8649 80.0571 94.8649 80.4349C94.8649 80.8127 94.5584 81.1193 94.1806 81.1193Z" fill="#969696"/>
<path d="M94.1886 81.1419C94.6204 81.1419 94.9705 80.7918 94.9705 80.36C94.9705 79.9282 94.6204 79.5781 94.1886 79.5781C93.7568 79.5781 93.4067 79.9282 93.4067 80.36C93.4067 80.7918 93.7568 81.1419 94.1886 81.1419Z" fill="black"/>
<path d="M95.5702 86.0635C95.5702 86.0635 98.2439 90.8424 96.713 90.8494C95.1835 90.8564 95.5355 90.3141 93.5958 90.4116C91.6566 90.5091 92.3766 91.2497 89.9616 90.7322C87.5466 90.2133 86.6986 90.9643 87.0296 89.7268C87.361 88.4916 88.2633 86.2969 88.2633 86.2969L95.5702 86.0635Z" fill="#EF45B7"/>
<path d="M88.2504 86.4316C88.2504 86.4316 86.7569 82.9066 86.3215 82.0156C85.5058 80.3463 85.3343 76.2977 85.0812 75.6429C84.8276 74.9876 84.649 74.269 85.7379 74.9632C86.8273 75.6584 87.3841 79.1866 87.7104 80.9356C88.0362 82.6835 89.6754 84.3302 89.9121 84.8416C90.1469 85.3545 88.9605 84.9443 88.9605 84.9443L88.2504 86.4316Z" fill="#996234"/>
<path d="M95.71 86.5337C95.71 86.5337 97.2424 82.6361 97.4603 81.6681C97.8677 79.8559 97.1013 75.8772 97.1964 75.1811C97.2916 74.4855 97.3014 73.7448 96.401 74.672C95.5019 75.5997 95.7728 79.1612 95.8591 80.9378C95.9467 82.7139 94.1238 84.4337 94.0127 84.9859C93.9011 85.539 95.5699 85.127 95.5699 85.127L95.71 86.5337Z" fill="#996234"/>
<path d="M98.4722 80.0249C98.4722 80.0249 99.1857 75.0332 96.3108 74.1037C93.8353 73.3031 91.8811 72.2695 89.7464 73.477C87.6117 74.6849 86.611 74.1768 86.3077 76.5384C86.0203 78.7776 84.518 80.6699 86.4192 80.4248C87.6488 80.2664 87.1378 86.7749 87.4889 86.8129C90.1017 87.0923 95.8847 86.7857 96.218 86.8223C96.3666 86.8387 95.9747 81.097 96.1111 81.1007C98.0939 81.1635 98.4722 80.0249 98.4722 80.0249Z" fill="#8BC7E8"/>
<path d="M90.7059 66.5361C90.7059 66.5361 90.6435 69.2764 90.6928 72.5891C90.726 74.8166 92.3929 75.0346 93.3529 74.2522C94.5913 73.2435 93.6932 69.6318 93.8287 68.9164C93.9642 68.2007 90.7059 66.5361 90.7059 66.5361Z" fill="#996234"/>
<path d="M91.9269 72.6897C91.9269 72.6897 89.7318 72.4272 90.0618 70.2329C90.3895 68.0392 89.166 66.3958 90.7677 65.8398C92.2794 65.3148 93.298 64.0304 93.9815 65.8628C94.6649 67.6951 95.159 68.6673 94.6649 69.955C94.1718 71.2445 94.2749 71.5586 93.6477 72.3747C93.0215 73.1917 91.9269 72.6897 91.9269 72.6897Z" fill="#301705"/>
<path d="M82.4452 88.876C82.4452 88.876 85.1189 93.6549 83.588 93.6619C82.0585 93.669 82.4105 93.1266 80.4708 93.2241C78.5316 93.3216 79.2516 94.0622 76.8366 93.5447C74.4216 93.0258 73.5736 93.7768 73.9046 92.5393C74.236 91.3041 75.1383 89.1094 75.1383 89.1094L82.4452 88.876Z" fill="#EF45B7"/>
<path d="M84.8399 81.8066C84.8399 81.8066 85.6996 85.537 85.9743 86.4899C86.4159 88.0241 86.0849 91.2065 86.0695 92.5087C86.0671 92.722 87.8343 92.8799 87.853 92.977C87.989 93.6665 85.8444 93.8563 85.3274 93.5366C84.6112 93.0941 84.4377 89.092 84.4194 87.3131C84.4012 85.5356 83.0723 83.6291 82.9279 83.0845C82.7849 82.5388 83.8827 83.1482 83.8827 83.1482L84.8399 81.8066Z" fill="#996234"/>
<path d="M73.7371 81.2012C73.7371 81.2012 72.7335 85.2671 72.6454 86.2557C72.4977 87.9198 73.5229 91.1954 73.7291 92.349C73.7521 92.4779 72.4162 93.0779 72.3477 93.0938C71.174 93.3671 74.1735 94.1321 74.9432 93.0938C75.7119 92.0555 74.6498 88.5179 74.3291 86.7676C74.0076 85.0191 75.5873 83.0729 75.6243 82.5113C75.6618 81.9479 74.0619 82.577 74.0619 82.577L73.7371 81.2012Z" fill="#996234"/>
<path d="M85.3472 82.8374C85.3472 82.8374 86.0606 77.8457 83.1858 76.9162C80.7103 76.1156 78.7561 75.082 76.6214 76.2895C74.4867 77.4974 73.486 76.9893 73.1827 79.3509C72.8953 81.5901 71.393 83.4824 73.2942 83.2373C74.5238 83.0789 74.0128 89.5874 74.3639 89.6254C76.9767 89.9048 82.7597 89.5982 83.093 89.6348C83.2416 89.6512 82.8497 83.9095 82.9861 83.9132C84.9689 83.976 85.3472 82.8374 85.3472 82.8374Z" fill="#8BC7E8"/>
<path d="M77.5809 69.3486C77.5809 69.3486 77.5185 72.0889 77.5678 75.4016C77.601 77.6291 79.2679 77.8471 80.2279 77.0647C81.4663 76.056 80.5682 72.4443 80.7037 71.7289C80.8392 71.0132 77.5809 69.3486 77.5809 69.3486Z" fill="#996234"/>
<path d="M78.8019 75.5022C78.8019 75.5022 76.6068 75.2397 76.9368 73.0454C77.2645 70.8517 76.041 69.2083 77.6427 68.6523C79.1544 68.1273 80.173 66.8429 80.8565 68.6753C81.5399 70.5076 82.034 71.4798 81.5399 72.7675C81.0468 74.057 81.1499 74.3711 80.5227 75.1872C79.8965 76.0042 78.8019 75.5022 78.8019 75.5022Z" fill="#301705"/>
<path d="M111.508 88.876C111.508 88.876 114.181 93.6549 112.651 93.6619C111.121 93.669 111.473 93.1266 109.533 93.2241C107.594 93.3216 108.314 94.0622 105.899 93.5447C103.484 93.0258 102.636 93.7768 102.967 92.5393C103.298 91.3041 104.201 89.1094 104.201 89.1094L111.508 88.876Z" fill="#EF45B7"/>
<path d="M113.902 81.8066C113.902 81.8066 114.762 85.537 115.037 86.4899C115.478 88.0241 115.147 91.2065 115.132 92.5087C115.13 92.722 116.897 92.8799 116.916 92.977C117.051 93.6665 114.907 93.8563 114.39 93.5366C113.674 93.0941 113.5 89.092 113.482 87.3131C113.464 85.5356 112.135 83.6291 111.99 83.0845C111.847 82.5388 112.945 83.1482 112.945 83.1482L113.902 81.8066Z" fill="#996234"/>
<path d="M102.8 81.2012C102.8 81.2012 101.796 85.2671 101.708 86.2557C101.56 87.9198 102.585 91.1954 102.792 92.349C102.815 92.4779 101.479 93.0779 101.41 93.0938C100.236 93.3671 103.236 94.1321 104.006 93.0938C104.774 92.0555 103.712 88.5179 103.392 86.7676C103.07 85.0191 104.65 83.0729 104.687 82.5113C104.724 81.9479 103.124 82.577 103.124 82.577L102.8 81.2012Z" fill="#996234"/>
<path d="M114.41 82.8374C114.41 82.8374 115.123 77.8457 112.248 76.9162C109.773 76.1156 107.819 75.082 105.684 76.2895C103.549 77.4974 102.548 76.9893 102.245 79.3509C101.958 81.5901 100.455 83.4824 102.357 83.2373C103.586 83.0789 103.075 89.5874 103.426 89.6254C106.039 89.9048 111.822 89.5982 112.155 89.6348C112.304 89.6512 111.912 83.9095 112.049 83.9132C114.031 83.976 114.41 82.8374 114.41 82.8374Z" fill="#8BC7E8"/>
<path d="M106.643 69.3486C106.643 69.3486 106.581 72.0889 106.63 75.4016C106.664 77.6291 108.33 77.8471 109.29 77.0647C110.529 76.056 109.631 72.4443 109.766 71.7289C109.902 71.0132 106.643 69.3486 106.643 69.3486Z" fill="#996234"/>
<path d="M107.864 75.5022C107.864 75.5022 105.669 75.2397 105.999 73.0454C106.327 70.8517 105.104 69.2083 106.705 68.6523C108.217 68.1273 109.236 66.8429 109.919 68.6753C110.602 70.5076 111.096 71.4798 110.602 72.7675C110.109 74.057 110.212 74.3711 109.585 75.1872C108.959 76.0042 107.864 75.5022 107.864 75.5022Z" fill="#301705"/>
<path d="M101.474 103.699C101.468 104.838 97.3871 117.828 96.2485 117.821L91.4077 117.779C90.2705 117.772 85.3425 104.751 85.3481 103.612L85.3974 92.0987C85.4035 90.9601 86.3321 90.0409 87.4706 90.0479L99.473 90.1126C100.612 90.1187 101.529 91.0463 101.523 92.1859L101.474 103.699Z" fill="#394963"/>
<path d="M81.9714 107.436C81.9714 107.08 81.6827 106.791 80.8581 106.791H64.938C65.051 106.791 64.7622 107.08 64.7622 107.436C64.7622 107.791 65.051 108.08 65.4067 108.08H81.3269C81.6827 108.08 81.9714 107.791 81.9714 107.436Z" fill="#FF0000"/>
<path d="M122.326 107.436C122.326 107.08 122.038 106.791 121.682 106.791H105.762C105.406 106.791 105.117 107.08 105.117 107.436C105.117 107.791 105.406 108.08 105.762 108.08H121.682C122.038 108.08 122.326 107.791 122.326 107.436Z" fill="#FF0000"/>
<path d="M383.106 116.297H-10.6436V382.078H383.106V116.297Z" fill="#8BF6FF"/>
<path d="M-34.0811 184.969H384.044" stroke="white" stroke-width="3" stroke-miterlimit="10" stroke-dasharray="10 10"/>
<path d="M187.403 -4.64062V427.078" stroke="white" stroke-width="3" stroke-miterlimit="10" stroke-dasharray="10 10"/>
<path d="M252.74 349.472H310.085L311.143 281.166C311.143 281.166 316.433 224.547 281.316 205.111C247.352 223.776 251.201 279.746 251.201 279.746L252.74 349.472Z" fill="#D1D1D1"/>
<path d="M281.116 219.9C281.116 219.9 305.948 218.945 306.813 268.434C307.678 317.923 304.251 323.182 304.251 323.182H258.128L255.968 308.153V265.606C255.968 265.603 257.462 221.404 281.116 219.9Z" fill="#F4F4F4"/>
<path d="M281.412 219.595C262.223 219.232 256.147 243.762 254.605 266.933L255.24 305.322L256.204 333.033L271.116 336.495L273.522 333.634L289.494 333.706C289.494 333.706 291.513 336.112 291.995 336.112C294.705 336.112 306.622 332.84 306.622 332.84C306.622 332.84 307.047 314.026 307.247 305.56C307.253 305.273 308.343 267.411 308.327 266.934C307.51 243.808 302.277 219.993 281.412 219.595ZM306.379 304.746C306.475 305.371 303.926 331.012 303.926 331.012C303.926 331.012 293.958 332.857 291.399 332.857C290.943 332.857 289.038 330.559 289.038 330.559L273.959 330.49L271.688 333.225L258.416 331.013L256.203 304.777C255.882 282.007 256.33 281.685 256.203 266.934C257.957 244.329 264.864 220.317 281.667 220.751C298.366 221.182 305.133 244.59 306.621 266.934C306.61 267.799 306.186 304.361 306.379 304.746Z" fill="#E8E8E8"/>
<path d="M281.617 265.209L281.626 264.979L273.978 266.119L270.857 269.319C269.124 270.569 268.793 276.87 268.793 276.87V288.56L270.003 291.109L278.547 289.617L281.67 284.794L281.618 280.789L281.617 265.209Z" fill="white"/>
<path d="M281.46 265.211L281.626 264.979L288.833 266.119L291.897 269.319C293.628 270.569 293.902 276.87 293.902 276.87V288.56L292.807 291.109L284.323 289.617L281.306 284.794L281.452 280.788L281.46 265.211Z" fill="white"/>
<path d="M292.765 285.569C292.74 285.207 289.348 279.883 289.348 279.883L273.939 279.721L270.075 285.214V285.984V286.369V286.753V291.119H292.765C292.765 291.12 292.789 285.93 292.765 285.569Z" fill="#C6C6C6"/>
<path d="M289.709 358.027C289.704 359.166 288.775 360.085 287.637 360.078L275.634 360.015C274.497 360.007 273.577 359.078 273.583 357.939L273.683 339.502C273.689 338.363 274.617 337.444 275.756 337.451L287.758 337.516C288.897 337.522 289.814 338.45 289.808 339.589L289.709 358.027Z" fill="#394963"/>
<path d="M290.393 275.09H282.614H279.648H272.64C272.64 275.09 270.394 278.226 270.027 285.998C270.024 286.043 270.428 286.081 270.428 286.081C271.449 284.644 273.731 280.786 273.731 280.786L281.131 280.749L289.301 280.797C289.301 280.797 291.582 284.673 292.604 286.108C292.604 286.108 293.007 286.042 293.005 285.998C292.638 278.224 290.393 275.09 290.393 275.09Z" fill="#29ABE2"/>
<path d="M272.993 289.293C272.993 292.42 283.3 292.645 283.3 289.264C283.3 286.293 272.993 286.014 272.993 289.293ZM273.89 289.257C273.89 287.022 282.402 287.214 282.402 289.239C282.403 291.543 273.89 291.389 273.89 289.257Z" fill="black"/>
<path d="M276.854 287.548C276.854 287.548 276.878 288.522 278.044 288.509C279.211 288.497 279.053 287.631 279.079 287.548C279.103 287.462 276.854 287.548 276.854 287.548Z" fill="black"/>
<path d="M277.672 288.556L277.372 291.121H278.911L278.502 288.556H277.672Z" fill="black"/>
<path d="M278.718 287.836C278.743 287.836 282.482 289.472 282.482 289.472L282.628 288.509L278.839 287.379L278.718 287.836Z" fill="black"/>
<path d="M277.154 287.836C277.13 287.836 273.281 289.472 273.281 289.472V288.509L276.925 287.379L277.154 287.836Z" fill="black"/>
<path d="M306.622 266.933C306.622 266.933 294.017 267.029 291.227 253.655C288.437 240.282 286.802 221.905 286.608 221.519C286.417 221.135 305.274 225.754 306.622 266.933Z" fill="#E8CDA0"/>
<path d="M256.203 266.933C256.203 266.933 268.807 267.029 271.598 253.655C274.388 240.282 276.024 221.905 276.216 221.519C276.408 221.135 257.55 225.754 256.203 266.933Z" fill="#E8CDA0"/>
<path d="M257.166 319.37C257.166 319.37 256.243 316.27 259.283 317.35C269.29 320.911 292.863 321.679 303.445 317.159C305.663 316.212 305.629 316.77 305.562 318.265C305.513 319.387 303.927 331.012 303.927 331.012C303.927 331.012 285.838 337.939 258.417 331.012L257.166 319.37Z" fill="#E8CDA0"/>
<path d="M293.158 305.606C293.158 306.246 292.478 306.51 291.586 306.51H271.286C270.396 306.51 269.432 306.246 269.432 305.606V298.834C269.432 298.193 270.396 297.533 271.286 297.533H291.587C292.478 297.533 293.159 298.193 293.159 298.834V305.606H293.158Z" fill="#E8CDA0"/>
<path d="M273.742 292.714C273.742 292.714 274.84 291.35 275.351 293.521C275.861 295.692 276.859 297.863 276.859 297.863C276.859 297.863 279.193 297.187 279.512 296.548C279.83 295.91 279.563 293 281.586 292.268C283.61 291.538 284.526 291.078 283.661 294.136C282.797 297.195 282.482 299.354 282.482 299.354L274.063 301.228L273.742 293.194" fill="#996234"/>
<path d="M274.805 300.046C274.805 300.046 271.738 295.473 273.375 295.64C275.011 295.807 274.161 297.053 276.24 297.161C278.319 297.27 278.034 295.657 280.586 296.53C283.137 297.404 284.088 296.655 283.66 298.043C283.231 299.431 283.137 300.046 283.137 300.046H274.805Z" fill="#EF45B7"/>
<path d="M272.365 300.456C272.365 300.456 272.224 296.829 272.127 295.892C271.944 294.137 273.437 290.499 273.437 289.833C273.437 289.167 273.543 288.47 274.423 289.457C275.303 290.443 274.438 293.754 274.063 295.411C273.688 297.067 274.763 299.085 274.805 299.618C274.845 300.152 273.742 299.383 273.742 299.383L272.365 300.456Z" fill="#996234"/>
<path d="M283.761 300.686C283.761 300.686 284.899 296.829 284.996 295.892C285.179 294.137 283.686 290.499 283.686 289.833C283.686 289.167 283.581 288.47 282.7 289.457C281.82 290.443 282.684 293.754 283.059 295.411C283.435 297.067 281.626 298.917 281.586 299.45C281.546 299.984 283.381 299.382 283.381 299.382L283.761 300.686Z" fill="#996234"/>
<path d="M270.759 300.456C270.759 300.456 271.438 304.945 274.217 305.856C276.996 306.766 277.957 307.08 280.453 306.001C282.949 304.92 284.272 305.516 284.082 303.264C283.894 301.013 285.401 299.846 283.24 299.493C280.911 299.113 274.649 298.685 274.217 298.635C271.563 298.321 270.759 300.456 270.759 300.456Z" fill="#8BC7E8"/>
<path d="M277.534 305.856C277.534 305.856 275.011 305.608 275.39 303.526C275.767 301.447 274.661 300.687 276.443 300.036C278.224 299.384 279.109 297.647 279.895 299.384C280.681 301.121 281.248 302.042 280.681 303.263C280.114 304.485 280.233 304.783 279.512 305.557C278.791 306.332 277.534 305.856 277.534 305.856Z" fill="#301705"/>
<path d="M277.449 316.772C277.449 316.772 279.138 315.868 279.737 318.016C280.337 320.164 281.425 322.292 281.425 322.292C281.425 322.292 283.728 321.52 284.02 320.868C284.312 320.217 283.924 317.32 285.916 316.507C287.908 315.693 288.31 316.322 288.066 318.287C287.674 321.441 287.104 323.55 287.104 323.55L278.77 325.771L277.524 318.554C277.523 318.553 276.862 317.89 277.449 316.772Z" fill="#996234"/>
<path d="M277.549 324.594C277.549 324.594 276.206 320.094 277.849 320.193C279.491 320.292 279.106 320.892 281.188 320.915C283.269 320.938 282.506 320.033 285.091 320.8C287.676 321.568 288.596 320.76 288.226 322.165C287.854 323.569 287.786 324.169 287.786 324.169L277.549 324.594Z" fill="#EF45B7"/>
<path d="M275.436 325.135C275.436 325.135 276.3 329.592 279.115 330.386C281.929 331.18 282.901 331.454 285.351 330.274C287.801 329.091 289.147 329.63 288.864 327.389C288.582 325.148 290.041 323.918 287.867 323.656C285.524 323.373 279.25 323.204 278.815 323.172C276.15 322.969 275.436 325.135 275.436 325.135Z" fill="#8BC7E8"/>
<path d="M282.429 330.249C282.429 330.249 279.899 330.105 280.19 328.011C280.481 325.918 279.344 325.204 281.098 324.48C282.851 323.755 283.664 321.982 284.521 323.686C285.377 325.389 285.983 326.286 285.467 327.53C284.95 328.774 285.082 329.067 284.393 329.869C283.704 330.673 282.429 330.249 282.429 330.249Z" fill="#301705"/>
<path d="M291.244 316.647C291.244 316.647 292.683 315.386 293.754 317.343C294.823 319.3 296.363 321.126 296.363 321.126C296.363 321.126 298.432 319.854 298.569 319.153C298.707 318.454 297.675 315.72 299.431 314.476C301.189 313.234 301.723 313.756 301.928 315.725C302.259 318.887 302.18 321.068 302.18 321.068L294.562 325.114L291.719 318.365C291.719 318.366 290.925 317.869 291.244 316.647Z" fill="#996234"/>
<path d="M293.109 324.245C293.109 324.245 290.784 320.164 292.406 319.89C294.028 319.615 293.789 320.289 295.823 319.84C297.856 319.392 296.907 318.683 299.599 318.846C302.291 319.011 303.005 318.016 302.96 319.468C302.915 320.921 302.985 321.521 302.985 321.521L293.109 324.245Z" fill="#EF45B7"/>
<path d="M291.172 325.25C291.172 325.25 293.021 329.397 295.941 329.535C298.862 329.674 299.872 329.721 301.991 328.016C304.11 326.311 305.543 326.533 304.762 324.413C303.981 322.293 305.124 320.767 302.947 321.003C300.6 321.256 294.451 322.509 294.02 322.575C291.378 322.977 291.172 325.25 291.172 325.25Z" fill="#8BC7E8"/>
<path d="M299.139 328.652C299.139 328.652 296.64 329.083 296.452 326.977C296.263 324.872 294.995 324.433 296.54 323.331C298.083 322.23 298.475 320.32 299.694 321.785C300.914 323.251 301.705 323.988 301.483 325.316C301.26 326.645 301.455 326.9 300.965 327.838C300.478 328.777 299.139 328.652 299.139 328.652Z" fill="#301705"/>
<path d="M288.432 246.835C288.432 246.835 287.227 245.347 289.224 244.355C291.221 243.363 293.107 241.896 293.107 241.896C293.107 241.896 291.917 239.777 291.222 239.613C290.529 239.448 287.755 240.373 286.583 238.569C285.41 236.763 285.953 236.251 287.929 236.123C291.102 235.916 293.278 236.08 293.278 236.08L297.022 243.85L290.166 246.428C290.167 246.429 289.64 247.203 288.432 246.835Z" fill="#996234"/>
<path d="M296.096 245.269C296.096 245.269 291.927 247.432 291.717 245.801C291.506 244.17 292.169 244.435 291.801 242.385C291.433 240.336 290.687 241.256 290.955 238.572C291.224 235.888 290.259 235.138 291.708 235.238C293.158 235.34 293.76 235.296 293.76 235.296L296.096 245.269Z" fill="#EF45B7"/>
<path d="M297.024 247.244C297.024 247.244 301.239 245.559 301.491 242.646C301.745 239.733 301.832 238.726 300.211 236.542C298.59 234.358 298.868 232.935 296.719 233.633C294.571 234.329 293.089 233.127 293.24 235.312C293.401 237.666 294.412 243.86 294.461 244.293C294.762 246.949 297.024 247.244 297.024 247.244Z" fill="#8BC7E8"/>
<path d="M300.736 239.416C300.736 239.416 301.069 241.929 298.957 242.036C296.846 242.143 296.358 243.393 295.317 241.807C294.277 240.221 292.383 239.755 293.896 238.594C295.408 237.432 296.176 236.67 297.495 236.943C298.814 237.217 299.077 237.033 299.994 237.559C300.914 238.084 300.736 239.416 300.736 239.416Z" fill="#301705"/>
<path d="M295.552 267.768C295.552 267.768 293.883 266.829 295.376 265.17C296.867 263.513 298.081 261.454 298.081 261.454C298.081 261.454 296.195 259.923 295.488 260.026C294.783 260.129 292.544 262.008 290.79 260.764C289.035 259.518 289.351 258.841 291.141 257.994C294.014 256.634 296.099 255.985 296.099 255.985L302.44 261.83L297.017 266.751C297.016 266.751 296.811 267.665 295.552 267.768Z" fill="#996234"/>
<path d="M302.101 263.49C302.101 263.49 299.023 267.036 298.225 265.597C297.428 264.158 298.142 264.161 297.045 262.39C295.948 260.62 295.592 261.751 294.853 259.156C294.117 256.564 292.942 256.22 294.327 255.78C295.711 255.34 296.256 255.078 296.256 255.078L302.101 263.49Z" fill="#EF45B7"/>
<path d="M303.691 264.984C303.691 264.984 306.99 261.865 306.151 259.064C305.314 256.261 305.024 255.294 302.712 253.859C300.4 252.425 300.135 251 298.394 252.441C296.653 253.879 294.832 253.308 295.778 255.283C296.796 257.413 300.016 262.799 300.221 263.183C301.478 265.543 303.691 264.984 303.691 264.984Z" fill="#8BC7E8"/>
<path d="M304.259 256.34C304.259 256.34 305.495 258.554 303.569 259.43C301.646 260.307 301.653 261.648 300.102 260.557C298.551 259.466 296.619 259.73 297.597 258.093C298.575 256.457 299.008 255.465 300.335 255.233C301.662 255.002 301.839 254.735 302.886 254.886C303.934 255.036 304.259 256.34 304.259 256.34Z" fill="#301705"/>
<path d="M65.24 349.472H122.585L123.642 281.166C123.642 281.166 128.933 224.547 93.8155 205.111C59.8522 223.776 63.7002 279.746 63.7002 279.746L65.24 349.472Z" fill="#D1D1D1"/>
<path d="M93.6162 219.9C93.6162 219.9 118.447 218.945 119.313 268.434C120.178 317.923 116.751 323.182 116.751 323.182H70.6278L68.4678 308.153V265.606C68.4678 265.603 69.9622 221.404 93.6162 219.9Z" fill="#F4F4F4"/>
<path d="M93.9124 219.595C74.7236 219.232 68.6472 243.762 67.106 266.933L67.7406 305.322L68.7035 333.033L83.6163 336.495L86.0224 333.634L101.994 333.706C101.994 333.706 104.013 336.112 104.495 336.112C107.205 336.112 119.122 332.84 119.122 332.84C119.122 332.84 119.548 314.026 119.747 305.56C119.754 305.273 120.843 267.411 120.828 266.934C120.01 243.808 114.778 219.993 93.9124 219.595ZM118.879 304.746C118.976 305.371 116.426 331.012 116.426 331.012C116.426 331.012 106.458 332.857 103.899 332.857C103.444 332.857 101.538 330.559 101.538 330.559L86.4592 330.49L84.1886 333.225L70.916 331.013L68.703 304.777C68.3828 282.007 68.8291 281.685 68.703 266.934C70.457 244.329 77.3636 220.317 94.1678 220.751C110.867 221.182 117.634 244.59 119.122 266.934C119.11 267.799 118.687 304.361 118.879 304.746Z" fill="#E8E8E8"/>
<path d="M94.117 265.209L94.1268 264.979L86.4773 266.119L83.3564 269.319C81.6239 270.569 81.2925 276.87 81.2925 276.87V288.56L82.5028 291.109L91.0462 289.617L94.1695 284.794L94.1175 280.789L94.117 265.209Z" fill="white"/>
<path d="M93.9604 265.211L94.1268 264.979L101.333 266.119L104.397 269.319C106.128 270.569 106.403 276.87 106.403 276.87V288.56L105.308 291.109L96.8236 289.617L93.8076 284.794L93.9539 280.788L93.9604 265.211Z" fill="white"/>
<path d="M105.265 285.569C105.241 285.207 101.848 279.883 101.848 279.883L86.4391 279.721L82.5747 285.214V285.984V286.369V286.753V291.119H105.265C105.265 291.12 105.289 285.93 105.265 285.569Z" fill="#C6C6C6"/>
<path d="M102.209 358.027C102.204 359.166 101.275 360.085 100.137 360.078L88.1343 360.015C86.9971 360.007 86.0779 359.078 86.0835 357.939L86.1824 339.502C86.1885 338.363 87.1171 337.444 88.2557 337.451L100.258 337.516C101.397 337.522 102.314 338.45 102.308 339.589L102.209 358.027Z" fill="#394963"/>
<path d="M102.892 275.09H95.1142H92.1475H85.1397C85.1397 275.09 82.8934 278.226 82.5269 285.998C82.5236 286.043 82.9277 286.081 82.9277 286.081C83.9486 284.644 86.2305 280.786 86.2305 280.786L93.6311 280.749L101.8 280.797C101.8 280.797 104.082 284.673 105.103 286.108C105.103 286.108 105.507 286.042 105.505 285.998C105.137 278.224 102.892 275.09 102.892 275.09Z" fill="#29ABE2"/>
<path d="M85.4927 289.293C85.4927 292.42 95.7991 292.645 95.7991 289.264C95.7991 286.293 85.4927 286.014 85.4927 289.293ZM86.3894 289.257C86.3894 287.022 94.9019 287.214 94.9019 289.239C94.9024 291.543 86.3894 291.389 86.3894 289.257Z" fill="black"/>
<path d="M89.3535 287.548C89.3535 287.548 89.3779 288.522 90.5437 288.509C91.7104 288.497 91.5534 287.631 91.5787 287.548C91.6026 287.462 89.3535 287.548 89.3535 287.548Z" fill="black"/>
<path d="M90.1716 288.556L89.8711 291.121H91.41L91.0012 288.556H90.1716Z" fill="black"/>
<path d="M91.2173 287.836C91.2417 287.836 94.9818 289.472 94.9818 289.472L95.1267 288.509L91.3378 287.379L91.2173 287.836Z" fill="black"/>
<path d="M89.6536 287.836C89.6301 287.836 85.7803 289.472 85.7803 289.472V288.509L89.4248 287.379L89.6536 287.836Z" fill="black"/>
<path d="M119.122 266.933C119.122 266.933 106.518 267.029 103.727 253.655C100.937 240.282 99.302 221.905 99.1089 221.519C98.9167 221.135 117.774 225.754 119.122 266.933Z" fill="#E8CDA0"/>
<path d="M68.7031 266.933C68.7031 266.933 81.3074 267.029 84.0978 253.655C86.8883 240.282 88.5242 221.905 88.7164 221.519C88.9081 221.135 70.0503 225.754 68.7031 266.933Z" fill="#E8CDA0"/>
<path d="M69.6653 319.37C69.6653 319.37 68.7428 316.27 71.7817 317.35C81.7886 320.911 105.362 321.679 115.944 317.159C118.162 316.212 118.128 316.77 118.061 318.265C118.011 319.387 116.425 331.012 116.425 331.012C116.425 331.012 98.3364 337.939 70.916 331.012L69.6653 319.37Z" fill="#E8CDA0"/>
<path d="M105.658 305.606C105.658 306.246 104.978 306.51 104.087 306.51H83.7865C82.8964 306.51 81.9326 306.246 81.9326 305.606V298.834C81.9326 298.193 82.8964 297.533 83.7865 297.533H104.087C104.979 297.533 105.658 298.193 105.658 298.834V305.606Z" fill="#E8CDA0"/>
<path d="M86.2427 292.714C86.2427 292.714 87.3405 291.35 87.8514 293.521C88.3619 295.692 89.3599 297.863 89.3599 297.863C89.3599 297.863 91.6933 297.187 92.012 296.548C92.3303 295.91 92.0631 293 94.0867 292.268C96.1108 291.538 97.0258 291.078 96.1614 294.136C95.2975 297.195 94.983 299.354 94.983 299.354L86.5638 301.228L86.2427 293.194" fill="#996234"/>
<path d="M87.3053 300.046C87.3053 300.046 84.2383 295.473 85.8747 295.64C87.5111 295.807 86.6612 297.053 88.7406 297.161C90.8195 297.27 90.535 295.657 93.0864 296.53C95.6373 297.404 96.5889 296.655 96.1609 298.043C95.7316 299.431 95.6373 300.046 95.6373 300.046H87.3053Z" fill="#EF45B7"/>
<path d="M84.8654 300.456C84.8654 300.456 84.7248 296.829 84.6268 295.892C84.444 294.137 85.9375 290.499 85.9375 289.833C85.9375 289.167 86.0434 288.47 86.9232 289.457C87.8026 290.443 86.9382 293.754 86.5632 295.411C86.1878 297.067 87.2631 299.085 87.3053 299.618C87.3451 300.152 86.2426 299.383 86.2426 299.383L84.8654 300.456Z" fill="#996234"/>
<path d="M96.2607 300.686C96.2607 300.686 97.3988 296.829 97.4963 295.892C97.6782 294.137 96.1857 290.499 96.1857 289.833C96.1857 289.167 96.0811 288.47 95.2003 289.457C94.3205 290.443 95.1839 293.754 95.5589 295.411C95.9349 297.067 94.1269 298.917 94.0866 299.45C94.0463 299.984 95.8814 299.382 95.8814 299.382L96.2607 300.686Z" fill="#996234"/>
<path d="M83.2593 300.456C83.2593 300.456 83.9385 304.945 86.7172 305.856C89.496 306.766 90.4569 307.08 92.9526 306.001C95.4491 304.92 96.7715 305.516 96.5826 303.264C96.3941 301.013 97.9016 299.846 95.7402 299.493C93.411 299.113 87.149 298.685 86.7172 298.635C84.0632 298.321 83.2593 300.456 83.2593 300.456Z" fill="#8BC7E8"/>
<path d="M90.0339 305.856C90.0339 305.856 87.5111 305.608 87.8898 303.526C88.2667 301.447 87.1609 300.687 88.9426 300.036C90.7239 299.384 91.6093 297.647 92.395 299.384C93.1806 301.121 93.7483 302.042 93.1806 303.263C92.6139 304.485 92.7325 304.783 92.0115 305.557C91.2911 306.332 90.0339 305.856 90.0339 305.856Z" fill="#301705"/>
<path d="M77.67 315.096C77.67 315.096 79.4916 314.507 79.6997 316.728C79.9074 318.948 80.5978 321.236 80.5978 321.236C80.5978 321.236 83.0021 320.886 83.4057 320.297C83.8083 319.708 83.9433 316.789 86.048 316.342C88.1532 315.897 88.4372 316.587 87.8461 318.478C86.8988 321.512 85.9627 323.485 85.9627 323.485L77.3658 324.185L77.4253 316.861C77.4253 316.862 76.8933 316.092 77.67 315.096Z" fill="#996234"/>
<path d="M76.377 322.812C76.377 322.812 75.8562 318.145 77.4546 318.535C79.0531 318.924 78.5674 319.447 80.6121 319.841C82.6563 320.234 82.0657 319.207 84.4737 320.422C86.8807 321.638 87.9288 321.007 87.3143 322.324C86.6988 323.64 86.5231 324.218 86.5231 324.218L76.377 322.812Z" fill="#EF45B7"/>
<path d="M74.1992 322.967C74.1992 322.967 74.2559 327.507 76.8833 328.79C79.5106 330.073 80.4195 330.516 83.0398 329.79C85.6611 329.062 86.8892 329.833 87.0111 327.576C87.133 325.321 88.7872 324.371 86.6942 323.725C84.4391 323.03 78.2956 321.746 77.8747 321.636C75.2886 320.963 74.1992 322.967 74.1992 322.967Z" fill="#8BC7E8"/>
<path d="M80.1691 329.245C80.1691 329.245 77.7044 328.652 78.3649 326.643C79.0235 324.636 78.033 323.73 79.8869 323.33C81.7408 322.93 82.8565 321.329 83.3965 323.159C83.936 324.987 84.3715 325.979 83.6421 327.111C82.9127 328.243 82.9896 328.554 82.1693 329.221C81.349 329.89 80.1691 329.245 80.1691 329.245Z" fill="#301705"/>
<path d="M99.0567 315.71C99.0567 315.71 100.497 314.448 101.566 316.405C102.636 318.362 104.175 320.189 104.175 320.189C104.175 320.189 106.245 318.917 106.382 318.216C106.519 317.517 105.488 314.782 107.244 313.539C109.001 312.296 109.535 312.819 109.741 314.788C110.072 317.95 109.993 320.131 109.993 320.131L102.375 324.176L99.531 317.427C99.531 317.428 98.7374 316.932 99.0567 315.71Z" fill="#996234"/>
<path d="M100.922 323.307C100.922 323.307 98.5971 319.227 100.219 318.953C101.841 318.678 101.602 319.351 103.636 318.903C105.669 318.455 104.72 317.745 107.412 317.908C110.104 318.073 110.817 317.078 110.773 318.531C110.728 319.983 110.797 320.583 110.797 320.583L100.922 323.307Z" fill="#EF45B7"/>
<path d="M98.9839 324.312C98.9839 324.312 100.833 328.459 103.753 328.598C106.674 328.736 107.684 328.783 109.803 327.079C111.922 325.373 113.355 325.595 112.574 323.475C111.794 321.356 112.937 319.829 110.759 320.065C108.413 320.318 102.263 321.571 101.833 321.637C99.1906 322.04 98.9839 324.312 98.9839 324.312Z" fill="#8BC7E8"/>
<path d="M106.951 327.714C106.951 327.714 104.453 328.145 104.265 326.039C104.075 323.934 102.807 323.495 104.351 322.394C105.895 321.292 106.286 319.382 107.506 320.847C108.726 322.313 109.517 323.05 109.296 324.379C109.074 325.707 109.268 325.963 108.779 326.9C108.29 327.84 106.951 327.714 106.951 327.714Z" fill="#301705"/>
<path d="M101.4 250.116C101.4 250.116 100.196 248.628 102.193 247.636C104.19 246.644 106.077 245.177 106.077 245.177C106.077 245.177 104.886 243.059 104.192 242.895C103.498 242.73 100.725 243.654 99.5525 241.85C98.3797 240.045 98.9225 239.533 100.899 239.404C104.071 239.197 106.248 239.362 106.248 239.362L109.992 247.132L103.137 249.709C103.136 249.71 102.609 250.484 101.4 250.116Z" fill="#996234"/>
<path d="M109.064 248.55C109.064 248.55 104.896 250.713 104.685 249.082C104.475 247.451 105.138 247.716 104.77 245.666C104.402 243.617 103.655 244.537 103.924 241.853C104.193 239.17 103.227 238.419 104.677 238.519C106.127 238.622 106.729 238.577 106.729 238.577L109.064 248.55Z" fill="#EF45B7"/>
<path d="M109.993 250.526C109.993 250.526 114.208 248.84 114.461 245.928C114.714 243.014 114.801 242.007 113.18 239.823C111.559 237.64 111.837 236.217 109.688 236.914C107.54 237.61 106.058 236.409 106.209 238.594C106.37 240.947 107.381 247.142 107.43 247.574C107.73 250.23 109.993 250.526 109.993 250.526Z" fill="#8BC7E8"/>
<path d="M113.704 242.698C113.704 242.698 114.038 245.21 111.925 245.317C109.815 245.424 109.327 246.674 108.286 245.088C107.246 243.503 105.353 243.037 106.865 241.875C108.377 240.713 109.145 239.951 110.464 240.225C111.783 240.498 112.046 240.315 112.963 240.84C113.882 241.366 113.704 242.698 113.704 242.698Z" fill="#301705"/>
<path d="M88.4519 244.3C88.4519 244.3 88.84 246.174 86.6092 246.14C84.3803 246.105 82.0309 246.543 82.0309 246.543C82.0309 246.543 82.1167 248.971 82.6581 249.436C83.1986 249.9 86.0866 250.352 86.3017 252.492C86.5159 254.634 85.7978 254.841 83.9833 254.048C81.07 252.777 79.2109 251.631 79.2109 251.631L79.4495 243.01L86.7231 243.864C86.7236 243.865 87.5462 243.419 88.4519 244.3Z" fill="#996234"/>
<path d="M80.9236 242.175C80.9236 242.175 85.62 242.165 85.0585 243.711C84.4974 245.257 84.03 244.717 83.4164 246.708C82.8033 248.698 83.8885 248.223 82.4189 250.484C80.9485 252.744 81.4622 253.855 80.2196 253.101C78.9788 252.346 78.4229 252.109 78.4229 252.109L80.9236 242.175Z" fill="#EF45B7"/>
<path d="M81.0054 239.994C81.0054 239.994 76.4866 239.557 74.9257 242.029C73.3643 244.502 72.8248 245.357 73.2631 248.041C73.7013 250.726 72.8018 251.862 75.0312 252.229C77.2591 252.596 78.0246 254.344 78.8932 252.334C79.8298 250.167 81.7737 244.2 81.9284 243.792C82.8799 241.294 81.0054 239.994 81.0054 239.994Z" fill="#8BC7E8"/>
<path d="M74.1159 245.246C74.1159 245.246 74.9727 242.86 76.8983 243.735C78.823 244.607 79.8299 243.721 80.0263 245.608C80.2232 247.493 81.6923 248.776 79.8154 249.114C77.9394 249.453 76.9073 249.778 75.8605 248.929C74.8143 248.08 74.4965 248.123 73.9223 247.235C73.3466 246.348 74.1159 245.246 74.1159 245.246Z" fill="#301705"/>
<rect x="315.138" y="15.9844" width="44.0746" height="25" rx="12.5" fill="#969696" fill-opacity="0.3"/>
<path d="M327.121 33.6104H326.3V24.6416L323.593 25.6465V24.8809L326.984 23.623H327.121V33.6104ZM331.092 34.4648H330.347L334.503 23.6572H335.242L331.092 34.4648ZM340.451 33.6104H339.63V24.6416L336.923 25.6465V24.8809L340.314 23.623H340.451V33.6104ZM348.216 33.6104H347.396V24.6416L344.689 25.6465V24.8809L348.08 23.623H348.216V33.6104Z" fill="black"/>
</g>
<defs>
<linearGradient id="paint0_linear" x1="189.151" y1="223.682" x2="189.151" y2="-33.2267" gradientUnits="userSpaceOnUse">
<stop offset="0.1444" stop-color="white"/>
<stop offset="1" stop-color="#B4EDFF"/>
</linearGradient>
<clipPath id="clip0">
<rect width="375" height="375" fill="white" transform="translate(0.137695 0.984375)"/>
</clipPath>
</defs>
</svg>
