<svg width="60" height="61" viewBox="0 0 60 61" fill="none" xmlns="http://www.w3.org/2000/svg">
<g filter="url(#filter0_d)">
<path d="M16.1567 42.0212C11.8137 42.0212 8.29799 38.4957 8.29799 34.1434C8.29799 29.7911 11.8137 26.2656 16.1567 26.2656C20.4994 26.2656 24.015 29.7908 24.0154 34.1428L16.1567 42.0212ZM16.1567 42.0212C20.4991 42.0212 24.0256 38.486 24.0154 34.1434L16.1567 42.0212ZM13.6441 21.9536C15.1644 20.8783 16.982 20.1691 18.9439 19.9962L19.0818 20.1335L19.0822 20.1332L19.3074 19.9074L19.7779 19.4357L19.7749 19.4359L21.5622 17.637H21.5759L21.6476 17.5713C22.3207 16.9543 23.2044 16.5884 24.1755 16.5884C25.8377 16.5884 27.2516 17.677 27.7422 19.1812L27.8414 19.4855L28.1126 19.3156C28.65 18.9789 29.2812 18.7781 29.959 18.7781C30.0641 18.7781 30.164 18.7783 30.2519 18.7871L30.2519 18.7873L30.261 18.7878C30.8659 18.8263 31.4194 19.0088 31.8953 19.3142L32.1698 19.4903L32.2686 19.1794C32.7491 17.6668 34.1619 16.5781 35.8347 16.5781C36.8053 16.5781 37.6993 16.9539 38.3627 17.5611L38.4344 17.6267H38.448L40.2353 19.4256L40.2323 19.4254L40.7028 19.8971L40.9279 20.1227L40.928 20.1229L40.9284 20.1233L41.0663 19.9859C43.0279 20.1582 44.8363 20.8584 46.366 21.9432L50.5619 25.5136L50.5618 25.5136L50.5675 25.5182C50.8705 25.7612 51.1619 26.0131 51.4321 26.274C53.4874 28.2642 54.76 31.0474 54.7499 34.1323V34.1332C54.7499 40.1637 49.8572 45.0678 43.8433 45.0678C38.2911 45.0678 33.6987 40.8776 33.027 35.49L32.9804 35.1163L32.654 35.3044C31.8708 35.7559 30.9703 36.0111 30 36.0111C29.0396 36.0111 28.1289 35.7557 27.3459 35.3044L27.0189 35.1158L26.9729 35.4905C26.3112 40.8877 21.7091 45.0781 16.1567 45.0781C10.1428 45.0781 5.25 40.174 5.25 34.1434C5.25 31.0578 6.52292 28.2743 8.57833 26.284L8.57836 26.2841L8.58142 26.281C8.84964 26.0121 9.13861 25.7623 9.43864 25.5317L9.43883 25.5319L9.44831 25.5238L13.6441 21.9536ZM27.2889 30.6174C27.2889 32.1221 28.5077 33.3449 30.0102 33.3449C31.5127 33.3449 32.7315 32.1221 32.7315 30.6174C32.7315 29.1127 31.5127 27.8899 30.0102 27.8899C28.5077 27.8899 27.2889 29.1127 27.2889 30.6174ZM36.0051 34.1434C36.0051 38.4957 39.5209 42.0212 43.8638 42.0212C48.2069 42.0212 51.7225 38.4852 51.7225 34.1434C51.7225 29.7911 48.2067 26.2656 43.8638 26.2656C39.5209 26.2656 36.0051 29.7911 36.0051 34.1434Z" fill="#F8F8F8" stroke="black" stroke-width="0.5"/>
<ellipse cx="16.1871" cy="34.0852" rx="7.62558" ry="7.62619" fill="#F8F8F8"/>
<ellipse cx="43.8121" cy="34.0852" rx="7.62558" ry="7.62619" fill="#F8F8F8"/>
<g filter="url(#filter1_d)">
<path d="M43.8639 29.375C41.2388 29.375 39.1162 31.5132 39.1162 34.1347C39.1162 34.7617 39.6289 35.2757 40.2544 35.2757C40.8799 35.2757 41.3927 34.7617 41.3927 34.1347C41.3927 32.7674 42.5104 31.6469 43.8742 31.6469C44.4997 31.6469 45.0124 31.1329 45.0124 30.5058C45.0022 29.8787 44.4895 29.375 43.8639 29.375Z" fill="#8BF6FF"/>
</g>
<g filter="url(#filter2_d)">
<path d="M16.1569 29.375C13.5318 29.375 11.4092 31.5132 11.4092 34.1347C11.4092 34.7617 11.9219 35.2757 12.5474 35.2757C13.1729 35.2757 13.6856 34.7617 13.6856 34.1347C13.6856 32.7674 14.8034 31.6469 16.1672 31.6469C16.7927 31.6469 17.3054 31.1329 17.3054 30.5058C17.2951 29.8787 16.7824 29.375 16.1569 29.375Z" fill="#8BF6FF"/>
</g>
</g>
<defs>
<filter id="filter0_d" x="1" y="16.3281" width="58" height="37" filterUnits="userSpaceOnUse" color-interpolation-filters="sRGB">
<feFlood flood-opacity="0" result="BackgroundImageFix"/>
<feColorMatrix in="SourceAlpha" type="matrix" values="0 0 0 0 0 0 0 0 0 0 0 0 0 0 0 0 0 0 127 0"/>
<feOffset dy="4"/>
<feGaussianBlur stdDeviation="2"/>
<feColorMatrix type="matrix" values="0 0 0 0 0 0 0 0 0 0 0 0 0 0 0 0 0 0 0.25 0"/>
<feBlend mode="normal" in2="BackgroundImageFix" result="effect1_dropShadow"/>
<feBlend mode="normal" in="SourceGraphic" in2="effect1_dropShadow" result="shape"/>
</filter>
<filter id="filter1_d" x="35.1162" y="29.375" width="13.8962" height="13.9007" filterUnits="userSpaceOnUse" color-interpolation-filters="sRGB">
<feFlood flood-opacity="0" result="BackgroundImageFix"/>
<feColorMatrix in="SourceAlpha" type="matrix" values="0 0 0 0 0 0 0 0 0 0 0 0 0 0 0 0 0 0 127 0"/>
<feOffset dy="4"/>
<feGaussianBlur stdDeviation="2"/>
<feColorMatrix type="matrix" values="0 0 0 0 0 0 0 0 0 0 0 0 0 0 0 0 0 0 0.25 0"/>
<feBlend mode="normal" in2="BackgroundImageFix" result="effect1_dropShadow"/>
<feBlend mode="normal" in="SourceGraphic" in2="effect1_dropShadow" result="shape"/>
</filter>
<filter id="filter2_d" x="7.40918" y="29.375" width="13.8962" height="13.9007" filterUnits="userSpaceOnUse" color-interpolation-filters="sRGB">
<feFlood flood-opacity="0" result="BackgroundImageFix"/>
<feColorMatrix in="SourceAlpha" type="matrix" values="0 0 0 0 0 0 0 0 0 0 0 0 0 0 0 0 0 0 127 0"/>
<feOffset dy="4"/>
<feGaussianBlur stdDeviation="2"/>
<feColorMatrix type="matrix" values="0 0 0 0 0 0 0 0 0 0 0 0 0 0 0 0 0 0 0.25 0"/>
<feBlend mode="normal" in2="BackgroundImageFix" result="effect1_dropShadow"/>
<feBlend mode="normal" in="SourceGraphic" in2="effect1_dropShadow" result="shape"/>
</filter>
</defs>
</svg>
