<svg width="50" height="50" viewBox="0 0 50 50" fill="none" xmlns="http://www.w3.org/2000/svg">
<g clip-path="url(#clip0)">
<g filter="url(#filter0_d)">
<path d="M38.8639 23.5469C36.2388 23.5469 34.1162 25.6851 34.1162 28.3065C34.1162 28.9336 34.6289 29.4476 35.2544 29.4476C35.8799 29.4476 36.3927 28.9336 36.3927 28.3065C36.3927 26.9393 37.5104 25.8188 38.8742 25.8188C39.4997 25.8188 40.0124 25.3048 40.0124 24.6777C40.0022 24.0506 39.4895 23.5469 38.8639 23.5469Z" fill="#8BF6FF"/>
<path d="M11.1567 36.1931C6.81375 36.1931 3.29799 32.6676 3.29799 28.3153C3.29799 23.963 6.81375 20.4375 11.1567 20.4375C15.4994 20.4375 19.015 23.9627 19.0154 28.3147L11.1567 36.1931ZM11.1567 36.1931C15.4991 36.1931 19.0256 32.6579 19.0154 28.3153L11.1567 36.1931ZM8.6441 16.1255C10.1644 15.0502 11.982 14.341 13.9439 14.1681L14.0818 14.3054L14.0822 14.3051L14.3074 14.0792L14.7779 13.6076L14.7749 13.6078L16.5622 11.8088H16.5759L16.6476 11.7431C17.3207 11.1261 18.2044 10.7603 19.1755 10.7603C20.8377 10.7603 22.2516 11.8488 22.7422 13.3531L22.8414 13.6574L23.1126 13.4875C23.65 13.1508 24.2812 12.9499 24.959 12.9499C25.0641 12.9499 25.164 12.9502 25.2519 12.959L25.2519 12.9591L25.261 12.9597C25.8659 12.9982 26.4194 13.1807 26.8953 13.486L27.1698 13.6622L27.2686 13.3513C27.7491 11.8387 29.1619 10.75 30.8347 10.75C31.8053 10.75 32.6993 11.1257 33.3627 11.733L33.4344 11.7986H33.448L35.2353 13.5975L35.2323 13.5973L35.7028 14.069L35.928 14.2948L35.9284 14.2951L36.0663 14.1578C38.0279 14.3301 39.8363 15.0303 41.366 16.1151L45.5619 19.6854L45.5618 19.6855L45.5675 19.6901C45.8704 19.933 46.1617 20.1848 46.4319 20.4456C48.4873 22.4359 49.76 25.2192 49.7499 28.3042V28.305C49.7499 34.3356 44.8572 39.2397 38.8433 39.2397C33.2911 39.2397 28.6987 35.0495 28.027 29.6619L27.9804 29.2881L27.654 29.4762C26.8708 29.9277 25.9703 30.183 25 30.183C24.0396 30.183 23.1289 29.9276 22.3459 29.4762L22.0189 29.2877L21.9729 29.6624C21.3112 35.0596 16.7091 39.25 11.1567 39.25C5.14276 39.25 0.25 34.3459 0.25 28.3153C0.25 25.2297 1.52292 22.4461 3.57833 20.4559L3.57836 20.4559L3.58142 20.4529C3.84964 20.184 4.13861 19.9341 4.43864 19.7035L4.43883 19.7038L4.44831 19.6957L8.6441 16.1255ZM22.2889 24.7893C22.2889 26.294 23.5077 27.5167 25.0102 27.5167C26.5127 27.5167 27.7315 26.294 27.7315 24.7893C27.7315 23.2845 26.5127 22.0618 25.0102 22.0618C23.5077 22.0618 22.2889 23.2845 22.2889 24.7893ZM31.0051 28.3153C31.0051 32.6676 34.5209 36.1931 38.8638 36.1931C43.2069 36.1931 46.7225 32.6571 46.7225 28.3153C46.7225 23.963 43.2067 20.4375 38.8638 20.4375C34.5209 20.4375 31.0051 23.963 31.0051 28.3153Z" fill="black" stroke="black" stroke-width="0.5"/>
<path d="M11.1569 23.5469C8.53182 23.5469 6.40918 25.6851 6.40918 28.3065C6.40918 28.9336 6.92189 29.4476 7.54741 29.4476C8.17292 29.4476 8.68563 28.9336 8.68563 28.3065C8.68563 26.9393 9.80335 25.8188 11.1672 25.8188C11.7927 25.8188 12.3054 25.3048 12.3054 24.6777C12.2951 24.0506 11.7824 23.5469 11.1569 23.5469Z" fill="#8BF6FF"/>
</g>
</g>
<defs>
<filter id="filter0_d" x="-4" y="10.5" width="58" height="37" filterUnits="userSpaceOnUse" color-interpolation-filters="sRGB">
<feFlood flood-opacity="0" result="BackgroundImageFix"/>
<feColorMatrix in="SourceAlpha" type="matrix" values="0 0 0 0 0 0 0 0 0 0 0 0 0 0 0 0 0 0 127 0"/>
<feOffset dy="4"/>
<feGaussianBlur stdDeviation="2"/>
<feColorMatrix type="matrix" values="0 0 0 0 0 0 0 0 0 0 0 0 0 0 0 0 0 0 0.25 0"/>
<feBlend mode="normal" in2="BackgroundImageFix" result="effect1_dropShadow"/>
<feBlend mode="normal" in="SourceGraphic" in2="effect1_dropShadow" result="shape"/>
</filter>
<clipPath id="clip0">
<rect width="50" height="50" fill="white"/>
</clipPath>
</defs>
</svg>
