<svg width="60" height="60" viewBox="0 0 60 60" fill="none" xmlns="http://www.w3.org/2000/svg">
<g filter="url(#filter0_d)">
<path d="M51.6058 25.266C51.3289 24.9988 51.0315 24.7418 50.7239 24.495L46.5196 20.9176C44.8995 19.7662 42.9717 19.0363 40.8798 18.8924L41.1054 19.1186L38.5521 16.5486H38.5315C37.824 15.9009 36.8703 15.5 35.8347 15.5C34.0504 15.5 32.543 16.6616 32.0303 18.2756C31.5176 17.9467 30.9229 17.7513 30.2768 17.7102C30.1743 17.6999 30.0615 17.6999 29.959 17.6999C29.2309 17.6999 28.5541 17.9158 27.9799 18.2756C27.4569 16.6719 25.9495 15.5103 24.1755 15.5103C23.1398 15.5103 22.1965 15.9009 21.4787 16.5588H21.4581L18.9048 19.1289L19.1304 18.9027C17.0385 19.0466 15.1005 19.7868 13.4906 20.9279L9.28629 24.5053C8.97867 24.7418 8.68129 24.9988 8.40443 25.2763C6.3023 27.3118 5 30.1593 5 33.3153C5 39.4833 10.0041 44.5 16.1567 44.5C21.8376 44.5 26.5443 40.2132 27.2211 34.6928C28.0414 35.1657 28.995 35.433 30 35.433C31.0151 35.433 31.9585 35.1657 32.7789 34.6928C33.4659 40.2029 38.1624 44.4897 43.8433 44.4897C49.9958 44.4897 54.9999 39.4731 54.9999 33.305C55.0102 30.1491 53.7079 27.3015 51.6058 25.266ZM16.1567 40.9431C11.9524 40.9431 8.54799 37.5301 8.54799 33.3153C8.54799 29.1005 11.9524 25.6875 16.1567 25.6875C20.3609 25.6875 23.7654 29.1005 23.7654 33.3153C23.7756 37.5198 20.3609 40.9431 16.1567 40.9431ZM30.0102 32.2667C28.6464 32.2667 27.5389 31.1565 27.5389 29.7893C27.5389 28.422 28.6464 27.3118 30.0102 27.3118C31.374 27.3118 32.4815 28.422 32.4815 29.7893C32.4815 31.1565 31.374 32.2667 30.0102 32.2667ZM43.8638 40.9431C39.6595 40.9431 36.2551 37.5301 36.2551 33.3153C36.2551 29.1005 39.6595 25.6875 43.8638 25.6875C48.068 25.6875 51.4725 29.1005 51.4725 33.3153C51.4725 37.5198 48.068 40.9431 43.8638 40.9431Z" fill="black"/>
<path d="M16.1567 41.1931C11.8137 41.1931 8.29799 37.6676 8.29799 33.3153C8.29799 28.963 11.8137 25.4375 16.1567 25.4375C20.4994 25.4375 24.015 28.9627 24.0154 33.3147L16.1567 41.1931ZM16.1567 41.1931C20.4991 41.1931 24.0256 37.6579 24.0154 33.3153L16.1567 41.1931ZM13.6441 21.1255C15.1643 20.0502 16.982 19.341 18.9439 19.1681L19.0818 19.3054L19.0822 19.3051L19.3074 19.0792L19.7779 18.6076L19.7749 18.6078L21.5622 16.8088H21.5759L21.6476 16.7431C22.3207 16.1261 23.2044 15.7603 24.1755 15.7603C25.8377 15.7603 27.2516 16.8488 27.7422 18.3531L27.8414 18.6574L28.1126 18.4875C28.65 18.1508 29.2812 17.9499 29.959 17.9499C30.0641 17.9499 30.164 17.9502 30.2519 17.959L30.2519 17.9591L30.261 17.9597C30.8659 17.9982 31.4194 18.1807 31.8953 18.486L32.1698 18.6622L32.2686 18.3513C32.7491 16.8387 34.1619 15.75 35.8347 15.75C36.8053 15.75 37.6993 16.1257 38.3627 16.733L38.4344 16.7986H38.448L40.2353 18.5975L40.2323 18.5973L40.7028 19.069L40.9279 19.2946L40.928 19.2948L40.9284 19.2951L41.0663 19.1578C43.0279 19.3301 44.8363 20.0303 46.366 21.1151L50.5619 24.6854L50.5618 24.6855L50.5675 24.6901C50.8705 24.9331 51.1619 25.185 51.4321 25.4459C53.4874 27.4361 54.76 30.2193 54.7499 33.3042V33.305C54.7499 39.3356 49.8572 44.2397 43.8433 44.2397C38.2911 44.2397 33.6987 40.0495 33.027 34.6619L32.9804 34.2881L32.654 34.4762C31.8708 34.9277 30.9703 35.183 30 35.183C29.0396 35.183 28.1289 34.9276 27.3459 34.4762L27.0189 34.2877L26.9729 34.6624C26.3112 40.0596 21.7091 44.25 16.1567 44.25C10.1428 44.25 5.25 39.3459 5.25 33.3153C5.25 30.2297 6.52292 27.4461 8.57833 25.4559L8.57836 25.4559L8.58142 25.4529C8.84964 25.184 9.13861 24.9341 9.43864 24.7035L9.43883 24.7038L9.44831 24.6957L13.6441 21.1255ZM27.2889 29.7893C27.2889 31.294 28.5077 32.5167 30.0102 32.5167C31.5127 32.5167 32.7315 31.294 32.7315 29.7893C32.7315 28.2845 31.5127 27.0618 30.0102 27.0618C28.5077 27.0618 27.2889 28.2845 27.2889 29.7893ZM36.0051 33.3153C36.0051 37.6676 39.5209 41.1931 43.8638 41.1931C48.2069 41.1931 51.7225 37.6571 51.7225 33.3153C51.7225 28.963 48.2067 25.4375 43.8638 25.4375C39.5209 25.4375 36.0051 28.963 36.0051 33.3153Z" stroke="black" stroke-width="0.5"/>
</g>
<ellipse cx="16.1588" cy="33.3078" rx="7.62558" ry="7.62619" fill="#F8F8F8"/>
<ellipse cx="43.7838" cy="33.3078" rx="7.62558" ry="7.62619" fill="#F8F8F8"/>
<g filter="url(#filter1_d)">
<path d="M43.8639 28.5469C41.2388 28.5469 39.1162 30.6851 39.1162 33.3065C39.1162 33.9336 39.6289 34.4476 40.2544 34.4476C40.8799 34.4476 41.3927 33.9336 41.3927 33.3065C41.3927 31.9393 42.5104 30.8188 43.8742 30.8188C44.4997 30.8188 45.0124 30.3048 45.0124 29.6777C45.0022 29.0506 44.4895 28.5469 43.8639 28.5469Z" fill="#8BF6FF"/>
</g>
<g filter="url(#filter2_d)">
<path d="M16.1569 28.5469C13.5318 28.5469 11.4092 30.6851 11.4092 33.3065C11.4092 33.9336 11.9219 34.4476 12.5474 34.4476C13.1729 34.4476 13.6856 33.9336 13.6856 33.3065C13.6856 31.9393 14.8034 30.8188 16.1672 30.8188C16.7927 30.8188 17.3054 30.3048 17.3054 29.6777C17.2951 29.0506 16.7824 28.5469 16.1569 28.5469Z" fill="#8BF6FF"/>
</g>
<defs>
<filter id="filter0_d" x="1" y="15.5" width="58" height="37" filterUnits="userSpaceOnUse" color-interpolation-filters="sRGB">
<feFlood flood-opacity="0" result="BackgroundImageFix"/>
<feColorMatrix in="SourceAlpha" type="matrix" values="0 0 0 0 0 0 0 0 0 0 0 0 0 0 0 0 0 0 127 0"/>
<feOffset dy="4"/>
<feGaussianBlur stdDeviation="2"/>
<feColorMatrix type="matrix" values="0 0 0 0 0 0 0 0 0 0 0 0 0 0 0 0 0 0 0.25 0"/>
<feBlend mode="normal" in2="BackgroundImageFix" result="effect1_dropShadow"/>
<feBlend mode="normal" in="SourceGraphic" in2="effect1_dropShadow" result="shape"/>
</filter>
<filter id="filter1_d" x="35.1162" y="28.5469" width="13.8962" height="13.9007" filterUnits="userSpaceOnUse" color-interpolation-filters="sRGB">
<feFlood flood-opacity="0" result="BackgroundImageFix"/>
<feColorMatrix in="SourceAlpha" type="matrix" values="0 0 0 0 0 0 0 0 0 0 0 0 0 0 0 0 0 0 127 0"/>
<feOffset dy="4"/>
<feGaussianBlur stdDeviation="2"/>
<feColorMatrix type="matrix" values="0 0 0 0 0 0 0 0 0 0 0 0 0 0 0 0 0 0 0.25 0"/>
<feBlend mode="normal" in2="BackgroundImageFix" result="effect1_dropShadow"/>
<feBlend mode="normal" in="SourceGraphic" in2="effect1_dropShadow" result="shape"/>
</filter>
<filter id="filter2_d" x="7.40918" y="28.5469" width="13.8962" height="13.9007" filterUnits="userSpaceOnUse" color-interpolation-filters="sRGB">
<feFlood flood-opacity="0" result="BackgroundImageFix"/>
<feColorMatrix in="SourceAlpha" type="matrix" values="0 0 0 0 0 0 0 0 0 0 0 0 0 0 0 0 0 0 127 0"/>
<feOffset dy="4"/>
<feGaussianBlur stdDeviation="2"/>
<feColorMatrix type="matrix" values="0 0 0 0 0 0 0 0 0 0 0 0 0 0 0 0 0 0 0.25 0"/>
<feBlend mode="normal" in2="BackgroundImageFix" result="effect1_dropShadow"/>
<feBlend mode="normal" in="SourceGraphic" in2="effect1_dropShadow" result="shape"/>
</filter>
</defs>
</svg>
