<svg width="251" height="251" viewBox="0 0 251 251" fill="none" xmlns="http://www.w3.org/2000/svg">
<rect x="0.755859" y="0.0546875" width="250" height="250" rx="30" fill="#E0F7FA"/>
<path d="M224.545 118.846C224.261 116.077 223.535 113.662 222.688 112.32C220.73 109.221 218.936 110.036 218.936 110.036L121.224 107.753C74.2442 106.611 36.1976 96.9116 29.7111 94.0501C24.1675 91.6042 19.4388 96.8183 18.7827 97.9634C26.0264 101.785 42.736 106.939 75.5085 112.035C137.614 121.692 219.243 118.898 224.545 118.846Z" fill="#B2B2B2"/>
<path d="M220.73 153.346C221.057 153.233 222.647 153.346 222.647 153.346C222.647 153.346 221.567 152.694 222.627 151.225C223.687 149.757 224.33 148.697 223.841 151.225C223.351 153.754 223.672 153.346 223.672 153.346L224.645 153.37C224.645 153.37 225.218 153.591 225.218 155.14C225.218 156.69 224.483 156.772 223.994 156.935C223.504 157.098 223.585 158.321 223.585 158.321C223.585 158.321 224.401 158.974 223.667 159.708C222.933 160.442 222.443 159.708 222.443 159.708L222.973 156.772L220.73 156.69V153.346Z" fill="#C9C9C9"/>
<path d="M204.011 112.095C204.011 112.095 204.214 105.53 205.927 104.225C207.64 102.92 213.533 100.279 215.735 100.279C217.937 100.279 224.121 100.204 224.664 100.682C225.206 101.161 225.619 102.05 226.68 102.05C227.74 102.05 229.945 102.454 230.108 103.923C230.271 105.391 230.109 106.111 230.109 106.111C230.109 106.111 232.067 117.377 231.741 118.927C231.415 120.477 230.274 121.455 229.784 122.352C229.295 123.25 226.603 130.345 225.706 131.242C224.809 132.14 223.586 132.963 223.586 132.963L224.157 140.377C224.157 140.377 224.483 142.009 226.196 142.58C227.908 143.15 229.213 145.842 229.213 145.842C229.213 145.842 229.458 148.534 229.377 149.349C229.295 150.165 228.479 150.002 228.479 150.002C228.479 150.002 227.501 148.207 226.685 148.044C225.869 147.881 222.199 147.881 222.199 147.881C222.199 147.881 221.139 148.044 221.139 148.941C221.139 149.839 220.812 152.775 220.812 152.775C220.812 152.775 221.302 153.427 221.383 153.998C221.465 154.569 221.383 156.608 221.057 157.016C220.731 157.424 220.812 157.995 220.812 157.995C220.812 157.995 221.302 159.545 221.873 160.85C222.444 162.155 222.444 162.889 222.444 162.889H218.773L209.312 155.385L209.149 141.927L210.617 139.072L210.78 136.136H208.986L206.702 137.196L205.479 135.973C205.479 135.973 208.252 129.285 208.17 128.714C208.089 128.143 204.011 112.095 204.011 112.095Z" fill="#36627A"/>
<path d="M205.614 132.221L202.352 142.511C202.352 142.511 120.788 142.371 116.004 142.511C62.4995 144.075 29.3306 137.876 17.8042 108.351C17.8042 108.351 74.5352 127.194 92.8407 127.692" fill="#4D5768"/>
<path d="M16.4076 100.667C15.5293 103.564 15.5744 107.901 21.718 111.341C50.2649 127.327 119.959 131.242 119.959 131.242C119.959 131.242 221.383 134.342 222.688 132.221C223.928 130.05 224.507 127.432 224.642 124.849C194.77 124.787 108.807 124.219 72.504 116.887C33.3514 110.265 22.6253 104.054 16.4076 100.667Z" fill="#B7B7B7"/>
<path d="M156.459 101.282C156.006 101.263 155.586 101.256 155.018 101.224C148.234 100.846 145.77 108.481 145.421 111.625L156.459 111.668V101.282Z" fill="#E5E5E5"/>
<path d="M154.883 104.336L155.018 101.224C155.018 101.224 156.005 101.023 151.022 101.212C142.023 101.554 142.865 111.615 142.865 111.615L146.13 111.628C146.373 103.892 151.484 104.685 154.883 104.336Z" fill="#FAFF00"/>
<path d="M122.705 94.1674C122.705 94.1674 125.384 82.7944 125.547 81.8972C125.71 81 124.813 81 124.813 81L117.309 93.5779L114.863 95.9259L114.225 98.0909L122.166 95.4366L122.705 94.1674Z" fill="#3FA9F5"/>
<path d="M100.236 109.71C100.236 109.71 115.026 96.4426 119.158 95.029C123.291 93.6153 122.095 94.0502 124.705 95.029C126.86 95.8374 129.202 100.864 129.951 102.589C130.109 102.953 130.044 103.254 129.767 103.405C127.193 104.819 113.907 112.113 113.612 112.211C113.286 112.32 100.236 109.71 100.236 109.71Z" fill="#E5E5E5"/>
<path d="M128.198 100.586C128.198 100.586 127.464 100.371 127.913 99.474C128.361 98.5768 129.259 99.0049 129.259 99.0049C129.259 99.0049 129.748 97.8428 130.197 98.0463C130.645 98.2499 130.851 99.0114 130.851 99.0114L131.665 98.9843V98.6176L132.276 98.4545C132.276 98.4545 130.808 94.2948 131.338 93.6423C131.869 92.9898 132.929 97.5165 133.133 98.0467C133.337 98.5768 133.541 98.6176 133.541 98.6176H134.275C134.275 98.6176 134.691 98.7807 134.609 99.5556C134.528 100.33 133.581 100.045 133.581 100.045L134.315 103.169C134.315 103.169 134.79 104.123 134.532 104.612C134.275 105.102 133.108 103.055 132.568 100.329C132.535 100.195 131.311 100.48 131.311 100.48C131.311 100.48 131.417 101.339 130.67 101.502C129.923 101.665 129.585 100.667 129.585 100.667L128.198 100.586Z" fill="#49443F"/>
<path d="M224.546 121.13C224.261 118.361 223.535 115.946 222.688 114.604C220.731 111.505 218.936 112.32 218.936 112.32L121.224 110.036C74.2445 108.895 35.2191 96.5854 28.7326 93.7239C23.189 91.278 18.4603 96.4921 17.8042 97.6372C25.0479 101.459 42.7362 109.222 75.5087 114.318C137.614 123.976 219.244 121.182 224.546 121.13Z" fill="#DDDDDD"/>
<path d="M224.545 121.13C219.244 121.182 137.614 123.975 75.5086 114.318C42.7364 109.222 25.0478 101.459 17.8041 97.6372C17.8037 97.6375 17.8034 97.6385 17.8031 97.6388C17.579 98.031 16.8671 99.152 16.4077 100.667C22.6254 104.055 33.3515 110.265 72.5044 116.888C108.808 124.22 194.771 124.788 224.643 124.849C224.709 123.582 224.668 122.323 224.545 121.13Z" fill="#FF6B00"/>
</svg>
