<svg width="70" height="70" viewBox="0 0 70 70" fill="none" xmlns="http://www.w3.org/2000/svg">
<g clip-path="url(#clip0)">
<path d="M10.6602 40.3899C14.5833 45.1332 20.5618 48.1602 27.2569 48.1602C30.3864 48.1602 33.3588 47.4986 36.0378 46.3096C39.7477 44.6658 42.8949 42.01 45.1186 38.6988C47.3567 35.3687 48.6602 31.3755 48.6602 27.0822C48.6602 20.1504 45.2629 14.0003 40.0187 10.1602C40.0283 10.4523 40.0331 10.7444 40.0331 11.0381C40.0331 27.1075 26.9234 40.161 10.6602 40.3899Z" fill="#E0F7FA"/>
<path d="M33.0952 38.1292C33.3629 38.096 43.6128 33.9555 43.6602 36.9007C43.1118 37.9723 41.4666 39.2008 41.4666 39.7424L39.273 41.3674C39.273 41.8802 37.6279 42.8795 32.6924 44.6174L27.7569 45.1591H22.273L17.1602 43.1592L14.1602 41.1592C13.641 41.1592 13.2085 40.7008 12.6602 40.1592L11.1602 38.6592C11.1602 38.6592 11.9117 38.4342 12.5696 37.6965C13.1123 37.0879 14.548 35.6727 16.368 35.3983C19.2158 34.9693 21.3722 35.9571 23.6265 36.9007L20.8367 29.0103C17.5158 30.2302 15.3205 31.4673 14.1358 32.228C13.8733 32.3967 13.5432 32.4247 13.2548 32.3033C12.9674 32.182 12.7591 31.927 12.7001 31.6232C11.8796 27.3827 14.0892 23.0796 18.0916 21.2497L18.0124 21.0255C17.8411 20.5411 18.0997 20.0117 18.5896 19.8425L18.605 19.8373C18.8411 19.7558 19.0992 19.7705 19.3238 19.8771C19.5479 19.9837 19.7201 20.1747 19.8027 20.4075L19.8823 20.6326C24.1798 19.6022 28.6346 21.6265 30.6561 25.4717C30.7996 25.7437 30.7977 26.0679 30.6513 26.3381C30.5045 26.6082 30.2334 26.7893 29.9244 26.823C28.4412 26.9831 25.7906 27.3884 22.6284 28.3946L25.9465 37.7771C26.8745 38.0671 27.8563 38.278 28.9369 38.3269C30.516 38.3975 32.0947 38.2539 33.0952 38.1292Z" fill="#8BF6FF"/>
<path d="M45.5163 35.3327L45.5162 35.3329C44.8744 36.5865 44.1044 37.7624 43.2209 38.8444L43.2198 38.8457C39.5652 43.3323 34.0004 46.1915 27.7673 46.1915C24.8508 46.1915 22.0848 45.5659 19.5927 44.4429L19.5918 44.4425C16.139 42.8892 13.2077 40.3781 11.1365 37.2466L11.1362 37.2461C9.05308 34.0991 7.83984 30.3264 7.83984 26.2657C7.83984 19.7137 11.0003 13.9006 15.8861 10.2681L15.8865 10.2678C19.2045 7.79905 23.3128 6.33984 27.7673 6.33984C38.7714 6.33984 47.6932 15.2601 47.6932 26.2657C47.6932 29.5346 46.9078 32.6152 45.5163 35.3327Z" stroke="black" stroke-width="3"/>
<path d="M42.7022 42.1602L45.6602 45.1181C45.2187 45.3092 44.8048 45.5842 44.4445 45.9445C44.0842 46.3048 43.8078 46.7187 43.6181 47.1602L40.6602 44.2036C41.0204 43.8887 41.3725 43.5587 41.7149 43.2163C42.0587 42.8725 42.3873 42.5204 42.7022 42.1602Z" fill="#E6E6E6"/>
<g filter="url(#filter0_d)">
<path d="M62.8041 62.6293C63.0275 62.3537 63.2071 62.0563 63.343 61.7457L62.4269 61.3448C62.5304 61.1083 62.5993 60.8619 62.6339 60.6123L63.6244 60.7497C63.6721 60.4064 63.6721 60.0581 63.6244 59.7148L62.6339 59.8522C62.5993 59.6026 62.5304 59.3562 62.4269 59.1197L63.343 58.7188C63.2071 58.4082 63.0275 58.1108 62.8041 57.8352L62.0272 58.4648C61.947 58.3659 61.8588 58.27 61.7623 58.1781L61.4081 57.8408L62.0977 57.1167L61.3894 56.4421L60.6997 57.1662L59.9914 56.4916L60.681 55.7675L59.9726 55.0929L59.283 55.817L58.5746 55.1424L59.2643 54.4183L58.5559 53.7437L57.8663 54.4678L57.1579 53.7932L57.8476 53.0691L57.1392 52.3945L56.4496 53.1186L55.7412 52.444L56.4308 51.7199L55.7225 51.0453L55.0328 51.7694L54.3245 51.0948L55.0141 50.3707L54.3057 49.6961L53.6161 50.4202L52.9077 49.7456L53.5974 49.0215L52.889 48.3469L52.1994 49.071L51.491 48.3964L52.1807 47.6723L51.4723 46.9977L50.7827 47.7218L50.0743 47.0472L50.7639 46.3231L50.0556 45.6485L49.3659 46.3726L49.0124 46.0359C49.0123 46.0359 49.0123 46.0358 49.0122 46.0357C48.9381 45.9653 48.8612 45.8991 48.782 45.8373L49.3974 45.0491C49.1839 44.8824 48.957 44.7391 48.7205 44.6192L48.2685 45.5112C48.0857 45.4186 47.8948 45.3441 47.6987 45.2879L47.9739 44.3266C47.7159 44.2527 47.4519 44.2034 47.1858 44.1787L47.0934 45.1744C46.9908 45.1649 46.8878 45.1602 46.7848 45.1602C46.677 45.1602 46.5693 45.1654 46.4621 45.1757L46.3657 44.1804C46.0875 44.2074 45.8119 44.2613 45.5431 44.3421L45.8312 45.2997C45.7289 45.3305 45.6281 45.3663 45.5292 45.4071L45.529 45.4072C45.4388 45.4444 45.3503 45.4856 45.2638 45.5308L44.8005 44.6446C44.5761 44.7619 44.3607 44.9004 44.1578 45.0603L44.7765 45.8459C44.7012 45.9052 44.6282 45.9683 44.5578 46.0353C44.4882 46.1017 44.4228 46.1701 44.3616 46.2402L43.6078 45.5831C43.4395 45.7762 43.2935 45.9812 43.1702 46.1948L44.0361 46.6949C43.9894 46.7757 43.9473 46.8579 43.9097 46.9412L43.9089 46.943L43.9089 46.943C43.8484 47.0762 43.7991 47.2126 43.7607 47.3511L42.797 47.0841C42.6912 47.466 42.6467 47.8602 42.6637 48.2524L43.6627 48.2093C43.6751 48.4962 43.7322 48.7819 43.8342 49.0562L42.897 49.4048C43.0314 49.7661 43.2229 50.1123 43.4717 50.4309L44.2598 49.8153C44.3487 49.929 44.4479 50.0388 44.5578 50.1436L44.912 50.4809L44.2224 51.205L44.9308 51.8796L45.6204 51.1555L46.3288 51.8301L45.6391 52.5542L46.3475 53.2288L47.0371 52.5047L47.7455 53.1793L47.0558 53.9034L47.7642 54.578L48.4538 53.8539L49.1622 54.5285L48.4726 55.2526L49.1809 55.9272L49.8706 55.2031L50.5789 55.8777L49.8893 56.6018L50.5976 57.2764L51.2873 56.5523L51.9956 57.2269L51.306 57.951L52.0144 58.6256L52.704 57.9015L53.4124 58.5761L52.7227 59.3002L53.4311 59.9748L54.1207 59.2507L54.8291 59.9253L54.1395 60.6494L54.8478 61.324L55.5375 60.5999L56.2458 61.2745L55.5562 61.9986L56.2645 62.6732L56.9542 61.9491L57.308 62.2861C57.3081 62.2862 57.3082 62.2863 57.3084 62.2864C57.4072 62.3804 57.511 62.4668 57.6189 62.5455L57.0296 63.3534C57.3217 63.5665 57.6369 63.7374 57.966 63.866L58.3301 62.9347C58.585 63.0343 58.852 63.1013 59.124 63.1349L59.0014 64.1273C59.3557 64.1711 59.7149 64.1711 60.0693 64.1273L59.9467 63.1349C60.2186 63.1013 60.4857 63.0343 60.7405 62.9347L61.1047 63.866C61.4338 63.7374 61.749 63.5665 62.0411 63.3534L61.4517 62.5455C61.5596 62.4668 61.6634 62.3804 61.7623 62.2864L62.8041 62.6293ZM62.8041 62.6293L62.0272 61.9997C61.9471 62.0985 61.859 62.1942 61.7626 62.2861L62.8041 62.6293Z" stroke="black" stroke-width="2" stroke-dasharray="1 1"/>
</g>
<path d="M32.1602 14.1602C30.78 14.1602 29.6602 15.2788 29.6602 16.6602C29.6602 18.0403 30.78 19.1602 32.1602 19.1602C33.5415 19.1602 34.6602 18.0403 34.6602 16.6602C34.6602 15.2788 33.5415 14.1602 32.1602 14.1602Z" fill="#4FC3F7"/>
</g>
<defs>
<filter id="filter0_d" x="38.6602" y="44.1602" width="29" height="28" filterUnits="userSpaceOnUse" color-interpolation-filters="sRGB">
<feFlood flood-opacity="0" result="BackgroundImageFix"/>
<feColorMatrix in="SourceAlpha" type="matrix" values="0 0 0 0 0 0 0 0 0 0 0 0 0 0 0 0 0 0 127 0"/>
<feOffset dy="4"/>
<feGaussianBlur stdDeviation="2"/>
<feColorMatrix type="matrix" values="0 0 0 0 0 0 0 0 0 0 0 0 0 0 0 0 0 0 0.25 0"/>
<feBlend mode="normal" in2="BackgroundImageFix" result="effect1_dropShadow"/>
<feBlend mode="normal" in="SourceGraphic" in2="effect1_dropShadow" result="shape"/>
</filter>
<clipPath id="clip0">
<rect width="70" height="70" fill="white"/>
</clipPath>
</defs>
</svg>
