<svg width="195" height="84" viewBox="0 0 195 84" fill="none" xmlns="http://www.w3.org/2000/svg">
<path d="M75 35L94.7727 35C118.006 35 114.051 44 131.352 44C148.653 44 162 44 162 44" stroke="black" stroke-dasharray="0.5 0.5"/>
<path d="M162.5 44L159 40" stroke="black" stroke-dasharray="0.5 0.5"/>
<path d="M163 44L159 47.5" stroke="black" stroke-dasharray="0.5 0.5"/>
<path d="M31.8575 16L59.0001 16C82.5001 16 78.5001 25 96.0001 25C113.5 25 119 25 119 25" stroke="black" stroke-dasharray="0.5 0.5"/>
<path d="M163.632 21.4598L167.462 21.3815" stroke="black" stroke-width="0.8" stroke-dasharray="0.5 0.5"/>
<path d="M165.412 24.7938L178.666 24.5437" stroke="black" stroke-width="0.8" stroke-dasharray="0.5 0.5"/>
<path d="M163.818 27.8508L167.653 27.7742" stroke="black" stroke-width="0.8" stroke-dasharray="0.5 0.5"/>
<path d="M143.096 32.7838L143.096 32.7838L143.115 32.7819L143.134 32.7814L161.568 32.3343L161.42 19.8592L161.419 19.857L161.374 17.0606L142.533 16.7927L142.521 16.7926L142.51 16.7919L142.51 16.7919L142.51 16.7919L142.508 16.7918L142.501 16.7913L142.47 16.7897C142.443 16.7882 142.4 16.7862 142.345 16.7839C142.233 16.7794 142.068 16.7739 141.855 16.7703C141.429 16.763 140.812 16.7633 140.055 16.7934C138.54 16.8537 136.471 17.0338 134.25 17.5112C129.863 18.4542 125.002 20.5299 122.538 24.9977C125.22 29.5822 130.231 31.5569 134.709 32.3655C136.976 32.7749 139.077 32.8795 140.612 32.8814C141.379 32.8823 142.003 32.8576 142.434 32.8328C142.65 32.8204 142.817 32.808 142.929 32.7988C142.985 32.7942 143.028 32.7904 143.056 32.7877L143.087 32.7847L143.094 32.784L143.096 32.7839L143.096 32.7838Z" fill="#E0F7FA" stroke="#FCF8E8"/>
<path d="M161.853 19.823L161.8 16.53L142.478 16.2553C142.478 16.2553 126.96 15.2938 121.912 24.9729C127.423 34.8909 143.089 33.2582 143.089 33.2582L162.007 32.7993L161.956 29.6186" stroke="black"/>
<path d="M161.292 22.5523L163.824 23.2712C164.037 23.3318 164.186 23.5312 164.188 23.7589L164.199 25.3224C164.201 25.547 164.059 25.7453 163.85 25.8096L161.329 26.5866C161.239 26.6143 161.143 26.6149 161.053 26.5883L158.445 25.8214C158.234 25.7593 158.087 25.5609 158.086 25.335L158.074 23.7768C158.073 23.5479 158.22 23.347 158.434 23.2865L161.031 22.552C161.116 22.5279 161.207 22.528 161.292 22.5523Z" fill="black" stroke="black" stroke-width="0.5"/>
<path d="M31.5 16L35 12" stroke="black" stroke-dasharray="0.5 0.5"/>
<path d="M31 16L35 19.5" stroke="black" stroke-dasharray="0.5 0.5"/>
<path d="M31.193 31.4598L27.3629 31.3815" stroke="black" stroke-width="0.8" stroke-dasharray="0.5 0.5"/>
<path d="M29.4131 34.7938L16.1596 34.5437" stroke="black" stroke-width="0.8" stroke-dasharray="0.5 0.5"/>
<path d="M31.0069 37.8508L27.1718 37.7742" stroke="black" stroke-width="0.8" stroke-dasharray="0.5 0.5"/>
<path d="M51.7293 42.7838L51.7291 42.7838L51.7103 42.7819L51.6913 42.7814L33.2573 42.3343L33.4057 29.8592L33.4057 29.857L33.451 27.0606L52.2923 26.7927L52.3037 26.7926L52.315 26.7919L52.3151 26.7919L52.3152 26.7919L52.3167 26.7918L52.324 26.7913L52.3549 26.7897C52.3827 26.7882 52.4248 26.7862 52.4805 26.7839C52.5918 26.7794 52.7572 26.7739 52.9703 26.7703C53.3966 26.763 54.0134 26.7633 54.7701 26.7934C56.2848 26.8537 58.3539 27.0338 60.5752 27.5112C64.9623 28.4542 69.8232 30.5299 72.2874 34.9977C69.6055 39.5822 64.5943 41.5569 60.1162 42.3655C57.8489 42.7749 55.7481 42.8795 54.213 42.8814C53.4461 42.8823 52.822 42.8576 52.3911 42.8328C52.1756 42.8204 52.0085 42.808 51.8961 42.7988C51.8399 42.7942 51.7974 42.7904 51.7693 42.7877L51.7381 42.7847L51.7309 42.784L51.7294 42.7839L51.7293 42.7838Z" fill="#E0F7FA" stroke="#FCF8E8"/>
<path d="M32.9722 29.823L33.0255 26.53L52.347 26.2553C52.347 26.2553 67.8656 25.2938 72.9134 34.9729C67.402 44.8909 51.7363 43.2582 51.7363 43.2582L32.8178 42.7993L32.8693 39.6186" stroke="black"/>
<path d="M33.5328 32.5523L31.0012 33.2712C30.7877 33.3318 30.639 33.5312 30.6373 33.7589L30.626 35.3224C30.6243 35.547 30.7664 35.7453 30.9751 35.8096L33.496 36.5866C33.586 36.6143 33.682 36.6149 33.7726 36.5883L36.3799 35.8214C36.5912 35.7593 36.7378 35.5609 36.7394 35.335L36.7507 33.7768C36.7524 33.5479 36.6049 33.347 36.3908 33.2865L33.7943 32.552C33.7088 32.5279 33.6184 32.528 33.5328 32.5523Z" fill="black" stroke="black" stroke-width="0.5"/>
</svg>
