<svg width="376" height="376" viewBox="0 0 376 376" fill="none" xmlns="http://www.w3.org/2000/svg">
<g clip-path="url(#clip0)">
<path d="M424.357 -12.3936H-56.5811V419.325H424.357V-12.3936Z" fill="#F4F4F4"/>
<path d="M7.62349 -95.585H-2.82495V111.036H7.62349V-95.585Z" fill="#969696"/>
<path d="M95.8964 56.2053L90.8638 65.2671L-100.384 -39.0597L-95.3508 -48.1221L95.8964 56.2053Z" fill="#969696"/>
<path d="M85.6734 -46.8057L91.0448 -37.9369L-96.0966 73.4076L-101.468 64.5384L85.6734 -46.8057Z" fill="#969696"/>
<path d="M2.74125 31.9968C15.6072 31.9968 26.0372 21.6594 26.0372 8.90758C26.0372 -3.84424 15.6072 -14.1816 2.74125 -14.1816C-10.1247 -14.1816 -20.5547 -3.84424 -20.5547 8.90758C-20.5547 21.6594 -10.1247 31.9968 2.74125 31.9968Z" fill="black"/>
<path d="M0.137665 -165.519C-98.387 -165.519 -178.257 -86.3575 -178.257 11.2925C-178.257 108.943 -98.3875 188.104 0.137665 188.104C98.6619 188.104 178.533 108.943 178.533 11.2925C178.533 -86.3579 98.6628 -165.519 0.137665 -165.519ZM0.137665 163.352C-84.5955 163.352 -153.284 95.2724 -153.284 11.2921C-153.284 -72.6878 -84.5955 -140.768 0.137665 -140.768C84.8703 -140.768 153.559 -72.6878 153.559 11.2921C153.56 95.2729 84.8708 163.352 0.137665 163.352Z" fill="black" stroke="black" stroke-miterlimit="10"/>
<path d="M37.3194 158.746C36.5802 158.849 15.9665 161.544 15.6168 144.666C15.2657 127.788 15.2099 115.896 15.2099 115.896C15.2099 115.896 16.0012 103.402 7.8946 103.411C7.11554 103.411 1.22757 103.403 0.564285 103.403C-6.17587 103.402 -6.37368 109.633 -6.31603 116.136C-6.25181 123.193 -6.68868 144.394 -6.68868 144.394C-6.68868 144.394 -9.79415 160.556 -26.1943 160.463C-42.6423 160.371 -20.8154 164.56 -20.8154 164.56L30.9201 164.237L37.3194 158.746Z" fill="black" stroke="black" stroke-miterlimit="10"/>
<path d="M147.368 54.8915C147.088 55.5773 139.136 74.6179 124.214 66.4795C109.29 58.3415 98.8713 52.4446 98.8713 52.4446C98.8713 52.4446 88.3502 45.5184 84.3045 52.4807C83.9149 53.1496 80.9646 58.1995 80.6327 58.7685C77.2624 64.5529 82.6071 67.8393 88.3188 71.0409C94.5162 74.5134 112.823 85.4887 112.823 85.4887C112.823 85.4887 124.763 95.999 116.748 109.76C108.524 123.878 123.381 107.698 123.381 107.698L148.966 63.1302L147.368 54.8915Z" fill="black" stroke="black" stroke-miterlimit="10"/>
<path d="M2.49409 -29.1045C-19.9225 -29.1045 -38.095 -11.0937 -38.095 11.1241C-38.095 33.3414 -19.9225 51.3522 2.49409 51.3522C24.9102 51.3522 43.0832 33.3424 43.0832 11.1241C43.0841 -11.0937 24.9111 -29.1045 2.49409 -29.1045ZM2.49409 31.3394C-8.77044 31.3394 -17.9026 22.2888 -17.9026 11.1241C-17.9026 -0.0405903 -8.77091 -9.09121 2.49409 -9.09121C13.7586 -9.09121 22.8903 -0.0405903 22.8903 11.1241C22.8908 22.2888 13.7586 31.3394 2.49409 31.3394Z" fill="#969696"/>
<path d="M283.448 131.044L269.046 105.966L283.448 80.8877H312.257L326.659 105.966L312.257 131.044H283.448Z" fill="#494949"/>
<path d="M276.543 109.579C276.543 111.289 276.866 112.763 277.248 114.638H277.231L277.288 114.721C277.521 115.661 277.819 116.676 278.172 117.563L287.02 145.107H287.023C288.209 149.794 292.659 153.588 297.971 153.588C303.324 153.588 307.803 149.78 308.948 144.775L317.715 117.546C318.108 116.581 318.431 115.658 318.681 114.629L318.702 114.639H318.696C319.076 112.764 319.161 111.29 319.161 109.579C319.161 99.7811 312.794 91.4387 303.419 88.9482V98.7793C306.231 100.536 307.507 103.374 307.507 106.579C307.507 109.784 305.96 112.641 303.557 114.397L303.498 125.349C303.371 128.312 300.951 130.712 297.956 130.712C294.962 130.712 292.296 128.701 292.169 125.419V125.109C292.169 125.107 292.169 125.106 292.169 125.105C292.169 125.103 292.169 125.102 292.169 125.102V114.465C289.825 112.716 288.082 109.837 288.082 106.578C288.082 103.321 289.825 100.441 292.169 98.6921V88.9131C283.263 91.3628 276.543 99.7365 276.543 109.579ZM297.971 136.608C301.047 136.608 303.542 139.102 303.542 142.179C303.542 145.255 301.049 147.749 297.971 147.749C294.895 147.749 292.401 145.255 292.401 142.179C292.401 139.102 294.895 136.608 297.971 136.608Z" fill="black"/>
<path d="M297.852 117.763C304.362 117.763 309.638 112.486 309.638 105.977C309.638 99.4681 304.362 94.1914 297.852 94.1914C291.343 94.1914 286.067 99.4681 286.067 105.977C286.067 112.486 291.343 117.763 297.852 117.763Z" fill="#F22F2F"/>
<path d="M380.294 139.489C398.808 139.489 413.816 124.48 413.816 105.966C413.816 87.452 398.808 72.4434 380.294 72.4434C361.78 72.4434 346.771 87.452 346.771 105.966C346.771 124.48 361.78 139.489 380.294 139.489Z" fill="#494949"/>
<path d="M285.31 283.933C285.31 290.575 308.917 295.262 308.901 289.272C308.883 283.298 285.812 286.069 285.31 295.795C284.809 305.521 308.148 306.707 308.901 300.778C309.653 294.847 285.56 292.199 285.31 305.721" stroke="#FF0000" stroke-width="4" stroke-miterlimit="10" stroke-linecap="round"/>
<path d="M285.31 263.563C285.31 270.206 308.917 274.893 308.901 268.903C308.883 262.93 285.812 263.825 285.31 273.551C284.809 283.277 308.148 284.463 308.901 278.532C309.653 272.603 285.56 271.123 285.31 284.646" stroke="#FF0000" stroke-width="4" stroke-miterlimit="10" stroke-linecap="round"/>
<path d="M285.309 241.32C285.309 247.963 308.916 252.647 308.9 246.659C308.882 240.686 285.811 242.331 285.309 252.058C284.808 261.784 308.147 262.969 308.9 257.039C309.652 251.109 285.559 250.756 285.309 264.277" stroke="#FF0000" stroke-width="4" stroke-miterlimit="10" stroke-linecap="round"/>
<path d="M285.31 365.957C285.31 372.6 308.935 374.748 308.917 368.757C308.901 362.783 285.803 363.595 285.3 373.321C284.799 383.047 308.664 383.128 309.416 377.197C310.169 371.267 286.563 369.614 286.312 383.137" stroke="#FF0000" stroke-width="4" stroke-miterlimit="10" stroke-linecap="round"/>
<path d="M285.31 346.03C285.31 352.673 308.917 357.358 308.901 351.369C308.883 345.395 285.812 345.321 285.31 355.046C284.809 364.772 308.148 365.958 308.901 360.027C309.275 357.083 285.506 356.101 285.31 366.67" stroke="#FF0000" stroke-width="4" stroke-miterlimit="10" stroke-linecap="round"/>
<path d="M285.31 326.104C285.31 332.746 308.917 337.431 308.901 331.442C308.883 325.469 285.812 325.393 285.31 335.119C284.809 344.845 308.148 346.03 308.901 340.101C309.653 334.171 285.56 333.221 285.31 346.742" stroke="#FF0000" stroke-width="4" stroke-miterlimit="10" stroke-linecap="round"/>
<path d="M285.303 304.889C285.303 311.532 308.919 316.533 308.902 310.543C308.884 304.569 285.813 305.464 285.311 315.191C284.809 324.917 308.148 326.103 308.902 320.173C309.654 314.243 285.561 313.293 285.311 326.815" stroke="#FF0000" stroke-width="4" stroke-miterlimit="10" stroke-linecap="round"/>
<path d="M285.018 241.348C285.267 227.157 309.172 227.966 308.425 234.19C307.678 240.413 284.521 237.548 285.018 227.341C285.516 217.135 308.797 216.981 308.814 223.25C308.831 229.536 287.481 222.111 287.481 215.141C287.481 215.141 285.999 210.586 293.376 205.639C298.403 202.269 298.107 193.41 297.714 192.132C297.32 190.852 290.9 143.285 298.501 142.922C308.814 142.43 297.517 167.625 299.092 178.157C299.303 179.617 301.013 194.052 301.013 194.052" stroke="#FF0000" stroke-width="4" stroke-miterlimit="10" stroke-linecap="round"/>
<path d="M302.461 182.625C302.527 183.176 302.255 183.661 301.852 183.709L295.226 184.503C294.824 184.551 294.443 184.144 294.377 183.594L293.406 175.493C293.34 174.943 293.613 174.458 294.017 174.409L300.642 173.615C301.043 173.567 301.424 173.974 301.49 174.525L302.461 182.625Z" fill="#CECECE"/>
<path d="M297.852 147.746C297.852 147.746 303.389 148.05 303.521 141.715C303.654 135.38 309.013 144.575 309.013 144.575C309.013 144.575 307.169 153.748 297.364 153.588C296.622 153.348 297.852 147.746 297.852 147.746Z" fill="black"/>
<path d="M262.933 447.305C241.619 209.621 239.239 195.203 246.024 259.689C245.471 254.442 244.384 246.624 246.722 242.385C249.058 238.146 262.247 197.063 256.915 164.924C258.785 151.415 258.179 147.77 257.423 142.833C256.665 137.895 257.483 101.797 248.51 99.9062C240.9 99.1736 241.374 102.996 241.502 106.188C241.629 109.379 242.517 123.805 242.367 125.849C242.174 128.47 239.022 147.189 239.022 147.189C239.022 147.189 238.962 124.947 238.055 120.578C237.148 116.208 238.138 110.64 235.897 99.8444C233.656 89.0486 235.954 79.4547 232.679 75.3086C229.406 71.162 220.55 71.124 220.599 77.8169C220.648 84.5097 220.354 93.4192 220.897 97.3286C221.441 101.237 219.353 133.795 220.009 137.53C220.683 141.348 217.792 109.502 217.792 109.502C217.792 109.502 218.461 98.4367 218.659 94.307C218.864 90.0442 217.767 84.8397 217.392 83.0406C217.019 81.2415 219.535 66.2401 215.96 63.2284C212.386 60.2167 205.222 59.2909 203.365 65.8436C201.508 72.3962 200.403 90.3217 200.871 94.5147C201.341 98.7072 198.903 110.207 199.071 112.317C199.242 114.426 200.652 133.489 199.944 135.245C199.236 137.001 197.025 114.082 197.025 114.082C197.025 114.082 200.677 78.7356 196.868 75.2364C193.059 71.7376 189.407 72.2275 186.04 76.6801C182.675 81.1323 176.287 136.888 178.626 146.859C175.385 155.945 177.036 168.907 175.602 169.742C174.167 170.576 170.522 180.625 171.161 183.709C171.801 186.792 167.39 180.562 165.431 180.164C163.471 179.768 154.445 141.634 134.777 142.29C124.874 142.619 128.603 150.007 129.5 153.038C130.398 156.068 138.367 168.625 139.275 172.994C140.182 177.364 145.047 202.093 148.012 206.036C150.976 209.978 160.361 219.024 161.729 223.03C163.097 227.036 169.417 239.397 173.764 242.249C178.11 245.1 181.02 248.786 182.602 253.821C184.184 258.855 188.846 283.894 189.018 286.004C189.186 288.115 188.66 443.622 188.66 443.622L262.933 447.305Z" fill="#F9DBBD"/>
<rect x="315.138" y="15.7314" width="45.0996" height="25" rx="12.5" fill="#969696" fill-opacity="0.3"/>
<path d="M325.676 33.3574H319.441V32.7285L322.852 28.8594C323.417 28.2077 323.809 27.6699 324.028 27.2461C324.247 26.8223 324.356 26.4098 324.356 26.0088C324.356 25.3799 324.172 24.8831 323.802 24.5186C323.433 24.1494 322.925 23.9648 322.278 23.9648C321.608 23.9648 321.066 24.179 320.651 24.6074C320.241 25.0358 320.036 25.5918 320.036 26.2754H319.222C319.222 25.7148 319.348 25.2044 319.598 24.7441C319.854 24.2839 320.214 23.9238 320.678 23.6641C321.148 23.3997 321.681 23.2676 322.278 23.2676C323.19 23.2676 323.9 23.5068 324.411 23.9854C324.926 24.4639 325.183 25.1156 325.183 25.9404C325.183 26.4053 325.038 26.9134 324.746 27.4648C324.459 28.0163 323.951 28.7044 323.221 29.5293L320.446 32.667H325.676V33.3574ZM333.441 33.3574H327.207V32.7285L330.618 28.8594C331.183 28.2077 331.575 27.6699 331.794 27.2461C332.012 26.8223 332.122 26.4098 332.122 26.0088C332.122 25.3799 331.937 24.8831 331.568 24.5186C331.199 24.1494 330.691 23.9648 330.044 23.9648C329.374 23.9648 328.831 24.179 328.417 24.6074C328.007 25.0358 327.802 25.5918 327.802 26.2754H326.988C326.988 25.7148 327.113 25.2044 327.364 24.7441C327.619 24.2839 327.979 23.9238 328.444 23.6641C328.913 23.3997 329.447 23.2676 330.044 23.2676C330.955 23.2676 331.666 23.5068 332.177 23.9854C332.691 24.4639 332.949 25.1156 332.949 25.9404C332.949 26.4053 332.803 26.9134 332.511 27.4648C332.224 28.0163 331.716 28.7044 330.987 29.5293L328.212 32.667H333.441V33.3574ZM334.986 34.2119H334.241L338.397 23.4043H339.135L334.986 34.2119ZM346.771 33.3574H340.537V32.7285L343.948 28.8594C344.513 28.2077 344.905 27.6699 345.124 27.2461C345.343 26.8223 345.452 26.4098 345.452 26.0088C345.452 25.3799 345.267 24.8831 344.898 24.5186C344.529 24.1494 344.021 23.9648 343.374 23.9648C342.704 23.9648 342.162 24.179 341.747 24.6074C341.337 25.0358 341.132 25.5918 341.132 26.2754H340.318C340.318 25.7148 340.443 25.2044 340.694 24.7441C340.949 24.2839 341.309 23.9238 341.774 23.6641C342.244 23.3997 342.777 23.2676 343.374 23.2676C344.285 23.2676 344.996 23.5068 345.507 23.9854C346.022 24.4639 346.279 25.1156 346.279 25.9404C346.279 26.4053 346.133 26.9134 345.842 27.4648C345.554 28.0163 345.046 28.7044 344.317 29.5293L341.542 32.667H346.771V33.3574ZM350.121 27.9365H350.969C351.438 27.9365 351.848 27.8545 352.199 27.6904C352.55 27.5218 352.816 27.2939 352.999 27.0068C353.186 26.7152 353.279 26.3802 353.279 26.002C353.279 25.3639 353.099 24.8649 352.739 24.5049C352.379 24.1449 351.862 23.9648 351.187 23.9648C350.549 23.9648 350.025 24.154 349.615 24.5322C349.209 24.9059 349.007 25.4004 349.007 26.0156H348.186C348.186 25.5007 348.316 25.0312 348.576 24.6074C348.836 24.179 349.196 23.8486 349.656 23.6162C350.116 23.3838 350.627 23.2676 351.187 23.2676C352.09 23.2676 352.801 23.5137 353.32 24.0059C353.84 24.498 354.099 25.1725 354.099 26.0293C354.099 26.5078 353.947 26.9499 353.641 27.3555C353.341 27.7565 352.926 28.0573 352.397 28.2578C353.017 28.431 353.486 28.7295 353.805 29.1533C354.124 29.5726 354.284 30.0739 354.284 30.6572C354.284 31.5094 354.006 32.1953 353.45 32.7148C352.894 33.2344 352.151 33.4941 351.221 33.4941C350.629 33.4941 350.084 33.3757 349.588 33.1387C349.095 32.9017 348.713 32.5713 348.439 32.1475C348.17 31.7191 348.036 31.2223 348.036 30.6572H348.856C348.856 31.2907 349.077 31.8079 349.519 32.209C349.961 32.6055 350.529 32.8037 351.221 32.8037C351.928 32.8037 352.477 32.6237 352.869 32.2637C353.265 31.8991 353.464 31.3727 353.464 30.6846C353.464 30.0192 353.249 29.5111 352.821 29.1602C352.397 28.8092 351.771 28.6338 350.941 28.6338H350.121V27.9365Z" fill="black"/>
</g>
<defs>
<clipPath id="clip0">
<rect width="375" height="375" fill="white" transform="translate(0.137695 0.731445)"/>
</clipPath>
</defs>
</svg>
