<svg width="376" height="376" viewBox="0 0 376 376" fill="none" xmlns="http://www.w3.org/2000/svg">
<g clip-path="url(#clip0)">
<path d="M352.007 81.5802C361.929 81.5468 367.52 87.7473 367.542 95.0296L367.971 276.322C367.985 283.603 362.433 289.208 352.517 289.243L24.7878 289.753C14.8717 289.787 9.04136 283.587 9.00994 276.302L8.59625 95.0198C8.56614 87.729 14.3624 82.125 24.2785 82.0896L352.007 81.5802Z" fill="#111111"/>
<path d="M347.556 108.389C352.31 108.389 356.165 104.529 356.165 99.7668C356.165 95.0049 352.31 91.1445 347.556 91.1445C342.801 91.1445 338.947 95.0049 338.947 99.7668C338.947 104.529 342.801 108.389 347.556 108.389Z" fill="white"/>
<path d="M351.279 278.966C356.033 278.966 359.888 275.106 359.888 270.344C359.888 265.582 356.033 261.722 351.279 261.722C346.524 261.722 342.67 265.582 342.67 270.344C342.67 275.106 346.524 278.966 351.279 278.966Z" fill="white"/>
<path d="M102.206 112.858C97.8857 112.858 94.6937 116.218 94.6937 121.354C94.6937 126.25 97.6937 129.562 101.966 129.562C106.094 129.562 109.478 126.61 109.478 121.042C109.478 116.242 106.622 112.858 102.206 112.858ZM102.11 114.562C105.59 114.562 107.27 117.922 107.27 121.138C107.27 124.81 105.398 127.858 102.086 127.858C98.7977 127.858 96.9257 124.762 96.9257 121.306C96.9257 117.754 98.6537 114.562 102.11 114.562ZM112.201 113.122V129.298H114.289V113.122H112.201ZM117.943 129.298H126.943V127.546H120.031V113.122H117.943V129.298Z" fill="#F9F9F9"/>
<path d="M59.2412 155.433H61.3292V148.953C61.8092 149.073 62.3852 149.097 63.0092 149.097C65.0492 149.097 66.8492 148.497 67.9532 147.321C68.7692 146.481 69.2012 145.329 69.2012 143.865C69.2012 142.425 68.6732 141.249 67.7852 140.481C66.8252 139.617 65.3132 139.137 63.2492 139.137C61.5692 139.137 60.2492 139.281 59.2412 139.449V155.433ZM61.3292 140.961C61.6892 140.865 62.3852 140.793 63.2972 140.793C65.6012 140.793 67.1132 141.825 67.1132 143.961C67.1132 146.193 65.5772 147.417 63.0572 147.417C62.3612 147.417 61.7852 147.369 61.3292 147.249V140.961ZM72.0146 155.433H74.1026V148.425H76.0706C77.9666 148.497 78.8306 149.337 79.3106 151.569C79.7666 153.585 80.1266 154.977 80.3906 155.433H82.5506C82.2146 154.809 81.8306 153.249 81.3026 150.993C80.9186 149.313 80.1746 148.161 78.9266 147.729V147.657C80.6306 147.081 81.9746 145.665 81.9746 143.529C81.9746 142.281 81.5186 141.177 80.7026 140.457C79.6946 139.545 78.2546 139.137 76.0226 139.137C74.5826 139.137 73.0706 139.257 72.0146 139.473V155.433ZM74.1026 140.937C74.4386 140.841 75.1586 140.745 76.1666 140.745C78.3746 140.769 79.8866 141.681 79.8866 143.769C79.8866 145.617 78.4706 146.841 76.2386 146.841H74.1026V140.937ZM93.3047 146.121H87.0167V141.009H93.6647V139.257H84.9287V155.433H94.0247V153.681H87.0167V147.849H93.3047V146.121ZM95.9252 154.641C96.7892 155.217 98.4932 155.673 100.053 155.673C103.869 155.673 105.717 153.513 105.717 151.017C105.717 148.641 104.325 147.321 101.589 146.265C99.3572 145.401 98.3732 144.657 98.3732 143.145C98.3732 142.041 99.2132 140.721 101.421 140.721C102.885 140.721 103.965 141.201 104.493 141.489L105.069 139.785C104.349 139.377 103.149 138.993 101.493 138.993C98.3492 138.993 96.2612 140.865 96.2612 143.385C96.2612 145.665 97.8932 147.033 100.533 147.969C102.717 148.809 103.581 149.673 103.581 151.185C103.581 152.817 102.333 153.945 100.197 153.945C98.7572 153.945 97.3892 153.465 96.4532 152.889L95.9252 154.641ZM107.761 154.641C108.625 155.217 110.329 155.673 111.889 155.673C115.705 155.673 117.553 153.513 117.553 151.017C117.553 148.641 116.161 147.321 113.425 146.265C111.193 145.401 110.209 144.657 110.209 143.145C110.209 142.041 111.049 140.721 113.257 140.721C114.721 140.721 115.801 141.201 116.329 141.489L116.905 139.785C116.185 139.377 114.985 138.993 113.329 138.993C110.185 138.993 108.097 140.865 108.097 143.385C108.097 145.665 109.729 147.033 112.369 147.969C114.553 148.809 115.417 149.673 115.417 151.185C115.417 152.817 114.169 153.945 112.033 153.945C110.593 153.945 109.225 153.465 108.289 152.889L107.761 154.641ZM120.389 139.257V148.785C120.389 153.801 122.885 155.697 126.197 155.697C129.701 155.697 132.317 153.657 132.317 148.689V139.257H130.205V148.833C130.205 152.409 128.669 153.993 126.269 153.993C124.109 153.993 122.501 152.457 122.501 148.833V139.257H120.389ZM135.952 155.433H138.04V148.425H140.008C141.904 148.497 142.768 149.337 143.248 151.569C143.704 153.585 144.064 154.977 144.328 155.433H146.488C146.152 154.809 145.768 153.249 145.24 150.993C144.856 149.313 144.112 148.161 142.864 147.729V147.657C144.568 147.081 145.912 145.665 145.912 143.529C145.912 142.281 145.456 141.177 144.64 140.457C143.632 139.545 142.192 139.137 139.96 139.137C138.52 139.137 137.008 139.257 135.952 139.473V155.433ZM138.04 140.937C138.376 140.841 139.096 140.745 140.104 140.745C142.312 140.769 143.824 141.681 143.824 143.769C143.824 145.617 142.408 146.841 140.176 146.841H138.04V140.937ZM157.242 146.121H150.954V141.009H157.602V139.257H148.866V155.433H157.962V153.681H150.954V147.849H157.242V146.121Z" fill="#F9F9F9"/>
<path d="M26.517 110.487C31.2716 110.487 35.126 106.626 35.126 101.864C35.126 97.1025 31.2716 93.2422 26.517 93.2422C21.7624 93.2422 17.9081 97.1025 17.9081 101.864C17.9081 106.626 21.7624 110.487 26.517 110.487Z" fill="white"/>
<path d="M30.4719 278.966C35.2265 278.966 39.0809 275.106 39.0809 270.344C39.0809 265.582 35.2265 261.722 30.4719 261.722C25.7173 261.722 21.863 265.582 21.863 270.344C21.863 275.106 25.7173 278.966 30.4719 278.966Z" fill="white"/>
<path d="M104.054 253.567C127.184 253.567 145.935 234.787 145.935 211.621C145.935 188.455 127.184 169.675 104.054 169.675C80.9238 169.675 62.173 188.455 62.173 211.621C62.173 234.787 80.9238 253.567 104.054 253.567Z" fill="url(#paint0_radial)"/>
<path d="M306.709 153.658H222.517V219.373H306.709V153.658Z" fill="#9B9191"/>
<path d="M302.357 157.683H227.204V215.183H302.357V157.683Z" fill="#304789"/>
<path d="M240.008 162.041C239.748 162.041 239.496 162.079 239.255 162.143C240.507 162.476 241.431 163.616 241.431 164.975V208.897C241.431 210.256 240.507 211.396 239.255 211.729C239.496 211.793 239.748 211.83 240.008 211.83C241.626 211.83 242.937 210.517 242.937 208.896V164.974C242.937 163.354 241.626 162.041 240.008 162.041Z" fill="#9B9191"/>
<path d="M252.227 162.041C251.967 162.041 251.715 162.079 251.474 162.143C252.727 162.476 253.65 163.616 253.65 164.975V208.897C253.65 210.256 252.727 211.396 251.474 211.729C251.715 211.793 251.967 211.83 252.227 211.83C253.845 211.83 255.156 210.517 255.156 208.896V164.974C255.156 163.354 253.845 162.041 252.227 162.041Z" fill="#9B9191"/>
<path d="M265.115 162.041C264.855 162.041 264.603 162.079 264.363 162.143C265.615 162.476 266.538 163.616 266.538 164.975V208.897C266.538 210.256 265.615 211.396 264.363 211.729C264.603 211.793 264.855 211.83 265.115 211.83C266.734 211.83 268.045 210.517 268.045 208.896V164.974C268.045 163.354 266.734 162.041 265.115 162.041Z" fill="#9B9191"/>
<path d="M277.837 162.041C277.576 162.041 277.324 162.079 277.083 162.143C278.336 162.476 279.259 163.616 279.259 164.975V208.897C279.259 210.256 278.336 211.396 277.083 211.729C277.324 211.793 277.576 211.83 277.837 211.83C279.455 211.83 280.766 210.517 280.766 208.896V164.974C280.765 163.354 279.454 162.041 277.837 162.041Z" fill="#9B9191"/>
<path d="M290.055 162.041C289.795 162.041 289.543 162.079 289.302 162.143C290.554 162.476 291.478 163.616 291.478 164.975V208.897C291.478 210.256 290.554 211.396 289.302 211.729C289.543 211.793 289.795 211.83 290.055 211.83C291.673 211.83 292.984 210.517 292.984 208.896V164.974C292.984 163.354 291.672 162.041 290.055 162.041Z" fill="#9B9191"/>
<path d="M241.431 208.897V164.975C241.431 163.616 240.507 162.476 239.256 162.143C238.003 162.476 237.08 163.616 237.08 164.975V208.897C237.08 210.256 238.003 211.396 239.256 211.729C240.507 211.396 241.431 210.256 241.431 208.897Z" fill="#233563"/>
<path d="M253.65 208.896V164.974C253.65 163.615 252.726 162.475 251.474 162.142C250.222 162.475 249.298 163.615 249.298 164.974V208.896C249.298 210.255 250.222 211.395 251.474 211.728C252.726 211.395 253.65 210.255 253.65 208.896Z" fill="#233563"/>
<path d="M266.538 208.896V164.974C266.538 163.615 265.615 162.475 264.363 162.142C263.111 162.475 262.187 163.615 262.187 164.974V208.896C262.187 210.255 263.111 211.395 264.363 211.728C265.615 211.395 266.538 210.255 266.538 208.896Z" fill="#233563"/>
<path d="M279.258 208.896V164.974C279.258 163.615 278.335 162.475 277.083 162.142C275.831 162.475 274.907 163.615 274.907 164.974V208.896C274.907 210.255 275.831 211.395 277.083 211.728C278.335 211.395 279.258 210.255 279.258 208.896Z" fill="#233563"/>
<path d="M291.477 208.896V164.974C291.477 163.615 290.553 162.475 289.302 162.142C288.049 162.475 287.126 163.615 287.126 164.974V208.896C287.126 210.255 288.049 211.395 289.302 211.728C290.553 211.395 291.477 210.255 291.477 208.896Z" fill="#233563"/>
</g>
<rect x="315.138" y="15.7314" width="45.0996" height="25" rx="12.5" fill="#969696" fill-opacity="0.3"/>
<path d="M323.249 33.3574H322.428V24.3887L319.721 25.3936V24.6279L323.112 23.3701H323.249V33.3574ZM332.033 23.3291V24.0469H331.937C330.748 24.0469 329.811 24.3978 329.128 25.0996C328.444 25.7969 328.066 26.7676 327.993 28.0117C328.266 27.6335 328.615 27.3418 329.039 27.1367C329.463 26.9271 329.937 26.8223 330.461 26.8223C331.336 26.8223 332.031 27.1253 332.546 27.7314C333.065 28.333 333.325 29.1214 333.325 30.0967C333.325 30.7438 333.204 31.3271 332.963 31.8467C332.721 32.3662 332.375 32.7718 331.924 33.0635C331.472 33.3506 330.957 33.4941 330.379 33.4941C329.426 33.4941 328.651 33.1501 328.054 32.4619C327.457 31.7692 327.159 30.876 327.159 29.7822V28.9619C327.159 27.18 327.565 25.8014 328.376 24.8262C329.187 23.8464 330.338 23.3473 331.828 23.3291H332.033ZM330.331 27.5264C329.811 27.5264 329.326 27.6813 328.875 27.9912C328.428 28.2965 328.13 28.6862 327.979 29.1602V29.8574C327.979 30.7233 328.2 31.4297 328.642 31.9766C329.089 32.5234 329.668 32.7969 330.379 32.7969C331.017 32.7969 331.532 32.5439 331.924 32.0381C332.32 31.5322 332.518 30.8942 332.518 30.124C332.518 29.3402 332.32 28.7113 331.924 28.2373C331.532 27.7633 331.001 27.5264 330.331 27.5264ZM334.986 34.2119H334.241L338.397 23.4043H339.135L334.986 34.2119ZM346.771 33.3574H340.537V32.7285L343.948 28.8594C344.513 28.2077 344.905 27.6699 345.124 27.2461C345.343 26.8223 345.452 26.4098 345.452 26.0088C345.452 25.3799 345.267 24.8831 344.898 24.5186C344.529 24.1494 344.021 23.9648 343.374 23.9648C342.704 23.9648 342.162 24.179 341.747 24.6074C341.337 25.0358 341.132 25.5918 341.132 26.2754H340.318C340.318 25.7148 340.443 25.2044 340.694 24.7441C340.949 24.2839 341.309 23.9238 341.774 23.6641C342.244 23.3997 342.777 23.2676 343.374 23.2676C344.285 23.2676 344.996 23.5068 345.507 23.9854C346.022 24.4639 346.279 25.1156 346.279 25.9404C346.279 26.4053 346.133 26.9134 345.842 27.4648C345.554 28.0163 345.046 28.7044 344.317 29.5293L341.542 32.667H346.771V33.3574ZM350.121 27.9365H350.969C351.438 27.9365 351.848 27.8545 352.199 27.6904C352.55 27.5218 352.816 27.2939 352.999 27.0068C353.186 26.7152 353.279 26.3802 353.279 26.002C353.279 25.3639 353.099 24.8649 352.739 24.5049C352.379 24.1449 351.862 23.9648 351.187 23.9648C350.549 23.9648 350.025 24.154 349.615 24.5322C349.209 24.9059 349.007 25.4004 349.007 26.0156H348.186C348.186 25.5007 348.316 25.0312 348.576 24.6074C348.836 24.179 349.196 23.8486 349.656 23.6162C350.116 23.3838 350.627 23.2676 351.187 23.2676C352.09 23.2676 352.801 23.5137 353.32 24.0059C353.84 24.498 354.099 25.1725 354.099 26.0293C354.099 26.5078 353.947 26.9499 353.641 27.3555C353.341 27.7565 352.926 28.0573 352.397 28.2578C353.017 28.431 353.486 28.7295 353.805 29.1533C354.124 29.5726 354.284 30.0739 354.284 30.6572C354.284 31.5094 354.006 32.1953 353.45 32.7148C352.894 33.2344 352.151 33.4941 351.221 33.4941C350.629 33.4941 350.084 33.3757 349.588 33.1387C349.095 32.9017 348.713 32.5713 348.439 32.1475C348.17 31.7191 348.036 31.2223 348.036 30.6572H348.856C348.856 31.2907 349.077 31.8079 349.519 32.209C349.961 32.6055 350.529 32.8037 351.221 32.8037C351.928 32.8037 352.477 32.6237 352.869 32.2637C353.265 31.8991 353.464 31.3727 353.464 30.6846C353.464 30.0192 353.249 29.5111 352.821 29.1602C352.397 28.8092 351.771 28.6338 350.941 28.6338H350.121V27.9365Z" fill="black"/>
<defs>
<radialGradient id="paint0_radial" cx="0" cy="0" r="1" gradientUnits="userSpaceOnUse" gradientTransform="translate(104.054 211.015) scale(41.8806 41.9455)">
<stop offset="0.3305" stop-color="#FF8415"/>
<stop offset="0.4738" stop-color="#F34823"/>
<stop offset="0.5722" stop-color="#EC232C"/>
<stop offset="0.6638" stop-color="#D91B28"/>
<stop offset="0.849" stop-color="#A7081C"/>
<stop offset="0.9153" stop-color="#940018"/>
</radialGradient>
<clipPath id="clip0">
<rect width="415" height="217" fill="white" transform="translate(8.27539 81.4629)"/>
</clipPath>
</defs>
</svg>
