<svg width="376" height="376" viewBox="0 0 376 376" fill="none" xmlns="http://www.w3.org/2000/svg">
<g clip-path="url(#clip0)">
<path d="M53.5962 290.901V246.334L114.687 81.0456C114.687 81.0456 240.579 27.9938 248.965 29.8102C257.886 31.7434 324.909 73.0084 329.553 100.155C334.91 98.7268 337.413 104.441 339.554 110.514L385.95 553.063L225.905 618.779L53.5962 290.901Z" fill="#C4C4C4"/>
<path d="M203.022 324.827L250.974 125.382L112.207 78.9043L53.8062 246.335L203.022 324.827Z" fill="#DDDDDD"/>
<path d="M250.974 125.381C250.974 125.381 285.243 37.5994 246.225 29.0185C207.207 20.4375 190.193 16.8699 190.193 16.8699C190.193 16.8699 153.987 1.48269 112.205 78.9028L250.974 125.381Z" fill="#EAEAEA"/>
<path d="M200.539 656.923L202.864 324.827L53.5962 246.335V570.132L200.539 656.923Z" fill="#CECECE"/>
<path d="M240.499 45.7529C229.953 40.6417 216.147 47.3495 209.66 60.7323C203.175 74.117 206.465 89.11 217.011 94.2203C227.555 99.3306 241.362 92.6228 247.85 79.2395C254.336 65.8567 251.045 50.8632 240.499 45.7529ZM236.568 51.9901C244.33 55.7504 246.751 66.7862 241.976 76.6361C237.203 86.4873 227.042 91.4237 219.28 87.6629C211.518 83.8998 209.905 73.0267 214.678 63.1764C219.453 53.3251 228.805 48.2279 236.568 51.9901Z" fill="#282828"/>
<path d="M186.497 28.3394C175.95 23.2291 162.144 29.9364 155.657 43.3197C149.172 56.7044 152.462 71.6964 163.007 76.8072C173.553 81.9185 187.359 75.2106 193.847 61.8269C200.333 48.4431 197.042 33.4497 186.497 28.3394ZM182.564 34.5761C190.327 38.3369 192.749 49.3722 187.974 59.2225C183.201 69.0728 173.039 74.0097 165.277 70.2485C157.515 66.4863 155.902 55.6127 160.676 45.7628C165.45 35.9125 174.803 30.8144 182.564 34.5761Z" fill="#282828"/>
<path d="M308.416 186.792C298.925 184.89 292.243 189.771 285.519 198.822C285.519 198.822 279.578 209.563 265.765 207.147L264.206 219.633C264.206 219.633 329.71 229.618 330.452 227.486C333.908 210.249 336.268 196.267 325.441 190.201C323.658 189.199 310.456 187.2 308.416 186.792Z" fill="#D1D1D1"/>
<path d="M295.43 259.114C285.891 257.481 281.408 250.526 278.382 239.665C278.382 239.665 276.694 227.506 262.934 224.801L265.965 212.586C265.965 212.586 330.685 226.795 330.611 229.052C327.645 246.382 322.801 260.568 310.518 262.343C308.493 262.634 297.481 259.467 295.43 259.114Z" fill="#686868"/>
<path d="M322.584 189.392C313.097 187.49 303.227 193.321 296.5 202.371C296.5 202.371 290.559 213.111 276.747 210.696L274.51 228.624C274.51 228.624 284.621 229.076 289.957 243.286C290.205 244.11 291.548 247.847 291.88 248.289C295.314 255.583 300.942 260.783 308.016 262.201C322.449 265.095 337.411 251.112 341.435 231.036C345.459 210.959 337.018 192.284 322.584 189.392Z" fill="#848484"/>
<path d="M200.074 196.349C200.074 196.349 193.963 216.442 193.573 216.604C193.179 216.765 271.622 229.235 273.49 229.588C276.617 230.181 277.113 227.596 277.113 227.596C277.113 227.596 281.225 212.227 280.621 210.432C280.257 209.348 268.715 207.057 268.314 207.084C267.912 207.111 228.665 199.953 228.665 199.953" fill="#3A3A3A"/>
<path d="M200.073 196.349C200.073 196.349 203.505 199.437 209.845 200.338C210.265 200.398 280.622 210.432 280.622 210.432C280.622 210.432 281.224 212.227 280.622 210.432C280.258 209.348 269.208 205.559 269.208 205.559C268.809 205.586 228.666 199.954 228.666 199.954" fill="#2B2B2B"/>
<path d="M335.062 229.456C337.979 214.904 331.863 201.404 321.398 199.307C310.932 197.208 300.085 207.307 297.167 221.863C294.249 236.416 300.366 249.916 310.831 252.013C321.297 254.112 332.144 244.013 335.062 229.456Z" fill="#353535"/>
<path d="M238.217 211.922L200.074 196.348C194.464 195.062 188.796 198.91 187.415 204.94C186.034 210.972 189.459 216.903 195.068 218.188L233.214 233.762C238.822 235.049 244.49 231.2 245.87 225.169C247.252 219.14 243.825 213.207 238.217 211.922Z" fill="#212121"/>
<path d="M237.834 213.532C233.041 212.434 228.199 215.721 227.019 220.874C225.838 226.028 228.766 231.095 233.559 232.193C238.351 233.291 243.194 230.003 244.374 224.85C245.554 219.697 242.626 214.629 237.834 213.532Z" fill="#353535"/>
<path d="M178.604 225.537L175.79 224.598L175.203 226.063L166.593 227.396L162.204 238.785L169.828 248.314L181.841 246.457L186.229 235.069L178.604 225.537Z" fill="#0F0F0F"/>
<path d="M167.014 247.376L159.389 237.845L163.778 226.457L175.79 224.598L183.415 234.128L179.027 245.517L167.014 247.376Z" fill="#303030"/>
<path d="M139.98 371.238C139.98 376.276 156.905 379.829 156.893 375.287C156.881 370.757 140.341 372.858 139.98 380.234C139.62 387.611 156.353 388.511 156.893 384.012C157.433 379.515 140.16 378.075 139.98 388.33" stroke="#FF0000" stroke-width="5" stroke-miterlimit="10" stroke-linecap="round"/>
<path d="M139.98 351.808C139.98 356.846 156.905 360.4 156.893 355.856C156.881 351.326 140.341 353.427 139.98 360.804C139.62 368.181 156.353 369.08 156.893 364.582C157.433 360.084 140.16 361.523 139.98 371.779" stroke="#FF0000" stroke-width="5" stroke-miterlimit="10" stroke-linecap="round"/>
<path d="M139.98 332.377C139.98 337.412 156.905 340.967 156.893 336.424C156.881 331.894 140.341 333.995 139.98 341.371C139.62 348.748 156.353 349.649 156.893 345.15C157.433 340.652 140.16 342.09 139.98 352.346" stroke="#FF0000" stroke-width="5" stroke-miterlimit="10" stroke-linecap="round"/>
<path d="M141.475 311.133C141.475 316.17 156.904 321.537 156.892 316.993C156.88 312.463 140.34 314.566 139.979 321.942C139.62 329.317 156.352 330.218 156.892 325.719C157.433 321.221 140.159 322.662 139.979 332.916" stroke="#FF0000" stroke-width="5" stroke-miterlimit="10" stroke-linecap="round"/>
<path d="M162.597 233.223C162.361 233.918 162.241 234.59 162.241 235.404V235.403L162.167 235.461C162.124 235.892 162.059 236.15 162.069 236.583L161.531 249.379H161.529C161.319 251.74 162.455 254.208 164.445 255.314C166.45 256.43 168.654 255.927 169.777 254.138L176.842 244.979C177.125 244.671 177.407 244.096 177.643 243.731L177.684 243.474H177.682C178.077 242.883 178.313 242.519 178.551 241.826C179.913 237.853 178.49 233.225 175.525 230.356L174.153 234.409C174.878 235.654 175.014 237.142 174.57 238.441C174.124 239.74 173.132 240.587 171.987 240.798L170.437 245.23C169.977 246.406 168.733 246.879 167.61 246.256C166.489 245.632 165.702 244.103 166.056 242.899L167.611 238.451C166.886 237.207 166.757 235.732 167.208 234.412C167.66 233.09 168.639 232.241 169.851 232.067L171.242 228.105C167.59 227.243 163.963 229.233 162.597 233.223ZM166.794 248.652C167.947 249.291 168.535 250.823 168.107 252.069C167.68 253.316 166.399 253.807 165.246 253.167C164.094 252.527 163.505 250.997 163.933 249.75C164.361 248.503 165.642 248.011 166.794 248.652Z" fill="black"/>
<path d="M141.475 311.134C144.033 301.706 159.07 305.68 157.521 309.707C155.974 313.735 139.694 308.557 141.746 301.831C143.799 295.103 159.359 298.926 158.314 303.111C157.266 307.309 144.272 298.756 145.446 294.104C145.446 294.104 145.226 290.817 150.982 288.76C154.905 287.358 156.201 281.397 156.155 280.478C156.108 279.557 159.317 249.835 164.45 250.874C171.414 252.285 160.154 264.093 159.43 271.384C159.323 272.394 158.031 282.313 158.031 282.313" stroke="#FF0000" stroke-width="5" stroke-miterlimit="10" stroke-linecap="round"/>
<path d="M160.94 278.278C160.89 278.724 160.587 279.055 160.259 279.017L154.892 278.421C154.566 278.385 154.343 277.994 154.393 277.548L155.123 270.985C155.173 270.54 155.476 270.207 155.802 270.245L161.17 270.843C161.497 270.878 161.72 271.27 161.671 271.716L160.94 278.278Z" fill="#F4F4F4"/>
<path d="M164.598 255.396C166.925 256.483 168.456 255.421 168.456 255.421C168.456 255.421 168.657 250.656 168.052 252.209C167.589 253.396 165.987 253.533 165.246 253.167C165.062 253.446 164.598 255.396 164.598 255.396Z" fill="black"/>
<path d="M172.278 232.544V232.541L172.448 232.518C172.361 232.481 172.393 232.444 172.301 232.413C172.249 232.397 172.255 232.386 172.204 232.373L168.462 231.074L167.577 234.128C167.236 234.582 166.964 235.1 166.775 235.678C166.55 236.363 166.48 237.057 166.529 237.721L165.749 240.377L169.155 241.544C169.238 241.577 169.318 241.611 169.404 241.639C169.455 241.657 169.508 241.668 169.561 241.682L169.625 241.704L169.627 241.699C171.847 242.284 173.999 240.843 174.806 238.376C175.595 235.956 174.64 233.43 172.278 232.544Z" fill="#C41A1A"/>
<path d="M168.787 231.153C166.507 230.407 163.983 231.867 163.149 234.415C162.316 236.962 163.489 239.632 165.77 240.378C168.05 241.124 170.574 239.663 171.407 237.116C172.241 234.568 171.067 231.898 168.787 231.153Z" fill="#E81C1C"/>
<path d="M238.076 50.6717C229.117 46.2401 217.691 51.3335 212.553 62.0487C207.415 72.7634 210.513 85.0413 219.473 89.4729C228.433 93.9049 239.861 88.8101 244.998 78.0959C250.135 67.3812 247.035 55.1032 238.076 50.6717Z" fill="#F9F9F9"/>
<path d="M232.354 60.6352L231.05 60.1609L232.917 54.8691L234.22 55.3435L232.354 60.6352Z" fill="#232323"/>
<path d="M238.885 69.2427L238.602 68.1186L242.943 66.0312L243.226 67.1562L238.885 69.2427Z" fill="#232323"/>
<path d="M220.447 62.5278L221.369 61.843L219.321 57.4297L218.4 58.115L220.447 62.5278Z" fill="#232323"/>
<path d="M225.77 58.5911L226.529 58.4608L226.459 54.5791L225.698 54.7104L225.77 58.5911Z" fill="#232323"/>
<path d="M237.193 62.7503L236.687 62.1587L239.168 59.207L239.673 59.7991L237.193 62.7503Z" fill="#232323"/>
<path d="M212.811 71.3771L213.386 71.5865L213.747 70.5643L214.656 70.8955L214.821 70.4277L213.912 70.0965L214.117 69.5156L215.09 69.8701L215.257 69.3986L213.708 68.8347L212.811 71.3771ZM215.686 69.5551L215.186 70.9734C214.9 71.7844 215.151 72.2758 215.789 72.5085C216.451 72.7494 216.977 72.5197 217.254 71.7351L217.757 70.3092L217.186 70.1012L216.67 71.5648C216.511 72.0136 216.271 72.1647 215.971 72.0552C215.677 71.9484 215.591 71.6656 215.745 71.2281L216.261 69.7645L215.686 69.5551ZM219.407 72.0378L218.474 71.6984L218.661 71.1703L219.649 71.5303L219.816 71.0588L218.252 70.4894L217.355 73.0318L218.971 73.6203L219.138 73.1488L218.096 72.7697L218.309 72.1662L219.242 72.5056L219.407 72.0378ZM219.363 73.7629L220.945 74.3391L221.115 73.8563L220.108 73.4895L220.835 71.4299L220.26 71.2205L219.363 73.7629Z" fill="#232323"/>
<path d="M222.48 64.501L221.315 64.0767L221.548 63.4166L222.784 63.8665L222.992 63.2771L221.037 62.5654L219.916 65.7434L221.936 66.4791L222.144 65.8897L220.843 65.4158L221.109 64.6614L222.274 65.0857L222.48 64.501Z" fill="#232323"/>
<path d="M236.185 71.6673L236.904 71.929L237.355 70.6512L238.492 71.0652L238.698 70.4806L237.561 70.0665L237.817 69.3404L239.034 69.7835L239.242 69.1941L237.307 68.4892L236.185 71.6673Z" fill="#232323"/>
<path d="M229.392 68.039L233.789 61.9696L232.846 61.626L228.448 67.6954L229.392 68.039Z" fill="#232323"/>
<path d="M230.222 64.0646L230.899 64.3112L231.96 61.3053L231.379 61.0939L230.456 61.1753L230.385 61.7444L231.053 61.6796L231.062 61.683L230.222 64.0646Z" fill="#1E1E1E"/>
<path d="M232.686 66.6005L232.89 66.0224L231.761 65.6113L231.764 65.6021L232.122 65.4716C232.692 65.2408 233.198 64.971 233.376 64.467C233.569 63.9213 233.336 63.3877 232.658 63.141C232.253 62.9933 231.854 63.0046 231.568 63.0934L231.588 63.6697C231.787 63.6065 232.059 63.5592 232.317 63.6532C232.662 63.779 232.741 64.0269 232.655 64.272C232.521 64.6202 232.084 64.842 231.223 65.191L230.712 65.4015L230.562 65.827L232.686 66.6005Z" fill="#232323"/>
<path d="M237.258 77.1376C237.226 77.0734 237.001 76.5254 236.846 76.5512C236.69 76.5769 236.928 77.0466 236.958 77.1634C236.99 77.281 237.072 77.2051 236.856 77.6607C236.64 78.1163 236.503 78.8846 236.51 79.0529C236.519 79.2207 236.512 80.0312 236.007 79.7565C235.504 79.4827 235.909 79.1649 236.154 78.4046C236.339 77.8295 235.949 77.5445 235.96 77.5163L236.393 76.2887L234.438 75.5762L233.27 78.8837L232.619 78.6465L232.385 79.3074L234.992 80.2571L235.278 79.4452L235.861 77.7887C235.843 77.8416 236.01 78.0132 236.022 78.137C236.052 78.4341 235.714 78.6193 235.593 79.2216C235.472 79.8235 235.934 80.1352 236.347 80.0307C236.761 79.9257 236.736 79.0599 236.756 78.8185C236.773 78.5762 236.953 77.9818 237.024 77.8866C237.093 77.7915 237.304 77.8459 237.388 77.7638C237.477 77.6827 237.291 77.2018 237.258 77.1376ZM235.928 77.6124L233.973 76.8999L234.439 75.5766L236.395 76.2896L235.928 77.6124Z" fill="black"/>
<path d="M236.886 45.2839C226.159 41.3783 213.672 48.9641 208.992 62.2264C204.314 75.4892 209.216 89.4078 219.941 93.3135C230.667 97.2196 243.156 89.6338 247.834 76.371C252.513 63.1086 247.612 49.19 236.886 45.2839ZM221.571 88.6963C212.906 85.5416 208.948 74.3 212.726 63.5867C216.506 52.8749 226.592 46.7483 235.256 49.903C243.919 53.0577 247.878 64.2988 244.098 75.0116C240.321 85.7235 230.234 91.8505 221.571 88.6963Z" fill="#1E1E1E"/>
<path d="M236.886 45.2839C226.159 41.3783 213.672 48.9641 208.992 62.2264C204.314 75.4892 209.216 89.4078 219.941 93.3135C230.667 97.2195 243.156 89.6338 247.834 76.371C252.514 63.1086 247.612 49.19 236.886 45.2839ZM220.542 91.6096C210.579 87.981 206.024 75.0505 210.369 62.7294C214.717 50.4074 226.319 43.3611 236.284 46.9892C246.248 50.6183 250.802 63.5478 246.456 75.8689C242.109 88.1905 230.508 95.2377 220.542 91.6096Z" fill="#3D3D3D"/>
<path d="M224.602 71.4547C224.605 71.4102 220.389 57.7883 220.389 57.7883L221.091 57.3828L225.917 70.6859L224.602 71.4547Z" fill="#EA2424"/>
<path d="M222.947 73.4016C222.088 75.8349 222.986 78.3877 224.954 79.1044C226.921 79.8206 229.212 78.4289 230.07 75.9956C230.929 73.5638 230.029 71.0105 228.062 70.2938C226.095 69.577 223.803 70.9692 222.947 73.4016Z" fill="#1E1E1E"/>
<path d="M157.591 45.2772C151.974 56.1159 154.876 68.7656 164.073 73.531C173.269 78.2965 185.277 73.3731 190.894 62.5344C196.51 51.6957 193.608 39.046 184.412 34.2806C175.215 29.5151 163.207 34.4385 157.591 45.2772Z" fill="#F9F9F9"/>
<path d="M162.408 52.3213C161.673 52.0647 160.976 52.3825 160.72 53.1177C160.466 53.8457 160.855 54.5013 161.539 54.74C162.179 54.9632 162.93 54.7718 163.22 53.941C163.459 53.2572 163.165 52.5856 162.408 52.3213ZM162.203 52.8603C162.505 52.9655 162.536 53.3723 162.428 53.6811C162.29 54.0782 162.031 54.3011 161.744 54.201C161.457 54.1009 161.393 53.7405 161.519 53.3802C161.622 53.0861 161.873 52.7448 162.203 52.8603ZM160.81 65.0322C160.558 65.0435 160.158 64.9861 159.819 64.8681C158.819 64.5191 158.449 63.6888 158.796 62.6962C159.181 61.5934 160.059 61.2978 160.949 61.6083C161.346 61.7469 161.631 61.9455 161.826 62.1206L162.364 61.3105C162.201 61.1383 161.801 60.8667 161.221 60.664C159.721 60.1405 158.186 60.6607 157.596 62.3518C157.104 63.7635 157.614 65.1376 159.327 65.7355C159.93 65.9459 160.432 65.9973 160.673 65.9662L160.81 65.0322Z" fill="black"/>
<path d="M168.055 46.7836L168.259 46.1982L168.554 46.301L168.704 45.8705L168.409 45.7677L168.911 44.3288L168.209 44.0836L166.758 45.2549L166.627 45.6288L167.715 46.0084L167.511 46.5938L168.055 46.7836ZM167.314 45.3854L167.317 45.3779L167.832 44.9563C167.969 44.8304 168.084 44.7093 168.218 44.5784L168.234 44.5837C168.167 44.7383 168.107 44.8868 168.055 45.034L167.865 45.5779L167.314 45.3854ZM170.36 44.7877C169.725 44.5663 169.227 45.0235 168.979 45.7335C168.74 46.4298 168.821 47.0976 169.455 47.319C170.082 47.5378 170.57 47.1234 170.835 46.3643C171.069 45.6921 171.017 45.0171 170.36 44.7877ZM170.201 45.2194C170.431 45.2998 170.448 45.6277 170.258 46.1715C170.063 46.7305 169.845 46.9677 169.622 46.89C169.399 46.8122 169.357 46.4966 169.557 45.9352C169.752 45.3636 169.989 45.1456 170.201 45.2194Z" fill="black"/>
<path d="M173.557 43.9602C174.127 44.1593 174.605 43.9914 174.761 43.5458C174.872 43.2285 174.731 42.9508 174.525 42.7771L174.529 42.7658C174.813 42.7293 174.999 42.5611 175.073 42.3496C175.177 42.0513 175.055 41.6359 174.481 41.4355C173.99 41.2642 173.52 41.4094 173.375 41.8248C173.299 42.0401 173.347 42.2811 173.542 42.485L173.539 42.4963C173.23 42.5198 172.988 42.6644 172.886 42.959C172.77 43.2914 172.934 43.7428 173.557 43.9602ZM173.718 43.5716C173.503 43.4965 173.425 43.2829 173.491 43.1067C173.553 42.9292 173.71 42.8314 173.917 42.8445C174.122 42.984 174.236 43.1677 174.161 43.383C174.1 43.5567 173.922 43.6428 173.718 43.5716ZM174.318 41.8153C174.53 41.8891 174.564 42.0705 174.511 42.2216C174.457 42.3764 174.298 42.4564 174.153 42.448C173.977 42.3191 173.863 42.1606 173.921 41.9944C173.975 41.8396 174.122 41.7468 174.318 41.8153ZM176.564 42.1627C175.93 41.9413 175.431 42.3985 175.183 43.1085C174.945 43.8048 175.025 44.4726 175.66 44.694C176.287 44.9128 176.774 44.4984 177.039 43.7393C177.274 43.0671 177.221 42.392 176.564 42.1627ZM176.405 42.5944C176.635 42.6748 176.652 43.0027 176.463 43.5465C176.267 44.1054 176.049 44.3427 175.826 44.265C175.603 44.1872 175.561 43.8716 175.761 43.3102C175.956 42.7386 176.194 42.5206 176.405 42.5944Z" fill="black"/>
<path d="M178.872 45.9998L179.374 46.3058L180.727 44.0855L180.297 43.8233L179.543 43.7385L179.391 44.1799L179.937 44.2365L179.944 44.2407L178.872 45.9998ZM182.293 44.9882C181.719 44.6385 181.136 44.9809 180.744 45.6231C180.365 46.2537 180.303 46.9235 180.877 47.2732C181.444 47.6187 182.008 47.316 182.426 46.6294C182.797 46.0214 182.887 45.3504 182.293 44.9882ZM182.047 45.3768C182.255 45.5038 182.203 45.828 181.903 46.3198C181.595 46.8254 181.332 47.0115 181.13 46.8887C180.929 46.7659 180.953 46.4484 181.267 45.9416C181.578 45.4237 181.855 45.2603 182.047 45.3768ZM184.188 46.1428C183.614 45.7931 183.03 46.1355 182.639 46.7777C182.259 47.4083 182.198 48.0781 182.772 48.4278C183.339 48.7734 183.903 48.4706 184.321 47.784C184.692 47.176 184.782 46.505 184.188 46.1428ZM183.941 46.5315C184.15 46.6585 184.097 46.9826 183.798 47.4745C183.49 47.98 183.226 48.1661 183.025 48.0433C182.823 47.9205 182.848 47.6031 183.162 47.0962C183.472 46.5783 183.75 46.4149 183.941 46.5315Z" fill="black"/>
<path d="M181.051 51.7518L181.606 51.9455L182.463 49.4907L181.987 49.3246L181.232 49.4001L181.176 49.8635L181.722 49.8042L181.73 49.8068L181.051 51.7518ZM184.154 52.8348L184.319 52.3628L183.394 52.0398L183.396 52.0323L183.689 51.9225C184.154 51.7292 184.567 51.5047 184.711 51.0931C184.867 50.6474 184.674 50.2159 184.119 50.0221C183.786 49.9061 183.46 49.9193 183.226 49.9944L183.245 50.4627C183.408 50.4094 183.629 50.3682 183.841 50.442C184.124 50.5409 184.19 50.7417 184.12 50.9418C184.012 51.2262 183.655 51.411 182.952 51.7034L182.534 51.8797L182.413 52.2272L184.154 52.8348ZM186.278 50.7757C185.643 50.5542 185.145 51.0115 184.897 51.7215C184.658 52.4177 184.739 53.0855 185.373 53.307C186 53.5258 186.488 53.1114 186.753 52.3523C186.988 51.68 186.935 51.005 186.278 50.7757ZM186.119 51.2073C186.349 51.2878 186.366 51.6156 186.176 52.1595C185.981 52.7184 185.763 52.9557 185.54 52.8779C185.317 52.8002 185.275 52.4846 185.475 51.9232C185.67 51.3516 185.907 51.1335 186.119 51.2073Z" fill="black"/>
<path d="M176.82 41.0222L175.747 40.8277L176.672 36.9727L177.745 37.1677L176.82 41.0222Z" fill="black"/>
<path d="M182.88 44.4415L182.106 43.6156L184.467 40.5537L185.239 41.3782L182.88 44.4415Z" fill="black"/>
<path d="M186.094 50.0184L185.701 48.8465L188.759 46.9785L189.151 48.1513L186.094 50.0184Z" fill="black"/>
<path d="M171.164 41.093L170.056 41.475L169.572 37.7429L170.679 37.3604L171.164 41.093Z" fill="black"/>
<path d="M167.712 42.5636L166.677 43.2396L165.438 39.8786L166.475 39.2041L167.712 42.5636Z" fill="black"/>
<path d="M180.212 41.3791L179.639 41.1091L180.879 38.1855L181.452 38.4546L180.212 41.3791Z" fill="black"/>
<path d="M173.459 39.9106L172.808 40.0015L172.869 36.9082L173.522 36.8154L173.459 39.9106Z" fill="black"/>
<path d="M185.417 46.8111L185.095 46.1932L187.369 44.292L187.691 44.9084L185.417 46.8111Z" fill="black"/>
<path d="M180.015 61.6494C180.015 61.6494 179.993 61.993 180.27 62.0694C180.547 62.1463 180.773 61.7741 181.076 61.8899C181.379 62.0061 181.299 62.42 181.607 62.5372C181.919 62.6568 182.095 62.3061 182.438 62.4257C182.78 62.5457 182.708 62.9324 183.032 63.035C183.356 63.1377 183.571 62.7711 183.931 62.8865C184.289 63.0022 184.192 63.4415 184.479 63.5399C184.763 63.6383 184.851 63.3885 184.851 63.3885" stroke="#111111" stroke-width="0.5" stroke-miterlimit="10" stroke-linecap="round"/>
<path d="M184.669 58.8472L184.689 58.79L183.72 61.565" stroke="#111111" stroke-width="0.5" stroke-miterlimit="10" stroke-linecap="round"/>
<path d="M184.536 58.7266L183.842 58.4941" stroke="#111111" stroke-width="0.5" stroke-miterlimit="10" stroke-linecap="round"/>
<path d="M184.273 59.4772L183.58 59.2461" stroke="#111111" stroke-width="0.5" stroke-miterlimit="10" stroke-linecap="round"/>
<path d="M184.012 60.2281L183.318 59.9961" stroke="#111111" stroke-width="0.5" stroke-miterlimit="10" stroke-linecap="round"/>
<path d="M182.742 61.6133C182.934 61.6804 183.158 61.5392 183.242 61.2979C183.327 61.0566 183.239 60.8066 183.046 60.7396C182.854 60.6725 182.63 60.8138 182.546 61.0551C182.462 61.2963 182.549 61.5463 182.742 61.6133Z" fill="#161616"/>
<path d="M180.396 60.5601C180.396 60.5601 180.854 60.1692 181.17 60.2897C181.487 60.4106 181.536 60.9585 181.536 60.9585" stroke="#1E1E1E" stroke-width="0.5" stroke-miterlimit="10" stroke-linecap="round"/>
<path d="M183.985 61.8127C183.985 61.8127 184.44 61.4208 184.759 61.5417C185.075 61.6631 185.125 62.2102 185.125 62.2102" stroke="#1E1E1E" stroke-width="0.5" stroke-miterlimit="10" stroke-linecap="round"/>
<path d="M182.892 28.2514C172.258 24.5403 159.861 32.3497 155.205 45.6946C150.548 59.0389 155.394 72.8661 166.027 76.5772C176.662 80.2883 189.058 72.4789 193.716 59.1346C198.372 45.7897 193.527 31.9625 182.892 28.2514ZM167.649 71.93C159.06 68.9329 155.147 57.7644 158.908 46.9869C162.668 36.208 172.681 29.901 181.272 32.8977C189.86 35.8958 193.775 47.0638 190.013 57.8427C186.252 68.6202 176.239 74.9277 167.649 71.93Z" fill="#1E1E1E"/>
<path d="M182.892 28.2514C172.258 24.5403 159.861 32.3497 155.205 45.6946C150.548 59.0389 155.394 72.8661 166.027 76.5772C176.662 80.2883 189.058 72.4789 193.716 59.1346C198.372 45.7897 193.527 31.9625 182.892 28.2514ZM166.626 74.8611C156.748 71.4135 152.246 58.5693 156.572 46.1718C160.898 33.7747 172.415 26.5194 182.294 29.9675C192.174 33.4152 196.676 46.2599 192.348 58.6579C188.022 71.0539 176.506 78.3093 166.626 74.8611Z" fill="#3D3D3D"/>
<path d="M170.676 54.6381C170.679 54.5936 166.515 41.0509 166.515 41.0509L167.212 40.6328L171.985 53.8469L170.676 54.6381Z" fill="#EA2424"/>
<path d="M171.027 62.2757C172.978 62.9565 175.251 61.5243 176.106 59.0767C176.96 56.6292 176.071 54.0932 174.12 53.4124C172.17 52.7316 169.896 54.1638 169.042 56.6114C168.187 59.0589 169.076 61.5949 171.027 62.2757Z" fill="#1E1E1E"/>
<path d="M109.262 167.1L56.9734 194.272L59.4432 199.025L111.732 171.853L109.262 167.1Z" fill="#707070"/>
<path d="M129.055 171.765L111.728 228.095L116.849 229.67L134.176 173.34L129.055 171.765Z" fill="#999999"/>
<path d="M118.731 136.585L72.6096 99.8994L69.2747 104.092L115.396 140.778L118.731 136.585Z" fill="#999999"/>
<path d="M138.846 134.464L133.79 75.748L128.452 76.2077L133.509 134.923L138.846 134.464Z" fill="#999999"/>
<path d="M169.73 120.342C200.618 126.637 191.697 206.961 154.371 199.459C117.045 191.959 132.047 112.663 169.73 120.342Z" fill="#3F3F3F" stroke="black" stroke-miterlimit="10"/>
<path d="M104.007 175.17C85.9697 172.313 92.9344 123.199 112.58 126.236C132.225 129.272 130.261 128.379 143.476 130.522C156.692 132.665 155.8 183.208 136.155 180.707C116.509 178.206 104.007 175.17 104.007 175.17Z" fill="#191919" stroke="black" stroke-miterlimit="10"/>
<path d="M112.892 127.04C132.537 130.076 125.115 177.091 105.469 174.59C85.8245 172.089 93.2472 124.004 112.892 127.04Z" fill="#333333" stroke="black" stroke-miterlimit="10"/>
<path d="M145.183 150.318C145.183 150.318 141.471 150.109 141.7 153.233C141.909 156.058 144.82 155.917 144.82 155.917L145.668 155.981L170.563 155.218L170.602 149.717L145.183 150.318Z" fill="#999999"/>
<path d="M122.224 34.9742C17.9251 27.6514 -2.73881 245.804 83.2904 262.682C181.874 280.541 224.957 56.0248 122.224 34.9742ZM155.443 157.132C153.3 202.316 120.974 230.891 120.974 230.891C120.974 230.891 123.474 223.747 119.01 223.211C115.259 225.175 113.83 222.677 113.83 222.677C105.972 221.962 106.865 246.787 92.2201 244.641C63.4351 240.43 57.752 213.925 58.4659 208.924C59.1798 203.923 66.9493 199.548 68.8238 197.673C70.6988 195.797 71.3241 194.1 68.8238 194.1C66.3235 194.1 66.324 189.635 66.324 189.635C66.6817 185.706 55.2512 191.599 55.2512 191.599C53.6438 191.064 52.0524 193.945 49.5362 187.492C40.2535 163.686 55.7865 111.59 56.6809 109.268C57.5734 106.947 59.3598 101.588 66.6812 106.589C74.0035 111.59 75.0756 108.911 75.0756 108.911C74.3617 105.696 77.9326 104.089 77.9326 104.089C78.4684 100.695 66.4206 93.8304 69.0024 87.8365C85.7907 49.9751 116.33 55.6901 116.33 55.6901C129.01 60.8693 119.903 78.371 132.58 78.9073C139.9 79.2162 138.654 67.4773 138.654 67.4773C162.944 91.9446 158.299 145.522 156.871 147.309C155.443 149.097 153.835 153.739 155.443 157.132Z" fill="#141414" stroke="black" stroke-miterlimit="10"/>
<path d="M211.568 237.68L211.57 237.676L211.502 237.641C211.196 237.474 210.884 237.317 210.56 237.174L207.52 235.66L207.238 236.21C201.239 235.337 195.081 238.888 192.609 245.088C190.503 250.368 191.662 256.097 195.115 259.84L194.765 260.52L198.166 262.26C198.486 262.443 198.947 262.623 199.288 262.778L199.44 262.8V262.797C199.44 262.862 199.657 262.942 199.837 263.014C206.623 265.72 214.382 262.081 217.25 254.892C219.899 248.251 217.319 240.894 211.568 237.68Z" fill="#212121"/>
<path d="M207.123 235.511C200.337 232.804 192.513 236.437 189.646 243.624C186.779 250.811 189.955 258.832 196.74 261.539C203.526 264.245 211.35 260.613 214.217 253.426C217.084 246.238 213.908 238.218 207.123 235.511Z" fill="#2B2B2B"/>
<path d="M204.079 246.547L192.947 242.412L191.24 246.755L202.372 250.89L204.079 246.547Z" fill="#898989"/>
<path d="M193.527 233.941C193.527 233.941 193.085 233.928 191.844 233.442C189.092 232.36 188.485 234.188 188.485 234.188L182.58 249.553C181.549 252.239 182.9 253.274 185.881 254.431C186.532 254.685 187.231 244.515 187.231 244.515C190.417 236.222 193.527 233.941 193.527 233.941Z" fill="#E8E8E8"/>
<path d="M198.627 244.949C198.844 244.307 199.351 244.511 200.146 240.138C200.941 235.769 198.799 235.603 198.799 235.603C198.799 235.603 193.323 234.196 192.094 233.687C190.863 233.178 190.229 235.05 190.229 235.05L184.325 250.418C183.293 253.103 184.602 253.78 184.602 253.78C184.602 253.78 187.725 255.513 190.733 256.595C193.743 257.677 194.994 253.873 194.994 253.873C194.994 253.873 198.326 245.837 198.627 244.949ZM190.234 246.033C189.245 246.388 188.452 245.666 188.465 244.418C188.477 243.173 189.289 241.872 190.274 241.516C191.264 241.162 192.057 241.884 192.043 243.131C192.034 244.376 191.222 245.677 190.234 246.033Z" fill="#C9C9C9"/>
<path d="M191.446 243.433C191.243 244.599 190.336 245.604 189.419 245.678C188.98 245.714 188.714 245.297 188.476 244.97C188.695 245.584 189.1 246.192 189.745 246.139C190.766 246.056 191.775 244.941 191.999 243.646C192.223 242.351 191.578 241.369 190.558 241.451C190.517 241.455 190.475 241.463 190.433 241.468C191.182 241.581 191.626 242.394 191.446 243.433Z" fill="#E8E8E8"/>
<path d="M200.338 239.881C201.133 235.51 198.8 235.431 198.8 235.431C198.8 235.431 193.326 234.025 192.094 233.515C190.864 233.005 190.23 234.88 190.23 234.88L184.327 250.246C183.295 252.931 184.293 253.807 184.293 253.807C184.293 253.807 187.637 255.72 190.646 256.802C193.655 257.884 195.271 253.666 195.271 253.666C195.271 253.666 199.542 244.253 200.338 239.881ZM195.094 252.756C195.094 252.756 193.64 256.552 190.933 255.577C188.226 254.605 185.217 252.883 185.217 252.883C185.217 252.883 184.319 252.093 185.246 249.678L190.559 235.85C190.559 235.85 191.13 234.164 192.238 234.624C193.343 235.082 198.271 236.346 198.271 236.346C198.271 236.346 200.37 236.419 199.655 240.352C198.94 244.286 195.094 252.756 195.094 252.756Z" fill="#707070"/>
<path d="M100.915 290.64C101.949 291.213 102.524 292.193 102.516 292.961L102.309 312.084C102.301 312.853 101.714 313.12 100.68 312.545L66.5021 293.521C65.4676 292.946 64.8676 291.955 64.8751 291.185L65.0832 272.064C65.0898 271.295 65.7024 271.04 66.7365 271.615L100.915 290.64Z" fill="#111111"/>
<path d="M100.438 291.389C100.933 291.665 101.33 292.296 101.324 292.799C101.317 293.301 100.91 293.482 100.414 293.205C99.9184 292.928 99.5213 292.296 99.5279 291.795C99.5335 291.293 99.9414 291.111 100.438 291.389Z" fill="#707070"/>
<path d="M100.589 309.573C101.085 309.851 101.482 310.481 101.474 310.983C101.468 311.485 101.061 311.668 100.564 311.389C100.069 311.112 99.6722 310.482 99.6783 309.98C99.6867 309.48 100.093 309.297 100.589 309.573Z" fill="#707070"/>
<path d="M74.124 278.614C73.6525 278.351 73.2986 278.577 73.2902 279.219C73.2822 279.831 73.6042 280.427 74.0705 280.688C74.521 280.939 74.8952 280.776 74.9043 280.08C74.9122 279.48 74.606 278.883 74.124 278.614ZM74.1107 278.822C74.4906 279.034 74.6684 279.556 74.6632 279.958C74.6572 280.417 74.4479 280.684 74.0864 280.482C73.7275 280.282 73.5282 279.781 73.5339 279.349C73.5397 278.905 73.7335 278.611 74.1107 278.822ZM75.2145 279.256L75.188 281.278L75.4159 281.405L75.4424 279.384L75.2145 279.256ZM75.8148 281.628L76.7971 282.176L76.8 281.957L76.0455 281.536L76.0692 279.733L75.8413 279.606L75.8148 281.628Z" fill="#F9F9F9"/>
<path d="M69.2286 281.778L69.4565 281.905L69.4671 281.095C69.5193 281.139 69.5822 281.177 69.6503 281.215C69.8729 281.34 70.0704 281.374 70.1928 281.295C70.2833 281.239 70.3323 281.122 70.3347 280.939C70.3371 280.759 70.2813 280.58 70.1857 280.43C70.0823 280.263 69.9181 280.111 69.6928 279.985C69.5094 279.883 69.3651 279.82 69.2548 279.78L69.2286 281.778ZM69.4802 280.096C69.5197 280.106 69.5958 280.14 69.6953 280.195C69.9468 280.335 70.1101 280.557 70.1066 280.824C70.103 281.103 69.9333 281.162 69.6583 281.008C69.5823 280.966 69.5195 280.925 69.4699 280.882L69.4802 280.096ZM70.6228 282.556L70.8507 282.683L70.8622 281.807L71.077 281.927C71.2838 282.052 71.3768 282.209 71.4255 282.518C71.472 282.797 71.509 282.993 71.5371 283.066L71.7728 283.198C71.7372 283.099 71.6978 282.881 71.6439 282.567C71.6047 282.334 71.5254 282.144 71.3899 282.014L71.39 282.005C71.5769 282.037 71.7259 281.942 71.7294 281.675C71.7315 281.519 71.6835 281.353 71.5956 281.214C71.4871 281.038 71.3306 280.899 71.087 280.763C70.9298 280.676 70.7646 280.599 70.649 280.561L70.6228 282.556ZM70.8745 280.871C70.9113 280.88 70.99 280.912 71.1001 280.973C71.341 281.111 71.5046 281.317 71.5011 281.578C71.4981 281.809 71.3416 281.875 71.0979 281.739L70.8648 281.609L70.8745 280.871ZM72.9619 282.689L72.2755 282.306L72.2839 281.667L73.0095 282.072L73.0124 281.853L72.0589 281.321L72.0324 283.343L73.0252 283.897L73.0281 283.678L72.2631 283.251L72.2727 282.522L72.959 282.905L72.9619 282.689ZM73.2339 283.914C73.3273 284.038 73.5125 284.199 73.6828 284.294C74.0993 284.527 74.3045 284.369 74.3086 284.057C74.3125 283.76 74.1628 283.511 73.8659 283.212C73.6236 282.968 73.5175 282.815 73.5199 282.626C73.5217 282.488 73.6156 282.374 73.8566 282.509C74.0164 282.598 74.1335 282.724 74.1906 282.792L74.2563 282.614C74.1784 282.519 74.048 282.398 73.8673 282.297C73.5241 282.106 73.2932 282.212 73.289 282.527C73.2853 282.812 73.4612 283.083 73.7478 283.361C73.9848 283.599 74.0777 283.759 74.0752 283.948C74.0725 284.152 73.9345 284.217 73.7013 284.087C73.5442 283.999 73.3956 283.856 73.2944 283.727L73.2339 283.914ZM74.5258 284.635C74.6192 284.76 74.8044 284.92 74.9747 285.015C75.3912 285.248 75.5964 285.09 75.6005 284.778C75.6044 284.482 75.4546 284.232 75.1577 283.933C74.9155 283.689 74.8093 283.536 74.8118 283.347C74.8136 283.209 74.9075 283.095 75.1485 283.23C75.3083 283.319 75.4254 283.445 75.4825 283.513L75.5482 283.335C75.4703 283.24 75.3399 283.119 75.1592 283.018C74.816 282.827 74.585 282.933 74.5809 283.248C74.5772 283.533 74.7531 283.804 75.0397 284.082C75.2767 284.32 75.3696 284.48 75.3671 284.669C75.3644 284.873 75.2264 284.938 74.9932 284.808C74.836 284.72 74.6875 284.577 74.5863 284.448L74.5258 284.635ZM75.9293 283.481L75.9137 284.672C75.9055 285.299 76.1748 285.688 76.5363 285.89C76.9188 286.104 77.2076 286.008 77.2158 285.387L77.2312 284.208L77.0007 284.079L76.985 285.276C76.9792 285.723 76.8089 285.828 76.547 285.681C76.3112 285.55 76.1382 285.26 76.1441 284.807L76.1598 283.61L75.9293 283.481ZM77.6015 286.451L77.8294 286.579L77.8409 285.703L78.0557 285.823C78.2625 285.947 78.3554 286.105 78.4042 286.413C78.4506 286.693 78.4876 286.889 78.5157 286.962L78.7515 287.093C78.7158 286.995 78.6765 286.776 78.6225 286.462C78.5834 286.229 78.504 286.04 78.3685 285.91L78.3687 285.901C78.5556 285.932 78.7046 285.837 78.7081 285.57C78.7101 285.414 78.6622 285.249 78.5743 285.109C78.4658 284.933 78.3093 284.795 78.0656 284.659C77.9085 284.571 77.7432 284.494 77.6276 284.457L77.6015 286.451ZM77.8531 284.767C77.89 284.775 77.9687 284.807 78.0787 284.868C78.3197 285.006 78.4832 285.212 78.4798 285.473C78.4768 285.704 78.3202 285.771 78.0766 285.635L77.8435 285.505L77.8531 284.767ZM79.9405 286.585L79.2542 286.201L79.2626 285.562L79.9882 285.968L79.991 285.749L79.0375 285.216L79.011 287.238L80.0038 287.792L80.0067 287.573L79.2418 287.146L79.2514 286.417L79.9377 286.801L79.9405 286.585Z" fill="#F9F9F9"/>
<path d="M66.9544 272.92C67.4498 273.198 67.8469 273.829 67.8403 274.331C67.8333 274.833 67.4264 275.015 66.9305 274.737C66.435 274.46 66.038 273.829 66.0445 273.328C66.0515 272.826 66.4584 272.644 66.9544 272.92Z" fill="#707070"/>
<path d="M67.134 290.9C67.6295 291.175 68.026 291.805 68.0199 292.308C68.0134 292.809 67.606 292.992 67.1101 292.715C66.6142 292.437 66.2181 291.807 66.2237 291.305C66.2303 290.804 66.6381 290.622 67.134 290.9Z" fill="#707070"/>
<path d="M87.3114 290.694L96.0906 295.596L95.9992 302.519L87.2195 297.618L87.3114 290.694Z" fill="#9B9191"/>
<path d="M87.7938 291.392L95.6313 295.766L95.5516 301.823L87.7146 297.45L87.7938 291.392Z" fill="#304789"/>
<path d="M89.1235 292.596C89.0963 292.582 89.0701 292.571 89.0452 292.563C89.1751 292.671 89.2702 292.847 89.2684 292.988L89.2079 297.615C89.206 297.758 89.1076 297.824 88.9768 297.787C89.0017 297.807 89.0274 297.826 89.0546 297.841C89.2234 297.935 89.3626 297.874 89.3645 297.703L89.4249 293.077C89.4273 292.906 89.2928 292.691 89.1235 292.596Z" fill="#9B9191"/>
<path d="M90.3976 293.308C90.3704 293.293 90.3437 293.281 90.3184 293.274C90.4492 293.383 90.5434 293.557 90.5415 293.698L90.4806 298.327C90.4783 298.469 90.3812 298.536 90.2495 298.496C90.2744 298.518 90.3001 298.537 90.3278 298.552C90.4965 298.646 90.6353 298.584 90.6372 298.414L90.6981 293.788C90.7009 293.617 90.5659 293.401 90.3976 293.308Z" fill="#9B9191"/>
<path d="M91.7419 294.059C91.7142 294.044 91.6884 294.032 91.6631 294.025C91.793 294.133 91.8881 294.308 91.8862 294.45L91.8248 299.076C91.823 299.22 91.725 299.287 91.5938 299.248C91.6186 299.269 91.6448 299.288 91.672 299.303C91.8408 299.397 91.9795 299.336 91.9814 299.165L92.0423 294.539C92.0447 294.366 91.9101 294.151 91.7419 294.059Z" fill="#9B9191"/>
<path d="M93.0681 294.797C93.0409 294.783 93.0146 294.772 92.9888 294.765C93.1196 294.872 93.2138 295.048 93.212 295.19L93.1515 299.816C93.1496 299.96 93.0517 300.027 92.9204 299.988C92.9453 300.009 92.971 300.028 92.9987 300.043C93.167 300.137 93.3057 300.075 93.3076 299.905L93.3685 295.278C93.3718 295.107 93.2368 294.892 93.0681 294.797Z" fill="#9B9191"/>
<path d="M94.3422 295.508C94.315 295.493 94.2893 295.484 94.2639 295.476C94.3943 295.583 94.4889 295.759 94.4866 295.901L94.4257 300.528C94.4247 300.672 94.3258 300.737 94.1946 300.699C94.2194 300.72 94.2461 300.738 94.2729 300.753C94.4411 300.847 94.5799 300.785 94.5822 300.615L94.6436 295.988C94.646 295.819 94.511 295.604 94.3422 295.508Z" fill="#9B9191"/>
<path d="M89.2074 297.615L89.2679 292.988C89.2698 292.846 89.1746 292.671 89.0448 292.563C88.9135 292.526 88.8155 292.592 88.8132 292.735L88.7532 297.36C88.7513 297.505 88.846 297.679 88.9759 297.786C89.1066 297.824 89.2046 297.758 89.2074 297.615Z" fill="#233563"/>
<path d="M90.4811 298.327L90.542 293.698C90.5439 293.556 90.4492 293.383 90.318 293.274C90.1877 293.237 90.0897 293.303 90.0869 293.447L90.0264 298.072C90.0245 298.217 90.1187 298.389 90.2491 298.496C90.3812 298.536 90.4792 298.47 90.4811 298.327Z" fill="#233563"/>
<path d="M91.8248 299.076L91.8862 294.45C91.8881 294.307 91.793 294.133 91.6631 294.025C91.5319 293.987 91.4339 294.054 91.4316 294.196L91.3706 298.822C91.3688 298.965 91.4639 299.14 91.5937 299.248C91.725 299.286 91.823 299.219 91.8248 299.076Z" fill="#233563"/>
<path d="M93.1515 299.817L93.212 295.191C93.2139 295.048 93.1196 294.873 92.9889 294.765C92.8581 294.728 92.7606 294.794 92.7582 294.938L92.6973 299.563C92.6954 299.707 92.7906 299.882 92.9199 299.988C93.0517 300.027 93.1496 299.961 93.1515 299.817Z" fill="#233563"/>
<path d="M94.425 300.528L94.4854 295.901C94.4878 295.758 94.3926 295.584 94.2632 295.476C94.132 295.439 94.035 295.504 94.0326 295.648L93.9717 300.274C93.9698 300.418 94.0645 300.593 94.1948 300.699C94.3256 300.738 94.424 300.671 94.425 300.528Z" fill="#233563"/>
<path d="M65.9852 291.972C66.8978 294.552 69.6578 295.979 72.2406 295.241C72.2753 295.231 72.3391 295.219 72.3391 295.222L72.3386 295.219L75.7783 294.012C80.4264 290.713 75.4586 283.115 71.3542 284.729L68.9195 285.558C66.4089 286.57 65.0603 289.357 65.9852 291.972Z" fill="url(#paint0_radial)"/>
<path d="M203.341 264.792V286.901" stroke="black" stroke-dasharray="1 1"/>
<rect x="185.482" y="287.167" width="81.9578" height="25.103" rx="7.5" fill="white" fill-opacity="0.44" stroke="black" stroke-dasharray="1 1"/>
<path d="M199.931 301.559C199.833 302.457 199.511 303.145 198.964 303.621C198.421 304.098 197.697 304.336 196.791 304.336C196.158 304.336 195.597 304.178 195.109 303.861C194.625 303.545 194.25 303.098 193.984 302.52C193.718 301.938 193.583 301.273 193.58 300.527V299.42C193.58 298.662 193.712 297.99 193.978 297.404C194.244 296.818 194.625 296.367 195.121 296.051C195.621 295.73 196.195 295.57 196.843 295.57C197.757 295.57 198.478 295.818 199.005 296.314C199.537 296.807 199.845 297.488 199.931 298.359H199.205C199.025 296.91 198.238 296.186 196.843 296.186C196.07 296.186 195.453 296.475 194.992 297.053C194.535 297.631 194.306 298.43 194.306 299.449V300.492C194.306 301.477 194.529 302.262 194.974 302.848C195.423 303.434 196.029 303.727 196.791 303.727C197.544 303.727 198.113 303.547 198.496 303.188C198.878 302.824 199.115 302.281 199.205 301.559H199.931ZM201.612 300.955C201.612 300.346 201.73 299.797 201.964 299.309C202.202 298.82 202.536 298.441 202.966 298.172C203.399 297.898 203.89 297.762 204.437 297.762C205.28 297.762 205.964 298.059 206.487 298.652C207.011 299.242 207.272 300.025 207.272 301.002V301.148C207.272 301.762 207.153 302.314 206.915 302.807C206.681 303.295 206.349 303.672 205.919 303.938C205.489 304.203 204.999 304.336 204.448 304.336C203.608 304.336 202.925 304.041 202.397 303.451C201.874 302.857 201.612 302.072 201.612 301.096V300.955ZM202.315 301.148C202.315 301.906 202.511 302.529 202.901 303.018C203.296 303.502 203.812 303.744 204.448 303.744C205.081 303.744 205.593 303.502 205.983 303.018C206.378 302.529 206.575 301.887 206.575 301.09V300.955C206.575 300.471 206.485 300.027 206.306 299.625C206.126 299.223 205.874 298.912 205.55 298.693C205.226 298.471 204.855 298.359 204.437 298.359C203.812 298.359 203.302 298.605 202.907 299.098C202.513 299.586 202.315 300.227 202.315 301.02V301.148ZM209.874 297.879L209.897 298.963C210.135 298.572 210.432 298.275 210.788 298.072C211.143 297.865 211.536 297.762 211.965 297.762C212.645 297.762 213.151 297.953 213.483 298.336C213.815 298.719 213.983 299.293 213.987 300.059V304.219H213.29V300.053C213.286 299.486 213.165 299.064 212.926 298.787C212.692 298.51 212.315 298.371 211.795 298.371C211.362 298.371 210.977 298.508 210.641 298.781C210.309 299.051 210.063 299.416 209.903 299.877V304.219H209.206V297.879H209.874ZM217.373 296.256V297.879H218.686V298.453H217.373V302.678C217.373 303.029 217.436 303.291 217.561 303.463C217.69 303.635 217.902 303.721 218.199 303.721C218.316 303.721 218.506 303.701 218.768 303.662L218.797 304.236C218.613 304.303 218.363 304.336 218.047 304.336C217.566 304.336 217.217 304.197 216.998 303.92C216.779 303.639 216.67 303.227 216.67 302.684V298.453H215.504V297.879H216.67V296.256H217.373ZM224.621 304.219C224.55 304.02 224.505 303.725 224.486 303.334C224.24 303.654 223.925 303.902 223.543 304.078C223.164 304.25 222.761 304.336 222.336 304.336C221.726 304.336 221.232 304.166 220.853 303.826C220.478 303.486 220.291 303.057 220.291 302.537C220.291 301.92 220.546 301.432 221.058 301.072C221.574 300.713 222.291 300.533 223.209 300.533H224.48V299.812C224.48 299.359 224.339 299.004 224.058 298.746C223.781 298.484 223.375 298.354 222.839 298.354C222.351 298.354 221.947 298.479 221.627 298.729C221.306 298.979 221.146 299.279 221.146 299.631L220.443 299.625C220.443 299.121 220.677 298.686 221.146 298.318C221.615 297.947 222.191 297.762 222.875 297.762C223.582 297.762 224.138 297.939 224.545 298.295C224.955 298.646 225.166 299.139 225.177 299.771V302.771C225.177 303.385 225.242 303.844 225.371 304.148V304.219H224.621ZM222.418 303.715C222.886 303.715 223.304 303.602 223.671 303.375C224.043 303.148 224.312 302.846 224.48 302.467V301.072H223.226C222.527 301.08 221.98 301.209 221.586 301.459C221.191 301.705 220.994 302.045 220.994 302.479C220.994 302.834 221.125 303.129 221.386 303.363C221.652 303.598 221.996 303.715 222.418 303.715ZM229.876 303.744C230.364 303.744 230.773 303.607 231.101 303.334C231.433 303.057 231.612 302.699 231.64 302.262H232.314C232.294 302.648 232.173 303.002 231.95 303.322C231.728 303.639 231.431 303.887 231.06 304.066C230.692 304.246 230.298 304.336 229.876 304.336C229.044 304.336 228.384 304.047 227.896 303.469C227.411 302.891 227.169 302.113 227.169 301.137V300.926C227.169 300.301 227.278 299.748 227.497 299.268C227.716 298.787 228.028 298.416 228.435 298.154C228.845 297.893 229.323 297.762 229.87 297.762C230.566 297.762 231.138 297.969 231.587 298.383C232.04 298.797 232.282 299.342 232.314 300.018H231.64C231.608 299.521 231.429 299.121 231.101 298.816C230.776 298.512 230.366 298.359 229.87 298.359C229.237 298.359 228.745 298.588 228.394 299.045C228.046 299.502 227.872 300.143 227.872 300.967V301.172C227.872 301.98 228.046 302.611 228.394 303.064C228.745 303.518 229.239 303.744 229.876 303.744ZM235.29 296.256V297.879H236.602V298.453H235.29V302.678C235.29 303.029 235.352 303.291 235.477 303.463C235.606 303.635 235.819 303.721 236.116 303.721C236.233 303.721 236.422 303.701 236.684 303.662L236.713 304.236C236.53 304.303 236.28 304.336 235.963 304.336C235.483 304.336 235.133 304.197 234.915 303.92C234.696 303.639 234.587 303.227 234.587 302.684V298.453H233.421V297.879H234.587V296.256H235.29ZM244.019 299.982L242.818 301.166V304.219H242.097V295.688H242.818V300.287L247.189 295.688H248.097L244.523 299.484L248.373 304.219H247.494L244.019 299.982ZM252.286 304.336C251.747 304.336 251.259 304.203 250.821 303.938C250.388 303.672 250.05 303.303 249.808 302.83C249.566 302.354 249.445 301.82 249.445 301.23V300.979C249.445 300.369 249.562 299.82 249.796 299.332C250.034 298.844 250.364 298.461 250.786 298.184C251.208 297.902 251.665 297.762 252.157 297.762C252.927 297.762 253.536 298.025 253.986 298.553C254.439 299.076 254.665 299.793 254.665 300.703V301.096H250.142V301.23C250.142 301.949 250.347 302.549 250.757 303.029C251.171 303.506 251.691 303.744 252.316 303.744C252.691 303.744 253.021 303.676 253.306 303.539C253.595 303.402 253.857 303.184 254.091 302.883L254.53 303.217C254.015 303.963 253.267 304.336 252.286 304.336ZM252.157 298.359C251.63 298.359 251.185 298.553 250.821 298.939C250.462 299.326 250.243 299.846 250.165 300.498H253.968V300.422C253.948 299.812 253.775 299.316 253.446 298.934C253.118 298.551 252.689 298.359 252.157 298.359ZM258.438 303.211L260.29 297.879H261.046L258.339 305.297L258.198 305.625C257.85 306.395 257.313 306.779 256.587 306.779C256.419 306.779 256.239 306.752 256.048 306.697L256.042 306.117L256.405 306.152C256.749 306.152 257.026 306.066 257.237 305.895C257.452 305.727 257.633 305.436 257.782 305.021L258.092 304.166L255.702 297.879H256.469L258.438 303.211Z" fill="black"/>
<circle cx="203.342" cy="265.292" r="1.5" fill="black"/>
<rect x="33.9143" y="7.35938" width="54" height="24.8721" rx="7.5" fill="white" fill-opacity="0.44" stroke="black" stroke-dasharray="1 1"/>
<path d="M44.5115 21.3174C44.5115 20.8447 44.3455 20.4717 44.0134 20.1982C43.6814 19.9209 43.074 19.6592 42.1912 19.4131C41.3083 19.1631 40.6638 18.8916 40.2576 18.5986C39.6794 18.1846 39.3904 17.6416 39.3904 16.9697C39.3904 16.3174 39.658 15.7881 40.1931 15.3818C40.7322 14.9717 41.4197 14.7666 42.2556 14.7666C42.822 14.7666 43.3279 14.876 43.7732 15.0947C44.2224 15.3135 44.5701 15.6182 44.8162 16.0088C45.0623 16.3994 45.1853 16.835 45.1853 17.3154H44.4587C44.4587 16.7334 44.2595 16.2666 43.8611 15.915C43.4626 15.5596 42.9275 15.3818 42.2556 15.3818C41.6033 15.3818 41.0837 15.5283 40.697 15.8213C40.3103 16.1104 40.1169 16.4893 40.1169 16.958C40.1169 17.3916 40.2908 17.7451 40.6384 18.0186C40.9861 18.292 41.5427 18.5342 42.3083 18.7451C43.074 18.9521 43.6541 19.1689 44.0486 19.3955C44.4431 19.6182 44.74 19.8857 44.9392 20.1982C45.1384 20.5107 45.238 20.8799 45.238 21.3057C45.238 21.9775 44.9685 22.5166 44.4294 22.9229C43.8943 23.3291 43.1873 23.5322 42.3083 23.5322C41.7068 23.5322 41.1541 23.4248 40.6501 23.21C40.1501 22.9951 39.7693 22.6943 39.5076 22.3076C39.2498 21.9209 39.1208 21.4775 39.1208 20.9775H39.8416C39.8416 21.5791 40.0662 22.0537 40.5154 22.4014C40.9646 22.749 41.5623 22.9229 42.3083 22.9229C42.9724 22.9229 43.5056 22.7764 43.908 22.4834C44.3103 22.1904 44.5115 21.8018 44.5115 21.3174ZM48.2024 15.4521V17.0752H49.5149V17.6494H48.2024V21.874C48.2024 22.2256 48.2649 22.4873 48.3899 22.6592C48.5188 22.8311 48.7317 22.917 49.0286 22.917C49.1458 22.917 49.3352 22.8975 49.5969 22.8584L49.6262 23.4326C49.4426 23.499 49.1926 23.5322 48.8762 23.5322C48.3958 23.5322 48.0462 23.3936 47.8274 23.1162C47.6087 22.835 47.4993 22.4229 47.4993 21.8799V17.6494H46.3333V17.0752H47.4993V15.4521H48.2024ZM53.9031 23.5322C53.3641 23.5322 52.8758 23.3994 52.4383 23.1338C52.0047 22.8682 51.6668 22.499 51.4246 22.0264C51.1824 21.5498 51.0613 21.0166 51.0613 20.4268V20.1748C51.0613 19.5654 51.1785 19.0166 51.4129 18.5283C51.6512 18.04 51.9812 17.6572 52.4031 17.3799C52.825 17.0986 53.282 16.958 53.7742 16.958C54.5437 16.958 55.1531 17.2217 55.6023 17.749C56.0555 18.2725 56.282 18.9893 56.282 19.8994V20.292H51.7586V20.4268C51.7586 21.1455 51.9637 21.7451 52.3738 22.2256C52.7879 22.7021 53.3074 22.9404 53.9324 22.9404C54.3074 22.9404 54.6375 22.8721 54.9226 22.7354C55.2117 22.5986 55.4734 22.3799 55.7078 22.0791L56.1473 22.4131C55.6316 23.1592 54.8836 23.5322 53.9031 23.5322ZM53.7742 17.5557C53.2469 17.5557 52.8016 17.749 52.4383 18.1357C52.0789 18.5225 51.8601 19.042 51.782 19.6943H55.5848V19.6182C55.5652 19.0088 55.3914 18.5127 55.0633 18.1299C54.7351 17.7471 54.3055 17.5557 53.7742 17.5557ZM60.5823 23.5322C60.0433 23.5322 59.555 23.3994 59.1175 23.1338C58.6839 22.8682 58.346 22.499 58.1038 22.0264C57.8616 21.5498 57.7405 21.0166 57.7405 20.4268V20.1748C57.7405 19.5654 57.8577 19.0166 58.0921 18.5283C58.3304 18.04 58.6605 17.6572 59.0823 17.3799C59.5042 17.0986 59.9612 16.958 60.4534 16.958C61.223 16.958 61.8323 17.2217 62.2816 17.749C62.7347 18.2725 62.9612 18.9893 62.9612 19.8994V20.292H58.4378V20.4268C58.4378 21.1455 58.6429 21.7451 59.053 22.2256C59.4671 22.7021 59.9866 22.9404 60.6116 22.9404C60.9866 22.9404 61.3167 22.8721 61.6019 22.7354C61.8909 22.5986 62.1526 22.3799 62.387 22.0791L62.8265 22.4131C62.3109 23.1592 61.5628 23.5322 60.5823 23.5322ZM60.4534 17.5557C59.9261 17.5557 59.4808 17.749 59.1175 18.1357C58.7581 18.5225 58.5394 19.042 58.4612 19.6943H62.264V19.6182C62.2444 19.0088 62.0706 18.5127 61.7425 18.1299C61.4144 17.7471 60.9847 17.5557 60.4534 17.5557ZM67.7362 17.6729C67.5877 17.6455 67.4295 17.6318 67.2616 17.6318C66.8241 17.6318 66.453 17.7549 66.1483 18.001C65.8475 18.2432 65.6326 18.5967 65.5037 19.0615V23.415H64.8065V17.0752H65.492L65.5037 18.083C65.8748 17.333 66.4705 16.958 67.2908 16.958C67.4862 16.958 67.6405 16.9834 67.7537 17.0342L67.7362 17.6729ZM70.1146 23.415H69.4115V17.0752H70.1146V23.415ZM69.2884 15.2412C69.2884 15.1084 69.3314 14.9971 69.4173 14.9072C69.5033 14.8135 69.6205 14.7666 69.7689 14.7666C69.9173 14.7666 70.0345 14.8135 70.1205 14.9072C70.2103 14.9971 70.2552 15.1084 70.2552 15.2412C70.2552 15.374 70.2103 15.4854 70.1205 15.5752C70.0345 15.665 69.9173 15.71 69.7689 15.71C69.6205 15.71 69.5033 15.665 69.4173 15.5752C69.3314 15.4854 69.2884 15.374 69.2884 15.2412ZM73.1727 17.0752L73.1962 18.1592C73.4344 17.7686 73.7313 17.4717 74.0868 17.2686C74.4423 17.0615 74.8348 16.958 75.2645 16.958C75.9442 16.958 76.4501 17.1494 76.7821 17.5322C77.1141 17.915 77.2821 18.4893 77.286 19.2549V23.415H76.5887V19.249C76.5848 18.6826 76.4637 18.2607 76.2255 17.9834C75.9911 17.7061 75.6141 17.5674 75.0946 17.5674C74.661 17.5674 74.2762 17.7041 73.9403 17.9775C73.6083 18.2471 73.3622 18.6123 73.202 19.0732V23.415H72.5048V17.0752H73.1727ZM79.3012 20.1865C79.3012 19.1943 79.5199 18.4092 79.9574 17.8311C80.3988 17.249 80.9965 16.958 81.7504 16.958C82.6137 16.958 83.2699 17.3018 83.7191 17.9893L83.7543 17.0752H84.4105V23.2861C84.4105 24.1025 84.182 24.749 83.725 25.2256C83.268 25.7021 82.6488 25.9404 81.8676 25.9404C81.4262 25.9404 81.0043 25.8408 80.6019 25.6416C80.2035 25.4463 79.8891 25.1846 79.6586 24.8564L80.0512 24.4346C80.5473 25.0439 81.1371 25.3486 81.8207 25.3486C82.4066 25.3486 82.8637 25.1748 83.1918 24.8271C83.5199 24.4834 83.6898 24.0049 83.7016 23.3916V22.5947C83.2523 23.2197 82.598 23.5322 81.7387 23.5322C81.0043 23.5322 80.4144 23.2393 79.9691 22.6533C79.5238 22.0674 79.3012 21.2764 79.3012 20.2803V20.1865ZM80.0101 20.3096C80.0101 21.1182 80.1723 21.7568 80.4965 22.2256C80.8207 22.6904 81.2777 22.9229 81.8676 22.9229C82.7309 22.9229 83.3422 22.5361 83.7016 21.7627V18.8154C83.5375 18.4092 83.3012 18.1006 82.9926 17.8896C82.684 17.6748 82.3129 17.5674 81.8793 17.5674C81.2894 17.5674 80.8305 17.7998 80.5023 18.2646C80.1742 18.7256 80.0101 19.4072 80.0101 20.3096Z" fill="black"/>
<path d="M60.8706 32.041L82.0617 109.435" stroke="black" stroke-dasharray="1 1"/>
<ellipse cx="82.0618" cy="109.435" rx="1.5" ry="1.09871" fill="black"/>
<path d="M307.321 229.519V325.938" stroke="black" stroke-dasharray="1 1"/>
<circle cx="307.321" cy="229.027" r="1.5" fill="black"/>
<rect x="266.227" y="325.944" width="82" height="38.2873" rx="7.5" fill="white" fill-opacity="0.44" stroke="black" stroke-dasharray="1 1"/>
<path d="M280.797 340.756C280.547 341.111 280.154 341.389 279.619 341.588C279.088 341.787 278.492 341.887 277.832 341.887C277.164 341.887 276.57 341.727 276.051 341.406C275.531 341.086 275.129 340.633 274.844 340.047C274.558 339.461 274.414 338.789 274.41 338.031V336.953C274.41 335.77 274.709 334.836 275.306 334.152C275.904 333.465 276.707 333.121 277.715 333.121C278.594 333.121 279.301 333.346 279.836 333.795C280.371 334.24 280.689 334.855 280.791 335.641H280.07C279.965 335.016 279.709 334.543 279.302 334.223C278.9 333.898 278.373 333.736 277.72 333.736C276.924 333.736 276.293 334.02 275.828 334.586C275.363 335.152 275.131 335.951 275.131 336.982V337.99C275.131 338.639 275.24 339.213 275.459 339.713C275.681 340.209 275.998 340.594 276.408 340.867C276.822 341.141 277.297 341.277 277.832 341.277C278.453 341.277 278.986 341.18 279.431 340.984C279.72 340.855 279.935 340.705 280.076 340.533V338.33H277.785V337.721H280.797V340.756ZM285.613 341.887C285.074 341.887 284.585 341.754 284.148 341.488C283.714 341.223 283.376 340.854 283.134 340.381C282.892 339.904 282.771 339.371 282.771 338.781V338.529C282.771 337.92 282.888 337.371 283.122 336.883C283.361 336.395 283.691 336.012 284.113 335.734C284.534 335.453 284.991 335.312 285.484 335.312C286.253 335.312 286.863 335.576 287.312 336.104C287.765 336.627 287.991 337.344 287.991 338.254V338.646H283.468V338.781C283.468 339.5 283.673 340.1 284.083 340.58C284.497 341.057 285.017 341.295 285.642 341.295C286.017 341.295 286.347 341.227 286.632 341.09C286.921 340.953 287.183 340.734 287.417 340.434L287.857 340.768C287.341 341.514 286.593 341.887 285.613 341.887ZM285.484 335.91C284.956 335.91 284.511 336.104 284.148 336.49C283.788 336.877 283.57 337.396 283.491 338.049H287.294V337.973C287.275 337.363 287.101 336.867 286.773 336.484C286.445 336.102 286.015 335.91 285.484 335.91ZM293.839 341.77C293.768 341.57 293.723 341.275 293.704 340.885C293.458 341.205 293.143 341.453 292.761 341.629C292.382 341.801 291.979 341.887 291.554 341.887C290.944 341.887 290.45 341.717 290.071 341.377C289.696 341.037 289.509 340.607 289.509 340.088C289.509 339.471 289.764 338.982 290.276 338.623C290.792 338.264 291.509 338.084 292.427 338.084H293.698V337.363C293.698 336.91 293.557 336.555 293.276 336.297C292.999 336.035 292.593 335.904 292.057 335.904C291.569 335.904 291.165 336.029 290.845 336.279C290.524 336.529 290.364 336.83 290.364 337.182L289.661 337.176C289.661 336.672 289.895 336.236 290.364 335.869C290.833 335.498 291.409 335.312 292.093 335.312C292.8 335.312 293.356 335.49 293.762 335.846C294.173 336.197 294.384 336.689 294.395 337.322V340.322C294.395 340.936 294.46 341.395 294.589 341.699V341.77H293.839ZM291.636 341.266C292.104 341.266 292.522 341.152 292.889 340.926C293.261 340.699 293.53 340.396 293.698 340.018V338.623H292.444C291.745 338.631 291.198 338.76 290.804 339.01C290.409 339.256 290.212 339.596 290.212 340.029C290.212 340.385 290.343 340.68 290.604 340.914C290.87 341.148 291.214 341.266 291.636 341.266ZM299.68 336.027C299.532 336 299.373 335.986 299.205 335.986C298.768 335.986 298.397 336.109 298.092 336.355C297.791 336.598 297.576 336.951 297.448 337.416V341.77H296.75V335.43H297.436L297.448 336.438C297.819 335.688 298.414 335.312 299.235 335.312C299.43 335.312 299.584 335.338 299.698 335.389L299.68 336.027ZM309.663 339.672C309.663 339.199 309.497 338.826 309.165 338.553C308.833 338.275 308.226 338.014 307.343 337.768C306.46 337.518 305.816 337.246 305.41 336.953C304.831 336.539 304.542 335.996 304.542 335.324C304.542 334.672 304.81 334.143 305.345 333.736C305.884 333.326 306.572 333.121 307.408 333.121C307.974 333.121 308.48 333.23 308.925 333.449C309.374 333.668 309.722 333.973 309.968 334.363C310.214 334.754 310.337 335.189 310.337 335.67H309.611C309.611 335.088 309.411 334.621 309.013 334.27C308.615 333.914 308.079 333.736 307.408 333.736C306.755 333.736 306.236 333.883 305.849 334.176C305.462 334.465 305.269 334.844 305.269 335.312C305.269 335.746 305.443 336.1 305.79 336.373C306.138 336.646 306.695 336.889 307.46 337.1C308.226 337.307 308.806 337.523 309.201 337.75C309.595 337.973 309.892 338.24 310.091 338.553C310.29 338.865 310.39 339.234 310.39 339.66C310.39 340.332 310.12 340.871 309.581 341.277C309.046 341.684 308.339 341.887 307.46 341.887C306.859 341.887 306.306 341.779 305.802 341.564C305.302 341.35 304.921 341.049 304.66 340.662C304.402 340.275 304.273 339.832 304.273 339.332H304.994C304.994 339.934 305.218 340.408 305.667 340.756C306.117 341.104 306.714 341.277 307.46 341.277C308.124 341.277 308.658 341.131 309.06 340.838C309.462 340.545 309.663 340.156 309.663 339.672ZM312.962 336.502C313.192 336.123 313.487 335.83 313.847 335.623C314.206 335.416 314.599 335.312 315.024 335.312C315.704 335.312 316.21 335.504 316.542 335.887C316.874 336.27 317.042 336.844 317.046 337.609V341.77H316.349V337.604C316.345 337.037 316.224 336.615 315.985 336.338C315.751 336.061 315.374 335.922 314.854 335.922C314.421 335.922 314.036 336.059 313.7 336.332C313.368 336.602 313.122 336.967 312.962 337.428V341.77H312.265V332.77H312.962V336.502ZM320.116 341.77H319.412V335.43H320.116V341.77ZM319.289 333.596C319.289 333.463 319.332 333.352 319.418 333.262C319.504 333.168 319.621 333.121 319.77 333.121C319.918 333.121 320.036 333.168 320.121 333.262C320.211 333.352 320.256 333.463 320.256 333.596C320.256 333.729 320.211 333.84 320.121 333.93C320.036 334.02 319.918 334.064 319.77 334.064C319.621 334.064 319.504 334.02 319.418 333.93C319.332 333.84 319.289 333.729 319.289 333.596ZM323.01 341.77V336.004H321.961V335.43H323.01V334.662C323.01 334.014 323.174 333.516 323.502 333.168C323.834 332.82 324.295 332.646 324.885 332.646C325.15 332.646 325.398 332.68 325.629 332.746L325.576 333.332C325.381 333.285 325.168 333.262 324.937 333.262C324.551 333.262 324.25 333.383 324.035 333.625C323.82 333.863 323.713 334.203 323.713 334.645V335.43H325.225V336.004H323.713V341.77H323.01ZM328.048 333.807V335.43H329.361V336.004H328.048V340.229C328.048 340.58 328.111 340.842 328.236 341.014C328.365 341.186 328.578 341.271 328.874 341.271C328.992 341.271 329.181 341.252 329.443 341.213L329.472 341.787C329.289 341.854 329.039 341.887 328.722 341.887C328.242 341.887 327.892 341.748 327.673 341.471C327.455 341.189 327.345 340.777 327.345 340.234V336.004H326.179V335.43H327.345V333.807H328.048ZM275.927 351.117C275.588 350.707 275.34 350.342 275.183 350.021C275.031 349.697 274.955 349.377 274.955 349.061C274.955 348.463 275.133 347.99 275.488 347.643C275.844 347.295 276.32 347.121 276.918 347.121C277.461 347.121 277.9 347.279 278.236 347.596C278.572 347.908 278.74 348.307 278.74 348.791C278.74 349.354 278.416 349.906 277.767 350.449L276.83 351.176L279.174 353.906C279.529 353.332 279.707 352.682 279.707 351.955H280.357C280.357 352.924 280.107 353.742 279.607 354.41L280.773 355.77H279.929L279.191 354.914C278.883 355.219 278.525 355.457 278.119 355.629C277.717 355.801 277.291 355.887 276.842 355.887C276.029 355.887 275.385 355.68 274.908 355.266C274.431 354.848 274.193 354.291 274.193 353.596C274.193 353.182 274.314 352.791 274.556 352.424C274.802 352.053 275.232 351.637 275.845 351.176L275.927 351.117ZM276.842 355.295C277.197 355.295 277.541 355.221 277.873 355.072C278.209 354.92 278.51 354.705 278.775 354.428L276.39 351.662L276.308 351.574L276.039 351.779C275.273 352.404 274.89 353.01 274.89 353.596C274.89 354.107 275.066 354.52 275.418 354.832C275.769 355.141 276.244 355.295 276.842 355.295ZM275.658 349.037C275.658 349.514 275.922 350.076 276.449 350.725L277.217 350.139C277.467 349.959 277.672 349.762 277.832 349.547C277.992 349.332 278.072 349.08 278.072 348.791C278.072 348.486 277.967 348.232 277.756 348.029C277.545 347.822 277.263 347.719 276.912 347.719C276.529 347.719 276.224 347.842 275.998 348.088C275.771 348.334 275.658 348.65 275.658 349.037ZM291.454 347.854H288.53V355.77H287.809V347.854H284.891V347.238H291.454V347.854ZM293.85 350.502C294.08 350.123 294.375 349.83 294.735 349.623C295.094 349.416 295.487 349.312 295.912 349.312C296.592 349.312 297.098 349.504 297.43 349.887C297.762 350.27 297.93 350.844 297.934 351.609V355.77H297.237V351.604C297.233 351.037 297.112 350.615 296.873 350.338C296.639 350.061 296.262 349.922 295.742 349.922C295.309 349.922 294.924 350.059 294.588 350.332C294.256 350.602 294.01 350.967 293.85 351.428V355.77H293.153V346.77H293.85V350.502ZM303.148 350.027C303 350 302.842 349.986 302.674 349.986C302.236 349.986 301.865 350.109 301.56 350.355C301.26 350.598 301.045 350.951 300.916 351.416V355.77H300.219V349.43H300.904L300.916 350.438C301.287 349.688 301.883 349.312 302.703 349.312C302.898 349.312 303.053 349.338 303.166 349.389L303.148 350.027ZM304.238 352.506C304.238 351.896 304.355 351.348 304.589 350.859C304.827 350.371 305.161 349.992 305.591 349.723C306.025 349.449 306.515 349.312 307.062 349.312C307.906 349.312 308.589 349.609 309.113 350.203C309.636 350.793 309.898 351.576 309.898 352.553V352.699C309.898 353.312 309.779 353.865 309.54 354.357C309.306 354.846 308.974 355.223 308.544 355.488C308.115 355.754 307.624 355.887 307.074 355.887C306.234 355.887 305.55 355.592 305.023 355.002C304.499 354.408 304.238 353.623 304.238 352.646V352.506ZM304.941 352.699C304.941 353.457 305.136 354.08 305.527 354.568C305.921 355.053 306.437 355.295 307.074 355.295C307.706 355.295 308.218 355.053 308.609 354.568C309.003 354.08 309.201 353.438 309.201 352.641V352.506C309.201 352.021 309.111 351.578 308.931 351.176C308.751 350.773 308.499 350.463 308.175 350.244C307.851 350.021 307.48 349.91 307.062 349.91C306.437 349.91 305.927 350.156 305.533 350.648C305.138 351.137 304.941 351.777 304.941 352.57V352.699ZM312.921 347.807V349.43H314.233V350.004H312.921V354.229C312.921 354.58 312.983 354.842 313.108 355.014C313.237 355.186 313.45 355.271 313.747 355.271C313.864 355.271 314.054 355.252 314.315 355.213L314.345 355.787C314.161 355.854 313.911 355.887 313.595 355.887C313.114 355.887 312.765 355.748 312.546 355.471C312.327 355.189 312.218 354.777 312.218 354.234V350.004H311.052V349.43H312.218V347.807H312.921ZM317.256 347.807V349.43H318.569V350.004H317.256V354.229C317.256 354.58 317.319 354.842 317.444 355.014C317.573 355.186 317.786 355.271 318.082 355.271C318.2 355.271 318.389 355.252 318.651 355.213L318.68 355.787C318.496 355.854 318.246 355.887 317.93 355.887C317.45 355.887 317.1 355.748 316.881 355.471C316.662 355.189 316.553 354.777 316.553 354.234V350.004H315.387V349.43H316.553V347.807H317.256ZM321.287 355.77H320.584V346.77H321.287V355.77ZM326.132 355.887C325.593 355.887 325.105 355.754 324.667 355.488C324.234 355.223 323.896 354.854 323.654 354.381C323.412 353.904 323.29 353.371 323.29 352.781V352.529C323.29 351.92 323.408 351.371 323.642 350.883C323.88 350.395 324.21 350.012 324.632 349.734C325.054 349.453 325.511 349.312 326.003 349.312C326.773 349.312 327.382 349.576 327.831 350.104C328.285 350.627 328.511 351.344 328.511 352.254V352.646H323.988V352.781C323.988 353.5 324.193 354.1 324.603 354.58C325.017 355.057 325.537 355.295 326.162 355.295C326.537 355.295 326.867 355.227 327.152 355.09C327.441 354.953 327.703 354.734 327.937 354.434L328.376 354.768C327.861 355.514 327.113 355.887 326.132 355.887ZM326.003 349.91C325.476 349.91 325.031 350.104 324.667 350.49C324.308 350.877 324.089 351.396 324.011 352.049H327.814V351.973C327.794 351.363 327.621 350.867 327.292 350.484C326.964 350.102 326.535 349.91 326.003 349.91Z" fill="black"/>
<path d="M225.288 92.1539V115.078L171.704 72.9854" stroke="black" stroke-dasharray="1 1"/>
<rect x="190.863" y="115.26" width="82" height="38.2873" rx="7.5" fill="white" fill-opacity="0.44" stroke="black" stroke-dasharray="1 1"/>
<path d="M203.973 127.101H199.995V131.085H199.274V122.554H204.559V123.169H199.995V126.485H203.973V127.101ZM210.289 130.282C209.867 130.896 209.194 131.202 208.268 131.202C207.592 131.202 207.078 131.007 206.727 130.616C206.375 130.222 206.196 129.64 206.188 128.87V124.745H206.885V128.782C206.885 129.989 207.373 130.593 208.35 130.593C209.365 130.593 210.008 130.173 210.278 129.333V124.745H210.981V131.085H210.301L210.289 130.282ZM215.744 131.202C215.205 131.202 214.717 131.069 214.279 130.804C213.845 130.538 213.508 130.169 213.265 129.696C213.023 129.22 212.902 128.687 212.902 128.097V127.845C212.902 127.235 213.019 126.687 213.254 126.198C213.492 125.71 213.822 125.327 214.244 125.05C214.666 124.769 215.123 124.628 215.615 124.628C216.385 124.628 216.994 124.892 217.443 125.419C217.896 125.942 218.123 126.659 218.123 127.569V127.962H213.599V128.097C213.599 128.815 213.804 129.415 214.215 129.896C214.629 130.372 215.148 130.61 215.773 130.61C216.148 130.61 216.478 130.542 216.763 130.405C217.053 130.269 217.314 130.05 217.549 129.749L217.988 130.083C217.472 130.829 216.724 131.202 215.744 131.202ZM215.615 125.226C215.088 125.226 214.642 125.419 214.279 125.806C213.92 126.192 213.701 126.712 213.623 127.364H217.426V127.288C217.406 126.679 217.232 126.183 216.904 125.8C216.576 125.417 216.146 125.226 215.615 125.226ZM220.753 131.085H220.05V122.085H220.753V131.085ZM227.994 126.433C227.655 126.022 227.407 125.657 227.25 125.337C227.098 125.013 227.022 124.692 227.022 124.376C227.022 123.778 227.2 123.306 227.555 122.958C227.91 122.61 228.387 122.437 228.985 122.437C229.528 122.437 229.967 122.595 230.303 122.911C230.639 123.224 230.807 123.622 230.807 124.106C230.807 124.669 230.483 125.222 229.834 125.765L228.897 126.491L231.241 129.222C231.596 128.647 231.774 127.997 231.774 127.271H232.424C232.424 128.239 232.174 129.058 231.674 129.726L232.84 131.085H231.996L231.258 130.229C230.95 130.534 230.592 130.772 230.186 130.944C229.784 131.116 229.358 131.202 228.909 131.202C228.096 131.202 227.452 130.995 226.975 130.581C226.498 130.163 226.26 129.606 226.26 128.911C226.26 128.497 226.381 128.106 226.623 127.739C226.869 127.368 227.299 126.952 227.912 126.491L227.994 126.433ZM228.909 130.61C229.264 130.61 229.608 130.536 229.94 130.388C230.276 130.235 230.577 130.021 230.842 129.743L228.457 126.978L228.375 126.89L228.106 127.095C227.34 127.72 226.957 128.325 226.957 128.911C226.957 129.423 227.133 129.835 227.485 130.147C227.836 130.456 228.311 130.61 228.909 130.61ZM227.725 124.353C227.725 124.829 227.989 125.392 228.516 126.04L229.284 125.454C229.534 125.274 229.739 125.077 229.899 124.862C230.059 124.647 230.139 124.396 230.139 124.106C230.139 123.802 230.034 123.548 229.823 123.345C229.612 123.138 229.33 123.034 228.979 123.034C228.596 123.034 228.291 123.157 228.065 123.403C227.838 123.649 227.725 123.966 227.725 124.353ZM240.357 123.169H237.433V131.085H236.713V123.169H233.795V122.554H240.357V123.169ZM243.925 131.202C243.386 131.202 242.898 131.069 242.46 130.804C242.027 130.538 241.689 130.169 241.447 129.696C241.204 129.22 241.083 128.687 241.083 128.097V127.845C241.083 127.235 241.201 126.687 241.435 126.198C241.673 125.71 242.003 125.327 242.425 125.05C242.847 124.769 243.304 124.628 243.796 124.628C244.566 124.628 245.175 124.892 245.624 125.419C246.078 125.942 246.304 126.659 246.304 127.569V127.962H241.781V128.097C241.781 128.815 241.986 129.415 242.396 129.896C242.81 130.372 243.329 130.61 243.954 130.61C244.329 130.61 244.66 130.542 244.945 130.405C245.234 130.269 245.495 130.05 245.73 129.749L246.169 130.083C245.654 130.829 244.906 131.202 243.925 131.202ZM243.796 125.226C243.269 125.226 242.824 125.419 242.46 125.806C242.101 126.192 241.882 126.712 241.804 127.364H245.607V127.288C245.587 126.679 245.413 126.183 245.085 125.8C244.757 125.417 244.328 125.226 243.796 125.226ZM248.788 124.745L248.811 125.776C249.046 125.394 249.339 125.106 249.69 124.915C250.042 124.724 250.433 124.628 250.862 124.628C251.862 124.628 252.497 125.038 252.767 125.858C252.993 125.464 253.296 125.161 253.675 124.95C254.054 124.735 254.472 124.628 254.929 124.628C256.288 124.628 256.981 125.37 257.009 126.854V131.085H256.306V126.907C256.302 126.341 256.179 125.921 255.936 125.647C255.698 125.374 255.308 125.237 254.765 125.237C254.261 125.245 253.835 125.409 253.487 125.729C253.14 126.046 252.946 126.433 252.907 126.89V131.085H252.204V126.854C252.2 126.312 252.071 125.907 251.817 125.642C251.567 125.372 251.181 125.237 250.657 125.237C250.216 125.237 249.837 125.364 249.52 125.618C249.204 125.868 248.97 126.241 248.817 126.737V131.085H248.114V124.745H248.788ZM264.368 127.979C264.368 128.968 264.149 129.753 263.711 130.335C263.274 130.913 262.688 131.202 261.954 131.202C261.086 131.202 260.422 130.897 259.961 130.288V133.522H259.264V124.745H259.914L259.95 125.642C260.407 124.966 261.069 124.628 261.936 124.628C262.694 124.628 263.288 124.915 263.717 125.489C264.151 126.063 264.368 126.86 264.368 127.88V127.979ZM263.664 127.856C263.664 127.048 263.498 126.409 263.166 125.94C262.834 125.472 262.372 125.237 261.778 125.237C261.348 125.237 260.979 125.341 260.67 125.548C260.362 125.755 260.125 126.056 259.961 126.45V129.491C260.129 129.854 260.37 130.132 260.682 130.323C260.995 130.515 261.364 130.61 261.789 130.61C262.379 130.61 262.838 130.376 263.166 129.907C263.498 129.435 263.664 128.751 263.664 127.856ZM266.342 130.663C266.342 130.526 266.385 130.411 266.471 130.317C266.561 130.22 266.684 130.171 266.84 130.171C266.996 130.171 267.119 130.22 267.209 130.317C267.299 130.411 267.344 130.526 267.344 130.663C267.344 130.8 267.299 130.913 267.209 131.003C267.119 131.089 266.996 131.132 266.84 131.132C266.684 131.132 266.561 131.089 266.471 131.003C266.385 130.913 266.342 130.8 266.342 130.663ZM205.432 144.071C205.182 144.427 204.79 144.704 204.255 144.903C203.723 145.103 203.128 145.202 202.468 145.202C201.8 145.202 201.206 145.042 200.686 144.722C200.167 144.401 199.764 143.948 199.479 143.362C199.194 142.776 199.05 142.104 199.046 141.347V140.269C199.046 139.085 199.344 138.151 199.942 137.468C200.54 136.78 201.343 136.437 202.35 136.437C203.229 136.437 203.936 136.661 204.471 137.11C205.007 137.556 205.325 138.171 205.427 138.956H204.706C204.6 138.331 204.344 137.858 203.938 137.538C203.536 137.214 203.009 137.052 202.356 137.052C201.559 137.052 200.928 137.335 200.464 137.901C199.999 138.468 199.766 139.267 199.766 140.298V141.306C199.766 141.954 199.876 142.528 200.094 143.028C200.317 143.524 200.634 143.909 201.044 144.183C201.458 144.456 201.932 144.593 202.468 144.593C203.089 144.593 203.622 144.495 204.067 144.3C204.356 144.171 204.571 144.021 204.712 143.849V141.646H202.421V141.036H205.432V144.071ZM211.795 145.085C211.725 144.886 211.68 144.591 211.66 144.2C211.414 144.521 211.1 144.769 210.717 144.944C210.338 145.116 209.936 145.202 209.51 145.202C208.901 145.202 208.407 145.032 208.028 144.692C207.653 144.353 207.465 143.923 207.465 143.403C207.465 142.786 207.721 142.298 208.233 141.938C208.748 141.579 209.465 141.399 210.383 141.399H211.655V140.679C211.655 140.226 211.514 139.87 211.233 139.612C210.955 139.351 210.549 139.22 210.014 139.22C209.526 139.22 209.121 139.345 208.801 139.595C208.481 139.845 208.321 140.146 208.321 140.497L207.617 140.491C207.617 139.987 207.852 139.552 208.321 139.185C208.789 138.813 209.365 138.628 210.049 138.628C210.756 138.628 211.313 138.806 211.719 139.161C212.129 139.513 212.34 140.005 212.352 140.638V143.638C212.352 144.251 212.416 144.71 212.545 145.015V145.085H211.795ZM209.592 144.581C210.061 144.581 210.479 144.468 210.846 144.241C211.217 144.015 211.487 143.712 211.655 143.333V141.938H210.401C209.701 141.946 209.155 142.075 208.76 142.325C208.365 142.571 208.168 142.911 208.168 143.345C208.168 143.7 208.299 143.995 208.561 144.229C208.826 144.464 209.17 144.581 209.592 144.581ZM218.785 144.282C218.363 144.896 217.689 145.202 216.763 145.202C216.088 145.202 215.574 145.007 215.222 144.616C214.871 144.222 214.691 143.64 214.683 142.87V138.745H215.381V142.782C215.381 143.989 215.869 144.593 216.845 144.593C217.861 144.593 218.504 144.173 218.773 143.333V138.745H219.476V145.085H218.797L218.785 144.282ZM221.503 141.856C221.503 140.864 221.722 140.079 222.159 139.501C222.601 138.919 223.199 138.628 223.952 138.628C224.816 138.628 225.472 138.972 225.921 139.659L225.956 138.745H226.613V144.956C226.613 145.772 226.384 146.419 225.927 146.896C225.47 147.372 224.851 147.61 224.07 147.61C223.628 147.61 223.206 147.511 222.804 147.312C222.406 147.116 222.091 146.854 221.861 146.526L222.253 146.104C222.749 146.714 223.339 147.019 224.023 147.019C224.609 147.019 225.066 146.845 225.394 146.497C225.722 146.153 225.892 145.675 225.904 145.062V144.265C225.454 144.89 224.8 145.202 223.941 145.202C223.206 145.202 222.617 144.909 222.171 144.323C221.726 143.737 221.503 142.946 221.503 141.95V141.856ZM222.212 141.979C222.212 142.788 222.374 143.427 222.699 143.896C223.023 144.36 223.48 144.593 224.07 144.593C224.933 144.593 225.544 144.206 225.904 143.433V140.485C225.74 140.079 225.503 139.771 225.195 139.56C224.886 139.345 224.515 139.237 224.081 139.237C223.492 139.237 223.033 139.47 222.704 139.935C222.376 140.396 222.212 141.077 222.212 141.979ZM231.376 145.202C230.837 145.202 230.348 145.069 229.911 144.804C229.477 144.538 229.139 144.169 228.897 143.696C228.655 143.22 228.534 142.687 228.534 142.097V141.845C228.534 141.235 228.651 140.687 228.886 140.198C229.124 139.71 229.454 139.327 229.876 139.05C230.298 138.769 230.755 138.628 231.247 138.628C232.016 138.628 232.626 138.892 233.075 139.419C233.528 139.942 233.755 140.659 233.755 141.569V141.962H229.231V142.097C229.231 142.815 229.436 143.415 229.847 143.896C230.261 144.372 230.78 144.61 231.405 144.61C231.78 144.61 232.11 144.542 232.395 144.405C232.684 144.269 232.946 144.05 233.18 143.749L233.62 144.083C233.104 144.829 232.356 145.202 231.376 145.202ZM231.247 139.226C230.72 139.226 230.274 139.419 229.911 139.806C229.552 140.192 229.333 140.712 229.255 141.364H233.057V141.288C233.038 140.679 232.864 140.183 232.536 139.8C232.208 139.417 231.778 139.226 231.247 139.226Z" fill="black"/>
<path d="M117.376 355.363H140.11" stroke="black" stroke-dasharray="1 1"/>
<circle cx="139.606" cy="355.363" r="1.5" fill="black"/>
<rect x="58.301" y="339.359" width="59" height="24.8721" rx="7.5" fill="white" fill-opacity="0.44" stroke="black" stroke-dasharray="1 1"/>
<path d="M66.4639 351.179L65.2627 352.362V355.415H64.542V346.884H65.2627V351.483L69.6338 346.884H70.542L66.9678 350.681L70.8174 355.415H69.9385L66.4639 351.179ZM73.2134 355.415H72.5103V349.075H73.2134V355.415ZM72.3872 347.241C72.3872 347.108 72.4302 346.997 72.5161 346.907C72.6021 346.813 72.7193 346.767 72.8677 346.767C73.0161 346.767 73.1333 346.813 73.2193 346.907C73.3091 346.997 73.354 347.108 73.354 347.241C73.354 347.374 73.3091 347.485 73.2193 347.575C73.1333 347.665 73.0161 347.71 72.8677 347.71C72.7193 347.71 72.6021 347.665 72.5161 347.575C72.4302 347.485 72.3872 347.374 72.3872 347.241ZM76.3887 355.415H75.6856V346.415H76.3887V355.415ZM79.564 355.415H78.8609V346.415H79.564V355.415ZM91.5572 352.755C91.4596 353.653 91.1373 354.341 90.5904 354.817C90.0475 355.294 89.3229 355.532 88.4166 355.532C87.7838 355.532 87.2232 355.374 86.735 355.058C86.2506 354.741 85.8756 354.294 85.61 353.716C85.3443 353.134 85.2096 352.47 85.2057 351.724V350.616C85.2057 349.858 85.3385 349.187 85.6041 348.601C85.8697 348.015 86.2506 347.563 86.7467 347.247C87.2467 346.927 87.8209 346.767 88.4693 346.767C89.3834 346.767 90.1041 347.015 90.6314 347.511C91.1627 348.003 91.4713 348.685 91.5572 349.556H90.8307C90.651 348.106 89.8639 347.382 88.4693 347.382C87.6959 347.382 87.0787 347.671 86.6178 348.249C86.1607 348.827 85.9322 349.626 85.9322 350.646V351.688C85.9322 352.673 86.1549 353.458 86.6002 354.044C87.0494 354.63 87.6549 354.923 88.4166 354.923C89.1705 354.923 89.7389 354.743 90.1217 354.384C90.5045 354.021 90.7408 353.478 90.8307 352.755H91.5572ZM93.2384 352.151C93.2384 351.542 93.3556 350.993 93.59 350.505C93.8282 350.017 94.1622 349.638 94.5919 349.368C95.0255 349.095 95.5157 348.958 96.0626 348.958C96.9064 348.958 97.59 349.255 98.1134 349.849C98.6368 350.438 98.8986 351.222 98.8986 352.198V352.345C98.8986 352.958 98.7794 353.511 98.5411 354.003C98.3068 354.491 97.9747 354.868 97.545 355.134C97.1154 355.399 96.6251 355.532 96.0743 355.532C95.2345 355.532 94.5509 355.237 94.0236 354.647C93.5001 354.054 93.2384 353.269 93.2384 352.292V352.151ZM93.9415 352.345C93.9415 353.103 94.1368 353.726 94.5275 354.214C94.922 354.698 95.4376 354.94 96.0743 354.94C96.7071 354.94 97.2189 354.698 97.6095 354.214C98.004 353.726 98.2013 353.083 98.2013 352.286V352.151C98.2013 351.667 98.1114 351.224 97.9318 350.821C97.7521 350.419 97.5001 350.108 97.1759 349.89C96.8517 349.667 96.4806 349.556 96.0626 349.556C95.4376 349.556 94.9279 349.802 94.5333 350.294C94.1388 350.782 93.9415 351.423 93.9415 352.216V352.345ZM103.761 349.673C103.613 349.646 103.455 349.632 103.287 349.632C102.849 349.632 102.478 349.755 102.173 350.001C101.873 350.243 101.658 350.597 101.529 351.062V355.415H100.832V349.075H101.517L101.529 350.083C101.9 349.333 102.496 348.958 103.316 348.958C103.511 348.958 103.666 348.983 103.779 349.034L103.761 349.673ZM104.956 352.187C104.956 351.202 105.175 350.419 105.612 349.837C106.054 349.251 106.652 348.958 107.405 348.958C108.261 348.958 108.913 349.296 109.362 349.972V346.415H110.06V355.415H109.403L109.374 354.571C108.925 355.212 108.265 355.532 107.394 355.532C106.663 355.532 106.073 355.239 105.624 354.653C105.179 354.063 104.956 353.269 104.956 352.269V352.187ZM105.665 352.31C105.665 353.118 105.827 353.757 106.152 354.226C106.476 354.69 106.933 354.923 107.523 354.923C108.386 354.923 108.999 354.542 109.362 353.78V350.804C108.999 349.979 108.39 349.567 107.534 349.567C106.944 349.567 106.486 349.8 106.157 350.265C105.829 350.726 105.665 351.407 105.665 352.31Z" fill="black"/>
<rect x="315.138" y="15.7314" width="44.0746" height="25" rx="12.5" fill="#969696" fill-opacity="0.3"/>
<path d="M323.867 28.2578L324.352 23.4043H329.329V24.1631H325.056L324.708 27.5264C325.241 27.1618 325.865 26.9795 326.581 26.9795C327.479 26.9795 328.194 27.2712 328.727 27.8545C329.26 28.4378 329.527 29.2148 329.527 30.1855C329.527 31.2337 329.267 32.0472 328.748 32.626C328.228 33.2048 327.497 33.4941 326.553 33.4941C325.688 33.4941 324.986 33.2526 324.448 32.7695C323.91 32.2865 323.603 31.6097 323.525 30.7393H324.311C324.389 31.4183 324.619 31.9333 325.002 32.2842C325.385 32.6305 325.902 32.8037 326.553 32.8037C327.264 32.8037 327.8 32.5781 328.16 32.127C328.524 31.6758 328.707 31.0332 328.707 30.1992C328.707 29.4701 328.504 28.8753 328.098 28.415C327.693 27.9548 327.139 27.7246 326.437 27.7246C326.05 27.7246 325.713 27.7747 325.426 27.875C325.138 27.9707 324.835 28.1598 324.516 28.4424L323.867 28.2578ZM331.093 34.2119H330.347L334.504 23.4043H335.242L331.093 34.2119ZM342.878 33.3574H336.643V32.7285L340.054 28.8594C340.62 28.2077 341.011 27.6699 341.23 27.2461C341.449 26.8223 341.558 26.4098 341.558 26.0088C341.558 25.3799 341.374 24.8831 341.005 24.5186C340.635 24.1494 340.127 23.9648 339.48 23.9648C338.81 23.9648 338.268 24.179 337.853 24.6074C337.443 25.0358 337.238 25.5918 337.238 26.2754H336.425C336.425 25.7148 336.55 25.2044 336.801 24.7441C337.056 24.2839 337.416 23.9238 337.881 23.6641C338.35 23.3997 338.883 23.2676 339.48 23.2676C340.392 23.2676 341.103 23.5068 341.613 23.9854C342.128 24.4639 342.385 25.1156 342.385 25.9404C342.385 26.4053 342.24 26.9134 341.948 27.4648C341.661 28.0163 341.153 28.7044 340.424 29.5293L337.648 32.667H342.878V33.3574ZM346.227 27.9365H347.075C347.544 27.9365 347.955 27.8545 348.305 27.6904C348.656 27.5218 348.923 27.2939 349.105 27.0068C349.292 26.7152 349.385 26.3802 349.385 26.002C349.385 25.3639 349.205 24.8649 348.845 24.5049C348.485 24.1449 347.968 23.9648 347.294 23.9648C346.656 23.9648 346.132 24.154 345.721 24.5322C345.316 24.9059 345.113 25.4004 345.113 26.0156H344.293C344.293 25.5007 344.423 25.0312 344.682 24.6074C344.942 24.179 345.302 23.8486 345.762 23.6162C346.223 23.3838 346.733 23.2676 347.294 23.2676C348.196 23.2676 348.907 23.5137 349.427 24.0059C349.946 24.498 350.206 25.1725 350.206 26.0293C350.206 26.5078 350.053 26.9499 349.748 27.3555C349.447 27.7565 349.032 28.0573 348.504 28.2578C349.123 28.431 349.593 28.7295 349.912 29.1533C350.231 29.5726 350.39 30.0739 350.39 30.6572C350.39 31.5094 350.112 32.1953 349.556 32.7148C349 33.2344 348.258 33.4941 347.328 33.4941C346.735 33.4941 346.191 33.3757 345.694 33.1387C345.202 32.9017 344.819 32.5713 344.546 32.1475C344.277 31.7191 344.142 31.2223 344.142 30.6572H344.963C344.963 31.2907 345.184 31.8079 345.626 32.209C346.068 32.6055 346.635 32.8037 347.328 32.8037C348.034 32.8037 348.583 32.6237 348.975 32.2637C349.372 31.8991 349.57 31.3727 349.57 30.6846C349.57 30.0192 349.356 29.5111 348.927 29.1602C348.504 28.8092 347.877 28.6338 347.048 28.6338H346.227V27.9365Z" fill="black"/>
</g>
<defs>
<radialGradient id="paint0_radial" cx="0" cy="0" r="1" gradientUnits="userSpaceOnUse" gradientTransform="translate(70.9242 290.287) rotate(-109.482) scale(9.35455 9.27941)">
<stop offset="0.1874" stop-color="#FF9C00"/>
<stop offset="0.2364" stop-color="#FC800A"/>
<stop offset="0.3165" stop-color="#F75819"/>
<stop offset="0.3899" stop-color="#F33C24"/>
<stop offset="0.4536" stop-color="#F12A2B"/>
<stop offset="0.5002" stop-color="#F0242D"/>
<stop offset="0.5774" stop-color="#EB212B"/>
<stop offset="0.6632" stop-color="#DE1724"/>
<stop offset="0.753" stop-color="#C80719"/>
<stop offset="0.7822" stop-color="#BF0015"/>
<stop offset="0.8876" stop-color="#BD0015"/>
<stop offset="0.9333" stop-color="#B60016"/>
<stop offset="0.9673" stop-color="#A90017"/>
<stop offset="0.9955" stop-color="#980018"/>
<stop offset="1" stop-color="#940018"/>
</radialGradient>
<clipPath id="clip0">
<rect width="375" height="375" fill="white" transform="translate(0.137939 0.731445)"/>
</clipPath>
</defs>
</svg>
