<svg width="376" height="376" viewBox="0 0 376 376" fill="none" xmlns="http://www.w3.org/2000/svg">
<g clip-path="url(#clip0)">
<path d="M407.481 -27.3936H-73.4561V404.325H407.481V-27.3936Z" fill="#F4F4F4"/>
<path d="M48.0918 91.7568L52.833 83.1426L-127.346 -16.027L-132.088 -7.41279L48.0918 91.7568Z" fill="#969696"/>
<path d="M48.2624 -6.345L43.2017 -14.7754L-133.109 91.0647L-128.049 99.4951L48.2624 -6.345Z" fill="#969696"/>
<path d="M-37.3834 -127.62C-130.206 -127.62 -205.454 -52.3721 -205.454 40.4507C-205.454 133.273 -130.207 208.522 -37.3834 208.522C55.4389 208.522 130.687 133.274 130.687 40.4507C130.687 -52.3721 55.4394 -127.62 -37.3834 -127.62ZM-37.3834 184.993C-117.212 184.993 -181.926 120.279 -181.926 40.4502C-181.926 -39.3784 -117.212 -104.093 -37.3834 -104.093C42.4457 -104.093 107.159 -39.3779 107.159 40.4502C107.159 120.279 42.4457 184.993 -37.3834 184.993Z" fill="black" stroke="black" stroke-miterlimit="10"/>
<path d="M101.326 81.8944C101.062 82.546 93.5712 100.646 79.5124 92.9096C65.4523 85.1738 55.6362 79.5685 55.6362 79.5685C55.6362 79.5685 45.724 72.9844 41.9121 79.6027C41.5455 80.2383 38.7654 85.0388 38.4527 85.5797C35.2774 91.0782 40.3127 94.2019 45.694 97.2455C51.5327 100.546 68.7799 110.979 68.7799 110.979C68.7799 110.979 80.0295 120.97 72.4779 134.05C64.7304 147.471 78.7268 132.09 78.7268 132.09L102.831 89.7254L101.326 81.8944Z" fill="black" stroke="black" stroke-miterlimit="10"/>
<path d="M66.9384 -59.751C67.3706 -59.1964 79.3002 -43.6593 65.571 -35.3521C51.8413 -27.0435 42.0787 -21.3454 42.0787 -21.3454C42.0787 -21.3454 31.4202 -16.0532 35.2466 -9.44286C35.6137 -8.8077 38.3812 -3.99973 38.6934 -3.45786C41.8673 2.04152 47.0906 -0.757858 52.4174 -3.89614C58.1943 -7.30254 75.8535 -17.0225 75.8535 -17.0225C75.8535 -17.0225 90.8245 -21.425 98.3765 -8.34551C106.125 5.07433 99.1096 -15.0819 99.1096 -15.0819L74.4735 -57.1391L66.9384 -59.751Z" fill="black" stroke="black" stroke-miterlimit="10"/>
<path d="M-35.1634 2.0498C-56.2829 2.0498 -73.4036 19.1704 -73.4036 40.29C-73.4036 61.409 -56.2829 78.5297 -35.1634 78.5297C-14.0443 78.5297 3.07676 61.41 3.07676 40.29C3.07723 19.1704 -14.0439 2.0498 -35.1634 2.0498ZM-35.1634 59.5059C-45.7759 59.5059 -54.3793 50.9025 -54.3793 40.29C-54.3793 29.677 -45.7759 21.074 -35.1634 21.074C-24.5509 21.074 -15.9475 29.677 -15.9475 40.29C-15.9475 50.9025 -24.5509 59.5059 -35.1634 59.5059Z" fill="#969696"/>
<path d="M266.573 116.044L252.171 90.9658L266.573 65.8877H295.382L309.784 90.9658L295.382 116.044H266.573Z" fill="#494949"/>
<path d="M259.668 94.5789C259.668 96.2893 259.991 97.7631 260.373 99.6381H260.356L260.413 99.7206C260.646 100.661 260.944 101.676 261.297 102.563L270.145 130.107H270.148C271.334 134.794 275.784 138.588 281.096 138.588C286.449 138.588 290.928 134.78 292.073 129.775L300.84 102.546C301.233 101.581 301.556 100.658 301.806 99.6292L301.827 99.6386H301.821C302.201 97.7636 302.286 96.2898 302.286 94.5793C302.286 84.7811 295.919 76.4387 286.544 73.9482V83.7793C289.356 85.5357 290.632 88.3745 290.632 91.5793C290.632 94.7842 289.085 97.6407 286.682 99.3971L286.623 110.349C286.496 113.312 284.076 115.712 281.081 115.712C278.087 115.712 275.421 113.701 275.294 110.419V110.109C275.294 110.107 275.294 110.106 275.294 110.105C275.294 110.103 275.294 110.102 275.294 110.102V99.4647C272.95 97.7157 271.207 94.8367 271.207 91.5784C271.207 88.3206 272.95 85.4411 275.294 83.6921V73.9131C266.388 76.3628 259.668 84.7365 259.668 94.5789ZM281.096 121.608C284.172 121.608 286.667 124.102 286.667 127.179C286.667 130.255 284.173 132.749 281.096 132.749C278.02 132.749 275.526 130.255 275.526 127.179C275.526 124.102 278.02 121.608 281.096 121.608Z" fill="black"/>
<path d="M280.977 102.763C287.487 102.763 292.763 97.4863 292.763 90.9772C292.763 84.4681 287.487 79.1914 280.977 79.1914C274.468 79.1914 269.192 84.4681 269.192 90.9772C269.192 97.4863 274.468 102.763 280.977 102.763Z" fill="#F22F2F"/>
<path d="M363.419 124.489C381.933 124.489 396.941 109.48 396.941 90.966C396.941 72.452 381.933 57.4434 363.419 57.4434C344.905 57.4434 329.896 72.452 329.896 90.966C329.896 109.48 344.905 124.489 363.419 124.489Z" fill="#494949"/>
<path d="M250.249 337.986C247.811 331.456 228.221 337.153 230.435 343.036C232.242 347.833 247.35 338.052 244.668 329.638C240.929 317.909 222.826 328.6 224.791 336.705C225.622 340.137 240.975 325.345 238.801 319.801" stroke="#FF0000" stroke-width="4" stroke-miterlimit="10" stroke-linecap="round"/>
<path d="M192.698 271.327C190.26 264.796 231.954 249.063 234.169 254.946C235.326 258.017 195.607 270.322 188.708 263.459C185.023 259.794 164.864 262.836 167.17 269.014C169.511 275.284 188.971 268.328 184.241 254.946" stroke="#FF0000" stroke-width="8" stroke-miterlimit="10" stroke-linecap="round"/>
<path d="M239.199 320.49C237.474 310.488 218.197 319.726 220.411 325.609C222.27 330.544 194.676 282.688 191.874 273.899C188.771 264.163 217.116 316.87 218.222 319.785C219.925 324.261 195.415 279.055 192.698 271.326" stroke="#FF0000" stroke-width="8" stroke-miterlimit="10" stroke-linecap="round"/>
<path d="M268.143 270.32C268.143 277.292 291.563 282.208 291.545 275.922C291.528 269.653 268.642 272.561 268.143 282.768C267.646 292.975 290.799 294.22 291.545 287.996C292.292 281.772 268.392 278.993 268.143 293.183" stroke="#FF0000" stroke-width="4" stroke-miterlimit="10" stroke-linecap="round"/>
<path d="M268.143 248.944C268.143 255.914 291.563 260.832 291.545 254.545C291.528 248.277 268.642 249.217 268.143 259.423C267.646 269.63 290.799 270.875 291.545 264.651C292.292 258.428 268.392 256.876 268.143 271.067" stroke="#FF0000" stroke-width="4" stroke-miterlimit="10" stroke-linecap="round"/>
<path d="M268.143 225.601C268.143 232.571 291.563 237.488 291.545 231.202C291.528 224.933 268.642 226.66 268.143 236.867C267.645 247.074 290.799 248.319 291.545 242.095C292.292 235.872 268.392 235.502 268.143 249.691" stroke="#FF0000" stroke-width="4" stroke-miterlimit="10" stroke-linecap="round"/>
<path d="M268.143 226.347C268.392 212.157 292.297 212.967 291.55 219.19C290.803 225.414 267.646 222.548 268.143 212.341C268.641 202.135 291.922 201.982 291.939 208.25C291.956 214.537 270.606 207.112 270.606 200.141C270.606 200.141 269.124 195.587 276.501 190.639C281.528 187.269 281.232 178.411 280.839 177.132C280.445 175.853 274.025 128.285 281.626 127.922C291.939 127.43 280.642 152.625 282.217 163.157C282.428 164.617 284.137 179.052 284.137 179.052" stroke="#FF0000" stroke-width="4" stroke-miterlimit="10" stroke-linecap="round"/>
<path d="M264.044 360.497C268.868 353.701 244.023 353.615 246.238 359.499C248.448 365.365 261.177 357.023 258.074 347.286C254.971 337.549 235.969 348.001 237.446 354.094C238.923 360.185 254.98 351.368 250.249 337.985" stroke="#FF0000" stroke-width="4" stroke-miterlimit="10" stroke-linecap="round"/>
<path d="M261.581 335.489C261.581 342.46 281.719 347.376 281.702 341.09C281.684 334.821 260.323 335.055 259.825 345.262C259.327 355.47 279.629 352.283 275.059 347.992C272.734 345.808 247.89 355.923 261.581 360.496" stroke="#FF0000" stroke-width="4" stroke-miterlimit="10" stroke-linecap="round"/>
<path d="M266.268 314.577C266.268 321.548 286.875 326.465 286.858 320.179C286.84 313.911 263.954 313.83 263.456 324.037C262.958 334.245 284.237 335.49 284.983 329.265C285.73 323.041 261.83 322.045 261.581 336.235" stroke="#FF0000" stroke-width="4" stroke-miterlimit="10" stroke-linecap="round"/>
<path d="M268.135 292.312C268.135 299.284 290.626 304.533 290.607 298.246C290.59 291.978 267.704 292.918 267.205 303.125C266.708 313.331 288.924 314.577 289.67 308.352C290.417 302.129 266.517 301.133 266.268 315.323" stroke="#FF0000" stroke-width="4" stroke-miterlimit="10" stroke-linecap="round"/>
<path d="M285.586 167.625C285.652 168.176 285.379 168.661 284.977 168.709L278.35 169.503C277.949 169.551 277.569 169.144 277.502 168.594L276.532 160.493C276.466 159.943 276.738 159.458 277.142 159.409L283.767 158.615C284.169 158.567 284.549 158.974 284.615 159.525L285.586 167.625Z" fill="#CECECE"/>
<path d="M280.977 132.746C280.977 132.746 286.514 133.05 286.647 126.715C286.779 120.38 292.138 129.575 292.138 129.575C292.138 129.575 290.294 138.748 280.489 138.588C279.747 138.348 280.977 132.746 280.977 132.746Z" fill="black"/>
<path d="M366.7 110.613C366.7 111.283 366.318 111.826 365.846 111.826H361.617C361.146 111.826 360.607 111.282 360.607 110.613V70.8518C360.607 70.1815 361.146 69.6387 361.617 69.6387H365.846C366.318 69.6387 366.7 70.182 366.7 70.8518V110.613Z" fill="#EAEAEA"/>
<path d="M246.058 432.304C224.744 194.621 222.364 180.203 229.149 244.689C228.596 239.441 227.509 231.624 229.847 227.384C232.183 223.145 245.372 182.064 240.04 149.924C241.91 136.415 241.304 132.77 240.548 127.832C239.79 122.895 240.608 86.7972 231.635 84.9062C224.025 84.1736 224.5 87.9962 224.627 91.1875C224.754 94.3792 225.643 108.805 225.493 110.849C225.299 113.47 222.147 132.189 222.147 132.189C222.147 132.189 222.087 109.947 221.18 105.578C220.273 101.208 221.263 95.6401 219.021 84.8444C216.78 74.0486 219.078 64.4547 215.803 60.3086C212.53 56.162 203.674 56.124 203.723 62.8169C203.772 69.5097 203.477 78.4192 204.021 82.3286C204.564 86.237 202.476 118.795 203.133 122.53C203.807 126.347 200.916 94.502 200.916 94.502C200.916 94.502 201.586 83.4367 201.784 79.307C201.989 75.0442 200.892 69.8397 200.517 68.0406C200.144 66.2415 202.66 51.2401 199.085 48.2284C195.51 45.2167 188.346 44.2909 186.49 50.8436C184.633 57.3962 183.527 75.3217 183.995 79.5147C184.465 83.7072 182.027 95.2065 182.196 97.3169C182.366 99.4262 183.777 118.489 183.068 120.245C182.36 122.001 180.149 99.0817 180.149 99.0817C180.149 99.0817 183.802 63.7356 179.993 60.2364C176.184 56.7376 172.532 57.2275 169.166 61.6801C165.8 66.1323 159.412 121.888 161.751 131.859C158.51 140.945 160.162 153.907 158.727 154.742C157.291 155.576 153.646 165.624 154.287 168.709C154.927 171.792 150.516 165.562 148.557 165.164C146.597 164.768 137.571 126.634 117.902 127.29C107.999 127.619 111.729 135.007 112.625 138.038C113.523 141.068 121.493 153.624 122.4 157.994C123.307 162.364 128.173 187.093 131.138 191.036C134.101 194.979 143.486 204.024 144.854 208.029C146.222 212.035 152.543 224.397 156.889 227.249C161.235 230.1 164.145 233.786 165.727 238.821C167.308 243.855 171.971 268.894 172.141 271.004C172.31 273.114 171.785 428.622 171.785 428.622L246.058 432.304Z" fill="#F9DBBD"/>
<path d="M167.169 266.2C174.982 253.075 194.285 271.991 187.638 272.763C181.857 273.434 189.167 256.986 199.513 254.278C212.666 250.835 224.664 263.701 218.179 265.263C212.067 266.736 218.051 256.271 223.1 251.465C223.1 251.465 227.704 247.841 231.857 251.825" stroke="#FF0000" stroke-width="4" stroke-miterlimit="10" stroke-linecap="round"/>
<rect x="315.138" y="15.7314" width="45.0996" height="25" rx="12.5" fill="#969696" fill-opacity="0.3"/>
<path d="M323.249 33.3574H322.428V24.3887L319.721 25.3936V24.6279L323.112 23.3701H323.249V33.3574ZM333.339 23.876L329.087 33.3574H328.232L332.457 24.1016H326.797V23.4043H333.339V23.876ZM334.986 34.2119H334.241L338.397 23.4043H339.135L334.986 34.2119ZM346.771 33.3574H340.537V32.7285L343.948 28.8594C344.513 28.2077 344.905 27.6699 345.124 27.2461C345.343 26.8223 345.452 26.4098 345.452 26.0088C345.452 25.3799 345.267 24.8831 344.898 24.5186C344.529 24.1494 344.021 23.9648 343.374 23.9648C342.704 23.9648 342.162 24.179 341.747 24.6074C341.337 25.0358 341.132 25.5918 341.132 26.2754H340.318C340.318 25.7148 340.443 25.2044 340.694 24.7441C340.949 24.2839 341.309 23.9238 341.774 23.6641C342.244 23.3997 342.777 23.2676 343.374 23.2676C344.285 23.2676 344.996 23.5068 345.507 23.9854C346.022 24.4639 346.279 25.1156 346.279 25.9404C346.279 26.4053 346.133 26.9134 345.842 27.4648C345.554 28.0163 345.046 28.7044 344.317 29.5293L341.542 32.667H346.771V33.3574ZM350.121 27.9365H350.969C351.438 27.9365 351.848 27.8545 352.199 27.6904C352.55 27.5218 352.816 27.2939 352.999 27.0068C353.186 26.7152 353.279 26.3802 353.279 26.002C353.279 25.3639 353.099 24.8649 352.739 24.5049C352.379 24.1449 351.862 23.9648 351.187 23.9648C350.549 23.9648 350.025 24.154 349.615 24.5322C349.209 24.9059 349.007 25.4004 349.007 26.0156H348.186C348.186 25.5007 348.316 25.0312 348.576 24.6074C348.836 24.179 349.196 23.8486 349.656 23.6162C350.116 23.3838 350.627 23.2676 351.187 23.2676C352.09 23.2676 352.801 23.5137 353.32 24.0059C353.84 24.498 354.099 25.1725 354.099 26.0293C354.099 26.5078 353.947 26.9499 353.641 27.3555C353.341 27.7565 352.926 28.0573 352.397 28.2578C353.017 28.431 353.486 28.7295 353.805 29.1533C354.124 29.5726 354.284 30.0739 354.284 30.6572C354.284 31.5094 354.006 32.1953 353.45 32.7148C352.894 33.2344 352.151 33.4941 351.221 33.4941C350.629 33.4941 350.084 33.3757 349.588 33.1387C349.095 32.9017 348.713 32.5713 348.439 32.1475C348.17 31.7191 348.036 31.2223 348.036 30.6572H348.856C348.856 31.2907 349.077 31.8079 349.519 32.209C349.961 32.6055 350.529 32.8037 351.221 32.8037C351.928 32.8037 352.477 32.6237 352.869 32.2637C353.265 31.8991 353.464 31.3727 353.464 30.6846C353.464 30.0192 353.249 29.5111 352.821 29.1602C352.397 28.8092 351.771 28.6338 350.941 28.6338H350.121V27.9365Z" fill="black"/>
</g>
<defs>
<clipPath id="clip0">
<rect width="375" height="375" fill="white" transform="translate(0.137695 0.731445)"/>
</clipPath>
</defs>
</svg>
