<svg width="376" height="376" viewBox="0 0 376 376" fill="none" xmlns="http://www.w3.org/2000/svg">
<g clip-path="url(#clip0)">
<rect x="0.137695" y="0.731445" width="375" height="375" fill="#8BF6FF"/>
<g clip-path="url(#clip1)">
<path d="M344.214 199.423C343.778 195.202 342.666 191.521 341.368 189.475C338.368 184.75 335.618 185.994 335.618 185.994L185.884 182.512C113.892 180.772 55.5886 165.986 45.6486 161.624C37.1535 157.896 29.9073 165.844 28.9019 167.59C40.0022 173.416 65.608 181.271 115.829 189.04C210.999 203.761 336.089 199.502 344.214 199.423Z" fill="#B2B2B2"/>
<path d="M338.368 252.015C338.868 251.843 341.305 252.015 341.305 252.015C341.305 252.015 339.65 251.021 341.274 248.783C342.899 246.544 343.884 244.928 343.134 248.783C342.384 252.637 342.876 252.015 342.876 252.015L344.367 252.052C344.367 252.052 345.244 252.388 345.244 254.751C345.244 257.113 344.119 257.237 343.369 257.486C342.619 257.735 342.743 259.6 342.743 259.6C342.743 259.6 343.993 260.594 342.868 261.713C341.743 262.832 340.993 261.713 340.993 261.713L341.805 257.237L338.368 257.113V252.015Z" fill="#C9C9C9"/>
<path d="M312.747 189.133C312.747 189.133 313.059 179.125 315.683 177.136C318.308 175.146 327.338 171.121 330.713 171.121C334.087 171.121 343.563 171.006 344.395 171.735C345.226 172.465 345.86 173.821 347.484 173.821C349.109 173.821 352.488 174.437 352.738 176.675C352.988 178.913 352.74 180.011 352.74 180.011C352.74 180.011 355.741 197.185 355.241 199.547C354.741 201.91 352.992 203.401 352.242 204.769C351.492 206.137 347.367 216.953 345.993 218.321C344.618 219.688 342.743 220.943 342.743 220.943L343.618 232.246C343.618 232.246 344.118 234.733 346.743 235.603C349.367 236.473 351.367 240.576 351.367 240.576C351.367 240.576 351.742 244.679 351.617 245.923C351.492 247.166 350.242 246.917 350.242 246.917C350.242 246.917 348.742 244.182 347.492 243.933C346.243 243.685 340.618 243.685 340.618 243.685C340.618 243.685 338.993 243.933 338.993 245.301C338.993 246.669 338.493 251.145 338.493 251.145C338.493 251.145 339.243 252.139 339.368 253.01C339.493 253.88 339.368 256.988 338.868 257.61C338.368 258.232 338.493 259.102 338.493 259.102C338.493 259.102 339.243 261.464 340.118 263.454C340.993 265.443 340.993 266.562 340.993 266.562H335.369L320.87 255.123L320.62 234.608L322.87 230.257L323.12 225.781H320.37L316.871 227.397L314.996 225.532C314.996 225.532 319.245 215.337 319.12 214.466C318.995 213.596 312.747 189.133 312.747 189.133Z" fill="#747474"/>
<path d="M315.204 219.812L310.205 235.498C310.205 235.498 185.215 235.284 177.885 235.498C95.8937 237.882 45.0655 228.432 27.4023 183.424C27.4023 183.424 114.337 212.148 142.389 212.908" fill="#8E8E8E"/>
<path d="M183.949 218.271C183.948 218.271 183.948 218.271 183.947 218.273C183.947 218.271 183.947 218.271 183.947 218.271L183.943 218.271L183.929 218.27L183.871 218.267L183.641 218.253C183.437 218.241 183.135 218.223 182.738 218.198C181.946 218.148 180.777 218.072 179.274 217.967C176.269 217.756 171.926 217.428 166.579 216.958C155.883 216.018 141.167 214.51 125.084 212.241C92.9154 207.703 55.2879 200.119 33.4243 187.94C28.725 185.322 26.3639 182.367 25.3431 179.52C24.331 176.698 24.6337 173.976 25.2924 171.785C25.4966 171.896 25.7039 172.008 25.9148 172.123C35.5596 177.363 52.6083 186.625 111.216 196.487C139.036 202.077 185.88 205.087 231.488 206.712C277.062 208.336 321.406 208.577 344.31 208.624C344.098 212.539 343.212 216.502 341.325 219.788C341.302 219.824 341.245 219.867 341.143 219.913C341.042 219.958 340.904 220.002 340.729 220.044C340.379 220.13 339.888 220.208 339.265 220.279C338.018 220.422 336.248 220.537 334.027 220.627C329.587 220.807 323.353 220.888 315.927 220.894C301.075 220.905 281.46 220.618 261.908 220.229C242.355 219.841 222.865 219.351 208.263 218.959C200.962 218.762 194.883 218.59 190.629 218.468C188.502 218.406 186.832 218.357 185.693 218.323L184.393 218.284L184.059 218.274L183.975 218.272L183.954 218.271L183.949 218.271Z" fill="#FFFCF8" stroke="black" stroke-width="0.1"/>
<path d="M239.879 172.649C239.184 172.621 238.54 172.609 237.67 172.561C227.274 171.984 223.498 183.623 222.963 188.416L239.879 188.481V172.649Z" fill="#E5E5E5"/>
<path d="M237.462 177.305L237.67 172.561C237.67 172.561 239.182 172.254 231.546 172.543C217.756 173.063 219.047 188.401 219.047 188.401L224.049 188.42C224.422 176.628 232.254 177.837 237.462 177.305Z" fill="#BFA983"/>
<path d="M188.154 161.804C188.154 161.804 192.259 144.467 192.509 143.099C192.759 141.731 191.384 141.731 191.384 141.731L179.885 160.905L176.136 164.484L175.159 167.785L187.327 163.738L188.154 161.804Z" fill="#B2DDEA"/>
<path d="M153.721 185.497C153.721 185.497 176.385 165.272 182.718 163.117C189.051 160.962 187.218 161.625 191.217 163.117C194.52 164.349 198.109 172.011 199.257 174.641C199.499 175.196 199.399 175.655 198.976 175.886C195.03 178.041 174.672 189.159 174.22 189.309C173.719 189.476 153.721 185.497 153.721 185.497Z" fill="#E5E5E5"/>
<path d="M196.571 171.587C196.571 171.587 195.446 171.261 196.133 169.893C196.821 168.525 198.195 169.178 198.195 169.178C198.195 169.178 198.945 167.406 199.633 167.717C200.32 168.027 200.636 169.188 200.636 169.188L201.883 169.146V168.587L202.82 168.339C202.82 168.339 200.57 161.998 201.383 161.003C202.195 160.008 203.82 166.909 204.132 167.717C204.445 168.525 204.757 168.587 204.757 168.587H205.882C205.882 168.587 206.52 168.836 206.395 170.017C206.27 171.198 204.82 170.763 204.82 170.763L205.945 175.526C205.945 175.526 206.672 176.98 206.277 177.726C205.882 178.472 204.094 175.351 203.266 171.196C203.216 170.992 201.341 171.427 201.341 171.427C201.341 171.427 201.504 172.736 200.359 172.984C199.214 173.233 198.695 171.712 198.695 171.712L196.571 171.587Z" fill="#49443F"/>
<path d="M344.159 202.855C343.536 202.862 342.308 202.89 340.529 202.931C317.677 203.462 203.936 206.1 115.837 192.472C65.691 184.715 38.5963 172.904 27.4721 167.073C28.0129 166.172 30.0501 163.807 32.9922 162.1C35.9827 160.366 39.9008 159.317 44.129 161.173C54.0753 165.538 113.885 184.303 185.883 186.044L335.618 189.525L335.629 189.525L335.639 189.521L344.159 202.855Z" fill="#FFFCF8" stroke="black" stroke-width="0.1"/>
<path d="M344.214 202.904C336.09 202.984 211 207.242 115.829 192.521C65.609 184.753 38.5028 172.918 27.4025 167.093C27.402 167.093 27.4015 167.095 27.401 167.095C27.0575 167.693 25.9666 169.402 25.2627 171.712C34.7907 176.875 51.2275 186.342 111.226 196.438C166.857 207.615 298.588 208.481 344.363 208.574C344.464 206.642 344.402 204.723 344.214 202.904Z" fill="#FF6B00"/>
</g>
<rect x="315.138" y="15.7314" width="44.0746" height="25" rx="12.5" fill="#969696" fill-opacity="0.3"/>
<path d="M325.131 27.9365H325.979C326.448 27.9365 326.859 27.8545 327.209 27.6904C327.56 27.5218 327.827 27.2939 328.009 27.0068C328.196 26.7152 328.29 26.3802 328.29 26.002C328.29 25.3639 328.11 24.8649 327.75 24.5049C327.389 24.1449 326.872 23.9648 326.198 23.9648C325.56 23.9648 325.036 24.154 324.625 24.5322C324.22 24.9059 324.017 25.4004 324.017 26.0156H323.197C323.197 25.5007 323.327 25.0312 323.586 24.6074C323.846 24.179 324.206 23.8486 324.667 23.6162C325.127 23.3838 325.637 23.2676 326.198 23.2676C327.1 23.2676 327.811 23.5137 328.331 24.0059C328.85 24.498 329.11 25.1725 329.11 26.0293C329.11 26.5078 328.957 26.9499 328.652 27.3555C328.351 27.7565 327.936 28.0573 327.408 28.2578C328.028 28.431 328.497 28.7295 328.816 29.1533C329.135 29.5726 329.294 30.0739 329.294 30.6572C329.294 31.5094 329.016 32.1953 328.46 32.7148C327.904 33.2344 327.162 33.4941 326.232 33.4941C325.639 33.4941 325.095 33.3757 324.598 33.1387C324.106 32.9017 323.723 32.5713 323.45 32.1475C323.181 31.7191 323.046 31.2223 323.046 30.6572H323.867C323.867 31.2907 324.088 31.8079 324.53 32.209C324.972 32.6055 325.539 32.8037 326.232 32.8037C326.938 32.8037 327.487 32.6237 327.879 32.2637C328.276 31.8991 328.474 31.3727 328.474 30.6846C328.474 30.0192 328.26 29.5111 327.832 29.1602C327.408 28.8092 326.781 28.6338 325.952 28.6338H325.131V27.9365ZM331.092 34.2119H330.347L334.503 23.4043H335.242L331.092 34.2119ZM342.877 33.3574H336.643V32.7285L340.054 28.8594C340.619 28.2077 341.011 27.6699 341.23 27.2461C341.449 26.8223 341.558 26.4098 341.558 26.0088C341.558 25.3799 341.374 24.8831 341.004 24.5186C340.635 24.1494 340.127 23.9648 339.48 23.9648C338.81 23.9648 338.268 24.179 337.853 24.6074C337.443 25.0358 337.238 25.5918 337.238 26.2754H336.424C336.424 25.7148 336.55 25.2044 336.8 24.7441C337.056 24.2839 337.416 23.9238 337.88 23.6641C338.35 23.3997 338.883 23.2676 339.48 23.2676C340.391 23.2676 341.102 23.5068 341.613 23.9854C342.128 24.4639 342.385 25.1156 342.385 25.9404C342.385 26.4053 342.239 26.9134 341.948 27.4648C341.661 28.0163 341.153 28.7044 340.423 29.5293L337.648 32.667H342.877V33.3574ZM346.227 27.9365H347.075C347.544 27.9365 347.954 27.8545 348.305 27.6904C348.656 27.5218 348.923 27.2939 349.105 27.0068C349.292 26.7152 349.385 26.3802 349.385 26.002C349.385 25.3639 349.205 24.8649 348.845 24.5049C348.485 24.1449 347.968 23.9648 347.293 23.9648C346.655 23.9648 346.131 24.154 345.721 24.5322C345.316 24.9059 345.113 25.4004 345.113 26.0156H344.292C344.292 25.5007 344.422 25.0312 344.682 24.6074C344.942 24.179 345.302 23.8486 345.762 23.6162C346.222 23.3838 346.733 23.2676 347.293 23.2676C348.196 23.2676 348.907 23.5137 349.426 24.0059C349.946 24.498 350.206 25.1725 350.206 26.0293C350.206 26.5078 350.053 26.9499 349.748 27.3555C349.447 27.7565 349.032 28.0573 348.503 28.2578C349.123 28.431 349.593 28.7295 349.912 29.1533C350.231 29.5726 350.39 30.0739 350.39 30.6572C350.39 31.5094 350.112 32.1953 349.556 32.7148C349 33.2344 348.257 33.4941 347.328 33.4941C346.735 33.4941 346.191 33.3757 345.694 33.1387C345.202 32.9017 344.819 32.5713 344.545 32.1475C344.277 31.7191 344.142 31.2223 344.142 30.6572H344.962C344.962 31.2907 345.183 31.8079 345.625 32.209C346.068 32.6055 346.635 32.8037 347.328 32.8037C348.034 32.8037 348.583 32.6237 348.975 32.2637C349.372 31.8991 349.57 31.3727 349.57 30.6846C349.57 30.0192 349.356 29.5111 348.927 29.1602C348.503 28.8092 347.877 28.6338 347.047 28.6338H346.227V27.9365Z" fill="black"/>
</g>
<defs>
<clipPath id="clip0">
<rect width="375" height="375" fill="white" transform="translate(0.137695 0.731445)"/>
</clipPath>
<clipPath id="clip1">
<rect width="331" height="125" fill="white" transform="translate(24.6377 141.731)"/>
</clipPath>
</defs>
</svg>
