<svg width="376" height="376" viewBox="0 0 376 376" fill="none" xmlns="http://www.w3.org/2000/svg">
<g clip-path="url(#clip0)">
<path opacity="0.6" d="M-4.09351 -7.43043L379.101 -8.78418L379.568 381.03H-4.09351V-7.43043Z" fill="#39BCC4"/>
<path d="M383.107 -9.75879H-10.6433V385.397H383.107V-9.75879Z" fill="#8BF6FF"/>
<path opacity="0.8" d="M315.769 292.416L324.092 287.688L321.294 319.338L292.742 305.379L302.696 299.805C279.686 264.246 240.607 239.955 196.075 237.024V221.995C246.232 224.966 290.151 252.319 315.769 292.416Z" fill="#F90606"/>
<path opacity="0.8" d="M58.4752 292.416L50.1052 287.688L52.8793 319.338L81.4187 305.379L71.5543 299.803C94.5638 264.246 133.497 239.955 178.263 237.024V221.995C127.896 224.966 84.0929 252.319 58.4752 292.416Z" fill="#F90606"/>
<path d="M190.919 306.647H184.357V437.897H190.919V306.647Z" fill="#969696"/>
<path d="M243.379 408.85L246.544 403.101L126.279 336.908L123.114 342.657L243.379 408.85Z" fill="#969696"/>
<path d="M243.468 343.356L240.09 337.729L122.409 408.374L125.786 414L243.468 343.356Z" fill="#969696"/>
<path d="M187.962 387.741C196.052 387.741 202.61 381.183 202.61 373.093C202.61 365.003 196.052 358.444 187.962 358.444C179.872 358.444 173.313 365.003 173.313 373.093C173.313 381.183 179.872 387.741 187.962 387.741Z" fill="black"/>
<path d="M186.325 262.432C124.372 262.432 74.1497 312.654 74.1497 374.607C74.1497 436.559 124.372 486.783 186.325 486.783C248.277 486.783 298.5 436.56 298.5 374.607C298.5 312.654 248.277 262.432 186.325 262.432ZM186.325 471.078C133.045 471.078 89.8528 427.885 89.8528 374.605C89.8528 321.326 133.045 278.133 186.325 278.133C239.605 278.133 282.797 321.326 282.797 374.605C282.797 427.886 239.605 471.078 186.325 471.078Z" fill="black" stroke="black" stroke-miterlimit="10"/>
<path d="M166.905 280.09C167.369 280.026 180.569 278.513 180.79 289.221C181.012 299.929 181.048 307.473 181.048 307.473C181.048 307.473 180.55 315.399 185.647 315.394C186.136 315.394 189.839 315.399 190.256 315.399C194.495 315.399 194.619 311.447 194.582 307.322C194.541 302.844 194.817 289.396 194.817 289.396C194.817 289.396 195.782 280.224 205.862 280.224C216.205 280.223 203.7 276.601 203.7 276.601L171.17 276.806L166.905 280.09Z" fill="black" stroke="black" stroke-miterlimit="10"/>
<path d="M94.1935 346.176C94.3702 345.741 99.3699 333.661 108.753 338.822C118.138 343.987 124.689 347.727 124.689 347.727C124.689 347.727 131.304 352.121 133.849 347.704C134.093 347.28 135.949 344.076 136.158 343.715C138.277 340.044 134.917 337.96 131.325 335.929C127.427 333.725 115.916 326.762 115.916 326.762C115.916 326.762 107.079 321.284 112.696 312.915C118.439 304.36 109.277 312.671 109.277 312.671L93.189 340.945L94.1935 346.176Z" fill="black" stroke="black" stroke-miterlimit="10"/>
<path d="M255.952 307.729C256.239 308.098 264.203 318.469 255.039 324.013C245.876 329.558 239.36 333.361 239.36 333.361C239.36 333.361 232.246 336.893 234.8 341.305C235.044 341.727 236.892 344.938 237.099 345.299C239.218 348.97 242.703 347.101 246.259 345.007C250.116 342.733 261.901 336.246 261.901 336.246C261.901 336.246 271.892 333.308 276.933 342.037C282.105 350.993 277.422 337.541 277.422 337.541L260.979 309.471L255.952 307.729Z" fill="black" stroke="black" stroke-miterlimit="10"/>
<path d="M187.807 348.977C173.711 348.977 162.284 360.403 162.284 374.499C162.284 388.594 173.711 400.021 187.807 400.021C201.901 400.021 213.328 388.594 213.328 374.499C213.328 360.403 201.902 348.977 187.807 348.977ZM187.807 387.324C180.724 387.324 174.982 381.581 174.982 374.499C174.982 367.415 180.724 361.674 187.807 361.674C194.888 361.674 200.63 367.415 200.63 374.499C200.632 381.581 194.89 387.324 187.807 387.324Z" fill="#969696"/>
<path d="M187.404 8.99121V367.116" stroke="white" stroke-width="3" stroke-miterlimit="10" stroke-dasharray="7 7"/>
<path d="M142.097 22.3506C140.836 31.7256 135.033 40.1893 133.52 47.9575C132.006 55.7256 134.024 61.9431 132.258 71.2783C130.492 80.6129 124.185 86.2445 122.419 92.8042C120.653 99.3634 120.093 111.376 116.21 116.112C112.327 120.849 91.0032 119.033 91.0032 119.033C91.0032 119.033 74.7367 119.809 71.7287 116.14C67.8461 111.403 67.2859 99.4323 65.5201 92.8726C63.7543 86.3129 57.4468 80.7568 55.6806 71.4217C53.9143 62.087 55.9328 55.7237 54.4192 47.9556C52.9051 40.1879 47.1025 31.7256 45.8411 22.3506H142.097Z" fill="url(#paint0_linear)"/>
<path opacity="0.5" d="M126.455 22.3506C125.194 31.7256 119.391 40.1893 117.877 47.9575C116.364 55.7256 118.382 61.9431 116.616 71.2782C114.85 80.6129 108.543 86.2445 106.776 92.8042C105.01 99.3634 104.45 111.376 100.567 116.113C96.6846 120.849 93.0209 119.034 93.0209 119.034C93.0209 119.034 89.8737 119.809 86.8657 116.14C82.9826 111.403 82.4229 99.4323 80.6571 92.8726C78.8913 86.3129 72.5838 80.7568 70.8176 71.4217C69.0513 62.087 71.0698 55.7237 69.5562 47.9556C68.043 40.1879 62.2399 31.7256 60.9785 22.3506H126.455Z" fill="url(#paint1_linear)"/>
<path d="M329.129 23.2881C327.868 32.6631 322.065 41.1268 320.551 48.895C319.037 56.6631 321.055 62.8806 319.289 72.2157C317.523 81.5504 311.216 87.182 309.45 93.7417C307.684 100.301 307.125 112.313 303.242 117.05C299.358 121.787 278.035 119.971 278.035 119.971C278.035 119.971 261.768 120.746 258.76 117.077C254.878 112.341 254.318 100.37 252.552 93.8101C250.786 87.2504 244.478 81.6943 242.712 72.3592C240.946 63.0245 242.965 56.6612 241.451 48.8931C239.938 41.125 234.134 32.6631 232.872 23.2881H329.129Z" fill="url(#paint2_linear)"/>
<path opacity="0.5" d="M313.487 23.2881C312.225 32.6631 306.423 41.1268 304.909 48.895C303.395 56.6631 305.413 62.8806 303.648 72.2157C301.881 81.5504 295.574 87.182 293.808 93.7417C292.042 100.301 291.482 112.313 287.599 117.05C283.717 121.787 280.053 119.971 280.053 119.971C280.053 119.971 276.905 120.747 273.897 117.077C270.015 112.341 269.455 100.37 267.689 93.8101C265.923 87.2504 259.616 81.6943 257.85 72.3592C256.083 63.0245 258.102 56.6612 256.588 48.8931C255.075 41.125 249.271 32.6631 248.01 23.2881H313.487Z" fill="url(#paint3_linear)"/>
<path opacity="0.8" d="M277.336 164.63L283.115 164.616C284.282 181.739 293.66 196.745 307.354 205.562L309.489 201.729L314.883 212.697L302.715 213.801L304.525 210.595C289.082 200.78 278.524 183.916 277.336 164.63Z" fill="#F90606"/>
<path opacity="0.8" d="M71.2188 210.6L73.0296 213.806L60.8608 212.702L66.2552 201.734L68.3894 205.568C82.0839 196.75 91.4613 181.744 92.6285 164.621L98.4077 164.635C97.2203 183.92 86.6613 200.784 71.2188 210.6Z" fill="#F90606"/>
<path d="M73.0306 160.252H114.967L115.74 110.3C115.74 110.3 119.609 68.8941 93.9279 54.6807C69.0907 68.3307 71.9046 109.261 71.9046 109.261L73.0306 160.252Z" fill="#D1D1D1"/>
<path d="M93.7821 65.4951C93.7821 65.4951 111.941 64.7957 112.574 100.987C113.207 137.18 110.701 141.026 110.701 141.026H76.9708L75.3911 130.035V98.9198C75.3911 98.9189 76.4838 66.5948 93.7821 65.4951Z" fill="#F4F4F4"/>
<path d="M93.9981 65.2725C79.9652 65.0058 75.5214 82.9458 74.395 99.8911L74.8591 127.965L75.5631 148.229L86.4691 150.762L88.2288 148.67L99.9086 148.722C99.9086 148.722 101.385 150.481 101.738 150.481C103.72 150.481 112.435 148.088 112.435 148.088C112.435 148.088 112.746 134.33 112.892 128.138C112.897 127.928 113.693 100.239 113.682 99.8906C113.083 82.979 109.258 65.5631 93.9981 65.2725ZM112.257 127.543C112.327 128.001 110.463 146.752 110.463 146.752C110.463 146.752 103.173 148.101 101.302 148.101C100.97 148.101 99.5763 146.42 99.5763 146.42L88.5489 146.37L86.8886 148.371L77.1822 146.752L75.5641 127.567C75.3302 110.914 75.6564 110.68 75.5641 99.8911C76.8466 83.3606 81.8974 65.7998 94.1866 66.1172C106.398 66.4331 111.348 83.5509 112.435 99.8911C112.426 100.524 112.116 127.262 112.257 127.543Z" fill="#E8E8E8"/>
<path d="M94.1483 98.6302L94.1558 98.4609L88.5613 99.2948L86.2789 101.634C85.0119 102.549 84.7695 107.157 84.7695 107.157V115.706L85.6545 117.571L91.9025 116.48L94.1863 112.953L94.1483 110.024V98.6302Z" fill="white"/>
<path d="M94.0339 98.6316L94.1558 98.4619L99.4259 99.2958L101.667 101.635C102.933 102.55 103.133 107.158 103.133 107.158V115.707L102.333 117.572L96.1278 116.481L93.9219 112.954L94.0292 110.025L94.0339 98.6316Z" fill="white"/>
<path d="M102.301 113.519C102.283 113.256 99.8024 109.361 99.8024 109.361L88.5336 109.243L85.7075 113.259V113.823V114.104V114.385V117.579H102.3C102.301 117.579 102.319 113.783 102.301 113.519Z" fill="#C6C6C6"/>
<path d="M94.2537 168.692C93.7095 169.322 92.7565 169.391 92.127 168.846L85.4886 163.103C84.8595 162.558 84.7911 161.605 85.3353 160.975L94.1581 150.778C94.7032 150.148 95.6557 150.079 96.2853 150.625L102.923 156.368C103.553 156.913 103.621 157.865 103.077 158.495L94.2537 168.692Z" fill="#394963"/>
<path d="M100.566 105.856H94.878H92.7086H87.5837C87.5837 105.856 85.9407 108.15 85.6726 113.833C85.6703 113.866 85.9656 113.893 85.9656 113.893C86.7118 112.843 88.3811 110.021 88.3811 110.021L93.7933 109.995L99.7675 110.029C99.7675 110.029 101.436 112.863 102.183 113.913C102.183 113.913 102.478 113.865 102.476 113.832C102.208 108.149 100.566 105.856 100.566 105.856Z" fill="#29ABE2"/>
<path d="M87.8416 116.242C87.8416 118.529 95.3786 118.694 95.3786 116.221C95.3786 114.048 87.8416 113.844 87.8416 116.242ZM88.4973 116.216C88.4973 114.582 94.7223 114.722 94.7223 116.202C94.7228 117.888 88.4973 117.775 88.4973 116.216Z" fill="black"/>
<path d="M90.6648 114.965C90.6648 114.965 90.6826 115.678 91.5348 115.668C92.3884 115.66 92.2736 115.026 92.2918 114.965C92.3097 114.903 90.6648 114.965 90.6648 114.965Z" fill="black"/>
<path d="M91.2631 115.703L91.0432 117.579H92.1687L91.8696 115.703H91.2631Z" fill="black"/>
<path d="M92.0281 115.176C92.0459 115.176 94.781 116.372 94.781 116.372L94.887 115.669L92.1162 114.842L92.0281 115.176Z" fill="black"/>
<path d="M90.8842 115.176C90.8669 115.176 88.052 116.372 88.052 116.372V115.669L90.7173 114.842L90.8842 115.176Z" fill="black"/>
<path d="M112.434 99.8911C112.434 99.8911 103.217 99.9614 101.176 90.181C99.1358 80.4005 97.94 66.9614 97.7984 66.6802C97.6583 66.3985 111.449 69.7758 112.434 99.8911Z" fill="#E8CDA0"/>
<path d="M75.5632 99.8911C75.5632 99.8911 84.7807 99.9614 86.8212 90.181C88.8617 80.4005 90.0584 66.9614 90.1985 66.6802C90.3392 66.3985 76.5485 69.7758 75.5632 99.8911Z" fill="#E8CDA0"/>
<path d="M76.2669 138.238C76.2669 138.238 75.5924 135.97 77.8147 136.76C85.1324 139.364 102.372 139.927 110.11 136.621C111.733 135.927 111.708 136.337 111.658 137.43C111.622 138.25 110.463 146.752 110.463 146.752C110.463 146.752 97.2341 151.818 77.1814 146.752L76.2669 138.238Z" fill="#E8CDA0"/>
<path d="M102.589 128.172C102.589 128.641 102.091 128.833 101.44 128.833H86.5939C85.9428 128.833 85.2383 128.641 85.2383 128.172V123.22C85.2383 122.751 85.9428 122.269 86.5939 122.269H101.44C102.092 122.269 102.589 122.751 102.589 123.22V128.172Z" fill="#E8CDA0"/>
<path d="M260.062 160.252H301.998L302.771 110.3C302.771 110.3 306.641 68.8941 280.959 54.6807C256.122 68.3307 258.936 109.261 258.936 109.261L260.062 160.252Z" fill="#D1D1D1"/>
<path d="M280.813 65.4951C280.813 65.4951 298.972 64.7957 299.605 100.987C300.238 137.18 297.732 141.026 297.732 141.026H264.002L262.422 130.035V98.9198C262.422 98.9189 263.515 66.5948 280.813 65.4951Z" fill="#F4F4F4"/>
<path d="M281.029 65.2725C266.996 65.0058 262.553 82.9458 261.426 99.8911L261.89 127.965L262.594 148.229L273.5 150.762L275.26 148.67L286.94 148.722C286.94 148.722 288.416 150.481 288.769 150.481C290.751 150.481 299.465 148.088 299.465 148.088C299.465 148.088 299.777 134.33 299.922 128.138C299.928 127.928 300.724 100.239 300.713 99.8906C300.115 82.979 296.289 65.5631 281.029 65.2725ZM299.289 127.543C299.359 128.001 297.494 146.752 297.494 146.752C297.494 146.752 290.205 148.101 288.334 148.101C288.001 148.101 286.608 146.42 286.608 146.42L275.58 146.37L273.919 148.371L264.213 146.752L262.595 127.567C262.361 110.914 262.687 110.68 262.595 99.8911C263.877 83.3606 268.928 65.7998 281.217 66.1172C293.43 66.4331 298.379 83.5509 299.466 99.8911C299.457 100.524 299.148 127.262 299.289 127.543Z" fill="#E8E8E8"/>
<path d="M281.18 98.6302L281.187 98.4609L275.593 99.2948L273.311 101.634C272.044 102.549 271.801 107.157 271.801 107.157V115.706L272.686 117.571L278.934 116.48L281.218 112.953L281.18 110.024V98.6302Z" fill="white"/>
<path d="M281.065 98.6316L281.187 98.4619L286.457 99.2958L288.698 101.635C289.963 102.55 290.165 107.158 290.165 107.158V115.707L289.364 117.572L283.159 116.481L280.954 112.954L281.061 110.025L281.065 98.6316Z" fill="white"/>
<path d="M289.332 113.519C289.315 113.256 286.834 109.361 286.834 109.361L275.565 109.243L272.739 113.259V113.823V114.104V114.385V117.579H289.332C289.332 117.579 289.35 113.783 289.332 113.519Z" fill="#C6C6C6"/>
<path d="M290.085 161.127C290.62 161.765 290.535 162.717 289.896 163.25L283.162 168.881C282.524 169.414 281.571 169.328 281.037 168.69L272.389 158.344C271.856 157.706 271.94 156.754 272.579 156.221L279.314 150.591C279.953 150.057 280.904 150.142 281.438 150.781L290.085 161.127Z" fill="#394963"/>
<path d="M287.597 105.856H281.909H279.739H274.614C274.614 105.856 272.972 108.15 272.704 113.833C272.701 113.866 272.997 113.893 272.997 113.893C273.743 112.843 275.412 110.021 275.412 110.021L280.824 109.995L286.798 110.029C286.798 110.029 288.467 112.863 289.214 113.913C289.214 113.913 289.509 113.865 289.507 113.832C289.239 108.149 287.597 105.856 287.597 105.856Z" fill="#29ABE2"/>
<path d="M274.873 116.242C274.873 118.529 282.41 118.694 282.41 116.221C282.41 114.048 274.873 113.844 274.873 116.242ZM275.529 116.216C275.529 114.582 281.753 114.722 281.753 116.202C281.754 117.888 275.529 117.775 275.529 116.216Z" fill="black"/>
<path d="M277.696 114.965C277.696 114.965 277.714 115.678 278.566 115.668C279.419 115.66 279.305 115.026 279.323 114.965C279.341 114.903 277.696 114.965 277.696 114.965Z" fill="black"/>
<path d="M278.295 115.703L278.075 117.579H279.2L278.901 115.703H278.295Z" fill="black"/>
<path d="M279.059 115.176C279.077 115.176 281.812 116.372 281.812 116.372L281.918 115.669L279.147 114.842L279.059 115.176Z" fill="black"/>
<path d="M277.916 115.176C277.898 115.176 275.083 116.372 275.083 116.372V115.669L277.749 114.842L277.916 115.176Z" fill="black"/>
<path d="M299.465 99.8911C299.465 99.8911 290.248 99.9614 288.207 90.181C286.167 80.4005 284.971 66.9614 284.829 66.6802C284.689 66.3985 298.48 69.7758 299.465 99.8911Z" fill="#E8CDA0"/>
<path d="M262.594 99.8911C262.594 99.8911 271.812 99.9614 273.852 90.181C275.893 80.4005 277.09 66.9614 277.23 66.6802C277.371 66.3985 263.58 69.7758 262.594 99.8911Z" fill="#E8CDA0"/>
<path d="M263.298 138.238C263.298 138.238 262.624 135.97 264.846 136.76C272.164 139.364 289.403 139.927 297.141 136.621C298.764 135.927 298.739 136.337 298.69 137.43C298.654 138.25 297.494 146.752 297.494 146.752C297.494 146.752 284.265 151.818 264.213 146.752L263.298 138.238Z" fill="#E8CDA0"/>
<path d="M289.62 128.172C289.62 128.641 289.123 128.833 288.471 128.833H273.626C272.975 128.833 272.27 128.641 272.27 128.172V123.22C272.27 122.751 272.975 122.269 273.626 122.269H288.471C289.123 122.269 289.62 122.751 289.62 123.22V128.172Z" fill="#E8CDA0"/>
<rect x="315.138" y="15.5537" width="44.0746" height="25" rx="12.5" fill="#969696" fill-opacity="0.3"/>
<path d="M329.445 23.6982L325.193 33.1797H324.339L328.563 23.9238H322.903V23.2266H329.445V23.6982ZM331.093 34.0342H330.347L334.504 23.2266H335.242L331.093 34.0342ZM342.878 33.1797H336.643V32.5508L340.054 28.6816C340.62 28.0299 341.011 27.4922 341.23 27.0684C341.449 26.6445 341.558 26.2321 341.558 25.8311C341.558 25.2021 341.374 24.7054 341.005 24.3408C340.635 23.9717 340.127 23.7871 339.48 23.7871C338.81 23.7871 338.268 24.0013 337.853 24.4297C337.443 24.8581 337.238 25.4141 337.238 26.0977H336.425C336.425 25.5371 336.55 25.0267 336.801 24.5664C337.056 24.1061 337.416 23.7461 337.881 23.4863C338.35 23.222 338.883 23.0898 339.48 23.0898C340.392 23.0898 341.103 23.3291 341.613 23.8076C342.128 24.2861 342.385 24.9378 342.385 25.7627C342.385 26.2275 342.24 26.7357 341.948 27.2871C341.661 27.8385 341.153 28.5267 340.424 29.3516L337.648 32.4893H342.878V33.1797ZM346.227 27.7588H347.075C347.544 27.7588 347.955 27.6768 348.305 27.5127C348.656 27.3441 348.923 27.1162 349.105 26.8291C349.292 26.5374 349.385 26.2025 349.385 25.8242C349.385 25.1862 349.205 24.6872 348.845 24.3271C348.485 23.9671 347.968 23.7871 347.294 23.7871C346.656 23.7871 346.132 23.9762 345.721 24.3545C345.316 24.7282 345.113 25.2227 345.113 25.8379H344.293C344.293 25.3229 344.423 24.8535 344.682 24.4297C344.942 24.0013 345.302 23.6709 345.762 23.4385C346.223 23.2061 346.733 23.0898 347.294 23.0898C348.196 23.0898 348.907 23.3359 349.427 23.8281C349.946 24.3203 350.206 24.9948 350.206 25.8516C350.206 26.3301 350.053 26.7721 349.748 27.1777C349.447 27.5788 349.032 27.8796 348.504 28.0801C349.123 28.2533 349.593 28.5518 349.912 28.9756C350.231 29.3949 350.39 29.8962 350.39 30.4795C350.39 31.3317 350.112 32.0176 349.556 32.5371C349 33.0566 348.258 33.3164 347.328 33.3164C346.735 33.3164 346.191 33.1979 345.694 32.9609C345.202 32.724 344.819 32.3936 344.546 31.9697C344.277 31.5413 344.142 31.0446 344.142 30.4795H344.963C344.963 31.113 345.184 31.6302 345.626 32.0312C346.068 32.4277 346.635 32.626 347.328 32.626C348.034 32.626 348.583 32.446 348.975 32.0859C349.372 31.7214 349.57 31.195 349.57 30.5068C349.57 29.8415 349.356 29.3333 348.927 28.9824C348.504 28.6315 347.877 28.4561 347.048 28.4561H346.227V27.7588Z" fill="black"/>
</g>
<defs>
<linearGradient id="paint0_linear" x1="93.969" y1="118.088" x2="93.9689" y2="22.3504" gradientUnits="userSpaceOnUse">
<stop stop-color="white" stop-opacity="0.8"/>
<stop offset="0.9306" stop-color="white" stop-opacity="0"/>
</linearGradient>
<linearGradient id="paint1_linear" x1="93.7169" y1="118.089" x2="93.7169" y2="22.3504" gradientUnits="userSpaceOnUse">
<stop stop-color="white" stop-opacity="0.8"/>
<stop offset="1" stop-color="white" stop-opacity="0"/>
</linearGradient>
<linearGradient id="paint2_linear" x1="281.001" y1="119.026" x2="281.001" y2="23.2879" gradientUnits="userSpaceOnUse">
<stop stop-color="white" stop-opacity="0.8"/>
<stop offset="0.9306" stop-color="white" stop-opacity="0"/>
</linearGradient>
<linearGradient id="paint3_linear" x1="280.749" y1="119.026" x2="280.749" y2="23.2879" gradientUnits="userSpaceOnUse">
<stop stop-color="white" stop-opacity="0.8"/>
<stop offset="1" stop-color="white" stop-opacity="0"/>
</linearGradient>
<clipPath id="clip0">
<rect width="375" height="375" fill="white" transform="translate(0.137939 0.553711)"/>
</clipPath>
</defs>
</svg>
