<svg width="376" height="376" viewBox="0 0 376 376" fill="none" xmlns="http://www.w3.org/2000/svg">
<g clip-path="url(#clip0)">
<path d="M491.331 424.838L442.317 -787.166L-404.937 -938.487L-438.648 518.9L491.331 424.838Z" fill="#D3D3D3"/>
<path d="M43.1749 124.38L31.0709 124.8L30.9171 131.238L-0.117871 148.606L-0.67334 198.421L42.0724 224.008L85.3699 199.781L85.9207 149.966L43.1749 124.38Z" fill="#1E1E1E"/>
<path d="M29.967 224.428L-12.7773 198.841L-12.2223 149.026L31.0709 124.801L73.8181 150.385L73.2655 200.201L29.967 224.428Z" fill="#303030"/>
<path d="M-3.25754 170.258C-3.68082 173.217 -3.67004 176.038 -2.66504 179.178L-2.6655 179.176L-3.27675 179.559C-3.1216 181.313 -3.33488 182.643 -2.96644 184.371L4.47403 236.33L4.46512 236.333C5.17903 244.575 11.8278 254.805 20.6534 257.724C29.5446 260.663 37.9803 256.876 41.1247 248.844L62.4706 206.688C63.3645 205.233 64.0611 202.77 64.7281 201.124L64.6915 200.109L64.684 200.112C65.7026 196.962 66.4911 195.73 66.9171 192.771C69.3467 175.804 60.1245 158.289 46.0428 149.045L43.6292 166.323C47.4837 170.769 49.1665 176.618 48.3729 182.168C47.5751 187.716 44.2428 191.861 39.8182 193.585L36.9734 212.538C36.0293 217.6 31.3957 220.448 26.4214 218.8C21.4475 217.157 17.1247 211.628 17.6323 206.524L20.4772 187.5C16.6193 183.065 14.9773 177.25 15.784 171.609C16.5926 165.968 19.8734 161.826 24.6003 160.202L27.3359 143.205C12.0279 142.518 -0.81488 153.218 -3.25754 170.258ZM24.9673 229.022C30.079 230.712 33.6036 236.398 32.8386 241.726C32.0768 247.054 27.3139 249.999 22.2059 248.309C17.0965 246.621 13.5734 240.931 14.3351 235.606C15.0982 230.281 19.8589 227.334 24.9673 229.022Z" fill="#191919"/>
<path d="M26.9223 488.858C16.1059 452.909 76.9759 435.674 80.1151 451.954C83.252 468.232 22.6051 479.688 15.6273 453.574C8.65087 427.462 67.171 408.302 72.2715 424.079C77.3851 439.902 17.6134 438.417 11.9912 420.855C11.9912 420.855 4.58587 410.576 19.1804 392.168C29.1245 379.622 24.6226 356.775 22.6135 353.859C15.6803 343.813 4.32712 232.035 24.2073 235.186C50.3096 239.326 18.3901 294.938 24.7459 320.673C26.4559 324.184 36.2565 368.76 36.2565 368.76" stroke="#FF0000" stroke-width="8" stroke-miterlimit="10" stroke-linecap="round"/>
<path d="M37.0099 343.567C37.271 345.279 36.4783 346.82 35.2366 347.012L14.7813 350.158C13.5396 350.347 12.3204 349.115 12.056 347.402L8.18317 322.207C7.91926 320.494 8.7138 318.952 9.95645 318.76L30.4099 315.616C31.6516 315.422 32.8727 316.658 33.1366 318.369L37.0099 343.567Z" fill="#EAEAEA"/>
<path d="M20.6532 257.725C29.5445 260.663 37.9801 256.877 41.1245 248.844L62.4704 206.688C63.3643 205.233 64.0609 202.77 64.7279 201.124L64.6914 200.11L64.6839 200.112C65.7025 196.962 66.4909 195.731 66.917 192.771C69.3465 175.804 60.1243 158.29 46.0426 149.045L43.629 166.324C47.4836 170.77 49.1664 176.619 48.3728 182.168C47.575 187.716 44.2426 191.861 39.8181 193.585L30.0873 232.595C33.8439 240.587 30.4914 248.187 25.6403 248.765C18.6053 249.605 18.1665 256.685 20.6532 257.725Z" fill="#191919"/>
<path d="M30.5855 159.549L30.5827 159.54L30.7421 159.393C30.3535 159.363 30.196 159.25 29.8023 159.247C29.5815 159.246 29.4741 159.238 29.252 159.247L13.0304 158.875L13.3599 171.852C12.5987 174.04 12.1721 176.399 12.158 178.878C12.1365 181.826 12.721 184.614 13.7415 187.134L14.0054 198.433L28.6937 198.726C29.0551 198.752 29.4109 198.791 29.7788 198.792C29.9982 198.797 30.2157 198.768 30.4379 198.76L30.7177 198.765L30.7191 198.747C40.0787 198.255 47.1212 189.824 47.1868 179.238C47.2538 168.841 40.6538 160.124 30.5855 159.549Z" fill="#C41A1A"/>
<path d="M31.8639 178.733C31.9323 167.795 24.0517 158.874 14.2534 158.813C4.45797 158.752 -3.5314 167.572 -3.59796 178.509C-3.665 189.453 4.21563 198.37 14.0106 198.428C23.8056 198.49 31.7978 189.673 31.8639 178.733Z" fill="#E81C1C"/>
<path d="M277.699 99.3176L277.707 99.2937L277.255 99.2229C275.244 98.8193 273.204 98.4968 271.135 98.2591L251.358 95.1387L250.747 98.734C215.464 104.478 187.143 135.372 184.245 174.609C181.776 208.048 198.46 238.2 224.522 253.114L223.763 257.566L245.973 261.311C248.095 261.763 250.252 262.139 252.445 262.402L252.578 262.427V262.417C253.695 262.551 254.815 262.673 255.947 262.757C298.908 265.93 336.458 231.608 339.818 186.102C342.92 144.048 315.739 107.183 277.699 99.3176Z" fill="#282828"/>
<path d="M165.172 171.583C168.535 126.07 206.088 91.7495 249.052 94.9244C292.017 98.0969 324.12 137.565 320.759 183.076C317.396 228.587 279.84 262.909 236.877 259.735C193.914 256.56 161.809 217.095 165.172 171.583Z" fill="#3D3D3D"/>
<path d="M247.765 161.488L177.756 160.419L176.82 187.911L246.829 188.98L248.315 186.14L249.085 164.316L247.765 161.488Z" fill="#898989"/>
<path d="M164.304 112.192C164.304 112.192 161.823 112.998 153.972 112.732C136.546 112.142 136.764 123.487 136.764 123.487L134.206 220.521C133.759 237.475 143.302 240.572 162.145 241.133C166.271 241.253 150.123 183.361 150.123 183.361C151.509 131.003 164.304 112.192 164.304 112.192Z" fill="#F2F2F2"/>
<path d="M214.323 163.338C214.258 159.344 217.482 159.477 213.296 133.619C209.11 107.76 196.883 111.06 196.883 111.06C196.883 111.06 163.678 114.028 155.843 113.617C148.001 113.207 148.161 124.862 148.161 124.862L145.601 221.899C145.156 238.851 153.765 240.038 153.765 240.038C153.765 240.038 174.528 243.524 193.38 243.615C212.231 243.705 211.701 220.09 211.701 220.09C211.701 220.09 214.398 168.86 214.323 163.338ZM169.807 185.881C165.013 189.803 159.19 187.345 156.798 180.391C154.406 173.434 156.355 164.617 161.146 160.699C165.939 156.777 171.769 159.235 174.155 166.189C176.547 173.142 174.601 181.957 169.807 185.881Z" fill="#B7B7B7"/>
<path d="M171.422 169.044C172.594 175.914 169.522 183.291 164.566 185.512C162.208 186.569 159.664 185.642 157.937 182.953C160.982 188.491 165.504 188.405 169.013 186.883C176.172 183.781 177.931 176.222 176.629 168.585C175.323 160.952 168.183 156.753 162.596 159.776C162.375 159.896 162.157 160.004 161.929 160.126C166.31 159.272 170.378 162.917 171.422 169.044Z" fill="#F2F2F2"/>
<path d="M213.848 131.806C209.662 105.945 196.547 110.096 196.547 110.096C196.547 110.096 163.35 113.061 155.507 112.648C147.671 112.237 147.828 123.894 147.828 123.894L145.27 220.928C144.828 237.88 152.099 240.785 152.099 240.785C152.099 240.785 174.448 244.835 193.302 244.924C212.152 245.012 212.831 218.392 212.831 218.392C212.831 218.392 218.036 157.666 213.848 131.806ZM210.057 213.682C210.057 213.682 209.447 237.636 192.482 237.557C175.523 237.474 155.413 233.828 155.413 233.828C155.413 233.828 148.866 231.216 149.262 215.965L151.571 128.649C151.571 128.649 151.428 118.157 158.48 118.526C165.534 118.899 195.407 116.231 195.407 116.231C195.407 116.231 207.207 112.498 210.979 135.766C214.751 159.035 210.057 213.682 210.057 213.682Z" fill="#707070"/>
<path d="M235.881 103.738C232.299 103.685 229.936 106.368 229.882 110.003C229.83 113.459 231.895 116.208 235.495 116.262C239.04 116.315 241.488 113.94 241.548 109.962C241.598 106.614 239.606 103.794 235.881 103.738ZM235.776 105.915C237.666 105.943 238.682 107.831 238.649 110.009C238.614 112.366 237.525 114.114 235.671 114.087C233.836 114.059 232.745 112.368 232.78 109.993C232.816 107.635 233.922 105.887 235.776 105.915ZM243.251 116.18L246.005 116.222L246.078 111.344L250.434 111.41L250.467 109.178L246.112 109.112L246.153 106.341L250.815 106.411L250.849 104.161L243.433 104.05L243.251 116.18ZM252.743 116.323L255.496 116.364L255.569 111.487L259.925 111.552L259.958 109.32L255.603 109.255L255.644 106.483L260.306 106.553L260.34 104.303L252.924 104.192L252.743 116.323Z" fill="#FCFCFC"/>
<path d="M270.329 179.69C271.012 180.069 272.379 180.433 273.765 180.436C277.095 180.444 278.666 178.72 278.67 176.686C278.675 174.976 277.669 173.857 275.529 173.06C273.965 172.463 273.281 172.119 273.283 171.345C273.285 170.715 273.862 170.176 275.05 170.179C276.238 170.182 277.101 170.526 277.587 170.761L278.204 168.549C277.485 168.223 276.477 167.933 275.109 167.929C272.247 167.922 270.516 169.502 270.511 171.572C270.506 173.336 271.818 174.455 273.832 175.162C275.289 175.688 275.864 176.121 275.862 176.877C275.86 177.669 275.193 178.189 273.933 178.186C272.763 178.184 271.63 177.803 270.893 177.423L270.329 179.69ZM282.857 180.278L285.611 180.285L285.634 170.457L288.946 170.464L288.952 168.16L279.628 168.138L279.622 170.442L282.88 170.45L282.857 180.278ZM295.385 177.194L296.313 180.31L299.265 180.317L295.532 168.176L291.932 168.168L288.195 180.291L291.039 180.298L291.911 177.186L295.385 177.194ZM292.311 175.135L293.038 172.562C293.237 171.861 293.42 170.943 293.601 170.224L293.637 170.224C293.816 170.944 294.029 171.845 294.244 172.565L294.993 175.141L292.311 175.135ZM300.89 180.321L303.608 180.328L303.619 175.558L304.447 175.56C305.563 175.58 306.084 175.996 306.404 177.508C306.761 179.003 307.046 179.994 307.244 180.336L310.052 180.343C309.819 179.875 309.445 178.29 309.07 176.921C308.766 175.804 308.3 174.993 307.455 174.649L307.455 174.595C308.5 174.219 309.601 173.16 309.605 171.612C309.607 170.496 309.213 169.649 308.495 169.071C307.632 168.385 306.373 168.112 304.573 168.108C303.115 168.104 301.801 168.209 300.918 168.351L300.89 180.321ZM303.632 170.23C303.83 170.194 304.208 170.141 304.874 170.143C306.134 170.164 306.889 170.724 306.886 171.84C306.883 172.902 306.072 173.584 304.704 173.58L303.624 173.578L303.632 170.23ZM313.9 180.352L316.654 180.359L316.677 170.531L319.989 170.539L319.995 168.235L310.671 168.213L310.665 170.517L313.923 170.524L313.9 180.352Z" fill="#FCFCFC"/>
<path d="M278.852 127.621C275.27 127.646 272.966 130.38 272.992 134.016C273.015 137.472 275.14 140.175 278.74 140.15C282.286 140.126 284.681 137.697 284.654 133.719C284.631 130.371 282.578 127.595 278.852 127.621ZM278.795 129.8C280.685 129.786 281.742 131.651 281.757 133.829C281.773 136.187 280.723 137.959 278.869 137.971C277.033 137.984 275.906 136.318 275.889 133.942C275.873 131.584 276.941 129.812 278.795 129.8ZM289.013 139.881L288.988 136.227C288.974 134.247 288.926 132.538 288.843 130.936L288.897 130.918C289.501 132.336 290.304 133.896 291.033 135.187L293.657 139.849L296.537 139.83L296.453 127.698L293.933 127.715L293.958 131.261C293.97 133.079 294.036 134.717 294.227 136.317L294.173 136.318C293.623 134.953 292.893 133.446 292.164 132.173L289.613 127.745L286.409 127.767L286.493 139.899L289.013 139.881Z" fill="#FCFCFC"/>
<rect x="315.138" y="15.7314" width="44.0746" height="25" rx="12.5" fill="#969696" fill-opacity="0.3"/>
<path d="M328.42 28.75C328.128 29.1784 327.766 29.5111 327.333 29.748C326.9 29.9805 326.43 30.0967 325.924 30.0967C325.359 30.0967 324.86 29.9508 324.427 29.6592C323.994 29.3675 323.659 28.9642 323.422 28.4492C323.186 27.9342 323.067 27.3714 323.067 26.7607C323.067 26.1045 323.192 25.5075 323.443 24.9697C323.698 24.432 324.051 24.015 324.503 23.7188C324.958 23.418 325.482 23.2676 326.075 23.2676C327.073 23.2676 327.85 23.6185 328.406 24.3203C328.962 25.0176 329.24 26.0088 329.24 27.2939V28.0322C329.24 29.8278 328.857 31.1768 328.091 32.0791C327.326 32.9814 326.157 33.4326 324.585 33.4326H324.434L324.441 32.7217H324.728C325.918 32.7035 326.822 32.3662 327.442 31.71C328.062 31.0537 328.388 30.0671 328.42 28.75ZM326.027 29.3926C326.574 29.3926 327.064 29.2308 327.497 28.9072C327.934 28.5791 328.244 28.1553 328.426 27.6357V27.1641C328.426 26.1523 328.214 25.3685 327.791 24.8125C327.371 24.252 326.804 23.9717 326.089 23.9717C325.441 23.9717 324.91 24.2337 324.496 24.7578C324.081 25.2773 323.874 25.9336 323.874 26.7266C323.874 27.4876 324.072 28.1234 324.468 28.6338C324.869 29.1396 325.389 29.3926 326.027 29.3926ZM331.092 34.2119H330.347L334.504 23.4043H335.242L331.092 34.2119ZM342.878 33.3574H336.643V32.7285L340.054 28.8594C340.619 28.2077 341.011 27.6699 341.23 27.2461C341.449 26.8223 341.558 26.4098 341.558 26.0088C341.558 25.3799 341.374 24.8831 341.005 24.5186C340.635 24.1494 340.127 23.9648 339.48 23.9648C338.81 23.9648 338.268 24.179 337.853 24.6074C337.443 25.0358 337.238 25.5918 337.238 26.2754H336.424C336.424 25.7148 336.55 25.2044 336.8 24.7441C337.056 24.2839 337.416 23.9238 337.88 23.6641C338.35 23.3997 338.883 23.2676 339.48 23.2676C340.392 23.2676 341.102 23.5068 341.613 23.9854C342.128 24.4639 342.385 25.1156 342.385 25.9404C342.385 26.4053 342.24 26.9134 341.948 27.4648C341.661 28.0163 341.153 28.7044 340.423 29.5293L337.648 32.667H342.878V33.3574ZM346.227 27.9365H347.075C347.544 27.9365 347.954 27.8545 348.305 27.6904C348.656 27.5218 348.923 27.2939 349.105 27.0068C349.292 26.7152 349.385 26.3802 349.385 26.002C349.385 25.3639 349.205 24.8649 348.845 24.5049C348.485 24.1449 347.968 23.9648 347.294 23.9648C346.656 23.9648 346.131 24.154 345.721 24.5322C345.316 24.9059 345.113 25.4004 345.113 26.0156H344.293C344.293 25.5007 344.422 25.0312 344.682 24.6074C344.942 24.179 345.302 23.8486 345.762 23.6162C346.223 23.3838 346.733 23.2676 347.294 23.2676C348.196 23.2676 348.907 23.5137 349.426 24.0059C349.946 24.498 350.206 25.1725 350.206 26.0293C350.206 26.5078 350.053 26.9499 349.748 27.3555C349.447 27.7565 349.032 28.0573 348.504 28.2578C349.123 28.431 349.593 28.7295 349.912 29.1533C350.231 29.5726 350.39 30.0739 350.39 30.6572C350.39 31.5094 350.112 32.1953 349.556 32.7148C349 33.2344 348.257 33.4941 347.328 33.4941C346.735 33.4941 346.191 33.3757 345.694 33.1387C345.202 32.9017 344.819 32.5713 344.546 32.1475C344.277 31.7191 344.142 31.2223 344.142 30.6572H344.963C344.963 31.2907 345.184 31.8079 345.626 32.209C346.068 32.6055 346.635 32.8037 347.328 32.8037C348.034 32.8037 348.583 32.6237 348.975 32.2637C349.372 31.8991 349.57 31.3727 349.57 30.6846C349.57 30.0192 349.356 29.5111 348.927 29.1602C348.504 28.8092 347.877 28.6338 347.047 28.6338H346.227V27.9365Z" fill="black"/>
</g>
<defs>
<clipPath id="clip0">
<rect width="375" height="375" fill="white" transform="translate(0.137939 0.731445)"/>
</clipPath>
</defs>
</svg>
