<svg width="376" height="376" viewBox="0 0 376 376" fill="none" xmlns="http://www.w3.org/2000/svg">
<g clip-path="url(#clip0)">
<path d="M245.425 264.454C245.15 264.922 244.933 265.427 244.785 265.961C244.471 265.977 243.913 265.99 243.147 265.949" stroke="#FF0000" stroke-width="2" stroke-miterlimit="10"/>
<path d="M240.793 265.7C235.732 264.917 226.908 262.024 218.276 251.837C217.683 251.04 217.056 250.273 216.404 249.527C215.106 247.9 214.037 246.832 213.165 246.238C206.537 240.294 197.788 236.663 188.184 236.637C167.425 236.582 150.551 253.364 150.495 274.122C150.439 294.882 167.222 311.756 187.981 311.812C197.511 311.838 206.213 308.308 212.854 302.484C213.829 301.873 215.06 300.663 216.602 298.697C216.612 298.686 216.621 298.675 216.63 298.664C217.066 298.156 217.488 297.638 217.896 297.109C227.437 285.805 237.211 283.38 242.006 282.915" stroke="#FF0000" stroke-width="2" stroke-miterlimit="10" stroke-dasharray="7.07 5.05"/>
<path d="M243.188 282.83C243.984 282.796 244.546 282.819 244.827 282.837C244.999 283.362 245.238 283.857 245.535 284.313" stroke="#FF0000" stroke-width="2" stroke-miterlimit="10"/>
<path d="M247.162 286.02C248.23 286.792 249.551 287.252 250.981 287.255L318.62 287.441C326.294 287.461 332.009 282.307 332.028 275.147L332.03 274.483C331.789 265.787 325.37 261.474 318.691 261.455L251.051 261.272C249.078 261.266 247.311 262.128 246.119 263.489" stroke="#FF0000" stroke-width="2" stroke-miterlimit="10" stroke-dasharray="7.09 5.06"/>
<path d="M-13.7433 272.829L383.625 275.462" stroke="#FF0000" stroke-width="2" stroke-miterlimit="10" stroke-dasharray="5 5"/>
<path d="M319.004 283.21C324.01 283.21 328.067 279.152 328.067 274.147C328.067 269.142 324.01 265.084 319.004 265.084C313.999 265.084 309.942 269.142 309.942 274.147C309.942 279.152 313.999 283.21 319.004 283.21Z" stroke="#FF0000" stroke-width="2" stroke-miterlimit="10" stroke-dasharray="7 5"/>
<path d="M217.478 223.465C217.672 223.972 217.932 224.456 218.257 224.904C218.073 225.159 217.736 225.605 217.228 226.178" stroke="#FF0000" stroke-width="2" stroke-miterlimit="10"/>
<path d="M215.566 227.865C211.801 231.335 204.041 236.435 190.693 236.839C189.703 236.806 188.711 236.821 187.72 236.866C185.64 236.867 184.138 237.039 183.13 237.35C174.351 238.83 166.06 243.411 160.056 250.907C147.077 267.109 149.691 290.764 165.892 303.742C182.093 316.721 205.748 314.107 218.728 297.906C224.685 290.47 227.348 281.462 226.928 272.639C227.058 271.496 226.879 269.778 226.302 267.347C226.299 267.334 226.295 267.319 226.292 267.305C226.166 266.649 226.025 265.995 225.864 265.345C222.967 250.841 227.161 241.683 229.784 237.643" stroke="#FF0000" stroke-width="2" stroke-miterlimit="10" stroke-dasharray="7.07 5.05"/>
<path d="M230.457 236.664C230.926 236.02 231.293 235.596 231.483 235.386C232.001 235.578 232.537 235.701 233.078 235.752" stroke="#FF0000" stroke-width="2" stroke-miterlimit="10"/>
<path d="M235.428 235.543C236.699 235.188 237.879 234.441 238.774 233.326L281.062 180.536C285.86 174.546 285.389 166.865 279.802 162.389L279.285 161.975C272.332 156.745 264.959 159.077 260.783 164.29L218.495 217.081C217.262 218.622 216.835 220.54 217.157 222.32" stroke="#FF0000" stroke-width="2" stroke-miterlimit="10" stroke-dasharray="7.09 5.06"/>
<path d="M271.192 181.492C276.197 181.492 280.255 177.434 280.255 172.429C280.255 167.424 276.197 163.366 271.192 163.366C266.187 163.366 262.129 167.424 262.129 172.429C262.129 177.434 266.187 181.492 271.192 181.492Z" stroke="#FF0000" stroke-width="2" stroke-miterlimit="10" stroke-dasharray="7 5"/>
<path d="M132.471 263.368C132.745 263.837 132.96 264.343 133.107 264.877C133.421 264.893 133.98 264.908 134.745 264.87" stroke="#FF0000" stroke-width="2" stroke-miterlimit="10"/>
<path d="M137.1 264.628C142.162 263.858 150.995 260.989 159.654 250.825C160.249 250.03 160.879 249.265 161.533 248.521C162.834 246.898 163.907 245.833 164.781 245.242C171.425 239.316 180.183 235.708 189.788 235.708C210.547 235.708 227.376 252.537 227.376 273.296C227.376 294.055 210.548 310.884 189.788 310.884C180.259 310.884 171.565 307.331 164.939 301.487C163.966 300.874 162.738 299.661 161.2 297.689C161.191 297.679 161.182 297.667 161.173 297.657C160.739 297.148 160.318 296.629 159.911 296.097C150.403 284.768 140.634 282.316 135.841 281.838" stroke="#FF0000" stroke-width="2" stroke-miterlimit="10" stroke-dasharray="7.07 5.05"/>
<path d="M134.659 281.751C133.863 281.715 133.302 281.737 133.02 281.754C132.847 282.278 132.606 282.774 132.308 283.229" stroke="#FF0000" stroke-width="2" stroke-miterlimit="10"/>
<path d="M130.676 284.864C129.605 285.634 128.284 286.023 126.854 286.023H59.2134C51.5399 286.023 46.0354 280.986 46.0354 273.827V273.164C46.0354 264.467 52.6321 260.171 59.3118 260.17L126.903 260.171C128.876 260.171 130.615 261.004 131.803 262.369" stroke="#FF0000" stroke-width="2" stroke-miterlimit="10" stroke-dasharray="7.09 5.06"/>
<path d="M59.317 282.273C64.3222 282.273 68.3798 278.216 68.3798 273.21C68.3798 268.205 64.3222 264.147 59.317 264.147C54.3117 264.147 50.2542 268.205 50.2542 273.21C50.2542 278.216 54.3117 282.273 59.317 282.273Z" stroke="#FF0000" stroke-width="2" stroke-miterlimit="10" stroke-dasharray="7 5"/>
<path d="M160.871 223.876C160.685 224.386 160.434 224.876 160.119 225.331C160.306 225.582 160.653 226.022 161.172 226.586" stroke="#FF0000" stroke-width="2" stroke-miterlimit="10"/>
<path d="M162.865 228.24C166.694 231.639 174.55 236.591 187.903 236.743C188.893 236.69 189.885 236.687 190.876 236.713C192.957 236.674 194.46 236.82 195.474 237.112C204.28 238.427 212.656 242.849 218.802 250.23C232.083 266.185 229.916 289.886 213.963 303.167C198.009 316.449 174.307 314.282 161.026 298.328C154.929 291.005 152.097 282.049 152.349 273.22C152.197 272.08 152.345 270.359 152.876 267.917C152.879 267.903 152.881 267.888 152.886 267.875C152.998 267.216 153.128 266.558 153.276 265.907C155.899 251.351 151.533 242.275 148.834 238.285" stroke="#FF0000" stroke-width="2" stroke-miterlimit="10" stroke-dasharray="7.07 5.05"/>
<path d="M148.143 237.319C147.662 236.684 147.286 236.266 147.092 236.061C146.579 236.263 146.045 236.395 145.504 236.457" stroke="#FF0000" stroke-width="2" stroke-miterlimit="10"/>
<path d="M143.151 236.292C141.874 235.962 140.679 235.237 139.764 234.137L96.4879 182.154C91.5786 176.255 91.9049 168.567 97.4066 163.986L97.9161 163.562C104.769 158.202 112.184 160.395 116.458 165.529L159.734 217.513C160.996 219.029 161.46 220.94 161.17 222.725" stroke="#FF0000" stroke-width="2" stroke-miterlimit="10" stroke-dasharray="7.09 5.06"/>
<path d="M106.192 182.898C111.197 182.898 115.255 178.841 115.255 173.835C115.255 168.83 111.197 164.772 106.192 164.772C101.187 164.772 97.1292 168.83 97.1292 173.835C97.1292 178.841 101.187 182.898 106.192 182.898Z" stroke="#ED1C24" stroke-width="2" stroke-miterlimit="10" stroke-dasharray="7 5"/>
<path d="M114.185 71.3843C114.185 71.3843 129.291 81.7868 131.345 82.1979C133.399 82.6089 137.353 86.2436 137.767 86.2708C138.182 86.298 147.186 90.768 149.369 91.3263C151.552 91.8846 155.138 94.3375 162.228 94.1055C169.318 93.873 190.881 97.2189 193.367 97.3807C195.855 97.5424 206.878 98.6758 208.482 99.6129C210.086 100.549 212.989 102.82 213.185 104.081C213.38 105.342 213.519 111.732 214.177 114.411C214.835 117.089 221.146 137.637 221.281 141.947C221.416 146.256 219.008 149.152 217.261 150.425C215.513 151.698 199.357 163.045 196.973 163.444C194.589 163.844 201.044 147.821 201.044 147.821C201.044 147.821 202.089 138.178 201.153 135.482C200.219 132.785 182.93 153.301 182.886 153.992C182.84 154.683 201.557 166.022 195.329 173.807C190.698 179.598 188.588 179.334 188.588 179.334C188.588 179.334 178.261 176.026 177.864 175.722C177.467 175.419 175.298 172.503 173.797 172.128C172.295 171.753 170.01 170.634 168.193 168.712C166.375 166.79 162.656 155.727 160.149 153.761C157.64 151.794 150.586 145.092 148.795 142.756C147.007 140.42 140.524 135.559 139.701 133.286C138.878 131.012 138.824 129.703 136.627 127.23C134.429 124.758 133.507 124.004 131.462 123.454C129.417 122.906 119.606 120.186 117.33 118.928C115.053 117.671 99.4505 112.32 98.8983 112.284C98.3451 112.248 34.3036 87.0766 34.3036 87.0766L57.3516 39.8838L114.185 71.3843Z" fill="url(#paint0_linear)"/>
<path d="M189.485 313.521C211.162 313.521 228.734 295.949 228.734 274.272C228.734 252.596 211.162 235.023 189.485 235.023C167.809 235.023 150.236 252.596 150.236 274.272C150.236 295.949 167.809 313.521 189.485 313.521Z" fill="#A5A5A5"/>
<path d="M180.636 214.709C180.636 214.709 182.32 230.109 164.012 244.389C145.704 258.671 189.472 247.546 189.472 247.546L190.604 212.429H181.836L180.636 214.709Z" fill="#A5A5A5"/>
<path d="M198.298 214.709C198.298 214.709 196.615 230.109 214.921 244.389C233.229 258.671 189.462 247.546 189.462 247.546L188.331 212.429H197.097L198.298 214.709Z" fill="#A5A5A5"/>
<path d="M176.348 138.496C176.348 132.116 182.91 124.304 188.931 124.304H189.624C198.704 124.772 203.537 131.572 203.537 138.496V208.606C203.537 212.318 200.216 215.241 196.546 215.241H182.703C179.033 215.241 176.349 212.318 176.349 208.606L176.348 138.496Z" fill="#5E5E5E"/>
<path d="M189.438 304.201C205.952 304.201 219.34 290.813 219.34 274.299C219.34 257.785 205.952 244.397 189.438 244.397C172.924 244.397 159.537 257.785 159.537 274.299C159.537 290.813 172.924 304.201 189.438 304.201Z" fill="#727272"/>
<path d="M209.864 160.46C209.864 160.46 206.875 163.275 200.489 162.584C193.848 161.866 181.192 161.866 180.098 159.537C179.949 159.221 178.148 158.131 178.029 155.475C177.911 152.818 181.53 149.823 182.91 149.696C184.291 149.57 194.004 150.836 194.004 150.836L201.66 142.819L203.186 136.7L220.11 147.071L209.864 160.46Z" fill="#F9DBBD"/>
<path d="M189.907 151.1C197.352 151.1 203.387 145.065 203.387 137.62C203.387 130.176 197.352 124.141 189.907 124.141C182.462 124.141 176.427 130.176 176.427 137.62C176.427 145.065 182.462 151.1 189.907 151.1Z" fill="#2D2D2D"/>
<path d="M189.907 148.092C195.69 148.092 200.378 143.404 200.378 137.621C200.378 131.838 195.69 127.149 189.907 127.149C184.124 127.149 179.436 131.838 179.436 137.621C179.436 143.404 184.124 148.092 189.907 148.092Z" fill="#3F3F3F"/>
<path d="M92.1487 152.06L89.1571 146.597C55.3439 172.985 32.0812 212.259 26.7375 257.037L22.5839 256.692L28.4615 270.834L36.1509 257.886L32.8579 257.544C38.0123 214.872 60.075 177.414 92.1487 152.06Z" fill="url(#paint1_linear)"/>
<path d="M89.6438 157.197C94.22 157.197 97.9298 153.487 97.9298 148.911C97.9298 144.335 94.22 140.625 89.6438 140.625C85.0675 140.625 81.3577 144.335 81.3577 148.911C81.3577 153.487 85.0675 157.197 89.6438 157.197Z" fill="#FF1300"/>
<path d="M289.269 152.06L292.26 146.597C326.074 172.984 349.336 212.259 354.679 257.037L358.832 256.692L352.955 270.834L344.514 257.886L348.558 257.544C343.405 214.872 321.342 177.414 289.269 152.06Z" fill="url(#paint2_linear)"/>
<path d="M291.773 157.196C296.349 157.196 300.059 153.487 300.059 148.911C300.059 144.335 296.349 140.625 291.773 140.625C287.197 140.625 283.488 144.335 283.488 148.911C283.488 153.487 287.197 157.196 291.773 157.196Z" fill="#FF1300"/>
<path d="M281.676 143.298L274.03 130.704L272.289 133.358C248.202 119.609 220.325 111.74 190.602 111.74C160.455 111.74 134.549 117.958 110.229 132.075L108.447 129.359L98.4581 143.829L113.041 141.811L111.257 139.091C134.606 125.606 161.699 117.88 190.602 117.88C219.079 117.88 245.798 125.384 268.912 138.504L267.091 141.28L281.676 143.298Z" fill="#85FF97"/>
<path d="M190.487 122.727C195.064 122.727 198.773 119.018 198.773 114.441C198.773 109.865 195.064 106.155 190.487 106.155C185.911 106.155 182.201 109.865 182.201 114.441C182.201 119.018 185.911 122.727 190.487 122.727Z" fill="#477B4F"/>
<path d="M90.1248 149.995H88.2576V154.159H85.9138V142.784H90.1404C91.4841 142.784 92.5206 143.084 93.2498 143.683C93.9789 144.282 94.3435 145.128 94.3435 146.222C94.3435 146.998 94.1742 147.646 93.8357 148.167C93.5024 148.683 92.9945 149.094 92.3123 149.401L94.7732 154.05V154.159H92.2576L90.1248 149.995ZM88.2576 148.097H90.1482C90.7367 148.097 91.1925 147.948 91.5154 147.651C91.8383 147.349 91.9998 146.935 91.9998 146.409C91.9998 145.873 91.8461 145.451 91.5388 145.144C91.2367 144.836 90.7706 144.683 90.1404 144.683H88.2576V148.097Z" fill="white"/>
<path d="M295.551 150.49H291.051V155.139H288.707V143.764H296.113V145.662H291.051V148.6H295.551V150.49Z" fill="white"/>
<path d="M195.301 120.686H192.957L188.394 113.201V120.686H186.051V109.311H188.394L192.965 116.811V109.311H195.301V120.686Z" fill="white"/>
<rect x="315.567" y="15.5537" width="45.0996" height="25" rx="12.5" fill="#969696" fill-opacity="0.3"/>
<path d="M323.678 33.1797H322.857V24.2109L320.15 25.2158V24.4502L323.541 23.1924H323.678V33.1797ZM333.638 29.0303C333.638 30.4339 333.38 31.5003 332.865 32.2295C332.35 32.9541 331.591 33.3164 330.589 33.3164C329.604 33.3164 328.85 32.9609 328.326 32.25C327.802 31.5345 327.533 30.4954 327.52 29.1328V27.3486C327.52 25.9495 327.779 24.89 328.299 24.1699C328.818 23.4499 329.577 23.0898 330.575 23.0898C331.56 23.0898 332.312 23.4385 332.831 24.1357C333.351 24.8285 333.619 25.8516 333.638 27.2051V29.0303ZM332.817 27.2461C332.817 26.1068 332.631 25.2454 332.257 24.6621C331.888 24.0788 331.327 23.7871 330.575 23.7871C329.837 23.7871 329.281 24.0719 328.907 24.6416C328.534 25.2113 328.342 26.0521 328.333 27.1641V29.1191C328.333 30.2539 328.524 31.1221 328.907 31.7236C329.295 32.3252 329.855 32.626 330.589 32.626C331.318 32.626 331.869 32.332 332.243 31.7441C332.621 31.1562 332.813 30.2949 332.817 29.1602V27.2461ZM335.415 34.0342H334.67L338.826 23.2266H339.564L335.415 34.0342ZM347.2 33.1797H340.966V32.5508L344.377 28.6816C344.942 28.0299 345.334 27.4922 345.553 27.0684C345.771 26.6445 345.881 26.2321 345.881 25.8311C345.881 25.2021 345.696 24.7054 345.327 24.3408C344.958 23.9717 344.45 23.7871 343.803 23.7871C343.133 23.7871 342.59 24.0013 342.176 24.4297C341.766 24.8581 341.561 25.4141 341.561 26.0977H340.747C340.747 25.5371 340.872 25.0267 341.123 24.5664C341.378 24.1061 341.738 23.7461 342.203 23.4863C342.673 23.222 343.206 23.0898 343.803 23.0898C344.714 23.0898 345.425 23.3291 345.936 23.8076C346.451 24.2861 346.708 24.9378 346.708 25.7627C346.708 26.2275 346.562 26.7357 346.271 27.2871C345.983 27.8385 345.475 28.5267 344.746 29.3516L341.971 32.4893H347.2V33.1797ZM350.55 27.7588H351.397C351.867 27.7588 352.277 27.6768 352.628 27.5127C352.979 27.3441 353.245 27.1162 353.428 26.8291C353.615 26.5374 353.708 26.2025 353.708 25.8242C353.708 25.1862 353.528 24.6872 353.168 24.3271C352.808 23.9671 352.291 23.7871 351.616 23.7871C350.978 23.7871 350.454 23.9762 350.044 24.3545C349.638 24.7282 349.436 25.2227 349.436 25.8379H348.615C348.615 25.3229 348.745 24.8535 349.005 24.4297C349.265 24.0013 349.625 23.6709 350.085 23.4385C350.545 23.2061 351.056 23.0898 351.616 23.0898C352.519 23.0898 353.229 23.3359 353.749 23.8281C354.269 24.3203 354.528 24.9948 354.528 25.8516C354.528 26.3301 354.376 26.7721 354.07 27.1777C353.77 27.5788 353.355 27.8796 352.826 28.0801C353.446 28.2533 353.915 28.5518 354.234 28.9756C354.553 29.3949 354.713 29.8962 354.713 30.4795C354.713 31.3317 354.435 32.0176 353.879 32.5371C353.323 33.0566 352.58 33.3164 351.65 33.3164C351.058 33.3164 350.513 33.1979 350.017 32.9609C349.524 32.724 349.142 32.3936 348.868 31.9697C348.599 31.5413 348.465 31.0446 348.465 30.4795H349.285C349.285 31.113 349.506 31.6302 349.948 32.0312C350.39 32.4277 350.958 32.626 351.65 32.626C352.357 32.626 352.906 32.446 353.298 32.0859C353.694 31.7214 353.893 31.195 353.893 30.5068C353.893 29.8415 353.678 29.3333 353.25 28.9824C352.826 28.6315 352.2 28.4561 351.37 28.4561H350.55V27.7588Z" fill="black"/>
</g>
<defs>
<linearGradient id="paint0_linear" x1="210.92" y1="146.567" x2="45.4518" y2="63.5982" gradientUnits="userSpaceOnUse">
<stop stop-color="#F9DBBD"/>
<stop offset="0.8545" stop-color="#F9DBBD" stop-opacity="0.1455"/>
<stop offset="1" stop-color="#F9DBBD" stop-opacity="0"/>
</linearGradient>
<linearGradient id="paint1_linear" x1="32.1148" y1="242.858" x2="94.951" y2="135.079" gradientUnits="userSpaceOnUse">
<stop stop-color="#FF1300"/>
<stop offset="1" stop-color="#CA190B" stop-opacity="0"/>
</linearGradient>
<linearGradient id="paint2_linear" x1="349.022" y1="243.022" x2="286.186" y2="135.242" gradientUnits="userSpaceOnUse">
<stop stop-color="#FF1301"/>
<stop offset="1" stop-color="#CA190B" stop-opacity="0"/>
</linearGradient>
<clipPath id="clip0">
<rect width="375" height="375" fill="white" transform="translate(0.56665 0.553711)"/>
</clipPath>
</defs>
</svg>
