<svg width="376" height="376" viewBox="0 0 376 376" fill="none" xmlns="http://www.w3.org/2000/svg">
<g clip-path="url(#clip0)">
<path d="M378.419 -5.3623H-5.01855V379.95H378.419V-5.3623Z" fill="#F4F4F4"/>
<path d="M27.3252 187.708C28.7314 187.817 27.3252 154.207 27.3252 154.207L33.8877 151.682C33.8877 151.682 33.0655 144.637 35.8564 146.201C38.6474 147.766 45.1377 148.86 45.1377 148.86L50.7627 164.052V187.763L27.3252 187.708Z" fill="#F9DBBD"/>
<path d="M154.825 75.2627H148.262V206.513H154.825V75.2627Z" fill="#969696"/>
<path d="M206.821 177.365L209.981 171.624L89.9035 105.527L86.7436 111.267L206.821 177.365Z" fill="#969696"/>
<path d="M206.951 111.981L203.578 106.362L86.055 176.912L89.4281 182.531L206.951 111.981Z" fill="#969696"/>
<path d="M151.492 156.29C159.572 156.29 166.121 149.74 166.121 141.66C166.121 133.58 159.572 127.03 151.492 127.03C143.412 127.03 136.862 133.58 136.862 141.66C136.862 149.74 143.412 156.29 151.492 156.29Z" fill="black"/>
<path d="M149.857 31.1416C87.9846 31.1416 37.8264 81.2993 37.8264 143.172C37.8264 205.045 87.9841 255.202 149.857 255.202C211.728 255.202 261.887 205.045 261.887 143.172C261.887 81.2993 211.729 31.1416 149.857 31.1416ZM149.857 239.519C96.6452 239.519 53.5094 196.383 53.5094 143.171C53.5094 89.9604 96.6457 46.8246 149.857 46.8246C203.068 46.8246 246.204 89.9608 246.204 143.172C246.204 196.383 203.068 239.519 149.857 239.519Z" fill="black" stroke="black" stroke-miterlimit="10"/>
<path d="M130.462 48.7781C130.925 48.7134 144.108 47.2026 144.329 57.8967C144.549 68.5907 144.584 76.1264 144.584 76.1264C144.584 76.1264 144.086 84.0422 149.178 84.037C149.667 84.037 153.365 84.0422 153.782 84.0422C158.014 84.0422 158.138 80.0953 158.102 75.9745C158.062 71.5026 158.336 58.0706 158.336 58.0706C158.336 58.0706 159.3 48.9103 169.367 48.9103C179.696 48.9098 167.207 45.292 167.207 45.292L134.718 45.4968L130.462 48.7781Z" fill="black" stroke="black" stroke-miterlimit="10"/>
<path d="M57.8449 114.778C58.0212 114.345 63.0147 102.28 72.386 107.436C81.7577 112.592 88.301 116.329 88.301 116.329C88.301 116.329 94.908 120.717 97.4491 116.306C97.6933 115.883 99.5468 112.683 99.7549 112.322C101.872 108.656 98.5151 106.575 94.9282 104.546C91.0357 102.345 79.5396 95.3913 79.5396 95.3913C79.5396 95.3913 70.713 89.9215 76.324 81.5622C82.0587 73.0188 72.9091 81.3194 72.9091 81.3194L56.8413 109.558L57.8449 114.778Z" fill="black" stroke="black" stroke-miterlimit="10"/>
<path d="M78.8946 208.259C78.6063 207.889 70.6549 197.532 79.8058 191.995C88.9577 186.457 95.4649 182.659 95.4649 182.659C95.4649 182.659 102.569 179.131 100.019 174.725C99.7746 174.301 97.93 171.096 97.7224 170.736C95.606 167.069 92.125 168.936 88.5747 171.028C84.7225 173.298 72.9522 179.777 72.9522 179.777C72.9522 179.777 63.8603 183.091 58.8269 174.373C53.6613 165.427 57.4507 178.484 57.4507 178.484L73.8719 206.518L78.8946 208.259Z" fill="black" stroke="black" stroke-miterlimit="10"/>
<path d="M173.207 236.601C172.742 236.667 159.797 238.373 159.577 227.68C159.357 216.986 159.321 209.45 159.321 209.45C159.321 209.45 159.819 201.534 154.728 201.539C154.239 201.539 150.541 201.534 150.124 201.534C145.892 201.534 145.767 205.481 145.803 209.602C145.844 214.073 145.569 227.507 145.569 227.507C145.569 227.507 143.619 237.747 133.32 237.688C122.991 237.63 136.698 240.285 136.698 240.285L169.188 240.08L173.207 236.601Z" fill="black" stroke="black" stroke-miterlimit="10"/>
<path d="M242.315 170.797C242.14 171.231 237.147 183.296 227.774 178.139C218.403 172.982 211.86 169.245 211.86 169.245C211.86 169.245 205.253 164.857 202.712 169.269C202.467 169.692 200.614 172.892 200.406 173.253C198.288 176.918 201.645 179 205.233 181.029C209.125 183.229 220.621 190.183 220.621 190.183C220.621 190.183 228.119 196.844 223.086 205.562C217.922 214.507 227.252 204.255 227.252 204.255L243.319 176.017L242.315 170.797Z" fill="black" stroke="black" stroke-miterlimit="10"/>
<path d="M219.395 76.3809C219.683 76.7502 227.634 87.1068 218.483 92.6441C209.332 98.1824 202.824 101.98 202.824 101.98C202.824 101.98 195.72 105.508 198.27 109.914C198.514 110.338 200.36 113.542 200.567 113.903C202.683 117.569 206.164 115.703 209.715 113.611C213.567 111.34 225.337 104.861 225.337 104.861C225.337 104.861 235.316 101.927 240.35 110.645C245.515 119.59 240.838 106.155 240.838 106.155L224.417 78.1223L219.395 76.3809Z" fill="black" stroke="black" stroke-miterlimit="10"/>
<path d="M151.337 117.575C137.26 117.575 125.848 128.987 125.848 143.064C125.848 157.141 137.26 168.553 151.337 168.553C165.415 168.553 176.827 157.141 176.827 143.064C176.827 128.987 165.414 117.575 151.337 117.575ZM151.337 155.873C144.264 155.873 138.529 150.138 138.529 143.064C138.529 135.991 144.263 130.256 151.337 130.256C158.412 130.256 164.146 135.99 164.146 143.064C164.146 150.138 158.411 155.873 151.337 155.873Z" fill="#969696"/>
<path d="M265.073 223.388L256.507 208.622L265.073 193.856H282.206L290.772 208.622L282.206 223.388H265.073Z" fill="#494949"/>
<path d="M260.906 210.672C260.906 211.69 261.158 213.076 261.385 213.545H261.375L261.409 213.73C261.548 214.29 261.725 214.907 261.935 215.433L267.197 231.826H267.199C267.905 234.639 270.551 236.927 273.711 236.927C276.894 236.927 279.558 234.69 280.239 231.713L285.454 215.533C285.687 214.959 285.879 214.281 286.028 213.668L286.04 213.544H286.037C286.263 213.075 286.423 211.689 286.423 210.671C286.423 204.843 282.326 200.018 277.17 198.537V204.384C278.576 205.429 279.492 207.117 279.492 209.023C279.492 210.929 278.517 212.627 277.087 213.672L277.026 220.186C276.95 221.949 275.435 223.376 273.655 223.376C271.875 223.376 270.607 222.181 270.138 220.229V220.044C270.138 220.044 270.138 220.043 270.138 220.042C270.138 220.041 270.138 220.041 270.138 220.04V213.714C269.201 212.673 267.708 210.961 267.708 209.023C267.708 207.085 269.2 205.374 270.138 204.334V198.519C264.982 199.975 260.905 204.819 260.906 210.672ZM273.71 226.884C275.54 226.884 277.023 228.367 277.023 230.197C277.023 232.026 275.54 233.509 273.71 233.509C271.881 233.509 270.397 232.026 270.397 230.197C270.397 228.367 271.881 226.884 273.71 226.884Z" fill="black"/>
<path d="M273.64 215.676C277.511 215.676 280.649 212.538 280.649 208.666C280.649 204.795 277.511 201.657 273.64 201.657C269.769 201.657 266.631 204.795 266.631 208.666C266.631 212.538 269.769 215.676 273.64 215.676Z" fill="#F22F2F"/>
<path d="M293.807 355.525C295.153 351.605 306.89 354.678 305.667 358.212C304.67 361.092 295.531 355.518 296.992 350.473C299.029 343.439 310.861 348.077 309.822 352.926C309.382 354.98 300.944 345.937 302.148 342.606" stroke="#FF0000" stroke-width="3" stroke-miterlimit="10" stroke-linecap="round"/>
<path d="M326.392 315.928C327.841 312.043 306.494 302.506 305.177 306.006C304.489 307.832 324.661 315.329 328.764 311.248C330.957 309.068 342.945 310.877 341.574 314.552C340.181 318.281 328.608 314.144 331.421 306.185" stroke="#FF0000" stroke-width="3" stroke-miterlimit="10" stroke-linecap="round"/>
<path d="M301.923 343.023C302.79 337.05 315.74 342.063 314.516 345.596C313.49 348.559 304.593 341.712 306.119 336.442C307.809 330.604 315.869 338.151 315.257 339.902C314.316 342.589 306.777 333.076 311.877 329.174" stroke="#FF0000" stroke-width="3" stroke-miterlimit="10" stroke-linecap="round"/>
<path d="M282.091 315.58C282.202 319.726 268.358 323.021 268.268 319.284C268.179 315.556 281.832 316.921 282.29 322.981C282.749 329.042 269.003 330.151 268.46 326.462C267.917 322.774 282.083 320.742 282.455 329.173" stroke="#FF0000" stroke-width="3" stroke-miterlimit="10" stroke-linecap="round"/>
<path d="M281.751 302.872C281.861 307.016 268.017 310.313 267.927 306.574C267.838 302.848 281.46 303.042 281.918 309.102C282.377 315.163 268.631 316.272 268.088 312.584C267.545 308.895 281.73 307.592 282.103 316.025" stroke="#FF0000" stroke-width="3" stroke-miterlimit="10" stroke-linecap="round"/>
<path d="M281.38 288.994C281.489 293.139 267.645 296.434 267.556 292.696C267.467 288.97 281.101 289.632 281.559 295.693C282.018 301.753 268.271 302.862 267.729 299.174C267.186 295.485 281.389 294.885 281.762 303.317" stroke="#FF0000" stroke-width="3" stroke-miterlimit="10" stroke-linecap="round"/>
<path d="M281.521 289.177C281.373 280.737 267.155 281.219 267.6 284.92C268.045 288.622 281.817 286.918 281.521 280.848C281.225 274.777 267.379 274.686 267.369 278.415C267.359 282.155 280.057 277.739 280.057 273.592C280.057 273.592 280.937 270.884 276.55 267.942C273.561 265.937 273.736 260.669 273.97 259.908C274.205 259.147 278.023 230.856 273.503 230.64C267.369 230.347 274.088 245.332 273.151 251.595C273.025 252.464 272.01 261.048 272.01 261.048" stroke="#FF0000" stroke-width="3" stroke-miterlimit="10" stroke-linecap="round"/>
<path d="M285.965 369.127C282.989 365.163 297.758 364.716 296.535 368.25C295.315 371.773 287.614 367.016 289.304 361.178C290.994 355.34 302.458 361.251 301.677 364.897C300.895 368.542 291.209 363.556 293.808 355.524" stroke="#FF0000" stroke-width="3" stroke-miterlimit="10" stroke-linecap="round"/>
<path d="M287.031 354.221C287.142 358.364 275.247 361.608 275.158 357.871C275.068 354.144 287.772 353.942 288.231 360.003C288.69 366.064 276.753 366.055 279.401 363.431C280.748 362.095 295.496 366.151 287.429 369.087" stroke="#FF0000" stroke-width="3" stroke-miterlimit="10" stroke-linecap="round"/>
<path d="M283.911 341.862C284.022 346.007 271.85 349.257 271.759 345.521C271.67 341.793 285.275 341.381 285.734 347.443C286.192 353.504 273.561 354.581 273.018 350.893C272.466 347.147 286.667 346.206 287.043 354.665" stroke="#FF0000" stroke-width="3" stroke-miterlimit="10" stroke-linecap="round"/>
<path d="M282.446 328.655C282.557 332.8 269.271 336.279 269.181 332.541C269.091 328.814 282.712 329.008 283.171 335.069C283.631 341.129 270.443 342.223 269.899 338.535C269.357 334.847 283.55 333.874 283.923 342.307" stroke="#FF0000" stroke-width="3" stroke-miterlimit="10" stroke-linecap="round"/>
<path d="M320.795 228.596C331.806 228.596 340.732 219.67 340.732 208.66C340.732 197.649 331.806 188.723 320.795 188.723C309.784 188.723 300.858 197.649 300.858 208.66C300.858 219.67 309.784 228.596 320.795 228.596Z" fill="#494949"/>
<path d="M273.888 233.508C273.888 233.508 270.49 233.66 270.412 229.892C270.333 226.124 267.16 231.712 267.16 231.712C267.16 231.712 268.302 237.06 274.319 236.926C274.761 236.784 273.888 233.508 273.888 233.508Z" fill="black"/>
<path d="M323.106 220.344C323.106 220.743 322.52 221.044 322.239 221.044H319.723C319.442 221.044 318.888 220.742 318.888 220.344V196.696C318.888 196.298 319.443 196.2 319.723 196.2H322.239C322.52 196.2 323.106 196.298 323.106 196.696V220.344Z" fill="#EAEAEA"/>
<path d="M347.95 332.175C347.577 329.707 344.243 316.728 344.594 314.089C344.947 311.45 344.615 308.677 343.933 303.565C343.25 298.453 345.563 289.174 347.409 285.722C349.254 282.27 356.963 267.242 358.726 262.848C360.491 258.457 368.572 248.995 368.928 246.026C369.283 243.056 360.183 223.596 359.984 223.073C359.786 222.551 360.056 222.235 360.416 212.405C360.777 202.578 359.561 200.699 358.061 199.405C356.56 198.108 352.806 198.663 352.681 198.522C352.555 198.38 330.449 201.754 329.282 201.516C328.115 201.278 320.724 202.627 319.921 202.912C319.119 203.197 318.854 204.402 318.64 204.311C317.985 203.644 317.318 204.301 315.997 204.289C314.677 204.279 311.688 209.335 310.047 211.099C308.406 212.863 307.595 212.755 306.014 213.778C304.435 214.801 301.779 215.451 301.079 218.44C300.379 221.428 304.975 246.625 305.474 247.847C305.972 249.071 304.748 255.768 304.326 257.696C303.904 259.624 306.116 268.433 305.645 270.106C305.174 271.779 306.165 274.886 306.966 276.316C307.766 277.745 308.924 285.173 309.557 288.481C310.191 291.789 310.551 303.326 310.595 304.241C310.528 302.771 310.546 303.378 315.138 392.606L362.013 408.075L347.95 332.175ZM320.447 234.433L319.243 227.886L326.786 224.202C327.11 223.869 327.249 223.798 327.069 224.065L326.786 224.202C325.588 225.433 321.844 230.262 322.118 235.151C322.138 235.547 320.447 234.433 320.447 234.433Z" fill="#F9DBBD"/>
<path d="M306.777 305.309C311.701 297.676 322.769 309.33 318.801 309.647C315.352 309.922 320.048 300.302 326.254 298.914C334.145 297.149 341.002 305.053 337.113 305.843C333.45 306.587 337.229 300.495 340.334 297.747C340.334 297.747 343.148 295.691 345.53 298.148" stroke="#FF0000" stroke-width="3" stroke-miterlimit="10" stroke-linecap="round"/>
<path d="M0.612449 385.786C-1.52927 383.822 29.697 251.924 28.9254 249.117C28.9254 249.117 32.5465 227.721 31.4093 227.041C31.4093 227.041 28.361 222.213 24.6739 219.66C20.9871 217.11 17.9768 212.841 16.9784 212.382C15.98 211.922 9.13479 207.915 8.63792 205.591C8.14104 203.268 8.01026 202.036 8.83432 198.16C9.65886 194.283 8.20104 193.36 8.35714 191.634C8.71432 187.687 10.826 185.216 10.826 185.216C10.5514 185.213 11.3426 179.02 11.3426 179.02C12.1409 176.875 14.5296 173.92 15.0354 171.183C15.5407 168.445 17.179 158.958 19.6376 157.146C21.5 156.04 21.5 156.04 21.5 156.04C21.5 156.04 20.9084 152.587 22.2143 150.861C24.7076 147.566 29.7078 147.052 30.4526 146.493C31.1975 145.936 34.8471 144.918 37.355 145.653C37.0395 146.152 37.1515 147.65 37.1515 147.65C37.1515 147.65 36.6598 150.665 36.0218 152.958C35.3839 155.252 35.8882 158.009 35.8882 158.009L34.6915 162.309C34.6915 162.309 36.1475 166.813 36.9396 168.784C37.6423 170.529 37.467 171.802 37.467 171.802C37.467 171.802 38.2507 172.552 40.1773 172.017C42.1039 171.483 44.8957 170.402 46.1164 170.29C47.3365 170.177 50.9178 168.539 51.2726 167.393C51.6279 166.248 53.7003 162.994 53.727 161.983C53.7537 160.973 52.8073 152.688 54.3556 149.172C56.7753 143.677 63.2464 136.508 67.0536 135.861C70.1646 135.332 72.6289 138.032 72.4573 140.41C72.2492 143.293 70.7614 146.513 70.3465 147.863C69.9223 149.243 69.702 155.861 68.2053 157.843C66.709 159.825 67.2368 168.516 67.2368 168.516C67.2368 168.516 68.8301 173.804 68.4992 175.384C68.1682 176.964 68.7373 179.986 69.1357 181.297C69.5346 182.607 70.1304 187.388 69.9481 188.826C69.7653 190.266 67.8546 203.825 67.8546 203.825C67.8546 203.825 66.8909 209.437 67.1051 212.674C67.3353 216.148 64.2603 226.311 64.2603 226.311L55.4131 385.569C58.8171 387.968 0.612449 385.786 0.612449 385.786Z" fill="#F9DBBD"/>
<path d="M323.106 220.344C323.106 220.743 322.52 221.044 322.239 221.044H319.723C319.442 221.044 318.888 220.742 318.888 220.344V196.696C318.888 196.298 319.443 196.2 319.723 196.2H322.239C322.52 196.2 323.106 196.298 323.106 196.696V220.344Z" fill="#F4F4F4"/>
<path d="M275.803 258.548C275.751 258.898 275.504 259.152 275.25 259.115L271.062 258.501C270.808 258.464 270.643 258.15 270.695 257.799L271.45 252.642C271.501 252.29 271.75 252.037 272.003 252.074L276.192 252.688C276.446 252.725 276.61 253.04 276.559 253.39L275.803 258.548Z" fill="#C1C1C1"/>
<rect x="315.138" y="15.7314" width="45.0996" height="25" rx="12.5" fill="#969696" fill-opacity="0.3"/>
<path d="M325.676 33.3574H319.441V32.7285L322.852 28.8594C323.417 28.2077 323.809 27.6699 324.028 27.2461C324.247 26.8223 324.356 26.4098 324.356 26.0088C324.356 25.3799 324.172 24.8831 323.802 24.5186C323.433 24.1494 322.925 23.9648 322.278 23.9648C321.608 23.9648 321.066 24.179 320.651 24.6074C320.241 25.0358 320.036 25.5918 320.036 26.2754H319.222C319.222 25.7148 319.348 25.2044 319.598 24.7441C319.854 24.2839 320.214 23.9238 320.678 23.6641C321.148 23.3997 321.681 23.2676 322.278 23.2676C323.19 23.2676 323.9 23.5068 324.411 23.9854C324.926 24.4639 325.183 25.1156 325.183 25.9404C325.183 26.4053 325.038 26.9134 324.746 27.4648C324.459 28.0163 323.951 28.7044 323.221 29.5293L320.446 32.667H325.676V33.3574ZM331.014 33.3574H330.194V24.3887L327.487 25.3936V24.6279L330.878 23.3701H331.014V33.3574ZM334.986 34.2119H334.241L338.397 23.4043H339.135L334.986 34.2119ZM346.771 33.3574H340.537V32.7285L343.948 28.8594C344.513 28.2077 344.905 27.6699 345.124 27.2461C345.343 26.8223 345.452 26.4098 345.452 26.0088C345.452 25.3799 345.267 24.8831 344.898 24.5186C344.529 24.1494 344.021 23.9648 343.374 23.9648C342.704 23.9648 342.162 24.179 341.747 24.6074C341.337 25.0358 341.132 25.5918 341.132 26.2754H340.318C340.318 25.7148 340.443 25.2044 340.694 24.7441C340.949 24.2839 341.309 23.9238 341.774 23.6641C342.244 23.3997 342.777 23.2676 343.374 23.2676C344.285 23.2676 344.996 23.5068 345.507 23.9854C346.022 24.4639 346.279 25.1156 346.279 25.9404C346.279 26.4053 346.133 26.9134 345.842 27.4648C345.554 28.0163 345.046 28.7044 344.317 29.5293L341.542 32.667H346.771V33.3574ZM350.121 27.9365H350.969C351.438 27.9365 351.848 27.8545 352.199 27.6904C352.55 27.5218 352.816 27.2939 352.999 27.0068C353.186 26.7152 353.279 26.3802 353.279 26.002C353.279 25.3639 353.099 24.8649 352.739 24.5049C352.379 24.1449 351.862 23.9648 351.187 23.9648C350.549 23.9648 350.025 24.154 349.615 24.5322C349.209 24.9059 349.007 25.4004 349.007 26.0156H348.186C348.186 25.5007 348.316 25.0312 348.576 24.6074C348.836 24.179 349.196 23.8486 349.656 23.6162C350.116 23.3838 350.627 23.2676 351.187 23.2676C352.09 23.2676 352.801 23.5137 353.32 24.0059C353.84 24.498 354.099 25.1725 354.099 26.0293C354.099 26.5078 353.947 26.9499 353.641 27.3555C353.341 27.7565 352.926 28.0573 352.397 28.2578C353.017 28.431 353.486 28.7295 353.805 29.1533C354.124 29.5726 354.284 30.0739 354.284 30.6572C354.284 31.5094 354.006 32.1953 353.45 32.7148C352.894 33.2344 352.151 33.4941 351.221 33.4941C350.629 33.4941 350.084 33.3757 349.588 33.1387C349.095 32.9017 348.713 32.5713 348.439 32.1475C348.17 31.7191 348.036 31.2223 348.036 30.6572H348.856C348.856 31.2907 349.077 31.8079 349.519 32.209C349.961 32.6055 350.529 32.8037 351.221 32.8037C351.928 32.8037 352.477 32.6237 352.869 32.2637C353.265 31.8991 353.464 31.3727 353.464 30.6846C353.464 30.0192 353.249 29.5111 352.821 29.1602C352.397 28.8092 351.771 28.6338 350.941 28.6338H350.121V27.9365Z" fill="black"/>
</g>
<defs>
<clipPath id="clip0">
<rect width="375" height="375" fill="white" transform="translate(0.137695 0.731445)"/>
</clipPath>
</defs>
</svg>
