<svg width="376" height="376" viewBox="0 0 376 376" fill="none" xmlns="http://www.w3.org/2000/svg">
<g clip-path="url(#clip0)">
<path d="M-8.37109 -1.9873H382.566V380.981H-5.55859L-8.37109 -1.9873Z" fill="#8BF6FF"/>
<path d="M362.801 113.451L362.802 113.458C362.804 113.504 362.807 113.573 362.811 113.664C362.819 113.845 362.829 114.116 362.84 114.469C362.862 115.177 362.887 116.219 362.897 117.557C362.918 120.234 362.881 124.095 362.651 128.833C362.189 138.309 360.952 151.292 357.85 165.319C351.646 193.376 337.985 225.6 308.16 242.308C287.673 253.785 268.758 264.837 251.455 274.948C231.737 286.469 214.114 296.767 198.644 305.075C184.122 312.875 171.502 318.919 160.836 322.574C150.167 326.23 141.46 327.493 134.76 325.741C134.413 325.65 133.84 325.355 133.067 324.876C132.296 324.398 131.33 323.739 130.198 322.925C127.934 321.297 125.008 319.048 121.651 316.382C114.937 311.049 106.499 304.047 98.1878 296.999C89.8764 289.95 81.6911 282.856 75.481 277.338C72.3759 274.579 69.7648 272.214 67.8787 270.446C66.9356 269.562 66.174 268.828 65.6228 268.269C65.3471 267.989 65.1244 267.753 64.9579 267.564C64.7906 267.375 64.6828 267.236 64.6343 267.148C63.0733 264.33 61.9662 262.516 61.1539 261.184C61.1064 261.106 61.06 261.03 61.0145 260.955C60.1902 259.603 59.688 258.762 59.3154 257.811C58.9429 256.861 58.6992 255.8 58.396 254.008C58.2285 253.019 58.0431 251.809 57.8079 250.273C57.617 249.027 57.3933 247.566 57.1198 245.835C55.958 238.487 54.3178 228.259 52.9681 219.87C52.2932 215.675 51.691 211.939 51.2575 209.252C51.0407 207.909 50.8661 206.827 50.7457 206.082L50.6073 205.225L50.5714 205.003L50.5658 204.969L155.06 168.852L362.801 113.451Z" fill="#8E8E8E" stroke="black" stroke-width="0.1"/>
<path d="M64.5905 214.07L66.9343 244.538H56.8637L50.5098 204.935L64.5905 214.07Z" fill="#999999"/>
<path d="M84.4492 196.621L87.4947 240.554L131.869 280.203L154.591 285.999L156.934 280.203L155.294 262.229L87.4947 196.667L84.4492 196.621Z" fill="#999999"/>
<path d="M64.5908 245.842C64.5908 245.842 84.5947 234.709 87.4949 234.929C92.5672 246.076 117.151 264.073 124.81 267.779C122.781 268.807 108.419 273.132 108.419 273.132L107.989 294.462L82.5529 273.367L64.5908 245.842Z" fill="#FFFCF8"/>
<path d="M82.5592 193.054C86.823 202.753 121.059 251.436 154.34 265.005C154.34 265.005 156.217 277.765 155.043 278.493C151.523 280.68 130.275 267.345 129.731 267.78C129.005 268.36 109.102 270.878 109.682 272.764C110.057 273.982 122.496 282.727 133.168 287.941C139.012 290.795 144.327 292.592 146.841 291.514C153.947 288.469 272.247 210.789 272.247 210.789C272.247 210.789 357.325 193.882 348.035 116.726C255.223 102.351 132.74 172.896 131.87 171.973C130.999 171.051 81.9311 191.624 82.5592 193.054Z" fill="#EDEDED"/>
<path d="M124.888 208.302L161.271 188.826L214.566 171.028L214.575 171.025L214.582 171.019L214.55 170.981C214.582 171.019 214.582 171.019 214.582 171.019L214.583 171.018L214.586 171.015L214.599 171.005L214.649 170.963L214.844 170.8C215.016 170.657 215.269 170.447 215.592 170.179C216.238 169.643 217.166 168.877 218.296 167.954C220.556 166.109 223.622 163.637 226.843 161.131C230.065 158.624 233.442 156.085 236.327 154.104C237.769 153.113 239.087 152.263 240.201 151.626C241.316 150.989 242.221 150.569 242.838 150.434C243.942 150.194 246.224 149.605 249.197 148.836C252.959 147.863 257.829 146.603 262.824 145.404C267.296 144.33 271.87 143.304 275.842 142.573C279.815 141.843 283.181 141.409 285.241 141.517C289.373 141.735 290.848 141.681 291.862 141.462C292.243 141.379 292.559 141.273 292.924 141.151C293.044 141.111 293.169 141.069 293.304 141.025C293.85 140.849 294.554 140.646 295.694 140.429C297.993 139.991 300.177 138.351 301.783 136.827C302.586 136.064 303.247 135.329 303.707 134.784C303.937 134.511 304.116 134.286 304.239 134.13C304.3 134.051 304.347 133.99 304.378 133.948L304.413 133.902L325.909 131.695C326.038 131.779 326.314 131.937 326.696 132.156C326.839 132.238 326.997 132.329 327.168 132.427C327.813 132.799 328.642 133.284 329.538 133.843C331.332 134.962 333.395 136.378 334.804 137.788C335.147 138.13 335.391 138.73 335.549 139.535C335.706 140.338 335.776 141.337 335.775 142.47C335.772 144.736 335.488 147.531 335.063 150.349C334.638 153.167 334.074 156.007 333.513 158.362C332.952 160.719 332.395 162.587 331.986 163.464L331.983 163.472L331.982 163.481C331.521 169.408 327.421 175.314 321.176 181.021C314.932 186.727 306.551 192.229 297.547 197.348C288.542 202.468 278.916 207.204 270.18 211.382C267.979 212.434 265.834 213.452 263.77 214.431C257.644 217.336 252.229 219.904 248.161 222.061C237.284 227.825 228.452 232.555 222.34 235.843C219.283 237.487 216.906 238.771 215.294 239.644C214.488 240.08 213.872 240.414 213.459 240.639L212.991 240.893L212.872 240.957L212.843 240.973L212.835 240.977L212.835 240.977L212.832 240.979L212.815 240.985L212.747 241.012L212.482 241.119C212.249 241.212 211.907 241.348 211.468 241.523C210.591 241.873 209.331 242.375 207.795 242.985C204.725 244.206 200.556 245.858 196.163 247.585C187.376 251.04 177.694 254.792 174.106 255.988C173.672 256.133 173.1 256.081 172.401 255.846C171.703 255.612 170.886 255.199 169.968 254.629C168.133 253.489 165.9 251.728 163.421 249.547C158.464 245.184 152.525 239.142 146.81 233.025C141.096 226.907 135.605 220.715 131.543 216.052C129.512 213.72 127.838 211.771 126.672 210.405C126.089 209.722 125.633 209.184 125.323 208.818C125.168 208.634 125.049 208.494 124.969 208.399L124.888 208.302Z" fill="#E8CDA0" stroke="black" stroke-width="0.1"/>
<path d="M84.4492 256.285C96.0503 254.835 101.851 260.201 110.552 260.781C119.253 261.36 128.824 257.88 128.824 257.88" stroke="#777777" stroke-width="4" stroke-miterlimit="10" stroke-linecap="round"/>
<path d="M87.4946 263.245C99.0957 261.795 104.897 267.161 113.597 267.741C122.298 268.32 131.869 262.229 131.869 262.229" stroke="#777777" stroke-width="4" stroke-miterlimit="10" stroke-linecap="round"/>
<path d="M52.3752 309.742L52.3745 309.742C52.1577 310.284 51.9423 310.958 51.8885 311.59C51.8346 312.223 51.9439 312.801 52.361 313.166C52.5823 313.36 52.7683 313.587 52.94 313.805C52.9608 313.832 52.9815 313.858 53.0019 313.884C53.1509 314.074 53.29 314.251 53.4366 314.391C53.6028 314.551 53.7735 314.659 53.9709 314.684C54.1681 314.709 54.4011 314.653 54.6942 314.467L54.721 314.509L54.6942 314.467L55.7409 313.801L55.8717 313.717L55.8881 313.707L55.8902 313.706L55.8904 313.705L55.8905 313.705L55.8906 313.705L55.8907 313.705L55.8909 313.705C55.9218 313.704 55.9436 313.72 55.9441 313.733L55.961 313.723L55.9611 313.723L55.9614 313.724L55.9628 313.727L55.9684 313.737L55.9903 313.776L56.0733 313.925C56.1449 314.053 56.2473 314.237 56.3705 314.459C56.6169 314.903 56.9466 315.498 57.2797 316.103C57.6127 316.708 57.9493 317.323 58.2094 317.808C58.3394 318.05 58.4505 318.26 58.5324 318.419C58.5799 318.512 58.6185 318.589 58.6453 318.646C58.6502 318.629 58.6554 318.61 58.6609 318.589C58.6946 318.458 58.7373 318.253 58.7857 317.995C58.8824 317.481 59.0013 316.765 59.1168 316.037C59.2323 315.31 59.3444 314.573 59.4277 314.018C59.4693 313.74 59.5037 313.508 59.5277 313.345L59.5555 313.155L59.5628 313.106L59.5647 313.093L59.5651 313.089L59.5653 313.089L59.5653 313.088L59.6148 313.096M52.3752 309.742L62.3682 309.126M52.3752 309.742L52.377 309.734L52.3281 309.723C52.377 309.734 52.378 309.721 52.3756 309.708L52.3755 309.708L52.3755 309.708L52.3755 309.708L52.3755 309.708L52.3754 309.707L52.3746 309.705L52.3677 309.684L52.3127 309.517L51.8726 308.186C51.6262 307.439 51.7487 306.526 51.9365 305.794C52.0301 305.429 52.1394 305.111 52.2252 304.884C52.2681 304.771 52.3052 304.681 52.3314 304.619C52.3364 304.607 52.341 304.597 52.3451 304.587M52.3752 309.742L52.3451 304.587M59.6148 313.096L59.5728 313.068L59.5729 313.068L59.5732 313.068L59.5744 313.066L59.5792 313.058L59.5981 313.029L59.6702 312.918C59.7326 312.822 59.8222 312.684 59.9314 312.517C60.1498 312.183 60.4463 311.732 60.7587 311.266C61.0711 310.801 61.3997 310.319 61.6821 309.923C61.9633 309.53 62.202 309.216 62.3336 309.09M59.6148 313.096L59.5653 313.088L59.5669 313.078L59.5728 313.069L59.6148 313.096ZM62.3336 309.09L62.3682 309.126M62.3336 309.09C62.3336 309.09 62.3336 309.09 62.3336 309.09L62.3682 309.126M62.3336 309.09C62.3819 309.043 62.4087 308.957 62.4059 308.825C62.4032 308.695 62.3719 308.532 62.3174 308.347C62.2086 307.977 62.0099 307.526 61.7775 307.089C61.5452 306.653 61.2805 306.232 61.0407 305.921C60.9207 305.766 60.808 305.639 60.7097 305.552C60.6605 305.508 60.616 305.476 60.577 305.454C60.5374 305.432 60.5069 305.423 60.4848 305.423C60.4115 305.423 60.3147 305.409 60.203 305.387C60.0905 305.364 59.9595 305.334 59.8167 305.3C59.8036 305.297 59.7903 305.293 59.777 305.29C59.4996 305.224 59.1794 305.148 58.8557 305.097C58.5161 305.042 58.1759 305.016 57.8801 305.056C57.5845 305.096 57.339 305.201 57.1801 305.404L57.1801 305.404C56.8351 305.845 56.3064 306.256 55.8669 306.556C55.6466 306.706 55.4477 306.829 55.3039 306.915C55.2319 306.957 55.1737 306.991 55.1334 307.013C55.1133 307.025 55.0976 307.033 55.087 307.039L55.0748 307.046L55.0716 307.048L55.0708 307.048L55.0706 307.048L55.0706 307.048L55.0468 307.004M62.3682 309.126C62.8777 308.636 61.029 305.373 60.4848 305.373C60.3424 305.373 60.0922 305.314 59.7881 305.242C58.9299 305.037 57.6426 304.731 57.1407 305.373C56.4606 306.242 55.0468 307.004 55.0468 307.004M55.0468 307.004L55.0705 307.048L55.0392 307.065L55.013 307.041L52.3451 304.587M55.0468 307.004L52.3451 304.587M55.8905 313.763L55.9173 313.748L55.8905 313.763C55.8905 313.763 55.8905 313.763 55.8905 313.763Z" fill="#D6D6D6" stroke="black" stroke-width="0.1"/>
<path d="M33.0281 266.369L33.0282 266.369L33.0282 266.369L33.0282 266.369L33.0478 266.382L33.0701 266.375L88.3209 249.095L89.5275 251.977L89.1202 254.813L89.1169 254.836L89.1325 254.853L89.1697 254.82L89.1325 254.853L89.1326 254.853L89.1329 254.854L89.1341 254.855L89.1389 254.86L89.1576 254.881L89.229 254.96C89.2908 255.028 89.3795 255.125 89.4874 255.241C89.7031 255.474 89.9958 255.785 90.3032 256.095C90.6105 256.406 90.9332 256.717 91.209 256.951C91.3468 257.068 91.4739 257.166 91.5822 257.236C91.6363 257.27 91.6867 257.299 91.7321 257.318C91.7767 257.337 91.8202 257.35 91.8594 257.35C91.9529 257.35 92.0265 257.401 92.0848 257.507C92.1441 257.614 92.1835 257.772 92.2052 257.968C92.2485 258.36 92.2198 258.886 92.1613 259.416C92.1028 259.944 92.0152 260.473 91.9421 260.87C91.9055 261.069 91.8726 261.234 91.8489 261.35C91.837 261.408 91.8274 261.453 91.8208 261.484L91.8132 261.519L91.8112 261.529L91.8107 261.531L91.8106 261.531L91.8106 261.531L91.8594 261.542L91.8106 261.531L91.8105 261.532L91.0798 264.896L88.5023 269.675L88.4888 269.7L88.5033 269.725L91.858 275.351L90.029 277.826L90.011 277.85L90.0243 277.878L91.8579 281.653C91.8461 281.665 91.8302 281.682 91.8104 281.702C91.7645 281.75 91.6981 281.818 91.616 281.9C91.4517 282.065 91.2251 282.285 90.9753 282.508C90.7254 282.732 90.4531 282.958 90.1974 283.135C89.9397 283.313 89.7059 283.436 89.5314 283.461C89.4496 283.473 89.339 283.456 89.2039 283.41C89.0699 283.365 88.9168 283.295 88.7522 283.206C88.423 283.029 88.0525 282.783 87.704 282.532C87.3557 282.281 87.0306 282.027 86.7924 281.835C86.6734 281.739 86.5762 281.659 86.5087 281.603C86.475 281.575 86.4487 281.553 86.4309 281.538L86.4173 281.526L86.4155 281.517L86.4016 281.44L86.3508 281.16C86.3083 280.925 86.2505 280.605 86.1894 280.264C86.067 279.583 85.9312 278.818 85.8769 278.485C85.8452 278.291 85.6798 278.165 85.4539 278.082C85.2263 277.999 84.9216 277.953 84.5805 277.928C84.0938 277.893 83.523 277.901 82.9803 277.908C82.7624 277.911 82.5491 277.914 82.3475 277.914C81.6521 277.914 80.7911 277.592 79.9606 277.238C79.7836 277.163 79.6076 277.086 79.4352 277.01C79.2058 276.91 78.9827 276.812 78.7724 276.725C78.4034 276.572 78.0664 276.448 77.7894 276.392C77.2408 276.283 76.8281 276.283 76.5514 276.31C76.413 276.324 76.3087 276.345 76.2385 276.362C76.2034 276.371 76.1768 276.379 76.1588 276.385C76.1497 276.388 76.1428 276.39 76.1381 276.392L76.1325 276.394L76.131 276.395L76.1305 276.395L76.1303 276.395L76.1302 276.395L76.1488 276.442L76.1302 276.395L76.1036 276.406L76.0993 276.434L76.0993 276.434L76.0992 276.435L76.0989 276.437L76.0978 276.444L76.0932 276.474L76.0758 276.589C76.0607 276.688 76.0391 276.829 76.0128 277C75.9601 277.341 75.8888 277.8 75.8142 278.269C75.7395 278.738 75.6614 279.217 75.5952 279.599C75.5621 279.79 75.5321 279.957 75.5069 280.086C75.4815 280.216 75.4617 280.304 75.4493 280.341L75.4967 280.357L75.4493 280.341C75.4295 280.401 75.4466 280.468 75.4766 280.536C75.5074 280.605 75.5572 280.686 75.6187 280.777C75.6672 280.849 75.7227 280.928 75.7836 281.013C75.8804 281.15 75.9907 281.305 76.1083 281.485C76.4872 282.067 76.9187 282.875 77.0804 283.954C77.2426 285.037 77.2436 286.338 77.2037 287.629C77.1889 288.106 77.1686 288.582 77.1488 289.045C77.1152 289.833 77.0831 290.582 77.0831 291.233C77.0831 292.258 76.8424 292.732 76.5308 293.032C76.3769 293.18 76.2039 293.288 76.025 293.399L76.0112 293.408C75.8286 293.522 75.6408 293.64 75.4731 293.808C75.4253 293.856 75.3836 293.93 75.3463 294.022C75.3085 294.114 75.2735 294.23 75.2408 294.364C75.1755 294.632 75.1189 294.979 75.0701 295.382C74.9726 296.188 74.9063 297.219 74.8672 298.287C74.789 300.422 74.8194 302.709 74.9286 303.638C74.9553 303.864 74.9382 304.026 74.8876 304.146C74.8376 304.263 74.753 304.345 74.6333 304.407C74.5119 304.47 74.3561 304.512 74.1664 304.551C74.0719 304.57 73.9701 304.588 73.861 304.607L73.8538 304.608C73.747 304.627 73.6334 304.647 73.5141 304.671C72.5337 304.863 71.169 305.275 69.7457 307.081C68.3351 308.872 66.1226 310.881 64.2606 312.444C63.33 313.225 62.4876 313.895 61.878 314.368C61.5732 314.605 61.3265 314.793 61.1561 314.922C61.0779 314.981 61.0158 315.028 60.9714 315.061V311.701L60.9718 311.7C60.9764 311.695 60.982 311.69 60.9885 311.683C60.9957 311.675 61.004 311.667 61.0134 311.657C61.0492 311.619 61.1006 311.565 61.1629 311.496C61.2875 311.36 61.4559 311.168 61.6312 310.95C61.8065 310.731 61.9891 310.485 62.1418 310.238C62.2941 309.991 62.4184 309.742 62.4746 309.517C62.533 309.283 62.4641 308.971 62.3378 308.644C62.2104 308.314 62.0206 307.958 61.825 307.63C61.6291 307.302 61.4266 307.002 61.2731 306.784C61.1963 306.675 61.1318 306.586 61.0863 306.525C61.0636 306.494 61.0457 306.47 61.0335 306.454L61.0194 306.435L61.0158 306.431L61.0149 306.429L61.0146 306.429L61.0146 306.429L60.9749 306.459L61.0145 306.429L60.9931 306.401L60.9595 306.412L53.2371 308.902L48.7444 302.565L60.4729 297.37L60.5027 297.356V297.324H60.4527L60.5027 297.324V297.324V297.323V297.323V297.322V297.321V297.321V297.32V297.319V297.317V297.316V297.314V297.313V297.311V297.309V297.307V297.305V297.303V297.301V297.298V297.295V297.293V297.29V297.287V297.284V297.281V297.277V297.274V297.27V297.266V297.263V297.259V297.255V297.25V297.246V297.242V297.237V297.233V297.228V297.223V297.218V297.213V297.208V297.202V297.197V297.191V297.186V297.18V297.174V297.168V297.162V297.156V297.149V297.143V297.136V297.13V297.123V297.116V297.109V297.102V297.095V297.087V297.08V297.073V297.065V297.057V297.049V297.041V297.033V297.025V297.017V297.009V297V296.992V296.983V296.974V296.966V296.957V296.948V296.939V296.929V296.92V296.911V296.901V296.892V296.882V296.872V296.862V296.852V296.842V296.832V296.822V296.811V296.801V296.79V296.78V296.769V296.758V296.747V296.736V296.725V296.714V296.703V296.691V296.68V296.669V296.657V296.645V296.633V296.622V296.61V296.598V296.586V296.573V296.561V296.549V296.536V296.524V296.511V296.499V296.486V296.473V296.46V296.447V296.434V296.421V296.408V296.394V296.381V296.367V296.354V296.34V296.327V296.313V296.299V296.285V296.271V296.257V296.243V296.229V296.215V296.2V296.186V296.171V296.157V296.142V296.127V296.113V296.098V296.083V296.068V296.053V296.038V296.023V296.008V295.992V295.977V295.962V295.946V295.93V295.915V295.899V295.883V295.868V295.852V295.836V295.82V295.804V295.788V295.772V295.756V295.739V295.723V295.707V295.69V295.674V295.657V295.64V295.624V295.607V295.59V295.574V295.557V295.54V295.523V295.506V295.489V295.472V295.454V295.437V295.42V295.402V295.385V295.368V295.35V295.333V295.315V295.297V295.28V295.262V295.244V295.227V295.209V295.191V295.173V295.155V295.137V295.119V295.101V295.083V295.064V295.046V295.028V295.01V294.991V294.973V294.954V294.936V294.917V294.899V294.88V294.862V294.843V294.824V294.806V294.787V294.768V294.749V294.731V294.712V294.693V294.674V294.655V294.636V294.617V294.598V294.579V294.559V294.54V294.521V294.502V294.483V294.463V294.444V294.425V294.405V294.386V294.367V294.347V294.328V294.308V294.289V294.269V294.25V294.23V294.211V294.191V294.171V294.152V294.132V294.112V294.093V294.073V294.053V294.033V294.014V293.994V293.974V293.954V293.934V293.915V293.895V293.875V293.855V293.835V293.815V293.795V293.775V293.755V293.735V293.715V293.695V293.675V293.655V293.635V293.615V293.595V293.575V293.555V293.535V293.515V293.495V293.475V293.455V293.435V293.414V293.394V293.374V293.354V293.334V293.314V293.294V293.274V293.254V293.233V293.213V293.193V293.173V293.153V293.133V293.113V293.093V293.073V293.052V293.032V293.012V292.992V292.972V292.952V292.932V292.912V292.892V292.872V292.852V292.832V292.812V292.792V292.772V292.752V292.732V292.712V292.692V292.672V292.652V292.632V292.612V292.592V292.572V292.552V292.533V292.513V292.493V292.473V292.453V292.434V292.414V292.394V292.374V292.355V292.335V292.315V292.296V292.276V292.256V292.237V292.217V292.198V292.178V292.159V292.139V292.12V292.1V292.081V292.062V292.042V292.023V292.004V291.984V291.965V291.946V291.927V291.908V291.888V291.869V291.85V291.831V291.812V291.793V291.774V291.755V291.737V291.718V291.699V291.68V291.661V291.643V291.624V291.605V291.587V291.568V291.55V291.531V291.513V291.494V291.476V291.458V291.439V291.421V291.403V291.385V291.367V291.348V291.33V291.312V291.294V291.276V291.259V291.241V291.223V291.205V291.188V291.17V291.152V291.135V291.117V291.1V291.082V291.065V291.048V291.03V291.013V290.996V290.979V290.962V290.945V290.928V290.911V290.894V290.877V290.86V290.844V290.827V290.81V290.794V290.777V290.761V290.745V290.728V290.712V290.696V290.68V290.664V290.648V290.632V290.616V290.6V290.584V290.568V290.553V290.537V290.522V290.506V290.491V290.476V290.46V290.445V290.43V290.415V290.4V290.385V290.37V290.355V290.34V290.326V290.311V290.297V290.282V290.268V290.253V290.239V290.225V290.211V290.197V290.183V290.169V290.155V290.141V290.128V290.114V290.101V290.087V290.074V290.061V290.047V290.034V290.021V290.008V289.995V289.982V289.97V289.957V289.944V289.932V289.92V289.907V289.895V289.883V289.871V289.859V289.847V289.835V289.823V289.812V289.8V289.788V289.777V289.766V289.754V289.743V289.732V289.721V289.71C60.5027 289.239 60.3781 288.848 60.1484 288.516C59.9192 288.185 59.5872 287.915 59.1763 287.682C58.3794 287.229 57.2738 286.907 56.0163 286.54L55.9067 286.508L55.8927 286.556L55.9067 286.508C55.2583 286.319 54.1882 285.859 52.9378 285.271C51.6886 284.683 50.2627 283.969 48.9044 283.276C47.858 282.742 46.8521 282.22 45.998 281.777C45.7434 281.645 45.5023 281.52 45.2776 281.403C44.7886 281.15 44.3774 280.938 44.0749 280.786C43.9236 280.71 43.7992 280.649 43.7056 280.605C43.6142 280.563 43.5473 280.534 43.5143 280.525L43.5142 280.525C43.2994 280.472 42.3195 280.147 41.1176 279.737C39.9174 279.327 38.4996 278.834 37.4121 278.447C36.3315 278.061 35.2721 277.444 34.3833 276.263C33.4939 275.08 32.7727 273.329 32.3762 270.669C32.1778 269.339 32.1245 268.405 32.1553 267.751C32.1862 267.097 32.3014 266.731 32.4346 266.532C32.565 266.336 32.7131 266.3 32.8263 266.307C32.8847 266.311 32.9357 266.327 32.9724 266.342C32.9906 266.349 33.005 266.356 33.0146 266.362C33.0195 266.364 33.0231 266.366 33.0254 266.368L33.0278 266.369L33.0281 266.369Z" fill="#898989" stroke="black" stroke-width="0.1"/>
<path d="M37.1835 263.005L37.1921 263.002L37.1744 262.955C37.1921 263.002 37.1922 263.002 37.1926 263.002L37.1941 263.001L37.2004 262.999L37.2252 262.99L37.3231 262.953L37.7055 262.808C38.0405 262.682 38.532 262.497 39.1582 262.261C40.4107 261.789 42.2018 261.116 44.3566 260.308C48.6663 258.693 54.4306 256.54 60.2492 254.392C66.0679 252.244 71.9407 250.101 76.4675 248.503C78.731 247.705 80.6575 247.043 82.0725 246.585C82.78 246.356 83.3591 246.178 83.7881 246.06C84.0027 246.001 84.1792 245.957 84.3151 245.929C84.4531 245.9 84.5437 245.89 84.5899 245.894L84.5899 245.894C85.0142 245.929 85.533 246.133 86.0911 246.456C86.6482 246.778 87.2403 247.215 87.8102 247.712C88.9508 248.707 89.9969 249.934 90.4949 250.941C90.7383 251.433 90.7935 252.114 90.4539 253.081C90.1139 254.049 89.3796 255.3 88.0497 256.925C85.3901 260.174 80.3573 264.912 71.3672 271.872C62.3859 278.825 54.2767 280.389 48.1976 280.126C42.7101 279.889 38.8745 278.164 37.5381 277.563C37.3938 277.498 37.2786 277.446 37.1936 277.41C36.9985 277.329 36.7959 277.257 36.5886 277.184C35.8601 276.925 35.0731 276.645 34.3467 275.863C33.4146 274.86 32.582 273.024 32.1465 269.33C31.9293 267.487 32.1017 266.173 32.4872 265.238C32.8723 264.305 33.4712 263.747 34.1141 263.417C35.2116 262.853 36.4358 262.95 36.964 262.992C37.0574 263 37.1291 263.005 37.1744 263.005H37.1835Z" fill="#727272" stroke="black" stroke-width="0.1"/>
<path d="M89.3668 250.332C89.2055 251.34 88.531 252.726 87.4288 254.349C86.3276 255.971 84.803 257.825 82.9478 259.769C79.2374 263.656 74.207 267.898 68.6029 271.356C62.9983 274.813 56.8228 277.485 50.8216 278.233C44.8225 278.981 38.999 277.807 34.0907 273.578C32.8014 272.233 32.3595 270.042 32.4545 267.442C32.5495 264.842 33.1804 261.846 34.0229 258.904C35.5366 253.618 37.7304 248.519 38.7127 246.235C38.8237 245.977 38.9192 245.755 38.9965 245.573C39.1827 245.134 39.6658 244.523 40.4068 243.796C41.1463 243.071 42.1382 242.234 43.3358 241.344C45.731 239.563 48.9469 237.57 52.6079 235.824C59.9297 232.333 69.0213 229.838 76.8872 232.004C83.1862 236.132 86.426 239.961 88.0311 243.132C89.6364 246.304 89.6084 248.822 89.3668 250.332Z" fill="#747474" stroke="black" stroke-width="0.1"/>
<mask id="path-14-inside-1" fill="white">
<path d="M126.231 193.151C124.695 192.962 103.184 203.311 103.184 203.311C103.184 203.311 148.95 249.482 154.575 252.138C154.687 252.633 166.696 257.619 166.778 258.096C170.679 256.391 180.023 254.184 181.268 253.418C182.805 252.472 190.167 250.969 190.215 250.632C190.335 249.79 165.371 241.726 147.793 223.913C134.314 210.253 129.825 193.881 126.231 193.151Z"/>
</mask>
<path d="M126.231 193.151C124.695 192.962 103.184 203.311 103.184 203.311C103.184 203.311 148.95 249.482 154.575 252.138C154.687 252.633 166.696 257.619 166.778 258.096C170.679 256.391 180.023 254.184 181.268 253.418C182.805 252.472 190.167 250.969 190.215 250.632C190.335 249.79 165.371 241.726 147.793 223.913C134.314 210.253 129.825 193.881 126.231 193.151Z" fill="#BFA983"/>
<path d="M126.231 193.151L126.251 193.053L126.243 193.052L126.231 193.151ZM103.184 203.311L103.141 203.221L103.014 203.281L103.113 203.381L103.184 203.311ZM154.575 252.138L154.672 252.116L154.661 252.068L154.617 252.048L154.575 252.138ZM166.778 258.096L166.679 258.113L166.7 258.239L166.818 258.187L166.778 258.096ZM181.268 253.418L181.32 253.503L181.32 253.503L181.268 253.418ZM190.215 250.632L190.314 250.646V250.646L190.215 250.632ZM147.793 223.913L147.722 223.983L147.722 223.983L147.793 223.913ZM126.243 193.052C126.181 193.044 126.102 193.05 126.014 193.065C125.923 193.08 125.816 193.104 125.693 193.137C125.447 193.204 125.135 193.306 124.766 193.439C124.028 193.705 123.06 194.094 121.943 194.566C119.709 195.511 116.875 196.787 114.09 198.069C111.305 199.351 108.567 200.639 106.526 201.606C105.506 202.09 104.66 202.494 104.068 202.776C103.773 202.917 103.541 203.029 103.383 203.104C103.304 203.142 103.243 203.171 103.203 203.191C103.182 203.201 103.167 203.208 103.156 203.213C103.151 203.216 103.147 203.217 103.145 203.219C103.143 203.219 103.142 203.22 103.142 203.22C103.141 203.22 103.141 203.22 103.141 203.22C103.141 203.221 103.141 203.221 103.184 203.311C103.227 203.401 103.228 203.401 103.228 203.401C103.228 203.401 103.228 203.4 103.228 203.4C103.229 203.4 103.23 203.4 103.231 203.399C103.234 203.398 103.238 203.396 103.243 203.393C103.253 203.388 103.269 203.381 103.289 203.371C103.33 203.352 103.39 203.323 103.469 203.285C103.627 203.209 103.859 203.098 104.155 202.957C104.746 202.674 105.592 202.271 106.612 201.787C108.653 200.82 111.389 199.532 114.174 198.251C116.958 196.969 119.79 195.694 122.021 194.751C123.137 194.279 124.101 193.891 124.834 193.627C125.2 193.495 125.507 193.395 125.745 193.33C125.864 193.298 125.965 193.275 126.046 193.262C126.129 193.249 126.185 193.246 126.219 193.25L126.243 193.052ZM103.184 203.311C103.113 203.381 103.113 203.381 103.114 203.382C103.114 203.382 103.114 203.383 103.115 203.383C103.117 203.385 103.119 203.387 103.121 203.39C103.127 203.395 103.135 203.403 103.146 203.415C103.168 203.437 103.201 203.47 103.245 203.514C103.331 203.601 103.46 203.731 103.628 203.9C103.965 204.239 104.459 204.736 105.091 205.37C106.353 206.638 108.163 208.452 110.352 210.637C114.731 215.007 120.627 220.862 126.7 226.8C132.772 232.737 139.021 238.758 144.104 243.461C146.645 245.813 148.895 247.835 150.687 249.354C151.582 250.113 152.364 250.746 153.01 251.232C153.655 251.716 154.17 252.058 154.532 252.228L154.617 252.048C154.276 251.886 153.774 251.556 153.131 251.072C152.489 250.589 151.71 249.959 150.816 249.201C149.028 247.686 146.78 245.665 144.24 243.315C139.159 238.614 132.912 232.594 126.84 226.657C120.768 220.72 114.872 214.866 110.493 210.496C108.304 208.311 106.495 206.497 105.232 205.229C104.601 204.595 104.107 204.098 103.77 203.759C103.602 203.59 103.473 203.46 103.387 203.373C103.343 203.329 103.31 203.296 103.288 203.274C103.277 203.263 103.269 203.254 103.263 203.249C103.261 203.246 103.259 203.244 103.257 203.242C103.256 203.242 103.256 203.241 103.256 203.241C103.255 203.24 103.255 203.24 103.184 203.311ZM154.477 252.16C154.483 252.187 154.497 252.209 154.509 252.225C154.521 252.241 154.536 252.256 154.551 252.271C154.583 252.3 154.624 252.331 154.673 252.364C154.771 252.431 154.909 252.512 155.08 252.605C155.422 252.791 155.902 253.029 156.474 253.301C157.618 253.846 159.134 254.531 160.647 255.215C162.16 255.899 163.671 256.582 164.809 257.124C165.379 257.395 165.853 257.63 166.187 257.811C166.354 257.902 166.484 257.978 166.572 258.039C166.617 258.069 166.648 258.093 166.667 258.111C166.677 258.12 166.682 258.126 166.684 258.129C166.687 258.133 166.681 258.127 166.679 258.113L166.876 258.079C166.871 258.05 166.857 258.027 166.846 258.011C166.834 257.995 166.819 257.979 166.804 257.965C166.773 257.937 166.733 257.906 166.685 257.873C166.588 257.807 166.451 257.727 166.282 257.635C165.943 257.451 165.465 257.214 164.895 256.943C163.755 256.4 162.242 255.717 160.729 255.033C159.215 254.349 157.702 253.665 156.56 253.121C155.989 252.849 155.513 252.612 155.176 252.429C155.007 252.337 154.875 252.26 154.785 252.199C154.74 252.168 154.708 252.143 154.687 252.124C154.677 252.114 154.671 252.108 154.668 252.104C154.665 252.1 154.669 252.104 154.672 252.116L154.477 252.16ZM166.818 258.187C168.761 257.338 172.065 256.362 175.046 255.501C176.535 255.071 177.943 254.669 179.056 254.328C179.613 254.157 180.097 254.001 180.482 253.863C180.863 253.726 181.155 253.605 181.32 253.503L181.216 253.333C181.07 253.423 180.797 253.538 180.414 253.675C180.034 253.811 179.553 253.966 178.998 254.137C177.887 254.478 176.481 254.878 174.991 255.309C172.014 256.169 168.696 257.149 166.737 258.004L166.818 258.187ZM181.32 253.503C181.692 253.274 182.428 253.006 183.337 252.727C184.242 252.448 185.306 252.161 186.325 251.893C187.343 251.625 188.318 251.376 189.04 251.173C189.401 251.071 189.701 250.98 189.914 250.904C190.019 250.866 190.107 250.83 190.17 250.797C190.201 250.781 190.23 250.763 190.253 250.744C190.272 250.728 190.307 250.696 190.314 250.646L190.116 250.618C190.12 250.589 190.137 250.58 190.126 250.59C190.118 250.596 190.103 250.606 190.077 250.62C190.026 250.646 189.949 250.678 189.846 250.715C189.64 250.789 189.346 250.879 188.986 250.98C188.266 251.183 187.295 251.431 186.274 251.7C185.255 251.968 184.187 252.255 183.278 252.535C182.373 252.814 181.612 253.089 181.216 253.333L181.32 253.503ZM190.314 250.646C190.32 250.601 190.304 250.562 190.288 250.535C190.271 250.507 190.247 250.481 190.221 250.458C190.17 250.411 190.096 250.359 190.003 250.303C189.818 250.191 189.544 250.051 189.191 249.883C188.484 249.546 187.448 249.092 186.15 248.516C183.552 247.363 179.896 245.72 175.687 243.548C167.268 239.202 156.643 232.739 147.864 223.843L147.722 223.983C156.522 232.9 167.167 239.375 175.595 243.726C179.809 245.901 183.47 247.545 186.069 248.698C187.369 249.275 188.401 249.728 189.105 250.063C189.457 250.231 189.724 250.368 189.9 250.474C189.988 250.528 190.049 250.572 190.086 250.606C190.105 250.623 190.114 250.634 190.117 250.639C190.121 250.646 190.113 250.637 190.116 250.618L190.314 250.646ZM147.864 223.843C141.134 217.023 136.648 209.524 133.393 203.635C131.767 200.693 130.444 198.146 129.306 196.292C128.737 195.365 128.21 194.606 127.711 194.055C127.213 193.506 126.732 193.151 126.251 193.053L126.211 193.249C126.629 193.334 127.074 193.65 127.562 194.189C128.049 194.727 128.568 195.473 129.136 196.397C130.271 198.245 131.587 200.782 133.218 203.732C136.475 209.626 140.973 217.143 147.722 223.983L147.864 223.843Z" fill="black" mask="url(#path-14-inside-1)"/>
<path d="M94.7885 194.376L94.7876 194.373C94.5742 192.726 95.2905 191.352 96.2394 190.535C96.7143 190.126 97.2457 189.859 97.7453 189.767C98.2447 189.674 98.7089 189.757 99.0573 190.043C99.0859 190.066 99.1352 190.117 99.2056 190.198C99.2752 190.278 99.3633 190.384 99.4689 190.515C99.68 190.777 99.9599 191.137 100.299 191.581C100.978 192.469 101.893 193.695 102.969 195.147C104.651 197.418 106.724 200.243 108.898 203.205C109.505 204.032 110.12 204.87 110.736 205.709C113.559 209.554 116.412 213.429 118.684 216.459C119.82 217.974 120.811 219.278 121.58 220.261C122.348 221.242 122.898 221.907 123.15 222.141L123.15 222.141C123.277 222.259 132.099 230.405 142.069 238.942C147.091 243.242 152.404 247.642 157.046 251.166C159.367 252.929 161.521 254.472 163.387 255.676C165.235 256.868 166.804 257.727 167.973 258.133C167.971 258.168 167.95 258.214 167.901 258.272C167.84 258.343 167.745 258.422 167.625 258.505C167.385 258.672 167.052 258.849 166.711 259.014C166.37 259.179 166.024 259.329 165.759 259.442C165.681 259.476 165.611 259.505 165.55 259.531C165.506 259.55 165.467 259.566 165.433 259.581C165.392 259.598 165.359 259.612 165.335 259.623C165.323 259.628 165.313 259.633 165.305 259.637C165.299 259.64 165.289 259.645 165.282 259.651C165.04 259.849 164.364 260.362 163.543 260.65C162.723 260.938 161.767 260.998 160.951 260.307L160.952 260.306L160.941 260.3C133.807 246.932 117.268 230.447 107.513 217.306C102.635 210.735 99.4531 205 97.4908 200.908C96.5096 198.862 95.8333 197.227 95.4025 196.103C95.187 195.542 95.0329 195.108 94.9327 194.815C94.8826 194.668 94.846 194.557 94.8219 194.482C94.8099 194.445 94.8009 194.416 94.7951 194.397L94.7885 194.376Z" fill="#B39D78" stroke="black" stroke-width="0.1"/>
<path d="M302.559 150.145C303.028 150.15 305.727 139.148 306.742 140.308C307.758 141.468 328.92 155.023 328.376 156.473C327.832 157.923 324.379 165.463 324.379 165.463C324.379 165.463 323.958 169.165 324.103 169.49C324.248 169.814 332.126 172.843 332.126 172.843C332.126 172.843 335.733 151.17 335.007 151.025C334.282 150.88 308.789 133.402 308.789 133.402L299.971 148.124L302.559 150.145Z" fill="#E0E0E0"/>
<path d="M307.247 135.978L302.559 150.145L242.225 174.764L228.751 159.595L245.372 150.145L307.247 135.978Z" fill="#E0E0E0"/>
<path d="M212.965 155.447C246.988 140.872 272.044 135.259 288.596 133.29C296.879 132.304 303.032 132.231 307.114 132.405C309.155 132.491 310.678 132.64 311.691 132.766C312.197 132.829 312.575 132.887 312.827 132.929C312.926 132.946 313.005 132.96 313.065 132.97C312.152 133.444 310.208 134.246 307.489 135.29C304.641 136.385 300.946 137.744 296.704 139.272C288.22 142.326 277.55 146.05 267.094 149.657C256.638 153.265 246.396 156.756 238.768 159.345C234.954 160.64 231.793 161.709 229.586 162.454C228.483 162.827 227.618 163.119 227.028 163.318L226.356 163.544L226.184 163.602L226.148 163.614L212.965 155.447Z" fill="#BFA983" stroke="black" stroke-width="0.1"/>
<path d="M339.769 155.081C339.769 155.082 339.769 155.082 339.769 155.083C339.765 155.138 339.759 155.22 339.747 155.328C339.724 155.544 339.679 155.866 339.596 156.287C339.428 157.128 339.103 158.364 338.471 159.942C337.209 163.099 334.724 167.622 329.831 173.083C320.051 183.999 300.653 198.662 262.18 213.638L261.835 208.865L261.864 208.844L262.016 208.735L262.61 208.31C263.131 207.937 263.895 207.389 264.871 206.692C266.823 205.296 269.618 203.299 272.996 200.893C279.751 196.082 288.832 189.635 298.138 183.094C307.444 176.553 316.974 169.918 324.627 164.729C328.453 162.135 331.81 159.903 334.434 158.225C336.99 156.59 338.848 155.484 339.769 155.081Z" fill="#BFA983" stroke="black" stroke-width="0.1"/>
<path d="M85.4458 200.34L85.3498 200.36V208.486L65.7066 217.755L51.5512 204.949L51.6666 204.898L52.2153 204.656C52.699 204.442 53.4154 204.125 54.3464 203.712C56.2084 202.885 58.9286 201.676 62.3616 200.141C69.2276 197.072 78.9448 192.705 90.3493 187.51C113.158 177.121 142.717 163.424 169.716 150.19C232.261 121.468 296.3 107.096 363.748 113.432C363.748 113.455 363.747 113.487 363.746 113.527C363.743 113.621 363.739 113.761 363.731 113.945C363.715 114.313 363.685 114.857 363.632 115.56C363.526 116.967 363.324 119.011 362.943 121.563C362.18 126.666 360.698 133.795 357.824 141.901C352.074 158.111 340.753 178.225 318.462 193.839C314.514 195.834 310.767 197.725 307.2 199.525C274.166 216.197 256.641 225.041 238.646 235.771C218.71 247.659 198.195 261.861 155.368 291.587L140.583 292.409L136.092 290.023L136.089 290.022L109.483 273.146L131.395 265.452L153.149 278.537L153.177 278.553L153.203 278.535L180.411 260.133C180.411 260.133 180.411 260.133 180.412 260.133C182.419 258.933 185.485 257.046 189.344 254.656L189.298 254.567C184.751 256.528 177.938 258.568 171.414 260.397C169.317 260.985 167.249 261.551 165.297 262.085C161.188 263.21 157.588 264.196 155.293 264.952C137.184 257.846 121.133 245.002 108.904 232.278C96.6695 219.55 88.2635 206.948 85.4458 200.34ZM207.998 243.107L207.998 243.109L208.008 243.103C232.496 228.009 270.21 206.713 292.59 198.296C311.157 191.313 326.437 176.74 335.461 162.599C339.973 155.529 342.923 148.565 343.935 142.708C344.948 136.854 344.027 132.093 340.776 129.451C332.94 123.083 321.965 120.175 309.767 119.437C297.568 118.698 284.139 120.129 271.388 122.445C250.089 126.312 230.675 132.648 222.037 135.467C220.333 136.023 219.048 136.442 218.251 136.678C214.603 137.76 207.809 140.68 199.672 144.448C191.533 148.217 182.049 152.837 173.02 157.322C163.991 161.807 155.418 166.157 149.102 169.385C145.944 170.999 143.35 172.333 141.546 173.264C140.644 173.729 139.939 174.093 139.46 174.341L138.913 174.624L138.774 174.697L138.738 174.715L138.73 174.72L94.6834 190.511L94.6503 190.522L94.6503 190.558L94.6498 193.228L94.6498 193.237L94.653 193.245C103.712 217.515 120.611 233.826 135.242 244.068C142.558 249.19 149.308 252.794 154.229 255.119C156.689 256.281 158.693 257.123 160.081 257.675C160.775 257.951 161.316 258.154 161.683 258.288C161.866 258.355 162.007 258.405 162.101 258.438C162.148 258.455 162.184 258.467 162.208 258.476L162.235 258.485L162.241 258.487L162.243 258.488C162.244 258.488 162.244 258.488 162.26 258.441L162.244 258.488L162.26 258.493L162.276 258.488L207.998 243.107Z" fill="#FFFCF8" stroke="black" stroke-width="0.1"/>
<path d="M127.611 292.367L112.727 282.831V279.629L127.611 289.058V292.367Z" fill="#FF6B00" stroke="black" stroke-width="0.1"/>
<path d="M108.225 283.993L140.424 303.527L140.424 303.528L140.432 303.531L140.435 303.523C140.432 303.531 140.432 303.531 140.432 303.531L140.432 303.531L140.433 303.531L140.436 303.532L140.448 303.537C140.458 303.541 140.474 303.546 140.494 303.554C140.535 303.568 140.595 303.589 140.674 303.615C140.831 303.666 141.062 303.736 141.356 303.812C141.945 303.962 142.789 304.132 143.81 304.213C145.853 304.374 148.607 304.178 151.449 302.747C152.913 302.011 171.206 291.643 195.074 278.117C206.858 271.439 220.001 263.99 233.148 256.55C253.036 245.296 272.934 234.062 288.153 225.544C295.762 221.285 302.202 217.704 306.886 215.14C309.227 213.858 311.13 212.83 312.52 212.098C313.216 211.732 313.782 211.441 314.212 211.228C314.643 211.015 314.932 210.883 315.075 210.836C315.375 210.736 315.79 210.496 316.302 210.133C316.815 209.77 317.431 209.281 318.133 208.679C319.538 207.476 321.295 205.819 323.291 203.811C327.282 199.794 332.228 194.368 337.223 188.34C342.218 182.313 347.262 175.683 351.447 169.257C355.546 162.964 358.823 156.864 360.424 151.718C360.423 151.767 360.423 151.821 360.421 151.881C360.415 152.209 360.4 152.696 360.363 153.328C360.289 154.593 360.128 156.443 359.779 158.776C359.081 163.444 357.634 170.052 354.634 177.809C348.635 193.322 336.428 213.432 311.593 231.815C297.064 241.515 275.695 254.074 257.959 264.209C249.09 269.277 241.13 273.738 235.387 276.932C232.515 278.529 230.198 279.81 228.598 280.691C227.799 281.132 227.179 281.472 226.758 281.703L226.28 281.965L226.159 282.032L226.141 282.041L216.037 276.915L216.016 276.904L215.994 276.914L153.086 305.04L153.083 305.042L153.107 305.086L153.083 305.042L153.083 305.042L153.082 305.042L153.078 305.044L153.063 305.052C153.056 305.056 153.046 305.061 153.035 305.067C153.025 305.071 153.014 305.077 153.002 305.083C152.948 305.11 152.868 305.15 152.765 305.199C152.558 305.298 152.258 305.436 151.882 305.595C151.129 305.912 150.076 306.31 148.87 306.634C146.456 307.283 143.444 307.63 141.019 306.447C137.13 304.549 128.919 299.629 121.678 295.182C118.058 292.958 114.681 290.854 112.209 289.305C110.973 288.531 109.963 287.895 109.263 287.453C108.912 287.232 108.639 287.06 108.454 286.943L108.243 286.809L108.189 286.775L107.846 284.896L108.225 283.993Z" fill="#FF6B00" stroke="black" stroke-width="0.1"/>
<path d="M230.078 174.365L242.224 164.399L253.262 199.851L216.712 222.057L216.078 220.534L230.078 174.365Z" fill="#C6C6C6"/>
<path d="M205.383 151.561C205.383 151.561 205.158 150.691 205.383 150.256C205.607 149.821 214.822 141.919 216.981 141.773C221.813 141.447 242.332 159.899 242.441 162.764C242.548 165.628 242.606 166.865 242.46 166.901C242.315 166.937 230.884 176.612 230.884 176.612L231.166 172.191L205.383 151.561Z" fill="#4C4C4C"/>
<path d="M208.68 149.821C208.944 149.821 215.551 146.993 216.888 147.392C218.224 147.791 224.46 152.54 224.46 152.54L216.982 156.893L208.68 149.821Z" fill="#A0A0A0"/>
<path d="M206.405 150.146C202.272 151.552 192.048 198.473 192.048 198.473C192.048 198.473 217.644 222.745 216.712 222.093C215.781 221.44 232.363 172.2 232.363 172.2L206.695 150.146H206.405V150.146Z" fill="#AFAFAF"/>
<path d="M232.363 171.972C232.363 171.972 242.151 164.43 242.224 163.053C242.296 161.675 228.012 147.898 227.142 147.971C226.272 148.043 216.981 155.802 216.981 155.802L208.118 148.624L206.239 150.095L232.108 172.149L232.363 171.972Z" fill="#BCBCBC"/>
<path d="M216.991 141.832L216.991 141.832C217.13 141.861 217.324 141.941 217.564 142.064C217.805 142.187 218.096 142.355 218.427 142.56C219.091 142.97 219.923 143.532 220.861 144.193C222.736 145.516 225.039 147.238 227.275 148.947C229.511 150.656 231.681 152.351 233.292 153.619C234.097 154.253 234.763 154.78 235.227 155.148C235.46 155.333 235.641 155.477 235.765 155.576L235.907 155.689L235.943 155.717L235.952 155.725L235.954 155.727L235.955 155.727C235.955 155.727 235.955 155.727 235.924 155.766L235.955 155.727L235.998 155.762L235.959 155.801L235.959 155.801L235.959 155.802L235.958 155.803L235.951 155.81C235.946 155.816 235.937 155.825 235.926 155.837C235.904 155.861 235.872 155.898 235.83 155.948C235.746 156.047 235.626 156.198 235.48 156.402C235.189 156.811 234.795 157.435 234.387 158.293C233.572 160.01 232.702 162.665 232.485 166.416C232.362 168.532 232.26 169.975 232.191 170.947C232.138 171.704 232.104 172.176 232.097 172.461C232.093 172.624 232.097 172.719 232.109 172.769C232.112 172.781 232.115 172.788 232.117 172.793C232.127 172.789 232.141 172.78 232.162 172.764C232.18 172.751 232.2 172.734 232.223 172.715C232.228 172.712 232.232 172.708 232.237 172.704C232.294 172.658 232.365 172.6 232.451 172.553C232.488 172.532 232.558 172.482 232.659 172.404C232.759 172.326 232.886 172.223 233.038 172.097C233.341 171.844 233.74 171.502 234.201 171.1C235.122 170.294 236.293 169.246 237.452 168.182C238.611 167.119 239.759 166.041 240.635 165.177C241.073 164.744 241.443 164.366 241.711 164.07C241.846 163.922 241.955 163.796 242.034 163.693C242.115 163.589 242.161 163.515 242.176 163.472L242.176 163.472C242.318 163.064 242.337 162.546 242.319 162.126C242.31 161.917 242.292 161.733 242.276 161.602C242.268 161.537 242.261 161.485 242.255 161.449L242.249 161.408L242.247 161.397L242.247 161.394L242.247 161.394L242.247 161.394L242.247 161.394L242.247 161.394L242.247 161.393L242.246 161.392L242.245 161.385L242.241 161.361L242.224 161.264L242.159 160.898C242.103 160.582 242.023 160.13 241.927 159.587C241.735 158.5 241.476 157.048 241.214 155.584C240.951 154.121 240.683 152.646 240.472 151.514C240.367 150.948 240.276 150.468 240.206 150.119C240.172 149.944 240.142 149.802 240.12 149.698C240.096 149.592 240.081 149.53 240.074 149.513M216.991 141.832L240.074 149.513L240.074 149.513M216.991 141.832C216.849 141.803 216.68 141.816 216.493 141.863C216.304 141.91 216.093 141.991 215.863 142.102C215.404 142.322 214.865 142.661 214.28 143.078C213.108 143.913 211.744 145.068 210.44 146.24C209.136 147.412 207.89 148.602 206.957 149.508C206.574 149.88 206.244 150.204 205.984 150.459C205.927 150.515 205.873 150.568 205.823 150.617C205.684 150.753 205.572 150.863 205.492 150.94C205.468 150.963 205.446 150.983 205.428 151M216.991 141.832L205.428 151M240.074 149.513C240.074 149.514 240.074 149.513 240.072 149.511C240.07 149.508 240.067 149.503 240.06 149.495C240.05 149.482 240.035 149.465 240.015 149.443C239.976 149.399 239.919 149.339 239.846 149.263C239.699 149.112 239.488 148.9 239.219 148.637C238.682 148.111 237.918 147.379 236.991 146.511C235.138 144.775 232.637 142.494 230.008 140.224C227.379 137.954 224.622 135.696 222.259 134.005C221.076 133.16 219.994 132.458 219.075 131.967C218.153 131.475 217.404 131.199 216.887 131.199C212.663 131.199 206.868 134.88 206.083 141.741L206.033 141.735L206.083 141.741C205.689 145.185 205.526 147.527 205.462 149.007C205.43 149.748 205.422 150.273 205.423 150.612C205.423 150.782 205.426 150.906 205.428 150.987C205.428 150.991 205.428 150.996 205.428 151M240.074 149.513L205.428 151" fill="#B2DDEA" stroke="black" stroke-width="0.1"/>
<path d="M217.209 167.819C216.812 165.693 215.421 164.17 214.103 164.416C212.784 164.662 212.037 166.585 212.434 168.711C212.831 170.836 214.222 172.36 215.541 172.114C216.859 171.867 217.606 169.945 217.209 167.819Z" fill="#282828"/>
<path d="M210.271 165.719L214.091 165.338C216.229 165.628 216.556 170.885 215.214 171.139C213.872 171.393 210.765 171.974 210.765 171.974L209.224 170.522L208.892 167.81L210.271 165.719Z" fill="#565656"/>
<path d="M210.175 168.057H204.084V168.492H210.175V168.057Z" fill="#565656"/>
<path d="M211.074 166.414L211.481 166.26L209.32 160.565L208.913 160.719L211.074 166.414Z" fill="#565656"/>
<path d="M208.113 176.95L208.497 177.154L211.356 171.776L210.972 171.572L208.113 176.95Z" fill="#565656"/>
<path d="M216.981 163.848L216.698 163.518L212.072 167.48L212.355 167.81L216.981 163.848Z" fill="#565656"/>
<path d="M215.805 174.371L216.094 174.045L211.533 170.007L211.245 170.333L215.805 174.371Z" fill="#565656"/>
<path d="M210.271 165.717C207.19 165.855 207.672 171.973 210.433 171.972C213.893 171.972 213.478 165.573 210.271 165.717ZM210.422 170.613C208.897 170.613 208.631 167.154 210.332 167.076C212.103 166.995 212.333 170.612 210.422 170.613Z" fill="#1E1E1E"/>
<path d="M209.02 154.834C195.212 155.453 197.372 182.869 209.744 182.866C225.249 182.862 223.389 154.189 209.02 154.834ZM209.619 180.093C199.924 180.095 198.232 158.102 209.051 157.605C220.311 157.089 221.768 180.089 209.619 180.093Z" fill="#1E1E1E"/>
<path d="M200.944 166.901C200.944 166.901 201.467 167.792 202.556 167.819C203.644 167.847 204.259 167.837 204.259 167.837C204.259 167.837 205.439 168.017 204.394 168.693L202.563 168.71C202.563 168.71 201.421 168.819 201.231 169.771C201.039 170.721 200.944 166.901 200.944 166.901Z" fill="#1E1E1E"/>
<path d="M205.382 179.319C205.382 179.319 206.415 179.322 206.992 178.399C207.569 177.477 207.873 176.942 207.873 176.942C207.873 176.942 208.627 176.018 208.68 177.262L207.763 178.846C207.763 178.846 207.275 179.885 207.997 180.533C208.719 181.181 205.382 179.319 205.382 179.319Z" fill="#1E1E1E"/>
<path d="M216.724 176.936C216.724 176.936 216.964 175.931 216.197 175.158C215.432 174.385 214.981 173.966 214.981 173.966C214.981 173.966 214.255 173.019 215.478 173.254L216.81 174.511C216.81 174.511 217.709 175.224 218.505 174.669C219.301 174.115 216.724 176.936 216.724 176.936Z" fill="#1E1E1E"/>
<path d="M208.713 156.893C208.713 156.893 208.107 157.729 208.517 158.736C208.927 159.744 209.183 160.304 209.183 160.304C209.183 160.304 209.489 161.456 208.451 160.77L207.704 159.099C207.704 159.099 207.147 158.096 206.198 158.302C205.249 158.508 208.713 156.893 208.713 156.893Z" fill="#1E1E1E"/>
<path d="M218.829 163.991C218.829 163.991 217.858 163.637 217.002 164.309C216.146 164.98 215.678 165.38 215.678 165.38C215.678 165.38 214.653 165.991 215.028 164.804L216.429 163.627C216.429 163.627 217.241 162.816 216.782 161.96C216.324 161.105 218.829 163.991 218.829 163.991Z" fill="#1E1E1E"/>
<path d="M225.196 196.199L227.422 198.25C227.422 198.25 236.153 192.449 236.563 191.57C236.973 190.691 240.078 176.687 240.078 176.687C240.078 176.687 240.313 175.691 239.375 175.34C238.438 174.988 232.227 175.926 230.762 177.683C229.297 179.441 224.727 191.277 225.196 196.199Z" fill="#707070"/>
<path d="M240.02 176.394C240.02 176.394 232.435 178.238 231.934 178.797C230.821 180.039 227.422 198.25 227.422 198.25L225.196 196.199C225.196 196.199 226.836 180.672 229.883 177.508C230.411 176.805 237.793 174.402 238.848 174.812C239.903 175.223 240.02 176.394 240.02 176.394Z" fill="#595959"/>
<path d="M226.141 190.08C226.141 190.08 233.282 184.187 233.868 183.719C234.453 183.25 235.684 182.605 236.153 182.84C236.621 183.074 237.329 183.124 237.442 183.836C237.554 184.548 238.126 184.924 238.028 185.301C237.929 185.677 232.326 191.394 231.456 191.336C230.586 191.277 226.97 192.033 226.97 192.033L226.141 190.08Z" fill="#7A7A7A"/>
<path d="M220.567 192.977C220.743 193.035 226.954 189.637 226.954 189.637L227.891 191.306L221.094 196.668L216.641 193.152C216.641 193.152 216.465 191.219 217.11 191.043C217.754 190.867 220.567 192.977 220.567 192.977Z" fill="#3D3D3D"/>
<path d="M232.461 190.867C231.993 190.632 230.996 189.929 231.7 188.933C232.403 187.937 234.278 185.711 234.571 185.359C234.864 185.007 236.094 184.187 236.446 184.304C236.797 184.422 238.145 184.363 238.028 185.3C237.911 186.238 236.27 188.582 236.27 188.582L232.461 190.867Z" fill="#3F3F3F"/>
<path d="M156.935 216.647L186.7 244.538V205.866L156.935 177.158V216.647Z" fill="#AFAFAF"/>
<path d="M207.13 233.379L186.7 244.538V205.866L207.629 195.319L207.13 233.379Z" fill="#C6C6C6"/>
<path d="M177.94 168.056L156.935 177.158L186.7 205.866L207.629 195.319L177.94 168.056Z" fill="#D8D8D8"/>
<path d="M161.398 173.264L161.398 173.265L161.406 173.262L161.388 173.215C161.406 173.262 161.406 173.262 161.406 173.262L161.407 173.262L161.409 173.261L161.415 173.258L161.443 173.247L161.549 173.205L161.954 173.043C162.303 172.903 162.805 172.703 163.413 172.462C164.629 171.981 166.269 171.335 167.968 170.68C169.667 170.024 171.425 169.359 172.874 168.837C174.326 168.315 175.464 167.939 175.927 167.859C175.973 167.851 176.044 167.862 176.144 167.898C176.243 167.934 176.364 167.992 176.506 168.072C176.79 168.233 177.154 168.479 177.586 168.798C178.45 169.438 179.583 170.369 180.891 171.497C183.506 173.752 186.817 176.789 190.071 179.837C193.324 182.884 196.519 185.942 198.9 188.238C200.091 189.386 201.078 190.343 201.768 191.013C202.113 191.349 202.383 191.612 202.567 191.792L202.778 191.997L202.832 192.049L202.845 192.063L202.849 192.066L202.849 192.067C202.85 192.067 202.85 192.067 202.885 192.031L202.85 192.067L202.855 192.073L202.863 192.076L202.863 192.076L202.863 192.077L202.864 192.077L202.869 192.08L202.889 192.09C202.906 192.099 202.932 192.112 202.964 192.131C203.028 192.167 203.118 192.221 203.223 192.293C203.432 192.436 203.697 192.648 203.922 192.924C204.148 193.199 204.332 193.536 204.383 193.93C204.435 194.324 204.354 194.779 204.042 195.293C203.889 195.544 203.579 195.823 203.144 196.121C202.71 196.419 202.157 196.732 201.524 197.054C200.258 197.697 198.675 198.373 197.094 199.023C196.528 199.256 195.962 199.486 195.41 199.709C194.424 200.109 193.485 200.49 192.679 200.835C192.051 201.104 191.502 201.353 191.074 201.573C190.647 201.791 190.333 201.985 190.18 202.147C189.902 202.441 189.555 202.502 189.183 202.424C188.808 202.346 188.412 202.128 188.048 201.869C187.685 201.609 187.357 201.311 187.12 201.078C187.001 200.961 186.906 200.861 186.84 200.789C186.807 200.754 186.781 200.726 186.764 200.706L186.744 200.684L186.739 200.679L186.738 200.677L186.738 200.677L186.738 200.677L186.738 200.677L186.734 200.672L186.7 200.709C186.734 200.672 186.734 200.672 186.733 200.672L186.733 200.671L186.729 200.668L186.715 200.656L186.661 200.607L186.449 200.414C186.264 200.245 185.991 199.998 185.644 199.682C184.95 199.05 183.957 198.144 182.762 197.052C180.371 194.867 177.173 191.932 173.94 188.934C170.706 185.936 167.439 182.875 164.91 180.436C163.646 179.217 162.567 178.153 161.77 177.331C161.371 176.92 161.043 176.57 160.797 176.291C160.551 176.011 160.39 175.806 160.324 175.684C160.051 175.183 159.986 174.784 160.036 174.469C160.085 174.154 160.251 173.916 160.452 173.737C160.654 173.558 160.89 173.439 161.077 173.366C161.171 173.329 161.251 173.303 161.308 173.287C161.337 173.279 161.359 173.273 161.375 173.27L161.392 173.266L161.397 173.265L161.398 173.264L161.398 173.264Z" fill="#BFA983" stroke="black" stroke-width="0.1"/>
<path d="M248.189 257.332L282.708 343.393" stroke="black" stroke-dasharray="1 1"/>
<rect x="283.208" y="335.26" width="22" height="20.081" rx="7.5" fill="white" fill-opacity="0.44" stroke="black" stroke-dasharray="1 1"/>
<path d="M291.046 348.397H290.44V344.989H286.378V348.397H285.777V341.288H286.378V344.481H290.44V341.288H291.046V348.397ZM296.119 347.729C295.768 348.24 295.206 348.495 294.435 348.495C293.871 348.495 293.443 348.332 293.15 348.007C292.857 347.678 292.708 347.193 292.701 346.552V343.114H293.282V346.479C293.282 347.484 293.689 347.987 294.503 347.987C295.349 347.987 295.885 347.637 296.109 346.938V343.114H296.695V348.397H296.129L296.119 347.729ZM298.873 348.397H298.287V340.897H298.873V348.397ZM301.119 348.397H300.533V340.897H301.119V348.397Z" fill="black"/>
<circle cx="248.141" cy="257.536" r="1.5" fill="black"/>
<rect x="304.104" y="262.724" width="62" height="30.6215" rx="7.5" fill="white" fill-opacity="0.44" stroke="black" stroke-dasharray="1 1"/>
<path d="M314.471 273.932C314.471 273.538 314.333 273.227 314.056 272.999C313.779 272.768 313.273 272.55 312.538 272.345C311.802 272.136 311.265 271.91 310.926 271.666C310.444 271.321 310.204 270.868 310.204 270.309C310.204 269.765 310.427 269.324 310.873 268.985C311.322 268.644 311.895 268.473 312.591 268.473C313.063 268.473 313.485 268.564 313.856 268.746C314.23 268.928 314.52 269.182 314.725 269.508C314.93 269.833 315.033 270.196 315.033 270.597H314.427C314.427 270.112 314.261 269.723 313.929 269.43C313.597 269.133 313.151 268.985 312.591 268.985C312.048 268.985 311.615 269.107 311.292 269.352C310.97 269.592 310.809 269.908 310.809 270.299C310.809 270.66 310.954 270.955 311.244 271.183C311.533 271.41 311.997 271.612 312.635 271.788C313.273 271.961 313.757 272.141 314.085 272.33C314.414 272.516 314.662 272.739 314.828 272.999C314.994 273.259 315.077 273.567 315.077 273.922C315.077 274.482 314.852 274.931 314.403 275.27C313.957 275.608 313.368 275.777 312.635 275.777C312.134 275.777 311.673 275.688 311.253 275.509C310.837 275.33 310.519 275.079 310.301 274.757C310.086 274.435 309.979 274.065 309.979 273.648H310.58C310.58 274.15 310.767 274.545 311.141 274.835C311.515 275.125 312.014 275.27 312.635 275.27C313.189 275.27 313.633 275.147 313.968 274.903C314.304 274.659 314.471 274.335 314.471 273.932ZM318.285 275.777C317.835 275.777 317.429 275.667 317.064 275.445C316.703 275.224 316.421 274.916 316.219 274.522C316.017 274.125 315.917 273.681 315.917 273.189V272.979C315.917 272.472 316.014 272.014 316.209 271.607C316.408 271.201 316.683 270.882 317.035 270.65C317.386 270.416 317.767 270.299 318.177 270.299C318.819 270.299 319.326 270.519 319.701 270.958C320.078 271.394 320.267 271.992 320.267 272.75V273.077H316.498V273.189C316.498 273.788 316.668 274.288 317.01 274.688C317.355 275.086 317.788 275.284 318.309 275.284C318.622 275.284 318.897 275.227 319.134 275.113C319.375 274.999 319.593 274.817 319.789 274.566L320.155 274.845C319.725 275.466 319.102 275.777 318.285 275.777ZM318.177 270.797C317.738 270.797 317.367 270.958 317.064 271.28C316.764 271.603 316.582 272.035 316.517 272.579H319.686V272.516C319.67 272.008 319.525 271.594 319.251 271.275C318.978 270.956 318.62 270.797 318.177 270.797ZM324.74 275.68C324.681 275.514 324.644 275.268 324.627 274.942C324.422 275.209 324.16 275.416 323.841 275.562C323.526 275.706 323.19 275.777 322.835 275.777C322.328 275.777 321.916 275.636 321.6 275.353C321.288 275.069 321.131 274.711 321.131 274.278C321.131 273.764 321.345 273.357 321.771 273.058C322.201 272.758 322.798 272.608 323.563 272.608H324.623V272.008C324.623 271.63 324.505 271.334 324.271 271.119C324.04 270.901 323.701 270.792 323.255 270.792C322.848 270.792 322.512 270.896 322.245 271.104C321.978 271.313 321.844 271.563 321.844 271.856L321.258 271.852C321.258 271.432 321.454 271.069 321.844 270.763C322.235 270.453 322.715 270.299 323.285 270.299C323.874 270.299 324.338 270.447 324.676 270.743C325.018 271.036 325.194 271.446 325.204 271.974V274.474C325.204 274.985 325.257 275.367 325.365 275.621V275.68H324.74ZM322.904 275.26C323.294 275.26 323.643 275.165 323.949 274.977C324.258 274.788 324.483 274.535 324.623 274.22V273.058H323.578C322.995 273.064 322.539 273.172 322.21 273.38C321.882 273.585 321.717 273.868 321.717 274.229C321.717 274.526 321.826 274.771 322.044 274.967C322.266 275.162 322.552 275.26 322.904 275.26ZM327.674 269.044V270.396H328.768V270.875H327.674V274.396C327.674 274.688 327.726 274.907 327.831 275.05C327.938 275.193 328.115 275.265 328.363 275.265C328.46 275.265 328.618 275.248 328.836 275.216L328.861 275.694C328.708 275.75 328.5 275.777 328.236 275.777C327.835 275.777 327.544 275.662 327.362 275.431C327.18 275.196 327.088 274.853 327.088 274.4V270.875H326.117V270.396H327.088V269.044H327.674ZM333.622 271.803C333.338 271.461 333.132 271.157 333.001 270.89C332.875 270.619 332.811 270.353 332.811 270.089C332.811 269.591 332.959 269.197 333.255 268.907C333.552 268.618 333.949 268.473 334.447 268.473C334.899 268.473 335.265 268.604 335.545 268.868C335.825 269.129 335.965 269.461 335.965 269.864C335.965 270.333 335.695 270.794 335.155 271.246L334.374 271.852L336.327 274.127C336.623 273.648 336.771 273.106 336.771 272.501H337.313C337.313 273.308 337.105 273.99 336.688 274.547L337.66 275.68H336.957L336.341 274.967C336.084 275.221 335.786 275.419 335.448 275.562C335.112 275.706 334.758 275.777 334.383 275.777C333.706 275.777 333.169 275.605 332.772 275.26C332.375 274.911 332.176 274.448 332.176 273.868C332.176 273.523 332.277 273.198 332.479 272.892C332.684 272.582 333.042 272.236 333.553 271.852L333.622 271.803ZM334.383 275.284C334.68 275.284 334.966 275.222 335.243 275.099C335.523 274.972 335.773 274.793 335.995 274.562L334.007 272.257L333.939 272.184L333.714 272.354C333.076 272.875 332.757 273.38 332.757 273.868C332.757 274.295 332.904 274.638 333.197 274.898C333.49 275.156 333.885 275.284 334.383 275.284ZM333.397 270.069C333.397 270.466 333.617 270.935 334.056 271.476L334.696 270.987C334.904 270.838 335.075 270.673 335.208 270.494C335.342 270.315 335.409 270.105 335.409 269.864C335.409 269.61 335.321 269.399 335.145 269.229C334.969 269.057 334.735 268.971 334.442 268.971C334.123 268.971 333.869 269.073 333.68 269.278C333.491 269.483 333.397 269.747 333.397 270.069ZM310.448 287.68V280.57H312.435C313.018 280.57 313.54 280.704 314.002 280.971C314.465 281.234 314.824 281.614 315.082 282.108C315.342 282.603 315.472 283.166 315.472 283.798V284.452C315.472 285.087 315.344 285.65 315.086 286.142C314.829 286.633 314.466 287.012 313.998 287.279C313.532 287.546 312.997 287.68 312.391 287.68H310.448ZM311.048 281.083V287.172H312.396C313.145 287.172 313.745 286.924 314.198 286.43C314.65 285.932 314.876 285.259 314.876 284.413V283.788C314.876 282.971 314.653 282.317 314.208 281.825C313.762 281.334 313.174 281.086 312.445 281.083H311.048ZM319.305 282.895C319.181 282.872 319.05 282.86 318.91 282.86C318.545 282.86 318.236 282.963 317.982 283.168C317.731 283.37 317.552 283.664 317.445 284.052V287.68H316.864V282.396H317.435L317.445 283.236C317.754 282.611 318.25 282.299 318.934 282.299C319.097 282.299 319.225 282.32 319.32 282.362L319.305 282.895ZM321.996 286.84L323.539 282.396H324.168L321.913 288.578L321.795 288.852C321.506 289.493 321.058 289.813 320.453 289.813C320.313 289.813 320.163 289.791 320.003 289.745L319.999 289.262L320.301 289.291C320.588 289.291 320.819 289.219 320.995 289.076C321.174 288.936 321.325 288.694 321.449 288.349L321.708 287.636L319.715 282.396H320.355L321.996 286.84ZM331.668 285.932C331.668 285.538 331.53 285.227 331.253 284.999C330.977 284.768 330.471 284.55 329.735 284.345C328.999 284.136 328.462 283.91 328.124 283.666C327.642 283.321 327.401 282.868 327.401 282.309C327.401 281.765 327.624 281.324 328.07 280.985C328.519 280.644 329.092 280.473 329.789 280.473C330.261 280.473 330.682 280.564 331.053 280.746C331.428 280.928 331.717 281.182 331.922 281.508C332.127 281.833 332.23 282.196 332.23 282.597H331.625C331.625 282.112 331.458 281.723 331.126 281.43C330.794 281.133 330.348 280.985 329.789 280.985C329.245 280.985 328.812 281.107 328.49 281.352C328.167 281.592 328.006 281.908 328.006 282.299C328.006 282.66 328.151 282.955 328.441 283.183C328.731 283.41 329.194 283.612 329.833 283.788C330.471 283.961 330.954 284.141 331.283 284.33C331.611 284.516 331.859 284.739 332.025 284.999C332.191 285.259 332.274 285.567 332.274 285.922C332.274 286.482 332.049 286.931 331.6 287.27C331.154 287.608 330.565 287.777 329.833 287.777C329.331 287.777 328.871 287.688 328.451 287.509C328.034 287.33 327.717 287.079 327.499 286.757C327.284 286.435 327.176 286.065 327.176 285.648H327.777C327.777 286.15 327.964 286.545 328.338 286.835C328.713 287.125 329.211 287.27 329.833 287.27C330.386 287.27 330.83 287.147 331.166 286.903C331.501 286.659 331.668 286.335 331.668 285.932ZM334.344 281.044V282.396H335.438V282.875H334.344V286.396C334.344 286.688 334.396 286.907 334.5 287.05C334.608 287.193 334.785 287.265 335.033 287.265C335.13 287.265 335.288 287.248 335.506 287.216L335.531 287.694C335.378 287.75 335.169 287.777 334.906 287.777C334.505 287.777 334.214 287.662 334.032 287.431C333.849 287.196 333.758 286.853 333.758 286.4V282.875H332.787V282.396H333.758V281.044H334.344ZM336.229 284.96C336.229 284.452 336.327 283.995 336.522 283.588C336.721 283.181 336.999 282.865 337.357 282.641C337.718 282.413 338.127 282.299 338.583 282.299C339.286 282.299 339.855 282.546 340.292 283.041C340.728 283.533 340.946 284.185 340.946 284.999V285.121C340.946 285.632 340.847 286.093 340.648 286.503C340.453 286.91 340.176 287.224 339.818 287.445C339.46 287.667 339.051 287.777 338.592 287.777C337.892 287.777 337.323 287.532 336.883 287.04C336.447 286.545 336.229 285.891 336.229 285.077V284.96ZM336.815 285.121C336.815 285.753 336.978 286.272 337.303 286.679C337.632 287.082 338.062 287.284 338.592 287.284C339.12 287.284 339.546 287.082 339.872 286.679C340.2 286.272 340.365 285.736 340.365 285.072V284.96C340.365 284.556 340.29 284.187 340.14 283.852C339.99 283.516 339.78 283.257 339.51 283.075C339.24 282.89 338.931 282.797 338.583 282.797C338.062 282.797 337.637 283.002 337.308 283.412C336.979 283.819 336.815 284.353 336.815 285.014V285.121ZM344.598 282.895C344.474 282.872 344.343 282.86 344.203 282.86C343.838 282.86 343.529 282.963 343.275 283.168C343.024 283.37 342.845 283.664 342.738 284.052V287.68H342.157V282.396H342.728L342.738 283.236C343.047 282.611 343.543 282.299 344.227 282.299C344.39 282.299 344.518 282.32 344.613 282.362L344.598 282.895ZM348.666 287.68C348.607 287.514 348.569 287.268 348.553 286.942C348.348 287.209 348.086 287.416 347.767 287.562C347.451 287.706 347.116 287.777 346.761 287.777C346.253 287.777 345.842 287.636 345.526 287.353C345.213 287.069 345.057 286.711 345.057 286.278C345.057 285.764 345.27 285.357 345.697 285.058C346.126 284.758 346.724 284.608 347.489 284.608H348.548V284.008C348.548 283.63 348.431 283.334 348.197 283.119C347.966 282.901 347.627 282.792 347.181 282.792C346.774 282.792 346.437 282.896 346.17 283.104C345.903 283.313 345.77 283.563 345.77 283.856L345.184 283.852C345.184 283.432 345.379 283.069 345.77 282.763C346.161 282.453 346.641 282.299 347.21 282.299C347.8 282.299 348.264 282.447 348.602 282.743C348.944 283.036 349.12 283.446 349.129 283.974V286.474C349.129 286.985 349.183 287.367 349.291 287.621V287.68H348.666ZM346.83 287.26C347.22 287.26 347.569 287.165 347.875 286.977C348.184 286.788 348.408 286.535 348.548 286.22V285.058H347.503C346.921 285.064 346.465 285.172 346.136 285.38C345.807 285.585 345.643 285.868 345.643 286.229C345.643 286.526 345.752 286.771 345.97 286.967C346.192 287.162 346.478 287.26 346.83 287.26ZM350.458 284.989C350.458 284.162 350.64 283.508 351.004 283.026C351.372 282.541 351.87 282.299 352.499 282.299C353.218 282.299 353.765 282.585 354.139 283.158L354.168 282.396H354.715V287.572C354.715 288.253 354.525 288.791 354.144 289.188C353.763 289.586 353.247 289.784 352.596 289.784C352.228 289.784 351.877 289.701 351.542 289.535C351.209 289.372 350.947 289.154 350.755 288.881L351.083 288.529C351.496 289.037 351.987 289.291 352.557 289.291C353.045 289.291 353.426 289.146 353.7 288.856C353.973 288.57 354.115 288.171 354.125 287.66V286.996C353.75 287.517 353.205 287.777 352.489 287.777C351.877 287.777 351.385 287.533 351.014 287.045C350.643 286.557 350.458 285.897 350.458 285.067V284.989ZM351.048 285.092C351.048 285.766 351.183 286.298 351.454 286.688C351.724 287.076 352.105 287.27 352.596 287.27C353.316 287.27 353.825 286.947 354.125 286.303V283.847C353.988 283.508 353.791 283.251 353.534 283.075C353.277 282.896 352.967 282.807 352.606 282.807C352.114 282.807 351.732 283 351.458 283.388C351.185 283.772 351.048 284.34 351.048 285.092ZM358.285 287.777C357.835 287.777 357.429 287.667 357.064 287.445C356.703 287.224 356.421 286.916 356.219 286.522C356.017 286.125 355.917 285.681 355.917 285.189V284.979C355.917 284.472 356.014 284.014 356.209 283.607C356.408 283.201 356.683 282.882 357.035 282.65C357.386 282.416 357.767 282.299 358.177 282.299C358.819 282.299 359.326 282.519 359.701 282.958C360.078 283.394 360.267 283.992 360.267 284.75V285.077H356.498V285.189C356.498 285.788 356.668 286.288 357.01 286.688C357.355 287.086 357.788 287.284 358.309 287.284C358.622 287.284 358.897 287.227 359.134 287.113C359.375 286.999 359.593 286.817 359.789 286.566L360.155 286.845C359.725 287.466 359.102 287.777 358.285 287.777ZM358.177 282.797C357.738 282.797 357.367 282.958 357.064 283.28C356.764 283.603 356.582 284.035 356.517 284.579H359.686V284.516C359.67 284.008 359.525 283.594 359.251 283.275C358.978 282.956 358.62 282.797 358.177 282.797Z" fill="black"/>
<path d="M312.793 182.311L303.194 276.903L184.363 187.791" stroke="black" stroke-dasharray="1 1"/>
<circle cx="254.536" cy="147.354" r="1.5" fill="black"/>
<circle cx="313.214" cy="182.311" r="1.5" fill="black"/>
<circle cx="183.709" cy="186.961" r="1.5" fill="black"/>
<path d="M303.652 277.361L255.036 147.831" stroke="black" stroke-dasharray="1 1"/>
<path d="M157.968 123.145L205.228 162.281" stroke="black" stroke-dasharray="1 1"/>
<rect x="100.012" y="97.2012" width="58" height="30.6215" rx="7.5" fill="white" fill-opacity="0.44" stroke="black" stroke-dasharray="1 1"/>
<path d="M111.013 107.94C110.932 108.689 110.663 109.262 110.208 109.659C109.755 110.056 109.151 110.255 108.396 110.255C107.869 110.255 107.402 110.123 106.995 109.859C106.591 109.596 106.278 109.223 106.057 108.741C105.836 108.256 105.723 107.703 105.72 107.081V106.158C105.72 105.527 105.831 104.967 106.052 104.479C106.274 103.99 106.591 103.614 107.004 103.351C107.421 103.084 107.9 102.95 108.44 102.95C109.202 102.95 109.802 103.157 110.242 103.57C110.684 103.98 110.942 104.549 111.013 105.274H110.408C110.258 104.067 109.602 103.463 108.44 103.463C107.795 103.463 107.281 103.704 106.897 104.186C106.516 104.667 106.326 105.333 106.326 106.183V107.052C106.326 107.872 106.511 108.526 106.882 109.015C107.257 109.503 107.761 109.747 108.396 109.747C109.024 109.747 109.498 109.597 109.817 109.298C110.136 108.995 110.333 108.543 110.408 107.94H111.013ZM112.014 107.438C112.014 106.93 112.112 106.472 112.307 106.065C112.506 105.659 112.784 105.343 113.142 105.118C113.503 104.89 113.912 104.776 114.368 104.776C115.071 104.776 115.64 105.024 116.077 105.519C116.513 106.01 116.731 106.663 116.731 107.477V107.599C116.731 108.11 116.632 108.57 116.433 108.98C116.238 109.387 115.961 109.701 115.603 109.923C115.245 110.144 114.836 110.255 114.377 110.255C113.678 110.255 113.108 110.009 112.668 109.518C112.232 109.023 112.014 108.368 112.014 107.555V107.438ZM112.6 107.599C112.6 108.23 112.763 108.749 113.088 109.156C113.417 109.56 113.847 109.762 114.377 109.762C114.905 109.762 115.331 109.56 115.657 109.156C115.986 108.749 116.15 108.214 116.15 107.55V107.438C116.15 107.034 116.075 106.664 115.925 106.329C115.776 105.994 115.566 105.735 115.295 105.553C115.025 105.367 114.716 105.274 114.368 105.274C113.847 105.274 113.422 105.479 113.093 105.89C112.764 106.297 112.6 106.83 112.6 107.491V107.599ZM118.474 104.874L118.494 105.733C118.689 105.414 118.933 105.175 119.226 105.016C119.519 104.856 119.845 104.776 120.203 104.776C121.036 104.776 121.565 105.118 121.79 105.802C121.978 105.473 122.231 105.221 122.546 105.045C122.862 104.866 123.21 104.776 123.591 104.776C124.724 104.776 125.302 105.395 125.325 106.632V110.157H124.739V106.676C124.736 106.204 124.633 105.854 124.431 105.626C124.233 105.398 123.907 105.284 123.455 105.284C123.035 105.291 122.68 105.427 122.39 105.694C122.1 105.958 121.939 106.28 121.907 106.661V110.157H121.321V106.632C121.318 106.179 121.21 105.842 120.999 105.621C120.79 105.396 120.468 105.284 120.032 105.284C119.664 105.284 119.348 105.39 119.084 105.602C118.821 105.81 118.625 106.121 118.499 106.534V110.157H117.913V104.874H118.474ZM127.341 104.874L127.361 105.733C127.556 105.414 127.8 105.175 128.093 105.016C128.386 104.856 128.712 104.776 129.07 104.776C129.903 104.776 130.432 105.118 130.657 105.802C130.846 105.473 131.098 105.221 131.414 105.045C131.729 104.866 132.078 104.776 132.458 104.776C133.591 104.776 134.169 105.395 134.192 106.632V110.157H133.606V106.676C133.603 106.204 133.5 105.854 133.298 105.626C133.1 105.398 132.774 105.284 132.322 105.284C131.902 105.291 131.547 105.427 131.257 105.694C130.968 105.958 130.806 106.28 130.774 106.661V110.157H130.188V106.632C130.185 106.179 130.077 105.842 129.866 105.621C129.657 105.396 129.335 105.284 128.899 105.284C128.531 105.284 128.215 105.39 127.952 105.602C127.688 105.81 127.493 106.121 127.366 106.534V110.157H126.78V104.874H127.341ZM139.011 110.157C138.953 109.991 138.915 109.745 138.899 109.42C138.694 109.687 138.432 109.894 138.113 110.04C137.797 110.183 137.462 110.255 137.107 110.255C136.599 110.255 136.187 110.113 135.872 109.83C135.559 109.547 135.403 109.189 135.403 108.756C135.403 108.242 135.616 107.835 136.042 107.535C136.472 107.236 137.069 107.086 137.834 107.086H138.894V106.485C138.894 106.108 138.777 105.812 138.542 105.597C138.311 105.379 137.973 105.27 137.527 105.27C137.12 105.27 136.783 105.374 136.516 105.582C136.249 105.79 136.116 106.041 136.116 106.334L135.53 106.329C135.53 105.909 135.725 105.546 136.116 105.24C136.506 104.931 136.986 104.776 137.556 104.776C138.145 104.776 138.609 104.924 138.948 105.221C139.29 105.514 139.465 105.924 139.475 106.451V108.951C139.475 109.462 139.529 109.845 139.636 110.099V110.157H139.011ZM137.175 109.737C137.566 109.737 137.914 109.643 138.22 109.454C138.529 109.265 138.754 109.013 138.894 108.697V107.535H137.849C137.266 107.542 136.811 107.649 136.482 107.857C136.153 108.062 135.989 108.346 135.989 108.707C135.989 109.003 136.098 109.249 136.316 109.444C136.537 109.64 136.824 109.737 137.175 109.737ZM141.594 104.874L141.614 105.777C141.812 105.452 142.06 105.204 142.356 105.035C142.652 104.863 142.979 104.776 143.337 104.776C143.904 104.776 144.325 104.936 144.602 105.255C144.879 105.574 145.019 106.052 145.022 106.69V110.157H144.441V106.686C144.438 106.214 144.337 105.862 144.138 105.631C143.943 105.4 143.629 105.284 143.196 105.284C142.834 105.284 142.514 105.398 142.234 105.626C141.957 105.851 141.752 106.155 141.619 106.539V110.157H141.038V104.874H141.594ZM146.301 107.467C146.301 106.646 146.484 105.994 146.848 105.509C147.216 105.021 147.714 104.776 148.342 104.776C149.055 104.776 149.599 105.058 149.973 105.621V102.657H150.554V110.157H150.007L149.983 109.454C149.609 109.988 149.058 110.255 148.333 110.255C147.724 110.255 147.232 110.011 146.858 109.522C146.487 109.031 146.301 108.368 146.301 107.535V107.467ZM146.892 107.569C146.892 108.243 147.027 108.775 147.297 109.166C147.568 109.553 147.948 109.747 148.44 109.747C149.159 109.747 149.67 109.43 149.973 108.795V106.314C149.67 105.628 149.163 105.284 148.45 105.284C147.958 105.284 147.576 105.478 147.302 105.865C147.029 106.249 146.892 106.817 146.892 107.569ZM110.002 120.409C110.002 120.015 109.864 119.704 109.587 119.477C109.311 119.245 108.805 119.027 108.069 118.822C107.333 118.614 106.796 118.388 106.458 118.144C105.976 117.799 105.735 117.346 105.735 116.786C105.735 116.243 105.958 115.801 106.404 115.463C106.853 115.121 107.426 114.95 108.123 114.95C108.595 114.95 109.016 115.041 109.387 115.224C109.762 115.406 110.051 115.66 110.256 115.985C110.461 116.311 110.564 116.674 110.564 117.074H109.958C109.958 116.589 109.792 116.2 109.46 115.907C109.128 115.611 108.682 115.463 108.123 115.463C107.579 115.463 107.146 115.585 106.824 115.829C106.501 116.07 106.34 116.386 106.34 116.776C106.34 117.138 106.485 117.432 106.775 117.66C107.065 117.888 107.528 118.09 108.167 118.266C108.805 118.438 109.288 118.619 109.617 118.808C109.945 118.993 110.193 119.216 110.359 119.477C110.525 119.737 110.608 120.045 110.608 120.399C110.608 120.959 110.383 121.409 109.934 121.747C109.488 122.086 108.899 122.255 108.167 122.255C107.665 122.255 107.205 122.165 106.785 121.986C106.368 121.807 106.051 121.557 105.833 121.234C105.618 120.912 105.51 120.543 105.51 120.126H106.111C106.111 120.627 106.298 121.023 106.672 121.312C107.047 121.602 107.545 121.747 108.167 121.747C108.72 121.747 109.164 121.625 109.5 121.381C109.835 121.137 110.002 120.813 110.002 120.409ZM112.678 115.521V116.874H113.772V117.353H112.678V120.873C112.678 121.166 112.73 121.384 112.834 121.527C112.942 121.671 113.119 121.742 113.367 121.742C113.464 121.742 113.622 121.726 113.84 121.693L113.865 122.172C113.712 122.227 113.503 122.255 113.24 122.255C112.839 122.255 112.548 122.139 112.366 121.908C112.183 121.674 112.092 121.33 112.092 120.878V117.353H111.121V116.874H112.092V115.521H112.678ZM118.318 122.157C118.259 121.991 118.222 121.745 118.206 121.42C118 121.687 117.738 121.894 117.419 122.04C117.104 122.183 116.768 122.255 116.414 122.255C115.906 122.255 115.494 122.113 115.178 121.83C114.866 121.547 114.709 121.189 114.709 120.756C114.709 120.242 114.923 119.835 115.349 119.535C115.779 119.236 116.376 119.086 117.141 119.086H118.201V118.485C118.201 118.108 118.083 117.812 117.849 117.597C117.618 117.379 117.279 117.27 116.833 117.27C116.427 117.27 116.09 117.374 115.823 117.582C115.556 117.79 115.422 118.041 115.422 118.334L114.836 118.329C114.836 117.909 115.032 117.546 115.422 117.24C115.813 116.931 116.293 116.776 116.863 116.776C117.452 116.776 117.916 116.924 118.254 117.221C118.596 117.514 118.772 117.924 118.782 118.451V120.951C118.782 121.462 118.835 121.845 118.943 122.099V122.157H118.318ZM116.482 121.737C116.873 121.737 117.221 121.643 117.527 121.454C117.836 121.265 118.061 121.013 118.201 120.697V119.535H117.156C116.573 119.542 116.117 119.649 115.789 119.857C115.46 120.062 115.295 120.346 115.295 120.707C115.295 121.003 115.404 121.249 115.623 121.444C115.844 121.64 116.13 121.737 116.482 121.737ZM121.252 115.521V116.874H122.346V117.353H121.252V120.873C121.252 121.166 121.305 121.384 121.409 121.527C121.516 121.671 121.694 121.742 121.941 121.742C122.039 121.742 122.196 121.726 122.415 121.693L122.439 122.172C122.286 122.227 122.078 122.255 121.814 122.255C121.414 122.255 121.122 122.139 120.94 121.908C120.758 121.674 120.667 121.33 120.667 120.878V117.353H119.695V116.874H120.667V115.521H121.252ZM124.211 122.157H123.625V116.874H124.211V122.157ZM123.523 115.346C123.523 115.235 123.559 115.142 123.63 115.067C123.702 114.989 123.8 114.95 123.923 114.95C124.047 114.95 124.145 114.989 124.216 115.067C124.291 115.142 124.329 115.235 124.329 115.346C124.329 115.456 124.291 115.549 124.216 115.624C124.145 115.699 124.047 115.736 123.923 115.736C123.8 115.736 123.702 115.699 123.63 115.624C123.559 115.549 123.523 115.456 123.523 115.346ZM125.481 119.438C125.481 118.93 125.579 118.472 125.774 118.065C125.972 117.659 126.251 117.343 126.609 117.118C126.97 116.89 127.379 116.776 127.834 116.776C128.538 116.776 129.107 117.024 129.543 117.519C129.98 118.01 130.198 118.663 130.198 119.477V119.599C130.198 120.11 130.098 120.57 129.9 120.98C129.705 121.387 129.428 121.701 129.07 121.923C128.712 122.144 128.303 122.255 127.844 122.255C127.144 122.255 126.575 122.009 126.135 121.518C125.699 121.023 125.481 120.368 125.481 119.555V119.438ZM126.067 119.599C126.067 120.23 126.23 120.749 126.555 121.156C126.884 121.56 127.314 121.762 127.844 121.762C128.372 121.762 128.798 121.56 129.124 121.156C129.452 120.749 129.617 120.214 129.617 119.55V119.438C129.617 119.034 129.542 118.664 129.392 118.329C129.242 117.994 129.032 117.735 128.762 117.553C128.492 117.367 128.183 117.274 127.834 117.274C127.314 117.274 126.889 117.479 126.56 117.89C126.231 118.297 126.067 118.83 126.067 119.491V119.599ZM131.965 116.874L131.985 117.777C132.183 117.452 132.431 117.204 132.727 117.035C133.023 116.863 133.35 116.776 133.708 116.776C134.275 116.776 134.696 116.936 134.973 117.255C135.25 117.574 135.39 118.052 135.393 118.69V122.157H134.812V118.686C134.809 118.214 134.708 117.862 134.509 117.631C134.314 117.4 134 117.284 133.567 117.284C133.206 117.284 132.885 117.398 132.605 117.626C132.328 117.851 132.123 118.155 131.99 118.539V122.157H131.409V116.874H131.965Z" fill="black"/>
<circle cx="205.63" cy="162.47" r="1.5" fill="black"/>
<rect x="6.98779" y="173.665" width="35" height="30.6215" rx="7.5" fill="white" fill-opacity="0.44" stroke="black" stroke-dasharray="1 1"/>
<path d="M11.5796 185.512L14.2017 191.786L16.8335 185.512H17.6343V192.621H17.0337V189.525L17.0825 186.352L14.436 192.621H13.9722L11.3354 186.376L11.3843 189.506V192.621H10.7837V185.512H11.5796ZM18.9771 189.901C18.9771 189.394 19.0747 188.936 19.27 188.529C19.4686 188.122 19.7469 187.807 20.105 187.582C20.4663 187.354 20.8748 187.24 21.3306 187.24C22.0337 187.24 22.6034 187.488 23.0396 187.982C23.4757 188.474 23.6938 189.127 23.6938 189.94V190.062C23.6938 190.574 23.5946 191.034 23.396 191.444C23.2007 191.851 22.924 192.165 22.5659 192.387C22.2078 192.608 21.7993 192.719 21.3403 192.719C20.6405 192.719 20.0708 192.473 19.6313 191.981C19.1951 191.487 18.9771 190.832 18.9771 190.019V189.901ZM19.563 190.062C19.563 190.694 19.7257 191.213 20.0513 191.62C20.38 192.024 20.8097 192.226 21.3403 192.226C21.8677 192.226 22.2941 192.024 22.6196 191.62C22.9484 191.213 23.1128 190.678 23.1128 190.014V189.901C23.1128 189.498 23.0379 189.128 22.8882 188.793C22.7384 188.458 22.5285 188.199 22.2583 188.017C21.9881 187.831 21.6789 187.738 21.3306 187.738C20.8097 187.738 20.3849 187.943 20.0562 188.354C19.7274 188.76 19.563 189.294 19.563 189.955V190.062ZM25.813 185.985V187.338H26.9067V187.816H25.813V191.337C25.813 191.63 25.8651 191.848 25.9692 191.991C26.0767 192.134 26.2541 192.206 26.5015 192.206C26.5991 192.206 26.757 192.19 26.9751 192.157L26.9995 192.636C26.8465 192.691 26.6382 192.719 26.3745 192.719C25.9741 192.719 25.6828 192.603 25.5005 192.372C25.3182 192.138 25.2271 191.794 25.2271 191.342V187.816H24.2554V187.338H25.2271V185.985H25.813ZM27.6978 189.901C27.6978 189.394 27.7954 188.936 27.9907 188.529C28.1893 188.122 28.4676 187.807 28.8257 187.582C29.187 187.354 29.5955 187.24 30.0513 187.24C30.7544 187.24 31.3241 187.488 31.7603 187.982C32.1965 188.474 32.4146 189.127 32.4146 189.94V190.062C32.4146 190.574 32.3153 191.034 32.1167 191.444C31.9214 191.851 31.6447 192.165 31.2866 192.387C30.9285 192.608 30.52 192.719 30.061 192.719C29.3612 192.719 28.7915 192.473 28.3521 191.981C27.9159 191.487 27.6978 190.832 27.6978 190.019V189.901ZM28.2837 190.062C28.2837 190.694 28.4465 191.213 28.772 191.62C29.1007 192.024 29.5304 192.226 30.061 192.226C30.5884 192.226 31.0148 192.024 31.3403 191.62C31.6691 191.213 31.8335 190.678 31.8335 190.014V189.901C31.8335 189.498 31.7586 189.128 31.6089 188.793C31.4591 188.458 31.2492 188.199 30.979 188.017C30.7088 187.831 30.3996 187.738 30.0513 187.738C29.5304 187.738 29.1056 187.943 28.7769 188.354C28.4481 188.76 28.2837 189.294 28.2837 189.955V190.062ZM36.0669 187.836C35.9432 187.813 35.8114 187.802 35.6714 187.802C35.3068 187.802 34.9976 187.904 34.7437 188.109C34.493 188.311 34.314 188.606 34.2065 188.993V192.621H33.6255V187.338H34.1968L34.2065 188.178C34.5158 187.553 35.0122 187.24 35.6958 187.24C35.8586 187.24 35.9871 187.261 36.0815 187.304L36.0669 187.836Z" fill="black"/>
<path d="M47.7674 257.935L33.8804 204.637" stroke="black" stroke-dasharray="1 1"/>
<circle cx="48.1475" cy="258.379" r="1.5" fill="black"/>
<rect x="13.0908" y="330.664" width="51" height="30.6215" rx="7.5" fill="white" fill-opacity="0.44" stroke="black" stroke-dasharray="1 1"/>
<path d="M18.9976 346.725V349.62H18.397V342.511H20.8188C21.5578 342.511 22.1405 342.7 22.5669 343.077C22.9966 343.455 23.2114 343.974 23.2114 344.635C23.2114 345.302 23.0047 345.818 22.5913 346.183C22.1812 346.544 21.5854 346.725 20.8042 346.725H18.9976ZM18.9976 346.217H20.8188C21.4015 346.217 21.8459 346.078 22.1519 345.802C22.4578 345.525 22.6108 345.139 22.6108 344.645C22.6108 344.153 22.4578 343.762 22.1519 343.473C21.8491 343.18 21.4178 343.03 20.8579 343.023H18.9976V346.217ZM26.8638 344.835C26.7401 344.812 26.6082 344.801 26.4683 344.801C26.1037 344.801 25.7944 344.903 25.5405 345.108C25.2899 345.31 25.1108 345.605 25.0034 345.992V349.62H24.4224V344.337H24.9937L25.0034 345.177C25.3127 344.552 25.8091 344.239 26.4927 344.239C26.6554 344.239 26.784 344.26 26.8784 344.303L26.8638 344.835ZM27.3716 346.9C27.3716 346.393 27.4692 345.935 27.6646 345.528C27.8631 345.121 28.1414 344.806 28.4995 344.581C28.8608 344.353 29.2694 344.239 29.7251 344.239C30.4282 344.239 30.9979 344.487 31.4341 344.981C31.8703 345.473 32.0884 346.126 32.0884 346.939V347.062C32.0884 347.573 31.9891 348.033 31.7905 348.443C31.5952 348.85 31.3185 349.164 30.9604 349.386C30.6024 349.607 30.1938 349.718 29.7349 349.718C29.035 349.718 28.4653 349.472 28.0259 348.98C27.5897 348.486 27.3716 347.831 27.3716 347.018V346.9ZM27.9575 347.062C27.9575 347.693 28.1203 348.212 28.4458 348.619C28.7746 349.023 29.2043 349.225 29.7349 349.225C30.2622 349.225 30.6886 349.023 31.0142 348.619C31.3429 348.212 31.5073 347.677 31.5073 347.013V346.9C31.5073 346.497 31.4325 346.127 31.2827 345.792C31.133 345.457 30.923 345.198 30.6528 345.016C30.3826 344.83 30.0734 344.737 29.7251 344.737C29.2043 344.737 28.7795 344.942 28.4507 345.353C28.1219 345.759 27.9575 346.293 27.9575 346.954V347.062ZM37.5474 347.032C37.5474 347.856 37.3651 348.51 37.0005 348.995C36.6359 349.477 36.1476 349.718 35.5356 349.718C34.813 349.718 34.2596 349.464 33.8755 348.956V351.651H33.2944V344.337H33.8364L33.8657 345.084C34.2466 344.521 34.7983 344.239 35.521 344.239C36.1525 344.239 36.6473 344.479 37.0054 344.957C37.3667 345.436 37.5474 346.1 37.5474 346.949V347.032ZM36.9614 346.93C36.9614 346.256 36.8231 345.724 36.5464 345.333C36.2697 344.942 35.884 344.747 35.3892 344.747C35.0311 344.747 34.7235 344.833 34.4663 345.006C34.2091 345.178 34.0122 345.429 33.8755 345.758V348.292C34.0155 348.595 34.2157 348.826 34.4761 348.985C34.7365 349.145 35.0441 349.225 35.3989 349.225C35.8905 349.225 36.2729 349.029 36.5464 348.639C36.8231 348.245 36.9614 347.675 36.9614 346.93ZM40.8921 349.718C40.4429 349.718 40.036 349.607 39.6714 349.386C39.3101 349.164 39.0285 348.857 38.8267 348.463C38.6248 348.066 38.5239 347.621 38.5239 347.13V346.92C38.5239 346.412 38.6216 345.955 38.8169 345.548C39.0155 345.141 39.2905 344.822 39.6421 344.591C39.9937 344.356 40.3745 344.239 40.7847 344.239C41.4259 344.239 41.9338 344.459 42.3081 344.898C42.6857 345.335 42.8745 345.932 42.8745 346.69V347.018H39.105V347.13C39.105 347.729 39.2759 348.229 39.6177 348.629C39.9627 349.026 40.3957 349.225 40.9165 349.225C41.229 349.225 41.5041 349.168 41.7417 349.054C41.9826 348.94 42.2007 348.757 42.396 348.507L42.7622 348.785C42.3325 349.407 41.7091 349.718 40.8921 349.718ZM40.7847 344.737C40.3452 344.737 39.9741 344.898 39.6714 345.221C39.3719 345.543 39.1896 345.976 39.1245 346.52H42.2935V346.456C42.2772 345.948 42.1323 345.535 41.8589 345.216C41.5854 344.897 41.2274 344.737 40.7847 344.737ZM44.6665 349.62H44.0806V342.12H44.6665V349.62ZM46.9126 349.62H46.3267V342.12H46.9126V349.62ZM50.5503 349.718C50.1011 349.718 49.6942 349.607 49.3296 349.386C48.9683 349.164 48.6867 348.857 48.4849 348.463C48.283 348.066 48.1821 347.621 48.1821 347.13V346.92C48.1821 346.412 48.2798 345.955 48.4751 345.548C48.6737 345.141 48.9487 344.822 49.3003 344.591C49.6519 344.356 50.0327 344.239 50.4429 344.239C51.0841 344.239 51.592 344.459 51.9663 344.898C52.3439 345.335 52.5327 345.932 52.5327 346.69V347.018H48.7632V347.13C48.7632 347.729 48.9341 348.229 49.2759 348.629C49.6209 349.026 50.0539 349.225 50.5747 349.225C50.8872 349.225 51.1623 349.168 51.3999 349.054C51.6408 348.94 51.8589 348.757 52.0542 348.507L52.4204 348.785C51.9907 349.407 51.3674 349.718 50.5503 349.718ZM50.4429 344.737C50.0034 344.737 49.6323 344.898 49.3296 345.221C49.0301 345.543 48.8478 345.976 48.7827 346.52H51.9517V346.456C51.9354 345.948 51.7905 345.535 51.5171 345.216C51.2437 344.897 50.8856 344.737 50.4429 344.737ZM56.1118 344.835C55.9881 344.812 55.8563 344.801 55.7163 344.801C55.3517 344.801 55.0425 344.903 54.7886 345.108C54.5379 345.31 54.3589 345.605 54.2515 345.992V349.62H53.6704V344.337H54.2417L54.2515 345.177C54.5607 344.552 55.0571 344.239 55.7407 344.239C55.9035 344.239 56.0321 344.26 56.1265 344.303L56.1118 344.835Z" fill="black"/>
<path d="M56.1763 313.132V330.223" stroke="black" stroke-dasharray="1 1"/>
<circle cx="56.6152" cy="313.132" r="1.5" fill="black"/>
<path d="M312.851 133.032L309.967 134.271L334.91 151.328C336.195 144.417 335.796 139.41 335.265 138.258C334.733 137.107 327.509 131.596 325.694 131.605C323.878 131.613 312.851 133.032 312.851 133.032Z" fill="#BFA983" stroke="black" stroke-width="0.1"/>
<path d="M302.55 86.1934L323.543 140.436" stroke="black" stroke-dasharray="1 1"/>
<rect x="264.05" y="64.4658" width="38" height="30.6215" rx="7.5" fill="white" fill-opacity="0.44" stroke="black" stroke-dasharray="1 1"/>
<path d="M271.967 75.4297H268.74L268.007 77.4219H267.377L270.068 70.3125H270.639L273.33 77.4219H272.705L271.967 75.4297ZM268.925 74.917H271.777L270.351 71.0449L268.925 74.917ZM274.799 72.1387L274.819 73.042C275.017 72.7165 275.265 72.4691 275.561 72.2998C275.857 72.1273 276.184 72.041 276.542 72.041C277.109 72.041 277.53 72.2005 277.807 72.5195C278.084 72.8385 278.224 73.3171 278.227 73.9551V77.4219H277.646V73.9502C277.643 73.4782 277.542 73.1266 277.343 72.8955C277.148 72.6644 276.834 72.5488 276.401 72.5488C276.04 72.5488 275.719 72.6628 275.439 72.8906C275.162 73.1152 274.957 73.4196 274.824 73.8037V77.4219H274.243V72.1387H274.799ZM281.694 77.0264C282.101 77.0264 282.441 76.9124 282.714 76.6846C282.991 76.4535 283.141 76.1556 283.164 75.791H283.725C283.709 76.1133 283.608 76.4079 283.422 76.6748C283.237 76.9385 282.989 77.1452 282.68 77.2949C282.374 77.4447 282.045 77.5195 281.694 77.5195C281 77.5195 280.45 77.2786 280.043 76.7969C279.64 76.3151 279.438 75.6673 279.438 74.8535V74.6777C279.438 74.1569 279.529 73.6963 279.711 73.2959C279.894 72.8955 280.154 72.5863 280.493 72.3682C280.834 72.1501 281.233 72.041 281.689 72.041C282.268 72.041 282.745 72.2135 283.12 72.5586C283.497 72.9036 283.699 73.3577 283.725 73.9209H283.164C283.138 73.5075 282.988 73.1738 282.714 72.9199C282.444 72.666 282.102 72.5391 281.689 72.5391C281.162 72.5391 280.751 72.7295 280.458 73.1104C280.169 73.4912 280.024 74.0251 280.024 74.7119V74.8828C280.024 75.5566 280.169 76.0824 280.458 76.46C280.751 76.8376 281.163 77.0264 281.694 77.0264ZM285.478 73.0322C285.67 72.7165 285.916 72.4723 286.215 72.2998C286.515 72.1273 286.842 72.041 287.197 72.041C287.763 72.041 288.185 72.2005 288.461 72.5195C288.738 72.8385 288.878 73.3171 288.881 73.9551V77.4219H288.3V73.9502C288.297 73.4782 288.196 73.1266 287.998 72.8955C287.802 72.6644 287.488 72.5488 287.055 72.5488C286.694 72.5488 286.373 72.6628 286.093 72.8906C285.817 73.1152 285.611 73.4196 285.478 73.8037V77.4219H284.897V69.9219H285.478V73.0322ZM290.063 74.7021C290.063 74.1943 290.161 73.737 290.356 73.3301C290.555 72.9232 290.833 72.6074 291.191 72.3828C291.552 72.1549 291.961 72.041 292.417 72.041C293.12 72.041 293.689 72.2884 294.125 72.7832C294.562 73.2747 294.78 73.9274 294.78 74.7412V74.8633C294.78 75.3743 294.681 75.835 294.482 76.2451C294.287 76.652 294.01 76.9661 293.652 77.1875C293.294 77.4089 292.885 77.5195 292.426 77.5195C291.726 77.5195 291.157 77.2738 290.717 76.7822C290.281 76.2874 290.063 75.6331 290.063 74.8193V74.7021ZM290.649 74.8633C290.649 75.4948 290.812 76.014 291.137 76.4209C291.466 76.8245 291.896 77.0264 292.426 77.0264C292.954 77.0264 293.38 76.8245 293.706 76.4209C294.034 76.014 294.199 75.4785 294.199 74.8145V74.7021C294.199 74.2985 294.124 73.929 293.974 73.5938C293.824 73.2585 293.614 72.9997 293.344 72.8174C293.074 72.6318 292.765 72.5391 292.417 72.5391C291.896 72.5391 291.471 72.7441 291.142 73.1543C290.813 73.5612 290.649 74.0951 290.649 74.7559V74.8633ZM298.432 72.6367C298.308 72.6139 298.177 72.6025 298.037 72.6025C297.672 72.6025 297.363 72.7051 297.109 72.9102C296.858 73.112 296.679 73.4066 296.572 73.7939V77.4219H295.991V72.1387H296.562L296.572 72.9785C296.881 72.3535 297.377 72.041 298.061 72.041C298.224 72.041 298.352 72.0622 298.447 72.1045L298.432 72.6367ZM268.735 88.9141H272.246V89.4219H268.129V82.3125H268.735V88.9141ZM272.944 86.7021C272.944 86.1943 273.042 85.737 273.237 85.3301C273.435 84.9232 273.714 84.6074 274.072 84.3828C274.433 84.1549 274.842 84.041 275.297 84.041C276 84.041 276.57 84.2884 277.006 84.7832C277.443 85.2747 277.661 85.9274 277.661 86.7412V86.8633C277.661 87.3743 277.561 87.835 277.363 88.2451C277.167 88.652 276.891 88.9661 276.533 89.1875C276.175 89.4089 275.766 89.5195 275.307 89.5195C274.607 89.5195 274.038 89.2738 273.598 88.7822C273.162 88.2874 272.944 87.6331 272.944 86.8193V86.7021ZM273.53 86.8633C273.53 87.4948 273.693 88.014 274.018 88.4209C274.347 88.8245 274.777 89.0264 275.307 89.0264C275.834 89.0264 276.261 88.8245 276.586 88.4209C276.915 88.014 277.08 87.4785 277.08 86.8145V86.7021C277.08 86.2985 277.005 85.929 276.855 85.5938C276.705 85.2585 276.495 84.9997 276.225 84.8174C275.955 84.6318 275.646 84.5391 275.297 84.5391C274.777 84.5391 274.352 84.7441 274.023 85.1543C273.694 85.5612 273.53 86.0951 273.53 86.7559V86.8633ZM280.825 89.0264C281.232 89.0264 281.572 88.9124 281.845 88.6846C282.122 88.4535 282.272 88.1556 282.294 87.791H282.856C282.84 88.1133 282.739 88.4079 282.553 88.6748C282.368 88.9385 282.12 89.1452 281.811 89.2949C281.505 89.4447 281.176 89.5195 280.825 89.5195C280.131 89.5195 279.581 89.2786 279.174 88.7969C278.771 88.3151 278.569 87.6673 278.569 86.8535V86.6777C278.569 86.1569 278.66 85.6963 278.842 85.2959C279.025 84.8955 279.285 84.5863 279.624 84.3682C279.965 84.1501 280.364 84.041 280.82 84.041C281.399 84.041 281.876 84.2135 282.25 84.5586C282.628 84.9036 282.83 85.3577 282.856 85.9209H282.294C282.268 85.5075 282.119 85.1738 281.845 84.9199C281.575 84.666 281.233 84.5391 280.82 84.5391C280.292 84.5391 279.882 84.7295 279.589 85.1104C279.3 85.4912 279.155 86.0251 279.155 86.7119V86.8828C279.155 87.5566 279.3 88.0824 279.589 88.46C279.882 88.8376 280.294 89.0264 280.825 89.0264ZM285.283 86.7607L284.614 87.4053V89.4219H284.028V81.9219H284.614V86.7217L285.166 86.126L287.187 84.1387H287.924L285.683 86.3652L288.12 89.4219H287.421L285.283 86.7607ZM290.878 89.5195C290.429 89.5195 290.022 89.4089 289.658 89.1875C289.296 88.9661 289.015 88.6585 288.813 88.2646C288.611 87.8675 288.51 87.4232 288.51 86.9316V86.7217C288.51 86.2139 288.608 85.7565 288.803 85.3496C289.002 84.9427 289.277 84.6237 289.628 84.3926C289.98 84.1582 290.361 84.041 290.771 84.041C291.412 84.041 291.92 84.2607 292.294 84.7002C292.672 85.1364 292.861 85.7337 292.861 86.4922V86.8193H289.091V86.9316C289.091 87.5306 289.262 88.0303 289.604 88.4307C289.949 88.8278 290.382 89.0264 290.903 89.0264C291.215 89.0264 291.49 88.9694 291.728 88.8555C291.969 88.7415 292.187 88.5592 292.382 88.3086L292.749 88.5869C292.319 89.2087 291.695 89.5195 290.878 89.5195ZM290.771 84.5391C290.332 84.5391 289.96 84.7002 289.658 85.0225C289.358 85.3447 289.176 85.7777 289.111 86.3213H292.28V86.2578C292.264 85.75 292.119 85.3366 291.845 85.0176C291.572 84.6986 291.214 84.5391 290.771 84.5391ZM296.44 84.6367C296.316 84.6139 296.184 84.6025 296.044 84.6025C295.68 84.6025 295.371 84.7051 295.117 84.9102C294.866 85.112 294.687 85.4066 294.58 85.7939V89.4219H293.999V84.1387H294.57L294.58 84.9785C294.889 84.3535 295.385 84.041 296.069 84.041C296.232 84.041 296.36 84.0622 296.455 84.1045L296.44 84.6367Z" fill="black"/>
<circle cx="323.366" cy="139.967" r="1.5" fill="black"/>
<rect x="315.138" y="15.5537" width="44.0746" height="25" rx="12.5" fill="#969696" fill-opacity="0.3"/>
<path d="M329.547 33.1797H323.313V32.5508L326.724 28.6816C327.289 28.0299 327.681 27.4922 327.9 27.0684C328.119 26.6445 328.228 26.2321 328.228 25.8311C328.228 25.2021 328.043 24.7054 327.674 24.3408C327.305 23.9717 326.797 23.7871 326.15 23.7871C325.48 23.7871 324.938 24.0013 324.523 24.4297C324.113 24.8581 323.908 25.4141 323.908 26.0977H323.094C323.094 25.5371 323.22 25.0267 323.47 24.5664C323.725 24.1061 324.085 23.7461 324.55 23.4863C325.02 23.222 325.553 23.0898 326.15 23.0898C327.061 23.0898 327.772 23.3291 328.283 23.8076C328.798 24.2861 329.055 24.9378 329.055 25.7627C329.055 26.2275 328.909 26.7357 328.618 27.2871C328.331 27.8385 327.822 28.5267 327.093 29.3516L324.318 32.4893H329.547V33.1797ZM331.092 34.0342H330.347L334.503 23.2266H335.242L331.092 34.0342ZM342.877 33.1797H336.643V32.5508L340.054 28.6816C340.619 28.0299 341.011 27.4922 341.23 27.0684C341.449 26.6445 341.558 26.2321 341.558 25.8311C341.558 25.2021 341.374 24.7054 341.004 24.3408C340.635 23.9717 340.127 23.7871 339.48 23.7871C338.81 23.7871 338.268 24.0013 337.853 24.4297C337.443 24.8581 337.238 25.4141 337.238 26.0977H336.424C336.424 25.5371 336.55 25.0267 336.8 24.5664C337.056 24.1061 337.416 23.7461 337.88 23.4863C338.35 23.222 338.883 23.0898 339.48 23.0898C340.391 23.0898 341.102 23.3291 341.613 23.8076C342.128 24.2861 342.385 24.9378 342.385 25.7627C342.385 26.2275 342.239 26.7357 341.948 27.2871C341.661 27.8385 341.153 28.5267 340.423 29.3516L337.648 32.4893H342.877V33.1797ZM346.227 27.7588H347.075C347.544 27.7588 347.954 27.6768 348.305 27.5127C348.656 27.3441 348.923 27.1162 349.105 26.8291C349.292 26.5374 349.385 26.2025 349.385 25.8242C349.385 25.1862 349.205 24.6872 348.845 24.3271C348.485 23.9671 347.968 23.7871 347.293 23.7871C346.655 23.7871 346.131 23.9762 345.721 24.3545C345.316 24.7282 345.113 25.2227 345.113 25.8379H344.292C344.292 25.3229 344.422 24.8535 344.682 24.4297C344.942 24.0013 345.302 23.6709 345.762 23.4385C346.222 23.2061 346.733 23.0898 347.293 23.0898C348.196 23.0898 348.907 23.3359 349.426 23.8281C349.946 24.3203 350.206 24.9948 350.206 25.8516C350.206 26.3301 350.053 26.7721 349.748 27.1777C349.447 27.5788 349.032 27.8796 348.503 28.0801C349.123 28.2533 349.593 28.5518 349.912 28.9756C350.231 29.3949 350.39 29.8962 350.39 30.4795C350.39 31.3317 350.112 32.0176 349.556 32.5371C349 33.0566 348.257 33.3164 347.328 33.3164C346.735 33.3164 346.191 33.1979 345.694 32.9609C345.202 32.724 344.819 32.3936 344.545 31.9697C344.277 31.5413 344.142 31.0446 344.142 30.4795H344.962C344.962 31.113 345.183 31.6302 345.625 32.0312C346.068 32.4277 346.635 32.626 347.328 32.626C348.034 32.626 348.583 32.446 348.975 32.0859C349.372 31.7214 349.57 31.195 349.57 30.5068C349.57 29.8415 349.356 29.3333 348.927 28.9824C348.503 28.6315 347.877 28.4561 347.047 28.4561H346.227V27.7588Z" fill="black"/>
</g>
<defs>
<clipPath id="clip0">
<rect width="375" height="375" fill="white" transform="translate(0.137695 0.553711)"/>
</clipPath>
</defs>
</svg>
