<svg width="376" height="376" viewBox="0 0 376 376" fill="none" xmlns="http://www.w3.org/2000/svg">
<g clip-path="url(#clip0)">
<g opacity="0.2">
<path opacity="0.2" d="M151.144 335.507L151.338 450.028C150.383 457.183 160.668 464.369 167.824 465.324L406.496 497.176C413.652 498.13 420.228 493.104 421.182 485.949C421.182 485.949 435.922 -4.17309 428.767 -5.12793L348.431 -9.81543L151.144 335.507Z" fill="#5E5E5E"/>
</g>
<path d="M68.6958 133.32C70.3463 131.445 76.4564 129.533 76.7325 129.121C77.0081 128.709 86.9939 122.084 88.8727 120.163C90.7519 118.243 95.423 116.006 99.4139 108.55C103.405 101.094 119.724 80.8351 121.374 78.3658C123.025 75.895 130.774 65.1934 132.698 64.0979C134.621 63.0011 138.696 61.3586 140.116 61.9084C141.534 62.4601 148.212 66.13 151.369 67.0497C154.526 67.9679 179.499 73.7158 184.028 76.1472C188.557 78.5786 190.109 82.7908 190.379 85.3553C190.65 87.9189 192.72 111.363 191.711 114.063C190.7 116.762 178.016 100.539 178.016 100.539C178.016 100.539 168.686 93.707 165.345 93.0639C162.005 92.4184 172.864 122.504 173.55 122.962C174.236 123.421 197.108 110.87 201.427 121.943C204.64 130.179 203.108 132.198 203.108 132.198C203.108 132.198 193.531 140.883 192.983 141.111C192.432 141.34 188.13 141.838 186.845 143.164C185.562 144.49 183.043 146.182 179.976 146.909C176.908 147.639 163.272 144.876 159.744 146.291C156.218 147.706 145.093 150.989 141.613 151.442C138.134 151.895 129.248 155.685 126.412 155.177C123.574 154.67 122.191 153.944 118.328 154.737C114.465 155.53 113.137 156.031 111.349 157.815C109.552 159.608 102.488 165.978 98.7141 168.25C96.0586 169.848 -16.3678 257.739 -16.3678 257.739L-51.3225 205.791C-51.3239 205.791 67.0463 135.194 68.6958 133.32Z" fill="#F9DBBD"/>
<path d="M195.618 234.388C202.037 221.73 219.9 231.036 216.511 236.309C213.121 241.583 196.828 230.753 201.733 221.787C206.638 212.822 225.515 220.067 222.794 225.715C220.065 231.379 206.232 218.159 209.274 211.887C209.274 211.887 209.929 207.143 218.726 205.914C224.721 205.075 228.322 196.977 228.526 195.655C228.73 194.332 243.723 148.734 250.719 151.727C260.213 155.786 239.049 173.522 235.867 183.684C235.419 185.09 230.655 198.821 230.655 198.821" stroke="#FF0000" stroke-width="4" stroke-miterlimit="10" stroke-linecap="round"/>
<path d="M236.947 189.173C236.766 189.698 236.311 190.015 235.926 189.883L229.619 187.705C229.236 187.572 229.072 187.041 229.252 186.517L231.915 178.804C232.098 178.28 232.554 177.963 232.938 178.096L239.245 180.273C239.629 180.406 239.792 180.938 239.612 181.462L236.947 189.173Z" fill="#CECECE"/>
<path d="M301.629 234.713C327.471 234.713 348.421 213.763 348.421 187.921C348.421 162.078 327.471 141.129 301.629 141.129C275.786 141.129 254.837 162.078 254.837 187.921C254.837 213.763 275.786 234.713 301.629 234.713Z" fill="#A5A5A5"/>
<path d="M234.872 161.513C234.872 161.513 251.772 168.964 255.587 196.38C259.404 223.797 274.037 171.986 274.037 171.986L238.467 149.865L233.235 158.915L234.872 161.513Z" fill="#A5A5A5"/>
<path d="M245.412 143.284C245.412 143.284 260.301 154.211 285.964 143.839C311.628 133.465 274.031 171.999 274.031 171.999L237.111 152.211L242.343 143.163L245.412 143.284Z" fill="#A5A5A5"/>
<path d="M153.654 120.464C147.07 116.657 142.922 105.223 146.515 99.0084L146.927 98.2936C152.829 89.2017 162.73 88.2717 169.876 92.4028L242.238 134.238C246.069 136.453 247.104 141.624 244.915 145.412L236.655 159.699C234.464 163.487 229.847 164.512 226.014 162.297L153.654 120.464Z" fill="#5E5E5E"/>
<path d="M301.628 223.635C321.316 223.635 337.276 207.675 337.276 187.987C337.276 168.299 321.316 152.339 301.628 152.339C281.94 152.339 265.98 168.299 265.98 187.987C265.98 207.675 281.94 223.635 301.628 223.635Z" fill="#727272"/>
<path d="M196.322 98.9784C196.322 98.9784 197.445 103.743 192.921 109.921C188.217 116.347 180.665 129.41 177.609 129.149C177.195 129.114 174.994 130.323 172.182 128.859C169.368 127.397 168.437 121.874 169.13 120.374C169.824 118.873 176.927 109.604 176.927 109.604L173.22 96.9178L167.815 91.6926L188.617 80.4131L196.322 98.9784Z" fill="#F9DBBD"/>
<path d="M160.842 122.018C169.717 122.018 176.912 114.823 176.912 105.948C176.912 97.072 169.717 89.877 160.842 89.877C151.966 89.877 144.771 97.072 144.771 105.948C144.771 114.823 151.966 122.018 160.842 122.018Z" fill="#2D2D2D"/>
<path d="M160.842 118.431C167.736 118.431 173.325 112.842 173.325 105.948C173.325 99.053 167.736 93.4639 160.842 93.4639C153.947 93.4639 148.358 99.053 148.358 105.948C148.358 112.842 153.947 118.431 160.842 118.431Z" fill="#3F3F3F"/>
<path d="M182.228 254.077C185.216 247.494 204.291 254.773 201.58 260.7C199.37 265.534 185.116 254.349 188.508 245.836C193.236 233.967 210.875 244.337 208.226 252.581C207.104 256.072 192.559 241.656 195.2 236.076" stroke="#FF0000" stroke-width="4" stroke-miterlimit="10" stroke-linecap="round"/>
<path d="M131.667 204.432C134.279 211.178 114.36 224.646 112.02 218.555C109.687 212.481 132.044 206.786 136.332 216.479C140.62 226.173 119.572 235.986 116.546 230.24C113.519 224.494 134.686 212.917 140.236 226.559" stroke="#FF0000" stroke-width="4" stroke-miterlimit="10" stroke-linecap="round"/>
<path d="M123.219 181.847C125.831 188.593 106.239 203.484 103.9 197.393C101.048 189.97 122.607 182.41 127.474 193.413C131.762 203.107 110.714 212.921 107.688 207.174C104.661 201.428 126.397 191.515 131.947 205.157" stroke="#FF0000" stroke-width="4" stroke-miterlimit="10" stroke-linecap="round"/>
<path d="M123.5 182.569C117.95 168.928 95.8798 178.173 98.9066 183.918C101.932 189.664 122.981 179.85 118.693 170.157C114.406 160.464 92.4912 167.301 94.8242 173.374C97.1633 179.465 111.688 166.515 109.075 159.769" stroke="#FF0000" stroke-width="4" stroke-miterlimit="10" stroke-linecap="round"/>
<path d="M166.547 276.386C162.307 269.016 187.118 270.683 184.409 276.611C181.704 282.524 169.704 272.996 173.629 263.143C177.552 253.291 195.636 265.445 193.644 271.644C191.652 277.839 176.37 267.586 182.229 254.076" stroke="#FF0000" stroke-width="4" stroke-miterlimit="10" stroke-linecap="round"/>
<path d="M162.188 265.065C164.8 271.813 147.93 284.058 145.59 277.968C143.256 271.894 163.195 264.178 167.482 273.872C171.771 283.566 154.062 292.521 156.7 286.669C154.59 280.575 185.294 281.747 168.149 276.798" stroke="#FF0000" stroke-width="4" stroke-miterlimit="10" stroke-linecap="round"/>
<path d="M149.995 246.567C152.607 253.316 135.302 265.736 132.962 259.646C130.629 253.572 151.866 244.986 156.154 254.68C160.443 264.374 141.137 273.49 138.11 267.743C135.083 261.997 156.919 252.146 162.468 265.788" stroke="#FF0000" stroke-width="4" stroke-miterlimit="10" stroke-linecap="round"/>
<path d="M139.916 225.715C142.528 232.462 123.598 245.904 121.258 239.813C118.925 233.741 140.544 226.14 144.832 235.834C149.121 245.528 128.942 254.992 125.916 249.246C122.89 243.5 144.725 233.65 150.275 247.292" stroke="#FF0000" stroke-width="4" stroke-miterlimit="10" stroke-linecap="round"/>
<path d="M112.517 163.029C100.887 161.759 107.928 142.294 110.581 146.681C112.886 150.495 99.101 150.632 93.9241 144.285C87.3424 136.215 92.4911 123.763 95.6421 127.785C98.6121 131.575 89.4175 130.734 84.4633 128.743C84.4633 128.743 80.4733 126.688 81.9293 122.528" stroke="#FF0000" stroke-width="4" stroke-miterlimit="10" stroke-linecap="round"/>
<path d="M301.547 203.957C310.912 203.957 318.505 196.365 318.505 186.999C318.505 177.633 310.912 170.041 301.547 170.041C292.181 170.041 284.589 177.633 284.589 186.999C284.589 196.365 292.181 203.957 301.547 203.957Z" fill="#2BA03C"/>
<path d="M297.542 195.078V190.003C297.542 187.253 297.492 184.878 297.392 182.653L297.467 182.628C298.292 184.603 299.392 186.778 300.392 188.578L303.992 195.078H307.992V178.228H304.492V183.153C304.492 185.678 304.567 187.953 304.817 190.178H304.742C303.992 188.278 302.992 186.178 301.992 184.403L298.492 178.228H294.042V195.078H297.542Z" fill="white"/>
<rect x="315.138" y="15.7314" width="45.0996" height="25" rx="12.5" fill="#969696" fill-opacity="0.3"/>
<path d="M325.676 33.3574H319.441V32.7285L322.852 28.8594C323.417 28.2077 323.809 27.6699 324.028 27.2461C324.247 26.8223 324.356 26.4098 324.356 26.0088C324.356 25.3799 324.172 24.8831 323.802 24.5186C323.433 24.1494 322.925 23.9648 322.278 23.9648C321.608 23.9648 321.066 24.179 320.651 24.6074C320.241 25.0358 320.036 25.5918 320.036 26.2754H319.222C319.222 25.7148 319.348 25.2044 319.598 24.7441C319.854 24.2839 320.214 23.9238 320.678 23.6641C321.148 23.3997 321.681 23.2676 322.278 23.2676C323.19 23.2676 323.9 23.5068 324.411 23.9854C324.926 24.4639 325.183 25.1156 325.183 25.9404C325.183 26.4053 325.038 26.9134 324.746 27.4648C324.459 28.0163 323.951 28.7044 323.221 29.5293L320.446 32.667H325.676V33.3574ZM333.209 29.208C333.209 30.6117 332.951 31.6781 332.436 32.4072C331.921 33.1318 331.163 33.4941 330.16 33.4941C329.176 33.4941 328.421 33.1387 327.897 32.4277C327.373 31.7122 327.104 30.6732 327.091 29.3105V27.5264C327.091 26.1273 327.35 25.0677 327.87 24.3477C328.389 23.6276 329.148 23.2676 330.146 23.2676C331.131 23.2676 331.883 23.6162 332.402 24.3135C332.922 25.0062 333.191 26.0293 333.209 27.3828V29.208ZM332.388 27.4238C332.388 26.2845 332.202 25.4232 331.828 24.8398C331.459 24.2565 330.898 23.9648 330.146 23.9648C329.408 23.9648 328.852 24.2497 328.478 24.8193C328.105 25.389 327.913 26.2298 327.904 27.3418V29.2969C327.904 30.4316 328.095 31.2998 328.478 31.9014C328.866 32.5029 329.426 32.8037 330.16 32.8037C330.889 32.8037 331.441 32.5098 331.814 31.9219C332.192 31.334 332.384 30.4727 332.388 29.3379V27.4238ZM334.986 34.2119H334.241L338.397 23.4043H339.135L334.986 34.2119ZM346.771 33.3574H340.537V32.7285L343.948 28.8594C344.513 28.2077 344.905 27.6699 345.124 27.2461C345.343 26.8223 345.452 26.4098 345.452 26.0088C345.452 25.3799 345.267 24.8831 344.898 24.5186C344.529 24.1494 344.021 23.9648 343.374 23.9648C342.704 23.9648 342.162 24.179 341.747 24.6074C341.337 25.0358 341.132 25.5918 341.132 26.2754H340.318C340.318 25.7148 340.443 25.2044 340.694 24.7441C340.949 24.2839 341.309 23.9238 341.774 23.6641C342.244 23.3997 342.777 23.2676 343.374 23.2676C344.285 23.2676 344.996 23.5068 345.507 23.9854C346.022 24.4639 346.279 25.1156 346.279 25.9404C346.279 26.4053 346.133 26.9134 345.842 27.4648C345.554 28.0163 345.046 28.7044 344.317 29.5293L341.542 32.667H346.771V33.3574ZM350.121 27.9365H350.969C351.438 27.9365 351.848 27.8545 352.199 27.6904C352.55 27.5218 352.816 27.2939 352.999 27.0068C353.186 26.7152 353.279 26.3802 353.279 26.002C353.279 25.3639 353.099 24.8649 352.739 24.5049C352.379 24.1449 351.862 23.9648 351.187 23.9648C350.549 23.9648 350.025 24.154 349.615 24.5322C349.209 24.9059 349.007 25.4004 349.007 26.0156H348.186C348.186 25.5007 348.316 25.0312 348.576 24.6074C348.836 24.179 349.196 23.8486 349.656 23.6162C350.116 23.3838 350.627 23.2676 351.187 23.2676C352.09 23.2676 352.801 23.5137 353.32 24.0059C353.84 24.498 354.099 25.1725 354.099 26.0293C354.099 26.5078 353.947 26.9499 353.641 27.3555C353.341 27.7565 352.926 28.0573 352.397 28.2578C353.017 28.431 353.486 28.7295 353.805 29.1533C354.124 29.5726 354.284 30.0739 354.284 30.6572C354.284 31.5094 354.006 32.1953 353.45 32.7148C352.894 33.2344 352.151 33.4941 351.221 33.4941C350.629 33.4941 350.084 33.3757 349.588 33.1387C349.095 32.9017 348.713 32.5713 348.439 32.1475C348.17 31.7191 348.036 31.2223 348.036 30.6572H348.856C348.856 31.2907 349.077 31.8079 349.519 32.209C349.961 32.6055 350.529 32.8037 351.221 32.8037C351.928 32.8037 352.477 32.6237 352.869 32.2637C353.265 31.8991 353.464 31.3727 353.464 30.6846C353.464 30.0192 353.249 29.5111 352.821 29.1602C352.397 28.8092 351.771 28.6338 350.941 28.6338H350.121V27.9365Z" fill="black"/>
</g>
<defs>
<clipPath id="clip0">
<rect width="375" height="375" fill="white" transform="translate(0.137695 0.731445)"/>
</clipPath>
</defs>
</svg>
