<svg width="376" height="376" viewBox="0 0 376 376" fill="none" xmlns="http://www.w3.org/2000/svg">
<g clip-path="url(#clip0)">
<path d="M-38.2996 161.34V69.9778L86.5342 -268.87C86.5342 -268.87 344.414 -377.628 361.606 -373.905C379.894 -369.941 517.193 -285.346 526.713 -229.696C537.696 -232.625 542.776 -220.909 547.168 -208.46L640.186 618.714L267.555 675.605L-38.2996 161.34Z" fill="#C4C4C4"/>
<path d="M267.325 675.605V230.889L-38.2996 69.9775V497.683L267.325 675.605Z" fill="#CECECE"/>
<path d="M267.217 230.889L365.521 -177.981L81.0423 -273.264L-54.7058 96.7965L267.217 230.889Z" fill="#C9C9C9"/>
<path d="M-27.5799 34.8072L46.821 -3.85645L43.3062 -10.6202L-31.0948 28.0435L-27.5799 34.8072Z" fill="#999999"/>
<path d="M55.5944 79.2094L80.2476 -0.938477L72.9603 -3.18L48.3072 76.9679L55.5944 79.2094Z" fill="#999999"/>
<path d="M129.327 -76.3367C173.274 -67.3808 160.583 46.9056 107.474 36.2331C54.3648 25.5606 75.7107 -87.2637 129.327 -76.3367Z" fill="#3F3F3F" stroke="black" stroke-miterlimit="10"/>
<path d="M35.8154 1.67549C10.1504 -2.39044 20.0608 -72.2708 48.0128 -67.9503C75.9643 -63.6298 73.1697 -64.9015 91.9731 -61.8519C110.777 -58.8022 109.507 13.1102 81.5547 9.55284C53.6031 5.99456 35.8154 1.67549 35.8154 1.67549Z" fill="#191919" stroke="black" stroke-miterlimit="10"/>
<path d="M48.457 -66.8067C76.4085 -62.4867 65.8481 4.40717 37.8956 0.849355C9.94356 -2.70846 20.505 -71.1267 48.457 -66.8067Z" fill="#333333" stroke="black" stroke-miterlimit="10"/>
<path d="M61.7339 -197.799C-86.6648 -208.219 -116.065 102.175 6.33846 126.188C146.605 151.599 207.906 -167.848 61.7339 -197.799ZM108.998 -23.9895C105.949 40.2991 59.956 80.9566 59.956 80.9566C59.956 80.9566 63.5128 70.7922 57.1608 70.03C51.8245 72.8242 49.7911 69.2674 49.7911 69.2674C38.611 68.2511 39.8808 103.572 19.0444 100.523C-21.9108 94.5288 -29.9981 56.8164 -28.9819 49.7017C-27.9661 42.5871 -16.9115 36.3616 -14.2439 33.6935C-11.5758 31.0253 -10.6861 28.6108 -14.2439 28.6108C-17.8017 28.6108 -17.8008 22.2583 -17.8008 22.2583C-17.2917 16.6685 -33.5554 25.053 -33.5554 25.053C-35.8425 24.2913 -38.1065 28.3905 -41.6873 19.2091C-54.8948 -14.6628 -32.7933 -88.7867 -31.522 -92.09C-30.2517 -95.3933 -27.7106 -103.017 -17.2931 -95.9014C-6.87467 -88.7862 -5.34935 -92.599 -5.34935 -92.599C-6.36513 -97.1731 -1.28342 -99.4592 -1.28342 -99.4592C-0.521697 -104.288 -17.6629 -114.055 -13.9889 -122.584C9.89768 -176.453 53.3499 -168.322 53.3499 -168.322C71.3916 -160.953 58.4325 -136.052 76.4728 -135.289C86.8856 -134.849 85.1138 -151.551 85.1138 -151.551C119.673 -116.739 113.065 -40.5069 111.033 -37.9653C108.999 -35.4237 106.711 -28.8176 108.998 -23.9895Z" fill="#141414" stroke="black" stroke-miterlimit="10"/>
<path d="M174.93 103.438L170.867 102.291L170.131 104.412L157.982 106.88L152.504 123.359L163.976 136.396L180.925 132.954L186.402 116.475L174.93 103.438Z" fill="#0F0F0F"/>
<path d="M159.913 135.249L148.441 122.212L153.919 105.733L170.867 102.291L182.339 115.328L176.862 131.807L159.913 135.249Z" fill="#303030"/>
<path d="M154.639 113.734C154.184 114.672 153.888 115.609 153.888 116.758V116.757L153.644 116.82C153.509 117.419 153.297 117.837 153.236 118.451L150.184 136.491H150.181C149.542 139.303 150.662 143.406 153.282 145.313C155.921 147.233 159.124 146.873 161.022 144.54L172.589 132.814C173.04 132.425 173.533 131.682 173.929 131.207L174.025 130.866H174.022C174.695 129.928 175.088 129.604 175.544 128.666C178.154 123.291 176.953 116.497 173.261 111.931L170.623 117.411C171.43 119.297 171.368 121.417 170.514 123.175C169.66 124.932 168.113 125.954 166.461 126.056L163.502 132.046C162.651 133.626 160.81 134.079 159.333 133.004C157.857 131.93 157.009 129.635 157.72 127.994L160.687 121.981C159.877 120.099 159.95 117.994 160.817 116.206C161.686 114.419 163.215 113.393 164.956 113.356L167.671 108.005C162.662 106.149 157.261 108.336 154.639 113.734ZM157.764 136.243C159.282 137.347 159.848 139.61 159.027 141.297C158.208 142.985 156.314 143.456 154.798 142.352C153.281 141.249 152.716 138.986 153.535 137.299C154.354 135.612 156.248 135.14 157.764 136.243Z" fill="black"/>
<path d="M131.717 359.248C131.717 365.675 153.309 368.129 153.294 362.333C153.281 357.607 131.77 358.072 131.372 366.205C130.914 375.617 152.605 374.302 153.294 368.564C153.9 363.519 131.717 365.661 131.839 373.038" stroke="#FF0000" stroke-width="4" stroke-miterlimit="10" stroke-linecap="round"/>
<path d="M131.717 372.315C129.982 381.51 153.31 383.435 153.295 377.639C153.281 372.776 132.573 372.471 132.159 380.966C131.7 390.377 153.324 386.25 153.307 383.377C153.28 378.961 131.978 375.825 131.833 383.377" stroke="#FF0000" stroke-width="4" stroke-miterlimit="10" stroke-linecap="round"/>
<path d="M130.799 263.256C130.799 269.683 152.391 274.218 152.376 268.422C152.359 262.642 131.258 265.323 130.799 274.734C130.34 284.145 151.687 285.293 152.376 279.555C153.064 273.816 131.028 271.254 130.799 284.337" stroke="#FF0000" stroke-width="4" stroke-miterlimit="10" stroke-linecap="round"/>
<path d="M130.799 243.547C130.799 249.974 152.391 254.509 152.376 248.712C152.359 242.933 131.258 243.8 130.799 253.21C130.34 262.621 151.687 263.769 152.376 258.03C153.064 252.292 131.028 250.861 130.799 263.945" stroke="#FF0000" stroke-width="4" stroke-miterlimit="10" stroke-linecap="round"/>
<path d="M130.799 222.023C130.799 228.451 152.391 232.984 152.376 227.189C152.359 221.409 131.258 223.001 130.799 232.413C130.34 241.823 151.687 242.971 152.376 237.232C153.064 231.495 131.028 231.153 130.799 244.237" stroke="#FF0000" stroke-width="4" stroke-miterlimit="10" stroke-linecap="round"/>
<path d="M130.799 222.712C131.029 209.628 153.069 210.375 152.381 216.114C151.692 221.852 130.34 219.209 130.799 209.798C131.258 200.388 152.723 200.246 152.739 206.027C152.755 211.823 133.069 204.978 133.069 198.55C133.069 198.55 131.704 194.35 138.505 189.79C143.14 186.681 144.073 178.618 143.716 177.437C142.482 173.365 150.592 135.049 156.857 138.208C165.083 142.356 148.576 157.427 147.951 166.646C148.145 167.993 146.662 183.834 146.662 183.834" stroke="#FF0000" stroke-width="4" stroke-miterlimit="10" stroke-linecap="round"/>
<path d="M130.799 342.624C130.799 349.052 152.408 351.13 152.392 345.333C152.376 339.554 131.25 340.339 130.791 349.75C130.332 359.161 152.159 359.24 152.849 353.5C153.537 347.762 131.946 346.164 131.716 359.248" stroke="#FF0000" stroke-width="4" stroke-miterlimit="10" stroke-linecap="round"/>
<path d="M130.799 323.343C130.799 329.77 152.391 334.304 152.376 328.508C152.359 322.728 131.258 322.655 130.799 332.066C130.34 341.477 151.687 342.624 152.376 336.886C152.718 334.037 130.978 333.087 130.799 343.313" stroke="#FF0000" stroke-width="4" stroke-miterlimit="10" stroke-linecap="round"/>
<path d="M130.799 304.062C130.799 310.489 152.391 315.022 152.376 309.227C152.359 303.447 131.258 303.373 130.799 312.785C130.34 322.196 151.687 323.343 152.376 317.605C153.064 311.867 131.028 310.948 130.799 324.032" stroke="#FF0000" stroke-width="4" stroke-miterlimit="10" stroke-linecap="round"/>
<path d="M130.791 283.533C130.791 289.961 152.392 294.801 152.375 289.005C152.359 283.225 131.258 284.091 130.798 293.503C130.339 302.914 151.687 304.062 152.375 298.323C153.064 292.585 131.028 291.667 130.798 304.75" stroke="#FF0000" stroke-width="4" stroke-miterlimit="10" stroke-linecap="round"/>
<path d="M149.589 175.55C149.494 176.145 149.067 176.573 148.634 176.505L141.509 175.375C141.076 175.306 140.803 174.767 140.897 174.171L142.289 165.394C142.383 164.798 142.811 164.37 143.244 164.439L150.368 165.569C150.801 165.637 151.075 166.176 150.981 166.772L149.589 175.55Z" fill="#EAEAEA"/>
<path d="M167.013 113.774V113.771L167.081 113.739C166.956 113.688 166.915 113.634 166.785 113.591C166.711 113.567 166.677 113.553 166.602 113.532L161.257 111.685L159.987 116.028C159.502 116.673 159.109 117.411 158.841 118.233C158.52 119.209 158.418 120.197 158.489 121.142L157.376 124.921L162.221 126.58C162.338 126.626 162.452 126.677 162.575 126.717C162.647 126.741 162.722 126.755 162.797 126.776L162.889 126.807L162.892 126.801C166.051 127.633 169.285 125.582 170.432 122.075C171.559 118.631 170.294 115.035 167.013 113.774Z" fill="#C41A1A"/>
<path d="M165.398 120.28C166.583 116.656 164.915 112.857 161.669 111.796C158.423 110.735 154.834 112.813 153.649 116.437C152.464 120.063 154.133 123.861 157.378 124.922C160.623 125.983 164.213 123.905 165.398 120.28Z" fill="#E81C1C"/>
<path d="M250.107 125.514L250.11 125.509L250.002 125.459C249.525 125.215 249.036 124.989 248.533 124.782L243.788 122.596L243.379 123.455C234.111 122.394 224.807 128.143 221.294 137.791C218.301 146.013 220.352 154.769 225.838 160.363L225.332 161.428L230.643 163.945C231.144 164.209 231.659 164.456 232.191 164.678L232.223 164.693L232.224 164.691C232.495 164.804 232.767 164.914 233.045 165.015C243.609 168.861 255.475 162.906 259.548 151.716C263.312 141.376 259.102 130.189 250.107 125.514Z" fill="#212121"/>
<path d="M254.976 149.604C259.05 138.413 253.789 126.224 243.224 122.378C232.66 118.532 220.793 124.486 216.719 135.677C212.645 146.868 217.907 159.057 228.471 162.903C239.035 166.749 250.902 160.795 254.976 149.604Z" fill="#3D3D3D"/>
<path d="M239.002 139.503L221.688 133.663L219.266 140.421L236.58 146.261L239.002 139.503Z" fill="#898989"/>
<path d="M222.184 120.606C222.184 120.606 221.504 120.609 219.574 119.918C215.29 118.384 214.441 121.221 214.441 121.221L206.08 145.132C204.619 149.31 206.744 150.84 211.382 152.479C212.398 152.838 212.994 137.165 212.994 137.165C217.507 124.262 222.184 120.606 222.184 120.606Z" fill="#E8E8E8"/>
<path d="M230.543 137.3C230.845 136.302 231.636 136.592 232.654 129.832C233.672 123.072 230.371 122.919 230.371 122.919C230.371 122.919 221.883 121.013 219.968 120.286C218.052 119.56 217.163 122.47 217.163 122.47L208.801 146.382C207.341 150.56 209.386 151.54 209.386 151.54C209.386 151.54 214.269 154.059 218.947 155.583C223.625 157.106 225.373 151.195 225.373 151.195C225.373 151.195 230.122 138.678 230.543 137.3ZM217.685 139.358C216.181 139.951 214.93 138.876 214.889 136.958C214.849 135.039 216.035 133.003 217.538 132.41C219.041 131.817 220.294 132.892 220.334 134.81C220.374 136.729 219.189 138.765 217.685 139.358Z" fill="#C9C9C9"/>
<path d="M219.427 135.302C219.171 137.103 217.821 138.692 216.412 138.849C215.742 138.924 215.183 138.491 214.968 137.686C215.284 139.304 216.415 139.643 217.408 139.544C219.434 139.343 220.473 137.604 220.757 135.603C221.041 133.602 219.6 131.99 217.972 132.296C217.907 132.309 217.844 132.318 217.778 132.33C218.935 132.467 219.655 133.697 219.427 135.302Z" fill="#E8E8E8"/>
<path d="M232.936 129.426C233.955 122.666 230.365 122.653 230.365 122.653C230.365 122.653 221.878 120.747 219.962 120.02C218.047 119.294 217.158 122.204 217.158 122.204L208.797 146.115C207.337 150.293 208.913 151.594 208.913 151.594C208.913 151.594 214.145 154.379 218.823 155.902C223.501 157.425 225.79 150.864 225.79 150.864C225.79 150.864 231.918 136.186 232.936 129.426ZM225.475 149.472C225.475 149.472 223.416 155.377 219.206 154.006C214.998 152.636 210.29 150.128 210.29 150.128C210.29 150.128 208.871 148.958 210.184 145.199L217.71 123.683C217.71 123.683 218.51 121.064 220.233 121.717C221.957 122.372 229.593 124.087 229.593 124.087C229.593 124.087 232.823 124.099 231.908 130.182C230.992 136.265 225.475 149.472 225.475 149.472Z" fill="#707070"/>
<rect x="315.138" y="15.5537" width="44.0746" height="25" rx="12.5" fill="#969696" fill-opacity="0.3"/>
<path d="M329.178 25.79C329.178 26.305 329.028 26.7676 328.727 27.1777C328.427 27.5833 328.03 27.8818 327.538 28.0732C328.112 28.2692 328.572 28.5859 328.919 29.0234C329.265 29.4609 329.438 29.9668 329.438 30.541C329.438 31.3932 329.149 32.07 328.57 32.5713C327.991 33.068 327.226 33.3164 326.273 33.3164C325.312 33.3164 324.541 33.068 323.963 32.5713C323.388 32.0745 323.101 31.3978 323.101 30.541C323.101 29.9759 323.268 29.4723 323.6 29.0303C323.933 28.5882 324.389 28.2692 324.968 28.0732C324.475 27.8818 324.083 27.5833 323.792 27.1777C323.5 26.7676 323.354 26.305 323.354 25.79C323.354 24.9652 323.619 24.3089 324.147 23.8213C324.68 23.3337 325.385 23.0898 326.26 23.0898C327.135 23.0898 327.839 23.3359 328.372 23.8281C328.91 24.3203 329.178 24.9743 329.178 25.79ZM328.618 30.5479C328.618 29.9281 328.397 29.4199 327.955 29.0234C327.513 28.6224 326.948 28.4219 326.26 28.4219C325.571 28.4219 325.009 28.6178 324.571 29.0098C324.134 29.4017 323.915 29.9144 323.915 30.5479C323.915 31.1813 324.127 31.6872 324.551 32.0654C324.974 32.4391 325.549 32.626 326.273 32.626C326.98 32.626 327.547 32.4391 327.975 32.0654C328.404 31.6917 328.618 31.1859 328.618 30.5479ZM328.358 25.7832C328.358 25.2135 328.16 24.7396 327.763 24.3613C327.372 23.9785 326.87 23.7871 326.26 23.7871C325.64 23.7871 325.136 23.9717 324.749 24.3408C324.366 24.7054 324.175 25.1862 324.175 25.7832C324.175 26.3665 324.366 26.8359 324.749 27.1914C325.136 27.5469 325.642 27.7246 326.266 27.7246C326.882 27.7246 327.383 27.5469 327.77 27.1914C328.162 26.8314 328.358 26.362 328.358 25.7832ZM331.093 34.0342H330.347L334.504 23.2266H335.242L331.093 34.0342ZM342.878 33.1797H336.643V32.5508L340.054 28.6816C340.62 28.0299 341.011 27.4922 341.23 27.0684C341.449 26.6445 341.558 26.2321 341.558 25.8311C341.558 25.2021 341.374 24.7054 341.005 24.3408C340.635 23.9717 340.127 23.7871 339.48 23.7871C338.81 23.7871 338.268 24.0013 337.853 24.4297C337.443 24.8581 337.238 25.4141 337.238 26.0977H336.425C336.425 25.5371 336.55 25.0267 336.801 24.5664C337.056 24.1061 337.416 23.7461 337.881 23.4863C338.35 23.222 338.883 23.0898 339.48 23.0898C340.392 23.0898 341.103 23.3291 341.613 23.8076C342.128 24.2861 342.385 24.9378 342.385 25.7627C342.385 26.2275 342.24 26.7357 341.948 27.2871C341.661 27.8385 341.153 28.5267 340.424 29.3516L337.648 32.4893H342.878V33.1797ZM346.227 27.7588H347.075C347.544 27.7588 347.955 27.6768 348.305 27.5127C348.656 27.3441 348.923 27.1162 349.105 26.8291C349.292 26.5374 349.385 26.2025 349.385 25.8242C349.385 25.1862 349.205 24.6872 348.845 24.3271C348.485 23.9671 347.968 23.7871 347.294 23.7871C346.656 23.7871 346.132 23.9762 345.721 24.3545C345.316 24.7282 345.113 25.2227 345.113 25.8379H344.293C344.293 25.3229 344.423 24.8535 344.682 24.4297C344.942 24.0013 345.302 23.6709 345.762 23.4385C346.223 23.2061 346.733 23.0898 347.294 23.0898C348.196 23.0898 348.907 23.3359 349.427 23.8281C349.946 24.3203 350.206 24.9948 350.206 25.8516C350.206 26.3301 350.053 26.7721 349.748 27.1777C349.447 27.5788 349.032 27.8796 348.504 28.0801C349.123 28.2533 349.593 28.5518 349.912 28.9756C350.231 29.3949 350.39 29.8962 350.39 30.4795C350.39 31.3317 350.112 32.0176 349.556 32.5371C349 33.0566 348.258 33.3164 347.328 33.3164C346.735 33.3164 346.191 33.1979 345.694 32.9609C345.202 32.724 344.819 32.3936 344.546 31.9697C344.277 31.5413 344.142 31.0446 344.142 30.4795H344.963C344.963 31.113 345.184 31.6302 345.626 32.0312C346.068 32.4277 346.635 32.626 347.328 32.626C348.034 32.626 348.583 32.446 348.975 32.0859C349.372 31.7214 349.57 31.195 349.57 30.5068C349.57 29.8415 349.356 29.3333 348.927 28.9824C348.504 28.6315 347.877 28.4561 347.048 28.4561H346.227V27.7588Z" fill="black"/>
</g>
<defs>
<clipPath id="clip0">
<rect width="375" height="375" fill="white" transform="translate(0.137939 0.553711)"/>
</clipPath>
</defs>
</svg>
