<svg width="376" height="376" viewBox="0 0 376 376" fill="none" xmlns="http://www.w3.org/2000/svg">
<g clip-path="url(#clip0)">
<path d="M99.8704 222.3C97.4704 222.3 95.7664 223.932 95.7664 226.332C95.7664 228.708 97.5664 230.22 99.7984 230.22C101.886 230.22 103.878 228.9 103.878 226.188C103.878 223.956 102.342 222.3 99.8704 222.3ZM99.8224 224.076C100.806 224.076 101.31 225.228 101.31 226.236C101.31 227.532 100.782 228.444 99.8464 228.444C98.9104 228.444 98.3584 227.46 98.3584 226.284C98.3584 225.324 98.7424 224.076 99.8224 224.076ZM117.384 233.172C116.664 233.46 115.44 233.7 114.336 233.7C111.072 233.7 109.152 231.66 109.152 228.42C109.152 224.82 111.408 223.068 114.312 223.068C115.608 223.068 116.64 223.356 117.384 223.668L118.128 220.764C117.48 220.428 116.04 220.044 114.144 220.044C109.248 220.044 105.312 223.116 105.312 228.636C105.312 233.244 108.192 236.724 113.784 236.724C115.752 236.724 117.264 236.364 117.936 236.028L117.384 233.172Z" fill="black"/>
<path d="M113.163 165.178V162.388H114.567V160.336H113.163V153.478H109.815L105.387 160.606V162.388H110.571V165.178H113.163ZM107.943 160.336V160.3L109.509 157.744C109.905 157.006 110.211 156.322 110.589 155.566H110.661C110.607 156.322 110.571 157.042 110.571 157.744V160.336H107.943ZM119.998 153.28C116.974 153.28 115.534 155.962 115.534 159.346C115.552 162.658 116.884 165.376 119.908 165.376C122.896 165.376 124.354 162.892 124.354 159.274C124.354 156.07 123.13 153.28 119.998 153.28ZM119.962 155.35C121.06 155.35 121.618 156.718 121.618 159.31C121.618 161.974 121.042 163.306 119.98 163.306C118.918 163.306 118.27 162.028 118.288 159.346C118.27 156.628 118.954 155.35 119.962 155.35Z" fill="black"/>
<path d="M168.514 134.552C171.232 134.552 173.014 133.13 173.014 131.006C173.014 129.494 172.006 128.522 170.872 128.09V128.036C172.024 127.46 172.564 126.47 172.564 125.462C172.564 124.04 171.43 122.456 168.694 122.456C166.354 122.456 164.572 123.77 164.572 125.75C164.572 126.776 165.13 127.73 166.264 128.306V128.36C164.986 128.918 164.176 129.89 164.176 131.294C164.176 132.878 165.544 134.552 168.514 134.552ZM168.622 132.662C167.596 132.662 166.948 131.87 166.966 131.024C166.966 130.178 167.488 129.53 168.388 129.278C169.468 129.566 170.224 130.178 170.224 131.204C170.224 132.032 169.594 132.662 168.622 132.662ZM168.568 124.31C169.576 124.31 169.99 125.03 169.99 125.75C169.99 126.488 169.432 127.064 168.802 127.244C167.866 126.956 167.146 126.452 167.146 125.66C167.146 124.922 167.632 124.31 168.568 124.31ZM178.624 122.456C175.6 122.456 174.16 125.138 174.16 128.522C174.178 131.834 175.51 134.552 178.534 134.552C181.522 134.552 182.98 132.068 182.98 128.45C182.98 125.246 181.756 122.456 178.624 122.456ZM178.588 124.526C179.686 124.526 180.244 125.894 180.244 128.486C180.244 131.15 179.668 132.482 178.606 132.482C177.544 132.482 176.896 131.204 176.914 128.522C176.896 125.804 177.58 124.526 178.588 124.526Z" fill="black"/>
<path d="M214.99 139.188H217.636V127.488H215.368L212.272 128.928L212.722 130.98L214.954 129.918H214.99V139.188ZM225.767 127.29C222.743 127.29 221.303 129.972 221.303 133.356C221.321 136.668 222.653 139.386 225.677 139.386C228.665 139.386 230.123 136.902 230.123 133.284C230.123 130.08 228.899 127.29 225.767 127.29ZM225.731 129.36C226.829 129.36 227.387 130.728 227.387 133.32C227.387 135.984 226.811 137.316 225.749 137.316C224.687 137.316 224.039 136.038 224.057 133.356C224.039 130.638 224.723 129.36 225.731 129.36ZM235.751 127.29C232.727 127.29 231.287 129.972 231.287 133.356C231.305 136.668 232.637 139.386 235.661 139.386C238.649 139.386 240.107 136.902 240.107 133.284C240.107 130.08 238.883 127.29 235.751 127.29ZM235.715 129.36C236.813 129.36 237.371 130.728 237.371 133.32C237.371 135.984 236.795 137.316 235.733 137.316C234.671 137.316 234.023 136.038 234.041 133.356C234.023 130.638 234.707 129.36 235.715 129.36Z" fill="black"/>
<path d="M247.023 165.178H249.669V153.478H247.401L244.305 154.918L244.755 156.97L246.987 155.908H247.023V165.178ZM261.814 165.178V162.928H257.404V162.892L258.484 161.992C260.176 160.48 261.598 158.914 261.598 156.952C261.598 154.828 260.14 153.28 257.494 153.28C255.91 153.28 254.542 153.82 253.66 154.486L254.434 156.448C255.046 155.98 255.928 155.476 256.936 155.476C258.286 155.476 258.862 156.232 258.862 157.186C258.826 158.554 257.584 159.868 255.028 162.154L253.516 163.522V165.178H261.814ZM267.784 153.28C264.76 153.28 263.32 155.962 263.32 159.346C263.338 162.658 264.67 165.376 267.694 165.376C270.682 165.376 272.14 162.892 272.14 159.274C272.14 156.07 270.916 153.28 267.784 153.28ZM267.748 155.35C268.846 155.35 269.404 156.718 269.404 159.31C269.404 161.974 268.828 163.306 267.766 163.306C266.704 163.306 266.056 162.028 266.074 159.346C266.056 156.628 266.74 155.35 267.748 155.35Z" fill="black"/>
<path d="M166.74 115.078L175.448 113.982L172.253 88.5841L163.545 89.6794L166.74 115.078Z" fill="black"/>
<path d="M222.681 118.547L230.782 121.924L240.632 98.2975L232.531 94.9203L222.681 118.547Z" fill="black"/>
<path d="M264.043 142.718L270.161 149.011L288.514 131.167L282.396 124.874L264.043 142.718Z" fill="black"/>
<path d="M125.058 131.091L132.486 126.416L118.851 104.753L111.423 109.429L125.058 131.091Z" fill="black"/>
<path d="M103.964 148.999L110.067 142.692L91.6728 124.892L85.5701 131.198L103.964 148.999Z" fill="black"/>
<path d="M197.189 108.546L202.291 108.963L203.958 88.5517L198.856 88.1351L197.189 108.546Z" fill="black"/>
<path d="M142.12 116.308L146.855 114.366L139.086 95.4204L134.351 97.3622L142.12 116.308Z" fill="black"/>
<path d="M252.353 127.885L256.449 130.953L268.723 114.563L264.627 111.496L252.353 127.885Z" fill="black"/>
<path d="M254.756 232.63C254.756 232.63 255.486 234.763 257.802 234.642C260.119 234.52 260.849 231.778 263.471 231.837C266.092 231.899 266.579 234.59 269.261 234.645C271.943 234.702 272.369 232.203 275.294 232.203C278.22 232.203 278.706 234.713 281.45 234.647C284.193 234.58 284.863 231.897 287.91 231.837C290.957 231.777 291.383 234.655 293.821 234.648C296.26 234.641 296.26 232.934 296.26 232.934" stroke="#111111" stroke-width="2" stroke-miterlimit="10" stroke-linecap="round"/>
<path d="M275.413 202.364V205.326V224.123" stroke="#111111" stroke-width="4" stroke-miterlimit="10" stroke-linecap="round"/>
<path d="M281.45 205.266L275.538 205.327" stroke="#111111" stroke-width="2" stroke-miterlimit="10" stroke-linecap="round"/>
<path d="M281.45 210.385L275.538 210.446" stroke="#111111" stroke-width="2" stroke-miterlimit="10" stroke-linecap="round"/>
<path d="M281.45 215.504L275.538 215.566" stroke="#111111" stroke-width="2" stroke-miterlimit="10" stroke-linecap="round"/>
<path d="M275.538 226.596C277.187 226.596 278.524 225.26 278.524 223.611C278.524 221.962 277.187 220.625 275.538 220.625C273.889 220.625 272.552 221.962 272.552 223.611C272.552 225.26 273.889 226.596 275.538 226.596Z" fill="#161616"/>
<path d="M254.756 225.195C254.756 225.195 257.193 221.842 259.935 221.903C262.678 221.965 264.506 225.195 264.506 225.195" stroke="#1E1E1E" stroke-width="2" stroke-miterlimit="10" stroke-linecap="round"/>
<path d="M285.473 225.195C285.473 225.195 287.91 221.842 290.653 221.903C293.395 221.965 295.224 225.195 295.224 225.195" stroke="#1E1E1E" stroke-width="2" stroke-miterlimit="10" stroke-linecap="round"/>
<path d="M187.775 23.4629C96.76 23.4629 22.9767 97.2457 22.9767 188.262C22.9767 279.278 96.76 353.06 187.775 353.06C278.791 353.06 352.574 279.277 352.574 188.262C352.574 97.2463 278.791 23.4629 187.775 23.4629ZM187.775 321.367C114.263 321.367 54.6694 261.772 54.6694 188.261C54.6694 114.75 114.263 55.155 187.775 55.155C261.288 55.155 320.881 114.749 320.881 188.261C320.881 261.773 261.288 321.367 187.775 321.367Z" fill="#1E1E1E"/>
<path d="M187.775 23.4629C96.76 23.4629 22.9767 97.2457 22.9767 188.262C22.9767 279.278 96.76 353.06 187.775 353.06C278.791 353.06 352.574 279.277 352.574 188.262C352.574 97.2463 278.791 23.4629 187.775 23.4629ZM187.775 341.358C103.223 341.358 34.679 272.814 34.679 188.262C34.679 103.709 103.223 35.1646 187.775 35.1646C272.328 35.1646 340.872 103.708 340.872 188.261C340.872 272.814 272.328 341.358 187.775 341.358Z" fill="#3D3D3D"/>
<path d="M182.312 199.133L185.176 98.9064L190.995 98.8877C190.995 98.8877 193.114 198.884 193.238 199.145L182.312 199.133Z" fill="#EA2424"/>
<path d="M187.775 255.547C204.471 255.547 218.005 242.013 218.005 225.317C218.005 208.622 204.471 195.088 187.775 195.088C171.08 195.088 157.546 208.622 157.546 225.317C157.546 242.013 171.08 255.547 187.775 255.547Z" fill="#1E1E1E"/>
</g>
<rect x="315.138" y="15.7314" width="45.0996" height="25" rx="12.5" fill="#969696" fill-opacity="0.3"/>
<path d="M323.249 33.3574H322.428V24.3887L319.721 25.3936V24.6279L323.112 23.3701H323.249V33.3574ZM327.76 28.2578L328.246 23.4043H333.222V24.1631H328.95L328.601 27.5264C329.135 27.1618 329.759 26.9795 330.474 26.9795C331.372 26.9795 332.088 27.2712 332.621 27.8545C333.154 28.4378 333.421 29.2148 333.421 30.1855C333.421 31.2337 333.161 32.0472 332.641 32.626C332.122 33.2048 331.39 33.4941 330.447 33.4941C329.581 33.4941 328.879 33.2526 328.342 32.7695C327.804 32.2865 327.496 31.6097 327.419 30.7393H328.205C328.282 31.4183 328.512 31.9333 328.895 32.2842C329.278 32.6305 329.795 32.8037 330.447 32.8037C331.158 32.8037 331.693 32.5781 332.053 32.127C332.418 31.6758 332.6 31.0332 332.6 30.1992C332.6 29.4701 332.398 28.8753 331.992 28.415C331.586 27.9548 331.033 27.7246 330.331 27.7246C329.943 27.7246 329.606 27.7747 329.319 27.875C329.032 27.9707 328.729 28.1598 328.41 28.4424L327.76 28.2578ZM334.986 34.2119H334.241L338.397 23.4043H339.135L334.986 34.2119ZM346.771 33.3574H340.537V32.7285L343.948 28.8594C344.513 28.2077 344.905 27.6699 345.124 27.2461C345.343 26.8223 345.452 26.4098 345.452 26.0088C345.452 25.3799 345.267 24.8831 344.898 24.5186C344.529 24.1494 344.021 23.9648 343.374 23.9648C342.704 23.9648 342.162 24.179 341.747 24.6074C341.337 25.0358 341.132 25.5918 341.132 26.2754H340.318C340.318 25.7148 340.443 25.2044 340.694 24.7441C340.949 24.2839 341.309 23.9238 341.774 23.6641C342.244 23.3997 342.777 23.2676 343.374 23.2676C344.285 23.2676 344.996 23.5068 345.507 23.9854C346.022 24.4639 346.279 25.1156 346.279 25.9404C346.279 26.4053 346.133 26.9134 345.842 27.4648C345.554 28.0163 345.046 28.7044 344.317 29.5293L341.542 32.667H346.771V33.3574ZM350.121 27.9365H350.969C351.438 27.9365 351.848 27.8545 352.199 27.6904C352.55 27.5218 352.816 27.2939 352.999 27.0068C353.186 26.7152 353.279 26.3802 353.279 26.002C353.279 25.3639 353.099 24.8649 352.739 24.5049C352.379 24.1449 351.862 23.9648 351.187 23.9648C350.549 23.9648 350.025 24.154 349.615 24.5322C349.209 24.9059 349.007 25.4004 349.007 26.0156H348.186C348.186 25.5007 348.316 25.0312 348.576 24.6074C348.836 24.179 349.196 23.8486 349.656 23.6162C350.116 23.3838 350.627 23.2676 351.187 23.2676C352.09 23.2676 352.801 23.5137 353.32 24.0059C353.84 24.498 354.099 25.1725 354.099 26.0293C354.099 26.5078 353.947 26.9499 353.641 27.3555C353.341 27.7565 352.926 28.0573 352.397 28.2578C353.017 28.431 353.486 28.7295 353.805 29.1533C354.124 29.5726 354.284 30.0739 354.284 30.6572C354.284 31.5094 354.006 32.1953 353.45 32.7148C352.894 33.2344 352.151 33.4941 351.221 33.4941C350.629 33.4941 350.084 33.3757 349.588 33.1387C349.095 32.9017 348.713 32.5713 348.439 32.1475C348.17 31.7191 348.036 31.2223 348.036 30.6572H348.856C348.856 31.2907 349.077 31.8079 349.519 32.209C349.961 32.6055 350.529 32.8037 351.221 32.8037C351.928 32.8037 352.477 32.6237 352.869 32.2637C353.265 31.8991 353.464 31.3727 353.464 30.6846C353.464 30.0192 353.249 29.5111 352.821 29.1602C352.397 28.8092 351.771 28.6338 350.941 28.6338H350.121V27.9365Z" fill="black"/>
<defs>
<clipPath id="clip0">
<rect width="330" height="330" fill="white" transform="translate(22.7754 23.4629)"/>
</clipPath>
</defs>
</svg>
