<svg width="376" height="376" viewBox="0 0 376 376" fill="none" xmlns="http://www.w3.org/2000/svg">
<g clip-path="url(#clip0)">
<path d="M379.261 -3.56738H-4.17627V381.745H379.261V-3.56738Z" fill="#F4F4F4"/>
<path d="M7.26488 -95.6797H-3.02747V110.163H7.26488V-95.6797Z" fill="#969696"/>
<path d="M88.8114 64.4589L93.7676 55.4541L-94.5867 -48.2149L-99.5429 -39.2101L88.8114 64.4589Z" fill="#969696"/>
<path d="M89.0173 -38.105L83.7268 -46.918L-100.596 63.7315L-95.3054 72.5445L89.0173 -38.105Z" fill="#969696"/>
<path d="M2.03644 31.3966C14.708 31.3966 24.9803 21.1243 24.9803 8.4527C24.9803 -4.21887 14.708 -14.4912 2.03644 -14.4912C-10.6351 -14.4912 -20.9075 -4.21887 -20.9075 8.4527C-20.9075 21.1243 -10.6351 31.3966 2.03644 31.3966Z" fill="black"/>
<path d="M-0.526611 -164.876C-97.5626 -164.876 -176.226 -86.2127 -176.226 10.8233C-176.226 107.859 -97.5626 186.523 -0.526611 186.523C96.5074 186.523 175.172 107.859 175.172 10.8233C175.172 -86.2127 96.5093 -164.876 -0.526611 -164.876ZM-0.526611 161.926C-83.9796 161.926 -151.631 94.2748 -151.631 10.8223C-151.631 -72.6302 -83.9787 -140.28 -0.526611 -140.28C82.925 -140.28 150.576 -72.6288 150.576 10.8233C150.576 94.2748 82.9254 161.926 -0.526611 161.926Z" fill="black" stroke="black" stroke-miterlimit="10"/>
<path d="M36.0926 157.35C35.3637 157.451 15.0616 160.129 14.7171 143.357C14.3721 126.585 14.3158 114.768 14.3158 114.768C14.3158 114.768 15.0954 102.353 7.11163 102.362C6.34475 102.362 0.545372 102.354 -0.108532 102.354C-6.74603 102.353 -6.94197 108.544 -6.88431 115.007C-6.82103 122.018 -7.25181 143.087 -7.25181 143.087C-7.25181 143.087 -10.3099 159.147 -26.4626 159.055C-42.6617 158.964 -21.1643 163.127 -21.1643 163.127L29.7893 162.806L36.0926 157.35Z" fill="black" stroke="black" stroke-miterlimit="10"/>
<path d="M144.478 54.1488C144.202 54.8295 136.371 73.751 121.673 65.6628C106.976 57.5763 96.7133 51.7156 96.7133 51.7156C96.7133 51.7156 86.3516 44.832 82.3667 51.7521C81.9833 52.4163 79.0765 57.4352 78.7508 58.0001C75.4297 63.7484 80.6942 67.0137 86.3202 70.1956C92.4237 73.646 110.455 84.5529 110.455 84.5529C110.455 84.5529 122.214 94.999 114.32 108.672C106.221 122.701 120.853 106.622 120.853 106.622L146.053 62.336L144.478 54.1488Z" fill="black" stroke="black" stroke-miterlimit="10"/>
<path d="M1.79422 -29.3203C-20.2839 -29.3203 -38.1808 -11.422 -38.1808 10.6552C-38.1808 32.7323 -20.2839 50.6292 1.79422 50.6292C23.8723 50.6292 41.7706 32.7323 41.7706 10.6552C41.7706 -11.4225 23.8714 -29.3203 1.79422 -29.3203ZM1.79422 30.7425C-9.29922 30.7425 -18.2936 21.7486 -18.2936 10.6547C-18.2936 -0.439684 -9.29969 -9.43359 1.79422 -9.43359C12.8886 -9.43359 21.883 -0.440153 21.883 10.6547C21.882 21.7491 12.8881 30.7425 1.79422 30.7425Z" fill="#969696"/>
<path d="M180.168 136.627L166.734 113.47L180.168 90.3125H207.038L220.472 113.47L207.038 136.627H180.168Z" fill="#494949"/>
<path d="M173.632 116.684C173.632 118.281 174.029 120.455 174.384 121.19H174.369L174.421 121.48C174.639 122.359 174.918 123.325 175.247 124.151L183.499 149.861H183.502C184.608 154.272 188.759 157.86 193.714 157.86C198.707 157.86 202.884 154.352 203.952 149.682L212.13 124.307C212.496 123.407 212.798 122.344 213.031 121.382L213.05 121.188H213.045C213.4 120.453 213.651 118.279 213.651 116.682C213.651 107.543 207.225 99.9767 199.139 97.6536V106.824C201.344 108.461 202.78 111.11 202.78 114.1C202.78 117.088 201.252 119.751 199.01 121.391L198.913 131.606C198.794 134.369 196.42 136.608 193.627 136.608C190.835 136.608 188.847 134.734 188.111 131.673V131.384C188.111 131.383 188.111 131.382 188.111 131.38C188.111 131.379 188.111 131.379 188.111 131.377V121.456C186.641 119.825 184.3 117.138 184.3 114.1C184.3 111.06 186.641 108.375 188.111 106.744V97.624C180.025 99.9078 173.631 107.505 173.632 116.684ZM193.714 142.11C196.584 142.11 198.911 144.436 198.911 147.306C198.911 150.173 196.584 152.501 193.714 152.501C190.845 152.501 188.518 150.174 188.518 147.306C188.518 144.436 190.845 142.11 193.714 142.11Z" fill="black"/>
<path d="M193.604 124.53C199.675 124.53 204.596 119.609 204.596 113.538C204.596 107.467 199.675 102.545 193.604 102.545C187.533 102.545 182.611 107.467 182.611 113.538C182.611 119.609 187.533 124.53 193.604 124.53Z" fill="#F22F2F"/>
<path d="M225.233 343.859C227.344 337.71 245.751 342.531 243.833 348.072C242.269 352.589 227.937 343.848 230.229 335.934C233.422 324.905 251.979 332.178 250.35 339.784C249.659 343.004 236.427 328.822 238.315 323.6" stroke="#FF0000" stroke-width="4" stroke-miterlimit="10" stroke-linecap="round"/>
<path d="M276.335 281.757C278.61 275.666 245.13 260.708 243.064 266.198C241.986 269.062 273.621 280.818 280.057 274.418C283.495 270.999 290.336 271.296 288.184 277.059C286.001 282.908 261.274 274.46 265.684 261.979" stroke="#FF0000" stroke-width="4" stroke-miterlimit="10" stroke-linecap="round"/>
<path d="M237.96 324.251C239.318 314.885 259.629 322.745 257.71 328.285C256.101 332.933 242.148 322.196 244.54 313.93C247.19 304.775 259.83 316.611 258.871 319.356C257.396 323.571 245.572 308.652 253.571 302.529" stroke="#FF0000" stroke-width="4" stroke-miterlimit="10" stroke-linecap="round"/>
<path d="M206.858 281.213C207.032 287.714 185.32 292.882 185.178 287.021C185.038 281.175 206.451 283.317 207.169 292.82C207.889 302.325 186.332 304.064 185.48 298.279C184.628 292.493 206.843 289.307 207.428 302.529" stroke="#FF0000" stroke-width="4" stroke-miterlimit="10" stroke-linecap="round"/>
<path d="M206.325 261.282C206.498 267.782 184.785 272.952 184.644 267.09C184.504 261.245 205.866 261.55 206.586 271.054C207.306 280.558 185.749 282.297 184.897 276.513C184.045 270.727 206.29 268.684 206.876 281.911" stroke="#FF0000" stroke-width="4" stroke-miterlimit="10" stroke-linecap="round"/>
<path d="M205.742 239.517C205.914 246.016 184.202 251.186 184.061 245.323C183.921 239.479 205.303 240.517 206.023 250.022C206.743 259.525 185.185 261.264 184.334 255.481C183.483 249.696 205.758 248.756 206.343 261.978" stroke="#FF0000" stroke-width="4" stroke-miterlimit="10" stroke-linecap="round"/>
<path d="M205.963 239.803C205.731 226.568 183.434 227.323 184.131 233.128C184.828 238.933 206.428 236.262 205.963 226.74C205.5 217.219 183.786 217.077 183.769 222.924C183.754 228.789 203.667 221.863 203.667 215.36C203.667 215.36 205.047 211.113 198.168 206.498C193.48 203.354 193.755 195.092 194.122 193.898C194.489 192.705 200.479 148.337 193.388 147.998C183.769 147.54 194.307 171.04 192.837 180.863C192.64 182.225 191.048 195.688 191.048 195.688" stroke="#FF0000" stroke-width="4" stroke-miterlimit="10" stroke-linecap="round"/>
<path d="M212.934 365.192C208.266 358.976 231.428 358.275 229.509 363.817C227.597 369.341 215.519 361.882 218.17 352.726C220.821 343.57 238.8 352.841 237.575 358.558C236.349 364.273 221.158 356.455 225.235 343.859" stroke="#FF0000" stroke-width="4" stroke-miterlimit="10" stroke-linecap="round"/>
<path d="M214.605 341.814C214.779 348.312 196.124 353.4 195.984 347.539C195.842 341.693 215.766 341.377 216.485 350.883C217.204 360.386 198.485 360.374 202.637 356.259C204.751 354.164 227.881 360.526 215.228 365.13" stroke="#FF0000" stroke-width="4" stroke-miterlimit="10" stroke-linecap="round"/>
<path d="M209.711 322.432C209.886 328.932 190.796 334.03 190.654 328.169C190.514 322.324 211.853 321.677 212.572 331.183C213.289 340.689 193.481 342.38 192.63 336.595C191.764 330.72 214.036 329.244 214.625 342.511" stroke="#FF0000" stroke-width="4" stroke-miterlimit="10" stroke-linecap="round"/>
<path d="M207.415 301.72C207.589 308.219 186.751 313.676 186.61 307.813C186.468 301.967 207.83 302.273 208.552 311.778C209.272 321.281 188.589 322.998 187.736 317.214C186.887 311.429 209.145 309.904 209.731 323.13" stroke="#FF0000" stroke-width="4" stroke-miterlimit="10" stroke-linecap="round"/>
<path d="M288.183 146.671C305.452 146.671 319.451 132.672 319.451 115.403C319.451 98.1347 305.452 84.1357 288.183 84.1357C270.915 84.1357 256.916 98.1347 256.916 115.403C256.916 132.672 270.915 146.671 288.183 146.671Z" fill="#494949"/>
<path d="M193.993 152.498C193.993 152.498 188.665 152.738 188.541 146.828C188.417 140.92 183.442 149.682 183.442 149.682C183.442 149.682 185.231 158.069 194.67 157.859C195.362 157.637 193.993 152.498 193.993 152.498Z" fill="black"/>
<path d="M280.592 312.425C281.06 308.54 278.909 288.046 280.544 284.204C282.181 280.363 282.838 276.032 283.945 268.02C285.053 260.007 292.431 246.951 296.664 242.505C300.898 238.058 318.836 218.568 323.339 212.666C327.842 206.767 344.015 195.845 345.796 191.506C347.574 187.167 341.961 153.946 341.88 153.071C341.799 152.199 342.338 151.834 346.993 137.129C351.65 122.424 350.599 119.078 348.872 116.493C347.146 113.906 341.241 113.173 341.11 112.908C340.979 112.642 306.155 108.494 304.491 107.644C302.828 106.797 291.091 105.744 289.758 105.84C288.425 105.935 287.522 107.645 287.236 107.417C286.526 106.137 285.242 106.85 283.251 106.28C281.26 105.711 274.626 112.103 271.408 114.083C268.19 116.064 267.008 115.561 264.192 116.447C261.377 117.332 257.09 117.203 254.782 121.428C252.473 125.652 248.88 165.659 249.122 167.716C249.363 169.774 243.818 178.854 243.266 182.122C241.516 185.999 240.821 198.619 240.069 201.43C239.148 204.528 239.668 208.739 239.468 211.369C240.081 213.865 238.724 225.578 238.296 230.841C237.871 236.105 241.235 256.987 210.846 393.778L284.902 438.778L280.592 312.425ZM277.368 153.703L279.278 137.489C279.278 137.489 280.592 141.591 291.715 140.801L291.229 140.89C288.903 142.25 281.224 147.982 279.593 155.486C279.458 156.094 277.368 153.703 277.368 153.703Z" fill="#F9DBBD"/>
<path d="M232.403 261.283C234.644 247.221 248.851 271.204 243.062 268.871C238.028 266.842 251.354 256.63 261.036 259.029C273.345 262.079 277.434 277.968 271.424 276.356C265.761 274.835 275.332 268.932 281.612 267.25C281.612 267.25 286.999 266.335 288.622 271.452" stroke="#FF0000" stroke-width="4" stroke-miterlimit="10" stroke-linecap="round"/>
<path d="M287.282 133.52C287.115 134.123 286.101 134.333 285.678 134.216L281.876 133.163C281.451 133.046 280.739 132.357 280.906 131.756L290.798 96.0115C290.965 95.4092 291.844 95.495 292.269 95.6126L296.071 96.665C296.494 96.7822 297.341 97.1745 297.175 97.7764L287.282 133.52Z" fill="#F4F4F4"/>
<path d="M196.996 191.769C196.915 192.319 196.527 192.717 196.129 192.658L189.559 191.695C189.161 191.636 188.904 191.143 188.984 190.593L190.169 182.505C190.249 181.954 190.638 181.556 191.036 181.615L197.605 182.577C198.004 182.635 198.26 183.13 198.181 183.679L196.996 191.769Z" fill="#C1C1C1"/>
<rect x="315.138" y="15.7314" width="45.0996" height="25" rx="12.5" fill="#969696" fill-opacity="0.3"/>
<path d="M323.249 33.3574H322.428V24.3887L319.721 25.3936V24.6279L323.112 23.3701H323.249V33.3574ZM332.313 28.75C332.022 29.1784 331.659 29.5111 331.226 29.748C330.793 29.9805 330.324 30.0967 329.818 30.0967C329.253 30.0967 328.754 29.9508 328.321 29.6592C327.888 29.3675 327.553 28.9642 327.316 28.4492C327.079 27.9342 326.961 27.3714 326.961 26.7607C326.961 26.1045 327.086 25.5075 327.337 24.9697C327.592 24.432 327.945 24.015 328.396 23.7188C328.852 23.418 329.376 23.2676 329.969 23.2676C330.967 23.2676 331.744 23.6185 332.3 24.3203C332.856 25.0176 333.134 26.0088 333.134 27.2939V28.0322C333.134 29.8278 332.751 31.1768 331.985 32.0791C331.219 32.9814 330.051 33.4326 328.478 33.4326H328.328L328.335 32.7217H328.622C329.811 32.7035 330.716 32.3662 331.336 31.71C331.955 31.0537 332.281 30.0671 332.313 28.75ZM329.921 29.3926C330.468 29.3926 330.957 29.2308 331.39 28.9072C331.828 28.5791 332.138 28.1553 332.32 27.6357V27.1641C332.32 26.1523 332.108 25.3685 331.684 24.8125C331.265 24.252 330.698 23.9717 329.982 23.9717C329.335 23.9717 328.804 24.2337 328.389 24.7578C327.975 25.2773 327.767 25.9336 327.767 26.7266C327.767 27.4876 327.966 28.1234 328.362 28.6338C328.763 29.1396 329.283 29.3926 329.921 29.3926ZM334.986 34.2119H334.241L338.397 23.4043H339.135L334.986 34.2119ZM346.771 33.3574H340.537V32.7285L343.948 28.8594C344.513 28.2077 344.905 27.6699 345.124 27.2461C345.343 26.8223 345.452 26.4098 345.452 26.0088C345.452 25.3799 345.267 24.8831 344.898 24.5186C344.529 24.1494 344.021 23.9648 343.374 23.9648C342.704 23.9648 342.162 24.179 341.747 24.6074C341.337 25.0358 341.132 25.5918 341.132 26.2754H340.318C340.318 25.7148 340.443 25.2044 340.694 24.7441C340.949 24.2839 341.309 23.9238 341.774 23.6641C342.244 23.3997 342.777 23.2676 343.374 23.2676C344.285 23.2676 344.996 23.5068 345.507 23.9854C346.022 24.4639 346.279 25.1156 346.279 25.9404C346.279 26.4053 346.133 26.9134 345.842 27.4648C345.554 28.0163 345.046 28.7044 344.317 29.5293L341.542 32.667H346.771V33.3574ZM350.121 27.9365H350.969C351.438 27.9365 351.848 27.8545 352.199 27.6904C352.55 27.5218 352.816 27.2939 352.999 27.0068C353.186 26.7152 353.279 26.3802 353.279 26.002C353.279 25.3639 353.099 24.8649 352.739 24.5049C352.379 24.1449 351.862 23.9648 351.187 23.9648C350.549 23.9648 350.025 24.154 349.615 24.5322C349.209 24.9059 349.007 25.4004 349.007 26.0156H348.186C348.186 25.5007 348.316 25.0312 348.576 24.6074C348.836 24.179 349.196 23.8486 349.656 23.6162C350.116 23.3838 350.627 23.2676 351.187 23.2676C352.09 23.2676 352.801 23.5137 353.32 24.0059C353.84 24.498 354.099 25.1725 354.099 26.0293C354.099 26.5078 353.947 26.9499 353.641 27.3555C353.341 27.7565 352.926 28.0573 352.397 28.2578C353.017 28.431 353.486 28.7295 353.805 29.1533C354.124 29.5726 354.284 30.0739 354.284 30.6572C354.284 31.5094 354.006 32.1953 353.45 32.7148C352.894 33.2344 352.151 33.4941 351.221 33.4941C350.629 33.4941 350.084 33.3757 349.588 33.1387C349.095 32.9017 348.713 32.5713 348.439 32.1475C348.17 31.7191 348.036 31.2223 348.036 30.6572H348.856C348.856 31.2907 349.077 31.8079 349.519 32.209C349.961 32.6055 350.529 32.8037 351.221 32.8037C351.928 32.8037 352.477 32.6237 352.869 32.2637C353.265 31.8991 353.464 31.3727 353.464 30.6846C353.464 30.0192 353.249 29.5111 352.821 29.1602C352.397 28.8092 351.771 28.6338 350.941 28.6338H350.121V27.9365Z" fill="black"/>
</g>
<defs>
<clipPath id="clip0">
<rect width="375" height="375" fill="white" transform="translate(0.137695 0.731445)"/>
</clipPath>
</defs>
</svg>
