<svg width="376" height="376" viewBox="0 0 376 376" fill="none" xmlns="http://www.w3.org/2000/svg">
<g clip-path="url(#clip0)">
<rect x="0.273438" y="1.10547" width="374.003" height="374.003" fill="#8BF6FF"/>
<path d="M298.328 179.277C297.441 180.808 296.432 190.556 298.113 192.64C299.795 194.724 305.174 197.105 305.982 197.18C306.789 197.255 302.674 219.554 302.674 219.554C302.674 219.554 302.498 236.719 304.063 238.194C305.624 239.672 316.925 247.8 319.095 247.927C321.266 248.056 325.165 248.161 325.738 247.138C326.302 246.114 323.591 241.408 323.552 240.928C323.457 239.769 323.18 236.545 323.351 235.841C323.518 235.136 324.573 229.731 325.054 228.701C325.534 227.668 334.907 228.516 335.975 228.724C337.045 228.932 337.094 227.671 337.094 227.671C335.802 224.545 327.17 219.525 327.17 219.525C327.17 219.525 329.833 215.208 331.921 212.814C334.005 210.419 338.023 195.573 339.47 189.154C340.912 182.734 337.407 174.411 336.226 174.119C318.504 169.732 299.224 177.747 298.328 179.277Z" fill="#747474"/>
<path d="M326.035 233.778C327.074 232.618 329.346 231.842 331.09 232.125C332.833 232.406 332.654 232.385 333.334 234.044C334.014 235.702 329.397 235.065 328.303 235.487C327.211 235.909 328.589 237.005 328.779 236.942C328.967 236.879 332.716 237.376 332.716 237.376L332.615 241.332C332.615 241.332 327.719 240.481 327.417 241.127C327.111 241.773 329.978 243.761 331.478 245.417C332.982 247.073 331.258 247.428 328.764 246.115C326.269 244.799 324.769 240.701 324.769 240.701C324.769 240.701 324.089 240.672 323.105 240.517C322.12 240.364 322.66 238.796 322.616 237.546C322.573 236.298 323.007 235.667 323.124 235.437C323.24 235.209 325.103 235.656 325.103 235.656C325.103 235.656 324.999 234.935 326.035 233.778Z" fill="#6C808C"/>
<path d="M240.855 205.583L318.704 205.734L309.224 227.331C304.753 227.457 196.897 231.372 161.629 230.097C159.848 230.033 152.941 230.15 151.55 230.1C142.495 229.773 135.552 230.073 127.164 229.697C119.68 230.068 112.625 229.997 105.754 229.748C97.7318 229.458 91.1563 228.388 85.0496 226.382C58.5121 217.663 48.4867 207.118 40.4296 198.643C39.156 197.303 37.9537 196.039 36.742 194.843C36.6532 194.751 36.5671 194.663 36.4717 194.571C72.2005 213.286 121.128 215.969 156.33 218.238C161.981 218.604 167.502 219.469 172.739 219.658C202.984 220.752 222.115 220.368 222.373 220.351L223.799 219.3L240.855 205.583Z" fill="#8E8E8E" stroke="black" stroke-width="0.1" stroke-miterlimit="10"/>
<path d="M20.5488 176.933C26.5057 177.728 48.2589 179.567 81.0447 179.101C99.2894 178.843 138.953 180.72 185.846 185.298C250.808 191.64 294.641 199.949 317.484 206.345L243.414 207.842L243.398 207.842L243.385 207.852L225.158 221.918C223.398 222.037 192.572 223.957 155.238 221.545C119.887 219.266 70.8088 212.3 35.1116 193.394L34.5923 192.888C34.5922 192.888 34.5921 192.888 34.592 192.888C29.336 187.591 26.9936 184.222 25.4659 181.893L25.4658 181.893C25.4514 181.871 25.4371 181.849 25.4228 181.827C24.6871 180.712 24.1479 179.895 23.5269 179.282C22.7455 178.507 21.4788 177.573 20.5488 176.933Z" fill="#FF6B00" stroke="black" stroke-width="0.1"/>
<path d="M183.145 156.748L186.039 156.032L185.918 155.795C185.894 155.758 184.255 152.577 184.309 150.527C184.319 150.235 184.359 149.965 184.444 149.731C184.573 149.376 184.793 149.139 185.116 149.005C185.32 148.92 185.53 148.88 185.744 148.878C186.314 148.87 186.918 149.123 187.472 149.463C187.816 149.676 188.14 149.924 188.427 150.168C188.938 150.605 189.438 151.105 189.917 151.65C193.026 155.197 195.291 160.661 195.101 163.404C195.097 163.51 195.081 163.609 195.068 163.708C195.052 163.804 195.037 163.897 195.011 163.986C194.819 164.749 194.393 165.194 193.705 165.348C192.261 165.67 189.971 163.151 188.613 161.03C188.564 160.949 188.513 160.867 188.465 160.788C188.367 160.626 188.275 160.468 188.189 160.316C188.059 160.088 187.948 159.867 187.848 159.664L187.627 159.517C187.549 159.516 187.42 159.514 187.004 160.123C186.92 160.246 186.825 160.392 186.717 160.567C186.5 160.919 186.229 161.388 185.89 162.014L183.145 156.748ZM187.748 156.908C187.808 157.015 187.86 157.111 187.91 157.193C187.961 157.278 188 157.347 188.035 157.404C188.062 157.467 188.102 157.547 188.16 157.639C188.209 157.731 188.276 157.836 188.347 157.952C188.384 158.012 188.423 158.071 188.464 158.136C189.581 159.849 192.296 163.369 193.174 163.401C193.249 163.403 193.321 163.388 193.384 163.348C193.53 163.259 193.63 163.115 193.681 162.916C193.695 162.849 193.711 162.777 193.719 162.699C193.747 162.384 193.692 161.969 193.555 161.45C193.309 160.54 192.807 159.321 192.166 158.037C191.782 157.267 191.349 156.473 190.893 155.707L189.98 153.989L189.928 154.046L189.876 154.103C188.818 152.541 187.755 151.316 186.995 151.016C186.883 150.972 186.785 150.948 186.69 150.944C186.554 150.94 186.428 150.971 186.319 151.037C186.275 151.065 186.234 151.095 186.201 151.129C186.015 151.298 185.929 151.554 185.909 151.869C185.824 153.248 187.095 155.733 187.748 156.908Z" fill="black"/>
<path d="M168.391 134.091C169.59 133.689 173.702 133.803 174.935 133.847C175.114 133.854 175.256 133.86 175.359 133.863L177.051 145.389L177.763 145.666L178.472 145.943L186.098 162.182L186.425 166.724L185.039 170.155L180.683 170.112C180.478 167.421 179.293 157.768 179.264 157.715C178.416 156.121 172.876 154.436 171.822 154.163C171.786 154.153 171.756 154.144 171.733 154.139C171.624 154.104 171.51 154.069 171.393 154.034C171.105 153.947 170.794 153.859 170.468 153.77C170.339 153.735 170.207 153.7 170.072 153.665C169.64 153.552 169.186 153.439 168.716 153.328C168.605 153.302 168.495 153.276 168.382 153.25C168.168 153.2 167.952 153.15 167.734 153.101C164.303 152.327 160.343 151.54 159.215 151.344C162.249 144.683 167.39 134.436 168.391 134.091Z" fill="#B2DDEA"/>
<path d="M189.828 154.766C189.987 155.001 190.14 155.241 190.294 155.487L191.082 156.976L189.055 157.326L189.111 157.545C189.112 157.55 189.143 157.693 189.135 157.871C189.13 157.977 189.108 158.096 189.057 158.202C188.788 157.791 188.577 157.443 188.472 157.211C188.279 156.883 188.082 156.527 187.889 156.162C187.92 156.188 187.954 156.213 187.995 156.222C188.008 156.225 188.022 156.229 188.045 156.23C188.188 156.241 188.558 156.121 189.828 154.766Z" fill="black"/>
<path d="M187.747 156.908C187.092 155.734 185.825 153.246 185.904 151.868C185.924 151.557 186.012 151.3 186.193 151.13C186.229 151.096 186.269 151.065 186.314 151.038C186.422 150.972 186.544 150.94 186.684 150.945C186.779 150.948 186.881 150.973 186.989 151.016C187.749 151.318 188.811 152.544 189.869 154.104L189.922 154.048L189.973 153.991L190.886 155.709C191.338 156.474 191.777 157.269 192.157 158.039C192.802 159.322 193.306 160.541 193.55 161.451C193.684 161.972 193.742 162.386 193.713 162.701C193.707 162.778 193.694 162.852 193.676 162.918C193.625 163.117 193.529 163.261 193.377 163.35C193.319 163.389 193.244 163.405 193.169 163.403C192.29 163.371 189.575 159.85 188.459 158.137C188.418 158.073 188.378 158.013 188.342 157.954C188.273 157.838 188.208 157.734 188.154 157.64C188.098 157.548 188.057 157.469 188.031 157.405C187.997 157.349 187.956 157.28 187.908 157.195C187.86 157.112 187.808 157.015 187.747 156.908ZM191.382 157.356L189.561 157.669C189.584 157.908 189.565 158.29 189.323 158.584C190.527 160.329 192.558 162.82 193.258 162.975C193.318 162.925 193.469 162.663 193.176 161.56C192.863 160.373 192.187 158.855 191.382 157.356ZM189.838 154.766C188.562 156.12 188.192 156.241 188.048 156.231C188.024 156.23 188.012 156.225 187.998 156.222C187.957 156.211 187.923 156.188 187.892 156.162C188.086 156.527 188.284 156.882 188.475 157.211C188.58 157.444 188.791 157.792 189.061 158.202C189.109 158.095 189.133 157.976 189.138 157.87C189.146 157.694 189.115 157.549 189.113 157.546L189.059 157.328L191.085 156.978L190.294 155.489C190.141 155.242 189.987 155.002 189.838 154.766ZM187.505 155.411C187.735 155.446 188.008 155.542 188.146 155.766C188.413 155.593 189.035 154.996 189.593 154.408C188.41 152.672 187.267 151.388 186.673 151.366C186.621 151.364 186.572 151.374 186.539 151.397C185.961 151.75 186.619 153.607 187.505 155.411Z" fill="black"/>
<path d="M318.571 203.332L318.979 196.876L315.44 194.546L299.441 194.249L299.432 194.249L299.423 194.245L299.387 194.23L292.846 191.555L292.815 191.542L292.815 191.508L293.034 177.954L281.222 174.633L255.651 173.637L255.622 173.636L255.608 173.609L254.362 171.124L232.763 169.147L232.719 169.143L232.718 169.098L232.658 166.955L228.209 166.343L228.086 166.326L228.186 166.253L228.606 165.946C228.607 165.945 228.608 165.945 228.609 165.944C228.64 165.919 228.782 165.808 228.927 165.635C229.087 165.442 229.242 165.181 229.246 164.894C229.247 164.563 229.048 164.23 228.62 163.907L228.62 163.907C228.47 163.793 228.16 163.656 227.544 163.537C226.928 163.417 226.013 163.315 224.655 163.266C222.178 163.177 219.151 163.289 216.92 163.371L216.866 163.373C216.722 163.379 216.581 163.384 216.445 163.389C215.541 163.423 214.823 163.45 214.38 163.447C213.631 163.442 212.827 163.707 212.089 164.099C211.351 164.491 210.683 165.009 210.209 165.506L210.173 165.472L210.209 165.506C209.916 165.812 209.692 166.117 209.543 166.399C209.394 166.682 209.324 166.938 209.335 167.146C209.378 167.852 209.453 168.282 209.636 168.565C209.816 168.843 210.106 168.986 210.609 169.098L210.655 169.109L210.647 169.155L210.566 169.63L210.558 169.677L210.51 169.671L195.598 167.782L195.598 167.782L186.428 166.709L185.053 170.095L185.04 170.127L185.005 170.126L181.008 169.982L180.959 169.98L180.959 169.931L180.963 169.215C180.959 169.185 180.944 169.042 180.918 168.806C180.825 167.95 180.6 165.884 180.341 163.709C180.172 162.298 179.988 160.84 179.816 159.636C179.644 158.429 179.483 157.482 179.361 157.088C179.317 156.945 179.199 156.791 179.014 156.628C178.829 156.466 178.583 156.299 178.29 156.132C177.705 155.797 176.937 155.46 176.116 155.146C174.474 154.517 172.626 153.979 171.61 153.719L171.607 153.718L171.607 153.718C168.062 152.59 160.651 151.276 159.179 151.021L159.171 151.037L159.156 151.07L159.119 151.065L158.967 151.046L158.965 151.046V151.045L158.964 151.045C158.954 151.044 158.884 151.036 158.769 151.025C158.644 151.014 158.469 151.001 158.265 150.994M318.571 203.332L158.265 150.994M318.571 203.332C290.047 196.677 231.499 186.537 174.357 181.719C114.493 176.672 80.4062 176.626 64.3937 176.604C59.9889 176.598 56.9517 176.594 55.122 176.488C52.998 176.366 50.0431 176.336 46.7257 176.304L46.6838 176.304C43.3767 176.271 39.7109 176.236 36.1462 176.101C32.5663 175.966 29.0898 175.731 26.1822 175.3C23.3408 174.88 21.0514 174.273 19.7379 173.395C19.8691 173.358 20.0049 173.298 20.1434 173.237C20.19 173.217 20.2368 173.196 20.2839 173.177C20.5164 173.078 20.7625 172.992 21.0335 172.997L21.0335 172.998L21.0427 172.997L21.0344 172.947C21.0427 172.997 21.0428 172.997 21.043 172.997L21.044 172.996L21.048 172.996L21.0638 172.993L21.1267 172.983L21.3742 172.941C21.5922 172.905 21.9146 172.852 22.3322 172.783C23.1676 172.645 24.3841 172.446 25.9085 172.201C28.9573 171.709 33.2378 171.032 38.1647 170.289C48.0185 168.801 60.457 167.047 70.7974 165.979C71.6826 165.888 72.5157 165.823 73.2878 165.763C73.6678 165.734 74.0331 165.705 74.3826 165.675L74.3783 165.626L74.3826 165.675C88.0391 164.505 149.115 163.13 149.736 163.116L149.844 163.114L149.87 163.113L149.884 163.092L149.948 162.997L149.949 162.997C150.14 162.705 154.601 155.798 155.125 154.911L155.125 154.911C155.257 154.687 155.327 154.424 155.369 154.14C155.41 153.859 155.423 153.554 155.436 153.244L155.436 153.235C155.451 152.869 155.466 152.503 155.53 152.183C155.594 151.863 155.705 151.598 155.904 151.428C156.089 151.272 156.389 151.153 156.791 151.077C157.191 151.003 157.689 150.973 158.265 150.994M318.571 203.332L158.265 150.994" fill="#FFFCF8" stroke="black" stroke-width="0.1"/>
<path d="M20.3457 176.855C19.5134 176.138 19.2157 175.903 19.1874 175.888M20.3457 176.855C24.0687 177.399 46.8515 180.344 82.1569 179.843C100.418 179.584 139.845 181.373 186.752 185.952C253.586 192.476 294.682 200.517 317.393 206.114M20.3457 176.855L20.3783 176.818C20.3746 176.814 20.3709 176.811 20.3673 176.808M20.3457 176.855L20.3529 176.806C20.3577 176.807 20.3625 176.807 20.3673 176.808M19.1874 175.888L321.288 205.664C321.309 205.768 321.269 205.842 321.165 205.97C321.121 206.026 321.086 206.08 321.056 206.138M19.1874 175.888C18.272 175.585 17.728 175.022 17.8202 174.483M19.1874 175.888L19.6151 173.371M317.393 206.114L318.388 206.36M317.393 206.114L317.405 206.065L318.394 206.31M317.393 206.114L317.405 206.065C294.691 200.468 253.593 192.426 186.756 185.902C139.849 181.323 100.42 179.534 82.1561 179.793C46.8989 180.294 24.132 177.357 20.3673 176.808M318.388 206.36C320.287 206.402 320.966 206.238 321.056 206.138M318.388 206.36L318.4 206.311L318.394 206.31M318.388 206.36L318.389 206.31C318.391 206.31 318.392 206.31 318.394 206.31M321.056 206.138L321.018 206.105C321.018 206.105 321.017 206.107 321.015 206.108M321.056 206.138L321.012 206.115C321.013 206.112 321.014 206.11 321.015 206.108M321.015 206.108C321.046 206.05 321.081 205.995 321.126 205.939L321.126 205.938C321.178 205.874 321.21 205.829 321.227 205.788C321.244 205.75 321.247 205.716 321.239 205.674L321.238 205.672C321.226 205.591 321.169 205.483 321.057 205.347C320.947 205.212 320.787 205.055 320.578 204.873C320.159 204.51 319.545 204.057 318.735 203.507M321.015 206.108C321.009 206.113 320.996 206.122 320.973 206.132C320.945 206.145 320.907 206.159 320.855 206.173C320.753 206.2 320.603 206.229 320.395 206.253C319.98 206.3 319.34 206.331 318.394 206.31M318.735 203.507L318.582 203.44L318.551 203.426L318.551 203.413M318.735 203.507C318.734 203.506 318.733 203.505 318.731 203.504L318.759 203.463L318.74 203.509L318.735 203.507ZM20.3673 176.808C19.957 176.455 19.6777 176.219 19.4969 176.07C19.4058 175.995 19.3395 175.941 19.2942 175.905C19.2716 175.888 19.2539 175.874 19.2409 175.864C19.2293 175.856 19.2181 175.848 19.2102 175.844L19.2105 175.843L19.2031 175.841C18.7508 175.691 18.3936 175.478 18.1618 175.239C17.9299 175.001 17.8269 174.74 17.8695 174.492L17.8695 174.492C17.9376 174.093 18.4303 173.621 19.6097 173.423M19.6097 173.423C21.0728 173.992 23.4674 174.408 26.3642 174.719C29.271 175.032 32.6887 175.24 36.1891 175.393C39.5732 175.54 43.0331 175.635 46.1844 175.722C49.555 175.815 52.5725 175.898 54.7668 176.025C56.6133 176.131 59.6758 176.126 64.1217 176.118C80.1399 176.09 114.115 176.029 173.868 181.068C231.014 185.886 289.935 196.755 318.551 203.413M19.6097 173.423C19.6142 173.422 19.6187 173.421 19.6232 173.42L19.6151 173.371M19.6097 173.423C19.6054 173.421 19.6011 173.419 19.5968 173.418L19.6151 173.371M318.551 203.413L318.552 203.392L318.553 203.372L318.603 203.374L318.598 203.394L318.594 203.413L318.592 203.423C318.591 203.423 318.59 203.423 318.59 203.422C318.577 203.419 318.564 203.416 318.551 203.413ZM19.6151 173.371C18.4213 173.569 17.8944 174.049 17.8202 174.483M17.8202 174.483L17.8202 174.483L17.8202 174.483Z" fill="#FFFCF8" stroke="black" stroke-width="0.1"/>
<path d="M229.389 166.488C229.389 166.488 231.651 164.042 227.71 163.073C224.823 162.363 216.248 162.952 213.935 162.988C211.621 163.025 208.928 166.195 209.104 167.672C209.255 168.933 209.459 170.314 211.608 169.703C213.758 169.092 213.493 167.474 214.698 167.38C215.904 167.286 228.365 166.609 229.389 166.488Z" fill="#BFA983"/>
<rect x="315.137" y="15.5537" width="44.0746" height="25" rx="12.5" fill="#969696" fill-opacity="0.3"/>
<path d="M327.12 33.1797H326.299V24.2109L323.592 25.2158V24.4502L326.983 23.1924H327.12V33.1797ZM331.091 34.0342H330.346L334.502 23.2266H335.241L331.091 34.0342ZM342.876 33.1797H336.642V32.5508L340.053 28.6816C340.618 28.0299 341.01 27.4922 341.229 27.0684C341.448 26.6445 341.557 26.2321 341.557 25.8311C341.557 25.2021 341.373 24.7054 341.003 24.3408C340.634 23.9717 340.126 23.7871 339.479 23.7871C338.809 23.7871 338.267 24.0013 337.852 24.4297C337.442 24.8581 337.237 25.4141 337.237 26.0977H336.423C336.423 25.5371 336.549 25.0267 336.799 24.5664C337.055 24.1061 337.415 23.7461 337.879 23.4863C338.349 23.222 338.882 23.0898 339.479 23.0898C340.39 23.0898 341.101 23.3291 341.612 23.8076C342.127 24.2861 342.384 24.9378 342.384 25.7627C342.384 26.2275 342.238 26.7357 341.947 27.2871C341.66 27.8385 341.152 28.5267 340.422 29.3516L337.647 32.4893H342.876V33.1797ZM346.226 27.7588H347.074C347.543 27.7588 347.953 27.6768 348.304 27.5127C348.655 27.3441 348.922 27.1162 349.104 26.8291C349.291 26.5374 349.384 26.2025 349.384 25.8242C349.384 25.1862 349.204 24.6872 348.844 24.3271C348.484 23.9671 347.967 23.7871 347.292 23.7871C346.654 23.7871 346.13 23.9762 345.72 24.3545C345.315 24.7282 345.112 25.2227 345.112 25.8379H344.292C344.292 25.3229 344.421 24.8535 344.681 24.4297C344.941 24.0013 345.301 23.6709 345.761 23.4385C346.222 23.2061 346.732 23.0898 347.292 23.0898C348.195 23.0898 348.906 23.3359 349.425 23.8281C349.945 24.3203 350.205 24.9948 350.205 25.8516C350.205 26.3301 350.052 26.7721 349.747 27.1777C349.446 27.5788 349.031 27.8796 348.502 28.0801C349.122 28.2533 349.592 28.5518 349.911 28.9756C350.23 29.3949 350.389 29.8962 350.389 30.4795C350.389 31.3317 350.111 32.0176 349.555 32.5371C348.999 33.0566 348.256 33.3164 347.327 33.3164C346.734 33.3164 346.19 33.1979 345.693 32.9609C345.201 32.724 344.818 32.3936 344.544 31.9697C344.276 31.5413 344.141 31.0446 344.141 30.4795H344.961C344.961 31.113 345.182 31.6302 345.625 32.0312C346.067 32.4277 346.634 32.626 347.327 32.626C348.033 32.626 348.582 32.446 348.974 32.0859C349.371 31.7214 349.569 31.195 349.569 30.5068C349.569 29.8415 349.355 29.3333 348.926 28.9824C348.502 28.6315 347.876 28.4561 347.046 28.4561H346.226V27.7588Z" fill="black"/>
</g>
<defs>
<clipPath id="clip0">
<rect width="375" height="375" fill="white" transform="translate(0.136719 0.553711)"/>
</clipPath>
</defs>
</svg>
