<svg width="376" height="376" viewBox="0 0 376 376" fill="none" xmlns="http://www.w3.org/2000/svg">
<g clip-path="url(#clip0)">
<g opacity="0.2">
<path opacity="0.2" d="M358.263 58.3875L255.883 310.951V416.533C255.883 423.224 280.54 428.185 287.26 428.185H511.415C518.136 428.185 523.585 422.761 523.585 416.068L583.799 43.2515C583.799 36.5601 567.498 58.3861 560.777 58.3861L358.263 58.3875Z" fill="#5E5E5E"/>
</g>
<path d="M272.862 233.615L271.972 235.783L279.776 238.988L280.666 236.82L272.862 233.615Z" fill="#3D3D3D"/>
<path d="M280.799 250.035L289.167 229.653L283.096 227.161L274.728 247.543L280.799 250.035Z" fill="#1C1C1C"/>
<path d="M276.606 232.62C277.185 232.857 277.462 233.519 277.224 234.097L275.414 238.505C275.177 239.084 274.515 239.361 273.936 239.123L269.529 237.313C268.95 237.075 268.673 236.414 268.911 235.835L270.721 231.427C270.958 230.849 271.62 230.572 272.199 230.81L276.606 232.62Z" fill="#E52E2E"/>
<path d="M359.145 251.784C376.941 251.784 391.368 237.358 391.368 219.562C391.368 201.766 376.941 187.34 359.145 187.34C341.349 187.34 326.923 201.766 326.923 219.562C326.923 237.358 341.349 251.784 359.145 251.784Z" fill="#A5A5A5"/>
<path d="M320.336 188.939C320.336 188.939 330.009 197.196 327.103 216.035C324.197 234.874 344.098 203.594 344.098 203.594L325.013 181.968L319.771 186.901L320.336 188.939Z" fill="#A5A5A5"/>
<path d="M330.894 179C330.894 179 338.553 189.152 357.532 187.387C376.513 185.62 344.09 203.601 344.09 203.601L323.652 183.246L328.893 178.312L330.894 179Z" fill="#A5A5A5"/>
<path d="M274.884 145.795C271.294 141.983 270.82 133.619 274.419 130.232L274.833 129.842C280.525 125.013 287.24 126.357 291.135 130.495L330.59 172.405C332.679 174.623 332.339 178.239 330.145 180.305L321.872 188.095C319.677 190.16 316.429 189.923 314.339 187.703L274.884 145.795Z" fill="#5E5E5E"/>
<path d="M359.132 244.154C372.69 244.154 383.681 233.163 383.681 219.605C383.681 206.047 372.69 195.057 359.132 195.057C345.575 195.057 334.584 206.047 334.584 219.605C334.584 233.163 345.575 244.154 359.132 244.154Z" fill="#727272"/>
<path d="M282.496 148.71C288.608 148.71 293.563 143.755 293.563 137.643C293.563 131.531 288.608 126.576 282.496 126.576C276.384 126.576 271.43 131.531 271.43 137.643C271.43 143.755 276.384 148.71 282.496 148.71Z" fill="#2D2D2D"/>
<path d="M282.496 146.24C287.244 146.24 291.093 142.391 291.093 137.643C291.093 132.896 287.244 129.047 282.496 129.047C277.749 129.047 273.9 132.896 273.9 137.643C273.9 142.391 277.749 146.24 282.496 146.24Z" fill="#3F3F3F"/>
<path d="M240.681 221.173L259.178 229.105" stroke="#F28D41" stroke-width="4" stroke-miterlimit="10"/>
<path d="M253.402 203.675L266.118 220.68" stroke="#F28D41" stroke-width="4" stroke-miterlimit="10"/>
<path d="M273.328 196.06L275.839 217.141" stroke="#F28D41" stroke-width="4" stroke-miterlimit="10"/>
<path d="M244.683 262.949L261.434 249.904" stroke="#F28D41" stroke-width="4" stroke-miterlimit="10"/>
<path d="M237.702 242.652L257.269 240.558" stroke="#F28D41" stroke-width="4" stroke-miterlimit="10"/>
<path d="M139.068 220.273C148.246 221.431 147.501 233.247 143.196 233.546C138.89 233.849 141.763 220.737 148.731 219.752C155.7 218.768 158.679 230.555 154.441 231.379C150.192 232.206 152.587 220.742 157.302 219.838C157.302 219.838 160.658 218.229 164.959 222.58C167.891 225.543 173.844 224.196 174.657 223.764C175.471 223.332 206.814 212.832 208.043 217.925C209.711 224.837 191.208 220.458 184.288 222.886C183.327 223.218 173.786 226.244 173.786 226.244" stroke="#FF0000" stroke-width="4" stroke-miterlimit="10" stroke-linecap="round"/>
<path d="M181.702 225.744C181.339 225.86 180.975 225.739 180.892 225.472L179.495 221.094C179.41 220.828 179.637 220.519 180 220.401L185.354 218.696C185.717 218.58 186.081 218.702 186.165 218.968L187.561 223.346C187.646 223.612 187.419 223.922 187.056 224.039L181.702 225.744Z" fill="#CECECE"/>
<path d="M76.1764 174.389C78.8632 177.193 71.9342 187.893 69.5178 185.356C67.1084 182.828 77.4364 175.176 81.5712 179.09C87.4531 184.657 78.7446 193.968 74.172 190.213C71.472 187.996 81.4864 179.491 87.0565 185.104" stroke="#FF0000" stroke-width="4" stroke-miterlimit="10" stroke-linecap="round"/>
<path d="M66.4602 162.804C70.1596 166.665 62.6047 177.868 59.173 174.266C56.2279 171.176 65.7744 162.764 70.4676 167.208C75.8446 172.297 67.6447 183.054 63.5858 179.72C60.8863 177.505 70.2294 168.365 75.8 173.978" stroke="#FF0000" stroke-width="4" stroke-miterlimit="10" stroke-linecap="round"/>
<path d="M66.749 163.105C61.1783 157.492 51.2052 165.933 53.9047 168.148C56.8968 170.605 64.7113 159.357 60.3022 155.184C56.1669 151.269 46.2941 159.397 48.7035 161.925C52.6161 166.031 60.7419 155.867 56.5616 151.505" stroke="#FF0000" stroke-width="4" stroke-miterlimit="10" stroke-linecap="round"/>
<path d="M123.982 213.063C129.446 216.857 127.012 230.671 121.864 227.077C118.161 224.005 128.092 215.216 132.923 218.231C137.753 221.245 136.038 232.632 132.952 230.995C129.866 229.361 131.762 219.467 139.068 220.273" stroke="#FF0000" stroke-width="4" stroke-miterlimit="10" stroke-linecap="round"/>
<path d="M111.657 205.807C117.355 209.762 110.764 220.691 105.386 216.936C102.522 214.936 110.896 205.561 115.727 208.576C122.285 212.669 118.363 225.418 113.461 222.819C110.375 221.183 117.749 208.907 124.324 213.301" stroke="#FF0000" stroke-width="4" stroke-miterlimit="10" stroke-linecap="round"/>
<path d="M98.4654 194.782C103.067 199.585 96.7465 212.014 92.4147 207.469C89.2357 203.358 102.066 197.708 106.202 201.622C110.337 205.536 102.256 214.24 99.5566 212.023C96.8566 209.807 106.088 200.193 111.658 205.806" stroke="#FF0000" stroke-width="4" stroke-miterlimit="10" stroke-linecap="round"/>
<path d="M86.7242 184.751C91.5223 189.76 83.9951 199.63 79.4703 194.88C77.0609 192.351 87.1311 184.829 91.2664 188.742C96.8806 194.057 90.5042 205.771 86.2161 202.25C83.5161 200.034 93.1831 189.467 98.7533 195.08" stroke="#FF0000" stroke-width="4" stroke-miterlimit="10" stroke-linecap="round"/>
<path d="M233.632 210.175C233.431 209.492 232.714 209.102 232.032 209.303L204.379 217.45C203.696 217.651 203.305 218.368 203.507 219.051L203.574 219.275C203.775 219.958 204.492 220.348 205.175 220.147L232.828 212C233.51 211.798 233.901 211.082 233.699 210.399L233.632 210.175Z" fill="#1C1C1C"/>
<path d="M-9.4206 253.783C68.2531 135.135 64.9105 140.854 64.9105 140.854C66.5872 138.204 68.9619 134.16 71.6141 133.046C74.2658 131.931 95.556 117.643 104.917 100.696C110.768 95.0878 111.829 93.1659 113.296 90.5855C114.763 88.0055 128.45 71.4797 124.964 67.2909C121.687 64.1447 120.5 66.1012 119.382 67.6359C118.265 69.1701 113.362 76.222 112.539 77.1197C111.482 78.2705 103.114 85.8342 103.114 85.8342C103.114 85.8342 111.284 75.4439 112.471 73.073C113.659 70.702 116.173 68.4717 119.107 62.6123C122.042 56.7544 126.649 53.1295 126.651 49.9898C126.653 46.8506 122.539 43.5684 120.095 46.7067C117.651 49.8445 114.23 53.8884 113.043 55.9116C111.855 57.9337 98.8813 72.3403 97.8106 74.3236C96.7175 76.3514 107.108 60.4416 107.108 60.4416C107.108 60.4416 111.499 55.5305 113.113 53.678C114.78 51.7669 116.188 48.9365 116.676 47.9597C117.165 46.9833 123.867 40.9181 123.311 38.1966C122.755 35.475 119.757 32.4028 116.476 34.7733C113.195 37.1428 106.073 45.0914 104.746 47.2186C103.419 49.3458 98.0441 53.8069 97.3447 54.8531C96.6463 55.8994 90.2778 65.3048 89.3 65.8622C88.3231 66.4195 95.7402 54.9216 95.7402 54.9216C95.7402 54.9216 110.471 39.7922 109.985 36.757C109.499 33.7219 107.617 32.6044 104.406 33.4387C101.196 34.2741 77.6675 57.9089 75.0824 63.419C70.2224 66.4589 66.215 73.1105 65.2381 72.9698C64.2617 72.8301 58.8589 76.1705 58.0203 77.8444C57.1822 79.5173 57.4227 74.9873 56.6558 74.0798C55.8885 73.1723 65.7374 52.0706 56.3272 45.1265C51.5896 41.6297 50.6047 46.4484 49.9058 48.1917C49.2074 49.935 48.2942 58.7255 47.1064 61.0969C45.9186 63.4687 39.0716 76.7892 39.0003 79.7198C38.9286 82.6495 39.9692 90.3253 39.1306 92.6967C38.2916 95.0681 36.6814 103.16 37.656 106.092C38.6305 109.022 38.6286 111.813 37.5102 114.743C36.3917 117.673 29.3356 131.063 28.6377 132.11C27.9388 133.155 -49.3042 226.613 -49.3042 226.613L-9.4206 253.783Z" fill="#F9DBBD"/>
<path d="M58.6964 150.774C50.2453 153.217 49.5764 137.666 52.6753 139.958C55.3692 141.951 45.8217 145.989 40.4067 143.055C33.5217 139.324 33.5428 129.193 36.8835 131.089C40.0331 132.875 33.3979 134.919 29.3835 134.952C29.3835 134.952 26.0212 134.662 25.8445 131.354" stroke="#FF0000" stroke-width="4" stroke-miterlimit="10" stroke-linecap="round"/>
<rect x="315.138" y="15.7314" width="45.0996" height="25" rx="12.5" fill="#969696" fill-opacity="0.3"/>
<path d="M325.676 33.3574H319.441V32.7285L322.852 28.8594C323.417 28.2077 323.809 27.6699 324.028 27.2461C324.247 26.8223 324.356 26.4098 324.356 26.0088C324.356 25.3799 324.172 24.8831 323.802 24.5186C323.433 24.1494 322.925 23.9648 322.278 23.9648C321.608 23.9648 321.066 24.179 320.651 24.6074C320.241 25.0358 320.036 25.5918 320.036 26.2754H319.222C319.222 25.7148 319.348 25.2044 319.598 24.7441C319.854 24.2839 320.214 23.9238 320.678 23.6641C321.148 23.3997 321.681 23.2676 322.278 23.2676C323.19 23.2676 323.9 23.5068 324.411 23.9854C324.926 24.4639 325.183 25.1156 325.183 25.9404C325.183 26.4053 325.038 26.9134 324.746 27.4648C324.459 28.0163 323.951 28.7044 323.221 29.5293L320.446 32.667H325.676V33.3574ZM329.025 27.9365H329.873C330.342 27.9365 330.752 27.8545 331.103 27.6904C331.454 27.5218 331.721 27.2939 331.903 27.0068C332.09 26.7152 332.183 26.3802 332.183 26.002C332.183 25.3639 332.003 24.8649 331.643 24.5049C331.283 24.1449 330.766 23.9648 330.092 23.9648C329.454 23.9648 328.929 24.154 328.519 24.5322C328.114 24.9059 327.911 25.4004 327.911 26.0156H327.091C327.091 25.5007 327.22 25.0312 327.48 24.6074C327.74 24.179 328.1 23.8486 328.56 23.6162C329.021 23.3838 329.531 23.2676 330.092 23.2676C330.994 23.2676 331.705 23.5137 332.224 24.0059C332.744 24.498 333.004 25.1725 333.004 26.0293C333.004 26.5078 332.851 26.9499 332.546 27.3555C332.245 27.7565 331.83 28.0573 331.302 28.2578C331.921 28.431 332.391 28.7295 332.71 29.1533C333.029 29.5726 333.188 30.0739 333.188 30.6572C333.188 31.5094 332.91 32.1953 332.354 32.7148C331.798 33.2344 331.055 33.4941 330.126 33.4941C329.533 33.4941 328.989 33.3757 328.492 33.1387C328 32.9017 327.617 32.5713 327.344 32.1475C327.075 31.7191 326.94 31.2223 326.94 30.6572H327.76C327.76 31.2907 327.982 31.8079 328.424 32.209C328.866 32.6055 329.433 32.8037 330.126 32.8037C330.832 32.8037 331.381 32.6237 331.773 32.2637C332.17 31.8991 332.368 31.3727 332.368 30.6846C332.368 30.0192 332.154 29.5111 331.725 29.1602C331.302 28.8092 330.675 28.6338 329.845 28.6338H329.025V27.9365ZM334.986 34.2119H334.241L338.397 23.4043H339.135L334.986 34.2119ZM346.771 33.3574H340.537V32.7285L343.948 28.8594C344.513 28.2077 344.905 27.6699 345.124 27.2461C345.343 26.8223 345.452 26.4098 345.452 26.0088C345.452 25.3799 345.267 24.8831 344.898 24.5186C344.529 24.1494 344.021 23.9648 343.374 23.9648C342.704 23.9648 342.162 24.179 341.747 24.6074C341.337 25.0358 341.132 25.5918 341.132 26.2754H340.318C340.318 25.7148 340.443 25.2044 340.694 24.7441C340.949 24.2839 341.309 23.9238 341.774 23.6641C342.244 23.3997 342.777 23.2676 343.374 23.2676C344.285 23.2676 344.996 23.5068 345.507 23.9854C346.022 24.4639 346.279 25.1156 346.279 25.9404C346.279 26.4053 346.133 26.9134 345.842 27.4648C345.554 28.0163 345.046 28.7044 344.317 29.5293L341.542 32.667H346.771V33.3574ZM350.121 27.9365H350.969C351.438 27.9365 351.848 27.8545 352.199 27.6904C352.55 27.5218 352.816 27.2939 352.999 27.0068C353.186 26.7152 353.279 26.3802 353.279 26.002C353.279 25.3639 353.099 24.8649 352.739 24.5049C352.379 24.1449 351.862 23.9648 351.187 23.9648C350.549 23.9648 350.025 24.154 349.615 24.5322C349.209 24.9059 349.007 25.4004 349.007 26.0156H348.186C348.186 25.5007 348.316 25.0312 348.576 24.6074C348.836 24.179 349.196 23.8486 349.656 23.6162C350.116 23.3838 350.627 23.2676 351.187 23.2676C352.09 23.2676 352.801 23.5137 353.32 24.0059C353.84 24.498 354.099 25.1725 354.099 26.0293C354.099 26.5078 353.947 26.9499 353.641 27.3555C353.341 27.7565 352.926 28.0573 352.397 28.2578C353.017 28.431 353.486 28.7295 353.805 29.1533C354.124 29.5726 354.284 30.0739 354.284 30.6572C354.284 31.5094 354.006 32.1953 353.45 32.7148C352.894 33.2344 352.151 33.4941 351.221 33.4941C350.629 33.4941 350.084 33.3757 349.588 33.1387C349.095 32.9017 348.713 32.5713 348.439 32.1475C348.17 31.7191 348.036 31.2223 348.036 30.6572H348.856C348.856 31.2907 349.077 31.8079 349.519 32.209C349.961 32.6055 350.529 32.8037 351.221 32.8037C351.928 32.8037 352.477 32.6237 352.869 32.2637C353.265 31.8991 353.464 31.3727 353.464 30.6846C353.464 30.0192 353.249 29.5111 352.821 29.1602C352.397 28.8092 351.771 28.6338 350.941 28.6338H350.121V27.9365Z" fill="black"/>
</g>
<defs>
<clipPath id="clip0">
<rect width="375" height="375" fill="white" transform="translate(0.137695 0.731445)"/>
</clipPath>
</defs>
</svg>
