<svg width="376" height="376" viewBox="0 0 376 376" fill="none" xmlns="http://www.w3.org/2000/svg">
<path d="M192.445 78.3418H183.517V118.177H192.445V78.3418Z" fill="#232323"/>
<path d="M271.146 154.169L276.953 161.229L307.761 135.887L301.953 128.827L271.146 154.169Z" fill="#232323"/>
<path d="M74.1595 128.87L68.3519 135.93L99.1612 161.274L104.969 154.214L74.1595 128.87Z" fill="#232323"/>
<path d="M126.567 91.196L120.462 94.0146L132.763 120.656L138.868 117.837L126.567 91.196Z" fill="#232323"/>
<path d="M236.8 117.852L242.904 120.67L255.205 94.029L249.101 91.2107L236.8 117.852Z" fill="#232323"/>
<path d="M99.7217 245.731H103.394V239.227H109.202V236.251H103.394V232.555H109.61V229.555H99.7217V245.731ZM112.354 229.555V238.579C112.354 243.739 114.754 245.995 118.834 245.995C123.058 245.995 125.578 243.619 125.578 238.627V229.555H121.93V238.867C121.93 241.723 120.874 243.067 118.954 243.067C117.082 243.067 116.026 241.651 116.026 238.867V229.555H112.354ZM138.361 235.915H132.409V232.555H138.721V229.555H128.737V245.731H139.057V242.731H132.409V238.891H138.361V235.915ZM141.558 245.731H151.662V242.659H145.23V229.555H141.558V245.731Z" fill="#232323"/>
<path d="M112.522 166.681H106.57V163.321H112.882V160.321H102.898V176.497H113.218V173.497H106.57V169.657H112.522V166.681Z" fill="#232323"/>
<path d="M264.088 186.223H267.76V179.719H273.568V176.743H267.76V173.047H273.976V170.047H264.088V186.223Z" fill="#232323"/>
<path d="M187.264 158.108L197.536 123.308H192.688L182.416 158.108H187.264Z" fill="#232323"/>
<path d="M181.083 136.134H183.729V124.434H181.461L178.365 125.874L178.815 127.926L181.047 126.864H181.083V136.134Z" fill="#1E1E1E"/>
<path d="M204.88 160.426V158.176H200.47V158.14L201.55 157.24C203.242 155.728 204.664 154.162 204.664 152.2C204.664 150.076 203.206 148.528 200.56 148.528C198.976 148.528 197.608 149.068 196.726 149.734L197.5 151.696C198.112 151.228 198.994 150.724 200.002 150.724C201.352 150.724 201.928 151.48 201.928 152.434C201.892 153.802 200.65 155.116 198.094 157.402L196.582 158.77V160.426H204.88Z" fill="#232323"/>
<path d="M286.849 219.913C286.38 219.55 282.798 216.328 281.551 216.9C280.305 217.471 283.734 220.12 284.357 220.848C284.98 221.575 285.45 220.848 284.982 224.536C284.513 228.223 285.659 233.884 286.23 235.027C286.802 236.17 289.197 241.78 284.055 241.157C278.914 240.534 280.756 237.313 280.549 231.443C280.392 227.003 277.61 226.012 275.55 225.792V215.704H257.693V243.177H254.945V244.55H278.297V243.177H275.55V227.927C276.923 228.343 278.18 229.105 278.654 229.928C279.797 231.912 277.817 234.041 278.597 238.508C279.376 242.975 284.437 243.962 287.657 242.196C290.877 240.43 288.136 234.509 287.564 232.795C286.993 231.08 286.791 226.51 287.102 225.679C287.415 224.848 289.39 224.692 289.859 223.914C290.326 223.133 287.316 220.276 286.849 219.913ZM274.176 226.006H259.066V217.078H274.176V226.006Z" fill="black"/>
<path d="M188.339 23.7314C97.2126 23.7314 23.339 97.6044 23.339 188.731C23.339 279.859 97.2126 353.731 188.339 353.731C279.467 353.731 353.339 279.858 353.339 188.731C353.339 97.605 279.467 23.7314 188.339 23.7314ZM188.339 321.999C114.737 321.999 55.0704 262.332 55.0704 188.731C55.0704 115.13 114.737 55.4622 188.339 55.4622C261.942 55.4622 321.608 115.129 321.608 188.731C321.608 262.333 261.942 321.999 188.339 321.999Z" fill="#1E1E1E"/>
<path d="M188.138 23.7314C97.1224 23.7314 23.339 97.5142 23.339 188.53C23.339 279.546 97.1224 353.329 188.138 353.329C279.154 353.329 352.936 279.546 352.936 188.53C352.936 97.5148 279.154 23.7314 188.138 23.7314ZM188.138 341.627C103.585 341.627 35.0413 273.083 35.0413 188.53C35.0413 103.978 103.585 35.4331 188.138 35.4331C272.69 35.4331 341.235 103.977 341.235 188.53C341.235 273.082 272.69 341.627 188.138 341.627Z" fill="#3D3D3D"/>
<path d="M193.441 216.746C193.716 216.659 268.569 150.321 268.569 150.321L272.506 154.607L200.867 224.759L193.441 216.746Z" fill="#EA2424"/>
<path d="M188.138 255.815C204.833 255.815 218.367 242.281 218.367 225.586C218.367 208.891 204.833 195.356 188.138 195.356C171.442 195.356 157.908 208.891 157.908 225.586C157.908 242.281 171.442 255.815 188.138 255.815Z" fill="#1E1E1E"/>
<rect x="315.138" y="15.7314" width="45.0996" height="25" rx="12.5" fill="#969696" fill-opacity="0.3"/>
<path d="M323.249 33.3574H322.428V24.3887L319.721 25.3936V24.6279L323.112 23.3701H323.249V33.3574ZM332.231 30.1514H333.783V30.8418H332.231V33.3574H331.411V30.8418H326.728V30.377L331.336 23.4043H332.231V30.1514ZM327.733 30.1514H331.411V24.4639L331.049 25.0928L327.733 30.1514ZM334.986 34.2119H334.241L338.397 23.4043H339.135L334.986 34.2119ZM346.771 33.3574H340.537V32.7285L343.948 28.8594C344.513 28.2077 344.905 27.6699 345.124 27.2461C345.343 26.8223 345.452 26.4098 345.452 26.0088C345.452 25.3799 345.267 24.8831 344.898 24.5186C344.529 24.1494 344.021 23.9648 343.374 23.9648C342.704 23.9648 342.162 24.179 341.747 24.6074C341.337 25.0358 341.132 25.5918 341.132 26.2754H340.318C340.318 25.7148 340.443 25.2044 340.694 24.7441C340.949 24.2839 341.309 23.9238 341.774 23.6641C342.244 23.3997 342.777 23.2676 343.374 23.2676C344.285 23.2676 344.996 23.5068 345.507 23.9854C346.022 24.4639 346.279 25.1156 346.279 25.9404C346.279 26.4053 346.133 26.9134 345.842 27.4648C345.554 28.0163 345.046 28.7044 344.317 29.5293L341.542 32.667H346.771V33.3574ZM350.121 27.9365H350.968C351.438 27.9365 351.848 27.8545 352.199 27.6904C352.55 27.5218 352.816 27.2939 352.999 27.0068C353.186 26.7152 353.279 26.3802 353.279 26.002C353.279 25.3639 353.099 24.8649 352.739 24.5049C352.379 24.1449 351.862 23.9648 351.187 23.9648C350.549 23.9648 350.025 24.154 349.615 24.5322C349.209 24.9059 349.007 25.4004 349.007 26.0156H348.186C348.186 25.5007 348.316 25.0312 348.576 24.6074C348.836 24.179 349.196 23.8486 349.656 23.6162C350.116 23.3838 350.627 23.2676 351.187 23.2676C352.09 23.2676 352.801 23.5137 353.32 24.0059C353.84 24.498 354.099 25.1725 354.099 26.0293C354.099 26.5078 353.947 26.9499 353.641 27.3555C353.341 27.7565 352.926 28.0573 352.397 28.2578C353.017 28.431 353.486 28.7295 353.805 29.1533C354.124 29.5726 354.284 30.0739 354.284 30.6572C354.284 31.5094 354.006 32.1953 353.45 32.7148C352.894 33.2344 352.151 33.4941 351.221 33.4941C350.629 33.4941 350.084 33.3757 349.588 33.1387C349.095 32.9017 348.713 32.5713 348.439 32.1475C348.17 31.7191 348.036 31.2223 348.036 30.6572H348.856C348.856 31.2907 349.077 31.8079 349.519 32.209C349.961 32.6055 350.529 32.8037 351.221 32.8037C351.928 32.8037 352.477 32.6237 352.869 32.2637C353.265 31.8991 353.464 31.3727 353.464 30.6846C353.464 30.0192 353.249 29.5111 352.821 29.1602C352.397 28.8092 351.771 28.6338 350.941 28.6338H350.121V27.9365Z" fill="black"/>
</svg>
