<svg width="60" height="60" viewBox="0 0 60 60" fill="none" xmlns="http://www.w3.org/2000/svg">
<g filter="url(#filter0_d)">
<path d="M54.95 31.1892C54.95 32.8393 54.2581 34.1873 53.0025 35.2835C51.7453 36.381 49.9227 37.2261 47.6641 37.8646C43.1469 39.1415 36.9027 39.5872 30 39.5872C23.0973 39.5872 16.8531 39.1415 12.3359 37.8646C10.0773 37.2261 8.2547 36.381 6.99751 35.2835C5.7419 34.1873 5.05 32.8393 5.05 31.1892C5.05 29.5366 5.74407 27.7328 7.00538 25.9548C8.26639 24.1772 10.0923 22.4283 12.3504 20.8864C16.8667 17.8026 23.1069 15.55 29.9998 15.55C36.8928 15.55 43.1331 17.8026 47.6494 20.8864C49.9075 22.4283 51.7335 24.1772 52.9946 25.9548C54.2559 27.7328 54.95 29.5366 54.95 31.1892Z" fill="black" stroke="black" stroke-width="0.1"/>
<path d="M49.3984 39.4571C49.3984 39.8647 49.0511 40.3991 48.0424 40.9884C47.0688 41.5572 45.6267 42.0866 43.801 42.5377C40.1574 43.4381 35.0975 44.0002 29.4902 44.0002C23.8829 44.0002 18.823 43.4381 15.1794 42.5377C13.3537 42.0866 11.9116 41.5572 10.938 40.9884C9.92929 40.3991 9.58203 39.8647 9.58203 39.4571C9.58203 39.0496 9.92929 38.5152 10.938 37.9259C11.9116 37.3571 13.3537 36.8277 15.1794 36.3765C18.823 35.4762 23.8829 34.9141 29.4902 34.9141C35.0975 34.9141 40.1574 35.4762 43.801 36.3765C45.6267 36.8277 47.0688 37.3571 48.0424 37.9259C49.0511 38.5152 49.3984 39.0496 49.3984 39.4571Z" fill="#4FC3F7" stroke="#4FC3F7"/>
<path d="M49.4329 38.8802C44.9118 38.235 37.5572 37.9809 29.4904 37.9809C21.4198 37.9809 14.0618 38.2353 9.54126 38.8811C9.53049 38.6777 9.52111 38.4243 9.519 38.1368C9.51341 37.3768 9.55881 36.3984 9.75459 35.4852C9.76002 35.4599 9.82114 35.3239 10.1648 35.1191C10.4839 34.9289 10.9538 34.7348 11.5669 34.5445C12.7887 34.1654 14.486 33.8295 16.453 33.5508C20.3816 32.9941 25.3109 32.6758 29.4904 32.6758C33.6578 32.6758 38.5832 33.1647 42.5174 33.8081C44.4849 34.1298 46.1918 34.4881 47.4253 34.8392C48.0442 35.0154 48.5274 35.1851 48.8602 35.3408C49.0274 35.419 49.1404 35.4862 49.2097 35.5388C49.2305 35.5547 49.2441 35.5667 49.2524 35.5747C49.4195 36.1092 49.4672 37.0261 49.4615 37.8782C49.459 38.2589 49.4462 38.6096 49.4329 38.8802Z" fill="#4FC3F7" stroke="#4FC3F7"/>
<path d="M49.8733 39.405C49.3987 39.402 48.1721 39.3134 46.4616 39.1899C45.2862 39.1051 43.8822 39.0037 42.3369 38.9023C38.5056 38.6508 33.8103 38.3993 29.5915 38.3993C25.3728 38.3993 20.3717 38.6508 16.3621 38.9023C14.3572 39.0281 12.6 39.1538 11.3121 39.2481C11.0399 39.268 10.7887 39.2866 10.5608 39.3034C9.70879 39.3662 9.18068 39.4051 9.08196 39.4051C8.97898 39.4051 8.89739 39.3427 8.83892 39.2344C8.78012 39.1255 8.74923 38.9766 8.74922 38.8247C8.74921 38.6729 8.78009 38.524 8.83886 38.4151C8.89732 38.3067 8.97888 38.2444 9.08182 38.2444C9.14843 38.2444 9.39609 38.2243 9.78876 38.19C10.0328 38.1687 10.3344 38.1417 10.6861 38.1102C10.9027 38.0908 11.1383 38.0697 11.3913 38.0472C12.7186 37.929 14.5229 37.7714 16.559 37.6138C20.6314 37.2987 25.6297 36.9836 29.5915 36.9836C33.5536 36.9836 38.5013 37.2349 42.5225 37.5417C44.533 37.695 46.3114 37.8622 47.6188 38.0186C48.2726 38.0968 48.8079 38.1723 49.1954 38.2419C49.3892 38.2767 49.5451 38.3099 49.66 38.3411C49.7174 38.3566 49.7638 38.3715 49.7991 38.3854C49.8355 38.3998 49.856 38.4117 49.8653 38.4198C49.9847 38.5234 50.0426 38.636 50.0643 38.7461C50.0862 38.8572 50.0719 38.969 50.0416 39.0703C50.0112 39.1715 49.9655 39.2602 49.9271 39.3239C49.9079 39.3556 49.8907 39.3809 49.8784 39.3981C49.8766 39.4006 49.8749 39.4029 49.8733 39.405Z" fill="black" stroke="black" stroke-width="0.1"/>
</g>
<defs>
<filter id="filter0_d" x="1" y="15.5" width="58" height="37.0002" filterUnits="userSpaceOnUse" color-interpolation-filters="sRGB">
<feFlood flood-opacity="0" result="BackgroundImageFix"/>
<feColorMatrix in="SourceAlpha" type="matrix" values="0 0 0 0 0 0 0 0 0 0 0 0 0 0 0 0 0 0 127 0"/>
<feOffset dy="4"/>
<feGaussianBlur stdDeviation="2"/>
<feColorMatrix type="matrix" values="0 0 0 0 0 0 0 0 0 0 0 0 0 0 0 0 0 0 0.25 0"/>
<feBlend mode="normal" in2="BackgroundImageFix" result="effect1_dropShadow"/>
<feBlend mode="normal" in="SourceGraphic" in2="effect1_dropShadow" result="shape"/>
</filter>
</defs>
</svg>
