<svg width="50" height="50" viewBox="0 0 50 50" fill="none" xmlns="http://www.w3.org/2000/svg">
<path d="M49.95 26.1892C49.95 27.8393 49.2581 29.1873 48.0025 30.2835C46.7453 31.381 44.9227 32.2261 42.6641 32.8646C38.1469 34.1415 31.9027 34.5872 25 34.5872C18.0973 34.5872 11.8531 34.1415 7.33593 32.8646C5.07732 32.2261 3.2547 31.381 1.99751 30.2835C0.741895 29.1873 0.05 27.8393 0.05 26.1892C0.05 24.5366 0.744067 22.7328 2.00538 20.9548C3.26639 19.1772 5.09234 17.4283 7.35043 15.8864C11.8667 12.8026 18.1069 10.55 24.9998 10.55C31.8928 10.55 38.1331 12.8026 42.6494 15.8864C44.9075 17.4283 46.7335 19.1772 47.9946 20.9548C49.2559 22.7328 49.95 24.5366 49.95 26.1892Z" fill="black" stroke="black" stroke-width="0.1"/>
<path d="M44.3984 34.4571C44.3984 34.8647 44.0511 35.3991 43.0424 35.9884C42.0688 36.5572 40.6267 37.0866 38.801 37.5377C35.1574 38.4381 30.0975 39.0002 24.4902 39.0002C18.8829 39.0002 13.823 38.4381 10.1794 37.5377C8.35372 37.0866 6.91163 36.5572 5.93803 35.9884C4.92929 35.3991 4.58203 34.8647 4.58203 34.4571C4.58203 34.0496 4.92929 33.5152 5.93803 32.9259C6.91163 32.3571 8.35372 31.8277 10.1794 31.3765C13.823 30.4762 18.8829 29.9141 24.4902 29.9141C30.0975 29.9141 35.1574 30.4762 38.801 31.3765C40.6267 31.8277 42.0688 32.3571 43.0424 32.9259C44.0511 33.5152 44.3984 34.0496 44.3984 34.4571Z" fill="#4FC3F7" stroke="#4FC3F7"/>
<path d="M44.4329 33.8802C39.9118 33.235 32.5572 32.9809 24.4904 32.9809C16.4198 32.9809 9.06182 33.2353 4.54126 33.8811C4.53049 33.6777 4.52111 33.4243 4.519 33.1368C4.51341 32.3768 4.55881 31.3984 4.75459 30.4852C4.76002 30.4599 4.82114 30.3239 5.16476 30.1191C5.48391 29.9289 5.95381 29.7348 6.56694 29.5445C7.78869 29.1654 9.48599 28.8295 11.453 28.5508C15.3816 27.9941 20.3109 27.6758 24.4904 27.6758C28.6578 27.6758 33.5832 28.1647 37.5174 28.8081C39.4849 29.1298 41.1918 29.4881 42.4253 29.8392C43.0442 30.0154 43.5274 30.1851 43.8602 30.3408C44.0274 30.419 44.1404 30.4862 44.2096 30.5388C44.2305 30.5547 44.2441 30.5667 44.2524 30.5747C44.4195 31.1092 44.4672 32.0261 44.4615 32.8782C44.459 33.2589 44.4462 33.6096 44.4329 33.8802Z" fill="#4FC3F7" stroke="#4FC3F7"/>
<path d="M44.8733 34.405C44.3987 34.402 43.1721 34.3134 41.4616 34.1899C40.2862 34.1051 38.8822 34.0037 37.3369 33.9023C33.5056 33.6508 28.8103 33.3993 24.5915 33.3993C20.3728 33.3993 15.3717 33.6508 11.3621 33.9023C9.35723 34.0281 7.59999 34.1538 6.31214 34.2481C6.03986 34.268 5.78874 34.2866 5.5608 34.3034C4.70879 34.3662 4.18068 34.4051 4.08196 34.4051C3.97898 34.4051 3.89739 34.3427 3.83892 34.2344C3.78012 34.1255 3.74923 33.9766 3.74922 33.8247C3.74921 33.6729 3.78009 33.524 3.83886 33.4151C3.89732 33.3067 3.97888 33.2444 4.08182 33.2444C4.14843 33.2444 4.39609 33.2243 4.78876 33.19C5.03285 33.1687 5.33441 33.1417 5.68608 33.1102C5.90271 33.0908 6.13835 33.0697 6.39129 33.0472C7.71856 32.929 9.52289 32.7714 11.559 32.6138C15.6314 32.2987 20.6297 31.9836 24.5915 31.9836C28.5536 31.9836 33.5013 32.2349 37.5225 32.5417C39.533 32.695 41.3114 32.8622 42.6188 33.0186C43.2726 33.0968 43.8079 33.1723 44.1954 33.2419C44.3892 33.2767 44.5451 33.3099 44.66 33.3411C44.7174 33.3566 44.7638 33.3715 44.7991 33.3854C44.8355 33.3998 44.856 33.4117 44.8653 33.4198C44.9847 33.5234 45.0426 33.636 45.0643 33.7461C45.0862 33.8572 45.0719 33.969 45.0416 34.0703C45.0112 34.1715 44.9655 34.2602 44.9271 34.3239C44.9079 34.3556 44.8907 34.3809 44.8784 34.3981C44.8766 34.4006 44.8749 34.4029 44.8733 34.405Z" fill="black" stroke="black" stroke-width="0.1"/>
</svg>
