<svg width="60" height="61" viewBox="0 0 60 61" fill="none" xmlns="http://www.w3.org/2000/svg">
<g filter="url(#filter0_d)">
<path d="M54.75 32.0184C54.75 33.6037 54.0887 34.8991 52.871 35.9623C51.6453 37.0324 49.8545 37.8672 47.6097 38.5018C43.1204 39.7709 36.8992 40.217 30 40.217C23.1008 40.217 16.8796 39.7709 12.3903 38.5018C10.1455 37.8672 8.35474 37.0324 7.12905 35.9623C5.91126 34.8991 5.25 33.6037 5.25 32.0184C5.25 30.4203 5.92217 28.6564 7.1685 26.8993C8.41335 25.1444 10.2209 23.4113 12.4632 21.8801C16.9481 18.8175 23.1493 16.5781 29.9998 16.5781C36.8503 16.5781 43.0516 18.8175 47.5366 21.8801C49.779 23.4113 51.5866 25.1444 52.8314 26.8993C54.0778 28.6564 54.75 30.4204 54.75 32.0184Z" fill="#F8F8F8" stroke="black" stroke-width="0.5"/>
<path d="M49.6474 40.2856C49.6474 40.8376 49.1882 41.4365 48.1675 42.0329C47.1643 42.619 45.6961 43.1554 43.86 43.6091C40.1916 44.5157 35.1107 45.079 29.4892 45.079C23.8678 45.079 18.7868 44.5157 15.1184 43.6091C13.2823 43.1554 11.8141 42.619 10.8109 42.0329C9.79023 41.4365 9.33105 40.8376 9.33105 40.2856C9.33105 39.7336 9.79023 39.1347 10.8109 38.5383C11.8141 37.9522 13.2823 37.4158 15.1184 36.9621C18.7868 36.0555 23.8678 35.4922 29.4892 35.4922C35.1107 35.4922 40.1916 36.0555 43.86 36.9621C45.6961 37.4158 47.1643 37.9522 48.1675 38.5383C49.1882 39.1347 49.6474 39.7336 49.6474 40.2856Z" fill="#F8F8F8" stroke="#010101" stroke-width="0.5"/>
<path d="M49.6675 39.9958C45.1941 39.3244 37.7219 39.0594 29.4904 39.0594C21.2561 39.0594 13.7816 39.3246 9.30862 39.9964C9.30651 39.9672 9.30435 39.9357 9.30217 39.9022C9.28737 39.6745 9.27183 39.3506 9.26901 38.9671C9.26335 38.1981 9.309 37.1994 9.51015 36.2612C9.53868 36.1281 9.68098 35.9448 10.0368 35.7327C10.3803 35.5279 10.8715 35.3268 11.4929 35.134C12.7333 34.7491 14.4458 34.4109 16.4179 34.1314C20.3595 33.5728 25.3006 33.2539 29.4904 33.2539C33.6742 33.2539 38.6134 33.7445 42.5577 34.3896C44.5301 34.7121 46.2474 35.0723 47.4937 35.427C48.1179 35.6047 48.6158 35.7787 48.9661 35.9426C49.1417 36.0248 49.2721 36.1006 49.3609 36.1681C49.405 36.2016 49.4348 36.23 49.454 36.2527C49.4634 36.2637 49.4695 36.2725 49.4732 36.2787C49.475 36.2817 49.4762 36.2841 49.4769 36.2856C49.4777 36.2872 49.4779 36.288 49.4779 36.2879C49.6694 36.8613 49.7173 37.8404 49.7115 38.7084C49.7087 39.1357 49.6931 39.5253 49.6781 39.8081C49.6745 39.8775 49.6709 39.9404 49.6675 39.9958Z" fill="#F8F8F8" stroke="black" stroke-width="0.5"/>
<path d="M49.8724 40.2333C49.3978 40.2303 48.1711 40.1417 46.4607 40.0182C45.2852 39.9334 43.8812 39.832 42.336 39.7306C38.5046 39.4791 33.8093 39.2275 29.5905 39.2275C25.3718 39.2275 20.3708 39.4791 16.3612 39.7306C14.3563 39.8563 12.599 39.9821 11.3112 40.0764C11.0389 40.0963 10.7877 40.1148 10.5598 40.1317C9.7078 40.1945 9.1797 40.2334 9.08098 40.2334C8.978 40.2334 8.89642 40.171 8.83794 40.0627C8.77915 39.9537 8.74825 39.8049 8.74824 39.653C8.74823 39.5011 8.77911 39.3523 8.83788 39.2433C8.89634 39.135 8.9779 39.0726 9.08084 39.0726C9.14745 39.0726 9.39511 39.0525 9.78778 39.0182C10.0319 38.9969 10.3334 38.9699 10.6851 38.9384C10.9017 38.919 11.1374 38.8979 11.3903 38.8754C12.7176 38.7572 14.5219 38.5996 16.558 38.442C20.6305 38.1268 25.6287 37.8117 29.5905 37.8117C33.5526 37.8117 38.5003 38.0631 42.5215 38.3698C44.532 38.5232 46.3104 38.6903 47.6178 38.8468C48.2716 38.925 48.8069 39.0005 49.1944 39.0701C49.3882 39.1049 49.5441 39.1381 49.659 39.1693C49.7165 39.1849 49.7628 39.1997 49.7981 39.2136C49.8345 39.228 49.855 39.2399 49.8644 39.248C49.9837 39.3516 50.0416 39.4642 50.0634 39.5744C50.0852 39.6855 50.0709 39.7972 50.0406 39.8985C50.0103 39.9997 49.9646 40.0885 49.9261 40.1522C49.9069 40.1839 49.8897 40.2092 49.8774 40.2264C49.8756 40.2289 49.8739 40.2312 49.8724 40.2333Z" fill="#4FC3F7" stroke="black" stroke-width="0.1"/>
</g>
<defs>
<filter id="filter0_d" x="1" y="16.3281" width="58" height="37.0009" filterUnits="userSpaceOnUse" color-interpolation-filters="sRGB">
<feFlood flood-opacity="0" result="BackgroundImageFix"/>
<feColorMatrix in="SourceAlpha" type="matrix" values="0 0 0 0 0 0 0 0 0 0 0 0 0 0 0 0 0 0 127 0"/>
<feOffset dy="4"/>
<feGaussianBlur stdDeviation="2"/>
<feColorMatrix type="matrix" values="0 0 0 0 0 0 0 0 0 0 0 0 0 0 0 0 0 0 0.25 0"/>
<feBlend mode="normal" in2="BackgroundImageFix" result="effect1_dropShadow"/>
<feBlend mode="normal" in="SourceGraphic" in2="effect1_dropShadow" result="shape"/>
</filter>
</defs>
</svg>
