<svg width="376" height="376" viewBox="0 0 376 376" fill="none" xmlns="http://www.w3.org/2000/svg">
<g clip-path="url(#clip0)">
<path d="M-8.10498 -99.6328H375.168L375.638 317.076H-7.63482L-8.10498 -99.6328Z" fill="url(#paint0_linear)"/>
<path opacity="0.4" d="M-878.955 183.354H2525.62L2529.8 690.882H-874.776L-878.955 183.354Z" fill="#39BCC4"/>
<path d="M154.546 20.8135C149.331 21.8921 132.677 57.9807 137.951 86.4549C143.23 114.925 158.415 180.885 167.159 191.751C175.901 202.618 186.855 222.021 186.855 222.021C186.855 222.021 148.298 242.728 142.156 256.284C142.156 256.284 142.169 261.844 146.878 261.096C151.585 260.353 192.697 258.11 194.626 262.708C196.559 267.318 200.31 291.286 200.935 294.409C201.56 297.511 199.826 311.69 199.24 316.773C198.998 318.874 186.378 339.167 188.696 343.748C191.019 348.337 208.096 348.497 217.609 348.277C227.118 348.057 277.802 314.088 284.879 307.84C291.957 301.601 293.924 226.051 293.924 226.051C293.924 226.051 279.505 127.274 283.046 127.072C286.587 126.87 310.507 117.233 318.181 108.347C325.861 99.4435 323.008 56.378 319.364 49.5202C315.709 42.654 232.71 4.31821 154.546 20.8135Z" fill="#36627A"/>
<path d="M193.316 293.335C193.316 293.335 201.529 291.663 202 292.677C202.473 293.708 204.271 296.549 203.884 302.039C203.493 307.554 205.597 314.521 201.273 315.059C196.948 315.6 193.969 315.596 193.969 315.596C193.969 315.596 186.752 333.393 175.634 338.76C164.52 344.147 157.042 342.308 163.867 335.279C170.692 328.249 183.538 319.944 182.306 317.03C181.08 314.143 159.551 317.116 159.551 317.116L159.744 299.697C159.744 299.697 176.205 298.104 177.024 298.439C177.844 298.722 184.049 294.142 179.338 292.105C174.622 290.094 154.337 292.156 157.575 284.955C160.813 277.749 160.028 277.831 167.694 276.851C175.366 275.889 185.169 279.666 189.523 284.942C193.879 290.189 193.316 293.335 193.316 293.335Z" fill="#6C808C"/>
<path d="M632.94 248.416L555.466 183.578L230.43 165.123C331.88 144.241 524.095 113.713 810.481 96.0749C1016.22 83.4252 1188.6 82.0757 1268.32 86.1102C1413.3 93.471 1510.83 85.0443 1535.61 82.5098C1531.39 85.1821 1525.21 89.3502 1521.46 92.8396C1518.62 95.482 1516.12 99.0566 1512.6 103.985C1505.54 114.014 1494.74 128.464 1470.91 150.948L1468.54 153.101C1309.4 230.636 1093.7 253.482 938.763 257.902C774.642 262.582 639.87 249.134 632.94 248.416Z" fill="#FF0000"/>
<path d="M225.967 153.201L226.403 152.922L226.092 127.287L242.097 117.512L312.147 118.728L312.314 118.647L341.33 107.901L342.569 48.06L394.91 35.2641L506.892 34.9678L512.79 24.1228L607.643 18.855L608.282 9.23391L628.026 7.24078L626.249 5.83969C626.213 5.79703 623.465 3.60516 623.529 0.907497C623.583 -0.6525 624.562 -2.14313 626.511 -3.49219C627.945 -4.52344 632.18 -5.70984 644.079 -5.70984C655.027 -5.70984 668.346 -4.72969 678.113 -4.00828C682.921 -3.6511 686.745 -3.35016 688.951 -3.30375C695.603 -3.09282 702.991 1.91765 707.029 6.4889C709.507 9.29062 710.819 12.0277 710.634 13.9692C710.041 20.1652 709.044 21.6558 704.584 22.4939L704.859 24.4664L770.35 18.2573L810.772 14.4412L816.295 28.6294H833.792L833.886 26.5242C833.976 26.0822 840.43 -18.6258 842.841 -25.5647C844.731 -30.9919 868.428 -37.3341 877.412 -39.3061C893.251 -43.7447 926.309 -48.398 932.376 -49.2188L932.471 -48.9905L933.145 -49.0589C933.153 -49.0589 934.417 -49.1709 936.239 -49.1709C941.313 -49.1709 945 -48.3248 946.638 -46.8253C948.42 -45.1706 948.434 -41.8631 948.451 -38.6611C948.459 -35.8894 948.484 -33.2775 949.512 -31.3308C951.665 -27.3352 970.05 3.76031 970.841 5.07938L971.103 5.51344L971.58 5.54343C974.283 5.70234 1241.07 21.4716 1300.59 28.7972C1305.18 29.3648 1310.43 29.8973 1316.21 30.7181C1406.29 43.3889 1532.44 67.7255 1532.44 67.7255C1542.21 67.898 1546.08 70.9655 1546.42 73.5436C1546.72 75.9197 1544.26 78.3211 1540.21 79.5023C1540.1 79.5623 1537.36 80.9292 1533.69 83.1464C1517.29 84.938 1418.54 94.7053 1264.31 86.8847C1184.52 82.8548 1011.88 84.4312 806.086 97.103C512.886 115.183 331.929 144.031 231.748 165.021L227.37 165.945C219.061 165.851 216.106 165.004 215.722 164.544C215.584 164.273 215.403 164.05 215.223 163.796C214.798 163.2 214.581 162.885 214.666 162.404C215.017 160.823 218.705 157.789 225.967 153.201Z" fill="white" stroke="white" stroke-miterlimit="10"/>
<path d="M630.602 246.604L630.88 246.63C632.006 246.734 728.126 256.775 860.519 256.775C883.451 256.775 907.444 256.5 932.189 255.761C1086.46 251.358 1303.25 229.999 1462.41 153.361C1461.99 153.757 1461.59 154.126 1461.19 154.514C1455.69 159.579 1450.23 164.962 1444.44 170.652C1407.87 206.671 1362.36 251.482 1244.97 285.602C1217.94 293.444 1189.04 297.117 1153.92 297.117C1123.84 297.117 1092.98 296.309 1060.33 293.482C1024.47 290.389 987.407 287.183 947.785 287.183C941.693 287.183 935.635 287.278 929.714 287.432C923.763 287.57 916.789 287.669 909.008 287.669C754.634 287.669 284.367 255.37 264.837 254.12L229.958 164.825L553.351 181.789L630.602 246.604Z" fill="white" stroke="white" stroke-miterlimit="10"/>
<path opacity="0.4" d="M-5.37549 183.354H377.897L378.367 375.113H-4.90509L-5.37549 183.354Z" fill="#33EFFF"/>
<path d="M86.0741 278.846H71.8213V322.443H86.0741V278.846Z" fill="#0C0C0C"/>
<path d="M111.671 317.569C103.161 302.845 94.6636 288.116 86.1619 273.388C85.4794 272.207 84.8152 271.013 84.1074 269.846C82.5586 267.295 79.9566 266.066 77.2458 266.642C75.1927 267.078 73.7761 268.375 72.7481 270.156C66.5663 280.869 60.3806 291.58 54.1955 302.291C51.196 307.487 48.1866 312.679 45.2016 317.884C43.275 321.243 44.1642 325.022 47.2688 326.806C48.4885 327.508 49.8178 327.727 51.2072 327.726C60.286 327.719 69.3642 327.724 78.443 327.724C80.0934 327.724 81.7444 327.724 83.3949 327.724C90.9647 327.721 98.535 327.735 106.106 327.715C109.681 327.705 112.319 325.581 112.791 322.369C113.047 320.634 112.536 319.066 111.671 317.569ZM82.4292 279.043L81.2395 307.529H75.9516L74.828 279.043H82.4292ZM78.6291 320.218C76.2928 320.218 74.3995 318.324 74.3995 315.989C74.3995 313.653 76.2933 311.759 78.6291 311.759C80.9644 311.759 82.8591 313.653 82.8591 315.989C82.8591 318.324 80.9653 320.218 78.6291 320.218Z" fill="#070707"/>
<path d="M108.558 316.127C100.848 302.785 93.1479 289.44 85.4449 276.094C84.8261 275.026 84.2243 273.942 83.5835 272.886C82.18 270.574 79.8227 269.461 77.3664 269.982C75.506 270.377 74.2225 271.554 73.2911 273.166C67.6891 282.874 62.0847 292.579 56.4804 302.284C53.7625 306.992 51.0363 311.696 48.3311 316.412C46.585 319.456 47.3913 322.88 50.2043 324.497C51.3091 325.133 52.5138 325.331 53.7729 325.33C61.9985 325.324 70.2246 325.328 78.4511 325.328C79.9464 325.328 81.4427 325.328 82.938 325.328C89.7972 325.325 96.6569 325.338 103.517 325.32C106.757 325.311 109.146 323.387 109.574 320.475C109.805 318.904 109.342 317.483 108.558 316.127ZM82.0628 281.218L80.9847 307.029H76.1936L75.1755 281.218H82.0628ZM78.6189 318.527C76.5021 318.527 74.786 316.811 74.786 314.695C74.786 312.578 76.5021 310.862 78.6189 310.862C80.7353 310.862 82.4514 312.578 82.4514 314.695C82.4514 316.811 80.7358 318.527 78.6189 318.527Z" fill="#F9E132"/>
<path d="M55.955 78.6951C69.0301 78.6951 79.6297 68.0956 79.6297 55.0204C79.6297 41.9452 69.0301 31.3457 55.955 31.3457C42.8798 31.3457 32.2803 41.9452 32.2803 55.0204C32.2803 68.0956 42.8798 78.6951 55.955 78.6951Z" fill="#2BA03C"/>
<path d="M51.3548 64.0039V57.9139C51.3548 54.6139 51.2948 51.7639 51.1748 49.0939L51.2648 49.0639C52.2548 51.4339 53.5748 54.0439 54.7748 56.2039L59.0948 64.0039H63.8948V43.7839H59.6948V49.6939C59.6948 52.7239 59.7848 55.4539 60.0848 58.1239H59.9948C59.0948 55.8439 57.8948 53.3239 56.6948 51.1939L52.4948 43.7839H47.1548V64.0039H51.3548Z" fill="white"/>
<path opacity="0.6" d="M180.707 317.072L176.128 299.025V317.072L169.663 300.911V314.648L162.929 300.911L164.688 312.493L162.929 314.648C160.505 324.345 169.393 320.305 158.888 327.308C150.484 332.911 139.225 340.776 134.646 344.008L117.947 348.049V354.783" stroke="#753C15" stroke-width="6" stroke-miterlimit="10" stroke-linecap="round" stroke-linejoin="round"/>
<path opacity="0.6" d="M180.707 316.352C180.707 316.352 194.489 295.44 194.489 293.868C194.489 292.295 195.406 314.253 197.473 314.253C199.541 314.253 197.473 295.141 197.473 293.868C197.473 292.595 202.998 311.7 202.198 314.253C201.398 316.806 187.258 340.362 187.258 340.362" stroke="#753C15" stroke-width="6" stroke-linecap="round" stroke-linejoin="round"/>
<rect x="315.638" y="15.1113" width="38.9496" height="25" rx="12.5" fill="#969696" fill-opacity="0.3"/>
<path d="M327.16 26.3174H328.007C328.477 26.3174 328.887 26.2354 329.238 26.0713C329.589 25.9027 329.855 25.6748 330.038 25.3877C330.224 25.096 330.318 24.7611 330.318 24.3828C330.318 23.7448 330.138 23.2458 329.778 22.8857C329.418 22.5257 328.901 22.3457 328.226 22.3457C327.588 22.3457 327.064 22.5348 326.654 22.9131C326.248 23.2868 326.045 23.7812 326.045 24.3965H325.225C325.225 23.8815 325.355 23.4121 325.615 22.9883C325.875 22.5599 326.235 22.2295 326.695 21.9971C327.155 21.7646 327.666 21.6484 328.226 21.6484C329.128 21.6484 329.839 21.8945 330.359 22.3867C330.878 22.8789 331.138 23.5534 331.138 24.4102C331.138 24.8887 330.986 25.3307 330.68 25.7363C330.379 26.1374 329.965 26.4382 329.436 26.6387C330.056 26.8118 330.525 27.1104 330.844 27.5342C331.163 27.9535 331.323 28.4548 331.323 29.0381C331.323 29.8903 331.045 30.5762 330.489 31.0957C329.933 31.6152 329.19 31.875 328.26 31.875C327.668 31.875 327.123 31.7565 326.626 31.5195C326.134 31.2826 325.751 30.9521 325.478 30.5283C325.209 30.0999 325.075 29.6032 325.075 29.0381H325.895C325.895 29.6715 326.116 30.1888 326.558 30.5898C327 30.9863 327.568 31.1846 328.26 31.1846C328.967 31.1846 329.516 31.0046 329.908 30.6445C330.304 30.2799 330.502 29.7536 330.502 29.0654C330.502 28.4001 330.288 27.8919 329.86 27.541C329.436 27.1901 328.809 27.0146 327.98 27.0146H327.16V26.3174ZM333.121 32.5928H332.375L336.532 21.7852H337.27L333.121 32.5928ZM343.778 27.1309C343.486 27.5592 343.124 27.8919 342.691 28.1289C342.258 28.3613 341.789 28.4775 341.283 28.4775C340.718 28.4775 340.219 28.3317 339.786 28.04C339.353 27.7484 339.018 27.3451 338.781 26.8301C338.544 26.3151 338.425 25.7523 338.425 25.1416C338.425 24.4854 338.551 23.8883 338.801 23.3506C339.056 22.8128 339.41 22.3958 339.861 22.0996C340.317 21.7988 340.841 21.6484 341.433 21.6484C342.431 21.6484 343.208 21.9993 343.764 22.7012C344.32 23.3984 344.598 24.3896 344.598 25.6748V26.4131C344.598 28.2087 344.215 29.5576 343.45 30.46C342.684 31.3623 341.515 31.8135 339.943 31.8135H339.792L339.799 31.1025H340.086C341.276 31.0843 342.181 30.7471 342.8 30.0908C343.42 29.4346 343.746 28.4479 343.778 27.1309ZM341.385 27.7734C341.932 27.7734 342.422 27.6117 342.855 27.2881C343.292 26.96 343.602 26.5361 343.785 26.0166V25.5449C343.785 24.5332 343.573 23.7493 343.149 23.1934C342.73 22.6328 342.162 22.3525 341.447 22.3525C340.8 22.3525 340.269 22.6146 339.854 23.1387C339.439 23.6582 339.232 24.3145 339.232 25.1074C339.232 25.8685 339.43 26.5042 339.827 27.0146C340.228 27.5205 340.747 27.7734 341.385 27.7734Z" fill="black"/>
</g>
<defs>
<linearGradient id="paint0_linear" x1="183.766" y1="317.076" x2="183.766" y2="-99.6323" gradientUnits="userSpaceOnUse">
<stop stop-color="white"/>
<stop offset="0.7222" stop-color="#4FC3F7"/>
</linearGradient>
<clipPath id="clip0">
<rect width="375" height="375" fill="white" transform="translate(0.637695 0.111328)"/>
</clipPath>
</defs>
</svg>
