<svg width="376" height="376" viewBox="0 0 376 376" fill="none" xmlns="http://www.w3.org/2000/svg">
<g clip-path="url(#clip0)">
<path d="M-40.6426 -4.76172H382.489L380.845 414.314H-39.1646L-40.6426 -4.76172Z" fill="url(#paint0_linear)"/>
<path opacity="0.8" d="M-18.4707 -7.99906L408.761 -8.82031L407.765 409.087H-19.988L-18.4707 -7.99906Z" fill="#8BF6FF"/>
<path d="M23.677 238.856C-18.1093 236.166 -159.285 236.58 -197.338 235.539C-197.631 309.87 -196.926 371.258 -193.859 374.326C-185.892 382.293 16.889 409.814 29.2007 408.365C41.5129 406.916 179.839 376.5 202.289 364.912C222.731 354.36 246.174 260.355 254.032 231.047C199.456 237.937 66.1602 241.59 23.677 238.856Z" fill="#CCCCCC"/>
<path d="M254.032 232.308C254.804 229.43 255.429 227.164 255.882 225.674C260.951 209.017 260.226 186.566 259.502 179.324C258.779 172.082 215.653 164.84 215.653 164.84L181.942 125.008V70.6914L90.3636 43.1711L-40.1602 -21.2848L-206.504 -46.4844C-206.504 -46.4844 -196.83 118.107 -197.298 236.8C-159.244 237.841 -18.4975 241.607 23.375 241.607C65.1388 241.607 199.456 239.198 254.032 232.308Z" fill="#EAEAEA"/>
<path d="M181.942 70.5527H-171.496V163.365H181.942V70.5527Z" fill="#D8D8D8"/>
<path d="M158.57 60.2402C158.57 64.4398 155.166 67.7402 150.967 67.7402H-158.275C-162.475 67.7402 -166.339 66.3452 -166.339 62.7241V58.7412C-166.339 54.3959 -162.475 52.7402 -158.275 52.7402H150.967C155.166 52.7402 158.57 56.0407 158.57 60.2402Z" fill="#E8CDA0"/>
<path d="M-180.363 178.981C-180.363 178.981 228.393 183.332 247.56 180.178C266.728 177.023 258.911 178.199 258.911 178.199C258.911 178.199 262.339 191.113 258.575 211.987C256.924 221.134 246.628 225.605 246.628 225.605L71.9637 226.761L-176.997 226.281L-180.363 178.981Z" fill="#D8D8D8"/>
<path d="M251.928 222.291C258.658 219.372 258.962 209.857 258.962 209.857C258.962 209.857 273.485 234.91 253.778 236.321C220.168 238.726 125.692 240.158 125.692 240.158V226.76C125.692 226.759 238.835 227.97 251.928 222.291Z" fill="#FF0000"/>
<path d="M128.623 178.283C127.677 177.653 112.623 169.451 111.317 164.403C110.011 159.355 110.957 158.094 109.696 150.522C108.434 142.951 104.648 136.011 110.326 131.595C116.005 127.178 114.339 119.922 116.276 119.922C118.213 119.922 130.153 119.607 134.909 121.183C139.665 122.761 146.791 125.298 147.409 130.397C148.028 135.496 153.546 142.951 152.599 147.683C151.652 152.415 150.391 157.147 149.129 159.986C147.867 162.826 149.715 167.461 149.404 169.183C149.093 170.904 147.432 177.022 143.391 178.283C139.35 179.546 128.623 178.283 128.623 178.283Z" fill="#E5CAB1"/>
<path d="M-68.5684 172.081C-68.5684 172.081 -67.1204 59.1029 -49.0145 48.9639C-30.9095 38.8253 -28.0126 30.8584 -17.1493 30.8584C-6.28649 30.8584 49.4788 25.7893 57.4448 30.8584C65.4116 35.9279 106.595 49.6881 107.32 59.8276C108.044 69.9662 120.356 138.043 107.32 181.497C104.36 191.365 99.0079 207.36 92.5045 226.418C70.3724 291.276 40.7882 391.615 40.7882 406.729C40.7882 426.284 48.7546 427.008 55.9963 434.974C63.2385 442.94 54.5484 446.32 54.5484 446.32C54.5484 446.32 37.1666 439.319 34.9945 437.872C32.8213 436.422 24.8549 429.906 19.7854 435.698C14.7159 441.492 11.819 479.875 12.5437 482.049C13.2674 484.222 8.19836 490.859 18.3374 497.256C28.476 503.656 35.2359 512.708 35.2359 512.708C35.2359 512.708 46.3405 538.779 41.9952 538.779C37.6495 538.779 6.0257 522.604 5.30101 518.984C4.57679 515.362 6.74992 500.878 3.12882 497.98C-0.492744 495.083 -12.0802 487.117 -12.0802 487.117L-20.0462 420.489L-15.7013 380.656L-46.8427 344.444C-46.8427 344.444 -41.7732 257.539 -55.5329 237.984C-69.2931 218.431 -68.5684 172.081 -68.5684 172.081Z" fill="#394963"/>
<path d="M130.848 204.671V187.74H223.292L223.761 203.911L130.848 204.671Z" fill="#8C8C8C"/>
<path d="M130.848 198.08V187.74H209.277C209.277 187.74 210.223 196.921 209.404 197.068C208.585 197.213 130.848 198.08 130.848 198.08Z" fill="#606060"/>
<g opacity="0.7">
<path opacity="0.6" d="M-20.0458 420.49L-12.0799 487.117C-12.0799 487.117 -1.81097 494.177 2.41341 497.421C1.6559 499.705 0.919022 502.29 0.209335 505.223C-2.42738 516.121 -4.60941 513.242 5.29575 507.251C5.35762 511.978 4.91418 517.042 5.30231 518.983C6.02699 522.604 37.6512 538.778 41.9965 538.778C46.3418 538.778 35.2372 512.706 35.2372 512.706C35.2372 512.706 28.4778 503.654 18.3387 497.255C18.1325 497.125 17.9422 496.995 17.7486 496.865C21.5028 490.089 20.2283 483.013 20.2283 483.013L26.24 479.633C26.24 479.633 37.4108 484.461 50.929 495.565C64.4473 506.669 61.5509 488.324 59.1373 479.633C56.7228 470.942 36.4446 475.287 36.4446 475.287C36.4446 475.287 37.8936 473.356 36.4446 465.63C34.9967 457.906 22.4431 462.733 20.2287 454.526C19.2678 450.964 19.0109 445.678 17.5704 440.555C18.2525 438.312 18.9936 436.603 19.7876 435.695C24.8572 429.903 32.8235 436.42 34.9967 437.869C37.1689 439.318 54.5506 446.318 54.5506 446.318C54.5506 446.318 63.2408 442.938 55.9986 434.972C48.7568 427.005 40.7904 426.282 40.7904 406.727C40.7904 406.591 40.7998 406.433 40.805 406.284C77.3693 398.939 182.927 374.925 202.291 364.929C205.99 363.021 209.787 358.371 213.571 351.875L-178.061 358.594L-178.194 379.193C-145.314 386.414 -68.7157 397.539 -18.2233 403.786L-20.0458 420.49ZM14.0787 459.522C14.4842 460.035 14.7167 460.321 14.7167 460.321C14.7167 460.321 14.3984 460.565 13.9081 460.946C13.9634 460.472 14.0206 459.998 14.0787 459.522Z" fill="#39BCC4"/>
</g>
<path d="M222.029 191.328C219.695 191.342 217.723 193.345 217.738 195.678L219.396 446.821L228.127 454.929L226.418 195.634C226.402 193.301 224.552 191.366 222.218 191.382L222.029 191.328Z" fill="#999999"/>
<path d="M222.412 192.31C221.309 191.852 220.041 192.378 219.585 193.483L219.552 193.563C219.094 194.668 219.622 195.934 220.725 196.391L221.972 196.907C223.076 197.364 224.344 196.838 224.8 195.732L224.833 195.652C225.289 194.547 224.764 193.281 223.658 192.825L222.412 192.31Z" fill="#7A7A7A"/>
<path d="M224.039 224.199C224.039 222.167 222.39 220.518 220.357 220.518H152.72C150.686 220.518 149.038 222.166 149.038 224.199V224.336C149.038 226.37 150.687 228.018 152.72 228.018H220.357C222.39 228.018 224.039 226.369 224.039 224.336V224.199Z" fill="#B7B7B7"/>
<path d="M224.039 255.371C224.039 253.339 222.39 251.689 220.357 251.689H152.72C150.687 251.689 149.039 253.339 149.039 255.371V255.509C149.039 257.542 150.688 259.191 152.72 259.191H220.357C222.39 259.191 224.038 257.542 224.038 255.509L224.039 255.371Z" fill="#B7B7B7"/>
<path d="M224.039 287.949C224.039 285.917 222.39 284.268 220.357 284.268H152.72C150.686 284.268 149.038 285.916 149.038 287.949V288.086C149.038 290.12 150.687 291.768 152.72 291.768H220.357C222.39 291.768 224.039 290.119 224.039 288.086V287.949Z" fill="#B7B7B7"/>
<path d="M224.039 319.121C224.039 317.089 222.39 315.439 220.357 315.439H152.72C150.687 315.439 149.039 317.089 149.039 319.121V319.259C149.039 321.292 150.688 322.941 152.72 322.941H220.357C222.39 322.941 224.038 321.292 224.038 319.259L224.039 319.121Z" fill="#B7B7B7"/>
<path d="M224.039 351.465C224.039 349.432 222.39 347.783 220.357 347.783H152.72C150.686 347.783 149.038 349.432 149.038 351.465V351.602C149.038 353.636 150.687 355.284 152.72 355.284H220.357C222.39 355.284 224.039 353.635 224.039 351.602V351.465Z" fill="#B7B7B7"/>
<path d="M149.719 190.992C147.386 191.005 145.505 192.906 145.518 195.24L145.475 441.1L149.98 445.328L154.191 440.8L154.114 195.106C154.101 192.771 152.246 190.935 149.912 190.947L149.719 190.992Z" fill="#999999"/>
<path d="M149.943 191.962C148.816 191.558 147.577 192.143 147.174 193.269L147.145 193.351C146.743 194.477 147.328 195.716 148.453 196.119L149.722 196.574C150.849 196.978 152.089 196.39 152.491 195.267L152.52 195.184C152.923 194.058 152.336 192.819 151.213 192.416L149.943 191.962Z" fill="#7A7A7A"/>
<path opacity="0.8" d="M227.534 364.984C227.553 368.247 219.479 368.217 218.857 365.403L218.946 378.956H154.172L154.168 365.386C153.721 368.695 147.075 368.053 145.487 365.993L145.475 441.1L149.98 445.329L154.191 440.8L154.183 415.922H219.19L219.394 446.822L228.126 454.929L227.534 364.984ZM154.182 408.42L154.174 386.457H218.997L219.142 408.42H154.182Z" fill="#39BCC4"/>
<path d="M197.239 105.709C198.816 106.647 207.477 112.106 209.614 114.945C211.75 117.784 212.947 119.038 213.295 123.402C213.642 127.766 219.514 128.963 217.494 132.433C215.475 135.903 212.539 144.005 212.222 145.267C211.907 146.53 204.137 149.394 198.952 148.131C193.767 146.87 194.125 163.249 190.497 164.827C186.87 166.405 175.8 155.222 175.785 153.199C175.78 152.53 173.577 150.993 171.211 151.624C168.844 152.254 158.908 152.973 158.275 151.747C157.645 150.521 153.319 155.907 150.702 154.088C148.086 152.269 150.101 146.403 148.746 143.888C147.392 141.374 146.762 126.775 146.604 124.882C146.446 122.989 148.97 105.709 148.97 105.709L197.239 105.709Z" fill="#5B422C"/>
<path d="M143.912 70.3929C136.487 70.3929 116.005 58.4051 113.21 59.8273C113.21 59.8273 115.847 39.3185 113.954 33.4826C112.061 27.6462 122.253 8.30554 124.668 6.69491C127.082 5.08429 144.238 0.51632 146.605 1.93569C148.97 3.35554 160.801 9.50695 161.589 12.6621C162.379 15.8168 166.007 24.6743 171.843 28.6057C177.679 32.5371 190.648 33.641 192.917 33.7985C195.188 33.9565 200.235 30.0382 201.497 28.6057C202.759 27.1737 204.809 20.0759 205.283 18.814C205.755 17.5521 204.493 13.924 206.072 13.924C207.649 13.924 228.785 18.656 230.678 19.2869C232.571 19.9179 234.779 12.9771 240.616 21.9682C246.451 30.9588 248.975 49.5719 248.818 50.9913C248.66 52.4112 247.555 58.0896 247.871 59.9824C248.186 61.8752 247.871 64.241 247.871 65.1874C247.871 66.1348 244.992 68.298 245.011 67.7679C245.03 67.2382 238.09 66.9227 235.724 67.2382C233.358 67.5537 224.525 68.1851 222.948 68.5001C221.37 68.8155 224.26 71.1818 220.79 74.3365C217.321 77.4907 217.565 93.5801 215.85 93.5801C214.135 93.5801 212.064 117.24 185.88 116.767C184.914 116.75 183.314 120.16 176.404 121.275C164.027 123.272 146.502 117.172 146.604 116.767C146.761 116.136 137.14 117.372 137.14 117.372L143.912 70.3929Z" fill="#F9F9F9"/>
<path d="M208.945 180.44C203.878 180.084 199.427 179.318 195.478 175.374C191.53 171.429 185.614 168.691 184.766 163.358C183.917 158.025 186.722 157.577 184.766 156.077C182.811 154.577 184.428 144.249 184.062 143.001C183.695 141.752 187.223 141.101 186.806 138.592C186.388 136.083 189.032 129.346 192.304 129.213C195.575 129.08 205.364 124.794 207.308 125.978C209.251 127.163 211.331 126.551 213.567 128.016C215.822 129.493 215.552 128.463 218.264 131.51C220.975 134.557 226.096 136.244 226.93 141.262C227.764 146.28 226.354 150.441 227.389 152.609C228.425 154.777 227.386 160.502 227.927 162.059C228.466 163.617 227.361 165.24 228.376 168.04C229.392 170.84 228.522 172.77 225.158 175.433C221.793 178.095 214.355 181.554 212.175 182.274C209.996 182.994 208.945 180.44 208.945 180.44Z" fill="#E5CAB1"/>
<path d="M126.119 9.49198C130.433 5.70636 141.422 1.92636 142.368 4.76558C143.315 7.60526 139.448 19.7487 142.288 25.4271C145.127 31.1056 140.676 57.5684 142.414 61.3545C144.151 65.1396 143.222 93.5135 143.222 93.5135C143.222 93.5135 149.809 110.308 150.754 112.79C151.701 115.271 146.965 139.201 146.965 144.268C146.965 149.337 144.124 160.691 144.124 166.368C144.124 172.046 144.261 177.724 146.154 180.562C148.045 183.402 160.89 201.421 160.89 201.421L157.508 213.286L154.119 213.696L154.117 206.26C154.117 206.26 150.874 205.392 149.758 206.675C146.995 209.857 145.474 210.884 145.474 210.884L145.512 223.794C145.512 223.794 146.751 224.406 143.913 223.46C141.073 222.513 133.732 219.403 132.269 214.805C130.98 210.756 124.248 201.559 125.195 199.104C126.141 196.65 125.194 189.571 127.086 186.485C128.98 183.4 128.979 182.654 127.086 174.983C125.195 167.312 122.213 161.847 121.836 155.589C121.458 149.331 117.723 135.136 117.723 126.618C117.723 118.101 117.723 97.5223 117.723 97.5223C117.723 97.5223 123.262 72.6753 121.899 69.8365C120.534 66.9973 119.467 41.4457 117.617 38.6065C115.766 35.7673 126.119 9.49198 126.119 9.49198Z" fill="#F9DBBD"/>
<path d="M206.513 29.8449C206.793 31.1152 213.608 59.6405 217.151 67.951C220.694 76.2615 224.261 95.8937 224.789 99.3807C225.319 102.868 225.941 114.544 224.253 118.282C222.566 122.02 220.529 159.507 220.353 165.499C220.177 171.489 216.158 177.048 215.796 178.615C215.435 180.182 210.016 190.434 209.906 194.217C209.795 198.001 209.424 210.615 209.424 210.615L217.737 217.428L217.864 215.006C217.864 215.006 222.932 211.881 226.545 214.85L226.621 226.335C226.621 226.335 232.461 224.934 232.489 223.988C232.517 223.042 236.001 221.844 236.903 220.517C236.318 218.922 238.895 215.63 238.895 215.63C238.895 215.63 239.883 214.701 239.911 213.755C239.939 212.809 240.558 212.093 239.676 209.858C238.795 207.623 240.81 206.239 238.983 203.976C237.156 201.713 233.27 194.268 233.27 194.268L231.356 188.85L233.163 181.013C233.163 181.013 239.376 162.89 240.415 159.765C241.454 156.639 248.38 135.697 248.38 135.697L250.384 119.975C250.384 119.975 250.01 112.389 249.139 109.839C248.268 107.289 248.192 99.0807 248.294 95.6119C248.396 92.1432 249.091 89.9546 247.041 84.5288C244.991 79.103 243.842 75.2818 244.379 67.7232C244.916 60.1646 246.111 40.9472 244.349 36.4777C242.586 32.0072 240.361 21.8429 239.433 21.1847C238.506 20.5262 231.318 18.106 227.534 17.9949C223.751 17.8843 206.513 29.8449 206.513 29.8449Z" fill="#F9DBBD"/>
<path d="M143.912 70.3934C136.487 70.3934 116.005 58.4056 113.21 59.8277C113.21 59.8277 115.847 39.319 113.954 33.4831C112.061 27.6467 122.253 8.30603 124.668 6.6954C127.082 5.08478 144.238 0.516809 146.605 1.93618C148.97 3.35603 164.06 -5.26757 164.849 -2.11335C165.639 1.04181 168.932 20.4171 174.768 24.3481C180.604 28.2795 190.648 33.6415 192.917 33.799C195.188 33.957 200.235 30.0387 201.497 28.6062C202.759 27.1742 204.809 20.0763 205.283 18.8145C205.755 17.5526 204.493 13.9245 206.071 13.9245C207.649 13.9245 214.32 6.1615 216.213 6.7929C218.105 7.42384 234.779 12.9781 240.617 21.9692C246.452 30.9598 248.976 49.5729 248.818 50.9923C248.66 52.4121 247.557 58.0906 247.872 59.9834C248.187 61.8762 247.872 64.242 247.872 65.1884C247.872 66.1353 244.993 68.299 245.012 67.7688C245.031 67.2392 238.091 66.9237 235.725 67.2392C233.359 67.5546 224.525 68.1856 222.948 68.501C221.371 68.8165 219.479 67.2392 216.007 70.3938C212.538 73.5485 200.666 82.6971 198.951 82.6971C197.237 82.6971 159.38 81.4357 156.856 80.4893C154.332 79.542 146.918 79.2274 147.077 78.5965C147.234 77.9656 145.657 70.8678 145.657 70.8678L143.912 70.3934Z" fill="#F9F9F9"/>
<path d="M159.318 -16.4235C174.723 -31.7484 171.803 -37.9326 183.342 -33.6398C194.881 -29.346 205.678 -27.2779 206.903 -21.937C208.125 -16.5951 212.057 -7.03401 213.575 -2.94135C215.092 1.15177 215.543 7.3899 215.302 12.3886C215.06 17.3879 212.176 28.9721 210.187 31.3313C208.195 33.6905 207.665 33.4491 205.493 35.4249C203.319 37.4002 200.378 39.2541 194.361 40.5324C188.345 41.8102 189.851 42.8176 182.358 41.5557C174.866 40.2947 179.273 38.5651 172.017 39.1922C164.761 39.819 171.044 45.9479 164.761 39.819C158.479 33.6905 156.513 36.136 158.792 30.9432C161.067 25.7504 157.623 20.6222 155.888 16.2141C154.151 11.8055 150.151 9.95631 150.884 7.91631C151.617 5.87584 148.698 7.54974 149.917 1.81974C151.138 -3.91026 155.371 -15.9792 155.371 -15.9792L159.318 -16.4235Z" fill="#9E895A"/>
<path d="M273.931 357.7C273.462 349.732 260.333 311.032 261.603 308.219C262.872 305.407 256.788 288.063 257.955 285.719C259.123 283.375 243.182 239.88 244.591 235.094C246 230.309 245.889 225.875 245.372 222.125C244.856 218.375 244.81 214.021 243.653 211.188C241.31 205.446 234.376 202.127 234.376 202.127C234.376 202.127 233.975 202.866 234.212 207.907C234.447 212.908 233.876 221.5 232.603 221.5C231.331 221.5 227.465 223.611 225.816 220.329L225.759 211.66C225.759 211.66 218.246 219.157 219.278 221.969C220.311 224.782 219.655 235.45 222.716 235.763C224.212 235.915 229.763 241.188 229.763 245.407C229.763 249.048 236.995 309.267 236.02 313.531C235.044 317.796 232.243 334.469 235.372 341.969C236.123 343.769 223.36 345.25 222.934 345.25C222.795 345.25 218.345 344.925 216.466 344.782C214.498 338.172 214.433 324.245 214.084 322.358C213.577 319.621 186.571 320.875 181.468 322.358C176.364 323.84 185.216 319.938 186.622 323.688C187.115 325.002 187.715 344.782 183.653 348.063C176.612 348.184 169.105 352.75 168.462 352.75C167.868 352.75 160.051 352.575 157.078 352.906C157.088 352.863 143.326 356.2 143.341 356.163C144.281 353.82 154.859 332.247 157.404 323.922C159.613 316.694 162.007 313.649 164.182 310.837C166.357 308.024 169.591 300.25 170.923 299.278C172.255 298.306 170.06 282.907 168.462 280.563C166.864 278.219 161.762 280.563 161.762 280.563V290.407C158.621 296.5 153.045 286.657 153.045 286.657L153.066 273.844C153.066 273.844 147.56 277.75 146.058 279.521C144.556 281.291 142.872 286.188 142.403 289.469C141.935 292.75 144.122 307.75 143.653 309.157C143.185 310.563 117.794 354.419 117.325 357.7C116.856 360.982 103.263 387.438 103.263 387.438L135.1 381.989C135.539 392.057 135.841 401.479 135.841 402.672L247.872 386.032C247.872 386.032 247.872 386.032 248.341 382.75C248.366 382.578 248.402 382.401 248.441 382.223C254.576 389.168 260.417 395.407 261.603 395.407C264.278 395.407 271.688 386.032 271.688 386.032C271.778 382.282 274.4 365.669 273.931 357.7Z" fill="#F9DBBD"/>
<path d="M189.852 263.184H208.558C208.558 263.184 219.106 269.284 220.438 270.638C221.771 271.992 231.695 278.002 232.548 283.919C233.401 289.835 228.791 295.438 231.175 304.552C233.558 313.666 233.546 317.357 228.539 319.119C223.532 320.88 222.189 321.133 220.438 323.963C218.688 326.793 217.205 328.875 216.837 330.317C216.47 331.759 211.285 337.666 211.285 337.666C211.285 337.666 209.811 337.275 206.355 337.666C202.899 338.057 203.308 332.709 199.986 333.842C196.666 334.975 197.675 333.589 193.647 333.842C189.62 334.094 190.186 332.614 186.363 333.842C182.54 335.069 184.709 339.128 182.54 335.069C180.37 331.011 176.406 331.011 176.406 328.368C176.406 325.725 176.846 329.17 176.406 324.585C175.966 320 176.406 319.559 176.406 316.036C176.406 312.513 176.21 304.553 176.21 304.553C176.21 304.553 178.817 303.366 176.21 300.436C173.604 297.505 173.552 295.035 172.997 291.795C172.443 288.555 171.314 286.967 173.64 284.765C175.966 282.563 174.205 284.797 176.406 279.48C178.608 274.164 177.859 274.163 179.775 270.639C181.692 267.115 183.894 265.827 183.894 265.827L189.852 263.184Z" fill="#3A301F"/>
<rect x="315.138" y="15.0156" width="38.9496" height="25" rx="12.5" fill="#969696" fill-opacity="0.3"/>
<path d="M330.973 22.1592L326.721 31.6406H325.867L330.091 22.3848H324.431V21.6875H330.973V22.1592ZM332.621 32.4951H331.875L336.032 21.6875H336.77L332.621 32.4951ZM343.278 27.0332C342.986 27.4616 342.624 27.7943 342.191 28.0312C341.758 28.2637 341.289 28.3799 340.783 28.3799C340.218 28.3799 339.719 28.234 339.286 27.9424C338.853 27.6507 338.518 27.2474 338.281 26.7324C338.044 26.2174 337.925 25.6546 337.925 25.0439C337.925 24.3877 338.051 23.7907 338.301 23.2529C338.556 22.7152 338.91 22.2982 339.361 22.002C339.817 21.7012 340.341 21.5508 340.933 21.5508C341.931 21.5508 342.708 21.9017 343.264 22.6035C343.82 23.3008 344.098 24.292 344.098 25.5771V26.3154C344.098 28.111 343.715 29.46 342.95 30.3623C342.184 31.2646 341.015 31.7158 339.443 31.7158H339.292L339.299 31.0049H339.586C340.776 30.9867 341.681 30.6494 342.3 29.9932C342.92 29.3369 343.246 28.3503 343.278 27.0332ZM340.885 27.6758C341.432 27.6758 341.922 27.514 342.355 27.1904C342.792 26.8623 343.102 26.4385 343.285 25.9189V25.4473C343.285 24.4355 343.073 23.6517 342.649 23.0957C342.23 22.5352 341.662 22.2549 340.947 22.2549C340.3 22.2549 339.769 22.5169 339.354 23.041C338.939 23.5605 338.732 24.2168 338.732 25.0098C338.732 25.7708 338.93 26.4066 339.327 26.917C339.728 27.4229 340.247 27.6758 340.885 27.6758Z" fill="black"/>
<path d="M62.7744 91.8086H51.5957V126.003H62.7744V91.8086Z" fill="#0C0C0C"/>
<path d="M82.8506 122.18C76.1763 110.631 69.5116 99.0795 62.8436 87.5276C62.3083 86.6015 61.7873 85.6647 61.2322 84.75C60.0174 82.7489 57.9766 81.7853 55.8505 82.2364C54.2402 82.5787 53.1292 83.5963 52.3229 84.9927C47.4744 93.3949 42.6229 101.796 37.7718 110.197C35.4192 114.273 33.0589 118.344 30.7177 122.427C29.2067 125.061 29.9041 128.025 32.3391 129.424C33.2957 129.975 34.3383 130.147 35.428 130.146C42.5486 130.141 49.6689 130.145 56.7895 130.145C58.084 130.145 59.3788 130.145 60.6733 130.145C66.6105 130.142 72.548 130.153 78.4859 130.137C81.2903 130.13 83.3587 128.464 83.7293 125.944C83.9297 124.584 83.5289 123.354 82.8506 122.18ZM59.916 91.9629L58.9829 114.305H54.8354L53.9542 91.9629H59.916ZM56.9354 124.258C55.1031 124.258 53.6182 122.772 53.6182 120.94C53.6182 119.108 55.1035 117.623 56.9354 117.623C58.7671 117.623 60.2531 119.108 60.2531 120.94C60.2531 122.772 58.7678 124.258 56.9354 124.258Z" fill="#070707"/>
<path d="M80.4089 121.049C74.3615 110.585 68.3225 100.118 62.2809 89.6511C61.7956 88.8129 61.3235 87.9629 60.821 87.1346C59.7202 85.3214 57.8713 84.4482 55.9448 84.857C54.4856 85.167 53.479 86.0897 52.7485 87.3544C48.3547 94.9681 43.9591 102.58 39.5635 110.192C37.4319 113.885 35.2937 117.574 33.172 121.273C31.8025 123.66 32.4348 126.346 34.6411 127.614C35.5076 128.113 36.4525 128.268 37.44 128.267C43.8915 128.262 50.3434 128.266 56.7956 128.266C57.9684 128.266 59.1419 128.266 60.3147 128.266C65.6945 128.264 71.0747 128.274 76.4548 128.259C78.996 128.252 80.8699 126.743 81.2056 124.46C81.3868 123.228 81.024 122.113 80.4089 121.049ZM59.6283 93.6695L58.7827 113.913H55.025L54.2265 93.6695H59.6283ZM56.9272 122.932C55.2669 122.932 53.9209 121.586 53.9209 119.926C53.9209 118.266 55.2669 116.92 56.9272 116.92C58.5871 116.92 59.9331 118.266 59.9331 119.926C59.9331 121.586 58.5875 122.932 56.9272 122.932Z" fill="#F9E132"/>
</g>
<defs>
<linearGradient id="paint0_linear" x1="170.923" y1="414.314" x2="170.923" y2="-4.76167" gradientUnits="userSpaceOnUse">
<stop offset="0.4692" stop-color="white"/>
<stop offset="0.5669" stop-color="#C1F0FF"/>
<stop offset="0.6844" stop-color="#7DE0FF"/>
<stop offset="0.7908" stop-color="#47D4FF"/>
<stop offset="0.8821" stop-color="#20CBFF"/>
<stop offset="0.9549" stop-color="#09C5FF"/>
<stop offset="1" stop-color="#00C3FF"/>
</linearGradient>
<clipPath id="clip0">
<rect width="375" height="375" fill="white" transform="translate(0.137695 0.015625)"/>
</clipPath>
</defs>
</svg>
