<svg width="376" height="376" viewBox="0 0 376 376" fill="none" xmlns="http://www.w3.org/2000/svg">
<g clip-path="url(#clip0)">
<path d="M0.137695 0.015625H375.138L375.598 374.623H0.598008L0.137695 0.015625Z" fill="url(#paint0_linear)"/>
<path d="M349.833 339.838C349.943 339.651 349.637 339.137 349.576 339.056C349.533 339.006 349.472 338.992 349.401 339.004C349.272 339.025 349.104 339.127 348.968 339.228C348.755 339.348 340.186 342.508 335.066 344.393C332.778 345.235 330.974 345.9 330.687 346.01C330.272 346.167 330.024 346.362 329.948 346.582C329.888 346.759 329.964 346.886 329.968 346.891C330.185 347.449 330.368 347.414 330.674 347.296C330.726 347.278 330.782 347.257 330.846 347.238C331.229 347.122 346.399 341.995 347.045 341.778C347.254 341.692 347.838 341.495 348.07 341.605C348.336 341.731 348.738 342.466 348.895 342.829C349.641 344.56 350.002 345.839 349.803 346.015C349.739 346.071 349.486 346.168 348.504 345.869C347.946 345.699 347.372 345.46 347.235 345.389C347.21 345.374 344.379 343.992 343.83 344.174C343.78 344.191 343.742 344.222 343.723 344.263C343.537 344.654 344.018 345.304 344.572 346.056L344.718 346.252C345.172 346.872 345.733 347.53 345.958 347.786C345.514 347.784 344.242 347.78 344.05 347.794C344.033 347.797 344.003 347.801 343.971 347.804C343.846 347.824 343.637 347.879 343.518 348.033C343.442 348.131 343.417 348.252 343.443 348.391C343.493 348.653 343.913 348.989 344.357 349.346C344.43 349.407 344.503 349.467 344.575 349.526C344.555 349.538 344.536 349.555 344.513 349.567C344.004 349.923 343.307 350.411 343.267 350.809C343.257 350.911 343.286 351.001 343.359 351.076C343.689 351.426 344.824 351.074 346.923 349.972C348.495 349.145 350.668 347.603 350.69 347.589C351.159 347.256 351.805 346.375 351.703 345.541C351.602 344.748 349.989 340.335 349.814 339.858C349.817 339.849 349.823 339.843 349.833 339.838Z" fill="#727272"/>
<path d="M331.109 346.688C331.135 346.634 331.137 346.573 331.118 346.515C331.079 346.399 330.952 346.336 330.828 346.379C330.772 346.4 330.726 346.441 330.701 346.495C330.675 346.549 330.674 346.611 330.692 346.668C330.729 346.77 330.836 346.831 330.941 346.814C330.955 346.812 330.97 346.809 330.983 346.804C331.04 346.784 331.086 346.743 331.109 346.688Z" fill="#727272"/>
<path d="M351.573 345.553C351.482 344.807 349.956 340.62 349.712 339.956C349.642 340.006 349.557 340.039 349.478 340.043C349.381 340.052 349.298 340.016 349.245 339.95C349.172 339.857 349.083 339.699 349.021 339.58L349.011 339.61L332.291 345.558C331.456 345.866 330.888 346.075 330.738 346.133C330.276 346.31 330.126 346.495 330.082 346.617C330.041 346.733 330.085 346.812 330.092 346.827C330.278 347.296 330.373 347.26 330.629 347.163C330.684 347.143 330.741 347.121 330.807 347.101C330.896 347.074 331.794 346.775 333.127 346.327C333.315 345.833 333.896 345.634 333.92 345.623C334.459 345.421 347.156 340.66 348.464 341.119C348.81 341.24 349.22 342.217 349.265 342.325C349.304 342.417 350.271 344.597 350.442 345.446C350.689 346.688 349.235 347.585 348.649 347.82C348.151 348.019 346.198 347.968 346.119 347.982L346.117 347.982C346.051 347.992 344.286 347.941 344.064 347.958C343.913 347.971 343.715 347.991 343.625 348.114C343.574 348.182 343.556 348.263 343.576 348.363C343.616 348.575 344.053 348.927 344.44 349.237C344.698 349.448 344.944 349.646 345.1 349.816C345.303 350.042 345.378 350.196 345.337 350.3C345.311 350.363 345.25 350.388 345.218 350.388L345.209 350.249C345.21 350.249 345.238 350.178 344.997 349.909C344.919 349.817 344.808 349.72 344.683 349.613C344.651 349.635 344.622 349.656 344.589 349.679C344.157 349.982 343.435 350.487 343.401 350.822C343.393 350.884 343.414 350.936 343.456 350.982C343.643 351.181 344.387 351.146 346.855 349.847C347.822 349.339 349.021 348.559 349.799 348.034C348.383 348.337 345.376 348.274 344.319 348.252C344.12 348.248 343.964 348.244 343.941 348.246L343.931 348.178L343.908 348.112C343.911 348.11 343.913 348.11 343.921 348.109C343.944 348.105 344.006 348.108 344.321 348.113C345.49 348.14 349.042 348.215 350.154 347.792C350.43 347.599 350.603 347.477 350.609 347.473C350.991 347.204 351.664 346.363 351.573 345.553ZM331.235 346.746C331.194 346.834 331.121 346.9 331.03 346.932C330.838 347 330.631 346.899 330.565 346.712C330.533 346.621 330.54 346.522 330.579 346.435C330.62 346.347 330.692 346.28 330.784 346.248C330.803 346.241 330.828 346.235 330.851 346.231C331.022 346.204 331.19 346.303 331.249 346.467C331.281 346.56 331.277 346.659 331.235 346.746Z" fill="#727272"/>
<path d="M333.302 346.263C337.824 344.742 346.875 341.684 346.994 341.643C347.074 341.613 347.796 341.321 348.125 341.477C348.467 341.639 348.894 342.484 349.017 342.772C349.496 343.886 350.247 345.8 349.888 346.113C349.45 346.495 347.329 345.592 347.166 345.504C346.843 345.333 344.304 344.149 343.868 344.298C343.859 344.301 343.844 344.306 343.841 344.313C343.69 344.632 344.169 345.283 344.677 345.97L344.823 346.166C345.348 346.88 346.015 347.645 346.139 347.783C346.387 347.791 348.151 347.839 348.588 347.661C349.106 347.456 350.531 346.601 350.303 345.46C350.134 344.622 349.146 342.398 349.134 342.371C349.017 342.089 348.656 341.333 348.415 341.247C347.151 340.802 334.094 345.702 333.96 345.752C333.956 345.753 333.508 345.911 333.302 346.263Z" fill="#727272"/>
<path d="M348.895 339.501L348.941 339.383C348.493 339.567 346.587 340.279 343.346 341.479L348.895 339.501Z" fill="#727272"/>
<path d="M349.707 339.768C349.756 339.684 349.565 339.274 349.46 339.142C349.443 339.118 349.297 339.151 349.045 339.336L349.066 339.381C349.068 339.387 349.232 339.723 349.345 339.867C349.371 339.899 349.413 339.913 349.461 339.909C349.563 339.903 349.671 339.831 349.707 339.768Z" fill="#727272"/>
<path d="M349.827 339.838C349.937 339.651 349.632 339.136 349.571 339.057C349.528 339.006 349.466 338.992 349.394 339.004C349.266 339.024 349.099 339.127 348.963 339.228C348.749 339.347 340.179 342.508 335.061 344.391C332.773 345.235 330.968 345.9 330.681 346.009C330.267 346.167 330.018 346.361 329.943 346.581C329.883 346.757 329.959 346.885 329.962 346.89C330.18 347.448 330.363 347.412 330.669 347.294C330.721 347.278 330.777 347.256 330.84 347.236C331.224 347.121 346.393 341.993 347.039 341.777C347.249 341.691 347.833 341.494 348.065 341.604C348.331 341.73 348.733 342.464 348.89 342.828C349.636 344.56 349.998 345.838 349.799 346.016C349.733 346.071 349.482 346.169 348.499 345.869C347.941 345.699 347.367 345.461 347.23 345.389C347.205 345.374 344.377 343.993 343.826 344.175C343.775 344.189 343.737 344.223 343.717 344.263C343.532 344.654 344.013 345.306 344.568 346.057L344.712 346.255C345.169 346.877 345.728 347.535 345.954 347.794C346.038 347.795 346.095 347.803 346.107 347.804L346.109 347.954C346.109 347.954 346.111 347.984 346.11 347.984L346.112 347.984C346.192 347.971 348.147 348.021 348.642 347.821C349.223 347.589 350.679 346.675 350.432 345.432C350.263 344.582 349.298 342.413 349.257 342.319C349.212 342.211 348.803 341.236 348.456 341.115C347.149 340.658 334.451 345.422 333.913 345.624C333.889 345.634 333.308 345.835 333.12 346.328C331.787 346.777 330.888 347.08 330.8 347.103C330.736 347.122 330.677 347.147 330.621 347.166C330.364 347.263 330.268 347.299 330.084 346.829C330.077 346.815 330.034 346.736 330.074 346.621C330.12 346.496 330.27 346.312 330.731 346.136C330.88 346.079 331.447 345.87 332.283 345.561L349.003 339.614L349.012 339.583C349.076 339.701 349.163 339.859 349.237 339.953C349.29 340.02 349.372 340.053 349.469 340.046C349.549 340.04 349.633 340.008 349.703 339.959C349.685 339.905 349.671 339.872 349.669 339.869L349.798 339.82C349.801 339.828 349.804 339.84 349.813 339.855C349.817 339.85 349.823 339.844 349.827 339.838ZM333.298 346.267C333.504 345.913 333.952 345.755 333.958 345.753C334.091 345.704 347.148 340.802 348.412 341.247C348.657 341.332 349.015 342.089 349.13 342.372C349.143 342.398 350.133 344.624 350.299 345.46C350.525 346.603 349.101 347.454 348.586 347.662C348.149 347.836 346.385 347.79 346.135 347.784C346.013 347.646 345.346 346.882 344.821 346.167L344.675 345.971C344.167 345.282 343.689 344.633 343.838 344.314C343.842 344.308 343.856 344.301 343.866 344.3C344.305 344.151 346.844 345.334 347.165 345.504C347.328 345.592 349.448 346.492 349.886 346.115C350.246 345.801 349.495 343.886 349.015 342.773C348.892 342.487 348.465 341.639 348.123 341.478C347.796 341.321 347.074 341.612 346.992 341.644C346.875 341.684 337.821 344.744 333.298 346.267ZM348.942 339.385L348.896 339.504L343.345 341.479C346.589 340.279 348.494 339.567 348.942 339.385ZM349.71 339.767C349.674 339.829 349.566 339.902 349.461 339.908C349.411 339.913 349.372 339.899 349.346 339.865C349.232 339.723 349.069 339.387 349.068 339.38L349.047 339.335C349.296 339.152 349.444 339.117 349.463 339.141C349.564 339.271 349.758 339.683 349.71 339.767Z" fill="#727272"/>
<path d="M344.68 349.613C344.647 349.582 344.608 349.551 344.571 349.524C344.55 349.535 344.531 349.553 344.508 349.566C343.999 349.922 343.302 350.409 343.262 350.806C343.252 350.908 343.281 350.998 343.354 351.074C343.686 351.424 344.819 351.073 346.919 349.97C348.49 349.144 350.664 347.602 350.685 347.587C351.154 347.254 351.8 346.372 351.699 345.54C351.599 344.747 349.983 340.332 349.807 339.855C349.78 339.898 349.744 339.932 349.7 339.961C349.943 340.625 351.468 344.813 351.562 345.558C351.66 346.365 350.987 347.208 350.605 347.477C350.601 347.481 350.427 347.604 350.149 347.797C350.151 347.797 350.156 347.793 350.158 347.793L350.207 347.92C350.094 347.964 349.956 348 349.797 348.036C349.016 348.562 347.818 349.341 346.853 349.85C344.384 351.148 343.641 351.182 343.452 350.982C343.407 350.935 343.392 350.884 343.399 350.822C343.432 350.484 344.154 349.979 344.586 349.679C344.621 349.654 344.651 349.634 344.68 349.613Z" fill="#727272"/>
<path d="M349.813 339.856C349.807 339.841 349.804 339.826 349.801 339.82L349.672 339.869C349.673 339.874 349.687 339.907 349.706 339.96C349.748 339.931 349.786 339.896 349.813 339.856Z" fill="#727272"/>
<path d="M346.053 347.896C346.052 347.896 346.014 347.854 345.953 347.784C345.508 347.782 344.235 347.776 344.043 347.792C344.027 347.794 343.997 347.797 343.964 347.802C343.841 347.822 343.631 347.876 343.513 348.03C343.437 348.128 343.411 348.25 343.438 348.389C343.485 348.651 343.907 348.986 344.351 349.345C344.423 349.403 344.497 349.465 344.569 349.524C344.604 349.501 344.638 349.476 344.667 349.455L344.746 349.566C344.726 349.58 344.703 349.6 344.681 349.613C344.806 349.72 344.913 349.819 344.996 349.91C345.236 350.175 345.207 350.249 345.207 350.249L345.216 350.388C345.247 350.386 345.309 350.363 345.335 350.3C345.376 350.195 345.301 350.043 345.098 349.816C344.945 349.646 344.698 349.448 344.437 349.237C344.052 348.926 343.616 348.574 343.574 348.364C343.556 348.263 343.57 348.182 343.624 348.115C343.714 347.991 343.907 347.941 344.057 347.929C344.276 347.912 346.036 347.921 346.105 347.922L346.075 347.919L346.053 347.896Z" fill="#727272"/>
<path d="M346.106 347.781C346.095 347.781 346.039 347.778 345.953 347.78C346.018 347.849 346.053 347.891 346.054 347.893L346.074 347.916L346.103 347.919C346.104 347.919 346.107 347.919 346.107 347.919L346.106 347.781Z" fill="#727272"/>
<path d="M344.669 349.455C344.638 349.476 344.604 349.501 344.572 349.522C344.609 349.552 344.647 349.583 344.681 349.613C344.702 349.599 344.727 349.582 344.747 349.566L344.669 349.455Z" fill="#727272"/>
<path d="M349.797 348.037C349.927 347.947 350.048 347.866 350.151 347.795C349.04 348.215 345.488 348.14 344.319 348.116C344.004 348.107 343.942 348.107 343.919 348.111C343.913 348.111 343.91 348.114 343.907 348.116L343.93 348.18L343.94 348.248C343.963 348.246 344.12 348.253 344.317 348.255C345.375 348.275 348.381 348.339 349.797 348.037Z" fill="#727272"/>
<path d="M350.156 347.792C350.051 347.865 349.931 347.944 349.799 348.035C349.957 348.003 350.097 347.966 350.21 347.919L350.161 347.791C350.158 347.791 350.155 347.792 350.156 347.792Z" fill="#727272"/>
<path d="M331.236 346.747C331.277 346.658 331.283 346.561 331.249 346.467C331.189 346.304 331.023 346.204 330.85 346.231C330.828 346.235 330.805 346.241 330.783 346.248C330.692 346.281 330.618 346.347 330.578 346.434C330.536 346.523 330.531 346.62 330.564 346.712C330.631 346.898 330.838 347 331.029 346.931C331.121 346.9 331.194 346.834 331.236 346.747ZM331.113 346.687C331.088 346.74 331.042 346.783 330.985 346.802C330.973 346.808 330.956 346.812 330.944 346.812C330.836 346.83 330.731 346.768 330.694 346.666C330.674 346.609 330.677 346.548 330.703 346.493C330.731 346.44 330.773 346.398 330.833 346.378C330.952 346.335 331.079 346.399 331.12 346.514C331.14 346.571 331.137 346.633 331.113 346.687Z" fill="#727272"/>
<path d="M257.38 345.321C257.245 344.237 255.671 344.666 255.767 345.354C255.89 346.26 257.457 345.931 257.38 345.321Z" fill="#727272"/>
<path d="M255.222 345.262C255.086 344.178 253.513 344.608 253.61 345.295C253.731 346.203 255.298 345.873 255.222 345.262Z" fill="#727272"/>
<path d="M259.581 345.188C259.444 344.104 257.872 344.533 257.969 345.224C258.09 346.127 259.657 345.798 259.581 345.188Z" fill="#727272"/>
<path d="M260.7 345.263C260.989 344.817 259.377 344.861 259.201 345.146C258.971 345.517 260.538 345.514 260.7 345.263Z" fill="#727272"/>
<path d="M258.313 345.359C258.604 344.915 256.992 344.953 256.814 345.232C256.582 345.608 258.15 345.611 258.313 345.359Z" fill="#727272"/>
<path d="M255.926 345.453C256.217 345.01 254.607 345.045 254.43 345.328C254.194 345.7 255.763 345.702 255.926 345.453Z" fill="#727272"/>
<path d="M246.302 345.159C246.283 344.066 244.671 344.329 244.691 345.021C244.719 345.932 246.313 345.773 246.302 345.159Z" fill="#727272"/>
<path d="M244.33 345.037C244.262 343.947 242.662 344.278 242.717 344.972C242.783 345.881 244.368 345.651 244.33 345.037Z" fill="#727272"/>
<path d="M248.502 345.266C248.484 344.173 246.875 344.433 246.894 345.127C246.92 346.039 248.512 345.879 248.502 345.266Z" fill="#727272"/>
<path d="M250.702 345.372C250.685 344.279 249.074 344.542 249.093 345.234C249.119 346.145 250.712 345.987 250.702 345.372Z" fill="#727272"/>
<path d="M253.146 345.354C253.128 344.262 251.518 344.524 251.537 345.217C251.563 346.127 253.156 345.968 253.146 345.354Z" fill="#727272"/>
<path d="M254.084 345.387C254.359 344.932 252.748 345.026 252.581 345.315C252.362 345.695 253.93 345.644 254.084 345.387Z" fill="#727272"/>
<path d="M251.884 345.281C252.162 344.823 250.548 344.92 250.381 345.21C250.162 345.589 251.729 345.538 251.884 345.281Z" fill="#727272"/>
<path d="M249.624 345.359C249.899 344.901 248.286 344.998 248.121 345.289C247.901 345.667 249.469 345.615 249.624 345.359Z" fill="#727272"/>
<path d="M247.224 345.298C247.561 344.887 245.954 344.75 245.747 345.015C245.476 345.358 247.035 345.529 247.224 345.298Z" fill="#727272"/>
<path d="M245.021 345.271C245.339 344.845 243.727 344.78 243.532 345.052C243.277 345.408 244.843 345.51 245.021 345.271Z" fill="#727272"/>
<path d="M235.331 345.138C235.284 344.047 233.681 344.347 233.719 345.041C233.767 345.951 235.357 345.752 235.331 345.138Z" fill="#727272"/>
<path d="M233.183 344.904C233.137 343.812 231.534 344.113 231.572 344.806C231.62 345.717 233.209 345.518 233.183 344.904Z" fill="#727272"/>
<path d="M237.533 345.189C237.484 344.098 235.882 344.398 235.921 345.092C235.97 346.003 237.558 345.803 237.533 345.189Z" fill="#727272"/>
<path d="M239.735 345.241C239.689 344.151 238.086 344.45 238.124 345.143C238.172 346.054 239.761 345.855 239.735 345.241Z" fill="#727272"/>
<path d="M242.179 345.162C242.132 344.07 240.529 344.371 240.567 345.065C240.615 345.975 242.203 345.776 242.179 345.162Z" fill="#727272"/>
<path d="M243.116 345.17C243.379 344.709 241.775 344.843 241.615 345.136C241.402 345.522 242.967 345.429 243.116 345.17Z" fill="#727272"/>
<path d="M240.913 345.119C241.177 344.66 239.569 344.795 239.409 345.089C239.2 345.47 240.765 345.378 240.913 345.119Z" fill="#727272"/>
<path d="M238.655 345.253C238.919 344.795 237.311 344.926 237.152 345.22C236.942 345.604 238.508 345.513 238.655 345.253Z" fill="#727272"/>
<path d="M236.256 345.255C236.583 344.835 234.975 344.738 234.772 345.009C234.51 345.358 236.072 345.491 236.256 345.255Z" fill="#727272"/>
<path d="M233.869 345.148C234.195 344.728 232.584 344.631 232.385 344.901C232.123 345.252 233.685 345.385 233.869 345.148Z" fill="#727272"/>
<path d="M286.111 344.745C285.913 343.67 284.367 344.192 284.499 344.875C284.677 345.768 286.222 345.349 286.111 344.745Z" fill="#727272"/>
<path d="M283.952 344.812C283.754 343.737 282.209 344.257 282.343 344.939C282.518 345.837 284.064 345.416 283.952 344.812Z" fill="#727272"/>
<path d="M288.299 344.643C288.1 343.569 286.555 344.09 286.687 344.772C286.866 345.667 288.41 345.247 288.299 344.643Z" fill="#727272"/>
<path d="M289.36 344.664C289.648 344.217 288.036 344.262 287.861 344.546C287.63 344.918 289.198 344.914 289.36 344.664Z" fill="#727272"/>
<path d="M287.044 344.729C287.307 344.27 285.7 344.4 285.539 344.692C285.329 345.077 286.895 344.989 287.044 344.729Z" fill="#727272"/>
<path d="M284.664 344.96C284.928 344.501 283.321 344.629 283.161 344.923C282.95 345.307 284.516 345.219 284.664 344.96Z" fill="#727272"/>
<path d="M275.041 345.226C274.959 344.135 273.367 344.488 273.427 345.177C273.505 346.088 275.087 345.838 275.041 345.226Z" fill="#727272"/>
<path d="M272.888 345.061C272.806 343.971 271.214 344.324 271.274 345.016C271.351 345.924 272.933 345.673 272.888 345.061Z" fill="#727272"/>
<path d="M277.243 345.203C277.162 344.114 275.57 344.467 275.63 345.156C275.708 346.067 277.289 345.816 277.243 345.203Z" fill="#727272"/>
<path d="M279.446 345.182C279.362 344.093 277.773 344.445 277.833 345.134C277.91 346.046 279.492 345.796 279.446 345.182Z" fill="#727272"/>
<path d="M281.885 345.023C281.801 343.937 280.212 344.289 280.272 344.979C280.349 345.886 281.931 345.636 281.885 345.023Z" fill="#727272"/>
<path d="M282.823 345.002C283.067 344.532 281.465 344.719 281.315 345.017C281.122 345.409 282.684 345.266 282.823 345.002Z" fill="#727272"/>
<path d="M280.62 345.023C280.865 344.554 279.262 344.74 279.115 345.039C278.919 345.431 280.48 345.288 280.62 345.023Z" fill="#727272"/>
<path d="M278.369 345.233C278.617 344.762 277.014 344.95 276.865 345.248C276.667 345.64 278.229 345.497 278.369 345.233Z" fill="#727272"/>
<path d="M275.969 345.311C276.282 344.881 274.67 344.838 274.475 345.112C274.228 345.471 275.794 345.553 275.969 345.311Z" fill="#727272"/>
<path d="M273.581 345.284C273.894 344.854 272.282 344.807 272.089 345.081C271.839 345.445 273.406 345.526 273.581 345.284Z" fill="#727272"/>
<path d="M263.889 345.277C263.828 344.186 262.23 344.506 262.277 345.201C262.336 346.11 263.922 345.891 263.889 345.277Z" fill="#727272"/>
<path d="M261.739 345.256C261.679 344.165 260.08 344.485 260.127 345.179C260.186 346.088 261.772 345.869 261.739 345.256Z" fill="#727272"/>
<path d="M266.092 345.299C266.032 344.211 264.433 344.528 264.48 345.226C264.54 346.132 266.124 345.912 266.092 345.299Z" fill="#727272"/>
<path d="M268.294 345.321C268.234 344.229 266.635 344.549 266.682 345.244C266.742 346.153 268.328 345.935 268.294 345.321Z" fill="#727272"/>
<path d="M270.736 345.212C270.676 344.119 269.078 344.44 269.125 345.135C269.184 346.044 270.77 345.825 270.736 345.212Z" fill="#727272"/>
<path d="M271.673 345.208C271.931 344.744 270.325 344.899 270.17 345.195C269.965 345.582 271.53 345.47 271.673 345.208Z" fill="#727272"/>
<path d="M269.471 345.186C269.728 344.72 268.123 344.876 267.967 345.171C267.763 345.559 269.327 345.447 269.471 345.186Z" fill="#727272"/>
<path d="M267.215 345.35C267.476 344.885 265.867 345.039 265.711 345.335C265.507 345.723 267.071 345.612 267.215 345.35Z" fill="#727272"/>
<path d="M264.816 345.38C265.137 344.956 263.522 344.88 263.325 345.151C263.071 345.505 264.635 345.619 264.816 345.38Z" fill="#727272"/>
<path d="M262.897 345.305C263.219 344.882 261.605 344.806 261.41 345.076C261.152 345.43 262.716 345.544 262.897 345.305Z" fill="#727272"/>
<path d="M224.239 344.612C224.245 343.519 222.63 343.744 222.634 344.443C222.64 345.35 224.236 345.226 224.239 344.612Z" fill="#727272"/>
<path d="M222.106 344.277C222.112 343.184 220.494 343.408 220.501 344.104C220.507 345.016 222.102 344.891 222.106 344.277Z" fill="#727272"/>
<path d="M226.436 344.765C226.443 343.672 224.824 343.897 224.828 344.593C224.838 345.504 226.434 345.379 226.436 344.765Z" fill="#727272"/>
<path d="M228.635 344.92C228.64 343.827 227.024 344.051 227.03 344.747C227.035 345.658 228.632 345.535 228.635 344.92Z" fill="#727272"/>
<path d="M231.079 344.955C231.084 343.862 229.469 344.086 229.474 344.783C229.479 345.694 231.076 345.569 231.079 344.955Z" fill="#727272"/>
<path d="M232.014 345.007C232.299 344.559 230.687 344.618 230.514 344.901C230.287 345.279 231.854 345.26 232.014 345.007Z" fill="#727272"/>
<path d="M229.817 344.854C230.1 344.405 228.489 344.464 228.317 344.746C228.09 345.124 229.658 345.104 229.817 344.854Z" fill="#727272"/>
<path d="M227.556 344.883C227.839 344.434 226.229 344.492 226.056 344.778C225.829 345.153 227.396 345.134 227.556 344.883Z" fill="#727272"/>
<path d="M225.159 344.771C225.505 344.37 223.9 344.195 223.689 344.454C223.41 344.792 224.965 344.998 225.159 344.771Z" fill="#727272"/>
<path d="M222.78 344.554C223.125 344.153 221.521 343.979 221.309 344.237C221.03 344.575 222.586 344.781 222.78 344.554Z" fill="#727272"/>
<path d="M213.213 343.765C213.236 342.673 211.618 342.872 211.611 343.568C211.603 344.479 213.201 344.379 213.213 343.765Z" fill="#727272"/>
<path d="M211.085 343.688C211.108 342.595 209.489 342.794 209.483 343.49C209.475 344.402 211.073 344.302 211.085 343.688Z" fill="#727272"/>
<path d="M215.409 343.953C215.431 342.861 213.813 343.06 213.806 343.753C213.798 344.667 215.396 344.568 215.409 343.953Z" fill="#727272"/>
<path d="M217.603 344.143C217.626 343.05 216.011 343.249 216.001 343.945C215.993 344.856 217.591 344.757 217.603 344.143Z" fill="#727272"/>
<path d="M220.047 344.215C220.069 343.122 218.454 343.322 218.444 344.017C218.435 344.929 220.034 344.83 220.047 344.215Z" fill="#727272"/>
<path d="M220.983 344.284C221.274 343.842 219.664 343.874 219.484 344.157C219.251 344.527 220.818 344.533 220.983 344.284Z" fill="#727272"/>
<path d="M218.787 344.095C219.079 343.651 217.466 343.685 217.289 343.967C217.055 344.339 218.624 344.344 218.787 344.095Z" fill="#727272"/>
<path d="M216.526 344.089C216.818 343.645 215.205 343.679 215.028 343.962C214.794 344.332 216.362 344.339 216.526 344.089Z" fill="#727272"/>
<path d="M214.131 343.938C214.484 343.538 212.881 343.342 212.666 343.596C212.381 343.932 213.933 344.163 214.131 343.938Z" fill="#727272"/>
<path d="M212.184 343.834C212.475 343.393 210.862 343.424 210.685 343.707C210.452 344.079 212.021 344.083 212.184 343.834Z" fill="#727272"/>
<path d="M202.029 342.98C202.075 341.888 200.452 342.052 200.432 342.749C200.404 343.66 202.004 343.594 202.029 342.98Z" fill="#727272"/>
<path d="M204.22 343.212C204.265 342.12 202.643 342.285 202.622 342.981C202.595 343.892 204.195 343.826 204.22 343.212Z" fill="#727272"/>
<path d="M206.41 343.447C206.456 342.355 204.833 342.519 204.813 343.215C204.785 344.126 206.385 344.06 206.41 343.447Z" fill="#727272"/>
<path d="M208.851 343.57C208.897 342.477 207.275 342.642 207.254 343.34C207.226 344.25 208.825 344.184 208.851 343.57Z" fill="#727272"/>
<path d="M209.785 343.657C210.087 343.218 208.473 343.218 208.29 343.498C208.05 343.864 209.617 343.902 209.785 343.657Z" fill="#727272"/>
<path d="M207.594 343.424C207.895 342.986 206.282 342.986 206.099 343.265C205.858 343.631 207.426 343.67 207.594 343.424Z" fill="#727272"/>
<path d="M205.334 343.371C205.635 342.931 204.022 342.931 203.839 343.211C203.597 343.579 205.165 343.617 205.334 343.371Z" fill="#727272"/>
<path d="M202.942 343.172C203.303 342.781 201.702 342.552 201.484 342.801C201.194 343.131 202.74 343.392 202.942 343.172Z" fill="#727272"/>
<path d="M195.318 342.564C195.339 343.658 196.949 343.395 196.929 342.697C196.899 341.786 195.305 341.95 195.318 342.564Z" fill="#727272"/>
<path d="M197.993 342.727C198.014 343.821 199.624 343.557 199.605 342.86C199.574 341.95 197.981 342.114 197.993 342.727Z" fill="#727272"/>
<path d="M193.116 342.465C193.14 343.558 194.747 343.295 194.727 342.597C194.697 341.687 193.105 341.85 193.116 342.465Z" fill="#727272"/>
<path d="M190.915 342.365C190.937 343.458 192.546 343.195 192.524 342.499C192.496 341.587 190.904 341.75 190.915 342.365Z" fill="#727272"/>
<path d="M188.472 342.389C188.493 343.478 190.103 343.218 190.081 342.519C190.053 341.61 188.46 341.774 188.472 342.389Z" fill="#727272"/>
<path d="M189.735 342.459C189.461 342.914 191.073 342.816 191.238 342.527C191.456 342.146 189.889 342.202 189.735 342.459Z" fill="#727272"/>
<path d="M191.995 342.375C191.722 342.83 193.333 342.732 193.498 342.443C193.716 342.062 192.149 342.118 191.995 342.375Z" fill="#727272"/>
<path d="M194.394 342.428C194.057 342.841 195.665 342.969 195.87 342.71C196.142 342.363 194.582 342.195 194.394 342.428Z" fill="#727272"/>
<path d="M196.778 342.588C196.443 343 198.051 343.133 198.256 342.869C198.526 342.523 196.967 342.355 196.778 342.588Z" fill="#727272"/>
<path d="M199.382 342.723C199.047 343.135 200.654 343.263 200.86 343.003C201.131 342.659 199.571 342.49 199.382 342.723Z" fill="#727272"/>
<path d="M173.822 337.899C174.406 336.971 172.914 336.307 172.553 336.897C172.074 337.677 173.494 338.417 173.822 337.899Z" fill="#727272"/>
<path d="M171.9 336.477C172.657 335.686 171.332 334.739 170.856 335.247C170.232 335.91 171.474 336.921 171.9 336.477Z" fill="#727272"/>
<path d="M170.325 334.576C171.077 333.785 169.744 332.846 169.27 333.355C168.654 334.023 169.904 335.023 170.325 334.576Z" fill="#727272"/>
<path d="M168.753 332.769C169.71 332.242 168.727 330.94 168.122 331.283C167.329 331.732 168.215 333.066 168.753 332.769Z" fill="#727272"/>
<path d="M167.626 331.071C168.671 330.748 167.971 329.275 167.309 329.488C166.441 329.766 167.038 331.252 167.626 331.071Z" fill="#727272"/>
<path d="M166.878 329.135C167.911 328.78 167.167 327.328 166.512 327.563C165.653 327.869 166.297 329.335 166.878 329.135Z" fill="#727272"/>
<path d="M163.401 318.508C164.435 318.154 163.689 316.701 163.035 316.936C162.176 317.242 162.82 318.708 163.401 318.508Z" fill="#727272"/>
<path d="M163.014 316.383C164.048 316.028 163.303 314.576 162.649 314.811C161.79 315.117 162.433 316.583 163.014 316.383Z" fill="#727272"/>
<path d="M163.981 320.633C165.014 320.275 164.269 318.826 163.615 319.061C162.755 319.367 163.399 320.833 163.981 320.633Z" fill="#727272"/>
<path d="M164.56 322.76C165.593 322.404 164.848 320.953 164.195 321.188C163.335 321.493 163.979 322.959 164.56 322.76Z" fill="#727272"/>
<path d="M165.333 325.077C166.367 324.723 165.623 323.272 164.967 323.506C164.108 323.811 164.752 325.278 165.333 325.077Z" fill="#727272"/>
<path d="M165.912 327.204C166.946 326.848 166.2 325.397 165.546 325.631C164.687 325.937 165.331 327.403 165.912 327.204Z" fill="#727272"/>
<path d="M172.647 337.054C173.163 336.915 171.932 335.873 171.608 335.969C171.188 336.09 172.359 337.133 172.647 337.054Z" fill="#727272"/>
<path d="M174.946 338.488C175.425 338.257 174.023 337.457 173.726 337.609C173.335 337.808 174.678 338.618 174.946 338.488Z" fill="#727272"/>
<path d="M178.167 340.226C178.537 339.197 176.94 338.868 176.712 339.526C176.413 340.387 177.959 340.804 178.167 340.226Z" fill="#727272"/>
<path d="M175.984 339.254C176.552 338.321 175.055 337.681 174.697 338.279C174.231 339.063 175.663 339.78 175.984 339.254Z" fill="#727272"/>
<path d="M176.837 339.658C177.307 339.411 175.879 338.655 175.587 338.82C175.204 339.032 176.572 339.797 176.837 339.658Z" fill="#727272"/>
<path d="M179.392 340.559C179.81 340.23 178.268 339.749 178.011 339.964C177.672 340.243 179.159 340.744 179.392 340.559Z" fill="#727272"/>
<path d="M182.874 341.669C183.047 340.585 181.416 340.564 181.315 341.249C181.181 342.153 182.777 342.275 182.874 341.669Z" fill="#727272"/>
<path d="M180.548 341.12C180.933 340.094 179.34 339.743 179.103 340.4C178.791 341.257 180.332 341.695 180.548 341.12Z" fill="#727272"/>
<path d="M181.462 341.357C181.878 341.027 180.336 340.552 180.079 340.763C179.74 341.047 181.228 341.543 181.462 341.357Z" fill="#727272"/>
<path d="M184.14 341.768C184.49 341.366 182.886 341.185 182.673 341.441C182.391 341.779 183.945 341.993 184.14 341.768Z" fill="#727272"/>
<path d="M170.993 335.583C171.518 335.499 170.407 334.328 170.078 334.387C169.647 334.465 170.698 335.63 170.993 335.583Z" fill="#727272"/>
<path d="M169.382 333.666C169.913 333.695 169.079 332.316 168.747 332.303C168.308 332.286 169.084 333.649 169.382 333.666Z" fill="#727272"/>
<path d="M168.224 331.928C168.754 331.957 167.921 330.577 167.588 330.565C167.15 330.547 167.925 331.91 168.224 331.928Z" fill="#727272"/>
<path d="M167.33 330.037C167.848 330.158 167.262 328.656 166.934 328.586C166.505 328.496 167.039 329.969 167.33 330.037Z" fill="#727272"/>
<path d="M166.365 328.104C166.882 328.225 166.295 326.721 165.966 326.653C165.539 326.561 166.074 328.036 166.365 328.104Z" fill="#727272"/>
<path d="M165.591 325.98C166.109 326.101 165.522 324.601 165.195 324.529C164.766 324.438 165.301 325.912 165.591 325.98Z" fill="#727272"/>
<path d="M165.012 323.854C165.529 323.978 164.943 322.476 164.614 322.402C164.187 322.312 164.722 323.786 165.012 323.854Z" fill="#727272"/>
<path d="M164.238 321.73C164.756 321.85 164.169 320.347 163.842 320.275C163.413 320.188 163.948 321.662 164.238 321.73Z" fill="#727272"/>
<path d="M163.554 319.429C164.05 319.622 163.681 318.051 163.369 317.934C162.957 317.784 163.276 319.32 163.554 319.429Z" fill="#727272"/>
<path d="M162.974 317.11C163.471 317.305 163.102 315.733 162.789 315.618C162.378 315.466 162.696 317.002 162.974 317.11Z" fill="#727272"/>
<path d="M161.289 307.631C162.355 307.387 161.771 305.866 161.095 306.028C160.208 306.239 160.689 307.766 161.289 307.631Z" fill="#727272"/>
<path d="M161.133 305.477C162.199 305.233 161.615 303.709 160.938 303.874C160.053 304.087 160.534 305.613 161.133 305.477Z" fill="#727272"/>
<path d="M161.636 309.806C162.7 309.565 162.116 308.042 161.441 308.203C160.554 308.415 161.036 309.942 161.636 309.806Z" fill="#727272"/>
<path d="M161.983 311.982C163.048 311.738 162.464 310.215 161.788 310.38C160.901 310.591 161.383 312.118 161.983 311.982Z" fill="#727272"/>
<path d="M162.5 314.37C163.566 314.129 162.983 312.607 162.305 312.768C161.42 312.979 161.901 314.506 162.5 314.37Z" fill="#727272"/>
<path d="M162.66 315.295C163.161 315.471 162.74 313.914 162.422 313.809C162.006 313.673 162.379 315.196 162.66 315.295Z" fill="#727272"/>
<path d="M162.313 313.12C162.814 313.295 162.393 311.738 162.075 311.634C161.66 311.497 162.031 313.021 162.313 313.12Z" fill="#727272"/>
<path d="M161.774 310.923C162.275 311.099 161.855 309.546 161.537 309.438C161.12 309.301 161.492 310.825 161.774 310.923Z" fill="#727272"/>
<path d="M161.342 308.562C161.814 308.806 161.618 307.205 161.318 307.058C160.926 306.863 161.077 308.424 161.342 308.562Z" fill="#727272"/>
<path d="M161.015 306.195C161.487 306.441 161.292 304.839 160.992 304.691C160.599 304.496 160.75 306.058 161.015 306.195Z" fill="#727272"/>
<path d="M159.589 296.609C160.659 296.385 160.106 294.854 159.427 295C158.536 295.197 158.987 296.734 159.589 296.609Z" fill="#727272"/>
<path d="M159.476 294.451C160.547 294.231 159.994 292.697 159.313 292.846C158.423 293.039 158.874 294.576 159.476 294.451Z" fill="#727272"/>
<path d="M159.892 298.792C160.963 298.571 160.41 297.038 159.729 297.186C158.839 297.379 159.29 298.915 159.892 298.792Z" fill="#727272"/>
<path d="M160.196 300.974C161.267 300.753 160.713 299.219 160.033 299.368C159.142 299.561 159.594 301.097 160.196 300.974Z" fill="#727272"/>
<path d="M160.667 303.372C161.738 303.147 161.184 301.617 160.504 301.766C159.614 301.96 160.065 303.496 160.667 303.372Z" fill="#727272"/>
<path d="M160.808 304.298C161.306 304.484 160.915 302.921 160.6 302.808C160.187 302.664 160.528 304.194 160.808 304.298Z" fill="#727272"/>
<path d="M160.504 302.117C161.002 302.302 160.612 300.739 160.296 300.625C159.883 300.483 160.224 302.012 160.504 302.117Z" fill="#727272"/>
<path d="M160.009 299.91C160.507 300.096 160.117 298.531 159.802 298.417C159.388 298.276 159.729 299.806 160.009 299.91Z" fill="#727272"/>
<path d="M159.623 297.542C160.09 297.797 159.926 296.191 159.63 296.038C159.241 295.835 159.361 297.399 159.623 297.542Z" fill="#727272"/>
<path d="M159.344 295.169C159.81 295.423 159.647 293.818 159.351 293.665C158.962 293.462 159.081 295.025 159.344 295.169Z" fill="#727272"/>
<path d="M158.328 285.577C159.409 285.408 158.926 283.848 158.24 283.965C157.343 284.117 157.721 285.673 158.328 285.577Z" fill="#727272"/>
<path d="M158.318 283.419C159.397 283.248 158.915 281.69 158.23 281.807C157.332 281.958 157.711 283.514 158.318 283.419Z" fill="#727272"/>
<path d="M158.53 287.772C159.609 287.603 159.127 286.043 158.442 286.161C157.544 286.313 157.923 287.868 158.53 287.772Z" fill="#727272"/>
<path d="M158.731 289.966C159.812 289.8 159.33 288.237 158.644 288.354C157.745 288.506 158.124 290.062 158.731 289.966Z" fill="#727272"/>
<path d="M159.089 292.383C160.17 292.213 159.688 290.655 159.002 290.772C158.103 290.923 158.482 292.48 159.089 292.383Z" fill="#727272"/>
<path d="M159.187 293.316C159.676 293.525 159.359 291.943 159.049 291.819C158.642 291.655 158.912 293.199 159.187 293.316Z" fill="#727272"/>
<path d="M158.986 291.121C159.475 291.327 159.158 289.744 158.847 289.624C158.441 289.459 158.712 291.004 158.986 291.121Z" fill="#727272"/>
<path d="M158.595 288.895C159.083 289.101 158.766 287.518 158.457 287.397C158.05 287.233 158.321 288.777 158.595 288.895Z" fill="#727272"/>
<path d="M158.32 286.51C158.774 286.79 158.685 285.175 158.397 285.012C158.017 284.787 158.064 286.355 158.32 286.51Z" fill="#727272"/>
<path d="M158.151 284.127C158.606 284.407 158.517 282.793 158.228 282.625C157.85 282.404 157.896 283.972 158.151 284.127Z" fill="#727272"/>
<path d="M157.394 274.559C158.476 274.407 158.019 272.841 157.331 272.946C156.431 273.085 156.785 274.646 157.394 274.559Z" fill="#727272"/>
<path d="M157.417 272.399C158.499 272.247 158.042 270.68 157.355 270.786C156.454 270.924 156.808 272.486 157.417 272.399Z" fill="#727272"/>
<path d="M157.561 276.755C158.643 276.602 158.186 275.036 157.498 275.142C156.598 275.28 156.952 276.841 157.561 276.755Z" fill="#727272"/>
<path d="M157.728 278.952C158.81 278.799 158.353 277.232 157.665 277.339C156.764 277.477 157.12 279.038 157.728 278.952Z" fill="#727272"/>
<path d="M158.048 281.376C159.131 281.223 158.674 279.657 157.986 279.763C157.085 279.9 157.439 281.462 158.048 281.376Z" fill="#727272"/>
<path d="M158.13 282.31C158.617 282.526 158.324 280.939 158.016 280.812C157.613 280.639 157.859 282.188 158.13 282.31Z" fill="#727272"/>
<path d="M157.963 280.112C158.449 280.329 158.157 278.742 157.849 278.613C157.445 278.442 157.691 279.991 157.963 280.112Z" fill="#727272"/>
<path d="M157.608 277.88C158.093 278.097 157.801 276.507 157.494 276.38C157.09 276.21 157.335 277.759 157.608 277.88Z" fill="#727272"/>
<path d="M157.37 275.493C157.82 275.777 157.757 274.165 157.471 273.996C157.095 273.765 157.117 275.334 157.37 275.493Z" fill="#727272"/>
<path d="M157.239 273.106C157.69 273.389 157.626 271.776 157.34 271.604C156.965 271.378 156.988 272.946 157.239 273.106Z" fill="#727272"/>
<path d="M156.662 263.346C157.747 263.217 157.322 261.637 156.633 261.733C155.729 261.851 156.052 263.42 156.662 263.346Z" fill="#727272"/>
<path d="M156.729 261.188C157.814 261.057 157.389 259.482 156.7 259.574C155.797 259.693 156.12 261.261 156.729 261.188Z" fill="#727272"/>
<path d="M156.783 265.547C157.868 265.417 157.444 263.841 156.755 263.936C155.852 264.052 156.174 265.62 156.783 265.547Z" fill="#727272"/>
<path d="M156.906 267.745C157.99 267.614 157.566 266.036 156.877 266.131C155.974 266.25 156.296 267.818 156.906 267.745Z" fill="#727272"/>
<path d="M157.176 270.174C158.26 270.044 157.836 268.469 157.146 268.56C156.243 268.679 156.566 270.247 157.176 270.174Z" fill="#727272"/>
<path d="M157.239 271.109C157.719 271.336 157.461 269.744 157.154 269.608C156.755 269.429 156.97 270.982 157.239 271.109Z" fill="#727272"/>
<path d="M157.117 268.912C157.598 269.137 157.34 267.546 157.034 267.413C156.633 267.231 156.848 268.784 157.117 268.912Z" fill="#727272"/>
<path d="M156.807 266.67C157.288 266.895 157.03 265.305 156.724 265.169C156.323 264.989 156.537 266.543 156.807 266.67Z" fill="#727272"/>
<path d="M156.62 264.278C157.063 264.571 157.034 262.96 156.751 262.78C156.381 262.546 156.37 264.113 156.62 264.278Z" fill="#727272"/>
<path d="M156.538 261.891C156.981 262.184 156.952 260.571 156.669 260.393C156.299 260.159 156.289 261.727 156.538 261.891Z" fill="#727272"/>
<path d="M156.276 252.141C157.361 252.011 156.936 250.433 156.247 250.527C155.344 250.647 155.666 252.215 156.276 252.141Z" fill="#727272"/>
<path d="M156.345 249.983C157.428 249.856 157.005 248.277 156.316 248.371C155.412 248.487 155.734 250.056 156.345 249.983Z" fill="#727272"/>
<path d="M156.397 254.34C157.483 254.213 157.058 252.634 156.369 252.729C155.465 252.845 155.787 254.413 156.397 254.34Z" fill="#727272"/>
<path d="M156.519 256.54C157.603 256.409 157.18 254.835 156.49 254.926C155.588 255.045 155.91 256.614 156.519 256.54Z" fill="#727272"/>
<path d="M156.789 258.969C157.872 258.842 157.449 257.264 156.76 257.357C155.856 257.474 156.178 259.042 156.789 258.969Z" fill="#727272"/>
<path d="M156.853 259.904C157.333 260.131 157.074 258.539 156.769 258.403C156.369 258.224 156.583 259.778 156.853 259.904Z" fill="#727272"/>
<path d="M156.731 257.705C157.211 257.93 156.952 256.339 156.646 256.204C156.247 256.024 156.462 257.578 156.731 257.705Z" fill="#727272"/>
<path d="M156.421 255.465C156.9 255.692 156.642 254.1 156.335 253.963C155.936 253.785 156.151 255.339 156.421 255.465Z" fill="#727272"/>
<path d="M156.233 253.074C156.676 253.371 156.647 251.755 156.364 251.579C155.994 251.341 155.983 252.91 156.233 253.074Z" fill="#727272"/>
<path d="M156.152 250.684C156.595 250.977 156.566 249.366 156.284 249.186C155.913 248.951 155.903 250.52 156.152 250.684Z" fill="#727272"/>
<path d="M156.278 247.767C157.367 247.664 156.983 246.078 156.291 246.153C155.385 246.248 155.666 247.825 156.278 247.767Z" fill="#727272"/>
<path d="M156.059 245.331C157.147 245.229 156.764 243.642 156.072 243.717C155.166 243.813 155.447 245.389 156.059 245.331Z" fill="#727272"/>
<path d="M155.935 243.136C156.217 242.08 154.597 241.887 154.426 242.561C154.2 243.445 155.776 243.73 155.935 243.136Z" fill="#727272"/>
<path d="M154.105 242.703C153.788 241.657 152.309 242.347 152.521 243.011C152.794 243.881 154.284 243.292 154.105 242.703Z" fill="#727272"/>
<path d="M156.318 248.706C156.794 248.944 156.576 247.346 156.273 247.201C155.877 247.013 156.051 248.571 156.318 248.706Z" fill="#727272"/>
<path d="M156.252 246.501C156.728 246.741 156.51 245.143 156.207 244.998C155.813 244.81 155.986 246.368 156.252 246.501Z" fill="#727272"/>
<path d="M156.005 244.131C156.527 244.238 155.897 242.752 155.566 242.692C155.136 242.614 155.713 244.072 156.005 244.131Z" fill="#727272"/>
<path d="M154.995 242.735C155.185 242.238 153.617 242.615 153.503 242.93C153.355 243.341 154.889 243.013 154.995 242.735Z" fill="#727272"/>
<path d="M183.891 341.637C183.858 342.729 185.479 342.545 185.492 341.849C185.509 340.938 183.91 341.023 183.891 341.637Z" fill="#727272"/>
<path d="M186.092 342.024C186.059 343.116 187.68 342.932 187.693 342.236C187.71 341.324 186.111 341.41 186.092 342.024Z" fill="#727272"/>
<path d="M185.178 341.843C184.821 342.242 186.42 342.453 186.639 342.201C186.926 341.866 185.377 341.621 185.178 341.843Z" fill="#727272"/>
<path d="M187.551 342.119C187.192 342.513 188.791 342.726 189.01 342.472C189.3 342.14 187.75 341.897 187.551 342.119Z" fill="#727272"/>
<path d="M288.964 344.502C288.932 345.594 290.552 345.411 290.565 344.714C290.582 343.803 288.984 343.888 288.964 344.502Z" fill="#727272"/>
<path d="M291.089 344.82C291.057 345.912 292.677 345.728 292.69 345.033C292.706 344.122 291.108 344.206 291.089 344.82Z" fill="#727272"/>
<path d="M290.423 344.525C290.065 344.92 291.663 345.132 291.885 344.879C292.172 344.546 290.623 344.303 290.423 344.525Z" fill="#727272"/>
<path d="M300.108 345.158C300.078 346.251 301.7 346.067 301.708 345.371C301.726 344.46 300.127 344.544 300.108 345.158Z" fill="#727272"/>
<path d="M297.915 344.949C297.882 346.038 299.504 345.857 299.515 345.159C299.533 344.252 297.934 344.335 297.915 344.949Z" fill="#727272"/>
<path d="M295.722 344.742C295.689 345.834 297.309 345.651 297.322 344.955C297.34 344.044 295.74 344.127 295.722 344.742Z" fill="#727272"/>
<path d="M293.281 344.645C293.248 345.737 294.868 345.553 294.882 344.857C294.898 343.946 293.299 344.03 293.281 344.645Z" fill="#727272"/>
<path d="M292.346 344.566C292.05 345.009 293.663 344.99 293.843 344.709C294.08 344.34 292.512 344.319 292.346 344.566Z" fill="#727272"/>
<path d="M294.539 344.776C294.242 345.216 295.857 345.197 296.036 344.92C296.273 344.551 294.704 344.53 294.539 344.776Z" fill="#727272"/>
<path d="M296.8 344.805C296.504 345.246 298.118 345.229 298.297 344.947C298.534 344.578 296.966 344.557 296.8 344.805Z" fill="#727272"/>
<path d="M299.193 344.976C298.834 345.371 300.434 345.583 300.652 345.331C300.943 344.999 299.394 344.754 299.193 344.976Z" fill="#727272"/>
<path d="M301.567 345.253C301.211 345.649 302.81 345.86 303.029 345.607C303.315 345.276 301.767 345.031 301.567 345.253Z" fill="#727272"/>
<path d="M307.167 345.822C307.135 346.915 308.755 346.731 308.768 346.034C308.785 345.124 307.186 345.208 307.167 345.822Z" fill="#727272"/>
<path d="M309.293 346.213C309.26 347.305 310.881 347.121 310.893 346.425C310.909 345.515 309.31 345.598 309.293 346.213Z" fill="#727272"/>
<path d="M304.975 345.614C304.942 346.706 306.562 346.522 306.575 345.823C306.592 344.915 304.993 344.999 304.975 345.614Z" fill="#727272"/>
<path d="M302.782 345.405C302.753 346.499 304.373 346.313 304.382 345.619C304.399 344.708 302.8 344.792 302.782 345.405Z" fill="#727272"/>
<path d="M303.86 345.469C303.56 345.91 305.176 345.892 305.354 345.611C305.594 345.242 304.025 345.221 303.86 345.469Z" fill="#727272"/>
<path d="M306.253 345.64C305.896 346.036 307.496 346.247 307.714 345.996C308.001 345.663 306.453 345.417 306.253 345.64Z" fill="#727272"/>
<path d="M308.627 345.918C308.268 346.312 309.867 346.525 310.085 346.271C310.376 345.94 308.827 345.695 308.627 345.918Z" fill="#727272"/>
<path d="M318.313 347.019C318.28 348.112 319.9 347.928 319.91 347.228C319.93 346.321 318.331 346.406 318.313 347.019Z" fill="#727272"/>
<path d="M320.976 347.316C320.943 348.409 322.563 348.224 322.576 347.528C322.593 346.617 320.994 346.703 320.976 347.316Z" fill="#727272"/>
<path d="M316.119 346.813C316.086 347.905 317.706 347.721 317.719 347.025C317.736 346.114 316.137 346.198 316.119 346.813Z" fill="#727272"/>
<path d="M313.925 346.603C313.892 347.696 315.513 347.512 315.526 346.817C315.543 345.905 313.944 345.989 313.925 346.603Z" fill="#727272"/>
<path d="M311.483 346.509C311.451 347.6 313.071 347.417 313.084 346.721C313.101 345.809 311.501 345.893 311.483 346.509Z" fill="#727272"/>
<path d="M310.549 346.429C310.253 346.872 311.866 346.854 312.046 346.575C312.283 346.203 310.715 346.182 310.549 346.429Z" fill="#727272"/>
<path d="M312.742 346.639C312.446 347.08 314.06 347.061 314.239 346.782C314.477 346.413 312.908 346.391 312.742 346.639Z" fill="#727272"/>
<path d="M315.003 346.666C314.707 347.106 316.321 347.087 316.5 346.809C316.737 346.439 315.169 346.418 315.003 346.666Z" fill="#727272"/>
<path d="M317.397 346.839C317.037 347.238 318.637 347.446 318.855 347.194C319.146 346.862 317.596 346.617 317.397 346.839Z" fill="#727272"/>
<path d="M319.77 347.117C319.414 347.513 321.013 347.725 321.232 347.472C321.519 347.138 319.97 346.894 319.77 347.117Z" fill="#727272"/>
<path d="M322.364 347.38C322.008 347.775 323.607 347.987 323.826 347.734C324.113 347.403 322.564 347.158 322.364 347.38Z" fill="#727272"/>
<path d="M329.671 347.26C329.337 346.219 327.871 346.935 328.092 347.595C328.38 348.46 329.858 347.845 329.671 347.26Z" fill="#727272"/>
<path d="M327.531 347.746C327.298 346.677 325.769 347.248 325.924 347.928C326.133 348.816 327.664 348.346 327.531 347.746Z" fill="#727272"/>
<path d="M325.152 348.026C325.255 346.938 323.626 347.017 323.569 347.71C323.493 348.618 325.094 348.638 325.152 348.026Z" fill="#727272"/>
<path d="M330.514 346.813C330.585 346.286 329.145 347.012 329.107 347.344C329.056 347.78 330.474 347.109 330.514 346.813Z" fill="#727272"/>
<path d="M328.452 347.637C328.628 347.135 327.071 347.555 326.966 347.873C326.829 348.289 328.353 347.918 328.452 347.637Z" fill="#727272"/>
<path d="M326.248 348.012C326.572 347.592 324.962 347.501 324.763 347.77C324.503 348.121 326.065 348.248 326.248 348.012Z" fill="#727272"/>
<path d="M10.4458 239.763C9.90253 239.877 8.16628 243.637 8.71612 246.605C9.26737 249.573 10.8503 256.448 11.7607 257.581C12.6719 258.713 13.8138 260.739 13.8138 260.739C13.8138 260.739 9.79566 262.897 9.15534 264.31C9.15534 264.31 9.15675 264.887 9.64753 264.811C10.1383 264.734 14.4232 264.5 14.6247 264.98C14.8263 265.462 15.2172 267.958 15.2819 268.283C15.3475 268.609 15.1671 270.085 15.1052 270.614C15.0794 270.834 13.765 272.948 14.0055 273.427C14.2488 273.905 16.0277 273.923 17.0196 273.898C18.0105 273.876 23.2947 270.334 24.0316 269.685C24.7694 269.033 24.9752 261.158 24.9752 261.158C24.9752 261.158 23.4724 250.862 23.8413 250.841C24.2107 250.82 26.703 249.817 27.5032 248.889C28.3038 247.962 28.0066 243.474 27.6278 242.757C27.2453 242.04 18.5936 238.045 10.4458 239.763Z" fill="#36627A"/>
<path d="M14.4861 268.17C14.4861 268.17 15.342 267.996 15.3912 268.102C15.4405 268.209 15.628 268.506 15.5876 269.078C15.5469 269.649 15.7662 270.378 15.3153 270.433C14.8644 270.487 14.5541 270.488 14.5541 270.488C14.5541 270.488 13.8022 272.344 12.643 272.905C11.4842 273.467 10.7047 273.276 11.4172 272.541C12.1287 271.807 13.4675 270.942 13.3395 270.64C13.2125 270.339 10.9672 270.647 10.9672 270.647L10.9873 268.833C10.9873 268.833 12.7034 268.667 12.7887 268.7C12.8741 268.731 13.5209 268.252 13.0297 268.041C12.5384 267.829 10.4239 268.044 10.7614 267.294C11.0989 266.544 11.0169 266.552 11.8161 266.452C12.6158 266.349 13.6376 266.745 14.0919 267.294C14.5447 267.843 14.4861 268.17 14.4861 268.17Z" fill="#6C808C"/>
<path d="M60.0291 262.13L51.953 255.371L18.0723 253.447C28.6473 251.272 48.6835 248.09 78.5354 246.25C99.9807 244.93 117.949 244.792 126.26 245.211C141.372 245.979 151.538 245.1 154.12 244.836C153.68 245.114 153.036 245.549 152.645 245.913C152.348 246.188 152.088 246.561 151.721 247.075C150.985 248.12 149.86 249.626 147.376 251.97L147.128 252.194C130.54 260.276 108.055 262.657 91.9065 263.117C74.7999 263.606 60.7515 262.205 60.0291 262.13Z" fill="#FF0000"/>
<path d="M78.9356 235.072C78.7912 234.78 78.6759 234.56 78.5831 234.397C78.5362 234.315 78.4954 234.247 78.4593 234.189C78.2798 233.903 78.2207 233.902 78.1846 233.901L78.082 233.966C78.0337 234.057 77.9798 234.156 77.916 234.26C77.8743 234.328 77.8298 234.399 77.7824 234.471C77.7585 234.505 77.7342 234.542 77.7107 234.578C77.0563 235.528 75.9707 236.646 75.3182 236.475C75.007 236.391 74.8204 236.182 74.7454 235.828C74.7356 235.786 74.7299 235.743 74.7248 235.7C74.7196 235.654 74.7149 235.61 74.7149 235.559C74.6742 234.299 75.7968 231.83 77.2734 230.257C77.5007 230.012 77.7365 229.794 77.9774 229.602C78.1115 229.495 78.2634 229.387 78.4242 229.295C78.6815 229.149 78.9613 229.043 79.221 229.056C79.3185 229.061 79.4142 229.083 79.5051 229.124C79.6499 229.192 79.746 229.305 79.799 229.466C79.8337 229.574 79.8477 229.7 79.8473 229.834C79.837 230.775 79.0368 232.207 79.0265 232.223L78.9665 232.33L80.2743 232.707L78.9356 235.072ZM79.0968 230.419C79.0935 230.273 79.0574 230.155 78.9773 230.077C78.9613 230.06 78.9435 230.047 78.9243 230.031C78.8756 230 78.8174 229.982 78.757 229.982C78.7134 229.982 78.6679 229.992 78.6163 230.01C78.2653 230.138 77.7604 230.681 77.2523 231.379L77.2298 231.351L77.2068 231.323L76.7624 232.094C76.5417 232.438 76.3307 232.795 76.1428 233.142C75.8287 233.718 75.5793 234.269 75.4528 234.684C75.3815 234.919 75.3496 235.108 75.3571 235.254C75.359 235.29 75.3646 235.322 75.3707 235.355C75.3913 235.446 75.4345 235.515 75.4982 235.559C75.5273 235.577 75.5596 235.588 75.5943 235.588C75.9946 235.588 77.2907 234.017 77.8279 233.252C77.8476 233.223 77.8668 233.197 77.8846 233.169C77.9184 233.118 77.9507 233.07 77.9751 233.028C78.0023 232.987 78.0229 232.951 78.036 232.921C78.052 232.894 78.0717 232.864 78.0951 232.827C78.1195 232.791 78.1443 232.746 78.1734 232.699C78.4907 232.172 79.1118 231.053 79.0968 230.419Z" fill="black"/>
<path d="M91.2212 230.859C90.7037 230.929 88.8859 231.224 87.3099 231.524C87.2092 231.542 87.1103 231.562 87.0113 231.581C86.9603 231.591 86.9092 231.601 86.8585 231.61C86.6424 231.653 86.4339 231.698 86.2351 231.741C86.1728 231.755 86.1118 231.77 86.0518 231.784C85.9028 231.818 85.7588 231.853 85.6262 231.889C85.5723 231.903 85.5198 231.918 85.4701 231.934C85.4593 231.936 85.4453 231.939 85.4293 231.944C84.9437 232.051 82.1757 232.696 81.7623 233.414C81.7492 233.439 81.7374 233.459 81.7309 233.483C81.4876 234.176 80.897 238.062 80.8004 238.928H79.1453L78.5649 237.465L78.7895 235.385L78.8767 235.344C78.8715 235.334 78.8668 235.325 78.8635 235.315C78.8574 235.305 78.8537 235.295 78.849 235.286L80.2829 232.763L80.3054 232.769L80.3331 232.678L80.3537 232.642L80.3903 232.576L82.5338 228.065L82.8624 227.951L83.192 227.836L84.1557 222.577C84.2026 222.577 84.2678 222.576 84.3503 222.576C84.9113 222.576 86.7873 222.592 87.3259 222.798C87.7787 222.969 89.9495 227.753 91.2212 230.859Z" fill="#3FA9F5"/>
<path d="M78.0502 232.386C78.06 232.386 78.0666 232.384 78.0731 232.382C78.0919 232.377 78.1078 232.368 78.1219 232.355C78.0272 232.521 77.932 232.679 77.8388 232.827C77.7863 232.933 77.6845 233.089 77.5547 233.271C77.5331 233.222 77.5256 233.166 77.5252 233.118C77.5242 233.037 77.5411 232.972 77.5411 232.971L77.5702 232.871L76.6528 232.677L77.0367 232.006C77.1108 231.897 77.1849 231.788 77.2608 231.684C77.8177 232.327 77.9846 232.388 78.0502 232.386Z" fill="black"/>
<path d="M78.0961 232.827C78.0727 232.865 78.0534 232.896 78.037 232.922C78.0239 232.951 78.0033 232.988 77.9761 233.029C77.9503 233.071 77.9194 233.117 77.8856 233.17C77.8678 233.198 77.8491 233.223 77.8289 233.253C77.2917 234.021 75.9961 235.589 75.5953 235.589C75.5606 235.589 75.5269 235.579 75.4992 235.56C75.4341 235.516 75.3919 235.45 75.3717 235.356C75.3647 235.326 75.3605 235.291 75.3581 235.255C75.3502 235.109 75.382 234.921 75.4538 234.685C75.5803 234.271 75.8297 233.72 76.1438 233.143C76.3317 232.796 76.5441 232.439 76.7634 232.096L77.2078 231.324L77.2308 231.353L77.2533 231.38C77.7609 230.683 78.2663 230.139 78.6174 230.011C78.6675 229.994 78.7144 229.982 78.758 229.982C78.8213 229.982 78.8766 229.999 78.9253 230.031C78.945 230.043 78.9628 230.06 78.9783 230.077C79.0584 230.158 79.0945 230.277 79.0978 230.419C79.1114 231.054 78.4917 232.171 78.1734 232.698C78.1458 232.747 78.1191 232.791 78.0961 232.827ZM75.6225 234.743C75.4706 235.242 75.5353 235.365 75.5616 235.391C75.8836 235.331 76.8506 234.222 77.4286 233.442C77.3231 233.303 77.3213 233.128 77.3339 233.02L76.5113 232.846C76.118 233.519 75.7852 234.204 75.6225 234.743ZM77.0363 232.006L76.6509 232.677L77.5683 232.871L77.5397 232.971C77.5392 232.972 77.5224 233.039 77.5233 233.117C77.5238 233.166 77.5327 233.223 77.5528 233.271C77.6827 233.086 77.7848 232.93 77.8369 232.826C77.9297 232.68 78.0253 232.521 78.12 232.355C78.1059 232.365 78.09 232.376 78.0713 232.382C78.0652 232.383 78.0595 232.385 78.0483 232.385C77.9822 232.387 77.8158 232.326 77.257 231.684C77.1848 231.788 77.1103 231.896 77.0363 232.006ZM78.8161 230.191C78.7992 230.181 78.7795 230.175 78.7561 230.175C78.4847 230.175 77.9419 230.745 77.3761 231.522C77.6184 231.801 77.8913 232.083 78.0113 232.169C78.0788 232.068 78.2044 232.029 78.3094 232.016C78.7434 231.204 79.0734 230.363 78.8161 230.191Z" fill="black"/>
<path d="M17.5389 252.048L17.5844 252.019L17.552 249.347L19.2203 248.328L26.522 248.455L26.5394 248.447L29.5642 247.328L29.6931 241.09L35.1494 239.756L46.8227 239.725L47.4377 238.595L57.325 238.046L57.3897 237.043L59.4456 236.835L59.26 236.689C59.2572 236.686 58.9699 236.456 58.9769 236.176C58.9825 236.013 59.0856 235.858 59.2881 235.716C59.4381 235.609 59.8783 235.485 61.12 235.485C62.2591 235.485 63.6517 235.588 64.6684 235.663C65.17 235.7 65.5675 235.731 65.7995 235.736C66.4933 235.758 67.263 236.28 67.682 236.757C67.9399 237.049 68.0767 237.334 68.0575 237.537C67.9961 238.183 67.8911 238.338 67.427 238.426L67.4542 238.631L74.2825 237.983L78.4966 237.586L79.0727 239.066H80.8961L80.9069 238.847C80.9153 238.8 81.5889 234.14 81.8402 233.417C82.037 232.851 84.5092 232.19 85.4444 231.984C87.0958 231.522 90.5406 231.036 91.1739 230.951L91.1838 230.975L91.2541 230.967C91.255 230.967 91.3895 230.956 91.5766 230.956C92.1053 230.956 92.4902 231.044 92.6622 231.201C92.8497 231.373 92.8511 231.718 92.853 232.053C92.8544 232.341 92.8553 232.614 92.9627 232.816C93.1872 233.232 95.1049 236.474 95.1869 236.611L95.2141 236.656L95.2633 236.66C95.5455 236.676 123.354 238.32 129.559 239.084C130.04 239.143 130.588 239.198 131.188 239.282C140.577 240.605 153.727 243.141 153.727 243.141C154.745 243.158 155.148 243.479 155.183 243.748C155.216 243.995 154.958 244.245 154.536 244.367C154.525 244.375 154.241 244.518 153.855 244.748C152.149 244.934 141.856 245.953 125.775 245.138C117.459 244.717 99.4633 244.882 78.0114 246.202C47.4489 248.087 28.5864 251.095 18.145 253.285L17.6884 253.381C16.8222 253.369 16.5142 253.282 16.4744 253.235C16.4599 253.207 16.4411 253.184 16.4224 253.157C16.3778 253.095 16.3553 253.063 16.3642 253.014C16.398 252.843 16.7814 252.526 17.5389 252.048Z" fill="white" stroke="white" stroke-miterlimit="10"/>
<path d="M59.7682 262.203L59.7973 262.207C59.9145 262.217 69.934 263.264 83.735 263.264C86.1246 263.264 88.6259 263.234 91.2073 263.158C107.286 262.7 129.884 260.473 146.477 252.484C146.431 252.526 146.39 252.564 146.349 252.604C145.777 253.133 145.208 253.694 144.605 254.287C140.793 258.04 136.048 262.711 123.81 266.269C120.994 267.087 117.979 267.47 114.319 267.47C111.184 267.47 107.968 267.385 104.564 267.09C100.826 266.768 96.9635 266.434 92.832 266.434C92.1973 266.434 91.564 266.443 90.949 266.459C90.3284 266.475 89.6014 266.485 88.7881 266.485C72.6964 266.485 23.6768 263.117 21.6425 262.986L18.0068 253.679L51.7165 255.446L59.7682 262.203Z" fill="white" stroke="white" stroke-miterlimit="10"/>
<path d="M69.2795 238.36C69.2795 238.36 68.6289 237.605 68.7714 236.711C68.9139 235.822 69.114 235.365 69.6611 235.209C70.2081 235.052 70.9492 234.982 71.1001 235.059C71.2525 235.136 73.097 235.868 73.5175 236.013C73.9389 236.159 75.0897 236.921 75.1131 237.271C75.1365 237.622 75.204 237.734 75.3465 238.078C75.4886 238.419 75.7051 239.965 75.7051 239.965L72.924 240.272C72.924 240.272 72.9536 239.187 72.7492 239.11C72.5434 239.038 69.8265 238.76 69.6433 238.655C69.4595 238.553 69.2795 238.36 69.2795 238.36Z" fill="#996234"/>
<path d="M58.9791 234.022C58.9791 234.022 58.8328 232.645 58.7737 232.645C58.7147 232.645 60.7036 232.528 61.1761 232.176C61.762 231.738 64.9847 231.766 64.9847 231.766L67.1231 233.729L69.5906 235.585C69.5906 235.585 68.8809 237.919 68.5294 237.919C68.3634 237.919 66.6033 236.325 65.0137 236.279C63.24 236.228 63.1097 237.245 63.5194 239.443C63.5972 239.858 59.8575 237.362 59.8575 237.362C59.8575 237.362 59.1516 236.835 58.9772 235.898C58.8028 234.96 58.9791 234.022 58.9791 234.022Z" fill="#EF45B7"/>
<path d="M63.2273 219.899C63.3155 219.928 63.9595 219.138 63.9305 218.874C63.9014 218.61 63.6384 218.434 63.5794 218.434C63.5203 218.434 62.9053 217.702 63.2273 217.379C63.5498 217.057 62.5242 215.739 62.9048 215.094C63.2855 214.45 63.7542 213.454 64.6336 213.102C65.513 212.75 66.0689 212.458 66.5086 212.809C66.9483 213.161 68.0029 214.157 68.032 214.538C68.0611 214.918 68.2373 215.651 68.032 216.442C67.8267 217.233 67.8267 217.35 67.7976 218.2C67.7686 219.049 67.3875 219.577 67.1236 219.9C66.8597 220.223 66.9773 220.661 66.479 220.778C65.9808 220.895 66.5962 221.686 66.3619 221.979C66.1275 222.272 63.3736 221.539 63.4322 220.397C63.4603 219.86 63.2273 219.899 63.2273 219.899Z" fill="#996234"/>
<path d="M63.3159 218.758C63.3159 218.758 62.8181 218.758 62.8762 218.347C62.9343 217.937 63.0421 217.234 62.8715 217.058C62.7009 216.883 62.1731 216.561 62.3488 216.062C62.5246 215.564 62.7295 215.271 62.6123 214.802C62.4951 214.333 62.6123 213.953 62.9929 213.718C63.3735 213.484 63.6703 213.543 64.1081 213.338C64.5473 213.133 64.8988 212.635 65.3953 212.547C65.8931 212.458 66.479 212.107 66.8896 212.547C67.3003 212.986 67.5928 212.986 67.7099 213.279C67.8271 213.571 67.6809 213.25 67.8562 213.953C68.0315 214.656 68.3835 214.802 68.1492 215.183C67.9148 215.564 67.7095 214.861 67.5046 214.832C67.2998 214.803 67.4165 214.48 66.8601 214.832C66.3037 215.183 66.5085 215.066 65.6882 214.89C64.8679 214.715 64.4282 214.246 64.1788 215.096C63.9304 215.945 64.0757 215.799 64.1788 216.473C64.282 217.147 64.1788 217.439 64.1788 217.439C64.1788 217.439 64.1357 217.117 63.8132 217.176C63.4907 217.235 63.4326 217.293 63.4617 217.645C63.4907 217.996 63.667 218.406 63.6079 218.524C63.5488 218.641 63.3159 218.758 63.3159 218.758Z" fill="#301705"/>
<path d="M67.3584 225.437C67.3584 225.437 69.292 228.602 69.7903 228.895C70.2886 229.187 71.3137 229.773 71.6943 229.861C72.075 229.949 74.4778 230.33 75.5029 230.271C76.5281 230.213 76.7039 229.903 77.085 230.278C77.4656 230.653 77.6418 230.916 77.7881 230.623C77.9343 230.33 77.8467 230.271 77.7881 229.832C77.7295 229.392 77.7881 229.158 78.1982 229.099C78.6084 229.041 79.2356 229.51 79.0673 228.982C78.9014 228.455 78.96 228.22 78.285 228.279C77.6109 228.338 77.4937 228.836 77.025 228.894C76.5562 228.952 76.3509 228.953 75.5306 228.835C74.7103 228.718 72.3956 227.341 71.8978 227.312C71.4 227.283 71.3704 226.902 71.0484 226.58C70.7259 226.257 69.4368 224.676 69.4368 224.676" fill="#996234"/>
<path d="M58.7739 227.048C58.8911 225.407 59.4771 222.8 60.4732 221.657C61.4693 220.514 61.7622 220.544 62.4944 220.222C63.2266 219.899 63.6077 219.988 63.6077 219.988C63.6077 219.988 63.6461 221.159 64.2424 221.365C64.8386 221.57 66.2444 221.951 66.3325 221.716C66.4207 221.482 66.2158 221.334 66.3911 221.129C66.5664 220.924 66.8599 220.369 67.0652 220.486C67.27 220.603 68.2957 221.013 68.4129 221.541C68.53 222.068 68.6472 222.771 68.9402 223.181C69.2332 223.591 69.4089 224.236 69.4089 224.236C69.4089 224.236 69.4971 224.47 69.5847 224.734C69.6724 224.997 68.823 224.968 68.2666 226.052C67.7102 227.136 67.0947 225.437 67.0947 225.437C67.0947 225.437 67.7688 224.997 67.1533 225.935C67.1533 225.935 66.2158 227.37 66.1572 227.575C66.0986 227.781 65.8643 228.307 65.8938 228.835C65.9229 229.364 66.2163 229.919 66.1572 230.476C66.0982 231.033 66.1689 231.531 65.4747 231.794C64.7814 232.057 64.0197 231.999 63.1689 232.087C62.3196 232.175 61.2719 232.129 60.8838 232.468C60.4957 232.806 60.1221 232.526 59.6533 232.643C59.1846 232.761 59.1555 233.053 58.7744 232.643C58.3938 232.233 58.9989 230.944 58.9014 230.651C58.8039 230.358 58.5499 229.714 58.6474 228.747C58.7444 227.78 58.7739 227.048 58.7739 227.048Z" fill="#8BC7E8"/>
<path d="M62.161 229.025C62.161 229.025 62.7821 231.066 63.1304 231.456C63.4791 231.845 64.0365 232.746 64.3313 233.094C64.6271 233.444 67.2497 236.132 67.5643 236.366C67.8816 236.6 69.4013 237.937 69.4013 237.937L71.5576 237.69C71.5576 237.69 70.1297 236.161 69.428 235.415C68.7258 234.667 66.4032 231.792 66.2705 231.532C66.1379 231.27 65.3832 230.485 65.1788 230.121C64.9744 229.758 64.9407 229.008 64.771 228.324C64.6027 227.64 64.3111 226.756 64.3111 226.756C64.3111 226.756 61.6022 226.431 61.5197 227.071C61.4372 227.709 62.161 229.025 62.161 229.025Z" fill="#996234"/>
<path d="M63.579 239.411C63.579 239.411 62.9832 238.611 63.1886 237.732C63.3939 236.853 63.6268 236.414 64.1823 236.297C64.7392 236.179 65.4836 236.16 65.6298 236.248C65.7761 236.336 67.5634 237.195 67.9736 237.371C68.3837 237.547 69.4759 238.386 69.4759 238.738C69.4759 239.089 69.5345 239.207 69.6517 239.558C69.7689 239.91 69.9151 240.906 69.9151 240.906L67.1017 241.204C67.1017 241.204 67.187 240.496 66.9868 240.409C66.7853 240.321 64.0961 239.853 63.9203 239.735C63.7445 239.618 63.579 239.411 63.579 239.411Z" fill="#996234"/>
<path opacity="0.6" d="M0.137695 257.125H375.138L375.598 374.623H0.598008L0.137695 257.125Z" fill="#33EFFF"/>
<path d="M375.399 346.866C357.642 350.077 346.714 349.278 334.049 349.234C322.776 349.218 318.512 346.96 298.717 345.458C286.488 345.089 276.82 345.462 263.868 346.122C254.44 346.6 232.759 347.727 223.017 346.211C204.478 341.162 157.567 342.21 136.386 345.484C115.205 348.759 124.352 343.468 110.872 343.972C97.3935 344.472 99.5596 346.492 92.8199 344.724C86.0807 342.961 83.1308 337.608 77.3886 338.625C76.738 339.013 77.5124 342.141 63.0918 334.582C58.0372 331.932 52.2163 332.004 48.6191 331.945C45.0449 331.886 37.0789 333.775 32.5058 330.246C27.2324 327.15 11.9614 337.939 6.66598 340.96C1.37051 343.989 -1.26855 342.214 -1.26855 342.214L-0.448242 376.07L375.598 376.539L375.399 346.866Z" fill="#D8BD80"/>
<rect x="315.138" y="15.0156" width="38.9496" height="25" rx="12.5" fill="#969696" fill-opacity="0.3"/>
<path d="M331.076 31.6406H324.841V31.0117L328.252 27.1426C328.818 26.4909 329.209 25.9531 329.428 25.5293C329.647 25.1055 329.756 24.693 329.756 24.292C329.756 23.6631 329.572 23.1663 329.203 22.8018C328.833 22.4326 328.325 22.248 327.678 22.248C327.008 22.248 326.466 22.4622 326.051 22.8906C325.641 23.319 325.436 23.875 325.436 24.5586H324.623C324.623 23.998 324.748 23.4876 324.999 23.0273C325.254 22.5671 325.614 22.207 326.079 21.9473C326.548 21.6829 327.081 21.5508 327.678 21.5508C328.59 21.5508 329.301 21.79 329.811 22.2686C330.326 22.7471 330.583 23.3988 330.583 24.2236C330.583 24.6885 330.438 25.1966 330.146 25.748C329.859 26.2995 329.351 26.9876 328.622 27.8125L325.846 30.9502H331.076V31.6406ZM332.621 32.4951H331.875L336.032 21.6875H336.77L332.621 32.4951ZM343.278 27.0332C342.986 27.4616 342.624 27.7943 342.191 28.0312C341.758 28.2637 341.289 28.3799 340.783 28.3799C340.218 28.3799 339.719 28.234 339.286 27.9424C338.853 27.6507 338.518 27.2474 338.281 26.7324C338.044 26.2174 337.925 25.6546 337.925 25.0439C337.925 24.3877 338.051 23.7907 338.301 23.2529C338.556 22.7152 338.91 22.2982 339.361 22.002C339.817 21.7012 340.341 21.5508 340.933 21.5508C341.931 21.5508 342.708 21.9017 343.264 22.6035C343.82 23.3008 344.098 24.292 344.098 25.5771V26.3154C344.098 28.111 343.715 29.46 342.95 30.3623C342.184 31.2646 341.015 31.7158 339.443 31.7158H339.292L339.299 31.0049H339.586C340.776 30.9867 341.681 30.6494 342.3 29.9932C342.92 29.3369 343.246 28.3503 343.278 27.0332ZM340.885 27.6758C341.432 27.6758 341.922 27.514 342.355 27.1904C342.792 26.8623 343.102 26.4385 343.285 25.9189V25.4473C343.285 24.4355 343.073 23.6517 342.649 23.0957C342.23 22.5352 341.662 22.2549 340.947 22.2549C340.3 22.2549 339.769 22.5169 339.354 23.041C338.939 23.5605 338.732 24.2168 338.732 25.0098C338.732 25.7708 338.93 26.4066 339.327 26.917C339.728 27.4229 340.247 27.6758 340.885 27.6758Z" fill="black"/>
</g>
<defs>
<linearGradient id="paint0_linear" x1="187.868" y1="374.623" x2="187.868" y2="0.0153935" gradientUnits="userSpaceOnUse">
<stop offset="0.1444" stop-color="white"/>
<stop offset="1" stop-color="#4FC3F7"/>
</linearGradient>
<clipPath id="clip0">
<rect width="375" height="375" fill="white" transform="translate(0.137695 0.015625)"/>
</clipPath>
</defs>
</svg>
