<svg width="376" height="376" viewBox="0 0 376 376" fill="none" xmlns="http://www.w3.org/2000/svg">
<g clip-path="url(#clip0)">
<path d="M381.82 -0.03125H-4.76367V388.778H381.82V-0.03125Z" fill="#8BF6FF"/>
<path d="M303.705 190.65C335.824 180.169 379.395 104.322 318.326 52.8463C318.326 52.8463 254.931 -0.540535 197.644 68.9479C197.644 68.9479 86.8065 209.197 44.1882 263.045C1.57043 316.893 74.2299 374.334 116.783 322.632L197.06 212.151" stroke="#ED1C24" stroke-width="8" stroke-miterlimit="10" stroke-dasharray="10.06 10.06"/>
<path opacity="0.8" d="M220.307 252.963C227.371 248.68 232.548 240.804 238.452 236.779C244.351 232.756 250.025 232.255 257.134 227.461C264.242 222.666 266.817 215.429 271.642 211.629C276.468 207.824 286.142 203.088 288.796 198.172C291.447 193.255 288.773 190.857 288.773 190.857C288.773 190.857 288.402 187.966 284.424 186.771C279.289 185.228 269.266 189.029 263.311 189.892C257.355 190.759 250.77 187.492 242.533 189.347C234.295 191.202 229.874 195.078 223.005 196.584C216.138 198.086 207.248 196.31 199.378 198.495L220.307 252.963Z" fill="url(#paint0_linear)"/>
<path d="M257.569 191.729L267.298 215.242L295.484 204.086C295.484 204.086 319.595 196.65 321.604 178.955C308.192 168.193 285.897 179.269 285.897 179.269L257.569 191.729Z" fill="#D1D1D1"/>
<path d="M315.507 181.381C315.507 181.381 320.114 191.399 299.969 200.15C279.824 208.902 277.087 208.391 277.087 208.391L269.264 189.478L275.058 186.042L292.503 178.825C292.503 178.823 310.878 171.938 315.507 181.381Z" fill="#F4F4F4"/>
<path d="M315.684 181.451C312.576 173.522 301.488 175.191 291.726 178.491L276.094 185.266L264.895 190.364L266.006 197.065L267.588 197.564L270.267 204.124C270.267 204.124 269.624 205.361 269.706 205.558C270.166 206.669 273.528 211.002 273.528 211.002C273.528 211.002 281.313 207.985 284.819 206.629C284.938 206.583 300.647 200.607 300.839 200.518C310.184 196.259 319.061 190.074 315.684 181.451ZM285.006 206.134C284.766 206.279 273.822 209.586 273.822 209.586C273.822 209.586 271.374 205.81 270.939 204.761C270.862 204.575 271.481 203.405 271.481 203.405L268.951 197.208L267.445 196.743L266.101 190.925L276.482 185.566C285.765 181.569 285.97 181.698 291.998 179.146C301.563 176.031 312.58 174.789 315.254 181.748C317.911 188.668 309.462 195.415 300.551 199.816C300.195 199.961 285.133 205.99 285.006 206.134Z" fill="#E8E8E8"/>
<path d="M297.016 189.273L297.112 189.238L295.346 186.295L293.506 185.559C292.699 185.059 290.059 185.996 290.059 185.996L285.264 187.977L284.425 188.906L286.485 192.156L288.993 192.617L290.628 191.917L297.016 189.273Z" fill="white"/>
<path d="M296.989 189.209L297.113 189.238L297.868 192.385L297.075 194.187C296.857 195.109 294.321 196.288 294.321 196.288L289.526 198.272L288.296 198.257L287.467 194.525L288.932 192.473L290.6 191.85L296.989 189.209Z" fill="white"/>
<path d="M290.56 197.3C290.705 197.229 292.31 194.933 292.31 194.933L289.764 188.587L286.857 187.934L286.54 188.067L286.381 188.132L286.223 188.198L284.433 188.938L288.282 198.241C288.284 198.241 290.414 197.371 290.56 197.3Z" fill="#C6C6C6"/>
<path d="M260.333 208.338C259.863 208.532 259.33 208.305 259.139 207.838L257.13 202.905C256.94 202.437 257.165 201.903 257.633 201.712L265.21 198.625C265.677 198.434 266.212 198.658 266.403 199.128L268.412 204.059C268.604 204.526 268.379 205.06 267.91 205.251L260.333 208.338Z" fill="#394963"/>
<path d="M294.452 194.549L293.133 191.363L292.631 190.144L291.443 187.271C291.443 187.271 289.776 186.883 286.527 188.051C286.507 188.059 286.562 188.227 286.562 188.227C287.323 188.402 289.293 188.685 289.293 188.685L290.564 191.711L291.932 195.067C291.932 195.067 290.731 196.662 290.315 197.321C290.315 197.321 290.409 197.476 290.428 197.468C293.549 196 294.452 194.549 294.452 194.549Z" fill="#29ABE2"/>
<path d="M285.678 189.823C284.396 190.354 286.052 194.619 287.439 194.044C288.656 193.54 287.023 189.266 285.678 189.823ZM285.845 190.184C286.762 189.806 288.126 193.329 287.296 193.673C286.352 194.064 284.972 190.547 285.845 190.184Z" fill="black"/>
<path d="M287.049 191.109C287.049 191.109 286.653 191.285 286.857 191.76C287.06 192.238 287.388 192.025 287.427 192.022C287.466 192.017 287.049 191.109 287.049 191.109Z" fill="black"/>
<path d="M286.774 191.617L285.671 191.929L285.933 192.56L286.915 191.957L286.774 191.617Z" fill="black"/>
<path d="M287.246 191.924C287.251 191.933 287.213 193.745 287.213 193.745L287.634 193.641L287.455 191.895L287.246 191.924Z" fill="black"/>
<path d="M286.981 191.281C286.976 191.273 285.653 189.971 285.653 189.971L286.048 189.809L287.13 191.111L286.981 191.281Z" fill="black"/>
<path d="M300.551 199.819C300.551 199.819 298.373 194.667 303.383 191.254C308.394 187.841 315.65 184.053 315.776 183.908C315.901 183.764 317.207 192.279 300.551 199.819Z" fill="#E8CDA0"/>
<path d="M291.999 179.147C291.999 179.147 294.098 184.332 300.052 183.207C306.009 182.083 313.82 179.635 314.012 179.647C314.203 179.661 309.11 172.712 291.999 179.147Z" fill="#E8CDA0"/>
<path d="M270.66 188.438C270.66 188.438 271.774 187.535 271.847 188.964C272.086 193.671 275.769 203.466 279.416 207.038C280.183 207.786 279.948 207.868 279.322 208.095C278.854 208.262 273.818 209.586 273.818 209.586C273.818 209.586 267.909 203.348 266.097 190.927L270.66 188.438Z" fill="#E8CDA0"/>
<path d="M282.412 200.859C282.147 200.967 281.925 200.733 281.774 200.367L278.329 192.045C278.176 191.681 278.123 191.24 278.386 191.132L281.163 189.983C281.426 189.874 281.86 190.157 282.012 190.522L285.456 198.843C285.608 199.208 285.45 199.602 285.188 199.711L282.412 200.859Z" fill="#E8CDA0"/>
<path d="M284.402 190.713C284.402 190.713 285.15 190.928 284.346 191.509C283.541 192.086 282.821 192.864 282.821 192.864C282.821 192.864 283.495 193.706 283.809 193.728C284.125 193.752 285.272 193.148 285.917 193.853C286.557 194.56 286.903 194.856 285.501 195.021C284.1 195.189 283.163 195.424 283.163 195.424L280.965 192.289L284.206 190.794" fill="#996234"/>
<path d="M281.594 192.385C281.594 192.385 282.942 190.352 283.149 191.053C283.358 191.751 282.699 191.617 283.006 192.489C283.313 193.36 283.925 192.97 284 194.165C284.074 195.358 284.55 195.618 283.911 195.679C283.268 195.738 283.007 195.8 283.007 195.8L281.594 192.385Z" fill="#EF45B7"/>
<path d="M280.995 191.462C280.995 191.462 282.457 190.788 282.827 190.589C283.515 190.216 285.259 190.211 285.532 190.099C285.806 189.985 286.109 189.912 285.851 190.442C285.598 190.97 284.094 191.176 283.352 191.301C282.609 191.428 281.963 192.211 281.752 192.319C281.54 192.429 281.667 191.846 281.667 191.846L280.995 191.462Z" fill="#996234"/>
<path d="M282.834 196.173C282.834 196.173 284.609 195.985 285.009 195.866C285.76 195.643 286.997 194.418 287.271 194.301C287.543 194.188 287.812 194.031 287.258 193.835C286.703 193.642 285.493 194.558 284.878 194.991C284.264 195.425 283.198 194.998 282.972 195.073C282.747 195.148 283.304 195.799 283.304 195.799L282.834 196.173Z" fill="#996234"/>
<path d="M280.723 190.803C280.723 190.803 278.999 191.84 279.095 193.137C279.193 194.43 279.229 194.878 280.094 195.717C280.961 196.558 280.94 197.205 281.832 196.742C282.721 196.283 283.457 196.703 283.235 195.757C282.996 194.736 282.108 192.097 282.055 191.912C281.733 190.77 280.723 190.803 280.723 190.803Z" fill="#8BC7E8"/>
<path d="M279.657 194.496C279.657 194.496 279.332 193.42 280.25 193.222C281.165 193.024 281.291 192.441 281.859 193.061C282.428 193.681 283.292 193.749 282.712 194.366C282.134 194.982 281.851 195.373 281.255 195.347C280.659 195.322 280.556 195.421 280.117 195.254C279.676 195.092 279.657 194.496 279.657 194.496Z" fill="#301705"/>
<path d="M202.473 217.603L203.737 203.482L190.105 207.375L202.473 217.603Z" fill="#EA3434"/>
<path d="M73.78 161.685L87.3143 157.463L83.0003 154.069L138.314 84.1723L134.27 80.9727L78.9485 150.88L74.7021 147.538L73.78 161.685Z" fill="#44CC64"/>
<path d="M211.643 196.43C211.919 196.484 214.263 196.255 214.588 196.565C214.912 196.877 214.99 197.971 215.089 198.382C215.187 198.794 215.383 198.805 214.683 199.043C213.984 199.28 213.214 200.274 212.222 199.506C211.229 198.738 211.04 198.585 210.845 198.397C210.651 198.209 210.209 198.399 210.718 197.719C211.227 197.039 210.582 196.152 210.582 196.152L211.643 196.43Z" fill="white"/>
<path d="M205.822 197.367C205.648 197.294 203.732 193.036 203.736 192.769C203.739 192.504 203.759 191.492 203.929 190.557C204.098 189.623 204.8 188.27 204.754 186.899C204.707 185.527 204.627 184.534 204.627 184.534C204.627 184.534 203.653 183.02 204.28 182.689C204.907 182.358 205.582 181.715 205.582 181.715C205.582 181.715 205.939 182.482 206.035 182.995C206.132 183.508 206.354 183.838 206.267 184.225C206.181 184.613 205.883 184.722 205.874 185.52C205.864 186.318 206.136 187.187 206.232 187.983C206.328 188.778 206.215 189.862 206.159 190.137C206.105 190.413 205.845 190.727 205.984 191.179C206.122 191.63 205.997 190.964 206.658 192.22C207.318 193.475 207.51 193.651 207.559 193.908C207.607 194.164 208.526 195.372 208.74 195.385C208.955 195.397 209.101 195.05 209.329 194.848C209.557 194.646 209.563 194.121 209.752 193.711C209.94 193.3 209.614 193.255 210.33 193.12C211.048 192.985 210.783 192.983 211.263 192.998C211.744 193.013 211.863 192.52 212.571 193.18C213.278 193.839 213.662 192.493 213.519 194.271C213.376 196.05 213.493 195.55 213.376 196.05C213.259 196.549 213.434 196.358 212.784 196.851C212.134 197.345 212.24 197.059 212.134 197.345C212.028 197.631 211.693 197.269 211.912 197.865C212.131 198.46 211.594 198.721 212.105 198.89C212.616 199.058 213.417 198.802 214.317 198.792C215.217 198.782 216.221 198.753 216.932 199.149C217.644 199.546 217.581 199.77 217.634 200.343C217.689 200.917 219.099 201.076 217.032 201.094C214.965 201.112 212.99 201.06 212.453 200.736C211.915 200.412 210.919 199.909 210.145 199.471C209.373 199.033 209.174 198.54 208.501 198.347C207.827 198.156 206.167 198.363 206.167 198.363L205.822 197.367Z" fill="#EDC494"/>
<path d="M211.866 193.296C211.47 192.694 210.891 192.433 211.454 192.327C212.018 192.22 212.054 191.842 212.223 192.182C212.393 192.521 212.113 192.453 212.727 192.883C213.342 193.313 213.948 193.449 213.948 193.449C213.948 193.449 213.98 193.337 214.035 193.91C214.09 194.483 214.739 194.574 214.28 195.085C213.821 195.596 213.685 195.727 213.376 196.051C213.066 196.374 212.828 196.526 212.828 196.526C212.828 196.526 212.519 196.956 212.486 196.591C212.453 196.225 212.536 196.104 212.684 195.757C212.831 195.411 213.358 195.153 213.083 194.939C212.808 194.725 212.372 194.383 212.372 194.383C212.372 194.383 212.173 193.889 212.195 193.726C212.218 193.562 211.928 193.63 211.897 193.463" fill="#874926"/>
<path d="M195.91 197.162C196.026 197.218 196.254 197.206 196.544 197.155C197.436 196.997 198.898 196.48 199.346 196.515C199.938 196.563 200.521 196.267 200.789 196.283C201.056 196.299 200.702 193.293 201.618 193.646C202.534 193.998 202.939 195.308 204.198 195.23C205.457 195.153 205.058 195.904 205.253 196.305C205.447 196.705 206.257 197.048 206.361 197.689C206.464 198.331 207.195 199.019 206.745 198.041C205.486 195.31 212.623 200.806 209.704 198.812C208.972 198.312 210.093 199.322 211.467 199.648C212.841 199.972 212.194 200.2 213.175 200.334C214.156 200.468 213.678 200.187 214.566 200.391C215.453 200.595 214.542 199.705 216.551 200.229C218.561 200.754 219.394 200.1 219.622 200.747C219.849 201.394 219.954 202.509 219.339 203.473C218.724 204.438 217.578 205.397 218.186 204.964C221.152 202.855 217.053 206.679 216.936 204.93C216.905 204.458 216.776 203.395 216.84 203.732C216.985 204.501 218.011 201.495 216.695 202.963C215.379 204.43 215.886 204.866 215.379 204.43C214.872 203.995 214.677 204.085 214.577 203.839C214.477 203.592 215.04 203.752 214.34 203.14C213.64 202.528 213.841 202.756 212.791 202.529C211.74 202.303 211.306 202.544 211.102 202.582C210.897 202.62 210.731 203.143 210.548 202.455C210.365 201.766 210.221 201.844 210.195 201.425C210.168 201.006 210.943 201.179 210.168 201.006C209.393 200.834 209.434 200.768 208.8 200.783C208.166 200.799 208.578 200.982 207.931 200.947C207.284 200.912 207.135 201.523 206.704 200.649C206.274 199.775 206.173 199.794 206.137 199.323C206.1 198.852 206.398 198.745 205.869 198.472C205.34 198.199 205.028 197.94 204.463 198.046C203.898 198.153 203.656 197.987 203.406 198.351C203.156 198.716 203.685 198.989 202.839 198.723C201.993 198.458 201.9 198.528 201.791 198.231C201.681 197.933 202.175 197.733 201.633 197.676C201.091 197.619 201.025 196.995 200.245 197.354C199.464 197.714 200.09 198.498 199.143 197.986C198.197 197.474 197.736 197.818 197.647 197.366C197.559 196.914 198.11 196.772 197.559 196.914" fill="white"/>
<path d="M211.801 197.041C211.718 197.035 211.581 197.098 211.418 197.198C210.913 197.508 210.149 198.172 209.869 198.258C209.496 198.372 209.214 198.691 209.048 198.744C208.882 198.798 209.437 199.491 208.796 199.496C208.154 199.502 208.196 198.989 207.449 199.338C206.702 199.686 206.544 199.997 206.33 199.8C206.116 199.605 205.541 199.591 205.325 199.224C205.108 198.86 204.499 198.617 205.006 199.103C206.424 200.461 200.772 198.831 203.023 199.344C203.589 199.472 202.665 199.127 201.752 199.259C200.841 199.39 201.178 199.097 200.551 199.251C199.922 199.404 200.279 199.461 199.692 199.548C199.103 199.638 199.871 199.961 198.524 200.123C197.178 200.287 196.828 200.884 196.535 200.544C196.242 200.205 195.91 199.554 196.054 198.82C196.195 198.087 196.662 197.229 196.396 197.639C195.099 199.631 196.673 196.325 197.164 197.359C197.296 197.638 197.628 198.254 197.509 198.065C197.238 197.632 197.334 199.704 197.783 198.497C198.229 197.289 197.817 197.147 198.229 197.289C198.642 197.432 198.738 197.331 198.858 197.458C198.978 197.583 198.599 197.62 199.17 197.825C199.742 198.029 199.566 197.939 200.259 197.825C200.95 197.71 201.155 197.461 201.271 197.389C201.385 197.316 201.363 196.958 201.639 197.333C201.914 197.708 201.982 197.625 202.098 197.873C202.216 198.121 201.702 198.203 202.216 198.121C202.729 198.04 202.719 198.09 203.101 197.929C203.481 197.768 203.187 197.755 203.589 197.621C203.99 197.488 203.933 197.081 204.406 197.508C204.878 197.937 204.934 197.901 205.068 198.179C205.204 198.456 205.048 198.593 205.435 198.631C205.821 198.67 206.074 198.753 206.39 198.554C206.708 198.353 206.895 198.397 206.961 198.114C207.024 197.832 206.638 197.794 207.216 197.753C207.792 197.712 207.833 197.646 207.971 197.801C208.109 197.956 207.856 198.195 208.199 198.1C208.542 198.005 208.732 198.369 209.12 197.964C209.508 197.559 208.938 197.232 209.637 197.316C210.335 197.4 210.534 197.081 210.697 197.333C210.859 197.588 210.556 197.806 210.859 197.588" fill="white"/>
<rect x="315.638" y="15.1113" width="38.9496" height="25" rx="12.5" fill="#969696" fill-opacity="0.3"/>
<path d="M330.167 21.71V22.4277H330.072C328.882 22.4277 327.946 22.7786 327.262 23.4805C326.579 24.1777 326.2 25.1484 326.127 26.3926C326.401 26.0143 326.75 25.7227 327.173 25.5176C327.597 25.3079 328.071 25.2031 328.595 25.2031C329.47 25.2031 330.165 25.5062 330.68 26.1123C331.2 26.7139 331.459 27.5023 331.459 28.4775C331.459 29.1247 331.339 29.708 331.097 30.2275C330.856 30.7471 330.509 31.1527 330.058 31.4443C329.607 31.7314 329.092 31.875 328.513 31.875C327.561 31.875 326.786 31.5309 326.189 30.8428C325.592 30.1501 325.293 29.2568 325.293 28.1631V27.3428C325.293 25.5609 325.699 24.1823 326.51 23.207C327.321 22.2272 328.472 21.7282 329.962 21.71H330.167ZM328.465 25.9072C327.946 25.9072 327.46 26.0622 327.009 26.3721C326.563 26.6774 326.264 27.0671 326.114 27.541V28.2383C326.114 29.1042 326.335 29.8105 326.777 30.3574C327.223 30.9043 327.802 31.1777 328.513 31.1777C329.151 31.1777 329.666 30.9248 330.058 30.4189C330.455 29.9131 330.653 29.2751 330.653 28.5049C330.653 27.721 330.455 27.0921 330.058 26.6182C329.666 26.1442 329.135 25.9072 328.465 25.9072ZM333.121 32.5928H332.375L336.532 21.7852H337.27L333.121 32.5928ZM343.778 27.1309C343.486 27.5592 343.124 27.8919 342.691 28.1289C342.258 28.3613 341.789 28.4775 341.283 28.4775C340.718 28.4775 340.219 28.3317 339.786 28.04C339.353 27.7484 339.018 27.3451 338.781 26.8301C338.544 26.3151 338.425 25.7523 338.425 25.1416C338.425 24.4854 338.551 23.8883 338.801 23.3506C339.056 22.8128 339.41 22.3958 339.861 22.0996C340.317 21.7988 340.841 21.6484 341.433 21.6484C342.431 21.6484 343.208 21.9993 343.764 22.7012C344.32 23.3984 344.598 24.3896 344.598 25.6748V26.4131C344.598 28.2087 344.215 29.5576 343.45 30.46C342.684 31.3623 341.515 31.8135 339.943 31.8135H339.792L339.799 31.1025H340.086C341.276 31.0843 342.181 30.7471 342.8 30.0908C343.42 29.4346 343.746 28.4479 343.778 27.1309ZM341.385 27.7734C341.932 27.7734 342.422 27.6117 342.855 27.2881C343.292 26.96 343.602 26.5361 343.785 26.0166V25.5449C343.785 24.5332 343.573 23.7493 343.149 23.1934C342.73 22.6328 342.162 22.3525 341.447 22.3525C340.8 22.3525 340.269 22.6146 339.854 23.1387C339.439 23.6582 339.232 24.3145 339.232 25.1074C339.232 25.8685 339.43 26.5042 339.827 27.0146C340.228 27.5205 340.747 27.7734 341.385 27.7734Z" fill="black"/>
</g>
<defs>
<linearGradient id="paint0_linear" x1="288.843" y1="193.467" x2="209.232" y2="225.989" gradientUnits="userSpaceOnUse">
<stop stop-color="white" stop-opacity="0.8"/>
<stop offset="1" stop-color="white" stop-opacity="0"/>
</linearGradient>
<clipPath id="clip0">
<rect width="375" height="375" fill="white" transform="translate(0.637695 0.111328)"/>
</clipPath>
</defs>
</svg>
