<svg width="376" height="376" viewBox="0 0 376 376" fill="none" xmlns="http://www.w3.org/2000/svg">
<g clip-path="url(#clip0)">
<path d="M-136.506 -96.0254H499.581L500.362 379.526H-135.725L-136.506 -96.0254Z" fill="url(#paint0_linear)"/>
<path d="M332.979 329.414C333.26 329.654 334.21 329.292 334.361 329.215C334.458 329.158 334.498 329.06 334.5 328.938C334.503 328.717 334.382 328.406 334.251 328.149C334.114 327.757 331.354 312.513 329.71 303.408C328.975 299.338 328.394 296.128 328.295 295.616C328.153 294.877 327.901 294.405 327.556 294.213C327.279 294.061 327.044 294.151 327.035 294.155C326.038 294.354 326.044 294.671 326.15 295.218C326.165 295.309 326.184 295.409 326.198 295.521C326.278 296.195 330.387 323.046 330.557 324.188C330.641 324.561 330.797 325.595 330.547 325.951C330.257 326.359 328.913 326.814 328.258 326.971C325.147 327.708 322.905 327.935 322.67 327.551C322.595 327.428 322.506 326.976 323.295 325.424C323.743 324.543 324.311 323.654 324.47 323.443C324.502 323.406 327.642 319.084 327.5 318.113C327.488 318.026 327.447 317.953 327.383 317.908C326.784 317.481 325.557 318.094 324.14 318.799L323.769 318.986C322.6 319.563 321.335 320.306 320.842 320.606C320.976 319.866 321.356 317.741 321.389 317.418C321.387 317.387 321.391 317.335 321.395 317.281C321.399 317.067 321.368 316.701 321.147 316.458C321.005 316.302 320.81 316.226 320.571 316.228C320.119 316.235 319.434 316.836 318.707 317.473C318.582 317.578 318.461 317.681 318.342 317.785C318.328 317.748 318.306 317.712 318.291 317.669C317.847 316.716 317.236 315.407 316.582 315.223C316.415 315.176 316.258 315.199 316.112 315.298C315.428 315.747 315.684 317.748 316.908 321.577C317.827 324.446 319.764 328.529 319.781 328.57C320.199 329.453 321.481 330.79 322.906 330.865C324.26 330.93 332.107 329.531 332.954 329.379C332.966 329.386 332.974 329.397 332.979 329.414Z" fill="#727272"/>
<path d="M327.037 296.12C327.121 296.179 327.221 296.201 327.322 296.186C327.528 296.155 327.67 295.962 327.637 295.743C327.619 295.643 327.561 295.554 327.48 295.497C327.396 295.437 327.295 295.415 327.194 295.43C327.013 295.461 326.878 295.624 326.877 295.804C326.876 295.827 326.876 295.854 326.88 295.876C326.898 295.978 326.952 296.066 327.037 296.12Z" fill="#727272"/>
<path d="M322.92 330.64C324.195 330.709 331.637 329.392 332.816 329.177C332.753 329.047 332.724 328.894 332.741 328.76C332.754 328.595 332.838 328.468 332.963 328.398C333.142 328.305 333.43 328.202 333.647 328.134L333.602 328.108L328.578 298.428C328.308 296.943 328.126 295.933 328.073 295.666C327.914 294.841 327.649 294.536 327.458 294.428C327.275 294.326 327.13 294.373 327.104 294.382C326.266 294.554 326.298 294.724 326.385 295.18C326.401 295.278 326.421 295.38 326.435 295.496C326.454 295.653 326.689 297.241 327.046 299.598C327.817 300.058 327.978 301.086 327.99 301.132C328.17 302.089 332.393 324.701 331.24 326.749C330.936 327.292 329.183 327.691 328.991 327.733C328.826 327.771 324.899 328.747 323.431 328.785C321.283 328.831 320.213 326.139 319.992 325.091C319.806 324.201 320.465 320.952 320.465 320.816L320.465 320.814C320.468 320.701 321.072 317.766 321.108 317.391C321.133 317.135 321.156 316.798 320.975 316.613C320.878 316.507 320.749 316.454 320.575 316.457C320.212 316.462 319.494 317.089 318.862 317.643C318.435 318.012 318.03 318.366 317.7 318.576C317.266 318.849 316.985 318.929 316.823 318.829C316.726 318.767 316.703 318.658 316.713 318.604L316.945 318.632C316.945 318.633 317.057 318.7 317.576 318.377C317.752 318.273 317.948 318.118 318.164 317.94C318.136 317.88 318.109 317.824 318.08 317.763C317.701 316.953 317.07 315.596 316.52 315.442C316.418 315.411 316.327 315.43 316.237 315.487C315.85 315.74 315.688 316.992 317.134 321.5C317.699 323.264 318.649 325.496 319.297 326.95C319.208 324.495 320.196 319.489 320.542 317.73C320.608 317.4 320.662 317.141 320.665 317.102L320.782 317.104L320.898 317.086C320.901 317.091 320.9 317.095 320.901 317.108C320.902 317.147 320.879 317.252 320.775 317.774C320.387 319.719 319.217 325.631 319.6 327.614C319.839 328.132 319.994 328.457 319.998 328.468C320.332 329.186 321.539 330.556 322.92 330.64ZM326.903 296.314C326.77 296.221 326.68 296.078 326.654 295.917C326.595 295.577 326.827 295.26 327.157 295.206C327.32 295.179 327.482 295.219 327.616 295.31C327.752 295.406 327.842 295.544 327.868 295.708C327.875 295.742 327.877 295.786 327.877 295.825C327.872 296.119 327.657 296.371 327.365 296.422C327.202 296.447 327.037 296.411 326.903 296.314Z" fill="#727272"/>
<path d="M327.105 299.912C328.317 307.912 330.766 323.933 330.799 324.143C330.826 324.284 331.102 325.578 330.745 326.08C330.371 326.605 328.838 327.07 328.317 327.191C326.316 327.662 322.898 328.355 322.479 327.663C321.971 326.819 324.102 323.541 324.299 323.294C324.679 322.805 327.402 318.911 327.281 318.14C327.28 318.124 327.274 318.098 327.264 318.09C326.776 317.745 325.548 318.352 324.252 318.999L323.882 319.186C322.535 319.853 321.059 320.741 320.792 320.907C320.707 321.321 320.109 324.254 320.278 325.038C320.469 325.962 321.478 328.594 323.45 328.548C324.9 328.512 328.905 327.515 328.954 327.503C329.46 327.391 330.829 327.009 331.043 326.633C332.159 324.651 327.808 301.399 327.765 301.161C327.765 301.155 327.633 300.36 327.105 299.912Z" fill="#727272"/>
<path d="M333.818 327.947L334.002 328.059C333.826 327.256 333.197 323.863 332.145 318.096L333.818 327.947Z" fill="#727272"/>
<path d="M333.136 329.227C333.261 329.332 334.003 329.134 334.255 328.998C334.3 328.976 334.285 328.723 334.052 328.248L333.97 328.27C333.958 328.271 333.349 328.447 333.076 328.593C333.015 328.628 332.978 328.693 332.971 328.774C332.952 328.946 333.042 329.148 333.136 329.227Z" fill="#727272"/>
<path d="M332.983 329.405C333.263 329.644 334.212 329.284 334.362 329.206C334.459 329.15 334.501 329.05 334.503 328.926C334.506 328.707 334.383 328.397 334.255 328.14C334.118 327.748 331.356 312.504 329.714 303.399C328.977 299.328 328.396 296.117 328.299 295.607C328.156 294.868 327.905 294.396 327.559 294.205C327.283 294.053 327.046 294.144 327.037 294.147C326.04 294.346 326.048 294.663 326.154 295.208C326.167 295.3 326.186 295.401 326.201 295.511C326.281 296.186 330.391 323.034 330.562 324.177C330.645 324.554 330.801 325.587 330.549 325.943C330.259 326.349 328.917 326.806 328.263 326.961C325.149 327.697 322.909 327.928 322.67 327.543C322.596 327.416 322.509 326.967 323.296 325.414C323.745 324.534 324.312 323.644 324.471 323.435C324.504 323.397 327.643 319.079 327.501 318.105C327.491 318.016 327.447 317.943 327.386 317.898C326.786 317.473 325.555 318.085 324.139 318.792L323.765 318.976C322.592 319.555 321.327 320.296 320.83 320.597C320.804 320.736 320.772 320.829 320.768 320.85L320.518 320.81C320.518 320.81 320.468 320.805 320.468 320.802L320.468 320.806C320.465 320.943 319.806 324.195 319.995 325.081C320.212 326.118 321.312 328.82 323.462 328.772C324.931 328.741 328.837 327.765 329.006 327.723C329.201 327.68 330.95 327.284 331.253 326.739C332.401 324.689 328.173 302.078 327.994 301.12C327.984 301.074 327.82 300.047 327.05 299.589C326.691 297.23 326.45 295.638 326.436 295.486C326.425 295.372 326.4 295.266 326.386 295.168C326.298 294.709 326.266 294.539 327.105 294.37C327.131 294.362 327.276 294.314 327.455 294.415C327.651 294.528 327.915 294.832 328.073 295.655C328.124 295.919 328.306 296.928 328.578 298.416L333.601 328.097L333.647 328.122C333.432 328.193 333.144 328.292 332.964 328.388C332.837 328.458 332.758 328.585 332.743 328.749C332.729 328.883 332.756 329.033 332.818 329.165C332.914 329.151 332.974 329.138 332.98 329.135L333.022 329.365C333.009 329.368 332.988 329.371 332.959 329.38C332.965 329.385 332.974 329.396 332.983 329.405ZM327.098 299.902C327.63 300.35 327.762 301.145 327.764 301.157C327.806 301.391 332.16 324.646 331.045 326.628C330.831 327.01 329.461 327.388 328.954 327.496C328.907 327.509 324.896 328.51 323.451 328.541C321.476 328.584 320.472 325.954 320.275 325.034C320.115 324.252 320.71 321.32 320.793 320.903C321.059 320.74 322.531 319.852 323.882 319.184L324.251 318.997C325.551 318.351 326.777 317.743 327.266 318.086C327.274 318.096 327.281 318.12 327.28 318.139C327.399 318.915 324.678 322.809 324.299 323.295C324.104 323.541 321.978 326.819 322.48 327.661C322.897 328.355 326.317 327.662 328.319 327.187C328.832 327.066 330.374 326.601 330.744 326.08C331.103 325.58 330.827 324.286 330.799 324.142C330.765 323.931 328.313 307.906 327.098 299.902ZM333.999 328.059L333.813 327.946L332.146 318.092C333.197 323.867 333.826 327.257 333.999 328.059ZM333.135 329.229C333.042 329.152 332.951 328.95 332.972 328.772C332.978 328.688 333.014 328.628 333.077 328.592C333.349 328.445 333.958 328.271 333.971 328.27L334.052 328.247C334.284 328.719 334.3 328.975 334.255 329C334.007 329.132 333.26 329.335 333.135 329.229Z" fill="#727272"/>
<path d="M318.164 317.932C318.225 317.887 318.288 317.831 318.343 317.776C318.332 317.738 318.308 317.701 318.292 317.659C317.846 316.706 317.237 315.396 316.586 315.213C316.418 315.166 316.259 315.188 316.112 315.289C315.429 315.74 315.683 317.735 316.907 321.568C317.827 324.437 319.765 328.52 319.782 328.56C320.201 329.44 321.486 330.78 322.904 330.855C324.258 330.921 332.11 329.519 332.956 329.365C332.893 329.308 332.847 329.238 332.81 329.155C331.631 329.366 324.185 330.682 322.914 330.621C321.537 330.549 320.326 329.174 319.989 328.459C319.984 328.45 319.828 328.124 319.588 327.603C319.589 327.608 319.593 327.615 319.593 327.618L319.366 327.663C319.325 327.462 319.307 327.221 319.293 326.944C318.643 325.487 317.694 323.254 317.128 321.495C315.686 316.986 315.847 315.735 316.236 315.481C316.329 315.418 316.418 315.408 316.52 315.438C317.075 315.593 317.706 316.948 318.08 317.758C318.111 317.822 318.137 317.877 318.164 317.932Z" fill="#727272"/>
<path d="M332.958 329.374C332.984 329.369 333.01 329.367 333.02 329.366L332.976 329.137C332.967 329.137 332.91 329.15 332.814 329.166C332.85 329.245 332.898 329.318 332.958 329.374Z" fill="#727272"/>
<path d="M320.628 320.732C320.628 320.729 320.713 320.68 320.845 320.598C320.979 319.855 321.364 317.731 321.393 317.404C321.394 317.376 321.399 317.326 321.4 317.271C321.402 317.058 321.373 316.692 321.152 316.451C321.012 316.294 320.814 316.215 320.575 316.219C320.122 316.221 319.439 316.826 318.71 317.463C318.59 317.565 318.465 317.672 318.346 317.775C318.374 317.84 318.407 317.904 318.431 317.958L318.223 318.059C318.205 318.021 318.179 317.976 318.165 317.936C317.947 318.115 317.753 318.263 317.574 318.375C317.061 318.699 316.946 318.628 316.946 318.628L316.712 318.601C316.704 318.655 316.725 318.765 316.823 318.827C316.987 318.926 317.264 318.844 317.7 318.573C318.031 318.367 318.434 318.013 318.862 317.638C319.495 317.085 320.211 316.461 320.575 316.454C320.748 316.452 320.88 316.501 320.975 316.61C321.156 316.796 321.181 317.133 321.158 317.388C321.123 317.758 320.591 320.696 320.567 320.812L320.581 320.763L320.628 320.732Z" fill="#727272"/>
<path d="M320.806 320.853C320.809 320.834 320.83 320.74 320.852 320.6C320.719 320.687 320.639 320.732 320.636 320.734L320.59 320.76L320.576 320.808C320.576 320.809 320.575 320.816 320.575 320.816L320.806 320.853Z" fill="#727272"/>
<path d="M318.429 317.963C318.405 317.904 318.372 317.841 318.346 317.781C318.286 317.833 318.222 317.888 318.165 317.935C318.18 317.975 318.201 318.021 318.222 318.06L318.429 317.963Z" fill="#727272"/>
<path d="M319.293 326.945C319.406 327.189 319.507 327.415 319.596 327.611C319.22 325.63 320.389 319.718 320.772 317.773C320.88 317.248 320.899 317.145 320.9 317.106C320.902 317.094 320.896 317.089 320.893 317.084L320.781 317.103L320.664 317.099C320.66 317.138 320.601 317.399 320.541 317.728C320.196 319.489 319.207 324.491 319.293 326.945Z" fill="#727272"/>
<path d="M319.596 327.616C319.506 327.42 319.41 327.196 319.295 326.949C319.302 327.222 319.324 327.467 319.367 327.669L319.596 327.625C319.598 327.62 319.596 327.615 319.596 327.616Z" fill="#727272"/>
<path d="M326.902 296.317C327.037 296.412 327.2 296.451 327.367 296.422C327.657 296.37 327.872 296.121 327.877 295.825C327.88 295.786 327.875 295.745 327.869 295.708C327.841 295.545 327.751 295.403 327.618 295.31C327.484 295.213 327.322 295.176 327.158 295.205C326.83 295.263 326.597 295.577 326.656 295.918C326.68 296.08 326.769 296.222 326.902 296.317ZM327.037 296.129C326.958 296.072 326.899 295.982 326.884 295.881C326.876 295.861 326.876 295.83 326.879 295.809C326.882 295.625 327.016 295.468 327.197 295.435C327.297 295.418 327.397 295.443 327.482 295.502C327.563 295.565 327.62 295.646 327.636 295.751C327.674 295.964 327.529 296.156 327.325 296.191C327.223 296.208 327.121 296.185 327.037 296.129Z" fill="#727272"/>
<path d="M327.034 295.562C327.642 251.032 337.559 208.063 323.722 211.189C192.404 235.095 127.427 155.329 127.427 155.329C127.427 155.329 124.825 154.392 123.341 155.72" stroke="#727272" stroke-width="1.5" stroke-miterlimit="10"/>
<path d="M327.194 296.839C325.439 266.14 338.58 206.032 323.722 211.189C191.778 234.939 127.427 155.329 127.427 155.329C127.427 155.329 124.825 154.392 123.341 155.72" stroke="#727272" stroke-width="3" stroke-miterlimit="10" stroke-linecap="round" stroke-dasharray="1.5 4"/>
<path d="M-33.9788 187.617L-47.6776 176.153L-105.148 172.89C-87.2101 169.199 -53.2238 163.8 -2.58803 160.681C33.7884 158.444 64.267 158.208 78.3637 158.92C103.997 160.221 121.241 158.731 125.621 158.283C124.874 158.755 123.782 159.492 123.119 160.109C122.616 160.577 122.175 161.209 121.551 162.08C120.304 163.853 118.396 166.408 114.181 170.384L113.76 170.765C85.6242 184.472 47.4843 188.511 20.0924 189.292C-8.92413 190.122 -32.753 187.744 -33.9788 187.617Z" fill="#FF0000"/>
<path d="M-1.90877 141.721C-2.15392 141.225 -2.34939 140.853 -2.50642 140.575C-2.58611 140.436 -2.65502 140.323 -2.71643 140.225C-3.02064 139.739 -3.12096 139.737 -3.18236 139.736L-3.35627 139.846C-3.4383 140 -3.53017 140.168 -3.63846 140.344C-3.70924 140.46 -3.78471 140.58 -3.86486 140.702C-3.90564 140.761 -3.94689 140.823 -3.98627 140.885C-5.09674 142.494 -6.93799 144.392 -8.04471 144.101C-8.57205 143.958 -8.88893 143.604 -9.01596 143.005C-9.03283 142.935 -9.04268 142.859 -9.05111 142.787C-9.06002 142.71 -9.06799 142.636 -9.06799 142.548C-9.13736 140.41 -7.23283 136.222 -4.7283 133.553C-4.34299 133.14 -3.94314 132.771 -3.53439 132.444C-3.30705 132.262 -3.04924 132.079 -2.77689 131.923C-2.34002 131.676 -1.86564 131.497 -1.42502 131.517C-1.25955 131.526 -1.09736 131.563 -0.943144 131.633C-0.697518 131.749 -0.534393 131.941 -0.444862 132.214C-0.385799 132.396 -0.362363 132.61 -0.362831 132.838C-0.380644 134.433 -1.73767 136.862 -1.75502 136.89L-1.85674 137.072L0.361387 137.71L-1.90877 141.721ZM-1.63549 133.828C-1.64111 133.581 -1.70252 133.381 -1.83799 133.247C-1.86517 133.219 -1.89517 133.199 -1.92752 133.17C-2.01049 133.118 -2.10892 133.087 -2.21064 133.087C-2.28471 133.087 -2.36158 133.103 -2.44971 133.136C-3.04549 133.351 -3.90143 134.274 -4.76346 135.458L-4.80142 135.409L-4.84033 135.361L-5.59408 136.669C-5.96814 137.252 -6.32627 137.858 -6.64502 138.446C-7.17752 139.425 -7.6008 140.359 -7.81549 141.062C-7.93596 141.462 -7.99033 141.781 -7.97768 142.029C-7.97439 142.09 -7.96502 142.145 -7.95424 142.2C-7.91908 142.355 -7.84643 142.473 -7.73814 142.547C-7.68939 142.578 -7.63408 142.596 -7.57502 142.596C-6.8958 142.596 -4.69783 139.931 -3.78611 138.636C-3.75283 138.586 -3.72049 138.541 -3.69002 138.494C-3.63236 138.407 -3.57799 138.324 -3.53674 138.254C-3.49033 138.184 -3.45564 138.123 -3.43314 138.072C-3.40642 138.025 -3.37314 137.976 -3.3333 137.913C-3.29205 137.851 -3.24986 137.776 -3.20064 137.696C-2.66346 136.801 -1.60971 134.903 -1.63549 133.828Z" fill="black"/>
<path d="M18.9295 134.574C18.0515 134.693 14.9685 135.194 12.2948 135.702C12.1242 135.734 11.9564 135.766 11.7885 135.8C11.7018 135.816 11.6151 135.834 11.5293 135.849C11.1628 135.922 10.8093 135.997 10.4718 136.07C10.3659 136.093 10.2628 136.119 10.161 136.144C9.90792 136.2 9.66417 136.26 9.4387 136.322C9.34729 136.346 9.25823 136.371 9.17386 136.397C9.15558 136.401 9.13167 136.406 9.10495 136.414C8.28136 136.596 3.58636 137.69 2.88464 138.908C2.86261 138.951 2.84292 138.983 2.83167 139.024C2.41917 140.2 1.41698 146.793 1.25339 148.26H-1.55442L-2.53833 145.778L-2.1577 142.252L-2.01005 142.182C-2.01895 142.165 -2.02692 142.15 -2.03255 142.132C-2.04239 142.116 -2.04942 142.1 -2.05692 142.084L0.37542 137.804L0.413858 137.814L0.460733 137.66L0.495889 137.598L0.557764 137.486L4.19339 129.836L4.75073 129.643L5.30948 129.447L6.94401 120.526C7.02323 120.526 7.13433 120.525 7.27401 120.525C8.22605 120.525 11.4079 120.552 12.3215 120.901C13.0898 121.19 16.7723 129.307 18.9295 134.574Z" fill="#3FA9F5"/>
<path d="M-106.053 170.517L-105.976 170.468L-106.031 165.936L-103.201 164.207L-90.8156 164.422L-90.7865 164.408L-85.6556 162.509L-85.4372 151.928L-76.1821 149.666L-56.3817 149.613L-55.3382 147.696L-38.5668 146.765L-38.4572 145.063L-34.9701 144.711L-35.2851 144.463C-35.2898 144.457 -35.7773 144.068 -35.7651 143.592C-35.7553 143.317 -35.5809 143.054 -35.2373 142.814C-34.9832 142.632 -34.2365 142.422 -32.13 142.422C-30.1978 142.422 -27.8357 142.596 -26.1112 142.724C-25.2609 142.786 -24.5864 142.84 -24.1926 142.847C-23.0161 142.884 -21.7106 143.771 -20.9995 144.579C-20.5617 145.075 -20.3297 145.559 -20.3625 145.902C-20.4665 146.997 -20.6446 147.261 -21.4322 147.41L-21.3857 147.758L-9.80387 146.658L-2.65543 145.984L-1.67809 148.495H1.41519L1.43348 148.123C1.44801 148.043 2.59035 140.139 3.01645 138.913C3.3502 137.953 7.54411 136.832 9.12989 136.482C11.9311 135.698 17.7746 134.874 18.8485 134.73L18.8654 134.771L18.9844 134.758C18.9858 134.758 19.2141 134.739 19.5314 134.739C20.4282 134.739 21.0811 134.888 21.3727 135.154C21.691 135.446 21.6933 136.031 21.6966 136.599C21.699 137.089 21.7004 137.551 21.8822 137.894C22.2629 138.6 25.516 144.097 25.6552 144.332L25.7016 144.408L25.785 144.414C26.2636 144.442 73.4325 147.231 83.9588 148.526C84.7749 148.626 85.7035 148.721 86.7216 148.863C102.647 151.106 124.954 155.409 124.954 155.409C126.681 155.438 127.364 155.982 127.421 156.437C127.479 156.857 127.041 157.282 126.325 157.489C126.306 157.502 125.825 157.743 125.169 158.134C122.276 158.449 104.817 160.178 77.5393 158.795C63.4336 158.083 32.9086 158.362 -3.47855 160.602C-55.3195 163.798 -87.315 168.9 -105.026 172.614L-105.8 172.777C-107.27 172.758 -107.792 172.61 -107.859 172.53C-107.884 172.481 -107.916 172.443 -107.948 172.397C-108.023 172.293 -108.061 172.238 -108.046 172.154C-107.988 171.865 -107.338 171.327 -106.053 170.517Z" fill="white" stroke="white" stroke-miterlimit="10"/>
<path d="M-34.421 187.74L-34.3718 187.747C-34.173 187.765 -17.1775 189.541 6.23183 189.541C10.2851 189.541 14.5282 189.492 18.9073 189.361C46.1811 188.584 84.5122 184.806 112.658 171.256C112.579 171.326 112.51 171.391 112.44 171.459C111.47 172.356 110.505 173.307 109.482 174.315C103.016 180.681 94.9681 188.604 74.2085 194.64C69.4324 196.026 64.3189 196.677 58.1107 196.677C52.7928 196.677 47.3379 196.531 41.5629 196.032C35.2226 195.484 28.6714 194.919 21.6631 194.919C20.5868 194.919 19.5125 194.935 18.469 194.961C17.4162 194.99 16.1834 195.005 14.8039 195.005C-12.4914 195.005 -95.6397 189.293 -99.0907 189.072L-105.257 173.284L-48.078 176.282L-34.421 187.74Z" fill="white" stroke="white" stroke-miterlimit="10"/>
<path d="M326.321 210.018C325.753 209.246 323.061 206.696 322.321 206.497C321.581 206.298 317.493 204.477 316.964 203.455C316.435 202.433 314.347 200.402 313.549 200.024C312.75 199.645 309.968 192.631 309.51 191.704C309.052 190.778 310.03 186.048 310.507 186.292C310.507 186.292 310.452 184.401 308.907 183.309C307.361 182.217 306.354 179.838 305.555 179.46C304.758 179.081 300.213 177.446 297.66 177.913C295.106 178.38 286.67 182.059 284.302 181.869C281.933 181.68 279.728 182.114 278.105 181.524C276.483 180.934 272.004 179.994 269.63 180.402C267.258 180.811 257.766 184.671 255.251 184.888C252.735 185.103 252.066 185.002 252.066 185.002C252.066 185.002 248.311 182.117 245.538 181.78C242.765 181.444 236.45 180.738 235.402 180.321C234.353 179.904 233.399 178.303 232.44 178.414C231.481 178.525 229.193 180.059 227.296 180.712C225.398 181.364 223.086 181.943 223.053 182.714C223.022 183.484 222.301 183.717 224.43 183.785C226.56 183.852 230.734 182.861 231.834 182.945C232.935 183.026 238.206 183.83 239.468 184.537C240.729 185.242 246.439 187.653 247.662 188.61C248.887 189.568 249.949 189.901 250.496 190.24C251.044 190.581 257.68 190.643 257.68 190.643L255.78 192.073C255.78 192.073 250.774 191.224 248.393 191.118C246.012 191.012 239.323 192.218 239.323 192.218L236.181 190.702C236.181 190.702 234.792 191.613 233.641 191.865C232.49 192.117 229.08 192.026 228.945 192.347C228.81 192.67 227.512 193.328 228.671 193.59C229.828 193.852 231.096 193.959 233.387 194.651C235.678 195.343 237.936 194.574 238.94 194.728C239.944 194.88 253.489 196.432 254.276 196.894C255.06 197.356 259.138 196.437 260.24 196.52C261.34 196.601 269.462 194.417 274.054 192.376C275.594 191.741 277.289 191.928 278.306 191.997C279.322 192.066 289.059 193.893 290.976 193.672C292.894 193.45 301.845 190.877 302.528 190.897C303.21 190.914 305.577 195.042 305.855 196.026C306.133 197.01 306.755 199.631 307.36 200.153C307.965 200.672 311.571 204.088 312.106 204.511C312.641 204.936 317.703 207.591 318.501 207.969C319.3 208.349 320.105 209.242 321.175 210.089C322.243 210.937 323.873 212.041 324.768 212.348C325.662 212.656 327.239 212.982 327.239 212.982C327.239 212.982 326.887 210.789 326.321 210.018Z" fill="#E2C8B3"/>
<path d="M314.156 212.551C313.811 211.657 311.883 208.489 311.221 208.103C310.56 207.716 307.094 204.885 306.853 203.759C306.61 202.634 305.131 200.127 304.46 199.552C303.789 198.977 302.948 191.477 302.75 190.462C302.552 189.449 304.738 185.142 305.134 185.502C305.134 185.502 305.579 183.663 304.375 182.202C303.171 180.743 295.573 187.65 296.226 187.847C296.879 188.044 298.078 192.648 298.088 193.671C298.098 194.694 297.319 197.495 297.766 198.157C298.213 198.817 300.461 203.146 300.865 203.695C301.269 204.245 306.479 207.943 307.151 208.518C307.821 209.093 308.363 210.167 309.172 211.265C309.981 212.365 311.263 213.859 312.045 214.39C312.827 214.922 314.263 215.651 314.263 215.651C314.263 215.651 314.5 213.443 314.156 212.551Z" fill="#E2C8B3"/>
<path d="M308.317 186.131C308.317 186.131 308.809 185.912 309.566 186.521C310.428 187.216 311.568 187.299 311.785 187.154C312.003 187.009 312.802 186.956 313.165 187.029C313.528 187.102 313.729 187.543 313.729 187.543C313.729 187.543 314.116 188.153 314.474 188.137C314.833 188.121 315.791 187.447 315.791 187.447C315.791 187.447 315.309 187.694 316.561 186.602C317.813 185.511 319.616 184.664 319.616 184.664C319.616 184.664 320.856 183.304 320.806 182.227C320.757 181.152 320.84 179.081 319.668 178.013C318.494 176.944 317.688 175.948 315.715 176.039C313.743 176.13 312.589 175.893 311.704 177.147C310.818 178.401 307.61 181.206 306.438 181.125C305.364 181.051 308.317 186.131 308.317 186.131Z" fill="#E2C8B3"/>
<path d="M275.762 192.123C275.762 192.123 275.348 184.869 277.275 182.338C279.302 180.764 277.325 181.275 277.325 181.275L276.31 181.013C276.31 181.013 273.862 180.14 272.584 180.099C271.307 180.058 267.636 181.125 265.982 181.301C264.329 181.476 261.313 181.615 261.313 181.615L259.716 183.669C259.716 183.669 261.082 183.203 261.116 183.469C261.194 184.08 264.432 188.563 263.924 190.316C263.586 191.481 261.375 191.205 261.375 191.205L263.567 192.659L264.982 192.362C264.982 192.362 264.959 193.634 264.992 193.982C265.025 194.33 266.282 195.627 266.282 195.627L267.537 195.818L273.136 192.914L274.408 192.298L275.762 192.123Z" fill="#EDAD1D"/>
<path d="M312.255 176.517C312.255 176.517 313.629 175.425 314.124 175.283C314.621 175.141 315.356 174.72 315.439 174.95C315.523 175.18 315.134 175.141 315.375 175.375C315.616 175.609 315.841 175.821 316.301 175.654C316.76 175.487 317.233 175.105 317.633 175.344C318.031 175.583 317.301 175.57 318.069 175.845C318.838 176.12 318.562 175.465 319.74 176.159C320.92 176.852 320.81 176.401 321.011 177.677C321.211 178.952 320.8 179.581 321.411 180.108C322.021 180.636 322.382 180.088 322.694 181.02C323.006 181.952 323.479 182.993 322.951 183.09C322.423 183.187 322.182 183.209 322.269 183.42C322.355 183.632 322.647 184.047 322.792 184.131C322.938 184.214 323.028 184.583 322.897 184.701C322.766 184.82 322.559 184.887 322.22 184.776C321.881 184.665 321.62 184.566 321.445 184.421C321.269 184.276 320.932 183.767 320.708 183.813C320.483 183.86 320.307 184.015 320.126 184.008C319.943 184.001 320.183 183.921 319.716 183.842C319.249 183.763 319.206 183.428 318.699 183.647C318.191 183.866 317.777 184.119 317.661 183.844C317.544 183.57 317.63 183.401 317.734 183.36C317.84 183.318 318.253 183.45 318.438 183.148C318.623 182.845 318.573 182.64 318.447 182.443C318.319 182.246 317.906 181.926 317.405 181.87C316.904 181.813 311.699 180.45 311.589 180.133C311.193 179.006 310.349 180.872 309.964 180.676C309.58 180.478 309.251 180.626 308.705 180.899C308.158 181.171 308.007 181.075 307.985 180.959C307.963 180.843 307.962 180.587 307.953 180.527C307.942 180.466 308.559 179.832 308.575 179.417C308.591 179.002 309.903 178.618 309.421 178.412C308.938 178.206 311.328 177.85 311.231 177.716C311.132 177.582 312.255 176.517 312.255 176.517Z" fill="#514035"/>
<path d="M310.164 180.638C309.524 181.253 309.542 183.356 309.601 184.118C309.659 184.88 310.619 187.073 311.601 187.516C312.583 187.959 312.413 186.169 312.384 186.022C312.384 186.022 311.601 184.561 310.927 183.561C310.253 182.561 311.383 181.198 311.383 181.198C311.383 181.198 312.35 180.364 313.627 179.242L312.863 178.182C311.499 179.414 310.385 180.426 310.164 180.638Z" fill="#3F3F3F"/>
<path d="M311.422 185.369C311.422 185.369 311.358 184.593 311.044 183.498C310.73 182.402 311.08 181.232 311.651 181.004C312.224 180.775 312.174 180.398 312.174 180.398C312.174 180.398 313.258 180.044 313.405 180.027C313.55 180.009 314.064 179.764 314.553 179.913C315.043 180.061 316.368 180.423 316.66 180.894C316.951 181.364 317.753 181.306 317.969 181.489C318.185 181.673 318.54 181.914 318.507 182.03C318.475 182.147 318.391 182.172 318.189 182.17C317.986 182.169 315.112 181.521 315.112 181.521C315.112 181.521 314.411 182.032 314.29 182.181C314.17 182.331 311.422 185.369 311.422 185.369Z" fill="#474747"/>
<path d="M319.146 183.256C319.146 183.256 319.068 184.488 318.501 184.89C317.935 185.293 318.119 185.393 317.229 185.812C316.41 186.2 315.72 185.792 315.477 185.972C315.235 186.151 314.882 186.152 314.763 186.131C314.643 186.11 314.06 186.511 313.646 186.325C313.233 186.138 312.714 185.115 312.464 185.241C312.214 185.367 311.6 184.563 311.6 184.563L311.999 186.417L313.334 187.822L315.387 188.023H316.32L317.645 187.579L318.707 186.722C318.707 186.722 319.173 186.257 319.272 186.109C319.371 185.96 319.676 185.215 319.676 185.215C319.676 185.215 320.01 184.545 319.801 184.226C319.592 183.906 319.146 183.256 319.146 183.256Z" fill="#474747"/>
<path d="M313.992 181.626C312.578 180.074 312.255 176.518 312.255 176.518L311.451 177.308C311.451 177.308 311.873 181.236 313.182 182.247C314.491 183.258 313.992 181.626 313.992 181.626Z" fill="#474747"/>
<path d="M320.058 184.394C320.011 184.153 319.924 183.929 319.808 183.717C319.452 182.078 317.339 181.104 315.047 181.54C312.726 181.981 311.104 183.695 311.422 185.37C311.469 185.611 311.556 185.837 311.671 186.048C312.027 187.687 314.141 188.661 316.433 188.226C318.752 187.784 320.375 186.069 320.058 184.394ZM316.276 187.842C314.209 188.235 312.304 187.344 312.021 185.85C311.738 184.359 313.183 182.832 315.249 182.439C317.315 182.047 319.221 182.938 319.504 184.43C319.787 185.922 318.341 187.449 316.276 187.842Z" fill="#FFFF00"/>
<path d="M312.892 178.747C312.97 178.943 312.874 179.163 312.678 179.24L312.079 179.476C311.883 179.554 311.661 179.457 311.585 179.262L311.521 179.098C311.443 178.902 311.539 178.681 311.735 178.604L312.334 178.368C312.53 178.291 312.752 178.387 312.828 178.583L312.892 178.747Z" fill="#FFFF00"/>
<path d="M312.255 176.517C312.255 176.517 313.629 175.425 314.124 175.283C314.621 175.141 315.356 174.72 315.44 174.95C315.523 175.18 315.134 175.141 315.375 175.375C315.616 175.609 315.841 175.821 316.301 175.654C316.76 175.487 317.233 175.105 317.633 175.344C318.031 175.583 317.301 175.57 318.069 175.845C318.838 176.12 318.562 175.465 319.74 176.159C320.92 176.852 320.81 176.401 321.011 177.677C321.211 178.952 320.8 179.581 321.411 180.108C322.021 180.636 322.382 180.088 322.694 181.02C323.006 181.952 323.48 182.993 322.951 183.09C322.423 183.187 322.182 183.209 322.269 183.42C322.356 183.632 322.647 184.047 322.792 184.131C322.938 184.214 323.028 184.583 322.897 184.701C322.767 184.82 322.559 184.887 322.221 184.776C321.881 184.665 321.62 184.566 321.445 184.421C321.269 184.276 320.932 183.767 320.708 183.813C320.483 183.86 320.308 184.015 320.126 184.008C319.943 184.001 320.183 183.921 319.716 183.842C319.249 183.763 319.206 183.428 318.699 183.647C318.191 183.866 317.777 184.119 317.661 183.844C317.544 183.57 317.63 183.401 317.734 183.36C317.84 183.318 318.253 183.45 318.438 183.148C318.623 182.845 318.573 182.64 318.447 182.443C318.32 182.246 317.907 181.926 317.405 181.87C316.904 181.813 316.269 182.076 316.165 181.757C316.06 181.437 316.249 181.18 315.864 180.983C315.479 180.786 315.484 180.51 314.938 180.782C314.391 181.054 313.884 181.142 313.862 181.026C313.84 180.911 313.805 180.886 313.794 180.825C313.783 180.764 313.895 180.725 313.912 180.31C313.927 179.894 314.083 179.967 313.6 179.762C313.118 179.556 313.185 178.855 313.087 178.722C312.988 178.587 312.255 176.517 312.255 176.517Z" fill="#514035"/>
<path d="M318.917 172.722C318.917 172.722 315.349 175.933 312.769 178.267L313.234 179.587C315.652 177.462 319.572 173.961 319.738 173.483C320.097 172.458 318.917 172.722 318.917 172.722Z" fill="#3F3F3F"/>
<path d="M318.608 173C318.608 173 318.428 173.923 319.34 173.988C319.349 173.988 319.355 173.983 319.362 173.98L318.636 174.698C318.636 174.698 317.726 174.609 317.721 173.799L318.608 173Z" fill="#EFEF50"/>
<path opacity="0.6" d="M0.361328 179.129H374.678L375.138 375.016H0.820882L0.361328 179.129Z" fill="#33EFFF"/>
<path d="M500.961 331.351C470.841 336.797 452.306 335.443 430.823 335.367C411.7 335.34 404.361 332.255 370.783 329.706C350.04 329.081 333.748 328.969 311.779 330.089C295.787 330.899 259.011 332.811 242.486 330.237C200.63 322.211 131.469 323.45 95.5413 329.004C59.6131 334.56 75.1282 325.584 52.2635 326.44C29.4002 327.287 33.0743 330.714 21.6424 327.716C10.211 324.725 5.20711 315.646 -4.53305 317.37C-5.63649 318.029 -4.32304 323.335 -28.7834 310.512C-37.3573 306.018 -47.2306 306.14 -53.3323 306.04C-59.3951 305.94 -72.9073 309.143 -80.6642 303.158C-89.6093 297.907 -115.512 316.208 -124.495 321.33C-133.477 326.47 -137.953 323.46 -137.953 323.46L-136.562 380.887L501.299 381.682L500.961 331.351Z" fill="#D8BD80"/>
<rect x="315.138" y="15.0156" width="38.9496" height="25" rx="12.5" fill="#969696" fill-opacity="0.3"/>
<path d="M330.707 24.251C330.707 24.766 330.556 25.2285 330.255 25.6387C329.955 26.0443 329.558 26.3428 329.066 26.5342C329.64 26.7301 330.1 27.0469 330.447 27.4844C330.793 27.9219 330.966 28.4277 330.966 29.002C330.966 29.8542 330.677 30.5309 330.098 31.0322C329.519 31.529 328.754 31.7773 327.801 31.7773C326.84 31.7773 326.069 31.529 325.491 31.0322C324.917 30.5355 324.629 29.8587 324.629 29.002C324.629 28.4368 324.796 27.9333 325.128 27.4912C325.461 27.0492 325.917 26.7301 326.496 26.5342C326.003 26.3428 325.611 26.0443 325.32 25.6387C325.028 25.2285 324.882 24.766 324.882 24.251C324.882 23.4261 325.147 22.7699 325.675 22.2822C326.208 21.7946 326.913 21.5508 327.788 21.5508C328.663 21.5508 329.367 21.7969 329.9 22.2891C330.438 22.7812 330.707 23.4352 330.707 24.251ZM330.146 29.0088C330.146 28.389 329.925 27.8809 329.483 27.4844C329.041 27.0833 328.476 26.8828 327.788 26.8828C327.099 26.8828 326.537 27.0788 326.099 27.4707C325.662 27.8626 325.443 28.3753 325.443 29.0088C325.443 29.6423 325.655 30.1481 326.079 30.5264C326.502 30.9001 327.077 31.0869 327.801 31.0869C328.508 31.0869 329.075 30.9001 329.503 30.5264C329.932 30.1527 330.146 29.6468 330.146 29.0088ZM329.886 24.2441C329.886 23.6745 329.688 23.2005 329.292 22.8223C328.9 22.4395 328.398 22.248 327.788 22.248C327.168 22.248 326.664 22.4326 326.277 22.8018C325.894 23.1663 325.703 23.6471 325.703 24.2441C325.703 24.8275 325.894 25.2969 326.277 25.6523C326.664 26.0078 327.17 26.1855 327.794 26.1855C328.41 26.1855 328.911 26.0078 329.298 25.6523C329.69 25.2923 329.886 24.8229 329.886 24.2441ZM332.621 32.4951H331.875L336.032 21.6875H336.77L332.621 32.4951ZM343.278 27.0332C342.986 27.4616 342.624 27.7943 342.191 28.0312C341.758 28.2637 341.289 28.3799 340.783 28.3799C340.218 28.3799 339.719 28.234 339.286 27.9424C338.853 27.6507 338.518 27.2474 338.281 26.7324C338.044 26.2174 337.925 25.6546 337.925 25.0439C337.925 24.3877 338.051 23.7907 338.301 23.2529C338.556 22.7152 338.91 22.2982 339.361 22.002C339.817 21.7012 340.341 21.5508 340.933 21.5508C341.931 21.5508 342.708 21.9017 343.264 22.6035C343.82 23.3008 344.098 24.292 344.098 25.5771V26.3154C344.098 28.111 343.715 29.46 342.95 30.3623C342.184 31.2646 341.015 31.7158 339.443 31.7158H339.292L339.299 31.0049H339.586C340.776 30.9867 341.681 30.6494 342.3 29.9932C342.92 29.3369 343.246 28.3503 343.278 27.0332ZM340.885 27.6758C341.432 27.6758 341.922 27.514 342.355 27.1904C342.792 26.8623 343.102 26.4385 343.285 25.9189V25.4473C343.285 24.4355 343.073 23.6517 342.649 23.0957C342.23 22.5352 341.662 22.2549 340.947 22.2549C340.3 22.2549 339.769 22.5169 339.354 23.041C338.939 23.5605 338.732 24.2168 338.732 25.0098C338.732 25.7708 338.93 26.4066 339.327 26.917C339.728 27.4229 340.247 27.6758 340.885 27.6758Z" fill="black"/>
</g>
<defs>
<linearGradient id="paint0_linear" x1="181.928" y1="379.526" x2="181.928" y2="-96.0253" gradientUnits="userSpaceOnUse">
<stop offset="0.1444" stop-color="white"/>
<stop offset="1" stop-color="#4FC3F7"/>
</linearGradient>
<clipPath id="clip0">
<rect width="375" height="375" fill="white" transform="translate(0.137695 0.015625)"/>
</clipPath>
</defs>
</svg>
