<svg width="376" height="376" viewBox="0 0 376 376" fill="none" xmlns="http://www.w3.org/2000/svg">
<g clip-path="url(#clip0)">
<path d="M52.8719 123.953C53.3435 124.836 156.464 284.918 158.216 290.013C159.969 295.108 160.31 300.099 162.223 303.475C164.137 306.851 169.474 316.589 169.849 317.135C170.224 317.682 232.119 312.213 232.119 312.213L230.868 291.636L202.171 266.018L130.919 123.953L52.8719 123.953Z" fill="#F9DBBD"/>
<path d="M145.542 328.797C145.542 304.89 173.969 301.453 209.238 301.453C244.506 301.453 273.26 306.593 273.26 328.797C273.26 353.682 244.67 356.388 209.401 356.388C174.132 356.388 145.542 353.016 145.542 328.797Z" fill="#303030"/>
<path d="M227.013 301.609L227.013 355.984" stroke="#353535" stroke-width="5" stroke-miterlimit="10" stroke-linecap="round"/>
<path d="M264.162 330.238L154.315 330.176" stroke="#353535" stroke-width="5" stroke-miterlimit="10" stroke-linecap="round"/>
<path d="M273.846 326.766C243.966 311.922 178.184 308.953 144.903 326.765" stroke="#353535" stroke-width="5" stroke-miterlimit="10" stroke-linecap="round"/>
<path d="M272.44 333.244C242.56 348.088 176.778 351.057 143.497 333.244" stroke="#353535" stroke-width="5" stroke-miterlimit="10" stroke-linecap="round"/>
<path d="M190.45 302.078L190.45 355.984" stroke="#353535" stroke-width="5" stroke-miterlimit="10" stroke-linecap="round"/>
<path d="M109.122 324.385L109.122 335.166L116.346 336.766L117.56 336.766L117.56 322.703L116.346 322.703L109.122 324.385Z" fill="#898989"/>
<path d="M104.903 324.385L104.903 335.166L112.128 336.766L113.341 336.766L113.341 322.703L112.128 322.703L104.903 324.385Z" fill="#9B9B9B"/>
<path d="M100.685 324.385L100.685 335.166L107.909 336.766L109.122 336.766L109.122 322.703L107.909 322.703L100.685 324.385Z" fill="#AAAAAA"/>
<path d="M96.4658 324.385L96.4658 335.166L103.69 336.766L104.903 336.766L104.903 322.703L103.69 322.703L96.4658 324.385Z" fill="#B5B5B5"/>
<path d="M122.313 343.796C123.313 343.796 124.122 342.986 124.122 341.987L124.122 316.543C124.122 315.544 123.312 314.734 122.313 314.734L119.369 314.734C118.37 314.734 117.56 315.544 117.56 316.543L117.56 341.987C117.56 342.987 118.37 343.796 119.369 343.796L122.313 343.796Z" fill="#999999"/>
<path d="M127.872 311.638C127.872 310.652 127.266 310.047 126.281 310.047L126.099 310.047C125.113 310.047 124.122 310.652 124.122 311.638L124.122 345.57C124.122 346.555 125.113 347.547 126.099 347.547L126.281 347.547C127.266 347.547 127.872 346.555 127.872 345.57L127.872 311.638Z" fill="#4F4F4F"/>
<path d="M142.403 343.328L142.403 315.203L127.872 315.203L127.872 343.328L142.403 343.328Z" fill="#3A3A3A"/>
<path d="M154.122 347.078L154.122 310.516L142.403 310.516L142.403 347.078L154.122 347.078Z" fill="#4F4F4F"/>
<path d="M134.669 345.203L134.669 313.797" stroke="#FBB03B" stroke-width="7" stroke-miterlimit="10" stroke-linecap="round"/>
<path d="M130.919 345.203L130.919 336.766" stroke="#FBB03B" stroke-width="7" stroke-miterlimit="10" stroke-linecap="round"/>
<path d="M138.419 345.203L138.419 313.797" stroke="#FBB03B" stroke-width="7" stroke-miterlimit="10" stroke-linecap="round"/>
<path d="M308.81 324.854L308.81 335.635L301.971 337.234L300.372 337.234L300.372 323.172L301.971 323.172L308.81 324.854Z" fill="#898989"/>
<path d="M313.028 324.854L313.028 335.635L306.19 337.234L304.591 337.234L304.591 323.172L306.19 323.172L313.028 324.854Z" fill="#9B9B9B"/>
<path d="M317.247 324.854L317.247 335.635L310.409 337.234L308.81 337.234L308.81 323.172L310.409 323.172L317.247 324.854Z" fill="#AAAAAA"/>
<path d="M321.466 324.854L321.466 335.635L314.628 337.234L313.028 337.234L313.028 323.172L314.628 323.172L321.466 324.854Z" fill="#B5B5B5"/>
<path d="M295.618 344.265C294.62 344.265 293.81 343.455 293.81 342.456L293.81 317.012C293.81 316.013 294.62 315.203 295.618 315.203L298.563 315.203C299.562 315.203 300.372 316.013 300.372 317.012L300.372 342.456C300.372 343.456 299.562 344.265 298.563 344.265L295.618 344.265Z" fill="#999999"/>
<path d="M291.844 348.016C290.858 348.016 290.06 347.217 290.06 346.232L290.06 312.3C290.06 311.314 290.858 310.516 291.844 310.516L292.026 310.516C293.011 310.516 293.81 311.314 293.81 312.3L293.81 346.232C293.81 347.217 293.011 348.016 292.026 348.016L291.844 348.016Z" fill="#4F4F4F"/>
<path d="M290.06 343.797L290.06 315.672L275.528 315.672L275.528 343.797L290.06 343.797Z" fill="#3A3A3A"/>
<path d="M275.528 347.547L275.528 310.984L263.81 310.984L263.81 347.547L275.528 347.547Z" fill="#4F4F4F"/>
<path d="M285.606 345.672L285.606 314.266" stroke="#FBB03B" stroke-width="7" stroke-miterlimit="10" stroke-linecap="round"/>
<path d="M281.856 345.672L281.856 314.266" stroke="#FBB03B" stroke-width="7" stroke-miterlimit="10" stroke-linecap="round"/>
<path d="M203.968 267.548C203.968 267.548 229.996 278.838 231.48 279.83C232.964 280.821 246.917 282.707 247.858 287.889C248.799 293.071 248.327 295.606 248.717 297.348C249.108 299.089 253.025 309.595 253.747 314.259C254.47 318.924 253.197 322.739 251.514 326.24C249.83 329.741 246.904 335.212 245.573 338.512C244.242 341.812 239.193 345.878 236.846 345.679C234.499 345.479 227.817 344.234 226.185 338.923C224.552 333.612 225.775 332.171 225.513 329.738C225.251 327.305 225.271 324.209 225.696 321.507C226.406 316.988 226.698 316.131 228.248 311.652C228.248 311.652 228.215 303.301 227.524 303.172C226.834 303.043 200.164 293.065 200.164 293.065C200.164 293.065 202.066 266.24 203.968 267.548Z" fill="#F9DBBD"/>
<path d="M255.714 351.041C255.714 351.041 255.367 351.569 254.151 351.081C252.935 350.593 249.472 348.809 247.162 348.994C244.851 349.179 237.151 349.398 235.914 351.059C234.677 352.72 234.569 353.834 234.793 355.076C235.018 356.318 238.389 360.595 238.846 361.287C239.303 361.979 242.938 363.798 243.638 363.882C244.339 363.966 248.847 362.974 249.688 362.668C250.528 362.361 251.793 362.321 252.453 361.139C253.113 359.958 256.048 356.133 256.294 354.928C256.541 353.723 255.714 351.041 255.714 351.041Z" fill="#F9DBBD"/>
<path d="M210.913 343.85C210.913 343.85 218.753 342.781 221.112 348.451C223.471 354.12 223.935 355.846 223.935 355.846L226.027 356.109C226.027 356.109 226.587 357.301 225.99 359.707C225.392 362.112 222.273 365.323 221.146 365.831C220.02 366.339 212.954 369.468 209.591 366.624C206.227 363.782 206.133 363.12 205.777 362.19C205.422 361.26 203.671 359.209 203.505 357.24C203.339 355.27 203.34 350.073 203.966 348.853C204.592 347.633 207.398 344.56 210.913 343.85Z" fill="#F9DBBD"/>
<path d="M173.458 351.355C173.458 350.534 173.067 348.19 172.93 348.015C172.794 347.839 171.876 344.558 171.857 344.099C171.857 344.099 171.62 340.364 171.593 339.478C171.566 338.591 170.916 337.465 169.493 335.258C168.069 333.051 162.209 333.334 159.833 334.683C157.457 336.03 156.366 338.628 155.749 341.214C155.132 343.801 159.486 351.904 160.114 352.675C160.742 353.446 161.59 353.234 162.227 353.893C163.496 355.205 166.229 355.657 168.146 355.912C169.907 356.146 174.326 354.55 174.806 354.401L173.755 352.819C173.755 352.819 173.458 352.175 173.458 351.355Z" fill="#F9DBBD"/>
<path d="M195.421 361.241C197.669 359.998 197.927 356.314 197.927 356.314L193.847 355.896C193.847 355.896 192.245 354.845 191.605 354.191C190.966 353.537 188.608 348.343 188.268 346.483C187.927 344.622 188.748 341.755 185.04 339.431C181.331 337.108 179.615 338.273 176.816 337.987C174.019 337.7 171.388 340.819 171.388 340.819C171.407 341.277 171.251 344.793 171.388 344.968C171.524 345.144 172.286 347.371 172.286 348.191C172.286 349.011 172.755 350.359 172.755 350.359L172.933 351.819C172.975 351.806 173.005 351.796 173.005 351.796C173.096 352.63 175.569 358.975 175.807 359.528C176.044 360.083 175.487 361.499 181.745 363.081C188.003 364.664 193.174 362.483 195.421 361.241Z" fill="#F9DBBD"/>
</g>
<g clip-path="url(#clip1)">
<path d="M208.755 118.232C244.023 118.232 272.614 102.51 272.614 83.117C272.614 63.7235 244.023 48.002 208.755 48.002C173.486 48.002 144.896 63.7235 144.896 83.117C144.896 102.51 173.486 118.232 208.755 118.232Z" fill="#303030"/>
<path d="M190.986 116.855L191.048 49.3711" stroke="#353535" stroke-width="5" stroke-miterlimit="10" stroke-linecap="round"/>
<path d="M153.994 81.6758L263.841 81.7377" stroke="#353535" stroke-width="5" stroke-miterlimit="10" stroke-linecap="round"/>
<path d="M143.841 82.1387C171.184 113.545 245.716 112.764 274.153 82.373" stroke="#353535" stroke-width="5" stroke-miterlimit="10" stroke-linecap="round"/>
<path d="M274.622 81.5238C247.278 50.1176 172.747 50.899 144.31 81.2895" stroke="#353535" stroke-width="5" stroke-miterlimit="10" stroke-linecap="round"/>
<path d="M227.548 116.387L227.58 49.5547" stroke="#353535" stroke-width="5" stroke-miterlimit="10" stroke-linecap="round"/>
<path d="M308.841 87.5293V76.748L301.81 75.3418H300.403V89.4043H301.81L308.841 87.5293Z" fill="#898989"/>
<path d="M313.06 87.5293V76.748L306.028 75.3418H304.622V89.4043H306.028L313.06 87.5293Z" fill="#9B9B9B"/>
<path d="M317.278 87.5293V76.748L310.247 75.3418H308.841V89.4043H310.247L317.278 87.5293Z" fill="#AAAAAA"/>
<path d="M321.497 87.5293V76.748L314.466 75.3418H313.06V89.4043H314.466L321.497 87.5293Z" fill="#B5B5B5"/>
<path d="M293.841 95.5656C293.841 96.5645 294.651 97.3745 295.65 97.3745H298.594C299.593 97.3745 300.403 96.5641 300.403 95.5656V70.1214C300.403 69.1225 299.592 68.3125 298.594 68.3125H295.65C294.651 68.3125 293.841 69.1225 293.841 70.1214V95.5656Z" fill="#999999"/>
<path d="M290.091 100.276C290.091 101.262 290.89 102.061 291.875 102.061H292.057C293.043 102.061 293.841 101.262 293.841 100.276V66.3446C293.841 65.3593 293.043 64.5605 292.057 64.5605H291.875C290.89 64.5605 290.091 65.3593 290.091 66.3446V100.276Z" fill="#4F4F4F"/>
<path d="M290.091 68.7793H275.56V96.9043H290.091V68.7793Z" fill="#3A3A3A"/>
<path d="M275.56 65.0293H263.841V101.592H275.56V65.0293Z" fill="#4F4F4F"/>
<path d="M283.294 66.9043V98.3105" stroke="#FBB03B" stroke-width="7" stroke-miterlimit="10" stroke-linecap="round"/>
<path d="M287.044 66.9043V75.3418" stroke="#FBB03B" stroke-width="7" stroke-miterlimit="10" stroke-linecap="round"/>
<path d="M279.544 66.9043V98.3105" stroke="#FBB03B" stroke-width="7" stroke-miterlimit="10" stroke-linecap="round"/>
<path d="M109.153 87.0605V76.2793L116.185 74.873H117.591V88.9355H116.185L109.153 87.0605Z" fill="#898989"/>
<path d="M104.935 87.0605V76.2793L111.966 74.873H113.372V88.9355H111.966L104.935 87.0605Z" fill="#9B9B9B"/>
<path d="M100.716 87.0605V76.2793L107.747 74.873H109.153V88.9355H107.747L100.716 87.0605Z" fill="#AAAAAA"/>
<path d="M96.4971 87.0605V76.2793L103.528 74.873H104.935V88.9355H103.528L96.4971 87.0605Z" fill="#B5B5B5"/>
<path d="M124.153 95.0949C124.153 96.0938 123.343 96.9038 122.344 96.9038H119.4C118.401 96.9038 117.591 96.0933 117.591 95.0949V69.6507C117.591 68.6518 118.401 67.8418 119.4 67.8418H122.344C123.343 67.8418 124.153 68.6518 124.153 69.6507V95.0949Z" fill="#999999"/>
<path d="M127.903 99.8072C127.903 100.793 127.105 101.592 126.119 101.592H125.937C124.952 101.592 124.153 100.793 124.153 99.8072V65.8759C124.153 64.8905 124.952 64.0918 125.937 64.0918H126.119C127.105 64.0918 127.903 64.8905 127.903 65.8759V99.8072Z" fill="#4F4F4F"/>
<path d="M142.435 68.3105H127.903V96.4355H142.435V68.3105Z" fill="#3A3A3A"/>
<path d="M154.153 64.5605H142.435V101.123H154.153V64.5605Z" fill="#4F4F4F"/>
<path d="M132.356 66.4355V97.8418" stroke="#FBB03B" stroke-width="7" stroke-miterlimit="10" stroke-linecap="round"/>
<path d="M136.106 66.4355V97.8418" stroke="#FBB03B" stroke-width="7" stroke-miterlimit="10" stroke-linecap="round"/>
</g>
<rect x="315.138" y="16.1641" width="38.9496" height="25" rx="12.5" fill="#969696" fill-opacity="0.3"/>
<path d="M329.866 29.583H331.417V30.2734H329.866V32.7891H329.045V30.2734H324.363V29.8086L328.97 22.8359H329.866V29.583ZM325.368 29.583H329.045V23.8955L328.683 24.5244L325.368 29.583ZM332.621 33.6436H331.875L336.032 22.8359H336.77L332.621 33.6436ZM343.278 28.1816C342.986 28.61 342.624 28.9427 342.191 29.1797C341.758 29.4121 341.289 29.5283 340.783 29.5283C340.218 29.5283 339.719 29.3825 339.286 29.0908C338.853 28.7992 338.518 28.3958 338.281 27.8809C338.044 27.3659 337.925 26.8031 337.925 26.1924C337.925 25.5361 338.051 24.9391 338.301 24.4014C338.556 23.8636 338.91 23.4466 339.361 23.1504C339.817 22.8496 340.341 22.6992 340.933 22.6992C341.931 22.6992 342.708 23.0501 343.264 23.752C343.82 24.4492 344.098 25.4404 344.098 26.7256V27.4639C344.098 29.2594 343.715 30.6084 342.95 31.5107C342.184 32.4131 341.015 32.8643 339.443 32.8643H339.292L339.299 32.1533H339.586C340.776 32.1351 341.681 31.7979 342.3 31.1416C342.92 30.4854 343.246 29.4987 343.278 28.1816ZM340.885 28.8242C341.432 28.8242 341.922 28.6624 342.355 28.3389C342.792 28.0107 343.102 27.5869 343.285 27.0674V26.5957C343.285 25.584 343.073 24.8001 342.649 24.2441C342.23 23.6836 341.662 23.4033 340.947 23.4033C340.3 23.4033 339.769 23.6654 339.354 24.1895C338.939 24.709 338.732 25.3652 338.732 26.1582C338.732 26.9193 338.93 27.555 339.327 28.0654C339.728 28.5713 340.247 28.8242 340.885 28.8242Z" fill="black"/>
<defs>
<clipPath id="clip0">
<rect width="245" height="270" fill="white" transform="translate(322.153 123.111) rotate(90)"/>
</clipPath>
<clipPath id="clip1">
<rect width="226" height="74" fill="white" transform="translate(96.4658 46)"/>
</clipPath>
</defs>
</svg>
