<svg width="376" height="376" viewBox="0 0 376 376" fill="none" xmlns="http://www.w3.org/2000/svg">
<g clip-path="url(#clip0)">
<path d="M328.183 291.727C324.948 289.556 315.185 279.933 313.138 275.837C310.107 272.37 294.306 229.381 290.157 222.174C286.006 214.965 279.559 189.656 275.886 185.793C269.414 180.769 257.205 143.118 257.028 139.828C256.849 136.537 246.305 125.563 245.225 123.474C244.147 121.385 242.731 117.004 241.393 116.513C240.056 116.021 236.035 88.7067 235.557 88.0926C235.08 87.4776 234.443 88.0565 234.443 88.0565C230.182 82.132 216.392 96 218.018 101.229L112.224 98.3939C112.214 98.3925 104.888 97.4086 102.78 98.002C100.671 98.5964 97.1487 97.4911 93.32 103.45C89.4912 109.409 95.5531 118.05 97.0278 119.156C98.5025 120.262 117.139 133.981 117.139 133.981L121.196 169.872L108.565 182.99L126.921 193.725L109.65 219.232L122.893 228.14L131.326 234.585L129.638 233.709C129.638 233.709 127.89 233.763 126.47 233.381C125.051 233 115.85 236.85 114.675 238.188C113.501 239.526 110.664 242.858 110.335 249.438C111.128 259.759 124.439 266.925 125.121 266.925C125.804 266.924 133.477 273.532 134.651 274.242C135.825 274.952 138.583 277.872 142.352 282.405C146.12 286.937 153.411 290.868 154.229 291.824C155.049 292.78 168.305 303.66 171.432 305.748C174.559 307.836 207.394 328.107 210.028 329.487C212.663 330.864 237.006 341.526 238.03 341.866C239.054 342.207 243.245 346.29 244.733 346.466C246.222 346.643 253.498 352.527 258.659 355.203C263.821 357.878 273.009 370.996 279.509 377.576C286.007 384.157 337.454 454.133 338.178 455.102C338.901 456.071 405.605 438.345 405.605 438.345L431.527 403.435C431.526 403.435 331.419 293.898 328.183 291.727Z" fill="#F9DBBD"/>
<path d="M239.738 231.077C240.949 239.543 235.066 247.385 226.603 248.595L148.672 259.735C140.208 260.944 132.365 255.063 131.155 246.599L102.969 49.412C101.759 40.9473 107.641 33.1041 116.105 31.8943L194.035 20.7554C202.5 19.5456 210.343 25.4265 211.553 33.8912L239.738 231.077Z" fill="#282726"/>
<path d="M185.693 247.729C191.238 247.729 195.734 243.234 195.734 237.689C195.734 232.144 191.238 227.648 185.693 227.648C180.148 227.648 175.653 232.144 175.653 237.689C175.653 243.234 180.148 247.729 185.693 247.729Z" fill="#353535"/>
<path d="M156.953 38.361C157.913 38.361 158.691 37.5828 158.691 36.6229C158.691 35.663 157.913 34.8848 156.953 34.8848C155.993 34.8848 155.215 35.663 155.215 36.6229C155.215 37.5828 155.993 38.361 156.953 38.361Z" fill="#353535"/>
<path d="M168.02 44.0398C167.861 42.9312 166.835 42.161 165.726 42.3195L149.786 44.5981C148.677 44.7565 147.907 45.7831 148.066 46.8917L148.089 47.0543C148.248 48.1629 149.274 48.9331 150.383 48.7746L166.324 46.496C167.432 46.3376 168.201 45.311 168.043 44.2025L168.02 44.0398Z" fill="#353535"/>
<path d="M136.661 228.773L229.924 215.441L206.644 52.5779L113.38 65.9094L136.661 228.773Z" fill="white"/>
<path d="M107.496 182.678C107.684 182.808 120.111 186.506 125.824 180.423C131.537 174.341 131.597 167.092 129.017 163.365C126.436 159.638 125.023 157.427 121.265 156.208C120.477 155.297 119.595 152.205 117.681 151.601C117.681 151.601 107.288 145.919 98.7294 160.234C93.3346 171.611 98.6488 176.556 107.496 182.678Z" fill="#F9DBBD"/>
<path d="M123.483 222.373C123.681 222.486 127.159 224.553 129.596 224.717C132.032 224.882 137.531 224.461 138.985 223.376C140.438 222.29 145.619 217.6 145.803 213.771C145.988 209.941 146.397 207.178 145.516 206.132C144.635 205.088 143.038 202.099 140.498 201.219C137.959 200.338 133.822 198.004 132.767 197.278C131.712 196.551 127.689 193.982 126.92 193.725C126.153 193.469 123.46 191.001 122.742 190.592C122.026 190.182 120.521 189.373 118.749 189.261C116.978 189.149 107.312 188.043 102.829 199.142C99.8393 207.907 101.129 209.771 102.44 212.802C103.751 215.833 108.185 218.709 109.649 219.232C111.113 219.753 119.182 219.916 123.483 222.373Z" fill="#F9DBBD"/>
<path d="M127.906 233.369C127.906 233.369 133.589 235.263 136.047 236.594C138.505 237.925 144.75 239.153 145.969 239.491C147.188 239.829 154.836 242.685 154.836 247.293C154.836 251.901 152.462 258.311 147.372 259.549C142.285 260.789 144.363 261.004 138.414 260.829C132.465 260.657 128.247 261.332 128.247 261.332C128.247 261.332 122.882 261.66 121.182 259.489C119.482 257.318 117.024 245.749 117.648 243.977C118.272 242.207 117.882 234.363 127.906 233.369Z" fill="#F9DBBD"/>
<path d="M189.302 130.907C189.296 130.252 189.127 130.025 188.519 129.822C185.238 128.728 181.957 127.634 178.675 126.541C177.948 126.299 177.693 126.377 177.271 127.006C176.354 128.371 175.446 129.742 174.532 131.11C174.017 131.881 173.766 131.96 172.92 131.618C169.276 130.146 166.005 128.069 163.058 125.482C158.751 121.702 155.38 117.235 153.209 111.903C152.866 111.062 152.954 110.8 153.717 110.292C155.112 109.364 156.507 108.437 157.899 107.504C158.402 107.167 158.519 106.869 158.34 106.33C157.223 102.96 156.098 99.5928 154.979 96.2239C154.823 95.7551 154.512 95.5207 154.017 95.5226C152.694 95.5273 151.37 95.4856 150.049 95.54C146.139 95.6998 143.173 98.78 143.224 102.694C143.247 104.488 143.357 106.294 143.601 108.071C144.463 114.335 146.682 120.105 150.433 125.199C158.305 135.889 168.926 141.371 182.213 141.607C185.326 141.662 188.101 139.625 188.954 136.634C189.282 135.486 189.284 134.245 189.434 133.047C189.39 133.041 189.346 133.035 189.303 133.03C189.305 132.322 189.31 131.614 189.302 130.907Z" fill="#85FF97"/>
<path d="M164.396 96.252L163.88 99.387C168.082 100.653 172.039 102.952 175.349 106.284C178.724 109.68 181.021 113.74 182.244 118.041L185.369 117.501C184.029 112.583 181.436 107.934 177.587 104.06C173.79 100.239 169.231 97.6376 164.396 96.252Z" fill="#85FF97"/>
<path d="M163.974 87.6426L163.393 91.3166C169.936 92.3371 176.225 95.376 181.251 100.434C186.342 105.556 189.355 111.959 190.295 118.599L193.961 117.966C192.896 110.599 189.54 103.498 183.89 97.8116C178.284 92.1712 171.271 88.7816 163.974 87.6426Z" fill="#85FF97"/>
<path d="M172.721 109.888C170.493 107.646 167.93 105.94 165.192 104.77L164.825 107.319C167.052 108.355 169.138 109.786 170.969 111.628C172.744 113.414 174.128 115.437 175.142 117.591C176.034 117.442 176.91 117.297 177.664 117.174C176.515 114.533 174.874 112.054 172.721 109.888Z" fill="#85FF97"/>
<rect x="315.138" y="15.0156" width="38.9496" height="25" rx="12.5" fill="#969696" fill-opacity="0.3"/>
<path d="M329.948 27.0332C329.656 27.4616 329.294 27.7943 328.861 28.0312C328.428 28.2637 327.958 28.3799 327.453 28.3799C326.888 28.3799 326.389 28.234 325.956 27.9424C325.523 27.6507 325.188 27.2474 324.951 26.7324C324.714 26.2174 324.595 25.6546 324.595 25.0439C324.595 24.3877 324.721 23.7907 324.971 23.2529C325.226 22.7152 325.58 22.2982 326.031 22.002C326.486 21.7012 327.011 21.5508 327.603 21.5508C328.601 21.5508 329.378 21.9017 329.934 22.6035C330.49 23.3008 330.768 24.292 330.768 25.5771V26.3154C330.768 28.111 330.385 29.46 329.62 30.3623C328.854 31.2646 327.685 31.7158 326.113 31.7158H325.962L325.969 31.0049H326.256C327.446 30.9867 328.35 30.6494 328.97 29.9932C329.59 29.3369 329.916 28.3503 329.948 27.0332ZM327.555 27.6758C328.102 27.6758 328.592 27.514 329.025 27.1904C329.462 26.8623 329.772 26.4385 329.955 25.9189V25.4473C329.955 24.4355 329.743 23.6517 329.319 23.0957C328.9 22.5352 328.332 22.2549 327.617 22.2549C326.97 22.2549 326.439 22.5169 326.024 23.041C325.609 23.5605 325.402 24.2168 325.402 25.0098C325.402 25.7708 325.6 26.4066 325.997 26.917C326.398 27.4229 326.917 27.6758 327.555 27.6758ZM332.621 32.4951H331.875L336.032 21.6875H336.77L332.621 32.4951ZM343.278 27.0332C342.986 27.4616 342.624 27.7943 342.191 28.0312C341.758 28.2637 341.289 28.3799 340.783 28.3799C340.218 28.3799 339.719 28.234 339.286 27.9424C338.853 27.6507 338.518 27.2474 338.281 26.7324C338.044 26.2174 337.925 25.6546 337.925 25.0439C337.925 24.3877 338.051 23.7907 338.301 23.2529C338.556 22.7152 338.91 22.2982 339.361 22.002C339.817 21.7012 340.341 21.5508 340.933 21.5508C341.931 21.5508 342.708 21.9017 343.264 22.6035C343.82 23.3008 344.098 24.292 344.098 25.5771V26.3154C344.098 28.111 343.715 29.46 342.95 30.3623C342.184 31.2646 341.015 31.7158 339.443 31.7158H339.292L339.299 31.0049H339.586C340.776 30.9867 341.681 30.6494 342.3 29.9932C342.92 29.3369 343.246 28.3503 343.278 27.0332ZM340.885 27.6758C341.432 27.6758 341.922 27.514 342.355 27.1904C342.792 26.8623 343.102 26.4385 343.285 25.9189V25.4473C343.285 24.4355 343.073 23.6517 342.649 23.0957C342.23 22.5352 341.662 22.2549 340.947 22.2549C340.3 22.2549 339.769 22.5169 339.354 23.041C338.939 23.5605 338.732 24.2168 338.732 25.0098C338.732 25.7708 338.93 26.4066 339.327 26.917C339.728 27.4229 340.247 27.6758 340.885 27.6758Z" fill="black"/>
</g>
<defs>
<clipPath id="clip0">
<rect width="375" height="375" fill="white" transform="translate(0.137695 0.015625)"/>
</clipPath>
</defs>
</svg>
