<svg width="376" height="376" viewBox="0 0 376 376" fill="none" xmlns="http://www.w3.org/2000/svg">
<g clip-path="url(#clip0)">
<g opacity="0.2">
<path opacity="0.2" d="M378.588 -86.8849L217.462 310.603V476.768C217.462 487.299 256.268 495.107 266.845 495.107H619.622C630.198 495.107 638.775 486.571 638.775 476.036L733.539 -110.706C733.539 -121.237 707.886 -86.8873 697.309 -86.8873L378.588 -86.8849Z" fill="#5E5E5E"/>
</g>
<path d="M255.072 197.343L256.473 193.932L244.192 188.888L242.79 192.299L255.072 197.343Z" fill="#3D3D3D"/>
<path d="M260.297 178.727L247.127 210.805L256.683 214.728L269.853 182.65L260.297 178.727Z" fill="#1C1C1C"/>
<path d="M250.077 187.325C250.988 187.698 251.423 188.74 251.049 189.65L248.201 196.587C247.827 197.498 246.785 197.933 245.873 197.559L238.938 194.711C238.026 194.337 237.591 193.296 237.965 192.384L240.814 185.448C241.188 184.537 242.23 184.102 243.139 184.476L250.077 187.325Z" fill="#E52E2E"/>
<path d="M379.976 217.487C407.984 217.487 430.689 194.782 430.689 166.775C430.689 138.767 407.984 116.062 379.976 116.062C351.969 116.062 329.264 138.767 329.264 166.775C329.264 194.782 351.969 217.487 379.976 217.487Z" fill="#A5A5A5"/>
<path d="M318.898 118.58C318.898 118.58 334.122 131.575 329.548 161.225C324.975 190.873 356.296 141.646 356.296 141.646L326.258 107.609L318.008 115.374L318.898 118.58Z" fill="#A5A5A5"/>
<path d="M335.514 102.937C335.514 102.937 347.568 118.915 377.438 116.137C407.309 113.357 356.281 141.655 356.281 141.655L324.117 109.62L332.364 101.855L335.514 102.937Z" fill="#A5A5A5"/>
<path d="M247.365 50.68C241.715 44.679 240.969 31.517 246.634 26.185L247.285 25.5709C256.243 17.9711 266.811 20.0875 272.941 26.6003L335.035 92.5572C338.324 96.0493 337.788 101.739 334.336 104.991L321.315 117.25C317.861 120.501 312.749 120.128 309.46 116.635L247.365 50.68Z" fill="#5E5E5E"/>
<path d="M379.957 205.476C401.294 205.476 418.591 188.179 418.591 166.841C418.591 145.504 401.294 128.207 379.957 128.207C358.619 128.207 341.322 145.504 341.322 166.841C341.322 188.179 358.619 205.476 379.957 205.476Z" fill="#727272"/>
<path d="M259.346 55.2654C268.965 55.2654 276.763 47.4676 276.763 37.8485C276.763 28.2294 268.965 20.4316 259.346 20.4316C249.727 20.4316 241.929 28.2294 241.929 37.8485C241.929 47.4676 249.727 55.2654 259.346 55.2654Z" fill="#2D2D2D"/>
<path d="M259.346 51.3784C266.818 51.3784 272.875 45.3213 272.875 37.8494C272.875 30.3775 266.818 24.3203 259.346 24.3203C251.874 24.3203 245.817 30.3775 245.817 37.8494C245.817 45.3213 251.874 51.3784 259.346 51.3784Z" fill="#3F3F3F"/>
<path d="M193.536 169.311L222.648 181.795" stroke="#F28D41" stroke-width="4" stroke-miterlimit="10"/>
<path d="M213.557 141.771L233.569 168.533" stroke="#F28D41" stroke-width="4" stroke-miterlimit="10"/>
<path d="M244.916 129.787L248.868 162.965" stroke="#F28D41" stroke-width="4" stroke-miterlimit="10"/>
<path d="M199.835 235.058L226.197 214.527" stroke="#F28D41" stroke-width="4" stroke-miterlimit="10"/>
<path d="M188.848 203.114L219.643 199.818" stroke="#F28D41" stroke-width="4" stroke-miterlimit="10"/>
<path d="M33.6167 167.891C48.0612 169.715 46.8884 188.31 40.1131 188.781C33.3359 189.257 37.8575 168.622 48.8239 167.072C59.7912 165.523 64.4787 184.074 57.8098 185.37C51.1226 186.672 54.8914 168.63 62.3126 167.206C62.3126 167.206 67.5954 164.676 74.3637 171.523C78.9776 176.185 88.3465 174.066 89.6253 173.386C90.9078 172.706 140.235 156.182 142.168 164.197C144.794 175.074 115.674 168.183 104.782 172.004C103.271 172.527 88.2551 177.288 88.2551 177.288" stroke="#FF0000" stroke-width="5" stroke-miterlimit="10" stroke-linecap="round"/>
<path d="M100.715 176.503C100.143 176.686 99.5696 176.494 99.4388 176.075L97.2408 169.184C97.1077 168.766 97.4635 168.279 98.0353 168.094L106.461 165.411C107.034 165.228 107.606 165.42 107.739 165.839L109.935 172.729C110.069 173.148 109.712 173.635 109.14 173.818L100.715 176.503Z" fill="#CECECE"/>
<path d="M9.87423 156.545C18.4739 162.515 14.6433 184.256 6.54142 178.601C0.713453 173.765 16.343 159.934 23.9456 164.678C31.5478 169.422 28.8478 187.342 23.9916 184.768C19.1344 182.194 22.1185 166.623 33.6174 167.893" stroke="#FF0000" stroke-width="5" stroke-miterlimit="10" stroke-linecap="round"/>
<path d="M-9.52187 145.125C-0.55515 151.35 -10.9286 168.551 -19.3933 162.641C-23.9003 159.492 -10.72 144.739 -3.11781 149.484C7.2036 155.925 1.03204 175.989 -6.68312 171.9C-11.5403 169.325 0.0650078 150.005 10.4127 156.919" stroke="#FF0000" stroke-width="7" stroke-miterlimit="10" stroke-linecap="round"/>
<path d="M164.884 146.96C163.598 147.099 162.516 147.462 161.136 147.901L161.134 147.888L161.077 147.937C160.388 148.19 159.649 148.496 159.011 148.834L139.011 157.728L139.01 157.731C135.58 159.003 133.089 162.66 133.522 166.656C133.956 170.682 137.184 173.743 141.042 174.197L162.238 178.578C162.996 178.795 163.716 178.964 164.511 179.068L164.505 179.084V179.081C165.947 179.215 167.062 179.158 168.348 179.019C175.72 178.222 181.477 172.754 182.588 165.5L175.193 166.299C174.101 168.557 172.068 169.747 169.657 170.009C167.247 170.269 164.972 169.337 163.455 167.672L155.213 168.519C152.975 168.665 150.972 167.039 150.728 164.786C150.484 162.533 151.781 160.365 154.239 160.002L154.473 159.976C154.473 159.977 154.475 159.976 154.477 159.976C154.477 159.976 154.477 159.976 154.478 159.976L162.48 159.111C163.605 157.206 165.629 155.661 168.08 155.396C170.531 155.13 172.838 156.208 174.344 157.829L181.7 157.034C179.134 150.533 172.289 146.159 164.884 146.96ZM146.293 165.277C146.544 167.59 144.871 169.669 142.557 169.919C140.242 170.17 138.163 168.497 137.914 166.183C137.663 163.868 139.337 161.789 141.651 161.539C143.965 161.289 146.043 162.961 146.293 165.277Z" fill="black"/>
<path d="M121.12 170.712C121.12 170.712 143.128 172.794 142.337 165.342" stroke="#FF0000" stroke-width="6" stroke-miterlimit="10" stroke-linecap="round"/>
<rect x="315.138" y="15.0156" width="38.9496" height="25" rx="12.5" fill="#969696" fill-opacity="0.3"/>
<path d="M328.649 31.6406H327.829V22.6719L325.122 23.6768V22.9111L328.512 21.6533H328.649V31.6406ZM332.621 32.4951H331.875L336.032 21.6875H336.77L332.621 32.4951ZM343.278 27.0332C342.986 27.4616 342.624 27.7943 342.191 28.0312C341.758 28.2637 341.289 28.3799 340.783 28.3799C340.218 28.3799 339.719 28.234 339.286 27.9424C338.853 27.6507 338.518 27.2474 338.281 26.7324C338.044 26.2174 337.925 25.6546 337.925 25.0439C337.925 24.3877 338.051 23.7907 338.301 23.2529C338.556 22.7152 338.91 22.2982 339.361 22.002C339.817 21.7012 340.341 21.5508 340.933 21.5508C341.931 21.5508 342.708 21.9017 343.264 22.6035C343.82 23.3008 344.098 24.292 344.098 25.5771V26.3154C344.098 28.111 343.715 29.46 342.95 30.3623C342.184 31.2646 341.015 31.7158 339.443 31.7158H339.292L339.299 31.0049H339.586C340.776 30.9867 341.681 30.6494 342.3 29.9932C342.92 29.3369 343.246 28.3503 343.278 27.0332ZM340.885 27.6758C341.432 27.6758 341.922 27.514 342.355 27.1904C342.792 26.8623 343.102 26.4385 343.285 25.9189V25.4473C343.285 24.4355 343.073 23.6517 342.649 23.0957C342.23 22.5352 341.662 22.2549 340.947 22.2549C340.3 22.2549 339.769 22.5169 339.354 23.041C338.939 23.5605 338.732 24.2168 338.732 25.0098C338.732 25.7708 338.93 26.4066 339.327 26.917C339.728 27.4229 340.247 27.6758 340.885 27.6758Z" fill="black"/>
</g>
<defs>
<clipPath id="clip0">
<rect width="375" height="375" fill="white" transform="translate(0.137695 0.015625)"/>
</clipPath>
</defs>
</svg>
